<?xml version="1.0" encoding="UTF-8" standalone="no"?><svg width="468.5714285714286" height="539.047619047619" viewBox="-10 -10 176.1904761904762 199.6825396825397" xmlns="http://www.w3.org/2000/svg" xmlns:xlink="http://www.w3.org/1999/xlink"><polyline points="37.883597883597886,34.074074074074076 40.63492063492064,33.86243386243387 41.26984126984127,33.86243386243387 41.904761904761905,33.86243386243387 42.539682539682545,33.86243386243387 43.17460317460318,33.65079365079365 43.80952380952381,33.43915343915344 44.44444444444445,33.43915343915344 45.07936507936508,33.43915343915344 45.714285714285715,33.43915343915344 46.349206349206355,33.43915343915344 46.98412698412699,33.65079365079365 47.61904761904762,33.43915343915344 48.25396825396826,33.43915343915344 48.88888888888889,33.43915343915344 49.523809523809526,33.43915343915344 50.158730158730165,33.43915343915344 50.7936507936508,33.65079365079365 51.42857142857143,33.65079365079365 52.06349206349207,33.65079365079365 52.6984126984127,33.65079365079365 53.333333333333336,33.65079365079365 53.968253968253975,33.86243386243387 54.60317460317461,33.86243386243387 55.23809523809524,33.86243386243387 55.87301587301588,34.074074074074076 56.50793650793651,34.074074074074076 57.142857142857146,34.074074074074076 57.777777777777786,34.28571428571429 58.41269841269842,34.28571428571429 59.04761904761905,34.4973544973545 59.682539682539684,34.4973544973545 60.31746031746032,34.70899470899471 60.952380952380956,34.920634920634924 61.58730158730159,34.920634920634924 62.22222222222223,35.13227513227513 62.85714285714286,35.13227513227513 63.492063492063494,35.55555555555556 64.12698412698413,35.55555555555556 64.76190476190477,35.76719576719577 65.3968253968254,35.97883597883598 66.03174603174604,35.97883597883598 66.45502645502646,36.402116402116405 67.08994708994709,36.19047619047619 67.72486772486774,36.402116402116405 68.35978835978837,36.613756613756614 68.994708994709,36.613756613756614 69.41798941798942,37.03703703703704 70.05291005291006,37.03703703703704 70.6878306878307,37.248677248677254 71.32275132275133,37.248677248677254 71.95767195767196,37.46031746031746 72.5925925925926,37.46031746031746 73.22751322751323,37.67195767195768 73.86243386243387,37.67195767195768 74.49735449735451,37.46031746031746 75.13227513227514,37.248677248677254 75.76719576719577,37.03703703703704 76.4021164021164,36.82539682539683 77.03703703703704,36.613756613756614 77.46031746031747,36.19047619047619 77.88359788359789,35.76719576719577 78.30687830687832,35.34391534391535 78.73015873015873,34.920634920634924 78.94179894179895,34.28571428571429 79.36507936507937,33.86243386243387 79.57671957671958,33.22751322751323 79.7883597883598,32.592592592592595 79.7883597883598,31.95767195767196 80.0,31.322751322751326 80.0,30.68783068783069 80.0,30.052910052910054 80.0,29.41798941798942 79.7883597883598,28.783068783068785 79.7883597883598,28.14814814814815 79.57671957671958,27.513227513227516 79.36507936507937,26.87830687830688 79.15343915343917,26.243386243386244 78.94179894179895,25.60846560846561 78.73015873015873,24.973544973544975 78.51851851851852,24.338624338624342 78.30687830687832,23.703703703703706 78.0952380952381,23.06878306878307 77.88359788359789,22.433862433862437 77.67195767195767,21.7989417989418 77.46031746031747,21.164021164021165 77.24867724867725,20.529100529100532 76.82539682539684,19.894179894179896 76.82539682539684,19.25925925925926 76.61375661375662,18.624338624338627 76.61375661375662,17.98941798941799 76.4021164021164,17.354497354497354 76.19047619047619,16.71957671957672 76.19047619047619,16.084656084656086 76.19047619047619,15.449735449735451 75.97883597883599,14.814814814814817 75.97883597883599,14.17989417989418 75.97883597883599,13.544973544973546 75.97883597883599,12.910052910052912 76.19047619047619,12.275132275132275 76.19047619047619,11.640211640211641 76.19047619047619,11.005291005291006 76.4021164021164,10.370370370370372 76.4021164021164,9.735449735449736 76.61375661375662,9.100529100529101 76.82539682539684,8.465608465608467 77.03703703703704,7.830687830687832 77.03703703703704,7.195767195767196 77.46031746031747,6.772486772486773 77.67195767195767,6.137566137566138 78.0952380952381,5.714285714285714 78.51851851851852,5.07936507936508 78.73015873015873,4.444444444444445 79.15343915343917,3.8095238095238098 79.57671957671958,3.3862433862433865 80.0,2.9629629629629632 80.63492063492065,2.53968253968254 81.05820105820106,1.9047619047619049 81.6931216931217,1.6931216931216932 82.11640211640213,1.26984126984127 82.75132275132276,1.0582010582010584 83.3862433862434,1.0582010582010584 83.80952380952381,0.4232804232804233 84.44444444444446,0.21164021164021166 85.07936507936509,0.21164021164021166 85.71428571428572,0.21164021164021166 86.34920634920636,0.21164021164021166 86.98412698412699,0.21164021164021166 87.61904761904762,0.21164021164021166 88.25396825396827,0.21164021164021166 88.8888888888889,0.21164021164021166 89.52380952380953,0.21164021164021166 90.15873015873017,0.21164021164021166 90.7936507936508,0.21164021164021166 91.42857142857143,0.4232804232804233 92.06349206349208,0.4232804232804233 92.69841269841271,0.634920634920635 93.33333333333334,0.634920634920635 93.96825396825398,0.634920634920635 94.60317460317461,1.0582010582010584 95.23809523809524,1.0582010582010584 95.87301587301587,1.0582010582010584 96.50793650793652,1.4814814814814816 97.14285714285715,1.4814814814814816 97.77777777777779,1.4814814814814816 98.41269841269842,1.4814814814814816 99.04761904761905,1.4814814814814816 99.68253968253968,1.6931216931216932 100.31746031746033,2.1164021164021167 100.95238095238096,2.3280423280423284 101.5873015873016,2.1164021164021167 102.22222222222223,2.3280423280423284 102.85714285714286,2.53968253968254 103.4920634920635,2.9629629629629632 104.12698412698414,3.3862433862433865 104.76190476190477,3.8095238095238098 105.3968253968254,4.021164021164021 106.03174603174604,4.444444444444445 106.66666666666667,4.867724867724868 107.0899470899471,5.291005291005291 107.51322751322752,5.714285714285714 108.14814814814815,6.137566137566138 108.78306878306879,6.560846560846561 109.20634920634922,6.984126984126985 109.62962962962963,7.407407407407408 110.05291005291006,7.830687830687832 110.47619047619048,8.253968253968255 110.89947089947091,8.88888888888889 111.11111111111111,9.523809523809524 111.11111111111111,10.15873015873016 111.11111111111111,10.793650793650794 111.11111111111111,11.428571428571429 111.11111111111111,12.063492063492065 111.11111111111111,12.6984126984127 110.89947089947091,13.333333333333334 110.6878306878307,13.96825396825397 110.47619047619048,14.603174603174605 110.26455026455027,15.238095238095239 110.05291005291006,15.873015873015873 109.62962962962963,16.50793650793651 109.20634920634922,17.142857142857146 108.78306878306879,17.77777777777778 108.35978835978837,18.412698412698415 107.93650793650795,19.047619047619047 107.51322751322752,19.682539682539684 107.0899470899471,20.31746031746032 106.66666666666667,20.740740740740744 106.24338624338625,21.375661375661377 105.82010582010582,21.7989417989418 105.3968253968254,22.222222222222225 104.97354497354497,22.857142857142858 104.55026455026456,23.280423280423282 104.12698412698414,23.703703703703706 103.70370370370371,24.12698412698413 103.28042328042329,24.55026455026455 102.85714285714286,25.185185185185187 102.43386243386244,25.60846560846561 102.01058201058201,26.031746031746035 101.37566137566138,26.455026455026456 100.95238095238096,27.089947089947092 100.52910052910053,27.513227513227516 100.10582010582011,27.93650793650794 99.68253968253968,28.35978835978836 99.25925925925927,28.783068783068785 98.83597883597885,29.41798941798942 98.41269841269842,30.052910052910054 97.989417989418,30.68783068783069 97.56613756613757,31.322751322751326 97.35449735449737,31.95767195767196 96.93121693121694,32.592592592592595 96.71957671957672,33.22751322751323 96.50793650793652,33.86243386243387 96.50793650793652,34.4973544973545 96.50793650793652,35.13227513227513 96.50793650793652,35.76719576719577 96.50793650793652,36.402116402116405 96.71957671957672,37.03703703703704 97.14285714285715,37.46031746031746 97.35449735449737,38.095238095238095 97.77777777777779,38.730158730158735 98.2010582010582,39.36507936507937 98.62433862433863,39.78835978835979 99.25925925925927,40.211640211640216 99.68253968253968,40.63492063492064 100.31746031746033,41.058201058201064 100.95238095238096,41.26984126984127 101.5873015873016,41.48148148148149 102.22222222222223,41.6931216931217 102.85714285714286,41.6931216931217 103.4920634920635,41.6931216931217 104.12698412698414,41.6931216931217 104.76190476190477,41.904761904761905 105.3968253968254,41.904761904761905 106.03174603174604,42.11640211640212 106.66666666666667,42.11640211640212 107.3015873015873,42.11640211640212 107.93650793650795,42.11640211640212 108.57142857142858,42.11640211640212 109.20634920634922,42.11640211640212 109.84126984126985,42.32804232804233 110.47619047619048,42.32804232804233 111.11111111111111,42.32804232804233 111.74603174603176,42.32804232804233 112.3809523809524,42.32804232804233 113.01587301587303,42.32804232804233 113.65079365079366,42.32804232804233 114.28571428571429,42.32804232804233 114.92063492063492,42.32804232804233 115.55555555555557,42.32804232804233 116.1904761904762,42.539682539682545 116.82539682539684,42.539682539682545 117.46031746031747,42.75132275132275 118.0952380952381,42.539682539682545 118.73015873015873,42.539682539682545 119.36507936507937,42.539682539682545 120.00000000000001,42.539682539682545 120.63492063492065,42.75132275132275 121.26984126984128,42.75132275132275 121.90476190476191,42.75132275132275 122.53968253968254,42.75132275132275 123.17460317460318,42.75132275132275 123.80952380952382,42.96296296296297 124.44444444444446,42.96296296296297 125.07936507936509,42.96296296296297 125.71428571428572,43.17460317460318 126.34920634920636,43.17460317460318 126.98412698412699,43.17460317460318 127.61904761904763,43.17460317460318 128.25396825396825,43.17460317460318 128.88888888888889,43.386243386243386 129.52380952380955,43.386243386243386 130.15873015873018,43.5978835978836 130.7936507936508,43.5978835978836 131.42857142857144,43.5978835978836 132.06349206349208,43.5978835978836 132.6984126984127,43.80952380952381 133.33333333333334,43.80952380952381 133.96825396825398,43.80952380952381 134.6031746031746,44.021164021164026 135.23809523809524,44.021164021164026 135.87301587301587,44.232804232804234 136.5079365079365,44.232804232804234 137.14285714285717,44.232804232804234 137.7777777777778,44.232804232804234 138.41269841269843,44.44444444444445 139.04761904761907,44.44444444444445 139.6825396825397,44.44444444444445 140.31746031746033,44.44444444444445 140.95238095238096,44.65608465608466 141.5873015873016,44.65608465608466 142.22222222222223,44.867724867724874 142.85714285714286,45.07936507936508 143.4920634920635,45.07936507936508 144.12698412698413,45.07936507936508 144.76190476190476,45.07936507936508 145.39682539682542,45.29100529100529 146.03174603174605,45.29100529100529 146.45502645502646,45.714285714285715 147.0899470899471,45.50264550264551 147.72486772486775,45.50264550264551 148.35978835978838,45.714285714285715 148.99470899470901,45.92592592592593 149.62962962962965,45.92592592592593 150.26455026455028,45.92592592592593 150.8994708994709,46.13756613756614 151.53439153439155,46.349206349206355 154.4973544973545,46.77248677248678" style="fill:none; stroke:#cc0000; stroke-width:1.0"  /><polyline points="154.4973544973545,46.77248677248678 154.92063492063494,50.158730158730165 155.13227513227514,50.7936507936508 155.13227513227514,51.42857142857143 155.13227513227514,52.06349206349207 155.34391534391534,52.6984126984127 155.34391534391534,53.333333333333336 155.34391534391534,53.968253968253975 155.55555555555557,54.60317460317461 155.55555555555557,55.23809523809524 155.55555555555557,55.87301587301588 155.55555555555557,56.50793650793651 155.55555555555557,57.142857142857146 155.76719576719577,57.777777777777786 155.76719576719577,58.41269841269842 155.76719576719577,59.04761904761905 155.76719576719577,59.682539682539684 155.76719576719577,60.31746031746032 155.76719576719577,60.952380952380956 155.76719576719577,61.58730158730159 155.76719576719577,62.22222222222223 155.55555555555557,62.85714285714286 155.55555555555557,63.492063492063494 155.55555555555557,64.12698412698413 155.55555555555557,64.76190476190477 155.34391534391534,65.3968253968254 155.34391534391534,66.03174603174604 155.34391534391534,66.66666666666667 155.13227513227514,67.3015873015873 155.13227513227514,67.93650793650794 154.92063492063494,68.57142857142858 154.92063492063494,69.20634920634922 154.7089947089947,69.84126984126985 154.4973544973545,70.47619047619048 154.4973544973545,71.11111111111111 154.2857142857143,71.74603174603175 154.2857142857143,72.38095238095238 154.2857142857143,73.01587301587303 154.07407407407408,73.65079365079366 153.86243386243387,74.28571428571429 153.65079365079367,74.92063492063492 153.43915343915344,75.55555555555556 153.22751322751324,76.19047619047619 153.01587301587304,76.82539682539684 152.8042328042328,77.46031746031747 152.38095238095238,78.0952380952381 152.16931216931218,78.73015873015873 151.74603174603175,79.15343915343917 151.32275132275134,79.7883597883598 150.8994708994709,80.21164021164022 150.26455026455028,80.63492063492065 149.62962962962965,81.05820105820106 148.99470899470901,81.26984126984128 148.35978835978838,81.48148148148148 147.72486772486775,81.48148148148148 147.0899470899471,81.6931216931217 146.45502645502646,81.48148148148148 145.82010582010582,81.48148148148148 145.1851851851852,81.48148148148148 144.55026455026456,81.48148148148148 143.91534391534393,81.26984126984128 143.2804232804233,81.26984126984128 142.64550264550266,81.05820105820106 142.01058201058203,81.05820105820106 141.3756613756614,81.05820105820106 140.74074074074076,80.84656084656085 140.10582010582013,80.84656084656085 139.47089947089947,80.63492063492065 138.83597883597884,80.63492063492065 138.2010582010582,80.42328042328043 137.56613756613757,80.42328042328043 136.93121693121694,80.21164021164022 136.2962962962963,80.42328042328043 135.66137566137567,80.42328042328043 135.02645502645504,80.21164021164022 134.3915343915344,80.21164021164022 133.75661375661377,80.0 133.12169312169314,79.7883597883598 132.4867724867725,79.7883597883598 131.85185185185185,79.7883597883598 131.21693121693121,79.57671957671958 130.58201058201058,79.57671957671958 129.94708994708995,79.57671957671958 129.31216931216932,79.36507936507937 128.67724867724868,79.36507936507937 128.04232804232805,79.36507936507937 127.40740740740742,79.36507936507937 126.77248677248679,79.36507936507937 126.13756613756615,79.36507936507937 125.5026455026455,79.57671957671958 124.86772486772487,79.57671957671958 124.23280423280424,79.7883597883598 123.59788359788361,80.0 122.96296296296298,80.0 122.32804232804234,80.21164021164022 121.6931216931217,80.42328042328043 121.05820105820106,80.63492063492065 120.42328042328043,81.05820105820106 119.7883597883598,81.26984126984128 119.36507936507937,81.6931216931217 118.73015873015873,82.11640211640213 118.30687830687832,82.53968253968254 117.67195767195768,82.96296296296298 117.24867724867725,83.3862433862434 116.82539682539684,83.80952380952381 116.4021164021164,84.44444444444446 115.97883597883599,84.86772486772487 115.76719576719577,85.5026455026455 115.34391534391536,85.92592592592594 115.13227513227514,86.56084656084657 114.70899470899472,87.1957671957672 114.49735449735451,87.83068783068784 114.49735449735451,88.46560846560847 114.07407407407408,89.1005291005291 114.07407407407408,89.73544973544975 113.86243386243387,90.37037037037038 113.86243386243387,91.00529100529101 113.86243386243387,91.64021164021165 113.65079365079366,92.27513227513228 113.65079365079366,92.91005291005291 113.65079365079366,93.54497354497356 113.65079365079366,94.17989417989419 113.86243386243387,94.81481481481482 113.86243386243387,95.44973544973546 113.86243386243387,96.08465608465609 114.07407407407408,96.71957671957672 114.07407407407408,97.35449735449737 114.28571428571429,97.989417989418 114.28571428571429,98.62433862433863 114.49735449735451,99.25925925925927 114.92063492063492,99.8941798941799 115.13227513227514,100.52910052910053 115.34391534391536,101.16402116402116 115.55555555555557,101.79894179894181 115.76719576719577,102.43386243386244 116.1904761904762,103.06878306878308 116.4021164021164,103.70370370370371 116.61375661375662,104.33862433862434 117.03703703703705,104.76190476190477 117.24867724867725,105.3968253968254 117.67195767195768,106.03174603174604 118.0952380952381,106.66666666666667 118.51851851851853,107.3015873015873 118.94179894179895,107.72486772486774 119.36507936507937,108.14814814814815 119.7883597883598,108.78306878306879 120.21164021164022,109.20634920634922 120.63492063492065,109.62962962962963 121.26984126984128,110.05291005291006 121.6931216931217,110.47619047619048 122.32804232804234,110.89947089947091 122.75132275132276,111.32275132275133 123.3862433862434,111.53439153439155 124.02116402116403,111.95767195767196 124.65608465608466,111.95767195767196 125.07936507936509,112.3809523809524 125.71428571428572,112.3809523809524 126.34920634920636,112.5925925925926 126.77248677248679,113.01587301587303 127.40740740740742,113.01587301587303 128.04232804232805,113.22751322751324 128.67724867724868,113.22751322751324 129.31216931216932,113.22751322751324 129.94708994708995,113.01587301587303 130.58201058201058,113.01587301587303 131.21693121693121,113.01587301587303 131.85185185185185,112.80423280423281 132.4867724867725,112.5925925925926 133.12169312169314,112.16931216931218 133.75661375661377,111.74603174603176 134.3915343915344,111.74603174603176 135.02645502645504,111.53439153439155 135.66137566137567,111.32275132275133 136.2962962962963,111.11111111111111 136.93121693121694,110.6878306878307 137.56613756613757,110.6878306878307 138.2010582010582,110.6878306878307 138.83597883597884,110.6878306878307 139.47089947089947,110.6878306878307 140.10582010582013,110.6878306878307 140.74074074074076,110.6878306878307 141.3756613756614,110.6878306878307 142.01058201058203,110.89947089947091 142.64550264550266,111.11111111111111 143.2804232804233,111.32275132275133 143.91534391534393,111.53439153439155 144.55026455026456,111.95767195767196 145.1851851851852,112.16931216931218 145.60846560846562,112.5925925925926 146.24338624338625,112.80423280423281 146.66666666666669,113.22751322751324 147.30158730158732,113.65079365079366 147.93650793650795,114.07407407407408 148.35978835978838,114.49735449735451 148.78306878306879,114.92063492063492 149.20634920634922,115.34391534391536 149.62962962962965,115.76719576719577 150.05291005291005,116.4021164021164 150.47619047619048,116.82539682539684 150.6878306878307,117.46031746031747 151.11111111111111,118.0952380952381 151.32275132275134,118.73015873015873 151.53439153439155,119.36507936507937 151.74603174603175,120.00000000000001 151.95767195767198,120.63492063492065 151.95767195767198,121.26984126984128 152.16931216931218,121.90476190476191 152.38095238095238,122.53968253968254 152.38095238095238,123.17460317460318 152.38095238095238,123.80952380952382 152.38095238095238,124.44444444444446 151.95767195767198,125.07936507936509 151.95767195767198,125.71428571428572 151.95767195767198,126.34920634920636 151.74603174603175,126.98412698412699 151.74603174603175,127.61904761904763 151.53439153439155,128.25396825396825 151.53439153439155,128.88888888888889 151.32275132275134,129.52380952380955 151.32275132275134,130.15873015873018 151.11111111111111,130.7936507936508 151.11111111111111,131.42857142857144 151.11111111111111,132.06349206349208 151.11111111111111,132.6984126984127 150.8994708994709,133.33333333333334 150.8994708994709,133.96825396825398 150.8994708994709,134.6031746031746 150.6878306878307,135.23809523809524 150.6878306878307,135.87301587301587 150.6878306878307,136.5079365079365 150.6878306878307,137.14285714285717 150.6878306878307,137.7777777777778 150.6878306878307,138.41269841269843 150.6878306878307,139.04761904761907 150.6878306878307,139.6825396825397 150.6878306878307,140.31746031746033 150.6878306878307,140.95238095238096 150.6878306878307,141.5873015873016 150.8994708994709,142.22222222222223 150.8994708994709,142.85714285714286 150.8994708994709,143.4920634920635 151.11111111111111,144.12698412698413 151.11111111111111,144.76190476190476 151.11111111111111,145.39682539682542 151.32275132275134,146.03174603174605 151.53439153439155,149.20634920634922" style="fill:none; stroke:#999900; stroke-width:1.0"  /><polyline points="151.53439153439155,149.20634920634922 148.57142857142858,148.99470899470901 147.93650793650795,148.78306878306879 147.30158730158732,148.78306878306879 146.66666666666669,148.57142857142858 146.03174603174605,148.57142857142858 145.39682539682542,148.57142857142858 144.76190476190476,148.57142857142858 144.12698412698413,148.57142857142858 143.4920634920635,148.35978835978838 142.85714285714286,148.35978835978838 142.22222222222223,148.14814814814815 141.5873015873016,148.14814814814815 140.95238095238096,148.14814814814815 140.31746031746033,148.14814814814815 139.6825396825397,148.14814814814815 139.04761904761907,148.14814814814815 138.41269841269843,148.14814814814815 137.7777777777778,147.93650793650795 137.14285714285717,147.93650793650795 136.71957671957674,148.35978835978838 136.0846560846561,148.35978835978838 135.44973544973547,148.35978835978838 134.81481481481484,148.35978835978838 134.17989417989418,148.35978835978838 133.54497354497354,148.35978835978838 132.9100529100529,148.35978835978838 132.27513227513228,148.35978835978838 131.64021164021165,148.35978835978838 131.005291005291,148.35978835978838 130.37037037037038,148.35978835978838 129.73544973544975,148.35978835978838 129.10052910052912,148.14814814814815 128.46560846560848,148.14814814814815 127.83068783068784,148.14814814814815 127.1957671957672,147.93650793650795 126.56084656084657,147.93650793650795 125.92592592592594,147.93650793650795 125.2910052910053,147.72486772486775 124.65608465608466,147.72486772486775 124.02116402116403,147.51322751322752 123.3862433862434,147.51322751322752 122.75132275132276,147.30158730158732 122.11640211640213,147.30158730158732 121.4814814814815,147.0899470899471 120.84656084656086,146.8783068783069 120.21164021164022,146.8783068783069 119.57671957671958,146.66666666666669 118.94179894179895,146.45502645502646 118.30687830687832,146.24338624338625 117.67195767195768,146.24338624338625 117.03703703703705,146.03174603174605 116.4021164021164,145.82010582010582 115.76719576719577,145.60846560846562 115.13227513227514,145.39682539682542 114.49735449735451,145.1851851851852 113.86243386243387,145.1851851851852 113.22751322751324,144.973544973545 112.5925925925926,144.76190476190476 111.95767195767196,144.55026455026456 111.32275132275133,144.33862433862436 110.6878306878307,144.12698412698413 110.05291005291006,144.12698412698413 109.41798941798943,143.91534391534393 108.78306878306879,143.70370370370372 108.14814814814815,143.4920634920635 107.51322751322752,143.4920634920635 106.87830687830689,143.2804232804233 106.24338624338625,142.85714285714286 105.60846560846562,142.85714285714286 104.97354497354497,142.64550264550266 104.33862433862434,142.43386243386246 103.70370370370371,142.43386243386246 103.06878306878308,142.43386243386246 102.43386243386244,142.43386243386246 101.79894179894181,142.64550264550266 101.16402116402116,142.43386243386246 100.52910052910053,142.64550264550266 99.8941798941799,142.64550264550266 99.25925925925927,142.85714285714286 98.62433862433863,143.0687830687831 97.989417989418,143.2804232804233 97.35449735449737,143.4920634920635 96.71957671957672,143.91534391534393 96.2962962962963,144.33862433862436 95.87301587301587,144.76190476190476 95.44973544973546,145.39682539682542 95.02645502645504,145.82010582010582 94.81481481481482,146.45502645502646 94.39153439153439,147.0899470899471 94.39153439153439,147.72486772486775 94.17989417989419,148.35978835978838 94.39153439153439,148.99470899470901 94.39153439153439,149.62962962962965 94.39153439153439,150.26455026455028 94.39153439153439,150.8994708994709 94.60317460317461,151.53439153439155 94.60317460317461,152.16931216931218 94.81481481481482,152.8042328042328 95.02645502645504,153.43915343915344 95.02645502645504,154.07407407407408 95.23809523809524,154.7089947089947 95.44973544973546,155.34391534391534 95.66137566137567,155.978835978836 95.87301587301587,156.61375661375664 95.87301587301587,157.24867724867727 96.08465608465609,157.8835978835979 96.2962962962963,158.51851851851853 96.50793650793652,159.15343915343917 96.50793650793652,159.7883597883598 96.71957671957672,160.42328042328043 96.93121693121694,161.05820105820106 96.93121693121694,161.6931216931217 96.93121693121694,162.32804232804233 97.14285714285715,162.96296296296296 97.14285714285715,163.59788359788362 97.14285714285715,164.23280423280426 97.14285714285715,164.8677248677249 97.35449735449737,165.50264550264552 97.35449735449737,166.13756613756615 97.35449735449737,166.7724867724868 97.14285714285715,167.40740740740742 97.14285714285715,168.04232804232805 97.14285714285715,168.67724867724868 97.14285714285715,169.31216931216932 96.93121693121694,169.94708994708995 96.93121693121694,170.58201058201058 96.71957671957672,171.21693121693124 96.50793650793652,171.85185185185188 96.50793650793652,172.4867724867725 96.2962962962963,173.12169312169314 95.87301587301587,173.75661375661377 95.87301587301587,174.3915343915344 95.44973544973546,175.02645502645504 95.23809523809524,175.66137566137567 95.02645502645504,176.2962962962963 94.60317460317461,176.71957671957674 94.17989417989419,177.14285714285717 93.75661375661376,177.7777777777778 93.12169312169313,178.2010582010582 92.4867724867725,178.41269841269843 91.85185185185186,178.62433862433863 91.21693121693123,178.83597883597884 90.58201058201058,178.83597883597884 89.94708994708995,179.04761904761907 89.31216931216932,179.25925925925927 88.67724867724868,179.25925925925927 88.04232804232805,179.25925925925927 87.40740740740742,179.25925925925927 86.77248677248677,179.25925925925927 86.13756613756614,179.25925925925927 85.5026455026455,179.25925925925927 84.86772486772487,179.25925925925927 84.23280423280424,179.25925925925927 83.59788359788361,179.25925925925927 82.96296296296298,179.04761904761907 82.32804232804233,178.83597883597884 81.6931216931217,178.83597883597884 81.05820105820106,178.62433862433863 80.42328042328043,178.41269841269843 79.7883597883598,178.41269841269843 79.15343915343917,178.2010582010582 78.51851851851852,177.989417989418 77.88359788359789,177.7777777777778 77.24867724867725,177.7777777777778 76.61375661375662,177.56613756613757 75.97883597883599,177.35449735449737 75.34391534391536,177.14285714285717 74.70899470899471,176.93121693121694 74.07407407407408,176.71957671957674 73.43915343915344,176.50793650793653 72.80423280423281,176.2962962962963 72.16931216931218,175.87301587301587 71.53439153439155,175.66137566137567 70.8994708994709,175.23809523809524 70.26455026455027,174.81481481481484 69.62962962962963,174.6031746031746 68.994708994709,174.1798941798942 68.35978835978837,173.75661375661377 67.93650793650794,173.33333333333334 67.3015873015873,173.12169312169314 66.66666666666667,172.6984126984127 66.03174603174604,172.27513227513228 65.3968253968254,171.85185185185188 64.97354497354497,171.42857142857144 64.55026455026456,171.005291005291 64.12698412698413,170.58201058201058 63.70370370370371,170.15873015873018 63.280423280423285,169.73544973544975 62.85714285714286,169.31216931216932 62.43386243386244,168.67724867724868 62.22222222222223,168.04232804232805 61.798941798941804,167.61904761904762 61.58730158730159,166.984126984127 61.16402116402117,166.34920634920636 60.952380952380956,165.71428571428572 60.52910052910053,165.0793650793651 60.31746031746032,164.44444444444446 60.10582010582011,163.80952380952382 59.8941798941799,163.1746031746032 59.8941798941799,162.53968253968256 59.8941798941799,161.90476190476193 59.8941798941799,161.2698412698413 59.8941798941799,160.63492063492066 60.10582010582011,160.0 60.31746031746032,159.36507936507937 60.52910052910053,158.73015873015873 60.74074074074075,158.0952380952381 61.16402116402117,157.46031746031747 61.58730158730159,157.03703703703704 61.798941798941804,156.4021164021164 62.22222222222223,155.76719576719577 62.64550264550265,155.13227513227514 63.06878306878308,154.4973544973545 63.492063492063494,154.07407407407408 63.91534391534392,153.65079365079367 64.33862433862434,153.22751322751324 64.97354497354497,152.8042328042328 65.3968253968254,152.38095238095238 65.82010582010582,151.95767195767198 66.45502645502646,151.53439153439155 66.87830687830689,151.11111111111111 67.3015873015873,150.47619047619048 67.72486772486774,150.05291005291005 68.14814814814815,149.62962962962965 68.57142857142858,149.20634920634922 68.994708994709,148.78306878306879 69.41798941798942,148.35978835978838 69.84126984126985,147.93650793650795 70.26455026455027,147.30158730158732 70.6878306878307,146.66666666666669 71.11111111111111,146.03174603174605 71.32275132275133,145.39682539682542 71.74603174603175,144.76190476190476 71.95767195767196,144.12698412698413 72.38095238095238,143.4920634920635 72.5925925925926,142.85714285714286 72.5925925925926,142.22222222222223 72.80423280423281,141.5873015873016 72.80423280423281,140.95238095238096 73.01587301587303,140.31746031746033 73.01587301587303,139.6825396825397 72.80423280423281,139.04761904761907 72.80423280423281,138.41269841269843 72.5925925925926,137.7777777777778 72.38095238095238,137.14285714285717 71.95767195767196,136.5079365079365 71.53439153439155,135.87301587301587 71.11111111111111,135.44973544973547 70.6878306878307,135.02645502645504 70.26455026455027,134.6031746031746 69.62962962962963,134.17989417989418 68.994708994709,133.75661375661377 68.35978835978837,133.54497354497354 67.72486772486774,133.12169312169314 67.08994708994709,132.9100529100529 66.45502645502646,132.9100529100529 65.82010582010582,132.6984126984127 65.18518518518519,132.4867724867725 64.55026455026456,132.27513227513228 63.91534391534392,132.27513227513228 63.280423280423285,132.27513227513228 62.64550264550265,132.06349206349208 62.01058201058201,132.06349206349208 61.37566137566138,132.06349206349208 60.74074074074075,132.06349206349208 60.10582010582011,132.27513227513228 59.470899470899475,132.27513227513228 58.83597883597884,132.27513227513228 58.2010582010582,132.27513227513228 57.56613756613757,132.4867724867725 56.93121693121694,132.4867724867725 56.2962962962963,132.4867724867725 55.661375661375665,132.6984126984127 55.02645502645503,132.6984126984127 54.39153439153439,132.6984126984127 53.75661375661376,132.6984126984127 53.12169312169313,132.6984126984127 52.48677248677249,132.9100529100529 51.851851851851855,132.9100529100529 51.21693121693122,132.9100529100529 50.58201058201058,132.9100529100529 49.94708994708995,132.9100529100529 49.31216931216932,132.9100529100529 48.677248677248684,133.12169312169314 48.042328042328045,133.12169312169314 47.40740740740741,133.12169312169314 46.77248677248678,133.12169312169314 46.13756613756614,133.12169312169314 45.50264550264551,133.33333333333334 44.867724867724874,133.33333333333334 44.232804232804234,133.33333333333334 43.5978835978836,133.33333333333334 42.96296296296297,133.33333333333334 42.32804232804233,133.33333333333334 41.6931216931217,133.33333333333334 41.058201058201064,133.33333333333334 40.423280423280424,133.54497354497354 39.78835978835979,133.54497354497354 39.15343915343916,133.54497354497354 38.51851851851852,133.54497354497354 37.883597883597886,133.54497354497354 37.248677248677254,133.54497354497354 36.613756613756614,133.54497354497354 33.22751322751323,133.54497354497354" style="fill:none; stroke:#00aa99; stroke-width:1.0"  /><polyline points="33.22751322751323,133.54497354497354 34.074074074074076,129.94708994708995 34.28571428571429,129.31216931216932 34.4973544973545,128.67724867724868 34.70899470899471,128.04232804232805 34.70899470899471,127.40740740740742 34.920634920634924,126.77248677248679 35.13227513227513,126.13756613756615 35.13227513227513,125.5026455026455 35.34391534391535,124.86772486772487 35.55555555555556,124.23280423280424 35.55555555555556,123.59788359788361 35.76719576719577,122.96296296296298 35.76719576719577,122.32804232804234 35.97883597883598,121.6931216931217 36.19047619047619,121.05820105820106 36.19047619047619,120.42328042328043 36.402116402116405,119.7883597883598 36.402116402116405,119.15343915343917 36.613756613756614,118.51851851851853 36.613756613756614,117.88359788359789 36.82539682539683,117.24867724867725 36.82539682539683,116.61375661375662 37.03703703703704,115.97883597883599 37.03703703703704,115.34391534391536 37.248677248677254,114.70899470899472 37.248677248677254,114.07407407407408 37.248677248677254,113.43915343915344 37.46031746031746,112.80423280423281 37.46031746031746,112.16931216931218 37.67195767195768,111.53439153439155 37.67195767195768,110.89947089947091 37.67195767195768,110.26455026455027 37.67195767195768,109.62962962962963 37.67195767195768,108.994708994709 37.67195767195768,108.35978835978837 37.46031746031746,107.72486772486774 37.248677248677254,107.0899470899471 37.03703703703704,106.45502645502647 36.613756613756614,105.82010582010582 36.402116402116405,105.18518518518519 36.19047619047619,104.55026455026456 35.76719576719577,104.12698412698414 35.34391534391535,103.70370370370371 34.920634920634924,103.28042328042329 34.4973544973545,102.85714285714286 34.074074074074076,102.43386243386244 33.43915343915344,102.01058201058201 32.804232804232804,101.5873015873016 32.16931216931217,101.16402116402116 31.53439153439154,101.16402116402116 30.899470899470902,100.74074074074075 30.264550264550266,100.52910052910053 29.629629629629633,100.31746031746033 28.994708994708997,100.10582010582011 28.35978835978836,99.8941798941799 27.724867724867728,99.68253968253968 27.089947089947092,99.47089947089948 26.455026455026456,99.47089947089948 25.820105820105823,99.25925925925927 25.185185185185187,99.25925925925927 24.55026455026455,99.25925925925927 23.915343915343918,99.04761904761905 23.280423280423282,98.83597883597885 22.645502645502646,98.83597883597885 22.010582010582013,98.62433862433863 21.375661375661377,98.62433862433863 20.740740740740744,98.41269841269842 20.105820105820108,98.41269841269842 19.47089947089947,98.2010582010582 18.83597883597884,98.2010582010582 18.201058201058203,98.2010582010582 17.566137566137566,97.989417989418 16.931216931216934,97.77777777777779 16.296296296296298,97.77777777777779 15.661375661375663,97.77777777777779 15.026455026455027,97.56613756613757 14.391534391534393,97.35449735449737 13.756613756613758,97.35449735449737 13.121693121693122,97.14285714285715 12.486772486772487,97.14285714285715 11.851851851851853,96.93121693121694 11.216931216931219,96.93121693121694 10.582010582010582,96.71957671957672 9.947089947089948,96.71957671957672 9.312169312169313,96.71957671957672 8.677248677248677,96.50793650793652 8.042328042328043,96.2962962962963 7.407407407407408,96.08465608465609 6.772486772486773,95.87301587301587 6.34920634920635,95.44973544973546 5.714285714285714,95.02645502645504 5.07936507936508,94.60317460317461 4.444444444444445,94.17989417989419 4.021164021164021,93.75661375661376 3.597883597883598,93.33333333333334 3.174603174603175,92.91005291005291 2.7513227513227516,92.4867724867725 2.3280423280423284,91.85185185185186 1.9047619047619049,91.21693121693123 1.4814814814814816,90.58201058201058 1.26984126984127,89.94708994708995 0.8465608465608466,89.31216931216932 0.634920634920635,88.67724867724868 0.634920634920635,88.04232804232805 0.4232804232804233,87.40740740740742 0.21164021164021166,86.77248677248677 0.21164021164021166,86.13756613756614 0.21164021164021166,85.5026455026455 0.21164021164021166,84.86772486772487 0.21164021164021166,84.23280423280424 0.21164021164021166,83.59788359788361 0.21164021164021166,82.96296296296298 0.21164021164021166,82.32804232804233 0.21164021164021166,81.6931216931217 0.4232804232804233,81.05820105820106 0.634920634920635,80.42328042328043 0.634920634920635,79.7883597883598 0.634920634920635,79.15343915343917 0.8465608465608466,78.51851851851852 0.8465608465608466,77.88359788359789 1.0582010582010584,77.24867724867725 1.26984126984127,76.61375661375662 1.4814814814814816,75.97883597883599 1.6931216931216932,75.34391534391536 1.9047619047619049,74.70899470899471 2.1164021164021167,74.07407407407408 2.3280423280423284,73.43915343915344 2.7513227513227516,72.80423280423281 2.7513227513227516,72.16931216931218 3.174603174603175,71.53439153439155 3.597883597883598,70.8994708994709 3.8095238095238098,70.26455026455027 4.2328042328042335,69.84126984126985 4.656084656084657,69.20634920634922 5.07936507936508,68.78306878306879 5.714285714285714,68.57142857142858 6.137566137566138,68.14814814814815 6.772486772486773,67.72486772486774 7.407407407407408,67.51322751322752 8.042328042328043,67.3015873015873 8.677248677248677,67.3015873015873 9.100529100529101,66.87830687830689 9.735449735449736,67.08994708994709 10.370370370370372,67.08994708994709 11.005291005291006,67.08994708994709 11.640211640211641,67.08994708994709 12.275132275132275,67.08994708994709 12.910052910052912,67.08994708994709 13.544973544973546,67.3015873015873 14.17989417989418,67.51322751322752 14.814814814814817,67.51322751322752 15.449735449735451,67.72486772486774 16.084656084656086,68.14814814814815 16.71957671957672,68.35978835978837 17.354497354497354,68.57142857142858 17.98941798941799,68.994708994709 18.624338624338627,69.20634920634922 19.047619047619047,69.62962962962963 19.682539682539684,70.05291005291006 20.31746031746032,70.26455026455027 20.952380952380953,70.6878306878307 21.58730158730159,70.8994708994709 22.010582010582013,71.32275132275133 22.645502645502646,71.32275132275133 23.280423280423282,71.53439153439155 23.915343915343918,71.74603174603175 24.55026455026455,71.74603174603175 25.185185185185187,71.74603174603175 25.820105820105823,71.74603174603175 26.455026455026456,71.74603174603175 27.089947089947092,71.74603174603175 27.724867724867728,71.74603174603175 28.35978835978836,71.53439153439155 28.994708994708997,71.32275132275133 29.629629629629633,71.32275132275133 30.264550264550266,71.11111111111111 30.899470899470902,70.8994708994709 31.322751322751326,70.47619047619048 31.95767195767196,70.26455026455027 32.38095238095239,69.84126984126985 33.01587301587302,69.62962962962963 33.65079365079365,69.20634920634922 34.28571428571429,68.78306878306879 34.920634920634924,68.35978835978837 35.55555555555556,67.93650793650794 36.19047619047619,67.51322751322752 36.82539682539683,67.08994708994709 37.248677248677254,66.66666666666667 37.67195767195768,66.24338624338625 38.095238095238095,65.82010582010582 38.51851851851852,65.3968253968254 38.94179894179894,64.97354497354497 39.36507936507937,64.55026455026456 39.78835978835979,64.12698412698413 40.211640211640216,63.492063492063494 40.63492063492064,63.06878306878308 41.058201058201064,62.43386243386244 41.26984126984127,61.798941798941804 41.6931216931217,61.37566137566138 41.904761904761905,60.74074074074075 42.32804232804233,60.10582010582011 42.32804232804233,59.470899470899475 42.75132275132275,58.83597883597884 42.96296296296297,58.2010582010582 42.96296296296297,57.56613756613757 43.17460317460318,56.93121693121694 43.17460317460318,56.2962962962963 43.386243386243386,55.661375661375665 43.386243386243386,55.02645502645503 43.386243386243386,54.39153439153439 43.386243386243386,53.75661375661376 43.5978835978836,53.12169312169313 43.5978835978836,52.48677248677249 43.5978835978836,51.851851851851855 43.386243386243386,51.21693121693122 43.386243386243386,50.58201058201058 43.17460317460318,49.94708994708995 43.17460317460318,49.31216931216932 43.17460317460318,48.677248677248684 42.96296296296297,48.042328042328045 42.75132275132275,47.40740740740741 42.75132275132275,46.77248677248678 42.539682539682545,46.13756613756614 42.32804232804233,45.50264550264551 42.11640211640212,44.867724867724874 41.904761904761905,44.232804232804234 41.6931216931217,43.5978835978836 41.6931216931217,42.96296296296297 41.26984126984127,42.32804232804233 41.058201058201064,41.6931216931217 40.84656084656085,41.058201058201064 40.63492063492064,40.423280423280424 40.211640211640216,39.78835978835979 40.0,39.15343915343916 39.78835978835979,38.51851851851852 39.36507936507937,37.883597883597886 37.883597883597886,34.074074074074076" style="fill:none; stroke:#3300bb; stroke-width:1.0"  /><circle cx="37.883597883597886" cy="34.074074074074076" r="2.0" style="fill:none; stroke:#000000aa; stroke-width:0.25" /><circle cx="154.4973544973545" cy="46.77248677248678" r="2.0" style="fill:none; stroke:#000000aa; stroke-width:0.25" /><circle cx="151.53439153439155" cy="149.20634920634922" r="2.0" style="fill:none; stroke:#000000aa; stroke-width:0.25" /><circle cx="33.22751322751323" cy="133.54497354497354" r="2.0" style="fill:none; stroke:#000000aa; stroke-width:0.25" /><circle cx="37.67195767195768" cy="35.13227513227513" r="2.0" style="fill:none; stroke:#ff3366aa; stroke-width:0.25" /><circle cx="154.4973544973545" cy="46.98412698412699" r="2.0" style="fill:none; stroke:#ff3366aa; stroke-width:0.25" /><circle cx="151.74603174603175" cy="148.99470899470901" r="2.0" style="fill:none; stroke:#ff3366aa; stroke-width:0.25" /><circle cx="33.65079365079365" cy="133.12169312169314" r="2.0" style="fill:none; stroke:#ff3366aa; stroke-width:0.25" /><polyline points="49.523809523809526,33.43915343915344 48.88888888888889,33.43915343915344 48.25396825396826,33.43915343915344 47.61904761904762,33.43915343915344 46.98412698412699,33.65079365079365 46.349206349206355,33.43915343915344 45.714285714285715,33.43915343915344 45.07936507936508,33.43915343915344 44.44444444444445,33.43915343915344 43.80952380952381,33.43915343915344 43.17460317460318,33.65079365079365 42.539682539682545,33.86243386243387 41.904761904761905,33.86243386243387 41.26984126984127,33.86243386243387 40.63492063492064,33.86243386243387" style="fill:none; stroke:#001100; stroke-width:1.0" /><polyline points="42.539682539682545,46.13756613756614 42.32804232804233,45.50264550264551 42.11640211640212,44.867724867724874 41.904761904761905,44.232804232804234 41.6931216931217,43.5978835978836 41.6931216931217,42.96296296296297 41.26984126984127,42.32804232804233 41.058201058201064,41.6931216931217 40.84656084656085,41.058201058201064 40.63492063492064,40.423280423280424 40.211640211640216,39.78835978835979 40.0,39.15343915343916 39.78835978835979,38.51851851851852 39.36507936507937,37.883597883597886" style="fill:none; stroke:#000011; stroke-width:1.0" /><polyline points="155.76719576719577,58.41269841269842 155.76719576719577,57.777777777777786 155.55555555555557,57.142857142857146 155.55555555555557,56.50793650793651 155.55555555555557,55.87301587301588 155.55555555555557,55.23809523809524 155.55555555555557,54.60317460317461 155.34391534391534,53.968253968253975 155.34391534391534,53.333333333333336 155.34391534391534,52.6984126984127 155.13227513227514,52.06349206349207 155.13227513227514,51.42857142857143 155.13227513227514,50.7936507936508 154.92063492063494,50.158730158730165" style="fill:none; stroke:#001100; stroke-width:1.0" /><polyline points="142.85714285714286,45.07936507936508 143.4920634920635,45.07936507936508 144.12698412698413,45.07936507936508 144.76190476190476,45.07936507936508 145.39682539682542,45.29100529100529 146.03174603174605,45.29100529100529 146.45502645502646,45.714285714285715 147.0899470899471,45.50264550264551 147.72486772486775,45.50264550264551 148.35978835978838,45.714285714285715 148.99470899470901,45.92592592592593 149.62962962962965,45.92592592592593 150.26455026455028,45.92592592592593 150.8994708994709,46.13756613756614 151.53439153439155,46.349206349206355" style="fill:none; stroke:#000011; stroke-width:1.0" /><polyline points="140.31746031746033,148.14814814814815 140.95238095238096,148.14814814814815 141.5873015873016,148.14814814814815 142.22222222222223,148.14814814814815 142.85714285714286,148.35978835978838 143.4920634920635,148.35978835978838 144.12698412698413,148.57142857142858 144.76190476190476,148.57142857142858 145.39682539682542,148.57142857142858 146.03174603174605,148.57142857142858 146.66666666666669,148.57142857142858 147.30158730158732,148.78306878306879 147.93650793650795,148.78306878306879 148.57142857142858,148.99470899470901" style="fill:none; stroke:#001100; stroke-width:1.0" /><polyline points="150.6878306878307,137.14285714285717 150.6878306878307,137.7777777777778 150.6878306878307,138.41269841269843 150.6878306878307,139.04761904761907 150.6878306878307,139.6825396825397 150.6878306878307,140.31746031746033 150.6878306878307,140.95238095238096 150.6878306878307,141.5873015873016 150.8994708994709,142.22222222222223 150.8994708994709,142.85714285714286 150.8994708994709,143.4920634920635 151.11111111111111,144.12698412698413 151.11111111111111,144.76190476190476 151.11111111111111,145.39682539682542 151.32275132275134,146.03174603174605" style="fill:none; stroke:#000011; stroke-width:1.0" /><polyline points="35.97883597883598,121.6931216931217 35.76719576719577,122.32804232804234 35.76719576719577,122.96296296296298 35.55555555555556,123.59788359788361 35.55555555555556,124.23280423280424 35.34391534391535,124.86772486772487 35.13227513227513,125.5026455026455 35.13227513227513,126.13756613756615 34.920634920634924,126.77248677248679 34.70899470899471,127.40740740740742 34.70899470899471,128.04232804232805 34.4973544973545,128.67724867724868 34.28571428571429,129.31216931216932 34.074074074074076,129.94708994708995" style="fill:none; stroke:#001100; stroke-width:1.0" /><polyline points="45.50264550264551,133.33333333333334 44.867724867724874,133.33333333333334 44.232804232804234,133.33333333333334 43.5978835978836,133.33333333333334 42.96296296296297,133.33333333333334 42.32804232804233,133.33333333333334 41.6931216931217,133.33333333333334 41.058201058201064,133.33333333333334 40.423280423280424,133.54497354497354 39.78835978835979,133.54497354497354 39.15343915343916,133.54497354497354 38.51851851851852,133.54497354497354 37.883597883597886,133.54497354497354 37.248677248677254,133.54497354497354 36.613756613756614,133.54497354497354" style="fill:none; stroke:#000011; stroke-width:1.0" /><polyline points="40.63492063492064,33.86243386243387 19.47089947089947,34.920634920634924" style="fill:none; stroke:#ffaa00; stroke-width:0.4" /><polyline points="39.36507936507937,37.883597883597886 31.746031746031747,18.201058201058203" style="fill:none; stroke:#aaff00; stroke-width:0.4" /><polyline points="154.92063492063494,50.158730158730165 152.8042328042328,29.20634920634921" style="fill:none; stroke:#ffaa00; stroke-width:0.4" /><polyline points="151.53439153439155,46.349206349206355 172.4867724867725,49.31216931216932" style="fill:none; stroke:#aaff00; stroke-width:0.4" /><polyline points="148.57142857142858,148.99470899470901 169.52380952380955,151.11111111111111" style="fill:none; stroke:#ffaa00; stroke-width:0.4" /><polyline points="151.32275132275134,146.03174603174605 152.8042328042328,167.19576719576722" style="fill:none; stroke:#aaff00; stroke-width:0.4" /><polyline points="34.074074074074076,129.94708994708995 29.41798941798942,150.47619047619048" style="fill:none; stroke:#ffaa00; stroke-width:0.4" /><polyline points="36.613756613756614,133.54497354497354 15.449735449735451,133.96825396825398" style="fill:none; stroke:#aaff00; stroke-width:0.4" /><circle cx="85.5026455026455" cy="90.15873015873017" r="1.0" style="fill:#444444; stroke-width:0" /><circle cx="73.65079365079366" cy="86.77248677248677" r="10.582010582010582" style="fill:#ff770022; stroke-width:0" /><circle cx="73.65079365079366" cy="86.77248677248677" r="1.0" style="fill:#ff7700; stroke-width:0" /></svg>