<?xml version="1.0" encoding="UTF-8" standalone="no"?><svg width="615.8730158730159" height="568.2539682539683" viewBox="-10 -10 225.29100529100532 209.41798941798945" xmlns="http://www.w3.org/2000/svg" xmlns:xlink="http://www.w3.org/1999/xlink"><polyline points="104.76190476190477,-0.4232804232804233 107.51322751322752,2.1164021164021167 107.93650793650795,2.53968253968254 108.35978835978837,2.9629629629629632 108.78306878306879,3.3862433862433865 109.20634920634922,3.8095238095238098 109.62962962962963,4.2328042328042335 110.05291005291006,4.656084656084657 110.47619047619048,5.07936507936508 110.89947089947091,5.502645502645503 111.32275132275133,5.9259259259259265 111.74603174603176,6.560846560846561 112.16931216931218,6.984126984126985 112.80423280423281,7.407407407407408 113.43915343915344,7.830687830687832 113.86243386243387,8.465608465608467 114.28571428571429,8.88888888888889 114.70899470899472,9.312169312169313 115.13227513227514,9.735449735449736 115.55555555555557,10.15873015873016 115.97883597883599,10.582010582010582 116.4021164021164,11.216931216931219 116.82539682539684,11.640211640211641 117.24867724867725,12.063492063492065 117.67195767195768,12.486772486772487 118.0952380952381,12.910052910052912 118.51851851851853,13.333333333333334 118.94179894179895,13.756613756613758 119.36507936507937,14.391534391534393 119.7883597883598,14.814814814814817 120.21164021164022,15.238095238095239 120.63492063492065,15.873015873015873 121.05820105820106,16.296296296296298 121.4814814814815,16.71957671957672 121.90476190476191,17.142857142857146 122.32804232804234,17.77777777777778 122.75132275132276,18.201058201058203 123.17460317460318,18.624338624338627 123.59788359788361,19.25925925925926 124.02116402116403,19.682539682539684 124.44444444444446,20.105820105820108 124.86772486772487,20.529100529100532 125.2910052910053,21.164021164021165 125.71428571428572,21.58730158730159 126.13756613756615,22.010582010582013 126.56084656084657,22.645502645502646 126.98412698412699,23.06878306878307 127.40740740740742,23.703703703703706 127.83068783068784,24.12698412698413 128.25396825396825,24.55026455026455 128.67724867724868,25.185185185185187 129.10052910052912,25.60846560846561 129.52380952380955,26.031746031746035 129.94708994708995,26.666666666666668 130.37037037037038,27.301587301587304 130.7936507936508,27.724867724867728 131.21693121693121,28.14814814814815 131.64021164021165,28.571428571428573 132.06349206349208,28.994708994708997 132.4867724867725,29.629629629629633 132.9100529100529,30.264550264550266 133.33333333333334,30.899470899470902 133.75661375661377,31.53439153439154 134.17989417989418,32.16931216931217 134.6031746031746,32.592592592592595 134.81481481481484,33.22751322751323 135.23809523809524,33.86243386243387 135.66137566137567,34.4973544973545 136.0846560846561,35.13227513227513 136.5079365079365,35.55555555555556 136.93121693121694,36.19047619047619 137.35449735449737,36.82539682539683 137.7777777777778,37.46031746031746 138.2010582010582,37.883597883597886 138.62433862433863,38.51851851851852 139.04761904761907,39.15343915343916 139.47089947089947,39.78835978835979 139.8941798941799,40.211640211640216 140.31746031746033,40.84656084656085 140.74074074074076,41.26984126984127 141.16402116402116,41.6931216931217 141.5873015873016,42.11640211640212 142.01058201058203,42.539682539682545 142.43386243386246,42.96296296296297 142.85714285714286,43.386243386243386 143.2804232804233,43.80952380952381 143.91534391534393,44.232804232804234 144.55026455026456,44.44444444444445 145.1851851851852,44.867724867724874 145.82010582010582,44.867724867724874 146.45502645502646,45.07936507936508 147.0899470899471,45.29100529100529 147.72486772486775,45.29100529100529 148.35978835978838,45.07936507936508 148.99470899470901,44.867724867724874 149.62962962962965,44.65608465608466 150.26455026455028,44.44444444444445 150.8994708994709,44.021164021164026 151.53439153439155,43.80952380952381 151.95767195767198,43.386243386243386 152.38095238095238,42.75132275132275 152.8042328042328,42.11640211640212 153.22751322751324,41.48148148148149 153.43915343915344,40.84656084656085 153.65079365079367,40.211640211640216 153.86243386243387,39.57671957671958 154.07407407407408,38.94179894179894 154.07407407407408,38.30687830687831 154.2857142857143,37.67195767195768 154.4973544973545,37.03703703703704 154.4973544973545,36.402116402116405 154.7089947089947,35.76719576719577 154.4973544973545,35.13227513227513 154.7089947089947,34.4973544973545 154.92063492063494,33.86243386243387 155.13227513227514,33.22751322751323 155.34391534391534,32.592592592592595 155.34391534391534,31.95767195767196 155.76719576719577,31.322751322751326 155.76719576719577,30.68783068783069 155.978835978836,30.052910052910054 156.4021164021164,29.41798941798942 156.61375661375664,28.783068783068785 156.82539682539684,28.14814814814815 157.24867724867727,27.724867724867728 157.46031746031747,27.089947089947092 157.8835978835979,26.455026455026456 158.30687830687833,26.031746031746035 158.51851851851853,25.3968253968254 158.94179894179896,24.973544973544975 159.5767195767196,24.55026455026455 160.0,24.12698412698413 160.42328042328043,23.703703703703706 161.05820105820106,23.280423280423282 161.4814814814815,22.857142857142858 162.11640211640213,22.645502645502646 162.53968253968256,22.222222222222225 163.1746031746032,22.010582010582013 163.80952380952382,21.58730158730159 164.44444444444446,21.58730158730159 165.0793650793651,21.375661375661377 165.71428571428572,21.375661375661377 166.13756613756615,20.952380952380953 166.7724867724868,21.164021164021165 167.40740740740742,21.164021164021165 168.04232804232805,21.164021164021165 168.67724867724868,21.375661375661377 169.31216931216932,21.58730158730159 169.94708994708995,21.58730158730159 170.58201058201058,21.7989417989418 171.21693121693124,22.010582010582013 171.85185185185188,22.222222222222225 172.4867724867725,22.433862433862437 173.12169312169314,22.645502645502646 173.75661375661377,23.06878306878307 174.3915343915344,23.280423280423282 174.81481481481484,23.703703703703706 175.44973544973547,23.915343915343918 176.0846560846561,24.338624338624342 176.71957671957674,24.761904761904763 177.35449735449737,25.185185185185187 177.989417989418,25.60846560846561 178.62433862433863,26.031746031746035 179.25925925925927,26.455026455026456 179.6825396825397,26.87830687830688 180.31746031746033,27.301587301587304 180.74074074074076,27.724867724867728 181.16402116402116,28.14814814814815 181.5873015873016,28.571428571428573 182.01058201058203,28.994708994708997 182.43386243386246,29.41798941798942 182.85714285714286,29.841269841269842 183.2804232804233,30.476190476190478 183.70370370370372,30.899470899470902 184.12698412698415,31.322751322751326 184.55026455026456,31.95767195767196 184.973544973545,32.38095238095239 185.39682539682542,33.01587301587302 185.82010582010582,33.65079365079365 186.24338624338625,34.28571428571429 186.66666666666669,34.920634920634924 187.08994708994712,35.34391534391535 187.30158730158732,35.97883597883598 187.72486772486775,36.613756613756614 187.93650793650795,37.248677248677254 188.14814814814815,37.883597883597886 188.35978835978838,38.51851851851852 188.57142857142858,39.15343915343916 188.78306878306879,39.78835978835979 188.78306878306879,40.423280423280424 188.99470899470901,41.058201058201064 189.20634920634922,41.6931216931217 189.20634920634922,42.32804232804233 189.20634920634922,42.96296296296297 189.20634920634922,43.5978835978836 188.99470899470901,44.232804232804234 188.99470899470901,44.867724867724874 188.78306878306879,45.50264550264551 188.57142857142858,46.13756613756614 188.35978835978838,46.77248677248678 188.14814814814815,47.40740740740741 187.72486772486775,48.042328042328045 187.30158730158732,48.46560846560847 186.8783068783069,48.88888888888889 186.45502645502646,49.31216931216932 185.82010582010582,49.73544973544974 185.1851851851852,49.94708994708995 184.7619047619048,50.370370370370374 184.12698412698415,50.58201058201058 183.4920634920635,51.00529100529101 182.85714285714286,51.21693121693122 182.22222222222223,51.640211640211646 181.5873015873016,51.851851851851855 180.95238095238096,52.27513227513228 180.31746031746033,52.6984126984127 179.6825396825397,52.91005291005291 179.04761904761907,53.333333333333336 178.41269841269843,53.75661375661376 177.7777777777778,53.968253968253975 177.35449735449737,54.39153439153439 176.71957671957674,54.60317460317461 176.2962962962963,55.02645502645503 175.66137566137567,55.449735449735456 175.02645502645504,55.87301587301588 174.6031746031746,56.2962962962963 174.1798941798942,56.71957671957672 173.75661375661377,57.142857142857146 173.33333333333334,57.56613756613757 172.9100529100529,58.2010582010582 172.6984126984127,58.83597883597884 172.27513227513228,59.25925925925927 172.06349206349208,59.8941798941799 171.85185185185188,60.52910052910053 171.64021164021165,61.16402116402117 171.64021164021165,61.798941798941804 171.64021164021165,62.43386243386244 171.64021164021165,63.06878306878308 171.85185185185188,63.70370370370371 172.06349206349208,64.33862433862434 172.27513227513228,64.97354497354497 172.6984126984127,65.3968253968254 173.12169312169314,66.03174603174604 173.54497354497354,66.66666666666667 174.1798941798942,67.08994708994709 174.81481481481484,67.51322751322752 175.23809523809524,67.93650793650794 175.87301587301587,68.14814814814815 176.2962962962963,68.57142857142858 176.93121693121694,68.78306878306879 177.56613756613757,69.20634920634922 178.2010582010582,69.41798941798942 178.83597883597884,69.84126984126985 179.4708994708995,70.26455026455027 180.10582010582013,70.47619047619048 180.74074074074076,70.6878306878307 181.3756613756614,71.11111111111111 182.01058201058203,71.32275132275133 182.64550264550266,71.53439153439155 183.2804232804233,71.95767195767196 183.91534391534393,72.16931216931218 184.55026455026456,72.38095238095238 185.1851851851852,72.5925925925926 185.82010582010582,73.01587301587303 186.45502645502646,73.22751322751323 187.08994708994712,73.43915343915344 187.72486772486775,73.65079365079366 188.35978835978838,74.07407407407408 188.99470899470901,74.28571428571429 189.62962962962965,74.49735449735451 190.26455026455028,74.70899470899471 190.8994708994709,75.13227513227514 191.53439153439155,75.13227513227514 192.16931216931218,75.34391534391536 192.8042328042328,75.76719576719577 193.43915343915344,75.97883597883599 194.07407407407408,76.4021164021164 194.70899470899474,76.61375661375662 195.34391534391537,77.03703703703704 195.978835978836,77.46031746031747 196.61375661375664,77.88359788359789 197.24867724867727,78.30687830687832 197.8835978835979,78.73015873015873 198.51851851851853,79.15343915343917 198.94179894179896,79.57671957671958 199.5767195767196,80.0 200.00000000000003,80.42328042328043 200.42328042328043,80.84656084656085 201.05820105820106,81.05820105820106 201.4814814814815,81.48148148148148 201.90476190476193,81.90476190476191 202.32804232804233,82.32804232804233 202.75132275132276,82.75132275132276 205.50264550264552,84.86772486772487" style="fill:none; stroke:#cc0000; stroke-width:1.0"  /><polyline points="205.50264550264552,84.86772486772487 202.53968253968256,87.83068783068784 202.11640211640213,88.25396825396827 201.6931216931217,88.67724867724868 201.2698412698413,89.1005291005291 200.84656084656086,89.52380952380953 200.42328042328043,90.15873015873017 199.7883597883598,90.58201058201058 199.36507936507937,91.00529100529101 198.94179894179896,91.42857142857143 198.51851851851853,91.85185185185186 198.0952380952381,92.27513227513228 197.6719576719577,92.69841269841271 197.24867724867727,93.12169312169313 196.82539682539684,93.54497354497356 196.4021164021164,93.96825396825398 195.978835978836,94.39153439153439 195.55555555555557,94.81481481481482 195.13227513227514,95.23809523809524 194.70899470899474,95.87301587301587 194.2857142857143,96.2962962962963 193.86243386243387,96.71957671957672 193.43915343915344,97.14285714285715 193.01587301587304,97.56613756613757 192.5925925925926,97.989417989418 192.16931216931218,98.62433862433863 191.74603174603175,99.04761904761905 191.32275132275134,99.47089947089948 190.8994708994709,99.8941798941799 190.47619047619048,100.52910052910053 190.05291005291008,100.95238095238096 189.62962962962965,101.37566137566138 189.20634920634922,102.01058201058201 188.78306878306879,102.43386243386244 188.35978835978838,102.85714285714286 187.93650793650795,103.28042328042329 187.51322751322752,103.70370370370371 187.08994708994712,104.33862433862434 186.66666666666669,104.76190476190477 186.45502645502646,105.3968253968254 186.03174603174605,105.82010582010582 185.60846560846562,106.24338624338625 185.1851851851852,106.87830687830689 184.7619047619048,107.3015873015873 184.33862433862436,107.93650793650795 183.91534391534393,108.35978835978837 183.4920634920635,108.78306878306879 183.0687830687831,109.41798941798943 182.64550264550266,109.84126984126985 182.22222222222223,110.47619047619048 181.79894179894183,110.89947089947091 181.3756613756614,111.53439153439155 180.95238095238096,111.95767195767196 180.52910052910053,112.5925925925926 180.10582010582013,113.01587301587303 179.6825396825397,113.65079365079366 179.25925925925927,114.07407407407408 178.83597883597884,114.49735449735451 178.41269841269843,115.13227513227514 177.989417989418,115.76719576719577 177.56613756613757,116.1904761904762 177.14285714285717,116.61375661375662 176.71957671957674,117.24867724867725 176.2962962962963,117.88359788359789 175.87301587301587,118.30687830687832 175.44973544973547,118.73015873015873 175.02645502645504,119.36507936507937 174.6031746031746,120.00000000000001 174.1798941798942,120.42328042328043 173.75661375661377,121.05820105820106 173.33333333333334,121.6931216931217 172.9100529100529,122.11640211640213 172.4867724867725,122.75132275132276 172.06349206349208,123.3862433862434 171.64021164021165,124.02116402116403 171.21693121693124,124.44444444444446 170.7936507936508,125.07936507936509 170.37037037037038,125.5026455026455 169.94708994708995,126.13756613756615 169.52380952380955,126.77248677248679 169.10052910052912,127.40740740740742 168.67724867724868,127.83068783068784 168.25396825396825,128.25396825396825 167.83068783068785,128.88888888888889 167.40740740740742,129.31216931216932 166.984126984127,129.94708994708995 166.56084656084658,130.37037037037038 165.92592592592595,130.7936507936508 165.2910052910053,131.21693121693121 164.65608465608466,131.64021164021165 164.02116402116403,132.06349206349208 163.3862433862434,132.27513227513228 162.75132275132276,132.6984126984127 162.11640211640213,132.6984126984127 161.4814814814815,132.9100529100529 160.84656084656086,132.9100529100529 160.21164021164023,132.9100529100529 159.5767195767196,132.6984126984127 158.94179894179896,132.6984126984127 158.30687830687833,132.27513227513228 157.67195767195767,132.06349206349208 157.24867724867727,131.64021164021165 156.82539682539684,131.21693121693121 156.4021164021164,130.7936507936508 155.978835978836,130.15873015873018 155.76719576719577,129.52380952380955 155.55555555555557,128.88888888888889 155.13227513227514,128.25396825396825 155.13227513227514,127.61904761904763 154.92063492063494,126.98412698412699 154.92063492063494,126.34920634920636 154.7089947089947,125.71428571428572 154.7089947089947,125.07936507936509 154.7089947089947,124.44444444444446 154.4973544973545,123.80952380952382 154.4973544973545,123.17460317460318 154.4973544973545,122.53968253968254 154.4973544973545,121.90476190476191 154.2857142857143,121.26984126984128 154.2857142857143,120.63492063492065 154.07407407407408,120.00000000000001 154.07407407407408,119.36507936507937 153.86243386243387,118.73015873015873 153.65079365079367,118.0952380952381 153.65079365079367,117.46031746031747 153.43915343915344,116.82539682539684 153.22751322751324,116.1904761904762 153.01587301587304,115.55555555555557 152.8042328042328,114.92063492063492 152.5925925925926,114.28571428571429 152.16931216931218,113.65079365079366 151.95767195767198,113.01587301587303 151.74603174603175,112.3809523809524 151.32275132275134,111.95767195767196 150.8994708994709,111.32275132275133 150.47619047619048,110.6878306878307 150.05291005291005,110.05291005291006 149.62962962962965,109.62962962962963 149.20634920634922,109.20634920634922 148.78306878306879,108.78306878306879 148.35978835978838,108.35978835978837 147.72486772486775,107.93650793650795 147.0899470899471,107.51322751322752 146.45502645502646,107.3015873015873 145.82010582010582,107.0899470899471 145.1851851851852,107.0899470899471 144.55026455026456,107.0899470899471 143.91534391534393,106.87830687830689 143.2804232804233,106.87830687830689 142.64550264550266,107.0899470899471 142.01058201058203,107.0899470899471 141.3756613756614,107.3015873015873 140.74074074074076,107.3015873015873 140.10582010582013,107.51322751322752 139.47089947089947,107.72486772486774 138.83597883597884,107.93650793650795 138.2010582010582,108.14814814814815 137.56613756613757,108.35978835978837 136.93121693121694,108.57142857142858 136.2962962962963,108.994708994709 135.66137566137567,109.20634920634922 135.02645502645504,109.41798941798943 134.6031746031746,109.84126984126985 133.96825396825398,110.05291005291006 133.33333333333334,110.47619047619048 132.6984126984127,110.6878306878307 132.06349206349208,111.11111111111111 131.42857142857144,111.53439153439155 131.005291005291,111.95767195767196 130.37037037037038,112.3809523809524 129.73544973544975,112.5925925925926 129.10052910052912,113.01587301587303 128.46560846560848,113.43915343915344 127.83068783068784,113.86243386243387 127.40740740740742,114.28571428571429 126.77248677248679,114.70899470899472 126.34920634920636,115.13227513227514 125.71428571428572,115.55555555555557 125.2910052910053,115.97883597883599 124.65608465608466,116.4021164021164 124.23280423280424,116.82539682539684 123.80952380952382,117.24867724867725 123.17460317460318,117.67195767195768 122.75132275132276,118.0952380952381 122.32804232804234,118.51851851851853 121.90476190476191,118.94179894179895 121.26984126984128,119.36507936507937 120.84656084656086,119.7883597883598 120.42328042328043,120.21164021164022 120.00000000000001,120.63492063492065 119.57671957671958,121.05820105820106 119.15343915343917,121.4814814814815 118.73015873015873,121.90476190476191 118.30687830687832,122.32804232804234 117.88359788359789,122.75132275132276 117.46031746031747,123.17460317460318 117.03703703703705,123.59788359788361 116.61375661375662,124.02116402116403 116.1904761904762,124.65608465608466 115.76719576719577,125.2910052910053 115.34391534391536,125.71428571428572 114.92063492063492,126.34920634920636 114.49735449735451,126.98412698412699 114.28571428571429,127.61904761904763 114.07407407407408,128.25396825396825 113.86243386243387,128.88888888888889 113.86243386243387,129.52380952380955 113.86243386243387,130.15873015873018 113.86243386243387,130.7936507936508 113.86243386243387,131.42857142857144 114.07407407407408,132.06349206349208 114.28571428571429,132.6984126984127 114.49735449735451,133.33333333333334 114.70899470899472,133.96825396825398 115.13227513227514,134.3915343915344 115.34391534391536,135.02645502645504 115.76719576719577,135.44973544973547 116.1904761904762,136.0846560846561 116.61375661375662,136.71957671957674 117.03703703703705,137.14285714285717 117.46031746031747,137.7777777777778 117.88359788359789,138.2010582010582 118.30687830687832,138.62433862433863 118.73015873015873,139.04761904761907 119.15343915343917,139.47089947089947 119.7883597883598,139.8941798941799 120.42328042328043,140.31746031746033 121.05820105820106,140.52910052910053 121.6931216931217,140.95238095238096 122.32804232804234,141.3756613756614 122.96296296296298,141.5873015873016 123.59788359788361,142.01058201058203 124.23280423280424,142.43386243386246 124.86772486772487,142.64550264550266 125.5026455026455,142.85714285714286 125.92592592592594,143.2804232804233 126.56084656084657,143.4920634920635 127.1957671957672,143.91534391534393 127.83068783068784,144.12698412698413 128.25396825396825,144.55026455026456 128.88888888888889,144.973544973545 129.52380952380955,145.39682539682542 129.94708994708995,145.82010582010582 130.37037037037038,146.24338624338625 130.7936507936508,146.66666666666669 131.42857142857144,147.0899470899471 131.85185185185185,147.72486772486775 132.27513227513228,148.35978835978838 132.4867724867725,148.99470899470901 132.6984126984127,149.62962962962965 132.9100529100529,150.26455026455028 133.12169312169314,150.8994708994709 133.12169312169314,151.53439153439155 133.12169312169314,152.16931216931218 133.12169312169314,152.8042328042328 132.9100529100529,153.43915343915344 132.4867724867725,154.07407407407408 132.27513227513228,154.7089947089947 131.85185185185185,155.13227513227514 131.42857142857144,155.76719576719577 131.005291005291,156.4021164021164 130.58201058201058,156.82539682539684 130.15873015873018,157.24867724867727 129.73544973544975,157.67195767195767 129.10052910052912,158.0952380952381 128.46560846560848,158.51851851851853 128.04232804232805,158.94179894179896 127.40740740740742,159.36507936507937 126.77248677248679,159.7883597883598 126.34920634920636,160.21164021164023 125.71428571428572,160.63492063492066 125.07936507936509,161.05820105820106 124.65608465608466,161.4814814814815 124.02116402116403,161.90476190476193 123.59788359788361,162.32804232804233 122.96296296296298,162.75132275132276 122.32804232804234,163.1746031746032 121.6931216931217,163.59788359788362 121.26984126984128,164.02116402116403 120.63492063492065,164.44444444444446 120.00000000000001,164.8677248677249 119.57671957671958,165.2910052910053 118.94179894179895,165.71428571428572 118.30687830687832,166.13756613756615 117.88359788359789,166.56084656084658 117.24867724867725,166.984126984127 116.61375661375662,167.40740740740742 116.1904761904762,167.83068783068785 115.55555555555557,168.25396825396825 114.92063492063492,168.67724867724868 114.49735449735451,169.10052910052912 113.86243386243387,169.52380952380955 113.43915343915344,169.94708994708995 112.80423280423281,170.37037037037038 112.16931216931218,170.7936507936508 111.74603174603176,171.21693121693124 111.11111111111111,171.64021164021165 110.47619047619048,172.06349206349208 110.05291005291006,172.4867724867725 109.41798941798943,172.9100529100529 108.78306878306879,173.12169312169314 108.35978835978837,173.54497354497354 107.72486772486774,173.96825396825398 107.3015873015873,174.3915343915344 106.66666666666667,174.81481481481484 106.24338624338625,175.23809523809524 105.82010582010582,175.66137566137567 105.3968253968254,176.0846560846561 104.76190476190477,176.50793650793653 104.33862433862434,176.93121693121694 103.91534391534393,177.35449735449737 103.28042328042329,177.7777777777778 102.85714285714286,178.2010582010582 102.22222222222223,178.62433862433863 101.5873015873016,179.04761904761907 101.16402116402116,179.4708994708995 100.74074074074075,179.8941798941799 100.10582010582011,180.31746031746033 99.68253968253968,180.74074074074076 99.04761904761905,181.16402116402116 98.62433862433863,181.5873015873016 98.2010582010582,182.01058201058203 97.77777777777779,182.43386243386246 97.14285714285715,182.85714285714286 96.71957671957672,183.2804232804233 96.2962962962963,183.70370370370372 95.87301587301587,184.33862433862436 95.23809523809524,184.7619047619048 94.81481481481482,185.1851851851852 94.39153439153439,185.60846560846562 93.96825396825398,186.03174603174605 93.33333333333334,186.45502645502646 91.00529100529101,188.57142857142858" style="fill:none; stroke:#999900; stroke-width:1.0"  /><polyline points="91.00529100529101,188.57142857142858 88.25396825396827,186.8783068783069 87.61904761904762,186.45502645502646 86.98412698412699,186.03174603174605 86.34920634920636,185.60846560846562 85.71428571428572,185.1851851851852 85.07936507936509,184.7619047619048 84.44444444444446,184.33862433862436 83.80952380952381,184.12698412698415 83.3862433862434,183.70370370370372 82.75132275132276,183.2804232804233 82.11640211640213,182.85714285714286 81.48148148148148,182.43386243386246 80.84656084656085,182.22222222222223 80.42328042328043,181.79894179894183 79.7883597883598,181.3756613756614 79.15343915343917,181.16402116402116 78.51851851851852,180.74074074074076 77.88359788359789,180.31746031746033 77.24867724867725,180.10582010582013 76.82539682539684,179.6825396825397 76.19047619047619,179.25925925925927 75.55555555555556,178.83597883597884 74.92063492063492,178.62433862433863 74.28571428571429,178.2010582010582 73.65079365079366,177.989417989418 73.22751322751323,177.56613756613757 72.5925925925926,177.14285714285717 71.95767195767196,176.93121693121694 71.32275132275133,176.50793650793653 70.6878306878307,176.0846560846561 70.05291005291006,175.66137566137567 69.41798941798942,175.44973544973547 68.78306878306879,175.23809523809524 68.14814814814815,174.81481481481484 67.51322751322752,174.3915343915344 66.87830687830689,174.1798941798942 66.45502645502646,173.75661375661377 65.82010582010582,173.54497354497354 65.3968253968254,173.12169312169314 64.76190476190477,172.9100529100529 64.12698412698413,172.4867724867725 63.492063492063494,172.27513227513228 63.06878306878308,171.85185185185188 62.43386243386244,171.64021164021165 62.01058201058201,171.21693121693124 61.37566137566138,171.005291005291 60.74074074074075,170.7936507936508 60.10582010582011,170.37037037037038 59.470899470899475,170.15873015873018 59.04761904761905,169.73544973544975 58.41269841269842,169.52380952380955 57.777777777777786,169.31216931216932 57.142857142857146,168.8888888888889 56.50793650793651,168.46560846560848 55.87301587301588,168.25396825396825 55.23809523809524,168.04232804232805 54.60317460317461,168.04232804232805 53.968253968253975,167.83068783068785 53.333333333333336,167.83068783068785 52.6984126984127,167.83068783068785 52.06349206349207,168.04232804232805 51.42857142857143,168.04232804232805 50.7936507936508,168.25396825396825 50.158730158730165,168.67724867724868 49.523809523809526,169.10052910052912 49.1005291005291,169.52380952380955 48.677248677248684,169.94708994708995 48.25396825396826,170.37037037037038 47.830687830687836,170.7936507936508 47.40740740740741,171.21693121693124 46.98412698412699,171.85185185185188 46.77248677248678,172.4867724867725 46.349206349206355,173.12169312169314 46.13756613756614,173.75661375661377 45.92592592592593,174.3915343915344 45.714285714285715,175.02645502645504 45.92592592592593,175.66137566137567 45.714285714285715,176.2962962962963 45.714285714285715,176.93121693121694 45.50264550264551,177.56613756613757 45.50264550264551,178.2010582010582 45.50264550264551,178.83597883597884 45.50264550264551,179.4708994708995 45.50264550264551,180.10582010582013 45.50264550264551,180.74074074074076 45.29100529100529,181.3756613756614 45.29100529100529,182.01058201058203 45.29100529100529,182.64550264550266 45.07936507936508,183.2804232804233 44.65608465608466,183.91534391534393 44.44444444444445,184.55026455026456 44.021164021164026,185.1851851851852 43.5978835978836,185.60846560846562 43.17460317460318,186.24338624338625 42.75132275132275,186.66666666666669 42.11640211640212,187.08994708994712 41.6931216931217,187.51322751322752 41.058201058201064,187.72486772486775 40.63492063492064,188.14814814814815 40.0,188.35978835978838 39.36507936507937,188.57142857142858 38.730158730158735,188.78306878306879 38.095238095238095,188.78306878306879 37.46031746031746,188.99470899470901 36.82539682539683,188.99470899470901 36.19047619047619,188.99470899470901 35.55555555555556,188.99470899470901 34.920634920634924,188.99470899470901 34.28571428571429,188.99470899470901 33.65079365079365,188.78306878306879 33.01587301587302,188.78306878306879 32.38095238095239,188.78306878306879 31.746031746031747,188.57142857142858 31.111111111111114,188.57142857142858 30.476190476190478,188.35978835978838 29.841269841269842,188.14814814814815 29.20634920634921,187.93650793650795 28.571428571428573,187.72486772486775 27.93650793650794,187.30158730158732 27.301587301587304,187.08994708994712 26.666666666666668,186.66666666666669 26.031746031746035,186.45502645502646 25.3968253968254,186.03174603174605 24.973544973544975,185.60846560846562 24.338624338624342,185.1851851851852 23.915343915343918,184.7619047619048 23.280423280423282,184.33862433862436 22.857142857142858,183.91534391534393 22.433862433862437,183.4920634920635 22.010582010582013,183.0687830687831 21.58730158730159,182.64550264550266 21.164021164021165,182.22222222222223 20.740740740740744,181.5873015873016 20.31746031746032,180.95238095238096 19.894179894179896,180.31746031746033 19.682539682539684,179.6825396825397 19.47089947089947,179.04761904761907 19.25925925925926,178.41269841269843 19.25925925925926,177.7777777777778 19.047619047619047,177.14285714285717 18.83597883597884,176.50793650793653 18.83597883597884,175.87301587301587 18.624338624338627,175.23809523809524 18.624338624338627,174.6031746031746 18.624338624338627,173.96825396825398 18.83597883597884,173.33333333333334 18.83597883597884,172.6984126984127 19.25925925925926,172.06349206349208 19.25925925925926,171.42857142857144 19.682539682539684,170.7936507936508 20.105820105820108,170.15873015873018 20.529100529100532,169.52380952380955 20.952380952380953,169.10052910052912 21.375661375661377,168.67724867724868 21.7989417989418,168.25396825396825 22.433862433862437,167.83068783068785 22.857142857142858,167.40740740740742 23.492063492063494,167.19576719576722 23.915343915343918,166.7724867724868 24.55026455026455,166.56084656084658 24.973544973544975,166.13756613756615 25.60846560846561,165.92592592592595 26.243386243386244,165.50264550264552 26.666666666666668,165.0793650793651 27.301587301587304,164.8677248677249 27.93650793650794,164.44444444444446 28.571428571428573,164.23280423280426 29.20634920634921,164.02116402116403 29.629629629629633,163.59788359788362 30.264550264550266,163.3862433862434 30.899470899470902,162.96296296296296 31.53439153439154,162.53968253968256 32.16931216931217,162.11640211640213 32.804232804232804,161.90476190476193 33.22751322751323,161.4814814814815 33.86243386243387,161.05820105820106 34.28571428571429,160.63492063492066 34.920634920634924,160.21164021164023 35.34391534391535,159.5767195767196 35.76719576719577,159.15343915343917 35.97883597883598,158.51851851851853 36.19047619047619,157.8835978835979 36.613756613756614,157.24867724867727 36.82539682539683,156.61375661375664 36.82539682539683,155.978835978836 36.82539682539683,155.34391534391534 36.82539682539683,154.7089947089947 36.613756613756614,154.07407407407408 36.613756613756614,153.43915343915344 36.402116402116405,152.8042328042328 35.97883597883598,152.16931216931218 35.76719576719577,151.53439153439155 35.34391534391535,151.11111111111111 34.920634920634924,150.47619047619048 34.4973544973545,150.05291005291005 34.074074074074076,149.62962962962965 33.65079365079365,149.20634920634922 33.01587301587302,148.78306878306879 32.38095238095239,148.35978835978838 31.746031746031747,147.93650793650795 31.111111111111114,147.51322751322752 30.476190476190478,147.0899470899471 29.841269841269842,146.8783068783069 29.20634920634921,146.45502645502646 28.571428571428573,146.03174603174605 27.93650793650794,145.60846560846562 27.301587301587304,145.1851851851852 26.666666666666668,144.76190476190476 26.031746031746035,144.55026455026456 25.3968253968254,144.12698412698413 24.761904761904763,143.70370370370372 24.338624338624342,143.2804232804233 23.703703703703706,142.85714285714286 23.06878306878307,142.43386243386246 22.645502645502646,142.01058201058203 22.010582010582013,141.5873015873016 21.375661375661377,141.16402116402116 20.952380952380953,140.74074074074076 20.31746031746032,140.52910052910053 19.894179894179896,140.10582010582013 19.47089947089947,139.6825396825397 18.83597883597884,139.25925925925927 18.412698412698415,138.83597883597884 17.98941798941799,138.41269841269843 17.354497354497354,137.989417989418 16.931216931216934,137.56613756613757 16.296296296296298,137.14285714285717 15.873015873015873,136.71957671957674 15.449735449735451,136.2962962962963 14.814814814814817,135.87301587301587 14.391534391534393,135.44973544973547 13.96825396825397,135.02645502645504 13.544973544973546,134.6031746031746 12.910052910052912,134.17989417989418 12.275132275132275,133.75661375661377 11.851851851851853,133.33333333333334 11.428571428571429,132.9100529100529 11.005291005291006,132.4867724867725 10.582010582010582,132.06349206349208 9.947089947089948,131.64021164021165 9.523809523809524,131.21693121693121 9.100529100529101,130.7936507936508 8.677248677248677,130.37037037037038 8.042328042328043,129.94708994708995 7.6190476190476195,129.52380952380955 6.984126984126985,129.10052910052912 6.34920634920635,128.67724867724868 3.8095238095238098,126.56084656084657" style="fill:none; stroke:#00aa99; stroke-width:1.0"  /><polyline points="3.8095238095238098,126.56084656084657 6.560846560846561,124.23280423280424 7.195767195767196,123.80952380952382 7.6190476190476195,123.3862433862434 8.253968253968255,122.96296296296298 8.677248677248677,122.53968253968254 9.312169312169313,122.11640211640213 9.735449735449736,121.6931216931217 10.370370370370372,121.26984126984128 10.793650793650794,120.84656084656086 11.216931216931219,120.42328042328043 11.640211640211641,120.00000000000001 12.275132275132275,119.57671957671958 12.910052910052912,119.15343915343917 13.333333333333334,118.73015873015873 13.96825396825397,118.30687830687832 14.391534391534393,117.88359788359789 14.814814814814817,117.46031746031747 15.238095238095239,117.03703703703705 15.661375661375663,116.61375661375662 16.084656084656086,116.1904761904762 16.50793650793651,115.76719576719577 16.931216931216934,115.34391534391536 17.566137566137566,114.92063492063492 17.98941798941799,114.49735449735451 18.412698412698415,113.86243386243387 18.83597883597884,113.43915343915344 19.25925925925926,113.01587301587303 19.682539682539684,112.5925925925926 20.105820105820108,112.16931216931218 20.529100529100532,111.74603174603176 20.952380952380953,111.32275132275133 21.375661375661377,110.89947089947091 21.7989417989418,110.26455026455027 22.222222222222225,109.84126984126985 22.645502645502646,109.20634920634922 23.06878306878307,108.78306878306879 23.492063492063494,108.35978835978837 23.915343915343918,107.72486772486774 24.338624338624342,107.3015873015873 24.761904761904763,106.87830687830689 25.185185185185187,106.24338624338625 25.60846560846561,105.82010582010582 25.820105820105823,105.18518518518519 26.243386243386244,104.76190476190477 26.455026455026456,104.12698412698414 26.87830687830688,103.4920634920635 27.301587301587304,103.06878306878308 27.724867724867728,102.43386243386244 28.14814814814815,101.79894179894181 28.571428571428573,101.37566137566138 28.994708994708997,100.74074074074075 29.41798941798942,100.10582010582011 29.841269841269842,99.47089947089948 30.264550264550266,98.83597883597885 30.68783068783069,98.2010582010582 31.111111111111114,97.56613756613757 31.53439153439154,97.14285714285715 31.746031746031747,96.50793650793652 32.16931216931217,95.87301587301587 32.592592592592595,95.23809523809524 33.01587301587302,94.60317460317461 33.43915343915344,93.96825396825398 33.65079365079365,93.33333333333334 34.074074074074076,92.91005291005291 34.28571428571429,92.27513227513228 34.70899470899471,91.85185185185186 34.920634920634924,91.21693121693123 35.34391534391535,90.58201058201058 35.76719576719577,89.94708994708995 36.19047619047619,89.31216931216932 36.402116402116405,88.67724867724868 36.82539682539683,88.04232804232805 37.03703703703704,87.40740740740742 37.46031746031746,86.77248677248677 37.67195767195768,86.13756613756614 38.095238095238095,85.5026455026455 38.30687830687831,84.86772486772487 38.51851851851852,84.23280423280424 38.94179894179894,83.59788359788361 39.15343915343916,82.96296296296298 39.15343915343916,82.32804232804233 39.36507936507937,81.6931216931217 39.57671957671958,81.05820105820106 39.78835978835979,80.42328042328043 39.78835978835979,79.7883597883598 39.78835978835979,79.15343915343917 39.78835978835979,78.51851851851852 39.78835978835979,77.88359788359789 39.78835978835979,77.24867724867725 39.78835978835979,76.61375661375662 39.57671957671958,75.97883597883599 39.57671957671958,75.34391534391536 39.36507936507937,74.70899470899471 39.15343915343916,74.07407407407408 38.730158730158735,73.43915343915344 38.30687830687831,72.80423280423281 37.883597883597886,72.38095238095238 37.46031746031746,71.95767195767196 37.03703703703704,71.53439153439155 36.613756613756614,71.11111111111111 35.97883597883598,70.6878306878307 35.34391534391535,70.47619047619048 34.70899470899471,70.26455026455027 34.074074074074076,70.05291005291006 33.43915343915344,69.84126984126985 32.804232804232804,69.62962962962963 32.16931216931217,69.41798941798942 31.53439153439154,69.20634920634922 30.899470899470902,69.20634920634922 30.264550264550266,69.20634920634922 29.629629629629633,68.994708994709 28.994708994708997,68.994708994709 28.35978835978836,68.994708994709 27.724867724867728,68.994708994709 27.089947089947092,68.994708994709 26.455026455026456,68.994708994709 25.820105820105823,69.20634920634922 25.185185185185187,69.20634920634922 24.55026455026455,69.41798941798942 23.915343915343918,69.41798941798942 23.280423280423282,69.41798941798942 22.645502645502646,69.41798941798942 22.010582010582013,69.62962962962963 21.375661375661377,69.62962962962963 20.740740740740744,69.62962962962963 20.105820105820108,69.84126984126985 19.47089947089947,69.84126984126985 18.83597883597884,69.84126984126985 18.201058201058203,69.84126984126985 17.566137566137566,69.84126984126985 16.931216931216934,69.84126984126985 16.296296296296298,69.84126984126985 15.661375661375663,69.84126984126985 15.026455026455027,69.84126984126985 14.391534391534393,69.84126984126985 13.756613756613758,69.84126984126985 13.121693121693122,69.84126984126985 12.486772486772487,69.62962962962963 11.851851851851853,69.62962962962963 11.216931216931219,69.41798941798942 10.582010582010582,69.20634920634922 9.947089947089948,68.994708994709 9.312169312169313,68.78306878306879 8.677248677248677,68.57142857142858 8.042328042328043,68.35978835978837 7.407407407407408,67.93650793650794 6.772486772486773,67.51322751322752 6.137566137566138,67.3015873015873 5.502645502645503,66.87830687830689 5.07936507936508,66.45502645502646 4.656084656084657,66.03174603174604 4.2328042328042335,65.60846560846561 3.8095238095238098,65.18518518518519 3.174603174603175,64.76190476190477 2.7513227513227516,64.33862433862434 2.3280423280423284,63.91534391534392 1.9047619047619049,63.280423280423285 1.4814814814814816,62.64550264550265 1.0582010582010584,62.01058201058201 0.8465608465608466,61.37566137566138 0.8465608465608466,60.74074074074075 0.8465608465608466,60.10582010582011 0.634920634920635,59.470899470899475 0.4232804232804233,58.83597883597884 0.4232804232804233,58.2010582010582 0.21164021164021166,57.56613756613757 0.21164021164021166,56.93121693121694 0.21164021164021166,56.2962962962963 0.21164021164021166,55.661375661375665 0.4232804232804233,55.02645502645503 0.4232804232804233,54.39153439153439 0.4232804232804233,53.75661375661376 0.634920634920635,53.12169312169313 0.634920634920635,52.48677248677249 0.634920634920635,51.851851851851855 0.8465608465608466,51.21693121693122 0.8465608465608466,50.58201058201058 1.0582010582010584,49.94708994708995 1.0582010582010584,49.31216931216932 1.26984126984127,48.677248677248684 1.26984126984127,48.042328042328045 1.4814814814814816,47.40740740740741 1.6931216931216932,46.77248677248678 1.9047619047619049,46.13756613756614 2.1164021164021167,45.50264550264551 2.3280423280423284,44.867724867724874 2.53968253968254,44.232804232804234 2.7513227513227516,43.5978835978836 2.9629629629629632,42.96296296296297 3.174603174603175,42.32804232804233 3.597883597883598,41.6931216931217 4.021164021164021,41.058201058201064 4.2328042328042335,40.423280423280424 4.656084656084657,39.78835978835979 4.867724867724868,39.15343915343916 5.291005291005291,38.51851851851852 5.714285714285714,37.883597883597886 6.137566137566138,37.248677248677254 6.34920634920635,36.613756613756614 6.772486772486773,36.19047619047619 6.772486772486773,35.55555555555556 7.195767195767196,35.13227513227513 7.6190476190476195,34.70899470899471 8.042328042328043,34.074074074074076 8.465608465608467,33.43915343915344 8.88888888888889,33.01587301587302 9.312169312169313,32.38095238095239 9.735449735449736,31.95767195767196 10.15873015873016,31.53439153439154 10.582010582010582,31.111111111111114 11.005291005291006,30.476190476190478 11.428571428571429,30.052910052910054 11.851851851851853,29.629629629629633 12.275132275132275,29.20634920634921 12.6984126984127,28.783068783068785 13.333333333333334,28.35978835978836 13.756613756613758,27.93650793650794 14.17989417989418,27.513227513227516 14.814814814814817,27.089947089947092 15.449735449735451,26.666666666666668 15.873015873015873,26.243386243386244 16.50793650793651,25.820105820105823 17.142857142857146,25.3968253968254 17.77777777777778,24.973544973544975 18.412698412698415,24.55026455026455 19.047619047619047,24.338624338624342 19.47089947089947,23.915343915343918 20.105820105820108,23.492063492063494 20.740740740740744,23.06878306878307 21.375661375661377,23.06878306878307 21.7989417989418,22.645502645502646 22.433862433862437,22.433862433862437 22.857142857142858,22.010582010582013 23.492063492063494,21.7989417989418 24.12698412698413,21.58730158730159 24.761904761904763,21.375661375661377 25.3968253968254,21.164021164021165 25.820105820105823,20.740740740740744 26.455026455026456,20.31746031746032 27.089947089947092,20.105820105820108 27.724867724867728,19.894179894179896 28.35978835978836,19.47089947089947 28.994708994708997,19.47089947089947 29.629629629629633,19.25925925925926 30.264550264550266,19.25925925925926 30.899470899470902,19.047619047619047 31.53439153439154,19.047619047619047 32.16931216931217,19.25925925925926 32.804232804232804,19.47089947089947 33.43915343915344,19.682539682539684 34.074074074074076,19.682539682539684 34.70899470899471,19.894179894179896 35.34391534391535,20.31746031746032 35.97883597883598,20.529100529100532 36.402116402116405,20.952380952380953 36.82539682539683,21.375661375661377 37.248677248677254,21.7989417989418 37.67195767195768,22.433862433862437 38.095238095238095,23.06878306878307 38.51851851851852,23.492063492063494 38.51851851851852,24.12698412698413 38.94179894179894,24.55026455026455 39.15343915343916,25.185185185185187 39.57671957671958,25.820105820105823 39.78835978835979,26.455026455026456 40.0,27.089947089947092 40.211640211640216,27.724867724867728 40.423280423280424,28.35978835978836 40.63492063492064,28.994708994708997 40.63492063492064,29.629629629629633 40.84656084656085,30.264550264550266 41.058201058201064,30.899470899470902 41.058201058201064,31.53439153439154 41.058201058201064,32.16931216931217 41.26984126984127,32.804232804232804 41.48148148148149,33.43915343915344 41.48148148148149,34.074074074074076 41.48148148148149,34.70899470899471 41.6931216931217,35.34391534391535 41.904761904761905,35.97883597883598 41.904761904761905,36.613756613756614 42.11640211640212,37.248677248677254 42.11640211640212,37.883597883597886 42.32804232804233,38.51851851851852 42.32804232804233,39.15343915343916 42.32804232804233,39.78835978835979 42.539682539682545,40.423280423280424 42.539682539682545,41.058201058201064 42.75132275132275,41.6931216931217 42.75132275132275,42.32804232804233 42.75132275132275,42.96296296296297 42.75132275132275,43.5978835978836 42.75132275132275,44.232804232804234 42.96296296296297,44.867724867724874 42.96296296296297,45.50264550264551 42.96296296296297,46.13756613756614 43.17460317460318,46.77248677248678 43.386243386243386,47.40740740740741 43.386243386243386,48.042328042328045 43.5978835978836,48.677248677248684 43.80952380952381,49.31216931216932 44.021164021164026,49.94708994708995 44.232804232804234,50.58201058201058 44.65608465608466,51.21693121693122 45.07936507936508,51.851851851851855 45.50264550264551,52.27513227513228 46.13756613756614,52.6984126984127 46.560846560846564,53.12169312169313 47.195767195767196,53.54497354497355 47.830687830687836,53.75661375661376 48.46560846560847,53.968253968253975 49.1005291005291,54.179894179894184 49.73544973544974,54.179894179894184 50.370370370370374,54.179894179894184 51.00529100529101,54.179894179894184 51.640211640211646,53.968253968253975 52.27513227513228,53.968253968253975 52.91005291005291,53.75661375661376 53.54497354497355,53.333333333333336 54.179894179894184,53.12169312169313 54.81481481481482,52.6984126984127 55.449735449735456,52.48677248677249 56.08465608465609,52.06349206349207 56.71957671957672,51.640211640211646 57.142857142857146,51.21693121693122 57.777777777777786,50.7936507936508 58.41269841269842,50.370370370370374 59.04761904761905,49.94708994708995 59.682539682539684,49.523809523809526 60.10582010582011,49.1005291005291 60.52910052910053,48.677248677248684 61.16402116402117,48.25396825396826 61.58730158730159,47.61904761904762 62.22222222222223,47.195767195767196 62.64550264550265,46.77248677248678 63.06878306878308,46.349206349206355 63.492063492063494,45.92592592592593 63.91534391534392,45.50264550264551 64.33862433862434,45.07936507936508 64.76190476190477,44.44444444444445 65.18518518518519,44.021164021164026 65.60846560846561,43.5978835978836 66.03174603174604,42.96296296296297 66.45502645502646,42.539682539682545 66.87830687830689,41.904761904761905 67.3015873015873,41.48148148148149 67.72486772486774,41.058201058201064 68.14814814814815,40.63492063492064 68.57142857142858,40.0 68.994708994709,39.57671957671958 69.41798941798942,39.15343915343916 69.84126984126985,38.730158730158735 70.26455026455027,38.095238095238095 70.6878306878307,37.67195767195768 71.11111111111111,37.248677248677254 71.53439153439155,36.82539682539683 71.95767195767196,36.19047619047619 72.38095238095238,35.76719576719577 72.5925925925926,35.13227513227513 73.01587301587303,34.70899470899471 73.43915343915344,34.28571428571429 73.86243386243387,33.86243386243387 74.28571428571429,33.22751322751323 74.70899470899471,32.804232804232804 75.13227513227514,32.38095238095239 75.55555555555556,31.95767195767196 75.97883597883599,31.322751322751326 76.4021164021164,30.899470899470902 76.82539682539684,30.264550264550266 77.24867724867725,29.841269841269842 77.67195767195767,29.41798941798942 78.0952380952381,28.783068783068785 78.51851851851852,28.35978835978836 78.94179894179895,27.93650793650794 79.36507936507937,27.301587301587304 79.7883597883598,26.87830687830688 80.21164021164022,26.455026455026456 80.63492063492065,26.031746031746035 81.05820105820106,25.60846560846561 81.48148148148148,24.973544973544975 81.90476190476191,24.55026455026455 82.32804232804233,24.12698412698413 82.75132275132276,23.703703703703706 83.17460317460318,23.280423280423282 83.59788359788361,22.645502645502646 84.02116402116403,22.222222222222225 84.44444444444446,21.7989417989418 84.86772486772487,21.375661375661377 85.29100529100529,20.952380952380953 85.71428571428572,20.31746031746032 86.13756613756614,19.894179894179896 86.56084656084657,19.47089947089947 86.98412698412699,19.047619047619047 87.40740740740742,18.624338624338627 87.83068783068784,18.201058201058203 88.25396825396827,17.77777777777778 88.67724867724868,17.354497354497354 89.1005291005291,16.931216931216934 89.52380952380953,16.50793650793651 89.94708994708995,15.873015873015873 90.37037037037038,15.449735449735451 90.7936507936508,15.026455026455027 91.21693121693123,14.603174603174605 91.64021164021165,14.17989417989418 92.06349206349208,13.756613756613758 92.4867724867725,13.121693121693122 92.91005291005291,12.6984126984127 93.33333333333334,12.275132275132275 93.75661375661376,11.851851851851853 94.17989417989419,11.428571428571429 94.60317460317461,10.793650793650794 95.02645502645504,10.370370370370372 95.44973544973546,9.947089947089948 95.87301587301587,9.523809523809524 96.2962962962963,8.88888888888889 96.71957671957672,8.465608465608467 97.14285714285715,8.042328042328043 97.56613756613757,7.6190476190476195 97.989417989418,6.984126984126985 98.41269841269842,6.560846560846561 98.83597883597885,6.137566137566138 99.25925925925927,5.714285714285714 99.68253968253968,5.291005291005291 100.10582010582011,4.656084656084657 100.52910052910053,4.2328042328042335 100.95238095238096,3.8095238095238098 101.37566137566138,3.3862433862433865 101.79894179894181,2.9629629629629632 102.22222222222223,2.3280423280423284 104.76190476190477,-0.4232804232804233" style="fill:none; stroke:#3300bb; stroke-width:1.0"  /><circle cx="104.76190476190477" cy="-0.4232804232804233" r="2.0" style="fill:none; stroke:#000000aa; stroke-width:0.25" /><circle cx="205.50264550264552" cy="84.86772486772487" r="2.0" style="fill:none; stroke:#000000aa; stroke-width:0.25" /><circle cx="91.00529100529101" cy="188.57142857142858" r="2.0" style="fill:none; stroke:#000000aa; stroke-width:0.25" /><circle cx="3.8095238095238098" cy="126.56084656084657" r="2.0" style="fill:none; stroke:#000000aa; stroke-width:0.25" /><circle cx="104.76190476190477" cy="0.21164021164021166" r="2.0" style="fill:none; stroke:#ff3366aa; stroke-width:0.25" /><circle cx="204.8677248677249" cy="85.5026455026455" r="2.0" style="fill:none; stroke:#ff3366aa; stroke-width:0.25" /><circle cx="90.7936507936508" cy="188.57142857142858" r="2.0" style="fill:none; stroke:#ff3366aa; stroke-width:0.25" /><circle cx="4.2328042328042335" cy="126.56084656084657" r="2.0" style="fill:none; stroke:#ff3366aa; stroke-width:0.25" /><polyline points="113.43915343915344,7.830687830687832 112.80423280423281,7.407407407407408 112.16931216931218,6.984126984126985 111.74603174603176,6.560846560846561 111.32275132275133,5.9259259259259265 110.89947089947091,5.502645502645503 110.47619047619048,5.07936507936508 110.05291005291006,4.656084656084657 109.62962962962963,4.2328042328042335 109.20634920634922,3.8095238095238098 108.78306878306879,3.3862433862433865 108.35978835978837,2.9629629629629632 107.93650793650795,2.53968253968254 107.51322751322752,2.1164021164021167" style="fill:none; stroke:#001100; stroke-width:1.0" /><polyline points="96.71957671957672,8.465608465608467 97.14285714285715,8.042328042328043 97.56613756613757,7.6190476190476195 97.989417989418,6.984126984126985 98.41269841269842,6.560846560846561 98.83597883597885,6.137566137566138 99.25925925925927,5.714285714285714 99.68253968253968,5.291005291005291 100.10582010582011,4.656084656084657 100.52910052910053,4.2328042328042335 100.95238095238096,3.8095238095238098 101.37566137566138,3.3862433862433865 101.79894179894181,2.9629629629629632 102.22222222222223,2.3280423280423284" style="fill:none; stroke:#000011; stroke-width:1.0" /><polyline points="196.4021164021164,93.96825396825398 196.82539682539684,93.54497354497356 197.24867724867727,93.12169312169313 197.6719576719577,92.69841269841271 198.0952380952381,92.27513227513228 198.51851851851853,91.85185185185186 198.94179894179896,91.42857142857143 199.36507936507937,91.00529100529101 199.7883597883598,90.58201058201058 200.42328042328043,90.15873015873017 200.84656084656086,89.52380952380953 201.2698412698413,89.1005291005291 201.6931216931217,88.67724867724868 202.11640211640213,88.25396825396827 202.53968253968256,87.83068783068784" style="fill:none; stroke:#001100; stroke-width:1.0" /><polyline points="195.978835978836,77.46031746031747 196.61375661375664,77.88359788359789 197.24867724867727,78.30687830687832 197.8835978835979,78.73015873015873 198.51851851851853,79.15343915343917 198.94179894179896,79.57671957671958 199.5767195767196,80.0 200.00000000000003,80.42328042328043 200.42328042328043,80.84656084656085 201.05820105820106,81.05820105820106 201.4814814814815,81.48148148148148 201.90476190476193,81.90476190476191 202.32804232804233,82.32804232804233 202.75132275132276,82.75132275132276" style="fill:none; stroke:#000011; stroke-width:1.0" /><polyline points="80.84656084656085,182.22222222222223 81.48148148148148,182.43386243386246 82.11640211640213,182.85714285714286 82.75132275132276,183.2804232804233 83.3862433862434,183.70370370370372 83.80952380952381,184.12698412698415 84.44444444444446,184.33862433862436 85.07936507936509,184.7619047619048 85.71428571428572,185.1851851851852 86.34920634920636,185.60846560846562 86.98412698412699,186.03174603174605 87.61904761904762,186.45502645502646 88.25396825396827,186.8783068783069" style="fill:none; stroke:#001100; stroke-width:1.0" /><polyline points="99.68253968253968,180.74074074074076 99.04761904761905,181.16402116402116 98.62433862433863,181.5873015873016 98.2010582010582,182.01058201058203 97.77777777777779,182.43386243386246 97.14285714285715,182.85714285714286 96.71957671957672,183.2804232804233 96.2962962962963,183.70370370370372 95.87301587301587,184.33862433862436 95.23809523809524,184.7619047619048 94.81481481481482,185.1851851851852 94.39153439153439,185.60846560846562 93.96825396825398,186.03174603174605 93.33333333333334,186.45502645502646" style="fill:none; stroke:#000011; stroke-width:1.0" /><polyline points="13.333333333333334,118.73015873015873 12.910052910052912,119.15343915343917 12.275132275132275,119.57671957671958 11.640211640211641,120.00000000000001 11.216931216931219,120.42328042328043 10.793650793650794,120.84656084656086 10.370370370370372,121.26984126984128 9.735449735449736,121.6931216931217 9.312169312169313,122.11640211640213 8.677248677248677,122.53968253968254 8.253968253968255,122.96296296296298 7.6190476190476195,123.3862433862434 7.195767195767196,123.80952380952382 6.560846560846561,124.23280423280424" style="fill:none; stroke:#001100; stroke-width:1.0" /><polyline points="12.910052910052912,134.17989417989418 12.275132275132275,133.75661375661377 11.851851851851853,133.33333333333334 11.428571428571429,132.9100529100529 11.005291005291006,132.4867724867725 10.582010582010582,132.06349206349208 9.947089947089948,131.64021164021165 9.523809523809524,131.21693121693121 9.100529100529101,130.7936507936508 8.677248677248677,130.37037037037038 8.042328042328043,129.94708994708995 7.6190476190476195,129.52380952380955 6.984126984126985,129.10052910052912 6.34920634920635,128.67724867724868" style="fill:none; stroke:#000011; stroke-width:1.0" /><polyline points="107.51322751322752,2.1164021164021167 92.27513227513228,-12.486772486772487" style="fill:none; stroke:#ffaa00; stroke-width:0.4" /><polyline points="102.22222222222223,2.3280423280423284 116.4021164021164,-13.333333333333334" style="fill:none; stroke:#aaff00; stroke-width:0.4" /><polyline points="202.53968253968256,87.83068783068784 217.56613756613757,72.80423280423281" style="fill:none; stroke:#ffaa00; stroke-width:0.4" /><polyline points="202.75132275132276,82.75132275132276 219.4708994708995,95.87301587301587" style="fill:none; stroke:#aaff00; stroke-width:0.4" /><polyline points="88.25396825396827,186.8783068783069 106.24338624338625,198.0952380952381" style="fill:none; stroke:#ffaa00; stroke-width:0.4" /><polyline points="93.33333333333334,186.45502645502646 77.67195767195767,200.63492063492066" style="fill:none; stroke:#aaff00; stroke-width:0.4" /><polyline points="6.560846560846561,124.23280423280424 -9.947089947089948,137.56613756613757" style="fill:none; stroke:#ffaa00; stroke-width:0.4" /><polyline points="6.34920634920635,128.67724867724868 -9.947089947089948,115.13227513227514" style="fill:none; stroke:#aaff00; stroke-width:0.4" /><circle cx="93.96825396825398" cy="92.91005291005291" r="1.0" style="fill:#444444; stroke-width:0" /><circle cx="103.70370370370371" cy="72.16931216931218" r="10.582010582010582" style="fill:#ff770022; stroke-width:0" /><circle cx="103.70370370370371" cy="72.16931216931218" r="1.0" style="fill:#ff7700; stroke-width:0" /></svg>