<?xml version="1.0" encoding="UTF-8" standalone="no"?><svg width="664.1269841269842" height="703.4920634920635" viewBox="-10 -10 241.3756613756614 254.4973544973545" xmlns="http://www.w3.org/2000/svg" xmlns:xlink="http://www.w3.org/1999/xlink"><polyline points="0.21164021164021166,97.989417989418 1.4814814814814816,94.39153439153439 1.6931216931216932,93.75661375661376 1.9047619047619049,93.12169312169313 2.1164021164021167,92.4867724867725 2.53968253968254,91.85185185185186 2.7513227513227516,91.21693121693123 3.174603174603175,90.58201058201058 3.174603174603175,89.94708994708995 3.597883597883598,89.31216931216932 3.8095238095238098,88.67724867724868 4.021164021164021,88.04232804232805 4.2328042328042335,87.40740740740742 4.444444444444445,86.77248677248677 4.867724867724868,86.13756613756614 5.07936507936508,85.5026455026455 5.291005291005291,84.86772486772487 5.502645502645503,84.23280423280424 5.714285714285714,83.59788359788361 5.9259259259259265,82.96296296296298 6.137566137566138,82.32804232804233 6.34920634920635,81.6931216931217 6.560846560846561,81.05820105820106 6.772486772486773,80.42328042328043 7.195767195767196,79.7883597883598 7.407407407407408,79.15343915343917 7.6190476190476195,78.51851851851852 7.830687830687832,77.88359788359789 8.253968253968255,77.46031746031747 8.465608465608467,76.82539682539684 8.88888888888889,76.19047619047619 9.100529100529101,75.55555555555556 9.523809523809524,74.92063492063492 9.947089947089948,74.28571428571429 10.15873015873016,73.65079365079366 10.582010582010582,73.22751322751323 10.793650793650794,72.5925925925926 11.005291005291006,71.95767195767196 11.428571428571429,71.53439153439155 11.851851851851853,70.8994708994709 12.275132275132275,70.47619047619048 12.6984126984127,69.84126984126985 13.121693121693122,69.20634920634922 13.544973544973546,68.78306878306879 13.96825396825397,68.14814814814815 14.391534391534393,67.72486772486774 14.814814814814817,67.08994708994709 15.449735449735451,66.66666666666667 15.873015873015873,66.24338624338625 16.296296296296298,65.82010582010582 16.931216931216934,65.3968253968254 17.354497354497354,64.97354497354497 17.98941798941799,64.55026455026456 18.624338624338627,64.33862433862434 19.047619047619047,63.91534391534392 19.682539682539684,63.70370370370371 20.31746031746032,63.70370370370371 20.952380952380953,63.492063492063494 21.58730158730159,63.70370370370371 22.222222222222225,63.91534391534392 22.857142857142858,63.91534391534392 23.492063492063494,64.33862433862434 24.12698412698413,64.76190476190477 24.55026455026455,65.18518518518519 24.973544973544975,65.60846560846561 25.3968253968254,66.24338624338625 25.820105820105823,66.87830687830689 26.031746031746035,67.51322751322752 26.243386243386244,68.14814814814815 26.666666666666668,68.78306878306879 26.666666666666668,69.41798941798942 26.87830687830688,70.05291005291006 27.089947089947092,70.6878306878307 27.089947089947092,71.32275132275133 27.301587301587304,71.95767195767196 27.301587301587304,72.5925925925926 27.724867724867728,73.22751322751323 27.724867724867728,73.86243386243387 27.724867724867728,74.49735449735451 27.93650793650794,75.13227513227514 27.93650793650794,75.76719576719577 28.14814814814815,76.4021164021164 28.571428571428573,77.03703703703704 28.783068783068785,77.67195767195767 28.994708994708997,78.30687830687832 29.41798941798942,78.94179894179895 29.841269841269842,79.57671957671958 30.052910052910054,80.21164021164022 30.476190476190478,80.63492063492065 30.899470899470902,81.26984126984128 31.322751322751326,81.90476190476191 31.746031746031747,82.32804232804233 32.16931216931217,82.96296296296298 32.592592592592595,83.3862433862434 33.01587301587302,83.80952380952381 33.43915343915344,84.23280423280424 33.86243386243387,84.65608465608466 34.4973544973545,85.07936507936509 34.920634920634924,85.5026455026455 35.55555555555556,85.71428571428572 35.97883597883598,86.13756613756614 36.613756613756614,86.34920634920636 37.248677248677254,86.56084656084657 37.883597883597886,86.77248677248677 38.51851851851852,86.98412698412699 39.15343915343916,86.98412698412699 39.78835978835979,86.98412698412699 40.423280423280424,86.98412698412699 41.058201058201064,86.98412698412699 41.6931216931217,87.1957671957672 42.32804232804233,86.98412698412699 42.96296296296297,86.98412698412699 43.5978835978836,86.98412698412699 44.232804232804234,86.98412698412699 44.867724867724874,86.77248677248677 45.50264550264551,86.77248677248677 46.13756613756614,86.77248677248677 46.77248677248678,86.56084656084657 47.40740740740741,86.56084656084657 48.042328042328045,86.34920634920636 48.677248677248684,86.13756613756614 49.31216931216932,86.13756613756614 49.94708994708995,85.71428571428572 50.58201058201058,85.5026455026455 51.21693121693122,85.29100529100529 51.851851851851855,85.07936507936509 52.48677248677249,84.65608465608466 53.12169312169313,84.44444444444446 53.75661375661376,84.02116402116403 54.39153439153439,83.80952380952381 54.81481481481482,83.3862433862434 55.449735449735456,83.17460317460318 56.08465608465609,82.75132275132276 56.50793650793651,82.32804232804233 57.142857142857146,81.90476190476191 57.56613756613757,81.48148148148148 58.2010582010582,81.05820105820106 58.62433862433863,80.63492063492065 59.04761904761905,80.21164021164022 59.682539682539684,79.7883597883598 60.10582010582011,79.36507936507937 60.52910052910053,78.94179894179895 60.952380952380956,78.51851851851852 61.37566137566138,78.0952380952381 61.798941798941804,77.67195767195767 62.22222222222223,77.24867724867725 62.64550264550265,76.61375661375662 63.06878306878308,76.19047619047619 63.280423280423285,75.55555555555556 63.70370370370371,75.13227513227514 64.12698412698413,74.49735449735451 64.55026455026456,73.86243386243387 64.76190476190477,73.22751322751323 64.97354497354497,72.5925925925926 65.18518518518519,71.95767195767196 65.60846560846561,71.32275132275133 65.82010582010582,70.6878306878307 66.03174603174604,70.05291005291006 66.24338624338625,69.41798941798942 66.24338624338625,68.78306878306879 66.45502645502646,68.14814814814815 66.45502645502646,67.51322751322752 66.66666666666667,66.87830687830689 66.66666666666667,66.24338624338625 66.87830687830689,65.60846560846561 66.66666666666667,64.97354497354497 66.66666666666667,64.33862433862434 66.66666666666667,63.70370370370371 66.45502645502646,63.06878306878308 66.24338624338625,62.43386243386244 66.03174603174604,61.798941798941804 65.82010582010582,61.16402116402117 65.3968253968254,60.52910052910053 64.97354497354497,59.8941798941799 64.55026455026456,59.25925925925927 64.12698412698413,58.62433862433863 63.91534391534392,57.989417989417994 63.492063492063494,57.35449735449736 63.06878306878308,56.93121693121694 62.43386243386244,56.50793650793651 62.01058201058201,56.08465608465609 61.58730158730159,55.449735449735456 60.952380952380956,55.02645502645503 60.52910052910053,54.60317460317461 60.10582010582011,54.179894179894184 59.682539682539684,53.75661375661376 59.25925925925927,53.333333333333336 58.62433862433863,52.91005291005291 58.2010582010582,52.48677248677249 57.56613756613757,52.27513227513228 57.142857142857146,51.851851851851855 56.50793650793651,51.640211640211646 56.08465608465609,51.21693121693122 55.449735449735456,50.7936507936508 54.81481481481482,50.58201058201058 54.39153439153439,50.158730158730165 53.75661375661376,49.94708994708995 53.12169312169313,49.73544973544974 52.48677248677249,49.31216931216932 51.851851851851855,49.1005291005291 51.21693121693122,48.677248677248684 50.58201058201058,48.46560846560847 49.94708994708995,48.25396825396826 49.31216931216932,48.042328042328045 48.677248677248684,47.61904761904762 48.042328042328045,47.40740740740741 47.40740740740741,47.195767195767196 46.77248677248678,46.77248677248678 46.349206349206355,46.349206349206355 45.92592592592593,45.92592592592593 45.50264550264551,45.50264550264551 44.867724867724874,45.07936507936508 44.44444444444445,44.44444444444445 44.232804232804234,43.80952380952381 43.80952380952381,43.386243386243386 43.5978835978836,42.75132275132275 43.386243386243386,42.11640211640212 43.17460317460318,41.48148148148149 43.17460317460318,40.84656084656085 43.17460317460318,40.211640211640216 43.386243386243386,39.57671957671958 43.5978835978836,38.94179894179894 43.80952380952381,38.30687830687831 44.021164021164026,37.67195767195768 44.44444444444445,37.03703703703704 44.867724867724874,36.402116402116405 45.29100529100529,35.76719576719577 45.714285714285715,35.13227513227513 46.13756613756614,34.70899470899471 46.560846560846564,34.28571428571429 46.98412698412699,33.86243386243387 47.40740740740741,33.43915343915344 47.830687830687836,32.804232804232804 48.46560846560847,32.38095238095239 48.88888888888889,31.95767195767196 49.523809523809526,31.53439153439154 49.94708994708995,31.111111111111114 50.370370370370374,30.68783068783069 50.7936507936508,30.264550264550266 51.42857142857143,29.841269841269842 51.851851851851855,29.41798941798942 52.27513227513228,28.994708994708997 52.6984126984127,28.571428571428573 53.333333333333336,28.35978835978836 53.75661375661376,27.93650793650794 54.179894179894184,27.513227513227516 54.81481481481482,27.089947089947092 55.449735449735456,26.666666666666668 56.08465608465609,26.243386243386244 56.50793650793651,25.820105820105823 57.142857142857146,25.3968253968254 57.777777777777786,24.973544973544975 58.41269841269842,24.55026455026455 59.04761904761905,24.12698412698413 59.470899470899475,23.703703703703706 60.10582010582011,23.280423280423282 60.74074074074075,23.06878306878307 61.16402116402117,22.645502645502646 61.798941798941804,22.222222222222225 62.43386243386244,21.7989417989418 62.85714285714286,21.375661375661377 63.280423280423285,20.952380952380953 63.91534391534392,20.529100529100532 64.55026455026456,20.105820105820108 65.18518518518519,19.894179894179896 65.60846560846561,19.47089947089947 66.03174603174604,19.047619047619047 66.66666666666667,18.83597883597884 67.08994708994709,18.412698412698415 67.72486772486774,18.201058201058203 68.35978835978837,17.77777777777778 68.994708994709,17.354497354497354 69.41798941798942,16.931216931216934 70.05291005291006,16.71957671957672 70.47619047619048,16.296296296296298 71.11111111111111,16.084656084656086 71.74603174603175,15.661375661375663 72.38095238095238,15.238095238095239 73.01587301587303,15.026455026455027 73.43915343915344,14.603174603174605 74.07407407407408,14.17989417989418 74.70899470899471,13.96825396825397 75.34391534391536,13.544973544973546 75.97883597883599,13.333333333333334 76.61375661375662,12.910052910052912 77.24867724867725,12.486772486772487 77.88359788359789,12.063492063492065 78.51851851851852,11.851851851851853 79.15343915343917,11.640211640211641 79.7883597883598,11.216931216931219 80.42328042328043,10.793650793650794 81.05820105820106,10.582010582010582 81.6931216931217,10.15873015873016 82.32804232804233,9.947089947089948 82.96296296296298,9.523809523809524 83.59788359788361,9.312169312169313 84.02116402116403,8.88888888888889 84.65608465608466,8.677248677248677 85.29100529100529,8.465608465608467 85.92592592592594,8.042328042328043 86.56084656084657,7.830687830687832 87.1957671957672,7.407407407407408 87.83068783068784,7.195767195767196 88.46560846560847,6.772486772486773 89.1005291005291,6.560846560846561 89.73544973544975,6.137566137566138 90.37037037037038,5.9259259259259265 91.00529100529101,5.714285714285714 91.64021164021165,5.291005291005291 92.27513227513228,5.291005291005291 92.91005291005291,4.867724867724868 93.54497354497356,4.656084656084657 94.17989417989419,4.444444444444445 94.81481481481482,4.021164021164021 95.44973544973546,3.8095238095238098 96.08465608465609,3.597883597883598 96.71957671957672,3.174603174603175 97.35449735449737,2.7513227513227516 97.989417989418,2.3280423280423284 98.62433862433863,2.1164021164021167 99.25925925925927,1.9047619047619049 99.8941798941799,1.4814814814814816 100.52910052910053,1.26984126984127 101.16402116402116,1.0582010582010584 101.79894179894181,0.8465608465608466 104.97354497354497,-0.634920634920635" style="fill:none; stroke:#cc0000; stroke-width:1.0"  /><polyline points="104.97354497354497,-0.634920634920635 106.87830687830689,2.9629629629629632 107.3015873015873,3.597883597883598 107.51322751322752,4.2328042328042335 107.93650793650795,4.656084656084657 108.14814814814815,5.291005291005291 108.35978835978837,5.9259259259259265 108.57142857142858,6.560846560846561 108.994708994709,7.195767195767196 109.20634920634922,7.830687830687832 109.62962962962963,8.465608465608467 109.84126984126985,9.100529100529101 110.26455026455027,9.523809523809524 110.47619047619048,10.15873015873016 110.6878306878307,10.793650793650794 111.11111111111111,11.428571428571429 111.32275132275133,12.063492063492065 111.53439153439155,12.6984126984127 111.95767195767196,13.333333333333334 112.16931216931218,13.96825396825397 112.3809523809524,14.603174603174605 112.5925925925926,15.238095238095239 112.80423280423281,15.873015873015873 113.22751322751324,16.50793650793651 113.43915343915344,17.142857142857146 113.65079365079366,17.77777777777778 113.86243386243387,18.412698412698415 114.07407407407408,19.047619047619047 114.28571428571429,19.682539682539684 114.49735449735451,20.31746031746032 114.92063492063492,20.952380952380953 114.92063492063492,21.58730158730159 115.34391534391536,22.222222222222225 115.55555555555557,22.857142857142858 115.76719576719577,23.492063492063494 115.97883597883599,24.12698412698413 116.4021164021164,24.761904761904763 116.61375661375662,25.3968253968254 116.82539682539684,26.031746031746035 117.24867724867725,26.666666666666668 117.46031746031747,27.301587301587304 117.67195767195768,27.93650793650794 117.88359788359789,28.571428571428573 118.0952380952381,29.20634920634921 118.51851851851853,29.841269841269842 118.73015873015873,30.476190476190478 119.15343915343917,31.111111111111114 119.36507936507937,31.746031746031747 119.57671957671958,32.38095238095239 120.00000000000001,33.01587301587302 120.21164021164022,33.65079365079365 120.63492063492065,34.28571428571429 120.84656084656086,34.920634920634924 121.26984126984128,35.55555555555556 121.4814814814815,36.19047619047619 121.90476190476191,36.82539682539683 122.11640211640213,37.46031746031746 122.53968253968254,37.883597883597886 122.96296296296298,38.51851851851852 123.17460317460318,39.15343915343916 123.59788359788361,39.78835978835979 123.80952380952382,40.423280423280424 124.23280423280424,41.058201058201064 124.65608465608466,41.6931216931217 124.86772486772487,42.32804232804233 125.2910052910053,42.96296296296297 125.5026455026455,43.5978835978836 125.92592592592594,44.021164021164026 126.13756613756615,44.65608465608466 126.56084656084657,45.29100529100529 126.77248677248679,45.92592592592593 127.1957671957672,46.560846560846564 127.61904761904763,47.195767195767196 127.83068783068784,47.830687830687836 128.25396825396825,48.25396825396826 128.67724867724868,48.88888888888889 128.88888888888889,49.523809523809526 129.31216931216932,50.158730158730165 129.73544973544975,50.7936507936508 129.94708994708995,51.42857142857143 130.37037037037038,51.851851851851855 130.58201058201058,52.48677248677249 131.005291005291,53.12169312169313 131.42857142857144,53.75661375661376 131.85185185185185,54.39153439153439 132.06349206349208,55.02645502645503 132.4867724867725,55.449735449735456 132.9100529100529,55.87301587301588 133.12169312169314,56.50793650793651 133.54497354497354,56.93121693121694 133.75661375661377,57.56613756613757 134.17989417989418,57.989417989417994 134.6031746031746,58.62433862433863 135.02645502645504,59.25925925925927 135.44973544973547,59.8941798941799 135.87301587301587,60.52910052910053 136.0846560846561,61.16402116402117 136.5079365079365,61.58730158730159 136.93121693121694,62.22222222222223 137.35449735449737,62.85714285714286 137.56613756613757,63.492063492063494 137.989417989418,63.91534391534392 138.41269841269843,64.55026455026456 138.83597883597884,65.18518518518519 139.25925925925927,65.82010582010582 139.6825396825397,66.24338624338625 140.10582010582013,66.87830687830689 140.52910052910053,67.51322751322752 140.95238095238096,68.14814814814815 141.3756613756614,68.57142857142858 141.7989417989418,69.20634920634922 142.22222222222223,69.62962962962963 142.64550264550266,70.26455026455027 143.0687830687831,70.8994708994709 143.4920634920635,71.32275132275133 143.91534391534393,71.95767195767196 144.33862433862436,72.5925925925926 144.973544973545,73.01587301587303 145.39682539682542,73.65079365079366 145.82010582010582,74.07407407407408 146.24338624338625,74.70899470899471 146.66666666666669,75.34391534391536 147.0899470899471,75.97883597883599 147.51322751322752,76.4021164021164 147.93650793650795,77.03703703703704 148.35978835978838,77.46031746031747 148.78306878306879,78.0952380952381 149.20634920634922,78.51851851851852 149.62962962962965,78.94179894179895 150.05291005291005,79.57671957671958 150.47619047619048,80.0 150.8994708994709,80.42328042328043 151.32275132275134,80.84656084656085 151.74603174603175,81.26984126984128 152.16931216931218,81.6931216931217 152.5925925925926,82.11640211640213 153.01587301587304,82.53968253968254 153.43915343915344,82.96296296296298 153.86243386243387,83.3862433862434 154.4973544973545,83.80952380952381 154.92063492063494,84.23280423280424 155.55555555555557,84.65608465608466 155.978835978836,85.07936507936509 156.4021164021164,85.5026455026455 157.03703703703704,85.92592592592594 157.46031746031747,86.34920634920636 158.0952380952381,86.77248677248677 158.73015873015873,87.1957671957672 159.15343915343917,87.61904761904762 159.7883597883598,88.04232804232805 160.21164021164023,88.46560846560847 160.84656084656086,88.67724867724868 161.2698412698413,89.1005291005291 161.90476190476193,89.52380952380953 162.53968253968256,89.73544973544975 163.1746031746032,89.94708994708995 163.80952380952382,90.15873015873017 164.44444444444446,90.37037037037038 165.0793650793651,90.58201058201058 165.71428571428572,90.7936507936508 166.34920634920636,91.00529100529101 166.984126984127,91.00529100529101 167.61904761904762,90.7936507936508 168.25396825396825,90.7936507936508 168.8888888888889,90.7936507936508 169.52380952380955,90.7936507936508 170.15873015873018,90.58201058201058 170.7936507936508,90.58201058201058 171.42857142857144,90.37037037037038 172.06349206349208,90.15873015873017 172.6984126984127,89.94708994708995 173.33333333333334,89.73544973544975 173.96825396825398,89.52380952380953 174.6031746031746,89.31216931216932 175.23809523809524,88.8888888888889 175.87301587301587,88.67724867724868 176.2962962962963,88.25396825396827 176.93121693121694,87.83068783068784 177.35449735449737,87.40740740740742 177.7777777777778,86.98412698412699 178.41269841269843,86.77248677248677 178.83597883597884,86.13756613756614 179.25925925925927,85.71428571428572 179.6825396825397,85.29100529100529 180.10582010582013,84.65608465608466 180.52910052910053,84.02116402116403 180.74074074074076,83.3862433862434 181.16402116402116,82.75132275132276 181.3756613756614,82.11640211640213 181.3756613756614,81.48148148148148 181.5873015873016,80.84656084656085 181.79894179894183,80.21164021164022 181.79894179894183,79.57671957671958 181.79894179894183,78.94179894179895 182.01058201058203,78.30687830687832 182.01058201058203,77.67195767195767 182.01058201058203,77.03703703703704 182.01058201058203,76.4021164021164 182.22222222222223,75.76719576719577 182.22222222222223,75.13227513227514 182.43386243386246,74.49735449735451 182.43386243386246,73.86243386243387 182.43386243386246,73.22751322751323 182.64550264550266,72.5925925925926 182.43386243386246,71.95767195767196 182.64550264550266,71.32275132275133 182.85714285714286,70.6878306878307 183.0687830687831,70.05291005291006 183.0687830687831,69.41798941798942 183.2804232804233,68.78306878306879 183.70370370370372,68.14814814814815 183.91534391534393,67.51322751322752 184.33862433862436,66.87830687830689 184.7619047619048,66.24338624338625 184.973544973545,65.60846560846561 185.39682539682542,65.18518518518519 185.82010582010582,64.76190476190477 186.03174603174605,64.12698412698413 186.45502645502646,63.70370370370371 186.8783068783069,63.280423280423285 187.30158730158732,62.85714285714286 187.72486772486775,62.43386243386244 188.35978835978838,62.22222222222223 188.99470899470901,62.01058201058201 189.62962962962965,61.798941798941804 190.26455026455028,61.798941798941804 190.8994708994709,61.798941798941804 191.53439153439155,61.798941798941804 192.16931216931218,61.798941798941804 192.8042328042328,61.798941798941804 193.43915343915344,62.01058201058201 194.07407407407408,62.22222222222223 194.70899470899474,62.22222222222223 195.34391534391537,62.43386243386244 195.978835978836,62.64550264550265 196.61375661375664,62.85714285714286 197.24867724867727,63.06878306878308 197.8835978835979,63.280423280423285 198.51851851851853,63.492063492063494 199.15343915343917,63.70370370370371 199.7883597883598,63.91534391534392 200.42328042328043,64.33862433862434 201.05820105820106,64.55026455026456 201.6931216931217,64.76190476190477 202.11640211640213,65.18518518518519 202.75132275132276,65.60846560846561 203.3862433862434,65.60846560846561 204.02116402116403,66.03174603174604 204.65608465608466,66.45502645502646 205.29100529100532,66.87830687830689 205.71428571428572,67.3015873015873 206.34920634920636,67.51322751322752 206.7724867724868,67.93650793650794 207.19576719576722,68.35978835978837 207.83068783068785,68.78306878306879 208.46560846560848,69.20634920634922 208.8888888888889,69.62962962962963 209.31216931216932,70.05291005291006 209.73544973544975,70.47619047619048 210.37037037037038,70.8994708994709 210.7936507936508,71.32275132275133 211.21693121693124,71.74603174603175 211.64021164021165,72.16931216931218 212.06349206349208,72.5925925925926 212.6984126984127,73.01587301587303 213.12169312169314,73.43915343915344 213.54497354497357,74.07407407407408 213.96825396825398,74.49735449735451 214.3915343915344,75.13227513227514 214.81481481481484,75.55555555555556 215.23809523809524,76.19047619047619 215.66137566137567,76.82539682539684 216.0846560846561,77.46031746031747 216.50793650793653,78.0952380952381 216.93121693121694,78.73015873015873 217.14285714285717,79.36507936507937 217.56613756613757,79.7883597883598 217.7777777777778,80.42328042328043 218.20105820105823,81.05820105820106 218.41269841269843,81.6931216931217 218.62433862433863,82.32804232804233 219.04761904761907,82.96296296296298 219.25925925925927,83.59788359788361 219.4708994708995,84.23280423280424 219.8941798941799,84.86772486772487 220.10582010582013,85.5026455026455 220.31746031746033,86.13756613756614 220.31746031746033,86.77248677248677 220.52910052910053,87.40740740740742 220.74074074074076,88.04232804232805 220.74074074074076,88.67724867724868 220.95238095238096,89.31216931216932 220.95238095238096,89.94708994708995 220.95238095238096,90.58201058201058 220.95238095238096,91.21693121693123 220.95238095238096,91.85185185185186 220.74074074074076,92.4867724867725 220.52910052910053,93.12169312169313 220.31746031746033,93.75661375661376 220.10582010582013,94.39153439153439 219.6825396825397,95.02645502645504 219.4708994708995,95.66137566137567 219.04761904761907,96.08465608465609 218.62433862433863,96.50793650793652 218.20105820105823,96.93121693121694 217.7777777777778,97.56613756613757 217.35449735449737,97.989417989418 216.93121693121694,98.41269841269842 216.50793650793653,98.83597883597885 215.8730158730159,99.25925925925927 215.23809523809524,99.68253968253968 214.6031746031746,99.8941798941799 213.96825396825398,100.10582010582011 213.33333333333334,100.52910052910053 212.6984126984127,100.52910052910053 212.06349206349208,100.74074074074075 211.42857142857144,100.74074074074075 210.7936507936508,100.74074074074075 210.15873015873018,100.95238095238096 209.52380952380955,100.95238095238096 208.8888888888889,100.95238095238096 208.25396825396828,101.16402116402116 207.61904761904765,101.16402116402116 206.984126984127,101.16402116402116 206.34920634920636,101.16402116402116 205.71428571428572,101.37566137566138 205.0793650793651,101.37566137566138 204.44444444444446,101.16402116402116 203.80952380952382,101.37566137566138 203.1746031746032,101.37566137566138 202.53968253968256,101.5873015873016 201.90476190476193,101.79894179894181 201.2698412698413,101.79894179894181 200.63492063492066,102.01058201058201 200.00000000000003,102.22222222222223 199.36507936507937,102.43386243386244 198.73015873015873,102.64550264550266 198.0952380952381,103.06878306878308 197.46031746031747,103.28042328042329 196.82539682539684,103.70370370370371 196.1904761904762,104.12698412698414 195.55555555555557,104.55026455026456 195.13227513227514,104.97354497354497 194.70899470899474,105.3968253968254 194.2857142857143,105.82010582010582 193.86243386243387,106.24338624338625 193.43915343915344,106.66666666666667 193.01587301587304,107.3015873015873 192.8042328042328,107.93650793650795 192.3809523809524,108.57142857142858 191.95767195767198,109.20634920634922 191.74603174603175,109.84126984126985 191.53439153439155,110.47619047619048 191.32275132275134,111.11111111111111 191.11111111111111,111.74603174603176 191.11111111111111,112.3809523809524 191.11111111111111,113.01587301587303 191.11111111111111,113.65079365079366 191.11111111111111,114.28571428571429 191.11111111111111,114.92063492063492 191.32275132275134,115.55555555555557 191.53439153439155,116.1904761904762 191.53439153439155,116.82539682539684 191.74603174603175,117.46031746031747 191.95767195767198,118.0952380952381 192.16931216931218,118.73015873015873 192.3809523809524,119.36507936507937 192.5925925925926,120.00000000000001 192.8042328042328,120.63492063492065 193.01587301587304,121.26984126984128 193.43915343915344,121.90476190476191 193.65079365079367,122.53968253968254 193.86243386243387,123.17460317460318 194.07407407407408,123.80952380952382 194.4973544973545,124.44444444444446 194.70899470899474,125.07936507936509 194.92063492063494,125.71428571428572 195.34391534391537,126.13756613756615 195.55555555555557,126.77248677248679 195.978835978836,127.40740740740742 196.4021164021164,128.04232804232805 196.82539682539684,128.67724867724868 197.24867724867727,129.31216931216932 197.6719576719577,129.94708994708995 198.0952380952381,130.37037037037038 198.51851851851853,131.005291005291 198.94179894179896,131.42857142857144 199.36507936507937,132.06349206349208 199.7883597883598,132.4867724867725 200.21164021164023,133.12169312169314 200.63492063492066,133.54497354497354 201.05820105820106,134.17989417989418 201.4814814814815,134.6031746031746 201.90476190476193,135.23809523809524 202.32804232804233,135.66137566137567 202.75132275132276,136.2962962962963 203.3862433862434,136.71957671957674 203.80952380952382,137.35449735449737 204.23280423280426,137.989417989418 204.65608465608466,138.41269841269843 205.0793650793651,139.04761904761907 205.50264550264552,139.47089947089947 205.92592592592595,140.10582010582013 206.34920634920636,140.74074074074076 206.7724867724868,141.16402116402116 207.19576719576722,141.5873015873016 207.61904761904765,142.22222222222223 208.25396825396828,142.64550264550266 208.67724867724868,143.2804232804233 209.10052910052912,143.70370370370372 209.52380952380955,144.33862433862436 209.94708994708995,144.76190476190476 210.37037037037038,145.1851851851852 210.7936507936508,145.82010582010582 211.21693121693124,146.45502645502646 211.64021164021165,146.8783068783069 212.06349206349208,147.51322751322752 212.4867724867725,147.93650793650795 212.91005291005294,148.57142857142858 213.33333333333334,149.20634920634922 213.75661375661377,149.62962962962965 214.1798941798942,150.26455026455028 214.6031746031746,150.6878306878307 215.02645502645504,151.32275132275134 215.44973544973547,151.95767195767198 215.8730158730159,152.38095238095238 216.2962962962963,152.8042328042328 216.71957671957674,153.43915343915344 217.14285714285717,153.86243386243387 217.56613756613757,154.2857142857143 219.6825396825397,156.82539682539684" style="fill:none; stroke:#999900; stroke-width:1.0"  /><polyline points="219.6825396825397,156.82539682539684 216.93121693121694,158.94179894179896 216.2962962962963,159.36507936507937 215.8730158730159,159.7883597883598 215.44973544973547,160.21164021164023 214.81481481481484,160.63492063492066 214.1798941798942,161.05820105820106 213.75661375661377,161.4814814814815 213.12169312169314,161.90476190476193 212.6984126984127,162.32804232804233 212.27513227513228,162.75132275132276 211.64021164021165,163.1746031746032 211.21693121693124,163.59788359788362 210.7936507936508,164.02116402116403 210.15873015873018,164.44444444444446 209.73544973544975,164.8677248677249 209.31216931216932,165.2910052910053 208.67724867724868,165.71428571428572 208.25396825396828,166.13756613756615 207.83068783068785,166.56084656084658 207.40740740740742,166.984126984127 206.984126984127,167.40740740740742 206.34920634920636,167.83068783068785 205.92592592592595,168.25396825396825 205.50264550264552,168.8888888888889 205.0793650793651,169.31216931216932 204.65608465608466,169.73544973544975 204.23280423280426,170.15873015873018 203.80952380952382,170.58201058201058 203.3862433862434,171.005291005291 202.962962962963,171.42857142857144 202.53968253968256,172.06349206349208 202.11640211640213,172.4867724867725 201.6931216931217,172.9100529100529 201.2698412698413,173.54497354497354 200.84656084656086,173.96825396825398 200.42328042328043,174.3915343915344 200.00000000000003,175.02645502645504 199.5767195767196,175.44973544973547 199.15343915343917,175.87301587301587 198.73015873015873,176.2962962962963 198.30687830687833,176.93121693121694 197.8835978835979,177.35449735449737 197.6719576719577,177.989417989418 197.24867724867727,178.41269841269843 196.82539682539684,178.83597883597884 196.4021164021164,179.4708994708995 195.978835978836,179.8941798941799 195.55555555555557,180.52910052910053 195.13227513227514,180.95238095238096 194.70899470899474,181.5873015873016 194.2857142857143,182.01058201058203 193.86243386243387,182.43386243386246 193.43915343915344,182.85714285714286 193.01587301587304,183.2804232804233 192.5925925925926,183.70370370370372 192.16931216931218,184.12698412698415 191.74603174603175,184.55026455026456 191.32275132275134,184.973544973545 190.8994708994709,185.39682539682542 190.47619047619048,186.03174603174605 190.05291005291008,186.45502645502646 189.84126984126985,187.08994708994712 189.62962962962965,187.72486772486775 189.20634920634922,188.14814814814815 188.78306878306879,188.78306878306879 188.57142857142858,189.41798941798945 188.14814814814815,190.05291005291008 187.72486772486775,190.6878306878307 187.30158730158732,191.32275132275134 186.8783068783069,191.95767195767198 186.45502645502646,192.3809523809524 186.03174603174605,192.8042328042328 185.60846560846562,193.22751322751324 185.1851851851852,193.65079365079367 184.7619047619048,194.07407407407408 184.33862433862436,194.4973544973545 183.91534391534393,194.92063492063494 183.4920634920635,195.34391534391537 183.0687830687831,195.76719576719577 182.43386243386246,196.1904761904762 181.79894179894183,196.4021164021164 181.3756613756614,196.82539682539684 180.74074074074076,197.03703703703704 180.10582010582013,197.03703703703704 179.4708994708995,197.24867724867727 178.83597883597884,197.24867724867727 178.2010582010582,197.24867724867727 177.56613756613757,197.03703703703704 176.93121693121694,196.82539682539684 176.2962962962963,196.4021164021164 175.66137566137567,195.978835978836 175.23809523809524,195.55555555555557 174.81481481481484,194.92063492063494 174.3915343915344,194.2857142857143 174.1798941798942,193.65079365079367 173.96825396825398,193.01587301587304 173.75661375661377,192.3809523809524 173.54497354497354,191.74603174603175 173.33333333333334,191.11111111111111 173.33333333333334,190.47619047619048 173.12169312169314,189.84126984126985 173.12169312169314,189.20634920634922 172.9100529100529,188.57142857142858 172.9100529100529,187.93650793650795 172.9100529100529,187.30158730158732 172.6984126984127,186.66666666666669 172.6984126984127,186.03174603174605 172.6984126984127,185.39682539682542 172.4867724867725,184.7619047619048 172.4867724867725,184.12698412698415 172.4867724867725,183.4920634920635 172.4867724867725,182.85714285714286 172.27513227513228,182.22222222222223 172.06349206349208,181.5873015873016 171.85185185185188,180.95238095238096 171.64021164021165,180.31746031746033 171.42857142857144,179.6825396825397 171.21693121693124,179.04761904761907 170.7936507936508,178.41269841269843 170.37037037037038,177.7777777777778 169.94708994708995,177.35449735449737 169.52380952380955,176.71957671957674 169.10052910052912,176.0846560846561 168.67724867724868,175.66137566137567 168.25396825396825,175.23809523809524 167.61904761904762,174.81481481481484 166.984126984127,174.3915343915344 166.34920634920636,174.1798941798942 165.71428571428572,173.75661375661377 165.0793650793651,173.75661375661377 164.44444444444446,173.54497354497354 163.80952380952382,173.33333333333334 163.1746031746032,173.33333333333334 162.53968253968256,173.33333333333334 161.90476190476193,173.33333333333334 161.2698412698413,173.12169312169314 160.63492063492066,173.33333333333334 160.0,173.33333333333334 159.36507936507937,173.33333333333334 158.73015873015873,173.33333333333334 158.0952380952381,173.54497354497354 157.46031746031747,173.54497354497354 156.82539682539684,173.54497354497354 156.1904761904762,173.75661375661377 155.55555555555557,173.96825396825398 154.92063492063494,174.1798941798942 154.2857142857143,174.3915343915344 153.65079365079367,174.6031746031746 153.01587301587304,174.81481481481484 152.38095238095238,175.02645502645504 151.74603174603175,175.23809523809524 151.32275132275134,175.66137566137567 150.6878306878307,175.87301587301587 150.05291005291005,176.0846560846561 149.41798941798942,176.50793650793653 148.78306878306879,176.71957671957674 148.14814814814815,177.14285714285717 147.51322751322752,177.56613756613757 147.0899470899471,177.989417989418 146.45502645502646,178.41269841269843 145.82010582010582,178.83597883597884 145.1851851851852,179.25925925925927 144.55026455026456,179.6825396825397 143.91534391534393,180.10582010582013 143.4920634920635,180.52910052910053 142.85714285714286,180.95238095238096 142.43386243386246,181.3756613756614 142.01058201058203,181.79894179894183 141.5873015873016,182.22222222222223 140.95238095238096,182.64550264550266 140.52910052910053,183.0687830687831 140.10582010582013,183.4920634920635 139.6825396825397,183.91534391534393 139.25925925925927,184.33862433862436 138.83597883597884,184.973544973545 138.41269841269843,185.39682539682542 137.989417989418,185.82010582010582 137.56613756613757,186.24338624338625 137.14285714285717,186.8783068783069 136.71957671957674,187.51322751322752 136.2962962962963,187.93650793650795 135.87301587301587,188.57142857142858 135.44973544973547,189.20634920634922 135.02645502645504,189.84126984126985 134.6031746031746,190.47619047619048 134.17989417989418,191.11111111111111 133.75661375661377,191.74603174603175 133.54497354497354,192.3809523809524 133.33333333333334,193.01587301587304 133.12169312169314,193.65079365079367 132.9100529100529,194.2857142857143 132.6984126984127,194.92063492063494 132.6984126984127,195.55555555555557 132.6984126984127,196.1904761904762 132.6984126984127,196.82539682539684 132.6984126984127,197.46031746031747 132.9100529100529,198.0952380952381 133.33333333333334,198.73015873015873 133.75661375661377,199.36507936507937 134.17989417989418,200.00000000000003 134.6031746031746,200.63492063492066 135.02645502645504,201.05820105820106 135.44973544973547,201.4814814814815 135.87301587301587,201.90476190476193 136.5079365079365,202.11640211640213 136.93121693121694,202.53968253968256 137.56613756613757,202.962962962963 138.2010582010582,203.1746031746032 138.83597883597884,203.59788359788362 139.47089947089947,203.80952380952382 140.10582010582013,204.23280423280426 140.74074074074076,204.44444444444446 141.3756613756614,204.65608465608466 142.01058201058203,205.0793650793651 142.64550264550266,205.29100529100532 143.2804232804233,205.71428571428572 143.91534391534393,205.92592592592595 144.55026455026456,206.13756613756615 145.1851851851852,206.56084656084658 145.82010582010582,206.7724867724868 146.45502645502646,206.984126984127 147.0899470899471,207.40740740740742 147.72486772486775,207.61904761904765 148.35978835978838,208.04232804232805 148.99470899470901,208.25396825396828 149.62962962962965,208.67724867724868 150.26455026455028,209.10052910052912 150.8994708994709,209.52380952380955 151.53439153439155,209.94708994708995 151.95767195767198,210.37037037037038 152.38095238095238,211.005291005291 152.8042328042328,211.64021164021165 153.01587301587304,212.27513227513228 153.43915343915344,212.6984126984127 153.65079365079367,213.33333333333334 153.65079365079367,213.96825396825398 153.65079365079367,214.6031746031746 153.43915343915344,215.23809523809524 153.22751322751324,215.8730158730159 153.01587301587304,216.50793650793653 152.8042328042328,217.14285714285717 152.16931216931218,217.56613756613757 151.74603174603175,217.989417989418 151.11111111111111,218.41269841269843 150.47619047619048,218.83597883597886 149.84126984126985,219.25925925925927 149.20634920634922,219.6825396825397 148.57142857142858,219.8941798941799 147.93650793650795,220.31746031746033 147.30158730158732,220.52910052910053 146.66666666666669,220.74074074074076 146.03174603174605,220.95238095238096 145.39682539682542,221.3756613756614 144.76190476190476,221.5873015873016 144.12698412698413,222.01058201058203 143.4920634920635,222.22222222222223 142.85714285714286,222.43386243386246 142.22222222222223,222.85714285714286 141.5873015873016,223.0687830687831 140.95238095238096,223.2804232804233 140.31746031746033,223.49206349206352 139.8941798941799,223.91534391534393 139.25925925925927,224.12698412698415 138.62433862433863,224.33862433862436 137.989417989418,224.7619047619048 137.35449735449737,224.973544973545 136.71957671957674,225.39682539682542 136.0846560846561,225.60846560846562 135.44973544973547,226.03174603174605 134.81481481481484,226.24338624338625 134.17989417989418,226.66666666666669 133.54497354497354,227.08994708994712 133.12169312169314,227.51322751322752 132.4867724867725,227.72486772486775 131.85185185185185,228.14814814814815 131.21693121693121,228.57142857142858 130.58201058201058,228.99470899470901 129.94708994708995,229.20634920634922 129.31216931216932,229.62962962962965 128.67724867724868,230.05291005291008 128.04232804232805,230.47619047619048 127.40740740740742,230.8994708994709 126.77248677248679,231.32275132275134 126.13756613756615,231.74603174603178 125.71428571428572,232.16931216931218 125.07936507936509,232.3809523809524 122.32804232804234,234.0740740740741" style="fill:none; stroke:#00aa99; stroke-width:1.0"  /><polyline points="122.32804232804234,234.0740740740741 120.63492063492065,231.11111111111114 120.42328042328043,230.47619047619048 120.00000000000001,229.84126984126985 119.57671957671958,229.20634920634922 119.36507936507937,228.57142857142858 118.94179894179895,227.93650793650795 118.51851851851853,227.30158730158732 118.30687830687832,226.66666666666669 117.88359788359789,226.03174603174605 117.67195767195768,225.39682539682542 117.24867724867725,224.973544973545 116.82539682539684,224.33862433862436 116.61375661375662,223.70370370370372 116.1904761904762,223.0687830687831 115.76719576719577,222.43386243386246 115.34391534391536,221.79894179894183 114.92063492063492,221.1640211640212 114.70899470899472,220.52910052910053 114.28571428571429,220.10582010582013 113.86243386243387,219.4708994708995 113.43915343915344,218.83597883597886 113.01587301587303,218.20105820105823 112.80423280423281,217.56613756613757 112.3809523809524,217.14285714285717 111.95767195767196,216.50793650793653 111.53439153439155,215.8730158730159 111.11111111111111,215.23809523809524 110.6878306878307,214.81481481481484 110.26455026455027,214.1798941798942 109.84126984126985,213.54497354497357 109.41798941798943,212.91005291005294 108.994708994709,212.4867724867725 108.57142857142858,212.06349206349208 108.14814814814815,211.42857142857144 107.72486772486774,211.005291005291 107.3015873015873,210.37037037037038 106.87830687830689,209.94708994708995 106.45502645502647,209.31216931216932 106.03174603174604,208.67724867724868 105.60846560846562,208.25396825396828 105.18518518518519,207.61904761904765 104.76190476190477,206.984126984127 104.33862433862434,206.34920634920636 103.91534391534393,205.92592592592595 103.4920634920635,205.29100529100532 103.06878306878308,204.65608465608466 102.64550264550266,204.23280423280426 102.22222222222223,203.59788359788362 101.79894179894181,203.1746031746032 101.37566137566138,202.75132275132276 100.95238095238096,202.11640211640213 100.52910052910053,201.4814814814815 100.10582010582011,200.84656084656086 99.68253968253968,200.42328042328043 99.25925925925927,200.00000000000003 98.83597883597885,199.5767195767196 98.41269841269842,199.15343915343917 97.989417989418,198.73015873015873 97.56613756613757,198.30687830687833 97.14285714285715,197.8835978835979 96.71957671957672,197.46031746031747 96.2962962962963,197.03703703703704 95.87301587301587,196.4021164021164 95.44973544973546,195.978835978836 95.02645502645504,195.55555555555557 94.60317460317461,195.13227513227514 94.17989417989419,194.70899470899474 93.75661375661376,194.2857142857143 93.33333333333334,193.86243386243387 92.91005291005291,193.43915343915344 92.4867724867725,192.8042328042328 92.06349206349208,192.16931216931218 91.64021164021165,191.74603174603175 91.21693121693123,191.32275132275134 90.7936507936508,190.8994708994709 90.37037037037038,190.47619047619048 89.94708994708995,190.05291005291008 89.52380952380953,189.62962962962965 89.1005291005291,189.20634920634922 88.67724867724868,188.78306878306879 88.25396825396827,188.35978835978838 87.83068783068784,187.93650793650795 87.40740740740742,187.51322751322752 86.98412698412699,187.08994708994712 86.56084656084657,186.66666666666669 86.13756613756614,186.24338624338625 85.71428571428572,185.82010582010582 85.29100529100529,185.39682539682542 84.86772486772487,184.973544973545 84.23280423280424,184.55026455026456 83.80952380952381,184.12698412698415 83.3862433862434,183.70370370370372 82.96296296296298,183.2804232804233 82.53968253968254,182.85714285714286 82.11640211640213,182.43386243386246 81.48148148148148,182.01058201058203 81.05820105820106,181.5873015873016 80.63492063492065,181.16402116402116 80.21164021164022,180.74074074074076 79.7883597883598,180.31746031746033 79.15343915343917,179.8941798941799 78.73015873015873,179.4708994708995 78.0952380952381,179.04761904761907 77.46031746031747,178.62433862433863 76.82539682539684,178.41269841269843 76.4021164021164,177.989417989418 75.76719576719577,177.7777777777778 75.13227513227514,177.7777777777778 74.49735449735451,177.56613756613757 73.86243386243387,177.35449735449737 73.22751322751323,177.35449735449737 72.5925925925926,177.56613756613757 71.95767195767196,177.7777777777778 71.32275132275133,177.989417989418 70.6878306878307,178.2010582010582 70.05291005291006,178.62433862433863 69.62962962962963,179.04761904761907 69.20634920634922,179.4708994708995 68.78306878306879,179.8941798941799 68.35978835978837,180.31746031746033 67.93650793650794,180.95238095238096 67.51322751322752,181.5873015873016 67.3015873015873,182.22222222222223 67.08994708994709,182.85714285714286 66.87830687830689,183.4920634920635 66.66666666666667,184.12698412698415 66.66666666666667,184.7619047619048 66.66666666666667,185.39682539682542 66.66666666666667,186.03174603174605 66.45502645502646,186.66666666666669 66.45502645502646,187.30158730158732 66.45502645502646,187.93650793650795 66.45502645502646,188.57142857142858 66.24338624338625,189.20634920634922 66.24338624338625,189.84126984126985 66.24338624338625,190.47619047619048 66.24338624338625,191.11111111111111 66.24338624338625,191.74603174603175 66.24338624338625,192.3809523809524 66.24338624338625,193.01587301587304 66.03174603174604,193.65079365079367 66.03174603174604,194.2857142857143 66.03174603174604,194.92063492063494 65.82010582010582,195.55555555555557 65.82010582010582,196.1904761904762 65.60846560846561,196.82539682539684 65.60846560846561,197.46031746031747 65.18518518518519,198.0952380952381 65.18518518518519,198.73015873015873 64.97354497354497,199.36507936507937 64.76190476190477,200.00000000000003 64.33862433862434,200.63492063492066 63.91534391534392,201.2698412698413 63.492063492063494,201.6931216931217 63.06878306878308,202.32804232804233 62.64550264550265,202.75132275132276 62.22222222222223,203.1746031746032 61.58730158730159,203.3862433862434 60.952380952380956,203.59788359788362 60.31746031746032,203.80952380952382 59.682539682539684,203.80952380952382 59.04761904761905,203.80952380952382 58.41269841269842,203.59788359788362 57.777777777777786,203.59788359788362 57.142857142857146,203.3862433862434 56.50793650793651,203.1746031746032 55.87301587301588,202.962962962963 55.23809523809524,202.962962962963 54.60317460317461,202.75132275132276 53.968253968253975,202.53968253968256 53.333333333333336,202.32804232804233 52.6984126984127,202.11640211640213 52.06349206349207,201.90476190476193 51.42857142857143,201.6931216931217 50.7936507936508,201.2698412698413 50.158730158730165,201.05820105820106 49.523809523809526,200.63492063492066 48.88888888888889,200.21164021164023 48.25396825396826,200.00000000000003 47.61904761904762,199.5767195767196 46.98412698412699,199.15343915343917 46.349206349206355,198.73015873015873 45.92592592592593,198.30687830687833 45.29100529100529,197.8835978835979 44.867724867724874,197.46031746031747 44.232804232804234,197.03703703703704 43.80952380952381,196.61375661375664 43.17460317460318,196.1904761904762 42.75132275132275,195.76719576719577 42.32804232804233,195.34391534391537 41.904761904761905,194.92063492063494 41.26984126984127,194.4973544973545 40.84656084656085,194.07407407407408 40.423280423280424,193.65079365079367 40.0,193.22751322751324 39.57671957671958,192.8042328042328 39.15343915343916,192.3809523809524 38.730158730158735,191.95767195767198 38.095238095238095,191.53439153439155 37.67195767195768,191.11111111111111 37.248677248677254,190.6878306878307 36.82539682539683,190.26455026455028 36.402116402116405,189.84126984126985 35.97883597883598,189.41798941798945 35.55555555555556,188.99470899470901 35.13227513227513,188.57142857142858 34.70899470899471,188.14814814814815 34.28571428571429,187.72486772486775 33.86243386243387,187.30158730158732 33.43915343915344,186.8783068783069 33.01587301587302,186.45502645502646 32.592592592592595,186.03174603174605 32.16931216931217,185.39682539682542 31.746031746031747,184.973544973545 31.322751322751326,184.55026455026456 30.899470899470902,184.12698412698415 30.476190476190478,183.70370370370372 30.052910052910054,183.0687830687831 29.629629629629633,182.64550264550266 29.20634920634921,182.22222222222223 28.783068783068785,181.5873015873016 28.35978835978836,181.16402116402116 27.724867724867728,180.74074074074076 27.301587301587304,180.10582010582013 26.87830687830688,179.6825396825397 26.455026455026456,179.25925925925927 26.031746031746035,178.62433862433863 25.60846560846561,178.2010582010582 25.185185185185187,177.7777777777778 24.761904761904763,177.35449735449737 24.338624338624342,176.71957671957674 23.915343915343918,176.2962962962963 23.492063492063494,175.87301587301587 23.06878306878307,175.23809523809524 22.645502645502646,174.6031746031746 22.222222222222225,174.1798941798942 21.7989417989418,173.54497354497354 21.375661375661377,173.12169312169314 20.952380952380953,172.4867724867725 20.529100529100532,172.06349206349208 20.105820105820108,171.42857142857144 19.682539682539684,170.7936507936508 19.25925925925926,170.15873015873018 18.83597883597884,169.52380952380955 18.624338624338627,168.8888888888889 18.201058201058203,168.25396825396825 17.98941798941799,167.61904761904762 17.77777777777778,166.984126984127 17.354497354497354,166.56084656084658 17.142857142857146,165.92592592592595 16.931216931216934,165.2910052910053 16.71957671957672,164.65608465608466 16.50793650793651,164.02116402116403 16.296296296296298,163.3862433862434 16.084656084656086,162.75132275132276 15.873015873015873,162.11640211640213 15.661375661375663,161.4814814814815 15.661375661375663,160.84656084656086 15.449735449735451,160.21164021164023 15.449735449735451,159.5767195767196 15.449735449735451,158.94179894179896 15.661375661375663,158.30687830687833 15.873015873015873,157.67195767195767 16.084656084656086,157.03703703703704 16.50793650793651,156.61375661375664 16.931216931216934,155.978835978836 17.354497354497354,155.55555555555557 17.77777777777778,155.13227513227514 18.201058201058203,154.7089947089947 18.83597883597884,154.2857142857143 19.47089947089947,154.07407407407408 19.894179894179896,153.65079365079367 20.529100529100532,153.43915343915344 21.164021164021165,153.22751322751324 21.7989417989418,153.01587301587304 22.433862433862437,153.01587301587304 23.06878306878307,152.5925925925926 23.703703703703706,152.5925925925926 24.338624338624342,152.5925925925926 24.973544973544975,152.5925925925926 25.60846560846561,152.5925925925926 26.243386243386244,152.5925925925926 26.87830687830688,152.5925925925926 27.513227513227516,152.8042328042328 28.14814814814815,152.38095238095238 28.783068783068785,152.5925925925926 29.41798941798942,152.5925925925926 30.052910052910054,152.5925925925926 30.68783068783069,152.5925925925926 31.322751322751326,152.5925925925926 31.95767195767196,152.8042328042328 32.592592592592595,152.8042328042328 33.22751322751323,152.8042328042328 33.86243386243387,152.8042328042328 34.4973544973545,152.5925925925926 35.13227513227513,152.8042328042328 35.76719576719577,152.8042328042328 36.402116402116405,152.8042328042328 37.03703703703704,152.8042328042328 37.67195767195768,152.5925925925926 38.30687830687831,152.5925925925926 38.94179894179894,152.38095238095238 39.57671957671958,152.38095238095238 40.0,151.95767195767198 40.63492063492064,151.95767195767198 41.26984126984127,151.53439153439155 41.904761904761905,151.32275132275134 42.32804232804233,150.8994708994709 42.75132275132275,150.47619047619048 43.17460317460318,150.05291005291005 43.5978835978836,149.41798941798942 44.021164021164026,148.78306878306879 44.232804232804234,148.14814814814815 44.44444444444445,147.51322751322752 44.44444444444445,146.8783068783069 44.65608465608466,146.24338624338625 44.44444444444445,145.60846560846562 44.44444444444445,144.973544973545 44.232804232804234,144.33862433862436 44.021164021164026,143.70370370370372 43.80952380952381,143.0687830687831 43.386243386243386,142.64550264550266 42.96296296296297,142.22222222222223 42.75132275132275,141.5873015873016 42.32804232804233,141.16402116402116 41.904761904761905,140.52910052910053 41.48148148148149,139.8941798941799 41.058201058201064,139.25925925925927 40.63492063492064,138.62433862433863 40.211640211640216,137.989417989418 39.78835978835979,137.56613756613757 39.36507936507937,136.93121693121694 38.94179894179894,136.5079365079365 38.51851851851852,135.87301587301587 38.095238095238095,135.44973544973547 37.67195767195768,135.02645502645504 37.248677248677254,134.3915343915344 36.82539682539683,133.96825396825398 36.402116402116405,133.54497354497354 35.97883597883598,133.12169312169314 35.55555555555556,132.6984126984127 35.13227513227513,132.27513227513228 34.70899470899471,131.85185185185185 34.28571428571429,131.42857142857144 33.86243386243387,131.005291005291 33.43915343915344,130.58201058201058 33.01587301587302,130.15873015873018 32.592592592592595,129.73544973544975 32.16931216931217,129.31216931216932 31.746031746031747,128.88888888888889 31.322751322751326,128.46560846560848 30.899470899470902,128.04232804232805 30.476190476190478,127.61904761904763 30.052910052910054,127.1957671957672 29.629629629629633,126.56084656084657 29.20634920634921,126.13756613756615 28.571428571428573,125.71428571428572 28.14814814814815,125.2910052910053 27.513227513227516,124.86772486772487 26.87830687830688,124.44444444444446 26.455026455026456,124.02116402116403 26.031746031746035,123.59788359788361 25.3968253968254,123.17460317460318 24.973544973544975,122.75132275132276 24.55026455026455,122.11640211640213 24.12698412698413,121.6931216931217 23.703703703703706,121.26984126984128 23.280423280423282,120.84656084656086 22.857142857142858,120.42328042328043 22.433862433862437,120.00000000000001 22.010582010582013,119.57671957671958 21.58730158730159,119.15343915343917 21.164021164021165,118.73015873015873 20.740740740740744,118.30687830687832 20.31746031746032,117.88359788359789 19.682539682539684,117.46031746031747 19.25925925925926,117.03703703703705 18.83597883597884,116.61375661375662 18.412698412698415,116.1904761904762 17.98941798941799,115.76719576719577 17.566137566137566,115.34391534391536 17.142857142857146,114.92063492063492 16.71957671957672,114.49735449735451 16.296296296296298,114.07407407407408 15.661375661375663,113.65079365079366 15.238095238095239,113.22751322751324 14.814814814814817,112.80423280423281 14.391534391534393,112.16931216931218 13.96825396825397,111.74603174603176 13.544973544973546,111.32275132275133 13.121693121693122,110.89947089947091 12.6984126984127,110.47619047619048 12.275132275132275,110.05291005291006 11.851851851851853,109.62962962962963 11.428571428571429,109.20634920634922 11.005291005291006,108.78306878306879 10.582010582010582,108.35978835978837 10.15873015873016,107.93650793650795 9.735449735449736,107.51322751322752 9.100529100529101,107.0899470899471 8.677248677248677,106.45502645502647 8.253968253968255,106.03174603174604 7.830687830687832,105.60846560846562 7.407407407407408,105.18518518518519 6.984126984126985,104.76190476190477 6.560846560846561,104.33862433862434 6.137566137566138,103.91534391534393 5.714285714285714,103.4920634920635 5.291005291005291,103.06878306878308 4.867724867724868,102.64550264550266 4.444444444444445,102.22222222222223 4.021164021164021,101.79894179894181 3.597883597883598,101.37566137566138 3.174603174603175,100.95238095238096 2.7513227513227516,100.52910052910053 2.3280423280423284,100.10582010582011 0.21164021164021166,97.989417989418" style="fill:none; stroke:#3300bb; stroke-width:1.0"  /><circle cx="0.21164021164021166" cy="97.989417989418" r="2.0" style="fill:none; stroke:#000000aa; stroke-width:0.25" /><circle cx="104.97354497354497" cy="-0.634920634920635" r="2.0" style="fill:none; stroke:#000000aa; stroke-width:0.25" /><circle cx="219.6825396825397" cy="156.82539682539684" r="2.0" style="fill:none; stroke:#000000aa; stroke-width:0.25" /><circle cx="122.32804232804234" cy="234.0740740740741" r="2.0" style="fill:none; stroke:#000000aa; stroke-width:0.25" /><circle cx="0.21164021164021166" cy="97.56613756613757" r="2.0" style="fill:none; stroke:#ff3366aa; stroke-width:0.25" /><circle cx="104.97354497354497" cy="0.21164021164021166" r="2.0" style="fill:none; stroke:#ff3366aa; stroke-width:0.25" /><circle cx="219.25925925925927" cy="156.82539682539684" r="2.0" style="fill:none; stroke:#ff3366aa; stroke-width:0.25" /><circle cx="122.32804232804234" cy="234.0740740740741" r="2.0" style="fill:none; stroke:#ff3366aa; stroke-width:0.25" /><polyline points="4.444444444444445,86.77248677248677 4.2328042328042335,87.40740740740742 4.021164021164021,88.04232804232805 3.8095238095238098,88.67724867724868 3.597883597883598,89.31216931216932 3.174603174603175,89.94708994708995 3.174603174603175,90.58201058201058 2.7513227513227516,91.21693121693123 2.53968253968254,91.85185185185186 2.1164021164021167,92.4867724867725 1.9047619047619049,93.12169312169313 1.6931216931216932,93.75661375661376 1.4814814814814816,94.39153439153439" style="fill:none; stroke:#001100; stroke-width:1.0" /><polyline points="8.253968253968255,106.03174603174604 7.830687830687832,105.60846560846562 7.407407407407408,105.18518518518519 6.984126984126985,104.76190476190477 6.560846560846561,104.33862433862434 6.137566137566138,103.91534391534393 5.714285714285714,103.4920634920635 5.291005291005291,103.06878306878308 4.867724867724868,102.64550264550266 4.444444444444445,102.22222222222223 4.021164021164021,101.79894179894181 3.597883597883598,101.37566137566138 3.174603174603175,100.95238095238096 2.7513227513227516,100.52910052910053 2.3280423280423284,100.10582010582011" style="fill:none; stroke:#000011; stroke-width:1.0" /><polyline points="110.6878306878307,10.793650793650794 110.47619047619048,10.15873015873016 110.26455026455027,9.523809523809524 109.84126984126985,9.100529100529101 109.62962962962963,8.465608465608467 109.20634920634922,7.830687830687832 108.994708994709,7.195767195767196 108.57142857142858,6.560846560846561 108.35978835978837,5.9259259259259265 108.14814814814815,5.291005291005291 107.93650793650795,4.656084656084657 107.51322751322752,4.2328042328042335 107.3015873015873,3.597883597883598 106.87830687830689,2.9629629629629632" style="fill:none; stroke:#001100; stroke-width:1.0" /><polyline points="94.17989417989419,4.444444444444445 94.81481481481482,4.021164021164021 95.44973544973546,3.8095238095238098 96.08465608465609,3.597883597883598 96.71957671957672,3.174603174603175 97.35449735449737,2.7513227513227516 97.989417989418,2.3280423280423284 98.62433862433863,2.1164021164021167 99.25925925925927,1.9047619047619049 99.8941798941799,1.4814814814814816 100.52910052910053,1.26984126984127 101.16402116402116,1.0582010582010584 101.79894179894181,0.8465608465608466" style="fill:none; stroke:#000011; stroke-width:1.0" /><polyline points="210.15873015873018,164.44444444444446 210.7936507936508,164.02116402116403 211.21693121693124,163.59788359788362 211.64021164021165,163.1746031746032 212.27513227513228,162.75132275132276 212.6984126984127,162.32804232804233 213.12169312169314,161.90476190476193 213.75661375661377,161.4814814814815 214.1798941798942,161.05820105820106 214.81481481481484,160.63492063492066 215.44973544973547,160.21164021164023 215.8730158730159,159.7883597883598 216.2962962962963,159.36507936507937 216.93121693121694,158.94179894179896" style="fill:none; stroke:#001100; stroke-width:1.0" /><polyline points="212.06349206349208,147.51322751322752 212.4867724867725,147.93650793650795 212.91005291005294,148.57142857142858 213.33333333333334,149.20634920634922 213.75661375661377,149.62962962962965 214.1798941798942,150.26455026455028 214.6031746031746,150.6878306878307 215.02645502645504,151.32275132275134 215.44973544973547,151.95767195767198 215.8730158730159,152.38095238095238 216.2962962962963,152.8042328042328 216.71957671957674,153.43915343915344 217.14285714285717,153.86243386243387 217.56613756613757,154.2857142857143" style="fill:none; stroke:#000011; stroke-width:1.0" /><polyline points="116.61375661375662,223.70370370370372 116.82539682539684,224.33862433862436 117.24867724867725,224.973544973545 117.67195767195768,225.39682539682542 117.88359788359789,226.03174603174605 118.30687830687832,226.66666666666669 118.51851851851853,227.30158730158732 118.94179894179895,227.93650793650795 119.36507936507937,228.57142857142858 119.57671957671958,229.20634920634922 120.00000000000001,229.84126984126985 120.42328042328043,230.47619047619048 120.63492063492065,231.11111111111114" style="fill:none; stroke:#001100; stroke-width:1.0" /><polyline points="132.4867724867725,227.72486772486775 131.85185185185185,228.14814814814815 131.21693121693121,228.57142857142858 130.58201058201058,228.99470899470901 129.94708994708995,229.20634920634922 129.31216931216932,229.62962962962965 128.67724867724868,230.05291005291008 128.04232804232805,230.47619047619048 127.40740740740742,230.8994708994709 126.77248677248679,231.32275132275134 126.13756613756615,231.74603174603178 125.71428571428572,232.16931216931218 125.07936507936509,232.3809523809524" style="fill:none; stroke:#000011; stroke-width:1.0" /><polyline points="1.4814814814814816,94.39153439153439 -6.137566137566138,114.07407407407408" style="fill:none; stroke:#ffaa00; stroke-width:0.4" /><polyline points="2.3280423280423284,100.10582010582011 -12.6984126984127,85.07936507936509" style="fill:none; stroke:#aaff00; stroke-width:0.4" /><polyline points="106.87830687830689,2.9629629629629632 97.56613756613757,-16.084656084656086" style="fill:none; stroke:#ffaa00; stroke-width:0.4" /><polyline points="101.79894179894181,0.8465608465608466 120.84656084656086,-8.253968253968255" style="fill:none; stroke:#aaff00; stroke-width:0.4" /><polyline points="216.93121693121694,158.94179894179896 233.43915343915344,145.60846560846562" style="fill:none; stroke:#ffaa00; stroke-width:0.4" /><polyline points="217.56613756613757,154.2857142857143 230.8994708994709,170.7936507936508" style="fill:none; stroke:#aaff00; stroke-width:0.4" /><polyline points="120.63492063492065,231.11111111111114 130.7936507936508,249.73544973544975" style="fill:none; stroke:#ffaa00; stroke-width:0.4" /><polyline points="125.07936507936509,232.3809523809524 107.0899470899471,243.59788359788362" style="fill:none; stroke:#aaff00; stroke-width:0.4" /><circle cx="109.41798941798943" cy="119.7883597883598" r="1.0" style="fill:#444444; stroke-width:0" /><circle cx="104.97354497354497" cy="121.90476190476191" r="10.582010582010582" style="fill:#ff770022; stroke-width:0" /><circle cx="104.97354497354497" cy="121.90476190476191" r="1.0" style="fill:#ff7700; stroke-width:0" /></svg>