<?xml version="1.0" encoding="UTF-8" standalone="no"?><svg width="593.015873015873" height="546.031746031746" viewBox="-10 -10 217.6719576719577 202.01058201058203" xmlns="http://www.w3.org/2000/svg" xmlns:xlink="http://www.w3.org/1999/xlink"><polyline points="32.804232804232804,21.164021164021165 35.55555555555556,21.58730158730159 36.19047619047619,21.58730158730159 36.82539682539683,21.58730158730159 37.46031746031746,21.7989417989418 38.095238095238095,21.7989417989418 38.730158730158735,22.010582010582013 39.36507936507937,22.222222222222225 40.0,22.433862433862437 40.63492063492064,22.433862433862437 41.26984126984127,22.433862433862437 41.904761904761905,22.433862433862437 42.539682539682545,22.857142857142858 43.17460317460318,22.857142857142858 43.80952380952381,23.06878306878307 44.44444444444445,23.06878306878307 45.07936507936508,23.280423280423282 45.714285714285715,23.280423280423282 46.349206349206355,23.492063492063494 46.98412698412699,23.492063492063494 47.61904761904762,23.703703703703706 48.25396825396826,23.915343915343918 48.88888888888889,23.915343915343918 49.523809523809526,24.12698412698413 50.158730158730165,24.338624338624342 50.7936507936508,24.55026455026455 51.42857142857143,24.55026455026455 52.06349206349207,24.761904761904763 52.6984126984127,24.973544973544975 53.333333333333336,24.973544973544975 53.968253968253975,25.185185185185187 54.60317460317461,25.3968253968254 55.23809523809524,25.3968253968254 55.87301587301588,25.820105820105823 56.50793650793651,25.820105820105823 57.142857142857146,26.031746031746035 57.777777777777786,26.243386243386244 58.41269841269842,26.455026455026456 59.04761904761905,26.666666666666668 59.682539682539684,26.87830687830688 60.31746031746032,26.87830687830688 60.952380952380956,27.089947089947092 61.58730158730159,27.301587301587304 62.22222222222223,27.513227513227516 62.85714285714286,27.724867724867728 63.492063492063494,27.93650793650794 64.12698412698413,27.93650793650794 64.76190476190477,28.14814814814815 65.3968253968254,28.35978835978836 65.82010582010582,28.783068783068785 66.45502645502646,28.783068783068785 67.08994708994709,28.783068783068785 67.72486772486774,29.20634920634921 68.35978835978837,29.41798941798942 68.994708994709,29.41798941798942 69.62962962962963,29.841269841269842 70.26455026455027,30.052910052910054 70.8994708994709,30.264550264550266 71.53439153439155,30.476190476190478 72.16931216931218,30.68783068783069 72.80423280423281,30.899470899470902 73.43915343915344,31.111111111111114 74.07407407407408,31.322751322751326 74.70899470899471,31.53439153439154 75.34391534391536,31.95767195767196 75.97883597883599,31.95767195767196 76.61375661375662,32.38095238095239 77.24867724867725,32.592592592592595 77.88359788359789,32.804232804232804 78.51851851851852,33.22751322751323 78.94179894179895,33.65079365079365 79.57671957671958,34.074074074074076 80.21164021164022,34.4973544973545 80.84656084656085,34.70899470899471 81.48148148148148,34.920634920634924 81.90476190476191,35.34391534391535 82.53968253968254,35.55555555555556 83.17460317460318,35.76719576719577 83.80952380952381,36.19047619047619 84.44444444444446,36.19047619047619 84.86772486772487,36.613756613756614 85.5026455026455,36.82539682539683 86.13756613756614,36.82539682539683 86.77248677248677,37.03703703703704 87.40740740740742,37.248677248677254 88.04232804232805,37.46031746031746 88.67724867724868,37.46031746031746 89.31216931216932,37.67195767195768 89.94708994708995,37.883597883597886 90.58201058201058,37.883597883597886 91.21693121693123,37.883597883597886 91.85185185185186,37.883597883597886 92.4867724867725,37.883597883597886 93.12169312169313,37.883597883597886 93.75661375661376,37.883597883597886 94.39153439153439,37.883597883597886 95.02645502645504,37.883597883597886 95.66137566137567,37.67195767195768 96.2962962962963,37.67195767195768 96.93121693121694,37.46031746031746 97.56613756613757,37.46031746031746 98.2010582010582,37.248677248677254 98.83597883597885,37.03703703703704 99.47089947089948,36.613756613756614 100.10582010582011,36.19047619047619 100.74074074074075,35.76719576719577 101.16402116402116,35.34391534391535 101.5873015873016,34.70899470899471 101.79894179894181,34.074074074074076 102.22222222222223,33.43915343915344 102.43386243386244,32.804232804232804 102.43386243386244,32.16931216931217 102.64550264550266,31.53439153439154 102.64550264550266,30.899470899470902 102.64550264550266,30.264550264550266 102.43386243386244,29.629629629629633 102.43386243386244,28.994708994708997 102.43386243386244,28.35978835978836 102.22222222222223,27.724867724867728 102.01058201058201,27.089947089947092 102.01058201058201,26.455026455026456 101.79894179894181,25.820105820105823 101.5873015873016,25.185185185185187 101.37566137566138,24.55026455026455 101.16402116402116,23.915343915343918 100.95238095238096,23.280423280423282 100.95238095238096,22.645502645502646 100.74074074074075,22.010582010582013 100.52910052910053,21.375661375661377 100.31746031746033,20.740740740740744 100.31746031746033,20.105820105820108 100.10582010582011,19.47089947089947 99.8941798941799,18.83597883597884 99.8941798941799,18.201058201058203 99.68253968253968,17.566137566137566 99.68253968253968,16.931216931216934 99.47089947089948,16.296296296296298 99.47089947089948,15.661375661375663 99.47089947089948,15.026455026455027 99.25925925925927,14.391534391534393 99.25925925925927,13.756613756613758 99.47089947089948,13.121693121693122 99.47089947089948,12.486772486772487 99.47089947089948,11.851851851851853 99.47089947089948,11.216931216931219 99.68253968253968,10.582010582010582 99.68253968253968,9.947089947089948 99.8941798941799,9.312169312169313 100.10582010582011,8.677248677248677 100.31746031746033,8.042328042328043 100.31746031746033,7.407407407407408 100.52910052910053,6.772486772486773 100.74074074074075,6.137566137566138 101.16402116402116,5.502645502645503 101.37566137566138,4.867724867724868 101.79894179894181,4.2328042328042335 102.22222222222223,3.597883597883598 102.64550264550266,3.174603174603175 103.06878306878308,2.7513227513227516 103.4920634920635,2.3280423280423284 104.12698412698414,1.9047619047619049 104.76190476190477,1.6931216931216932 105.3968253968254,1.26984126984127 106.03174603174604,1.0582010582010584 106.66666666666667,0.8465608465608466 107.3015873015873,0.8465608465608466 107.93650793650795,0.634920634920635 108.57142857142858,0.634920634920635 109.20634920634922,0.4232804232804233 109.84126984126985,0.4232804232804233 110.47619047619048,0.4232804232804233 111.11111111111111,0.21164021164021166 111.74603174603176,0.21164021164021166 112.3809523809524,0.21164021164021166 113.01587301587303,0.21164021164021166 113.65079365079366,0.21164021164021166 114.28571428571429,0.4232804232804233 114.92063492063492,0.4232804232804233 115.55555555555557,0.4232804232804233 116.1904761904762,0.4232804232804233 116.82539682539684,0.4232804232804233 117.46031746031747,0.634920634920635 118.0952380952381,0.634920634920635 118.73015873015873,0.8465608465608466 119.36507936507937,0.8465608465608466 120.00000000000001,0.8465608465608466 120.63492063492065,1.26984126984127 121.26984126984128,1.26984126984127 121.90476190476191,1.4814814814814816 122.53968253968254,1.6931216931216932 123.17460317460318,1.6931216931216932 123.80952380952382,1.9047619047619049 124.44444444444446,2.1164021164021167 125.07936507936509,2.3280423280423284 125.71428571428572,2.53968253968254 126.34920634920636,2.9629629629629632 126.98412698412699,3.174603174603175 127.61904761904763,3.3862433862433865 128.25396825396825,3.8095238095238098 128.88888888888889,4.2328042328042335 129.52380952380955,4.444444444444445 130.15873015873018,4.867724867724868 130.7936507936508,5.291005291005291 131.42857142857144,5.714285714285714 131.85185185185185,6.137566137566138 132.4867724867725,6.560846560846561 132.9100529100529,6.984126984126985 133.33333333333334,7.407407407407408 133.96825396825398,7.830687830687832 134.3915343915344,8.253968253968255 134.81481481481484,8.677248677248677 135.23809523809524,9.312169312169313 135.44973544973547,9.947089947089948 135.87301587301587,10.370370370370372 136.0846560846561,11.005291005291006 136.2962962962963,11.640211640211641 136.5079365079365,12.275132275132275 136.71957671957674,12.910052910052912 136.71957671957674,13.544973544973546 136.71957671957674,14.17989417989418 136.5079365079365,14.814814814814817 136.5079365079365,15.449735449735451 136.5079365079365,16.084656084656086 136.2962962962963,16.71957671957672 136.2962962962963,17.354497354497354 136.0846560846561,17.98941798941799 135.87301587301587,18.624338624338627 135.66137566137567,19.25925925925926 135.44973544973547,19.894179894179896 135.02645502645504,20.529100529100532 134.81481481481484,21.164021164021165 134.3915343915344,21.7989417989418 133.96825396825398,22.433862433862437 133.54497354497354,23.06878306878307 133.33333333333334,23.703703703703706 132.9100529100529,24.338624338624342 132.4867724867725,24.973544973544975 132.06349206349208,25.60846560846561 131.64021164021165,26.243386243386244 131.21693121693121,26.87830687830688 130.7936507936508,27.301587301587304 130.37037037037038,27.93650793650794 129.94708994708995,28.35978835978836 129.52380952380955,28.994708994708997 129.10052910052912,29.629629629629633 128.67724867724868,30.264550264550266 128.25396825396825,30.899470899470902 127.83068783068784,31.322751322751326 127.61904761904763,31.95767195767196 127.1957671957672,32.592592592592595 126.98412698412699,33.22751322751323 126.77248677248679,33.86243386243387 126.56084656084657,34.4973544973545 126.34920634920636,35.13227513227513 126.13756613756615,35.76719576719577 126.13756613756615,36.402116402116405 126.34920634920636,37.03703703703704 126.34920634920636,37.67195767195768 126.56084656084657,38.30687830687831 126.77248677248679,38.94179894179894 126.98412698412699,39.57671957671958 127.40740740740742,40.211640211640216 127.83068783068784,40.84656084656085 128.46560846560848,41.26984126984127 128.88888888888889,41.6931216931217 129.31216931216932,42.11640211640212 129.94708994708995,42.539682539682545 130.58201058201058,42.75132275132275 131.21693121693121,42.96296296296297 131.64021164021165,43.386243386243386 132.27513227513228,43.5978835978836 132.9100529100529,43.5978835978836 133.54497354497354,44.021164021164026 134.17989417989418,44.021164021164026 134.81481481481484,44.021164021164026 135.23809523809524,44.44444444444445 135.87301587301587,44.44444444444445 136.5079365079365,44.65608465608466 137.14285714285717,44.44444444444445 137.7777777777778,44.65608465608466 138.41269841269843,44.65608465608466 139.04761904761907,44.867724867724874 139.6825396825397,45.07936507936508 140.31746031746033,45.07936507936508 140.95238095238096,45.29100529100529 141.5873015873016,45.29100529100529 142.22222222222223,45.50264550264551 142.85714285714286,45.50264550264551 143.4920634920635,45.50264550264551 144.12698412698413,45.92592592592593 144.76190476190476,45.92592592592593 145.39682539682542,45.92592592592593 146.03174603174605,45.92592592592593 146.66666666666669,45.92592592592593 147.30158730158732,46.349206349206355 147.93650793650795,46.349206349206355 148.57142857142858,46.13756613756614 149.20634920634922,46.13756613756614 149.84126984126985,46.349206349206355 150.47619047619048,46.349206349206355 151.11111111111111,46.560846560846564 151.74603174603175,46.560846560846564 152.38095238095238,46.560846560846564 153.01587301587304,46.560846560846564 153.65079365079367,46.77248677248678 154.2857142857143,46.77248677248678 154.7089947089947,47.195767195767196 155.34391534391534,47.195767195767196 155.978835978836,47.195767195767196 156.61375661375664,47.40740740740741 157.24867724867727,47.195767195767196 157.8835978835979,47.40740740740741 158.51851851851853,47.195767195767196 158.94179894179896,47.61904761904762 160.0,47.40740740740741 160.63492063492066,47.61904761904762 161.2698412698413,47.61904761904762 161.90476190476193,47.61904761904762 162.53968253968256,47.61904761904762 163.1746031746032,47.830687830687836 163.80952380952382,47.61904761904762 164.44444444444446,47.61904761904762 165.0793650793651,47.61904761904762 165.71428571428572,47.61904761904762 166.34920634920636,47.61904761904762 166.984126984127,47.830687830687836 167.61904761904762,47.61904761904762 168.25396825396825,47.830687830687836 168.8888888888889,47.830687830687836 169.52380952380955,47.830687830687836 170.15873015873018,47.830687830687836 170.7936507936508,47.61904761904762 173.75661375661377,47.830687830687836" style="fill:none; stroke:#cc0000; stroke-width:1.0"  /><polyline points="173.75661375661377,47.830687830687836 172.4867724867725,50.58201058201058 172.06349206349208,51.21693121693122 171.64021164021165,51.851851851851855 171.42857142857144,52.48677248677249 171.21693121693124,53.12169312169313 171.005291005291,53.75661375661376 170.58201058201058,54.39153439153439 170.37037037037038,55.02645502645503 169.94708994708995,55.661375661375665 169.73544973544975,56.2962962962963 169.52380952380955,56.93121693121694 169.31216931216932,57.56613756613757 168.8888888888889,58.2010582010582 168.67724867724868,58.83597883597884 168.46560846560848,59.470899470899475 168.25396825396825,60.10582010582011 167.83068783068785,60.74074074074075 167.61904761904762,61.37566137566138 167.40740740740742,62.01058201058201 167.19576719576722,62.64550264550265 166.984126984127,63.280423280423285 166.56084656084658,63.91534391534392 166.34920634920636,64.55026455026456 166.13756613756615,65.18518518518519 165.92592592592595,65.82010582010582 165.71428571428572,66.45502645502646 165.50264550264552,67.08994708994709 165.2910052910053,67.72486772486774 165.0793650793651,68.35978835978837 164.8677248677249,68.994708994709 164.65608465608466,69.62962962962963 164.44444444444446,70.26455026455027 164.23280423280426,70.8994708994709 164.02116402116403,71.53439153439155 163.80952380952382,72.16931216931218 163.59788359788362,72.80423280423281 163.3862433862434,73.43915343915344 163.1746031746032,74.07407407407408 163.1746031746032,74.70899470899471 162.96296296296296,75.34391534391536 162.96296296296296,75.97883597883599 162.75132275132276,76.61375661375662 162.75132275132276,77.24867724867725 162.75132275132276,77.88359788359789 162.75132275132276,78.51851851851852 162.53968253968256,79.15343915343917 162.53968253968256,79.7883597883598 162.53968253968256,80.42328042328043 162.53968253968256,81.05820105820106 162.32804232804233,81.6931216931217 162.32804232804233,82.32804232804233 162.32804232804233,82.96296296296298 162.53968253968256,83.59788359788361 162.53968253968256,84.23280423280424 162.53968253968256,84.86772486772487 162.75132275132276,85.5026455026455 162.96296296296296,86.13756613756614 163.1746031746032,86.77248677248677 163.59788359788362,87.40740740740742 164.02116402116403,87.83068783068784 164.44444444444446,88.46560846560847 165.0793650793651,89.31216931216932 165.71428571428572,89.73544973544975 166.13756613756615,90.15873015873017 166.7724867724868,90.58201058201058 167.40740740740742,90.7936507936508 168.04232804232805,90.7936507936508 168.67724867724868,91.00529100529101 169.31216931216932,91.00529100529101 169.94708994708995,91.00529100529101 170.58201058201058,91.21693121693123 171.21693121693124,91.21693121693123 171.85185185185188,90.7936507936508 172.4867724867725,90.7936507936508 173.12169312169314,90.7936507936508 173.75661375661377,90.58201058201058 174.3915343915344,90.37037037037038 175.02645502645504,90.15873015873017 175.66137566137567,89.94708994708995 176.2962962962963,89.73544973544975 176.71957671957674,89.31216931216932 177.35449735449737,89.1005291005291 177.989417989418,88.67724867724868 178.62433862433863,88.25396825396827 179.25925925925927,87.83068783068784 179.8941798941799,87.40740740740742 180.52910052910053,86.98412698412699 181.16402116402116,86.56084656084657 181.79894179894183,86.13756613756614 182.43386243386246,85.92592592592594 183.0687830687831,85.5026455026455 183.70370370370372,85.29100529100529 184.33862433862436,85.07936507936509 184.973544973545,84.86772486772487 185.60846560846562,84.86772486772487 186.24338624338625,84.65608465608466 186.8783068783069,84.65608465608466 187.51322751322752,84.65608465608466 188.14814814814815,84.86772486772487 188.78306878306879,84.86772486772487 189.41798941798945,84.86772486772487 190.05291005291008,85.07936507936509 190.6878306878307,85.29100529100529 191.32275132275134,85.5026455026455 191.95767195767198,85.92592592592594 192.3809523809524,86.34920634920636 193.01587301587304,86.77248677248677 193.43915343915344,87.1957671957672 193.86243386243387,87.61904761904762 194.2857142857143,88.25396825396827 194.70899470899474,88.8888888888889 195.13227513227514,89.52380952380953 195.34391534391537,90.15873015873017 195.55555555555557,90.7936507936508 195.76719576719577,91.42857142857143 195.978835978836,92.06349206349208 195.978835978836,92.69841269841271 196.1904761904762,93.33333333333334 196.1904761904762,93.96825396825398 196.4021164021164,94.60317460317461 196.61375661375664,95.23809523809524 196.61375661375664,95.87301587301587 196.82539682539684,96.50793650793652 196.82539682539684,97.14285714285715 197.03703703703704,97.77777777777779 197.03703703703704,98.41269841269842 197.03703703703704,99.04761904761905 197.03703703703704,99.68253968253968 197.03703703703704,100.31746031746033 197.24867724867727,100.95238095238096 197.24867724867727,101.5873015873016 197.03703703703704,102.22222222222223 197.03703703703704,102.85714285714286 197.03703703703704,103.4920634920635 197.03703703703704,104.12698412698414 197.03703703703704,104.76190476190477 197.03703703703704,105.3968253968254 196.82539682539684,106.03174603174604 196.82539682539684,106.66666666666667 196.82539682539684,107.3015873015873 196.82539682539684,107.93650793650795 196.61375661375664,108.57142857142858 196.61375661375664,109.20634920634922 196.61375661375664,109.84126984126985 196.61375661375664,110.47619047619048 196.4021164021164,111.11111111111111 196.4021164021164,111.74603174603176 196.61375661375664,112.3809523809524 196.4021164021164,113.01587301587303 196.4021164021164,113.65079365079366 196.4021164021164,114.28571428571429 196.1904761904762,114.92063492063492 196.1904761904762,115.55555555555557 196.1904761904762,116.1904761904762 195.978835978836,116.82539682539684 195.978835978836,117.46031746031747 195.76719576719577,118.0952380952381 195.76719576719577,118.73015873015873 195.55555555555557,119.36507936507937 195.55555555555557,120.00000000000001 195.34391534391537,120.63492063492065 195.13227513227514,121.26984126984128 195.13227513227514,121.90476190476191 194.92063492063494,122.53968253968254 194.92063492063494,123.17460317460318 194.70899470899474,123.80952380952382 194.70899470899474,124.44444444444446 194.4973544973545,125.07936507936509 194.2857142857143,125.71428571428572 194.07407407407408,126.34920634920636 193.86243386243387,126.98412698412699 193.65079365079367,127.61904761904763 193.43915343915344,128.25396825396825 193.43915343915344,128.88888888888889 193.22751322751324,129.52380952380955 192.8042328042328,130.15873015873018 192.5925925925926,130.7936507936508 192.3809523809524,131.42857142857144 192.16931216931218,132.06349206349208 191.74603174603175,132.6984126984127 191.53439153439155,133.33333333333334 191.32275132275134,133.96825396825398 190.8994708994709,134.6031746031746 190.6878306878307,135.23809523809524 190.47619047619048,135.87301587301587 190.05291005291008,136.5079365079365 189.84126984126985,137.14285714285717 189.41798941798945,137.7777777777778 189.20634920634922,138.41269841269843 188.78306878306879,139.04761904761907 188.57142857142858,139.6825396825397 188.14814814814815,140.31746031746033 187.72486772486775,140.95238095238096 187.51322751322752,141.5873015873016 187.08994708994712,142.22222222222223 186.66666666666669,142.85714285714286 186.24338624338625,143.4920634920635 185.82010582010582,143.91534391534393 185.39682539682542,144.33862433862436 184.973544973545,144.76190476190476 184.55026455026456,145.1851851851852 183.91534391534393,145.39682539682542 183.2804232804233,145.60846560846562 182.64550264550266,145.82010582010582 182.01058201058203,145.82010582010582 181.3756613756614,145.82010582010582 180.74074074074076,145.60846560846562 180.10582010582013,145.60846560846562 179.4708994708995,145.39682539682542 178.83597883597884,145.1851851851852 178.2010582010582,144.76190476190476 177.56613756613757,144.55026455026456 177.14285714285717,144.12698412698413 176.71957671957674,143.70370370370372 176.0846560846561,143.2804232804233 175.66137566137567,142.85714285714286 175.23809523809524,142.43386243386246 174.81481481481484,141.7989417989418 174.3915343915344,141.3756613756614 173.96825396825398,140.74074074074076 173.75661375661377,140.10582010582013 173.33333333333334,139.47089947089947 173.12169312169314,138.83597883597884 172.6984126984127,138.2010582010582 172.4867724867725,137.56613756613757 172.06349206349208,136.93121693121694 171.64021164021165,136.5079365079365 171.21693121693124,136.0846560846561 170.7936507936508,135.66137566137567 170.37037037037038,135.23809523809524 169.94708994708995,134.81481481481484 169.31216931216932,134.3915343915344 168.8888888888889,133.96825396825398 168.25396825396825,133.75661375661377 167.83068783068785,133.33333333333334 167.19576719576722,133.12169312169314 166.56084656084658,132.6984126984127 165.92592592592595,132.4867724867725 165.2910052910053,132.27513227513228 164.65608465608466,132.06349206349208 164.02116402116403,132.06349206349208 163.3862433862434,132.06349206349208 162.75132275132276,132.06349206349208 162.11640211640213,131.85185185185185 161.4814814814815,132.27513227513228 160.84656084656086,132.4867724867725 160.21164021164023,132.6984126984127 159.5767195767196,133.12169312169314 158.94179894179896,133.54497354497354 158.51851851851853,133.96825396825398 157.8835978835979,134.3915343915344 157.46031746031747,135.02645502645504 157.03703703703704,135.44973544973547 156.61375661375664,135.87301587301587 156.4021164021164,136.5079365079365 155.978835978836,136.93121693121694 155.55555555555557,137.56613756613757 155.13227513227514,138.2010582010582 154.92063492063494,138.83597883597884 154.7089947089947,139.47089947089947 154.2857142857143,140.10582010582013 154.07407407407408,140.74074074074076 153.86243386243387,141.3756613756614 153.65079365079367,142.01058201058203 153.43915343915344,142.64550264550266 153.22751322751324,143.2804232804233 153.22751322751324,143.91534391534393 153.01587301587304,144.55026455026456 152.8042328042328,145.1851851851852 152.5925925925926,145.82010582010582 152.38095238095238,146.45502645502646 152.16931216931218,147.0899470899471 152.16931216931218,147.72486772486775 151.74603174603175,148.35978835978838 151.53439153439155,148.99470899470901 151.32275132275134,149.62962962962965 150.8994708994709,150.26455026455028 150.6878306878307,150.8994708994709 150.47619047619048,151.53439153439155 150.26455026455028,152.16931216931218 150.05291005291005,152.8042328042328 149.84126984126985,153.43915343915344 149.62962962962965,154.07407407407408 149.62962962962965,154.7089947089947 149.41798941798942,155.34391534391534 149.20634920634922,155.978835978836 148.99470899470901,156.61375661375664 148.99470899470901,157.24867724867727 148.78306878306879,157.8835978835979 148.57142857142858,158.51851851851853 148.35978835978838,159.15343915343917 148.35978835978838,159.7883597883598 148.14814814814815,160.42328042328043 147.93650793650795,161.05820105820106 147.72486772486775,161.6931216931217 147.72486772486775,162.32804232804233 147.51322751322752,162.96296296296296 147.51322751322752,163.59788359788362 147.30158730158732,164.23280423280426 147.30158730158732,164.8677248677249 147.0899470899471,165.50264550264552 147.0899470899471,166.13756613756615 146.8783068783069,166.7724867724868 146.66666666666669,167.40740740740742 146.66666666666669,168.04232804232805 146.45502645502646,168.67724867724868 146.45502645502646,169.31216931216932 146.45502645502646,169.94708994708995 146.24338624338625,170.58201058201058 146.24338624338625,171.21693121693124 146.03174603174605,171.85185185185188 146.03174603174605,172.4867724867725 146.03174603174605,173.12169312169314 145.82010582010582,173.75661375661377 145.82010582010582,174.3915343915344 145.82010582010582,175.02645502645504 145.82010582010582,175.66137566137567 145.82010582010582,176.2962962962963 145.82010582010582,176.93121693121694 145.82010582010582,177.56613756613757 145.82010582010582,178.2010582010582 145.60846560846562,182.01058201058203" style="fill:none; stroke:#999900; stroke-width:1.0"  /><polyline points="145.60846560846562,182.01058201058203 142.22222222222223,181.3756613756614 141.5873015873016,181.3756613756614 140.95238095238096,181.16402116402116 140.31746031746033,181.16402116402116 139.6825396825397,180.95238095238096 139.04761904761907,180.74074074074076 138.41269841269843,180.74074074074076 137.7777777777778,180.52910052910053 137.14285714285717,180.52910052910053 136.5079365079365,180.52910052910053 135.87301587301587,180.31746031746033 135.23809523809524,180.31746031746033 134.6031746031746,180.10582010582013 133.96825396825398,179.8941798941799 133.33333333333334,179.8941798941799 132.6984126984127,179.6825396825397 132.06349206349208,179.4708994708995 131.42857142857144,179.25925925925927 130.7936507936508,179.25925925925927 130.15873015873018,179.04761904761907 129.52380952380955,178.83597883597884 128.88888888888889,178.62433862433863 128.25396825396825,178.62433862433863 127.61904761904763,178.41269841269843 126.98412698412699,178.2010582010582 126.34920634920636,177.989417989418 125.71428571428572,177.7777777777778 125.07936507936509,177.56613756613757 124.44444444444446,177.35449735449737 123.80952380952382,177.14285714285717 123.17460317460318,176.93121693121694 122.53968253968254,176.71957671957674 121.90476190476191,176.50793650793653 121.26984126984128,176.2962962962963 120.63492063492065,176.0846560846561 120.00000000000001,175.87301587301587 119.36507936507937,175.44973544973547 118.73015873015873,175.23809523809524 118.0952380952381,175.02645502645504 117.46031746031747,174.81481481481484 116.82539682539684,174.6031746031746 116.1904761904762,174.1798941798942 115.55555555555557,173.96825396825398 114.92063492063492,173.75661375661377 114.49735449735451,173.33333333333334 113.86243386243387,173.12169312169314 113.22751322751324,172.9100529100529 112.5925925925926,172.4867724867725 111.95767195767196,172.27513227513228 111.32275132275133,171.85185185185188 110.6878306878307,171.64021164021165 110.05291005291006,171.21693121693124 109.41798941798943,170.7936507936508 108.78306878306879,170.37037037037038 108.14814814814815,170.15873015873018 107.72486772486774,169.73544973544975 107.0899470899471,169.31216931216932 106.45502645502647,168.8888888888889 106.03174603174604,168.46560846560848 105.60846560846562,168.04232804232805 105.18518518518519,167.61904761904762 104.76190476190477,167.19576719576722 104.33862433862434,166.56084656084658 104.12698412698414,165.92592592592595 103.70370370370371,165.2910052910053 103.70370370370371,164.65608465608466 103.70370370370371,164.02116402116403 103.70370370370371,163.3862433862434 103.70370370370371,162.75132275132276 103.91534391534393,162.11640211640213 104.12698412698414,161.4814814814815 104.55026455026456,160.84656084656086 104.97354497354497,160.21164021164023 105.18518518518519,159.5767195767196 105.60846560846562,159.15343915343917 106.03174603174604,158.51851851851853 106.45502645502647,157.8835978835979 106.87830687830689,157.46031746031747 107.3015873015873,157.03703703703704 107.72486772486774,156.4021164021164 108.14814814814815,155.978835978836 108.57142857142858,155.55555555555557 108.994708994709,155.13227513227514 109.41798941798943,154.7089947089947 109.84126984126985,154.2857142857143 110.26455026455027,153.65079365079367 110.6878306878307,153.22751322751324 111.11111111111111,152.8042328042328 111.53439153439155,152.38095238095238 111.95767195767196,151.74603174603175 112.3809523809524,151.32275132275134 112.80423280423281,150.6878306878307 113.22751322751324,150.05291005291005 113.65079365079366,149.41798941798942 114.07407407407408,148.78306878306879 114.28571428571429,148.14814814814815 114.70899470899472,147.51322751322752 114.70899470899472,146.8783068783069 114.92063492063492,146.24338624338625 115.13227513227514,145.60846560846562 115.13227513227514,144.973544973545 115.34391534391536,144.33862433862436 115.34391534391536,143.70370370370372 115.13227513227514,143.0687830687831 115.13227513227514,142.43386243386246 114.92063492063492,141.7989417989418 114.70899470899472,141.16402116402116 114.49735449735451,140.52910052910053 114.28571428571429,139.8941798941799 113.86243386243387,139.25925925925927 113.43915343915344,138.62433862433863 113.01587301587303,138.2010582010582 112.5925925925926,137.56613756613757 112.16931216931218,137.14285714285717 111.53439153439155,136.71957671957674 111.11111111111111,136.2962962962963 110.47619047619048,135.87301587301587 109.84126984126985,135.44973544973547 109.20634920634922,135.02645502645504 108.57142857142858,134.81481481481484 108.14814814814815,134.3915343915344 107.51322751322752,134.17989417989418 106.87830687830689,133.75661375661377 106.24338624338625,133.54497354497354 105.60846560846562,133.12169312169314 104.97354497354497,132.9100529100529 104.33862433862434,132.6984126984127 103.70370370370371,132.4867724867725 103.06878306878308,132.27513227513228 102.43386243386244,132.06349206349208 101.79894179894181,132.06349206349208 101.16402116402116,131.85185185185185 100.52910052910053,131.85185185185185 99.8941798941799,131.64021164021165 99.25925925925927,131.64021164021165 98.62433862433863,131.64021164021165 97.989417989418,131.42857142857144 97.35449735449737,131.42857142857144 96.71957671957672,131.42857142857144 96.08465608465609,131.42857142857144 95.44973544973546,131.21693121693121 94.81481481481482,131.21693121693121 94.17989417989419,131.21693121693121 93.54497354497356,131.21693121693121 92.91005291005291,131.21693121693121 92.27513227513228,131.21693121693121 91.64021164021165,131.21693121693121 91.00529100529101,131.21693121693121 90.37037037037038,131.21693121693121 89.73544973544975,131.21693121693121 89.1005291005291,131.21693121693121 88.46560846560847,131.21693121693121 87.83068783068784,131.21693121693121 87.1957671957672,131.42857142857144 86.56084656084657,131.42857142857144 85.92592592592594,131.42857142857144 85.29100529100529,131.64021164021165 84.65608465608466,131.85185185185185 84.02116402116403,131.85185185185185 83.3862433862434,132.06349206349208 82.75132275132276,132.27513227513228 82.11640211640213,132.4867724867725 81.48148148148148,132.4867724867725 80.84656084656085,132.6984126984127 80.21164021164022,132.9100529100529 79.57671957671958,133.12169312169314 78.94179894179895,133.33333333333334 78.30687830687832,133.54497354497354 77.67195767195767,133.75661375661377 77.03703703703704,133.96825396825398 76.4021164021164,134.17989417989418 75.76719576719577,134.3915343915344 75.13227513227514,134.81481481481484 74.49735449735451,135.02645502645504 73.86243386243387,135.44973544973547 73.22751322751323,135.87301587301587 72.5925925925926,136.2962962962963 72.16931216931218,136.71957671957674 71.74603174603175,137.14285714285717 71.32275132275133,137.7777777777778 70.8994708994709,138.41269841269843 70.6878306878307,139.04761904761907 70.47619047619048,139.6825396825397 70.26455026455027,140.31746031746033 70.05291005291006,140.95238095238096 70.05291005291006,141.5873015873016 69.84126984126985,142.22222222222223 69.84126984126985,142.85714285714286 69.84126984126985,143.4920634920635 69.84126984126985,144.12698412698413 69.84126984126985,144.76190476190476 69.84126984126985,145.39682539682542 69.84126984126985,146.03174603174605 69.84126984126985,146.66666666666669 69.84126984126985,147.30158730158732 70.26455026455027,147.72486772486775 70.26455026455027,148.35978835978838 70.26455026455027,148.99470899470901 70.47619047619048,149.62962962962965 70.6878306878307,150.26455026455028 70.8994708994709,150.8994708994709 71.11111111111111,151.53439153439155 71.32275132275133,152.16931216931218 71.53439153439155,152.8042328042328 71.95767195767196,153.43915343915344 72.16931216931218,154.07407407407408 72.38095238095238,154.7089947089947 72.5925925925926,155.34391534391534 72.80423280423281,155.978835978836 73.22751322751323,156.4021164021164 73.43915343915344,157.03703703703704 73.86243386243387,157.46031746031747 74.07407407407408,158.0952380952381 74.49735449735451,158.73015873015873 74.92063492063492,159.36507936507937 75.34391534391536,160.0 75.55555555555556,160.63492063492066 75.97883597883599,161.2698412698413 76.19047619047619,161.90476190476193 76.4021164021164,162.53968253968256 76.61375661375662,163.1746031746032 76.82539682539684,163.80952380952382 77.03703703703704,164.44444444444446 77.03703703703704,165.0793650793651 77.24867724867725,165.71428571428572 77.24867724867725,166.34920634920636 77.24867724867725,166.984126984127 77.03703703703704,167.61904761904762 77.03703703703704,168.25396825396825 76.61375661375662,168.8888888888889 76.19047619047619,169.31216931216932 75.76719576719577,169.73544973544975 75.13227513227514,170.15873015873018 74.49735449735451,170.37037037037038 73.86243386243387,170.58201058201058 73.22751322751323,171.005291005291 72.5925925925926,171.21693121693124 71.95767195767196,171.21693121693124 71.32275132275133,171.42857142857144 70.6878306878307,171.42857142857144 70.05291005291006,171.42857142857144 69.41798941798942,171.42857142857144 68.78306878306879,171.42857142857144 68.14814814814815,171.42857142857144 67.51322751322752,171.42857142857144 66.87830687830689,171.64021164021165 66.24338624338625,171.64021164021165 65.60846560846561,171.42857142857144 64.97354497354497,171.42857142857144 64.33862433862434,171.21693121693124 63.70370370370371,171.21693121693124 63.06878306878308,171.005291005291 62.43386243386244,170.7936507936508 61.798941798941804,170.7936507936508 61.16402116402117,170.58201058201058 60.52910052910053,170.37037037037038 59.8941798941799,170.15873015873018 59.25925925925927,169.94708994708995 58.62433862433863,169.73544973544975 57.989417989417994,169.52380952380955 57.35449735449736,169.31216931216932 56.71957671957672,169.10052910052912 56.08465608465609,168.8888888888889 55.449735449735456,168.67724867724868 54.81481481481482,168.46560846560848 54.179894179894184,168.04232804232805 53.54497354497355,167.83068783068785 52.91005291005291,167.61904761904762 52.27513227513228,167.40740740740742 51.851851851851855,166.984126984127 51.21693121693122,166.7724867724868 50.58201058201058,166.56084656084658 49.94708994708995,166.34920634920636 49.31216931216932,165.92592592592595 48.677248677248684,165.71428571428572 48.042328042328045,165.50264550264552 47.40740740740741,165.0793650793651 46.77248677248678,164.8677248677249 46.13756613756614,164.65608465608466 45.50264550264551,164.44444444444446 44.867724867724874,164.02116402116403 44.232804232804234,163.80952380952382 43.5978835978836,163.3862433862434 42.96296296296297,163.1746031746032 42.32804232804233,162.96296296296296 41.6931216931217,162.75132275132276 41.26984126984127,162.32804232804233 40.63492063492064,162.11640211640213 40.0,161.90476190476193 39.36507936507937,161.6931216931217 38.730158730158735,161.2698412698413 38.095238095238095,161.05820105820106 37.46031746031746,160.63492063492066 36.82539682539683,160.42328042328043 36.19047619047619,160.21164021164023 35.55555555555556,159.7883597883598 34.920634920634924,159.5767195767196 34.28571428571429,159.15343915343917 33.65079365079365,158.94179894179896 33.01587301587302,158.51851851851853 32.38095238095239,158.30687830687833 31.746031746031747,158.0952380952381 31.111111111111114,157.8835978835979 30.476190476190478,157.67195767195767 29.841269841269842,157.24867724867727 29.20634920634921,157.03703703703704 28.571428571428573,156.61375661375664 27.93650793650794,156.4021164021164 27.301587301587304,155.978835978836 26.666666666666668,155.76719576719577 26.031746031746035,155.55555555555557 25.3968253968254,155.13227513227514 24.761904761904763,154.92063492063494 24.12698412698413,154.7089947089947 23.492063492063494,154.2857142857143 22.857142857142858,154.07407407407408 22.222222222222225,153.86243386243387 21.58730158730159,153.65079365079367 20.952380952380953,153.43915343915344 20.31746031746032,153.01587301587304 19.682539682539684,152.8042328042328 19.047619047619047,152.5925925925926 18.412698412698415,152.38095238095238 17.77777777777778,152.16931216931218 17.142857142857146,151.74603174603175 16.50793650793651,151.53439153439155 15.873015873015873,151.32275132275134 15.238095238095239,151.11111111111111 14.603174603174605,150.8994708994709 13.96825396825397,150.6878306878307 13.333333333333334,150.47619047619048 12.6984126984127,150.26455026455028 12.063492063492065,150.05291005291005 11.428571428571429,149.84126984126985 10.793650793650794,149.62962962962965 10.15873015873016,149.41798941798942 9.523809523809524,149.20634920634922 8.88888888888889,148.99470899470901 8.253968253968255,148.78306878306879 7.6190476190476195,148.57142857142858 6.984126984126985,148.35978835978838 6.34920634920635,148.14814814814815 5.714285714285714,147.93650793650795 5.07936507936508,147.72486772486775 4.444444444444445,147.72486772486775 3.8095238095238098,147.51322751322752 3.174603174603175,147.30158730158732 0.0,146.24338624338625" style="fill:none; stroke:#00aa99; stroke-width:1.0"  /><polyline points="0.0,146.24338624338625 0.634920634920635,142.85714285714286 0.8465608465608466,142.22222222222223 0.8465608465608466,141.5873015873016 1.0582010582010584,140.95238095238096 1.26984126984127,140.31746031746033 1.26984126984127,139.6825396825397 1.4814814814814816,139.04761904761907 1.4814814814814816,138.41269841269843 1.6931216931216932,137.7777777777778 1.9047619047619049,137.14285714285717 1.9047619047619049,136.5079365079365 1.9047619047619049,135.87301587301587 2.1164021164021167,135.23809523809524 2.3280423280423284,134.6031746031746 2.3280423280423284,133.96825396825398 2.3280423280423284,133.33333333333334 2.53968253968254,132.6984126984127 2.53968253968254,132.06349206349208 2.7513227513227516,131.42857142857144 2.7513227513227516,130.7936507936508 2.9629629629629632,130.15873015873018 3.174603174603175,129.52380952380955 3.174603174603175,128.88888888888889 3.3862433862433865,128.25396825396825 3.597883597883598,127.61904761904763 3.8095238095238098,126.98412698412699 3.8095238095238098,126.34920634920636 4.021164021164021,125.71428571428572 4.2328042328042335,125.07936507936509 4.2328042328042335,124.44444444444446 4.444444444444445,123.80952380952382 4.656084656084657,123.17460317460318 4.867724867724868,122.53968253968254 5.07936507936508,121.90476190476191 5.291005291005291,121.26984126984128 5.291005291005291,120.63492063492065 5.502645502645503,120.00000000000001 5.714285714285714,119.36507936507937 5.9259259259259265,118.73015873015873 6.137566137566138,118.0952380952381 6.137566137566138,117.46031746031747 6.560846560846561,116.82539682539684 6.560846560846561,116.1904761904762 6.772486772486773,115.55555555555557 6.984126984126985,114.92063492063492 7.195767195767196,114.28571428571429 7.407407407407408,113.65079365079366 7.6190476190476195,113.01587301587303 7.6190476190476195,112.3809523809524 7.6190476190476195,111.74603174603176 8.042328042328043,111.11111111111111 8.253968253968255,110.47619047619048 8.253968253968255,109.84126984126985 8.465608465608467,109.20634920634922 8.677248677248677,108.57142857142858 8.88888888888889,107.93650793650795 9.100529100529101,107.3015873015873 9.312169312169313,106.66666666666667 9.735449735449736,106.03174603174604 9.947089947089948,105.3968253968254 10.15873015873016,104.76190476190477 10.370370370370372,104.12698412698414 10.582010582010582,103.4920634920635 10.793650793650794,102.85714285714286 11.216931216931219,102.22222222222223 11.428571428571429,101.5873015873016 11.640211640211641,100.95238095238096 12.063492063492065,100.31746031746033 12.275132275132275,99.68253968253968 12.486772486772487,99.04761904761905 12.6984126984127,98.41269841269842 12.910052910052912,97.77777777777779 13.333333333333334,97.14285714285715 13.544973544973546,96.50793650793652 13.756613756613758,95.87301587301587 14.17989417989418,95.44973544973546 14.391534391534393,94.81481481481482 14.603174603174605,94.17989417989419 15.026455026455027,93.54497354497356 15.449735449735451,92.91005291005291 15.661375661375663,92.27513227513228 16.084656084656086,91.85185185185186 16.50793650793651,91.42857142857143 16.931216931216934,91.00529100529101 17.566137566137566,90.58201058201058 18.201058201058203,90.37037037037038 18.83597883597884,90.37037037037038 19.47089947089947,90.15873015873017 20.105820105820108,90.15873015873017 20.740740740740744,90.15873015873017 21.375661375661377,90.37037037037038 22.010582010582013,90.37037037037038 22.645502645502646,90.58201058201058 23.280423280423282,90.58201058201058 23.703703703703706,91.00529100529101 24.338624338624342,91.21693121693123 24.973544973544975,91.64021164021165 25.60846560846561,92.06349206349208 26.031746031746035,92.4867724867725 26.455026455026456,92.91005291005291 26.87830687830688,93.33333333333334 27.301587301587304,93.96825396825398 27.513227513227516,94.60317460317461 27.93650793650794,95.02645502645504 28.14814814814815,95.66137566137567 28.571428571428573,96.2962962962963 28.783068783068785,96.93121693121694 29.20634920634921,97.56613756613757 29.629629629629633,98.2010582010582 29.841269841269842,98.83597883597885 30.264550264550266,99.47089947089948 30.476190476190478,100.10582010582011 30.899470899470902,100.52910052910053 31.111111111111114,101.16402116402116 31.53439153439154,101.79894179894181 31.746031746031747,102.43386243386244 32.16931216931217,102.85714285714286 32.38095238095239,103.4920634920635 32.804232804232804,104.12698412698414 33.22751322751323,104.76190476190477 33.65079365079365,105.3968253968254 34.074074074074076,106.03174603174604 34.4973544973545,106.66666666666667 34.920634920634924,107.0899470899471 35.34391534391535,107.72486772486774 35.76719576719577,108.14814814814815 36.402116402116405,108.57142857142858 37.03703703703704,108.78306878306879 37.46031746031746,109.20634920634922 37.883597883597886,109.62962962962963 38.51851851851852,110.05291005291006 39.15343915343916,110.26455026455027 39.78835978835979,110.47619047619048 40.423280423280424,110.47619047619048 41.058201058201064,110.6878306878307 41.6931216931217,110.47619047619048 42.32804232804233,110.47619047619048 42.96296296296297,110.47619047619048 43.5978835978836,110.05291005291006 44.232804232804234,109.62962962962963 44.867724867724874,109.41798941798943 45.29100529100529,108.994708994709 45.714285714285715,108.57142857142858 46.349206349206355,108.14814814814815 46.77248677248678,107.72486772486774 47.195767195767196,107.3015873015873 47.61904761904762,106.87830687830689 48.042328042328045,106.45502645502647 48.46560846560847,106.03174603174604 48.88888888888889,105.60846560846562 49.31216931216932,105.18518518518519 49.73544973544974,104.76190476190477 50.158730158730165,104.33862433862434 50.58201058201058,103.70370370370371 51.00529100529101,103.28042328042329 51.42857142857143,102.85714285714286 51.851851851851855,102.22222222222223 52.27513227513228,101.79894179894181 52.6984126984127,101.16402116402116 52.91005291005291,100.52910052910053 53.333333333333336,100.10582010582011 53.75661375661376,99.68253968253968 54.179894179894184,99.04761904761905 54.60317460317461,98.41269841269842 54.81481481481482,97.77777777777779 55.23809523809524,97.14285714285715 55.449735449735456,96.50793650793652 55.661375661375665,95.87301587301587 56.08465608465609,95.44973544973546 56.2962962962963,94.81481481481482 56.50793650793651,94.17989417989419 56.93121693121694,93.54497354497356 56.93121693121694,92.91005291005291 57.35449735449736,92.27513227513228 57.56613756613757,91.64021164021165 57.777777777777786,91.00529100529101 57.989417989417994,90.37037037037038 58.2010582010582,89.73544973544975 58.2010582010582,89.1005291005291 58.62433862433863,88.46560846560847 58.62433862433863,87.83068783068784 58.83597883597884,87.1957671957672 59.04761904761905,86.56084656084657 59.04761904761905,85.92592592592594 59.25925925925927,85.29100529100529 59.25925925925927,84.65608465608466 59.470899470899475,84.02116402116403 59.470899470899475,83.3862433862434 59.470899470899475,82.75132275132276 59.470899470899475,82.11640211640213 59.470899470899475,81.48148148148148 59.470899470899475,80.84656084656085 59.470899470899475,80.21164021164022 59.470899470899475,79.57671957671958 59.470899470899475,78.94179894179895 59.470899470899475,78.30687830687832 59.25925925925927,77.67195767195767 59.04761904761905,77.03703703703704 58.83597883597884,76.4021164021164 58.83597883597884,75.76719576719577 58.83597883597884,75.13227513227514 58.62433862433863,74.49735449735451 58.41269841269842,73.86243386243387 58.41269841269842,73.22751322751323 58.2010582010582,72.5925925925926 57.989417989417994,71.95767195767196 57.777777777777786,71.32275132275133 57.56613756613757,70.6878306878307 57.35449735449736,70.05291005291006 56.93121693121694,69.41798941798942 56.71957671957672,68.78306878306879 56.2962962962963,68.35978835978837 55.87301587301588,67.72486772486774 55.449735449735456,67.08994708994709 55.02645502645503,66.66666666666667 54.60317460317461,66.24338624338625 54.179894179894184,65.82010582010582 53.75661375661376,65.3968253968254 53.12169312169313,64.97354497354497 52.6984126984127,64.55026455026456 52.06349206349207,64.12698412698413 51.42857142857143,63.91534391534392 50.7936507936508,63.70370370370371 50.370370370370374,63.280423280423285 49.73544973544974,63.280423280423285 49.1005291005291,63.06878306878308 48.46560846560847,62.85714285714286 47.830687830687836,62.64550264550265 47.195767195767196,62.64550264550265 46.560846560846564,62.64550264550265 45.92592592592593,62.64550264550265 45.29100529100529,62.64550264550265 44.65608465608466,62.64550264550265 44.021164021164026,62.64550264550265 43.386243386243386,62.64550264550265 42.75132275132275,62.85714285714286 42.11640211640212,62.85714285714286 41.48148148148149,63.06878306878308 40.84656084656085,63.280423280423285 40.211640211640216,63.492063492063494 39.57671957671958,63.91534391534392 38.94179894179894,64.33862433862434 38.30687830687831,64.76190476190477 37.67195767195768,64.97354497354497 37.03703703703704,65.3968253968254 36.402116402116405,65.82010582010582 35.76719576719577,66.03174603174604 35.13227513227513,66.45502645502646 34.4973544973545,66.87830687830689 33.86243386243387,67.3015873015873 33.22751322751323,67.51322751322752 32.592592592592595,67.93650793650794 31.95767195767196,68.14814814814815 31.53439153439154,68.57142857142858 30.899470899470902,68.994708994709 30.264550264550266,69.20634920634922 29.629629629629633,69.41798941798942 28.994708994708997,69.62962962962963 28.35978835978836,69.62962962962963 27.724867724867728,69.62962962962963 27.089947089947092,69.62962962962963 26.455026455026456,69.62962962962963 25.820105820105823,69.62962962962963 25.185185185185187,69.41798941798942 24.55026455026455,69.20634920634922 23.915343915343918,68.78306878306879 23.280423280423282,68.35978835978837 22.857142857142858,67.93650793650794 22.433862433862437,67.3015873015873 22.222222222222225,66.66666666666667 22.010582010582013,66.03174603174604 22.010582010582013,65.3968253968254 22.010582010582013,64.76190476190477 21.7989417989418,64.12698412698413 21.7989417989418,63.492063492063494 21.7989417989418,62.85714285714286 21.7989417989418,62.22222222222223 22.010582010582013,61.58730158730159 22.010582010582013,60.952380952380956 22.222222222222225,60.31746031746032 22.222222222222225,59.682539682539684 22.433862433862437,59.04761904761905 22.433862433862437,58.41269841269842 22.645502645502646,57.777777777777786 22.857142857142858,57.142857142857146 23.06878306878307,56.50793650793651 23.280423280423282,55.87301587301588 23.492063492063494,55.23809523809524 23.703703703703706,54.60317460317461 24.12698412698413,53.968253968253975 24.338624338624342,53.333333333333336 24.55026455026455,52.6984126984127 24.761904761904763,52.06349206349207 24.973544973544975,51.42857142857143 25.185185185185187,50.7936507936508 25.60846560846561,50.158730158730165 25.820105820105823,49.523809523809526 26.031746031746035,48.88888888888889 26.243386243386244,48.25396825396826 26.455026455026456,47.61904761904762 26.666666666666668,46.98412698412699 26.87830687830688,46.349206349206355 27.089947089947092,45.714285714285715 27.301587301587304,45.07936507936508 27.513227513227516,44.44444444444445 27.724867724867728,43.80952380952381 27.93650793650794,43.17460317460318 27.93650793650794,42.539682539682545 28.14814814814815,41.904761904761905 28.35978835978836,41.26984126984127 28.571428571428573,40.63492063492064 28.783068783068785,40.0 28.994708994708997,39.36507936507937 29.20634920634921,38.730158730158735 29.41798941798942,38.095238095238095 29.41798941798942,37.46031746031746 29.629629629629633,36.82539682539683 29.841269841269842,36.19047619047619 30.052910052910054,35.55555555555556 30.264550264550266,34.920634920634924 30.264550264550266,34.28571428571429 30.476190476190478,33.65079365079365 30.68783068783069,33.01587301587302 30.68783068783069,32.38095238095239 30.899470899470902,31.746031746031747 31.111111111111114,31.111111111111114 31.111111111111114,30.476190476190478 31.322751322751326,29.841269841269842 31.53439153439154,29.20634920634921 31.53439153439154,28.571428571428573 31.746031746031747,27.93650793650794 31.746031746031747,27.301587301587304 31.746031746031747,26.666666666666668 31.95767195767196,26.031746031746035 31.95767195767196,25.3968253968254 32.16931216931217,24.761904761904763 32.804232804232804,21.164021164021165" style="fill:none; stroke:#3300bb; stroke-width:1.0"  /><circle cx="32.804232804232804" cy="21.164021164021165" r="2.0" style="fill:none; stroke:#000000aa; stroke-width:0.25" /><circle cx="173.75661375661377" cy="47.830687830687836" r="2.0" style="fill:none; stroke:#000000aa; stroke-width:0.25" /><circle cx="145.60846560846562" cy="182.01058201058203" r="2.0" style="fill:none; stroke:#000000aa; stroke-width:0.25" /><circle cx="0.0" cy="146.24338624338625" r="2.0" style="fill:none; stroke:#000000aa; stroke-width:0.25" /><circle cx="32.38095238095239" cy="21.58730158730159" r="2.0" style="fill:none; stroke:#ff3366aa; stroke-width:0.25" /><circle cx="174.3915343915344" cy="47.830687830687836" r="2.0" style="fill:none; stroke:#ff3366aa; stroke-width:0.25" /><circle cx="145.39682539682542" cy="181.5873015873016" r="2.0" style="fill:none; stroke:#ff3366aa; stroke-width:0.25" /><circle cx="0.21164021164021166" cy="146.03174603174605" r="2.0" style="fill:none; stroke:#ff3366aa; stroke-width:0.25" /><polyline points="43.80952380952381,23.06878306878307 43.17460317460318,22.857142857142858 42.539682539682545,22.857142857142858 41.904761904761905,22.433862433862437 41.26984126984127,22.433862433862437 40.63492063492064,22.433862433862437 40.0,22.433862433862437 39.36507936507937,22.222222222222225 38.730158730158735,22.010582010582013 38.095238095238095,21.7989417989418 37.46031746031746,21.7989417989418 36.82539682539683,21.58730158730159 36.19047619047619,21.58730158730159 35.55555555555556,21.58730158730159" style="fill:none; stroke:#001100; stroke-width:1.0" /><polyline points="30.68783068783069,33.01587301587302 30.68783068783069,32.38095238095239 30.899470899470902,31.746031746031747 31.111111111111114,31.111111111111114 31.111111111111114,30.476190476190478 31.322751322751326,29.841269841269842 31.53439153439154,29.20634920634921 31.53439153439154,28.571428571428573 31.746031746031747,27.93650793650794 31.746031746031747,27.301587301587304 31.746031746031747,26.666666666666668 31.95767195767196,26.031746031746035 31.95767195767196,25.3968253968254 32.16931216931217,24.761904761904763" style="fill:none; stroke:#000011; stroke-width:1.0" /><polyline points="168.8888888888889,58.2010582010582 169.31216931216932,57.56613756613757 169.52380952380955,56.93121693121694 169.73544973544975,56.2962962962963 169.94708994708995,55.661375661375665 170.37037037037038,55.02645502645503 170.58201058201058,54.39153439153439 171.005291005291,53.75661375661376 171.21693121693124,53.12169312169313 171.42857142857144,52.48677248677249 171.64021164021165,51.851851851851855 172.06349206349208,51.21693121693122 172.4867724867725,50.58201058201058" style="fill:none; stroke:#001100; stroke-width:1.0" /><polyline points="162.53968253968256,47.61904761904762 163.1746031746032,47.830687830687836 163.80952380952382,47.61904761904762 164.44444444444446,47.61904761904762 165.0793650793651,47.61904761904762 165.71428571428572,47.61904761904762 166.34920634920636,47.61904761904762 166.984126984127,47.830687830687836 167.61904761904762,47.61904761904762 168.25396825396825,47.830687830687836 168.8888888888889,47.830687830687836 169.52380952380955,47.830687830687836 170.15873015873018,47.830687830687836 170.7936507936508,47.61904761904762 171.42857142857144,47.830687830687836" style="fill:none; stroke:#000011; stroke-width:1.0" /><polyline points="133.96825396825398,179.8941798941799 134.6031746031746,180.10582010582013 135.23809523809524,180.31746031746033 135.87301587301587,180.31746031746033 136.5079365079365,180.52910052910053 137.14285714285717,180.52910052910053 137.7777777777778,180.52910052910053 138.41269841269843,180.74074074074076 139.04761904761907,180.74074074074076 139.6825396825397,180.95238095238096 140.31746031746033,181.16402116402116 140.95238095238096,181.16402116402116 141.5873015873016,181.3756613756614 142.22222222222223,181.3756613756614" style="fill:none; stroke:#001100; stroke-width:1.0" /><polyline points="146.45502645502646,169.94708994708995 146.24338624338625,170.58201058201058 146.24338624338625,171.21693121693124 146.03174603174605,171.85185185185188 146.03174603174605,172.4867724867725 146.03174603174605,173.12169312169314 145.82010582010582,173.75661375661377 145.82010582010582,174.3915343915344 145.82010582010582,175.02645502645504 145.82010582010582,175.66137566137567 145.82010582010582,176.2962962962963 145.82010582010582,176.93121693121694 145.82010582010582,177.56613756613757 145.82010582010582,178.2010582010582" style="fill:none; stroke:#000011; stroke-width:1.0" /><polyline points="2.3280423280423284,134.6031746031746 2.1164021164021167,135.23809523809524 1.9047619047619049,135.87301587301587 1.9047619047619049,136.5079365079365 1.9047619047619049,137.14285714285717 1.6931216931216932,137.7777777777778 1.4814814814814816,138.41269841269843 1.4814814814814816,139.04761904761907 1.26984126984127,139.6825396825397 1.26984126984127,140.31746031746033 1.0582010582010584,140.95238095238096 0.8465608465608466,141.5873015873016 0.8465608465608466,142.22222222222223 0.634920634920635,142.85714285714286" style="fill:none; stroke:#001100; stroke-width:1.0" /><polyline points="11.428571428571429,149.84126984126985 10.793650793650794,149.62962962962965 10.15873015873016,149.41798941798942 9.523809523809524,149.20634920634922 8.88888888888889,148.99470899470901 8.253968253968255,148.78306878306879 7.6190476190476195,148.57142857142858 6.984126984126985,148.35978835978838 6.34920634920635,148.14814814814815 5.714285714285714,147.93650793650795 5.07936507936508,147.72486772486775 4.444444444444445,147.72486772486775 3.8095238095238098,147.51322751322752 3.174603174603175,147.30158730158732" style="fill:none; stroke:#000011; stroke-width:1.0" /><polyline points="35.55555555555556,21.58730158730159 14.814814814814817,17.77777777777778" style="fill:none; stroke:#ffaa00; stroke-width:0.4" /><polyline points="32.16931216931217,24.761904761904763 35.97883597883598,4.021164021164021" style="fill:none; stroke:#aaff00; stroke-width:0.4" /><polyline points="172.4867724867725,50.58201058201058 181.5873015873016,31.53439153439154" style="fill:none; stroke:#ffaa00; stroke-width:0.4" /><polyline points="171.42857142857144,47.830687830687836 192.5925925925926,48.25396825396826" style="fill:none; stroke:#aaff00; stroke-width:0.4" /><polyline points="142.22222222222223,181.3756613756614 162.96296296296296,185.1851851851852" style="fill:none; stroke:#ffaa00; stroke-width:0.4" /><polyline points="145.82010582010582,178.2010582010582 144.12698412698413,199.36507936507937" style="fill:none; stroke:#aaff00; stroke-width:0.4" /><polyline points="0.634920634920635,142.85714285714286 -3.597883597883598,163.59788359788362" style="fill:none; stroke:#ffaa00; stroke-width:0.4" /><polyline points="3.174603174603175,147.30158730158732 -17.142857142857146,141.16402116402116" style="fill:none; stroke:#aaff00; stroke-width:0.4" /><circle cx="99.8941798941799" cy="96.50793650793652" r="1.0" style="fill:#444444; stroke-width:0" /><circle cx="108.14814814814815" cy="84.44444444444446" r="10.582010582010582" style="fill:#ff770022; stroke-width:0" /><circle cx="108.14814814814815" cy="84.44444444444446" r="1.0" style="fill:#ff7700; stroke-width:0" /></svg>