<?xml version="1.0" encoding="UTF-8" standalone="no"?><svg width="572.0634920634922" height="553.015873015873" viewBox="-10 -10 210.6878306878307 204.33862433862436" xmlns="http://www.w3.org/2000/svg" xmlns:xlink="http://www.w3.org/1999/xlink"><polyline points="-0.4232804232804233,88.25396825396827 2.7513227513227516,86.77248677248677 3.3862433862433865,86.34920634920636 4.021164021164021,86.13756613756614 4.656084656084657,85.71428571428572 5.291005291005291,85.5026455026455 5.9259259259259265,85.29100529100529 6.560846560846561,85.07936507936509 7.195767195767196,84.86772486772487 7.6190476190476195,84.44444444444446 8.253968253968255,84.23280423280424 8.88888888888889,83.80952380952381 9.523809523809524,83.59788359788361 10.15873015873016,83.3862433862434 10.793650793650794,83.17460317460318 11.216931216931219,82.53968253968254 11.851851851851853,82.32804232804233 12.486772486772487,82.53968253968254 13.121693121693122,82.11640211640213 13.756613756613758,81.6931216931217 14.391534391534393,81.48148148148148 15.026455026455027,81.26984126984128 15.661375661375663,81.05820105820106 16.084656084656086,80.42328042328043 16.71957671957672,80.42328042328043 17.354497354497354,80.21164021164022 17.98941798941799,79.7883597883598 18.624338624338627,79.57671957671958 19.25925925925926,79.36507936507937 19.894179894179896,79.15343915343917 20.31746031746032,78.73015873015873 20.952380952380953,78.30687830687832 21.58730158730159,78.0952380952381 22.222222222222225,77.88359788359789 22.857142857142858,77.46031746031747 23.280423280423282,77.03703703703704 23.915343915343918,77.03703703703704 24.338624338624342,76.61375661375662 24.761904761904763,76.19047619047619 25.3968253968254,76.19047619047619 26.031746031746035,75.97883597883599 26.666666666666668,75.55555555555556 27.089947089947092,75.13227513227514 27.724867724867728,75.13227513227514 28.14814814814815,74.70899470899471 28.571428571428573,74.28571428571429 29.20634920634921,74.07407407407408 29.841269841269842,73.86243386243387 30.476190476190478,73.43915343915344 31.111111111111114,73.01587301587303 31.746031746031747,72.5925925925926 32.38095238095239,72.16931216931218 33.01587301587302,71.74603174603175 33.65079365079365,71.53439153439155 34.074074074074076,71.11111111111111 34.70899470899471,70.8994708994709 35.13227513227513,70.47619047619048 35.55555555555556,70.05291005291006 36.19047619047619,69.62962962962963 36.82539682539683,69.41798941798942 37.248677248677254,68.994708994709 37.67195767195768,68.57142857142858 38.30687830687831,68.14814814814815 38.94179894179894,67.72486772486774 39.36507936507937,67.3015873015873 39.78835978835979,66.87830687830689 40.211640211640216,66.45502645502646 40.63492063492064,66.03174603174604 41.058201058201064,65.60846560846561 41.48148148148149,65.18518518518519 41.904761904761905,64.76190476190477 42.32804232804233,64.33862433862434 42.75132275132275,63.70370370370371 43.17460317460318,63.280423280423285 43.5978835978836,62.64550264550265 44.021164021164026,62.01058201058201 44.44444444444445,61.58730158730159 44.867724867724874,60.952380952380956 45.29100529100529,60.31746031746032 45.50264550264551,59.682539682539684 45.92592592592593,59.25925925925927 46.13756613756614,58.62433862433863 46.349206349206355,57.989417989417994 46.560846560846564,57.35449735449736 46.77248677248678,56.71957671957672 47.195767195767196,56.08465608465609 47.40740740740741,55.449735449735456 47.61904761904762,54.81481481481482 47.61904761904762,54.179894179894184 47.830687830687836,53.54497354497355 48.042328042328045,52.91005291005291 48.042328042328045,52.27513227513228 48.25396825396826,51.640211640211646 48.25396825396826,51.00529100529101 48.25396825396826,50.370370370370374 48.46560846560847,49.73544973544974 48.46560846560847,49.1005291005291 48.46560846560847,48.46560846560847 48.46560846560847,47.830687830687836 48.46560846560847,47.195767195767196 48.46560846560847,46.560846560846564 48.46560846560847,45.92592592592593 48.46560846560847,45.29100529100529 48.25396825396826,44.65608465608466 48.25396825396826,44.021164021164026 48.25396825396826,43.386243386243386 48.042328042328045,42.75132275132275 47.830687830687836,42.11640211640212 47.61904761904762,41.48148148148149 47.195767195767196,40.84656084656085 46.98412698412699,40.211640211640216 46.560846560846564,39.78835978835979 46.13756613756614,39.15343915343916 45.714285714285715,38.730158730158735 45.29100529100529,38.30687830687831 44.867724867724874,37.883597883597886 44.232804232804234,37.46031746031746 43.5978835978836,37.248677248677254 43.17460317460318,36.82539682539683 42.539682539682545,36.613756613756614 41.904761904761905,36.613756613756614 41.26984126984127,36.19047619047619 40.63492063492064,36.19047619047619 40.0,35.97883597883598 39.36507936507937,35.76719576719577 38.730158730158735,35.55555555555556 38.095238095238095,35.34391534391535 37.46031746031746,35.13227513227513 36.82539682539683,34.920634920634924 36.19047619047619,34.70899470899471 35.55555555555556,34.4973544973545 34.920634920634924,34.074074074074076 34.28571428571429,33.86243386243387 33.65079365079365,33.65079365079365 33.01587301587302,33.22751322751323 32.38095238095239,33.01587301587302 31.746031746031747,32.592592592592595 31.111111111111114,32.38095238095239 30.476190476190478,31.95767195767196 29.841269841269842,31.53439153439154 29.20634920634921,31.111111111111114 28.571428571428573,30.68783068783069 28.14814814814815,30.052910052910054 27.724867724867728,29.629629629629633 27.301587301587304,28.994708994708997 26.87830687830688,28.35978835978836 26.666666666666668,27.724867724867728 26.455026455026456,27.089947089947092 26.243386243386244,26.455026455026456 26.243386243386244,25.820105820105823 26.243386243386244,25.185185185185187 26.031746031746035,24.55026455026455 26.031746031746035,23.915343915343918 26.031746031746035,23.280423280423282 26.031746031746035,22.645502645502646 26.243386243386244,22.010582010582013 26.243386243386244,21.375661375661377 26.243386243386244,20.740740740740744 26.455026455026456,20.105820105820108 26.455026455026456,19.47089947089947 26.666666666666668,18.83597883597884 26.87830687830688,18.201058201058203 27.089947089947092,17.566137566137566 27.089947089947092,16.931216931216934 27.301587301587304,16.296296296296298 27.513227513227516,15.661375661375663 27.724867724867728,15.026455026455027 27.93650793650794,14.391534391534393 28.14814814814815,13.756613756613758 28.571428571428573,13.121693121693122 28.783068783068785,12.486772486772487 29.20634920634921,11.851851851851853 29.629629629629633,11.428571428571429 29.841269841269842,10.793650793650794 30.264550264550266,10.15873015873016 30.68783068783069,9.735449735449736 31.111111111111114,9.100529100529101 31.53439153439154,8.677248677248677 32.16931216931217,8.253968253968255 32.592592592592595,7.830687830687832 33.01587301587302,7.407407407407408 33.65079365079365,7.195767195767196 34.28571428571429,6.772486772486773 34.70899470899471,6.34920634920635 35.34391534391535,5.9259259259259265 35.97883597883598,5.502645502645503 36.613756613756614,5.07936507936508 37.248677248677254,4.867724867724868 37.883597883597886,4.444444444444445 38.51851851851852,4.021164021164021 39.15343915343916,3.8095238095238098 39.78835978835979,3.597883597883598 40.423280423280424,3.3862433862433865 41.058201058201064,3.174603174603175 41.6931216931217,2.9629629629629632 42.32804232804233,2.7513227513227516 42.96296296296297,2.53968253968254 43.5978835978836,2.7513227513227516 44.232804232804234,2.7513227513227516 44.867724867724874,2.7513227513227516 45.29100529100529,2.3280423280423284 45.92592592592593,2.3280423280423284 46.560846560846564,2.53968253968254 47.195767195767196,2.53968253968254 47.830687830687836,2.7513227513227516 48.25396825396826,3.174603174603175 48.88888888888889,3.174603174603175 49.523809523809526,3.597883597883598 50.158730158730165,3.8095238095238098 50.7936507936508,4.021164021164021 51.21693121693122,4.444444444444445 51.640211640211646,4.867724867724868 52.27513227513228,5.291005291005291 52.6984126984127,5.714285714285714 53.12169312169313,6.137566137566138 53.54497354497355,6.560846560846561 53.968253968253975,7.195767195767196 54.39153439153439,7.6190476190476195 54.81481481481482,8.253968253968255 55.23809523809524,8.88888888888889 55.661375661375665,9.523809523809524 55.87301587301588,10.15873015873016 56.08465608465609,10.793650793650794 56.50793650793651,11.428571428571429 56.71957671957672,12.063492063492065 56.93121693121694,12.6984126984127 57.142857142857146,13.333333333333334 57.35449735449736,13.96825396825397 57.35449735449736,14.603174603174605 57.56613756613757,15.238095238095239 57.56613756613757,15.873015873015873 57.777777777777786,16.50793650793651 57.777777777777786,17.142857142857146 57.989417989417994,17.77777777777778 57.989417989417994,18.412698412698415 57.989417989417994,19.047619047619047 58.2010582010582,19.682539682539684 58.2010582010582,20.31746031746032 58.41269841269842,20.952380952380953 58.41269841269842,21.58730158730159 58.62433862433863,22.222222222222225 58.83597883597884,22.857142857142858 58.83597883597884,23.492063492063494 59.04761904761905,24.12698412698413 59.25925925925927,24.761904761904763 59.470899470899475,25.3968253968254 59.682539682539684,26.031746031746035 59.8941798941799,26.666666666666668 60.31746031746032,27.301587301587304 60.74074074074075,27.93650793650794 60.952380952380956,28.571428571428573 61.37566137566138,28.994708994708997 61.798941798941804,29.629629629629633 62.22222222222223,30.052910052910054 62.64550264550265,30.476190476190478 63.06878306878308,30.899470899470902 63.492063492063494,31.322751322751326 64.12698412698413,31.746031746031747 64.76190476190477,32.16931216931217 65.3968253968254,32.38095238095239 66.03174603174604,32.592592592592595 66.66666666666667,33.01587301587302 67.3015873015873,33.22751322751323 67.93650793650794,33.43915343915344 68.57142857142858,33.65079365079365 69.20634920634922,33.65079365079365 69.84126984126985,33.65079365079365 70.47619047619048,33.86243386243387 71.11111111111111,34.074074074074076 71.74603174603175,33.86243386243387 72.38095238095238,33.86243386243387 73.01587301587303,33.86243386243387 73.65079365079366,33.86243386243387 74.07407407407408,33.43915343915344 74.70899470899471,33.22751322751323 75.34391534391536,33.01587301587302 75.97883597883599,32.804232804232804 76.61375661375662,32.592592592592595 77.03703703703704,32.16931216931217 77.46031746031747,31.53439153439154 78.0952380952381,31.111111111111114 78.51851851851852,30.68783068783069 78.94179894179895,30.264550264550266 79.57671957671958,29.841269841269842 80.0,29.41798941798942 80.42328042328043,28.783068783068785 80.84656084656085,28.35978835978836 81.26984126984128,27.724867724867728 81.6931216931217,27.301587301587304 82.11640211640213,26.666666666666668 82.53968253968254,26.031746031746035 82.96296296296298,25.3968253968254 83.3862433862434,24.973544973544975 83.80952380952381,24.338624338624342 84.23280423280424,23.703703703703706 84.65608465608466,23.280423280423282 85.07936507936509,22.645502645502646 85.5026455026455,22.222222222222225 85.92592592592594,21.7989417989418 86.34920634920636,21.375661375661377 86.77248677248677,20.740740740740744 87.1957671957672,20.31746031746032 87.61904761904762,19.894179894179896 88.04232804232805,19.47089947089947 88.46560846560847,19.047619047619047 88.8888888888889,18.624338624338627 89.31216931216932,18.201058201058203 89.73544973544975,17.77777777777778 90.15873015873017,17.142857142857146 90.58201058201058,16.71957671957672 91.00529100529101,16.296296296296298 91.64021164021165,15.873015873015873 92.06349206349208,15.449735449735451 92.4867724867725,14.814814814814817 92.91005291005291,14.391534391534393 93.54497354497356,13.96825396825397 93.96825396825398,13.544973544973546 94.39153439153439,13.121693121693122 94.81481481481482,12.6984126984127 95.44973544973546,12.275132275132275 96.08465608465609,11.851851851851853 96.50793650793652,11.428571428571429 96.93121693121694,11.005291005291006 97.56613756613757,10.582010582010582 98.2010582010582,10.15873015873016 98.62433862433863,9.735449735449736 99.25925925925927,9.312169312169313 99.68253968253968,8.88888888888889 100.31746031746033,8.465608465608467 100.95238095238096,8.042328042328043 101.37566137566138,7.6190476190476195 102.01058201058201,7.195767195767196 102.64550264550266,6.772486772486773 103.28042328042329,6.34920634920635 103.91534391534393,5.9259259259259265 104.33862433862434,5.502645502645503 104.97354497354497,5.291005291005291 105.3968253968254,4.867724867724868 106.03174603174604,4.444444444444445 106.66666666666667,4.021164021164021 107.3015873015873,3.597883597883598 107.93650793650795,3.174603174603175 108.57142857142858,2.9629629629629632 109.20634920634922,2.53968253968254 109.84126984126985,2.1164021164021167 110.47619047619048,1.9047619047619049 114.07407407407408,-0.4232804232804233" style="fill:none; stroke:#cc0000; stroke-width:1.0"  /><polyline points="114.07407407407408,-0.4232804232804233 114.70899470899472,3.174603174603175 114.92063492063492,3.8095238095238098 114.92063492063492,4.444444444444445 115.13227513227514,5.07936507936508 115.13227513227514,5.714285714285714 115.34391534391536,6.34920634920635 115.34391534391536,6.984126984126985 115.55555555555557,7.6190476190476195 115.55555555555557,8.253968253968255 115.55555555555557,8.88888888888889 115.76719576719577,9.523809523809524 115.76719576719577,10.15873015873016 115.97883597883599,10.793650793650794 115.97883597883599,11.428571428571429 116.1904761904762,12.063492063492065 116.1904761904762,12.6984126984127 116.1904761904762,13.333333333333334 116.4021164021164,13.96825396825397 116.61375661375662,14.603174603174605 116.82539682539684,15.238095238095239 117.03703703703705,15.873015873015873 117.24867724867725,16.50793650793651 117.46031746031747,17.142857142857146 117.67195767195768,17.77777777777778 117.88359788359789,18.412698412698415 118.0952380952381,19.047619047619047 118.51851851851853,19.682539682539684 118.73015873015873,20.31746031746032 119.15343915343917,20.952380952380953 119.36507936507937,21.58730158730159 119.7883597883598,22.222222222222225 120.21164021164022,22.857142857142858 120.63492063492065,23.492063492063494 120.84656084656086,24.12698412698413 121.26984126984128,24.55026455026455 121.6931216931217,25.185185185185187 121.90476190476191,25.820105820105823 122.32804232804234,26.243386243386244 122.75132275132276,26.666666666666668 123.17460317460318,27.301587301587304 123.59788359788361,27.93650793650794 124.02116402116403,28.35978835978836 124.44444444444446,28.783068783068785 124.86772486772487,29.20634920634921 125.5026455026455,29.629629629629633 126.13756613756615,30.052910052910054 126.77248677248679,30.476190476190478 127.40740740740742,30.68783068783069 128.04232804232805,30.899470899470902 128.67724867724868,31.111111111111114 129.31216931216932,30.899470899470902 129.94708994708995,30.899470899470902 130.58201058201058,30.899470899470902 131.21693121693121,30.899470899470902 131.85185185185185,30.68783068783069 132.4867724867725,30.264550264550266 133.12169312169314,30.052910052910054 133.75661375661377,29.629629629629633 134.17989417989418,29.20634920634921 134.81481481481484,28.783068783068785 135.23809523809524,28.35978835978836 135.66137566137567,27.93650793650794 136.0846560846561,27.513227513227516 136.5079365079365,27.089947089947092 136.93121693121694,26.666666666666668 137.35449735449737,26.031746031746035 137.7777777777778,25.3968253968254 138.2010582010582,24.973544973544975 138.41269841269843,24.338624338624342 138.83597883597884,23.915343915343918 139.04761904761907,23.280423280423282 139.47089947089947,22.857142857142858 139.6825396825397,22.222222222222225 140.10582010582013,21.7989417989418 140.52910052910053,21.164021164021165 140.74074074074076,20.529100529100532 141.16402116402116,20.105820105820108 141.3756613756614,19.47089947089947 141.7989417989418,19.047619047619047 142.01058201058203,18.412698412698415 142.43386243386246,17.98941798941799 142.64550264550266,17.354497354497354 143.0687830687831,16.931216931216934 143.4920634920635,16.296296296296298 143.91534391534393,15.661375661375663 144.33862433862436,15.026455026455027 144.76190476190476,14.603174603174605 145.1851851851852,14.17989417989418 145.60846560846562,13.756613756613758 146.24338624338625,13.333333333333334 146.66666666666669,12.910052910052912 147.0899470899471,12.486772486772487 147.72486772486775,12.063492063492065 148.35978835978838,11.851851851851853 148.78306878306879,11.428571428571429 149.41798941798942,11.216931216931219 150.05291005291005,10.793650793650794 150.6878306878307,10.582010582010582 151.32275132275134,10.582010582010582 151.95767195767198,10.370370370370372 152.5925925925926,10.15873015873016 153.22751322751324,10.15873015873016 153.86243386243387,10.15873015873016 154.4973544973545,10.15873015873016 155.13227513227514,10.15873015873016 155.76719576719577,10.15873015873016 156.4021164021164,10.15873015873016 157.03703703703704,10.370370370370372 157.67195767195767,10.370370370370372 158.30687830687833,10.582010582010582 158.94179894179896,10.793650793650794 159.5767195767196,11.005291005291006 160.21164021164023,11.216931216931219 160.84656084656086,11.428571428571429 161.4814814814815,11.851851851851853 162.11640211640213,12.063492063492065 162.75132275132276,12.486772486772487 163.3862433862434,12.910052910052912 164.02116402116403,13.333333333333334 164.44444444444446,13.756613756613758 165.0793650793651,14.17989417989418 165.50264550264552,14.603174603174605 165.92592592592595,15.238095238095239 166.34920634920636,15.661375661375663 166.7724867724868,16.296296296296298 167.19576719576722,16.931216931216934 167.61904761904762,17.354497354497354 168.04232804232805,17.98941798941799 168.46560846560848,18.624338624338627 168.67724867724868,19.25925925925926 169.10052910052912,19.894179894179896 169.31216931216932,20.529100529100532 169.73544973544975,21.164021164021165 169.94708994708995,21.7989417989418 170.37037037037038,22.433862433862437 170.58201058201058,23.06878306878307 170.7936507936508,23.703703703703706 171.005291005291,24.338624338624342 171.21693121693124,24.973544973544975 171.42857142857144,25.60846560846561 171.64021164021165,26.243386243386244 171.64021164021165,26.87830687830688 171.85185185185188,27.513227513227516 172.06349206349208,28.14814814814815 172.27513227513228,28.783068783068785 172.27513227513228,29.41798941798942 172.27513227513228,30.052910052910054 172.27513227513228,30.68783068783069 172.27513227513228,31.322751322751326 172.6984126984127,31.95767195767196 172.6984126984127,32.592592592592595 172.6984126984127,33.22751322751323 172.4867724867725,33.86243386243387 172.4867724867725,34.4973544973545 172.4867724867725,35.13227513227513 172.4867724867725,35.76719576719577 172.4867724867725,36.402116402116405 172.27513227513228,37.03703703703704 172.27513227513228,37.67195767195768 172.06349206349208,38.30687830687831 172.06349206349208,38.94179894179894 171.85185185185188,39.57671957671958 171.85185185185188,40.211640211640216 171.64021164021165,40.84656084656085 171.42857142857144,41.48148148148149 171.21693121693124,42.11640211640212 171.005291005291,42.75132275132275 170.58201058201058,43.386243386243386 170.37037037037038,44.021164021164026 169.94708994708995,44.44444444444445 169.52380952380955,45.07936507936508 168.8888888888889,45.50264550264551 168.46560846560848,45.92592592592593 168.04232804232805,46.349206349206355 167.40740740740742,46.560846560846564 166.7724867724868,46.77248677248678 166.13756613756615,47.195767195767196 165.50264550264552,47.40740740740741 164.8677248677249,47.61904761904762 164.23280423280426,47.830687830687836 163.59788359788362,48.042328042328045 162.96296296296296,48.042328042328045 162.32804232804233,48.25396825396826 161.6931216931217,48.46560846560847 161.05820105820106,48.46560846560847 160.42328042328043,48.46560846560847 159.7883597883598,48.46560846560847 159.15343915343917,48.677248677248684 158.51851851851853,48.46560846560847 157.8835978835979,48.25396825396826 157.24867724867727,48.25396825396826 156.61375661375664,48.042328042328045 155.978835978836,48.042328042328045 155.34391534391534,47.830687830687836 154.7089947089947,47.61904761904762 154.07407407407408,47.40740740740741 153.43915343915344,47.195767195767196 152.8042328042328,47.195767195767196 152.16931216931218,46.98412698412699 151.53439153439155,46.77248677248678 150.8994708994709,46.77248677248678 150.26455026455028,46.560846560846564 149.62962962962965,46.349206349206355 148.99470899470901,46.349206349206355 148.35978835978838,46.349206349206355 147.72486772486775,46.349206349206355 147.0899470899471,46.560846560846564 146.45502645502646,46.77248677248678 145.82010582010582,46.77248677248678 145.1851851851852,46.77248677248678 144.55026455026456,46.98412698412699 143.91534391534393,46.98412698412699 143.2804232804233,47.195767195767196 142.64550264550266,47.40740740740741 142.01058201058203,47.61904761904762 141.3756613756614,47.830687830687836 140.74074074074076,48.25396825396826 140.31746031746033,48.677248677248684 139.8941798941799,49.1005291005291 139.47089947089947,49.523809523809526 139.04761904761907,50.158730158730165 138.83597883597884,50.7936507936508 138.41269841269843,51.42857142857143 138.41269841269843,52.06349206349207 138.2010582010582,52.6984126984127 138.2010582010582,53.333333333333336 138.2010582010582,53.968253968253975 138.2010582010582,54.60317460317461 138.2010582010582,55.23809523809524 138.41269841269843,55.87301587301588 138.41269841269843,56.50793650793651 138.62433862433863,57.142857142857146 138.83597883597884,57.777777777777786 139.04761904761907,58.41269841269842 139.25925925925927,59.04761904761905 139.47089947089947,59.682539682539684 139.6825396825397,60.31746031746032 139.8941798941799,60.952380952380956 140.10582010582013,61.58730158730159 140.31746031746033,62.22222222222223 140.52910052910053,62.85714285714286 140.74074074074076,63.492063492063494 140.95238095238096,64.12698412698413 141.3756613756614,64.76190476190477 141.5873015873016,65.3968253968254 141.7989417989418,66.03174603174604 142.22222222222223,66.45502645502646 142.64550264550266,66.87830687830689 142.85714285714286,67.51322751322752 143.2804232804233,68.14814814814815 143.70370370370372,68.78306878306879 144.12698412698413,69.41798941798942 144.55026455026456,70.05291005291006 144.973544973545,70.6878306878307 145.39682539682542,71.11111111111111 145.82010582010582,71.74603174603175 146.24338624338625,72.38095238095238 146.66666666666669,72.80423280423281 147.0899470899471,73.43915343915344 147.72486772486775,73.86243386243387 148.14814814814815,74.28571428571429 148.57142857142858,74.70899470899471 148.99470899470901,75.13227513227514 149.41798941798942,75.76719576719577 149.84126984126985,76.19047619047619 150.26455026455028,76.61375661375662 150.6878306878307,77.03703703703704 151.11111111111111,77.46031746031747 151.74603174603175,77.88359788359789 152.16931216931218,78.30687830687832 152.5925925925926,78.73015873015873 153.01587301587304,79.15343915343917 153.43915343915344,79.57671957671958 153.86243386243387,80.0 154.2857142857143,80.42328042328043 154.92063492063494,80.84656084656085 155.55555555555557,81.26984126984128 155.978835978836,81.6931216931217 156.4021164021164,82.11640211640213 157.03703703703704,82.53968253968254 157.46031746031747,82.96296296296298 158.0952380952381,83.3862433862434 158.51851851851853,83.80952380952381 159.15343915343917,84.23280423280424 159.7883597883598,84.65608465608466 160.42328042328043,85.07936507936509 160.84656084656086,85.5026455026455 161.4814814814815,85.92592592592594 162.11640211640213,86.34920634920636 162.75132275132276,86.77248677248677 163.3862433862434,87.1957671957672 164.02116402116403,87.61904761904762 164.65608465608466,88.04232804232805 165.2910052910053,88.46560846560847 165.92592592592595,88.8888888888889 166.56084656084658,89.1005291005291 166.984126984127,89.52380952380953 167.61904761904762,89.94708994708995 168.25396825396825,90.15873015873017 168.8888888888889,90.58201058201058 169.52380952380955,91.00529100529101 169.94708994708995,91.42857142857143 170.58201058201058,91.64021164021165 171.21693121693124,92.06349206349208 171.85185185185188,92.4867724867725 172.4867724867725,92.69841269841271 173.12169312169314,93.12169312169313 173.75661375661377,93.54497354497356 174.3915343915344,93.96825396825398 175.02645502645504,94.17989417989419 175.44973544973547,94.60317460317461 176.0846560846561,94.81481481481482 176.71957671957674,95.23809523809524 177.35449735449737,95.66137566137567 177.989417989418,95.87301587301587 178.41269841269843,96.2962962962963 179.04761904761907,96.50793650793652 179.4708994708995,96.93121693121694 180.10582010582013,97.14285714285715 180.52910052910053,97.56613756613757 181.16402116402116,97.77777777777779 181.79894179894183,97.989417989418 182.22222222222223,98.41269841269842 182.85714285714286,98.62433862433863 183.4920634920635,99.04761904761905 184.12698412698415,99.25925925925927 184.7619047619048,99.68253968253968 185.39682539682542,99.8941798941799 185.82010582010582,100.31746031746033 186.45502645502646,100.52910052910053 187.08994708994712,100.95238095238096 190.47619047619048,102.85714285714286" style="fill:none; stroke:#999900; stroke-width:1.0"  /><polyline points="190.47619047619048,102.85714285714286 187.93650793650795,104.76190476190477 187.30158730158732,105.18518518518519 186.8783068783069,105.60846560846562 186.24338624338625,106.03174603174604 185.60846560846562,106.45502645502647 184.973544973545,106.87830687830689 184.55026455026456,107.3015873015873 183.91534391534393,107.72486772486774 183.2804232804233,108.14814814814815 182.64550264550266,108.57142857142858 182.22222222222223,108.994708994709 181.5873015873016,109.41798941798943 180.95238095238096,109.84126984126985 180.31746031746033,110.26455026455027 179.6825396825397,110.6878306878307 179.25925925925927,111.11111111111111 178.62433862433863,111.32275132275133 178.2010582010582,111.74603174603176 177.56613756613757,112.16931216931218 176.93121693121694,112.3809523809524 176.50793650793653,112.80423280423281 175.87301587301587,113.22751322751324 175.23809523809524,113.43915343915344 174.81481481481484,113.86243386243387 174.1798941798942,114.28571428571429 173.54497354497354,114.70899470899472 172.9100529100529,114.92063492063492 172.27513227513228,115.34391534391536 171.64021164021165,115.76719576719577 171.005291005291,116.1904761904762 170.37037037037038,116.61375661375662 169.73544973544975,117.03703703703705 169.10052910052912,117.24867724867725 168.46560846560848,117.67195767195768 167.83068783068785,118.0952380952381 167.19576719576722,118.51851851851853 166.56084656084658,118.94179894179895 165.92592592592595,119.15343915343917 165.2910052910053,119.57671957671958 164.65608465608466,120.00000000000001 164.02116402116403,120.21164021164022 163.59788359788362,120.63492063492065 162.96296296296296,120.84656084656086 162.32804232804233,121.26984126984128 161.6931216931217,121.4814814814815 161.2698412698413,121.90476190476191 160.63492063492066,122.11640211640213 160.0,122.53968253968254 159.36507936507937,122.96296296296298 158.73015873015873,123.17460317460318 158.0952380952381,123.59788359788361 157.46031746031747,123.80952380952382 157.03703703703704,124.23280423280424 156.4021164021164,124.44444444444446 155.76719576719577,124.86772486772487 155.13227513227514,125.07936507936509 154.4973544973545,125.5026455026455 153.86243386243387,125.92592592592594 153.22751322751324,126.13756613756615 152.8042328042328,126.56084656084657 152.16931216931218,126.98412698412699 151.53439153439155,127.40740740740742 151.11111111111111,127.83068783068784 150.6878306878307,128.25396825396825 150.26455026455028,128.67724867724868 149.84126984126985,129.10052910052912 149.41798941798942,129.73544973544975 148.99470899470901,130.37037037037038 148.78306878306879,131.005291005291 148.57142857142858,131.64021164021165 148.35978835978838,132.27513227513228 148.35978835978838,132.9100529100529 148.35978835978838,133.54497354497354 148.35978835978838,134.17989417989418 148.57142857142858,134.81481481481484 148.78306878306879,135.44973544973547 148.99470899470901,136.0846560846561 149.41798941798942,136.71957671957674 149.84126984126985,137.14285714285717 150.26455026455028,137.56613756613757 150.6878306878307,138.2010582010582 151.11111111111111,138.62433862433863 151.53439153439155,139.04761904761907 152.16931216931218,139.47089947089947 152.5925925925926,139.8941798941799 153.22751322751324,140.31746031746033 153.86243386243387,140.52910052910053 154.4973544973545,140.95238095238096 155.13227513227514,141.3756613756614 155.76719576719577,141.3756613756614 156.4021164021164,141.5873015873016 157.03703703703704,142.01058201058203 157.67195767195767,142.01058201058203 158.30687830687833,142.22222222222223 158.94179894179896,142.43386243386246 159.5767195767196,142.43386243386246 160.21164021164023,142.85714285714286 160.84656084656086,142.85714285714286 161.4814814814815,143.0687830687831 162.11640211640213,143.2804232804233 162.75132275132276,143.4920634920635 163.3862433862434,143.70370370370372 164.02116402116403,143.91534391534393 164.65608465608466,144.33862433862436 165.2910052910053,144.55026455026456 165.92592592592595,144.76190476190476 166.56084656084658,145.1851851851852 167.19576719576722,145.60846560846562 167.83068783068785,146.03174603174605 168.46560846560848,146.45502645502646 168.8888888888889,146.8783068783069 169.31216931216932,147.30158730158732 169.73544973544975,147.72486772486775 170.37037037037038,148.14814814814815 170.7936507936508,148.78306878306879 171.21693121693124,149.20634920634922 171.64021164021165,149.84126984126985 172.06349206349208,150.26455026455028 172.4867724867725,150.8994708994709 172.9100529100529,151.53439153439155 172.9100529100529,152.16931216931218 173.12169312169314,152.8042328042328 173.33333333333334,153.43915343915344 173.33333333333334,154.07407407407408 173.33333333333334,154.7089947089947 173.33333333333334,155.34391534391534 173.12169312169314,155.978835978836 172.9100529100529,156.61375661375664 172.9100529100529,157.24867724867727 172.4867724867725,157.8835978835979 172.27513227513228,158.51851851851853 172.06349206349208,159.15343915343917 171.64021164021165,159.7883597883598 171.42857142857144,160.42328042328043 171.21693121693124,161.05820105820106 170.7936507936508,161.6931216931217 170.37037037037038,162.32804232804233 170.15873015873018,162.96296296296296 169.73544973544975,163.59788359788362 169.31216931216932,164.23280423280426 168.8888888888889,164.8677248677249 168.46560846560848,165.50264550264552 168.04232804232805,165.92592592592595 167.61904761904762,166.56084656084658 167.19576719576722,167.19576719576722 166.7724867724868,167.61904761904762 166.34920634920636,168.25396825396825 165.92592592592595,168.67724867724868 165.50264550264552,169.10052910052912 165.0793650793651,169.52380952380955 164.65608465608466,170.15873015873018 164.23280423280426,170.58201058201058 163.80952380952382,171.005291005291 163.3862433862434,171.42857142857144 162.96296296296296,171.85185185185188 162.53968253968256,172.27513227513228 162.11640211640213,172.6984126984127 161.6931216931217,173.12169312169314 161.05820105820106,173.54497354497354 160.42328042328043,173.96825396825398 160.0,174.3915343915344 159.36507936507937,174.81481481481484 158.73015873015873,175.23809523809524 158.0952380952381,175.66137566137567 157.46031746031747,176.0846560846561 157.03703703703704,176.50793650793653 156.4021164021164,176.93121693121694 155.76719576719577,177.14285714285717 155.34391534391534,177.56613756613757 154.7089947089947,177.7777777777778 154.07407407407408,178.2010582010582 153.43915343915344,178.62433862433863 152.8042328042328,178.83597883597884 152.38095238095238,179.25925925925927 151.74603174603175,179.4708994708995 151.11111111111111,179.8941798941799 150.47619047619048,180.10582010582013 149.84126984126985,180.31746031746033 149.20634920634922,180.74074074074076 148.57142857142858,180.95238095238096 147.93650793650795,181.16402116402116 147.51322751322752,181.5873015873016 146.8783068783069,181.79894179894183 146.24338624338625,182.01058201058203 145.60846560846562,182.22222222222223 144.973544973545,182.43386243386246 144.33862433862436,182.64550264550266 143.70370370370372,182.85714285714286 143.0687830687831,183.0687830687831 142.43386243386246,183.0687830687831 141.7989417989418,183.2804232804233 141.16402116402116,183.2804232804233 140.52910052910053,183.4920634920635 139.8941798941799,183.70370370370372 139.25925925925927,183.70370370370372 138.62433862433863,183.91534391534393 137.989417989418,183.91534391534393 137.35449735449737,183.91534391534393 136.71957671957674,183.70370370370372 136.0846560846561,183.70370370370372 135.44973544973547,183.4920634920635 134.81481481481484,183.0687830687831 134.17989417989418,182.64550264550266 133.75661375661377,182.22222222222223 133.33333333333334,181.79894179894183 132.9100529100529,181.16402116402116 132.4867724867725,180.52910052910053 132.06349206349208,179.8941798941799 131.85185185185185,179.25925925925927 131.64021164021165,178.62433862433863 131.42857142857144,177.989417989418 131.21693121693121,177.35449735449737 131.005291005291,176.71957671957674 130.7936507936508,176.0846560846561 130.7936507936508,175.44973544973547 130.58201058201058,174.81481481481484 130.58201058201058,174.1798941798942 130.58201058201058,173.54497354497354 130.58201058201058,172.9100529100529 130.58201058201058,172.27513227513228 130.37037037037038,171.64021164021165 130.37037037037038,171.005291005291 130.37037037037038,170.37037037037038 130.37037037037038,169.73544973544975 130.37037037037038,169.10052910052912 130.37037037037038,168.46560846560848 130.37037037037038,167.83068783068785 130.15873015873018,167.19576719576722 130.15873015873018,166.56084656084658 129.94708994708995,165.92592592592595 129.73544973544975,165.2910052910053 129.52380952380955,164.65608465608466 129.10052910052912,164.02116402116403 128.67724867724868,163.59788359788362 128.25396825396825,163.1746031746032 127.83068783068784,162.75132275132276 127.1957671957672,162.32804232804233 126.56084656084657,162.11640211640213 125.92592592592594,161.6931216931217 125.2910052910053,161.6931216931217 124.65608465608466,161.4814814814815 124.02116402116403,161.4814814814815 123.3862433862434,161.4814814814815 122.75132275132276,161.4814814814815 122.11640211640213,161.4814814814815 121.4814814814815,161.4814814814815 120.84656084656086,161.4814814814815 120.21164021164022,161.6931216931217 119.57671957671958,161.90476190476193 118.94179894179895,161.90476190476193 118.30687830687832,162.11640211640213 117.67195767195768,162.11640211640213 117.03703703703705,162.32804232804233 116.4021164021164,162.32804232804233 115.76719576719577,162.53968253968256 115.13227513227514,162.75132275132276 114.49735449735451,162.96296296296296 113.86243386243387,163.1746031746032 113.22751322751324,163.1746031746032 112.5925925925926,163.3862433862434 112.16931216931218,163.80952380952382 111.53439153439155,164.02116402116403 110.89947089947091,164.23280423280426 110.26455026455027,164.23280423280426 109.62962962962963,164.44444444444446 108.994708994709,164.8677248677249 108.35978835978837,165.0793650793651 107.72486772486774,165.0793650793651 107.0899470899471,165.2910052910053 106.45502645502647,165.71428571428572 105.82010582010582,165.92592592592595 105.18518518518519,166.13756613756615 104.55026455026456,166.34920634920636 103.91534391534393,166.56084656084658 103.28042328042329,166.7724867724868 102.64550264550266,167.19576719576722 102.01058201058201,167.40740740740742 101.37566137566138,167.61904761904762 100.74074074074075,167.83068783068785 100.10582010582011,168.25396825396825 99.47089947089948,168.46560846560848 98.83597883597885,168.8888888888889 98.2010582010582,169.10052910052912 97.56613756613757,169.52380952380955 96.93121693121694,169.73544973544975 96.2962962962963,169.94708994708995 95.87301587301587,170.37037037037038 95.23809523809524,170.58201058201058 94.60317460317461,171.005291005291 93.96825396825398,171.42857142857144 93.33333333333334,171.85185185185188 92.91005291005291,172.4867724867725 92.27513227513228,172.9100529100529 91.64021164021165,173.33333333333334 91.00529100529101,173.75661375661377 90.37037037037038,174.1798941798942 87.83068783068784,175.87301587301587" style="fill:none; stroke:#00aa99; stroke-width:1.0"  /><polyline points="87.83068783068784,175.87301587301587 86.34920634920636,172.4867724867725 85.92592592592594,171.85185185185188 85.71428571428572,171.21693121693124 85.29100529100529,170.58201058201058 85.07936507936509,169.94708994708995 84.86772486772487,169.31216931216932 84.65608465608466,168.67724867724868 84.44444444444446,168.04232804232805 84.23280423280424,167.40740740740742 84.02116402116403,166.7724867724868 83.80952380952381,166.13756613756615 83.3862433862434,165.50264550264552 83.17460317460318,164.8677248677249 82.96296296296298,164.23280423280426 82.75132275132276,163.59788359788362 82.53968253968254,162.96296296296296 82.32804232804233,162.32804232804233 82.11640211640213,161.6931216931217 81.90476190476191,161.05820105820106 81.6931216931217,160.42328042328043 81.6931216931217,159.7883597883598 81.26984126984128,159.15343915343917 81.26984126984128,158.51851851851853 81.05820105820106,157.8835978835979 80.84656084656085,157.24867724867727 80.63492063492065,156.61375661375664 80.42328042328043,155.978835978836 80.21164021164022,155.34391534391534 80.0,154.7089947089947 80.0,154.07407407407408 79.7883597883598,153.43915343915344 79.57671957671958,152.8042328042328 79.36507936507937,152.16931216931218 79.15343915343917,151.53439153439155 79.15343915343917,150.8994708994709 78.94179894179895,150.26455026455028 78.73015873015873,149.62962962962965 78.73015873015873,148.99470899470901 78.51851851851852,148.35978835978838 78.51851851851852,147.72486772486775 78.30687830687832,147.0899470899471 78.30687830687832,146.45502645502646 78.0952380952381,145.82010582010582 78.0952380952381,145.1851851851852 77.88359788359789,144.55026455026456 77.88359788359789,143.91534391534393 77.67195767195767,143.2804232804233 77.67195767195767,142.64550264550266 77.46031746031747,142.01058201058203 77.24867724867725,141.3756613756614 77.24867724867725,140.74074074074076 77.24867724867725,140.10582010582013 77.03703703703704,139.47089947089947 76.82539682539684,138.83597883597884 76.61375661375662,138.2010582010582 76.4021164021164,137.56613756613757 75.97883597883599,136.93121693121694 75.76719576719577,136.2962962962963 75.55555555555556,135.66137566137567 75.13227513227514,135.02645502645504 74.70899470899471,134.3915343915344 74.28571428571429,133.96825396825398 73.86243386243387,133.33333333333334 73.43915343915344,132.9100529100529 73.01587301587303,132.4867724867725 72.5925925925926,132.06349206349208 72.16931216931218,131.64021164021165 71.53439153439155,131.21693121693121 70.8994708994709,130.7936507936508 70.26455026455027,130.58201058201058 69.62962962962963,130.15873015873018 68.994708994709,129.94708994708995 68.35978835978837,129.73544973544975 67.72486772486774,129.52380952380955 67.08994708994709,129.52380952380955 66.45502645502646,129.31216931216932 65.82010582010582,129.31216931216932 65.18518518518519,129.31216931216932 64.55026455026456,129.52380952380955 63.91534391534392,129.52380952380955 63.280423280423285,129.73544973544975 62.64550264550265,129.73544973544975 62.01058201058201,129.94708994708995 61.37566137566138,130.15873015873018 60.74074074074075,130.58201058201058 60.10582010582011,130.7936507936508 59.470899470899475,131.21693121693121 58.83597883597884,131.64021164021165 58.2010582010582,132.06349206349208 57.56613756613757,132.4867724867725 57.142857142857146,132.9100529100529 56.71957671957672,133.33333333333334 56.2962962962963,133.96825396825398 55.87301587301588,134.3915343915344 55.449735449735456,134.81481481481484 55.02645502645503,135.44973544973547 54.60317460317461,136.0846560846561 54.39153439153439,136.71957671957674 54.179894179894184,137.35449735449737 53.968253968253975,137.989417989418 53.75661375661376,138.62433862433863 53.54497354497355,139.25925925925927 53.333333333333336,139.8941798941799 53.333333333333336,140.52910052910053 53.333333333333336,141.16402116402116 53.12169312169313,141.7989417989418 53.333333333333336,142.43386243386246 53.333333333333336,143.0687830687831 53.333333333333336,143.70370370370372 53.333333333333336,144.33862433862436 53.12169312169313,144.973544973545 53.12169312169313,145.60846560846562 52.91005291005291,146.24338624338625 52.6984126984127,146.8783068783069 52.6984126984127,147.51322751322752 52.48677248677249,148.14814814814815 52.06349206349207,148.78306878306879 51.851851851851855,149.41798941798942 51.640211640211646,150.05291005291005 51.21693121693122,150.6878306878307 50.7936507936508,151.32275132275134 50.370370370370374,151.95767195767198 49.94708994708995,152.38095238095238 49.523809523809526,152.8042328042328 48.88888888888889,153.22751322751324 48.25396825396826,153.43915343915344 47.61904761904762,153.65079365079367 46.98412698412699,153.86243386243387 46.349206349206355,154.07407407407408 45.714285714285715,154.2857142857143 45.07936507936508,154.2857142857143 44.44444444444445,154.4973544973545 43.80952380952381,154.4973544973545 43.17460317460318,154.4973544973545 42.539682539682545,154.4973544973545 41.904761904761905,154.7089947089947 41.26984126984127,154.7089947089947 40.63492063492064,154.7089947089947 40.0,154.4973544973545 39.36507936507937,154.4973544973545 38.730158730158735,154.4973544973545 38.095238095238095,154.4973544973545 37.46031746031746,154.2857142857143 36.82539682539683,154.07407407407408 36.19047619047619,154.07407407407408 35.55555555555556,153.86243386243387 34.920634920634924,153.86243386243387 34.28571428571429,153.65079365079367 33.65079365079365,153.43915343915344 33.01587301587302,153.22751322751324 32.38095238095239,153.01587301587304 31.746031746031747,153.01587301587304 31.111111111111114,152.8042328042328 30.476190476190478,152.5925925925926 29.841269841269842,152.38095238095238 29.20634920634921,152.16931216931218 28.571428571428573,151.95767195767198 27.93650793650794,151.74603174603175 27.301587301587304,151.53439153439155 26.666666666666668,151.11111111111111 26.031746031746035,150.8994708994709 25.3968253968254,150.6878306878307 24.761904761904763,150.47619047619048 24.12698412698413,150.05291005291005 23.492063492063494,149.84126984126985 22.857142857142858,149.62962962962965 22.222222222222225,149.20634920634922 21.58730158730159,148.99470899470901 20.952380952380953,148.57142857142858 20.31746031746032,148.14814814814815 19.682539682539684,147.72486772486775 19.047619047619047,147.51322751322752 18.412698412698415,147.0899470899471 17.77777777777778,146.66666666666669 17.354497354497354,146.24338624338625 16.71957671957672,146.03174603174605 16.296296296296298,145.60846560846562 15.873015873015873,145.1851851851852 15.238095238095239,144.76190476190476 14.814814814814817,144.33862433862436 14.17989417989418,143.91534391534393 13.756613756613758,143.4920634920635 13.333333333333334,143.0687830687831 12.910052910052912,142.64550264550266 12.486772486772487,142.22222222222223 12.063492063492065,141.7989417989418 11.640211640211641,141.3756613756614 11.216931216931219,140.74074074074076 10.793650793650794,140.10582010582013 10.370370370370372,139.6825396825397 9.947089947089948,139.25925925925927 9.523809523809524,138.62433862433863 9.312169312169313,137.989417989418 8.88888888888889,137.35449735449737 8.465608465608467,136.93121693121694 8.253968253968255,136.2962962962963 8.042328042328043,135.66137566137567 8.042328042328043,135.02645502645504 7.830687830687832,134.3915343915344 7.6190476190476195,133.75661375661377 7.6190476190476195,133.12169312169314 7.6190476190476195,132.4867724867725 7.6190476190476195,131.85185185185185 7.830687830687832,131.21693121693121 7.830687830687832,130.58201058201058 8.042328042328043,129.94708994708995 8.042328042328043,129.31216931216932 8.253968253968255,128.67724867724868 8.465608465608467,128.04232804232805 8.88888888888889,127.40740740740742 9.100529100529101,126.77248677248679 9.523809523809524,126.34920634920636 9.735449735449736,125.71428571428572 10.15873015873016,125.2910052910053 10.582010582010582,124.86772486772487 11.005291005291006,124.23280423280424 11.428571428571429,123.80952380952382 11.851851851851853,123.3862433862434 12.486772486772487,122.96296296296298 12.910052910052912,122.53968253968254 13.544973544973546,122.11640211640213 14.17989417989418,121.90476190476191 14.814814814814817,121.6931216931217 15.449735449735451,121.26984126984128 16.084656084656086,121.05820105820106 16.71957671957672,120.84656084656086 17.354497354497354,120.42328042328043 17.98941798941799,120.21164021164022 18.624338624338627,120.21164021164022 19.25925925925926,120.21164021164022 19.682539682539684,119.7883597883598 20.31746031746032,119.7883597883598 20.952380952380953,119.57671957671958 21.58730158730159,119.57671957671958 22.222222222222225,119.15343915343917 22.857142857142858,118.94179894179895 23.492063492063494,118.73015873015873 24.12698412698413,118.51851851851853 24.761904761904763,118.30687830687832 25.3968253968254,118.0952380952381 26.031746031746035,117.67195767195768 26.666666666666668,117.46031746031747 27.301587301587304,117.03703703703705 27.93650793650794,116.61375661375662 28.571428571428573,116.1904761904762 28.994708994708997,115.76719576719577 29.41798941798942,115.34391534391536 29.841269841269842,114.92063492063492 30.264550264550266,114.28571428571429 30.68783068783069,113.65079365079366 30.899470899470902,113.01587301587303 31.111111111111114,112.3809523809524 31.322751322751326,111.74603174603176 31.322751322751326,111.11111111111111 31.53439153439154,110.47619047619048 31.53439153439154,109.84126984126985 31.53439153439154,109.20634920634922 31.322751322751326,108.57142857142858 31.111111111111114,107.93650793650795 30.68783068783069,107.51322751322752 30.264550264550266,107.0899470899471 29.841269841269842,106.45502645502647 29.20634920634921,106.03174603174604 28.571428571428573,105.60846560846562 27.93650793650794,105.3968253968254 27.301587301587304,105.18518518518519 26.666666666666668,104.76190476190477 26.031746031746035,104.55026455026456 25.3968253968254,104.33862433862434 24.761904761904763,104.12698412698414 24.12698412698413,103.70370370370371 23.492063492063494,103.4920634920635 22.857142857142858,103.06878306878308 22.222222222222225,102.85714285714286 21.58730158730159,102.43386243386244 20.952380952380953,102.22222222222223 20.31746031746032,102.01058201058201 19.682539682539684,101.5873015873016 19.047619047619047,101.37566137566138 18.412698412698415,100.95238095238096 17.77777777777778,100.74074074074075 17.142857142857146,100.31746031746033 16.50793650793651,99.8941798941799 15.873015873015873,99.47089947089948 15.238095238095239,99.25925925925927 14.814814814814817,98.83597883597885 14.17989417989418,98.62433862433863 13.756613756613758,98.2010582010582 13.121693121693122,97.77777777777779 12.486772486772487,97.35449735449737 11.851851851851853,96.93121693121694 11.216931216931219,96.71957671957672 10.582010582010582,96.2962962962963 10.15873015873016,95.87301587301587 9.523809523809524,95.44973544973546 8.88888888888889,95.02645502645504 8.253968253968255,94.60317460317461 7.6190476190476195,94.17989417989419 6.984126984126985,93.75661375661376 6.34920634920635,93.33333333333334 5.9259259259259265,92.91005291005291 5.291005291005291,92.4867724867725 4.656084656084657,92.06349206349208 4.2328042328042335,91.64021164021165 3.597883597883598,91.21693121693123 3.174603174603175,90.7936507936508 2.53968253968254,90.37037037037038 -0.4232804232804233,88.25396825396827" style="fill:none; stroke:#3300bb; stroke-width:1.0"  /><circle cx="-0.4232804232804233" cy="88.25396825396827" r="2.0" style="fill:none; stroke:#000000aa; stroke-width:0.25" /><circle cx="114.07407407407408" cy="-0.4232804232804233" r="2.0" style="fill:none; stroke:#000000aa; stroke-width:0.25" /><circle cx="190.47619047619048" cy="102.85714285714286" r="2.0" style="fill:none; stroke:#000000aa; stroke-width:0.25" /><circle cx="87.83068783068784" cy="175.87301587301587" r="2.0" style="fill:none; stroke:#000000aa; stroke-width:0.25" /><circle cx="0.21164021164021166" cy="88.46560846560847" r="2.0" style="fill:none; stroke:#ff3366aa; stroke-width:0.25" /><circle cx="113.65079365079366" cy="0.21164021164021166" r="2.0" style="fill:none; stroke:#ff3366aa; stroke-width:0.25" /><circle cx="190.26455026455028" cy="102.64550264550266" r="2.0" style="fill:none; stroke:#ff3366aa; stroke-width:0.25" /><circle cx="87.40740740740742" cy="175.66137566137567" r="2.0" style="fill:none; stroke:#ff3366aa; stroke-width:0.25" /><polyline points="10.793650793650794,83.17460317460318 10.15873015873016,83.3862433862434 9.523809523809524,83.59788359788361 8.88888888888889,83.80952380952381 8.253968253968255,84.23280423280424 7.6190476190476195,84.44444444444446 7.195767195767196,84.86772486772487 6.560846560846561,85.07936507936509 5.9259259259259265,85.29100529100529 5.291005291005291,85.5026455026455 4.656084656084657,85.71428571428572 4.021164021164021,86.13756613756614 3.3862433862433865,86.34920634920636 2.7513227513227516,86.77248677248677" style="fill:none; stroke:#001100; stroke-width:1.0" /><polyline points="9.523809523809524,95.44973544973546 8.88888888888889,95.02645502645504 8.253968253968255,94.60317460317461 7.6190476190476195,94.17989417989419 6.984126984126985,93.75661375661376 6.34920634920635,93.33333333333334 5.9259259259259265,92.91005291005291 5.291005291005291,92.4867724867725 4.656084656084657,92.06349206349208 4.2328042328042335,91.64021164021165 3.597883597883598,91.21693121693123 3.174603174603175,90.7936507936508 2.53968253968254,90.37037037037038" style="fill:none; stroke:#000011; stroke-width:1.0" /><polyline points="115.97883597883599,11.428571428571429 115.97883597883599,10.793650793650794 115.76719576719577,10.15873015873016 115.76719576719577,9.523809523809524 115.55555555555557,8.88888888888889 115.55555555555557,8.253968253968255 115.55555555555557,7.6190476190476195 115.34391534391536,6.984126984126985 115.34391534391536,6.34920634920635 115.13227513227514,5.714285714285714 115.13227513227514,5.07936507936508 114.92063492063492,4.444444444444445 114.92063492063492,3.8095238095238098 114.70899470899472,3.174603174603175" style="fill:none; stroke:#001100; stroke-width:1.0" /><polyline points="103.28042328042329,6.34920634920635 103.91534391534393,5.9259259259259265 104.33862433862434,5.502645502645503 104.97354497354497,5.291005291005291 105.3968253968254,4.867724867724868 106.03174603174604,4.444444444444445 106.66666666666667,4.021164021164021 107.3015873015873,3.597883597883598 107.93650793650795,3.174603174603175 108.57142857142858,2.9629629629629632 109.20634920634922,2.53968253968254 109.84126984126985,2.1164021164021167 110.47619047619048,1.9047619047619049" style="fill:none; stroke:#000011; stroke-width:1.0" /><polyline points="180.95238095238096,109.84126984126985 181.5873015873016,109.41798941798943 182.22222222222223,108.994708994709 182.64550264550266,108.57142857142858 183.2804232804233,108.14814814814815 183.91534391534393,107.72486772486774 184.55026455026456,107.3015873015873 184.973544973545,106.87830687830689 185.60846560846562,106.45502645502647 186.24338624338625,106.03174603174604 186.8783068783069,105.60846560846562 187.30158730158732,105.18518518518519 187.93650793650795,104.76190476190477" style="fill:none; stroke:#001100; stroke-width:1.0" /><polyline points="180.10582010582013,97.14285714285715 180.52910052910053,97.56613756613757 181.16402116402116,97.77777777777779 181.79894179894183,97.989417989418 182.22222222222223,98.41269841269842 182.85714285714286,98.62433862433863 183.4920634920635,99.04761904761905 184.12698412698415,99.25925925925927 184.7619047619048,99.68253968253968 185.39682539682542,99.8941798941799 185.82010582010582,100.31746031746033 186.45502645502646,100.52910052910053 187.08994708994712,100.95238095238096" style="fill:none; stroke:#000011; stroke-width:1.0" /><polyline points="83.17460317460318,164.8677248677249 83.3862433862434,165.50264550264552 83.80952380952381,166.13756613756615 84.02116402116403,166.7724867724868 84.23280423280424,167.40740740740742 84.44444444444446,168.04232804232805 84.65608465608466,168.67724867724868 84.86772486772487,169.31216931216932 85.07936507936509,169.94708994708995 85.29100529100529,170.58201058201058 85.71428571428572,171.21693121693124 85.92592592592594,171.85185185185188 86.34920634920636,172.4867724867725" style="fill:none; stroke:#001100; stroke-width:1.0" /><polyline points="97.56613756613757,169.52380952380955 96.93121693121694,169.73544973544975 96.2962962962963,169.94708994708995 95.87301587301587,170.37037037037038 95.23809523809524,170.58201058201058 94.60317460317461,171.005291005291 93.96825396825398,171.42857142857144 93.33333333333334,171.85185185185188 92.91005291005291,172.4867724867725 92.27513227513228,172.9100529100529 91.64021164021165,173.33333333333334 91.00529100529101,173.75661375661377 90.37037037037038,174.1798941798942" style="fill:none; stroke:#000011; stroke-width:1.0" /><polyline points="2.7513227513227516,86.77248677248677 -16.50793650793651,95.44973544973546" style="fill:none; stroke:#ffaa00; stroke-width:0.4" /><polyline points="2.53968253968254,90.37037037037038 -14.603174603174605,77.88359788359789" style="fill:none; stroke:#aaff00; stroke-width:0.4" /><polyline points="114.70899470899472,3.174603174603175 111.53439153439155,-17.77777777777778" style="fill:none; stroke:#ffaa00; stroke-width:0.4" /><polyline points="110.47619047619048,1.9047619047619049 128.46560846560848,-9.312169312169313" style="fill:none; stroke:#aaff00; stroke-width:0.4" /><polyline points="187.93650793650795,104.76190476190477 205.0793650793651,92.27513227513228" style="fill:none; stroke:#ffaa00; stroke-width:0.4" /><polyline points="187.08994708994712,100.95238095238096 205.71428571428572,111.11111111111111" style="fill:none; stroke:#aaff00; stroke-width:0.4" /><polyline points="86.34920634920636,172.4867724867725 94.39153439153439,191.95767195767198" style="fill:none; stroke:#ffaa00; stroke-width:0.4" /><polyline points="90.37037037037038,174.1798941798942 72.5925925925926,185.60846560846562" style="fill:none; stroke:#aaff00; stroke-width:0.4" /><circle cx="97.35449735449737" cy="92.06349206349208" r="1.0" style="fill:#444444; stroke-width:0" /><circle cx="92.06349206349208" cy="83.3862433862434" r="10.582010582010582" style="fill:#ff770022; stroke-width:0" /><circle cx="92.06349206349208" cy="83.3862433862434" r="1.0" style="fill:#ff7700; stroke-width:0" /></svg>