<?xml version="1.0" encoding="UTF-8" standalone="no"?><svg width="459.0476190476191" height="577.1428571428572" viewBox="-10 -10 173.01587301587304 212.3809523809524" xmlns="http://www.w3.org/2000/svg" xmlns:xlink="http://www.w3.org/1999/xlink"><polyline points="-0.21164021164021166,62.43386243386244 3.174603174603175,60.31746031746032 3.8095238095238098,59.8941798941799 4.444444444444445,59.682539682539684 4.867724867724868,59.25925925925927 5.502645502645503,59.04761904761905 5.9259259259259265,58.62433862433863 6.560846560846561,58.41269841269842 6.984126984126985,57.989417989417994 7.6190476190476195,57.777777777777786 8.042328042328043,57.35449735449736 8.677248677248677,56.93121693121694 9.312169312169313,56.71957671957672 9.735449735449736,56.2962962962963 10.370370370370372,55.87301587301588 11.005291005291006,55.449735449735456 11.640211640211641,55.02645502645503 12.275132275132275,54.60317460317461 12.910052910052912,54.179894179894184 13.544973544973546,53.968253968253975 13.96825396825397,53.54497354497355 14.603174603174605,53.12169312169313 15.238095238095239,52.91005291005291 15.661375661375663,52.48677248677249 16.296296296296298,52.06349206349207 16.931216931216934,51.851851851851855 17.566137566137566,51.42857142857143 17.98941798941799,51.00529100529101 18.624338624338627,50.58201058201058 19.25925925925926,50.158730158730165 19.894179894179896,49.73544973544974 20.529100529100532,49.31216931216932 21.164021164021165,49.1005291005291 21.58730158730159,48.677248677248684 22.222222222222225,48.46560846560847 22.857142857142858,48.042328042328045 23.492063492063494,47.61904761904762 24.12698412698413,47.195767195767196 24.761904761904763,46.98412698412699 25.185185185185187,46.560846560846564 25.820105820105823,46.349206349206355 26.243386243386244,45.92592592592593 26.87830687830688,45.714285714285715 27.513227513227516,45.29100529100529 28.14814814814815,44.867724867724874 28.783068783068785,44.65608465608466 29.41798941798942,44.232804232804234 30.052910052910054,43.80952380952381 30.68783068783069,43.386243386243386 31.322751322751326,43.17460317460318 31.746031746031747,42.75132275132275 32.16931216931217,42.32804232804233 32.592592592592595,41.904761904761905 33.01587301587302,41.48148148148149 33.43915343915344,41.058201058201064 33.86243386243387,40.63492063492064 34.28571428571429,40.0 34.70899470899471,39.36507936507937 34.920634920634924,38.730158730158735 35.13227513227513,38.095238095238095 35.13227513227513,37.46031746031746 35.13227513227513,36.82539682539683 35.13227513227513,36.19047619047619 34.920634920634924,35.55555555555556 34.920634920634924,34.920634920634924 34.4973544973545,34.28571428571429 34.28571428571429,33.65079365079365 34.074074074074076,33.01587301587302 33.65079365079365,32.592592592592595 33.22751322751323,31.95767195767196 32.804232804232804,31.53439153439154 32.38095238095239,31.111111111111114 31.95767195767196,30.68783068783069 31.53439153439154,30.264550264550266 31.111111111111114,29.841269841269842 30.68783068783069,29.41798941798942 30.264550264550266,28.994708994708997 29.629629629629633,28.571428571428573 29.20634920634921,28.14814814814815 28.783068783068785,27.724867724867728 28.35978835978836,27.301587301587304 27.93650793650794,26.87830687830688 27.513227513227516,26.455026455026456 27.089947089947092,26.031746031746035 26.666666666666668,25.3968253968254 26.243386243386244,24.973544973544975 25.820105820105823,24.338624338624342 25.3968253968254,23.915343915343918 24.973544973544975,23.280423280423282 24.55026455026455,22.645502645502646 24.338624338624342,22.010582010582013 23.915343915343918,21.375661375661377 23.703703703703706,20.740740740740744 23.280423280423282,20.105820105820108 23.06878306878307,19.47089947089947 22.857142857142858,18.83597883597884 22.645502645502646,18.201058201058203 22.433862433862437,17.566137566137566 22.222222222222225,16.931216931216934 22.222222222222225,16.296296296296298 22.010582010582013,15.661375661375663 21.7989417989418,15.026455026455027 21.7989417989418,14.391534391534393 21.7989417989418,13.756613756613758 21.7989417989418,13.121693121693122 22.010582010582013,12.486772486772487 22.222222222222225,11.851851851851853 22.433862433862437,11.216931216931219 22.645502645502646,10.582010582010582 22.857142857142858,9.947089947089948 23.06878306878307,9.312169312169313 23.492063492063494,8.677248677248677 23.915343915343918,8.042328042328043 24.12698412698413,7.407407407407408 24.55026455026455,6.984126984126985 24.973544973544975,6.560846560846561 25.3968253968254,6.137566137566138 25.820105820105823,5.714285714285714 26.455026455026456,5.291005291005291 27.089947089947092,4.867724867724868 27.724867724867728,4.656084656084657 28.14814814814815,4.2328042328042335 28.783068783068785,4.021164021164021 29.20634920634921,3.597883597883598 29.841269841269842,3.3862433862433865 30.476190476190478,3.174603174603175 31.111111111111114,2.7513227513227516 31.746031746031747,2.53968253968254 32.38095238095239,2.3280423280423284 33.01587301587302,2.1164021164021167 33.65079365079365,1.9047619047619049 34.28571428571429,1.6931216931216932 34.920634920634924,1.4814814814814816 35.34391534391535,1.0582010582010584 35.97883597883598,1.26984126984127 36.613756613756614,1.0582010582010584 37.248677248677254,1.0582010582010584 37.883597883597886,0.8465608465608466 38.51851851851852,0.8465608465608466 39.15343915343916,0.8465608465608466 39.78835978835979,0.8465608465608466 40.423280423280424,0.8465608465608466 41.058201058201064,0.4232804232804233 41.6931216931217,0.4232804232804233 42.32804232804233,0.634920634920635 42.96296296296297,0.634920634920635 43.5978835978836,0.634920634920635 44.021164021164026,0.21164021164021166 44.44444444444445,0.634920634920635 45.07936507936508,0.8465608465608466 46.349206349206355,1.0582010582010584 46.98412698412699,1.0582010582010584 47.61904761904762,1.26984126984127 48.25396825396826,1.4814814814814816 48.88888888888889,1.4814814814814816 49.523809523809526,1.6931216931216932 50.158730158730165,1.9047619047619049 50.7936507936508,2.1164021164021167 51.42857142857143,2.3280423280423284 52.06349206349207,2.7513227513227516 52.6984126984127,3.174603174603175 53.333333333333336,3.3862433862433865 53.75661375661376,3.8095238095238098 54.179894179894184,4.2328042328042335 54.60317460317461,4.656084656084657 55.02645502645503,5.291005291005291 55.23809523809524,5.9259259259259265 55.661375661375665,6.560846560846561 55.87301587301588,7.195767195767196 56.08465608465609,7.830687830687832 56.2962962962963,8.465608465608467 56.50793650793651,9.100529100529101 56.50793650793651,9.735449735449736 56.71957671957672,10.370370370370372 56.71957671957672,11.005291005291006 56.93121693121694,11.640211640211641 56.93121693121694,12.275132275132275 56.93121693121694,12.910052910052912 56.93121693121694,13.544973544973546 56.93121693121694,14.17989417989418 56.93121693121694,14.814814814814817 56.93121693121694,15.449735449735451 56.71957671957672,16.084656084656086 56.71957671957672,16.71957671957672 56.50793650793651,17.354497354497354 56.50793650793651,17.98941798941799 56.50793650793651,18.624338624338627 56.50793650793651,19.25925925925926 56.2962962962963,19.894179894179896 56.2962962962963,20.529100529100532 56.2962962962963,21.164021164021165 56.2962962962963,21.7989417989418 56.2962962962963,22.433862433862437 56.2962962962963,23.06878306878307 56.08465608465609,23.703703703703706 56.2962962962963,24.338624338624342 56.2962962962963,24.973544973544975 56.08465608465609,25.60846560846561 56.08465608465609,26.243386243386244 56.08465608465609,26.87830687830688 56.2962962962963,27.513227513227516 56.2962962962963,28.14814814814815 56.2962962962963,28.783068783068785 56.50793650793651,29.41798941798942 56.71957671957672,30.052910052910054 56.93121693121694,30.68783068783069 57.35449735449736,31.322751322751326 57.777777777777786,31.95767195767196 58.2010582010582,32.38095238095239 58.62433862433863,32.804232804232804 59.04761904761905,33.22751322751323 59.682539682539684,33.43915343915344 60.31746031746032,33.86243386243387 60.952380952380956,33.86243386243387 61.58730158730159,34.074074074074076 62.22222222222223,34.28571428571429 62.85714285714286,34.28571428571429 63.492063492063494,34.074074074074076 64.12698412698413,34.28571428571429 64.76190476190477,34.074074074074076 65.3968253968254,33.86243386243387 66.03174603174604,33.86243386243387 66.66666666666667,33.86243386243387 67.3015873015873,33.65079365079365 67.93650793650794,33.43915343915344 68.57142857142858,33.22751322751323 69.20634920634922,33.01587301587302 69.84126984126985,32.804232804232804 70.47619047619048,32.592592592592595 71.11111111111111,32.16931216931217 71.74603174603175,31.95767195767196 72.38095238095238,31.746031746031747 73.01587301587303,31.53439153439154 73.65079365079366,31.111111111111114 74.28571428571429,30.68783068783069 74.92063492063492,30.68783068783069 75.55555555555556,30.264550264550266 76.19047619047619,30.052910052910054 76.82539682539684,29.841269841269842 77.24867724867725,29.41798941798942 77.88359788359789,29.20634920634921 78.51851851851852,28.994708994708997 79.15343915343917,28.571428571428573 79.7883597883598,28.35978835978836 80.42328042328043,27.93650793650794 81.05820105820106,27.724867724867728 81.6931216931217,27.513227513227516 82.32804232804233,27.089947089947092 82.96296296296298,26.666666666666668 83.59788359788361,26.455026455026456 84.23280423280424,26.031746031746035 84.86772486772487,25.820105820105823 85.5026455026455,25.60846560846561 86.13756613756614,25.185185185185187 86.77248677248677,24.973544973544975 87.40740740740742,24.55026455026455 87.83068783068784,24.12698412698413 88.46560846560847,23.915343915343918 89.1005291005291,23.492063492063494 89.73544973544975,23.280423280423282 90.37037037037038,22.857142857142858 91.00529100529101,22.645502645502646 91.64021164021165,22.433862433862437 92.27513227513228,22.010582010582013 92.91005291005291,21.7989417989418 93.54497354497356,21.375661375661377 94.17989417989419,21.164021164021165 94.81481481481482,20.952380952380953 95.44973544973546,20.529100529100532 96.08465608465609,20.31746031746032 96.71957671957672,20.105820105820108 97.14285714285715,19.682539682539684 97.77777777777779,19.47089947089947 98.41269841269842,19.25925925925926 98.83597883597885,18.83597883597884 99.47089947089948,18.83597883597884 100.10582010582011,18.412698412698415 100.74074074074075,18.201058201058203 101.37566137566138,17.354497354497354 101.79894179894181,16.931216931216934 102.43386243386244,16.71957671957672 103.06878306878308,16.50793650793651 103.70370370370371,16.296296296296298 104.33862433862434,16.296296296296298 104.97354497354497,16.084656084656086 105.60846560846562,15.873015873015873 106.24338624338625,15.449735449735451 106.87830687830689,15.238095238095239 106.87830687830689,14.603174603174605 107.3015873015873,15.026455026455027 107.93650793650795,14.814814814814817 108.57142857142858,14.391534391534393 109.20634920634922,14.17989417989418 109.84126984126985,13.756613756613758 110.47619047619048,13.544973544973546 110.89947089947091,13.121693121693122 111.53439153439155,12.910052910052912 111.95767195767196,12.486772486772487 112.5925925925926,12.486772486772487 113.22751322751324,12.063492063492065 113.86243386243387,12.063492063492065 114.28571428571429,11.640211640211641 114.92063492063492,11.428571428571429 115.55555555555557,11.216931216931219 118.30687830687832,9.947089947089948" style="fill:none; stroke:#cc0000; stroke-width:1.0"  /><polyline points="118.30687830687832,9.947089947089948 120.21164021164022,12.6984126984127 120.63492063492065,13.333333333333334 121.05820105820106,13.96825396825397 121.26984126984128,14.603174603174605 121.6931216931217,15.238095238095239 122.11640211640213,15.873015873015873 122.53968253968254,16.50793650793651 122.96296296296298,16.931216931216934 123.3862433862434,17.566137566137566 123.80952380952382,18.201058201058203 124.02116402116403,18.83597883597884 124.44444444444446,19.25925925925926 124.86772486772487,19.894179894179896 125.2910052910053,20.529100529100532 125.71428571428572,21.164021164021165 126.13756613756615,21.58730158730159 126.56084656084657,22.222222222222225 126.98412698412699,22.857142857142858 127.40740740740742,23.280423280423282 127.83068783068784,23.915343915343918 128.25396825396825,24.338624338624342 128.67724867724868,24.973544973544975 129.10052910052912,25.3968253968254 129.52380952380955,26.031746031746035 129.94708994708995,26.455026455026456 130.37037037037038,27.089947089947092 130.7936507936508,27.513227513227516 131.21693121693121,27.93650793650794 131.64021164021165,28.35978835978836 132.06349206349208,28.994708994708997 132.4867724867725,29.41798941798942 132.9100529100529,30.052910052910054 133.33333333333334,30.476190476190478 133.75661375661377,30.899470899470902 134.17989417989418,31.322751322751326 134.6031746031746,31.95767195767196 135.02645502645504,32.38095238095239 135.44973544973547,32.804232804232804 135.87301587301587,33.22751322751323 136.2962962962963,33.65079365079365 136.71957671957674,34.28571428571429 136.93121693121694,34.920634920634924 137.35449735449737,35.34391534391535 137.7777777777778,35.97883597883598 138.2010582010582,36.402116402116405 138.41269841269843,37.03703703703704 138.83597883597884,37.46031746031746 139.04761904761907,38.095238095238095 139.47089947089947,38.730158730158735 139.6825396825397,39.36507936507937 140.10582010582013,40.0 140.31746031746033,40.63492063492064 140.74074074074076,41.26984126984127 140.95238095238096,41.904761904761905 141.3756613756614,42.32804232804233 141.5873015873016,42.96296296296297 141.7989417989418,43.5978835978836 141.7989417989418,44.232804232804234 142.01058201058203,44.867724867724874 142.01058201058203,45.50264550264551 141.7989417989418,46.13756613756614 141.5873015873016,46.77248677248678 141.3756613756614,47.40740740740741 140.95238095238096,48.042328042328045 140.52910052910053,48.46560846560847 140.10582010582013,49.1005291005291 139.47089947089947,49.523809523809526 139.04761904761907,49.94708994708995 138.41269841269843,50.370370370370374 137.7777777777778,50.7936507936508 137.14285714285717,51.21693121693122 136.5079365079365,51.42857142857143 135.87301587301587,51.640211640211646 135.23809523809524,51.640211640211646 134.6031746031746,52.06349206349207 133.96825396825398,52.06349206349207 133.33333333333334,52.06349206349207 132.6984126984127,52.06349206349207 132.06349206349208,52.27513227513228 131.42857142857144,52.27513227513228 130.7936507936508,52.06349206349207 130.15873015873018,52.27513227513228 129.52380952380955,52.06349206349207 128.88888888888889,52.06349206349207 128.25396825396825,52.06349206349207 127.61904761904763,51.851851851851855 126.98412698412699,51.851851851851855 126.34920634920636,51.851851851851855 125.71428571428572,51.640211640211646 125.07936507936509,51.640211640211646 124.44444444444446,51.42857142857143 123.80952380952382,51.21693121693122 123.17460317460318,51.21693121693122 122.53968253968254,51.42857142857143 121.90476190476191,51.21693121693122 121.26984126984128,51.00529100529101 120.63492063492065,51.00529100529101 120.00000000000001,51.00529100529101 119.36507936507937,51.00529100529101 118.73015873015873,51.00529100529101 118.0952380952381,51.00529100529101 117.46031746031747,51.21693121693122 116.82539682539684,51.21693121693122 116.1904761904762,51.42857142857143 115.55555555555557,51.640211640211646 114.92063492063492,51.851851851851855 114.28571428571429,52.06349206349207 113.65079365079366,52.27513227513228 113.01587301587303,52.48677248677249 112.3809523809524,52.6984126984127 111.95767195767196,53.12169312169313 111.32275132275133,53.333333333333336 110.6878306878307,53.75661375661376 110.05291005291006,54.179894179894184 109.62962962962963,54.60317460317461 108.994708994709,55.02645502645503 108.57142857142858,55.449735449735456 108.14814814814815,55.87301587301588 107.72486772486774,56.2962962962963 107.3015873015873,56.71957671957672 106.87830687830689,57.142857142857146 106.45502645502647,57.56613756613757 106.03174603174604,58.2010582010582 105.60846560846562,58.83597883597884 105.18518518518519,59.470899470899475 104.76190476190477,60.10582010582011 104.55026455026456,60.74074074074075 104.33862433862434,61.37566137566138 103.91534391534393,62.01058201058201 103.70370370370371,62.64550264550265 103.4920634920635,63.280423280423285 103.28042328042329,63.91534391534392 103.28042328042329,64.55026455026456 103.06878306878308,65.18518518518519 103.06878306878308,65.82010582010582 102.85714285714286,66.45502645502646 102.85714285714286,67.08994708994709 102.85714285714286,67.72486772486774 102.85714285714286,68.35978835978837 102.64550264550266,68.994708994709 102.85714285714286,69.62962962962963 102.85714285714286,70.26455026455027 102.85714285714286,70.8994708994709 102.85714285714286,71.53439153439155 103.06878306878308,72.16931216931218 103.06878306878308,72.80423280423281 103.28042328042329,73.43915343915344 103.4920634920635,74.07407407407408 103.4920634920635,74.70899470899471 103.70370370370371,75.34391534391536 103.91534391534393,75.97883597883599 104.12698412698414,76.61375661375662 104.55026455026456,77.24867724867725 104.76190476190477,77.88359788359789 104.97354497354497,78.51851851851852 105.18518518518519,79.15343915343917 105.3968253968254,79.7883597883598 105.60846560846562,80.42328042328043 105.82010582010582,81.05820105820106 106.24338624338625,81.48148148148148 106.45502645502647,82.11640211640213 106.87830687830689,82.75132275132276 107.3015873015873,83.3862433862434 107.72486772486774,84.02116402116403 108.14814814814815,84.65608465608466 108.57142857142858,85.29100529100529 108.994708994709,85.71428571428572 109.41798941798943,86.13756613756614 109.84126984126985,86.56084656084657 110.47619047619048,86.98412698412699 110.89947089947091,87.40740740740742 111.53439153439155,87.61904761904762 112.16931216931218,88.04232804232805 112.80423280423281,88.25396825396827 113.43915343915344,88.67724867724868 114.07407407407408,88.8888888888889 114.70899470899472,89.1005291005291 115.34391534391536,89.31216931216932 115.97883597883599,89.52380952380953 116.61375661375662,89.52380952380953 117.24867724867725,89.73544973544975 117.88359788359789,89.73544973544975 118.51851851851853,89.73544973544975 119.15343915343917,89.73544973544975 119.7883597883598,89.73544973544975 120.42328042328043,89.73544973544975 121.05820105820106,89.52380952380953 121.6931216931217,89.52380952380953 122.32804232804234,89.52380952380953 122.96296296296298,89.31216931216932 123.3862433862434,88.8888888888889 124.02116402116403,88.8888888888889 124.65608465608466,88.67724867724868 125.2910052910053,88.46560846560847 125.92592592592594,88.25396825396827 126.56084656084657,88.04232804232805 127.1957671957672,88.04232804232805 127.61904761904763,87.61904761904762 128.25396825396825,87.40740740740742 128.88888888888889,87.1957671957672 129.52380952380955,86.77248677248677 130.15873015873018,86.34920634920636 130.7936507936508,86.13756613756614 131.42857142857144,85.92592592592594 132.06349206349208,85.5026455026455 132.6984126984127,85.07936507936509 133.33333333333334,84.65608465608466 133.96825396825398,84.23280423280424 134.6031746031746,83.80952380952381 135.23809523809524,83.3862433862434 135.87301587301587,82.96296296296298 136.5079365079365,82.53968253968254 137.14285714285717,82.32804232804233 137.7777777777778,82.11640211640213 138.41269841269843,81.6931216931217 139.04761904761907,81.48148148148148 139.6825396825397,81.26984126984128 140.31746031746033,81.05820105820106 140.95238095238096,80.84656084656085 141.5873015873016,80.63492063492065 142.22222222222223,80.42328042328043 142.85714285714286,80.21164021164022 143.4920634920635,80.0 144.12698412698413,79.7883597883598 144.76190476190476,79.57671957671958 145.39682539682542,79.57671957671958 146.03174603174605,79.57671957671958 146.66666666666669,79.57671957671958 147.30158730158732,79.7883597883598 147.93650793650795,80.0 148.57142857142858,80.21164021164022 149.20634920634922,80.42328042328043 149.62962962962965,80.84656084656085 150.26455026455028,81.26984126984128 150.6878306878307,81.6931216931217 151.11111111111111,82.11640211640213 151.53439153439155,82.75132275132276 151.74603174603175,83.3862433862434 152.16931216931218,84.02116402116403 152.38095238095238,84.65608465608466 152.38095238095238,85.29100529100529 152.5925925925926,85.92592592592594 152.5925925925926,86.56084656084657 152.5925925925926,87.1957671957672 152.5925925925926,87.83068783068784 152.5925925925926,88.46560846560847 152.5925925925926,89.1005291005291 152.38095238095238,89.73544973544975 152.38095238095238,90.37037037037038 152.16931216931218,91.00529100529101 151.95767195767198,91.64021164021165 151.74603174603175,92.27513227513228 151.74603174603175,92.91005291005291 151.53439153439155,93.54497354497356 151.11111111111111,94.17989417989419 150.8994708994709,94.81481481481482 150.6878306878307,95.44973544973546 150.47619047619048,96.08465608465609 150.26455026455028,96.71957671957672 150.05291005291005,97.35449735449737 149.62962962962965,97.989417989418 149.41798941798942,98.62433862433863 149.20634920634922,99.25925925925927 148.78306878306879,99.8941798941799 148.57142857142858,100.52910052910053 148.14814814814815,101.16402116402116 147.93650793650795,101.79894179894181 147.72486772486775,102.43386243386244 147.30158730158732,103.06878306878308 147.0899470899471,103.70370370370371 146.8783068783069,104.33862433862434 146.45502645502646,104.76190476190477 146.24338624338625,105.3968253968254 145.82010582010582,106.03174603174604 145.39682539682542,106.66666666666667 145.1851851851852,107.3015873015873 144.76190476190476,107.93650793650795 144.55026455026456,108.57142857142858 144.12698412698413,109.20634920634922 143.91534391534393,109.84126984126985 143.4920634920635,110.47619047619048 143.2804232804233,111.11111111111111 143.0687830687831,111.74603174603176 143.0687830687831,112.3809523809524 142.85714285714286,113.01587301587303 142.64550264550266,113.65079365079366 142.43386243386246,114.28571428571429 142.22222222222223,114.92063492063492 142.22222222222223,115.55555555555557 142.01058201058203,116.1904761904762 141.7989417989418,116.82539682539684 141.5873015873016,117.46031746031747 141.5873015873016,118.0952380952381 141.3756613756614,118.73015873015873 141.3756613756614,119.36507936507937 141.3756613756614,120.00000000000001 141.16402116402116,120.63492063492065 141.16402116402116,121.26984126984128 141.16402116402116,121.90476190476191 140.95238095238096,122.53968253968254 140.95238095238096,123.17460317460318 140.95238095238096,123.80952380952382 140.95238095238096,124.44444444444446 140.95238095238096,125.07936507936509 140.95238095238096,125.71428571428572 140.95238095238096,126.34920634920636 140.95238095238096,126.98412698412699 140.95238095238096,127.61904761904763 141.16402116402116,128.25396825396825 141.16402116402116,128.88888888888889 141.16402116402116,129.52380952380955 141.3756613756614,130.15873015873018 141.3756613756614,130.7936507936508 141.3756613756614,131.42857142857144 141.5873015873016,132.06349206349208 141.5873015873016,132.6984126984127 141.7989417989418,133.33333333333334 141.7989417989418,133.96825396825398 142.01058201058203,134.6031746031746 142.22222222222223,135.23809523809524 142.22222222222223,135.87301587301587 142.43386243386246,136.5079365079365 142.43386243386246,137.14285714285717 142.64550264550266,137.7777777777778 142.85714285714286,138.41269841269843 143.0687830687831,139.04761904761907 143.0687830687831,139.6825396825397 143.2804232804233,140.31746031746033 143.4920634920635,140.95238095238096 143.70370370370372,141.5873015873016 143.91534391534393,142.22222222222223 144.12698412698413,142.85714285714286 144.33862433862436,143.4920634920635 144.55026455026456,144.12698412698413 144.76190476190476,144.76190476190476 144.973544973545,145.39682539682542 145.39682539682542,146.03174603174605 145.60846560846562,146.66666666666669 146.66666666666669,150.05291005291005" style="fill:none; stroke:#999900; stroke-width:1.0"  /><polyline points="146.66666666666669,150.05291005291005 144.12698412698413,151.11111111111111 143.4920634920635,151.32275132275134 142.85714285714286,151.74603174603175 142.22222222222223,151.95767195767198 141.5873015873016,152.16931216931218 140.95238095238096,152.38095238095238 140.31746031746033,152.8042328042328 139.6825396825397,153.01587301587304 139.04761904761907,153.22751322751324 138.41269841269843,153.43915343915344 137.7777777777778,153.86243386243387 137.14285714285717,154.07407407407408 136.5079365079365,154.2857142857143 135.87301587301587,154.4973544973545 135.23809523809524,154.92063492063494 134.6031746031746,155.13227513227514 133.96825396825398,155.34391534391534 133.33333333333334,155.55555555555557 132.6984126984127,155.76719576719577 132.06349206349208,156.1904761904762 131.42857142857144,156.4021164021164 130.7936507936508,156.61375661375664 130.15873015873018,156.82539682539684 129.52380952380955,157.03703703703704 128.88888888888889,157.46031746031747 128.25396825396825,157.46031746031747 127.61904761904763,157.67195767195767 126.98412698412699,157.8835978835979 126.34920634920636,158.0952380952381 125.71428571428572,158.30687830687833 125.07936507936509,158.51851851851853 124.44444444444446,158.73015873015873 123.80952380952382,158.73015873015873 123.17460317460318,158.94179894179896 122.53968253968254,159.15343915343917 121.90476190476191,159.36507936507937 121.26984126984128,159.36507936507937 120.63492063492065,159.36507936507937 120.00000000000001,159.36507936507937 119.36507936507937,159.36507936507937 118.94179894179895,158.94179894179896 118.30687830687832,159.15343915343917 117.67195767195768,158.94179894179896 117.03703703703705,158.51851851851853 116.4021164021164,158.0952380952381 115.76719576719577,157.67195767195767 115.34391534391536,157.24867724867727 114.92063492063492,156.61375661375664 114.49735449735451,155.978835978836 114.28571428571429,155.34391534391534 114.07407407407408,154.7089947089947 113.86243386243387,154.07407407407408 113.65079365079366,153.43915343915344 113.65079365079366,152.8042328042328 113.43915343915344,152.16931216931218 113.43915343915344,151.53439153439155 113.43915343915344,150.8994708994709 113.43915343915344,150.26455026455028 113.43915343915344,149.62962962962965 113.43915343915344,148.99470899470901 113.65079365079366,148.35978835978838 113.86243386243387,147.72486772486775 113.65079365079366,147.0899470899471 113.86243386243387,146.45502645502646 113.86243386243387,145.82010582010582 114.07407407407408,145.1851851851852 114.07407407407408,144.55026455026456 114.28571428571429,143.91534391534393 114.49735449735451,143.2804232804233 114.49735449735451,142.64550264550266 114.70899470899472,142.01058201058203 114.70899470899472,141.3756613756614 114.70899470899472,140.74074074074076 114.70899470899472,140.10582010582013 114.70899470899472,139.47089947089947 114.70899470899472,138.83597883597884 114.70899470899472,138.2010582010582 114.49735449735451,137.56613756613757 114.28571428571429,136.93121693121694 114.07407407407408,136.2962962962963 113.86243386243387,135.66137566137567 113.65079365079366,135.02645502645504 113.22751322751324,134.3915343915344 112.80423280423281,133.75661375661377 112.3809523809524,133.33333333333334 111.95767195767196,132.6984126984127 111.53439153439155,132.27513227513228 110.89947089947091,131.85185185185185 110.26455026455027,131.42857142857144 109.62962962962963,131.005291005291 108.994708994709,130.7936507936508 108.35978835978837,130.58201058201058 107.72486772486774,130.37037037037038 107.0899470899471,130.37037037037038 106.45502645502647,130.15873015873018 105.82010582010582,130.15873015873018 105.18518518518519,129.94708994708995 104.55026455026456,129.94708994708995 103.91534391534393,129.94708994708995 103.28042328042329,129.94708994708995 102.64550264550266,129.94708994708995 102.01058201058201,129.94708994708995 101.37566137566138,129.94708994708995 100.74074074074075,130.15873015873018 100.10582010582011,130.15873015873018 99.47089947089948,130.15873015873018 98.83597883597885,130.15873015873018 98.2010582010582,130.37037037037038 97.56613756613757,130.37037037037038 96.93121693121694,130.58201058201058 96.2962962962963,130.7936507936508 95.66137566137567,130.7936507936508 95.02645502645504,131.005291005291 94.39153439153439,131.21693121693121 93.75661375661376,131.64021164021165 93.12169312169313,131.85185185185185 92.4867724867725,132.27513227513228 91.85185185185186,132.4867724867725 91.21693121693123,132.4867724867725 90.58201058201058,132.6984126984127 89.94708994708995,133.12169312169314 89.31216931216932,133.33333333333334 88.67724867724868,133.54497354497354 88.04232804232805,133.96825396825398 87.61904761904762,134.3915343915344 86.98412698412699,134.81481481481484 86.34920634920636,135.23809523809524 85.71428571428572,135.66137566137567 85.07936507936509,136.0846560846561 84.65608465608466,136.5079365079365 84.23280423280424,137.14285714285717 83.80952380952381,137.56613756613757 83.3862433862434,138.2010582010582 83.17460317460318,138.83597883597884 82.96296296296298,139.47089947089947 82.75132275132276,140.10582010582013 82.53968253968254,140.74074074074076 82.53968253968254,141.3756613756614 82.32804232804233,142.01058201058203 82.32804232804233,142.64550264550266 82.53968253968254,143.2804232804233 82.53968253968254,143.91534391534393 82.75132275132276,144.55026455026456 82.75132275132276,145.1851851851852 82.96296296296298,145.82010582010582 83.17460317460318,146.45502645502646 83.59788359788361,147.0899470899471 84.02116402116403,147.51322751322752 84.23280423280424,148.14814814814815 84.44444444444446,148.78306878306879 84.86772486772487,149.41798941798942 85.29100529100529,150.05291005291005 85.5026455026455,150.6878306878307 85.92592592592594,151.11111111111111 86.34920634920636,151.74603174603175 86.77248677248677,152.38095238095238 87.1957671957672,152.8042328042328 87.61904761904762,153.43915343915344 88.04232804232805,153.86243386243387 88.46560846560847,154.2857142857143 88.8888888888889,154.7089947089947 89.31216931216932,155.13227513227514 89.73544973544975,155.55555555555557 90.15873015873017,156.1904761904762 90.58201058201058,156.61375661375664 91.00529100529101,157.03703703703704 91.42857142857143,157.67195767195767 91.85185185185186,158.30687830687833 92.27513227513228,158.94179894179896 92.69841269841271,159.36507936507937 93.12169312169313,160.0 93.54497354497356,160.63492063492066 93.75661375661376,161.2698412698413 94.17989417989419,161.6931216931217 94.39153439153439,162.32804232804233 94.60317460317461,162.96296296296296 94.81481481481482,163.59788359788362 95.02645502645504,164.23280423280426 95.02645502645504,164.8677248677249 95.02645502645504,165.50264550264552 95.02645502645504,166.13756613756615 94.81481481481482,166.7724867724868 94.60317460317461,167.40740740740742 94.39153439153439,168.04232804232805 93.96825396825398,168.46560846560848 93.54497354497356,169.10052910052912 93.12169312169313,169.52380952380955 92.4867724867725,169.94708994708995 91.85185185185186,170.37037037037038 91.21693121693123,170.58201058201058 90.58201058201058,171.005291005291 89.94708994708995,171.21693121693124 89.31216931216932,171.42857142857144 88.67724867724868,171.64021164021165 88.04232804232805,172.06349206349208 87.40740740740742,172.27513227513228 86.77248677248677,172.27513227513228 86.13756613756614,172.4867724867725 85.5026455026455,172.6984126984127 84.86772486772487,172.6984126984127 84.23280423280424,172.6984126984127 83.59788359788361,172.9100529100529 82.96296296296298,173.12169312169314 82.32804232804233,173.33333333333334 81.6931216931217,173.33333333333334 81.05820105820106,173.54497354497354 80.42328042328043,173.54497354497354 79.7883597883598,173.75661375661377 79.15343915343917,173.96825396825398 78.51851851851852,174.1798941798942 77.88359788359789,174.3915343915344 77.24867724867725,174.3915343915344 76.61375661375662,174.6031746031746 75.97883597883599,174.81481481481484 75.34391534391536,175.02645502645504 74.70899470899471,175.02645502645504 74.07407407407408,175.23809523809524 73.43915343915344,175.44973544973547 72.80423280423281,175.66137566137567 72.16931216931218,175.66137566137567 71.53439153439155,175.87301587301587 70.8994708994709,176.0846560846561 70.26455026455027,176.2962962962963 69.62962962962963,176.50793650793653 68.994708994709,176.71957671957674 68.35978835978837,176.93121693121694 67.72486772486774,176.93121693121694 67.08994708994709,177.14285714285717 66.45502645502646,177.35449735449737 65.82010582010582,177.56613756613757 65.18518518518519,177.7777777777778 64.55026455026456,177.989417989418 63.91534391534392,177.989417989418 63.280423280423285,178.2010582010582 62.64550264550265,178.41269841269843 62.01058201058201,178.62433862433863 61.37566137566138,178.83597883597884 60.74074074074075,179.04761904761907 60.10582010582011,179.25925925925927 59.470899470899475,179.4708994708995 58.83597883597884,179.6825396825397 58.2010582010582,180.10582010582013 57.56613756613757,180.10582010582013 56.93121693121694,180.52910052910053 56.2962962962963,180.74074074074076 55.661375661375665,180.95238095238096 55.02645502645503,181.16402116402116 54.39153439153439,181.3756613756614 53.75661375661376,181.5873015873016 53.12169312169313,182.01058201058203 52.48677248677249,182.43386243386246 51.851851851851855,182.64550264550266 51.21693121693122,182.85714285714286 50.58201058201058,183.0687830687831 49.94708994708995,183.4920634920635 49.31216931216932,183.70370370370372 48.677248677248684,183.91534391534393 48.042328042328045,184.12698412698415 47.40740740740741,184.55026455026456 46.77248677248678,184.7619047619048 46.13756613756614,184.973544973545 45.50264550264551,185.39682539682542 44.867724867724874,185.60846560846562 44.232804232804234,186.03174603174605 43.5978835978836,186.24338624338625 42.96296296296297,186.66666666666669 42.32804232804233,186.8783068783069 41.6931216931217,187.30158730158732 41.058201058201064,187.51322751322752 40.63492063492064,187.93650793650795 40.0,188.14814814814815 39.36507936507937,188.57142857142858 38.730158730158735,188.99470899470901 38.095238095238095,189.41798941798945 37.46031746031746,189.62962962962965 36.82539682539683,190.05291005291008 36.19047619047619,190.47619047619048 32.804232804232804,192.3809523809524" style="fill:none; stroke:#00aa99; stroke-width:1.0"  /><polyline points="32.804232804232804,192.3809523809524 31.95767195767196,188.78306878306879 31.746031746031747,188.14814814814815 31.746031746031747,187.51322751322752 31.53439153439154,186.8783068783069 31.53439153439154,186.24338624338625 31.322751322751326,185.60846560846562 31.111111111111114,184.973544973545 30.899470899470902,184.33862433862436 30.68783068783069,183.70370370370372 30.68783068783069,183.0687830687831 30.476190476190478,182.43386243386246 30.052910052910054,181.79894179894183 30.052910052910054,181.16402116402116 29.841269841269842,180.52910052910053 29.629629629629633,179.8941798941799 29.41798941798942,179.25925925925927 29.41798941798942,178.62433862433863 29.20634920634921,177.989417989418 28.994708994708997,177.35449735449737 28.994708994708997,176.71957671957674 28.783068783068785,176.0846560846561 28.571428571428573,175.44973544973547 28.571428571428573,174.81481481481484 28.35978835978836,174.1798941798942 28.14814814814815,173.54497354497354 27.93650793650794,172.9100529100529 27.93650793650794,172.27513227513228 27.724867724867728,171.64021164021165 27.513227513227516,171.005291005291 27.513227513227516,170.37037037037038 27.513227513227516,169.73544973544975 27.513227513227516,169.10052910052912 27.301587301587304,168.46560846560848 27.301587301587304,167.83068783068785 27.089947089947092,167.19576719576722 27.089947089947092,166.56084656084658 26.87830687830688,165.92592592592595 26.666666666666668,165.2910052910053 26.666666666666668,164.65608465608466 26.455026455026456,164.02116402116403 26.455026455026456,163.3862433862434 26.243386243386244,162.75132275132276 26.243386243386244,162.11640211640213 26.031746031746035,161.4814814814815 26.031746031746035,160.84656084656086 25.820105820105823,160.21164021164023 25.820105820105823,159.5767195767196 25.820105820105823,158.94179894179896 25.60846560846561,158.30687830687833 25.60846560846561,157.67195767195767 25.3968253968254,157.03703703703704 25.3968253968254,156.4021164021164 25.185185185185187,155.76719576719577 25.185185185185187,155.13227513227514 25.185185185185187,154.4973544973545 24.973544973544975,153.86243386243387 24.973544973544975,153.22751322751324 24.761904761904763,152.5925925925926 24.761904761904763,151.95767195767198 24.761904761904763,151.32275132275134 24.55026455026455,150.6878306878307 24.55026455026455,150.05291005291005 24.55026455026455,149.41798941798942 24.55026455026455,148.78306878306879 24.55026455026455,148.14814814814815 24.55026455026455,147.51322751322752 24.338624338624342,146.8783068783069 24.55026455026455,146.24338624338625 24.55026455026455,145.60846560846562 24.55026455026455,144.973544973545 24.761904761904763,144.33862433862436 24.761904761904763,143.70370370370372 24.973544973544975,143.0687830687831 24.973544973544975,142.43386243386246 25.185185185185187,141.7989417989418 25.3968253968254,141.16402116402116 25.60846560846561,140.52910052910053 25.820105820105823,139.8941798941799 25.820105820105823,139.25925925925927 26.031746031746035,138.62433862433863 26.243386243386244,137.989417989418 26.455026455026456,137.35449735449737 26.87830687830688,136.71957671957674 27.089947089947092,136.0846560846561 27.301587301587304,135.44973544973547 27.724867724867728,134.81481481481484 27.93650793650794,134.17989417989418 28.35978835978836,133.75661375661377 28.783068783068785,133.12169312169314 29.20634920634921,132.6984126984127 29.629629629629633,132.27513227513228 30.052910052910054,131.85185185185185 30.68783068783069,131.42857142857144 31.322751322751326,131.005291005291 31.95767195767196,130.58201058201058 32.592592592592595,130.37037037037038 33.22751322751323,130.15873015873018 33.86243386243387,130.15873015873018 34.4973544973545,129.94708994708995 35.13227513227513,129.94708994708995 35.76719576719577,129.94708994708995 36.402116402116405,129.94708994708995 37.03703703703704,129.94708994708995 37.67195767195768,129.94708994708995 38.30687830687831,129.94708994708995 38.94179894179894,129.94708994708995 39.57671957671958,129.94708994708995 40.211640211640216,129.94708994708995 40.84656084656085,130.15873015873018 41.48148148148149,130.15873015873018 42.11640211640212,130.15873015873018 42.75132275132275,130.15873015873018 43.386243386243386,130.37037037037038 44.021164021164026,130.37037037037038 44.65608465608466,130.58201058201058 45.29100529100529,130.7936507936508 45.92592592592593,130.7936507936508 46.349206349206355,131.21693121693121 46.98412698412699,131.21693121693121 47.61904761904762,131.42857142857144 48.25396825396826,131.64021164021165 48.88888888888889,131.85185185185185 49.523809523809526,132.06349206349208 50.158730158730165,132.27513227513228 50.7936507936508,132.27513227513228 51.42857142857143,132.4867724867725 52.06349206349207,132.4867724867725 52.6984126984127,132.6984126984127 53.333333333333336,132.4867724867725 53.968253968253975,132.4867724867725 54.60317460317461,132.4867724867725 55.23809523809524,132.4867724867725 55.87301587301588,132.4867724867725 56.50793650793651,132.27513227513228 57.142857142857146,132.27513227513228 57.777777777777786,132.06349206349208 58.41269841269842,131.85185185185185 59.04761904761905,131.64021164021165 59.682539682539684,131.42857142857144 60.31746031746032,131.21693121693121 60.952380952380956,130.7936507936508 61.58730158730159,130.58201058201058 62.01058201058201,130.15873015873018 62.64550264550265,129.94708994708995 63.06878306878308,129.52380952380955 63.492063492063494,129.10052910052912 63.91534391534392,128.67724867724868 64.55026455026456,128.25396825396825 64.97354497354497,127.61904761904763 65.3968253968254,126.98412698412699 65.82010582010582,126.34920634920636 66.03174603174604,125.71428571428572 66.24338624338625,125.07936507936509 66.45502645502646,124.44444444444446 66.45502645502646,123.80952380952382 66.66666666666667,123.17460317460318 66.66666666666667,122.53968253968254 66.66666666666667,121.90476190476191 66.66666666666667,121.26984126984128 66.66666666666667,120.63492063492065 66.66666666666667,120.00000000000001 66.66666666666667,119.36507936507937 66.66666666666667,118.73015873015873 66.66666666666667,118.0952380952381 66.66666666666667,117.46031746031747 66.45502645502646,116.82539682539684 66.45502645502646,116.1904761904762 66.24338624338625,115.55555555555557 66.24338624338625,114.92063492063492 66.03174603174604,114.28571428571429 66.03174603174604,113.65079365079366 65.82010582010582,113.01587301587303 65.60846560846561,112.3809523809524 65.3968253968254,111.74603174603176 65.18518518518519,111.11111111111111 65.18518518518519,110.47619047619048 64.97354497354497,109.84126984126985 64.97354497354497,109.20634920634922 64.76190476190477,108.57142857142858 64.55026455026456,107.93650793650795 64.55026455026456,107.3015873015873 64.33862433862434,106.66666666666667 64.12698412698413,106.03174603174604 64.12698412698413,105.3968253968254 63.91534391534392,104.76190476190477 63.70370370370371,104.12698412698414 63.70370370370371,103.4920634920635 63.492063492063494,102.85714285714286 63.492063492063494,102.22222222222223 63.280423280423285,101.5873015873016 63.06878306878308,100.95238095238096 62.85714285714286,100.31746031746033 62.85714285714286,99.68253968253968 62.43386243386244,99.04761904761905 62.22222222222223,98.41269841269842 62.01058201058201,97.77777777777779 61.798941798941804,97.14285714285715 61.58730158730159,96.50793650793652 61.16402116402117,95.87301587301587 60.74074074074075,95.23809523809524 60.31746031746032,94.60317460317461 59.8941798941799,93.96825396825398 59.470899470899475,93.33333333333334 59.04761904761905,92.91005291005291 58.62433862433863,92.4867724867725 58.2010582010582,92.06349206349208 57.777777777777786,91.64021164021165 57.142857142857146,91.21693121693123 56.71957671957672,90.7936507936508 56.08465608465609,90.37037037037038 55.449735449735456,89.94708994708995 54.81481481481482,89.52380952380953 54.179894179894184,89.31216931216932 53.54497354497355,89.1005291005291 52.91005291005291,88.8888888888889 52.27513227513228,88.8888888888889 51.640211640211646,88.67724867724868 51.00529100529101,88.46560846560847 50.370370370370374,88.25396825396827 49.73544973544974,88.25396825396827 49.1005291005291,88.25396825396827 48.46560846560847,88.25396825396827 47.830687830687836,88.25396825396827 47.195767195767196,88.46560846560847 46.560846560846564,88.46560846560847 45.92592592592593,88.8888888888889 45.29100529100529,89.1005291005291 44.65608465608466,89.52380952380953 44.021164021164026,89.73544973544975 43.5978835978836,90.15873015873017 42.96296296296297,90.58201058201058 42.32804232804233,91.00529100529101 41.6931216931217,91.42857142857143 41.26984126984127,91.85185185185186 40.63492063492064,92.27513227513228 40.0,92.69841269841271 39.36507936507937,93.12169312169313 38.730158730158735,93.54497354497356 38.30687830687831,93.96825396825398 37.883597883597886,94.39153439153439 37.46031746031746,94.81481481481482 37.03703703703704,95.23809523809524 36.613756613756614,95.66137566137567 36.19047619047619,96.2962962962963 35.76719576719577,96.71957671957672 35.34391534391535,97.35449735449737 34.920634920634924,97.77777777777779 34.4973544973545,98.2010582010582 34.074074074074076,98.62433862433863 33.65079365079365,99.04761904761905 33.22751322751323,99.47089947089948 32.592592592592595,99.8941798941799 32.16931216931217,100.31746031746033 31.53439153439154,100.74074074074075 30.899470899470902,100.95238095238096 30.476190476190478,101.37566137566138 29.841269841269842,101.5873015873016 29.20634920634921,102.01058201058201 28.571428571428573,102.43386243386244 27.93650793650794,102.64550264550266 27.301587301587304,102.85714285714286 26.666666666666668,103.06878306878308 26.031746031746035,103.28042328042329 25.3968253968254,103.4920634920635 24.761904761904763,103.70370370370371 24.12698412698413,103.70370370370371 23.492063492063494,103.4920634920635 22.857142857142858,103.4920634920635 22.222222222222225,103.06878306878308 21.58730158730159,102.85714285714286 21.164021164021165,102.43386243386244 20.740740740740744,102.01058201058201 20.31746031746032,101.5873015873016 19.682539682539684,101.16402116402116 19.25925925925926,100.74074074074075 18.83597883597884,100.31746031746033 18.412698412698415,99.8941798941799 17.98941798941799,99.47089947089948 17.566137566137566,99.04761904761905 17.142857142857146,98.41269841269842 16.71957671957672,97.77777777777779 16.50793650793651,97.14285714285715 16.084656084656086,96.71957671957672 15.873015873015873,96.08465608465609 15.449735449735451,95.44973544973546 15.238095238095239,94.81481481481482 15.026455026455027,94.17989417989419 14.603174603174605,93.54497354497356 14.391534391534393,92.91005291005291 13.96825396825397,92.27513227513228 13.756613756613758,91.64021164021165 13.544973544973546,91.00529100529101 13.121693121693122,90.37037037037038 12.910052910052912,89.73544973544975 12.6984126984127,89.1005291005291 12.275132275132275,88.46560846560847 12.063492063492065,87.83068783068784 11.851851851851853,87.1957671957672 11.428571428571429,86.56084656084657 11.216931216931219,85.92592592592594 10.793650793650794,85.29100529100529 10.582010582010582,84.65608465608466 10.370370370370372,84.02116402116403 9.947089947089948,83.3862433862434 9.735449735449736,82.75132275132276 9.523809523809524,82.11640211640213 9.100529100529101,81.48148148148148 8.88888888888889,80.84656084656085 8.677248677248677,80.21164021164022 8.253968253968255,79.57671957671958 8.042328042328043,78.94179894179895 7.830687830687832,78.30687830687832 7.407407407407408,77.67195767195767 6.984126984126985,77.24867724867725 6.772486772486773,76.61375661375662 6.34920634920635,75.97883597883599 6.137566137566138,75.34391534391536 5.9259259259259265,74.70899470899471 5.714285714285714,74.07407407407408 5.291005291005291,73.43915343915344 5.07936507936508,72.80423280423281 4.656084656084657,72.16931216931218 4.444444444444445,71.53439153439155 4.2328042328042335,70.8994708994709 4.021164021164021,70.26455026455027 3.597883597883598,69.62962962962963 3.3862433862433865,68.994708994709 2.9629629629629632,68.35978835978837 2.7513227513227516,67.72486772486774 2.3280423280423284,67.08994708994709 1.9047619047619049,66.66666666666667 1.6931216931216932,66.03174603174604 1.26984126984127,65.3968253968254 -0.21164021164021166,62.43386243386244" style="fill:none; stroke:#3300bb; stroke-width:1.0"  /><circle cx="-0.21164021164021166" cy="62.43386243386244" r="2.0" style="fill:none; stroke:#000000aa; stroke-width:0.25" /><circle cx="118.30687830687832" cy="9.947089947089948" r="2.0" style="fill:none; stroke:#000000aa; stroke-width:0.25" /><circle cx="146.66666666666669" cy="150.05291005291005" r="2.0" style="fill:none; stroke:#000000aa; stroke-width:0.25" /><circle cx="32.804232804232804" cy="192.3809523809524" r="2.0" style="fill:none; stroke:#000000aa; stroke-width:0.25" /><circle cx="0.21164021164021166" cy="62.22222222222223" r="2.0" style="fill:none; stroke:#ff3366aa; stroke-width:0.25" /><circle cx="118.30687830687832" cy="9.947089947089948" r="2.0" style="fill:none; stroke:#ff3366aa; stroke-width:0.25" /><circle cx="147.0899470899471" cy="149.41798941798942" r="2.0" style="fill:none; stroke:#ff3366aa; stroke-width:0.25" /><circle cx="33.01587301587302" cy="191.95767195767198" r="2.0" style="fill:none; stroke:#ff3366aa; stroke-width:0.25" /><polyline points="10.370370370370372,55.87301587301588 9.735449735449736,56.2962962962963 9.312169312169313,56.71957671957672 8.677248677248677,56.93121693121694 8.042328042328043,57.35449735449736 7.6190476190476195,57.777777777777786 6.984126984126985,57.989417989417994 6.560846560846561,58.41269841269842 5.9259259259259265,58.62433862433863 5.502645502645503,59.04761904761905 4.867724867724868,59.25925925925927 4.444444444444445,59.682539682539684 3.8095238095238098,59.8941798941799 3.174603174603175,60.31746031746032" style="fill:none; stroke:#001100; stroke-width:1.0" /><polyline points="5.07936507936508,72.80423280423281 4.656084656084657,72.16931216931218 4.444444444444445,71.53439153439155 4.2328042328042335,70.8994708994709 4.021164021164021,70.26455026455027 3.597883597883598,69.62962962962963 3.3862433862433865,68.994708994709 2.9629629629629632,68.35978835978837 2.7513227513227516,67.72486772486774 2.3280423280423284,67.08994708994709 1.9047619047619049,66.66666666666667 1.6931216931216932,66.03174603174604 1.26984126984127,65.3968253968254" style="fill:none; stroke:#000011; stroke-width:1.0" /><polyline points="124.86772486772487,19.894179894179896 124.44444444444446,19.25925925925926 124.02116402116403,18.83597883597884 123.80952380952382,18.201058201058203 123.3862433862434,17.566137566137566 122.96296296296298,16.931216931216934 122.53968253968254,16.50793650793651 122.11640211640213,15.873015873015873 121.6931216931217,15.238095238095239 121.26984126984128,14.603174603174605 121.05820105820106,13.96825396825397 120.63492063492065,13.333333333333334 120.21164021164022,12.6984126984127" style="fill:none; stroke:#001100; stroke-width:1.0" /><polyline points="107.93650793650795,14.814814814814817 108.57142857142858,14.391534391534393 109.20634920634922,14.17989417989418 109.84126984126985,13.756613756613758 110.47619047619048,13.544973544973546 110.89947089947091,13.121693121693122 111.53439153439155,12.910052910052912 111.95767195767196,12.486772486772487 112.5925925925926,12.486772486772487 113.22751322751324,12.063492063492065 113.86243386243387,12.063492063492065 114.28571428571429,11.640211640211641 114.92063492063492,11.428571428571429 115.55555555555557,11.216931216931219" style="fill:none; stroke:#000011; stroke-width:1.0" /><polyline points="136.5079365079365,154.2857142857143 137.14285714285717,154.07407407407408 137.7777777777778,153.86243386243387 138.41269841269843,153.43915343915344 139.04761904761907,153.22751322751324 139.6825396825397,153.01587301587304 140.31746031746033,152.8042328042328 140.95238095238096,152.38095238095238 141.5873015873016,152.16931216931218 142.22222222222223,151.95767195767198 142.85714285714286,151.74603174603175 143.4920634920635,151.32275132275134 144.12698412698413,151.11111111111111" style="fill:none; stroke:#001100; stroke-width:1.0" /><polyline points="142.85714285714286,138.41269841269843 143.0687830687831,139.04761904761907 143.0687830687831,139.6825396825397 143.2804232804233,140.31746031746033 143.4920634920635,140.95238095238096 143.70370370370372,141.5873015873016 143.91534391534393,142.22222222222223 144.12698412698413,142.85714285714286 144.33862433862436,143.4920634920635 144.55026455026456,144.12698412698413 144.76190476190476,144.76190476190476 144.973544973545,145.39682539682542 145.39682539682542,146.03174603174605 145.60846560846562,146.66666666666669" style="fill:none; stroke:#000011; stroke-width:1.0" /><polyline points="29.841269841269842,180.52910052910053 30.052910052910054,181.16402116402116 30.052910052910054,181.79894179894183 30.476190476190478,182.43386243386246 30.68783068783069,183.0687830687831 30.68783068783069,183.70370370370372 30.899470899470902,184.33862433862436 31.111111111111114,184.973544973545 31.322751322751326,185.60846560846562 31.53439153439154,186.24338624338625 31.53439153439154,186.8783068783069 31.746031746031747,187.51322751322752 31.746031746031747,188.14814814814815 31.95767195767196,188.78306878306879" style="fill:none; stroke:#001100; stroke-width:1.0" /><polyline points="43.5978835978836,186.24338624338625 42.96296296296297,186.66666666666669 42.32804232804233,186.8783068783069 41.6931216931217,187.30158730158732 41.058201058201064,187.51322751322752 40.63492063492064,187.93650793650795 40.0,188.14814814814815 39.36507936507937,188.57142857142858 38.730158730158735,188.99470899470901 38.095238095238095,189.41798941798945 37.46031746031746,189.62962962962965 36.82539682539683,190.05291005291008 36.19047619047619,190.47619047619048" style="fill:none; stroke:#000011; stroke-width:1.0" /><polyline points="3.174603174603175,60.31746031746032 -14.814814814814817,71.53439153439155" style="fill:none; stroke:#ffaa00; stroke-width:0.4" /><polyline points="1.26984126984127,65.3968253968254 -8.465608465608467,46.560846560846564" style="fill:none; stroke:#aaff00; stroke-width:0.4" /><polyline points="120.21164021164022,12.6984126984127 108.78306878306879,-5.07936507936508" style="fill:none; stroke:#ffaa00; stroke-width:0.4" /><polyline points="115.55555555555557,11.216931216931219 134.6031746031746,2.1164021164021167" style="fill:none; stroke:#aaff00; stroke-width:0.4" /><polyline points="144.12698412698413,151.11111111111111 163.59788359788362,143.0687830687831" style="fill:none; stroke:#ffaa00; stroke-width:0.4" /><polyline points="145.60846560846562,146.66666666666669 152.38095238095238,166.7724867724868" style="fill:none; stroke:#aaff00; stroke-width:0.4" /><polyline points="31.95767195767196,188.78306878306879 37.248677248677254,209.31216931216932" style="fill:none; stroke:#ffaa00; stroke-width:0.4" /><polyline points="36.19047619047619,190.47619047619048 17.77777777777778,201.05820105820106" style="fill:none; stroke:#aaff00; stroke-width:0.4" /><circle cx="76.4021164021164" cy="91.42857142857143" r="1.0" style="fill:#444444; stroke-width:0" /><circle cx="72.16931216931218" cy="64.97354497354497" r="10.582010582010582" style="fill:#ff770022; stroke-width:0" /><circle cx="72.16931216931218" cy="64.97354497354497" r="1.0" style="fill:#ff7700; stroke-width:0" /></svg>