<?xml version="1.0" encoding="UTF-8" standalone="no"?><svg width="629.2063492063493" height="514.2857142857143" viewBox="-10 -10 229.73544973544975 191.42857142857144" xmlns="http://www.w3.org/2000/svg" xmlns:xlink="http://www.w3.org/1999/xlink"><polyline points="-0.21164021164021166,82.53968253968254 2.9629629629629632,81.05820105820106 3.597883597883598,80.63492063492065 4.2328042328042335,80.21164021164022 4.867724867724868,80.0 5.502645502645503,79.57671957671958 6.137566137566138,79.36507936507937 6.772486772486773,79.15343915343917 7.407407407407408,78.73015873015873 8.042328042328043,78.51851851851852 8.677248677248677,78.30687830687832 9.312169312169313,77.88359788359789 9.947089947089948,77.67195767195767 10.582010582010582,77.46031746031747 11.216931216931219,77.03703703703704 11.851851851851853,76.82539682539684 12.486772486772487,76.4021164021164 13.121693121693122,76.19047619047619 13.756613756613758,75.97883597883599 14.391534391534393,75.76719576719577 15.026455026455027,75.34391534391536 15.661375661375663,74.92063492063492 16.296296296296298,74.70899470899471 16.71957671957672,74.28571428571429 17.354497354497354,74.07407407407408 17.98941798941799,73.86243386243387 18.624338624338627,73.65079365079366 19.25925925925926,73.43915343915344 19.894179894179896,73.01587301587303 20.529100529100532,72.80423280423281 21.164021164021165,72.5925925925926 21.58730158730159,72.16931216931218 22.222222222222225,72.16931216931218 22.857142857142858,71.74603174603175 23.492063492063494,71.74603174603175 24.12698412698413,71.32275132275133 24.761904761904763,71.11111111111111 25.3968253968254,70.8994708994709 26.031746031746035,70.47619047619048 26.666666666666668,70.26455026455027 27.301587301587304,70.05291005291006 27.93650793650794,69.84126984126985 28.571428571428573,69.84126984126985 29.20634920634921,69.62962962962963 29.841269841269842,69.20634920634922 30.476190476190478,69.20634920634922 31.111111111111114,68.78306878306879 31.746031746031747,68.57142857142858 32.38095238095239,68.35978835978837 33.01587301587302,68.35978835978837 33.65079365079365,67.93650793650794 34.28571428571429,67.72486772486774 34.920634920634924,67.72486772486774 35.55555555555556,67.51322751322752 36.19047619047619,67.08994708994709 36.82539682539683,67.08994708994709 37.46031746031746,66.87830687830689 38.095238095238095,66.66666666666667 38.730158730158735,66.24338624338625 39.36507936507937,66.24338624338625 40.0,66.03174603174604 40.63492063492064,65.82010582010582 41.26984126984127,65.60846560846561 41.904761904761905,65.3968253968254 42.539682539682545,65.3968253968254 43.17460317460318,65.18518518518519 43.80952380952381,64.97354497354497 44.44444444444445,64.76190476190477 45.07936507936508,64.55026455026456 45.714285714285715,64.55026455026456 46.349206349206355,64.12698412698413 46.98412698412699,64.12698412698413 47.61904761904762,64.12698412698413 48.25396825396826,63.91534391534392 48.88888888888889,63.70370370370371 49.523809523809526,63.70370370370371 49.94708994708995,63.280423280423285 50.58201058201058,63.06878306878308 51.21693121693122,63.06878306878308 51.851851851851855,62.85714285714286 52.48677248677249,62.64550264550265 53.12169312169313,62.64550264550265 53.75661375661376,62.43386243386244 54.39153439153439,62.22222222222223 55.02645502645503,62.01058201058201 55.661375661375665,62.01058201058201 56.2962962962963,61.798941798941804 56.93121693121694,61.58730158730159 57.56613756613757,61.37566137566138 58.2010582010582,61.16402116402117 58.83597883597884,61.16402116402117 59.470899470899475,60.952380952380956 60.10582010582011,60.74074074074075 60.74074074074075,60.74074074074075 61.37566137566138,60.52910052910053 62.01058201058201,60.31746031746032 62.64550264550265,60.10582010582011 63.280423280423285,60.10582010582011 63.91534391534392,59.8941798941799 64.55026455026456,59.682539682539684 65.18518518518519,59.682539682539684 65.82010582010582,59.470899470899475 66.45502645502646,59.25925925925927 67.08994708994709,59.25925925925927 67.72486772486774,59.04761904761905 68.35978835978837,58.83597883597884 68.994708994709,58.62433862433863 69.62962962962963,58.62433862433863 70.26455026455027,58.41269841269842 70.8994708994709,58.41269841269842 71.53439153439155,57.989417989417994 72.16931216931218,57.989417989417994 72.80423280423281,57.989417989417994 73.43915343915344,57.777777777777786 74.07407407407408,57.56613756613757 74.70899470899471,57.35449735449736 75.34391534391536,57.35449735449736 75.97883597883599,57.142857142857146 76.61375661375662,57.142857142857146 77.24867724867725,56.93121693121694 77.88359788359789,56.50793650793651 78.51851851851852,56.2962962962963 79.15343915343917,56.2962962962963 79.7883597883598,56.08465608465609 80.42328042328043,55.87301587301588 81.05820105820106,55.661375661375665 81.6931216931217,55.661375661375665 82.32804232804233,55.661375661375665 82.96296296296298,55.449735449735456 83.59788359788361,55.23809523809524 84.23280423280424,55.02645502645503 84.86772486772487,54.60317460317461 85.5026455026455,54.39153439153439 86.13756613756614,54.179894179894184 86.77248677248677,53.968253968253975 87.40740740740742,53.54497354497355 88.04232804232805,53.12169312169313 88.67724867724868,52.6984126984127 89.1005291005291,52.27513227513228 89.52380952380953,51.851851851851855 89.94708994708995,51.21693121693122 90.37037037037038,50.58201058201058 90.58201058201058,49.94708994708995 90.7936507936508,49.31216931216932 90.7936507936508,48.677248677248684 90.7936507936508,48.042328042328045 90.7936507936508,47.40740740740741 90.7936507936508,46.77248677248678 90.58201058201058,46.13756613756614 90.15873015873017,45.50264550264551 89.73544973544975,44.867724867724874 89.31216931216932,44.232804232804234 88.8888888888889,43.5978835978836 88.46560846560847,43.17460317460318 88.04232804232805,42.75132275132275 87.61904761904762,42.32804232804233 87.1957671957672,41.904761904761905 86.56084656084657,41.48148148148149 85.92592592592594,41.058201058201064 85.29100529100529,40.63492063492064 84.86772486772487,40.211640211640216 84.23280423280424,40.0 83.59788359788361,39.57671957671958 83.17460317460318,39.15343915343916 82.53968253968254,38.730158730158735 82.11640211640213,38.30687830687831 81.48148148148148,37.883597883597886 81.05820105820106,37.46031746031746 80.63492063492065,37.03703703703704 80.21164021164022,36.613756613756614 79.7883597883598,36.19047619047619 79.36507936507937,35.76719576719577 78.94179894179895,35.13227513227513 78.51851851851852,34.70899470899471 78.0952380952381,34.074074074074076 77.67195767195767,33.43915343915344 77.46031746031747,32.804232804232804 77.03703703703704,32.16931216931217 76.82539682539684,31.53439153439154 76.4021164021164,30.899470899470902 76.61375661375662,30.264550264550266 76.4021164021164,29.629629629629633 76.19047619047619,28.994708994708997 76.19047619047619,28.35978835978836 76.4021164021164,27.724867724867728 76.61375661375662,27.089947089947092 76.82539682539684,26.455026455026456 77.03703703703704,25.820105820105823 77.46031746031747,25.3968253968254 77.88359788359789,24.973544973544975 78.30687830687832,24.338624338624342 78.73015873015873,23.915343915343918 79.15343915343917,23.280423280423282 79.7883597883598,22.857142857142858 80.21164021164022,22.433862433862437 80.63492063492065,22.010582010582013 81.05820105820106,21.375661375661377 81.6931216931217,20.952380952380953 82.11640211640213,20.529100529100532 82.53968253968254,20.105820105820108 83.17460317460318,19.682539682539684 83.59788359788361,19.25925925925926 84.23280423280424,18.83597883597884 84.86772486772487,18.412698412698415 85.29100529100529,17.98941798941799 85.71428571428572,17.566137566137566 86.13756613756614,17.142857142857146 86.77248677248677,16.931216931216934 87.1957671957672,16.50793650793651 87.61904761904762,16.084656084656086 88.25396825396827,15.873015873015873 88.67724867724868,15.449735449735451 89.1005291005291,15.026455026455027 89.73544973544975,14.814814814814817 90.37037037037038,14.391534391534393 91.00529100529101,13.96825396825397 91.64021164021165,13.756613756613758 92.06349206349208,13.333333333333334 92.69841269841271,12.910052910052912 93.33333333333334,12.6984126984127 93.75661375661376,12.275132275132275 94.17989417989419,11.851851851851853 94.81481481481482,11.428571428571429 95.44973544973546,11.216931216931219 95.87301587301587,10.793650793650794 96.50793650793652,10.370370370370372 96.93121693121694,9.947089947089948 97.56613756613757,9.523809523809524 98.2010582010582,9.312169312169313 98.62433862433863,8.88888888888889 99.25925925925927,8.677248677248677 99.8941798941799,8.465608465608467 100.52910052910053,8.042328042328043 101.16402116402116,7.6190476190476195 101.79894179894181,7.407407407407408 102.43386243386244,7.195767195767196 103.06878306878308,6.772486772486773 103.70370370370371,6.560846560846561 104.33862433862434,6.34920634920635 104.97354497354497,6.137566137566138 105.60846560846562,5.9259259259259265 106.24338624338625,5.714285714285714 106.87830687830689,5.502645502645503 107.51322751322752,5.291005291005291 108.14814814814815,5.291005291005291 108.78306878306879,5.07936507936508 109.41798941798943,4.867724867724868 110.05291005291006,4.867724867724868 110.6878306878307,4.656084656084657 111.32275132275133,4.444444444444445 111.95767195767196,4.444444444444445 112.5925925925926,4.444444444444445 113.22751322751324,4.444444444444445 113.86243386243387,4.656084656084657 114.49735449735451,4.656084656084657 115.13227513227514,4.656084656084657 115.76719576719577,5.07936507936508 116.4021164021164,5.291005291005291 117.03703703703705,5.714285714285714 117.67195767195768,6.137566137566138 118.0952380952381,6.560846560846561 118.73015873015873,6.984126984126985 119.15343915343917,7.407407407407408 119.57671957671958,8.042328042328043 120.21164021164022,8.465608465608467 120.63492063492065,9.100529100529101 120.84656084656086,9.735449735449736 121.4814814814815,10.15873015873016 121.6931216931217,10.793650793650794 122.11640211640213,11.428571428571429 122.32804232804234,12.063492063492065 122.53968253968254,12.6984126984127 122.75132275132276,13.333333333333334 122.96296296296298,13.96825396825397 123.17460317460318,14.603174603174605 123.3862433862434,15.238095238095239 123.3862433862434,15.873015873015873 123.59788359788361,16.50793650793651 123.80952380952382,17.142857142857146 123.80952380952382,17.77777777777778 124.02116402116403,18.412698412698415 124.23280423280424,19.047619047619047 124.23280423280424,19.682539682539684 124.44444444444446,20.31746031746032 124.44444444444446,20.952380952380953 124.65608465608466,21.58730158730159 124.86772486772487,22.222222222222225 124.86772486772487,22.857142857142858 125.07936507936509,23.492063492063494 125.07936507936509,24.12698412698413 125.2910052910053,24.761904761904763 125.5026455026455,25.3968253968254 125.71428571428572,26.031746031746035 126.13756613756615,26.666666666666668 126.34920634920636,27.301587301587304 126.77248677248679,27.724867724867728 127.1957671957672,28.35978835978836 127.61904761904763,28.783068783068785 128.04232804232805,29.20634920634921 128.46560846560848,29.629629629629633 129.10052910052912,30.052910052910054 129.73544973544975,30.264550264550266 130.37037037037038,30.68783068783069 131.005291005291,30.68783068783069 131.64021164021165,30.68783068783069 132.27513227513228,30.68783068783069 132.9100529100529,30.68783068783069 133.54497354497354,30.68783068783069 134.17989417989418,30.476190476190478 134.81481481481484,30.264550264550266 135.44973544973547,29.841269841269842 136.0846560846561,29.629629629629633 136.5079365079365,29.20634920634921 137.14285714285717,28.994708994708997 137.7777777777778,28.571428571428573 138.41269841269843,28.14814814814815 139.04761904761907,27.93650793650794 139.47089947089947,27.513227513227516 140.10582010582013,27.089947089947092 140.52910052910053,26.666666666666668 141.16402116402116,26.455026455026456 141.5873015873016,26.031746031746035 142.22222222222223,25.60846560846561 142.85714285714286,25.3968253968254 143.4920634920635,24.973544973544975 143.91534391534393,24.55026455026455 144.55026455026456,24.12698412698413 145.1851851851852,23.703703703703706 145.82010582010582,23.280423280423282 146.45502645502646,22.857142857142858 147.0899470899471,22.433862433862437 147.72486772486775,22.010582010582013 148.14814814814815,21.58730158730159 148.78306878306879,21.164021164021165 149.41798941798942,20.740740740740744 150.05291005291005,20.31746031746032 150.6878306878307,19.894179894179896 151.32275132275134,19.47089947089947 151.95767195767198,19.047619047619047 152.5925925925926,18.624338624338627 153.22751322751324,18.201058201058203 153.65079365079367,17.77777777777778 154.2857142857143,17.354497354497354 154.92063492063494,16.931216931216934 155.34391534391534,16.50793650793651 155.76719576719577,16.084656084656086 156.4021164021164,15.661375661375663 157.03703703703704,15.238095238095239 157.46031746031747,14.814814814814817 158.0952380952381,14.391534391534393 158.73015873015873,13.96825396825397 159.36507936507937,13.544973544973546 160.0,13.121693121693122 160.63492063492066,12.6984126984127 161.2698412698413,12.275132275132275 161.90476190476193,11.851851851851853 162.53968253968256,11.428571428571429 163.1746031746032,11.005291005291006 163.59788359788362,10.582010582010582 164.23280423280426,10.15873015873016 164.65608465608466,9.735449735449736 165.2910052910053,9.312169312169313 165.71428571428572,8.88888888888889 166.34920634920636,8.677248677248677 166.984126984127,8.253968253968255 167.61904761904762,7.830687830687832 168.04232804232805,7.407407407407408 168.67724867724868,6.984126984126985 169.31216931216932,6.772486772486773 169.73544973544975,6.34920634920635 170.37037037037038,6.137566137566138 170.7936507936508,5.714285714285714 171.42857142857144,5.291005291005291 172.06349206349208,4.867724867724868 172.6984126984127,4.444444444444445 173.12169312169314,4.021164021164021 173.75661375661377,3.597883597883598 174.3915343915344,3.174603174603175 175.02645502645504,2.9629629629629632 175.66137566137567,2.53968253968254 176.2962962962963,2.1164021164021167 176.93121693121694,1.9047619047619049 180.10582010582013,-0.21164021164021166" style="fill:none; stroke:#cc0000; stroke-width:1.0"  /><polyline points="180.10582010582013,-0.21164021164021166 181.16402116402116,3.3862433862433865 181.3756613756614,4.021164021164021 181.5873015873016,4.656084656084657 181.5873015873016,5.291005291005291 181.79894179894183,5.9259259259259265 182.01058201058203,6.560846560846561 182.22222222222223,7.195767195767196 182.22222222222223,7.830687830687832 182.43386243386246,8.465608465608467 182.64550264550266,9.100529100529101 182.85714285714286,9.735449735449736 183.0687830687831,10.370370370370372 183.2804232804233,11.005291005291006 183.4920634920635,11.640211640211641 183.70370370370372,12.275132275132275 183.70370370370372,12.910052910052912 183.91534391534393,13.544973544973546 184.12698412698415,14.17989417989418 184.12698412698415,14.814814814814817 184.33862433862436,15.449735449735451 184.55026455026456,16.084656084656086 184.55026455026456,16.71957671957672 184.7619047619048,17.354497354497354 184.973544973545,17.98941798941799 184.973544973545,18.624338624338627 185.1851851851852,19.25925925925926 185.1851851851852,19.894179894179896 185.39682539682542,20.529100529100532 185.39682539682542,21.164021164021165 185.60846560846562,21.7989417989418 185.60846560846562,22.433862433862437 185.82010582010582,23.06878306878307 185.82010582010582,23.703703703703706 185.82010582010582,24.338624338624342 186.03174603174605,24.973544973544975 186.03174603174605,25.60846560846561 186.24338624338625,26.243386243386244 186.24338624338625,26.87830687830688 186.24338624338625,27.513227513227516 186.45502645502646,28.14814814814815 186.45502645502646,28.783068783068785 186.66666666666669,29.41798941798942 186.66666666666669,30.052910052910054 186.66666666666669,30.68783068783069 186.8783068783069,31.322751322751326 186.8783068783069,31.95767195767196 186.8783068783069,32.592592592592595 186.8783068783069,33.22751322751323 186.8783068783069,33.86243386243387 187.08994708994712,34.4973544973545 187.08994708994712,35.13227513227513 187.08994708994712,35.76719576719577 187.08994708994712,36.402116402116405 187.08994708994712,37.03703703703704 187.08994708994712,37.67195767195768 187.08994708994712,38.30687830687831 187.08994708994712,38.94179894179894 187.08994708994712,39.57671957671958 187.08994708994712,40.211640211640216 187.08994708994712,40.84656084656085 187.08994708994712,41.48148148148149 187.08994708994712,42.11640211640212 186.8783068783069,42.75132275132275 186.8783068783069,43.386243386243386 186.45502645502646,44.021164021164026 186.24338624338625,44.65608465608466 185.82010582010582,45.29100529100529 185.39682539682542,45.714285714285715 184.7619047619048,46.13756613756614 184.12698412698415,46.560846560846564 183.4920634920635,46.77248677248678 182.85714285714286,46.98412698412699 182.22222222222223,47.195767195767196 181.5873015873016,47.40740740740741 180.95238095238096,47.61904761904762 180.31746031746033,47.830687830687836 179.6825396825397,48.042328042328045 179.04761904761907,48.25396825396826 178.41269841269843,48.25396825396826 177.7777777777778,48.46560846560847 177.14285714285717,48.677248677248684 176.50793650793653,48.88888888888889 175.87301587301587,48.88888888888889 175.23809523809524,49.1005291005291 174.6031746031746,49.1005291005291 173.96825396825398,49.31216931216932 173.33333333333334,49.31216931216932 172.6984126984127,49.523809523809526 172.06349206349208,49.523809523809526 171.42857142857144,49.523809523809526 170.7936507936508,49.73544973544974 170.15873015873018,49.73544973544974 169.52380952380955,49.73544973544974 168.8888888888889,49.73544973544974 168.25396825396825,49.73544973544974 167.61904761904762,49.73544973544974 166.984126984127,49.73544973544974 166.34920634920636,49.73544973544974 165.71428571428572,49.73544973544974 165.0793650793651,49.523809523809526 164.44444444444446,49.523809523809526 163.80952380952382,49.523809523809526 163.1746031746032,49.31216931216932 162.53968253968256,49.31216931216932 161.90476190476193,49.1005291005291 161.2698412698413,49.1005291005291 160.63492063492066,49.1005291005291 160.0,48.88888888888889 159.36507936507937,48.88888888888889 158.73015873015873,48.88888888888889 158.0952380952381,48.88888888888889 157.46031746031747,48.88888888888889 156.82539682539684,48.88888888888889 156.1904761904762,48.88888888888889 155.55555555555557,49.1005291005291 154.92063492063494,49.1005291005291 154.4973544973545,49.523809523809526 153.86243386243387,49.73544973544974 153.22751322751324,49.73544973544974 152.5925925925926,49.94708994708995 151.95767195767198,50.158730158730165 151.32275132275134,50.370370370370374 150.6878306878307,50.58201058201058 150.05291005291005,50.7936507936508 149.41798941798942,51.21693121693122 148.78306878306879,51.42857142857143 148.14814814814815,51.640211640211646 147.51322751322752,52.06349206349207 146.8783068783069,52.48677248677249 146.24338624338625,52.91005291005291 145.60846560846562,53.12169312169313 145.1851851851852,53.54497354497355 144.76190476190476,53.968253968253975 144.12698412698413,54.39153439153439 143.70370370370372,54.81481481481482 143.2804232804233,55.23809523809524 142.85714285714286,55.661375661375665 142.43386243386246,56.08465608465609 142.01058201058203,56.71957671957672 141.5873015873016,57.35449735449736 141.3756613756614,57.989417989417994 140.95238095238096,58.62433862433863 140.74074074074076,59.25925925925927 140.74074074074076,59.8941798941799 140.31746031746033,60.52910052910053 140.31746031746033,61.16402116402117 140.10582010582013,61.798941798941804 140.10582010582013,62.43386243386244 139.8941798941799,63.06878306878308 139.8941798941799,63.70370370370371 139.8941798941799,64.33862433862434 139.8941798941799,64.97354497354497 140.10582010582013,65.60846560846561 140.10582010582013,66.24338624338625 140.31746031746033,66.87830687830689 140.31746031746033,67.51322751322752 140.52910052910053,68.14814814814815 140.74074074074076,68.78306878306879 140.95238095238096,69.41798941798942 141.16402116402116,70.05291005291006 141.3756613756614,70.6878306878307 141.7989417989418,71.32275132275133 142.01058201058203,71.95767195767196 142.22222222222223,72.5925925925926 142.64550264550266,73.22751322751323 142.85714285714286,73.86243386243387 143.0687830687831,74.49735449735451 143.4920634920635,75.13227513227514 143.70370370370372,75.76719576719577 144.12698412698413,76.4021164021164 144.33862433862436,77.03703703703704 144.76190476190476,77.67195767195767 144.973544973545,78.30687830687832 145.39682539682542,78.73015873015873 145.60846560846562,79.36507936507937 146.03174603174605,79.7883597883598 146.45502645502646,80.21164021164022 146.8783068783069,80.84656084656085 147.30158730158732,81.48148148148148 147.72486772486775,82.11640211640213 148.14814814814815,82.53968253968254 148.57142857142858,83.17460317460318 148.99470899470901,83.59788359788361 149.41798941798942,84.02116402116403 149.84126984126985,84.44444444444446 150.26455026455028,84.86772486772487 150.6878306878307,85.29100529100529 151.32275132275134,85.71428571428572 151.95767195767198,86.13756613756614 152.5925925925926,86.34920634920636 153.22751322751324,86.56084656084657 153.86243386243387,86.77248677248677 154.4973544973545,86.77248677248677 155.13227513227514,86.77248677248677 155.76719576719577,86.77248677248677 156.4021164021164,86.77248677248677 157.03703703703704,86.77248677248677 157.67195767195767,86.77248677248677 158.30687830687833,86.56084656084657 158.94179894179896,86.56084656084657 159.5767195767196,86.34920634920636 160.21164021164023,86.13756613756614 160.84656084656086,86.13756613756614 161.4814814814815,85.92592592592594 162.11640211640213,85.71428571428572 162.75132275132276,85.29100529100529 163.3862433862434,85.07936507936509 164.02116402116403,84.86772486772487 164.65608465608466,84.44444444444446 165.2910052910053,84.02116402116403 165.92592592592595,83.80952380952381 166.56084656084658,83.59788359788361 167.19576719576722,83.17460317460318 167.83068783068785,82.96296296296298 168.46560846560848,82.53968253968254 169.10052910052912,82.32804232804233 169.73544973544975,81.90476190476191 170.15873015873018,81.48148148148148 170.7936507936508,81.26984126984128 171.42857142857144,80.84656084656085 171.85185185185188,80.42328042328043 172.4867724867725,80.21164021164022 173.12169312169314,79.7883597883598 173.54497354497354,79.36507936507937 173.96825396825398,78.94179894179895 174.6031746031746,78.73015873015873 175.02645502645504,78.30687830687832 175.66137566137567,77.88359788359789 176.0846560846561,77.46031746031747 176.71957671957674,77.03703703703704 177.14285714285717,76.61375661375662 177.7777777777778,76.19047619047619 178.41269841269843,75.97883597883599 178.83597883597884,75.55555555555556 179.4708994708995,75.34391534391536 179.8941798941799,74.92063492063492 180.52910052910053,74.70899470899471 181.16402116402116,74.49735449735451 181.79894179894183,74.28571428571429 182.43386243386246,73.86243386243387 183.0687830687831,73.65079365079366 183.70370370370372,73.43915343915344 184.33862433862436,73.43915343915344 184.973544973545,73.01587301587303 185.60846560846562,72.80423280423281 186.24338624338625,72.5925925925926 186.8783068783069,72.5925925925926 187.51322751322752,72.5925925925926 188.14814814814815,72.5925925925926 188.78306878306879,72.80423280423281 189.41798941798945,73.01587301587303 190.05291005291008,72.80423280423281 190.6878306878307,73.01587301587303 191.32275132275134,73.22751322751323 191.95767195767198,73.65079365079366 192.5925925925926,73.86243386243387 193.22751322751324,74.28571428571429 193.86243386243387,74.49735449735451 194.2857142857143,74.92063492063492 194.70899470899474,75.34391534391536 195.34391534391537,75.76719576719577 195.76719576719577,76.4021164021164 196.1904761904762,76.82539682539684 196.61375661375664,77.46031746031747 197.03703703703704,78.0952380952381 197.46031746031747,78.73015873015873 197.8835978835979,79.36507936507937 198.30687830687833,79.7883597883598 198.51851851851853,80.42328042328043 198.94179894179896,81.05820105820106 199.36507936507937,81.6931216931217 199.5767195767196,82.32804232804233 200.00000000000003,82.96296296296298 200.21164021164023,83.59788359788361 200.63492063492066,84.02116402116403 200.84656084656086,84.65608465608466 201.2698412698413,85.29100529100529 201.4814814814815,85.92592592592594 201.90476190476193,86.34920634920636 202.11640211640213,86.98412698412699 202.53968253968256,87.61904761904762 202.75132275132276,88.25396825396827 203.1746031746032,88.8888888888889 203.59788359788362,89.52380952380953 203.80952380952382,90.15873015873017 204.23280423280426,90.58201058201058 204.44444444444446,91.21693121693123 204.8677248677249,91.85185185185186 205.0793650793651,92.4867724867725 205.50264550264552,93.12169312169313 205.71428571428572,93.75661375661376 205.92592592592595,94.39153439153439 206.13756613756615,95.02645502645504 206.56084656084658,95.66137566137567 206.7724867724868,96.2962962962963 207.19576719576722,96.93121693121694 207.61904761904765,97.56613756613757 207.83068783068785,98.2010582010582 208.25396825396828,98.83597883597885 209.94708994708995,102.43386243386244" style="fill:none; stroke:#999900; stroke-width:1.0"  /><polyline points="209.94708994708995,102.43386243386244 206.13756613756615,102.64550264550266 205.50264550264552,102.64550264550266 204.8677248677249,102.64550264550266 204.23280423280426,102.64550264550266 203.59788359788362,102.64550264550266 202.962962962963,102.85714285714286 202.32804232804233,102.85714285714286 201.6931216931217,102.85714285714286 201.05820105820106,103.06878306878308 200.42328042328043,103.06878306878308 199.7883597883598,103.06878306878308 199.15343915343917,103.28042328042329 198.51851851851853,103.28042328042329 197.8835978835979,103.28042328042329 197.24867724867727,103.4920634920635 196.61375661375664,103.4920634920635 195.978835978836,103.70370370370371 195.34391534391537,103.70370370370371 194.70899470899474,103.91534391534393 194.07407407407408,103.91534391534393 193.43915343915344,104.12698412698414 192.8042328042328,104.33862433862434 192.16931216931218,104.33862433862434 191.53439153439155,104.55026455026456 190.8994708994709,104.55026455026456 190.26455026455028,104.76190476190477 189.62962962962965,104.97354497354497 188.99470899470901,105.18518518518519 188.35978835978838,105.18518518518519 187.72486772486775,105.3968253968254 187.08994708994712,105.60846560846562 186.45502645502646,105.60846560846562 185.82010582010582,105.60846560846562 185.1851851851852,105.60846560846562 184.55026455026456,105.82010582010582 183.91534391534393,106.03174603174604 183.2804232804233,106.03174603174604 182.64550264550266,106.24338624338625 182.01058201058203,106.24338624338625 181.3756613756614,106.45502645502647 180.74074074074076,106.66666666666667 180.10582010582013,106.66666666666667 179.4708994708995,106.87830687830689 178.83597883597884,106.87830687830689 178.2010582010582,107.0899470899471 177.56613756613757,107.3015873015873 176.93121693121694,107.3015873015873 176.2962962962963,107.51322751322752 175.66137566137567,107.72486772486774 175.02645502645504,107.72486772486774 174.3915343915344,107.93650793650795 173.75661375661377,108.14814814814815 173.12169312169314,108.14814814814815 172.4867724867725,108.35978835978837 171.85185185185188,108.57142857142858 171.21693121693124,108.57142857142858 170.58201058201058,108.78306878306879 169.94708994708995,108.994708994709 169.31216931216932,108.994708994709 168.67724867724868,109.20634920634922 168.04232804232805,109.20634920634922 167.40740740740742,109.41798941798943 166.7724867724868,109.41798941798943 166.13756613756615,109.84126984126985 165.50264550264552,109.84126984126985 164.8677248677249,110.05291005291006 164.23280423280426,110.26455026455027 163.59788359788362,110.6878306878307 162.96296296296296,110.89947089947091 162.53968253968256,111.32275132275133 161.90476190476193,111.74603174603176 161.4814814814815,112.16931216931218 161.05820105820106,112.5925925925926 160.63492063492066,113.01587301587303 160.21164021164023,113.65079365079366 159.7883597883598,114.28571428571429 159.7883597883598,114.92063492063492 159.7883597883598,115.55555555555557 159.7883597883598,116.1904761904762 159.5767195767196,116.82539682539684 159.7883597883598,117.46031746031747 159.7883597883598,118.0952380952381 160.0,118.73015873015873 160.21164021164023,119.36507936507937 160.63492063492066,120.00000000000001 161.05820105820106,120.63492063492065 161.4814814814815,121.26984126984128 161.90476190476193,121.6931216931217 162.32804232804233,122.32804232804234 162.75132275132276,122.75132275132276 163.1746031746032,123.17460317460318 163.59788359788362,123.59788359788361 164.23280423280426,124.02116402116403 164.8677248677249,124.44444444444446 165.50264550264552,124.86772486772487 166.13756613756615,125.07936507936509 166.7724867724868,125.5026455026455 167.40740740740742,125.71428571428572 168.04232804232805,125.92592592592594 168.67724867724868,126.34920634920636 169.31216931216932,126.56084656084657 169.94708994708995,126.77248677248679 170.58201058201058,127.1957671957672 171.21693121693124,127.40740740740742 171.85185185185188,127.61904761904763 172.4867724867725,127.83068783068784 173.12169312169314,128.25396825396825 173.75661375661377,128.46560846560848 174.3915343915344,128.67724867724868 175.02645502645504,128.88888888888889 175.66137566137567,129.10052910052912 176.0846560846561,129.52380952380955 176.71957671957674,129.52380952380955 177.14285714285717,129.94708994708995 177.7777777777778,130.37037037037038 178.41269841269843,130.58201058201058 179.04761904761907,131.005291005291 179.6825396825397,131.42857142857144 180.10582010582013,131.85185185185185 180.52910052910053,132.4867724867725 180.95238095238096,132.9100529100529 181.3756613756614,133.54497354497354 181.5873015873016,134.17989417989418 181.79894179894183,134.81481481481484 182.01058201058203,135.44973544973547 182.01058201058203,136.0846560846561 182.01058201058203,136.71957671957674 181.79894179894183,137.35449735449737 181.5873015873016,137.989417989418 181.3756613756614,138.62433862433863 181.16402116402116,139.25925925925927 180.95238095238096,139.8941798941799 180.52910052910053,140.52910052910053 180.31746031746033,141.16402116402116 179.8941798941799,141.5873015873016 179.6825396825397,142.22222222222223 179.25925925925927,142.85714285714286 178.83597883597884,143.4920634920635 178.41269841269843,144.12698412698413 178.2010582010582,144.76190476190476 177.7777777777778,145.1851851851852 177.56613756613757,145.82010582010582 177.14285714285717,146.24338624338625 176.93121693121694,146.8783068783069 176.50793650793653,147.30158730158732 176.0846560846561,147.93650793650795 175.66137566137567,148.57142857142858 175.23809523809524,148.99470899470901 174.81481481481484,149.62962962962965 174.3915343915344,150.26455026455028 173.75661375661377,150.6878306878307 173.33333333333334,151.11111111111111 172.9100529100529,151.53439153439155 172.4867724867725,151.95767195767198 172.06349206349208,152.38095238095238 171.42857142857144,152.8042328042328 171.005291005291,153.22751322751324 170.37037037037038,153.65079365079367 169.94708994708995,154.07407407407408 169.31216931216932,154.4973544973545 168.8888888888889,154.92063492063494 168.25396825396825,155.34391534391534 167.61904761904762,155.76719576719577 167.19576719576722,156.1904761904762 166.7724867724868,156.61375661375664 166.13756613756615,157.03703703703704 165.50264550264552,157.46031746031747 165.0793650793651,157.8835978835979 164.44444444444446,158.0952380952381 163.80952380952382,158.51851851851853 163.1746031746032,158.73015873015873 162.53968253968256,159.15343915343917 161.90476190476193,159.15343915343917 161.2698412698413,159.36507936507937 160.63492063492066,159.5767195767196 160.0,159.5767195767196 159.36507936507937,159.7883597883598 158.73015873015873,159.7883597883598 158.0952380952381,160.0 157.46031746031747,159.7883597883598 156.82539682539684,160.0 156.1904761904762,160.0 155.55555555555557,159.7883597883598 154.92063492063494,160.0 154.2857142857143,160.0 153.65079365079367,159.7883597883598 153.01587301587304,159.7883597883598 152.38095238095238,159.5767195767196 151.74603174603175,159.36507936507937 151.11111111111111,159.15343915343917 150.47619047619048,158.94179894179896 149.84126984126985,158.51851851851853 149.20634920634922,158.30687830687833 148.78306878306879,157.8835978835979 148.14814814814815,157.46031746031747 147.72486772486775,157.03703703703704 147.30158730158732,156.4021164021164 146.8783068783069,155.978835978836 146.66666666666669,155.34391534391534 146.24338624338625,154.92063492063494 146.03174603174605,154.2857142857143 145.60846560846562,153.65079365079367 145.39682539682542,153.01587301587304 144.973544973545,152.38095238095238 144.76190476190476,151.74603174603175 144.55026455026456,151.11111111111111 144.33862433862436,150.47619047619048 144.12698412698413,149.84126984126985 143.91534391534393,149.20634920634922 143.70370370370372,148.57142857142858 143.4920634920635,147.93650793650795 143.2804232804233,147.30158730158732 143.2804232804233,146.66666666666669 143.0687830687831,146.03174603174605 143.0687830687831,145.39682539682542 143.0687830687831,144.76190476190476 143.0687830687831,144.12698412698413 142.85714285714286,143.4920634920635 142.85714285714286,142.85714285714286 142.64550264550266,142.22222222222223 142.64550264550266,141.5873015873016 142.43386243386246,140.95238095238096 142.22222222222223,140.31746031746033 142.01058201058203,139.6825396825397 141.7989417989418,139.04761904761907 141.3756613756614,138.41269841269843 140.95238095238096,137.7777777777778 140.52910052910053,137.14285714285717 140.10582010582013,136.5079365079365 139.6825396825397,136.0846560846561 139.25925925925927,135.66137566137567 138.62433862433863,135.23809523809524 137.989417989418,134.81481481481484 137.35449735449737,134.6031746031746 136.71957671957674,134.6031746031746 136.0846560846561,134.3915343915344 135.44973544973547,134.17989417989418 134.81481481481484,134.17989417989418 134.17989417989418,134.17989417989418 133.54497354497354,134.3915343915344 132.9100529100529,134.6031746031746 132.27513227513228,134.6031746031746 131.64021164021165,134.81481481481484 131.005291005291,135.23809523809524 130.37037037037038,135.44973544973547 129.73544973544975,135.87301587301587 129.10052910052912,136.0846560846561 128.67724867724868,136.5079365079365 128.04232804232805,136.93121693121694 127.61904761904763,137.35449735449737 127.1957671957672,137.7777777777778 126.56084656084657,138.2010582010582 126.13756613756615,138.62433862433863 125.71428571428572,139.04761904761907 125.2910052910053,139.47089947089947 124.86772486772487,140.10582010582013 124.44444444444446,140.52910052910053 124.02116402116403,140.95238095238096 123.59788359788361,141.5873015873016 123.17460317460318,142.01058201058203 122.75132275132276,142.43386243386246 122.32804232804234,142.85714285714286 121.90476190476191,143.2804232804233 121.4814814814815,143.91534391534393 121.05820105820106,144.33862433862436 120.63492063492065,144.76190476190476 120.21164021164022,145.1851851851852 119.7883597883598,145.82010582010582 119.36507936507937,146.24338624338625 118.94179894179895,146.66666666666669 118.51851851851853,147.0899470899471 118.0952380952381,147.51322751322752 117.67195767195768,147.93650793650795 117.24867724867725,148.35978835978838 116.82539682539684,148.78306878306879 116.4021164021164,149.20634920634922 115.97883597883599,149.62962962962965 115.55555555555557,150.26455026455028 115.13227513227514,150.6878306878307 114.49735449735451,151.11111111111111 114.07407407407408,151.53439153439155 113.65079365079366,151.95767195767198 113.22751322751324,152.38095238095238 112.5925925925926,152.8042328042328 112.16931216931218,153.22751322751324 111.74603174603176,153.65079365079367 111.32275132275133,154.07407407407408 110.89947089947091,154.4973544973545 110.26455026455027,154.92063492063494 109.84126984126985,155.55555555555557 109.41798941798943,155.978835978836 108.78306878306879,156.4021164021164 108.35978835978837,156.82539682539684 107.72486772486774,157.24867724867727 107.3015873015873,157.67195767195767 106.66666666666667,158.0952380952381 106.24338624338625,158.51851851851853 105.60846560846562,158.94179894179896 104.97354497354497,159.36507936507937 104.55026455026456,159.7883597883598 104.12698412698414,160.21164021164023 103.4920634920635,160.63492063492066 102.85714285714286,161.05820105820106 102.22222222222223,161.4814814814815 101.5873015873016,161.90476190476193 100.95238095238096,162.32804232804233 100.31746031746033,162.75132275132276 99.68253968253968,163.1746031746032 99.04761904761905,163.59788359788362 98.62433862433863,164.02116402116403 97.989417989418,164.44444444444446 97.35449735449737,164.8677248677249 96.71957671957672,165.0793650793651 96.08465608465609,165.50264550264552 95.44973544973546,165.92592592592595 94.81481481481482,166.34920634920636 94.17989417989419,166.7724867724868 93.75661375661376,167.19576719576722 93.12169312169313,167.61904761904762 92.4867724867725,168.04232804232805 91.85185185185186,168.46560846560848 91.42857142857143,168.8888888888889 90.7936507936508,169.31216931216932 90.15873015873017,169.73544973544975 87.61904761904762,171.42857142857144" style="fill:none; stroke:#00aa99; stroke-width:1.0"  /><polyline points="87.61904761904762,171.42857142857144 85.07936507936509,168.46560846560848 84.65608465608466,167.83068783068785 84.23280423280424,167.19576719576722 83.80952380952381,166.56084656084658 83.3862433862434,165.92592592592595 82.96296296296298,165.2910052910053 82.53968253968254,164.8677248677249 82.11640211640213,164.44444444444446 81.6931216931217,163.80952380952382 81.26984126984128,163.3862433862434 80.84656084656085,162.96296296296296 80.42328042328043,162.53968253968256 80.0,162.11640211640213 79.57671957671958,161.6931216931217 79.15343915343917,161.2698412698413 78.73015873015873,160.84656084656086 78.30687830687832,160.42328042328043 77.67195767195767,160.0 77.24867724867725,159.5767195767196 76.82539682539684,159.15343915343917 76.19047619047619,158.73015873015873 75.76719576719577,158.30687830687833 75.13227513227514,157.8835978835979 74.49735449735451,157.46031746031747 73.86243386243387,157.03703703703704 73.22751322751323,156.61375661375664 72.5925925925926,156.1904761904762 71.95767195767196,155.76719576719577 71.32275132275133,155.34391534391534 70.6878306878307,155.13227513227514 70.26455026455027,154.7089947089947 69.62962962962963,154.4973544973545 68.994708994709,154.07407407407408 68.35978835978837,153.86243386243387 67.72486772486774,153.65079365079367 67.08994708994709,153.43915343915344 66.45502645502646,153.22751322751324 65.82010582010582,153.01587301587304 65.18518518518519,152.8042328042328 64.55026455026456,152.5925925925926 63.91534391534392,152.5925925925926 63.280423280423285,152.38095238095238 62.64550264550265,152.16931216931218 62.01058201058201,152.16931216931218 61.37566137566138,151.95767195767198 60.74074074074075,151.74603174603175 60.10582010582011,151.53439153439155 59.470899470899475,151.32275132275134 58.83597883597884,151.11111111111111 58.2010582010582,150.8994708994709 57.56613756613757,150.6878306878307 56.93121693121694,150.6878306878307 56.2962962962963,150.47619047619048 55.661375661375665,150.05291005291005 55.02645502645503,150.05291005291005 54.39153439153439,149.84126984126985 53.75661375661376,149.62962962962965 53.12169312169313,149.41798941798942 52.48677248677249,148.99470899470901 51.851851851851855,148.78306878306879 51.21693121693122,148.35978835978838 50.58201058201058,147.93650793650795 49.94708994708995,147.72486772486775 49.31216931216932,147.30158730158732 48.677248677248684,146.8783068783069 48.25396825396826,146.45502645502646 47.830687830687836,146.03174603174605 47.195767195767196,145.60846560846562 46.77248677248678,144.973544973545 46.349206349206355,144.55026455026456 45.92592592592593,144.12698412698413 45.50264550264551,143.70370370370372 45.07936507936508,143.2804232804233 44.65608465608466,142.64550264550266 44.44444444444445,142.01058201058203 44.232804232804234,141.3756613756614 44.021164021164026,140.74074074074076 44.021164021164026,140.10582010582013 44.021164021164026,139.47089947089947 44.021164021164026,138.83597883597884 44.232804232804234,138.2010582010582 44.44444444444445,137.56613756613757 44.867724867724874,136.93121693121694 45.29100529100529,136.5079365079365 45.92592592592593,136.0846560846561 46.349206349206355,135.66137566137567 46.98412698412699,135.44973544973547 47.40740740740741,135.02645502645504 48.042328042328045,134.81481481481484 48.46560846560847,134.3915343915344 49.1005291005291,134.17989417989418 49.73544973544974,133.96825396825398 50.158730158730165,133.54497354497354 50.7936507936508,133.33333333333334 51.42857142857143,133.12169312169314 52.06349206349207,132.9100529100529 52.6984126984127,132.9100529100529 53.333333333333336,132.9100529100529 53.968253968253975,132.9100529100529 54.60317460317461,132.9100529100529 55.23809523809524,132.9100529100529 55.87301587301588,132.9100529100529 56.50793650793651,132.6984126984127 57.142857142857146,132.6984126984127 57.777777777777786,132.6984126984127 58.41269841269842,132.4867724867725 59.04761904761905,132.27513227513228 59.682539682539684,132.27513227513228 60.31746031746032,132.06349206349208 60.952380952380956,131.85185185185185 61.58730158730159,131.64021164021165 62.22222222222223,131.42857142857144 62.85714285714286,131.005291005291 63.492063492063494,130.7936507936508 64.12698412698413,130.37037037037038 64.76190476190477,130.15873015873018 65.18518518518519,129.73544973544975 65.60846560846561,129.31216931216932 66.03174603174604,128.67724867724868 66.45502645502646,128.25396825396825 66.87830687830689,127.61904761904763 67.3015873015873,126.98412698412699 67.72486772486774,126.34920634920636 67.93650793650794,125.71428571428572 68.14814814814815,125.07936507936509 68.35978835978837,124.44444444444446 68.57142857142858,123.80952380952382 68.78306878306879,123.17460317460318 68.78306878306879,122.53968253968254 68.994708994709,121.90476190476191 68.994708994709,121.26984126984128 68.994708994709,120.63492063492065 69.20634920634922,120.00000000000001 69.20634920634922,119.36507936507937 69.20634920634922,118.73015873015873 69.20634920634922,118.0952380952381 68.994708994709,117.46031746031747 68.994708994709,116.82539682539684 68.78306878306879,116.1904761904762 68.78306878306879,115.55555555555557 68.57142857142858,114.92063492063492 68.35978835978837,114.28571428571429 68.14814814814815,113.65079365079366 67.93650793650794,113.01587301587303 67.72486772486774,112.3809523809524 67.51322751322752,111.74603174603176 67.3015873015873,111.11111111111111 67.08994708994709,110.47619047619048 66.87830687830689,109.84126984126985 66.66666666666667,109.20634920634922 66.45502645502646,108.57142857142858 66.03174603174604,107.93650793650795 65.82010582010582,107.3015873015873 65.60846560846561,106.66666666666667 65.18518518518519,106.03174603174604 64.97354497354497,105.3968253968254 64.55026455026456,104.76190476190477 64.12698412698413,104.12698412698414 63.91534391534392,103.4920634920635 63.492063492063494,102.85714285714286 63.06878306878308,102.22222222222223 62.85714285714286,101.5873015873016 62.43386243386244,100.95238095238096 62.01058201058201,100.31746031746033 61.58730158730159,99.8941798941799 61.16402116402117,99.25925925925927 60.74074074074075,98.83597883597885 60.31746031746032,98.41269841269842 59.8941798941799,97.989417989418 59.470899470899475,97.56613756613757 58.83597883597884,97.14285714285715 58.2010582010582,96.71957671957672 57.56613756613757,96.2962962962963 56.93121693121694,95.87301587301587 56.2962962962963,95.66137566137567 55.661375661375665,95.44973544973546 55.02645502645503,95.23809523809524 54.39153439153439,95.02645502645504 53.75661375661376,95.02645502645504 53.12169312169313,94.81481481481482 52.48677248677249,94.81481481481482 51.851851851851855,94.81481481481482 51.21693121693122,94.81481481481482 50.58201058201058,94.81481481481482 49.94708994708995,95.02645502645504 49.31216931216932,95.23809523809524 48.677248677248684,95.23809523809524 48.042328042328045,95.44973544973546 47.40740740740741,95.66137566137567 46.77248677248678,95.87301587301587 46.13756613756614,96.2962962962963 45.50264550264551,96.50793650793652 44.867724867724874,96.93121693121694 44.232804232804234,97.14285714285715 43.80952380952381,97.56613756613757 43.17460317460318,97.989417989418 42.75132275132275,98.41269841269842 42.32804232804233,98.83597883597885 41.904761904761905,99.25925925925927 41.48148148148149,99.8941798941799 41.058201058201064,100.31746031746033 40.63492063492064,100.95238095238096 40.423280423280424,101.5873015873016 40.0,102.22222222222223 39.78835978835979,102.85714285714286 39.57671957671958,103.4920634920635 39.36507936507937,104.12698412698414 39.15343915343916,104.76190476190477 38.730158730158735,105.3968253968254 38.51851851851852,106.03174603174604 38.30687830687831,106.66666666666667 38.095238095238095,107.3015873015873 37.883597883597886,107.93650793650795 37.67195767195768,108.57142857142858 37.46031746031746,109.20634920634922 37.03703703703704,109.84126984126985 36.82539682539683,110.47619047619048 36.613756613756614,111.11111111111111 36.19047619047619,111.74603174603176 35.97883597883598,112.3809523809524 35.76719576719577,113.01587301587303 35.34391534391535,113.65079365079366 35.13227513227513,114.28571428571429 34.70899470899471,114.70899470899472 34.4973544973545,115.34391534391536 34.074074074074076,115.97883597883599 33.65079365079365,116.4021164021164 33.01587301587302,116.82539682539684 32.38095238095239,117.24867724867725 31.746031746031747,117.67195767195768 31.111111111111114,117.88359788359789 30.476190476190478,118.0952380952381 29.841269841269842,118.30687830687832 29.20634920634921,118.30687830687832 28.571428571428573,118.30687830687832 27.93650793650794,118.0952380952381 27.301587301587304,117.88359788359789 26.666666666666668,117.67195767195768 26.031746031746035,117.24867724867725 25.60846560846561,116.82539682539684 24.973544973544975,116.4021164021164 24.338624338624342,115.97883597883599 23.915343915343918,115.55555555555557 23.280423280423282,115.13227513227514 22.645502645502646,114.92063492063492 22.222222222222225,114.28571428571429 21.58730158730159,113.86243386243387 21.164021164021165,113.22751322751324 20.740740740740744,112.5925925925926 20.31746031746032,112.16931216931218 19.894179894179896,111.53439153439155 19.47089947089947,110.89947089947091 19.047619047619047,110.26455026455027 18.624338624338627,109.62962962962963 18.201058201058203,108.994708994709 17.98941798941799,108.35978835978837 17.566137566137566,107.72486772486774 17.142857142857146,107.0899470899471 16.71957671957672,106.45502645502647 16.296296296296298,105.82010582010582 16.084656084656086,105.18518518518519 15.661375661375663,104.76190476190477 15.238095238095239,104.12698412698414 14.814814814814817,103.4920634920635 14.391534391534393,102.85714285714286 13.96825396825397,102.22222222222223 13.544973544973546,101.5873015873016 13.121693121693122,100.95238095238096 12.6984126984127,100.31746031746033 12.275132275132275,99.68253968253968 12.063492063492065,99.04761904761905 11.640211640211641,98.62433862433863 11.216931216931219,97.989417989418 10.793650793650794,97.56613756613757 10.582010582010582,96.93121693121694 10.15873015873016,96.2962962962963 9.735449735449736,95.87301587301587 9.312169312169313,95.23809523809524 8.88888888888889,94.60317460317461 8.465608465608467,93.96825396825398 8.042328042328043,93.33333333333334 7.6190476190476195,92.69841269841271 7.195767195767196,92.27513227513228 6.772486772486773,91.64021164021165 6.34920634920635,91.00529100529101 5.9259259259259265,90.58201058201058 5.502645502645503,89.94708994708995 5.07936507936508,89.52380952380953 4.656084656084657,88.8888888888889 4.2328042328042335,88.25396825396827 3.8095238095238098,87.83068783068784 3.3862433862433865,87.1957671957672 2.9629629629629632,86.77248677248677 2.53968253968254,86.34920634920636 2.1164021164021167,85.71428571428572 -0.21164021164021166,82.53968253968254" style="fill:none; stroke:#3300bb; stroke-width:1.0"  /><circle cx="-0.21164021164021166" cy="82.53968253968254" r="2.0" style="fill:none; stroke:#000000aa; stroke-width:0.25" /><circle cx="180.10582010582013" cy="-0.21164021164021166" r="2.0" style="fill:none; stroke:#000000aa; stroke-width:0.25" /><circle cx="209.94708994708995" cy="102.43386243386244" r="2.0" style="fill:none; stroke:#000000aa; stroke-width:0.25" /><circle cx="87.61904761904762" cy="171.42857142857144" r="2.0" style="fill:none; stroke:#000000aa; stroke-width:0.25" /><circle cx="0.21164021164021166" cy="83.17460317460318" r="2.0" style="fill:none; stroke:#ff3366aa; stroke-width:0.25" /><circle cx="179.8941798941799" cy="0.21164021164021166" r="2.0" style="fill:none; stroke:#ff3366aa; stroke-width:0.25" /><circle cx="209.31216931216932" cy="102.22222222222223" r="2.0" style="fill:none; stroke:#ff3366aa; stroke-width:0.25" /><circle cx="87.1957671957672" cy="171.005291005291" r="2.0" style="fill:none; stroke:#ff3366aa; stroke-width:0.25" /><polyline points="10.582010582010582,77.46031746031747 9.947089947089948,77.67195767195767 9.312169312169313,77.88359788359789 8.677248677248677,78.30687830687832 8.042328042328043,78.51851851851852 7.407407407407408,78.73015873015873 6.772486772486773,79.15343915343917 6.137566137566138,79.36507936507937 5.502645502645503,79.57671957671958 4.867724867724868,80.0 4.2328042328042335,80.21164021164022 3.597883597883598,80.63492063492065 2.9629629629629632,81.05820105820106" style="fill:none; stroke:#001100; stroke-width:1.0" /><polyline points="7.195767195767196,92.27513227513228 6.772486772486773,91.64021164021165 6.34920634920635,91.00529100529101 5.9259259259259265,90.58201058201058 5.502645502645503,89.94708994708995 5.07936507936508,89.52380952380953 4.656084656084657,88.8888888888889 4.2328042328042335,88.25396825396827 3.8095238095238098,87.83068783068784 3.3862433862433865,87.1957671957672 2.9629629629629632,86.77248677248677 2.53968253968254,86.34920634920636 2.1164021164021167,85.71428571428572" style="fill:none; stroke:#000011; stroke-width:1.0" /><polyline points="183.4920634920635,11.640211640211641 183.2804232804233,11.005291005291006 183.0687830687831,10.370370370370372 182.85714285714286,9.735449735449736 182.64550264550266,9.100529100529101 182.43386243386246,8.465608465608467 182.22222222222223,7.830687830687832 182.22222222222223,7.195767195767196 182.01058201058203,6.560846560846561 181.79894179894183,5.9259259259259265 181.5873015873016,5.291005291005291 181.5873015873016,4.656084656084657 181.3756613756614,4.021164021164021 181.16402116402116,3.3862433862433865" style="fill:none; stroke:#001100; stroke-width:1.0" /><polyline points="169.73544973544975,6.34920634920635 170.37037037037038,6.137566137566138 170.7936507936508,5.714285714285714 171.42857142857144,5.291005291005291 172.06349206349208,4.867724867724868 172.6984126984127,4.444444444444445 173.12169312169314,4.021164021164021 173.75661375661377,3.597883597883598 174.3915343915344,3.174603174603175 175.02645502645504,2.9629629629629632 175.66137566137567,2.53968253968254 176.2962962962963,2.1164021164021167 176.93121693121694,1.9047619047619049" style="fill:none; stroke:#000011; stroke-width:1.0" /><polyline points="197.8835978835979,103.28042328042329 198.51851851851853,103.28042328042329 199.15343915343917,103.28042328042329 199.7883597883598,103.06878306878308 200.42328042328043,103.06878306878308 201.05820105820106,103.06878306878308 201.6931216931217,102.85714285714286 202.32804232804233,102.85714285714286 202.962962962963,102.85714285714286 203.59788359788362,102.64550264550266 204.23280423280426,102.64550264550266 204.8677248677249,102.64550264550266 205.50264550264552,102.64550264550266 206.13756613756615,102.64550264550266" style="fill:none; stroke:#001100; stroke-width:1.0" /><polyline points="204.44444444444446,91.21693121693123 204.8677248677249,91.85185185185186 205.0793650793651,92.4867724867725 205.50264550264552,93.12169312169313 205.71428571428572,93.75661375661376 205.92592592592595,94.39153439153439 206.13756613756615,95.02645502645504 206.56084656084658,95.66137566137567 206.7724867724868,96.2962962962963 207.19576719576722,96.93121693121694 207.61904761904765,97.56613756613757 207.83068783068785,98.2010582010582 208.25396825396828,98.83597883597885" style="fill:none; stroke:#000011; stroke-width:1.0" /><polyline points="79.57671957671958,161.6931216931217 80.0,162.11640211640213 80.42328042328043,162.53968253968256 80.84656084656085,162.96296296296296 81.26984126984128,163.3862433862434 81.6931216931217,163.80952380952382 82.11640211640213,164.44444444444446 82.53968253968254,164.8677248677249 82.96296296296298,165.2910052910053 83.3862433862434,165.92592592592595 83.80952380952381,166.56084656084658 84.23280423280424,167.19576719576722 84.65608465608466,167.83068783068785 85.07936507936509,168.46560846560848" style="fill:none; stroke:#001100; stroke-width:1.0" /><polyline points="97.35449735449737,164.8677248677249 96.71957671957672,165.0793650793651 96.08465608465609,165.50264550264552 95.44973544973546,165.92592592592595 94.81481481481482,166.34920634920636 94.17989417989419,166.7724867724868 93.75661375661376,167.19576719576722 93.12169312169313,167.61904761904762 92.4867724867725,168.04232804232805 91.85185185185186,168.46560846560848 91.42857142857143,168.8888888888889 90.7936507936508,169.31216931216932 90.15873015873017,169.73544973544975" style="fill:none; stroke:#000011; stroke-width:1.0" /><polyline points="2.9629629629629632,81.05820105820106 -16.084656084656086,90.15873015873017" style="fill:none; stroke:#ffaa00; stroke-width:0.4" /><polyline points="2.1164021164021167,85.71428571428572 -10.793650793650794,68.994708994709" style="fill:none; stroke:#aaff00; stroke-width:0.4" /><polyline points="181.16402116402116,3.3862433862433865 175.44973544973547,-16.931216931216934" style="fill:none; stroke:#ffaa00; stroke-width:0.4" /><polyline points="176.93121693121694,1.9047619047619049 194.92063492063494,-9.312169312169313" style="fill:none; stroke:#aaff00; stroke-width:0.4" /><polyline points="206.13756613756615,102.64550264550266 227.30158730158732,100.95238095238096" style="fill:none; stroke:#ffaa00; stroke-width:0.4" /><polyline points="208.25396825396828,98.83597883597885 217.7777777777778,117.67195767195768" style="fill:none; stroke:#aaff00; stroke-width:0.4" /><polyline points="85.07936507936509,168.46560846560848 98.41269841269842,184.973544973545" style="fill:none; stroke:#ffaa00; stroke-width:0.4" /><polyline points="90.15873015873017,169.73544973544975 72.5925925925926,181.5873015873016" style="fill:none; stroke:#aaff00; stroke-width:0.4" /><circle cx="111.95767195767196" cy="87.83068783068784" r="1.0" style="fill:#444444; stroke-width:0" /><circle cx="106.87830687830689" cy="96.2962962962963" r="10.582010582010582" style="fill:#ff770022; stroke-width:0" /><circle cx="106.87830687830689" cy="96.2962962962963" r="1.0" style="fill:#ff7700; stroke-width:0" /></svg>