<?xml version="1.0" encoding="UTF-8" standalone="no"?><svg width="474.28571428571433" height="591.7460317460318" viewBox="-10 -10 178.0952380952381 217.24867724867727" xmlns="http://www.w3.org/2000/svg" xmlns:xlink="http://www.w3.org/1999/xlink"><polyline points="25.185185185185187,43.80952380952381 29.41798941798942,43.5978835978836 30.052910052910054,43.5978835978836 30.68783068783069,43.5978835978836 31.322751322751326,43.5978835978836 31.95767195767196,43.5978835978836 32.592592592592595,43.5978835978836 33.22751322751323,43.5978835978836 33.86243386243387,43.5978835978836 34.4973544973545,43.5978835978836 35.13227513227513,43.5978835978836 35.76719576719577,43.5978835978836 36.402116402116405,43.386243386243386 37.03703703703704,43.386243386243386 37.67195767195768,43.386243386243386 38.30687830687831,43.5978835978836 38.94179894179894,43.5978835978836 39.57671957671958,43.5978835978836 40.211640211640216,43.5978835978836 40.84656084656085,43.80952380952381 41.48148148148149,43.5978835978836 42.11640211640212,43.5978835978836 42.75132275132275,43.80952380952381 43.386243386243386,44.021164021164026 44.021164021164026,44.021164021164026 44.65608465608466,44.021164021164026 45.29100529100529,44.021164021164026 45.714285714285715,44.44444444444445 46.349206349206355,44.44444444444445 46.98412698412699,44.44444444444445 47.61904761904762,44.232804232804234 48.25396825396826,44.232804232804234 48.88888888888889,44.44444444444445 49.523809523809526,44.44444444444445 50.158730158730165,44.44444444444445 50.7936507936508,44.232804232804234 51.42857142857143,44.021164021164026 52.06349206349207,43.80952380952381 52.48677248677249,43.17460317460318 52.91005291005291,42.75132275132275 53.54497354497355,42.32804232804233 53.968253968253975,41.6931216931217 54.179894179894184,41.058201058201064 54.60317460317461,40.423280423280424 54.60317460317461,39.78835978835979 54.81481481481482,39.15343915343916 55.02645502645503,38.51851851851852 54.81481481481482,37.883597883597886 54.81481481481482,37.248677248677254 54.81481481481482,36.613756613756614 54.81481481481482,35.97883597883598 54.60317460317461,35.34391534391535 54.60317460317461,34.70899470899471 54.39153439153439,34.074074074074076 54.179894179894184,33.43915343915344 53.75661375661376,32.804232804232804 53.333333333333336,32.16931216931217 52.91005291005291,31.53439153439154 52.48677248677249,30.899470899470902 52.06349206349207,30.476190476190478 51.640211640211646,30.052910052910054 51.21693121693122,29.629629629629633 50.7936507936508,28.994708994708997 50.370370370370374,28.571428571428573 49.94708994708995,28.14814814814815 49.523809523809526,27.724867724867728 49.1005291005291,27.301587301587304 48.677248677248684,26.666666666666668 48.46560846560847,26.031746031746035 48.25396825396826,25.3968253968254 48.042328042328045,24.761904761904763 47.830687830687836,24.12698412698413 47.61904761904762,23.492063492063494 47.40740740740741,22.857142857142858 47.40740740740741,22.222222222222225 47.195767195767196,21.58730158730159 46.98412698412699,20.952380952380953 46.98412698412699,20.31746031746032 46.98412698412699,19.682539682539684 46.98412698412699,19.047619047619047 46.98412698412699,18.412698412698415 46.77248677248678,17.77777777777778 46.98412698412699,17.142857142857146 46.98412698412699,16.50793650793651 46.98412698412699,15.873015873015873 46.98412698412699,15.238095238095239 47.195767195767196,14.603174603174605 47.40740740740741,13.96825396825397 47.40740740740741,13.333333333333334 47.830687830687836,12.6984126984127 47.830687830687836,12.063492063492065 48.042328042328045,11.428571428571429 48.46560846560847,10.793650793650794 48.677248677248684,10.15873015873016 49.1005291005291,9.523809523809524 49.31216931216932,8.88888888888889 49.523809523809526,8.253968253968255 49.94708994708995,7.6190476190476195 50.370370370370374,6.984126984126985 50.7936507936508,6.560846560846561 51.21693121693122,6.137566137566138 51.640211640211646,5.502645502645503 52.06349206349207,5.07936507936508 52.48677248677249,4.656084656084657 53.12169312169313,4.2328042328042335 53.75661375661376,3.8095238095238098 54.179894179894184,3.3862433862433865 54.81481481481482,2.9629629629629632 55.449735449735456,2.53968253968254 56.08465608465609,2.3280423280423284 56.71957671957672,1.9047619047619049 57.35449735449736,1.6931216931216932 57.989417989417994,1.4814814814814816 58.62433862433863,1.26984126984127 59.25925925925927,0.8465608465608466 59.8941798941799,0.8465608465608466 60.52910052910053,0.634920634920635 61.16402116402117,0.634920634920635 61.798941798941804,0.634920634920635 62.43386243386244,0.4232804232804233 63.06878306878308,0.4232804232804233 63.70370370370371,0.21164021164021166 64.33862433862434,0.21164021164021166 64.97354497354497,0.21164021164021166 65.60846560846561,0.21164021164021166 66.24338624338625,0.21164021164021166 66.87830687830689,0.21164021164021166 67.51322751322752,0.4232804232804233 68.14814814814815,0.4232804232804233 68.78306878306879,0.4232804232804233 69.41798941798942,0.634920634920635 70.05291005291006,0.8465608465608466 70.6878306878307,0.8465608465608466 71.32275132275133,0.8465608465608466 71.95767195767196,0.8465608465608466 72.5925925925926,1.0582010582010584 73.22751322751323,1.0582010582010584 73.86243386243387,1.26984126984127 74.49735449735451,1.6931216931216932 75.13227513227514,1.6931216931216932 75.76719576719577,1.9047619047619049 76.4021164021164,2.3280423280423284 77.03703703703704,2.7513227513227516 77.67195767195767,2.9629629629629632 78.0952380952381,3.3862433862433865 78.73015873015873,3.8095238095238098 79.15343915343917,4.2328042328042335 79.7883597883598,4.656084656084657 80.21164021164022,5.07936507936508 80.63492063492065,5.502645502645503 81.05820105820106,5.9259259259259265 81.48148148148148,6.560846560846561 81.90476190476191,6.984126984126985 82.32804232804233,7.6190476190476195 82.75132275132276,8.042328042328043 83.17460317460318,8.465608465608467 83.59788359788361,9.100529100529101 83.80952380952381,9.735449735449736 84.02116402116403,10.370370370370372 84.23280423280424,11.005291005291006 84.23280423280424,11.640211640211641 84.44444444444446,12.275132275132275 84.44444444444446,12.910052910052912 84.44444444444446,13.544973544973546 84.44444444444446,14.17989417989418 84.44444444444446,14.814814814814817 84.44444444444446,15.449735449735451 84.44444444444446,16.084656084656086 84.44444444444446,16.71957671957672 84.23280423280424,17.354497354497354 84.23280423280424,17.98941798941799 84.23280423280424,18.624338624338627 84.02116402116403,19.25925925925926 84.02116402116403,19.894179894179896 83.80952380952381,20.529100529100532 83.59788359788361,21.164021164021165 83.3862433862434,21.7989417989418 83.3862433862434,22.433862433862437 83.17460317460318,23.06878306878307 82.96296296296298,23.703703703703706 82.53968253968254,24.338624338624342 82.32804232804233,24.973544973544975 82.11640211640213,25.60846560846561 81.90476190476191,26.243386243386244 81.90476190476191,26.87830687830688 81.6931216931217,27.513227513227516 81.6931216931217,28.14814814814815 81.6931216931217,28.783068783068785 81.48148148148148,29.41798941798942 81.48148148148148,30.052910052910054 81.48148148148148,30.68783068783069 81.6931216931217,31.322751322751326 81.90476190476191,31.95767195767196 82.11640211640213,32.592592592592595 82.32804232804233,33.22751322751323 82.75132275132276,33.86243386243387 83.17460317460318,34.4973544973545 83.59788359788361,34.920634920634924 84.02116402116403,35.34391534391535 84.65608465608466,35.76719576719577 85.07936507936509,36.19047619047619 85.71428571428572,36.402116402116405 86.34920634920636,36.613756613756614 86.98412698412699,36.82539682539683 87.61904761904762,37.03703703703704 88.25396825396827,37.03703703703704 88.8888888888889,37.03703703703704 89.52380952380953,37.03703703703704 90.15873015873017,36.82539682539683 90.7936507936508,36.613756613756614 91.42857142857143,36.613756613756614 92.06349206349208,36.402116402116405 92.69841269841271,36.19047619047619 93.33333333333334,35.76719576719577 93.96825396825398,35.55555555555556 94.39153439153439,35.13227513227513 95.02645502645504,34.920634920634924 95.44973544973546,34.4973544973545 96.08465608465609,34.074074074074076 96.71957671957672,33.65079365079365 97.35449735449737,33.22751322751323 97.989417989418,32.804232804232804 98.62433862433863,32.38095238095239 99.25925925925927,31.95767195767196 99.8941798941799,31.53439153439154 100.52910052910053,31.111111111111114 101.16402116402116,30.68783068783069 101.79894179894181,30.476190476190478 102.43386243386244,30.052910052910054 103.06878306878308,29.841269841269842 103.70370370370371,29.841269841269842 104.33862433862434,29.629629629629633 104.97354497354497,29.41798941798942 105.60846560846562,28.994708994708997 106.24338624338625,28.783068783068785 106.87830687830689,28.571428571428573 107.51322751322752,28.14814814814815 108.14814814814815,27.93650793650794 108.78306878306879,27.724867724867728 109.41798941798943,27.513227513227516 110.05291005291006,27.301587301587304 110.6878306878307,27.089947089947092 111.32275132275133,26.87830687830688 111.95767195767196,26.666666666666668 112.5925925925926,26.455026455026456 113.22751322751324,26.243386243386244 113.86243386243387,26.243386243386244 114.49735449735451,25.820105820105823 115.13227513227514,25.60846560846561 115.76719576719577,25.60846560846561 116.4021164021164,25.3968253968254 117.03703703703705,25.185185185185187 117.67195767195768,25.185185185185187 118.30687830687832,24.973544973544975 118.94179894179895,24.761904761904763 119.57671957671958,24.55026455026455 120.21164021164022,24.338624338624342 120.84656084656086,24.338624338624342 124.02116402116403,23.492063492063494" style="fill:none; stroke:#cc0000; stroke-width:1.0"  /><polyline points="124.02116402116403,23.492063492063494 124.86772486772487,26.455026455026456 124.86772486772487,27.089947089947092 125.07936507936509,27.724867724867728 125.2910052910053,28.35978835978836 125.5026455026455,28.994708994708997 125.71428571428572,29.629629629629633 125.92592592592594,30.264550264550266 125.92592592592594,30.899470899470902 126.13756613756615,31.53439153439154 126.34920634920636,32.16931216931217 126.56084656084657,32.804232804232804 126.77248677248679,33.43915343915344 126.98412698412699,34.074074074074076 126.98412698412699,34.70899470899471 127.1957671957672,35.34391534391535 127.40740740740742,35.97883597883598 127.61904761904763,36.613756613756614 127.83068783068784,37.248677248677254 128.04232804232805,37.883597883597886 128.25396825396825,38.51851851851852 128.46560846560848,39.15343915343916 128.67724867724868,39.78835978835979 128.88888888888889,40.423280423280424 129.10052910052912,41.058201058201064 129.31216931216932,41.6931216931217 129.52380952380955,42.32804232804233 129.94708994708995,42.96296296296297 130.37037037037038,43.386243386243386 130.58201058201058,44.021164021164026 131.005291005291,44.65608465608466 131.21693121693121,45.29100529100529 131.64021164021165,45.92592592592593 131.85185185185185,46.560846560846564 132.27513227513228,47.195767195767196 132.6984126984127,47.830687830687836 132.9100529100529,48.46560846560847 133.33333333333334,49.1005291005291 133.75661375661377,49.73544973544974 134.17989417989418,50.370370370370374 134.6031746031746,51.00529100529101 134.81481481481484,51.640211640211646 135.23809523809524,52.06349206349207 135.66137566137567,52.6984126984127 136.0846560846561,53.333333333333336 136.2962962962963,53.968253968253975 136.71957671957674,54.39153439153439 137.14285714285717,55.02645502645503 137.35449735449737,55.661375661375665 137.7777777777778,56.08465608465609 138.2010582010582,56.71957671957672 138.62433862433863,57.35449735449736 139.04761904761907,57.989417989417994 139.47089947089947,58.41269841269842 139.8941798941799,59.04761904761905 140.31746031746033,59.682539682539684 140.74074074074076,60.31746031746032 141.16402116402116,60.74074074074075 141.5873015873016,61.37566137566138 142.01058201058203,62.01058201058201 142.43386243386246,62.43386243386244 142.64550264550266,63.06878306878308 143.0687830687831,63.70370370370371 143.4920634920635,64.33862433862434 143.91534391534393,64.97354497354497 144.33862433862436,65.60846560846561 144.76190476190476,66.03174603174604 145.1851851851852,66.66666666666667 145.60846560846562,67.3015873015873 146.03174603174605,67.93650793650794 146.45502645502646,68.57142857142858 146.8783068783069,69.20634920634922 147.30158730158732,69.84126984126985 147.72486772486775,70.47619047619048 148.14814814814815,71.11111111111111 148.57142857142858,71.74603174603175 148.99470899470901,72.38095238095238 149.41798941798942,73.01587301587303 149.84126984126985,73.65079365079366 150.26455026455028,74.28571428571429 150.6878306878307,74.92063492063492 151.11111111111111,75.55555555555556 151.32275132275134,76.19047619047619 151.74603174603175,76.61375661375662 151.95767195767198,77.24867724867725 152.38095238095238,77.67195767195767 152.8042328042328,78.30687830687832 153.22751322751324,78.73015873015873 153.43915343915344,79.36507936507937 153.65079365079367,80.0 153.86243386243387,80.63492063492065 154.07407407407408,81.26984126984128 154.2857142857143,81.90476190476191 154.4973544973545,82.53968253968254 154.4973544973545,83.17460317460318 154.7089947089947,83.80952380952381 154.7089947089947,84.44444444444446 154.7089947089947,85.07936507936509 154.4973544973545,85.71428571428572 154.4973544973545,86.34920634920636 154.2857142857143,86.98412698412699 153.86243386243387,87.40740740740742 153.43915343915344,88.04232804232805 153.01587301587304,88.46560846560847 152.38095238095238,88.8888888888889 151.74603174603175,89.1005291005291 151.11111111111111,89.31216931216932 150.47619047619048,89.52380952380953 149.84126984126985,89.52380952380953 149.20634920634922,89.52380952380953 148.57142857142858,89.31216931216932 147.93650793650795,89.1005291005291 147.30158730158732,89.1005291005291 146.66666666666669,88.8888888888889 146.03174603174605,88.67724867724868 145.39682539682542,88.46560846560847 144.76190476190476,88.25396825396827 144.12698412698413,87.83068783068784 143.4920634920635,87.61904761904762 142.85714285714286,87.40740740740742 142.22222222222223,87.1957671957672 141.5873015873016,86.98412698412699 140.95238095238096,86.98412698412699 140.31746031746033,86.56084656084657 139.6825396825397,86.34920634920636 139.04761904761907,86.13756613756614 138.41269841269843,85.92592592592594 137.7777777777778,85.71428571428572 137.14285714285717,85.5026455026455 136.5079365079365,85.29100529100529 135.87301587301587,85.07936507936509 135.23809523809524,84.86772486772487 134.6031746031746,84.65608465608466 133.96825396825398,84.44444444444446 133.33333333333334,84.44444444444446 132.6984126984127,84.44444444444446 132.06349206349208,84.44444444444446 131.42857142857144,84.44444444444446 130.7936507936508,84.65608465608466 130.15873015873018,84.86772486772487 129.52380952380955,85.07936507936509 128.88888888888889,85.5026455026455 128.25396825396825,85.92592592592594 127.61904761904763,86.34920634920636 127.1957671957672,86.77248677248677 126.77248677248679,87.1957671957672 126.34920634920636,87.83068783068784 125.92592592592594,88.25396825396827 125.5026455026455,88.67724867724868 125.07936507936509,89.31216931216932 124.86772486772487,89.94708994708995 124.44444444444446,90.37037037037038 124.23280423280424,91.00529100529101 123.80952380952382,91.42857142857143 123.59788359788361,92.06349206349208 123.17460317460318,92.69841269841271 122.75132275132276,93.33333333333334 122.53968253968254,93.96825396825398 122.11640211640213,94.60317460317461 121.90476190476191,95.23809523809524 121.4814814814815,95.66137566137567 121.26984126984128,96.2962962962963 121.05820105820106,96.93121693121694 120.84656084656086,97.56613756613757 120.42328042328043,98.2010582010582 120.21164021164022,98.83597883597885 120.00000000000001,99.47089947089948 119.7883597883598,100.10582010582011 119.57671957671958,100.74074074074075 119.36507936507937,101.37566137566138 119.15343915343917,102.01058201058201 119.15343915343917,102.64550264550266 118.94179894179895,103.28042328042329 118.73015873015873,103.91534391534393 118.51851851851853,104.55026455026456 118.30687830687832,105.18518518518519 118.30687830687832,105.82010582010582 118.0952380952381,106.45502645502647 118.0952380952381,107.0899470899471 117.88359788359789,107.72486772486774 117.88359788359789,108.35978835978837 117.88359788359789,108.994708994709 117.67195767195768,109.62962962962963 117.67195767195768,110.26455026455027 117.67195767195768,110.89947089947091 117.46031746031747,111.53439153439155 117.46031746031747,112.16931216931218 117.46031746031747,112.80423280423281 117.67195767195768,113.43915343915344 117.46031746031747,114.07407407407408 117.46031746031747,114.70899470899472 117.46031746031747,115.34391534391536 117.46031746031747,115.97883597883599 117.46031746031747,116.61375661375662 117.46031746031747,117.24867724867725 117.46031746031747,117.88359788359789 117.67195767195768,118.51851851851853 117.67195767195768,119.15343915343917 117.67195767195768,119.7883597883598 117.88359788359789,120.42328042328043 117.88359788359789,121.05820105820106 118.0952380952381,121.6931216931217 118.30687830687832,122.32804232804234 118.51851851851853,122.96296296296298 118.51851851851853,123.59788359788361 118.73015873015873,124.23280423280424 118.94179894179895,124.86772486772487 119.15343915343917,125.5026455026455 119.57671957671958,126.13756613756615 119.7883597883598,126.77248677248679 120.00000000000001,127.40740740740742 120.42328042328043,128.04232804232805 120.63492063492065,128.67724867724868 121.05820105820106,129.31216931216932 121.4814814814815,129.94708994708995 121.90476190476191,130.58201058201058 122.32804232804234,131.005291005291 122.75132275132276,131.64021164021165 123.17460317460318,132.06349206349208 123.59788359788361,132.4867724867725 124.02116402116403,132.9100529100529 124.65608465608466,133.33333333333334 125.07936507936509,133.75661375661377 125.71428571428572,133.96825396825398 126.34920634920636,134.3915343915344 126.98412698412699,134.6031746031746 127.61904761904763,134.81481481481484 128.25396825396825,135.02645502645504 128.88888888888889,135.23809523809524 129.52380952380955,135.44973544973547 130.15873015873018,135.44973544973547 130.7936507936508,135.44973544973547 131.42857142857144,135.66137566137567 132.06349206349208,135.66137566137567 132.6984126984127,135.87301587301587 133.33333333333334,135.87301587301587 133.96825396825398,135.66137566137567 134.6031746031746,135.66137566137567 135.23809523809524,135.66137566137567 135.87301587301587,135.44973544973547 136.5079365079365,135.66137566137567 137.14285714285717,135.44973544973547 137.7777777777778,135.44973544973547 138.41269841269843,135.23809523809524 139.04761904761907,135.02645502645504 139.6825396825397,135.02645502645504 140.31746031746033,134.81481481481484 140.95238095238096,134.6031746031746 141.3756613756614,134.17989417989418 142.01058201058203,133.96825396825398 142.64550264550266,133.75661375661377 143.2804232804233,133.54497354497354 143.91534391534393,133.33333333333334 144.55026455026456,132.9100529100529 145.1851851851852,132.6984126984127 145.82010582010582,132.4867724867725 146.45502645502646,132.06349206349208 147.0899470899471,131.85185185185185 147.51322751322752,131.42857142857144 148.14814814814815,131.21693121693121 148.78306878306879,131.005291005291 149.41798941798942,130.58201058201058 150.05291005291005,130.15873015873018 150.6878306878307,129.94708994708995 151.32275132275134,129.73544973544975 151.95767195767198,129.94708994708995 152.5925925925926,129.73544973544975 153.22751322751324,129.73544973544975 153.86243386243387,129.94708994708995 154.4973544973545,130.15873015873018 155.13227513227514,130.58201058201058 155.76719576719577,131.005291005291 156.1904761904762,131.42857142857144 156.61375661375664,131.85185185185185 156.82539682539684,132.4867724867725 157.24867724867727,133.12169312169314 157.46031746031747,133.75661375661377 157.46031746031747,134.3915343915344 157.67195767195767,135.02645502645504 157.67195767195767,135.66137566137567 157.67195767195767,136.2962962962963 157.67195767195767,136.93121693121694 157.67195767195767,137.56613756613757 157.67195767195767,138.2010582010582 157.67195767195767,138.83597883597884 157.67195767195767,139.47089947089947 157.67195767195767,140.10582010582013 157.67195767195767,140.74074074074076 157.67195767195767,141.3756613756614 157.67195767195767,142.01058201058203 157.46031746031747,142.64550264550266 157.46031746031747,143.2804232804233 157.46031746031747,143.91534391534393 157.46031746031747,144.55026455026456 157.24867724867727,145.1851851851852 157.24867724867727,145.82010582010582 157.24867724867727,146.45502645502646 157.24867724867727,147.0899470899471 157.03703703703704,147.72486772486775 157.24867724867727,148.35978835978838 157.03703703703704,148.99470899470901 157.03703703703704,149.62962962962965 156.82539682539684,150.26455026455028 156.82539682539684,150.8994708994709 156.82539682539684,151.53439153439155 156.61375661375664,152.16931216931218 156.61375661375664,152.8042328042328 156.4021164021164,153.43915343915344 156.4021164021164,154.07407407407408 156.4021164021164,154.7089947089947 156.1904761904762,155.34391534391534 156.1904761904762,155.978835978836 155.978835978836,156.61375661375664 155.978835978836,157.24867724867727 155.76719576719577,157.8835978835979 155.76719576719577,158.51851851851853 155.55555555555557,159.15343915343917 155.55555555555557,159.7883597883598 155.55555555555557,160.42328042328043 155.34391534391534,161.05820105820106 155.13227513227514,161.6931216931217 155.13227513227514,162.32804232804233 155.13227513227514,162.96296296296296 154.92063492063494,163.59788359788362 154.92063492063494,164.23280423280426 154.92063492063494,164.8677248677249 154.7089947089947,165.50264550264552 154.7089947089947,166.13756613756615 154.4973544973545,166.7724867724868 154.4973544973545,167.40740740740742 154.4973544973545,168.04232804232805 154.2857142857143,168.67724867724868 154.2857142857143,169.31216931216932 154.07407407407408,169.94708994708995 154.07407407407408,170.58201058201058 153.86243386243387,171.21693121693124 153.86243386243387,171.85185185185188 153.65079365079367,172.4867724867725 153.65079365079367,173.12169312169314 153.65079365079367,173.75661375661377 153.43915343915344,174.3915343915344 153.43915343915344,175.02645502645504 153.43915343915344,175.66137566137567 153.22751322751324,176.2962962962963 153.22751322751324,176.93121693121694 153.22751322751324,177.56613756613757 153.01587301587304,178.2010582010582 153.01587301587304,178.83597883597884 153.01587301587304,179.4708994708995 153.01587301587304,180.10582010582013 152.8042328042328,180.74074074074076 152.8042328042328,181.3756613756614 152.16931216931218,184.7619047619048" style="fill:none; stroke:#999900; stroke-width:1.0"  /><polyline points="152.16931216931218,184.7619047619048 149.41798941798942,184.973544973545 148.78306878306879,184.973544973545 148.14814814814815,184.973544973545 147.51322751322752,184.973544973545 146.8783068783069,184.973544973545 146.24338624338625,184.973544973545 145.60846560846562,184.973544973545 144.973544973545,185.1851851851852 144.33862433862436,185.1851851851852 143.70370370370372,185.1851851851852 143.0687830687831,185.1851851851852 142.43386243386246,185.1851851851852 141.7989417989418,185.1851851851852 141.16402116402116,185.39682539682542 140.52910052910053,185.39682539682542 139.8941798941799,185.39682539682542 139.25925925925927,185.39682539682542 138.62433862433863,185.39682539682542 137.989417989418,185.60846560846562 137.35449735449737,185.60846560846562 136.71957671957674,185.60846560846562 136.0846560846561,185.60846560846562 135.44973544973547,185.60846560846562 134.81481481481484,185.82010582010582 134.17989417989418,185.82010582010582 133.54497354497354,185.82010582010582 132.9100529100529,185.82010582010582 132.27513227513228,185.82010582010582 131.64021164021165,185.82010582010582 131.005291005291,185.82010582010582 130.37037037037038,186.03174603174605 129.73544973544975,186.03174603174605 129.10052910052912,186.03174603174605 128.46560846560848,186.03174603174605 127.83068783068784,186.03174603174605 127.1957671957672,186.03174603174605 126.56084656084657,186.03174603174605 125.92592592592594,186.03174603174605 125.2910052910053,186.03174603174605 124.65608465608466,186.03174603174605 124.02116402116403,186.03174603174605 123.3862433862434,185.82010582010582 122.75132275132276,185.60846560846562 122.11640211640213,185.60846560846562 121.6931216931217,185.1851851851852 121.05820105820106,184.973544973545 120.63492063492065,184.55026455026456 120.21164021164022,184.12698412698415 119.7883597883598,183.4920634920635 119.36507936507937,183.0687830687831 119.15343915343917,182.43386243386246 118.94179894179895,181.79894179894183 118.73015873015873,181.16402116402116 118.73015873015873,180.52910052910053 118.73015873015873,179.8941798941799 118.73015873015873,179.25925925925927 118.94179894179895,178.62433862433863 119.15343915343917,177.989417989418 119.36507936507937,177.35449735449737 119.7883597883598,176.71957671957674 119.7883597883598,176.0846560846561 120.21164021164022,175.44973544973547 120.42328042328043,174.81481481481484 120.63492063492065,174.1798941798942 120.84656084656086,173.54497354497354 121.05820105820106,172.9100529100529 121.05820105820106,172.27513227513228 121.26984126984128,171.64021164021165 121.4814814814815,171.005291005291 121.4814814814815,170.37037037037038 121.6931216931217,169.73544973544975 121.6931216931217,169.10052910052912 121.6931216931217,168.46560846560848 121.6931216931217,167.83068783068785 121.6931216931217,167.19576719576722 121.6931216931217,166.56084656084658 121.6931216931217,165.92592592592595 121.6931216931217,165.2910052910053 121.6931216931217,164.65608465608466 121.6931216931217,164.02116402116403 121.4814814814815,163.3862433862434 121.4814814814815,162.75132275132276 121.26984126984128,162.11640211640213 121.05820105820106,161.4814814814815 120.84656084656086,160.84656084656086 120.63492063492065,160.21164021164023 120.42328042328043,159.5767195767196 120.21164021164022,158.94179894179896 119.7883597883598,158.30687830687833 119.36507936507937,157.8835978835979 118.94179894179895,157.24867724867727 118.51851851851853,156.82539682539684 117.88359788359789,156.4021164021164 117.24867724867725,155.978835978836 116.61375661375662,155.55555555555557 115.97883597883599,155.34391534391534 115.34391534391536,155.13227513227514 114.70899470899472,154.7089947089947 114.07407407407408,154.4973544973545 113.43915343915344,154.4973544973545 112.80423280423281,154.2857142857143 112.16931216931218,154.07407407407408 111.53439153439155,154.07407407407408 110.89947089947091,153.86243386243387 110.26455026455027,153.86243386243387 109.62962962962963,153.86243386243387 108.994708994709,153.86243386243387 108.35978835978837,153.65079365079367 107.72486772486774,153.65079365079367 107.0899470899471,153.86243386243387 106.45502645502647,153.86243386243387 105.82010582010582,154.07407407407408 105.18518518518519,154.07407407407408 104.55026455026456,154.07407407407408 103.91534391534393,154.2857142857143 103.28042328042329,154.2857142857143 102.64550264550266,154.4973544973545 102.01058201058201,154.4973544973545 101.37566137566138,154.7089947089947 100.74074074074075,154.7089947089947 100.10582010582011,154.92063492063494 99.47089947089948,154.92063492063494 98.83597883597885,155.13227513227514 98.2010582010582,155.34391534391534 97.56613756613757,155.34391534391534 96.93121693121694,155.55555555555557 96.2962962962963,155.76719576719577 95.66137566137567,155.978835978836 95.02645502645504,155.978835978836 94.39153439153439,156.1904761904762 93.75661375661376,156.4021164021164 93.12169312169313,156.61375661375664 92.4867724867725,156.82539682539684 91.85185185185186,157.03703703703704 91.21693121693123,157.24867724867727 90.58201058201058,157.46031746031747 89.94708994708995,157.67195767195767 89.31216931216932,158.0952380952381 88.67724867724868,158.30687830687833 88.04232804232805,158.73015873015873 87.40740740740742,159.15343915343917 86.77248677248677,159.5767195767196 86.34920634920636,160.0 85.92592592592594,160.42328042328043 85.5026455026455,160.84656084656086 85.07936507936509,161.2698412698413 84.65608465608466,161.90476190476193 84.44444444444446,162.53968253968256 84.02116402116403,163.1746031746032 83.80952380952381,163.80952380952382 83.59788359788361,164.44444444444446 83.3862433862434,165.0793650793651 83.3862433862434,165.71428571428572 83.17460317460318,166.34920634920636 82.96296296296298,166.984126984127 82.96296296296298,167.61904761904762 82.96296296296298,168.25396825396825 82.96296296296298,168.8888888888889 82.96296296296298,169.52380952380955 82.96296296296298,170.15873015873018 83.17460317460318,170.7936507936508 83.17460317460318,171.42857142857144 83.3862433862434,172.06349206349208 83.59788359788361,172.6984126984127 83.80952380952381,173.33333333333334 84.02116402116403,173.96825396825398 84.44444444444446,174.6031746031746 84.65608465608466,175.23809523809524 85.07936507936509,175.66137566137567 85.29100529100529,176.2962962962963 85.71428571428572,176.71957671957674 86.13756613756614,177.35449735449737 86.56084656084657,177.989417989418 86.77248677248677,178.62433862433863 87.1957671957672,179.04761904761907 87.61904761904762,179.6825396825397 88.04232804232805,180.31746031746033 88.46560846560847,180.95238095238096 88.8888888888889,181.5873015873016 89.31216931216932,182.22222222222223 89.52380952380953,182.85714285714286 89.94708994708995,183.2804232804233 90.37037037037038,183.70370370370372 90.58201058201058,184.33862433862436 91.00529100529101,184.973544973545 91.21693121693123,185.60846560846562 91.42857142857143,186.24338624338625 91.64021164021165,186.8783068783069 91.64021164021165,187.51322751322752 91.85185185185186,188.14814814814815 91.85185185185186,188.78306878306879 91.85185185185186,189.41798941798945 91.85185185185186,190.05291005291008 91.85185185185186,190.6878306878307 91.64021164021165,191.32275132275134 91.64021164021165,191.95767195767198 91.42857142857143,192.5925925925926 91.21693121693123,193.22751322751324 91.00529100529101,193.86243386243387 90.58201058201058,194.4973544973545 90.15873015873017,194.92063492063494 89.73544973544975,195.34391534391537 89.31216931216932,195.76719576719577 88.67724867724868,196.1904761904762 88.04232804232805,196.4021164021164 87.40740740740742,196.61375661375664 86.77248677248677,196.82539682539684 86.13756613756614,196.82539682539684 85.5026455026455,196.82539682539684 84.86772486772487,196.82539682539684 84.23280423280424,196.82539682539684 83.59788359788361,196.82539682539684 82.96296296296298,196.82539682539684 82.32804232804233,196.82539682539684 81.6931216931217,196.61375661375664 81.05820105820106,196.61375661375664 80.42328042328043,196.4021164021164 79.7883597883598,196.4021164021164 79.15343915343917,196.1904761904762 78.51851851851852,196.1904761904762 77.88359788359789,195.978835978836 77.24867724867725,195.76719576719577 76.61375661375662,195.55555555555557 75.97883597883599,195.55555555555557 75.34391534391536,195.13227513227514 74.70899470899471,194.92063492063494 74.07407407407408,194.70899470899474 73.43915343915344,194.4973544973545 73.01587301587303,194.07407407407408 72.38095238095238,193.86243386243387 71.74603174603175,193.65079365079367 71.11111111111111,193.43915343915344 70.47619047619048,193.22751322751324 69.84126984126985,192.8042328042328 69.20634920634922,192.5925925925926 68.57142857142858,192.3809523809524 67.93650793650794,191.95767195767198 67.3015873015873,191.74603174603175 66.66666666666667,191.53439153439155 66.03174603174604,191.32275132275134 65.3968253968254,191.11111111111111 64.76190476190477,190.6878306878307 64.12698412698413,190.47619047619048 63.492063492063494,190.26455026455028 62.85714285714286,190.05291005291008 62.22222222222223,189.84126984126985 61.58730158730159,189.62962962962965 60.952380952380956,189.62962962962965 60.31746031746032,189.41798941798945 59.682539682539684,189.20634920634922 59.04761904761905,188.99470899470901 58.41269841269842,188.78306878306879 55.23809523809524,187.72486772486775" style="fill:none; stroke:#00aa99; stroke-width:1.0"  /><polyline points="55.23809523809524,187.72486772486775 55.87301587301588,184.973544973545 56.08465608465609,184.33862433862436 56.2962962962963,183.70370370370372 56.2962962962963,183.0687830687831 56.50793650793651,182.43386243386246 56.71957671957672,181.79894179894183 56.93121693121694,181.16402116402116 56.93121693121694,180.52910052910053 56.93121693121694,179.8941798941799 57.142857142857146,179.25925925925927 57.35449735449736,178.62433862433863 57.35449735449736,177.989417989418 57.56613756613757,177.35449735449737 57.777777777777786,176.71957671957674 57.777777777777786,176.0846560846561 57.777777777777786,175.44973544973547 57.777777777777786,174.81481481481484 57.777777777777786,174.1798941798942 57.777777777777786,173.54497354497354 57.989417989417994,172.9100529100529 57.989417989417994,172.27513227513228 57.989417989417994,171.64021164021165 57.989417989417994,171.005291005291 57.989417989417994,170.37037037037038 57.989417989417994,169.73544973544975 57.989417989417994,169.10052910052912 57.989417989417994,168.46560846560848 57.989417989417994,167.83068783068785 57.989417989417994,167.19576719576722 57.989417989417994,166.56084656084658 57.777777777777786,165.92592592592595 57.777777777777786,165.2910052910053 57.777777777777786,164.65608465608466 57.777777777777786,164.02116402116403 57.56613756613757,163.3862433862434 57.56613756613757,162.75132275132276 57.35449735449736,162.11640211640213 57.35449735449736,161.4814814814815 57.142857142857146,160.84656084656086 57.142857142857146,160.21164021164023 56.93121693121694,159.5767195767196 56.93121693121694,158.94179894179896 56.71957671957672,158.30687830687833 56.50793650793651,157.67195767195767 56.50793650793651,157.03703703703704 56.2962962962963,156.4021164021164 56.08465608465609,155.76719576719577 56.08465608465609,155.13227513227514 55.87301587301588,154.4973544973545 55.661375661375665,153.86243386243387 55.449735449735456,153.22751322751324 55.23809523809524,152.5925925925926 55.23809523809524,151.95767195767198 55.02645502645503,151.32275132275134 54.81481481481482,150.6878306878307 54.60317460317461,150.05291005291005 54.39153439153439,149.41798941798942 54.179894179894184,148.78306878306879 53.75661375661376,148.35978835978838 53.54497354497355,147.72486772486775 53.12169312169313,147.0899470899471 52.91005291005291,146.45502645502646 52.6984126984127,145.82010582010582 52.48677248677249,145.1851851851852 52.06349206349207,144.76190476190476 51.851851851851855,144.12698412698413 51.42857142857143,143.4920634920635 51.00529100529101,142.85714285714286 50.7936507936508,142.22222222222223 50.370370370370374,141.5873015873016 49.94708994708995,140.95238095238096 49.73544973544974,140.31746031746033 49.31216931216932,139.8941798941799 49.1005291005291,139.25925925925927 48.677248677248684,138.83597883597884 48.46560846560847,138.2010582010582 48.042328042328045,137.56613756613757 47.61904761904762,136.93121693121694 47.195767195767196,136.2962962962963 46.77248677248678,135.66137566137567 46.560846560846564,135.02645502645504 46.13756613756614,134.6031746031746 45.714285714285715,133.96825396825398 45.29100529100529,133.54497354497354 44.867724867724874,133.12169312169314 44.44444444444445,132.6984126984127 44.021164021164026,132.27513227513228 43.386243386243386,131.85185185185185 42.75132275132275,131.42857142857144 42.11640211640212,131.21693121693121 41.6931216931217,130.7936507936508 41.058201058201064,130.58201058201058 40.423280423280424,130.58201058201058 39.78835978835979,130.37037037037038 39.15343915343916,130.37037037037038 38.51851851851852,130.37037037037038 37.883597883597886,130.58201058201058 37.248677248677254,130.7936507936508 36.613756613756614,131.21693121693121 36.19047619047619,131.64021164021165 35.55555555555556,132.06349206349208 34.920634920634924,132.4867724867725 34.4973544973545,132.9100529100529 34.074074074074076,133.33333333333334 33.65079365079365,133.75661375661377 33.22751322751323,134.17989417989418 32.804232804232804,134.81481481481484 32.38095238095239,135.44973544973547 31.95767195767196,136.0846560846561 31.746031746031747,136.71957671957674 31.322751322751326,137.14285714285717 31.111111111111114,137.7777777777778 30.68783068783069,138.41269841269843 30.264550264550266,139.04761904761907 30.052910052910054,139.6825396825397 29.629629629629633,140.10582010582013 29.41798941798942,140.74074074074076 28.994708994708997,141.16402116402116 28.783068783068785,141.7989417989418 28.35978835978836,142.22222222222223 28.14814814814815,142.85714285714286 27.724867724867728,143.4920634920635 27.301587301587304,143.91534391534393 26.87830687830688,144.55026455026456 26.455026455026456,145.1851851851852 26.031746031746035,145.82010582010582 25.60846560846561,146.24338624338625 24.973544973544975,146.66666666666669 24.55026455026455,147.0899470899471 24.12698412698413,147.51322751322752 23.703703703703706,147.93650793650795 23.06878306878307,148.35978835978838 22.645502645502646,148.78306878306879 22.010582010582013,148.99470899470901 21.58730158730159,149.41798941798942 20.952380952380953,149.62962962962965 20.31746031746032,149.84126984126985 19.682539682539684,150.05291005291005 19.047619047619047,150.05291005291005 18.412698412698415,150.05291005291005 17.77777777777778,150.05291005291005 17.142857142857146,149.84126984126985 16.50793650793651,149.62962962962965 15.873015873015873,149.41798941798942 15.449735449735451,148.99470899470901 14.814814814814817,148.78306878306879 14.17989417989418,148.35978835978838 13.544973544973546,147.93650793650795 12.910052910052912,147.51322751322752 12.486772486772487,147.0899470899471 11.851851851851853,146.66666666666669 11.428571428571429,146.24338624338625 10.793650793650794,145.82010582010582 10.370370370370372,145.39682539682542 9.947089947089948,144.973544973545 9.523809523809524,144.33862433862436 9.100529100529101,143.91534391534393 8.677248677248677,143.4920634920635 8.253968253968255,142.85714285714286 7.830687830687832,142.22222222222223 7.407407407407408,141.5873015873016 6.984126984126985,140.95238095238096 6.560846560846561,140.31746031746033 6.137566137566138,139.6825396825397 5.714285714285714,139.04761904761907 5.502645502645503,138.41269841269843 5.07936507936508,137.7777777777778 4.867724867724868,137.14285714285717 4.444444444444445,136.5079365079365 4.2328042328042335,135.87301587301587 3.8095238095238098,135.23809523809524 3.597883597883598,134.6031746031746 3.3862433862433865,133.96825396825398 3.174603174603175,133.33333333333334 2.9629629629629632,132.6984126984127 2.53968253968254,132.06349206349208 2.3280423280423284,131.42857142857144 2.1164021164021167,130.7936507936508 2.1164021164021167,130.15873015873018 1.6931216931216932,129.52380952380955 1.6931216931216932,128.88888888888889 1.4814814814814816,128.25396825396825 1.26984126984127,127.61904761904763 1.26984126984127,126.98412698412699 1.0582010582010584,126.34920634920636 0.8465608465608466,125.71428571428572 0.634920634920635,125.07936507936509 0.634920634920635,124.44444444444446 0.634920634920635,123.80952380952382 0.4232804232804233,123.17460317460318 0.4232804232804233,122.53968253968254 0.21164021164021166,121.90476190476191 0.21164021164021166,121.26984126984128 0.21164021164021166,120.63492063492065 0.21164021164021166,120.00000000000001 0.21164021164021166,119.36507936507937 0.21164021164021166,118.73015873015873 0.21164021164021166,118.0952380952381 0.4232804232804233,117.46031746031747 0.4232804232804233,116.82539682539684 0.4232804232804233,116.1904761904762 0.634920634920635,115.55555555555557 0.634920634920635,114.92063492063492 0.8465608465608466,114.28571428571429 0.8465608465608466,113.65079365079366 0.8465608465608466,113.01587301587303 1.0582010582010584,112.3809523809524 1.26984126984127,111.74603174603176 1.4814814814814816,111.11111111111111 1.6931216931216932,110.47619047619048 1.9047619047619049,109.84126984126985 2.1164021164021167,109.20634920634922 2.3280423280423284,108.57142857142858 2.7513227513227516,108.14814814814815 2.9629629629629632,107.51322751322752 3.3862433862433865,106.87830687830689 3.8095238095238098,106.45502645502647 4.2328042328042335,106.03174603174604 4.656084656084657,105.3968253968254 5.07936507936508,104.97354497354497 5.714285714285714,104.76190476190477 6.34920634920635,104.55026455026456 6.984126984126985,104.12698412698414 7.6190476190476195,104.12698412698414 8.253968253968255,103.91534391534393 8.88888888888889,103.91534391534393 9.523809523809524,103.91534391534393 10.15873015873016,103.91534391534393 10.793650793650794,103.91534391534393 11.428571428571429,103.91534391534393 12.063492063492065,104.12698412698414 12.6984126984127,104.12698412698414 13.333333333333334,104.33862433862434 13.96825396825397,104.33862433862434 14.603174603174605,104.55026455026456 15.238095238095239,104.76190476190477 15.873015873015873,104.97354497354497 16.50793650793651,105.3968253968254 17.142857142857146,105.60846560846562 17.77777777777778,106.03174603174604 18.412698412698415,106.45502645502647 19.047619047619047,106.66666666666667 19.47089947089947,107.0899470899471 20.105820105820108,107.51322751322752 20.740740740740744,107.93650793650795 21.375661375661377,108.14814814814815 22.010582010582013,108.57142857142858 22.645502645502646,108.78306878306879 23.06878306878307,109.20634920634922 23.703703703703706,109.62962962962963 24.338624338624342,109.84126984126985 24.973544973544975,110.05291005291006 25.60846560846561,110.47619047619048 26.243386243386244,110.6878306878307 26.87830687830688,110.89947089947091 27.513227513227516,111.11111111111111 28.14814814814815,111.11111111111111 28.783068783068785,111.11111111111111 29.41798941798942,111.11111111111111 30.052910052910054,111.32275132275133 30.68783068783069,111.11111111111111 31.322751322751326,110.89947089947091 31.95767195767196,110.6878306878307 32.592592592592595,110.47619047619048 33.22751322751323,110.26455026455027 33.65079365079365,109.84126984126985 34.28571428571429,109.41798941798943 34.70899470899471,108.78306878306879 35.13227513227513,108.35978835978837 35.34391534391535,107.72486772486774 35.76719576719577,107.0899470899471 35.97883597883598,106.45502645502647 36.19047619047619,105.82010582010582 36.19047619047619,105.18518518518519 36.402116402116405,104.55026455026456 36.402116402116405,103.91534391534393 36.402116402116405,103.28042328042329 36.402116402116405,102.64550264550266 36.19047619047619,102.01058201058201 36.19047619047619,101.37566137566138 36.19047619047619,100.74074074074075 35.97883597883598,100.10582010582011 35.97883597883598,99.47089947089948 35.76719576719577,98.83597883597885 35.76719576719577,98.2010582010582 35.76719576719577,97.56613756613757 35.55555555555556,96.93121693121694 35.55555555555556,96.2962962962963 35.55555555555556,95.66137566137567 35.34391534391535,95.02645502645504 35.34391534391535,94.39153439153439 35.13227513227513,93.75661375661376 35.13227513227513,93.12169312169313 35.13227513227513,92.4867724867725 34.920634920634924,91.85185185185186 34.920634920634924,91.21693121693123 34.70899470899471,90.58201058201058 34.70899470899471,89.94708994708995 34.70899470899471,89.31216931216932 34.4973544973545,88.67724867724868 34.4973544973545,88.04232804232805 34.28571428571429,87.40740740740742 34.28571428571429,86.77248677248677 34.074074074074076,86.13756613756614 34.074074074074076,85.5026455026455 34.074074074074076,84.86772486772487 33.86243386243387,84.23280423280424 33.86243386243387,83.59788359788361 33.65079365079365,82.96296296296298 33.65079365079365,82.32804232804233 33.43915343915344,81.6931216931217 33.43915343915344,81.05820105820106 33.43915343915344,80.42328042328043 33.22751322751323,79.7883597883598 33.01587301587302,79.15343915343917 33.01587301587302,78.51851851851852 32.804232804232804,77.88359788359789 32.592592592592595,77.24867724867725 32.38095238095239,76.61375661375662 32.38095238095239,75.97883597883599 32.38095238095239,75.34391534391536 32.16931216931217,74.70899470899471 32.16931216931217,74.07407407407408 31.95767195767196,73.43915343915344 31.95767195767196,72.80423280423281 31.746031746031747,72.16931216931218 31.746031746031747,71.53439153439155 31.53439153439154,70.8994708994709 31.53439153439154,70.26455026455027 31.322751322751326,69.62962962962963 31.111111111111114,68.994708994709 31.111111111111114,68.35978835978837 30.899470899470902,67.72486772486774 30.899470899470902,67.08994708994709 30.68783068783069,66.45502645502646 30.68783068783069,65.82010582010582 30.476190476190478,65.18518518518519 30.476190476190478,64.55026455026456 30.264550264550266,63.91534391534392 30.052910052910054,63.280423280423285 30.052910052910054,62.64550264550265 29.841269841269842,62.01058201058201 29.629629629629633,61.37566137566138 29.629629629629633,60.74074074074075 29.41798941798942,60.10582010582011 29.20634920634921,59.470899470899475 28.994708994708997,58.83597883597884 28.994708994708997,58.2010582010582 28.783068783068785,57.56613756613757 28.571428571428573,56.93121693121694 28.571428571428573,56.2962962962963 28.35978835978836,55.661375661375665 28.14814814814815,55.02645502645503 27.93650793650794,54.39153439153439 27.93650793650794,53.75661375661376 27.724867724867728,53.12169312169313 27.513227513227516,52.48677248677249 27.301587301587304,51.851851851851855 27.301587301587304,51.21693121693122 27.089947089947092,50.58201058201058 26.87830687830688,49.94708994708995 26.666666666666668,49.31216931216932 26.455026455026456,48.677248677248684 26.243386243386244,48.042328042328045 26.243386243386244,47.40740740740741 26.031746031746035,46.77248677248678 25.185185185185187,43.80952380952381" style="fill:none; stroke:#3300bb; stroke-width:1.0"  /><circle cx="25.185185185185187" cy="43.80952380952381" r="2.0" style="fill:none; stroke:#000000aa; stroke-width:0.25" /><circle cx="124.02116402116403" cy="23.492063492063494" r="2.0" style="fill:none; stroke:#000000aa; stroke-width:0.25" /><circle cx="152.16931216931218" cy="184.7619047619048" r="2.0" style="fill:none; stroke:#000000aa; stroke-width:0.25" /><circle cx="55.23809523809524" cy="187.72486772486775" r="2.0" style="fill:none; stroke:#000000aa; stroke-width:0.25" /><circle cx="26.243386243386244" cy="43.80952380952381" r="2.0" style="fill:none; stroke:#ff3366aa; stroke-width:0.25" /><circle cx="123.80952380952382" cy="23.492063492063494" r="2.0" style="fill:none; stroke:#ff3366aa; stroke-width:0.25" /><circle cx="152.5925925925926" cy="184.973544973545" r="2.0" style="fill:none; stroke:#ff3366aa; stroke-width:0.25" /><circle cx="55.449735449735456" cy="188.14814814814815" r="2.0" style="fill:none; stroke:#ff3366aa; stroke-width:0.25" /><polyline points="37.67195767195768,43.386243386243386 37.03703703703704,43.386243386243386 36.402116402116405,43.386243386243386 35.76719576719577,43.5978835978836 35.13227513227513,43.5978835978836 34.4973544973545,43.5978835978836 33.86243386243387,43.5978835978836 33.22751322751323,43.5978835978836 32.592592592592595,43.5978835978836 31.95767195767196,43.5978835978836 31.322751322751326,43.5978835978836 30.68783068783069,43.5978835978836 30.052910052910054,43.5978835978836 29.41798941798942,43.5978835978836" style="fill:none; stroke:#001100; stroke-width:1.0" /><polyline points="28.35978835978836,55.661375661375665 28.14814814814815,55.02645502645503 27.93650793650794,54.39153439153439 27.93650793650794,53.75661375661376 27.724867724867728,53.12169312169313 27.513227513227516,52.48677248677249 27.301587301587304,51.851851851851855 27.301587301587304,51.21693121693122 27.089947089947092,50.58201058201058 26.87830687830688,49.94708994708995 26.666666666666668,49.31216931216932 26.455026455026456,48.677248677248684 26.243386243386244,48.042328042328045 26.243386243386244,47.40740740740741 26.031746031746035,46.77248677248678" style="fill:none; stroke:#000011; stroke-width:1.0" /><polyline points="126.98412698412699,34.70899470899471 126.98412698412699,34.074074074074076 126.77248677248679,33.43915343915344 126.56084656084657,32.804232804232804 126.34920634920636,32.16931216931217 126.13756613756615,31.53439153439154 125.92592592592594,30.899470899470902 125.92592592592594,30.264550264550266 125.71428571428572,29.629629629629633 125.5026455026455,28.994708994708997 125.2910052910053,28.35978835978836 125.07936507936509,27.724867724867728 124.86772486772487,27.089947089947092 124.86772486772487,26.455026455026456" style="fill:none; stroke:#001100; stroke-width:1.0" /><polyline points="112.5925925925926,26.455026455026456 113.22751322751324,26.243386243386244 113.86243386243387,26.243386243386244 114.49735449735451,25.820105820105823 115.13227513227514,25.60846560846561 115.76719576719577,25.60846560846561 116.4021164021164,25.3968253968254 117.03703703703705,25.185185185185187 117.67195767195768,25.185185185185187 118.30687830687832,24.973544973544975 118.94179894179895,24.761904761904763 119.57671957671958,24.55026455026455 120.21164021164022,24.338624338624342 120.84656084656086,24.338624338624342" style="fill:none; stroke:#000011; stroke-width:1.0" /><polyline points="141.16402116402116,185.39682539682542 141.7989417989418,185.1851851851852 142.43386243386246,185.1851851851852 143.0687830687831,185.1851851851852 143.70370370370372,185.1851851851852 144.33862433862436,185.1851851851852 144.973544973545,185.1851851851852 145.60846560846562,184.973544973545 146.24338624338625,184.973544973545 146.8783068783069,184.973544973545 147.51322751322752,184.973544973545 148.14814814814815,184.973544973545 148.78306878306879,184.973544973545 149.41798941798942,184.973544973545" style="fill:none; stroke:#001100; stroke-width:1.0" /><polyline points="153.65079365079367,173.12169312169314 153.65079365079367,173.75661375661377 153.43915343915344,174.3915343915344 153.43915343915344,175.02645502645504 153.43915343915344,175.66137566137567 153.22751322751324,176.2962962962963 153.22751322751324,176.93121693121694 153.22751322751324,177.56613756613757 153.01587301587304,178.2010582010582 153.01587301587304,178.83597883597884 153.01587301587304,179.4708994708995 153.01587301587304,180.10582010582013 152.8042328042328,180.74074074074076 152.8042328042328,181.3756613756614 152.5925925925926,182.01058201058203" style="fill:none; stroke:#000011; stroke-width:1.0" /><polyline points="57.777777777777786,176.71957671957674 57.56613756613757,177.35449735449737 57.35449735449736,177.989417989418 57.35449735449736,178.62433862433863 57.142857142857146,179.25925925925927 56.93121693121694,179.8941798941799 56.93121693121694,180.52910052910053 56.93121693121694,181.16402116402116 56.71957671957672,181.79894179894183 56.50793650793651,182.43386243386246 56.2962962962963,183.0687830687831 56.2962962962963,183.70370370370372 56.08465608465609,184.33862433862436 55.87301587301588,184.973544973545" style="fill:none; stroke:#001100; stroke-width:1.0" /><polyline points="66.66666666666667,191.53439153439155 66.03174603174604,191.32275132275134 65.3968253968254,191.11111111111111 64.76190476190477,190.6878306878307 64.12698412698413,190.47619047619048 63.492063492063494,190.26455026455028 62.85714285714286,190.05291005291008 62.22222222222223,189.84126984126985 61.58730158730159,189.62962962962965 60.952380952380956,189.62962962962965 60.31746031746032,189.41798941798945 59.682539682539684,189.20634920634922 59.04761904761905,188.99470899470901 58.41269841269842,188.78306878306879" style="fill:none; stroke:#000011; stroke-width:1.0" /><polyline points="29.41798941798942,43.5978835978836 8.253968253968255,44.232804232804234" style="fill:none; stroke:#ffaa00; stroke-width:0.4" /><polyline points="26.031746031746035,46.77248677248678 20.740740740740744,26.243386243386244" style="fill:none; stroke:#aaff00; stroke-width:0.4" /><polyline points="124.86772486772487,26.455026455026456 119.57671957671958,5.9259259259259265" style="fill:none; stroke:#ffaa00; stroke-width:0.4" /><polyline points="120.84656084656086,24.338624338624342 141.3756613756614,19.047619047619047" style="fill:none; stroke:#aaff00; stroke-width:0.4" /><polyline points="149.41798941798942,184.973544973545 170.58201058201058,183.91534391534393" style="fill:none; stroke:#ffaa00; stroke-width:0.4" /><polyline points="152.5925925925926,182.01058201058203 150.05291005291005,202.962962962963" style="fill:none; stroke:#aaff00; stroke-width:0.4" /><polyline points="55.87301587301588,184.973544973545 51.21693121693122,205.50264550264552" style="fill:none; stroke:#ffaa00; stroke-width:0.4" /><polyline points="58.41269841269842,188.78306878306879 38.30687830687831,182.01058201058203" style="fill:none; stroke:#aaff00; stroke-width:0.4" /><circle cx="83.59788359788361" cy="101.16402116402116" r="1.0" style="fill:#444444; stroke-width:0" /><circle cx="77.88359788359789" cy="80.21164021164022" r="10.582010582010582" style="fill:#ff770022; stroke-width:0" /><circle cx="77.88359788359789" cy="80.21164021164022" r="1.0" style="fill:#ff7700; stroke-width:0" /></svg>