<?xml version="1.0" encoding="UTF-8" standalone="no"?><svg width="576.5079365079365" height="612.0634920634922" viewBox="-10 -10 212.16931216931218 224.02116402116403" xmlns="http://www.w3.org/2000/svg" xmlns:xlink="http://www.w3.org/1999/xlink"><polyline points="105.60846560846562,-0.21164021164021166 108.994708994709,2.1164021164021167 109.62962962962963,2.3280423280423284 110.05291005291006,2.7513227513227516 110.6878306878307,3.174603174603175 111.32275132275133,3.3862433862433865 111.74603174603176,3.8095238095238098 112.3809523809524,4.2328042328042335 113.01587301587303,4.656084656084657 113.65079365079366,5.07936507936508 114.28571428571429,5.502645502645503 114.92063492063492,5.714285714285714 115.34391534391536,6.137566137566138 115.76719576719577,6.560846560846561 116.4021164021164,6.984126984126985 117.03703703703705,7.407407407407408 117.67195767195768,7.830687830687832 118.0952380952381,8.253968253968255 118.73015873015873,8.677248677248677 119.15343915343917,9.100529100529101 119.7883597883598,9.523809523809524 120.21164021164022,9.947089947089948 120.63492063492065,10.370370370370372 121.26984126984128,10.793650793650794 121.6931216931217,11.216931216931219 122.11640211640213,11.640211640211641 122.53968253968254,12.063492063492065 122.96296296296298,12.486772486772487 123.3862433862434,12.910052910052912 123.80952380952382,13.333333333333334 124.23280423280424,13.756613756613758 124.86772486772487,14.17989417989418 125.2910052910053,14.603174603174605 125.71428571428572,15.238095238095239 126.13756613756615,15.661375661375663 126.56084656084657,16.084656084656086 126.98412698412699,16.50793650793651 127.40740740740742,16.931216931216934 127.83068783068784,17.354497354497354 128.25396825396825,17.77777777777778 128.67724867724868,18.201058201058203 129.10052910052912,18.624338624338627 129.52380952380955,19.25925925925926 129.94708994708995,19.682539682539684 130.37037037037038,20.31746031746032 130.7936507936508,20.740740740740744 131.21693121693121,21.375661375661377 131.64021164021165,21.7989417989418 132.06349206349208,22.433862433862437 132.4867724867725,23.06878306878307 132.9100529100529,23.703703703703706 133.33333333333334,24.12698412698413 133.54497354497354,24.761904761904763 133.96825396825398,25.185185185185187 134.3915343915344,25.820105820105823 134.81481481481484,26.455026455026456 135.23809523809524,27.089947089947092 135.66137566137567,27.724867724867728 135.87301587301587,28.35978835978836 136.2962962962963,28.994708994708997 136.71957671957674,29.629629629629633 137.14285714285717,30.264550264550266 137.35449735449737,30.899470899470902 137.7777777777778,31.53439153439154 138.2010582010582,32.16931216931217 138.41269841269843,32.804232804232804 138.62433862433863,33.43915343915344 139.04761904761907,34.074074074074076 139.25925925925927,34.70899470899471 139.6825396825397,35.34391534391535 139.8941798941799,35.97883597883598 140.10582010582013,36.613756613756614 140.52910052910053,37.248677248677254 140.74074074074076,37.883597883597886 140.95238095238096,38.51851851851852 141.16402116402116,39.15343915343916 141.5873015873016,39.78835978835979 141.5873015873016,40.423280423280424 142.01058201058203,41.058201058201064 142.01058201058203,41.6931216931217 142.22222222222223,42.32804232804233 142.43386243386246,42.96296296296297 142.43386243386246,43.5978835978836 142.43386243386246,44.232804232804234 142.43386243386246,44.867724867724874 142.22222222222223,45.50264550264551 142.22222222222223,46.13756613756614 142.01058201058203,46.77248677248678 141.5873015873016,47.40740740740741 141.3756613756614,48.042328042328045 140.95238095238096,48.677248677248684 140.52910052910053,49.31216931216932 140.10582010582013,49.94708994708995 139.6825396825397,50.370370370370374 139.25925925925927,51.00529100529101 138.83597883597884,51.42857142857143 138.41269841269843,51.851851851851855 137.989417989418,52.27513227513228 137.35449735449737,52.6984126984127 136.93121693121694,53.12169312169313 136.2962962962963,53.333333333333336 135.87301587301587,53.75661375661376 135.23809523809524,53.968253968253975 134.6031746031746,54.39153439153439 133.96825396825398,54.60317460317461 133.54497354497354,55.02645502645503 132.9100529100529,55.449735449735456 132.27513227513228,55.87301587301588 131.64021164021165,56.08465608465609 131.21693121693121,56.50793650793651 130.58201058201058,56.71957671957672 129.94708994708995,57.142857142857146 129.31216931216932,57.35449735449736 128.67724867724868,57.777777777777786 128.04232804232805,57.989417989417994 127.40740740740742,58.41269841269842 126.77248677248679,58.62433862433863 126.13756613756615,59.04761904761905 125.5026455026455,59.25925925925927 124.86772486772487,59.470899470899475 124.23280423280424,59.8941798941799 123.59788359788361,60.10582010582011 123.17460317460318,60.52910052910053 122.53968253968254,60.952380952380956 121.90476190476191,61.37566137566138 121.4814814814815,61.798941798941804 121.05820105820106,62.22222222222223 120.63492063492065,62.64550264550265 120.21164021164022,63.280423280423285 119.7883597883598,63.91534391534392 119.57671957671958,64.55026455026456 119.15343915343917,65.18518518518519 118.94179894179895,65.82010582010582 118.73015873015873,66.45502645502646 118.51851851851853,67.08994708994709 118.51851851851853,67.72486772486774 118.51851851851853,68.35978835978837 118.51851851851853,68.994708994709 118.51851851851853,69.62962962962963 118.51851851851853,70.26455026455027 118.51851851851853,70.8994708994709 118.73015873015873,71.53439153439155 118.94179894179895,72.16931216931218 119.15343915343917,72.80423280423281 119.57671957671958,73.22751322751323 119.7883597883598,73.86243386243387 120.21164021164022,74.49735449735451 120.63492063492065,74.92063492063492 121.05820105820106,75.55555555555556 121.4814814814815,76.19047619047619 121.90476190476191,76.61375661375662 122.32804232804234,77.24867724867725 122.75132275132276,77.67195767195767 123.17460317460318,78.30687830687832 123.59788359788361,78.73015873015873 124.02116402116403,79.15343915343917 124.44444444444446,79.57671957671958 124.86772486772487,80.0 125.2910052910053,80.42328042328043 125.92592592592594,80.84656084656085 126.34920634920636,81.26984126984128 126.98412698412699,81.6931216931217 127.61904761904763,82.11640211640213 128.25396825396825,82.53968253968254 128.67724867724868,82.96296296296298 129.31216931216932,83.17460317460318 129.94708994708995,83.59788359788361 130.58201058201058,84.02116402116403 131.21693121693121,84.23280423280424 131.85185185185185,84.65608465608466 132.4867724867725,84.86772486772487 133.12169312169314,85.07936507936509 133.75661375661377,85.5026455026455 134.3915343915344,85.71428571428572 135.02645502645504,85.92592592592594 135.66137566137567,86.13756613756614 136.2962962962963,86.34920634920636 136.93121693121694,86.56084656084657 137.56613756613757,86.56084656084657 138.2010582010582,86.77248677248677 138.83597883597884,86.77248677248677 139.47089947089947,86.98412698412699 140.10582010582013,87.1957671957672 140.74074074074076,87.1957671957672 141.3756613756614,87.40740740740742 142.01058201058203,87.40740740740742 142.64550264550266,87.40740740740742 143.2804232804233,87.40740740740742 143.91534391534393,87.40740740740742 144.55026455026456,87.40740740740742 145.1851851851852,87.40740740740742 145.60846560846562,86.98412698412699 146.24338624338625,86.98412698412699 146.8783068783069,86.77248677248677 147.51322751322752,86.56084656084657 147.93650793650795,86.13756613756614 148.57142857142858,85.92592592592594 149.20634920634922,85.5026455026455 149.62962962962965,84.86772486772487 150.05291005291005,84.44444444444446 150.6878306878307,84.02116402116403 151.11111111111111,83.59788359788361 151.53439153439155,83.17460317460318 151.95767195767198,82.75132275132276 152.38095238095238,82.32804232804233 152.8042328042328,81.6931216931217 153.22751322751324,81.26984126984128 153.65079365079367,80.63492063492065 154.07407407407408,80.21164021164022 154.4973544973545,79.7883597883598 154.92063492063494,79.15343915343917 155.34391534391534,78.51851851851852 155.76719576719577,78.0952380952381 155.978835978836,77.46031746031747 156.4021164021164,77.03703703703704 156.61375661375664,76.4021164021164 157.03703703703704,75.76719576719577 157.24867724867727,75.13227513227514 157.67195767195767,74.49735449735451 157.8835978835979,73.86243386243387 158.0952380952381,73.22751322751323 158.30687830687833,72.5925925925926 158.51851851851853,71.95767195767196 158.73015873015873,71.32275132275133 158.94179894179896,70.6878306878307 159.36507936507937,70.05291005291006 159.5767195767196,69.41798941798942 160.0,68.78306878306879 160.42328042328043,68.35978835978837 160.84656084656086,67.72486772486774 161.2698412698413,67.3015873015873 161.90476190476193,67.08994708994709 162.32804232804233,66.66666666666667 162.96296296296296,66.24338624338625 163.59788359788362,66.24338624338625 164.23280423280426,66.03174603174604 164.8677248677249,65.82010582010582 165.50264550264552,65.60846560846561 166.13756613756615,65.60846560846561 166.7724867724868,65.60846560846561 167.40740740740742,65.60846560846561 168.04232804232805,65.60846560846561 168.67724867724868,65.82010582010582 169.10052910052912,66.24338624338625 169.73544973544975,66.24338624338625 170.37037037037038,66.45502645502646 171.005291005291,66.87830687830689 171.64021164021165,67.08994708994709 172.27513227513228,67.51322751322752 172.6984126984127,67.93650793650794 173.12169312169314,68.35978835978837 173.54497354497354,68.78306878306879 173.96825396825398,69.20634920634922 174.3915343915344,69.62962962962963 174.81481481481484,70.26455026455027 175.23809523809524,70.6878306878307 175.66137566137567,71.32275132275133 176.0846560846561,71.95767195767196 176.50793650793653,72.5925925925926 176.71957671957674,73.22751322751323 177.14285714285717,73.86243386243387 177.56613756613757,74.49735449735451 177.7777777777778,75.13227513227514 178.2010582010582,75.55555555555556 178.62433862433863,75.97883597883599 179.04761904761907,76.61375661375662 179.4708994708995,77.24867724867725 179.8941798941799,77.67195767195767 180.10582010582013,78.30687830687832 180.52910052910053,78.73015873015873 180.95238095238096,79.36507936507937 181.3756613756614,80.0 181.79894179894183,80.63492063492065 182.22222222222223,81.05820105820106 182.64550264550266,81.6931216931217 183.0687830687831,82.11640211640213 183.4920634920635,82.75132275132276 183.91534391534393,83.17460317460318 184.55026455026456,83.59788359788361 184.973544973545,84.02116402116403 185.39682539682542,84.44444444444446 185.82010582010582,85.07936507936509 186.24338624338625,85.5026455026455 186.66666666666669,85.92592592592594 187.08994708994712,86.34920634920636 187.72486772486775,86.77248677248677 188.14814814814815,87.1957671957672 188.57142857142858,87.61904761904762 188.99470899470901,88.04232804232805 189.41798941798945,88.46560846560847 192.16931216931218,91.00529100529101" style="fill:none; stroke:#cc0000; stroke-width:1.0"  /><polyline points="192.16931216931218,91.00529100529101 190.47619047619048,94.17989417989419 190.05291005291008,94.81481481481482 189.84126984126985,95.44973544973546 189.41798941798945,96.08465608465609 189.20634920634922,96.71957671957672 188.78306878306879,97.35449735449737 188.57142857142858,97.989417989418 188.14814814814815,98.62433862433863 187.93650793650795,99.25925925925927 187.72486772486775,99.8941798941799 187.30158730158732,100.52910052910053 187.08994708994712,101.16402116402116 186.66666666666669,101.79894179894181 186.45502645502646,102.43386243386244 186.24338624338625,103.06878306878308 185.82010582010582,103.70370370370371 185.60846560846562,104.33862433862434 185.39682539682542,104.97354497354497 184.973544973545,105.3968253968254 184.7619047619048,106.03174603174604 184.55026455026456,106.66666666666667 184.12698412698415,107.3015873015873 183.91534391534393,107.93650793650795 183.70370370370372,108.57142857142858 183.4920634920635,109.20634920634922 183.0687830687831,109.84126984126985 182.85714285714286,110.47619047619048 182.64550264550266,111.11111111111111 182.22222222222223,111.74603174603176 182.01058201058203,112.3809523809524 181.5873015873016,113.01587301587303 181.3756613756614,113.65079365079366 180.95238095238096,114.28571428571429 180.74074074074076,114.92063492063492 180.52910052910053,115.55555555555557 180.10582010582013,116.1904761904762 179.8941798941799,116.82539682539684 179.4708994708995,117.46031746031747 179.25925925925927,118.0952380952381 179.04761904761907,118.73015873015873 178.62433862433863,119.36507936507937 178.41269841269843,120.00000000000001 177.989417989418,120.63492063492065 177.7777777777778,121.26984126984128 177.56613756613757,121.90476190476191 177.35449735449737,122.53968253968254 177.14285714285717,123.17460317460318 176.71957671957674,123.80952380952382 176.50793650793653,124.44444444444446 176.2962962962963,125.07936507936509 175.87301587301587,125.71428571428572 175.66137566137567,126.34920634920636 175.23809523809524,126.98412698412699 175.02645502645504,127.61904761904763 174.81481481481484,128.25396825396825 174.6031746031746,128.88888888888889 174.1798941798942,129.52380952380955 173.96825396825398,130.15873015873018 173.54497354497354,130.7936507936508 173.33333333333334,131.42857142857144 172.9100529100529,132.06349206349208 172.6984126984127,132.6984126984127 172.27513227513228,133.33333333333334 172.06349206349208,133.96825396825398 171.64021164021165,134.6031746031746 171.42857142857144,135.23809523809524 171.005291005291,135.87301587301587 170.7936507936508,136.5079365079365 170.37037037037038,137.14285714285717 170.15873015873018,137.7777777777778 169.94708994708995,138.41269841269843 169.52380952380955,139.04761904761907 169.10052910052912,139.6825396825397 168.8888888888889,140.31746031746033 168.46560846560848,140.95238095238096 168.25396825396825,141.5873015873016 167.83068783068785,142.01058201058203 167.61904761904762,142.64550264550266 167.19576719576722,143.2804232804233 166.7724867724868,143.91534391534393 166.34920634920636,144.33862433862436 165.92592592592595,144.973544973545 165.50264550264552,145.60846560846562 165.0793650793651,146.03174603174605 164.65608465608466,146.66666666666669 164.23280423280426,147.30158730158732 163.80952380952382,147.72486772486775 163.3862433862434,148.35978835978838 162.96296296296296,148.78306878306879 162.32804232804233,149.20634920634922 161.90476190476193,149.62962962962965 161.2698412698413,150.05291005291005 160.63492063492066,150.26455026455028 160.0,150.47619047619048 159.36507936507937,150.6878306878307 158.73015873015873,150.6878306878307 158.0952380952381,150.6878306878307 157.46031746031747,150.6878306878307 156.82539682539684,150.47619047619048 156.1904761904762,150.26455026455028 155.55555555555557,149.84126984126985 154.92063492063494,149.41798941798942 154.4973544973545,148.99470899470901 154.07407407407408,148.57142857142858 153.65079365079367,148.14814814814815 153.22751322751324,147.72486772486775 152.8042328042328,147.0899470899471 152.38095238095238,146.45502645502646 151.95767195767198,145.82010582010582 151.74603174603175,145.1851851851852 151.32275132275134,144.55026455026456 150.8994708994709,143.91534391534393 150.6878306878307,143.2804232804233 150.26455026455028,142.64550264550266 150.05291005291005,142.01058201058203 149.62962962962965,141.3756613756614 149.20634920634922,140.74074074074076 148.78306878306879,140.10582010582013 148.57142857142858,139.47089947089947 148.14814814814815,139.04761904761907 147.72486772486775,138.41269841269843 147.30158730158732,137.7777777777778 146.8783068783069,137.14285714285717 146.45502645502646,136.5079365079365 146.03174603174605,136.0846560846561 145.60846560846562,135.66137566137567 145.1851851851852,135.23809523809524 144.76190476190476,134.81481481481484 144.33862433862436,134.3915343915344 143.70370370370372,133.96825396825398 143.2804232804233,133.54497354497354 142.64550264550266,133.12169312169314 142.01058201058203,132.9100529100529 141.5873015873016,132.4867724867725 140.95238095238096,132.27513227513228 140.31746031746033,131.85185185185185 139.6825396825397,131.64021164021165 139.04761904761907,131.42857142857144 138.41269841269843,131.21693121693121 137.7777777777778,131.005291005291 137.14285714285717,131.005291005291 136.5079365079365,130.7936507936508 135.87301587301587,130.7936507936508 135.23809523809524,130.7936507936508 134.6031746031746,130.58201058201058 133.96825396825398,130.7936507936508 133.33333333333334,131.005291005291 132.6984126984127,131.005291005291 132.06349206349208,131.21693121693121 131.42857142857144,131.21693121693121 130.7936507936508,131.42857142857144 130.15873015873018,131.42857142857144 129.52380952380955,131.64021164021165 128.88888888888889,131.85185185185185 128.25396825396825,132.06349206349208 127.61904761904763,132.27513227513228 126.98412698412699,132.4867724867725 126.34920634920636,132.9100529100529 125.71428571428572,133.33333333333334 125.07936507936509,133.54497354497354 124.65608465608466,133.96825396825398 124.02116402116403,134.3915343915344 123.3862433862434,134.81481481481484 122.96296296296298,135.23809523809524 122.53968253968254,135.66137566137567 121.90476190476191,136.0846560846561 121.4814814814815,136.71957671957674 121.05820105820106,137.14285714285717 120.63492063492065,137.56613756613757 120.21164021164022,137.989417989418 119.7883597883598,138.62433862433863 119.36507936507937,139.25925925925927 118.94179894179895,139.6825396825397 118.73015873015873,140.31746031746033 118.30687830687832,140.95238095238096 118.0952380952381,141.5873015873016 117.67195767195768,142.22222222222223 117.46031746031747,142.85714285714286 117.24867724867725,143.4920634920635 117.03703703703705,144.12698412698413 117.03703703703705,144.76190476190476 116.82539682539684,145.39682539682542 116.82539682539684,146.03174603174605 116.61375661375662,146.66666666666669 116.61375661375662,147.30158730158732 116.61375661375662,147.93650793650795 116.61375661375662,148.57142857142858 116.61375661375662,149.20634920634922 116.61375661375662,149.84126984126985 116.82539682539684,150.47619047619048 116.82539682539684,151.11111111111111 117.03703703703705,151.74603174603175 117.24867724867725,152.38095238095238 117.24867724867725,153.01587301587304 117.46031746031747,153.65079365079367 117.88359788359789,154.2857142857143 118.0952380952381,154.92063492063494 118.51851851851853,155.55555555555557 118.73015873015873,156.1904761904762 119.15343915343917,156.61375661375664 119.57671957671958,157.03703703703704 120.00000000000001,157.67195767195767 120.42328042328043,158.0952380952381 120.84656084656086,158.73015873015873 121.26984126984128,159.15343915343917 121.6931216931217,159.5767195767196 122.11640211640213,160.21164021164023 122.53968253968254,160.63492063492066 122.96296296296298,161.05820105820106 123.3862433862434,161.4814814814815 124.02116402116403,161.90476190476193 124.44444444444446,162.32804232804233 125.07936507936509,162.75132275132276 125.5026455026455,163.1746031746032 126.13756613756615,163.59788359788362 126.77248677248679,164.02116402116403 127.40740740740742,164.44444444444446 128.04232804232805,164.65608465608466 128.46560846560848,165.0793650793651 129.10052910052912,165.2910052910053 129.73544973544975,165.71428571428572 130.37037037037038,165.92592592592595 130.7936507936508,166.34920634920636 131.42857142857144,166.56084656084658 132.06349206349208,166.7724867724868 132.6984126984127,167.19576719576722 133.33333333333334,167.40740740740742 133.96825396825398,167.61904761904762 134.6031746031746,168.04232804232805 135.23809523809524,168.25396825396825 135.87301587301587,168.67724867724868 136.5079365079365,168.8888888888889 137.14285714285717,169.31216931216932 137.7777777777778,169.52380952380955 138.41269841269843,169.94708994708995 139.04761904761907,170.15873015873018 139.6825396825397,170.58201058201058 140.31746031746033,170.7936507936508 140.74074074074076,171.21693121693124 141.3756613756614,171.64021164021165 141.7989417989418,172.06349206349208 142.22222222222223,172.6984126984127 142.43386243386246,173.33333333333334 142.64550264550266,173.96825396825398 142.64550264550266,174.6031746031746 142.64550264550266,175.23809523809524 142.64550264550266,175.87301587301587 142.43386243386246,176.50793650793653 142.22222222222223,177.14285714285717 142.01058201058203,177.7777777777778 141.7989417989418,178.41269841269843 141.3756613756614,179.04761904761907 140.95238095238096,179.6825396825397 140.52910052910053,180.31746031746033 140.10582010582013,180.95238095238096 139.6825396825397,181.5873015873016 139.25925925925927,182.01058201058203 138.83597883597884,182.64550264550266 138.41269841269843,183.0687830687831 137.989417989418,183.4920634920635 137.56613756613757,183.91534391534393 136.93121693121694,184.33862433862436 136.5079365079365,184.7619047619048 136.0846560846561,185.1851851851852 135.44973544973547,185.60846560846562 135.02645502645504,186.03174603174605 134.3915343915344,186.45502645502646 133.75661375661377,186.8783068783069 133.33333333333334,187.30158730158732 132.6984126984127,187.72486772486775 132.06349206349208,188.14814814814815 131.42857142857144,188.57142857142858 130.7936507936508,188.99470899470901 130.37037037037038,189.41798941798945 129.73544973544975,189.84126984126985 129.10052910052912,190.26455026455028 128.46560846560848,190.6878306878307 127.83068783068784,191.11111111111111 127.1957671957672,191.53439153439155 126.77248677248679,191.95767195767198 126.13756613756615,192.3809523809524 125.5026455026455,192.8042328042328 124.86772486772487,193.22751322751324 124.23280423280424,193.43915343915344 123.59788359788361,193.86243386243387 122.96296296296298,194.2857142857143 122.32804232804234,194.70899470899474 121.6931216931217,194.92063492063494 121.05820105820106,195.34391534391537 120.42328042328043,195.76719576719577 119.7883597883598,195.978835978836 119.15343915343917,196.4021164021164 118.51851851851853,196.61375661375664 117.88359788359789,197.03703703703704 117.24867724867725,197.46031746031747 116.61375661375662,197.6719576719577 115.97883597883599,198.0952380952381 115.34391534391536,198.51851851851853 114.70899470899472,198.94179894179896 114.28571428571429,199.36507936507937 113.86243386243387,199.7883597883598 113.22751322751324,200.21164021164023 112.5925925925926,200.63492063492066 112.16931216931218,201.05820105820106 111.74603174603176,201.4814814814815 111.11111111111111,201.90476190476193 107.51322751322752,204.44444444444446" style="fill:none; stroke:#999900; stroke-width:1.0"  /><polyline points="107.51322751322752,204.44444444444446 106.66666666666667,200.63492063492066 106.45502645502647,200.00000000000003 106.45502645502647,199.36507936507937 106.24338624338625,198.73015873015873 106.24338624338625,198.0952380952381 106.24338624338625,197.46031746031747 106.03174603174604,196.82539682539684 105.82010582010582,196.1904761904762 105.60846560846562,195.55555555555557 105.60846560846562,194.92063492063494 105.3968253968254,194.2857142857143 105.18518518518519,193.65079365079367 104.97354497354497,193.01587301587304 104.76190476190477,192.3809523809524 104.55026455026456,191.74603174603175 104.12698412698414,191.11111111111111 103.91534391534393,190.47619047619048 103.70370370370371,189.84126984126985 103.28042328042329,189.20634920634922 103.06878306878308,188.57142857142858 102.64550264550266,187.93650793650795 102.22222222222223,187.30158730158732 102.01058201058201,186.66666666666669 101.5873015873016,186.24338624338625 101.16402116402116,185.60846560846562 100.74074074074075,184.973544973545 100.31746031746033,184.33862433862436 99.8941798941799,183.70370370370372 99.47089947089948,183.0687830687831 99.04761904761905,182.64550264550266 98.62433862433863,182.01058201058203 98.2010582010582,181.5873015873016 97.77777777777779,181.16402116402116 97.35449735449737,180.74074074074076 96.93121693121694,180.31746031746033 96.50793650793652,179.8941798941799 96.08465608465609,179.4708994708995 95.66137566137567,179.04761904761907 95.23809523809524,178.62433862433863 94.81481481481482,178.2010582010582 94.39153439153439,177.7777777777778 93.96825396825398,177.35449735449737 93.33333333333334,177.14285714285717 92.91005291005291,176.71957671957674 92.4867724867725,176.2962962962963 91.85185185185186,175.87301587301587 91.21693121693123,175.44973544973547 90.7936507936508,175.02645502645504 90.15873015873017,174.6031746031746 89.52380952380953,174.1798941798942 88.8888888888889,173.75661375661377 88.25396825396827,173.54497354497354 87.83068783068784,173.12169312169314 87.1957671957672,172.6984126984127 86.56084656084657,172.4867724867725 85.92592592592594,172.06349206349208 85.29100529100529,171.64021164021165 84.65608465608466,171.42857142857144 84.02116402116403,171.21693121693124 83.59788359788361,170.7936507936508 82.96296296296298,170.58201058201058 82.32804232804233,170.15873015873018 81.6931216931217,169.94708994708995 81.05820105820106,169.73544973544975 80.42328042328043,169.52380952380955 79.7883597883598,169.10052910052912 79.15343915343917,169.10052910052912 78.51851851851852,168.8888888888889 77.88359788359789,168.8888888888889 77.24867724867725,168.67724867724868 76.61375661375662,168.46560846560848 75.97883597883599,168.25396825396825 75.34391534391536,168.04232804232805 74.70899470899471,167.83068783068785 74.07407407407408,167.61904761904762 73.43915343915344,167.61904761904762 72.80423280423281,167.40740740740742 72.16931216931218,167.40740740740742 71.53439153439155,167.19576719576722 70.8994708994709,166.984126984127 70.26455026455027,166.984126984127 69.62962962962963,166.7724867724868 68.994708994709,166.7724867724868 68.35978835978837,166.56084656084658 67.72486772486774,166.56084656084658 67.08994708994709,166.56084656084658 66.45502645502646,166.56084656084658 65.82010582010582,166.56084656084658 65.18518518518519,166.56084656084658 64.55026455026456,166.56084656084658 63.91534391534392,166.7724867724868 63.280423280423285,166.984126984127 62.64550264550265,167.19576719576722 62.01058201058201,167.40740740740742 61.37566137566138,167.61904761904762 60.952380952380956,168.04232804232805 60.31746031746032,168.46560846560848 59.682539682539684,168.8888888888889 59.25925925925927,169.31216931216932 58.83597883597884,169.73544973544975 58.41269841269842,170.15873015873018 57.989417989417994,170.58201058201058 57.56613756613757,171.005291005291 57.142857142857146,171.64021164021165 56.93121693121694,172.27513227513228 56.50793650793651,172.6984126984127 56.2962962962963,173.33333333333334 55.87301587301588,173.96825396825398 55.661375661375665,174.6031746031746 55.449735449735456,175.23809523809524 55.02645502645503,175.66137566137567 54.81481481481482,176.2962962962963 54.60317460317461,176.93121693121694 54.39153439153439,177.56613756613757 54.179894179894184,178.2010582010582 53.968253968253975,178.83597883597884 53.75661375661376,179.4708994708995 53.54497354497355,180.10582010582013 53.333333333333336,180.74074074074076 52.91005291005291,181.3756613756614 52.6984126984127,182.01058201058203 52.48677248677249,182.64550264550266 52.06349206349207,183.2804232804233 51.851851851851855,183.91534391534393 51.640211640211646,184.55026455026456 51.21693121693122,185.1851851851852 50.7936507936508,185.82010582010582 50.370370370370374,186.45502645502646 50.158730158730165,187.08994708994712 49.73544973544974,187.51322751322752 49.31216931216932,188.14814814814815 49.1005291005291,188.78306878306879 48.677248677248684,189.20634920634922 48.25396825396826,189.62962962962965 47.830687830687836,190.26455026455028 47.40740740740741,190.8994708994709 46.98412698412699,191.32275132275134 46.77248677248678,191.95767195767198 46.349206349206355,192.3809523809524 45.92592592592593,193.01587301587304 45.50264550264551,193.43915343915344 45.07936507936508,193.86243386243387 44.65608465608466,194.2857142857143 44.232804232804234,194.92063492063494 43.5978835978836,195.34391534391537 42.96296296296297,195.55555555555557 42.539682539682545,195.978835978836 41.904761904761905,196.1904761904762 41.26984126984127,196.4021164021164 40.63492063492064,196.61375661375664 40.0,196.61375661375664 39.36507936507937,196.61375661375664 38.730158730158735,196.61375661375664 38.095238095238095,196.61375661375664 37.46031746031746,196.4021164021164 36.82539682539683,196.4021164021164 36.19047619047619,196.1904761904762 35.55555555555556,195.76719576719577 34.920634920634924,195.55555555555557 34.28571428571429,195.13227513227514 33.65079365079365,194.70899470899474 33.01587301587302,194.2857142857143 32.592592592592595,193.86243386243387 32.16931216931217,193.43915343915344 31.746031746031747,193.01587301587304 31.322751322751326,192.5925925925926 30.899470899470902,192.16931216931218 30.476190476190478,191.74603174603175 29.841269841269842,191.32275132275134 29.41798941798942,190.6878306878307 28.994708994708997,190.26455026455028 28.571428571428573,189.62962962962965 28.14814814814815,188.99470899470901 27.724867724867728,188.35978835978838 27.513227513227516,187.72486772486775 27.089947089947092,187.08994708994712 26.87830687830688,186.45502645502646 26.455026455026456,185.82010582010582 26.243386243386244,185.1851851851852 26.031746031746035,184.55026455026456 25.820105820105823,183.91534391534393 25.60846560846561,183.2804232804233 25.60846560846561,182.64550264550266 25.3968253968254,182.01058201058203 25.185185185185187,181.3756613756614 25.185185185185187,180.74074074074076 25.185185185185187,180.10582010582013 24.973544973544975,179.4708994708995 24.761904761904763,178.83597883597884 24.973544973544975,178.2010582010582 24.973544973544975,177.56613756613757 24.973544973544975,176.93121693121694 24.973544973544975,176.2962962962963 24.973544973544975,175.66137566137567 24.973544973544975,175.02645502645504 25.185185185185187,174.3915343915344 25.185185185185187,173.75661375661377 25.3968253968254,173.12169312169314 25.3968253968254,172.4867724867725 25.60846560846561,171.85185185185188 25.820105820105823,171.21693121693124 26.031746031746035,170.58201058201058 26.455026455026456,169.94708994708995 26.666666666666668,169.31216931216932 27.089947089947092,168.8888888888889 27.301587301587304,168.25396825396825 27.724867724867728,167.61904761904762 28.14814814814815,166.984126984127 28.571428571428573,166.56084656084658 28.994708994708997,165.92592592592595 29.41798941798942,165.50264550264552 29.841269841269842,165.0793650793651 30.476190476190478,164.65608465608466 31.111111111111114,164.23280423280426 31.53439153439154,163.80952380952382 32.16931216931217,163.3862433862434 32.804232804232804,162.96296296296296 33.43915343915344,162.53968253968256 34.074074074074076,162.11640211640213 34.70899470899471,161.6931216931217 35.34391534391535,161.2698412698413 35.97883597883598,161.05820105820106 36.613756613756614,160.63492063492066 37.248677248677254,160.21164021164023 37.883597883597886,160.0 38.30687830687831,159.5767195767196 38.94179894179894,159.15343915343917 39.57671957671958,158.94179894179896 40.0,158.51851851851853 40.63492063492064,158.30687830687833 41.26984126984127,157.8835978835979 41.6931216931217,157.46031746031747 42.32804232804233,157.03703703703704 42.75132275132275,156.4021164021164 43.17460317460318,155.978835978836 43.5978835978836,155.55555555555557 44.021164021164026,155.13227513227514 44.44444444444445,154.7089947089947 44.65608465608466,154.07407407407408 45.07936507936508,153.43915343915344 45.50264550264551,152.8042328042328 45.714285714285715,152.16931216931218 45.92592592592593,151.53439153439155 46.13756613756614,150.8994708994709 46.349206349206355,150.26455026455028 46.349206349206355,149.62962962962965 46.349206349206355,148.99470899470901 46.349206349206355,148.35978835978838 46.349206349206355,147.72486772486775 46.13756613756614,147.0899470899471 46.13756613756614,146.45502645502646 45.714285714285715,145.82010582010582 45.50264550264551,145.1851851851852 45.07936507936508,144.55026455026456 44.65608465608466,143.91534391534393 44.021164021164026,143.4920634920635 43.5978835978836,143.0687830687831 43.17460317460318,142.64550264550266 42.75132275132275,142.22222222222223 42.11640211640212,142.01058201058203 41.48148148148149,141.5873015873016 40.84656084656085,141.16402116402116 40.211640211640216,140.95238095238096 39.57671957671958,140.52910052910053 38.94179894179894,140.31746031746033 38.30687830687831,139.8941798941799 37.67195767195768,139.6825396825397 37.03703703703704,139.47089947089947 36.402116402116405,139.25925925925927 35.76719576719577,139.04761904761907 35.13227513227513,138.83597883597884 34.4973544973545,138.41269841269843 33.86243386243387,138.2010582010582 33.22751322751323,137.989417989418 32.592592592592595,137.7777777777778 31.95767195767196,137.56613756613757 31.322751322751326,137.35449735449737 30.68783068783069,137.14285714285717 30.052910052910054,136.93121693121694 29.41798941798942,136.71957671957674 28.783068783068785,136.5079365079365 28.14814814814815,136.2962962962963 27.513227513227516,135.87301587301587 26.87830687830688,135.66137566137567 26.243386243386244,135.44973544973547 25.60846560846561,135.23809523809524 24.973544973544975,135.02645502645504 24.338624338624342,134.6031746031746 23.703703703703706,134.3915343915344 23.06878306878307,134.17989417989418 22.433862433862437,133.75661375661377 21.7989417989418,133.54497354497354 21.164021164021165,133.12169312169314 20.529100529100532,132.9100529100529 19.894179894179896,132.4867724867725 19.25925925925926,132.27513227513228 18.624338624338627,131.85185185185185 17.98941798941799,131.64021164021165 17.354497354497354,131.42857142857144 16.71957671957672,131.005291005291 16.296296296296298,130.58201058201058 15.661375661375663,130.37037037037038 15.026455026455027,129.94708994708995 14.391534391534393,129.73544973544975 13.756613756613758,129.31216931216932 13.121693121693122,129.10052910052912 12.486772486772487,128.67724867724868 11.851851851851853,128.25396825396825 11.216931216931219,127.83068783068784 10.582010582010582,127.61904761904763 9.947089947089948,127.1957671957672 9.312169312169313,126.77248677248679 8.677248677248677,126.56084656084657 8.042328042328043,126.13756613756615 7.407407407407408,125.92592592592594 6.984126984126985,125.5026455026455 6.560846560846561,125.07936507936509 5.9259259259259265,124.65608465608466 5.291005291005291,124.23280423280424 4.656084656084657,123.80952380952382 4.021164021164021,123.3862433862434 3.597883597883598,122.96296296296298 2.9629629629629632,122.53968253968254 2.53968253968254,122.11640211640213 -0.634920634920635,120.00000000000001" style="fill:none; stroke:#00aa99; stroke-width:1.0"  /><polyline points="-0.634920634920635,120.00000000000001 1.9047619047619049,117.03703703703705 2.3280423280423284,116.4021164021164 2.7513227513227516,115.76719576719577 3.174603174603175,115.34391534391536 3.597883597883598,114.92063492063492 4.021164021164021,114.28571428571429 4.444444444444445,113.86243386243387 4.867724867724868,113.43915343915344 5.291005291005291,113.01587301587303 5.714285714285714,112.3809523809524 6.137566137566138,111.95767195767196 6.560846560846561,111.53439153439155 6.984126984126985,111.11111111111111 7.407407407407408,110.6878306878307 7.830687830687832,110.26455026455027 8.253968253968255,109.84126984126985 8.677248677248677,109.41798941798943 9.100529100529101,108.994708994709 9.523809523809524,108.35978835978837 9.947089947089948,107.93650793650795 10.370370370370372,107.51322751322752 10.793650793650794,107.0899470899471 11.428571428571429,106.66666666666667 11.851851851851853,106.24338624338625 12.275132275132275,105.82010582010582 12.6984126984127,105.3968253968254 13.121693121693122,104.97354497354497 13.756613756613758,104.55026455026456 14.17989417989418,104.12698412698414 14.603174603174605,103.4920634920635 15.026455026455027,103.06878306878308 15.449735449735451,102.64550264550266 15.873015873015873,102.22222222222223 16.50793650793651,101.79894179894181 16.931216931216934,101.37566137566138 17.354497354497354,100.95238095238096 17.77777777777778,100.52910052910053 18.412698412698415,100.10582010582011 18.83597883597884,99.68253968253968 19.25925925925926,99.25925925925927 19.894179894179896,98.83597883597885 20.31746031746032,98.41269841269842 20.740740740740744,97.989417989418 21.164021164021165,97.56613756613757 21.7989417989418,97.14285714285715 22.222222222222225,96.71957671957672 22.857142857142858,96.2962962962963 23.280423280423282,95.87301587301587 23.703703703703706,95.44973544973546 24.338624338624342,95.02645502645504 24.761904761904763,94.60317460317461 25.3968253968254,94.17989417989419 25.820105820105823,93.75661375661376 26.455026455026456,93.33333333333334 26.87830687830688,92.91005291005291 27.513227513227516,92.4867724867725 27.93650793650794,92.06349206349208 28.571428571428573,91.64021164021165 28.994708994708997,91.21693121693123 29.629629629629633,90.7936507936508 30.264550264550266,90.37037037037038 30.68783068783069,89.94708994708995 31.111111111111114,89.52380952380953 31.746031746031747,89.1005291005291 32.16931216931217,88.67724867724868 32.804232804232804,88.25396825396827 33.43915343915344,87.83068783068784 33.86243386243387,87.40740740740742 34.4973544973545,86.98412698412699 34.920634920634924,86.56084656084657 35.55555555555556,86.13756613756614 35.97883597883598,85.71428571428572 36.613756613756614,85.29100529100529 37.03703703703704,84.86772486772487 37.67195767195768,84.44444444444446 38.30687830687831,84.02116402116403 38.730158730158735,83.59788359788361 39.36507936507937,83.17460317460318 40.0,82.75132275132276 40.63492063492064,82.32804232804233 41.26984126984127,81.90476190476191 41.6931216931217,81.48148148148148 42.32804232804233,81.26984126984128 42.96296296296297,80.84656084656085 43.5978835978836,80.63492063492065 44.232804232804234,80.21164021164022 44.65608465608466,79.7883597883598 45.07936507936508,79.36507936507937 45.714285714285715,79.15343915343917 46.349206349206355,79.15343915343917 46.98412698412699,79.36507936507937 47.61904761904762,79.15343915343917 48.25396825396826,78.94179894179895 48.88888888888889,78.94179894179895 49.523809523809526,78.94179894179895 49.94708994708995,79.36507936507937 50.58201058201058,79.36507936507937 51.21693121693122,79.7883597883598 51.851851851851855,80.0 52.48677248677249,80.42328042328043 52.91005291005291,80.84656084656085 53.333333333333336,81.48148148148148 53.75661375661376,82.11640211640213 53.968253968253975,82.75132275132276 54.179894179894184,83.3862433862434 54.39153439153439,84.02116402116403 54.60317460317461,84.65608465608466 54.81481481481482,85.29100529100529 55.02645502645503,85.92592592592594 55.23809523809524,86.56084656084657 55.661375661375665,87.1957671957672 55.661375661375665,87.83068783068784 55.87301587301588,88.46560846560847 56.2962962962963,89.1005291005291 56.50793650793651,89.73544973544975 56.71957671957672,90.37037037037038 56.93121693121694,91.00529100529101 57.35449735449736,91.64021164021165 57.56613756613757,92.27513227513228 57.989417989417994,92.91005291005291 58.2010582010582,93.54497354497356 58.62433862433863,94.17989417989419 58.83597883597884,94.81481481481482 59.25925925925927,95.23809523809524 59.682539682539684,95.87301587301587 60.10582010582011,96.50793650793652 60.52910052910053,97.14285714285715 60.952380952380956,97.56613756613757 61.37566137566138,97.989417989418 61.798941798941804,98.62433862433863 62.22222222222223,99.04761904761905 62.64550264550265,99.47089947089948 63.06878306878308,99.8941798941799 63.492063492063494,100.31746031746033 64.12698412698413,100.74074074074075 64.55026455026456,101.16402116402116 65.18518518518519,101.5873015873016 65.82010582010582,102.01058201058201 66.45502645502646,102.22222222222223 67.08994708994709,102.43386243386244 67.72486772486774,102.64550264550266 68.35978835978837,102.64550264550266 68.994708994709,102.85714285714286 69.62962962962963,102.64550264550266 70.26455026455027,102.64550264550266 70.8994708994709,102.64550264550266 71.53439153439155,102.64550264550266 71.95767195767196,102.22222222222223 72.5925925925926,102.22222222222223 73.22751322751323,102.22222222222223 73.86243386243387,102.01058201058201 74.49735449735451,101.79894179894181 75.13227513227514,101.5873015873016 75.76719576719577,101.37566137566138 76.19047619047619,100.95238095238096 76.82539682539684,100.95238095238096 77.46031746031747,100.74074074074075 78.0952380952381,100.52910052910053 78.73015873015873,100.10582010582011 79.15343915343917,99.68253968253968 79.7883597883598,99.47089947089948 80.21164021164022,99.04761904761905 80.84656084656085,98.62433862433863 81.48148148148148,98.41269841269842 82.11640211640213,97.989417989418 82.75132275132276,97.56613756613757 83.3862433862434,97.14285714285715 84.02116402116403,96.71957671957672 84.44444444444446,96.2962962962963 84.86772486772487,95.87301587301587 85.29100529100529,95.44973544973546 85.71428571428572,95.02645502645504 86.13756613756614,94.60317460317461 86.56084656084657,94.17989417989419 86.98412698412699,93.75661375661376 87.40740740740742,93.33333333333334 87.83068783068784,92.91005291005291 88.25396825396827,92.27513227513228 88.67724867724868,91.85185185185186 89.1005291005291,91.21693121693123 89.52380952380953,90.7936507936508 89.73544973544975,90.15873015873017 90.15873015873017,89.73544973544975 90.58201058201058,89.1005291005291 91.00529100529101,88.46560846560847 91.42857142857143,87.83068783068784 91.64021164021165,87.1957671957672 91.85185185185186,86.56084656084657 92.06349206349208,85.92592592592594 92.4867724867725,85.5026455026455 92.69841269841271,84.86772486772487 93.12169312169313,84.23280423280424 93.33333333333334,83.59788359788361 93.54497354497356,82.96296296296298 93.96825396825398,82.32804232804233 94.17989417989419,81.6931216931217 94.17989417989419,81.05820105820106 94.39153439153439,80.42328042328043 94.60317460317461,79.7883597883598 94.81481481481482,79.15343915343917 95.02645502645504,78.51851851851852 95.02645502645504,77.88359788359789 95.02645502645504,77.24867724867725 95.23809523809524,76.61375661375662 95.23809523809524,75.97883597883599 95.23809523809524,75.34391534391536 95.23809523809524,74.70899470899471 95.23809523809524,74.07407407407408 95.02645502645504,73.43915343915344 95.02645502645504,72.80423280423281 94.81481481481482,72.16931216931218 94.60317460317461,71.53439153439155 94.17989417989419,70.8994708994709 93.75661375661376,70.26455026455027 93.33333333333334,69.62962962962963 92.91005291005291,68.994708994709 92.4867724867725,68.57142857142858 92.06349206349208,68.14814814814815 91.64021164021165,67.51322751322752 91.00529100529101,67.08994708994709 90.58201058201058,66.66666666666667 90.15873015873017,66.24338624338625 89.52380952380953,65.82010582010582 88.8888888888889,65.3968253968254 88.46560846560847,64.97354497354497 87.83068783068784,64.55026455026456 87.1957671957672,64.33862433862434 86.56084656084657,63.91534391534392 85.92592592592594,63.70370370370371 85.29100529100529,63.492063492063494 84.65608465608466,63.280423280423285 84.02116402116403,63.06878306878308 83.3862433862434,62.85714285714286 82.75132275132276,62.85714285714286 82.11640211640213,62.64550264550265 81.48148148148148,62.43386243386244 80.84656084656085,62.43386243386244 80.21164021164022,62.22222222222223 79.57671957671958,62.01058201058201 78.94179894179895,62.22222222222223 78.30687830687832,62.01058201058201 77.67195767195767,61.798941798941804 77.03703703703704,61.58730158730159 76.4021164021164,61.37566137566138 75.76719576719577,61.16402116402117 75.13227513227514,60.74074074074075 74.49735449735451,60.52910052910053 73.86243386243387,60.10582010582011 73.22751322751323,59.682539682539684 72.80423280423281,59.25925925925927 72.16931216931218,58.83597883597884 71.74603174603175,58.2010582010582 71.53439153439155,57.56613756613757 71.11111111111111,56.93121693121694 70.8994708994709,56.2962962962963 70.8994708994709,55.661375661375665 70.8994708994709,55.02645502645503 70.8994708994709,54.39153439153439 71.11111111111111,53.75661375661376 71.32275132275133,53.12169312169313 71.53439153439155,52.48677248677249 71.74603174603175,51.851851851851855 71.95767195767196,51.21693121693122 72.16931216931218,50.58201058201058 72.5925925925926,50.158730158730165 73.01587301587303,49.523809523809526 73.43915343915344,48.88888888888889 73.86243386243387,48.25396825396826 74.28571428571429,47.61904761904762 74.49735449735451,46.98412698412699 74.92063492063492,46.560846560846564 75.34391534391536,45.92592592592593 75.76719576719577,45.29100529100529 76.19047619047619,44.65608465608466 76.61375661375662,44.021164021164026 76.82539682539684,43.386243386243386 77.24867724867725,42.96296296296297 77.67195767195767,42.32804232804233 78.0952380952381,41.6931216931217 78.51851851851852,41.058201058201064 78.94179894179895,40.63492063492064 79.15343915343917,40.0 79.57671957671958,39.36507936507937 80.0,38.94179894179894 80.42328042328043,38.30687830687831 80.84656084656085,37.67195767195768 81.05820105820106,37.03703703703704 81.48148148148148,36.613756613756614 81.90476190476191,35.97883597883598 82.32804232804233,35.34391534391535 82.75132275132276,34.70899470899471 83.17460317460318,34.074074074074076 83.59788359788361,33.43915343915344 84.02116402116403,32.804232804232804 84.44444444444446,32.16931216931217 84.86772486772487,31.53439153439154 85.29100529100529,31.111111111111114 85.71428571428572,30.68783068783069 86.13756613756614,30.052910052910054 86.56084656084657,29.41798941798942 86.98412698412699,28.783068783068785 87.1957671957672,28.14814814814815 87.61904761904762,27.724867724867728 88.04232804232805,27.089947089947092 88.46560846560847,26.455026455026456 88.8888888888889,25.820105820105823 89.31216931216932,25.185185185185187 89.73544973544975,24.55026455026455 90.15873015873017,23.915343915343918 90.58201058201058,23.280423280423282 91.00529100529101,22.645502645502646 91.42857142857143,22.010582010582013 91.85185185185186,21.375661375661377 92.27513227513228,20.740740740740744 92.69841269841271,20.31746031746032 93.12169312169313,19.682539682539684 93.54497354497356,19.047619047619047 93.96825396825398,18.412698412698415 94.17989417989419,17.77777777777778 94.60317460317461,17.354497354497354 94.81481481481482,16.71957671957672 95.23809523809524,16.084656084656086 95.66137566137567,15.449735449735451 96.08465608465609,14.814814814814817 96.50793650793652,14.17989417989418 96.93121693121694,13.544973544973546 97.35449735449737,12.910052910052912 97.56613756613757,12.275132275132275 97.989417989418,11.851851851851853 98.41269841269842,11.216931216931219 98.83597883597885,10.582010582010582 99.25925925925927,9.947089947089948 99.47089947089948,9.312169312169313 99.8941798941799,8.88888888888889 100.31746031746033,8.253968253968255 100.52910052910053,7.6190476190476195 100.95238095238096,6.984126984126985 101.37566137566138,6.34920634920635 101.79894179894181,5.714285714285714 102.22222222222223,5.07936507936508 102.64550264550266,4.444444444444445 103.06878306878308,3.8095238095238098 103.4920634920635,3.174603174603175 103.91534391534393,2.53968253968254 105.60846560846562,-0.21164021164021166" style="fill:none; stroke:#3300bb; stroke-width:1.0"  /><circle cx="105.60846560846562" cy="-0.21164021164021166" r="2.0" style="fill:none; stroke:#000000aa; stroke-width:0.25" /><circle cx="192.16931216931218" cy="91.00529100529101" r="2.0" style="fill:none; stroke:#000000aa; stroke-width:0.25" /><circle cx="107.51322751322752" cy="204.44444444444446" r="2.0" style="fill:none; stroke:#000000aa; stroke-width:0.25" /><circle cx="-0.634920634920635" cy="120.00000000000001" r="2.0" style="fill:none; stroke:#000000aa; stroke-width:0.25" /><circle cx="105.82010582010582" cy="0.21164021164021166" r="2.0" style="fill:none; stroke:#ff3366aa; stroke-width:0.25" /><circle cx="191.74603174603175" cy="91.00529100529101" r="2.0" style="fill:none; stroke:#ff3366aa; stroke-width:0.25" /><circle cx="107.93650793650795" cy="203.59788359788362" r="2.0" style="fill:none; stroke:#ff3366aa; stroke-width:0.25" /><circle cx="0.21164021164021166" cy="120.00000000000001" r="2.0" style="fill:none; stroke:#ff3366aa; stroke-width:0.25" /><polyline points="115.76719576719577,6.560846560846561 115.34391534391536,6.137566137566138 114.92063492063492,5.714285714285714 114.28571428571429,5.502645502645503 113.65079365079366,5.07936507936508 113.01587301587303,4.656084656084657 112.3809523809524,4.2328042328042335 111.74603174603176,3.8095238095238098 111.32275132275133,3.3862433862433865 110.6878306878307,3.174603174603175 110.05291005291006,2.7513227513227516 109.62962962962963,2.3280423280423284 108.994708994709,2.1164021164021167" style="fill:none; stroke:#001100; stroke-width:1.0" /><polyline points="99.25925925925927,9.947089947089948 99.47089947089948,9.312169312169313 99.8941798941799,8.88888888888889 100.31746031746033,8.253968253968255 100.52910052910053,7.6190476190476195 100.95238095238096,6.984126984126985 101.37566137566138,6.34920634920635 101.79894179894181,5.714285714285714 102.22222222222223,5.07936507936508 102.64550264550266,4.444444444444445 103.06878306878308,3.8095238095238098 103.4920634920635,3.174603174603175 103.91534391534393,2.53968253968254" style="fill:none; stroke:#000011; stroke-width:1.0" /><polyline points="186.66666666666669,101.79894179894181 187.08994708994712,101.16402116402116 187.30158730158732,100.52910052910053 187.72486772486775,99.8941798941799 187.93650793650795,99.25925925925927 188.14814814814815,98.62433862433863 188.57142857142858,97.989417989418 188.78306878306879,97.35449735449737 189.20634920634922,96.71957671957672 189.41798941798945,96.08465608465609 189.84126984126985,95.44973544973546 190.05291005291008,94.81481481481482 190.47619047619048,94.17989417989419" style="fill:none; stroke:#001100; stroke-width:1.0" /><polyline points="183.4920634920635,82.75132275132276 183.91534391534393,83.17460317460318 184.55026455026456,83.59788359788361 184.973544973545,84.02116402116403 185.39682539682542,84.44444444444446 185.82010582010582,85.07936507936509 186.24338624338625,85.5026455026455 186.66666666666669,85.92592592592594 187.08994708994712,86.34920634920636 187.72486772486775,86.77248677248677 188.14814814814815,87.1957671957672 188.57142857142858,87.61904761904762 188.99470899470901,88.04232804232805 189.41798941798945,88.46560846560847" style="fill:none; stroke:#000011; stroke-width:1.0" /><polyline points="104.76190476190477,192.3809523809524 104.97354497354497,193.01587301587304 105.18518518518519,193.65079365079367 105.3968253968254,194.2857142857143 105.60846560846562,194.92063492063494 105.60846560846562,195.55555555555557 105.82010582010582,196.1904761904762 106.03174603174604,196.82539682539684 106.24338624338625,197.46031746031747 106.24338624338625,198.0952380952381 106.24338624338625,198.73015873015873 106.45502645502647,199.36507936507937 106.45502645502647,200.00000000000003 106.66666666666667,200.63492063492066" style="fill:none; stroke:#001100; stroke-width:1.0" /><polyline points="117.88359788359789,197.03703703703704 117.24867724867725,197.46031746031747 116.61375661375662,197.6719576719577 115.97883597883599,198.0952380952381 115.34391534391536,198.51851851851853 114.70899470899472,198.94179894179896 114.28571428571429,199.36507936507937 113.86243386243387,199.7883597883598 113.22751322751324,200.21164021164023 112.5925925925926,200.63492063492066 112.16931216931218,201.05820105820106 111.74603174603176,201.4814814814815 111.11111111111111,201.90476190476193" style="fill:none; stroke:#000011; stroke-width:1.0" /><polyline points="7.407407407407408,110.6878306878307 6.984126984126985,111.11111111111111 6.560846560846561,111.53439153439155 6.137566137566138,111.95767195767196 5.714285714285714,112.3809523809524 5.291005291005291,113.01587301587303 4.867724867724868,113.43915343915344 4.444444444444445,113.86243386243387 4.021164021164021,114.28571428571429 3.597883597883598,114.92063492063492 3.174603174603175,115.34391534391536 2.7513227513227516,115.76719576719577 2.3280423280423284,116.4021164021164 1.9047619047619049,117.03703703703705" style="fill:none; stroke:#001100; stroke-width:1.0" /><polyline points="9.312169312169313,126.77248677248679 8.677248677248677,126.56084656084657 8.042328042328043,126.13756613756615 7.407407407407408,125.92592592592594 6.984126984126985,125.5026455026455 6.560846560846561,125.07936507936509 5.9259259259259265,124.65608465608466 5.291005291005291,124.23280423280424 4.656084656084657,123.80952380952382 4.021164021164021,123.3862433862434 3.597883597883598,122.96296296296298 2.9629629629629632,122.53968253968254 2.53968253968254,122.11640211640213" style="fill:none; stroke:#000011; stroke-width:1.0" /><polyline points="108.994708994709,2.1164021164021167 91.21693121693123,-9.523809523809524" style="fill:none; stroke:#ffaa00; stroke-width:0.4" /><polyline points="103.91534391534393,2.53968253968254 115.13227513227514,-15.449735449735451" style="fill:none; stroke:#aaff00; stroke-width:0.4" /><polyline points="190.47619047619048,94.17989417989419 200.00000000000003,75.34391534391536" style="fill:none; stroke:#ffaa00; stroke-width:0.4" /><polyline points="189.41798941798945,88.46560846560847 204.65608465608466,103.06878306878308" style="fill:none; stroke:#aaff00; stroke-width:0.4" /><polyline points="106.66666666666667,200.63492063492066 111.32275132275133,221.1640211640212" style="fill:none; stroke:#ffaa00; stroke-width:0.4" /><polyline points="111.11111111111111,201.90476190476193 93.96825396825398,214.1798941798942" style="fill:none; stroke:#aaff00; stroke-width:0.4" /><polyline points="1.9047619047619049,117.03703703703705 -11.851851851851853,133.12169312169314" style="fill:none; stroke:#ffaa00; stroke-width:0.4" /><polyline points="2.53968253968254,122.11640211640213 -14.814814814814817,110.05291005291006" style="fill:none; stroke:#aaff00; stroke-width:0.4" /><circle cx="99.04761904761905" cy="111.11111111111111" r="1.0" style="fill:#444444; stroke-width:0" /><circle cx="83.3862433862434" cy="134.17989417989418" r="10.582010582010582" style="fill:#ff770022; stroke-width:0" /><circle cx="83.3862433862434" cy="134.17989417989418" r="1.0" style="fill:#ff7700; stroke-width:0" /></svg>