<?xml version="1.0" encoding="UTF-8" standalone="no"?><svg width="436.1904761904762" height="422.8571428571429" viewBox="-10 -10 165.39682539682542 160.95238095238096" xmlns="http://www.w3.org/2000/svg" xmlns:xlink="http://www.w3.org/1999/xlink"><polyline points="3.597883597883598,10.793650793650794 6.984126984126985,10.370370370370372 7.6190476190476195,10.370370370370372 8.253968253968255,10.15873015873016 8.88888888888889,9.947089947089948 9.523809523809524,10.15873015873016 10.15873015873016,9.947089947089948 10.793650793650794,9.947089947089948 11.428571428571429,9.947089947089948 12.063492063492065,9.735449735449736 12.6984126984127,9.735449735449736 13.333333333333334,9.735449735449736 13.96825396825397,9.523809523809524 14.603174603174605,9.312169312169313 15.238095238095239,9.312169312169313 15.873015873015873,9.100529100529101 16.50793650793651,9.100529100529101 17.142857142857146,9.100529100529101 17.77777777777778,8.88888888888889 18.412698412698415,8.677248677248677 19.047619047619047,8.88888888888889 19.47089947089947,8.465608465608467 20.105820105820108,8.465608465608467 20.740740740740744,8.253968253968255 21.375661375661377,8.253968253968255 22.010582010582013,8.253968253968255 22.645502645502646,8.042328042328043 23.280423280423282,8.042328042328043 23.915343915343918,8.042328042328043 24.55026455026455,7.830687830687832 25.185185185185187,7.830687830687832 25.820105820105823,7.6190476190476195 26.455026455026456,7.6190476190476195 27.089947089947092,7.407407407407408 27.724867724867728,7.407407407407408 28.35978835978836,7.195767195767196 28.994708994708997,6.984126984126985 29.629629629629633,6.984126984126985 30.264550264550266,6.984126984126985 30.899470899470902,6.984126984126985 31.53439153439154,6.772486772486773 32.16931216931217,6.560846560846561 32.804232804232804,6.560846560846561 33.43915343915344,6.34920634920635 34.074074074074076,6.137566137566138 34.70899470899471,6.137566137566138 35.34391534391535,6.137566137566138 35.97883597883598,5.9259259259259265 36.613756613756614,5.9259259259259265 37.248677248677254,5.714285714285714 37.883597883597886,5.714285714285714 38.51851851851852,5.502645502645503 39.15343915343916,5.502645502645503 39.78835978835979,5.502645502645503 40.423280423280424,5.291005291005291 41.058201058201064,5.291005291005291 41.6931216931217,5.07936507936508 42.32804232804233,4.867724867724868 42.96296296296297,4.867724867724868 43.5978835978836,4.656084656084657 44.232804232804234,4.656084656084657 44.867724867724874,4.656084656084657 45.50264550264551,4.656084656084657 46.13756613756614,4.444444444444445 46.77248677248678,4.444444444444445 47.40740740740741,4.2328042328042335 48.042328042328045,4.2328042328042335 48.677248677248684,4.2328042328042335 49.31216931216932,3.8095238095238098 49.94708994708995,3.8095238095238098 50.58201058201058,3.8095238095238098 51.21693121693122,4.021164021164021 51.851851851851855,4.444444444444445 52.48677248677249,4.444444444444445 53.12169312169313,4.656084656084657 53.75661375661376,4.867724867724868 54.39153439153439,5.07936507936508 55.02645502645503,5.502645502645503 55.449735449735456,5.9259259259259265 55.87301587301588,6.560846560846561 56.2962962962963,6.984126984126985 56.50793650793651,7.6190476190476195 56.71957671957672,8.253968253968255 56.71957671957672,8.88888888888889 56.71957671957672,9.523809523809524 56.71957671957672,10.15873015873016 56.71957671957672,10.793650793650794 56.50793650793651,11.428571428571429 56.50793650793651,12.063492063492065 56.2962962962963,12.6984126984127 56.08465608465609,13.333333333333334 55.87301587301588,13.96825396825397 55.661375661375665,14.603174603174605 55.449735449735456,15.238095238095239 55.23809523809524,15.873015873015873 54.81481481481482,16.296296296296298 54.60317460317461,16.931216931216934 54.179894179894184,17.354497354497354 53.75661375661376,17.98941798941799 53.333333333333336,18.412698412698415 52.91005291005291,19.047619047619047 52.48677248677249,19.682539682539684 52.06349206349207,20.31746031746032 51.851851851851855,20.952380952380953 51.42857142857143,21.58730158730159 51.42857142857143,22.222222222222225 51.21693121693122,22.857142857142858 51.00529100529101,23.492063492063494 50.7936507936508,24.12698412698413 50.7936507936508,24.761904761904763 50.7936507936508,25.3968253968254 50.7936507936508,26.031746031746035 50.7936507936508,26.666666666666668 50.7936507936508,27.301587301587304 51.00529100529101,27.93650793650794 51.21693121693122,28.571428571428573 51.640211640211646,29.20634920634921 51.851851851851855,29.841269841269842 52.27513227513228,30.476190476190478 52.6984126984127,31.111111111111114 53.12169312169313,31.53439153439154 53.54497354497355,31.95767195767196 53.968253968253975,32.592592592592595 54.60317460317461,33.01587301587302 55.23809523809524,33.43915343915344 55.661375661375665,33.86243386243387 56.2962962962963,34.28571428571429 56.93121693121694,34.4973544973545 57.56613756613757,34.920634920634924 58.2010582010582,35.34391534391535 58.83597883597884,35.55555555555556 59.470899470899475,35.76719576719577 60.10582010582011,36.19047619047619 60.74074074074075,36.19047619047619 61.37566137566138,36.402116402116405 62.01058201058201,36.613756613756614 62.64550264550265,36.82539682539683 63.280423280423285,37.03703703703704 63.91534391534392,37.03703703703704 64.55026455026456,37.03703703703704 65.18518518518519,37.46031746031746 65.82010582010582,37.46031746031746 66.45502645502646,37.46031746031746 67.08994708994709,37.67195767195768 67.72486772486774,37.67195767195768 68.35978835978837,37.67195767195768 68.994708994709,37.67195767195768 69.62962962962963,37.46031746031746 70.26455026455027,37.46031746031746 70.8994708994709,37.67195767195768 71.53439153439155,37.67195767195768 72.16931216931218,37.46031746031746 72.80423280423281,37.46031746031746 73.43915343915344,37.46031746031746 74.07407407407408,37.46031746031746 74.70899470899471,37.248677248677254 75.34391534391536,37.248677248677254 75.97883597883599,37.248677248677254 76.61375661375662,37.03703703703704 77.24867724867725,37.03703703703704 77.88359788359789,36.82539682539683 78.51851851851852,36.613756613756614 79.15343915343917,36.402116402116405 79.7883597883598,36.402116402116405 80.42328042328043,35.97883597883598 81.05820105820106,35.97883597883598 81.6931216931217,35.76719576719577 82.32804232804233,35.55555555555556 82.96296296296298,35.34391534391535 83.59788359788361,34.920634920634924 84.23280423280424,34.4973544973545 84.65608465608466,34.074074074074076 85.07936507936509,33.65079365079365 85.5026455026455,33.22751322751323 85.92592592592594,32.592592592592595 86.34920634920636,31.95767195767196 86.56084656084657,31.322751322751326 86.77248677248677,30.68783068783069 86.98412698412699,30.052910052910054 86.98412698412699,29.41798941798942 87.1957671957672,28.783068783068785 87.1957671957672,28.14814814814815 87.1957671957672,27.513227513227516 87.1957671957672,26.87830687830688 87.1957671957672,26.243386243386244 87.1957671957672,25.60846560846561 87.1957671957672,24.973544973544975 86.98412698412699,24.338624338624342 86.98412698412699,23.703703703703706 86.77248677248677,23.06878306878307 86.56084656084657,22.433862433862437 86.56084656084657,21.7989417989418 86.13756613756614,21.164021164021165 86.13756613756614,20.529100529100532 85.92592592592594,19.894179894179896 85.5026455026455,19.25925925925926 85.29100529100529,18.624338624338627 85.07936507936509,17.98941798941799 84.65608465608466,17.354497354497354 84.44444444444446,16.71957671957672 84.02116402116403,16.296296296296298 83.80952380952381,15.661375661375663 83.59788359788361,15.026455026455027 83.17460317460318,14.391534391534393 82.75132275132276,13.96825396825397 82.53968253968254,13.333333333333334 82.11640211640213,12.6984126984127 81.90476190476191,12.063492063492065 81.48148148148148,11.428571428571429 81.26984126984128,10.793650793650794 81.05820105820106,10.15873015873016 80.84656084656085,9.523809523809524 80.63492063492065,8.88888888888889 80.63492063492065,8.253968253968255 80.63492063492065,7.6190476190476195 80.63492063492065,6.984126984126985 80.63492063492065,6.34920634920635 80.63492063492065,5.714285714285714 80.84656084656085,5.07936507936508 81.05820105820106,4.444444444444445 81.48148148148148,3.8095238095238098 81.90476190476191,3.174603174603175 82.32804232804233,2.7513227513227516 82.96296296296298,2.3280423280423284 83.3862433862434,1.9047619047619049 84.02116402116403,1.6931216931216932 84.65608465608466,1.26984126984127 85.29100529100529,1.0582010582010584 85.92592592592594,0.634920634920635 86.56084656084657,0.4232804232804233 87.1957671957672,0.4232804232804233 87.83068783068784,0.4232804232804233 88.46560846560847,0.21164021164021166 89.1005291005291,0.21164021164021166 89.73544973544975,0.21164021164021166 90.37037037037038,0.21164021164021166 91.00529100529101,0.21164021164021166 91.64021164021165,0.21164021164021166 92.27513227513228,0.21164021164021166 92.91005291005291,0.21164021164021166 93.54497354497356,0.4232804232804233 94.17989417989419,0.4232804232804233 94.81481481481482,0.21164021164021166 95.44973544973546,0.21164021164021166 96.08465608465609,0.21164021164021166 96.71957671957672,0.21164021164021166 97.35449735449737,0.4232804232804233 97.989417989418,0.4232804232804233 98.62433862433863,0.4232804232804233 99.25925925925927,0.4232804232804233 99.8941798941799,0.4232804232804233 100.52910052910053,0.634920634920635 101.16402116402116,0.634920634920635 101.79894179894181,0.8465608465608466 102.43386243386244,0.8465608465608466 103.06878306878308,0.8465608465608466 103.70370370370371,1.0582010582010584 104.33862433862434,1.26984126984127 104.97354497354497,1.26984126984127 105.60846560846562,1.26984126984127 106.24338624338625,1.4814814814814816 106.87830687830689,1.4814814814814816 107.51322751322752,1.4814814814814816 108.14814814814815,1.6931216931216932 108.78306878306879,1.6931216931216932 109.41798941798943,2.1164021164021167 110.05291005291006,1.9047619047619049 110.6878306878307,2.1164021164021167 111.32275132275133,2.1164021164021167 111.95767195767196,2.1164021164021167 112.5925925925926,2.3280423280423284 113.22751322751324,2.3280423280423284 113.86243386243387,2.53968253968254 114.49735449735451,2.53968253968254 115.13227513227514,2.53968253968254 115.76719576719577,2.7513227513227516 116.4021164021164,2.7513227513227516 117.03703703703705,2.7513227513227516 117.67195767195768,2.7513227513227516 118.30687830687832,2.7513227513227516 118.94179894179895,2.9629629629629632 119.57671957671958,2.7513227513227516 120.21164021164022,2.7513227513227516 120.84656084656086,2.7513227513227516 121.4814814814815,2.7513227513227516 122.11640211640213,2.7513227513227516 122.75132275132276,2.7513227513227516 123.3862433862434,2.7513227513227516 124.02116402116403,2.7513227513227516 124.65608465608466,2.53968253968254 125.2910052910053,2.53968253968254 125.92592592592594,2.53968253968254 126.56084656084657,2.53968253968254 127.1957671957672,2.53968253968254 127.83068783068784,2.53968253968254 128.46560846560848,2.3280423280423284 129.10052910052912,2.3280423280423284 129.73544973544975,2.3280423280423284 130.37037037037038,2.3280423280423284 131.005291005291,2.1164021164021167 133.75661375661377,1.9047619047619049" style="fill:none; stroke:#cc0000; stroke-width:1.0"  /><polyline points="133.75661375661377,1.9047619047619049 135.23809523809524,5.291005291005291 135.44973544973547,5.9259259259259265 135.66137566137567,6.560846560846561 135.87301587301587,7.195767195767196 136.2962962962963,7.830687830687832 136.5079365079365,8.465608465608467 136.71957671957674,9.100529100529101 137.14285714285717,9.735449735449736 137.35449735449737,10.370370370370372 137.7777777777778,11.005291005291006 137.989417989418,11.640211640211641 138.41269841269843,12.275132275132275 138.62433862433863,12.910052910052912 139.04761904761907,13.544973544973546 139.25925925925927,14.17989417989418 139.6825396825397,14.603174603174605 140.10582010582013,15.238095238095239 140.31746031746033,15.873015873015873 140.74074074074076,16.50793650793651 141.16402116402116,17.142857142857146 141.3756613756614,17.77777777777778 141.5873015873016,18.412698412698415 141.7989417989418,19.047619047619047 142.22222222222223,19.682539682539684 142.43386243386246,20.31746031746032 142.64550264550266,20.952380952380953 142.85714285714286,21.58730158730159 142.85714285714286,22.222222222222225 143.0687830687831,22.857142857142858 143.2804232804233,23.492063492063494 143.4920634920635,24.12698412698413 143.70370370370372,24.761904761904763 143.70370370370372,25.3968253968254 143.91534391534393,26.031746031746035 144.12698412698413,26.666666666666668 144.12698412698413,27.301587301587304 144.33862433862436,27.93650793650794 144.33862433862436,28.571428571428573 144.55026455026456,29.20634920634921 144.55026455026456,29.841269841269842 144.55026455026456,30.476190476190478 144.76190476190476,31.111111111111114 144.76190476190476,31.746031746031747 144.76190476190476,32.38095238095239 144.76190476190476,33.01587301587302 144.76190476190476,33.65079365079365 144.76190476190476,34.28571428571429 144.973544973545,34.920634920634924 144.76190476190476,35.55555555555556 144.76190476190476,36.19047619047619 144.76190476190476,36.82539682539683 144.76190476190476,37.46031746031746 144.76190476190476,38.095238095238095 144.76190476190476,38.730158730158735 144.55026455026456,39.36507936507937 144.55026455026456,40.0 144.55026455026456,40.63492063492064 144.55026455026456,41.26984126984127 144.33862433862436,41.904761904761905 144.33862433862436,42.539682539682545 144.33862433862436,43.17460317460318 144.33862433862436,43.80952380952381 144.12698412698413,44.44444444444445 144.12698412698413,45.07936507936508 143.91534391534393,45.714285714285715 143.91534391534393,46.349206349206355 143.70370370370372,46.98412698412699 143.4920634920635,47.61904761904762 143.2804232804233,48.25396825396826 142.85714285714286,48.88888888888889 142.64550264550266,49.523809523809526 142.22222222222223,50.158730158730165 141.7989417989418,50.7936507936508 141.16402116402116,51.21693121693122 140.74074074074076,51.640211640211646 140.10582010582013,51.851851851851855 139.47089947089947,52.06349206349207 138.83597883597884,52.27513227513228 138.2010582010582,52.48677248677249 137.56613756613757,52.48677248677249 136.93121693121694,52.48677248677249 136.2962962962963,52.48677248677249 135.66137566137567,52.48677248677249 135.02645502645504,52.48677248677249 134.3915343915344,52.48677248677249 133.75661375661377,52.27513227513228 133.12169312169314,52.06349206349207 132.4867724867725,51.851851851851855 131.85185185185185,51.42857142857143 131.21693121693121,51.00529100529101 130.58201058201058,50.58201058201058 130.15873015873018,50.158730158730165 129.73544973544975,49.73544973544974 129.31216931216932,49.31216931216932 128.67724867724868,48.88888888888889 128.25396825396825,48.46560846560847 127.61904761904763,48.25396825396826 127.1957671957672,47.830687830687836 126.56084656084657,47.40740740740741 126.13756613756615,46.98412698412699 125.5026455026455,46.77248677248678 125.07936507936509,46.349206349206355 124.44444444444446,46.13756613756614 123.80952380952382,45.714285714285715 123.17460317460318,45.50264550264551 122.53968253968254,45.07936507936508 121.90476190476191,44.867724867724874 121.26984126984128,44.65608465608466 120.63492063492065,44.44444444444445 120.00000000000001,44.232804232804234 119.36507936507937,44.44444444444445 118.73015873015873,44.232804232804234 118.0952380952381,44.232804232804234 117.46031746031747,44.232804232804234 116.82539682539684,44.232804232804234 116.1904761904762,44.232804232804234 115.55555555555557,44.44444444444445 114.92063492063492,44.44444444444445 114.28571428571429,44.65608465608466 113.65079365079366,44.867724867724874 113.01587301587303,45.29100529100529 112.3809523809524,45.50264550264551 111.74603174603176,45.714285714285715 111.11111111111111,46.13756613756614 110.47619047619048,46.349206349206355 109.84126984126985,46.77248677248678 109.41798941798943,47.195767195767196 108.78306878306879,47.61904761904762 108.35978835978837,48.042328042328045 107.72486772486774,48.46560846560847 107.3015873015873,49.1005291005291 107.0899470899471,49.73544973544974 106.66666666666667,50.158730158730165 106.24338624338625,50.7936507936508 106.03174603174604,51.42857142857143 105.60846560846562,52.06349206349207 105.3968253968254,52.6984126984127 105.18518518518519,53.333333333333336 104.97354497354497,53.968253968253975 104.76190476190477,54.60317460317461 104.76190476190477,55.23809523809524 104.55026455026456,55.87301587301588 104.55026455026456,56.50793650793651 104.55026455026456,57.142857142857146 104.33862433862434,57.777777777777786 104.33862433862434,58.41269841269842 104.33862433862434,59.04761904761905 104.33862433862434,59.682539682539684 104.33862433862434,60.31746031746032 104.33862433862434,60.952380952380956 104.33862433862434,61.58730158730159 104.33862433862434,62.22222222222223 104.33862433862434,62.85714285714286 104.55026455026456,63.492063492063494 104.55026455026456,64.12698412698413 104.76190476190477,64.76190476190477 104.76190476190477,65.3968253968254 104.97354497354497,66.03174603174604 105.18518518518519,66.66666666666667 105.18518518518519,67.3015873015873 105.3968253968254,67.93650793650794 105.60846560846562,68.57142857142858 106.03174603174604,69.20634920634922 106.24338624338625,69.84126984126985 106.45502645502647,70.47619047619048 106.87830687830689,71.11111111111111 107.3015873015873,71.74603174603175 107.51322751322752,72.38095238095238 107.93650793650795,72.80423280423281 108.35978835978837,73.43915343915344 108.78306878306879,74.07407407407408 109.20634920634922,74.70899470899471 109.84126984126985,75.13227513227514 110.26455026455027,75.55555555555556 110.6878306878307,75.97883597883599 111.32275132275133,76.4021164021164 111.74603174603176,76.82539682539684 112.3809523809524,77.24867724867725 113.01587301587303,77.46031746031747 113.43915343915344,77.88359788359789 114.07407407407408,78.0952380952381 114.70899470899472,78.30687830687832 115.34391534391536,78.51851851851852 115.97883597883599,78.73015873015873 116.61375661375662,79.15343915343917 117.24867724867725,78.94179894179895 117.88359788359789,79.15343915343917 118.51851851851853,79.15343915343917 119.15343915343917,79.36507936507937 119.7883597883598,79.15343915343917 120.42328042328043,79.36507936507937 120.84656084656086,78.94179894179895 121.4814814814815,78.94179894179895 122.11640211640213,79.15343915343917 122.75132275132276,78.94179894179895 123.3862433862434,78.73015873015873 124.02116402116403,78.51851851851852 124.65608465608466,78.30687830687832 125.2910052910053,78.0952380952381 125.92592592592594,77.67195767195767 126.56084656084657,77.67195767195767 126.98412698412699,77.24867724867725 127.61904761904763,77.24867724867725 128.04232804232805,76.82539682539684 128.67724867724868,76.61375661375662 129.31216931216932,76.19047619047619 129.94708994708995,75.97883597883599 130.58201058201058,75.76719576719577 131.21693121693121,75.55555555555556 131.85185185185185,75.13227513227514 132.4867724867725,74.92063492063492 133.12169312169314,74.70899470899471 133.75661375661377,74.70899470899471 134.3915343915344,74.49735449735451 135.02645502645504,74.28571428571429 135.66137566137567,74.28571428571429 136.2962962962963,74.28571428571429 136.93121693121694,74.70899470899471 137.56613756613757,74.92063492063492 138.2010582010582,75.13227513227514 138.83597883597884,75.55555555555556 139.47089947089947,75.97883597883599 139.8941798941799,76.4021164021164 140.31746031746033,77.03703703703704 140.74074074074076,77.67195767195767 140.95238095238096,78.30687830687832 140.95238095238096,78.94179894179895 140.95238095238096,79.57671957671958 140.95238095238096,80.21164021164022 140.95238095238096,80.84656084656085 140.95238095238096,81.48148148148148 140.74074074074076,82.11640211640213 140.74074074074076,82.75132275132276 140.52910052910053,83.3862433862434 140.52910052910053,84.02116402116403 140.52910052910053,84.65608465608466 140.52910052910053,85.29100529100529 140.31746031746033,85.92592592592594 140.31746031746033,86.56084656084657 140.10582010582013,87.1957671957672 140.10582010582013,87.83068783068784 139.8941798941799,88.46560846560847 139.8941798941799,89.1005291005291 139.6825396825397,89.73544973544975 139.47089947089947,90.37037037037038 139.25925925925927,91.00529100529101 139.04761904761907,91.64021164021165 139.04761904761907,92.27513227513228 138.83597883597884,92.91005291005291 138.62433862433863,93.54497354497356 138.62433862433863,94.17989417989419 138.41269841269843,94.81481481481482 138.2010582010582,95.44973544973546 137.989417989418,96.08465608465609 137.7777777777778,96.71957671957672 137.7777777777778,97.35449735449737 137.56613756613757,97.989417989418 137.35449735449737,98.62433862433863 137.14285714285717,99.25925925925927 136.93121693121694,99.8941798941799 136.93121693121694,100.52910052910053 136.5079365079365,101.16402116402116 136.5079365079365,101.79894179894181 136.2962962962963,102.43386243386244 136.0846560846561,103.06878306878308 135.87301587301587,103.70370370370371 135.66137566137567,104.33862433862434 135.44973544973547,104.97354497354497 135.23809523809524,105.60846560846562 135.02645502645504,106.24338624338625 134.6031746031746,106.87830687830689 134.3915343915344,107.51322751322752 134.17989417989418,108.14814814814815 133.96825396825398,108.78306878306879 133.75661375661377,109.41798941798943 133.54497354497354,110.05291005291006 133.12169312169314,110.6878306878307 132.9100529100529,111.32275132275133 132.6984126984127,111.95767195767196 131.42857142857144,115.34391534391536" style="fill:none; stroke:#999900; stroke-width:1.0"  /><polyline points="131.42857142857144,115.34391534391536 128.04232804232805,114.49735449735451 127.40740740740742,114.28571428571429 126.77248677248679,114.07407407407408 126.13756613756615,114.07407407407408 125.5026455026455,113.86243386243387 124.86772486772487,113.65079365079366 124.23280423280424,113.65079365079366 123.59788359788361,113.43915343915344 122.96296296296298,113.22751322751324 122.32804232804234,113.22751322751324 121.6931216931217,113.01587301587303 121.05820105820106,112.80423280423281 120.42328042328043,112.80423280423281 119.7883597883598,112.5925925925926 119.15343915343917,112.80423280423281 118.51851851851853,112.5925925925926 117.88359788359789,112.3809523809524 117.24867724867725,112.3809523809524 116.61375661375662,112.16931216931218 115.97883597883599,112.16931216931218 115.34391534391536,111.95767195767196 114.70899470899472,111.74603174603176 114.07407407407408,111.74603174603176 113.43915343915344,111.53439153439155 112.80423280423281,111.53439153439155 112.16931216931218,111.32275132275133 111.53439153439155,111.32275132275133 110.89947089947091,111.11111111111111 110.26455026455027,110.89947089947091 109.62962962962963,110.89947089947091 108.994708994709,110.6878306878307 108.35978835978837,110.6878306878307 107.72486772486774,110.47619047619048 107.0899470899471,110.26455026455027 106.45502645502647,110.26455026455027 105.82010582010582,110.05291005291006 105.18518518518519,110.05291005291006 104.55026455026456,109.84126984126985 103.91534391534393,109.84126984126985 103.28042328042329,109.62962962962963 102.64550264550266,109.41798941798943 102.01058201058201,109.41798941798943 101.37566137566138,109.20634920634922 100.74074074074075,109.20634920634922 100.10582010582011,108.994708994709 99.47089947089948,108.78306878306879 98.83597883597885,108.57142857142858 98.2010582010582,108.35978835978837 97.56613756613757,108.35978835978837 96.93121693121694,108.14814814814815 96.2962962962963,107.93650793650795 95.66137566137567,107.93650793650795 95.02645502645504,107.72486772486774 94.39153439153439,107.51322751322752 93.75661375661376,107.3015873015873 93.12169312169313,107.3015873015873 92.4867724867725,107.0899470899471 91.85185185185186,106.87830687830689 91.21693121693123,106.66666666666667 90.58201058201058,106.66666666666667 89.94708994708995,106.66666666666667 89.31216931216932,106.45502645502647 88.67724867724868,106.24338624338625 88.04232804232805,106.03174603174604 87.40740740740742,106.03174603174604 86.77248677248677,105.82010582010582 86.13756613756614,105.60846560846562 85.5026455026455,105.60846560846562 84.86772486772487,105.3968253968254 84.23280423280424,105.60846560846562 83.59788359788361,105.3968253968254 82.96296296296298,105.18518518518519 82.32804232804233,105.18518518518519 81.6931216931217,104.97354497354497 81.05820105820106,104.76190476190477 80.42328042328043,104.55026455026456 79.7883597883598,104.55026455026456 79.15343915343917,104.33862433862434 78.51851851851852,104.33862433862434 77.88359788359789,104.12698412698414 77.24867724867725,103.91534391534393 76.61375661375662,103.91534391534393 75.97883597883599,103.70370370370371 75.34391534391536,103.70370370370371 74.70899470899471,103.4920634920635 74.07407407407408,103.28042328042329 73.43915343915344,103.06878306878308 72.80423280423281,103.06878306878308 72.16931216931218,102.85714285714286 71.53439153439155,102.85714285714286 70.8994708994709,102.64550264550266 70.26455026455027,102.43386243386244 69.62962962962963,102.22222222222223 68.994708994709,102.01058201058201 68.35978835978837,101.79894179894181 67.72486772486774,101.79894179894181 67.08994708994709,101.79894179894181 66.45502645502646,101.5873015873016 65.82010582010582,101.5873015873016 65.18518518518519,101.37566137566138 64.55026455026456,101.37566137566138 63.91534391534392,101.37566137566138 63.280423280423285,101.37566137566138 62.64550264550265,101.37566137566138 62.01058201058201,101.37566137566138 61.37566137566138,101.5873015873016 60.74074074074075,101.79894179894181 60.10582010582011,102.01058201058201 59.470899470899475,102.22222222222223 58.83597883597884,102.43386243386244 58.41269841269842,102.85714285714286 57.777777777777786,103.28042328042329 57.35449735449736,103.70370370370371 56.93121693121694,104.12698412698414 56.50793650793651,104.76190476190477 56.08465608465609,105.3968253968254 55.87301587301588,106.03174603174604 55.661375661375665,106.66666666666667 55.661375661375665,107.3015873015873 55.449735449735456,107.93650793650795 55.449735449735456,108.57142857142858 55.449735449735456,109.20634920634922 55.449735449735456,109.84126984126985 55.661375661375665,110.47619047619048 55.87301587301588,111.11111111111111 55.87301587301588,111.74603174603176 55.87301587301588,112.3809523809524 56.2962962962963,113.01587301587303 56.2962962962963,113.65079365079366 56.50793650793651,114.28571428571429 56.71957671957672,114.92063492063492 56.93121693121694,115.55555555555557 57.142857142857146,116.1904761904762 57.142857142857146,116.82539682539684 57.35449735449736,117.46031746031747 57.56613756613757,118.0952380952381 57.777777777777786,118.73015873015873 57.989417989417994,119.36507936507937 58.41269841269842,119.7883597883598 58.62433862433863,120.42328042328043 58.83597883597884,121.05820105820106 58.83597883597884,121.6931216931217 59.04761904761905,122.32804232804234 59.25925925925927,122.96296296296298 59.25925925925927,123.59788359788361 59.470899470899475,124.23280423280424 59.470899470899475,124.86772486772487 59.470899470899475,125.5026455026455 59.682539682539684,126.13756613756615 59.470899470899475,126.77248677248679 59.682539682539684,127.40740740740742 59.470899470899475,128.04232804232805 59.470899470899475,128.67724867724868 59.470899470899475,129.31216931216932 59.470899470899475,129.94708994708995 59.25925925925927,130.58201058201058 59.04761904761905,131.21693121693121 59.04761904761905,131.85185185185185 58.83597883597884,132.4867724867725 58.62433862433863,133.12169312169314 58.2010582010582,133.75661375661377 57.989417989417994,134.3915343915344 57.56613756613757,135.02645502645504 57.142857142857146,135.44973544973547 56.71957671957672,135.87301587301587 56.2962962962963,136.2962962962963 55.87301587301588,136.71957671957674 55.23809523809524,137.14285714285717 54.60317460317461,137.35449735449737 53.968253968253975,137.7777777777778 53.333333333333336,137.989417989418 52.6984126984127,138.41269841269843 52.06349206349207,138.62433862433863 51.42857142857143,139.04761904761907 50.7936507936508,139.25925925925927 50.158730158730165,139.47089947089947 49.523809523809526,139.8941798941799 48.88888888888889,140.10582010582013 48.25396825396826,140.31746031746033 47.61904761904762,140.31746031746033 46.98412698412699,140.52910052910053 46.349206349206355,140.52910052910053 45.714285714285715,140.52910052910053 45.07936507936508,140.52910052910053 44.44444444444445,140.52910052910053 43.80952380952381,140.52910052910053 43.17460317460318,140.52910052910053 42.539682539682545,140.52910052910053 41.904761904761905,140.31746031746033 41.26984126984127,140.31746031746033 40.63492063492064,140.31746031746033 40.0,140.10582010582013 39.36507936507937,139.8941798941799 38.730158730158735,139.8941798941799 38.095238095238095,139.8941798941799 37.46031746031746,139.47089947089947 36.82539682539683,139.47089947089947 36.19047619047619,139.25925925925927 35.55555555555556,139.04761904761907 34.920634920634924,138.83597883597884 34.28571428571429,138.62433862433863 33.65079365079365,138.41269841269843 33.01587301587302,138.2010582010582 32.38095238095239,137.989417989418 31.746031746031747,137.56613756613757 31.111111111111114,137.35449735449737 30.476190476190478,136.93121693121694 29.841269841269842,136.5079365079365 29.20634920634921,136.2962962962963 28.571428571428573,135.87301587301587 27.93650793650794,135.44973544973547 27.513227513227516,135.02645502645504 26.87830687830688,134.6031746031746 26.455026455026456,134.17989417989418 25.820105820105823,133.75661375661377 25.3968253968254,133.33333333333334 24.973544973544975,132.9100529100529 24.55026455026455,132.27513227513228 24.12698412698413,131.64021164021165 23.915343915343918,131.005291005291 23.492063492063494,130.37037037037038 23.492063492063494,129.73544973544975 23.280423280423282,129.10052910052912 23.280423280423282,128.46560846560848 23.280423280423282,127.83068783068784 23.280423280423282,127.1957671957672 23.280423280423282,126.56084656084657 23.492063492063494,125.92592592592594 23.703703703703706,125.2910052910053 23.703703703703706,124.65608465608466 24.12698412698413,124.02116402116403 24.12698412698413,123.3862433862434 24.55026455026455,122.96296296296298 24.761904761904763,122.32804232804234 24.973544973544975,121.6931216931217 25.3968253968254,121.05820105820106 25.820105820105823,120.63492063492065 26.031746031746035,120.00000000000001 26.243386243386244,119.36507936507937 26.666666666666668,118.73015873015873 27.089947089947092,118.0952380952381 27.513227513227516,117.46031746031747 27.93650793650794,117.03703703703705 28.35978835978836,116.4021164021164 28.783068783068785,115.76719576719577 29.20634920634921,115.13227513227514 29.629629629629633,114.49735449735451 29.841269841269842,113.86243386243387 30.264550264550266,113.43915343915344 30.476190476190478,112.80423280423281 30.899470899470902,112.3809523809524 31.322751322751326,111.74603174603176 31.53439153439154,111.11111111111111 31.746031746031747,110.47619047619048 31.95767195767196,109.84126984126985 32.16931216931217,109.20634920634922 32.38095238095239,108.57142857142858 32.592592592592595,107.93650793650795 32.592592592592595,107.3015873015873 32.804232804232804,106.66666666666667 32.804232804232804,106.03174603174604 32.804232804232804,105.3968253968254 32.592592592592595,104.76190476190477 32.592592592592595,104.12698412698414 32.38095238095239,103.4920634920635 31.95767195767196,102.85714285714286 31.53439153439154,102.22222222222223 31.111111111111114,101.5873015873016 30.476190476190478,101.16402116402116 30.052910052910054,100.74074074074075 29.629629629629633,100.31746031746033 28.994708994708997,100.10582010582011 28.35978835978836,99.68253968253968 27.724867724867728,99.47089947089948 27.089947089947092,99.25925925925927 26.455026455026456,99.04761904761905 25.820105820105823,99.04761904761905 25.185185185185187,99.04761904761905 24.55026455026455,99.04761904761905 23.915343915343918,98.83597883597885 23.280423280423282,98.83597883597885 22.645502645502646,98.83597883597885 22.010582010582013,98.83597883597885 21.375661375661377,98.83597883597885 20.740740740740744,98.83597883597885 20.105820105820108,98.83597883597885 19.47089947089947,98.83597883597885 18.83597883597884,98.83597883597885 18.201058201058203,98.83597883597885 17.566137566137566,98.83597883597885 16.931216931216934,98.83597883597885 16.296296296296298,98.83597883597885 15.661375661375663,99.04761904761905 15.026455026455027,99.04761904761905 14.391534391534393,99.25925925925927 13.756613756613758,99.25925925925927 13.121693121693122,99.25925925925927 12.486772486772487,99.25925925925927 11.851851851851853,99.25925925925927 11.216931216931219,99.47089947089948 10.582010582010582,99.47089947089948 9.947089947089948,99.47089947089948 9.312169312169313,99.47089947089948 8.677248677248677,99.47089947089948 8.042328042328043,99.68253968253968 7.407407407407408,99.68253968253968 6.772486772486773,99.68253968253968 6.137566137566138,99.8941798941799 5.502645502645503,99.8941798941799 4.867724867724868,99.8941798941799 4.2328042328042335,99.8941798941799 -0.21164021164021166,100.52910052910053" style="fill:none; stroke:#00aa99; stroke-width:1.0"  /><polyline points="-0.21164021164021166,100.52910052910053 0.4232804232804233,96.93121693121694 0.634920634920635,96.2962962962963 0.8465608465608466,95.66137566137567 1.0582010582010584,95.02645502645504 1.0582010582010584,94.39153439153439 1.26984126984127,93.75661375661376 1.26984126984127,93.12169312169313 1.4814814814814816,92.4867724867725 1.6931216931216932,91.85185185185186 1.6931216931216932,91.21693121693123 1.9047619047619049,90.58201058201058 1.9047619047619049,89.94708994708995 2.1164021164021167,89.31216931216932 2.1164021164021167,88.67724867724868 2.3280423280423284,88.04232804232805 2.3280423280423284,87.40740740740742 2.3280423280423284,86.77248677248677 2.53968253968254,86.13756613756614 2.53968253968254,85.5026455026455 2.7513227513227516,84.86772486772487 2.53968253968254,84.23280423280424 2.7513227513227516,83.59788359788361 2.7513227513227516,82.96296296296298 2.7513227513227516,82.32804232804233 2.9629629629629632,81.6931216931217 2.9629629629629632,81.05820105820106 2.9629629629629632,80.42328042328043 2.9629629629629632,79.7883597883598 3.174603174603175,79.15343915343917 3.174603174603175,78.51851851851852 3.174603174603175,77.88359788359789 3.3862433862433865,77.24867724867725 3.3862433862433865,76.61375661375662 3.597883597883598,75.97883597883599 3.597883597883598,75.34391534391536 3.8095238095238098,74.70899470899471 4.021164021164021,74.07407407407408 4.444444444444445,73.43915343915344 4.867724867724868,72.80423280423281 5.291005291005291,72.38095238095238 5.714285714285714,71.95767195767196 6.137566137566138,71.53439153439155 6.560846560846561,71.11111111111111 7.195767195767196,70.8994708994709 7.830687830687832,70.47619047619048 8.465608465608467,70.26455026455027 9.100529100529101,70.05291005291006 9.735449735449736,69.84126984126985 10.370370370370372,69.84126984126985 11.005291005291006,69.62962962962963 11.640211640211641,69.62962962962963 12.275132275132275,69.41798941798942 12.6984126984127,69.84126984126985 13.333333333333334,69.84126984126985 13.96825396825397,69.84126984126985 14.603174603174605,69.84126984126985 15.238095238095239,70.05291005291006 15.873015873015873,70.26455026455027 16.50793650793651,70.47619047619048 17.142857142857146,70.8994708994709 17.77777777777778,71.11111111111111 18.412698412698415,71.32275132275133 19.047619047619047,71.53439153439155 19.682539682539684,71.95767195767196 20.31746031746032,72.16931216931218 20.952380952380953,72.38095238095238 21.58730158730159,72.80423280423281 22.222222222222225,73.01587301587303 22.857142857142858,73.22751322751323 23.492063492063494,73.43915343915344 24.12698412698413,73.65079365079366 24.761904761904763,73.65079365079366 25.3968253968254,73.65079365079366 26.031746031746035,73.65079365079366 26.666666666666668,73.65079365079366 27.301587301587304,73.43915343915344 27.93650793650794,73.43915343915344 28.35978835978836,73.01587301587303 28.994708994708997,72.5925925925926 29.629629629629633,72.5925925925926 30.052910052910054,72.16931216931218 30.68783068783069,71.74603174603175 31.111111111111114,71.32275132275133 31.53439153439154,70.6878306878307 31.95767195767196,70.26455026455027 32.38095238095239,69.84126984126985 32.804232804232804,69.20634920634922 33.01587301587302,68.57142857142858 33.43915343915344,68.14814814814815 33.65079365079365,67.51322751322752 34.074074074074076,66.87830687830689 34.28571428571429,66.24338624338625 34.4973544973545,65.60846560846561 34.920634920634924,64.97354497354497 35.13227513227513,64.33862433862434 35.13227513227513,63.70370370370371 35.55555555555556,63.280423280423285 35.76719576719577,62.64550264550265 35.76719576719577,62.01058201058201 36.19047619047619,61.37566137566138 36.19047619047619,60.74074074074075 36.402116402116405,60.10582010582011 36.402116402116405,59.470899470899475 36.613756613756614,58.83597883597884 36.613756613756614,58.2010582010582 36.613756613756614,57.56613756613757 36.613756613756614,56.93121693121694 36.613756613756614,56.2962962962963 36.613756613756614,55.661375661375665 36.613756613756614,55.02645502645503 36.613756613756614,54.39153439153439 36.402116402116405,53.75661375661376 36.402116402116405,53.12169312169313 36.402116402116405,52.48677248677249 36.19047619047619,51.851851851851855 35.97883597883598,51.21693121693122 35.76719576719577,50.58201058201058 35.34391534391535,49.94708994708995 34.920634920634924,49.523809523809526 34.4973544973545,48.88888888888889 34.074074074074076,48.46560846560847 33.65079365079365,48.042328042328045 33.01587301587302,47.61904761904762 32.592592592592595,47.195767195767196 31.95767195767196,46.98412698412699 31.322751322751326,46.77248677248678 30.68783068783069,46.560846560846564 30.052910052910054,46.349206349206355 29.41798941798942,46.349206349206355 28.783068783068785,46.349206349206355 28.14814814814815,46.13756613756614 27.513227513227516,46.13756613756614 26.87830687830688,46.13756613756614 26.243386243386244,46.349206349206355 25.60846560846561,46.349206349206355 24.973544973544975,46.349206349206355 24.338624338624342,46.349206349206355 23.703703703703706,46.560846560846564 23.06878306878307,46.77248677248678 22.433862433862437,46.98412698412699 21.7989417989418,47.195767195767196 21.164021164021165,47.40740740740741 20.529100529100532,47.61904761904762 19.894179894179896,47.830687830687836 19.25925925925926,48.042328042328045 18.624338624338627,48.25396825396826 17.98941798941799,48.677248677248684 17.354497354497354,48.88888888888889 16.71957671957672,49.1005291005291 16.084656084656086,49.1005291005291 15.449735449735451,49.1005291005291 14.814814814814817,49.1005291005291 14.17989417989418,49.1005291005291 13.544973544973546,48.88888888888889 12.910052910052912,48.677248677248684 12.275132275132275,48.677248677248684 11.640211640211641,48.25396825396826 11.005291005291006,48.042328042328045 10.370370370370372,47.61904761904762 9.947089947089948,47.195767195767196 9.523809523809524,46.77248677248678 9.100529100529101,46.349206349206355 8.677248677248677,45.92592592592593 8.253968253968255,45.29100529100529 8.042328042328043,44.65608465608466 7.6190476190476195,44.021164021164026 7.407407407407408,43.386243386243386 7.195767195767196,42.75132275132275 7.195767195767196,42.11640211640212 6.984126984126985,41.48148148148149 6.984126984126985,40.84656084656085 6.772486772486773,40.211640211640216 6.560846560846561,39.57671957671958 6.560846560846561,38.94179894179894 6.560846560846561,38.30687830687831 6.34920634920635,37.67195767195768 6.34920634920635,37.03703703703704 6.34920634920635,36.402116402116405 6.137566137566138,35.76719576719577 6.137566137566138,35.13227513227513 5.9259259259259265,34.4973544973545 5.9259259259259265,33.86243386243387 5.9259259259259265,33.22751322751323 5.714285714285714,32.592592592592595 5.714285714285714,31.95767195767196 5.714285714285714,31.322751322751326 5.714285714285714,30.68783068783069 5.502645502645503,30.052910052910054 5.502645502645503,29.41798941798942 5.291005291005291,28.783068783068785 5.291005291005291,28.14814814814815 5.291005291005291,27.513227513227516 5.291005291005291,26.87830687830688 5.07936507936508,26.243386243386244 5.07936507936508,25.60846560846561 5.07936507936508,24.973544973544975 4.867724867724868,24.338624338624342 4.867724867724868,23.703703703703706 4.867724867724868,23.06878306878307 4.867724867724868,22.433862433862437 4.867724867724868,21.7989417989418 4.867724867724868,21.164021164021165 4.867724867724868,20.529100529100532 4.867724867724868,19.894179894179896 4.656084656084657,19.25925925925926 4.656084656084657,18.624338624338627 4.656084656084657,17.98941798941799 4.656084656084657,17.354497354497354 4.444444444444445,16.71957671957672 4.444444444444445,16.084656084656086 4.444444444444445,15.449735449735451 4.021164021164021,14.814814814814817 3.597883597883598,10.793650793650794" style="fill:none; stroke:#3300bb; stroke-width:1.0"  /><circle cx="3.597883597883598" cy="10.793650793650794" r="2.0" style="fill:none; stroke:#000000aa; stroke-width:0.25" /><circle cx="133.75661375661377" cy="1.9047619047619049" r="2.0" style="fill:none; stroke:#000000aa; stroke-width:0.25" /><circle cx="131.42857142857144" cy="115.34391534391536" r="2.0" style="fill:none; stroke:#000000aa; stroke-width:0.25" /><circle cx="-0.21164021164021166" cy="100.52910052910053" r="2.0" style="fill:none; stroke:#000000aa; stroke-width:0.25" /><circle cx="4.021164021164021" cy="11.428571428571429" r="2.0" style="fill:none; stroke:#ff3366aa; stroke-width:0.25" /><circle cx="133.96825396825398" cy="2.3280423280423284" r="2.0" style="fill:none; stroke:#ff3366aa; stroke-width:0.25" /><circle cx="131.21693121693121" cy="114.92063492063492" r="2.0" style="fill:none; stroke:#ff3366aa; stroke-width:0.25" /><circle cx="0.634920634920635" cy="100.10582010582011" r="2.0" style="fill:none; stroke:#ff3366aa; stroke-width:0.25" /><polyline points="15.238095238095239,9.312169312169313 14.603174603174605,9.312169312169313 13.96825396825397,9.523809523809524 13.333333333333334,9.735449735449736 12.6984126984127,9.735449735449736 12.063492063492065,9.735449735449736 11.428571428571429,9.947089947089948 10.793650793650794,9.947089947089948 10.15873015873016,9.947089947089948 9.523809523809524,10.15873015873016 8.88888888888889,9.947089947089948 8.253968253968255,10.15873015873016 7.6190476190476195,10.370370370370372 6.984126984126985,10.370370370370372" style="fill:none; stroke:#001100; stroke-width:1.0" /><polyline points="4.867724867724868,23.06878306878307 4.867724867724868,22.433862433862437 4.867724867724868,21.7989417989418 4.867724867724868,21.164021164021165 4.867724867724868,20.529100529100532 4.867724867724868,19.894179894179896 4.656084656084657,19.25925925925926 4.656084656084657,18.624338624338627 4.656084656084657,17.98941798941799 4.656084656084657,17.354497354497354 4.444444444444445,16.71957671957672 4.444444444444445,16.084656084656086 4.444444444444445,15.449735449735451 4.021164021164021,14.814814814814817" style="fill:none; stroke:#000011; stroke-width:1.0" /><polyline points="138.62433862433863,12.910052910052912 138.41269841269843,12.275132275132275 137.989417989418,11.640211640211641 137.7777777777778,11.005291005291006 137.35449735449737,10.370370370370372 137.14285714285717,9.735449735449736 136.71957671957674,9.100529100529101 136.5079365079365,8.465608465608467 136.2962962962963,7.830687830687832 135.87301587301587,7.195767195767196 135.66137566137567,6.560846560846561 135.44973544973547,5.9259259259259265 135.23809523809524,5.291005291005291" style="fill:none; stroke:#001100; stroke-width:1.0" /><polyline points="122.11640211640213,2.7513227513227516 122.75132275132276,2.7513227513227516 123.3862433862434,2.7513227513227516 124.02116402116403,2.7513227513227516 124.65608465608466,2.53968253968254 125.2910052910053,2.53968253968254 125.92592592592594,2.53968253968254 126.56084656084657,2.53968253968254 127.1957671957672,2.53968253968254 127.83068783068784,2.53968253968254 128.46560846560848,2.3280423280423284 129.10052910052912,2.3280423280423284 129.73544973544975,2.3280423280423284 130.37037037037038,2.3280423280423284 131.005291005291,2.1164021164021167" style="fill:none; stroke:#000011; stroke-width:1.0" /><polyline points="119.7883597883598,112.5925925925926 120.42328042328043,112.80423280423281 121.05820105820106,112.80423280423281 121.6931216931217,113.01587301587303 122.32804232804234,113.22751322751324 122.96296296296298,113.22751322751324 123.59788359788361,113.43915343915344 124.23280423280424,113.65079365079366 124.86772486772487,113.65079365079366 125.5026455026455,113.86243386243387 126.13756613756615,114.07407407407408 126.77248677248679,114.07407407407408 127.40740740740742,114.28571428571429 128.04232804232805,114.49735449735451" style="fill:none; stroke:#001100; stroke-width:1.0" /><polyline points="135.66137566137567,104.33862433862434 135.44973544973547,104.97354497354497 135.23809523809524,105.60846560846562 135.02645502645504,106.24338624338625 134.6031746031746,106.87830687830689 134.3915343915344,107.51322751322752 134.17989417989418,108.14814814814815 133.96825396825398,108.78306878306879 133.75661375661377,109.41798941798943 133.54497354497354,110.05291005291006 133.12169312169314,110.6878306878307 132.9100529100529,111.32275132275133 132.6984126984127,111.95767195767196" style="fill:none; stroke:#000011; stroke-width:1.0" /><polyline points="2.1164021164021167,88.67724867724868 2.1164021164021167,89.31216931216932 1.9047619047619049,89.94708994708995 1.9047619047619049,90.58201058201058 1.6931216931216932,91.21693121693123 1.6931216931216932,91.85185185185186 1.4814814814814816,92.4867724867725 1.26984126984127,93.12169312169313 1.26984126984127,93.75661375661376 1.0582010582010584,94.39153439153439 1.0582010582010584,95.02645502645504 0.8465608465608466,95.66137566137567 0.634920634920635,96.2962962962963 0.4232804232804233,96.93121693121694" style="fill:none; stroke:#001100; stroke-width:1.0" /><polyline points="12.486772486772487,99.25925925925927 11.851851851851853,99.25925925925927 11.216931216931219,99.47089947089948 10.582010582010582,99.47089947089948 9.947089947089948,99.47089947089948 9.312169312169313,99.47089947089948 8.677248677248677,99.47089947089948 8.042328042328043,99.68253968253968 7.407407407407408,99.68253968253968 6.772486772486773,99.68253968253968 6.137566137566138,99.8941798941799 5.502645502645503,99.8941798941799 4.867724867724868,99.8941798941799 4.2328042328042335,99.8941798941799 3.597883597883598,100.10582010582011" style="fill:none; stroke:#000011; stroke-width:1.0" /><polyline points="6.984126984126985,10.370370370370372 -13.96825396825397,13.121693121693122" style="fill:none; stroke:#ffaa00; stroke-width:0.4" /><polyline points="4.021164021164021,14.814814814814817 1.9047619047619049,-6.137566137566138" style="fill:none; stroke:#aaff00; stroke-width:0.4" /><polyline points="135.23809523809524,5.291005291005291 126.56084656084657,-13.96825396825397" style="fill:none; stroke:#ffaa00; stroke-width:0.4" /><polyline points="131.005291005291,2.1164021164021167 152.16931216931218,0.634920634920635" style="fill:none; stroke:#aaff00; stroke-width:0.4" /><polyline points="128.04232804232805,114.49735449735451 148.57142857142858,119.15343915343917" style="fill:none; stroke:#ffaa00; stroke-width:0.4" /><polyline points="132.6984126984127,111.95767195767196 125.07936507936509,131.64021164021165" style="fill:none; stroke:#aaff00; stroke-width:0.4" /><polyline points="0.4232804232804233,96.93121693121694 -3.8095238095238098,117.67195767195768" style="fill:none; stroke:#ffaa00; stroke-width:0.4" /><polyline points="3.597883597883598,100.10582010582011 -17.566137566137566,102.01058201058201" style="fill:none; stroke:#aaff00; stroke-width:0.4" /><circle cx="72.16931216931218" cy="62.64550264550265" r="1.0" style="fill:#444444; stroke-width:0" /><circle cx="73.01587301587303" cy="70.26455026455027" r="10.582010582010582" style="fill:#ff770022; stroke-width:0" /><circle cx="73.01587301587303" cy="70.26455026455027" r="1.0" style="fill:#ff7700; stroke-width:0" /></svg>