<?xml version="1.0" encoding="UTF-8" standalone="no"?><svg width="539.6825396825398" height="470.47619047619054" viewBox="-10 -10 199.8941798941799 176.82539682539684" xmlns="http://www.w3.org/2000/svg" xmlns:xlink="http://www.w3.org/1999/xlink"><polyline points="1.6931216931216932,44.65608465608466 4.444444444444445,43.80952380952381 5.07936507936508,43.5978835978836 5.714285714285714,43.386243386243386 6.34920634920635,43.17460317460318 6.984126984126985,42.96296296296297 7.6190476190476195,42.539682539682545 8.253968253968255,42.539682539682545 8.88888888888889,42.32804232804233 9.523809523809524,42.11640211640212 10.15873015873016,41.904761904761905 10.793650793650794,41.48148148148149 11.428571428571429,41.48148148148149 12.063492063492065,41.26984126984127 12.6984126984127,40.84656084656085 13.333333333333334,40.63492063492064 13.96825396825397,40.423280423280424 14.603174603174605,40.211640211640216 15.238095238095239,40.0 15.873015873015873,39.57671957671958 16.50793650793651,39.57671957671958 17.142857142857146,39.15343915343916 17.77777777777778,38.94179894179894 18.412698412698415,38.730158730158735 19.047619047619047,38.51851851851852 19.682539682539684,38.30687830687831 20.105820105820108,37.883597883597886 20.740740740740744,37.67195767195768 21.375661375661377,37.46031746031746 22.010582010582013,37.248677248677254 22.645502645502646,36.82539682539683 23.280423280423282,36.613756613756614 23.915343915343918,36.402116402116405 24.55026455026455,36.19047619047619 25.185185185185187,36.19047619047619 25.820105820105823,35.97883597883598 26.243386243386244,35.55555555555556 26.87830687830688,35.34391534391535 27.513227513227516,35.13227513227513 28.14814814814815,35.13227513227513 28.783068783068785,34.920634920634924 29.20634920634921,34.4973544973545 29.841269841269842,34.28571428571429 30.476190476190478,34.074074074074076 31.111111111111114,33.86243386243387 31.746031746031747,33.65079365079365 32.38095238095239,33.43915343915344 33.01587301587302,33.22751322751323 33.65079365079365,33.01587301587302 34.28571428571429,32.804232804232804 34.920634920634924,32.804232804232804 35.34391534391535,32.38095238095239 35.97883597883598,32.16931216931217 36.613756613756614,31.95767195767196 37.248677248677254,31.746031746031747 37.883597883597886,31.53439153439154 38.51851851851852,31.53439153439154 39.15343915343916,31.322751322751326 39.78835978835979,31.322751322751326 40.211640211640216,30.899470899470902 40.84656084656085,30.899470899470902 41.48148148148149,30.899470899470902 42.11640211640212,30.899470899470902 42.75132275132275,30.899470899470902 43.386243386243386,30.899470899470902 44.021164021164026,30.68783068783069 44.65608465608466,30.899470899470902 45.29100529100529,30.899470899470902 45.92592592592593,30.899470899470902 46.560846560846564,31.111111111111114 47.195767195767196,31.322751322751326 47.830687830687836,31.53439153439154 48.46560846560847,31.746031746031747 48.88888888888889,32.16931216931217 49.31216931216932,32.592592592592595 49.73544973544974,33.01587301587302 50.158730158730165,33.43915343915344 50.370370370370374,34.074074074074076 50.58201058201058,34.70899470899471 50.7936507936508,35.34391534391535 50.58201058201058,35.97883597883598 50.7936507936508,36.613756613756614 50.7936507936508,37.248677248677254 50.7936507936508,37.883597883597886 50.7936507936508,38.51851851851852 51.00529100529101,39.15343915343916 51.00529100529101,39.78835978835979 51.21693121693122,40.423280423280424 51.21693121693122,41.058201058201064 51.21693121693122,41.6931216931217 51.21693121693122,42.32804232804233 51.42857142857143,42.96296296296297 51.42857142857143,43.5978835978836 51.42857142857143,44.232804232804234 51.640211640211646,44.867724867724874 51.640211640211646,45.50264550264551 51.851851851851855,46.13756613756614 51.851851851851855,46.77248677248678 52.06349206349207,47.40740740740741 52.06349206349207,48.042328042328045 52.27513227513228,48.677248677248684 52.48677248677249,49.31216931216932 52.48677248677249,49.94708994708995 52.91005291005291,50.58201058201058 53.12169312169313,51.21693121693122 53.333333333333336,51.851851851851855 53.54497354497355,52.48677248677249 53.968253968253975,53.12169312169313 54.179894179894184,53.75661375661376 54.60317460317461,54.39153439153439 55.02645502645503,54.81481481481482 55.449735449735456,55.23809523809524 55.87301587301588,55.661375661375665 56.2962962962963,56.08465608465609 56.93121693121694,56.2962962962963 57.35449735449736,56.71957671957672 57.777777777777786,57.142857142857146 58.41269841269842,57.35449735449736 59.04761904761905,57.56613756613757 59.682539682539684,57.989417989417994 60.31746031746032,58.2010582010582 60.952380952380956,58.2010582010582 61.58730158730159,58.62433862433863 62.22222222222223,59.04761904761905 62.85714285714286,59.04761904761905 63.492063492063494,59.25925925925927 64.12698412698413,59.25925925925927 64.76190476190477,59.470899470899475 65.3968253968254,59.470899470899475 66.03174603174604,59.682539682539684 66.66666666666667,59.682539682539684 67.3015873015873,59.682539682539684 67.93650793650794,59.682539682539684 68.57142857142858,59.682539682539684 69.20634920634922,59.682539682539684 69.84126984126985,59.682539682539684 70.47619047619048,59.470899470899475 71.11111111111111,59.470899470899475 71.74603174603175,59.25925925925927 72.38095238095238,59.04761904761905 73.01587301587303,59.04761904761905 73.65079365079366,58.83597883597884 74.28571428571429,58.62433862433863 74.92063492063492,58.41269841269842 75.55555555555556,58.2010582010582 76.19047619047619,57.777777777777786 76.82539682539684,57.35449735449736 77.46031746031747,56.93121693121694 78.0952380952381,56.50793650793651 78.73015873015873,56.08465608465609 79.15343915343917,55.661375661375665 79.57671957671958,55.23809523809524 80.0,54.81481481481482 80.42328042328043,54.39153439153439 80.84656084656085,53.968253968253975 81.26984126984128,53.333333333333336 81.6931216931217,52.91005291005291 82.11640211640213,52.27513227513228 82.32804232804233,51.640211640211646 82.75132275132276,51.21693121693122 83.17460317460318,50.58201058201058 83.3862433862434,49.94708994708995 83.59788359788361,49.31216931216932 84.02116402116403,48.677248677248684 84.23280423280424,48.042328042328045 84.44444444444446,47.40740740740741 84.44444444444446,46.77248677248678 84.65608465608466,46.13756613756614 84.65608465608466,45.50264550264551 84.65608465608466,44.867724867724874 84.65608465608466,44.232804232804234 84.65608465608466,43.5978835978836 84.65608465608466,42.96296296296297 84.44444444444446,42.32804232804233 84.44444444444446,41.6931216931217 84.23280423280424,41.058201058201064 84.23280423280424,40.423280423280424 83.80952380952381,39.78835978835979 83.59788359788361,39.15343915343916 83.17460317460318,38.51851851851852 82.96296296296298,37.883597883597886 82.75132275132276,37.248677248677254 82.32804232804233,36.613756613756614 82.11640211640213,35.97883597883598 81.6931216931217,35.34391534391535 81.48148148148148,34.70899470899471 81.05820105820106,34.28571428571429 80.63492063492065,33.65079365079365 80.21164021164022,33.01587301587302 80.0,32.38095238095239 79.57671957671958,31.95767195767196 79.15343915343917,31.322751322751326 78.73015873015873,30.68783068783069 78.51851851851852,30.052910052910054 78.0952380952381,29.41798941798942 77.67195767195767,28.994708994708997 77.46031746031747,28.35978835978836 77.03703703703704,27.724867724867728 76.82539682539684,27.089947089947092 76.61375661375662,26.455026455026456 76.61375661375662,25.820105820105823 76.4021164021164,25.185185185185187 76.19047619047619,24.55026455026455 76.19047619047619,23.915343915343918 76.4021164021164,23.280423280423282 76.61375661375662,22.645502645502646 76.82539682539684,22.010582010582013 77.24867724867725,21.375661375661377 77.67195767195767,20.952380952380953 78.30687830687832,20.740740740740744 78.73015873015873,20.31746031746032 79.36507936507937,20.105820105820108 79.7883597883598,19.682539682539684 80.42328042328043,19.25925925925926 81.05820105820106,19.25925925925926 81.6931216931217,18.83597883597884 82.32804232804233,18.412698412698415 82.96296296296298,18.201058201058203 83.59788359788361,17.98941798941799 84.23280423280424,17.566137566137566 84.86772486772487,17.354497354497354 85.5026455026455,17.142857142857146 86.13756613756614,16.931216931216934 86.77248677248677,16.71957671957672 87.40740740740742,16.50793650793651 88.04232804232805,16.296296296296298 88.67724867724868,16.296296296296298 89.1005291005291,15.873015873015873 89.73544973544975,15.873015873015873 90.37037037037038,15.449735449735451 91.00529100529101,15.026455026455027 91.64021164021165,14.814814814814817 92.27513227513228,14.603174603174605 92.91005291005291,14.391534391534393 93.54497354497356,14.17989417989418 94.17989417989419,13.96825396825397 94.81481481481482,13.756613756613758 95.44973544973546,13.544973544973546 96.08465608465609,13.333333333333334 96.71957671957672,13.121693121693122 97.35449735449737,12.910052910052912 97.989417989418,12.6984126984127 98.62433862433863,12.486772486772487 99.25925925925927,12.275132275132275 99.8941798941799,12.063492063492065 100.52910052910053,11.851851851851853 101.16402116402116,11.640211640211641 101.79894179894181,11.428571428571429 102.43386243386244,11.216931216931219 103.06878306878308,11.005291005291006 103.70370370370371,10.793650793650794 104.33862433862434,10.582010582010582 104.97354497354497,10.370370370370372 105.60846560846562,10.15873015873016 106.24338624338625,9.947089947089948 106.87830687830689,9.735449735449736 107.51322751322752,9.735449735449736 108.14814814814815,9.523809523809524 108.78306878306879,9.312169312169313 109.41798941798943,9.100529100529101 110.05291005291006,8.88888888888889 110.6878306878307,8.677248677248677 111.32275132275133,8.465608465608467 111.95767195767196,8.253968253968255 112.5925925925926,7.830687830687832 113.22751322751324,7.6190476190476195 113.86243386243387,7.6190476190476195 114.49735449735451,7.407407407407408 115.13227513227514,7.195767195767196 115.76719576719577,6.984126984126985 116.4021164021164,6.772486772486773 117.03703703703705,6.772486772486773 117.67195767195768,6.34920634920635 118.30687830687832,6.137566137566138 118.94179894179895,5.9259259259259265 119.57671957671958,5.714285714285714 120.21164021164022,5.502645502645503 120.84656084656086,5.291005291005291 121.4814814814815,5.07936507936508 122.11640211640213,4.656084656084657 122.75132275132276,4.656084656084657 123.3862433862434,4.444444444444445 124.02116402116403,4.021164021164021 124.65608465608466,4.021164021164021 125.2910052910053,3.8095238095238098 125.71428571428572,3.3862433862433865 126.34920634920636,2.9629629629629632 126.98412698412699,2.7513227513227516 127.61904761904763,2.53968253968254 128.25396825396825,2.3280423280423284 128.88888888888889,1.9047619047619049 129.52380952380955,1.6931216931216932 130.15873015873018,1.4814814814814816 130.7936507936508,1.4814814814814816 131.42857142857144,1.0582010582010584 132.06349206349208,0.8465608465608466 135.44973544973547,-0.4232804232804233" style="fill:none; stroke:#cc0000; stroke-width:1.0"  /><polyline points="135.44973544973547,-0.4232804232804233 135.23809523809524,3.3862433862433865 135.23809523809524,4.021164021164021 135.23809523809524,4.656084656084657 135.44973544973547,5.291005291005291 135.23809523809524,5.9259259259259265 135.23809523809524,6.560846560846561 135.23809523809524,7.195767195767196 135.23809523809524,7.830687830687832 135.23809523809524,8.465608465608467 135.23809523809524,9.100529100529101 135.23809523809524,9.735449735449736 135.02645502645504,10.370370370370372 135.02645502645504,11.005291005291006 135.02645502645504,11.640211640211641 135.02645502645504,12.275132275132275 134.81481481481484,12.910052910052912 134.81481481481484,13.544973544973546 134.81481481481484,14.17989417989418 134.81481481481484,14.814814814814817 134.81481481481484,15.449735449735451 134.81481481481484,16.084656084656086 134.6031746031746,16.71957671957672 134.6031746031746,17.354497354497354 134.6031746031746,17.98941798941799 134.3915343915344,18.624338624338627 134.3915343915344,19.25925925925926 134.3915343915344,19.894179894179896 134.3915343915344,20.529100529100532 134.17989417989418,21.164021164021165 134.17989417989418,21.7989417989418 134.17989417989418,22.433862433862437 134.17989417989418,23.06878306878307 133.96825396825398,23.703703703703706 133.96825396825398,24.338624338624342 133.96825396825398,24.973544973544975 133.96825396825398,25.60846560846561 133.96825396825398,26.243386243386244 133.96825396825398,26.87830687830688 133.96825396825398,27.513227513227516 133.96825396825398,28.14814814814815 133.96825396825398,28.783068783068785 133.96825396825398,29.41798941798942 133.96825396825398,30.052910052910054 133.96825396825398,30.68783068783069 133.96825396825398,31.322751322751326 133.96825396825398,31.95767195767196 133.96825396825398,32.592592592592595 134.17989417989418,33.22751322751323 134.17989417989418,33.86243386243387 134.17989417989418,34.4973544973545 134.17989417989418,35.13227513227513 134.17989417989418,35.76719576719577 134.3915343915344,36.402116402116405 134.3915343915344,37.03703703703704 134.3915343915344,37.67195767195768 134.6031746031746,38.30687830687831 134.6031746031746,38.94179894179894 134.81481481481484,39.57671957671958 135.02645502645504,40.211640211640216 135.02645502645504,40.84656084656085 135.23809523809524,41.48148148148149 135.23809523809524,42.11640211640212 135.44973544973547,42.75132275132275 135.44973544973547,43.386243386243386 135.44973544973547,44.021164021164026 135.66137566137567,44.65608465608466 135.66137566137567,45.29100529100529 135.87301587301587,45.92592592592593 136.0846560846561,46.560846560846564 136.0846560846561,47.195767195767196 136.2962962962963,47.830687830687836 136.5079365079365,48.46560846560847 136.71957671957674,49.1005291005291 136.93121693121694,49.73544973544974 137.14285714285717,50.370370370370374 137.35449735449737,51.00529100529101 137.7777777777778,51.640211640211646 138.2010582010582,52.27513227513228 138.62433862433863,52.91005291005291 139.04761904761907,53.333333333333336 139.6825396825397,53.75661375661376 140.10582010582013,54.179894179894184 140.74074074074076,54.60317460317461 141.3756613756614,54.81481481481482 142.01058201058203,55.02645502645503 142.64550264550266,55.02645502645503 143.2804232804233,55.02645502645503 143.91534391534393,55.02645502645503 144.55026455026456,55.02645502645503 145.1851851851852,55.02645502645503 145.82010582010582,55.02645502645503 146.45502645502646,54.81481481481482 147.0899470899471,54.60317460317461 147.72486772486775,54.39153439153439 148.35978835978838,54.179894179894184 148.99470899470901,53.75661375661376 149.62962962962965,53.333333333333336 150.26455026455028,52.91005291005291 150.8994708994709,52.48677248677249 151.32275132275134,52.06349206349207 151.95767195767198,51.640211640211646 152.38095238095238,51.21693121693122 152.8042328042328,50.7936507936508 153.22751322751324,50.370370370370374 153.65079365079367,49.94708994708995 154.07407407407408,49.523809523809526 154.4973544973545,48.88888888888889 154.92063492063494,48.46560846560847 155.34391534391534,48.042328042328045 155.76719576719577,47.61904761904762 156.1904761904762,47.195767195767196 156.82539682539684,46.77248677248678 157.24867724867727,46.349206349206355 157.67195767195767,45.92592592592593 158.30687830687833,45.50264550264551 158.73015873015873,45.07936507936508 159.36507936507937,44.65608465608466 160.0,44.44444444444445 160.63492063492066,44.021164021164026 161.2698412698413,43.5978835978836 161.90476190476193,43.386243386243386 162.53968253968256,43.386243386243386 163.1746031746032,42.96296296296297 163.80952380952382,42.96296296296297 164.44444444444446,42.96296296296297 165.0793650793651,42.96296296296297 165.71428571428572,42.75132275132275 166.34920634920636,42.75132275132275 166.984126984127,42.96296296296297 167.61904761904762,43.17460317460318 168.25396825396825,43.386243386243386 168.8888888888889,43.386243386243386 169.52380952380955,43.5978835978836 170.15873015873018,44.021164021164026 170.7936507936508,44.232804232804234 171.21693121693124,44.65608465608466 171.85185185185188,45.07936507936508 172.4867724867725,45.50264550264551 172.9100529100529,45.92592592592593 173.54497354497354,46.349206349206355 173.96825396825398,46.77248677248678 174.3915343915344,47.195767195767196 174.81481481481484,47.830687830687836 175.23809523809524,48.25396825396826 175.66137566137567,48.677248677248684 176.0846560846561,49.31216931216932 176.50793650793653,49.94708994708995 176.93121693121694,50.58201058201058 177.35449735449737,51.21693121693122 177.56613756613757,51.851851851851855 177.7777777777778,52.48677248677249 178.2010582010582,53.12169312169313 178.41269841269843,53.75661375661376 178.62433862433863,54.39153439153439 178.83597883597884,55.02645502645503 178.83597883597884,55.661375661375665 179.04761904761907,56.2962962962963 179.25925925925927,56.93121693121694 179.25925925925927,57.56613756613757 179.25925925925927,58.2010582010582 179.25925925925927,58.83597883597884 179.4708994708995,59.470899470899475 179.25925925925927,60.10582010582011 179.4708994708995,60.74074074074075 179.4708994708995,61.37566137566138 179.4708994708995,62.01058201058201 179.25925925925927,62.64550264550265 179.25925925925927,63.280423280423285 179.04761904761907,63.91534391534392 179.04761904761907,64.55026455026456 178.83597883597884,65.18518518518519 178.62433862433863,65.82010582010582 178.41269841269843,66.45502645502646 178.2010582010582,67.08994708994709 178.2010582010582,67.72486772486774 177.989417989418,68.35978835978837 177.989417989418,68.994708994709 177.56613756613757,69.62962962962963 177.35449735449737,70.26455026455027 177.14285714285717,70.8994708994709 176.93121693121694,71.53439153439155 176.71957671957674,72.16931216931218 176.2962962962963,72.80423280423281 175.87301587301587,73.43915343915344 175.66137566137567,74.07407407407408 175.44973544973547,74.70899470899471 175.02645502645504,75.34391534391536 174.6031746031746,75.76719576719577 174.1798941798942,76.4021164021164 173.75661375661377,76.82539682539684 173.33333333333334,77.46031746031747 172.9100529100529,77.88359788359789 172.4867724867725,78.30687830687832 172.06349206349208,78.73015873015873 171.64021164021165,79.15343915343917 171.005291005291,79.57671957671958 170.37037037037038,80.0 169.73544973544975,80.21164021164022 169.10052910052912,80.63492063492065 168.46560846560848,80.84656084656085 167.83068783068785,81.05820105820106 167.19576719576722,81.26984126984128 166.56084656084658,81.26984126984128 165.92592592592595,81.48148148148148 165.2910052910053,81.48148148148148 164.65608465608466,81.6931216931217 164.02116402116403,81.6931216931217 163.3862433862434,81.6931216931217 162.75132275132276,81.6931216931217 162.11640211640213,81.90476190476191 161.4814814814815,81.6931216931217 160.84656084656086,81.6931216931217 160.21164021164023,81.90476190476191 159.5767195767196,81.90476190476191 158.94179894179896,81.90476190476191 158.30687830687833,81.6931216931217 157.67195767195767,81.6931216931217 157.03703703703704,81.6931216931217 156.4021164021164,81.48148148148148 155.76719576719577,81.26984126984128 155.13227513227514,81.26984126984128 154.4973544973545,81.05820105820106 153.86243386243387,80.84656084656085 153.22751322751324,80.84656084656085 152.5925925925926,80.63492063492065 151.95767195767198,80.42328042328043 151.32275132275134,80.21164021164022 150.6878306878307,80.21164021164022 150.05291005291005,80.0 149.41798941798942,79.7883597883598 148.78306878306879,79.7883597883598 148.14814814814815,79.57671957671958 147.51322751322752,79.57671957671958 146.8783068783069,79.36507936507937 146.24338624338625,79.36507936507937 145.60846560846562,79.36507936507937 144.973544973545,79.36507936507937 144.33862433862436,79.36507936507937 143.70370370370372,79.36507936507937 143.0687830687831,79.36507936507937 142.43386243386246,79.36507936507937 141.7989417989418,79.57671957671958 141.16402116402116,79.57671957671958 140.52910052910053,80.0 139.8941798941799,80.21164021164022 139.25925925925927,80.63492063492065 138.62433862433863,81.05820105820106 138.2010582010582,81.48148148148148 137.7777777777778,81.90476190476191 137.35449735449737,82.32804232804233 136.93121693121694,82.96296296296298 136.5079365079365,83.59788359788361 136.0846560846561,84.23280423280424 135.87301587301587,84.86772486772487 135.66137566137567,85.5026455026455 135.66137566137567,86.13756613756614 135.66137566137567,86.77248677248677 135.44973544973547,87.40740740740742 135.44973544973547,88.04232804232805 135.44973544973547,88.67724867724868 135.44973544973547,89.31216931216932 135.66137566137567,89.94708994708995 135.66137566137567,90.58201058201058 135.66137566137567,91.21693121693123 135.66137566137567,91.85185185185186 135.87301587301587,92.4867724867725 135.87301587301587,93.12169312169313 135.66137566137567,93.75661375661376 135.66137566137567,94.39153439153439 135.87301587301587,95.02645502645504 135.87301587301587,95.66137566137567 136.0846560846561,96.2962962962963 136.0846560846561,96.93121693121694 136.2962962962963,97.56613756613757 136.5079365079365,98.2010582010582 136.5079365079365,98.83597883597885 136.71957671957674,99.47089947089948 136.71957671957674,100.10582010582011 136.93121693121694,100.74074074074075 137.14285714285717,101.37566137566138 137.35449735449737,102.01058201058201 137.56613756613757,102.64550264550266 137.7777777777778,103.28042328042329 137.989417989418,103.91534391534393 138.2010582010582,104.55026455026456 138.62433862433863,105.18518518518519 138.83597883597884,105.82010582010582 139.04761904761907,106.45502645502647 139.25925925925927,107.0899470899471 139.47089947089947,107.72486772486774 139.8941798941799,108.35978835978837 140.10582010582013,108.994708994709 140.31746031746033,109.62962962962963 140.74074074074076,110.26455026455027 140.95238095238096,110.89947089947091 141.3756613756614,111.53439153439155 141.5873015873016,112.16931216931218 141.7989417989418,112.80423280423281 142.01058201058203,113.43915343915344 142.22222222222223,114.07407407407408 142.43386243386246,114.70899470899472 142.64550264550266,115.34391534391536 142.85714285714286,115.97883597883599 143.0687830687831,116.61375661375662 143.2804232804233,117.24867724867725 143.4920634920635,117.88359788359789 143.70370370370372,118.51851851851853 144.12698412698413,119.15343915343917 144.12698412698413,119.7883597883598 144.33862433862436,120.42328042328043 144.55026455026456,121.05820105820106 144.76190476190476,121.6931216931217 144.973544973545,122.32804232804234 145.1851851851852,122.96296296296298 145.39682539682542,123.59788359788361 145.60846560846562,124.23280423280424 146.03174603174605,124.86772486772487 146.24338624338625,125.5026455026455 146.45502645502646,126.13756613756615 146.45502645502646,126.77248677248679 146.66666666666669,127.40740740740742 146.8783068783069,128.04232804232805 147.0899470899471,128.67724867724868 147.30158730158732,129.31216931216932 147.51322751322752,129.94708994708995 147.72486772486775,130.58201058201058 147.93650793650795,131.21693121693121 148.14814814814815,131.85185185185185 148.35978835978838,132.4867724867725 148.57142857142858,133.12169312169314 148.78306878306879,133.75661375661377 148.99470899470901,134.3915343915344 149.20634920634922,135.02645502645504 149.41798941798942,135.66137566137567 149.62962962962965,136.2962962962963 149.62962962962965,136.93121693121694 149.84126984126985,137.56613756613757 150.05291005291005,138.2010582010582 150.05291005291005,138.83597883597884 150.26455026455028,139.47089947089947 150.47619047619048,140.10582010582013 150.47619047619048,140.74074074074076 150.6878306878307,141.3756613756614 150.6878306878307,142.01058201058203 150.8994708994709,142.64550264550266 150.8994708994709,143.2804232804233 150.8994708994709,143.91534391534393 151.11111111111111,144.55026455026456 151.32275132275134,145.1851851851852 151.53439153439155,145.82010582010582 151.53439153439155,146.45502645502646 152.16931216931218,149.84126984126985" style="fill:none; stroke:#999900; stroke-width:1.0"  /><polyline points="152.16931216931218,149.84126984126985 148.78306878306879,150.26455026455028 148.14814814814815,150.26455026455028 147.51322751322752,150.26455026455028 146.8783068783069,150.47619047619048 146.24338624338625,150.47619047619048 145.60846560846562,150.6878306878307 144.973544973545,150.6878306878307 144.33862433862436,150.8994708994709 143.70370370370372,150.8994708994709 143.0687830687831,150.8994708994709 142.43386243386246,151.11111111111111 141.7989417989418,151.11111111111111 141.16402116402116,151.32275132275134 140.52910052910053,151.32275132275134 139.8941798941799,151.53439153439155 139.25925925925927,151.74603174603175 138.62433862433863,151.74603174603175 137.989417989418,151.95767195767198 137.35449735449737,151.95767195767198 136.71957671957674,152.16931216931218 136.0846560846561,152.16931216931218 135.44973544973547,152.38095238095238 134.81481481481484,152.5925925925926 134.17989417989418,152.5925925925926 133.54497354497354,152.8042328042328 132.9100529100529,152.8042328042328 132.27513227513228,153.01587301587304 131.64021164021165,153.01587301587304 131.005291005291,153.22751322751324 130.37037037037038,153.22751322751324 129.73544973544975,153.43915343915344 129.10052910052912,153.65079365079367 128.46560846560848,153.65079365079367 127.83068783068784,153.86243386243387 127.1957671957672,154.07407407407408 126.56084656084657,154.07407407407408 125.92592592592594,154.2857142857143 125.2910052910053,154.4973544973545 124.65608465608466,154.7089947089947 124.02116402116403,154.92063492063494 123.3862433862434,154.92063492063494 122.75132275132276,155.13227513227514 122.11640211640213,155.13227513227514 121.4814814814815,155.34391534391534 120.84656084656086,155.34391534391534 120.21164021164022,155.34391534391534 119.57671957671958,155.34391534391534 118.94179894179895,155.13227513227514 118.30687830687832,154.92063492063494 117.67195767195768,154.7089947089947 117.03703703703705,154.4973544973545 116.4021164021164,154.07407407407408 115.97883597883599,153.65079365079367 115.55555555555557,153.22751322751324 115.34391534391536,152.5925925925926 114.92063492063492,151.95767195767198 114.92063492063492,151.32275132275134 114.70899470899472,150.6878306878307 114.70899470899472,150.05291005291005 114.70899470899472,149.41798941798942 114.70899470899472,148.78306878306879 114.70899470899472,148.14814814814815 114.92063492063492,147.51322751322752 114.92063492063492,146.8783068783069 114.92063492063492,146.24338624338625 115.13227513227514,145.60846560846562 115.13227513227514,144.973544973545 115.13227513227514,144.33862433862436 115.34391534391536,143.70370370370372 115.55555555555557,143.0687830687831 115.76719576719577,142.43386243386246 115.97883597883599,141.7989417989418 116.1904761904762,141.16402116402116 116.4021164021164,140.52910052910053 116.61375661375662,139.8941798941799 117.03703703703705,139.25925925925927 117.24867724867725,138.62433862433863 117.46031746031747,137.989417989418 117.67195767195768,137.35449735449737 117.88359788359789,136.71957671957674 118.0952380952381,136.0846560846561 118.30687830687832,135.44973544973547 118.51851851851853,134.81481481481484 118.51851851851853,134.17989417989418 118.73015873015873,133.54497354497354 118.94179894179895,132.9100529100529 118.94179894179895,132.27513227513228 119.15343915343917,131.64021164021165 119.15343915343917,131.005291005291 119.15343915343917,130.37037037037038 119.15343915343917,129.73544973544975 118.94179894179895,129.10052910052912 118.94179894179895,128.46560846560848 118.73015873015873,127.83068783068784 118.51851851851853,127.1957671957672 118.30687830687832,126.56084656084657 118.0952380952381,125.92592592592594 117.88359788359789,125.2910052910053 117.46031746031747,124.86772486772487 117.03703703703705,124.23280423280424 116.61375661375662,123.59788359788361 116.1904761904762,123.17460317460318 115.76719576719577,122.75132275132276 115.34391534391536,122.32804232804234 114.92063492063492,121.90476190476191 114.28571428571429,121.4814814814815 113.65079365079366,121.05820105820106 113.01587301587303,120.84656084656086 112.3809523809524,120.42328042328043 111.74603174603176,120.21164021164022 111.11111111111111,119.7883597883598 110.47619047619048,119.57671957671958 109.84126984126985,119.36507936507937 109.20634920634922,119.15343915343917 108.57142857142858,119.15343915343917 107.93650793650795,118.94179894179895 107.3015873015873,118.94179894179895 106.66666666666667,118.73015873015873 106.03174603174604,118.51851851851853 105.3968253968254,118.51851851851853 104.76190476190477,118.51851851851853 104.12698412698414,118.51851851851853 103.4920634920635,118.51851851851853 102.85714285714286,118.51851851851853 102.22222222222223,118.51851851851853 101.5873015873016,118.51851851851853 100.95238095238096,118.51851851851853 100.31746031746033,118.51851851851853 99.68253968253968,118.51851851851853 99.04761904761905,118.51851851851853 98.41269841269842,118.73015873015873 97.77777777777779,118.73015873015873 97.14285714285715,118.94179894179895 96.50793650793652,118.94179894179895 95.87301587301587,119.15343915343917 95.23809523809524,119.15343915343917 94.60317460317461,119.36507936507937 93.96825396825398,119.57671957671958 93.33333333333334,119.7883597883598 92.69841269841271,120.00000000000001 92.06349206349208,120.21164021164022 91.42857142857143,120.42328042328043 90.7936507936508,120.63492063492065 90.37037037037038,121.05820105820106 89.73544973544975,121.26984126984128 89.1005291005291,121.6931216931217 88.46560846560847,122.11640211640213 87.83068783068784,122.53968253968254 87.40740740740742,122.96296296296298 86.98412698412699,123.3862433862434 86.56084656084657,123.80952380952382 86.13756613756614,124.23280423280424 85.71428571428572,124.65608465608466 85.29100529100529,125.2910052910053 85.07936507936509,125.92592592592594 84.65608465608466,126.56084656084657 84.44444444444446,127.1957671957672 84.23280423280424,127.83068783068784 84.02116402116403,128.46560846560848 84.02116402116403,129.10052910052912 83.80952380952381,129.73544973544975 83.59788359788361,130.37037037037038 83.59788359788361,131.005291005291 83.59788359788361,131.64021164021165 83.59788359788361,132.27513227513228 83.59788359788361,132.9100529100529 83.59788359788361,133.54497354497354 83.59788359788361,134.17989417989418 83.59788359788361,134.81481481481484 83.59788359788361,135.44973544973547 83.80952380952381,136.0846560846561 83.80952380952381,136.71957671957674 83.80952380952381,137.35449735449737 84.02116402116403,137.989417989418 84.02116402116403,138.62433862433863 84.23280423280424,139.25925925925927 84.44444444444446,139.8941798941799 84.44444444444446,140.52910052910053 84.65608465608466,141.16402116402116 84.65608465608466,141.7989417989418 84.86772486772487,142.43386243386246 85.07936507936509,143.0687830687831 85.07936507936509,143.70370370370372 85.07936507936509,144.33862433862436 85.5026455026455,144.973544973545 85.5026455026455,145.60846560846562 85.5026455026455,146.24338624338625 85.5026455026455,146.8783068783069 85.5026455026455,147.51322751322752 85.5026455026455,148.14814814814815 85.5026455026455,148.78306878306879 85.5026455026455,149.41798941798942 85.29100529100529,150.05291005291005 85.07936507936509,150.6878306878307 84.65608465608466,151.32275132275134 84.23280423280424,151.74603174603175 83.80952380952381,152.38095238095238 83.3862433862434,153.01587301587304 82.96296296296298,153.43915343915344 82.32804232804233,153.65079365079367 81.6931216931217,153.86243386243387 81.05820105820106,154.07407407407408 80.42328042328043,154.07407407407408 79.7883597883598,154.07407407407408 79.15343915343917,153.86243386243387 78.51851851851852,153.86243386243387 77.88359788359789,153.65079365079367 77.24867724867725,153.22751322751324 76.61375661375662,153.01587301587304 75.97883597883599,152.8042328042328 75.34391534391536,152.38095238095238 74.92063492063492,151.95767195767198 74.28571428571429,151.53439153439155 73.86243386243387,151.11111111111111 73.22751322751323,150.6878306878307 72.80423280423281,150.26455026455028 72.38095238095238,149.84126984126985 71.95767195767196,149.41798941798942 71.53439153439155,148.99470899470901 71.11111111111111,148.57142857142858 70.6878306878307,148.14814814814815 70.26455026455027,147.72486772486775 69.84126984126985,147.30158730158732 69.41798941798942,146.8783068783069 68.994708994709,146.24338624338625 68.35978835978837,145.82010582010582 67.93650793650794,145.39682539682542 67.51322751322752,144.973544973545 66.87830687830689,144.55026455026456 66.24338624338625,144.12698412698413 65.60846560846561,143.70370370370372 65.18518518518519,143.2804232804233 64.55026455026456,142.85714285714286 63.91534391534392,142.43386243386246 63.280423280423285,142.22222222222223 62.85714285714286,141.7989417989418 62.22222222222223,141.5873015873016 61.58730158730159,141.3756613756614 61.16402116402117,140.95238095238096 60.52910052910053,140.74074074074076 59.8941798941799,140.52910052910053 59.25925925925927,140.31746031746033 58.62433862433863,140.10582010582013 57.989417989417994,139.8941798941799 57.35449735449736,139.8941798941799 56.71957671957672,139.8941798941799 56.08465608465609,139.8941798941799 55.449735449735456,140.31746031746033 54.81481481481482,140.31746031746033 54.179894179894184,140.31746031746033 53.54497354497355,140.31746031746033 52.91005291005291,140.52910052910053 52.27513227513228,140.52910052910053 51.640211640211646,140.74074074074076 51.00529100529101,140.74074074074076 50.370370370370374,140.95238095238096 49.73544973544974,140.95238095238096 49.1005291005291,141.16402116402116 48.46560846560847,141.3756613756614 47.830687830687836,141.5873015873016 47.195767195767196,141.7989417989418 46.560846560846564,142.01058201058203 45.92592592592593,142.43386243386246 45.29100529100529,142.64550264550266 44.65608465608466,142.85714285714286 44.021164021164026,143.2804232804233 43.386243386243386,143.4920634920635 42.75132275132275,143.91534391534393 42.11640211640212,144.12698412698413 41.48148148148149,144.55026455026456 40.84656084656085,144.76190476190476 40.423280423280424,145.1851851851852 40.0,145.60846560846562 39.36507936507937,145.82010582010582 38.94179894179894,146.24338624338625 38.30687830687831,146.66666666666669 37.67195767195768,147.0899470899471 37.03703703703704,147.51322751322752 36.613756613756614,147.93650793650795 35.97883597883598,148.35978835978838 35.55555555555556,148.78306878306879 34.920634920634924,149.20634920634922 34.4973544973545,149.62962962962965 33.86243386243387,150.05291005291005 33.22751322751323,150.47619047619048 32.592592592592595,150.8994708994709 31.95767195767196,151.32275132275134 31.322751322751326,151.53439153439155 30.68783068783069,151.95767195767198 30.052910052910054,152.38095238095238 29.41798941798942,152.5925925925926 28.783068783068785,152.8042328042328 28.14814814814815,153.01587301587304 27.513227513227516,153.22751322751324 26.87830687830688,153.43915343915344 26.243386243386244,153.65079365079367 25.60846560846561,153.86243386243387 24.973544973544975,154.07407407407408 24.338624338624342,154.2857142857143 23.703703703703706,154.4973544973545 23.06878306878307,154.7089947089947 22.433862433862437,154.92063492063494 21.7989417989418,155.13227513227514 21.164021164021165,155.34391534391534 20.740740740740744,155.76719576719577 20.105820105820108,155.76719576719577 16.71957671957672,156.82539682539684" style="fill:none; stroke:#00aa99; stroke-width:1.0"  /><polyline points="16.71957671957672,156.82539682539684 16.084656084656086,153.43915343915344 16.084656084656086,152.8042328042328 15.873015873015873,152.16931216931218 15.873015873015873,151.53439153439155 15.873015873015873,150.8994708994709 15.661375661375663,150.26455026455028 15.449735449735451,149.62962962962965 15.449735449735451,148.99470899470901 15.238095238095239,148.35978835978838 15.238095238095239,147.72486772486775 15.026455026455027,147.0899470899471 15.026455026455027,146.45502645502646 14.814814814814817,145.82010582010582 14.814814814814817,145.1851851851852 14.391534391534393,144.76190476190476 14.17989417989418,144.12698412698413 14.17989417989418,143.4920634920635 13.96825396825397,142.85714285714286 13.756613756613758,142.22222222222223 13.756613756613758,141.5873015873016 13.544973544973546,140.95238095238096 13.333333333333334,140.31746031746033 13.333333333333334,139.6825396825397 13.121693121693122,139.04761904761907 12.910052910052912,138.41269841269843 12.910052910052912,137.7777777777778 12.6984126984127,137.14285714285717 12.486772486772487,136.5079365079365 12.486772486772487,135.87301587301587 12.275132275132275,135.23809523809524 12.063492063492065,134.6031746031746 11.851851851851853,133.96825396825398 11.851851851851853,133.33333333333334 11.851851851851853,132.6984126984127 11.640211640211641,132.06349206349208 11.428571428571429,131.42857142857144 11.216931216931219,130.7936507936508 11.005291005291006,130.15873015873018 10.793650793650794,129.52380952380955 10.582010582010582,128.88888888888889 10.370370370370372,128.25396825396825 10.15873015873016,127.61904761904763 9.947089947089948,126.98412698412699 9.735449735449736,126.34920634920636 9.523809523809524,125.71428571428572 9.312169312169313,125.07936507936509 9.100529100529101,124.44444444444446 8.88888888888889,123.80952380952382 8.677248677248677,123.17460317460318 8.465608465608467,122.53968253968254 8.465608465608467,121.90476190476191 8.253968253968255,121.26984126984128 8.253968253968255,120.63492063492065 8.042328042328043,120.00000000000001 8.042328042328043,119.36507936507937 8.042328042328043,118.73015873015873 8.253968253968255,118.0952380952381 8.253968253968255,117.46031746031747 8.677248677248677,117.03703703703705 8.88888888888889,116.4021164021164 9.312169312169313,115.97883597883599 9.735449735449736,115.55555555555557 10.15873015873016,115.13227513227514 10.793650793650794,114.70899470899472 11.428571428571429,114.49735449735451 12.063492063492065,114.28571428571429 12.6984126984127,114.28571428571429 13.333333333333334,114.07407407407408 13.96825396825397,114.07407407407408 14.603174603174605,114.07407407407408 15.238095238095239,114.07407407407408 15.873015873015873,114.28571428571429 16.50793650793651,114.28571428571429 17.142857142857146,114.49735449735451 17.77777777777778,114.49735449735451 18.412698412698415,114.70899470899472 19.047619047619047,115.13227513227514 19.682539682539684,115.13227513227514 20.31746031746032,115.34391534391536 20.952380952380953,115.34391534391536 21.58730158730159,115.34391534391536 22.222222222222225,115.55555555555557 22.857142857142858,115.76719576719577 23.492063492063494,115.97883597883599 24.12698412698413,116.1904761904762 24.761904761904763,116.1904761904762 25.3968253968254,116.4021164021164 26.031746031746035,116.61375661375662 26.666666666666668,116.61375661375662 27.301587301587304,116.61375661375662 27.93650793650794,116.61375661375662 28.571428571428573,116.61375661375662 29.20634920634921,116.61375661375662 29.841269841269842,116.4021164021164 30.476190476190478,116.4021164021164 31.111111111111114,116.1904761904762 31.746031746031747,115.97883597883599 32.38095238095239,115.76719576719577 32.804232804232804,115.34391534391536 33.22751322751323,114.92063492063492 33.86243386243387,114.49735449735451 34.28571428571429,114.07407407407408 34.70899470899471,113.43915343915344 35.13227513227513,112.80423280423281 35.34391534391535,112.16931216931218 35.55555555555556,111.53439153439155 35.97883597883598,110.89947089947091 36.19047619047619,110.26455026455027 36.19047619047619,109.62962962962963 36.402116402116405,108.994708994709 36.613756613756614,108.35978835978837 36.82539682539683,107.72486772486774 36.82539682539683,107.0899470899471 37.03703703703704,106.45502645502647 37.248677248677254,105.82010582010582 37.46031746031746,105.18518518518519 37.67195767195768,104.55026455026456 37.67195767195768,103.91534391534393 37.883597883597886,103.28042328042329 37.883597883597886,102.64550264550266 38.095238095238095,102.01058201058201 38.095238095238095,101.37566137566138 38.095238095238095,100.74074074074075 38.095238095238095,100.10582010582011 38.095238095238095,99.47089947089948 38.095238095238095,98.83597883597885 38.095238095238095,98.2010582010582 38.095238095238095,97.56613756613757 38.095238095238095,96.93121693121694 38.095238095238095,96.2962962962963 38.095238095238095,95.66137566137567 38.095238095238095,95.02645502645504 37.883597883597886,94.39153439153439 37.883597883597886,93.75661375661376 37.883597883597886,93.12169312169313 37.67195767195768,92.4867724867725 37.67195767195768,91.85185185185186 37.67195767195768,91.21693121693123 37.46031746031746,90.58201058201058 37.46031746031746,89.94708994708995 37.248677248677254,89.31216931216932 37.248677248677254,88.67724867724868 37.03703703703704,88.04232804232805 36.82539682539683,87.40740740740742 36.613756613756614,86.77248677248677 36.402116402116405,86.13756613756614 36.19047619047619,85.5026455026455 35.97883597883598,84.86772486772487 35.76719576719577,84.23280423280424 35.34391534391535,83.59788359788361 34.920634920634924,82.96296296296298 34.4973544973545,82.32804232804233 34.074074074074076,81.6931216931217 33.65079365079365,81.26984126984128 33.22751322751323,80.84656084656085 32.804232804232804,80.42328042328043 32.16931216931217,80.0 31.53439153439154,79.57671957671958 30.899470899470902,79.36507936507937 30.476190476190478,78.94179894179895 29.841269841269842,78.73015873015873 29.20634920634921,78.51851851851852 28.571428571428573,78.30687830687832 27.93650793650794,78.30687830687832 27.301587301587304,78.0952380952381 26.666666666666668,78.0952380952381 26.031746031746035,78.0952380952381 25.3968253968254,78.0952380952381 24.761904761904763,78.30687830687832 24.12698412698413,78.30687830687832 23.492063492063494,78.30687830687832 22.857142857142858,78.30687830687832 22.222222222222225,78.51851851851852 21.58730158730159,78.73015873015873 20.952380952380953,78.94179894179895 20.529100529100532,79.36507936507937 19.894179894179896,79.7883597883598 19.25925925925926,80.21164021164022 18.624338624338627,80.42328042328043 18.201058201058203,80.84656084656085 17.77777777777778,81.26984126984128 17.142857142857146,81.6931216931217 16.71957671957672,82.11640211640213 16.084656084656086,82.53968253968254 15.661375661375663,82.96296296296298 15.026455026455027,83.3862433862434 14.603174603174605,83.80952380952381 13.96825396825397,84.23280423280424 13.544973544973546,84.65608465608466 13.121693121693122,85.07936507936509 12.486772486772487,85.5026455026455 12.063492063492065,85.92592592592594 11.428571428571429,86.34920634920636 11.005291005291006,86.77248677248677 10.370370370370372,87.1957671957672 9.735449735449736,87.61904761904762 9.100529100529101,87.83068783068784 8.465608465608467,87.83068783068784 7.830687830687832,88.04232804232805 7.195767195767196,88.25396825396827 6.560846560846561,88.25396825396827 5.9259259259259265,88.25396825396827 5.291005291005291,88.04232804232805 4.656084656084657,88.04232804232805 4.021164021164021,87.83068783068784 3.3862433862433865,87.40740740740742 2.7513227513227516,86.98412698412699 2.3280423280423284,86.34920634920636 2.1164021164021167,85.71428571428572 1.9047619047619049,85.07936507936509 1.6931216931216932,84.44444444444446 1.4814814814814816,83.80952380952381 1.26984126984127,83.17460317460318 1.26984126984127,82.53968253968254 1.0582010582010584,81.90476190476191 1.0582010582010584,81.26984126984128 0.8465608465608466,80.63492063492065 0.8465608465608466,80.0 0.8465608465608466,79.36507936507937 0.634920634920635,78.73015873015873 0.634920634920635,78.0952380952381 0.634920634920635,77.46031746031747 0.634920634920635,76.82539682539684 0.4232804232804233,76.19047619047619 0.4232804232804233,75.55555555555556 0.21164021164021166,74.92063492063492 0.21164021164021166,74.28571428571429 0.4232804232804233,73.65079365079366 0.4232804232804233,73.01587301587303 0.4232804232804233,72.38095238095238 0.4232804232804233,71.74603174603175 0.4232804232804233,71.11111111111111 0.4232804232804233,70.47619047619048 0.4232804232804233,69.84126984126985 0.4232804232804233,69.20634920634922 0.4232804232804233,68.57142857142858 0.634920634920635,67.93650793650794 0.634920634920635,67.3015873015873 0.634920634920635,66.66666666666667 0.634920634920635,66.03174603174604 0.634920634920635,65.3968253968254 0.8465608465608466,64.76190476190477 0.8465608465608466,64.12698412698413 0.8465608465608466,63.492063492063494 0.8465608465608466,62.85714285714286 0.8465608465608466,62.22222222222223 0.8465608465608466,61.58730158730159 0.8465608465608466,60.952380952380956 0.8465608465608466,60.31746031746032 0.8465608465608466,59.682539682539684 0.8465608465608466,59.04761904761905 1.0582010582010584,58.41269841269842 1.0582010582010584,57.777777777777786 1.0582010582010584,57.142857142857146 1.0582010582010584,56.50793650793651 1.0582010582010584,55.87301587301588 1.26984126984127,55.23809523809524 1.0582010582010584,54.60317460317461 1.0582010582010584,53.968253968253975 1.26984126984127,53.333333333333336 1.26984126984127,52.6984126984127 1.26984126984127,52.06349206349207 1.26984126984127,51.42857142857143 1.26984126984127,50.7936507936508 1.26984126984127,50.158730158730165 1.4814814814814816,49.523809523809526 1.4814814814814816,48.88888888888889 1.6931216931216932,44.65608465608466" style="fill:none; stroke:#3300bb; stroke-width:1.0"  /><circle cx="1.6931216931216932" cy="44.65608465608466" r="2.0" style="fill:none; stroke:#000000aa; stroke-width:0.25" /><circle cx="135.44973544973547" cy="-0.4232804232804233" r="2.0" style="fill:none; stroke:#000000aa; stroke-width:0.25" /><circle cx="152.16931216931218" cy="149.84126984126985" r="2.0" style="fill:none; stroke:#000000aa; stroke-width:0.25" /><circle cx="16.71957671957672" cy="156.82539682539684" r="2.0" style="fill:none; stroke:#000000aa; stroke-width:0.25" /><circle cx="1.4814814814814816" cy="45.50264550264551" r="2.0" style="fill:none; stroke:#ff3366aa; stroke-width:0.25" /><circle cx="135.44973544973547" cy="0.21164021164021166" r="2.0" style="fill:none; stroke:#ff3366aa; stroke-width:0.25" /><circle cx="151.95767195767198" cy="149.62962962962965" r="2.0" style="fill:none; stroke:#ff3366aa; stroke-width:0.25" /><circle cx="16.931216931216934" cy="156.4021164021164" r="2.0" style="fill:none; stroke:#ff3366aa; stroke-width:0.25" /><polyline points="12.063492063492065,41.26984126984127 11.428571428571429,41.48148148148149 10.793650793650794,41.48148148148149 10.15873015873016,41.904761904761905 9.523809523809524,42.11640211640212 8.88888888888889,42.32804232804233 8.253968253968255,42.539682539682545 7.6190476190476195,42.539682539682545 6.984126984126985,42.96296296296297 6.34920634920635,43.17460317460318 5.714285714285714,43.386243386243386 5.07936507936508,43.5978835978836 4.444444444444445,43.80952380952381" style="fill:none; stroke:#001100; stroke-width:1.0" /><polyline points="1.0582010582010584,57.142857142857146 1.0582010582010584,56.50793650793651 1.0582010582010584,55.87301587301588 1.26984126984127,55.23809523809524 1.0582010582010584,54.60317460317461 1.0582010582010584,53.968253968253975 1.26984126984127,53.333333333333336 1.26984126984127,52.6984126984127 1.26984126984127,52.06349206349207 1.26984126984127,51.42857142857143 1.26984126984127,50.7936507936508 1.26984126984127,50.158730158730165 1.4814814814814816,49.523809523809526 1.4814814814814816,48.88888888888889" style="fill:none; stroke:#000011; stroke-width:1.0" /><polyline points="135.02645502645504,11.640211640211641 135.02645502645504,11.005291005291006 135.02645502645504,10.370370370370372 135.23809523809524,9.735449735449736 135.23809523809524,9.100529100529101 135.23809523809524,8.465608465608467 135.23809523809524,7.830687830687832 135.23809523809524,7.195767195767196 135.23809523809524,6.560846560846561 135.23809523809524,5.9259259259259265 135.44973544973547,5.291005291005291 135.23809523809524,4.656084656084657 135.23809523809524,4.021164021164021 135.23809523809524,3.3862433862433865" style="fill:none; stroke:#001100; stroke-width:1.0" /><polyline points="124.02116402116403,4.021164021164021 124.65608465608466,4.021164021164021 125.2910052910053,3.8095238095238098 125.71428571428572,3.3862433862433865 126.34920634920636,2.9629629629629632 126.98412698412699,2.7513227513227516 127.61904761904763,2.53968253968254 128.25396825396825,2.3280423280423284 128.88888888888889,1.9047619047619049 129.52380952380955,1.6931216931216932 130.15873015873018,1.4814814814814816 130.7936507936508,1.4814814814814816 131.42857142857144,1.0582010582010584 132.06349206349208,0.8465608465608466" style="fill:none; stroke:#000011; stroke-width:1.0" /><polyline points="140.52910052910053,151.32275132275134 141.16402116402116,151.32275132275134 141.7989417989418,151.11111111111111 142.43386243386246,151.11111111111111 143.0687830687831,150.8994708994709 143.70370370370372,150.8994708994709 144.33862433862436,150.8994708994709 144.973544973545,150.6878306878307 145.60846560846562,150.6878306878307 146.24338624338625,150.47619047619048 146.8783068783069,150.47619047619048 147.51322751322752,150.26455026455028 148.14814814814815,150.26455026455028 148.78306878306879,150.26455026455028" style="fill:none; stroke:#001100; stroke-width:1.0" /><polyline points="150.05291005291005,138.2010582010582 150.05291005291005,138.83597883597884 150.26455026455028,139.47089947089947 150.47619047619048,140.10582010582013 150.47619047619048,140.74074074074076 150.6878306878307,141.3756613756614 150.6878306878307,142.01058201058203 150.8994708994709,142.64550264550266 150.8994708994709,143.2804232804233 150.8994708994709,143.91534391534393 151.11111111111111,144.55026455026456 151.32275132275134,145.1851851851852 151.53439153439155,145.82010582010582 151.53439153439155,146.45502645502646" style="fill:none; stroke:#000011; stroke-width:1.0" /><polyline points="14.391534391534393,144.76190476190476 14.814814814814817,145.1851851851852 14.814814814814817,145.82010582010582 15.026455026455027,146.45502645502646 15.026455026455027,147.0899470899471 15.238095238095239,147.72486772486775 15.238095238095239,148.35978835978838 15.449735449735451,148.99470899470901 15.449735449735451,149.62962962962965 15.661375661375663,150.26455026455028 15.873015873015873,150.8994708994709 15.873015873015873,151.53439153439155 15.873015873015873,152.16931216931218 16.084656084656086,152.8042328042328 16.084656084656086,153.43915343915344" style="fill:none; stroke:#001100; stroke-width:1.0" /><polyline points="28.14814814814815,153.01587301587304 27.513227513227516,153.22751322751324 26.87830687830688,153.43915343915344 26.243386243386244,153.65079365079367 25.60846560846561,153.86243386243387 24.973544973544975,154.07407407407408 24.338624338624342,154.2857142857143 23.703703703703706,154.4973544973545 23.06878306878307,154.7089947089947 22.433862433862437,154.92063492063494 21.7989417989418,155.13227513227514 21.164021164021165,155.34391534391534 20.740740740740744,155.76719576719577 20.105820105820108,155.76719576719577" style="fill:none; stroke:#000011; stroke-width:1.0" /><polyline points="4.444444444444445,43.80952380952381 -15.661375661375663,50.58201058201058" style="fill:none; stroke:#ffaa00; stroke-width:0.4" /><polyline points="1.4814814814814816,48.88888888888889 2.53968253968254,27.724867724867728" style="fill:none; stroke:#aaff00; stroke-width:0.4" /><polyline points="135.23809523809524,3.3862433862433865 135.87301587301587,-17.77777777777778" style="fill:none; stroke:#ffaa00; stroke-width:0.4" /><polyline points="132.06349206349208,0.8465608465608466 151.74603174603175,-6.984126984126985" style="fill:none; stroke:#aaff00; stroke-width:0.4" /><polyline points="148.78306878306879,150.26455026455028 169.73544973544975,147.51322751322752" style="fill:none; stroke:#ffaa00; stroke-width:0.4" /><polyline points="151.53439153439155,146.45502645502646 155.34391534391534,167.19576719576722" style="fill:none; stroke:#aaff00; stroke-width:0.4" /><polyline points="16.084656084656086,153.43915343915344 20.105820105820108,174.1798941798942" style="fill:none; stroke:#ffaa00; stroke-width:0.4" /><polyline points="20.105820105820108,155.76719576719577 0.0,162.53968253968256" style="fill:none; stroke:#aaff00; stroke-width:0.4" /><circle cx="86.13756613756614" cy="82.96296296296298" r="1.0" style="fill:#444444; stroke-width:0" /><circle cx="100.52910052910053" cy="83.80952380952381" r="10.582010582010582" style="fill:#ff770022; stroke-width:0" /><circle cx="100.52910052910053" cy="83.80952380952381" r="1.0" style="fill:#ff7700; stroke-width:0" /></svg>