<?xml version="1.0" encoding="UTF-8" standalone="no"?><svg width="638.7301587301588" height="665.3968253968254" viewBox="-10 -10 232.91005291005294 241.79894179894183" xmlns="http://www.w3.org/2000/svg" xmlns:xlink="http://www.w3.org/1999/xlink"><polyline points="125.07936507936509,-0.634920634920635 128.04232804232805,2.7513227513227516 128.46560846560848,3.174603174603175 128.88888888888889,3.8095238095238098 129.31216931216932,4.2328042328042335 129.73544973544975,4.656084656084657 130.15873015873018,5.07936507936508 130.58201058201058,5.714285714285714 131.005291005291,6.137566137566138 131.42857142857144,6.560846560846561 131.85185185185185,6.984126984126985 132.27513227513228,7.407407407407408 132.6984126984127,7.830687830687832 133.12169312169314,8.465608465608467 133.54497354497354,8.88888888888889 133.96825396825398,9.312169312169313 134.3915343915344,9.947089947089948 134.81481481481484,10.370370370370372 135.23809523809524,10.793650793650794 135.66137566137567,11.216931216931219 136.0846560846561,11.640211640211641 136.5079365079365,12.275132275132275 136.93121693121694,12.6984126984127 137.35449735449737,13.333333333333334 137.7777777777778,13.756613756613758 138.2010582010582,14.17989417989418 138.62433862433863,14.603174603174605 139.04761904761907,15.238095238095239 139.47089947089947,15.661375661375663 139.8941798941799,16.084656084656086 140.31746031746033,16.71957671957672 140.74074074074076,17.354497354497354 141.16402116402116,17.77777777777778 141.5873015873016,18.201058201058203 142.01058201058203,18.83597883597884 142.43386243386246,19.25925925925926 142.85714285714286,19.894179894179896 143.2804232804233,20.31746031746032 143.70370370370372,20.952380952380953 144.12698412698413,21.375661375661377 144.55026455026456,22.010582010582013 144.973544973545,22.433862433862437 145.39682539682542,23.06878306878307 145.82010582010582,23.492063492063494 146.24338624338625,24.12698412698413 146.66666666666669,24.761904761904763 147.0899470899471,25.185185185185187 147.51322751322752,25.820105820105823 147.93650793650795,26.243386243386244 148.35978835978838,26.666666666666668 148.78306878306879,27.301587301587304 149.20634920634922,27.724867724867728 149.62962962962965,28.35978835978836 150.05291005291005,28.783068783068785 150.47619047619048,29.20634920634921 150.8994708994709,29.629629629629633 151.32275132275134,30.052910052910054 151.74603174603175,30.68783068783069 152.16931216931218,31.111111111111114 152.5925925925926,31.53439153439154 153.01587301587304,31.95767195767196 153.43915343915344,32.38095238095239 153.86243386243387,32.804232804232804 154.4973544973545,33.22751322751323 155.13227513227514,33.65079365079365 155.76719576719577,34.074074074074076 156.1904761904762,34.4973544973545 156.82539682539684,34.70899470899471 157.24867724867727,35.13227513227513 157.8835978835979,35.34391534391535 158.51851851851853,35.76719576719577 159.15343915343917,35.97883597883598 159.7883597883598,35.97883597883598 160.42328042328043,35.97883597883598 160.84656084656086,36.402116402116405 161.4814814814815,36.19047619047619 162.11640211640213,36.19047619047619 162.75132275132276,35.97883597883598 163.3862433862434,35.76719576719577 164.02116402116403,35.34391534391535 164.65608465608466,34.920634920634924 165.2910052910053,34.4973544973545 165.71428571428572,34.074074074074076 166.13756613756615,33.65079365079365 166.56084656084658,33.01587301587302 166.984126984127,32.38095238095239 167.19576719576722,31.746031746031747 167.61904761904762,31.111111111111114 167.83068783068785,30.476190476190478 168.04232804232805,29.841269841269842 168.04232804232805,29.20634920634921 168.04232804232805,28.571428571428573 168.04232804232805,27.93650793650794 168.25396825396825,27.301587301587304 168.25396825396825,26.666666666666668 168.46560846560848,26.031746031746035 168.46560846560848,25.3968253968254 168.46560846560848,24.761904761904763 168.46560846560848,24.12698412698413 168.46560846560848,23.492063492063494 168.46560846560848,22.857142857142858 168.46560846560848,22.222222222222225 168.46560846560848,21.58730158730159 168.46560846560848,20.952380952380953 168.46560846560848,20.31746031746032 168.46560846560848,19.682539682539684 168.46560846560848,19.047619047619047 168.46560846560848,18.412698412698415 168.46560846560848,17.77777777777778 168.46560846560848,17.142857142857146 168.67724867724868,16.50793650793651 168.67724867724868,15.873015873015873 169.10052910052912,15.238095238095239 169.31216931216932,14.603174603174605 169.52380952380955,13.96825396825397 169.94708994708995,13.544973544973546 170.37037037037038,12.910052910052912 170.7936507936508,12.486772486772487 171.21693121693124,12.063492063492065 171.64021164021165,11.640211640211641 172.06349206349208,11.216931216931219 172.6984126984127,11.005291005291006 173.12169312169314,10.582010582010582 173.75661375661377,10.15873015873016 174.3915343915344,9.947089947089948 175.02645502645504,9.735449735449736 175.66137566137567,9.735449735449736 176.2962962962963,9.735449735449736 176.93121693121694,9.735449735449736 177.56613756613757,9.735449735449736 178.2010582010582,9.735449735449736 178.83597883597884,9.947089947089948 179.4708994708995,10.15873015873016 180.10582010582013,10.370370370370372 180.74074074074076,10.582010582010582 181.3756613756614,10.582010582010582 182.01058201058203,10.793650793650794 182.64550264550266,11.005291005291006 183.2804232804233,11.005291005291006 183.91534391534393,11.428571428571429 184.55026455026456,11.640211640211641 185.1851851851852,11.851851851851853 185.82010582010582,12.275132275132275 186.45502645502646,12.486772486772487 187.08994708994712,12.910052910052912 187.72486772486775,13.333333333333334 188.35978835978838,13.756613756613758 188.99470899470901,14.17989417989418 189.62962962962965,14.603174603174605 190.05291005291008,15.026455026455027 190.6878306878307,15.449735449735451 191.11111111111111,15.873015873015873 191.53439153439155,16.296296296296298 191.95767195767198,16.71957671957672 192.3809523809524,17.142857142857146 192.8042328042328,17.566137566137566 193.22751322751324,18.201058201058203 193.65079365079367,18.83597883597884 194.07407407407408,19.25925925925926 194.4973544973545,19.682539682539684 194.92063492063494,20.31746031746032 195.34391534391537,20.952380952380953 195.76719576719577,21.58730158730159 195.978835978836,22.222222222222225 196.4021164021164,22.857142857142858 196.61375661375664,23.492063492063494 197.03703703703704,24.12698412698413 197.24867724867727,24.761904761904763 197.24867724867727,25.3968253968254 197.46031746031747,26.031746031746035 197.6719576719577,26.666666666666668 197.8835978835979,27.301587301587304 198.0952380952381,27.93650793650794 198.0952380952381,28.571428571428573 198.30687830687833,29.20634920634921 198.30687830687833,29.841269841269842 198.30687830687833,30.476190476190478 198.0952380952381,31.111111111111114 197.6719576719577,31.746031746031747 197.46031746031747,32.38095238095239 197.03703703703704,32.804232804232804 196.61375661375664,33.43915343915344 196.1904761904762,33.86243386243387 195.76719576719577,34.28571428571429 195.34391534391537,34.70899470899471 194.70899470899474,35.13227513227513 194.2857142857143,35.55555555555556 193.65079365079367,35.97883597883598 193.01587301587304,36.402116402116405 192.3809523809524,36.82539682539683 191.74603174603175,37.248677248677254 191.11111111111111,37.46031746031746 190.47619047619048,37.883597883597886 189.84126984126985,38.095238095238095 189.20634920634922,38.30687830687831 188.57142857142858,38.51851851851852 187.93650793650795,38.94179894179894 187.30158730158732,39.15343915343916 186.66666666666669,39.36507936507937 186.03174603174605,39.36507936507937 185.39682539682542,39.57671957671958 184.7619047619048,39.78835978835979 184.12698412698415,40.211640211640216 183.4920634920635,40.423280423280424 183.0687830687831,40.84656084656085 182.43386243386246,41.26984126984127 181.79894179894183,41.6931216931217 181.3756613756614,42.11640211640212 180.95238095238096,42.75132275132275 180.52910052910053,43.17460317460318 180.10582010582013,43.80952380952381 179.8941798941799,44.44444444444445 179.6825396825397,45.07936507936508 179.6825396825397,45.714285714285715 179.4708994708995,46.349206349206355 179.4708994708995,46.98412698412699 179.4708994708995,47.61904761904762 179.4708994708995,48.25396825396826 179.25925925925927,48.88888888888889 179.4708994708995,49.523809523809526 179.4708994708995,50.158730158730165 179.6825396825397,50.7936507936508 179.6825396825397,51.42857142857143 179.8941798941799,52.06349206349207 179.8941798941799,52.6984126984127 180.10582010582013,53.333333333333336 180.31746031746033,53.968253968253975 180.31746031746033,54.60317460317461 180.52910052910053,55.23809523809524 180.74074074074076,55.87301587301588 180.95238095238096,56.50793650793651 181.3756613756614,57.142857142857146 181.3756613756614,57.777777777777786 181.79894179894183,58.41269841269842 182.01058201058203,59.04761904761905 182.43386243386246,59.682539682539684 182.64550264550266,60.31746031746032 183.0687830687831,60.952380952380956 183.4920634920635,61.37566137566138 183.70370370370372,62.01058201058201 184.12698412698415,62.43386243386244 184.55026455026456,63.06878306878308 184.973544973545,63.70370370370371 185.60846560846562,64.12698412698413 186.03174603174605,64.76190476190477 186.45502645502646,65.18518518518519 186.8783068783069,65.60846560846561 187.30158730158732,66.03174603174604 187.72486772486775,66.66666666666667 188.35978835978838,67.08994708994709 188.78306878306879,67.51322751322752 189.20634920634922,67.93650793650794 189.62962962962965,68.35978835978837 190.26455026455028,68.78306878306879 190.8994708994709,69.20634920634922 191.53439153439155,69.62962962962963 191.95767195767198,70.05291005291006 192.5925925925926,70.47619047619048 193.22751322751324,70.8994708994709 193.86243386243387,71.32275132275133 194.4973544973545,71.74603174603175 195.13227513227514,72.16931216931218 195.55555555555557,72.5925925925926 196.1904761904762,72.80423280423281 196.61375661375664,73.22751322751323 197.24867724867727,73.65079365079366 197.8835978835979,74.07407407407408 198.51851851851853,74.49735449735451 199.15343915343917,74.92063492063492 199.5767195767196,75.34391534391536 200.21164021164023,75.76719576719577 200.84656084656086,76.19047619047619 201.2698412698413,76.61375661375662 201.90476190476193,77.03703703703704 202.53968253968256,77.46031746031747 203.1746031746032,77.88359788359789 203.59788359788362,78.30687830687832 204.23280423280426,78.73015873015873 204.65608465608466,79.15343915343917 205.29100529100532,79.57671957671958 205.92592592592595,80.0 206.56084656084658,80.42328042328043 207.19576719576722,80.84656084656085 207.61904761904765,81.26984126984128 208.25396825396828,81.6931216931217 208.8888888888889,82.11640211640213 209.52380952380955,82.53968253968254 210.15873015873018,82.96296296296298 212.91005291005294,84.86772486772487" style="fill:none; stroke:#cc0000; stroke-width:1.0"  /><polyline points="212.91005291005294,84.86772486772487 210.37037037037038,87.1957671957672 209.94708994708995,87.61904761904762 209.52380952380955,88.04232804232805 208.8888888888889,88.46560846560847 208.46560846560848,88.8888888888889 208.04232804232805,89.31216931216932 207.61904761904765,89.73544973544975 206.984126984127,90.15873015873017 206.34920634920636,90.58201058201058 205.92592592592595,91.00529100529101 205.29100529100532,91.42857142857143 204.8677248677249,91.85185185185186 204.44444444444446,92.27513227513228 204.02116402116403,92.69841269841271 203.59788359788362,93.12169312169313 202.962962962963,93.54497354497356 202.53968253968256,93.96825396825398 202.11640211640213,94.39153439153439 201.6931216931217,94.81481481481482 201.2698412698413,95.23809523809524 200.84656084656086,95.66137566137567 200.21164021164023,96.08465608465609 199.7883597883598,96.50793650793652 199.36507936507937,96.93121693121694 198.94179894179896,97.35449735449737 198.51851851851853,97.77777777777779 198.0952380952381,98.2010582010582 197.6719576719577,98.83597883597885 197.24867724867727,99.25925925925927 196.82539682539684,99.68253968253968 196.4021164021164,100.10582010582011 195.978835978836,100.52910052910053 195.55555555555557,100.95238095238096 195.13227513227514,101.37566137566138 194.4973544973545,101.79894179894181 194.07407407407408,102.22222222222223 193.65079365079367,102.64550264550266 193.22751322751324,103.06878306878308 192.8042328042328,103.4920634920635 192.3809523809524,103.91534391534393 191.95767195767198,104.33862433862434 191.53439153439155,104.76190476190477 191.11111111111111,105.18518518518519 190.6878306878307,105.60846560846562 190.26455026455028,106.03174603174604 189.84126984126985,106.45502645502647 189.41798941798945,106.87830687830689 188.99470899470901,107.3015873015873 188.57142857142858,107.72486772486774 188.14814814814815,108.14814814814815 187.72486772486775,108.57142857142858 187.30158730158732,108.994708994709 186.8783068783069,109.41798941798943 186.45502645502646,109.84126984126985 186.03174603174605,110.26455026455027 185.60846560846562,110.6878306878307 185.1851851851852,111.11111111111111 184.7619047619048,111.53439153439155 184.33862433862436,111.95767195767196 183.91534391534393,112.5925925925926 183.4920634920635,113.01587301587303 183.0687830687831,113.65079365079366 182.64550264550266,114.07407407407408 182.22222222222223,114.49735449735451 181.79894179894183,114.92063492063492 181.3756613756614,115.34391534391536 180.95238095238096,115.76719576719577 180.52910052910053,116.1904761904762 180.10582010582013,116.61375661375662 179.6825396825397,117.03703703703705 179.25925925925927,117.46031746031747 178.83597883597884,117.88359788359789 178.41269841269843,118.30687830687832 177.989417989418,118.73015873015873 177.56613756613757,119.15343915343917 177.14285714285717,119.57671957671958 176.71957671957674,120.00000000000001 176.2962962962963,120.63492063492065 175.87301587301587,121.05820105820106 175.44973544973547,121.6931216931217 175.02645502645504,122.11640211640213 174.6031746031746,122.53968253968254 174.1798941798942,122.96296296296298 173.75661375661377,123.3862433862434 173.33333333333334,124.02116402116403 172.9100529100529,124.44444444444446 172.4867724867725,124.86772486772487 172.06349206349208,125.2910052910053 171.64021164021165,125.92592592592594 171.21693121693124,126.34920634920636 170.7936507936508,126.77248677248679 170.37037037037038,127.40740740740742 169.94708994708995,127.83068783068784 169.52380952380955,128.25396825396825 169.10052910052912,128.88888888888889 168.67724867724868,129.31216931216932 168.25396825396825,129.73544973544975 167.83068783068785,130.37037037037038 167.40740740740742,130.7936507936508 166.984126984127,131.21693121693121 166.56084656084658,131.85185185185185 166.13756613756615,132.4867724867725 165.71428571428572,132.9100529100529 165.2910052910053,133.33333333333334 165.0793650793651,133.96825396825398 164.65608465608466,134.6031746031746 164.23280423280426,135.02645502645504 163.80952380952382,135.66137566137567 163.59788359788362,136.2962962962963 163.1746031746032,136.71957671957674 162.75132275132276,137.35449735449737 162.53968253968256,137.989417989418 162.11640211640213,138.41269841269843 161.90476190476193,139.04761904761907 161.6931216931217,139.6825396825397 161.2698412698413,140.31746031746033 161.05820105820106,140.95238095238096 160.84656084656086,141.5873015873016 160.63492063492066,142.22222222222223 160.42328042328043,142.85714285714286 160.42328042328043,143.4920634920635 160.21164021164023,144.12698412698413 160.21164021164023,144.76190476190476 160.0,145.39682539682542 160.0,146.03174603174605 159.7883597883598,146.66666666666669 159.7883597883598,147.30158730158732 159.7883597883598,147.93650793650795 159.7883597883598,148.57142857142858 159.7883597883598,149.20634920634922 160.0,149.84126984126985 160.21164021164023,150.47619047619048 160.42328042328043,151.11111111111111 160.63492063492066,151.74603174603175 161.05820105820106,152.38095238095238 161.4814814814815,153.01587301587304 161.90476190476193,153.65079365079367 162.32804232804233,154.07407407407408 162.75132275132276,154.4973544973545 163.1746031746032,154.92063492063494 163.59788359788362,155.34391534391534 164.02116402116403,155.76719576719577 164.65608465608466,156.1904761904762 165.0793650793651,156.61375661375664 165.71428571428572,157.03703703703704 166.34920634920636,157.46031746031747 166.984126984127,157.67195767195767 167.61904761904762,158.0952380952381 168.25396825396825,158.51851851851853 168.8888888888889,158.73015873015873 169.52380952380955,158.94179894179896 170.15873015873018,159.36507936507937 170.7936507936508,159.5767195767196 171.42857142857144,159.7883597883598 172.06349206349208,159.7883597883598 172.6984126984127,160.0 173.33333333333334,160.21164021164023 173.96825396825398,160.42328042328043 174.6031746031746,160.63492063492066 175.23809523809524,160.63492063492066 175.87301587301587,160.84656084656086 176.50793650793653,161.05820105820106 177.14285714285717,161.2698412698413 177.7777777777778,161.4814814814815 178.41269841269843,161.6931216931217 178.83597883597884,162.11640211640213 179.4708994708995,162.32804232804233 179.8941798941799,162.75132275132276 180.52910052910053,163.1746031746032 180.95238095238096,163.59788359788362 181.5873015873016,164.02116402116403 182.01058201058203,164.44444444444446 182.43386243386246,164.8677248677249 182.85714285714286,165.50264550264552 183.2804232804233,165.92592592592595 183.70370370370372,166.34920634920636 184.12698412698415,166.7724867724868 184.33862433862436,167.40740740740742 184.7619047619048,167.83068783068785 184.973544973545,168.46560846560848 185.39682539682542,168.8888888888889 185.82010582010582,169.52380952380955 186.03174603174605,170.15873015873018 186.24338624338625,170.7936507936508 186.45502645502646,171.42857142857144 186.66666666666669,172.06349206349208 186.8783068783069,172.6984126984127 187.08994708994712,173.33333333333334 187.30158730158732,173.96825396825398 187.30158730158732,174.6031746031746 187.51322751322752,175.23809523809524 187.51322751322752,175.87301587301587 187.51322751322752,176.50793650793653 187.51322751322752,177.14285714285717 187.51322751322752,177.7777777777778 187.51322751322752,178.41269841269843 187.30158730158732,179.04761904761907 187.30158730158732,179.6825396825397 187.08994708994712,180.31746031746033 186.8783068783069,180.95238095238096 186.8783068783069,181.5873015873016 186.66666666666669,182.22222222222223 186.24338624338625,182.85714285714286 186.03174603174605,183.4920634920635 185.82010582010582,184.12698412698415 185.39682539682542,184.7619047619048 185.1851851851852,185.39682539682542 184.7619047619048,186.03174603174605 184.33862433862436,186.66666666666669 183.91534391534393,187.30158730158732 183.4920634920635,187.93650793650795 183.2804232804233,188.57142857142858 182.85714285714286,188.99470899470901 182.43386243386246,189.41798941798945 182.01058201058203,189.84126984126985 181.5873015873016,190.26455026455028 181.16402116402116,190.6878306878307 180.74074074074076,191.11111111111111 180.10582010582013,191.53439153439155 179.4708994708995,191.95767195767198 178.83597883597884,192.3809523809524 178.2010582010582,192.5925925925926 177.56613756613757,192.8042328042328 176.93121693121694,193.01587301587304 176.2962962962963,193.22751322751324 175.66137566137567,193.43915343915344 175.02645502645504,193.65079365079367 174.3915343915344,193.86243386243387 173.75661375661377,193.86243386243387 173.12169312169314,193.86243386243387 172.4867724867725,194.07407407407408 171.85185185185188,194.07407407407408 171.21693121693124,194.07407407407408 170.58201058201058,194.2857142857143 169.94708994708995,194.2857142857143 169.31216931216932,194.2857142857143 168.67724867724868,194.2857142857143 168.04232804232805,194.2857142857143 167.40740740740742,194.2857142857143 166.7724867724868,194.2857142857143 166.13756613756615,194.2857142857143 165.50264550264552,194.2857142857143 164.8677248677249,194.2857142857143 164.23280423280426,194.2857142857143 163.59788359788362,194.2857142857143 162.96296296296296,194.07407407407408 162.32804232804233,193.86243386243387 161.6931216931217,193.86243386243387 161.05820105820106,193.65079365079367 160.42328042328043,193.43915343915344 159.7883597883598,193.22751322751324 159.15343915343917,193.01587301587304 158.51851851851853,192.8042328042328 158.0952380952381,192.3809523809524 157.46031746031747,192.16931216931218 157.03703703703704,191.74603174603175 156.61375661375664,191.32275132275134 156.1904761904762,190.6878306878307 155.76719576719577,190.05291005291008 155.55555555555557,189.41798941798945 155.13227513227514,188.78306878306879 154.92063492063494,188.14814814814815 154.7089947089947,187.51322751322752 154.4973544973545,186.8783068783069 154.2857142857143,186.24338624338625 153.86243386243387,185.60846560846562 153.65079365079367,184.973544973545 153.43915343915344,184.33862433862436 153.22751322751324,183.70370370370372 153.22751322751324,183.0687830687831 153.01587301587304,182.43386243386246 153.01587301587304,181.79894179894183 152.8042328042328,181.16402116402116 152.5925925925926,180.52910052910053 152.5925925925926,179.8941798941799 152.38095238095238,179.25925925925927 152.38095238095238,178.62433862433863 152.38095238095238,177.989417989418 152.16931216931218,177.35449735449737 152.16931216931218,176.71957671957674 151.95767195767198,176.0846560846561 151.74603174603175,175.44973544973547 151.53439153439155,174.81481481481484 151.53439153439155,174.1798941798942 151.32275132275134,173.54497354497354 151.11111111111111,172.9100529100529 150.8994708994709,172.27513227513228 150.8994708994709,171.64021164021165 150.6878306878307,171.005291005291 150.47619047619048,170.37037037037038 150.26455026455028,169.73544973544975 150.05291005291005,169.10052910052912 149.62962962962965,168.67724867724868 149.41798941798942,168.04232804232805 149.20634920634922,167.40740740740742 148.99470899470901,166.7724867724868 148.57142857142858,166.13756613756615 148.14814814814815,165.71428571428572 147.72486772486775,165.0793650793651 147.30158730158732,164.65608465608466 146.8783068783069,164.23280423280426 146.24338624338625,163.80952380952382 145.60846560846562,163.3862433862434 144.973544973545,163.1746031746032 144.33862433862436,162.96296296296296 143.70370370370372,162.53968253968256 143.0687830687831,162.53968253968256 142.43386243386246,162.53968253968256 141.7989417989418,162.53968253968256 141.16402116402116,162.53968253968256 140.52910052910053,162.53968253968256 139.8941798941799,162.75132275132276 139.25925925925927,162.75132275132276 138.62433862433863,162.96296296296296 137.989417989418,162.96296296296296 137.35449735449737,163.1746031746032 136.71957671957674,163.3862433862434 136.0846560846561,163.59788359788362 135.44973544973547,163.80952380952382 134.81481481481484,164.23280423280426 134.17989417989418,164.44444444444446 133.54497354497354,164.65608465608466 132.9100529100529,165.0793650793651 132.27513227513228,165.2910052910053 131.64021164021165,165.71428571428572 131.005291005291,166.13756613756615 130.37037037037038,166.56084656084658 129.73544973544975,166.984126984127 129.10052910052912,167.40740740740742 128.67724867724868,167.83068783068785 128.25396825396825,168.25396825396825 127.61904761904763,168.67724867724868 127.1957671957672,169.10052910052912 126.77248677248679,169.52380952380955 126.34920634920636,169.94708994708995 125.92592592592594,170.37037037037038 125.5026455026455,170.7936507936508 124.86772486772487,171.21693121693124 124.44444444444446,171.64021164021165 124.02116402116403,172.06349206349208 123.59788359788361,172.4867724867725 123.17460317460318,172.9100529100529 122.75132275132276,173.33333333333334 122.32804232804234,173.75661375661377 121.6931216931217,174.1798941798942 121.26984126984128,174.6031746031746 120.84656084656086,175.02645502645504 120.42328042328043,175.44973544973547 120.00000000000001,175.87301587301587 119.57671957671958,176.2962962962963 119.15343915343917,176.71957671957674 118.51851851851853,177.14285714285717 118.0952380952381,177.56613756613757 117.67195767195768,177.989417989418 117.24867724867725,178.41269841269843 116.82539682539684,178.83597883597884 116.4021164021164,179.25925925925927 115.97883597883599,179.6825396825397 115.55555555555557,180.10582010582013 114.92063492063492,180.52910052910053 114.49735449735451,180.95238095238096 114.07407407407408,181.3756613756614 113.65079365079366,181.79894179894183 113.43915343915344,182.43386243386246 113.01587301587303,182.85714285714286 112.5925925925926,183.2804232804233 112.16931216931218,183.70370370370372 111.74603174603176,184.12698412698415 111.32275132275133,184.55026455026456 110.89947089947091,184.973544973545 110.47619047619048,185.39682539682542 110.05291005291006,185.82010582010582 109.62962962962963,186.24338624338625 109.20634920634922,186.8783068783069 108.78306878306879,187.30158730158732 108.35978835978837,187.72486772486775 107.93650793650795,188.14814814814815 107.51322751322752,188.57142857142858 107.0899470899471,188.99470899470901 106.66666666666667,189.41798941798945 106.24338624338625,189.84126984126985 105.82010582010582,190.26455026455028 105.3968253968254,190.8994708994709 104.97354497354497,191.32275132275134 104.33862433862434,191.74603174603175 103.91534391534393,192.16931216931218 103.4920634920635,192.5925925925926 103.06878306878308,193.22751322751324 102.64550264550266,193.65079365079367 102.22222222222223,194.07407407407408 101.79894179894181,194.4973544973545 101.37566137566138,194.92063492063494 100.95238095238096,195.34391534391537 100.52910052910053,195.76719576719577 100.10582010582011,196.4021164021164 99.68253968253968,196.82539682539684 99.25925925925927,197.24867724867727 98.83597883597885,197.6719576719577 98.41269841269842,198.30687830687833 97.989417989418,198.73015873015873 97.56613756613757,199.15343915343917 97.14285714285715,199.5767195767196 96.71957671957672,200.00000000000003 96.2962962962963,200.63492063492066 95.87301587301587,201.05820105820106 95.44973544973546,201.6931216931217 95.02645502645504,202.11640211640213 94.60317460317461,202.53968253968256 94.17989417989419,203.1746031746032 93.75661375661376,203.59788359788362 93.54497354497356,204.23280423280426 93.12169312169313,204.65608465608466 92.69841269841271,205.0793650793651 92.27513227513228,205.50264550264552 91.85185185185186,206.13756613756615 91.42857142857143,206.56084656084658 91.00529100529101,206.984126984127 90.58201058201058,207.61904761904765 90.15873015873017,208.04232804232805 89.73544973544975,208.46560846560848 89.31216931216932,209.10052910052912 88.8888888888889,209.52380952380955 88.46560846560847,210.15873015873018 88.04232804232805,210.5820105820106 87.61904761904762,211.005291005291 87.1957671957672,211.42857142857144 86.77248677248677,211.85185185185188 86.34920634920636,212.4867724867725 85.92592592592594,212.91005291005294 85.5026455026455,213.54497354497357 85.07936507936509,213.96825396825398 84.65608465608466,214.6031746031746 84.23280423280424,215.02645502645504 83.80952380952381,215.66137566137567 83.3862433862434,216.0846560846561 82.96296296296298,216.71957671957674 82.53968253968254,217.35449735449737 82.11640211640213,217.989417989418 81.6931216931217,218.41269841269843 81.26984126984128,218.83597883597886 80.84656084656085,219.25925925925927 78.51851851851852,222.01058201058203" style="fill:none; stroke:#999900; stroke-width:1.0"  /><polyline points="78.51851851851852,222.01058201058203 76.19047619047619,218.83597883597886 75.76719576719577,218.41269841269843 75.34391534391536,217.7777777777778 74.92063492063492,217.35449735449737 74.49735449735451,216.71957671957674 74.07407407407408,216.0846560846561 73.65079365079366,215.66137566137567 73.22751322751323,215.02645502645504 72.80423280423281,214.6031746031746 72.38095238095238,213.96825396825398 71.95767195767196,213.33333333333334 71.53439153439155,212.6984126984127 71.11111111111111,212.06349206349208 70.6878306878307,211.42857142857144 70.26455026455027,210.7936507936508 69.84126984126985,210.15873015873018 69.41798941798942,209.52380952380955 68.994708994709,208.8888888888889 68.57142857142858,208.25396825396828 68.14814814814815,207.61904761904765 67.72486772486774,206.984126984127 67.3015873015873,206.34920634920636 66.87830687830689,205.71428571428572 66.66666666666667,205.0793650793651 66.24338624338625,204.65608465608466 66.03174603174604,204.02116402116403 65.3968253968254,203.59788359788362 65.18518518518519,202.962962962963 64.76190476190477,202.32804232804233 64.33862433862434,201.6931216931217 63.91534391534392,201.05820105820106 63.70370370370371,200.42328042328043 63.280423280423285,199.7883597883598 63.06878306878308,199.15343915343917 62.64550264550265,198.51851851851853 62.43386243386244,197.8835978835979 62.01058201058201,197.46031746031747 61.798941798941804,196.82539682539684 61.37566137566138,196.1904761904762 61.16402116402117,195.55555555555557 60.74074074074075,194.92063492063494 60.52910052910053,194.2857142857143 60.31746031746032,193.65079365079367 59.8941798941799,193.22751322751324 59.682539682539684,192.5925925925926 59.470899470899475,191.95767195767198 59.04761904761905,191.32275132275134 58.83597883597884,190.6878306878307 58.62433862433863,190.05291005291008 58.41269841269842,189.41798941798945 57.989417989417994,188.78306878306879 57.777777777777786,188.14814814814815 57.56613756613757,187.51322751322752 57.56613756613757,186.8783068783069 57.142857142857146,186.24338624338625 56.93121693121694,185.60846560846562 56.71957671957672,184.973544973545 56.50793650793651,184.33862433862436 56.50793650793651,183.70370370370372 56.2962962962963,183.0687830687831 56.08465608465609,182.43386243386246 55.87301587301588,181.79894179894183 55.449735449735456,181.16402116402116 55.23809523809524,180.52910052910053 55.02645502645503,179.8941798941799 54.81481481481482,179.25925925925927 54.60317460317461,178.62433862433863 54.179894179894184,177.989417989418 53.968253968253975,177.35449735449737 53.54497354497355,176.71957671957674 53.333333333333336,176.0846560846561 52.91005291005291,175.44973544973547 52.48677248677249,174.81481481481484 52.06349206349207,174.1798941798942 51.640211640211646,173.75661375661377 51.21693121693122,173.33333333333334 50.7936507936508,172.9100529100529 50.370370370370374,172.4867724867725 49.73544973544974,172.06349206349208 49.1005291005291,171.85185185185188 48.46560846560847,171.42857142857144 47.830687830687836,171.21693121693124 47.195767195767196,171.21693121693124 46.560846560846564,171.21693121693124 45.92592592592593,171.005291005291 45.29100529100529,171.005291005291 44.65608465608466,171.21693121693124 44.021164021164026,171.42857142857144 43.386243386243386,171.85185185185188 42.75132275132275,172.06349206349208 42.11640211640212,172.4867724867725 41.48148148148149,172.6984126984127 41.058201058201064,173.12169312169314 40.63492063492064,173.54497354497354 40.211640211640216,173.96825396825398 39.78835978835979,174.3915343915344 39.36507936507937,174.81481481481484 39.15343915343916,175.44973544973547 38.730158730158735,176.0846560846561 38.30687830687831,176.71957671957674 38.095238095238095,177.35449735449737 37.883597883597886,177.989417989418 37.67195767195768,178.62433862433863 37.67195767195768,179.25925925925927 37.46031746031746,179.8941798941799 37.46031746031746,180.52910052910053 37.46031746031746,181.16402116402116 37.248677248677254,181.79894179894183 37.248677248677254,182.43386243386246 37.248677248677254,183.0687830687831 37.03703703703704,183.70370370370372 36.82539682539683,184.33862433862436 36.613756613756614,184.973544973545 36.402116402116405,185.60846560846562 36.19047619047619,186.24338624338625 35.97883597883598,186.8783068783069 35.55555555555556,187.51322751322752 35.13227513227513,188.14814814814815 34.70899470899471,188.78306878306879 34.28571428571429,189.20634920634922 33.86243386243387,189.84126984126985 33.43915343915344,190.26455026455028 33.01587301587302,190.6878306878307 32.592592592592595,191.11111111111111 32.16931216931217,191.53439153439155 31.746031746031747,191.95767195767198 31.111111111111114,192.3809523809524 30.476190476190478,192.8042328042328 29.841269841269842,193.01587301587304 29.20634920634921,193.22751322751324 28.571428571428573,193.43915343915344 27.93650793650794,193.65079365079367 27.301587301587304,193.86243386243387 26.666666666666668,193.86243386243387 26.031746031746035,193.86243386243387 25.3968253968254,193.86243386243387 24.761904761904763,193.86243386243387 24.12698412698413,193.86243386243387 23.492063492063494,193.86243386243387 22.857142857142858,193.65079365079367 22.222222222222225,193.43915343915344 21.58730158730159,193.43915343915344 20.952380952380953,193.22751322751324 20.31746031746032,193.01587301587304 19.682539682539684,192.8042328042328 19.047619047619047,192.5925925925926 18.412698412698415,192.3809523809524 17.77777777777778,191.95767195767198 17.142857142857146,191.95767195767198 16.50793650793651,191.53439153439155 15.873015873015873,191.32275132275134 15.238095238095239,191.11111111111111 14.603174603174605,190.8994708994709 13.96825396825397,190.47619047619048 13.333333333333334,190.26455026455028 12.6984126984127,189.84126984126985 12.063492063492065,189.41798941798945 11.428571428571429,188.99470899470901 10.793650793650794,188.78306878306879 10.370370370370372,188.35978835978838 9.947089947089948,187.93650793650795 9.523809523809524,187.51322751322752 8.88888888888889,187.08994708994712 8.253968253968255,186.66666666666669 7.830687830687832,186.24338624338625 7.407407407407408,185.60846560846562 6.984126984126985,184.973544973545 6.772486772486773,184.33862433862436 6.34920634920635,183.70370370370372 6.137566137566138,183.0687830687831 6.137566137566138,182.43386243386246 5.9259259259259265,181.79894179894183 5.9259259259259265,181.16402116402116 5.714285714285714,180.52910052910053 5.714285714285714,179.8941798941799 5.714285714285714,179.25925925925927 5.714285714285714,178.62433862433863 5.9259259259259265,177.989417989418 5.9259259259259265,177.35449735449737 5.9259259259259265,176.71957671957674 5.9259259259259265,176.0846560846561 6.137566137566138,175.44973544973547 6.137566137566138,174.81481481481484 6.34920634920635,174.1798941798942 6.560846560846561,173.54497354497354 6.772486772486773,172.9100529100529 6.772486772486773,172.27513227513228 7.195767195767196,171.64021164021165 7.407407407407408,171.005291005291 7.6190476190476195,170.37037037037038 8.042328042328043,169.73544973544975 8.042328042328043,169.10052910052912 8.253968253968255,168.46560846560848 8.677248677248677,167.83068783068785 8.88888888888889,167.19576719576722 9.312169312169313,166.56084656084658 9.735449735449736,165.92592592592595 10.15873015873016,165.2910052910053 10.582010582010582,164.8677248677249 11.005291005291006,164.44444444444446 11.216931216931219,163.80952380952382 11.640211640211641,163.3862433862434 12.063492063492065,162.75132275132276 12.486772486772487,162.32804232804233 12.910052910052912,161.6931216931217 13.333333333333334,161.05820105820106 13.756613756613758,160.63492063492066 14.17989417989418,160.21164021164023 14.603174603174605,159.7883597883598 15.026455026455027,159.36507936507937 15.661375661375663,159.15343915343917 16.084656084656086,158.73015873015873 16.71957671957672,158.51851851851853 17.354497354497354,158.0952380952381 17.98941798941799,157.8835978835979 18.624338624338627,157.8835978835979 19.25925925925926,157.67195767195767 19.894179894179896,157.46031746031747 20.529100529100532,157.03703703703704 21.164021164021165,157.03703703703704 21.7989417989418,156.61375661375664 22.433862433862437,156.61375661375664 23.06878306878307,156.4021164021164 23.492063492063494,155.978835978836 24.12698412698413,155.55555555555557 24.761904761904763,155.13227513227514 25.3968253968254,154.7089947089947 25.820105820105823,154.2857142857143 26.243386243386244,153.86243386243387 26.666666666666668,153.22751322751324 27.089947089947092,152.8042328042328 27.513227513227516,152.16931216931218 27.93650793650794,151.53439153439155 28.14814814814815,150.8994708994709 28.35978835978836,150.26455026455028 28.571428571428573,149.62962962962965 28.571428571428573,148.99470899470901 28.571428571428573,148.35978835978838 28.571428571428573,147.72486772486775 28.571428571428573,147.0899470899471 28.35978835978836,146.45502645502646 28.14814814814815,145.82010582010582 27.93650793650794,145.1851851851852 27.513227513227516,144.55026455026456 27.089947089947092,143.91534391534393 26.666666666666668,143.2804232804233 26.243386243386244,142.85714285714286 25.820105820105823,142.43386243386246 25.3968253968254,142.01058201058203 24.973544973544975,141.5873015873016 24.55026455026455,141.16402116402116 24.12698412698413,140.74074074074076 23.492063492063494,140.31746031746033 23.06878306878307,139.8941798941799 22.645502645502646,139.47089947089947 22.222222222222225,139.04761904761907 21.7989417989418,138.62433862433863 21.375661375661377,138.2010582010582 20.740740740740744,137.7777777777778 20.31746031746032,137.35449735449737 19.894179894179896,136.93121693121694 19.47089947089947,136.5079365079365 18.83597883597884,136.0846560846561 18.412698412698415,135.66137566137567 17.98941798941799,135.23809523809524 17.566137566137566,134.81481481481484 17.142857142857146,134.3915343915344 16.50793650793651,133.96825396825398 15.873015873015873,133.54497354497354 15.238095238095239,133.12169312169314 14.814814814814817,132.6984126984127 14.391534391534393,132.27513227513228 13.96825396825397,131.85185185185185 13.333333333333334,131.42857142857144 12.910052910052912,131.005291005291 12.275132275132275,130.58201058201058 11.851851851851853,130.15873015873018 11.216931216931219,129.73544973544975 10.793650793650794,129.31216931216932 10.15873015873016,128.88888888888889 9.735449735449736,128.46560846560848 9.312169312169313,128.04232804232805 8.677248677248677,127.61904761904763 8.042328042328043,127.40740740740742 7.407407407407408,126.98412698412699 6.772486772486773,126.56084656084657 6.34920634920635,126.13756613756615 5.9259259259259265,125.71428571428572 5.291005291005291,125.5026455026455 4.867724867724868,125.07936507936509 4.444444444444445,124.65608465608466 3.8095238095238098,124.23280423280424 3.174603174603175,123.80952380952382 2.7513227513227516,123.3862433862434 -0.21164021164021166,121.26984126984128" style="fill:none; stroke:#00aa99; stroke-width:1.0"  /><polyline points="-0.21164021164021166,121.26984126984128 2.7513227513227516,119.36507936507937 3.3862433862433865,118.94179894179895 4.021164021164021,118.51851851851853 4.656084656084657,118.30687830687832 5.291005291005291,117.88359788359789 5.9259259259259265,117.46031746031747 6.560846560846561,117.24867724867725 6.984126984126985,116.82539682539684 7.6190476190476195,116.61375661375662 8.253968253968255,116.1904761904762 8.677248677248677,115.76719576719577 9.312169312169313,115.55555555555557 9.735449735449736,115.13227513227514 10.370370370370372,114.92063492063492 11.005291005291006,114.49735449735451 11.640211640211641,114.28571428571429 12.275132275132275,113.86243386243387 12.910052910052912,113.43915343915344 13.544973544973546,113.22751322751324 13.96825396825397,112.80423280423281 14.603174603174605,112.5925925925926 15.238095238095239,112.16931216931218 15.873015873015873,111.74603174603176 16.50793650793651,111.32275132275133 17.142857142857146,110.89947089947091 17.77777777777778,110.6878306878307 18.201058201058203,110.26455026455027 18.83597883597884,110.05291005291006 19.25925925925926,109.62962962962963 19.894179894179896,109.20634920634922 20.529100529100532,108.994708994709 20.952380952380953,108.57142857142858 21.58730158730159,108.35978835978837 22.222222222222225,107.93650793650795 22.857142857142858,107.51322751322752 23.492063492063494,107.0899470899471 23.915343915343918,106.66666666666667 24.55026455026455,106.45502645502647 25.185185185185187,106.03174603174604 25.820105820105823,105.60846560846562 26.455026455026456,105.18518518518519 27.089947089947092,104.76190476190477 27.724867724867728,104.33862433862434 28.35978835978836,103.91534391534393 28.994708994708997,103.4920634920635 29.629629629629633,103.06878306878308 30.264550264550266,102.64550264550266 30.899470899470902,102.22222222222223 31.53439153439154,101.79894179894181 32.16931216931217,101.37566137566138 32.804232804232804,100.95238095238096 33.43915343915344,100.52910052910053 34.074074074074076,100.10582010582011 34.70899470899471,99.68253968253968 35.13227513227513,99.25925925925927 35.76719576719577,98.83597883597885 36.402116402116405,98.41269841269842 37.03703703703704,97.989417989418 37.46031746031746,97.56613756613757 38.095238095238095,97.35449735449737 38.51851851851852,96.93121693121694 39.15343915343916,96.71957671957672 39.57671957671958,96.2962962962963 40.0,95.87301587301587 40.63492063492064,95.44973544973546 41.26984126984127,95.02645502645504 41.904761904761905,94.60317460317461 42.539682539682545,94.39153439153439 43.17460317460318,93.96825396825398 43.5978835978836,93.33333333333334 44.232804232804234,92.91005291005291 44.867724867724874,92.4867724867725 45.50264550264551,92.06349206349208 45.92592592592593,91.64021164021165 46.560846560846564,91.42857142857143 46.98412698412699,91.00529100529101 47.61904761904762,90.58201058201058 48.042328042328045,90.15873015873017 48.677248677248684,89.73544973544975 49.31216931216932,89.31216931216932 49.94708994708995,88.8888888888889 50.58201058201058,88.46560846560847 51.21693121693122,88.04232804232805 51.851851851851855,87.61904761904762 52.27513227513228,87.1957671957672 52.91005291005291,86.77248677248677 53.54497354497355,86.34920634920636 54.179894179894184,85.92592592592594 54.81481481481482,85.5026455026455 55.23809523809524,85.07936507936509 55.87301587301588,84.65608465608466 56.50793650793651,84.23280423280424 57.142857142857146,83.80952380952381 57.56613756613757,83.3862433862434 57.989417989417994,82.96296296296298 58.62433862433863,82.53968253968254 59.25925925925927,82.11640211640213 59.8941798941799,81.6931216931217 60.52910052910053,81.26984126984128 60.952380952380956,80.84656084656085 61.58730158730159,80.42328042328043 62.01058201058201,80.0 62.64550264550265,79.57671957671958 63.280423280423285,79.15343915343917 63.70370370370371,78.73015873015873 64.12698412698413,78.30687830687832 64.76190476190477,78.0952380952381 65.18518518518519,77.67195767195767 65.60846560846561,77.24867724867725 66.03174603174604,76.82539682539684 66.45502645502646,76.4021164021164 67.08994708994709,75.97883597883599 67.51322751322752,75.55555555555556 67.93650793650794,75.13227513227514 68.35978835978837,74.70899470899471 68.994708994709,74.28571428571429 69.41798941798942,73.86243386243387 69.84126984126985,73.43915343915344 70.26455026455027,73.01587301587303 70.6878306878307,72.5925925925926 71.11111111111111,72.16931216931218 71.53439153439155,71.74603174603175 71.95767195767196,71.32275132275133 72.38095238095238,70.8994708994709 72.80423280423281,70.26455026455027 73.22751322751323,69.84126984126985 73.65079365079366,69.41798941798942 74.07407407407408,68.78306878306879 74.49735449735451,68.35978835978837 74.92063492063492,67.72486772486774 75.34391534391536,67.3015873015873 75.76719576719577,66.66666666666667 76.19047619047619,66.24338624338625 76.61375661375662,65.82010582010582 77.03703703703704,65.18518518518519 77.46031746031747,64.76190476190477 77.88359788359789,64.12698412698413 78.0952380952381,63.492063492063494 78.51851851851852,62.85714285714286 78.94179894179895,62.22222222222223 79.15343915343917,61.58730158730159 79.57671957671958,61.16402116402117 79.7883597883598,60.52910052910053 80.21164021164022,59.8941798941799 80.21164021164022,59.25925925925927 80.42328042328043,58.62433862433863 80.63492063492065,57.989417989417994 80.63492063492065,57.35449735449736 80.42328042328043,56.71957671957672 80.21164021164022,56.08465608465609 80.21164021164022,55.449735449735456 80.0,54.81481481481482 79.57671957671958,54.39153439153439 79.15343915343917,53.75661375661376 78.73015873015873,53.333333333333336 78.30687830687832,52.6984126984127 77.67195767195767,52.48677248677249 77.03703703703704,52.06349206349207 76.61375661375662,51.640211640211646 75.97883597883599,51.42857142857143 75.34391534391536,51.00529100529101 74.70899470899471,50.7936507936508 74.07407407407408,50.370370370370374 73.43915343915344,50.158730158730165 72.80423280423281,49.94708994708995 72.16931216931218,49.73544973544974 71.53439153439155,49.523809523809526 70.8994708994709,49.31216931216932 70.26455026455027,49.1005291005291 69.62962962962963,48.88888888888889 68.994708994709,48.677248677248684 68.35978835978837,48.46560846560847 67.72486772486774,48.25396825396826 67.08994708994709,48.042328042328045 66.45502645502646,47.830687830687836 65.82010582010582,47.61904761904762 65.18518518518519,47.40740740740741 64.55026455026456,47.195767195767196 63.91534391534392,46.98412698412699 63.280423280423285,46.77248677248678 62.64550264550265,46.560846560846564 62.01058201058201,46.349206349206355 61.37566137566138,46.13756613756614 60.74074074074075,45.714285714285715 60.10582010582011,45.29100529100529 59.470899470899475,45.07936507936508 59.04761904761905,44.65608465608466 58.41269841269842,44.232804232804234 57.777777777777786,43.80952380952381 57.35449735449736,43.386243386243386 56.93121693121694,42.96296296296297 56.50793650793651,42.539682539682545 56.08465608465609,41.904761904761905 55.87301587301588,41.26984126984127 55.449735449735456,40.63492063492064 55.23809523809524,40.0 55.02645502645503,39.36507936507937 55.02645502645503,38.730158730158735 55.02645502645503,38.095238095238095 55.23809523809524,37.46031746031746 55.449735449735456,36.82539682539683 55.661375661375665,36.19047619047619 56.08465608465609,35.55555555555556 56.2962962962963,34.920634920634924 56.71957671957672,34.28571428571429 57.142857142857146,33.65079365079365 57.56613756613757,33.01587301587302 57.989417989417994,32.592592592592595 58.41269841269842,31.95767195767196 58.83597883597884,31.322751322751326 59.25925925925927,30.68783068783069 59.682539682539684,30.264550264550266 60.10582010582011,29.841269841269842 60.52910052910053,29.41798941798942 60.952380952380956,28.783068783068785 61.37566137566138,28.35978835978836 61.798941798941804,27.93650793650794 62.22222222222223,27.513227513227516 62.64550264550265,26.87830687830688 63.06878306878308,26.455026455026456 63.492063492063494,26.031746031746035 63.91534391534392,25.60846560846561 64.33862433862434,25.185185185185187 64.76190476190477,24.761904761904763 65.18518518518519,24.338624338624342 65.60846560846561,23.915343915343918 66.24338624338625,23.492063492063494 66.66666666666667,23.06878306878307 67.08994708994709,22.645502645502646 67.51322751322752,22.222222222222225 68.14814814814815,21.7989417989418 68.57142857142858,21.375661375661377 69.20634920634922,20.952380952380953 69.84126984126985,20.529100529100532 70.26455026455027,20.105820105820108 70.8994708994709,19.682539682539684 71.53439153439155,19.47089947089947 72.16931216931218,19.25925925925926 72.5925925925926,18.624338624338627 73.22751322751323,18.412698412698415 73.65079365079366,17.98941798941799 74.07407407407408,17.566137566137566 74.70899470899471,17.354497354497354 75.34391534391536,16.931216931216934 75.97883597883599,16.71957671957672 76.4021164021164,16.296296296296298 76.82539682539684,15.873015873015873 77.46031746031747,15.661375661375663 78.0952380952381,15.238095238095239 78.51851851851852,14.814814814814817 79.15343915343917,14.603174603174605 79.7883597883598,14.391534391534393 80.42328042328043,14.17989417989418 80.84656084656085,13.756613756613758 81.48148148148148,13.333333333333334 82.11640211640213,13.121693121693122 82.75132275132276,12.910052910052912 83.3862433862434,12.486772486772487 83.80952380952381,12.063492063492065 84.44444444444446,12.063492063492065 85.07936507936509,11.851851851851853 85.71428571428572,11.851851851851853 86.34920634920636,11.640211640211641 86.98412698412699,11.428571428571429 87.61904761904762,11.428571428571429 88.25396825396827,11.216931216931219 88.8888888888889,11.428571428571429 89.52380952380953,11.428571428571429 90.15873015873017,11.428571428571429 90.7936507936508,11.640211640211641 91.42857142857143,12.063492063492065 92.06349206349208,12.275132275132275 92.4867724867725,12.6984126984127 92.91005291005291,13.121693121693122 93.33333333333334,13.544973544973546 93.75661375661376,14.17989417989418 93.96825396825398,14.814814814814817 94.17989417989419,15.449735449735451 94.39153439153439,16.084656084656086 94.60317460317461,16.71957671957672 94.81481481481482,17.354497354497354 95.02645502645504,17.98941798941799 95.02645502645504,18.624338624338627 95.23809523809524,19.25925925925926 95.23809523809524,19.894179894179896 95.44973544973546,20.529100529100532 95.44973544973546,21.164021164021165 95.66137566137567,21.7989417989418 95.66137566137567,22.433862433862437 95.66137566137567,23.06878306878307 95.87301587301587,23.703703703703706 95.87301587301587,24.338624338624342 95.87301587301587,24.973544973544975 96.08465608465609,25.60846560846561 96.08465608465609,26.243386243386244 96.2962962962963,26.87830687830688 96.2962962962963,27.513227513227516 96.2962962962963,28.14814814814815 96.50793650793652,28.783068783068785 96.93121693121694,29.41798941798942 96.93121693121694,30.052910052910054 97.14285714285715,30.68783068783069 97.35449735449737,31.322751322751326 97.56613756613757,31.95767195767196 97.77777777777779,32.592592592592595 98.2010582010582,33.22751322751323 98.62433862433863,33.86243386243387 99.04761904761905,34.28571428571429 99.47089947089948,34.70899470899471 99.8941798941799,35.13227513227513 100.52910052910053,35.55555555555556 101.16402116402116,35.76719576719577 101.79894179894181,35.97883597883598 102.43386243386244,36.19047619047619 103.06878306878308,36.19047619047619 103.70370370370371,36.19047619047619 104.33862433862434,36.19047619047619 104.97354497354497,35.97883597883598 105.60846560846562,35.97883597883598 106.24338624338625,35.55555555555556 106.87830687830689,35.34391534391535 107.51322751322752,34.920634920634924 107.93650793650795,34.4973544973545 108.57142857142858,34.28571428571429 108.994708994709,33.86243386243387 109.41798941798943,33.43915343915344 109.84126984126985,33.01587301587302 110.26455026455027,32.592592592592595 110.6878306878307,32.16931216931217 111.11111111111111,31.746031746031747 111.53439153439155,31.111111111111114 111.95767195767196,30.68783068783069 112.3809523809524,30.264550264550266 112.5925925925926,29.629629629629633 113.01587301587303,29.20634920634921 113.22751322751324,28.571428571428573 113.43915343915344,27.93650793650794 113.86243386243387,27.301587301587304 114.07407407407408,26.666666666666668 114.49735449735451,26.031746031746035 114.92063492063492,25.3968253968254 115.13227513227514,24.761904761904763 115.34391534391536,24.12698412698413 115.76719576719577,23.492063492063494 115.97883597883599,22.857142857142858 116.4021164021164,22.222222222222225 116.82539682539684,21.58730158730159 117.03703703703705,20.952380952380953 117.24867724867725,20.31746031746032 117.67195767195768,19.682539682539684 117.88359788359789,19.047619047619047 118.0952380952381,18.412698412698415 118.51851851851853,17.77777777777778 118.73015873015873,17.142857142857146 118.94179894179895,16.50793650793651 119.36507936507937,15.873015873015873 119.57671957671958,15.238095238095239 119.7883597883598,14.603174603174605 120.00000000000001,13.96825396825397 120.21164021164022,13.333333333333334 120.42328042328043,12.6984126984127 120.63492063492065,12.063492063492065 121.05820105820106,11.428571428571429 121.26984126984128,10.793650793650794 121.4814814814815,10.15873015873016 121.6931216931217,9.523809523809524 121.90476190476191,8.88888888888889 122.11640211640213,8.253968253968255 122.11640211640213,7.6190476190476195 122.53968253968254,6.984126984126985 122.75132275132276,6.34920634920635 122.96296296296298,5.714285714285714 123.17460317460318,5.07936507936508 123.3862433862434,4.444444444444445 123.59788359788361,3.8095238095238098 123.80952380952382,3.174603174603175 125.07936507936509,-0.634920634920635" style="fill:none; stroke:#3300bb; stroke-width:1.0"  /><circle cx="125.07936507936509" cy="-0.634920634920635" r="2.0" style="fill:none; stroke:#000000aa; stroke-width:0.25" /><circle cx="212.91005291005294" cy="84.86772486772487" r="2.0" style="fill:none; stroke:#000000aa; stroke-width:0.25" /><circle cx="78.51851851851852" cy="222.01058201058203" r="2.0" style="fill:none; stroke:#000000aa; stroke-width:0.25" /><circle cx="-0.21164021164021166" cy="121.26984126984128" r="2.0" style="fill:none; stroke:#000000aa; stroke-width:0.25" /><circle cx="125.71428571428572" cy="0.21164021164021166" r="2.0" style="fill:none; stroke:#ff3366aa; stroke-width:0.25" /><circle cx="212.4867724867725" cy="85.07936507936509" r="2.0" style="fill:none; stroke:#ff3366aa; stroke-width:0.25" /><circle cx="78.51851851851852" cy="221.3756613756614" r="2.0" style="fill:none; stroke:#ff3366aa; stroke-width:0.25" /><circle cx="0.21164021164021166" cy="121.4814814814815" r="2.0" style="fill:none; stroke:#ff3366aa; stroke-width:0.25" /><polyline points="133.54497354497354,8.88888888888889 133.12169312169314,8.465608465608467 132.6984126984127,7.830687830687832 132.27513227513228,7.407407407407408 131.85185185185185,6.984126984126985 131.42857142857144,6.560846560846561 131.005291005291,6.137566137566138 130.58201058201058,5.714285714285714 130.15873015873018,5.07936507936508 129.73544973544975,4.656084656084657 129.31216931216932,4.2328042328042335 128.88888888888889,3.8095238095238098 128.46560846560848,3.174603174603175 128.04232804232805,2.7513227513227516" style="fill:none; stroke:#001100; stroke-width:1.0" /><polyline points="121.26984126984128,10.793650793650794 121.4814814814815,10.15873015873016 121.6931216931217,9.523809523809524 121.90476190476191,8.88888888888889 122.11640211640213,8.253968253968255 122.11640211640213,7.6190476190476195 122.53968253968254,6.984126984126985 122.75132275132276,6.34920634920635 122.96296296296298,5.714285714285714 123.17460317460318,5.07936507936508 123.3862433862434,4.444444444444445 123.59788359788361,3.8095238095238098 123.80952380952382,3.174603174603175" style="fill:none; stroke:#000011; stroke-width:1.0" /><polyline points="203.59788359788362,93.12169312169313 204.02116402116403,92.69841269841271 204.44444444444446,92.27513227513228 204.8677248677249,91.85185185185186 205.29100529100532,91.42857142857143 205.92592592592595,91.00529100529101 206.34920634920636,90.58201058201058 206.984126984127,90.15873015873017 207.61904761904765,89.73544973544975 208.04232804232805,89.31216931216932 208.46560846560848,88.8888888888889 208.8888888888889,88.46560846560847 209.52380952380955,88.04232804232805 209.94708994708995,87.61904761904762 210.37037037037038,87.1957671957672" style="fill:none; stroke:#001100; stroke-width:1.0" /><polyline points="203.1746031746032,77.88359788359789 203.59788359788362,78.30687830687832 204.23280423280426,78.73015873015873 204.65608465608466,79.15343915343917 205.29100529100532,79.57671957671958 205.92592592592595,80.0 206.56084656084658,80.42328042328043 207.19576719576722,80.84656084656085 207.61904761904765,81.26984126984128 208.25396825396828,81.6931216931217 208.8888888888889,82.11640211640213 209.52380952380955,82.53968253968254 210.15873015873018,82.96296296296298" style="fill:none; stroke:#000011; stroke-width:1.0" /><polyline points="71.11111111111111,212.06349206349208 71.53439153439155,212.6984126984127 71.95767195767196,213.33333333333334 72.38095238095238,213.96825396825398 72.80423280423281,214.6031746031746 73.22751322751323,215.02645502645504 73.65079365079366,215.66137566137567 74.07407407407408,216.0846560846561 74.49735449735451,216.71957671957674 74.92063492063492,217.35449735449737 75.34391534391536,217.7777777777778 75.76719576719577,218.41269841269843 76.19047619047619,218.83597883597886" style="fill:none; stroke:#001100; stroke-width:1.0" /><polyline points="86.34920634920636,212.4867724867725 85.92592592592594,212.91005291005294 85.5026455026455,213.54497354497357 85.07936507936509,213.96825396825398 84.65608465608466,214.6031746031746 84.23280423280424,215.02645502645504 83.80952380952381,215.66137566137567 83.3862433862434,216.0846560846561 82.96296296296298,216.71957671957674 82.53968253968254,217.35449735449737 82.11640211640213,217.989417989418 81.6931216931217,218.41269841269843 81.26984126984128,218.83597883597886 80.84656084656085,219.25925925925927" style="fill:none; stroke:#000011; stroke-width:1.0" /><polyline points="9.735449735449736,115.13227513227514 9.312169312169313,115.55555555555557 8.677248677248677,115.76719576719577 8.253968253968255,116.1904761904762 7.6190476190476195,116.61375661375662 6.984126984126985,116.82539682539684 6.560846560846561,117.24867724867725 5.9259259259259265,117.46031746031747 5.291005291005291,117.88359788359789 4.656084656084657,118.30687830687832 4.021164021164021,118.51851851851853 3.3862433862433865,118.94179894179895 2.7513227513227516,119.36507936507937" style="fill:none; stroke:#001100; stroke-width:1.0" /><polyline points="9.735449735449736,128.46560846560848 9.312169312169313,128.04232804232805 8.677248677248677,127.61904761904763 8.042328042328043,127.40740740740742 7.407407407407408,126.98412698412699 6.772486772486773,126.56084656084657 6.34920634920635,126.13756613756615 5.9259259259259265,125.71428571428572 5.291005291005291,125.5026455026455 4.867724867724868,125.07936507936509 4.444444444444445,124.65608465608466 3.8095238095238098,124.23280423280424 3.174603174603175,123.80952380952382 2.7513227513227516,123.3862433862434" style="fill:none; stroke:#000011; stroke-width:1.0" /><polyline points="128.04232804232805,2.7513227513227516 113.86243386243387,-12.910052910052912" style="fill:none; stroke:#ffaa00; stroke-width:0.4" /><polyline points="123.80952380952382,3.174603174603175 130.58201058201058,-16.931216931216934" style="fill:none; stroke:#aaff00; stroke-width:0.4" /><polyline points="210.37037037037038,87.1957671957672 226.24338624338625,73.22751322751323" style="fill:none; stroke:#ffaa00; stroke-width:0.4" /><polyline points="210.15873015873018,82.96296296296298 227.30158730158732,95.44973544973546" style="fill:none; stroke:#aaff00; stroke-width:0.4" /><polyline points="76.19047619047619,218.83597883597886 88.8888888888889,235.76719576719577" style="fill:none; stroke:#ffaa00; stroke-width:0.4" /><polyline points="80.84656084656085,219.25925925925927 67.51322751322752,235.76719576719577" style="fill:none; stroke:#aaff00; stroke-width:0.4" /><polyline points="2.7513227513227516,119.36507936507937 -15.449735449735451,130.37037037037038" style="fill:none; stroke:#ffaa00; stroke-width:0.4" /><polyline points="2.7513227513227516,123.3862433862434 -14.391534391534393,110.89947089947091" style="fill:none; stroke:#aaff00; stroke-width:0.4" /><circle cx="108.57142857142858" cy="109.84126984126985" r="1.0" style="fill:#444444; stroke-width:0" /><circle cx="111.11111111111111" cy="112.5925925925926" r="10.582010582010582" style="fill:#ff770022; stroke-width:0" /><circle cx="111.11111111111111" cy="112.5925925925926" r="1.0" style="fill:#ff7700; stroke-width:0" /></svg>