<?xml version="1.0" encoding="UTF-8" standalone="no"?><svg width="704.7619047619048" height="572.6984126984128" viewBox="-10 -10 254.92063492063494 210.8994708994709" xmlns="http://www.w3.org/2000/svg" xmlns:xlink="http://www.w3.org/1999/xlink"><polyline points="41.48148148148149,-0.4232804232804233 43.80952380952381,0.21164021164021166 44.44444444444445,0.4232804232804233 45.07936507936508,0.634920634920635 45.714285714285715,0.634920634920635 46.349206349206355,0.8465608465608466 46.98412698412699,1.0582010582010584 47.61904761904762,1.26984126984127 48.25396825396826,1.4814814814814816 48.88888888888889,1.6931216931216932 49.523809523809526,1.9047619047619049 50.158730158730165,2.1164021164021167 50.7936507936508,2.1164021164021167 51.42857142857143,2.3280423280423284 52.06349206349207,2.53968253968254 52.6984126984127,2.7513227513227516 53.333333333333336,2.9629629629629632 53.968253968253975,3.174603174603175 54.60317460317461,3.3862433862433865 55.23809523809524,3.597883597883598 55.87301587301588,3.8095238095238098 56.50793650793651,4.021164021164021 57.142857142857146,4.444444444444445 57.777777777777786,4.444444444444445 58.41269841269842,4.867724867724868 59.04761904761905,5.07936507936508 59.682539682539684,5.07936507936508 60.31746031746032,5.291005291005291 60.952380952380956,5.502645502645503 61.58730158730159,5.714285714285714 62.22222222222223,5.9259259259259265 62.85714285714286,6.137566137566138 63.492063492063494,6.34920634920635 64.12698412698413,6.560846560846561 64.55026455026456,6.984126984126985 65.18518518518519,6.984126984126985 65.82010582010582,7.407407407407408 66.45502645502646,7.830687830687832 67.08994708994709,8.042328042328043 67.72486772486774,8.253968253968255 68.35978835978837,8.677248677248677 68.994708994709,8.88888888888889 69.62962962962963,9.100529100529101 70.05291005291006,9.523809523809524 70.6878306878307,9.735449735449736 71.32275132275133,10.15873015873016 71.95767195767196,10.370370370370372 72.5925925925926,10.793650793650794 73.22751322751323,11.005291005291006 73.86243386243387,11.428571428571429 74.49735449735451,11.851851851851853 75.13227513227514,12.275132275132275 75.76719576719577,12.6984126984127 76.4021164021164,12.910052910052912 76.82539682539684,13.333333333333334 77.46031746031747,13.756613756613758 78.0952380952381,14.17989417989418 78.73015873015873,14.603174603174605 79.36507936507937,15.026455026455027 80.0,15.238095238095239 80.42328042328043,15.661375661375663 81.05820105820106,16.084656084656086 81.48148148148148,16.50793650793651 82.11640211640213,16.931216931216934 82.53968253968254,17.354497354497354 83.17460317460318,17.77777777777778 83.59788359788361,18.201058201058203 84.23280423280424,18.624338624338627 84.65608465608466,19.047619047619047 85.29100529100529,19.47089947089947 85.92592592592594,19.894179894179896 86.34920634920636,20.31746031746032 86.77248677248677,20.740740740740744 87.40740740740742,21.164021164021165 87.83068783068784,21.58730158730159 88.25396825396827,22.010582010582013 88.8888888888889,22.433862433862437 89.31216931216932,22.857142857142858 89.73544973544975,23.280423280423282 90.15873015873017,23.703703703703706 90.7936507936508,24.12698412698413 91.42857142857143,24.55026455026455 91.85185185185186,24.973544973544975 92.27513227513228,25.3968253968254 92.69841269841271,25.820105820105823 93.12169312169313,26.243386243386244 93.54497354497356,26.666666666666668 94.17989417989419,27.089947089947092 94.81481481481482,27.513227513227516 95.44973544973546,27.93650793650794 96.08465608465609,28.35978835978836 96.50793650793652,28.783068783068785 96.93121693121694,29.20634920634921 97.56613756613757,29.629629629629633 97.989417989418,30.052910052910054 98.41269841269842,30.476190476190478 98.83597883597885,30.899470899470902 99.25925925925927,31.322751322751326 99.8941798941799,31.746031746031747 100.31746031746033,32.16931216931217 100.74074074074075,32.592592592592595 101.16402116402116,33.01587301587302 101.79894179894181,33.43915343915344 102.22222222222223,33.86243386243387 102.64550264550266,34.28571428571429 103.06878306878308,34.70899470899471 103.4920634920635,35.13227513227513 103.91534391534393,35.55555555555556 104.33862433862434,35.97883597883598 104.97354497354497,36.402116402116405 105.3968253968254,36.82539682539683 105.82010582010582,37.248677248677254 106.45502645502647,37.46031746031746 106.87830687830689,37.883597883597886 107.51322751322752,38.30687830687831 108.14814814814815,38.730158730158735 108.78306878306879,38.94179894179894 109.41798941798943,39.15343915343916 110.05291005291006,39.36507936507937 110.6878306878307,39.57671957671958 111.32275132275133,39.57671957671958 111.95767195767196,39.78835978835979 112.5925925925926,39.78835978835979 113.22751322751324,39.78835978835979 113.86243386243387,39.78835978835979 114.49735449735451,39.78835978835979 115.13227513227514,39.36507936507937 115.76719576719577,39.15343915343916 116.4021164021164,38.730158730158735 117.03703703703705,38.30687830687831 117.46031746031747,37.883597883597886 117.88359788359789,37.46031746031746 118.30687830687832,37.03703703703704 118.73015873015873,36.402116402116405 118.94179894179895,35.76719576719577 119.36507936507937,35.13227513227513 119.57671957671958,34.4973544973545 119.7883597883598,33.86243386243387 120.00000000000001,33.22751322751323 120.21164021164022,32.592592592592595 120.42328042328043,31.95767195767196 120.63492063492065,31.322751322751326 120.63492063492065,30.68783068783069 120.84656084656086,30.052910052910054 121.05820105820106,29.41798941798942 121.05820105820106,28.783068783068785 121.05820105820106,28.14814814814815 121.05820105820106,27.513227513227516 121.26984126984128,26.87830687830688 121.4814814814815,26.243386243386244 121.4814814814815,25.60846560846561 121.6931216931217,24.973544973544975 121.90476190476191,24.338624338624342 121.90476190476191,23.703703703703706 122.11640211640213,23.06878306878307 122.11640211640213,22.433862433862437 122.11640211640213,21.7989417989418 122.32804232804234,21.164021164021165 122.32804232804234,20.529100529100532 122.32804232804234,19.894179894179896 122.53968253968254,19.25925925925926 122.32804232804234,18.624338624338627 122.32804232804234,17.98941798941799 122.53968253968254,17.354497354497354 122.53968253968254,16.71957671957672 122.53968253968254,16.084656084656086 122.53968253968254,15.449735449735451 122.53968253968254,14.814814814814817 122.75132275132276,14.17989417989418 122.75132275132276,13.544973544973546 122.96296296296298,12.910052910052912 122.96296296296298,12.275132275132275 123.17460317460318,11.640211640211641 123.3862433862434,11.005291005291006 123.59788359788361,10.370370370370372 124.02116402116403,9.735449735449736 124.23280423280424,9.100529100529101 124.44444444444446,8.465608465608467 124.86772486772487,7.830687830687832 125.2910052910053,7.195767195767196 125.71428571428572,6.772486772486773 126.13756613756615,6.137566137566138 126.56084656084657,5.502645502645503 127.1957671957672,5.07936507936508 127.61904761904763,4.656084656084657 128.25396825396825,4.444444444444445 128.88888888888889,4.2328042328042335 129.52380952380955,3.8095238095238098 130.15873015873018,3.597883597883598 130.7936507936508,3.597883597883598 131.42857142857144,3.8095238095238098 132.06349206349208,3.8095238095238098 132.6984126984127,3.8095238095238098 133.33333333333334,4.021164021164021 133.96825396825398,4.021164021164021 134.6031746031746,4.2328042328042335 135.23809523809524,4.444444444444445 135.87301587301587,4.656084656084657 136.5079365079365,4.656084656084657 137.14285714285717,4.867724867724868 137.7777777777778,4.867724867724868 138.41269841269843,5.07936507936508 139.04761904761907,5.502645502645503 139.6825396825397,5.9259259259259265 140.31746031746033,6.137566137566138 140.95238095238096,6.34920634920635 141.5873015873016,6.772486772486773 142.22222222222223,6.984126984126985 142.64550264550266,7.407407407407408 143.2804232804233,7.830687830687832 143.91534391534393,8.042328042328043 144.33862433862436,8.465608465608467 144.973544973545,8.88888888888889 145.39682539682542,9.312169312169313 146.03174603174605,9.735449735449736 146.45502645502646,10.15873015873016 146.8783068783069,10.582010582010582 147.51322751322752,11.005291005291006 147.93650793650795,11.428571428571429 148.35978835978838,11.851851851851853 148.78306878306879,12.275132275132275 149.20634920634922,12.6984126984127 149.62962962962965,13.121693121693122 150.05291005291005,13.756613756613758 150.47619047619048,14.17989417989418 150.6878306878307,14.814814814814817 151.11111111111111,15.449735449735451 151.32275132275134,16.084656084656086 151.53439153439155,16.71957671957672 151.74603174603175,17.354497354497354 151.74603174603175,17.98941798941799 151.53439153439155,18.624338624338627 151.74603174603175,19.25925925925926 151.53439153439155,19.894179894179896 151.53439153439155,20.529100529100532 151.32275132275134,21.164021164021165 151.11111111111111,21.7989417989418 150.8994708994709,22.433862433862437 150.6878306878307,23.06878306878307 150.47619047619048,23.703703703703706 150.05291005291005,24.338624338624342 149.84126984126985,24.973544973544975 149.41798941798942,25.3968253968254 148.99470899470901,26.031746031746035 148.57142857142858,26.666666666666668 148.14814814814815,27.301587301587304 147.72486772486775,27.724867724867728 147.51322751322752,28.35978835978836 147.0899470899471,28.783068783068785 146.66666666666669,29.20634920634921 146.24338624338625,29.629629629629633 145.82010582010582,30.052910052910054 145.39682539682542,30.476190476190478 144.973544973545,30.899470899470902 144.55026455026456,31.322751322751326 144.12698412698413,31.746031746031747 143.4920634920635,32.16931216931217 143.0687830687831,32.592592592592595 142.64550264550266,33.01587301587302 142.22222222222223,33.65079365079365 141.7989417989418,34.28571428571429 141.3756613756614,34.70899470899471 140.95238095238096,35.13227513227513 140.74074074074076,35.76719576719577 140.31746031746033,36.19047619047619 140.10582010582013,36.82539682539683 139.8941798941799,37.46031746031746 139.47089947089947,38.095238095238095 139.47089947089947,38.730158730158735 139.25925925925927,39.36507936507937 139.04761904761907,40.0 139.04761904761907,40.63492063492064 139.25925925925927,41.26984126984127 139.25925925925927,41.904761904761905 139.47089947089947,42.539682539682545 139.6825396825397,43.17460317460318 139.8941798941799,43.80952380952381 140.31746031746033,44.232804232804234 140.74074074074076,44.867724867724874 141.16402116402116,45.29100529100529 141.5873015873016,45.714285714285715 142.22222222222223,46.13756613756614 142.85714285714286,46.560846560846564 143.4920634920635,46.98412698412699 144.12698412698413,47.195767195767196 144.76190476190476,47.40740740740741 145.39682539682542,47.61904761904762 146.03174603174605,47.830687830687836 146.66666666666669,48.042328042328045 147.30158730158732,48.46560846560847 147.93650793650795,48.677248677248684 148.57142857142858,48.88888888888889 149.20634920634922,48.88888888888889 149.62962962962965,49.31216931216932 150.26455026455028,49.31216931216932 150.8994708994709,49.73544973544974 151.53439153439155,49.73544973544974 152.16931216931218,50.158730158730165 152.8042328042328,50.370370370370374 153.43915343915344,50.58201058201058 154.07407407407408,50.7936507936508 154.7089947089947,51.00529100529101 155.34391534391534,51.00529100529101 155.978835978836,51.42857142857143 156.61375661375664,51.42857142857143 157.24867724867727,51.640211640211646 157.8835978835979,51.851851851851855 158.51851851851853,52.06349206349207 159.15343915343917,52.27513227513228 159.7883597883598,52.48677248677249 160.42328042328043,52.6984126984127 161.05820105820106,52.91005291005291 161.6931216931217,52.91005291005291 162.32804232804233,53.12169312169313 162.96296296296296,53.333333333333336 163.3862433862434,53.75661375661376 164.02116402116403,53.968253968253975 164.65608465608466,53.75661375661376 165.2910052910053,54.179894179894184 165.92592592592595,54.39153439153439 166.56084656084658,54.39153439153439 167.19576719576722,54.81481481481482 167.83068783068785,55.02645502645503 168.46560846560848,55.23809523809524 169.10052910052912,55.449735449735456 169.73544973544975,55.449735449735456 170.37037037037038,55.661375661375665 171.005291005291,55.87301587301588 171.64021164021165,56.08465608465609 172.27513227513228,56.2962962962963 172.9100529100529,56.50793650793651 173.54497354497354,56.50793650793651 173.96825396825398,56.93121693121694 174.6031746031746,56.93121693121694 175.23809523809524,57.142857142857146 175.87301587301587,57.35449735449736 176.50793650793653,57.56613756613757 177.14285714285717,57.777777777777786 177.7777777777778,57.989417989417994 178.41269841269843,58.2010582010582 179.04761904761907,58.2010582010582 179.6825396825397,58.62433862433863 180.31746031746033,58.62433862433863 180.95238095238096,58.62433862433863 181.5873015873016,58.83597883597884 182.22222222222223,59.25925925925927 182.85714285714286,59.25925925925927 183.4920634920635,59.470899470899475 184.12698412698415,59.682539682539684 184.7619047619048,59.682539682539684 185.39682539682542,59.8941798941799 186.03174603174605,60.10582010582011 186.66666666666669,60.31746031746032 187.30158730158732,60.31746031746032 187.93650793650795,60.74074074074075 188.57142857142858,60.74074074074075 189.20634920634922,60.952380952380956 189.84126984126985,60.952380952380956 190.47619047619048,61.16402116402117 191.11111111111111,61.37566137566138 191.74603174603175,61.58730158730159 192.3809523809524,61.58730158730159 193.01587301587304,61.798941798941804 193.65079365079367,61.798941798941804 194.2857142857143,62.01058201058201 194.92063492063494,62.22222222222223 195.55555555555557,62.22222222222223 196.1904761904762,62.22222222222223 196.82539682539684,62.43386243386244 197.46031746031747,62.64550264550265 198.0952380952381,62.64550264550265 198.73015873015873,62.64550264550265 199.36507936507937,62.64550264550265 200.00000000000003,62.64550264550265 200.63492063492066,62.85714285714286 201.2698412698413,62.85714285714286 201.90476190476193,62.85714285714286 202.53968253968256,62.85714285714286 203.1746031746032,63.280423280423285 206.7724867724868,63.70370370370371" style="fill:none; stroke:#cc0000; stroke-width:1.0"  /><polyline points="206.7724867724868,63.70370370370371 205.29100529100532,67.3015873015873 205.0793650793651,67.93650793650794 204.8677248677249,68.57142857142858 204.44444444444446,69.20634920634922 204.23280423280426,69.84126984126985 204.02116402116403,70.47619047619048 203.80952380952382,71.11111111111111 203.59788359788362,71.74603174603175 203.3862433862434,72.38095238095238 203.1746031746032,73.01587301587303 202.75132275132276,73.65079365079366 202.53968253968256,74.28571428571429 202.32804232804233,74.92063492063492 202.32804232804233,75.55555555555556 201.90476190476193,76.19047619047619 201.6931216931217,76.82539682539684 201.6931216931217,77.46031746031747 201.4814814814815,78.0952380952381 201.2698412698413,78.73015873015873 201.05820105820106,79.36507936507937 200.84656084656086,80.0 200.63492063492066,80.63492063492065 200.42328042328043,81.26984126984128 200.21164021164023,81.90476190476191 200.00000000000003,82.53968253968254 200.00000000000003,83.17460317460318 199.7883597883598,83.80952380952381 199.5767195767196,84.44444444444446 199.36507936507937,85.07936507936509 199.15343915343917,85.71428571428572 199.15343915343917,86.34920634920636 198.94179894179896,86.98412698412699 198.73015873015873,87.61904761904762 198.51851851851853,88.25396825396827 198.30687830687833,88.8888888888889 198.30687830687833,89.52380952380953 198.0952380952381,90.15873015873017 197.8835978835979,90.7936507936508 197.8835978835979,91.42857142857143 197.6719576719577,92.06349206349208 197.46031746031747,92.69841269841271 197.46031746031747,93.33333333333334 197.46031746031747,93.96825396825398 197.46031746031747,94.60317460317461 197.46031746031747,95.23809523809524 197.46031746031747,95.87301587301587 197.6719576719577,96.50793650793652 197.8835978835979,97.14285714285715 198.30687830687833,97.77777777777779 198.73015873015873,98.2010582010582 199.15343915343917,98.83597883597885 199.5767195767196,99.25925925925927 200.00000000000003,99.68253968253968 200.42328042328043,100.10582010582011 201.05820105820106,100.31746031746033 201.4814814814815,100.74074074074075 202.11640211640213,101.16402116402116 202.75132275132276,101.37566137566138 203.3862433862434,101.79894179894181 204.02116402116403,101.79894179894181 204.65608465608466,102.01058201058201 205.29100529100532,102.22222222222223 205.92592592592595,102.22222222222223 206.56084656084658,102.22222222222223 207.19576719576722,102.43386243386244 207.83068783068785,102.43386243386244 208.46560846560848,102.22222222222223 209.10052910052912,102.22222222222223 209.73544973544975,102.22222222222223 210.37037037037038,102.22222222222223 211.005291005291,102.22222222222223 211.64021164021165,102.01058201058201 212.27513227513228,102.01058201058201 212.91005291005294,101.79894179894181 213.54497354497357,102.01058201058201 214.1798941798942,102.01058201058201 214.81481481481484,102.01058201058201 215.44973544973547,101.79894179894181 216.0846560846561,101.5873015873016 216.71957671957674,101.5873015873016 217.35449735449737,101.79894179894181 217.989417989418,101.79894179894181 218.62433862433863,101.79894179894181 219.25925925925927,102.01058201058201 219.8941798941799,102.22222222222223 220.52910052910053,102.43386243386244 221.1640211640212,102.64550264550266 221.79894179894183,102.85714285714286 222.43386243386246,103.06878306878308 223.0687830687831,103.28042328042329 223.49206349206352,103.70370370370371 224.12698412698415,103.91534391534393 224.7619047619048,104.33862433862434 225.1851851851852,104.76190476190477 225.82010582010582,105.18518518518519 226.45502645502648,105.60846560846562 227.08994708994712,106.03174603174604 227.51322751322752,106.45502645502647 228.14814814814815,106.87830687830689 228.57142857142858,107.3015873015873 228.99470899470901,107.72486772486774 229.41798941798945,108.14814814814815 229.84126984126985,108.57142857142858 230.26455026455028,108.994708994709 230.6878306878307,109.41798941798943 231.11111111111114,110.05291005291006 231.53439153439155,110.6878306878307 231.95767195767198,111.32275132275133 232.3809523809524,111.95767195767196 232.5925925925926,112.5925925925926 233.01587301587304,113.22751322751324 233.22751322751324,113.86243386243387 233.43915343915344,114.49735449735451 233.65079365079367,115.13227513227514 233.86243386243387,115.76719576719577 233.86243386243387,116.4021164021164 234.0740740740741,117.03703703703705 234.2857142857143,117.67195767195768 234.2857142857143,118.30687830687832 234.4973544973545,118.94179894179895 234.4973544973545,119.57671957671958 234.4973544973545,120.21164021164022 234.4973544973545,120.84656084656086 234.4973544973545,121.4814814814815 234.4973544973545,122.11640211640213 234.4973544973545,122.75132275132276 234.2857142857143,123.3862433862434 234.2857142857143,124.02116402116403 234.0740740740741,124.65608465608466 234.0740740740741,125.2910052910053 233.86243386243387,125.92592592592594 233.65079365079367,126.56084656084657 233.43915343915344,127.1957671957672 233.22751322751324,127.83068783068784 233.01587301587304,128.46560846560848 232.8042328042328,129.10052910052912 232.5925925925926,129.73544973544975 232.16931216931218,130.37037037037038 231.95767195767198,131.005291005291 231.53439153439155,131.64021164021165 231.11111111111114,132.06349206349208 231.11111111111114,132.6984126984127 230.6878306878307,133.12169312169314 230.26455026455028,133.75661375661377 229.84126984126985,134.3915343915344 229.41798941798945,135.02645502645504 228.99470899470901,135.44973544973547 228.57142857142858,136.0846560846561 228.14814814814815,136.5079365079365 227.72486772486775,136.93121693121694 227.30158730158732,137.35449735449737 226.66666666666669,137.7777777777778 226.03174603174605,138.2010582010582 225.39682539682542,138.62433862433863 224.7619047619048,139.04761904761907 224.12698412698415,139.25925925925927 223.49206349206352,139.6825396825397 222.85714285714286,139.8941798941799 222.22222222222223,140.10582010582013 221.5873015873016,140.31746031746033 220.95238095238096,140.52910052910053 220.31746031746033,140.74074074074076 219.6825396825397,140.95238095238096 219.04761904761907,140.95238095238096 218.41269841269843,141.16402116402116 217.7777777777778,141.16402116402116 217.14285714285717,141.16402116402116 216.50793650793653,141.16402116402116 215.8730158730159,141.16402116402116 215.23809523809524,140.95238095238096 214.6031746031746,140.74074074074076 213.96825396825398,140.52910052910053 213.33333333333334,140.31746031746033 212.6984126984127,140.10582010582013 212.06349206349208,139.8941798941799 211.42857142857144,139.47089947089947 210.7936507936508,139.25925925925927 210.15873015873018,138.83597883597884 209.52380952380955,138.62433862433863 209.10052910052912,138.2010582010582 208.46560846560848,137.989417989418 208.04232804232805,137.56613756613757 207.40740740740742,137.35449735449737 206.7724867724868,136.93121693121694 206.34920634920636,136.5079365079365 205.71428571428572,136.0846560846561 205.0793650793651,135.66137566137567 204.65608465608466,135.23809523809524 204.23280423280426,134.81481481481484 203.80952380952382,134.3915343915344 203.3862433862434,133.96825396825398 202.962962962963,133.54497354497354 202.53968253968256,133.12169312169314 202.11640211640213,132.6984126984127 201.4814814814815,132.27513227513228 201.05820105820106,131.85185185185185 200.63492063492066,131.21693121693121 200.21164021164023,130.7936507936508 199.7883597883598,130.37037037037038 199.15343915343917,129.94708994708995 198.73015873015873,129.31216931216932 198.0952380952381,128.88888888888889 197.46031746031747,128.46560846560848 197.03703703703704,128.04232804232805 196.4021164021164,127.61904761904763 195.76719576719577,127.40740740740742 195.13227513227514,127.1957671957672 194.4973544973545,126.98412698412699 193.86243386243387,126.56084656084657 193.22751322751324,126.34920634920636 192.5925925925926,126.34920634920636 191.95767195767198,126.13756613756615 191.32275132275134,125.92592592592594 190.6878306878307,125.92592592592594 190.05291005291008,125.71428571428572 189.41798941798945,125.71428571428572 188.78306878306879,125.71428571428572 188.14814814814815,125.71428571428572 187.51322751322752,125.71428571428572 186.8783068783069,125.71428571428572 186.24338624338625,125.71428571428572 185.60846560846562,125.92592592592594 184.973544973545,125.92592592592594 184.33862433862436,126.13756613756615 183.70370370370372,126.13756613756615 183.0687830687831,126.34920634920636 182.43386243386246,126.56084656084657 181.79894179894183,126.98412698412699 181.16402116402116,127.1957671957672 180.52910052910053,127.40740740740742 180.10582010582013,127.83068783068784 179.4708994708995,128.04232804232805 178.83597883597884,128.46560846560848 178.2010582010582,128.88888888888889 177.56613756613757,129.31216931216932 177.14285714285717,129.73544973544975 176.50793650793653,130.15873015873018 176.0846560846561,130.58201058201058 175.66137566137567,131.005291005291 175.23809523809524,131.42857142857144 174.81481481481484,131.85185185185185 174.3915343915344,132.27513227513228 174.1798941798942,132.9100529100529 173.75661375661377,133.54497354497354 173.33333333333334,133.96825396825398 173.12169312169314,134.6031746031746 172.6984126984127,135.02645502645504 172.4867724867725,135.66137566137567 172.06349206349208,136.2962962962963 171.64021164021165,136.93121693121694 171.21693121693124,137.56613756613757 171.005291005291,138.2010582010582 170.58201058201058,138.83597883597884 170.37037037037038,139.47089947089947 169.94708994708995,139.8941798941799 169.73544973544975,140.52910052910053 169.31216931216932,141.16402116402116 169.10052910052912,141.7989417989418 168.67724867724868,142.43386243386246 168.46560846560848,143.0687830687831 168.04232804232805,143.70370370370372 167.61904761904762,144.33862433862436 167.40740740740742,144.973544973545 166.984126984127,145.60846560846562 166.7724867724868,146.24338624338625 166.56084656084658,146.8783068783069 166.34920634920636,147.51322751322752 165.92592592592595,148.14814814814815 165.71428571428572,148.78306878306879 165.50264550264552,149.41798941798942 165.2910052910053,150.05291005291005 165.0793650793651,150.6878306878307 164.8677248677249,151.32275132275134 164.65608465608466,151.95767195767198 164.44444444444446,152.5925925925926 164.23280423280426,153.22751322751324 164.02116402116403,153.86243386243387 163.80952380952382,154.4973544973545 163.80952380952382,155.13227513227514 163.59788359788362,155.76719576719577 163.3862433862434,156.4021164021164 163.1746031746032,157.03703703703704 162.96296296296296,157.67195767195767 162.75132275132276,158.30687830687833 162.53968253968256,158.94179894179896 162.32804232804233,159.5767195767196 162.32804232804233,160.21164021164023 162.11640211640213,160.84656084656086 161.90476190476193,161.4814814814815 161.90476190476193,162.11640211640213 161.6931216931217,162.75132275132276 161.4814814814815,163.3862433862434 161.4814814814815,164.02116402116403 161.2698412698413,164.65608465608466 161.2698412698413,165.2910052910053 161.05820105820106,165.92592592592595 161.05820105820106,166.56084656084658 160.84656084656086,167.19576719576722 161.05820105820106,167.83068783068785 161.05820105820106,168.46560846560848 160.84656084656086,169.10052910052912 160.84656084656086,169.73544973544975 160.63492063492066,170.37037037037038 160.63492063492066,171.005291005291 160.63492063492066,171.64021164021165 160.42328042328043,172.27513227513228 160.42328042328043,172.9100529100529 160.42328042328043,173.54497354497354 160.21164021164023,174.1798941798942 160.21164021164023,174.81481481481484 160.0,175.44973544973547 159.7883597883598,176.0846560846561 159.7883597883598,176.71957671957674 159.5767195767196,177.35449735449737 159.5767195767196,177.989417989418 159.36507936507937,178.62433862433863 159.15343915343917,179.25925925925927 159.15343915343917,179.8941798941799 158.94179894179896,180.52910052910053 158.94179894179896,181.16402116402116 158.73015873015873,181.79894179894183 158.73015873015873,182.43386243386246 158.51851851851853,183.0687830687831 158.30687830687833,183.70370370370372 158.30687830687833,184.33862433862436 158.0952380952381,184.973544973545 158.0952380952381,185.60846560846562 157.8835978835979,186.24338624338625 157.46031746031747,186.8783068783069 157.46031746031747,187.51322751322752 156.82539682539684,191.11111111111111" style="fill:none; stroke:#999900; stroke-width:1.0"  /><polyline points="156.82539682539684,191.11111111111111 153.43915343915344,189.41798941798945 152.8042328042328,189.20634920634922 152.38095238095238,188.78306878306879 151.74603174603175,188.57142857142858 151.11111111111111,188.14814814814815 150.47619047619048,187.72486772486775 149.84126984126985,187.51322751322752 149.20634920634922,187.08994708994712 148.57142857142858,186.8783068783069 147.93650793650795,186.66666666666669 147.30158730158732,186.24338624338625 146.66666666666669,186.03174603174605 146.03174603174605,185.82010582010582 145.39682539682542,185.60846560846562 144.76190476190476,185.39682539682542 144.33862433862436,184.973544973545 143.70370370370372,184.7619047619048 143.0687830687831,184.55026455026456 142.43386243386246,184.33862433862436 141.7989417989418,184.12698412698415 141.16402116402116,183.70370370370372 140.52910052910053,183.4920634920635 139.8941798941799,183.2804232804233 139.25925925925927,183.0687830687831 138.62433862433863,182.85714285714286 137.989417989418,182.64550264550266 137.35449735449737,182.22222222222223 136.71957671957674,182.01058201058203 136.0846560846561,181.79894179894183 135.44973544973547,181.5873015873016 134.81481481481484,181.3756613756614 134.17989417989418,181.16402116402116 133.54497354497354,180.95238095238096 132.9100529100529,180.74074074074076 132.27513227513228,180.52910052910053 131.64021164021165,180.31746031746033 131.005291005291,180.10582010582013 130.37037037037038,179.8941798941799 129.73544973544975,179.8941798941799 129.10052910052912,179.6825396825397 128.46560846560848,179.4708994708995 127.83068783068784,179.25925925925927 127.1957671957672,179.04761904761907 126.56084656084657,178.83597883597884 125.92592592592594,178.62433862433863 125.2910052910053,178.41269841269843 124.65608465608466,178.2010582010582 124.02116402116403,177.989417989418 123.3862433862434,177.7777777777778 122.75132275132276,177.56613756613757 122.11640211640213,177.35449735449737 121.4814814814815,177.14285714285717 120.84656084656086,176.93121693121694 120.21164021164022,176.71957671957674 119.57671957671958,176.71957671957674 118.94179894179895,176.50793650793653 118.30687830687832,176.2962962962963 117.67195767195768,176.0846560846561 117.03703703703705,175.87301587301587 116.4021164021164,175.66137566137567 115.76719576719577,175.44973544973547 115.13227513227514,175.23809523809524 114.49735449735451,175.02645502645504 113.86243386243387,175.02645502645504 113.22751322751324,174.81481481481484 112.5925925925926,174.6031746031746 111.95767195767196,174.3915343915344 111.32275132275133,174.1798941798942 110.6878306878307,173.96825396825398 110.05291005291006,173.96825396825398 109.41798941798943,173.75661375661377 108.78306878306879,173.54497354497354 108.14814814814815,173.33333333333334 107.51322751322752,173.12169312169314 106.87830687830689,172.9100529100529 106.24338624338625,172.6984126984127 105.60846560846562,172.4867724867725 104.97354497354497,172.27513227513228 104.33862433862434,172.06349206349208 103.70370370370371,172.06349206349208 103.06878306878308,171.64021164021165 102.43386243386244,171.64021164021165 101.79894179894181,171.42857142857144 101.16402116402116,171.21693121693124 100.52910052910053,171.005291005291 99.8941798941799,170.7936507936508 99.25925925925927,170.58201058201058 98.62433862433863,170.37037037037038 97.989417989418,170.15873015873018 97.35449735449737,169.94708994708995 96.71957671957672,169.52380952380955 96.08465608465609,169.10052910052912 95.44973544973546,168.8888888888889 95.02645502645504,168.46560846560848 94.39153439153439,168.04232804232805 93.75661375661376,167.61904761904762 93.33333333333334,167.19576719576722 93.12169312169313,166.56084656084658 92.91005291005291,165.92592592592595 92.69841269841271,165.2910052910053 92.69841269841271,164.65608465608466 92.69841269841271,164.02116402116403 92.69841269841271,163.3862433862434 92.91005291005291,162.75132275132276 93.12169312169313,162.11640211640213 93.33333333333334,161.4814814814815 93.54497354497356,160.84656084656086 93.96825396825398,160.42328042328043 94.39153439153439,159.7883597883598 94.60317460317461,159.15343915343917 95.02645502645504,158.73015873015873 95.44973544973546,158.0952380952381 95.87301587301587,157.67195767195767 96.2962962962963,157.24867724867727 96.71957671957672,156.82539682539684 97.14285714285715,156.4021164021164 97.56613756613757,155.978835978836 98.2010582010582,155.55555555555557 98.62433862433863,155.13227513227514 99.04761904761905,154.7089947089947 99.68253968253968,154.2857142857143 100.10582010582011,153.86243386243387 100.52910052910053,153.43915343915344 100.95238095238096,153.01587301587304 101.37566137566138,152.5925925925926 101.79894179894181,152.16931216931218 102.22222222222223,151.74603174603175 102.85714285714286,151.32275132275134 103.28042328042329,150.6878306878307 103.70370370370371,150.26455026455028 104.12698412698414,149.84126984126985 104.55026455026456,149.41798941798942 104.97354497354497,148.78306878306879 105.3968253968254,148.35978835978838 105.82010582010582,147.72486772486775 106.24338624338625,147.30158730158732 106.66666666666667,146.66666666666669 107.0899470899471,146.03174603174605 107.51322751322752,145.39682539682542 107.93650793650795,144.76190476190476 108.14814814814815,144.12698412698413 108.57142857142858,143.4920634920635 108.994708994709,142.85714285714286 109.20634920634922,142.22222222222223 109.41798941798943,141.5873015873016 109.62962962962963,140.95238095238096 109.62962962962963,140.31746031746033 109.84126984126985,139.6825396825397 109.84126984126985,139.04761904761907 109.84126984126985,138.41269841269843 109.84126984126985,137.7777777777778 109.62962962962963,137.14285714285717 109.41798941798943,136.5079365079365 109.20634920634922,135.87301587301587 108.994708994709,135.23809523809524 108.78306878306879,134.6031746031746 108.35978835978837,133.96825396825398 108.14814814814815,133.33333333333334 107.72486772486774,132.9100529100529 107.3015873015873,132.4867724867725 106.87830687830689,132.06349206349208 106.45502645502647,131.42857142857144 106.03174603174604,131.005291005291 105.60846560846562,130.58201058201058 105.18518518518519,129.94708994708995 104.76190476190477,129.52380952380955 104.33862433862434,129.10052910052912 103.91534391534393,128.67724867724868 103.4920634920635,128.04232804232805 103.06878306878308,127.61904761904763 102.64550264550266,127.1957671957672 102.01058201058201,126.77248677248679 101.5873015873016,126.34920634920636 101.16402116402116,125.92592592592594 100.52910052910053,125.5026455026455 99.8941798941799,125.07936507936509 99.47089947089948,124.65608465608466 98.83597883597885,124.44444444444446 98.41269841269842,124.02116402116403 97.77777777777779,123.59788359788361 97.14285714285715,123.17460317460318 96.50793650793652,122.75132275132276 95.87301587301587,122.32804232804234 95.23809523809524,122.11640211640213 94.60317460317461,121.90476190476191 93.96825396825398,121.6931216931217 93.33333333333334,121.4814814814815 92.69841269841271,121.05820105820106 92.06349206349208,120.84656084656086 91.42857142857143,120.63492063492065 90.7936507936508,120.63492063492065 90.15873015873017,120.21164021164022 89.52380952380953,120.21164021164022 88.8888888888889,120.00000000000001 88.25396825396827,120.00000000000001 87.61904761904762,119.7883597883598 86.98412698412699,119.7883597883598 86.34920634920636,119.57671957671958 85.71428571428572,119.57671957671958 85.07936507936509,119.57671957671958 84.44444444444446,119.57671957671958 83.80952380952381,119.57671957671958 83.17460317460318,119.57671957671958 82.53968253968254,119.57671957671958 81.90476190476191,119.57671957671958 81.26984126984128,119.7883597883598 80.63492063492065,119.7883597883598 80.0,119.7883597883598 79.36507936507937,120.00000000000001 78.73015873015873,120.00000000000001 78.0952380952381,120.21164021164022 77.46031746031747,120.21164021164022 76.82539682539684,120.42328042328043 76.19047619047619,120.63492063492065 75.55555555555556,120.84656084656086 74.92063492063492,121.05820105820106 74.28571428571429,121.4814814814815 73.65079365079366,121.6931216931217 73.22751322751323,122.11640211640213 72.80423280423281,122.53968253968254 72.16931216931218,122.96296296296298 71.74603174603175,123.3862433862434 71.32275132275133,124.02116402116403 70.8994708994709,124.65608465608466 70.47619047619048,125.2910052910053 70.26455026455027,125.92592592592594 69.84126984126985,126.34920634920636 69.62962962962963,126.98412698412699 69.20634920634922,127.61904761904763 68.994708994709,128.25396825396825 68.78306878306879,128.88888888888889 68.57142857142858,129.52380952380955 68.35978835978837,130.15873015873018 68.14814814814815,130.7936507936508 68.14814814814815,131.42857142857144 67.93650793650794,132.06349206349208 67.72486772486774,132.6984126984127 67.72486772486774,133.33333333333334 67.72486772486774,133.96825396825398 67.72486772486774,134.6031746031746 67.51322751322752,135.23809523809524 67.51322751322752,135.87301587301587 67.51322751322752,136.5079365079365 67.51322751322752,137.14285714285717 67.51322751322752,137.7777777777778 67.51322751322752,138.41269841269843 67.51322751322752,139.04761904761907 67.72486772486774,139.6825396825397 67.72486772486774,140.31746031746033 67.72486772486774,140.95238095238096 67.72486772486774,141.5873015873016 67.72486772486774,142.22222222222223 67.72486772486774,142.85714285714286 67.93650793650794,143.4920634920635 67.72486772486774,144.12698412698413 67.72486772486774,144.76190476190476 67.72486772486774,145.39682539682542 67.51322751322752,146.03174603174605 67.51322751322752,146.66666666666669 67.3015873015873,147.30158730158732 67.08994708994709,147.93650793650795 66.66666666666667,148.57142857142858 66.45502645502646,149.20634920634922 66.03174603174604,149.84126984126985 65.60846560846561,150.26455026455028 65.18518518518519,150.6878306878307 64.55026455026456,151.11111111111111 63.91534391534392,151.32275132275134 63.280423280423285,151.53439153439155 62.64550264550265,151.74603174603175 62.01058201058201,151.74603174603175 61.37566137566138,151.74603174603175 60.74074074074075,151.74603174603175 60.10582010582011,151.53439153439155 59.470899470899475,151.74603174603175 58.83597883597884,151.53439153439155 58.2010582010582,151.32275132275134 57.56613756613757,151.11111111111111 56.93121693121694,150.8994708994709 56.2962962962963,150.6878306878307 55.87301587301588,150.26455026455028 55.23809523809524,150.05291005291005 54.60317460317461,149.62962962962965 53.968253968253975,149.41798941798942 53.333333333333336,148.99470899470901 52.6984126984127,148.57142857142858 52.06349206349207,148.14814814814815 51.42857142857143,147.93650793650795 51.00529100529101,147.51322751322752 50.370370370370374,147.30158730158732 49.94708994708995,146.8783068783069 49.31216931216932,146.66666666666669 48.677248677248684,146.24338624338625 48.042328042328045,145.82010582010582 47.40740740740741,145.60846560846562 46.77248677248678,145.39682539682542 46.13756613756614,144.973544973545 45.50264550264551,144.76190476190476 44.867724867724874,144.33862433862436 44.232804232804234,144.12698412698413 43.5978835978836,143.70370370370372 42.96296296296297,143.4920634920635 42.32804232804233,143.2804232804233 41.6931216931217,142.85714285714286 41.058201058201064,142.64550264550266 40.423280423280424,142.43386243386246 39.78835978835979,142.22222222222223 39.15343915343916,141.7989417989418 38.51851851851852,141.5873015873016 37.883597883597886,141.3756613756614 37.248677248677254,140.95238095238096 36.613756613756614,140.74074074074076 35.97883597883598,140.52910052910053 35.34391534391535,140.31746031746033 34.70899470899471,140.10582010582013 34.074074074074076,139.8941798941799 33.43915343915344,139.6825396825397 32.804232804232804,139.47089947089947 32.16931216931217,139.25925925925927 31.53439153439154,139.04761904761907 30.899470899470902,138.83597883597884 30.264550264550266,138.62433862433863 29.629629629629633,138.41269841269843 28.994708994708997,138.2010582010582 28.35978835978836,137.989417989418 27.724867724867728,137.7777777777778 27.089947089947092,137.56613756613757 26.455026455026456,137.35449735449737 25.820105820105823,137.14285714285717 25.185185185185187,137.14285714285717 24.55026455026455,137.14285714285717 23.915343915343918,136.93121693121694 23.280423280423282,136.71957671957674 22.645502645502646,136.71957671957674 22.010582010582013,136.5079365079365 21.375661375661377,136.2962962962963 20.740740740740744,136.2962962962963 20.105820105820108,136.0846560846561 19.47089947089947,135.87301587301587 18.83597883597884,135.87301587301587 18.201058201058203,135.66137566137567 17.566137566137566,135.66137566137567 16.931216931216934,135.44973544973547 16.296296296296298,135.23809523809524 15.661375661375663,135.23809523809524 15.026455026455027,135.02645502645504 14.391534391534393,135.02645502645504 13.756613756613758,134.81481481481484 13.121693121693122,134.81481481481484 12.486772486772487,134.81481481481484 11.851851851851853,134.6031746031746 11.216931216931219,134.6031746031746 10.582010582010582,134.6031746031746 9.947089947089948,134.3915343915344 9.312169312169313,134.3915343915344 8.677248677248677,134.3915343915344 8.042328042328043,134.3915343915344 7.407407407407408,134.17989417989418 6.772486772486773,134.17989417989418 6.137566137566138,134.17989417989418 5.502645502645503,134.17989417989418 4.867724867724868,134.17989417989418 4.2328042328042335,134.17989417989418 3.597883597883598,134.17989417989418 0.21164021164021166,133.96825396825398" style="fill:none; stroke:#00aa99; stroke-width:1.0"  /><polyline points="0.21164021164021166,133.96825396825398 0.634920634920635,130.58201058201058 0.8465608465608466,129.94708994708995 0.8465608465608466,129.31216931216932 0.8465608465608466,128.67724867724868 1.0582010582010584,128.04232804232805 1.0582010582010584,127.40740740740742 1.26984126984127,126.77248677248679 1.26984126984127,126.13756613756615 1.26984126984127,125.5026455026455 1.4814814814814816,124.86772486772487 1.4814814814814816,124.23280423280424 1.4814814814814816,123.59788359788361 1.4814814814814816,122.96296296296298 1.6931216931216932,122.32804232804234 1.6931216931216932,121.6931216931217 1.6931216931216932,121.05820105820106 1.6931216931216932,120.42328042328043 1.6931216931216932,119.7883597883598 1.6931216931216932,119.15343915343917 1.6931216931216932,118.51851851851853 1.6931216931216932,117.88359788359789 1.6931216931216932,117.24867724867725 1.6931216931216932,116.61375661375662 1.6931216931216932,115.97883597883599 1.4814814814814816,115.34391534391536 1.4814814814814816,114.70899470899472 1.4814814814814816,114.07407407407408 1.4814814814814816,113.43915343915344 1.4814814814814816,112.80423280423281 1.4814814814814816,112.16931216931218 1.4814814814814816,111.53439153439155 1.4814814814814816,110.89947089947091 1.4814814814814816,110.26455026455027 1.4814814814814816,109.62962962962963 1.4814814814814816,108.994708994709 1.4814814814814816,108.35978835978837 1.4814814814814816,107.72486772486774 1.4814814814814816,107.0899470899471 1.6931216931216932,106.45502645502647 1.6931216931216932,105.82010582010582 1.9047619047619049,105.18518518518519 1.9047619047619049,104.55026455026456 1.9047619047619049,103.91534391534393 2.1164021164021167,103.28042328042329 2.1164021164021167,102.64550264550266 2.1164021164021167,102.01058201058201 2.3280423280423284,101.37566137566138 2.3280423280423284,100.74074074074075 2.53968253968254,100.10582010582011 2.53968253968254,99.47089947089948 2.7513227513227516,98.83597883597885 2.53968253968254,98.2010582010582 2.7513227513227516,97.56613756613757 2.9629629629629632,96.93121693121694 2.9629629629629632,96.2962962962963 3.174603174603175,95.66137566137567 3.3862433862433865,95.02645502645504 3.597883597883598,94.39153439153439 3.597883597883598,93.75661375661376 3.8095238095238098,93.12169312169313 4.021164021164021,92.4867724867725 4.2328042328042335,91.85185185185186 4.444444444444445,91.21693121693123 4.656084656084657,90.58201058201058 4.867724867724868,89.94708994708995 5.07936507936508,89.31216931216932 5.291005291005291,88.67724867724868 5.502645502645503,88.04232804232805 5.714285714285714,87.40740740740742 5.9259259259259265,86.77248677248677 6.34920634920635,86.13756613756614 6.560846560846561,85.5026455026455 6.772486772486773,84.86772486772487 6.984126984126985,84.23280423280424 7.407407407407408,83.59788359788361 7.6190476190476195,82.96296296296298 7.830687830687832,82.32804232804233 8.253968253968255,81.6931216931217 8.465608465608467,81.05820105820106 8.88888888888889,80.63492063492065 9.100529100529101,80.0 9.523809523809524,79.57671957671958 9.735449735449736,78.94179894179895 10.15873015873016,78.51851851851852 10.582010582010582,78.0952380952381 11.005291005291006,77.46031746031747 11.428571428571429,76.82539682539684 11.851851851851853,76.4021164021164 12.275132275132275,75.76719576719577 12.6984126984127,75.34391534391536 13.121693121693122,74.92063492063492 13.756613756613758,74.49735449735451 14.17989417989418,74.07407407407408 14.814814814814817,73.65079365079366 15.449735449735451,73.22751322751323 16.084656084656086,73.01587301587303 16.71957671957672,72.80423280423281 17.354497354497354,72.5925925925926 17.98941798941799,72.5925925925926 18.624338624338627,72.5925925925926 19.25925925925926,72.5925925925926 19.894179894179896,72.80423280423281 20.529100529100532,73.01587301587303 21.164021164021165,73.43915343915344 21.58730158730159,73.86243386243387 22.010582010582013,74.28571428571429 22.433862433862437,74.70899470899471 22.645502645502646,75.34391534391536 23.06878306878307,75.97883597883599 23.280423280423282,76.61375661375662 23.703703703703706,77.24867724867725 23.915343915343918,77.88359788359789 24.338624338624342,78.51851851851852 24.338624338624342,79.15343915343917 24.761904761904763,79.57671957671958 25.185185185185187,80.21164021164022 25.3968253968254,80.84656084656085 25.60846560846561,81.48148148148148 25.820105820105823,82.11640211640213 26.243386243386244,82.75132275132276 26.455026455026456,83.3862433862434 26.666666666666668,84.02116402116403 27.089947089947092,84.44444444444446 27.301587301587304,85.07936507936509 27.513227513227516,85.71428571428572 27.724867724867728,86.34920634920636 28.14814814814815,86.77248677248677 28.35978835978836,87.40740740740742 28.571428571428573,88.04232804232805 28.994708994708997,88.67724867724868 29.41798941798942,89.31216931216932 29.841269841269842,89.94708994708995 30.264550264550266,90.37037037037038 30.68783068783069,91.00529100529101 31.111111111111114,91.42857142857143 31.746031746031747,91.85185185185186 32.16931216931217,92.27513227513228 32.592592592592595,92.69841269841271 33.22751322751323,93.12169312169313 33.65079365079365,93.54497354497356 34.28571428571429,93.96825396825398 34.920634920634924,94.17989417989419 35.34391534391535,94.60317460317461 35.97883597883598,94.81481481481482 36.613756613756614,95.02645502645504 37.248677248677254,95.44973544973546 37.883597883597886,95.66137566137567 38.51851851851852,95.66137566137567 39.15343915343916,95.66137566137567 39.78835978835979,95.87301587301587 40.423280423280424,95.66137566137567 41.058201058201064,95.87301587301587 41.6931216931217,95.66137566137567 42.32804232804233,95.44973544973546 42.96296296296297,95.23809523809524 43.5978835978836,95.02645502645504 44.021164021164026,94.60317460317461 44.65608465608466,94.17989417989419 45.29100529100529,93.75661375661376 45.714285714285715,93.33333333333334 46.13756613756614,92.69841269841271 46.560846560846564,92.27513227513228 46.98412698412699,91.85185185185186 47.195767195767196,91.21693121693123 47.61904761904762,90.7936507936508 47.830687830687836,90.15873015873017 48.25396825396826,89.52380952380953 48.677248677248684,88.8888888888889 49.1005291005291,88.25396825396827 49.31216931216932,87.61904761904762 49.73544973544974,86.98412698412699 50.158730158730165,86.34920634920636 50.370370370370374,85.71428571428572 50.58201058201058,85.07936507936509 51.00529100529101,84.65608465608466 51.21693121693122,84.02116402116403 51.640211640211646,83.3862433862434 52.06349206349207,82.75132275132276 52.27513227513228,82.11640211640213 52.6984126984127,81.48148148148148 52.91005291005291,80.84656084656085 53.333333333333336,80.21164021164022 53.54497354497355,79.57671957671958 53.968253968253975,78.94179894179895 54.179894179894184,78.30687830687832 54.60317460317461,77.67195767195767 54.81481481481482,77.03703703703704 55.23809523809524,76.4021164021164 55.449735449735456,75.76719576719577 55.87301587301588,75.13227513227514 56.08465608465609,74.49735449735451 56.50793650793651,73.86243386243387 56.71957671957672,73.22751322751323 57.142857142857146,72.5925925925926 57.35449735449736,71.95767195767196 57.56613756613757,71.32275132275133 57.989417989417994,70.6878306878307 58.2010582010582,70.05291005291006 58.41269841269842,69.41798941798942 58.62433862433863,68.78306878306879 59.04761904761905,68.14814814814815 59.25925925925927,67.51322751322752 59.470899470899475,66.87830687830689 59.682539682539684,66.24338624338625 59.682539682539684,65.60846560846561 60.10582010582011,64.97354497354497 60.31746031746032,64.33862433862434 60.52910052910053,63.70370370370371 60.52910052910053,63.06878306878308 60.74074074074075,62.43386243386244 60.952380952380956,61.798941798941804 61.16402116402117,61.16402116402117 61.37566137566138,60.52910052910053 61.58730158730159,59.8941798941799 61.798941798941804,59.25925925925927 62.01058201058201,58.62433862433863 62.22222222222223,57.989417989417994 62.43386243386244,57.35449735449736 62.64550264550265,56.71957671957672 62.85714285714286,56.08465608465609 63.06878306878308,55.449735449735456 63.06878306878308,54.81481481481482 63.280423280423285,54.179894179894184 63.492063492063494,53.54497354497355 63.70370370370371,52.91005291005291 63.91534391534392,52.27513227513228 63.91534391534392,51.640211640211646 64.12698412698413,51.00529100529101 64.33862433862434,50.370370370370374 64.33862433862434,49.73544973544974 64.55026455026456,49.1005291005291 64.76190476190477,48.46560846560847 64.76190476190477,47.830687830687836 64.97354497354497,47.195767195767196 64.97354497354497,46.560846560846564 65.18518518518519,45.92592592592593 65.3968253968254,45.29100529100529 65.60846560846561,44.65608465608466 65.60846560846561,44.021164021164026 65.82010582010582,43.386243386243386 65.82010582010582,42.75132275132275 66.03174603174604,42.11640211640212 66.03174603174604,41.48148148148149 66.24338624338625,40.84656084656085 66.24338624338625,40.211640211640216 66.45502645502646,39.57671957671958 66.45502645502646,38.94179894179894 66.45502645502646,38.30687830687831 66.45502645502646,37.67195767195768 66.45502645502646,37.03703703703704 66.45502645502646,36.402116402116405 66.24338624338625,35.76719576719577 66.24338624338625,35.13227513227513 66.03174603174604,34.4973544973545 65.82010582010582,33.86243386243387 65.3968253968254,33.22751322751323 65.18518518518519,32.592592592592595 64.97354497354497,31.95767195767196 64.55026455026456,31.53439153439154 64.12698412698413,30.899470899470902 63.70370370370371,30.476190476190478 63.280423280423285,30.052910052910054 62.85714285714286,29.629629629629633 62.22222222222223,29.20634920634921 61.58730158730159,28.783068783068785 60.952380952380956,28.35978835978836 60.31746031746032,28.14814814814815 59.682539682539684,27.93650793650794 59.04761904761905,27.93650793650794 58.41269841269842,27.724867724867728 57.777777777777786,27.513227513227516 57.142857142857146,27.301587301587304 56.50793650793651,27.301587301587304 55.87301587301588,27.089947089947092 55.23809523809524,27.089947089947092 54.60317460317461,27.089947089947092 53.968253968253975,27.089947089947092 53.333333333333336,27.301587301587304 52.6984126984127,27.301587301587304 52.06349206349207,27.513227513227516 51.42857142857143,27.513227513227516 50.7936507936508,27.724867724867728 50.158730158730165,27.93650793650794 49.523809523809526,28.35978835978836 48.88888888888889,28.571428571428573 48.25396825396826,28.783068783068785 47.830687830687836,29.20634920634921 47.195767195767196,29.41798941798942 46.560846560846564,29.629629629629633 45.92592592592593,29.841269841269842 45.29100529100529,30.052910052910054 44.65608465608466,30.264550264550266 44.021164021164026,30.476190476190478 43.386243386243386,30.899470899470902 42.75132275132275,31.111111111111114 42.11640211640212,31.322751322751326 41.48148148148149,31.53439153439154 40.84656084656085,31.746031746031747 40.211640211640216,31.95767195767196 39.57671957671958,32.16931216931217 38.94179894179894,32.38095238095239 38.30687830687831,32.38095238095239 37.67195767195768,32.38095238095239 37.03703703703704,32.38095238095239 36.402116402116405,32.38095238095239 35.76719576719577,32.16931216931217 35.13227513227513,32.16931216931217 34.4973544973545,31.95767195767196 33.86243386243387,31.53439153439154 33.22751322751323,31.111111111111114 32.592592592592595,30.68783068783069 31.95767195767196,30.264550264550266 31.53439153439154,29.841269841269842 31.322751322751326,29.20634920634921 31.111111111111114,28.571428571428573 30.68783068783069,28.14814814814815 30.476190476190478,27.513227513227516 30.476190476190478,26.87830687830688 30.476190476190478,26.243386243386244 30.476190476190478,25.60846560846561 30.476190476190478,24.973544973544975 30.68783068783069,24.338624338624342 30.68783068783069,23.703703703703706 30.68783068783069,23.06878306878307 30.899470899470902,22.433862433862437 30.899470899470902,21.7989417989418 31.111111111111114,21.164021164021165 31.111111111111114,20.529100529100532 31.322751322751326,19.894179894179896 31.53439153439154,19.25925925925926 31.53439153439154,18.624338624338627 31.746031746031747,17.98941798941799 31.95767195767196,17.354497354497354 32.16931216931217,16.71957671957672 32.16931216931217,16.084656084656086 32.592592592592595,15.449735449735451 32.804232804232804,14.814814814814817 33.01587301587302,14.17989417989418 33.22751322751323,13.544973544973546 33.43915343915344,12.910052910052912 33.65079365079365,12.275132275132275 34.074074074074076,11.640211640211641 34.28571428571429,11.005291005291006 34.70899470899471,10.370370370370372 34.920634920634924,9.735449735449736 35.34391534391535,9.100529100529101 35.76719576719577,8.465608465608467 36.19047619047619,7.830687830687832 36.613756613756614,7.195767195767196 37.03703703703704,6.560846560846561 37.248677248677254,5.9259259259259265 37.67195767195768,5.502645502645503 38.095238095238095,4.867724867724868 38.51851851851852,4.2328042328042335 38.730158730158735,3.597883597883598 39.15343915343916,3.174603174603175 41.48148148148149,-0.4232804232804233" style="fill:none; stroke:#3300bb; stroke-width:1.0"  /><circle cx="41.48148148148149" cy="-0.4232804232804233" r="2.0" style="fill:none; stroke:#000000aa; stroke-width:0.25" /><circle cx="206.7724867724868" cy="63.70370370370371" r="2.0" style="fill:none; stroke:#000000aa; stroke-width:0.25" /><circle cx="156.82539682539684" cy="191.11111111111111" r="2.0" style="fill:none; stroke:#000000aa; stroke-width:0.25" /><circle cx="0.21164021164021166" cy="133.96825396825398" r="2.0" style="fill:none; stroke:#000000aa; stroke-width:0.25" /><circle cx="40.63492063492064" cy="0.4232804232804233" r="2.0" style="fill:none; stroke:#ff3366aa; stroke-width:0.25" /><circle cx="206.56084656084658" cy="64.12698412698413" r="2.0" style="fill:none; stroke:#ff3366aa; stroke-width:0.25" /><circle cx="156.61375661375664" cy="190.47619047619048" r="2.0" style="fill:none; stroke:#ff3366aa; stroke-width:0.25" /><circle cx="0.4232804232804233" cy="133.75661375661377" r="2.0" style="fill:none; stroke:#ff3366aa; stroke-width:0.25" /><polyline points="52.06349206349207,2.53968253968254 51.42857142857143,2.3280423280423284 50.7936507936508,2.1164021164021167 50.158730158730165,2.1164021164021167 49.523809523809526,1.9047619047619049 48.88888888888889,1.6931216931216932 48.25396825396826,1.4814814814814816 47.61904761904762,1.26984126984127 46.98412698412699,1.0582010582010584 46.349206349206355,0.8465608465608466 45.714285714285715,0.634920634920635 45.07936507936508,0.634920634920635 44.44444444444445,0.4232804232804233 43.80952380952381,0.21164021164021166" style="fill:none; stroke:#001100; stroke-width:1.0" /><polyline points="34.70899470899471,10.370370370370372 34.920634920634924,9.735449735449736 35.34391534391535,9.100529100529101 35.76719576719577,8.465608465608467 36.19047619047619,7.830687830687832 36.613756613756614,7.195767195767196 37.03703703703704,6.560846560846561 37.248677248677254,5.9259259259259265 37.67195767195768,5.502645502645503 38.095238095238095,4.867724867724868 38.51851851851852,4.2328042328042335 38.730158730158735,3.597883597883598 39.15343915343916,3.174603174603175" style="fill:none; stroke:#000011; stroke-width:1.0" /><polyline points="202.32804232804233,74.92063492063492 202.53968253968256,74.28571428571429 202.75132275132276,73.65079365079366 203.1746031746032,73.01587301587303 203.3862433862434,72.38095238095238 203.59788359788362,71.74603174603175 203.80952380952382,71.11111111111111 204.02116402116403,70.47619047619048 204.23280423280426,69.84126984126985 204.44444444444446,69.20634920634922 204.8677248677249,68.57142857142858 205.0793650793651,67.93650793650794 205.29100529100532,67.3015873015873" style="fill:none; stroke:#001100; stroke-width:1.0" /><polyline points="194.92063492063494,62.22222222222223 195.55555555555557,62.22222222222223 196.1904761904762,62.22222222222223 196.82539682539684,62.43386243386244 197.46031746031747,62.64550264550265 198.0952380952381,62.64550264550265 198.73015873015873,62.64550264550265 199.36507936507937,62.64550264550265 200.00000000000003,62.64550264550265 200.63492063492066,62.85714285714286 201.2698412698413,62.85714285714286 201.90476190476193,62.85714285714286 202.53968253968256,62.85714285714286 203.1746031746032,63.280423280423285" style="fill:none; stroke:#000011; stroke-width:1.0" /><polyline points="146.03174603174605,185.82010582010582 146.66666666666669,186.03174603174605 147.30158730158732,186.24338624338625 147.93650793650795,186.66666666666669 148.57142857142858,186.8783068783069 149.20634920634922,187.08994708994712 149.84126984126985,187.51322751322752 150.47619047619048,187.72486772486775 151.11111111111111,188.14814814814815 151.74603174603175,188.57142857142858 152.38095238095238,188.78306878306879 152.8042328042328,189.20634920634922 153.43915343915344,189.41798941798945" style="fill:none; stroke:#001100; stroke-width:1.0" /><polyline points="159.15343915343917,179.25925925925927 159.15343915343917,179.8941798941799 158.94179894179896,180.52910052910053 158.94179894179896,181.16402116402116 158.73015873015873,181.79894179894183 158.73015873015873,182.43386243386246 158.51851851851853,183.0687830687831 158.30687830687833,183.70370370370372 158.30687830687833,184.33862433862436 158.0952380952381,184.973544973545 158.0952380952381,185.60846560846562 157.8835978835979,186.24338624338625 157.46031746031747,186.8783068783069 157.46031746031747,187.51322751322752" style="fill:none; stroke:#000011; stroke-width:1.0" /><polyline points="1.6931216931216932,122.32804232804234 1.4814814814814816,122.96296296296298 1.4814814814814816,123.59788359788361 1.4814814814814816,124.23280423280424 1.4814814814814816,124.86772486772487 1.26984126984127,125.5026455026455 1.26984126984127,126.13756613756615 1.26984126984127,126.77248677248679 1.0582010582010584,127.40740740740742 1.0582010582010584,128.04232804232805 0.8465608465608466,128.67724867724868 0.8465608465608466,129.31216931216932 0.8465608465608466,129.94708994708995 0.634920634920635,130.58201058201058" style="fill:none; stroke:#001100; stroke-width:1.0" /><polyline points="11.851851851851853,134.6031746031746 11.216931216931219,134.6031746031746 10.582010582010582,134.6031746031746 9.947089947089948,134.3915343915344 9.312169312169313,134.3915343915344 8.677248677248677,134.3915343915344 8.042328042328043,134.3915343915344 7.407407407407408,134.17989417989418 6.772486772486773,134.17989417989418 6.137566137566138,134.17989417989418 5.502645502645503,134.17989417989418 4.867724867724868,134.17989417989418 4.2328042328042335,134.17989417989418 3.597883597883598,134.17989417989418" style="fill:none; stroke:#000011; stroke-width:1.0" /><polyline points="43.80952380952381,0.21164021164021166 23.492063492063494,-5.502645502645503" style="fill:none; stroke:#ffaa00; stroke-width:0.4" /><polyline points="39.15343915343916,3.174603174603175 50.370370370370374,-14.814814814814817" style="fill:none; stroke:#aaff00; stroke-width:0.4" /><polyline points="205.29100529100532,67.3015873015873 212.91005291005294,47.61904761904762" style="fill:none; stroke:#ffaa00; stroke-width:0.4" /><polyline points="203.1746031746032,63.280423280423285 224.12698412698415,66.03174603174604" style="fill:none; stroke:#aaff00; stroke-width:0.4" /><polyline points="153.43915343915344,189.41798941798945 172.4867724867725,198.73015873015873" style="fill:none; stroke:#ffaa00; stroke-width:0.4" /><polyline points="157.46031746031747,187.51322751322752 153.22751322751324,208.25396825396828" style="fill:none; stroke:#aaff00; stroke-width:0.4" /><polyline points="0.634920634920635,130.58201058201058 -2.1164021164021167,151.53439153439155" style="fill:none; stroke:#ffaa00; stroke-width:0.4" /><polyline points="3.597883597883598,134.17989417989418 -17.566137566137566,133.12169312169314" style="fill:none; stroke:#aaff00; stroke-width:0.4" /><circle cx="113.86243386243387" cy="95.44973544973546" r="1.0" style="fill:#444444; stroke-width:0" /><circle cx="141.5873015873016" cy="97.56613756613757" r="10.582010582010582" style="fill:#ff770022; stroke-width:0" /><circle cx="141.5873015873016" cy="97.56613756613757" r="1.0" style="fill:#ff7700; stroke-width:0" /></svg>