<?xml version="1.0" encoding="UTF-8" standalone="no"?><svg width="552.3809523809524" height="537.7777777777778" viewBox="-10 -10 204.12698412698415 199.25925925925927" xmlns="http://www.w3.org/2000/svg" xmlns:xlink="http://www.w3.org/1999/xlink"><polyline points="23.492063492063494,-0.21164021164021166 27.301587301587304,0.4232804232804233 27.93650793650794,0.4232804232804233 28.571428571428573,0.4232804232804233 29.20634920634921,0.4232804232804233 29.841269841269842,0.4232804232804233 30.476190476190478,0.634920634920635 31.111111111111114,0.8465608465608466 31.746031746031747,0.8465608465608466 32.38095238095239,1.0582010582010584 33.01587301587302,1.26984126984127 33.65079365079365,1.4814814814814816 34.28571428571429,1.4814814814814816 34.920634920634924,1.6931216931216932 35.55555555555556,1.9047619047619049 36.19047619047619,2.1164021164021167 36.82539682539683,2.3280423280423284 37.46031746031746,2.53968253968254 38.095238095238095,2.7513227513227516 38.730158730158735,2.9629629629629632 39.36507936507937,2.9629629629629632 40.0,3.174603174603175 40.63492063492064,3.3862433862433865 41.26984126984127,3.597883597883598 41.904761904761905,3.8095238095238098 42.539682539682545,4.021164021164021 43.17460317460318,4.2328042328042335 43.80952380952381,4.444444444444445 44.44444444444445,4.656084656084657 45.07936507936508,4.867724867724868 45.714285714285715,5.07936507936508 46.349206349206355,5.291005291005291 46.98412698412699,5.714285714285714 47.61904761904762,5.9259259259259265 48.25396825396826,6.137566137566138 48.88888888888889,6.34920634920635 49.523809523809526,6.560846560846561 50.158730158730165,6.772486772486773 50.7936507936508,7.195767195767196 51.42857142857143,7.407407407407408 52.06349206349207,7.6190476190476195 52.6984126984127,8.042328042328043 53.333333333333336,8.253968253968255 53.968253968253975,8.465608465608467 54.60317460317461,8.465608465608467 55.23809523809524,8.677248677248677 55.87301587301588,8.88888888888889 56.50793650793651,9.312169312169313 57.142857142857146,9.523809523809524 57.777777777777786,9.735449735449736 58.41269841269842,9.947089947089948 59.04761904761905,10.370370370370372 59.682539682539684,10.582010582010582 60.31746031746032,10.793650793650794 60.74074074074075,11.216931216931219 61.37566137566138,11.428571428571429 62.01058201058201,11.851851851851853 62.64550264550265,12.063492063492065 63.280423280423285,12.275132275132275 63.91534391534392,12.486772486772487 64.55026455026456,12.910052910052912 65.18518518518519,13.121693121693122 65.82010582010582,13.544973544973546 66.45502645502646,13.756613756613758 67.08994708994709,14.17989417989418 67.72486772486774,14.391534391534393 68.35978835978837,14.603174603174605 68.78306878306879,15.026455026455027 69.41798941798942,15.238095238095239 70.05291005291006,15.449735449735451 70.47619047619048,15.873015873015873 71.11111111111111,16.296296296296298 71.74603174603175,16.50793650793651 72.38095238095238,16.71957671957672 72.80423280423281,17.142857142857146 73.43915343915344,17.566137566137566 74.07407407407408,17.77777777777778 74.70899470899471,18.201058201058203 75.34391534391536,18.624338624338627 75.97883597883599,18.83597883597884 76.4021164021164,19.25925925925926 77.03703703703704,19.47089947089947 77.67195767195767,19.894179894179896 78.30687830687832,20.105820105820108 78.73015873015873,20.529100529100532 79.36507936507937,20.952380952380953 80.0,21.375661375661377 80.63492063492065,21.58730158730159 81.05820105820106,22.010582010582013 81.6931216931217,22.222222222222225 82.32804232804233,22.645502645502646 82.96296296296298,23.06878306878307 83.3862433862434,23.492063492063494 84.02116402116403,23.915343915343918 84.65608465608466,24.12698412698413 85.29100529100529,24.55026455026455 85.92592592592594,24.973544973544975 86.56084656084657,25.3968253968254 87.1957671957672,25.820105820105823 87.61904761904762,26.243386243386244 88.04232804232805,26.666666666666668 88.67724867724868,27.089947089947092 89.1005291005291,27.513227513227516 89.52380952380953,27.93650793650794 89.94708994708995,28.35978835978836 90.15873015873017,28.994708994708997 90.37037037037038,29.629629629629633 90.58201058201058,30.264550264550266 90.7936507936508,30.899470899470902 90.7936507936508,31.53439153439154 90.58201058201058,32.16931216931217 90.37037037037038,32.804232804232804 90.15873015873017,33.43915343915344 89.94708994708995,34.074074074074076 89.52380952380953,34.4973544973545 89.1005291005291,35.13227513227513 88.67724867724868,35.55555555555556 88.25396825396827,35.97883597883598 87.61904761904762,36.402116402116405 86.98412698412699,36.82539682539683 86.34920634920636,37.248677248677254 85.71428571428572,37.46031746031746 85.07936507936509,37.67195767195768 84.44444444444446,37.883597883597886 84.02116402116403,38.30687830687831 83.3862433862434,38.51851851851852 82.75132275132276,38.94179894179894 82.11640211640213,39.15343915343916 81.48148148148148,39.57671957671958 80.84656084656085,39.78835978835979 80.21164021164022,40.211640211640216 79.57671957671958,40.423280423280424 78.94179894179895,40.84656084656085 78.30687830687832,41.058201058201064 77.67195767195767,41.48148148148149 77.03703703703704,41.904761904761905 76.4021164021164,42.11640211640212 75.97883597883599,42.539682539682545 75.34391534391536,42.96296296296297 74.70899470899471,43.386243386243386 74.07407407407408,43.80952380952381 73.65079365079366,44.232804232804234 73.22751322751323,44.65608465608466 72.80423280423281,45.07936507936508 72.38095238095238,45.50264550264551 71.95767195767196,46.13756613756614 71.74603174603175,46.77248677248678 71.53439153439155,47.40740740740741 71.53439153439155,48.042328042328045 71.32275132275133,48.677248677248684 71.11111111111111,49.31216931216932 71.11111111111111,49.94708994708995 71.11111111111111,50.58201058201058 71.32275132275133,51.21693121693122 71.53439153439155,51.851851851851855 71.53439153439155,52.48677248677249 71.95767195767196,52.91005291005291 72.16931216931218,53.54497354497355 72.5925925925926,54.179894179894184 73.01587301587303,54.81481481481482 73.43915343915344,55.23809523809524 73.86243386243387,55.87301587301588 74.28571428571429,56.2962962962963 74.70899470899471,56.71957671957672 75.13227513227514,57.142857142857146 75.55555555555556,57.56613756613757 75.97883597883599,57.989417989417994 76.4021164021164,58.41269841269842 76.82539682539684,58.83597883597884 77.24867724867725,59.470899470899475 77.67195767195767,59.8941798941799 78.30687830687832,60.31746031746032 78.73015873015873,60.74074074074075 79.15343915343917,61.16402116402117 79.57671957671958,61.58730158730159 80.0,62.01058201058201 80.63492063492065,62.43386243386244 81.05820105820106,62.85714285714286 81.48148148148148,63.280423280423285 82.11640211640213,63.70370370370371 82.53968253968254,64.12698412698413 83.17460317460318,64.55026455026456 83.80952380952381,64.97354497354497 84.44444444444446,65.18518518518519 84.86772486772487,65.60846560846561 85.5026455026455,65.82010582010582 86.13756613756614,66.24338624338625 86.77248677248677,66.45502645502646 87.40740740740742,66.87830687830689 88.04232804232805,67.3015873015873 88.67724867724868,67.51322751322752 89.31216931216932,67.93650793650794 89.94708994708995,67.93650793650794 90.58201058201058,68.35978835978837 91.21693121693123,68.57142857142858 91.85185185185186,68.994708994709 92.4867724867725,69.41798941798942 93.12169312169313,69.62962962962963 93.75661375661376,70.05291005291006 94.39153439153439,70.05291005291006 95.02645502645504,70.26455026455027 95.66137566137567,70.6878306878307 96.2962962962963,70.8994708994709 96.93121693121694,71.11111111111111 97.56613756613757,71.32275132275133 98.2010582010582,71.53439153439155 98.83597883597885,71.74603174603175 99.25925925925927,72.16931216931218 99.8941798941799,72.38095238095238 100.52910052910053,72.5925925925926 101.16402116402116,72.5925925925926 101.79894179894181,72.80423280423281 102.43386243386244,73.01587301587303 103.06878306878308,73.43915343915344 103.70370370370371,73.43915343915344 104.33862433862434,73.43915343915344 104.97354497354497,73.65079365079366 105.60846560846562,73.86243386243387 106.24338624338625,74.07407407407408 106.87830687830689,74.07407407407408 107.51322751322752,74.28571428571429 108.14814814814815,74.28571428571429 108.78306878306879,74.49735449735451 109.41798941798943,74.70899470899471 110.05291005291006,74.70899470899471 110.6878306878307,74.70899470899471 111.32275132275133,74.92063492063492 111.95767195767196,74.92063492063492 112.5925925925926,74.70899470899471 113.22751322751324,74.70899470899471 113.86243386243387,74.70899470899471 114.49735449735451,74.49735449735451 115.13227513227514,74.28571428571429 115.76719576719577,74.07407407407408 116.4021164021164,73.65079365079366 117.03703703703705,73.22751322751323 117.46031746031747,72.80423280423281 118.0952380952381,72.38095238095238 118.51851851851853,71.74603174603175 118.94179894179895,71.32275132275133 119.36507936507937,70.6878306878307 119.7883597883598,70.05291005291006 120.21164021164022,69.41798941798942 120.63492063492065,68.78306878306879 120.84656084656086,68.14814814814815 121.05820105820106,67.51322751322752 121.4814814814815,66.87830687830689 121.6931216931217,66.24338624338625 121.90476190476191,65.60846560846561 122.11640211640213,64.97354497354497 122.32804232804234,64.33862433862434 122.32804232804234,63.70370370370371 122.53968253968254,63.06878306878308 122.53968253968254,62.43386243386244 122.75132275132276,61.798941798941804 122.75132275132276,61.16402116402117 122.75132275132276,60.52910052910053 122.75132275132276,59.8941798941799 122.75132275132276,59.25925925925927 122.75132275132276,58.62433862433863 122.75132275132276,57.989417989417994 122.75132275132276,57.35449735449736 122.75132275132276,56.71957671957672 122.75132275132276,56.08465608465609 122.75132275132276,55.449735449735456 122.75132275132276,54.81481481481482 122.53968253968254,54.179894179894184 122.53968253968254,53.54497354497355 122.53968253968254,52.91005291005291 122.53968253968254,52.27513227513228 122.53968253968254,51.640211640211646 122.32804232804234,51.00529100529101 122.32804232804234,50.370370370370374 122.32804232804234,49.73544973544974 122.32804232804234,49.1005291005291 122.32804232804234,48.46560846560847 122.32804232804234,47.830687830687836 122.32804232804234,47.195767195767196 122.11640211640213,46.560846560846564 122.32804232804234,45.92592592592593 122.32804232804234,45.29100529100529 122.75132275132276,44.65608465608466 122.96296296296298,44.021164021164026 123.3862433862434,43.386243386243386 123.80952380952382,42.96296296296297 124.23280423280424,42.32804232804233 124.65608465608466,41.904761904761905 125.07936507936509,41.26984126984127 125.71428571428572,41.26984126984127 126.13756613756615,40.84656084656085 126.77248677248679,40.423280423280424 127.1957671957672,40.0 127.83068783068784,40.0 128.25396825396825,39.57671957671958 128.88888888888889,39.57671957671958 129.52380952380955,39.36507936507937 130.15873015873018,39.15343915343916 130.7936507936508,38.730158730158735 131.42857142857144,38.730158730158735 132.4867724867725,38.51851851851852 133.12169312169314,38.730158730158735 133.54497354497354,38.30687830687831 134.17989417989418,38.30687830687831 134.81481481481484,38.095238095238095 135.44973544973547,38.51851851851852 136.0846560846561,38.30687830687831 136.71957671957674,38.30687830687831 137.35449735449737,38.30687830687831 137.989417989418,38.51851851851852 138.62433862433863,38.30687830687831 139.25925925925927,38.730158730158735 139.8941798941799,38.730158730158735 140.52910052910053,38.730158730158735 141.16402116402116,38.730158730158735 141.7989417989418,38.94179894179894 142.43386243386246,39.15343915343916 143.0687830687831,39.15343915343916 143.70370370370372,39.57671957671958 144.33862433862436,39.57671957671958 144.973544973545,39.57671957671958 145.60846560846562,39.78835978835979 146.24338624338625,40.0 146.8783068783069,40.0 147.51322751322752,40.211640211640216 148.14814814814815,40.211640211640216 148.78306878306879,40.63492063492064 149.41798941798942,40.63492063492064 150.05291005291005,40.84656084656085 150.6878306878307,41.058201058201064 151.32275132275134,41.058201058201064 151.95767195767198,41.26984126984127 152.5925925925926,41.6931216931217 153.22751322751324,41.904761904761905 153.86243386243387,42.11640211640212 154.4973544973545,42.32804232804233 155.13227513227514,42.539682539682545 155.76719576719577,42.75132275132275 156.4021164021164,42.96296296296297 157.03703703703704,43.17460317460318 157.67195767195767,43.5978835978836 158.30687830687833,43.80952380952381 158.94179894179896,44.021164021164026 159.5767195767196,44.232804232804234 160.21164021164023,44.232804232804234 160.84656084656086,44.65608465608466 161.4814814814815,44.867724867724874 162.11640211640213,45.29100529100529 162.75132275132276,45.50264550264551 163.3862433862434,45.92592592592593 164.02116402116403,46.349206349206355 164.65608465608466,46.560846560846564 165.2910052910053,46.98412698412699 165.92592592592595,47.195767195767196 166.56084656084658,47.40740740740741 167.19576719576722,47.830687830687836 167.83068783068785,48.25396825396826 168.46560846560848,48.677248677248684 169.10052910052912,49.1005291005291 169.73544973544975,49.523809523809526 170.37037037037038,49.94708994708995 170.7936507936508,50.370370370370374 171.42857142857144,50.7936507936508 172.06349206349208,51.21693121693122 172.6984126984127,51.640211640211646 173.12169312169314,52.06349206349207 173.75661375661377,52.48677248677249 174.3915343915344,52.91005291005291 174.81481481481484,53.333333333333336 175.44973544973547,53.75661375661376 175.87301587301587,54.179894179894184 176.50793650793653,54.60317460317461 176.93121693121694,55.02645502645503 177.35449735449737,55.449735449735456 177.7777777777778,55.87301587301588 178.41269841269843,56.2962962962963 178.83597883597884,56.71957671957672 179.25925925925927,57.142857142857146 179.6825396825397,57.56613756613757 180.10582010582013,57.989417989417994 180.52910052910053,58.41269841269842 180.95238095238096,58.83597883597884 181.3756613756614,59.25925925925927 181.79894179894183,59.682539682539684 184.12698412698415,61.798941798941804" style="fill:none; stroke:#cc0000; stroke-width:1.0"  /><polyline points="184.12698412698415,61.798941798941804 183.70370370370372,65.82010582010582 183.70370370370372,66.45502645502646 183.70370370370372,67.08994708994709 183.4920634920635,67.72486772486774 183.4920634920635,68.35978835978837 183.4920634920635,68.994708994709 183.4920634920635,69.62962962962963 183.4920634920635,70.26455026455027 183.4920634920635,70.8994708994709 183.2804232804233,71.53439153439155 183.2804232804233,72.16931216931218 183.2804232804233,72.80423280423281 183.2804232804233,73.43915343915344 183.0687830687831,74.07407407407408 183.0687830687831,74.70899470899471 183.0687830687831,75.34391534391536 183.0687830687831,75.97883597883599 183.0687830687831,76.61375661375662 182.85714285714286,77.24867724867725 182.85714285714286,77.88359788359789 182.85714285714286,78.51851851851852 182.64550264550266,79.15343915343917 182.64550264550266,79.7883597883598 182.64550264550266,80.42328042328043 182.43386243386246,81.05820105820106 182.43386243386246,81.6931216931217 182.43386243386246,82.32804232804233 182.43386243386246,82.96296296296298 182.22222222222223,83.59788359788361 182.22222222222223,84.23280423280424 182.01058201058203,84.86772486772487 181.79894179894183,85.5026455026455 181.79894179894183,86.13756613756614 181.5873015873016,86.77248677248677 181.16402116402116,87.40740740740742 180.95238095238096,88.04232804232805 180.74074074074076,88.67724867724868 180.52910052910053,89.31216931216932 180.31746031746033,89.94708994708995 180.10582010582013,90.58201058201058 179.6825396825397,91.21693121693123 179.4708994708995,91.85185185185186 179.25925925925927,92.4867724867725 178.83597883597884,93.12169312169313 178.41269841269843,93.75661375661376 178.2010582010582,94.39153439153439 177.7777777777778,95.02645502645504 177.35449735449737,95.66137566137567 177.14285714285717,96.2962962962963 176.71957671957674,96.71957671957672 176.50793650793653,97.35449735449737 176.0846560846561,97.77777777777779 175.66137566137567,98.41269841269842 175.23809523809524,99.04761904761905 174.81481481481484,99.47089947089948 174.3915343915344,100.10582010582011 173.96825396825398,100.52910052910053 173.54497354497354,100.95238095238096 172.9100529100529,101.37566137566138 172.27513227513228,101.79894179894181 171.64021164021165,102.22222222222223 171.005291005291,102.43386243386244 170.37037037037038,102.85714285714286 169.73544973544975,103.06878306878308 169.10052910052912,103.06878306878308 168.46560846560848,103.28042328042329 167.83068783068785,103.28042328042329 167.19576719576722,103.4920634920635 166.56084656084658,103.28042328042329 165.92592592592595,103.28042328042329 165.2910052910053,103.28042328042329 164.65608465608466,103.28042328042329 164.02116402116403,103.06878306878308 163.3862433862434,103.06878306878308 162.75132275132276,102.85714285714286 162.11640211640213,102.43386243386244 161.4814814814815,102.22222222222223 160.84656084656086,101.79894179894181 160.21164021164023,101.37566137566138 159.5767195767196,101.16402116402116 158.94179894179896,100.74074074074075 158.51851851851853,100.31746031746033 157.8835978835979,99.8941798941799 157.24867724867727,99.68253968253968 156.82539682539684,99.25925925925927 156.1904761904762,99.04761904761905 155.55555555555557,98.62433862433863 154.92063492063494,98.2010582010582 154.2857142857143,97.989417989418 153.86243386243387,97.56613756613757 153.22751322751324,97.35449735449737 152.5925925925926,96.93121693121694 151.95767195767198,96.71957671957672 151.32275132275134,96.2962962962963 150.6878306878307,96.08465608465609 150.05291005291005,95.66137566137567 149.41798941798942,95.44973544973546 148.78306878306879,95.02645502645504 148.14814814814815,94.81481481481482 147.51322751322752,94.60317460317461 146.8783068783069,94.39153439153439 146.24338624338625,94.17989417989419 145.60846560846562,93.96825396825398 144.973544973545,93.96825396825398 144.33862433862436,93.75661375661376 143.70370370370372,93.75661375661376 143.0687830687831,93.75661375661376 142.43386243386246,93.75661375661376 141.7989417989418,93.96825396825398 141.16402116402116,93.96825396825398 140.52910052910053,94.17989417989419 139.8941798941799,94.39153439153439 139.25925925925927,94.60317460317461 138.83597883597884,95.02645502645504 138.2010582010582,95.23809523809524 137.56613756613757,95.66137566137567 137.14285714285717,96.08465608465609 136.5079365079365,96.50793650793652 136.0846560846561,96.93121693121694 135.66137566137567,97.35449735449737 135.23809523809524,97.77777777777779 134.81481481481484,98.2010582010582 134.3915343915344,98.83597883597885 133.96825396825398,99.25925925925927 133.54497354497354,99.68253968253968 133.12169312169314,100.31746031746033 132.9100529100529,100.95238095238096 132.4867724867725,101.37566137566138 132.06349206349208,102.01058201058201 131.85185185185185,102.64550264550266 131.42857142857144,103.06878306878308 131.21693121693121,103.70370370370371 130.7936507936508,104.12698412698414 130.58201058201058,104.76190476190477 130.15873015873018,105.3968253968254 129.94708994708995,106.03174603174604 129.52380952380955,106.66666666666667 129.31216931216932,107.3015873015873 129.10052910052912,107.93650793650795 128.88888888888889,108.57142857142858 128.67724867724868,109.20634920634922 128.46560846560848,109.84126984126985 128.25396825396825,110.47619047619048 128.25396825396825,111.11111111111111 128.25396825396825,111.74603174603176 128.25396825396825,112.3809523809524 128.25396825396825,113.01587301587303 128.25396825396825,113.65079365079366 128.46560846560848,114.28571428571429 128.67724867724868,114.92063492063492 128.88888888888889,115.55555555555557 129.31216931216932,116.1904761904762 129.73544973544975,116.82539682539684 130.15873015873018,117.24867724867725 130.58201058201058,117.67195767195768 131.005291005291,118.0952380952381 131.42857142857144,118.51851851851853 132.06349206349208,118.94179894179895 132.4867724867725,119.36507936507937 133.12169312169314,119.57671957671958 133.54497354497354,120.00000000000001 134.17989417989418,120.42328042328043 134.81481481481484,120.63492063492065 135.44973544973547,121.05820105820106 136.0846560846561,121.26984126984128 136.5079365079365,121.6931216931217 137.14285714285717,121.90476190476191 137.7777777777778,122.11640211640213 138.41269841269843,122.32804232804234 139.04761904761907,122.53968253968254 139.6825396825397,122.96296296296298 140.31746031746033,122.96296296296298 140.95238095238096,123.17460317460318 141.5873015873016,123.59788359788361 142.22222222222223,123.59788359788361 142.85714285714286,123.80952380952382 143.4920634920635,124.02116402116403 144.12698412698413,124.02116402116403 144.76190476190476,124.02116402116403 145.39682539682542,124.23280423280424 146.03174603174605,124.44444444444446 146.66666666666669,124.44444444444446 147.30158730158732,124.65608465608466 147.93650793650795,124.65608465608466 148.57142857142858,124.86772486772487 149.20634920634922,124.86772486772487 149.84126984126985,124.86772486772487 150.47619047619048,125.07936507936509 151.11111111111111,125.2910052910053 151.74603174603175,125.2910052910053 152.38095238095238,125.2910052910053 153.01587301587304,125.5026455026455 153.65079365079367,125.5026455026455 154.2857142857143,125.71428571428572 154.92063492063494,125.71428571428572 155.55555555555557,125.71428571428572 156.1904761904762,125.92592592592594 156.82539682539684,126.13756613756615 157.46031746031747,126.34920634920636 158.0952380952381,126.56084656084657 158.73015873015873,126.77248677248679 159.36507936507937,127.1957671957672 160.0,127.40740740740742 160.63492063492066,127.83068783068784 161.05820105820106,128.25396825396825 161.6931216931217,128.67724867724868 162.11640211640213,129.31216931216932 162.53968253968256,129.94708994708995 162.75132275132276,130.58201058201058 162.96296296296296,131.21693121693121 163.1746031746032,131.85185185185185 163.3862433862434,132.4867724867725 163.3862433862434,133.12169312169314 163.3862433862434,133.75661375661377 163.3862433862434,134.3915343915344 163.3862433862434,135.02645502645504 163.3862433862434,135.66137566137567 163.3862433862434,136.2962962962963 163.1746031746032,136.93121693121694 163.1746031746032,137.56613756613757 162.96296296296296,138.2010582010582 162.75132275132276,138.83597883597884 162.75132275132276,139.47089947089947 162.53968253968256,140.10582010582013 162.32804232804233,140.74074074074076 162.32804232804233,141.3756613756614 162.11640211640213,142.01058201058203 161.90476190476193,142.64550264550266 161.6931216931217,143.2804232804233 161.4814814814815,143.91534391534393 161.2698412698413,144.55026455026456 161.05820105820106,145.1851851851852 160.84656084656086,145.82010582010582 160.63492063492066,146.45502645502646 160.42328042328043,147.0899470899471 160.0,147.72486772486775 159.7883597883598,148.35978835978838 159.5767195767196,148.99470899470901 159.36507936507937,149.62962962962965 158.94179894179896,150.26455026455028 158.73015873015873,150.8994708994709 158.30687830687833,151.53439153439155 158.30687830687833,152.16931216931218 157.8835978835979,152.8042328042328 157.67195767195767,153.43915343915344 157.24867724867727,154.07407407407408 156.82539682539684,154.7089947089947 156.61375661375664,155.34391534391534 156.1904761904762,155.76719576719577 155.978835978836,156.4021164021164 155.55555555555557,157.03703703703704 155.13227513227514,157.67195767195767 154.7089947089947,158.30687830687833 154.2857142857143,158.94179894179896 153.86243386243387,159.5767195767196 153.43915343915344,160.21164021164023 153.01587301587304,160.63492063492066 152.5925925925926,161.2698412698413 152.16931216931218,161.90476190476193 151.74603174603175,162.32804232804233 151.32275132275134,162.96296296296296 150.8994708994709,163.59788359788362 150.47619047619048,164.02116402116403 150.05291005291005,164.65608465608466 149.62962962962965,165.0793650793651 149.20634920634922,165.71428571428572 148.78306878306879,166.13756613756615 148.35978835978838,166.56084656084658 147.93650793650795,166.984126984127 147.51322751322752,167.61904761904762 147.0899470899471,168.04232804232805 146.66666666666669,168.46560846560848 146.03174603174605,168.8888888888889 145.60846560846562,169.31216931216932 144.973544973545,169.52380952380955 144.33862433862436,169.94708994708995 143.91534391534393,170.37037037037038 143.2804232804233,170.7936507936508 142.85714285714286,171.21693121693124 142.22222222222223,171.64021164021165 141.5873015873016,172.06349206349208 141.16402116402116,172.4867724867725 138.62433862433863,174.3915343915344" style="fill:none; stroke:#999900; stroke-width:1.0"  /><polyline points="138.62433862433863,174.3915343915344 134.81481481481484,172.9100529100529 134.17989417989418,172.6984126984127 133.54497354497354,172.4867724867725 132.9100529100529,172.27513227513228 132.27513227513228,172.06349206349208 131.64021164021165,171.64021164021165 131.005291005291,171.42857142857144 130.37037037037038,171.21693121693124 129.73544973544975,171.005291005291 129.31216931216932,170.58201058201058 128.67724867724868,170.37037037037038 128.04232804232805,170.15873015873018 127.40740740740742,169.94708994708995 126.77248677248679,169.73544973544975 126.13756613756615,169.31216931216932 125.5026455026455,169.10052910052912 124.86772486772487,168.8888888888889 124.23280423280424,168.67724867724868 123.59788359788361,168.25396825396825 122.96296296296298,168.04232804232805 122.32804232804234,167.61904761904762 121.6931216931217,167.40740740740742 121.05820105820106,166.984126984127 120.42328042328043,166.7724867724868 119.7883597883598,166.34920634920636 119.15343915343917,165.92592592592595 118.51851851851853,165.71428571428572 117.88359788359789,165.2910052910053 117.24867724867725,165.0793650793651 116.82539682539684,164.65608465608466 116.1904761904762,164.44444444444446 115.76719576719577,164.02116402116403 115.13227513227514,163.59788359788362 114.49735449735451,163.1746031746032 113.86243386243387,162.96296296296296 113.43915343915344,162.53968253968256 112.80423280423281,162.11640211640213 112.16931216931218,161.6931216931217 111.53439153439155,161.2698412698413 110.89947089947091,160.84656084656086 110.47619047619048,160.42328042328043 110.05291005291006,160.0 109.41798941798943,159.5767195767196 108.78306878306879,159.15343915343917 108.35978835978837,158.73015873015873 107.72486772486774,158.30687830687833 107.3015873015873,157.8835978835979 106.66666666666667,157.46031746031747 106.24338624338625,157.03703703703704 105.82010582010582,156.61375661375664 105.18518518518519,156.1904761904762 104.76190476190477,155.76719576719577 104.33862433862434,155.34391534391534 103.70370370370371,154.92063492063494 103.28042328042329,154.4973544973545 102.64550264550266,154.07407407407408 102.22222222222223,153.65079365079367 101.79894179894181,153.22751322751324 101.37566137566138,152.8042328042328 100.95238095238096,152.38095238095238 100.52910052910053,151.95767195767198 99.8941798941799,151.74603174603175 99.47089947089948,151.32275132275134 99.04761904761905,150.8994708994709 98.62433862433863,150.47619047619048 98.2010582010582,150.05291005291005 97.56613756613757,149.62962962962965 97.14285714285715,149.20634920634922 96.71957671957672,148.78306878306879 96.2962962962963,148.35978835978838 95.66137566137567,147.93650793650795 95.23809523809524,147.51322751322752 94.81481481481482,147.0899470899471 94.17989417989419,146.66666666666669 93.75661375661376,146.24338624338625 93.33333333333334,145.82010582010582 92.91005291005291,145.39682539682542 92.4867724867725,144.973544973545 92.06349206349208,144.55026455026456 91.42857142857143,144.12698412698413 91.00529100529101,143.70370370370372 90.58201058201058,143.2804232804233 89.94708994708995,143.0687830687831 89.52380952380953,142.64550264550266 88.8888888888889,142.43386243386246 88.46560846560847,142.01058201058203 87.83068783068784,141.5873015873016 87.1957671957672,141.3756613756614 86.56084656084657,140.95238095238096 85.92592592592594,140.52910052910053 85.29100529100529,140.10582010582013 84.65608465608466,139.8941798941799 84.02116402116403,139.47089947089947 83.3862433862434,139.25925925925927 82.75132275132276,138.83597883597884 82.11640211640213,138.62433862433863 81.48148148148148,138.41269841269843 80.84656084656085,138.2010582010582 80.21164021164022,138.2010582010582 79.57671957671958,137.989417989418 78.94179894179895,137.56613756613757 78.30687830687832,137.56613756613757 77.67195767195767,137.35449735449737 77.03703703703704,137.35449735449737 76.4021164021164,137.14285714285717 75.76719576719577,137.14285714285717 75.13227513227514,137.14285714285717 74.49735449735451,137.14285714285717 73.86243386243387,137.14285714285717 73.22751322751323,137.14285714285717 72.5925925925926,137.14285714285717 71.95767195767196,137.14285714285717 71.32275132275133,137.14285714285717 70.6878306878307,137.14285714285717 70.05291005291006,137.14285714285717 69.41798941798942,137.35449735449737 68.78306878306879,137.35449735449737 68.14814814814815,137.56613756613757 67.51322751322752,137.7777777777778 66.87830687830689,138.2010582010582 66.24338624338625,138.41269841269843 65.60846560846561,138.62433862433863 64.97354497354497,139.04761904761907 64.55026455026456,139.47089947089947 63.91534391534392,139.8941798941799 63.492063492063494,140.31746031746033 63.06878306878308,140.74074074074076 62.64550264550265,141.16402116402116 62.22222222222223,141.7989417989418 61.798941798941804,142.43386243386246 61.58730158730159,143.0687830687831 61.37566137566138,143.70370370370372 61.16402116402117,144.33862433862436 60.952380952380956,144.973544973545 60.74074074074075,145.60846560846562 60.52910052910053,146.24338624338625 60.31746031746032,146.8783068783069 60.31746031746032,147.51322751322752 60.10582010582011,148.14814814814815 60.10582010582011,148.78306878306879 60.10582010582011,149.41798941798942 59.8941798941799,150.05291005291005 59.8941798941799,150.6878306878307 59.682539682539684,151.32275132275134 59.8941798941799,151.95767195767198 60.10582010582011,152.5925925925926 60.10582010582011,153.22751322751324 60.31746031746032,153.86243386243387 60.31746031746032,154.4973544973545 60.52910052910053,155.13227513227514 60.52910052910053,155.76719576719577 60.74074074074075,156.4021164021164 60.74074074074075,157.03703703703704 60.952380952380956,157.67195767195767 60.952380952380956,158.30687830687833 61.16402116402117,158.94179894179896 61.16402116402117,159.5767195767196 61.37566137566138,160.21164021164023 61.37566137566138,160.84656084656086 61.58730158730159,161.4814814814815 61.798941798941804,162.11640211640213 61.798941798941804,162.75132275132276 61.798941798941804,163.3862433862434 61.798941798941804,164.02116402116403 62.01058201058201,164.65608465608466 62.01058201058201,165.2910052910053 62.01058201058201,165.92592592592595 62.01058201058201,166.56084656084658 62.01058201058201,167.19576719576722 62.01058201058201,167.83068783068785 61.798941798941804,168.46560846560848 61.798941798941804,169.10052910052912 61.798941798941804,169.73544973544975 61.58730158730159,170.37037037037038 61.58730158730159,171.005291005291 61.37566137566138,171.64021164021165 61.16402116402117,172.27513227513228 60.952380952380956,172.9100529100529 60.74074074074075,173.54497354497354 60.31746031746032,174.1798941798942 60.10582010582011,174.81481481481484 59.682539682539684,175.44973544973547 59.25925925925927,175.87301587301587 58.83597883597884,176.50793650793653 58.2010582010582,176.93121693121694 57.56613756613757,177.35449735449737 56.93121693121694,177.56613756613757 56.2962962962963,177.7777777777778 55.661375661375665,177.989417989418 55.02645502645503,178.2010582010582 54.39153439153439,178.41269841269843 53.75661375661376,178.62433862433863 53.12169312169313,178.62433862433863 52.48677248677249,178.62433862433863 51.851851851851855,178.62433862433863 51.21693121693122,178.62433862433863 50.58201058201058,178.83597883597884 49.94708994708995,178.83597883597884 49.31216931216932,178.83597883597884 48.677248677248684,178.83597883597884 48.042328042328045,178.62433862433863 47.40740740740741,178.62433862433863 46.77248677248678,178.41269841269843 46.13756613756614,178.41269841269843 45.50264550264551,178.41269841269843 44.867724867724874,178.2010582010582 44.232804232804234,177.989417989418 43.5978835978836,177.7777777777778 42.96296296296297,177.56613756613757 42.32804232804233,177.56613756613757 41.6931216931217,177.35449735449737 41.058201058201064,176.93121693121694 40.423280423280424,176.71957671957674 39.78835978835979,176.50793650793653 39.15343915343916,176.2962962962963 38.51851851851852,176.0846560846561 37.883597883597886,175.66137566137567 37.248677248677254,175.44973544973547 36.613756613756614,175.23809523809524 35.97883597883598,174.81481481481484 35.34391534391535,174.6031746031746 34.70899470899471,174.1798941798942 34.074074074074076,173.96825396825398 33.65079365079365,173.54497354497354 33.01587301587302,173.12169312169314 32.38095238095239,172.9100529100529 31.95767195767196,172.4867724867725 31.322751322751326,172.06349206349208 30.899470899470902,171.64021164021165 30.476190476190478,171.21693121693124 30.052910052910054,170.7936507936508 29.629629629629633,170.37037037037038 29.20634920634921,169.94708994708995 28.783068783068785,169.31216931216932 28.571428571428573,168.67724867724868 28.14814814814815,168.04232804232805 27.93650793650794,167.40740740740742 27.93650793650794,166.7724867724868 27.93650793650794,166.13756613756615 27.93650793650794,165.50264550264552 27.93650793650794,164.8677248677249 28.14814814814815,164.23280423280426 28.14814814814815,163.59788359788362 28.35978835978836,162.96296296296296 28.571428571428573,162.32804232804233 28.783068783068785,161.6931216931217 28.783068783068785,161.05820105820106 29.20634920634921,160.42328042328043 29.41798941798942,159.7883597883598 29.841269841269842,159.15343915343917 30.264550264550266,158.51851851851853 30.68783068783069,157.8835978835979 31.111111111111114,157.24867724867727 31.53439153439154,156.82539682539684 31.95767195767196,156.1904761904762 32.38095238095239,155.55555555555557 32.804232804232804,155.13227513227514 33.22751322751323,154.4973544973545 33.65079365079365,153.86243386243387 34.074074074074076,153.43915343915344 34.4973544973545,153.01587301587304 34.920634920634924,152.5925925925926 35.13227513227513,151.95767195767198 35.55555555555556,151.53439153439155 35.97883597883598,151.11111111111111 36.402116402116405,150.47619047619048 36.82539682539683,150.05291005291005 37.248677248677254,149.62962962962965 37.67195767195768,149.20634920634922 38.095238095238095,148.78306878306879 38.51851851851852,148.35978835978838 38.94179894179894,147.72486772486775 39.36507936507937,147.30158730158732 39.78835978835979,146.66666666666669 40.0,146.03174603174605 40.423280423280424,145.60846560846562 40.63492063492064,144.973544973545 40.84656084656085,144.33862433862436 41.058201058201064,143.70370370370372 41.26984126984127,143.0687830687831 41.48148148148149,142.43386243386246 41.48148148148149,141.7989417989418 41.6931216931217,141.16402116402116 41.48148148148149,140.52910052910053 41.48148148148149,139.8941798941799 41.48148148148149,139.25925925925927 41.26984126984127,138.62433862433863 41.058201058201064,137.989417989418 40.84656084656085,137.35449735449737 40.423280423280424,136.71957671957674 40.0,136.0846560846561 39.57671957671958,135.66137566137567 39.15343915343916,135.02645502645504 38.730158730158735,134.3915343915344 38.30687830687831,133.96825396825398 37.883597883597886,133.54497354497354 37.46031746031746,133.12169312169314 37.03703703703704,132.4867724867725 36.402116402116405,132.06349206349208 35.97883597883598,131.64021164021165 35.55555555555556,131.21693121693121 35.13227513227513,130.7936507936508 34.4973544973545,130.37037037037038 34.074074074074076,129.94708994708995 33.43915343915344,129.52380952380955 32.804232804232804,129.10052910052912 32.16931216931217,128.67724867724868 31.53439153439154,128.25396825396825 30.899470899470902,127.83068783068784 30.264550264550266,127.61904761904763 29.629629629629633,127.1957671957672 28.994708994708997,126.98412698412699 28.35978835978836,126.56084656084657 27.724867724867728,126.34920634920636 27.089947089947092,126.13756613756615 26.455026455026456,125.92592592592594 25.820105820105823,125.71428571428572 25.185185185185187,125.71428571428572 24.55026455026455,125.5026455026455 23.915343915343918,125.2910052910053 23.280423280423282,125.2910052910053 22.645502645502646,125.2910052910053 22.010582010582013,125.07936507936509 21.375661375661377,125.07936507936509 20.740740740740744,124.86772486772487 20.105820105820108,124.86772486772487 19.47089947089947,125.07936507936509 18.83597883597884,125.07936507936509 18.201058201058203,124.86772486772487 17.566137566137566,124.86772486772487 16.931216931216934,124.86772486772487 16.296296296296298,124.86772486772487 15.661375661375663,124.86772486772487 15.026455026455027,124.86772486772487 14.391534391534393,124.86772486772487 13.756613756613758,124.86772486772487 13.121693121693122,124.86772486772487 12.486772486772487,124.86772486772487 11.851851851851853,124.86772486772487 11.216931216931219,124.86772486772487 10.582010582010582,124.86772486772487 9.947089947089948,124.86772486772487 9.312169312169313,125.07936507936509 8.677248677248677,125.07936507936509 8.042328042328043,125.07936507936509 7.407407407407408,125.2910052910053 6.772486772486773,125.2910052910053 6.137566137566138,125.5026455026455 5.502645502645503,125.5026455026455 4.867724867724868,125.71428571428572 4.2328042328042335,125.71428571428572 3.597883597883598,125.71428571428572 0.21164021164021166,126.13756613756615" style="fill:none; stroke:#00aa99; stroke-width:1.0"  /><polyline points="0.21164021164021166,126.13756613756615 0.8465608465608466,122.96296296296298 1.0582010582010584,122.32804232804234 1.26984126984127,121.6931216931217 1.26984126984127,121.05820105820106 1.4814814814814816,120.42328042328043 1.6931216931216932,119.7883597883598 1.9047619047619049,119.15343915343917 2.1164021164021167,118.51851851851853 2.1164021164021167,117.88359788359789 2.1164021164021167,117.24867724867725 2.3280423280423284,116.61375661375662 2.53968253968254,115.97883597883599 2.53968253968254,115.34391534391536 2.7513227513227516,114.70899470899472 2.9629629629629632,114.07407407407408 2.9629629629629632,113.43915343915344 3.174603174603175,112.80423280423281 3.174603174603175,112.16931216931218 3.3862433862433865,111.53439153439155 3.3862433862433865,110.89947089947091 3.597883597883598,110.26455026455027 3.597883597883598,109.62962962962963 3.8095238095238098,108.994708994709 3.8095238095238098,108.35978835978837 4.021164021164021,107.72486772486774 4.021164021164021,107.0899470899471 4.2328042328042335,106.45502645502647 4.2328042328042335,105.82010582010582 4.444444444444445,105.18518518518519 4.444444444444445,104.55026455026456 4.656084656084657,103.91534391534393 4.656084656084657,103.28042328042329 4.867724867724868,102.64550264550266 4.867724867724868,102.01058201058201 4.867724867724868,101.37566137566138 5.07936507936508,100.74074074074075 5.07936507936508,100.10582010582011 5.291005291005291,99.47089947089948 5.291005291005291,98.83597883597885 5.291005291005291,98.2010582010582 5.291005291005291,97.56613756613757 5.502645502645503,96.93121693121694 5.502645502645503,96.2962962962963 5.714285714285714,95.66137566137567 5.714285714285714,95.02645502645504 5.714285714285714,94.39153439153439 5.714285714285714,93.75661375661376 5.9259259259259265,93.12169312169313 5.9259259259259265,92.4867724867725 5.9259259259259265,91.85185185185186 5.9259259259259265,91.21693121693123 5.9259259259259265,90.58201058201058 6.137566137566138,89.94708994708995 6.137566137566138,89.31216931216932 6.137566137566138,88.67724867724868 6.34920634920635,88.04232804232805 6.34920634920635,87.40740740740742 6.34920634920635,86.77248677248677 6.560846560846561,86.13756613756614 6.560846560846561,85.5026455026455 6.560846560846561,84.86772486772487 6.772486772486773,84.23280423280424 6.772486772486773,83.59788359788361 6.984126984126985,82.96296296296298 6.984126984126985,82.32804232804233 6.772486772486773,81.6931216931217 6.984126984126985,81.05820105820106 7.195767195767196,80.42328042328043 7.407407407407408,79.7883597883598 7.6190476190476195,79.15343915343917 8.042328042328043,78.73015873015873 8.465608465608467,78.0952380952381 8.88888888888889,77.67195767195767 9.312169312169313,77.24867724867725 9.735449735449736,76.82539682539684 10.370370370370372,76.4021164021164 11.005291005291006,76.19047619047619 11.428571428571429,75.76719576719577 12.063492063492065,75.76719576719577 12.6984126984127,75.55555555555556 13.333333333333334,75.55555555555556 13.96825396825397,75.55555555555556 14.603174603174605,75.76719576719577 15.238095238095239,75.97883597883599 15.873015873015873,76.19047619047619 16.50793650793651,76.4021164021164 17.142857142857146,76.82539682539684 17.566137566137566,77.24867724867725 18.201058201058203,77.67195767195767 18.624338624338627,78.0952380952381 19.047619047619047,78.51851851851852 19.47089947089947,78.94179894179895 20.105820105820108,79.36507936507937 20.529100529100532,79.7883597883598 20.952380952380953,80.21164021164022 21.375661375661377,80.63492063492065 21.7989417989418,81.05820105820106 22.222222222222225,81.6931216931217 22.645502645502646,82.11640211640213 23.280423280423282,82.53968253968254 23.703703703703706,83.17460317460318 24.12698412698413,83.59788359788361 24.55026455026455,84.02116402116403 24.973544973544975,84.44444444444446 25.3968253968254,84.86772486772487 25.820105820105823,85.29100529100529 26.243386243386244,85.71428571428572 26.666666666666668,86.13756613756614 27.089947089947092,86.56084656084657 27.513227513227516,86.98412698412699 28.14814814814815,87.40740740740742 28.783068783068785,87.61904761904762 29.20634920634921,88.04232804232805 29.841269841269842,88.25396825396827 30.476190476190478,88.67724867724868 31.111111111111114,88.8888888888889 31.746031746031747,89.1005291005291 32.38095238095239,89.31216931216932 33.01587301587302,89.31216931216932 33.65079365079365,89.52380952380953 34.28571428571429,89.73544973544975 34.920634920634924,89.94708994708995 35.55555555555556,89.94708994708995 36.19047619047619,89.94708994708995 36.82539682539683,89.94708994708995 37.46031746031746,89.94708994708995 38.095238095238095,89.73544973544975 38.730158730158735,89.73544973544975 39.36507936507937,89.52380952380953 40.0,89.52380952380953 40.63492063492064,89.1005291005291 41.26984126984127,89.1005291005291 41.904761904761905,88.67724867724868 42.539682539682545,88.46560846560847 43.17460317460318,88.04232804232805 43.80952380952381,87.61904761904762 44.44444444444445,87.1957671957672 44.867724867724874,86.77248677248677 45.50264550264551,86.34920634920636 45.92592592592593,85.92592592592594 46.560846560846564,85.5026455026455 47.195767195767196,85.07936507936509 47.61904761904762,84.44444444444446 48.042328042328045,84.02116402116403 48.46560846560847,83.59788359788361 48.88888888888889,83.17460317460318 49.31216931216932,82.75132275132276 49.31216931216932,82.11640211640213 49.73544973544974,81.6931216931217 50.158730158730165,81.26984126984128 50.58201058201058,80.63492063492065 50.7936507936508,80.0 51.21693121693122,79.36507936507937 51.42857142857143,78.73015873015873 51.851851851851855,78.30687830687832 52.06349206349207,77.67195767195767 52.27513227513228,77.03703703703704 52.6984126984127,76.4021164021164 52.91005291005291,75.76719576719577 53.12169312169313,75.13227513227514 53.333333333333336,74.49735449735451 53.54497354497355,73.86243386243387 53.75661375661376,73.22751322751323 53.75661375661376,72.5925925925926 53.968253968253975,71.95767195767196 54.179894179894184,71.32275132275133 54.179894179894184,70.6878306878307 54.39153439153439,70.05291005291006 54.39153439153439,69.41798941798942 54.39153439153439,68.78306878306879 54.60317460317461,68.14814814814815 54.60317460317461,67.51322751322752 54.39153439153439,66.87830687830689 54.39153439153439,66.24338624338625 54.39153439153439,65.60846560846561 54.179894179894184,64.97354497354497 53.968253968253975,64.33862433862434 53.968253968253975,63.70370370370371 53.75661375661376,63.06878306878308 53.54497354497355,62.43386243386244 53.12169312169313,61.798941798941804 52.91005291005291,61.16402116402117 52.48677248677249,60.52910052910053 52.06349206349207,59.8941798941799 51.640211640211646,59.25925925925927 51.21693121693122,58.83597883597884 50.7936507936508,58.2010582010582 50.370370370370374,57.777777777777786 49.94708994708995,57.35449735449736 49.523809523809526,56.93121693121694 49.1005291005291,56.50793650793651 48.46560846560847,56.08465608465609 47.830687830687836,55.661375661375665 47.195767195767196,55.449735449735456 46.77248677248678,55.02645502645503 46.13756613756614,54.81481481481482 45.50264550264551,54.60317460317461 44.867724867724874,54.39153439153439 44.232804232804234,54.179894179894184 43.5978835978836,53.968253968253975 42.96296296296297,53.968253968253975 42.32804232804233,53.75661375661376 41.6931216931217,53.75661375661376 41.058201058201064,53.54497354497355 40.423280423280424,53.54497354497355 39.78835978835979,53.54497354497355 39.15343915343916,53.54497354497355 38.51851851851852,53.54497354497355 37.883597883597886,53.54497354497355 37.248677248677254,53.54497354497355 36.613756613756614,53.54497354497355 35.97883597883598,53.54497354497355 35.34391534391535,53.75661375661376 34.70899470899471,53.75661375661376 34.074074074074076,53.968253968253975 33.43915343915344,54.179894179894184 32.804232804232804,54.179894179894184 32.16931216931217,54.39153439153439 31.53439153439154,54.60317460317461 30.899470899470902,54.81481481481482 30.264550264550266,55.02645502645503 29.629629629629633,55.23809523809524 28.994708994708997,55.449735449735456 28.35978835978836,55.661375661375665 27.724867724867728,55.661375661375665 27.089947089947092,55.661375661375665 26.455026455026456,55.661375661375665 25.820105820105823,55.449735449735456 25.185185185185187,55.449735449735456 24.55026455026455,55.23809523809524 23.915343915343918,55.02645502645503 23.280423280423282,54.81481481481482 22.645502645502646,54.60317460317461 22.222222222222225,54.179894179894184 21.58730158730159,53.75661375661376 20.952380952380953,53.333333333333336 20.529100529100532,52.91005291005291 20.105820105820108,52.48677248677249 19.682539682539684,52.06349206349207 19.25925925925926,51.640211640211646 18.83597883597884,51.00529100529101 18.624338624338627,50.370370370370374 18.201058201058203,49.73544973544974 17.98941798941799,49.1005291005291 17.77777777777778,48.46560846560847 17.566137566137566,47.830687830687836 17.142857142857146,47.195767195767196 16.931216931216934,46.560846560846564 16.71957671957672,45.92592592592593 16.71957671957672,45.29100529100529 16.50793650793651,44.65608465608466 16.296296296296298,44.021164021164026 16.296296296296298,43.386243386243386 16.084656084656086,42.75132275132275 16.084656084656086,42.11640211640212 16.084656084656086,41.48148148148149 16.296296296296298,40.84656084656085 16.296296296296298,40.211640211640216 16.296296296296298,39.57671957671958 16.296296296296298,38.94179894179894 16.296296296296298,38.30687830687831 16.50793650793651,37.67195767195768 16.50793650793651,37.03703703703704 16.50793650793651,36.402116402116405 16.71957671957672,35.76719576719577 16.71957671957672,35.13227513227513 16.931216931216934,34.4973544973545 16.931216931216934,33.86243386243387 17.142857142857146,33.22751322751323 17.354497354497354,32.592592592592595 17.354497354497354,31.95767195767196 17.354497354497354,31.322751322751326 17.566137566137566,30.68783068783069 17.566137566137566,30.052910052910054 17.77777777777778,29.41798941798942 17.77777777777778,28.783068783068785 17.98941798941799,28.14814814814815 17.98941798941799,27.513227513227516 18.201058201058203,26.87830687830688 18.201058201058203,26.243386243386244 18.412698412698415,25.60846560846561 18.412698412698415,24.973544973544975 18.624338624338627,24.338624338624342 18.624338624338627,23.703703703703706 18.83597883597884,23.06878306878307 18.83597883597884,22.433862433862437 19.047619047619047,21.7989417989418 19.047619047619047,21.164021164021165 19.25925925925926,20.529100529100532 19.47089947089947,19.894179894179896 19.47089947089947,19.25925925925926 19.682539682539684,18.624338624338627 19.682539682539684,17.98941798941799 19.894179894179896,17.354497354497354 19.894179894179896,16.71957671957672 20.105820105820108,16.084656084656086 20.31746031746032,15.449735449735451 20.529100529100532,14.814814814814817 20.529100529100532,14.17989417989418 20.740740740740744,13.544973544973546 20.740740740740744,12.910052910052912 20.952380952380953,12.275132275132275 20.740740740740744,11.640211640211641 20.952380952380953,11.005291005291006 20.952380952380953,10.370370370370372 21.164021164021165,9.735449735449736 21.375661375661377,9.100529100529101 21.375661375661377,8.465608465608467 21.375661375661377,7.830687830687832 21.58730158730159,7.195767195767196 21.7989417989418,6.560846560846561 21.7989417989418,5.9259259259259265 22.010582010582013,5.291005291005291 22.222222222222225,4.656084656084657 22.433862433862437,4.021164021164021 22.645502645502646,3.3862433862433865 23.492063492063494,-0.21164021164021166" style="fill:none; stroke:#3300bb; stroke-width:1.0"  /><circle cx="23.492063492063494" cy="-0.21164021164021166" r="2.0" style="fill:none; stroke:#000000aa; stroke-width:0.25" /><circle cx="184.12698412698415" cy="61.798941798941804" r="2.0" style="fill:none; stroke:#000000aa; stroke-width:0.25" /><circle cx="138.62433862433863" cy="174.3915343915344" r="2.0" style="fill:none; stroke:#000000aa; stroke-width:0.25" /><circle cx="0.21164021164021166" cy="126.13756613756615" r="2.0" style="fill:none; stroke:#000000aa; stroke-width:0.25" /><circle cx="24.12698412698413" cy="0.21164021164021166" r="2.0" style="fill:none; stroke:#ff3366aa; stroke-width:0.25" /><circle cx="183.70370370370372" cy="62.64550264550265" r="2.0" style="fill:none; stroke:#ff3366aa; stroke-width:0.25" /><circle cx="137.989417989418" cy="174.1798941798942" r="2.0" style="fill:none; stroke:#ff3366aa; stroke-width:0.25" /><circle cx="0.21164021164021166" cy="126.13756613756615" r="2.0" style="fill:none; stroke:#ff3366aa; stroke-width:0.25" /><polyline points="35.55555555555556,1.9047619047619049 34.920634920634924,1.6931216931216932 34.28571428571429,1.4814814814814816 33.65079365079365,1.4814814814814816 33.01587301587302,1.26984126984127 32.38095238095239,1.0582010582010584 31.746031746031747,0.8465608465608466 31.111111111111114,0.8465608465608466 30.476190476190478,0.634920634920635 29.841269841269842,0.4232804232804233 29.20634920634921,0.4232804232804233 28.571428571428573,0.4232804232804233 27.93650793650794,0.4232804232804233 27.301587301587304,0.4232804232804233" style="fill:none; stroke:#001100; stroke-width:1.0" /><polyline points="20.740740740740744,11.640211640211641 20.952380952380953,11.005291005291006 20.952380952380953,10.370370370370372 21.164021164021165,9.735449735449736 21.375661375661377,9.100529100529101 21.375661375661377,8.465608465608467 21.375661375661377,7.830687830687832 21.58730158730159,7.195767195767196 21.7989417989418,6.560846560846561 21.7989417989418,5.9259259259259265 22.010582010582013,5.291005291005291 22.222222222222225,4.656084656084657 22.433862433862437,4.021164021164021 22.645502645502646,3.3862433862433865" style="fill:none; stroke:#000011; stroke-width:1.0" /><polyline points="183.0687830687831,74.07407407407408 183.2804232804233,73.43915343915344 183.2804232804233,72.80423280423281 183.2804232804233,72.16931216931218 183.2804232804233,71.53439153439155 183.4920634920635,70.8994708994709 183.4920634920635,70.26455026455027 183.4920634920635,69.62962962962963 183.4920634920635,68.994708994709 183.4920634920635,68.35978835978837 183.4920634920635,67.72486772486774 183.70370370370372,67.08994708994709 183.70370370370372,66.45502645502646 183.70370370370372,65.82010582010582" style="fill:none; stroke:#001100; stroke-width:1.0" /><polyline points="175.87301587301587,54.179894179894184 176.50793650793653,54.60317460317461 176.93121693121694,55.02645502645503 177.35449735449737,55.449735449735456 177.7777777777778,55.87301587301588 178.41269841269843,56.2962962962963 178.83597883597884,56.71957671957672 179.25925925925927,57.142857142857146 179.6825396825397,57.56613756613757 180.10582010582013,57.989417989417994 180.52910052910053,58.41269841269842 180.95238095238096,58.83597883597884 181.3756613756614,59.25925925925927 181.79894179894183,59.682539682539684" style="fill:none; stroke:#000011; stroke-width:1.0" /><polyline points="127.40740740740742,169.94708994708995 128.04232804232805,170.15873015873018 128.67724867724868,170.37037037037038 129.31216931216932,170.58201058201058 129.73544973544975,171.005291005291 130.37037037037038,171.21693121693124 131.005291005291,171.42857142857144 131.64021164021165,171.64021164021165 132.27513227513228,172.06349206349208 132.9100529100529,172.27513227513228 133.54497354497354,172.4867724867725 134.17989417989418,172.6984126984127 134.81481481481484,172.9100529100529" style="fill:none; stroke:#001100; stroke-width:1.0" /><polyline points="147.51322751322752,167.61904761904762 147.0899470899471,168.04232804232805 146.66666666666669,168.46560846560848 146.03174603174605,168.8888888888889 145.60846560846562,169.31216931216932 144.973544973545,169.52380952380955 144.33862433862436,169.94708994708995 143.91534391534393,170.37037037037038 143.2804232804233,170.7936507936508 142.85714285714286,171.21693121693124 142.22222222222223,171.64021164021165 141.5873015873016,172.06349206349208 141.16402116402116,172.4867724867725" style="fill:none; stroke:#000011; stroke-width:1.0" /><polyline points="2.7513227513227516,114.70899470899472 2.53968253968254,115.34391534391536 2.53968253968254,115.97883597883599 2.3280423280423284,116.61375661375662 2.1164021164021167,117.24867724867725 2.1164021164021167,117.88359788359789 2.1164021164021167,118.51851851851853 1.9047619047619049,119.15343915343917 1.6931216931216932,119.7883597883598 1.4814814814814816,120.42328042328043 1.26984126984127,121.05820105820106 1.26984126984127,121.6931216931217 1.0582010582010584,122.32804232804234 0.8465608465608466,122.96296296296298" style="fill:none; stroke:#001100; stroke-width:1.0" /><polyline points="11.851851851851853,124.86772486772487 11.216931216931219,124.86772486772487 10.582010582010582,124.86772486772487 9.947089947089948,124.86772486772487 9.312169312169313,125.07936507936509 8.677248677248677,125.07936507936509 8.042328042328043,125.07936507936509 7.407407407407408,125.2910052910053 6.772486772486773,125.2910052910053 6.137566137566138,125.5026455026455 5.502645502645503,125.5026455026455 4.867724867724868,125.71428571428572 4.2328042328042335,125.71428571428572 3.597883597883598,125.71428571428572" style="fill:none; stroke:#000011; stroke-width:1.0" /><polyline points="27.301587301587304,0.4232804232804233 6.560846560846561,-3.3862433862433865" style="fill:none; stroke:#ffaa00; stroke-width:0.4" /><polyline points="22.645502645502646,3.3862433862433865 27.301587301587304,-17.142857142857146" style="fill:none; stroke:#aaff00; stroke-width:0.4" /><polyline points="183.70370370370372,65.82010582010582 185.39682539682542,44.65608465608466" style="fill:none; stroke:#ffaa00; stroke-width:0.4" /><polyline points="181.79894179894183,59.682539682539684 197.24867724867727,74.07407407407408" style="fill:none; stroke:#aaff00; stroke-width:0.4" /><polyline points="134.81481481481484,172.9100529100529 154.4973544973545,180.74074074074076" style="fill:none; stroke:#ffaa00; stroke-width:0.4" /><polyline points="141.16402116402116,172.4867724867725 124.44444444444446,185.39682539682542" style="fill:none; stroke:#aaff00; stroke-width:0.4" /><polyline points="0.8465608465608466,122.96296296296298 -3.8095238095238098,143.4920634920635" style="fill:none; stroke:#ffaa00; stroke-width:0.4" /><polyline points="3.597883597883598,125.71428571428572 -17.354497354497354,127.83068783068784" style="fill:none; stroke:#aaff00; stroke-width:0.4" /><circle cx="88.46560846560847" cy="93.96825396825398" r="1.0" style="fill:#444444; stroke-width:0" /><circle cx="79.57671957671958" cy="102.22222222222223" r="10.582010582010582" style="fill:#ff770022; stroke-width:0" /><circle cx="79.57671957671958" cy="102.22222222222223" r="1.0" style="fill:#ff7700; stroke-width:0" /></svg>