<?xml version="1.0" encoding="UTF-8" standalone="no"?><svg width="546.031746031746" height="495.2380952380953" viewBox="-10 -10 202.01058201058203 185.0793650793651" xmlns="http://www.w3.org/2000/svg" xmlns:xlink="http://www.w3.org/1999/xlink"><polyline points="49.1005291005291,0.0 51.851851851851855,2.1164021164021167 52.48677248677249,2.53968253968254 52.91005291005291,2.9629629629629632 53.54497354497355,3.3862433862433865 53.968253968253975,3.8095238095238098 54.39153439153439,4.2328042328042335 55.02645502645503,4.656084656084657 55.661375661375665,5.07936507936508 56.08465608465609,5.502645502645503 56.50793650793651,5.9259259259259265 57.142857142857146,6.34920634920635 57.777777777777786,6.772486772486773 58.2010582010582,7.195767195767196 58.83597883597884,7.6190476190476195 59.470899470899475,8.042328042328043 60.10582010582011,8.465608465608467 60.74074074074075,8.88888888888889 61.37566137566138,9.312169312169313 62.01058201058201,9.523809523809524 62.43386243386244,9.947089947089948 63.06878306878308,10.15873015873016 63.70370370370371,10.582010582010582 64.33862433862434,10.793650793650794 64.97354497354497,11.216931216931219 65.60846560846561,11.640211640211641 66.24338624338625,11.851851851851853 66.87830687830689,12.063492063492065 67.3015873015873,12.486772486772487 67.93650793650794,12.6984126984127 68.57142857142858,12.910052910052912 69.20634920634922,13.121693121693122 69.84126984126985,13.544973544973546 70.47619047619048,13.756613756613758 71.11111111111111,13.96825396825397 71.74603174603175,14.17989417989418 72.38095238095238,14.391534391534393 73.01587301587303,14.391534391534393 73.65079365079366,14.603174603174605 74.28571428571429,14.814814814814817 74.92063492063492,15.238095238095239 75.55555555555556,15.238095238095239 76.19047619047619,15.449735449735451 76.82539682539684,15.661375661375663 77.46031746031747,15.873015873015873 78.0952380952381,15.873015873015873 78.73015873015873,16.296296296296298 79.36507936507937,16.296296296296298 80.0,16.50793650793651 80.63492063492065,16.50793650793651 81.26984126984128,16.71957671957672 81.90476190476191,16.931216931216934 82.53968253968254,16.931216931216934 83.17460317460318,17.142857142857146 83.80952380952381,17.142857142857146 84.44444444444446,17.142857142857146 85.07936507936509,17.354497354497354 85.71428571428572,17.354497354497354 86.34920634920636,17.566137566137566 86.98412698412699,17.566137566137566 87.61904761904762,17.566137566137566 88.25396825396827,17.77777777777778 88.67724867724868,18.201058201058203 89.31216931216932,18.201058201058203 89.94708994708995,18.412698412698415 90.58201058201058,18.624338624338627 91.21693121693123,18.624338624338627 91.85185185185186,19.047619047619047 92.4867724867725,19.25925925925926 93.12169312169313,19.682539682539684 93.75661375661376,20.105820105820108 94.39153439153439,20.529100529100532 94.81481481481482,20.952380952380953 95.44973544973546,21.375661375661377 95.87301587301587,22.010582010582013 96.08465608465609,22.645502645502646 96.50793650793652,23.280423280423282 96.71957671957672,23.915343915343918 96.71957671957672,24.55026455026455 96.93121693121694,25.185185185185187 96.71957671957672,25.820105820105823 96.71957671957672,26.455026455026456 96.2962962962963,27.089947089947092 96.08465608465609,27.724867724867728 95.66137566137567,28.14814814814815 95.23809523809524,28.783068783068785 94.81481481481482,29.20634920634921 94.39153439153439,29.841269841269842 93.96825396825398,30.264550264550266 93.54497354497356,30.68783068783069 93.12169312169313,31.322751322751326 92.69841269841271,31.746031746031747 92.27513227513228,32.16931216931217 91.85185185185186,32.804232804232804 91.42857142857143,33.43915343915344 91.00529100529101,34.074074074074076 90.58201058201058,34.4973544973545 90.15873015873017,35.13227513227513 89.73544973544975,35.76719576719577 89.31216931216932,36.402116402116405 89.1005291005291,37.03703703703704 88.67724867724868,37.46031746031746 88.25396825396827,38.095238095238095 88.04232804232805,38.730158730158735 87.61904761904762,39.15343915343916 87.40740740740742,39.78835978835979 86.98412698412699,40.423280423280424 86.77248677248677,41.058201058201064 86.34920634920636,41.6931216931217 86.13756613756614,42.32804232804233 85.92592592592594,42.96296296296297 85.5026455026455,43.5978835978836 85.5026455026455,44.232804232804234 85.29100529100529,44.867724867724874 85.07936507936509,45.50264550264551 85.07936507936509,46.13756613756614 85.07936507936509,46.77248677248678 85.07936507936509,47.40740740740741 85.5026455026455,47.830687830687836 85.71428571428572,48.46560846560847 85.71428571428572,49.1005291005291 85.92592592592594,49.73544973544974 86.13756613756614,50.370370370370374 86.34920634920636,51.00529100529101 86.56084656084657,51.640211640211646 86.98412698412699,52.27513227513228 87.1957671957672,52.91005291005291 87.40740740740742,53.54497354497355 87.61904761904762,54.179894179894184 88.04232804232805,54.81481481481482 88.25396825396827,55.449735449735456 88.46560846560847,56.08465608465609 88.8888888888889,56.71957671957672 89.31216931216932,57.35449735449736 89.52380952380953,57.989417989417994 89.94708994708995,58.62433862433863 90.37037037037038,59.25925925925927 90.7936507936508,59.8941798941799 91.21693121693123,60.52910052910053 91.64021164021165,61.16402116402117 92.06349206349208,61.58730158730159 92.4867724867725,62.01058201058201 92.91005291005291,62.43386243386244 93.54497354497356,62.85714285714286 93.96825396825398,63.280423280423285 94.60317460317461,63.70370370370371 95.02645502645504,64.12698412698413 95.66137566137567,64.33862433862434 96.2962962962963,64.76190476190477 96.93121693121694,64.97354497354497 97.56613756613757,65.18518518518519 98.2010582010582,65.3968253968254 98.83597883597885,65.60846560846561 99.25925925925927,66.03174603174604 99.8941798941799,66.03174603174604 100.52910052910053,66.24338624338625 101.16402116402116,66.45502645502646 101.79894179894181,66.66666666666667 102.43386243386244,66.66666666666667 103.06878306878308,66.87830687830689 103.70370370370371,67.08994708994709 104.33862433862434,67.08994708994709 104.97354497354497,67.08994708994709 105.60846560846562,67.3015873015873 106.24338624338625,67.3015873015873 106.87830687830689,67.3015873015873 107.3015873015873,66.87830687830689 107.93650793650795,66.87830687830689 108.57142857142858,66.66666666666667 109.20634920634922,66.45502645502646 109.84126984126985,66.03174603174604 110.47619047619048,65.82010582010582 110.89947089947091,65.3968253968254 111.53439153439155,65.18518518518519 111.95767195767196,64.76190476190477 112.5925925925926,64.33862433862434 113.01587301587303,63.91534391534392 113.43915343915344,63.492063492063494 113.86243386243387,63.06878306878308 114.28571428571429,62.43386243386244 114.70899470899472,61.798941798941804 115.13227513227514,61.16402116402117 115.34391534391536,60.52910052910053 115.76719576719577,60.10582010582011 115.97883597883599,59.470899470899475 116.1904761904762,58.83597883597884 116.61375661375662,58.2010582010582 116.82539682539684,57.56613756613757 117.03703703703705,56.93121693121694 117.24867724867725,56.2962962962963 117.46031746031747,55.661375661375665 117.67195767195768,55.02645502645503 117.88359788359789,54.39153439153439 118.0952380952381,53.75661375661376 118.30687830687832,53.12169312169313 118.30687830687832,52.48677248677249 118.51851851851853,51.851851851851855 118.73015873015873,51.21693121693122 118.73015873015873,50.58201058201058 118.94179894179895,49.94708994708995 119.15343915343917,49.31216931216932 119.15343915343917,48.677248677248684 119.36507936507937,48.042328042328045 119.15343915343917,47.40740740740741 119.15343915343917,46.77248677248678 119.36507936507937,46.13756613756614 119.36507936507937,45.50264550264551 119.36507936507937,44.867724867724874 119.36507936507937,44.232804232804234 119.57671957671958,43.5978835978836 119.57671957671958,42.96296296296297 119.57671957671958,42.32804232804233 119.57671957671958,41.6931216931217 119.57671957671958,41.058201058201064 119.57671957671958,40.423280423280424 119.7883597883598,39.78835978835979 119.7883597883598,39.15343915343916 119.7883597883598,38.51851851851852 119.7883597883598,37.883597883597886 120.00000000000001,37.248677248677254 120.00000000000001,36.613756613756614 120.21164021164022,35.97883597883598 120.21164021164022,35.34391534391535 120.42328042328043,34.70899470899471 120.63492063492065,34.074074074074076 121.05820105820106,33.43915343915344 121.4814814814815,32.804232804232804 121.90476190476191,32.38095238095239 122.32804232804234,31.95767195767196 122.75132275132276,31.53439153439154 123.3862433862434,31.111111111111114 123.80952380952382,30.68783068783069 124.44444444444446,30.264550264550266 125.07936507936509,30.264550264550266 125.71428571428572,30.264550264550266 126.34920634920636,30.264550264550266 126.98412698412699,30.264550264550266 127.61904761904763,30.476190476190478 128.25396825396825,30.476190476190478 128.88888888888889,30.68783068783069 129.52380952380955,30.68783068783069 130.15873015873018,30.899470899470902 130.7936507936508,30.899470899470902 131.42857142857144,31.111111111111114 132.06349206349208,31.322751322751326 132.6984126984127,31.53439153439154 133.33333333333334,31.53439153439154 133.96825396825398,31.53439153439154 134.6031746031746,31.746031746031747 135.23809523809524,31.95767195767196 135.87301587301587,31.95767195767196 136.5079365079365,32.16931216931217 137.14285714285717,32.16931216931217 137.56613756613757,32.804232804232804 138.2010582010582,32.592592592592595 138.83597883597884,32.592592592592595 139.25925925925927,33.01587301587302 139.8941798941799,32.804232804232804 140.52910052910053,33.22751322751323 141.16402116402116,33.22751322751323 141.7989417989418,33.43915343915344 142.43386243386246,33.43915343915344 143.0687830687831,33.43915343915344 143.70370370370372,33.43915343915344 144.33862433862436,33.65079365079365 144.973544973545,33.86243386243387 145.60846560846562,33.86243386243387 146.24338624338625,34.074074074074076 146.8783068783069,34.28571428571429 147.51322751322752,34.28571428571429 148.14814814814815,34.28571428571429 148.78306878306879,34.4973544973545 149.41798941798942,34.70899470899471 150.05291005291005,34.70899470899471 150.6878306878307,34.920634920634924 151.32275132275134,34.920634920634924 151.95767195767198,35.13227513227513 152.5925925925926,35.34391534391535 153.22751322751324,35.55555555555556 153.86243386243387,35.55555555555556 154.4973544973545,35.76719576719577 155.13227513227514,35.76719576719577 155.76719576719577,35.97883597883598 156.4021164021164,36.19047619047619 157.03703703703704,36.402116402116405 157.67195767195767,36.402116402116405 158.30687830687833,36.402116402116405 158.94179894179896,36.613756613756614 159.5767195767196,36.82539682539683 160.21164021164023,36.82539682539683 160.84656084656086,37.03703703703704 161.4814814814815,37.03703703703704 162.11640211640213,37.248677248677254 162.75132275132276,37.46031746031746 163.3862433862434,37.67195767195768 164.02116402116403,37.67195767195768 164.65608465608466,37.883597883597886 165.2910052910053,38.095238095238095 165.92592592592595,38.30687830687831 166.56084656084658,38.30687830687831 167.19576719576722,38.51851851851852 167.83068783068785,38.51851851851852 168.46560846560848,38.730158730158735 169.10052910052912,38.730158730158735 169.73544973544975,38.94179894179894 170.37037037037038,39.15343915343916 171.005291005291,39.36507936507937 171.64021164021165,39.36507936507937 172.27513227513228,39.57671957671958 172.9100529100529,39.57671957671958 173.54497354497354,39.78835978835979 174.1798941798942,40.0 174.81481481481484,40.0 175.44973544973547,40.211640211640216 176.0846560846561,40.211640211640216 176.71957671957674,40.423280423280424 177.35449735449737,40.63492063492064 177.989417989418,40.84656084656085 178.62433862433863,40.63492063492064 182.01058201058203,41.26984126984127" style="fill:none; stroke:#cc0000; stroke-width:1.0"  /><polyline points="182.01058201058203,41.26984126984127 181.3756613756614,44.867724867724874 181.3756613756614,45.50264550264551 181.16402116402116,46.13756613756614 180.95238095238096,46.77248677248678 181.16402116402116,47.40740740740741 180.95238095238096,48.042328042328045 180.74074074074076,48.677248677248684 180.74074074074076,49.31216931216932 180.52910052910053,49.94708994708995 180.52910052910053,50.58201058201058 180.31746031746033,51.21693121693122 180.31746031746033,51.851851851851855 180.31746031746033,52.48677248677249 180.10582010582013,53.12169312169313 180.10582010582013,53.75661375661376 179.8941798941799,54.39153439153439 179.8941798941799,55.02645502645503 179.6825396825397,55.661375661375665 179.6825396825397,56.2962962962963 179.4708994708995,56.93121693121694 179.4708994708995,57.56613756613757 179.4708994708995,58.2010582010582 179.25925925925927,58.83597883597884 179.04761904761907,59.470899470899475 179.04761904761907,60.10582010582011 178.83597883597884,60.74074074074075 178.62433862433863,61.37566137566138 178.62433862433863,62.01058201058201 178.62433862433863,62.64550264550265 178.41269841269843,63.280423280423285 178.41269841269843,63.91534391534392 178.41269841269843,64.55026455026456 178.2010582010582,65.18518518518519 178.2010582010582,65.82010582010582 177.989417989418,66.45502645502646 177.989417989418,67.08994708994709 177.7777777777778,67.72486772486774 177.7777777777778,68.35978835978837 177.56613756613757,68.994708994709 177.35449735449737,69.62962962962963 177.35449735449737,70.26455026455027 177.35449735449737,70.8994708994709 177.14285714285717,71.53439153439155 176.93121693121694,72.16931216931218 176.71957671957674,72.80423280423281 176.50793650793653,73.43915343915344 176.2962962962963,74.07407407407408 175.87301587301587,74.49735449735451 175.44973544973547,74.92063492063492 175.02645502645504,75.34391534391536 174.3915343915344,75.76719576719577 173.75661375661377,75.97883597883599 173.12169312169314,76.19047619047619 172.4867724867725,76.4021164021164 171.85185185185188,76.4021164021164 171.21693121693124,76.4021164021164 170.58201058201058,76.4021164021164 169.94708994708995,76.4021164021164 169.31216931216932,76.19047619047619 168.67724867724868,75.97883597883599 168.04232804232805,75.76719576719577 167.40740740740742,75.34391534391536 166.7724867724868,74.92063492063492 166.13756613756615,74.70899470899471 165.50264550264552,74.28571428571429 164.8677248677249,73.86243386243387 164.44444444444446,73.43915343915344 163.80952380952382,73.01587301587303 163.3862433862434,72.5925925925926 162.75132275132276,72.16931216931218 162.11640211640213,71.74603174603175 161.6931216931217,71.32275132275133 161.2698412698413,70.8994708994709 160.63492063492066,70.47619047619048 160.0,70.05291005291006 159.36507936507937,69.62962962962963 158.94179894179896,69.20634920634922 158.30687830687833,68.994708994709 157.67195767195767,68.57142857142858 157.03703703703704,68.14814814814815 156.4021164021164,67.93650793650794 155.76719576719577,67.93650793650794 155.13227513227514,67.72486772486774 154.4973544973545,67.51322751322752 153.86243386243387,67.51322751322752 153.22751322751324,67.51322751322752 152.5925925925926,67.51322751322752 151.95767195767198,67.51322751322752 151.32275132275134,67.51322751322752 150.6878306878307,67.51322751322752 150.05291005291005,67.72486772486774 149.41798941798942,67.72486772486774 148.78306878306879,67.93650793650794 148.14814814814815,67.93650793650794 147.51322751322752,68.14814814814815 146.8783068783069,68.35978835978837 146.24338624338625,68.78306878306879 145.60846560846562,68.994708994709 144.973544973545,69.41798941798942 144.33862433862436,69.84126984126985 143.70370370370372,70.26455026455027 143.2804232804233,70.6878306878307 142.85714285714286,71.11111111111111 142.43386243386246,71.53439153439155 142.01058201058203,71.95767195767196 141.5873015873016,72.38095238095238 141.16402116402116,72.80423280423281 140.74074074074076,73.43915343915344 140.31746031746033,74.07407407407408 139.8941798941799,74.70899470899471 139.47089947089947,75.34391534391536 139.25925925925927,75.97883597883599 139.04761904761907,76.61375661375662 138.62433862433863,77.24867724867725 138.41269841269843,77.88359788359789 138.2010582010582,78.51851851851852 138.2010582010582,79.15343915343917 137.989417989418,79.7883597883598 137.7777777777778,80.42328042328043 137.56613756613757,81.05820105820106 137.56613756613757,81.6931216931217 137.35449735449737,82.32804232804233 137.56613756613757,82.96296296296298 137.56613756613757,83.59788359788361 137.56613756613757,84.23280423280424 137.56613756613757,84.86772486772487 137.56613756613757,85.5026455026455 137.56613756613757,86.13756613756614 137.7777777777778,86.77248677248677 137.7777777777778,87.40740740740742 137.989417989418,88.04232804232805 137.989417989418,88.67724867724868 138.41269841269843,89.31216931216932 138.62433862433863,89.94708994708995 138.83597883597884,90.58201058201058 139.04761904761907,91.21693121693123 139.25925925925927,91.85185185185186 139.6825396825397,92.4867724867725 139.8941798941799,93.12169312169313 140.31746031746033,93.54497354497356 140.74074074074076,94.17989417989419 140.95238095238096,94.81481481481482 141.3756613756614,95.23809523809524 141.7989417989418,95.87301587301587 142.22222222222223,96.2962962962963 142.64550264550266,96.93121693121694 143.0687830687831,97.35449735449737 143.70370370370372,97.56613756613757 144.33862433862436,97.989417989418 144.973544973545,98.2010582010582 145.60846560846562,98.41269841269842 146.24338624338625,98.62433862433863 146.8783068783069,98.83597883597885 147.51322751322752,98.83597883597885 148.14814814814815,98.83597883597885 148.78306878306879,98.83597883597885 149.41798941798942,98.83597883597885 150.05291005291005,98.83597883597885 150.6878306878307,98.62433862433863 151.32275132275134,98.62433862433863 151.95767195767198,98.62433862433863 152.5925925925926,98.41269841269842 153.22751322751324,98.41269841269842 153.86243386243387,98.2010582010582 154.4973544973545,98.2010582010582 155.13227513227514,98.41269841269842 155.76719576719577,98.41269841269842 156.4021164021164,98.41269841269842 157.03703703703704,98.41269841269842 157.67195767195767,98.41269841269842 158.30687830687833,98.41269841269842 158.94179894179896,98.62433862433863 159.5767195767196,98.83597883597885 160.21164021164023,99.04761904761905 160.84656084656086,99.25925925925927 161.4814814814815,99.47089947089948 162.11640211640213,99.68253968253968 162.53968253968256,100.10582010582011 163.1746031746032,100.31746031746033 163.59788359788362,100.95238095238096 164.02116402116403,101.37566137566138 164.44444444444446,101.79894179894181 164.8677248677249,102.43386243386244 165.2910052910053,103.06878306878308 165.50264550264552,103.70370370370371 165.71428571428572,104.33862433862434 165.71428571428572,104.97354497354497 165.71428571428572,105.60846560846562 165.71428571428572,106.24338624338625 165.71428571428572,106.87830687830689 165.71428571428572,107.51322751322752 165.71428571428572,108.14814814814815 165.50264550264552,108.78306878306879 165.50264550264552,109.41798941798943 165.2910052910053,110.05291005291006 164.8677248677249,110.6878306878307 164.8677248677249,111.32275132275133 164.44444444444446,111.95767195767196 164.23280423280426,112.5925925925926 164.02116402116403,113.22751322751324 163.80952380952382,113.86243386243387 163.59788359788362,114.49735449735451 163.3862433862434,115.13227513227514 163.1746031746032,115.76719576719577 162.75132275132276,116.4021164021164 162.53968253968256,117.03703703703705 162.32804232804233,117.67195767195768 162.11640211640213,118.30687830687832 161.6931216931217,118.94179894179895 161.2698412698413,119.57671957671958 160.84656084656086,120.21164021164022 160.42328042328043,120.84656084656086 160.0,121.4814814814815 159.5767195767196,121.90476190476191 159.15343915343917,122.53968253968254 158.73015873015873,123.17460317460318 158.30687830687833,123.80952380952382 157.8835978835979,124.23280423280424 157.46031746031747,124.86772486772487 157.03703703703704,125.2910052910053 156.61375661375664,125.92592592592594 156.1904761904762,126.56084656084657 155.76719576719577,126.98412698412699 155.34391534391534,127.61904761904763 154.92063492063494,128.04232804232805 154.4973544973545,128.67724867724868 154.07407407407408,129.31216931216932 153.65079365079367,129.94708994708995 153.22751322751324,130.58201058201058 152.8042328042328,131.21693121693121 152.38095238095238,131.85185185185185 150.47619047619048,134.3915343915344" style="fill:none; stroke:#999900; stroke-width:1.0"  /><polyline points="150.47619047619048,134.3915343915344 147.72486772486775,133.54497354497354 147.0899470899471,133.33333333333334 146.45502645502646,132.9100529100529 145.82010582010582,132.6984126984127 145.1851851851852,132.4867724867725 144.55026455026456,132.27513227513228 143.91534391534393,131.85185185185185 143.2804232804233,131.85185185185185 142.64550264550266,131.85185185185185 142.01058201058203,131.64021164021165 141.3756613756614,131.42857142857144 140.74074074074076,131.21693121693121 140.10582010582013,131.005291005291 139.47089947089947,130.7936507936508 138.83597883597884,130.7936507936508 138.2010582010582,130.37037037037038 137.56613756613757,130.37037037037038 136.93121693121694,130.15873015873018 136.2962962962963,129.94708994708995 135.66137566137567,129.73544973544975 135.02645502645504,129.73544973544975 134.3915343915344,129.52380952380955 133.75661375661377,129.31216931216932 133.12169312169314,129.10052910052912 132.4867724867725,129.10052910052912 131.85185185185185,128.88888888888889 131.21693121693121,128.67724867724868 130.58201058201058,128.67724867724868 129.94708994708995,128.46560846560848 129.31216931216932,128.46560846560848 128.67724867724868,128.25396825396825 128.04232804232805,128.04232804232805 127.40740740740742,127.83068783068784 126.77248677248679,127.61904761904763 126.13756613756615,127.61904761904763 125.5026455026455,127.40740740740742 124.86772486772487,127.1957671957672 124.23280423280424,127.1957671957672 123.59788359788361,126.98412698412699 122.96296296296298,126.77248677248679 122.32804232804234,126.77248677248679 121.6931216931217,126.56084656084657 121.05820105820106,126.56084656084657 120.42328042328043,126.56084656084657 119.7883597883598,126.34920634920636 119.15343915343917,126.34920634920636 118.51851851851853,126.56084656084657 117.88359788359789,126.56084656084657 117.24867724867725,126.77248677248679 116.61375661375662,127.1957671957672 115.97883597883599,127.61904761904763 115.34391534391536,128.04232804232805 114.92063492063492,128.46560846560848 114.49735449735451,128.88888888888889 114.07407407407408,129.52380952380955 113.65079365079366,130.15873015873018 113.43915343915344,130.7936507936508 113.22751322751324,131.42857142857144 112.80423280423281,132.06349206349208 112.80423280423281,132.6984126984127 112.5925925925926,133.33333333333334 112.3809523809524,133.96825396825398 112.3809523809524,134.6031746031746 112.16931216931218,135.23809523809524 112.16931216931218,135.87301587301587 111.95767195767196,136.5079365079365 111.95767195767196,137.14285714285717 111.95767195767196,137.7777777777778 111.74603174603176,138.41269841269843 111.74603174603176,139.04761904761907 111.53439153439155,139.6825396825397 111.53439153439155,140.31746031746033 111.53439153439155,140.95238095238096 111.32275132275133,141.5873015873016 111.32275132275133,142.22222222222223 111.11111111111111,142.85714285714286 111.11111111111111,143.4920634920635 110.89947089947091,144.12698412698413 110.6878306878307,144.76190476190476 110.6878306878307,145.39682539682542 110.47619047619048,146.03174603174605 110.47619047619048,146.66666666666669 110.26455026455027,147.30158730158732 110.05291005291006,147.93650793650795 109.84126984126985,148.57142857142858 109.62962962962963,149.20634920634922 109.41798941798943,149.84126984126985 109.20634920634922,150.47619047619048 108.994708994709,151.11111111111111 108.78306878306879,151.74603174603175 108.57142857142858,152.38095238095238 108.57142857142858,153.01587301587304 108.35978835978837,153.65079365079367 107.93650793650795,154.2857142857143 107.72486772486774,154.92063492063494 107.3015873015873,155.55555555555557 107.0899470899471,156.1904761904762 106.66666666666667,156.82539682539684 106.24338624338625,157.46031746031747 106.03174603174604,158.0952380952381 105.60846560846562,158.73015873015873 105.18518518518519,159.36507936507937 104.76190476190477,160.0 104.33862433862434,160.63492063492066 103.91534391534393,161.05820105820106 103.4920634920635,161.4814814814815 103.06878306878308,161.90476190476193 102.64550264550266,162.32804232804233 102.01058201058201,162.75132275132276 101.37566137566138,163.1746031746032 100.74074074074075,163.3862433862434 100.10582010582011,163.59788359788362 99.47089947089948,164.02116402116403 98.83597883597885,164.02116402116403 98.2010582010582,164.23280423280426 97.56613756613757,164.44444444444446 96.93121693121694,164.65608465608466 96.2962962962963,164.65608465608466 95.66137566137567,164.65608465608466 95.02645502645504,164.65608465608466 94.39153439153439,164.65608465608466 93.75661375661376,164.65608465608466 93.12169312169313,164.65608465608466 92.4867724867725,164.65608465608466 91.85185185185186,164.44444444444446 91.21693121693123,164.44444444444446 90.58201058201058,164.23280423280426 89.94708994708995,164.23280423280426 89.31216931216932,164.02116402116403 88.67724867724868,163.80952380952382 88.04232804232805,163.59788359788362 87.40740740740742,163.3862433862434 86.77248677248677,163.1746031746032 86.13756613756614,162.96296296296296 85.5026455026455,162.75132275132276 84.86772486772487,162.32804232804233 84.23280423280424,161.90476190476193 83.59788359788361,161.6931216931217 82.96296296296298,161.2698412698413 82.32804232804233,160.84656084656086 81.6931216931217,160.42328042328043 81.26984126984128,160.0 80.63492063492065,159.5767195767196 80.21164021164022,159.15343915343917 79.7883597883598,158.73015873015873 79.15343915343917,158.30687830687833 78.73015873015873,157.8835978835979 78.30687830687832,157.24867724867727 77.88359788359789,156.61375661375664 77.46031746031747,155.978835978836 77.24867724867725,155.34391534391534 76.82539682539684,154.7089947089947 76.61375661375662,154.07407407407408 76.4021164021164,153.43915343915344 76.19047619047619,152.8042328042328 75.76719576719577,152.38095238095238 75.76719576719577,151.74603174603175 75.34391534391536,151.11111111111111 75.13227513227514,150.47619047619048 75.13227513227514,149.84126984126985 74.92063492063492,149.20634920634922 74.92063492063492,148.57142857142858 74.92063492063492,147.93650793650795 74.92063492063492,147.30158730158732 74.92063492063492,146.66666666666669 75.13227513227514,146.03174603174605 75.13227513227514,145.39682539682542 75.34391534391536,144.76190476190476 75.76719576719577,144.12698412698413 75.76719576719577,143.4920634920635 75.97883597883599,142.85714285714286 76.4021164021164,142.22222222222223 76.61375661375662,141.5873015873016 76.82539682539684,140.95238095238096 77.24867724867725,140.31746031746033 77.46031746031747,139.6825396825397 77.67195767195767,139.04761904761907 78.0952380952381,138.41269841269843 78.51851851851852,137.7777777777778 78.73015873015873,137.14285714285717 79.15343915343917,136.71957671957674 79.57671957671958,136.0846560846561 80.0,135.44973544973547 80.21164021164022,134.81481481481484 80.63492063492065,134.3915343915344 81.05820105820106,133.75661375661377 81.48148148148148,133.33333333333334 81.90476190476191,132.6984126984127 82.32804232804233,132.06349206349208 82.75132275132276,131.64021164021165 83.17460317460318,131.005291005291 83.59788359788361,130.58201058201058 84.02116402116403,129.94708994708995 84.44444444444446,129.52380952380955 84.86772486772487,128.88888888888889 85.29100529100529,128.46560846560848 85.71428571428572,127.83068783068784 86.13756613756614,127.40740740740742 86.56084656084657,126.98412698412699 86.98412698412699,126.56084656084657 87.40740740740742,125.92592592592594 87.83068783068784,125.5026455026455 88.25396825396827,124.86772486772487 88.67724867724868,124.23280423280424 89.1005291005291,123.59788359788361 89.52380952380953,122.96296296296298 89.73544973544975,122.32804232804234 89.94708994708995,121.6931216931217 90.15873015873017,121.05820105820106 90.15873015873017,120.42328042328043 90.15873015873017,119.7883597883598 90.15873015873017,119.15343915343917 90.15873015873017,118.51851851851853 89.94708994708995,117.88359788359789 89.52380952380953,117.24867724867725 89.31216931216932,116.61375661375662 88.8888888888889,115.97883597883599 88.46560846560847,115.55555555555557 88.04232804232805,114.92063492063492 87.61904761904762,114.49735449735451 86.98412698412699,114.07407407407408 86.34920634920636,113.65079365079366 85.71428571428572,113.22751322751324 85.07936507936509,113.01587301587303 84.44444444444446,112.5925925925926 83.80952380952381,112.3809523809524 83.17460317460318,112.16931216931218 82.53968253968254,111.95767195767196 81.90476190476191,111.74603174603176 81.26984126984128,111.53439153439155 80.63492063492065,111.32275132275133 80.0,111.11111111111111 79.36507936507937,111.11111111111111 78.73015873015873,110.89947089947091 78.0952380952381,110.6878306878307 77.46031746031747,110.6878306878307 76.82539682539684,110.47619047619048 76.19047619047619,110.26455026455027 75.55555555555556,110.05291005291006 74.92063492063492,110.05291005291006 74.28571428571429,109.84126984126985 73.65079365079366,109.84126984126985 73.01587301587303,109.84126984126985 72.38095238095238,109.62962962962963 71.74603174603175,109.62962962962963 71.11111111111111,109.41798941798943 70.47619047619048,109.41798941798943 69.84126984126985,109.20634920634922 69.20634920634922,109.20634920634922 68.57142857142858,108.994708994709 67.93650793650794,108.78306878306879 67.3015873015873,108.78306878306879 66.66666666666667,108.78306878306879 66.03174603174604,108.57142857142858 65.3968253968254,108.35978835978837 64.76190476190477,108.35978835978837 64.12698412698413,108.14814814814815 63.492063492063494,108.14814814814815 62.85714285714286,107.93650793650795 62.22222222222223,107.93650793650795 61.58730158730159,107.72486772486774 60.952380952380956,107.51322751322752 60.31746031746032,107.51322751322752 59.682539682539684,107.3015873015873 59.04761904761905,107.3015873015873 58.41269841269842,107.0899470899471 57.777777777777786,106.87830687830689 57.142857142857146,106.87830687830689 56.50793650793651,106.66666666666667 55.87301587301588,106.45502645502647 55.23809523809524,106.45502645502647 54.60317460317461,106.24338624338625 53.968253968253975,106.24338624338625 53.333333333333336,106.03174603174604 52.6984126984127,105.82010582010582 52.06349206349207,105.82010582010582 51.42857142857143,105.60846560846562 50.7936507936508,105.3968253968254 50.158730158730165,105.3968253968254 49.523809523809526,105.18518518518519 48.88888888888889,104.97354497354497 48.25396825396826,104.76190476190477 47.61904761904762,104.76190476190477 46.98412698412699,104.55026455026456 46.349206349206355,104.55026455026456 45.714285714285715,104.33862433862434 45.07936507936508,104.12698412698414 44.44444444444445,103.91534391534393 43.80952380952381,103.70370370370371 43.17460317460318,103.70370370370371 42.539682539682545,103.4920634920635 41.904761904761905,103.28042328042329 41.26984126984127,103.28042328042329 40.63492063492064,103.06878306878308 40.0,102.85714285714286 39.36507936507937,102.64550264550266 38.730158730158735,102.64550264550266 38.095238095238095,102.64550264550266 37.46031746031746,102.43386243386244 36.82539682539683,102.22222222222223 36.19047619047619,102.01058201058201 35.55555555555556,101.79894179894181 34.920634920634924,101.5873015873016 34.28571428571429,101.5873015873016 33.65079365079365,101.37566137566138 33.01587301587302,101.16402116402116 32.38095238095239,100.95238095238096 31.746031746031747,100.74074074074075 31.111111111111114,100.74074074074075 30.476190476190478,100.52910052910053 29.841269841269842,100.31746031746033 29.20634920634921,100.10582010582011 28.571428571428573,99.8941798941799 27.93650793650794,99.68253968253968 27.301587301587304,99.47089947089948 26.666666666666668,99.47089947089948 26.031746031746035,99.25925925925927 25.3968253968254,99.04761904761905 24.761904761904763,98.83597883597885 24.12698412698413,98.62433862433863 23.492063492063494,98.41269841269842 22.857142857142858,98.2010582010582 22.222222222222225,98.2010582010582 21.58730158730159,97.989417989418 20.952380952380953,97.77777777777779 20.31746031746032,97.56613756613757 19.682539682539684,97.35449735449737 19.047619047619047,97.14285714285715 18.412698412698415,96.93121693121694 17.77777777777778,96.93121693121694 17.142857142857146,96.50793650793652 16.50793650793651,96.50793650793652 15.873015873015873,96.2962962962963 15.238095238095239,96.08465608465609 14.603174603174605,95.87301587301587 13.96825396825397,95.66137566137567 13.333333333333334,95.44973544973546 12.6984126984127,95.23809523809524 12.063492063492065,95.23809523809524 11.428571428571429,95.02645502645504 10.793650793650794,94.81481481481482 10.15873015873016,94.60317460317461 9.523809523809524,94.39153439153439 8.88888888888889,94.17989417989419 8.253968253968255,94.17989417989419 7.6190476190476195,93.96825396825398 6.984126984126985,93.75661375661376 6.34920634920635,93.54497354497356 5.714285714285714,93.33333333333334 5.07936507936508,93.12169312169313 4.444444444444445,92.91005291005291 3.8095238095238098,92.69841269841271 0.21164021164021166,91.64021164021165" style="fill:none; stroke:#00aa99; stroke-width:1.0"  /><polyline points="0.21164021164021166,91.64021164021165 0.8465608465608466,88.67724867724868 0.8465608465608466,88.04232804232805 1.0582010582010584,87.40740740740742 1.26984126984127,86.77248677248677 1.26984126984127,86.13756613756614 1.4814814814814816,85.5026455026455 1.6931216931216932,84.86772486772487 1.6931216931216932,84.23280423280424 1.9047619047619049,83.59788359788361 2.1164021164021167,82.96296296296298 1.9047619047619049,82.32804232804233 2.1164021164021167,81.6931216931217 2.3280423280423284,81.05820105820106 2.53968253968254,80.42328042328043 2.7513227513227516,79.7883597883598 2.9629629629629632,79.15343915343917 3.174603174603175,78.51851851851852 3.3862433862433865,77.88359788359789 3.3862433862433865,77.24867724867725 3.597883597883598,76.61375661375662 4.021164021164021,75.97883597883599 4.2328042328042335,75.34391534391536 4.444444444444445,74.70899470899471 4.867724867724868,74.07407407407408 5.07936507936508,73.43915343915344 5.502645502645503,72.80423280423281 5.714285714285714,72.16931216931218 6.137566137566138,71.53439153439155 6.560846560846561,70.8994708994709 6.772486772486773,70.26455026455027 7.195767195767196,69.62962962962963 7.6190476190476195,68.994708994709 8.042328042328043,68.35978835978837 8.253968253968255,67.72486772486774 8.677248677248677,67.3015873015873 9.100529100529101,66.87830687830689 9.523809523809524,66.24338624338625 9.947089947089948,65.60846560846561 10.370370370370372,64.97354497354497 10.793650793650794,64.55026455026456 11.216931216931219,64.12698412698413 11.640211640211641,63.70370370370371 12.063492063492065,63.280423280423285 12.6984126984127,62.85714285714286 13.333333333333334,62.43386243386244 13.96825396825397,62.22222222222223 14.603174603174605,62.01058201058201 15.238095238095239,62.01058201058201 15.873015873015873,61.798941798941804 16.50793650793651,61.798941798941804 17.142857142857146,61.798941798941804 17.77777777777778,61.798941798941804 18.412698412698415,61.798941798941804 19.047619047619047,62.01058201058201 19.682539682539684,62.22222222222223 20.31746031746032,62.43386243386244 20.952380952380953,62.64550264550265 21.58730158730159,62.64550264550265 22.010582010582013,63.06878306878308 22.645502645502646,63.06878306878308 23.06878306878307,63.492063492063494 23.703703703703706,63.492063492063494 24.338624338624342,63.91534391534392 24.973544973544975,63.91534391534392 25.3968253968254,64.33862433862434 26.031746031746035,64.55026455026456 26.666666666666668,64.76190476190477 27.301587301587304,64.97354497354497 27.93650793650794,65.18518518518519 28.35978835978836,65.60846560846561 28.994708994708997,65.82010582010582 29.629629629629633,66.03174603174604 30.052910052910054,66.45502645502646 30.68783068783069,66.66666666666667 31.322751322751326,67.08994708994709 31.95767195767196,67.51322751322752 32.592592592592595,67.72486772486774 33.22751322751323,68.14814814814815 33.65079365079365,68.57142857142858 34.28571428571429,68.994708994709 34.920634920634924,69.41798941798942 35.55555555555556,69.62962962962963 36.19047619047619,70.05291005291006 36.613756613756614,70.47619047619048 37.248677248677254,70.6878306878307 37.883597883597886,71.11111111111111 38.51851851851852,71.32275132275133 39.15343915343916,71.53439153439155 39.78835978835979,71.74603174603175 40.423280423280424,71.95767195767196 40.84656084656085,72.38095238095238 41.48148148148149,72.38095238095238 42.11640211640212,72.5925925925926 42.539682539682545,73.01587301587303 43.17460317460318,73.01587301587303 43.80952380952381,73.22751322751323 44.44444444444445,73.65079365079366 45.07936507936508,73.65079365079366 45.714285714285715,73.65079365079366 46.349206349206355,73.65079365079366 46.98412698412699,73.86243386243387 47.61904761904762,73.86243386243387 48.25396825396826,73.86243386243387 48.88888888888889,73.86243386243387 49.523809523809526,73.65079365079366 50.158730158730165,73.65079365079366 50.7936507936508,73.43915343915344 51.42857142857143,73.01587301587303 52.06349206349207,72.80423280423281 52.6984126984127,72.38095238095238 53.333333333333336,72.16931216931218 53.75661375661376,71.74603174603175 54.39153439153439,71.32275132275133 55.02645502645503,70.8994708994709 55.661375661375665,70.47619047619048 56.08465608465609,70.05291005291006 56.50793650793651,69.62962962962963 56.93121693121694,69.20634920634922 57.35449735449736,68.78306878306879 57.777777777777786,68.35978835978837 58.2010582010582,67.93650793650794 58.62433862433863,67.51322751322752 59.04761904761905,67.08994708994709 59.470899470899475,66.45502645502646 59.8941798941799,65.82010582010582 60.31746031746032,65.18518518518519 60.74074074074075,64.55026455026456 60.952380952380956,63.91534391534392 61.37566137566138,63.280423280423285 61.58730158730159,62.64550264550265 62.01058201058201,62.01058201058201 62.22222222222223,61.37566137566138 62.43386243386244,60.74074074074075 62.64550264550265,60.10582010582011 62.85714285714286,59.470899470899475 62.85714285714286,58.83597883597884 63.06878306878308,58.2010582010582 63.06878306878308,57.56613756613757 63.280423280423285,56.93121693121694 63.280423280423285,56.2962962962963 63.280423280423285,55.661375661375665 63.280423280423285,55.02645502645503 63.280423280423285,54.39153439153439 63.280423280423285,53.75661375661376 63.280423280423285,53.12169312169313 63.06878306878308,52.48677248677249 62.85714285714286,51.851851851851855 62.85714285714286,51.21693121693122 62.64550264550265,50.58201058201058 62.64550264550265,49.94708994708995 62.43386243386244,49.31216931216932 62.22222222222223,48.677248677248684 62.01058201058201,48.042328042328045 61.58730158730159,47.61904761904762 61.37566137566138,46.98412698412699 60.952380952380956,46.349206349206355 60.74074074074075,45.714285714285715 60.31746031746032,45.07936507936508 59.8941798941799,44.44444444444445 59.470899470899475,43.80952380952381 59.04761904761905,43.386243386243386 58.62433862433863,42.96296296296297 58.2010582010582,42.539682539682545 57.777777777777786,42.11640211640212 57.35449735449736,41.6931216931217 56.71957671957672,41.26984126984127 56.08465608465609,40.84656084656085 55.449735449735456,40.423280423280424 54.81481481481482,40.0 54.179894179894184,39.78835978835979 53.54497354497355,39.36507936507937 52.91005291005291,39.15343915343916 52.27513227513228,38.94179894179894 51.640211640211646,38.730158730158735 51.00529100529101,38.730158730158735 50.370370370370374,38.730158730158735 49.73544973544974,38.730158730158735 49.1005291005291,38.730158730158735 48.46560846560847,38.730158730158735 47.830687830687836,38.94179894179894 47.195767195767196,38.94179894179894 46.560846560846564,39.15343915343916 45.92592592592593,39.15343915343916 45.29100529100529,39.15343915343916 44.65608465608466,39.15343915343916 44.021164021164026,39.15343915343916 43.386243386243386,39.15343915343916 42.75132275132275,39.15343915343916 42.11640211640212,38.94179894179894 41.48148148148149,38.730158730158735 40.84656084656085,38.51851851851852 40.211640211640216,38.30687830687831 39.57671957671958,38.095238095238095 39.15343915343916,37.67195767195768 38.51851851851852,37.248677248677254 37.883597883597886,37.03703703703704 37.46031746031746,36.613756613756614 37.03703703703704,36.19047619047619 36.613756613756614,35.55555555555556 36.402116402116405,34.920634920634924 35.97883597883598,34.28571428571429 35.97883597883598,33.65079365079365 35.76719576719577,33.01587301587302 35.76719576719577,32.38095238095239 35.76719576719577,31.746031746031747 35.97883597883598,31.111111111111114 35.97883597883598,30.476190476190478 36.402116402116405,29.841269841269842 36.613756613756614,29.20634920634921 36.82539682539683,28.571428571428573 37.248677248677254,27.93650793650794 37.46031746031746,27.301587301587304 37.883597883597886,26.666666666666668 38.095238095238095,26.031746031746035 38.30687830687831,25.3968253968254 38.730158730158735,24.761904761904763 38.94179894179894,24.12698412698413 39.36507936507937,23.492063492063494 39.57671957671958,22.857142857142858 40.0,22.222222222222225 40.211640211640216,21.58730158730159 40.423280423280424,20.952380952380953 40.84656084656085,20.31746031746032 41.058201058201064,19.682539682539684 41.48148148148149,19.047619047619047 41.6931216931217,18.412698412698415 42.11640211640212,17.77777777777778 42.32804232804233,17.142857142857146 42.539682539682545,16.50793650793651 42.96296296296297,15.873015873015873 43.17460317460318,15.238095238095239 43.386243386243386,14.603174603174605 43.80952380952381,13.96825396825397 44.021164021164026,13.333333333333334 44.021164021164026,12.6984126984127 44.232804232804234,12.063492063492065 44.65608465608466,11.428571428571429 44.867724867724874,10.793650793650794 45.07936507936508,10.15873015873016 45.29100529100529,9.523809523809524 45.714285714285715,8.88888888888889 45.92592592592593,8.253968253968255 46.13756613756614,7.6190476190476195 46.349206349206355,6.984126984126985 46.560846560846564,6.34920634920635 46.77248677248678,5.714285714285714 46.98412698412699,5.07936507936508 47.40740740740741,4.444444444444445 47.61904761904762,3.8095238095238098 47.830687830687836,3.174603174603175 49.1005291005291,0.0" style="fill:none; stroke:#3300bb; stroke-width:1.0"  /><circle cx="49.1005291005291" cy="0.0" r="2.0" style="fill:none; stroke:#000000aa; stroke-width:0.25" /><circle cx="182.01058201058203" cy="41.26984126984127" r="2.0" style="fill:none; stroke:#000000aa; stroke-width:0.25" /><circle cx="150.47619047619048" cy="134.3915343915344" r="2.0" style="fill:none; stroke:#000000aa; stroke-width:0.25" /><circle cx="0.21164021164021166" cy="91.64021164021165" r="2.0" style="fill:none; stroke:#000000aa; stroke-width:0.25" /><circle cx="49.31216931216932" cy="0.21164021164021166" r="2.0" style="fill:none; stroke:#ff3366aa; stroke-width:0.25" /><circle cx="181.5873015873016" cy="41.6931216931217" r="2.0" style="fill:none; stroke:#ff3366aa; stroke-width:0.25" /><circle cx="150.8994708994709" cy="134.6031746031746" r="2.0" style="fill:none; stroke:#ff3366aa; stroke-width:0.25" /><circle cx="0.4232804232804233" cy="91.85185185185186" r="2.0" style="fill:none; stroke:#ff3366aa; stroke-width:0.25" /><polyline points="58.2010582010582,7.195767195767196 57.777777777777786,6.772486772486773 57.142857142857146,6.34920634920635 56.50793650793651,5.9259259259259265 56.08465608465609,5.502645502645503 55.661375661375665,5.07936507936508 55.02645502645503,4.656084656084657 54.39153439153439,4.2328042328042335 53.968253968253975,3.8095238095238098 53.54497354497355,3.3862433862433865 52.91005291005291,2.9629629629629632 52.48677248677249,2.53968253968254 51.851851851851855,2.1164021164021167" style="fill:none; stroke:#001100; stroke-width:1.0" /><polyline points="44.867724867724874,10.793650793650794 45.07936507936508,10.15873015873016 45.29100529100529,9.523809523809524 45.714285714285715,8.88888888888889 45.92592592592593,8.253968253968255 46.13756613756614,7.6190476190476195 46.349206349206355,6.984126984126985 46.560846560846564,6.34920634920635 46.77248677248678,5.714285714285714 46.98412698412699,5.07936507936508 47.40740740740741,4.444444444444445 47.61904761904762,3.8095238095238098 47.830687830687836,3.174603174603175" style="fill:none; stroke:#000011; stroke-width:1.0" /><polyline points="180.10582010582013,53.12169312169313 180.31746031746033,52.48677248677249 180.31746031746033,51.851851851851855 180.31746031746033,51.21693121693122 180.52910052910053,50.58201058201058 180.52910052910053,49.94708994708995 180.74074074074076,49.31216931216932 180.74074074074076,48.677248677248684 180.95238095238096,48.042328042328045 181.16402116402116,47.40740740740741 180.95238095238096,46.77248677248678 181.16402116402116,46.13756613756614 181.3756613756614,45.50264550264551 181.3756613756614,44.867724867724874" style="fill:none; stroke:#001100; stroke-width:1.0" /><polyline points="170.37037037037038,39.15343915343916 171.005291005291,39.36507936507937 171.64021164021165,39.36507936507937 172.27513227513228,39.57671957671958 172.9100529100529,39.57671957671958 173.54497354497354,39.78835978835979 174.1798941798942,40.0 174.81481481481484,40.0 175.44973544973547,40.211640211640216 176.0846560846561,40.211640211640216 176.71957671957674,40.423280423280424 177.35449735449737,40.63492063492064 177.989417989418,40.84656084656085 178.62433862433863,40.63492063492064" style="fill:none; stroke:#000011; stroke-width:1.0" /><polyline points="139.47089947089947,130.7936507936508 140.10582010582013,131.005291005291 140.74074074074076,131.21693121693121 141.3756613756614,131.42857142857144 142.01058201058203,131.64021164021165 142.64550264550266,131.85185185185185 143.2804232804233,131.85185185185185 143.91534391534393,131.85185185185185 144.55026455026456,132.27513227513228 145.1851851851852,132.4867724867725 145.82010582010582,132.6984126984127 146.45502645502646,132.9100529100529 147.0899470899471,133.33333333333334 147.72486772486775,133.54497354497354" style="fill:none; stroke:#001100; stroke-width:1.0" /><polyline points="157.46031746031747,124.86772486772487 157.03703703703704,125.2910052910053 156.61375661375664,125.92592592592594 156.1904761904762,126.56084656084657 155.76719576719577,126.98412698412699 155.34391534391534,127.61904761904763 154.92063492063494,128.04232804232805 154.4973544973545,128.67724867724868 154.07407407407408,129.31216931216932 153.65079365079367,129.94708994708995 153.22751322751324,130.58201058201058 152.8042328042328,131.21693121693121 152.38095238095238,131.85185185185185" style="fill:none; stroke:#000011; stroke-width:1.0" /><polyline points="2.53968253968254,80.42328042328043 2.3280423280423284,81.05820105820106 2.1164021164021167,81.6931216931217 1.9047619047619049,82.32804232804233 2.1164021164021167,82.96296296296298 1.9047619047619049,83.59788359788361 1.6931216931216932,84.23280423280424 1.6931216931216932,84.86772486772487 1.4814814814814816,85.5026455026455 1.26984126984127,86.13756613756614 1.26984126984127,86.77248677248677 1.0582010582010584,87.40740740740742 0.8465608465608466,88.04232804232805 0.8465608465608466,88.67724867724868" style="fill:none; stroke:#001100; stroke-width:1.0" /><polyline points="11.428571428571429,95.02645502645504 10.793650793650794,94.81481481481482 10.15873015873016,94.60317460317461 9.523809523809524,94.39153439153439 8.88888888888889,94.17989417989419 8.253968253968255,94.17989417989419 7.6190476190476195,93.96825396825398 6.984126984126985,93.75661375661376 6.34920634920635,93.54497354497356 5.714285714285714,93.33333333333334 5.07936507936508,93.12169312169313 4.444444444444445,92.91005291005291 3.8095238095238098,92.69841269841271" style="fill:none; stroke:#000011; stroke-width:1.0" /><polyline points="51.851851851851855,2.1164021164021167 35.34391534391535,-11.005291005291006" style="fill:none; stroke:#ffaa00; stroke-width:0.4" /><polyline points="47.830687830687836,3.174603174603175 55.449735449735456,-16.50793650793651" style="fill:none; stroke:#aaff00; stroke-width:0.4" /><polyline points="181.3756613756614,44.867724867724874 184.55026455026456,23.915343915343918" style="fill:none; stroke:#ffaa00; stroke-width:0.4" /><polyline points="178.62433862433863,40.63492063492064 199.36507936507937,44.44444444444445" style="fill:none; stroke:#aaff00; stroke-width:0.4" /><polyline points="147.72486772486775,133.54497354497354 167.83068783068785,140.31746031746033" style="fill:none; stroke:#ffaa00; stroke-width:0.4" /><polyline points="152.38095238095238,131.85185185185185 139.8941798941799,148.99470899470901" style="fill:none; stroke:#aaff00; stroke-width:0.4" /><polyline points="0.8465608465608466,88.67724867724868 -3.3862433862433865,109.41798941798943" style="fill:none; stroke:#ffaa00; stroke-width:0.4" /><polyline points="3.8095238095238098,92.69841269841271 -16.50793650793651,86.56084656084657" style="fill:none; stroke:#aaff00; stroke-width:0.4" /><circle cx="96.08465608465609" cy="80.84656084656085" r="1.0" style="fill:#444444; stroke-width:0" /><circle cx="109.84126984126985" cy="96.2962962962963" r="10.582010582010582" style="fill:#ff770022; stroke-width:0" /><circle cx="109.84126984126985" cy="96.2962962962963" r="1.0" style="fill:#ff7700; stroke-width:0" /></svg>