<?xml version="1.0" encoding="UTF-8" standalone="no"?><svg width="582.8571428571429" height="581.5873015873017" viewBox="-10 -10 214.2857142857143 213.86243386243387" xmlns="http://www.w3.org/2000/svg" xmlns:xlink="http://www.w3.org/1999/xlink"><polyline points="0.4232804232804233,58.41269841269842 3.174603174603175,56.2962962962963 3.597883597883598,55.87301587301588 4.021164021164021,55.449735449735456 4.444444444444445,55.02645502645503 4.867724867724868,54.60317460317461 5.502645502645503,54.179894179894184 6.137566137566138,53.75661375661376 6.560846560846561,53.333333333333336 7.195767195767196,52.91005291005291 7.830687830687832,52.48677248677249 8.465608465608467,52.06349206349207 9.100529100529101,51.640211640211646 9.735449735449736,51.21693121693122 10.370370370370372,50.7936507936508 11.005291005291006,50.370370370370374 11.640211640211641,50.158730158730165 12.275132275132275,49.73544973544974 12.6984126984127,49.31216931216932 13.333333333333334,49.1005291005291 13.96825396825397,48.677248677248684 14.603174603174605,48.46560846560847 15.238095238095239,48.25396825396826 15.873015873015873,47.830687830687836 16.50793650793651,47.61904761904762 17.142857142857146,47.40740740740741 17.77777777777778,47.195767195767196 18.412698412698415,46.98412698412699 19.047619047619047,46.560846560846564 19.682539682539684,46.560846560846564 20.31746031746032,46.13756613756614 20.952380952380953,45.92592592592593 21.58730158730159,45.714285714285715 22.222222222222225,45.50264550264551 22.857142857142858,45.50264550264551 23.492063492063494,45.29100529100529 24.12698412698413,45.07936507936508 24.761904761904763,45.07936507936508 25.3968253968254,44.867724867724874 26.031746031746035,44.867724867724874 26.666666666666668,44.867724867724874 27.301587301587304,44.867724867724874 27.93650793650794,44.867724867724874 28.571428571428573,44.867724867724874 29.20634920634921,44.867724867724874 29.841269841269842,45.07936507936508 30.476190476190478,45.29100529100529 31.111111111111114,45.714285714285715 31.746031746031747,46.13756613756614 32.38095238095239,46.560846560846564 32.804232804232804,46.98412698412699 33.22751322751323,47.61904761904762 33.65079365079365,48.25396825396826 33.86243386243387,48.88888888888889 34.074074074074076,49.523809523809526 34.28571428571429,50.158730158730165 34.28571428571429,50.7936507936508 34.4973544973545,51.42857142857143 34.4973544973545,52.06349206349207 34.4973544973545,52.6984126984127 34.28571428571429,53.333333333333336 34.28571428571429,53.968253968253975 34.28571428571429,54.60317460317461 34.074074074074076,55.23809523809524 34.074074074074076,55.87301587301588 34.074074074074076,56.50793650793651 33.86243386243387,57.142857142857146 33.86243386243387,57.777777777777786 33.65079365079365,58.41269841269842 33.65079365079365,59.04761904761905 33.43915343915344,59.682539682539684 33.22751322751323,60.31746031746032 33.01587301587302,60.952380952380956 32.804232804232804,61.58730158730159 32.804232804232804,62.22222222222223 32.592592592592595,62.85714285714286 32.38095238095239,63.492063492063494 32.16931216931217,64.12698412698413 32.16931216931217,64.76190476190477 31.95767195767196,65.3968253968254 31.746031746031747,66.03174603174604 31.746031746031747,66.66666666666667 31.53439153439154,67.3015873015873 31.322751322751326,67.93650793650794 31.53439153439154,68.57142857142858 31.53439153439154,69.20634920634922 31.53439153439154,69.84126984126985 31.53439153439154,70.47619047619048 31.53439153439154,71.11111111111111 31.746031746031747,71.74603174603175 31.746031746031747,72.38095238095238 31.95767195767196,73.01587301587303 32.16931216931217,73.65079365079366 32.592592592592595,74.28571428571429 32.804232804232804,74.92063492063492 33.22751322751323,75.55555555555556 33.65079365079365,76.19047619047619 34.074074074074076,76.82539682539684 34.4973544973545,77.46031746031747 34.920634920634924,77.88359788359789 35.34391534391535,78.51851851851852 35.76719576719577,78.94179894179895 36.19047619047619,79.57671957671958 36.82539682539683,80.0 37.46031746031746,80.21164021164022 37.883597883597886,80.63492063492065 38.51851851851852,80.84656084656085 39.15343915343916,80.84656084656085 39.78835978835979,81.05820105820106 40.423280423280424,81.05820105820106 41.058201058201064,81.26984126984128 41.6931216931217,81.05820105820106 42.32804232804233,81.05820105820106 42.96296296296297,80.84656084656085 43.5978835978836,80.63492063492065 44.232804232804234,80.63492063492065 44.867724867724874,80.21164021164022 45.50264550264551,80.0 46.13756613756614,79.7883597883598 46.77248677248678,79.57671957671958 47.40740740740741,79.15343915343917 48.042328042328045,78.94179894179895 48.677248677248684,78.73015873015873 49.31216931216932,78.30687830687832 49.94708994708995,78.0952380952381 50.370370370370374,77.67195767195767 51.00529100529101,77.46031746031747 51.640211640211646,77.03703703703704 52.27513227513228,76.61375661375662 52.91005291005291,76.19047619047619 53.54497354497355,75.97883597883599 54.179894179894184,75.55555555555556 54.60317460317461,75.13227513227514 55.02645502645503,74.70899470899471 55.449735449735456,74.28571428571429 55.87301587301588,73.86243386243387 56.50793650793651,73.43915343915344 56.93121693121694,73.01587301587303 57.56613756613757,72.5925925925926 57.989417989417994,72.16931216931218 58.41269841269842,71.74603174603175 58.83597883597884,71.32275132275133 59.25925925925927,70.8994708994709 59.682539682539684,70.47619047619048 60.10582010582011,70.05291005291006 60.52910052910053,69.62962962962963 60.952380952380956,69.20634920634922 61.37566137566138,68.78306878306879 61.798941798941804,68.35978835978837 62.22222222222223,67.93650793650794 62.64550264550265,67.3015873015873 63.06878306878308,66.66666666666667 63.492063492063494,66.03174603174604 63.91534391534392,65.3968253968254 64.12698412698413,64.76190476190477 64.33862433862434,64.12698412698413 64.76190476190477,63.492063492063494 64.76190476190477,62.85714285714286 64.97354497354497,62.22222222222223 64.97354497354497,61.58730158730159 65.18518518518519,60.952380952380956 64.97354497354497,60.31746031746032 64.97354497354497,59.682539682539684 64.97354497354497,59.04761904761905 64.76190476190477,58.41269841269842 64.76190476190477,57.777777777777786 64.55026455026456,57.142857142857146 64.33862433862434,56.50793650793651 64.12698412698413,55.87301587301588 63.70370370370371,55.23809523809524 63.492063492063494,54.60317460317461 63.06878306878308,54.179894179894184 62.64550264550265,53.54497354497355 62.22222222222223,53.12169312169313 61.798941798941804,52.6984126984127 61.37566137566138,52.06349206349207 60.952380952380956,51.640211640211646 60.52910052910053,51.21693121693122 60.10582010582011,50.7936507936508 59.470899470899475,50.370370370370374 59.04761904761905,49.94708994708995 58.62433862433863,49.523809523809526 57.989417989417994,49.1005291005291 57.56613756613757,48.677248677248684 57.142857142857146,48.25396825396826 56.50793650793651,47.830687830687836 56.08465608465609,47.40740740740741 55.661375661375665,46.98412698412699 55.02645502645503,46.560846560846564 54.60317460317461,46.13756613756614 54.179894179894184,45.714285714285715 53.75661375661376,45.29100529100529 53.333333333333336,44.867724867724874 52.91005291005291,44.44444444444445 52.48677248677249,43.80952380952381 52.06349206349207,43.17460317460318 51.851851851851855,42.539682539682545 51.640211640211646,41.904761904761905 51.42857142857143,41.26984126984127 51.21693121693122,40.63492063492064 51.21693121693122,40.0 51.00529100529101,39.36507936507937 51.00529100529101,38.730158730158735 51.00529100529101,38.095238095238095 51.21693121693122,37.46031746031746 51.42857142857143,36.82539682539683 51.851851851851855,36.402116402116405 52.27513227513228,35.76719576719577 52.6984126984127,35.13227513227513 53.12169312169313,34.4973544973545 53.54497354497355,34.074074074074076 53.968253968253975,33.65079365079365 54.39153439153439,33.22751322751323 54.81481481481482,32.804232804232804 55.23809523809524,32.38095238095239 55.661375661375665,31.95767195767196 56.08465608465609,31.53439153439154 56.71957671957672,31.111111111111114 57.142857142857146,30.68783068783069 57.56613756613757,30.264550264550266 57.989417989417994,29.841269841269842 58.62433862433863,29.41798941798942 59.04761904761905,28.994708994708997 59.470899470899475,28.571428571428573 60.10582010582011,28.35978835978836 60.52910052910053,27.93650793650794 61.16402116402117,27.513227513227516 61.58730158730159,27.089947089947092 62.22222222222223,26.666666666666668 62.64550264550265,26.243386243386244 63.280423280423285,25.820105820105823 63.91534391534392,25.3968253968254 64.55026455026456,24.973544973544975 64.97354497354497,24.55026455026455 65.60846560846561,24.12698412698413 66.03174603174604,23.703703703703706 66.66666666666667,23.280423280423282 67.3015873015873,22.857142857142858 67.72486772486774,22.433862433862437 68.35978835978837,22.010582010582013 68.994708994709,21.58730158730159 69.62962962962963,21.164021164021165 70.26455026455027,20.740740740740744 70.8994708994709,20.31746031746032 71.53439153439155,19.894179894179896 72.16931216931218,19.47089947089947 72.80423280423281,19.047619047619047 73.43915343915344,18.624338624338627 73.86243386243387,18.201058201058203 74.28571428571429,17.77777777777778 74.92063492063492,17.566137566137566 75.55555555555556,17.142857142857146 76.19047619047619,16.71957671957672 76.82539682539684,16.296296296296298 77.46031746031747,15.873015873015873 78.0952380952381,15.449735449735451 78.73015873015873,15.026455026455027 79.36507936507937,14.814814814814817 80.0,14.391534391534393 80.63492063492065,13.96825396825397 81.05820105820106,13.544973544973546 81.6931216931217,13.121693121693122 82.32804232804233,12.910052910052912 82.75132275132276,12.486772486772487 83.3862433862434,12.275132275132275 83.80952380952381,11.851851851851853 84.44444444444446,11.640211640211641 85.07936507936509,11.216931216931219 85.71428571428572,11.005291005291006 86.34920634920636,10.582010582010582 86.98412698412699,10.15873015873016 87.61904761904762,9.947089947089948 88.25396825396827,9.523809523809524 88.8888888888889,9.100529100529101 89.52380952380953,8.88888888888889 90.15873015873017,8.677248677248677 90.7936507936508,8.465608465608467 91.42857142857143,8.042328042328043 92.06349206349208,7.830687830687832 92.4867724867725,7.407407407407408 93.12169312169313,7.195767195767196 93.75661375661376,6.984126984126985 94.39153439153439,6.560846560846561 95.02645502645504,6.34920634920635 95.66137566137567,6.137566137566138 96.2962962962963,5.9259259259259265 96.93121693121694,5.714285714285714 97.56613756613757,5.291005291005291 98.2010582010582,4.867724867724868 98.83597883597885,4.867724867724868 99.25925925925927,4.444444444444445 99.8941798941799,4.2328042328042335 100.52910052910053,4.021164021164021 101.16402116402116,3.597883597883598 101.79894179894181,3.597883597883598 102.43386243386244,3.174603174603175 103.06878306878308,2.9629629629629632 103.70370370370371,2.7513227513227516 104.33862433862434,2.3280423280423284 104.97354497354497,2.3280423280423284 105.60846560846562,1.9047619047619049 106.24338624338625,1.9047619047619049 106.66666666666667,1.4814814814814816 107.3015873015873,1.26984126984127 107.93650793650795,1.0582010582010584 110.6878306878307,0.0" style="fill:none; stroke:#cc0000; stroke-width:1.0"  /><polyline points="110.6878306878307,0.0 111.11111111111111,3.597883597883598 111.11111111111111,4.2328042328042335 111.53439153439155,4.867724867724868 111.53439153439155,5.502645502645503 111.53439153439155,6.137566137566138 111.53439153439155,6.772486772486773 111.53439153439155,7.407407407407408 111.53439153439155,8.042328042328043 111.53439153439155,8.677248677248677 111.74603174603176,9.312169312169313 111.74603174603176,9.947089947089948 111.74603174603176,10.582010582010582 111.74603174603176,11.216931216931219 111.95767195767196,11.851851851851853 111.95767195767196,12.486772486772487 112.16931216931218,13.121693121693122 112.16931216931218,13.756613756613758 112.3809523809524,14.391534391534393 112.3809523809524,15.026455026455027 112.3809523809524,15.661375661375663 112.5925925925926,16.296296296296298 112.5925925925926,16.931216931216934 112.80423280423281,17.566137566137566 113.01587301587303,18.201058201058203 113.01587301587303,18.83597883597884 113.22751322751324,19.47089947089947 113.22751322751324,20.105820105820108 113.43915343915344,20.740740740740744 113.43915343915344,21.375661375661377 113.65079365079366,22.010582010582013 113.65079365079366,22.645502645502646 113.86243386243387,23.280423280423282 114.07407407407408,23.915343915343918 114.07407407407408,24.55026455026455 114.28571428571429,25.185185185185187 114.49735449735451,25.820105820105823 114.49735449735451,26.455026455026456 114.70899470899472,27.089947089947092 114.92063492063492,27.724867724867728 115.13227513227514,28.35978835978836 115.34391534391536,28.994708994708997 115.34391534391536,29.629629629629633 115.55555555555557,30.264550264550266 115.76719576719577,30.899470899470902 115.76719576719577,31.53439153439154 116.1904761904762,32.16931216931217 116.1904761904762,32.804232804232804 116.4021164021164,33.43915343915344 116.61375661375662,34.074074074074076 116.82539682539684,34.70899470899471 117.03703703703705,35.34391534391535 117.24867724867725,35.97883597883598 117.46031746031747,36.613756613756614 117.46031746031747,37.248677248677254 117.67195767195768,37.883597883597886 117.88359788359789,38.51851851851852 118.0952380952381,39.15343915343916 118.51851851851853,39.57671957671958 118.73015873015873,40.211640211640216 118.94179894179895,40.84656084656085 119.15343915343917,41.48148148148149 119.36507936507937,42.11640211640212 119.36507936507937,42.75132275132275 119.7883597883598,43.386243386243386 120.00000000000001,44.021164021164026 120.21164021164022,44.65608465608466 120.42328042328043,45.29100529100529 120.63492063492065,45.92592592592593 120.84656084656086,46.560846560846564 121.05820105820106,47.195767195767196 121.4814814814815,47.830687830687836 121.6931216931217,48.46560846560847 122.11640211640213,49.1005291005291 122.32804232804234,49.73544973544974 122.75132275132276,50.158730158730165 123.17460317460318,50.7936507936508 123.59788359788361,51.42857142857143 124.02116402116403,52.06349206349207 124.44444444444446,52.6984126984127 124.86772486772487,53.12169312169313 125.2910052910053,53.75661375661376 125.71428571428572,54.39153439153439 126.13756613756615,54.81481481481482 126.56084656084657,55.449735449735456 126.98412698412699,55.87301587301588 127.40740740740742,56.50793650793651 127.83068783068784,57.142857142857146 128.25396825396825,57.56613756613757 128.67724867724868,57.989417989417994 129.10052910052912,58.62433862433863 129.52380952380955,59.04761904761905 129.94708994708995,59.470899470899475 130.37037037037038,59.8941798941799 130.7936507936508,60.52910052910053 131.21693121693121,60.952380952380956 131.64021164021165,61.58730158730159 132.06349206349208,62.01058201058201 132.4867724867725,62.43386243386244 132.9100529100529,63.06878306878308 133.33333333333334,63.492063492063494 133.75661375661377,63.91534391534392 134.17989417989418,64.55026455026456 134.6031746031746,64.97354497354497 134.81481481481484,65.60846560846561 135.23809523809524,66.03174603174604 135.66137566137567,66.66666666666667 136.0846560846561,67.08994708994709 136.5079365079365,67.51322751322752 136.93121693121694,67.93650793650794 137.35449735449737,68.35978835978837 137.7777777777778,68.994708994709 138.41269841269843,69.41798941798942 138.83597883597884,69.84126984126985 139.25925925925927,70.26455026455027 139.8941798941799,70.6878306878307 140.31746031746033,71.11111111111111 140.95238095238096,71.32275132275133 141.3756613756614,71.74603174603175 142.01058201058203,72.16931216931218 142.64550264550266,72.38095238095238 143.0687830687831,72.80423280423281 143.70370370370372,73.01587301587303 144.33862433862436,73.22751322751323 144.973544973545,73.22751322751323 145.60846560846562,73.43915343915344 146.24338624338625,73.65079365079366 146.8783068783069,73.65079365079366 147.51322751322752,73.65079365079366 148.14814814814815,73.65079365079366 148.78306878306879,73.65079365079366 149.41798941798942,73.43915343915344 150.05291005291005,73.22751322751323 150.6878306878307,73.01587301587303 151.32275132275134,72.80423280423281 151.74603174603175,72.38095238095238 152.38095238095238,71.95767195767196 153.01587301587304,71.53439153439155 153.65079365079367,71.11111111111111 154.2857142857143,70.6878306878307 154.92063492063494,70.26455026455027 155.34391534391534,69.84126984126985 155.978835978836,69.62962962962963 156.4021164021164,69.20634920634922 156.82539682539684,68.78306878306879 157.46031746031747,68.57142857142858 157.8835978835979,68.14814814814815 158.30687830687833,67.72486772486774 158.94179894179896,67.51322751322752 159.36507936507937,67.08994708994709 159.7883597883598,66.66666666666667 160.21164021164023,66.24338624338625 160.84656084656086,65.82010582010582 161.2698412698413,65.3968253968254 161.6931216931217,64.97354497354497 162.32804232804233,64.55026455026456 162.96296296296296,64.12698412698413 163.59788359788362,63.91534391534392 164.02116402116403,63.492063492063494 164.44444444444446,63.06878306878308 165.0793650793651,62.64550264550265 165.71428571428572,62.22222222222223 166.34920634920636,62.01058201058201 166.7724867724868,61.58730158730159 167.19576719576722,61.16402116402117 167.83068783068785,61.16402116402117 168.46560846560848,60.952380952380956 168.8888888888889,60.52910052910053 169.52380952380955,60.31746031746032 170.15873015873018,59.8941798941799 170.7936507936508,59.682539682539684 171.42857142857144,59.470899470899475 172.06349206349208,59.470899470899475 172.6984126984127,59.25925925925927 173.33333333333334,59.04761904761905 173.96825396825398,58.83597883597884 174.6031746031746,58.83597883597884 175.23809523809524,58.62433862433863 175.87301587301587,58.62433862433863 176.50793650793653,58.62433862433863 177.14285714285717,58.62433862433863 177.7777777777778,58.62433862433863 178.41269841269843,58.62433862433863 179.04761904761907,58.62433862433863 179.6825396825397,58.62433862433863 180.31746031746033,58.83597883597884 180.95238095238096,59.25925925925927 181.5873015873016,59.682539682539684 182.22222222222223,60.10582010582011 182.85714285714286,60.52910052910053 183.2804232804233,60.952380952380956 183.70370370370372,61.37566137566138 184.33862433862436,61.798941798941804 184.7619047619048,62.22222222222223 185.1851851851852,62.64550264550265 185.60846560846562,63.06878306878308 186.03174603174605,63.492063492063494 186.45502645502646,63.91534391534392 186.8783068783069,64.33862433862434 187.30158730158732,64.76190476190477 187.72486772486775,65.18518518518519 188.14814814814815,65.60846560846561 188.57142857142858,66.24338624338625 188.99470899470901,66.87830687830689 189.41798941798945,67.3015873015873 189.84126984126985,67.93650793650794 190.26455026455028,68.57142857142858 190.6878306878307,69.20634920634922 191.11111111111111,69.84126984126985 191.32275132275134,70.47619047619048 191.74603174603175,71.11111111111111 191.95767195767198,71.74603174603175 192.16931216931218,72.38095238095238 192.3809523809524,73.01587301587303 192.5925925925926,73.65079365079366 193.01587301587304,74.28571428571429 193.22751322751324,74.92063492063492 193.43915343915344,75.55555555555556 193.43915343915344,76.19047619047619 193.65079365079367,76.82539682539684 193.65079365079367,77.46031746031747 193.65079365079367,78.0952380952381 193.86243386243387,78.73015873015873 193.86243386243387,79.36507936507937 193.86243386243387,80.0 193.65079365079367,80.63492063492065 193.65079365079367,81.26984126984128 193.65079365079367,81.90476190476191 193.43915343915344,82.53968253968254 193.43915343915344,83.17460317460318 193.22751322751324,83.80952380952381 193.22751322751324,84.44444444444446 193.01587301587304,85.07936507936509 192.8042328042328,85.71428571428572 192.8042328042328,86.34920634920636 192.5925925925926,86.98412698412699 192.3809523809524,87.61904761904762 192.16931216931218,88.25396825396827 191.95767195767198,88.8888888888889 191.74603174603175,89.52380952380953 191.53439153439155,90.15873015873017 191.11111111111111,90.7936507936508 190.8994708994709,91.42857142857143 190.47619047619048,92.06349206349208 190.05291005291008,92.69841269841271 189.84126984126985,93.33333333333334 189.41798941798945,93.75661375661376 188.99470899470901,94.39153439153439 188.57142857142858,94.81481481481482 188.14814814814815,95.23809523809524 187.72486772486775,95.66137566137567 187.08994708994712,95.87301587301587 186.66666666666669,96.2962962962963 186.03174603174605,96.50793650793652 185.39682539682542,96.71957671957672 184.7619047619048,96.93121693121694 184.12698412698415,97.14285714285715 183.4920634920635,97.14285714285715 182.85714285714286,97.35449735449737 182.22222222222223,97.35449735449737 181.5873015873016,97.35449735449737 180.95238095238096,97.35449735449737 180.31746031746033,97.35449735449737 179.6825396825397,97.35449735449737 179.04761904761907,97.35449735449737 178.41269841269843,97.56613756613757 177.7777777777778,97.35449735449737 177.14285714285717,97.35449735449737 176.50793650793653,97.14285714285715 175.87301587301587,96.93121693121694 175.23809523809524,96.71957671957672 174.6031746031746,96.50793650793652 173.96825396825398,96.2962962962963 173.33333333333334,96.08465608465609 172.6984126984127,95.66137566137567 172.06349206349208,95.66137566137567 171.42857142857144,95.23809523809524 170.7936507936508,95.02645502645504 170.15873015873018,95.02645502645504 169.52380952380955,94.81481481481482 168.8888888888889,94.60317460317461 168.25396825396825,94.39153439153439 167.61904761904762,94.39153439153439 166.984126984127,94.17989417989419 166.34920634920636,94.17989417989419 165.71428571428572,94.17989417989419 165.0793650793651,93.96825396825398 164.44444444444446,93.96825396825398 163.80952380952382,93.96825396825398 163.1746031746032,93.96825396825398 162.53968253968256,93.96825396825398 161.90476190476193,94.17989417989419 161.2698412698413,94.17989417989419 160.63492063492066,94.39153439153439 160.0,94.39153439153439 159.36507936507937,94.60317460317461 158.73015873015873,94.81481481481482 158.0952380952381,95.02645502645504 157.46031746031747,95.23809523809524 156.82539682539684,95.44973544973546 156.4021164021164,95.87301587301587 155.76719576719577,96.08465608465609 155.34391534391534,96.50793650793652 154.7089947089947,96.93121693121694 154.2857142857143,97.35449735449737 153.86243386243387,97.77777777777779 153.43915343915344,98.2010582010582 153.01587301587304,98.62433862433863 152.5925925925926,99.25925925925927 152.38095238095238,99.8941798941799 151.95767195767198,100.52910052910053 151.74603174603175,101.16402116402116 151.53439153439155,101.79894179894181 151.32275132275134,102.43386243386244 151.32275132275134,103.06878306878308 151.32275132275134,103.70370370370371 151.32275132275134,104.33862433862434 151.32275132275134,104.97354497354497 151.32275132275134,105.60846560846562 151.32275132275134,106.24338624338625 151.53439153439155,106.87830687830689 151.53439153439155,107.51322751322752 151.53439153439155,108.14814814814815 151.74603174603175,108.78306878306879 152.16931216931218,109.41798941798943 152.16931216931218,110.05291005291006 152.38095238095238,110.6878306878307 152.5925925925926,111.32275132275133 152.8042328042328,111.95767195767196 153.01587301587304,112.5925925925926 153.01587301587304,113.22751322751324 153.22751322751324,113.86243386243387 153.43915343915344,114.49735449735451 153.65079365079367,115.13227513227514 153.86243386243387,115.76719576719577 154.2857142857143,116.4021164021164 154.4973544973545,117.03703703703705 154.7089947089947,117.67195767195768 155.13227513227514,118.30687830687832 155.34391534391534,118.94179894179895 155.55555555555557,119.57671957671958 155.978835978836,120.00000000000001 156.1904761904762,120.63492063492065 156.61375661375664,121.05820105820106 157.03703703703704,121.6931216931217 157.46031746031747,122.32804232804234 157.8835978835979,122.96296296296298 158.30687830687833,123.59788359788361 158.73015873015873,124.02116402116403 159.15343915343917,124.65608465608466 159.5767195767196,125.2910052910053 160.0,125.71428571428572 160.42328042328043,126.13756613756615 160.84656084656086,126.77248677248679 161.2698412698413,127.1957671957672 161.6931216931217,127.61904761904763 162.11640211640213,128.04232804232805 162.53968253968256,128.67724867724868 162.96296296296296,129.10052910052912 163.3862433862434,129.52380952380955 163.80952380952382,129.94708994708995 164.23280423280426,130.58201058201058 164.65608465608466,131.005291005291 165.0793650793651,131.42857142857144 165.50264550264552,131.85185185185185 165.92592592592595,132.27513227513228 166.34920634920636,132.9100529100529 166.7724867724868,133.33333333333334 167.19576719576722,133.75661375661377 167.61904761904762,134.17989417989418 168.04232804232805,134.6031746031746 168.46560846560848,135.02645502645504 168.8888888888889,135.66137566137567 169.31216931216932,136.0846560846561 169.73544973544975,136.5079365079365 170.15873015873018,137.14285714285717 170.7936507936508,137.56613756613757 171.21693121693124,137.989417989418 171.64021164021165,138.62433862433863 172.06349206349208,139.04761904761907 172.4867724867725,139.47089947089947 172.9100529100529,139.8941798941799 173.33333333333334,140.31746031746033 173.75661375661377,140.74074074074076 174.1798941798942,141.16402116402116 174.6031746031746,141.5873015873016 175.02645502645504,142.22222222222223 175.44973544973547,142.64550264550266 175.87301587301587,143.0687830687831 176.2962962962963,143.4920634920635 176.71957671957674,143.91534391534393 177.14285714285717,144.33862433862436 177.56613756613757,144.76190476190476 177.989417989418,145.1851851851852 178.41269841269843,145.82010582010582 178.83597883597884,146.24338624338625 179.25925925925927,146.66666666666669 179.6825396825397,147.0899470899471 180.10582010582013,147.72486772486775 182.43386243386246,150.26455026455028" style="fill:none; stroke:#999900; stroke-width:1.0"  /><polyline points="182.43386243386246,150.26455026455028 178.83597883597884,151.95767195767198 178.41269841269843,152.38095238095238 177.7777777777778,152.5925925925926 177.14285714285717,152.8042328042328 176.50793650793653,153.22751322751324 175.87301587301587,153.43915343915344 175.44973544973547,153.86243386243387 174.81481481481484,154.07407407407408 174.1798941798942,154.2857142857143 173.54497354497354,154.4973544973545 172.9100529100529,154.7089947089947 172.27513227513228,154.92063492063494 171.64021164021165,155.34391534391534 171.005291005291,155.55555555555557 170.37037037037038,155.76719576719577 169.73544973544975,155.978835978836 169.10052910052912,156.1904761904762 168.46560846560848,156.4021164021164 167.83068783068785,156.61375661375664 167.19576719576722,156.82539682539684 166.56084656084658,157.03703703703704 165.92592592592595,157.24867724867727 165.2910052910053,157.46031746031747 164.65608465608466,157.46031746031747 164.02116402116403,157.67195767195767 163.3862433862434,157.8835978835979 162.75132275132276,158.0952380952381 162.11640211640213,158.30687830687833 161.4814814814815,158.30687830687833 160.84656084656086,158.51851851851853 160.21164021164023,158.73015873015873 159.5767195767196,158.73015873015873 158.94179894179896,158.94179894179896 158.30687830687833,158.94179894179896 157.67195767195767,159.15343915343917 157.03703703703704,159.36507936507937 156.4021164021164,159.36507936507937 155.76719576719577,159.5767195767196 155.13227513227514,159.5767195767196 154.4973544973545,159.7883597883598 153.86243386243387,159.7883597883598 153.22751322751324,159.7883597883598 152.5925925925926,159.7883597883598 151.95767195767198,160.0 151.32275132275134,160.0 150.6878306878307,160.0 150.05291005291005,160.0 149.41798941798942,160.21164021164023 148.78306878306879,160.0 148.14814814814815,160.0 147.51322751322752,160.21164021164023 146.8783068783069,160.0 146.24338624338625,160.0 145.60846560846562,159.7883597883598 144.973544973545,159.5767195767196 144.33862433862436,159.36507936507937 143.70370370370372,159.15343915343917 143.2804232804233,158.73015873015873 142.85714285714286,158.30687830687833 142.43386243386246,157.8835978835979 142.01058201058203,157.24867724867727 141.5873015873016,156.61375661375664 141.5873015873016,155.978835978836 141.16402116402116,155.34391534391534 141.16402116402116,154.7089947089947 140.95238095238096,154.07407407407408 140.95238095238096,153.43915343915344 140.95238095238096,152.8042328042328 140.95238095238096,152.16931216931218 141.16402116402116,151.53439153439155 141.16402116402116,150.8994708994709 141.3756613756614,150.26455026455028 141.3756613756614,149.62962962962965 141.5873015873016,148.99470899470901 141.7989417989418,148.35978835978838 142.01058201058203,147.72486772486775 142.43386243386246,147.0899470899471 142.43386243386246,146.45502645502646 142.85714285714286,145.82010582010582 142.85714285714286,145.1851851851852 143.0687830687831,144.55026455026456 142.85714285714286,143.91534391534393 143.0687830687831,143.2804232804233 143.0687830687831,142.64550264550266 143.0687830687831,142.01058201058203 143.0687830687831,141.3756613756614 142.85714285714286,140.74074074074076 142.85714285714286,140.10582010582013 142.64550264550266,139.47089947089947 142.22222222222223,138.83597883597884 142.01058201058203,138.2010582010582 141.7989417989418,137.56613756613757 141.3756613756614,137.14285714285717 140.95238095238096,136.71957671957674 140.52910052910053,136.0846560846561 140.10582010582013,135.66137566137567 139.47089947089947,135.23809523809524 138.83597883597884,134.81481481481484 138.2010582010582,134.6031746031746 137.56613756613757,134.3915343915344 136.93121693121694,134.17989417989418 136.2962962962963,133.96825396825398 135.66137566137567,133.96825396825398 135.02645502645504,133.96825396825398 134.3915343915344,133.96825396825398 133.75661375661377,133.75661375661377 133.12169312169314,133.75661375661377 132.4867724867725,133.75661375661377 131.85185185185185,133.75661375661377 131.21693121693121,133.75661375661377 130.58201058201058,133.96825396825398 129.94708994708995,133.96825396825398 129.31216931216932,133.96825396825398 128.67724867724868,134.17989417989418 128.04232804232805,134.17989417989418 127.40740740740742,134.17989417989418 126.77248677248679,134.17989417989418 126.13756613756615,134.3915343915344 125.5026455026455,134.3915343915344 124.86772486772487,134.6031746031746 124.23280423280424,134.6031746031746 123.59788359788361,134.81481481481484 122.96296296296298,134.81481481481484 122.32804232804234,135.02645502645504 121.6931216931217,135.02645502645504 121.05820105820106,135.23809523809524 120.42328042328043,135.23809523809524 119.7883597883598,135.44973544973547 119.15343915343917,135.66137566137567 118.51851851851853,135.87301587301587 117.88359788359789,135.87301587301587 117.24867724867725,136.0846560846561 116.61375661375662,136.2962962962963 115.97883597883599,136.5079365079365 115.34391534391536,136.71957671957674 114.70899470899472,136.93121693121694 114.07407407407408,137.35449735449737 113.43915343915344,137.56613756613757 112.80423280423281,137.7777777777778 112.16931216931218,138.2010582010582 111.53439153439155,138.41269841269843 110.89947089947091,138.83597883597884 110.26455026455027,139.04761904761907 109.62962962962963,139.47089947089947 108.994708994709,139.6825396825397 108.57142857142858,140.10582010582013 108.14814814814815,140.52910052910053 107.51322751322752,140.74074074074076 107.0899470899471,141.16402116402116 106.45502645502647,141.5873015873016 105.82010582010582,141.7989417989418 105.3968253968254,142.22222222222223 104.76190476190477,142.64550264550266 104.12698412698414,143.0687830687831 103.4920634920635,143.4920634920635 102.85714285714286,143.91534391534393 102.43386243386244,144.33862433862436 102.01058201058201,144.76190476190476 101.5873015873016,145.1851851851852 100.95238095238096,145.60846560846562 100.52910052910053,146.03174603174605 99.8941798941799,146.45502645502646 99.47089947089948,146.8783068783069 99.04761904761905,147.30158730158732 98.62433862433863,147.72486772486775 98.2010582010582,148.14814814814815 97.77777777777779,148.78306878306879 97.56613756613757,149.41798941798942 97.14285714285715,150.05291005291005 96.93121693121694,150.6878306878307 96.71957671957672,151.32275132275134 96.93121693121694,151.95767195767198 96.71957671957672,152.5925925925926 96.71957671957672,153.22751322751324 96.93121693121694,153.86243386243387 97.14285714285715,154.4973544973545 97.35449735449737,155.13227513227514 97.56613756613757,155.76719576719577 97.77777777777779,156.4021164021164 98.2010582010582,157.03703703703704 98.41269841269842,157.67195767195767 98.62433862433863,158.30687830687833 99.04761904761905,158.73015873015873 99.47089947089948,159.36507936507937 99.8941798941799,160.0 100.31746031746033,160.42328042328043 100.74074074074075,161.05820105820106 101.16402116402116,161.4814814814815 101.37566137566138,162.11640211640213 101.79894179894181,162.53968253968256 102.22222222222223,162.96296296296296 102.64550264550266,163.59788359788362 102.85714285714286,164.23280423280426 103.06878306878308,164.8677248677249 103.28042328042329,165.50264550264552 103.28042328042329,166.13756613756615 103.28042328042329,166.7724867724868 103.28042328042329,167.40740740740742 103.28042328042329,168.04232804232805 103.06878306878308,168.67724867724868 102.85714285714286,169.31216931216932 102.64550264550266,169.94708994708995 102.43386243386244,170.58201058201058 102.01058201058201,171.21693121693124 101.5873015873016,171.85185185185188 101.16402116402116,172.4867724867725 100.52910052910053,172.9100529100529 99.8941798941799,173.33333333333334 99.47089947089948,173.75661375661377 98.83597883597885,174.1798941798942 98.2010582010582,174.6031746031746 97.56613756613757,174.81481481481484 97.14285714285715,175.23809523809524 96.50793650793652,175.44973544973547 95.87301587301587,175.66137566137567 95.23809523809524,176.0846560846561 94.60317460317461,176.2962962962963 93.96825396825398,176.71957671957674 93.33333333333334,176.93121693121694 92.69841269841271,177.35449735449737 92.06349206349208,177.56613756613757 91.42857142857143,177.989417989418 90.7936507936508,178.2010582010582 90.15873015873017,178.62433862433863 89.52380952380953,179.04761904761907 88.8888888888889,179.25925925925927 88.46560846560847,179.6825396825397 87.83068783068784,180.10582010582013 87.1957671957672,180.52910052910053 86.56084656084657,180.95238095238096 85.92592592592594,181.16402116402116 85.5026455026455,181.5873015873016 84.86772486772487,182.01058201058203 84.23280423280424,182.22222222222223 83.80952380952381,182.64550264550266 83.17460317460318,183.0687830687831 82.53968253968254,183.4920634920635 82.11640211640213,183.91534391534393 81.48148148148148,184.12698412698415 81.05820105820106,184.55026455026456 80.42328042328043,184.973544973545 80.0,185.39682539682542 79.36507936507937,185.82010582010582 78.73015873015873,186.24338624338625 78.0952380952381,186.66666666666669 77.46031746031747,187.08994708994712 76.82539682539684,187.51322751322752 76.19047619047619,187.93650793650795 75.55555555555556,188.35978835978838 75.13227513227514,188.78306878306879 74.70899470899471,189.20634920634922 74.07407407407408,189.62962962962965 73.65079365079366,190.26455026455028 73.01587301587303,190.6878306878307 72.5925925925926,191.11111111111111 72.16931216931218,191.53439153439155 69.20634920634922,193.86243386243387" style="fill:none; stroke:#00aa99; stroke-width:1.0"  /><polyline points="69.20634920634922,193.86243386243387 67.72486772486774,190.26455026455028 67.3015873015873,189.62962962962965 67.08994708994709,188.99470899470901 66.87830687830689,188.35978835978838 66.66666666666667,187.72486772486775 66.45502645502646,187.08994708994712 66.24338624338625,186.45502645502646 65.82010582010582,185.82010582010582 65.60846560846561,185.1851851851852 65.3968253968254,184.55026455026456 64.97354497354497,183.91534391534393 64.76190476190477,183.2804232804233 64.55026455026456,182.64550264550266 64.12698412698413,182.01058201058203 63.91534391534392,181.3756613756614 63.492063492063494,180.74074074074076 63.280423280423285,180.10582010582013 62.85714285714286,179.4708994708995 62.43386243386244,179.04761904761907 62.22222222222223,178.41269841269843 61.798941798941804,177.7777777777778 61.58730158730159,177.14285714285717 61.16402116402117,176.50793650793653 60.952380952380956,175.87301587301587 60.52910052910053,175.23809523809524 60.31746031746032,174.6031746031746 59.8941798941799,173.96825396825398 59.682539682539684,173.33333333333334 59.25925925925927,172.6984126984127 58.83597883597884,172.06349206349208 58.62433862433863,171.42857142857144 58.41269841269842,170.7936507936508 57.989417989417994,170.15873015873018 57.777777777777786,169.52380952380955 57.35449735449736,168.8888888888889 56.93121693121694,168.25396825396825 56.71957671957672,167.61904761904762 56.2962962962963,167.19576719576722 56.08465608465609,166.56084656084658 55.661375661375665,165.92592592592595 55.23809523809524,165.2910052910053 55.02645502645503,164.65608465608466 54.60317460317461,164.02116402116403 54.179894179894184,163.3862433862434 53.968253968253975,162.75132275132276 53.54497354497355,162.32804232804233 53.333333333333336,161.6931216931217 52.91005291005291,161.2698412698413 52.6984126984127,160.63492063492066 52.27513227513228,160.0 51.851851851851855,159.36507936507937 51.640211640211646,158.73015873015873 51.21693121693122,158.30687830687833 51.00529100529101,157.67195767195767 50.58201058201058,157.03703703703704 50.370370370370374,156.4021164021164 49.94708994708995,155.76719576719577 49.73544973544974,155.13227513227514 49.73544973544974,154.4973544973545 49.523809523809526,153.86243386243387 49.523809523809526,153.22751322751324 49.73544973544974,152.5925925925926 49.94708994708995,151.95767195767198 49.94708994708995,151.32275132275134 50.370370370370374,150.6878306878307 50.7936507936508,150.05291005291005 51.21693121693122,149.62962962962965 51.851851851851855,149.41798941798942 52.27513227513228,148.99470899470901 52.91005291005291,148.78306878306879 53.54497354497355,148.35978835978838 54.179894179894184,148.14814814814815 54.81481481481482,147.93650793650795 55.449735449735456,147.72486772486775 56.08465608465609,147.72486772486775 56.71957671957672,147.51322751322752 57.35449735449736,147.51322751322752 57.989417989417994,147.51322751322752 58.62433862433863,147.51322751322752 59.25925925925927,147.51322751322752 59.8941798941799,147.51322751322752 60.52910052910053,147.51322751322752 61.16402116402117,147.51322751322752 61.798941798941804,147.30158730158732 62.43386243386244,147.30158730158732 63.06878306878308,147.0899470899471 63.70370370370371,146.8783068783069 64.33862433862434,146.8783068783069 64.97354497354497,146.66666666666669 65.60846560846561,146.24338624338625 66.24338624338625,146.24338624338625 66.87830687830689,145.82010582010582 67.51322751322752,145.60846560846562 68.14814814814815,145.1851851851852 68.78306878306879,144.76190476190476 69.20634920634922,144.33862433862436 69.62962962962963,143.91534391534393 70.05291005291006,143.4920634920635 70.47619047619048,143.0687830687831 70.8994708994709,142.43386243386246 71.32275132275133,142.01058201058203 71.74603174603175,141.3756613756614 71.95767195767196,140.74074074074076 72.38095238095238,140.10582010582013 72.5925925925926,139.47089947089947 73.01587301587303,138.83597883597884 73.01587301587303,138.2010582010582 73.43915343915344,137.56613756613757 73.43915343915344,136.93121693121694 73.65079365079366,136.2962962962963 73.86243386243387,135.66137566137567 73.86243386243387,135.02645502645504 74.07407407407408,134.3915343915344 74.07407407407408,133.75661375661377 74.07407407407408,133.12169312169314 74.28571428571429,132.4867724867725 74.28571428571429,131.85185185185185 74.49735449735451,131.21693121693121 74.49735449735451,130.58201058201058 74.49735449735451,129.94708994708995 74.49735449735451,129.31216931216932 74.49735449735451,128.67724867724868 74.49735449735451,128.04232804232805 74.49735449735451,127.40740740740742 74.49735449735451,126.77248677248679 74.49735449735451,126.13756613756615 74.49735449735451,125.5026455026455 74.28571428571429,124.86772486772487 74.28571428571429,124.23280423280424 74.28571428571429,123.59788359788361 74.07407407407408,122.96296296296298 74.07407407407408,122.32804232804234 73.86243386243387,121.6931216931217 73.65079365079366,121.05820105820106 73.65079365079366,120.42328042328043 73.43915343915344,119.7883597883598 73.43915343915344,119.15343915343917 73.22751322751323,118.51851851851853 73.01587301587303,117.88359788359789 72.80423280423281,117.24867724867725 72.5925925925926,116.61375661375662 72.16931216931218,115.97883597883599 71.95767195767196,115.34391534391536 71.53439153439155,114.70899470899472 71.32275132275133,114.07407407407408 70.8994708994709,113.65079365079366 70.6878306878307,113.01587301587303 70.26455026455027,112.5925925925926 69.84126984126985,112.16931216931218 69.41798941798942,111.53439153439155 68.994708994709,111.11111111111111 68.57142857142858,110.47619047619048 68.14814814814815,110.05291005291006 67.72486772486774,109.62962962962963 67.08994708994709,109.20634920634922 66.66666666666667,108.78306878306879 66.24338624338625,108.35978835978837 65.60846560846561,107.93650793650795 64.97354497354497,107.51322751322752 64.33862433862434,107.3015873015873 63.70370370370371,107.0899470899471 63.06878306878308,106.87830687830689 62.43386243386244,106.87830687830689 61.798941798941804,106.66666666666667 61.16402116402117,106.66666666666667 60.52910052910053,106.87830687830689 59.8941798941799,106.87830687830689 59.25925925925927,107.0899470899471 58.62433862433863,107.3015873015873 57.989417989417994,107.3015873015873 57.35449735449736,107.51322751322752 56.71957671957672,107.93650793650795 56.08465608465609,108.14814814814815 55.449735449735456,108.35978835978837 54.81481481481482,108.57142857142858 54.179894179894184,108.994708994709 53.54497354497355,109.20634920634922 52.91005291005291,109.62962962962963 52.48677248677249,110.05291005291006 51.851851851851855,110.47619047619048 51.21693121693122,110.89947089947091 50.7936507936508,111.32275132275133 50.158730158730165,111.74603174603176 49.73544973544974,112.16931216931218 49.1005291005291,112.5925925925926 48.677248677248684,113.01587301587303 48.25396825396826,113.43915343915344 47.830687830687836,113.86243386243387 47.40740740740741,114.28571428571429 46.98412698412699,114.70899470899472 46.560846560846564,115.13227513227514 46.13756613756614,115.55555555555557 45.714285714285715,115.97883597883599 45.29100529100529,116.4021164021164 44.867724867724874,116.82539682539684 44.44444444444445,117.24867724867725 43.80952380952381,117.67195767195768 43.17460317460318,118.0952380952381 42.539682539682545,118.51851851851853 41.904761904761905,118.73015873015873 41.26984126984127,119.15343915343917 40.63492063492064,119.36507936507937 40.0,119.7883597883598 39.36507936507937,120.00000000000001 38.730158730158735,120.42328042328043 38.095238095238095,120.63492063492065 37.46031746031746,121.05820105820106 36.82539682539683,121.26984126984128 36.19047619047619,121.4814814814815 35.55555555555556,121.4814814814815 34.920634920634924,121.6931216931217 34.28571428571429,121.90476190476191 33.65079365079365,121.90476190476191 33.01587301587302,122.11640211640213 32.38095238095239,122.11640211640213 31.746031746031747,122.11640211640213 31.111111111111114,122.11640211640213 30.476190476190478,122.11640211640213 29.841269841269842,122.11640211640213 29.20634920634921,121.90476190476191 28.571428571428573,121.6931216931217 27.93650793650794,121.4814814814815 27.301587301587304,121.26984126984128 26.666666666666668,121.05820105820106 26.031746031746035,120.84656084656086 25.3968253968254,120.63492063492065 24.761904761904763,120.21164021164022 24.12698412698413,120.00000000000001 23.492063492063494,119.57671957671958 22.857142857142858,119.15343915343917 22.222222222222225,118.73015873015873 21.58730158730159,118.30687830687832 21.164021164021165,117.88359788359789 20.740740740740744,117.46031746031747 20.105820105820108,117.03703703703705 19.682539682539684,116.61375661375662 19.25925925925926,116.1904761904762 18.83597883597884,115.76719576719577 18.412698412698415,115.34391534391536 17.98941798941799,114.70899470899472 17.566137566137566,114.07407407407408 17.142857142857146,113.43915343915344 16.71957671957672,113.01587301587303 16.50793650793651,112.3809523809524 16.084656084656086,111.95767195767196 15.873015873015873,111.32275132275133 15.449735449735451,110.6878306878307 15.238095238095239,110.05291005291006 14.814814814814817,109.62962962962963 14.391534391534393,108.994708994709 14.17989417989418,108.35978835978837 13.96825396825397,107.72486772486774 13.544973544973546,107.0899470899471 13.333333333333334,106.45502645502647 13.121693121693122,105.82010582010582 12.910052910052912,105.18518518518519 12.6984126984127,104.55026455026456 12.275132275132275,103.91534391534393 12.063492063492065,103.28042328042329 11.851851851851853,102.64550264550266 11.640211640211641,102.01058201058201 11.428571428571429,101.37566137566138 11.216931216931219,100.74074074074075 11.005291005291006,100.10582010582011 10.582010582010582,99.47089947089948 10.582010582010582,98.83597883597885 10.370370370370372,98.2010582010582 10.15873015873016,97.56613756613757 9.947089947089948,96.93121693121694 9.735449735449736,96.2962962962963 9.523809523809524,95.66137566137567 9.312169312169313,95.02645502645504 9.312169312169313,94.39153439153439 8.88888888888889,93.75661375661376 8.677248677248677,93.12169312169313 8.465608465608467,92.4867724867725 8.253968253968255,91.85185185185186 8.253968253968255,91.21693121693123 8.042328042328043,90.58201058201058 7.830687830687832,89.94708994708995 7.6190476190476195,89.31216931216932 7.407407407407408,88.67724867724868 7.407407407407408,88.04232804232805 7.195767195767196,87.40740740740742 6.984126984126985,86.77248677248677 6.984126984126985,86.13756613756614 6.772486772486773,85.5026455026455 6.560846560846561,84.86772486772487 6.560846560846561,84.23280423280424 6.34920634920635,83.59788359788361 6.137566137566138,82.96296296296298 6.137566137566138,82.32804232804233 5.9259259259259265,81.6931216931217 5.714285714285714,81.05820105820106 5.714285714285714,80.42328042328043 5.502645502645503,79.7883597883598 5.291005291005291,79.15343915343917 5.291005291005291,78.51851851851852 5.07936507936508,77.88359788359789 5.07936507936508,77.24867724867725 4.867724867724868,76.61375661375662 4.656084656084657,75.97883597883599 4.656084656084657,75.34391534391536 4.2328042328042335,74.70899470899471 4.021164021164021,74.07407407407408 4.021164021164021,73.43915343915344 3.8095238095238098,72.80423280423281 3.597883597883598,72.16931216931218 3.597883597883598,71.53439153439155 3.3862433862433865,70.8994708994709 3.174603174603175,70.26455026455027 3.174603174603175,69.62962962962963 2.9629629629629632,68.994708994709 2.9629629629629632,68.35978835978837 2.7513227513227516,67.72486772486774 2.53968253968254,67.08994708994709 2.3280423280423284,66.45502645502646 2.3280423280423284,65.82010582010582 2.1164021164021167,65.18518518518519 1.9047619047619049,64.55026455026456 1.6931216931216932,63.91534391534392 1.6931216931216932,63.280423280423285 1.4814814814814816,62.64550264550265 1.26984126984127,62.01058201058201 1.0582010582010584,61.37566137566138 0.4232804232804233,58.41269841269842" style="fill:none; stroke:#3300bb; stroke-width:1.0"  /><circle cx="0.4232804232804233" cy="58.41269841269842" r="2.0" style="fill:none; stroke:#000000aa; stroke-width:0.25" /><circle cx="110.6878306878307" cy="0.0" r="2.0" style="fill:none; stroke:#000000aa; stroke-width:0.25" /><circle cx="182.43386243386246" cy="150.26455026455028" r="2.0" style="fill:none; stroke:#000000aa; stroke-width:0.25" /><circle cx="69.20634920634922" cy="193.86243386243387" r="2.0" style="fill:none; stroke:#000000aa; stroke-width:0.25" /><circle cx="0.21164021164021166" cy="58.41269841269842" r="2.0" style="fill:none; stroke:#ff3366aa; stroke-width:0.25" /><circle cx="110.89947089947091" cy="0.4232804232804233" r="2.0" style="fill:none; stroke:#ff3366aa; stroke-width:0.25" /><circle cx="181.79894179894183" cy="150.47619047619048" r="2.0" style="fill:none; stroke:#ff3366aa; stroke-width:0.25" /><circle cx="69.20634920634922" cy="193.43915343915344" r="2.0" style="fill:none; stroke:#ff3366aa; stroke-width:0.25" /><polyline points="9.735449735449736,51.21693121693122 9.100529100529101,51.640211640211646 8.465608465608467,52.06349206349207 7.830687830687832,52.48677248677249 7.195767195767196,52.91005291005291 6.560846560846561,53.333333333333336 6.137566137566138,53.75661375661376 5.502645502645503,54.179894179894184 4.867724867724868,54.60317460317461 4.444444444444445,55.02645502645503 4.021164021164021,55.449735449735456 3.597883597883598,55.87301587301588 3.174603174603175,56.2962962962963" style="fill:none; stroke:#001100; stroke-width:1.0" /><polyline points="3.174603174603175,69.62962962962963 2.9629629629629632,68.994708994709 2.9629629629629632,68.35978835978837 2.7513227513227516,67.72486772486774 2.53968253968254,67.08994708994709 2.3280423280423284,66.45502645502646 2.3280423280423284,65.82010582010582 2.1164021164021167,65.18518518518519 1.9047619047619049,64.55026455026456 1.6931216931216932,63.91534391534392 1.6931216931216932,63.280423280423285 1.4814814814814816,62.64550264550265 1.26984126984127,62.01058201058201 1.0582010582010584,61.37566137566138" style="fill:none; stroke:#000011; stroke-width:1.0" /><polyline points="111.95767195767196,11.851851851851853 111.74603174603176,11.216931216931219 111.74603174603176,10.582010582010582 111.74603174603176,9.947089947089948 111.74603174603176,9.312169312169313 111.53439153439155,8.677248677248677 111.53439153439155,8.042328042328043 111.53439153439155,7.407407407407408 111.53439153439155,6.772486772486773 111.53439153439155,6.137566137566138 111.53439153439155,5.502645502645503 111.53439153439155,4.867724867724868 111.11111111111111,4.2328042328042335 111.11111111111111,3.597883597883598" style="fill:none; stroke:#001100; stroke-width:1.0" /><polyline points="99.8941798941799,4.2328042328042335 100.52910052910053,4.021164021164021 101.16402116402116,3.597883597883598 101.79894179894181,3.597883597883598 102.43386243386244,3.174603174603175 103.06878306878308,2.9629629629629632 103.70370370370371,2.7513227513227516 104.33862433862434,2.3280423280423284 104.97354497354497,2.3280423280423284 105.60846560846562,1.9047619047619049 106.24338624338625,1.9047619047619049 106.66666666666667,1.4814814814814816 107.3015873015873,1.26984126984127 107.93650793650795,1.0582010582010584" style="fill:none; stroke:#000011; stroke-width:1.0" /><polyline points="171.005291005291,155.55555555555557 171.64021164021165,155.34391534391534 172.27513227513228,154.92063492063494 172.9100529100529,154.7089947089947 173.54497354497354,154.4973544973545 174.1798941798942,154.2857142857143 174.81481481481484,154.07407407407408 175.44973544973547,153.86243386243387 175.87301587301587,153.43915343915344 176.50793650793653,153.22751322751324 177.14285714285717,152.8042328042328 177.7777777777778,152.5925925925926 178.41269841269843,152.38095238095238 178.83597883597884,151.95767195767198" style="fill:none; stroke:#001100; stroke-width:1.0" /><polyline points="174.1798941798942,141.16402116402116 174.6031746031746,141.5873015873016 175.02645502645504,142.22222222222223 175.44973544973547,142.64550264550266 175.87301587301587,143.0687830687831 176.2962962962963,143.4920634920635 176.71957671957674,143.91534391534393 177.14285714285717,144.33862433862436 177.56613756613757,144.76190476190476 177.989417989418,145.1851851851852 178.41269841269843,145.82010582010582 178.83597883597884,146.24338624338625 179.25925925925927,146.66666666666669 179.6825396825397,147.0899470899471 180.10582010582013,147.72486772486775" style="fill:none; stroke:#000011; stroke-width:1.0" /><polyline points="64.55026455026456,182.64550264550266 64.76190476190477,183.2804232804233 64.97354497354497,183.91534391534393 65.3968253968254,184.55026455026456 65.60846560846561,185.1851851851852 65.82010582010582,185.82010582010582 66.24338624338625,186.45502645502646 66.45502645502646,187.08994708994712 66.66666666666667,187.72486772486775 66.87830687830689,188.35978835978838 67.08994708994709,188.99470899470901 67.3015873015873,189.62962962962965 67.72486772486774,190.26455026455028" style="fill:none; stroke:#001100; stroke-width:1.0" /><polyline points="78.73015873015873,186.24338624338625 78.0952380952381,186.66666666666669 77.46031746031747,187.08994708994712 76.82539682539684,187.51322751322752 76.19047619047619,187.93650793650795 75.55555555555556,188.35978835978838 75.13227513227514,188.78306878306879 74.70899470899471,189.20634920634922 74.07407407407408,189.62962962962965 73.65079365079366,190.26455026455028 73.01587301587303,190.6878306878307 72.5925925925926,191.11111111111111 72.16931216931218,191.53439153439155" style="fill:none; stroke:#000011; stroke-width:1.0" /><polyline points="3.174603174603175,56.2962962962963 -13.544973544973546,69.20634920634922" style="fill:none; stroke:#ffaa00; stroke-width:0.4" /><polyline points="1.0582010582010584,61.37566137566138 -4.2328042328042335,40.84656084656085" style="fill:none; stroke:#aaff00; stroke-width:0.4" /><polyline points="111.11111111111111,3.597883597883598 108.994708994709,-17.354497354497354" style="fill:none; stroke:#ffaa00; stroke-width:0.4" /><polyline points="107.93650793650795,1.0582010582010584 127.61904761904763,-6.772486772486773" style="fill:none; stroke:#aaff00; stroke-width:0.4" /><polyline points="178.83597883597884,151.95767195767198 198.0952380952381,143.0687830687831" style="fill:none; stroke:#ffaa00; stroke-width:0.4" /><polyline points="180.10582010582013,147.72486772486775 194.2857142857143,163.3862433862434" style="fill:none; stroke:#aaff00; stroke-width:0.4" /><polyline points="67.72486772486774,190.26455026455028 75.76719576719577,209.73544973544975" style="fill:none; stroke:#ffaa00; stroke-width:0.4" /><polyline points="72.16931216931218,191.53439153439155 55.661375661375665,204.8677248677249" style="fill:none; stroke:#aaff00; stroke-width:0.4" /><circle cx="95.44973544973546" cy="93.54497354497356" r="1.0" style="fill:#444444; stroke-width:0" /><circle cx="106.24338624338625" cy="94.17989417989419" r="10.582010582010582" style="fill:#ff770022; stroke-width:0" /><circle cx="106.24338624338625" cy="94.17989417989419" r="1.0" style="fill:#ff7700; stroke-width:0" /></svg>