<?xml version="1.0" encoding="UTF-8" standalone="no"?><svg width="577.7777777777778" height="598.7301587301588" viewBox="-10 -10 212.5925925925926 219.5767195767196" xmlns="http://www.w3.org/2000/svg" xmlns:xlink="http://www.w3.org/1999/xlink"><polyline points="0.21164021164021166,61.16402116402117 2.53968253968254,58.83597883597884 2.9629629629629632,58.41269841269842 3.3862433862433865,57.989417989417994 3.8095238095238098,57.56613756613757 4.2328042328042335,57.142857142857146 4.867724867724868,56.71957671957672 5.291005291005291,56.2962962962963 5.714285714285714,55.87301587301588 6.137566137566138,55.449735449735456 6.560846560846561,55.02645502645503 6.984126984126985,54.60317460317461 7.407407407407408,54.179894179894184 7.830687830687832,53.75661375661376 8.253968253968255,53.333333333333336 8.677248677248677,52.91005291005291 9.100529100529101,52.48677248677249 9.523809523809524,52.06349206349207 9.947089947089948,51.640211640211646 10.370370370370372,51.21693121693122 10.793650793650794,50.7936507936508 11.216931216931219,50.370370370370374 11.640211640211641,49.94708994708995 12.063492063492065,49.523809523809526 12.486772486772487,48.88888888888889 12.910052910052912,48.46560846560847 13.333333333333334,48.042328042328045 13.756613756613758,47.61904761904762 14.17989417989418,47.195767195767196 14.603174603174605,46.77248677248678 15.026455026455027,46.349206349206355 15.449735449735451,45.92592592592593 15.873015873015873,45.29100529100529 16.296296296296298,44.867724867724874 16.71957671957672,44.44444444444445 17.142857142857146,44.021164021164026 17.566137566137566,43.386243386243386 17.98941798941799,42.96296296296297 18.412698412698415,42.32804232804233 18.83597883597884,41.904761904761905 19.25925925925926,41.48148148148149 19.682539682539684,41.058201058201064 19.894179894179896,40.423280423280424 20.31746031746032,40.0 20.740740740740744,39.36507936507937 21.164021164021165,38.94179894179894 21.58730158730159,38.51851851851852 22.010582010582013,38.095238095238095 22.433862433862437,37.46031746031746 22.857142857142858,37.03703703703704 23.280423280423282,36.613756613756614 23.703703703703706,35.97883597883598 24.12698412698413,35.55555555555556 24.55026455026455,35.13227513227513 24.973544973544975,34.70899470899471 25.3968253968254,34.28571428571429 25.820105820105823,33.86243386243387 26.243386243386244,33.43915343915344 26.666666666666668,33.01587301587302 27.301587301587304,32.592592592592595 27.93650793650794,32.16931216931217 28.35978835978836,31.746031746031747 28.783068783068785,31.322751322751326 29.41798941798942,31.111111111111114 30.052910052910054,30.68783068783069 30.68783068783069,30.264550264550266 31.111111111111114,29.841269841269842 31.746031746031747,29.629629629629633 32.38095238095239,29.41798941798942 32.804232804232804,28.994708994708997 33.43915343915344,28.571428571428573 34.074074074074076,28.571428571428573 34.70899470899471,28.35978835978836 34.920634920634924,27.724867724867728 35.55555555555556,27.93650793650794 36.19047619047619,27.724867724867728 36.82539682539683,27.513227513227516 37.46031746031746,27.301587301587304 38.095238095238095,27.089947089947092 38.730158730158735,26.87830687830688 39.36507936507937,26.666666666666668 40.0,26.666666666666668 40.63492063492064,26.455026455026456 41.26984126984127,26.455026455026456 41.904761904761905,26.666666666666668 42.539682539682545,26.666666666666668 43.17460317460318,26.666666666666668 43.80952380952381,26.87830687830688 44.44444444444445,27.089947089947092 45.07936507936508,27.301587301587304 45.714285714285715,27.724867724867728 46.349206349206355,28.14814814814815 46.98412698412699,28.571428571428573 47.40740740740741,28.994708994708997 47.830687830687836,29.41798941798942 48.25396825396826,29.841269841269842 48.677248677248684,30.264550264550266 49.1005291005291,30.899470899470902 49.523809523809526,31.53439153439154 49.73544973544974,32.16931216931217 49.94708994708995,32.804232804232804 50.158730158730165,33.43915343915344 50.370370370370374,34.074074074074076 50.58201058201058,34.70899470899471 50.58201058201058,35.34391534391535 50.58201058201058,35.97883597883598 50.58201058201058,36.613756613756614 50.58201058201058,37.248677248677254 50.370370370370374,37.883597883597886 50.58201058201058,38.51851851851852 50.58201058201058,39.15343915343916 50.370370370370374,39.78835978835979 50.370370370370374,40.423280423280424 50.370370370370374,41.058201058201064 50.370370370370374,41.6931216931217 50.370370370370374,42.32804232804233 50.370370370370374,42.96296296296297 50.370370370370374,43.5978835978836 50.370370370370374,44.232804232804234 50.370370370370374,44.867724867724874 50.370370370370374,45.50264550264551 50.58201058201058,46.13756613756614 50.58201058201058,46.77248677248678 50.58201058201058,47.40740740740741 50.58201058201058,48.042328042328045 50.58201058201058,48.677248677248684 50.58201058201058,49.31216931216932 50.58201058201058,49.94708994708995 50.58201058201058,50.58201058201058 50.58201058201058,51.21693121693122 50.58201058201058,51.851851851851855 50.58201058201058,52.48677248677249 50.7936507936508,53.12169312169313 50.7936507936508,53.75661375661376 51.00529100529101,54.39153439153439 51.00529100529101,55.02645502645503 51.21693121693122,55.661375661375665 51.21693121693122,56.2962962962963 51.42857142857143,56.93121693121694 51.640211640211646,57.56613756613757 52.06349206349207,58.2010582010582 52.27513227513228,58.83597883597884 52.48677248677249,59.470899470899475 52.91005291005291,59.8941798941799 53.12169312169313,60.52910052910053 53.54497354497355,60.952380952380956 53.968253968253975,61.58730158730159 54.39153439153439,62.22222222222223 55.02645502645503,62.64550264550265 55.449735449735456,63.06878306878308 55.87301587301588,63.492063492063494 56.50793650793651,63.91534391534392 56.93121693121694,64.33862433862434 57.56613756613757,64.76190476190477 58.2010582010582,64.97354497354497 58.83597883597884,65.3968253968254 59.470899470899475,65.60846560846561 60.10582010582011,65.82010582010582 60.74074074074075,66.03174603174604 61.37566137566138,66.24338624338625 62.01058201058201,66.24338624338625 62.64550264550265,66.45502645502646 63.280423280423285,66.45502645502646 63.91534391534392,66.45502645502646 64.55026455026456,66.45502645502646 65.18518518518519,66.45502645502646 65.82010582010582,66.45502645502646 66.45502645502646,66.45502645502646 67.08994708994709,66.24338624338625 67.72486772486774,66.03174603174604 68.35978835978837,66.03174603174604 68.994708994709,66.03174603174604 69.41798941798942,65.60846560846561 70.05291005291006,65.60846560846561 70.6878306878307,65.60846560846561 71.32275132275133,65.60846560846561 71.95767195767196,65.3968253968254 72.5925925925926,65.3968253968254 73.22751322751323,65.18518518518519 73.86243386243387,64.97354497354497 74.49735449735451,64.76190476190477 75.13227513227514,64.55026455026456 75.76719576719577,64.33862433862434 76.19047619047619,63.91534391534392 76.82539682539684,63.70370370370371 77.46031746031747,63.280423280423285 78.0952380952381,63.280423280423285 78.73015873015873,62.85714285714286 79.36507936507937,62.43386243386244 80.0,62.01058201058201 80.63492063492065,61.58730158730159 81.26984126984128,61.16402116402117 81.90476190476191,60.952380952380956 82.32804232804233,60.52910052910053 82.75132275132276,60.10582010582011 83.3862433862434,59.682539682539684 83.80952380952381,59.25925925925927 84.02116402116403,58.62433862433863 84.65608465608466,58.2010582010582 85.07936507936509,57.777777777777786 85.29100529100529,57.142857142857146 85.71428571428572,56.71957671957672 85.92592592592594,56.08465608465609 86.34920634920636,55.449735449735456 86.56084656084657,54.81481481481482 86.77248677248677,54.179894179894184 86.98412698412699,53.54497354497355 86.98412698412699,52.91005291005291 87.1957671957672,52.27513227513228 87.1957671957672,51.640211640211646 87.40740740740742,51.00529100529101 87.40740740740742,50.370370370370374 87.40740740740742,49.73544973544974 87.1957671957672,49.1005291005291 87.1957671957672,48.46560846560847 87.1957671957672,47.830687830687836 86.98412698412699,47.195767195767196 86.77248677248677,46.560846560846564 86.56084656084657,45.92592592592593 86.13756613756614,45.29100529100529 85.92592592592594,44.65608465608466 85.5026455026455,44.021164021164026 85.07936507936509,43.386243386243386 84.65608465608466,42.75132275132275 84.23280423280424,42.11640211640212 83.80952380952381,41.6931216931217 83.3862433862434,41.058201058201064 82.96296296296298,40.423280423280424 82.53968253968254,39.78835978835979 82.11640211640213,39.36507936507937 81.6931216931217,38.730158730158735 81.26984126984128,38.095238095238095 80.84656084656085,37.67195767195768 80.42328042328043,37.03703703703704 80.0,36.613756613756614 79.57671957671958,35.97883597883598 79.15343915343917,35.34391534391535 78.73015873015873,34.920634920634924 78.30687830687832,34.28571428571429 77.88359788359789,33.86243386243387 77.46031746031747,33.22751322751323 77.03703703703704,32.592592592592595 76.61375661375662,32.16931216931217 76.19047619047619,31.53439153439154 75.76719576719577,30.899470899470902 75.34391534391536,30.476190476190478 75.13227513227514,29.841269841269842 74.49735449735451,29.41798941798942 74.28571428571429,28.783068783068785 73.86243386243387,28.14814814814815 73.65079365079366,27.513227513227516 73.43915343915344,26.87830687830688 73.22751322751323,26.243386243386244 73.01587301587303,25.60846560846561 72.80423280423281,24.973544973544975 72.80423280423281,24.338624338624342 72.5925925925926,23.703703703703706 72.5925925925926,23.06878306878307 72.5925925925926,22.433862433862437 72.38095238095238,21.7989417989418 72.80423280423281,21.164021164021165 72.80423280423281,20.529100529100532 72.80423280423281,19.894179894179896 73.01587301587303,19.25925925925926 73.22751322751323,18.624338624338627 73.43915343915344,17.98941798941799 73.65079365079366,17.354497354497354 73.86243386243387,16.71957671957672 74.07407407407408,16.084656084656086 74.49735449735451,15.661375661375663 74.92063492063492,15.238095238095239 75.34391534391536,14.603174603174605 75.76719576719577,13.96825396825397 76.19047619047619,13.544973544973546 76.61375661375662,13.121693121693122 77.03703703703704,12.6984126984127 77.46031746031747,12.275132275132275 77.88359788359789,11.851851851851853 78.51851851851852,11.428571428571429 79.15343915343917,11.005291005291006 79.7883597883598,10.793650793650794 80.42328042328043,10.370370370370372 81.05820105820106,10.15873015873016 81.6931216931217,9.947089947089948 82.32804232804233,9.947089947089948 82.96296296296298,9.735449735449736 83.59788359788361,9.523809523809524 84.23280423280424,9.523809523809524 84.86772486772487,9.312169312169313 85.29100529100529,8.88888888888889 85.92592592592594,9.100529100529101 86.56084656084657,8.88888888888889 86.98412698412699,8.465608465608467 87.61904761904762,8.465608465608467 88.25396825396827,8.465608465608467 88.8888888888889,8.465608465608467 89.52380952380953,8.042328042328043 90.15873015873017,7.830687830687832 90.7936507936508,7.830687830687832 91.42857142857143,7.407407407407408 92.06349206349208,7.407407407407408 92.69841269841271,7.407407407407408 93.33333333333334,7.195767195767196 93.96825396825398,7.195767195767196 94.60317460317461,6.772486772486773 95.23809523809524,6.772486772486773 95.87301587301587,6.772486772486773 96.50793650793652,6.560846560846561 97.14285714285715,6.34920634920635 97.77777777777779,6.34920634920635 98.2010582010582,5.9259259259259265 98.83597883597885,5.9259259259259265 99.47089947089948,5.9259259259259265 100.10582010582011,5.714285714285714 100.74074074074075,5.502645502645503 101.37566137566138,5.291005291005291 102.01058201058201,5.07936507936508 102.64550264550266,4.867724867724868 103.28042328042329,4.656084656084657 103.91534391534393,4.444444444444445 104.55026455026456,4.444444444444445 105.18518518518519,4.021164021164021 105.82010582010582,3.8095238095238098 106.45502645502647,3.8095238095238098 106.87830687830689,3.3862433862433865 107.51322751322752,3.3862433862433865 108.14814814814815,3.174603174603175 108.57142857142858,2.7513227513227516 109.20634920634922,2.53968253968254 109.84126984126985,2.53968253968254 110.47619047619048,2.3280423280423284 111.11111111111111,2.1164021164021167 111.74603174603176,1.9047619047619049 112.3809523809524,1.4814814814814816 113.01587301587303,1.26984126984127 116.1904761904762,0.21164021164021166" style="fill:none; stroke:#cc0000; stroke-width:1.0"  /><polyline points="116.1904761904762,0.21164021164021166 117.67195767195768,3.174603174603175 118.0952380952381,3.597883597883598 118.30687830687832,4.2328042328042335 118.73015873015873,4.867724867724868 118.94179894179895,5.502645502645503 119.36507936507937,6.137566137566138 119.57671957671958,6.772486772486773 120.00000000000001,7.407407407407408 120.21164021164022,8.042328042328043 120.63492063492065,8.677248677248677 120.84656084656086,9.312169312169313 121.26984126984128,9.947089947089948 121.4814814814815,10.582010582010582 121.90476190476191,11.216931216931219 122.11640211640213,11.851851851851853 122.32804232804234,12.486772486772487 122.75132275132276,13.121693121693122 123.17460317460318,13.756613756613758 123.3862433862434,14.391534391534393 123.80952380952382,15.026455026455027 124.02116402116403,15.661375661375663 124.44444444444446,16.084656084656086 124.65608465608466,16.71957671957672 125.07936507936509,17.354497354497354 125.2910052910053,17.98941798941799 125.71428571428572,18.624338624338627 125.92592592592594,19.25925925925926 126.34920634920636,19.894179894179896 126.77248677248679,20.529100529100532 126.98412698412699,21.164021164021165 127.40740740740742,21.7989417989418 127.61904761904763,22.433862433862437 128.04232804232805,23.06878306878307 128.25396825396825,23.703703703703706 128.67724867724868,24.12698412698413 128.88888888888889,24.761904761904763 129.31216931216932,25.3968253968254 129.52380952380955,26.031746031746035 129.94708994708995,26.666666666666668 130.37037037037038,27.301587301587304 130.58201058201058,27.93650793650794 131.005291005291,28.571428571428573 131.42857142857144,29.20634920634921 131.85185185185185,29.629629629629633 132.06349206349208,30.264550264550266 132.4867724867725,30.899470899470902 132.6984126984127,31.53439153439154 133.12169312169314,32.16931216931217 133.54497354497354,32.804232804232804 133.75661375661377,33.43915343915344 134.17989417989418,34.074074074074076 134.3915343915344,34.70899470899471 134.81481481481484,35.13227513227513 135.02645502645504,35.76719576719577 135.44973544973547,36.19047619047619 135.66137566137567,36.82539682539683 136.0846560846561,37.46031746031746 136.5079365079365,38.095238095238095 136.71957671957674,38.730158730158735 137.14285714285717,39.36507936507937 137.56613756613757,40.0 137.989417989418,40.63492063492064 138.41269841269843,41.26984126984127 138.83597883597884,41.904761904761905 139.04761904761907,42.539682539682545 139.47089947089947,42.96296296296297 139.8941798941799,43.5978835978836 140.31746031746033,44.232804232804234 140.74074074074076,44.867724867724874 141.16402116402116,45.29100529100529 141.5873015873016,45.92592592592593 142.01058201058203,46.560846560846564 142.43386243386246,46.98412698412699 142.85714285714286,47.61904761904762 143.2804232804233,48.042328042328045 143.70370370370372,48.677248677248684 144.12698412698413,49.1005291005291 144.55026455026456,49.523809523809526 144.973544973545,49.94708994708995 145.39682539682542,50.370370370370374 145.82010582010582,50.7936507936508 146.24338624338625,51.21693121693122 146.66666666666669,51.640211640211646 147.0899470899471,52.27513227513228 147.51322751322752,52.91005291005291 147.93650793650795,53.333333333333336 148.35978835978838,53.75661375661376 148.99470899470901,54.179894179894184 149.41798941798942,54.60317460317461 149.84126984126985,55.02645502645503 150.47619047619048,55.23809523809524 150.8994708994709,55.661375661375665 151.53439153439155,55.87301587301588 152.16931216931218,56.08465608465609 152.8042328042328,56.2962962962963 153.43915343915344,56.50793650793651 154.07407407407408,56.50793650793651 154.7089947089947,56.71957671957672 155.34391534391534,56.50793650793651 155.978835978836,56.2962962962963 156.61375661375664,56.2962962962963 157.24867724867727,56.2962962962963 157.8835978835979,55.87301587301588 158.51851851851853,55.661375661375665 158.94179894179896,55.23809523809524 159.5767195767196,54.81481481481482 160.0,54.39153439153439 160.63492063492066,53.968253968253975 161.2698412698413,53.54497354497355 161.90476190476193,53.12169312169313 162.32804232804233,52.6984126984127 162.96296296296296,52.27513227513228 163.59788359788362,51.851851851851855 164.02116402116403,51.21693121693122 164.44444444444446,50.7936507936508 165.0793650793651,50.7936507936508 165.71428571428572,50.58201058201058 166.13756613756615,50.158730158730165 166.7724867724868,49.73544973544974 167.40740740740742,49.31216931216932 167.83068783068785,48.88888888888889 168.46560846560848,48.46560846560847 169.10052910052912,48.042328042328045 169.73544973544975,47.61904761904762 170.37037037037038,47.195767195767196 171.005291005291,46.77248677248678 171.64021164021165,46.560846560846564 172.06349206349208,46.13756613756614 172.6984126984127,45.714285714285715 173.33333333333334,45.50264550264551 173.96825396825398,45.29100529100529 174.6031746031746,45.07936507936508 175.23809523809524,44.867724867724874 175.87301587301587,44.65608465608466 176.50793650793653,44.44444444444445 177.14285714285717,44.44444444444445 177.7777777777778,44.232804232804234 178.41269841269843,44.232804232804234 179.04761904761907,44.232804232804234 179.6825396825397,44.232804232804234 180.31746031746033,44.232804232804234 180.95238095238096,44.44444444444445 181.5873015873016,44.44444444444445 182.22222222222223,44.65608465608466 182.85714285714286,44.867724867724874 183.4920634920635,45.29100529100529 184.12698412698415,45.50264550264551 184.7619047619048,45.92592592592593 185.39682539682542,46.13756613756614 185.82010582010582,46.560846560846564 186.45502645502646,46.98412698412699 186.8783068783069,47.40740740740741 187.30158730158732,47.830687830687836 187.72486772486775,48.25396825396826 188.14814814814815,48.88888888888889 188.57142857142858,49.31216931216932 188.78306878306879,49.94708994708995 189.20634920634922,50.58201058201058 189.41798941798945,51.21693121693122 189.84126984126985,51.851851851851855 190.05291005291008,52.48677248677249 190.05291005291008,53.12169312169313 190.26455026455028,53.75661375661376 190.26455026455028,54.39153439153439 190.26455026455028,55.02645502645503 190.26455026455028,55.661375661375665 190.26455026455028,56.2962962962963 190.26455026455028,56.93121693121694 190.05291005291008,57.56613756613757 189.84126984126985,58.2010582010582 189.62962962962965,58.83597883597884 189.41798941798945,59.470899470899475 188.99470899470901,60.10582010582011 188.57142857142858,60.74074074074075 188.35978835978838,61.37566137566138 187.93650793650795,62.01058201058201 187.51322751322752,62.43386243386244 187.08994708994712,63.06878306878308 186.66666666666669,63.492063492063494 186.24338624338625,63.91534391534392 185.82010582010582,64.33862433862434 185.39682539682542,64.97354497354497 184.7619047619048,65.3968253968254 184.33862433862436,65.82010582010582 183.70370370370372,66.24338624338625 183.0687830687831,66.45502645502646 182.64550264550266,66.87830687830689 182.01058201058203,67.3015873015873 181.5873015873016,67.72486772486774 180.95238095238096,68.14814814814815 180.31746031746033,68.57142857142858 179.8941798941799,68.994708994709 179.25925925925927,69.20634920634922 178.83597883597884,69.62962962962963 178.2010582010582,70.05291005291006 177.7777777777778,70.47619047619048 177.35449735449737,70.8994708994709 176.93121693121694,71.32275132275133 176.2962962962963,71.74603174603175 175.87301587301587,72.16931216931218 175.44973544973547,72.5925925925926 175.02645502645504,73.01587301587303 174.6031746031746,73.43915343915344 174.1798941798942,73.86243386243387 173.75661375661377,74.28571428571429 173.33333333333334,74.92063492063492 172.9100529100529,75.34391534391536 172.4867724867725,75.76719576719577 172.06349206349208,76.4021164021164 171.64021164021165,77.03703703703704 171.42857142857144,77.67195767195767 171.005291005291,78.30687830687832 170.7936507936508,78.94179894179895 170.58201058201058,79.57671957671958 170.37037037037038,80.21164021164022 170.15873015873018,80.84656084656085 170.15873015873018,81.48148148148148 170.15873015873018,82.11640211640213 170.15873015873018,82.75132275132276 170.15873015873018,83.3862433862434 170.15873015873018,84.02116402116403 170.15873015873018,84.65608465608466 170.37037037037038,85.29100529100529 170.58201058201058,85.92592592592594 170.58201058201058,86.56084656084657 170.7936507936508,87.1957671957672 171.005291005291,87.83068783068784 171.21693121693124,88.46560846560847 171.42857142857144,89.1005291005291 171.64021164021165,89.73544973544975 171.85185185185188,90.37037037037038 172.27513227513228,91.00529100529101 172.4867724867725,91.64021164021165 172.6984126984127,92.27513227513228 172.9100529100529,92.91005291005291 173.12169312169314,93.54497354497356 173.54497354497354,93.96825396825398 173.75661375661377,94.60317460317461 173.96825396825398,95.23809523809524 174.3915343915344,95.87301587301587 174.81481481481484,96.50793650793652 175.02645502645504,97.14285714285715 175.44973544973547,97.77777777777779 175.87301587301587,98.41269841269842 176.2962962962963,99.04761904761905 176.71957671957674,99.47089947089948 177.14285714285717,100.10582010582011 177.56613756613757,100.74074074074075 177.989417989418,101.37566137566138 178.41269841269843,102.01058201058201 178.83597883597884,102.43386243386244 179.25925925925927,103.06878306878308 179.6825396825397,103.4920634920635 180.10582010582013,104.12698412698414 180.52910052910053,104.55026455026456 180.95238095238096,104.97354497354497 181.3756613756614,105.60846560846562 181.79894179894183,106.03174603174604 182.22222222222223,106.45502645502647 182.64550264550266,106.87830687830689 183.2804232804233,107.3015873015873 183.70370370370372,107.72486772486774 184.12698412698415,108.14814814814815 184.55026455026456,108.57142857142858 184.973544973545,108.994708994709 185.39682539682542,109.41798941798943 186.03174603174605,109.84126984126985 186.45502645502646,110.26455026455027 187.08994708994712,110.6878306878307 187.51322751322752,111.11111111111111 188.14814814814815,111.53439153439155 188.78306878306879,111.95767195767196 189.41798941798945,112.3809523809524 190.05291005291008,112.80423280423281 193.22751322751324,115.34391534391536" style="fill:none; stroke:#999900; stroke-width:1.0"  /><polyline points="193.22751322751324,115.34391534391536 190.26455026455028,117.88359788359789 189.84126984126985,118.30687830687832 189.41798941798945,118.73015873015873 188.99470899470901,119.15343915343917 188.57142857142858,119.57671957671958 187.93650793650795,120.00000000000001 187.51322751322752,120.42328042328043 186.8783068783069,120.84656084656086 186.45502645502646,121.26984126984128 185.82010582010582,121.6931216931217 185.1851851851852,122.11640211640213 184.7619047619048,122.53968253968254 184.12698412698415,122.96296296296298 183.4920634920635,123.3862433862434 183.0687830687831,123.80952380952382 182.43386243386246,124.23280423280424 181.79894179894183,124.65608465608466 181.16402116402116,125.07936507936509 180.52910052910053,125.5026455026455 179.8941798941799,125.92592592592594 179.25925925925927,126.13756613756615 178.83597883597884,126.56084656084657 178.2010582010582,126.98412698412699 177.56613756613757,127.1957671957672 176.93121693121694,127.61904761904763 176.2962962962963,128.04232804232805 175.66137566137567,128.25396825396825 175.02645502645504,128.67724867724868 174.3915343915344,128.88888888888889 173.75661375661377,129.31216931216932 173.12169312169314,129.52380952380955 172.4867724867725,129.94708994708995 171.85185185185188,130.15873015873018 171.21693121693124,130.58201058201058 170.58201058201058,130.7936507936508 169.94708994708995,131.21693121693121 169.31216931216932,131.42857142857144 168.67724867724868,131.85185185185185 168.04232804232805,132.06349206349208 167.40740740740742,132.27513227513228 166.7724867724868,132.6984126984127 166.13756613756615,132.9100529100529 165.50264550264552,133.12169312169314 164.8677248677249,133.33333333333334 164.23280423280426,133.54497354497354 163.59788359788362,133.96825396825398 162.96296296296296,134.17989417989418 162.32804232804233,134.3915343915344 161.6931216931217,134.6031746031746 161.05820105820106,135.02645502645504 160.42328042328043,135.23809523809524 159.7883597883598,135.44973544973547 159.36507936507937,135.87301587301587 158.73015873015873,136.0846560846561 158.0952380952381,136.2962962962963 157.46031746031747,136.71957671957674 156.82539682539684,136.93121693121694 156.1904761904762,137.14285714285717 155.55555555555557,137.56613756613757 154.92063492063494,137.7777777777778 154.2857142857143,138.2010582010582 153.65079365079367,138.62433862433863 153.01587301587304,138.83597883597884 152.38095238095238,139.25925925925927 151.74603174603175,139.6825396825397 151.11111111111111,139.8941798941799 150.6878306878307,140.31746031746033 150.05291005291005,140.52910052910053 149.41798941798942,140.95238095238096 148.78306878306879,141.3756613756614 148.14814814814815,141.5873015873016 147.72486772486775,142.01058201058203 147.0899470899471,142.43386243386246 146.45502645502646,142.64550264550266 145.82010582010582,143.0687830687831 145.39682539682542,143.4920634920635 144.973544973545,143.91534391534393 144.33862433862436,144.33862433862436 143.91534391534393,144.76190476190476 143.4920634920635,145.39682539682542 143.0687830687831,145.82010582010582 142.64550264550266,146.24338624338625 142.43386243386246,146.8783068783069 142.22222222222223,147.51322751322752 141.7989417989418,147.93650793650795 141.5873015873016,148.57142857142858 141.3756613756614,149.20634920634922 141.16402116402116,149.84126984126985 140.95238095238096,150.47619047619048 140.95238095238096,151.11111111111111 140.74074074074076,151.74603174603175 140.74074074074076,152.38095238095238 140.74074074074076,153.01587301587304 140.74074074074076,153.65079365079367 140.74074074074076,154.2857142857143 140.95238095238096,154.92063492063494 141.16402116402116,155.55555555555557 141.16402116402116,156.1904761904762 141.3756613756614,156.82539682539684 141.7989417989418,157.46031746031747 142.01058201058203,158.0952380952381 142.43386243386246,158.73015873015873 142.85714285714286,159.36507936507937 143.2804232804233,160.0 143.70370370370372,160.63492063492066 144.12698412698413,161.2698412698413 144.55026455026456,161.6931216931217 144.973544973545,162.11640211640213 145.39682539682542,162.53968253968256 145.82010582010582,162.96296296296296 146.24338624338625,163.3862433862434 146.8783068783069,163.80952380952382 147.30158730158732,164.23280423280426 147.93650793650795,164.65608465608466 148.57142857142858,165.0793650793651 149.20634920634922,165.2910052910053 149.84126984126985,165.71428571428572 150.47619047619048,165.92592592592595 151.11111111111111,166.34920634920636 151.74603174603175,166.56084656084658 152.38095238095238,166.984126984127 153.01587301587304,167.19576719576722 153.65079365079367,167.61904761904762 154.2857142857143,168.04232804232805 154.92063492063494,168.25396825396825 155.34391534391534,168.8888888888889 155.978835978836,169.31216931216932 156.61375661375664,169.52380952380955 157.03703703703704,169.94708994708995 157.67195767195767,170.37037037037038 158.30687830687833,170.7936507936508 158.73015873015873,171.21693121693124 159.36507936507937,171.64021164021165 159.7883597883598,172.06349206349208 160.42328042328043,172.27513227513228 160.84656084656086,172.6984126984127 161.2698412698413,173.33333333333334 161.6931216931217,173.75661375661377 162.11640211640213,174.3915343915344 162.53968253968256,175.02645502645504 162.96296296296296,175.66137566137567 163.1746031746032,176.2962962962963 163.3862433862434,176.93121693121694 163.80952380952382,177.56613756613757 163.80952380952382,178.2010582010582 164.02116402116403,178.83597883597884 164.23280423280426,179.4708994708995 164.23280423280426,180.10582010582013 164.23280423280426,180.74074074074076 164.44444444444446,181.3756613756614 164.44444444444446,182.01058201058203 164.44444444444446,182.64550264550266 164.23280423280426,183.2804232804233 164.23280423280426,183.91534391534393 164.23280423280426,184.55026455026456 164.02116402116403,185.1851851851852 163.80952380952382,185.82010582010582 163.59788359788362,186.45502645502646 163.3862433862434,187.08994708994712 163.1746031746032,187.72486772486775 162.75132275132276,188.35978835978838 162.53968253968256,188.99470899470901 162.32804232804233,189.62962962962965 161.90476190476193,190.05291005291008 161.4814814814815,190.6878306878307 161.05820105820106,191.32275132275134 160.63492063492066,191.74603174603175 160.21164021164023,192.16931216931218 159.7883597883598,192.5925925925926 159.36507936507937,193.22751322751324 158.94179894179896,193.65079365079367 158.30687830687833,194.07407407407408 157.67195767195767,194.4973544973545 157.03703703703704,194.70899470899474 156.4021164021164,195.13227513227514 155.76719576719577,195.34391534391537 155.13227513227514,195.76719576719577 154.4973544973545,195.978835978836 153.86243386243387,196.1904761904762 153.22751322751324,196.4021164021164 152.5925925925926,196.82539682539684 151.95767195767198,197.03703703703704 151.32275132275134,197.03703703703704 150.6878306878307,197.24867724867727 150.05291005291005,197.46031746031747 149.41798941798942,197.6719576719577 148.78306878306879,197.8835978835979 148.14814814814815,198.0952380952381 147.51322751322752,198.30687830687833 146.8783068783069,198.51851851851853 146.24338624338625,198.51851851851853 145.60846560846562,198.73015873015873 144.973544973545,198.94179894179896 144.33862433862436,198.94179894179896 143.70370370370372,198.94179894179896 143.0687830687831,199.15343915343917 142.43386243386246,199.15343915343917 141.7989417989418,198.94179894179896 141.16402116402116,198.94179894179896 140.52910052910053,198.94179894179896 139.8941798941799,198.73015873015873 139.25925925925927,198.73015873015873 138.62433862433863,198.51851851851853 137.989417989418,198.51851851851853 137.35449735449737,198.30687830687833 136.71957671957674,198.0952380952381 136.0846560846561,197.8835978835979 135.44973544973547,197.6719576719577 134.81481481481484,197.46031746031747 134.17989417989418,197.24867724867727 133.54497354497354,196.82539682539684 132.9100529100529,196.4021164021164 132.27513227513228,195.978835978836 131.64021164021165,195.55555555555557 131.21693121693121,195.13227513227514 130.7936507936508,194.70899470899474 130.37037037037038,194.2857142857143 129.94708994708995,193.86243386243387 129.52380952380955,193.43915343915344 129.10052910052912,192.8042328042328 128.67724867724868,192.16931216931218 128.46560846560848,191.53439153439155 128.04232804232805,190.8994708994709 127.83068783068784,190.26455026455028 127.61904761904763,189.62962962962965 127.40740740740742,188.99470899470901 127.1957671957672,188.35978835978838 127.1957671957672,187.72486772486775 126.98412698412699,187.08994708994712 126.98412698412699,186.45502645502646 126.98412698412699,185.82010582010582 126.98412698412699,185.1851851851852 126.77248677248679,184.55026455026456 126.77248677248679,183.91534391534393 126.77248677248679,183.2804232804233 126.77248677248679,182.64550264550266 126.77248677248679,182.01058201058203 126.77248677248679,181.3756613756614 126.77248677248679,180.74074074074076 126.77248677248679,180.10582010582013 126.77248677248679,179.4708994708995 126.77248677248679,178.83597883597884 126.77248677248679,178.2010582010582 126.77248677248679,177.56613756613757 126.77248677248679,176.93121693121694 126.77248677248679,176.2962962962963 126.77248677248679,175.66137566137567 126.77248677248679,175.02645502645504 126.77248677248679,174.3915343915344 126.77248677248679,173.75661375661377 126.56084656084657,173.12169312169314 126.56084656084657,172.4867724867725 126.56084656084657,171.85185185185188 126.34920634920636,171.21693121693124 126.13756613756615,170.58201058201058 125.71428571428572,169.94708994708995 125.2910052910053,169.31216931216932 124.86772486772487,168.67724867724868 124.44444444444446,168.04232804232805 124.02116402116403,167.61904761904762 123.59788359788361,167.19576719576722 123.17460317460318,166.7724867724868 122.75132275132276,166.34920634920636 122.32804232804234,165.92592592592595 121.6931216931217,165.71428571428572 121.26984126984128,165.2910052910053 120.63492063492065,165.0793650793651 120.00000000000001,165.0793650793651 119.36507936507937,165.0793650793651 118.73015873015873,164.8677248677249 118.0952380952381,164.8677248677249 117.46031746031747,164.8677248677249 116.82539682539684,164.8677248677249 116.1904761904762,165.0793650793651 115.55555555555557,165.2910052910053 114.92063492063492,165.2910052910053 114.28571428571429,165.50264550264552 113.86243386243387,165.92592592592595 113.22751322751324,166.13756613756615 112.5925925925926,166.56084656084658 111.95767195767196,166.984126984127 111.53439153439155,167.40740740740742 110.89947089947091,167.83068783068785 110.47619047619048,168.25396825396825 110.05291005291006,168.67724867724868 109.62962962962963,169.10052910052912 108.994708994709,169.52380952380955 108.57142857142858,170.15873015873018 108.14814814814815,170.58201058201058 107.72486772486774,171.005291005291 107.3015873015873,171.42857142857144 106.87830687830689,171.85185185185188 106.45502645502647,172.27513227513228 106.03174603174604,172.6984126984127 105.60846560846562,173.12169312169314 105.18518518518519,173.54497354497354 104.76190476190477,173.96825396825398 104.12698412698414,174.3915343915344 103.70370370370371,174.81481481481484 103.06878306878308,175.23809523809524 102.64550264550266,175.66137566137567 102.01058201058201,176.0846560846561 101.5873015873016,176.50793650793653 100.95238095238096,176.93121693121694 100.31746031746033,177.35449735449737 99.68253968253968,177.7777777777778 99.25925925925927,178.2010582010582 98.62433862433863,178.62433862433863 97.989417989418,179.04761904761907 97.56613756613757,179.4708994708995 96.93121693121694,179.8941798941799 96.2962962962963,180.31746031746033 95.66137566137567,180.74074074074076 95.23809523809524,181.16402116402116 94.60317460317461,181.5873015873016 93.96825396825398,182.01058201058203 93.33333333333334,182.43386243386246 92.69841269841271,182.85714285714286 92.06349206349208,183.2804232804233 91.64021164021165,183.70370370370372 91.00529100529101,184.12698412698415 90.37037037037038,184.33862433862436 89.94708994708995,184.7619047619048 89.52380952380953,185.39682539682542 88.8888888888889,185.60846560846562 88.46560846560847,186.03174603174605 87.83068783068784,186.45502645502646 87.1957671957672,186.8783068783069 86.56084656084657,187.30158730158732 83.59788359788361,189.41798941798945" style="fill:none; stroke:#00aa99; stroke-width:1.0"  /><polyline points="83.59788359788361,189.41798941798945 81.26984126984128,187.08994708994712 80.84656084656085,186.66666666666669 80.42328042328043,186.03174603174605 80.0,185.60846560846562 79.57671957671958,184.973544973545 79.15343915343917,184.55026455026456 78.73015873015873,184.12698412698415 78.30687830687832,183.70370370370372 77.88359788359789,183.2804232804233 77.46031746031747,182.85714285714286 77.03703703703704,182.43386243386246 76.61375661375662,182.01058201058203 76.19047619047619,181.5873015873016 75.76719576719577,181.16402116402116 75.34391534391536,180.74074074074076 74.92063492063492,180.31746031746033 74.49735449735451,179.8941798941799 74.07407407407408,179.4708994708995 73.65079365079366,179.04761904761907 73.22751322751323,178.62433862433863 72.80423280423281,178.2010582010582 72.38095238095238,177.56613756613757 71.95767195767196,177.14285714285717 71.53439153439155,176.71957671957674 71.11111111111111,176.2962962962963 70.6878306878307,175.87301587301587 70.26455026455027,175.44973544973547 69.84126984126985,175.02645502645504 69.41798941798942,174.6031746031746 68.994708994709,174.1798941798942 68.57142857142858,173.75661375661377 68.14814814814815,173.33333333333334 67.72486772486774,172.9100529100529 67.3015873015873,172.4867724867725 66.87830687830689,171.85185185185188 66.45502645502646,171.42857142857144 66.03174603174604,171.005291005291 65.60846560846561,170.58201058201058 65.18518518518519,170.15873015873018 64.76190476190477,169.73544973544975 64.12698412698413,169.31216931216932 63.70370370370371,168.8888888888889 63.280423280423285,168.46560846560848 62.85714285714286,168.04232804232805 62.43386243386244,167.40740740740742 62.01058201058201,166.984126984127 61.58730158730159,166.56084656084658 61.16402116402117,166.13756613756615 60.74074074074075,165.71428571428572 60.31746031746032,165.2910052910053 59.8941798941799,164.8677248677249 59.470899470899475,164.44444444444446 59.04761904761905,164.02116402116403 58.62433862433863,163.3862433862434 58.2010582010582,162.96296296296296 57.777777777777786,162.53968253968256 57.35449735449736,162.11640211640213 56.93121693121694,161.4814814814815 56.50793650793651,161.05820105820106 56.08465608465609,160.42328042328043 55.661375661375665,159.7883597883598 55.449735449735456,159.15343915343917 55.23809523809524,158.51851851851853 54.81481481481482,157.8835978835979 54.81481481481482,157.24867724867727 54.81481481481482,156.61375661375664 54.81481481481482,155.978835978836 54.81481481481482,155.34391534391534 55.02645502645503,154.7089947089947 55.23809523809524,154.07407407407408 55.449735449735456,153.43915343915344 55.87301587301588,152.8042328042328 56.50793650793651,152.38095238095238 56.93121693121694,151.95767195767198 57.56613756613757,151.53439153439155 58.2010582010582,151.32275132275134 58.83597883597884,151.11111111111111 59.470899470899475,150.8994708994709 60.10582010582011,150.6878306878307 60.74074074074075,150.47619047619048 61.37566137566138,150.47619047619048 62.01058201058201,150.47619047619048 62.64550264550265,150.26455026455028 63.280423280423285,150.26455026455028 63.91534391534392,150.26455026455028 64.55026455026456,150.26455026455028 65.18518518518519,150.26455026455028 65.82010582010582,150.47619047619048 66.45502645502646,150.47619047619048 67.08994708994709,150.47619047619048 67.72486772486774,150.47619047619048 68.35978835978837,150.47619047619048 68.994708994709,150.47619047619048 69.62962962962963,150.47619047619048 70.26455026455027,150.47619047619048 70.8994708994709,150.47619047619048 71.53439153439155,150.47619047619048 72.16931216931218,150.47619047619048 72.80423280423281,150.26455026455028 73.43915343915344,150.26455026455028 74.07407407407408,150.05291005291005 74.70899470899471,149.84126984126985 75.34391534391536,149.62962962962965 75.97883597883599,149.41798941798942 76.61375661375662,149.20634920634922 77.24867724867725,148.99470899470901 77.88359788359789,148.78306878306879 78.51851851851852,148.35978835978838 79.15343915343917,147.93650793650795 79.7883597883598,147.72486772486775 80.42328042328043,147.30158730158732 80.84656084656085,146.8783068783069 81.48148148148148,146.66666666666669 81.90476190476191,146.24338624338625 82.32804232804233,145.82010582010582 82.75132275132276,145.1851851851852 83.17460317460318,144.76190476190476 83.59788359788361,144.12698412698413 83.80952380952381,143.4920634920635 84.23280423280424,143.0687830687831 84.44444444444446,142.43386243386246 84.65608465608466,141.7989417989418 84.86772486772487,141.16402116402116 84.86772486772487,140.52910052910053 84.86772486772487,139.8941798941799 85.07936507936509,139.25925925925927 85.07936507936509,138.62433862433863 85.07936507936509,137.989417989418 85.29100529100529,137.35449735449737 85.29100529100529,136.71957671957674 85.07936507936509,136.0846560846561 85.07936507936509,135.44973544973547 85.07936507936509,134.81481481481484 84.86772486772487,134.17989417989418 84.86772486772487,133.54497354497354 84.86772486772487,132.9100529100529 84.65608465608466,132.27513227513228 84.65608465608466,131.64021164021165 84.65608465608466,131.005291005291 84.44444444444446,130.37037037037038 84.44444444444446,129.73544973544975 84.23280423280424,129.10052910052912 84.02116402116403,128.46560846560848 84.02116402116403,127.83068783068784 83.80952380952381,127.1957671957672 83.59788359788361,126.56084656084657 83.3862433862434,125.92592592592594 83.17460317460318,125.2910052910053 82.96296296296298,124.65608465608466 82.53968253968254,124.02116402116403 82.32804232804233,123.3862433862434 82.11640211640213,122.75132275132276 81.90476190476191,122.11640211640213 81.48148148148148,121.4814814814815 81.05820105820106,120.84656084656086 80.84656084656085,120.21164021164022 80.42328042328043,119.57671957671958 80.0,118.94179894179895 79.57671957671958,118.30687830687832 79.36507936507937,117.67195767195768 78.94179894179895,117.24867724867725 78.51851851851852,116.61375661375662 78.0952380952381,116.1904761904762 77.67195767195767,115.55555555555557 77.24867724867725,114.92063492063492 76.82539682539684,114.28571428571429 76.4021164021164,113.86243386243387 75.97883597883599,113.22751322751324 75.55555555555556,112.5925925925926 75.13227513227514,112.16931216931218 74.70899470899471,111.74603174603176 74.28571428571429,111.11111111111111 73.86243386243387,110.6878306878307 73.43915343915344,110.26455026455027 73.01587301587303,109.84126984126985 72.5925925925926,109.41798941798943 72.16931216931218,108.994708994709 71.74603174603175,108.57142857142858 71.11111111111111,108.14814814814815 70.6878306878307,107.72486772486774 70.05291005291006,107.3015873015873 69.41798941798942,106.87830687830689 68.78306878306879,106.66666666666667 68.14814814814815,106.24338624338625 67.51322751322752,106.03174603174604 66.87830687830689,105.82010582010582 66.24338624338625,105.60846560846562 65.60846560846561,105.60846560846562 64.97354497354497,105.60846560846562 64.33862433862434,105.60846560846562 63.70370370370371,105.60846560846562 63.06878306878308,105.82010582010582 62.43386243386244,105.82010582010582 61.798941798941804,106.24338624338625 61.16402116402117,106.45502645502647 60.52910052910053,106.87830687830689 59.8941798941799,107.0899470899471 59.25925925925927,107.3015873015873 58.83597883597884,107.72486772486774 58.2010582010582,108.14814814814815 57.56613756613757,108.57142857142858 56.93121693121694,108.994708994709 56.50793650793651,109.41798941798943 55.87301587301588,109.84126984126985 55.23809523809524,110.26455026455027 54.81481481481482,110.6878306878307 54.39153439153439,111.32275132275133 53.968253968253975,111.74603174603176 53.54497354497355,112.3809523809524 53.12169312169313,112.80423280423281 52.6984126984127,113.43915343915344 52.27513227513228,113.86243386243387 52.06349206349207,114.49735449735451 51.640211640211646,114.92063492063492 51.42857142857143,115.55555555555557 51.00529100529101,115.97883597883599 50.7936507936508,116.61375661375662 50.370370370370374,117.24867724867725 50.158730158730165,117.88359788359789 49.73544973544974,118.51851851851853 49.523809523809526,119.15343915343917 49.31216931216932,119.7883597883598 49.1005291005291,120.42328042328043 48.677248677248684,121.05820105820106 48.46560846560847,121.6931216931217 48.25396825396826,122.32804232804234 48.042328042328045,122.96296296296298 47.830687830687836,123.59788359788361 47.40740740740741,124.02116402116403 46.98412698412699,124.65608465608466 46.560846560846564,125.2910052910053 46.13756613756614,125.71428571428572 45.714285714285715,126.13756613756615 45.29100529100529,126.56084656084657 44.867724867724874,126.98412698412699 44.44444444444445,127.40740740740742 43.80952380952381,127.83068783068784 43.386243386243386,128.25396825396825 42.75132275132275,128.46560846560848 42.11640211640212,128.67724867724868 41.48148148148149,128.88888888888889 40.84656084656085,128.88888888888889 40.211640211640216,128.88888888888889 39.57671957671958,128.67724867724868 38.94179894179894,128.46560846560848 38.30687830687831,128.25396825396825 37.67195767195768,128.04232804232805 37.03703703703704,127.61904761904763 36.402116402116405,127.40740740740742 35.97883597883598,126.98412698412699 35.34391534391535,126.56084656084657 34.70899470899471,126.13756613756615 34.28571428571429,125.71428571428572 33.86243386243387,125.07936507936509 33.43915343915344,124.65608465608466 33.01587301587302,124.23280423280424 32.592592592592595,123.59788359788361 32.16931216931217,122.96296296296298 31.746031746031747,122.32804232804234 31.322751322751326,121.6931216931217 30.899470899470902,121.26984126984128 30.476190476190478,120.63492063492065 30.052910052910054,120.00000000000001 29.841269841269842,119.36507936507937 29.41798941798942,118.94179894179895 28.994708994708997,118.30687830687832 28.571428571428573,117.67195767195768 28.14814814814815,117.03703703703705 27.724867724867728,116.4021164021164 27.301587301587304,115.76719576719577 27.089947089947092,115.13227513227514 26.666666666666668,114.70899470899472 26.455026455026456,114.07407407407408 26.031746031746035,113.65079365079366 25.820105820105823,113.01587301587303 25.3968253968254,112.3809523809524 25.185185185185187,111.74603174603176 24.761904761904763,111.32275132275133 24.55026455026455,110.6878306878307 24.12698412698413,110.05291005291006 23.915343915343918,109.41798941798943 23.492063492063494,108.78306878306879 23.280423280423282,108.14814814814815 22.857142857142858,107.51322751322752 22.645502645502646,106.87830687830689 22.222222222222225,106.24338624338625 22.010582010582013,105.60846560846562 21.7989417989418,104.97354497354497 21.375661375661377,104.33862433862434 21.164021164021165,103.70370370370371 20.952380952380953,103.06878306878308 20.529100529100532,102.43386243386244 20.31746031746032,101.79894179894181 19.894179894179896,101.16402116402116 19.47089947089947,100.52910052910053 19.25925925925926,99.8941798941799 18.83597883597884,99.47089947089948 18.624338624338627,98.83597883597885 18.201058201058203,98.2010582010582 17.98941798941799,97.56613756613757 17.566137566137566,96.93121693121694 17.354497354497354,96.2962962962963 17.142857142857146,95.66137566137567 16.71957671957672,95.02645502645504 16.50793650793651,94.39153439153439 16.084656084656086,93.96825396825398 15.873015873015873,93.33333333333334 15.661375661375663,92.69841269841271 15.238095238095239,92.06349206349208 15.026455026455027,91.42857142857143 14.603174603174605,90.7936507936508 14.391534391534393,90.15873015873017 13.96825396825397,89.52380952380953 13.756613756613758,88.8888888888889 13.544973544973546,88.25396825396827 13.121693121693122,87.61904761904762 12.910052910052912,86.98412698412699 12.486772486772487,86.34920634920636 12.275132275132275,85.71428571428572 12.063492063492065,85.07936507936509 11.640211640211641,84.44444444444446 11.428571428571429,83.80952380952381 11.005291005291006,83.17460317460318 10.793650793650794,82.53968253968254 10.370370370370372,81.90476190476191 10.15873015873016,81.26984126984128 9.947089947089948,80.63492063492065 9.523809523809524,80.21164021164022 9.312169312169313,79.57671957671958 9.100529100529101,78.94179894179895 8.88888888888889,78.30687830687832 8.465608465608467,77.67195767195767 8.253968253968255,77.03703703703704 7.830687830687832,76.4021164021164 7.6190476190476195,75.76719576719577 7.407407407407408,75.13227513227514 6.984126984126985,74.49735449735451 6.772486772486773,73.86243386243387 6.34920634920635,73.22751322751323 6.137566137566138,72.5925925925926 5.9259259259259265,71.95767195767196 5.502645502645503,71.32275132275133 5.291005291005291,70.6878306878307 4.867724867724868,70.05291005291006 4.656084656084657,69.41798941798942 4.2328042328042335,68.78306878306879 4.021164021164021,68.14814814814815 3.597883597883598,67.51322751322752 3.3862433862433865,66.87830687830689 2.9629629629629632,66.24338624338625 2.7513227513227516,65.60846560846561 2.3280423280423284,64.97354497354497 1.9047619047619049,64.55026455026456 1.6931216931216932,63.91534391534392 0.21164021164021166,61.16402116402117" style="fill:none; stroke:#3300bb; stroke-width:1.0"  /><circle cx="0.21164021164021166" cy="61.16402116402117" r="2.0" style="fill:none; stroke:#000000aa; stroke-width:0.25" /><circle cx="116.1904761904762" cy="0.21164021164021166" r="2.0" style="fill:none; stroke:#000000aa; stroke-width:0.25" /><circle cx="193.22751322751324" cy="115.34391534391536" r="2.0" style="fill:none; stroke:#000000aa; stroke-width:0.25" /><circle cx="83.59788359788361" cy="189.41798941798945" r="2.0" style="fill:none; stroke:#000000aa; stroke-width:0.25" /><circle cx="0.21164021164021166" cy="60.952380952380956" r="2.0" style="fill:none; stroke:#ff3366aa; stroke-width:0.25" /><circle cx="115.97883597883599" cy="0.21164021164021166" r="2.0" style="fill:none; stroke:#ff3366aa; stroke-width:0.25" /><circle cx="192.16931216931218" cy="114.92063492063492" r="2.0" style="fill:none; stroke:#ff3366aa; stroke-width:0.25" /><circle cx="83.59788359788361" cy="189.20634920634922" r="2.0" style="fill:none; stroke:#ff3366aa; stroke-width:0.25" /><polyline points="8.677248677248677,52.91005291005291 8.253968253968255,53.333333333333336 7.830687830687832,53.75661375661376 7.407407407407408,54.179894179894184 6.984126984126985,54.60317460317461 6.560846560846561,55.02645502645503 6.137566137566138,55.449735449735456 5.714285714285714,55.87301587301588 5.291005291005291,56.2962962962963 4.867724867724868,56.71957671957672 4.2328042328042335,57.142857142857146 3.8095238095238098,57.56613756613757 3.3862433862433865,57.989417989417994 2.9629629629629632,58.41269841269842 2.53968253968254,58.83597883597884" style="fill:none; stroke:#001100; stroke-width:1.0" /><polyline points="5.502645502645503,71.32275132275133 5.291005291005291,70.6878306878307 4.867724867724868,70.05291005291006 4.656084656084657,69.41798941798942 4.2328042328042335,68.78306878306879 4.021164021164021,68.14814814814815 3.597883597883598,67.51322751322752 3.3862433862433865,66.87830687830689 2.9629629629629632,66.24338624338625 2.7513227513227516,65.60846560846561 2.3280423280423284,64.97354497354497 1.9047619047619049,64.55026455026456 1.6931216931216932,63.91534391534392" style="fill:none; stroke:#000011; stroke-width:1.0" /><polyline points="121.4814814814815,10.582010582010582 121.26984126984128,9.947089947089948 120.84656084656086,9.312169312169313 120.63492063492065,8.677248677248677 120.21164021164022,8.042328042328043 120.00000000000001,7.407407407407408 119.57671957671958,6.772486772486773 119.36507936507937,6.137566137566138 118.94179894179895,5.502645502645503 118.73015873015873,4.867724867724868 118.30687830687832,4.2328042328042335 118.0952380952381,3.597883597883598 117.67195767195768,3.174603174603175" style="fill:none; stroke:#001100; stroke-width:1.0" /><polyline points="105.18518518518519,4.021164021164021 105.82010582010582,3.8095238095238098 106.45502645502647,3.8095238095238098 106.87830687830689,3.3862433862433865 107.51322751322752,3.3862433862433865 108.14814814814815,3.174603174603175 108.57142857142858,2.7513227513227516 109.20634920634922,2.53968253968254 109.84126984126985,2.53968253968254 110.47619047619048,2.3280423280423284 111.11111111111111,2.1164021164021167 111.74603174603176,1.9047619047619049 112.3809523809524,1.4814814814814816 113.01587301587303,1.26984126984127" style="fill:none; stroke:#000011; stroke-width:1.0" /><polyline points="184.12698412698415,122.96296296296298 184.7619047619048,122.53968253968254 185.1851851851852,122.11640211640213 185.82010582010582,121.6931216931217 186.45502645502646,121.26984126984128 186.8783068783069,120.84656084656086 187.51322751322752,120.42328042328043 187.93650793650795,120.00000000000001 188.57142857142858,119.57671957671958 188.99470899470901,119.15343915343917 189.41798941798945,118.73015873015873 189.84126984126985,118.30687830687832 190.26455026455028,117.88359788359789" style="fill:none; stroke:#001100; stroke-width:1.0" /><polyline points="183.2804232804233,107.3015873015873 183.70370370370372,107.72486772486774 184.12698412698415,108.14814814814815 184.55026455026456,108.57142857142858 184.973544973545,108.994708994709 185.39682539682542,109.41798941798943 186.03174603174605,109.84126984126985 186.45502645502646,110.26455026455027 187.08994708994712,110.6878306878307 187.51322751322752,111.11111111111111 188.14814814814815,111.53439153439155 188.78306878306879,111.95767195767196 189.41798941798945,112.3809523809524 190.05291005291008,112.80423280423281" style="fill:none; stroke:#000011; stroke-width:1.0" /><polyline points="75.34391534391536,180.74074074074076 75.76719576719577,181.16402116402116 76.19047619047619,181.5873015873016 76.61375661375662,182.01058201058203 77.03703703703704,182.43386243386246 77.46031746031747,182.85714285714286 77.88359788359789,183.2804232804233 78.30687830687832,183.70370370370372 78.73015873015873,184.12698412698415 79.15343915343917,184.55026455026456 79.57671957671958,184.973544973545 80.0,185.60846560846562 80.42328042328043,186.03174603174605 80.84656084656085,186.66666666666669 81.26984126984128,187.08994708994712" style="fill:none; stroke:#001100; stroke-width:1.0" /><polyline points="93.33333333333334,182.43386243386246 92.69841269841271,182.85714285714286 92.06349206349208,183.2804232804233 91.64021164021165,183.70370370370372 91.00529100529101,184.12698412698415 90.37037037037038,184.33862433862436 89.94708994708995,184.7619047619048 89.52380952380953,185.39682539682542 88.8888888888889,185.60846560846562 88.46560846560847,186.03174603174605 87.83068783068784,186.45502645502646 87.1957671957672,186.8783068783069 86.56084656084657,187.30158730158732" style="fill:none; stroke:#000011; stroke-width:1.0" /><polyline points="2.53968253968254,58.83597883597884 -12.6984126984127,73.43915343915344" style="fill:none; stroke:#ffaa00; stroke-width:0.4" /><polyline points="1.6931216931216932,63.91534391534392 -8.042328042328043,45.07936507936508" style="fill:none; stroke:#aaff00; stroke-width:0.4" /><polyline points="117.67195767195768,3.174603174603175 107.93650793650795,-15.661375661375663" style="fill:none; stroke:#ffaa00; stroke-width:0.4" /><polyline points="113.01587301587303,1.26984126984127 132.9100529100529,-5.714285714285714" style="fill:none; stroke:#aaff00; stroke-width:0.4" /><polyline points="190.26455026455028,117.88359788359789 206.56084656084658,104.33862433862434" style="fill:none; stroke:#ffaa00; stroke-width:0.4" /><polyline points="190.05291005291008,112.80423280423281 206.56084656084658,126.13756613756615" style="fill:none; stroke:#aaff00; stroke-width:0.4" /><polyline points="81.26984126984128,187.08994708994712 95.66137566137567,202.53968253968256" style="fill:none; stroke:#ffaa00; stroke-width:0.4" /><polyline points="86.56084656084657,187.30158730158732 69.41798941798942,199.5767195767196" style="fill:none; stroke:#aaff00; stroke-width:0.4" /><circle cx="102.64550264550266" cy="95.87301587301587" r="1.0" style="fill:#444444; stroke-width:0" /><circle cx="122.32804232804234" cy="95.23809523809524" r="10.582010582010582" style="fill:#ff770022; stroke-width:0" /><circle cx="122.32804232804234" cy="95.23809523809524" r="1.0" style="fill:#ff7700; stroke-width:0" /></svg>