<?xml version="1.0" encoding="UTF-8" standalone="no"?><svg width="525.7142857142858" height="570.7936507936508" viewBox="-10 -10 195.23809523809524 210.26455026455028" xmlns="http://www.w3.org/2000/svg" xmlns:xlink="http://www.w3.org/1999/xlink"><polyline points="56.08465608465609,0.0 60.10582010582011,1.26984126984127 60.74074074074075,1.26984126984127 61.37566137566138,1.4814814814814816 62.01058201058201,1.6931216931216932 62.64550264550265,1.9047619047619049 63.280423280423285,2.3280423280423284 63.91534391534392,2.53968253968254 64.55026455026456,2.7513227513227516 65.18518518518519,2.9629629629629632 65.82010582010582,3.174603174603175 66.45502645502646,3.3862433862433865 67.08994708994709,3.597883597883598 67.72486772486774,3.597883597883598 68.35978835978837,3.8095238095238098 68.994708994709,4.021164021164021 69.62962962962963,4.2328042328042335 70.26455026455027,4.444444444444445 70.8994708994709,4.444444444444445 71.53439153439155,4.656084656084657 72.16931216931218,4.867724867724868 72.80423280423281,5.07936507936508 73.43915343915344,5.291005291005291 74.07407407407408,5.291005291005291 74.70899470899471,5.502645502645503 75.34391534391536,5.714285714285714 75.97883597883599,5.9259259259259265 76.61375661375662,5.9259259259259265 77.24867724867725,6.137566137566138 77.88359788359789,6.137566137566138 78.51851851851852,6.34920634920635 79.15343915343917,6.34920634920635 79.7883597883598,6.560846560846561 80.42328042328043,6.772486772486773 81.05820105820106,6.772486772486773 81.6931216931217,6.772486772486773 82.32804232804233,6.984126984126985 82.96296296296298,7.195767195767196 83.59788359788361,7.195767195767196 84.23280423280424,7.195767195767196 84.86772486772487,7.407407407407408 85.5026455026455,7.195767195767196 86.13756613756614,7.407407407407408 86.77248677248677,7.407407407407408 87.40740740740742,7.6190476190476195 88.04232804232805,7.6190476190476195 88.67724867724868,7.6190476190476195 89.31216931216932,7.6190476190476195 89.94708994708995,7.6190476190476195 90.58201058201058,7.830687830687832 91.21693121693123,7.830687830687832 91.85185185185186,7.830687830687832 92.4867724867725,8.042328042328043 93.12169312169313,8.042328042328043 93.75661375661376,8.042328042328043 94.39153439153439,8.042328042328043 95.02645502645504,8.253968253968255 95.66137566137567,8.253968253968255 96.2962962962963,8.465608465608467 96.93121693121694,8.677248677248677 97.56613756613757,8.677248677248677 98.2010582010582,8.88888888888889 98.83597883597885,8.88888888888889 99.47089947089948,9.100529100529101 100.10582010582011,9.523809523809524 100.74074074074075,9.735449735449736 101.37566137566138,9.947089947089948 102.01058201058201,10.370370370370372 102.64550264550266,10.582010582010582 103.28042328042329,10.793650793650794 103.91534391534393,11.216931216931219 104.55026455026456,11.428571428571429 105.18518518518519,11.640211640211641 105.60846560846562,12.063492063492065 106.24338624338625,12.486772486772487 106.87830687830689,12.6984126984127 107.51322751322752,13.121693121693122 107.93650793650795,13.544973544973546 108.35978835978837,13.96825396825397 108.994708994709,14.391534391534393 109.41798941798943,14.814814814814817 109.84126984126985,15.449735449735451 110.05291005291006,16.084656084656086 110.47619047619048,16.71957671957672 110.47619047619048,17.354497354497354 110.47619047619048,17.98941798941799 110.6878306878307,18.624338624338627 110.6878306878307,19.25925925925926 110.47619047619048,19.894179894179896 110.47619047619048,20.529100529100532 110.26455026455027,21.164021164021165 110.05291005291006,21.7989417989418 109.62962962962963,22.433862433862437 109.20634920634922,22.857142857142858 108.78306878306879,23.492063492063494 108.35978835978837,24.12698412698413 107.93650793650795,24.55026455026455 107.51322751322752,24.973544973544975 107.0899470899471,25.3968253968254 106.66666666666667,26.031746031746035 106.24338624338625,26.455026455026456 105.82010582010582,26.87830687830688 105.3968253968254,27.301587301587304 104.97354497354497,27.724867724867728 104.55026455026456,28.14814814814815 104.12698412698414,28.571428571428573 103.4920634920635,28.994708994708997 102.85714285714286,29.20634920634921 102.22222222222223,29.629629629629633 101.5873015873016,29.841269841269842 100.95238095238096,30.264550264550266 100.31746031746033,30.476190476190478 99.68253968253968,30.899470899470902 99.04761904761905,31.111111111111114 98.62433862433863,31.53439153439154 97.989417989418,31.746031746031747 97.56613756613757,32.16931216931217 96.93121693121694,32.592592592592595 96.2962962962963,33.01587301587302 95.66137566137567,33.43915343915344 95.23809523809524,33.86243386243387 94.81481481481482,34.28571428571429 94.39153439153439,34.70899470899471 93.96825396825398,35.13227513227513 93.54497354497356,35.55555555555556 93.12169312169313,35.97883597883598 92.91005291005291,36.613756613756614 92.4867724867725,37.03703703703704 92.06349206349208,37.46031746031746 91.64021164021165,38.095238095238095 91.42857142857143,38.730158730158735 91.00529100529101,39.36507936507937 91.00529100529101,40.0 90.7936507936508,40.63492063492064 90.7936507936508,41.26984126984127 90.7936507936508,41.904761904761905 90.58201058201058,42.539682539682545 90.7936507936508,43.17460317460318 90.7936507936508,43.80952380952381 90.7936507936508,44.44444444444445 90.7936507936508,45.07936507936508 91.00529100529101,45.714285714285715 91.21693121693123,46.349206349206355 91.21693121693123,46.98412698412699 91.42857142857143,47.61904761904762 91.64021164021165,48.25396825396826 91.85185185185186,48.88888888888889 92.27513227513228,49.523809523809526 92.4867724867725,50.158730158730165 92.69841269841271,50.7936507936508 93.12169312169313,51.42857142857143 93.33333333333334,52.06349206349207 93.75661375661376,52.48677248677249 93.96825396825398,53.12169312169313 94.39153439153439,53.54497354497355 94.81481481481482,54.179894179894184 95.23809523809524,54.81481481481482 95.66137566137567,55.449735449735456 96.08465608465609,55.87301587301588 96.50793650793652,56.50793650793651 96.93121693121694,56.93121693121694 97.35449735449737,57.35449735449736 97.77777777777779,57.989417989417994 98.41269841269842,58.41269841269842 98.83597883597885,58.83597883597884 99.25925925925927,59.25925925925927 99.68253968253968,59.682539682539684 100.31746031746033,60.10582010582011 100.74074074074075,60.52910052910053 101.37566137566138,60.952380952380956 101.79894179894181,61.37566137566138 102.43386243386244,61.798941798941804 103.06878306878308,62.22222222222223 103.70370370370371,62.43386243386244 104.12698412698414,62.85714285714286 104.76190476190477,63.06878306878308 105.3968253968254,63.492063492063494 106.03174603174604,63.70370370370371 106.66666666666667,64.12698412698413 107.3015873015873,64.33862433862434 107.93650793650795,64.76190476190477 108.57142857142858,64.76190476190477 108.994708994709,65.18518518518519 109.62962962962963,65.3968253968254 110.26455026455027,65.60846560846561 110.89947089947091,65.82010582010582 111.53439153439155,66.24338624338625 112.16931216931218,66.45502645502646 112.80423280423281,66.45502645502646 113.43915343915344,66.66666666666667 114.07407407407408,66.87830687830689 114.70899470899472,66.87830687830689 115.34391534391536,67.08994708994709 115.97883597883599,67.08994708994709 116.61375661375662,67.3015873015873 117.24867724867725,67.3015873015873 117.88359788359789,67.08994708994709 118.51851851851853,67.08994708994709 119.15343915343917,66.87830687830689 119.7883597883598,66.66666666666667 120.42328042328043,66.45502645502646 121.05820105820106,66.24338624338625 121.6931216931217,65.82010582010582 122.32804232804234,65.82010582010582 122.75132275132276,65.3968253968254 123.3862433862434,65.18518518518519 124.02116402116403,64.76190476190477 124.65608465608466,64.33862433862434 125.2910052910053,63.91534391534392 125.71428571428572,63.492063492063494 126.13756613756615,63.06878306878308 126.56084656084657,62.64550264550265 126.98412698412699,62.22222222222223 127.40740740740742,61.798941798941804 127.83068783068784,61.16402116402117 128.25396825396825,60.74074074074075 128.46560846560848,60.10582010582011 128.88888888888889,59.682539682539684 129.10052910052912,59.04761904761905 129.31216931216932,58.41269841269842 129.52380952380955,57.777777777777786 129.73544973544975,57.142857142857146 129.94708994708995,56.50793650793651 129.94708994708995,55.87301587301588 130.15873015873018,55.23809523809524 130.15873015873018,54.60317460317461 130.15873015873018,53.968253968253975 130.37037037037038,53.333333333333336 130.37037037037038,52.6984126984127 130.37037037037038,52.06349206349207 130.58201058201058,51.42857142857143 130.58201058201058,50.7936507936508 130.7936507936508,50.158730158730165 130.7936507936508,49.523809523809526 131.005291005291,48.88888888888889 131.005291005291,48.25396825396826 131.21693121693121,47.61904761904762 131.21693121693121,46.98412698412699 131.42857142857144,46.349206349206355 131.42857142857144,45.714285714285715 131.64021164021165,45.07936507936508 131.64021164021165,44.44444444444445 131.85185185185185,43.80952380952381 131.85185185185185,43.17460317460318 132.06349206349208,42.539682539682545 132.27513227513228,41.904761904761905 132.27513227513228,41.26984126984127 132.4867724867725,40.63492063492064 132.4867724867725,40.0 132.6984126984127,39.36507936507937 133.12169312169314,38.94179894179894 133.33333333333334,38.30687830687831 133.75661375661377,37.67195767195768 133.96825396825398,37.03703703703704 134.17989417989418,36.402116402116405 134.6031746031746,35.97883597883598 134.6031746031746,35.34391534391535 135.02645502645504,34.920634920634924 135.44973544973547,34.4973544973545 135.87301587301587,34.074074074074076 136.2962962962963,33.65079365079365 136.93121693121694,33.22751322751323 137.35449735449737,32.804232804232804 137.7777777777778,32.38095238095239 138.2010582010582,31.95767195767196 138.83597883597884,31.746031746031747 139.47089947089947,31.53439153439154 140.10582010582013,31.322751322751326 140.74074074074076,31.322751322751326 141.3756613756614,31.53439153439154 142.01058201058203,31.53439153439154 142.64550264550266,31.746031746031747 143.2804232804233,31.746031746031747 143.91534391534393,32.16931216931217 144.55026455026456,32.38095238095239 145.1851851851852,32.592592592592595 145.82010582010582,33.01587301587302 146.45502645502646,33.43915343915344 147.0899470899471,33.65079365079365 147.51322751322752,34.074074074074076 148.14814814814815,34.28571428571429 148.57142857142858,34.70899470899471 149.20634920634922,34.920634920634924 149.84126984126985,35.34391534391535 150.47619047619048,35.76719576719577 151.11111111111111,35.97883597883598 151.74603174603175,36.402116402116405 152.38095238095238,36.613756613756614 152.8042328042328,37.03703703703704 153.43915343915344,37.248677248677254 154.07407407407408,37.67195767195768 154.7089947089947,38.095238095238095 155.34391534391534,38.30687830687831 155.978835978836,38.51851851851852 156.4021164021164,38.94179894179894 157.03703703703704,39.15343915343916 157.46031746031747,39.57671957671958 158.0952380952381,39.78835978835979 158.73015873015873,40.211640211640216 159.36507936507937,40.63492063492064 160.0,40.84656084656085 160.63492063492066,41.26984126984127 161.2698412698413,41.6931216931217 161.90476190476193,41.904761904761905 162.32804232804233,42.32804232804233 162.96296296296296,42.539682539682545 163.59788359788362,42.96296296296297 164.23280423280426,43.386243386243386 164.8677248677249,43.80952380952381 165.50264550264552,44.021164021164026 166.13756613756615,44.44444444444445 166.7724867724868,44.867724867724874 167.40740740740742,45.07936507936508 168.04232804232805,45.50264550264551 168.67724867724868,45.92592592592593 169.31216931216932,46.13756613756614 169.94708994708995,46.560846560846564 170.58201058201058,46.98412698412699 171.21693121693124,47.195767195767196 171.85185185185188,47.61904761904762 175.02645502645504,49.31216931216932" style="fill:none; stroke:#cc0000; stroke-width:1.0"  /><polyline points="175.02645502645504,49.31216931216932 173.75661375661377,52.6984126984127 173.54497354497354,53.333333333333336 173.12169312169314,53.968253968253975 172.9100529100529,54.60317460317461 172.6984126984127,55.23809523809524 172.4867724867725,55.87301587301588 172.06349206349208,56.50793650793651 171.85185185185188,57.142857142857146 171.64021164021165,57.777777777777786 171.42857142857144,58.41269841269842 171.005291005291,59.04761904761905 171.005291005291,59.682539682539684 170.58201058201058,60.31746031746032 170.37037037037038,60.952380952380956 170.15873015873018,61.58730158730159 169.94708994708995,62.22222222222223 169.73544973544975,62.85714285714286 169.52380952380955,63.492063492063494 169.31216931216932,64.12698412698413 169.10052910052912,64.76190476190477 168.8888888888889,65.3968253968254 168.46560846560848,66.03174603174604 168.46560846560848,66.66666666666667 168.04232804232805,67.3015873015873 167.83068783068785,67.93650793650794 167.61904761904762,68.57142857142858 167.40740740740742,69.20634920634922 167.19576719576722,69.84126984126985 166.984126984127,70.47619047619048 166.984126984127,71.11111111111111 166.7724867724868,71.74603174603175 166.34920634920636,72.38095238095238 166.13756613756615,73.01587301587303 165.92592592592595,73.65079365079366 165.71428571428572,74.28571428571429 165.50264550264552,74.92063492063492 165.2910052910053,75.55555555555556 165.0793650793651,76.19047619047619 164.8677248677249,76.82539682539684 164.65608465608466,77.46031746031747 164.23280423280426,78.0952380952381 164.02116402116403,78.73015873015873 163.80952380952382,79.36507936507937 163.59788359788362,80.0 163.3862433862434,80.63492063492065 163.1746031746032,81.26984126984128 162.96296296296296,81.90476190476191 162.75132275132276,82.53968253968254 162.32804232804233,83.17460317460318 162.11640211640213,83.80952380952381 161.90476190476193,84.44444444444446 161.6931216931217,85.07936507936509 161.4814814814815,85.71428571428572 161.05820105820106,86.34920634920636 160.84656084656086,86.98412698412699 160.63492063492066,87.61904761904762 160.42328042328043,88.25396825396827 160.21164021164023,88.8888888888889 160.0,89.52380952380953 159.5767195767196,90.15873015873017 159.36507936507937,90.7936507936508 159.15343915343917,91.42857142857143 158.94179894179896,92.06349206349208 158.73015873015873,92.69841269841271 158.51851851851853,93.33333333333334 158.0952380952381,93.96825396825398 157.8835978835979,94.60317460317461 157.67195767195767,95.23809523809524 157.46031746031747,95.87301587301587 157.03703703703704,96.50793650793652 156.82539682539684,97.14285714285715 156.4021164021164,97.77777777777779 156.1904761904762,98.41269841269842 155.76719576719577,99.04761904761905 155.34391534391534,99.68253968253968 155.13227513227514,100.31746031746033 154.7089947089947,100.74074074074075 154.2857142857143,101.16402116402116 153.86243386243387,101.5873015873016 153.43915343915344,102.01058201058201 153.01587301587304,102.43386243386244 152.38095238095238,102.64550264550266 151.95767195767198,103.06878306878308 151.32275132275134,103.28042328042329 150.6878306878307,103.4920634920635 150.05291005291005,103.70370370370371 149.41798941798942,103.70370370370371 148.78306878306879,103.4920634920635 148.14814814814815,103.4920634920635 147.51322751322752,103.28042328042329 146.8783068783069,103.06878306878308 146.24338624338625,102.85714285714286 145.60846560846562,102.64550264550266 145.1851851851852,102.22222222222223 144.55026455026456,101.79894179894181 144.12698412698413,101.37566137566138 143.4920634920635,100.95238095238096 143.0687830687831,100.52910052910053 142.64550264550266,100.10582010582011 142.22222222222223,99.47089947089948 141.7989417989418,99.04761904761905 141.3756613756614,98.62433862433863 140.95238095238096,98.2010582010582 140.52910052910053,97.77777777777779 140.10582010582013,97.35449735449737 139.6825396825397,96.93121693121694 139.04761904761907,96.50793650793652 138.62433862433863,96.08465608465609 137.989417989418,95.66137566137567 137.35449735449737,95.23809523809524 136.71957671957674,94.81481481481482 136.0846560846561,94.60317460317461 135.44973544973547,94.17989417989419 134.81481481481484,93.96825396825398 134.17989417989418,93.75661375661376 133.54497354497354,93.54497354497356 132.9100529100529,93.54497354497356 132.27513227513228,93.54497354497356 131.64021164021165,93.54497354497356 131.005291005291,93.54497354497356 130.37037037037038,93.75661375661376 129.73544973544975,94.17989417989419 129.10052910052912,94.39153439153439 128.46560846560848,94.81481481481482 128.04232804232805,95.23809523809524 127.61904761904763,95.66137566137567 126.98412698412699,96.08465608465609 126.56084656084657,96.50793650793652 126.13756613756615,96.93121693121694 125.71428571428572,97.35449735449737 125.2910052910053,97.77777777777779 124.86772486772487,98.2010582010582 124.44444444444446,98.62433862433863 124.02116402116403,99.04761904761905 123.59788359788361,99.68253968253968 123.17460317460318,100.10582010582011 122.75132275132276,100.52910052910053 122.32804232804234,100.95238095238096 121.90476190476191,101.37566137566138 121.4814814814815,102.01058201058201 121.05820105820106,102.43386243386244 120.63492063492065,102.85714285714286 120.21164021164022,103.4920634920635 119.7883597883598,104.12698412698414 119.36507936507937,104.76190476190477 118.94179894179895,105.3968253968254 118.51851851851853,105.82010582010582 118.30687830687832,106.45502645502647 117.88359788359789,107.0899470899471 117.46031746031747,107.72486772486774 117.03703703703705,108.35978835978837 116.61375661375662,108.994708994709 116.1904761904762,109.62962962962963 115.97883597883599,110.26455026455027 115.55555555555557,110.6878306878307 115.34391534391536,111.32275132275133 114.92063492063492,111.95767195767196 114.49735449735451,112.5925925925926 114.28571428571429,113.22751322751324 113.86243386243387,113.86243386243387 113.65079365079366,114.49735449735451 113.22751322751324,114.92063492063492 113.01587301587303,115.55555555555557 112.5925925925926,116.1904761904762 112.3809523809524,116.82539682539684 112.16931216931218,117.46031746031747 111.74603174603176,118.0952380952381 111.53439153439155,118.73015873015873 111.32275132275133,119.36507936507937 110.89947089947091,120.00000000000001 110.6878306878307,120.63492063492065 110.47619047619048,121.26984126984128 110.26455026455027,121.90476190476191 110.05291005291006,122.53968253968254 109.62962962962963,123.17460317460318 109.41798941798943,123.80952380952382 109.20634920634922,124.44444444444446 108.994708994709,125.07936507936509 108.78306878306879,125.71428571428572 108.57142857142858,126.34920634920636 108.57142857142858,126.98412698412699 108.35978835978837,127.61904761904763 108.14814814814815,128.25396825396825 107.93650793650795,128.88888888888889 107.93650793650795,129.52380952380955 107.72486772486774,130.15873015873018 107.51322751322752,130.7936507936508 107.51322751322752,131.42857142857144 107.3015873015873,132.06349206349208 107.3015873015873,132.6984126984127 107.51322751322752,133.33333333333334 107.51322751322752,133.96825396825398 107.51322751322752,134.6031746031746 107.93650793650795,135.23809523809524 108.35978835978837,135.87301587301587 108.78306878306879,136.5079365079365 109.20634920634922,137.14285714285717 109.62962962962963,137.56613756613757 110.26455026455027,137.989417989418 110.6878306878307,138.41269841269843 111.32275132275133,138.62433862433863 111.95767195767196,138.83597883597884 112.5925925925926,139.04761904761907 113.22751322751324,139.25925925925927 113.86243386243387,139.25925925925927 114.49735449735451,139.47089947089947 115.13227513227514,139.47089947089947 115.76719576719577,139.47089947089947 116.4021164021164,139.6825396825397 117.03703703703705,139.6825396825397 117.67195767195768,139.8941798941799 118.30687830687832,139.8941798941799 118.94179894179895,139.6825396825397 119.57671957671958,139.6825396825397 120.21164021164022,139.47089947089947 120.84656084656086,139.25925925925927 121.4814814814815,139.25925925925927 122.11640211640213,139.25925925925927 122.75132275132276,139.04761904761907 123.3862433862434,138.83597883597884 124.02116402116403,138.62433862433863 124.65608465608466,138.62433862433863 125.2910052910053,138.62433862433863 125.92592592592594,138.62433862433863 126.56084656084657,138.62433862433863 127.1957671957672,138.83597883597884 127.83068783068784,138.83597883597884 128.46560846560848,138.83597883597884 129.10052910052912,138.83597883597884 129.73544973544975,139.25925925925927 130.37037037037038,139.25925925925927 131.005291005291,139.6825396825397 131.64021164021165,139.8941798941799 132.27513227513228,140.10582010582013 132.6984126984127,140.52910052910053 133.33333333333334,140.95238095238096 133.96825396825398,141.3756613756614 134.3915343915344,141.7989417989418 134.81481481481484,142.22222222222223 135.02645502645504,142.85714285714286 135.23809523809524,143.4920634920635 135.23809523809524,144.12698412698413 135.23809523809524,144.76190476190476 135.23809523809524,145.39682539682542 135.02645502645504,146.03174603174605 134.81481481481484,146.66666666666669 134.3915343915344,147.30158730158732 133.96825396825398,147.93650793650795 133.54497354497354,148.57142857142858 133.12169312169314,149.20634920634922 132.6984126984127,149.84126984126985 132.27513227513228,150.26455026455028 131.85185185185185,150.8994708994709 131.42857142857144,151.32275132275134 131.005291005291,151.74603174603175 130.58201058201058,152.38095238095238 130.15873015873018,152.8042328042328 129.73544973544975,153.43915343915344 129.31216931216932,153.86243386243387 128.88888888888889,154.4973544973545 128.46560846560848,154.92063492063494 128.04232804232805,155.34391534391534 127.61904761904763,155.978835978836 127.1957671957672,156.61375661375664 126.77248677248679,157.03703703703704 126.34920634920636,157.46031746031747 125.92592592592594,158.0952380952381 125.5026455026455,158.73015873015873 125.07936507936509,159.15343915343917 124.65608465608466,159.7883597883598 124.23280423280424,160.21164021164023 123.80952380952382,160.84656084656086 123.3862433862434,161.2698412698413 122.96296296296298,161.90476190476193 122.53968253968254,162.32804232804233 122.11640211640213,162.96296296296296 121.6931216931217,163.3862433862434 121.26984126984128,164.02116402116403 120.84656084656086,164.65608465608466 120.42328042328043,165.0793650793651 120.21164021164022,165.71428571428572 119.7883597883598,166.13756613756615 119.36507936507937,166.56084656084658 118.94179894179895,167.19576719576722 118.51851851851853,167.83068783068785 118.0952380952381,168.46560846560848 117.67195767195768,169.10052910052912 117.24867724867725,169.52380952380955 116.82539682539684,170.15873015873018 116.4021164021164,170.7936507936508 115.97883597883599,171.42857142857144 115.55555555555557,172.06349206349208 115.13227513227514,172.4867724867725 114.70899470899472,173.12169312169314 114.28571428571429,173.75661375661377 113.86243386243387,174.3915343915344 113.43915343915344,174.81481481481484 113.01587301587303,175.44973544973547 112.80423280423281,176.0846560846561 112.3809523809524,176.71957671957674 111.95767195767196,177.35449735449737 111.53439153439155,177.989417989418 111.11111111111111,178.41269841269843 110.89947089947091,179.04761904761907 110.47619047619048,179.4708994708995 110.05291005291006,180.10582010582013 109.62962962962963,180.74074074074076 109.20634920634922,181.3756613756614 108.78306878306879,182.01058201058203 108.57142857142858,182.64550264550266 108.14814814814815,183.0687830687831 107.72486772486774,183.70370370370372 107.51322751322752,184.33862433862436 107.0899470899471,184.973544973545 106.87830687830689,185.60846560846562 106.45502645502647,186.24338624338625 106.03174603174604,186.8783068783069 104.33862433862434,189.84126984126985" style="fill:none; stroke:#999900; stroke-width:1.0"  /><polyline points="104.33862433862434,189.84126984126985 100.74074074074075,188.35978835978838 100.10582010582011,188.14814814814815 99.47089947089948,187.72486772486775 98.83597883597885,187.51322751322752 98.2010582010582,187.30158730158732 97.56613756613757,186.8783068783069 96.93121693121694,186.66666666666669 96.2962962962963,186.45502645502646 95.66137566137567,186.24338624338625 95.02645502645504,185.82010582010582 94.39153439153439,185.60846560846562 93.75661375661376,185.60846560846562 93.12169312169313,185.39682539682542 92.4867724867725,184.973544973545 91.85185185185186,184.7619047619048 91.21693121693123,184.55026455026456 90.58201058201058,184.12698412698415 89.94708994708995,183.91534391534393 89.52380952380953,183.4920634920635 89.1005291005291,183.0687830687831 88.67724867724868,182.64550264550266 88.25396825396827,182.22222222222223 87.83068783068784,181.79894179894183 87.40740740740742,181.16402116402116 86.98412698412699,180.52910052910053 86.77248677248677,179.8941798941799 86.56084656084657,179.25925925925927 86.56084656084657,178.62433862433863 86.34920634920636,177.989417989418 86.34920634920636,177.35449735449737 86.34920634920636,176.71957671957674 86.34920634920636,176.0846560846561 86.13756613756614,175.44973544973547 86.13756613756614,174.81481481481484 86.34920634920636,174.1798941798942 86.56084656084657,173.54497354497354 86.56084656084657,172.9100529100529 86.77248677248677,172.27513227513228 86.98412698412699,171.64021164021165 87.1957671957672,171.005291005291 87.1957671957672,170.37037037037038 87.61904761904762,169.73544973544975 87.83068783068784,169.10052910052912 88.25396825396827,168.46560846560848 88.46560846560847,167.83068783068785 88.8888888888889,167.40740740740742 89.1005291005291,166.7724867724868 89.52380952380953,166.34920634920636 89.94708994708995,165.71428571428572 90.37037037037038,165.0793650793651 90.7936507936508,164.65608465608466 91.21693121693123,164.02116402116403 91.64021164021165,163.59788359788362 92.06349206349208,162.96296296296296 92.4867724867725,162.32804232804233 92.91005291005291,161.6931216931217 93.33333333333334,161.05820105820106 93.54497354497356,160.42328042328043 93.96825396825398,159.7883597883598 94.17989417989419,159.15343915343917 94.60317460317461,158.51851851851853 94.60317460317461,157.8835978835979 95.02645502645504,157.24867724867727 95.23809523809524,156.61375661375664 95.44973544973546,155.978835978836 95.44973544973546,155.34391534391534 95.66137566137567,154.7089947089947 95.66137566137567,154.07407407407408 95.87301587301587,153.43915343915344 95.87301587301587,152.8042328042328 95.87301587301587,152.16931216931218 95.87301587301587,151.53439153439155 95.87301587301587,150.8994708994709 95.66137566137567,150.26455026455028 95.66137566137567,149.62962962962965 95.44973544973546,148.99470899470901 95.44973544973546,148.35978835978838 95.23809523809524,147.72486772486775 95.02645502645504,147.0899470899471 94.81481481481482,146.45502645502646 94.39153439153439,145.82010582010582 93.96825396825398,145.1851851851852 93.54497354497356,144.55026455026456 93.12169312169313,143.91534391534393 92.69841269841271,143.4920634920635 92.06349206349208,143.0687830687831 91.42857142857143,142.64550264550266 90.7936507936508,142.22222222222223 90.15873015873017,141.7989417989418 89.52380952380953,141.5873015873016 88.8888888888889,141.3756613756614 88.25396825396827,141.16402116402116 87.61904761904762,140.95238095238096 86.98412698412699,140.74074074074076 86.34920634920636,140.74074074074076 85.71428571428572,140.52910052910053 85.07936507936509,140.52910052910053 84.44444444444446,140.52910052910053 83.80952380952381,140.31746031746033 83.17460317460318,140.10582010582013 82.53968253968254,140.10582010582013 81.90476190476191,139.8941798941799 81.26984126984128,139.8941798941799 80.63492063492065,139.8941798941799 80.0,139.6825396825397 79.36507936507937,139.6825396825397 78.73015873015873,139.6825396825397 78.0952380952381,139.6825396825397 77.46031746031747,139.6825396825397 76.82539682539684,139.6825396825397 76.19047619047619,139.6825396825397 75.55555555555556,139.6825396825397 74.92063492063492,139.6825396825397 74.28571428571429,139.6825396825397 73.65079365079366,139.6825396825397 73.01587301587303,139.6825396825397 72.38095238095238,139.8941798941799 71.74603174603175,139.8941798941799 71.11111111111111,139.8941798941799 70.47619047619048,140.10582010582013 69.84126984126985,140.10582010582013 69.20634920634922,140.31746031746033 68.57142857142858,140.52910052910053 67.93650793650794,140.95238095238096 67.3015873015873,141.16402116402116 66.87830687830689,141.5873015873016 66.45502645502646,142.01058201058203 66.03174603174604,142.43386243386246 65.60846560846561,142.85714285714286 65.18518518518519,143.4920634920635 64.76190476190477,143.91534391534393 64.55026455026456,144.55026455026456 64.33862433862434,145.1851851851852 64.12698412698413,145.82010582010582 63.91534391534392,146.45502645502646 63.492063492063494,147.0899470899471 63.492063492063494,147.72486772486775 63.280423280423285,148.35978835978838 63.280423280423285,148.99470899470901 63.06878306878308,149.62962962962965 63.06878306878308,150.26455026455028 62.85714285714286,150.8994708994709 62.85714285714286,151.53439153439155 62.64550264550265,152.16931216931218 62.64550264550265,152.8042328042328 62.64550264550265,153.43915343915344 62.64550264550265,154.07407407407408 62.64550264550265,154.7089947089947 62.64550264550265,155.34391534391534 62.64550264550265,155.978835978836 62.64550264550265,156.61375661375664 62.85714285714286,157.24867724867727 62.85714285714286,157.8835978835979 63.06878306878308,158.51851851851853 63.06878306878308,159.15343915343917 63.280423280423285,159.7883597883598 63.492063492063494,160.42328042328043 63.492063492063494,161.05820105820106 63.70370370370371,161.6931216931217 63.91534391534392,162.32804232804233 63.91534391534392,162.96296296296296 64.12698412698413,163.59788359788362 64.12698412698413,164.23280423280426 64.12698412698413,164.8677248677249 63.91534391534392,165.50264550264552 63.91534391534392,166.13756613756615 63.70370370370371,166.7724867724868 63.492063492063494,167.40740740740742 63.280423280423285,168.04232804232805 63.06878306878308,168.67724867724868 62.64550264550265,169.31216931216932 62.43386243386244,169.94708994708995 62.01058201058201,170.58201058201058 61.58730158730159,171.005291005291 61.16402116402117,171.64021164021165 60.74074074074075,172.06349206349208 60.31746031746032,172.4867724867725 59.8941798941799,172.9100529100529 59.470899470899475,173.33333333333334 58.83597883597884,173.54497354497354 58.41269841269842,173.96825396825398 57.777777777777786,174.1798941798942 57.142857142857146,174.6031746031746 56.50793650793651,174.81481481481484 55.87301587301588,175.02645502645504 55.23809523809524,175.02645502645504 54.60317460317461,175.23809523809524 53.968253968253975,175.23809523809524 53.333333333333336,175.23809523809524 52.6984126984127,175.44973544973547 52.06349206349207,175.44973544973547 51.42857142857143,175.44973544973547 50.7936507936508,175.23809523809524 50.158730158730165,175.44973544973547 49.523809523809526,175.44973544973547 48.88888888888889,175.23809523809524 48.25396825396826,175.02645502645504 47.61904761904762,174.81481481481484 46.98412698412699,174.81481481481484 46.349206349206355,174.3915343915344 45.714285714285715,174.1798941798942 45.07936507936508,174.1798941798942 44.44444444444445,173.96825396825398 43.80952380952381,173.75661375661377 43.17460317460318,173.54497354497354 42.539682539682545,173.33333333333334 41.904761904761905,173.12169312169314 41.26984126984127,172.9100529100529 40.63492063492064,172.6984126984127 40.0,172.4867724867725 39.36507936507937,172.27513227513228 38.730158730158735,172.06349206349208 38.095238095238095,172.06349206349208 37.46031746031746,171.64021164021165 36.82539682539683,171.64021164021165 36.19047619047619,171.42857142857144 35.55555555555556,171.005291005291 34.920634920634924,170.7936507936508 34.28571428571429,170.58201058201058 33.65079365079365,170.37037037037038 33.01587301587302,170.15873015873018 32.38095238095239,170.15873015873018 31.746031746031747,169.73544973544975 31.111111111111114,169.52380952380955 30.476190476190478,169.31216931216932 29.841269841269842,169.10052910052912 29.20634920634921,168.8888888888889 28.571428571428573,168.67724867724868 27.93650793650794,168.46560846560848 27.301587301587304,168.25396825396825 26.666666666666668,168.04232804232805 26.031746031746035,167.83068783068785 25.3968253968254,167.61904761904762 24.761904761904763,167.40740740740742 24.12698412698413,167.19576719576722 23.492063492063494,166.984126984127 22.857142857142858,166.7724867724868 22.222222222222225,166.56084656084658 21.58730158730159,166.34920634920636 20.952380952380953,166.13756613756615 20.31746031746032,165.92592592592595 19.682539682539684,165.71428571428572 19.047619047619047,165.2910052910053 18.412698412698415,165.0793650793651 17.77777777777778,164.8677248677249 17.142857142857146,164.65608465608466 16.50793650793651,164.44444444444446 15.873015873015873,164.23280423280426 15.238095238095239,164.23280423280426 14.603174603174605,164.02116402116403 13.96825396825397,163.80952380952382 13.333333333333334,163.59788359788362 12.6984126984127,163.1746031746032 12.063492063492065,163.1746031746032 8.465608465608467,161.90476190476193" style="fill:none; stroke:#00aa99; stroke-width:1.0"  /><polyline points="8.465608465608467,161.90476190476193 10.15873015873016,158.73015873015873 10.582010582010582,158.0952380952381 11.005291005291006,157.46031746031747 11.216931216931219,156.82539682539684 11.640211640211641,156.1904761904762 11.851851851851853,155.55555555555557 12.275132275132275,155.13227513227514 12.486772486772487,154.4973544973545 12.910052910052912,153.86243386243387 13.121693121693122,153.22751322751324 13.333333333333334,152.5925925925926 13.756613756613758,151.95767195767198 13.96825396825397,151.32275132275134 14.391534391534393,150.6878306878307 14.603174603174605,150.05291005291005 14.814814814814817,149.41798941798942 15.238095238095239,148.78306878306879 15.449735449735451,148.14814814814815 15.661375661375663,147.51322751322752 16.084656084656086,146.8783068783069 16.296296296296298,146.24338624338625 16.71957671957672,145.60846560846562 16.931216931216934,144.973544973545 17.142857142857146,144.33862433862436 17.566137566137566,143.70370370370372 17.77777777777778,143.0687830687831 18.201058201058203,142.43386243386246 18.412698412698415,141.7989417989418 18.412698412698415,141.16402116402116 18.83597883597884,140.52910052910053 19.047619047619047,139.8941798941799 19.25925925925926,139.25925925925927 19.682539682539684,138.62433862433863 19.894179894179896,137.989417989418 20.105820105820108,137.35449735449737 20.529100529100532,136.71957671957674 20.740740740740744,136.0846560846561 21.164021164021165,135.44973544973547 21.375661375661377,134.81481481481484 21.58730158730159,134.17989417989418 22.010582010582013,133.54497354497354 22.222222222222225,132.9100529100529 22.645502645502646,132.27513227513228 22.857142857142858,131.64021164021165 23.06878306878307,131.005291005291 23.492063492063494,130.37037037037038 23.703703703703706,129.73544973544975 23.915343915343918,129.10052910052912 24.338624338624342,128.46560846560848 24.55026455026455,127.83068783068784 24.973544973544975,127.1957671957672 25.185185185185187,126.56084656084657 25.3968253968254,125.92592592592594 25.60846560846561,125.2910052910053 26.031746031746035,124.65608465608466 26.243386243386244,124.02116402116403 26.666666666666668,123.3862433862434 26.87830687830688,122.75132275132276 27.089947089947092,122.11640211640213 27.513227513227516,121.4814814814815 27.724867724867728,120.84656084656086 27.93650793650794,120.21164021164022 28.35978835978836,119.57671957671958 28.571428571428573,118.94179894179895 28.783068783068785,118.30687830687832 29.20634920634921,117.67195767195768 29.41798941798942,117.03703703703705 29.841269841269842,116.4021164021164 30.052910052910054,115.76719576719577 30.264550264550266,115.13227513227514 30.476190476190478,114.49735449735451 30.899470899470902,114.07407407407408 31.111111111111114,113.43915343915344 31.322751322751326,112.80423280423281 31.53439153439154,112.16931216931218 31.95767195767196,111.53439153439155 32.16931216931217,110.89947089947091 32.38095238095239,110.26455026455027 32.804232804232804,109.62962962962963 33.01587301587302,108.994708994709 33.43915343915344,108.35978835978837 33.65079365079365,107.72486772486774 34.074074074074076,107.0899470899471 34.28571428571429,106.45502645502647 34.28571428571429,105.82010582010582 34.70899470899471,105.3968253968254 34.920634920634924,104.76190476190477 35.13227513227513,104.12698412698414 35.34391534391535,103.4920634920635 35.55555555555556,102.85714285714286 35.76719576719577,102.22222222222223 35.97883597883598,101.5873015873016 35.97883597883598,100.95238095238096 36.19047619047619,100.31746031746033 36.19047619047619,99.68253968253968 36.19047619047619,99.04761904761905 35.97883597883598,98.41269841269842 35.76719576719577,97.77777777777779 35.55555555555556,97.14285714285715 35.13227513227513,96.50793650793652 34.70899470899471,96.08465608465609 34.28571428571429,95.44973544973546 33.86243386243387,95.02645502645504 33.43915343915344,94.60317460317461 32.804232804232804,94.17989417989419 32.16931216931217,93.96825396825398 31.53439153439154,93.54497354497356 30.899470899470902,93.33333333333334 30.264550264550266,93.12169312169313 29.629629629629633,92.91005291005291 28.994708994708997,92.69841269841271 28.35978835978836,92.69841269841271 27.724867724867728,92.69841269841271 27.089947089947092,92.69841269841271 26.455026455026456,92.69841269841271 25.820105820105823,92.69841269841271 25.185185185185187,92.69841269841271 24.55026455026455,92.69841269841271 23.915343915343918,92.91005291005291 23.280423280423282,92.91005291005291 22.645502645502646,93.12169312169313 22.010582010582013,93.12169312169313 21.375661375661377,93.12169312169313 20.740740740740744,93.33333333333334 20.105820105820108,93.54497354497356 19.47089947089947,93.54497354497356 18.83597883597884,93.75661375661376 18.201058201058203,93.75661375661376 17.566137566137566,93.96825396825398 16.931216931216934,93.96825396825398 16.296296296296298,93.96825396825398 15.661375661375663,93.96825396825398 15.026455026455027,94.17989417989419 14.391534391534393,94.17989417989419 13.756613756613758,94.17989417989419 13.121693121693122,93.96825396825398 12.486772486772487,93.75661375661376 11.851851851851853,93.75661375661376 11.216931216931219,93.54497354497356 10.582010582010582,93.33333333333334 9.947089947089948,93.12169312169313 9.312169312169313,92.91005291005291 8.677248677248677,92.4867724867725 8.042328042328043,92.27513227513228 7.6190476190476195,91.85185185185186 6.984126984126985,91.64021164021165 6.560846560846561,91.21693121693123 5.9259259259259265,90.7936507936508 5.291005291005291,90.37037037037038 4.867724867724868,89.94708994708995 4.2328042328042335,89.52380952380953 3.8095238095238098,89.1005291005291 3.3862433862433865,88.46560846560847 2.9629629629629632,88.04232804232805 2.53968253968254,87.61904761904762 2.1164021164021167,86.98412698412699 1.6931216931216932,86.34920634920636 1.4814814814814816,85.71428571428572 1.0582010582010584,85.07936507936509 0.8465608465608466,84.44444444444446 0.634920634920635,83.80952380952381 0.4232804232804233,83.17460317460318 0.4232804232804233,82.53968253968254 0.21164021164021166,81.90476190476191 0.21164021164021166,81.26984126984128 0.21164021164021166,80.63492063492065 0.21164021164021166,80.0 0.21164021164021166,79.36507936507937 0.21164021164021166,78.73015873015873 0.21164021164021166,78.0952380952381 0.4232804232804233,77.46031746031747 0.4232804232804233,76.82539682539684 0.634920634920635,76.19047619047619 0.8465608465608466,75.55555555555556 1.0582010582010584,74.92063492063492 1.26984126984127,74.28571428571429 1.6931216931216932,73.65079365079366 1.6931216931216932,73.01587301587303 2.1164021164021167,72.38095238095238 2.3280423280423284,71.74603174603175 2.53968253968254,71.11111111111111 2.7513227513227516,70.47619047619048 3.174603174603175,70.05291005291006 3.3862433862433865,69.41798941798942 3.8095238095238098,68.994708994709 4.021164021164021,68.35978835978837 4.444444444444445,67.93650793650794 4.867724867724868,67.3015873015873 5.291005291005291,66.66666666666667 5.714285714285714,66.24338624338625 6.137566137566138,65.60846560846561 6.560846560846561,65.18518518518519 6.984126984126985,64.55026455026456 7.407407407407408,64.12698412698413 7.830687830687832,63.70370370370371 8.253968253968255,63.280423280423285 8.677248677248677,62.85714285714286 9.100529100529101,62.43386243386244 9.523809523809524,62.01058201058201 9.947089947089948,61.58730158730159 10.370370370370372,61.16402116402117 10.793650793650794,60.74074074074075 11.216931216931219,60.31746031746032 11.851851851851853,59.8941798941799 12.486772486772487,59.470899470899475 13.121693121693122,59.04761904761905 13.756613756613758,58.62433862433863 14.391534391534393,58.41269841269842 14.814814814814817,57.777777777777786 15.449735449735451,57.35449735449736 16.084656084656086,57.35449735449736 16.71957671957672,57.142857142857146 17.142857142857146,57.56613756613757 17.77777777777778,56.93121693121694 18.412698412698415,56.93121693121694 18.412698412698415,57.56613756613757 19.047619047619047,57.777777777777786 19.682539682539684,57.777777777777786 20.105820105820108,58.2010582010582 20.740740740740744,58.41269841269842 21.375661375661377,58.62433862433863 22.010582010582013,59.04761904761905 22.433862433862437,59.470899470899475 23.06878306878307,59.8941798941799 23.703703703703706,60.31746031746032 24.338624338624342,60.74074074074075 24.761904761904763,61.16402116402117 25.185185185185187,61.58730158730159 25.60846560846561,62.01058201058201 26.031746031746035,62.43386243386244 26.455026455026456,62.85714285714286 26.87830687830688,63.280423280423285 27.301587301587304,63.91534391534392 27.724867724867728,64.33862433862434 28.14814814814815,64.76190476190477 28.571428571428573,65.3968253968254 28.994708994708997,65.82010582010582 29.41798941798942,66.24338624338625 29.841269841269842,66.87830687830689 30.264550264550266,67.3015873015873 30.476190476190478,67.93650793650794 30.899470899470902,68.35978835978837 31.322751322751326,68.994708994709 31.746031746031747,69.41798941798942 32.16931216931217,70.05291005291006 32.592592592592595,70.47619047619048 33.01587301587302,70.8994708994709 33.43915343915344,71.32275132275133 34.074074074074076,71.74603174603175 34.4973544973545,72.16931216931218 35.13227513227513,72.5925925925926 35.55555555555556,73.01587301587303 36.19047619047619,73.22751322751323 36.82539682539683,73.65079365079366 37.248677248677254,74.07407407407408 37.883597883597886,74.28571428571429 38.51851851851852,74.49735449735451 38.94179894179894,74.92063492063492 39.57671957671958,75.13227513227514 40.211640211640216,75.13227513227514 40.84656084656085,75.13227513227514 41.48148148148149,75.34391534391536 42.11640211640212,75.34391534391536 42.75132275132275,75.34391534391536 43.386243386243386,75.13227513227514 44.021164021164026,74.92063492063492 44.65608465608466,74.49735449735451 45.29100529100529,74.07407407407408 45.92592592592593,73.65079365079366 46.349206349206355,73.22751322751323 46.77248677248678,72.80423280423281 47.195767195767196,72.38095238095238 47.61904761904762,71.95767195767196 48.042328042328045,71.32275132275133 48.25396825396826,70.6878306878307 48.677248677248684,70.05291005291006 48.88888888888889,69.41798941798942 49.31216931216932,68.78306878306879 49.523809523809526,68.14814814814815 49.73544973544974,67.51322751322752 49.94708994708995,66.87830687830689 50.158730158730165,66.24338624338625 50.370370370370374,65.60846560846561 50.370370370370374,64.97354497354497 50.58201058201058,64.33862433862434 50.7936507936508,63.70370370370371 50.7936507936508,63.06878306878308 51.00529100529101,62.43386243386244 51.21693121693122,61.798941798941804 51.42857142857143,61.16402116402117 51.640211640211646,60.52910052910053 51.640211640211646,59.8941798941799 51.851851851851855,59.25925925925927 52.06349206349207,58.62433862433863 52.27513227513228,57.989417989417994 52.27513227513228,57.35449735449736 52.48677248677249,56.71957671957672 52.6984126984127,56.08465608465609 52.91005291005291,55.449735449735456 52.91005291005291,54.81481481481482 53.12169312169313,54.179894179894184 53.333333333333336,53.54497354497355 53.333333333333336,52.91005291005291 53.54497354497355,52.27513227513228 53.54497354497355,51.640211640211646 53.75661375661376,51.00529100529101 53.968253968253975,50.370370370370374 53.968253968253975,49.73544973544974 54.179894179894184,49.1005291005291 54.39153439153439,48.46560846560847 54.39153439153439,47.830687830687836 54.60317460317461,47.195767195767196 54.60317460317461,46.560846560846564 54.81481481481482,45.92592592592593 55.02645502645503,45.29100529100529 55.02645502645503,44.65608465608466 55.02645502645503,44.021164021164026 55.23809523809524,43.386243386243386 55.23809523809524,42.75132275132275 55.449735449735456,42.11640211640212 55.449735449735456,41.48148148148149 55.449735449735456,40.84656084656085 55.449735449735456,40.211640211640216 55.661375661375665,39.57671957671958 55.661375661375665,38.94179894179894 55.661375661375665,38.30687830687831 55.87301587301588,37.67195767195768 55.87301587301588,37.03703703703704 55.87301587301588,36.402116402116405 55.661375661375665,35.76719576719577 55.661375661375665,35.13227513227513 55.661375661375665,34.4973544973545 55.87301587301588,33.86243386243387 55.87301587301588,33.22751322751323 55.87301587301588,32.592592592592595 55.87301587301588,31.95767195767196 55.87301587301588,31.322751322751326 55.87301587301588,30.68783068783069 55.87301587301588,30.052910052910054 55.87301587301588,29.41798941798942 55.87301587301588,28.783068783068785 55.87301587301588,28.14814814814815 55.87301587301588,27.513227513227516 56.08465608465609,26.87830687830688 56.08465608465609,26.243386243386244 56.08465608465609,25.60846560846561 56.08465608465609,24.973544973544975 56.08465608465609,24.338624338624342 56.08465608465609,23.703703703703706 56.08465608465609,23.06878306878307 56.08465608465609,22.433862433862437 56.08465608465609,21.7989417989418 56.08465608465609,21.164021164021165 56.08465608465609,20.529100529100532 55.87301587301588,19.894179894179896 55.87301587301588,19.25925925925926 55.87301587301588,18.624338624338627 55.87301587301588,17.98941798941799 55.87301587301588,17.354497354497354 55.87301587301588,16.71957671957672 55.87301587301588,16.084656084656086 55.87301587301588,15.449735449735451 55.87301587301588,14.814814814814817 55.87301587301588,14.17989417989418 55.87301587301588,13.544973544973546 55.661375661375665,12.910052910052912 55.87301587301588,12.275132275132275 55.87301587301588,11.640211640211641 55.87301587301588,11.005291005291006 55.87301587301588,10.370370370370372 55.87301587301588,9.735449735449736 55.87301587301588,9.100529100529101 55.87301587301588,8.465608465608467 55.87301587301588,7.830687830687832 55.87301587301588,7.195767195767196 55.87301587301588,6.560846560846561 55.87301587301588,5.9259259259259265 55.87301587301588,5.291005291005291 55.87301587301588,4.656084656084657 56.08465608465609,4.021164021164021 56.08465608465609,3.3862433862433865 56.08465608465609,0.0" style="fill:none; stroke:#3300bb; stroke-width:1.0"  /><circle cx="56.08465608465609" cy="0.0" r="2.0" style="fill:none; stroke:#000000aa; stroke-width:0.25" /><circle cx="175.02645502645504" cy="49.31216931216932" r="2.0" style="fill:none; stroke:#000000aa; stroke-width:0.25" /><circle cx="104.33862433862434" cy="189.84126984126985" r="2.0" style="fill:none; stroke:#000000aa; stroke-width:0.25" /><circle cx="8.465608465608467" cy="161.90476190476193" r="2.0" style="fill:none; stroke:#000000aa; stroke-width:0.25" /><circle cx="56.93121693121694" cy="0.21164021164021166" r="2.0" style="fill:none; stroke:#ff3366aa; stroke-width:0.25" /><circle cx="174.81481481481484" cy="49.523809523809526" r="2.0" style="fill:none; stroke:#ff3366aa; stroke-width:0.25" /><circle cx="103.91534391534393" cy="189.84126984126985" r="2.0" style="fill:none; stroke:#ff3366aa; stroke-width:0.25" /><circle cx="9.100529100529101" cy="161.90476190476193" r="2.0" style="fill:none; stroke:#ff3366aa; stroke-width:0.25" /><polyline points="68.35978835978837,3.8095238095238098 67.72486772486774,3.597883597883598 67.08994708994709,3.597883597883598 66.45502645502646,3.3862433862433865 65.82010582010582,3.174603174603175 65.18518518518519,2.9629629629629632 64.55026455026456,2.7513227513227516 63.91534391534392,2.53968253968254 63.280423280423285,2.3280423280423284 62.64550264550265,1.9047619047619049 62.01058201058201,1.6931216931216932 61.37566137566138,1.4814814814814816 60.74074074074075,1.26984126984127 60.10582010582011,1.26984126984127" style="fill:none; stroke:#001100; stroke-width:1.0" /><polyline points="55.87301587301588,11.640211640211641 55.87301587301588,11.005291005291006 55.87301587301588,10.370370370370372 55.87301587301588,9.735449735449736 55.87301587301588,9.100529100529101 55.87301587301588,8.465608465608467 55.87301587301588,7.830687830687832 55.87301587301588,7.195767195767196 55.87301587301588,6.560846560846561 55.87301587301588,5.9259259259259265 55.87301587301588,5.291005291005291 55.87301587301588,4.656084656084657 56.08465608465609,4.021164021164021 56.08465608465609,3.3862433862433865" style="fill:none; stroke:#000011; stroke-width:1.0" /><polyline points="170.58201058201058,60.31746031746032 171.005291005291,59.682539682539684 171.005291005291,59.04761904761905 171.42857142857144,58.41269841269842 171.64021164021165,57.777777777777786 171.85185185185188,57.142857142857146 172.06349206349208,56.50793650793651 172.4867724867725,55.87301587301588 172.6984126984127,55.23809523809524 172.9100529100529,54.60317460317461 173.12169312169314,53.968253968253975 173.54497354497354,53.333333333333336 173.75661375661377,52.6984126984127" style="fill:none; stroke:#001100; stroke-width:1.0" /><polyline points="164.8677248677249,43.80952380952381 165.50264550264552,44.021164021164026 166.13756613756615,44.44444444444445 166.7724867724868,44.867724867724874 167.40740740740742,45.07936507936508 168.04232804232805,45.50264550264551 168.67724867724868,45.92592592592593 169.31216931216932,46.13756613756614 169.94708994708995,46.560846560846564 170.58201058201058,46.98412698412699 171.21693121693124,47.195767195767196 171.85185185185188,47.61904761904762" style="fill:none; stroke:#000011; stroke-width:1.0" /><polyline points="93.12169312169313,185.39682539682542 93.75661375661376,185.60846560846562 94.39153439153439,185.60846560846562 95.02645502645504,185.82010582010582 95.66137566137567,186.24338624338625 96.2962962962963,186.45502645502646 96.93121693121694,186.66666666666669 97.56613756613757,186.8783068783069 98.2010582010582,187.30158730158732 98.83597883597885,187.51322751322752 99.47089947089948,187.72486772486775 100.10582010582011,188.14814814814815 100.74074074074075,188.35978835978838" style="fill:none; stroke:#001100; stroke-width:1.0" /><polyline points="110.05291005291006,180.10582010582013 109.62962962962963,180.74074074074076 109.20634920634922,181.3756613756614 108.78306878306879,182.01058201058203 108.57142857142858,182.64550264550266 108.14814814814815,183.0687830687831 107.72486772486774,183.70370370370372 107.51322751322752,184.33862433862436 107.0899470899471,184.973544973545 106.87830687830689,185.60846560846562 106.45502645502647,186.24338624338625 106.03174603174604,186.8783068783069" style="fill:none; stroke:#000011; stroke-width:1.0" /><polyline points="13.96825396825397,151.32275132275134 13.756613756613758,151.95767195767198 13.333333333333334,152.5925925925926 13.121693121693122,153.22751322751324 12.910052910052912,153.86243386243387 12.486772486772487,154.4973544973545 12.275132275132275,155.13227513227514 11.851851851851853,155.55555555555557 11.640211640211641,156.1904761904762 11.216931216931219,156.82539682539684 11.005291005291006,157.46031746031747 10.582010582010582,158.0952380952381 10.15873015873016,158.73015873015873" style="fill:none; stroke:#001100; stroke-width:1.0" /><polyline points="20.31746031746032,165.92592592592595 19.682539682539684,165.71428571428572 19.047619047619047,165.2910052910053 18.412698412698415,165.0793650793651 17.77777777777778,164.8677248677249 17.142857142857146,164.65608465608466 16.50793650793651,164.44444444444446 15.873015873015873,164.23280423280426 15.238095238095239,164.23280423280426 14.603174603174605,164.02116402116403 13.96825396825397,163.80952380952382 13.333333333333334,163.59788359788362 12.6984126984127,163.1746031746032 12.063492063492065,163.1746031746032" style="fill:none; stroke:#000011; stroke-width:1.0" /><polyline points="60.10582010582011,1.26984126984127 39.78835978835979,-4.867724867724868" style="fill:none; stroke:#ffaa00; stroke-width:0.4" /><polyline points="56.08465608465609,3.3862433862433865 56.71957671957672,-17.77777777777778" style="fill:none; stroke:#aaff00; stroke-width:0.4" /><polyline points="173.75661375661377,52.6984126984127 181.79894179894183,33.22751322751323" style="fill:none; stroke:#ffaa00; stroke-width:0.4" /><polyline points="171.85185185185188,47.61904761904762 190.47619047619048,57.777777777777786" style="fill:none; stroke:#aaff00; stroke-width:0.4" /><polyline points="100.74074074074075,188.35978835978838 120.42328042328043,195.978835978836" style="fill:none; stroke:#ffaa00; stroke-width:0.4" /><polyline points="106.03174603174604,186.8783068783069 95.23809523809524,205.0793650793651" style="fill:none; stroke:#aaff00; stroke-width:0.4" /><polyline points="10.15873015873016,158.73015873015873 0.4232804232804233,177.56613756613757" style="fill:none; stroke:#ffaa00; stroke-width:0.4" /><polyline points="12.063492063492065,163.1746031746032 -8.042328042328043,156.4021164021164" style="fill:none; stroke:#aaff00; stroke-width:0.4" /><circle cx="82.75132275132276" cy="94.39153439153439" r="1.0" style="fill:#444444; stroke-width:0" /><circle cx="76.19047619047619" cy="99.8941798941799" r="10.582010582010582" style="fill:#ff770022; stroke-width:0" /><circle cx="76.19047619047619" cy="99.8941798941799" r="1.0" style="fill:#ff7700; stroke-width:0" /></svg>