<?xml version="1.0" encoding="UTF-8" standalone="no"?><svg width="537.1428571428572" height="474.28571428571433" viewBox="-10 -10 199.04761904761907 178.0952380952381" xmlns="http://www.w3.org/2000/svg" xmlns:xlink="http://www.w3.org/1999/xlink"><polyline points="0.4232804232804233,6.137566137566138 3.597883597883598,5.502645502645503 4.2328042328042335,5.291005291005291 4.867724867724868,5.07936507936508 5.502645502645503,5.07936507936508 6.137566137566138,4.867724867724868 6.772486772486773,4.867724867724868 7.407407407407408,4.656084656084657 8.042328042328043,4.444444444444445 8.677248677248677,4.444444444444445 9.312169312169313,4.444444444444445 9.947089947089948,4.444444444444445 10.582010582010582,4.2328042328042335 11.216931216931219,4.021164021164021 11.851851851851853,3.8095238095238098 12.486772486772487,3.8095238095238098 13.121693121693122,3.8095238095238098 13.756613756613758,3.597883597883598 14.391534391534393,3.597883597883598 15.026455026455027,3.3862433862433865 15.661375661375663,3.3862433862433865 16.296296296296298,3.174603174603175 16.931216931216934,3.174603174603175 17.566137566137566,3.174603174603175 18.201058201058203,2.9629629629629632 18.83597883597884,2.9629629629629632 19.47089947089947,3.174603174603175 19.894179894179896,2.7513227513227516 20.529100529100532,2.9629629629629632 21.164021164021165,2.7513227513227516 21.7989417989418,2.7513227513227516 22.433862433862437,2.53968253968254 23.06878306878307,2.53968253968254 23.703703703703706,2.53968253968254 24.338624338624342,2.3280423280423284 24.973544973544975,2.3280423280423284 25.60846560846561,2.3280423280423284 26.243386243386244,2.3280423280423284 26.87830687830688,2.3280423280423284 27.513227513227516,2.1164021164021167 28.14814814814815,2.1164021164021167 28.783068783068785,2.1164021164021167 29.41798941798942,2.1164021164021167 30.052910052910054,1.9047619047619049 30.68783068783069,1.9047619047619049 31.322751322751326,1.9047619047619049 31.95767195767196,2.1164021164021167 32.592592592592595,2.1164021164021167 33.22751322751323,1.9047619047619049 33.86243386243387,1.9047619047619049 34.28571428571429,2.3280423280423284 34.920634920634924,2.1164021164021167 35.34391534391535,2.53968253968254 35.97883597883598,2.7513227513227516 36.613756613756614,2.9629629629629632 37.248677248677254,3.3862433862433865 37.883597883597886,3.597883597883598 38.30687830687831,4.021164021164021 38.730158730158735,4.444444444444445 39.15343915343916,4.867724867724868 39.57671957671958,5.291005291005291 39.78835978835979,5.9259259259259265 40.0,6.560846560846561 40.211640211640216,7.195767195767196 40.423280423280424,7.830687830687832 40.423280423280424,8.465608465608467 40.423280423280424,9.100529100529101 40.423280423280424,9.735449735449736 40.423280423280424,10.370370370370372 40.423280423280424,11.005291005291006 40.211640211640216,11.640211640211641 40.211640211640216,12.275132275132275 40.0,12.910052910052912 40.0,13.544973544973546 40.0,14.17989417989418 39.78835978835979,14.814814814814817 39.78835978835979,15.449735449735451 39.57671957671958,16.084656084656086 39.36507936507937,16.71957671957672 39.15343915343916,17.354497354497354 38.94179894179894,17.98941798941799 38.730158730158735,18.624338624338627 38.730158730158735,19.25925925925926 38.30687830687831,19.894179894179896 38.095238095238095,20.529100529100532 38.095238095238095,21.164021164021165 37.883597883597886,21.7989417989418 37.883597883597886,22.433862433862437 37.883597883597886,23.06878306878307 37.67195767195768,23.703703703703706 37.67195767195768,24.338624338624342 37.46031746031746,24.973544973544975 37.46031746031746,25.60846560846561 37.46031746031746,26.243386243386244 37.46031746031746,26.87830687830688 37.46031746031746,27.513227513227516 37.67195767195768,28.14814814814815 37.67195767195768,28.783068783068785 37.67195767195768,29.41798941798942 37.67195767195768,30.052910052910054 37.883597883597886,30.68783068783069 37.883597883597886,31.322751322751326 38.095238095238095,31.95767195767196 38.30687830687831,32.592592592592595 38.30687830687831,33.22751322751323 38.51851851851852,33.86243386243387 38.730158730158735,34.4973544973545 38.94179894179894,35.13227513227513 39.15343915343916,35.76719576719577 39.36507936507937,36.402116402116405 39.78835978835979,37.03703703703704 40.211640211640216,37.67195767195768 40.423280423280424,38.30687830687831 40.84656084656085,38.730158730158735 41.26984126984127,39.15343915343916 41.6931216931217,39.57671957671958 42.11640211640212,40.0 42.539682539682545,40.423280423280424 43.17460317460318,40.84656084656085 43.80952380952381,41.058201058201064 44.44444444444445,41.48148148148149 45.07936507936508,41.6931216931217 45.714285714285715,41.904761904761905 46.349206349206355,42.32804232804233 46.98412698412699,42.539682539682545 47.61904761904762,42.539682539682545 48.25396825396826,42.75132275132275 48.88888888888889,42.75132275132275 49.523809523809526,42.75132275132275 50.158730158730165,42.75132275132275 50.7936507936508,42.75132275132275 51.42857142857143,42.75132275132275 52.06349206349207,42.75132275132275 52.6984126984127,42.75132275132275 53.333333333333336,42.75132275132275 53.968253968253975,42.75132275132275 54.60317460317461,42.539682539682545 55.23809523809524,42.539682539682545 55.87301587301588,42.32804232804233 56.50793650793651,42.11640211640212 57.142857142857146,42.11640211640212 57.777777777777786,42.11640211640212 58.41269841269842,41.6931216931217 59.04761904761905,41.6931216931217 59.682539682539684,41.48148148148149 60.31746031746032,41.48148148148149 60.74074074074075,41.058201058201064 61.37566137566138,40.84656084656085 62.01058201058201,40.84656084656085 62.64550264550265,40.423280423280424 63.280423280423285,40.423280423280424 63.91534391534392,40.211640211640216 64.55026455026456,39.78835978835979 65.18518518518519,39.57671957671958 65.82010582010582,39.36507936507937 66.45502645502646,38.94179894179894 67.08994708994709,38.730158730158735 67.72486772486774,38.51851851851852 68.35978835978837,38.095238095238095 68.78306878306879,37.67195767195768 69.41798941798942,37.248677248677254 70.05291005291006,37.03703703703704 70.6878306878307,36.613756613756614 71.11111111111111,36.19047619047619 71.74603174603175,35.76719576719577 72.16931216931218,35.34391534391535 72.5925925925926,34.70899470899471 73.01587301587303,34.074074074074076 73.43915343915344,33.43915343915344 73.65079365079366,32.804232804232804 73.86243386243387,32.16931216931217 73.86243386243387,31.53439153439154 74.07407407407408,30.899470899470902 74.07407407407408,30.264550264550266 74.07407407407408,29.629629629629633 74.07407407407408,28.994708994708997 74.07407407407408,28.35978835978836 73.86243386243387,27.724867724867728 73.86243386243387,27.089947089947092 73.86243386243387,26.455026455026456 73.65079365079366,25.820105820105823 73.65079365079366,25.185185185185187 73.43915343915344,24.55026455026455 73.43915343915344,23.915343915343918 73.22751322751323,23.280423280423282 73.01587301587303,22.645502645502646 72.80423280423281,22.010582010582013 72.5925925925926,21.375661375661377 72.16931216931218,20.740740740740744 72.16931216931218,20.105820105820108 71.74603174603175,19.47089947089947 71.53439153439155,18.83597883597884 71.32275132275133,18.201058201058203 71.11111111111111,17.566137566137566 70.8994708994709,16.931216931216934 70.47619047619048,16.296296296296298 70.26455026455027,15.661375661375663 70.05291005291006,15.026455026455027 69.84126984126985,14.391534391534393 69.62962962962963,13.756613756613758 69.41798941798942,13.121693121693122 69.20634920634922,12.486772486772487 68.994708994709,11.851851851851853 68.78306878306879,11.216931216931219 68.57142857142858,10.582010582010582 68.14814814814815,9.947089947089948 68.14814814814815,9.312169312169313 67.93650793650794,8.677248677248677 67.93650793650794,8.042328042328043 67.72486772486774,7.407407407407408 67.72486772486774,6.772486772486773 67.72486772486774,6.137566137566138 67.93650793650794,5.502645502645503 67.93650793650794,4.867724867724868 68.14814814814815,4.2328042328042335 68.35978835978837,3.597883597883598 68.57142857142858,2.9629629629629632 68.994708994709,2.53968253968254 69.41798941798942,1.9047619047619049 70.05291005291006,1.4814814814814816 70.6878306878307,1.0582010582010584 71.32275132275133,0.8465608465608466 71.74603174603175,0.4232804232804233 72.38095238095238,0.4232804232804233 73.01587301587303,0.21164021164021166 73.65079365079366,0.21164021164021166 74.28571428571429,0.4232804232804233 74.92063492063492,0.4232804232804233 75.34391534391536,0.8465608465608466 75.97883597883599,0.8465608465608466 76.61375661375662,1.0582010582010584 77.24867724867725,1.26984126984127 77.88359788359789,1.4814814814814816 78.51851851851852,1.6931216931216932 79.15343915343917,1.9047619047619049 79.7883597883598,2.1164021164021167 80.42328042328043,2.3280423280423284 81.05820105820106,2.53968253968254 81.6931216931217,2.7513227513227516 82.32804232804233,2.9629629629629632 82.96296296296298,3.3862433862433865 83.59788359788361,3.3862433862433865 84.02116402116403,3.8095238095238098 84.65608465608466,3.8095238095238098 85.29100529100529,4.021164021164021 85.92592592592594,4.2328042328042335 86.56084656084657,4.444444444444445 87.1957671957672,4.656084656084657 87.83068783068784,5.07936507936508 88.46560846560847,5.291005291005291 89.1005291005291,5.502645502645503 89.73544973544975,5.502645502645503 90.37037037037038,5.9259259259259265 91.00529100529101,5.9259259259259265 91.64021164021165,6.34920634920635 92.27513227513228,6.560846560846561 92.91005291005291,6.772486772486773 93.54497354497356,6.772486772486773 94.17989417989419,6.984126984126985 94.81481481481482,7.195767195767196 95.44973544973546,7.6190476190476195 96.08465608465609,7.6190476190476195 96.71957671957672,8.042328042328043 97.35449735449737,8.253968253968255 97.989417989418,8.465608465608467 98.62433862433863,8.465608465608467 99.25925925925927,8.677248677248677 99.8941798941799,9.100529100529101 100.52910052910053,9.312169312169313 101.16402116402116,9.523809523809524 101.79894179894181,9.735449735449736 102.43386243386244,9.947089947089948 103.06878306878308,10.15873015873016 103.70370370370371,9.947089947089948 104.33862433862434,10.15873015873016 104.97354497354497,10.370370370370372 105.60846560846562,10.582010582010582 106.24338624338625,10.793650793650794 106.87830687830689,11.005291005291006 107.51322751322752,11.216931216931219 108.14814814814815,11.428571428571429 108.78306878306879,11.640211640211641 109.41798941798943,11.640211640211641 110.05291005291006,11.851851851851853 110.6878306878307,12.063492063492065 111.32275132275133,12.275132275132275 111.95767195767196,12.486772486772487 112.5925925925926,12.6984126984127 113.22751322751324,12.910052910052912 113.86243386243387,13.121693121693122 114.49735449735451,13.333333333333334 115.13227513227514,13.333333333333334 115.76719576719577,13.756613756613758 116.4021164021164,13.756613756613758 117.03703703703705,13.96825396825397 117.67195767195768,14.17989417989418 118.30687830687832,14.391534391534393 118.94179894179895,14.603174603174605 119.57671957671958,14.603174603174605 120.21164021164022,14.814814814814817 120.84656084656086,15.026455026455027 121.4814814814815,15.238095238095239 122.11640211640213,15.449735449735451 122.75132275132276,15.449735449735451 123.3862433862434,15.661375661375663 124.02116402116403,15.873015873015873 124.65608465608466,16.084656084656086 125.2910052910053,16.084656084656086 125.92592592592594,16.296296296296298 126.56084656084657,16.296296296296298 126.98412698412699,16.71957671957672 127.61904761904763,16.71957671957672 128.25396825396825,16.931216931216934 128.88888888888889,17.142857142857146 129.52380952380955,17.142857142857146 130.15873015873018,17.354497354497354 130.7936507936508,17.566137566137566 131.42857142857144,17.566137566137566 132.06349206349208,17.77777777777778 132.6984126984127,18.201058201058203 133.33333333333334,18.201058201058203 133.96825396825398,18.412698412698415 134.6031746031746,18.412698412698415 135.23809523809524,18.412698412698415 135.87301587301587,18.624338624338627 136.5079365079365,18.624338624338627 137.14285714285717,18.83597883597884 137.7777777777778,18.83597883597884 138.41269841269843,18.83597883597884 141.3756613756614,19.47089947089947" style="fill:none; stroke:#cc0000; stroke-width:1.0"  /><polyline points="141.3756613756614,19.47089947089947 141.5873015873016,22.857142857142858 141.5873015873016,23.492063492063494 141.5873015873016,24.12698412698413 141.5873015873016,24.761904761904763 141.5873015873016,25.3968253968254 141.7989417989418,26.031746031746035 141.7989417989418,26.666666666666668 141.7989417989418,27.301587301587304 142.01058201058203,27.93650793650794 142.01058201058203,28.571428571428573 142.01058201058203,29.20634920634921 142.01058201058203,29.841269841269842 142.01058201058203,30.476190476190478 142.01058201058203,31.111111111111114 142.01058201058203,31.746031746031747 142.01058201058203,32.38095238095239 142.01058201058203,33.01587301587302 142.01058201058203,33.65079365079365 142.22222222222223,34.28571428571429 142.22222222222223,34.920634920634924 142.22222222222223,35.55555555555556 142.22222222222223,36.19047619047619 142.22222222222223,36.82539682539683 142.22222222222223,37.46031746031746 142.22222222222223,38.095238095238095 142.22222222222223,38.730158730158735 142.43386243386246,39.36507936507937 142.43386243386246,40.0 142.43386243386246,40.63492063492064 142.43386243386246,41.26984126984127 142.43386243386246,41.904761904761905 142.43386243386246,42.539682539682545 142.43386243386246,43.17460317460318 142.43386243386246,43.80952380952381 142.43386243386246,44.44444444444445 142.43386243386246,45.07936507936508 142.43386243386246,45.714285714285715 142.43386243386246,46.349206349206355 142.64550264550266,46.98412698412699 142.64550264550266,47.61904761904762 142.64550264550266,48.25396825396826 142.85714285714286,48.88888888888889 143.0687830687831,49.523809523809526 143.2804232804233,50.158730158730165 143.70370370370372,50.7936507936508 144.12698412698413,51.42857142857143 144.55026455026456,52.06349206349207 144.973544973545,52.48677248677249 145.60846560846562,52.91005291005291 146.24338624338625,53.12169312169313 146.66666666666669,53.54497354497355 147.30158730158732,53.54497354497355 147.93650793650795,53.75661375661376 148.57142857142858,53.968253968253975 149.20634920634922,54.179894179894184 149.84126984126985,54.179894179894184 150.47619047619048,53.968253968253975 151.11111111111111,53.968253968253975 151.74603174603175,53.968253968253975 152.38095238095238,53.968253968253975 153.01587301587304,53.75661375661376 153.65079365079367,53.75661375661376 154.2857142857143,53.54497354497355 154.92063492063494,53.12169312169313 155.55555555555557,53.12169312169313 156.1904761904762,52.91005291005291 156.82539682539684,52.48677248677249 157.46031746031747,52.27513227513228 158.0952380952381,52.06349206349207 158.73015873015873,51.640211640211646 159.36507936507937,51.640211640211646 160.0,51.21693121693122 160.63492063492066,51.00529100529101 161.2698412698413,50.7936507936508 161.90476190476193,50.58201058201058 162.53968253968256,50.370370370370374 163.1746031746032,50.158730158730165 163.80952380952382,50.158730158730165 164.44444444444446,49.94708994708995 165.0793650793651,49.94708994708995 165.71428571428572,49.73544973544974 166.34920634920636,49.73544973544974 166.984126984127,49.523809523809526 167.61904761904762,49.523809523809526 168.25396825396825,49.523809523809526 168.8888888888889,49.523809523809526 169.52380952380955,49.73544973544974 170.15873015873018,49.94708994708995 170.7936507936508,50.158730158730165 171.42857142857144,50.370370370370374 172.06349206349208,50.58201058201058 172.6984126984127,51.00529100529101 173.33333333333334,51.21693121693122 173.75661375661377,51.640211640211646 174.1798941798942,52.06349206349207 174.6031746031746,52.48677248677249 175.02645502645504,53.12169312169313 175.44973544973547,53.75661375661376 175.66137566137567,54.39153439153439 176.0846560846561,55.02645502645503 176.2962962962963,55.661375661375665 176.71957671957674,56.2962962962963 176.93121693121694,56.93121693121694 177.14285714285717,57.56613756613757 177.35449735449737,58.2010582010582 177.56613756613757,58.83597883597884 177.56613756613757,59.470899470899475 177.7777777777778,60.10582010582011 177.989417989418,60.74074074074075 177.989417989418,61.37566137566138 178.2010582010582,62.01058201058201 178.41269841269843,62.64550264550265 178.41269841269843,63.280423280423285 178.41269841269843,63.91534391534392 178.62433862433863,64.55026455026456 178.62433862433863,65.18518518518519 178.62433862433863,65.82010582010582 178.62433862433863,66.45502645502646 178.41269841269843,67.08994708994709 178.41269841269843,67.72486772486774 178.41269841269843,68.35978835978837 178.41269841269843,68.994708994709 178.2010582010582,69.62962962962963 178.2010582010582,70.26455026455027 177.989417989418,70.8994708994709 177.7777777777778,71.53439153439155 177.56613756613757,72.16931216931218 177.56613756613757,72.80423280423281 177.35449735449737,73.43915343915344 177.14285714285717,74.07407407407408 176.93121693121694,74.70899470899471 176.71957671957674,75.34391534391536 176.2962962962963,75.97883597883599 176.0846560846561,76.61375661375662 175.66137566137567,77.24867724867725 175.23809523809524,77.88359788359789 174.81481481481484,78.51851851851852 174.3915343915344,78.94179894179895 173.96825396825398,79.36507936507937 173.33333333333334,79.7883597883598 172.9100529100529,80.21164021164022 172.4867724867725,80.63492063492065 171.85185185185188,80.84656084656085 171.21693121693124,81.05820105820106 170.58201058201058,81.26984126984128 169.94708994708995,81.48148148148148 169.31216931216932,81.48148148148148 168.67724867724868,81.6931216931217 168.04232804232805,81.6931216931217 167.40740740740742,81.6931216931217 166.7724867724868,81.6931216931217 166.13756613756615,81.6931216931217 165.50264550264552,81.6931216931217 164.8677248677249,81.6931216931217 164.23280423280426,81.6931216931217 163.59788359788362,81.6931216931217 162.96296296296296,81.48148148148148 162.32804232804233,81.26984126984128 161.6931216931217,81.05820105820106 161.05820105820106,80.84656084656085 160.42328042328043,80.63492063492065 159.7883597883598,80.42328042328043 159.15343915343917,80.21164021164022 158.51851851851853,79.7883597883598 157.8835978835979,79.57671957671958 157.24867724867727,79.15343915343917 156.61375661375664,78.94179894179895 156.1904761904762,78.51851851851852 155.55555555555557,78.30687830687832 154.92063492063494,78.0952380952381 154.2857142857143,77.67195767195767 153.65079365079367,77.24867724867725 153.01587301587304,77.03703703703704 152.38095238095238,76.82539682539684 151.95767195767198,76.4021164021164 151.32275132275134,76.19047619047619 150.6878306878307,75.97883597883599 150.05291005291005,75.55555555555556 149.41798941798942,75.34391534391536 148.78306878306879,75.13227513227514 148.14814814814815,74.92063492063492 147.51322751322752,74.70899470899471 146.8783068783069,74.49735449735451 146.24338624338625,74.28571428571429 145.60846560846562,74.07407407407408 144.973544973545,74.07407407407408 144.33862433862436,74.07407407407408 143.70370370370372,74.07407407407408 143.0687830687831,74.28571428571429 142.43386243386246,74.28571428571429 141.7989417989418,74.49735449735451 141.16402116402116,74.49735449735451 140.52910052910053,74.70899470899471 139.8941798941799,75.13227513227514 139.25925925925927,75.55555555555556 138.83597883597884,75.97883597883599 138.2010582010582,76.4021164021164 137.989417989418,77.03703703703704 137.56613756613757,77.46031746031747 137.14285714285717,78.0952380952381 136.93121693121694,78.73015873015873 136.5079365079365,79.36507936507937 136.2962962962963,80.0 136.2962962962963,80.63492063492065 136.0846560846561,81.26984126984128 136.0846560846561,81.90476190476191 135.87301587301587,82.53968253968254 135.87301587301587,83.17460317460318 135.66137566137567,83.80952380952381 135.66137566137567,84.44444444444446 135.66137566137567,85.07936507936509 135.44973544973547,85.71428571428572 135.44973544973547,86.34920634920636 135.44973544973547,86.98412698412699 135.23809523809524,87.61904761904762 135.23809523809524,88.25396825396827 135.23809523809524,88.8888888888889 135.23809523809524,89.52380952380953 135.23809523809524,90.15873015873017 135.02645502645504,90.7936507936508 135.02645502645504,91.42857142857143 135.02645502645504,92.06349206349208 134.81481481481484,92.69841269841271 134.81481481481484,93.33333333333334 134.81481481481484,93.96825396825398 134.81481481481484,94.60317460317461 134.6031746031746,95.23809523809524 134.6031746031746,95.87301587301587 134.6031746031746,96.50793650793652 134.6031746031746,97.14285714285715 134.81481481481484,97.77777777777779 134.81481481481484,98.41269841269842 134.81481481481484,99.04761904761905 134.81481481481484,99.68253968253968 134.81481481481484,100.31746031746033 134.81481481481484,100.95238095238096 134.81481481481484,101.5873015873016 135.02645502645504,102.22222222222223 135.02645502645504,102.85714285714286 135.02645502645504,103.4920634920635 135.02645502645504,104.12698412698414 135.02645502645504,104.76190476190477 135.02645502645504,105.3968253968254 135.02645502645504,106.03174603174604 135.23809523809524,106.66666666666667 135.23809523809524,107.3015873015873 135.23809523809524,107.93650793650795 135.23809523809524,108.57142857142858 135.44973544973547,109.20634920634922 135.44973544973547,109.84126984126985 135.44973544973547,110.47619047619048 135.66137566137567,111.11111111111111 135.66137566137567,111.74603174603176 135.66137566137567,112.3809523809524 135.87301587301587,113.01587301587303 135.87301587301587,113.65079365079366 136.0846560846561,114.28571428571429 136.0846560846561,114.92063492063492 136.2962962962963,115.55555555555557 136.2962962962963,116.1904761904762 136.5079365079365,116.82539682539684 136.5079365079365,117.46031746031747 136.71957671957674,118.0952380952381 136.93121693121694,118.73015873015873 136.93121693121694,119.36507936507937 137.14285714285717,120.00000000000001 137.14285714285717,120.63492063492065 137.35449735449737,121.26984126984128 137.56613756613757,121.90476190476191 137.56613756613757,122.53968253968254 137.7777777777778,123.17460317460318 137.989417989418,123.80952380952382 138.2010582010582,124.44444444444446 138.41269841269843,125.07936507936509 138.62433862433863,125.71428571428572 138.62433862433863,126.34920634920636 138.62433862433863,126.98412698412699 138.83597883597884,127.61904761904763 139.04761904761907,128.25396825396825 139.25925925925927,128.88888888888889 139.47089947089947,129.52380952380955 139.6825396825397,130.15873015873018 139.8941798941799,130.7936507936508 140.10582010582013,131.42857142857144 140.10582010582013,132.06349206349208 140.52910052910053,132.6984126984127 140.95238095238096,133.33333333333334 141.16402116402116,133.96825396825398 141.16402116402116,134.6031746031746 141.5873015873016,135.23809523809524 141.7989417989418,135.87301587301587 142.01058201058203,136.5079365079365 142.22222222222223,137.14285714285717 142.43386243386246,137.7777777777778 142.64550264550266,138.41269841269843 142.85714285714286,139.04761904761907 143.0687830687831,139.6825396825397 143.0687830687831,140.31746031746033 143.2804232804233,140.95238095238096 143.4920634920635,141.5873015873016 143.70370370370372,142.22222222222223 143.70370370370372,142.85714285714286 143.91534391534393,143.4920634920635 144.12698412698413,144.12698412698413 144.12698412698413,144.76190476190476 144.33862433862436,145.39682539682542 144.55026455026456,146.03174603174605 144.76190476190476,146.66666666666669 144.973544973545,147.30158730158732 145.1851851851852,147.93650793650795 145.1851851851852,148.57142857142858 145.39682539682542,149.20634920634922 146.24338624338625,153.01587301587304" style="fill:none; stroke:#999900; stroke-width:1.0"  /><polyline points="146.24338624338625,153.01587301587304 143.2804232804233,153.01587301587304 142.64550264550266,153.01587301587304 142.01058201058203,153.01587301587304 141.3756613756614,153.01587301587304 140.74074074074076,153.01587301587304 140.10582010582013,153.01587301587304 139.47089947089947,153.01587301587304 138.83597883597884,153.01587301587304 138.2010582010582,153.22751322751324 137.56613756613757,153.22751322751324 136.93121693121694,153.22751322751324 136.2962962962963,153.22751322751324 135.66137566137567,153.22751322751324 135.02645502645504,153.22751322751324 134.3915343915344,153.22751322751324 133.75661375661377,153.22751322751324 133.12169312169314,153.22751322751324 132.4867724867725,153.22751322751324 131.85185185185185,153.22751322751324 131.21693121693121,153.22751322751324 130.58201058201058,153.22751322751324 129.94708994708995,153.01587301587304 129.31216931216932,153.01587301587304 128.67724867724868,153.01587301587304 128.04232804232805,153.01587301587304 127.40740740740742,153.01587301587304 126.77248677248679,153.01587301587304 126.13756613756615,152.5925925925926 125.5026455026455,152.5925925925926 124.86772486772487,152.5925925925926 124.23280423280424,152.38095238095238 123.59788359788361,152.38095238095238 122.96296296296298,152.38095238095238 122.32804232804234,152.38095238095238 121.6931216931217,152.16931216931218 121.05820105820106,152.16931216931218 120.42328042328043,152.16931216931218 119.7883597883598,151.95767195767198 119.15343915343917,151.95767195767198 118.51851851851853,151.95767195767198 117.88359788359789,151.74603174603175 117.24867724867725,151.53439153439155 116.61375661375662,151.53439153439155 115.97883597883599,151.53439153439155 115.34391534391536,151.32275132275134 114.70899470899472,151.11111111111111 114.07407407407408,151.11111111111111 113.43915343915344,150.8994708994709 112.80423280423281,150.8994708994709 112.16931216931218,150.6878306878307 111.53439153439155,150.47619047619048 110.89947089947091,150.26455026455028 110.26455026455027,150.05291005291005 109.62962962962963,149.62962962962965 108.994708994709,149.41798941798942 108.35978835978837,149.20634920634922 107.93650793650795,148.78306878306879 107.3015873015873,148.57142857142858 106.66666666666667,148.14814814814815 106.24338624338625,147.72486772486775 105.82010582010582,147.30158730158732 105.3968253968254,146.66666666666669 104.97354497354497,146.03174603174605 104.76190476190477,145.39682539682542 104.55026455026456,144.76190476190476 104.33862433862434,144.12698412698413 104.33862433862434,143.4920634920635 104.33862433862434,142.85714285714286 104.33862433862434,142.22222222222223 104.33862433862434,141.5873015873016 104.55026455026456,140.95238095238096 104.55026455026456,140.31746031746033 104.76190476190477,139.6825396825397 104.76190476190477,139.04761904761907 104.97354497354497,138.41269841269843 105.18518518518519,137.7777777777778 105.3968253968254,137.14285714285717 105.3968253968254,136.5079365079365 105.60846560846562,135.87301587301587 105.60846560846562,135.23809523809524 105.82010582010582,134.6031746031746 106.03174603174604,133.96825396825398 106.24338624338625,133.33333333333334 106.03174603174604,132.6984126984127 106.24338624338625,132.06349206349208 106.45502645502647,131.42857142857144 106.66666666666667,130.7936507936508 106.87830687830689,130.15873015873018 107.3015873015873,129.52380952380955 107.51322751322752,128.88888888888889 107.72486772486774,128.25396825396825 107.93650793650795,127.61904761904763 108.14814814814815,126.98412698412699 108.35978835978837,126.34920634920636 108.78306878306879,125.71428571428572 108.994708994709,125.07936507936509 109.20634920634922,124.44444444444446 109.41798941798943,123.80952380952382 109.41798941798943,123.17460317460318 109.84126984126985,122.53968253968254 109.84126984126985,121.90476190476191 109.84126984126985,121.26984126984128 109.84126984126985,120.63492063492065 110.05291005291006,120.00000000000001 110.05291005291006,119.36507936507937 110.05291005291006,118.73015873015873 110.05291005291006,118.0952380952381 110.05291005291006,117.46031746031747 110.05291005291006,116.82539682539684 109.84126984126985,116.1904761904762 109.84126984126985,115.55555555555557 109.62962962962963,114.92063492063492 109.41798941798943,114.28571428571429 108.994708994709,113.65079365079366 108.57142857142858,113.01587301587303 108.14814814814815,112.5925925925926 107.72486772486774,111.95767195767196 107.3015873015873,111.53439153439155 106.87830687830689,111.11111111111111 106.45502645502647,110.6878306878307 105.82010582010582,110.26455026455027 105.18518518518519,109.84126984126985 104.55026455026456,109.41798941798943 103.91534391534393,108.994708994709 103.28042328042329,108.994708994709 102.64550264550266,108.57142857142858 102.01058201058201,108.35978835978837 101.5873015873016,107.93650793650795 100.95238095238096,107.93650793650795 100.31746031746033,107.72486772486774 99.68253968253968,107.51322751322752 99.04761904761905,107.3015873015873 98.41269841269842,107.0899470899471 97.77777777777779,106.87830687830689 97.14285714285715,106.87830687830689 96.50793650793652,106.66666666666667 95.87301587301587,106.45502645502647 95.23809523809524,106.45502645502647 94.60317460317461,106.45502645502647 93.96825396825398,106.24338624338625 93.33333333333334,106.24338624338625 92.69841269841271,106.03174603174604 92.06349206349208,106.03174603174604 91.42857142857143,106.03174603174604 90.7936507936508,106.03174603174604 90.15873015873017,106.03174603174604 89.52380952380953,106.03174603174604 88.8888888888889,106.03174603174604 88.25396825396827,106.03174603174604 87.61904761904762,106.03174603174604 86.98412698412699,106.03174603174604 86.34920634920636,106.24338624338625 85.71428571428572,106.45502645502647 85.07936507936509,106.66666666666667 84.44444444444446,106.66666666666667 83.80952380952381,106.87830687830689 83.17460317460318,107.0899470899471 82.53968253968254,107.3015873015873 81.90476190476191,107.3015873015873 81.26984126984128,107.72486772486774 80.63492063492065,107.93650793650795 80.0,108.14814814814815 79.36507936507937,108.35978835978837 78.73015873015873,108.57142857142858 78.0952380952381,108.78306878306879 77.46031746031747,109.20634920634922 76.82539682539684,109.41798941798943 76.4021164021164,109.84126984126985 75.76719576719577,110.26455026455027 75.34391534391536,110.6878306878307 74.92063492063492,111.11111111111111 74.49735449735451,111.53439153439155 74.07407407407408,111.95767195767196 73.65079365079366,112.5925925925926 73.43915343915344,113.22751322751324 73.01587301587303,113.86243386243387 72.80423280423281,114.49735449735451 72.5925925925926,115.13227513227514 72.5925925925926,115.76719576719577 72.38095238095238,116.4021164021164 72.38095238095238,117.03703703703705 72.38095238095238,117.67195767195768 72.38095238095238,118.30687830687832 72.38095238095238,118.94179894179895 72.38095238095238,119.57671957671958 72.38095238095238,120.21164021164022 72.5925925925926,120.84656084656086 72.5925925925926,121.4814814814815 72.80423280423281,122.11640211640213 72.80423280423281,122.75132275132276 73.01587301587303,123.3862433862434 73.01587301587303,124.02116402116403 73.22751322751323,124.65608465608466 73.43915343915344,125.2910052910053 73.43915343915344,125.92592592592594 73.65079365079366,126.56084656084657 73.86243386243387,127.1957671957672 73.86243386243387,127.83068783068784 74.28571428571429,128.46560846560848 74.28571428571429,129.10052910052912 74.70899470899471,129.73544973544975 74.92063492063492,130.37037037037038 75.13227513227514,131.005291005291 75.55555555555556,131.64021164021165 75.76719576719577,132.27513227513228 76.19047619047619,132.9100529100529 76.61375661375662,133.33333333333334 76.82539682539684,133.96825396825398 77.03703703703704,134.6031746031746 77.46031746031747,135.23809523809524 77.46031746031747,135.87301587301587 77.67195767195767,136.5079365079365 77.88359788359789,137.14285714285717 78.0952380952381,137.7777777777778 78.0952380952381,138.41269841269843 78.30687830687832,139.04761904761907 78.51851851851852,139.6825396825397 78.51851851851852,140.31746031746033 78.51851851851852,140.95238095238096 78.73015873015873,141.5873015873016 78.73015873015873,142.22222222222223 78.94179894179895,142.85714285714286 78.94179894179895,143.4920634920635 78.94179894179895,144.12698412698413 78.94179894179895,144.76190476190476 78.94179894179895,145.39682539682542 78.94179894179895,146.03174603174605 78.73015873015873,146.66666666666669 78.51851851851852,147.30158730158732 78.0952380952381,147.93650793650795 77.88359788359789,148.57142857142858 77.46031746031747,148.99470899470901 77.03703703703704,149.41798941798942 76.61375661375662,149.84126984126985 76.19047619047619,150.26455026455028 75.76719576719577,150.6878306878307 75.13227513227514,151.11111111111111 74.70899470899471,151.53439153439155 74.07407407407408,151.95767195767198 73.43915343915344,152.38095238095238 72.80423280423281,152.5925925925926 72.16931216931218,153.01587301587304 71.53439153439155,153.22751322751324 70.8994708994709,153.65079365079367 70.26455026455027,153.86243386243387 69.62962962962963,154.07407407407408 68.994708994709,154.2857142857143 68.35978835978837,154.7089947089947 67.72486772486774,154.7089947089947 67.08994708994709,154.92063492063494 66.45502645502646,155.13227513227514 65.82010582010582,155.13227513227514 65.18518518518519,155.34391534391534 64.55026455026456,155.34391534391534 63.91534391534392,155.55555555555557 63.280423280423285,155.76719576719577 62.64550264550265,155.76719576719577 62.01058201058201,155.978835978836 61.37566137566138,156.1904761904762 60.74074074074075,156.1904761904762 60.10582010582011,156.4021164021164 59.470899470899475,156.4021164021164 58.83597883597884,156.61375661375664 58.2010582010582,156.61375661375664 57.56613756613757,156.61375661375664 56.93121693121694,156.82539682539684 56.2962962962963,156.82539682539684 55.661375661375665,156.82539682539684 55.02645502645503,157.03703703703704 54.39153439153439,157.03703703703704 53.75661375661376,157.03703703703704 53.12169312169313,157.24867724867727 52.48677248677249,157.24867724867727 51.851851851851855,157.24867724867727 51.21693121693122,157.46031746031747 50.58201058201058,157.46031746031747 49.94708994708995,157.46031746031747 49.31216931216932,157.46031746031747 48.677248677248684,157.46031746031747 48.042328042328045,157.46031746031747 47.40740740740741,157.46031746031747 46.77248677248678,157.67195767195767 46.13756613756614,157.67195767195767 45.50264550264551,157.67195767195767 44.867724867724874,157.67195767195767 44.232804232804234,157.67195767195767 43.5978835978836,157.46031746031747 42.96296296296297,157.46031746031747 42.32804232804233,157.46031746031747 41.6931216931217,157.46031746031747 41.058201058201064,157.46031746031747 40.423280423280424,157.46031746031747 39.78835978835979,157.46031746031747 39.15343915343916,157.46031746031747 38.51851851851852,157.67195767195767 37.883597883597886,157.46031746031747 37.248677248677254,157.67195767195767 36.613756613756614,157.46031746031747 35.97883597883598,157.46031746031747 35.34391534391535,157.46031746031747 34.70899470899471,157.46031746031747 34.074074074074076,157.46031746031747 33.43915343915344,157.67195767195767 32.804232804232804,157.67195767195767 32.16931216931217,157.67195767195767 31.53439153439154,157.67195767195767 30.899470899470902,157.67195767195767 30.264550264550266,157.46031746031747 29.629629629629633,157.46031746031747 28.994708994708997,157.46031746031747 28.35978835978836,157.46031746031747 27.724867724867728,157.46031746031747 27.089947089947092,157.24867724867727 26.455026455026456,157.24867724867727 25.820105820105823,157.24867724867727 25.185185185185187,157.24867724867727 24.55026455026455,157.03703703703704 23.915343915343918,157.03703703703704 23.280423280423282,157.03703703703704 22.645502645502646,157.03703703703704 22.010582010582013,156.82539682539684 21.375661375661377,156.82539682539684 20.740740740740744,156.82539682539684 20.105820105820108,156.82539682539684 19.47089947089947,156.61375661375664 18.83597883597884,156.61375661375664 18.201058201058203,156.61375661375664 17.566137566137566,156.61375661375664 16.931216931216934,156.4021164021164 16.296296296296298,156.4021164021164 15.661375661375663,156.4021164021164 15.026455026455027,156.4021164021164 14.391534391534393,156.1904761904762 13.756613756613758,156.1904761904762 13.121693121693122,156.1904761904762 12.486772486772487,156.1904761904762 11.851851851851853,156.1904761904762 7.6190476190476195,155.978835978836" style="fill:none; stroke:#00aa99; stroke-width:1.0"  /><polyline points="7.6190476190476195,155.978835978836 7.407407407407408,153.01587301587304 7.407407407407408,152.38095238095238 7.407407407407408,151.74603174603175 7.195767195767196,151.11111111111111 7.407407407407408,150.47619047619048 7.407407407407408,149.84126984126985 7.195767195767196,149.20634920634922 7.195767195767196,148.57142857142858 7.195767195767196,147.93650793650795 7.195767195767196,147.30158730158732 7.195767195767196,146.66666666666669 7.195767195767196,146.03174603174605 7.195767195767196,145.39682539682542 7.195767195767196,144.76190476190476 6.984126984126985,144.12698412698413 6.984126984126985,143.4920634920635 6.984126984126985,142.85714285714286 6.984126984126985,142.22222222222223 6.984126984126985,141.5873015873016 6.984126984126985,140.95238095238096 6.984126984126985,140.31746031746033 6.984126984126985,139.6825396825397 6.772486772486773,139.04761904761907 6.772486772486773,138.41269841269843 6.772486772486773,137.7777777777778 6.772486772486773,137.14285714285717 6.772486772486773,136.5079365079365 6.772486772486773,135.87301587301587 6.772486772486773,135.23809523809524 6.772486772486773,134.6031746031746 6.772486772486773,133.96825396825398 6.772486772486773,133.33333333333334 6.34920634920635,132.9100529100529 6.34920634920635,132.27513227513228 6.34920634920635,131.64021164021165 6.34920634920635,131.005291005291 6.34920634920635,130.37037037037038 6.34920634920635,129.73544973544975 6.137566137566138,129.10052910052912 6.137566137566138,128.46560846560848 6.137566137566138,127.83068783068784 6.137566137566138,127.1957671957672 6.137566137566138,126.56084656084657 6.137566137566138,125.92592592592594 5.9259259259259265,125.2910052910053 5.9259259259259265,124.65608465608466 5.9259259259259265,124.02116402116403 5.9259259259259265,123.3862433862434 5.9259259259259265,122.75132275132276 5.9259259259259265,122.11640211640213 5.9259259259259265,121.4814814814815 5.9259259259259265,120.84656084656086 5.9259259259259265,120.21164021164022 5.9259259259259265,119.57671957671958 5.714285714285714,118.94179894179895 5.714285714285714,118.30687830687832 5.714285714285714,117.67195767195768 5.714285714285714,117.03703703703705 5.714285714285714,116.4021164021164 5.714285714285714,115.76719576719577 5.714285714285714,115.13227513227514 5.714285714285714,114.49735449735451 5.502645502645503,113.86243386243387 5.502645502645503,113.22751322751324 5.502645502645503,112.5925925925926 5.502645502645503,111.95767195767196 5.502645502645503,111.32275132275133 5.502645502645503,110.6878306878307 5.502645502645503,110.05291005291006 5.502645502645503,109.41798941798943 5.502645502645503,108.78306878306879 5.291005291005291,108.14814814814815 5.291005291005291,107.51322751322752 5.291005291005291,106.87830687830689 5.291005291005291,106.24338624338625 5.291005291005291,105.60846560846562 5.291005291005291,104.97354497354497 5.291005291005291,104.33862433862434 5.291005291005291,103.70370370370371 5.291005291005291,103.06878306878308 5.07936507936508,102.43386243386244 5.07936507936508,101.79894179894181 5.07936507936508,101.16402116402116 5.07936507936508,100.52910052910053 5.07936507936508,99.8941798941799 5.07936507936508,99.25925925925927 5.07936507936508,98.62433862433863 4.867724867724868,97.989417989418 4.656084656084657,97.35449735449737 4.656084656084657,96.71957671957672 4.656084656084657,96.08465608465609 4.656084656084657,95.44973544973546 4.656084656084657,94.81481481481482 4.656084656084657,94.17989417989419 4.656084656084657,93.54497354497356 4.656084656084657,92.91005291005291 4.444444444444445,92.27513227513228 4.444444444444445,91.64021164021165 4.444444444444445,91.00529100529101 4.444444444444445,90.37037037037038 4.444444444444445,89.73544973544975 4.444444444444445,89.1005291005291 4.444444444444445,88.46560846560847 4.2328042328042335,87.83068783068784 4.2328042328042335,87.1957671957672 4.2328042328042335,86.56084656084657 4.2328042328042335,85.92592592592594 4.2328042328042335,85.29100529100529 4.2328042328042335,84.65608465608466 4.2328042328042335,84.02116402116403 4.2328042328042335,83.3862433862434 4.021164021164021,82.75132275132276 4.021164021164021,82.11640211640213 4.021164021164021,81.48148148148148 4.021164021164021,80.84656084656085 4.021164021164021,80.21164021164022 4.021164021164021,79.57671957671958 4.021164021164021,78.94179894179895 4.021164021164021,78.30687830687832 3.8095238095238098,77.67195767195767 3.8095238095238098,77.03703703703704 3.8095238095238098,76.4021164021164 3.8095238095238098,75.76719576719577 3.8095238095238098,75.13227513227514 3.8095238095238098,74.49735449735451 3.597883597883598,73.86243386243387 3.597883597883598,73.22751322751323 3.597883597883598,72.5925925925926 3.597883597883598,71.95767195767196 3.597883597883598,71.32275132275133 3.3862433862433865,70.6878306878307 3.3862433862433865,70.05291005291006 3.3862433862433865,69.41798941798942 3.3862433862433865,68.78306878306879 3.3862433862433865,68.14814814814815 3.3862433862433865,67.51322751322752 3.3862433862433865,66.87830687830689 3.3862433862433865,66.24338624338625 3.3862433862433865,65.60846560846561 3.174603174603175,64.97354497354497 3.174603174603175,64.33862433862434 3.174603174603175,63.70370370370371 2.9629629629629632,63.06878306878308 2.9629629629629632,62.43386243386244 2.9629629629629632,61.798941798941804 2.9629629629629632,61.16402116402117 2.9629629629629632,60.52910052910053 2.9629629629629632,59.8941798941799 2.9629629629629632,59.25925925925927 2.9629629629629632,58.62433862433863 2.9629629629629632,57.989417989417994 2.7513227513227516,57.35449735449736 2.7513227513227516,56.71957671957672 2.7513227513227516,56.08465608465609 2.7513227513227516,55.449735449735456 2.7513227513227516,54.81481481481482 2.7513227513227516,54.179894179894184 2.7513227513227516,53.54497354497355 2.53968253968254,52.91005291005291 2.53968253968254,52.27513227513228 2.53968253968254,51.640211640211646 2.53968253968254,51.00529100529101 2.53968253968254,50.370370370370374 2.53968253968254,49.73544973544974 2.53968253968254,49.1005291005291 2.53968253968254,48.46560846560847 2.53968253968254,47.830687830687836 2.3280423280423284,47.195767195767196 2.3280423280423284,46.560846560846564 2.3280423280423284,45.92592592592593 2.3280423280423284,45.29100529100529 2.3280423280423284,44.65608465608466 2.3280423280423284,44.021164021164026 2.3280423280423284,43.386243386243386 2.3280423280423284,42.75132275132275 2.1164021164021167,42.11640211640212 2.1164021164021167,41.48148148148149 2.1164021164021167,40.84656084656085 2.1164021164021167,40.211640211640216 2.1164021164021167,39.57671957671958 2.1164021164021167,38.94179894179894 2.1164021164021167,38.30687830687831 1.9047619047619049,37.67195767195768 1.9047619047619049,37.03703703703704 1.9047619047619049,36.402116402116405 1.9047619047619049,35.76719576719577 1.9047619047619049,35.13227513227513 1.9047619047619049,34.4973544973545 1.9047619047619049,33.86243386243387 1.9047619047619049,33.22751322751323 1.6931216931216932,32.592592592592595 1.6931216931216932,31.95767195767196 1.6931216931216932,31.322751322751326 1.6931216931216932,30.68783068783069 1.6931216931216932,30.052910052910054 1.6931216931216932,29.41798941798942 1.6931216931216932,28.783068783068785 1.6931216931216932,28.14814814814815 1.26984126984127,27.724867724867728 1.26984126984127,27.089947089947092 1.26984126984127,26.455026455026456 1.26984126984127,25.820105820105823 1.26984126984127,25.185185185185187 1.26984126984127,24.55026455026455 1.26984126984127,23.915343915343918 1.26984126984127,23.280423280423282 1.26984126984127,22.645502645502646 1.26984126984127,22.010582010582013 1.0582010582010584,21.375661375661377 1.0582010582010584,20.740740740740744 1.0582010582010584,20.105820105820108 1.0582010582010584,19.47089947089947 1.0582010582010584,18.83597883597884 1.0582010582010584,18.201058201058203 1.0582010582010584,17.566137566137566 0.8465608465608466,16.931216931216934 0.8465608465608466,16.296296296296298 0.8465608465608466,15.661375661375663 0.8465608465608466,15.026455026455027 0.8465608465608466,14.391534391534393 0.8465608465608466,13.756613756613758 0.8465608465608466,13.121693121693122 0.8465608465608466,12.486772486772487 0.8465608465608466,11.851851851851853 0.634920634920635,11.216931216931219 0.634920634920635,10.582010582010582 0.634920634920635,9.947089947089948 0.634920634920635,9.312169312169313 0.4232804232804233,6.137566137566138" style="fill:none; stroke:#3300bb; stroke-width:3.0" stroke-dasharray="6,3" /><circle cx="0.4232804232804233" cy="6.137566137566138" r="2.0" style="fill:none; stroke:#000000aa; stroke-width:0.25" /><circle cx="141.3756613756614" cy="19.47089947089947" r="2.0" style="fill:none; stroke:#000000aa; stroke-width:0.25" /><circle cx="146.24338624338625" cy="153.01587301587304" r="2.0" style="fill:none; stroke:#000000aa; stroke-width:0.25" /><circle cx="7.6190476190476195" cy="155.978835978836" r="2.0" style="fill:none; stroke:#000000aa; stroke-width:0.25" /><circle cx="0.4232804232804233" cy="5.9259259259259265" r="2.0" style="fill:none; stroke:#ff3366aa; stroke-width:0.25" /><circle cx="141.5873015873016" cy="19.682539682539684" r="2.0" style="fill:none; stroke:#ff3366aa; stroke-width:0.25" /><circle cx="146.45502645502646" cy="152.5925925925926" r="2.0" style="fill:none; stroke:#ff3366aa; stroke-width:0.25" /><circle cx="8.88888888888889" cy="155.76719576719577" r="2.0" style="fill:none; stroke:#ff3366aa; stroke-width:0.25" /><polyline points="11.851851851851853,3.8095238095238098 11.216931216931219,4.021164021164021 10.582010582010582,4.2328042328042335 9.947089947089948,4.444444444444445 9.312169312169313,4.444444444444445 8.677248677248677,4.444444444444445 8.042328042328043,4.444444444444445 7.407407407407408,4.656084656084657 6.772486772486773,4.867724867724868 6.137566137566138,4.867724867724868 5.502645502645503,5.07936507936508 4.867724867724868,5.07936507936508 4.2328042328042335,5.291005291005291 3.597883597883598,5.502645502645503" style="fill:none; stroke:#001100; stroke-width:1.0" /><polyline points="1.0582010582010584,17.566137566137566 0.8465608465608466,16.931216931216934 0.8465608465608466,16.296296296296298 0.8465608465608466,15.661375661375663 0.8465608465608466,15.026455026455027 0.8465608465608466,14.391534391534393 0.8465608465608466,13.756613756613758 0.8465608465608466,13.121693121693122 0.8465608465608466,12.486772486772487 0.8465608465608466,11.851851851851853 0.634920634920635,11.216931216931219 0.634920634920635,10.582010582010582 0.634920634920635,9.947089947089948 0.634920634920635,9.312169312169313" style="fill:none; stroke:#000011; stroke-width:1.0" /><polyline points="142.01058201058203,31.111111111111114 142.01058201058203,30.476190476190478 142.01058201058203,29.841269841269842 142.01058201058203,29.20634920634921 142.01058201058203,28.571428571428573 142.01058201058203,27.93650793650794 141.7989417989418,27.301587301587304 141.7989417989418,26.666666666666668 141.7989417989418,26.031746031746035 141.5873015873016,25.3968253968254 141.5873015873016,24.761904761904763 141.5873015873016,24.12698412698413 141.5873015873016,23.492063492063494 141.5873015873016,22.857142857142858" style="fill:none; stroke:#001100; stroke-width:1.0" /><polyline points="130.15873015873018,17.354497354497354 130.7936507936508,17.566137566137566 131.42857142857144,17.566137566137566 132.06349206349208,17.77777777777778 132.6984126984127,18.201058201058203 133.33333333333334,18.201058201058203 133.96825396825398,18.412698412698415 134.6031746031746,18.412698412698415 135.23809523809524,18.412698412698415 135.87301587301587,18.624338624338627 136.5079365079365,18.624338624338627 137.14285714285717,18.83597883597884 137.7777777777778,18.83597883597884 138.41269841269843,18.83597883597884" style="fill:none; stroke:#000011; stroke-width:1.0" /><polyline points="135.02645502645504,153.22751322751324 135.66137566137567,153.22751322751324 136.2962962962963,153.22751322751324 136.93121693121694,153.22751322751324 137.56613756613757,153.22751322751324 138.2010582010582,153.22751322751324 138.83597883597884,153.01587301587304 139.47089947089947,153.01587301587304 140.10582010582013,153.01587301587304 140.74074074074076,153.01587301587304 141.3756613756614,153.01587301587304 142.01058201058203,153.01587301587304 142.64550264550266,153.01587301587304 143.2804232804233,153.01587301587304" style="fill:none; stroke:#001100; stroke-width:1.0" /><polyline points="143.4920634920635,141.5873015873016 143.70370370370372,142.22222222222223 143.70370370370372,142.85714285714286 143.91534391534393,143.4920634920635 144.12698412698413,144.12698412698413 144.12698412698413,144.76190476190476 144.33862433862436,145.39682539682542 144.55026455026456,146.03174603174605 144.76190476190476,146.66666666666669 144.973544973545,147.30158730158732 145.1851851851852,147.93650793650795 145.1851851851852,148.57142857142858 145.39682539682542,149.20634920634922" style="fill:none; stroke:#000011; stroke-width:1.0" /><polyline points="6.984126984126985,144.12698412698413 7.195767195767196,144.76190476190476 7.195767195767196,145.39682539682542 7.195767195767196,146.03174603174605 7.195767195767196,146.66666666666669 7.195767195767196,147.30158730158732 7.195767195767196,147.93650793650795 7.195767195767196,148.57142857142858 7.195767195767196,149.20634920634922 7.407407407407408,149.84126984126985 7.407407407407408,150.47619047619048 7.195767195767196,151.11111111111111 7.407407407407408,151.74603174603175 7.407407407407408,152.38095238095238 7.407407407407408,153.01587301587304" style="fill:none; stroke:#001100; stroke-width:1.0" /><polyline points="20.740740740740744,156.82539682539684 20.105820105820108,156.82539682539684 19.47089947089947,156.61375661375664 18.83597883597884,156.61375661375664 18.201058201058203,156.61375661375664 17.566137566137566,156.61375661375664 16.931216931216934,156.4021164021164 16.296296296296298,156.4021164021164 15.661375661375663,156.4021164021164 15.026455026455027,156.4021164021164 14.391534391534393,156.1904761904762 13.756613756613758,156.1904761904762 13.121693121693122,156.1904761904762 12.486772486772487,156.1904761904762 11.851851851851853,156.1904761904762" style="fill:none; stroke:#000011; stroke-width:1.0" /><polyline points="3.597883597883598,5.502645502645503 -17.142857142857146,9.735449735449736" style="fill:none; stroke:#ffaa00; stroke-width:0.4" /><polyline points="0.634920634920635,9.312169312169313 -0.4232804232804233,-11.851851851851853" style="fill:none; stroke:#aaff00; stroke-width:0.4" /><polyline points="141.5873015873016,22.857142857142858 140.52910052910053,1.6931216931216932" style="fill:none; stroke:#ffaa00; stroke-width:0.4" /><polyline points="138.41269841269843,18.83597883597884 159.15343915343917,22.645502645502646" style="fill:none; stroke:#aaff00; stroke-width:0.4" /><polyline points="143.2804232804233,153.01587301587304 164.44444444444446,152.38095238095238" style="fill:none; stroke:#ffaa00; stroke-width:0.4" /><polyline points="145.39682539682542,149.20634920634922 150.47619047619048,169.73544973544975" style="fill:none; stroke:#aaff00; stroke-width:0.4" /><polyline points="7.407407407407408,153.01587301587304 8.465608465608467,174.1798941798942" style="fill:none; stroke:#ffaa00; stroke-width:0.4" /><polyline points="11.851851851851853,156.1904761904762 -9.312169312169313,154.7089947089947" style="fill:none; stroke:#aaff00; stroke-width:0.4" /><circle cx="74.28571428571429" cy="78.94179894179895" r="1.0" style="fill:#444444; stroke-width:0" /><circle cx="44.867724867724874" cy="83.17460317460318" r="10.582010582010582" style="fill:#ff770022; stroke-width:0" /><circle cx="44.867724867724874" cy="83.17460317460318" r="1.0" style="fill:#ff7700; stroke-width:0" /></svg>