<?xml version="1.0" encoding="UTF-8" standalone="no"?><svg width="603.1746031746032" height="575.2380952380953" viewBox="-10 -10 221.05820105820106 211.74603174603175" xmlns="http://www.w3.org/2000/svg" xmlns:xlink="http://www.w3.org/1999/xlink"><polyline points="50.370370370370374,0.634920634920635 53.75661375661376,0.634920634920635 54.39153439153439,0.634920634920635 55.02645502645503,0.634920634920635 55.661375661375665,0.634920634920635 56.2962962962963,0.634920634920635 56.93121693121694,0.634920634920635 57.56613756613757,0.634920634920635 58.2010582010582,0.634920634920635 58.83597883597884,0.4232804232804233 59.470899470899475,0.4232804232804233 60.10582010582011,0.4232804232804233 60.74074074074075,0.4232804232804233 61.37566137566138,0.4232804232804233 62.01058201058201,0.4232804232804233 62.64550264550265,0.4232804232804233 63.280423280423285,0.4232804232804233 63.91534391534392,0.4232804232804233 64.55026455026456,0.4232804232804233 65.18518518518519,0.4232804232804233 65.82010582010582,0.4232804232804233 66.45502645502646,0.21164021164021166 67.08994708994709,0.21164021164021166 67.72486772486774,0.21164021164021166 68.35978835978837,0.21164021164021166 68.994708994709,0.21164021164021166 69.62962962962963,0.21164021164021166 70.26455026455027,0.21164021164021166 70.8994708994709,0.21164021164021166 71.53439153439155,0.21164021164021166 72.16931216931218,0.21164021164021166 72.80423280423281,0.21164021164021166 73.43915343915344,0.4232804232804233 74.07407407407408,0.4232804232804233 74.70899470899471,0.4232804232804233 75.34391534391536,0.4232804232804233 75.97883597883599,0.4232804232804233 76.61375661375662,0.634920634920635 77.24867724867725,0.634920634920635 77.88359788359789,0.634920634920635 78.51851851851852,0.8465608465608466 79.15343915343917,0.8465608465608466 79.7883597883598,1.0582010582010584 80.42328042328043,1.0582010582010584 81.05820105820106,1.26984126984127 81.6931216931217,1.26984126984127 82.32804232804233,1.4814814814814816 82.96296296296298,1.6931216931216932 83.59788359788361,1.9047619047619049 84.23280423280424,2.1164021164021167 84.86772486772487,2.1164021164021167 85.5026455026455,2.3280423280423284 86.13756613756614,2.7513227513227516 86.77248677248677,2.9629629629629632 87.40740740740742,3.174603174603175 88.04232804232805,3.3862433862433865 88.67724867724868,3.597883597883598 89.31216931216932,4.021164021164021 89.94708994708995,4.2328042328042335 90.58201058201058,4.656084656084657 91.21693121693123,4.867724867724868 91.85185185185186,5.291005291005291 92.4867724867725,5.714285714285714 93.12169312169313,5.9259259259259265 93.75661375661376,6.137566137566138 94.17989417989419,6.560846560846561 94.81481481481482,6.984126984126985 95.44973544973546,7.407407407407408 95.87301587301587,7.830687830687832 96.50793650793652,8.253968253968255 97.14285714285715,8.677248677248677 97.56613756613757,9.100529100529101 98.2010582010582,9.523809523809524 98.62433862433863,9.947089947089948 99.04761904761905,10.370370370370372 99.47089947089948,10.793650793650794 99.8941798941799,11.216931216931219 100.52910052910053,11.640211640211641 100.95238095238096,12.063492063492065 101.37566137566138,12.6984126984127 101.79894179894181,13.121693121693122 102.22222222222223,13.544973544973546 102.64550264550266,14.17989417989418 103.06878306878308,14.603174603174605 103.4920634920635,15.026455026455027 103.91534391534393,15.661375661375663 104.33862433862434,16.296296296296298 104.76190476190477,16.931216931216934 104.97354497354497,17.566137566137566 105.18518518518519,18.201058201058203 105.3968253968254,18.83597883597884 105.3968253968254,19.47089947089947 105.3968253968254,20.105820105820108 105.3968253968254,20.740740740740744 105.3968253968254,21.375661375661377 105.18518518518519,22.010582010582013 104.97354497354497,22.645502645502646 104.76190476190477,23.280423280423282 104.55026455026456,23.915343915343918 104.12698412698414,24.55026455026455 103.70370370370371,25.185185185185187 103.28042328042329,25.820105820105823 102.85714285714286,26.243386243386244 102.43386243386244,26.87830687830688 102.01058201058201,27.301587301587304 101.5873015873016,27.724867724867728 100.95238095238096,28.14814814814815 100.31746031746033,28.571428571428573 99.8941798941799,28.994708994708997 99.47089947089948,29.41798941798942 98.83597883597885,29.841269841269842 98.2010582010582,30.264550264550266 97.56613756613757,30.68783068783069 96.93121693121694,31.111111111111114 96.50793650793652,31.53439153439154 95.87301587301587,31.95767195767196 95.23809523809524,32.38095238095239 94.81481481481482,33.01587301587302 94.17989417989419,33.43915343915344 93.75661375661376,33.86243386243387 93.33333333333334,34.28571428571429 93.12169312169313,34.920634920634924 92.69841269841271,35.34391534391535 92.27513227513228,35.97883597883598 91.85185185185186,36.613756613756614 91.64021164021165,37.248677248677254 91.21693121693123,37.883597883597886 91.00529100529101,38.51851851851852 90.7936507936508,39.15343915343916 90.58201058201058,39.78835978835979 90.58201058201058,40.423280423280424 90.58201058201058,41.058201058201064 90.37037037037038,41.6931216931217 90.37037037037038,42.32804232804233 90.37037037037038,42.96296296296297 90.58201058201058,43.5978835978836 90.58201058201058,44.232804232804234 90.7936507936508,44.867724867724874 90.7936507936508,45.50264550264551 91.00529100529101,46.13756613756614 91.21693121693123,46.77248677248678 91.64021164021165,47.40740740740741 91.85185185185186,48.042328042328045 92.27513227513228,48.677248677248684 92.4867724867725,49.31216931216932 92.91005291005291,49.73544973544974 93.12169312169313,50.370370370370374 93.54497354497356,50.7936507936508 93.96825396825398,51.21693121693122 94.17989417989419,51.851851851851855 94.60317460317461,52.27513227513228 95.02645502645504,52.6984126984127 95.44973544973546,53.333333333333336 95.87301587301587,53.968253968253975 96.2962962962963,54.39153439153439 96.71957671957672,54.81481481481482 97.14285714285715,55.23809523809524 97.56613756613757,55.661375661375665 97.989417989418,56.08465608465609 98.62433862433863,56.50793650793651 99.04761904761905,56.93121693121694 99.68253968253968,57.35449735449736 100.31746031746033,57.777777777777786 100.95238095238096,58.2010582010582 101.5873015873016,58.62433862433863 102.22222222222223,58.83597883597884 102.85714285714286,59.25925925925927 103.4920634920635,59.470899470899475 104.12698412698414,59.682539682539684 104.76190476190477,60.10582010582011 105.3968253968254,60.31746031746032 106.03174603174604,60.52910052910053 106.66666666666667,60.52910052910053 107.3015873015873,60.74074074074075 107.93650793650795,60.952380952380956 108.57142857142858,61.16402116402117 109.20634920634922,61.16402116402117 109.84126984126985,61.37566137566138 110.47619047619048,61.58730158730159 111.11111111111111,61.58730158730159 111.74603174603176,61.798941798941804 112.3809523809524,61.798941798941804 113.01587301587303,62.01058201058201 113.65079365079366,62.01058201058201 114.28571428571429,62.01058201058201 114.92063492063492,62.22222222222223 115.55555555555557,62.22222222222223 116.1904761904762,62.22222222222223 116.82539682539684,62.43386243386244 117.46031746031747,62.43386243386244 118.0952380952381,62.43386243386244 118.73015873015873,62.64550264550265 119.36507936507937,62.64550264550265 120.00000000000001,62.64550264550265 120.63492063492065,62.64550264550265 121.26984126984128,62.64550264550265 121.90476190476191,62.64550264550265 122.53968253968254,62.64550264550265 123.17460317460318,62.64550264550265 123.80952380952382,62.64550264550265 124.44444444444446,62.64550264550265 125.07936507936509,62.64550264550265 125.71428571428572,62.43386243386244 126.34920634920636,62.43386243386244 126.98412698412699,62.43386243386244 127.61904761904763,62.22222222222223 128.25396825396825,62.01058201058201 128.88888888888889,61.798941798941804 129.52380952380955,61.58730158730159 130.15873015873018,61.37566137566138 130.7936507936508,61.37566137566138 131.42857142857144,61.16402116402117 132.06349206349208,60.952380952380956 132.6984126984127,60.74074074074075 133.33333333333334,60.52910052910053 133.96825396825398,60.31746031746032 134.6031746031746,59.8941798941799 135.23809523809524,59.682539682539684 135.87301587301587,59.25925925925927 136.5079365079365,58.83597883597884 137.14285714285717,58.41269841269842 137.56613756613757,57.777777777777786 137.989417989418,57.35449735449736 138.41269841269843,56.71957671957672 138.83597883597884,56.08465608465609 139.04761904761907,55.449735449735456 139.25925925925927,54.81481481481482 139.47089947089947,54.179894179894184 139.6825396825397,53.54497354497355 139.6825396825397,52.91005291005291 139.8941798941799,52.27513227513228 139.8941798941799,51.640211640211646 140.10582010582013,51.00529100529101 140.10582010582013,50.370370370370374 140.10582010582013,49.73544973544974 140.10582010582013,49.1005291005291 140.10582010582013,48.46560846560847 139.8941798941799,47.830687830687836 139.8941798941799,47.195767195767196 139.8941798941799,46.560846560846564 139.6825396825397,45.92592592592593 139.47089947089947,45.29100529100529 139.47089947089947,44.65608465608466 139.25925925925927,44.021164021164026 139.47089947089947,43.386243386243386 138.83597883597884,43.17460317460318 138.62433862433863,42.539682539682545 138.2010582010582,42.11640211640212 137.989417989418,41.48148148148149 137.56613756613757,41.058201058201064 137.56613756613757,40.423280423280424 137.14285714285717,40.0 136.71957671957674,39.57671957671958 136.2962962962963,38.94179894179894 135.87301587301587,38.51851851851852 135.23809523809524,38.095238095238095 134.81481481481484,37.67195767195768 134.3915343915344,37.248677248677254 133.96825396825398,36.82539682539683 133.54497354497354,36.402116402116405 133.12169312169314,35.97883597883598 132.6984126984127,35.34391534391535 132.4867724867725,34.70899470899471 132.27513227513228,34.074074074074076 132.06349206349208,33.43915343915344 132.06349206349208,32.804232804232804 131.85185185185185,32.16931216931217 131.85185185185185,31.53439153439154 131.85185185185185,30.899470899470902 131.85185185185185,30.264550264550266 131.85185185185185,29.629629629629633 132.06349206349208,28.994708994708997 132.27513227513228,28.35978835978836 132.4867724867725,27.724867724867728 132.9100529100529,27.089947089947092 133.33333333333334,26.666666666666668 133.75661375661377,26.031746031746035 134.17989417989418,25.60846560846561 134.81481481481484,25.185185185185187 135.23809523809524,24.761904761904763 135.87301587301587,24.55026455026455 136.5079365079365,24.338624338624342 137.14285714285717,24.12698412698413 137.7777777777778,23.915343915343918 138.41269841269843,23.703703703703706 139.04761904761907,23.703703703703706 139.6825396825397,23.492063492063494 140.31746031746033,23.492063492063494 140.95238095238096,23.280423280423282 141.5873015873016,23.280423280423282 142.22222222222223,23.06878306878307 142.85714285714286,23.06878306878307 143.4920634920635,23.06878306878307 144.12698412698413,22.857142857142858 144.76190476190476,22.857142857142858 145.39682539682542,22.857142857142858 146.03174603174605,22.857142857142858 146.66666666666669,22.857142857142858 147.30158730158732,22.857142857142858 147.93650793650795,22.857142857142858 148.57142857142858,22.857142857142858 149.20634920634922,22.857142857142858 149.84126984126985,22.857142857142858 150.47619047619048,22.857142857142858 151.11111111111111,23.06878306878307 151.74603174603175,23.06878306878307 152.38095238095238,23.06878306878307 153.01587301587304,23.280423280423282 153.65079365079367,23.280423280423282 154.2857142857143,23.492063492063494 154.92063492063494,23.703703703703706 155.55555555555557,23.703703703703706 156.1904761904762,23.915343915343918 156.82539682539684,24.12698412698413 157.46031746031747,24.338624338624342 158.0952380952381,24.338624338624342 158.73015873015873,24.55026455026455 159.36507936507937,24.761904761904763 160.0,24.973544973544975 160.63492063492066,24.973544973544975 161.2698412698413,25.185185185185187 161.90476190476193,25.3968253968254 162.53968253968256,25.60846560846561 163.1746031746032,25.820105820105823 163.80952380952382,25.820105820105823 164.44444444444446,26.031746031746035 165.0793650793651,26.031746031746035 165.71428571428572,26.243386243386244 166.34920634920636,26.455026455026456 166.984126984127,26.666666666666668 167.61904761904762,26.87830687830688 168.25396825396825,27.089947089947092 168.8888888888889,27.301587301587304 169.52380952380955,27.513227513227516 170.15873015873018,27.724867724867728 170.7936507936508,27.724867724867728 171.42857142857144,27.93650793650794 172.06349206349208,28.14814814814815 172.6984126984127,28.571428571428573 173.33333333333334,28.571428571428573 173.96825396825398,28.783068783068785 174.6031746031746,28.994708994708997 175.23809523809524,29.20634920634921 175.87301587301587,29.41798941798942 176.50793650793653,29.629629629629633 177.14285714285717,29.629629629629633 177.7777777777778,29.841269841269842 178.41269841269843,30.052910052910054 179.04761904761907,30.264550264550266 179.6825396825397,30.264550264550266 180.31746031746033,30.476190476190478 180.95238095238096,30.68783068783069 181.5873015873016,30.899470899470902 182.22222222222223,30.899470899470902 182.85714285714286,31.111111111111114 183.4920634920635,31.322751322751326 184.12698412698415,31.53439153439154 184.7619047619048,31.746031746031747 185.39682539682542,31.746031746031747 188.35978835978838,32.592592592592595" style="fill:none; stroke:#cc0000; stroke-width:1.0"  /><polyline points="188.35978835978838,32.592592592592595 188.78306878306879,35.97883597883598 188.78306878306879,36.613756613756614 188.78306878306879,37.248677248677254 188.57142857142858,37.883597883597886 188.78306878306879,38.51851851851852 188.78306878306879,39.15343915343916 188.78306878306879,39.78835978835979 188.78306878306879,40.423280423280424 188.99470899470901,41.058201058201064 188.99470899470901,41.6931216931217 189.20634920634922,42.32804232804233 189.41798941798945,42.96296296296297 189.41798941798945,43.5978835978836 189.62962962962965,44.232804232804234 189.84126984126985,44.867724867724874 190.05291005291008,45.50264550264551 190.26455026455028,46.13756613756614 190.47619047619048,46.77248677248678 190.47619047619048,47.40740740740741 190.8994708994709,48.042328042328045 191.11111111111111,48.677248677248684 191.32275132275134,49.31216931216932 191.53439153439155,49.94708994708995 191.74603174603175,50.58201058201058 191.95767195767198,51.21693121693122 192.3809523809524,51.851851851851855 192.5925925925926,52.48677248677249 192.8042328042328,53.12169312169313 193.22751322751324,53.75661375661376 193.43915343915344,54.39153439153439 193.65079365079367,55.02645502645503 194.07407407407408,55.661375661375665 194.2857142857143,56.2962962962963 194.70899470899474,56.93121693121694 195.13227513227514,57.56613756613757 195.34391534391537,58.2010582010582 195.76719576719577,58.62433862433863 196.1904761904762,59.25925925925927 196.4021164021164,59.8941798941799 196.82539682539684,60.52910052910053 197.24867724867727,61.16402116402117 197.46031746031747,61.798941798941804 197.8835978835979,62.43386243386244 198.0952380952381,63.06878306878308 198.30687830687833,63.70370370370371 198.73015873015873,64.12698412698413 198.94179894179896,64.76190476190477 199.15343915343917,65.3968253968254 199.36507936507937,66.03174603174604 199.5767195767196,66.66666666666667 199.7883597883598,67.3015873015873 200.00000000000003,67.93650793650794 200.21164021164023,68.57142857142858 200.42328042328043,69.20634920634922 200.42328042328043,69.84126984126985 200.63492063492066,70.47619047619048 200.63492063492066,71.11111111111111 200.63492063492066,71.74603174603175 200.63492063492066,72.38095238095238 200.42328042328043,73.01587301587303 200.42328042328043,73.65079365079366 200.21164021164023,74.28571428571429 200.00000000000003,74.92063492063492 199.5767195767196,75.55555555555556 199.15343915343917,76.19047619047619 198.73015873015873,76.61375661375662 198.30687830687833,77.03703703703704 197.6719576719577,77.24867724867725 197.03703703703704,77.46031746031747 196.4021164021164,77.67195767195767 195.76719576719577,77.67195767195767 195.13227513227514,77.67195767195767 194.4973544973545,77.67195767195767 193.86243386243387,77.46031746031747 193.22751322751324,77.46031746031747 192.5925925925926,77.24867724867725 191.95767195767198,77.03703703703704 191.32275132275134,76.61375661375662 190.6878306878307,76.4021164021164 190.05291005291008,75.97883597883599 189.41798941798945,75.55555555555556 188.78306878306879,75.13227513227514 188.14814814814815,74.92063492063492 187.51322751322752,74.49735449735451 187.08994708994712,74.07407407407408 186.45502645502646,73.86243386243387 186.03174603174605,73.43915343915344 185.39682539682542,73.22751322751323 184.973544973545,72.80423280423281 184.33862433862436,72.5925925925926 183.70370370370372,72.16931216931218 183.0687830687831,71.95767195767196 182.43386243386246,71.53439153439155 181.79894179894183,71.53439153439155 181.16402116402116,71.32275132275133 180.52910052910053,71.11111111111111 179.8941798941799,70.8994708994709 179.25925925925927,70.6878306878307 178.62433862433863,70.47619047619048 177.989417989418,70.47619047619048 177.35449735449737,70.26455026455027 176.71957671957674,70.26455026455027 176.0846560846561,70.26455026455027 175.44973544973547,70.05291005291006 174.81481481481484,70.05291005291006 174.1798941798942,70.26455026455027 173.54497354497354,70.26455026455027 172.9100529100529,70.47619047619048 172.27513227513228,70.47619047619048 171.64021164021165,70.8994708994709 171.005291005291,71.11111111111111 170.37037037037038,71.53439153439155 169.73544973544975,71.95767195767196 169.31216931216932,72.38095238095238 168.8888888888889,72.80423280423281 168.46560846560848,73.22751322751323 168.04232804232805,73.65079365079366 167.61904761904762,74.07407407407408 167.19576719576722,74.49735449735451 166.7724867724868,74.92063492063492 166.34920634920636,75.34391534391536 165.92592592592595,75.97883597883599 165.50264550264552,76.61375661375662 165.0793650793651,77.03703703703704 164.65608465608466,77.67195767195767 164.23280423280426,78.30687830687832 164.02116402116403,78.94179894179895 163.59788359788362,79.36507936507937 163.3862433862434,80.0 162.96296296296296,80.63492063492065 162.75132275132276,81.26984126984128 162.32804232804233,81.90476190476191 161.90476190476193,82.53968253968254 161.6931216931217,83.17460317460318 161.2698412698413,83.80952380952381 161.05820105820106,84.44444444444446 160.84656084656086,85.07936507936509 160.63492063492066,85.71428571428572 160.42328042328043,86.34920634920636 160.21164021164023,86.98412698412699 160.0,87.61904761904762 159.7883597883598,88.25396825396827 159.5767195767196,88.8888888888889 159.5767195767196,89.52380952380953 159.36507936507937,90.15873015873017 159.15343915343917,90.7936507936508 159.15343915343917,91.42857142857143 159.15343915343917,92.06349206349208 158.94179894179896,92.69841269841271 158.94179894179896,93.33333333333334 158.94179894179896,93.96825396825398 158.73015873015873,94.60317460317461 158.73015873015873,95.23809523809524 158.73015873015873,95.87301587301587 158.73015873015873,96.50793650793652 158.94179894179896,97.14285714285715 158.94179894179896,97.77777777777779 159.15343915343917,98.41269841269842 159.15343915343917,99.04761904761905 159.36507936507937,99.68253968253968 159.5767195767196,100.31746031746033 159.7883597883598,100.95238095238096 160.0,101.5873015873016 160.21164021164023,102.22222222222223 160.63492063492066,102.64550264550266 161.05820105820106,103.28042328042329 161.4814814814815,103.91534391534393 161.90476190476193,104.55026455026456 162.32804232804233,104.97354497354497 162.75132275132276,105.3968253968254 163.1746031746032,105.82010582010582 163.80952380952382,106.03174603174604 164.44444444444446,106.45502645502647 165.0793650793651,106.66666666666667 165.71428571428572,107.0899470899471 166.34920634920636,107.3015873015873 166.984126984127,107.51322751322752 167.61904761904762,107.51322751322752 168.25396825396825,107.72486772486774 168.8888888888889,107.93650793650795 169.52380952380955,107.93650793650795 170.15873015873018,107.93650793650795 170.7936507936508,108.14814814814815 171.42857142857144,108.14814814814815 172.06349206349208,108.14814814814815 172.6984126984127,108.14814814814815 173.33333333333334,108.14814814814815 173.96825396825398,108.14814814814815 174.6031746031746,108.14814814814815 175.23809523809524,107.93650793650795 175.87301587301587,107.93650793650795 176.50793650793653,107.72486772486774 177.14285714285717,107.72486772486774 177.7777777777778,107.51322751322752 178.41269841269843,107.3015873015873 179.04761904761907,107.0899470899471 179.6825396825397,106.87830687830689 180.31746031746033,106.66666666666667 180.95238095238096,106.66666666666667 181.5873015873016,106.45502645502647 182.22222222222223,106.24338624338625 182.85714285714286,106.03174603174604 183.4920634920635,105.82010582010582 184.12698412698415,105.60846560846562 184.7619047619048,105.3968253968254 185.39682539682542,105.18518518518519 186.03174603174605,105.18518518518519 186.66666666666669,104.97354497354497 187.30158730158732,104.76190476190477 187.93650793650795,104.76190476190477 188.57142857142858,104.55026455026456 189.20634920634922,104.33862433862434 189.84126984126985,104.33862433862434 190.47619047619048,104.33862433862434 191.11111111111111,104.12698412698414 191.74603174603175,104.12698412698414 192.3809523809524,104.12698412698414 193.01587301587304,104.12698412698414 193.65079365079367,104.12698412698414 194.2857142857143,104.12698412698414 194.92063492063494,104.33862433862434 195.55555555555557,104.55026455026456 196.1904761904762,104.76190476190477 196.82539682539684,105.18518518518519 197.24867724867727,105.60846560846562 197.6719576719577,106.24338624338625 198.0952380952381,106.87830687830689 198.30687830687833,107.51322751322752 198.51851851851853,108.14814814814815 198.51851851851853,108.78306878306879 198.73015873015873,109.41798941798943 198.94179894179896,110.05291005291006 198.94179894179896,110.6878306878307 199.15343915343917,111.32275132275133 199.15343915343917,111.95767195767196 199.15343915343917,112.5925925925926 199.36507936507937,113.22751322751324 199.36507936507937,113.86243386243387 199.36507936507937,114.49735449735451 199.5767195767196,115.13227513227514 199.5767195767196,115.76719576719577 199.5767195767196,116.4021164021164 199.5767195767196,117.03703703703705 199.7883597883598,117.67195767195768 199.7883597883598,118.30687830687832 199.7883597883598,118.94179894179895 199.7883597883598,119.57671957671958 199.7883597883598,120.21164021164022 199.7883597883598,120.84656084656086 199.7883597883598,121.4814814814815 199.7883597883598,122.11640211640213 199.7883597883598,122.75132275132276 199.7883597883598,123.3862433862434 199.7883597883598,124.02116402116403 199.7883597883598,124.65608465608466 199.7883597883598,125.2910052910053 199.5767195767196,125.92592592592594 199.5767195767196,126.56084656084657 199.5767195767196,127.1957671957672 199.5767195767196,127.83068783068784 199.36507936507937,128.46560846560848 199.36507936507937,129.10052910052912 199.36507936507937,129.73544973544975 199.15343915343917,130.37037037037038 198.94179894179896,131.005291005291 198.73015873015873,131.64021164021165 198.73015873015873,132.27513227513228 198.51851851851853,132.9100529100529 198.51851851851853,133.54497354497354 198.30687830687833,134.17989417989418 198.0952380952381,134.81481481481484 198.0952380952381,135.44973544973547 197.8835978835979,136.0846560846561 197.6719576719577,136.71957671957674 197.6719576719577,137.35449735449737 197.46031746031747,137.989417989418 197.46031746031747,138.62433862433863 197.24867724867727,139.25925925925927 197.03703703703704,139.8941798941799 196.82539682539684,140.52910052910053 196.61375661375664,141.16402116402116 195.76719576719577,144.55026455026456" style="fill:none; stroke:#999900; stroke-width:1.0"  /><polyline points="195.76719576719577,144.55026455026456 192.16931216931218,145.1851851851852 191.53439153439155,145.1851851851852 190.8994708994709,145.39682539682542 190.26455026455028,145.39682539682542 189.62962962962965,145.60846560846562 188.99470899470901,145.60846560846562 188.35978835978838,145.82010582010582 187.72486772486775,145.82010582010582 187.08994708994712,145.82010582010582 186.45502645502646,146.03174603174605 185.82010582010582,146.24338624338625 185.1851851851852,146.24338624338625 184.55026455026456,146.24338624338625 183.91534391534393,146.45502645502646 183.2804232804233,146.45502645502646 182.64550264550266,146.45502645502646 182.01058201058203,146.66666666666669 181.3756613756614,146.66666666666669 180.74074074074076,146.66666666666669 180.10582010582013,146.66666666666669 179.4708994708995,146.8783068783069 178.83597883597884,146.8783068783069 178.2010582010582,146.8783068783069 177.56613756613757,147.0899470899471 176.93121693121694,147.0899470899471 176.2962962962963,147.0899470899471 175.66137566137567,147.0899470899471 175.02645502645504,147.0899470899471 174.3915343915344,147.0899470899471 173.75661375661377,147.0899470899471 173.12169312169314,147.30158730158732 172.4867724867725,147.30158730158732 171.85185185185188,147.30158730158732 171.21693121693124,147.30158730158732 170.58201058201058,147.30158730158732 169.94708994708995,147.30158730158732 169.31216931216932,147.30158730158732 168.67724867724868,147.30158730158732 168.04232804232805,147.30158730158732 167.40740740740742,147.30158730158732 166.7724867724868,147.30158730158732 166.13756613756615,147.51322751322752 165.50264550264552,147.30158730158732 164.8677248677249,147.30158730158732 164.23280423280426,147.30158730158732 163.59788359788362,147.30158730158732 162.96296296296296,147.30158730158732 162.32804232804233,147.30158730158732 161.6931216931217,147.30158730158732 161.05820105820106,147.30158730158732 160.42328042328043,147.30158730158732 159.7883597883598,147.30158730158732 159.15343915343917,147.30158730158732 158.51851851851853,147.30158730158732 157.8835978835979,147.0899470899471 157.24867724867727,147.0899470899471 156.61375661375664,147.0899470899471 155.978835978836,147.0899470899471 155.34391534391534,147.0899470899471 154.7089947089947,147.0899470899471 154.07407407407408,146.8783068783069 153.43915343915344,146.8783068783069 152.8042328042328,146.8783068783069 152.16931216931218,146.8783068783069 151.53439153439155,146.8783068783069 150.8994708994709,146.66666666666669 150.26455026455028,146.66666666666669 149.62962962962965,146.66666666666669 148.99470899470901,146.45502645502646 148.35978835978838,146.45502645502646 147.72486772486775,146.45502645502646 147.0899470899471,146.24338624338625 146.45502645502646,146.24338624338625 145.82010582010582,146.24338624338625 145.1851851851852,146.03174603174605 144.55026455026456,145.82010582010582 143.91534391534393,145.82010582010582 143.2804232804233,145.60846560846562 142.64550264550266,145.60846560846562 142.01058201058203,145.39682539682542 141.3756613756614,145.39682539682542 140.74074074074076,145.39682539682542 140.10582010582013,145.39682539682542 139.47089947089947,145.1851851851852 138.83597883597884,145.1851851851852 138.2010582010582,145.1851851851852 137.56613756613757,145.1851851851852 136.93121693121694,145.1851851851852 136.2962962962963,145.1851851851852 135.66137566137567,145.39682539682542 135.02645502645504,145.60846560846562 134.3915343915344,145.60846560846562 133.75661375661377,145.82010582010582 133.12169312169314,146.03174603174605 132.4867724867725,146.45502645502646 131.85185185185185,146.66666666666669 131.21693121693121,147.0899470899471 130.58201058201058,147.30158730158732 129.94708994708995,147.72486772486775 129.73544973544975,148.35978835978838 129.31216931216932,148.99470899470901 128.88888888888889,149.41798941798942 128.46560846560848,149.84126984126985 128.25396825396825,150.47619047619048 128.04232804232805,151.11111111111111 127.83068783068784,151.74603174603175 127.40740740740742,152.38095238095238 127.40740740740742,153.01587301587304 127.40740740740742,153.65079365079367 127.1957671957672,154.2857142857143 127.1957671957672,154.92063492063494 127.1957671957672,155.55555555555557 127.1957671957672,156.1904761904762 127.1957671957672,156.82539682539684 127.40740740740742,157.46031746031747 127.61904761904763,158.0952380952381 127.61904761904763,158.73015873015873 127.83068783068784,159.36507936507937 128.04232804232805,160.0 128.46560846560848,160.63492063492066 128.88888888888889,161.05820105820106 129.31216931216932,161.4814814814815 129.52380952380955,162.11640211640213 129.94708994708995,162.53968253968256 130.58201058201058,162.96296296296296 131.21693121693121,163.3862433862434 131.85185185185185,163.80952380952382 132.27513227513228,164.23280423280426 132.9100529100529,164.65608465608466 133.12169312169314,165.2910052910053 133.54497354497354,165.71428571428572 133.96825396825398,166.13756613756615 134.3915343915344,166.56084656084658 135.02645502645504,166.56084656084658 135.44973544973547,166.984126984127 135.66137566137567,167.61904761904762 136.0846560846561,168.04232804232805 136.5079365079365,168.67724867724868 136.93121693121694,169.31216931216932 137.14285714285717,169.94708994708995 137.35449735449737,170.58201058201058 137.56613756613757,171.21693121693124 137.7777777777778,171.85185185185188 137.7777777777778,172.4867724867725 138.2010582010582,172.9100529100529 138.2010582010582,173.54497354497354 138.2010582010582,174.1798941798942 138.2010582010582,174.81481481481484 137.989417989418,175.44973544973547 137.7777777777778,176.0846560846561 137.56613756613757,176.71957671957674 137.35449735449737,177.35449735449737 136.93121693121694,177.989417989418 136.71957671957674,178.62433862433863 136.2962962962963,179.04761904761907 136.0846560846561,179.6825396825397 135.66137566137567,180.10582010582013 135.23809523809524,180.74074074074076 134.81481481481484,181.3756613756614 134.3915343915344,182.01058201058203 133.96825396825398,182.64550264550266 133.54497354497354,183.0687830687831 133.12169312169314,183.70370370370372 132.6984126984127,184.12698412698415 132.27513227513228,184.55026455026456 131.85185185185185,184.973544973545 131.42857142857144,185.60846560846562 130.7936507936508,186.03174603174605 130.37037037037038,186.45502645502646 129.94708994708995,186.8783068783069 129.31216931216932,187.30158730158732 128.88888888888889,187.72486772486775 128.25396825396825,188.14814814814815 127.61904761904763,188.57142857142858 126.98412698412699,188.99470899470901 126.34920634920636,189.20634920634922 125.71428571428572,189.41798941798945 125.07936507936509,189.62962962962965 124.44444444444446,189.84126984126985 123.80952380952382,190.05291005291008 123.17460317460318,190.26455026455028 122.53968253968254,190.47619047619048 121.90476190476191,190.47619047619048 121.26984126984128,190.6878306878307 120.63492063492065,190.8994708994709 120.00000000000001,190.8994708994709 119.36507936507937,190.8994708994709 118.73015873015873,191.11111111111111 118.0952380952381,191.11111111111111 117.46031746031747,191.11111111111111 116.82539682539684,191.11111111111111 116.1904761904762,191.32275132275134 115.55555555555557,191.32275132275134 114.92063492063492,191.32275132275134 114.28571428571429,191.32275132275134 113.65079365079366,191.11111111111111 113.01587301587303,191.11111111111111 112.3809523809524,191.11111111111111 111.74603174603176,190.8994708994709 111.11111111111111,190.8994708994709 110.47619047619048,190.6878306878307 109.84126984126985,190.47619047619048 109.20634920634922,190.26455026455028 108.57142857142858,189.84126984126985 107.93650793650795,189.62962962962965 107.3015873015873,189.20634920634922 106.66666666666667,188.99470899470901 106.03174603174604,188.78306878306879 105.60846560846562,188.35978835978838 104.97354497354497,188.14814814814815 104.33862433862434,187.72486772486775 103.70370370370371,187.30158730158732 103.06878306878308,186.8783068783069 102.43386243386244,186.45502645502646 102.01058201058201,186.03174603174605 101.5873015873016,185.60846560846562 101.16402116402116,185.1851851851852 100.74074074074075,184.7619047619048 100.52910052910053,184.12698412698415 100.10582010582011,183.4920634920635 99.8941798941799,182.85714285714286 99.68253968253968,182.22222222222223 99.47089947089948,181.5873015873016 99.47089947089948,180.95238095238096 99.47089947089948,180.31746031746033 99.47089947089948,179.6825396825397 99.47089947089948,179.04761904761907 99.47089947089948,178.41269841269843 99.68253968253968,177.7777777777778 99.68253968253968,177.14285714285717 100.10582010582011,176.50793650793653 100.31746031746033,175.87301587301587 100.74074074074075,175.23809523809524 100.95238095238096,174.6031746031746 101.37566137566138,173.96825396825398 101.79894179894181,173.33333333333334 102.01058201058201,172.6984126984127 102.22222222222223,172.06349206349208 102.64550264550266,171.42857142857144 102.85714285714286,170.7936507936508 103.28042328042329,170.15873015873018 103.70370370370371,169.52380952380955 103.91534391534393,168.8888888888889 104.33862433862434,168.46560846560848 104.55026455026456,167.83068783068785 104.97354497354497,167.40740740740742 105.3968253968254,166.7724867724868 105.82010582010582,166.13756613756615 106.03174603174604,165.50264550264552 106.45502645502647,165.0793650793651 106.66666666666667,164.44444444444446 107.0899470899471,164.02116402116403 107.3015873015873,163.3862433862434 107.72486772486774,162.75132275132276 107.93650793650795,162.11640211640213 108.14814814814815,161.4814814814815 108.35978835978837,160.84656084656086 108.57142857142858,160.21164021164023 108.994708994709,159.5767195767196 108.994708994709,158.94179894179896 109.20634920634922,158.30687830687833 109.41798941798943,157.67195767195767 109.41798941798943,157.03703703703704 109.62962962962963,156.4021164021164 109.62962962962963,155.76719576719577 109.84126984126985,155.13227513227514 109.84126984126985,154.4973544973545 109.84126984126985,153.86243386243387 109.84126984126985,153.22751322751324 109.84126984126985,152.5925925925926 109.62962962962963,151.95767195767198 109.62962962962963,151.32275132275134 109.62962962962963,150.6878306878307 109.41798941798943,150.05291005291005 109.41798941798943,149.41798941798942 109.20634920634922,148.78306878306879 108.994708994709,148.14814814814815 108.994708994709,147.51322751322752 108.78306878306879,146.8783068783069 108.35978835978837,146.24338624338625 108.14814814814815,145.60846560846562 107.93650793650795,144.973544973545 107.72486772486774,144.33862433862436 107.3015873015873,143.70370370370372 106.87830687830689,143.0687830687831 106.66666666666667,142.43386243386246 106.24338624338625,142.01058201058203 106.03174603174604,141.3756613756614 105.60846560846562,140.95238095238096 105.18518518518519,140.31746031746033 104.76190476190477,139.8941798941799 104.33862433862434,139.25925925925927 103.91534391534393,138.83597883597884 103.4920634920635,138.41269841269843 103.06878306878308,137.989417989418 102.64550264550266,137.56613756613757 102.01058201058201,137.14285714285717 101.37566137566138,136.71957671957674 100.95238095238096,136.2962962962963 100.31746031746033,136.5079365079365 100.31746031746033,135.87301587301587 99.68253968253968,135.44973544973547 99.04761904761905,135.02645502645504 98.41269841269842,134.6031746031746 97.77777777777779,134.17989417989418 97.14285714285715,133.96825396825398 96.71957671957672,133.54497354497354 96.08465608465609,133.33333333333334 95.44973544973546,133.12169312169314 94.81481481481482,132.6984126984127 94.17989417989419,132.4867724867725 93.54497354497356,132.4867724867725 92.91005291005291,132.06349206349208 92.27513227513228,131.85185185185185 91.64021164021165,131.85185185185185 91.00529100529101,131.64021164021165 90.37037037037038,131.42857142857144 89.73544973544975,131.21693121693121 89.1005291005291,131.005291005291 88.46560846560847,131.005291005291 87.83068783068784,130.7936507936508 87.1957671957672,130.7936507936508 86.56084656084657,130.58201058201058 85.92592592592594,130.58201058201058 85.29100529100529,130.37037037037038 84.65608465608466,130.37037037037038 84.02116402116403,130.37037037037038 83.3862433862434,130.15873015873018 82.75132275132276,130.15873015873018 82.11640211640213,130.15873015873018 81.48148148148148,130.15873015873018 80.84656084656085,129.94708994708995 80.21164021164022,129.94708994708995 79.57671957671958,129.94708994708995 78.94179894179895,129.94708994708995 78.30687830687832,129.94708994708995 77.67195767195767,129.94708994708995 77.03703703703704,129.94708994708995 76.4021164021164,129.94708994708995 75.76719576719577,129.94708994708995 75.13227513227514,129.94708994708995 74.49735449735451,129.94708994708995 73.86243386243387,129.94708994708995 73.22751322751323,129.94708994708995 72.5925925925926,129.94708994708995 71.95767195767196,129.94708994708995 71.32275132275133,129.94708994708995 70.6878306878307,129.94708994708995 70.05291005291006,129.94708994708995 69.41798941798942,129.94708994708995 68.78306878306879,129.94708994708995 68.14814814814815,129.94708994708995 67.51322751322752,129.94708994708995 66.87830687830689,130.15873015873018 66.24338624338625,130.15873015873018 65.60846560846561,130.15873015873018 64.97354497354497,130.15873015873018 64.33862433862434,130.15873015873018 63.70370370370371,130.15873015873018 60.31746031746032,130.15873015873018" style="fill:none; stroke:#00aa99; stroke-width:1.0"  /><polyline points="60.31746031746032,130.15873015873018 59.25925925925927,127.40740740740742 58.83597883597884,126.77248677248679 58.62433862433863,126.13756613756615 58.41269841269842,125.5026455026455 58.2010582010582,124.86772486772487 57.989417989417994,124.23280423280424 57.777777777777786,123.59788359788361 57.56613756613757,122.96296296296298 57.35449735449736,122.32804232804234 57.142857142857146,121.6931216931217 56.93121693121694,121.05820105820106 56.71957671957672,120.42328042328043 56.50793650793651,119.7883597883598 56.2962962962963,119.15343915343917 55.87301587301588,118.51851851851853 55.661375661375665,117.88359788359789 55.449735449735456,117.24867724867725 55.23809523809524,116.61375661375662 54.81481481481482,115.97883597883599 54.60317460317461,115.34391534391536 54.39153439153439,114.70899470899472 53.968253968253975,114.07407407407408 53.75661375661376,113.43915343915344 53.333333333333336,112.80423280423281 53.12169312169313,112.16931216931218 52.6984126984127,111.53439153439155 52.48677248677249,110.89947089947091 52.06349206349207,110.26455026455027 51.851851851851855,109.62962962962963 51.42857142857143,108.994708994709 51.21693121693122,108.35978835978837 50.7936507936508,107.72486772486774 50.58201058201058,107.0899470899471 50.370370370370374,106.45502645502647 50.158730158730165,105.82010582010582 49.94708994708995,105.18518518518519 49.73544973544974,104.55026455026456 49.31216931216932,103.91534391534393 49.31216931216932,103.28042328042329 48.88888888888889,102.64550264550266 48.677248677248684,102.01058201058201 48.46560846560847,101.37566137566138 48.25396825396826,100.74074074074075 48.25396825396826,100.10582010582011 48.042328042328045,99.47089947089948 48.042328042328045,98.83597883597885 47.830687830687836,98.2010582010582 47.830687830687836,97.56613756613757 47.61904761904762,96.93121693121694 47.61904761904762,96.2962962962963 47.61904761904762,95.66137566137567 47.61904761904762,95.02645502645504 47.40740740740741,94.39153439153439 47.61904761904762,93.75661375661376 47.61904761904762,93.12169312169313 47.61904761904762,92.4867724867725 47.61904761904762,91.85185185185186 47.61904761904762,91.21693121693123 47.830687830687836,90.58201058201058 47.830687830687836,89.94708994708995 47.830687830687836,89.31216931216932 48.042328042328045,88.67724867724868 48.042328042328045,88.04232804232805 48.25396825396826,87.40740740740742 48.25396825396826,86.77248677248677 48.46560846560847,86.13756613756614 48.46560846560847,85.5026455026455 48.677248677248684,84.86772486772487 48.677248677248684,84.23280423280424 48.88888888888889,83.59788359788361 49.1005291005291,82.96296296296298 49.1005291005291,82.32804232804233 49.31216931216932,81.6931216931217 49.31216931216932,81.05820105820106 49.523809523809526,80.42328042328043 49.73544973544974,79.7883597883598 49.73544973544974,79.15343915343917 49.94708994708995,78.51851851851852 49.94708994708995,77.88359788359789 50.158730158730165,77.24867724867725 50.370370370370374,76.61375661375662 50.370370370370374,75.97883597883599 50.58201058201058,75.34391534391536 50.58201058201058,74.70899470899471 50.7936507936508,74.07407407407408 50.7936507936508,73.43915343915344 51.00529100529101,72.80423280423281 51.00529100529101,72.16931216931218 51.21693121693122,71.53439153439155 51.21693121693122,70.8994708994709 51.21693121693122,70.26455026455027 51.42857142857143,69.62962962962963 51.42857142857143,68.994708994709 51.42857142857143,68.35978835978837 51.00529100529101,67.72486772486774 51.00529100529101,67.08994708994709 51.00529100529101,66.45502645502646 50.7936507936508,65.82010582010582 50.7936507936508,65.18518518518519 50.58201058201058,64.55026455026456 50.370370370370374,63.91534391534392 50.370370370370374,63.280423280423285 49.94708994708995,62.64550264550265 49.94708994708995,62.01058201058201 49.73544973544974,61.37566137566138 49.523809523809526,60.74074074074075 49.1005291005291,60.10582010582011 48.88888888888889,59.470899470899475 48.677248677248684,58.83597883597884 48.25396825396826,58.2010582010582 48.042328042328045,57.56613756613757 47.61904761904762,56.93121693121694 47.195767195767196,56.2962962962963 46.77248677248678,55.87301587301588 46.349206349206355,55.23809523809524 45.92592592592593,54.81481481481482 45.29100529100529,54.39153439153439 44.65608465608466,53.968253968253975 44.021164021164026,53.75661375661376 43.386243386243386,53.54497354497355 42.75132275132275,53.333333333333336 42.11640211640212,53.12169312169313 41.48148148148149,53.12169312169313 40.84656084656085,53.12169312169313 40.211640211640216,53.12169312169313 39.57671957671958,53.12169312169313 38.94179894179894,53.333333333333336 38.30687830687831,53.54497354497355 37.67195767195768,53.75661375661376 37.03703703703704,54.179894179894184 36.402116402116405,54.39153439153439 35.76719576719577,54.81481481481482 35.13227513227513,55.02645502645503 34.70899470899471,55.661375661375665 34.074074074074076,56.08465608465609 33.43915343915344,56.50793650793651 32.804232804232804,56.93121693121694 32.38095238095239,57.35449735449736 31.95767195767196,57.777777777777786 31.322751322751326,57.989417989417994 30.68783068783069,58.41269841269842 30.052910052910054,58.83597883597884 29.41798941798942,59.25925925925927 28.783068783068785,59.470899470899475 28.35978835978836,59.8941798941799 27.724867724867728,60.10582010582011 27.089947089947092,60.31746031746032 26.666666666666668,60.74074074074075 26.031746031746035,60.952380952380956 25.3968253968254,61.16402116402117 24.973544973544975,61.58730158730159 24.338624338624342,61.798941798941804 23.703703703703706,62.01058201058201 23.06878306878307,62.22222222222223 22.433862433862437,62.43386243386244 21.7989417989418,62.64550264550265 21.375661375661377,63.06878306878308 20.740740740740744,63.06878306878308 20.105820105820108,63.280423280423285 19.47089947089947,63.492063492063494 18.83597883597884,63.70370370370371 18.201058201058203,63.91534391534392 17.566137566137566,63.91534391534392 16.931216931216934,63.91534391534392 16.296296296296298,64.12698412698413 15.661375661375663,64.12698412698413 15.026455026455027,64.33862433862434 14.391534391534393,64.33862433862434 13.756613756613758,64.33862433862434 13.121693121693122,64.33862433862434 12.486772486772487,64.33862433862434 11.851851851851853,64.12698412698413 11.216931216931219,64.12698412698413 10.582010582010582,64.12698412698413 9.947089947089948,63.70370370370371 9.312169312169313,63.492063492063494 8.677248677248677,63.280423280423285 8.042328042328043,62.85714285714286 7.407407407407408,62.43386243386244 6.772486772486773,62.01058201058201 6.137566137566138,61.58730158730159 5.714285714285714,61.16402116402117 5.291005291005291,60.74074074074075 4.867724867724868,60.31746031746032 4.444444444444445,59.682539682539684 4.021164021164021,59.25925925925927 3.597883597883598,58.62433862433863 3.3862433862433865,57.989417989417994 2.9629629629629632,57.56613756613757 2.7513227513227516,56.93121693121694 2.53968253968254,56.2962962962963 2.1164021164021167,55.661375661375665 1.9047619047619049,55.02645502645503 1.6931216931216932,54.39153439153439 1.4814814814814816,53.75661375661376 1.26984126984127,53.12169312169313 1.0582010582010584,52.48677248677249 0.8465608465608466,51.851851851851855 0.634920634920635,51.21693121693122 0.634920634920635,50.58201058201058 0.4232804232804233,49.94708994708995 0.4232804232804233,49.31216931216932 0.21164021164021166,48.677248677248684 0.21164021164021166,48.042328042328045 0.21164021164021166,47.40740740740741 0.21164021164021166,46.77248677248678 0.21164021164021166,46.13756613756614 0.4232804232804233,45.50264550264551 0.4232804232804233,44.867724867724874 0.4232804232804233,44.232804232804234 0.634920634920635,43.5978835978836 0.634920634920635,42.96296296296297 0.8465608465608466,42.32804232804233 0.8465608465608466,41.6931216931217 1.0582010582010584,41.058201058201064 1.26984126984127,40.423280423280424 1.4814814814814816,39.78835978835979 1.6931216931216932,39.15343915343916 1.9047619047619049,38.51851851851852 2.1164021164021167,37.883597883597886 2.3280423280423284,37.248677248677254 2.7513227513227516,36.613756613756614 2.9629629629629632,35.97883597883598 3.3862433862433865,35.34391534391535 3.8095238095238098,34.70899470899471 4.2328042328042335,34.074074074074076 4.656084656084657,33.43915343915344 5.07936507936508,33.01587301587302 5.291005291005291,32.38095238095239 5.714285714285714,31.95767195767196 6.137566137566138,31.53439153439154 6.772486772486773,31.111111111111114 7.195767195767196,30.68783068783069 7.830687830687832,30.264550264550266 8.465608465608467,29.629629629629633 9.100529100529101,29.841269841269842 9.735449735449736,29.629629629629633 10.370370370370372,29.41798941798942 11.005291005291006,29.41798941798942 11.640211640211641,29.20634920634921 12.275132275132275,29.20634920634921 12.910052910052912,29.20634920634921 13.544973544973546,29.20634920634921 14.17989417989418,29.20634920634921 14.814814814814817,29.20634920634921 15.449735449735451,29.20634920634921 16.084656084656086,29.41798941798942 16.71957671957672,29.41798941798942 17.354497354497354,29.629629629629633 17.98941798941799,29.841269841269842 18.624338624338627,30.052910052910054 19.25925925925926,30.264550264550266 19.894179894179896,30.476190476190478 20.31746031746032,30.899470899470902 20.952380952380953,31.111111111111114 21.58730158730159,31.53439153439154 22.222222222222225,31.95767195767196 22.857142857142858,32.16931216931217 23.492063492063494,32.592592592592595 24.12698412698413,32.592592592592595 24.55026455026455,33.01587301587302 25.185185185185187,33.22751322751323 25.820105820105823,33.43915343915344 26.455026455026456,33.86243386243387 27.089947089947092,34.074074074074076 27.513227513227516,34.4973544973545 28.14814814814815,34.70899470899471 28.783068783068785,35.13227513227513 29.41798941798942,35.34391534391535 29.841269841269842,35.76719576719577 30.476190476190478,35.97883597883598 31.111111111111114,36.402116402116405 31.746031746031747,36.613756613756614 32.38095238095239,36.82539682539683 33.01587301587302,37.248677248677254 33.65079365079365,37.248677248677254 34.28571428571429,37.46031746031746 34.920634920634924,37.46031746031746 35.55555555555556,37.67195767195768 36.19047619047619,37.67195767195768 36.82539682539683,37.46031746031746 37.46031746031746,37.248677248677254 38.095238095238095,37.03703703703704 38.730158730158735,36.613756613756614 39.36507936507937,36.19047619047619 39.78835978835979,35.55555555555556 40.211640211640216,35.13227513227513 40.63492063492064,34.70899470899471 41.058201058201064,34.28571428571429 41.48148148148149,33.65079365079365 41.904761904761905,33.01587301587302 42.11640211640212,32.38095238095239 42.539682539682545,31.746031746031747 42.96296296296297,31.111111111111114 43.386243386243386,30.476190476190478 43.5978835978836,29.841269841269842 44.021164021164026,29.41798941798942 44.232804232804234,28.783068783068785 44.65608465608466,28.14814814814815 44.867724867724874,27.513227513227516 45.29100529100529,26.87830687830688 45.714285714285715,26.243386243386244 45.92592592592593,25.60846560846561 46.13756613756614,24.973544973544975 46.349206349206355,24.338624338624342 46.77248677248678,23.703703703703706 46.98412698412699,23.06878306878307 47.195767195767196,22.433862433862437 47.40740740740741,21.7989417989418 47.61904761904762,21.164021164021165 47.830687830687836,20.529100529100532 48.25396825396826,19.894179894179896 48.25396825396826,19.25925925925926 48.46560846560847,18.624338624338627 48.677248677248684,17.98941798941799 48.88888888888889,17.354497354497354 49.1005291005291,16.71957671957672 49.31216931216932,16.084656084656086 49.523809523809526,15.449735449735451 49.523809523809526,14.814814814814817 49.73544973544974,14.17989417989418 49.94708994708995,13.544973544973546 49.94708994708995,12.910052910052912 50.158730158730165,12.275132275132275 50.158730158730165,11.640211640211641 50.158730158730165,11.005291005291006 50.370370370370374,10.370370370370372 50.370370370370374,9.735449735449736 50.370370370370374,9.100529100529101 50.370370370370374,8.465608465608467 50.370370370370374,7.830687830687832 50.370370370370374,7.195767195767196 50.370370370370374,6.560846560846561 50.370370370370374,5.9259259259259265 50.370370370370374,5.291005291005291 50.370370370370374,4.656084656084657 50.370370370370374,4.021164021164021 50.370370370370374,0.634920634920635" style="fill:none; stroke:#3300bb; stroke-width:1.0"  /><circle cx="50.370370370370374" cy="0.634920634920635" r="2.0" style="fill:none; stroke:#000000aa; stroke-width:0.25" /><circle cx="188.35978835978838" cy="32.592592592592595" r="2.0" style="fill:none; stroke:#000000aa; stroke-width:0.25" /><circle cx="195.76719576719577" cy="144.55026455026456" r="2.0" style="fill:none; stroke:#000000aa; stroke-width:0.25" /><circle cx="60.31746031746032" cy="130.15873015873018" r="2.0" style="fill:none; stroke:#000000aa; stroke-width:0.25" /><circle cx="50.58201058201058" cy="0.634920634920635" r="2.0" style="fill:none; stroke:#ff3366aa; stroke-width:0.25" /><circle cx="188.78306878306879" cy="32.804232804232804" r="2.0" style="fill:none; stroke:#ff3366aa; stroke-width:0.25" /><circle cx="195.34391534391537" cy="144.55026455026456" r="2.0" style="fill:none; stroke:#ff3366aa; stroke-width:0.25" /><circle cx="60.31746031746032" cy="130.58201058201058" r="2.0" style="fill:none; stroke:#ff3366aa; stroke-width:0.25" /><polyline points="62.01058201058201,0.4232804232804233 61.37566137566138,0.4232804232804233 60.74074074074075,0.4232804232804233 60.10582010582011,0.4232804232804233 59.470899470899475,0.4232804232804233 58.83597883597884,0.4232804232804233 58.2010582010582,0.634920634920635 57.56613756613757,0.634920634920635 56.93121693121694,0.634920634920635 56.2962962962963,0.634920634920635 55.661375661375665,0.634920634920635 55.02645502645503,0.634920634920635 54.39153439153439,0.634920634920635 53.75661375661376,0.634920634920635" style="fill:none; stroke:#001100; stroke-width:1.0" /><polyline points="50.158730158730165,12.275132275132275 50.158730158730165,11.640211640211641 50.158730158730165,11.005291005291006 50.370370370370374,10.370370370370372 50.370370370370374,9.735449735449736 50.370370370370374,9.100529100529101 50.370370370370374,8.465608465608467 50.370370370370374,7.830687830687832 50.370370370370374,7.195767195767196 50.370370370370374,6.560846560846561 50.370370370370374,5.9259259259259265 50.370370370370374,5.291005291005291 50.370370370370374,4.656084656084657 50.370370370370374,4.021164021164021" style="fill:none; stroke:#000011; stroke-width:1.0" /><polyline points="189.62962962962965,44.232804232804234 189.41798941798945,43.5978835978836 189.41798941798945,42.96296296296297 189.20634920634922,42.32804232804233 188.99470899470901,41.6931216931217 188.99470899470901,41.058201058201064 188.78306878306879,40.423280423280424 188.78306878306879,39.78835978835979 188.78306878306879,39.15343915343916 188.78306878306879,38.51851851851852 188.57142857142858,37.883597883597886 188.78306878306879,37.248677248677254 188.78306878306879,36.613756613756614 188.78306878306879,35.97883597883598" style="fill:none; stroke:#001100; stroke-width:1.0" /><polyline points="177.7777777777778,29.841269841269842 178.41269841269843,30.052910052910054 179.04761904761907,30.264550264550266 179.6825396825397,30.264550264550266 180.31746031746033,30.476190476190478 180.95238095238096,30.68783068783069 181.5873015873016,30.899470899470902 182.22222222222223,30.899470899470902 182.85714285714286,31.111111111111114 183.4920634920635,31.322751322751326 184.12698412698415,31.53439153439154 184.7619047619048,31.746031746031747 185.39682539682542,31.746031746031747" style="fill:none; stroke:#000011; stroke-width:1.0" /><polyline points="183.91534391534393,146.45502645502646 184.55026455026456,146.24338624338625 185.1851851851852,146.24338624338625 185.82010582010582,146.24338624338625 186.45502645502646,146.03174603174605 187.08994708994712,145.82010582010582 187.72486772486775,145.82010582010582 188.35978835978838,145.82010582010582 188.99470899470901,145.60846560846562 189.62962962962965,145.60846560846562 190.26455026455028,145.39682539682542 190.8994708994709,145.39682539682542 191.53439153439155,145.1851851851852 192.16931216931218,145.1851851851852" style="fill:none; stroke:#001100; stroke-width:1.0" /><polyline points="198.51851851851853,133.54497354497354 198.30687830687833,134.17989417989418 198.0952380952381,134.81481481481484 198.0952380952381,135.44973544973547 197.8835978835979,136.0846560846561 197.6719576719577,136.71957671957674 197.6719576719577,137.35449735449737 197.46031746031747,137.989417989418 197.46031746031747,138.62433862433863 197.24867724867727,139.25925925925927 197.03703703703704,139.8941798941799 196.82539682539684,140.52910052910053 196.61375661375664,141.16402116402116" style="fill:none; stroke:#000011; stroke-width:1.0" /><polyline points="56.50793650793651,119.7883597883598 56.71957671957672,120.42328042328043 56.93121693121694,121.05820105820106 57.142857142857146,121.6931216931217 57.35449735449736,122.32804232804234 57.56613756613757,122.96296296296298 57.777777777777786,123.59788359788361 57.989417989417994,124.23280423280424 58.2010582010582,124.86772486772487 58.41269841269842,125.5026455026455 58.62433862433863,126.13756613756615 58.83597883597884,126.77248677248679 59.25925925925927,127.40740740740742" style="fill:none; stroke:#001100; stroke-width:1.0" /><polyline points="71.95767195767196,129.94708994708995 71.32275132275133,129.94708994708995 70.6878306878307,129.94708994708995 70.05291005291006,129.94708994708995 69.41798941798942,129.94708994708995 68.78306878306879,129.94708994708995 68.14814814814815,129.94708994708995 67.51322751322752,129.94708994708995 66.87830687830689,130.15873015873018 66.24338624338625,130.15873015873018 65.60846560846561,130.15873015873018 64.97354497354497,130.15873015873018 64.33862433862434,130.15873015873018 63.70370370370371,130.15873015873018" style="fill:none; stroke:#000011; stroke-width:1.0" /><polyline points="53.75661375661376,0.634920634920635 32.592592592592595,1.26984126984127" style="fill:none; stroke:#ffaa00; stroke-width:0.4" /><polyline points="50.370370370370374,4.021164021164021 51.00529100529101,-17.142857142857146" style="fill:none; stroke:#aaff00; stroke-width:0.4" /><polyline points="188.78306878306879,35.97883597883598 186.66666666666669,15.026455026455027" style="fill:none; stroke:#ffaa00; stroke-width:0.4" /><polyline points="185.39682539682542,31.746031746031747 205.92592592592595,36.82539682539683" style="fill:none; stroke:#aaff00; stroke-width:0.4" /><polyline points="192.16931216931218,145.1851851851852 213.12169312169314,142.01058201058203" style="fill:none; stroke:#ffaa00; stroke-width:0.4" /><polyline points="196.61375661375664,141.16402116402116 191.53439153439155,161.6931216931217" style="fill:none; stroke:#aaff00; stroke-width:0.4" /><polyline points="59.25925925925927,127.40740740740742 66.45502645502646,147.30158730158732" style="fill:none; stroke:#ffaa00; stroke-width:0.4" /><polyline points="63.70370370370371,130.15873015873018 42.539682539682545,130.7936507936508" style="fill:none; stroke:#aaff00; stroke-width:0.4" /><circle cx="111.32275132275133" cy="84.86772486772487" r="1.0" style="fill:#444444; stroke-width:0" /><circle cx="120.42328042328043" cy="102.43386243386244" r="10.582010582010582" style="fill:#ff770022; stroke-width:0" /><circle cx="120.42328042328043" cy="102.43386243386244" r="1.0" style="fill:#ff7700; stroke-width:0" /></svg>