<?xml version="1.0" encoding="UTF-8" standalone="no"?><svg width="562.5396825396825" height="506.0317460317461" viewBox="-10 -10 207.51322751322752 188.67724867724868" xmlns="http://www.w3.org/2000/svg" xmlns:xlink="http://www.w3.org/1999/xlink"><polyline points="12.063492063492065,10.370370370370372 16.296296296296298,9.100529100529101 16.931216931216934,8.88888888888889 17.566137566137566,8.88888888888889 18.201058201058203,8.677248677248677 18.624338624338627,8.253968253968255 19.25925925925926,8.253968253968255 19.894179894179896,8.042328042328043 20.529100529100532,7.830687830687832 21.164021164021165,7.6190476190476195 21.7989417989418,7.6190476190476195 22.433862433862437,7.195767195767196 23.06878306878307,6.984126984126985 23.703703703703706,6.560846560846561 24.338624338624342,6.560846560846561 24.973544973544975,6.34920634920635 25.60846560846561,6.137566137566138 26.243386243386244,5.9259259259259265 26.87830687830688,5.9259259259259265 27.513227513227516,5.714285714285714 28.14814814814815,5.714285714285714 28.783068783068785,5.291005291005291 29.41798941798942,5.291005291005291 30.052910052910054,5.291005291005291 30.476190476190478,4.867724867724868 31.111111111111114,4.867724867724868 31.746031746031747,4.867724867724868 32.38095238095239,4.656084656084657 33.01587301587302,4.656084656084657 33.65079365079365,4.444444444444445 34.28571428571429,4.2328042328042335 34.920634920634924,4.021164021164021 35.55555555555556,4.021164021164021 36.19047619047619,3.8095238095238098 36.82539682539683,3.8095238095238098 37.46031746031746,3.597883597883598 38.095238095238095,3.597883597883598 38.730158730158735,3.3862433862433865 39.36507936507937,3.3862433862433865 40.0,3.3862433862433865 40.63492063492064,3.174603174603175 41.26984126984127,3.174603174603175 41.904761904761905,2.9629629629629632 42.539682539682545,2.9629629629629632 43.17460317460318,2.7513227513227516 43.80952380952381,2.7513227513227516 44.44444444444445,2.53968253968254 45.07936507936508,2.53968253968254 45.714285714285715,2.53968253968254 46.349206349206355,2.3280423280423284 46.98412698412699,2.3280423280423284 47.61904761904762,2.1164021164021167 48.25396825396826,2.1164021164021167 48.88888888888889,2.1164021164021167 49.523809523809526,1.9047619047619049 50.158730158730165,1.9047619047619049 50.7936507936508,1.9047619047619049 51.42857142857143,1.9047619047619049 52.06349206349207,1.6931216931216932 52.6984126984127,1.6931216931216932 53.333333333333336,1.6931216931216932 53.968253968253975,1.6931216931216932 54.60317460317461,1.4814814814814816 55.02645502645503,1.9047619047619049 55.661375661375665,1.9047619047619049 56.08465608465609,1.4814814814814816 56.71957671957672,1.4814814814814816 57.35449735449736,1.26984126984127 57.989417989417994,1.26984126984127 58.62433862433863,1.0582010582010584 59.25925925925927,1.0582010582010584 59.8941798941799,1.0582010582010584 60.52910052910053,1.0582010582010584 61.16402116402117,1.26984126984127 61.798941798941804,1.0582010582010584 62.43386243386244,1.0582010582010584 63.06878306878308,1.26984126984127 63.70370370370371,1.0582010582010584 64.33862433862434,1.0582010582010584 64.97354497354497,1.26984126984127 65.60846560846561,1.26984126984127 66.24338624338625,1.26984126984127 66.87830687830689,1.26984126984127 67.51322751322752,1.26984126984127 68.14814814814815,1.26984126984127 68.57142857142858,1.6931216931216932 69.20634920634922,1.6931216931216932 69.84126984126985,1.9047619047619049 70.47619047619048,2.1164021164021167 71.11111111111111,2.1164021164021167 71.74603174603175,2.53968253968254 72.16931216931218,2.9629629629629632 72.5925925925926,3.3862433862433865 72.80423280423281,4.021164021164021 73.01587301587303,4.656084656084657 73.22751322751323,5.291005291005291 73.43915343915344,5.9259259259259265 73.43915343915344,6.560846560846561 73.43915343915344,7.195767195767196 73.22751322751323,7.830687830687832 73.01587301587303,8.465608465608467 72.80423280423281,9.100529100529101 72.38095238095238,9.735449735449736 72.16931216931218,10.370370370370372 71.74603174603175,10.793650793650794 71.53439153439155,11.428571428571429 71.11111111111111,11.851851851851853 70.6878306878307,12.486772486772487 70.47619047619048,13.121693121693122 70.05291005291006,13.756613756613758 69.84126984126985,14.391534391534393 69.41798941798942,15.026455026455027 69.20634920634922,15.661375661375663 68.994708994709,16.296296296296298 68.78306878306879,16.931216931216934 68.57142857142858,17.566137566137566 68.35978835978837,18.201058201058203 68.14814814814815,18.83597883597884 67.93650793650794,19.47089947089947 67.93650793650794,20.105820105820108 68.14814814814815,20.740740740740744 68.14814814814815,21.375661375661377 68.14814814814815,22.010582010582013 67.93650793650794,22.645502645502646 67.93650793650794,23.280423280423282 68.14814814814815,23.915343915343918 68.14814814814815,24.55026455026455 68.14814814814815,25.185185185185187 68.35978835978837,25.820105820105823 68.57142857142858,26.455026455026456 68.78306878306879,27.089947089947092 68.994708994709,27.724867724867728 69.41798941798942,28.14814814814815 69.62962962962963,28.783068783068785 69.84126984126985,29.41798941798942 70.26455026455027,30.052910052910054 70.6878306878307,30.476190476190478 71.11111111111111,31.111111111111114 71.53439153439155,31.53439153439154 71.95767195767196,31.95767195767196 72.38095238095238,32.38095238095239 72.80423280423281,32.804232804232804 73.22751322751323,33.22751322751323 73.86243386243387,33.65079365079365 74.49735449735451,33.86243386243387 75.13227513227514,34.28571428571429 75.76719576719577,34.4973544973545 76.4021164021164,34.920634920634924 77.03703703703704,35.13227513227513 77.67195767195767,35.34391534391535 78.30687830687832,35.76719576719577 78.94179894179895,35.97883597883598 79.57671957671958,35.97883597883598 80.0,36.402116402116405 80.63492063492065,36.613756613756614 81.26984126984128,36.613756613756614 81.90476190476191,36.82539682539683 82.53968253968254,36.82539682539683 83.17460317460318,37.03703703703704 83.80952380952381,37.248677248677254 84.44444444444446,37.03703703703704 85.07936507936509,37.248677248677254 85.71428571428572,37.248677248677254 86.34920634920636,37.248677248677254 86.98412698412699,37.248677248677254 87.61904761904762,37.248677248677254 88.25396825396827,37.248677248677254 88.8888888888889,37.248677248677254 89.52380952380953,37.248677248677254 90.15873015873017,37.03703703703704 90.7936507936508,37.03703703703704 91.42857142857143,37.03703703703704 92.06349206349208,36.82539682539683 92.69841269841271,36.613756613756614 93.33333333333334,36.402116402116405 93.96825396825398,36.613756613756614 94.39153439153439,36.19047619047619 95.02645502645504,35.97883597883598 95.66137566137567,35.97883597883598 96.2962962962963,35.76719576719577 96.93121693121694,35.55555555555556 97.56613756613757,35.34391534391535 98.2010582010582,35.13227513227513 98.83597883597885,34.920634920634924 99.47089947089948,34.70899470899471 100.10582010582011,34.28571428571429 100.74074074074075,34.074074074074076 101.37566137566138,33.86243386243387 102.01058201058201,33.43915343915344 102.64550264550266,33.01587301587302 103.28042328042329,32.804232804232804 103.70370370370371,32.38095238095239 104.33862433862434,31.95767195767196 104.76190476190477,31.53439153439154 105.18518518518519,31.111111111111114 105.60846560846562,30.68783068783069 106.03174603174604,30.264550264550266 106.45502645502647,29.841269841269842 106.66666666666667,29.20634920634921 107.0899470899471,28.571428571428573 107.3015873015873,27.93650793650794 107.51322751322752,27.301587301587304 107.51322751322752,26.666666666666668 107.93650793650795,26.031746031746035 107.93650793650795,25.3968253968254 108.14814814814815,24.761904761904763 108.14814814814815,24.12698412698413 108.14814814814815,23.492063492063494 108.14814814814815,22.857142857142858 108.14814814814815,22.222222222222225 108.14814814814815,21.58730158730159 108.14814814814815,20.952380952380953 108.14814814814815,20.31746031746032 107.72486772486774,19.894179894179896 107.72486772486774,19.25925925925926 107.51322751322752,18.624338624338627 107.3015873015873,17.98941798941799 107.0899470899471,17.354497354497354 106.87830687830689,16.71957671957672 106.66666666666667,16.084656084656086 106.24338624338625,15.661375661375663 106.03174603174604,15.026455026455027 105.82010582010582,14.391534391534393 105.3968253968254,13.96825396825397 104.97354497354497,13.333333333333334 104.55026455026456,12.6984126984127 104.33862433862434,12.063492063492065 103.91534391534393,11.640211640211641 103.4920634920635,11.005291005291006 103.06878306878308,10.370370370370372 102.85714285714286,9.735449735449736 102.43386243386244,9.312169312169313 102.22222222222223,8.677248677248677 102.01058201058201,8.042328042328043 101.79894179894181,7.407407407407408 101.5873015873016,6.772486772486773 101.37566137566138,6.137566137566138 101.37566137566138,5.502645502645503 101.5873015873016,4.867724867724868 101.79894179894181,4.2328042328042335 102.01058201058201,3.597883597883598 102.43386243386244,2.9629629629629632 102.85714285714286,2.3280423280423284 103.28042328042329,1.9047619047619049 103.91534391534393,1.4814814814814816 104.55026455026456,1.0582010582010584 105.18518518518519,1.0582010582010584 105.82010582010582,0.8465608465608466 106.45502645502647,0.634920634920635 107.0899470899471,0.634920634920635 107.72486772486774,0.4232804232804233 108.35978835978837,0.21164021164021166 108.994708994709,0.634920634920635 109.62962962962963,0.4232804232804233 110.26455026455027,0.634920634920635 110.89947089947091,0.634920634920635 111.53439153439155,0.634920634920635 112.16931216931218,0.8465608465608466 112.80423280423281,0.634920634920635 113.43915343915344,0.8465608465608466 114.07407407407408,1.0582010582010584 114.70899470899472,1.0582010582010584 115.34391534391536,1.26984126984127 115.97883597883599,1.26984126984127 116.61375661375662,1.4814814814814816 117.24867724867725,1.4814814814814816 117.88359788359789,1.6931216931216932 118.51851851851853,1.9047619047619049 119.15343915343917,2.1164021164021167 119.7883597883598,2.1164021164021167 120.42328042328043,2.3280423280423284 121.05820105820106,2.3280423280423284 121.6931216931217,2.53968253968254 122.32804232804234,2.53968253968254 122.96296296296298,2.7513227513227516 123.59788359788361,2.9629629629629632 124.23280423280424,3.3862433862433865 124.86772486772487,3.3862433862433865 125.5026455026455,3.597883597883598 126.13756613756615,3.597883597883598 126.56084656084657,4.021164021164021 127.1957671957672,4.021164021164021 127.83068783068784,4.021164021164021 128.46560846560848,4.2328042328042335 129.10052910052912,4.656084656084657 129.73544973544975,4.867724867724868 130.37037037037038,5.07936507936508 131.005291005291,5.07936507936508 131.64021164021165,5.502645502645503 132.27513227513228,5.714285714285714 132.9100529100529,5.714285714285714 133.54497354497354,6.137566137566138 134.17989417989418,6.34920634920635 134.81481481481484,6.560846560846561 135.44973544973547,6.772486772486773 136.0846560846561,6.772486772486773 136.5079365079365,7.195767195767196 137.14285714285717,7.195767195767196 137.7777777777778,7.407407407407408 138.41269841269843,7.830687830687832 139.04761904761907,8.042328042328043 139.6825396825397,8.042328042328043 140.31746031746033,8.253968253968255 140.95238095238096,8.465608465608467 141.5873015873016,8.677248677248677 142.22222222222223,8.88888888888889 142.85714285714286,9.100529100529101 143.4920634920635,9.312169312169313 144.12698412698413,9.312169312169313 144.76190476190476,9.312169312169313 145.39682539682542,9.523809523809524 146.03174603174605,9.735449735449736 146.66666666666669,9.735449735449736 147.30158730158732,9.735449735449736 147.93650793650795,9.735449735449736 148.57142857142858,9.947089947089948 151.74603174603175,10.582010582010582" style="fill:none; stroke:#cc0000; stroke-width:1.0"  /><polyline points="151.74603174603175,10.582010582010582 151.53439153439155,13.544973544973546 151.53439153439155,14.17989417989418 151.53439153439155,14.814814814814817 151.32275132275134,15.449735449735451 151.53439153439155,16.084656084656086 151.32275132275134,16.71957671957672 151.32275132275134,17.354497354497354 151.11111111111111,17.98941798941799 151.11111111111111,18.624338624338627 151.11111111111111,19.25925925925926 151.32275132275134,19.894179894179896 151.32275132275134,20.529100529100532 151.11111111111111,21.164021164021165 151.11111111111111,21.7989417989418 151.11111111111111,22.433862433862437 151.11111111111111,23.06878306878307 151.11111111111111,23.703703703703706 151.11111111111111,24.338624338624342 151.11111111111111,24.973544973544975 151.11111111111111,25.60846560846561 151.11111111111111,26.243386243386244 151.11111111111111,26.87830687830688 150.8994708994709,27.513227513227516 150.8994708994709,28.14814814814815 150.8994708994709,28.783068783068785 150.8994708994709,29.41798941798942 150.8994708994709,30.052910052910054 150.8994708994709,30.68783068783069 150.6878306878307,31.322751322751326 150.6878306878307,31.95767195767196 150.6878306878307,32.592592592592595 150.6878306878307,33.22751322751323 150.6878306878307,33.86243386243387 150.47619047619048,34.4973544973545 150.47619047619048,35.13227513227513 150.47619047619048,35.76719576719577 150.26455026455028,36.402116402116405 150.26455026455028,37.03703703703704 150.26455026455028,37.67195767195768 150.26455026455028,38.30687830687831 150.26455026455028,38.94179894179894 150.05291005291005,39.57671957671958 150.05291005291005,40.211640211640216 150.05291005291005,40.84656084656085 150.05291005291005,41.48148148148149 149.84126984126985,42.11640211640212 149.84126984126985,42.75132275132275 149.84126984126985,43.386243386243386 149.84126984126985,44.021164021164026 149.62962962962965,44.65608465608466 149.62962962962965,45.29100529100529 149.41798941798942,45.92592592592593 149.41798941798942,46.560846560846564 149.41798941798942,47.195767195767196 149.41798941798942,47.830687830687836 149.20634920634922,48.46560846560847 149.20634920634922,49.1005291005291 149.20634920634922,49.73544973544974 148.99470899470901,50.370370370370374 148.99470899470901,51.00529100529101 148.99470899470901,51.640211640211646 148.78306878306879,52.27513227513228 148.78306878306879,52.91005291005291 148.78306878306879,53.54497354497355 148.57142857142858,54.179894179894184 148.57142857142858,54.81481481481482 148.57142857142858,55.449735449735456 148.57142857142858,56.08465608465609 148.35978835978838,56.71957671957672 148.35978835978838,57.35449735449736 148.14814814814815,57.989417989417994 148.14814814814815,58.62433862433863 148.14814814814815,59.25925925925927 147.93650793650795,59.8941798941799 147.93650793650795,60.52910052910053 147.72486772486775,61.16402116402117 147.72486772486775,61.798941798941804 147.72486772486775,62.43386243386244 147.51322751322752,63.06878306878308 147.51322751322752,63.70370370370371 147.30158730158732,64.33862433862434 147.30158730158732,64.97354497354497 147.0899470899471,65.60846560846561 147.0899470899471,66.24338624338625 146.8783068783069,66.87830687830689 146.66666666666669,67.51322751322752 146.45502645502646,68.14814814814815 146.45502645502646,68.78306878306879 146.24338624338625,69.41798941798942 146.24338624338625,70.05291005291006 146.03174603174605,70.6878306878307 145.82010582010582,71.32275132275133 145.82010582010582,71.95767195767196 145.60846560846562,72.5925925925926 145.39682539682542,73.22751322751323 145.39682539682542,73.86243386243387 145.1851851851852,74.49735449735451 145.1851851851852,75.13227513227514 144.973544973545,75.76719576719577 144.76190476190476,76.4021164021164 144.55026455026456,77.03703703703704 144.55026455026456,77.67195767195767 144.33862433862436,78.30687830687832 144.12698412698413,78.94179894179895 144.12698412698413,79.57671957671958 143.91534391534393,80.21164021164022 143.70370370370372,80.84656084656085 143.70370370370372,81.48148148148148 143.4920634920635,82.11640211640213 143.4920634920635,82.75132275132276 143.2804232804233,83.3862433862434 143.2804232804233,84.02116402116403 143.0687830687831,84.65608465608466 143.0687830687831,85.29100529100529 143.0687830687831,85.92592592592594 142.85714285714286,86.56084656084657 142.85714285714286,87.1957671957672 142.64550264550266,87.83068783068784 142.64550264550266,88.46560846560847 142.64550264550266,89.1005291005291 142.64550264550266,89.73544973544975 142.64550264550266,90.37037037037038 142.64550264550266,91.00529100529101 142.64550264550266,91.64021164021165 142.64550264550266,92.27513227513228 142.64550264550266,92.91005291005291 142.64550264550266,93.54497354497356 142.64550264550266,94.17989417989419 142.64550264550266,94.81481481481482 142.64550264550266,95.44973544973546 142.64550264550266,96.08465608465609 142.85714285714286,96.71957671957672 142.85714285714286,97.35449735449737 143.0687830687831,97.989417989418 143.2804232804233,98.62433862433863 143.70370370370372,99.25925925925927 144.12698412698413,99.8941798941799 144.55026455026456,100.31746031746033 144.973544973545,100.74074074074075 145.39682539682542,101.16402116402116 146.03174603174605,101.5873015873016 146.66666666666669,101.79894179894181 147.30158730158732,102.01058201058201 147.93650793650795,102.22222222222223 148.57142857142858,102.22222222222223 149.20634920634922,102.22222222222223 149.84126984126985,102.43386243386244 150.47619047619048,102.22222222222223 151.11111111111111,102.22222222222223 151.74603174603175,102.22222222222223 152.38095238095238,101.79894179894181 153.01587301587304,101.79894179894181 153.65079365079367,101.5873015873016 154.2857142857143,101.37566137566138 154.92063492063494,101.16402116402116 155.55555555555557,100.95238095238096 156.1904761904762,100.52910052910053 156.82539682539684,100.31746031746033 157.46031746031747,100.10582010582011 158.0952380952381,99.8941798941799 158.73015873015873,99.47089947089948 159.36507936507937,99.25925925925927 160.0,99.25925925925927 160.63492063492066,98.83597883597885 161.2698412698413,98.41269841269842 161.90476190476193,98.2010582010582 162.53968253968256,97.989417989418 162.96296296296296,97.56613756613757 163.59788359788362,97.35449735449737 164.23280423280426,96.93121693121694 164.8677248677249,96.71957671957672 165.50264550264552,96.50793650793652 166.13756613756615,96.08465608465609 166.7724867724868,96.08465608465609 167.40740740740742,95.87301587301587 168.04232804232805,95.66137566137567 168.67724867724868,95.23809523809524 169.31216931216932,95.02645502645504 169.94708994708995,94.81481481481482 170.58201058201058,94.39153439153439 171.21693121693124,94.17989417989419 171.85185185185188,94.17989417989419 172.4867724867725,93.96825396825398 173.12169312169314,93.75661375661376 173.75661375661377,93.75661375661376 174.3915343915344,93.54497354497356 175.02645502645504,93.54497354497356 175.66137566137567,93.54497354497356 176.2962962962963,93.54497354497356 176.93121693121694,93.54497354497356 177.56613756613757,93.54497354497356 178.2010582010582,93.54497354497356 178.83597883597884,93.75661375661376 179.4708994708995,93.75661375661376 180.10582010582013,93.96825396825398 180.74074074074076,94.17989417989419 181.3756613756614,94.60317460317461 182.01058201058203,95.02645502645504 182.64550264550266,95.44973544973546 183.0687830687831,95.87301587301587 183.4920634920635,96.50793650793652 183.91534391534393,96.93121693121694 184.33862433862436,97.56613756613757 184.55026455026456,98.2010582010582 184.973544973545,98.83597883597885 185.1851851851852,99.47089947089948 185.39682539682542,100.10582010582011 185.60846560846562,100.74074074074075 185.82010582010582,101.37566137566138 186.03174603174605,102.01058201058201 186.24338624338625,102.64550264550266 186.45502645502646,103.28042328042329 186.45502645502646,103.91534391534393 186.66666666666669,104.55026455026456 186.66666666666669,105.18518518518519 186.8783068783069,105.82010582010582 186.8783068783069,106.45502645502647 186.8783068783069,107.0899470899471 186.8783068783069,107.72486772486774 186.8783068783069,108.35978835978837 187.08994708994712,108.994708994709 187.08994708994712,109.62962962962963 187.08994708994712,110.26455026455027 187.08994708994712,110.89947089947091 187.08994708994712,111.53439153439155 187.08994708994712,112.16931216931218 187.08994708994712,112.80423280423281 187.08994708994712,113.43915343915344 187.08994708994712,114.07407407407408 187.08994708994712,114.70899470899472 187.08994708994712,115.34391534391536 187.08994708994712,115.97883597883599 186.8783068783069,116.61375661375662 186.8783068783069,117.24867724867725 186.8783068783069,117.88359788359789 186.66666666666669,118.51851851851853 186.66666666666669,119.15343915343917 186.66666666666669,119.7883597883598 186.45502645502646,120.42328042328043 186.24338624338625,121.05820105820106 186.24338624338625,121.6931216931217 186.03174603174605,122.32804232804234 185.82010582010582,122.96296296296298 185.60846560846562,123.59788359788361 185.39682539682542,124.23280423280424 185.39682539682542,124.86772486772487 184.973544973545,125.5026455026455 184.7619047619048,126.13756613756615 184.33862433862436,126.77248677248679 184.12698412698415,127.40740740740742 183.70370370370372,128.04232804232805 183.2804232804233,128.67724867724868 183.0687830687831,129.31216931216932 182.64550264550266,129.73544973544975 182.22222222222223,130.37037037037038 181.79894179894183,130.7936507936508 181.16402116402116,131.21693121693121 180.74074074074076,131.64021164021165 180.31746031746033,132.06349206349208 179.6825396825397,132.4867724867725 179.04761904761907,132.9100529100529 178.41269841269843,133.12169312169314 177.7777777777778,133.33333333333334 177.14285714285717,133.54497354497354 176.50793650793653,133.54497354497354 175.87301587301587,133.54497354497354 175.23809523809524,133.75661375661377 174.6031746031746,133.75661375661377 173.96825396825398,133.75661375661377 173.33333333333334,133.54497354497354 172.6984126984127,133.54497354497354 172.06349206349208,133.54497354497354 171.42857142857144,133.33333333333334 170.7936507936508,133.33333333333334 170.15873015873018,133.12169312169314 169.52380952380955,132.9100529100529 168.8888888888889,132.6984126984127 168.25396825396825,132.4867724867725 167.61904761904762,132.27513227513228 166.984126984127,131.85185185185185 166.34920634920636,131.64021164021165 165.92592592592595,131.21693121693121 165.2910052910053,130.7936507936508 164.65608465608466,130.58201058201058 164.23280423280426,130.15873015873018 163.59788359788362,129.73544973544975 162.96296296296296,129.31216931216932 162.32804232804233,129.10052910052912 161.6931216931217,128.67724867724868 161.05820105820106,128.46560846560848 160.63492063492066,128.04232804232805 160.0,127.61904761904763 159.36507936507937,127.1957671957672 158.73015873015873,126.98412698412699 158.30687830687833,126.56084656084657 157.67195767195767,126.13756613756615 157.03703703703704,125.92592592592594 156.61375661375664,125.5026455026455 155.978835978836,125.07936507936509 155.34391534391534,124.65608465608466 154.7089947089947,124.44444444444446 154.07407407407408,124.23280423280424 153.65079365079367,123.80952380952382 153.01587301587304,123.59788359788361 152.38095238095238,123.3862433862434 151.74603174603175,123.17460317460318 151.11111111111111,123.17460317460318 150.47619047619048,123.17460317460318 149.84126984126985,123.17460317460318 149.20634920634922,123.17460317460318 148.57142857142858,123.3862433862434 147.93650793650795,123.59788359788361 147.30158730158732,124.02116402116403 146.66666666666669,124.44444444444446 146.24338624338625,124.86772486772487 145.82010582010582,125.5026455026455 145.39682539682542,125.92592592592594 145.1851851851852,126.56084656084657 144.76190476190476,126.98412698412699 144.55026455026456,127.61904761904763 144.33862433862436,128.25396825396825 144.12698412698413,128.88888888888889 144.12698412698413,129.52380952380955 144.12698412698413,130.15873015873018 144.12698412698413,130.7936507936508 144.12698412698413,131.42857142857144 144.12698412698413,132.06349206349208 144.33862433862436,132.6984126984127 144.33862433862436,133.33333333333334 144.55026455026456,133.96825396825398 144.55026455026456,134.6031746031746 144.76190476190476,135.23809523809524 144.76190476190476,135.87301587301587 144.973544973545,136.5079365079365 145.1851851851852,137.14285714285717 145.39682539682542,137.7777777777778 145.39682539682542,138.41269841269843 145.60846560846562,139.04761904761907 145.82010582010582,139.6825396825397 146.03174603174605,140.31746031746033 146.24338624338625,140.95238095238096 146.45502645502646,141.5873015873016 146.45502645502646,142.22222222222223 146.66666666666669,142.85714285714286 146.8783068783069,143.4920634920635 147.0899470899471,144.12698412698413 147.30158730158732,144.76190476190476 147.72486772486775,145.39682539682542 147.93650793650795,146.03174603174605 148.14814814814815,146.66666666666669 148.14814814814815,147.30158730158732 148.57142857142858,147.93650793650795 148.78306878306879,148.57142857142858 148.99470899470901,149.20634920634922 149.20634920634922,149.84126984126985 149.41798941798942,150.47619047619048 149.62962962962965,151.11111111111111 150.05291005291005,151.74603174603175 150.26455026455028,152.38095238095238 150.47619047619048,153.01587301587304 150.6878306878307,153.65079365079367 150.8994708994709,154.2857142857143 151.32275132275134,154.92063492063494 151.53439153439155,155.55555555555557 151.95767195767198,156.1904761904762 152.16931216931218,156.82539682539684 152.5925925925926,157.46031746031747 152.8042328042328,158.0952380952381 153.22751322751324,158.73015873015873 153.65079365079367,159.36507936507937 154.07407407407408,160.0 154.4973544973545,160.42328042328043 154.7089947089947,161.05820105820106 156.4021164021164,164.23280423280426" style="fill:none; stroke:#999900; stroke-width:1.0"  /><polyline points="156.4021164021164,164.23280423280426 152.16931216931218,164.44444444444446 151.53439153439155,164.65608465608466 150.8994708994709,164.65608465608466 150.26455026455028,164.65608465608466 149.62962962962965,164.65608465608466 148.99470899470901,164.65608465608466 148.35978835978838,164.65608465608466 147.72486772486775,164.65608465608466 147.0899470899471,164.8677248677249 146.45502645502646,164.8677248677249 145.82010582010582,164.8677248677249 145.1851851851852,164.8677248677249 144.55026455026456,164.8677248677249 143.91534391534393,165.0793650793651 143.2804232804233,165.0793650793651 142.64550264550266,165.0793650793651 142.01058201058203,165.0793650793651 141.3756613756614,165.0793650793651 140.74074074074076,165.0793650793651 140.10582010582013,165.0793650793651 139.47089947089947,165.0793650793651 138.83597883597884,165.0793650793651 138.2010582010582,165.0793650793651 137.56613756613757,165.0793650793651 136.93121693121694,165.0793650793651 136.2962962962963,165.0793650793651 135.66137566137567,164.8677248677249 135.02645502645504,164.8677248677249 134.3915343915344,164.8677248677249 133.75661375661377,164.8677248677249 133.12169312169314,164.65608465608466 132.4867724867725,164.65608465608466 131.85185185185185,164.44444444444446 131.21693121693121,164.44444444444446 130.58201058201058,164.44444444444446 129.94708994708995,164.23280423280426 129.31216931216932,164.23280423280426 128.67724867724868,164.02116402116403 128.04232804232805,164.02116402116403 127.40740740740742,164.02116402116403 126.77248677248679,164.02116402116403 126.13756613756615,163.80952380952382 125.5026455026455,163.80952380952382 124.86772486772487,163.59788359788362 124.23280423280424,163.3862433862434 123.59788359788361,163.1746031746032 122.96296296296298,163.1746031746032 122.32804232804234,162.96296296296296 121.6931216931217,162.75132275132276 121.05820105820106,162.53968253968256 120.42328042328043,162.32804232804233 119.7883597883598,162.11640211640213 119.15343915343917,161.90476190476193 118.51851851851853,161.6931216931217 117.88359788359789,161.4814814814815 117.24867724867725,161.2698412698413 116.61375661375662,161.05820105820106 115.97883597883599,160.84656084656086 115.34391534391536,160.42328042328043 114.70899470899472,160.21164021164023 114.07407407407408,160.0 113.43915343915344,159.7883597883598 112.80423280423281,159.7883597883598 112.16931216931218,159.36507936507937 111.53439153439155,159.15343915343917 110.89947089947091,158.94179894179896 110.26455026455027,158.73015873015873 109.62962962962963,158.30687830687833 108.994708994709,157.8835978835979 108.57142857142858,157.46031746031747 108.14814814814815,157.03703703703704 107.72486772486774,156.61375661375664 107.3015873015873,155.978835978836 107.0899470899471,155.34391534391534 106.87830687830689,154.7089947089947 106.87830687830689,154.07407407407408 106.87830687830689,153.43915343915344 106.87830687830689,152.8042328042328 107.0899470899471,152.16931216931218 107.3015873015873,151.53439153439155 107.51322751322752,150.8994708994709 107.72486772486774,150.26455026455028 108.14814814814815,149.62962962962965 108.35978835978837,148.99470899470901 108.57142857142858,148.35978835978838 108.78306878306879,147.72486772486775 109.20634920634922,147.0899470899471 109.41798941798943,146.45502645502646 109.62962962962963,145.82010582010582 109.84126984126985,145.1851851851852 110.26455026455027,144.55026455026456 110.6878306878307,143.91534391534393 110.89947089947091,143.2804232804233 111.11111111111111,142.64550264550266 111.32275132275133,142.01058201058203 111.53439153439155,141.3756613756614 111.95767195767196,140.74074074074076 112.16931216931218,140.10582010582013 112.3809523809524,139.47089947089947 112.5925925925926,138.83597883597884 112.80423280423281,138.2010582010582 112.80423280423281,137.56613756613757 113.01587301587303,136.93121693121694 113.01587301587303,136.2962962962963 113.01587301587303,135.66137566137567 113.01587301587303,135.02645502645504 113.01587301587303,134.3915343915344 112.80423280423281,133.75661375661377 112.80423280423281,133.12169312169314 112.5925925925926,132.4867724867725 112.5925925925926,131.85185185185185 112.16931216931218,131.21693121693121 111.95767195767196,130.58201058201058 111.53439153439155,129.94708994708995 111.11111111111111,129.31216931216932 110.6878306878307,128.88888888888889 110.26455026455027,128.46560846560848 109.62962962962963,128.25396825396825 109.20634920634922,127.83068783068784 108.57142857142858,127.61904761904763 107.93650793650795,127.40740740740742 107.3015873015873,127.1957671957672 106.66666666666667,127.1957671957672 106.03174603174604,126.98412698412699 105.3968253968254,126.98412698412699 104.76190476190477,126.77248677248679 104.12698412698414,126.77248677248679 103.4920634920635,126.77248677248679 102.85714285714286,126.77248677248679 102.22222222222223,126.56084656084657 101.5873015873016,126.56084656084657 100.95238095238096,126.56084656084657 100.31746031746033,126.56084656084657 99.68253968253968,126.56084656084657 99.04761904761905,126.34920634920636 98.41269841269842,126.34920634920636 97.77777777777779,126.34920634920636 97.14285714285715,126.34920634920636 96.50793650793652,126.34920634920636 95.87301587301587,126.56084656084657 95.23809523809524,126.56084656084657 94.60317460317461,126.56084656084657 93.96825396825398,126.56084656084657 93.33333333333334,126.56084656084657 92.69841269841271,126.77248677248679 92.06349206349208,126.98412698412699 91.42857142857143,126.98412698412699 90.7936507936508,126.98412698412699 90.15873015873017,126.98412698412699 89.52380952380953,127.1957671957672 88.8888888888889,127.1957671957672 88.25396825396827,127.40740740740742 87.61904761904762,127.40740740740742 86.98412698412699,127.40740740740742 86.34920634920636,127.61904761904763 85.71428571428572,127.61904761904763 85.07936507936509,127.83068783068784 84.44444444444446,128.04232804232805 83.80952380952381,128.04232804232805 83.17460317460318,128.25396825396825 82.53968253968254,128.67724867724868 81.90476190476191,128.88888888888889 81.26984126984128,129.10052910052912 80.63492063492065,129.52380952380955 80.0,129.94708994708995 79.36507936507937,130.15873015873018 78.94179894179895,130.58201058201058 78.30687830687832,131.005291005291 77.67195767195767,131.42857142857144 77.24867724867725,131.85185185185185 76.82539682539684,132.27513227513228 76.4021164021164,132.6984126984127 75.97883597883599,133.33333333333334 75.55555555555556,133.75661375661377 75.13227513227514,134.3915343915344 75.13227513227514,135.02645502645504 74.92063492063492,135.66137566137567 74.70899470899471,136.2962962962963 74.70899470899471,136.93121693121694 74.70899470899471,137.56613756613757 74.92063492063492,138.2010582010582 74.92063492063492,138.83597883597884 75.34391534391536,139.47089947089947 75.55555555555556,140.10582010582013 75.76719576719577,140.74074074074076 76.19047619047619,141.16402116402116 76.4021164021164,141.7989417989418 76.82539682539684,142.43386243386246 77.03703703703704,143.0687830687831 77.46031746031747,143.4920634920635 77.67195767195767,144.12698412698413 78.0952380952381,144.76190476190476 78.30687830687832,145.39682539682542 78.73015873015873,145.82010582010582 79.15343915343917,146.45502645502646 79.36507936507937,147.0899470899471 79.7883597883598,147.51322751322752 80.0,148.14814814814815 80.42328042328043,148.78306878306879 80.84656084656085,149.41798941798942 81.05820105820106,150.05291005291005 81.48148148148148,150.6878306878307 81.6931216931217,151.32275132275134 81.90476190476191,151.95767195767198 82.11640211640213,152.5925925925926 82.11640211640213,153.22751322751324 82.32804232804233,153.86243386243387 82.32804232804233,154.4973544973545 82.32804232804233,155.13227513227514 82.32804232804233,155.76719576719577 82.11640211640213,156.4021164021164 81.90476190476191,157.03703703703704 81.48148148148148,157.67195767195767 81.05820105820106,158.0952380952381 80.63492063492065,158.51851851851853 80.0,158.94179894179896 79.36507936507937,159.15343915343917 78.73015873015873,159.5767195767196 78.0952380952381,159.7883597883598 77.46031746031747,160.0 76.82539682539684,160.21164021164023 76.19047619047619,160.42328042328043 75.55555555555556,160.63492063492066 74.92063492063492,160.63492063492066 74.28571428571429,160.84656084656086 73.65079365079366,161.05820105820106 73.01587301587303,161.2698412698413 72.38095238095238,161.2698412698413 71.74603174603175,161.4814814814815 71.11111111111111,161.6931216931217 70.47619047619048,161.6931216931217 69.84126984126985,161.90476190476193 69.20634920634922,161.90476190476193 68.57142857142858,162.11640211640213 67.93650793650794,162.32804232804233 67.3015873015873,162.32804232804233 66.66666666666667,162.53968253968256 66.03174603174604,162.75132275132276 65.3968253968254,162.75132275132276 64.76190476190477,162.96296296296296 64.12698412698413,163.1746031746032 63.492063492063494,163.1746031746032 62.85714285714286,163.3862433862434 62.22222222222223,163.3862433862434 61.58730158730159,163.59788359788362 60.952380952380956,163.59788359788362 60.31746031746032,163.80952380952382 59.682539682539684,164.02116402116403 59.04761904761905,164.02116402116403 58.41269841269842,164.23280423280426 57.777777777777786,164.44444444444446 57.142857142857146,164.44444444444446 56.50793650793651,164.65608465608466 55.87301587301588,164.65608465608466 55.23809523809524,164.8677248677249 54.60317460317461,164.8677248677249 53.968253968253975,165.0793650793651 53.333333333333336,165.0793650793651 52.6984126984127,165.2910052910053 52.06349206349207,165.2910052910053 51.42857142857143,165.50264550264552 50.7936507936508,165.50264550264552 50.158730158730165,165.71428571428572 49.523809523809526,165.92592592592595 48.88888888888889,165.92592592592595 48.25396825396826,166.13756613756615 47.61904761904762,166.13756613756615 46.98412698412699,166.34920634920636 46.349206349206355,166.34920634920636 45.714285714285715,166.34920634920636 45.07936507936508,166.56084656084658 44.44444444444445,166.7724867724868 43.80952380952381,166.7724867724868 43.17460317460318,166.7724867724868 42.539682539682545,166.984126984127 41.904761904761905,166.984126984127 41.26984126984127,167.19576719576722 40.63492063492064,167.19576719576722 40.0,167.40740740740742 39.36507936507937,167.40740740740742 38.730158730158735,167.61904761904762 38.095238095238095,167.83068783068785 37.46031746031746,167.83068783068785 36.82539682539683,168.04232804232805 36.19047619047619,168.04232804232805 35.55555555555556,168.25396825396825 31.95767195767196,168.8888888888889" style="fill:none; stroke:#00aa99; stroke-width:1.0"  /><polyline points="31.95767195767196,168.8888888888889 30.899470899470902,165.0793650793651 30.68783068783069,164.44444444444446 30.476190476190478,163.80952380952382 30.264550264550266,163.1746031746032 30.264550264550266,162.53968253968256 30.052910052910054,161.90476190476193 29.841269841269842,161.2698412698413 29.629629629629633,160.63492063492066 29.20634920634921,160.0 28.994708994708997,159.36507936507937 28.783068783068785,158.73015873015873 28.571428571428573,158.0952380952381 28.571428571428573,157.46031746031747 28.35978835978836,156.82539682539684 28.14814814814815,156.1904761904762 27.724867724867728,155.76719576719577 27.513227513227516,155.13227513227514 27.301587301587304,154.4973544973545 27.089947089947092,153.86243386243387 26.666666666666668,153.22751322751324 26.455026455026456,152.5925925925926 26.031746031746035,151.95767195767198 25.820105820105823,151.32275132275134 25.60846560846561,150.6878306878307 25.185185185185187,150.05291005291005 24.973544973544975,149.41798941798942 24.55026455026455,148.78306878306879 24.338624338624342,148.14814814814815 23.915343915343918,147.51322751322752 23.703703703703706,146.8783068783069 23.280423280423282,146.24338624338625 23.06878306878307,145.60846560846562 22.645502645502646,145.1851851851852 22.433862433862437,144.55026455026456 22.010582010582013,144.12698412698413 21.7989417989418,143.4920634920635 21.58730158730159,142.85714285714286 21.164021164021165,142.22222222222223 20.740740740740744,141.5873015873016 20.31746031746032,140.95238095238096 20.105820105820108,140.31746031746033 19.682539682539684,139.8941798941799 19.47089947089947,139.25925925925927 19.047619047619047,138.83597883597884 18.83597883597884,138.2010582010582 18.412698412698415,137.7777777777778 18.201058201058203,137.14285714285717 17.77777777777778,136.5079365079365 17.354497354497354,135.87301587301587 16.931216931216934,135.23809523809524 16.50793650793651,134.6031746031746 16.084656084656086,133.96825396825398 15.873015873015873,133.33333333333334 15.449735449735451,132.9100529100529 15.026455026455027,132.27513227513228 14.603174603174605,131.64021164021165 14.17989417989418,131.005291005291 13.96825396825397,130.37037037037038 13.544973544973546,129.94708994708995 13.121693121693122,129.31216931216932 12.6984126984127,128.67724867724868 12.275132275132275,128.04232804232805 11.851851851851853,127.40740740740742 11.428571428571429,126.77248677248679 11.005291005291006,126.13756613756615 10.582010582010582,125.5026455026455 10.15873015873016,125.07936507936509 9.735449735449736,124.65608465608466 9.312169312169313,124.23280423280424 8.88888888888889,123.59788359788361 8.465608465608467,123.17460317460318 8.253968253968255,122.53968253968254 7.830687830687832,122.11640211640213 7.407407407407408,121.6931216931217 6.984126984126985,121.05820105820106 6.560846560846561,120.42328042328043 6.137566137566138,119.7883597883598 5.714285714285714,119.15343915343917 5.291005291005291,118.51851851851853 5.07936507936508,117.88359788359789 4.656084656084657,117.46031746031747 4.444444444444445,116.82539682539684 4.2328042328042335,116.1904761904762 4.021164021164021,115.55555555555557 3.8095238095238098,114.92063492063492 3.597883597883598,114.28571428571429 3.597883597883598,113.65079365079366 3.3862433862433865,113.01587301587303 3.3862433862433865,112.3809523809524 3.174603174603175,111.74603174603176 3.3862433862433865,111.11111111111111 3.3862433862433865,110.47619047619048 3.597883597883598,109.84126984126985 3.8095238095238098,109.20634920634922 4.2328042328042335,108.57142857142858 4.656084656084657,108.14814814814815 5.07936507936508,107.72486772486774 5.502645502645503,107.3015873015873 6.137566137566138,106.87830687830689 6.772486772486773,106.66666666666667 7.407407407407408,106.24338624338625 8.042328042328043,106.03174603174604 8.677248677248677,105.82010582010582 9.312169312169313,105.82010582010582 9.947089947089948,105.82010582010582 10.582010582010582,105.82010582010582 11.216931216931219,105.82010582010582 11.851851851851853,105.82010582010582 12.486772486772487,105.82010582010582 13.121693121693122,105.82010582010582 13.756613756613758,106.03174603174604 14.391534391534393,106.03174603174604 15.026455026455027,106.24338624338625 15.661375661375663,106.24338624338625 16.296296296296298,106.45502645502647 16.931216931216934,106.66666666666667 17.566137566137566,106.66666666666667 18.201058201058203,106.87830687830689 18.83597883597884,107.0899470899471 19.47089947089947,107.3015873015873 20.105820105820108,107.51322751322752 20.740740740740744,107.93650793650795 21.375661375661377,108.14814814814815 22.010582010582013,108.35978835978837 22.645502645502646,108.35978835978837 23.280423280423282,108.35978835978837 23.915343915343918,108.57142857142858 24.55026455026455,108.78306878306879 25.185185185185187,108.78306878306879 25.820105820105823,108.994708994709 26.455026455026456,109.20634920634922 27.089947089947092,109.20634920634922 27.724867724867728,109.41798941798943 28.35978835978836,109.41798941798943 28.994708994708997,109.41798941798943 29.629629629629633,109.41798941798943 30.264550264550266,109.62962962962963 30.899470899470902,109.62962962962963 31.53439153439154,109.62962962962963 32.16931216931217,109.62962962962963 32.804232804232804,109.41798941798943 33.43915343915344,109.41798941798943 34.074074074074076,109.41798941798943 34.70899470899471,109.20634920634922 35.34391534391535,108.994708994709 35.97883597883598,108.78306878306879 36.613756613756614,108.57142857142858 37.248677248677254,108.14814814814815 37.883597883597886,107.72486772486774 38.30687830687831,107.3015873015873 38.730158730158735,106.66666666666667 39.15343915343916,106.24338624338625 39.57671957671958,105.60846560846562 39.78835978835979,104.97354497354497 40.0,104.33862433862434 40.423280423280424,103.70370370370371 40.63492063492064,103.06878306878308 40.84656084656085,102.43386243386244 41.058201058201064,101.79894179894181 41.26984126984127,101.16402116402116 41.48148148148149,100.52910052910053 41.6931216931217,99.8941798941799 41.6931216931217,99.25925925925927 41.904761904761905,98.62433862433863 41.904761904761905,97.989417989418 42.11640211640212,97.35449735449737 42.11640211640212,96.71957671957672 42.11640211640212,96.08465608465609 42.11640211640212,95.44973544973546 42.32804232804233,94.81481481481482 42.11640211640212,94.17989417989419 42.11640211640212,93.54497354497356 42.11640211640212,92.91005291005291 42.11640211640212,92.27513227513228 41.904761904761905,91.64021164021165 41.904761904761905,91.00529100529101 41.6931216931217,90.37037037037038 41.26984126984127,89.73544973544975 41.26984126984127,89.1005291005291 41.058201058201064,88.46560846560847 41.058201058201064,87.83068783068784 40.84656084656085,87.1957671957672 40.63492063492064,86.56084656084657 40.63492063492064,85.92592592592594 40.423280423280424,85.29100529100529 40.211640211640216,84.65608465608466 40.0,84.02116402116403 39.78835978835979,83.3862433862434 39.57671957671958,82.75132275132276 39.36507936507937,82.11640211640213 38.94179894179894,81.48148148148148 38.730158730158735,80.84656084656085 38.30687830687831,80.21164021164022 38.095238095238095,79.57671957671958 37.883597883597886,78.94179894179895 37.46031746031746,78.30687830687832 37.03703703703704,77.67195767195767 36.613756613756614,77.03703703703704 36.19047619047619,76.4021164021164 35.76719576719577,75.76719576719577 35.34391534391535,75.13227513227514 34.920634920634924,74.49735449735451 34.4973544973545,74.07407407407408 34.074074074074076,73.65079365079366 33.65079365079365,73.22751322751323 33.01587301587302,72.80423280423281 32.38095238095239,72.38095238095238 31.746031746031747,72.16931216931218 31.111111111111114,71.95767195767196 30.476190476190478,71.74603174603175 29.841269841269842,71.74603174603175 29.20634920634921,71.53439153439155 28.571428571428573,71.53439153439155 27.93650793650794,71.74603174603175 27.301587301587304,71.74603174603175 26.666666666666668,71.95767195767196 26.031746031746035,71.95767195767196 25.3968253968254,72.16931216931218 24.761904761904763,72.16931216931218 24.12698412698413,72.38095238095238 23.492063492063494,72.5925925925926 22.857142857142858,73.01587301587303 22.433862433862437,73.43915343915344 21.7989417989418,73.65079365079366 21.164021164021165,73.86243386243387 20.529100529100532,74.28571428571429 19.894179894179896,74.70899470899471 19.25925925925926,75.13227513227514 18.624338624338627,75.55555555555556 17.98941798941799,75.97883597883599 17.354497354497354,76.4021164021164 16.71957671957672,76.82539682539684 16.084656084656086,77.24867724867725 15.449735449735451,77.67195767195767 15.026455026455027,78.0952380952381 14.391534391534393,78.51851851851852 13.756613756613758,78.94179894179895 13.333333333333334,79.36507936507937 12.6984126984127,79.57671957671958 12.275132275132275,80.0 11.640211640211641,80.21164021164022 11.005291005291006,80.63492063492065 10.370370370370372,80.84656084656085 9.735449735449736,81.05820105820106 9.100529100529101,81.26984126984128 8.465608465608467,81.48148148148148 7.830687830687832,81.6931216931217 7.195767195767196,81.6931216931217 6.560846560846561,81.6931216931217 5.9259259259259265,81.6931216931217 5.291005291005291,81.6931216931217 4.656084656084657,81.48148148148148 4.021164021164021,81.48148148148148 3.3862433862433865,81.05820105820106 2.7513227513227516,80.84656084656085 2.3280423280423284,80.42328042328043 1.9047619047619049,80.0 1.4814814814814816,79.36507936507937 1.0582010582010584,78.73015873015873 0.8465608465608466,78.0952380952381 0.8465608465608466,77.46031746031747 0.634920634920635,76.82539682539684 0.4232804232804233,76.19047619047619 0.4232804232804233,75.55555555555556 0.4232804232804233,74.92063492063492 0.4232804232804233,74.28571428571429 0.21164021164021166,73.65079365079366 0.21164021164021166,73.01587301587303 0.4232804232804233,72.38095238095238 0.4232804232804233,71.74603174603175 0.4232804232804233,71.11111111111111 0.4232804232804233,70.47619047619048 0.4232804232804233,69.84126984126985 0.634920634920635,69.20634920634922 0.634920634920635,68.57142857142858 0.8465608465608466,67.93650793650794 0.8465608465608466,67.3015873015873 1.0582010582010584,66.66666666666667 1.0582010582010584,66.03174603174604 1.26984126984127,65.3968253968254 1.4814814814814816,64.76190476190477 1.6931216931216932,64.12698412698413 1.9047619047619049,63.492063492063494 2.1164021164021167,62.85714285714286 2.1164021164021167,62.22222222222223 2.3280423280423284,61.58730158730159 2.53968253968254,60.952380952380956 2.7513227513227516,60.31746031746032 2.9629629629629632,59.682539682539684 3.174603174603175,59.04761904761905 3.3862433862433865,58.41269841269842 3.597883597883598,57.777777777777786 3.8095238095238098,57.142857142857146 4.021164021164021,56.50793650793651 4.2328042328042335,55.87301587301588 4.2328042328042335,55.23809523809524 4.444444444444445,54.60317460317461 4.444444444444445,53.968253968253975 4.656084656084657,53.333333333333336 4.867724867724868,52.6984126984127 5.07936507936508,52.06349206349207 5.291005291005291,51.42857142857143 5.502645502645503,50.7936507936508 5.714285714285714,50.158730158730165 5.9259259259259265,49.523809523809526 5.9259259259259265,48.88888888888889 6.137566137566138,48.25396825396826 6.34920634920635,47.61904761904762 6.560846560846561,46.98412698412699 6.560846560846561,46.349206349206355 6.772486772486773,45.714285714285715 6.984126984126985,45.07936507936508 7.195767195767196,44.44444444444445 7.407407407407408,43.80952380952381 7.407407407407408,43.17460317460318 7.6190476190476195,42.539682539682545 7.830687830687832,41.904761904761905 7.830687830687832,41.26984126984127 8.042328042328043,40.63492063492064 8.253968253968255,40.0 8.465608465608467,39.36507936507937 8.465608465608467,38.730158730158735 8.677248677248677,38.095238095238095 8.88888888888889,37.46031746031746 9.100529100529101,36.82539682539683 9.100529100529101,36.19047619047619 9.312169312169313,35.55555555555556 9.312169312169313,34.920634920634924 9.523809523809524,34.28571428571429 9.735449735449736,33.65079365079365 9.735449735449736,33.01587301587302 9.947089947089948,32.38095238095239 10.15873015873016,31.746031746031747 10.15873015873016,31.111111111111114 10.370370370370372,30.476190476190478 10.370370370370372,29.841269841269842 10.582010582010582,29.20634920634921 10.582010582010582,28.571428571428573 10.793650793650794,27.93650793650794 10.793650793650794,27.301587301587304 11.005291005291006,26.666666666666668 11.005291005291006,26.031746031746035 11.216931216931219,25.3968253968254 11.216931216931219,24.761904761904763 11.216931216931219,24.12698412698413 11.428571428571429,23.492063492063494 11.428571428571429,22.857142857142858 11.428571428571429,22.222222222222225 11.640211640211641,21.58730158730159 11.640211640211641,20.952380952380953 11.640211640211641,20.31746031746032 11.640211640211641,19.682539682539684 11.640211640211641,19.047619047619047 11.640211640211641,18.412698412698415 11.640211640211641,17.77777777777778 11.640211640211641,17.142857142857146 11.640211640211641,16.50793650793651 11.640211640211641,15.873015873015873 11.851851851851853,15.238095238095239 11.851851851851853,14.603174603174605 11.851851851851853,13.96825396825397 12.063492063492065,10.370370370370372" style="fill:none; stroke:#3300bb; stroke-width:1.0"  /><circle cx="12.063492063492065" cy="10.370370370370372" r="2.0" style="fill:none; stroke:#000000aa; stroke-width:0.25" /><circle cx="151.74603174603175" cy="10.582010582010582" r="2.0" style="fill:none; stroke:#000000aa; stroke-width:0.25" /><circle cx="156.4021164021164" cy="164.23280423280426" r="2.0" style="fill:none; stroke:#000000aa; stroke-width:0.25" /><circle cx="31.95767195767196" cy="168.8888888888889" r="2.0" style="fill:none; stroke:#000000aa; stroke-width:0.25" /><circle cx="13.121693121693122" cy="10.793650793650794" r="2.0" style="fill:none; stroke:#ff3366aa; stroke-width:0.25" /><circle cx="151.53439153439155" cy="10.370370370370372" r="2.0" style="fill:none; stroke:#ff3366aa; stroke-width:0.25" /><circle cx="155.13227513227514" cy="164.02116402116403" r="2.0" style="fill:none; stroke:#ff3366aa; stroke-width:0.25" /><circle cx="32.16931216931217" cy="168.25396825396825" r="2.0" style="fill:none; stroke:#ff3366aa; stroke-width:0.25" /><polyline points="24.338624338624342,6.560846560846561 23.703703703703706,6.560846560846561 23.06878306878307,6.984126984126985 22.433862433862437,7.195767195767196 21.7989417989418,7.6190476190476195 21.164021164021165,7.6190476190476195 20.529100529100532,7.830687830687832 19.894179894179896,8.042328042328043 19.25925925925926,8.253968253968255 18.624338624338627,8.253968253968255 18.201058201058203,8.677248677248677 17.566137566137566,8.88888888888889 16.931216931216934,8.88888888888889 16.296296296296298,9.100529100529101" style="fill:none; stroke:#001100; stroke-width:1.0" /><polyline points="11.428571428571429,22.222222222222225 11.640211640211641,21.58730158730159 11.640211640211641,20.952380952380953 11.640211640211641,20.31746031746032 11.640211640211641,19.682539682539684 11.640211640211641,19.047619047619047 11.640211640211641,18.412698412698415 11.640211640211641,17.77777777777778 11.640211640211641,17.142857142857146 11.640211640211641,16.50793650793651 11.640211640211641,15.873015873015873 11.851851851851853,15.238095238095239 11.851851851851853,14.603174603174605 11.851851851851853,13.96825396825397" style="fill:none; stroke:#000011; stroke-width:1.0" /><polyline points="151.11111111111111,21.7989417989418 151.11111111111111,21.164021164021165 151.32275132275134,20.529100529100532 151.32275132275134,19.894179894179896 151.11111111111111,19.25925925925926 151.11111111111111,18.624338624338627 151.11111111111111,17.98941798941799 151.32275132275134,17.354497354497354 151.32275132275134,16.71957671957672 151.53439153439155,16.084656084656086 151.32275132275134,15.449735449735451 151.53439153439155,14.814814814814817 151.53439153439155,14.17989417989418 151.53439153439155,13.544973544973546" style="fill:none; stroke:#001100; stroke-width:1.0" /><polyline points="140.31746031746033,8.253968253968255 140.95238095238096,8.465608465608467 141.5873015873016,8.677248677248677 142.22222222222223,8.88888888888889 142.85714285714286,9.100529100529101 143.4920634920635,9.312169312169313 144.12698412698413,9.312169312169313 144.76190476190476,9.312169312169313 145.39682539682542,9.523809523809524 146.03174603174605,9.735449735449736 146.66666666666669,9.735449735449736 147.30158730158732,9.735449735449736 147.93650793650795,9.735449735449736 148.57142857142858,9.947089947089948" style="fill:none; stroke:#000011; stroke-width:1.0" /><polyline points="143.2804232804233,165.0793650793651 143.91534391534393,165.0793650793651 144.55026455026456,164.8677248677249 145.1851851851852,164.8677248677249 145.82010582010582,164.8677248677249 146.45502645502646,164.8677248677249 147.0899470899471,164.8677248677249 147.72486772486775,164.65608465608466 148.35978835978838,164.65608465608466 148.99470899470901,164.65608465608466 149.62962962962965,164.65608465608466 150.26455026455028,164.65608465608466 150.8994708994709,164.65608465608466 151.53439153439155,164.65608465608466 152.16931216931218,164.44444444444446" style="fill:none; stroke:#001100; stroke-width:1.0" /><polyline points="150.47619047619048,153.01587301587304 150.6878306878307,153.65079365079367 150.8994708994709,154.2857142857143 151.32275132275134,154.92063492063494 151.53439153439155,155.55555555555557 151.95767195767198,156.1904761904762 152.16931216931218,156.82539682539684 152.5925925925926,157.46031746031747 152.8042328042328,158.0952380952381 153.22751322751324,158.73015873015873 153.65079365079367,159.36507936507937 154.07407407407408,160.0 154.4973544973545,160.42328042328043 154.7089947089947,161.05820105820106" style="fill:none; stroke:#000011; stroke-width:1.0" /><polyline points="28.35978835978836,156.82539682539684 28.571428571428573,157.46031746031747 28.571428571428573,158.0952380952381 28.783068783068785,158.73015873015873 28.994708994708997,159.36507936507937 29.20634920634921,160.0 29.629629629629633,160.63492063492066 29.841269841269842,161.2698412698413 30.052910052910054,161.90476190476193 30.264550264550266,162.53968253968256 30.264550264550266,163.1746031746032 30.476190476190478,163.80952380952382 30.68783068783069,164.44444444444446 30.899470899470902,165.0793650793651" style="fill:none; stroke:#001100; stroke-width:1.0" /><polyline points="43.80952380952381,166.7724867724868 43.17460317460318,166.7724867724868 42.539682539682545,166.984126984127 41.904761904761905,166.984126984127 41.26984126984127,167.19576719576722 40.63492063492064,167.19576719576722 40.0,167.40740740740742 39.36507936507937,167.40740740740742 38.730158730158735,167.61904761904762 38.095238095238095,167.83068783068785 37.46031746031746,167.83068783068785 36.82539682539683,168.04232804232805 36.19047619047619,168.04232804232805 35.55555555555556,168.25396825396825" style="fill:none; stroke:#000011; stroke-width:1.0" /><polyline points="16.296296296296298,9.100529100529101 -3.8095238095238098,15.449735449735451" style="fill:none; stroke:#ffaa00; stroke-width:0.4" /><polyline points="11.851851851851853,13.96825396825397 12.910052910052912,-7.195767195767196" style="fill:none; stroke:#aaff00; stroke-width:0.4" /><polyline points="151.53439153439155,13.544973544973546 152.5925925925926,-7.6190476190476195" style="fill:none; stroke:#ffaa00; stroke-width:0.4" /><polyline points="148.57142857142858,9.947089947089948 169.31216931216932,14.17989417989418" style="fill:none; stroke:#aaff00; stroke-width:0.4" /><polyline points="152.16931216931218,164.44444444444446 173.33333333333334,162.96296296296296" style="fill:none; stroke:#ffaa00; stroke-width:0.4" /><polyline points="154.7089947089947,161.05820105820106 164.65608465608466,179.6825396825397" style="fill:none; stroke:#aaff00; stroke-width:0.4" /><polyline points="30.899470899470902,165.0793650793651 37.03703703703704,185.39682539682542" style="fill:none; stroke:#ffaa00; stroke-width:0.4" /><polyline points="35.55555555555556,168.25396825396825 14.814814814814817,172.06349206349208" style="fill:none; stroke:#aaff00; stroke-width:0.4" /><circle cx="85.92592592592594" cy="83.80952380952381" r="1.0" style="fill:#444444; stroke-width:0" /><circle cx="86.56084656084657" cy="82.53968253968254" r="10.582010582010582" style="fill:#ff770022; stroke-width:0" /><circle cx="86.56084656084657" cy="82.53968253968254" r="1.0" style="fill:#ff7700; stroke-width:0" /></svg>