<?xml version="1.0" encoding="UTF-8" standalone="no"?><svg width="570.1587301587302" height="540.3174603174604" viewBox="-10 -10 210.05291005291008 200.10582010582013" xmlns="http://www.w3.org/2000/svg" xmlns:xlink="http://www.w3.org/1999/xlink"><polyline points="0.21164021164021166,13.333333333333334 3.174603174603175,13.756613756613758 3.8095238095238098,13.96825396825397 4.444444444444445,13.756613756613758 5.07936507936508,13.96825396825397 5.714285714285714,13.96825396825397 6.34920634920635,14.17989417989418 6.984126984126985,14.391534391534393 7.6190476190476195,14.603174603174605 8.253968253968255,14.603174603174605 8.88888888888889,14.603174603174605 9.523809523809524,14.603174603174605 10.15873015873016,14.814814814814817 10.793650793650794,14.814814814814817 11.428571428571429,14.814814814814817 12.063492063492065,15.026455026455027 12.6984126984127,15.026455026455027 13.333333333333334,15.026455026455027 13.96825396825397,15.238095238095239 14.603174603174605,15.449735449735451 15.238095238095239,15.449735449735451 15.873015873015873,15.661375661375663 16.50793650793651,15.873015873015873 17.142857142857146,15.873015873015873 17.77777777777778,16.084656084656086 18.412698412698415,16.296296296296298 19.047619047619047,16.50793650793651 19.682539682539684,16.50793650793651 20.31746031746032,16.71957671957672 20.952380952380953,16.931216931216934 21.58730158730159,17.142857142857146 22.222222222222225,17.354497354497354 22.857142857142858,17.354497354497354 23.492063492063494,17.566137566137566 24.12698412698413,17.77777777777778 24.761904761904763,17.98941798941799 25.3968253968254,18.201058201058203 26.031746031746035,18.412698412698415 26.666666666666668,18.83597883597884 27.301587301587304,19.047619047619047 27.93650793650794,19.25925925925926 28.571428571428573,19.47089947089947 29.20634920634921,19.682539682539684 29.841269841269842,19.894179894179896 30.264550264550266,20.31746031746032 30.899470899470902,20.31746031746032 31.53439153439154,20.529100529100532 32.16931216931217,20.740740740740744 32.804232804232804,20.952380952380953 33.43915343915344,21.375661375661377 34.074074074074076,21.375661375661377 34.70899470899471,21.7989417989418 35.34391534391535,22.010582010582013 35.97883597883598,22.222222222222225 36.613756613756614,22.433862433862437 37.248677248677254,22.645502645502646 37.883597883597886,22.857142857142858 38.51851851851852,23.280423280423282 39.15343915343916,23.492063492063494 39.78835978835979,23.703703703703706 40.423280423280424,24.12698412698413 41.058201058201064,24.338624338624342 41.6931216931217,24.55026455026455 42.32804232804233,24.761904761904763 42.96296296296297,25.185185185185187 43.5978835978836,25.3968253968254 44.232804232804234,25.60846560846561 44.867724867724874,25.820105820105823 45.29100529100529,26.243386243386244 45.92592592592593,26.243386243386244 46.560846560846564,26.243386243386244 47.195767195767196,26.666666666666668 47.830687830687836,26.87830687830688 48.46560846560847,27.089947089947092 49.1005291005291,27.301587301587304 49.73544973544974,27.513227513227516 50.370370370370374,27.724867724867728 51.00529100529101,27.93650793650794 51.640211640211646,28.14814814814815 52.27513227513228,28.35978835978836 52.91005291005291,28.571428571428573 53.54497354497355,28.571428571428573 54.179894179894184,28.783068783068785 54.81481481481482,28.994708994708997 55.449735449735456,29.20634920634921 56.08465608465609,29.20634920634921 56.71957671957672,29.629629629629633 57.35449735449736,29.841269841269842 57.989417989417994,29.841269841269842 58.62433862433863,30.052910052910054 59.25925925925927,30.052910052910054 59.8941798941799,30.264550264550266 60.52910052910053,30.476190476190478 61.16402116402117,30.476190476190478 61.798941798941804,30.68783068783069 62.43386243386244,30.899470899470902 63.06878306878308,30.899470899470902 63.70370370370371,31.111111111111114 64.33862433862434,31.111111111111114 64.97354497354497,31.111111111111114 65.60846560846561,31.322751322751326 66.24338624338625,31.322751322751326 66.87830687830689,31.322751322751326 67.51322751322752,31.53439153439154 68.14814814814815,31.53439153439154 68.78306878306879,31.746031746031747 69.41798941798942,31.746031746031747 70.05291005291006,31.746031746031747 70.6878306878307,31.746031746031747 71.32275132275133,31.95767195767196 71.95767195767196,31.95767195767196 72.5925925925926,31.95767195767196 73.22751322751323,32.16931216931217 73.86243386243387,32.16931216931217 74.49735449735451,32.16931216931217 75.13227513227514,32.16931216931217 75.76719576719577,32.16931216931217 76.4021164021164,32.16931216931217 77.03703703703704,31.95767195767196 77.67195767195767,31.95767195767196 78.30687830687832,31.746031746031747 78.94179894179895,31.746031746031747 79.57671957671958,31.53439153439154 80.21164021164022,31.111111111111114 80.84656084656085,30.68783068783069 81.26984126984128,30.264550264550266 81.6931216931217,29.841269841269842 82.11640211640213,29.41798941798942 82.53968253968254,28.994708994708997 82.96296296296298,28.571428571428573 83.17460317460318,27.93650793650794 83.59788359788361,27.513227513227516 83.80952380952381,26.87830687830688 84.02116402116403,26.243386243386244 84.23280423280424,25.60846560846561 84.44444444444446,24.973544973544975 84.65608465608466,24.338624338624342 84.65608465608466,23.703703703703706 84.65608465608466,23.06878306878307 84.86772486772487,22.433862433862437 84.86772486772487,21.7989417989418 84.65608465608466,21.164021164021165 84.65608465608466,20.529100529100532 84.65608465608466,19.894179894179896 84.44444444444446,19.25925925925926 84.44444444444446,18.624338624338627 84.23280423280424,17.98941798941799 84.23280423280424,17.354497354497354 84.02116402116403,16.71957671957672 83.80952380952381,16.084656084656086 83.80952380952381,15.449735449735451 83.80952380952381,14.814814814814817 83.59788359788361,14.17989417989418 83.59788359788361,13.544973544973546 83.3862433862434,12.910052910052912 83.3862433862434,12.275132275132275 83.17460317460318,11.640211640211641 83.17460317460318,11.005291005291006 83.3862433862434,10.370370370370372 83.17460317460318,9.735449735449736 83.3862433862434,9.100529100529101 83.3862433862434,8.465608465608467 83.3862433862434,7.830687830687832 83.59788359788361,7.195767195767196 83.59788359788361,6.560846560846561 84.02116402116403,5.9259259259259265 84.23280423280424,5.291005291005291 84.65608465608466,4.656084656084657 85.07936507936509,4.021164021164021 85.5026455026455,3.3862433862433865 85.92592592592594,2.9629629629629632 86.56084656084657,2.53968253968254 86.98412698412699,2.1164021164021167 87.61904761904762,1.6931216931216932 88.25396825396827,1.4814814814814816 88.8888888888889,1.0582010582010584 89.52380952380953,0.8465608465608466 90.15873015873017,0.8465608465608466 90.7936507936508,0.634920634920635 91.42857142857143,0.4232804232804233 92.06349206349208,0.4232804232804233 92.69841269841271,0.21164021164021166 93.33333333333334,0.21164021164021166 93.96825396825398,0.21164021164021166 94.60317460317461,0.4232804232804233 95.23809523809524,0.21164021164021166 95.87301587301587,0.21164021164021166 96.50793650793652,0.21164021164021166 97.14285714285715,0.21164021164021166 97.77777777777779,0.21164021164021166 98.41269841269842,0.4232804232804233 99.04761904761905,0.4232804232804233 99.68253968253968,0.634920634920635 100.31746031746033,0.634920634920635 100.95238095238096,0.8465608465608466 101.5873015873016,1.0582010582010584 102.22222222222223,1.26984126984127 102.85714285714286,1.4814814814814816 103.4920634920635,1.6931216931216932 104.12698412698414,1.6931216931216932 104.76190476190477,1.9047619047619049 105.18518518518519,2.3280423280423284 105.82010582010582,2.3280423280423284 106.45502645502647,2.7513227513227516 107.0899470899471,2.9629629629629632 107.72486772486774,3.3862433862433865 108.35978835978837,3.597883597883598 108.994708994709,4.021164021164021 109.62962962962963,4.2328042328042335 110.26455026455027,4.656084656084657 110.89947089947091,5.07936507936508 111.53439153439155,5.502645502645503 111.95767195767196,5.9259259259259265 112.5925925925926,6.34920634920635 113.22751322751324,6.772486772486773 113.65079365079366,7.195767195767196 114.07407407407408,7.6190476190476195 114.49735449735451,8.042328042328043 114.92063492063492,8.465608465608467 115.34391534391536,8.88888888888889 115.76719576719577,9.523809523809524 116.1904761904762,9.947089947089948 116.61375661375662,10.582010582010582 116.82539682539684,11.216931216931219 117.03703703703705,11.851851851851853 117.24867724867725,12.486772486772487 117.24867724867725,13.121693121693122 117.24867724867725,13.756613756613758 117.24867724867725,14.391534391534393 117.03703703703705,15.026455026455027 116.82539682539684,15.661375661375663 116.61375661375662,16.296296296296298 116.4021164021164,16.931216931216934 115.97883597883599,17.566137566137566 115.76719576719577,18.201058201058203 115.34391534391536,18.83597883597884 114.92063492063492,19.25925925925926 114.49735449735451,19.894179894179896 114.07407407407408,20.31746031746032 113.65079365079366,20.740740740740744 113.01587301587303,21.164021164021165 112.5925925925926,21.58730158730159 112.16931216931218,22.010582010582013 111.53439153439155,22.433862433862437 110.89947089947091,22.857142857142858 110.47619047619048,23.280423280423282 110.05291005291006,23.703703703703706 109.41798941798943,24.12698412698413 108.78306878306879,24.55026455026455 108.14814814814815,24.973544973544975 107.72486772486774,25.3968253968254 107.3015873015873,25.820105820105823 106.66666666666667,26.243386243386244 106.03174603174604,26.666666666666668 105.60846560846562,27.089947089947092 105.18518518518519,27.513227513227516 104.76190476190477,27.93650793650794 104.33862433862434,28.35978835978836 103.91534391534393,28.783068783068785 103.4920634920635,29.41798941798942 103.28042328042329,30.052910052910054 103.06878306878308,30.68783068783069 102.85714285714286,31.322751322751326 102.64550264550266,31.95767195767196 102.64550264550266,32.592592592592595 102.64550264550266,33.22751322751323 103.06878306878308,33.86243386243387 103.06878306878308,34.4973544973545 103.28042328042329,35.13227513227513 103.4920634920635,35.76719576719577 103.91534391534393,36.402116402116405 104.33862433862434,37.03703703703704 104.76190476190477,37.67195767195768 105.18518518518519,38.095238095238095 105.60846560846562,38.51851851851852 106.03174603174604,38.94179894179894 106.66666666666667,39.36507936507937 107.0899470899471,39.78835978835979 107.72486772486774,40.0 108.35978835978837,40.423280423280424 108.994708994709,40.84656084656085 109.62962962962963,41.058201058201064 110.26455026455027,41.48148148148149 110.89947089947091,41.6931216931217 111.53439153439155,41.904761904761905 112.16931216931218,42.11640211640212 112.80423280423281,42.539682539682545 113.43915343915344,42.75132275132275 114.07407407407408,42.96296296296297 114.70899470899472,43.17460317460318 115.34391534391536,43.5978835978836 115.97883597883599,43.80952380952381 116.61375661375662,43.80952380952381 117.24867724867725,44.021164021164026 117.88359788359789,44.232804232804234 118.51851851851853,44.44444444444445 119.15343915343917,44.65608465608466 119.7883597883598,44.65608465608466 120.42328042328043,45.07936507936508 121.05820105820106,45.07936507936508 121.6931216931217,45.29100529100529 122.32804232804234,45.50264550264551 122.96296296296298,45.714285714285715 123.59788359788361,45.714285714285715 124.23280423280424,45.92592592592593 124.86772486772487,46.13756613756614 125.5026455026455,46.13756613756614 126.13756613756615,46.349206349206355 126.77248677248679,46.560846560846564 127.40740740740742,46.560846560846564 128.04232804232805,46.560846560846564 128.67724867724868,46.77248677248678 129.31216931216932,46.77248677248678 129.94708994708995,46.77248677248678 130.58201058201058,46.98412698412699 131.21693121693121,46.98412698412699 131.85185185185185,46.98412698412699 132.4867724867725,46.98412698412699 133.12169312169314,47.195767195767196 133.75661375661377,47.195767195767196 134.3915343915344,47.40740740740741 135.02645502645504,47.40740740740741 135.66137566137567,47.40740740740741 136.2962962962963,47.40740740740741 136.93121693121694,47.40740740740741 137.56613756613757,47.40740740740741 138.2010582010582,47.40740740740741 138.83597883597884,47.40740740740741 139.47089947089947,47.40740740740741 140.10582010582013,47.40740740740741 140.74074074074076,47.40740740740741 141.3756613756614,47.61904761904762 142.01058201058203,47.61904761904762 142.64550264550266,47.61904761904762 143.2804232804233,47.40740740740741 143.91534391534393,47.40740740740741 144.55026455026456,47.40740740740741 145.1851851851852,47.40740740740741 145.82010582010582,47.40740740740741 146.45502645502646,47.40740740740741 147.0899470899471,47.40740740740741 147.72486772486775,47.40740740740741 148.35978835978838,47.195767195767196 148.99470899470901,47.195767195767196 149.62962962962965,47.195767195767196 150.26455026455028,47.195767195767196 150.8994708994709,47.195767195767196 151.32275132275134,46.77248677248678 151.95767195767198,46.77248677248678 152.5925925925926,46.77248677248678 153.22751322751324,46.560846560846564 153.86243386243387,46.77248677248678 154.4973544973545,46.560846560846564 155.13227513227514,46.560846560846564 155.76719576719577,46.349206349206355 156.4021164021164,46.349206349206355 157.03703703703704,46.349206349206355 160.0,46.13756613756614" style="fill:none; stroke:#cc0000; stroke-width:1.0"  /><polyline points="160.0,46.13756613756614 161.90476190476193,49.73544973544974 162.32804232804233,50.370370370370374 162.53968253968256,51.00529100529101 162.96296296296296,51.640211640211646 163.1746031746032,52.27513227513228 163.59788359788362,52.91005291005291 163.80952380952382,53.54497354497355 164.23280423280426,54.179894179894184 164.44444444444446,54.81481481481482 164.8677248677249,55.449735449735456 165.2910052910053,56.08465608465609 165.50264550264552,56.71957671957672 165.92592592592595,57.35449735449736 166.13756613756615,57.989417989417994 166.56084656084658,58.62433862433863 166.984126984127,59.25925925925927 167.19576719576722,59.8941798941799 167.61904761904762,60.52910052910053 168.04232804232805,61.16402116402117 168.25396825396825,61.798941798941804 168.67724867724868,62.22222222222223 169.10052910052912,62.85714285714286 169.52380952380955,63.492063492063494 169.73544973544975,64.12698412698413 170.15873015873018,64.55026455026456 170.58201058201058,65.18518518518519 171.005291005291,65.82010582010582 171.42857142857144,66.45502645502646 171.85185185185188,67.08994708994709 172.27513227513228,67.72486772486774 172.6984126984127,68.14814814814815 173.12169312169314,68.78306878306879 173.54497354497354,69.41798941798942 173.96825396825398,70.05291005291006 174.3915343915344,70.6878306878307 174.81481481481484,71.32275132275133 175.23809523809524,71.95767195767196 175.44973544973547,72.5925925925926 175.87301587301587,73.01587301587303 176.2962962962963,73.65079365079366 176.71957671957674,74.28571428571429 176.93121693121694,74.92063492063492 177.35449735449737,75.55555555555556 177.7777777777778,76.19047619047619 178.2010582010582,76.82539682539684 178.62433862433863,77.46031746031747 179.04761904761907,78.0952380952381 179.04761904761907,78.73015873015873 179.4708994708995,79.36507936507937 179.8941798941799,80.0 180.10582010582013,80.63492063492065 180.31746031746033,81.26984126984128 180.74074074074076,81.90476190476191 180.95238095238096,82.53968253968254 181.16402116402116,83.17460317460318 181.5873015873016,83.80952380952381 181.79894179894183,84.44444444444446 182.01058201058203,85.07936507936509 182.22222222222223,85.71428571428572 182.22222222222223,86.34920634920636 182.43386243386246,86.98412698412699 182.43386243386246,87.61904761904762 182.43386243386246,88.25396825396827 182.64550264550266,88.8888888888889 182.43386243386246,89.52380952380953 182.43386243386246,90.15873015873017 182.22222222222223,90.7936507936508 181.79894179894183,91.21693121693123 181.5873015873016,91.85185185185186 181.16402116402116,92.27513227513228 180.74074074074076,92.69841269841271 180.31746031746033,93.12169312169313 179.6825396825397,93.54497354497356 179.04761904761907,93.96825396825398 178.41269841269843,94.17989417989419 177.7777777777778,94.39153439153439 177.14285714285717,94.60317460317461 176.50793650793653,94.81481481481482 175.87301587301587,95.02645502645504 175.23809523809524,95.02645502645504 174.6031746031746,95.02645502645504 173.96825396825398,95.02645502645504 173.33333333333334,95.02645502645504 172.6984126984127,95.02645502645504 172.06349206349208,95.02645502645504 171.42857142857144,95.02645502645504 170.7936507936508,95.02645502645504 170.15873015873018,95.02645502645504 169.52380952380955,95.23809523809524 168.8888888888889,95.23809523809524 168.25396825396825,95.23809523809524 167.61904761904762,95.44973544973546 166.984126984127,95.44973544973546 166.34920634920636,95.66137566137567 165.71428571428572,95.87301587301587 165.0793650793651,96.08465608465609 164.44444444444446,96.2962962962963 163.80952380952382,96.50793650793652 163.1746031746032,96.71957671957672 162.53968253968256,96.93121693121694 161.90476190476193,97.35449735449737 161.2698412698413,97.56613756613757 160.63492063492066,97.989417989418 160.0,98.41269841269842 159.36507936507937,98.83597883597885 158.73015873015873,99.25925925925927 158.30687830687833,99.68253968253968 157.8835978835979,100.10582010582011 157.46031746031747,100.52910052910053 157.03703703703704,100.95238095238096 156.61375661375664,101.37566137566138 156.1904761904762,102.01058201058201 155.76719576719577,102.64550264550266 155.76719576719577,103.28042328042329 155.34391534391534,103.70370370370371 155.13227513227514,104.33862433862434 154.92063492063494,104.97354497354497 154.4973544973545,105.60846560846562 154.2857142857143,106.24338624338625 154.07407407407408,106.87830687830689 153.86243386243387,107.51322751322752 153.86243386243387,108.14814814814815 153.65079365079367,108.78306878306879 153.43915343915344,109.41798941798943 153.22751322751324,110.05291005291006 153.01587301587304,110.6878306878307 153.01587301587304,111.32275132275133 152.8042328042328,111.95767195767196 152.5925925925926,112.5925925925926 152.5925925925926,113.22751322751324 152.5925925925926,113.86243386243387 152.38095238095238,114.49735449735451 152.38095238095238,115.13227513227514 152.38095238095238,115.76719576719577 152.38095238095238,116.4021164021164 152.38095238095238,117.03703703703705 152.38095238095238,117.67195767195768 152.38095238095238,118.30687830687832 152.38095238095238,118.94179894179895 152.38095238095238,119.57671957671958 152.38095238095238,120.21164021164022 152.38095238095238,120.84656084656086 152.38095238095238,121.4814814814815 152.5925925925926,122.11640211640213 152.5925925925926,122.75132275132276 152.8042328042328,123.3862433862434 152.8042328042328,124.02116402116403 153.01587301587304,124.65608465608466 153.22751322751324,125.2910052910053 153.43915343915344,125.92592592592594 153.65079365079367,126.56084656084657 153.86243386243387,127.1957671957672 154.07407407407408,127.83068783068784 154.2857142857143,128.46560846560848 154.4973544973545,129.10052910052912 154.92063492063494,129.73544973544975 155.34391534391534,130.37037037037038 155.76719576719577,131.005291005291 156.1904761904762,131.64021164021165 156.61375661375664,132.27513227513228 157.03703703703704,132.6984126984127 157.46031746031747,133.12169312169314 157.8835978835979,133.54497354497354 158.30687830687833,133.96825396825398 158.94179894179896,134.3915343915344 159.36507936507937,134.81481481481484 160.0,135.02645502645504 160.42328042328043,135.44973544973547 161.05820105820106,135.66137566137567 161.6931216931217,136.0846560846561 162.32804232804233,136.2962962962963 162.96296296296296,136.5079365079365 163.59788359788362,136.93121693121694 164.23280423280426,136.93121693121694 164.8677248677249,137.14285714285717 165.50264550264552,137.35449735449737 166.13756613756615,137.56613756613757 166.7724867724868,137.56613756613757 167.40740740740742,137.7777777777778 168.04232804232805,137.7777777777778 168.67724867724868,137.989417989418 169.31216931216932,137.989417989418 169.94708994708995,137.989417989418 170.58201058201058,137.7777777777778 171.21693121693124,137.7777777777778 171.85185185185188,137.7777777777778 172.4867724867725,137.7777777777778 173.12169312169314,137.7777777777778 173.54497354497354,137.35449735449737 174.1798941798942,137.14285714285717 174.81481481481484,136.93121693121694 175.44973544973547,136.71957671957674 176.0846560846561,136.5079365079365 176.71957671957674,136.5079365079365 177.35449735449737,136.2962962962963 177.989417989418,136.5079365079365 178.62433862433863,136.2962962962963 179.25925925925927,136.0846560846561 179.8941798941799,136.0846560846561 180.52910052910053,136.0846560846561 181.16402116402116,136.0846560846561 181.79894179894183,136.0846560846561 182.43386243386246,136.2962962962963 183.0687830687831,136.2962962962963 183.70370370370372,136.2962962962963 184.33862433862436,136.2962962962963 184.973544973545,136.71957671957674 185.60846560846562,136.93121693121694 186.24338624338625,137.14285714285717 186.8783068783069,137.35449735449737 187.51322751322752,137.7777777777778 188.14814814814815,138.2010582010582 188.57142857142858,138.62433862433863 188.99470899470901,139.04761904761907 189.20634920634922,139.6825396825397 189.41798941798945,140.31746031746033 189.41798941798945,140.95238095238096 189.62962962962965,141.5873015873016 189.62962962962965,142.22222222222223 189.41798941798945,142.85714285714286 189.41798941798945,143.4920634920635 189.41798941798945,144.12698412698413 189.20634920634922,144.76190476190476 189.20634920634922,145.39682539682542 189.20634920634922,146.03174603174605 188.99470899470901,146.66666666666669 188.99470899470901,147.30158730158732 188.78306878306879,147.93650793650795 188.78306878306879,148.57142857142858 188.57142857142858,149.20634920634922 188.35978835978838,149.84126984126985 188.14814814814815,150.47619047619048 187.93650793650795,151.11111111111111 187.93650793650795,151.74603174603175 187.72486772486775,152.38095238095238 187.51322751322752,153.01587301587304 187.30158730158732,153.65079365079367 187.08994708994712,154.2857142857143 186.8783068783069,154.92063492063494 186.45502645502646,155.55555555555557 186.45502645502646,156.1904761904762 186.03174603174605,156.82539682539684 185.82010582010582,157.46031746031747 185.60846560846562,158.0952380952381 185.39682539682542,158.73015873015873 185.1851851851852,159.36507936507937 184.973544973545,160.0 184.55026455026456,160.63492063492066 184.33862433862436,161.2698412698413 184.12698412698415,161.90476190476193 183.91534391534393,162.53968253968256 183.70370370370372,163.1746031746032 183.2804232804233,163.80952380952382 183.0687830687831,164.44444444444446 182.85714285714286,165.0793650793651 182.64550264550266,165.71428571428572 182.43386243386246,166.34920634920636 182.22222222222223,166.984126984127 182.01058201058203,167.61904761904762 181.5873015873016,168.25396825396825 181.3756613756614,168.8888888888889 181.16402116402116,169.52380952380955 180.95238095238096,170.15873015873018 180.74074074074076,170.7936507936508 180.52910052910053,171.42857142857144 180.31746031746033,172.06349206349208 180.10582010582013,172.6984126984127 180.10582010582013,173.33333333333334 179.8941798941799,173.96825396825398 179.6825396825397,174.6031746031746 179.4708994708995,175.23809523809524 179.25925925925927,175.87301587301587 179.04761904761907,176.50793650793653 178.2010582010582,179.4708994708995" style="fill:none; stroke:#999900; stroke-width:1.0"  /><polyline points="178.2010582010582,179.4708994708995 174.3915343915344,179.4708994708995 173.75661375661377,179.4708994708995 173.12169312169314,179.4708994708995 172.4867724867725,179.4708994708995 171.85185185185188,179.4708994708995 171.21693121693124,179.4708994708995 170.58201058201058,179.4708994708995 169.94708994708995,179.4708994708995 169.31216931216932,179.4708994708995 168.67724867724868,179.4708994708995 168.04232804232805,179.4708994708995 167.40740740740742,179.4708994708995 166.7724867724868,179.4708994708995 166.13756613756615,179.4708994708995 165.50264550264552,179.4708994708995 164.8677248677249,179.4708994708995 164.23280423280426,179.4708994708995 163.59788359788362,179.25925925925927 162.96296296296296,179.4708994708995 162.32804232804233,179.4708994708995 161.6931216931217,179.4708994708995 161.05820105820106,179.25925925925927 160.42328042328043,179.25925925925927 159.7883597883598,179.25925925925927 159.15343915343917,179.4708994708995 158.51851851851853,179.4708994708995 157.8835978835979,179.4708994708995 157.24867724867727,179.25925925925927 156.61375661375664,179.4708994708995 155.978835978836,179.4708994708995 155.34391534391534,179.4708994708995 154.7089947089947,179.4708994708995 154.07407407407408,179.4708994708995 153.43915343915344,179.4708994708995 152.8042328042328,179.4708994708995 152.16931216931218,179.4708994708995 151.53439153439155,179.6825396825397 150.8994708994709,179.6825396825397 150.26455026455028,179.6825396825397 149.62962962962965,179.4708994708995 148.99470899470901,179.4708994708995 148.35978835978838,179.4708994708995 147.72486772486775,179.4708994708995 147.0899470899471,179.4708994708995 146.45502645502646,179.4708994708995 145.82010582010582,179.6825396825397 145.1851851851852,179.6825396825397 144.55026455026456,179.4708994708995 143.91534391534393,179.4708994708995 143.2804232804233,179.4708994708995 142.64550264550266,179.4708994708995 142.01058201058203,179.4708994708995 141.3756613756614,179.4708994708995 140.74074074074076,179.4708994708995 140.10582010582013,179.4708994708995 139.47089947089947,179.4708994708995 138.83597883597884,179.4708994708995 138.2010582010582,179.4708994708995 137.56613756613757,179.25925925925927 136.93121693121694,179.25925925925927 136.2962962962963,179.4708994708995 135.66137566137567,179.25925925925927 135.02645502645504,179.25925925925927 134.3915343915344,179.25925925925927 133.75661375661377,179.25925925925927 133.12169312169314,179.25925925925927 132.4867724867725,179.25925925925927 131.85185185185185,179.25925925925927 131.21693121693121,179.25925925925927 130.58201058201058,179.04761904761907 129.94708994708995,179.04761904761907 129.31216931216932,179.04761904761907 128.67724867724868,179.04761904761907 128.04232804232805,179.04761904761907 127.40740740740742,179.04761904761907 126.77248677248679,178.83597883597884 126.13756613756615,178.83597883597884 125.5026455026455,178.83597883597884 124.86772486772487,178.62433862433863 124.23280423280424,178.62433862433863 123.59788359788361,178.41269841269843 122.96296296296298,178.41269841269843 122.32804232804234,178.2010582010582 121.6931216931217,178.2010582010582 121.05820105820106,177.989417989418 120.42328042328043,177.989417989418 119.7883597883598,177.7777777777778 119.15343915343917,177.56613756613757 118.51851851851853,177.35449735449737 117.88359788359789,177.35449735449737 117.24867724867725,177.14285714285717 116.61375661375662,176.93121693121694 115.97883597883599,176.93121693121694 115.34391534391536,176.71957671957674 114.92063492063492,176.2962962962963 114.28571428571429,176.0846560846561 113.86243386243387,175.66137566137567 113.22751322751324,175.23809523809524 112.80423280423281,174.81481481481484 112.3809523809524,174.3915343915344 111.95767195767196,173.96825396825398 111.53439153439155,173.33333333333334 111.11111111111111,172.9100529100529 110.89947089947091,172.27513227513228 110.6878306878307,171.64021164021165 110.6878306878307,171.005291005291 110.6878306878307,170.37037037037038 110.89947089947091,169.73544973544975 111.11111111111111,169.10052910052912 111.11111111111111,168.46560846560848 111.32275132275133,167.83068783068785 111.53439153439155,167.19576719576722 111.74603174603176,166.56084656084658 111.95767195767196,165.92592592592595 112.16931216931218,165.2910052910053 112.5925925925926,164.65608465608466 112.80423280423281,164.02116402116403 113.01587301587303,163.3862433862434 113.22751322751324,162.75132275132276 113.43915343915344,162.11640211640213 113.65079365079366,161.4814814814815 114.07407407407408,160.84656084656086 114.28571428571429,160.21164021164023 114.49735449735451,159.5767195767196 114.70899470899472,158.94179894179896 115.13227513227514,158.51851851851853 115.34391534391536,157.8835978835979 115.55555555555557,157.24867724867727 115.97883597883599,156.61375661375664 116.1904761904762,155.978835978836 116.4021164021164,155.34391534391534 116.61375661375662,154.7089947089947 117.03703703703705,154.07407407407408 117.24867724867725,153.43915343915344 117.67195767195768,153.01587301587304 117.88359788359789,152.38095238095238 118.30687830687832,151.74603174603175 118.51851851851853,151.11111111111111 118.94179894179895,150.47619047619048 119.15343915343917,149.84126984126985 119.57671957671958,149.20634920634922 120.00000000000001,148.57142857142858 120.21164021164022,147.93650793650795 120.63492063492065,147.30158730158732 120.84656084656086,146.66666666666669 121.26984126984128,146.24338624338625 121.4814814814815,145.60846560846562 121.90476190476191,144.973544973545 122.11640211640213,144.33862433862436 122.32804232804234,143.70370370370372 122.75132275132276,143.0687830687831 122.96296296296298,142.43386243386246 123.17460317460318,141.7989417989418 123.3862433862434,141.16402116402116 123.59788359788361,140.52910052910053 123.80952380952382,139.8941798941799 124.02116402116403,139.25925925925927 124.23280423280424,138.62433862433863 124.02116402116403,137.989417989418 124.23280423280424,137.35449735449737 124.23280423280424,136.71957671957674 124.44444444444446,136.0846560846561 124.44444444444446,135.44973544973547 124.44444444444446,134.81481481481484 124.44444444444446,134.17989417989418 124.44444444444446,133.54497354497354 124.23280423280424,132.9100529100529 124.02116402116403,132.27513227513228 123.59788359788361,131.64021164021165 123.17460317460318,131.005291005291 122.75132275132276,130.37037037037038 122.32804232804234,129.94708994708995 121.90476190476191,129.52380952380955 121.4814814814815,129.10052910052912 120.84656084656086,128.67724867724868 120.21164021164022,128.46560846560848 119.57671957671958,128.04232804232805 118.94179894179895,127.61904761904763 118.30687830687832,127.1957671957672 117.67195767195768,126.98412698412699 117.03703703703705,126.56084656084657 116.4021164021164,126.56084656084657 115.76719576719577,126.34920634920636 115.13227513227514,125.92592592592594 114.49735449735451,125.71428571428572 113.86243386243387,125.5026455026455 113.22751322751324,125.5026455026455 112.5925925925926,125.2910052910053 111.95767195767196,125.07936507936509 111.32275132275133,125.07936507936509 110.6878306878307,124.86772486772487 110.05291005291006,124.86772486772487 109.41798941798943,124.86772486772487 108.78306878306879,124.86772486772487 108.14814814814815,124.65608465608466 107.51322751322752,124.86772486772487 106.87830687830689,124.86772486772487 106.24338624338625,124.86772486772487 105.60846560846562,124.86772486772487 104.97354497354497,124.86772486772487 104.33862433862434,125.07936507936509 103.70370370370371,125.07936507936509 103.06878306878308,125.07936507936509 102.43386243386244,125.2910052910053 101.79894179894181,125.2910052910053 101.16402116402116,125.5026455026455 100.52910052910053,125.71428571428572 99.8941798941799,125.71428571428572 99.25925925925927,126.13756613756615 98.62433862433863,126.13756613756615 97.989417989418,126.34920634920636 97.35449735449737,126.56084656084657 96.71957671957672,126.98412698412699 96.08465608465609,127.1957671957672 95.44973544973546,127.40740740740742 94.81481481481482,127.61904761904763 94.17989417989419,128.04232804232805 93.54497354497356,128.25396825396825 92.91005291005291,128.46560846560848 92.27513227513228,128.88888888888889 91.64021164021165,129.10052910052912 91.00529100529101,129.31216931216932 90.37037037037038,129.73544973544975 89.73544973544975,129.94708994708995 89.1005291005291,130.15873015873018 88.46560846560847,130.58201058201058 87.83068783068784,130.7936507936508 87.40740740740742,131.21693121693121 86.77248677248677,131.64021164021165 86.34920634920636,132.06349206349208 85.71428571428572,132.4867724867725 85.29100529100529,132.9100529100529 84.86772486772487,133.33333333333334 84.44444444444446,133.96825396825398 84.02116402116403,134.6031746031746 83.80952380952381,135.23809523809524 83.3862433862434,135.87301587301587 83.17460317460318,136.5079365079365 82.96296296296298,137.14285714285717 82.75132275132276,137.7777777777778 82.75132275132276,138.41269841269843 82.75132275132276,139.04761904761907 82.53968253968254,139.6825396825397 82.53968253968254,140.31746031746033 82.32804232804233,140.95238095238096 82.32804232804233,141.5873015873016 82.32804232804233,142.22222222222223 82.32804232804233,142.85714285714286 82.11640211640213,143.4920634920635 82.11640211640213,144.12698412698413 82.32804232804233,144.76190476190476 82.32804232804233,145.39682539682542 82.32804232804233,146.03174603174605 82.53968253968254,146.66666666666669 82.53968253968254,147.30158730158732 82.75132275132276,147.93650793650795 82.96296296296298,148.57142857142858 83.17460317460318,149.20634920634922 83.3862433862434,149.84126984126985 83.80952380952381,150.47619047619048 84.02116402116403,151.11111111111111 84.23280423280424,151.74603174603175 84.44444444444446,152.38095238095238 84.65608465608466,153.01587301587304 84.86772486772487,153.65079365079367 85.07936507936509,154.2857142857143 85.29100529100529,154.92063492063494 85.71428571428572,155.55555555555557 85.92592592592594,156.1904761904762 86.13756613756614,156.82539682539684 86.34920634920636,157.46031746031747 86.56084656084657,158.0952380952381 86.77248677248677,158.73015873015873 86.98412698412699,159.36507936507937 87.1957671957672,160.0 87.1957671957672,160.63492063492066 87.1957671957672,161.2698412698413 87.40740740740742,161.90476190476193 87.1957671957672,162.53968253968256 87.1957671957672,163.1746031746032 87.1957671957672,163.80952380952382 86.98412698412699,164.44444444444446 86.56084656084657,165.0793650793651 86.13756613756614,165.71428571428572 85.71428571428572,166.13756613756615 85.07936507936509,166.56084656084658 84.44444444444446,166.7724867724868 83.80952380952381,166.984126984127 83.17460317460318,167.19576719576722 82.53968253968254,167.19576719576722 81.90476190476191,167.19576719576722 81.26984126984128,167.40740740740742 80.63492063492065,167.40740740740742 80.0,167.40740740740742 79.36507936507937,167.40740740740742 78.73015873015873,167.19576719576722 78.0952380952381,167.19576719576722 77.46031746031747,166.984126984127 76.82539682539684,166.984126984127 76.19047619047619,166.7724867724868 75.55555555555556,166.7724867724868 74.92063492063492,166.56084656084658 74.28571428571429,166.56084656084658 73.65079365079366,166.34920634920636 73.01587301587303,166.13756613756615 72.38095238095238,165.92592592592595 71.74603174603175,165.92592592592595 71.11111111111111,165.71428571428572 70.47619047619048,165.50264550264552 69.84126984126985,165.50264550264552 69.20634920634922,165.2910052910053 68.57142857142858,165.2910052910053 67.93650793650794,165.0793650793651 67.3015873015873,164.8677248677249 66.66666666666667,164.65608465608466 66.03174603174604,164.65608465608466 65.3968253968254,164.44444444444446 64.76190476190477,164.44444444444446 64.12698412698413,164.23280423280426 63.492063492063494,164.02116402116403 62.85714285714286,163.80952380952382 62.22222222222223,163.80952380952382 61.58730158730159,163.3862433862434 60.952380952380956,163.3862433862434 60.31746031746032,163.1746031746032 59.682539682539684,162.96296296296296 59.04761904761905,162.75132275132276 58.41269841269842,162.75132275132276 57.777777777777786,162.53968253968256 57.142857142857146,162.32804232804233 56.50793650793651,162.32804232804233 55.87301587301588,162.11640211640213 55.23809523809524,161.90476190476193 54.60317460317461,161.6931216931217 53.968253968253975,161.4814814814815 53.333333333333336,161.4814814814815 52.6984126984127,161.2698412698413 52.06349206349207,161.05820105820106 51.42857142857143,161.05820105820106 50.7936507936508,160.84656084656086 50.158730158730165,160.63492063492066 49.523809523809526,160.42328042328043 48.88888888888889,160.42328042328043 48.25396825396826,160.21164021164023 47.61904761904762,160.0 46.98412698412699,160.0 46.349206349206355,160.0 45.714285714285715,159.7883597883598 45.07936507936508,159.7883597883598 44.44444444444445,159.5767195767196 43.80952380952381,159.36507936507937 43.17460317460318,159.36507936507937 42.539682539682545,159.15343915343917 41.904761904761905,159.15343915343917 41.26984126984127,158.94179894179896 40.63492063492064,158.94179894179896 40.0,158.73015873015873 39.36507936507937,158.73015873015873 38.730158730158735,158.51851851851853 38.095238095238095,158.51851851851853 37.46031746031746,158.51851851851853 36.82539682539683,158.30687830687833 36.19047619047619,158.30687830687833 35.55555555555556,158.0952380952381 34.920634920634924,158.0952380952381 34.28571428571429,158.0952380952381 33.65079365079365,158.0952380952381 33.01587301587302,157.8835978835979 32.38095238095239,157.67195767195767 31.746031746031747,157.67195767195767 31.111111111111114,157.67195767195767 30.476190476190478,157.67195767195767 29.841269841269842,157.67195767195767 29.20634920634921,157.67195767195767 28.571428571428573,157.67195767195767 27.93650793650794,157.67195767195767 27.301587301587304,157.67195767195767 26.666666666666668,157.67195767195767 26.031746031746035,157.67195767195767 25.3968253968254,157.67195767195767 24.761904761904763,157.67195767195767 24.12698412698413,157.67195767195767 23.492063492063494,157.67195767195767 22.857142857142858,157.67195767195767 22.222222222222225,157.67195767195767 21.58730158730159,157.67195767195767 20.952380952380953,157.8835978835979 20.31746031746032,157.8835978835979 19.682539682539684,158.0952380952381 19.047619047619047,158.0952380952381 18.412698412698415,158.0952380952381 15.026455026455027,158.30687830687833" style="fill:none; stroke:#00aa99; stroke-width:1.0"  /><polyline points="15.026455026455027,158.30687830687833 13.756613756613758,155.34391534391534 13.544973544973546,154.7089947089947 13.333333333333334,154.07407407407408 12.910052910052912,153.43915343915344 12.6984126984127,152.8042328042328 12.486772486772487,152.16931216931218 12.275132275132275,151.53439153439155 12.063492063492065,150.8994708994709 11.640211640211641,150.26455026455028 11.428571428571429,149.62962962962965 11.216931216931219,148.99470899470901 10.793650793650794,148.35978835978838 10.370370370370372,147.93650793650795 10.15873015873016,147.30158730158732 9.947089947089948,146.66666666666669 9.523809523809524,146.03174603174605 9.312169312169313,145.39682539682542 8.88888888888889,144.76190476190476 8.677248677248677,144.12698412698413 8.253968253968255,143.4920634920635 8.042328042328043,142.85714285714286 7.6190476190476195,142.22222222222223 7.407407407407408,141.5873015873016 6.984126984126985,140.95238095238096 6.772486772486773,140.31746031746033 6.34920634920635,139.6825396825397 6.137566137566138,139.04761904761907 5.9259259259259265,138.41269841269843 5.502645502645503,137.7777777777778 5.291005291005291,137.14285714285717 5.291005291005291,136.5079365079365 5.07936507936508,135.87301587301587 4.867724867724868,135.23809523809524 4.656084656084657,134.6031746031746 4.444444444444445,133.96825396825398 4.2328042328042335,133.33333333333334 4.2328042328042335,132.6984126984127 4.021164021164021,132.06349206349208 3.8095238095238098,131.42857142857144 3.8095238095238098,130.7936507936508 3.597883597883598,130.15873015873018 3.597883597883598,129.52380952380955 3.3862433862433865,128.88888888888889 3.174603174603175,128.25396825396825 3.174603174603175,127.61904761904763 3.174603174603175,126.98412698412699 2.9629629629629632,126.34920634920636 2.9629629629629632,125.71428571428572 2.9629629629629632,125.07936507936509 2.7513227513227516,124.44444444444446 2.7513227513227516,123.80952380952382 2.7513227513227516,123.17460317460318 2.7513227513227516,122.53968253968254 2.53968253968254,121.90476190476191 2.53968253968254,121.26984126984128 2.53968253968254,120.63492063492065 2.53968253968254,120.00000000000001 2.53968253968254,119.36507936507937 2.53968253968254,118.73015873015873 2.53968253968254,118.0952380952381 2.53968253968254,117.46031746031747 2.53968253968254,116.82539682539684 2.53968253968254,116.1904761904762 2.53968253968254,115.55555555555557 2.7513227513227516,114.92063492063492 2.7513227513227516,114.28571428571429 2.7513227513227516,113.65079365079366 2.7513227513227516,113.01587301587303 2.7513227513227516,112.3809523809524 2.9629629629629632,111.74603174603176 2.9629629629629632,111.11111111111111 3.174603174603175,110.47619047619048 3.174603174603175,109.84126984126985 3.3862433862433865,109.20634920634922 3.3862433862433865,108.57142857142858 3.3862433862433865,107.93650793650795 3.597883597883598,107.3015873015873 3.8095238095238098,106.66666666666667 4.021164021164021,106.03174603174604 4.2328042328042335,105.3968253968254 4.444444444444445,104.76190476190477 4.656084656084657,104.12698412698414 4.656084656084657,103.4920634920635 4.867724867724868,102.85714285714286 5.291005291005291,102.22222222222223 5.714285714285714,101.5873015873016 6.137566137566138,101.16402116402116 6.560846560846561,100.74074074074075 7.195767195767196,100.74074074074075 7.830687830687832,100.31746031746033 8.465608465608467,100.31746031746033 9.100529100529101,100.31746031746033 9.735449735449736,100.31746031746033 10.15873015873016,100.74074074074075 10.793650793650794,100.74074074074075 11.428571428571429,100.95238095238096 12.063492063492065,101.16402116402116 12.6984126984127,101.37566137566138 13.121693121693122,101.79894179894181 13.544973544973546,102.22222222222223 14.17989417989418,102.64550264550266 14.603174603174605,103.06878306878308 15.026455026455027,103.4920634920635 15.661375661375663,103.91534391534393 16.084656084656086,104.55026455026456 16.50793650793651,105.18518518518519 16.931216931216934,105.60846560846562 17.354497354497354,106.24338624338625 17.77777777777778,106.87830687830689 18.201058201058203,107.51322751322752 18.624338624338627,108.14814814814815 19.047619047619047,108.78306878306879 19.25925925925926,109.41798941798943 19.682539682539684,109.84126984126985 20.105820105820108,110.26455026455027 20.529100529100532,110.89947089947091 20.952380952380953,111.32275132275133 21.375661375661377,111.74603174603176 21.7989417989418,112.16931216931218 22.222222222222225,112.5925925925926 22.645502645502646,113.01587301587303 23.280423280423282,113.43915343915344 23.915343915343918,113.65079365079366 24.55026455026455,114.07407407407408 25.185185185185187,114.49735449735451 25.820105820105823,114.70899470899472 26.455026455026456,114.92063492063492 27.089947089947092,115.34391534391536 27.724867724867728,115.34391534391536 28.35978835978836,115.55555555555557 28.994708994708997,115.55555555555557 29.629629629629633,115.76719576719577 30.264550264550266,115.76719576719577 30.899470899470902,115.97883597883599 31.53439153439154,115.97883597883599 32.16931216931217,115.76719576719577 32.804232804232804,115.97883597883599 33.43915343915344,115.97883597883599 34.074074074074076,115.76719576719577 34.70899470899471,115.55555555555557 35.34391534391535,115.34391534391536 35.97883597883598,115.34391534391536 36.402116402116405,114.92063492063492 37.03703703703704,114.92063492063492 37.67195767195768,114.49735449735451 38.30687830687831,114.28571428571429 38.94179894179894,114.07407407407408 39.36507936507937,113.65079365079366 40.0,113.22751322751324 40.63492063492064,112.80423280423281 41.26984126984127,112.3809523809524 41.6931216931217,111.95767195767196 42.11640211640212,111.53439153439155 42.539682539682545,111.11111111111111 42.96296296296297,110.6878306878307 43.386243386243386,110.26455026455027 43.80952380952381,109.62962962962963 44.232804232804234,109.20634920634922 44.65608465608466,108.57142857142858 45.07936507936508,107.93650793650795 45.29100529100529,107.3015873015873 45.714285714285715,106.66666666666667 46.13756613756614,106.03174603174604 46.560846560846564,105.3968253968254 46.77248677248678,104.76190476190477 46.98412698412699,104.12698412698414 47.195767195767196,103.4920634920635 47.195767195767196,102.85714285714286 47.40740740740741,102.22222222222223 47.61904761904762,101.5873015873016 47.830687830687836,100.95238095238096 48.042328042328045,100.31746031746033 48.042328042328045,99.68253968253968 48.25396825396826,99.04761904761905 48.25396825396826,98.41269841269842 48.46560846560847,97.77777777777779 48.46560846560847,97.14285714285715 48.46560846560847,96.50793650793652 48.677248677248684,95.87301587301587 48.677248677248684,95.23809523809524 48.677248677248684,94.60317460317461 48.677248677248684,93.96825396825398 48.677248677248684,93.33333333333334 48.88888888888889,92.69841269841271 48.88888888888889,92.06349206349208 48.88888888888889,91.42857142857143 48.88888888888889,90.7936507936508 48.88888888888889,90.15873015873017 48.88888888888889,89.52380952380953 48.88888888888889,88.8888888888889 48.677248677248684,88.25396825396827 48.677248677248684,87.61904761904762 48.677248677248684,86.98412698412699 48.677248677248684,86.34920634920636 48.46560846560847,85.71428571428572 48.46560846560847,85.07936507936509 48.25396825396826,84.44444444444446 48.25396825396826,83.80952380952381 48.042328042328045,83.17460317460318 47.830687830687836,82.53968253968254 47.830687830687836,81.90476190476191 47.40740740740741,81.48148148148148 47.195767195767196,80.84656084656085 46.98412698412699,80.21164021164022 46.77248677248678,79.57671957671958 46.560846560846564,78.94179894179895 46.13756613756614,78.51851851851852 45.714285714285715,77.88359788359789 45.29100529100529,77.24867724867725 44.867724867724874,76.61375661375662 44.44444444444445,75.97883597883599 44.021164021164026,75.34391534391536 43.5978835978836,74.92063492063492 43.17460317460318,74.28571428571429 42.75132275132275,73.65079365079366 42.32804232804233,73.22751322751323 41.904761904761905,72.80423280423281 41.48148148148149,72.38095238095238 41.058201058201064,71.95767195767196 40.423280423280424,71.53439153439155 39.78835978835979,71.32275132275133 39.36507936507937,70.8994708994709 38.730158730158735,70.6878306878307 38.095238095238095,70.47619047619048 37.46031746031746,70.47619047619048 36.82539682539683,70.47619047619048 36.19047619047619,70.26455026455027 35.55555555555556,70.26455026455027 34.920634920634924,70.47619047619048 34.28571428571429,70.47619047619048 33.65079365079365,70.47619047619048 33.01587301587302,70.6878306878307 32.38095238095239,70.6878306878307 31.746031746031747,70.8994708994709 31.111111111111114,71.11111111111111 30.476190476190478,71.32275132275133 29.841269841269842,71.74603174603175 29.20634920634921,71.95767195767196 28.571428571428573,72.38095238095238 27.93650793650794,72.5925925925926 27.301587301587304,73.01587301587303 26.666666666666668,73.43915343915344 26.031746031746035,73.86243386243387 25.3968253968254,74.07407407407408 24.761904761904763,74.49735449735451 24.12698412698413,74.70899470899471 23.492063492063494,75.13227513227514 22.857142857142858,75.34391534391536 22.222222222222225,75.55555555555556 21.58730158730159,75.76719576719577 20.952380952380953,75.76719576719577 20.31746031746032,75.97883597883599 19.682539682539684,75.97883597883599 19.047619047619047,75.97883597883599 18.412698412698415,75.97883597883599 17.77777777777778,75.76719576719577 17.142857142857146,75.55555555555556 16.50793650793651,75.34391534391536 16.084656084656086,74.92063492063492 15.449735449735451,74.49735449735451 15.026455026455027,74.07407407407408 14.603174603174605,73.65079365079366 14.17989417989418,73.01587301587303 13.756613756613758,72.38095238095238 13.333333333333334,71.74603174603175 13.121693121693122,71.11111111111111 12.6984126984127,70.6878306878307 12.486772486772487,70.05291005291006 12.063492063492065,69.41798941798942 11.851851851851853,68.78306878306879 11.428571428571429,68.35978835978837 11.005291005291006,67.93650793650794 10.793650793650794,67.3015873015873 10.582010582010582,66.66666666666667 10.15873015873016,66.03174603174604 9.947089947089948,65.3968253968254 9.735449735449736,64.76190476190477 9.312169312169313,64.12698412698413 9.100529100529101,63.492063492063494 8.88888888888889,62.85714285714286 8.677248677248677,62.22222222222223 8.465608465608467,61.58730158730159 8.253968253968255,60.952380952380956 8.042328042328043,60.31746031746032 7.830687830687832,59.682539682539684 7.6190476190476195,59.04761904761905 7.6190476190476195,58.41269841269842 7.407407407407408,57.777777777777786 6.984126984126985,57.142857142857146 6.984126984126985,56.50793650793651 6.772486772486773,55.87301587301588 6.560846560846561,55.23809523809524 6.34920634920635,54.60317460317461 6.34920634920635,53.968253968253975 5.9259259259259265,53.333333333333336 5.9259259259259265,52.6984126984127 5.714285714285714,52.06349206349207 5.714285714285714,51.42857142857143 5.502645502645503,50.7936507936508 5.291005291005291,50.158730158730165 5.07936507936508,49.523809523809526 4.867724867724868,48.88888888888889 4.867724867724868,48.25396825396826 4.444444444444445,47.61904761904762 4.444444444444445,46.98412698412699 4.2328042328042335,46.349206349206355 4.2328042328042335,45.714285714285715 4.021164021164021,45.07936507936508 3.8095238095238098,44.44444444444445 3.597883597883598,43.80952380952381 3.597883597883598,43.17460317460318 3.3862433862433865,42.539682539682545 3.3862433862433865,41.904761904761905 3.174603174603175,41.26984126984127 2.9629629629629632,40.63492063492064 2.9629629629629632,40.0 2.7513227513227516,39.36507936507937 2.7513227513227516,38.730158730158735 2.53968253968254,38.095238095238095 2.53968253968254,37.46031746031746 2.3280423280423284,36.82539682539683 2.3280423280423284,36.19047619047619 2.1164021164021167,35.55555555555556 2.1164021164021167,34.920634920634924 2.1164021164021167,34.28571428571429 1.9047619047619049,33.65079365079365 1.6931216931216932,33.01587301587302 1.4814814814814816,32.38095238095239 1.4814814814814816,31.746031746031747 1.4814814814814816,31.111111111111114 1.26984126984127,30.476190476190478 1.26984126984127,29.841269841269842 1.0582010582010584,29.20634920634921 1.0582010582010584,28.571428571428573 0.8465608465608466,27.93650793650794 0.8465608465608466,27.301587301587304 0.8465608465608466,26.666666666666668 0.8465608465608466,26.031746031746035 0.634920634920635,25.3968253968254 0.634920634920635,24.761904761904763 0.634920634920635,24.12698412698413 0.634920634920635,23.492063492063494 0.4232804232804233,22.857142857142858 0.4232804232804233,22.222222222222225 0.634920634920635,21.58730158730159 0.634920634920635,20.952380952380953 0.634920634920635,20.31746031746032 0.634920634920635,19.682539682539684 0.4232804232804233,19.047619047619047 0.4232804232804233,18.412698412698415 0.4232804232804233,17.77777777777778 0.4232804232804233,17.142857142857146 0.21164021164021166,13.333333333333334" style="fill:none; stroke:#3300bb; stroke-width:1.0"  /><circle cx="0.21164021164021166" cy="13.333333333333334" r="2.0" style="fill:none; stroke:#000000aa; stroke-width:0.25" /><circle cx="160.0" cy="46.13756613756614" r="2.0" style="fill:none; stroke:#000000aa; stroke-width:0.25" /><circle cx="178.2010582010582" cy="179.4708994708995" r="2.0" style="fill:none; stroke:#000000aa; stroke-width:0.25" /><circle cx="15.026455026455027" cy="158.30687830687833" r="2.0" style="fill:none; stroke:#000000aa; stroke-width:0.25" /><circle cx="0.21164021164021166" cy="14.17989417989418" r="2.0" style="fill:none; stroke:#ff3366aa; stroke-width:0.25" /><circle cx="160.42328042328043" cy="46.77248677248678" r="2.0" style="fill:none; stroke:#ff3366aa; stroke-width:0.25" /><circle cx="177.56613756613757" cy="179.4708994708995" r="2.0" style="fill:none; stroke:#ff3366aa; stroke-width:0.25" /><circle cx="15.026455026455027" cy="158.30687830687833" r="2.0" style="fill:none; stroke:#ff3366aa; stroke-width:0.25" /><polyline points="12.063492063492065,15.026455026455027 11.428571428571429,14.814814814814817 10.793650793650794,14.814814814814817 10.15873015873016,14.814814814814817 9.523809523809524,14.603174603174605 8.88888888888889,14.603174603174605 8.253968253968255,14.603174603174605 7.6190476190476195,14.603174603174605 6.984126984126985,14.391534391534393 6.34920634920635,14.17989417989418 5.714285714285714,13.96825396825397 5.07936507936508,13.96825396825397 4.444444444444445,13.756613756613758 3.8095238095238098,13.96825396825397 3.174603174603175,13.756613756613758" style="fill:none; stroke:#001100; stroke-width:1.0" /><polyline points="0.8465608465608466,26.031746031746035 0.634920634920635,25.3968253968254 0.634920634920635,24.761904761904763 0.634920634920635,24.12698412698413 0.634920634920635,23.492063492063494 0.4232804232804233,22.857142857142858 0.4232804232804233,22.222222222222225 0.634920634920635,21.58730158730159 0.634920634920635,20.952380952380953 0.634920634920635,20.31746031746032 0.634920634920635,19.682539682539684 0.4232804232804233,19.047619047619047 0.4232804232804233,18.412698412698415 0.4232804232804233,17.77777777777778 0.4232804232804233,17.142857142857146" style="fill:none; stroke:#000011; stroke-width:1.0" /><polyline points="165.92592592592595,57.35449735449736 165.50264550264552,56.71957671957672 165.2910052910053,56.08465608465609 164.8677248677249,55.449735449735456 164.44444444444446,54.81481481481482 164.23280423280426,54.179894179894184 163.80952380952382,53.54497354497355 163.59788359788362,52.91005291005291 163.1746031746032,52.27513227513228 162.96296296296296,51.640211640211646 162.53968253968256,51.00529100529101 162.32804232804233,50.370370370370374 161.90476190476193,49.73544973544974" style="fill:none; stroke:#001100; stroke-width:1.0" /><polyline points="148.99470899470901,47.195767195767196 149.62962962962965,47.195767195767196 150.26455026455028,47.195767195767196 150.8994708994709,47.195767195767196 151.32275132275134,46.77248677248678 151.95767195767198,46.77248677248678 152.5925925925926,46.77248677248678 153.22751322751324,46.560846560846564 153.86243386243387,46.77248677248678 154.4973544973545,46.560846560846564 155.13227513227514,46.560846560846564 155.76719576719577,46.349206349206355 156.4021164021164,46.349206349206355 157.03703703703704,46.349206349206355" style="fill:none; stroke:#000011; stroke-width:1.0" /><polyline points="165.50264550264552,179.4708994708995 166.13756613756615,179.4708994708995 166.7724867724868,179.4708994708995 167.40740740740742,179.4708994708995 168.04232804232805,179.4708994708995 168.67724867724868,179.4708994708995 169.31216931216932,179.4708994708995 169.94708994708995,179.4708994708995 170.58201058201058,179.4708994708995 171.21693121693124,179.4708994708995 171.85185185185188,179.4708994708995 172.4867724867725,179.4708994708995 173.12169312169314,179.4708994708995 173.75661375661377,179.4708994708995 174.3915343915344,179.4708994708995" style="fill:none; stroke:#001100; stroke-width:1.0" /><polyline points="181.5873015873016,168.25396825396825 181.3756613756614,168.8888888888889 181.16402116402116,169.52380952380955 180.95238095238096,170.15873015873018 180.74074074074076,170.7936507936508 180.52910052910053,171.42857142857144 180.31746031746033,172.06349206349208 180.10582010582013,172.6984126984127 180.10582010582013,173.33333333333334 179.8941798941799,173.96825396825398 179.6825396825397,174.6031746031746 179.4708994708995,175.23809523809524 179.25925925925927,175.87301587301587 179.04761904761907,176.50793650793653" style="fill:none; stroke:#000011; stroke-width:1.0" /><polyline points="10.15873015873016,147.30158730158732 10.370370370370372,147.93650793650795 10.793650793650794,148.35978835978838 11.216931216931219,148.99470899470901 11.428571428571429,149.62962962962965 11.640211640211641,150.26455026455028 12.063492063492065,150.8994708994709 12.275132275132275,151.53439153439155 12.486772486772487,152.16931216931218 12.6984126984127,152.8042328042328 12.910052910052912,153.43915343915344 13.333333333333334,154.07407407407408 13.544973544973546,154.7089947089947 13.756613756613758,155.34391534391534" style="fill:none; stroke:#001100; stroke-width:1.0" /><polyline points="26.666666666666668,157.67195767195767 26.031746031746035,157.67195767195767 25.3968253968254,157.67195767195767 24.761904761904763,157.67195767195767 24.12698412698413,157.67195767195767 23.492063492063494,157.67195767195767 22.857142857142858,157.67195767195767 22.222222222222225,157.67195767195767 21.58730158730159,157.67195767195767 20.952380952380953,157.8835978835979 20.31746031746032,157.8835978835979 19.682539682539684,158.0952380952381 19.047619047619047,158.0952380952381 18.412698412698415,158.0952380952381" style="fill:none; stroke:#000011; stroke-width:1.0" /><polyline points="3.174603174603175,13.756613756613758 -17.77777777777778,10.793650793650794" style="fill:none; stroke:#ffaa00; stroke-width:0.4" /><polyline points="0.4232804232804233,17.142857142857146 -0.634920634920635,-4.021164021164021" style="fill:none; stroke:#aaff00; stroke-width:0.4" /><polyline points="161.90476190476193,49.73544973544974 151.95767195767198,31.111111111111114" style="fill:none; stroke:#ffaa00; stroke-width:0.4" /><polyline points="157.03703703703704,46.349206349206355 177.989417989418,44.232804232804234" style="fill:none; stroke:#aaff00; stroke-width:0.4" /><polyline points="174.3915343915344,179.4708994708995 195.55555555555557,179.4708994708995" style="fill:none; stroke:#ffaa00; stroke-width:0.4" /><polyline points="179.04761904761907,176.50793650793653 172.9100529100529,196.82539682539684" style="fill:none; stroke:#aaff00; stroke-width:0.4" /><polyline points="13.756613756613758,155.34391534391534 22.433862433862437,174.6031746031746" style="fill:none; stroke:#ffaa00; stroke-width:0.4" /><polyline points="18.412698412698415,158.0952380952381 -2.7513227513227516,159.15343915343917" style="fill:none; stroke:#aaff00; stroke-width:0.4" /><circle cx="91.85185185185186" cy="95.66137566137567" r="1.0" style="fill:#444444; stroke-width:0" /><circle cx="93.54497354497356" cy="82.11640211640213" r="10.582010582010582" style="fill:#ff770022; stroke-width:0" /><circle cx="93.54497354497356" cy="82.11640211640213" r="1.0" style="fill:#ff7700; stroke-width:0" /></svg>