<?xml version="1.0" encoding="UTF-8" standalone="no"?><svg width="428.5714285714286" height="580.3174603174604" viewBox="-10 -10 162.85714285714286 213.43915343915344" xmlns="http://www.w3.org/2000/svg" xmlns:xlink="http://www.w3.org/1999/xlink"><polyline points="52.48677248677249,9.100529100529101 55.87301587301588,11.005291005291006 56.50793650793651,11.216931216931219 56.93121693121694,11.640211640211641 57.56613756613757,11.851851851851853 58.2010582010582,12.275132275132275 58.83597883597884,12.486772486772487 59.25925925925927,12.910052910052912 59.8941798941799,13.121693121693122 60.52910052910053,13.333333333333334 60.952380952380956,13.756613756613758 61.58730158730159,13.96825396825397 62.01058201058201,14.391534391534393 62.64550264550265,14.814814814814817 63.280423280423285,15.238095238095239 63.70370370370371,15.661375661375663 64.33862433862434,15.873015873015873 64.76190476190477,16.296296296296298 65.3968253968254,16.71957671957672 66.03174603174604,17.142857142857146 66.45502645502646,17.566137566137566 67.08994708994709,17.98941798941799 67.51322751322752,18.412698412698415 67.93650793650794,18.83597883597884 68.35978835978837,19.25925925925926 68.78306878306879,19.682539682539684 69.20634920634922,20.31746031746032 69.62962962962963,20.740740740740744 70.05291005291006,21.375661375661377 70.47619047619048,21.7989417989418 70.8994708994709,22.433862433862437 71.32275132275133,22.857142857142858 71.74603174603175,23.492063492063494 72.16931216931218,23.915343915343918 72.5925925925926,24.55026455026455 73.01587301587303,24.973544973544975 73.43915343915344,25.3968253968254 73.86243386243387,25.820105820105823 74.28571428571429,26.243386243386244 74.92063492063492,26.666666666666668 75.34391534391536,27.089947089947092 75.97883597883599,27.301587301587304 76.4021164021164,27.724867724867728 77.03703703703704,28.14814814814815 77.67195767195767,28.35978835978836 78.30687830687832,28.783068783068785 78.94179894179895,28.994708994708997 79.57671957671958,29.41798941798942 80.21164021164022,29.629629629629633 80.84656084656085,29.841269841269842 81.48148148148148,30.052910052910054 82.11640211640213,30.264550264550266 82.75132275132276,30.476190476190478 83.3862433862434,30.476190476190478 84.02116402116403,30.68783068783069 84.65608465608466,30.899470899470902 85.29100529100529,30.899470899470902 85.92592592592594,30.899470899470902 86.56084656084657,31.111111111111114 87.1957671957672,31.111111111111114 87.83068783068784,30.899470899470902 88.46560846560847,30.899470899470902 89.1005291005291,30.899470899470902 89.73544973544975,30.899470899470902 90.37037037037038,30.899470899470902 91.00529100529101,30.68783068783069 91.64021164021165,30.476190476190478 92.27513227513228,30.476190476190478 92.91005291005291,30.264550264550266 93.54497354497356,30.052910052910054 94.17989417989419,29.841269841269842 94.60317460317461,29.41798941798942 95.02645502645504,28.994708994708997 95.66137566137567,28.783068783068785 96.2962962962963,28.35978835978836 96.93121693121694,27.93650793650794 97.35449735449737,27.513227513227516 97.56613756613757,26.87830687830688 98.2010582010582,26.455026455026456 98.62433862433863,26.031746031746035 99.04761904761905,25.60846560846561 99.47089947089948,24.973544973544975 99.8941798941799,24.338624338624342 100.10582010582011,23.703703703703706 100.31746031746033,23.06878306878307 100.52910052910053,22.433862433862437 100.74074074074075,21.7989417989418 100.95238095238096,21.164021164021165 101.16402116402116,20.529100529100532 101.16402116402116,19.894179894179896 101.37566137566138,19.25925925925926 101.37566137566138,18.624338624338627 101.37566137566138,17.98941798941799 101.5873015873016,17.354497354497354 101.5873015873016,16.71957671957672 101.5873015873016,16.084656084656086 101.79894179894181,15.449735449735451 101.79894179894181,14.814814814814817 101.79894179894181,14.17989417989418 101.79894179894181,13.544973544973546 102.01058201058201,12.910052910052912 102.01058201058201,12.275132275132275 102.01058201058201,11.640211640211641 102.22222222222223,11.005291005291006 102.22222222222223,10.370370370370372 102.43386243386244,9.735449735449736 102.43386243386244,9.100529100529101 102.64550264550266,8.465608465608467 102.85714285714286,7.830687830687832 103.06878306878308,7.195767195767196 103.4920634920635,6.560846560846561 103.70370370370371,5.9259259259259265 104.12698412698414,5.291005291005291 104.33862433862434,4.656084656084657 104.76190476190477,4.2328042328042335 105.18518518518519,3.597883597883598 105.60846560846562,3.174603174603175 106.03174603174604,2.7513227513227516 106.66666666666667,2.3280423280423284 107.3015873015873,1.9047619047619049 107.72486772486774,1.4814814814814816 108.14814814814815,1.0582010582010584 108.78306878306879,1.26984126984127 109.41798941798943,0.8465608465608466 110.05291005291006,0.4232804232804233 110.6878306878307,0.4232804232804233 111.32275132275133,0.4232804232804233 111.95767195767196,0.21164021164021166 112.5925925925926,0.21164021164021166 113.22751322751324,0.21164021164021166 113.86243386243387,0.21164021164021166 114.49735449735451,0.21164021164021166 115.13227513227514,0.21164021164021166 115.76719576719577,0.4232804232804233 116.4021164021164,0.4232804232804233 117.03703703703705,0.634920634920635 117.67195767195768,0.8465608465608466 118.30687830687832,0.8465608465608466 118.94179894179895,1.0582010582010584 119.57671957671958,1.26984126984127 120.21164021164022,1.6931216931216932 120.84656084656086,1.9047619047619049 121.4814814814815,2.1164021164021167 122.11640211640213,2.53968253968254 122.75132275132276,2.7513227513227516 123.3862433862434,3.174603174603175 124.02116402116403,3.597883597883598 124.65608465608466,4.021164021164021 125.2910052910053,4.2328042328042335 125.71428571428572,4.656084656084657 126.34920634920636,5.07936507936508 126.77248677248679,5.502645502645503 127.40740740740742,5.9259259259259265 127.83068783068784,6.34920634920635 128.25396825396825,6.984126984126985 128.67724867724868,7.407407407407408 129.10052910052912,8.042328042328043 129.52380952380955,8.465608465608467 129.73544973544975,9.100529100529101 130.15873015873018,9.735449735449736 130.37037037037038,10.370370370370372 130.58201058201058,11.005291005291006 130.7936507936508,11.640211640211641 130.7936507936508,12.275132275132275 130.7936507936508,12.910052910052912 130.7936507936508,13.544973544973546 130.7936507936508,14.17989417989418 130.58201058201058,14.814814814814817 130.58201058201058,15.449735449735451 130.58201058201058,16.084656084656086 130.37037037037038,16.71957671957672 130.15873015873018,17.354497354497354 130.15873015873018,17.98941798941799 129.73544973544975,18.624338624338627 129.52380952380955,19.25925925925926 129.10052910052912,19.894179894179896 128.46560846560848,20.31746031746032 128.04232804232805,20.740740740740744 128.04232804232805,21.375661375661377 127.61904761904763,21.7989417989418 126.98412698412699,22.010582010582013 126.56084656084657,22.433862433862437 126.56084656084657,23.06878306878307 125.92592592592594,23.280423280423282 125.92592592592594,23.915343915343918 125.5026455026455,24.338624338624342 125.07936507936509,24.761904761904763 124.65608465608466,25.185185185185187 124.23280423280424,25.60846560846561 123.80952380952382,26.031746031746035 123.17460317460318,26.455026455026456 122.75132275132276,26.87830687830688 122.32804232804234,27.301587301587304 121.6931216931217,27.724867724867728 121.26984126984128,28.14814814814815 120.84656084656086,28.571428571428573 120.21164021164022,28.994708994708997 119.57671957671958,29.41798941798942 119.36507936507937,30.052910052910054 118.94179894179895,30.476190476190478 118.51851851851853,30.899470899470902 118.30687830687832,31.53439153439154 117.88359788359789,32.16931216931217 117.46031746031747,32.592592592592595 117.24867724867725,33.22751322751323 117.03703703703705,33.86243386243387 116.61375661375662,34.4973544973545 116.4021164021164,35.13227513227513 116.1904761904762,35.76719576719577 115.97883597883599,36.402116402116405 115.97883597883599,37.03703703703704 115.97883597883599,37.67195767195768 115.76719576719577,38.30687830687831 115.76719576719577,38.94179894179894 115.76719576719577,39.57671957671958 115.76719576719577,40.211640211640216 115.55555555555557,40.84656084656085 115.76719576719577,41.48148148148149 115.76719576719577,42.11640211640212 115.97883597883599,42.75132275132275 116.1904761904762,43.386243386243386 116.61375661375662,44.021164021164026 116.82539682539684,44.65608465608466 117.24867724867725,45.29100529100529 117.67195767195768,45.92592592592593 118.0952380952381,46.349206349206355 118.51851851851853,46.77248677248678 118.94179894179895,47.195767195767196 119.36507936507937,47.61904761904762 119.7883597883598,48.042328042328045 120.21164021164022,48.46560846560847 120.84656084656086,48.88888888888889 121.4814814814815,49.31216931216932 122.11640211640213,49.73544973544974 122.75132275132276,50.158730158730165 123.3862433862434,50.370370370370374 124.02116402116403,50.7936507936508 124.65608465608466,51.21693121693122 125.2910052910053,51.42857142857143 125.92592592592594,51.851851851851855 126.56084656084657,52.06349206349207 127.1957671957672,52.48677248677249 127.83068783068784,52.6984126984127 128.46560846560848,52.91005291005291 129.10052910052912,53.333333333333336 129.73544973544975,53.333333333333336 130.37037037037038,53.54497354497355 131.005291005291,53.75661375661376 131.64021164021165,53.968253968253975 132.27513227513228,54.179894179894184 132.9100529100529,54.39153439153439 133.54497354497354,54.60317460317461 134.17989417989418,54.81481481481482 134.81481481481484,55.02645502645503 135.44973544973547,55.23809523809524 136.0846560846561,55.449735449735456 136.71957671957674,55.449735449735456 137.35449735449737,55.661375661375665 137.989417989418,55.87301587301588 138.62433862433863,56.08465608465609 139.25925925925927,56.08465608465609 142.43386243386246,56.93121693121694" style="fill:none; stroke:#cc0000; stroke-width:1.0"  /><polyline points="142.43386243386246,56.93121693121694 140.74074074074076,59.682539682539684 140.31746031746033,60.31746031746032 140.10582010582013,60.952380952380956 139.6825396825397,61.37566137566138 139.25925925925927,61.798941798941804 139.25925925925927,62.43386243386244 138.83597883597884,63.06878306878308 138.41269841269843,63.70370370370371 137.989417989418,64.12698412698413 137.56613756613757,64.76190476190477 137.14285714285717,65.3968253968254 136.93121693121694,66.03174603174604 136.5079365079365,66.66666666666667 136.0846560846561,67.3015873015873 135.66137566137567,67.93650793650794 135.44973544973547,68.57142857142858 135.02645502645504,68.994708994709 134.6031746031746,69.62962962962963 134.3915343915344,70.26455026455027 133.96825396825398,70.8994708994709 133.54497354497354,71.53439153439155 133.12169312169314,72.16931216931218 132.9100529100529,72.80423280423281 132.4867724867725,73.43915343915344 132.06349206349208,74.07407407407408 131.64021164021165,74.70899470899471 131.42857142857144,75.34391534391536 131.005291005291,75.76719576719577 130.58201058201058,76.4021164021164 130.15873015873018,77.03703703703704 129.73544973544975,77.67195767195767 129.52380952380955,78.30687830687832 129.10052910052912,78.94179894179895 128.88888888888889,79.57671957671958 128.46560846560848,80.21164021164022 128.04232804232805,80.84656084656085 127.61904761904763,81.48148148148148 127.1957671957672,82.11640211640213 126.77248677248679,82.75132275132276 126.34920634920636,83.3862433862434 126.13756613756615,84.02116402116403 125.71428571428572,84.44444444444446 125.5026455026455,85.07936507936509 125.07936507936509,85.5026455026455 124.65608465608466,86.13756613756614 124.23280423280424,86.77248677248677 123.80952380952382,87.40740740740742 123.3862433862434,88.04232804232805 122.96296296296298,88.67724867724868 122.75132275132276,89.31216931216932 122.32804232804234,89.73544973544975 121.90476190476191,90.37037037037038 121.4814814814815,91.00529100529101 121.05820105820106,91.64021164021165 120.63492063492065,92.27513227513228 120.21164021164022,92.91005291005291 119.7883597883598,93.54497354497356 119.36507936507937,94.17989417989419 118.94179894179895,94.81481481481482 118.51851851851853,95.23809523809524 118.0952380952381,95.66137566137567 117.67195767195768,96.08465608465609 117.24867724867725,96.50793650793652 116.82539682539684,96.93121693121694 116.4021164021164,97.56613756613757 115.76719576719577,97.989417989418 115.13227513227514,98.2010582010582 114.49735449735451,98.62433862433863 113.86243386243387,98.83597883597885 113.22751322751324,98.83597883597885 112.5925925925926,98.83597883597885 111.95767195767196,98.83597883597885 111.32275132275133,98.62433862433863 110.6878306878307,98.41269841269842 110.26455026455027,97.989417989418 109.84126984126985,97.56613756613757 109.20634920634922,97.14285714285715 108.78306878306879,96.71957671957672 108.35978835978837,96.2962962962963 108.14814814814815,95.66137566137567 107.72486772486774,95.02645502645504 107.51322751322752,94.39153439153439 107.0899470899471,93.75661375661376 107.0899470899471,93.12169312169313 106.66666666666667,92.4867724867725 106.45502645502647,91.85185185185186 106.24338624338625,91.21693121693123 106.03174603174604,90.58201058201058 105.82010582010582,89.94708994708995 105.60846560846562,89.31216931216932 105.3968253968254,88.67724867724868 105.18518518518519,88.04232804232805 104.97354497354497,87.40740740740742 104.76190476190477,86.77248677248677 104.55026455026456,86.13756613756614 104.33862433862434,85.5026455026455 104.12698412698414,84.86772486772487 103.70370370370371,84.23280423280424 103.4920634920635,83.59788359788361 103.28042328042329,82.96296296296298 102.85714285714286,82.32804232804233 102.64550264550266,81.6931216931217 102.22222222222223,81.05820105820106 101.79894179894181,80.63492063492065 101.37566137566138,80.0 100.95238095238096,79.36507936507937 100.52910052910053,78.94179894179895 100.10582010582011,78.51851851851852 99.68253968253968,78.0952380952381 99.25925925925927,77.67195767195767 98.83597883597885,77.24867724867725 98.41269841269842,76.82539682539684 97.989417989418,76.4021164021164 97.35449735449737,75.97883597883599 96.71957671957672,75.55555555555556 96.08465608465609,75.34391534391536 95.44973544973546,75.13227513227514 94.81481481481482,74.92063492063492 94.17989417989419,74.92063492063492 93.54497354497356,74.92063492063492 92.91005291005291,74.92063492063492 92.27513227513228,74.92063492063492 91.64021164021165,75.13227513227514 91.00529100529101,75.34391534391536 90.37037037037038,75.55555555555556 89.73544973544975,75.97883597883599 89.1005291005291,76.19047619047619 88.67724867724868,76.61375661375662 88.04232804232805,77.03703703703704 87.61904761904762,77.46031746031747 86.98412698412699,77.88359788359789 86.34920634920636,78.30687830687832 85.92592592592594,78.73015873015873 85.5026455026455,79.15343915343917 85.07936507936509,79.57671957671958 84.65608465608466,80.0 84.23280423280424,80.42328042328043 83.80952380952381,80.84656084656085 83.3862433862434,81.48148148148148 82.96296296296298,82.11640211640213 82.53968253968254,82.75132275132276 82.11640211640213,83.17460317460318 81.6931216931217,83.59788359788361 81.26984126984128,84.02116402116403 80.84656084656085,84.65608465608466 80.42328042328043,85.07936507936509 79.7883597883598,85.5026455026455 79.36507936507937,85.92592592592594 78.94179894179895,86.34920634920636 78.51851851851852,86.98412698412699 78.0952380952381,87.40740740740742 77.67195767195767,88.04232804232805 77.24867724867725,88.67724867724868 76.82539682539684,89.31216931216932 76.4021164021164,89.94708994708995 76.19047619047619,90.58201058201058 75.76719576719577,91.00529100529101 75.55555555555556,91.64021164021165 75.13227513227514,92.27513227513228 74.70899470899471,92.91005291005291 74.49735449735451,93.54497354497356 74.07407407407408,94.17989417989419 73.86243386243387,94.81481481481482 73.43915343915344,95.44973544973546 73.22751322751323,96.08465608465609 73.01587301587303,96.71957671957672 72.80423280423281,97.35449735449737 72.5925925925926,97.989417989418 72.38095238095238,98.62433862433863 72.16931216931218,99.25925925925927 71.95767195767196,99.8941798941799 71.53439153439155,100.52910052910053 71.32275132275133,101.16402116402116 71.11111111111111,101.79894179894181 70.8994708994709,102.43386243386244 70.6878306878307,103.06878306878308 70.47619047619048,103.70370370370371 70.26455026455027,104.33862433862434 70.26455026455027,104.97354497354497 70.05291005291006,105.60846560846562 69.84126984126985,106.24338624338625 69.84126984126985,106.87830687830689 69.62962962962963,107.51322751322752 69.62962962962963,108.14814814814815 69.41798941798942,108.78306878306879 69.41798941798942,109.41798941798943 69.20634920634922,110.05291005291006 69.20634920634922,110.6878306878307 69.20634920634922,111.32275132275133 69.20634920634922,111.95767195767196 69.20634920634922,112.5925925925926 69.20634920634922,113.22751322751324 69.20634920634922,113.86243386243387 69.20634920634922,114.49735449735451 69.20634920634922,115.13227513227514 69.20634920634922,115.76719576719577 69.41798941798942,116.4021164021164 69.62962962962963,117.03703703703705 69.62962962962963,117.67195767195768 69.84126984126985,118.30687830687832 70.05291005291006,118.94179894179895 70.47619047619048,119.57671957671958 70.6878306878307,120.21164021164022 71.11111111111111,120.84656084656086 71.53439153439155,121.26984126984128 71.95767195767196,121.90476190476191 72.38095238095238,122.32804232804234 73.01587301587303,122.75132275132276 73.43915343915344,123.17460317460318 74.07407407407408,123.59788359788361 74.70899470899471,123.80952380952382 75.34391534391536,124.23280423280424 75.97883597883599,124.44444444444446 76.61375661375662,124.65608465608466 77.24867724867725,124.65608465608466 77.88359788359789,124.86772486772487 78.51851851851852,125.07936507936509 79.15343915343917,125.07936507936509 79.7883597883598,125.07936507936509 80.42328042328043,125.07936507936509 81.05820105820106,125.07936507936509 81.6931216931217,125.07936507936509 82.32804232804233,124.86772486772487 82.96296296296298,124.86772486772487 83.59788359788361,124.65608465608466 84.23280423280424,124.65608465608466 84.86772486772487,124.44444444444446 85.5026455026455,124.23280423280424 86.13756613756614,123.80952380952382 86.77248677248677,123.59788359788361 87.40740740740742,123.17460317460318 88.04232804232805,122.96296296296298 88.67724867724868,122.53968253968254 89.31216931216932,122.32804232804234 89.94708994708995,121.90476190476191 90.58201058201058,121.6931216931217 91.21693121693123,121.4814814814815 91.85185185185186,121.26984126984128 92.4867724867725,120.84656084656086 93.12169312169313,120.63492063492065 93.75661375661376,120.42328042328043 94.39153439153439,120.21164021164022 95.02645502645504,119.7883597883598 95.66137566137567,119.7883597883598 96.2962962962963,119.57671957671958 96.93121693121694,119.36507936507937 97.56613756613757,119.36507936507937 98.2010582010582,119.15343915343917 98.83597883597885,119.15343915343917 99.47089947089948,118.94179894179895 100.10582010582011,119.15343915343917 100.74074074074075,119.15343915343917 101.37566137566138,119.15343915343917 102.01058201058201,119.36507936507937 102.64550264550266,119.36507936507937 103.28042328042329,119.57671957671958 103.91534391534393,120.00000000000001 104.55026455026456,120.42328042328043 104.97354497354497,120.84656084656086 105.3968253968254,121.26984126984128 105.60846560846562,121.90476190476191 105.82010582010582,122.53968253968254 106.03174603174604,123.17460317460318 106.24338624338625,123.80952380952382 106.24338624338625,124.44444444444446 106.45502645502647,125.07936507936509 106.45502645502647,125.71428571428572 106.45502645502647,126.34920634920636 106.66666666666667,126.98412698412699 106.66666666666667,127.61904761904763 106.66666666666667,128.25396825396825 106.66666666666667,128.88888888888889 106.66666666666667,129.52380952380955 106.66666666666667,130.15873015873018 106.66666666666667,130.7936507936508 106.66666666666667,131.42857142857144 106.66666666666667,132.06349206349208 106.87830687830689,132.6984126984127 106.87830687830689,133.33333333333334 106.66666666666667,133.96825396825398 106.66666666666667,134.6031746031746 106.66666666666667,135.23809523809524 106.66666666666667,135.87301587301587 106.45502645502647,136.5079365079365 106.45502645502647,137.14285714285717 106.45502645502647,137.7777777777778 106.45502645502647,138.41269841269843 106.45502645502647,139.04761904761907 106.24338624338625,139.6825396825397 106.24338624338625,140.31746031746033 106.24338624338625,140.95238095238096 106.03174603174604,141.5873015873016 106.03174603174604,142.22222222222223 106.03174603174604,142.85714285714286 105.82010582010582,143.4920634920635 105.60846560846562,144.12698412698413 105.60846560846562,144.76190476190476 105.3968253968254,145.39682539682542 105.18518518518519,146.03174603174605 105.18518518518519,146.66666666666669 104.97354497354497,147.30158730158732 104.76190476190477,147.93650793650795 104.76190476190477,148.57142857142858 104.55026455026456,149.20634920634922 104.33862433862434,149.84126984126985 104.12698412698414,150.47619047619048 103.91534391534393,151.11111111111111 103.70370370370371,151.74603174603175 103.70370370370371,152.38095238095238 103.4920634920635,153.01587301587304 103.28042328042329,153.65079365079367 103.06878306878308,154.2857142857143 102.85714285714286,154.92063492063494 102.64550264550266,155.55555555555557 102.43386243386244,156.1904761904762 102.22222222222223,156.82539682539684 102.01058201058201,157.46031746031747 101.79894179894181,158.0952380952381 101.37566137566138,158.51851851851853 101.16402116402116,159.15343915343917 100.95238095238096,159.7883597883598 100.52910052910053,160.42328042328043 100.31746031746033,161.05820105820106 99.8941798941799,161.6931216931217 99.68253968253968,162.32804232804233 99.47089947089948,162.96296296296296 99.04761904761905,163.59788359788362 98.83597883597885,164.23280423280426 98.62433862433863,164.8677248677249 98.2010582010582,165.50264550264552 97.989417989418,166.13756613756615 97.77777777777779,166.7724867724868 97.56613756613757,167.40740740740742 97.35449735449737,168.04232804232805 96.93121693121694,168.67724867724868 96.71957671957672,169.31216931216932 96.2962962962963,169.94708994708995 96.08465608465609,170.58201058201058 95.66137566137567,171.21693121693124 95.44973544973546,171.85185185185188 95.23809523809524,172.4867724867725 94.81481481481482,173.12169312169314 94.60317460317461,173.75661375661377 94.39153439153439,174.3915343915344 93.96825396825398,175.02645502645504 93.75661375661376,175.66137566137567 93.54497354497356,176.2962962962963 93.12169312169313,176.93121693121694 92.91005291005291,177.56613756613757 92.69841269841271,178.2010582010582 92.4867724867725,178.83597883597884 92.27513227513228,179.4708994708995 92.06349206349208,180.10582010582013 91.64021164021165,180.74074074074076 91.42857142857143,181.3756613756614 90.15873015873017,184.33862433862436" style="fill:none; stroke:#999900; stroke-width:1.0"  /><polyline points="90.15873015873017,184.33862433862436 87.1957671957672,182.22222222222223 86.77248677248677,181.79894179894183 86.13756613756614,181.3756613756614 85.5026455026455,180.95238095238096 84.86772486772487,180.52910052910053 84.23280423280424,180.10582010582013 83.59788359788361,179.6825396825397 83.17460317460318,179.25925925925927 82.53968253968254,178.83597883597884 81.90476190476191,178.41269841269843 81.26984126984128,177.989417989418 80.63492063492065,177.56613756613757 80.0,177.14285714285717 79.36507936507937,176.71957671957674 78.94179894179895,176.2962962962963 78.30687830687832,175.87301587301587 77.88359788359789,175.44973544973547 77.24867724867725,175.02645502645504 76.61375661375662,174.6031746031746 76.19047619047619,174.1798941798942 75.55555555555556,173.75661375661377 75.13227513227514,173.33333333333334 74.49735449735451,172.9100529100529 73.86243386243387,172.4867724867725 73.43915343915344,172.06349206349208 73.01587301587303,171.64021164021165 72.38095238095238,171.21693121693124 71.74603174603175,170.7936507936508 71.32275132275133,170.37037037037038 70.8994708994709,169.94708994708995 70.26455026455027,169.52380952380955 69.62962962962963,169.10052910052912 69.20634920634922,168.67724867724868 68.57142857142858,168.25396825396825 68.14814814814815,167.83068783068785 67.72486772486774,167.40740740740742 67.08994708994709,167.19576719576722 66.66666666666667,166.7724867724868 66.24338624338625,166.34920634920636 65.60846560846561,165.92592592592595 65.18518518518519,165.50264550264552 64.55026455026456,165.0793650793651 64.12698412698413,164.65608465608466 63.70370370370371,164.23280423280426 63.06878306878308,163.80952380952382 62.64550264550265,163.3862433862434 62.22222222222223,162.96296296296296 61.58730158730159,162.53968253968256 60.952380952380956,162.11640211640213 60.31746031746032,161.6931216931217 59.8941798941799,161.2698412698413 59.25925925925927,161.2698412698413 58.83597883597884,160.84656084656086 58.2010582010582,160.42328042328043 57.56613756613757,160.21164021164023 56.93121693121694,159.7883597883598 56.2962962962963,159.36507936507937 55.661375661375665,159.36507936507937 55.02645502645503,159.15343915343917 54.39153439153439,158.94179894179896 53.75661375661376,158.73015873015873 53.12169312169313,158.51851851851853 52.48677248677249,158.94179894179896 51.851851851851855,158.94179894179896 51.21693121693122,159.15343915343917 50.58201058201058,159.15343915343917 49.94708994708995,159.36507936507937 49.523809523809526,159.7883597883598 48.88888888888889,160.21164021164023 48.25396825396826,160.63492063492066 47.61904761904762,161.05820105820106 47.195767195767196,161.6931216931217 46.77248677248678,162.32804232804233 46.560846560846564,162.96296296296296 46.13756613756614,163.59788359788362 45.92592592592593,164.23280423280426 45.714285714285715,164.8677248677249 45.50264550264551,165.50264550264552 45.29100529100529,166.13756613756615 45.29100529100529,166.7724867724868 45.50264550264551,167.40740740740742 45.29100529100529,168.04232804232805 45.29100529100529,168.67724867724868 45.07936507936508,169.31216931216932 44.867724867724874,169.94708994708995 44.867724867724874,170.58201058201058 44.867724867724874,171.21693121693124 44.867724867724874,171.85185185185188 44.65608465608466,172.4867724867725 44.44444444444445,173.12169312169314 44.44444444444445,173.75661375661377 44.44444444444445,174.3915343915344 44.44444444444445,175.02645502645504 44.232804232804234,175.66137566137567 44.232804232804234,176.2962962962963 44.232804232804234,176.93121693121694 44.021164021164026,177.56613756613757 44.021164021164026,178.2010582010582 43.80952380952381,178.83597883597884 43.5978835978836,179.4708994708995 43.5978835978836,180.10582010582013 43.5978835978836,180.74074074074076 43.386243386243386,181.3756613756614 42.96296296296297,181.79894179894183 42.96296296296297,182.43386243386246 42.96296296296297,183.0687830687831 42.539682539682545,183.70370370370372 42.32804232804233,184.33862433862436 42.11640211640212,184.973544973545 41.6931216931217,185.60846560846562 41.48148148148149,186.24338624338625 41.058201058201064,186.66666666666669 40.63492063492064,187.08994708994712 40.0,187.30158730158732 39.78835978835979,187.93650793650795 39.36507936507937,188.57142857142858 38.94179894179894,188.99470899470901 38.51851851851852,189.62962962962965 37.883597883597886,190.05291005291008 37.46031746031746,190.6878306878307 36.82539682539683,190.8994708994709 36.402116402116405,191.32275132275134 35.76719576719577,191.74603174603175 35.13227513227513,191.95767195767198 34.4973544973545,192.16931216931218 33.86243386243387,192.3809523809524 33.22751322751323,192.5925925925926 32.592592592592595,192.8042328042328 31.95767195767196,192.8042328042328 31.322751322751326,193.01587301587304 30.68783068783069,193.01587301587304 30.052910052910054,193.01587301587304 29.41798941798942,193.01587301587304 28.783068783068785,193.01587301587304 28.14814814814815,192.8042328042328 27.513227513227516,192.8042328042328 26.87830687830688,192.8042328042328 26.243386243386244,192.5925925925926 25.60846560846561,192.3809523809524 24.973544973544975,192.5925925925926 24.338624338624342,192.3809523809524 23.703703703703706,192.16931216931218 23.06878306878307,191.95767195767198 22.433862433862437,191.74603174603175 21.7989417989418,191.53439153439155 21.164021164021165,191.32275132275134 20.529100529100532,191.11111111111111 19.894179894179896,190.6878306878307 19.25925925925926,190.47619047619048 18.624338624338627,190.05291005291008 17.98941798941799,189.62962962962965 17.354497354497354,189.20634920634922 16.71957671957672,188.78306878306879 16.084656084656086,188.35978835978838 15.661375661375663,187.93650793650795 15.238095238095239,187.51322751322752 14.814814814814817,187.08994708994712 14.391534391534393,186.66666666666669 13.96825396825397,186.24338624338625 13.544973544973546,185.60846560846562 13.121693121693122,184.973544973545 12.910052910052912,184.33862433862436 12.6984126984127,183.70370370370372 12.486772486772487,183.0687830687831 12.275132275132275,182.43386243386246 12.275132275132275,181.79894179894183 12.275132275132275,181.16402116402116 12.275132275132275,180.52910052910053 12.275132275132275,179.8941798941799 12.486772486772487,179.25925925925927 12.486772486772487,178.62433862433863 12.6984126984127,177.989417989418 12.910052910052912,177.35449735449737 13.121693121693122,176.71957671957674 13.333333333333334,176.0846560846561 13.544973544973546,175.44973544973547 13.756613756613758,174.81481481481484 13.96825396825397,174.1798941798942 14.17989417989418,173.54497354497354 14.603174603174605,173.12169312169314 14.814814814814817,172.4867724867725 15.238095238095239,171.85185185185188 15.449735449735451,171.21693121693124 15.873015873015873,170.58201058201058 16.296296296296298,169.94708994708995 16.71957671957672,169.31216931216932 17.142857142857146,168.67724867724868 17.566137566137566,168.04232804232805 17.98941798941799,167.40740740740742 18.412698412698415,166.7724867724868 18.83597883597884,166.13756613756615 19.25925925925926,165.71428571428572 19.682539682539684,165.2910052910053 20.105820105820108,164.8677248677249 20.529100529100532,164.44444444444446 20.952380952380953,163.80952380952382 21.375661375661377,163.3862433862434 22.010582010582013,162.96296296296296 22.433862433862437,162.53968253968256 23.06878306878307,162.11640211640213 23.703703703703706,161.6931216931217 24.12698412698413,161.2698412698413 24.761904761904763,161.05820105820106 25.185185185185187,160.42328042328043 25.820105820105823,160.21164021164023 26.243386243386244,159.7883597883598 26.666666666666668,159.36507936507937 27.301587301587304,158.94179894179896 27.724867724867728,158.51851851851853 28.14814814814815,158.0952380952381 28.571428571428573,157.67195767195767 28.994708994708997,157.24867724867727 29.41798941798942,156.61375661375664 29.629629629629633,155.978835978836 30.052910052910054,155.55555555555557 30.264550264550266,154.92063492063494 30.476190476190478,154.2857142857143 30.68783068783069,153.65079365079367 30.899470899470902,153.01587301587304 31.111111111111114,152.38095238095238 31.322751322751326,151.74603174603175 31.322751322751326,151.11111111111111 31.322751322751326,150.47619047619048 31.322751322751326,149.84126984126985 31.111111111111114,149.20634920634922 31.111111111111114,148.57142857142858 30.899470899470902,147.93650793650795 30.68783068783069,147.30158730158732 30.264550264550266,146.66666666666669 30.052910052910054,146.03174603174605 29.629629629629633,145.39682539682542 29.20634920634921,144.76190476190476 28.783068783068785,144.12698412698413 28.35978835978836,143.70370370370372 27.93650793650794,143.2804232804233 27.513227513227516,142.85714285714286 27.089947089947092,142.43386243386246 26.666666666666668,142.01058201058203 26.031746031746035,141.5873015873016 25.3968253968254,141.16402116402116 24.761904761904763,140.95238095238096 24.12698412698413,140.74074074074076 23.492063492063494,140.52910052910053 23.06878306878307,140.10582010582013 22.433862433862437,139.8941798941799 21.7989417989418,139.6825396825397 21.164021164021165,139.25925925925927 20.529100529100532,139.04761904761907 19.894179894179896,138.83597883597884 19.25925925925926,138.62433862433863 18.624338624338627,138.2010582010582 17.98941798941799,137.989417989418 17.354497354497354,137.7777777777778 16.71957671957672,137.56613756613757 16.084656084656086,137.14285714285717 15.449735449735451,136.93121693121694 14.814814814814817,136.71957671957674 14.17989417989418,136.5079365079365 13.544973544973546,136.2962962962963 12.910052910052912,135.87301587301587 12.275132275132275,135.66137566137567 11.640211640211641,135.44973544973547 11.005291005291006,135.23809523809524 10.370370370370372,135.02645502645504 9.735449735449736,134.81481481481484 9.100529100529101,134.81481481481484 8.465608465608467,134.6031746031746 7.830687830687832,134.3915343915344 7.195767195767196,134.17989417989418 6.560846560846561,134.17989417989418 5.9259259259259265,133.96825396825398 2.1164021164021167,132.6984126984127" style="fill:none; stroke:#00aa99; stroke-width:1.0"  /><polyline points="2.1164021164021167,132.6984126984127 4.2328042328042335,130.37037037037038 4.656084656084657,129.94708994708995 5.07936507936508,129.31216931216932 5.502645502645503,128.88888888888889 5.9259259259259265,128.46560846560848 6.34920634920635,128.04232804232805 6.772486772486773,127.61904761904763 7.195767195767196,127.1957671957672 7.6190476190476195,126.77248677248679 8.042328042328043,126.13756613756615 8.465608465608467,125.71428571428572 8.465608465608467,125.07936507936509 9.100529100529101,124.86772486772487 9.523809523809524,124.44444444444446 9.947089947089948,124.02116402116403 10.370370370370372,123.3862433862434 10.793650793650794,122.96296296296298 11.216931216931219,122.32804232804234 11.640211640211641,121.90476190476191 12.063492063492065,121.26984126984128 12.486772486772487,120.84656084656086 12.910052910052912,120.21164021164022 13.333333333333334,119.57671957671958 13.756613756613758,119.15343915343917 14.17989417989418,118.73015873015873 14.603174603174605,118.30687830687832 15.026455026455027,117.67195767195768 15.238095238095239,117.03703703703705 15.661375661375663,116.61375661375662 16.084656084656086,116.1904761904762 16.50793650793651,115.55555555555557 16.931216931216934,114.92063492063492 17.354497354497354,114.49735449735451 17.77777777777778,113.86243386243387 17.98941798941799,113.22751322751324 18.412698412698415,112.80423280423281 18.624338624338627,112.16931216931218 19.047619047619047,111.74603174603176 19.47089947089947,111.11111111111111 19.25925925925926,110.47619047619048 19.682539682539684,109.84126984126985 19.894179894179896,109.20634920634922 20.31746031746032,108.78306878306879 20.952380952380953,108.57142857142858 21.164021164021165,107.93650793650795 21.375661375661377,107.3015873015873 21.7989417989418,106.66666666666667 22.010582010582013,106.03174603174604 22.433862433862437,105.3968253968254 22.645502645502646,104.76190476190477 22.857142857142858,104.12698412698414 23.06878306878307,103.4920634920635 23.280423280423282,102.85714285714286 23.492063492063494,102.22222222222223 23.703703703703706,101.5873015873016 23.915343915343918,100.95238095238096 24.12698412698413,100.31746031746033 24.12698412698413,99.68253968253968 24.338624338624342,99.04761904761905 24.338624338624342,98.41269841269842 24.55026455026455,97.77777777777779 24.338624338624342,97.14285714285715 24.55026455026455,96.50793650793652 24.55026455026455,95.87301587301587 24.55026455026455,95.23809523809524 24.761904761904763,94.60317460317461 24.55026455026455,93.96825396825398 24.55026455026455,93.33333333333334 24.55026455026455,92.69841269841271 24.338624338624342,92.06349206349208 24.338624338624342,91.42857142857143 23.915343915343918,90.7936507936508 23.703703703703706,90.15873015873017 23.280423280423282,89.73544973544975 22.857142857142858,89.31216931216932 22.433862433862437,88.8888888888889 22.010582010582013,88.46560846560847 21.58730158730159,88.04232804232805 20.952380952380953,87.61904761904762 20.31746031746032,87.40740740740742 19.682539682539684,87.1957671957672 19.047619047619047,86.77248677248677 18.412698412698415,86.56084656084657 17.77777777777778,86.34920634920636 17.142857142857146,86.34920634920636 16.50793650793651,86.13756613756614 15.873015873015873,86.13756613756614 15.238095238095239,86.13756613756614 14.603174603174605,85.92592592592594 13.96825396825397,85.92592592592594 13.333333333333334,85.92592592592594 12.6984126984127,86.13756613756614 12.063492063492065,86.13756613756614 11.428571428571429,86.13756613756614 10.793650793650794,86.34920634920636 10.15873015873016,86.34920634920636 9.523809523809524,86.56084656084657 8.88888888888889,86.56084656084657 8.253968253968255,86.56084656084657 7.6190476190476195,86.56084656084657 6.984126984126985,86.56084656084657 6.34920634920635,86.34920634920636 5.714285714285714,86.13756613756614 5.07936507936508,85.92592592592594 4.444444444444445,85.71428571428572 3.8095238095238098,85.29100529100529 3.174603174603175,84.86772486772487 2.53968253968254,84.44444444444446 2.1164021164021167,84.02116402116403 1.6931216931216932,83.59788359788361 1.26984126984127,82.96296296296298 1.0582010582010584,82.32804232804233 0.634920634920635,81.6931216931217 0.634920634920635,81.05820105820106 0.4232804232804233,80.42328042328043 0.4232804232804233,79.7883597883598 0.21164021164021166,79.15343915343917 0.21164021164021166,78.51851851851852 0.21164021164021166,77.88359788359789 0.21164021164021166,77.24867724867725 0.21164021164021166,76.61375661375662 0.21164021164021166,75.97883597883599 0.21164021164021166,75.34391534391536 0.21164021164021166,74.70899470899471 0.21164021164021166,74.07407407407408 0.21164021164021166,73.43915343915344 0.21164021164021166,72.80423280423281 0.21164021164021166,72.16931216931218 0.4232804232804233,71.53439153439155 0.4232804232804233,70.8994708994709 0.634920634920635,70.26455026455027 0.634920634920635,69.62962962962963 0.8465608465608466,68.994708994709 1.0582010582010584,68.35978835978837 1.0582010582010584,67.72486772486774 1.26984126984127,67.08994708994709 1.4814814814814816,66.45502645502646 1.6931216931216932,65.82010582010582 1.9047619047619049,65.18518518518519 2.1164021164021167,64.55026455026456 2.3280423280423284,63.91534391534392 2.7513227513227516,63.280423280423285 2.9629629629629632,62.64550264550265 2.9629629629629632,62.01058201058201 3.3862433862433865,61.58730158730159 3.597883597883598,60.952380952380956 4.021164021164021,60.52910052910053 4.444444444444445,59.8941798941799 4.867724867724868,59.25925925925927 5.291005291005291,58.62433862433863 5.714285714285714,57.989417989417994 6.137566137566138,57.56613756613757 6.560846560846561,56.93121693121694 6.984126984126985,56.50793650793651 7.407407407407408,56.08465608465609 7.830687830687832,55.661375661375665 8.253968253968255,55.23809523809524 8.677248677248677,54.81481481481482 9.312169312169313,54.39153439153439 9.947089947089948,54.179894179894184 10.582010582010582,54.179894179894184 11.216931216931219,53.968253968253975 11.851851851851853,53.968253968253975 12.486772486772487,53.968253968253975 13.121693121693122,54.179894179894184 13.756613756613758,54.179894179894184 14.391534391534393,54.39153439153439 15.026455026455027,54.60317460317461 15.661375661375663,54.81481481481482 16.296296296296298,55.02645502645503 16.931216931216934,55.23809523809524 17.566137566137566,55.449735449735456 18.201058201058203,55.87301587301588 18.83597883597884,56.2962962962963 19.47089947089947,56.71957671957672 20.105820105820108,56.93121693121694 20.529100529100532,57.35449735449736 21.164021164021165,57.777777777777786 21.58730158730159,58.2010582010582 22.010582010582013,58.62433862433863 22.433862433862437,59.04761904761905 23.06878306878307,59.470899470899475 23.703703703703706,59.8941798941799 24.12698412698413,60.31746031746032 24.761904761904763,60.52910052910053 25.3968253968254,60.952380952380956 26.031746031746035,61.37566137566138 26.666666666666668,61.58730158730159 27.301587301587304,62.01058201058201 27.93650793650794,62.22222222222223 28.571428571428573,62.43386243386244 29.20634920634921,62.43386243386244 29.841269841269842,62.64550264550265 30.476190476190478,62.64550264550265 31.111111111111114,62.64550264550265 31.746031746031747,62.64550264550265 32.38095238095239,62.43386243386244 33.01587301587302,62.22222222222223 33.65079365079365,62.01058201058201 34.28571428571429,61.58730158730159 34.70899470899471,61.16402116402117 35.34391534391535,60.74074074074075 35.76719576719577,60.31746031746032 36.19047619047619,59.8941798941799 36.82539682539683,59.470899470899475 37.248677248677254,58.83597883597884 37.67195767195768,58.41269841269842 37.883597883597886,57.777777777777786 38.30687830687831,57.35449735449736 38.730158730158735,56.71957671957672 38.94179894179894,56.08465608465609 39.15343915343916,55.449735449735456 39.57671957671958,54.81481481481482 39.78835978835979,54.179894179894184 40.0,53.54497354497355 40.0,52.91005291005291 40.211640211640216,52.27513227513228 40.211640211640216,51.640211640211646 40.423280423280424,51.00529100529101 40.63492063492064,50.370370370370374 40.84656084656085,49.73544973544974 41.058201058201064,49.1005291005291 41.26984126984127,48.46560846560847 41.26984126984127,47.830687830687836 41.48148148148149,47.195767195767196 41.6931216931217,46.560846560846564 41.6931216931217,45.92592592592593 41.904761904761905,45.29100529100529 42.11640211640212,44.65608465608466 42.32804232804233,44.021164021164026 42.32804232804233,43.386243386243386 42.539682539682545,42.75132275132275 42.75132275132275,42.11640211640212 42.96296296296297,41.48148148148149 43.17460317460318,40.84656084656085 43.17460317460318,40.211640211640216 43.386243386243386,39.57671957671958 43.5978835978836,38.94179894179894 43.80952380952381,38.30687830687831 44.021164021164026,37.67195767195768 44.232804232804234,37.03703703703704 44.232804232804234,36.402116402116405 44.44444444444445,35.76719576719577 44.65608465608466,35.13227513227513 44.867724867724874,34.4973544973545 45.07936507936508,33.86243386243387 45.29100529100529,33.22751322751323 45.50264550264551,32.592592592592595 45.714285714285715,31.95767195767196 45.92592592592593,31.322751322751326 45.92592592592593,30.68783068783069 46.349206349206355,30.052910052910054 46.560846560846564,29.41798941798942 46.77248677248678,28.783068783068785 46.98412698412699,28.14814814814815 47.195767195767196,27.513227513227516 47.195767195767196,26.87830687830688 47.40740740740741,26.243386243386244 47.61904761904762,25.60846560846561 47.830687830687836,24.973544973544975 47.830687830687836,24.338624338624342 48.042328042328045,23.703703703703706 48.25396825396826,23.06878306878307 48.46560846560847,22.433862433862437 48.677248677248684,21.7989417989418 48.88888888888889,21.164021164021165 48.88888888888889,20.529100529100532 49.1005291005291,19.894179894179896 49.523809523809526,19.25925925925926 49.523809523809526,18.624338624338627 49.73544973544974,17.98941798941799 49.94708994708995,17.354497354497354 50.158730158730165,16.71957671957672 50.370370370370374,16.084656084656086 50.58201058201058,15.449735449735451 50.7936507936508,14.814814814814817 51.00529100529101,14.17989417989418 51.21693121693122,13.544973544973546 51.42857142857143,12.910052910052912 52.48677248677249,9.100529100529101" style="fill:none; stroke:#3300bb; stroke-width:1.0"  /><circle cx="52.48677248677249" cy="9.100529100529101" r="2.0" style="fill:none; stroke:#000000aa; stroke-width:0.25" /><circle cx="142.43386243386246" cy="56.93121693121694" r="2.0" style="fill:none; stroke:#000000aa; stroke-width:0.25" /><circle cx="90.15873015873017" cy="184.33862433862436" r="2.0" style="fill:none; stroke:#000000aa; stroke-width:0.25" /><circle cx="2.1164021164021167" cy="132.6984126984127" r="2.0" style="fill:none; stroke:#000000aa; stroke-width:0.25" /><circle cx="52.6984126984127" cy="9.735449735449736" r="2.0" style="fill:none; stroke:#ff3366aa; stroke-width:0.25" /><circle cx="142.43386243386246" cy="56.71957671957672" r="2.0" style="fill:none; stroke:#ff3366aa; stroke-width:0.25" /><circle cx="90.15873015873017" cy="184.12698412698415" r="2.0" style="fill:none; stroke:#ff3366aa; stroke-width:0.25" /><circle cx="2.53968253968254" cy="132.9100529100529" r="2.0" style="fill:none; stroke:#ff3366aa; stroke-width:0.25" /><polyline points="63.280423280423285,15.238095238095239 62.64550264550265,14.814814814814817 62.01058201058201,14.391534391534393 61.58730158730159,13.96825396825397 60.952380952380956,13.756613756613758 60.52910052910053,13.333333333333334 59.8941798941799,13.121693121693122 59.25925925925927,12.910052910052912 58.83597883597884,12.486772486772487 58.2010582010582,12.275132275132275 57.56613756613757,11.851851851851853 56.93121693121694,11.640211640211641 56.50793650793651,11.216931216931219 55.87301587301588,11.005291005291006" style="fill:none; stroke:#001100; stroke-width:1.0" /><polyline points="48.88888888888889,21.164021164021165 48.88888888888889,20.529100529100532 49.1005291005291,19.894179894179896 49.523809523809526,19.25925925925926 49.523809523809526,18.624338624338627 49.73544973544974,17.98941798941799 49.94708994708995,17.354497354497354 50.158730158730165,16.71957671957672 50.370370370370374,16.084656084656086 50.58201058201058,15.449735449735451 50.7936507936508,14.814814814814817 51.00529100529101,14.17989417989418 51.21693121693122,13.544973544973546 51.42857142857143,12.910052910052912" style="fill:none; stroke:#000011; stroke-width:1.0" /><polyline points="136.5079365079365,66.66666666666667 136.93121693121694,66.03174603174604 137.14285714285717,65.3968253968254 137.56613756613757,64.76190476190477 137.989417989418,64.12698412698413 138.41269841269843,63.70370370370371 138.83597883597884,63.06878306878308 139.25925925925927,62.43386243386244 139.25925925925927,61.798941798941804 139.6825396825397,61.37566137566138 140.10582010582013,60.952380952380956 140.31746031746033,60.31746031746032 140.74074074074076,59.682539682539684" style="fill:none; stroke:#001100; stroke-width:1.0" /><polyline points="131.005291005291,53.75661375661376 131.64021164021165,53.968253968253975 132.27513227513228,54.179894179894184 132.9100529100529,54.39153439153439 133.54497354497354,54.60317460317461 134.17989417989418,54.81481481481482 134.81481481481484,55.02645502645503 135.44973544973547,55.23809523809524 136.0846560846561,55.449735449735456 136.71957671957674,55.449735449735456 137.35449735449737,55.661375661375665 137.989417989418,55.87301587301588 138.62433862433863,56.08465608465609 139.25925925925927,56.08465608465609" style="fill:none; stroke:#000011; stroke-width:1.0" /><polyline points="80.63492063492065,177.56613756613757 81.26984126984128,177.989417989418 81.90476190476191,178.41269841269843 82.53968253968254,178.83597883597884 83.17460317460318,179.25925925925927 83.59788359788361,179.6825396825397 84.23280423280424,180.10582010582013 84.86772486772487,180.52910052910053 85.5026455026455,180.95238095238096 86.13756613756614,181.3756613756614 86.77248677248677,181.79894179894183 87.1957671957672,182.22222222222223" style="fill:none; stroke:#001100; stroke-width:1.0" /><polyline points="94.81481481481482,173.12169312169314 94.60317460317461,173.75661375661377 94.39153439153439,174.3915343915344 93.96825396825398,175.02645502645504 93.75661375661376,175.66137566137567 93.54497354497356,176.2962962962963 93.12169312169313,176.93121693121694 92.91005291005291,177.56613756613757 92.69841269841271,178.2010582010582 92.4867724867725,178.83597883597884 92.27513227513228,179.4708994708995 92.06349206349208,180.10582010582013 91.64021164021165,180.74074074074076 91.42857142857143,181.3756613756614" style="fill:none; stroke:#000011; stroke-width:1.0" /><polyline points="9.947089947089948,124.02116402116403 9.523809523809524,124.44444444444446 9.100529100529101,124.86772486772487 8.465608465608467,125.07936507936509 8.465608465608467,125.71428571428572 8.042328042328043,126.13756613756615 7.6190476190476195,126.77248677248679 7.195767195767196,127.1957671957672 6.772486772486773,127.61904761904763 6.34920634920635,128.04232804232805 5.9259259259259265,128.46560846560848 5.502645502645503,128.88888888888889 5.07936507936508,129.31216931216932 4.656084656084657,129.94708994708995 4.2328042328042335,130.37037037037038" style="fill:none; stroke:#001100; stroke-width:1.0" /><polyline points="13.544973544973546,136.2962962962963 12.910052910052912,135.87301587301587 12.275132275132275,135.66137566137567 11.640211640211641,135.44973544973547 11.005291005291006,135.23809523809524 10.370370370370372,135.02645502645504 9.735449735449736,134.81481481481484 9.100529100529101,134.81481481481484 8.465608465608467,134.6031746031746 7.830687830687832,134.3915343915344 7.195767195767196,134.17989417989418 6.560846560846561,134.17989417989418 5.9259259259259265,133.96825396825398" style="fill:none; stroke:#000011; stroke-width:1.0" /><polyline points="55.87301587301588,11.005291005291006 37.46031746031746,0.4232804232804233" style="fill:none; stroke:#ffaa00; stroke-width:0.4" /><polyline points="51.42857142857143,12.910052910052912 57.56613756613757,-7.407407407407408" style="fill:none; stroke:#aaff00; stroke-width:0.4" /><polyline points="140.74074074074076,59.682539682539684 151.74603174603175,41.48148148148149" style="fill:none; stroke:#ffaa00; stroke-width:0.4" /><polyline points="139.25925925925927,56.08465608465609 159.5767195767196,61.798941798941804" style="fill:none; stroke:#aaff00; stroke-width:0.4" /><polyline points="87.1957671957672,182.22222222222223 104.55026455026456,194.4973544973545" style="fill:none; stroke:#ffaa00; stroke-width:0.4" /><polyline points="91.42857142857143,181.3756613756614 83.3862433862434,201.05820105820106" style="fill:none; stroke:#aaff00; stroke-width:0.4" /><polyline points="4.2328042328042335,130.37037037037038 -9.947089947089948,146.03174603174605" style="fill:none; stroke:#ffaa00; stroke-width:0.4" /><polyline points="5.9259259259259265,133.96825396825398 -14.391534391534393,127.83068783068784" style="fill:none; stroke:#aaff00; stroke-width:0.4" /><circle cx="66.45502645502646" cy="94.17989417989419" r="1.0" style="fill:#444444; stroke-width:0" /><circle cx="67.93650793650794" cy="58.62433862433863" r="10.582010582010582" style="fill:#ff770022; stroke-width:0" /><circle cx="67.93650793650794" cy="58.62433862433863" r="1.0" style="fill:#ff7700; stroke-width:0" /></svg>