<?xml version="1.0" encoding="UTF-8" standalone="no"?><svg width="533.968253968254" height="577.1428571428572" viewBox="-10 -10 197.989417989418 212.3809523809524" xmlns="http://www.w3.org/2000/svg" xmlns:xlink="http://www.w3.org/1999/xlink"><polyline points="80.63492063492065,27.724867724867728 84.02116402116403,27.089947089947092 84.65608465608466,27.089947089947092 85.29100529100529,27.089947089947092 85.92592592592594,26.87830687830688 86.56084656084657,26.666666666666668 87.1957671957672,26.455026455026456 87.83068783068784,26.455026455026456 88.46560846560847,26.243386243386244 89.1005291005291,26.243386243386244 89.73544973544975,25.820105820105823 90.37037037037038,25.820105820105823 91.00529100529101,25.60846560846561 91.64021164021165,25.60846560846561 92.27513227513228,25.60846560846561 92.91005291005291,25.3968253968254 93.54497354497356,25.3968253968254 94.17989417989419,25.3968253968254 94.81481481481482,25.3968253968254 95.44973544973546,25.60846560846561 96.08465608465609,25.60846560846561 96.71957671957672,25.60846560846561 97.35449735449737,25.820105820105823 97.989417989418,25.820105820105823 98.62433862433863,26.031746031746035 99.25925925925927,26.243386243386244 99.8941798941799,26.243386243386244 100.52910052910053,26.455026455026456 101.16402116402116,26.666666666666668 101.79894179894181,26.87830687830688 102.43386243386244,27.089947089947092 103.06878306878308,27.301587301587304 103.70370370370371,27.513227513227516 104.33862433862434,27.93650793650794 104.97354497354497,28.14814814814815 105.60846560846562,28.35978835978836 106.24338624338625,28.783068783068785 106.87830687830689,28.783068783068785 107.51322751322752,28.994708994708997 108.14814814814815,28.783068783068785 108.78306878306879,28.783068783068785 109.20634920634922,29.20634920634921 109.84126984126985,29.41798941798942 110.47619047619048,28.994708994708997 111.11111111111111,28.994708994708997 111.74603174603176,28.994708994708997 112.3809523809524,28.783068783068785 112.80423280423281,28.14814814814815 113.43915343915344,27.93650793650794 113.86243386243387,27.513227513227516 114.28571428571429,27.089947089947092 114.70899470899472,26.666666666666668 114.92063492063492,26.031746031746035 115.34391534391536,25.60846560846561 115.55555555555557,24.973544973544975 115.76719576719577,24.338624338624342 115.76719576719577,23.703703703703706 115.76719576719577,23.06878306878307 115.97883597883599,22.433862433862437 115.97883597883599,21.7989417989418 115.97883597883599,21.164021164021165 115.76719576719577,20.529100529100532 115.76719576719577,19.894179894179896 115.55555555555557,19.25925925925926 115.13227513227514,18.624338624338627 115.13227513227514,17.98941798941799 114.70899470899472,17.354497354497354 114.49735449735451,16.71957671957672 114.07407407407408,16.084656084656086 114.07407407407408,15.449735449735451 113.65079365079366,14.814814814814817 113.43915343915344,14.17989417989418 113.22751322751324,13.544973544973546 113.01587301587303,12.910052910052912 112.80423280423281,12.275132275132275 112.5925925925926,11.640211640211641 112.3809523809524,11.005291005291006 112.16931216931218,10.370370370370372 112.16931216931218,9.735449735449736 111.95767195767196,9.100529100529101 111.95767195767196,8.465608465608467 111.74603174603176,7.830687830687832 111.95767195767196,7.195767195767196 111.95767195767196,6.560846560846561 112.16931216931218,5.9259259259259265 112.5925925925926,5.291005291005291 113.01587301587303,4.656084656084657 113.43915343915344,4.2328042328042335 113.86243386243387,3.8095238095238098 114.28571428571429,3.3862433862433865 114.92063492063492,2.9629629629629632 115.55555555555557,2.53968253968254 116.1904761904762,2.1164021164021167 116.82539682539684,1.9047619047619049 117.46031746031747,1.6931216931216932 118.0952380952381,1.4814814814814816 118.73015873015873,1.26984126984127 119.36507936507937,0.8465608465608466 120.00000000000001,0.8465608465608466 120.63492063492065,0.634920634920635 121.26984126984128,0.634920634920635 121.90476190476191,0.4232804232804233 122.53968253968254,0.4232804232804233 123.17460317460318,0.4232804232804233 123.80952380952382,0.21164021164021166 124.44444444444446,0.21164021164021166 125.07936507936509,0.21164021164021166 125.71428571428572,0.21164021164021166 126.34920634920636,0.21164021164021166 126.98412698412699,0.21164021164021166 127.61904761904763,0.21164021164021166 128.25396825396825,0.4232804232804233 128.88888888888889,0.4232804232804233 129.52380952380955,0.634920634920635 130.15873015873018,0.634920634920635 130.7936507936508,0.8465608465608466 131.42857142857144,1.0582010582010584 132.06349206349208,1.26984126984127 132.6984126984127,1.26984126984127 133.33333333333334,1.4814814814814816 133.96825396825398,1.6931216931216932 134.6031746031746,1.9047619047619049 135.23809523809524,2.3280423280423284 135.87301587301587,2.53968253968254 136.5079365079365,2.9629629629629632 137.14285714285717,3.3862433862433865 137.56613756613757,3.8095238095238098 138.2010582010582,4.2328042328042335 138.83597883597884,4.656084656084657 139.25925925925927,5.07936507936508 139.6825396825397,5.502645502645503 140.10582010582013,5.9259259259259265 140.52910052910053,6.34920634920635 140.95238095238096,6.984126984126985 141.3756613756614,7.6190476190476195 141.5873015873016,8.253968253968255 142.01058201058203,8.88888888888889 142.01058201058203,9.523809523809524 142.22222222222223,10.15873015873016 142.43386243386246,10.793650793650794 142.43386243386246,11.428571428571429 142.43386243386246,12.063492063492065 142.43386243386246,12.6984126984127 142.43386243386246,13.333333333333334 142.22222222222223,13.96825396825397 142.01058201058203,14.603174603174605 141.7989417989418,15.238095238095239 141.5873015873016,15.873015873015873 141.16402116402116,16.50793650793651 140.95238095238096,17.142857142857146 140.52910052910053,17.77777777777778 140.10582010582013,18.412698412698415 139.8941798941799,19.047619047619047 139.47089947089947,19.682539682539684 139.25925925925927,20.31746031746032 138.83597883597884,20.740740740740744 138.62433862433863,21.375661375661377 138.2010582010582,22.010582010582013 137.7777777777778,22.645502645502646 137.56613756613757,23.280423280423282 137.35449735449737,23.915343915343918 136.93121693121694,24.55026455026455 136.5079365079365,25.185185185185187 136.0846560846561,25.820105820105823 135.87301587301587,26.455026455026456 135.44973544973547,27.089947089947092 135.02645502645504,27.724867724867728 134.81481481481484,28.35978835978836 134.6031746031746,28.994708994708997 134.17989417989418,29.41798941798942 133.96825396825398,30.052910052910054 133.75661375661377,30.68783068783069 133.54497354497354,31.322751322751326 133.33333333333334,31.95767195767196 133.33333333333334,32.592592592592595 133.12169312169314,33.22751322751323 133.12169312169314,33.86243386243387 132.9100529100529,34.4973544973545 132.9100529100529,35.13227513227513 132.9100529100529,35.76719576719577 132.9100529100529,36.402116402116405 132.9100529100529,37.03703703703704 132.6984126984127,37.67195767195768 132.9100529100529,38.30687830687831 132.9100529100529,38.94179894179894 133.12169312169314,39.57671957671958 133.33333333333334,40.211640211640216 133.33333333333334,40.84656084656085 133.54497354497354,41.48148148148149 133.75661375661377,42.11640211640212 133.96825396825398,42.75132275132275 134.17989417989418,43.386243386243386 134.17989417989418,44.021164021164026 134.6031746031746,44.65608465608466 134.81481481481484,45.29100529100529 135.23809523809524,45.92592592592593 135.44973544973547,46.560846560846564 135.87301587301587,47.195767195767196 136.0846560846561,47.830687830687836 136.5079365079365,48.25396825396826 136.93121693121694,48.88888888888889 137.35449735449737,49.31216931216932 137.7777777777778,49.94708994708995 138.2010582010582,50.370370370370374 138.62433862433863,50.7936507936508 139.04761904761907,51.21693121693122 139.47089947089947,51.640211640211646 139.8941798941799,52.06349206349207 140.52910052910053,52.48677248677249 140.95238095238096,52.91005291005291 141.5873015873016,53.333333333333336 142.22222222222223,53.75661375661376 142.85714285714286,54.179894179894184 143.4920634920635,54.60317460317461 144.12698412698413,54.81481481481482 144.76190476190476,55.23809523809524 145.39682539682542,55.661375661375665 146.03174603174605,55.87301587301588 146.66666666666669,56.08465608465609 147.30158730158732,56.50793650793651 147.93650793650795,56.71957671957672 148.57142857142858,57.142857142857146 149.20634920634922,57.35449735449736 149.84126984126985,57.56613756613757 150.47619047619048,57.989417989417994 151.11111111111111,58.2010582010582 151.74603174603175,58.41269841269842 152.38095238095238,58.62433862433863 153.01587301587304,58.83597883597884 153.65079365079367,58.83597883597884 154.2857142857143,59.04761904761905 154.92063492063494,59.25925925925927 155.55555555555557,59.470899470899475 156.1904761904762,59.682539682539684 156.82539682539684,59.682539682539684 157.46031746031747,59.682539682539684 158.0952380952381,59.8941798941799 158.73015873015873,60.10582010582011 159.36507936507937,60.10582010582011 162.96296296296296,60.952380952380956" style="fill:none; stroke:#cc0000; stroke-width:1.0"  /><polyline points="162.96296296296296,60.952380952380956 161.05820105820106,64.12698412698413 160.63492063492066,64.76190476190477 160.21164021164023,65.3968253968254 160.0,66.03174603174604 159.5767195767196,66.45502645502646 159.36507936507937,67.08994708994709 159.15343915343917,67.72486772486774 158.73015873015873,68.14814814814815 158.51851851851853,68.78306878306879 158.0952380952381,69.41798941798942 157.67195767195767,69.84126984126985 157.46031746031747,70.47619047619048 157.03703703703704,71.11111111111111 156.82539682539684,71.74603174603175 156.4021164021164,72.38095238095238 155.978835978836,73.01587301587303 155.76719576719577,73.65079365079366 155.76719576719577,74.28571428571429 155.34391534391534,74.92063492063492 155.13227513227514,75.55555555555556 154.7089947089947,76.19047619047619 154.4973544973545,76.82539682539684 154.2857142857143,77.46031746031747 153.86243386243387,78.0952380952381 153.43915343915344,78.73015873015873 153.22751322751324,79.36507936507937 153.01587301587304,80.0 152.8042328042328,80.63492063492065 152.38095238095238,81.26984126984128 151.95767195767198,81.90476190476191 151.74603174603175,82.53968253968254 151.53439153439155,83.17460317460318 151.32275132275134,83.80952380952381 150.8994708994709,84.44444444444446 150.6878306878307,85.07936507936509 150.47619047619048,85.71428571428572 150.26455026455028,86.34920634920636 149.84126984126985,86.98412698412699 149.62962962962965,87.61904761904762 149.41798941798942,88.25396825396827 148.99470899470901,88.8888888888889 148.78306878306879,89.52380952380953 148.57142857142858,90.15873015873017 148.14814814814815,90.7936507936508 147.93650793650795,91.42857142857143 147.72486772486775,92.06349206349208 147.30158730158732,92.69841269841271 147.0899470899471,93.33333333333334 146.8783068783069,93.96825396825398 146.45502645502646,94.60317460317461 146.24338624338625,95.23809523809524 146.03174603174605,95.87301587301587 145.82010582010582,96.50793650793652 145.39682539682542,97.14285714285715 145.1851851851852,97.77777777777779 144.973544973545,98.41269841269842 144.76190476190476,99.04761904761905 144.55026455026456,99.68253968253968 144.33862433862436,100.31746031746033 143.91534391534393,100.95238095238096 143.70370370370372,101.5873015873016 143.4920634920635,102.22222222222223 143.2804232804233,102.85714285714286 143.0687830687831,103.4920634920635 142.64550264550266,104.12698412698414 142.43386243386246,104.76190476190477 142.22222222222223,105.3968253968254 142.01058201058203,106.03174603174604 141.7989417989418,106.66666666666667 141.5873015873016,107.3015873015873 141.3756613756614,107.93650793650795 140.95238095238096,108.57142857142858 140.95238095238096,109.20634920634922 140.74074074074076,109.84126984126985 140.74074074074076,110.47619047619048 140.52910052910053,111.11111111111111 140.31746031746033,111.74603174603176 140.31746031746033,112.3809523809524 140.10582010582013,113.01587301587303 140.10582010582013,113.65079365079366 140.31746031746033,114.28571428571429 140.31746031746033,114.92063492063492 140.52910052910053,115.55555555555557 140.74074074074076,116.1904761904762 140.95238095238096,116.82539682539684 141.3756613756614,117.46031746031747 141.7989417989418,117.88359788359789 142.22222222222223,118.51851851851853 142.64550264550266,118.94179894179895 143.0687830687831,119.36507936507937 143.70370370370372,119.7883597883598 144.33862433862436,120.00000000000001 144.973544973545,120.21164021164022 145.60846560846562,120.42328042328043 146.24338624338625,120.84656084656086 146.8783068783069,121.05820105820106 147.51322751322752,121.05820105820106 148.14814814814815,121.26984126984128 148.78306878306879,121.26984126984128 149.41798941798942,121.4814814814815 150.05291005291005,121.4814814814815 150.6878306878307,121.4814814814815 151.32275132275134,121.4814814814815 151.95767195767198,121.26984126984128 152.5925925925926,121.05820105820106 153.22751322751324,121.05820105820106 153.86243386243387,121.05820105820106 154.4973544973545,121.05820105820106 155.13227513227514,120.84656084656086 155.76719576719577,120.63492063492065 156.4021164021164,120.63492063492065 157.03703703703704,120.42328042328043 157.67195767195767,120.42328042328043 158.30687830687833,120.21164021164022 158.94179894179896,120.00000000000001 159.5767195767196,120.21164021164022 160.0,119.7883597883598 160.63492063492066,119.7883597883598 161.2698412698413,119.7883597883598 161.90476190476193,119.7883597883598 162.53968253968256,120.00000000000001 163.1746031746032,120.00000000000001 163.80952380952382,120.21164021164022 164.44444444444446,120.21164021164022 165.0793650793651,120.42328042328043 165.71428571428572,120.63492063492065 166.34920634920636,120.84656084656086 166.984126984127,120.84656084656086 167.61904761904762,121.26984126984128 168.25396825396825,121.26984126984128 168.8888888888889,121.6931216931217 169.52380952380955,121.90476190476191 169.94708994708995,122.32804232804234 170.58201058201058,122.53968253968254 171.21693121693124,122.96296296296298 171.85185185185188,123.3862433862434 172.4867724867725,123.80952380952382 173.12169312169314,124.23280423280424 173.54497354497354,124.65608465608466 173.96825396825398,125.2910052910053 174.3915343915344,125.71428571428572 174.81481481481484,126.13756613756615 175.23809523809524,126.77248677248679 175.44973544973547,127.40740740740742 175.87301587301587,128.04232804232805 176.0846560846561,128.67724867724868 176.50793650793653,129.31216931216932 176.71957671957674,129.94708994708995 176.93121693121694,130.58201058201058 176.93121693121694,131.21693121693121 177.14285714285717,131.85185185185185 177.35449735449737,132.4867724867725 177.35449735449737,133.12169312169314 177.35449735449737,133.75661375661377 177.35449735449737,134.3915343915344 177.35449735449737,135.02645502645504 177.35449735449737,135.66137566137567 177.35449735449737,136.2962962962963 177.35449735449737,136.93121693121694 177.35449735449737,137.56613756613757 177.35449735449737,138.2010582010582 177.14285714285717,138.83597883597884 177.14285714285717,139.47089947089947 176.93121693121694,140.10582010582013 176.71957671957674,140.74074074074076 176.71957671957674,141.3756613756614 176.50793650793653,142.01058201058203 176.2962962962963,142.64550264550266 175.87301587301587,143.2804232804233 175.66137566137567,143.91534391534393 175.66137566137567,144.55026455026456 175.23809523809524,145.1851851851852 174.81481481481484,145.82010582010582 174.6031746031746,146.45502645502646 174.1798941798942,147.0899470899471 173.75661375661377,147.72486772486775 173.33333333333334,148.35978835978838 172.9100529100529,148.99470899470901 172.4867724867725,149.41798941798942 172.06349206349208,149.84126984126985 171.64021164021165,150.26455026455028 171.21693121693124,150.6878306878307 170.7936507936508,151.11111111111111 170.37037037037038,151.53439153439155 169.94708994708995,151.95767195767198 169.52380952380955,152.38095238095238 168.8888888888889,152.8042328042328 168.25396825396825,153.22751322751324 167.61904761904762,153.65079365079367 166.984126984127,154.07407407407408 166.34920634920636,154.2857142857143 165.71428571428572,154.7089947089947 165.0793650793651,154.92063492063494 164.44444444444446,155.13227513227514 163.80952380952382,155.34391534391534 163.1746031746032,155.55555555555557 162.53968253968256,155.55555555555557 161.90476190476193,155.76719576719577 161.2698412698413,155.76719576719577 160.63492063492066,155.76719576719577 160.0,155.76719576719577 159.36507936507937,155.76719576719577 158.73015873015873,155.76719576719577 158.0952380952381,155.55555555555557 157.46031746031747,155.13227513227514 156.82539682539684,154.92063492063494 156.1904761904762,154.7089947089947 155.55555555555557,154.2857142857143 154.92063492063494,153.86243386243387 154.2857142857143,153.43915343915344 153.65079365079367,153.01587301587304 153.01587301587304,152.5925925925926 152.38095238095238,152.16931216931218 151.95767195767198,151.74603174603175 151.53439153439155,151.32275132275134 150.8994708994709,150.8994708994709 150.47619047619048,150.47619047619048 150.05291005291005,150.05291005291005 149.62962962962965,149.62962962962965 149.20634920634922,149.20634920634922 148.78306878306879,148.57142857142858 148.35978835978838,148.14814814814815 147.93650793650795,147.51322751322752 147.51322751322752,147.0899470899471 147.0899470899471,146.66666666666669 146.66666666666669,146.03174603174605 146.24338624338625,145.60846560846562 145.82010582010582,144.973544973545 145.39682539682542,144.33862433862436 144.973544973545,143.91534391534393 144.33862433862436,143.4920634920635 143.91534391534393,142.85714285714286 143.4920634920635,142.43386243386246 143.0687830687831,142.01058201058203 142.64550264550266,141.3756613756614 142.22222222222223,140.95238095238096 141.7989417989418,140.52910052910053 141.3756613756614,140.10582010582013 140.74074074074076,139.8941798941799 140.10582010582013,139.6825396825397 139.47089947089947,139.25925925925927 138.83597883597884,139.25925925925927 138.2010582010582,139.25925925925927 137.56613756613757,139.25925925925927 136.93121693121694,139.25925925925927 136.2962962962963,139.47089947089947 135.66137566137567,139.6825396825397 135.02645502645504,139.8941798941799 134.3915343915344,140.10582010582013 133.75661375661377,140.52910052910053 133.12169312169314,140.95238095238096 132.4867724867725,141.3756613756614 132.06349206349208,141.7989417989418 131.64021164021165,142.22222222222223 131.21693121693121,142.64550264550266 130.7936507936508,143.0687830687831 130.37037037037038,143.70370370370372 130.15873015873018,144.33862433862436 129.73544973544975,144.76190476190476 129.52380952380955,145.39682539682542 129.10052910052912,146.03174603174605 128.88888888888889,146.66666666666669 128.46560846560848,147.30158730158732 128.25396825396825,147.93650793650795 127.83068783068784,148.57142857142858 127.61904761904763,149.20634920634922 127.1957671957672,149.84126984126985 126.98412698412699,150.47619047619048 126.56084656084657,151.11111111111111 126.34920634920636,151.74603174603175 125.92592592592594,152.38095238095238 125.71428571428572,153.01587301587304 125.2910052910053,153.65079365079367 125.07936507936509,154.2857142857143 124.86772486772487,154.92063492063494 124.44444444444446,155.55555555555557 124.23280423280424,156.1904761904762 124.02116402116403,156.82539682539684 123.59788359788361,157.46031746031747 123.3862433862434,158.0952380952381 123.17460317460318,158.73015873015873 122.75132275132276,159.36507936507937 122.53968253968254,160.0 122.11640211640213,160.63492063492066 121.90476190476191,161.2698412698413 121.6931216931217,161.90476190476193 121.26984126984128,162.53968253968256 121.05820105820106,163.1746031746032 120.84656084656086,163.80952380952382 120.42328042328043,164.44444444444446 120.21164021164022,165.0793650793651 120.00000000000001,165.71428571428572 119.57671957671958,166.13756613756615 119.36507936507937,166.7724867724868 119.15343915343917,167.40740740740742 118.94179894179895,168.04232804232805 118.51851851851853,168.67724867724868 118.30687830687832,169.31216931216932 117.88359788359789,169.94708994708995 117.67195767195768,170.58201058201058 117.46031746031747,171.21693121693124 117.03703703703705,171.85185185185188 116.82539682539684,172.4867724867725 116.61375661375662,173.12169312169314 116.1904761904762,173.75661375661377 115.97883597883599,174.3915343915344 115.76719576719577,175.02645502645504 115.55555555555557,175.66137566137567 115.13227513227514,176.2962962962963 114.92063492063492,176.93121693121694 114.70899470899472,177.56613756613757 114.49735449735451,178.2010582010582 114.28571428571429,178.83597883597884 114.07407407407408,179.4708994708995 113.86243386243387,180.10582010582013 113.65079365079366,180.74074074074076 113.43915343915344,181.3756613756614 113.22751322751324,182.01058201058203 112.80423280423281,182.64550264550266 112.5925925925926,183.2804232804233 112.3809523809524,183.91534391534393 112.16931216931218,184.55026455026456 111.95767195767196,185.1851851851852 111.74603174603176,185.82010582010582 111.53439153439155,186.45502645502646 111.32275132275133,187.08994708994712 111.11111111111111,187.72486772486775 110.89947089947091,188.35978835978838 110.89947089947091,188.99470899470901 109.84126984126985,192.16931216931218" style="fill:none; stroke:#999900; stroke-width:1.0"  /><polyline points="109.84126984126985,192.16931216931218 106.24338624338625,190.8994708994709 105.60846560846562,190.47619047619048 104.97354497354497,190.47619047619048 104.33862433862434,190.05291005291008 103.70370370370371,189.84126984126985 103.06878306878308,189.62962962962965 102.43386243386244,189.41798941798945 101.79894179894181,189.20634920634922 101.16402116402116,188.99470899470901 100.52910052910053,188.78306878306879 99.8941798941799,188.57142857142858 99.25925925925927,188.35978835978838 98.62433862433863,188.14814814814815 97.989417989418,187.93650793650795 97.35449735449737,187.72486772486775 96.71957671957672,187.51322751322752 96.08465608465609,187.30158730158732 95.44973544973546,187.08994708994712 94.81481481481482,186.8783068783069 94.17989417989419,186.66666666666669 93.54497354497356,186.45502645502646 92.91005291005291,186.24338624338625 92.27513227513228,186.03174603174605 91.64021164021165,185.82010582010582 91.00529100529101,185.60846560846562 90.37037037037038,185.60846560846562 89.73544973544975,185.60846560846562 89.1005291005291,185.39682539682542 88.46560846560847,185.39682539682542 87.83068783068784,185.1851851851852 87.1957671957672,184.973544973545 86.56084656084657,184.7619047619048 85.92592592592594,184.7619047619048 85.29100529100529,184.55026455026456 84.65608465608466,184.33862433862436 84.02116402116403,184.33862433862436 83.3862433862434,184.12698412698415 82.75132275132276,183.91534391534393 82.11640211640213,183.70370370370372 81.48148148148148,183.4920634920635 80.84656084656085,183.2804232804233 80.21164021164022,182.85714285714286 79.57671957671958,182.64550264550266 78.94179894179895,182.22222222222223 78.51851851851852,181.79894179894183 78.0952380952381,181.3756613756614 77.67195767195767,180.95238095238096 77.24867724867725,180.31746031746033 76.82539682539684,179.6825396825397 76.4021164021164,179.04761904761907 76.4021164021164,178.41269841269843 76.4021164021164,177.7777777777778 76.4021164021164,177.14285714285717 76.4021164021164,176.50793650793653 76.61375661375662,175.87301587301587 76.61375661375662,175.23809523809524 76.82539682539684,174.6031746031746 77.03703703703704,173.96825396825398 77.46031746031747,173.54497354497354 77.88359788359789,172.9100529100529 78.30687830687832,172.4867724867725 78.73015873015873,172.06349206349208 79.15343915343917,171.64021164021165 79.57671957671958,171.21693121693124 80.0,170.7936507936508 80.63492063492065,170.37037037037038 81.26984126984128,169.94708994708995 81.90476190476191,169.73544973544975 82.32804232804233,169.31216931216932 82.96296296296298,168.8888888888889 83.59788359788361,168.67724867724868 84.02116402116403,168.25396825396825 84.65608465608466,167.83068783068785 85.29100529100529,167.61904761904762 85.71428571428572,167.19576719576722 86.34920634920636,166.7724867724868 86.77248677248677,166.34920634920636 87.1957671957672,165.92592592592595 87.61904761904762,165.50264550264552 88.04232804232805,165.0793650793651 88.46560846560847,164.44444444444446 88.8888888888889,164.02116402116403 89.31216931216932,163.59788359788362 89.52380952380953,162.96296296296296 89.94708994708995,162.32804232804233 90.15873015873017,161.6931216931217 90.15873015873017,161.05820105820106 90.58201058201058,160.42328042328043 90.7936507936508,159.7883597883598 90.7936507936508,159.15343915343917 90.7936507936508,158.51851851851853 90.7936507936508,157.8835978835979 90.7936507936508,157.24867724867727 90.7936507936508,156.61375661375664 90.58201058201058,155.978835978836 90.37037037037038,155.34391534391534 90.15873015873017,154.7089947089947 89.73544973544975,154.2857142857143 89.31216931216932,153.65079365079367 88.8888888888889,153.01587301587304 88.46560846560847,152.38095238095238 88.04232804232805,151.95767195767198 87.61904761904762,151.53439153439155 87.40740740740742,150.8994708994709 86.98412698412699,150.47619047619048 86.56084656084657,150.05291005291005 86.13756613756614,149.62962962962965 85.71428571428572,149.20634920634922 85.29100529100529,148.57142857142858 84.86772486772487,148.14814814814815 84.44444444444446,147.72486772486775 84.02116402116403,147.30158730158732 83.59788359788361,146.8783068783069 83.17460317460318,146.45502645502646 82.75132275132276,146.03174603174605 82.11640211640213,145.60846560846562 81.48148148148148,145.1851851851852 81.05820105820106,144.76190476190476 80.42328042328043,144.33862433862436 79.7883597883598,144.12698412698413 79.36507936507937,143.70370370370372 78.73015873015873,143.2804232804233 78.0952380952381,143.0687830687831 77.46031746031747,142.64550264550266 76.82539682539684,142.43386243386246 76.19047619047619,142.01058201058203 75.55555555555556,141.7989417989418 74.92063492063492,141.3756613756614 74.28571428571429,141.16402116402116 73.65079365079366,140.95238095238096 73.01587301587303,140.52910052910053 72.38095238095238,140.31746031746033 71.74603174603175,139.8941798941799 71.11111111111111,139.6825396825397 70.47619047619048,139.47089947089947 69.84126984126985,139.25925925925927 69.20634920634922,139.04761904761907 68.57142857142858,138.83597883597884 67.93650793650794,138.62433862433863 67.3015873015873,138.41269841269843 66.66666666666667,138.41269841269843 66.03174603174604,138.2010582010582 65.3968253968254,137.989417989418 64.76190476190477,137.7777777777778 64.12698412698413,137.7777777777778 63.492063492063494,137.56613756613757 62.85714285714286,137.35449735449737 62.22222222222223,137.35449735449737 61.58730158730159,137.14285714285717 60.952380952380956,137.14285714285717 60.31746031746032,137.14285714285717 59.682539682539684,136.93121693121694 59.04761904761905,136.93121693121694 58.41269841269842,136.71957671957674 57.777777777777786,136.71957671957674 57.142857142857146,136.71957671957674 56.50793650793651,136.5079365079365 55.87301587301588,136.5079365079365 55.23809523809524,136.2962962962963 54.60317460317461,136.5079365079365 53.968253968253975,136.5079365079365 53.333333333333336,136.5079365079365 52.6984126984127,136.5079365079365 52.06349206349207,136.5079365079365 51.42857142857143,136.5079365079365 50.7936507936508,136.71957671957674 50.158730158730165,136.71957671957674 49.523809523809526,136.93121693121694 48.88888888888889,137.35449735449737 48.25396825396826,137.56613756613757 47.61904761904762,137.989417989418 47.195767195767196,138.41269841269843 46.77248677248678,138.83597883597884 46.349206349206355,139.25925925925927 45.92592592592593,139.8941798941799 45.714285714285715,140.52910052910053 45.50264550264551,141.16402116402116 45.29100529100529,141.7989417989418 45.29100529100529,142.43386243386246 45.29100529100529,143.0687830687831 45.07936507936508,143.70370370370372 45.29100529100529,144.33862433862436 45.50264550264551,144.973544973545 45.714285714285715,145.60846560846562 45.714285714285715,146.24338624338625 46.13756613756614,146.8783068783069 46.349206349206355,147.51322751322752 46.349206349206355,148.14814814814815 46.77248677248678,148.78306878306879 46.77248677248678,149.41798941798942 46.98412698412699,150.05291005291005 47.195767195767196,150.6878306878307 47.40740740740741,151.32275132275134 47.61904761904762,151.95767195767198 47.61904761904762,152.5925925925926 48.042328042328045,153.22751322751324 48.042328042328045,153.86243386243387 48.25396825396826,154.4973544973545 48.46560846560847,155.13227513227514 48.677248677248684,155.76719576719577 48.677248677248684,156.4021164021164 48.88888888888889,157.03703703703704 49.1005291005291,157.67195767195767 49.31216931216932,158.30687830687833 49.31216931216932,158.94179894179896 49.523809523809526,159.5767195767196 49.523809523809526,160.21164021164023 49.73544973544974,160.84656084656086 49.73544973544974,161.4814814814815 49.73544973544974,162.11640211640213 49.523809523809526,162.75132275132276 49.523809523809526,163.3862433862434 49.31216931216932,164.02116402116403 49.1005291005291,164.65608465608466 49.1005291005291,165.2910052910053 48.677248677248684,165.92592592592595 48.46560846560847,166.56084656084658 48.042328042328045,166.984126984127 47.61904761904762,167.61904761904762 47.195767195767196,168.04232804232805 46.77248677248678,168.46560846560848 46.349206349206355,168.8888888888889 45.714285714285715,169.10052910052912 45.07936507936508,169.52380952380955 44.44444444444445,169.73544973544975 43.80952380952381,169.94708994708995 43.17460317460318,170.15873015873018 42.539682539682545,170.37037037037038 41.904761904761905,170.37037037037038 41.26984126984127,170.58201058201058 40.63492063492064,170.58201058201058 40.0,170.58201058201058 39.36507936507937,170.7936507936508 38.730158730158735,170.7936507936508 38.095238095238095,170.7936507936508 37.46031746031746,170.7936507936508 36.82539682539683,170.7936507936508 36.19047619047619,170.7936507936508 35.55555555555556,170.7936507936508 34.920634920634924,170.7936507936508 34.28571428571429,170.7936507936508 33.65079365079365,170.7936507936508 33.01587301587302,170.7936507936508 32.38095238095239,170.58201058201058 31.746031746031747,170.58201058201058 31.111111111111114,170.58201058201058 30.476190476190478,170.58201058201058 29.841269841269842,170.58201058201058 29.20634920634921,170.58201058201058 28.571428571428573,170.58201058201058 27.93650793650794,170.37037037037038 27.301587301587304,170.37037037037038 26.666666666666668,170.37037037037038 26.031746031746035,170.37037037037038 25.3968253968254,170.37037037037038 24.761904761904763,170.37037037037038 24.12698412698413,170.15873015873018 23.492063492063494,170.15873015873018 22.857142857142858,170.15873015873018 22.222222222222225,170.15873015873018 21.58730158730159,170.15873015873018 20.952380952380953,169.94708994708995 20.31746031746032,169.94708994708995 19.682539682539684,170.15873015873018 19.047619047619047,169.94708994708995 18.412698412698415,169.73544973544975 17.77777777777778,169.73544973544975 17.142857142857146,169.73544973544975 16.50793650793651,169.73544973544975 15.873015873015873,169.73544973544975 15.238095238095239,169.73544973544975 14.603174603174605,169.73544973544975 13.96825396825397,169.52380952380955 13.333333333333334,169.52380952380955 12.6984126984127,169.52380952380955 12.063492063492065,169.52380952380955 11.428571428571429,169.52380952380955 10.793650793650794,169.52380952380955 10.15873015873016,169.52380952380955 9.523809523809524,169.31216931216932 8.88888888888889,169.31216931216932 8.253968253968255,169.31216931216932 7.6190476190476195,169.31216931216932 6.984126984126985,169.31216931216932 6.34920634920635,169.31216931216932 5.714285714285714,169.31216931216932 5.07936507936508,169.31216931216932 4.444444444444445,169.31216931216932 3.8095238095238098,169.31216931216932 3.174603174603175,169.31216931216932 -0.21164021164021166,169.31216931216932" style="fill:none; stroke:#00aa99; stroke-width:1.0"  /><polyline points="-0.21164021164021166,169.31216931216932 0.634920634920635,165.92592592592595 0.8465608465608466,165.2910052910053 1.0582010582010584,164.65608465608466 1.26984126984127,164.02116402116403 1.26984126984127,163.3862433862434 1.6931216931216932,162.75132275132276 1.9047619047619049,162.11640211640213 1.9047619047619049,161.4814814814815 2.1164021164021167,160.84656084656086 2.3280423280423284,160.21164021164023 2.53968253968254,159.5767195767196 2.53968253968254,158.94179894179896 2.7513227513227516,158.30687830687833 2.9629629629629632,157.67195767195767 3.174603174603175,157.03703703703704 3.174603174603175,156.4021164021164 3.3862433862433865,155.76719576719577 3.597883597883598,155.13227513227514 3.8095238095238098,154.4973544973545 4.021164021164021,153.86243386243387 4.2328042328042335,153.22751322751324 4.444444444444445,152.5925925925926 4.656084656084657,151.95767195767198 4.867724867724868,151.32275132275134 5.07936507936508,150.6878306878307 5.07936507936508,150.05291005291005 5.291005291005291,149.41798941798942 5.714285714285714,148.99470899470901 5.714285714285714,148.35978835978838 6.137566137566138,147.72486772486775 6.34920634920635,147.0899470899471 6.560846560846561,146.45502645502646 6.984126984126985,145.82010582010582 7.195767195767196,145.1851851851852 7.6190476190476195,144.55026455026456 7.830687830687832,143.91534391534393 8.042328042328043,143.2804232804233 8.465608465608467,142.64550264550266 8.88888888888889,142.01058201058203 9.312169312169313,141.3756613756614 9.735449735449736,140.74074074074076 10.15873015873016,140.10582010582013 10.582010582010582,139.47089947089947 11.005291005291006,138.83597883597884 11.428571428571429,138.2010582010582 11.851851851851853,137.56613756613757 12.275132275132275,137.14285714285717 12.6984126984127,136.5079365079365 13.121693121693122,136.0846560846561 13.544973544973546,135.44973544973547 13.96825396825397,134.81481481481484 14.391534391534393,134.3915343915344 14.814814814814817,133.75661375661377 15.238095238095239,133.33333333333334 15.661375661375663,132.9100529100529 16.084656084656086,132.27513227513228 16.50793650793651,131.85185185185185 16.931216931216934,131.42857142857144 17.354497354497354,131.005291005291 17.77777777777778,130.58201058201058 18.201058201058203,130.15873015873018 18.624338624338627,129.52380952380955 19.047619047619047,129.10052910052912 19.47089947089947,128.67724867724868 19.894179894179896,128.25396825396825 20.31746031746032,127.83068783068784 20.740740740740744,127.40740740740742 21.164021164021165,126.77248677248679 21.58730158730159,126.34920634920636 22.010582010582013,125.92592592592594 22.433862433862437,125.5026455026455 22.857142857142858,125.07936507936509 23.280423280423282,124.65608465608466 23.703703703703706,124.23280423280424 24.338624338624342,123.80952380952382 24.761904761904763,123.3862433862434 25.185185185185187,122.75132275132276 25.820105820105823,122.32804232804234 26.243386243386244,121.90476190476191 26.666666666666668,121.4814814814815 27.089947089947092,121.05820105820106 27.513227513227516,120.63492063492065 27.93650793650794,120.21164021164022 28.35978835978836,119.7883597883598 28.783068783068785,119.36507936507937 29.20634920634921,118.94179894179895 29.629629629629633,118.51851851851853 30.052910052910054,118.0952380952381 30.476190476190478,117.67195767195768 31.111111111111114,117.46031746031747 31.53439153439154,117.03703703703705 31.95767195767196,116.61375661375662 32.38095238095239,116.1904761904762 32.804232804232804,115.76719576719577 33.22751322751323,115.34391534391536 33.86243386243387,114.92063492063492 34.28571428571429,114.49735449735451 34.70899470899471,114.07407407407408 35.13227513227513,113.65079365079366 35.55555555555556,113.22751322751324 35.97883597883598,112.80423280423281 36.613756613756614,112.3809523809524 37.03703703703704,111.95767195767196 37.46031746031746,111.53439153439155 37.883597883597886,111.11111111111111 38.30687830687831,110.6878306878307 38.730158730158735,110.26455026455027 39.15343915343916,109.84126984126985 39.57671957671958,109.41798941798943 40.0,108.994708994709 40.423280423280424,108.57142857142858 40.84656084656085,108.14814814814815 41.26984126984127,107.72486772486774 41.6931216931217,107.3015873015873 42.11640211640212,106.87830687830689 42.539682539682545,106.45502645502647 42.96296296296297,106.03174603174604 43.386243386243386,105.3968253968254 43.80952380952381,104.97354497354497 44.021164021164026,104.33862433862434 44.44444444444445,103.70370370370371 44.65608465608466,103.06878306878308 45.07936507936508,102.43386243386244 45.29100529100529,101.79894179894181 45.50264550264551,101.16402116402116 45.714285714285715,100.52910052910053 45.714285714285715,99.8941798941799 45.92592592592593,99.25925925925927 45.92592592592593,98.62433862433863 45.92592592592593,97.989417989418 45.92592592592593,97.35449735449737 45.714285714285715,96.71957671957672 45.714285714285715,96.08465608465609 45.29100529100529,95.44973544973546 44.867724867724874,94.81481481481482 44.44444444444445,94.39153439153439 44.021164021164026,93.75661375661376 43.5978835978836,93.33333333333334 42.96296296296297,92.91005291005291 42.32804232804233,92.4867724867725 41.6931216931217,92.27513227513228 41.058201058201064,91.85185185185186 40.423280423280424,91.85185185185186 39.78835978835979,91.64021164021165 39.15343915343916,91.42857142857143 38.51851851851852,91.42857142857143 37.883597883597886,91.21693121693123 37.248677248677254,91.21693121693123 36.613756613756614,91.00529100529101 35.97883597883598,91.00529100529101 35.34391534391535,90.7936507936508 34.70899470899471,90.7936507936508 34.074074074074076,90.7936507936508 33.43915343915344,90.7936507936508 32.804232804232804,90.58201058201058 32.16931216931217,90.58201058201058 31.53439153439154,90.58201058201058 30.899470899470902,90.37037037037038 30.264550264550266,90.37037037037038 29.629629629629633,90.37037037037038 28.994708994708997,90.37037037037038 28.35978835978836,90.37037037037038 27.724867724867728,90.37037037037038 27.089947089947092,90.15873015873017 26.455026455026456,90.15873015873017 25.820105820105823,90.15873015873017 25.185185185185187,90.15873015873017 24.55026455026455,90.15873015873017 23.915343915343918,90.15873015873017 23.280423280423282,90.15873015873017 22.645502645502646,90.15873015873017 22.010582010582013,90.15873015873017 21.375661375661377,90.15873015873017 20.740740740740744,89.94708994708995 20.105820105820108,89.94708994708995 19.47089947089947,90.15873015873017 18.83597883597884,89.94708994708995 18.201058201058203,89.94708994708995 17.566137566137566,89.73544973544975 16.931216931216934,89.52380952380953 16.296296296296298,89.31216931216932 15.661375661375663,89.1005291005291 15.026455026455027,88.8888888888889 14.391534391534393,88.67724867724868 13.756613756613758,88.46560846560847 13.121693121693122,88.04232804232805 12.486772486772487,87.61904761904762 11.851851851851853,87.1957671957672 11.216931216931219,86.77248677248677 10.582010582010582,86.34920634920636 10.15873015873016,85.92592592592594 9.947089947089948,85.29100529100529 9.523809523809524,84.86772486772487 9.100529100529101,84.23280423280424 8.88888888888889,83.59788359788361 8.677248677248677,82.96296296296298 8.465608465608467,82.32804232804233 8.465608465608467,81.6931216931217 8.465608465608467,81.05820105820106 8.465608465608467,80.42328042328043 8.465608465608467,79.7883597883598 8.465608465608467,79.15343915343917 8.677248677248677,78.51851851851852 8.88888888888889,77.88359788359789 9.100529100529101,77.24867724867725 9.312169312169313,76.61375661375662 9.523809523809524,75.97883597883599 9.735449735449736,75.34391534391536 9.947089947089948,74.70899470899471 10.15873015873016,74.07407407407408 10.370370370370372,73.43915343915344 10.582010582010582,72.80423280423281 11.005291005291006,72.16931216931218 11.216931216931219,71.53439153439155 11.640211640211641,70.8994708994709 11.851851851851853,70.26455026455027 12.275132275132275,69.84126984126985 12.6984126984127,69.20634920634922 13.121693121693122,68.57142857142858 13.333333333333334,67.93650793650794 13.756613756613758,67.51322751322752 14.17989417989418,66.87830687830689 14.603174603174605,66.24338624338625 15.026455026455027,65.60846560846561 15.449735449735451,64.97354497354497 15.873015873015873,64.55026455026456 16.296296296296298,63.91534391534392 16.71957671957672,63.492063492063494 17.142857142857146,63.06878306878308 17.566137566137566,62.64550264550265 17.98941798941799,62.01058201058201 18.412698412698415,61.58730158730159 18.83597883597884,61.16402116402117 19.25925925925926,60.74074074074075 19.682539682539684,60.31746031746032 20.105820105820108,59.8941798941799 20.529100529100532,59.470899470899475 20.952380952380953,59.04761904761905 21.375661375661377,58.62433862433863 21.7989417989418,58.2010582010582 22.433862433862437,57.777777777777786 22.857142857142858,57.35449735449736 23.280423280423282,56.93121693121694 23.703703703703706,56.50793650793651 24.338624338624342,56.08465608465609 24.761904761904763,55.661375661375665 25.185185185185187,55.23809523809524 25.820105820105823,54.81481481481482 26.455026455026456,54.39153439153439 26.87830687830688,53.968253968253975 27.513227513227516,53.54497354497355 28.14814814814815,53.333333333333336 28.571428571428573,52.91005291005291 29.20634920634921,52.48677248677249 29.841269841269842,52.27513227513228 30.476190476190478,51.851851851851855 31.111111111111114,51.851851851851855 31.746031746031747,51.42857142857143 32.38095238095239,51.42857142857143 32.804232804232804,51.00529100529101 33.43915343915344,51.00529100529101 34.074074074074076,51.00529100529101 34.70899470899471,51.00529100529101 35.34391534391535,51.00529100529101 35.97883597883598,51.00529100529101 36.613756613756614,50.7936507936508 37.248677248677254,50.7936507936508 37.883597883597886,51.00529100529101 38.51851851851852,51.21693121693122 39.15343915343916,51.42857142857143 39.78835978835979,51.640211640211646 40.423280423280424,52.06349206349207 41.058201058201064,52.27513227513228 41.6931216931217,52.6984126984127 42.32804232804233,53.12169312169313 42.96296296296297,53.333333333333336 43.5978835978836,53.75661375661376 44.232804232804234,54.179894179894184 44.65608465608466,54.60317460317461 45.29100529100529,55.02645502645503 45.714285714285715,55.449735449735456 46.13756613756614,55.87301587301588 46.560846560846564,56.2962962962963 46.98412698412699,56.71957671957672 47.40740740740741,57.35449735449736 47.830687830687836,57.989417989417994 48.25396825396826,58.62433862433863 48.46560846560847,59.25925925925927 48.88888888888889,59.8941798941799 49.31216931216932,60.52910052910053 49.523809523809526,61.16402116402117 49.73544973544974,61.798941798941804 49.94708994708995,62.43386243386244 50.370370370370374,63.06878306878308 50.58201058201058,63.70370370370371 50.7936507936508,64.33862433862434 51.21693121693122,64.97354497354497 51.42857142857143,65.60846560846561 51.640211640211646,66.24338624338625 52.06349206349207,66.66666666666667 52.48677248677249,67.3015873015873 52.91005291005291,67.93650793650794 53.333333333333336,68.57142857142858 53.75661375661376,68.994708994709 54.179894179894184,69.41798941798942 54.60317460317461,69.84126984126985 55.02645502645503,70.26455026455027 55.449735449735456,70.6878306878307 56.08465608465609,71.11111111111111 56.71957671957672,71.53439153439155 57.35449735449736,71.74603174603175 57.989417989417994,71.74603174603175 58.62433862433863,71.95767195767196 59.25925925925927,72.16931216931218 59.8941798941799,72.16931216931218 60.52910052910053,72.16931216931218 61.16402116402117,71.95767195767196 61.798941798941804,71.74603174603175 62.43386243386244,71.53439153439155 63.06878306878308,71.11111111111111 63.70370370370371,70.6878306878307 64.33862433862434,70.26455026455027 64.76190476190477,69.84126984126985 65.18518518518519,69.20634920634922 65.60846560846561,68.78306878306879 66.03174603174604,68.14814814814815 66.45502645502646,67.51322751322752 66.87830687830689,66.87830687830689 67.3015873015873,66.24338624338625 67.51322751322752,65.60846560846561 67.93650793650794,64.97354497354497 68.14814814814815,64.33862433862434 68.57142857142858,63.91534391534392 68.78306878306879,63.280423280423285 69.20634920634922,62.64550264550265 69.41798941798942,62.01058201058201 69.84126984126985,61.37566137566138 70.26455026455027,60.74074074074075 70.47619047619048,60.10582010582011 70.8994708994709,59.470899470899475 71.11111111111111,58.83597883597884 71.53439153439155,58.2010582010582 71.74603174603175,57.56613756613757 71.95767195767196,56.93121693121694 72.38095238095238,56.2962962962963 72.5925925925926,55.661375661375665 72.80423280423281,55.02645502645503 73.01587301587303,54.39153439153439 73.43915343915344,53.75661375661376 73.65079365079366,53.12169312169313 73.86243386243387,52.48677248677249 74.07407407407408,51.851851851851855 74.49735449735451,51.21693121693122 74.70899470899471,50.58201058201058 74.92063492063492,49.94708994708995 75.34391534391536,49.31216931216932 75.55555555555556,48.677248677248684 75.76719576719577,48.042328042328045 75.97883597883599,47.40740740740741 76.19047619047619,46.77248677248678 76.4021164021164,46.13756613756614 76.61375661375662,45.50264550264551 76.82539682539684,44.867724867724874 77.03703703703704,44.232804232804234 77.24867724867725,43.5978835978836 77.46031746031747,42.96296296296297 77.67195767195767,42.32804232804233 77.88359788359789,41.6931216931217 77.88359788359789,41.058201058201064 78.0952380952381,40.423280423280424 78.30687830687832,39.78835978835979 78.30687830687832,39.15343915343916 78.51851851851852,38.51851851851852 78.51851851851852,37.883597883597886 78.73015873015873,37.248677248677254 78.94179894179895,36.613756613756614 78.94179894179895,35.97883597883598 79.15343915343917,35.34391534391535 79.36507936507937,34.70899470899471 79.36507936507937,34.074074074074076 79.57671957671958,33.43915343915344 79.57671957671958,32.804232804232804 79.7883597883598,32.16931216931217 79.7883597883598,31.53439153439154 80.0,30.899470899470902 80.63492063492065,27.724867724867728" style="fill:none; stroke:#3300bb; stroke-width:1.0"  /><circle cx="80.63492063492065" cy="27.724867724867728" r="2.0" style="fill:none; stroke:#000000aa; stroke-width:0.25" /><circle cx="162.96296296296296" cy="60.952380952380956" r="2.0" style="fill:none; stroke:#000000aa; stroke-width:0.25" /><circle cx="109.84126984126985" cy="192.16931216931218" r="2.0" style="fill:none; stroke:#000000aa; stroke-width:0.25" /><circle cx="-0.21164021164021166" cy="169.31216931216932" r="2.0" style="fill:none; stroke:#000000aa; stroke-width:0.25" /><circle cx="80.84656084656085" cy="27.93650793650794" r="2.0" style="fill:none; stroke:#ff3366aa; stroke-width:0.25" /><circle cx="162.75132275132276" cy="60.952380952380956" r="2.0" style="fill:none; stroke:#ff3366aa; stroke-width:0.25" /><circle cx="109.41798941798943" cy="191.95767195767198" r="2.0" style="fill:none; stroke:#ff3366aa; stroke-width:0.25" /><circle cx="0.21164021164021166" cy="169.10052910052912" r="2.0" style="fill:none; stroke:#ff3366aa; stroke-width:0.25" /><polyline points="92.27513227513228,25.60846560846561 91.64021164021165,25.60846560846561 91.00529100529101,25.60846560846561 90.37037037037038,25.820105820105823 89.73544973544975,25.820105820105823 89.1005291005291,26.243386243386244 88.46560846560847,26.243386243386244 87.83068783068784,26.455026455026456 87.1957671957672,26.455026455026456 86.56084656084657,26.666666666666668 85.92592592592594,26.87830687830688 85.29100529100529,27.089947089947092 84.65608465608466,27.089947089947092 84.02116402116403,27.089947089947092" style="fill:none; stroke:#001100; stroke-width:1.0" /><polyline points="78.30687830687832,39.15343915343916 78.51851851851852,38.51851851851852 78.51851851851852,37.883597883597886 78.73015873015873,37.248677248677254 78.94179894179895,36.613756613756614 78.94179894179895,35.97883597883598 79.15343915343917,35.34391534391535 79.36507936507937,34.70899470899471 79.36507936507937,34.074074074074076 79.57671957671958,33.43915343915344 79.57671957671958,32.804232804232804 79.7883597883598,32.16931216931217 79.7883597883598,31.53439153439154 80.0,30.899470899470902" style="fill:none; stroke:#000011; stroke-width:1.0" /><polyline points="157.03703703703704,71.11111111111111 157.46031746031747,70.47619047619048 157.67195767195767,69.84126984126985 158.0952380952381,69.41798941798942 158.51851851851853,68.78306878306879 158.73015873015873,68.14814814814815 159.15343915343917,67.72486772486774 159.36507936507937,67.08994708994709 159.5767195767196,66.45502645502646 160.0,66.03174603174604 160.21164021164023,65.3968253968254 160.63492063492066,64.76190476190477 161.05820105820106,64.12698412698413" style="fill:none; stroke:#001100; stroke-width:1.0" /><polyline points="151.11111111111111,58.2010582010582 151.74603174603175,58.41269841269842 152.38095238095238,58.62433862433863 153.01587301587304,58.83597883597884 153.65079365079367,58.83597883597884 154.2857142857143,59.04761904761905 154.92063492063494,59.25925925925927 155.55555555555557,59.470899470899475 156.1904761904762,59.682539682539684 156.82539682539684,59.682539682539684 157.46031746031747,59.682539682539684 158.0952380952381,59.8941798941799 158.73015873015873,60.10582010582011 159.36507936507937,60.10582010582011" style="fill:none; stroke:#000011; stroke-width:1.0" /><polyline points="98.62433862433863,188.14814814814815 99.25925925925927,188.35978835978838 99.8941798941799,188.57142857142858 100.52910052910053,188.78306878306879 101.16402116402116,188.99470899470901 101.79894179894181,189.20634920634922 102.43386243386244,189.41798941798945 103.06878306878308,189.62962962962965 103.70370370370371,189.84126984126985 104.33862433862434,190.05291005291008 104.97354497354497,190.47619047619048 105.60846560846562,190.47619047619048 106.24338624338625,190.8994708994709" style="fill:none; stroke:#001100; stroke-width:1.0" /><polyline points="113.65079365079366,180.74074074074076 113.43915343915344,181.3756613756614 113.22751322751324,182.01058201058203 112.80423280423281,182.64550264550266 112.5925925925926,183.2804232804233 112.3809523809524,183.91534391534393 112.16931216931218,184.55026455026456 111.95767195767196,185.1851851851852 111.74603174603176,185.82010582010582 111.53439153439155,186.45502645502646 111.32275132275133,187.08994708994712 111.11111111111111,187.72486772486775 110.89947089947091,188.35978835978838 110.89947089947091,188.99470899470901" style="fill:none; stroke:#000011; stroke-width:1.0" /><polyline points="2.9629629629629632,157.67195767195767 2.7513227513227516,158.30687830687833 2.53968253968254,158.94179894179896 2.53968253968254,159.5767195767196 2.3280423280423284,160.21164021164023 2.1164021164021167,160.84656084656086 1.9047619047619049,161.4814814814815 1.9047619047619049,162.11640211640213 1.6931216931216932,162.75132275132276 1.26984126984127,163.3862433862434 1.26984126984127,164.02116402116403 1.0582010582010584,164.65608465608466 0.8465608465608466,165.2910052910053 0.634920634920635,165.92592592592595" style="fill:none; stroke:#001100; stroke-width:1.0" /><polyline points="12.063492063492065,169.52380952380955 11.428571428571429,169.52380952380955 10.793650793650794,169.52380952380955 10.15873015873016,169.52380952380955 9.523809523809524,169.31216931216932 8.88888888888889,169.31216931216932 8.253968253968255,169.31216931216932 7.6190476190476195,169.31216931216932 6.984126984126985,169.31216931216932 6.34920634920635,169.31216931216932 5.714285714285714,169.31216931216932 5.07936507936508,169.31216931216932 4.444444444444445,169.31216931216932 3.8095238095238098,169.31216931216932 3.174603174603175,169.31216931216932" style="fill:none; stroke:#000011; stroke-width:1.0" /><polyline points="84.02116402116403,27.089947089947092 63.280423280423285,30.899470899470902" style="fill:none; stroke:#ffaa00; stroke-width:0.4" /><polyline points="80.0,30.899470899470902 84.23280423280424,10.15873015873016" style="fill:none; stroke:#aaff00; stroke-width:0.4" /><polyline points="161.05820105820106,64.12698412698413 171.64021164021165,45.714285714285715" style="fill:none; stroke:#ffaa00; stroke-width:0.4" /><polyline points="159.36507936507937,60.10582010582011 179.8941798941799,64.76190476190477" style="fill:none; stroke:#aaff00; stroke-width:0.4" /><polyline points="106.24338624338625,190.8994708994709 126.13756613756615,198.0952380952381" style="fill:none; stroke:#ffaa00; stroke-width:0.4" /><polyline points="110.89947089947091,188.99470899470901 104.12698412698414,209.10052910052912" style="fill:none; stroke:#aaff00; stroke-width:0.4" /><polyline points="0.634920634920635,165.92592592592595 -5.07936507936508,186.24338624338625" style="fill:none; stroke:#ffaa00; stroke-width:0.4" /><polyline points="3.174603174603175,169.31216931216932 -17.98941798941799,168.8888888888889" style="fill:none; stroke:#aaff00; stroke-width:0.4" /><circle cx="91.21693121693123" cy="102.01058201058201" r="1.0" style="fill:#444444; stroke-width:0" /><circle cx="95.87301587301587" cy="101.5873015873016" r="10.582010582010582" style="fill:#ff770022; stroke-width:0" /><circle cx="95.87301587301587" cy="101.5873015873016" r="1.0" style="fill:#ff7700; stroke-width:0" /></svg>