<?xml version="1.0" encoding="UTF-8" standalone="no"?><svg width="582.2222222222223" height="535.2380952380953" viewBox="-10 -10 214.07407407407408 198.41269841269843" xmlns="http://www.w3.org/2000/svg" xmlns:xlink="http://www.w3.org/1999/xlink"><polyline points="-0.634920634920635,86.13756613756614 2.7513227513227516,83.59788359788361 3.3862433862433865,83.17460317460318 3.8095238095238098,82.75132275132276 4.444444444444445,82.32804232804233 5.07936507936508,81.90476190476191 5.502645502645503,81.48148148148148 5.9259259259259265,81.05820105820106 6.560846560846561,80.63492063492065 7.195767195767196,80.21164021164022 7.830687830687832,79.7883597883598 8.465608465608467,79.36507936507937 9.100529100529101,78.94179894179895 9.735449735449736,78.51851851851852 10.15873015873016,78.0952380952381 10.793650793650794,77.67195767195767 11.428571428571429,77.24867724867725 12.063492063492065,76.82539682539684 12.6984126984127,76.4021164021164 13.333333333333334,75.97883597883599 13.96825396825397,75.55555555555556 14.603174603174605,75.13227513227514 15.238095238095239,74.70899470899471 15.661375661375663,74.28571428571429 16.296296296296298,74.07407407407408 16.71957671957672,73.65079365079366 17.354497354497354,73.22751322751323 17.98941798941799,72.80423280423281 18.624338624338627,72.38095238095238 19.25925925925926,71.95767195767196 19.894179894179896,71.53439153439155 20.529100529100532,71.11111111111111 21.164021164021165,70.6878306878307 21.7989417989418,70.26455026455027 22.433862433862437,69.84126984126985 23.06878306878307,69.41798941798942 23.703703703703706,69.20634920634922 24.12698412698413,68.78306878306879 24.761904761904763,68.57142857142858 25.185185185185187,68.14814814814815 25.820105820105823,67.93650793650794 26.243386243386244,67.51322751322752 26.87830687830688,67.08994708994709 27.513227513227516,66.66666666666667 28.14814814814815,66.45502645502646 28.571428571428573,66.03174603174604 29.20634920634921,65.82010582010582 29.629629629629633,65.3968253968254 30.264550264550266,64.97354497354497 30.899470899470902,64.55026455026456 31.53439153439154,64.33862433862434 31.95767195767196,63.91534391534392 32.38095238095239,63.492063492063494 33.01587301587302,63.280423280423285 33.65079365079365,62.85714285714286 34.28571428571429,62.43386243386244 34.70899470899471,62.01058201058201 35.34391534391535,61.798941798941804 35.97883597883598,61.58730158730159 36.402116402116405,61.16402116402117 37.03703703703704,60.74074074074075 37.67195767195768,60.52910052910053 38.30687830687831,60.10582010582011 38.94179894179894,59.682539682539684 39.57671957671958,59.470899470899475 40.211640211640216,59.04761904761905 40.84656084656085,58.62433862433863 41.48148148148149,58.2010582010582 42.11640211640212,57.989417989417994 42.75132275132275,57.56613756613757 43.386243386243386,57.35449735449736 44.021164021164026,57.142857142857146 44.65608465608466,56.71957671957672 45.29100529100529,56.50793650793651 45.92592592592593,56.2962962962963 46.560846560846564,56.08465608465609 47.195767195767196,55.87301587301588 47.830687830687836,55.87301587301588 48.46560846560847,55.87301587301588 49.1005291005291,55.87301587301588 49.73544973544974,55.87301587301588 50.370370370370374,56.08465608465609 51.00529100529101,56.2962962962963 51.640211640211646,56.71957671957672 52.27513227513228,57.142857142857146 52.6984126984127,57.777777777777786 52.91005291005291,58.41269841269842 53.333333333333336,59.04761904761905 53.333333333333336,59.682539682539684 53.54497354497355,60.31746031746032 53.54497354497355,60.952380952380956 53.54497354497355,61.58730158730159 53.54497354497355,62.22222222222223 53.54497354497355,62.85714285714286 53.54497354497355,63.492063492063494 53.54497354497355,64.12698412698413 53.54497354497355,64.76190476190477 53.54497354497355,65.3968253968254 53.54497354497355,66.03174603174604 53.54497354497355,66.66666666666667 53.54497354497355,67.3015873015873 53.75661375661376,67.93650793650794 53.75661375661376,68.57142857142858 53.75661375661376,69.20634920634922 53.968253968253975,69.84126984126985 53.968253968253975,70.47619047619048 54.179894179894184,71.11111111111111 54.39153439153439,71.74603174603175 54.60317460317461,72.38095238095238 54.81481481481482,73.01587301587303 54.81481481481482,73.65079365079366 55.23809523809524,74.28571428571429 55.449735449735456,74.92063492063492 55.661375661375665,75.55555555555556 56.08465608465609,75.97883597883599 56.50793650793651,76.61375661375662 56.93121693121694,77.03703703703704 57.35449735449736,77.67195767195767 57.989417989417994,78.0952380952381 58.62433862433863,78.51851851851852 59.25925925925927,78.94179894179895 59.8941798941799,79.15343915343917 60.52910052910053,79.36507936507937 61.16402116402117,79.57671957671958 61.798941798941804,79.57671957671958 62.43386243386244,79.57671957671958 63.06878306878308,79.7883597883598 63.70370370370371,79.7883597883598 64.33862433862434,79.57671957671958 64.97354497354497,79.57671957671958 65.60846560846561,79.57671957671958 66.24338624338625,79.7883597883598 66.87830687830689,79.57671957671958 67.3015873015873,79.15343915343917 67.93650793650794,79.15343915343917 68.57142857142858,78.94179894179895 69.20634920634922,78.73015873015873 69.84126984126985,78.73015873015873 70.47619047619048,78.51851851851852 71.11111111111111,78.30687830687832 71.53439153439155,77.88359788359789 72.16931216931218,77.88359788359789 72.80423280423281,77.46031746031747 73.43915343915344,77.24867724867725 74.07407407407408,77.03703703703704 74.49735449735451,76.61375661375662 75.13227513227514,76.19047619047619 75.76719576719577,75.97883597883599 76.19047619047619,75.55555555555556 76.82539682539684,75.13227513227514 77.24867724867725,74.70899470899471 77.88359788359789,74.28571428571429 78.30687830687832,73.86243386243387 78.94179894179895,73.43915343915344 79.57671957671958,73.01587301587303 80.0,72.5925925925926 80.42328042328043,72.16931216931218 81.05820105820106,71.74603174603175 81.48148148148148,71.32275132275133 81.90476190476191,70.8994708994709 82.32804232804233,70.47619047619048 82.75132275132276,70.05291005291006 83.17460317460318,69.62962962962963 83.59788359788361,69.20634920634922 84.02116402116403,68.78306878306879 84.44444444444446,68.14814814814815 84.86772486772487,67.72486772486774 85.07936507936509,67.08994708994709 85.5026455026455,66.45502645502646 85.71428571428572,65.82010582010582 85.92592592592594,65.18518518518519 86.13756613756614,64.55026455026456 86.13756613756614,63.91534391534392 86.13756613756614,63.280423280423285 86.13756613756614,62.64550264550265 86.13756613756614,62.01058201058201 85.92592592592594,61.37566137566138 85.71428571428572,60.74074074074075 85.71428571428572,60.10582010582011 85.29100529100529,59.470899470899475 85.07936507936509,58.83597883597884 84.65608465608466,58.41269841269842 84.23280423280424,57.777777777777786 83.80952380952381,57.142857142857146 83.3862433862434,56.50793650793651 82.96296296296298,56.08465608465609 82.53968253968254,55.661375661375665 82.11640211640213,55.23809523809524 81.6931216931217,54.81481481481482 81.05820105820106,54.39153439153439 80.63492063492065,53.968253968253975 80.0,53.54497354497355 79.36507936507937,53.12169312169313 78.94179894179895,52.6984126984127 78.30687830687832,52.27513227513228 77.67195767195767,51.851851851851855 77.03703703703704,51.42857142857143 76.4021164021164,51.00529100529101 75.76719576719577,50.58201058201058 75.13227513227514,50.370370370370374 74.70899470899471,49.94708994708995 74.07407407407408,49.523809523809526 73.43915343915344,49.1005291005291 72.80423280423281,48.677248677248684 72.16931216931218,48.25396825396826 71.53439153439155,47.830687830687836 71.11111111111111,47.40740740740741 70.47619047619048,46.98412698412699 70.05291005291006,46.349206349206355 69.62962962962963,45.92592592592593 69.41798941798942,45.29100529100529 68.994708994709,44.65608465608466 68.78306878306879,44.021164021164026 68.57142857142858,43.386243386243386 68.57142857142858,42.75132275132275 68.57142857142858,42.11640211640212 68.57142857142858,41.48148148148149 68.78306878306879,40.84656084656085 69.20634920634922,40.211640211640216 69.62962962962963,39.57671957671958 70.05291005291006,38.94179894179894 70.47619047619048,38.51851851851852 70.8994708994709,38.095238095238095 71.53439153439155,37.67195767195768 71.95767195767196,37.248677248677254 72.38095238095238,36.613756613756614 73.01587301587303,36.19047619047619 73.43915343915344,35.76719576719577 74.07407407407408,35.34391534391535 74.49735449735451,34.920634920634924 74.92063492063492,34.4973544973545 75.34391534391536,34.074074074074076 75.97883597883599,33.65079365079365 76.4021164021164,33.22751322751323 77.03703703703704,32.804232804232804 77.46031746031747,32.38095238095239 78.0952380952381,31.95767195767196 78.51851851851852,31.53439153439154 79.15343915343917,31.111111111111114 79.57671957671958,30.68783068783069 80.0,30.264550264550266 80.63492063492065,29.841269841269842 81.05820105820106,29.41798941798942 81.6931216931217,28.994708994708997 82.11640211640213,28.571428571428573 82.53968253968254,28.14814814814815 83.17460317460318,27.724867724867728 83.80952380952381,27.301587301587304 84.23280423280424,26.87830687830688 84.86772486772487,26.455026455026456 85.29100529100529,26.031746031746035 85.71428571428572,25.60846560846561 86.34920634920636,25.185185185185187 86.98412698412699,24.761904761904763 87.40740740740742,24.338624338624342 88.04232804232805,23.915343915343918 88.46560846560847,23.492063492063494 89.1005291005291,23.06878306878307 89.73544973544975,22.645502645502646 90.15873015873017,22.222222222222225 90.7936507936508,21.7989417989418 91.21693121693123,21.375661375661377 91.85185185185186,20.952380952380953 92.27513227513228,20.529100529100532 92.69841269841271,20.105820105820108 93.33333333333334,19.682539682539684 93.96825396825398,19.25925925925926 94.39153439153439,18.83597883597884 95.02645502645504,18.412698412698415 95.44973544973546,17.98941798941799 95.87301587301587,17.566137566137566 96.50793650793652,17.142857142857146 97.14285714285715,16.71957671957672 97.56613756613757,16.296296296296298 98.2010582010582,15.873015873015873 98.62433862433863,15.449735449735451 99.04761904761905,15.026455026455027 99.47089947089948,14.603174603174605 100.10582010582011,14.17989417989418 100.52910052910053,13.756613756613758 100.95238095238096,13.333333333333334 101.5873015873016,13.121693121693122 102.01058201058201,12.6984126984127 102.43386243386244,12.063492063492065 103.06878306878308,11.640211640211641 103.4920634920635,11.216931216931219 104.12698412698414,10.793650793650794 104.55026455026456,10.370370370370372 105.18518518518519,9.947089947089948 105.60846560846562,9.523809523809524 106.24338624338625,9.100529100529101 106.66666666666667,8.677248677248677 107.3015873015873,8.253968253968255 107.93650793650795,7.830687830687832 108.35978835978837,7.407407407407408 108.78306878306879,6.984126984126985 109.41798941798943,6.560846560846561 109.84126984126985,6.137566137566138 110.47619047619048,5.714285714285714 111.11111111111111,5.291005291005291 111.53439153439155,4.867724867724868 111.95767195767196,4.444444444444445 112.3809523809524,4.021164021164021 112.80423280423281,3.597883597883598 113.22751322751324,3.174603174603175 113.86243386243387,2.7513227513227516 114.28571428571429,2.3280423280423284 114.70899470899472,1.9047619047619049 117.03703703703705,-0.21164021164021166" style="fill:none; stroke:#cc0000; stroke-width:1.0"  /><polyline points="117.03703703703705,-0.21164021164021166 119.57671957671958,2.3280423280423284 120.00000000000001,2.7513227513227516 120.42328042328043,3.3862433862433865 120.84656084656086,3.8095238095238098 121.26984126984128,4.2328042328042335 121.90476190476191,4.656084656084657 122.32804232804234,5.07936507936508 122.75132275132276,5.714285714285714 123.3862433862434,6.137566137566138 123.80952380952382,6.560846560846561 124.23280423280424,6.984126984126985 124.65608465608466,7.407407407407408 125.07936507936509,7.830687830687832 125.5026455026455,8.253968253968255 125.92592592592594,8.677248677248677 126.34920634920636,9.100529100529101 126.77248677248679,9.523809523809524 127.1957671957672,9.947089947089948 127.61904761904763,10.370370370370372 128.04232804232805,10.793650793650794 128.46560846560848,11.216931216931219 128.88888888888889,11.640211640211641 129.52380952380955,12.063492063492065 129.94708994708995,12.486772486772487 130.37037037037038,13.121693121693122 130.7936507936508,13.544973544973546 131.21693121693121,13.96825396825397 131.64021164021165,14.391534391534393 132.06349206349208,14.814814814814817 132.6984126984127,15.238095238095239 133.33333333333334,15.661375661375663 133.75661375661377,16.084656084656086 134.17989417989418,16.50793650793651 134.6031746031746,16.931216931216934 135.02645502645504,17.354497354497354 135.44973544973547,17.77777777777778 135.87301587301587,18.201058201058203 136.2962962962963,18.624338624338627 136.71957671957674,19.047619047619047 137.35449735449737,19.47089947089947 137.7777777777778,19.894179894179896 138.2010582010582,20.31746031746032 138.62433862433863,20.740740740740744 139.04761904761907,21.164021164021165 139.47089947089947,21.58730158730159 139.8941798941799,22.010582010582013 140.31746031746033,22.433862433862437 140.74074074074076,22.857142857142858 141.16402116402116,23.280423280423282 141.5873015873016,23.703703703703706 142.22222222222223,24.12698412698413 142.64550264550266,24.761904761904763 143.0687830687831,25.185185185185187 143.70370370370372,25.60846560846561 144.12698412698413,26.243386243386244 144.55026455026456,26.666666666666668 145.1851851851852,27.089947089947092 145.60846560846562,27.513227513227516 146.03174603174605,27.93650793650794 146.45502645502646,28.35978835978836 146.8783068783069,28.783068783068785 147.30158730158732,29.20634920634921 147.93650793650795,29.629629629629633 148.35978835978838,30.052910052910054 148.78306878306879,30.476190476190478 149.20634920634922,30.899470899470902 149.62962962962965,31.322751322751326 150.05291005291005,31.746031746031747 150.47619047619048,32.16931216931217 150.8994708994709,32.592592592592595 151.32275132275134,33.01587301587302 151.74603174603175,33.43915343915344 152.16931216931218,33.86243386243387 152.5925925925926,34.28571428571429 153.01587301587304,34.70899470899471 153.43915343915344,35.13227513227513 153.86243386243387,35.55555555555556 154.2857142857143,35.97883597883598 154.7089947089947,36.402116402116405 155.13227513227514,37.03703703703704 155.55555555555557,37.46031746031746 155.978835978836,37.883597883597886 156.4021164021164,38.30687830687831 157.03703703703704,38.730158730158735 157.46031746031747,39.36507936507937 157.8835978835979,39.78835978835979 158.30687830687833,40.211640211640216 158.73015873015873,40.63492063492064 159.36507936507937,41.058201058201064 159.7883597883598,41.48148148148149 160.21164021164023,41.904761904761905 160.63492063492066,42.539682539682545 161.2698412698413,42.96296296296297 161.6931216931217,43.386243386243386 162.11640211640213,43.80952380952381 162.53968253968256,44.232804232804234 162.96296296296296,44.65608465608466 163.3862433862434,45.07936507936508 163.80952380952382,45.50264550264551 164.23280423280426,45.92592592592593 164.65608465608466,46.349206349206355 165.0793650793651,46.77248677248678 165.50264550264552,47.195767195767196 165.92592592592595,47.61904761904762 166.34920634920636,48.042328042328045 166.984126984127,48.46560846560847 167.40740740740742,48.88888888888889 167.83068783068785,49.31216931216932 168.25396825396825,49.73544973544974 168.67724867724868,50.158730158730165 169.31216931216932,50.58201058201058 169.73544973544975,51.00529100529101 170.15873015873018,51.42857142857143 170.58201058201058,51.851851851851855 171.005291005291,52.27513227513228 171.42857142857144,52.6984126984127 171.85185185185188,53.12169312169313 172.4867724867725,53.54497354497355 172.9100529100529,53.968253968253975 173.33333333333334,54.39153439153439 173.75661375661377,54.81481481481482 174.1798941798942,55.23809523809524 174.6031746031746,55.661375661375665 175.02645502645504,56.08465608465609 175.44973544973547,56.50793650793651 176.0846560846561,56.93121693121694 176.50793650793653,57.35449735449736 176.93121693121694,57.989417989417994 177.35449735449737,58.41269841269842 177.7777777777778,58.83597883597884 178.2010582010582,59.25925925925927 178.62433862433863,59.682539682539684 179.04761904761907,60.10582010582011 179.4708994708995,60.52910052910053 179.8941798941799,60.952380952380956 180.52910052910053,61.37566137566138 180.95238095238096,61.798941798941804 181.3756613756614,62.22222222222223 181.79894179894183,62.64550264550265 182.22222222222223,63.280423280423285 182.64550264550266,63.70370370370371 183.2804232804233,64.12698412698413 183.70370370370372,64.55026455026456 184.12698412698415,64.97354497354497 184.55026455026456,65.3968253968254 184.973544973545,65.82010582010582 185.39682539682542,66.24338624338625 185.82010582010582,66.66666666666667 186.24338624338625,67.08994708994709 186.66666666666669,67.51322751322752 187.08994708994712,67.93650793650794 187.51322751322752,68.35978835978837 187.93650793650795,68.78306878306879 188.35978835978838,69.20634920634922 188.99470899470901,69.62962962962963 189.41798941798945,70.05291005291006 189.84126984126985,70.47619047619048 190.26455026455028,70.8994708994709 190.6878306878307,71.32275132275133 191.11111111111111,71.74603174603175 191.53439153439155,72.16931216931218 194.2857142857143,74.92063492063492" style="fill:none; stroke:#999900; stroke-width:3.0" stroke-dasharray="6,3" /><polyline points="194.2857142857143,74.92063492063492 191.53439153439155,77.03703703703704 190.8994708994709,77.46031746031747 190.47619047619048,77.88359788359789 190.05291005291008,78.30687830687832 189.41798941798945,78.73015873015873 188.78306878306879,79.15343915343917 188.14814814814815,79.57671957671958 187.72486772486775,80.0 187.08994708994712,80.42328042328043 186.66666666666669,80.84656084656085 186.03174603174605,81.26984126984128 185.60846560846562,81.6931216931217 184.973544973545,82.11640211640213 184.55026455026456,82.53968253968254 183.91534391534393,82.96296296296298 183.4920634920635,83.3862433862434 182.85714285714286,83.80952380952381 182.43386243386246,84.23280423280424 182.01058201058203,84.65608465608466 181.3756613756614,84.86772486772487 180.95238095238096,85.5026455026455 180.31746031746033,85.92592592592594 179.6825396825397,86.34920634920636 179.25925925925927,86.77248677248677 178.83597883597884,87.1957671957672 178.2010582010582,87.61904761904762 177.7777777777778,88.04232804232805 177.14285714285717,88.46560846560847 176.71957671957674,88.8888888888889 176.0846560846561,89.31216931216932 175.66137566137567,89.73544973544975 175.02645502645504,90.15873015873017 174.6031746031746,90.58201058201058 173.96825396825398,91.00529100529101 173.33333333333334,91.42857142857143 172.9100529100529,91.85185185185186 172.4867724867725,92.27513227513228 172.06349206349208,92.69841269841271 171.64021164021165,93.12169312169313 171.21693121693124,93.54497354497356 170.58201058201058,93.96825396825398 170.15873015873018,94.39153439153439 169.52380952380955,94.81481481481482 169.10052910052912,95.23809523809524 168.46560846560848,95.66137566137567 168.04232804232805,96.08465608465609 167.40740740740742,96.50793650793652 166.984126984127,96.93121693121694 166.34920634920636,97.35449735449737 165.92592592592595,97.77777777777779 165.2910052910053,98.2010582010582 164.65608465608466,98.62433862433863 164.23280423280426,99.04761904761905 163.59788359788362,99.47089947089948 163.1746031746032,99.8941798941799 162.75132275132276,100.31746031746033 162.11640211640213,100.74074074074075 161.6931216931217,101.16402116402116 161.2698412698413,101.5873015873016 160.84656084656086,102.01058201058201 160.42328042328043,102.43386243386244 160.0,102.85714285714286 159.5767195767196,103.28042328042329 159.15343915343917,103.70370370370371 158.73015873015873,104.12698412698414 158.30687830687833,104.55026455026456 157.8835978835979,104.97354497354497 157.46031746031747,105.3968253968254 157.03703703703704,106.03174603174604 156.61375661375664,106.45502645502647 156.1904761904762,106.87830687830689 155.76719576719577,107.51322751322752 155.34391534391534,108.14814814814815 154.92063492063494,108.57142857142858 154.4973544973545,109.20634920634922 154.07407407407408,109.84126984126985 153.65079365079367,110.47619047619048 153.22751322751324,111.11111111111111 152.8042328042328,111.74603174603176 152.38095238095238,112.3809523809524 151.95767195767198,113.01587301587303 151.74603174603175,113.65079365079366 151.32275132275134,114.07407407407408 151.11111111111111,114.70899470899472 150.6878306878307,115.34391534391536 150.47619047619048,115.97883597883599 150.26455026455028,116.61375661375662 150.05291005291005,117.24867724867725 150.05291005291005,117.88359788359789 149.84126984126985,118.51851851851853 149.84126984126985,119.15343915343917 149.84126984126985,119.7883597883598 150.26455026455028,120.42328042328043 150.47619047619048,121.05820105820106 150.6878306878307,121.6931216931217 151.11111111111111,122.11640211640213 151.53439153439155,122.75132275132276 151.95767195767198,123.17460317460318 152.38095238095238,123.59788359788361 152.8042328042328,124.02116402116403 153.43915343915344,124.44444444444446 154.07407407407408,124.65608465608466 154.7089947089947,124.86772486772487 155.34391534391534,125.07936507936509 155.978835978836,125.2910052910053 156.61375661375664,125.2910052910053 157.24867724867727,125.5026455026455 157.8835978835979,125.5026455026455 158.51851851851853,125.5026455026455 159.15343915343917,125.5026455026455 159.7883597883598,125.5026455026455 160.42328042328043,125.2910052910053 161.05820105820106,125.2910052910053 161.6931216931217,125.07936507936509 162.32804232804233,124.86772486772487 162.96296296296296,124.65608465608466 163.59788359788362,124.44444444444446 164.23280423280426,124.23280423280424 164.8677248677249,124.02116402116403 165.50264550264552,123.80952380952382 166.13756613756615,123.59788359788361 166.7724867724868,123.17460317460318 167.40740740740742,122.96296296296298 168.04232804232805,122.75132275132276 168.67724867724868,122.53968253968254 169.31216931216932,122.11640211640213 169.94708994708995,121.90476190476191 170.58201058201058,121.6931216931217 171.005291005291,121.26984126984128 171.64021164021165,121.26984126984128 172.27513227513228,121.05820105820106 172.6984126984127,120.42328042328043 173.33333333333334,120.42328042328043 173.75661375661377,120.00000000000001 174.3915343915344,120.00000000000001 175.02645502645504,119.7883597883598 175.66137566137567,119.36507936507937 176.2962962962963,119.57671957671958 176.93121693121694,119.36507936507937 177.56613756613757,119.36507936507937 178.2010582010582,119.15343915343917 178.83597883597884,119.15343915343917 179.4708994708995,119.36507936507937 180.10582010582013,119.36507936507937 180.74074074074076,119.36507936507937 181.3756613756614,119.7883597883598 182.01058201058203,119.7883597883598 182.64550264550266,120.21164021164022 183.2804232804233,120.42328042328043 183.91534391534393,120.63492063492065 184.33862433862436,121.05820105820106 184.7619047619048,121.4814814814815 185.1851851851852,121.90476190476191 185.60846560846562,122.53968253968254 186.03174603174605,122.96296296296298 186.45502645502646,123.59788359788361 186.8783068783069,124.23280423280424 187.30158730158732,124.86772486772487 187.51322751322752,125.5026455026455 187.72486772486775,126.13756613756615 187.93650793650795,126.77248677248679 188.14814814814815,127.40740740740742 188.35978835978838,128.04232804232805 188.78306878306879,128.67724867724868 188.78306878306879,129.31216931216932 188.99470899470901,129.94708994708995 188.99470899470901,130.58201058201058 189.20634920634922,131.21693121693121 189.41798941798945,131.85185185185185 189.41798941798945,132.4867724867725 189.41798941798945,133.12169312169314 189.41798941798945,133.75661375661377 189.41798941798945,134.3915343915344 189.41798941798945,135.02645502645504 189.41798941798945,135.66137566137567 189.41798941798945,136.2962962962963 189.41798941798945,136.93121693121694 189.41798941798945,137.56613756613757 189.41798941798945,138.2010582010582 189.20634920634922,138.83597883597884 188.99470899470901,139.47089947089947 188.99470899470901,140.10582010582013 188.78306878306879,140.74074074074076 188.57142857142858,141.3756613756614 188.57142857142858,142.01058201058203 188.35978835978838,142.64550264550266 188.14814814814815,143.2804232804233 187.93650793650795,143.91534391534393 187.72486772486775,144.55026455026456 187.51322751322752,145.1851851851852 187.30158730158732,145.82010582010582 187.08994708994712,146.45502645502646 186.66666666666669,147.0899470899471 186.45502645502646,147.72486772486775 186.03174603174605,148.35978835978838 185.82010582010582,148.99470899470901 185.39682539682542,149.41798941798942 185.1851851851852,150.05291005291005 184.7619047619048,150.47619047619048 184.33862433862436,151.11111111111111 183.91534391534393,151.74603174603175 183.4920634920635,152.38095238095238 183.0687830687831,153.01587301587304 182.64550264550266,153.43915343915344 182.22222222222223,153.86243386243387 181.79894179894183,154.4973544973545 181.3756613756614,154.92063492063494 180.95238095238096,155.34391534391534 180.52910052910053,155.76719576719577 179.8941798941799,156.1904761904762 179.4708994708995,156.61375661375664 178.83597883597884,157.03703703703704 178.2010582010582,157.24867724867727 177.56613756613757,157.46031746031747 176.93121693121694,157.67195767195767 176.2962962962963,157.67195767195767 175.66137566137567,157.67195767195767 175.02645502645504,157.67195767195767 174.3915343915344,157.46031746031747 173.75661375661377,157.46031746031747 173.12169312169314,157.24867724867727 172.4867724867725,157.46031746031747 171.85185185185188,157.24867724867727 171.21693121693124,157.03703703703704 170.58201058201058,157.03703703703704 169.94708994708995,156.82539682539684 169.31216931216932,156.61375661375664 168.67724867724868,156.1904761904762 168.04232804232805,155.978835978836 167.40740740740742,155.76719576719577 166.7724867724868,155.34391534391534 166.13756613756615,155.13227513227514 165.50264550264552,154.92063492063494 164.8677248677249,154.4973544973545 164.23280423280426,154.07407407407408 163.59788359788362,153.65079365079367 162.96296296296296,153.22751322751324 162.32804232804233,152.8042328042328 161.6931216931217,152.38095238095238 161.2698412698413,151.95767195767198 160.84656084656086,151.53439153439155 160.21164021164023,151.11111111111111 159.7883597883598,150.6878306878307 159.15343915343917,150.26455026455028 158.73015873015873,149.84126984126985 158.0952380952381,149.41798941798942 157.67195767195767,148.99470899470901 157.03703703703704,148.57142857142858 156.4021164021164,148.14814814814815 155.978835978836,147.72486772486775 155.34391534391534,147.30158730158732 154.7089947089947,146.8783068783069 154.07407407407408,146.66666666666669 153.43915343915344,146.45502645502646 152.8042328042328,146.45502645502646 152.16931216931218,146.24338624338625 151.53439153439155,146.24338624338625 150.8994708994709,146.24338624338625 150.26455026455028,146.45502645502646 149.62962962962965,146.66666666666669 148.99470899470901,146.66666666666669 148.35978835978838,147.0899470899471 147.72486772486775,147.30158730158732 147.0899470899471,147.51322751322752 146.66666666666669,147.93650793650795 146.03174603174605,148.14814814814815 145.39682539682542,148.57142857142858 144.76190476190476,148.99470899470901 144.33862433862436,149.41798941798942 143.70370370370372,149.84126984126985 143.2804232804233,150.26455026455028 142.64550264550266,150.6878306878307 142.22222222222223,151.11111111111111 141.5873015873016,151.53439153439155 141.16402116402116,151.95767195767198 140.74074074074076,152.38095238095238 140.31746031746033,152.8042328042328 139.6825396825397,153.22751322751324 139.25925925925927,153.65079365079367 138.83597883597884,154.07407407407408 138.41269841269843,154.4973544973545 137.989417989418,154.92063492063494 137.56613756613757,155.34391534391534 137.35449735449737,155.978835978836 136.71957671957674,156.4021164021164 136.2962962962963,156.82539682539684 135.87301587301587,157.24867724867727 135.23809523809524,157.67195767195767 134.81481481481484,158.0952380952381 134.3915343915344,158.51851851851853 133.75661375661377,158.94179894179896 133.33333333333334,159.36507936507937 132.9100529100529,159.7883597883598 132.27513227513228,160.21164021164023 131.85185185185185,160.63492063492066 131.21693121693121,161.05820105820106 130.7936507936508,161.4814814814815 130.37037037037038,161.90476190476193 129.94708994708995,162.32804232804233 129.31216931216932,162.75132275132276 128.88888888888889,163.1746031746032 128.46560846560848,163.59788359788362 127.83068783068784,164.02116402116403 127.40740740740742,164.44444444444446 126.98412698412699,164.8677248677249 126.34920634920636,165.2910052910053 125.92592592592594,165.71428571428572 125.2910052910053,166.13756613756615 124.86772486772487,166.56084656084658 124.44444444444446,166.984126984127 124.02116402116403,167.40740740740742 123.59788359788361,167.83068783068785 122.96296296296298,168.25396825396825 122.53968253968254,168.67724867724868 122.11640211640213,169.10052910052912 121.4814814814815,169.52380952380955 121.05820105820106,169.94708994708995 120.63492063492065,170.37037037037038 120.00000000000001,170.7936507936508 119.57671957671958,171.21693121693124 119.15343915343917,171.64021164021165 118.73015873015873,172.06349206349208 118.30687830687832,172.4867724867725 117.67195767195768,172.9100529100529 117.24867724867725,173.33333333333334 116.82539682539684,173.75661375661377 116.1904761904762,174.1798941798942 115.76719576719577,174.6031746031746 115.13227513227514,175.02645502645504 114.70899470899472,175.44973544973547 112.16931216931218,177.56613756613757" style="fill:none; stroke:#00aa99; stroke-width:1.0"  /><polyline points="112.16931216931218,177.56613756613757 109.84126984126985,175.02645502645504 109.41798941798943,174.6031746031746 108.994708994709,174.1798941798942 108.57142857142858,173.54497354497354 108.14814814814815,173.12169312169314 107.72486772486774,172.6984126984127 107.3015873015873,172.06349206349208 106.87830687830689,171.64021164021165 106.45502645502647,171.21693121693124 106.03174603174604,170.7936507936508 105.60846560846562,170.15873015873018 104.97354497354497,169.73544973544975 104.55026455026456,169.10052910052912 104.12698412698414,168.67724867724868 103.70370370370371,168.25396825396825 103.28042328042329,167.61904761904762 102.85714285714286,167.19576719576722 102.22222222222223,166.7724867724868 101.79894179894181,166.34920634920636 101.37566137566138,165.92592592592595 100.95238095238096,165.50264550264552 100.52910052910053,165.0793650793651 100.10582010582011,164.65608465608466 99.68253968253968,164.23280423280426 99.25925925925927,163.80952380952382 98.83597883597885,163.1746031746032 98.41269841269842,162.75132275132276 97.989417989418,162.32804232804233 97.56613756613757,161.90476190476193 97.14285714285715,161.4814814814815 96.71957671957672,161.05820105820106 96.2962962962963,160.63492063492066 95.87301587301587,160.21164021164023 95.44973544973546,159.7883597883598 95.02645502645504,159.36507936507937 94.60317460317461,158.94179894179896 94.17989417989419,158.51851851851853 93.75661375661376,157.8835978835979 93.33333333333334,157.46031746031747 92.91005291005291,157.03703703703704 92.4867724867725,156.61375661375664 91.85185185185186,156.1904761904762 91.42857142857143,155.55555555555557 90.7936507936508,155.13227513227514 90.37037037037038,154.7089947089947 89.94708994708995,154.2857142857143 89.52380952380953,153.86243386243387 89.1005291005291,153.43915343915344 88.67724867724868,153.01587301587304 88.25396825396827,152.5925925925926 87.83068783068784,152.16931216931218 87.40740740740742,151.74603174603175 86.98412698412699,151.32275132275134 86.56084656084657,150.8994708994709 86.13756613756614,150.47619047619048 85.71428571428572,150.05291005291005 85.29100529100529,149.62962962962965 84.86772486772487,149.20634920634922 84.44444444444446,148.78306878306879 84.02116402116403,148.35978835978838 83.59788359788361,147.93650793650795 83.17460317460318,147.51322751322752 82.75132275132276,147.0899470899471 82.32804232804233,146.66666666666669 81.90476190476191,146.24338624338625 81.48148148148148,145.82010582010582 81.05820105820106,145.39682539682542 80.63492063492065,144.973544973545 80.0,144.55026455026456 79.57671957671958,144.12698412698413 78.94179894179895,143.70370370370372 78.51851851851852,143.2804232804233 77.88359788359789,142.85714285714286 77.46031746031747,142.43386243386246 76.82539682539684,142.01058201058203 76.19047619047619,141.5873015873016 75.55555555555556,141.3756613756614 74.92063492063492,140.95238095238096 74.28571428571429,140.52910052910053 73.65079365079366,140.10582010582013 73.01587301587303,139.8941798941799 72.38095238095238,139.6825396825397 71.74603174603175,139.47089947089947 71.11111111111111,139.25925925925927 70.47619047619048,138.83597883597884 69.84126984126985,138.83597883597884 69.20634920634922,138.62433862433863 68.57142857142858,138.62433862433863 67.93650793650794,138.41269841269843 67.3015873015873,138.62433862433863 66.66666666666667,138.62433862433863 66.03174603174604,138.62433862433863 65.3968253968254,138.83597883597884 64.76190476190477,138.83597883597884 64.12698412698413,139.04761904761907 63.492063492063494,139.25925925925927 62.85714285714286,139.47089947089947 62.22222222222223,139.8941798941799 61.58730158730159,140.10582010582013 60.952380952380956,140.52910052910053 60.52910052910053,140.95238095238096 59.8941798941799,141.3756613756614 59.470899470899475,141.7989417989418 59.04761904761905,142.22222222222223 58.62433862433863,142.64550264550266 58.41269841269842,143.2804232804233 57.989417989417994,143.91534391534393 57.777777777777786,144.55026455026456 57.56613756613757,145.1851851851852 57.35449735449736,145.82010582010582 57.142857142857146,146.45502645502646 57.142857142857146,147.0899470899471 57.142857142857146,147.72486772486775 56.93121693121694,148.35978835978838 56.93121693121694,148.99470899470901 56.93121693121694,149.62962962962965 56.93121693121694,150.26455026455028 56.93121693121694,150.8994708994709 56.93121693121694,151.53439153439155 56.93121693121694,152.16931216931218 56.93121693121694,152.8042328042328 57.142857142857146,153.43915343915344 57.142857142857146,154.07407407407408 57.142857142857146,154.7089947089947 57.142857142857146,155.34391534391534 57.35449735449736,155.978835978836 57.56613756613757,156.61375661375664 57.56613756613757,157.24867724867727 57.56613756613757,157.8835978835979 57.56613756613757,158.51851851851853 57.56613756613757,159.15343915343917 57.56613756613757,159.7883597883598 57.56613756613757,160.42328042328043 57.56613756613757,161.05820105820106 57.35449735449736,161.6931216931217 57.35449735449736,162.32804232804233 57.35449735449736,162.96296296296296 57.142857142857146,163.59788359788362 56.93121693121694,164.23280423280426 56.71957671957672,164.8677248677249 56.50793650793651,165.50264550264552 56.2962962962963,166.13756613756615 56.08465608465609,166.7724867724868 55.661375661375665,167.40740740740742 55.449735449735456,168.04232804232805 55.23809523809524,168.67724867724868 55.02645502645503,169.31216931216932 54.60317460317461,169.94708994708995 54.179894179894184,170.58201058201058 53.75661375661376,171.21693121693124 53.333333333333336,171.85185185185188 52.91005291005291,172.4867724867725 52.48677248677249,172.9100529100529 52.06349206349207,173.33333333333334 51.42857142857143,173.75661375661377 50.7936507936508,174.1798941798942 50.158730158730165,174.6031746031746 49.523809523809526,175.02645502645504 48.88888888888889,175.44973544973547 48.25396825396826,175.66137566137567 47.830687830687836,176.0846560846561 47.195767195767196,176.2962962962963 46.560846560846564,176.50793650793653 45.92592592592593,176.93121693121694 45.29100529100529,176.93121693121694 44.65608465608466,177.35449735449737 44.021164021164026,177.35449735449737 43.386243386243386,177.56613756613757 42.75132275132275,177.7777777777778 42.11640211640212,177.7777777777778 41.48148148148149,177.7777777777778 40.84656084656085,177.989417989418 40.211640211640216,177.7777777777778 39.57671957671958,177.989417989418 38.94179894179894,177.7777777777778 38.30687830687831,177.7777777777778 37.67195767195768,177.56613756613757 37.03703703703704,177.56613756613757 36.402116402116405,177.35449735449737 35.76719576719577,177.14285714285717 35.13227513227513,176.93121693121694 34.4973544973545,176.71957671957674 33.86243386243387,176.71957671957674 33.22751322751323,176.50793650793653 32.592592592592595,176.50793650793653 31.95767195767196,176.0846560846561 31.322751322751326,175.87301587301587 30.68783068783069,175.44973544973547 30.052910052910054,175.23809523809524 29.629629629629633,174.81481481481484 28.994708994708997,174.6031746031746 28.35978835978836,174.1798941798942 27.93650793650794,173.75661375661377 27.301587301587304,173.33333333333334 26.666666666666668,172.9100529100529 26.031746031746035,172.4867724867725 25.60846560846561,172.06349206349208 25.185185185185187,171.64021164021165 24.761904761904763,171.21693121693124 24.338624338624342,170.7936507936508 23.915343915343918,170.37037037037038 23.492063492063494,169.94708994708995 23.06878306878307,169.52380952380955 22.645502645502646,169.10052910052912 22.222222222222225,168.46560846560848 21.7989417989418,167.83068783068785 21.375661375661377,167.40740740740742 20.952380952380953,166.7724867724868 20.529100529100532,166.13756613756615 20.31746031746032,165.50264550264552 19.894179894179896,164.8677248677249 19.47089947089947,164.23280423280426 19.25925925925926,163.59788359788362 18.83597883597884,162.96296296296296 18.624338624338627,162.32804232804233 18.412698412698415,161.6931216931217 17.98941798941799,161.05820105820106 17.77777777777778,160.42328042328043 17.77777777777778,159.7883597883598 17.566137566137566,159.15343915343917 17.354497354497354,158.51851851851853 17.142857142857146,157.8835978835979 17.142857142857146,157.24867724867727 16.931216931216934,156.61375661375664 16.931216931216934,155.978835978836 16.71957671957672,155.34391534391534 16.50793650793651,154.7089947089947 16.50793650793651,154.07407407407408 16.50793650793651,153.43915343915344 16.50793650793651,152.8042328042328 16.50793650793651,152.16931216931218 16.71957671957672,151.53439153439155 16.71957671957672,150.8994708994709 16.71957671957672,150.26455026455028 16.931216931216934,149.62962962962965 16.931216931216934,148.99470899470901 17.142857142857146,148.35978835978838 17.566137566137566,147.72486772486775 17.77777777777778,147.0899470899471 17.98941798941799,146.45502645502646 18.412698412698415,145.82010582010582 18.83597883597884,145.1851851851852 19.047619047619047,144.55026455026456 19.47089947089947,144.12698412698413 19.894179894179896,143.70370370370372 20.31746031746032,143.2804232804233 20.740740740740744,142.85714285714286 21.164021164021165,142.43386243386246 21.7989417989418,142.01058201058203 22.433862433862437,141.7989417989418 22.857142857142858,141.3756613756614 23.492063492063494,141.16402116402116 24.12698412698413,140.74074074074076 24.761904761904763,140.31746031746033 25.3968253968254,140.10582010582013 26.031746031746035,139.6825396825397 26.666666666666668,139.25925925925927 27.301587301587304,139.04761904761907 27.93650793650794,138.62433862433863 28.571428571428573,138.41269841269843 29.20634920634921,137.989417989418 29.841269841269842,137.56613756613757 30.476190476190478,137.35449735449737 31.111111111111114,136.93121693121694 31.746031746031747,136.71957671957674 32.16931216931217,136.2962962962963 32.592592592592595,135.87301587301587 33.22751322751323,135.66137566137567 33.86243386243387,135.23809523809524 34.4973544973545,134.81481481481484 35.13227513227513,134.6031746031746 35.55555555555556,134.17989417989418 36.19047619047619,133.96825396825398 36.82539682539683,133.54497354497354 37.46031746031746,133.12169312169314 38.095238095238095,132.9100529100529 38.51851851851852,132.4867724867725 39.15343915343916,132.06349206349208 39.78835978835979,131.85185185185185 40.423280423280424,131.42857142857144 41.058201058201064,131.005291005291 41.6931216931217,130.58201058201058 42.32804232804233,130.15873015873018 42.96296296296297,129.73544973544975 43.5978835978836,129.31216931216932 44.021164021164026,128.88888888888889 44.44444444444445,128.46560846560848 44.867724867724874,128.04232804232805 45.29100529100529,127.61904761904763 45.714285714285715,127.1957671957672 46.13756613756614,126.77248677248679 46.560846560846564,126.13756613756615 46.98412698412699,125.5026455026455 47.195767195767196,124.86772486772487 47.61904761904762,124.23280423280424 47.830687830687836,123.59788359788361 48.042328042328045,122.96296296296298 48.25396825396826,122.32804232804234 48.46560846560847,121.6931216931217 48.677248677248684,121.05820105820106 48.677248677248684,120.42328042328043 48.677248677248684,119.7883597883598 48.88888888888889,119.15343915343917 48.88888888888889,118.51851851851853 48.88888888888889,117.88359788359789 48.88888888888889,117.24867724867725 48.677248677248684,116.61375661375662 48.677248677248684,115.97883597883599 48.46560846560847,115.34391534391536 48.042328042328045,114.70899470899472 47.830687830687836,114.07407407407408 47.40740740740741,113.43915343915344 46.98412698412699,112.80423280423281 46.560846560846564,112.16931216931218 46.13756613756614,111.74603174603176 45.714285714285715,111.11111111111111 45.29100529100529,110.6878306878307 44.867724867724874,110.26455026455027 44.44444444444445,109.84126984126985 44.021164021164026,109.41798941798943 43.5978835978836,108.994708994709 43.17460317460318,108.57142857142858 42.75132275132275,108.14814814814815 42.32804232804233,107.72486772486774 41.904761904761905,107.3015873015873 41.26984126984127,106.87830687830689 40.63492063492064,106.45502645502647 40.0,106.03174603174604 39.36507936507937,105.60846560846562 38.730158730158735,105.18518518518519 38.095238095238095,104.97354497354497 37.67195767195768,104.55026455026456 37.03703703703704,104.12698412698414 36.402116402116405,103.70370370370371 35.76719576719577,103.28042328042329 35.13227513227513,103.06878306878308 34.70899470899471,102.64550264550266 34.074074074074076,102.43386243386244 33.65079365079365,102.01058201058201 33.01587301587302,101.79894179894181 32.38095238095239,101.37566137566138 31.746031746031747,101.37566137566138 31.322751322751326,100.95238095238096 30.68783068783069,100.74074074074075 30.052910052910054,100.31746031746033 29.41798941798942,99.8941798941799 28.783068783068785,99.68253968253968 28.14814814814815,99.25925925925927 27.513227513227516,99.04761904761905 26.87830687830688,98.62433862433863 26.243386243386244,98.41269841269842 25.60846560846561,98.2010582010582 24.973544973544975,97.989417989418 24.338624338624342,97.77777777777779 23.915343915343918,97.35449735449737 23.280423280423282,97.14285714285715 22.645502645502646,96.71957671957672 22.010582010582013,96.50793650793652 21.375661375661377,96.2962962962963 20.740740740740744,95.87301587301587 20.105820105820108,95.66137566137567 19.682539682539684,95.23809523809524 19.047619047619047,95.02645502645504 18.412698412698415,94.81481481481482 17.77777777777778,94.39153439153439 17.142857142857146,94.17989417989419 16.50793650793651,93.96825396825398 15.873015873015873,93.54497354497356 15.238095238095239,93.33333333333334 14.603174603174605,93.12169312169313 14.17989417989418,92.69841269841271 13.544973544973546,92.4867724867725 12.910052910052912,92.27513227513228 12.275132275132275,91.85185185185186 11.640211640211641,91.64021164021165 11.005291005291006,91.21693121693123 10.370370370370372,91.00529100529101 9.735449735449736,90.7936507936508 9.100529100529101,90.37037037037038 8.465608465608467,90.15873015873017 7.830687830687832,89.73544973544975 7.195767195767196,89.52380952380953 6.560846560846561,89.31216931216932 5.9259259259259265,88.8888888888889 5.291005291005291,88.67724867724868 4.656084656084657,88.25396825396827 4.021164021164021,88.04232804232805 3.3862433862433865,87.83068783068784 2.7513227513227516,87.61904761904762 -0.634920634920635,86.13756613756614" style="fill:none; stroke:#3300bb; stroke-width:1.0"  /><circle cx="-0.634920634920635" cy="86.13756613756614" r="2.0" style="fill:none; stroke:#000000aa; stroke-width:0.25" /><circle cx="117.03703703703705" cy="-0.21164021164021166" r="2.0" style="fill:none; stroke:#000000aa; stroke-width:0.25" /><circle cx="194.2857142857143" cy="74.92063492063492" r="2.0" style="fill:none; stroke:#000000aa; stroke-width:0.25" /><circle cx="112.16931216931218" cy="177.56613756613757" r="2.0" style="fill:none; stroke:#000000aa; stroke-width:0.25" /><circle cx="0.21164021164021166" cy="85.71428571428572" r="2.0" style="fill:none; stroke:#ff3366aa; stroke-width:0.25" /><circle cx="117.46031746031747" cy="0.21164021164021166" r="2.0" style="fill:none; stroke:#ff3366aa; stroke-width:0.25" /><circle cx="193.65079365079367" cy="74.49735449735451" r="2.0" style="fill:none; stroke:#ff3366aa; stroke-width:0.25" /><circle cx="112.16931216931218" cy="177.14285714285717" r="2.0" style="fill:none; stroke:#ff3366aa; stroke-width:0.25" /><polyline points="9.735449735449736,78.51851851851852 9.100529100529101,78.94179894179895 8.465608465608467,79.36507936507937 7.830687830687832,79.7883597883598 7.195767195767196,80.21164021164022 6.560846560846561,80.63492063492065 5.9259259259259265,81.05820105820106 5.502645502645503,81.48148148148148 5.07936507936508,81.90476190476191 4.444444444444445,82.32804232804233 3.8095238095238098,82.75132275132276 3.3862433862433865,83.17460317460318 2.7513227513227516,83.59788359788361" style="fill:none; stroke:#001100; stroke-width:1.0" /><polyline points="10.370370370370372,91.00529100529101 9.735449735449736,90.7936507936508 9.100529100529101,90.37037037037038 8.465608465608467,90.15873015873017 7.830687830687832,89.73544973544975 7.195767195767196,89.52380952380953 6.560846560846561,89.31216931216932 5.9259259259259265,88.8888888888889 5.291005291005291,88.67724867724868 4.656084656084657,88.25396825396827 4.021164021164021,88.04232804232805 3.3862433862433865,87.83068783068784 2.7513227513227516,87.61904761904762" style="fill:none; stroke:#000011; stroke-width:1.0" /><polyline points="125.92592592592594,8.677248677248677 125.5026455026455,8.253968253968255 125.07936507936509,7.830687830687832 124.65608465608466,7.407407407407408 124.23280423280424,6.984126984126985 123.80952380952382,6.560846560846561 123.3862433862434,6.137566137566138 122.75132275132276,5.714285714285714 122.32804232804234,5.07936507936508 121.90476190476191,4.656084656084657 121.26984126984128,4.2328042328042335 120.84656084656086,3.8095238095238098 120.42328042328043,3.3862433862433865 120.00000000000001,2.7513227513227516 119.57671957671958,2.3280423280423284" style="fill:none; stroke:#001100; stroke-width:1.0" /><polyline points="108.35978835978837,7.407407407407408 108.78306878306879,6.984126984126985 109.41798941798943,6.560846560846561 109.84126984126985,6.137566137566138 110.47619047619048,5.714285714285714 111.11111111111111,5.291005291005291 111.53439153439155,4.867724867724868 111.95767195767196,4.444444444444445 112.3809523809524,4.021164021164021 112.80423280423281,3.597883597883598 113.22751322751324,3.174603174603175 113.86243386243387,2.7513227513227516 114.28571428571429,2.3280423280423284 114.70899470899472,1.9047619047619049" style="fill:none; stroke:#000011; stroke-width:1.0" /><polyline points="184.973544973545,82.11640211640213 185.60846560846562,81.6931216931217 186.03174603174605,81.26984126984128 186.66666666666669,80.84656084656085 187.08994708994712,80.42328042328043 187.72486772486775,80.0 188.14814814814815,79.57671957671958 188.78306878306879,79.15343915343917 189.41798941798945,78.73015873015873 190.05291005291008,78.30687830687832 190.47619047619048,77.88359788359789 190.8994708994709,77.46031746031747 191.53439153439155,77.03703703703704" style="fill:none; stroke:#001100; stroke-width:1.0" /><polyline points="185.39682539682542,66.24338624338625 185.82010582010582,66.66666666666667 186.24338624338625,67.08994708994709 186.66666666666669,67.51322751322752 187.08994708994712,67.93650793650794 187.51322751322752,68.35978835978837 187.93650793650795,68.78306878306879 188.35978835978838,69.20634920634922 188.99470899470901,69.62962962962963 189.41798941798945,70.05291005291006 189.84126984126985,70.47619047619048 190.26455026455028,70.8994708994709 190.6878306878307,71.32275132275133 191.11111111111111,71.74603174603175 191.53439153439155,72.16931216931218" style="fill:none; stroke:#000011; stroke-width:1.0" /><polyline points="104.12698412698414,168.67724867724868 104.55026455026456,169.10052910052912 104.97354497354497,169.73544973544975 105.60846560846562,170.15873015873018 106.03174603174604,170.7936507936508 106.45502645502647,171.21693121693124 106.87830687830689,171.64021164021165 107.3015873015873,172.06349206349208 107.72486772486774,172.6984126984127 108.14814814814815,173.12169312169314 108.57142857142858,173.54497354497354 108.994708994709,174.1798941798942 109.41798941798943,174.6031746031746 109.84126984126985,175.02645502645504" style="fill:none; stroke:#001100; stroke-width:1.0" /><polyline points="121.4814814814815,169.52380952380955 121.05820105820106,169.94708994708995 120.63492063492065,170.37037037037038 120.00000000000001,170.7936507936508 119.57671957671958,171.21693121693124 119.15343915343917,171.64021164021165 118.73015873015873,172.06349206349208 118.30687830687832,172.4867724867725 117.67195767195768,172.9100529100529 117.24867724867725,173.33333333333334 116.82539682539684,173.75661375661377 116.1904761904762,174.1798941798942 115.76719576719577,174.6031746031746 115.13227513227514,175.02645502645504 114.70899470899472,175.44973544973547" style="fill:none; stroke:#000011; stroke-width:1.0" /><polyline points="2.7513227513227516,83.59788359788361 -14.391534391534393,96.08465608465609" style="fill:none; stroke:#ffaa00; stroke-width:0.4" /><polyline points="2.7513227513227516,87.61904761904762 -16.50793650793651,78.94179894179895" style="fill:none; stroke:#aaff00; stroke-width:0.4" /><polyline points="119.57671957671958,2.3280423280423284 104.55026455026456,-12.6984126984127" style="fill:none; stroke:#ffaa00; stroke-width:0.4" /><polyline points="114.70899470899472,1.9047619047619049 130.7936507936508,-11.851851851851853" style="fill:none; stroke:#aaff00; stroke-width:0.4" /><polyline points="191.53439153439155,77.03703703703704 208.25396825396828,64.12698412698413" style="fill:none; stroke:#ffaa00; stroke-width:0.4" /><polyline points="191.53439153439155,72.16931216931218 206.7724867724868,86.77248677248677" style="fill:none; stroke:#aaff00; stroke-width:0.4" /><polyline points="109.84126984126985,175.02645502645504 124.02116402116403,190.6878306878307" style="fill:none; stroke:#ffaa00; stroke-width:0.4" /><polyline points="114.70899470899472,175.44973544973547 98.83597883597885,189.41798941798945" style="fill:none; stroke:#aaff00; stroke-width:0.4" /><circle cx="104.55026455026456" cy="96.71957671957672" r="1.0" style="fill:#444444; stroke-width:0" /><circle cx="106.87830687830689" cy="107.51322751322752" r="10.582010582010582" style="fill:#ff770022; stroke-width:0" /><circle cx="106.87830687830689" cy="107.51322751322752" r="1.0" style="fill:#ff7700; stroke-width:0" /></svg>