<?xml version="1.0" encoding="UTF-8" standalone="no"?><svg width="646.3492063492064" height="585.3968253968254" viewBox="-10 -10 235.44973544973547 215.13227513227514" xmlns="http://www.w3.org/2000/svg" xmlns:xlink="http://www.w3.org/1999/xlink"><polyline points="23.492063492063494,36.19047619047619 26.87830687830688,35.76719576719577 27.513227513227516,35.76719576719577 27.93650793650794,35.34391534391535 28.571428571428573,35.34391534391535 29.20634920634921,35.34391534391535 29.841269841269842,35.34391534391535 30.476190476190478,35.34391534391535 31.111111111111114,35.34391534391535 31.746031746031747,35.13227513227513 32.38095238095239,34.920634920634924 33.01587301587302,35.13227513227513 33.65079365079365,34.920634920634924 34.28571428571429,34.920634920634924 34.920634920634924,34.920634920634924 35.55555555555556,34.70899470899471 36.19047619047619,34.4973544973545 36.82539682539683,34.4973544973545 37.46031746031746,34.28571428571429 38.095238095238095,34.28571428571429 38.730158730158735,34.074074074074076 39.36507936507937,34.074074074074076 40.0,34.074074074074076 40.63492063492064,33.86243386243387 41.26984126984127,33.65079365079365 41.904761904761905,33.65079365079365 42.539682539682545,33.43915343915344 43.17460317460318,33.22751322751323 43.80952380952381,33.22751322751323 44.44444444444445,33.22751322751323 45.07936507936508,33.01587301587302 45.714285714285715,32.804232804232804 46.349206349206355,32.804232804232804 46.98412698412699,32.592592592592595 47.61904761904762,32.592592592592595 48.25396825396826,32.38095238095239 48.88888888888889,32.16931216931217 49.523809523809526,32.16931216931217 50.158730158730165,31.95767195767196 50.7936507936508,31.95767195767196 51.42857142857143,31.746031746031747 52.06349206349207,31.53439153439154 52.6984126984127,31.322751322751326 53.333333333333336,31.322751322751326 53.968253968253975,30.899470899470902 54.60317460317461,30.899470899470902 55.23809523809524,30.68783068783069 55.87301587301588,30.476190476190478 56.50793650793651,30.476190476190478 57.142857142857146,30.264550264550266 57.777777777777786,30.052910052910054 58.41269841269842,30.052910052910054 59.04761904761905,29.841269841269842 59.682539682539684,29.629629629629633 60.31746031746032,29.41798941798942 60.952380952380956,29.41798941798942 61.58730158730159,28.994708994708997 62.22222222222223,28.994708994708997 62.64550264550265,28.571428571428573 63.280423280423285,28.35978835978836 63.91534391534392,28.35978835978836 64.33862433862434,27.93650793650794 64.97354497354497,27.724867724867728 65.60846560846561,27.724867724867728 66.24338624338625,27.513227513227516 66.87830687830689,27.301587301587304 67.51322751322752,27.301587301587304 68.14814814814815,27.089947089947092 68.78306878306879,26.87830687830688 69.41798941798942,26.666666666666668 70.05291005291006,26.455026455026456 70.6878306878307,26.243386243386244 71.32275132275133,26.031746031746035 71.95767195767196,26.031746031746035 72.5925925925926,25.820105820105823 73.22751322751323,25.820105820105823 73.86243386243387,25.820105820105823 74.49735449735451,25.820105820105823 75.13227513227514,25.820105820105823 75.76719576719577,25.820105820105823 76.4021164021164,25.820105820105823 77.03703703703704,26.031746031746035 77.67195767195767,26.243386243386244 78.0952380952381,26.666666666666668 78.73015873015873,26.666666666666668 79.15343915343917,27.089947089947092 79.57671957671958,27.513227513227516 80.0,28.14814814814815 80.42328042328043,28.783068783068785 80.63492063492065,29.41798941798942 81.05820105820106,29.841269841269842 81.26984126984128,30.476190476190478 81.26984126984128,31.111111111111114 81.48148148148148,31.746031746031747 81.6931216931217,32.38095238095239 81.6931216931217,33.01587301587302 81.6931216931217,33.65079365079365 81.90476190476191,34.28571428571429 81.90476190476191,34.920634920634924 81.6931216931217,35.55555555555556 81.6931216931217,36.19047619047619 81.6931216931217,36.82539682539683 81.48148148148148,37.46031746031746 81.26984126984128,38.095238095238095 81.05820105820106,38.730158730158735 80.84656084656085,39.36507936507937 80.63492063492065,40.0 80.42328042328043,40.63492063492064 80.0,41.26984126984127 79.57671957671958,41.904761904761905 79.36507936507937,42.539682539682545 79.15343915343917,43.17460317460318 78.94179894179895,43.80952380952381 78.73015873015873,44.44444444444445 78.51851851851852,45.07936507936508 78.51851851851852,45.714285714285715 78.51851851851852,46.349206349206355 78.51851851851852,46.98412698412699 78.51851851851852,47.61904761904762 78.51851851851852,48.25396825396826 78.73015873015873,48.88888888888889 78.73015873015873,49.523809523809526 78.94179894179895,50.158730158730165 79.15343915343917,50.7936507936508 79.36507936507937,51.42857142857143 79.57671957671958,52.06349206349207 79.7883597883598,52.6984126984127 80.0,53.333333333333336 80.42328042328043,53.968253968253975 80.84656084656085,54.60317460317461 81.26984126984128,55.23809523809524 81.6931216931217,55.661375661375665 82.11640211640213,56.08465608465609 82.53968253968254,56.50793650793651 82.96296296296298,56.93121693121694 83.3862433862434,57.35449735449736 83.80952380952381,57.777777777777786 84.44444444444446,57.989417989417994 84.86772486772487,58.41269841269842 85.5026455026455,58.83597883597884 86.13756613756614,59.25925925925927 86.77248677248677,59.470899470899475 87.40740740740742,59.682539682539684 88.04232804232805,59.8941798941799 88.67724867724868,60.10582010582011 89.31216931216932,60.10582010582011 89.94708994708995,60.31746031746032 90.58201058201058,60.52910052910053 91.21693121693123,60.31746031746032 91.85185185185186,60.52910052910053 92.4867724867725,60.52910052910053 93.12169312169313,60.52910052910053 93.75661375661376,60.52910052910053 94.39153439153439,60.52910052910053 95.02645502645504,60.31746031746032 95.66137566137567,60.10582010582011 96.2962962962963,60.10582010582011 96.93121693121694,59.8941798941799 97.56613756613757,59.8941798941799 98.2010582010582,59.470899470899475 98.83597883597885,59.470899470899475 99.47089947089948,59.25925925925927 100.10582010582011,59.25925925925927 100.74074074074075,59.04761904761905 101.37566137566138,59.04761904761905 102.01058201058201,58.62433862433863 102.64550264550266,58.62433862433863 103.28042328042329,58.62433862433863 103.91534391534393,58.2010582010582 104.55026455026456,57.777777777777786 105.18518518518519,57.777777777777786 105.82010582010582,57.56613756613757 106.45502645502647,57.142857142857146 107.0899470899471,56.93121693121694 107.51322751322752,56.50793650793651 108.14814814814815,56.50793650793651 108.57142857142858,56.08465608465609 109.20634920634922,55.87301587301588 109.62962962962963,55.449735449735456 110.26455026455027,55.23809523809524 110.89947089947091,54.81481481481482 111.32275132275133,54.39153439153439 111.95767195767196,54.179894179894184 112.3809523809524,53.75661375661376 113.01587301587303,53.333333333333336 113.43915343915344,52.91005291005291 114.07407407407408,52.48677248677249 114.49735449735451,52.06349206349207 114.92063492063492,51.640211640211646 115.34391534391536,51.21693121693122 115.76719576719577,50.7936507936508 116.1904761904762,50.158730158730165 116.61375661375662,49.73544973544974 117.03703703703705,49.1005291005291 117.24867724867725,48.46560846560847 117.67195767195768,48.042328042328045 117.88359788359789,47.40740740740741 118.30687830687832,46.77248677248678 118.51851851851853,46.13756613756614 118.73015873015873,45.50264550264551 119.15343915343917,44.867724867724874 119.36507936507937,44.232804232804234 119.57671957671958,43.5978835978836 119.7883597883598,42.96296296296297 120.00000000000001,42.32804232804233 120.21164021164022,41.6931216931217 120.42328042328043,41.058201058201064 120.42328042328043,40.423280423280424 120.21164021164022,39.78835978835979 120.21164021164022,39.15343915343916 120.00000000000001,38.51851851851852 120.00000000000001,37.883597883597886 119.57671957671958,37.46031746031746 119.36507936507937,36.82539682539683 118.94179894179895,36.402116402116405 118.51851851851853,35.76719576719577 118.0952380952381,35.34391534391535 117.67195767195768,34.920634920634924 117.24867724867725,34.4973544973545 116.82539682539684,33.86243386243387 116.1904761904762,33.43915343915344 115.76719576719577,33.01587301587302 115.13227513227514,32.592592592592595 114.70899470899472,32.16931216931217 114.07407407407408,31.746031746031747 113.43915343915344,31.322751322751326 112.80423280423281,31.111111111111114 112.16931216931218,30.899470899470902 111.53439153439155,30.68783068783069 110.89947089947091,30.264550264550266 110.26455026455027,30.264550264550266 109.62962962962963,29.841269841269842 108.994708994709,29.841269841269842 108.35978835978837,29.629629629629633 107.72486772486774,29.41798941798942 107.0899470899471,29.20634920634921 106.45502645502647,28.783068783068785 105.82010582010582,28.35978835978836 105.3968253968254,27.93650793650794 104.97354497354497,27.301587301587304 104.55026455026456,26.87830687830688 104.33862433862434,26.243386243386244 103.91534391534393,25.820105820105823 103.70370370370371,25.185185185185187 103.4920634920635,24.55026455026455 103.28042328042329,23.915343915343918 103.06878306878308,23.280423280423282 103.06878306878308,22.645502645502646 103.06878306878308,22.010582010582013 103.06878306878308,21.375661375661377 103.28042328042329,20.740740740740744 103.28042328042329,20.105820105820108 103.4920634920635,19.47089947089947 103.91534391534393,18.83597883597884 104.33862433862434,18.412698412698415 104.76190476190477,17.98941798941799 105.18518518518519,17.566137566137566 105.60846560846562,17.142857142857146 106.03174603174604,16.71957671957672 106.66666666666667,16.296296296296298 107.3015873015873,16.084656084656086 107.72486772486774,15.661375661375663 108.35978835978837,15.449735449735451 108.994708994709,15.238095238095239 109.62962962962963,15.026455026455027 110.26455026455027,14.814814814814817 110.89947089947091,14.603174603174605 111.53439153439155,14.17989417989418 112.16931216931218,14.17989417989418 112.80423280423281,13.96825396825397 113.43915343915344,13.756613756613758 114.07407407407408,13.544973544973546 114.70899470899472,13.333333333333334 115.34391534391536,13.121693121693122 115.97883597883599,12.910052910052912 116.61375661375662,12.6984126984127 117.24867724867725,12.486772486772487 117.88359788359789,12.486772486772487 118.51851851851853,12.063492063492065 119.15343915343917,11.851851851851853 119.7883597883598,11.640211640211641 120.42328042328043,11.428571428571429 121.05820105820106,11.216931216931219 121.6931216931217,11.005291005291006 122.32804232804234,10.793650793650794 122.96296296296298,10.582010582010582 123.59788359788361,10.370370370370372 124.23280423280424,10.15873015873016 124.86772486772487,9.947089947089948 125.5026455026455,9.523809523809524 126.13756613756615,9.312169312169313 126.77248677248679,9.100529100529101 127.40740740740742,8.88888888888889 128.04232804232805,8.677248677248677 128.67724867724868,8.465608465608467 129.31216931216932,8.042328042328043 129.94708994708995,7.830687830687832 130.58201058201058,7.6190476190476195 131.21693121693121,7.407407407407408 131.85185185185185,7.407407407407408 132.4867724867725,6.984126984126985 132.9100529100529,6.560846560846561 133.54497354497354,6.34920634920635 134.17989417989418,6.137566137566138 134.81481481481484,5.9259259259259265 135.44973544973547,5.714285714285714 136.0846560846561,5.291005291005291 136.71957671957674,5.07936507936508 137.35449735449737,4.867724867724868 137.989417989418,4.656084656084657 138.62433862433863,4.2328042328042335 139.25925925925927,4.021164021164021 139.8941798941799,3.8095238095238098 140.52910052910053,3.3862433862433865 141.16402116402116,3.174603174603175 141.7989417989418,2.9629629629629632 142.43386243386246,2.7513227513227516 142.85714285714286,2.3280423280423284 143.4920634920635,2.1164021164021167 144.12698412698413,1.9047619047619049 144.55026455026456,1.4814814814814816 147.93650793650795,0.0" style="fill:none; stroke:#cc0000; stroke-width:1.0"  /><polyline points="147.93650793650795,0.0 149.20634920634922,3.174603174603175 149.41798941798942,3.8095238095238098 149.84126984126985,4.444444444444445 150.05291005291005,5.07936507936508 150.26455026455028,5.714285714285714 150.47619047619048,6.34920634920635 150.6878306878307,6.984126984126985 150.8994708994709,7.6190476190476195 151.32275132275134,8.253968253968255 151.53439153439155,8.88888888888889 151.74603174603175,9.523809523809524 151.95767195767198,10.15873015873016 152.38095238095238,10.793650793650794 152.8042328042328,11.428571428571429 153.01587301587304,12.063492063492065 153.22751322751324,12.6984126984127 153.65079365079367,13.333333333333334 154.07407407407408,13.96825396825397 154.2857142857143,14.603174603174605 154.7089947089947,15.238095238095239 154.92063492063494,15.873015873015873 155.34391534391534,16.50793650793651 155.55555555555557,17.142857142857146 155.978835978836,17.77777777777778 156.4021164021164,18.412698412698415 156.61375661375664,19.047619047619047 156.82539682539684,19.682539682539684 157.24867724867727,20.31746031746032 157.67195767195767,20.740740740740744 157.8835978835979,21.375661375661377 158.0952380952381,22.010582010582013 158.51851851851853,22.645502645502646 158.73015873015873,23.280423280423282 159.15343915343917,23.915343915343918 159.36507936507937,24.55026455026455 159.7883597883598,25.185185185185187 160.0,25.820105820105823 160.21164021164023,26.455026455026456 160.63492063492066,27.089947089947092 160.84656084656086,27.724867724867728 161.05820105820106,28.35978835978836 161.4814814814815,28.994708994708997 161.6931216931217,29.629629629629633 161.90476190476193,30.264550264550266 162.11640211640213,30.899470899470902 162.32804232804233,31.53439153439154 162.75132275132276,32.16931216931217 162.96296296296296,32.804232804232804 163.1746031746032,33.43915343915344 163.3862433862434,34.074074074074076 163.59788359788362,34.70899470899471 164.02116402116403,35.34391534391535 164.02116402116403,35.97883597883598 164.44444444444446,36.613756613756614 164.65608465608466,37.248677248677254 164.65608465608466,37.883597883597886 165.0793650793651,38.51851851851852 165.0793650793651,39.15343915343916 165.2910052910053,39.78835978835979 165.71428571428572,40.423280423280424 165.71428571428572,41.058201058201064 166.13756613756615,41.6931216931217 166.13756613756615,42.32804232804233 166.34920634920636,42.96296296296297 166.56084656084658,43.5978835978836 166.7724867724868,44.232804232804234 166.7724867724868,44.867724867724874 166.984126984127,45.50264550264551 167.19576719576722,46.13756613756614 167.40740740740742,46.77248677248678 167.61904761904762,47.40740740740741 167.83068783068785,48.042328042328045 167.83068783068785,48.677248677248684 168.04232804232805,49.31216931216932 168.25396825396825,49.94708994708995 168.46560846560848,50.58201058201058 168.46560846560848,51.21693121693122 168.67724867724868,51.851851851851855 168.8888888888889,52.48677248677249 169.10052910052912,53.12169312169313 169.31216931216932,53.75661375661376 169.52380952380955,54.39153439153439 169.52380952380955,55.02645502645503 169.94708994708995,55.449735449735456 170.15873015873018,56.08465608465609 170.37037037037038,56.71957671957672 170.7936507936508,57.35449735449736 171.005291005291,57.989417989417994 171.42857142857144,58.41269841269842 171.85185185185188,59.04761904761905 172.27513227513228,59.682539682539684 172.9100529100529,60.10582010582011 173.54497354497354,60.52910052910053 174.1798941798942,60.952380952380956 174.81481481481484,61.16402116402117 175.44973544973547,61.16402116402117 176.0846560846561,61.37566137566138 176.71957671957674,61.37566137566138 177.35449735449737,61.37566137566138 177.989417989418,61.16402116402117 178.62433862433863,60.952380952380956 179.25925925925927,60.952380952380956 179.8941798941799,60.52910052910053 180.52910052910053,60.31746031746032 180.95238095238096,59.8941798941799 181.5873015873016,59.682539682539684 182.01058201058203,59.25925925925927 182.64550264550266,58.83597883597884 183.0687830687831,58.41269841269842 183.4920634920635,57.989417989417994 183.91534391534393,57.35449735449736 184.33862433862436,56.93121693121694 184.7619047619048,56.50793650793651 185.1851851851852,55.87301587301588 185.39682539682542,55.23809523809524 185.82010582010582,54.60317460317461 186.24338624338625,53.968253968253975 186.66666666666669,53.333333333333336 187.08994708994712,52.6984126984127 187.30158730158732,52.06349206349207 187.72486772486775,51.640211640211646 188.14814814814815,51.00529100529101 188.57142857142858,50.370370370370374 188.99470899470901,49.73544973544974 189.41798941798945,49.1005291005291 189.84126984126985,48.46560846560847 190.26455026455028,47.830687830687836 190.6878306878307,47.40740740740741 191.11111111111111,46.77248677248678 191.53439153439155,46.349206349206355 191.95767195767198,45.92592592592593 192.5925925925926,45.50264550264551 193.22751322751324,45.07936507936508 193.86243386243387,44.65608465608466 194.2857142857143,44.232804232804234 194.92063492063494,44.021164021164026 195.34391534391537,43.5978835978836 195.978835978836,43.386243386243386 196.61375661375664,43.17460317460318 197.24867724867727,42.96296296296297 197.8835978835979,42.96296296296297 198.30687830687833,42.539682539682545 199.36507936507937,42.539682539682545 200.00000000000003,42.75132275132275 200.63492063492066,42.75132275132275 201.2698412698413,42.75132275132275 201.90476190476193,42.96296296296297 202.32804232804233,43.386243386243386 202.962962962963,43.17460317460318 203.3862433862434,43.5978835978836 204.02116402116403,43.80952380952381 204.65608465608466,44.021164021164026 205.0793650793651,44.44444444444445 205.71428571428572,44.867724867724874 206.34920634920636,45.29100529100529 206.984126984127,45.714285714285715 207.40740740740742,46.13756613756614 207.83068783068785,46.560846560846564 208.25396825396828,46.98412698412699 208.67724867724868,47.40740740740741 209.10052910052912,47.830687830687836 209.52380952380955,48.25396825396826 209.94708994708995,48.88888888888889 210.37037037037038,49.31216931216932 210.7936507936508,49.94708994708995 211.005291005291,50.58201058201058 211.42857142857144,51.00529100529101 211.64021164021165,51.640211640211646 212.06349206349208,52.27513227513228 212.27513227513228,52.91005291005291 212.4867724867725,53.54497354497355 212.6984126984127,54.179894179894184 212.91005291005294,54.81481481481482 213.33333333333334,55.23809523809524 213.54497354497357,55.87301587301588 213.75661375661377,56.50793650793651 213.96825396825398,57.142857142857146 214.1798941798942,57.777777777777786 214.3915343915344,58.41269841269842 214.3915343915344,59.04761904761905 214.6031746031746,59.682539682539684 214.81481481481484,60.31746031746032 214.81481481481484,60.952380952380956 214.81481481481484,61.58730158730159 214.81481481481484,62.22222222222223 215.02645502645504,62.85714285714286 215.02645502645504,63.492063492063494 215.02645502645504,64.12698412698413 215.02645502645504,64.76190476190477 215.02645502645504,65.3968253968254 215.02645502645504,66.03174603174604 215.02645502645504,66.66666666666667 214.81481481481484,67.3015873015873 214.81481481481484,67.93650793650794 214.6031746031746,68.57142857142858 214.1798941798942,69.20634920634922 213.96825396825398,69.84126984126985 213.54497354497357,70.26455026455027 213.12169312169314,70.6878306878307 212.6984126984127,71.11111111111111 212.06349206349208,71.53439153439155 211.42857142857144,71.95767195767196 210.7936507936508,72.16931216931218 210.15873015873018,72.5925925925926 209.52380952380955,72.80423280423281 208.8888888888889,73.01587301587303 208.25396825396828,73.22751322751323 207.61904761904765,73.43915343915344 206.984126984127,73.65079365079366 206.34920634920636,73.86243386243387 205.71428571428572,74.07407407407408 205.0793650793651,74.28571428571429 204.44444444444446,74.49735449735451 203.80952380952382,74.70899470899471 203.1746031746032,74.70899470899471 202.53968253968256,75.13227513227514 201.90476190476193,75.34391534391536 201.2698412698413,75.34391534391536 200.63492063492066,75.55555555555556 200.00000000000003,75.76719576719577 199.36507936507937,75.76719576719577 198.73015873015873,75.97883597883599 198.0952380952381,75.97883597883599 197.46031746031747,76.19047619047619 196.82539682539684,76.19047619047619 196.1904761904762,76.19047619047619 195.55555555555557,76.4021164021164 194.92063492063494,76.4021164021164 194.2857142857143,76.61375661375662 193.65079365079367,76.61375661375662 193.01587301587304,76.61375661375662 192.3809523809524,76.82539682539684 191.74603174603175,76.82539682539684 191.11111111111111,77.03703703703704 190.47619047619048,77.24867724867725 189.84126984126985,77.46031746031747 189.20634920634922,77.67195767195767 188.57142857142858,77.88359788359789 187.93650793650795,78.30687830687832 187.51322751322752,78.73015873015873 187.08994708994712,79.15343915343917 186.66666666666669,79.57671957671958 186.24338624338625,80.21164021164022 186.03174603174605,80.84656084656085 185.60846560846562,81.48148148148148 185.60846560846562,82.11640211640213 185.39682539682542,82.75132275132276 185.39682539682542,83.3862433862434 185.39682539682542,84.02116402116403 185.39682539682542,84.65608465608466 185.39682539682542,85.29100529100529 185.60846560846562,85.92592592592594 185.60846560846562,86.56084656084657 185.82010582010582,87.1957671957672 186.03174603174605,87.83068783068784 186.45502645502646,88.46560846560847 186.66666666666669,89.1005291005291 187.08994708994712,89.73544973544975 187.51322751322752,90.37037037037038 187.93650793650795,90.7936507936508 188.35978835978838,91.42857142857143 188.57142857142858,92.06349206349208 188.78306878306879,92.69841269841271 189.20634920634922,93.33333333333334 189.41798941798945,93.96825396825398 189.62962962962965,94.60317460317461 189.84126984126985,95.23809523809524 190.05291005291008,95.87301587301587 190.26455026455028,96.50793650793652 190.47619047619048,97.14285714285715 190.6878306878307,97.77777777777779 190.8994708994709,98.41269841269842 191.11111111111111,99.04761904761905 191.32275132275134,99.68253968253968 191.53439153439155,100.31746031746033 191.53439153439155,100.95238095238096 191.74603174603175,101.5873015873016 191.95767195767198,102.22222222222223 192.16931216931218,102.85714285714286 192.16931216931218,103.4920634920635 192.5925925925926,103.91534391534393 192.5925925925926,104.55026455026456 192.8042328042328,105.18518518518519 193.01587301587304,105.82010582010582 193.22751322751324,106.45502645502647 193.43915343915344,107.0899470899471 193.43915343915344,107.72486772486774 193.65079365079367,108.35978835978837 193.86243386243387,108.994708994709 194.07407407407408,109.62962962962963 194.2857142857143,110.26455026455027 194.4973544973545,110.89947089947091 194.70899470899474,111.53439153439155 194.70899470899474,112.16931216931218 194.92063492063494,112.80423280423281 195.13227513227514,113.43915343915344 195.34391534391537,114.07407407407408 195.55555555555557,114.70899470899472 195.55555555555557,115.34391534391536 195.76719576719577,115.97883597883599 195.978835978836,116.61375661375662 196.1904761904762,117.24867724867725 196.4021164021164,117.88359788359789 196.61375661375664,118.51851851851853 196.61375661375664,119.15343915343917 196.82539682539684,119.7883597883598 197.03703703703704,120.42328042328043 197.24867724867727,121.05820105820106 197.24867724867727,121.6931216931217 197.46031746031747,122.32804232804234 197.6719576719577,122.96296296296298 197.8835978835979,123.59788359788361 198.0952380952381,124.23280423280424 198.30687830687833,124.86772486772487 198.73015873015873,125.5026455026455 198.73015873015873,126.13756613756615 198.94179894179896,126.77248677248679 199.36507936507937,127.40740740740742 199.36507936507937,128.04232804232805 199.5767195767196,128.67724867724868 200.42328042328043,131.85185185185185" style="fill:none; stroke:#999900; stroke-width:1.0"  /><polyline points="200.42328042328043,131.85185185185185 197.03703703703704,133.33333333333334 196.4021164021164,133.75661375661377 195.76719576719577,133.96825396825398 195.13227513227514,134.17989417989418 194.4973544973545,134.6031746031746 193.86243386243387,134.81481481481484 193.22751322751324,135.23809523809524 192.5925925925926,135.44973544973547 191.95767195767198,135.66137566137567 191.32275132275134,136.0846560846561 190.6878306878307,136.2962962962963 190.05291005291008,136.5079365079365 189.41798941798945,136.71957671957674 188.78306878306879,137.14285714285717 188.14814814814815,137.35449735449737 187.51322751322752,137.56613756613757 186.8783068783069,137.989417989418 186.24338624338625,138.2010582010582 185.60846560846562,138.41269841269843 184.973544973545,138.62433862433863 184.33862433862436,139.04761904761907 183.70370370370372,139.25925925925927 183.0687830687831,139.47089947089947 182.43386243386246,139.6825396825397 181.79894179894183,139.8941798941799 181.16402116402116,140.31746031746033 180.52910052910053,140.52910052910053 179.8941798941799,140.74074074074076 179.25925925925927,140.95238095238096 178.62433862433863,141.16402116402116 177.989417989418,141.3756613756614 177.35449735449737,141.7989417989418 176.71957671957674,142.01058201058203 176.0846560846561,142.22222222222223 175.44973544973547,142.43386243386246 174.81481481481484,142.64550264550266 174.1798941798942,142.85714285714286 173.54497354497354,143.2804232804233 172.9100529100529,143.4920634920635 172.27513227513228,143.70370370370372 171.64021164021165,143.91534391534393 171.005291005291,144.33862433862436 170.37037037037038,144.55026455026456 169.73544973544975,144.76190476190476 169.10052910052912,145.1851851851852 168.46560846560848,145.60846560846562 167.83068783068785,146.03174603174605 167.40740740740742,146.45502645502646 166.984126984127,146.8783068783069 166.56084656084658,147.30158730158732 166.13756613756615,147.72486772486775 165.71428571428572,148.14814814814815 165.2910052910053,148.78306878306879 165.0793650793651,149.41798941798942 164.8677248677249,150.05291005291005 164.44444444444446,150.6878306878307 164.44444444444446,151.32275132275134 164.02116402116403,151.95767195767198 164.02116402116403,152.5925925925926 164.02116402116403,153.22751322751324 164.02116402116403,153.86243386243387 164.02116402116403,154.4973544973545 164.02116402116403,155.13227513227514 164.02116402116403,155.76719576719577 164.23280423280426,156.4021164021164 164.44444444444446,157.03703703703704 164.65608465608466,157.67195767195767 165.0793650793651,158.30687830687833 165.50264550264552,158.94179894179896 165.92592592592595,159.5767195767196 166.34920634920636,160.0 166.7724867724868,160.42328042328043 167.40740740740742,160.84656084656086 167.83068783068785,161.2698412698413 168.46560846560848,161.6931216931217 168.8888888888889,162.11640211640213 169.31216931216932,162.53968253968256 169.73544973544975,162.96296296296296 170.15873015873018,163.3862433862434 170.58201058201058,164.02116402116403 171.005291005291,164.44444444444446 171.21693121693124,165.0793650793651 171.64021164021165,165.50264550264552 172.06349206349208,165.92592592592595 172.4867724867725,166.56084656084658 172.6984126984127,167.19576719576722 173.12169312169314,167.83068783068785 173.54497354497354,168.46560846560848 173.75661375661377,169.10052910052912 174.1798941798942,169.73544973544975 174.3915343915344,170.37037037037038 174.81481481481484,170.7936507936508 175.02645502645504,171.42857142857144 175.23809523809524,172.06349206349208 175.44973544973547,172.6984126984127 175.66137566137567,173.33333333333334 175.87301587301587,173.96825396825398 176.0846560846561,174.6031746031746 176.2962962962963,175.23809523809524 176.2962962962963,175.87301587301587 176.50793650793653,176.50793650793653 176.50793650793653,177.14285714285717 176.71957671957674,177.7777777777778 176.71957671957674,178.41269841269843 176.71957671957674,179.04761904761907 176.71957671957674,179.6825396825397 176.71957671957674,180.31746031746033 176.50793650793653,180.95238095238096 176.50793650793653,181.5873015873016 176.2962962962963,182.22222222222223 176.0846560846561,182.85714285714286 175.87301587301587,183.4920634920635 175.66137566137567,184.12698412698415 175.23809523809524,184.7619047619048 174.81481481481484,185.39682539682542 174.6031746031746,186.03174603174605 174.1798941798942,186.45502645502646 173.75661375661377,186.8783068783069 173.33333333333334,187.51322751322752 172.9100529100529,187.93650793650795 172.4867724867725,188.35978835978838 172.06349206349208,188.78306878306879 171.64021164021165,189.20634920634922 171.21693121693124,189.62962962962965 170.7936507936508,190.05291005291008 170.15873015873018,190.47619047619048 169.73544973544975,190.8994708994709 169.10052910052912,191.32275132275134 168.46560846560848,191.53439153439155 167.83068783068785,191.95767195767198 167.19576719576722,192.3809523809524 166.56084656084658,192.5925925925926 165.92592592592595,193.01587301587304 165.2910052910053,193.22751322751324 164.65608465608466,193.43915343915344 164.02116402116403,193.65079365079367 163.3862433862434,193.86243386243387 162.75132275132276,194.07407407407408 162.11640211640213,194.2857142857143 161.4814814814815,194.2857142857143 160.84656084656086,194.4973544973545 160.21164021164023,194.4973544973545 159.5767195767196,194.70899470899474 158.94179894179896,194.70899470899474 158.30687830687833,194.70899470899474 157.67195767195767,194.70899470899474 157.03703703703704,194.70899470899474 156.4021164021164,194.4973544973545 155.76719576719577,194.2857142857143 155.13227513227514,194.2857142857143 154.4973544973545,194.07407407407408 153.86243386243387,193.65079365079367 153.22751322751324,193.43915343915344 152.5925925925926,193.01587301587304 151.95767195767198,192.8042328042328 151.32275132275134,192.3809523809524 150.6878306878307,191.95767195767198 150.05291005291005,191.53439153439155 149.41798941798942,191.11111111111111 148.99470899470901,190.6878306878307 148.57142857142858,190.26455026455028 148.14814814814815,189.84126984126985 147.72486772486775,189.41798941798945 147.30158730158732,188.99470899470901 146.8783068783069,188.57142857142858 146.45502645502646,188.14814814814815 146.03174603174605,187.72486772486775 145.60846560846562,187.08994708994712 145.1851851851852,186.45502645502646 144.76190476190476,185.82010582010582 144.55026455026456,185.1851851851852 144.12698412698413,184.7619047619048 143.91534391534393,184.12698412698415 143.70370370370372,183.4920634920635 143.2804232804233,182.85714285714286 143.0687830687831,182.22222222222223 142.85714285714286,181.5873015873016 142.64550264550266,180.95238095238096 142.43386243386246,180.31746031746033 142.22222222222223,179.6825396825397 142.01058201058203,179.04761904761907 141.7989417989418,178.41269841269843 141.7989417989418,177.7777777777778 141.5873015873016,177.14285714285717 141.5873015873016,176.50793650793653 141.5873015873016,175.87301587301587 141.5873015873016,175.23809523809524 141.7989417989418,174.6031746031746 141.7989417989418,173.96825396825398 142.01058201058203,173.33333333333334 142.22222222222223,172.6984126984127 142.22222222222223,172.06349206349208 142.43386243386246,171.42857142857144 142.43386243386246,170.7936507936508 142.43386243386246,170.15873015873018 142.64550264550266,169.52380952380955 142.64550264550266,168.8888888888889 142.64550264550266,168.25396825396825 142.64550264550266,167.61904761904762 142.43386243386246,166.984126984127 142.43386243386246,166.34920634920636 142.22222222222223,165.71428571428572 141.7989417989418,165.0793650793651 141.5873015873016,164.44444444444446 141.3756613756614,163.80952380952382 140.95238095238096,163.1746031746032 140.52910052910053,162.53968253968256 140.10582010582013,162.11640211640213 139.47089947089947,161.6931216931217 139.04761904761907,161.2698412698413 138.62433862433863,160.84656084656086 137.989417989418,160.63492063492066 137.35449735449737,160.21164021164023 136.71957671957674,160.21164021164023 136.0846560846561,160.0 135.44973544973547,160.0 134.81481481481484,160.0 134.17989417989418,160.0 133.54497354497354,160.21164021164023 132.9100529100529,160.42328042328043 132.27513227513228,160.84656084656086 131.64021164021165,161.05820105820106 131.005291005291,161.4814814814815 130.37037037037038,161.6931216931217 129.73544973544975,162.11640211640213 129.10052910052912,162.32804232804233 128.67724867724868,162.75132275132276 128.04232804232805,162.96296296296296 127.40740740740742,163.3862433862434 126.77248677248679,163.59788359788362 126.13756613756615,164.02116402116403 125.5026455026455,164.23280423280426 124.86772486772487,164.65608465608466 124.23280423280424,164.8677248677249 123.59788359788361,165.0793650793651 123.17460317460318,165.50264550264552 122.53968253968254,165.71428571428572 121.90476190476191,165.92592592592595 121.26984126984128,166.34920634920636 120.63492063492065,166.56084656084658 120.00000000000001,166.984126984127 119.36507936507937,167.19576719576722 118.73015873015873,167.61904761904762 118.0952380952381,167.83068783068785 117.46031746031747,168.04232804232805 116.82539682539684,168.25396825396825 116.1904761904762,168.67724867724868 115.55555555555557,168.8888888888889 114.92063492063492,169.10052910052912 114.28571428571429,169.52380952380955 113.65079365079366,169.73544973544975 113.01587301587303,169.73544973544975 112.3809523809524,169.94708994708995 111.74603174603176,170.15873015873018 111.11111111111111,170.37037037037038 110.47619047619048,170.7936507936508 109.84126984126985,171.005291005291 109.20634920634922,171.21693121693124 108.57142857142858,171.42857142857144 107.93650793650795,171.85185185185188 107.3015873015873,172.06349206349208 106.66666666666667,172.27513227513228 106.03174603174604,172.4867724867725 105.3968253968254,172.6984126984127 104.76190476190477,172.9100529100529 104.12698412698414,173.33333333333334 103.4920634920635,173.54497354497354 102.85714285714286,173.75661375661377 102.22222222222223,173.96825396825398 101.5873015873016,174.1798941798942 100.95238095238096,174.3915343915344 100.31746031746033,174.6031746031746 99.68253968253968,174.81481481481484 99.04761904761905,175.02645502645504 98.41269841269842,175.23809523809524 97.989417989418,175.66137566137567 97.35449735449737,175.87301587301587 96.71957671957672,176.0846560846561 96.08465608465609,176.2962962962963 95.44973544973546,176.50793650793653 94.81481481481482,176.71957671957674 94.17989417989419,176.93121693121694 93.54497354497356,177.14285714285717 92.91005291005291,177.35449735449737 92.27513227513228,177.56613756613757 91.64021164021165,177.7777777777778 91.00529100529101,177.989417989418 90.37037037037038,178.2010582010582 89.73544973544975,178.41269841269843 89.1005291005291,178.62433862433863 88.46560846560847,178.83597883597884 87.83068783068784,179.04761904761907 87.1957671957672,179.25925925925927 86.56084656084657,179.25925925925927 85.92592592592594,179.4708994708995 85.29100529100529,179.6825396825397 84.65608465608466,179.8941798941799 84.02116402116403,180.10582010582013 83.3862433862434,180.31746031746033 82.75132275132276,180.52910052910053 82.11640211640213,180.74074074074076 81.48148148148148,180.95238095238096 80.84656084656085,180.95238095238096 80.21164021164022,181.16402116402116 79.57671957671958,181.3756613756614 78.94179894179895,181.5873015873016 78.30687830687832,181.79894179894183 77.67195767195767,182.01058201058203 77.03703703703704,182.22222222222223 76.4021164021164,182.22222222222223 75.76719576719577,182.43386243386246 75.13227513227514,182.64550264550266 74.49735449735451,182.64550264550266 73.86243386243387,182.85714285714286 73.22751322751323,183.0687830687831 72.5925925925926,183.2804232804233 71.95767195767196,183.2804232804233 71.32275132275133,183.4920634920635 70.6878306878307,183.70370370370372 70.05291005291006,183.70370370370372 69.41798941798942,183.91534391534393 68.78306878306879,184.12698412698415 68.14814814814815,184.12698412698415 67.51322751322752,184.33862433862436 66.87830687830689,184.33862433862436 66.24338624338625,184.55026455026456 65.60846560846561,184.7619047619048 64.97354497354497,184.7619047619048 64.33862433862434,184.973544973545 63.70370370370371,184.973544973545 63.06878306878308,185.1851851851852 62.64550264550265,185.60846560846562 62.01058201058201,185.60846560846562 61.37566137566138,185.82010582010582 60.74074074074075,186.03174603174605 60.10582010582011,186.24338624338625 59.470899470899475,186.45502645502646 58.83597883597884,186.66666666666669 58.2010582010582,186.8783068783069 57.56613756613757,187.08994708994712 56.93121693121694,187.30158730158732 56.2962962962963,187.51322751322752 55.661375661375665,187.72486772486775 55.02645502645503,187.93650793650795 54.39153439153439,188.14814814814815 53.75661375661376,188.35978835978838 53.12169312169313,188.57142857142858 52.48677248677249,188.78306878306879 51.851851851851855,189.20634920634922 51.21693121693122,189.41798941798945 50.58201058201058,189.84126984126985 49.94708994708995,190.05291005291008 49.31216931216932,190.47619047619048 45.92592592592593,191.95767195767198" style="fill:none; stroke:#00aa99; stroke-width:1.0"  /><polyline points="45.92592592592593,191.95767195767198 46.13756613756614,188.57142857142858 46.13756613756614,187.93650793650795 46.349206349206355,187.30158730158732 46.349206349206355,186.66666666666669 46.349206349206355,186.03174603174605 46.349206349206355,185.39682539682542 46.560846560846564,184.7619047619048 46.560846560846564,184.12698412698415 46.560846560846564,183.4920634920635 46.560846560846564,182.85714285714286 46.349206349206355,182.22222222222223 46.560846560846564,181.5873015873016 46.560846560846564,180.95238095238096 46.560846560846564,180.31746031746033 46.560846560846564,179.6825396825397 46.349206349206355,179.04761904761907 46.349206349206355,178.41269841269843 46.349206349206355,177.7777777777778 46.349206349206355,177.14285714285717 46.349206349206355,176.50793650793653 46.349206349206355,175.87301587301587 46.349206349206355,175.23809523809524 46.13756613756614,174.6031746031746 46.13756613756614,173.96825396825398 46.13756613756614,173.33333333333334 46.13756613756614,172.6984126984127 46.13756613756614,172.06349206349208 46.13756613756614,171.42857142857144 46.13756613756614,170.7936507936508 46.13756613756614,170.15873015873018 46.13756613756614,169.52380952380955 45.92592592592593,168.8888888888889 45.92592592592593,168.25396825396825 45.92592592592593,167.61904761904762 45.92592592592593,166.984126984127 45.92592592592593,166.34920634920636 45.714285714285715,165.71428571428572 45.714285714285715,165.0793650793651 45.714285714285715,164.44444444444446 45.714285714285715,163.80952380952382 45.714285714285715,163.1746031746032 45.50264550264551,162.53968253968256 45.50264550264551,161.90476190476193 45.50264550264551,161.2698412698413 45.50264550264551,160.63492063492066 45.07936507936508,160.0 45.07936507936508,159.36507936507937 45.07936507936508,158.73015873015873 45.07936507936508,158.0952380952381 45.07936507936508,157.46031746031747 45.07936507936508,156.82539682539684 44.867724867724874,156.1904761904762 44.867724867724874,155.55555555555557 44.867724867724874,154.92063492063494 44.867724867724874,154.2857142857143 44.867724867724874,153.65079365079367 44.65608465608466,153.01587301587304 44.65608465608466,152.38095238095238 44.65608465608466,151.74603174603175 44.65608465608466,151.11111111111111 44.65608465608466,150.47619047619048 44.44444444444445,149.84126984126985 44.44444444444445,149.20634920634922 44.44444444444445,148.57142857142858 44.44444444444445,147.93650793650795 44.232804232804234,147.30158730158732 44.232804232804234,146.66666666666669 44.232804232804234,146.03174603174605 44.232804232804234,145.39682539682542 44.021164021164026,144.76190476190476 44.021164021164026,144.12698412698413 44.021164021164026,143.4920634920635 44.021164021164026,142.85714285714286 44.021164021164026,142.22222222222223 43.80952380952381,141.5873015873016 43.80952380952381,140.95238095238096 43.80952380952381,140.31746031746033 43.80952380952381,139.6825396825397 43.80952380952381,139.04761904761907 43.80952380952381,138.41269841269843 43.5978835978836,137.7777777777778 43.5978835978836,137.14285714285717 43.5978835978836,136.5079365079365 43.386243386243386,135.87301587301587 43.386243386243386,135.23809523809524 43.386243386243386,134.6031746031746 43.386243386243386,133.96825396825398 43.17460317460318,133.33333333333334 43.17460317460318,132.6984126984127 43.17460317460318,132.06349206349208 43.17460317460318,131.42857142857144 42.96296296296297,130.7936507936508 42.75132275132275,130.15873015873018 42.75132275132275,129.52380952380955 42.539682539682545,128.88888888888889 42.32804232804233,128.25396825396825 42.11640211640212,127.61904761904763 41.904761904761905,126.98412698412699 41.6931216931217,126.34920634920636 41.26984126984127,125.71428571428572 40.84656084656085,125.2910052910053 40.63492063492064,124.65608465608466 40.211640211640216,124.02116402116403 39.78835978835979,123.3862433862434 39.36507936507937,122.75132275132276 38.94179894179894,122.32804232804234 38.51851851851852,121.90476190476191 37.883597883597886,121.4814814814815 37.46031746031746,121.05820105820106 36.82539682539683,120.63492063492065 36.19047619047619,120.42328042328043 35.55555555555556,120.21164021164022 34.920634920634924,120.00000000000001 34.28571428571429,119.7883597883598 33.65079365079365,119.7883597883598 33.01587301587302,119.7883597883598 32.38095238095239,119.7883597883598 31.746031746031747,120.00000000000001 31.111111111111114,120.00000000000001 30.476190476190478,120.21164021164022 29.841269841269842,120.42328042328043 29.20634920634921,120.63492063492065 28.571428571428573,121.05820105820106 27.93650793650794,121.26984126984128 27.513227513227516,121.6931216931217 26.87830687830688,121.90476190476191 26.243386243386244,122.11640211640213 25.60846560846561,122.53968253968254 24.973544973544975,122.75132275132276 24.338624338624342,123.17460317460318 23.703703703703706,123.59788359788361 23.06878306878307,124.02116402116403 22.433862433862437,124.23280423280424 21.7989417989418,124.65608465608466 21.164021164021165,125.07936507936509 20.529100529100532,125.5026455026455 19.894179894179896,125.71428571428572 19.25925925925926,126.13756613756615 18.624338624338627,126.34920634920636 17.98941798941799,126.77248677248679 17.354497354497354,126.98412698412699 16.71957671957672,127.1957671957672 16.084656084656086,127.40740740740742 15.449735449735451,127.40740740740742 14.814814814814817,127.61904761904763 14.17989417989418,127.83068783068784 13.544973544973546,127.83068783068784 12.910052910052912,127.83068783068784 12.275132275132275,127.83068783068784 11.640211640211641,127.83068783068784 11.005291005291006,127.83068783068784 10.370370370370372,127.83068783068784 9.735449735449736,127.83068783068784 9.100529100529101,127.83068783068784 8.465608465608467,127.61904761904763 7.830687830687832,127.40740740740742 7.195767195767196,127.1957671957672 6.772486772486773,126.77248677248679 6.137566137566138,126.34920634920636 5.714285714285714,125.92592592592594 5.07936507936508,125.5026455026455 4.656084656084657,125.07936507936509 4.2328042328042335,124.44444444444446 3.8095238095238098,123.80952380952382 3.3862433862433865,123.17460317460318 3.174603174603175,122.53968253968254 2.7513227513227516,121.90476190476191 2.53968253968254,121.26984126984128 2.1164021164021167,120.63492063492065 1.9047619047619049,120.00000000000001 1.6931216931216932,119.36507936507937 1.4814814814814816,118.73015873015873 1.26984126984127,118.0952380952381 1.0582010582010584,117.46031746031747 1.0582010582010584,116.82539682539684 0.8465608465608466,116.1904761904762 0.8465608465608466,115.55555555555557 0.634920634920635,114.92063492063492 0.634920634920635,114.28571428571429 0.4232804232804233,113.65079365079366 0.4232804232804233,113.01587301587303 0.21164021164021166,112.3809523809524 0.21164021164021166,111.74603174603176 0.21164021164021166,111.11111111111111 0.21164021164021166,110.47619047619048 0.21164021164021166,109.84126984126985 0.21164021164021166,109.20634920634922 0.4232804232804233,108.57142857142858 0.4232804232804233,107.93650793650795 0.4232804232804233,107.3015873015873 0.4232804232804233,106.66666666666667 0.634920634920635,106.03174603174604 0.634920634920635,105.3968253968254 0.8465608465608466,104.76190476190477 0.8465608465608466,104.12698412698414 1.0582010582010584,103.4920634920635 1.26984126984127,102.85714285714286 1.4814814814814816,102.22222222222223 1.6931216931216932,101.5873015873016 1.9047619047619049,100.95238095238096 2.1164021164021167,100.31746031746033 2.53968253968254,99.68253968253968 2.7513227513227516,99.04761904761905 3.174603174603175,98.62433862433863 3.597883597883598,97.989417989418 4.021164021164021,97.56613756613757 4.444444444444445,96.93121693121694 4.867724867724868,96.50793650793652 5.291005291005291,96.08465608465609 5.714285714285714,95.66137566137567 6.34920634920635,95.44973544973546 6.984126984126985,95.02645502645504 7.6190476190476195,94.60317460317461 8.253968253968255,94.39153439153439 8.88888888888889,94.39153439153439 9.523809523809524,94.17989417989419 10.15873015873016,94.17989417989419 10.793650793650794,94.17989417989419 11.428571428571429,94.17989417989419 12.063492063492065,94.17989417989419 12.6984126984127,94.17989417989419 13.333333333333334,94.17989417989419 13.96825396825397,94.17989417989419 14.603174603174605,94.39153439153439 15.238095238095239,94.39153439153439 15.873015873015873,94.60317460317461 16.50793650793651,94.60317460317461 17.142857142857146,95.02645502645504 17.77777777777778,95.23809523809524 18.412698412698415,95.44973544973546 19.047619047619047,95.66137566137567 19.682539682539684,96.08465608465609 20.31746031746032,96.2962962962963 20.952380952380953,96.71957671957672 21.58730158730159,96.93121693121694 22.222222222222225,97.14285714285715 22.857142857142858,97.35449735449737 23.492063492063494,97.56613756613757 24.12698412698413,97.77777777777779 24.761904761904763,98.2010582010582 25.3968253968254,98.2010582010582 26.031746031746035,98.41269841269842 26.666666666666668,98.41269841269842 27.301587301587304,98.62433862433863 27.93650793650794,98.41269841269842 28.571428571428573,98.41269841269842 29.20634920634921,98.41269841269842 29.841269841269842,98.2010582010582 30.476190476190478,97.989417989418 31.111111111111114,97.989417989418 31.746031746031747,97.56613756613757 32.38095238095239,97.14285714285715 33.01587301587302,96.71957671957672 33.43915343915344,96.08465608465609 33.86243386243387,95.66137566137567 34.28571428571429,95.02645502645504 34.4973544973545,94.39153439153439 34.70899470899471,93.75661375661376 34.920634920634924,93.12169312169313 35.13227513227513,92.4867724867725 35.13227513227513,91.85185185185186 35.13227513227513,91.21693121693123 34.920634920634924,90.58201058201058 34.920634920634924,89.94708994708995 34.70899470899471,89.31216931216932 34.70899470899471,88.67724867724868 34.4973544973545,88.04232804232805 34.28571428571429,87.40740740740742 34.28571428571429,86.77248677248677 34.074074074074076,86.13756613756614 34.074074074074076,85.5026455026455 34.074074074074076,84.86772486772487 33.86243386243387,84.23280423280424 33.65079365079365,83.59788359788361 33.65079365079365,82.96296296296298 33.43915343915344,82.32804232804233 33.22751322751323,81.6931216931217 33.22751322751323,81.05820105820106 33.01587301587302,80.42328042328043 33.01587301587302,79.7883597883598 32.804232804232804,79.15343915343917 32.804232804232804,78.51851851851852 32.592592592592595,77.88359788359789 32.592592592592595,77.24867724867725 32.38095238095239,76.61375661375662 32.16931216931217,75.97883597883599 32.16931216931217,75.34391534391536 31.95767195767196,74.70899470899471 31.746031746031747,74.07407407407408 31.746031746031747,73.43915343915344 31.53439153439154,72.80423280423281 31.53439153439154,72.16931216931218 31.322751322751326,71.53439153439155 31.111111111111114,70.8994708994709 31.111111111111114,70.26455026455027 30.899470899470902,69.62962962962963 30.899470899470902,68.994708994709 30.68783068783069,68.35978835978837 30.476190476190478,67.72486772486774 30.476190476190478,67.08994708994709 30.264550264550266,66.45502645502646 30.052910052910054,65.82010582010582 30.052910052910054,65.18518518518519 29.841269841269842,64.55026455026456 29.841269841269842,63.91534391534392 29.629629629629633,63.280423280423285 29.629629629629633,62.64550264550265 29.41798941798942,62.01058201058201 29.20634920634921,61.37566137566138 29.20634920634921,60.74074074074075 28.994708994708997,60.10582010582011 28.783068783068785,59.470899470899475 28.783068783068785,58.83597883597884 28.571428571428573,58.2010582010582 28.571428571428573,57.56613756613757 28.35978835978836,56.93121693121694 28.14814814814815,56.2962962962963 27.93650793650794,55.661375661375665 27.724867724867728,55.02645502645503 27.513227513227516,54.39153439153439 27.513227513227516,53.75661375661376 27.301587301587304,53.12169312169313 27.301587301587304,52.48677248677249 27.089947089947092,51.851851851851855 26.87830687830688,51.21693121693122 26.87830687830688,50.58201058201058 26.666666666666668,49.94708994708995 26.666666666666668,49.31216931216932 26.455026455026456,48.677248677248684 26.455026455026456,48.042328042328045 26.243386243386244,47.40740740740741 26.031746031746035,46.77248677248678 25.820105820105823,46.13756613756614 25.820105820105823,45.50264550264551 25.60846560846561,44.867724867724874 25.3968253968254,44.232804232804234 25.3968253968254,43.5978835978836 25.185185185185187,42.96296296296297 24.973544973544975,42.32804232804233 24.761904761904763,41.6931216931217 24.761904761904763,41.058201058201064 24.55026455026455,40.423280423280424 24.338624338624342,39.78835978835979 23.492063492063494,36.19047619047619" style="fill:none; stroke:#3300bb; stroke-width:1.0"  /><circle cx="23.492063492063494" cy="36.19047619047619" r="2.0" style="fill:none; stroke:#000000aa; stroke-width:0.25" /><circle cx="147.93650793650795" cy="0.0" r="2.0" style="fill:none; stroke:#000000aa; stroke-width:0.25" /><circle cx="200.42328042328043" cy="131.85185185185185" r="2.0" style="fill:none; stroke:#000000aa; stroke-width:0.25" /><circle cx="45.92592592592593" cy="191.95767195767198" r="2.0" style="fill:none; stroke:#000000aa; stroke-width:0.25" /><circle cx="23.703703703703706" cy="36.402116402116405" r="2.0" style="fill:none; stroke:#ff3366aa; stroke-width:0.25" /><circle cx="147.72486772486775" cy="0.21164021164021166" r="2.0" style="fill:none; stroke:#ff3366aa; stroke-width:0.25" /><circle cx="200.21164021164023" cy="132.06349206349208" r="2.0" style="fill:none; stroke:#ff3366aa; stroke-width:0.25" /><circle cx="46.13756613756614" cy="191.74603174603175" r="2.0" style="fill:none; stroke:#ff3366aa; stroke-width:0.25" /><polyline points="35.55555555555556,34.70899470899471 34.920634920634924,34.920634920634924 34.28571428571429,34.920634920634924 33.65079365079365,34.920634920634924 33.01587301587302,35.13227513227513 32.38095238095239,34.920634920634924 31.746031746031747,35.13227513227513 31.111111111111114,35.34391534391535 30.476190476190478,35.34391534391535 29.841269841269842,35.34391534391535 29.20634920634921,35.34391534391535 28.571428571428573,35.34391534391535 27.93650793650794,35.34391534391535 27.513227513227516,35.76719576719577 26.87830687830688,35.76719576719577" style="fill:none; stroke:#001100; stroke-width:1.0" /><polyline points="26.455026455026456,48.042328042328045 26.243386243386244,47.40740740740741 26.031746031746035,46.77248677248678 25.820105820105823,46.13756613756614 25.820105820105823,45.50264550264551 25.60846560846561,44.867724867724874 25.3968253968254,44.232804232804234 25.3968253968254,43.5978835978836 25.185185185185187,42.96296296296297 24.973544973544975,42.32804232804233 24.761904761904763,41.6931216931217 24.761904761904763,41.058201058201064 24.55026455026455,40.423280423280424 24.338624338624342,39.78835978835979" style="fill:none; stroke:#000011; stroke-width:1.0" /><polyline points="152.38095238095238,10.793650793650794 151.95767195767198,10.15873015873016 151.74603174603175,9.523809523809524 151.53439153439155,8.88888888888889 151.32275132275134,8.253968253968255 150.8994708994709,7.6190476190476195 150.6878306878307,6.984126984126985 150.47619047619048,6.34920634920635 150.26455026455028,5.714285714285714 150.05291005291005,5.07936507936508 149.84126984126985,4.444444444444445 149.41798941798942,3.8095238095238098 149.20634920634922,3.174603174603175" style="fill:none; stroke:#001100; stroke-width:1.0" /><polyline points="136.71957671957674,5.07936507936508 137.35449735449737,4.867724867724868 137.989417989418,4.656084656084657 138.62433862433863,4.2328042328042335 139.25925925925927,4.021164021164021 139.8941798941799,3.8095238095238098 140.52910052910053,3.3862433862433865 141.16402116402116,3.174603174603175 141.7989417989418,2.9629629629629632 142.43386243386246,2.7513227513227516 142.85714285714286,2.3280423280423284 143.4920634920635,2.1164021164021167 144.12698412698413,1.9047619047619049 144.55026455026456,1.4814814814814816" style="fill:none; stroke:#000011; stroke-width:1.0" /><polyline points="189.41798941798945,136.71957671957674 190.05291005291008,136.5079365079365 190.6878306878307,136.2962962962963 191.32275132275134,136.0846560846561 191.95767195767198,135.66137566137567 192.5925925925926,135.44973544973547 193.22751322751324,135.23809523809524 193.86243386243387,134.81481481481484 194.4973544973545,134.6031746031746 195.13227513227514,134.17989417989418 195.76719576719577,133.96825396825398 196.4021164021164,133.75661375661377 197.03703703703704,133.33333333333334" style="fill:none; stroke:#001100; stroke-width:1.0" /><polyline points="197.24867724867727,121.05820105820106 197.24867724867727,121.6931216931217 197.46031746031747,122.32804232804234 197.6719576719577,122.96296296296298 197.8835978835979,123.59788359788361 198.0952380952381,124.23280423280424 198.30687830687833,124.86772486772487 198.73015873015873,125.5026455026455 198.73015873015873,126.13756613756615 198.94179894179896,126.77248677248679 199.36507936507937,127.40740740740742 199.36507936507937,128.04232804232805 199.5767195767196,128.67724867724868" style="fill:none; stroke:#000011; stroke-width:1.0" /><polyline points="46.560846560846564,180.31746031746033 46.560846560846564,180.95238095238096 46.560846560846564,181.5873015873016 46.349206349206355,182.22222222222223 46.560846560846564,182.85714285714286 46.560846560846564,183.4920634920635 46.560846560846564,184.12698412698415 46.560846560846564,184.7619047619048 46.349206349206355,185.39682539682542 46.349206349206355,186.03174603174605 46.349206349206355,186.66666666666669 46.349206349206355,187.30158730158732 46.13756613756614,187.93650793650795 46.13756613756614,188.57142857142858" style="fill:none; stroke:#001100; stroke-width:1.0" /><polyline points="56.93121693121694,187.30158730158732 56.2962962962963,187.51322751322752 55.661375661375665,187.72486772486775 55.02645502645503,187.93650793650795 54.39153439153439,188.14814814814815 53.75661375661376,188.35978835978838 53.12169312169313,188.57142857142858 52.48677248677249,188.78306878306879 51.851851851851855,189.20634920634922 51.21693121693122,189.41798941798945 50.58201058201058,189.84126984126985 49.94708994708995,190.05291005291008 49.31216931216932,190.47619047619048" style="fill:none; stroke:#000011; stroke-width:1.0" /><polyline points="26.87830687830688,35.76719576719577 5.9259259259259265,38.30687830687831" style="fill:none; stroke:#ffaa00; stroke-width:0.4" /><polyline points="24.338624338624342,39.78835978835979 19.047619047619047,19.25925925925926" style="fill:none; stroke:#aaff00; stroke-width:0.4" /><polyline points="149.20634920634922,3.174603174603175 141.16402116402116,-16.296296296296298" style="fill:none; stroke:#ffaa00; stroke-width:0.4" /><polyline points="144.55026455026456,1.4814814814814816 163.80952380952382,-7.407407407407408" style="fill:none; stroke:#aaff00; stroke-width:0.4" /><polyline points="197.03703703703704,133.33333333333334 216.2962962962963,124.65608465608466" style="fill:none; stroke:#ffaa00; stroke-width:0.4" /><polyline points="199.5767195767196,128.67724867724868 205.71428571428572,148.99470899470901" style="fill:none; stroke:#aaff00; stroke-width:0.4" /><polyline points="46.13756613756614,188.57142857142858 45.07936507936508,209.73544973544975" style="fill:none; stroke:#ffaa00; stroke-width:0.4" /><polyline points="49.31216931216932,190.47619047619048 29.841269841269842,198.51851851851853" style="fill:none; stroke:#aaff00; stroke-width:0.4" /><circle cx="110.05291005291006" cy="100.95238095238096" r="1.0" style="fill:#444444; stroke-width:0" /><circle cx="96.93121693121694" cy="116.61375661375662" r="10.582010582010582" style="fill:#ff770022; stroke-width:0" /><circle cx="96.93121693121694" cy="116.61375661375662" r="1.0" style="fill:#ff7700; stroke-width:0" /></svg>