<?xml version="1.0" encoding="UTF-8" standalone="no"?><svg width="495.8730158730159" height="556.1904761904763" viewBox="-10 -10 185.2910052910053 205.39682539682542" xmlns="http://www.w3.org/2000/svg" xmlns:xlink="http://www.w3.org/1999/xlink"><polyline points="0.21164021164021166,53.333333333333336 2.7513227513227516,52.06349206349207 3.3862433862433865,51.851851851851855 4.021164021164021,51.42857142857143 4.444444444444445,51.00529100529101 5.07936507936508,50.7936507936508 5.714285714285714,50.370370370370374 6.34920634920635,50.158730158730165 6.772486772486773,49.73544973544974 7.407407407407408,49.523809523809526 8.042328042328043,49.1005291005291 8.677248677248677,49.1005291005291 9.312169312169313,48.677248677248684 9.947089947089948,48.25396825396826 10.582010582010582,48.042328042328045 11.216931216931219,47.830687830687836 11.851851851851853,47.61904761904762 12.486772486772487,47.195767195767196 13.121693121693122,47.195767195767196 13.756613756613758,46.98412698412699 14.17989417989418,46.560846560846564 14.814814814814817,46.560846560846564 15.449735449735451,46.13756613756614 16.084656084656086,45.92592592592593 16.71957671957672,45.714285714285715 17.354497354497354,45.50264550264551 17.98941798941799,45.29100529100529 18.624338624338627,45.29100529100529 19.25925925925926,45.07936507936508 19.894179894179896,44.867724867724874 20.529100529100532,44.65608465608466 21.164021164021165,44.44444444444445 21.7989417989418,44.44444444444445 22.433862433862437,44.021164021164026 23.06878306878307,43.80952380952381 23.703703703703706,43.80952380952381 24.338624338624342,43.5978835978836 24.973544973544975,43.386243386243386 25.60846560846561,43.386243386243386 26.031746031746035,42.96296296296297 26.666666666666668,42.75132275132275 27.301587301587304,42.75132275132275 27.93650793650794,42.539682539682545 28.571428571428573,42.32804232804233 29.20634920634921,42.11640211640212 29.841269841269842,41.904761904761905 30.476190476190478,41.904761904761905 31.111111111111114,41.6931216931217 31.746031746031747,41.48148148148149 32.38095238095239,41.48148148148149 33.01587301587302,41.26984126984127 33.65079365079365,41.058201058201064 34.28571428571429,40.84656084656085 34.920634920634924,40.63492063492064 35.55555555555556,40.63492063492064 36.19047619047619,40.63492063492064 36.82539682539683,40.423280423280424 37.46031746031746,40.211640211640216 38.095238095238095,40.211640211640216 38.730158730158735,40.0 39.36507936507937,40.0 40.0,39.78835978835979 40.63492063492064,39.78835978835979 41.26984126984127,39.57671957671958 41.904761904761905,39.78835978835979 42.539682539682545,39.36507936507937 43.17460317460318,39.36507936507937 43.80952380952381,39.15343915343916 44.44444444444445,38.94179894179894 45.07936507936508,38.94179894179894 45.714285714285715,38.94179894179894 46.349206349206355,38.730158730158735 46.98412698412699,38.51851851851852 47.61904761904762,38.30687830687831 48.25396825396826,38.095238095238095 48.88888888888889,38.095238095238095 49.523809523809526,37.67195767195768 50.158730158730165,37.46031746031746 50.7936507936508,37.248677248677254 51.42857142857143,37.03703703703704 52.06349206349207,36.82539682539683 52.6984126984127,36.613756613756614 53.333333333333336,36.402116402116405 53.968253968253975,36.19047619047619 54.60317460317461,35.76719576719577 55.23809523809524,35.55555555555556 55.87301587301588,35.34391534391535 56.50793650793651,34.920634920634924 57.142857142857146,34.4973544973545 57.777777777777786,34.28571428571429 58.41269841269842,33.86243386243387 58.83597883597884,33.43915343915344 59.25925925925927,33.01587301587302 59.682539682539684,32.592592592592595 60.10582010582011,32.16931216931217 60.52910052910053,31.746031746031747 60.52910052910053,31.111111111111114 60.74074074074075,30.476190476190478 61.16402116402117,29.841269841269842 61.37566137566138,29.20634920634921 61.58730158730159,28.571428571428573 61.798941798941804,27.93650793650794 62.01058201058201,27.301587301587304 61.798941798941804,26.666666666666668 61.798941798941804,26.031746031746035 61.798941798941804,25.3968253968254 61.798941798941804,24.761904761904763 61.58730158730159,24.12698412698413 61.37566137566138,23.492063492063494 61.16402116402117,22.857142857142858 60.74074074074075,22.222222222222225 60.52910052910053,21.58730158730159 60.10582010582011,20.952380952380953 59.8941798941799,20.31746031746032 59.682539682539684,19.682539682539684 59.682539682539684,19.047619047619047 59.470899470899475,18.412698412698415 59.25925925925927,17.77777777777778 59.25925925925927,17.142857142857146 59.25925925925927,16.50793650793651 59.04761904761905,15.873015873015873 59.25925925925927,15.238095238095239 59.25925925925927,14.603174603174605 59.25925925925927,13.96825396825397 59.470899470899475,13.333333333333334 59.682539682539684,12.6984126984127 59.682539682539684,12.063492063492065 60.10582010582011,11.640211640211641 60.31746031746032,11.005291005291006 60.52910052910053,10.370370370370372 60.74074074074075,9.735449735449736 60.952380952380956,9.100529100529101 61.37566137566138,8.465608465608467 61.798941798941804,7.830687830687832 62.22222222222223,7.407407407407408 62.64550264550265,6.772486772486773 63.06878306878308,6.137566137566138 63.492063492063494,5.714285714285714 63.91534391534392,5.291005291005291 64.55026455026456,5.07936507936508 64.97354497354497,4.444444444444445 65.3968253968254,4.021164021164021 65.82010582010582,3.597883597883598 66.45502645502646,3.174603174603175 67.08994708994709,2.9629629629629632 67.72486772486774,2.7513227513227516 68.35978835978837,2.3280423280423284 68.78306878306879,1.9047619047619049 69.41798941798942,1.6931216931216932 70.05291005291006,1.4814814814814816 70.6878306878307,1.0582010582010584 71.32275132275133,0.8465608465608466 71.95767195767196,0.634920634920635 72.5925925925926,0.634920634920635 73.22751322751323,0.4232804232804233 73.86243386243387,0.21164021164021166 74.49735449735451,0.21164021164021166 75.13227513227514,0.21164021164021166 75.76719576719577,0.21164021164021166 76.4021164021164,0.4232804232804233 77.03703703703704,0.4232804232804233 77.67195767195767,0.634920634920635 78.30687830687832,0.8465608465608466 78.94179894179895,0.8465608465608466 79.57671957671958,1.26984126984127 80.21164021164022,1.4814814814814816 80.84656084656085,1.9047619047619049 81.48148148148148,2.3280423280423284 81.90476190476191,2.7513227513227516 82.32804232804233,3.174603174603175 82.75132275132276,3.8095238095238098 83.17460317460318,4.444444444444445 83.59788359788361,5.07936507936508 83.80952380952381,5.714285714285714 84.02116402116403,6.34920634920635 84.23280423280424,6.984126984126985 84.44444444444446,7.6190476190476195 84.44444444444446,8.253968253968255 84.44444444444446,8.88888888888889 84.44444444444446,9.523809523809524 84.44444444444446,10.15873015873016 84.44444444444446,10.793650793650794 84.23280423280424,11.428571428571429 84.23280423280424,12.063492063492065 84.23280423280424,12.6984126984127 84.02116402116403,13.333333333333334 84.02116402116403,13.96825396825397 83.80952380952381,14.603174603174605 83.80952380952381,15.238095238095239 83.80952380952381,15.873015873015873 83.80952380952381,16.50793650793651 83.59788359788361,17.142857142857146 83.59788359788361,17.77777777777778 83.59788359788361,18.412698412698415 83.59788359788361,19.047619047619047 83.3862433862434,19.682539682539684 83.3862433862434,20.31746031746032 83.3862433862434,20.952380952380953 83.59788359788361,21.58730158730159 83.59788359788361,22.222222222222225 83.59788359788361,22.857142857142858 83.80952380952381,23.492063492063494 83.80952380952381,24.12698412698413 84.02116402116403,24.761904761904763 84.44444444444446,25.3968253968254 84.65608465608466,26.031746031746035 85.07936507936509,26.455026455026456 85.5026455026455,27.089947089947092 85.92592592592594,27.513227513227516 86.56084656084657,27.93650793650794 87.1957671957672,27.93650793650794 87.83068783068784,28.35978835978836 88.46560846560847,28.571428571428573 88.8888888888889,28.994708994708997 89.52380952380953,28.994708994708997 90.15873015873017,28.994708994708997 90.7936507936508,28.994708994708997 91.42857142857143,28.783068783068785 92.06349206349208,28.783068783068785 92.69841269841271,28.571428571428573 93.33333333333334,28.14814814814815 93.96825396825398,27.93650793650794 94.60317460317461,27.724867724867728 95.23809523809524,27.513227513227516 95.87301587301587,27.089947089947092 96.50793650793652,26.666666666666668 97.14285714285715,26.455026455026456 97.77777777777779,26.031746031746035 98.41269841269842,25.820105820105823 99.04761904761905,25.60846560846561 99.47089947089948,25.185185185185187 100.10582010582011,24.973544973544975 100.74074074074075,24.761904761904763 101.37566137566138,24.338624338624342 102.01058201058201,24.12698412698413 102.64550264550266,23.703703703703706 103.28042328042329,23.492063492063494 103.91534391534393,23.280423280423282 104.55026455026456,22.857142857142858 105.18518518518519,22.645502645502646 105.82010582010582,22.222222222222225 106.45502645502647,21.7989417989418 107.0899470899471,21.375661375661377 107.72486772486774,21.164021164021165 108.35978835978837,20.740740740740744 108.994708994709,20.529100529100532 109.62962962962963,20.105820105820108 110.26455026455027,19.894179894179896 110.89947089947091,19.47089947089947 111.53439153439155,19.047619047619047 112.16931216931218,18.83597883597884 115.76719576719577,16.931216931216934" style="fill:none; stroke:#cc0000; stroke-width:1.0"  /><polyline points="115.76719576719577,16.931216931216934 116.4021164021164,20.105820105820108 116.4021164021164,20.740740740740744 116.61375661375662,21.375661375661377 116.82539682539684,22.010582010582013 117.03703703703705,22.645502645502646 117.24867724867725,23.280423280423282 117.46031746031747,23.915343915343918 117.67195767195768,24.55026455026455 117.67195767195768,25.185185185185187 117.88359788359789,25.820105820105823 117.88359788359789,26.455026455026456 118.0952380952381,27.089947089947092 118.30687830687832,27.724867724867728 118.30687830687832,28.35978835978836 118.51851851851853,28.994708994708997 118.51851851851853,29.629629629629633 118.73015873015873,30.264550264550266 118.73015873015873,30.899470899470902 119.15343915343917,31.53439153439154 119.15343915343917,32.16931216931217 119.36507936507937,32.804232804232804 119.36507936507937,33.43915343915344 119.57671957671958,34.074074074074076 119.57671957671958,34.70899470899471 119.7883597883598,35.34391534391535 119.7883597883598,35.97883597883598 120.00000000000001,36.613756613756614 120.00000000000001,37.248677248677254 120.00000000000001,37.883597883597886 120.00000000000001,38.51851851851852 120.21164021164022,39.15343915343916 120.21164021164022,39.78835978835979 120.21164021164022,40.423280423280424 120.42328042328043,41.058201058201064 120.42328042328043,41.6931216931217 120.42328042328043,42.32804232804233 120.42328042328043,42.96296296296297 120.63492063492065,43.5978835978836 120.42328042328043,44.232804232804234 120.42328042328043,44.867724867724874 120.63492063492065,45.50264550264551 120.63492063492065,46.13756613756614 120.84656084656086,46.77248677248678 120.84656084656086,47.40740740740741 120.84656084656086,48.042328042328045 121.05820105820106,48.677248677248684 121.05820105820106,49.31216931216932 121.26984126984128,49.94708994708995 121.26984126984128,50.58201058201058 121.4814814814815,51.21693121693122 121.4814814814815,51.851851851851855 121.6931216931217,52.48677248677249 121.90476190476191,53.12169312169313 121.90476190476191,53.75661375661376 122.11640211640213,54.39153439153439 122.11640211640213,55.02645502645503 122.32804232804234,55.661375661375665 122.32804232804234,56.2962962962963 122.53968253968254,56.93121693121694 122.75132275132276,57.56613756613757 122.75132275132276,58.2010582010582 122.96296296296298,58.83597883597884 122.96296296296298,59.470899470899475 123.17460317460318,60.10582010582011 123.17460317460318,60.74074074074075 123.3862433862434,61.37566137566138 123.59788359788361,62.01058201058201 123.80952380952382,62.64550264550265 124.02116402116403,63.280423280423285 124.23280423280424,63.91534391534392 124.65608465608466,64.55026455026456 124.86772486772487,65.18518518518519 125.2910052910053,65.60846560846561 125.71428571428572,66.24338624338625 126.13756613756615,66.66666666666667 126.56084656084657,67.08994708994709 126.98412698412699,67.51322751322752 127.40740740740742,67.93650793650794 128.04232804232805,68.14814814814815 128.46560846560848,68.57142857142858 129.10052910052912,68.78306878306879 129.73544973544975,68.994708994709 130.37037037037038,69.20634920634922 131.005291005291,68.994708994709 131.64021164021165,68.994708994709 132.27513227513228,68.78306878306879 132.9100529100529,68.57142857142858 133.54497354497354,68.57142857142858 134.17989417989418,68.14814814814815 134.81481481481484,67.93650793650794 135.44973544973547,67.51322751322752 136.0846560846561,67.08994708994709 136.71957671957674,66.66666666666667 137.14285714285717,66.24338624338625 137.7777777777778,65.82010582010582 138.2010582010582,65.3968253968254 138.83597883597884,64.97354497354497 139.25925925925927,64.55026455026456 139.8941798941799,64.33862433862434 140.31746031746033,63.91534391534392 140.74074074074076,63.492063492063494 141.16402116402116,63.06878306878308 141.7989417989418,62.85714285714286 142.22222222222223,62.43386243386244 142.64550264550266,61.798941798941804 143.2804232804233,61.58730158730159 143.70370370370372,61.16402116402117 144.12698412698413,60.74074074074075 144.76190476190476,60.52910052910053 145.1851851851852,60.10582010582011 145.82010582010582,59.8941798941799 146.24338624338625,59.470899470899475 146.66666666666669,59.04761904761905 147.0899470899471,58.62433862433863 147.72486772486775,58.41269841269842 148.35978835978838,58.41269841269842 148.99470899470901,58.2010582010582 149.62962962962965,57.989417989417994 150.26455026455028,57.989417989417994 150.8994708994709,57.777777777777786 151.53439153439155,57.56613756613757 152.16931216931218,57.56613756613757 152.8042328042328,57.35449735449736 153.43915343915344,57.35449735449736 154.07407407407408,57.35449735449736 154.7089947089947,57.35449735449736 155.34391534391534,57.56613756613757 155.978835978836,57.56613756613757 156.61375661375664,57.777777777777786 157.24867724867727,57.989417989417994 157.67195767195767,58.41269841269842 158.0952380952381,58.83597883597884 158.51851851851853,59.25925925925927 158.94179894179896,59.8941798941799 159.36507936507937,60.52910052910053 159.7883597883598,61.16402116402117 160.21164021164023,61.798941798941804 160.42328042328043,62.43386243386244 160.84656084656086,63.06878306878308 161.05820105820106,63.70370370370371 161.4814814814815,64.33862433862434 161.6931216931217,64.97354497354497 161.90476190476193,65.60846560846561 162.32804232804233,66.24338624338625 162.75132275132276,66.87830687830689 162.96296296296296,67.51322751322752 163.1746031746032,68.14814814814815 163.3862433862434,68.78306878306879 163.59788359788362,69.41798941798942 163.80952380952382,70.05291005291006 164.02116402116403,70.6878306878307 164.02116402116403,71.32275132275133 164.23280423280426,71.95767195767196 164.44444444444446,72.5925925925926 164.44444444444446,73.22751322751323 164.65608465608466,73.86243386243387 164.65608465608466,74.49735449735451 164.65608465608466,75.13227513227514 164.65608465608466,75.76719576719577 164.65608465608466,76.4021164021164 164.8677248677249,77.03703703703704 164.8677248677249,77.67195767195767 164.8677248677249,78.30687830687832 164.8677248677249,78.94179894179895 164.8677248677249,79.57671957671958 164.65608465608466,80.21164021164022 164.65608465608466,80.84656084656085 164.44444444444446,81.48148148148148 164.44444444444446,82.11640211640213 164.23280423280426,82.75132275132276 164.23280423280426,83.3862433862434 164.02116402116403,84.02116402116403 163.80952380952382,84.65608465608466 163.59788359788362,85.29100529100529 163.3862433862434,85.92592592592594 162.96296296296296,86.56084656084657 162.53968253968256,87.1957671957672 162.11640211640213,87.83068783068784 161.6931216931217,88.46560846560847 161.2698412698413,88.8888888888889 160.84656084656086,89.31216931216932 160.21164021164023,89.73544973544975 159.5767195767196,89.94708994708995 158.94179894179896,90.15873015873017 158.30687830687833,90.37037037037038 157.67195767195767,90.58201058201058 157.03703703703704,90.7936507936508 156.4021164021164,90.7936507936508 155.76719576719577,90.7936507936508 155.13227513227514,90.7936507936508 154.4973544973545,90.58201058201058 153.86243386243387,90.58201058201058 153.22751322751324,90.37037037037038 152.5925925925926,90.15873015873017 151.95767195767198,89.73544973544975 151.32275132275134,89.52380952380953 150.6878306878307,89.31216931216932 150.05291005291005,89.1005291005291 149.41798941798942,88.8888888888889 148.78306878306879,88.67724867724868 148.14814814814815,88.46560846560847 147.51322751322752,88.25396825396827 146.8783068783069,88.04232804232805 146.24338624338625,88.04232804232805 145.60846560846562,88.04232804232805 144.973544973545,87.83068783068784 144.33862433862436,87.83068783068784 143.70370370370372,87.83068783068784 143.0687830687831,87.83068783068784 142.43386243386246,87.83068783068784 141.7989417989418,88.04232804232805 141.16402116402116,88.04232804232805 140.52910052910053,88.25396825396827 139.8941798941799,88.46560846560847 139.25925925925927,88.8888888888889 138.62433862433863,89.1005291005291 138.2010582010582,89.52380952380953 137.7777777777778,89.94708994708995 137.35449735449737,90.37037037037038 136.93121693121694,90.7936507936508 136.5079365079365,91.42857142857143 136.2962962962963,92.06349206349208 136.0846560846561,92.69841269841271 135.87301587301587,93.33333333333334 135.87301587301587,93.96825396825398 135.66137566137567,94.60317460317461 135.66137566137567,95.23809523809524 135.87301587301587,95.87301587301587 136.0846560846561,96.50793650793652 136.0846560846561,97.14285714285715 136.0846560846561,97.77777777777779 136.2962962962963,98.41269841269842 136.5079365079365,99.04761904761905 136.71957671957674,99.68253968253968 137.14285714285717,100.31746031746033 137.35449735449737,100.95238095238096 137.7777777777778,101.37566137566138 137.989417989418,102.01058201058201 138.2010582010582,102.64550264550266 138.62433862433863,103.28042328042329 138.83597883597884,103.91534391534393 139.25925925925927,104.55026455026456 139.47089947089947,105.18518518518519 139.6825396825397,105.82010582010582 139.8941798941799,106.45502645502647 140.31746031746033,107.0899470899471 140.52910052910053,107.72486772486774 140.74074074074076,108.35978835978837 141.16402116402116,108.994708994709 141.3756613756614,109.62962962962963 141.5873015873016,110.26455026455027 142.01058201058203,110.89947089947091 142.22222222222223,111.53439153439155 142.43386243386246,112.16931216931218 142.85714285714286,112.80423280423281 143.0687830687831,113.43915343915344 143.2804232804233,114.07407407407408 143.4920634920635,114.70899470899472 143.91534391534393,115.34391534391536 144.12698412698413,115.97883597883599 144.33862433862436,116.61375661375662 144.76190476190476,117.24867724867725 144.973544973545,117.88359788359789 145.1851851851852,118.51851851851853 145.60846560846562,119.15343915343917 145.82010582010582,119.7883597883598 146.03174603174605,120.42328042328043 146.24338624338625,121.05820105820106 146.66666666666669,121.6931216931217 146.8783068783069,122.32804232804234 147.0899470899471,122.96296296296298 147.51322751322752,123.59788359788361 147.72486772486775,124.23280423280424 147.93650793650795,124.86772486772487 148.35978835978838,125.5026455026455 148.57142857142858,126.13756613756615 148.78306878306879,126.77248677248679 148.99470899470901,127.40740740740742 149.41798941798942,128.04232804232805 149.62962962962965,128.67724867724868 149.84126984126985,129.31216931216932 150.26455026455028,129.94708994708995 150.47619047619048,130.58201058201058 150.6878306878307,131.21693121693121 150.8994708994709,131.85185185185185 151.32275132275134,132.4867724867725 151.74603174603175,133.12169312169314 151.95767195767198,133.75661375661377 152.16931216931218,134.3915343915344 152.38095238095238,135.02645502645504 152.5925925925926,135.66137566137567 153.01587301587304,136.2962962962963 153.43915343915344,136.93121693121694 155.34391534391534,140.74074074074076" style="fill:none; stroke:#999900; stroke-width:1.0"  /><polyline points="155.34391534391534,140.74074074074076 151.74603174603175,141.3756613756614 151.11111111111111,141.5873015873016 150.47619047619048,141.5873015873016 149.84126984126985,141.7989417989418 149.20634920634922,141.7989417989418 148.57142857142858,142.01058201058203 147.93650793650795,142.22222222222223 147.30158730158732,142.22222222222223 146.66666666666669,142.43386243386246 146.03174603174605,142.43386243386246 145.39682539682542,142.64550264550266 144.76190476190476,142.64550264550266 144.12698412698413,142.64550264550266 143.4920634920635,142.85714285714286 142.85714285714286,143.0687830687831 142.22222222222223,143.0687830687831 141.5873015873016,143.2804232804233 140.95238095238096,143.2804232804233 140.31746031746033,143.2804232804233 139.6825396825397,143.4920634920635 139.04761904761907,143.4920634920635 138.41269841269843,143.70370370370372 137.7777777777778,143.70370370370372 137.14285714285717,143.91534391534393 136.5079365079365,143.91534391534393 135.87301587301587,143.91534391534393 135.23809523809524,144.12698412698413 134.6031746031746,144.12698412698413 133.96825396825398,144.12698412698413 133.33333333333334,144.33862433862436 132.6984126984127,144.33862433862436 132.06349206349208,144.33862433862436 131.42857142857144,144.33862433862436 130.7936507936508,144.76190476190476 130.15873015873018,144.76190476190476 129.52380952380955,144.76190476190476 128.88888888888889,144.973544973545 128.25396825396825,144.973544973545 127.61904761904763,144.973544973545 126.98412698412699,144.973544973545 126.34920634920636,144.973544973545 125.71428571428572,144.973544973545 125.07936507936509,144.973544973545 124.44444444444446,144.973544973545 123.80952380952382,144.973544973545 123.17460317460318,144.973544973545 122.53968253968254,144.973544973545 121.90476190476191,144.76190476190476 121.26984126984128,144.76190476190476 120.63492063492065,144.55026455026456 120.00000000000001,144.12698412698413 119.57671957671958,143.4920634920635 119.36507936507937,142.85714285714286 119.15343915343917,142.22222222222223 118.94179894179895,141.5873015873016 118.94179894179895,140.95238095238096 118.94179894179895,140.31746031746033 118.73015873015873,139.6825396825397 118.94179894179895,139.04761904761907 119.15343915343917,138.41269841269843 119.15343915343917,137.7777777777778 119.15343915343917,137.14285714285717 119.36507936507937,136.5079365079365 119.36507936507937,135.87301587301587 119.36507936507937,135.23809523809524 119.57671957671958,134.6031746031746 119.7883597883598,133.96825396825398 120.21164021164022,133.33333333333334 120.42328042328043,132.6984126984127 120.42328042328043,132.06349206349208 120.84656084656086,131.42857142857144 120.84656084656086,130.7936507936508 121.05820105820106,130.15873015873018 121.26984126984128,129.52380952380955 121.26984126984128,128.88888888888889 121.26984126984128,128.25396825396825 121.26984126984128,127.61904761904763 121.26984126984128,126.98412698412699 121.26984126984128,126.34920634920636 121.05820105820106,125.71428571428572 121.05820105820106,125.07936507936509 120.84656084656086,124.44444444444446 120.63492063492065,123.80952380952382 120.63492063492065,123.17460317460318 120.21164021164022,122.53968253968254 120.00000000000001,121.90476190476191 119.57671957671958,121.26984126984128 119.36507936507937,120.63492063492065 118.94179894179895,120.00000000000001 118.51851851851853,119.57671957671958 118.0952380952381,118.94179894179895 117.67195767195768,118.51851851851853 117.24867724867725,118.0952380952381 116.82539682539684,117.67195767195768 116.4021164021164,117.24867724867725 115.76719576719577,116.82539682539684 115.13227513227514,116.4021164021164 114.49735449735451,116.1904761904762 113.86243386243387,115.76719576719577 113.22751322751324,115.55555555555557 112.5925925925926,115.34391534391536 111.95767195767196,115.13227513227514 111.32275132275133,115.13227513227514 110.6878306878307,114.92063492063492 110.05291005291006,114.92063492063492 109.41798941798943,114.70899470899472 108.78306878306879,114.70899470899472 108.14814814814815,114.49735449735451 107.51322751322752,114.49735449735451 106.87830687830689,114.28571428571429 106.24338624338625,114.28571428571429 105.60846560846562,114.28571428571429 104.97354497354497,114.28571428571429 104.33862433862434,114.07407407407408 103.70370370370371,114.07407407407408 103.06878306878308,114.28571428571429 102.43386243386244,114.28571428571429 101.79894179894181,114.28571428571429 101.16402116402116,114.28571428571429 100.52910052910053,114.28571428571429 99.8941798941799,114.28571428571429 99.25925925925927,114.28571428571429 98.62433862433863,114.49735449735451 97.989417989418,114.49735449735451 97.35449735449737,114.49735449735451 96.71957671957672,114.70899470899472 96.08465608465609,114.92063492063492 95.44973544973546,115.13227513227514 94.81481481481482,115.34391534391536 94.17989417989419,115.76719576719577 93.54497354497356,115.97883597883599 92.91005291005291,116.1904761904762 92.27513227513228,116.4021164021164 91.64021164021165,116.61375661375662 91.00529100529101,117.03703703703705 90.37037037037038,117.24867724867725 89.73544973544975,117.67195767195768 89.1005291005291,118.0952380952381 88.46560846560847,118.30687830687832 88.04232804232805,118.73015873015873 87.40740740740742,119.15343915343917 86.77248677248677,119.36507936507937 86.34920634920636,119.7883597883598 85.92592592592594,120.21164021164022 85.29100529100529,120.63492063492065 84.86772486772487,121.05820105820106 84.44444444444446,121.6931216931217 84.02116402116403,122.11640211640213 83.59788359788361,122.75132275132276 83.3862433862434,123.3862433862434 83.17460317460318,124.02116402116403 82.96296296296298,124.65608465608466 82.96296296296298,125.2910052910053 82.75132275132276,125.92592592592594 82.75132275132276,126.56084656084657 82.96296296296298,127.1957671957672 83.17460317460318,127.83068783068784 83.17460317460318,128.46560846560848 83.3862433862434,129.10052910052912 83.59788359788361,129.73544973544975 84.02116402116403,130.37037037037038 84.23280423280424,131.005291005291 84.65608465608466,131.64021164021165 84.86772486772487,132.27513227513228 85.29100529100529,132.6984126984127 85.71428571428572,133.33333333333334 85.92592592592594,133.96825396825398 86.34920634920636,134.3915343915344 86.77248677248677,134.81481481481484 87.1957671957672,135.44973544973547 87.61904761904762,136.0846560846561 88.04232804232805,136.5079365079365 88.46560846560847,136.93121693121694 88.8888888888889,137.35449735449737 89.31216931216932,137.7777777777778 89.73544973544975,138.2010582010582 90.15873015873017,138.62433862433863 90.58201058201058,139.25925925925927 91.00529100529101,139.6825396825397 91.42857142857143,140.31746031746033 91.85185185185186,140.74074074074076 92.27513227513228,141.3756613756614 92.69841269841271,142.01058201058203 93.12169312169313,142.64550264550266 93.33333333333334,143.2804232804233 93.54497354497356,143.91534391534393 93.75661375661376,144.55026455026456 93.96825396825398,145.1851851851852 93.96825396825398,145.82010582010582 93.75661375661376,146.45502645502646 93.75661375661376,147.0899470899471 93.75661375661376,147.72486772486775 93.54497354497356,148.35978835978838 93.33333333333334,148.99470899470901 92.91005291005291,149.41798941798942 92.69841269841271,150.05291005291005 92.27513227513228,150.47619047619048 91.85185185185186,151.11111111111111 91.42857142857143,151.53439153439155 91.00529100529101,151.95767195767198 90.58201058201058,152.38095238095238 90.15873015873017,152.8042328042328 89.52380952380953,153.22751322751324 89.1005291005291,153.65079365079367 88.46560846560847,154.07407407407408 87.83068783068784,154.2857142857143 87.1957671957672,154.7089947089947 86.56084656084657,154.92063492063494 85.92592592592594,155.13227513227514 85.29100529100529,155.34391534391534 84.65608465608466,155.55555555555557 84.02116402116403,155.55555555555557 83.3862433862434,155.55555555555557 82.75132275132276,155.76719576719577 82.11640211640213,155.978835978836 81.48148148148148,155.978835978836 80.84656084656085,156.1904761904762 80.21164021164022,156.1904761904762 79.57671957671958,156.4021164021164 78.94179894179895,156.61375661375664 78.30687830687832,156.61375661375664 77.67195767195767,156.82539682539684 77.03703703703704,156.82539682539684 76.4021164021164,157.03703703703704 75.76719576719577,157.03703703703704 75.13227513227514,157.24867724867727 74.49735449735451,157.24867724867727 73.86243386243387,157.24867724867727 73.22751322751323,157.46031746031747 72.5925925925926,157.46031746031747 71.95767195767196,157.67195767195767 71.32275132275133,157.67195767195767 70.6878306878307,157.67195767195767 70.05291005291006,157.67195767195767 69.41798941798942,157.67195767195767 68.78306878306879,157.8835978835979 68.14814814814815,157.8835978835979 67.51322751322752,157.8835978835979 66.87830687830689,158.0952380952381 66.24338624338625,158.0952380952381 65.60846560846561,158.0952380952381 64.97354497354497,158.30687830687833 64.33862433862434,158.30687830687833 63.70370370370371,158.51851851851853 63.06878306878308,158.51851851851853 62.43386243386244,158.73015873015873 61.798941798941804,158.73015873015873 61.16402116402117,158.94179894179896 60.52910052910053,159.15343915343917 59.8941798941799,159.36507936507937 59.25925925925927,159.36507936507937 58.62433862433863,159.5767195767196 57.989417989417994,159.5767195767196 57.35449735449736,159.7883597883598 56.71957671957672,160.0 56.08465608465609,160.0 55.449735449735456,160.21164021164023 54.81481481481482,160.42328042328043 54.179894179894184,160.42328042328043 53.54497354497355,160.63492063492066 52.91005291005291,160.84656084656086 52.27513227513228,160.84656084656086 51.640211640211646,161.05820105820106 51.00529100529101,161.2698412698413 50.370370370370374,161.4814814814815 49.73544973544974,161.6931216931217 49.1005291005291,161.90476190476193 48.46560846560847,162.11640211640213 47.830687830687836,162.32804232804233 47.195767195767196,162.53968253968256 46.560846560846564,162.96296296296296 45.92592592592593,163.1746031746032 45.29100529100529,163.3862433862434 44.65608465608466,163.80952380952382 44.021164021164026,164.02116402116403 43.386243386243386,164.23280423280426 42.96296296296297,164.65608465608466 42.32804232804233,164.8677248677249 41.6931216931217,165.2910052910053 41.058201058201064,165.50264550264552 40.423280423280424,165.92592592592595 39.78835978835979,166.34920634920636 39.15343915343916,166.56084656084658 38.51851851851852,166.984126984127 37.883597883597886,167.40740740740742 37.248677248677254,167.83068783068785 36.613756613756614,168.25396825396825 35.97883597883598,168.67724867724868 35.34391534391535,169.10052910052912 34.70899470899471,169.52380952380955 34.074074074074076,169.94708994708995 33.65079365079365,170.37037037037038 33.01587301587302,170.7936507936508 32.592592592592595,171.21693121693124 32.16931216931217,171.64021164021165 31.746031746031747,172.06349206349208 31.322751322751326,172.4867724867725 30.68783068783069,172.9100529100529 30.264550264550266,173.33333333333334 29.841269841269842,173.75661375661377 29.20634920634921,174.1798941798942 28.783068783068785,174.6031746031746 28.35978835978836,175.02645502645504 27.93650793650794,175.44973544973547 27.513227513227516,175.87301587301587 27.089947089947092,176.2962962962963 26.666666666666668,176.71957671957674 26.243386243386244,177.14285714285717 26.031746031746035,177.7777777777778 25.60846560846561,178.2010582010582 25.185185185185187,178.62433862433863 24.761904761904763,179.25925925925927 24.338624338624342,179.6825396825397 23.915343915343918,180.31746031746033 23.492063492063494,180.74074074074076 23.06878306878307,181.3756613756614 22.645502645502646,181.79894179894183 22.222222222222225,182.43386243386246 21.7989417989418,182.85714285714286 19.25925925925926,186.03174603174605" style="fill:none; stroke:#00aa99; stroke-width:1.0"  /><polyline points="19.25925925925926,186.03174603174605 17.98941798941799,182.22222222222223 17.77777777777778,181.5873015873016 17.566137566137566,180.95238095238096 17.354497354497354,180.31746031746033 17.142857142857146,179.6825396825397 16.931216931216934,179.04761904761907 16.71957671957672,178.41269841269843 16.50793650793651,177.7777777777778 16.296296296296298,177.14285714285717 16.084656084656086,176.50793650793653 15.873015873015873,175.87301587301587 15.661375661375663,175.23809523809524 15.449735449735451,174.6031746031746 15.238095238095239,173.96825396825398 15.026455026455027,173.33333333333334 15.026455026455027,172.6984126984127 14.603174603174605,172.27513227513228 14.603174603174605,171.64021164021165 14.17989417989418,171.21693121693124 13.96825396825397,170.58201058201058 13.756613756613758,169.94708994708995 13.544973544973546,169.31216931216932 13.333333333333334,168.67724867724868 13.121693121693122,168.04232804232805 12.910052910052912,167.40740740740742 12.6984126984127,166.7724867724868 12.486772486772487,166.13756613756615 12.275132275132275,165.50264550264552 12.063492063492065,164.8677248677249 11.851851851851853,164.23280423280426 11.640211640211641,163.59788359788362 11.428571428571429,162.96296296296296 11.216931216931219,162.32804232804233 11.005291005291006,161.6931216931217 10.793650793650794,161.05820105820106 10.582010582010582,160.42328042328043 10.370370370370372,159.7883597883598 10.15873015873016,159.15343915343917 9.947089947089948,158.51851851851853 9.735449735449736,157.8835978835979 9.735449735449736,157.24867724867727 9.523809523809524,156.61375661375664 9.312169312169313,155.978835978836 9.100529100529101,155.34391534391534 8.88888888888889,154.7089947089947 8.88888888888889,154.07407407407408 8.465608465608467,153.43915343915344 8.465608465608467,152.8042328042328 8.253968253968255,152.16931216931218 8.042328042328043,151.53439153439155 7.830687830687832,150.8994708994709 7.6190476190476195,150.26455026455028 7.407407407407408,149.62962962962965 7.407407407407408,148.99470899470901 7.195767195767196,148.35978835978838 7.195767195767196,147.72486772486775 6.984126984126985,147.0899470899471 6.984126984126985,146.45502645502646 6.984126984126985,145.82010582010582 6.984126984126985,145.1851851851852 6.984126984126985,144.55026455026456 6.984126984126985,143.91534391534393 6.984126984126985,143.2804232804233 6.984126984126985,142.64550264550266 6.772486772486773,142.01058201058203 6.984126984126985,141.3756613756614 6.984126984126985,140.74074074074076 7.195767195767196,140.10582010582013 7.195767195767196,139.47089947089947 7.407407407407408,138.83597883597884 7.830687830687832,138.2010582010582 8.253968253968255,137.56613756613757 8.677248677248677,137.14285714285717 9.100529100529101,136.5079365079365 9.735449735449736,136.0846560846561 10.370370370370372,135.87301587301587 11.005291005291006,135.66137566137567 11.640211640211641,135.44973544973547 12.275132275132275,135.44973544973547 12.910052910052912,135.44973544973547 13.544973544973546,135.44973544973547 14.17989417989418,135.44973544973547 14.814814814814817,135.44973544973547 15.449735449735451,135.44973544973547 16.084656084656086,135.66137566137567 16.71957671957672,135.66137566137567 17.354497354497354,135.66137566137567 17.98941798941799,135.87301587301587 18.624338624338627,135.87301587301587 19.25925925925926,135.87301587301587 19.894179894179896,136.0846560846561 20.529100529100532,136.0846560846561 21.164021164021165,136.2962962962963 21.7989417989418,136.2962962962963 22.433862433862437,136.5079365079365 23.06878306878307,136.71957671957674 23.703703703703706,136.71957671957674 24.338624338624342,136.93121693121694 24.973544973544975,137.14285714285717 25.60846560846561,137.14285714285717 26.243386243386244,137.14285714285717 26.87830687830688,137.35449735449737 27.513227513227516,137.56613756613757 28.14814814814815,137.7777777777778 28.783068783068785,137.989417989418 29.41798941798942,138.2010582010582 30.052910052910054,138.41269841269843 30.68783068783069,138.62433862433863 31.322751322751326,138.83597883597884 31.95767195767196,139.04761904761907 32.592592592592595,139.25925925925927 33.22751322751323,139.47089947089947 33.86243386243387,139.47089947089947 34.4973544973545,139.8941798941799 35.13227513227513,139.8941798941799 35.76719576719577,140.10582010582013 36.402116402116405,140.31746031746033 37.03703703703704,140.31746031746033 37.67195767195768,140.52910052910053 38.30687830687831,140.74074074074076 38.94179894179894,140.95238095238096 39.57671957671958,140.95238095238096 40.211640211640216,141.16402116402116 40.84656084656085,141.16402116402116 41.48148148148149,141.16402116402116 42.11640211640212,141.3756613756614 42.75132275132275,141.5873015873016 43.386243386243386,141.5873015873016 44.021164021164026,141.5873015873016 44.65608465608466,141.5873015873016 45.29100529100529,141.5873015873016 45.92592592592593,141.7989417989418 46.560846560846564,141.5873015873016 47.195767195767196,141.5873015873016 47.830687830687836,141.5873015873016 48.46560846560847,141.3756613756614 49.1005291005291,141.16402116402116 49.73544973544974,140.74074074074076 50.370370370370374,140.52910052910053 51.00529100529101,140.10582010582013 51.42857142857143,139.6825396825397 52.06349206349207,139.47089947089947 52.48677248677249,139.04761904761907 52.91005291005291,138.62433862433863 53.333333333333336,137.989417989418 53.54497354497355,137.35449735449737 53.968253968253975,136.71957671957674 53.968253968253975,136.0846560846561 54.39153439153439,135.44973544973547 54.60317460317461,134.81481481481484 54.81481481481482,134.17989417989418 55.02645502645503,133.54497354497354 55.23809523809524,132.9100529100529 55.449735449735456,132.27513227513228 55.661375661375665,131.64021164021165 55.87301587301588,131.005291005291 55.87301587301588,130.37037037037038 56.08465608465609,129.73544973544975 56.08465608465609,129.10052910052912 56.08465608465609,128.46560846560848 56.2962962962963,127.83068783068784 56.2962962962963,127.1957671957672 56.08465608465609,126.56084656084657 56.08465608465609,125.92592592592594 56.08465608465609,125.2910052910053 56.08465608465609,124.65608465608466 56.08465608465609,124.02116402116403 55.87301587301588,123.3862433862434 55.661375661375665,122.75132275132276 55.661375661375665,122.11640211640213 55.449735449735456,121.4814814814815 55.449735449735456,120.84656084656086 55.23809523809524,120.21164021164022 55.02645502645503,119.57671957671958 54.81481481481482,118.94179894179895 54.60317460317461,118.30687830687832 54.39153439153439,117.67195767195768 54.179894179894184,117.03703703703705 53.968253968253975,116.4021164021164 53.75661375661376,115.76719576719577 53.54497354497355,115.13227513227514 53.333333333333336,114.49735449735451 53.12169312169313,113.86243386243387 52.91005291005291,113.22751322751324 52.6984126984127,112.5925925925926 52.27513227513228,111.95767195767196 52.06349206349207,111.32275132275133 51.640211640211646,110.6878306878307 51.21693121693122,110.05291005291006 50.7936507936508,109.41798941798943 50.370370370370374,108.78306878306879 49.94708994708995,108.14814814814815 49.523809523809526,107.72486772486774 49.1005291005291,107.0899470899471 48.677248677248684,106.66666666666667 48.25396825396826,106.24338624338625 47.61904761904762,105.82010582010582 47.195767195767196,105.3968253968254 46.560846560846564,105.18518518518519 46.13756613756614,104.76190476190477 45.50264550264551,104.55026455026456 44.867724867724874,104.12698412698414 44.232804232804234,103.91534391534393 43.5978835978836,103.70370370370371 42.96296296296297,103.4920634920635 42.32804232804233,103.28042328042329 41.6931216931217,103.28042328042329 41.058201058201064,103.28042328042329 40.423280423280424,103.06878306878308 39.78835978835979,103.28042328042329 39.15343915343916,103.28042328042329 38.51851851851852,103.28042328042329 37.883597883597886,103.28042328042329 37.248677248677254,103.4920634920635 36.613756613756614,103.70370370370371 35.97883597883598,103.91534391534393 35.34391534391535,104.12698412698414 34.70899470899471,104.33862433862434 34.074074074074076,104.55026455026456 33.43915343915344,104.76190476190477 32.804232804232804,105.18518518518519 32.16931216931217,105.3968253968254 31.53439153439154,105.82010582010582 30.899470899470902,106.03174603174604 30.264550264550266,106.45502645502647 29.629629629629633,106.87830687830689 28.994708994708997,107.0899470899471 28.571428571428573,107.51322751322752 27.93650793650794,107.93650793650795 27.513227513227516,108.35978835978837 26.87830687830688,108.78306878306879 26.243386243386244,109.20634920634922 25.820105820105823,109.62962962962963 25.3968253968254,110.26455026455027 24.973544973544975,110.6878306878307 24.338624338624342,111.11111111111111 23.915343915343918,111.53439153439155 23.280423280423282,111.95767195767196 22.857142857142858,112.3809523809524 22.433862433862437,112.80423280423281 21.7989417989418,113.22751322751324 21.164021164021165,113.65079365079366 20.529100529100532,114.07407407407408 19.894179894179896,114.49735449735451 19.25925925925926,114.70899470899472 18.624338624338627,114.92063492063492 17.98941798941799,114.92063492063492 17.354497354497354,114.92063492063492 16.71957671957672,114.92063492063492 16.084656084656086,114.70899470899472 15.449735449735451,114.49735449735451 14.814814814814817,114.07407407407408 14.391534391534393,113.65079365079366 13.96825396825397,113.22751322751324 13.544973544973546,112.80423280423281 13.121693121693122,112.16931216931218 12.910052910052912,111.53439153439155 12.6984126984127,110.89947089947091 12.486772486772487,110.26455026455027 12.275132275132275,109.62962962962963 12.063492063492065,108.994708994709 11.851851851851853,108.35978835978837 11.640211640211641,107.72486772486774 11.428571428571429,107.0899470899471 11.428571428571429,106.45502645502647 11.216931216931219,105.82010582010582 11.005291005291006,105.18518518518519 10.793650793650794,104.55026455026456 10.793650793650794,103.91534391534393 10.582010582010582,103.28042328042329 10.370370370370372,102.64550264550266 10.370370370370372,102.01058201058201 9.947089947089948,101.5873015873016 9.947089947089948,100.95238095238096 9.947089947089948,100.31746031746033 9.735449735449736,99.68253968253968 9.523809523809524,99.04761904761905 9.523809523809524,98.41269841269842 9.523809523809524,97.77777777777779 9.312169312169313,97.14285714285715 9.312169312169313,96.50793650793652 9.100529100529101,95.87301587301587 9.100529100529101,95.23809523809524 9.100529100529101,94.60317460317461 9.100529100529101,93.96825396825398 8.88888888888889,93.33333333333334 8.677248677248677,92.69841269841271 8.677248677248677,92.06349206349208 8.465608465608467,91.42857142857143 8.465608465608467,90.7936507936508 8.253968253968255,90.15873015873017 8.253968253968255,89.52380952380953 8.253968253968255,88.8888888888889 8.042328042328043,88.25396825396827 7.830687830687832,87.61904761904762 7.830687830687832,86.98412698412699 7.830687830687832,86.34920634920636 7.6190476190476195,85.71428571428572 7.6190476190476195,85.07936507936509 7.407407407407408,84.44444444444446 7.407407407407408,83.80952380952381 7.407407407407408,83.17460317460318 7.407407407407408,82.53968253968254 7.195767195767196,81.90476190476191 6.984126984126985,81.26984126984128 6.984126984126985,80.63492063492065 6.984126984126985,80.0 6.772486772486773,79.36507936507937 6.772486772486773,78.73015873015873 6.772486772486773,78.0952380952381 6.560846560846561,77.46031746031747 6.34920634920635,76.82539682539684 6.34920634920635,76.19047619047619 6.34920634920635,75.55555555555556 6.137566137566138,74.92063492063492 6.137566137566138,74.28571428571429 6.137566137566138,73.65079365079366 6.137566137566138,73.01587301587303 5.9259259259259265,72.38095238095238 5.9259259259259265,71.74603174603175 5.714285714285714,71.11111111111111 5.714285714285714,70.47619047619048 5.714285714285714,69.84126984126985 5.502645502645503,69.20634920634922 5.291005291005291,68.57142857142858 5.291005291005291,67.93650793650794 5.291005291005291,67.3015873015873 5.07936507936508,66.66666666666667 4.867724867724868,66.03174603174604 4.656084656084657,65.3968253968254 4.444444444444445,64.76190476190477 4.2328042328042335,64.12698412698413 4.2328042328042335,63.492063492063494 4.021164021164021,62.85714285714286 3.8095238095238098,62.22222222222223 3.597883597883598,61.58730158730159 3.3862433862433865,60.952380952380956 2.9629629629629632,60.31746031746032 2.7513227513227516,59.682539682539684 2.53968253968254,59.04761904761905 2.3280423280423284,58.41269841269842 1.9047619047619049,57.777777777777786 1.6931216931216932,57.142857142857146 0.21164021164021166,53.333333333333336" style="fill:none; stroke:#3300bb; stroke-width:1.0"  /><circle cx="0.21164021164021166" cy="53.333333333333336" r="2.0" style="fill:none; stroke:#000000aa; stroke-width:0.25" /><circle cx="115.76719576719577" cy="16.931216931216934" r="2.0" style="fill:none; stroke:#000000aa; stroke-width:0.25" /><circle cx="155.34391534391534" cy="140.74074074074076" r="2.0" style="fill:none; stroke:#000000aa; stroke-width:0.25" /><circle cx="19.25925925925926" cy="186.03174603174605" r="2.0" style="fill:none; stroke:#000000aa; stroke-width:0.25" /><circle cx="0.21164021164021166" cy="53.968253968253975" r="2.0" style="fill:none; stroke:#ff3366aa; stroke-width:0.25" /><circle cx="114.92063492063492" cy="17.142857142857146" r="2.0" style="fill:none; stroke:#ff3366aa; stroke-width:0.25" /><circle cx="154.7089947089947" cy="140.31746031746033" r="2.0" style="fill:none; stroke:#ff3366aa; stroke-width:0.25" /><circle cx="19.47089947089947" cy="184.973544973545" r="2.0" style="fill:none; stroke:#ff3366aa; stroke-width:0.25" /><polyline points="10.582010582010582,48.042328042328045 9.947089947089948,48.25396825396826 9.312169312169313,48.677248677248684 8.677248677248677,49.1005291005291 8.042328042328043,49.1005291005291 7.407407407407408,49.523809523809526 6.772486772486773,49.73544973544974 6.34920634920635,50.158730158730165 5.714285714285714,50.370370370370374 5.07936507936508,50.7936507936508 4.444444444444445,51.00529100529101 4.021164021164021,51.42857142857143 3.3862433862433865,51.851851851851855 2.7513227513227516,52.06349206349207" style="fill:none; stroke:#001100; stroke-width:1.0" /><polyline points="4.444444444444445,64.76190476190477 4.2328042328042335,64.12698412698413 4.2328042328042335,63.492063492063494 4.021164021164021,62.85714285714286 3.8095238095238098,62.22222222222223 3.597883597883598,61.58730158730159 3.3862433862433865,60.952380952380956 2.9629629629629632,60.31746031746032 2.7513227513227516,59.682539682539684 2.53968253968254,59.04761904761905 2.3280423280423284,58.41269841269842 1.9047619047619049,57.777777777777786 1.6931216931216932,57.142857142857146" style="fill:none; stroke:#000011; stroke-width:1.0" /><polyline points="118.30687830687832,28.35978835978836 118.30687830687832,27.724867724867728 118.0952380952381,27.089947089947092 117.88359788359789,26.455026455026456 117.88359788359789,25.820105820105823 117.67195767195768,25.185185185185187 117.67195767195768,24.55026455026455 117.46031746031747,23.915343915343918 117.24867724867725,23.280423280423282 117.03703703703705,22.645502645502646 116.82539682539684,22.010582010582013 116.61375661375662,21.375661375661377 116.4021164021164,20.740740740740744 116.4021164021164,20.105820105820108" style="fill:none; stroke:#001100; stroke-width:1.0" /><polyline points="104.55026455026456,22.857142857142858 105.18518518518519,22.645502645502646 105.82010582010582,22.222222222222225 106.45502645502647,21.7989417989418 107.0899470899471,21.375661375661377 107.72486772486774,21.164021164021165 108.35978835978837,20.740740740740744 108.994708994709,20.529100529100532 109.62962962962963,20.105820105820108 110.26455026455027,19.894179894179896 110.89947089947091,19.47089947089947 111.53439153439155,19.047619047619047 112.16931216931218,18.83597883597884" style="fill:none; stroke:#000011; stroke-width:1.0" /><polyline points="143.4920634920635,142.85714285714286 144.12698412698413,142.64550264550266 144.76190476190476,142.64550264550266 145.39682539682542,142.64550264550266 146.03174603174605,142.43386243386246 146.66666666666669,142.43386243386246 147.30158730158732,142.22222222222223 147.93650793650795,142.22222222222223 148.57142857142858,142.01058201058203 149.20634920634922,141.7989417989418 149.84126984126985,141.7989417989418 150.47619047619048,141.5873015873016 151.11111111111111,141.5873015873016 151.74603174603175,141.3756613756614" style="fill:none; stroke:#001100; stroke-width:1.0" /><polyline points="149.84126984126985,129.31216931216932 150.26455026455028,129.94708994708995 150.47619047619048,130.58201058201058 150.6878306878307,131.21693121693121 150.8994708994709,131.85185185185185 151.32275132275134,132.4867724867725 151.74603174603175,133.12169312169314 151.95767195767198,133.75661375661377 152.16931216931218,134.3915343915344 152.38095238095238,135.02645502645504 152.5925925925926,135.66137566137567 153.01587301587304,136.2962962962963 153.43915343915344,136.93121693121694" style="fill:none; stroke:#000011; stroke-width:1.0" /><polyline points="15.238095238095239,173.96825396825398 15.449735449735451,174.6031746031746 15.661375661375663,175.23809523809524 15.873015873015873,175.87301587301587 16.084656084656086,176.50793650793653 16.296296296296298,177.14285714285717 16.50793650793651,177.7777777777778 16.71957671957672,178.41269841269843 16.931216931216934,179.04761904761907 17.142857142857146,179.6825396825397 17.354497354497354,180.31746031746033 17.566137566137566,180.95238095238096 17.77777777777778,181.5873015873016 17.98941798941799,182.22222222222223" style="fill:none; stroke:#001100; stroke-width:1.0" /><polyline points="27.089947089947092,176.2962962962963 26.666666666666668,176.71957671957674 26.243386243386244,177.14285714285717 26.031746031746035,177.7777777777778 25.60846560846561,178.2010582010582 25.185185185185187,178.62433862433863 24.761904761904763,179.25925925925927 24.338624338624342,179.6825396825397 23.915343915343918,180.31746031746033 23.492063492063494,180.74074074074076 23.06878306878307,181.3756613756614 22.645502645502646,181.79894179894183 22.222222222222225,182.43386243386246 21.7989417989418,182.85714285714286" style="fill:none; stroke:#000011; stroke-width:1.0" /><polyline points="2.7513227513227516,52.06349206349207 -16.084656084656086,61.798941798941804" style="fill:none; stroke:#ffaa00; stroke-width:0.4" /><polyline points="1.6931216931216932,57.142857142857146 -5.502645502645503,37.248677248677254" style="fill:none; stroke:#aaff00; stroke-width:0.4" /><polyline points="116.4021164021164,20.105820105820108 111.74603174603176,-0.4232804232804233" style="fill:none; stroke:#ffaa00; stroke-width:0.4" /><polyline points="112.16931216931218,18.83597883597884 130.7936507936508,8.88888888888889" style="fill:none; stroke:#aaff00; stroke-width:0.4" /><polyline points="151.74603174603175,141.3756613756614 172.4867724867725,137.56613756613757" style="fill:none; stroke:#ffaa00; stroke-width:0.4" /><polyline points="153.43915343915344,136.93121693121694 162.53968253968256,155.978835978836" style="fill:none; stroke:#aaff00; stroke-width:0.4" /><polyline points="17.98941798941799,182.22222222222223 24.761904761904763,202.32804232804233" style="fill:none; stroke:#ffaa00; stroke-width:0.4" /><polyline points="21.7989417989418,182.85714285714286 8.465608465608467,199.36507936507937" style="fill:none; stroke:#aaff00; stroke-width:0.4" /><circle cx="76.19047619047619" cy="88.67724867724868" r="1.0" style="fill:#444444; stroke-width:0" /><circle cx="80.63492063492065" cy="72.80423280423281" r="10.582010582010582" style="fill:#ff770022; stroke-width:0" /><circle cx="80.63492063492065" cy="72.80423280423281" r="1.0" style="fill:#ff7700; stroke-width:0" /></svg>