<?xml version="1.0" encoding="UTF-8" standalone="no"?><svg width="575.8730158730159" height="612.0634920634922" viewBox="-10 -10 211.95767195767198 224.02116402116403" xmlns="http://www.w3.org/2000/svg" xmlns:xlink="http://www.w3.org/1999/xlink"><polyline points="66.45502645502646,15.026455026455027 69.84126984126985,17.142857142857146 70.47619047619048,17.354497354497354 70.8994708994709,17.77777777777778 71.53439153439155,18.201058201058203 72.16931216931218,18.412698412698415 72.5925925925926,18.83597883597884 73.22751322751323,19.047619047619047 73.86243386243387,19.47089947089947 74.49735449735451,19.894179894179896 74.92063492063492,20.31746031746032 75.55555555555556,20.740740740740744 76.19047619047619,21.164021164021165 76.82539682539684,21.58730158730159 77.24867724867725,22.010582010582013 77.88359788359789,22.433862433862437 78.30687830687832,22.857142857142858 78.94179894179895,23.280423280423282 79.57671957671958,23.703703703703706 80.21164021164022,24.12698412698413 80.63492063492065,24.55026455026455 81.26984126984128,24.973544973544975 81.90476190476191,25.3968253968254 82.53968253968254,25.820105820105823 83.17460317460318,26.243386243386244 83.59788359788361,26.666666666666668 84.23280423280424,26.87830687830688 84.65608465608466,27.301587301587304 85.29100529100529,27.724867724867728 85.92592592592594,28.14814814814815 86.34920634920636,28.571428571428573 86.98412698412699,28.994708994708997 87.40740740740742,29.41798941798942 88.04232804232805,29.841269841269842 88.67724867724868,30.264550264550266 89.31216931216932,30.68783068783069 89.94708994708995,31.111111111111114 90.37037037037038,31.53439153439154 91.00529100529101,31.95767195767196 91.64021164021165,32.38095238095239 92.27513227513228,32.804232804232804 92.91005291005291,33.22751322751323 93.33333333333334,33.65079365079365 93.75661375661376,34.074074074074076 94.39153439153439,34.4973544973545 95.02645502645504,34.920634920634924 95.66137566137567,35.34391534391535 96.2962962962963,35.76719576719577 96.93121693121694,35.97883597883598 97.56613756613757,36.402116402116405 98.2010582010582,36.613756613756614 98.83597883597885,36.82539682539683 99.47089947089948,37.03703703703704 100.10582010582011,37.248677248677254 100.74074074074075,37.248677248677254 101.37566137566138,37.248677248677254 102.01058201058201,37.248677248677254 102.64550264550266,37.248677248677254 103.28042328042329,37.03703703703704 103.91534391534393,36.82539682539683 104.55026455026456,36.82539682539683 105.18518518518519,36.402116402116405 105.82010582010582,35.97883597883598 106.45502645502647,35.55555555555556 106.87830687830689,35.13227513227513 107.3015873015873,34.4973544973545 107.72486772486774,34.074074074074076 107.93650793650795,33.43915343915344 108.35978835978837,33.01587301587302 108.78306878306879,32.38095238095239 108.994708994709,31.746031746031747 109.20634920634922,31.111111111111114 109.62962962962963,30.476190476190478 109.62962962962963,29.841269841269842 109.62962962962963,29.20634920634921 109.84126984126985,28.571428571428573 109.62962962962963,27.93650793650794 109.62962962962963,27.301587301587304 109.62962962962963,26.666666666666668 109.41798941798943,26.031746031746035 109.41798941798943,25.3968253968254 109.20634920634922,24.761904761904763 109.20634920634922,24.12698412698413 108.994708994709,23.492063492063494 108.78306878306879,22.857142857142858 108.57142857142858,22.222222222222225 108.35978835978837,21.58730158730159 108.14814814814815,20.952380952380953 107.93650793650795,20.31746031746032 107.72486772486774,19.682539682539684 107.51322751322752,19.047619047619047 107.3015873015873,18.412698412698415 106.87830687830689,17.77777777777778 106.87830687830689,17.142857142857146 106.66666666666667,16.50793650793651 106.66666666666667,15.873015873015873 106.66666666666667,15.238095238095239 106.66666666666667,14.603174603174605 106.66666666666667,13.96825396825397 106.66666666666667,13.333333333333334 106.66666666666667,12.6984126984127 106.87830687830689,12.063492063492065 106.87830687830689,11.428571428571429 107.0899470899471,10.793650793650794 107.0899470899471,10.15873015873016 107.3015873015873,9.523809523809524 107.51322751322752,8.88888888888889 107.72486772486774,8.253968253968255 107.93650793650795,7.6190476190476195 108.35978835978837,6.984126984126985 108.78306878306879,6.34920634920635 109.20634920634922,5.714285714285714 109.62962962962963,5.291005291005291 110.05291005291006,4.656084656084657 110.47619047619048,4.2328042328042335 110.89947089947091,3.8095238095238098 111.32275132275133,3.174603174603175 111.95767195767196,2.7513227513227516 112.5925925925926,2.3280423280423284 113.22751322751324,2.1164021164021167 113.65079365079366,1.6931216931216932 114.28571428571429,1.4814814814814816 114.92063492063492,1.26984126984127 115.55555555555557,1.0582010582010584 116.1904761904762,1.26984126984127 116.61375661375662,0.8465608465608466 117.24867724867725,1.0582010582010584 117.67195767195768,0.634920634920635 118.30687830687832,0.634920634920635 118.94179894179895,0.634920634920635 119.57671957671958,0.4232804232804233 120.21164021164022,0.21164021164021166 120.84656084656086,0.21164021164021166 121.4814814814815,0.4232804232804233 122.11640211640213,0.21164021164021166 122.75132275132276,0.21164021164021166 123.3862433862434,0.4232804232804233 124.02116402116403,0.634920634920635 124.65608465608466,0.634920634920635 125.2910052910053,0.634920634920635 125.92592592592594,0.634920634920635 126.56084656084657,0.634920634920635 126.98412698412699,1.0582010582010584 127.61904761904763,1.0582010582010584 128.25396825396825,1.0582010582010584 128.88888888888889,1.0582010582010584 129.52380952380955,1.26984126984127 130.15873015873018,1.26984126984127 130.7936507936508,1.4814814814814816 131.42857142857144,1.6931216931216932 132.06349206349208,1.9047619047619049 132.6984126984127,2.1164021164021167 133.33333333333334,2.1164021164021167 133.96825396825398,2.53968253968254 134.6031746031746,2.7513227513227516 135.23809523809524,3.174603174603175 135.87301587301587,3.3862433862433865 136.5079365079365,3.597883597883598 136.93121693121694,4.021164021164021 137.56613756613757,4.444444444444445 138.2010582010582,4.867724867724868 138.62433862433863,5.291005291005291 139.25925925925927,5.714285714285714 139.6825396825397,6.137566137566138 140.10582010582013,6.772486772486773 140.52910052910053,7.195767195767196 140.95238095238096,7.6190476190476195 141.3756613756614,8.042328042328043 141.5873015873016,8.677248677248677 142.01058201058203,9.100529100529101 142.22222222222223,9.735449735449736 142.64550264550266,10.370370370370372 143.0687830687831,11.005291005291006 143.2804232804233,11.640211640211641 143.4920634920635,12.275132275132275 143.70370370370372,12.910052910052912 143.91534391534393,13.544973544973546 143.91534391534393,14.17989417989418 143.91534391534393,14.814814814814817 144.33862433862436,15.449735449735451 144.33862433862436,16.084656084656086 144.33862433862436,16.71957671957672 144.33862433862436,17.354497354497354 144.55026455026456,17.98941798941799 144.55026455026456,18.624338624338627 144.55026455026456,19.25925925925926 144.55026455026456,19.894179894179896 144.55026455026456,20.529100529100532 144.33862433862436,21.164021164021165 143.91534391534393,21.58730158730159 143.4920634920635,22.222222222222225 143.2804232804233,22.857142857142858 142.85714285714286,23.492063492063494 142.64550264550266,24.12698412698413 142.22222222222223,24.761904761904763 142.01058201058203,25.3968253968254 141.5873015873016,25.820105820105823 141.16402116402116,26.455026455026456 140.74074074074076,27.089947089947092 140.31746031746033,27.724867724867728 139.8941798941799,28.35978835978836 139.47089947089947,28.783068783068785 139.04761904761907,29.20634920634921 138.62433862433863,29.841269841269842 138.2010582010582,30.264550264550266 137.7777777777778,30.899470899470902 137.35449735449737,31.53439153439154 136.93121693121694,31.95767195767196 136.5079365079365,32.38095238095239 136.0846560846561,33.01587301587302 135.66137566137567,33.43915343915344 135.44973544973547,34.074074074074076 135.02645502645504,34.4973544973545 134.6031746031746,35.13227513227513 134.3915343915344,35.76719576719577 134.17989417989418,36.402116402116405 133.96825396825398,37.03703703703704 133.75661375661377,37.67195767195768 133.54497354497354,38.30687830687831 133.54497354497354,38.94179894179894 133.54497354497354,39.57671957671958 133.33333333333334,40.211640211640216 133.12169312169314,40.84656084656085 133.12169312169314,41.48148148148149 133.33333333333334,42.11640211640212 133.54497354497354,42.75132275132275 133.54497354497354,43.386243386243386 133.75661375661377,44.021164021164026 133.96825396825398,44.65608465608466 134.3915343915344,45.07936507936508 134.6031746031746,45.714285714285715 135.02645502645504,46.349206349206355 135.44973544973547,46.77248677248678 135.87301587301587,47.195767195767196 136.2962962962963,47.61904761904762 136.71957671957674,48.042328042328045 137.35449735449737,48.46560846560847 137.989417989418,48.677248677248684 138.62433862433863,48.88888888888889 139.25925925925927,49.1005291005291 139.8941798941799,49.1005291005291 140.52910052910053,49.31216931216932 141.16402116402116,49.31216931216932 141.7989417989418,49.1005291005291 142.43386243386246,49.31216931216932 143.0687830687831,49.1005291005291 143.70370370370372,48.677248677248684 144.33862433862436,48.677248677248684 144.973544973545,48.46560846560847 145.60846560846562,48.677248677248684 146.24338624338625,48.46560846560847 146.8783068783069,48.25396825396826 147.51322751322752,48.25396825396826 148.14814814814815,48.042328042328045 148.78306878306879,48.042328042328045 149.41798941798942,47.830687830687836 150.05291005291005,47.830687830687836 150.6878306878307,47.830687830687836 151.32275132275134,47.61904761904762 151.95767195767198,47.61904761904762 152.5925925925926,47.40740740740741 153.22751322751324,47.40740740740741 153.86243386243387,47.195767195767196 154.4973544973545,47.195767195767196 155.13227513227514,47.195767195767196 155.76719576719577,47.195767195767196 156.1904761904762,46.77248677248678 156.82539682539684,46.98412698412699 157.46031746031747,46.77248677248678 158.0952380952381,46.77248677248678 158.73015873015873,46.98412698412699 159.36507936507937,46.98412698412699 160.0,46.98412698412699 160.63492063492066,46.98412698412699 161.2698412698413,46.98412698412699 161.90476190476193,46.98412698412699 162.53968253968256,46.98412698412699 163.1746031746032,47.195767195767196 163.80952380952382,47.195767195767196 164.44444444444446,47.195767195767196 165.0793650793651,47.40740740740741 165.71428571428572,47.40740740740741 166.34920634920636,47.61904761904762 166.984126984127,47.830687830687836 167.61904761904762,47.830687830687836 168.25396825396825,48.042328042328045 168.8888888888889,48.25396825396826 169.52380952380955,48.25396825396826 170.15873015873018,48.677248677248684 170.7936507936508,48.88888888888889 171.42857142857144,49.1005291005291 172.06349206349208,49.31216931216932 172.6984126984127,49.523809523809526 173.33333333333334,49.73544973544974 173.96825396825398,49.94708994708995 174.6031746031746,50.370370370370374 175.23809523809524,50.58201058201058 175.87301587301587,50.7936507936508 176.50793650793653,51.00529100529101 177.14285714285717,51.42857142857143 177.7777777777778,51.640211640211646 178.41269841269843,51.851851851851855 179.04761904761907,52.27513227513228 179.6825396825397,52.48677248677249 180.31746031746033,52.6984126984127 180.95238095238096,52.91005291005291 181.3756613756614,53.333333333333336 182.01058201058203,53.54497354497355 182.64550264550266,53.968253968253975 183.2804232804233,54.179894179894184 183.70370370370372,54.60317460317461 184.33862433862436,55.02645502645503 184.973544973545,55.23809523809524 185.60846560846562,55.661375661375665 186.24338624338625,56.08465608465609 186.8783068783069,56.50793650793651 187.51322751322752,56.71957671957672 187.93650793650795,57.142857142857146 188.57142857142858,57.56613756613757 192.16931216931218,59.682539682539684" style="fill:none; stroke:#cc0000; stroke-width:1.0"  /><polyline points="192.16931216931218,59.682539682539684 189.41798941798945,61.798941798941804 188.99470899470901,62.22222222222223 188.35978835978838,62.64550264550265 187.72486772486775,63.06878306878308 187.30158730158732,63.492063492063494 186.66666666666669,63.91534391534392 186.24338624338625,64.33862433862434 185.60846560846562,64.76190476190477 184.973544973545,65.18518518518519 184.55026455026456,65.60846560846561 183.91534391534393,66.03174603174604 183.2804232804233,66.45502645502646 182.85714285714286,66.87830687830689 182.22222222222223,67.3015873015873 181.79894179894183,67.72486772486774 181.16402116402116,68.14814814814815 180.74074074074076,68.57142857142858 180.31746031746033,68.994708994709 179.6825396825397,69.41798941798942 179.25925925925927,69.84126984126985 178.83597883597884,70.26455026455027 178.41269841269843,70.6878306878307 177.7777777777778,71.11111111111111 177.35449735449737,71.74603174603175 176.93121693121694,72.16931216931218 176.50793650793653,72.5925925925926 176.0846560846561,73.01587301587303 175.44973544973547,73.43915343915344 175.02645502645504,73.86243386243387 174.6031746031746,74.49735449735451 174.1798941798942,74.92063492063492 173.54497354497354,75.34391534391536 173.12169312169314,75.76719576719577 172.6984126984127,76.19047619047619 172.27513227513228,76.61375661375662 171.85185185185188,77.03703703703704 171.42857142857144,77.46031746031747 171.005291005291,78.0952380952381 170.58201058201058,78.51851851851852 170.15873015873018,78.94179894179895 169.73544973544975,79.36507936507937 169.10052910052912,79.7883597883598 168.67724867724868,80.42328042328043 168.25396825396825,80.84656084656085 167.83068783068785,81.26984126984128 167.40740740740742,81.6931216931217 166.984126984127,82.32804232804233 166.56084656084658,82.75132275132276 166.13756613756615,83.17460317460318 165.71428571428572,83.59788359788361 165.2910052910053,84.02116402116403 164.8677248677249,84.65608465608466 164.44444444444446,85.29100529100529 164.02116402116403,85.71428571428572 163.59788359788362,86.34920634920636 163.1746031746032,86.77248677248677 162.75132275132276,87.1957671957672 162.32804232804233,87.83068783068784 162.11640211640213,88.46560846560847 161.6931216931217,88.8888888888889 161.2698412698413,89.52380952380953 160.84656084656086,90.15873015873017 160.42328042328043,90.58201058201058 160.0,91.00529100529101 159.5767195767196,91.64021164021165 159.15343915343917,92.27513227513228 158.73015873015873,92.91005291005291 158.30687830687833,93.54497354497356 157.8835978835979,93.96825396825398 157.46031746031747,94.60317460317461 157.03703703703704,95.23809523809524 156.61375661375664,95.87301587301587 156.1904761904762,96.50793650793652 155.76719576719577,97.14285714285715 155.34391534391534,97.56613756613757 154.92063492063494,98.2010582010582 154.4973544973545,98.83597883597885 154.07407407407408,99.47089947089948 153.65079365079367,100.10582010582011 153.43915343915344,100.74074074074075 153.01587301587304,101.16402116402116 152.5925925925926,101.79894179894181 152.16931216931218,102.22222222222223 151.95767195767198,102.85714285714286 151.53439153439155,103.28042328042329 151.11111111111111,103.91534391534393 150.6878306878307,104.55026455026456 150.47619047619048,105.18518518518519 150.05291005291005,105.82010582010582 149.62962962962965,106.45502645502647 149.20634920634922,107.0899470899471 148.99470899470901,107.72486772486774 148.57142857142858,108.35978835978837 148.14814814814815,108.994708994709 147.93650793650795,109.62962962962963 147.51322751322752,110.26455026455027 147.30158730158732,110.89947089947091 146.8783068783069,111.53439153439155 146.66666666666669,112.16931216931218 146.45502645502646,112.80423280423281 146.03174603174605,113.43915343915344 145.82010582010582,114.07407407407408 145.39682539682542,114.70899470899472 144.973544973545,115.34391534391536 144.76190476190476,115.97883597883599 144.55026455026456,116.61375661375662 144.33862433862436,117.24867724867725 143.91534391534393,117.88359788359789 143.70370370370372,118.51851851851853 143.4920634920635,119.15343915343917 143.2804232804233,119.7883597883598 143.0687830687831,120.42328042328043 142.85714285714286,121.05820105820106 142.85714285714286,121.6931216931217 142.43386243386246,122.32804232804234 142.43386243386246,122.96296296296298 142.22222222222223,123.59788359788361 142.01058201058203,124.23280423280424 141.7989417989418,124.86772486772487 141.5873015873016,125.5026455026455 141.5873015873016,126.13756613756615 141.3756613756614,126.77248677248679 141.16402116402116,127.40740740740742 141.16402116402116,128.04232804232805 140.95238095238096,128.67724867724868 140.74074074074076,129.31216931216932 140.74074074074076,129.94708994708995 140.74074074074076,130.58201058201058 140.52910052910053,131.21693121693121 140.52910052910053,131.85185185185185 140.52910052910053,132.4867724867725 140.52910052910053,133.12169312169314 140.31746031746033,133.75661375661377 140.31746031746033,134.3915343915344 140.52910052910053,135.02645502645504 140.52910052910053,135.66137566137567 140.95238095238096,136.2962962962963 141.3756613756614,136.93121693121694 141.7989417989418,137.56613756613757 142.22222222222223,137.989417989418 142.64550264550266,138.41269841269843 143.0687830687831,138.83597883597884 143.70370370370372,139.04761904761907 144.33862433862436,139.25925925925927 144.973544973545,139.6825396825397 145.60846560846562,139.6825396825397 146.24338624338625,139.8941798941799 146.8783068783069,139.8941798941799 147.51322751322752,139.8941798941799 148.14814814814815,139.8941798941799 148.78306878306879,139.8941798941799 149.41798941798942,139.8941798941799 150.05291005291005,139.8941798941799 150.6878306878307,139.8941798941799 151.32275132275134,139.8941798941799 151.95767195767198,139.6825396825397 152.5925925925926,139.6825396825397 153.22751322751324,139.47089947089947 153.86243386243387,139.47089947089947 154.4973544973545,139.25925925925927 155.13227513227514,139.25925925925927 155.76719576719577,138.83597883597884 156.4021164021164,138.83597883597884 157.03703703703704,138.62433862433863 157.67195767195767,138.41269841269843 158.30687830687833,138.41269841269843 158.94179894179896,138.2010582010582 159.5767195767196,137.989417989418 160.21164021164023,137.7777777777778 160.84656084656086,137.7777777777778 161.4814814814815,137.56613756613757 162.11640211640213,137.35449735449737 162.75132275132276,137.35449735449737 163.3862433862434,137.35449735449737 164.02116402116403,137.14285714285717 164.65608465608466,136.93121693121694 165.2910052910053,137.14285714285717 165.92592592592595,137.14285714285717 166.56084656084658,137.14285714285717 167.19576719576722,137.14285714285717 167.83068783068785,137.14285714285717 168.46560846560848,137.14285714285717 169.10052910052912,137.14285714285717 169.73544973544975,137.35449735449737 170.37037037037038,137.35449735449737 171.005291005291,137.56613756613757 171.64021164021165,137.7777777777778 172.27513227513228,137.989417989418 172.9100529100529,138.2010582010582 173.33333333333334,138.62433862433863 173.96825396825398,139.04761904761907 174.6031746031746,139.47089947089947 175.02645502645504,140.10582010582013 175.44973544973547,140.52910052910053 175.66137566137567,141.16402116402116 175.87301587301587,141.7989417989418 176.0846560846561,142.43386243386246 176.2962962962963,143.0687830687831 176.50793650793653,143.70370370370372 176.71957671957674,144.33862433862436 176.93121693121694,144.973544973545 177.14285714285717,145.60846560846562 177.35449735449737,146.24338624338625 177.35449735449737,146.8783068783069 177.56613756613757,147.51322751322752 177.7777777777778,148.14814814814815 177.7777777777778,148.78306878306879 177.7777777777778,149.41798941798942 177.989417989418,150.05291005291005 178.2010582010582,150.6878306878307 178.2010582010582,151.32275132275134 178.2010582010582,151.95767195767198 178.2010582010582,152.5925925925926 178.2010582010582,153.22751322751324 178.2010582010582,153.86243386243387 178.2010582010582,154.4973544973545 177.989417989418,155.13227513227514 177.989417989418,155.76719576719577 177.989417989418,156.4021164021164 177.7777777777778,157.03703703703704 177.56613756613757,157.67195767195767 177.56613756613757,158.30687830687833 177.56613756613757,158.94179894179896 177.35449735449737,159.5767195767196 177.35449735449737,160.21164021164023 176.93121693121694,160.84656084656086 176.93121693121694,161.4814814814815 176.71957671957674,162.11640211640213 176.50793650793653,162.75132275132276 176.2962962962963,163.3862433862434 176.0846560846561,164.02116402116403 175.87301587301587,164.65608465608466 175.66137566137567,165.2910052910053 175.44973544973547,165.92592592592595 175.23809523809524,166.56084656084658 175.02645502645504,167.19576719576722 174.81481481481484,167.83068783068785 174.3915343915344,168.46560846560848 174.1798941798942,169.10052910052912 173.75661375661377,169.73544973544975 173.54497354497354,170.37037037037038 173.33333333333334,171.005291005291 172.9100529100529,171.64021164021165 172.4867724867725,172.27513227513228 172.06349206349208,172.9100529100529 171.64021164021165,173.54497354497354 171.21693121693124,174.1798941798942 170.7936507936508,174.81481481481484 170.37037037037038,175.23809523809524 169.94708994708995,175.66137566137567 169.52380952380955,176.0846560846561 169.10052910052912,176.50793650793653 168.67724867724868,176.93121693121694 168.04232804232805,177.35449735449737 167.61904761904762,177.7777777777778 166.984126984127,178.2010582010582 166.34920634920636,178.62433862433863 165.71428571428572,178.83597883597884 165.0793650793651,178.83597883597884 164.44444444444446,179.04761904761907 163.80952380952382,179.04761904761907 163.1746031746032,179.04761904761907 162.53968253968256,179.04761904761907 161.90476190476193,179.04761904761907 161.2698412698413,178.83597883597884 160.63492063492066,178.62433862433863 160.0,178.41269841269843 159.36507936507937,178.2010582010582 158.73015873015873,177.7777777777778 158.0952380952381,177.35449735449737 157.46031746031747,176.93121693121694 156.82539682539684,176.50793650793653 156.1904761904762,176.0846560846561 155.76719576719577,175.66137566137567 155.13227513227514,175.23809523809524 154.7089947089947,174.81481481481484 154.2857142857143,174.3915343915344 153.86243386243387,173.75661375661377 153.43915343915344,173.33333333333334 153.01587301587304,172.9100529100529 152.5925925925926,172.4867724867725 152.16931216931218,172.06349206349208 151.74603174603175,171.42857142857144 151.32275132275134,170.7936507936508 150.8994708994709,170.15873015873018 150.47619047619048,169.52380952380955 150.05291005291005,168.8888888888889 149.62962962962965,168.46560846560848 149.20634920634922,167.83068783068785 148.78306878306879,167.19576719576722 148.35978835978838,166.56084656084658 147.93650793650795,165.92592592592595 147.51322751322752,165.2910052910053 147.0899470899471,164.65608465608466 146.66666666666669,164.23280423280426 146.24338624338625,163.59788359788362 145.82010582010582,163.1746031746032 145.39682539682542,162.53968253968256 144.973544973545,162.11640211640213 144.55026455026456,161.6931216931217 144.12698412698413,161.2698412698413 143.4920634920635,160.84656084656086 142.85714285714286,160.84656084656086 142.22222222222223,160.63492063492066 141.5873015873016,160.42328042328043 140.95238095238096,160.21164021164023 140.31746031746033,160.21164021164023 139.6825396825397,160.21164021164023 139.04761904761907,160.42328042328043 138.41269841269843,160.42328042328043 137.7777777777778,160.84656084656086 137.14285714285717,161.05820105820106 136.5079365079365,161.4814814814815 135.87301587301587,161.6931216931217 135.44973544973547,162.11640211640213 134.81481481481484,162.53968253968256 134.3915343915344,162.96296296296296 133.75661375661377,163.3862433862434 133.33333333333334,163.80952380952382 132.9100529100529,164.23280423280426 132.27513227513228,164.65608465608466 131.85185185185185,165.0793650793651 131.42857142857144,165.50264550264552 131.005291005291,165.92592592592595 130.58201058201058,166.34920634920636 130.15873015873018,166.7724867724868 129.52380952380955,167.19576719576722 129.10052910052912,167.61904761904762 128.67724867724868,168.04232804232805 128.25396825396825,168.46560846560848 127.83068783068784,168.8888888888889 127.40740740740742,169.31216931216932 126.98412698412699,169.73544973544975 126.56084656084657,170.37037037037038 126.13756613756615,170.7936507936508 125.71428571428572,171.21693121693124 125.2910052910053,171.64021164021165 124.86772486772487,172.27513227513228 124.44444444444446,172.6984126984127 124.02116402116403,173.12169312169314 123.59788359788361,173.75661375661377 123.17460317460318,174.1798941798942 122.75132275132276,174.6031746031746 122.32804232804234,175.02645502645504 121.90476190476191,175.66137566137567 121.4814814814815,176.0846560846561 121.05820105820106,176.71957671957674 120.63492063492065,177.14285714285717 120.21164021164022,177.7777777777778 119.7883597883598,178.2010582010582 119.36507936507937,178.83597883597884 118.94179894179895,179.4708994708995 118.51851851851853,179.8941798941799 118.0952380952381,180.52910052910053 117.67195767195768,181.16402116402116 117.24867724867725,181.79894179894183 116.82539682539684,182.43386243386246 116.4021164021164,183.0687830687831 116.1904761904762,183.70370370370372 115.76719576719577,184.33862433862436 115.34391534391536,184.973544973545 115.13227513227514,185.60846560846562 113.43915343915344,188.35978835978838" style="fill:none; stroke:#999900; stroke-width:1.0"  /><polyline points="113.43915343915344,188.35978835978838 110.26455026455027,186.66666666666669 109.62962962962963,186.24338624338625 108.994708994709,186.03174603174605 108.35978835978837,185.60846560846562 107.72486772486774,185.39682539682542 107.0899470899471,185.1851851851852 106.45502645502647,184.7619047619048 105.82010582010582,184.33862433862436 105.18518518518519,184.12698412698415 104.55026455026456,183.70370370370372 103.91534391534393,183.2804232804233 103.28042328042329,183.0687830687831 102.85714285714286,182.64550264550266 102.22222222222223,182.43386243386246 101.79894179894181,182.01058201058203 101.16402116402116,181.5873015873016 100.52910052910053,181.3756613756614 100.10582010582011,180.95238095238096 99.47089947089948,180.52910052910053 98.83597883597885,180.31746031746033 98.41269841269842,179.8941798941799 97.77777777777779,179.4708994708995 97.14285714285715,179.04761904761907 96.50793650793652,178.62433862433863 96.08465608465609,178.2010582010582 95.44973544973546,177.989417989418 95.02645502645504,177.56613756613757 94.39153439153439,177.14285714285717 93.75661375661376,176.71957671957674 93.33333333333334,176.2962962962963 92.69841269841271,175.87301587301587 92.06349206349208,175.44973544973547 91.42857142857143,175.02645502645504 91.00529100529101,174.6031746031746 90.37037037037038,174.1798941798942 89.94708994708995,173.75661375661377 89.31216931216932,173.33333333333334 88.67724867724868,172.9100529100529 88.25396825396827,172.4867724867725 87.61904761904762,172.06349206349208 87.1957671957672,171.64021164021165 86.56084656084657,171.21693121693124 85.92592592592594,170.7936507936508 85.29100529100529,170.37037037037038 84.86772486772487,169.94708994708995 84.23280423280424,169.73544973544975 83.80952380952381,169.31216931216932 83.17460317460318,168.8888888888889 82.53968253968254,168.67724867724868 82.11640211640213,168.25396825396825 81.48148148148148,168.04232804232805 80.84656084656085,167.61904761904762 80.21164021164022,167.19576719576722 79.57671957671958,166.984126984127 78.94179894179895,166.56084656084658 78.30687830687832,166.34920634920636 77.67195767195767,165.92592592592595 77.03703703703704,165.71428571428572 76.4021164021164,165.2910052910053 75.76719576719577,165.0793650793651 75.13227513227514,164.8677248677249 74.49735449735451,164.65608465608466 73.86243386243387,164.65608465608466 73.22751322751323,164.44444444444446 72.5925925925926,164.65608465608466 71.95767195767196,164.65608465608466 71.32275132275133,164.65608465608466 70.6878306878307,164.65608465608466 70.05291005291006,164.65608465608466 69.41798941798942,164.8677248677249 68.78306878306879,165.0793650793651 68.14814814814815,165.2910052910053 67.51322751322752,165.71428571428572 66.87830687830689,165.92592592592595 66.45502645502646,166.34920634920636 66.03174603174604,166.7724867724868 65.60846560846561,167.40740740740742 65.18518518518519,167.83068783068785 64.76190476190477,168.46560846560848 64.33862433862434,168.8888888888889 63.91534391534392,169.52380952380955 63.70370370370371,170.15873015873018 63.492063492063494,170.7936507936508 63.492063492063494,171.42857142857144 63.280423280423285,172.06349206349208 63.280423280423285,172.6984126984127 63.280423280423285,173.33333333333334 63.280423280423285,173.96825396825398 63.280423280423285,174.6031746031746 63.280423280423285,175.23809523809524 63.492063492063494,175.87301587301587 63.492063492063494,176.50793650793653 63.70370370370371,177.14285714285717 63.91534391534392,177.7777777777778 63.91534391534392,178.41269841269843 64.33862433862434,179.04761904761907 64.55026455026456,179.6825396825397 64.76190476190477,180.31746031746033 64.97354497354497,180.95238095238096 65.18518518518519,181.5873015873016 65.3968253968254,182.22222222222223 65.60846560846561,182.85714285714286 65.82010582010582,183.4920634920635 66.03174603174604,184.12698412698415 66.24338624338625,184.7619047619048 66.45502645502646,185.39682539682542 66.66666666666667,186.03174603174605 67.08994708994709,186.66666666666669 67.08994708994709,187.30158730158732 67.51322751322752,187.93650793650795 67.51322751322752,188.57142857142858 67.72486772486774,189.20634920634922 67.93650793650794,189.84126984126985 68.14814814814815,190.47619047619048 68.14814814814815,191.11111111111111 68.14814814814815,191.74603174603175 68.35978835978837,192.3809523809524 68.14814814814815,193.01587301587304 68.14814814814815,193.65079365079367 67.93650793650794,194.2857142857143 68.14814814814815,194.92063492063494 67.93650793650794,195.55555555555557 67.51322751322752,195.978835978836 67.51322751322752,196.61375661375664 67.3015873015873,197.24867724867727 66.87830687830689,197.8835978835979 66.45502645502646,198.51851851851853 66.03174603174604,198.94179894179896 65.60846560846561,199.36507936507937 65.18518518518519,200.00000000000003 64.55026455026456,200.42328042328043 64.12698412698413,200.84656084656086 63.70370370370371,201.2698412698413 63.280423280423285,201.6931216931217 62.64550264550265,201.90476190476193 62.01058201058201,202.32804232804233 61.37566137566138,202.53968253968256 60.74074074074075,202.75132275132276 60.10582010582011,202.962962962963 59.470899470899475,203.1746031746032 58.83597883597884,203.1746031746032 58.2010582010582,203.1746031746032 57.56613756613757,203.3862433862434 56.93121693121694,203.3862433862434 56.2962962962963,203.3862433862434 55.661375661375665,203.59788359788362 55.02645502645503,203.3862433862434 54.39153439153439,203.3862433862434 53.75661375661376,203.59788359788362 53.12169312169313,203.3862433862434 52.48677248677249,203.3862433862434 51.851851851851855,203.3862433862434 51.21693121693122,203.3862433862434 50.58201058201058,203.1746031746032 49.94708994708995,203.1746031746032 49.31216931216932,202.962962962963 48.677248677248684,202.962962962963 48.042328042328045,202.75132275132276 47.40740740740741,202.53968253968256 46.77248677248678,202.53968253968256 46.13756613756614,202.32804232804233 45.50264550264551,202.11640211640213 44.867724867724874,201.90476190476193 44.232804232804234,201.6931216931217 43.5978835978836,201.4814814814815 42.96296296296297,201.2698412698413 42.32804232804233,200.84656084656086 41.6931216931217,200.63492063492066 41.058201058201064,200.42328042328043 40.63492063492064,200.00000000000003 40.0,199.7883597883598 39.36507936507937,199.5767195767196 38.730158730158735,199.15343915343917 38.095238095238095,199.15343915343917 37.67195767195768,198.73015873015873 37.03703703703704,198.51851851851853 36.402116402116405,198.0952380952381 35.76719576719577,197.8835978835979 35.34391534391535,197.46031746031747 34.70899470899471,197.03703703703704 34.074074074074076,196.82539682539684 33.65079365079365,196.4021164021164 33.01587301587302,195.978835978836 32.38095238095239,195.55555555555557 31.746031746031747,195.13227513227514 31.322751322751326,194.70899470899474 30.68783068783069,194.2857142857143 30.264550264550266,193.86243386243387 29.629629629629633,193.43915343915344 29.20634920634921,193.01587301587304 28.571428571428573,192.5925925925926 28.14814814814815,192.16931216931218 27.724867724867728,191.74603174603175 27.301587301587304,191.32275132275134 26.87830687830688,190.8994708994709 26.455026455026456,190.47619047619048 26.031746031746035,190.05291005291008 25.60846560846561,189.41798941798945 25.185185185185187,188.99470899470901 24.761904761904763,188.57142857142858 24.55026455026455,187.93650793650795 24.12698412698413,187.51322751322752 23.703703703703706,186.8783068783069 23.280423280423282,186.45502645502646 22.857142857142858,185.82010582010582 22.433862433862437,185.1851851851852 22.010582010582013,184.55026455026456 21.58730158730159,183.91534391534393 21.375661375661377,183.2804232804233 20.952380952380953,182.64550264550266 20.740740740740744,182.01058201058203 20.740740740740744,181.3756613756614 20.740740740740744,180.74074074074076 20.529100529100532,180.10582010582013 20.740740740740744,179.4708994708995 20.740740740740744,178.83597883597884 21.164021164021165,178.2010582010582 21.58730158730159,177.56613756613757 22.010582010582013,177.14285714285717 22.645502645502646,176.71957671957674 23.06878306878307,176.2962962962963 23.703703703703706,176.0846560846561 24.12698412698413,175.66137566137567 24.761904761904763,175.44973544973547 25.3968253968254,175.02645502645504 26.031746031746035,174.81481481481484 26.666666666666668,174.6031746031746 27.301587301587304,174.1798941798942 27.93650793650794,173.96825396825398 28.571428571428573,173.54497354497354 29.20634920634921,173.33333333333334 29.841269841269842,172.9100529100529 30.476190476190478,172.6984126984127 30.899470899470902,172.27513227513228 31.53439153439154,172.06349206349208 32.16931216931217,171.64021164021165 32.804232804232804,171.21693121693124 33.43915343915344,170.7936507936508 34.074074074074076,170.37037037037038 34.70899470899471,169.94708994708995 35.34391534391535,169.52380952380955 35.97883597883598,169.10052910052912 36.613756613756614,168.67724867724868 37.03703703703704,168.25396825396825 37.46031746031746,167.83068783068785 38.095238095238095,167.40740740740742 38.30687830687831,166.7724867724868 38.94179894179894,166.56084656084658 39.36507936507937,166.13756613756615 39.78835978835979,165.71428571428572 40.423280423280424,165.2910052910053 40.84656084656085,164.8677248677249 41.26984126984127,164.44444444444446 41.6931216931217,164.02116402116403 42.11640211640212,163.59788359788362 42.75132275132275,163.1746031746032 43.17460317460318,162.75132275132276 43.5978835978836,162.32804232804233 44.021164021164026,161.90476190476193 44.44444444444445,161.4814814814815 44.867724867724874,161.05820105820106 45.29100529100529,160.63492063492066 45.714285714285715,160.21164021164023 46.13756613756614,159.5767195767196 46.560846560846564,159.15343915343917 46.98412698412699,158.73015873015873 47.40740740740741,158.30687830687833 47.61904761904762,157.67195767195767 48.042328042328045,157.24867724867727 48.46560846560847,156.82539682539684 48.88888888888889,156.1904761904762 49.31216931216932,155.55555555555557 49.73544973544974,154.92063492063494 50.158730158730165,154.4973544973545 50.58201058201058,153.86243386243387 51.00529100529101,153.43915343915344 51.21693121693122,152.8042328042328 51.42857142857143,152.16931216931218 51.640211640211646,151.53439153439155 51.851851851851855,150.8994708994709 51.851851851851855,150.26455026455028 52.06349206349207,149.62962962962965 52.06349206349207,148.99470899470901 52.06349206349207,148.35978835978838 52.06349206349207,147.72486772486775 51.851851851851855,147.0899470899471 51.640211640211646,146.45502645502646 51.42857142857143,145.82010582010582 51.00529100529101,145.1851851851852 50.58201058201058,144.55026455026456 50.158730158730165,144.12698412698413 49.73544973544974,143.70370370370372 49.31216931216932,143.2804232804233 48.88888888888889,142.85714285714286 48.25396825396826,142.43386243386246 47.61904761904762,142.01058201058203 46.98412698412699,141.5873015873016 46.349206349206355,141.16402116402116 45.714285714285715,140.74074074074076 45.07936507936508,140.52910052910053 44.44444444444445,140.10582010582013 43.80952380952381,139.6825396825397 43.17460317460318,139.47089947089947 42.539682539682545,139.04761904761907 41.904761904761905,138.83597883597884 41.26984126984127,138.41269841269843 40.63492063492064,138.2010582010582 40.0,137.7777777777778 39.36507936507937,137.56613756613757 38.730158730158735,137.35449735449737 38.095238095238095,137.35449735449737 37.46031746031746,137.14285714285717 36.82539682539683,136.93121693121694 36.19047619047619,136.71957671957674 35.55555555555556,136.5079365079365 34.920634920634924,136.2962962962963 34.28571428571429,136.0846560846561 33.65079365079365,136.0846560846561 33.01587301587302,135.87301587301587 32.38095238095239,135.66137566137567 31.746031746031747,135.44973544973547 31.111111111111114,135.23809523809524 30.476190476190478,135.23809523809524 29.841269841269842,135.02645502645504 29.20634920634921,135.02645502645504 28.571428571428573,134.81481481481484 27.93650793650794,134.6031746031746 27.301587301587304,134.6031746031746 26.666666666666668,134.3915343915344 26.031746031746035,134.17989417989418 25.3968253968254,134.17989417989418 24.761904761904763,133.96825396825398 24.12698412698413,133.75661375661377 23.492063492063494,133.75661375661377 22.857142857142858,133.54497354497354 22.222222222222225,133.33333333333334 21.58730158730159,133.33333333333334 20.952380952380953,133.12169312169314 20.31746031746032,132.9100529100529 19.682539682539684,132.9100529100529 19.047619047619047,132.6984126984127 18.412698412698415,132.6984126984127 17.77777777777778,132.4867724867725 17.142857142857146,132.4867724867725 16.50793650793651,132.27513227513228 15.873015873015873,132.27513227513228 15.238095238095239,132.06349206349208 14.603174603174605,132.06349206349208 13.96825396825397,131.85185185185185 13.333333333333334,131.85185185185185 12.6984126984127,131.64021164021165 12.063492063492065,131.64021164021165 11.428571428571429,131.42857142857144 10.793650793650794,131.21693121693121 10.15873015873016,131.21693121693121 9.523809523809524,131.005291005291 8.88888888888889,131.005291005291 8.253968253968255,130.7936507936508 7.6190476190476195,130.58201058201058 6.984126984126985,130.58201058201058 6.34920634920635,130.37037037037038 5.714285714285714,130.37037037037038 5.07936507936508,130.15873015873018 4.444444444444445,130.15873015873018 3.8095238095238098,129.94708994708995 3.174603174603175,129.94708994708995 0.21164021164021166,129.31216931216932" style="fill:none; stroke:#00aa99; stroke-width:1.0"  /><polyline points="0.21164021164021166,129.31216931216932 1.9047619047619049,126.34920634920636 2.1164021164021167,125.71428571428572 2.53968253968254,125.2910052910053 2.9629629629629632,124.65608465608466 3.174603174603175,124.02116402116403 3.597883597883598,123.3862433862434 3.597883597883598,122.75132275132276 4.021164021164021,122.32804232804234 4.444444444444445,121.6931216931217 4.656084656084657,121.05820105820106 5.07936507936508,120.42328042328043 5.291005291005291,119.7883597883598 5.714285714285714,119.36507936507937 5.9259259259259265,118.73015873015873 6.34920634920635,118.0952380952381 6.560846560846561,117.46031746031747 6.984126984126985,116.82539682539684 7.195767195767196,116.1904761904762 7.6190476190476195,115.76719576719577 7.830687830687832,115.13227513227514 8.253968253968255,114.49735449735451 8.465608465608467,113.86243386243387 8.88888888888889,113.22751322751324 9.100529100529101,112.5925925925926 9.312169312169313,111.95767195767196 9.523809523809524,111.32275132275133 9.947089947089948,110.6878306878307 10.15873015873016,110.05291005291006 10.370370370370372,109.41798941798943 10.793650793650794,108.78306878306879 11.005291005291006,108.14814814814815 11.216931216931219,107.51322751322752 11.428571428571429,106.87830687830689 11.640211640211641,106.24338624338625 12.063492063492065,105.60846560846562 12.275132275132275,104.97354497354497 12.486772486772487,104.33862433862434 12.6984126984127,103.70370370370371 12.910052910052912,103.06878306878308 13.121693121693122,102.43386243386244 13.333333333333334,101.79894179894181 13.756613756613758,101.16402116402116 13.96825396825397,100.52910052910053 14.17989417989418,99.8941798941799 14.391534391534393,99.25925925925927 14.603174603174605,98.62433862433863 14.814814814814817,97.989417989418 15.026455026455027,97.35449735449737 15.238095238095239,96.71957671957672 15.449735449735451,96.08465608465609 15.661375661375663,95.44973544973546 15.873015873015873,94.81481481481482 16.296296296296298,94.17989417989419 16.296296296296298,93.54497354497356 16.71957671957672,92.91005291005291 16.931216931216934,92.27513227513228 17.142857142857146,91.64021164021165 17.354497354497354,91.00529100529101 17.566137566137566,90.37037037037038 17.77777777777778,89.73544973544975 17.98941798941799,89.1005291005291 18.201058201058203,88.46560846560847 18.201058201058203,87.83068783068784 18.412698412698415,87.1957671957672 18.624338624338627,86.56084656084657 18.83597883597884,85.92592592592594 19.25925925925926,85.29100529100529 19.47089947089947,84.65608465608466 19.894179894179896,84.02116402116403 20.31746031746032,83.3862433862434 20.740740740740744,82.75132275132276 21.164021164021165,82.32804232804233 21.58730158730159,81.90476190476191 22.010582010582013,81.48148148148148 22.645502645502646,81.05820105820106 23.280423280423282,80.84656084656085 23.915343915343918,80.63492063492065 24.55026455026455,80.63492063492065 25.185185185185187,80.63492063492065 25.820105820105823,80.63492063492065 26.455026455026456,80.84656084656085 27.089947089947092,81.05820105820106 27.724867724867728,81.48148148148148 28.35978835978836,81.6931216931217 28.994708994708997,82.11640211640213 29.41798941798942,82.53968253968254 30.052910052910054,82.96296296296298 30.476190476190478,83.3862433862434 30.899470899470902,83.80952380952381 31.322751322751326,84.23280423280424 31.746031746031747,84.86772486772487 32.16931216931217,85.5026455026455 32.592592592592595,86.13756613756614 33.01587301587302,86.77248677248677 33.22751322751323,87.40740740740742 33.65079365079365,88.04232804232805 34.074074074074076,88.46560846560847 34.4973544973545,88.8888888888889 34.920634920634924,89.52380952380953 35.34391534391535,90.15873015873017 35.76719576719577,90.58201058201058 36.19047619047619,91.00529100529101 36.613756613756614,91.42857142857143 37.03703703703704,91.85185185185186 37.46031746031746,92.27513227513228 37.883597883597886,92.69841269841271 38.51851851851852,92.91005291005291 39.15343915343916,93.33333333333334 39.78835978835979,93.75661375661376 40.423280423280424,93.96825396825398 41.058201058201064,94.39153439153439 41.6931216931217,94.81481481481482 42.32804232804233,95.02645502645504 42.96296296296297,95.02645502645504 43.5978835978836,95.23809523809524 44.232804232804234,95.23809523809524 44.867724867724874,95.23809523809524 45.50264550264551,95.02645502645504 46.13756613756614,95.02645502645504 46.77248677248678,95.02645502645504 47.40740740740741,94.81481481481482 47.830687830687836,94.39153439153439 48.46560846560847,94.39153439153439 49.1005291005291,93.96825396825398 49.73544973544974,93.96825396825398 50.158730158730165,93.54497354497356 50.7936507936508,93.12169312169313 51.42857142857143,92.91005291005291 52.06349206349207,92.4867724867725 52.6984126984127,92.06349206349208 53.12169312169313,91.64021164021165 53.75661375661376,91.21693121693123 54.179894179894184,90.7936507936508 54.60317460317461,90.37037037037038 55.02645502645503,89.94708994708995 55.449735449735456,89.52380952380953 55.87301587301588,89.1005291005291 56.2962962962963,88.67724867724868 56.50793650793651,88.04232804232805 56.93121693121694,87.40740740740742 57.35449735449736,86.98412698412699 57.777777777777786,86.56084656084657 58.2010582010582,85.92592592592594 58.62433862433863,85.5026455026455 59.04761904761905,84.86772486772487 59.25925925925927,84.23280423280424 59.682539682539684,83.80952380952381 59.8941798941799,83.17460317460318 60.31746031746032,82.53968253968254 60.74074074074075,81.90476190476191 60.952380952380956,81.26984126984128 61.16402116402117,80.63492063492065 61.37566137566138,80.0 61.58730158730159,79.36507936507937 61.798941798941804,78.73015873015873 61.798941798941804,78.0952380952381 61.798941798941804,77.46031746031747 61.798941798941804,76.82539682539684 61.798941798941804,76.19047619047619 61.798941798941804,75.55555555555556 61.58730158730159,74.92063492063492 61.37566137566138,74.28571428571429 60.952380952380956,73.65079365079366 60.74074074074075,73.01587301587303 60.31746031746032,72.38095238095238 60.10582010582011,71.74603174603175 59.682539682539684,71.32275132275133 59.25925925925927,70.6878306878307 58.83597883597884,70.26455026455027 58.41269841269842,69.84126984126985 57.989417989417994,69.41798941798942 57.56613756613757,68.994708994709 57.142857142857146,68.57142857142858 56.50793650793651,68.14814814814815 56.08465608465609,67.72486772486774 55.449735449735456,67.3015873015873 54.81481481481482,67.08994708994709 54.179894179894184,66.66666666666667 53.54497354497355,66.45502645502646 52.91005291005291,66.03174603174604 52.27513227513228,65.82010582010582 51.640211640211646,65.60846560846561 51.00529100529101,65.18518518518519 50.370370370370374,64.97354497354497 49.73544973544974,64.76190476190477 49.1005291005291,64.55026455026456 48.46560846560847,64.33862433862434 47.830687830687836,64.12698412698413 47.195767195767196,63.70370370370371 46.560846560846564,63.492063492063494 46.13756613756614,63.06878306878308 45.50264550264551,62.64550264550265 45.07936507936508,62.22222222222223 44.65608465608466,61.798941798941804 44.232804232804234,61.37566137566138 43.80952380952381,60.74074074074075 43.5978835978836,60.10582010582011 43.386243386243386,59.470899470899475 43.386243386243386,58.83597883597884 43.386243386243386,58.2010582010582 43.5978835978836,57.56613756613757 43.80952380952381,56.93121693121694 44.021164021164026,56.2962962962963 44.44444444444445,55.661375661375665 44.65608465608466,55.02645502645503 45.07936507936508,54.60317460317461 45.50264550264551,53.968253968253975 45.92592592592593,53.333333333333336 46.349206349206355,52.6984126984127 46.77248677248678,52.06349206349207 47.195767195767196,51.640211640211646 47.61904761904762,51.00529100529101 48.042328042328045,50.370370370370374 48.46560846560847,49.73544973544974 48.88888888888889,49.1005291005291 49.31216931216932,48.46560846560847 49.523809523809526,47.830687830687836 49.94708994708995,47.195767195767196 50.370370370370374,46.560846560846564 50.7936507936508,45.92592592592593 51.21693121693122,45.29100529100529 51.42857142857143,44.65608465608466 51.851851851851855,44.232804232804234 52.27513227513228,43.5978835978836 52.6984126984127,42.96296296296297 52.91005291005291,42.32804232804233 53.12169312169313,41.6931216931217 53.54497354497355,41.26984126984127 53.968253968253975,40.63492063492064 54.179894179894184,40.0 54.60317460317461,39.36507936507937 54.81481481481482,38.730158730158735 55.23809523809524,38.095238095238095 55.449735449735456,37.46031746031746 55.87301587301588,36.82539682539683 56.2962962962963,36.19047619047619 56.71957671957672,35.55555555555556 56.93121693121694,34.920634920634924 57.35449735449736,34.28571428571429 57.56613756613757,33.65079365079365 57.989417989417994,33.22751322751323 58.2010582010582,32.592592592592595 58.62433862433863,31.95767195767196 58.83597883597884,31.322751322751326 59.25925925925927,30.68783068783069 59.470899470899475,30.052910052910054 59.8941798941799,29.41798941798942 60.10582010582011,28.783068783068785 60.52910052910053,28.35978835978836 60.74074074074075,27.724867724867728 61.16402116402117,27.089947089947092 61.37566137566138,26.455026455026456 61.798941798941804,25.820105820105823 62.01058201058201,25.185185185185187 62.43386243386244,24.55026455026455 62.64550264550265,23.915343915343918 62.85714285714286,23.280423280423282 63.280423280423285,22.857142857142858 63.492063492063494,22.222222222222225 63.70370370370371,21.58730158730159 64.12698412698413,20.952380952380953 64.33862433862434,20.31746031746032 64.55026455026456,19.682539682539684 64.97354497354497,19.047619047619047 65.18518518518519,18.412698412698415 65.18518518518519,17.77777777777778 66.45502645502646,15.026455026455027" style="fill:none; stroke:#3300bb; stroke-width:1.0"  /><circle cx="66.45502645502646" cy="15.026455026455027" r="2.0" style="fill:none; stroke:#000000aa; stroke-width:0.25" /><circle cx="192.16931216931218" cy="59.682539682539684" r="2.0" style="fill:none; stroke:#000000aa; stroke-width:0.25" /><circle cx="113.43915343915344" cy="188.35978835978838" r="2.0" style="fill:none; stroke:#000000aa; stroke-width:0.25" /><circle cx="0.21164021164021166" cy="129.31216931216932" r="2.0" style="fill:none; stroke:#000000aa; stroke-width:0.25" /><circle cx="67.08994708994709" cy="15.026455026455027" r="2.0" style="fill:none; stroke:#ff3366aa; stroke-width:0.25" /><circle cx="191.53439153439155" cy="59.470899470899475" r="2.0" style="fill:none; stroke:#ff3366aa; stroke-width:0.25" /><circle cx="113.22751322751324" cy="188.14814814814815" r="2.0" style="fill:none; stroke:#ff3366aa; stroke-width:0.25" /><circle cx="0.21164021164021166" cy="129.31216931216932" r="2.0" style="fill:none; stroke:#ff3366aa; stroke-width:0.25" /><polyline points="76.82539682539684,21.58730158730159 76.19047619047619,21.164021164021165 75.55555555555556,20.740740740740744 74.92063492063492,20.31746031746032 74.49735449735451,19.894179894179896 73.86243386243387,19.47089947089947 73.22751322751323,19.047619047619047 72.5925925925926,18.83597883597884 72.16931216931218,18.412698412698415 71.53439153439155,18.201058201058203 70.8994708994709,17.77777777777778 70.47619047619048,17.354497354497354 69.84126984126985,17.142857142857146" style="fill:none; stroke:#001100; stroke-width:1.0" /><polyline points="61.798941798941804,25.820105820105823 62.01058201058201,25.185185185185187 62.43386243386244,24.55026455026455 62.64550264550265,23.915343915343918 62.85714285714286,23.280423280423282 63.280423280423285,22.857142857142858 63.492063492063494,22.222222222222225 63.70370370370371,21.58730158730159 64.12698412698413,20.952380952380953 64.33862433862434,20.31746031746032 64.55026455026456,19.682539682539684 64.97354497354497,19.047619047619047 65.18518518518519,18.412698412698415 65.18518518518519,17.77777777777778" style="fill:none; stroke:#000011; stroke-width:1.0" /><polyline points="182.85714285714286,66.87830687830689 183.2804232804233,66.45502645502646 183.91534391534393,66.03174603174604 184.55026455026456,65.60846560846561 184.973544973545,65.18518518518519 185.60846560846562,64.76190476190477 186.24338624338625,64.33862433862434 186.66666666666669,63.91534391534392 187.30158730158732,63.492063492063494 187.72486772486775,63.06878306878308 188.35978835978838,62.64550264550265 188.99470899470901,62.22222222222223 189.41798941798945,61.798941798941804" style="fill:none; stroke:#001100; stroke-width:1.0" /><polyline points="181.3756613756614,53.333333333333336 182.01058201058203,53.54497354497355 182.64550264550266,53.968253968253975 183.2804232804233,54.179894179894184 183.70370370370372,54.60317460317461 184.33862433862436,55.02645502645503 184.973544973545,55.23809523809524 185.60846560846562,55.661375661375665 186.24338624338625,56.08465608465609 186.8783068783069,56.50793650793651 187.51322751322752,56.71957671957672 187.93650793650795,57.142857142857146 188.57142857142858,57.56613756613757" style="fill:none; stroke:#000011; stroke-width:1.0" /><polyline points="102.85714285714286,182.64550264550266 103.28042328042329,183.0687830687831 103.91534391534393,183.2804232804233 104.55026455026456,183.70370370370372 105.18518518518519,184.12698412698415 105.82010582010582,184.33862433862436 106.45502645502647,184.7619047619048 107.0899470899471,185.1851851851852 107.72486772486774,185.39682539682542 108.35978835978837,185.60846560846562 108.994708994709,186.03174603174605 109.62962962962963,186.24338624338625 110.26455026455027,186.66666666666669" style="fill:none; stroke:#001100; stroke-width:1.0" /><polyline points="119.7883597883598,178.2010582010582 119.36507936507937,178.83597883597884 118.94179894179895,179.4708994708995 118.51851851851853,179.8941798941799 118.0952380952381,180.52910052910053 117.67195767195768,181.16402116402116 117.24867724867725,181.79894179894183 116.82539682539684,182.43386243386246 116.4021164021164,183.0687830687831 116.1904761904762,183.70370370370372 115.76719576719577,184.33862433862436 115.34391534391536,184.973544973545 115.13227513227514,185.60846560846562" style="fill:none; stroke:#000011; stroke-width:1.0" /><polyline points="5.9259259259259265,118.73015873015873 5.714285714285714,119.36507936507937 5.291005291005291,119.7883597883598 5.07936507936508,120.42328042328043 4.656084656084657,121.05820105820106 4.444444444444445,121.6931216931217 4.021164021164021,122.32804232804234 3.597883597883598,122.75132275132276 3.597883597883598,123.3862433862434 3.174603174603175,124.02116402116403 2.9629629629629632,124.65608465608466 2.53968253968254,125.2910052910053 2.1164021164021167,125.71428571428572 1.9047619047619049,126.34920634920636" style="fill:none; stroke:#001100; stroke-width:1.0" /><polyline points="11.428571428571429,131.42857142857144 10.793650793650794,131.21693121693121 10.15873015873016,131.21693121693121 9.523809523809524,131.005291005291 8.88888888888889,131.005291005291 8.253968253968255,130.7936507936508 7.6190476190476195,130.58201058201058 6.984126984126985,130.58201058201058 6.34920634920635,130.37037037037038 5.714285714285714,130.37037037037038 5.07936507936508,130.15873015873018 4.444444444444445,130.15873015873018 3.8095238095238098,129.94708994708995 3.174603174603175,129.94708994708995" style="fill:none; stroke:#000011; stroke-width:1.0" /><polyline points="69.84126984126985,17.142857142857146 52.06349206349207,5.714285714285714" style="fill:none; stroke:#ffaa00; stroke-width:0.4" /><polyline points="65.18518518518519,17.77777777777778 73.43915343915344,-1.6931216931216932" style="fill:none; stroke:#aaff00; stroke-width:0.4" /><polyline points="189.41798941798945,61.798941798941804 206.13756613756615,48.88888888888889" style="fill:none; stroke:#ffaa00; stroke-width:0.4" /><polyline points="188.57142857142858,57.56613756613757 206.7724867724868,68.35978835978837" style="fill:none; stroke:#aaff00; stroke-width:0.4" /><polyline points="110.26455026455027,186.66666666666669 128.88888888888889,196.82539682539684" style="fill:none; stroke:#ffaa00; stroke-width:0.4" /><polyline points="115.13227513227514,185.60846560846562 103.91534391534393,203.59788359788362" style="fill:none; stroke:#aaff00; stroke-width:0.4" /><polyline points="1.9047619047619049,126.34920634920636 -8.042328042328043,144.973544973545" style="fill:none; stroke:#ffaa00; stroke-width:0.4" /><polyline points="3.174603174603175,129.94708994708995 -17.566137566137566,126.13756613756615" style="fill:none; stroke:#aaff00; stroke-width:0.4" /><circle cx="97.14285714285715" cy="104.97354497354497" r="1.0" style="fill:#444444; stroke-width:0" /><circle cx="93.12169312169313" cy="119.57671957671958" r="10.582010582010582" style="fill:#ff770022; stroke-width:0" /><circle cx="93.12169312169313" cy="119.57671957671958" r="1.0" style="fill:#ff7700; stroke-width:0" /></svg>