<?xml version="1.0" encoding="UTF-8" standalone="no"?><svg width="634.2857142857143" height="626.6666666666667" viewBox="-10 -10 231.42857142857144 228.8888888888889" xmlns="http://www.w3.org/2000/svg" xmlns:xlink="http://www.w3.org/1999/xlink"><polyline points="78.94179894179895,37.03703703703704 82.32804232804233,37.46031746031746 82.96296296296298,37.46031746031746 83.59788359788361,37.67195767195768 84.23280423280424,37.67195767195768 84.86772486772487,37.883597883597886 85.5026455026455,37.883597883597886 86.13756613756614,38.095238095238095 86.77248677248677,38.30687830687831 87.40740740740742,38.30687830687831 88.04232804232805,38.30687830687831 88.67724867724868,38.51851851851852 89.31216931216932,38.51851851851852 89.94708994708995,38.51851851851852 90.58201058201058,38.730158730158735 91.21693121693123,38.730158730158735 91.85185185185186,38.730158730158735 92.4867724867725,38.94179894179894 93.12169312169313,39.15343915343916 93.75661375661376,39.15343915343916 94.39153439153439,39.36507936507937 95.02645502645504,39.36507936507937 95.66137566137567,39.57671957671958 96.2962962962963,39.57671957671958 96.93121693121694,39.57671957671958 97.56613756613757,39.78835978835979 98.2010582010582,39.78835978835979 98.83597883597885,40.0 99.47089947089948,40.0 100.10582010582011,40.0 100.74074074074075,40.211640211640216 101.37566137566138,40.211640211640216 102.01058201058201,40.423280423280424 102.64550264550266,40.423280423280424 103.28042328042329,40.63492063492064 103.91534391534393,40.63492063492064 104.55026455026456,40.63492063492064 105.18518518518519,40.84656084656085 105.82010582010582,40.84656084656085 106.45502645502647,41.058201058201064 107.0899470899471,41.058201058201064 107.72486772486774,40.84656084656085 108.35978835978837,40.84656084656085 108.994708994709,41.058201058201064 109.62962962962963,41.058201058201064 110.26455026455027,41.058201058201064 110.89947089947091,41.26984126984127 111.53439153439155,41.26984126984127 112.16931216931218,41.26984126984127 112.80423280423281,41.26984126984127 113.43915343915344,41.48148148148149 114.07407407407408,41.48148148148149 114.70899470899472,41.48148148148149 115.34391534391536,41.6931216931217 115.97883597883599,41.6931216931217 116.61375661375662,41.6931216931217 117.24867724867725,41.6931216931217 117.88359788359789,41.6931216931217 118.51851851851853,41.6931216931217 119.15343915343917,41.6931216931217 119.7883597883598,41.904761904761905 120.42328042328043,41.904761904761905 121.05820105820106,41.904761904761905 121.6931216931217,41.904761904761905 122.32804232804234,41.904761904761905 122.96296296296298,41.904761904761905 123.59788359788361,41.904761904761905 124.23280423280424,41.904761904761905 124.86772486772487,41.904761904761905 125.5026455026455,41.6931216931217 126.13756613756615,41.6931216931217 126.77248677248679,41.6931216931217 127.40740740740742,41.48148148148149 128.04232804232805,41.48148148148149 128.67724867724868,41.48148148148149 129.31216931216932,41.48148148148149 129.94708994708995,41.26984126984127 130.58201058201058,41.26984126984127 131.21693121693121,41.26984126984127 131.85185185185185,41.26984126984127 132.4867724867725,41.058201058201064 133.12169312169314,41.058201058201064 133.75661375661377,41.058201058201064 134.3915343915344,40.84656084656085 135.02645502645504,40.63492063492064 135.66137566137567,40.423280423280424 136.2962962962963,40.423280423280424 136.71957671957674,40.0 137.35449735449737,39.57671957671958 137.989417989418,39.15343915343916 138.62433862433863,38.730158730158735 139.04761904761907,38.30687830687831 139.47089947089947,37.67195767195768 139.8941798941799,37.03703703703704 140.31746031746033,36.402116402116405 140.52910052910053,35.76719576719577 140.74074074074076,35.13227513227513 140.95238095238096,34.4973544973545 141.16402116402116,33.86243386243387 141.3756613756614,33.22751322751323 141.3756613756614,32.592592592592595 141.5873015873016,31.95767195767196 141.5873015873016,31.322751322751326 141.5873015873016,30.68783068783069 141.5873015873016,30.052910052910054 141.5873015873016,29.41798941798942 141.3756613756614,28.783068783068785 141.3756613756614,28.14814814814815 141.3756613756614,27.513227513227516 141.16402116402116,26.87830687830688 141.16402116402116,26.243386243386244 141.16402116402116,25.60846560846561 140.95238095238096,24.973544973544975 140.95238095238096,24.338624338624342 140.74074074074076,23.703703703703706 140.74074074074076,23.06878306878307 140.74074074074076,22.433862433862437 140.52910052910053,21.7989417989418 140.52910052910053,21.164021164021165 140.52910052910053,20.529100529100532 140.52910052910053,19.894179894179896 140.31746031746033,19.25925925925926 140.31746031746033,18.624338624338627 140.31746031746033,17.98941798941799 140.31746031746033,17.354497354497354 140.31746031746033,16.71957671957672 140.31746031746033,16.084656084656086 140.31746031746033,15.449735449735451 140.31746031746033,14.814814814814817 140.31746031746033,14.17989417989418 140.10582010582013,13.544973544973546 140.10582010582013,12.910052910052912 140.10582010582013,12.275132275132275 140.10582010582013,11.640211640211641 140.10582010582013,11.005291005291006 140.10582010582013,10.370370370370372 140.31746031746033,9.735449735449736 140.31746031746033,9.100529100529101 140.31746031746033,8.465608465608467 140.52910052910053,7.830687830687832 140.74074074074076,7.195767195767196 140.95238095238096,6.560846560846561 141.16402116402116,5.9259259259259265 141.5873015873016,5.502645502645503 141.7989417989418,4.867724867724868 142.22222222222223,4.444444444444445 142.64550264550266,4.021164021164021 142.85714285714286,3.3862433862433865 143.2804232804233,2.9629629629629632 143.70370370370372,2.53968253968254 144.33862433862436,2.1164021164021167 144.973544973545,1.9047619047619049 145.60846560846562,1.4814814814814816 146.03174603174605,1.0582010582010584 146.66666666666669,0.8465608465608466 147.30158730158732,0.8465608465608466 147.93650793650795,0.634920634920635 148.57142857142858,0.4232804232804233 149.20634920634922,0.21164021164021166 149.84126984126985,0.21164021164021166 150.47619047619048,0.21164021164021166 151.11111111111111,0.21164021164021166 151.74603174603175,0.4232804232804233 152.38095238095238,0.4232804232804233 153.01587301587304,0.4232804232804233 153.65079365079367,0.634920634920635 154.2857142857143,0.634920634920635 154.92063492063494,0.8465608465608466 155.55555555555557,0.8465608465608466 156.1904761904762,1.0582010582010584 156.82539682539684,1.26984126984127 157.46031746031747,1.4814814814814816 158.0952380952381,1.6931216931216932 158.73015873015873,1.9047619047619049 159.36507936507937,2.1164021164021167 160.0,2.3280423280423284 160.63492063492066,2.7513227513227516 161.2698412698413,2.9629629629629632 161.90476190476193,3.3862433862433865 162.53968253968256,3.8095238095238098 163.1746031746032,4.021164021164021 163.59788359788362,4.444444444444445 164.23280423280426,4.656084656084657 164.65608465608466,5.07936507936508 165.0793650793651,5.502645502645503 165.71428571428572,5.9259259259259265 166.13756613756615,6.34920634920635 166.56084656084658,6.772486772486773 166.984126984127,7.195767195767196 167.40740740740742,7.6190476190476195 167.83068783068785,8.042328042328043 168.25396825396825,8.677248677248677 168.67724867724868,9.100529100529101 169.10052910052912,9.735449735449736 169.31216931216932,10.370370370370372 169.73544973544975,10.793650793650794 169.94708994708995,11.428571428571429 170.15873015873018,12.063492063492065 170.37037037037038,12.6984126984127 170.58201058201058,13.333333333333334 170.7936507936508,13.96825396825397 171.005291005291,14.603174603174605 171.005291005291,15.238095238095239 171.005291005291,15.873015873015873 171.21693121693124,16.50793650793651 171.005291005291,17.142857142857146 171.005291005291,17.77777777777778 171.005291005291,18.412698412698415 171.005291005291,19.047619047619047 170.7936507936508,19.682539682539684 170.58201058201058,20.31746031746032 170.37037037037038,20.952380952380953 170.15873015873018,21.58730158730159 169.94708994708995,22.222222222222225 169.73544973544975,22.857142857142858 169.52380952380955,23.492063492063494 169.10052910052912,24.12698412698413 168.8888888888889,24.761904761904763 168.67724867724868,25.3968253968254 168.25396825396825,26.031746031746035 168.04232804232805,26.666666666666668 167.83068783068785,27.301587301587304 167.40740740740742,27.93650793650794 167.19576719576722,28.571428571428573 166.984126984127,29.20634920634921 166.56084656084658,29.841269841269842 166.34920634920636,30.476190476190478 165.92592592592595,31.111111111111114 165.71428571428572,31.746031746031747 165.2910052910053,32.38095238095239 164.8677248677249,32.804232804232804 164.65608465608466,33.43915343915344 164.23280423280426,33.86243386243387 164.02116402116403,34.4973544973545 163.59788359788362,35.13227513227513 163.3862433862434,35.76719576719577 163.1746031746032,36.402116402116405 163.1746031746032,37.03703703703704 162.96296296296296,37.67195767195768 162.96296296296296,38.30687830687831 162.96296296296296,38.94179894179894 162.96296296296296,39.57671957671958 163.1746031746032,40.211640211640216 163.1746031746032,40.84656084656085 163.3862433862434,41.48148148148149 163.59788359788362,42.11640211640212 163.80952380952382,42.75132275132275 164.23280423280426,43.17460317460318 164.44444444444446,43.80952380952381 164.65608465608466,44.44444444444445 165.0793650793651,45.07936507936508 165.50264550264552,45.50264550264551 165.92592592592595,46.13756613756614 166.34920634920636,46.560846560846564 166.7724867724868,46.98412698412699 167.40740740740742,47.40740740740741 168.04232804232805,47.830687830687836 168.67724867724868,48.25396825396826 169.31216931216932,48.677248677248684 169.94708994708995,48.88888888888889 170.58201058201058,49.1005291005291 171.005291005291,49.523809523809526 171.64021164021165,49.73544973544974 172.27513227513228,50.158730158730165 172.9100529100529,50.370370370370374 173.33333333333334,50.7936507936508 173.96825396825398,51.00529100529101 174.6031746031746,51.21693121693122 175.02645502645504,51.640211640211646 175.66137566137567,51.851851851851855 176.2962962962963,52.06349206349207 176.93121693121694,52.48677248677249 177.56613756613757,52.6984126984127 178.2010582010582,52.6984126984127 178.83597883597884,52.91005291005291 179.4708994708995,53.12169312169313 180.10582010582013,53.54497354497355 180.74074074074076,53.54497354497355 181.3756613756614,53.75661375661376 182.01058201058203,53.968253968253975 182.64550264550266,54.179894179894184 183.2804232804233,54.39153439153439 183.91534391534393,54.60317460317461 184.55026455026456,54.81481481481482 185.1851851851852,54.81481481481482 185.82010582010582,55.02645502645503 186.45502645502646,55.23809523809524 187.08994708994712,55.449735449735456 187.72486772486775,55.449735449735456 188.35978835978838,55.449735449735456 188.99470899470901,55.661375661375665 189.62962962962965,55.661375661375665 190.26455026455028,55.87301587301588 190.8994708994709,55.87301587301588 191.53439153439155,55.87301587301588 192.16931216931218,56.08465608465609 192.8042328042328,56.08465608465609 193.43915343915344,56.2962962962963 194.07407407407408,56.2962962962963 194.70899470899474,56.2962962962963 195.34391534391537,56.2962962962963 195.978835978836,56.2962962962963 196.61375661375664,56.50793650793651 197.24867724867727,56.50793650793651 197.8835978835979,56.50793650793651 198.51851851851853,56.50793650793651 199.15343915343917,56.50793650793651 199.7883597883598,56.50793650793651 200.42328042328043,56.50793650793651 201.05820105820106,56.2962962962963 201.6931216931217,56.50793650793651 202.32804232804233,56.2962962962963 202.962962962963,56.2962962962963 203.59788359788362,56.08465608465609 204.23280423280426,55.87301587301588 204.8677248677249,55.87301587301588 205.50264550264552,56.08465608465609 206.13756613756615,55.87301587301588 206.7724867724868,55.661375661375665 207.40740740740742,55.661375661375665 208.04232804232805,55.449735449735456 211.64021164021165,55.02645502645503" style="fill:none; stroke:#cc0000; stroke-width:1.0"  /><polyline points="211.64021164021165,55.02645502645503 210.5820105820106,58.41269841269842 210.37037037037038,59.04761904761905 210.15873015873018,59.682539682539684 209.94708994708995,60.31746031746032 209.94708994708995,60.952380952380956 209.73544973544975,61.58730158730159 209.52380952380955,62.22222222222223 209.31216931216932,62.85714285714286 209.10052910052912,63.492063492063494 208.8888888888889,64.12698412698413 208.67724867724868,64.76190476190477 208.46560846560848,65.3968253968254 208.25396825396828,66.03174603174604 208.25396825396828,66.66666666666667 208.04232804232805,67.3015873015873 207.83068783068785,67.93650793650794 207.61904761904765,68.57142857142858 207.40740740740742,69.20634920634922 207.19576719576722,69.84126984126985 207.19576719576722,70.47619047619048 206.984126984127,71.11111111111111 206.7724867724868,71.74603174603175 206.56084656084658,72.38095238095238 206.34920634920636,73.01587301587303 206.13756613756615,73.65079365079366 206.13756613756615,74.28571428571429 205.92592592592595,74.92063492063492 205.71428571428572,75.55555555555556 205.50264550264552,76.19047619047619 205.50264550264552,76.82539682539684 205.29100529100532,77.46031746031747 205.0793650793651,78.0952380952381 204.8677248677249,78.73015873015873 204.8677248677249,79.36507936507937 204.65608465608466,80.0 204.44444444444446,80.63492063492065 204.44444444444446,81.26984126984128 204.23280423280426,81.90476190476191 204.02116402116403,82.53968253968254 204.02116402116403,83.17460317460318 203.80952380952382,83.80952380952381 203.80952380952382,84.44444444444446 203.80952380952382,85.07936507936509 203.59788359788362,85.71428571428572 203.3862433862434,86.34920634920636 203.3862433862434,86.98412698412699 203.1746031746032,87.61904761904762 202.962962962963,88.25396825396827 202.962962962963,88.8888888888889 202.75132275132276,89.52380952380953 202.53968253968256,90.15873015873017 202.32804232804233,90.7936507936508 202.32804232804233,91.42857142857143 202.11640211640213,92.06349206349208 201.90476190476193,92.69841269841271 201.90476190476193,93.33333333333334 201.6931216931217,93.96825396825398 201.6931216931217,94.60317460317461 201.4814814814815,95.23809523809524 201.2698412698413,95.87301587301587 201.05820105820106,96.50793650793652 200.84656084656086,97.14285714285715 200.84656084656086,97.77777777777779 200.63492063492066,98.41269841269842 200.42328042328043,99.04761904761905 200.42328042328043,99.68253968253968 200.21164021164023,100.31746031746033 200.00000000000003,100.95238095238096 199.7883597883598,101.5873015873016 199.7883597883598,102.22222222222223 199.36507936507937,102.85714285714286 199.15343915343917,103.4920634920635 198.73015873015873,103.91534391534393 198.30687830687833,104.55026455026456 197.6719576719577,104.97354497354497 197.03703703703704,105.3968253968254 196.4021164021164,105.60846560846562 195.76719576719577,105.82010582010582 195.13227513227514,106.03174603174604 194.4973544973545,106.03174603174604 193.86243386243387,105.82010582010582 193.22751322751324,105.82010582010582 192.5925925925926,105.60846560846562 191.95767195767198,105.18518518518519 191.32275132275134,104.97354497354497 190.6878306878307,104.55026455026456 190.05291005291008,104.33862433862434 189.41798941798945,103.91534391534393 188.78306878306879,103.4920634920635 188.14814814814815,103.06878306878308 187.51322751322752,102.64550264550266 186.8783068783069,102.22222222222223 186.24338624338625,101.79894179894181 185.60846560846562,101.37566137566138 185.1851851851852,100.95238095238096 184.55026455026456,100.52910052910053 183.91534391534393,100.10582010582011 183.2804232804233,99.68253968253968 182.85714285714286,99.25925925925927 182.43386243386246,98.83597883597885 181.79894179894183,98.41269841269842 181.3756613756614,97.989417989418 180.95238095238096,97.56613756613757 180.31746031746033,97.35449735449737 179.6825396825397,96.93121693121694 179.04761904761907,96.50793650793652 178.41269841269843,96.2962962962963 177.989417989418,95.87301587301587 177.35449735449737,95.87301587301587 176.71957671957674,95.66137566137567 176.0846560846561,95.44973544973546 175.44973544973547,95.23809523809524 174.81481481481484,95.02645502645504 174.1798941798942,95.02645502645504 173.54497354497354,94.81481481481482 172.9100529100529,94.60317460317461 172.27513227513228,94.60317460317461 171.64021164021165,94.60317460317461 171.005291005291,94.39153439153439 170.37037037037038,94.39153439153439 169.73544973544975,94.39153439153439 169.10052910052912,94.39153439153439 168.46560846560848,94.39153439153439 167.83068783068785,94.39153439153439 167.19576719576722,94.60317460317461 166.56084656084658,94.60317460317461 165.92592592592595,94.81481481481482 165.2910052910053,95.02645502645504 164.65608465608466,95.23809523809524 164.02116402116403,95.44973544973546 163.59788359788362,95.87301587301587 162.96296296296296,96.08465608465609 162.53968253968256,96.50793650793652 162.11640211640213,96.93121693121694 161.4814814814815,97.35449735449737 161.05820105820106,97.77777777777779 160.63492063492066,98.2010582010582 160.21164021164023,98.83597883597885 159.7883597883598,99.47089947089948 159.36507936507937,99.8941798941799 158.94179894179896,100.52910052910053 158.51851851851853,100.95238095238096 158.0952380952381,101.5873015873016 157.67195767195767,102.22222222222223 157.24867724867727,102.85714285714286 156.82539682539684,103.4920634920635 156.4021164021164,104.12698412698414 156.1904761904762,104.76190476190477 155.978835978836,105.3968253968254 155.55555555555557,106.03174603174604 155.34391534391534,106.66666666666667 155.13227513227514,107.3015873015873 154.7089947089947,107.93650793650795 154.4973544973545,108.57142857142858 154.2857142857143,109.20634920634922 154.07407407407408,109.84126984126985 154.07407407407408,110.47619047619048 153.86243386243387,111.11111111111111 153.65079365079367,111.74603174603176 153.65079365079367,112.3809523809524 153.43915343915344,113.01587301587303 153.22751322751324,113.65079365079366 153.22751322751324,114.28571428571429 153.01587301587304,114.92063492063492 153.01587301587304,115.55555555555557 153.01587301587304,116.1904761904762 152.8042328042328,116.82539682539684 152.8042328042328,117.46031746031747 152.8042328042328,118.0952380952381 152.8042328042328,118.73015873015873 153.01587301587304,119.36507936507937 153.01587301587304,120.00000000000001 153.01587301587304,120.63492063492065 153.01587301587304,121.26984126984128 153.01587301587304,121.90476190476191 153.01587301587304,122.53968253968254 153.01587301587304,123.17460317460318 153.01587301587304,123.80952380952382 153.22751322751324,124.44444444444446 153.43915343915344,125.07936507936509 153.43915343915344,125.71428571428572 153.65079365079367,126.34920634920636 153.65079365079367,126.98412698412699 153.86243386243387,127.61904761904763 154.2857142857143,128.25396825396825 154.2857142857143,128.88888888888889 154.7089947089947,129.52380952380955 154.92063492063494,130.15873015873018 155.34391534391534,130.7936507936508 155.76719576719577,131.42857142857144 156.1904761904762,131.85185185185185 156.61375661375664,132.4867724867725 157.03703703703704,132.9100529100529 157.46031746031747,133.33333333333334 158.0952380952381,133.75661375661377 158.73015873015873,134.17989417989418 159.36507936507937,134.6031746031746 160.0,134.81481481481484 160.63492063492066,135.02645502645504 161.2698412698413,135.23809523809524 161.90476190476193,135.44973544973547 162.53968253968256,135.44973544973547 163.1746031746032,135.66137566137567 163.80952380952382,135.66137566137567 164.44444444444446,135.66137566137567 165.0793650793651,135.66137566137567 165.71428571428572,135.66137566137567 166.34920634920636,135.66137566137567 166.984126984127,135.66137566137567 167.61904761904762,135.66137566137567 168.25396825396825,135.66137566137567 168.8888888888889,135.66137566137567 169.52380952380955,135.66137566137567 170.15873015873018,135.44973544973547 170.7936507936508,135.44973544973547 171.42857142857144,135.23809523809524 172.06349206349208,135.23809523809524 172.6984126984127,135.02645502645504 173.33333333333334,134.81481481481484 173.96825396825398,134.81481481481484 174.3915343915344,134.3915343915344 175.02645502645504,134.3915343915344 175.66137566137567,134.17989417989418 176.2962962962963,133.96825396825398 176.93121693121694,133.75661375661377 177.56613756613757,133.54497354497354 178.2010582010582,133.12169312169314 178.83597883597884,132.9100529100529 179.4708994708995,132.6984126984127 180.10582010582013,132.4867724867725 180.74074074074076,132.4867724867725 181.3756613756614,132.06349206349208 182.01058201058203,132.06349206349208 182.64550264550266,131.85185185185185 183.2804232804233,131.64021164021165 183.91534391534393,131.42857142857144 184.55026455026456,131.21693121693121 185.1851851851852,131.21693121693121 185.82010582010582,131.005291005291 186.45502645502646,130.7936507936508 187.08994708994712,130.7936507936508 187.72486772486775,130.7936507936508 188.35978835978838,130.7936507936508 188.99470899470901,130.7936507936508 189.62962962962965,130.7936507936508 190.26455026455028,131.21693121693121 190.8994708994709,131.21693121693121 191.53439153439155,131.64021164021165 192.16931216931218,132.06349206349208 192.8042328042328,132.4867724867725 193.22751322751324,133.12169312169314 193.43915343915344,133.75661375661377 193.65079365079367,134.3915343915344 193.86243386243387,135.02645502645504 194.07407407407408,135.66137566137567 194.07407407407408,136.2962962962963 194.07407407407408,136.93121693121694 194.07407407407408,137.56613756613757 194.07407407407408,138.2010582010582 193.86243386243387,138.83597883597884 193.86243386243387,139.47089947089947 193.65079365079367,140.10582010582013 193.65079365079367,140.74074074074076 193.43915343915344,141.3756613756614 193.22751322751324,142.01058201058203 193.22751322751324,142.64550264550266 193.01587301587304,143.2804232804233 192.8042328042328,143.91534391534393 192.8042328042328,144.55026455026456 192.5925925925926,145.1851851851852 192.3809523809524,145.82010582010582 192.16931216931218,146.45502645502646 192.16931216931218,147.0899470899471 191.95767195767198,147.72486772486775 191.74603174603175,148.35978835978838 191.74603174603175,148.99470899470901 191.53439153439155,149.62962962962965 191.32275132275134,150.26455026455028 191.32275132275134,150.8994708994709 191.11111111111111,151.53439153439155 190.8994708994709,152.16931216931218 190.8994708994709,152.8042328042328 190.6878306878307,153.43915343915344 190.8994708994709,154.07407407407408 190.6878306878307,154.7089947089947 190.47619047619048,155.34391534391534 190.47619047619048,155.978835978836 190.26455026455028,156.61375661375664 190.05291005291008,157.24867724867727 190.05291005291008,157.8835978835979 189.84126984126985,158.51851851851853 189.84126984126985,159.15343915343917 189.62962962962965,159.7883597883598 189.41798941798945,160.42328042328043 189.41798941798945,161.05820105820106 189.20634920634922,161.6931216931217 189.20634920634922,162.32804232804233 188.99470899470901,162.96296296296296 188.99470899470901,163.59788359788362 188.78306878306879,164.23280423280426 188.57142857142858,164.8677248677249 188.57142857142858,165.50264550264552 188.35978835978838,166.13756613756615 188.35978835978838,166.7724867724868 188.14814814814815,167.40740740740742 188.14814814814815,168.04232804232805 187.93650793650795,168.67724867724868 187.93650793650795,169.31216931216932 187.72486772486775,169.94708994708995 187.72486772486775,170.58201058201058 187.51322751322752,171.21693121693124 187.51322751322752,171.85185185185188 187.30158730158732,172.4867724867725 187.30158730158732,173.12169312169314 187.08994708994712,173.75661375661377 187.08994708994712,174.3915343915344 186.8783068783069,175.02645502645504 186.8783068783069,175.66137566137567 186.66666666666669,176.2962962962963 186.66666666666669,176.93121693121694 186.66666666666669,177.56613756613757 186.45502645502646,178.2010582010582 186.45502645502646,178.83597883597884 186.24338624338625,179.4708994708995 186.24338624338625,180.10582010582013 186.03174603174605,180.74074074074076 186.03174603174605,181.3756613756614 186.03174603174605,182.01058201058203 185.82010582010582,182.64550264550266 185.82010582010582,183.2804232804233 185.82010582010582,183.91534391534393 185.60846560846562,184.55026455026456 185.60846560846562,185.1851851851852 185.60846560846562,185.82010582010582 185.39682539682542,186.45502645502646 185.39682539682542,187.08994708994712 185.39682539682542,187.72486772486775 185.1851851851852,188.35978835978838 185.39682539682542,188.99470899470901 185.39682539682542,189.62962962962965 185.1851851851852,190.26455026455028 185.1851851851852,190.8994708994709 185.1851851851852,191.53439153439155 184.973544973545,192.16931216931218 184.973544973545,192.8042328042328 184.973544973545,193.43915343915344 184.973544973545,194.07407407407408 184.7619047619048,197.24867724867727" style="fill:none; stroke:#999900; stroke-width:1.0"  /><polyline points="184.7619047619048,197.24867724867727 181.79894179894183,195.34391534391537 181.16402116402116,194.92063492063494 180.74074074074076,194.4973544973545 180.10582010582013,194.07407407407408 179.4708994708995,193.65079365079367 178.83597883597884,193.22751322751324 178.2010582010582,192.8042328042328 177.56613756613757,192.5925925925926 176.93121693121694,192.16931216931218 176.2962962962963,191.74603174603175 175.66137566137567,191.53439153439155 175.23809523809524,191.11111111111111 174.6031746031746,190.6878306878307 173.96825396825398,190.26455026455028 173.33333333333334,190.05291005291008 172.9100529100529,189.62962962962965 172.27513227513228,189.41798941798945 171.85185185185188,188.99470899470901 171.21693121693124,188.78306878306879 170.58201058201058,188.35978835978838 169.94708994708995,188.14814814814815 169.31216931216932,187.72486772486775 168.67724867724868,187.30158730158732 168.04232804232805,187.08994708994712 167.40740740740742,186.66666666666669 166.7724867724868,186.45502645502646 166.13756613756615,186.03174603174605 165.50264550264552,185.82010582010582 165.0793650793651,185.39682539682542 164.44444444444446,185.1851851851852 163.80952380952382,184.7619047619048 163.1746031746032,184.55026455026456 162.53968253968256,184.12698412698415 161.90476190476193,183.91534391534393 161.2698412698413,183.70370370370372 160.63492063492066,183.2804232804233 160.0,183.0687830687831 159.5767195767196,182.64550264550266 158.94179894179896,182.43386243386246 158.30687830687833,182.22222222222223 157.67195767195767,182.01058201058203 157.03703703703704,181.5873015873016 156.4021164021164,181.3756613756614 155.76719576719577,180.95238095238096 155.13227513227514,180.74074074074076 154.4973544973545,180.52910052910053 153.86243386243387,180.31746031746033 153.22751322751324,179.8941798941799 152.5925925925926,179.6825396825397 151.95767195767198,179.4708994708995 151.32275132275134,179.25925925925927 150.6878306878307,179.04761904761907 150.05291005291005,178.62433862433863 149.41798941798942,178.41269841269843 148.78306878306879,178.2010582010582 148.14814814814815,177.989417989418 147.51322751322752,177.7777777777778 146.8783068783069,177.56613756613757 146.24338624338625,177.35449735449737 145.60846560846562,177.14285714285717 144.973544973545,176.71957671957674 144.33862433862436,176.71957671957674 143.70370370370372,176.2962962962963 143.0687830687831,176.0846560846561 142.43386243386246,176.0846560846561 141.7989417989418,175.87301587301587 141.16402116402116,175.66137566137567 140.52910052910053,175.44973544973547 139.8941798941799,175.23809523809524 139.25925925925927,175.02645502645504 138.62433862433863,174.81481481481484 137.989417989418,174.6031746031746 137.35449735449737,174.3915343915344 136.71957671957674,174.3915343915344 136.0846560846561,174.1798941798942 135.44973544973547,174.1798941798942 134.81481481481484,174.1798941798942 134.17989417989418,174.1798941798942 133.54497354497354,174.1798941798942 132.9100529100529,174.3915343915344 132.27513227513228,174.3915343915344 131.64021164021165,174.6031746031746 131.005291005291,175.02645502645504 130.37037037037038,175.44973544973547 129.73544973544975,175.87301587301587 129.31216931216932,176.2962962962963 128.88888888888889,176.71957671957674 128.46560846560848,177.14285714285717 128.04232804232805,177.7777777777778 127.83068783068784,178.41269841269843 127.40740740740742,179.04761904761907 127.40740740740742,179.6825396825397 127.1957671957672,180.31746031746033 126.98412698412699,180.95238095238096 126.98412698412699,181.5873015873016 126.77248677248679,182.22222222222223 126.98412698412699,182.85714285714286 126.98412698412699,183.4920634920635 126.98412698412699,184.12698412698415 127.1957671957672,184.7619047619048 127.61904761904763,185.39682539682542 127.61904761904763,186.03174603174605 128.04232804232805,186.45502645502646 128.25396825396825,187.08994708994712 128.67724867724868,187.72486772486775 129.10052910052912,188.35978835978838 129.31216931216932,188.99470899470901 129.73544973544975,189.41798941798945 129.94708994708995,190.05291005291008 130.37037037037038,190.6878306878307 130.58201058201058,191.32275132275134 130.7936507936508,191.95767195767198 131.005291005291,192.5925925925926 131.005291005291,193.22751322751324 131.21693121693121,193.86243386243387 131.42857142857144,194.4973544973545 131.42857142857144,195.13227513227514 131.42857142857144,195.76719576719577 131.42857142857144,196.4021164021164 131.42857142857144,197.03703703703704 131.64021164021165,197.6719576719577 131.64021164021165,198.30687830687833 131.64021164021165,198.94179894179896 131.42857142857144,199.5767195767196 131.42857142857144,200.21164021164023 131.21693121693121,200.84656084656086 131.005291005291,201.4814814814815 130.7936507936508,202.11640211640213 130.37037037037038,202.53968253968256 129.94708994708995,203.1746031746032 129.52380952380955,203.59788359788362 129.10052910052912,204.02116402116403 128.67724867724868,204.44444444444446 128.25396825396825,204.8677248677249 127.83068783068784,205.29100529100532 127.1957671957672,205.71428571428572 126.56084656084657,206.13756613756615 125.92592592592594,206.56084656084658 125.2910052910053,206.7724867724868 124.65608465608466,206.984126984127 124.02116402116403,207.40740740740742 123.3862433862434,207.40740740740742 122.75132275132276,207.61904761904765 122.11640211640213,207.83068783068785 121.4814814814815,208.04232804232805 120.84656084656086,208.25396825396828 120.21164021164022,208.25396825396828 119.57671957671958,208.25396825396828 118.94179894179895,208.46560846560848 118.30687830687832,208.46560846560848 117.67195767195768,208.46560846560848 117.03703703703705,208.46560846560848 116.4021164021164,208.46560846560848 115.76719576719577,208.46560846560848 115.13227513227514,208.46560846560848 114.49735449735451,208.46560846560848 113.86243386243387,208.46560846560848 113.22751322751324,208.46560846560848 112.5925925925926,208.46560846560848 111.95767195767196,208.25396825396828 111.32275132275133,208.25396825396828 110.6878306878307,208.25396825396828 110.05291005291006,208.04232804232805 109.41798941798943,208.04232804232805 108.78306878306879,208.04232804232805 108.14814814814815,207.83068783068785 107.51322751322752,207.83068783068785 106.87830687830689,207.61904761904765 106.24338624338625,207.40740740740742 105.60846560846562,207.40740740740742 104.97354497354497,207.19576719576722 104.33862433862434,206.984126984127 103.70370370370371,206.7724867724868 103.06878306878308,206.56084656084658 102.43386243386244,206.34920634920636 101.79894179894181,206.13756613756615 101.16402116402116,205.92592592592595 100.52910052910053,205.71428571428572 99.8941798941799,205.29100529100532 99.25925925925927,204.8677248677249 98.62433862433863,204.65608465608466 98.2010582010582,204.23280423280426 97.56613756613757,203.80952380952382 96.93121693121694,203.3862433862434 96.2962962962963,203.1746031746032 95.87301587301587,202.75132275132276 95.44973544973546,202.32804232804233 95.02645502645504,201.90476190476193 94.60317460317461,201.4814814814815 94.17989417989419,200.84656084656086 93.96825396825398,200.21164021164023 93.54497354497356,199.5767195767196 93.33333333333334,198.94179894179896 92.91005291005291,198.30687830687833 92.69841269841271,197.6719576719577 92.4867724867725,197.03703703703704 92.4867724867725,196.4021164021164 92.27513227513228,195.76719576719577 92.06349206349208,195.13227513227514 92.06349206349208,194.4973544973545 92.06349206349208,193.86243386243387 92.06349206349208,193.22751322751324 92.27513227513228,192.5925925925926 92.4867724867725,191.95767195767198 92.4867724867725,191.32275132275134 92.91005291005291,190.6878306878307 93.12169312169313,190.05291005291008 93.54497354497356,189.41798941798945 93.75661375661376,188.78306878306879 94.17989417989419,188.14814814814815 94.60317460317461,187.72486772486775 95.02645502645504,187.30158730158732 95.44973544973546,186.8783068783069 95.87301587301587,186.45502645502646 96.50793650793652,186.03174603174605 97.14285714285715,185.60846560846562 97.77777777777779,185.1851851851852 98.41269841269842,184.973544973545 99.04761904761905,184.55026455026456 99.68253968253968,184.12698412698415 100.31746031746033,183.70370370370372 100.95238095238096,183.2804232804233 101.5873015873016,182.85714285714286 102.22222222222223,182.43386243386246 102.85714285714286,182.01058201058203 103.28042328042329,181.5873015873016 103.91534391534393,181.16402116402116 104.55026455026456,180.74074074074076 104.97354497354497,180.31746031746033 105.60846560846562,179.8941798941799 106.03174603174604,179.4708994708995 106.45502645502647,179.04761904761907 107.0899470899471,178.83597883597884 107.51322751322752,178.41269841269843 107.93650793650795,177.989417989418 108.14814814814815,177.35449735449737 108.57142857142858,176.93121693121694 108.994708994709,176.50793650793653 109.41798941798943,175.87301587301587 109.62962962962963,175.23809523809524 110.05291005291006,174.81481481481484 110.26455026455027,174.1798941798942 110.47619047619048,173.54497354497354 110.6878306878307,172.9100529100529 110.6878306878307,172.27513227513228 110.6878306878307,171.64021164021165 110.6878306878307,171.005291005291 110.47619047619048,170.37037037037038 110.26455026455027,169.73544973544975 109.84126984126985,169.10052910052912 109.62962962962963,168.46560846560848 109.20634920634922,168.04232804232805 108.78306878306879,167.61904761904762 108.14814814814815,167.19576719576722 107.51322751322752,166.7724867724868 106.87830687830689,166.56084656084658 106.24338624338625,166.34920634920636 105.60846560846562,166.13756613756615 104.97354497354497,165.92592592592595 104.33862433862434,165.71428571428572 103.70370370370371,165.71428571428572 103.06878306878308,165.50264550264552 102.43386243386244,165.2910052910053 101.79894179894181,165.2910052910053 101.16402116402116,165.0793650793651 100.52910052910053,165.0793650793651 99.8941798941799,164.8677248677249 99.25925925925927,164.8677248677249 98.62433862433863,164.8677248677249 97.989417989418,164.65608465608466 97.35449735449737,164.65608465608466 96.71957671957672,164.65608465608466 96.08465608465609,164.44444444444446 95.44973544973546,164.44444444444446 94.81481481481482,164.23280423280426 94.17989417989419,164.23280423280426 93.54497354497356,164.23280423280426 92.91005291005291,164.23280423280426 92.27513227513228,164.02116402116403 91.64021164021165,164.02116402116403 91.00529100529101,164.02116402116403 90.37037037037038,164.02116402116403 89.73544973544975,163.80952380952382 89.1005291005291,163.80952380952382 88.46560846560847,163.80952380952382 87.83068783068784,163.80952380952382 87.1957671957672,163.80952380952382 86.56084656084657,163.80952380952382 85.92592592592594,163.80952380952382 85.29100529100529,163.80952380952382 84.65608465608466,163.80952380952382 84.02116402116403,163.80952380952382 83.3862433862434,163.80952380952382 82.75132275132276,163.80952380952382 82.11640211640213,164.02116402116403 81.48148148148148,164.02116402116403 80.84656084656085,164.02116402116403 80.21164021164022,164.02116402116403 79.57671957671958,164.02116402116403 78.94179894179895,164.02116402116403 78.30687830687832,164.02116402116403 77.67195767195767,164.23280423280426 77.03703703703704,164.23280423280426 76.4021164021164,164.23280423280426 75.76719576719577,164.23280423280426 75.13227513227514,164.23280423280426 74.49735449735451,164.23280423280426 73.86243386243387,164.23280423280426 73.22751322751323,164.44444444444446 72.5925925925926,164.65608465608466 71.95767195767196,164.8677248677249 71.32275132275133,164.8677248677249 70.6878306878307,164.8677248677249 70.05291005291006,165.0793650793651 69.41798941798942,165.0793650793651 68.78306878306879,165.2910052910053 68.14814814814815,165.2910052910053 67.51322751322752,165.2910052910053 66.87830687830689,165.50264550264552 66.24338624338625,165.50264550264552 65.60846560846561,165.71428571428572 64.97354497354497,165.71428571428572 64.33862433862434,165.92592592592595 63.70370370370371,166.13756613756615 63.06878306878308,166.13756613756615 62.43386243386244,166.34920634920636 61.798941798941804,166.34920634920636 61.16402116402117,166.56084656084658 60.52910052910053,166.7724867724868 59.8941798941799,166.7724867724868 59.25925925925927,167.19576719576722 55.449735449735456,168.04232804232805" style="fill:none; stroke:#00aa99; stroke-width:1.0"  /><polyline points="55.449735449735456,168.04232804232805 54.60317460317461,164.65608465608466 54.39153439153439,164.02116402116403 54.179894179894184,163.3862433862434 53.968253968253975,162.75132275132276 53.75661375661376,162.11640211640213 53.75661375661376,161.4814814814815 53.54497354497355,160.84656084656086 53.333333333333336,160.21164021164023 53.333333333333336,159.5767195767196 53.12169312169313,158.94179894179896 53.12169312169313,158.30687830687833 52.91005291005291,157.67195767195767 52.6984126984127,157.03703703703704 52.6984126984127,156.4021164021164 52.48677248677249,155.76719576719577 52.27513227513228,155.13227513227514 52.06349206349207,154.4973544973545 51.851851851851855,153.86243386243387 51.851851851851855,153.22751322751324 51.851851851851855,152.5925925925926 51.640211640211646,151.95767195767198 51.42857142857143,151.32275132275134 51.42857142857143,150.6878306878307 51.21693121693122,150.05291005291005 51.00529100529101,149.41798941798942 50.7936507936508,148.78306878306879 50.7936507936508,148.14814814814815 50.58201058201058,147.51322751322752 50.370370370370374,146.8783068783069 50.370370370370374,146.24338624338625 50.158730158730165,145.60846560846562 50.158730158730165,144.973544973545 49.94708994708995,144.33862433862436 49.73544973544974,143.70370370370372 49.73544973544974,143.0687830687831 49.523809523809526,142.43386243386246 49.31216931216932,141.7989417989418 49.1005291005291,141.16402116402116 49.1005291005291,140.52910052910053 48.88888888888889,139.8941798941799 48.88888888888889,139.25925925925927 48.677248677248684,138.62433862433863 48.46560846560847,137.989417989418 48.46560846560847,137.35449735449737 48.25396825396826,136.71957671957674 48.25396825396826,136.0846560846561 48.042328042328045,135.44973544973547 47.830687830687836,134.81481481481484 47.830687830687836,134.17989417989418 47.61904761904762,133.54497354497354 47.61904761904762,132.9100529100529 47.40740740740741,132.27513227513228 47.195767195767196,131.64021164021165 47.195767195767196,131.005291005291 46.98412698412699,130.37037037037038 46.98412698412699,129.73544973544975 46.77248677248678,129.10052910052912 46.77248677248678,128.46560846560848 46.560846560846564,127.83068783068784 46.560846560846564,127.1957671957672 46.349206349206355,126.56084656084657 46.13756613756614,125.92592592592594 46.13756613756614,125.2910052910053 45.92592592592593,124.65608465608466 45.92592592592593,124.02116402116403 45.714285714285715,123.3862433862434 45.714285714285715,122.75132275132276 45.50264550264551,122.11640211640213 45.50264550264551,121.4814814814815 45.29100529100529,120.84656084656086 45.29100529100529,120.21164021164022 45.29100529100529,119.57671957671958 44.867724867724874,119.15343915343917 44.867724867724874,118.51851851851853 44.867724867724874,117.88359788359789 44.65608465608466,117.24867724867725 44.65608465608466,116.61375661375662 44.44444444444445,115.97883597883599 44.44444444444445,115.34391534391536 44.232804232804234,114.70899470899472 44.232804232804234,114.07407407407408 44.232804232804234,113.43915343915344 44.021164021164026,112.80423280423281 43.80952380952381,112.16931216931218 43.80952380952381,111.53439153439155 43.80952380952381,110.89947089947091 43.5978835978836,110.26455026455027 43.5978835978836,109.62962962962963 43.5978835978836,108.994708994709 43.386243386243386,108.35978835978837 43.386243386243386,107.72486772486774 43.17460317460318,107.0899470899471 42.96296296296297,106.45502645502647 42.75132275132275,105.82010582010582 42.539682539682545,105.18518518518519 42.11640211640212,104.76190476190477 41.904761904761905,104.12698412698414 41.48148148148149,103.70370370370371 41.058201058201064,103.06878306878308 40.63492063492064,102.64550264550266 40.211640211640216,102.22222222222223 39.57671957671958,101.79894179894181 39.15343915343916,101.37566137566138 38.51851851851852,101.16402116402116 37.883597883597886,100.95238095238096 37.248677248677254,100.95238095238096 36.613756613756614,100.74074074074075 35.97883597883598,100.74074074074075 35.34391534391535,100.74074074074075 34.70899470899471,100.74074074074075 34.074074074074076,100.95238095238096 33.43915343915344,100.95238095238096 32.804232804232804,101.16402116402116 32.16931216931217,101.37566137566138 31.53439153439154,101.37566137566138 30.899470899470902,101.5873015873016 30.264550264550266,101.79894179894181 29.629629629629633,101.79894179894181 28.994708994708997,102.01058201058201 28.35978835978836,102.22222222222223 27.724867724867728,102.22222222222223 27.089947089947092,102.43386243386244 26.455026455026456,102.64550264550266 25.820105820105823,102.85714285714286 25.185185185185187,102.85714285714286 24.55026455026455,102.85714285714286 23.915343915343918,103.06878306878308 23.280423280423282,103.28042328042329 22.645502645502646,103.4920634920635 22.010582010582013,103.4920634920635 21.375661375661377,103.70370370370371 20.740740740740744,103.70370370370371 20.105820105820108,103.91534391534393 19.47089947089947,103.91534391534393 18.83597883597884,103.91534391534393 18.201058201058203,104.12698412698414 17.566137566137566,104.12698412698414 16.931216931216934,104.12698412698414 16.296296296296298,104.12698412698414 15.661375661375663,104.12698412698414 15.026455026455027,104.12698412698414 14.391534391534393,104.12698412698414 13.756613756613758,104.12698412698414 13.121693121693122,104.12698412698414 12.486772486772487,103.91534391534393 11.851851851851853,103.91534391534393 11.216931216931219,103.70370370370371 10.582010582010582,103.70370370370371 9.947089947089948,103.4920634920635 9.312169312169313,103.28042328042329 8.677248677248677,103.06878306878308 8.042328042328043,102.85714285714286 7.6190476190476195,102.43386243386244 6.984126984126985,102.01058201058201 6.34920634920635,101.5873015873016 5.714285714285714,101.16402116402116 5.291005291005291,100.74074074074075 4.867724867724868,100.31746031746033 4.444444444444445,99.8941798941799 4.021164021164021,99.47089947089948 3.8095238095238098,98.83597883597885 3.3862433862433865,98.41269841269842 3.174603174603175,97.77777777777779 2.7513227513227516,97.35449735449737 2.53968253968254,96.71957671957672 2.3280423280423284,96.08465608465609 2.1164021164021167,95.44973544973546 1.9047619047619049,94.81481481481482 1.6931216931216932,94.17989417989419 1.4814814814814816,93.54497354497356 1.26984126984127,92.91005291005291 1.0582010582010584,92.27513227513228 1.0582010582010584,91.64021164021165 0.8465608465608466,91.00529100529101 0.8465608465608466,90.37037037037038 0.8465608465608466,89.73544973544975 0.634920634920635,89.1005291005291 0.634920634920635,88.46560846560847 0.4232804232804233,87.83068783068784 0.4232804232804233,87.1957671957672 0.4232804232804233,86.56084656084657 0.4232804232804233,85.92592592592594 0.4232804232804233,85.29100529100529 0.4232804232804233,84.65608465608466 0.21164021164021166,84.02116402116403 0.21164021164021166,83.3862433862434 0.21164021164021166,82.75132275132276 0.4232804232804233,82.11640211640213 0.4232804232804233,81.48148148148148 0.634920634920635,80.84656084656085 0.634920634920635,80.21164021164022 0.8465608465608466,79.57671957671958 0.8465608465608466,78.94179894179895 1.0582010582010584,78.30687830687832 1.26984126984127,77.67195767195767 1.4814814814814816,77.03703703703704 1.6931216931216932,76.4021164021164 2.1164021164021167,75.76719576719577 2.3280423280423284,75.13227513227514 2.53968253968254,74.49735449735451 2.7513227513227516,73.86243386243387 3.174603174603175,73.22751322751323 3.597883597883598,72.5925925925926 3.8095238095238098,71.95767195767196 4.2328042328042335,71.53439153439155 4.656084656084657,70.8994708994709 5.07936507936508,70.26455026455027 5.502645502645503,69.84126984126985 5.9259259259259265,69.41798941798942 6.34920634920635,68.994708994709 6.772486772486773,68.57142857142858 7.195767195767196,68.14814814814815 7.830687830687832,67.72486772486774 8.253968253968255,67.3015873015873 8.677248677248677,66.87830687830689 9.312169312169313,66.45502645502646 9.947089947089948,66.03174603174604 10.370370370370372,65.60846560846561 11.005291005291006,65.3968253968254 11.640211640211641,64.97354497354497 12.275132275132275,64.76190476190477 12.910052910052912,64.33862433862434 13.544973544973546,64.12698412698413 14.17989417989418,63.91534391534392 14.814814814814817,63.70370370370371 15.449735449735451,63.70370370370371 16.084656084656086,63.492063492063494 16.71957671957672,63.280423280423285 17.354497354497354,63.280423280423285 17.98941798941799,63.280423280423285 18.624338624338627,63.280423280423285 19.25925925925926,63.280423280423285 19.894179894179896,63.492063492063494 20.529100529100532,63.492063492063494 21.164021164021165,63.70370370370371 21.7989417989418,63.91534391534392 22.433862433862437,64.12698412698413 23.06878306878307,64.33862433862434 23.703703703703706,64.55026455026456 24.12698412698413,64.97354497354497 24.761904761904763,65.18518518518519 25.3968253968254,65.60846560846561 26.031746031746035,65.82010582010582 26.455026455026456,66.24338624338625 27.089947089947092,66.45502645502646 27.724867724867728,66.87830687830689 28.35978835978836,67.3015873015873 28.994708994708997,67.72486772486774 29.629629629629633,67.93650793650794 30.264550264550266,68.35978835978837 30.899470899470902,68.78306878306879 31.53439153439154,69.20634920634922 32.16931216931217,69.41798941798942 32.804232804232804,69.84126984126985 33.43915343915344,70.26455026455027 34.074074074074076,70.47619047619048 34.4973544973545,70.8994708994709 35.13227513227513,71.32275132275133 35.76719576719577,71.53439153439155 36.402116402116405,71.95767195767196 37.03703703703704,72.38095238095238 37.67195767195768,72.80423280423281 38.30687830687831,72.80423280423281 38.94179894179894,73.22751322751323 39.36507936507937,73.65079365079366 40.0,73.86243386243387 40.63492063492064,74.28571428571429 41.26984126984127,74.70899470899471 41.904761904761905,74.92063492063492 42.32804232804233,75.34391534391536 42.96296296296297,75.55555555555556 43.5978835978836,75.97883597883599 44.232804232804234,76.19047619047619 44.867724867724874,76.61375661375662 45.50264550264551,76.82539682539684 46.13756613756614,77.24867724867725 46.77248677248678,77.46031746031747 47.40740740740741,77.88359788359789 48.042328042328045,78.30687830687832 48.677248677248684,78.51851851851852 49.31216931216932,78.73015873015873 49.94708994708995,79.15343915343917 50.58201058201058,79.36507936507937 51.21693121693122,79.57671957671958 51.851851851851855,80.0 52.48677248677249,80.0 53.12169312169313,80.21164021164022 53.75661375661376,80.42328042328043 54.39153439153439,80.42328042328043 55.02645502645503,80.21164021164022 55.661375661375665,80.21164021164022 56.2962962962963,80.0 56.93121693121694,79.57671957671958 57.56613756613757,79.15343915343917 58.2010582010582,78.73015873015873 58.83597883597884,78.30687830687832 59.25925925925927,77.88359788359789 59.682539682539684,77.24867724867725 60.10582010582011,76.61375661375662 60.31746031746032,75.97883597883599 60.74074074074075,75.55555555555556 60.952380952380956,74.92063492063492 61.16402116402117,74.28571428571429 61.37566137566138,73.65079365079366 61.798941798941804,73.01587301587303 61.798941798941804,72.38095238095238 62.22222222222223,71.74603174603175 62.43386243386244,71.11111111111111 62.64550264550265,70.47619047619048 62.85714285714286,69.84126984126985 63.06878306878308,69.20634920634922 63.492063492063494,68.57142857142858 63.70370370370371,67.93650793650794 63.91534391534392,67.3015873015873 64.12698412698413,66.66666666666667 64.55026455026456,66.03174603174604 64.76190476190477,65.3968253968254 64.97354497354497,64.76190476190477 65.3968253968254,64.12698412698413 65.60846560846561,63.492063492063494 66.03174603174604,62.85714285714286 66.24338624338625,62.22222222222223 66.45502645502646,61.58730158730159 66.87830687830689,60.952380952380956 67.08994708994709,60.31746031746032 67.51322751322752,59.682539682539684 67.72486772486774,59.04761904761905 68.14814814814815,58.41269841269842 68.35978835978837,57.777777777777786 68.78306878306879,57.142857142857146 68.994708994709,56.50793650793651 69.41798941798942,55.87301587301588 69.62962962962963,55.23809523809524 70.05291005291006,54.81481481481482 70.26455026455027,54.179894179894184 70.6878306878307,53.54497354497355 70.8994708994709,52.91005291005291 71.32275132275133,52.48677248677249 71.53439153439155,51.851851851851855 71.95767195767196,51.21693121693122 72.16931216931218,50.58201058201058 72.5925925925926,49.94708994708995 72.5925925925926,49.31216931216932 72.80423280423281,48.677248677248684 73.22751322751323,48.042328042328045 73.65079365079366,47.40740740740741 73.86243386243387,46.77248677248678 74.28571428571429,46.13756613756614 74.49735449735451,45.50264550264551 74.92063492063492,45.07936507936508 75.13227513227514,44.44444444444445 75.55555555555556,43.80952380952381 75.76719576719577,43.17460317460318 75.97883597883599,42.539682539682545 76.4021164021164,41.904761904761905 76.61375661375662,41.26984126984127 77.03703703703704,40.84656084656085 77.24867724867725,40.211640211640216 78.94179894179895,37.03703703703704" style="fill:none; stroke:#3300bb; stroke-width:1.0"  /><circle cx="78.94179894179895" cy="37.03703703703704" r="2.0" style="fill:none; stroke:#000000aa; stroke-width:0.25" /><circle cx="211.64021164021165" cy="55.02645502645503" r="2.0" style="fill:none; stroke:#000000aa; stroke-width:0.25" /><circle cx="184.7619047619048" cy="197.24867724867727" r="2.0" style="fill:none; stroke:#000000aa; stroke-width:0.25" /><circle cx="55.449735449735456" cy="168.04232804232805" r="2.0" style="fill:none; stroke:#000000aa; stroke-width:0.25" /><circle cx="79.15343915343917" cy="37.248677248677254" r="2.0" style="fill:none; stroke:#ff3366aa; stroke-width:0.25" /><circle cx="211.005291005291" cy="55.23809523809524" r="2.0" style="fill:none; stroke:#ff3366aa; stroke-width:0.25" /><circle cx="184.33862433862436" cy="197.03703703703704" r="2.0" style="fill:none; stroke:#ff3366aa; stroke-width:0.25" /><circle cx="56.08465608465609" cy="167.61904761904762" r="2.0" style="fill:none; stroke:#ff3366aa; stroke-width:0.25" /><polyline points="90.58201058201058,38.730158730158735 89.94708994708995,38.51851851851852 89.31216931216932,38.51851851851852 88.67724867724868,38.51851851851852 88.04232804232805,38.30687830687831 87.40740740740742,38.30687830687831 86.77248677248677,38.30687830687831 86.13756613756614,38.095238095238095 85.5026455026455,37.883597883597886 84.86772486772487,37.883597883597886 84.23280423280424,37.67195767195768 83.59788359788361,37.67195767195768 82.96296296296298,37.46031746031746 82.32804232804233,37.46031746031746" style="fill:none; stroke:#001100; stroke-width:1.0" /><polyline points="73.65079365079366,47.40740740740741 73.86243386243387,46.77248677248678 74.28571428571429,46.13756613756614 74.49735449735451,45.50264550264551 74.92063492063492,45.07936507936508 75.13227513227514,44.44444444444445 75.55555555555556,43.80952380952381 75.76719576719577,43.17460317460318 75.97883597883599,42.539682539682545 76.4021164021164,41.904761904761905 76.61375661375662,41.26984126984127 77.03703703703704,40.84656084656085 77.24867724867725,40.211640211640216" style="fill:none; stroke:#000011; stroke-width:1.0" /><polyline points="208.25396825396828,66.66666666666667 208.25396825396828,66.03174603174604 208.46560846560848,65.3968253968254 208.67724867724868,64.76190476190477 208.8888888888889,64.12698412698413 209.10052910052912,63.492063492063494 209.31216931216932,62.85714285714286 209.52380952380955,62.22222222222223 209.73544973544975,61.58730158730159 209.94708994708995,60.952380952380956 209.94708994708995,60.31746031746032 210.15873015873018,59.682539682539684 210.37037037037038,59.04761904761905 210.5820105820106,58.41269841269842" style="fill:none; stroke:#001100; stroke-width:1.0" /><polyline points="199.15343915343917,56.50793650793651 199.7883597883598,56.50793650793651 200.42328042328043,56.50793650793651 201.05820105820106,56.2962962962963 201.6931216931217,56.50793650793651 202.32804232804233,56.2962962962963 202.962962962963,56.2962962962963 203.59788359788362,56.08465608465609 204.23280423280426,55.87301587301588 204.8677248677249,55.87301587301588 205.50264550264552,56.08465608465609 206.13756613756615,55.87301587301588 206.7724867724868,55.661375661375665 207.40740740740742,55.661375661375665 208.04232804232805,55.449735449735456" style="fill:none; stroke:#000011; stroke-width:1.0" /><polyline points="174.6031746031746,190.6878306878307 175.23809523809524,191.11111111111111 175.66137566137567,191.53439153439155 176.2962962962963,191.74603174603175 176.93121693121694,192.16931216931218 177.56613756613757,192.5925925925926 178.2010582010582,192.8042328042328 178.83597883597884,193.22751322751324 179.4708994708995,193.65079365079367 180.10582010582013,194.07407407407408 180.74074074074076,194.4973544973545 181.16402116402116,194.92063492063494 181.79894179894183,195.34391534391537" style="fill:none; stroke:#001100; stroke-width:1.0" /><polyline points="185.60846560846562,185.1851851851852 185.60846560846562,185.82010582010582 185.39682539682542,186.45502645502646 185.39682539682542,187.08994708994712 185.39682539682542,187.72486772486775 185.1851851851852,188.35978835978838 185.39682539682542,188.99470899470901 185.39682539682542,189.62962962962965 185.1851851851852,190.26455026455028 185.1851851851852,190.8994708994709 185.1851851851852,191.53439153439155 184.973544973545,192.16931216931218 184.973544973545,192.8042328042328 184.973544973545,193.43915343915344 184.973544973545,194.07407407407408" style="fill:none; stroke:#000011; stroke-width:1.0" /><polyline points="52.6984126984127,156.4021164021164 52.6984126984127,157.03703703703704 52.91005291005291,157.67195767195767 53.12169312169313,158.30687830687833 53.12169312169313,158.94179894179896 53.333333333333336,159.5767195767196 53.333333333333336,160.21164021164023 53.54497354497355,160.84656084656086 53.75661375661376,161.4814814814815 53.75661375661376,162.11640211640213 53.968253968253975,162.75132275132276 54.179894179894184,163.3862433862434 54.39153439153439,164.02116402116403 54.60317460317461,164.65608465608466" style="fill:none; stroke:#001100; stroke-width:1.0" /><polyline points="67.51322751322752,165.2910052910053 66.87830687830689,165.50264550264552 66.24338624338625,165.50264550264552 65.60846560846561,165.71428571428572 64.97354497354497,165.71428571428572 64.33862433862434,165.92592592592595 63.70370370370371,166.13756613756615 63.06878306878308,166.13756613756615 62.43386243386244,166.34920634920636 61.798941798941804,166.34920634920636 61.16402116402117,166.56084656084658 60.52910052910053,166.7724867724868 59.8941798941799,166.7724867724868 59.25925925925927,167.19576719576722" style="fill:none; stroke:#000011; stroke-width:1.0" /><polyline points="82.32804232804233,37.46031746031746 61.37566137566138,34.28571428571429" style="fill:none; stroke:#ffaa00; stroke-width:0.4" /><polyline points="77.24867724867725,40.211640211640216 86.77248677248677,21.375661375661377" style="fill:none; stroke:#aaff00; stroke-width:0.4" /><polyline points="210.5820105820106,58.41269841269842 216.2962962962963,38.095238095238095" style="fill:none; stroke:#ffaa00; stroke-width:0.4" /><polyline points="208.04232804232805,55.449735449735456 228.99470899470901,52.91005291005291" style="fill:none; stroke:#aaff00; stroke-width:0.4" /><polyline points="181.79894179894183,195.34391534391537 199.5767195767196,206.7724867724868" style="fill:none; stroke:#ffaa00; stroke-width:0.4" /><polyline points="184.973544973545,194.07407407407408 183.4920634920635,215.23809523809524" style="fill:none; stroke:#aaff00; stroke-width:0.4" /><polyline points="54.60317460317461,164.65608465608466 59.25925925925927,185.1851851851852" style="fill:none; stroke:#ffaa00; stroke-width:0.4" /><polyline points="59.25925925925927,167.19576719576722 38.730158730158735,171.85185185185188" style="fill:none; stroke:#aaff00; stroke-width:0.4" /><circle cx="116.61375661375662" cy="106.66666666666667" r="1.0" style="fill:#444444; stroke-width:0" /><circle cx="99.47089947089948" cy="111.32275132275133" r="10.582010582010582" style="fill:#ff770022; stroke-width:0" /><circle cx="99.47089947089948" cy="111.32275132275133" r="1.0" style="fill:#ff7700; stroke-width:0" /></svg>