<?xml version="1.0" encoding="UTF-8" standalone="no"?><svg width="582.8571428571429" height="531.4285714285714" viewBox="-10 -10 214.2857142857143 197.14285714285717" xmlns="http://www.w3.org/2000/svg" xmlns:xlink="http://www.w3.org/1999/xlink"><polyline points="-0.634920634920635,60.952380952380956 2.9629629629629632,59.25925925925927 3.597883597883598,59.04761904761905 4.2328042328042335,58.62433862433863 4.867724867724868,58.41269841269842 5.502645502645503,58.2010582010582 6.137566137566138,57.777777777777786 6.772486772486773,57.35449735449736 7.407407407407408,57.142857142857146 8.042328042328043,57.142857142857146 8.465608465608467,56.71957671957672 9.100529100529101,56.71957671957672 9.523809523809524,56.2962962962963 10.15873015873016,56.2962962962963 10.582010582010582,55.87301587301588 11.216931216931219,55.661375661375665 11.851851851851853,55.661375661375665 12.486772486772487,55.449735449735456 13.121693121693122,55.449735449735456 13.756613756613758,55.449735449735456 14.391534391534393,55.23809523809524 15.026455026455027,55.02645502645503 15.661375661375663,54.81481481481482 16.296296296296298,54.60317460317461 16.931216931216934,54.60317460317461 17.566137566137566,54.60317460317461 18.201058201058203,54.39153439153439 18.83597883597884,54.39153439153439 19.47089947089947,54.39153439153439 20.105820105820108,54.39153439153439 20.740740740740744,54.39153439153439 21.375661375661377,54.179894179894184 22.010582010582013,54.179894179894184 22.645502645502646,53.968253968253975 23.280423280423282,53.968253968253975 23.915343915343918,53.968253968253975 24.55026455026455,53.968253968253975 25.185185185185187,53.75661375661376 25.820105820105823,53.54497354497355 26.455026455026456,53.54497354497355 27.089947089947092,53.333333333333336 27.724867724867728,53.333333333333336 28.35978835978836,52.91005291005291 28.994708994708997,52.6984126984127 29.629629629629633,52.48677248677249 30.052910052910054,52.06349206349207 30.68783068783069,51.851851851851855 31.322751322751326,51.640211640211646 31.95767195767196,51.21693121693122 32.592592592592595,51.00529100529101 33.01587301587302,50.58201058201058 33.65079365079365,50.370370370370374 34.28571428571429,50.158730158730165 34.70899470899471,49.73544973544974 35.34391534391535,49.523809523809526 35.97883597883598,49.1005291005291 36.613756613756614,48.677248677248684 37.248677248677254,48.25396825396826 37.883597883597886,48.042328042328045 38.30687830687831,47.61904761904762 38.94179894179894,47.195767195767196 39.57671957671958,46.77248677248678 40.211640211640216,46.349206349206355 40.63492063492064,45.92592592592593 41.26984126984127,45.50264550264551 41.904761904761905,45.07936507936508 42.539682539682545,44.65608465608466 43.17460317460318,44.232804232804234 43.80952380952381,43.80952380952381 44.232804232804234,43.386243386243386 44.867724867724874,42.96296296296297 45.29100529100529,42.539682539682545 45.92592592592593,42.32804232804233 46.560846560846564,41.904761904761905 47.195767195767196,41.6931216931217 47.830687830687836,41.6931216931217 48.46560846560847,41.26984126984127 49.1005291005291,41.26984126984127 49.73544973544974,41.48148148148149 50.370370370370374,41.6931216931217 51.00529100529101,41.904761904761905 51.640211640211646,42.11640211640212 52.06349206349207,42.539682539682545 52.6984126984127,42.96296296296297 53.12169312169313,43.386243386243386 53.54497354497355,43.80952380952381 53.968253968253975,44.44444444444445 54.179894179894184,45.07936507936508 54.60317460317461,45.50264550264551 54.81481481481482,46.13756613756614 55.02645502645503,46.77248677248678 55.23809523809524,47.40740740740741 55.449735449735456,48.042328042328045 55.661375661375665,48.677248677248684 55.661375661375665,49.31216931216932 55.87301587301588,49.94708994708995 55.87301587301588,50.58201058201058 56.08465608465609,51.21693121693122 56.08465608465609,51.851851851851855 56.08465608465609,52.48677248677249 56.2962962962963,53.12169312169313 56.2962962962963,53.75661375661376 56.2962962962963,54.39153439153439 56.50793650793651,55.02645502645503 56.50793650793651,55.661375661375665 56.71957671957672,56.2962962962963 56.71957671957672,56.93121693121694 56.71957671957672,57.56613756613757 56.93121693121694,58.2010582010582 57.35449735449736,58.62433862433863 57.56613756613757,59.25925925925927 57.777777777777786,59.8941798941799 57.989417989417994,60.52910052910053 58.41269841269842,60.952380952380956 58.83597883597884,61.58730158730159 59.25925925925927,62.22222222222223 59.682539682539684,62.64550264550265 60.31746031746032,62.85714285714286 60.74074074074075,63.280423280423285 61.37566137566138,63.492063492063494 62.01058201058201,63.70370370370371 62.64550264550265,63.70370370370371 63.280423280423285,63.70370370370371 63.91534391534392,63.70370370370371 64.55026455026456,63.70370370370371 65.18518518518519,63.492063492063494 65.82010582010582,63.492063492063494 66.45502645502646,63.280423280423285 67.08994708994709,63.06878306878308 67.72486772486774,62.85714285714286 68.35978835978837,62.85714285714286 68.994708994709,62.64550264550265 69.62962962962963,62.43386243386244 70.26455026455027,62.43386243386244 70.8994708994709,62.22222222222223 71.53439153439155,62.22222222222223 72.16931216931218,61.798941798941804 72.80423280423281,61.58730158730159 73.43915343915344,61.58730158730159 74.07407407407408,61.37566137566138 74.70899470899471,61.16402116402117 75.34391534391536,60.952380952380956 75.97883597883599,60.74074074074075 76.61375661375662,60.52910052910053 77.24867724867725,60.10582010582011 77.88359788359789,60.10582010582011 78.30687830687832,59.682539682539684 78.94179894179895,59.470899470899475 79.57671957671958,59.470899470899475 80.21164021164022,59.04761904761905 80.63492063492065,58.62433862433863 81.05820105820106,58.2010582010582 81.6931216931217,57.989417989417994 82.11640211640213,57.56613756613757 82.75132275132276,57.35449735449736 83.17460317460318,56.93121693121694 83.80952380952381,56.71957671957672 84.44444444444446,56.2962962962963 84.86772486772487,55.87301587301588 85.5026455026455,55.449735449735456 86.13756613756614,55.23809523809524 86.56084656084657,54.81481481481482 86.98412698412699,54.39153439153439 87.61904761904762,54.179894179894184 88.04232804232805,53.75661375661376 88.46560846560847,53.333333333333336 88.8888888888889,52.91005291005291 89.31216931216932,52.48677248677249 89.73544973544975,52.06349206349207 89.94708994708995,51.42857142857143 90.37037037037038,51.00529100529101 90.7936507936508,50.370370370370374 91.00529100529101,49.73544973544974 91.00529100529101,49.1005291005291 91.21693121693123,48.46560846560847 91.21693121693123,47.830687830687836 91.00529100529101,47.195767195767196 91.00529100529101,46.560846560846564 90.7936507936508,45.92592592592593 90.58201058201058,45.29100529100529 90.37037037037038,44.65608465608466 89.94708994708995,44.021164021164026 89.52380952380953,43.5978835978836 89.1005291005291,42.96296296296297 88.67724867724868,42.32804232804233 88.25396825396827,41.904761904761905 87.83068783068784,41.48148148148149 87.1957671957672,41.058201058201064 86.77248677248677,40.63492063492064 86.34920634920636,40.211640211640216 85.71428571428572,39.78835978835979 85.29100529100529,39.36507936507937 84.86772486772487,38.94179894179894 84.23280423280424,38.51851851851852 83.59788359788361,38.095238095238095 83.17460317460318,37.67195767195768 82.53968253968254,37.248677248677254 82.11640211640213,36.82539682539683 81.48148148148148,36.402116402116405 80.84656084656085,35.97883597883598 80.42328042328043,35.55555555555556 79.7883597883598,35.13227513227513 79.36507936507937,34.70899470899471 78.94179894179895,34.28571428571429 78.51851851851852,33.86243386243387 78.0952380952381,33.22751322751323 77.88359788359789,32.592592592592595 77.46031746031747,31.95767195767196 77.24867724867725,31.322751322751326 77.03703703703704,30.68783068783069 77.03703703703704,30.052910052910054 77.03703703703704,29.41798941798942 77.03703703703704,28.783068783068785 77.03703703703704,28.14814814814815 77.24867724867725,27.513227513227516 77.46031746031747,26.87830687830688 77.67195767195767,26.243386243386244 77.88359788359789,25.60846560846561 78.30687830687832,24.973544973544975 78.73015873015873,24.338624338624342 79.15343915343917,23.915343915343918 79.57671957671958,23.492063492063494 80.0,23.06878306878307 80.42328042328043,22.645502645502646 81.05820105820106,22.222222222222225 81.48148148148148,21.7989417989418 82.11640211640213,21.375661375661377 82.75132275132276,20.952380952380953 83.3862433862434,20.529100529100532 84.02116402116403,20.31746031746032 84.65608465608466,19.894179894179896 85.29100529100529,19.682539682539684 85.71428571428572,19.25925925925926 86.34920634920636,19.047619047619047 86.98412698412699,18.624338624338627 87.61904761904762,18.201058201058203 88.25396825396827,17.98941798941799 88.8888888888889,17.566137566137566 89.52380952380953,17.142857142857146 90.15873015873017,16.931216931216934 90.7936507936508,16.71957671957672 91.42857142857143,16.296296296296298 91.85185185185186,15.873015873015873 92.4867724867725,15.661375661375663 93.12169312169313,15.449735449735451 93.75661375661376,15.238095238095239 94.17989417989419,14.814814814814817 94.81481481481482,14.603174603174605 95.44973544973546,14.391534391534393 96.08465608465609,13.96825396825397 96.71957671957672,13.544973544973546 97.35449735449737,13.333333333333334 97.989417989418,13.121693121693122 98.62433862433863,12.910052910052912 99.25925925925927,12.6984126984127 99.68253968253968,12.275132275132275 100.31746031746033,11.851851851851853 100.95238095238096,11.640211640211641 101.5873015873016,11.428571428571429 102.01058201058201,11.005291005291006 102.64550264550266,10.793650793650794 103.28042328042329,10.582010582010582 103.91534391534393,10.15873015873016 104.55026455026456,9.947089947089948 105.18518518518519,9.735449735449736 105.82010582010582,9.523809523809524 106.45502645502647,9.100529100529101 107.0899470899471,8.88888888888889 107.72486772486774,8.677248677248677 108.35978835978837,8.465608465608467 108.78306878306879,8.042328042328043 109.41798941798943,7.830687830687832 110.05291005291006,7.6190476190476195 110.6878306878307,7.407407407407408 111.32275132275133,7.195767195767196 111.95767195767196,6.772486772486773 112.5925925925926,6.772486772486773 113.22751322751324,6.34920634920635 113.86243386243387,6.34920634920635 114.49735449735451,6.137566137566138 114.92063492063492,5.714285714285714 115.55555555555557,5.502645502645503 116.1904761904762,5.291005291005291 116.82539682539684,5.07936507936508 117.46031746031747,4.867724867724868 118.0952380952381,4.656084656084657 118.73015873015873,4.444444444444445 119.36507936507937,4.2328042328042335 120.00000000000001,4.021164021164021 120.63492063492065,3.8095238095238098 121.05820105820106,3.3862433862433865 121.6931216931217,3.3862433862433865 122.32804232804234,3.174603174603175 122.96296296296298,2.9629629629629632 123.59788359788361,2.53968253968254 124.23280423280424,2.53968253968254 124.86772486772487,2.3280423280423284 125.5026455026455,1.9047619047619049 126.13756613756615,1.6931216931216932 126.77248677248679,1.4814814814814816 127.40740740740742,1.4814814814814816 128.04232804232805,1.26984126984127 131.42857142857144,0.0" style="fill:none; stroke:#cc0000; stroke-width:1.0"  /><polyline points="131.42857142857144,0.0 132.06349206349208,3.174603174603175 132.06349206349208,3.8095238095238098 132.27513227513228,4.444444444444445 132.4867724867725,5.07936507936508 132.4867724867725,5.714285714285714 132.4867724867725,6.34920634920635 132.6984126984127,6.984126984126985 132.9100529100529,7.6190476190476195 132.9100529100529,8.253968253968255 133.12169312169314,8.88888888888889 133.12169312169314,9.523809523809524 133.33333333333334,10.15873015873016 133.33333333333334,10.793650793650794 133.54497354497354,11.428571428571429 133.54497354497354,12.063492063492065 133.75661375661377,12.6984126984127 133.75661375661377,13.333333333333334 133.96825396825398,13.96825396825397 133.96825396825398,14.603174603174605 134.17989417989418,15.238095238095239 134.3915343915344,15.873015873015873 134.3915343915344,16.50793650793651 134.6031746031746,17.142857142857146 134.6031746031746,17.77777777777778 134.81481481481484,18.412698412698415 135.02645502645504,19.047619047619047 135.02645502645504,19.682539682539684 135.23809523809524,20.31746031746032 135.44973544973547,20.952380952380953 135.66137566137567,21.58730158730159 135.66137566137567,22.222222222222225 135.87301587301587,22.857142857142858 136.0846560846561,23.492063492063494 136.2962962962963,24.12698412698413 136.5079365079365,24.761904761904763 136.5079365079365,25.3968253968254 136.71957671957674,26.031746031746035 136.71957671957674,26.666666666666668 136.93121693121694,27.301587301587304 137.14285714285717,27.93650793650794 137.14285714285717,28.571428571428573 137.35449735449737,29.20634920634921 137.35449735449737,29.841269841269842 137.56613756613757,30.476190476190478 137.7777777777778,31.111111111111114 137.989417989418,31.746031746031747 137.989417989418,32.38095238095239 138.2010582010582,33.01587301587302 138.41269841269843,33.65079365079365 138.62433862433863,34.28571428571429 138.83597883597884,34.920634920634924 139.04761904761907,35.55555555555556 139.25925925925927,36.19047619047619 139.47089947089947,36.82539682539683 139.6825396825397,37.46031746031746 140.10582010582013,38.095238095238095 140.31746031746033,38.730158730158735 140.74074074074076,39.36507936507937 141.16402116402116,40.0 141.3756613756614,40.63492063492064 141.7989417989418,41.26984126984127 142.22222222222223,41.904761904761905 142.64550264550266,42.539682539682545 143.0687830687831,43.17460317460318 143.4920634920635,43.80952380952381 143.91534391534393,44.232804232804234 144.33862433862436,44.867724867724874 144.973544973545,45.29100529100529 145.39682539682542,45.714285714285715 146.03174603174605,46.13756613756614 146.66666666666669,46.560846560846564 147.30158730158732,46.77248677248678 147.93650793650795,46.98412698412699 148.57142857142858,47.195767195767196 149.20634920634922,47.40740740740741 149.84126984126985,47.40740740740741 150.47619047619048,47.40740740740741 151.11111111111111,47.40740740740741 151.74603174603175,47.40740740740741 152.38095238095238,47.195767195767196 153.01587301587304,47.195767195767196 153.65079365079367,46.77248677248678 154.2857142857143,46.77248677248678 154.92063492063494,46.349206349206355 155.34391534391534,45.92592592592593 155.978835978836,45.714285714285715 156.61375661375664,45.50264550264551 157.03703703703704,45.07936507936508 157.46031746031747,44.65608465608466 158.0952380952381,44.232804232804234 158.51851851851853,43.80952380952381 158.94179894179896,43.386243386243386 159.36507936507937,42.96296296296297 159.7883597883598,42.539682539682545 160.42328042328043,42.11640211640212 160.84656084656086,41.6931216931217 161.2698412698413,41.26984126984127 161.6931216931217,40.84656084656085 162.11640211640213,40.423280423280424 162.53968253968256,40.0 162.96296296296296,39.57671957671958 163.3862433862434,39.15343915343916 163.80952380952382,38.51851851851852 164.23280423280426,38.095238095238095 164.65608465608466,37.67195767195768 165.0793650793651,37.248677248677254 165.50264550264552,36.613756613756614 165.92592592592595,36.19047619047619 166.34920634920636,35.76719576719577 166.7724867724868,35.34391534391535 167.19576719576722,34.920634920634924 167.61904761904762,34.4973544973545 168.04232804232805,34.074074074074076 168.46560846560848,33.65079365079365 169.10052910052912,33.22751322751323 169.73544973544975,32.804232804232804 170.15873015873018,32.38095238095239 170.7936507936508,32.16931216931217 171.21693121693124,31.746031746031747 171.85185185185188,31.746031746031747 172.4867724867725,31.322751322751326 173.12169312169314,31.111111111111114 173.75661375661377,31.111111111111114 174.3915343915344,30.68783068783069 175.02645502645504,30.476190476190478 175.66137566137567,30.476190476190478 176.2962962962963,30.476190476190478 176.93121693121694,30.264550264550266 177.56613756613757,30.476190476190478 178.2010582010582,30.476190476190478 178.83597883597884,30.476190476190478 179.4708994708995,30.68783068783069 180.10582010582013,30.68783068783069 180.74074074074076,30.899470899470902 181.3756613756614,31.111111111111114 182.01058201058203,31.322751322751326 182.64550264550266,31.746031746031747 183.2804232804233,31.95767195767196 183.70370370370372,32.38095238095239 184.33862433862436,32.592592592592595 184.7619047619048,33.01587301587302 185.39682539682542,33.43915343915344 185.82010582010582,33.86243386243387 186.24338624338625,34.28571428571429 186.66666666666669,34.70899470899471 187.08994708994712,35.13227513227513 187.51322751322752,35.55555555555556 188.14814814814815,35.97883597883598 188.57142857142858,36.613756613756614 188.99470899470901,37.03703703703704 189.41798941798945,37.46031746031746 189.84126984126985,38.095238095238095 190.26455026455028,38.730158730158735 190.6878306878307,39.36507936507937 191.11111111111111,40.0 191.32275132275134,40.63492063492064 191.74603174603175,41.26984126984127 191.95767195767198,41.904761904761905 192.3809523809524,42.32804232804233 192.5925925925926,42.96296296296297 192.8042328042328,43.5978835978836 193.01587301587304,44.232804232804234 193.22751322751324,44.867724867724874 193.43915343915344,45.50264550264551 193.65079365079367,46.13756613756614 193.65079365079367,46.77248677248678 193.86243386243387,47.40740740740741 193.86243386243387,48.042328042328045 193.86243386243387,48.677248677248684 193.86243386243387,49.31216931216932 193.86243386243387,49.94708994708995 193.86243386243387,50.58201058201058 193.86243386243387,51.21693121693122 193.86243386243387,51.851851851851855 193.65079365079367,52.48677248677249 193.65079365079367,53.12169312169313 193.65079365079367,53.75661375661376 193.65079365079367,54.39153439153439 193.43915343915344,55.02645502645503 193.43915343915344,55.661375661375665 193.22751322751324,56.2962962962963 193.01587301587304,56.93121693121694 193.01587301587304,57.56613756613757 193.01587301587304,58.2010582010582 192.8042328042328,58.83597883597884 192.5925925925926,59.470899470899475 192.3809523809524,60.10582010582011 192.16931216931218,60.74074074074075 191.74603174603175,61.37566137566138 191.53439153439155,62.01058201058201 191.32275132275134,62.64550264550265 190.8994708994709,63.280423280423285 190.47619047619048,63.91534391534392 190.05291005291008,64.55026455026456 189.41798941798945,64.97354497354497 188.99470899470901,65.3968253968254 188.35978835978838,65.60846560846561 187.72486772486775,66.03174603174604 187.08994708994712,66.03174603174604 186.45502645502646,66.24338624338625 185.82010582010582,66.45502645502646 185.1851851851852,66.45502645502646 184.55026455026456,66.45502645502646 183.91534391534393,66.66666666666667 183.2804232804233,66.66666666666667 182.64550264550266,66.45502645502646 182.01058201058203,66.45502645502646 181.3756613756614,66.45502645502646 180.74074074074076,66.45502645502646 180.10582010582013,66.24338624338625 179.4708994708995,66.03174603174604 178.83597883597884,66.03174603174604 178.2010582010582,65.82010582010582 177.56613756613757,65.82010582010582 176.93121693121694,65.3968253968254 176.2962962962963,65.3968253968254 175.66137566137567,65.18518518518519 175.02645502645504,64.97354497354497 174.3915343915344,64.76190476190477 173.75661375661377,64.55026455026456 173.12169312169314,64.12698412698413 172.4867724867725,63.91534391534392 172.06349206349208,63.492063492063494 171.42857142857144,63.280423280423285 170.7936507936508,63.280423280423285 170.15873015873018,63.280423280423285 169.52380952380955,63.492063492063494 168.8888888888889,63.280423280423285 168.25396825396825,63.280423280423285 167.61904761904762,63.280423280423285 166.984126984127,63.280423280423285 166.34920634920636,63.280423280423285 165.71428571428572,63.280423280423285 165.0793650793651,63.280423280423285 164.44444444444446,63.492063492063494 163.80952380952382,63.70370370370371 163.1746031746032,63.91534391534392 162.53968253968256,63.91534391534392 161.90476190476193,64.33862433862434 161.4814814814815,64.76190476190477 160.84656084656086,65.18518518518519 160.42328042328043,65.60846560846561 160.0,66.03174603174604 159.5767195767196,66.66666666666667 159.15343915343917,67.3015873015873 158.94179894179896,67.93650793650794 158.73015873015873,68.57142857142858 158.51851851851853,69.20634920634922 158.30687830687833,69.84126984126985 158.0952380952381,70.47619047619048 157.8835978835979,71.11111111111111 157.8835978835979,71.74603174603175 157.8835978835979,72.38095238095238 157.8835978835979,73.01587301587303 157.8835978835979,73.65079365079366 157.8835978835979,74.28571428571429 157.8835978835979,74.92063492063492 158.0952380952381,75.55555555555556 158.0952380952381,76.19047619047619 158.30687830687833,76.82539682539684 158.30687830687833,77.46031746031747 158.51851851851853,78.0952380952381 158.73015873015873,78.73015873015873 158.94179894179896,79.36507936507937 159.15343915343917,80.0 159.15343915343917,80.63492063492065 159.5767195767196,81.26984126984128 159.7883597883598,81.90476190476191 160.0,82.53968253968254 160.21164021164023,83.17460317460318 160.42328042328043,83.80952380952381 160.63492063492066,84.44444444444446 160.84656084656086,85.07936507936509 161.2698412698413,85.71428571428572 161.2698412698413,86.34920634920636 161.6931216931217,86.98412698412699 161.90476190476193,87.61904761904762 162.11640211640213,88.25396825396827 162.53968253968256,88.8888888888889 162.75132275132276,89.52380952380953 162.96296296296296,90.15873015873017 163.3862433862434,90.7936507936508 163.59788359788362,91.42857142857143 163.80952380952382,92.06349206349208 164.02116402116403,92.69841269841271 164.44444444444446,93.12169312169313 164.8677248677249,93.75661375661376 165.0793650793651,94.39153439153439 165.2910052910053,95.02645502645504 165.71428571428572,95.66137566137567 165.92592592592595,96.2962962962963 166.34920634920636,96.93121693121694 166.56084656084658,97.56613756613757 166.7724867724868,98.2010582010582 167.19576719576722,98.83597883597885 167.61904761904762,99.47089947089948 167.83068783068785,100.10582010582011 168.04232804232805,100.74074074074075 168.46560846560848,101.37566137566138 168.67724867724868,102.01058201058201 169.10052910052912,102.64550264550266 169.31216931216932,103.28042328042329 169.52380952380955,103.91534391534393 169.94708994708995,104.55026455026456 170.15873015873018,105.18518518518519 170.58201058201058,105.82010582010582 170.7936507936508,106.45502645502647 171.21693121693124,106.87830687830689 171.42857142857144,107.51322751322752 171.85185185185188,108.14814814814815 173.33333333333334,110.89947089947091" style="fill:none; stroke:#999900; stroke-width:1.0"  /><polyline points="173.33333333333334,110.89947089947091 170.58201058201058,114.07407407407408 170.15873015873018,114.49735449735451 169.73544973544975,115.13227513227514 169.31216931216932,115.55555555555557 168.8888888888889,116.1904761904762 168.46560846560848,116.61375661375662 168.04232804232805,117.24867724867725 167.61904761904762,117.67195767195768 167.19576719576722,118.30687830687832 166.7724867724868,118.73015873015873 166.34920634920636,119.15343915343917 165.92592592592595,119.57671957671958 165.50264550264552,120.21164021164022 165.0793650793651,120.63492063492065 164.65608465608466,121.05820105820106 164.23280423280426,121.6931216931217 163.80952380952382,122.11640211640213 163.3862433862434,122.53968253968254 162.96296296296296,123.17460317460318 162.53968253968256,123.59788359788361 162.11640211640213,124.02116402116403 161.6931216931217,124.44444444444446 161.2698412698413,124.86772486772487 160.84656084656086,125.5026455026455 160.42328042328043,125.92592592592594 160.0,126.34920634920636 159.5767195767196,126.77248677248679 159.15343915343917,127.1957671957672 158.73015873015873,127.83068783068784 158.30687830687833,128.46560846560848 157.8835978835979,128.88888888888889 157.46031746031747,129.52380952380955 157.03703703703704,129.94708994708995 156.61375661375664,130.37037037037038 156.1904761904762,130.7936507936508 155.76719576719577,131.21693121693121 155.34391534391534,131.85185185185185 154.92063492063494,132.27513227513228 154.4973544973545,132.6984126984127 154.07407407407408,133.12169312169314 153.65079365079367,133.75661375661377 153.22751322751324,134.17989417989418 152.8042328042328,134.6031746031746 152.38095238095238,135.02645502645504 151.95767195767198,135.44973544973547 151.53439153439155,135.87301587301587 151.11111111111111,136.2962962962963 150.6878306878307,136.71957671957674 150.26455026455028,137.14285714285717 149.84126984126985,137.56613756613757 149.41798941798942,137.989417989418 148.99470899470901,138.62433862433863 148.35978835978838,139.04761904761907 147.93650793650795,139.47089947089947 147.51322751322752,139.8941798941799 147.0899470899471,140.31746031746033 146.66666666666669,140.74074074074076 146.24338624338625,141.16402116402116 145.82010582010582,141.5873015873016 145.39682539682542,142.01058201058203 144.973544973545,142.43386243386246 144.55026455026456,142.85714285714286 144.12698412698413,143.2804232804233 143.70370370370372,143.70370370370372 143.0687830687831,144.12698412698413 142.43386243386246,144.55026455026456 141.7989417989418,144.973544973545 141.16402116402116,145.39682539682542 140.52910052910053,145.60846560846562 140.10582010582013,146.03174603174605 139.47089947089947,146.24338624338625 139.04761904761907,146.66666666666669 138.41269841269843,146.8783068783069 137.7777777777778,147.30158730158732 137.14285714285717,147.51322751322752 136.5079365079365,147.93650793650795 135.87301587301587,148.14814814814815 135.23809523809524,148.57142857142858 134.6031746031746,148.78306878306879 133.96825396825398,148.99470899470901 133.33333333333334,148.99470899470901 132.6984126984127,148.99470899470901 132.06349206349208,148.99470899470901 131.42857142857144,148.78306878306879 130.7936507936508,148.35978835978838 130.15873015873018,147.93650793650795 129.73544973544975,147.51322751322752 129.31216931216932,147.0899470899471 128.88888888888889,146.45502645502646 128.67724867724868,145.82010582010582 128.46560846560848,145.1851851851852 128.25396825396825,144.55026455026456 128.04232804232805,143.91534391534393 128.04232804232805,143.2804232804233 128.04232804232805,142.64550264550266 128.04232804232805,142.01058201058203 128.04232804232805,141.3756613756614 128.25396825396825,140.74074074074076 128.25396825396825,140.10582010582013 128.46560846560848,139.47089947089947 128.67724867724868,138.83597883597884 128.88888888888889,138.2010582010582 128.88888888888889,137.56613756613757 129.10052910052912,136.93121693121694 129.31216931216932,136.2962962962963 129.52380952380955,135.66137566137567 129.52380952380955,135.02645502645504 129.73544973544975,134.3915343915344 129.73544973544975,133.75661375661377 129.73544973544975,133.12169312169314 129.73544973544975,132.4867724867725 129.73544973544975,131.85185185185185 129.73544973544975,131.21693121693121 129.52380952380955,130.58201058201058 129.52380952380955,129.94708994708995 129.52380952380955,129.31216931216932 129.31216931216932,128.67724867724868 129.10052910052912,128.04232804232805 129.10052910052912,127.40740740740742 128.88888888888889,126.77248677248679 128.67724867724868,126.13756613756615 128.67724867724868,125.5026455026455 128.46560846560848,124.86772486772487 128.25396825396825,124.23280423280424 128.04232804232805,123.59788359788361 128.04232804232805,122.96296296296298 127.61904761904763,122.32804232804234 127.40740740740742,121.6931216931217 127.1957671957672,121.05820105820106 126.98412698412699,120.42328042328043 126.77248677248679,119.7883597883598 126.34920634920636,119.15343915343917 126.13756613756615,118.51851851851853 125.92592592592594,117.88359788359789 125.5026455026455,117.46031746031747 125.07936507936509,116.82539682539684 124.65608465608466,116.1904761904762 124.23280423280424,115.55555555555557 123.80952380952382,115.13227513227514 123.3862433862434,114.70899470899472 122.96296296296298,114.28571428571429 122.32804232804234,113.86243386243387 121.6931216931217,113.43915343915344 121.05820105820106,113.22751322751324 120.42328042328043,113.01587301587303 119.7883597883598,112.80423280423281 119.15343915343917,112.80423280423281 118.51851851851853,112.5925925925926 117.88359788359789,112.5925925925926 117.24867724867725,112.5925925925926 116.61375661375662,112.5925925925926 115.97883597883599,112.5925925925926 115.34391534391536,112.5925925925926 114.70899470899472,112.5925925925926 114.07407407407408,112.5925925925926 113.43915343915344,112.5925925925926 112.80423280423281,112.80423280423281 112.16931216931218,113.01587301587303 111.53439153439155,113.22751322751324 110.89947089947091,113.43915343915344 110.26455026455027,113.65079365079366 109.62962962962963,114.07407407407408 108.994708994709,114.28571428571429 108.35978835978837,114.70899470899472 107.72486772486774,114.92063492063492 107.0899470899471,115.13227513227514 106.45502645502647,115.55555555555557 105.82010582010582,115.97883597883599 105.18518518518519,116.1904761904762 104.55026455026456,116.61375661375662 103.91534391534393,116.82539682539684 103.28042328042329,117.24867724867725 102.64550264550266,117.67195767195768 102.01058201058201,117.88359788359789 101.37566137566138,118.30687830687832 100.74074074074075,118.51851851851853 100.10582010582011,118.94179894179895 99.68253968253968,119.36507936507937 99.04761904761905,119.57671957671958 98.41269841269842,120.00000000000001 97.77777777777779,120.42328042328043 97.14285714285715,120.63492063492065 96.71957671957672,121.05820105820106 96.08465608465609,121.26984126984128 95.44973544973546,121.6931216931217 94.81481481481482,121.90476190476191 94.39153439153439,122.32804232804234 93.75661375661376,122.53968253968254 93.33333333333334,122.96296296296298 92.69841269841271,123.17460317460318 92.27513227513228,123.59788359788361 91.64021164021165,124.02116402116403 91.00529100529101,124.23280423280424 90.58201058201058,124.65608465608466 89.94708994708995,125.07936507936509 89.31216931216932,125.2910052910053 88.8888888888889,125.71428571428572 88.25396825396827,126.13756613756615 87.61904761904762,126.56084656084657 86.98412698412699,126.77248677248679 86.56084656084657,127.1957671957672 85.92592592592594,127.61904761904763 85.29100529100529,128.04232804232805 84.86772486772487,128.46560846560848 84.44444444444446,128.88888888888889 84.02116402116403,129.31216931216932 83.59788359788361,129.73544973544975 82.96296296296298,130.15873015873018 82.53968253968254,130.58201058201058 82.11640211640213,131.005291005291 81.48148148148148,131.21693121693121 81.05820105820106,131.64021164021165 80.63492063492065,132.06349206349208 80.21164021164022,132.4867724867725 79.7883597883598,132.9100529100529 79.36507936507937,133.33333333333334 78.94179894179895,133.75661375661377 78.51851851851852,134.3915343915344 78.0952380952381,134.81481481481484 77.67195767195767,135.23809523809524 77.24867724867725,135.87301587301587 76.82539682539684,136.5079365079365 76.4021164021164,137.14285714285717 75.97883597883599,137.7777777777778 75.76719576719577,138.41269841269843 75.34391534391536,138.83597883597884 74.92063492063492,139.47089947089947 74.70899470899471,140.10582010582013 74.28571428571429,140.74074074074076 74.07407407407408,141.3756613756614 73.65079365079366,142.01058201058203 73.43915343915344,142.64550264550266 73.22751322751323,143.2804232804233 73.22751322751323,143.91534391534393 73.01587301587303,144.55026455026456 73.01587301587303,145.1851851851852 73.01587301587303,145.82010582010582 73.22751322751323,146.45502645502646 73.22751322751323,147.0899470899471 73.43915343915344,147.72486772486775 73.43915343915344,148.35978835978838 73.65079365079366,148.99470899470901 73.86243386243387,149.62962962962965 74.28571428571429,150.26455026455028 74.49735449735451,150.8994708994709 74.49735449735451,151.53439153439155 74.92063492063492,151.95767195767198 75.34391534391536,152.38095238095238 75.76719576719577,153.01587301587304 76.19047619047619,153.43915343915344 76.61375661375662,153.86243386243387 77.03703703703704,154.2857142857143 77.67195767195767,154.7089947089947 78.0952380952381,155.13227513227514 78.73015873015873,155.34391534391534 79.15343915343917,155.76719576719577 79.7883597883598,155.978835978836 80.42328042328043,156.4021164021164 81.05820105820106,156.82539682539684 81.6931216931217,157.03703703703704 82.32804232804233,157.46031746031747 82.96296296296298,157.67195767195767 83.59788359788361,157.8835978835979 84.23280423280424,158.0952380952381 84.86772486772487,158.30687830687833 85.5026455026455,158.51851851851853 86.13756613756614,158.94179894179896 86.77248677248677,159.15343915343917 87.40740740740742,159.36507936507937 88.04232804232805,159.5767195767196 88.67724867724868,160.0 89.31216931216932,160.42328042328043 89.73544973544975,160.84656084656086 90.15873015873017,161.2698412698413 90.58201058201058,161.6931216931217 91.00529100529101,162.11640211640213 91.21693121693123,162.75132275132276 91.64021164021165,163.3862433862434 92.06349206349208,164.02116402116403 92.06349206349208,164.65608465608466 92.06349206349208,165.2910052910053 91.85185185185186,165.92592592592595 91.85185185185186,166.56084656084658 91.42857142857143,167.19576719576722 91.00529100529101,167.83068783068785 90.58201058201058,168.46560846560848 89.94708994708995,168.8888888888889 89.52380952380953,169.31216931216932 88.8888888888889,169.73544973544975 88.25396825396827,170.15873015873018 87.61904761904762,170.37037037037038 86.98412698412699,170.7936507936508 86.34920634920636,171.005291005291 85.71428571428572,171.21693121693124 85.07936507936509,171.42857142857144 84.44444444444446,171.64021164021165 83.80952380952381,171.85185185185188 83.17460317460318,172.06349206349208 82.53968253968254,172.27513227513228 81.90476190476191,172.4867724867725 81.26984126984128,172.6984126984127 80.63492063492065,172.9100529100529 80.0,173.12169312169314 79.36507936507937,173.33333333333334 78.73015873015873,173.54497354497354 78.0952380952381,173.54497354497354 77.46031746031747,173.75661375661377 76.82539682539684,173.96825396825398 76.19047619047619,174.1798941798942 75.55555555555556,174.3915343915344 74.92063492063492,174.3915343915344 74.28571428571429,174.6031746031746 73.65079365079366,174.81481481481484 73.01587301587303,175.02645502645504 72.38095238095238,175.02645502645504 71.74603174603175,175.23809523809524 71.11111111111111,175.44973544973547 70.47619047619048,175.66137566137567 69.84126984126985,175.87301587301587 69.20634920634922,175.87301587301587 65.18518518518519,176.93121693121694" style="fill:none; stroke:#00aa99; stroke-width:1.0"  /><polyline points="65.18518518518519,176.93121693121694 63.70370370370371,174.1798941798942 63.492063492063494,173.54497354497354 63.06878306878308,172.9100529100529 62.64550264550265,172.27513227513228 62.22222222222223,171.64021164021165 62.01058201058201,171.005291005291 61.58730158730159,170.37037037037038 61.37566137566138,169.73544973544975 60.952380952380956,169.10052910052912 60.52910052910053,168.46560846560848 60.31746031746032,167.83068783068785 59.8941798941799,167.19576719576722 59.682539682539684,166.56084656084658 59.25925925925927,165.92592592592595 58.83597883597884,165.2910052910053 58.62433862433863,164.65608465608466 58.41269841269842,164.02116402116403 57.989417989417994,163.3862433862434 57.56613756613757,162.96296296296296 57.35449735449736,162.32804232804233 57.142857142857146,161.6931216931217 56.71957671957672,161.05820105820106 56.50793650793651,160.42328042328043 56.08465608465609,159.7883597883598 55.87301587301588,159.15343915343917 55.661375661375665,158.51851851851853 55.449735449735456,157.8835978835979 55.23809523809524,157.24867724867727 55.02645502645503,156.61375661375664 54.81481481481482,155.978835978836 54.60317460317461,155.34391534391534 54.39153439153439,154.7089947089947 54.179894179894184,154.07407407407408 53.968253968253975,153.43915343915344 53.75661375661376,152.8042328042328 53.54497354497355,152.16931216931218 53.333333333333336,151.53439153439155 53.12169312169313,150.8994708994709 52.91005291005291,150.26455026455028 52.48677248677249,149.62962962962965 52.27513227513228,148.99470899470901 52.06349206349207,148.35978835978838 51.851851851851855,147.72486772486775 51.42857142857143,147.0899470899471 51.21693121693122,146.45502645502646 51.00529100529101,145.82010582010582 50.58201058201058,145.1851851851852 50.370370370370374,144.55026455026456 49.94708994708995,143.91534391534393 49.73544973544974,143.2804232804233 49.31216931216932,142.64550264550266 49.1005291005291,142.01058201058203 48.677248677248684,141.5873015873016 48.46560846560847,140.95238095238096 48.042328042328045,140.52910052910053 47.61904761904762,139.8941798941799 47.195767195767196,139.25925925925927 46.77248677248678,138.83597883597884 46.349206349206355,138.41269841269843 45.92592592592593,137.989417989418 45.50264550264551,137.56613756613757 45.07936507936508,137.14285714285717 44.44444444444445,136.71957671957674 43.80952380952381,136.2962962962963 43.17460317460318,136.0846560846561 42.539682539682545,135.66137566137567 41.904761904761905,135.44973544973547 41.26984126984127,135.23809523809524 40.63492063492064,135.02645502645504 40.0,135.02645502645504 39.36507936507937,135.02645502645504 38.730158730158735,135.02645502645504 38.095238095238095,135.02645502645504 37.46031746031746,135.23809523809524 36.82539682539683,135.44973544973547 36.19047619047619,135.44973544973547 35.55555555555556,135.87301587301587 34.920634920634924,136.0846560846561 34.28571428571429,136.5079365079365 33.65079365079365,136.71957671957674 33.22751322751323,137.14285714285717 32.592592592592595,137.56613756613757 32.16931216931217,137.989417989418 31.746031746031747,138.41269841269843 31.111111111111114,138.83597883597884 30.68783068783069,139.25925925925927 30.264550264550266,139.6825396825397 29.841269841269842,140.31746031746033 29.41798941798942,140.74074074074076 28.994708994708997,141.16402116402116 28.571428571428573,141.5873015873016 28.14814814814815,142.01058201058203 27.724867724867728,142.43386243386246 27.301587301587304,142.85714285714286 26.87830687830688,143.2804232804233 26.455026455026456,143.70370370370372 26.031746031746035,144.12698412698413 25.3968253968254,144.55026455026456 24.973544973544975,144.973544973545 24.55026455026455,145.39682539682542 23.915343915343918,145.82010582010582 23.280423280423282,146.24338624338625 22.857142857142858,146.66666666666669 22.222222222222225,147.0899470899471 21.58730158730159,147.30158730158732 21.164021164021165,147.72486772486775 20.529100529100532,148.14814814814815 19.894179894179896,148.57142857142858 19.25925925925926,148.99470899470901 18.624338624338627,149.20634920634922 17.98941798941799,149.62962962962965 17.354497354497354,149.84126984126985 16.71957671957672,150.05291005291005 16.084656084656086,150.26455026455028 15.449735449735451,150.47619047619048 14.814814814814817,150.47619047619048 14.17989417989418,150.6878306878307 13.544973544973546,150.6878306878307 12.910052910052912,150.6878306878307 12.275132275132275,150.47619047619048 11.640211640211641,150.26455026455028 11.005291005291006,150.05291005291005 10.370370370370372,149.84126984126985 9.947089947089948,149.41798941798942 9.312169312169313,149.20634920634922 8.88888888888889,148.78306878306879 8.253968253968255,148.35978835978838 7.830687830687832,147.93650793650795 7.195767195767196,147.51322751322752 6.772486772486773,147.0899470899471 6.34920634920635,146.66666666666669 5.9259259259259265,146.24338624338625 5.502645502645503,145.82010582010582 5.07936507936508,145.39682539682542 4.867724867724868,144.76190476190476 4.444444444444445,144.12698412698413 4.021164021164021,143.4920634920635 3.597883597883598,142.85714285714286 3.174603174603175,142.22222222222223 2.9629629629629632,141.5873015873016 2.53968253968254,140.95238095238096 2.3280423280423284,140.31746031746033 2.1164021164021167,139.6825396825397 1.9047619047619049,139.04761904761907 1.6931216931216932,138.41269841269843 1.6931216931216932,137.7777777777778 1.4814814814814816,137.14285714285717 1.4814814814814816,136.5079365079365 1.4814814814814816,135.87301587301587 1.4814814814814816,135.23809523809524 1.4814814814814816,134.6031746031746 1.4814814814814816,133.96825396825398 1.6931216931216932,133.33333333333334 1.6931216931216932,132.6984126984127 1.9047619047619049,132.06349206349208 1.9047619047619049,131.42857142857144 2.1164021164021167,130.7936507936508 2.53968253968254,130.15873015873018 2.9629629629629632,129.52380952380955 3.174603174603175,128.88888888888889 3.597883597883598,128.25396825396825 4.021164021164021,127.83068783068784 4.444444444444445,127.40740740740742 4.867724867724868,126.98412698412699 5.502645502645503,126.56084656084657 5.9259259259259265,126.13756613756615 6.560846560846561,125.71428571428572 7.195767195767196,125.5026455026455 7.6190476190476195,125.07936507936509 8.253968253968255,124.86772486772487 8.88888888888889,124.44444444444446 9.523809523809524,124.23280423280424 10.15873015873016,124.23280423280424 10.582010582010582,123.80952380952382 11.216931216931219,123.80952380952382 11.851851851851853,123.59788359788361 12.486772486772487,123.59788359788361 13.121693121693122,123.59788359788361 13.756613756613758,123.3862433862434 14.391534391534393,123.3862433862434 15.026455026455027,123.3862433862434 15.661375661375663,123.3862433862434 16.296296296296298,123.3862433862434 16.931216931216934,123.3862433862434 17.566137566137566,123.3862433862434 18.201058201058203,123.17460317460318 18.83597883597884,123.17460317460318 19.47089947089947,122.96296296296298 20.105820105820108,122.96296296296298 20.740740740740744,122.75132275132276 21.375661375661377,122.53968253968254 22.010582010582013,122.53968253968254 22.645502645502646,122.32804232804234 23.280423280423282,122.11640211640213 23.915343915343918,121.90476190476191 24.55026455026455,121.6931216931217 25.185185185185187,121.4814814814815 25.60846560846561,121.05820105820106 26.243386243386244,120.63492063492065 26.87830687830688,120.21164021164022 27.301587301587304,119.57671957671958 27.724867724867728,119.15343915343917 28.14814814814815,118.51851851851853 28.571428571428573,117.88359788359789 28.783068783068785,117.24867724867725 28.783068783068785,116.61375661375662 28.994708994708997,115.97883597883599 28.994708994708997,115.34391534391536 29.20634920634921,114.70899470899472 29.20634920634921,114.07407407407408 29.20634920634921,113.43915343915344 29.20634920634921,112.80423280423281 29.20634920634921,112.16931216931218 28.994708994708997,111.53439153439155 28.994708994708997,110.89947089947091 28.783068783068785,110.26455026455027 28.783068783068785,109.62962962962963 28.35978835978836,108.994708994709 28.14814814814815,108.35978835978837 27.93650793650794,107.72486772486774 27.724867724867728,107.0899470899471 27.301587301587304,106.45502645502647 26.87830687830688,105.82010582010582 26.666666666666668,105.18518518518519 26.243386243386244,104.76190476190477 25.820105820105823,104.12698412698414 25.3968253968254,103.4920634920635 24.973544973544975,102.85714285714286 24.55026455026455,102.22222222222223 24.12698412698413,101.79894179894181 23.703703703703706,101.16402116402116 23.280423280423282,100.52910052910053 22.857142857142858,99.8941798941799 22.433862433862437,99.25925925925927 22.010582010582013,98.83597883597885 21.58730158730159,98.2010582010582 21.375661375661377,97.56613756613757 20.952380952380953,97.14285714285715 20.529100529100532,96.50793650793652 20.105820105820108,95.87301587301587 19.682539682539684,95.23809523809524 19.25925925925926,94.60317460317461 18.83597883597884,93.96825396825398 18.412698412698415,93.54497354497356 17.98941798941799,92.91005291005291 17.77777777777778,92.27513227513228 17.354497354497354,91.64021164021165 16.931216931216934,91.00529100529101 16.50793650793651,90.37037037037038 16.084656084656086,89.73544973544975 15.661375661375663,89.1005291005291 15.238095238095239,88.46560846560847 15.026455026455027,87.83068783068784 14.603174603174605,87.40740740740742 14.391534391534393,86.77248677248677 13.96825396825397,86.34920634920636 13.756613756613758,85.71428571428572 13.333333333333334,85.29100529100529 12.910052910052912,84.65608465608466 12.6984126984127,84.02116402116403 12.275132275132275,83.59788359788361 11.851851851851853,82.96296296296298 11.640211640211641,82.32804232804233 11.216931216931219,81.90476190476191 11.005291005291006,81.26984126984128 10.582010582010582,80.84656084656085 10.370370370370372,80.21164021164022 9.947089947089948,79.7883597883598 9.735449735449736,79.15343915343917 9.312169312169313,78.51851851851852 8.88888888888889,77.88359788359789 8.465608465608467,77.24867724867725 8.042328042328043,76.61375661375662 7.830687830687832,75.97883597883599 7.407407407407408,75.34391534391536 7.195767195767196,74.70899470899471 6.772486772486773,74.28571428571429 6.560846560846561,73.65079365079366 6.137566137566138,73.01587301587303 5.714285714285714,72.38095238095238 5.502645502645503,71.74603174603175 5.07936507936508,71.11111111111111 4.867724867724868,70.47619047619048 4.444444444444445,69.84126984126985 4.2328042328042335,69.20634920634922 3.8095238095238098,68.57142857142858 3.597883597883598,67.93650793650794 3.174603174603175,67.51322751322752 2.9629629629629632,66.87830687830689 2.53968253968254,66.24338624338625 2.3280423280423284,65.60846560846561 1.9047619047619049,65.18518518518519 1.6931216931216932,64.55026455026456 1.26984126984127,64.12698412698413 -0.634920634920635,60.952380952380956" style="fill:none; stroke:#3300bb; stroke-width:1.0"  /><circle cx="-0.634920634920635" cy="60.952380952380956" r="2.0" style="fill:none; stroke:#000000aa; stroke-width:0.25" /><circle cx="131.42857142857144" cy="0.0" r="2.0" style="fill:none; stroke:#000000aa; stroke-width:0.25" /><circle cx="173.33333333333334" cy="110.89947089947091" r="2.0" style="fill:none; stroke:#000000aa; stroke-width:0.25" /><circle cx="65.18518518518519" cy="176.93121693121694" r="2.0" style="fill:none; stroke:#000000aa; stroke-width:0.25" /><circle cx="0.21164021164021166" cy="61.16402116402117" r="2.0" style="fill:none; stroke:#ff3366aa; stroke-width:0.25" /><circle cx="131.005291005291" cy="0.21164021164021166" r="2.0" style="fill:none; stroke:#ff3366aa; stroke-width:0.25" /><circle cx="172.6984126984127" cy="111.53439153439155" r="2.0" style="fill:none; stroke:#ff3366aa; stroke-width:0.25" /><circle cx="65.82010582010582" cy="176.71957671957674" r="2.0" style="fill:none; stroke:#ff3366aa; stroke-width:0.25" /><polyline points="10.582010582010582,55.87301587301588 10.15873015873016,56.2962962962963 9.523809523809524,56.2962962962963 9.100529100529101,56.71957671957672 8.465608465608467,56.71957671957672 8.042328042328043,57.142857142857146 7.407407407407408,57.142857142857146 6.772486772486773,57.35449735449736 6.137566137566138,57.777777777777786 5.502645502645503,58.2010582010582 4.867724867724868,58.41269841269842 4.2328042328042335,58.62433862433863 3.597883597883598,59.04761904761905 2.9629629629629632,59.25925925925927" style="fill:none; stroke:#001100; stroke-width:1.0" /><polyline points="5.502645502645503,71.74603174603175 5.07936507936508,71.11111111111111 4.867724867724868,70.47619047619048 4.444444444444445,69.84126984126985 4.2328042328042335,69.20634920634922 3.8095238095238098,68.57142857142858 3.597883597883598,67.93650793650794 3.174603174603175,67.51322751322752 2.9629629629629632,66.87830687830689 2.53968253968254,66.24338624338625 2.3280423280423284,65.60846560846561 1.9047619047619049,65.18518518518519 1.6931216931216932,64.55026455026456 1.26984126984127,64.12698412698413" style="fill:none; stroke:#000011; stroke-width:1.0" /><polyline points="133.54497354497354,11.428571428571429 133.33333333333334,10.793650793650794 133.33333333333334,10.15873015873016 133.12169312169314,9.523809523809524 133.12169312169314,8.88888888888889 132.9100529100529,8.253968253968255 132.9100529100529,7.6190476190476195 132.6984126984127,6.984126984126985 132.4867724867725,6.34920634920635 132.4867724867725,5.714285714285714 132.4867724867725,5.07936507936508 132.27513227513228,4.444444444444445 132.06349206349208,3.8095238095238098 132.06349206349208,3.174603174603175" style="fill:none; stroke:#001100; stroke-width:1.0" /><polyline points="120.00000000000001,4.021164021164021 120.63492063492065,3.8095238095238098 121.05820105820106,3.3862433862433865 121.6931216931217,3.3862433862433865 122.32804232804234,3.174603174603175 122.96296296296298,2.9629629629629632 123.59788359788361,2.53968253968254 124.23280423280424,2.53968253968254 124.86772486772487,2.3280423280423284 125.5026455026455,1.9047619047619049 126.13756613756615,1.6931216931216932 126.77248677248679,1.4814814814814816 127.40740740740742,1.4814814814814816 128.04232804232805,1.26984126984127" style="fill:none; stroke:#000011; stroke-width:1.0" /><polyline points="165.0793650793651,120.63492063492065 165.50264550264552,120.21164021164022 165.92592592592595,119.57671957671958 166.34920634920636,119.15343915343917 166.7724867724868,118.73015873015873 167.19576719576722,118.30687830687832 167.61904761904762,117.67195767195768 168.04232804232805,117.24867724867725 168.46560846560848,116.61375661375662 168.8888888888889,116.1904761904762 169.31216931216932,115.55555555555557 169.73544973544975,115.13227513227514 170.15873015873018,114.49735449735451 170.58201058201058,114.07407407407408" style="fill:none; stroke:#001100; stroke-width:1.0" /><polyline points="168.04232804232805,100.74074074074075 168.46560846560848,101.37566137566138 168.67724867724868,102.01058201058201 169.10052910052912,102.64550264550266 169.31216931216932,103.28042328042329 169.52380952380955,103.91534391534393 169.94708994708995,104.55026455026456 170.15873015873018,105.18518518518519 170.58201058201058,105.82010582010582 170.7936507936508,106.45502645502647 171.21693121693124,106.87830687830689 171.42857142857144,107.51322751322752 171.85185185185188,108.14814814814815" style="fill:none; stroke:#000011; stroke-width:1.0" /><polyline points="59.682539682539684,166.56084656084658 59.8941798941799,167.19576719576722 60.31746031746032,167.83068783068785 60.52910052910053,168.46560846560848 60.952380952380956,169.10052910052912 61.37566137566138,169.73544973544975 61.58730158730159,170.37037037037038 62.01058201058201,171.005291005291 62.22222222222223,171.64021164021165 62.64550264550265,172.27513227513228 63.06878306878308,172.9100529100529 63.492063492063494,173.54497354497354 63.70370370370371,174.1798941798942" style="fill:none; stroke:#001100; stroke-width:1.0" /><polyline points="77.46031746031747,173.75661375661377 76.82539682539684,173.96825396825398 76.19047619047619,174.1798941798942 75.55555555555556,174.3915343915344 74.92063492063492,174.3915343915344 74.28571428571429,174.6031746031746 73.65079365079366,174.81481481481484 73.01587301587303,175.02645502645504 72.38095238095238,175.02645502645504 71.74603174603175,175.23809523809524 71.11111111111111,175.44973544973547 70.47619047619048,175.66137566137567 69.84126984126985,175.87301587301587 69.20634920634922,175.87301587301587" style="fill:none; stroke:#000011; stroke-width:1.0" /><polyline points="2.9629629629629632,59.25925925925927 -16.296296296296298,67.93650793650794" style="fill:none; stroke:#ffaa00; stroke-width:0.4" /><polyline points="1.26984126984127,64.12698412698413 -9.100529100529101,45.714285714285715" style="fill:none; stroke:#aaff00; stroke-width:0.4" /><polyline points="132.06349206349208,3.174603174603175 128.25396825396825,-17.566137566137566" style="fill:none; stroke:#ffaa00; stroke-width:0.4" /><polyline points="128.04232804232805,1.26984126984127 148.14814814814815,-5.502645502645503" style="fill:none; stroke:#aaff00; stroke-width:0.4" /><polyline points="170.58201058201058,114.07407407407408 184.12698412698415,97.77777777777779" style="fill:none; stroke:#ffaa00; stroke-width:0.4" /><polyline points="171.85185185185188,108.14814814814815 181.5873015873016,126.98412698412699" style="fill:none; stroke:#aaff00; stroke-width:0.4" /><polyline points="63.70370370370371,174.1798941798942 73.65079365079366,192.8042328042328" style="fill:none; stroke:#ffaa00; stroke-width:0.4" /><polyline points="69.20634920634922,175.87301587301587 48.677248677248684,181.16402116402116" style="fill:none; stroke:#aaff00; stroke-width:0.4" /><circle cx="94.39153439153439" cy="85.71428571428572" r="1.0" style="fill:#444444; stroke-width:0" /><circle cx="120.42328042328043" cy="74.28571428571429" r="10.582010582010582" style="fill:#ff770022; stroke-width:0" /><circle cx="120.42328042328043" cy="74.28571428571429" r="1.0" style="fill:#ff7700; stroke-width:0" /></svg>