<?xml version="1.0" encoding="UTF-8" standalone="no"?><svg width="573.968253968254" height="546.6666666666667" viewBox="-10 -10 211.32275132275134 202.22222222222223" xmlns="http://www.w3.org/2000/svg" xmlns:xlink="http://www.w3.org/1999/xlink"><polyline points="25.3968253968254,1.9047619047619049 28.783068783068785,2.1164021164021167 29.41798941798942,2.3280423280423284 30.052910052910054,2.1164021164021167 30.68783068783069,2.53968253968254 31.322751322751326,2.53968253968254 31.95767195767196,2.53968253968254 32.592592592592595,2.53968253968254 33.22751322751323,2.7513227513227516 33.86243386243387,2.7513227513227516 34.4973544973545,2.7513227513227516 35.13227513227513,2.7513227513227516 35.76719576719577,2.7513227513227516 36.402116402116405,2.7513227513227516 37.03703703703704,2.7513227513227516 37.67195767195768,2.7513227513227516 38.30687830687831,2.9629629629629632 38.94179894179894,3.174603174603175 39.57671957671958,3.174603174603175 40.211640211640216,3.174603174603175 40.84656084656085,3.174603174603175 41.48148148148149,3.174603174603175 42.11640211640212,3.174603174603175 42.75132275132275,3.174603174603175 43.386243386243386,3.174603174603175 44.021164021164026,3.174603174603175 44.65608465608466,3.174603174603175 45.29100529100529,3.174603174603175 45.92592592592593,3.174603174603175 46.560846560846564,3.174603174603175 47.195767195767196,3.174603174603175 47.830687830687836,3.174603174603175 48.46560846560847,3.174603174603175 49.1005291005291,3.3862433862433865 49.73544973544974,3.3862433862433865 50.370370370370374,3.174603174603175 51.00529100529101,3.174603174603175 51.640211640211646,3.174603174603175 52.27513227513228,3.174603174603175 52.91005291005291,3.174603174603175 53.54497354497355,3.174603174603175 54.179894179894184,3.174603174603175 54.81481481481482,3.174603174603175 55.449735449735456,3.174603174603175 56.08465608465609,3.174603174603175 56.71957671957672,3.174603174603175 57.35449735449736,3.174603174603175 57.989417989417994,3.174603174603175 58.62433862433863,3.3862433862433865 59.25925925925927,3.3862433862433865 59.8941798941799,3.3862433862433865 60.52910052910053,3.8095238095238098 61.16402116402117,4.021164021164021 61.798941798941804,4.021164021164021 62.43386243386244,4.2328042328042335 63.06878306878308,4.444444444444445 63.70370370370371,4.444444444444445 64.33862433862434,4.867724867724868 64.76190476190477,5.291005291005291 65.18518518518519,5.714285714285714 65.60846560846561,6.137566137566138 66.03174603174604,6.560846560846561 66.24338624338625,7.195767195767196 66.45502645502646,7.830687830687832 66.45502645502646,8.465608465608467 66.45502645502646,9.100529100529101 66.66666666666667,9.735449735449736 66.45502645502646,10.370370370370372 66.24338624338625,11.005291005291006 66.03174603174604,11.640211640211641 65.60846560846561,12.063492063492065 65.18518518518519,12.6984126984127 64.76190476190477,13.121693121693122 64.33862433862434,13.756613756613758 63.91534391534392,14.17989417989418 63.280423280423285,14.603174603174605 62.85714285714286,15.238095238095239 62.22222222222223,15.661375661375663 61.798941798941804,16.084656084656086 61.16402116402117,16.296296296296298 60.74074074074075,16.71957671957672 60.10582010582011,17.142857142857146 59.470899470899475,17.566137566137566 59.04761904761905,17.98941798941799 58.41269841269842,18.412698412698415 57.989417989417994,18.83597883597884 57.35449735449736,19.25925925925926 56.71957671957672,19.682539682539684 56.2962962962963,20.105820105820108 55.87301587301588,20.529100529100532 55.449735449735456,20.952380952380953 55.02645502645503,21.375661375661377 54.60317460317461,21.7989417989418 54.179894179894184,22.433862433862437 53.75661375661376,23.06878306878307 53.333333333333336,23.703703703703706 52.91005291005291,24.338624338624342 52.6984126984127,24.973544973544975 52.27513227513228,25.60846560846561 52.06349206349207,26.243386243386244 51.851851851851855,26.87830687830688 51.640211640211646,27.513227513227516 51.42857142857143,28.14814814814815 51.42857142857143,28.783068783068785 51.42857142857143,29.41798941798942 51.42857142857143,30.052910052910054 51.640211640211646,30.68783068783069 51.851851851851855,31.322751322751326 52.06349206349207,31.95767195767196 52.48677248677249,32.592592592592595 52.91005291005291,33.22751322751323 53.333333333333336,33.86243386243387 53.75661375661376,34.28571428571429 54.179894179894184,34.70899470899471 54.60317460317461,35.13227513227513 55.23809523809524,35.34391534391535 55.661375661375665,35.76719576719577 56.2962962962963,36.19047619047619 56.71957671957672,36.613756613756614 57.35449735449736,37.03703703703704 57.777777777777786,37.46031746031746 58.41269841269842,37.67195767195768 59.04761904761905,38.095238095238095 59.682539682539684,38.51851851851852 60.31746031746032,38.730158730158735 60.952380952380956,39.15343915343916 61.58730158730159,39.36507936507937 62.22222222222223,39.57671957671958 62.85714285714286,40.0 63.492063492063494,40.0 64.12698412698413,40.211640211640216 64.76190476190477,40.211640211640216 65.3968253968254,40.423280423280424 66.03174603174604,40.63492063492064 66.66666666666667,40.84656084656085 67.3015873015873,40.84656084656085 67.93650793650794,41.26984126984127 68.57142857142858,41.48148148148149 69.20634920634922,41.6931216931217 69.84126984126985,41.6931216931217 70.47619047619048,41.904761904761905 71.11111111111111,42.11640211640212 71.74603174603175,42.32804232804233 72.38095238095238,42.539682539682545 73.01587301587303,42.32804232804233 73.65079365079366,42.32804232804233 74.28571428571429,42.32804232804233 74.92063492063492,42.539682539682545 75.55555555555556,42.75132275132275 76.19047619047619,42.75132275132275 76.82539682539684,42.75132275132275 77.46031746031747,42.75132275132275 78.0952380952381,42.75132275132275 78.73015873015873,42.75132275132275 79.36507936507937,42.96296296296297 80.0,42.96296296296297 80.63492063492065,42.96296296296297 81.26984126984128,42.96296296296297 81.90476190476191,43.17460317460318 82.53968253968254,43.17460317460318 83.17460317460318,43.386243386243386 83.80952380952381,43.386243386243386 84.44444444444446,43.17460317460318 85.07936507936509,43.17460317460318 85.71428571428572,43.386243386243386 86.34920634920636,43.386243386243386 86.98412698412699,43.386243386243386 87.61904761904762,43.386243386243386 88.25396825396827,43.386243386243386 88.8888888888889,43.17460317460318 89.52380952380953,43.17460317460318 90.15873015873017,43.17460317460318 90.7936507936508,43.17460317460318 91.42857142857143,43.17460317460318 92.06349206349208,43.17460317460318 92.69841269841271,42.96296296296297 93.33333333333334,42.96296296296297 93.96825396825398,42.96296296296297 94.60317460317461,42.96296296296297 95.23809523809524,42.96296296296297 95.87301587301587,42.75132275132275 96.50793650793652,42.75132275132275 97.14285714285715,42.75132275132275 97.77777777777779,42.539682539682545 98.41269841269842,42.539682539682545 99.04761904761905,42.32804232804233 99.68253968253968,41.904761904761905 100.31746031746033,41.904761904761905 100.95238095238096,41.904761904761905 101.5873015873016,41.6931216931217 102.22222222222223,41.48148148148149 102.85714285714286,41.26984126984127 103.4920634920635,41.058201058201064 104.12698412698414,40.84656084656085 104.76190476190477,40.63492063492064 105.3968253968254,40.63492063492064 106.03174603174604,40.423280423280424 106.66666666666667,40.211640211640216 107.3015873015873,40.0 107.93650793650795,39.78835978835979 108.57142857142858,39.57671957671958 109.20634920634922,39.15343915343916 109.84126984126985,38.94179894179894 110.47619047619048,38.94179894179894 111.11111111111111,38.51851851851852 111.74603174603176,38.30687830687831 112.3809523809524,38.095238095238095 113.01587301587303,37.883597883597886 113.65079365079366,37.46031746031746 114.28571428571429,37.248677248677254 114.92063492063492,37.03703703703704 115.55555555555557,36.613756613756614 116.1904761904762,36.402116402116405 116.82539682539684,35.97883597883598 117.46031746031747,35.76719576719577 117.88359788359789,35.34391534391535 118.51851851851853,34.920634920634924 119.15343915343917,34.4973544973545 119.57671957671958,34.074074074074076 120.00000000000001,33.65079365079365 120.42328042328043,33.22751322751323 120.84656084656086,32.804232804232804 121.26984126984128,32.16931216931217 121.4814814814815,31.53439153439154 121.90476190476191,30.899470899470902 121.90476190476191,30.264550264550266 122.11640211640213,29.629629629629633 122.32804232804234,28.994708994708997 122.32804232804234,28.35978835978836 122.32804232804234,27.724867724867728 122.32804232804234,27.089947089947092 122.11640211640213,26.455026455026456 122.11640211640213,25.820105820105823 121.90476190476191,25.185185185185187 121.6931216931217,24.55026455026455 121.4814814814815,23.915343915343918 121.26984126984128,23.280423280423282 120.84656084656086,22.857142857142858 120.42328042328043,22.222222222222225 120.00000000000001,21.58730158730159 119.57671957671958,21.164021164021165 119.15343915343917,20.740740740740744 118.73015873015873,20.31746031746032 118.30687830687832,19.894179894179896 117.88359788359789,19.47089947089947 117.24867724867725,19.047619047619047 116.61375661375662,18.624338624338627 116.1904761904762,18.201058201058203 115.55555555555557,17.77777777777778 115.13227513227514,17.354497354497354 114.49735449735451,16.931216931216934 114.07407407407408,16.50793650793651 113.43915343915344,16.084656084656086 112.80423280423281,15.661375661375663 112.16931216931218,15.238095238095239 111.74603174603176,14.814814814814817 111.32275132275133,14.391534391534393 110.89947089947091,13.96825396825397 110.47619047619048,13.544973544973546 110.05291005291006,13.121693121693122 109.62962962962963,12.6984126984127 109.20634920634922,12.275132275132275 108.78306878306879,11.640211640211641 108.35978835978837,11.005291005291006 108.14814814814815,10.370370370370372 107.93650793650795,9.735449735449736 107.51322751322752,9.100529100529101 107.3015873015873,8.465608465608467 107.3015873015873,7.830687830687832 107.3015873015873,7.195767195767196 107.0899470899471,6.560846560846561 107.0899470899471,5.9259259259259265 107.3015873015873,5.291005291005291 107.51322751322752,4.656084656084657 107.93650793650795,4.021164021164021 108.35978835978837,3.3862433862433865 108.78306878306879,2.9629629629629632 109.41798941798943,2.53968253968254 110.05291005291006,2.1164021164021167 110.47619047619048,1.4814814814814816 111.11111111111111,1.4814814814814816 111.74603174603176,1.6931216931216932 112.16931216931218,1.26984126984127 112.80423280423281,1.26984126984127 113.43915343915344,1.26984126984127 114.07407407407408,1.0582010582010584 114.70899470899472,0.8465608465608466 115.34391534391536,0.8465608465608466 115.97883597883599,0.634920634920635 116.61375661375662,0.634920634920635 117.24867724867725,0.634920634920635 117.88359788359789,0.634920634920635 118.51851851851853,0.634920634920635 119.15343915343917,0.634920634920635 119.7883597883598,0.634920634920635 120.42328042328043,0.634920634920635 121.05820105820106,0.634920634920635 121.6931216931217,0.634920634920635 122.32804232804234,0.634920634920635 122.96296296296298,0.634920634920635 123.59788359788361,0.634920634920635 124.23280423280424,0.634920634920635 124.86772486772487,0.634920634920635 125.5026455026455,0.634920634920635 126.13756613756615,0.634920634920635 126.77248677248679,0.634920634920635 127.40740740740742,0.634920634920635 128.04232804232805,0.634920634920635 128.67724867724868,0.634920634920635 129.31216931216932,0.634920634920635 129.94708994708995,0.4232804232804233 130.58201058201058,0.4232804232804233 131.21693121693121,0.634920634920635 131.85185185185185,0.634920634920635 132.4867724867725,0.634920634920635 133.12169312169314,0.4232804232804233 133.75661375661377,0.4232804232804233 134.3915343915344,0.21164021164021166 135.02645502645504,0.4232804232804233 135.66137566137567,0.4232804232804233 136.2962962962963,0.4232804232804233 136.93121693121694,0.4232804232804233 137.56613756613757,0.4232804232804233 138.2010582010582,0.4232804232804233 138.83597883597884,0.4232804232804233 139.47089947089947,0.4232804232804233 140.10582010582013,0.4232804232804233 140.74074074074076,0.4232804232804233 141.3756613756614,0.4232804232804233 142.01058201058203,0.4232804232804233 142.64550264550266,0.4232804232804233 143.2804232804233,0.4232804232804233 143.91534391534393,0.634920634920635 144.55026455026456,0.634920634920635 145.1851851851852,0.634920634920635 145.82010582010582,0.4232804232804233 146.45502645502646,0.634920634920635 147.0899470899471,0.8465608465608466 147.72486772486775,0.8465608465608466 148.35978835978838,0.8465608465608466 148.99470899470901,0.8465608465608466 149.62962962962965,0.8465608465608466 150.26455026455028,0.8465608465608466 150.8994708994709,0.8465608465608466 151.53439153439155,0.8465608465608466 152.16931216931218,0.8465608465608466 152.8042328042328,0.8465608465608466 153.43915343915344,0.8465608465608466 154.07407407407408,0.8465608465608466 154.7089947089947,0.8465608465608466 155.34391534391534,1.0582010582010584 155.978835978836,1.26984126984127 156.61375661375664,1.0582010582010584 157.24867724867727,1.0582010582010584 157.8835978835979,1.0582010582010584 158.51851851851853,1.0582010582010584 159.15343915343917,1.26984126984127 159.7883597883598,1.26984126984127 160.42328042328043,1.26984126984127 161.05820105820106,1.4814814814814816 161.6931216931217,1.4814814814814816 162.32804232804233,1.4814814814814816 162.96296296296296,1.4814814814814816 163.59788359788362,1.6931216931216932 164.23280423280426,1.6931216931216932 164.8677248677249,1.6931216931216932 165.50264550264552,1.6931216931216932 166.13756613756615,1.6931216931216932 166.7724867724868,1.6931216931216932 167.40740740740742,1.9047619047619049 168.04232804232805,1.9047619047619049 168.67724867724868,1.9047619047619049 169.31216931216932,1.9047619047619049 169.94708994708995,1.9047619047619049 170.58201058201058,2.1164021164021167 171.21693121693124,1.9047619047619049 171.85185185185188,2.1164021164021167 172.4867724867725,2.3280423280423284 173.12169312169314,2.3280423280423284 176.71957671957674,2.53968253968254" style="fill:none; stroke:#cc0000; stroke-width:1.0"  /><polyline points="176.71957671957674,2.53968253968254 174.81481481481484,6.137566137566138 174.3915343915344,6.772486772486773 173.96825396825398,7.407407407407408 173.75661375661377,8.042328042328043 173.33333333333334,8.465608465608467 173.33333333333334,9.100529100529101 172.9100529100529,9.523809523809524 172.6984126984127,10.15873015873016 172.27513227513228,10.793650793650794 172.06349206349208,11.428571428571429 171.64021164021165,12.063492063492065 171.42857142857144,12.6984126984127 171.005291005291,13.333333333333334 170.7936507936508,13.96825396825397 170.37037037037038,14.603174603174605 170.15873015873018,15.238095238095239 169.94708994708995,15.873015873015873 169.52380952380955,16.50793650793651 169.31216931216932,17.142857142857146 168.8888888888889,17.77777777777778 168.67724867724868,18.412698412698415 168.25396825396825,19.047619047619047 168.04232804232805,19.682539682539684 167.83068783068785,20.31746031746032 167.61904761904762,20.952380952380953 167.19576719576722,21.58730158730159 166.984126984127,22.222222222222225 166.7724867724868,22.857142857142858 166.34920634920636,23.492063492063494 166.13756613756615,24.12698412698413 165.92592592592595,24.761904761904763 165.50264550264552,25.3968253968254 165.2910052910053,26.031746031746035 164.8677248677249,26.455026455026456 164.65608465608466,27.089947089947092 164.44444444444446,27.724867724867728 164.23280423280426,28.35978835978836 163.80952380952382,28.994708994708997 163.59788359788362,29.629629629629633 163.3862433862434,30.264550264550266 162.96296296296296,30.899470899470902 162.75132275132276,31.53439153439154 162.53968253968256,32.16931216931217 162.11640211640213,32.804232804232804 161.90476190476193,33.43915343915344 161.6931216931217,34.074074074074076 161.2698412698413,34.70899470899471 161.05820105820106,35.34391534391535 160.84656084656086,35.97883597883598 160.42328042328043,36.613756613756614 160.21164021164023,37.248677248677254 160.0,37.883597883597886 159.7883597883598,38.51851851851852 159.36507936507937,39.15343915343916 159.15343915343917,39.78835978835979 158.94179894179896,40.423280423280424 158.73015873015873,41.058201058201064 158.30687830687833,41.6931216931217 158.0952380952381,42.32804232804233 157.8835978835979,42.96296296296297 157.46031746031747,43.5978835978836 157.46031746031747,44.232804232804234 157.24867724867727,44.867724867724874 157.03703703703704,45.50264550264551 157.03703703703704,46.13756613756614 156.82539682539684,46.77248677248678 156.82539682539684,47.40740740740741 156.82539682539684,48.042328042328045 157.03703703703704,48.677248677248684 157.24867724867727,49.31216931216932 157.46031746031747,49.94708994708995 157.8835978835979,50.58201058201058 158.0952380952381,51.21693121693122 158.51851851851853,51.640211640211646 159.15343915343917,52.06349206349207 159.7883597883598,52.48677248677249 160.21164021164023,52.91005291005291 160.84656084656086,53.12169312169313 161.4814814814815,53.333333333333336 162.11640211640213,53.54497354497355 162.75132275132276,53.75661375661376 163.3862433862434,53.75661375661376 164.02116402116403,53.75661375661376 164.65608465608466,53.968253968253975 165.2910052910053,53.968253968253975 165.92592592592595,53.968253968253975 166.56084656084658,53.75661375661376 167.19576719576722,53.75661375661376 167.83068783068785,53.75661375661376 168.46560846560848,53.54497354497355 169.10052910052912,53.54497354497355 169.73544973544975,53.54497354497355 170.37037037037038,53.54497354497355 171.005291005291,53.75661375661376 171.42857142857144,53.333333333333336 172.06349206349208,53.333333333333336 172.6984126984127,53.333333333333336 173.33333333333334,53.333333333333336 173.96825396825398,53.333333333333336 174.6031746031746,53.333333333333336 175.23809523809524,53.333333333333336 175.87301587301587,53.333333333333336 176.50793650793653,53.12169312169313 177.14285714285717,53.333333333333336 177.7777777777778,53.333333333333336 178.41269841269843,53.54497354497355 179.04761904761907,53.333333333333336 179.6825396825397,53.54497354497355 180.31746031746033,53.54497354497355 180.95238095238096,53.75661375661376 181.5873015873016,53.54497354497355 182.01058201058203,53.968253968253975 182.64550264550266,54.179894179894184 183.2804232804233,54.39153439153439 183.91534391534393,54.81481481481482 184.55026455026456,55.02645502645503 184.973544973545,55.449735449735456 185.60846560846562,55.87301587301588 186.03174603174605,56.2962962962963 186.66666666666669,56.71957671957672 187.08994708994712,57.142857142857146 187.51322751322752,57.56613756613757 187.93650793650795,57.989417989417994 188.35978835978838,58.62433862433863 188.78306878306879,59.25925925925927 189.20634920634922,59.8941798941799 189.62962962962965,60.52910052910053 189.84126984126985,61.16402116402117 190.05291005291008,61.798941798941804 190.26455026455028,62.43386243386244 190.47619047619048,63.06878306878308 190.6878306878307,63.70370370370371 190.6878306878307,64.33862433862434 190.6878306878307,64.97354497354497 190.8994708994709,65.60846560846561 190.8994708994709,66.24338624338625 190.8994708994709,66.87830687830689 190.8994708994709,67.51322751322752 190.8994708994709,68.14814814814815 190.6878306878307,68.78306878306879 190.6878306878307,69.41798941798942 190.47619047619048,70.05291005291006 190.47619047619048,70.6878306878307 190.26455026455028,71.32275132275133 190.05291005291008,71.95767195767196 189.84126984126985,72.5925925925926 189.62962962962965,73.22751322751323 189.41798941798945,73.86243386243387 188.99470899470901,74.28571428571429 188.78306878306879,74.92063492063492 188.57142857142858,75.55555555555556 188.14814814814815,75.97883597883599 187.72486772486775,76.4021164021164 187.30158730158732,77.03703703703704 186.8783068783069,77.46031746031747 186.24338624338625,77.88359788359789 185.60846560846562,78.0952380952381 184.973544973545,78.30687830687832 184.33862433862436,78.51851851851852 183.70370370370372,78.94179894179895 183.0687830687831,79.15343915343917 182.43386243386246,79.15343915343917 181.79894179894183,79.36507936507937 181.16402116402116,79.36507936507937 180.52910052910053,79.57671957671958 179.8941798941799,79.57671957671958 179.25925925925927,79.57671957671958 178.62433862433863,79.57671957671958 177.989417989418,79.57671957671958 177.35449735449737,79.57671957671958 176.71957671957674,79.57671957671958 176.0846560846561,79.36507936507937 175.44973544973547,79.36507936507937 174.81481481481484,79.15343915343917 174.1798941798942,79.15343915343917 173.54497354497354,78.94179894179895 172.9100529100529,78.73015873015873 172.27513227513228,78.51851851851852 171.64021164021165,78.51851851851852 171.005291005291,78.30687830687832 170.37037037037038,78.30687830687832 169.73544973544975,78.0952380952381 169.10052910052912,77.88359788359789 168.46560846560848,77.88359788359789 167.83068783068785,78.0952380952381 167.19576719576722,77.88359788359789 166.56084656084658,77.88359788359789 165.92592592592595,78.0952380952381 165.2910052910053,77.88359788359789 164.65608465608466,77.88359788359789 164.02116402116403,77.88359788359789 163.3862433862434,77.88359788359789 162.75132275132276,77.88359788359789 162.11640211640213,77.88359788359789 161.4814814814815,77.88359788359789 160.84656084656086,77.88359788359789 160.21164021164023,77.88359788359789 159.5767195767196,77.88359788359789 158.94179894179896,78.0952380952381 158.30687830687833,78.0952380952381 157.67195767195767,78.0952380952381 157.03703703703704,78.0952380952381 156.4021164021164,78.0952380952381 155.76719576719577,78.0952380952381 155.13227513227514,78.0952380952381 154.4973544973545,78.30687830687832 153.86243386243387,78.51851851851852 153.22751322751324,78.73015873015873 152.5925925925926,78.73015873015873 152.16931216931218,79.15343915343917 151.53439153439155,79.57671957671958 150.8994708994709,80.0 150.47619047619048,80.42328042328043 150.05291005291005,80.84656084656085 149.62962962962965,81.26984126984128 149.41798941798942,81.90476190476191 148.99470899470901,82.53968253968254 148.78306878306879,83.17460317460318 148.57142857142858,83.80952380952381 148.14814814814815,84.44444444444446 148.14814814814815,85.07936507936509 147.93650793650795,85.71428571428572 147.72486772486775,86.34920634920636 147.51322751322752,86.98412698412699 147.51322751322752,87.61904761904762 147.30158730158732,88.25396825396827 147.0899470899471,88.8888888888889 146.8783068783069,89.52380952380953 146.8783068783069,90.15873015873017 146.66666666666669,90.7936507936508 146.45502645502646,91.42857142857143 146.45502645502646,92.06349206349208 146.24338624338625,92.69841269841271 146.03174603174605,93.33333333333334 145.82010582010582,93.96825396825398 145.82010582010582,94.60317460317461 145.60846560846562,95.23809523809524 145.39682539682542,95.87301587301587 145.1851851851852,96.50793650793652 145.1851851851852,97.14285714285715 144.973544973545,97.77777777777779 144.76190476190476,98.41269841269842 144.55026455026456,99.04761904761905 144.55026455026456,99.68253968253968 144.33862433862436,100.31746031746033 144.12698412698413,100.95238095238096 144.12698412698413,101.5873015873016 143.91534391534393,102.22222222222223 143.70370370370372,102.85714285714286 143.70370370370372,103.4920634920635 143.4920634920635,104.12698412698414 143.2804232804233,104.76190476190477 143.2804232804233,105.3968253968254 143.0687830687831,106.03174603174604 142.85714285714286,106.66666666666667 142.85714285714286,107.3015873015873 142.64550264550266,107.93650793650795 142.43386243386246,108.57142857142858 142.43386243386246,109.20634920634922 142.22222222222223,109.84126984126985 142.01058201058203,110.47619047619048 141.7989417989418,111.11111111111111 141.7989417989418,111.74603174603176 141.5873015873016,112.3809523809524 141.3756613756614,113.01587301587303 141.3756613756614,113.65079365079366 141.3756613756614,114.28571428571429 141.16402116402116,114.92063492063492 141.16402116402116,115.55555555555557 140.95238095238096,116.1904761904762 140.74074074074076,116.82539682539684 140.74074074074076,117.46031746031747 140.52910052910053,118.0952380952381 140.31746031746033,118.73015873015873 140.31746031746033,119.36507936507937 140.10582010582013,120.00000000000001 139.8941798941799,120.63492063492065 139.6825396825397,121.26984126984128 139.6825396825397,121.90476190476191 139.47089947089947,122.53968253968254 139.25925925925927,123.17460317460318 139.25925925925927,123.80952380952382 139.04761904761907,124.44444444444446 138.83597883597884,125.07936507936509 138.83597883597884,125.71428571428572 138.62433862433863,126.34920634920636 138.41269841269843,126.98412698412699 138.41269841269843,127.61904761904763 138.2010582010582,128.25396825396825 138.2010582010582,128.88888888888889 137.989417989418,129.52380952380955 137.7777777777778,130.15873015873018 137.7777777777778,130.7936507936508 137.56613756613757,131.42857142857144 137.35449735449737,132.06349206349208 137.35449735449737,132.6984126984127 137.14285714285717,133.33333333333334 137.14285714285717,133.96825396825398 136.93121693121694,134.6031746031746 136.71957671957674,135.23809523809524 136.71957671957674,135.87301587301587 136.5079365079365,136.5079365079365 136.2962962962963,137.14285714285717 136.2962962962963,137.7777777777778 136.0846560846561,138.41269841269843 136.0846560846561,139.04761904761907 135.87301587301587,139.6825396825397 135.87301587301587,140.31746031746033 135.66137566137567,140.95238095238096 135.66137566137567,141.5873015873016 135.44973544973547,142.22222222222223 135.44973544973547,142.85714285714286 135.23809523809524,143.4920634920635 135.02645502645504,144.12698412698413 135.02645502645504,144.76190476190476 134.81481481481484,145.39682539682542 134.81481481481484,146.03174603174605 134.17989417989418,149.41798941798942" style="fill:none; stroke:#999900; stroke-width:1.0"  /><polyline points="134.17989417989418,149.41798941798942 130.37037037037038,147.72486772486775 129.73544973544975,147.51322751322752 129.10052910052912,147.30158730158732 128.46560846560848,147.0899470899471 127.83068783068784,146.66666666666669 127.1957671957672,146.45502645502646 126.56084656084657,146.24338624338625 125.92592592592594,146.03174603174605 125.2910052910053,145.60846560846562 124.65608465608466,145.39682539682542 124.02116402116403,144.973544973545 123.3862433862434,144.76190476190476 122.75132275132276,144.55026455026456 122.32804232804234,144.12698412698413 121.6931216931217,143.91534391534393 121.05820105820106,143.4920634920635 120.42328042328043,143.2804232804233 119.7883597883598,143.0687830687831 119.15343915343917,142.64550264550266 118.51851851851853,142.43386243386246 117.88359788359789,142.01058201058203 117.24867724867725,141.7989417989418 116.61375661375662,141.5873015873016 115.97883597883599,141.16402116402116 115.34391534391536,140.95238095238096 114.70899470899472,140.52910052910053 114.07407407407408,140.31746031746033 113.43915343915344,140.10582010582013 112.80423280423281,139.6825396825397 112.16931216931218,139.47089947089947 111.53439153439155,139.25925925925927 110.89947089947091,139.04761904761907 110.26455026455027,138.83597883597884 109.62962962962963,138.62433862433863 108.994708994709,138.62433862433863 108.35978835978837,138.41269841269843 107.72486772486774,138.2010582010582 107.0899470899471,137.989417989418 106.45502645502647,137.989417989418 105.82010582010582,137.989417989418 105.18518518518519,137.7777777777778 104.55026455026456,137.7777777777778 103.91534391534393,137.56613756613757 103.28042328042329,137.56613756613757 102.64550264550266,137.35449735449737 102.01058201058201,137.35449735449737 101.37566137566138,137.35449735449737 100.74074074074075,137.35449735449737 100.10582010582011,137.35449735449737 99.47089947089948,137.35449735449737 98.83597883597885,137.35449735449737 98.2010582010582,137.56613756613757 97.56613756613757,137.56613756613757 96.93121693121694,137.56613756613757 96.2962962962963,137.56613756613757 95.66137566137567,137.7777777777778 95.02645502645504,137.7777777777778 94.39153439153439,137.7777777777778 93.75661375661376,137.989417989418 93.12169312169313,137.989417989418 92.4867724867725,138.2010582010582 91.85185185185186,138.2010582010582 91.21693121693123,138.41269841269843 90.58201058201058,138.62433862433863 89.94708994708995,138.62433862433863 89.31216931216932,138.83597883597884 88.67724867724868,139.04761904761907 88.04232804232805,139.25925925925927 87.40740740740742,139.47089947089947 86.77248677248677,139.8941798941799 86.13756613756614,140.31746031746033 85.5026455026455,140.74074074074076 85.07936507936509,141.16402116402116 84.65608465608466,141.5873015873016 84.23280423280424,142.22222222222223 84.02116402116403,142.85714285714286 83.59788359788361,143.2804232804233 83.59788359788361,143.91534391534393 83.3862433862434,144.55026455026456 83.17460317460318,145.1851851851852 83.17460317460318,145.82010582010582 82.96296296296298,146.45502645502646 82.96296296296298,147.0899470899471 82.96296296296298,147.72486772486775 83.17460317460318,148.35978835978838 83.17460317460318,148.99470899470901 83.59788359788361,149.41798941798942 83.80952380952381,150.05291005291005 84.02116402116403,150.6878306878307 84.23280423280424,151.32275132275134 84.44444444444446,151.95767195767198 84.65608465608466,152.5925925925926 84.86772486772487,153.22751322751324 85.07936507936509,153.86243386243387 85.29100529100529,154.4973544973545 85.29100529100529,155.13227513227514 85.5026455026455,155.76719576719577 85.92592592592594,156.4021164021164 85.92592592592594,157.03703703703704 86.13756613756614,157.67195767195767 86.34920634920636,158.30687830687833 86.56084656084657,158.94179894179896 86.77248677248677,159.5767195767196 86.98412698412699,160.21164021164023 87.1957671957672,160.84656084656086 87.40740740740742,161.4814814814815 87.61904761904762,162.11640211640213 87.83068783068784,162.75132275132276 87.83068783068784,163.3862433862434 88.04232804232805,164.02116402116403 88.25396825396827,164.65608465608466 88.25396825396827,165.2910052910053 88.25396825396827,165.92592592592595 88.25396825396827,166.56084656084658 88.25396825396827,167.19576719576722 88.25396825396827,167.83068783068785 88.25396825396827,168.46560846560848 88.04232804232805,169.10052910052912 88.04232804232805,169.73544973544975 87.83068783068784,170.37037037037038 87.61904761904762,171.005291005291 87.40740740740742,171.64021164021165 87.1957671957672,172.27513227513228 86.98412698412699,172.9100529100529 86.77248677248677,173.54497354497354 86.56084656084657,174.1798941798942 86.13756613756614,174.6031746031746 85.71428571428572,175.23809523809524 85.29100529100529,175.87301587301587 84.86772486772487,176.2962962962963 84.44444444444446,176.71957671957674 84.02116402116403,177.14285714285717 83.59788359788361,177.56613756613757 82.96296296296298,177.989417989418 82.32804232804233,178.41269841269843 81.6931216931217,178.83597883597884 81.05820105820106,179.25925925925927 80.42328042328043,179.4708994708995 79.7883597883598,179.8941798941799 79.15343915343917,180.10582010582013 78.51851851851852,180.31746031746033 77.88359788359789,180.52910052910053 77.24867724867725,180.74074074074076 76.61375661375662,180.95238095238096 75.97883597883599,181.16402116402116 75.34391534391536,181.16402116402116 74.70899470899471,181.3756613756614 74.07407407407408,181.5873015873016 73.43915343915344,181.5873015873016 72.80423280423281,181.79894179894183 72.16931216931218,181.79894179894183 71.53439153439155,181.79894179894183 70.8994708994709,181.79894179894183 70.26455026455027,181.79894179894183 69.62962962962963,181.79894179894183 68.994708994709,181.79894179894183 68.35978835978837,181.79894179894183 67.72486772486774,181.79894179894183 67.08994708994709,181.5873015873016 66.45502645502646,181.5873015873016 65.82010582010582,181.3756613756614 65.18518518518519,181.16402116402116 64.55026455026456,181.16402116402116 63.91534391534392,180.95238095238096 63.280423280423285,181.16402116402116 62.64550264550265,180.95238095238096 62.01058201058201,180.74074074074076 61.37566137566138,180.52910052910053 60.74074074074075,180.31746031746033 60.10582010582011,180.31746031746033 59.470899470899475,179.8941798941799 58.83597883597884,179.6825396825397 58.2010582010582,179.4708994708995 57.56613756613757,179.25925925925927 56.93121693121694,179.04761904761907 56.2962962962963,178.62433862433863 55.661375661375665,178.41269841269843 55.02645502645503,178.2010582010582 54.39153439153439,177.989417989418 53.75661375661376,177.56613756613757 53.12169312169313,177.14285714285717 52.48677248677249,176.71957671957674 51.851851851851855,176.2962962962963 51.21693121693122,175.87301587301587 50.58201058201058,175.44973544973547 49.94708994708995,175.02645502645504 49.31216931216932,174.6031746031746 48.677248677248684,174.3915343915344 48.25396825396826,173.96825396825398 47.61904761904762,173.54497354497354 47.195767195767196,173.12169312169314 46.560846560846564,172.6984126984127 46.13756613756614,172.27513227513228 45.714285714285715,171.64021164021165 45.29100529100529,171.21693121693124 44.867724867724874,170.58201058201058 44.44444444444445,169.94708994708995 44.021164021164026,169.31216931216932 43.80952380952381,168.67724867724868 43.386243386243386,168.04232804232805 43.17460317460318,167.40740740740742 42.96296296296297,166.7724867724868 42.75132275132275,166.13756613756615 42.75132275132275,165.50264550264552 42.539682539682545,164.8677248677249 42.32804232804233,164.23280423280426 42.32804232804233,163.59788359788362 42.539682539682545,162.96296296296296 42.539682539682545,162.32804232804233 42.75132275132275,161.6931216931217 42.75132275132275,161.05820105820106 42.96296296296297,160.42328042328043 43.386243386243386,160.0 43.5978835978836,159.36507936507937 43.80952380952381,158.73015873015873 44.021164021164026,158.0952380952381 44.44444444444445,157.67195767195767 44.867724867724874,157.03703703703704 45.07936507936508,156.4021164021164 45.50264550264551,155.978835978836 45.92592592592593,155.34391534391534 46.349206349206355,154.7089947089947 46.77248677248678,154.2857142857143 47.195767195767196,153.65079365079367 47.61904761904762,153.22751322751324 48.042328042328045,152.8042328042328 48.46560846560847,152.38095238095238 48.88888888888889,151.74603174603175 49.31216931216932,151.32275132275134 49.73544973544974,150.8994708994709 50.370370370370374,150.47619047619048 50.7936507936508,150.05291005291005 51.21693121693122,149.62962962962965 51.640211640211646,148.99470899470901 52.06349206349207,148.57142857142858 52.48677248677249,147.93650793650795 52.91005291005291,147.51322751322752 53.333333333333336,147.0899470899471 53.75661375661376,146.45502645502646 54.179894179894184,145.82010582010582 54.60317460317461,145.1851851851852 55.02645502645503,144.55026455026456 55.23809523809524,143.91534391534393 55.449735449735456,143.2804232804233 55.449735449735456,142.64550264550266 55.449735449735456,142.01058201058203 55.449735449735456,141.3756613756614 55.449735449735456,140.74074074074076 55.449735449735456,140.10582010582013 55.23809523809524,139.47089947089947 54.81481481481482,138.83597883597884 54.39153439153439,138.2010582010582 53.968253968253975,137.56613756613757 53.333333333333336,137.14285714285717 52.91005291005291,136.71957671957674 52.48677248677249,136.2962962962963 52.06349206349207,135.87301587301587 51.640211640211646,135.44973544973547 51.00529100529101,135.02645502645504 50.370370370370374,134.6031746031746 49.73544973544974,134.3915343915344 49.31216931216932,133.96825396825398 48.677248677248684,133.75661375661377 48.042328042328045,133.33333333333334 47.40740740740741,133.12169312169314 46.77248677248678,132.9100529100529 46.13756613756614,132.6984126984127 45.50264550264551,132.4867724867725 44.867724867724874,132.27513227513228 44.232804232804234,132.06349206349208 43.5978835978836,132.06349206349208 42.96296296296297,131.85185185185185 42.32804232804233,131.85185185185185 41.6931216931217,131.64021164021165 41.058201058201064,131.64021164021165 40.423280423280424,131.64021164021165 39.78835978835979,131.64021164021165 39.15343915343916,131.64021164021165 38.51851851851852,131.64021164021165 37.883597883597886,131.64021164021165 37.248677248677254,131.64021164021165 36.613756613756614,131.64021164021165 35.97883597883598,131.42857142857144 35.34391534391535,131.42857142857144 34.70899470899471,131.42857142857144 34.074074074074076,131.42857142857144 33.43915343915344,131.42857142857144 32.804232804232804,131.42857142857144 32.16931216931217,131.42857142857144 31.53439153439154,131.42857142857144 30.899470899470902,131.42857142857144 30.264550264550266,131.42857142857144 29.629629629629633,131.42857142857144 28.994708994708997,131.42857142857144 28.35978835978836,131.64021164021165 27.724867724867728,131.64021164021165 27.089947089947092,131.64021164021165 26.455026455026456,131.64021164021165 25.820105820105823,131.64021164021165 25.185185185185187,131.64021164021165 24.55026455026455,131.64021164021165 23.915343915343918,131.85185185185185 23.280423280423282,131.85185185185185 22.645502645502646,131.64021164021165 22.010582010582013,131.64021164021165 21.375661375661377,131.64021164021165 20.740740740740744,131.85185185185185 20.105820105820108,131.64021164021165 19.47089947089947,131.64021164021165 18.83597883597884,131.64021164021165 18.201058201058203,131.85185185185185 17.566137566137566,131.85185185185185 16.931216931216934,131.85185185185185 16.296296296296298,131.85185185185185 15.661375661375663,131.85185185185185 15.026455026455027,131.85185185185185 14.391534391534393,131.85185185185185 13.756613756613758,131.85185185185185 13.121693121693122,132.06349206349208 12.486772486772487,132.06349206349208 11.851851851851853,132.06349206349208 11.216931216931219,132.06349206349208 10.582010582010582,132.06349206349208 9.947089947089948,132.06349206349208 9.312169312169313,132.06349206349208 8.677248677248677,132.27513227513228 8.042328042328043,132.27513227513228 7.407407407407408,132.27513227513228 3.8095238095238098,132.4867724867725" style="fill:none; stroke:#00aa99; stroke-width:1.0"  /><polyline points="3.8095238095238098,132.4867724867725 4.021164021164021,128.67724867724868 4.021164021164021,128.04232804232805 4.2328042328042335,127.40740740740742 4.2328042328042335,126.77248677248679 4.021164021164021,126.13756613756615 4.2328042328042335,125.5026455026455 4.2328042328042335,124.86772486772487 4.2328042328042335,124.23280423280424 4.2328042328042335,123.59788359788361 4.2328042328042335,122.96296296296298 4.2328042328042335,122.32804232804234 4.2328042328042335,121.6931216931217 4.2328042328042335,121.05820105820106 4.2328042328042335,120.42328042328043 4.2328042328042335,119.7883597883598 4.444444444444445,119.15343915343917 4.444444444444445,118.51851851851853 4.444444444444445,117.88359788359789 4.2328042328042335,117.24867724867725 4.2328042328042335,116.61375661375662 4.444444444444445,115.97883597883599 4.444444444444445,115.34391534391536 4.444444444444445,114.70899470899472 4.2328042328042335,114.07407407407408 4.2328042328042335,113.43915343915344 4.2328042328042335,112.80423280423281 4.2328042328042335,112.16931216931218 4.2328042328042335,111.53439153439155 4.2328042328042335,110.89947089947091 4.2328042328042335,110.26455026455027 4.444444444444445,109.62962962962963 4.444444444444445,108.994708994709 4.444444444444445,108.35978835978837 4.444444444444445,107.72486772486774 4.444444444444445,107.0899470899471 4.444444444444445,106.45502645502647 4.444444444444445,105.82010582010582 4.656084656084657,105.18518518518519 4.656084656084657,104.55026455026456 4.656084656084657,103.91534391534393 4.656084656084657,103.28042328042329 4.656084656084657,102.64550264550266 4.656084656084657,102.01058201058201 4.867724867724868,101.37566137566138 4.867724867724868,100.74074074074075 4.867724867724868,100.10582010582011 4.867724867724868,99.47089947089948 5.07936507936508,98.83597883597885 5.07936507936508,98.2010582010582 5.291005291005291,97.56613756613757 5.291005291005291,96.93121693121694 5.714285714285714,96.2962962962963 5.9259259259259265,95.66137566137567 6.137566137566138,95.02645502645504 6.560846560846561,94.60317460317461 6.984126984126985,93.96825396825398 7.407407407407408,93.33333333333334 7.830687830687832,92.91005291005291 8.253968253968255,92.4867724867725 8.677248677248677,92.06349206349208 9.100529100529101,91.64021164021165 9.735449735449736,91.21693121693123 10.370370370370372,91.00529100529101 11.005291005291006,90.7936507936508 11.640211640211641,90.58201058201058 12.275132275132275,90.37037037037038 12.910052910052912,90.37037037037038 13.544973544973546,90.15873015873017 14.17989417989418,90.15873015873017 14.814814814814817,90.37037037037038 15.449735449735451,90.37037037037038 16.084656084656086,90.37037037037038 16.71957671957672,90.58201058201058 17.354497354497354,90.58201058201058 17.98941798941799,90.7936507936508 18.624338624338627,91.00529100529101 19.25925925925926,91.00529100529101 19.894179894179896,91.21693121693123 20.529100529100532,91.21693121693123 21.164021164021165,91.64021164021165 21.7989417989418,91.85185185185186 22.433862433862437,91.85185185185186 23.06878306878307,92.06349206349208 23.703703703703706,92.4867724867725 24.338624338624342,92.69841269841271 24.973544973544975,92.69841269841271 25.60846560846561,92.91005291005291 26.243386243386244,92.91005291005291 26.87830687830688,93.12169312169313 27.513227513227516,93.12169312169313 28.14814814814815,93.33333333333334 28.783068783068785,93.12169312169313 29.41798941798942,93.12169312169313 30.052910052910054,92.91005291005291 30.68783068783069,93.12169312169313 31.322751322751326,93.12169312169313 31.95767195767196,92.91005291005291 32.592592592592595,92.91005291005291 33.22751322751323,92.69841269841271 33.86243386243387,92.69841269841271 34.4973544973545,92.69841269841271 34.920634920634924,92.27513227513228 35.55555555555556,92.06349206349208 36.19047619047619,91.85185185185186 36.82539682539683,91.64021164021165 37.46031746031746,91.42857142857143 38.095238095238095,91.21693121693123 38.730158730158735,91.00529100529101 39.36507936507937,90.58201058201058 40.0,90.37037037037038 40.63492063492064,89.94708994708995 41.26984126984127,89.73544973544975 41.6931216931217,89.31216931216932 42.32804232804233,89.1005291005291 42.75132275132275,88.67724867724868 43.17460317460318,88.25396825396827 43.5978835978836,87.83068783068784 44.021164021164026,87.40740740740742 44.44444444444445,86.77248677248677 44.867724867724874,86.13756613756614 45.29100529100529,85.5026455026455 45.50264550264551,84.86772486772487 45.92592592592593,84.44444444444446 46.13756613756614,83.80952380952381 46.349206349206355,83.17460317460318 46.560846560846564,82.53968253968254 46.77248677248678,81.90476190476191 46.77248677248678,81.26984126984128 46.98412698412699,80.63492063492065 46.98412698412699,80.0 46.98412698412699,79.36507936507937 46.98412698412699,78.73015873015873 46.98412698412699,78.0952380952381 46.98412698412699,77.46031746031747 47.195767195767196,76.82539682539684 47.195767195767196,76.19047619047619 47.195767195767196,75.55555555555556 46.98412698412699,74.92063492063492 46.98412698412699,74.28571428571429 46.98412698412699,73.65079365079366 46.98412698412699,73.01587301587303 46.77248677248678,72.38095238095238 46.77248677248678,71.74603174603175 46.560846560846564,71.11111111111111 46.349206349206355,70.47619047619048 46.349206349206355,69.84126984126985 46.13756613756614,69.20634920634922 45.92592592592593,68.57142857142858 45.714285714285715,67.93650793650794 45.50264550264551,67.3015873015873 45.29100529100529,66.66666666666667 44.867724867724874,66.03174603174604 44.65608465608466,65.3968253968254 44.44444444444445,64.76190476190477 44.021164021164026,64.12698412698413 43.80952380952381,63.492063492063494 43.386243386243386,62.85714285714286 42.96296296296297,62.22222222222223 42.539682539682545,61.58730158730159 42.32804232804233,60.952380952380956 41.904761904761905,60.52910052910053 41.48148148148149,60.10582010582011 41.058201058201064,59.470899470899475 40.63492063492064,59.04761904761905 40.211640211640216,58.62433862433863 39.78835978835979,58.2010582010582 39.36507936507937,57.777777777777786 38.94179894179894,57.35449735449736 38.51851851851852,56.93121693121694 38.095238095238095,56.50793650793651 37.67195767195768,56.08465608465609 37.03703703703704,55.661375661375665 36.402116402116405,55.23809523809524 35.76719576719577,54.81481481481482 35.13227513227513,54.39153439153439 34.4973544973545,54.179894179894184 33.86243386243387,53.75661375661376 33.22751322751323,53.54497354497355 32.592592592592595,53.333333333333336 31.95767195767196,53.333333333333336 31.322751322751326,53.12169312169313 30.68783068783069,53.12169312169313 30.052910052910054,52.91005291005291 29.41798941798942,52.91005291005291 28.783068783068785,52.91005291005291 28.14814814814815,53.12169312169313 27.513227513227516,53.12169312169313 26.87830687830688,53.333333333333336 26.243386243386244,53.333333333333336 25.60846560846561,53.54497354497355 24.973544973544975,53.54497354497355 24.338624338624342,53.75661375661376 23.703703703703706,53.968253968253975 23.06878306878307,54.179894179894184 22.645502645502646,54.60317460317461 22.010582010582013,54.81481481481482 21.375661375661377,55.23809523809524 20.740740740740744,55.449735449735456 20.31746031746032,55.87301587301588 19.894179894179896,56.2962962962963 19.25925925925926,56.71957671957672 18.83597883597884,57.142857142857146 18.412698412698415,57.56613756613757 17.77777777777778,57.989417989417994 17.142857142857146,58.41269841269842 16.50793650793651,58.83597883597884 16.084656084656086,59.25925925925927 15.449735449735451,59.682539682539684 14.814814814814817,60.10582010582011 14.391534391534393,60.52910052910053 13.96825396825397,60.952380952380956 13.333333333333334,61.37566137566138 12.6984126984127,61.798941798941804 12.063492063492065,62.22222222222223 11.428571428571429,62.64550264550265 10.793650793650794,62.85714285714286 10.15873015873016,63.280423280423285 9.523809523809524,63.492063492063494 8.88888888888889,63.70370370370371 8.253968253968255,63.91534391534392 7.6190476190476195,64.12698412698413 6.984126984126985,64.12698412698413 6.34920634920635,64.12698412698413 5.714285714285714,64.33862433862434 5.07936507936508,64.12698412698413 4.444444444444445,64.12698412698413 3.8095238095238098,63.91534391534392 3.174603174603175,63.70370370370371 2.53968253968254,63.280423280423285 1.9047619047619049,62.85714285714286 1.4814814814814816,62.43386243386244 1.0582010582010584,62.01058201058201 0.634920634920635,61.37566137566138 0.4232804232804233,60.74074074074075 0.4232804232804233,60.10582010582011 0.4232804232804233,59.470899470899475 0.21164021164021166,58.83597883597884 0.21164021164021166,58.2010582010582 0.4232804232804233,57.56613756613757 0.4232804232804233,56.93121693121694 0.4232804232804233,56.2962962962963 0.4232804232804233,55.661375661375665 0.634920634920635,55.02645502645503 0.634920634920635,54.39153439153439 0.8465608465608466,53.75661375661376 0.8465608465608466,53.12169312169313 1.0582010582010584,52.48677248677249 1.0582010582010584,51.851851851851855 1.26984126984127,51.21693121693122 1.26984126984127,50.58201058201058 1.4814814814814816,49.94708994708995 1.6931216931216932,49.31216931216932 1.6931216931216932,48.677248677248684 1.9047619047619049,48.042328042328045 2.1164021164021167,47.40740740740741 2.3280423280423284,46.77248677248678 2.53968253968254,46.13756613756614 2.53968253968254,45.50264550264551 2.7513227513227516,44.867724867724874 2.7513227513227516,44.232804232804234 2.9629629629629632,43.5978835978836 3.174603174603175,42.96296296296297 3.3862433862433865,42.32804232804233 3.597883597883598,41.6931216931217 3.8095238095238098,41.058201058201064 4.021164021164021,40.423280423280424 4.444444444444445,39.78835978835979 4.656084656084657,39.15343915343916 4.867724867724868,38.51851851851852 5.07936507936508,37.883597883597886 5.291005291005291,37.248677248677254 5.502645502645503,36.613756613756614 5.714285714285714,35.97883597883598 6.137566137566138,35.34391534391535 6.34920634920635,34.70899470899471 6.772486772486773,34.074074074074076 6.984126984126985,33.43915343915344 7.407407407407408,32.804232804232804 7.6190476190476195,32.16931216931217 8.042328042328043,31.53439153439154 8.465608465608467,30.899470899470902 8.88888888888889,30.264550264550266 9.312169312169313,29.629629629629633 9.735449735449736,28.994708994708997 10.15873015873016,28.35978835978836 10.582010582010582,27.724867724867728 11.005291005291006,27.089947089947092 11.428571428571429,26.455026455026456 11.851851851851853,25.820105820105823 12.275132275132275,25.185185185185187 12.6984126984127,24.55026455026455 13.121693121693122,24.12698412698413 13.544973544973546,23.492063492063494 13.96825396825397,22.857142857142858 14.391534391534393,22.433862433862437 14.814814814814817,21.7989417989418 15.238095238095239,21.164021164021165 15.661375661375663,20.529100529100532 16.084656084656086,19.894179894179896 16.50793650793651,19.25925925925926 16.931216931216934,18.624338624338627 17.354497354497354,18.201058201058203 17.566137566137566,17.566137566137566 17.98941798941799,17.142857142857146 18.412698412698415,16.50793650793651 18.624338624338627,15.873015873015873 19.047619047619047,15.449735449735451 19.25925925925926,14.814814814814817 19.682539682539684,14.391534391534393 19.894179894179896,13.756613756613758 20.31746031746032,13.121693121693122 20.740740740740744,12.486772486772487 20.952380952380953,11.851851851851853 21.375661375661377,11.216931216931219 21.58730158730159,10.582010582010582 22.010582010582013,9.947089947089948 22.222222222222225,9.312169312169313 22.433862433862437,8.677248677248677 22.857142857142858,8.042328042328043 23.06878306878307,7.407407407407408 23.280423280423282,6.772486772486773 23.703703703703706,6.137566137566138 23.915343915343918,5.502645502645503 24.12698412698413,4.867724867724868 25.3968253968254,1.9047619047619049" style="fill:none; stroke:#3300bb; stroke-width:1.0"  /><circle cx="25.3968253968254" cy="1.9047619047619049" r="2.0" style="fill:none; stroke:#000000aa; stroke-width:0.25" /><circle cx="176.71957671957674" cy="2.53968253968254" r="2.0" style="fill:none; stroke:#000000aa; stroke-width:0.25" /><circle cx="134.17989417989418" cy="149.41798941798942" r="2.0" style="fill:none; stroke:#000000aa; stroke-width:0.25" /><circle cx="3.8095238095238098" cy="132.4867724867725" r="2.0" style="fill:none; stroke:#000000aa; stroke-width:0.25" /><circle cx="25.60846560846561" cy="2.1164021164021167" r="2.0" style="fill:none; stroke:#ff3366aa; stroke-width:0.25" /><circle cx="176.0846560846561" cy="2.9629629629629632" r="2.0" style="fill:none; stroke:#ff3366aa; stroke-width:0.25" /><circle cx="133.33333333333334" cy="148.78306878306879" r="2.0" style="fill:none; stroke:#ff3366aa; stroke-width:0.25" /><circle cx="4.021164021164021" cy="131.85185185185185" r="2.0" style="fill:none; stroke:#ff3366aa; stroke-width:0.25" /><polyline points="37.03703703703704,2.7513227513227516 36.402116402116405,2.7513227513227516 35.76719576719577,2.7513227513227516 35.13227513227513,2.7513227513227516 34.4973544973545,2.7513227513227516 33.86243386243387,2.7513227513227516 33.22751322751323,2.7513227513227516 32.592592592592595,2.53968253968254 31.95767195767196,2.53968253968254 31.322751322751326,2.53968253968254 30.68783068783069,2.53968253968254 30.052910052910054,2.1164021164021167 29.41798941798942,2.3280423280423284 28.783068783068785,2.1164021164021167" style="fill:none; stroke:#001100; stroke-width:1.0" /><polyline points="20.740740740740744,12.486772486772487 20.952380952380953,11.851851851851853 21.375661375661377,11.216931216931219 21.58730158730159,10.582010582010582 22.010582010582013,9.947089947089948 22.222222222222225,9.312169312169313 22.433862433862437,8.677248677248677 22.857142857142858,8.042328042328043 23.06878306878307,7.407407407407408 23.280423280423282,6.772486772486773 23.703703703703706,6.137566137566138 23.915343915343918,5.502645502645503 24.12698412698413,4.867724867724868" style="fill:none; stroke:#000011; stroke-width:1.0" /><polyline points="171.005291005291,13.333333333333334 171.42857142857144,12.6984126984127 171.64021164021165,12.063492063492065 172.06349206349208,11.428571428571429 172.27513227513228,10.793650793650794 172.6984126984127,10.15873015873016 172.9100529100529,9.523809523809524 173.33333333333334,9.100529100529101 173.33333333333334,8.465608465608467 173.75661375661377,8.042328042328043 173.96825396825398,7.407407407407408 174.3915343915344,6.772486772486773 174.81481481481484,6.137566137566138" style="fill:none; stroke:#001100; stroke-width:1.0" /><polyline points="164.23280423280426,1.6931216931216932 164.8677248677249,1.6931216931216932 165.50264550264552,1.6931216931216932 166.13756613756615,1.6931216931216932 166.7724867724868,1.6931216931216932 167.40740740740742,1.9047619047619049 168.04232804232805,1.9047619047619049 168.67724867724868,1.9047619047619049 169.31216931216932,1.9047619047619049 169.94708994708995,1.9047619047619049 170.58201058201058,2.1164021164021167 171.21693121693124,1.9047619047619049 171.85185185185188,2.1164021164021167 172.4867724867725,2.3280423280423284 173.12169312169314,2.3280423280423284" style="fill:none; stroke:#000011; stroke-width:1.0" /><polyline points="122.32804232804234,144.12698412698413 122.75132275132276,144.55026455026456 123.3862433862434,144.76190476190476 124.02116402116403,144.973544973545 124.65608465608466,145.39682539682542 125.2910052910053,145.60846560846562 125.92592592592594,146.03174603174605 126.56084656084657,146.24338624338625 127.1957671957672,146.45502645502646 127.83068783068784,146.66666666666669 128.46560846560848,147.0899470899471 129.10052910052912,147.30158730158732 129.73544973544975,147.51322751322752 130.37037037037038,147.72486772486775" style="fill:none; stroke:#001100; stroke-width:1.0" /><polyline points="136.2962962962963,137.14285714285717 136.2962962962963,137.7777777777778 136.0846560846561,138.41269841269843 136.0846560846561,139.04761904761907 135.87301587301587,139.6825396825397 135.87301587301587,140.31746031746033 135.66137566137567,140.95238095238096 135.66137566137567,141.5873015873016 135.44973544973547,142.22222222222223 135.44973544973547,142.85714285714286 135.23809523809524,143.4920634920635 135.02645502645504,144.12698412698413 135.02645502645504,144.76190476190476 134.81481481481484,145.39682539682542 134.81481481481484,146.03174603174605" style="fill:none; stroke:#000011; stroke-width:1.0" /><polyline points="4.2328042328042335,120.42328042328043 4.2328042328042335,121.05820105820106 4.2328042328042335,121.6931216931217 4.2328042328042335,122.32804232804234 4.2328042328042335,122.96296296296298 4.2328042328042335,123.59788359788361 4.2328042328042335,124.23280423280424 4.2328042328042335,124.86772486772487 4.2328042328042335,125.5026455026455 4.021164021164021,126.13756613756615 4.2328042328042335,126.77248677248679 4.2328042328042335,127.40740740740742 4.021164021164021,128.04232804232805 4.021164021164021,128.67724867724868" style="fill:none; stroke:#001100; stroke-width:1.0" /><polyline points="15.661375661375663,131.85185185185185 15.026455026455027,131.85185185185185 14.391534391534393,131.85185185185185 13.756613756613758,131.85185185185185 13.121693121693122,132.06349206349208 12.486772486772487,132.06349206349208 11.851851851851853,132.06349206349208 11.216931216931219,132.06349206349208 10.582010582010582,132.06349206349208 9.947089947089948,132.06349206349208 9.312169312169313,132.06349206349208 8.677248677248677,132.27513227513228 8.042328042328043,132.27513227513228 7.407407407407408,132.27513227513228" style="fill:none; stroke:#000011; stroke-width:1.0" /><polyline points="28.783068783068785,2.1164021164021167 7.6190476190476195,0.4232804232804233" style="fill:none; stroke:#ffaa00; stroke-width:0.4" /><polyline points="24.12698412698413,4.867724867724868 32.804232804232804,-14.391534391534393" style="fill:none; stroke:#aaff00; stroke-width:0.4" /><polyline points="174.81481481481484,6.137566137566138 184.7619047619048,-12.486772486772487" style="fill:none; stroke:#ffaa00; stroke-width:0.4" /><polyline points="173.12169312169314,2.3280423280423284 194.2857142857143,3.8095238095238098" style="fill:none; stroke:#aaff00; stroke-width:0.4" /><polyline points="130.37037037037038,147.72486772486775 149.62962962962965,156.4021164021164" style="fill:none; stroke:#ffaa00; stroke-width:0.4" /><polyline points="134.81481481481484,146.03174603174605 131.42857142857144,166.984126984127" style="fill:none; stroke:#aaff00; stroke-width:0.4" /><polyline points="4.021164021164021,128.67724867724868 3.3862433862433865,149.84126984126985" style="fill:none; stroke:#ffaa00; stroke-width:0.4" /><polyline points="7.407407407407408,132.27513227513228 -13.756613756613758,133.33333333333334" style="fill:none; stroke:#aaff00; stroke-width:0.4" /><circle cx="88.25396825396827" cy="80.21164021164022" r="1.0" style="fill:#444444; stroke-width:0" /><circle cx="97.989417989418" cy="89.94708994708995" r="10.582010582010582" style="fill:#ff770022; stroke-width:0" /><circle cx="97.989417989418" cy="89.94708994708995" r="1.0" style="fill:#ff7700; stroke-width:0" /></svg>