<?xml version="1.0" encoding="UTF-8" standalone="no"?><svg width="464.12698412698415" height="549.8412698412699" viewBox="-10 -10 174.7089947089947 203.2804232804233" xmlns="http://www.w3.org/2000/svg" xmlns:xlink="http://www.w3.org/1999/xlink"><polyline points="58.41269841269842,0.4232804232804233 62.22222222222223,0.8465608465608466 62.85714285714286,1.0582010582010584 63.492063492063494,1.0582010582010584 64.12698412698413,1.0582010582010584 64.76190476190477,1.26984126984127 65.3968253968254,1.26984126984127 66.03174603174604,1.4814814814814816 66.66666666666667,1.4814814814814816 67.3015873015873,1.6931216931216932 67.93650793650794,1.6931216931216932 68.57142857142858,1.6931216931216932 69.20634920634922,1.6931216931216932 69.84126984126985,1.6931216931216932 70.47619047619048,1.9047619047619049 71.11111111111111,1.9047619047619049 71.74603174603175,1.9047619047619049 72.38095238095238,2.1164021164021167 73.01587301587303,2.1164021164021167 73.65079365079366,2.1164021164021167 74.28571428571429,2.1164021164021167 74.92063492063492,2.1164021164021167 75.55555555555556,2.1164021164021167 76.19047619047619,2.3280423280423284 76.82539682539684,2.3280423280423284 77.46031746031747,2.1164021164021167 78.0952380952381,2.1164021164021167 78.73015873015873,2.1164021164021167 79.36507936507937,2.3280423280423284 80.0,2.3280423280423284 80.63492063492065,2.3280423280423284 81.26984126984128,2.3280423280423284 81.90476190476191,2.1164021164021167 82.53968253968254,2.1164021164021167 83.17460317460318,2.1164021164021167 83.80952380952381,2.1164021164021167 84.44444444444446,1.9047619047619049 85.07936507936509,1.9047619047619049 85.71428571428572,1.9047619047619049 86.34920634920636,1.9047619047619049 86.98412698412699,1.9047619047619049 87.61904761904762,1.9047619047619049 88.25396825396827,1.9047619047619049 88.8888888888889,1.6931216931216932 89.52380952380953,1.9047619047619049 90.15873015873017,1.9047619047619049 90.7936507936508,1.9047619047619049 91.42857142857143,1.6931216931216932 92.06349206349208,1.9047619047619049 92.69841269841271,1.9047619047619049 93.33333333333334,1.9047619047619049 93.96825396825398,1.9047619047619049 94.60317460317461,2.1164021164021167 95.23809523809524,2.1164021164021167 95.87301587301587,2.53968253968254 96.50793650793652,2.7513227513227516 97.14285714285715,3.174603174603175 97.77777777777779,3.597883597883598 98.2010582010582,4.021164021164021 98.62433862433863,4.656084656084657 98.83597883597885,5.291005291005291 99.04761904761905,5.9259259259259265 99.25925925925927,6.560846560846561 99.25925925925927,7.195767195767196 99.25925925925927,7.830687830687832 99.25925925925927,8.465608465608467 99.04761904761905,9.100529100529101 98.83597883597885,9.735449735449736 98.41269841269842,10.370370370370372 98.2010582010582,11.005291005291006 97.77777777777779,11.640211640211641 97.35449735449737,12.063492063492065 96.93121693121694,12.486772486772487 96.50793650793652,12.910052910052912 96.08465608465609,13.333333333333334 95.44973544973546,13.756613756613758 94.81481481481482,14.17989417989418 94.17989417989419,14.603174603174605 93.75661375661376,15.026455026455027 93.33333333333334,15.449735449735451 92.91005291005291,15.873015873015873 92.4867724867725,16.296296296296298 92.06349206349208,16.71957671957672 91.64021164021165,17.142857142857146 91.21693121693123,17.566137566137566 90.7936507936508,18.201058201058203 90.37037037037038,18.83597883597884 89.94708994708995,19.25925925925926 89.52380952380953,19.894179894179896 89.1005291005291,20.31746031746032 88.8888888888889,20.952380952380953 88.67724867724868,21.58730158730159 88.46560846560847,22.222222222222225 88.25396825396827,22.857142857142858 88.25396825396827,23.492063492063494 88.04232804232805,24.12698412698413 88.04232804232805,24.761904761904763 88.04232804232805,25.3968253968254 88.25396825396827,26.031746031746035 88.46560846560847,26.666666666666668 88.46560846560847,27.301587301587304 88.67724867724868,27.93650793650794 88.8888888888889,28.571428571428573 89.1005291005291,29.20634920634921 89.52380952380953,29.841269841269842 89.73544973544975,30.476190476190478 90.15873015873017,31.111111111111114 90.58201058201058,31.746031746031747 91.00529100529101,32.38095238095239 91.42857142857143,32.804232804232804 91.85185185185186,33.22751322751323 92.27513227513228,33.65079365079365 92.91005291005291,34.074074074074076 93.33333333333334,34.4973544973545 93.75661375661376,34.920634920634924 94.17989417989419,35.34391534391535 94.81481481481482,35.76719576719577 95.44973544973546,36.19047619047619 95.87301587301587,36.613756613756614 96.50793650793652,36.82539682539683 96.93121693121694,37.248677248677254 97.56613756613757,37.67195767195768 98.2010582010582,37.883597883597886 98.62433862433863,38.30687830687831 99.25925925925927,38.51851851851852 99.8941798941799,38.730158730158735 100.52910052910053,39.15343915343916 101.16402116402116,39.36507936507937 101.79894179894181,39.57671957671958 102.43386243386244,40.0 103.06878306878308,40.211640211640216 103.70370370370371,40.423280423280424 104.33862433862434,40.423280423280424 104.97354497354497,40.63492063492064 105.60846560846562,40.84656084656085 106.24338624338625,41.058201058201064 106.87830687830689,41.26984126984127 107.51322751322752,41.058201058201064 108.14814814814815,41.26984126984127 108.78306878306879,41.26984126984127 109.41798941798943,41.26984126984127 110.05291005291006,41.26984126984127 110.6878306878307,41.26984126984127 111.32275132275133,41.26984126984127 111.95767195767196,41.26984126984127 112.5925925925926,41.058201058201064 113.22751322751324,40.84656084656085 113.86243386243387,40.84656084656085 114.49735449735451,40.63492063492064 115.13227513227514,40.63492063492064 115.76719576719577,40.211640211640216 116.4021164021164,40.0 117.03703703703705,39.57671957671958 117.67195767195768,39.15343915343916 118.30687830687832,38.730158730158735 118.73015873015873,38.30687830687831 119.15343915343917,37.883597883597886 119.57671957671958,37.46031746031746 120.00000000000001,37.03703703703704 120.42328042328043,36.402116402116405 120.84656084656086,35.76719576719577 121.05820105820106,35.13227513227513 121.4814814814815,34.4973544973545 121.6931216931217,33.86243386243387 121.90476190476191,33.22751322751323 122.11640211640213,32.592592592592595 122.11640211640213,31.95767195767196 122.11640211640213,31.322751322751326 122.32804232804234,30.68783068783069 122.32804232804234,30.052910052910054 122.11640211640213,29.41798941798942 122.11640211640213,28.783068783068785 122.11640211640213,28.14814814814815 121.90476190476191,27.513227513227516 121.90476190476191,26.87830687830688 121.6931216931217,26.243386243386244 121.4814814814815,25.60846560846561 121.26984126984128,24.973544973544975 121.26984126984128,24.338624338624342 121.05820105820106,23.703703703703706 120.84656084656086,23.06878306878307 120.63492063492065,22.433862433862437 120.63492063492065,21.7989417989418 120.42328042328043,21.164021164021165 120.42328042328043,20.529100529100532 120.42328042328043,19.894179894179896 120.42328042328043,19.25925925925926 120.42328042328043,18.624338624338627 120.42328042328043,17.98941798941799 120.63492063492065,17.354497354497354 120.84656084656086,16.71957671957672 121.26984126984128,16.084656084656086 121.6931216931217,15.661375661375663 122.11640211640213,15.238095238095239 122.53968253968254,14.814814814814817 122.96296296296298,14.391534391534393 123.59788359788361,14.391534391534393 124.23280423280424,14.17989417989418 124.86772486772487,13.96825396825397 125.5026455026455,13.96825396825397 126.13756613756615,13.96825396825397 126.77248677248679,13.96825396825397 127.40740740740742,13.756613756613758 128.04232804232805,13.756613756613758 128.67724867724868,13.96825396825397 129.31216931216932,13.96825396825397 129.94708994708995,14.17989417989418 130.58201058201058,14.17989417989418 131.21693121693121,14.17989417989418 131.85185185185185,14.391534391534393 132.4867724867725,14.391534391534393 133.12169312169314,14.603174603174605 133.75661375661377,14.603174603174605 134.3915343915344,14.814814814814817 135.02645502645504,14.814814814814817 135.66137566137567,14.814814814814817 136.2962962962963,15.026455026455027 136.93121693121694,15.026455026455027 137.56613756613757,15.238095238095239 138.2010582010582,15.238095238095239 138.83597883597884,15.449735449735451 139.47089947089947,15.449735449735451 140.10582010582013,15.661375661375663 140.74074074074076,15.873015873015873 141.3756613756614,15.873015873015873 142.01058201058203,16.084656084656086 142.64550264550266,16.296296296296298 143.2804232804233,16.50793650793651 143.91534391534393,16.71957671957672 144.55026455026456,16.71957671957672 145.1851851851852,16.931216931216934 145.82010582010582,17.142857142857146 146.45502645502646,17.354497354497354 147.0899470899471,17.566137566137566 147.72486772486775,17.354497354497354 148.35978835978838,17.566137566137566 148.99470899470901,17.77777777777778 149.62962962962965,17.98941798941799 150.26455026455028,18.201058201058203 150.8994708994709,18.412698412698415 151.53439153439155,18.624338624338627 154.92063492063494,19.47089947089947" style="fill:none; stroke:#cc0000; stroke-width:1.0"  /><polyline points="154.92063492063494,19.47089947089947 153.22751322751324,23.280423280423282 152.8042328042328,23.915343915343918 152.5925925925926,24.55026455026455 152.38095238095238,25.185185185185187 151.95767195767198,25.820105820105823 151.74603174603175,26.455026455026456 151.53439153439155,27.089947089947092 151.11111111111111,27.724867724867728 150.8994708994709,28.35978835978836 150.6878306878307,28.994708994708997 150.47619047619048,29.629629629629633 150.05291005291005,30.264550264550266 149.84126984126985,30.899470899470902 149.62962962962965,31.53439153439154 149.41798941798942,32.16931216931217 149.20634920634922,32.804232804232804 148.99470899470901,33.43915343915344 148.57142857142858,34.074074074074076 148.35978835978838,34.70899470899471 148.14814814814815,35.34391534391535 147.72486772486775,35.97883597883598 147.51322751322752,36.613756613756614 147.30158730158732,37.248677248677254 147.0899470899471,37.883597883597886 146.66666666666669,38.51851851851852 146.24338624338625,39.15343915343916 146.03174603174605,39.78835978835979 145.82010582010582,40.423280423280424 145.60846560846562,41.058201058201064 145.1851851851852,41.6931216931217 144.76190476190476,42.32804232804233 144.55026455026456,42.96296296296297 144.12698412698413,43.5978835978836 143.70370370370372,44.232804232804234 143.2804232804233,44.867724867724874 143.0687830687831,45.50264550264551 142.64550264550266,45.92592592592593 142.43386243386246,46.560846560846564 142.01058201058203,47.195767195767196 141.7989417989418,47.830687830687836 141.3756613756614,48.46560846560847 141.16402116402116,49.1005291005291 140.74074074074076,49.523809523809526 140.52910052910053,50.158730158730165 140.10582010582013,50.7936507936508 139.6825396825397,51.42857142857143 139.25925925925927,52.06349206349207 139.04761904761907,52.6984126984127 138.62433862433863,53.12169312169313 138.41269841269843,53.75661375661376 137.989417989418,54.179894179894184 137.56613756613757,54.81481481481482 137.14285714285717,55.449735449735456 136.93121693121694,56.08465608465609 136.5079365079365,56.71957671957672 136.0846560846561,57.35449735449736 135.66137566137567,57.989417989417994 135.44973544973547,58.62433862433863 135.02645502645504,59.04761904761905 134.6031746031746,59.682539682539684 134.17989417989418,60.31746031746032 133.75661375661377,60.952380952380956 133.33333333333334,61.58730158730159 132.9100529100529,62.22222222222223 132.4867724867725,62.85714285714286 132.06349206349208,63.492063492063494 131.64021164021165,64.12698412698413 131.21693121693121,64.76190476190477 130.7936507936508,65.3968253968254 130.37037037037038,66.03174603174604 129.94708994708995,66.45502645502646 129.52380952380955,67.08994708994709 129.31216931216932,67.72486772486774 128.88888888888889,68.35978835978837 128.46560846560848,68.994708994709 128.04232804232805,69.41798941798942 127.61904761904763,70.05291005291006 127.1957671957672,70.47619047619048 126.77248677248679,71.11111111111111 126.34920634920636,71.53439153439155 125.92592592592594,72.16931216931218 125.5026455026455,72.80423280423281 125.07936507936509,73.43915343915344 124.65608465608466,73.86243386243387 124.23280423280424,74.49735449735451 123.80952380952382,74.92063492063492 123.3862433862434,75.55555555555556 122.96296296296298,75.97883597883599 122.53968253968254,76.61375661375662 122.11640211640213,77.03703703703704 121.6931216931217,77.67195767195767 121.26984126984128,78.30687830687832 120.84656084656086,78.73015873015873 120.42328042328043,79.36507936507937 120.00000000000001,79.7883597883598 119.57671957671958,80.42328042328043 119.15343915343917,80.84656084656085 118.73015873015873,81.48148148148148 118.30687830687832,81.90476190476191 117.88359788359789,82.32804232804233 117.46031746031747,82.96296296296298 117.03703703703705,83.3862433862434 116.61375661375662,83.80952380952381 116.1904761904762,84.44444444444446 115.76719576719577,84.86772486772487 115.34391534391536,85.29100529100529 114.92063492063492,85.71428571428572 114.49735449735451,86.34920634920636 114.07407407407408,86.77248677248677 113.65079365079366,87.1957671957672 113.22751322751324,87.83068783068784 112.80423280423281,88.25396825396827 112.3809523809524,88.8888888888889 111.95767195767196,89.31216931216932 111.53439153439155,89.94708994708995 111.11111111111111,90.37037037037038 110.6878306878307,90.7936507936508 110.26455026455027,91.21693121693123 109.84126984126985,91.64021164021165 109.41798941798943,92.27513227513228 108.994708994709,92.69841269841271 108.35978835978837,93.12169312169313 107.93650793650795,93.75661375661376 107.51322751322752,94.17989417989419 107.0899470899471,94.60317460317461 106.66666666666667,95.02645502645504 106.24338624338625,95.66137566137567 105.82010582010582,96.08465608465609 105.3968253968254,96.50793650793652 104.97354497354497,96.93121693121694 104.55026455026456,97.35449735449737 104.12698412698414,97.77777777777779 103.70370370370371,98.2010582010582 103.28042328042329,98.62433862433863 102.85714285714286,99.25925925925927 102.43386243386244,99.8941798941799 102.01058201058201,100.52910052910053 101.79894179894181,101.16402116402116 101.5873015873016,101.79894179894181 101.37566137566138,102.43386243386244 101.37566137566138,103.06878306878308 101.16402116402116,103.70370370370371 101.16402116402116,104.33862433862434 101.37566137566138,104.97354497354497 101.37566137566138,105.60846560846562 101.5873015873016,106.24338624338625 102.01058201058201,106.87830687830689 102.43386243386244,107.51322751322752 102.85714285714286,108.14814814814815 103.28042328042329,108.57142857142858 103.70370370370371,108.994708994709 104.33862433862434,109.41798941798943 104.97354497354497,109.62962962962963 105.60846560846562,110.05291005291006 106.24338624338625,110.26455026455027 106.87830687830689,110.47619047619048 107.51322751322752,110.47619047619048 108.14814814814815,110.6878306878307 108.78306878306879,110.89947089947091 109.41798941798943,110.89947089947091 110.05291005291006,111.11111111111111 110.6878306878307,111.11111111111111 111.32275132275133,111.11111111111111 111.95767195767196,111.11111111111111 112.5925925925926,111.32275132275133 113.22751322751324,111.11111111111111 113.86243386243387,111.11111111111111 114.49735449735451,111.32275132275133 115.13227513227514,111.53439153439155 115.76719576719577,111.53439153439155 116.4021164021164,111.74603174603176 117.03703703703705,111.95767195767196 117.67195767195768,111.95767195767196 118.30687830687832,112.3809523809524 118.94179894179895,112.5925925925926 119.57671957671958,112.80423280423281 120.21164021164022,113.01587301587303 120.84656084656086,113.43915343915344 121.4814814814815,113.65079365079366 121.90476190476191,114.07407407407408 122.53968253968254,114.28571428571429 122.96296296296298,114.70899470899472 123.59788359788361,115.13227513227514 124.02116402116403,115.55555555555557 124.65608465608466,115.97883597883599 125.07936507936509,116.4021164021164 125.5026455026455,116.82539682539684 125.92592592592594,117.46031746031747 126.34920634920636,118.0952380952381 126.77248677248679,118.51851851851853 126.98412698412699,119.15343915343917 127.40740740740742,119.7883597883598 127.40740740740742,120.42328042328043 127.40740740740742,121.05820105820106 127.61904761904763,121.6931216931217 127.40740740740742,122.32804232804234 127.40740740740742,122.96296296296298 127.40740740740742,123.59788359788361 127.40740740740742,124.23280423280424 127.1957671957672,124.86772486772487 127.1957671957672,125.5026455026455 126.98412698412699,126.13756613756615 126.77248677248679,126.77248677248679 126.56084656084657,127.40740740740742 126.34920634920636,128.04232804232805 126.13756613756615,128.67724867724868 125.92592592592594,129.31216931216932 125.71428571428572,129.94708994708995 125.5026455026455,130.58201058201058 125.2910052910053,131.21693121693121 125.07936507936509,131.85185185185185 124.86772486772487,132.4867724867725 124.44444444444446,132.9100529100529 124.23280423280424,133.54497354497354 124.02116402116403,134.17989417989418 123.59788359788361,134.81481481481484 123.3862433862434,135.44973544973547 122.96296296296298,136.0846560846561 122.53968253968254,136.71957671957674 122.11640211640213,137.35449735449737 121.90476190476191,137.989417989418 121.4814814814815,138.62433862433863 121.05820105820106,139.25925925925927 120.63492063492065,139.6825396825397 120.21164021164022,140.31746031746033 119.7883597883598,140.95238095238096 119.36507936507937,141.5873015873016 118.94179894179895,142.01058201058203 118.51851851851853,142.43386243386246 118.0952380952381,142.85714285714286 117.67195767195768,143.2804232804233 117.24867724867725,143.70370370370372 116.82539682539684,144.12698412698413 116.4021164021164,144.55026455026456 115.76719576719577,144.973544973545 115.13227513227514,145.39682539682542 114.49735449735451,145.60846560846562 113.86243386243387,146.03174603174605 113.22751322751324,146.24338624338625 112.5925925925926,146.45502645502646 111.95767195767196,146.66666666666669 111.32275132275133,146.66666666666669 110.6878306878307,146.66666666666669 110.05291005291006,146.66666666666669 109.41798941798943,146.66666666666669 108.78306878306879,146.45502645502646 108.14814814814815,146.45502645502646 107.51322751322752,146.24338624338625 106.87830687830689,146.24338624338625 106.24338624338625,146.03174603174605 105.60846560846562,145.60846560846562 104.97354497354497,145.39682539682542 104.33862433862434,145.1851851851852 103.70370370370371,144.76190476190476 103.06878306878308,144.55026455026456 102.64550264550266,144.12698412698413 102.01058201058201,143.70370370370372 101.37566137566138,143.2804232804233 100.74074074074075,142.85714285714286 100.31746031746033,142.43386243386246 99.8941798941799,142.01058201058203 99.47089947089948,141.5873015873016 99.04761904761905,141.16402116402116 98.62433862433863,140.74074074074076 98.2010582010582,140.10582010582013 97.989417989418,139.47089947089947 97.56613756613757,138.83597883597884 97.35449735449737,138.2010582010582 96.93121693121694,137.56613756613757 96.50793650793652,137.14285714285717 96.2962962962963,136.5079365079365 95.87301587301587,136.0846560846561 95.66137566137567,135.44973544973547 95.23809523809524,135.02645502645504 94.81481481481482,134.3915343915344 94.39153439153439,133.75661375661377 93.96825396825398,133.33333333333334 93.54497354497356,132.9100529100529 93.12169312169313,132.4867724867725 92.4867724867725,132.06349206349208 92.06349206349208,131.64021164021165 91.42857142857143,131.21693121693121 90.7936507936508,131.005291005291 90.15873015873017,130.7936507936508 89.52380952380953,130.58201058201058 88.8888888888889,130.58201058201058 88.25396825396827,130.58201058201058 87.61904761904762,130.58201058201058 86.98412698412699,130.7936507936508 86.34920634920636,131.005291005291 85.71428571428572,131.21693121693121 85.07936507936509,131.64021164021165 84.44444444444446,132.06349206349208 84.02116402116403,132.4867724867725 83.59788359788361,132.9100529100529 83.17460317460318,133.54497354497354 82.75132275132276,134.17989417989418 82.32804232804233,134.81481481481484 82.11640211640213,135.44973544973547 81.6931216931217,135.87301587301587 81.48148148148148,136.5079365079365 81.05820105820106,137.14285714285717 81.05820105820106,137.7777777777778 80.63492063492065,138.41269841269843 80.42328042328043,139.04761904761907 80.0,139.6825396825397 79.7883597883598,140.31746031746033 79.36507936507937,140.95238095238096 78.94179894179895,141.5873015873016 78.73015873015873,142.22222222222223 78.30687830687832,142.85714285714286 78.0952380952381,143.4920634920635 77.67195767195767,144.12698412698413 77.46031746031747,144.76190476190476 77.03703703703704,145.1851851851852 76.82539682539684,145.82010582010582 76.4021164021164,146.45502645502646 75.97883597883599,147.0899470899471 75.76719576719577,147.72486772486775 75.34391534391536,148.35978835978838 75.13227513227514,148.99470899470901 74.70899470899471,149.62962962962965 74.49735449735451,150.26455026455028 74.07407407407408,150.6878306878307 73.86243386243387,151.32275132275134 73.43915343915344,151.95767195767198 73.22751322751323,152.5925925925926 72.80423280423281,153.01587301587304 72.5925925925926,153.65079365079367 72.16931216931218,154.2857142857143 71.95767195767196,154.92063492063494 71.53439153439155,155.55555555555557 71.32275132275133,156.1904761904762 70.8994708994709,156.61375661375664 70.6878306878307,157.24867724867727 70.26455026455027,157.8835978835979 70.05291005291006,158.51851851851853 69.62962962962963,159.15343915343917 69.20634920634922,159.7883597883598 68.994708994709,160.42328042328043 68.78306878306879,161.05820105820106 68.35978835978837,161.6931216931217 67.93650793650794,162.32804232804233 67.72486772486774,162.96296296296296 67.3015873015873,163.59788359788362 66.87830687830689,164.23280423280426 66.45502645502646,164.8677248677249 64.97354497354497,167.40740740740742" style="fill:none; stroke:#999900; stroke-width:1.0"  /><polyline points="64.97354497354497,167.40740740740742 62.01058201058201,165.2910052910053 61.58730158730159,164.8677248677249 60.952380952380956,164.44444444444446 60.52910052910053,164.02116402116403 59.8941798941799,163.59788359788362 59.470899470899475,163.1746031746032 58.83597883597884,162.75132275132276 58.2010582010582,162.32804232804233 57.777777777777786,161.90476190476193 57.142857142857146,161.6931216931217 56.71957671957672,161.2698412698413 56.08465608465609,160.84656084656086 55.449735449735456,160.42328042328043 54.81481481481482,160.0 54.179894179894184,159.5767195767196 53.54497354497355,159.15343915343917 52.91005291005291,158.94179894179896 52.48677248677249,158.51851851851853 52.06349206349207,158.0952380952381 51.42857142857143,157.8835978835979 50.7936507936508,157.46031746031747 50.158730158730165,157.03703703703704 49.523809523809526,156.82539682539684 48.88888888888889,156.82539682539684 48.25396825396826,156.61375661375664 47.61904761904762,156.4021164021164 46.98412698412699,156.61375661375664 46.349206349206355,156.61375661375664 45.714285714285715,156.82539682539684 45.07936507936508,157.03703703703704 44.44444444444445,157.24867724867727 43.80952380952381,157.67195767195767 43.17460317460318,158.0952380952381 42.75132275132275,158.51851851851853 42.32804232804233,158.94179894179896 41.6931216931217,159.36507936507937 41.26984126984127,159.7883597883598 40.84656084656085,160.42328042328043 40.423280423280424,161.05820105820106 40.0,161.4814814814815 39.57671957671958,162.11640211640213 39.36507936507937,162.75132275132276 39.15343915343916,163.3862433862434 38.94179894179894,164.02116402116403 38.730158730158735,164.65608465608466 38.30687830687831,165.2910052910053 38.30687830687831,165.92592592592595 38.095238095238095,166.56084656084658 38.095238095238095,167.19576719576722 37.883597883597886,167.83068783068785 37.883597883597886,168.46560846560848 37.883597883597886,169.10052910052912 37.883597883597886,169.73544973544975 37.883597883597886,170.37037037037038 37.883597883597886,171.005291005291 37.883597883597886,171.64021164021165 37.883597883597886,172.27513227513228 38.095238095238095,172.9100529100529 38.095238095238095,173.54497354497354 37.883597883597886,174.1798941798942 37.883597883597886,174.81481481481484 37.67195767195768,175.44973544973547 37.46031746031746,176.0846560846561 37.03703703703704,176.71957671957674 36.613756613756614,177.35449735449737 36.19047619047619,177.7777777777778 35.76719576719577,178.2010582010582 35.34391534391535,178.62433862433863 34.920634920634924,179.04761904761907 34.28571428571429,179.4708994708995 33.65079365079365,179.8941798941799 33.01587301587302,180.31746031746033 32.38095238095239,180.74074074074076 31.746031746031747,181.16402116402116 31.111111111111114,181.3756613756614 30.476190476190478,181.5873015873016 29.841269841269842,182.01058201058203 29.20634920634921,182.22222222222223 28.571428571428573,182.43386243386246 27.93650793650794,182.43386243386246 27.301587301587304,182.64550264550266 26.666666666666668,182.64550264550266 26.031746031746035,182.85714285714286 25.3968253968254,182.85714285714286 24.761904761904763,182.85714285714286 24.12698412698413,182.85714285714286 23.492063492063494,182.85714285714286 22.857142857142858,182.85714285714286 22.222222222222225,182.85714285714286 21.58730158730159,182.64550264550266 20.952380952380953,182.64550264550266 20.31746031746032,182.64550264550266 19.682539682539684,182.64550264550266 19.047619047619047,182.43386243386246 18.412698412698415,182.22222222222223 17.77777777777778,182.22222222222223 17.142857142857146,182.01058201058203 16.50793650793651,181.79894179894183 15.873015873015873,181.5873015873016 15.238095238095239,181.3756613756614 14.603174603174605,181.16402116402116 13.96825396825397,180.95238095238096 13.333333333333334,180.52910052910053 12.6984126984127,180.10582010582013 12.063492063492065,179.8941798941799 11.428571428571429,179.4708994708995 11.005291005291006,179.04761904761907 10.370370370370372,178.62433862433863 9.735449735449736,178.2010582010582 9.312169312169313,177.7777777777778 8.88888888888889,177.35449735449737 8.465608465608467,176.93121693121694 8.042328042328043,176.50793650793653 7.6190476190476195,176.0846560846561 7.195767195767196,175.66137566137567 6.772486772486773,175.23809523809524 6.34920634920635,174.6031746031746 5.9259259259259265,173.96825396825398 5.714285714285714,173.33333333333334 5.291005291005291,172.6984126984127 4.867724867724868,172.06349206349208 4.867724867724868,171.42857142857144 4.656084656084657,170.7936507936508 4.444444444444445,170.15873015873018 4.444444444444445,169.52380952380955 4.444444444444445,168.8888888888889 4.444444444444445,168.25396825396825 4.444444444444445,167.61904761904762 4.656084656084657,166.984126984127 4.656084656084657,166.34920634920636 4.867724867724868,165.71428571428572 5.07936507936508,165.0793650793651 5.291005291005291,164.44444444444446 5.502645502645503,163.80952380952382 5.9259259259259265,163.1746031746032 6.34920634920635,162.53968253968256 6.772486772486773,161.90476190476193 7.407407407407408,161.4814814814815 7.830687830687832,161.05820105820106 8.042328042328043,160.42328042328043 8.465608465608467,160.0 8.88888888888889,159.5767195767196 9.523809523809524,159.15343915343917 10.15873015873016,158.73015873015873 10.582010582010582,158.30687830687833 11.216931216931219,157.8835978835979 11.851851851851853,157.67195767195767 12.275132275132275,157.24867724867727 12.910052910052912,156.82539682539684 13.333333333333334,156.4021164021164 13.96825396825397,156.4021164021164 14.391534391534393,155.978835978836 14.814814814814817,155.55555555555557 15.449735449735451,155.34391534391534 16.084656084656086,154.92063492063494 16.50793650793651,154.4973544973545 17.142857142857146,154.07407407407408 17.566137566137566,153.65079365079367 18.201058201058203,153.22751322751324 18.83597883597884,152.8042328042328 19.25925925925926,152.38095238095238 19.894179894179896,151.95767195767198 20.31746031746032,151.53439153439155 20.952380952380953,151.32275132275134 21.375661375661377,150.8994708994709 21.7989417989418,150.47619047619048 22.222222222222225,150.05291005291005 22.645502645502646,149.62962962962965 23.06878306878307,148.99470899470901 23.492063492063494,148.57142857142858 23.915343915343918,148.14814814814815 24.338624338624342,147.72486772486775 24.973544973544975,147.30158730158732 25.3968253968254,146.8783068783069 25.820105820105823,146.45502645502646 26.243386243386244,146.03174603174605 26.666666666666668,145.39682539682542 27.089947089947092,144.973544973545 27.301587301587304,144.33862433862436 27.724867724867728,143.91534391534393 27.93650793650794,143.2804232804233 28.35978835978836,142.64550264550266 28.783068783068785,142.01058201058203 28.994708994708997,141.3756613756614 29.20634920634921,140.74074074074076 29.20634920634921,140.10582010582013 29.41798941798942,139.47089947089947 29.629629629629633,138.83597883597884 29.629629629629633,138.2010582010582 29.41798941798942,137.56613756613757 29.41798941798942,136.93121693121694 29.20634920634921,136.2962962962963 28.994708994708997,135.66137566137567 28.994708994708997,135.02645502645504 28.571428571428573,134.3915343915344 28.14814814814815,133.75661375661377 27.93650793650794,133.12169312169314 27.513227513227516,132.6984126984127 27.089947089947092,132.06349206349208 26.666666666666668,131.64021164021165 26.243386243386244,131.21693121693121 25.820105820105823,130.7936507936508 25.3968253968254,130.37037037037038 24.973544973544975,129.94708994708995 24.55026455026455,129.52380952380955 24.12698412698413,129.10052910052912 23.703703703703706,128.67724867724868 23.280423280423282,128.25396825396825 22.645502645502646,127.83068783068784 22.222222222222225,127.40740740740742 21.7989417989418,126.98412698412699 21.375661375661377,126.56084656084657 20.740740740740744,126.13756613756615 20.105820105820108,125.71428571428572 19.682539682539684,125.2910052910053 19.25925925925926,124.86772486772487 18.83597883597884,124.44444444444446 18.412698412698415,124.02116402116403 17.77777777777778,123.59788359788361 17.354497354497354,123.17460317460318 16.71957671957672,122.75132275132276 16.084656084656086,122.32804232804234 15.449735449735451,121.90476190476191 15.026455026455027,121.4814814814815 14.391534391534393,121.26984126984128 13.96825396825397,120.84656084656086 13.333333333333334,120.42328042328043 12.6984126984127,120.21164021164022 12.275132275132275,119.7883597883598 11.640211640211641,119.57671957671958 11.216931216931219,119.15343915343917 10.582010582010582,118.94179894179895 9.947089947089948,118.51851851851853 9.312169312169313,118.30687830687832 8.677248677248677,117.88359788359789 8.042328042328043,117.46031746031747 7.407407407407408,117.46031746031747 6.772486772486773,117.03703703703705 6.137566137566138,116.82539682539684 5.502645502645503,116.61375661375662 4.867724867724868,116.1904761904762 1.4814814814814816,114.49735449735451" style="fill:none; stroke:#00aa99; stroke-width:1.0"  /><polyline points="1.4814814814814816,114.49735449735451 3.3862433862433865,111.53439153439155 3.8095238095238098,110.89947089947091 4.2328042328042335,110.47619047619048 4.656084656084657,109.84126984126985 5.07936507936508,109.20634920634922 5.502645502645503,108.57142857142858 5.714285714285714,107.93650793650795 6.137566137566138,107.51322751322752 6.560846560846561,106.87830687830689 6.984126984126985,106.45502645502647 7.407407407407408,105.82010582010582 7.6190476190476195,105.18518518518519 8.042328042328043,104.55026455026456 8.465608465608467,103.91534391534393 8.677248677248677,103.28042328042329 9.100529100529101,102.85714285714286 9.312169312169313,102.22222222222223 9.523809523809524,101.5873015873016 9.947089947089948,101.16402116402116 10.370370370370372,100.52910052910053 10.582010582010582,99.8941798941799 11.005291005291006,99.47089947089948 11.216931216931219,98.83597883597885 11.640211640211641,98.41269841269842 11.851851851851853,97.77777777777779 12.275132275132275,97.35449735449737 12.6984126984127,96.71957671957672 12.910052910052912,96.08465608465609 13.333333333333334,95.66137566137567 13.756613756613758,95.02645502645504 13.96825396825397,94.39153439153439 14.391534391534393,93.96825396825398 14.603174603174605,93.33333333333334 15.026455026455027,92.69841269841271 15.449735449735451,92.06349206349208 15.661375661375663,91.42857142857143 16.084656084656086,91.00529100529101 16.50793650793651,90.37037037037038 16.71957671957672,89.73544973544975 17.142857142857146,89.31216931216932 17.566137566137566,88.67724867724868 17.98941798941799,88.04232804232805 18.412698412698415,87.40740740740742 18.624338624338627,86.77248677248677 19.047619047619047,86.34920634920636 19.47089947089947,85.71428571428572 19.894179894179896,85.07936507936509 20.31746031746032,84.44444444444446 20.529100529100532,83.80952380952381 20.952380952380953,83.3862433862434 21.375661375661377,82.75132275132276 21.7989417989418,82.11640211640213 22.222222222222225,81.48148148148148 22.645502645502646,81.05820105820106 22.857142857142858,80.42328042328043 23.280423280423282,80.0 23.703703703703706,79.36507936507937 24.12698412698413,78.73015873015873 24.338624338624342,78.0952380952381 24.761904761904763,77.67195767195767 25.185185185185187,77.03703703703704 25.3968253968254,76.4021164021164 25.820105820105823,75.76719576719577 26.243386243386244,75.34391534391536 26.455026455026456,74.70899470899471 26.87830687830688,74.07407407407408 27.301587301587304,73.43915343915344 27.724867724867728,72.80423280423281 27.93650793650794,72.16931216931218 28.35978835978836,71.53439153439155 28.783068783068785,70.8994708994709 28.994708994708997,70.26455026455027 29.41798941798942,69.62962962962963 29.841269841269842,68.994708994709 30.052910052910054,68.35978835978837 30.476190476190478,67.72486772486774 30.476190476190478,67.08994708994709 30.899470899470902,66.45502645502646 31.111111111111114,65.82010582010582 31.322751322751326,65.18518518518519 31.53439153439154,64.55026455026456 31.746031746031747,63.91534391534392 31.95767195767196,63.280423280423285 31.95767195767196,62.64550264550265 32.16931216931217,62.01058201058201 32.16931216931217,61.37566137566138 32.16931216931217,60.74074074074075 31.95767195767196,60.10582010582011 31.95767195767196,59.470899470899475 31.746031746031747,58.83597883597884 31.322751322751326,58.2010582010582 31.111111111111114,57.56613756613757 30.68783068783069,57.142857142857146 30.264550264550266,56.71957671957672 29.841269841269842,56.2962962962963 29.41798941798942,55.87301587301588 28.783068783068785,55.449735449735456 28.35978835978836,55.02645502645503 27.724867724867728,54.81481481481482 27.089947089947092,54.60317460317461 26.455026455026456,54.179894179894184 25.820105820105823,54.179894179894184 25.185185185185187,53.968253968253975 24.55026455026455,53.75661375661376 23.915343915343918,53.75661375661376 23.280423280423282,53.54497354497355 22.645502645502646,53.333333333333336 22.010582010582013,53.333333333333336 21.375661375661377,53.333333333333336 20.740740740740744,53.12169312169313 20.105820105820108,53.12169312169313 19.47089947089947,52.91005291005291 18.83597883597884,52.91005291005291 18.201058201058203,52.91005291005291 17.566137566137566,52.6984126984127 16.931216931216934,52.6984126984127 16.296296296296298,52.48677248677249 15.661375661375663,52.48677248677249 15.026455026455027,52.48677248677249 14.391534391534393,52.27513227513228 13.756613756613758,52.27513227513228 13.121693121693122,52.06349206349207 12.486772486772487,52.06349206349207 11.851851851851853,51.851851851851855 11.216931216931219,51.851851851851855 10.582010582010582,51.640211640211646 9.947089947089948,51.640211640211646 9.312169312169313,51.42857142857143 8.677248677248677,51.21693121693122 8.042328042328043,51.00529100529101 7.407407407407408,51.00529100529101 6.772486772486773,51.00529100529101 6.137566137566138,50.58201058201058 5.502645502645503,50.370370370370374 4.867724867724868,50.158730158730165 4.2328042328042335,49.73544973544974 3.597883597883598,49.31216931216932 2.9629629629629632,48.88888888888889 2.53968253968254,48.46560846560847 2.1164021164021167,48.042328042328045 1.6931216931216932,47.40740740740741 1.26984126984127,46.77248677248678 0.8465608465608466,46.13756613756614 0.634920634920635,45.50264550264551 0.634920634920635,44.867724867724874 0.4232804232804233,44.232804232804234 0.21164021164021166,43.5978835978836 0.21164021164021166,42.96296296296297 0.21164021164021166,42.32804232804233 0.21164021164021166,41.6931216931217 0.21164021164021166,41.058201058201064 0.21164021164021166,40.423280423280424 0.21164021164021166,39.78835978835979 0.4232804232804233,39.15343915343916 0.4232804232804233,38.51851851851852 0.634920634920635,37.883597883597886 0.8465608465608466,37.248677248677254 0.8465608465608466,36.613756613756614 1.0582010582010584,35.97883597883598 1.26984126984127,35.34391534391535 1.4814814814814816,34.70899470899471 1.4814814814814816,34.074074074074076 1.6931216931216932,33.43915343915344 1.9047619047619049,32.804232804232804 1.9047619047619049,32.16931216931217 2.1164021164021167,31.53439153439154 2.53968253968254,30.899470899470902 2.53968253968254,30.264550264550266 2.9629629629629632,29.841269841269842 3.174603174603175,29.20634920634921 3.3862433862433865,28.571428571428573 3.8095238095238098,27.93650793650794 4.2328042328042335,27.301587301587304 4.656084656084657,26.666666666666668 5.07936507936508,26.031746031746035 5.291005291005291,25.3968253968254 5.714285714285714,24.761904761904763 6.137566137566138,24.338624338624342 6.560846560846561,23.915343915343918 6.984126984126985,23.280423280423282 7.407407407407408,22.645502645502646 7.830687830687832,22.010582010582013 8.253968253968255,21.58730158730159 8.677248677248677,21.164021164021165 9.100529100529101,20.740740740740744 9.523809523809524,20.31746031746032 10.15873015873016,19.894179894179896 10.582010582010582,19.47089947089947 11.005291005291006,19.047619047619047 11.640211640211641,18.624338624338627 12.275132275132275,18.201058201058203 12.910052910052912,17.77777777777778 13.544973544973546,17.566137566137566 13.96825396825397,17.142857142857146 14.603174603174605,16.931216931216934 15.238095238095239,16.71957671957672 15.873015873015873,16.50793650793651 16.50793650793651,16.296296296296298 17.142857142857146,16.084656084656086 17.77777777777778,16.084656084656086 18.412698412698415,16.084656084656086 18.83597883597884,16.50793650793651 19.47089947089947,16.50793650793651 20.105820105820108,16.50793650793651 20.740740740740744,16.71957671957672 21.375661375661377,16.931216931216934 22.010582010582013,17.142857142857146 22.645502645502646,17.566137566137566 23.280423280423282,17.77777777777778 23.703703703703706,18.201058201058203 24.338624338624342,18.624338624338627 24.973544973544975,18.83597883597884 25.3968253968254,19.25925925925926 26.031746031746035,19.682539682539684 26.455026455026456,20.105820105820108 27.089947089947092,20.529100529100532 27.513227513227516,20.952380952380953 27.93650793650794,21.375661375661377 28.35978835978836,21.7989417989418 28.783068783068785,22.222222222222225 29.20634920634921,22.857142857142858 29.629629629629633,23.280423280423282 30.052910052910054,23.703703703703706 30.476190476190478,24.338624338624342 30.899470899470902,24.761904761904763 31.322751322751326,25.185185185185187 31.746031746031747,25.820105820105823 32.16931216931217,26.455026455026456 32.592592592592595,26.87830687830688 33.01587301587302,27.301587301587304 33.43915343915344,27.724867724867728 33.86243386243387,28.35978835978836 34.28571428571429,28.994708994708997 34.70899470899471,29.41798941798942 35.13227513227513,30.052910052910054 35.55555555555556,30.476190476190478 35.97883597883598,30.899470899470902 36.613756613756614,31.322751322751326 37.03703703703704,31.746031746031747 37.67195767195768,32.16931216931217 38.30687830687831,32.38095238095239 38.94179894179894,32.592592592592595 39.57671957671958,32.804232804232804 40.211640211640216,32.804232804232804 40.84656084656085,32.804232804232804 41.48148148148149,32.804232804232804 42.11640211640212,32.804232804232804 42.539682539682545,32.38095238095239 43.17460317460318,31.95767195767196 43.80952380952381,31.95767195767196 44.232804232804234,31.53439153439154 44.867724867724874,31.322751322751326 45.29100529100529,30.899470899470902 45.714285714285715,30.476190476190478 46.13756613756614,30.052910052910054 46.560846560846564,29.629629629629633 46.98412698412699,29.20634920634921 47.40740740740741,28.571428571428573 47.830687830687836,28.14814814814815 48.25396825396826,27.513227513227516 48.677248677248684,27.089947089947092 48.88888888888889,26.455026455026456 49.1005291005291,25.820105820105823 49.523809523809526,25.185185185185187 49.94708994708995,24.55026455026455 50.158730158730165,23.915343915343918 50.370370370370374,23.280423280423282 50.7936507936508,22.645502645502646 51.00529100529101,22.010582010582013 51.42857142857143,21.375661375661377 51.640211640211646,20.740740740740744 51.851851851851855,20.105820105820108 52.06349206349207,19.47089947089947 52.48677248677249,18.83597883597884 52.6984126984127,18.201058201058203 52.91005291005291,17.566137566137566 53.333333333333336,16.931216931216934 53.54497354497355,16.296296296296298 53.75661375661376,15.661375661375663 53.968253968253975,15.026455026455027 54.39153439153439,14.391534391534393 54.60317460317461,13.756613756613758 54.81481481481482,13.121693121693122 55.02645502645503,12.486772486772487 55.23809523809524,11.851851851851853 55.449735449735456,11.216931216931219 55.661375661375665,10.582010582010582 55.87301587301588,9.947089947089948 56.08465608465609,9.312169312169313 56.2962962962963,8.677248677248677 56.50793650793651,8.042328042328043 56.71957671957672,7.407407407407408 56.93121693121694,6.772486772486773 57.142857142857146,6.137566137566138 57.142857142857146,5.502645502645503 57.35449735449736,4.867724867724868 57.56613756613757,4.2328042328042335 57.56613756613757,3.597883597883598 58.41269841269842,0.4232804232804233" style="fill:none; stroke:#3300bb; stroke-width:1.0"  /><circle cx="58.41269841269842" cy="0.4232804232804233" r="2.0" style="fill:none; stroke:#000000aa; stroke-width:0.25" /><circle cx="154.92063492063494" cy="19.47089947089947" r="2.0" style="fill:none; stroke:#000000aa; stroke-width:0.25" /><circle cx="64.97354497354497" cy="167.40740740740742" r="2.0" style="fill:none; stroke:#000000aa; stroke-width:0.25" /><circle cx="1.4814814814814816" cy="114.49735449735451" r="2.0" style="fill:none; stroke:#000000aa; stroke-width:0.25" /><circle cx="59.04761904761905" cy="0.4232804232804233" r="2.0" style="fill:none; stroke:#ff3366aa; stroke-width:0.25" /><circle cx="154.2857142857143" cy="20.105820105820108" r="2.0" style="fill:none; stroke:#ff3366aa; stroke-width:0.25" /><circle cx="64.76190476190477" cy="167.40740740740742" r="2.0" style="fill:none; stroke:#ff3366aa; stroke-width:0.25" /><circle cx="1.6931216931216932" cy="114.49735449735451" r="2.0" style="fill:none; stroke:#ff3366aa; stroke-width:0.25" /><polyline points="70.47619047619048,1.9047619047619049 69.84126984126985,1.6931216931216932 69.20634920634922,1.6931216931216932 68.57142857142858,1.6931216931216932 67.93650793650794,1.6931216931216932 67.3015873015873,1.6931216931216932 66.66666666666667,1.4814814814814816 66.03174603174604,1.4814814814814816 65.3968253968254,1.26984126984127 64.76190476190477,1.26984126984127 64.12698412698413,1.0582010582010584 63.492063492063494,1.0582010582010584 62.85714285714286,1.0582010582010584 62.22222222222223,0.8465608465608466" style="fill:none; stroke:#001100; stroke-width:1.0" /><polyline points="55.23809523809524,11.851851851851853 55.449735449735456,11.216931216931219 55.661375661375665,10.582010582010582 55.87301587301588,9.947089947089948 56.08465608465609,9.312169312169313 56.2962962962963,8.677248677248677 56.50793650793651,8.042328042328043 56.71957671957672,7.407407407407408 56.93121693121694,6.772486772486773 57.142857142857146,6.137566137566138 57.142857142857146,5.502645502645503 57.35449735449736,4.867724867724868 57.56613756613757,4.2328042328042335 57.56613756613757,3.597883597883598" style="fill:none; stroke:#000011; stroke-width:1.0" /><polyline points="149.84126984126985,30.899470899470902 150.05291005291005,30.264550264550266 150.47619047619048,29.629629629629633 150.6878306878307,28.994708994708997 150.8994708994709,28.35978835978836 151.11111111111111,27.724867724867728 151.53439153439155,27.089947089947092 151.74603174603175,26.455026455026456 151.95767195767198,25.820105820105823 152.38095238095238,25.185185185185187 152.5925925925926,24.55026455026455 152.8042328042328,23.915343915343918 153.22751322751324,23.280423280423282" style="fill:none; stroke:#001100; stroke-width:1.0" /><polyline points="143.2804232804233,16.50793650793651 143.91534391534393,16.71957671957672 144.55026455026456,16.71957671957672 145.1851851851852,16.931216931216934 145.82010582010582,17.142857142857146 146.45502645502646,17.354497354497354 147.0899470899471,17.566137566137566 147.72486772486775,17.354497354497354 148.35978835978838,17.566137566137566 148.99470899470901,17.77777777777778 149.62962962962965,17.98941798941799 150.26455026455028,18.201058201058203 150.8994708994709,18.412698412698415 151.53439153439155,18.624338624338627" style="fill:none; stroke:#000011; stroke-width:1.0" /><polyline points="55.449735449735456,160.42328042328043 56.08465608465609,160.84656084656086 56.71957671957672,161.2698412698413 57.142857142857146,161.6931216931217 57.777777777777786,161.90476190476193 58.2010582010582,162.32804232804233 58.83597883597884,162.75132275132276 59.470899470899475,163.1746031746032 59.8941798941799,163.59788359788362 60.52910052910053,164.02116402116403 60.952380952380956,164.44444444444446 61.58730158730159,164.8677248677249 62.01058201058201,165.2910052910053" style="fill:none; stroke:#001100; stroke-width:1.0" /><polyline points="70.6878306878307,157.24867724867727 70.26455026455027,157.8835978835979 70.05291005291006,158.51851851851853 69.62962962962963,159.15343915343917 69.20634920634922,159.7883597883598 68.994708994709,160.42328042328043 68.78306878306879,161.05820105820106 68.35978835978837,161.6931216931217 67.93650793650794,162.32804232804233 67.72486772486774,162.96296296296296 67.3015873015873,163.59788359788362 66.87830687830689,164.23280423280426 66.45502645502646,164.8677248677249" style="fill:none; stroke:#000011; stroke-width:1.0" /><polyline points="8.042328042328043,104.55026455026456 7.6190476190476195,105.18518518518519 7.407407407407408,105.82010582010582 6.984126984126985,106.45502645502647 6.560846560846561,106.87830687830689 6.137566137566138,107.51322751322752 5.714285714285714,107.93650793650795 5.502645502645503,108.57142857142858 5.07936507936508,109.20634920634922 4.656084656084657,109.84126984126985 4.2328042328042335,110.47619047619048 3.8095238095238098,110.89947089947091 3.3862433862433865,111.53439153439155" style="fill:none; stroke:#001100; stroke-width:1.0" /><polyline points="12.275132275132275,119.7883597883598 11.640211640211641,119.57671957671958 11.216931216931219,119.15343915343917 10.582010582010582,118.94179894179895 9.947089947089948,118.51851851851853 9.312169312169313,118.30687830687832 8.677248677248677,117.88359788359789 8.042328042328043,117.46031746031747 7.407407407407408,117.46031746031747 6.772486772486773,117.03703703703705 6.137566137566138,116.82539682539684 5.502645502645503,116.61375661375662 4.867724867724868,116.1904761904762" style="fill:none; stroke:#000011; stroke-width:1.0" /><polyline points="62.22222222222223,0.8465608465608466 41.26984126984127,-1.9047619047619049" style="fill:none; stroke:#ffaa00; stroke-width:0.4" /><polyline points="57.56613756613757,3.597883597883598 63.280423280423285,-16.71957671957672" style="fill:none; stroke:#aaff00; stroke-width:0.4" /><polyline points="153.22751322751324,23.280423280423282 161.90476190476193,4.021164021164021" style="fill:none; stroke:#ffaa00; stroke-width:0.4" /><polyline points="151.53439153439155,18.624338624338627 172.06349206349208,23.915343915343918" style="fill:none; stroke:#aaff00; stroke-width:0.4" /><polyline points="62.01058201058201,165.2910052910053 78.94179894179895,177.989417989418" style="fill:none; stroke:#ffaa00; stroke-width:0.4" /><polyline points="66.45502645502646,164.8677248677249 56.08465608465609,183.2804232804233" style="fill:none; stroke:#aaff00; stroke-width:0.4" /><polyline points="3.3862433862433865,111.53439153439155 -8.253968253968255,129.10052910052912" style="fill:none; stroke:#ffaa00; stroke-width:0.4" /><polyline points="4.867724867724868,116.1904761904762 -14.17989417989418,106.87830687830689" style="fill:none; stroke:#aaff00; stroke-width:0.4" /><circle cx="67.93650793650794" cy="83.59788359788361" r="1.0" style="fill:#444444; stroke-width:0" /><circle cx="59.682539682539684" cy="99.25925925925927" r="10.582010582010582" style="fill:#ff770022; stroke-width:0" /><circle cx="59.682539682539684" cy="99.25925925925927" r="1.0" style="fill:#ff7700; stroke-width:0" /></svg>