<?xml version="1.0" encoding="UTF-8" standalone="no"?><svg width="610.1587301587302" height="616.5079365079365" viewBox="-10 -10 223.3862433862434 225.50264550264552" xmlns="http://www.w3.org/2000/svg" xmlns:xlink="http://www.w3.org/1999/xlink"><polyline points="0.0,97.989417989418 2.53968253968254,95.87301587301587 3.174603174603175,95.44973544973546 3.597883597883598,95.02645502645504 4.2328042328042335,94.60317460317461 4.656084656084657,94.17989417989419 5.291005291005291,93.75661375661376 5.714285714285714,93.33333333333334 6.137566137566138,92.91005291005291 6.772486772486773,92.4867724867725 7.195767195767196,92.06349206349208 7.6190476190476195,91.64021164021165 8.253968253968255,91.21693121693123 8.677248677248677,90.7936507936508 9.100529100529101,90.37037037037038 9.523809523809524,89.73544973544975 9.947089947089948,89.31216931216932 10.370370370370372,88.67724867724868 10.793650793650794,88.25396825396827 11.216931216931219,87.83068783068784 11.640211640211641,87.1957671957672 12.063492063492065,86.77248677248677 12.486772486772487,86.13756613756614 12.910052910052912,85.71428571428572 13.333333333333334,85.29100529100529 13.756613756613758,84.65608465608466 14.17989417989418,84.02116402116403 14.603174603174605,83.59788359788361 15.026455026455027,83.17460317460318 15.238095238095239,82.53968253968254 15.661375661375663,81.90476190476191 16.084656084656086,81.48148148148148 16.50793650793651,80.84656084656085 16.931216931216934,80.21164021164022 17.354497354497354,79.57671957671958 17.77777777777778,78.94179894179895 18.201058201058203,78.30687830687832 18.624338624338627,77.67195767195767 18.83597883597884,77.03703703703704 19.25925925925926,76.61375661375662 19.47089947089947,75.97883597883599 19.894179894179896,75.34391534391536 20.105820105820108,74.70899470899471 20.529100529100532,74.07407407407408 20.952380952380953,73.43915343915344 21.375661375661377,72.80423280423281 21.58730158730159,72.16931216931218 22.010582010582013,71.74603174603175 22.222222222222225,71.11111111111111 22.645502645502646,70.6878306878307 23.06878306878307,70.05291005291006 23.492063492063494,69.41798941798942 23.915343915343918,68.994708994709 24.338624338624342,68.57142857142858 24.761904761904763,67.93650793650794 25.185185185185187,67.51322751322752 25.60846560846561,67.08994708994709 26.031746031746035,66.66666666666667 26.455026455026456,66.24338624338625 26.87830687830688,65.82010582010582 27.301587301587304,65.3968253968254 27.724867724867728,64.97354497354497 28.35978835978836,64.55026455026456 28.783068783068785,64.12698412698413 29.20634920634921,63.70370370370371 29.629629629629633,63.280423280423285 30.264550264550266,62.85714285714286 30.899470899470902,62.43386243386244 31.53439153439154,62.01058201058201 32.16931216931217,61.58730158730159 32.804232804232804,61.37566137566138 33.22751322751323,60.952380952380956 33.86243386243387,60.952380952380956 34.4973544973545,60.952380952380956 35.13227513227513,60.74074074074075 35.76719576719577,60.74074074074075 36.402116402116405,60.74074074074075 37.03703703703704,60.74074074074075 37.67195767195768,60.74074074074075 38.30687830687831,60.952380952380956 38.94179894179894,61.16402116402117 39.57671957671958,61.37566137566138 40.211640211640216,61.58730158730159 40.84656084656085,61.798941798941804 41.26984126984127,62.22222222222223 41.6931216931217,62.64550264550265 42.11640211640212,63.06878306878308 42.539682539682545,63.492063492063494 43.17460317460318,63.91534391534392 43.80952380952381,64.33862433862434 44.232804232804234,64.76190476190477 44.65608465608466,65.18518518518519 45.29100529100529,65.60846560846561 45.714285714285715,66.03174603174604 46.13756613756614,66.45502645502646 46.560846560846564,66.87830687830689 46.98412698412699,67.3015873015873 47.40740740740741,67.72486772486774 47.830687830687836,68.14814814814815 48.25396825396826,68.78306878306879 48.677248677248684,69.41798941798942 49.1005291005291,70.05291005291006 49.523809523809526,70.47619047619048 49.73544973544974,71.11111111111111 50.158730158730165,71.53439153439155 50.58201058201058,72.16931216931218 51.00529100529101,72.80423280423281 51.42857142857143,73.43915343915344 51.851851851851855,74.07407407407408 52.27513227513228,74.70899470899471 52.6984126984127,75.13227513227514 53.12169312169313,75.76719576719577 53.54497354497355,76.19047619047619 53.968253968253975,76.61375661375662 54.39153439153439,77.24867724867725 54.81481481481482,77.67195767195767 55.23809523809524,78.0952380952381 55.661375661375665,78.51851851851852 56.2962962962963,78.94179894179895 56.93121693121694,79.36507936507937 57.56613756613757,79.7883597883598 58.2010582010582,80.21164021164022 58.83597883597884,80.21164021164022 59.470899470899475,80.63492063492065 60.10582010582011,80.84656084656085 60.74074074074075,80.84656084656085 61.37566137566138,80.84656084656085 62.01058201058201,80.84656084656085 62.64550264550265,80.84656084656085 63.280423280423285,80.84656084656085 63.91534391534392,80.63492063492065 64.55026455026456,80.63492063492065 65.18518518518519,80.42328042328043 65.82010582010582,80.21164021164022 66.45502645502646,80.0 67.08994708994709,79.7883597883598 67.72486772486774,79.57671957671958 68.14814814814815,79.15343915343917 68.78306878306879,78.94179894179895 69.41798941798942,78.51851851851852 69.84126984126985,78.0952380952381 70.47619047619048,77.88359788359789 70.8994708994709,77.46031746031747 71.53439153439155,77.03703703703704 71.95767195767196,76.61375661375662 72.5925925925926,76.19047619047619 73.01587301587303,75.76719576719577 73.43915343915344,75.34391534391536 73.86243386243387,74.92063492063492 74.28571428571429,74.49735449735451 74.70899470899471,73.86243386243387 75.13227513227514,73.43915343915344 75.55555555555556,72.80423280423281 75.97883597883599,72.38095238095238 76.19047619047619,71.74603174603175 76.61375661375662,71.32275132275133 76.82539682539684,70.6878306878307 77.24867724867725,70.05291005291006 77.67195767195767,69.41798941798942 77.88359788359789,68.78306878306879 78.30687830687832,68.14814814814815 78.51851851851852,67.51322751322752 78.73015873015873,66.87830687830689 78.94179894179895,66.24338624338625 79.15343915343917,65.60846560846561 79.15343915343917,64.97354497354497 79.36507936507937,64.33862433862434 79.15343915343917,63.70370370370371 79.15343915343917,63.06878306878308 79.15343915343917,62.43386243386244 79.15343915343917,61.798941798941804 79.15343915343917,61.16402116402117 78.94179894179895,60.52910052910053 78.94179894179895,59.8941798941799 78.73015873015873,59.25925925925927 78.51851851851852,58.62433862433863 78.30687830687832,57.989417989417994 78.0952380952381,57.35449735449736 77.67195767195767,56.71957671957672 77.46031746031747,56.08465608465609 77.03703703703704,55.449735449735456 76.61375661375662,55.02645502645503 76.19047619047619,54.39153439153439 75.76719576719577,53.968253968253975 75.34391534391536,53.54497354497355 74.92063492063492,53.12169312169313 74.49735449735451,52.6984126984127 74.07407407407408,52.27513227513228 73.43915343915344,51.851851851851855 73.01587301587303,51.42857142857143 72.38095238095238,51.21693121693122 71.74603174603175,51.00529100529101 71.32275132275133,50.58201058201058 70.6878306878307,50.58201058201058 70.05291005291006,50.158730158730165 69.41798941798942,50.158730158730165 68.78306878306879,49.94708994708995 68.14814814814815,49.73544973544974 67.51322751322752,49.523809523809526 66.87830687830689,49.523809523809526 66.24338624338625,49.31216931216932 65.60846560846561,49.1005291005291 64.97354497354497,48.88888888888889 64.33862433862434,48.677248677248684 63.70370370370371,48.25396825396826 63.06878306878308,48.042328042328045 62.43386243386244,47.830687830687836 61.798941798941804,47.61904761904762 61.16402116402117,47.195767195767196 60.52910052910053,46.98412698412699 59.8941798941799,46.560846560846564 59.25925925925927,46.349206349206355 58.83597883597884,45.92592592592593 58.2010582010582,45.50264550264551 57.56613756613757,45.07936507936508 57.142857142857146,44.65608465608466 56.71957671957672,44.021164021164026 56.2962962962963,43.5978835978836 56.08465608465609,42.96296296296297 55.87301587301588,42.32804232804233 55.661375661375665,41.6931216931217 55.449735449735456,41.058201058201064 55.449735449735456,40.423280423280424 55.661375661375665,39.78835978835979 55.661375661375665,39.15343915343916 56.08465608465609,38.51851851851852 56.50793650793651,37.883597883597886 56.71957671957672,37.248677248677254 57.35449735449736,36.82539682539683 57.777777777777786,36.402116402116405 58.2010582010582,35.97883597883598 58.62433862433863,35.34391534391535 59.04761904761905,34.920634920634924 59.470899470899475,34.4973544973545 59.8941798941799,34.074074074074076 60.31746031746032,33.65079365079365 60.74074074074075,33.22751322751323 61.16402116402117,32.804232804232804 61.58730158730159,32.38095238095239 62.01058201058201,31.95767195767196 62.43386243386244,31.53439153439154 62.85714285714286,31.111111111111114 63.280423280423285,30.68783068783069 63.70370370370371,30.052910052910054 64.12698412698413,29.629629629629633 64.55026455026456,29.20634920634921 64.97354497354497,28.571428571428573 65.3968253968254,28.14814814814815 65.82010582010582,27.724867724867728 66.24338624338625,27.301587301587304 66.66666666666667,26.87830687830688 67.08994708994709,26.455026455026456 67.51322751322752,26.031746031746035 67.93650793650794,25.3968253968254 68.35978835978837,24.973544973544975 68.78306878306879,24.55026455026455 69.20634920634922,24.12698412698413 69.62962962962963,23.703703703703706 70.05291005291006,23.280423280423282 70.47619047619048,22.857142857142858 70.8994708994709,22.222222222222225 71.32275132275133,21.7989417989418 71.74603174603175,21.375661375661377 72.16931216931218,20.952380952380953 72.5925925925926,20.31746031746032 73.01587301587303,19.894179894179896 73.43915343915344,19.25925925925926 73.86243386243387,18.83597883597884 74.28571428571429,18.412698412698415 74.70899470899471,17.98941798941799 75.13227513227514,17.566137566137566 75.55555555555556,17.142857142857146 75.97883597883599,16.71957671957672 76.4021164021164,16.084656084656086 76.82539682539684,15.661375661375663 77.24867724867725,15.238095238095239 77.67195767195767,14.814814814814817 78.0952380952381,14.391534391534393 78.51851851851852,13.96825396825397 78.94179894179895,13.333333333333334 79.36507936507937,12.910052910052912 79.7883597883598,12.275132275132275 80.21164021164022,11.640211640211641 80.63492063492065,11.216931216931219 81.05820105820106,10.582010582010582 81.48148148148148,10.15873015873016 81.90476190476191,9.735449735449736 82.32804232804233,9.312169312169313 82.75132275132276,8.677248677248677 83.17460317460318,8.253968253968255 83.59788359788361,7.6190476190476195 84.02116402116403,7.195767195767196 84.44444444444446,6.560846560846561 84.86772486772487,6.137566137566138 85.29100529100529,5.714285714285714 85.71428571428572,5.07936507936508 86.13756613756614,4.656084656084657 86.56084656084657,4.021164021164021 86.98412698412699,3.3862433862433865 87.40740740740742,2.7513227513227516 87.83068783068784,2.3280423280423284 89.94708994708995,-0.4232804232804233" style="fill:none; stroke:#cc0000; stroke-width:1.0"  /><polyline points="89.94708994708995,-0.4232804232804233 92.06349206349208,2.53968253968254 92.4867724867725,3.174603174603175 92.91005291005291,3.597883597883598 93.33333333333334,4.2328042328042335 93.75661375661376,4.867724867724868 94.17989417989419,5.291005291005291 94.60317460317461,5.714285714285714 94.81481481481482,6.34920634920635 95.23809523809524,6.772486772486773 95.66137566137567,7.407407407407408 96.08465608465609,8.042328042328043 96.50793650793652,8.677248677248677 96.93121693121694,9.312169312169313 97.35449735449737,9.735449735449736 97.77777777777779,10.370370370370372 98.2010582010582,11.005291005291006 98.62433862433863,11.640211640211641 99.04761904761905,12.275132275132275 99.47089947089948,12.910052910052912 99.8941798941799,13.544973544973546 100.31746031746033,14.17989417989418 100.74074074074075,14.814814814814817 101.16402116402116,15.449735449735451 101.37566137566138,16.084656084656086 101.79894179894181,16.50793650793651 102.22222222222223,17.142857142857146 102.43386243386244,17.77777777777778 102.85714285714286,18.412698412698415 103.28042328042329,19.047619047619047 103.70370370370371,19.682539682539684 104.12698412698414,20.31746031746032 104.33862433862434,20.952380952380953 104.76190476190477,21.58730158730159 105.18518518518519,22.222222222222225 105.3968253968254,22.857142857142858 105.82010582010582,23.280423280423282 106.03174603174604,23.915343915343918 106.45502645502647,24.55026455026455 106.87830687830689,25.185185185185187 107.0899470899471,25.820105820105823 107.51322751322752,26.455026455026456 107.72486772486774,27.089947089947092 108.14814814814815,27.724867724867728 108.35978835978837,28.35978835978836 108.78306878306879,28.994708994708997 109.20634920634922,29.629629629629633 109.41798941798943,30.264550264550266 109.84126984126985,30.899470899470902 110.05291005291006,31.53439153439154 110.26455026455027,32.16931216931217 110.6878306878307,32.804232804232804 110.89947089947091,33.43915343915344 111.11111111111111,34.074074074074076 111.32275132275133,34.70899470899471 111.53439153439155,35.34391534391535 111.95767195767196,35.97883597883598 112.16931216931218,36.613756613756614 112.3809523809524,37.248677248677254 112.5925925925926,37.883597883597886 112.80423280423281,38.51851851851852 113.01587301587303,39.15343915343916 113.22751322751324,39.78835978835979 113.43915343915344,40.423280423280424 113.65079365079366,41.058201058201064 114.07407407407408,41.6931216931217 114.28571428571429,42.32804232804233 114.70899470899472,42.75132275132275 115.13227513227514,43.386243386243386 115.34391534391536,44.021164021164026 115.76719576719577,44.44444444444445 116.1904761904762,45.07936507936508 116.61375661375662,45.50264550264551 117.03703703703705,45.92592592592593 117.46031746031747,46.349206349206355 117.88359788359789,46.77248677248678 118.51851851851853,47.195767195767196 119.15343915343917,47.40740740740741 119.7883597883598,47.61904761904762 120.42328042328043,47.830687830687836 121.05820105820106,48.042328042328045 121.6931216931217,48.042328042328045 122.32804232804234,47.830687830687836 122.96296296296298,48.042328042328045 123.59788359788361,47.830687830687836 124.23280423280424,47.40740740740741 124.86772486772487,47.195767195767196 125.5026455026455,46.98412698412699 126.13756613756615,46.560846560846564 126.56084656084657,46.13756613756614 126.98412698412699,45.714285714285715 127.40740740740742,45.29100529100529 127.83068783068784,44.867724867724874 128.25396825396825,44.44444444444445 128.67724867724868,44.021164021164026 128.88888888888889,43.386243386243386 129.31216931216932,42.75132275132275 129.52380952380955,42.11640211640212 129.94708994708995,41.48148148148149 130.15873015873018,40.84656084656085 130.37037037037038,40.211640211640216 130.58201058201058,39.57671957671958 130.7936507936508,38.94179894179894 131.005291005291,38.30687830687831 131.005291005291,37.67195767195768 131.21693121693121,37.03703703703704 131.42857142857144,36.402116402116405 131.64021164021165,35.76719576719577 131.85185185185185,35.13227513227513 132.06349206349208,34.4973544973545 132.4867724867725,33.86243386243387 132.6984126984127,33.22751322751323 133.12169312169314,32.592592592592595 133.33333333333334,31.95767195767196 133.75661375661377,31.322751322751326 134.17989417989418,30.899470899470902 134.6031746031746,30.264550264550266 135.02645502645504,29.629629629629633 135.44973544973547,28.994708994708997 135.87301587301587,28.35978835978836 136.2962962962963,27.93650793650794 136.93121693121694,27.513227513227516 137.35449735449737,27.089947089947092 137.989417989418,26.666666666666668 138.62433862433863,26.243386243386244 139.25925925925927,26.031746031746035 139.8941798941799,26.243386243386244 140.31746031746033,25.820105820105823 140.95238095238096,25.820105820105823 141.5873015873016,25.60846560846561 142.22222222222223,25.60846560846561 142.85714285714286,25.60846560846561 143.4920634920635,25.820105820105823 144.12698412698413,26.031746031746035 144.76190476190476,26.455026455026456 145.39682539682542,26.455026455026456 146.03174603174605,26.666666666666668 146.66666666666669,26.666666666666668 147.30158730158732,26.87830687830688 147.93650793650795,27.089947089947092 148.57142857142858,27.513227513227516 149.20634920634922,27.513227513227516 149.84126984126985,27.724867724867728 150.26455026455028,28.14814814814815 150.8994708994709,28.35978835978836 151.32275132275134,28.783068783068785 151.95767195767198,28.783068783068785 152.5925925925926,29.20634920634921 153.22751322751324,29.629629629629633 153.86243386243387,30.052910052910054 154.4973544973545,30.476190476190478 155.13227513227514,30.68783068783069 155.55555555555557,31.111111111111114 155.978835978836,31.53439153439154 156.61375661375664,31.95767195767196 157.03703703703704,32.38095238095239 157.67195767195767,32.592592592592595 158.0952380952381,33.01587301587302 158.51851851851853,33.43915343915344 158.94179894179896,34.074074074074076 159.5767195767196,34.4973544973545 160.0,34.920634920634924 160.42328042328043,35.34391534391535 160.84656084656086,35.97883597883598 161.2698412698413,36.402116402116405 161.6931216931217,36.82539682539683 162.11640211640213,37.248677248677254 162.53968253968256,37.883597883597886 162.96296296296296,38.30687830687831 163.3862433862434,38.94179894179894 163.80952380952382,39.57671957671958 164.02116402116403,40.211640211640216 164.44444444444446,40.84656084656085 164.65608465608466,41.48148148148149 164.8677248677249,42.11640211640212 165.0793650793651,42.75132275132275 165.2910052910053,43.386243386243386 165.2910052910053,44.021164021164026 165.2910052910053,44.65608465608466 165.2910052910053,45.29100529100529 165.2910052910053,45.92592592592593 165.0793650793651,46.560846560846564 165.0793650793651,47.195767195767196 164.8677248677249,47.830687830687836 164.44444444444446,48.46560846560847 164.02116402116403,49.1005291005291 163.80952380952382,49.73544973544974 163.3862433862434,50.158730158730165 162.96296296296296,50.7936507936508 162.53968253968256,51.42857142857143 162.11640211640213,51.851851851851855 161.6931216931217,52.27513227513228 161.2698412698413,52.91005291005291 160.84656084656086,53.333333333333336 160.42328042328043,53.75661375661376 160.0,54.179894179894184 159.36507936507937,54.39153439153439 158.94179894179896,54.81481481481482 158.30687830687833,55.02645502645503 157.67195767195767,55.23809523809524 157.24867724867727,55.661375661375665 156.61375661375664,55.87301587301588 155.978835978836,56.08465608465609 155.34391534391534,56.50793650793651 154.7089947089947,56.71957671957672 154.2857142857143,57.142857142857146 153.65079365079367,57.35449735449736 153.22751322751324,57.777777777777786 152.5925925925926,58.2010582010582 152.16931216931218,58.62433862433863 151.74603174603175,59.04761904761905 151.32275132275134,59.470899470899475 150.8994708994709,59.8941798941799 150.47619047619048,60.52910052910053 150.05291005291005,61.16402116402117 149.62962962962965,61.798941798941804 149.41798941798942,62.43386243386244 149.20634920634922,63.06878306878308 149.20634920634922,63.70370370370371 149.20634920634922,64.33862433862434 148.99470899470901,64.97354497354497 148.99470899470901,65.60846560846561 148.99470899470901,66.24338624338625 149.20634920634922,66.87830687830689 149.41798941798942,67.51322751322752 149.84126984126985,68.14814814814815 150.26455026455028,68.78306878306879 150.6878306878307,69.41798941798942 151.11111111111111,69.84126984126985 151.74603174603175,70.26455026455027 152.38095238095238,70.6878306878307 152.8042328042328,71.11111111111111 153.43915343915344,71.32275132275133 154.07407407407408,71.53439153439155 154.7089947089947,71.95767195767196 155.34391534391534,71.95767195767196 155.978835978836,72.16931216931218 156.61375661375664,72.5925925925926 157.24867724867727,72.5925925925926 157.8835978835979,72.80423280423281 158.51851851851853,73.01587301587303 159.15343915343917,73.43915343915344 159.7883597883598,73.65079365079366 160.42328042328043,73.86243386243387 161.05820105820106,74.07407407407408 161.6931216931217,74.28571428571429 162.32804232804233,74.49735449735451 162.96296296296296,74.70899470899471 163.59788359788362,74.92063492063492 164.23280423280426,75.13227513227514 164.8677248677249,75.55555555555556 165.50264550264552,75.76719576719577 166.13756613756615,75.97883597883599 166.7724867724868,76.19047619047619 167.40740740740742,76.4021164021164 167.83068783068785,76.82539682539684 168.46560846560848,77.03703703703704 169.10052910052912,77.24867724867725 169.73544973544975,77.46031746031747 170.37037037037038,77.67195767195767 171.005291005291,77.88359788359789 171.64021164021165,78.0952380952381 172.27513227513228,78.30687830687832 172.9100529100529,78.51851851851852 173.54497354497354,78.73015873015873 174.1798941798942,78.94179894179895 174.6031746031746,79.36507936507937 175.23809523809524,79.7883597883598 175.87301587301587,80.0 176.50793650793653,80.21164021164022 177.14285714285717,80.42328042328043 177.56613756613757,80.84656084656085 178.2010582010582,80.84656084656085 178.83597883597884,81.26984126984128 179.4708994708995,81.48148148148148 180.10582010582013,81.6931216931217 180.74074074074076,82.11640211640213 181.3756613756614,82.32804232804233 182.01058201058203,82.75132275132276 182.64550264550266,82.96296296296298 183.2804232804233,83.17460317460318 183.91534391534393,83.3862433862434 184.33862433862436,83.80952380952381 184.973544973545,83.59788359788361 185.39682539682542,84.02116402116403 186.03174603174605,84.23280423280424 186.66666666666669,84.65608465608466 187.30158730158732,85.07936507936509 187.93650793650795,85.29100529100529 188.57142857142858,85.5026455026455 189.20634920634922,85.92592592592594 189.84126984126985,86.13756613756614 190.47619047619048,86.56084656084657 191.11111111111111,86.77248677248677 191.74603174603175,87.1957671957672 192.3809523809524,87.40740740740742 193.01587301587304,87.83068783068784 193.65079365079367,88.25396825396827 194.2857142857143,88.46560846560847 194.92063492063494,88.8888888888889 195.55555555555557,89.1005291005291 195.978835978836,89.52380952380953 196.61375661375664,89.73544973544975 197.24867724867727,90.15873015873017 197.8835978835979,90.37037037037038 198.51851851851853,90.7936507936508 199.15343915343917,91.00529100529101 199.5767195767196,91.42857142857143 200.21164021164023,91.64021164021165 203.1746031746032,93.12169312169313" style="fill:none; stroke:#999900; stroke-width:1.0"  /><polyline points="203.1746031746032,93.12169312169313 201.05820105820106,96.08465608465609 200.63492063492066,96.71957671957672 200.21164021164023,97.14285714285715 199.7883597883598,97.56613756613757 199.36507936507937,98.2010582010582 198.94179894179896,98.83597883597885 198.51851851851853,99.47089947089948 198.0952380952381,100.10582010582011 197.6719576719577,100.52910052910053 197.24867724867727,101.16402116402116 196.82539682539684,101.79894179894181 196.4021164021164,102.43386243386244 195.978835978836,103.06878306878308 195.55555555555557,103.70370370370371 195.13227513227514,104.12698412698414 194.92063492063494,104.76190476190477 194.4973544973545,105.18518518518519 194.07407407407408,105.82010582010582 193.86243386243387,106.45502645502647 193.43915343915344,106.87830687830689 193.01587301587304,107.51322751322752 192.8042328042328,108.14814814814815 192.3809523809524,108.57142857142858 191.95767195767198,109.20634920634922 191.53439153439155,109.84126984126985 191.11111111111111,110.47619047619048 190.6878306878307,111.11111111111111 190.26455026455028,111.74603174603176 189.84126984126985,112.3809523809524 189.41798941798945,113.01587301587303 188.99470899470901,113.65079365079366 188.78306878306879,114.28571428571429 188.35978835978838,114.70899470899472 187.93650793650795,115.34391534391536 187.51322751322752,115.97883597883599 187.08994708994712,116.61375661375662 186.66666666666669,117.24867724867725 186.24338624338625,117.88359788359789 185.82010582010582,118.51851851851853 185.39682539682542,119.15343915343917 184.973544973545,119.7883597883598 184.7619047619048,120.42328042328043 184.33862433862436,121.05820105820106 183.91534391534393,121.6931216931217 183.4920634920635,122.32804232804234 183.0687830687831,122.96296296296298 182.64550264550266,123.59788359788361 182.22222222222223,124.23280423280424 181.79894179894183,124.86772486772487 181.3756613756614,125.5026455026455 180.95238095238096,126.13756613756615 180.52910052910053,126.77248677248679 180.10582010582013,127.40740740740742 179.6825396825397,128.04232804232805 179.25925925925927,128.67724867724868 178.83597883597884,129.10052910052912 178.62433862433863,129.73544973544975 178.2010582010582,130.15873015873018 177.7777777777778,130.58201058201058 177.35449735449737,131.21693121693121 176.93121693121694,131.85185185185185 176.2962962962963,132.27513227513228 175.66137566137567,132.6984126984127 175.02645502645504,133.12169312169314 174.3915343915344,133.33333333333334 173.75661375661377,133.54497354497354 173.12169312169314,133.54497354497354 172.4867724867725,133.54497354497354 171.85185185185188,133.54497354497354 171.21693121693124,133.54497354497354 170.58201058201058,133.33333333333334 169.94708994708995,132.9100529100529 169.31216931216932,132.6984126984127 168.67724867724868,132.27513227513228 168.04232804232805,131.85185185185185 167.61904761904762,131.42857142857144 166.984126984127,131.005291005291 166.56084656084658,130.58201058201058 166.13756613756615,130.15873015873018 165.71428571428572,129.52380952380955 165.2910052910053,128.88888888888889 164.8677248677249,128.25396825396825 164.44444444444446,127.61904761904763 164.23280423280426,126.98412698412699 163.80952380952382,126.34920634920636 163.59788359788362,125.71428571428572 163.3862433862434,125.07936507936509 163.1746031746032,124.44444444444446 163.1746031746032,123.80952380952382 162.96296296296296,123.17460317460318 162.75132275132276,122.53968253968254 162.53968253968256,121.90476190476191 162.32804232804233,121.26984126984128 162.11640211640213,120.63492063492065 161.90476190476193,120.00000000000001 161.6931216931217,119.36507936507937 161.4814814814815,118.73015873015873 161.2698412698413,118.0952380952381 161.05820105820106,117.46031746031747 160.63492063492066,117.03703703703705 160.42328042328043,116.4021164021164 160.0,115.97883597883599 159.5767195767196,115.34391534391536 159.36507936507937,114.70899470899472 158.94179894179896,114.28571428571429 158.51851851851853,113.86243386243387 158.0952380952381,113.43915343915344 157.67195767195767,113.01587301587303 157.24867724867727,112.5925925925926 156.82539682539684,112.16931216931218 156.1904761904762,111.74603174603176 155.76719576719577,111.32275132275133 155.13227513227514,110.89947089947091 154.4973544973545,110.47619047619048 153.86243386243387,110.26455026455027 153.22751322751324,109.84126984126985 152.5925925925926,109.62962962962963 151.95767195767198,109.41798941798943 151.32275132275134,108.994708994709 150.6878306878307,108.994708994709 150.05291005291005,108.78306878306879 149.41798941798942,108.78306878306879 148.78306878306879,108.78306878306879 148.14814814814815,108.57142857142858 147.51322751322752,108.57142857142858 146.8783068783069,108.57142857142858 146.24338624338625,108.57142857142858 145.60846560846562,108.57142857142858 144.973544973545,108.57142857142858 144.33862433862436,108.57142857142858 143.70370370370372,108.57142857142858 143.0687830687831,108.78306878306879 142.43386243386246,108.994708994709 141.7989417989418,108.994708994709 141.16402116402116,109.20634920634922 140.52910052910053,109.62962962962963 139.8941798941799,109.84126984126985 139.25925925925927,110.05291005291006 138.62433862433863,110.47619047619048 137.989417989418,110.89947089947091 137.35449735449737,111.32275132275133 136.71957671957674,111.74603174603176 136.0846560846561,112.16931216931218 135.66137566137567,112.5925925925926 135.23809523809524,113.01587301587303 134.6031746031746,113.43915343915344 134.17989417989418,113.86243386243387 133.75661375661377,114.28571428571429 133.33333333333334,114.70899470899472 132.9100529100529,115.13227513227514 132.4867724867725,115.55555555555557 132.06349206349208,115.97883597883599 131.64021164021165,116.61375661375662 131.21693121693121,117.24867724867725 130.7936507936508,117.67195767195768 130.37037037037038,118.30687830687832 130.15873015873018,118.94179894179895 129.73544973544975,119.36507936507937 129.31216931216932,120.00000000000001 129.10052910052912,120.63492063492065 128.67724867724868,121.26984126984128 128.46560846560848,121.90476190476191 128.25396825396825,122.53968253968254 127.83068783068784,123.17460317460318 127.83068783068784,123.80952380952382 127.61904761904763,124.44444444444446 127.40740740740742,125.07936507936509 127.40740740740742,125.71428571428572 127.1957671957672,126.34920634920636 127.1957671957672,126.98412698412699 126.98412698412699,127.61904761904763 126.98412698412699,128.25396825396825 126.98412698412699,128.88888888888889 126.98412698412699,129.52380952380955 126.98412698412699,130.15873015873018 126.98412698412699,130.7936507936508 127.1957671957672,131.42857142857144 127.1957671957672,132.06349206349208 127.40740740740742,132.6984126984127 127.40740740740742,133.33333333333334 127.83068783068784,133.75661375661377 128.04232804232805,134.3915343915344 128.46560846560848,135.02645502645504 128.88888888888889,135.66137566137567 129.31216931216932,136.2962962962963 129.73544973544975,136.71957671957674 130.15873015873018,137.14285714285717 130.58201058201058,137.56613756613757 131.005291005291,137.989417989418 131.42857142857144,138.41269841269843 132.06349206349208,138.83597883597884 132.6984126984127,139.25925925925927 133.33333333333334,139.6825396825397 133.96825396825398,140.10582010582013 134.6031746031746,140.52910052910053 135.23809523809524,140.74074074074076 135.87301587301587,141.16402116402116 136.5079365079365,141.3756613756614 136.93121693121694,141.7989417989418 137.56613756613757,142.01058201058203 138.2010582010582,142.22222222222223 138.83597883597884,142.43386243386246 139.47089947089947,142.64550264550266 140.10582010582013,142.64550264550266 140.74074074074076,142.85714285714286 141.3756613756614,143.0687830687831 142.01058201058203,143.0687830687831 142.64550264550266,143.0687830687831 143.2804232804233,143.2804232804233 143.91534391534393,143.2804232804233 144.55026455026456,143.2804232804233 145.1851851851852,143.4920634920635 145.82010582010582,143.2804232804233 146.45502645502646,143.2804232804233 147.0899470899471,143.4920634920635 147.51322751322752,143.91534391534393 148.14814814814815,143.91534391534393 148.78306878306879,144.12698412698413 149.41798941798942,144.55026455026456 150.05291005291005,144.76190476190476 150.6878306878307,144.973544973545 151.11111111111111,145.39682539682542 151.53439153439155,145.82010582010582 152.16931216931218,146.24338624338625 152.5925925925926,146.66666666666669 153.01587301587304,147.0899470899471 153.43915343915344,147.51322751322752 153.86243386243387,147.93650793650795 154.2857142857143,148.57142857142858 154.7089947089947,149.20634920634922 154.92063492063494,149.84126984126985 155.34391534391534,150.47619047619048 155.55555555555557,151.11111111111111 155.76719576719577,151.74603174603175 155.978835978836,152.38095238095238 155.978835978836,153.01587301587304 156.1904761904762,153.65079365079367 156.1904761904762,154.2857142857143 156.1904761904762,154.92063492063494 156.1904761904762,155.55555555555557 156.1904761904762,156.1904761904762 156.1904761904762,156.82539682539684 156.1904761904762,157.46031746031747 155.978835978836,158.0952380952381 155.76719576719577,158.73015873015873 155.55555555555557,159.36507936507937 155.34391534391534,160.0 155.13227513227514,160.63492063492066 154.7089947089947,161.2698412698413 154.4973544973545,161.90476190476193 154.07407407407408,162.32804232804233 153.86243386243387,162.96296296296296 153.43915343915344,163.59788359788362 153.01587301587304,164.23280423280426 152.5925925925926,164.8677248677249 152.38095238095238,165.50264550264552 151.95767195767198,165.92592592592595 151.53439153439155,166.56084656084658 151.32275132275134,167.19576719576722 150.8994708994709,167.61904761904762 150.6878306878307,168.25396825396825 150.47619047619048,168.8888888888889 150.05291005291005,169.31216931216932 149.84126984126985,169.94708994708995 149.41798941798942,170.58201058201058 148.99470899470901,171.21693121693124 148.57142857142858,171.85185185185188 148.14814814814815,172.4867724867725 147.93650793650795,173.12169312169314 147.51322751322752,173.75661375661377 147.0899470899471,174.1798941798942 146.8783068783069,174.81481481481484 146.45502645502646,175.23809523809524 146.03174603174605,175.87301587301587 145.60846560846562,176.50793650793653 145.1851851851852,177.14285714285717 144.76190476190476,177.7777777777778 144.33862433862436,178.41269841269843 143.91534391534393,178.83597883597884 143.70370370370372,179.4708994708995 143.2804232804233,179.8941798941799 142.85714285714286,180.31746031746033 142.43386243386246,180.95238095238096 142.01058201058203,181.5873015873016 141.5873015873016,182.22222222222223 141.16402116402116,182.64550264550266 140.74074074074076,183.2804232804233 140.31746031746033,183.70370370370372 139.8941798941799,184.33862433862436 139.47089947089947,184.7619047619048 139.04761904761907,185.39682539682542 138.62433862433863,186.03174603174605 138.2010582010582,186.45502645502646 137.7777777777778,187.08994708994712 137.35449735449737,187.51322751322752 136.93121693121694,188.14814814814815 136.5079365079365,188.57142857142858 136.0846560846561,188.99470899470901 135.66137566137567,189.62962962962965 135.23809523809524,190.05291005291008 134.81481481481484,190.47619047619048 134.3915343915344,191.11111111111111 133.96825396825398,191.53439153439155 133.54497354497354,191.95767195767198 133.12169312169314,192.5925925925926 132.6984126984127,193.01587301587304 132.27513227513228,193.43915343915344 131.85185185185185,193.86243386243387 131.42857142857144,194.4973544973545 131.005291005291,194.92063492063494 130.58201058201058,195.55555555555557 130.15873015873018,195.978835978836 129.73544973544975,196.4021164021164 129.31216931216932,196.82539682539684 128.88888888888889,197.24867724867727 128.46560846560848,197.6719576719577 128.04232804232805,198.30687830687833 127.61904761904763,198.73015873015873 127.1957671957672,199.15343915343917 126.77248677248679,199.5767195767196 126.34920634920636,200.00000000000003 125.92592592592594,200.63492063492066 125.5026455026455,201.05820105820106 125.07936507936509,201.4814814814815 124.65608465608466,201.90476190476193 124.23280423280424,202.32804232804233 123.80952380952382,202.75132275132276 121.26984126984128,205.50264550264552" style="fill:none; stroke:#00aa99; stroke-width:1.0"  /><polyline points="121.26984126984128,205.50264550264552 119.15343915343917,203.59788359788362 118.73015873015873,203.1746031746032 118.30687830687832,202.75132275132276 117.88359788359789,202.32804232804233 117.46031746031747,201.90476190476193 117.03703703703705,201.4814814814815 116.61375661375662,200.84656084656086 115.97883597883599,200.42328042328043 115.55555555555557,200.00000000000003 114.92063492063492,199.7883597883598 114.49735449735451,199.36507936507937 114.07407407407408,198.94179894179896 113.65079365079366,198.51851851851853 113.01587301587303,198.0952380952381 112.5925925925926,197.6719576719577 112.16931216931218,197.24867724867727 111.74603174603176,196.82539682539684 111.11111111111111,196.4021164021164 110.6878306878307,195.978835978836 110.26455026455027,195.55555555555557 109.62962962962963,195.13227513227514 109.20634920634922,194.70899470899474 108.57142857142858,194.2857142857143 108.14814814814815,193.86243386243387 107.72486772486774,193.43915343915344 107.0899470899471,193.01587301587304 106.66666666666667,192.5925925925926 106.24338624338625,192.16931216931218 105.60846560846562,191.74603174603175 105.18518518518519,191.32275132275134 104.55026455026456,190.8994708994709 104.12698412698414,190.47619047619048 103.4920634920635,190.05291005291008 103.06878306878308,189.62962962962965 102.64550264550266,189.20634920634922 102.01058201058201,188.99470899470901 101.5873015873016,188.57142857142858 101.16402116402116,188.14814814814815 100.74074074074075,187.72486772486775 100.31746031746033,187.30158730158732 99.68253968253968,186.8783068783069 99.25925925925927,186.45502645502646 98.62433862433863,186.03174603174605 98.2010582010582,185.60846560846562 97.56613756613757,185.1851851851852 97.14285714285715,184.7619047619048 96.50793650793652,184.33862433862436 95.87301587301587,183.91534391534393 95.44973544973546,183.4920634920635 95.02645502645504,183.0687830687831 94.39153439153439,182.64550264550266 93.75661375661376,182.22222222222223 93.33333333333334,181.79894179894183 92.69841269841271,181.3756613756614 92.27513227513228,180.95238095238096 91.64021164021165,180.52910052910053 91.00529100529101,180.10582010582013 90.58201058201058,179.6825396825397 90.15873015873017,179.25925925925927 89.52380952380953,178.83597883597884 89.1005291005291,178.41269841269843 88.46560846560847,177.989417989418 88.04232804232805,177.56613756613757 87.61904761904762,177.14285714285717 86.98412698412699,176.71957671957674 86.56084656084657,176.2962962962963 86.13756613756614,175.87301587301587 85.5026455026455,175.44973544973547 85.07936507936509,175.02645502645504 84.65608465608466,174.6031746031746 84.23280423280424,174.1798941798942 83.59788359788361,173.75661375661377 83.17460317460318,173.33333333333334 82.75132275132276,172.9100529100529 82.32804232804233,172.4867724867725 81.90476190476191,172.06349206349208 81.48148148148148,171.64021164021165 81.05820105820106,171.21693121693124 80.63492063492065,170.7936507936508 80.21164021164022,170.37037037037038 79.7883597883598,169.94708994708995 79.36507936507937,169.31216931216932 78.94179894179895,168.8888888888889 78.30687830687832,168.46560846560848 77.88359788359789,168.04232804232805 77.46031746031747,167.61904761904762 77.03703703703704,167.19576719576722 76.61375661375662,166.56084656084658 76.19047619047619,165.92592592592595 75.76719576719577,165.50264550264552 75.55555555555556,164.8677248677249 75.13227513227514,164.44444444444446 74.70899470899471,163.80952380952382 74.28571428571429,163.1746031746032 73.86243386243387,162.53968253968256 73.65079365079366,161.90476190476193 73.65079365079366,161.2698412698413 73.43915343915344,160.63492063492066 73.43915343915344,160.0 73.43915343915344,159.36507936507937 73.43915343915344,158.73015873015873 73.86243386243387,158.0952380952381 74.07407407407408,157.46031746031747 74.28571428571429,156.82539682539684 74.70899470899471,156.4021164021164 75.13227513227514,155.76719576719577 75.55555555555556,155.34391534391534 75.97883597883599,154.92063492063494 76.4021164021164,154.4973544973545 76.82539682539684,154.07407407407408 77.24867724867725,153.65079365079367 77.67195767195767,153.22751322751324 78.30687830687832,152.8042328042328 78.94179894179895,152.38095238095238 79.57671957671958,151.95767195767198 80.0,151.53439153439155 80.63492063492065,151.11111111111111 81.05820105820106,150.6878306878307 81.6931216931217,150.26455026455028 82.32804232804233,149.84126984126985 82.75132275132276,149.41798941798942 83.3862433862434,148.99470899470901 84.02116402116403,148.78306878306879 84.44444444444446,148.35978835978838 85.07936507936509,147.93650793650795 85.71428571428572,147.51322751322752 86.34920634920636,147.0899470899471 86.98412698412699,146.66666666666669 87.61904761904762,146.24338624338625 88.25396825396827,145.82010582010582 88.8888888888889,145.39682539682542 89.52380952380953,144.973544973545 90.15873015873017,144.55026455026456 90.58201058201058,144.12698412698413 91.21693121693123,143.70370370370372 91.85185185185186,143.2804232804233 92.4867724867725,142.85714285714286 92.91005291005291,142.43386243386246 93.33333333333334,142.01058201058203 93.75661375661376,141.5873015873016 94.17989417989419,140.95238095238096 94.60317460317461,140.31746031746033 94.81481481481482,139.6825396825397 95.02645502645504,139.04761904761907 95.23809523809524,138.41269841269843 95.23809523809524,137.7777777777778 95.23809523809524,137.14285714285717 95.23809523809524,136.5079365079365 95.23809523809524,135.87301587301587 95.23809523809524,135.23809523809524 95.02645502645504,134.6031746031746 94.81481481481482,133.96825396825398 94.39153439153439,133.54497354497354 94.17989417989419,132.9100529100529 93.96825396825398,132.27513227513228 93.54497354497356,131.64021164021165 93.12169312169313,131.21693121693121 92.91005291005291,130.58201058201058 92.4867724867725,129.94708994708995 92.06349206349208,129.52380952380955 91.64021164021165,128.88888888888889 91.21693121693123,128.46560846560848 90.7936507936508,128.04232804232805 90.37037037037038,127.61904761904763 89.94708994708995,127.1957671957672 89.52380952380953,126.77248677248679 89.1005291005291,126.34920634920636 88.46560846560847,125.92592592592594 87.83068783068784,125.71428571428572 87.40740740740742,125.2910052910053 86.77248677248677,124.86772486772487 86.13756613756614,124.65608465608466 85.5026455026455,124.44444444444446 84.86772486772487,124.23280423280424 84.23280423280424,124.02116402116403 83.59788359788361,124.02116402116403 82.96296296296298,123.80952380952382 82.32804232804233,123.59788359788361 81.6931216931217,123.59788359788361 81.05820105820106,123.59788359788361 80.42328042328043,123.80952380952382 79.7883597883598,124.02116402116403 79.15343915343917,124.23280423280424 78.51851851851852,124.44444444444446 77.88359788359789,124.86772486772487 77.24867724867725,125.07936507936509 76.61375661375662,125.5026455026455 75.97883597883599,125.92592592592594 75.55555555555556,126.34920634920636 74.92063492063492,126.77248677248679 74.49735449735451,127.1957671957672 73.86243386243387,127.40740740740742 73.43915343915344,127.83068783068784 73.01587301587303,128.25396825396825 72.38095238095238,128.67724867724868 71.95767195767196,129.10052910052912 71.32275132275133,129.52380952380955 70.8994708994709,129.94708994708995 70.26455026455027,130.37037037037038 69.84126984126985,130.7936507936508 69.41798941798942,131.21693121693121 68.78306878306879,131.64021164021165 68.35978835978837,132.06349206349208 67.72486772486774,132.4867724867725 67.3015873015873,132.9100529100529 66.66666666666667,133.33333333333334 66.24338624338625,133.75661375661377 65.82010582010582,134.17989417989418 65.3968253968254,134.6031746031746 64.76190476190477,135.02645502645504 64.33862433862434,135.44973544973547 63.70370370370371,135.87301587301587 63.280423280423285,136.2962962962963 62.64550264550265,136.71957671957674 62.01058201058201,137.14285714285717 61.58730158730159,137.56613756613757 61.16402116402117,137.989417989418 60.52910052910053,138.41269841269843 59.8941798941799,138.83597883597884 59.470899470899475,139.25925925925927 58.83597883597884,139.6825396825397 58.2010582010582,139.8941798941799 57.56613756613757,140.31746031746033 56.93121693121694,140.52910052910053 56.2962962962963,140.74074074074076 55.661375661375665,140.95238095238096 55.02645502645503,141.16402116402116 54.39153439153439,141.16402116402116 53.75661375661376,141.16402116402116 53.12169312169313,141.16402116402116 52.48677248677249,141.16402116402116 51.851851851851855,141.16402116402116 51.21693121693122,141.16402116402116 50.58201058201058,141.16402116402116 49.94708994708995,140.95238095238096 49.31216931216932,140.95238095238096 48.677248677248684,140.74074074074076 48.042328042328045,140.52910052910053 47.40740740740741,140.31746031746033 46.77248677248678,140.31746031746033 46.13756613756614,139.8941798941799 45.50264550264551,139.6825396825397 44.867724867724874,139.6825396825397 44.232804232804234,139.47089947089947 43.5978835978836,139.04761904761907 42.96296296296297,138.83597883597884 42.32804232804233,138.41269841269843 41.6931216931217,137.989417989418 41.058201058201064,137.56613756613757 40.423280423280424,137.14285714285717 39.78835978835979,136.71957671957674 39.36507936507937,136.2962962962963 38.730158730158735,135.87301587301587 38.30687830687831,135.44973544973547 37.883597883597886,135.02645502645504 37.248677248677254,134.6031746031746 36.82539682539683,134.17989417989418 36.19047619047619,133.75661375661377 35.76719576719577,133.33333333333334 35.34391534391535,132.9100529100529 34.920634920634924,132.4867724867725 34.4973544973545,132.06349206349208 34.074074074074076,131.64021164021165 33.65079365079365,131.21693121693121 33.22751322751323,130.7936507936508 32.592592592592595,130.37037037037038 32.16931216931217,129.94708994708995 31.746031746031747,129.52380952380955 31.322751322751326,129.10052910052912 30.899470899470902,128.67724867724868 30.476190476190478,128.25396825396825 30.052910052910054,127.83068783068784 29.629629629629633,127.40740740740742 29.20634920634921,126.98412698412699 28.783068783068785,126.56084656084657 28.35978835978836,126.13756613756615 27.93650793650794,125.71428571428572 27.513227513227516,125.2910052910053 27.089947089947092,124.86772486772487 26.666666666666668,124.44444444444446 26.243386243386244,124.02116402116403 25.820105820105823,123.59788359788361 25.3968253968254,123.17460317460318 24.973544973544975,122.75132275132276 24.55026455026455,122.32804232804234 24.12698412698413,121.90476190476191 23.703703703703706,121.4814814814815 23.280423280423282,120.84656084656086 22.645502645502646,120.42328042328043 22.222222222222225,120.00000000000001 21.7989417989418,119.57671957671958 21.375661375661377,119.15343915343917 20.952380952380953,118.51851851851853 20.529100529100532,118.0952380952381 20.105820105820108,117.67195767195768 19.682539682539684,117.24867724867725 19.25925925925926,116.82539682539684 18.624338624338627,116.4021164021164 18.201058201058203,115.76719576719577 17.77777777777778,115.34391534391536 17.354497354497354,114.92063492063492 16.931216931216934,114.49735449735451 16.50793650793651,114.07407407407408 16.084656084656086,113.65079365079366 15.661375661375663,113.22751322751324 15.238095238095239,112.80423280423281 14.814814814814817,112.3809523809524 14.391534391534393,111.95767195767196 13.96825396825397,111.53439153439155 13.544973544973546,111.11111111111111 13.121693121693122,110.6878306878307 12.6984126984127,110.05291005291006 12.275132275132275,109.62962962962963 11.640211640211641,109.20634920634922 11.216931216931219,108.78306878306879 10.793650793650794,108.14814814814815 10.370370370370372,107.51322751322752 9.947089947089948,107.0899470899471 9.312169312169313,106.87830687830689 8.88888888888889,106.45502645502647 8.465608465608467,106.03174603174604 8.042328042328043,105.60846560846562 7.6190476190476195,105.18518518518519 7.195767195767196,104.76190476190477 6.772486772486773,104.33862433862434 6.34920634920635,103.91534391534393 5.9259259259259265,103.4920634920635 5.502645502645503,103.06878306878308 5.07936507936508,102.64550264550266 4.656084656084657,102.22222222222223 4.021164021164021,101.79894179894181 3.597883597883598,101.37566137566138 2.9629629629629632,100.95238095238096 2.53968253968254,100.52910052910053 0.0,97.989417989418" style="fill:none; stroke:#3300bb; stroke-width:1.0"  /><circle cx="0.0" cy="97.989417989418" r="2.0" style="fill:none; stroke:#000000aa; stroke-width:0.25" /><circle cx="89.94708994708995" cy="-0.4232804232804233" r="2.0" style="fill:none; stroke:#000000aa; stroke-width:0.25" /><circle cx="203.1746031746032" cy="93.12169312169313" r="2.0" style="fill:none; stroke:#000000aa; stroke-width:0.25" /><circle cx="121.26984126984128" cy="205.50264550264552" r="2.0" style="fill:none; stroke:#000000aa; stroke-width:0.25" /><circle cx="0.21164021164021166" cy="98.2010582010582" r="2.0" style="fill:none; stroke:#ff3366aa; stroke-width:0.25" /><circle cx="89.94708994708995" cy="0.21164021164021166" r="2.0" style="fill:none; stroke:#ff3366aa; stroke-width:0.25" /><circle cx="202.962962962963" cy="93.54497354497356" r="2.0" style="fill:none; stroke:#ff3366aa; stroke-width:0.25" /><circle cx="121.90476190476191" cy="205.0793650793651" r="2.0" style="fill:none; stroke:#ff3366aa; stroke-width:0.25" /><polyline points="9.100529100529101,90.37037037037038 8.677248677248677,90.7936507936508 8.253968253968255,91.21693121693123 7.6190476190476195,91.64021164021165 7.195767195767196,92.06349206349208 6.772486772486773,92.4867724867725 6.137566137566138,92.91005291005291 5.714285714285714,93.33333333333334 5.291005291005291,93.75661375661376 4.656084656084657,94.17989417989419 4.2328042328042335,94.60317460317461 3.597883597883598,95.02645502645504 3.174603174603175,95.44973544973546 2.53968253968254,95.87301587301587" style="fill:none; stroke:#001100; stroke-width:1.0" /><polyline points="8.88888888888889,106.45502645502647 8.465608465608467,106.03174603174604 8.042328042328043,105.60846560846562 7.6190476190476195,105.18518518518519 7.195767195767196,104.76190476190477 6.772486772486773,104.33862433862434 6.34920634920635,103.91534391534393 5.9259259259259265,103.4920634920635 5.502645502645503,103.06878306878308 5.07936507936508,102.64550264550266 4.656084656084657,102.22222222222223 4.021164021164021,101.79894179894181 3.597883597883598,101.37566137566138 2.9629629629629632,100.95238095238096 2.53968253968254,100.52910052910053" style="fill:none; stroke:#000011; stroke-width:1.0" /><polyline points="96.93121693121694,9.312169312169313 96.50793650793652,8.677248677248677 96.08465608465609,8.042328042328043 95.66137566137567,7.407407407407408 95.23809523809524,6.772486772486773 94.81481481481482,6.34920634920635 94.60317460317461,5.714285714285714 94.17989417989419,5.291005291005291 93.75661375661376,4.867724867724868 93.33333333333334,4.2328042328042335 92.91005291005291,3.597883597883598 92.4867724867725,3.174603174603175 92.06349206349208,2.53968253968254" style="fill:none; stroke:#001100; stroke-width:1.0" /><polyline points="82.32804232804233,9.312169312169313 82.75132275132276,8.677248677248677 83.17460317460318,8.253968253968255 83.59788359788361,7.6190476190476195 84.02116402116403,7.195767195767196 84.44444444444446,6.560846560846561 84.86772486772487,6.137566137566138 85.29100529100529,5.714285714285714 85.71428571428572,5.07936507936508 86.13756613756614,4.656084656084657 86.56084656084657,4.021164021164021 86.98412698412699,3.3862433862433865 87.40740740740742,2.7513227513227516 87.83068783068784,2.3280423280423284" style="fill:none; stroke:#000011; stroke-width:1.0" /><polyline points="195.978835978836,103.06878306878308 196.4021164021164,102.43386243386244 196.82539682539684,101.79894179894181 197.24867724867727,101.16402116402116 197.6719576719577,100.52910052910053 198.0952380952381,100.10582010582011 198.51851851851853,99.47089947089948 198.94179894179896,98.83597883597885 199.36507936507937,98.2010582010582 199.7883597883598,97.56613756613757 200.21164021164023,97.14285714285715 200.63492063492066,96.71957671957672 201.05820105820106,96.08465608465609" style="fill:none; stroke:#001100; stroke-width:1.0" /><polyline points="193.01587301587304,87.83068783068784 193.65079365079367,88.25396825396827 194.2857142857143,88.46560846560847 194.92063492063494,88.8888888888889 195.55555555555557,89.1005291005291 195.978835978836,89.52380952380953 196.61375661375664,89.73544973544975 197.24867724867727,90.15873015873017 197.8835978835979,90.37037037037038 198.51851851851853,90.7936507936508 199.15343915343917,91.00529100529101 199.5767195767196,91.42857142857143 200.21164021164023,91.64021164021165" style="fill:none; stroke:#000011; stroke-width:1.0" /><polyline points="112.5925925925926,197.6719576719577 113.01587301587303,198.0952380952381 113.65079365079366,198.51851851851853 114.07407407407408,198.94179894179896 114.49735449735451,199.36507936507937 114.92063492063492,199.7883597883598 115.55555555555557,200.00000000000003 115.97883597883599,200.42328042328043 116.61375661375662,200.84656084656086 117.03703703703705,201.4814814814815 117.46031746031747,201.90476190476193 117.88359788359789,202.32804232804233 118.30687830687832,202.75132275132276 118.73015873015873,203.1746031746032 119.15343915343917,203.59788359788362" style="fill:none; stroke:#001100; stroke-width:1.0" /><polyline points="129.73544973544975,196.4021164021164 129.31216931216932,196.82539682539684 128.88888888888889,197.24867724867727 128.46560846560848,197.6719576719577 128.04232804232805,198.30687830687833 127.61904761904763,198.73015873015873 127.1957671957672,199.15343915343917 126.77248677248679,199.5767195767196 126.34920634920636,200.00000000000003 125.92592592592594,200.63492063492066 125.5026455026455,201.05820105820106 125.07936507936509,201.4814814814815 124.65608465608466,201.90476190476193 124.23280423280424,202.32804232804233 123.80952380952382,202.75132275132276" style="fill:none; stroke:#000011; stroke-width:1.0" /><polyline points="2.53968253968254,95.87301587301587 -13.756613756613758,109.41798941798943" style="fill:none; stroke:#ffaa00; stroke-width:0.4" /><polyline points="2.53968253968254,100.52910052910053 -12.910052910052912,86.13756613756614" style="fill:none; stroke:#aaff00; stroke-width:0.4" /><polyline points="92.06349206349208,2.53968253968254 79.7883597883598,-14.603174603174605" style="fill:none; stroke:#ffaa00; stroke-width:0.4" /><polyline points="87.83068783068784,2.3280423280423284 100.95238095238096,-14.391534391534393" style="fill:none; stroke:#aaff00; stroke-width:0.4" /><polyline points="201.05820105820106,96.08465608465609 213.54497354497357,78.94179894179895" style="fill:none; stroke:#ffaa00; stroke-width:0.4" /><polyline points="200.21164021164023,91.64021164021165 218.83597883597886,101.5873015873016" style="fill:none; stroke:#aaff00; stroke-width:0.4" /><polyline points="119.15343915343917,203.59788359788362 134.81481481481484,217.7777777777778" style="fill:none; stroke:#ffaa00; stroke-width:0.4" /><polyline points="123.80952380952382,202.75132275132276 109.41798941798943,218.20105820105823" style="fill:none; stroke:#aaff00; stroke-width:0.4" /><circle cx="103.4920634920635" cy="100.52910052910053" r="1.0" style="fill:#444444; stroke-width:0" /><circle cx="111.95767195767196" cy="83.59788359788361" r="10.582010582010582" style="fill:#ff770022; stroke-width:0" /><circle cx="111.95767195767196" cy="83.59788359788361" r="1.0" style="fill:#ff7700; stroke-width:0" /></svg>