<?xml version="1.0" encoding="UTF-8" standalone="no"?><svg width="529.5238095238095" height="590.4761904761905" viewBox="-10 -10 196.50793650793653 216.82539682539684" xmlns="http://www.w3.org/2000/svg" xmlns:xlink="http://www.w3.org/1999/xlink"><polyline points="7.407407407407408,57.777777777777786 11.216931216931219,56.50793650793651 11.851851851851853,56.08465608465609 12.486772486772487,56.08465608465609 13.121693121693122,56.08465608465609 13.756613756613758,55.661375661375665 14.391534391534393,55.449735449735456 15.026455026455027,55.23809523809524 15.661375661375663,55.02645502645503 16.296296296296298,54.81481481481482 16.931216931216934,54.81481481481482 17.566137566137566,54.60317460317461 18.201058201058203,54.179894179894184 18.83597883597884,53.968253968253975 19.47089947089947,53.75661375661376 20.105820105820108,53.54497354497355 20.740740740740744,53.333333333333336 21.375661375661377,53.12169312169313 22.010582010582013,52.6984126984127 22.645502645502646,52.48677248677249 23.280423280423282,52.27513227513228 23.915343915343918,52.06349206349207 24.338624338624342,51.640211640211646 24.973544973544975,51.42857142857143 25.3968253968254,51.00529100529101 26.031746031746035,50.7936507936508 26.455026455026456,50.370370370370374 27.089947089947092,50.158730158730165 27.724867724867728,49.73544973544974 28.35978835978836,49.523809523809526 28.994708994708997,49.1005291005291 29.629629629629633,48.88888888888889 30.264550264550266,48.677248677248684 30.899470899470902,48.25396825396826 31.53439153439154,48.042328042328045 31.95767195767196,47.61904761904762 32.592592592592595,47.195767195767196 33.22751322751323,46.98412698412699 33.86243386243387,46.560846560846564 34.4973544973545,46.349206349206355 34.920634920634924,45.92592592592593 35.55555555555556,45.714285714285715 35.97883597883598,45.29100529100529 36.613756613756614,45.07936507936508 37.03703703703704,44.65608465608466 37.67195767195768,44.232804232804234 38.30687830687831,44.021164021164026 38.730158730158735,43.5978835978836 39.36507936507937,43.17460317460318 40.0,42.75132275132275 40.63492063492064,42.539682539682545 41.058201058201064,42.11640211640212 41.6931216931217,41.6931216931217 42.32804232804233,41.48148148148149 42.75132275132275,41.058201058201064 43.386243386243386,40.63492063492064 44.021164021164026,40.211640211640216 44.65608465608466,39.78835978835979 45.07936507936508,39.36507936507937 45.50264550264551,38.94179894179894 45.92592592592593,38.51851851851852 46.349206349206355,38.095238095238095 46.77248677248678,37.46031746031746 46.98412698412699,36.82539682539683 47.195767195767196,36.19047619047619 47.40740740740741,35.55555555555556 47.40740740740741,34.920634920634924 47.40740740740741,34.28571428571429 47.40740740740741,33.65079365079365 47.195767195767196,33.01587301587302 47.195767195767196,32.38095238095239 46.98412698412699,31.746031746031747 46.560846560846564,31.111111111111114 46.13756613756614,30.476190476190478 45.714285714285715,30.052910052910054 45.29100529100529,29.41798941798942 44.867724867724874,28.994708994708997 44.232804232804234,28.571428571428573 43.5978835978836,28.14814814814815 42.96296296296297,27.93650793650794 42.32804232804233,27.724867724867728 41.6931216931217,27.301587301587304 41.058201058201064,27.089947089947092 40.423280423280424,26.87830687830688 39.78835978835979,26.666666666666668 39.15343915343916,26.666666666666668 38.51851851851852,26.455026455026456 37.883597883597886,26.243386243386244 37.248677248677254,26.243386243386244 36.613756613756614,26.031746031746035 35.97883597883598,25.60846560846561 35.34391534391535,25.3968253968254 34.70899470899471,25.185185185185187 34.074074074074076,24.761904761904763 33.43915343915344,24.55026455026455 33.01587301587302,24.12698412698413 32.38095238095239,23.703703703703706 31.746031746031747,23.280423280423282 31.322751322751326,22.857142857142858 30.899470899470902,22.433862433862437 30.476190476190478,21.7989417989418 30.052910052910054,21.164021164021165 29.841269841269842,20.529100529100532 29.629629629629633,19.894179894179896 29.41798941798942,19.25925925925926 29.41798941798942,18.624338624338627 29.41798941798942,17.98941798941799 29.41798941798942,17.354497354497354 29.629629629629633,16.71957671957672 29.841269841269842,16.084656084656086 29.841269841269842,15.449735449735451 30.264550264550266,14.814814814814817 30.68783068783069,14.391534391534393 31.111111111111114,13.756613756613758 31.53439153439154,13.333333333333334 31.95767195767196,12.910052910052912 32.592592592592595,12.486772486772487 33.22751322751323,12.063492063492065 33.65079365079365,11.640211640211641 34.28571428571429,11.428571428571429 34.70899470899471,11.005291005291006 35.34391534391535,10.793650793650794 35.76719576719577,10.370370370370372 36.402116402116405,10.15873015873016 37.03703703703704,9.735449735449736 37.67195767195768,9.523809523809524 38.30687830687831,9.100529100529101 38.94179894179894,8.88888888888889 39.36507936507937,8.465608465608467 40.0,8.253968253968255 40.63492063492064,8.042328042328043 41.26984126984127,7.830687830687832 41.6931216931217,7.407407407407408 42.32804232804233,7.195767195767196 42.96296296296297,6.984126984126985 43.5978835978836,6.772486772486773 44.232804232804234,6.560846560846561 44.65608465608466,6.137566137566138 45.29100529100529,6.137566137566138 45.92592592592593,5.714285714285714 46.560846560846564,5.502645502645503 47.195767195767196,5.291005291005291 47.830687830687836,5.07936507936508 48.46560846560847,4.867724867724868 49.1005291005291,4.444444444444445 49.73544973544974,4.2328042328042335 50.370370370370374,4.021164021164021 51.00529100529101,4.021164021164021 51.640211640211646,3.8095238095238098 52.27513227513228,3.597883597883598 52.91005291005291,3.3862433862433865 53.54497354497355,3.174603174603175 54.179894179894184,2.9629629629629632 54.81481481481482,2.7513227513227516 55.449735449735456,2.53968253968254 56.08465608465609,2.3280423280423284 56.71957671957672,2.1164021164021167 57.35449735449736,1.9047619047619049 57.989417989417994,1.6931216931216932 58.62433862433863,1.4814814814814816 59.25925925925927,1.26984126984127 59.8941798941799,1.26984126984127 60.31746031746032,0.8465608465608466 60.952380952380956,0.8465608465608466 61.58730158730159,0.634920634920635 62.22222222222223,0.634920634920635 62.85714285714286,0.4232804232804233 63.492063492063494,0.4232804232804233 64.12698412698413,0.4232804232804233 64.76190476190477,0.4232804232804233 65.3968253968254,0.21164021164021166 66.03174603174604,0.21164021164021166 66.66666666666667,0.21164021164021166 67.3015873015873,0.21164021164021166 67.93650793650794,0.21164021164021166 68.57142857142858,0.4232804232804233 69.20634920634922,0.4232804232804233 69.84126984126985,0.4232804232804233 70.47619047619048,0.4232804232804233 71.11111111111111,0.4232804232804233 71.74603174603175,0.4232804232804233 72.38095238095238,0.4232804232804233 73.01587301587303,0.634920634920635 73.65079365079366,0.634920634920635 74.28571428571429,0.8465608465608466 74.70899470899471,1.26984126984127 75.34391534391536,1.4814814814814816 75.97883597883599,1.9047619047619049 76.4021164021164,2.3280423280423284 76.82539682539684,2.7513227513227516 77.24867724867725,3.3862433862433865 77.67195767195767,4.021164021164021 77.67195767195767,4.656084656084657 77.88359788359789,5.291005291005291 77.88359788359789,5.9259259259259265 77.88359788359789,6.560846560846561 77.88359788359789,7.195767195767196 77.88359788359789,7.830687830687832 77.67195767195767,8.465608465608467 77.67195767195767,9.100529100529101 77.46031746031747,9.735449735449736 77.24867724867725,10.370370370370372 76.82539682539684,11.005291005291006 76.61375661375662,11.640211640211641 76.4021164021164,12.275132275132275 75.97883597883599,12.6984126984127 75.55555555555556,13.333333333333334 75.13227513227514,13.96825396825397 74.70899470899471,14.603174603174605 74.28571428571429,15.026455026455027 73.86243386243387,15.661375661375663 73.65079365079366,16.296296296296298 73.43915343915344,16.931216931216934 73.01587301587303,17.566137566137566 72.5925925925926,18.201058201058203 72.38095238095238,18.83597883597884 72.16931216931218,19.47089947089947 71.95767195767196,20.105820105820108 71.74603174603175,20.740740740740744 71.53439153439155,21.375661375661377 71.53439153439155,22.010582010582013 71.53439153439155,22.645502645502646 71.53439153439155,23.280423280423282 71.74603174603175,23.915343915343918 71.74603174603175,24.55026455026455 72.16931216931218,25.185185185185187 72.38095238095238,25.820105820105823 72.80423280423281,26.455026455026456 73.22751322751323,26.87830687830688 73.65079365079366,27.301587301587304 74.28571428571429,27.724867724867728 74.92063492063492,28.14814814814815 75.55555555555556,28.35978835978836 76.19047619047619,28.571428571428573 76.82539682539684,28.783068783068785 77.46031746031747,28.783068783068785 78.0952380952381,28.994708994708997 78.73015873015873,28.994708994708997 79.36507936507937,28.783068783068785 80.0,28.783068783068785 80.63492063492065,28.783068783068785 81.26984126984128,28.783068783068785 81.90476190476191,28.571428571428573 82.53968253968254,28.35978835978836 83.17460317460318,28.14814814814815 83.80952380952381,28.14814814814815 84.44444444444446,28.14814814814815 85.07936507936509,27.93650793650794 85.71428571428572,27.724867724867728 86.34920634920636,27.724867724867728 86.98412698412699,27.513227513227516 87.61904761904762,27.301587301587304 88.25396825396827,27.301587301587304 88.8888888888889,27.301587301587304 89.52380952380953,26.87830687830688 90.15873015873017,26.87830687830688 90.7936507936508,26.87830687830688 91.42857142857143,26.666666666666668 92.06349206349208,26.666666666666668 92.69841269841271,26.455026455026456 93.33333333333334,26.243386243386244 93.96825396825398,26.243386243386244 94.60317460317461,26.031746031746035 95.23809523809524,26.031746031746035 95.87301587301587,25.820105820105823 96.2962962962963,25.3968253968254 96.93121693121694,25.60846560846561 97.56613756613757,25.3968253968254 98.2010582010582,25.3968253968254 98.83597883597885,25.185185185185187 99.47089947089948,25.185185185185187 100.10582010582011,24.973544973544975 100.74074074074075,24.761904761904763 101.37566137566138,24.761904761904763 102.01058201058201,24.55026455026455 102.64550264550266,24.55026455026455 103.28042328042329,24.338624338624342 103.91534391534393,24.338624338624342 104.55026455026456,24.12698412698413 105.18518518518519,23.915343915343918 105.82010582010582,23.915343915343918 106.45502645502647,23.703703703703706 107.0899470899471,23.703703703703706 107.72486772486774,23.492063492063494 108.35978835978837,23.492063492063494 108.994708994709,23.492063492063494 109.62962962962963,23.280423280423282 110.26455026455027,23.06878306878307 110.89947089947091,23.06878306878307 111.53439153439155,22.857142857142858 112.16931216931218,22.857142857142858 112.80423280423281,22.645502645502646 113.43915343915344,22.645502645502646 114.07407407407408,22.645502645502646 114.70899470899472,22.433862433862437 115.34391534391536,22.433862433862437 115.97883597883599,22.222222222222225 116.61375661375662,22.010582010582013 117.24867724867725,21.7989417989418 117.88359788359789,21.58730158730159 118.51851851851853,21.58730158730159 119.15343915343917,21.375661375661377 119.7883597883598,21.164021164021165 120.42328042328043,20.952380952380953 121.05820105820106,20.740740740740744 121.6931216931217,20.529100529100532 122.32804232804234,20.31746031746032 122.96296296296298,20.105820105820108 123.59788359788361,19.894179894179896 124.23280423280424,19.682539682539684 124.86772486772487,19.25925925925926 125.5026455026455,18.83597883597884 126.13756613756615,18.624338624338627 126.77248677248679,18.412698412698415 127.40740740740742,17.98941798941799 128.04232804232805,17.98941798941799 128.46560846560848,17.566137566137566 129.10052910052912,17.354497354497354 129.73544973544975,16.931216931216934 130.37037037037038,16.71957671957672 131.005291005291,16.296296296296298 134.3915343915344,14.603174603174605" style="fill:none; stroke:#cc0000; stroke-width:1.0"  /><polyline points="134.3915343915344,14.603174603174605 133.75661375661377,18.83597883597884 133.75661375661377,19.47089947089947 133.54497354497354,20.105820105820108 133.54497354497354,20.740740740740744 133.33333333333334,21.375661375661377 133.33333333333334,22.010582010582013 133.12169312169314,22.645502645502646 132.9100529100529,23.280423280423282 132.9100529100529,23.915343915343918 132.6984126984127,24.55026455026455 132.6984126984127,25.185185185185187 132.6984126984127,25.820105820105823 132.4867724867725,26.455026455026456 132.4867724867725,27.089947089947092 132.27513227513228,27.724867724867728 132.27513227513228,28.35978835978836 132.27513227513228,28.994708994708997 132.27513227513228,29.629629629629633 132.27513227513228,30.264550264550266 132.27513227513228,30.899470899470902 132.06349206349208,31.53439153439154 132.06349206349208,32.16931216931217 132.06349206349208,32.804232804232804 132.06349206349208,33.43915343915344 131.64021164021165,33.86243386243387 131.64021164021165,34.4973544973545 131.64021164021165,35.13227513227513 131.64021164021165,35.76719576719577 131.64021164021165,36.402116402116405 131.64021164021165,37.03703703703704 131.64021164021165,37.67195767195768 131.64021164021165,38.30687830687831 131.64021164021165,38.94179894179894 131.64021164021165,39.57671957671958 131.64021164021165,40.211640211640216 131.64021164021165,40.84656084656085 131.64021164021165,41.48148148148149 131.64021164021165,42.11640211640212 131.64021164021165,42.75132275132275 131.64021164021165,43.386243386243386 131.64021164021165,44.021164021164026 131.64021164021165,44.65608465608466 131.64021164021165,45.29100529100529 131.85185185185185,45.92592592592593 131.85185185185185,46.560846560846564 131.85185185185185,47.195767195767196 131.85185185185185,47.830687830687836 131.85185185185185,48.46560846560847 131.85185185185185,49.1005291005291 131.85185185185185,49.73544973544974 131.85185185185185,50.370370370370374 132.06349206349208,51.00529100529101 132.27513227513228,51.640211640211646 132.27513227513228,52.27513227513228 132.27513227513228,52.91005291005291 132.27513227513228,53.54497354497355 132.27513227513228,54.179894179894184 132.4867724867725,54.81481481481482 132.4867724867725,55.449735449735456 132.4867724867725,56.08465608465609 132.6984126984127,56.71957671957672 132.6984126984127,57.35449735449736 132.6984126984127,57.989417989417994 132.9100529100529,58.62433862433863 132.9100529100529,59.25925925925927 132.9100529100529,59.8941798941799 133.12169312169314,60.52910052910053 133.12169312169314,61.16402116402117 133.33333333333334,61.798941798941804 133.54497354497354,62.43386243386244 133.75661375661377,63.06878306878308 133.96825396825398,63.70370370370371 134.17989417989418,64.33862433862434 134.3915343915344,64.97354497354497 134.6031746031746,65.60846560846561 134.81481481481484,66.24338624338625 135.02645502645504,66.87830687830689 135.23809523809524,67.51322751322752 135.44973544973547,68.14814814814815 135.87301587301587,68.78306878306879 136.0846560846561,69.41798941798942 136.5079365079365,70.05291005291006 136.93121693121694,70.6878306878307 137.35449735449737,71.32275132275133 137.7777777777778,71.95767195767196 138.2010582010582,72.38095238095238 138.62433862433863,72.80423280423281 139.04761904761907,73.22751322751323 139.6825396825397,73.65079365079366 140.31746031746033,73.86243386243387 140.95238095238096,74.28571428571429 141.5873015873016,74.49735449735451 142.22222222222223,74.70899470899471 142.85714285714286,74.49735449735451 143.4920634920635,74.49735449735451 144.12698412698413,74.28571428571429 144.76190476190476,74.28571428571429 145.39682539682542,74.07407407407408 146.03174603174605,73.86243386243387 146.66666666666669,73.65079365079366 147.30158730158732,73.43915343915344 147.93650793650795,73.22751322751323 148.57142857142858,73.01587301587303 148.99470899470901,72.5925925925926 149.62962962962965,72.38095238095238 150.05291005291005,71.95767195767196 150.6878306878307,71.53439153439155 151.32275132275134,71.32275132275133 151.74603174603175,70.8994708994709 152.16931216931218,70.47619047619048 152.8042328042328,70.05291005291006 153.22751322751324,69.62962962962963 153.86243386243387,69.20634920634922 154.2857142857143,68.78306878306879 154.7089947089947,68.35978835978837 155.13227513227514,67.93650793650794 155.76719576719577,67.51322751322752 156.1904761904762,67.08994708994709 156.61375661375664,66.66666666666667 157.24867724867727,66.24338624338625 157.8835978835979,65.82010582010582 158.51851851851853,65.60846560846561 159.15343915343917,65.18518518518519 159.7883597883598,64.97354497354497 160.42328042328043,64.76190476190477 161.05820105820106,64.55026455026456 161.6931216931217,64.55026455026456 162.32804232804233,64.55026455026456 162.96296296296296,64.55026455026456 163.59788359788362,64.55026455026456 164.23280423280426,64.55026455026456 164.8677248677249,64.76190476190477 165.50264550264552,64.55026455026456 166.13756613756615,64.97354497354497 166.7724867724868,65.18518518518519 167.19576719576722,65.60846560846561 167.61904761904762,66.03174603174604 168.04232804232805,66.45502645502646 168.46560846560848,66.87830687830689 168.8888888888889,67.3015873015873 169.31216931216932,67.93650793650794 169.73544973544975,68.57142857142858 170.15873015873018,69.20634920634922 170.58201058201058,69.84126984126985 170.7936507936508,70.47619047619048 171.21693121693124,70.8994708994709 171.42857142857144,71.53439153439155 171.85185185185188,72.16931216931218 172.27513227513228,72.80423280423281 172.4867724867725,73.43915343915344 172.9100529100529,74.07407407407408 173.12169312169314,74.70899470899471 173.33333333333334,75.34391534391536 173.75661375661377,75.97883597883599 173.96825396825398,76.61375661375662 174.1798941798942,77.24867724867725 174.3915343915344,77.88359788359789 174.3915343915344,78.51851851851852 174.6031746031746,79.15343915343917 174.81481481481484,79.7883597883598 175.02645502645504,80.42328042328043 175.23809523809524,81.05820105820106 175.23809523809524,81.6931216931217 175.44973544973547,82.32804232804233 175.44973544973547,82.96296296296298 175.66137566137567,83.59788359788361 175.66137566137567,84.23280423280424 175.66137566137567,84.86772486772487 176.0846560846561,85.5026455026455 176.0846560846561,86.13756613756614 176.0846560846561,86.77248677248677 176.0846560846561,87.40740740740742 176.0846560846561,88.04232804232805 176.0846560846561,88.67724867724868 176.0846560846561,89.31216931216932 176.0846560846561,89.94708994708995 176.0846560846561,90.58201058201058 176.0846560846561,91.21693121693123 176.0846560846561,91.85185185185186 175.87301587301587,92.4867724867725 175.87301587301587,93.12169312169313 175.66137566137567,93.75661375661376 175.44973544973547,94.39153439153439 175.44973544973547,95.02645502645504 175.23809523809524,95.66137566137567 175.02645502645504,96.2962962962963 174.81481481481484,96.93121693121694 174.6031746031746,97.56613756613757 174.1798941798942,98.2010582010582 173.96825396825398,98.83597883597885 173.75661375661377,99.47089947089948 173.33333333333334,100.10582010582011 173.12169312169314,100.74074074074075 172.6984126984127,101.37566137566138 172.27513227513228,102.01058201058201 171.85185185185188,102.64550264550266 171.42857142857144,103.28042328042329 171.005291005291,103.70370370370371 170.58201058201058,104.12698412698414 170.15873015873018,104.55026455026456 169.52380952380955,104.76190476190477 168.8888888888889,104.97354497354497 168.25396825396825,105.18518518518519 167.61904761904762,105.18518518518519 166.984126984127,105.18518518518519 166.34920634920636,105.18518518518519 165.71428571428572,104.97354497354497 165.0793650793651,104.97354497354497 164.44444444444446,104.97354497354497 163.80952380952382,104.55026455026456 163.1746031746032,104.33862433862434 162.75132275132276,103.91534391534393 162.11640211640213,103.70370370370371 161.4814814814815,103.28042328042329 160.84656084656086,103.06878306878308 160.42328042328043,102.64550264550266 159.7883597883598,102.22222222222223 159.15343915343917,101.79894179894181 158.51851851851853,101.37566137566138 157.8835978835979,100.95238095238096 157.24867724867727,100.52910052910053 156.61375661375664,100.10582010582011 155.978835978836,99.68253968253968 155.55555555555557,99.25925925925927 154.92063492063494,98.83597883597885 154.2857142857143,98.41269841269842 153.65079365079367,97.989417989418 153.01587301587304,97.56613756613757 152.38095238095238,97.35449735449737 151.95767195767198,96.93121693121694 151.32275132275134,96.71957671957672 150.6878306878307,96.50793650793652 150.05291005291005,96.2962962962963 149.41798941798942,96.08465608465609 148.78306878306879,96.08465608465609 148.14814814814815,96.08465608465609 147.51322751322752,96.2962962962963 146.8783068783069,96.2962962962963 146.24338624338625,96.50793650793652 145.60846560846562,96.71957671957672 144.973544973545,97.14285714285715 144.33862433862436,97.56613756613757 143.91534391534393,97.989417989418 143.4920634920635,98.41269841269842 143.0687830687831,99.04761904761905 142.64550264550266,99.68253968253968 142.43386243386246,100.31746031746033 142.01058201058203,100.95238095238096 141.7989417989418,101.5873015873016 141.5873015873016,102.22222222222223 141.5873015873016,102.85714285714286 141.3756613756614,103.4920634920635 141.3756613756614,104.12698412698414 141.16402116402116,104.76190476190477 141.16402116402116,105.3968253968254 141.16402116402116,106.03174603174604 140.95238095238096,106.66666666666667 140.95238095238096,107.3015873015873 140.95238095238096,107.93650793650795 140.95238095238096,108.57142857142858 140.95238095238096,109.20634920634922 140.95238095238096,109.84126984126985 140.95238095238096,110.47619047619048 141.16402116402116,111.11111111111111 141.16402116402116,111.74603174603176 141.3756613756614,112.3809523809524 141.3756613756614,113.01587301587303 141.5873015873016,113.65079365079366 141.7989417989418,114.28571428571429 141.7989417989418,114.92063492063492 142.01058201058203,115.55555555555557 142.22222222222223,116.1904761904762 142.43386243386246,116.82539682539684 142.64550264550266,117.46031746031747 142.85714285714286,118.0952380952381 143.0687830687831,118.73015873015873 143.2804232804233,119.36507936507937 143.4920634920635,120.00000000000001 143.91534391534393,120.63492063492065 144.33862433862436,121.26984126984128 144.55026455026456,121.90476190476191 144.76190476190476,122.53968253968254 144.973544973545,123.17460317460318 145.1851851851852,123.80952380952382 145.60846560846562,124.44444444444446 145.82010582010582,125.07936507936509 146.03174603174605,125.71428571428572 146.24338624338625,126.34920634920636 146.45502645502646,126.98412698412699 146.8783068783069,127.61904761904763 147.0899470899471,128.25396825396825 147.30158730158732,128.88888888888889 147.51322751322752,129.52380952380955 147.93650793650795,130.15873015873018 148.14814814814815,130.7936507936508 148.35978835978838,131.42857142857144 148.57142857142858,132.06349206349208 148.99470899470901,132.6984126984127 149.20634920634922,133.33333333333334 149.41798941798942,133.96825396825398 149.84126984126985,134.6031746031746 150.05291005291005,135.23809523809524 150.26455026455028,135.87301587301587 150.6878306878307,136.5079365079365 150.8994708994709,137.14285714285717 151.11111111111111,137.7777777777778 151.53439153439155,138.41269841269843 151.74603174603175,139.04761904761907 151.74603174603175,139.6825396825397 152.16931216931218,140.31746031746033 152.38095238095238,140.95238095238096 152.5925925925926,141.5873015873016 153.01587301587304,142.22222222222223 153.22751322751324,142.85714285714286 153.43915343915344,143.4920634920635 153.86243386243387,144.12698412698413 154.07407407407408,144.76190476190476 154.2857142857143,145.39682539682542 154.4973544973545,146.03174603174605 154.7089947089947,146.66666666666669 154.92063492063494,147.30158730158732 155.13227513227514,147.93650793650795 155.55555555555557,148.57142857142858 155.76719576719577,149.20634920634922 155.978835978836,149.84126984126985 156.1904761904762,150.47619047619048 156.4021164021164,151.11111111111111 156.61375661375664,151.74603174603175 156.82539682539684,152.38095238095238 157.03703703703704,153.01587301587304 157.24867724867727,153.65079365079367 157.46031746031747,154.2857142857143 157.67195767195767,154.92063492063494 158.0952380952381,155.55555555555557 158.30687830687833,156.1904761904762 158.51851851851853,156.82539682539684 158.73015873015873,157.46031746031747 158.94179894179896,158.0952380952381 159.15343915343917,158.73015873015873 159.36507936507937,159.36507936507937 159.5767195767196,160.0 159.7883597883598,160.63492063492066 160.0,161.2698412698413 160.21164021164023,161.90476190476193 160.42328042328043,162.53968253968256 161.6931216931217,166.13756613756615" style="fill:none; stroke:#999900; stroke-width:1.0"  /><polyline points="161.6931216931217,166.13756613756615 157.8835978835979,167.40740740740742 157.24867724867727,167.61904761904762 156.61375661375664,167.83068783068785 155.978835978836,168.04232804232805 155.34391534391534,168.25396825396825 154.7089947089947,168.46560846560848 154.07407407407408,168.8888888888889 153.43915343915344,168.8888888888889 152.8042328042328,169.10052910052912 152.16931216931218,169.31216931216932 151.53439153439155,169.52380952380955 150.8994708994709,169.73544973544975 150.26455026455028,169.94708994708995 149.62962962962965,169.94708994708995 148.99470899470901,170.15873015873018 148.35978835978838,170.15873015873018 147.72486772486775,170.37037037037038 147.0899470899471,170.58201058201058 146.45502645502646,170.58201058201058 145.82010582010582,170.7936507936508 145.1851851851852,170.7936507936508 144.55026455026456,170.7936507936508 143.91534391534393,171.005291005291 143.2804232804233,171.005291005291 142.64550264550266,171.005291005291 142.01058201058203,171.005291005291 141.3756613756614,171.005291005291 140.74074074074076,171.21693121693124 140.10582010582013,171.21693121693124 139.47089947089947,171.21693121693124 138.83597883597884,171.21693121693124 138.2010582010582,171.21693121693124 137.56613756613757,171.21693121693124 136.93121693121694,171.21693121693124 136.2962962962963,171.21693121693124 135.66137566137567,171.21693121693124 135.02645502645504,171.21693121693124 134.3915343915344,171.21693121693124 133.75661375661377,171.21693121693124 133.12169312169314,171.21693121693124 132.4867724867725,171.21693121693124 131.85185185185185,171.005291005291 131.21693121693121,171.005291005291 130.58201058201058,171.21693121693124 129.94708994708995,171.21693121693124 129.31216931216932,171.21693121693124 128.67724867724868,171.005291005291 128.04232804232805,171.005291005291 127.40740740740742,170.7936507936508 126.77248677248679,170.58201058201058 126.13756613756615,170.37037037037038 125.5026455026455,170.15873015873018 124.86772486772487,169.73544973544975 124.23280423280424,169.31216931216932 123.80952380952382,168.8888888888889 123.3862433862434,168.25396825396825 122.96296296296298,167.83068783068785 122.75132275132276,167.19576719576722 122.32804232804234,166.56084656084658 122.11640211640213,165.92592592592595 121.90476190476191,165.2910052910053 121.6931216931217,164.65608465608466 121.4814814814815,164.02116402116403 121.4814814814815,163.3862433862434 121.26984126984128,162.75132275132276 121.26984126984128,162.11640211640213 121.05820105820106,161.4814814814815 121.05820105820106,160.84656084656086 121.05820105820106,160.21164021164023 120.84656084656086,159.5767195767196 120.84656084656086,158.94179894179896 120.84656084656086,158.30687830687833 120.84656084656086,157.67195767195767 120.63492063492065,157.03703703703704 120.42328042328043,156.4021164021164 120.42328042328043,155.76719576719577 120.00000000000001,155.34391534391534 119.7883597883598,154.7089947089947 119.57671957671958,154.07407407407408 119.36507936507937,153.43915343915344 119.15343915343917,152.8042328042328 118.94179894179895,152.16931216931218 118.51851851851853,151.53439153439155 118.30687830687832,150.8994708994709 117.88359788359789,150.26455026455028 117.67195767195768,149.62962962962965 117.24867724867725,148.99470899470901 117.03703703703705,148.35978835978838 116.61375661375662,147.72486772486775 116.1904761904762,147.30158730158732 115.76719576719577,146.66666666666669 115.34391534391536,146.03174603174605 114.92063492063492,145.39682539682542 114.49735449735451,144.76190476190476 114.07407407407408,144.33862433862436 113.65079365079366,143.91534391534393 113.22751322751324,143.4920634920635 112.80423280423281,143.0687830687831 112.3809523809524,142.64550264550266 111.95767195767196,142.22222222222223 111.53439153439155,141.7989417989418 111.11111111111111,141.3756613756614 110.47619047619048,140.95238095238096 109.84126984126985,140.52910052910053 109.20634920634922,140.31746031746033 108.57142857142858,139.8941798941799 107.93650793650795,139.6825396825397 107.3015873015873,139.47089947089947 106.66666666666667,139.25925925925927 106.03174603174604,139.04761904761907 105.3968253968254,138.62433862433863 104.76190476190477,138.62433862433863 104.12698412698414,138.41269841269843 103.4920634920635,138.2010582010582 102.85714285714286,138.2010582010582 102.22222222222223,137.989417989418 101.5873015873016,137.989417989418 100.95238095238096,137.989417989418 100.31746031746033,137.989417989418 99.68253968253968,137.989417989418 99.04761904761905,137.989417989418 98.41269841269842,137.989417989418 97.77777777777779,137.989417989418 97.14285714285715,137.989417989418 96.50793650793652,138.2010582010582 95.87301587301587,138.41269841269843 95.23809523809524,138.62433862433863 94.60317460317461,138.83597883597884 93.96825396825398,139.04761904761907 93.33333333333334,139.25925925925927 92.69841269841271,139.47089947089947 92.06349206349208,139.6825396825397 91.42857142857143,140.10582010582013 90.7936507936508,140.31746031746033 90.15873015873017,140.52910052910053 89.73544973544975,140.95238095238096 89.1005291005291,141.3756613756614 88.46560846560847,141.7989417989418 87.83068783068784,142.22222222222223 87.40740740740742,142.64550264550266 86.98412698412699,143.0687830687831 86.56084656084657,143.4920634920635 86.13756613756614,143.91534391534393 85.71428571428572,144.33862433862436 85.29100529100529,144.76190476190476 84.86772486772487,145.1851851851852 84.44444444444446,145.60846560846562 84.02116402116403,146.03174603174605 83.59788359788361,146.66666666666669 83.17460317460318,147.30158730158732 82.75132275132276,147.93650793650795 82.32804232804233,148.57142857142858 82.11640211640213,149.20634920634922 81.6931216931217,149.84126984126985 81.48148148148148,150.47619047619048 81.26984126984128,151.11111111111111 80.84656084656085,151.74603174603175 80.84656084656085,152.38095238095238 80.63492063492065,153.01587301587304 80.42328042328043,153.65079365079367 80.21164021164022,154.2857142857143 80.21164021164022,154.92063492063494 80.0,155.55555555555557 80.21164021164022,156.1904761904762 80.21164021164022,156.82539682539684 80.21164021164022,157.46031746031747 80.21164021164022,158.0952380952381 80.21164021164022,158.73015873015873 80.21164021164022,159.36507936507937 80.21164021164022,160.0 80.21164021164022,160.63492063492066 80.42328042328043,161.2698412698413 80.42328042328043,161.90476190476193 80.63492063492065,162.53968253968256 80.84656084656085,163.1746031746032 81.05820105820106,163.80952380952382 81.26984126984128,164.44444444444446 81.48148148148148,165.0793650793651 81.6931216931217,165.71428571428572 82.11640211640213,166.34920634920636 82.32804232804233,166.984126984127 82.75132275132276,167.61904761904762 82.96296296296298,168.25396825396825 83.3862433862434,168.8888888888889 83.80952380952381,169.52380952380955 84.23280423280424,170.15873015873018 84.65608465608466,170.58201058201058 85.07936507936509,171.005291005291 85.5026455026455,171.42857142857144 85.92592592592594,171.85185185185188 86.34920634920636,172.27513227513228 86.77248677248677,172.6984126984127 87.40740740740742,173.12169312169314 87.83068783068784,173.54497354497354 88.25396825396827,173.96825396825398 88.67724867724868,174.3915343915344 89.1005291005291,174.81481481481484 89.52380952380953,175.23809523809524 89.94708994708995,175.87301587301587 90.37037037037038,176.2962962962963 90.7936507936508,176.93121693121694 91.21693121693123,177.56613756613757 91.42857142857143,178.2010582010582 91.85185185185186,178.83597883597884 92.06349206349208,179.4708994708995 92.27513227513228,180.10582010582013 92.4867724867725,180.74074074074076 92.69841269841271,181.3756613756614 92.91005291005291,182.01058201058203 92.91005291005291,182.64550264550266 93.12169312169313,183.2804232804233 93.12169312169313,183.91534391534393 93.12169312169313,184.55026455026456 93.12169312169313,185.1851851851852 92.91005291005291,185.82010582010582 92.91005291005291,186.45502645502646 92.91005291005291,187.08994708994712 92.91005291005291,187.72486772486775 92.69841269841271,188.35978835978838 92.4867724867725,188.99470899470901 92.27513227513228,189.62962962962965 92.06349206349208,190.26455026455028 91.85185185185186,190.8994708994709 91.42857142857143,191.53439153439155 91.00529100529101,192.16931216931218 90.58201058201058,192.8042328042328 89.94708994708995,193.22751322751324 89.31216931216932,193.65079365079367 88.8888888888889,194.07407407407408 88.25396825396827,194.2857142857143 87.61904761904762,194.4973544973545 86.98412698412699,194.70899470899474 86.34920634920636,194.4973544973545 85.71428571428572,194.70899470899474 85.07936507936509,194.70899470899474 84.44444444444446,194.70899470899474 83.80952380952381,194.70899470899474 83.17460317460318,194.70899470899474 82.53968253968254,194.70899470899474 81.90476190476191,194.92063492063494 81.26984126984128,194.92063492063494 80.63492063492065,194.92063492063494 80.0,194.92063492063494 79.36507936507937,194.92063492063494 78.73015873015873,194.92063492063494 78.0952380952381,194.92063492063494 77.46031746031747,195.13227513227514 76.82539682539684,195.13227513227514 76.19047619047619,195.13227513227514 75.55555555555556,195.13227513227514 74.92063492063492,195.13227513227514 74.28571428571429,195.13227513227514 73.65079365079366,195.13227513227514 73.01587301587303,195.13227513227514 72.38095238095238,195.13227513227514 71.74603174603175,195.34391534391537 71.11111111111111,195.34391534391537 70.47619047619048,195.13227513227514 69.84126984126985,195.34391534391537 69.20634920634922,195.34391534391537 68.57142857142858,195.34391534391537 67.93650793650794,195.34391534391537 67.3015873015873,195.34391534391537 66.66666666666667,195.34391534391537 66.03174603174604,195.34391534391537 65.3968253968254,195.34391534391537 64.76190476190477,195.34391534391537 64.12698412698413,195.34391534391537 63.492063492063494,195.34391534391537 62.85714285714286,195.34391534391537 62.22222222222223,195.34391534391537 61.58730158730159,195.34391534391537 60.952380952380956,195.34391534391537 60.31746031746032,195.55555555555557 59.682539682539684,195.55555555555557 59.04761904761905,195.55555555555557 58.41269841269842,195.55555555555557 57.777777777777786,195.55555555555557 57.142857142857146,195.55555555555557 56.50793650793651,195.76719576719577 55.87301587301588,195.76719576719577 55.23809523809524,195.76719576719577 54.60317460317461,195.76719576719577 53.968253968253975,195.76719576719577 53.333333333333336,195.76719576719577 52.6984126984127,195.76719576719577 52.06349206349207,195.76719576719577 51.42857142857143,195.76719576719577 50.7936507936508,195.76719576719577 50.158730158730165,195.76719576719577 49.523809523809526,195.76719576719577 48.88888888888889,195.76719576719577 48.25396825396826,195.76719576719577 47.61904761904762,195.76719576719577 46.98412698412699,195.76719576719577 46.349206349206355,195.76719576719577 45.714285714285715,195.76719576719577 45.07936507936508,195.76719576719577 44.44444444444445,195.76719576719577 43.80952380952381,195.76719576719577 43.17460317460318,195.76719576719577 42.539682539682545,195.76719576719577 38.94179894179894,195.76719576719577" style="fill:none; stroke:#00aa99; stroke-width:1.0"  /><polyline points="38.94179894179894,195.76719576719577 39.15343915343916,192.8042328042328 39.15343915343916,192.16931216931218 39.36507936507937,191.53439153439155 39.36507936507937,190.8994708994709 39.36507936507937,190.26455026455028 39.36507936507937,189.62962962962965 39.36507936507937,188.99470899470901 39.36507936507937,188.35978835978838 39.57671957671958,187.72486772486775 39.57671957671958,187.08994708994712 39.57671957671958,186.45502645502646 39.57671957671958,185.82010582010582 39.78835978835979,185.1851851851852 39.78835978835979,184.55026455026456 39.78835978835979,183.91534391534393 39.78835978835979,183.2804232804233 39.78835978835979,182.64550264550266 39.78835978835979,182.01058201058203 40.0,181.3756613756614 40.0,180.74074074074076 40.0,180.10582010582013 40.0,179.4708994708995 40.0,178.83597883597884 40.211640211640216,178.2010582010582 40.211640211640216,177.56613756613757 40.211640211640216,176.93121693121694 40.423280423280424,176.2962962962963 40.423280423280424,175.66137566137567 40.423280423280424,175.02645502645504 40.423280423280424,174.3915343915344 40.423280423280424,173.75661375661377 40.63492063492064,173.12169312169314 40.63492063492064,172.4867724867725 40.63492063492064,171.85185185185188 40.63492063492064,171.21693121693124 40.63492063492064,170.58201058201058 40.84656084656085,169.94708994708995 40.84656084656085,169.31216931216932 40.84656084656085,168.67724867724868 40.84656084656085,168.04232804232805 40.84656084656085,167.40740740740742 40.84656084656085,166.7724867724868 41.058201058201064,166.13756613756615 41.058201058201064,165.50264550264552 41.058201058201064,164.8677248677249 41.058201058201064,164.23280423280426 41.058201058201064,163.59788359788362 41.058201058201064,162.96296296296296 41.26984126984127,162.32804232804233 41.26984126984127,161.6931216931217 41.26984126984127,161.05820105820106 41.26984126984127,160.42328042328043 41.26984126984127,159.7883597883598 41.26984126984127,159.15343915343917 41.26984126984127,158.51851851851853 41.26984126984127,157.8835978835979 41.26984126984127,157.24867724867727 41.26984126984127,156.61375661375664 41.26984126984127,155.978835978836 41.058201058201064,155.34391534391534 41.058201058201064,154.7089947089947 41.058201058201064,154.07407407407408 41.058201058201064,153.43915343915344 41.26984126984127,152.8042328042328 41.26984126984127,152.16931216931218 41.26984126984127,151.53439153439155 41.26984126984127,150.8994708994709 41.26984126984127,150.26455026455028 41.48148148148149,149.62962962962965 41.48148148148149,148.99470899470901 41.48148148148149,148.35978835978838 41.48148148148149,147.72486772486775 41.48148148148149,147.0899470899471 41.48148148148149,146.45502645502646 41.48148148148149,145.82010582010582 41.48148148148149,145.1851851851852 41.48148148148149,144.55026455026456 41.48148148148149,143.91534391534393 41.6931216931217,143.2804232804233 41.6931216931217,142.64550264550266 41.6931216931217,142.01058201058203 41.904761904761905,141.3756613756614 41.904761904761905,140.74074074074076 41.904761904761905,140.10582010582013 41.904761904761905,139.47089947089947 42.11640211640212,138.83597883597884 42.11640211640212,138.2010582010582 42.11640211640212,137.56613756613757 42.11640211640212,136.93121693121694 42.11640211640212,136.2962962962963 42.32804232804233,135.66137566137567 42.32804232804233,135.02645502645504 42.32804232804233,134.3915343915344 42.32804232804233,133.75661375661377 42.32804232804233,133.12169312169314 42.539682539682545,132.4867724867725 42.539682539682545,131.85185185185185 42.539682539682545,131.21693121693121 42.539682539682545,130.58201058201058 42.539682539682545,129.94708994708995 42.539682539682545,129.31216931216932 42.539682539682545,128.67724867724868 42.75132275132275,128.04232804232805 42.539682539682545,127.40740740740742 42.539682539682545,126.77248677248679 42.539682539682545,126.13756613756615 42.539682539682545,125.5026455026455 42.539682539682545,124.86772486772487 42.539682539682545,124.23280423280424 42.539682539682545,123.59788359788361 42.32804232804233,122.96296296296298 42.32804232804233,122.32804232804234 42.32804232804233,121.6931216931217 42.11640211640212,121.05820105820106 41.6931216931217,120.42328042328043 41.6931216931217,119.7883597883598 41.6931216931217,119.15343915343917 41.48148148148149,118.51851851851853 41.26984126984127,117.88359788359789 41.26984126984127,117.24867724867725 41.058201058201064,116.61375661375662 41.058201058201064,115.97883597883599 40.84656084656085,115.34391534391536 40.63492063492064,114.70899470899472 40.211640211640216,114.07407407407408 40.0,113.43915343915344 39.57671957671958,112.80423280423281 39.15343915343916,112.16931216931218 38.730158730158735,111.74603174603176 38.30687830687831,111.32275132275133 37.67195767195768,110.89947089947091 37.03703703703704,110.6878306878307 36.402116402116405,110.47619047619048 35.76719576719577,110.26455026455027 35.13227513227513,110.05291005291006 34.4973544973545,110.05291005291006 33.86243386243387,110.26455026455027 33.22751322751323,110.26455026455027 32.592592592592595,110.47619047619048 31.95767195767196,110.6878306878307 31.322751322751326,110.89947089947091 30.68783068783069,111.32275132275133 30.052910052910054,111.74603174603176 29.41798941798942,112.16931216931218 28.783068783068785,112.5925925925926 28.14814814814815,113.01587301587303 27.724867724867728,113.43915343915344 27.301587301587304,113.86243386243387 26.666666666666668,114.28571428571429 26.243386243386244,114.70899470899472 25.820105820105823,115.13227513227514 25.3968253968254,115.55555555555557 24.973544973544975,115.97883597883599 24.338624338624342,116.4021164021164 23.915343915343918,116.82539682539684 23.280423280423282,117.24867724867725 22.645502645502646,117.67195767195768 22.010582010582013,118.0952380952381 21.375661375661377,118.51851851851853 20.740740740740744,118.94179894179895 20.105820105820108,119.36507936507937 19.47089947089947,119.57671957671958 18.83597883597884,120.00000000000001 18.201058201058203,120.21164021164022 17.566137566137566,120.42328042328043 16.931216931216934,120.84656084656086 16.296296296296298,121.05820105820106 15.661375661375663,121.05820105820106 15.026455026455027,121.26984126984128 14.391534391534393,121.26984126984128 13.756613756613758,121.26984126984128 13.121693121693122,121.26984126984128 12.486772486772487,121.05820105820106 11.851851851851853,120.84656084656086 11.216931216931219,120.42328042328043 10.582010582010582,120.00000000000001 10.15873015873016,119.57671957671958 9.735449735449736,119.15343915343917 9.312169312169313,118.73015873015873 8.88888888888889,118.30687830687832 8.465608465608467,117.67195767195768 8.042328042328043,117.24867724867725 7.6190476190476195,116.61375661375662 7.195767195767196,115.97883597883599 6.772486772486773,115.34391534391536 6.34920634920635,114.70899470899472 5.9259259259259265,114.07407407407408 5.502645502645503,113.43915343915344 5.07936507936508,112.80423280423281 4.867724867724868,112.16931216931218 4.444444444444445,111.53439153439155 4.2328042328042335,110.89947089947091 3.8095238095238098,110.47619047619048 3.597883597883598,109.84126984126985 3.3862433862433865,109.20634920634922 3.174603174603175,108.57142857142858 2.7513227513227516,107.93650793650795 2.53968253968254,107.3015873015873 2.3280423280423284,106.66666666666667 2.1164021164021167,106.03174603174604 1.9047619047619049,105.3968253968254 1.9047619047619049,104.76190476190477 1.6931216931216932,104.12698412698414 1.4814814814814816,103.4920634920635 1.26984126984127,102.85714285714286 1.0582010582010584,102.22222222222223 0.8465608465608466,101.5873015873016 0.8465608465608466,100.95238095238096 0.634920634920635,100.31746031746033 0.634920634920635,99.68253968253968 0.4232804232804233,99.04761904761905 0.4232804232804233,98.41269841269842 0.4232804232804233,97.77777777777779 0.21164021164021166,97.14285714285715 0.21164021164021166,96.50793650793652 0.4232804232804233,95.87301587301587 0.634920634920635,95.23809523809524 1.0582010582010584,94.60317460317461 1.26984126984127,93.96825396825398 1.6931216931216932,93.54497354497356 2.1164021164021167,93.12169312169313 2.53968253968254,92.69841269841271 3.174603174603175,92.4867724867725 3.8095238095238098,92.27513227513228 4.444444444444445,91.85185185185186 5.07936507936508,91.64021164021165 5.714285714285714,91.42857142857143 6.34920634920635,91.21693121693123 6.984126984126985,91.21693121693123 7.6190476190476195,91.00529100529101 8.253968253968255,91.00529100529101 8.88888888888889,90.7936507936508 9.523809523809524,91.00529100529101 10.15873015873016,91.00529100529101 10.793650793650794,90.7936507936508 11.428571428571429,90.7936507936508 12.063492063492065,90.58201058201058 12.6984126984127,90.58201058201058 13.333333333333334,90.7936507936508 13.96825396825397,90.7936507936508 14.603174603174605,90.7936507936508 15.238095238095239,90.58201058201058 15.873015873015873,90.7936507936508 16.50793650793651,90.58201058201058 17.142857142857146,90.37037037037038 17.77777777777778,90.37037037037038 18.412698412698415,90.15873015873017 19.047619047619047,89.94708994708995 19.682539682539684,89.94708994708995 20.105820105820108,89.52380952380953 20.529100529100532,89.1005291005291 21.164021164021165,88.67724867724868 21.58730158730159,88.25396825396827 22.010582010582013,87.83068783068784 22.433862433862437,87.40740740740742 22.857142857142858,86.77248677248677 23.06878306878307,86.13756613756614 23.06878306878307,85.5026455026455 23.280423280423282,84.86772486772487 23.280423280423282,84.23280423280424 23.280423280423282,83.59788359788361 23.280423280423282,82.96296296296298 23.280423280423282,82.32804232804233 23.06878306878307,81.6931216931217 22.645502645502646,81.05820105820106 22.433862433862437,80.42328042328043 22.010582010582013,79.7883597883598 21.58730158730159,79.15343915343917 21.164021164021165,78.51851851851852 20.740740740740744,78.0952380952381 20.31746031746032,77.46031746031747 19.894179894179896,77.03703703703704 19.47089947089947,76.61375661375662 19.047619047619047,76.19047619047619 18.624338624338627,75.55555555555556 18.201058201058203,75.13227513227514 17.77777777777778,74.49735449735451 17.354497354497354,74.07407407407408 16.931216931216934,73.43915343915344 16.50793650793651,72.80423280423281 16.084656084656086,72.38095238095238 15.661375661375663,71.95767195767196 15.238095238095239,71.32275132275133 14.814814814814817,70.6878306878307 14.391534391534393,70.05291005291006 13.96825396825397,69.62962962962963 13.756613756613758,68.994708994709 13.333333333333334,68.57142857142858 12.910052910052912,67.93650793650794 12.486772486772487,67.3015873015873 12.063492063492065,66.66666666666667 11.851851851851853,66.03174603174604 11.428571428571429,65.3968253968254 11.005291005291006,64.76190476190477 10.793650793650794,64.12698412698413 10.370370370370372,63.492063492063494 9.947089947089948,62.85714285714286 9.735449735449736,62.22222222222223 9.312169312169313,61.58730158730159 9.100529100529101,60.952380952380956 7.407407407407408,57.777777777777786" style="fill:none; stroke:#3300bb; stroke-width:1.0"  /><circle cx="7.407407407407408" cy="57.777777777777786" r="2.0" style="fill:none; stroke:#000000aa; stroke-width:0.25" /><circle cx="134.3915343915344" cy="14.603174603174605" r="2.0" style="fill:none; stroke:#000000aa; stroke-width:0.25" /><circle cx="161.6931216931217" cy="166.13756613756615" r="2.0" style="fill:none; stroke:#000000aa; stroke-width:0.25" /><circle cx="38.94179894179894" cy="195.76719576719577" r="2.0" style="fill:none; stroke:#000000aa; stroke-width:0.25" /><circle cx="8.253968253968255" cy="57.56613756613757" r="2.0" style="fill:none; stroke:#ff3366aa; stroke-width:0.25" /><circle cx="134.17989417989418" cy="15.661375661375663" r="2.0" style="fill:none; stroke:#ff3366aa; stroke-width:0.25" /><circle cx="160.84656084656086" cy="165.71428571428572" r="2.0" style="fill:none; stroke:#ff3366aa; stroke-width:0.25" /><circle cx="39.36507936507937" cy="195.978835978836" r="2.0" style="fill:none; stroke:#ff3366aa; stroke-width:0.25" /><polyline points="19.47089947089947,53.75661375661376 18.83597883597884,53.968253968253975 18.201058201058203,54.179894179894184 17.566137566137566,54.60317460317461 16.931216931216934,54.81481481481482 16.296296296296298,54.81481481481482 15.661375661375663,55.02645502645503 15.026455026455027,55.23809523809524 14.391534391534393,55.449735449735456 13.756613756613758,55.661375661375665 13.121693121693122,56.08465608465609 12.486772486772487,56.08465608465609 11.851851851851853,56.08465608465609 11.216931216931219,56.50793650793651" style="fill:none; stroke:#001100; stroke-width:1.0" /><polyline points="12.910052910052912,67.93650793650794 12.486772486772487,67.3015873015873 12.063492063492065,66.66666666666667 11.851851851851853,66.03174603174604 11.428571428571429,65.3968253968254 11.005291005291006,64.76190476190477 10.793650793650794,64.12698412698413 10.370370370370372,63.492063492063494 9.947089947089948,62.85714285714286 9.735449735449736,62.22222222222223 9.312169312169313,61.58730158730159 9.100529100529101,60.952380952380956" style="fill:none; stroke:#000011; stroke-width:1.0" /><polyline points="132.4867724867725,27.089947089947092 132.4867724867725,26.455026455026456 132.6984126984127,25.820105820105823 132.6984126984127,25.185185185185187 132.6984126984127,24.55026455026455 132.9100529100529,23.915343915343918 132.9100529100529,23.280423280423282 133.12169312169314,22.645502645502646 133.33333333333334,22.010582010582013 133.33333333333334,21.375661375661377 133.54497354497354,20.740740740740744 133.54497354497354,20.105820105820108 133.75661375661377,19.47089947089947 133.75661375661377,18.83597883597884" style="fill:none; stroke:#001100; stroke-width:1.0" /><polyline points="123.59788359788361,19.894179894179896 124.23280423280424,19.682539682539684 124.86772486772487,19.25925925925926 125.5026455026455,18.83597883597884 126.13756613756615,18.624338624338627 126.77248677248679,18.412698412698415 127.40740740740742,17.98941798941799 128.04232804232805,17.98941798941799 128.46560846560848,17.566137566137566 129.10052910052912,17.354497354497354 129.73544973544975,16.931216931216934 130.37037037037038,16.71957671957672 131.005291005291,16.296296296296298" style="fill:none; stroke:#000011; stroke-width:1.0" /><polyline points="149.62962962962965,169.94708994708995 150.26455026455028,169.94708994708995 150.8994708994709,169.73544973544975 151.53439153439155,169.52380952380955 152.16931216931218,169.31216931216932 152.8042328042328,169.10052910052912 153.43915343915344,168.8888888888889 154.07407407407408,168.8888888888889 154.7089947089947,168.46560846560848 155.34391534391534,168.25396825396825 155.978835978836,168.04232804232805 156.61375661375664,167.83068783068785 157.24867724867727,167.61904761904762 157.8835978835979,167.40740740740742" style="fill:none; stroke:#001100; stroke-width:1.0" /><polyline points="157.46031746031747,154.2857142857143 157.67195767195767,154.92063492063494 158.0952380952381,155.55555555555557 158.30687830687833,156.1904761904762 158.51851851851853,156.82539682539684 158.73015873015873,157.46031746031747 158.94179894179896,158.0952380952381 159.15343915343917,158.73015873015873 159.36507936507937,159.36507936507937 159.5767195767196,160.0 159.7883597883598,160.63492063492066 160.0,161.2698412698413 160.21164021164023,161.90476190476193 160.42328042328043,162.53968253968256" style="fill:none; stroke:#000011; stroke-width:1.0" /><polyline points="39.78835978835979,184.55026455026456 39.78835978835979,185.1851851851852 39.57671957671958,185.82010582010582 39.57671957671958,186.45502645502646 39.57671957671958,187.08994708994712 39.57671957671958,187.72486772486775 39.36507936507937,188.35978835978838 39.36507936507937,188.99470899470901 39.36507936507937,189.62962962962965 39.36507936507937,190.26455026455028 39.36507936507937,190.8994708994709 39.36507936507937,191.53439153439155 39.15343915343916,192.16931216931218 39.15343915343916,192.8042328042328" style="fill:none; stroke:#001100; stroke-width:1.0" /><polyline points="50.7936507936508,195.76719576719577 50.158730158730165,195.76719576719577 49.523809523809526,195.76719576719577 48.88888888888889,195.76719576719577 48.25396825396826,195.76719576719577 47.61904761904762,195.76719576719577 46.98412698412699,195.76719576719577 46.349206349206355,195.76719576719577 45.714285714285715,195.76719576719577 45.07936507936508,195.76719576719577 44.44444444444445,195.76719576719577 43.80952380952381,195.76719576719577 43.17460317460318,195.76719576719577 42.539682539682545,195.76719576719577" style="fill:none; stroke:#000011; stroke-width:1.0" /><polyline points="11.216931216931219,56.50793650793651 -8.88888888888889,63.280423280423285" style="fill:none; stroke:#ffaa00; stroke-width:0.4" /><polyline points="9.100529100529101,60.952380952380956 -1.0582010582010584,42.32804232804233" style="fill:none; stroke:#aaff00; stroke-width:0.4" /><polyline points="133.75661375661377,18.83597883597884 136.93121693121694,-2.1164021164021167" style="fill:none; stroke:#ffaa00; stroke-width:0.4" /><polyline points="131.005291005291,16.296296296296298 150.05291005291005,6.984126984126985" style="fill:none; stroke:#aaff00; stroke-width:0.4" /><polyline points="157.8835978835979,167.40740740740742 178.2010582010582,161.2698412698413" style="fill:none; stroke:#ffaa00; stroke-width:0.4" /><polyline points="160.42328042328043,162.53968253968256 167.61904761904762,182.43386243386246" style="fill:none; stroke:#aaff00; stroke-width:0.4" /><polyline points="39.15343915343916,192.8042328042328 37.46031746031746,213.96825396825398" style="fill:none; stroke:#ffaa00; stroke-width:0.4" /><polyline points="42.539682539682545,195.76719576719577 21.375661375661377,195.76719576719577" style="fill:none; stroke:#aaff00; stroke-width:0.4" /><circle cx="85.29100529100529" cy="96.50793650793652" r="1.0" style="fill:#444444; stroke-width:0" /><circle cx="83.59788359788361" cy="82.96296296296298" r="10.582010582010582" style="fill:#ff770022; stroke-width:0" /><circle cx="83.59788359788361" cy="82.96296296296298" r="1.0" style="fill:#ff7700; stroke-width:0" /></svg>