<?xml version="1.0" encoding="UTF-8" standalone="no"?><svg width="622.2222222222223" height="638.7301587301588" viewBox="-10 -10 227.40740740740742 232.91005291005294" xmlns="http://www.w3.org/2000/svg" xmlns:xlink="http://www.w3.org/1999/xlink"><polyline points="108.14814814814815,-0.4232804232804233 110.26455026455027,2.7513227513227516 110.47619047619048,3.3862433862433865 110.89947089947091,3.8095238095238098 111.32275132275133,4.444444444444445 111.74603174603176,4.867724867724868 112.16931216931218,5.502645502645503 112.3809523809524,6.137566137566138 112.80423280423281,6.560846560846561 113.22751322751324,7.195767195767196 113.65079365079366,7.6190476190476195 114.07407407407408,8.253968253968255 114.49735449735451,8.88888888888889 114.92063492063492,9.523809523809524 115.34391534391536,10.15873015873016 115.76719576719577,10.582010582010582 115.97883597883599,11.216931216931219 116.4021164021164,11.640211640211641 116.82539682539684,12.275132275132275 117.24867724867725,12.910052910052912 117.67195767195768,13.544973544973546 118.0952380952381,14.17989417989418 118.51851851851853,14.814814814814817 118.73015873015873,15.449735449735451 119.15343915343917,15.873015873015873 119.57671957671958,16.50793650793651 120.00000000000001,17.142857142857146 120.21164021164022,17.77777777777778 120.63492063492065,18.201058201058203 121.05820105820106,18.83597883597884 121.4814814814815,19.47089947089947 121.90476190476191,20.105820105820108 122.32804232804234,20.740740740740744 122.75132275132276,21.375661375661377 123.17460317460318,22.010582010582013 123.59788359788361,22.645502645502646 124.02116402116403,23.280423280423282 124.44444444444446,23.915343915343918 124.86772486772487,24.55026455026455 125.2910052910053,25.185185185185187 125.71428571428572,25.820105820105823 126.13756613756615,26.455026455026456 126.56084656084657,26.87830687830688 126.77248677248679,27.513227513227516 127.1957671957672,28.14814814814815 127.61904761904763,28.783068783068785 128.04232804232805,29.41798941798942 128.46560846560848,30.052910052910054 128.88888888888889,30.476190476190478 129.10052910052912,31.111111111111114 129.52380952380955,31.746031746031747 129.94708994708995,32.38095238095239 130.37037037037038,33.01587301587302 130.7936507936508,33.43915343915344 131.21693121693121,34.074074074074076 131.64021164021165,34.70899470899471 132.06349206349208,35.34391534391535 132.4867724867725,35.97883597883598 132.9100529100529,36.402116402116405 133.33333333333334,37.03703703703704 133.75661375661377,37.67195767195768 133.96825396825398,38.30687830687831 134.3915343915344,38.730158730158735 134.81481481481484,39.36507936507937 135.23809523809524,40.0 135.66137566137567,40.63492063492064 135.87301587301587,41.26984126984127 136.2962962962963,41.6931216931217 136.71957671957674,42.11640211640212 137.14285714285717,42.75132275132275 137.56613756613757,43.17460317460318 137.7777777777778,43.80952380952381 138.2010582010582,44.44444444444445 138.62433862433863,45.07936507936508 139.04761904761907,45.714285714285715 139.47089947089947,46.349206349206355 139.8941798941799,46.98412698412699 140.31746031746033,47.61904761904762 140.74074074074076,48.25396825396826 141.16402116402116,48.88888888888889 141.5873015873016,49.523809523809526 142.01058201058203,50.158730158730165 142.43386243386246,50.7936507936508 142.85714285714286,51.42857142857143 143.0687830687831,52.06349206349207 143.4920634920635,52.48677248677249 143.91534391534393,53.12169312169313 144.33862433862436,53.75661375661376 144.76190476190476,54.39153439153439 145.1851851851852,55.02645502645503 145.60846560846562,55.661375661375665 146.03174603174605,56.2962962962963 146.45502645502646,56.93121693121694 146.66666666666669,57.56613756613757 147.0899470899471,57.989417989417994 147.51322751322752,58.62433862433863 147.93650793650795,59.25925925925927 148.35978835978838,59.8941798941799 148.78306878306879,60.52910052910053 149.20634920634922,61.16402116402117 149.41798941798942,61.798941798941804 149.84126984126985,62.22222222222223 150.26455026455028,62.85714285714286 150.6878306878307,63.492063492063494 151.11111111111111,64.12698412698413 151.32275132275134,64.76190476190477 151.74603174603175,65.18518518518519 152.16931216931218,65.82010582010582 152.5925925925926,66.45502645502646 152.8042328042328,67.08994708994709 153.22751322751324,67.51322751322752 153.65079365079367,68.14814814814815 154.07407407407408,68.78306878306879 154.4973544973545,69.41798941798942 154.92063492063494,70.05291005291006 155.34391534391534,70.6878306878307 155.76719576719577,71.32275132275133 155.978835978836,71.95767195767196 156.4021164021164,72.38095238095238 156.82539682539684,73.01587301587303 157.24867724867727,73.65079365079366 157.67195767195767,74.28571428571429 157.8835978835979,74.92063492063492 158.30687830687833,75.34391534391536 158.73015873015873,75.97883597883599 159.15343915343917,76.61375661375662 159.5767195767196,77.03703703703704 160.0,77.67195767195767 160.42328042328043,78.30687830687832 160.84656084656086,78.94179894179895 161.2698412698413,79.57671957671958 161.6931216931217,80.21164021164022 162.11640211640213,80.84656084656085 162.32804232804233,81.48148148148148 162.75132275132276,82.11640211640213 163.1746031746032,82.75132275132276 163.59788359788362,83.3862433862434 163.80952380952382,84.02116402116403 164.23280423280426,84.44444444444446 164.44444444444446,85.07936507936509 164.8677248677249,85.5026455026455 165.2910052910053,86.13756613756614 165.71428571428572,86.77248677248677 166.13756613756615,87.40740740740742 166.56084656084658,88.04232804232805 166.984126984127,88.67724867724868 167.40740740740742,89.31216931216932 167.61904761904762,89.94708994708995 168.04232804232805,90.37037037037038 168.46560846560848,90.7936507936508 168.8888888888889,91.42857142857143 169.31216931216932,92.06349206349208 169.73544973544975,92.69841269841271 170.15873015873018,93.33333333333334 170.58201058201058,93.96825396825398 171.005291005291,94.60317460317461 171.21693121693124,95.23809523809524 171.64021164021165,95.87301587301587 172.06349206349208,96.50793650793652 172.4867724867725,97.14285714285715 172.9100529100529,97.77777777777779 173.33333333333334,98.41269841269842 173.75661375661377,99.04761904761905 174.1798941798942,99.68253968253968 174.6031746031746,100.31746031746033 175.02645502645504,100.95238095238096 175.44973544973547,101.5873015873016 175.87301587301587,102.22222222222223 176.2962962962963,102.85714285714286 176.71957671957674,103.4920634920635 176.93121693121694,104.12698412698414 177.35449735449737,104.55026455026456 177.7777777777778,105.18518518518519 178.2010582010582,105.82010582010582 178.62433862433863,106.45502645502647 179.04761904761907,107.0899470899471 179.25925925925927,107.72486772486774 179.6825396825397,108.14814814814815 180.10582010582013,108.78306878306879 180.52910052910053,109.41798941798943 180.95238095238096,110.05291005291006 181.3756613756614,110.6878306878307 181.5873015873016,111.32275132275133 182.01058201058203,111.74603174603176 182.43386243386246,112.16931216931218 182.85714285714286,112.5925925925926 183.0687830687831,113.22751322751324 183.4920634920635,113.65079365079366 183.91534391534393,114.28571428571429 184.33862433862436,114.92063492063492 184.55026455026456,115.55555555555557 184.973544973545,115.97883597883599 185.39682539682542,116.61375661375662 185.82010582010582,117.24867724867725 186.24338624338625,117.88359788359789 186.66666666666669,118.51851851851853 187.08994708994712,119.15343915343917 187.30158730158732,119.7883597883598 187.72486772486775,120.21164021164022 188.14814814814815,120.84656084656086 188.57142857142858,121.4814814814815 188.99470899470901,122.11640211640213 189.41798941798945,122.75132275132276 189.84126984126985,123.3862433862434 190.26455026455028,124.02116402116403 190.6878306878307,124.65608465608466 191.11111111111111,125.2910052910053 191.53439153439155,125.92592592592594 191.74603174603175,126.56084656084657 192.16931216931218,126.98412698412699 192.5925925925926,127.61904761904763 193.01587301587304,128.25396825396825 193.22751322751324,128.88888888888889 193.65079365079367,129.31216931216932 194.07407407407408,129.94708994708995 194.4973544973545,130.58201058201058 194.92063492063494,131.21693121693121 195.13227513227514,131.85185185185185 195.55555555555557,132.27513227513228 195.978835978836,132.9100529100529 196.4021164021164,133.54497354497354 196.82539682539684,134.17989417989418 197.24867724867727,134.81481481481484 197.6719576719577,135.44973544973547 198.0952380952381,135.87301587301587 198.30687830687833,136.5079365079365 198.73015873015873,136.93121693121694 198.94179894179896,137.56613756613757 199.36507936507937,137.989417989418 199.7883597883598,138.62433862433863 200.21164021164023,139.25925925925927 200.63492063492066,139.8941798941799 201.05820105820106,140.52910052910053 201.4814814814815,141.16402116402116 201.90476190476193,141.7989417989418 202.32804232804233,142.43386243386246 202.53968253968256,143.0687830687831 202.962962962963,143.4920634920635 203.3862433862434,143.91534391534393 203.80952380952382,144.55026455026456 204.02116402116403,145.1851851851852 204.44444444444446,145.60846560846562 204.8677248677249,146.24338624338625 205.29100529100532,146.66666666666669 207.19576719576722,149.20634920634922" style="fill:none; stroke:#cc0000; stroke-width:3.0" stroke-dasharray="6,3" /><polyline points="207.19576719576722,149.20634920634922 204.02116402116403,150.6878306878307 203.3862433862434,151.11111111111111 202.75132275132276,151.53439153439155 202.11640211640213,151.74603174603175 201.4814814814815,151.95767195767198 200.84656084656086,152.16931216931218 200.21164021164023,152.5925925925926 199.5767195767196,152.8042328042328 198.94179894179896,153.01587301587304 198.30687830687833,153.43915343915344 197.6719576719577,153.65079365079367 197.03703703703704,153.86243386243387 196.4021164021164,154.07407407407408 195.76719576719577,154.2857142857143 195.13227513227514,154.7089947089947 194.4973544973545,154.92063492063494 193.86243386243387,155.13227513227514 193.22751322751324,155.34391534391534 192.5925925925926,155.55555555555557 191.95767195767198,155.978835978836 191.32275132275134,156.1904761904762 190.6878306878307,156.4021164021164 190.05291005291008,156.61375661375664 189.41798941798945,156.82539682539684 188.78306878306879,157.03703703703704 188.14814814814815,157.24867724867727 187.51322751322752,157.46031746031747 186.8783068783069,157.67195767195767 186.24338624338625,157.8835978835979 185.60846560846562,158.0952380952381 184.973544973545,158.30687830687833 184.33862433862436,158.51851851851853 183.70370370370372,158.73015873015873 183.0687830687831,158.94179894179896 182.43386243386246,159.15343915343917 181.79894179894183,159.36507936507937 181.16402116402116,159.5767195767196 180.52910052910053,159.7883597883598 179.8941798941799,159.7883597883598 179.25925925925927,160.0 178.62433862433863,160.0 177.989417989418,160.21164021164023 177.35449735449737,160.42328042328043 176.71957671957674,160.63492063492066 176.0846560846561,160.63492063492066 175.44973544973547,160.84656084656086 174.81481481481484,161.05820105820106 174.1798941798942,161.2698412698413 173.54497354497354,161.2698412698413 172.9100529100529,161.4814814814815 172.27513227513228,161.6931216931217 171.64021164021165,161.6931216931217 171.005291005291,161.90476190476193 170.37037037037038,162.11640211640213 169.73544973544975,162.11640211640213 169.10052910052912,162.32804232804233 168.46560846560848,162.32804232804233 168.04232804232805,162.75132275132276 167.40740740740742,162.75132275132276 166.7724867724868,162.96296296296296 166.13756613756615,162.96296296296296 165.50264550264552,163.1746031746032 164.8677248677249,163.1746031746032 164.23280423280426,163.3862433862434 163.59788359788362,163.3862433862434 162.96296296296296,163.3862433862434 162.32804232804233,163.59788359788362 161.6931216931217,163.59788359788362 161.05820105820106,163.80952380952382 160.42328042328043,163.80952380952382 159.7883597883598,163.80952380952382 159.15343915343917,164.02116402116403 158.51851851851853,164.02116402116403 157.8835978835979,164.02116402116403 157.24867724867727,164.23280423280426 156.61375661375664,164.23280423280426 155.978835978836,164.23280423280426 155.34391534391534,164.23280423280426 154.7089947089947,164.44444444444446 154.07407407407408,164.44444444444446 153.43915343915344,164.44444444444446 152.8042328042328,164.65608465608466 152.16931216931218,164.65608465608466 151.53439153439155,164.65608465608466 150.8994708994709,164.65608465608466 150.26455026455028,164.44444444444446 149.62962962962965,164.44444444444446 148.99470899470901,164.44444444444446 148.35978835978838,164.23280423280426 147.72486772486775,164.02116402116403 147.0899470899471,163.59788359788362 146.45502645502646,163.3862433862434 146.03174603174605,162.96296296296296 145.60846560846562,162.53968253968256 145.1851851851852,162.11640211640213 144.76190476190476,161.4814814814815 144.33862433862436,160.84656084656086 144.12698412698413,160.21164021164023 143.91534391534393,159.5767195767196 143.70370370370372,158.94179894179896 143.4920634920635,158.30687830687833 143.4920634920635,157.67195767195767 143.2804232804233,157.03703703703704 143.2804232804233,156.4021164021164 143.2804232804233,155.76719576719577 143.2804232804233,155.13227513227514 143.2804232804233,154.4973544973545 143.0687830687831,153.86243386243387 143.2804232804233,153.22751322751324 143.2804232804233,152.5925925925926 143.0687830687831,151.95767195767198 143.2804232804233,151.32275132275134 143.2804232804233,150.6878306878307 143.2804232804233,150.05291005291005 143.2804232804233,149.41798941798942 143.2804232804233,148.78306878306879 143.2804232804233,148.14814814814815 143.2804232804233,147.51322751322752 143.0687830687831,146.8783068783069 143.0687830687831,146.24338624338625 143.0687830687831,145.60846560846562 143.0687830687831,144.973544973545 143.0687830687831,144.33862433862436 143.0687830687831,143.70370370370372 142.85714285714286,143.0687830687831 142.85714285714286,142.43386243386246 142.64550264550266,141.7989417989418 142.43386243386246,141.16402116402116 142.22222222222223,140.52910052910053 142.01058201058203,139.8941798941799 141.7989417989418,139.25925925925927 141.5873015873016,138.62433862433863 141.16402116402116,137.989417989418 140.74074074074076,137.35449735449737 140.52910052910053,136.71957671957674 140.10582010582013,136.2962962962963 139.6825396825397,135.66137566137567 139.25925925925927,135.02645502645504 138.83597883597884,134.6031746031746 138.41269841269843,133.96825396825398 137.989417989418,133.54497354497354 137.56613756613757,133.12169312169314 137.14285714285717,132.6984126984127 136.5079365079365,132.27513227513228 135.87301587301587,131.85185185185185 135.23809523809524,131.42857142857144 134.6031746031746,131.21693121693121 134.17989417989418,130.7936507936508 133.54497354497354,130.58201058201058 132.9100529100529,130.58201058201058 132.27513227513228,130.37037037037038 131.64021164021165,130.37037037037038 131.005291005291,130.37037037037038 130.37037037037038,130.37037037037038 129.73544973544975,130.37037037037038 129.10052910052912,130.37037037037038 128.46560846560848,130.37037037037038 127.83068783068784,130.37037037037038 127.1957671957672,130.58201058201058 126.56084656084657,130.58201058201058 125.92592592592594,130.7936507936508 125.2910052910053,131.005291005291 124.65608465608466,131.21693121693121 124.02116402116403,131.42857142857144 123.3862433862434,131.42857142857144 122.75132275132276,131.85185185185185 122.11640211640213,132.06349206349208 121.4814814814815,132.27513227513228 120.84656084656086,132.27513227513228 120.21164021164022,132.6984126984127 119.57671957671958,132.9100529100529 118.94179894179895,133.33333333333334 118.30687830687832,133.54497354497354 117.67195767195768,133.96825396825398 117.03703703703705,134.3915343915344 116.4021164021164,134.6031746031746 115.97883597883599,135.02645502645504 115.34391534391536,135.44973544973547 114.92063492063492,135.87301587301587 114.28571428571429,136.2962962962963 113.86243386243387,136.71957671957674 113.22751322751324,137.14285714285717 112.80423280423281,137.56613756613757 112.3809523809524,137.989417989418 111.95767195767196,138.41269841269843 111.53439153439155,138.83597883597884 111.11111111111111,139.25925925925927 110.6878306878307,139.8941798941799 110.26455026455027,140.31746031746033 109.84126984126985,140.74074074074076 109.41798941798943,141.3756613756614 108.994708994709,142.01058201058203 108.78306878306879,142.64550264550266 108.35978835978837,143.0687830687831 107.93650793650795,143.70370370370372 107.72486772486774,144.33862433862436 107.3015873015873,144.76190476190476 107.0899470899471,145.39682539682542 106.66666666666667,146.03174603174605 106.24338624338625,146.66666666666669 106.24338624338625,147.30158730158732 106.03174603174604,147.93650793650795 105.60846560846562,148.57142857142858 105.3968253968254,149.20634920634922 105.18518518518519,149.84126984126985 104.97354497354497,150.47619047619048 104.97354497354497,151.11111111111111 104.97354497354497,151.74603174603175 104.97354497354497,152.38095238095238 104.97354497354497,153.01587301587304 105.18518518518519,153.65079365079367 105.3968253968254,154.2857142857143 105.3968253968254,154.92063492063494 105.82010582010582,155.34391534391534 106.24338624338625,155.978835978836 106.45502645502647,156.61375661375664 106.87830687830689,157.03703703703704 107.3015873015873,157.67195767195767 107.51322751322752,158.30687830687833 107.93650793650795,158.73015873015873 108.35978835978837,159.36507936507937 108.78306878306879,159.7883597883598 109.20634920634922,160.21164021164023 109.62962962962963,160.63492063492066 110.05291005291006,161.05820105820106 110.47619047619048,161.4814814814815 110.89947089947091,161.90476190476193 111.32275132275133,162.32804232804233 111.95767195767196,162.75132275132276 112.3809523809524,163.1746031746032 113.01587301587303,163.3862433862434 113.65079365079366,163.80952380952382 114.28571428571429,164.23280423280426 114.92063492063492,164.65608465608466 115.55555555555557,164.8677248677249 116.1904761904762,165.2910052910053 116.82539682539684,165.71428571428572 117.46031746031747,166.13756613756615 118.0952380952381,166.56084656084658 118.73015873015873,166.984126984127 119.36507936507937,167.19576719576722 119.7883597883598,167.61904761904762 120.21164021164022,168.04232804232805 120.84656084656086,168.25396825396825 121.26984126984128,168.67724867724868 121.6931216931217,169.10052910052912 122.11640211640213,169.52380952380955 122.53968253968254,169.94708994708995 123.17460317460318,170.37037037037038 123.59788359788361,170.7936507936508 124.02116402116403,171.42857142857144 124.23280423280424,172.06349206349208 124.44444444444446,172.6984126984127 124.65608465608466,173.33333333333334 124.86772486772487,173.96825396825398 124.86772486772487,174.6031746031746 124.65608465608466,175.23809523809524 124.65608465608466,175.87301587301587 124.44444444444446,176.50793650793653 124.23280423280424,177.14285714285717 124.02116402116403,177.7777777777778 123.80952380952382,178.41269841269843 123.59788359788361,179.04761904761907 123.3862433862434,179.6825396825397 122.96296296296298,180.31746031746033 122.75132275132276,180.95238095238096 122.32804232804234,181.5873015873016 122.32804232804234,182.22222222222223 121.90476190476191,182.85714285714286 121.6931216931217,183.4920634920635 121.26984126984128,184.12698412698415 121.05820105820106,184.7619047619048 120.63492063492065,185.39682539682542 120.42328042328043,186.03174603174605 120.00000000000001,186.45502645502646 119.7883597883598,187.08994708994712 119.36507936507937,187.51322751322752 119.15343915343917,188.14814814814815 118.73015873015873,188.78306878306879 118.30687830687832,189.41798941798945 117.88359788359789,189.84126984126985 117.46031746031747,190.47619047619048 117.03703703703705,191.11111111111111 116.61375661375662,191.74603174603175 116.1904761904762,192.3809523809524 115.76719576719577,192.8042328042328 115.34391534391536,193.43915343915344 114.92063492063492,194.07407407407408 114.49735449735451,194.4973544973545 114.07407407407408,194.92063492063494 113.65079365079366,195.55555555555557 113.22751322751324,195.978835978836 112.80423280423281,196.4021164021164 112.3809523809524,196.82539682539684 111.95767195767196,197.24867724867727 111.53439153439155,197.6719576719577 111.11111111111111,198.0952380952381 110.47619047619048,198.30687830687833 110.05291005291006,198.73015873015873 109.62962962962963,199.15343915343917 109.20634920634922,199.5767195767196 108.57142857142858,200.00000000000003 107.93650793650795,200.42328042328043 107.3015873015873,200.84656084656086 106.87830687830689,201.2698412698413 106.24338624338625,201.6931216931217 105.60846560846562,202.11640211640213 104.97354497354497,202.53968253968256 104.55026455026456,202.962962962963 103.91534391534393,203.3862433862434 103.28042328042329,203.80952380952382 102.64550264550266,204.02116402116403 102.22222222222223,204.44444444444446 101.5873015873016,204.8677248677249 100.95238095238096,205.0793650793651 100.31746031746033,205.50264550264552 99.68253968253968,205.92592592592595 99.04761904761905,206.34920634920636 98.41269841269842,206.56084656084658 97.989417989418,206.984126984127 97.35449735449737,207.40740740740742 96.71957671957672,207.61904761904765 96.08465608465609,208.04232804232805 95.44973544973546,208.25396825396828 94.81481481481482,208.67724867724868 94.17989417989419,208.8888888888889 93.54497354497356,209.10052910052912 92.91005291005291,209.52380952380955 92.27513227513228,209.73544973544975 91.64021164021165,209.94708994708995 91.00529100529101,210.37037037037038 90.37037037037038,210.5820105820106 89.73544973544975,210.7936507936508 89.1005291005291,211.005291005291 88.46560846560847,211.21693121693124 87.83068783068784,211.64021164021165 84.86772486772487,212.91005291005294" style="fill:none; stroke:#999900; stroke-width:1.0"  /><polyline points="84.86772486772487,212.91005291005294 82.32804232804233,209.73544973544975 81.90476190476191,209.31216931216932 81.48148148148148,208.67724867724868 81.05820105820106,208.04232804232805 80.63492063492065,207.40740740740742 80.21164021164022,206.984126984127 79.7883597883598,206.34920634920636 79.36507936507937,205.92592592592595 78.94179894179895,205.29100529100532 78.51851851851852,204.8677248677249 78.0952380952381,204.23280423280426 77.67195767195767,203.80952380952382 77.24867724867725,203.3862433862434 76.82539682539684,202.75132275132276 76.4021164021164,202.11640211640213 75.97883597883599,201.6931216931217 75.55555555555556,201.2698412698413 75.13227513227514,200.84656084656086 74.70899470899471,200.42328042328043 74.49735449735451,199.7883597883598 74.07407407407408,199.36507936507937 73.65079365079366,198.94179894179896 73.22751322751323,198.51851851851853 72.80423280423281,198.0952380952381 72.38095238095238,197.6719576719577 71.95767195767196,197.24867724867727 71.53439153439155,196.82539682539684 71.11111111111111,196.4021164021164 70.6878306878307,195.978835978836 70.26455026455027,195.55555555555557 69.84126984126985,195.13227513227514 69.41798941798942,194.70899470899474 68.994708994709,194.2857142857143 68.57142857142858,193.86243386243387 68.14814814814815,193.43915343915344 67.72486772486774,193.01587301587304 67.3015873015873,192.5925925925926 66.87830687830689,192.16931216931218 66.45502645502646,191.74603174603175 65.82010582010582,191.32275132275134 65.18518518518519,190.8994708994709 64.76190476190477,190.47619047619048 64.33862433862434,190.05291005291008 63.91534391534392,189.62962962962965 63.280423280423285,189.41798941798945 62.85714285714286,188.99470899470901 62.43386243386244,188.57142857142858 61.798941798941804,188.14814814814815 61.37566137566138,187.72486772486775 60.952380952380956,187.30158730158732 60.31746031746032,186.8783068783069 59.8941798941799,186.45502645502646 59.25925925925927,186.03174603174605 58.83597883597884,185.60846560846562 58.41269841269842,185.1851851851852 57.989417989417994,184.7619047619048 57.56613756613757,184.33862433862436 56.93121693121694,183.91534391534393 56.50793650793651,183.4920634920635 56.08465608465609,183.0687830687831 55.661375661375665,182.64550264550266 55.23809523809524,182.22222222222223 54.60317460317461,182.01058201058203 54.179894179894184,181.3756613756614 53.75661375661376,180.95238095238096 53.333333333333336,180.52910052910053 52.91005291005291,180.10582010582013 52.48677248677249,179.6825396825397 52.06349206349207,179.04761904761907 51.640211640211646,178.62433862433863 51.21693121693122,178.2010582010582 50.7936507936508,177.7777777777778 50.370370370370374,177.14285714285717 49.94708994708995,176.71957671957674 49.523809523809526,176.2962962962963 49.1005291005291,175.66137566137567 48.677248677248684,175.02645502645504 48.25396825396826,174.6031746031746 47.830687830687836,173.96825396825398 47.40740740740741,173.33333333333334 47.195767195767196,172.6984126984127 46.98412698412699,172.06349206349208 46.77248677248678,171.42857142857144 46.560846560846564,170.7936507936508 46.560846560846564,170.15873015873018 46.349206349206355,169.52380952380955 46.560846560846564,168.8888888888889 46.560846560846564,168.25396825396825 46.98412698412699,167.61904761904762 47.195767195767196,166.984126984127 47.61904761904762,166.56084656084658 48.042328042328045,165.92592592592595 48.46560846560847,165.50264550264552 48.88888888888889,165.0793650793651 49.523809523809526,164.65608465608466 50.158730158730165,164.44444444444446 50.7936507936508,164.02116402116403 51.21693121693122,163.59788359788362 51.851851851851855,163.59788359788362 52.48677248677249,163.3862433862434 53.12169312169313,163.1746031746032 53.75661375661376,162.75132275132276 54.39153439153439,162.75132275132276 55.02645502645503,162.75132275132276 55.661375661375665,162.32804232804233 56.2962962962963,162.32804232804233 56.93121693121694,162.32804232804233 57.56613756613757,161.90476190476193 58.2010582010582,161.6931216931217 58.83597883597884,161.4814814814815 59.470899470899475,161.2698412698413 60.10582010582011,161.05820105820106 60.74074074074075,160.63492063492066 61.37566137566138,160.42328042328043 62.01058201058201,160.21164021164023 62.64550264550265,159.7883597883598 63.280423280423285,159.36507936507937 63.70370370370371,158.94179894179896 64.33862433862434,158.73015873015873 64.76190476190477,158.30687830687833 65.3968253968254,158.0952380952381 65.82010582010582,157.67195767195767 66.45502645502646,157.46031746031747 66.87830687830689,157.03703703703704 67.51322751322752,156.61375661375664 68.14814814814815,156.1904761904762 68.57142857142858,155.76719576719577 68.994708994709,155.34391534391534 69.62962962962963,154.92063492063494 70.05291005291006,154.4973544973545 70.47619047619048,154.07407407407408 70.8994708994709,153.65079365079367 71.32275132275133,153.22751322751324 71.74603174603175,152.5925925925926 72.16931216931218,152.16931216931218 72.5925925925926,151.53439153439155 73.01587301587303,150.8994708994709 73.22751322751323,150.26455026455028 73.65079365079366,149.62962962962965 73.86243386243387,148.99470899470901 74.07407407407408,148.35978835978838 74.28571428571429,147.72486772486775 74.28571428571429,147.0899470899471 74.28571428571429,146.45502645502646 74.49735449735451,145.82010582010582 74.49735449735451,145.1851851851852 74.49735449735451,144.55026455026456 74.49735449735451,143.91534391534393 74.49735449735451,143.2804232804233 74.49735449735451,142.64550264550266 74.28571428571429,142.01058201058203 74.07407407407408,141.3756613756614 73.86243386243387,140.74074074074076 73.65079365079366,140.10582010582013 73.43915343915344,139.47089947089947 73.22751322751323,138.83597883597884 73.01587301587303,138.2010582010582 72.5925925925926,137.56613756613757 72.38095238095238,136.93121693121694 71.95767195767196,136.2962962962963 71.74603174603175,135.66137566137567 71.32275132275133,135.02645502645504 70.8994708994709,134.3915343915344 70.47619047619048,133.75661375661377 70.05291005291006,133.33333333333334 69.84126984126985,132.6984126984127 69.41798941798942,132.27513227513228 68.994708994709,131.64021164021165 68.57142857142858,131.21693121693121 68.14814814814815,130.58201058201058 67.72486772486774,130.15873015873018 67.3015873015873,129.73544973544975 66.87830687830689,129.31216931216932 66.45502645502646,128.88888888888889 66.03174603174604,128.46560846560848 65.60846560846561,128.04232804232805 65.18518518518519,127.61904761904763 64.55026455026456,127.1957671957672 64.12698412698413,126.77248677248679 63.70370370370371,126.34920634920636 63.06878306878308,126.13756613756615 62.43386243386244,125.71428571428572 61.798941798941804,125.2910052910053 61.37566137566138,124.86772486772487 60.74074074074075,124.65608465608466 60.31746031746032,124.23280423280424 59.682539682539684,124.02116402116403 59.04761904761905,123.59788359788361 58.41269841269842,123.3862433862434 57.777777777777786,123.17460317460318 57.142857142857146,122.75132275132276 56.50793650793651,122.53968253968254 55.87301587301588,122.53968253968254 55.23809523809524,122.53968253968254 54.60317460317461,122.32804232804234 53.968253968253975,122.32804232804234 53.333333333333336,122.32804232804234 52.6984126984127,122.53968253968254 52.06349206349207,122.53968253968254 51.42857142857143,122.53968253968254 50.7936507936508,122.75132275132276 50.158730158730165,122.96296296296298 49.523809523809526,123.17460317460318 48.88888888888889,123.3862433862434 48.25396825396826,123.80952380952382 47.61904761904762,124.23280423280424 46.98412698412699,124.65608465608466 46.349206349206355,125.07936507936509 45.92592592592593,125.5026455026455 45.29100529100529,125.92592592592594 44.867724867724874,126.34920634920636 44.44444444444445,126.77248677248679 44.021164021164026,127.1957671957672 43.5978835978836,127.61904761904763 43.17460317460318,128.04232804232805 42.75132275132275,128.46560846560848 42.32804232804233,128.88888888888889 41.904761904761905,129.52380952380955 41.48148148148149,129.94708994708995 41.058201058201064,130.58201058201058 40.63492063492064,131.21693121693121 40.423280423280424,131.85185185185185 40.0,132.27513227513228 39.78835978835979,132.9100529100529 39.36507936507937,133.33333333333334 39.15343915343916,133.96825396825398 38.730158730158735,134.6031746031746 38.30687830687831,135.23809523809524 38.095238095238095,135.87301587301587 37.67195767195768,136.2962962962963 37.46031746031746,136.93121693121694 37.03703703703704,137.56613756613757 36.613756613756614,138.2010582010582 36.19047619047619,138.83597883597884 35.76719576719577,139.47089947089947 35.34391534391535,140.10582010582013 34.920634920634924,140.74074074074076 34.4973544973545,141.3756613756614 34.074074074074076,142.01058201058203 33.65079365079365,142.43386243386246 33.22751322751323,143.0687830687831 32.804232804232804,143.4920634920635 32.38095238095239,143.91534391534393 31.95767195767196,144.33862433862436 31.53439153439154,144.76190476190476 31.111111111111114,145.1851851851852 30.476190476190478,145.60846560846562 29.841269841269842,146.03174603174605 29.20634920634921,146.24338624338625 28.571428571428573,146.45502645502646 27.93650793650794,146.8783068783069 27.301587301587304,146.8783068783069 26.666666666666668,146.8783068783069 26.031746031746035,146.8783068783069 25.3968253968254,146.8783068783069 24.761904761904763,146.66666666666669 24.12698412698413,146.45502645502646 23.492063492063494,146.24338624338625 23.06878306878307,145.82010582010582 22.433862433862437,145.60846560846562 22.010582010582013,145.1851851851852 21.58730158730159,144.76190476190476 21.164021164021165,144.33862433862436 20.740740740740744,143.91534391534393 20.31746031746032,143.2804232804233 19.894179894179896,142.64550264550266 19.47089947089947,142.22222222222223 19.047619047619047,141.5873015873016 18.624338624338627,140.95238095238096 18.201058201058203,140.52910052910053 17.98941798941799,139.8941798941799 17.566137566137566,139.25925925925927 17.142857142857146,138.83597883597884 16.71957671957672,138.2010582010582 16.296296296296298,137.7777777777778 15.873015873015873,137.14285714285717 15.449735449735451,136.5079365079365 15.026455026455027,135.87301587301587 14.603174603174605,135.23809523809524 14.391534391534393,134.6031746031746 13.756613756613758,134.17989417989418 13.333333333333334,133.54497354497354 12.910052910052912,132.9100529100529 12.486772486772487,132.27513227513228 12.063492063492065,131.85185185185185 11.640211640211641,131.21693121693121 11.216931216931219,130.58201058201058 10.793650793650794,129.94708994708995 10.370370370370372,129.31216931216932 9.947089947089948,128.67724867724868 9.523809523809524,128.04232804232805 9.100529100529101,127.40740740740742 8.677248677248677,126.77248677248679 8.253968253968255,126.13756613756615 7.830687830687832,125.5026455026455 7.407407407407408,124.86772486772487 6.984126984126985,124.23280423280424 6.772486772486773,123.59788359788361 6.34920634920635,123.17460317460318 5.9259259259259265,122.53968253968254 5.502645502645503,121.90476190476191 5.07936507936508,121.26984126984128 4.867724867724868,120.63492063492065 4.444444444444445,120.21164021164022 4.021164021164021,119.57671957671958 3.8095238095238098,118.94179894179895 3.3862433862433865,118.30687830687832 2.9629629629629632,117.67195767195768 2.53968253968254,117.03703703703705 2.1164021164021167,116.4021164021164 1.6931216931216932,115.76719576719577 1.4814814814814816,115.13227513227514 0.0,112.5925925925926" style="fill:none; stroke:#00aa99; stroke-width:1.0"  /><polyline points="0.0,112.5925925925926 3.3862433862433865,110.47619047619048 3.8095238095238098,110.05291005291006 4.444444444444445,109.84126984126985 4.867724867724868,109.41798941798943 5.502645502645503,109.20634920634922 5.9259259259259265,108.78306878306879 6.560846560846561,108.35978835978837 6.984126984126985,107.93650793650795 7.6190476190476195,107.72486772486774 8.253968253968255,107.3015873015873 8.88888888888889,106.87830687830689 9.523809523809524,106.45502645502647 10.15873015873016,106.03174603174604 10.793650793650794,105.60846560846562 11.428571428571429,105.18518518518519 12.063492063492065,104.76190476190477 12.6984126984127,104.33862433862434 13.121693121693122,103.91534391534393 13.756613756613758,103.4920634920635 14.17989417989418,103.06878306878308 14.814814814814817,102.64550264550266 15.449735449735451,102.22222222222223 16.084656084656086,101.79894179894181 16.50793650793651,101.37566137566138 16.931216931216934,100.95238095238096 17.566137566137566,100.52910052910053 18.201058201058203,100.10582010582011 18.624338624338627,99.68253968253968 19.25925925925926,99.25925925925927 19.682539682539684,98.83597883597885 20.105820105820108,98.41269841269842 20.740740740740744,97.989417989418 21.164021164021165,97.56613756613757 21.7989417989418,97.14285714285715 22.222222222222225,96.71957671957672 22.645502645502646,96.2962962962963 23.06878306878307,95.87301587301587 23.492063492063494,95.44973544973546 23.915343915343918,95.02645502645504 24.55026455026455,94.60317460317461 24.973544973544975,94.17989417989419 25.3968253968254,93.75661375661376 26.031746031746035,93.54497354497356 26.455026455026456,93.12169312169313 26.87830687830688,92.69841269841271 27.301587301587304,92.27513227513228 27.724867724867728,91.85185185185186 28.14814814814815,91.42857142857143 28.571428571428573,90.7936507936508 28.994708994708997,90.37037037037038 29.629629629629633,89.94708994708995 30.052910052910054,89.52380952380953 30.476190476190478,89.1005291005291 31.111111111111114,88.67724867724868 31.53439153439154,88.25396825396827 31.95767195767196,87.83068783068784 32.592592592592595,87.40740740740742 33.01587301587302,86.98412698412699 33.43915343915344,86.56084656084657 33.86243386243387,86.13756613756614 34.4973544973545,85.71428571428572 34.920634920634924,85.29100529100529 35.34391534391535,84.86772486772487 35.76719576719577,84.44444444444446 36.19047619047619,84.02116402116403 36.82539682539683,83.59788359788361 37.248677248677254,83.17460317460318 37.67195767195768,82.75132275132276 38.30687830687831,82.32804232804233 38.730158730158735,81.90476190476191 39.15343915343916,81.48148148148148 39.78835978835979,81.05820105820106 40.211640211640216,80.63492063492065 40.84656084656085,80.21164021164022 41.48148148148149,79.7883597883598 41.904761904761905,79.36507936507937 42.32804232804233,78.94179894179895 42.96296296296297,78.73015873015873 43.386243386243386,78.30687830687832 44.021164021164026,77.88359788359789 44.44444444444445,77.46031746031747 44.867724867724874,76.82539682539684 45.50264550264551,76.61375661375662 46.13756613756614,76.19047619047619 46.560846560846564,75.76719576719577 47.195767195767196,75.76719576719577 47.830687830687836,75.55555555555556 48.677248677248684,74.92063492063492 49.31216931216932,74.92063492063492 49.94708994708995,74.70899470899471 50.58201058201058,74.49735449735451 51.21693121693122,74.49735449735451 51.851851851851855,74.28571428571429 52.48677248677249,74.28571428571429 53.12169312169313,74.49735449735451 53.75661375661376,74.28571428571429 54.39153439153439,74.49735449735451 55.02645502645503,74.70899470899471 55.661375661375665,75.13227513227514 56.2962962962963,75.55555555555556 56.71957671957672,76.19047619047619 57.142857142857146,76.61375661375662 57.56613756613757,77.24867724867725 57.989417989417994,77.88359788359789 58.2010582010582,78.51851851851852 58.62433862433863,79.15343915343917 58.83597883597884,79.7883597883598 59.04761904761905,80.42328042328043 59.25925925925927,81.05820105820106 59.470899470899475,81.6931216931217 59.8941798941799,82.32804232804233 60.10582010582011,82.96296296296298 60.31746031746032,83.59788359788361 60.52910052910053,84.23280423280424 60.952380952380956,84.86772486772487 61.16402116402117,85.5026455026455 61.58730158730159,86.13756613756614 61.798941798941804,86.77248677248677 62.22222222222223,87.40740740740742 62.64550264550265,88.04232804232805 63.06878306878308,88.46560846560847 63.492063492063494,89.1005291005291 63.91534391534392,89.52380952380953 64.33862433862434,89.94708994708995 64.76190476190477,90.37037037037038 65.18518518518519,90.7936507936508 65.60846560846561,91.21693121693123 66.03174603174604,91.64021164021165 66.66666666666667,92.06349206349208 67.3015873015873,92.4867724867725 67.93650793650794,92.69841269841271 68.57142857142858,92.91005291005291 69.20634920634922,93.33333333333334 69.84126984126985,93.54497354497356 70.47619047619048,93.54497354497356 71.11111111111111,93.54497354497356 71.74603174603175,93.33333333333334 72.38095238095238,93.33333333333334 73.01587301587303,93.12169312169313 73.65079365079366,92.91005291005291 74.28571428571429,92.69841269841271 74.92063492063492,92.27513227513228 75.55555555555556,92.06349206349208 76.19047619047619,91.85185185185186 76.61375661375662,91.42857142857143 77.24867724867725,91.21693121693123 77.88359788359789,90.7936507936508 78.51851851851852,90.37037037037038 78.94179894179895,89.94708994708995 79.57671957671958,89.52380952380953 80.0,89.1005291005291 80.42328042328043,88.67724867724868 81.05820105820106,88.25396825396827 81.48148148148148,87.83068783068784 81.90476190476191,87.40740740740742 82.32804232804233,86.98412698412699 82.75132275132276,86.56084656084657 83.17460317460318,85.92592592592594 83.59788359788361,85.5026455026455 84.02116402116403,84.86772486772487 84.44444444444446,84.44444444444446 84.86772486772487,83.80952380952381 85.29100529100529,83.3862433862434 85.71428571428572,82.75132275132276 86.13756613756614,82.11640211640213 86.56084656084657,81.6931216931217 86.98412698412699,81.05820105820106 87.40740740740742,80.42328042328043 87.83068783068784,79.7883597883598 88.25396825396827,79.15343915343917 88.67724867724868,78.51851851851852 89.1005291005291,77.88359788359789 89.31216931216932,77.24867724867725 89.52380952380953,76.61375661375662 89.94708994708995,76.19047619047619 90.15873015873017,75.55555555555556 90.58201058201058,75.13227513227514 90.7936507936508,74.49735449735451 91.21693121693123,73.86243386243387 91.42857142857143,73.22751322751323 91.85185185185186,72.80423280423281 92.27513227513228,72.16931216931218 92.4867724867725,71.53439153439155 92.91005291005291,70.8994708994709 93.12169312169313,70.26455026455027 93.33333333333334,69.62962962962963 93.75661375661376,68.994708994709 93.96825396825398,68.35978835978837 94.17989417989419,67.72486772486774 94.39153439153439,67.08994708994709 94.60317460317461,66.45502645502646 94.81481481481482,65.82010582010582 95.02645502645504,65.18518518518519 95.23809523809524,64.55026455026456 95.44973544973546,63.91534391534392 95.44973544973546,63.280423280423285 95.66137566137567,62.64550264550265 95.66137566137567,62.01058201058201 95.66137566137567,61.37566137566138 95.66137566137567,60.74074074074075 95.66137566137567,60.10582010582011 95.66137566137567,59.470899470899475 95.44973544973546,58.83597883597884 95.44973544973546,58.2010582010582 95.23809523809524,57.56613756613757 94.81481481481482,56.93121693121694 94.60317460317461,56.2962962962963 94.17989417989419,55.661375661375665 93.75661375661376,55.02645502645503 93.33333333333334,54.60317460317461 92.91005291005291,54.179894179894184 92.27513227513228,53.75661375661376 91.64021164021165,53.333333333333336 91.21693121693123,52.91005291005291 90.58201058201058,52.6984126984127 89.94708994708995,52.27513227513228 89.31216931216932,51.851851851851855 88.67724867724868,51.640211640211646 88.04232804232805,51.42857142857143 87.40740740740742,51.21693121693122 86.77248677248677,51.00529100529101 86.13756613756614,50.7936507936508 85.5026455026455,50.7936507936508 84.86772486772487,50.58201058201058 84.23280423280424,50.370370370370374 83.59788359788361,50.370370370370374 82.96296296296298,50.158730158730165 82.32804232804233,50.158730158730165 81.6931216931217,50.158730158730165 81.05820105820106,49.94708994708995 80.42328042328043,49.94708994708995 79.7883597883598,49.94708994708995 79.15343915343917,49.73544973544974 78.51851851851852,49.73544973544974 77.88359788359789,49.73544973544974 77.24867724867725,49.523809523809526 76.61375661375662,49.523809523809526 75.97883597883599,49.523809523809526 75.34391534391536,49.31216931216932 74.70899470899471,49.31216931216932 74.07407407407408,49.1005291005291 73.43915343915344,48.88888888888889 72.80423280423281,48.88888888888889 72.16931216931218,48.677248677248684 71.53439153439155,48.46560846560847 70.8994708994709,48.25396825396826 70.26455026455027,48.042328042328045 69.62962962962963,47.61904761904762 69.20634920634922,47.195767195767196 68.57142857142858,46.77248677248678 68.14814814814815,46.349206349206355 67.72486772486774,45.714285714285715 67.3015873015873,45.07936507936508 67.08994708994709,44.44444444444445 67.08994708994709,43.80952380952381 66.87830687830689,43.17460317460318 67.08994708994709,42.539682539682545 66.87830687830689,41.904761904761905 67.08994708994709,41.26984126984127 67.3015873015873,40.63492063492064 67.51322751322752,40.0 67.72486772486774,39.36507936507937 68.14814814814815,38.730158730158735 68.57142857142858,38.095238095238095 68.78306878306879,37.46031746031746 69.20634920634922,37.03703703703704 69.41798941798942,36.402116402116405 69.84126984126985,35.97883597883598 70.26455026455027,35.55555555555556 70.47619047619048,34.920634920634924 70.8994708994709,34.4973544973545 71.32275132275133,34.074074074074076 71.74603174603175,33.43915343915344 72.16931216931218,33.01587301587302 72.5925925925926,32.592592592592595 73.01587301587303,32.16931216931217 73.43915343915344,31.53439153439154 73.86243386243387,31.111111111111114 74.28571428571429,30.68783068783069 74.70899470899471,30.264550264550266 75.13227513227514,29.841269841269842 75.55555555555556,29.41798941798942 75.97883597883599,28.783068783068785 76.4021164021164,28.35978835978836 76.82539682539684,27.93650793650794 77.24867724867725,27.513227513227516 77.67195767195767,27.089947089947092 78.0952380952381,26.666666666666668 78.51851851851852,26.243386243386244 78.94179894179895,25.820105820105823 79.36507936507937,25.3968253968254 79.7883597883598,24.973544973544975 80.21164021164022,24.55026455026455 80.63492063492065,24.12698412698413 81.05820105820106,23.703703703703706 81.48148148148148,23.280423280423282 81.90476190476191,22.857142857142858 82.32804232804233,22.433862433862437 82.75132275132276,22.010582010582013 83.17460317460318,21.58730158730159 83.59788359788361,21.164021164021165 84.02116402116403,20.740740740740744 84.65608465608466,20.31746031746032 85.07936507936509,19.894179894179896 85.5026455026455,19.47089947089947 86.13756613756614,19.047619047619047 86.56084656084657,18.624338624338627 86.98412698412699,18.201058201058203 87.40740740740742,17.77777777777778 88.04232804232805,17.354497354497354 88.46560846560847,16.931216931216934 88.8888888888889,16.50793650793651 89.31216931216932,16.084656084656086 89.94708994708995,15.661375661375663 90.37037037037038,15.238095238095239 90.7936507936508,14.814814814814817 91.42857142857143,14.391534391534393 91.85185185185186,13.96825396825397 92.27513227513228,13.544973544973546 92.91005291005291,13.121693121693122 93.33333333333334,12.6984126984127 93.96825396825398,12.275132275132275 94.39153439153439,11.640211640211641 95.02645502645504,11.216931216931219 95.66137566137567,10.793650793650794 96.2962962962963,10.370370370370372 96.71957671957672,9.947089947089948 97.14285714285715,9.523809523809524 97.77777777777779,9.100529100529101 98.2010582010582,8.465608465608467 98.83597883597885,8.042328042328043 99.25925925925927,7.6190476190476195 99.8941798941799,7.195767195767196 100.31746031746033,6.772486772486773 100.74074074074075,6.34920634920635 101.16402116402116,5.9259259259259265 101.79894179894181,5.502645502645503 102.22222222222223,5.07936507936508 102.85714285714286,4.656084656084657 103.28042328042329,4.2328042328042335 103.70370370370371,3.8095238095238098 104.12698412698414,3.3862433862433865 104.55026455026456,2.9629629629629632 104.97354497354497,2.53968253968254 105.3968253968254,2.1164021164021167 108.14814814814815,-0.4232804232804233" style="fill:none; stroke:#3300bb; stroke-width:1.0"  /><circle cx="108.14814814814815" cy="-0.4232804232804233" r="2.0" style="fill:none; stroke:#000000aa; stroke-width:0.25" /><circle cx="207.19576719576722" cy="149.20634920634922" r="2.0" style="fill:none; stroke:#000000aa; stroke-width:0.25" /><circle cx="84.86772486772487" cy="212.91005291005294" r="2.0" style="fill:none; stroke:#000000aa; stroke-width:0.25" /><circle cx="0.0" cy="112.5925925925926" r="2.0" style="fill:none; stroke:#000000aa; stroke-width:0.25" /><circle cx="108.35978835978837" cy="0.21164021164021166" r="2.0" style="fill:none; stroke:#ff3366aa; stroke-width:0.25" /><circle cx="206.984126984127" cy="149.20634920634922" r="2.0" style="fill:none; stroke:#ff3366aa; stroke-width:0.25" /><circle cx="84.44444444444446" cy="212.4867724867725" r="2.0" style="fill:none; stroke:#ff3366aa; stroke-width:0.25" /><circle cx="0.21164021164021166" cy="112.16931216931218" r="2.0" style="fill:none; stroke:#ff3366aa; stroke-width:0.25" /><polyline points="114.92063492063492,9.523809523809524 114.49735449735451,8.88888888888889 114.07407407407408,8.253968253968255 113.65079365079366,7.6190476190476195 113.22751322751324,7.195767195767196 112.80423280423281,6.560846560846561 112.3809523809524,6.137566137566138 112.16931216931218,5.502645502645503 111.74603174603176,4.867724867724868 111.32275132275133,4.444444444444445 110.89947089947091,3.8095238095238098 110.47619047619048,3.3862433862433865 110.26455026455027,2.7513227513227516" style="fill:none; stroke:#001100; stroke-width:1.0" /><polyline points="99.25925925925927,7.6190476190476195 99.8941798941799,7.195767195767196 100.31746031746033,6.772486772486773 100.74074074074075,6.34920634920635 101.16402116402116,5.9259259259259265 101.79894179894181,5.502645502645503 102.22222222222223,5.07936507936508 102.85714285714286,4.656084656084657 103.28042328042329,4.2328042328042335 103.70370370370371,3.8095238095238098 104.12698412698414,3.3862433862433865 104.55026455026456,2.9629629629629632 104.97354497354497,2.53968253968254 105.3968253968254,2.1164021164021167" style="fill:none; stroke:#000011; stroke-width:1.0" /><polyline points="196.4021164021164,154.07407407407408 197.03703703703704,153.86243386243387 197.6719576719577,153.65079365079367 198.30687830687833,153.43915343915344 198.94179894179896,153.01587301587304 199.5767195767196,152.8042328042328 200.21164021164023,152.5925925925926 200.84656084656086,152.16931216931218 201.4814814814815,151.95767195767198 202.11640211640213,151.74603174603175 202.75132275132276,151.53439153439155 203.3862433862434,151.11111111111111 204.02116402116403,150.6878306878307" style="fill:none; stroke:#001100; stroke-width:1.0" /><polyline points="200.21164021164023,139.25925925925927 200.63492063492066,139.8941798941799 201.05820105820106,140.52910052910053 201.4814814814815,141.16402116402116 201.90476190476193,141.7989417989418 202.32804232804233,142.43386243386246 202.53968253968256,143.0687830687831 202.962962962963,143.4920634920635 203.3862433862434,143.91534391534393 203.80952380952382,144.55026455026456 204.02116402116403,145.1851851851852 204.44444444444446,145.60846560846562 204.8677248677249,146.24338624338625 205.29100529100532,146.66666666666669" style="fill:none; stroke:#000011; stroke-width:1.0" /><polyline points="77.24867724867725,203.3862433862434 77.67195767195767,203.80952380952382 78.0952380952381,204.23280423280426 78.51851851851852,204.8677248677249 78.94179894179895,205.29100529100532 79.36507936507937,205.92592592592595 79.7883597883598,206.34920634920636 80.21164021164022,206.984126984127 80.63492063492065,207.40740740740742 81.05820105820106,208.04232804232805 81.48148148148148,208.67724867724868 81.90476190476191,209.31216931216932 82.32804232804233,209.73544973544975" style="fill:none; stroke:#001100; stroke-width:1.0" /><polyline points="95.44973544973546,208.25396825396828 94.81481481481482,208.67724867724868 94.17989417989419,208.8888888888889 93.54497354497356,209.10052910052912 92.91005291005291,209.52380952380955 92.27513227513228,209.73544973544975 91.64021164021165,209.94708994708995 91.00529100529101,210.37037037037038 90.37037037037038,210.5820105820106 89.73544973544975,210.7936507936508 89.1005291005291,211.005291005291 88.46560846560847,211.21693121693124 87.83068783068784,211.64021164021165" style="fill:none; stroke:#000011; stroke-width:1.0" /><polyline points="10.15873015873016,106.03174603174604 9.523809523809524,106.45502645502647 8.88888888888889,106.87830687830689 8.253968253968255,107.3015873015873 7.6190476190476195,107.72486772486774 6.984126984126985,107.93650793650795 6.560846560846561,108.35978835978837 5.9259259259259265,108.78306878306879 5.502645502645503,109.20634920634922 4.867724867724868,109.41798941798943 4.444444444444445,109.84126984126985 3.8095238095238098,110.05291005291006 3.3862433862433865,110.47619047619048" style="fill:none; stroke:#001100; stroke-width:1.0" /><polyline points="5.9259259259259265,122.53968253968254 5.502645502645503,121.90476190476191 5.07936507936508,121.26984126984128 4.867724867724868,120.63492063492065 4.444444444444445,120.21164021164022 4.021164021164021,119.57671957671958 3.8095238095238098,118.94179894179895 3.3862433862433865,118.30687830687832 2.9629629629629632,117.67195767195768 2.53968253968254,117.03703703703705 2.1164021164021167,116.4021164021164 1.6931216931216932,115.76719576719577 1.4814814814814816,115.13227513227514" style="fill:none; stroke:#000011; stroke-width:1.0" /><polyline points="110.26455026455027,2.7513227513227516 98.2010582010582,-14.603174603174605" style="fill:none; stroke:#ffaa00; stroke-width:0.4" /><polyline points="105.3968253968254,2.1164021164021167 121.05820105820106,-12.063492063492065" style="fill:none; stroke:#aaff00; stroke-width:0.4" /><polyline points="204.02116402116403,150.6878306878307 223.2804232804233,142.01058201058203" style="fill:none; stroke:#ffaa00; stroke-width:0.4" /><polyline points="205.29100529100532,146.66666666666669 217.35449735449737,164.02116402116403" style="fill:none; stroke:#aaff00; stroke-width:0.4" /><polyline points="82.32804232804233,209.73544973544975 95.44973544973546,226.24338624338625" style="fill:none; stroke:#ffaa00; stroke-width:0.4" /><polyline points="87.83068783068784,211.64021164021165 68.57142857142858,220.31746031746033" style="fill:none; stroke:#aaff00; stroke-width:0.4" /><polyline points="3.3862433862433865,110.47619047619048 -14.391534391534393,122.11640211640213" style="fill:none; stroke:#ffaa00; stroke-width:0.4" /><polyline points="1.4814814814814816,115.13227513227514 -9.312169312169313,96.93121693121694" style="fill:none; stroke:#aaff00; stroke-width:0.4" /><circle cx="104.97354497354497" cy="111.95767195767196" r="1.0" style="fill:#444444; stroke-width:0" /><circle cx="124.23280423280424" cy="92.4867724867725" r="10.582010582010582" style="fill:#ff770022; stroke-width:0" /><circle cx="124.23280423280424" cy="92.4867724867725" r="1.0" style="fill:#ff7700; stroke-width:0" /></svg>