<?xml version="1.0" encoding="UTF-8" standalone="no"?><svg width="473.01587301587307" height="570.7936507936508" viewBox="-10 -10 177.67195767195767 210.26455026455028" xmlns="http://www.w3.org/2000/svg" xmlns:xlink="http://www.w3.org/1999/xlink"><polyline points="4.2328042328042335,45.07936507936508 8.042328042328043,42.32804232804233 8.677248677248677,41.904761904761905 9.312169312169313,41.48148148148149 9.947089947089948,41.26984126984127 10.370370370370372,40.84656084656085 11.005291005291006,40.423280423280424 11.640211640211641,40.0 12.275132275132275,39.57671957671958 12.6984126984127,39.15343915343916 13.333333333333334,38.730158730158735 13.96825396825397,38.30687830687831 14.391534391534393,37.883597883597886 15.026455026455027,37.46031746031746 15.661375661375663,37.03703703703704 16.084656084656086,36.613756613756614 16.71957671957672,36.19047619047619 17.142857142857146,35.76719576719577 17.77777777777778,35.34391534391535 18.201058201058203,34.920634920634924 18.624338624338627,34.4973544973545 19.047619047619047,34.074074074074076 19.682539682539684,33.65079365079365 20.105820105820108,33.22751322751323 20.740740740740744,32.804232804232804 21.164021164021165,32.38095238095239 21.7989417989418,31.95767195767196 22.433862433862437,31.53439153439154 22.857142857142858,31.111111111111114 23.492063492063494,30.68783068783069 23.915343915343918,30.264550264550266 24.55026455026455,29.841269841269842 24.973544973544975,29.41798941798942 25.60846560846561,28.994708994708997 26.031746031746035,28.571428571428573 26.666666666666668,28.14814814814815 27.301587301587304,27.724867724867728 27.724867724867728,27.301587301587304 28.14814814814815,26.87830687830688 28.571428571428573,26.455026455026456 28.994708994708997,26.031746031746035 29.629629629629633,25.60846560846561 30.052910052910054,25.185185185185187 30.476190476190478,24.761904761904763 31.111111111111114,24.338624338624342 31.53439153439154,23.915343915343918 32.16931216931217,23.492063492063494 32.592592592592595,23.06878306878307 33.22751322751323,22.645502645502646 33.86243386243387,22.222222222222225 34.4973544973545,22.010582010582013 34.920634920634924,21.58730158730159 35.55555555555556,21.375661375661377 35.97883597883598,20.952380952380953 36.613756613756614,20.952380952380953 37.248677248677254,20.529100529100532 37.883597883597886,20.31746031746032 38.51851851851852,20.31746031746032 39.15343915343916,20.105820105820108 39.78835978835979,20.31746031746032 40.423280423280424,20.31746031746032 41.058201058201064,20.31746031746032 41.6931216931217,20.740740740740744 42.32804232804233,20.952380952380953 42.75132275132275,21.375661375661377 43.386243386243386,21.7989417989418 43.80952380952381,22.433862433862437 44.232804232804234,23.06878306878307 44.44444444444445,23.703703703703706 44.65608465608466,24.338624338624342 44.867724867724874,24.973544973544975 45.07936507936508,25.60846560846561 45.07936507936508,26.243386243386244 45.07936507936508,26.87830687830688 45.29100529100529,27.513227513227516 45.07936507936508,28.14814814814815 45.07936507936508,28.783068783068785 44.867724867724874,29.41798941798942 44.867724867724874,30.052910052910054 44.65608465608466,30.68783068783069 44.65608465608466,31.322751322751326 44.44444444444445,31.95767195767196 44.44444444444445,32.592592592592595 44.232804232804234,33.22751322751323 44.232804232804234,33.86243386243387 44.021164021164026,34.4973544973545 44.021164021164026,35.13227513227513 44.232804232804234,35.76719576719577 44.232804232804234,36.402116402116405 44.021164021164026,37.03703703703704 44.021164021164026,37.67195767195768 44.021164021164026,38.30687830687831 44.021164021164026,38.94179894179894 44.021164021164026,39.57671957671958 44.232804232804234,40.211640211640216 44.232804232804234,40.84656084656085 44.232804232804234,41.48148148148149 44.44444444444445,42.11640211640212 44.44444444444445,42.75132275132275 44.65608465608466,43.386243386243386 44.867724867724874,44.021164021164026 45.07936507936508,44.65608465608466 45.50264550264551,45.29100529100529 45.92592592592593,45.92592592592593 46.349206349206355,46.349206349206355 46.77248677248678,46.77248677248678 47.195767195767196,47.195767195767196 47.61904761904762,47.61904761904762 48.042328042328045,48.042328042328045 48.677248677248684,48.46560846560847 49.31216931216932,48.88888888888889 49.94708994708995,49.1005291005291 50.370370370370374,49.523809523809526 51.00529100529101,49.73544973544974 51.640211640211646,49.94708994708995 52.27513227513228,50.370370370370374 52.91005291005291,50.58201058201058 53.54497354497355,50.7936507936508 54.179894179894184,50.7936507936508 54.81481481481482,51.21693121693122 55.449735449735456,51.21693121693122 56.08465608465609,51.42857142857143 56.71957671957672,51.42857142857143 57.35449735449736,51.640211640211646 57.989417989417994,51.640211640211646 58.62433862433863,51.640211640211646 59.25925925925927,51.640211640211646 59.8941798941799,51.640211640211646 60.52910052910053,51.640211640211646 61.16402116402117,51.640211640211646 61.798941798941804,51.21693121693122 62.43386243386244,51.21693121693122 63.06878306878308,51.21693121693122 63.70370370370371,51.00529100529101 64.33862433862434,50.7936507936508 64.97354497354497,50.58201058201058 65.60846560846561,50.370370370370374 66.24338624338625,50.158730158730165 66.87830687830689,49.73544973544974 67.51322751322752,49.523809523809526 68.14814814814815,49.31216931216932 68.78306878306879,48.88888888888889 69.41798941798942,48.677248677248684 70.05291005291006,48.25396825396826 70.6878306878307,48.042328042328045 71.11111111111111,47.61904761904762 71.74603174603175,47.40740740740741 72.16931216931218,46.77248677248678 72.80423280423281,46.349206349206355 73.22751322751323,45.92592592592593 73.65079365079366,45.50264550264551 74.28571428571429,45.07936507936508 74.70899470899471,44.65608465608466 75.13227513227514,44.232804232804234 75.55555555555556,43.80952380952381 75.97883597883599,43.17460317460318 76.4021164021164,42.75132275132275 76.82539682539684,42.11640211640212 77.24867724867725,41.6931216931217 77.67195767195767,41.058201058201064 77.88359788359789,40.423280423280424 78.30687830687832,40.0 78.73015873015873,39.36507936507937 78.94179894179895,38.730158730158735 79.15343915343917,38.095238095238095 79.36507936507937,37.46031746031746 79.7883597883598,36.82539682539683 80.0,36.19047619047619 80.21164021164022,35.55555555555556 80.0,34.920634920634924 80.21164021164022,34.28571428571429 80.21164021164022,33.65079365079365 80.21164021164022,33.01587301587302 80.21164021164022,32.38095238095239 80.21164021164022,31.746031746031747 80.0,31.111111111111114 80.0,30.476190476190478 79.7883597883598,29.841269841269842 79.57671957671958,29.20634920634921 79.36507936507937,28.571428571428573 78.94179894179895,27.93650793650794 78.73015873015873,27.301587301587304 78.30687830687832,26.87830687830688 78.0952380952381,26.243386243386244 77.67195767195767,25.820105820105823 77.24867724867725,25.3968253968254 76.82539682539684,24.761904761904763 76.4021164021164,24.338624338624342 75.97883597883599,23.915343915343918 75.55555555555556,23.280423280423282 74.92063492063492,22.857142857142858 74.49735449735451,22.222222222222225 73.86243386243387,21.7989417989418 73.43915343915344,21.164021164021165 73.01587301587303,20.740740740740744 72.5925925925926,20.105820105820108 72.16931216931218,19.682539682539684 71.53439153439155,19.25925925925926 71.32275132275133,18.624338624338627 70.8994708994709,18.201058201058203 70.6878306878307,17.566137566137566 70.26455026455027,17.142857142857146 70.05291005291006,16.50793650793651 69.84126984126985,15.873015873015873 69.62962962962963,15.238095238095239 69.41798941798942,14.603174603174605 69.41798941798942,13.96825396825397 69.41798941798942,13.333333333333334 69.20634920634922,12.6984126984127 69.41798941798942,12.063492063492065 69.41798941798942,11.428571428571429 69.84126984126985,11.005291005291006 69.84126984126985,10.370370370370372 70.26455026455027,9.947089947089948 70.6878306878307,9.523809523809524 71.11111111111111,9.100529100529101 71.53439153439155,8.677248677248677 71.95767195767196,8.253968253968255 72.38095238095238,7.830687830687832 73.01587301587303,7.407407407407408 73.65079365079366,7.195767195767196 74.28571428571429,6.772486772486773 74.92063492063492,6.560846560846561 75.55555555555556,6.137566137566138 76.19047619047619,6.137566137566138 76.82539682539684,5.714285714285714 77.46031746031747,5.502645502645503 78.0952380952381,5.291005291005291 78.73015873015873,5.07936507936508 79.36507936507937,4.867724867724868 80.0,4.867724867724868 80.63492063492065,4.444444444444445 81.26984126984128,4.444444444444445 81.90476190476191,4.2328042328042335 82.53968253968254,4.021164021164021 83.17460317460318,3.8095238095238098 83.80952380952381,3.3862433862433865 84.44444444444446,3.3862433862433865 85.07936507936509,3.174603174603175 85.71428571428572,2.9629629629629632 86.34920634920636,2.7513227513227516 86.98412698412699,2.53968253968254 87.61904761904762,2.3280423280423284 88.25396825396827,2.1164021164021167 88.8888888888889,2.1164021164021167 89.52380952380953,1.6931216931216932 90.15873015873017,1.6931216931216932 90.58201058201058,1.26984126984127 91.21693121693123,1.26984126984127 91.85185185185186,1.0582010582010584 92.4867724867725,0.8465608465608466 95.87301587301587,-0.21164021164021166" style="fill:none; stroke:#cc0000; stroke-width:1.0"  /><polyline points="95.87301587301587,-0.21164021164021166 97.35449735449737,3.174603174603175 97.77777777777779,3.8095238095238098 97.989417989418,4.444444444444445 98.41269841269842,5.07936507936508 98.62433862433863,5.714285714285714 98.83597883597885,6.34920634920635 99.04761904761905,6.984126984126985 99.25925925925927,7.6190476190476195 99.68253968253968,8.253968253968255 99.8941798941799,8.88888888888889 100.10582010582011,9.523809523809524 100.31746031746033,10.15873015873016 100.74074074074075,10.793650793650794 100.95238095238096,11.428571428571429 101.16402116402116,12.063492063492065 101.5873015873016,12.6984126984127 101.79894179894181,13.333333333333334 102.01058201058201,13.96825396825397 102.22222222222223,14.603174603174605 102.43386243386244,15.238095238095239 102.64550264550266,15.873015873015873 102.85714285714286,16.50793650793651 103.06878306878308,17.142857142857146 103.28042328042329,17.77777777777778 103.4920634920635,18.412698412698415 103.70370370370371,19.047619047619047 103.91534391534393,19.682539682539684 104.12698412698414,20.31746031746032 104.33862433862434,20.952380952380953 104.55026455026456,21.58730158730159 104.76190476190477,22.222222222222225 104.76190476190477,22.857142857142858 104.97354497354497,23.492063492063494 105.18518518518519,24.12698412698413 105.3968253968254,24.761904761904763 105.60846560846562,25.3968253968254 105.82010582010582,26.031746031746035 106.03174603174604,26.666666666666668 106.03174603174604,27.301587301587304 106.24338624338625,27.93650793650794 106.45502645502647,28.571428571428573 106.45502645502647,29.20634920634921 106.66666666666667,29.841269841269842 106.87830687830689,30.476190476190478 107.0899470899471,31.111111111111114 107.0899470899471,31.746031746031747 107.3015873015873,32.38095238095239 107.3015873015873,33.01587301587302 107.51322751322752,33.65079365079365 107.72486772486774,34.28571428571429 107.93650793650795,34.920634920634924 108.35978835978837,35.34391534391535 108.57142857142858,35.97883597883598 108.78306878306879,36.613756613756614 108.994708994709,37.248677248677254 109.20634920634922,37.883597883597886 109.62962962962963,38.51851851851852 110.05291005291006,39.15343915343916 110.47619047619048,39.57671957671958 110.89947089947091,40.0 111.32275132275133,40.423280423280424 111.95767195767196,40.84656084656085 112.5925925925926,41.058201058201064 113.22751322751324,41.26984126984127 113.86243386243387,41.26984126984127 114.49735449735451,41.26984126984127 115.13227513227514,41.26984126984127 115.76719576719577,41.26984126984127 116.4021164021164,41.058201058201064 117.03703703703705,40.84656084656085 117.67195767195768,40.63492063492064 118.30687830687832,40.423280423280424 118.94179894179895,40.0 119.57671957671958,39.57671957671958 120.00000000000001,39.15343915343916 120.42328042328043,38.730158730158735 120.84656084656086,38.30687830687831 121.26984126984128,37.67195767195768 121.6931216931217,37.03703703703704 122.11640211640213,36.402116402116405 122.32804232804234,35.76719576719577 122.75132275132276,35.13227513227513 122.96296296296298,34.4973544973545 123.17460317460318,33.86243386243387 123.3862433862434,33.22751322751323 123.59788359788361,32.592592592592595 123.80952380952382,31.95767195767196 124.02116402116403,31.322751322751326 124.02116402116403,30.68783068783069 124.23280423280424,30.052910052910054 124.65608465608466,29.41798941798942 124.86772486772487,28.783068783068785 125.07936507936509,28.14814814814815 125.2910052910053,27.513227513227516 125.71428571428572,27.089947089947092 125.92592592592594,26.455026455026456 126.34920634920636,26.031746031746035 126.77248677248679,25.3968253968254 127.1957671957672,24.973544973544975 127.61904761904763,24.55026455026455 128.04232804232805,24.12698412698413 128.67724867724868,23.703703703703706 129.31216931216932,23.280423280423282 129.94708994708995,23.06878306878307 130.37037037037038,22.645502645502646 131.005291005291,22.433862433862437 131.64021164021165,22.222222222222225 132.27513227513228,22.010582010582013 132.9100529100529,21.7989417989418 133.54497354497354,21.58730158730159 134.17989417989418,21.58730158730159 134.81481481481484,21.58730158730159 135.44973544973547,21.7989417989418 136.0846560846561,21.7989417989418 136.71957671957674,21.7989417989418 137.35449735449737,22.222222222222225 137.989417989418,22.222222222222225 138.62433862433863,22.433862433862437 139.25925925925927,22.645502645502646 139.8941798941799,23.06878306878307 140.52910052910053,23.492063492063494 140.95238095238096,23.915343915343918 141.5873015873016,24.338624338624342 142.22222222222223,24.55026455026455 142.64550264550266,24.973544973544975 143.0687830687831,25.3968253968254 143.4920634920635,25.820105820105823 143.91534391534393,26.243386243386244 144.33862433862436,26.666666666666668 144.76190476190476,27.089947089947092 145.1851851851852,27.513227513227516 145.60846560846562,28.14814814814815 146.03174603174605,28.571428571428573 146.45502645502646,28.994708994708997 146.8783068783069,29.629629629629633 147.30158730158732,30.264550264550266 147.72486772486775,30.68783068783069 148.14814814814815,31.322751322751326 148.35978835978838,31.95767195767196 148.78306878306879,32.38095238095239 148.99470899470901,33.01587301587302 149.41798941798942,33.43915343915344 149.62962962962965,34.074074074074076 150.05291005291005,34.70899470899471 150.47619047619048,35.13227513227513 150.6878306878307,35.76719576719577 150.8994708994709,36.402116402116405 151.11111111111111,37.03703703703704 151.32275132275134,37.67195767195768 151.74603174603175,38.30687830687831 151.95767195767198,38.94179894179894 152.16931216931218,39.57671957671958 152.38095238095238,40.211640211640216 152.5925925925926,40.84656084656085 152.5925925925926,41.48148148148149 152.8042328042328,42.11640211640212 153.01587301587304,42.75132275132275 153.01587301587304,43.386243386243386 153.01587301587304,44.021164021164026 153.22751322751324,44.65608465608466 153.22751322751324,45.29100529100529 153.22751322751324,45.92592592592593 153.22751322751324,46.560846560846564 153.01587301587304,47.195767195767196 152.8042328042328,47.830687830687836 152.8042328042328,48.46560846560847 152.38095238095238,48.88888888888889 151.95767195767198,49.523809523809526 151.53439153439155,50.158730158730165 151.11111111111111,50.58201058201058 150.6878306878307,51.00529100529101 150.26455026455028,51.42857142857143 149.84126984126985,51.851851851851855 149.20634920634922,52.27513227513228 148.57142857142858,52.48677248677249 147.93650793650795,52.91005291005291 147.30158730158732,53.12169312169313 146.66666666666669,53.333333333333336 146.03174603174605,53.54497354497355 145.39682539682542,53.75661375661376 144.76190476190476,53.968253968253975 144.12698412698413,53.968253968253975 143.4920634920635,54.179894179894184 142.85714285714286,54.179894179894184 142.22222222222223,54.179894179894184 141.5873015873016,54.39153439153439 140.95238095238096,54.39153439153439 140.31746031746033,54.39153439153439 139.6825396825397,54.39153439153439 139.04761904761907,54.179894179894184 138.41269841269843,54.179894179894184 137.7777777777778,53.968253968253975 137.14285714285717,53.968253968253975 136.5079365079365,53.968253968253975 135.87301587301587,53.75661375661376 135.23809523809524,53.968253968253975 134.6031746031746,53.968253968253975 133.96825396825398,53.968253968253975 133.33333333333334,54.179894179894184 132.6984126984127,54.39153439153439 132.06349206349208,54.60317460317461 131.42857142857144,55.02645502645503 130.7936507936508,55.449735449735456 130.15873015873018,55.87301587301588 129.52380952380955,56.2962962962963 129.10052910052912,56.71957671957672 128.67724867724868,57.142857142857146 128.25396825396825,57.56613756613757 127.83068783068784,58.2010582010582 127.40740740740742,58.83597883597884 127.1957671957672,59.470899470899475 126.98412698412699,60.10582010582011 126.77248677248679,60.74074074074075 126.56084656084657,61.37566137566138 126.56084656084657,62.01058201058201 126.56084656084657,62.64550264550265 126.56084656084657,63.280423280423285 126.56084656084657,63.91534391534392 126.77248677248679,64.55026455026456 126.98412698412699,65.18518518518519 127.1957671957672,65.82010582010582 127.40740740740742,66.45502645502646 127.61904761904763,67.08994708994709 127.83068783068784,67.72486772486774 128.25396825396825,68.14814814814815 128.67724867724868,68.78306878306879 128.88888888888889,69.41798941798942 129.31216931216932,69.84126984126985 129.73544973544975,70.26455026455027 130.15873015873018,70.6878306878307 130.58201058201058,71.32275132275133 131.005291005291,71.95767195767196 131.42857142857144,72.38095238095238 131.85185185185185,73.01587301587303 132.27513227513228,73.65079365079366 132.6984126984127,74.28571428571429 133.12169312169314,74.92063492063492 133.54497354497354,75.34391534391536 133.75661375661377,75.97883597883599 134.17989417989418,76.61375661375662 134.6031746031746,77.24867724867725 135.02645502645504,77.67195767195767 135.44973544973547,78.30687830687832 135.87301587301587,78.94179894179895 136.2962962962963,79.57671957671958 136.71957671957674,80.0 137.14285714285717,80.63492063492065 137.56613756613757,81.26984126984128 137.989417989418,81.90476190476191 138.41269841269843,82.53968253968254 138.83597883597884,83.17460317460318 139.04761904761907,83.80952380952381 139.47089947089947,84.23280423280424 139.8941798941799,84.86772486772487 140.31746031746033,85.5026455026455 140.52910052910053,86.13756613756614 140.95238095238096,86.56084656084657 141.16402116402116,87.1957671957672 141.5873015873016,87.61904761904762 142.01058201058203,88.04232804232805 142.22222222222223,88.67724867724868 142.64550264550266,89.31216931216932 143.0687830687831,89.94708994708995 143.4920634920635,90.58201058201058 143.70370370370372,91.21693121693123 144.12698412698413,91.85185185185186 144.55026455026456,92.4867724867725 144.76190476190476,93.12169312169313 145.1851851851852,93.54497354497356 145.39682539682542,94.17989417989419 145.82010582010582,94.81481481481482 146.03174603174605,95.44973544973546 146.45502645502646,96.08465608465609 146.8783068783069,96.71957671957672 147.0899470899471,97.35449735449737 147.51322751322752,97.989417989418 147.72486772486775,98.62433862433863 148.14814814814815,99.25925925925927 148.35978835978838,99.8941798941799 148.78306878306879,100.52910052910053 148.99470899470901,101.16402116402116 149.41798941798942,101.5873015873016 149.62962962962965,102.22222222222223 149.84126984126985,102.85714285714286 150.26455026455028,103.4920634920635 150.6878306878307,104.12698412698414 150.8994708994709,104.76190476190477 151.32275132275134,105.18518518518519 151.74603174603175,105.82010582010582 151.95767195767198,106.45502645502647 152.16931216931218,107.0899470899471 152.5925925925926,107.72486772486774 152.8042328042328,108.35978835978837 153.22751322751324,108.994708994709 153.43915343915344,109.62962962962963 153.65079365079367,110.26455026455027 154.07407407407408,110.89947089947091 154.2857142857143,111.53439153439155 154.7089947089947,112.16931216931218 154.92063492063494,112.80423280423281 155.34391534391534,113.43915343915344 155.55555555555557,114.07407407407408 155.978835978836,114.70899470899472 157.67195767195767,117.88359788359789" style="fill:none; stroke:#999900; stroke-width:1.0"  /><polyline points="157.67195767195767,117.88359788359789 154.4973544973545,119.7883597883598 153.86243386243387,120.21164021164022 153.22751322751324,120.42328042328043 152.5925925925926,120.84656084656086 151.95767195767198,121.05820105820106 151.32275132275134,121.4814814814815 150.6878306878307,121.90476190476191 150.05291005291005,122.32804232804234 149.41798941798942,122.53968253968254 148.99470899470901,122.96296296296298 148.35978835978838,123.17460317460318 147.72486772486775,123.59788359788361 147.0899470899471,124.02116402116403 146.45502645502646,124.44444444444446 145.82010582010582,124.86772486772487 145.1851851851852,125.07936507936509 144.76190476190476,125.5026455026455 144.12698412698413,125.71428571428572 143.70370370370372,126.13756613756615 143.0687830687831,126.56084656084657 142.43386243386246,126.77248677248679 142.01058201058203,127.1957671957672 141.5873015873016,127.61904761904763 141.16402116402116,128.04232804232805 140.52910052910053,128.46560846560848 139.8941798941799,128.88888888888889 139.25925925925927,129.10052910052912 138.83597883597884,129.52380952380955 138.2010582010582,129.94708994708995 137.56613756613757,130.37037037037038 136.93121693121694,130.7936507936508 136.2962962962963,131.005291005291 135.87301587301587,131.42857142857144 135.23809523809524,131.85185185185185 134.6031746031746,132.27513227513228 133.96825396825398,132.6984126984127 133.33333333333334,133.12169312169314 132.6984126984127,133.54497354497354 132.06349206349208,133.96825396825398 131.64021164021165,134.3915343915344 131.005291005291,134.81481481481484 130.58201058201058,135.23809523809524 130.15873015873018,135.66137566137567 129.73544973544975,136.0846560846561 129.31216931216932,136.71957671957674 128.88888888888889,137.35449735449737 128.67724867724868,137.989417989418 128.46560846560848,138.62433862433863 128.46560846560848,139.25925925925927 128.67724867724868,139.8941798941799 128.67724867724868,140.52910052910053 128.67724867724868,141.16402116402116 128.88888888888889,141.7989417989418 129.10052910052912,142.43386243386246 129.52380952380955,143.0687830687831 129.94708994708995,143.70370370370372 130.37037037037038,144.12698412698413 130.7936507936508,144.76190476190476 131.21693121693121,145.1851851851852 131.85185185185185,145.60846560846562 132.27513227513228,146.03174603174605 132.9100529100529,146.45502645502646 133.54497354497354,146.8783068783069 134.17989417989418,147.30158730158732 134.81481481481484,147.51322751322752 135.23809523809524,147.93650793650795 135.87301587301587,148.14814814814815 136.5079365079365,148.57142857142858 137.14285714285717,148.99470899470901 137.7777777777778,149.20634920634922 138.2010582010582,149.62962962962965 138.83597883597884,150.05291005291005 139.47089947089947,150.47619047619048 140.10582010582013,150.6878306878307 140.52910052910053,151.11111111111111 141.16402116402116,151.53439153439155 141.7989417989418,151.95767195767198 142.43386243386246,152.16931216931218 143.0687830687831,152.5925925925926 143.4920634920635,153.01587301587304 144.12698412698413,153.43915343915344 144.76190476190476,153.86243386243387 145.1851851851852,154.2857142857143 145.82010582010582,154.7089947089947 146.24338624338625,155.13227513227514 146.66666666666669,155.55555555555557 147.0899470899471,155.978835978836 147.51322751322752,156.61375661375664 147.93650793650795,157.24867724867727 148.35978835978838,157.8835978835979 148.78306878306879,158.51851851851853 148.99470899470901,159.15343915343917 149.41798941798942,159.7883597883598 149.62962962962965,160.42328042328043 149.84126984126985,161.05820105820106 150.05291005291005,161.6931216931217 150.26455026455028,162.32804232804233 150.47619047619048,162.96296296296296 150.47619047619048,163.59788359788362 150.6878306878307,164.23280423280426 150.47619047619048,164.8677248677249 150.47619047619048,165.50264550264552 150.26455026455028,166.13756613756615 150.26455026455028,166.7724867724868 149.84126984126985,167.40740740740742 149.62962962962965,168.04232804232805 149.20634920634922,168.67724867724868 148.99470899470901,169.31216931216932 148.57142857142858,169.94708994708995 148.14814814814815,170.58201058201058 147.72486772486775,171.21693121693124 147.30158730158732,171.85185185185188 146.8783068783069,172.4867724867725 146.45502645502646,172.9100529100529 146.03174603174605,173.33333333333334 145.60846560846562,173.96825396825398 145.1851851851852,174.3915343915344 144.76190476190476,174.81481481481484 144.33862433862436,175.44973544973547 143.91534391534393,175.87301587301587 143.4920634920635,176.2962962962963 142.85714285714286,176.71957671957674 142.43386243386246,177.14285714285717 142.01058201058203,177.56613756613757 141.5873015873016,177.989417989418 140.95238095238096,178.41269841269843 140.52910052910053,178.83597883597884 139.8941798941799,179.25925925925927 139.25925925925927,179.6825396825397 138.62433862433863,180.10582010582013 137.989417989418,180.31746031746033 137.35449735449737,180.74074074074076 136.71957671957674,180.95238095238096 136.0846560846561,181.3756613756614 135.44973544973547,181.5873015873016 134.81481481481484,181.79894179894183 134.17989417989418,182.01058201058203 133.54497354497354,182.22222222222223 132.9100529100529,182.43386243386246 132.27513227513228,182.64550264550266 131.64021164021165,182.64550264550266 131.005291005291,182.85714285714286 130.37037037037038,182.85714285714286 129.73544973544975,183.0687830687831 129.10052910052912,183.0687830687831 128.46560846560848,183.2804232804233 127.83068783068784,183.2804232804233 127.1957671957672,183.2804232804233 126.56084656084657,183.2804232804233 125.92592592592594,183.2804232804233 125.2910052910053,183.2804232804233 124.65608465608466,183.0687830687831 124.02116402116403,183.0687830687831 123.3862433862434,182.85714285714286 122.75132275132276,182.43386243386246 122.11640211640213,182.22222222222223 121.4814814814815,181.79894179894183 121.05820105820106,181.3756613756614 120.63492063492065,180.95238095238096 120.21164021164022,180.52910052910053 119.7883597883598,179.8941798941799 119.36507936507937,179.25925925925927 119.15343915343917,178.62433862433863 118.94179894179895,177.989417989418 118.51851851851853,177.56613756613757 118.30687830687832,176.93121693121694 118.0952380952381,176.2962962962963 117.88359788359789,175.66137566137567 117.67195767195768,175.02645502645504 117.24867724867725,174.6031746031746 117.24867724867725,173.96825396825398 117.03703703703705,173.33333333333334 116.82539682539684,172.6984126984127 116.61375661375662,172.06349206349208 116.61375661375662,171.42857142857144 116.4021164021164,170.7936507936508 116.1904761904762,170.15873015873018 116.1904761904762,169.52380952380955 116.1904761904762,168.8888888888889 115.97883597883599,168.25396825396825 115.97883597883599,167.61904761904762 115.76719576719577,166.984126984127 115.55555555555557,166.34920634920636 115.55555555555557,165.71428571428572 115.34391534391536,165.0793650793651 115.34391534391536,164.44444444444446 115.13227513227514,163.80952380952382 114.92063492063492,163.1746031746032 114.70899470899472,162.53968253968256 114.49735449735451,161.90476190476193 114.49735449735451,161.2698412698413 114.28571428571429,160.63492063492066 114.07407407407408,160.0 113.86243386243387,159.36507936507937 113.65079365079366,158.73015873015873 113.43915343915344,158.0952380952381 113.22751322751324,157.46031746031747 113.01587301587303,156.82539682539684 112.5925925925926,156.1904761904762 112.3809523809524,155.55555555555557 111.95767195767196,154.92063492063494 111.53439153439155,154.2857142857143 111.11111111111111,153.65079365079367 110.6878306878307,153.01587301587304 110.26455026455027,152.5925925925926 109.84126984126985,152.16931216931218 109.41798941798943,151.74603174603175 108.994708994709,151.32275132275134 108.57142857142858,150.8994708994709 108.14814814814815,150.47619047619048 107.51322751322752,150.05291005291005 106.87830687830689,149.84126984126985 106.24338624338625,149.41798941798942 105.60846560846562,149.20634920634922 105.18518518518519,148.78306878306879 104.55026455026456,148.57142857142858 103.91534391534393,148.35978835978838 103.28042328042329,148.14814814814815 102.64550264550266,148.14814814814815 102.01058201058201,147.93650793650795 101.37566137566138,147.93650793650795 100.74074074074075,147.93650793650795 100.10582010582011,147.93650793650795 99.47089947089948,147.93650793650795 98.83597883597885,147.93650793650795 98.2010582010582,148.14814814814815 97.56613756613757,148.35978835978838 96.93121693121694,148.57142857142858 96.2962962962963,148.99470899470901 95.66137566137567,149.20634920634922 95.02645502645504,149.62962962962965 94.39153439153439,150.05291005291005 93.75661375661376,150.47619047619048 93.12169312169313,150.8994708994709 92.4867724867725,151.32275132275134 92.06349206349208,151.74603174603175 91.42857142857143,152.16931216931218 91.00529100529101,152.5925925925926 90.58201058201058,153.01587301587304 89.94708994708995,153.43915343915344 89.52380952380953,153.86243386243387 88.8888888888889,154.2857142857143 88.46560846560847,154.7089947089947 88.04232804232805,155.13227513227514 87.40740740740742,155.55555555555557 86.98412698412699,155.978835978836 86.56084656084657,156.4021164021164 86.13756613756614,156.82539682539684 85.71428571428572,157.24867724867727 85.07936507936509,157.67195767195767 84.65608465608466,158.0952380952381 84.23280423280424,158.51851851851853 83.80952380952381,159.15343915343917 83.3862433862434,159.5767195767196 82.96296296296298,160.0 82.53968253968254,160.42328042328043 82.11640211640213,160.84656084656086 81.6931216931217,161.4814814814815 81.26984126984128,161.90476190476193 80.84656084656085,162.32804232804233 80.42328042328043,162.75132275132276 80.0,163.3862433862434 79.57671957671958,163.80952380952382 79.15343915343917,164.23280423280426 78.73015873015873,164.65608465608466 78.30687830687832,165.0793650793651 77.88359788359789,165.71428571428572 77.46031746031747,166.13756613756615 77.03703703703704,166.56084656084658 76.61375661375662,166.984126984127 76.19047619047619,167.40740740740742 75.76719576719577,167.83068783068785 75.34391534391536,168.25396825396825 74.92063492063492,168.67724867724868 74.49735449735451,169.10052910052912 74.07407407407408,169.52380952380955 73.43915343915344,169.94708994708995 73.01587301587303,170.37037037037038 72.5925925925926,170.7936507936508 72.16931216931218,171.21693121693124 71.74603174603175,171.85185185185188 71.32275132275133,172.27513227513228 70.8994708994709,172.6984126984127 70.47619047619048,173.12169312169314 69.84126984126985,173.54497354497354 69.41798941798942,173.96825396825398 68.994708994709,174.3915343915344 68.57142857142858,174.81481481481484 68.14814814814815,175.44973544973547 67.72486772486774,175.87301587301587 67.3015873015873,176.2962962962963 66.66666666666667,176.71957671957674 66.24338624338625,177.14285714285717 65.82010582010582,177.56613756613757 65.3968253968254,177.989417989418 64.97354497354497,178.41269841269843 64.33862433862434,178.83597883597884 63.91534391534392,179.25925925925927 63.492063492063494,179.6825396825397 63.06878306878308,180.10582010582013 62.64550264550265,180.52910052910053 62.22222222222223,180.95238095238096 61.58730158730159,181.3756613756614 60.952380952380956,181.79894179894183 60.52910052910053,182.22222222222223 60.10582010582011,182.64550264550266 59.682539682539684,183.0687830687831 59.25925925925927,183.4920634920635 58.83597883597884,183.91534391534393 58.2010582010582,184.33862433862436 57.777777777777786,184.7619047619048 57.35449735449736,185.1851851851852 56.93121693121694,185.60846560846562 56.50793650793651,186.03174603174605 56.08465608465609,186.45502645502646 55.661375661375665,186.8783068783069 55.23809523809524,187.30158730158732 54.81481481481482,187.72486772486775 54.39153439153439,188.14814814814815 51.42857142857143,191.11111111111111" style="fill:none; stroke:#00aa99; stroke-width:1.0"  /><polyline points="51.42857142857143,191.11111111111111 50.370370370370374,186.66666666666669 50.158730158730165,186.03174603174605 49.94708994708995,185.39682539682542 49.94708994708995,184.7619047619048 49.73544973544974,184.12698412698415 49.523809523809526,183.4920634920635 49.523809523809526,182.85714285714286 49.31216931216932,182.22222222222223 49.1005291005291,181.5873015873016 49.1005291005291,180.95238095238096 48.88888888888889,180.31746031746033 48.677248677248684,179.6825396825397 48.677248677248684,179.04761904761907 48.46560846560847,178.41269841269843 48.25396825396826,177.7777777777778 48.25396825396826,177.14285714285717 48.042328042328045,176.50793650793653 47.830687830687836,175.87301587301587 47.61904761904762,175.23809523809524 47.40740740740741,174.6031746031746 47.195767195767196,173.96825396825398 47.195767195767196,173.33333333333334 46.98412698412699,172.6984126984127 46.77248677248678,172.06349206349208 46.77248677248678,171.42857142857144 46.560846560846564,170.7936507936508 46.560846560846564,170.15873015873018 46.349206349206355,169.52380952380955 46.13756613756614,168.8888888888889 46.13756613756614,168.25396825396825 45.92592592592593,167.61904761904762 45.714285714285715,166.984126984127 45.714285714285715,166.34920634920636 45.50264550264551,165.71428571428572 45.50264550264551,165.0793650793651 45.50264550264551,164.44444444444446 45.29100529100529,163.80952380952382 45.29100529100529,163.1746031746032 45.07936507936508,162.53968253968256 44.867724867724874,161.90476190476193 44.867724867724874,161.2698412698413 44.867724867724874,160.63492063492066 44.65608465608466,160.0 44.65608465608466,159.36507936507937 44.65608465608466,158.73015873015873 44.44444444444445,158.0952380952381 44.44444444444445,157.46031746031747 44.232804232804234,156.82539682539684 44.232804232804234,156.1904761904762 44.232804232804234,155.55555555555557 44.021164021164026,154.92063492063494 44.021164021164026,154.2857142857143 44.021164021164026,153.65079365079367 44.021164021164026,153.01587301587304 43.80952380952381,152.38095238095238 43.80952380952381,151.74603174603175 43.80952380952381,151.11111111111111 43.5978835978836,150.47619047619048 43.5978835978836,149.84126984126985 43.5978835978836,149.20634920634922 43.386243386243386,148.57142857142858 43.386243386243386,147.93650793650795 43.386243386243386,147.30158730158732 43.386243386243386,146.66666666666669 43.17460317460318,146.03174603174605 43.17460317460318,145.39682539682542 43.17460317460318,144.76190476190476 43.17460317460318,144.12698412698413 43.17460317460318,143.4920634920635 42.96296296296297,142.85714285714286 42.96296296296297,142.22222222222223 42.96296296296297,141.5873015873016 42.96296296296297,140.95238095238096 42.96296296296297,140.31746031746033 42.75132275132275,139.6825396825397 42.539682539682545,139.04761904761907 42.539682539682545,138.41269841269843 42.539682539682545,137.7777777777778 42.539682539682545,137.14285714285717 42.539682539682545,136.5079365079365 42.539682539682545,135.87301587301587 42.539682539682545,135.23809523809524 42.539682539682545,134.6031746031746 42.539682539682545,133.96825396825398 42.539682539682545,133.33333333333334 42.539682539682545,132.6984126984127 42.539682539682545,132.06349206349208 42.539682539682545,131.42857142857144 42.539682539682545,130.7936507936508 42.539682539682545,130.15873015873018 42.32804232804233,129.52380952380955 42.32804232804233,128.88888888888889 42.11640211640212,128.25396825396825 41.904761904761905,127.61904761904763 41.6931216931217,126.98412698412699 41.48148148148149,126.34920634920636 41.058201058201064,125.71428571428572 40.63492063492064,125.2910052910053 40.211640211640216,124.86772486772487 39.78835978835979,124.44444444444446 39.36507936507937,124.02116402116403 38.730158730158735,123.80952380952382 38.095238095238095,123.59788359788361 37.67195767195768,123.17460317460318 37.03703703703704,123.3862433862434 36.402116402116405,123.17460317460318 35.76719576719577,123.17460317460318 35.13227513227513,123.17460317460318 34.4973544973545,123.3862433862434 33.86243386243387,123.3862433862434 33.22751322751323,123.59788359788361 32.804232804232804,124.02116402116403 32.16931216931217,124.23280423280424 31.53439153439154,124.44444444444446 31.111111111111114,124.86772486772487 30.68783068783069,125.5026455026455 30.264550264550266,126.13756613756615 29.841269841269842,126.56084656084657 29.41798941798942,127.1957671957672 29.20634920634921,127.83068783068784 28.783068783068785,128.46560846560848 28.571428571428573,129.10052910052912 28.14814814814815,129.73544973544975 27.93650793650794,130.37037037037038 27.724867724867728,131.005291005291 27.513227513227516,131.64021164021165 27.301587301587304,132.27513227513228 26.87830687830688,132.9100529100529 26.455026455026456,133.54497354497354 26.031746031746035,134.17989417989418 25.60846560846561,134.6031746031746 25.185185185185187,135.23809523809524 24.761904761904763,135.66137566137567 24.338624338624342,136.0846560846561 23.915343915343918,136.5079365079365 23.280423280423282,136.71957671957674 22.645502645502646,137.14285714285717 22.010582010582013,137.35449735449737 21.375661375661377,137.56613756613757 20.740740740740744,137.56613756613757 20.105820105820108,137.56613756613757 19.47089947089947,137.56613756613757 18.83597883597884,137.56613756613757 18.201058201058203,137.56613756613757 17.566137566137566,137.56613756613757 16.931216931216934,137.35449735449737 16.296296296296298,137.35449735449737 15.661375661375663,137.14285714285717 15.026455026455027,137.14285714285717 14.391534391534393,136.93121693121694 13.756613756613758,136.71957671957674 13.121693121693122,136.5079365079365 12.486772486772487,136.2962962962963 11.851851851851853,135.87301587301587 11.216931216931219,135.44973544973547 10.582010582010582,135.23809523809524 10.15873015873016,134.81481481481484 9.523809523809524,134.3915343915344 9.100529100529101,133.96825396825398 8.677248677248677,133.54497354497354 8.253968253968255,133.12169312169314 7.830687830687832,132.6984126984127 7.407407407407408,132.27513227513228 6.984126984126985,131.64021164021165 6.560846560846561,131.21693121693121 6.137566137566138,130.58201058201058 5.714285714285714,130.15873015873018 5.291005291005291,129.52380952380955 4.867724867724868,128.88888888888889 4.444444444444445,128.25396825396825 4.021164021164021,127.61904761904763 3.597883597883598,126.98412698412699 3.3862433862433865,126.34920634920636 2.9629629629629632,125.71428571428572 2.7513227513227516,125.07936507936509 2.3280423280423284,124.44444444444446 2.3280423280423284,123.80952380952382 1.9047619047619049,123.3862433862434 1.6931216931216932,122.75132275132276 1.4814814814814816,122.11640211640213 1.26984126984127,121.4814814814815 1.0582010582010584,120.84656084656086 0.8465608465608466,120.21164021164022 0.8465608465608466,119.57671957671958 0.8465608465608466,118.94179894179895 0.634920634920635,118.30687830687832 0.4232804232804233,117.67195767195768 0.4232804232804233,117.03703703703705 0.21164021164021166,116.4021164021164 0.21164021164021166,115.76719576719577 0.21164021164021166,115.13227513227514 0.21164021164021166,114.49735449735451 0.21164021164021166,113.86243386243387 0.21164021164021166,113.22751322751324 0.21164021164021166,112.5925925925926 0.4232804232804233,111.95767195767196 0.634920634920635,111.32275132275133 0.8465608465608466,110.6878306878307 1.0582010582010584,110.05291005291006 1.26984126984127,109.41798941798943 1.6931216931216932,108.78306878306879 1.9047619047619049,108.14814814814815 2.1164021164021167,107.51322751322752 2.53968253968254,107.0899470899471 2.9629629629629632,106.45502645502647 3.3862433862433865,106.03174603174604 3.8095238095238098,105.3968253968254 4.2328042328042335,104.76190476190477 4.656084656084657,104.33862433862434 5.291005291005291,103.91534391534393 5.714285714285714,103.4920634920635 6.34920634920635,103.28042328042329 6.984126984126985,103.06878306878308 7.6190476190476195,102.64550264550266 8.253968253968255,102.43386243386244 8.88888888888889,102.43386243386244 9.312169312169313,102.01058201058201 9.947089947089948,102.01058201058201 10.582010582010582,102.01058201058201 11.216931216931219,101.79894179894181 11.851851851851853,101.5873015873016 12.486772486772487,101.79894179894181 13.121693121693122,101.79894179894181 13.756613756613758,102.01058201058201 14.391534391534393,102.01058201058201 15.026455026455027,102.22222222222223 15.661375661375663,102.22222222222223 16.296296296296298,102.43386243386244 16.931216931216934,102.43386243386244 17.566137566137566,102.64550264550266 18.201058201058203,102.85714285714286 18.83597883597884,103.06878306878308 19.47089947089947,103.06878306878308 20.105820105820108,103.06878306878308 20.740740740740744,103.28042328042329 21.375661375661377,103.4920634920635 22.010582010582013,103.4920634920635 22.645502645502646,103.70370370370371 23.280423280423282,103.70370370370371 23.915343915343918,103.4920634920635 24.55026455026455,103.70370370370371 25.185185185185187,103.70370370370371 25.820105820105823,103.70370370370371 26.455026455026456,103.4920634920635 27.089947089947092,103.28042328042329 27.724867724867728,103.06878306878308 28.35978835978836,102.64550264550266 28.994708994708997,102.22222222222223 29.41798941798942,101.79894179894181 29.841269841269842,101.37566137566138 30.264550264550266,100.74074074074075 30.476190476190478,100.10582010582011 30.68783068783069,99.47089947089948 30.899470899470902,98.83597883597885 30.899470899470902,98.2010582010582 30.899470899470902,97.56613756613757 30.899470899470902,96.93121693121694 30.68783068783069,96.2962962962963 30.476190476190478,95.66137566137567 30.476190476190478,95.02645502645504 30.264550264550266,94.39153439153439 29.841269841269842,93.75661375661376 29.629629629629633,93.12169312169313 29.41798941798942,92.4867724867725 28.994708994708997,91.85185185185186 28.783068783068785,91.21693121693123 28.571428571428573,90.58201058201058 28.14814814814815,89.94708994708995 27.93650793650794,89.31216931216932 27.724867724867728,88.67724867724868 27.301587301587304,88.04232804232805 27.089947089947092,87.40740740740742 26.666666666666668,86.77248677248677 26.455026455026456,86.13756613756614 26.031746031746035,85.5026455026455 25.820105820105823,84.86772486772487 25.3968253968254,84.23280423280424 25.185185185185187,83.59788359788361 24.761904761904763,82.96296296296298 24.55026455026455,82.32804232804233 24.12698412698413,81.6931216931217 23.703703703703706,81.05820105820106 23.492063492063494,80.42328042328043 23.06878306878307,79.7883597883598 22.857142857142858,79.15343915343917 22.433862433862437,78.51851851851852 22.010582010582013,77.88359788359789 21.7989417989418,77.24867724867725 21.375661375661377,76.61375661375662 21.164021164021165,75.97883597883599 20.740740740740744,75.34391534391536 20.529100529100532,74.70899470899471 20.105820105820108,74.07407407407408 19.682539682539684,73.43915343915344 19.47089947089947,72.80423280423281 19.047619047619047,72.16931216931218 18.83597883597884,71.53439153439155 18.412698412698415,70.8994708994709 17.98941798941799,70.26455026455027 17.566137566137566,69.62962962962963 17.142857142857146,68.994708994709 16.931216931216934,68.35978835978837 16.50793650793651,67.72486772486774 16.084656084656086,67.08994708994709 15.873015873015873,66.45502645502646 15.661375661375663,65.82010582010582 15.449735449735451,65.18518518518519 15.026455026455027,64.55026455026456 14.814814814814817,63.91534391534392 14.391534391534393,63.280423280423285 13.96825396825397,62.64550264550265 13.756613756613758,62.01058201058201 13.333333333333334,61.37566137566138 13.121693121693122,60.74074074074075 12.6984126984127,60.10582010582011 12.486772486772487,59.470899470899475 12.063492063492065,59.04761904761905 11.851851851851853,58.41269841269842 11.428571428571429,57.777777777777786 11.005291005291006,57.142857142857146 10.793650793650794,56.50793650793651 10.370370370370372,55.87301587301588 9.947089947089948,55.23809523809524 9.735449735449736,54.60317460317461 9.523809523809524,53.968253968253975 9.100529100529101,53.54497354497355 8.88888888888889,52.91005291005291 8.465608465608467,52.48677248677249 8.253968253968255,51.851851851851855 7.830687830687832,51.21693121693122 7.407407407407408,50.58201058201058 7.195767195767196,49.94708994708995 6.772486772486773,49.31216931216932 6.34920634920635,48.677248677248684 5.9259259259259265,48.042328042328045 5.502645502645503,47.40740740740741 4.2328042328042335,45.07936507936508" style="fill:none; stroke:#3300bb; stroke-width:1.0"  /><circle cx="4.2328042328042335" cy="45.07936507936508" r="2.0" style="fill:none; stroke:#000000aa; stroke-width:0.25" /><circle cx="95.87301587301587" cy="-0.21164021164021166" r="2.0" style="fill:none; stroke:#000000aa; stroke-width:0.25" /><circle cx="157.67195767195767" cy="117.88359788359789" r="2.0" style="fill:none; stroke:#000000aa; stroke-width:0.25" /><circle cx="51.42857142857143" cy="191.11111111111111" r="2.0" style="fill:none; stroke:#000000aa; stroke-width:0.25" /><circle cx="5.07936507936508" cy="44.44444444444445" r="2.0" style="fill:none; stroke:#ff3366aa; stroke-width:0.25" /><circle cx="95.87301587301587" cy="0.21164021164021166" r="2.0" style="fill:none; stroke:#ff3366aa; stroke-width:0.25" /><circle cx="157.24867724867727" cy="117.88359788359789" r="2.0" style="fill:none; stroke:#ff3366aa; stroke-width:0.25" /><circle cx="51.21693121693122" cy="189.84126984126985" r="2.0" style="fill:none; stroke:#ff3366aa; stroke-width:0.25" /><polyline points="14.391534391534393,37.883597883597886 13.96825396825397,38.30687830687831 13.333333333333334,38.730158730158735 12.6984126984127,39.15343915343916 12.275132275132275,39.57671957671958 11.640211640211641,40.0 11.005291005291006,40.423280423280424 10.370370370370372,40.84656084656085 9.947089947089948,41.26984126984127 9.312169312169313,41.48148148148149 8.677248677248677,41.904761904761905 8.042328042328043,42.32804232804233" style="fill:none; stroke:#001100; stroke-width:1.0" /><polyline points="9.947089947089948,55.23809523809524 9.735449735449736,54.60317460317461 9.523809523809524,53.968253968253975 9.100529100529101,53.54497354497355 8.88888888888889,52.91005291005291 8.465608465608467,52.48677248677249 8.253968253968255,51.851851851851855 7.830687830687832,51.21693121693122 7.407407407407408,50.58201058201058 7.195767195767196,49.94708994708995 6.772486772486773,49.31216931216932 6.34920634920635,48.677248677248684 5.9259259259259265,48.042328042328045 5.502645502645503,47.40740740740741" style="fill:none; stroke:#000011; stroke-width:1.0" /><polyline points="100.74074074074075,10.793650793650794 100.31746031746033,10.15873015873016 100.10582010582011,9.523809523809524 99.8941798941799,8.88888888888889 99.68253968253968,8.253968253968255 99.25925925925927,7.6190476190476195 99.04761904761905,6.984126984126985 98.83597883597885,6.34920634920635 98.62433862433863,5.714285714285714 98.41269841269842,5.07936507936508 97.989417989418,4.444444444444445 97.77777777777779,3.8095238095238098 97.35449735449737,3.174603174603175" style="fill:none; stroke:#001100; stroke-width:1.0" /><polyline points="84.44444444444446,3.3862433862433865 85.07936507936509,3.174603174603175 85.71428571428572,2.9629629629629632 86.34920634920636,2.7513227513227516 86.98412698412699,2.53968253968254 87.61904761904762,2.3280423280423284 88.25396825396827,2.1164021164021167 88.8888888888889,2.1164021164021167 89.52380952380953,1.6931216931216932 90.15873015873017,1.6931216931216932 90.58201058201058,1.26984126984127 91.21693121693123,1.26984126984127 91.85185185185186,1.0582010582010584 92.4867724867725,0.8465608465608466" style="fill:none; stroke:#000011; stroke-width:1.0" /><polyline points="147.0899470899471,124.02116402116403 147.72486772486775,123.59788359788361 148.35978835978838,123.17460317460318 148.99470899470901,122.96296296296298 149.41798941798942,122.53968253968254 150.05291005291005,122.32804232804234 150.6878306878307,121.90476190476191 151.32275132275134,121.4814814814815 151.95767195767198,121.05820105820106 152.5925925925926,120.84656084656086 153.22751322751324,120.42328042328043 153.86243386243387,120.21164021164022 154.4973544973545,119.7883597883598" style="fill:none; stroke:#001100; stroke-width:1.0" /><polyline points="152.16931216931218,107.0899470899471 152.5925925925926,107.72486772486774 152.8042328042328,108.35978835978837 153.22751322751324,108.994708994709 153.43915343915344,109.62962962962963 153.65079365079367,110.26455026455027 154.07407407407408,110.89947089947091 154.2857142857143,111.53439153439155 154.7089947089947,112.16931216931218 154.92063492063494,112.80423280423281 155.34391534391534,113.43915343915344 155.55555555555557,114.07407407407408 155.978835978836,114.70899470899472" style="fill:none; stroke:#000011; stroke-width:1.0" /><polyline points="48.46560846560847,178.41269841269843 48.677248677248684,179.04761904761907 48.677248677248684,179.6825396825397 48.88888888888889,180.31746031746033 49.1005291005291,180.95238095238096 49.1005291005291,181.5873015873016 49.31216931216932,182.22222222222223 49.523809523809526,182.85714285714286 49.523809523809526,183.4920634920635 49.73544973544974,184.12698412698415 49.94708994708995,184.7619047619048 49.94708994708995,185.39682539682542 50.158730158730165,186.03174603174605 50.370370370370374,186.66666666666669" style="fill:none; stroke:#001100; stroke-width:1.0" /><polyline points="60.52910052910053,182.22222222222223 60.10582010582011,182.64550264550266 59.682539682539684,183.0687830687831 59.25925925925927,183.4920634920635 58.83597883597884,183.91534391534393 58.2010582010582,184.33862433862436 57.777777777777786,184.7619047619048 57.35449735449736,185.1851851851852 56.93121693121694,185.60846560846562 56.50793650793651,186.03174603174605 56.08465608465609,186.45502645502646 55.661375661375665,186.8783068783069 55.23809523809524,187.30158730158732 54.81481481481482,187.72486772486775 54.39153439153439,188.14814814814815" style="fill:none; stroke:#000011; stroke-width:1.0" /><polyline points="8.042328042328043,42.32804232804233 -9.312169312169313,54.39153439153439" style="fill:none; stroke:#ffaa00; stroke-width:0.4" /><polyline points="5.502645502645503,47.40740740740741 -4.867724867724868,28.994708994708997" style="fill:none; stroke:#aaff00; stroke-width:0.4" /><polyline points="97.35449735449737,3.174603174603175 88.67724867724868,-16.084656084656086" style="fill:none; stroke:#ffaa00; stroke-width:0.4" /><polyline points="92.4867724867725,0.8465608465608466 112.5925925925926,-5.502645502645503" style="fill:none; stroke:#aaff00; stroke-width:0.4" /><polyline points="154.4973544973545,119.7883597883598 172.9100529100529,109.20634920634922" style="fill:none; stroke:#ffaa00; stroke-width:0.4" /><polyline points="155.978835978836,114.70899470899472 165.50264550264552,133.54497354497354" style="fill:none; stroke:#aaff00; stroke-width:0.4" /><polyline points="50.370370370370374,186.66666666666669 55.02645502645503,207.19576719576722" style="fill:none; stroke:#ffaa00; stroke-width:0.4" /><polyline points="54.39153439153439,188.14814814814815 39.15343915343916,202.75132275132276" style="fill:none; stroke:#aaff00; stroke-width:0.4" /><circle cx="82.32804232804233" cy="95.23809523809524" r="1.0" style="fill:#444444; stroke-width:0" /><circle cx="85.29100529100529" cy="98.2010582010582" r="10.582010582010582" style="fill:#ff770022; stroke-width:0" /><circle cx="85.29100529100529" cy="98.2010582010582" r="1.0" style="fill:#ff7700; stroke-width:0" /></svg>