<?xml version="1.0" encoding="UTF-8" standalone="no"?><svg width="553.6507936507937" height="602.5396825396825" viewBox="-10 -10 204.55026455026456 220.84656084656086" xmlns="http://www.w3.org/2000/svg" xmlns:xlink="http://www.w3.org/1999/xlink"><polyline points="123.3862433862434,-0.4232804232804233 125.92592592592594,2.53968253968254 126.34920634920636,2.9629629629629632 126.77248677248679,3.3862433862433865 127.1957671957672,4.021164021164021 127.61904761904763,4.444444444444445 128.04232804232805,4.867724867724868 128.46560846560848,5.502645502645503 128.88888888888889,5.9259259259259265 129.31216931216932,6.34920634920635 129.73544973544975,6.772486772486773 130.15873015873018,7.407407407407408 130.58201058201058,7.830687830687832 131.005291005291,8.253968253968255 131.42857142857144,8.88888888888889 131.85185185185185,9.312169312169313 132.27513227513228,9.947089947089948 132.6984126984127,10.370370370370372 133.12169312169314,11.005291005291006 133.54497354497354,11.640211640211641 133.96825396825398,12.063492063492065 134.3915343915344,12.6984126984127 134.6031746031746,13.333333333333334 135.02645502645504,13.756613756613758 135.44973544973547,14.391534391534393 135.87301587301587,15.026455026455027 136.2962962962963,15.661375661375663 136.71957671957674,16.296296296296298 137.14285714285717,16.931216931216934 137.35449735449737,17.566137566137566 137.7777777777778,17.98941798941799 138.2010582010582,18.624338624338627 138.41269841269843,19.25925925925926 138.83597883597884,19.682539682539684 139.04761904761907,20.31746031746032 139.47089947089947,20.952380952380953 139.8941798941799,21.375661375661377 140.31746031746033,21.7989417989418 140.74074074074076,22.222222222222225 141.16402116402116,22.645502645502646 141.7989417989418,23.06878306878307 142.22222222222223,23.492063492063494 142.85714285714286,23.915343915343918 143.4920634920635,24.12698412698413 144.12698412698413,24.55026455026455 144.76190476190476,24.55026455026455 145.39682539682542,24.761904761904763 146.03174603174605,24.761904761904763 146.66666666666669,24.973544973544975 147.30158730158732,24.973544973544975 147.93650793650795,24.973544973544975 148.57142857142858,24.55026455026455 149.20634920634922,24.338624338624342 149.84126984126985,24.12698412698413 150.47619047619048,23.915343915343918 151.11111111111111,23.492063492063494 151.74603174603175,23.06878306878307 152.16931216931218,22.645502645502646 152.5925925925926,22.222222222222225 153.01587301587304,21.58730158730159 153.43915343915344,20.952380952380953 153.86243386243387,20.529100529100532 154.07407407407408,19.894179894179896 154.4973544973545,19.25925925925926 154.7089947089947,18.624338624338627 154.7089947089947,17.98941798941799 154.92063492063494,17.354497354497354 155.13227513227514,16.71957671957672 155.13227513227514,16.084656084656086 155.34391534391534,15.449735449735451 155.34391534391534,14.814814814814817 155.76719576719577,14.17989417989418 155.76719576719577,13.544973544973546 155.978835978836,12.910052910052912 156.1904761904762,12.275132275132275 156.4021164021164,11.640211640211641 156.61375661375664,11.005291005291006 156.82539682539684,10.370370370370372 157.03703703703704,9.735449735449736 157.46031746031747,9.100529100529101 157.46031746031747,8.465608465608467 157.8835978835979,8.042328042328043 158.30687830687833,7.6190476190476195 158.73015873015873,6.984126984126985 159.15343915343917,6.34920634920635 159.5767195767196,5.714285714285714 160.0,5.07936507936508 160.42328042328043,4.656084656084657 161.05820105820106,4.2328042328042335 161.4814814814815,3.8095238095238098 161.90476190476193,3.3862433862433865 162.32804232804233,2.9629629629629632 162.96296296296296,2.7513227513227516 163.59788359788362,2.3280423280423284 164.23280423280426,2.1164021164021167 164.8677248677249,2.1164021164021167 165.50264550264552,2.1164021164021167 166.13756613756615,2.3280423280423284 166.7724867724868,2.3280423280423284 167.40740740740742,2.3280423280423284 168.04232804232805,2.53968253968254 168.67724867724868,2.53968253968254 169.31216931216932,2.7513227513227516 169.94708994708995,2.9629629629629632 170.58201058201058,2.9629629629629632 171.21693121693124,3.174603174603175 171.85185185185188,3.3862433862433865 172.4867724867725,3.597883597883598 173.12169312169314,3.597883597883598 173.75661375661377,4.021164021164021 174.3915343915344,4.2328042328042335 175.02645502645504,4.444444444444445 175.66137566137567,4.867724867724868 176.2962962962963,5.291005291005291 176.93121693121694,5.502645502645503 177.35449735449737,5.9259259259259265 177.989417989418,6.34920634920635 178.62433862433863,6.772486772486773 179.04761904761907,7.195767195767196 179.6825396825397,7.6190476190476195 180.10582010582013,8.042328042328043 180.52910052910053,8.465608465608467 180.95238095238096,8.88888888888889 181.3756613756614,9.312169312169313 181.79894179894183,9.947089947089948 182.22222222222223,10.370370370370372 182.64550264550266,11.005291005291006 183.0687830687831,11.640211640211641 183.4920634920635,12.275132275132275 183.70370370370372,12.910052910052912 183.91534391534393,13.544973544973546 184.12698412698415,14.17989417989418 184.12698412698415,14.814814814814817 184.12698412698415,15.449735449735451 184.12698412698415,16.084656084656086 184.12698412698415,16.71957671957672 183.91534391534393,17.354497354497354 183.70370370370372,17.98941798941799 183.4920634920635,18.624338624338627 183.2804232804233,19.25925925925926 183.0687830687831,19.894179894179896 182.85714285714286,20.529100529100532 182.43386243386246,21.164021164021165 182.01058201058203,21.7989417989418 181.5873015873016,22.433862433862437 181.16402116402116,23.06878306878307 180.74074074074076,23.703703703703706 180.31746031746033,24.12698412698413 179.8941798941799,24.55026455026455 179.4708994708995,24.973544973544975 179.04761904761907,25.3968253968254 178.62433862433863,25.820105820105823 178.2010582010582,26.243386243386244 177.56613756613757,26.666666666666668 176.93121693121694,27.089947089947092 176.2962962962963,27.301587301587304 175.66137566137567,27.513227513227516 175.02645502645504,27.93650793650794 174.3915343915344,28.14814814814815 173.75661375661377,28.35978835978836 173.12169312169314,28.783068783068785 172.4867724867725,28.994708994708997 171.85185185185188,29.20634920634921 171.21693121693124,29.629629629629633 170.58201058201058,29.841269841269842 169.94708994708995,30.052910052910054 169.52380952380955,30.476190476190478 168.8888888888889,30.68783068783069 168.25396825396825,31.111111111111114 167.61904761904762,31.53439153439154 167.19576719576722,31.95767195767196 166.56084656084658,32.38095238095239 166.13756613756615,32.804232804232804 165.92592592592595,33.43915343915344 165.50264550264552,33.86243386243387 165.0793650793651,34.4973544973545 164.8677248677249,35.13227513227513 164.44444444444446,35.76719576719577 164.23280423280426,36.402116402116405 164.23280423280426,37.03703703703704 164.02116402116403,37.67195767195768 164.02116402116403,38.30687830687831 164.02116402116403,38.94179894179894 164.02116402116403,39.57671957671958 164.02116402116403,40.211640211640216 164.23280423280426,40.84656084656085 164.44444444444446,41.48148148148149 164.44444444444446,42.11640211640212 164.65608465608466,42.75132275132275 165.0793650793651,43.386243386243386 165.2910052910053,44.021164021164026 165.71428571428572,44.65608465608466 166.13756613756615,45.29100529100529 166.56084656084658,45.714285714285715 166.984126984127,46.349206349206355 167.40740740740742,46.77248677248678 167.83068783068785,47.195767195767196 168.25396825396825,47.830687830687836 168.67724867724868,48.25396825396826 169.10052910052912,48.677248677248684 169.52380952380955,49.31216931216932 169.94708994708995,49.73544973544974 170.37037037037038,50.370370370370374 170.7936507936508,50.7936507936508 171.21693121693124,51.21693121693122 171.64021164021165,51.640211640211646 172.06349206349208,52.06349206349207 172.4867724867725,52.6984126984127 172.9100529100529,53.12169312169313 173.33333333333334,53.75661375661376 173.75661375661377,54.179894179894184 174.1798941798942,54.60317460317461 174.6031746031746,55.02645502645503 175.02645502645504,55.449735449735456 175.44973544973547,56.08465608465609 175.87301587301587,56.50793650793651 176.2962962962963,56.93121693121694 176.71957671957674,57.35449735449736 177.14285714285717,57.777777777777786 179.6825396825397,60.52910052910053" style="fill:none; stroke:#cc0000; stroke-width:1.0"  /><polyline points="179.6825396825397,60.52910052910053 178.41269841269843,63.492063492063494 177.989417989418,64.12698412698413 177.7777777777778,64.76190476190477 177.56613756613757,65.3968253968254 177.14285714285717,66.03174603174604 176.93121693121694,66.66666666666667 176.50793650793653,67.3015873015873 176.2962962962963,67.93650793650794 176.2962962962963,68.57142857142858 175.87301587301587,69.20634920634922 175.66137566137567,69.84126984126985 175.44973544973547,70.47619047619048 175.02645502645504,71.11111111111111 174.81481481481484,71.74603174603175 174.3915343915344,72.38095238095238 174.1798941798942,73.01587301587303 173.96825396825398,73.65079365079366 173.54497354497354,74.28571428571429 173.33333333333334,74.92063492063492 173.12169312169314,75.55555555555556 172.6984126984127,76.19047619047619 172.4867724867725,76.82539682539684 172.27513227513228,77.46031746031747 171.85185185185188,78.0952380952381 171.64021164021165,78.73015873015873 171.21693121693124,79.36507936507937 171.005291005291,80.0 170.7936507936508,80.63492063492065 170.37037037037038,81.26984126984128 170.15873015873018,81.90476190476191 169.94708994708995,82.53968253968254 169.52380952380955,83.17460317460318 169.31216931216932,83.80952380952381 169.10052910052912,84.44444444444446 168.67724867724868,85.07936507936509 168.46560846560848,85.71428571428572 168.04232804232805,86.34920634920636 167.83068783068785,86.98412698412699 167.61904761904762,87.61904761904762 167.19576719576722,88.04232804232805 166.984126984127,88.67724867724868 166.56084656084658,89.31216931216932 166.34920634920636,89.94708994708995 165.92592592592595,90.58201058201058 165.71428571428572,91.21693121693123 165.2910052910053,91.85185185185186 165.0793650793651,92.4867724867725 164.65608465608466,92.91005291005291 164.44444444444446,93.54497354497356 164.23280423280426,94.17989417989419 163.80952380952382,94.60317460317461 163.59788359788362,95.23809523809524 163.1746031746032,95.87301587301587 162.75132275132276,96.50793650793652 162.32804232804233,97.14285714285715 162.11640211640213,97.77777777777779 161.6931216931217,98.41269841269842 161.2698412698413,99.04761904761905 160.84656084656086,99.68253968253968 160.63492063492066,100.31746031746033 160.21164021164023,100.95238095238096 160.0,101.5873015873016 159.5767195767196,102.01058201058201 159.15343915343917,102.64550264550266 158.73015873015873,103.28042328042329 158.73015873015873,103.91534391534393 158.30687830687833,104.33862433862434 158.0952380952381,104.97354497354497 157.67195767195767,105.60846560846562 157.24867724867727,106.24338624338625 156.82539682539684,106.87830687830689 156.4021164021164,107.51322751322752 155.978835978836,108.14814814814815 155.55555555555557,108.78306878306879 155.13227513227514,109.41798941798943 154.7089947089947,110.05291005291006 154.4973544973545,110.6878306878307 154.07407407407408,111.11111111111111 153.86243386243387,111.74603174603176 153.43915343915344,112.3809523809524 153.01587301587304,113.01587301587303 152.8042328042328,113.65079365079366 152.38095238095238,114.28571428571429 152.16931216931218,114.92063492063492 151.95767195767198,115.55555555555557 151.74603174603175,116.1904761904762 151.53439153439155,116.82539682539684 151.32275132275134,117.46031746031747 151.11111111111111,118.0952380952381 150.8994708994709,118.73015873015873 150.6878306878307,119.36507936507937 150.47619047619048,120.00000000000001 150.26455026455028,120.63492063492065 150.05291005291005,121.26984126984128 150.05291005291005,121.90476190476191 149.84126984126985,122.53968253968254 149.84126984126985,123.17460317460318 149.62962962962965,123.80952380952382 149.62962962962965,124.44444444444446 149.62962962962965,125.07936507936509 149.62962962962965,125.71428571428572 149.62962962962965,126.34920634920636 149.84126984126985,126.98412698412699 149.84126984126985,127.61904761904763 150.05291005291005,128.25396825396825 150.47619047619048,128.88888888888889 150.8994708994709,129.52380952380955 151.32275132275134,129.94708994708995 151.74603174603175,130.58201058201058 152.16931216931218,131.005291005291 152.8042328042328,131.42857142857144 153.43915343915344,131.64021164021165 154.07407407407408,131.85185185185185 154.7089947089947,132.06349206349208 155.34391534391534,132.27513227513228 155.978835978836,132.4867724867725 156.61375661375664,132.4867724867725 157.24867724867727,132.6984126984127 157.8835978835979,132.9100529100529 158.51851851851853,132.9100529100529 159.15343915343917,133.12169312169314 159.7883597883598,133.12169312169314 160.42328042328043,133.33333333333334 161.05820105820106,133.33333333333334 161.6931216931217,133.54497354497354 162.32804232804233,133.54497354497354 162.75132275132276,133.96825396825398 163.3862433862434,134.17989417989418 164.02116402116403,134.17989417989418 164.65608465608466,134.17989417989418 165.2910052910053,134.3915343915344 165.92592592592595,134.3915343915344 166.56084656084658,134.6031746031746 167.19576719576722,135.02645502645504 167.83068783068785,135.23809523809524 168.46560846560848,135.23809523809524 169.10052910052912,135.44973544973547 169.52380952380955,135.87301587301587 170.15873015873018,136.0846560846561 170.7936507936508,136.2962962962963 171.21693121693124,136.71957671957674 171.85185185185188,137.14285714285717 172.4867724867725,137.56613756613757 173.12169312169314,137.7777777777778 173.54497354497354,138.2010582010582 174.1798941798942,138.62433862433863 174.6031746031746,139.04761904761907 175.23809523809524,139.47089947089947 175.66137566137567,139.8941798941799 176.0846560846561,140.31746031746033 176.2962962962963,140.95238095238096 176.71957671957674,141.3756613756614 177.14285714285717,142.01058201058203 177.56613756613757,142.64550264550266 177.989417989418,143.2804232804233 177.989417989418,143.91534391534393 178.41269841269843,144.33862433862436 178.41269841269843,144.973544973545 178.62433862433863,145.60846560846562 178.62433862433863,146.24338624338625 178.62433862433863,146.8783068783069 178.83597883597884,147.51322751322752 178.83597883597884,148.14814814814815 178.83597883597884,148.78306878306879 178.62433862433863,149.41798941798942 178.62433862433863,150.05291005291005 178.62433862433863,150.6878306878307 178.62433862433863,151.32275132275134 178.62433862433863,151.95767195767198 178.62433862433863,152.5925925925926 178.41269841269843,153.22751322751324 178.41269841269843,153.86243386243387 178.41269841269843,154.4973544973545 178.2010582010582,155.13227513227514 177.989417989418,155.76719576719577 177.989417989418,156.4021164021164 177.7777777777778,157.03703703703704 177.56613756613757,157.67195767195767 177.56613756613757,158.30687830687833 177.35449735449737,158.94179894179896 177.14285714285717,159.5767195767196 177.14285714285717,160.21164021164023 176.71957671957674,160.84656084656086 176.50793650793653,161.4814814814815 176.2962962962963,162.11640211640213 176.0846560846561,162.75132275132276 175.87301587301587,163.3862433862434 175.44973544973547,164.02116402116403 175.23809523809524,164.65608465608466 175.02645502645504,165.2910052910053 174.6031746031746,165.92592592592595 174.1798941798942,166.56084656084658 173.96825396825398,167.19576719576722 173.54497354497354,167.83068783068785 173.12169312169314,168.46560846560848 172.6984126984127,168.8888888888889 172.27513227513228,169.52380952380955 171.85185185185188,170.15873015873018 171.42857142857144,170.7936507936508 171.005291005291,171.21693121693124 170.58201058201058,171.85185185185188 170.15873015873018,172.27513227513228 169.73544973544975,172.9100529100529 169.31216931216932,173.54497354497354 168.8888888888889,173.96825396825398 168.46560846560848,174.3915343915344 168.04232804232805,174.81481481481484 167.61904761904762,175.23809523809524 166.984126984127,175.66137566137567 166.56084656084658,176.0846560846561 166.13756613756615,176.50793650793653 165.50264550264552,176.71957671957674 165.0793650793651,177.14285714285717 164.44444444444446,177.56613756613757 163.80952380952382,177.989417989418 163.1746031746032,178.41269841269843 162.53968253968256,178.83597883597884 161.90476190476193,179.04761904761907 161.2698412698413,179.25925925925927 160.63492063492066,179.4708994708995 160.0,179.4708994708995 159.36507936507937,179.6825396825397 158.73015873015873,179.4708994708995 158.0952380952381,179.4708994708995 157.46031746031747,179.04761904761907 156.82539682539684,178.83597883597884 156.1904761904762,178.41269841269843 155.76719576719577,177.989417989418 155.34391534391534,177.56613756613757 154.92063492063494,177.14285714285717 154.4973544973545,176.71957671957674 154.07407407407408,176.2962962962963 153.65079365079367,175.87301587301587 153.22751322751324,175.44973544973547 152.8042328042328,174.81481481481484 152.38095238095238,174.1798941798942 152.38095238095238,173.54497354497354 151.95767195767198,173.12169312169314 151.74603174603175,172.4867724867725 151.32275132275134,171.85185185185188 151.11111111111111,171.21693121693124 150.8994708994709,170.58201058201058 150.6878306878307,169.94708994708995 150.47619047619048,169.31216931216932 150.05291005291005,168.67724867724868 149.84126984126985,168.04232804232805 149.41798941798942,167.40740740740742 149.20634920634922,166.7724867724868 148.78306878306879,166.13756613756615 148.35978835978838,165.71428571428572 147.93650793650795,165.0793650793651 147.51322751322752,164.65608465608466 147.0899470899471,164.23280423280426 146.66666666666669,163.80952380952382 146.24338624338625,163.3862433862434 145.60846560846562,162.96296296296296 144.973544973545,162.53968253968256 144.33862433862436,162.32804232804233 143.70370370370372,162.11640211640213 143.0687830687831,162.11640211640213 142.43386243386246,162.11640211640213 141.7989417989418,161.90476190476193 141.16402116402116,162.11640211640213 140.52910052910053,162.11640211640213 139.8941798941799,162.32804232804233 139.25925925925927,162.53968253968256 138.62433862433863,162.75132275132276 138.2010582010582,163.1746031746032 137.56613756613757,163.3862433862434 136.93121693121694,163.80952380952382 136.2962962962963,164.23280423280426 135.66137566137567,164.65608465608466 135.02645502645504,165.0793650793651 134.3915343915344,165.50264550264552 133.75661375661377,165.92592592592595 133.12169312169314,166.34920634920636 132.6984126984127,166.7724867724868 132.06349206349208,167.19576719576722 131.64021164021165,167.61904761904762 131.21693121693121,168.04232804232805 130.58201058201058,168.46560846560848 130.15873015873018,168.8888888888889 129.73544973544975,169.31216931216932 129.31216931216932,169.73544973544975 128.88888888888889,170.15873015873018 128.46560846560848,170.58201058201058 128.04232804232805,171.005291005291 127.61904761904763,171.42857142857144 127.1957671957672,171.85185185185188 126.77248677248679,172.4867724867725 126.34920634920636,172.9100529100529 125.92592592592594,173.33333333333334 125.5026455026455,173.96825396825398 125.07936507936509,174.6031746031746 124.65608465608466,175.02645502645504 124.23280423280424,175.66137566137567 123.80952380952382,176.0846560846561 123.3862433862434,176.71957671957674 123.17460317460318,177.35449735449737 122.75132275132276,177.7777777777778 122.32804232804234,178.41269841269843 122.11640211640213,179.04761904761907 121.6931216931217,179.4708994708995 121.26984126984128,180.10582010582013 120.84656084656086,180.74074074074076 120.42328042328043,181.3756613756614 120.00000000000001,182.01058201058203 119.57671957671958,182.64550264550266 119.15343915343917,183.2804232804233 118.73015873015873,183.70370370370372 118.51851851851853,184.33862433862436 118.0952380952381,184.7619047619048 117.67195767195768,185.39682539682542 117.24867724867725,186.03174603174605 116.82539682539684,186.66666666666669 116.4021164021164,187.30158730158732 115.97883597883599,187.72486772486775 115.76719576719577,188.35978835978838 115.34391534391536,188.78306878306879 114.92063492063492,189.41798941798945 114.49735449735451,190.05291005291008 114.07407407407408,190.6878306878307 113.65079365079366,191.32275132275134 113.43915343915344,191.95767195767198 113.01587301587303,192.5925925925926 112.5925925925926,193.22751322751324 112.16931216931218,193.86243386243387 111.74603174603176,194.4973544973545 111.53439153439155,195.13227513227514 111.11111111111111,195.55555555555557 110.89947089947091,196.1904761904762 110.47619047619048,196.82539682539684 110.05291005291006,197.46031746031747 108.14814814814815,200.63492063492066" style="fill:none; stroke:#999900; stroke-width:1.0"  /><polyline points="108.14814814814815,200.63492063492066 105.3968253968254,198.30687830687833 104.97354497354497,197.8835978835979 104.33862433862434,197.46031746031747 103.91534391534393,197.03703703703704 103.4920634920635,196.61375661375664 102.85714285714286,196.1904761904762 102.43386243386244,195.76719576719577 102.01058201058201,195.34391534391537 101.5873015873016,194.92063492063494 100.95238095238096,194.4973544973545 100.52910052910053,194.07407407407408 99.8941798941799,193.65079365079367 99.47089947089948,193.22751322751324 99.04761904761905,192.8042328042328 98.62433862433863,192.3809523809524 97.989417989418,191.95767195767198 97.56613756613757,191.53439153439155 96.93121693121694,191.11111111111111 96.50793650793652,190.6878306878307 96.08465608465609,190.26455026455028 95.44973544973546,189.84126984126985 95.02645502645504,189.41798941798945 94.60317460317461,188.99470899470901 93.96825396825398,188.57142857142858 93.54497354497356,188.14814814814815 93.12169312169313,187.72486772486775 92.69841269841271,187.30158730158732 92.06349206349208,186.8783068783069 91.64021164021165,186.45502645502646 91.21693121693123,186.03174603174605 90.7936507936508,185.60846560846562 90.37037037037038,185.1851851851852 89.73544973544975,184.7619047619048 89.31216931216932,184.33862433862436 88.8888888888889,183.91534391534393 88.46560846560847,183.4920634920635 87.83068783068784,183.0687830687831 87.40740740740742,182.64550264550266 86.98412698412699,182.22222222222223 86.56084656084657,181.79894179894183 85.92592592592594,181.3756613756614 85.5026455026455,180.95238095238096 84.86772486772487,180.52910052910053 84.44444444444446,180.10582010582013 84.02116402116403,179.6825396825397 83.3862433862434,179.25925925925927 82.96296296296298,178.83597883597884 82.53968253968254,178.41269841269843 82.11640211640213,177.989417989418 81.48148148148148,177.56613756613757 81.05820105820106,177.14285714285717 80.63492063492065,176.71957671957674 80.0,176.2962962962963 79.57671957671958,175.87301587301587 78.94179894179895,175.44973544973547 78.30687830687832,175.02645502645504 77.88359788359789,174.6031746031746 77.46031746031747,174.1798941798942 76.82539682539684,173.75661375661377 76.4021164021164,173.33333333333334 75.76719576719577,172.9100529100529 75.13227513227514,172.4867724867725 74.70899470899471,172.06349206349208 74.07407407407408,171.64021164021165 73.65079365079366,171.21693121693124 73.01587301587303,170.7936507936508 72.5925925925926,170.37037037037038 72.16931216931218,169.94708994708995 71.74603174603175,169.52380952380955 71.11111111111111,169.10052910052912 70.6878306878307,168.67724867724868 70.26455026455027,168.25396825396825 69.84126984126985,167.83068783068785 69.20634920634922,167.40740740740742 68.78306878306879,166.984126984127 68.35978835978837,166.34920634920636 67.93650793650794,165.92592592592595 67.51322751322752,165.50264550264552 66.87830687830689,165.0793650793651 66.24338624338625,164.65608465608466 65.82010582010582,164.23280423280426 65.3968253968254,163.80952380952382 64.97354497354497,163.3862433862434 64.33862433862434,162.96296296296296 63.91534391534392,162.53968253968256 63.492063492063494,162.11640211640213 62.85714285714286,161.6931216931217 62.43386243386244,161.2698412698413 62.01058201058201,160.84656084656086 61.58730158730159,160.42328042328043 60.952380952380956,160.0 60.52910052910053,159.5767195767196 60.10582010582011,159.15343915343917 59.470899470899475,158.73015873015873 59.04761904761905,158.30687830687833 58.62433862433863,157.8835978835979 58.2010582010582,157.46031746031747 57.56613756613757,157.03703703703704 57.142857142857146,156.61375661375664 56.50793650793651,156.1904761904762 56.08465608465609,155.76719576719577 55.449735449735456,155.34391534391534 55.02645502645503,154.92063492063494 54.60317460317461,154.4973544973545 54.179894179894184,154.07407407407408 53.54497354497355,153.65079365079367 53.12169312169313,153.22751322751324 52.6984126984127,152.8042328042328 52.06349206349207,152.38095238095238 51.640211640211646,151.95767195767198 51.21693121693122,151.53439153439155 50.7936507936508,151.11111111111111 50.158730158730165,150.6878306878307 49.73544973544974,150.26455026455028 49.31216931216932,149.84126984126985 48.88888888888889,149.41798941798942 48.25396825396826,148.99470899470901 47.830687830687836,148.57142857142858 47.40740740740741,148.14814814814815 46.77248677248678,147.72486772486775 46.13756613756614,147.30158730158732 45.714285714285715,146.8783068783069 45.29100529100529,146.45502645502646 44.65608465608466,146.03174603174605 44.232804232804234,145.60846560846562 43.80952380952381,145.1851851851852 43.17460317460318,144.973544973545 42.75132275132275,144.55026455026456 42.32804232804233,144.12698412698413 41.904761904761905,143.70370370370372 41.48148148148149,143.2804232804233 40.84656084656085,142.85714285714286 40.423280423280424,142.43386243386246 40.0,142.01058201058203 39.57671957671958,141.5873015873016 38.94179894179894,141.16402116402116 38.51851851851852,140.74074074074076 38.095238095238095,140.31746031746033 37.67195767195768,139.8941798941799 37.03703703703704,139.47089947089947 36.613756613756614,139.04761904761907 36.19047619047619,138.62433862433863 35.55555555555556,138.41269841269843 35.13227513227513,137.989417989418 34.70899470899471,137.56613756613757 34.28571428571429,137.14285714285717 33.65079365079365,136.71957671957674 33.22751322751323,136.2962962962963 32.804232804232804,135.87301587301587 32.16931216931217,135.44973544973547 31.746031746031747,135.02645502645504 31.322751322751326,134.6031746031746 30.899470899470902,134.17989417989418 30.264550264550266,133.75661375661377 29.841269841269842,133.33333333333334 29.41798941798942,132.9100529100529 28.783068783068785,132.4867724867725 28.35978835978836,132.06349206349208 27.93650793650794,131.64021164021165 27.301587301587304,131.21693121693121 26.87830687830688,130.7936507936508 26.455026455026456,130.37037037037038 25.820105820105823,129.94708994708995 25.3968253968254,129.52380952380955 24.973544973544975,129.10052910052912 24.55026455026455,128.67724867724868 23.915343915343918,128.25396825396825 23.492063492063494,127.83068783068784 23.06878306878307,127.40740740740742 22.433862433862437,126.98412698412699 22.010582010582013,126.56084656084657 21.375661375661377,126.13756613756615 20.952380952380953,125.71428571428572 20.529100529100532,125.2910052910053 20.105820105820108,124.86772486772487 19.47089947089947,124.44444444444446 19.047619047619047,124.02116402116403 18.624338624338627,123.59788359788361 17.98941798941799,123.17460317460318 17.566137566137566,122.75132275132276 17.142857142857146,122.32804232804234 16.71957671957672,121.90476190476191 16.084656084656086,121.4814814814815 15.661375661375663,121.05820105820106 15.238095238095239,120.63492063492065 14.603174603174605,120.21164021164022 14.17989417989418,119.7883597883598 13.756613756613758,119.36507936507937 13.333333333333334,118.94179894179895 12.6984126984127,118.51851851851853 12.275132275132275,118.0952380952381 11.640211640211641,117.67195767195768 11.216931216931219,117.24867724867725 10.793650793650794,116.82539682539684 10.370370370370372,116.4021164021164 9.735449735449736,115.97883597883599 9.100529100529101,115.55555555555557 8.677248677248677,114.92063492063492 8.042328042328043,114.70899470899472 7.6190476190476195,114.28571428571429 7.195767195767196,113.86243386243387 6.772486772486773,113.43915343915344 6.34920634920635,113.01587301587303 5.714285714285714,112.5925925925926 5.291005291005291,112.16931216931218 4.867724867724868,111.74603174603176 4.2328042328042335,111.32275132275133 3.8095238095238098,110.89947089947091 3.3862433862433865,110.47619047619048 2.7513227513227516,110.05291005291006 0.0,107.72486772486774" style="fill:none; stroke:#00aa99; stroke-width:3.0" stroke-dasharray="6,3" /><polyline points="0.0,107.72486772486774 2.1164021164021167,104.76190476190477 2.53968253968254,104.12698412698414 2.9629629629629632,103.4920634920635 3.3862433862433865,103.06878306878308 3.8095238095238098,102.43386243386244 4.2328042328042335,102.01058201058201 4.656084656084657,101.37566137566138 5.07936507936508,100.95238095238096 5.502645502645503,100.31746031746033 5.9259259259259265,99.68253968253968 6.34920634920635,99.25925925925927 6.772486772486773,98.83597883597885 7.195767195767196,98.2010582010582 7.6190476190476195,97.56613756613757 8.042328042328043,96.93121693121694 8.677248677248677,96.50793650793652 8.88888888888889,95.87301587301587 9.312169312169313,95.23809523809524 9.735449735449736,94.81481481481482 10.15873015873016,94.17989417989419 10.582010582010582,93.75661375661376 11.005291005291006,93.12169312169313 11.428571428571429,92.4867724867725 11.851851851851853,92.06349206349208 12.275132275132275,91.42857142857143 12.6984126984127,90.7936507936508 13.121693121693122,90.37037037037038 13.333333333333334,89.73544973544975 13.756613756613758,89.1005291005291 14.17989417989418,88.67724867724868 14.603174603174605,88.04232804232805 15.026455026455027,87.61904761904762 15.449735449735451,86.98412698412699 15.873015873015873,86.34920634920636 16.296296296296298,85.71428571428572 16.71957671957672,85.29100529100529 17.142857142857146,84.65608465608466 17.566137566137566,84.23280423280424 17.98941798941799,83.59788359788361 18.412698412698415,83.17460317460318 18.83597883597884,82.53968253968254 19.25925925925926,81.90476190476191 19.682539682539684,81.48148148148148 20.105820105820108,80.84656084656085 20.529100529100532,80.21164021164022 20.952380952380953,79.7883597883598 21.375661375661377,79.36507936507937 21.7989417989418,78.73015873015873 22.222222222222225,78.30687830687832 22.645502645502646,77.67195767195767 23.06878306878307,77.03703703703704 23.492063492063494,76.61375661375662 23.915343915343918,76.19047619047619 24.338624338624342,75.55555555555556 24.761904761904763,74.92063492063492 25.185185185185187,74.49735449735451 25.60846560846561,73.86243386243387 26.031746031746035,73.43915343915344 26.455026455026456,72.80423280423281 26.87830687830688,72.38095238095238 27.301587301587304,71.95767195767196 27.724867724867728,71.32275132275133 28.14814814814815,70.6878306878307 28.571428571428573,70.26455026455027 28.994708994708997,69.84126984126985 29.41798941798942,69.20634920634922 29.841269841269842,68.78306878306879 30.052910052910054,68.14814814814815 30.476190476190478,67.72486772486774 30.899470899470902,67.3015873015873 31.322751322751326,66.87830687830689 31.746031746031747,66.24338624338625 32.16931216931217,65.82010582010582 32.592592592592595,65.3968253968254 33.01587301587302,64.97354497354497 33.43915343915344,64.55026455026456 33.86243386243387,63.91534391534392 34.28571428571429,63.492063492063494 34.70899470899471,63.06878306878308 35.13227513227513,62.64550264550265 35.55555555555556,62.22222222222223 35.97883597883598,61.798941798941804 36.613756613756614,61.37566137566138 37.03703703703704,60.952380952380956 37.46031746031746,60.52910052910053 37.883597883597886,60.10582010582011 38.30687830687831,59.682539682539684 38.730158730158735,59.25925925925927 39.15343915343916,58.83597883597884 39.78835978835979,58.41269841269842 40.423280423280424,57.989417989417994 41.058201058201064,57.56613756613757 41.6931216931217,57.35449735449736 42.32804232804233,56.93121693121694 42.96296296296297,56.50793650793651 43.5978835978836,56.2962962962963 44.021164021164026,55.87301587301588 44.65608465608466,55.87301587301588 45.29100529100529,55.661375661375665 45.92592592592593,55.661375661375665 46.560846560846564,55.661375661375665 47.195767195767196,55.661375661375665 47.830687830687836,55.661375661375665 48.46560846560847,55.661375661375665 49.1005291005291,56.08465608465609 49.73544973544974,56.2962962962963 50.370370370370374,56.50793650793651 51.00529100529101,56.93121693121694 51.42857142857143,57.35449735449736 51.640211640211646,57.989417989417994 52.06349206349207,58.62433862433863 52.27513227513228,59.25925925925927 52.48677248677249,59.8941798941799 52.6984126984127,60.52910052910053 52.6984126984127,61.16402116402117 52.91005291005291,61.798941798941804 52.91005291005291,62.43386243386244 53.12169312169313,63.06878306878308 53.12169312169313,63.70370370370371 53.12169312169313,64.33862433862434 53.12169312169313,64.97354497354497 53.12169312169313,65.60846560846561 53.12169312169313,66.24338624338625 53.12169312169313,66.87830687830689 53.12169312169313,67.51322751322752 53.12169312169313,68.14814814814815 53.333333333333336,68.78306878306879 53.333333333333336,69.41798941798942 53.333333333333336,70.05291005291006 53.333333333333336,70.6878306878307 53.333333333333336,71.32275132275133 53.333333333333336,71.95767195767196 53.333333333333336,72.5925925925926 53.54497354497355,73.22751322751323 53.54497354497355,73.86243386243387 53.54497354497355,74.49735449735451 53.75661375661376,75.13227513227514 53.75661375661376,75.76719576719577 53.75661375661376,76.4021164021164 53.75661375661376,77.03703703703704 53.968253968253975,77.67195767195767 54.179894179894184,78.30687830687832 54.179894179894184,78.94179894179895 54.179894179894184,79.57671957671958 54.39153439153439,80.21164021164022 54.60317460317461,80.84656084656085 54.81481481481482,81.48148148148148 55.02645502645503,82.11640211640213 55.23809523809524,82.75132275132276 55.661375661375665,83.3862433862434 56.08465608465609,84.02116402116403 56.50793650793651,84.44444444444446 56.93121693121694,84.86772486772487 57.35449735449736,85.29100529100529 57.989417989417994,85.5026455026455 58.62433862433863,85.71428571428572 59.25925925925927,85.92592592592594 59.8941798941799,86.13756613756614 60.52910052910053,86.13756613756614 61.16402116402117,86.13756613756614 61.798941798941804,86.13756613756614 62.43386243386244,86.13756613756614 63.06878306878308,86.13756613756614 63.70370370370371,85.92592592592594 64.33862433862434,85.71428571428572 64.97354497354497,85.71428571428572 65.60846560846561,85.5026455026455 66.24338624338625,85.07936507936509 66.87830687830689,84.86772486772487 67.3015873015873,84.44444444444446 67.93650793650794,84.23280423280424 68.57142857142858,84.02116402116403 69.20634920634922,83.59788359788361 69.84126984126985,83.17460317460318 70.47619047619048,82.75132275132276 71.11111111111111,82.53968253968254 71.74603174603175,82.11640211640213 72.38095238095238,81.6931216931217 73.01587301587303,81.26984126984128 73.65079365079366,80.84656084656085 74.07407407407408,80.42328042328043 74.70899470899471,80.0 75.34391534391536,79.57671957671958 75.97883597883599,79.15343915343917 76.4021164021164,78.51851851851852 76.82539682539684,78.0952380952381 77.46031746031747,77.67195767195767 78.0952380952381,77.67195767195767 78.51851851851852,77.24867724867725 78.94179894179895,76.61375661375662 79.57671957671958,76.4021164021164 80.0,75.97883597883599 80.63492063492065,75.55555555555556 81.05820105820106,75.13227513227514 81.6931216931217,74.70899470899471 82.11640211640213,74.28571428571429 82.53968253968254,73.86243386243387 83.17460317460318,73.43915343915344 83.59788359788361,73.01587301587303 84.02116402116403,72.5925925925926 84.44444444444446,72.16931216931218 85.07936507936509,71.74603174603175 85.5026455026455,71.11111111111111 85.92592592592594,70.6878306878307 86.34920634920636,70.26455026455027 86.77248677248677,69.84126984126985 87.1957671957672,69.41798941798942 87.61904761904762,68.78306878306879 88.04232804232805,68.14814814814815 88.46560846560847,67.72486772486774 88.8888888888889,67.08994708994709 89.31216931216932,66.66666666666667 89.73544973544975,66.03174603174604 90.15873015873017,65.60846560846561 90.58201058201058,65.18518518518519 91.00529100529101,64.55026455026456 91.42857142857143,63.91534391534392 91.85185185185186,63.492063492063494 92.06349206349208,62.85714285714286 92.4867724867725,62.43386243386244 92.69841269841271,61.798941798941804 93.12169312169313,61.16402116402117 93.33333333333334,60.52910052910053 93.54497354497356,59.8941798941799 93.75661375661376,59.25925925925927 93.75661375661376,58.62433862433863 93.75661375661376,57.989417989417994 93.54497354497356,57.35449735449736 93.54497354497356,56.71957671957672 93.33333333333334,56.08465608465609 92.91005291005291,55.661375661375665 92.69841269841271,55.02645502645503 92.27513227513228,54.60317460317461 91.85185185185186,54.179894179894184 91.42857142857143,53.75661375661376 91.00529100529101,53.333333333333336 90.37037037037038,52.91005291005291 89.94708994708995,52.48677248677249 89.31216931216932,52.06349206349207 88.67724867724868,51.851851851851855 88.25396825396827,51.42857142857143 87.61904761904762,51.21693121693122 86.98412698412699,51.00529100529101 86.34920634920636,50.7936507936508 85.71428571428572,50.370370370370374 85.07936507936509,50.370370370370374 84.44444444444446,50.158730158730165 83.80952380952381,49.94708994708995 83.17460317460318,49.94708994708995 82.53968253968254,49.73544973544974 81.90476190476191,49.73544973544974 81.26984126984128,49.523809523809526 80.63492063492065,49.523809523809526 80.0,49.31216931216932 79.36507936507937,49.31216931216932 78.73015873015873,49.1005291005291 78.0952380952381,49.31216931216932 77.46031746031747,49.1005291005291 76.82539682539684,49.1005291005291 76.19047619047619,48.88888888888889 75.55555555555556,48.88888888888889 74.92063492063492,48.677248677248684 74.28571428571429,48.677248677248684 73.65079365079366,48.46560846560847 73.01587301587303,48.25396825396826 72.38095238095238,48.042328042328045 71.74603174603175,47.61904761904762 71.11111111111111,47.195767195767196 70.47619047619048,46.77248677248678 70.05291005291006,46.13756613756614 69.84126984126985,45.50264550264551 69.41798941798942,44.867724867724874 69.41798941798942,44.232804232804234 69.41798941798942,43.5978835978836 69.62962962962963,42.96296296296297 69.84126984126985,42.32804232804233 70.05291005291006,41.6931216931217 70.05291005291006,41.058201058201064 70.26455026455027,40.423280423280424 70.6878306878307,39.78835978835979 71.11111111111111,39.15343915343916 71.53439153439155,38.730158730158735 71.95767195767196,38.30687830687831 72.38095238095238,37.67195767195768 72.80423280423281,37.248677248677254 73.22751322751323,36.82539682539683 73.65079365079366,36.402116402116405 74.07407407407408,35.97883597883598 74.70899470899471,35.55555555555556 75.13227513227514,35.13227513227513 75.55555555555556,34.4973544973545 76.19047619047619,34.074074074074076 76.61375661375662,33.65079365079365 77.03703703703704,33.01587301587302 77.67195767195767,32.592592592592595 78.30687830687832,32.16931216931217 78.73015873015873,31.53439153439154 79.15343915343917,31.111111111111114 79.7883597883598,30.68783068783069 80.21164021164022,30.264550264550266 80.84656084656085,30.052910052910054 81.26984126984128,29.629629629629633 81.90476190476191,29.20634920634921 82.53968253968254,28.783068783068785 83.17460317460318,28.571428571428573 83.59788359788361,28.14814814814815 84.23280423280424,27.724867724867728 84.86772486772487,27.301587301587304 85.29100529100529,26.87830687830688 85.71428571428572,26.455026455026456 86.34920634920636,26.243386243386244 86.98412698412699,26.031746031746035 87.61904761904762,25.60846560846561 88.04232804232805,25.185185185185187 88.67724867724868,24.973544973544975 89.31216931216932,24.55026455026455 89.94708994708995,24.338624338624342 90.37037037037038,23.915343915343918 91.00529100529101,23.703703703703706 91.42857142857143,23.280423280423282 91.85185185185186,22.857142857142858 92.4867724867725,22.433862433862437 93.12169312169313,22.222222222222225 93.75661375661376,22.010582010582013 94.17989417989419,21.58730158730159 94.81481481481482,21.375661375661377 95.23809523809524,20.952380952380953 95.87301587301587,20.529100529100532 96.50793650793652,20.31746031746032 97.14285714285715,19.894179894179896 97.56613756613757,19.47089947089947 97.989417989418,19.047619047619047 98.62433862433863,18.83597883597884 99.25925925925927,18.412698412698415 99.8941798941799,17.98941798941799 100.52910052910053,17.77777777777778 100.95238095238096,17.354497354497354 101.5873015873016,16.931216931216934 102.22222222222223,16.50793650793651 102.85714285714286,16.084656084656086 103.4920634920635,15.661375661375663 104.12698412698414,15.238095238095239 104.76190476190477,14.814814814814817 105.3968253968254,14.603174603174605 105.82010582010582,14.17989417989418 106.45502645502647,13.756613756613758 107.0899470899471,13.333333333333334 107.72486772486774,12.910052910052912 108.35978835978837,12.486772486772487 108.78306878306879,12.063492063492065 109.20634920634922,11.640211640211641 109.84126984126985,11.428571428571429 110.26455026455027,11.005291005291006 110.89947089947091,10.793650793650794 111.32275132275133,10.370370370370372 111.95767195767196,9.947089947089948 112.3809523809524,9.523809523809524 113.01587301587303,9.100529100529101 113.43915343915344,8.677248677248677 113.86243386243387,8.253968253968255 114.28571428571429,7.830687830687832 114.92063492063492,7.407407407407408 115.55555555555557,6.984126984126985 115.97883597883599,6.560846560846561 116.4021164021164,6.137566137566138 117.03703703703705,5.714285714285714 117.46031746031747,5.291005291005291 117.88359788359789,4.867724867724868 118.51851851851853,4.444444444444445 118.94179894179895,3.8095238095238098 119.36507936507937,3.3862433862433865 120.00000000000001,2.9629629629629632 120.42328042328043,2.3280423280423284 120.84656084656086,1.9047619047619049 123.3862433862434,-0.4232804232804233" style="fill:none; stroke:#3300bb; stroke-width:1.0"  /><circle cx="123.3862433862434" cy="-0.4232804232804233" r="2.0" style="fill:none; stroke:#000000aa; stroke-width:0.25" /><circle cx="179.6825396825397" cy="60.52910052910053" r="2.0" style="fill:none; stroke:#000000aa; stroke-width:0.25" /><circle cx="108.14814814814815" cy="200.63492063492066" r="2.0" style="fill:none; stroke:#000000aa; stroke-width:0.25" /><circle cx="0.0" cy="107.72486772486774" r="2.0" style="fill:none; stroke:#000000aa; stroke-width:0.25" /><circle cx="123.59788359788361" cy="0.21164021164021166" r="2.0" style="fill:none; stroke:#ff3366aa; stroke-width:0.25" /><circle cx="179.4708994708995" cy="60.31746031746032" r="2.0" style="fill:none; stroke:#ff3366aa; stroke-width:0.25" /><circle cx="107.93650793650795" cy="200.42328042328043" r="2.0" style="fill:none; stroke:#ff3366aa; stroke-width:0.25" /><circle cx="0.21164021164021166" cy="107.72486772486774" r="2.0" style="fill:none; stroke:#ff3366aa; stroke-width:0.25" /><polyline points="131.42857142857144,8.88888888888889 131.005291005291,8.253968253968255 130.58201058201058,7.830687830687832 130.15873015873018,7.407407407407408 129.73544973544975,6.772486772486773 129.31216931216932,6.34920634920635 128.88888888888889,5.9259259259259265 128.46560846560848,5.502645502645503 128.04232804232805,4.867724867724868 127.61904761904763,4.444444444444445 127.1957671957672,4.021164021164021 126.77248677248679,3.3862433862433865 126.34920634920636,2.9629629629629632 125.92592592592594,2.53968253968254" style="fill:none; stroke:#001100; stroke-width:1.0" /><polyline points="114.28571428571429,7.830687830687832 114.92063492063492,7.407407407407408 115.55555555555557,6.984126984126985 115.97883597883599,6.560846560846561 116.4021164021164,6.137566137566138 117.03703703703705,5.714285714285714 117.46031746031747,5.291005291005291 117.88359788359789,4.867724867724868 118.51851851851853,4.444444444444445 118.94179894179895,3.8095238095238098 119.36507936507937,3.3862433862433865 120.00000000000001,2.9629629629629632 120.42328042328043,2.3280423280423284 120.84656084656086,1.9047619047619049" style="fill:none; stroke:#000011; stroke-width:1.0" /><polyline points="175.02645502645504,71.11111111111111 175.44973544973547,70.47619047619048 175.66137566137567,69.84126984126985 175.87301587301587,69.20634920634922 176.2962962962963,68.57142857142858 176.2962962962963,67.93650793650794 176.50793650793653,67.3015873015873 176.93121693121694,66.66666666666667 177.14285714285717,66.03174603174604 177.56613756613757,65.3968253968254 177.7777777777778,64.76190476190477 177.989417989418,64.12698412698413 178.41269841269843,63.492063492063494" style="fill:none; stroke:#001100; stroke-width:1.0" /><polyline points="171.64021164021165,51.640211640211646 172.06349206349208,52.06349206349207 172.4867724867725,52.6984126984127 172.9100529100529,53.12169312169313 173.33333333333334,53.75661375661376 173.75661375661377,54.179894179894184 174.1798941798942,54.60317460317461 174.6031746031746,55.02645502645503 175.02645502645504,55.449735449735456 175.44973544973547,56.08465608465609 175.87301587301587,56.50793650793651 176.2962962962963,56.93121693121694 176.71957671957674,57.35449735449736 177.14285714285717,57.777777777777786" style="fill:none; stroke:#000011; stroke-width:1.0" /><polyline points="99.04761904761905,192.8042328042328 99.47089947089948,193.22751322751324 99.8941798941799,193.65079365079367 100.52910052910053,194.07407407407408 100.95238095238096,194.4973544973545 101.5873015873016,194.92063492063494 102.01058201058201,195.34391534391537 102.43386243386244,195.76719576719577 102.85714285714286,196.1904761904762 103.4920634920635,196.61375661375664 103.91534391534393,197.03703703703704 104.33862433862434,197.46031746031747 104.97354497354497,197.8835978835979 105.3968253968254,198.30687830687833" style="fill:none; stroke:#001100; stroke-width:1.0" /><polyline points="114.07407407407408,190.6878306878307 113.65079365079366,191.32275132275134 113.43915343915344,191.95767195767198 113.01587301587303,192.5925925925926 112.5925925925926,193.22751322751324 112.16931216931218,193.86243386243387 111.74603174603176,194.4973544973545 111.53439153439155,195.13227513227514 111.11111111111111,195.55555555555557 110.89947089947091,196.1904761904762 110.47619047619048,196.82539682539684 110.05291005291006,197.46031746031747" style="fill:none; stroke:#000011; stroke-width:1.0" /><polyline points="7.195767195767196,98.2010582010582 6.772486772486773,98.83597883597885 6.34920634920635,99.25925925925927 5.9259259259259265,99.68253968253968 5.502645502645503,100.31746031746033 5.07936507936508,100.95238095238096 4.656084656084657,101.37566137566138 4.2328042328042335,102.01058201058201 3.8095238095238098,102.43386243386244 3.3862433862433865,103.06878306878308 2.9629629629629632,103.4920634920635 2.53968253968254,104.12698412698414 2.1164021164021167,104.76190476190477" style="fill:none; stroke:#001100; stroke-width:1.0" /><polyline points="9.100529100529101,115.55555555555557 8.677248677248677,114.92063492063492 8.042328042328043,114.70899470899472 7.6190476190476195,114.28571428571429 7.195767195767196,113.86243386243387 6.772486772486773,113.43915343915344 6.34920634920635,113.01587301587303 5.714285714285714,112.5925925925926 5.291005291005291,112.16931216931218 4.867724867724868,111.74603174603176 4.2328042328042335,111.32275132275133 3.8095238095238098,110.89947089947091 3.3862433862433865,110.47619047619048 2.7513227513227516,110.05291005291006" style="fill:none; stroke:#000011; stroke-width:1.0" /><polyline points="125.92592592592594,2.53968253968254 112.16931216931218,-13.544973544973546" style="fill:none; stroke:#ffaa00; stroke-width:0.4" /><polyline points="120.84656084656086,1.9047619047619049 136.5079365079365,-12.275132275132275" style="fill:none; stroke:#aaff00; stroke-width:0.4" /><polyline points="178.41269841269843,63.492063492063494 187.08994708994712,44.232804232804234" style="fill:none; stroke:#ffaa00; stroke-width:0.4" /><polyline points="177.14285714285717,57.777777777777786 191.32275132275134,73.43915343915344" style="fill:none; stroke:#aaff00; stroke-width:0.4" /><polyline points="105.3968253968254,198.30687830687833 121.4814814814815,212.06349206349208" style="fill:none; stroke:#ffaa00; stroke-width:0.4" /><polyline points="110.05291005291006,197.46031746031747 99.25925925925927,215.66137566137567" style="fill:none; stroke:#aaff00; stroke-width:0.4" /><polyline points="2.1164021164021167,104.76190476190477 -10.793650793650794,121.4814814814815" style="fill:none; stroke:#ffaa00; stroke-width:0.4" /><polyline points="2.7513227513227516,110.05291005291006 -13.333333333333334,96.2962962962963" style="fill:none; stroke:#aaff00; stroke-width:0.4" /><circle cx="105.3968253968254" cy="99.68253968253968" r="1.0" style="fill:#444444; stroke-width:0" /><circle cx="98.2010582010582" cy="124.65608465608466" r="10.582010582010582" style="fill:#ff770022; stroke-width:0" /><circle cx="98.2010582010582" cy="124.65608465608466" r="1.0" style="fill:#ff7700; stroke-width:0" /></svg>