<?xml version="1.0" encoding="UTF-8" standalone="no"?><svg width="606.984126984127" height="590.4761904761905" viewBox="-10 -10 222.32804232804233 216.82539682539684" xmlns="http://www.w3.org/2000/svg" xmlns:xlink="http://www.w3.org/1999/xlink"><polyline points="86.13756613756614,0.21164021164021166 89.1005291005291,2.3280423280423284 89.73544973544975,2.7513227513227516 90.15873015873017,3.174603174603175 90.7936507936508,3.597883597883598 91.42857142857143,4.021164021164021 92.06349206349208,4.444444444444445 92.4867724867725,4.867724867724868 93.12169312169313,5.291005291005291 93.75661375661376,5.714285714285714 94.39153439153439,6.137566137566138 95.02645502645504,6.560846560846561 95.44973544973546,6.984126984126985 96.08465608465609,7.407407407407408 96.50793650793652,7.830687830687832 97.14285714285715,8.253968253968255 97.77777777777779,8.465608465608467 98.2010582010582,8.88888888888889 98.62433862433863,9.312169312169313 99.25925925925927,9.735449735449736 99.8941798941799,10.15873015873016 100.31746031746033,10.582010582010582 100.95238095238096,10.793650793650794 101.37566137566138,11.428571428571429 101.79894179894181,11.851851851851853 102.43386243386244,12.275132275132275 102.85714285714286,12.6984126984127 103.28042328042329,13.121693121693122 103.91534391534393,13.544973544973546 104.55026455026456,13.96825396825397 104.97354497354497,14.391534391534393 105.3968253968254,14.814814814814817 105.82010582010582,15.238095238095239 106.24338624338625,15.661375661375663 106.66666666666667,16.084656084656086 107.0899470899471,16.50793650793651 107.51322751322752,16.931216931216934 107.93650793650795,17.354497354497354 108.35978835978837,17.77777777777778 108.78306878306879,18.201058201058203 109.20634920634922,18.624338624338627 109.62962962962963,19.047619047619047 110.05291005291006,19.682539682539684 110.47619047619048,20.105820105820108 110.89947089947091,20.529100529100532 111.32275132275133,20.952380952380953 111.74603174603176,21.58730158730159 112.16931216931218,22.222222222222225 112.80423280423281,22.645502645502646 113.22751322751324,23.06878306878307 113.65079365079366,23.703703703703706 114.07407407407408,24.338624338624342 114.49735449735451,24.761904761904763 114.92063492063492,25.3968253968254 115.34391534391536,26.031746031746035 115.76719576719577,26.666666666666668 116.1904761904762,27.301587301587304 116.61375661375662,27.93650793650794 117.03703703703705,28.571428571428573 117.24867724867725,29.20634920634921 117.46031746031747,29.841269841269842 117.88359788359789,30.476190476190478 118.0952380952381,31.111111111111114 118.51851851851853,31.746031746031747 118.73015873015873,32.38095238095239 118.94179894179895,33.01587301587302 119.15343915343917,33.65079365079365 119.15343915343917,34.28571428571429 119.36507936507937,34.920634920634924 119.57671957671958,35.55555555555556 119.57671957671958,36.19047619047619 119.57671957671958,36.82539682539683 119.7883597883598,37.46031746031746 119.7883597883598,38.095238095238095 119.7883597883598,38.730158730158735 119.7883597883598,39.36507936507937 119.57671957671958,40.0 119.57671957671958,40.63492063492064 119.57671957671958,41.26984126984127 119.36507936507937,41.904761904761905 119.15343915343917,42.539682539682545 119.15343915343917,43.17460317460318 118.94179894179895,43.80952380952381 118.73015873015873,44.44444444444445 118.30687830687832,45.07936507936508 117.88359788359789,45.50264550264551 117.67195767195768,46.13756613756614 117.24867724867725,46.560846560846564 116.61375661375662,46.98412698412699 116.1904761904762,47.40740740740741 115.55555555555557,47.830687830687836 114.92063492063492,48.25396825396826 114.49735449735451,48.677248677248684 113.86243386243387,49.1005291005291 113.22751322751324,49.31216931216932 112.5925925925926,49.523809523809526 112.16931216931218,49.94708994708995 111.53439153439155,50.158730158730165 110.89947089947091,50.370370370370374 110.26455026455027,50.58201058201058 109.62962962962963,50.7936507936508 108.994708994709,51.00529100529101 108.35978835978837,51.21693121693122 107.72486772486774,51.42857142857143 107.0899470899471,51.640211640211646 106.45502645502647,52.06349206349207 105.82010582010582,52.27513227513228 105.18518518518519,52.48677248677249 104.55026455026456,52.6984126984127 103.91534391534393,53.12169312169313 103.28042328042329,53.54497354497355 102.64550264550266,53.968253968253975 102.01058201058201,54.39153439153439 101.37566137566138,54.81481481481482 100.74074074074075,55.23809523809524 100.31746031746033,55.661375661375665 99.68253968253968,56.08465608465609 99.25925925925927,56.50793650793651 98.83597883597885,56.93121693121694 98.41269841269842,57.35449735449736 97.989417989418,57.777777777777786 97.56613756613757,58.2010582010582 97.14285714285715,58.83597883597884 96.71957671957672,59.470899470899475 96.2962962962963,60.10582010582011 96.08465608465609,60.74074074074075 95.66137566137567,61.37566137566138 95.66137566137567,62.01058201058201 95.44973544973546,62.64550264550265 95.23809523809524,63.280423280423285 95.23809523809524,63.91534391534392 95.23809523809524,64.55026455026456 95.23809523809524,65.18518518518519 95.23809523809524,65.82010582010582 95.44973544973546,66.45502645502646 95.66137566137567,67.08994708994709 95.66137566137567,67.72486772486774 96.08465608465609,68.35978835978837 96.2962962962963,68.994708994709 96.71957671957672,69.62962962962963 96.93121693121694,70.26455026455027 97.35449735449737,70.8994708994709 97.56613756613757,71.53439153439155 97.989417989418,72.16931216931218 98.41269841269842,72.80423280423281 98.83597883597885,73.43915343915344 99.25925925925927,73.86243386243387 99.68253968253968,74.49735449735451 100.10582010582011,74.92063492063492 100.52910052910053,75.34391534391536 100.95238095238096,75.76719576719577 101.37566137566138,76.19047619047619 101.79894179894181,76.61375661375662 102.01058201058201,77.24867724867725 102.64550264550266,77.67195767195767 103.06878306878308,78.0952380952381 103.70370370370371,78.51851851851852 104.33862433862434,78.94179894179895 104.76190476190477,79.36507936507937 105.3968253968254,79.57671957671958 106.03174603174604,79.7883597883598 106.45502645502647,80.21164021164022 107.0899470899471,80.21164021164022 107.51322751322752,80.63492063492065 108.14814814814815,81.05820105820106 108.78306878306879,81.26984126984128 109.41798941798943,81.6931216931217 110.05291005291006,82.11640211640213 110.6878306878307,82.11640211640213 111.11111111111111,82.53968253968254 111.74603174603176,82.96296296296298 112.3809523809524,82.96296296296298 113.01587301587303,83.17460317460318 113.65079365079366,83.3862433862434 114.28571428571429,83.59788359788361 114.92063492063492,83.80952380952381 115.55555555555557,84.02116402116403 116.1904761904762,84.02116402116403 116.61375661375662,84.44444444444446 117.24867724867725,84.44444444444446 117.88359788359789,84.44444444444446 118.51851851851853,84.65608465608466 119.15343915343917,84.65608465608466 119.7883597883598,84.65608465608466 120.42328042328043,84.44444444444446 121.05820105820106,84.44444444444446 121.6931216931217,84.23280423280424 122.32804232804234,84.23280423280424 122.96296296296298,84.02116402116403 123.59788359788361,83.59788359788361 124.23280423280424,83.3862433862434 124.65608465608466,82.96296296296298 125.07936507936509,82.53968253968254 125.5026455026455,82.11640211640213 125.92592592592594,81.6931216931217 126.34920634920636,81.26984126984128 126.77248677248679,80.84656084656085 127.1957671957672,80.42328042328043 127.61904761904763,79.7883597883598 128.04232804232805,79.36507936507937 128.46560846560848,78.73015873015873 128.67724867724868,78.0952380952381 129.10052910052912,77.67195767195767 129.31216931216932,77.03703703703704 129.73544973544975,76.4021164021164 129.94708994708995,75.76719576719577 130.15873015873018,75.13227513227514 130.37037037037038,74.49735449735451 130.58201058201058,73.86243386243387 130.58201058201058,73.22751322751323 130.7936507936508,72.5925925925926 130.7936507936508,71.95767195767196 131.005291005291,71.32275132275133 131.21693121693121,70.6878306878307 131.21693121693121,70.05291005291006 131.42857142857144,69.41798941798942 131.42857142857144,68.78306878306879 131.64021164021165,68.14814814814815 132.06349206349208,67.51322751322752 132.06349206349208,66.87830687830689 132.27513227513228,66.24338624338625 132.6984126984127,65.60846560846561 132.9100529100529,64.97354497354497 133.33333333333334,64.33862433862434 133.75661375661377,63.70370370370371 134.17989417989418,63.06878306878308 134.6031746031746,62.64550264550265 135.02645502645504,62.22222222222223 135.44973544973547,61.58730158730159 135.87301587301587,61.16402116402117 136.2962962962963,60.74074074074075 136.71957671957674,60.31746031746032 137.14285714285717,59.8941798941799 137.7777777777778,59.682539682539684 138.41269841269843,59.25925925925927 139.04761904761907,59.04761904761905 139.6825396825397,59.04761904761905 140.31746031746033,58.83597883597884 140.95238095238096,58.62433862433863 141.5873015873016,58.62433862433863 142.22222222222223,58.83597883597884 142.85714285714286,58.83597883597884 143.4920634920635,58.83597883597884 144.12698412698413,59.04761904761905 144.76190476190476,59.04761904761905 145.39682539682542,59.25925925925927 146.03174603174605,59.470899470899475 146.66666666666669,59.8941798941799 147.30158730158732,60.10582010582011 147.93650793650795,60.10582010582011 148.57142857142858,60.31746031746032 148.99470899470901,60.74074074074075 149.62962962962965,60.952380952380956 150.26455026455028,61.37566137566138 150.8994708994709,61.58730158730159 151.53439153439155,61.798941798941804 152.16931216931218,62.01058201058201 152.5925925925926,62.43386243386244 153.01587301587304,62.85714285714286 153.65079365079367,63.06878306878308 154.2857142857143,63.280423280423285 154.92063492063494,63.70370370370371 155.55555555555557,63.91534391534392 155.978835978836,64.33862433862434 156.61375661375664,64.76190476190477 157.24867724867727,64.97354497354497 157.8835978835979,65.18518518518519 158.30687830687833,65.60846560846561 158.94179894179896,65.82010582010582 159.5767195767196,66.03174603174604 160.0,66.45502645502646 160.63492063492066,66.87830687830689 161.2698412698413,67.08994708994709 161.90476190476193,67.51322751322752 162.53968253968256,67.93650793650794 163.1746031746032,68.14814814814815 163.80952380952382,68.57142857142858 164.44444444444446,68.994708994709 165.0793650793651,69.20634920634922 165.71428571428572,69.62962962962963 166.34920634920636,70.05291005291006 166.984126984127,70.26455026455027 167.40740740740742,70.6878306878307 168.04232804232805,70.8994708994709 168.67724867724868,71.32275132275133 169.31216931216932,71.74603174603175 169.94708994708995,71.95767195767196 170.37037037037038,72.38095238095238 171.005291005291,72.5925925925926 171.64021164021165,73.01587301587303 172.06349206349208,73.43915343915344 172.6984126984127,73.86243386243387 173.33333333333334,74.07407407407408 173.96825396825398,74.49735449735451 174.3915343915344,74.92063492063492 175.02645502645504,75.13227513227514 175.66137566137567,75.55555555555556 176.2962962962963,75.97883597883599 176.93121693121694,76.4021164021164 177.56613756613757,76.61375661375662 177.989417989418,77.03703703703704 178.62433862433863,77.46031746031747 179.25925925925927,77.88359788359789 179.8941798941799,78.30687830687832 180.52910052910053,78.73015873015873 181.16402116402116,79.15343915343917 181.79894179894183,79.36507936507937 182.22222222222223,79.7883597883598 182.85714285714286,80.0 183.4920634920635,80.42328042328043 184.12698412698415,80.84656084656085 184.7619047619048,81.26984126984128 185.39682539682542,81.6931216931217 186.03174603174605,82.11640211640213 186.66666666666669,82.32804232804233 187.08994708994712,82.75132275132276 187.51322751322752,83.17460317460318 188.14814814814815,83.59788359788361 188.78306878306879,83.80952380952381 189.41798941798945,84.23280423280424 189.84126984126985,84.65608465608466 190.47619047619048,84.86772486772487 190.8994708994709,85.29100529100529 191.53439153439155,85.71428571428572 192.16931216931218,86.13756613756614 192.8042328042328,86.56084656084657 193.22751322751324,86.98412698412699 193.86243386243387,87.1957671957672 194.2857142857143,87.61904761904762 194.92063492063494,88.04232804232805 195.55555555555557,88.46560846560847 196.1904761904762,88.67724867724868 196.61375661375664,89.1005291005291 197.24867724867727,89.52380952380953 197.8835978835979,89.73544973544975 198.30687830687833,90.15873015873017 198.94179894179896,90.58201058201058 202.32804232804233,92.69841269841271" style="fill:none; stroke:#cc0000; stroke-width:1.0"  /><polyline points="202.32804232804233,92.69841269841271 200.21164021164023,95.66137566137567 199.7883597883598,96.08465608465609 199.36507936507937,96.71957671957672 198.94179894179896,97.35449735449737 198.51851851851853,97.77777777777779 198.0952380952381,98.41269841269842 197.8835978835979,99.04761904761905 197.46031746031747,99.47089947089948 197.03703703703704,100.10582010582011 196.61375661375664,100.74074074074075 196.1904761904762,101.37566137566138 195.76719576719577,102.01058201058201 195.34391534391537,102.64550264550266 195.13227513227514,103.28042328042329 194.70899470899474,103.70370370370371 194.2857142857143,104.33862433862434 193.86243386243387,104.97354497354497 193.43915343915344,105.60846560846562 193.01587301587304,106.24338624338625 192.5925925925926,106.87830687830689 192.16931216931218,107.51322751322752 191.74603174603175,108.14814814814815 191.53439153439155,108.78306878306879 191.11111111111111,109.20634920634922 190.6878306878307,109.84126984126985 190.26455026455028,110.47619047619048 189.84126984126985,111.11111111111111 189.41798941798945,111.74603174603176 189.20634920634922,112.3809523809524 188.78306878306879,112.80423280423281 188.35978835978838,113.43915343915344 187.93650793650795,114.07407407407408 187.51322751322752,114.70899470899472 187.08994708994712,115.34391534391536 186.66666666666669,115.97883597883599 186.24338624338625,116.61375661375662 185.82010582010582,117.24867724867725 185.39682539682542,117.88359788359789 185.1851851851852,118.51851851851853 184.7619047619048,119.15343915343917 184.55026455026456,119.7883597883598 184.12698412698415,120.21164021164022 183.70370370370372,120.84656084656086 183.2804232804233,121.4814814814815 182.85714285714286,122.11640211640213 182.64550264550266,122.75132275132276 182.22222222222223,123.17460317460318 181.79894179894183,123.80952380952382 181.3756613756614,124.44444444444446 180.95238095238096,125.07936507936509 180.74074074074076,125.71428571428572 180.31746031746033,126.13756613756615 179.8941798941799,126.77248677248679 179.4708994708995,127.40740740740742 179.04761904761907,128.04232804232805 178.62433862433863,128.46560846560848 178.2010582010582,129.10052910052912 177.7777777777778,129.73544973544975 177.35449735449737,130.37037037037038 177.14285714285717,131.005291005291 176.71957671957674,131.42857142857144 176.2962962962963,132.06349206349208 175.87301587301587,132.6984126984127 175.44973544973547,133.33333333333334 175.02645502645504,133.96825396825398 174.6031746031746,134.6031746031746 174.1798941798942,135.23809523809524 173.75661375661377,135.87301587301587 173.33333333333334,136.5079365079365 172.9100529100529,137.14285714285717 172.4867724867725,137.7777777777778 172.06349206349208,138.41269841269843 171.85185185185188,139.04761904761907 171.42857142857144,139.47089947089947 171.005291005291,140.10582010582013 170.58201058201058,140.74074074074076 170.15873015873018,141.3756613756614 169.73544973544975,142.01058201058203 169.31216931216932,142.64550264550266 169.10052910052912,143.2804232804233 168.67724867724868,143.70370370370372 168.25396825396825,144.33862433862436 167.83068783068785,144.973544973545 167.40740740740742,145.60846560846562 166.984126984127,146.24338624338625 166.56084656084658,146.66666666666669 166.34920634920636,147.30158730158732 165.92592592592595,147.72486772486775 165.50264550264552,148.35978835978838 165.2910052910053,148.99470899470901 164.8677248677249,149.41798941798942 164.44444444444446,150.05291005291005 164.02116402116403,150.6878306878307 163.59788359788362,151.32275132275134 163.1746031746032,151.95767195767198 162.75132275132276,152.5925925925926 162.53968253968256,153.22751322751324 162.11640211640213,153.86243386243387 161.6931216931217,154.4973544973545 161.2698412698413,155.13227513227514 160.84656084656086,155.76719576719577 160.42328042328043,156.4021164021164 160.0,157.03703703703704 159.5767195767196,157.67195767195767 159.15343915343917,158.30687830687833 158.94179894179896,158.94179894179896 158.51851851851853,159.36507936507937 158.30687830687833,160.0 157.8835978835979,160.42328042328043 157.46031746031747,161.05820105820106 157.03703703703704,161.6931216931217 156.61375661375664,162.32804232804233 156.1904761904762,162.96296296296296 155.76719576719577,163.59788359788362 155.34391534391534,164.23280423280426 154.92063492063494,164.8677248677249 154.4973544973545,165.50264550264552 154.07407407407408,165.92592592592595 153.65079365079367,166.56084656084658 153.22751322751324,167.19576719576722 152.8042328042328,167.83068783068785 152.5925925925926,168.46560846560848 152.16931216931218,168.8888888888889 151.74603174603175,169.52380952380955 151.32275132275134,170.15873015873018 150.8994708994709,170.7936507936508 150.47619047619048,171.42857142857144 150.05291005291005,172.06349206349208 149.62962962962965,172.4867724867725 149.20634920634922,172.9100529100529 148.78306878306879,173.54497354497354 148.57142857142858,174.1798941798942 148.14814814814815,174.6031746031746 147.72486772486775,175.23809523809524 147.51322751322752,175.87301587301587 147.0899470899471,176.50793650793653 146.66666666666669,176.93121693121694 146.45502645502646,177.56613756613757 146.03174603174605,177.989417989418 145.60846560846562,178.62433862433863 145.1851851851852,179.25925925925927 144.76190476190476,179.8941798941799 144.33862433862436,180.52910052910053 143.91534391534393,181.16402116402116 143.4920634920635,181.79894179894183 143.2804232804233,182.43386243386246 141.5873015873016,185.1851851851852" style="fill:none; stroke:#999900; stroke-width:3.0" stroke-dasharray="6,3" /><polyline points="141.5873015873016,185.1851851851852 138.41269841269843,183.0687830687831 137.7777777777778,182.64550264550266 137.14285714285717,182.22222222222223 136.71957671957674,181.79894179894183 136.0846560846561,181.5873015873016 135.66137566137567,181.16402116402116 135.02645502645504,180.74074074074076 134.3915343915344,180.31746031746033 133.96825396825398,179.8941798941799 133.33333333333334,179.4708994708995 132.6984126984127,179.04761904761907 132.06349206349208,178.62433862433863 131.42857142857144,178.2010582010582 130.7936507936508,177.989417989418 130.37037037037038,177.56613756613757 129.73544973544975,177.35449735449737 129.31216931216932,176.93121693121694 128.67724867724868,176.50793650793653 128.04232804232805,176.2962962962963 127.61904761904763,175.87301587301587 126.98412698412699,175.44973544973547 126.34920634920636,175.02645502645504 125.71428571428572,174.81481481481484 125.2910052910053,174.3915343915344 124.65608465608466,174.1798941798942 124.23280423280424,173.75661375661377 123.59788359788361,173.54497354497354 123.17460317460318,173.12169312169314 122.53968253968254,172.9100529100529 122.11640211640213,172.4867724867725 121.4814814814815,172.27513227513228 121.05820105820106,171.85185185185188 120.42328042328043,171.64021164021165 119.7883597883598,171.21693121693124 119.15343915343917,170.7936507936508 118.51851851851853,170.37037037037038 117.88359788359789,170.15873015873018 117.46031746031747,169.73544973544975 116.82539682539684,169.52380952380955 116.4021164021164,169.10052910052912 115.76719576719577,168.8888888888889 115.34391534391536,168.46560846560848 114.70899470899472,168.25396825396825 114.28571428571429,167.83068783068785 113.65079365079366,167.40740740740742 113.01587301587303,167.19576719576722 112.3809523809524,166.984126984127 111.74603174603176,166.7724867724868 111.32275132275133,166.34920634920636 110.6878306878307,166.13756613756615 110.05291005291006,165.71428571428572 109.41798941798943,165.50264550264552 108.78306878306879,165.2910052910053 108.14814814814815,165.0793650793651 107.51322751322752,164.8677248677249 106.87830687830689,164.8677248677249 106.24338624338625,164.8677248677249 105.60846560846562,164.8677248677249 104.97354497354497,165.0793650793651 104.33862433862434,165.2910052910053 103.70370370370371,165.50264550264552 103.06878306878308,165.92592592592595 102.43386243386244,166.34920634920636 102.01058201058201,166.7724867724868 101.5873015873016,167.19576719576722 101.16402116402116,167.61904761904762 100.74074074074075,168.25396825396825 100.31746031746033,168.8888888888889 100.10582010582011,169.52380952380955 99.8941798941799,170.15873015873018 99.47089947089948,170.7936507936508 99.25925925925927,171.42857142857144 99.04761904761905,172.06349206349208 99.04761904761905,172.6984126984127 98.83597883597885,173.33333333333334 98.83597883597885,173.96825396825398 98.62433862433863,174.6031746031746 98.62433862433863,175.23809523809524 98.62433862433863,175.87301587301587 98.41269841269842,176.50793650793653 98.41269841269842,177.14285714285717 98.41269841269842,177.7777777777778 98.41269841269842,178.41269841269843 98.2010582010582,179.04761904761907 98.2010582010582,179.6825396825397 98.2010582010582,180.31746031746033 98.2010582010582,180.95238095238096 97.989417989418,181.5873015873016 97.989417989418,182.22222222222223 97.989417989418,182.85714285714286 97.989417989418,183.4920634920635 97.77777777777779,184.12698412698415 97.77777777777779,184.7619047619048 97.56613756613757,185.39682539682542 97.56613756613757,186.03174603174605 97.35449735449737,186.66666666666669 97.35449735449737,187.30158730158732 97.14285714285715,187.93650793650795 96.93121693121694,188.57142857142858 96.71957671957672,189.20634920634922 96.50793650793652,189.84126984126985 96.2962962962963,190.47619047619048 95.87301587301587,191.11111111111111 95.66137566137567,191.74603174603175 95.23809523809524,192.16931216931218 94.81481481481482,192.8042328042328 94.39153439153439,193.43915343915344 93.96825396825398,193.86243386243387 93.54497354497356,194.4973544973545 92.91005291005291,194.92063492063494 92.4867724867725,195.34391534391537 91.85185185185186,195.55555555555557 91.21693121693123,195.76719576719577 90.58201058201058,195.978835978836 89.94708994708995,196.1904761904762 89.31216931216932,196.1904761904762 88.67724867724868,196.4021164021164 88.04232804232805,196.4021164021164 87.40740740740742,196.4021164021164 86.77248677248677,196.1904761904762 86.13756613756614,196.1904761904762 85.5026455026455,196.1904761904762 84.86772486772487,195.978835978836 84.23280423280424,195.76719576719577 83.59788359788361,195.76719576719577 82.96296296296298,195.55555555555557 82.32804232804233,195.34391534391537 81.6931216931217,195.13227513227514 81.05820105820106,194.92063492063494 80.42328042328043,194.70899470899474 79.7883597883598,194.4973544973545 79.15343915343917,194.07407407407408 78.51851851851852,193.86243386243387 77.88359788359789,193.86243386243387 77.24867724867725,193.43915343915344 76.61375661375662,193.22751322751324 75.97883597883599,192.8042328042328 75.34391534391536,192.5925925925926 74.70899470899471,192.16931216931218 74.07407407407408,191.95767195767198 73.43915343915344,191.74603174603175 72.80423280423281,191.53439153439155 72.16931216931218,191.11111111111111 71.53439153439155,190.6878306878307 70.8994708994709,190.26455026455028 70.26455026455027,189.84126984126985 69.84126984126985,189.41798941798945 69.41798941798942,188.99470899470901 68.78306878306879,188.57142857142858 68.35978835978837,188.14814814814815 67.72486772486774,187.72486772486775 67.3015873015873,187.08994708994712 66.87830687830689,186.66666666666669 66.45502645502646,186.03174603174605 66.03174603174604,185.39682539682542 65.60846560846561,184.7619047619048 65.3968253968254,184.12698412698415 64.97354497354497,183.70370370370372 64.76190476190477,183.0687830687831 64.33862433862434,182.43386243386246 64.12698412698413,181.79894179894183 63.91534391534392,181.16402116402116 63.70370370370371,180.52910052910053 63.492063492063494,179.8941798941799 63.280423280423285,179.25925925925927 63.280423280423285,178.62433862433863 63.280423280423285,177.989417989418 63.06878306878308,177.35449735449737 63.06878306878308,176.71957671957674 63.06878306878308,176.0846560846561 63.06878306878308,175.44973544973547 63.06878306878308,174.81481481481484 63.280423280423285,174.1798941798942 63.70370370370371,173.54497354497354 63.91534391534392,172.9100529100529 64.33862433862434,172.4867724867725 64.76190476190477,171.85185185185188 65.18518518518519,171.21693121693124 65.60846560846561,170.58201058201058 66.03174603174604,170.15873015873018 66.66666666666667,169.73544973544975 67.08994708994709,169.31216931216932 67.51322751322752,168.8888888888889 67.93650793650794,168.46560846560848 68.35978835978837,168.04232804232805 68.78306878306879,167.61904761904762 69.41798941798942,167.19576719576722 70.05291005291006,166.7724867724868 70.6878306878307,166.56084656084658 71.11111111111111,166.13756613756615 71.53439153439155,165.71428571428572 72.16931216931218,165.50264550264552 72.5925925925926,165.0793650793651 73.22751322751323,164.8677248677249 73.86243386243387,164.44444444444446 74.49735449735451,164.02116402116403 75.13227513227514,163.59788359788362 75.76719576719577,163.3862433862434 76.19047619047619,162.96296296296296 76.82539682539684,162.53968253968256 77.46031746031747,162.32804232804233 78.0952380952381,161.90476190476193 78.51851851851852,161.4814814814815 78.94179894179895,160.84656084656086 79.57671957671958,160.42328042328043 80.21164021164022,160.0 80.84656084656085,159.7883597883598 81.26984126984128,159.36507936507937 81.6931216931217,158.94179894179896 82.11640211640213,158.51851851851853 82.53968253968254,158.0952380952381 82.96296296296298,157.67195767195767 83.17460317460318,157.03703703703704 83.59788359788361,156.61375661375664 84.02116402116403,155.978835978836 84.44444444444446,155.34391534391534 84.86772486772487,154.7089947089947 85.07936507936509,154.07407407407408 85.29100529100529,153.43915343915344 85.5026455026455,152.8042328042328 85.5026455026455,152.16931216931218 85.71428571428572,151.53439153439155 85.92592592592594,150.8994708994709 85.92592592592594,150.26455026455028 85.92592592592594,149.62962962962965 85.92592592592594,148.99470899470901 85.92592592592594,148.35978835978838 85.92592592592594,147.72486772486775 85.71428571428572,147.0899470899471 85.5026455026455,146.45502645502646 85.29100529100529,145.82010582010582 85.29100529100529,145.1851851851852 84.86772486772487,144.55026455026456 84.65608465608466,143.91534391534393 84.23280423280424,143.4920634920635 83.80952380952381,142.85714285714286 83.3862433862434,142.43386243386246 82.75132275132276,142.01058201058203 82.32804232804233,141.5873015873016 81.6931216931217,141.16402116402116 81.05820105820106,140.74074074074076 80.42328042328043,140.52910052910053 79.7883597883598,140.10582010582013 79.15343915343917,139.6825396825397 78.51851851851852,139.47089947089947 77.88359788359789,139.04761904761907 77.24867724867725,139.25925925925927 76.61375661375662,139.04761904761907 75.97883597883599,138.83597883597884 75.34391534391536,138.62433862433863 74.70899470899471,138.41269841269843 74.07407407407408,138.41269841269843 73.43915343915344,138.2010582010582 72.80423280423281,138.2010582010582 72.16931216931218,138.2010582010582 71.53439153439155,137.989417989418 70.8994708994709,137.989417989418 70.26455026455027,137.989417989418 69.62962962962963,137.989417989418 68.994708994709,137.989417989418 68.35978835978837,137.7777777777778 67.72486772486774,137.7777777777778 67.08994708994709,137.7777777777778 66.45502645502646,137.7777777777778 65.82010582010582,137.7777777777778 65.18518518518519,137.7777777777778 64.55026455026456,137.7777777777778 63.91534391534392,137.7777777777778 63.280423280423285,137.7777777777778 62.64550264550265,137.7777777777778 62.01058201058201,137.7777777777778 61.37566137566138,137.56613756613757 60.74074074074075,137.56613756613757 60.10582010582011,137.35449735449737 59.470899470899475,137.35449735449737 58.83597883597884,137.35449735449737 58.2010582010582,137.35449735449737 57.56613756613757,137.35449735449737 56.93121693121694,137.35449735449737 56.2962962962963,137.14285714285717 55.661375661375665,137.14285714285717 55.02645502645503,137.14285714285717 54.39153439153439,137.14285714285717 53.75661375661376,137.14285714285717 53.12169312169313,137.14285714285717 52.48677248677249,137.14285714285717 51.851851851851855,137.14285714285717 51.21693121693122,136.93121693121694 50.58201058201058,136.93121693121694 49.94708994708995,136.93121693121694 49.31216931216932,136.93121693121694 48.677248677248684,136.93121693121694 48.042328042328045,136.93121693121694 47.40740740740741,136.71957671957674 46.77248677248678,136.71957671957674 46.13756613756614,136.71957671957674 45.50264550264551,136.71957671957674 44.867724867724874,136.71957671957674 44.232804232804234,136.71957671957674 43.5978835978836,136.71957671957674 42.96296296296297,136.5079365079365 42.32804232804233,136.71957671957674 41.6931216931217,136.71957671957674 41.058201058201064,136.71957671957674 40.423280423280424,136.71957671957674 39.78835978835979,136.5079365079365 39.15343915343916,136.5079365079365 38.51851851851852,136.5079365079365 37.883597883597886,136.5079365079365 37.248677248677254,136.5079365079365 36.613756613756614,136.5079365079365 35.97883597883598,136.2962962962963 35.34391534391535,136.2962962962963 34.70899470899471,136.2962962962963 34.074074074074076,136.2962962962963 33.43915343915344,136.0846560846561 32.804232804232804,136.0846560846561 32.16931216931217,136.0846560846561 31.53439153439154,136.0846560846561 30.899470899470902,135.87301587301587 30.264550264550266,135.87301587301587 29.629629629629633,135.87301587301587 28.994708994708997,135.87301587301587 28.35978835978836,135.87301587301587 27.724867724867728,135.87301587301587 27.089947089947092,135.87301587301587 26.455026455026456,135.87301587301587 25.820105820105823,135.87301587301587 25.185185185185187,135.87301587301587 24.55026455026455,135.87301587301587 23.915343915343918,135.87301587301587 20.105820105820108,135.66137566137567" style="fill:none; stroke:#00aa99; stroke-width:1.0"  /><polyline points="20.105820105820108,135.66137566137567 21.7989417989418,132.06349206349208 22.010582010582013,131.42857142857144 22.222222222222225,130.7936507936508 22.433862433862437,130.15873015873018 22.857142857142858,129.52380952380955 23.06878306878307,128.88888888888889 23.280423280423282,128.25396825396825 23.703703703703706,127.61904761904763 23.915343915343918,126.98412698412699 24.338624338624342,126.34920634920636 24.55026455026455,125.71428571428572 24.761904761904763,125.07936507936509 25.185185185185187,124.44444444444446 25.3968253968254,123.80952380952382 25.60846560846561,123.17460317460318 26.031746031746035,122.53968253968254 26.031746031746035,121.90476190476191 26.455026455026456,121.26984126984128 26.666666666666668,120.63492063492065 27.089947089947092,120.00000000000001 27.301587301587304,119.36507936507937 27.513227513227516,118.73015873015873 27.513227513227516,118.0952380952381 27.724867724867728,117.46031746031747 27.93650793650794,116.82539682539684 28.35978835978836,116.1904761904762 28.571428571428573,115.55555555555557 28.783068783068785,114.92063492063492 28.994708994708997,114.28571428571429 29.20634920634921,113.65079365079366 29.41798941798942,113.01587301587303 29.841269841269842,112.3809523809524 30.052910052910054,111.74603174603176 30.264550264550266,111.11111111111111 30.476190476190478,110.47619047619048 30.68783068783069,109.84126984126985 31.111111111111114,109.20634920634922 31.322751322751326,108.57142857142858 31.53439153439154,107.93650793650795 31.746031746031747,107.3015873015873 31.95767195767196,106.66666666666667 31.95767195767196,106.03174603174604 32.38095238095239,105.3968253968254 32.592592592592595,104.76190476190477 32.804232804232804,104.12698412698414 33.01587301587302,103.4920634920635 33.22751322751323,102.85714285714286 33.43915343915344,102.22222222222223 33.65079365079365,101.5873015873016 33.86243386243387,100.95238095238096 34.28571428571429,100.31746031746033 34.4973544973545,99.68253968253968 34.70899470899471,99.04761904761905 34.920634920634924,98.41269841269842 35.13227513227513,97.77777777777779 35.34391534391535,97.14285714285715 35.55555555555556,96.50793650793652 35.76719576719577,95.87301587301587 35.97883597883598,95.23809523809524 36.402116402116405,94.60317460317461 36.613756613756614,93.96825396825398 36.82539682539683,93.33333333333334 37.03703703703704,92.69841269841271 37.248677248677254,92.06349206349208 37.46031746031746,91.42857142857143 37.67195767195768,90.7936507936508 37.67195767195768,90.15873015873017 37.883597883597886,89.52380952380953 38.095238095238095,88.8888888888889 38.095238095238095,88.25396825396827 38.095238095238095,87.61904761904762 38.095238095238095,86.98412698412699 38.095238095238095,86.34920634920636 38.095238095238095,85.71428571428572 37.883597883597886,85.07936507936509 37.67195767195768,84.44444444444446 37.46031746031746,83.80952380952381 37.03703703703704,83.17460317460318 36.82539682539683,82.53968253968254 36.402116402116405,81.90476190476191 35.97883597883598,81.26984126984128 35.55555555555556,80.84656084656085 35.13227513227513,80.42328042328043 34.70899470899471,80.0 34.28571428571429,79.57671957671958 33.65079365079365,79.15343915343917 33.01587301587302,78.94179894179895 32.38095238095239,78.51851851851852 31.746031746031747,78.51851851851852 31.111111111111114,78.30687830687832 30.476190476190478,78.30687830687832 29.841269841269842,78.30687830687832 29.20634920634921,78.30687830687832 28.571428571428573,78.51851851851852 27.93650793650794,78.51851851851852 27.301587301587304,78.73015873015873 26.666666666666668,78.73015873015873 26.031746031746035,78.94179894179895 25.3968253968254,79.15343915343917 24.761904761904763,79.15343915343917 24.12698412698413,79.36507936507937 23.492063492063494,79.36507936507937 22.857142857142858,79.57671957671958 22.222222222222225,79.57671957671958 21.58730158730159,79.7883597883598 20.952380952380953,79.7883597883598 20.31746031746032,79.7883597883598 19.682539682539684,80.0 19.047619047619047,80.0 18.412698412698415,80.0 17.77777777777778,80.0 17.142857142857146,80.0 16.50793650793651,80.0 15.873015873015873,80.0 15.238095238095239,80.0 14.603174603174605,80.0 13.96825396825397,80.0 13.333333333333334,80.0 12.6984126984127,79.7883597883598 12.063492063492065,79.7883597883598 11.428571428571429,79.7883597883598 10.793650793650794,79.57671957671958 10.15873015873016,79.36507936507937 9.523809523809524,79.15343915343917 8.88888888888889,79.15343915343917 8.253968253968255,78.73015873015873 7.6190476190476195,78.73015873015873 6.984126984126985,78.30687830687832 6.560846560846561,77.88359788359789 5.9259259259259265,77.46031746031747 5.502645502645503,76.82539682539684 5.07936507936508,76.4021164021164 4.867724867724868,75.76719576719577 4.444444444444445,75.34391534391536 4.2328042328042335,74.70899470899471 3.8095238095238098,74.07407407407408 3.597883597883598,73.43915343915344 3.3862433862433865,72.80423280423281 2.9629629629629632,72.16931216931218 2.7513227513227516,71.53439153439155 2.53968253968254,70.8994708994709 2.3280423280423284,70.26455026455027 2.3280423280423284,69.62962962962963 2.1164021164021167,68.994708994709 1.9047619047619049,68.35978835978837 1.6931216931216932,67.72486772486774 1.4814814814814816,67.08994708994709 1.4814814814814816,66.45502645502646 1.26984126984127,65.82010582010582 1.26984126984127,65.18518518518519 1.0582010582010584,64.55026455026456 0.8465608465608466,63.91534391534392 0.8465608465608466,63.280423280423285 0.8465608465608466,62.64550264550265 0.634920634920635,62.01058201058201 0.634920634920635,61.37566137566138 0.4232804232804233,60.74074074074075 0.4232804232804233,60.10582010582011 0.4232804232804233,59.470899470899475 0.21164021164021166,58.83597883597884 0.21164021164021166,58.2010582010582 0.21164021164021166,57.56613756613757 0.21164021164021166,56.93121693121694 0.21164021164021166,56.2962962962963 0.21164021164021166,55.661375661375665 0.21164021164021166,55.02645502645503 0.21164021164021166,54.39153439153439 0.21164021164021166,53.75661375661376 0.21164021164021166,53.12169312169313 0.21164021164021166,52.48677248677249 0.4232804232804233,51.851851851851855 0.634920634920635,51.21693121693122 1.0582010582010584,50.58201058201058 1.26984126984127,49.94708994708995 1.6931216931216932,49.523809523809526 2.1164021164021167,49.1005291005291 2.53968253968254,48.46560846560847 2.9629629629629632,48.042328042328045 3.3862433862433865,47.61904761904762 4.021164021164021,47.40740740740741 4.444444444444445,46.98412698412699 5.07936507936508,46.560846560846564 5.714285714285714,46.349206349206355 6.34920634920635,45.92592592592593 6.984126984126985,45.50264550264551 7.6190476190476195,45.07936507936508 8.253968253968255,44.65608465608466 8.88888888888889,44.44444444444445 9.523809523809524,44.021164021164026 10.15873015873016,43.80952380952381 10.793650793650794,43.386243386243386 11.428571428571429,43.17460317460318 12.063492063492065,42.96296296296297 12.6984126984127,42.75132275132275 13.333333333333334,42.32804232804233 13.96825396825397,42.32804232804233 14.603174603174605,42.11640211640212 15.238095238095239,41.904761904761905 15.873015873015873,41.6931216931217 16.50793650793651,41.6931216931217 17.142857142857146,41.48148148148149 17.77777777777778,41.26984126984127 18.412698412698415,41.26984126984127 19.047619047619047,41.058201058201064 19.682539682539684,41.058201058201064 20.105820105820108,40.63492063492064 20.740740740740744,40.84656084656085 21.375661375661377,40.63492063492064 22.010582010582013,40.63492063492064 22.645502645502646,40.63492063492064 23.280423280423282,40.63492063492064 23.915343915343918,40.63492063492064 24.55026455026455,40.63492063492064 25.185185185185187,40.63492063492064 25.820105820105823,40.63492063492064 26.455026455026456,40.63492063492064 27.089947089947092,40.84656084656085 27.724867724867728,40.84656084656085 28.14814814814815,41.26984126984127 28.783068783068785,41.6931216931217 29.41798941798942,41.904761904761905 29.841269841269842,42.32804232804233 30.476190476190478,42.75132275132275 31.111111111111114,43.17460317460318 31.53439153439154,43.5978835978836 31.95767195767196,44.021164021164026 32.38095238095239,44.44444444444445 32.804232804232804,45.07936507936508 33.22751322751323,45.50264550264551 33.43915343915344,46.13756613756614 33.86243386243387,46.77248677248678 34.074074074074076,47.40740740740741 34.4973544973545,48.042328042328045 34.70899470899471,48.677248677248684 35.13227513227513,49.1005291005291 35.34391534391535,49.73544973544974 35.76719576719577,50.370370370370374 35.97883597883598,51.00529100529101 36.402116402116405,51.640211640211646 36.613756613756614,52.27513227513228 37.03703703703704,52.91005291005291 37.248677248677254,53.54497354497355 37.67195767195768,53.968253968253975 37.883597883597886,54.60317460317461 38.30687830687831,55.23809523809524 38.51851851851852,55.87301587301588 38.730158730158735,56.50793650793651 39.15343915343916,57.142857142857146 39.57671957671958,57.777777777777786 40.0,58.41269841269842 40.423280423280424,59.04761904761905 40.84656084656085,59.682539682539684 41.26984126984127,60.31746031746032 41.6931216931217,60.74074074074075 42.11640211640212,61.16402116402117 42.539682539682545,61.58730158730159 43.17460317460318,62.01058201058201 43.80952380952381,62.22222222222223 44.232804232804234,62.64550264550265 44.867724867724874,63.06878306878308 45.50264550264551,63.280423280423285 46.13756613756614,63.492063492063494 46.77248677248678,63.70370370370371 47.40740740740741,63.91534391534392 48.042328042328045,63.70370370370371 48.677248677248684,63.70370370370371 49.31216931216932,63.70370370370371 49.94708994708995,63.492063492063494 50.58201058201058,63.280423280423285 51.21693121693122,63.06878306878308 51.851851851851855,62.85714285714286 52.27513227513228,62.43386243386244 52.6984126984127,62.01058201058201 53.12169312169313,61.58730158730159 53.54497354497355,61.16402116402117 53.968253968253975,60.52910052910053 54.39153439153439,60.10582010582011 54.81481481481482,59.470899470899475 55.02645502645503,58.83597883597884 55.23809523809524,58.2010582010582 55.449735449735456,57.56613756613757 55.87301587301588,56.93121693121694 56.08465608465609,56.2962962962963 56.2962962962963,55.661375661375665 56.50793650793651,55.02645502645503 56.71957671957672,54.39153439153439 57.142857142857146,53.968253968253975 57.35449735449736,53.333333333333336 57.56613756613757,52.6984126984127 57.989417989417994,52.06349206349207 58.2010582010582,51.42857142857143 58.41269841269842,50.7936507936508 58.83597883597884,50.158730158730165 59.04761904761905,49.523809523809526 59.25925925925927,48.88888888888889 59.470899470899475,48.25396825396826 59.682539682539684,47.61904761904762 60.10582010582011,46.98412698412699 60.31746031746032,46.349206349206355 60.52910052910053,45.714285714285715 60.952380952380956,45.07936507936508 61.16402116402117,44.44444444444445 61.58730158730159,43.80952380952381 61.798941798941804,43.17460317460318 62.22222222222223,42.539682539682545 62.64550264550265,41.904761904761905 62.85714285714286,41.26984126984127 63.280423280423285,40.63492063492064 63.492063492063494,40.0 63.91534391534392,39.36507936507937 64.12698412698413,38.730158730158735 64.55026455026456,38.30687830687831 64.76190476190477,37.67195767195768 65.18518518518519,37.03703703703704 65.3968253968254,36.402116402116405 65.82010582010582,35.76719576719577 66.03174603174604,35.13227513227513 66.45502645502646,34.4973544973545 66.66666666666667,33.86243386243387 67.08994708994709,33.22751322751323 67.51322751322752,32.592592592592595 67.72486772486774,31.95767195767196 68.14814814814815,31.322751322751326 68.57142857142858,30.68783068783069 68.78306878306879,30.052910052910054 69.20634920634922,29.41798941798942 69.62962962962963,28.783068783068785 69.84126984126985,28.14814814814815 70.05291005291006,27.513227513227516 70.47619047619048,27.089947089947092 70.6878306878307,26.455026455026456 71.11111111111111,25.820105820105823 71.53439153439155,25.185185185185187 71.74603174603175,24.55026455026455 72.16931216931218,23.915343915343918 72.5925925925926,23.280423280423282 73.01587301587303,22.645502645502646 73.22751322751323,22.010582010582013 73.65079365079366,21.375661375661377 73.86243386243387,20.740740740740744 74.28571428571429,20.31746031746032 74.49735449735451,19.682539682539684 74.92063492063492,19.25925925925926 75.13227513227514,18.624338624338627 75.55555555555556,18.201058201058203 75.76719576719577,17.566137566137566 76.19047619047619,17.142857142857146 76.4021164021164,16.50793650793651 76.82539682539684,15.873015873015873 77.24867724867725,15.238095238095239 77.46031746031747,14.603174603174605 77.67195767195767,13.96825396825397 78.0952380952381,13.544973544973546 78.0952380952381,12.910052910052912 78.51851851851852,12.486772486772487 78.94179894179895,11.851851851851853 79.15343915343917,11.216931216931219 79.57671957671958,10.793650793650794 79.7883597883598,10.15873015873016 80.21164021164022,9.523809523809524 80.63492063492065,8.88888888888889 81.05820105820106,8.253968253968255 81.48148148148148,7.6190476190476195 81.6931216931217,6.984126984126985 82.11640211640213,6.560846560846561 82.53968253968254,5.9259259259259265 82.75132275132276,5.291005291005291 83.17460317460318,4.867724867724868 83.59788359788361,4.2328042328042335 84.02116402116403,3.597883597883598 84.23280423280424,2.9629629629629632 84.65608465608466,2.53968253968254 86.13756613756614,0.21164021164021166" style="fill:none; stroke:#3300bb; stroke-width:1.0"  /><circle cx="86.13756613756614" cy="0.21164021164021166" r="2.0" style="fill:none; stroke:#000000aa; stroke-width:0.25" /><circle cx="202.32804232804233" cy="92.69841269841271" r="2.0" style="fill:none; stroke:#000000aa; stroke-width:0.25" /><circle cx="141.5873015873016" cy="185.1851851851852" r="2.0" style="fill:none; stroke:#000000aa; stroke-width:0.25" /><circle cx="20.105820105820108" cy="135.66137566137567" r="2.0" style="fill:none; stroke:#000000aa; stroke-width:0.25" /><circle cx="86.77248677248677" cy="0.21164021164021166" r="2.0" style="fill:none; stroke:#ff3366aa; stroke-width:0.25" /><circle cx="201.90476190476193" cy="92.69841269841271" r="2.0" style="fill:none; stroke:#ff3366aa; stroke-width:0.25" /><circle cx="141.3756613756614" cy="185.1851851851852" r="2.0" style="fill:none; stroke:#ff3366aa; stroke-width:0.25" /><circle cx="20.529100529100532" cy="135.02645502645504" r="2.0" style="fill:none; stroke:#ff3366aa; stroke-width:0.25" /><polyline points="96.08465608465609,7.407407407407408 95.44973544973546,6.984126984126985 95.02645502645504,6.560846560846561 94.39153439153439,6.137566137566138 93.75661375661376,5.714285714285714 93.12169312169313,5.291005291005291 92.4867724867725,4.867724867724868 92.06349206349208,4.444444444444445 91.42857142857143,4.021164021164021 90.7936507936508,3.597883597883598 90.15873015873017,3.174603174603175 89.73544973544975,2.7513227513227516 89.1005291005291,2.3280423280423284" style="fill:none; stroke:#001100; stroke-width:1.0" /><polyline points="80.21164021164022,9.523809523809524 80.63492063492065,8.88888888888889 81.05820105820106,8.253968253968255 81.48148148148148,7.6190476190476195 81.6931216931217,6.984126984126985 82.11640211640213,6.560846560846561 82.53968253968254,5.9259259259259265 82.75132275132276,5.291005291005291 83.17460317460318,4.867724867724868 83.59788359788361,4.2328042328042335 84.02116402116403,3.597883597883598 84.23280423280424,2.9629629629629632 84.65608465608466,2.53968253968254" style="fill:none; stroke:#000011; stroke-width:1.0" /><polyline points="195.34391534391537,102.64550264550266 195.76719576719577,102.01058201058201 196.1904761904762,101.37566137566138 196.61375661375664,100.74074074074075 197.03703703703704,100.10582010582011 197.46031746031747,99.47089947089948 197.8835978835979,99.04761904761905 198.0952380952381,98.41269841269842 198.51851851851853,97.77777777777779 198.94179894179896,97.35449735449737 199.36507936507937,96.71957671957672 199.7883597883598,96.08465608465609 200.21164021164023,95.66137566137567" style="fill:none; stroke:#001100; stroke-width:1.0" /><polyline points="192.16931216931218,86.13756613756614 192.8042328042328,86.56084656084657 193.22751322751324,86.98412698412699 193.86243386243387,87.1957671957672 194.2857142857143,87.61904761904762 194.92063492063494,88.04232804232805 195.55555555555557,88.46560846560847 196.1904761904762,88.67724867724868 196.61375661375664,89.1005291005291 197.24867724867727,89.52380952380953 197.8835978835979,89.73544973544975 198.30687830687833,90.15873015873017 198.94179894179896,90.58201058201058" style="fill:none; stroke:#000011; stroke-width:1.0" /><polyline points="132.06349206349208,178.62433862433863 132.6984126984127,179.04761904761907 133.33333333333334,179.4708994708995 133.96825396825398,179.8941798941799 134.3915343915344,180.31746031746033 135.02645502645504,180.74074074074076 135.66137566137567,181.16402116402116 136.0846560846561,181.5873015873016 136.71957671957674,181.79894179894183 137.14285714285717,182.22222222222223 137.7777777777778,182.64550264550266 138.41269841269843,183.0687830687831" style="fill:none; stroke:#001100; stroke-width:1.0" /><polyline points="147.72486772486775,175.23809523809524 147.51322751322752,175.87301587301587 147.0899470899471,176.50793650793653 146.66666666666669,176.93121693121694 146.45502645502646,177.56613756613757 146.03174603174605,177.989417989418 145.60846560846562,178.62433862433863 145.1851851851852,179.25925925925927 144.76190476190476,179.8941798941799 144.33862433862436,180.52910052910053 143.91534391534393,181.16402116402116 143.4920634920635,181.79894179894183 143.2804232804233,182.43386243386246" style="fill:none; stroke:#000011; stroke-width:1.0" /><polyline points="25.185185185185187,124.44444444444446 24.761904761904763,125.07936507936509 24.55026455026455,125.71428571428572 24.338624338624342,126.34920634920636 23.915343915343918,126.98412698412699 23.703703703703706,127.61904761904763 23.280423280423282,128.25396825396825 23.06878306878307,128.88888888888889 22.857142857142858,129.52380952380955 22.433862433862437,130.15873015873018 22.222222222222225,130.7936507936508 22.010582010582013,131.42857142857144 21.7989417989418,132.06349206349208" style="fill:none; stroke:#001100; stroke-width:1.0" /><polyline points="32.16931216931217,136.0846560846561 31.53439153439154,136.0846560846561 30.899470899470902,135.87301587301587 30.264550264550266,135.87301587301587 29.629629629629633,135.87301587301587 28.994708994708997,135.87301587301587 28.35978835978836,135.87301587301587 27.724867724867728,135.87301587301587 27.089947089947092,135.87301587301587 26.455026455026456,135.87301587301587 25.820105820105823,135.87301587301587 25.185185185185187,135.87301587301587 24.55026455026455,135.87301587301587 23.915343915343918,135.87301587301587" style="fill:none; stroke:#000011; stroke-width:1.0" /><polyline points="89.1005291005291,2.3280423280423284 71.95767195767196,-10.15873015873016" style="fill:none; stroke:#ffaa00; stroke-width:0.4" /><polyline points="84.65608465608466,2.53968253968254 96.08465608465609,-15.238095238095239" style="fill:none; stroke:#aaff00; stroke-width:0.4" /><polyline points="200.21164021164023,95.66137566137567 212.27513227513228,78.30687830687832" style="fill:none; stroke:#ffaa00; stroke-width:0.4" /><polyline points="198.94179894179896,90.58201058201058 216.71957671957674,102.22222222222223" style="fill:none; stroke:#aaff00; stroke-width:0.4" /><polyline points="138.41269841269843,183.0687830687831 155.76719576719577,195.13227513227514" style="fill:none; stroke:#ffaa00; stroke-width:0.4" /><polyline points="143.2804232804233,182.43386243386246 132.06349206349208,200.42328042328043" style="fill:none; stroke:#aaff00; stroke-width:0.4" /><polyline points="21.7989417989418,132.06349206349208 13.121693121693122,151.32275132275134" style="fill:none; stroke:#ffaa00; stroke-width:0.4" /><polyline points="23.915343915343918,135.87301587301587 2.7513227513227516,135.23809523809524" style="fill:none; stroke:#aaff00; stroke-width:0.4" /><circle cx="100.52910052910053" cy="102.43386243386244" r="1.0" style="fill:#444444; stroke-width:0" /><circle cx="127.83068783068784" cy="126.34920634920636" r="10.582010582010582" style="fill:#ff770022; stroke-width:0" /><circle cx="127.83068783068784" cy="126.34920634920636" r="1.0" style="fill:#ff7700; stroke-width:0" /></svg>