<?xml version="1.0" encoding="UTF-8" standalone="no"?><svg width="467.30158730158735" height="599.3650793650794" viewBox="-10 -10 175.76719576719577 219.7883597883598" xmlns="http://www.w3.org/2000/svg" xmlns:xlink="http://www.w3.org/1999/xlink"><polyline points="41.6931216931217,5.714285714285714 44.867724867724874,5.07936507936508 45.50264550264551,5.07936507936508 46.13756613756614,5.07936507936508 46.77248677248678,4.867724867724868 47.40740740740741,4.444444444444445 48.042328042328045,4.444444444444445 48.677248677248684,4.444444444444445 49.31216931216932,4.2328042328042335 49.94708994708995,4.2328042328042335 50.58201058201058,4.021164021164021 51.21693121693122,3.8095238095238098 51.851851851851855,3.8095238095238098 52.48677248677249,3.597883597883598 53.12169312169313,3.3862433862433865 53.75661375661376,3.174603174603175 54.39153439153439,3.174603174603175 55.02645502645503,2.9629629629629632 55.661375661375665,2.7513227513227516 56.2962962962963,2.53968253968254 56.93121693121694,2.53968253968254 57.56613756613757,2.3280423280423284 57.989417989417994,1.9047619047619049 58.62433862433863,1.9047619047619049 59.25925925925927,1.6931216931216932 59.8941798941799,1.4814814814814816 60.52910052910053,1.26984126984127 61.16402116402117,1.26984126984127 61.798941798941804,1.0582010582010584 62.43386243386244,0.8465608465608466 63.06878306878308,0.634920634920635 63.70370370370371,0.21164021164021166 64.33862433862434,0.21164021164021166 64.97354497354497,0.4232804232804233 65.60846560846561,0.4232804232804233 66.24338624338625,0.4232804232804233 66.87830687830689,0.4232804232804233 67.51322751322752,0.634920634920635 68.14814814814815,0.8465608465608466 68.78306878306879,1.26984126984127 69.41798941798942,1.6931216931216932 70.05291005291006,2.1164021164021167 70.47619047619048,2.53968253968254 70.8994708994709,2.9629629629629632 71.32275132275133,3.597883597883598 71.53439153439155,4.2328042328042335 71.74603174603175,4.867724867724868 71.95767195767196,5.502645502645503 71.95767195767196,6.137566137566138 72.16931216931218,6.772486772486773 71.95767195767196,7.407407407407408 71.95767195767196,8.042328042328043 71.95767195767196,8.677248677248677 71.74603174603175,9.312169312169313 71.53439153439155,9.947089947089948 71.32275132275133,10.582010582010582 71.11111111111111,11.216931216931219 71.11111111111111,11.851851851851853 70.8994708994709,12.486772486772487 70.47619047619048,13.121693121693122 70.26455026455027,13.756613756613758 69.84126984126985,14.391534391534393 69.62962962962963,15.026455026455027 69.20634920634922,15.449735449735451 68.994708994709,16.084656084656086 68.57142857142858,16.71957671957672 68.35978835978837,17.354497354497354 67.93650793650794,17.98941798941799 67.72486772486774,18.624338624338627 67.3015873015873,19.047619047619047 67.08994708994709,19.682539682539684 66.66666666666667,20.105820105820108 66.45502645502646,20.740740740740744 66.03174603174604,21.375661375661377 65.82010582010582,22.010582010582013 65.3968253968254,22.433862433862437 65.18518518518519,23.06878306878307 64.76190476190477,23.492063492063494 64.55026455026456,24.12698412698413 64.12698412698413,24.761904761904763 63.70370370370371,25.3968253968254 63.492063492063494,26.031746031746035 63.280423280423285,26.666666666666668 62.85714285714286,27.301587301587304 62.64550264550265,27.93650793650794 62.43386243386244,28.571428571428573 62.22222222222223,29.20634920634921 61.798941798941804,29.629629629629633 61.798941798941804,30.264550264550266 61.58730158730159,30.899470899470902 61.58730158730159,31.53439153439154 61.37566137566138,32.16931216931217 61.37566137566138,32.804232804232804 61.16402116402117,33.43915343915344 61.16402116402117,34.074074074074076 61.16402116402117,34.70899470899471 61.16402116402117,35.34391534391535 61.16402116402117,35.97883597883598 61.16402116402117,36.613756613756614 61.16402116402117,37.248677248677254 61.37566137566138,37.883597883597886 61.37566137566138,38.51851851851852 61.58730158730159,39.15343915343916 61.58730158730159,39.78835978835979 61.798941798941804,40.423280423280424 61.798941798941804,41.058201058201064 62.01058201058201,41.6931216931217 62.22222222222223,42.32804232804233 62.43386243386244,42.96296296296297 62.64550264550265,43.5978835978836 63.06878306878308,44.021164021164026 63.280423280423285,44.65608465608466 63.70370370370371,45.07936507936508 63.91534391534392,45.714285714285715 64.33862433862434,46.349206349206355 64.76190476190477,46.77248677248678 65.18518518518519,47.195767195767196 65.60846560846561,47.830687830687836 66.03174603174604,48.46560846560847 66.45502645502646,48.88888888888889 66.87830687830689,49.523809523809526 67.3015873015873,49.94708994708995 67.72486772486774,50.370370370370374 68.14814814814815,50.7936507936508 68.78306878306879,51.21693121693122 69.20634920634922,51.640211640211646 69.62962962962963,52.06349206349207 70.05291005291006,52.48677248677249 70.6878306878307,52.91005291005291 71.32275132275133,53.12169312169313 71.95767195767196,53.54497354497355 72.5925925925926,53.968253968253975 73.22751322751323,54.39153439153439 73.86243386243387,54.60317460317461 74.49735449735451,54.81481481481482 75.13227513227514,55.02645502645503 75.76719576719577,55.02645502645503 76.4021164021164,55.23809523809524 77.03703703703704,55.449735449735456 77.67195767195767,55.661375661375665 78.30687830687832,55.661375661375665 78.94179894179895,55.87301587301588 79.57671957671958,55.87301587301588 80.21164021164022,55.87301587301588 80.84656084656085,56.08465608465609 81.48148148148148,56.08465608465609 82.11640211640213,56.08465608465609 82.75132275132276,56.2962962962963 83.3862433862434,56.08465608465609 84.02116402116403,56.08465608465609 84.65608465608466,56.08465608465609 85.29100529100529,56.08465608465609 85.92592592592594,56.08465608465609 86.56084656084657,55.87301587301588 87.1957671957672,55.87301587301588 87.83068783068784,55.87301587301588 88.46560846560847,55.661375661375665 89.1005291005291,55.661375661375665 89.73544973544975,55.449735449735456 90.37037037037038,55.449735449735456 91.00529100529101,55.23809523809524 91.64021164021165,55.23809523809524 92.27513227513228,55.02645502645503 92.91005291005291,54.81481481481482 93.54497354497356,54.81481481481482 94.17989417989419,54.60317460317461 94.60317460317461,54.179894179894184 95.23809523809524,54.179894179894184 95.87301587301587,53.968253968253975 96.50793650793652,53.75661375661376 97.14285714285715,53.333333333333336 97.77777777777779,53.12169312169313 98.41269841269842,52.91005291005291 98.83597883597885,52.48677248677249 99.47089947089948,52.06349206349207 100.10582010582011,51.640211640211646 100.74074074074075,51.21693121693122 101.37566137566138,51.00529100529101 101.79894179894181,50.58201058201058 102.22222222222223,50.158730158730165 102.85714285714286,49.73544973544974 103.28042328042329,49.31216931216932 103.70370370370371,48.88888888888889 104.33862433862434,48.46560846560847 104.76190476190477,48.042328042328045 105.18518518518519,47.40740740740741 105.60846560846562,46.98412698412699 105.82010582010582,46.349206349206355 106.24338624338625,45.92592592592593 106.66666666666667,45.50264550264551 107.0899470899471,44.867724867724874 107.51322751322752,44.44444444444445 107.93650793650795,43.80952380952381 108.35978835978837,43.17460317460318 108.78306878306879,42.539682539682545 109.20634920634922,41.904761904761905 109.62962962962963,41.26984126984127 110.05291005291006,40.63492063492064 110.26455026455027,40.0 110.47619047619048,39.36507936507937 110.6878306878307,38.730158730158735 110.89947089947091,38.095238095238095 111.11111111111111,37.46031746031746 111.11111111111111,36.82539682539683 111.11111111111111,36.19047619047619 111.11111111111111,35.55555555555556 111.11111111111111,34.920634920634924 111.11111111111111,34.28571428571429 111.11111111111111,33.65079365079365 110.89947089947091,33.01587301587302 110.89947089947091,32.38095238095239 110.6878306878307,31.746031746031747 110.6878306878307,31.111111111111114 110.47619047619048,30.476190476190478 110.26455026455027,29.841269841269842 110.05291005291006,29.20634920634921 109.84126984126985,28.571428571428573 109.62962962962963,27.93650793650794 109.20634920634922,27.301587301587304 108.994708994709,26.666666666666668 108.57142857142858,26.031746031746035 108.35978835978837,25.3968253968254 107.93650793650795,24.761904761904763 107.51322751322752,24.12698412698413 107.0899470899471,23.492063492063494 106.66666666666667,22.857142857142858 106.24338624338625,22.222222222222225 105.82010582010582,21.7989417989418 105.60846560846562,21.164021164021165 105.18518518518519,20.740740740740744 104.97354497354497,20.105820105820108 104.55026455026456,19.682539682539684 104.12698412698414,19.047619047619047 103.91534391534393,18.412698412698415 103.4920634920635,17.77777777777778 103.28042328042329,17.142857142857146 103.06878306878308,16.50793650793651 102.85714285714286,15.873015873015873 102.64550264550266,15.238095238095239 102.43386243386244,14.603174603174605 102.22222222222223,13.96825396825397 102.22222222222223,13.333333333333334 102.22222222222223,12.6984126984127 102.22222222222223,12.063492063492065 102.22222222222223,11.428571428571429 102.43386243386244,10.793650793650794 102.64550264550266,10.15873015873016 103.06878306878308,9.523809523809524 103.4920634920635,9.100529100529101 103.91534391534393,8.677248677248677 104.55026455026456,8.253968253968255 105.18518518518519,8.042328042328043 105.82010582010582,7.6190476190476195 106.45502645502647,7.407407407407408 107.0899470899471,7.407407407407408 107.72486772486774,7.195767195767196 108.14814814814815,6.772486772486773 108.78306878306879,6.984126984126985 109.41798941798943,6.984126984126985 110.05291005291006,6.984126984126985 110.6878306878307,6.984126984126985 111.32275132275133,7.195767195767196 111.95767195767196,7.195767195767196 112.5925925925926,7.195767195767196 113.22751322751324,7.195767195767196 113.86243386243387,7.407407407407408 114.49735449735451,7.407407407407408 115.13227513227514,7.6190476190476195 115.76719576719577,7.6190476190476195 116.4021164021164,7.6190476190476195 117.03703703703705,7.830687830687832 117.67195767195768,7.830687830687832 118.30687830687832,8.042328042328043 118.94179894179895,8.042328042328043 119.57671957671958,8.253968253968255 120.21164021164022,8.253968253968255 120.84656084656086,8.253968253968255 121.4814814814815,8.465608465608467 122.11640211640213,8.465608465608467 122.75132275132276,8.677248677248677 123.3862433862434,8.677248677248677 124.02116402116403,8.677248677248677 124.65608465608466,8.677248677248677 125.2910052910053,8.88888888888889 125.92592592592594,8.677248677248677 126.56084656084657,8.88888888888889 127.1957671957672,8.88888888888889 127.83068783068784,8.88888888888889 128.46560846560848,8.88888888888889 129.10052910052912,8.88888888888889 129.73544973544975,8.88888888888889 130.37037037037038,9.100529100529101 131.005291005291,8.88888888888889 131.64021164021165,8.88888888888889 132.27513227513228,9.100529100529101 132.9100529100529,9.100529100529101 133.54497354497354,8.88888888888889 134.17989417989418,8.677248677248677 137.7777777777778,8.677248677248677" style="fill:none; stroke:#cc0000; stroke-width:1.0"  /><polyline points="137.7777777777778,8.677248677248677 138.41269841269843,11.851851851851853 138.41269841269843,12.486772486772487 138.62433862433863,13.121693121693122 138.83597883597884,13.756613756613758 138.83597883597884,14.391534391534393 138.83597883597884,15.026455026455027 139.04761904761907,15.661375661375663 139.25925925925927,16.296296296296298 139.25925925925927,16.931216931216934 139.47089947089947,17.566137566137566 139.6825396825397,18.201058201058203 139.6825396825397,18.83597883597884 139.8941798941799,19.47089947089947 140.10582010582013,20.105820105820108 140.10582010582013,20.740740740740744 140.31746031746033,21.375661375661377 140.31746031746033,22.010582010582013 140.52910052910053,22.645502645502646 140.74074074074076,23.280423280423282 140.95238095238096,23.915343915343918 140.95238095238096,24.55026455026455 141.16402116402116,25.185185185185187 141.3756613756614,25.820105820105823 141.5873015873016,26.455026455026456 141.5873015873016,27.089947089947092 141.7989417989418,27.724867724867728 142.01058201058203,28.35978835978836 142.01058201058203,28.994708994708997 142.22222222222223,29.629629629629633 142.43386243386246,30.264550264550266 142.43386243386246,30.899470899470902 142.64550264550266,31.53439153439154 142.85714285714286,32.16931216931217 143.0687830687831,32.804232804232804 143.0687830687831,33.43915343915344 143.2804232804233,34.074074074074076 143.4920634920635,34.70899470899471 143.70370370370372,35.34391534391535 143.70370370370372,35.97883597883598 143.91534391534393,36.613756613756614 144.12698412698413,37.248677248677254 144.33862433862436,37.883597883597886 144.55026455026456,38.51851851851852 144.76190476190476,39.15343915343916 144.76190476190476,39.78835978835979 144.973544973545,40.423280423280424 145.1851851851852,41.058201058201064 145.39682539682542,41.6931216931217 145.60846560846562,42.32804232804233 145.60846560846562,42.96296296296297 145.82010582010582,43.5978835978836 146.03174603174605,44.232804232804234 146.24338624338625,44.867724867724874 146.45502645502646,45.50264550264551 146.66666666666669,46.13756613756614 146.8783068783069,46.77248677248678 147.0899470899471,47.40740740740741 147.30158730158732,48.042328042328045 147.51322751322752,48.677248677248684 147.72486772486775,49.31216931216932 147.93650793650795,49.94708994708995 147.93650793650795,50.58201058201058 148.14814814814815,51.21693121693122 148.35978835978838,51.851851851851855 148.57142857142858,52.48677248677249 148.78306878306879,53.12169312169313 148.78306878306879,53.75661375661376 148.99470899470901,54.39153439153439 149.20634920634922,55.02645502645503 149.41798941798942,55.661375661375665 149.41798941798942,56.2962962962963 149.62962962962965,56.93121693121694 149.62962962962965,57.56613756613757 149.62962962962965,58.2010582010582 149.84126984126985,58.83597883597884 149.62962962962965,59.470899470899475 149.62962962962965,60.10582010582011 149.41798941798942,60.74074074074075 149.41798941798942,61.37566137566138 148.99470899470901,62.01058201058201 148.78306878306879,62.64550264550265 148.35978835978838,63.06878306878308 147.93650793650795,63.492063492063494 147.30158730158732,63.91534391534392 146.66666666666669,64.33862433862434 146.03174603174605,64.55026455026456 145.39682539682542,64.76190476190477 144.76190476190476,64.76190476190477 144.12698412698413,64.97354497354497 143.4920634920635,64.97354497354497 142.85714285714286,65.18518518518519 142.22222222222223,65.18518518518519 141.5873015873016,65.18518518518519 140.95238095238096,65.18518518518519 140.31746031746033,64.97354497354497 139.6825396825397,64.97354497354497 139.04761904761907,64.97354497354497 138.41269841269843,64.76190476190477 137.7777777777778,64.76190476190477 137.14285714285717,64.55026455026456 136.5079365079365,64.55026455026456 135.87301587301587,64.33862433862434 135.23809523809524,64.33862433862434 134.6031746031746,64.12698412698413 133.96825396825398,64.12698412698413 133.33333333333334,64.12698412698413 132.6984126984127,64.12698412698413 132.06349206349208,63.91534391534392 131.42857142857144,63.91534391534392 130.7936507936508,63.91534391534392 130.15873015873018,63.91534391534392 129.52380952380955,63.70370370370371 128.88888888888889,63.70370370370371 128.25396825396825,63.70370370370371 127.61904761904763,63.91534391534392 126.98412698412699,63.91534391534392 126.34920634920636,64.12698412698413 125.71428571428572,64.33862433862434 125.07936507936509,64.76190476190477 124.44444444444446,64.97354497354497 124.02116402116403,65.3968253968254 123.59788359788361,65.82010582010582 123.17460317460318,66.24338624338625 122.75132275132276,66.66666666666667 122.32804232804234,67.3015873015873 121.90476190476191,67.93650793650794 121.6931216931217,68.57142857142858 121.4814814814815,69.20634920634922 121.26984126984128,69.84126984126985 121.05820105820106,70.47619047619048 120.84656084656086,71.11111111111111 120.63492063492065,71.74603174603175 120.42328042328043,72.38095238095238 120.21164021164022,73.01587301587303 120.21164021164022,73.65079365079366 120.00000000000001,74.28571428571429 120.00000000000001,74.92063492063492 119.7883597883598,75.55555555555556 119.57671957671958,76.19047619047619 119.57671957671958,76.82539682539684 119.57671957671958,77.46031746031747 119.36507936507937,78.0952380952381 119.36507936507937,78.73015873015873 119.36507936507937,79.36507936507937 119.15343915343917,80.0 119.15343915343917,80.63492063492065 119.15343915343917,81.26984126984128 119.57671957671958,81.6931216931217 119.57671957671958,82.32804232804233 119.57671957671958,82.96296296296298 119.57671957671958,83.59788359788361 119.57671957671958,84.23280423280424 119.57671957671958,84.86772486772487 119.57671957671958,85.5026455026455 119.7883597883598,86.13756613756614 120.00000000000001,86.77248677248677 120.00000000000001,87.40740740740742 120.00000000000001,88.04232804232805 120.21164021164022,88.67724867724868 120.42328042328043,89.31216931216932 120.42328042328043,89.94708994708995 120.63492063492065,90.58201058201058 120.84656084656086,91.21693121693123 121.05820105820106,91.85185185185186 121.4814814814815,92.4867724867725 121.90476190476191,93.12169312169313 122.11640211640213,93.75661375661376 122.53968253968254,94.17989417989419 122.96296296296298,94.60317460317461 123.3862433862434,95.02645502645504 123.80952380952382,95.44973544973546 124.44444444444446,95.87301587301587 125.07936507936509,96.08465608465609 125.5026455026455,96.50793650793652 126.13756613756615,96.50793650793652 126.77248677248679,96.71957671957672 127.40740740740742,96.71957671957672 128.04232804232805,96.71957671957672 128.67724867724868,96.71957671957672 129.31216931216932,96.71957671957672 129.94708994708995,96.71957671957672 130.58201058201058,96.71957671957672 131.21693121693121,96.71957671957672 131.85185185185185,96.50793650793652 132.4867724867725,96.2962962962963 133.12169312169314,96.08465608465609 133.75661375661377,95.66137566137567 134.3915343915344,95.66137566137567 135.02645502645504,95.44973544973546 135.66137566137567,95.44973544973546 136.0846560846561,95.02645502645504 136.71957671957674,95.02645502645504 137.35449735449737,95.02645502645504 137.989417989418,95.02645502645504 138.62433862433863,95.02645502645504 139.25925925925927,94.81481481481482 139.8941798941799,94.81481481481482 140.95238095238096,94.81481481481482 141.5873015873016,95.02645502645504 142.01058201058203,94.60317460317461 142.64550264550266,94.81481481481482 143.2804232804233,95.02645502645504 143.91534391534393,95.02645502645504 144.55026455026456,95.02645502645504 145.1851851851852,95.02645502645504 145.82010582010582,95.02645502645504 146.45502645502646,95.02645502645504 147.0899470899471,95.23809523809524 147.72486772486775,95.23809523809524 148.35978835978838,95.44973544973546 148.99470899470901,95.44973544973546 149.62962962962965,95.44973544973546 150.26455026455028,95.66137566137567 150.8994708994709,95.87301587301587 151.53439153439155,96.2962962962963 152.16931216931218,96.50793650793652 152.8042328042328,96.71957671957672 153.22751322751324,97.14285714285715 153.86243386243387,97.56613756613757 154.2857142857143,97.989417989418 154.7089947089947,98.62433862433863 155.13227513227514,99.25925925925927 155.13227513227514,99.8941798941799 155.34391534391534,100.52910052910053 155.34391534391534,101.16402116402116 155.34391534391534,101.79894179894181 155.34391534391534,102.43386243386244 155.13227513227514,103.06878306878308 155.13227513227514,103.70370370370371 154.92063492063494,104.33862433862434 154.7089947089947,104.97354497354497 154.4973544973545,105.60846560846562 154.2857142857143,106.24338624338625 153.86243386243387,106.87830687830689 153.65079365079367,107.51322751322752 153.43915343915344,108.14814814814815 153.01587301587304,108.78306878306879 152.5925925925926,109.41798941798943 152.38095238095238,110.05291005291006 151.95767195767198,110.47619047619048 151.74603174603175,111.11111111111111 151.32275132275134,111.74603174603176 150.8994708994709,112.3809523809524 150.47619047619048,113.01587301587303 150.26455026455028,113.65079365079366 149.84126984126985,114.28571428571429 149.62962962962965,114.92063492063492 149.20634920634922,115.34391534391536 148.99470899470901,115.97883597883599 148.78306878306879,116.61375661375662 148.57142857142858,117.24867724867725 148.14814814814815,117.88359788359789 147.93650793650795,118.51851851851853 147.51322751322752,119.15343915343917 147.30158730158732,119.7883597883598 146.8783068783069,120.42328042328043 146.66666666666669,121.05820105820106 146.24338624338625,121.6931216931217 146.03174603174605,122.32804232804234 145.82010582010582,122.96296296296298 145.60846560846562,123.59788359788361 145.1851851851852,124.23280423280424 144.973544973545,124.86772486772487 144.76190476190476,125.5026455026455 144.55026455026456,126.13756613756615 144.33862433862436,126.77248677248679 143.91534391534393,127.40740740740742 143.70370370370372,128.04232804232805 143.4920634920635,128.67724867724868 143.2804232804233,129.31216931216932 142.85714285714286,129.94708994708995 142.85714285714286,130.58201058201058 142.43386243386246,131.21693121693121 142.22222222222223,131.85185185185185 142.01058201058203,132.4867724867725 141.7989417989418,133.12169312169314 141.5873015873016,133.75661375661377 141.3756613756614,134.3915343915344 141.16402116402116,135.02645502645504 140.95238095238096,135.66137566137567 140.74074074074076,136.2962962962963 140.52910052910053,136.93121693121694 140.52910052910053,137.56613756613757 140.31746031746033,138.2010582010582 140.10582010582013,138.83597883597884 139.8941798941799,139.47089947089947 139.8941798941799,140.10582010582013 139.6825396825397,140.74074074074076 139.47089947089947,141.3756613756614 139.47089947089947,142.01058201058203 139.25925925925927,142.64550264550266 139.25925925925927,143.2804232804233 139.04761904761907,143.91534391534393 138.83597883597884,144.55026455026456 138.83597883597884,145.1851851851852 138.62433862433863,145.82010582010582 138.62433862433863,146.45502645502646 138.62433862433863,147.0899470899471 138.41269841269843,147.72486772486775 137.989417989418,150.26455026455028" style="fill:none; stroke:#999900; stroke-width:1.0"  /><polyline points="137.989417989418,150.26455026455028 134.3915343915344,151.11111111111111 133.75661375661377,151.32275132275134 133.12169312169314,151.53439153439155 132.4867724867725,151.53439153439155 131.85185185185185,151.74603174603175 131.21693121693121,151.95767195767198 130.58201058201058,151.95767195767198 129.94708994708995,152.16931216931218 129.31216931216932,152.38095238095238 128.67724867724868,152.38095238095238 128.04232804232805,152.5925925925926 127.40740740740742,152.8042328042328 126.77248677248679,153.01587301587304 126.13756613756615,153.01587301587304 125.5026455026455,153.22751322751324 124.86772486772487,153.43915343915344 124.23280423280424,153.65079365079367 123.59788359788361,153.65079365079367 122.96296296296298,153.86243386243387 122.32804232804234,154.07407407407408 121.6931216931217,154.2857142857143 121.05820105820106,154.4973544973545 120.42328042328043,154.4973544973545 119.7883597883598,154.7089947089947 119.15343915343917,154.92063492063494 118.51851851851853,155.13227513227514 117.88359788359789,155.13227513227514 117.24867724867725,155.34391534391534 116.61375661375662,155.34391534391534 115.97883597883599,155.55555555555557 115.34391534391536,155.76719576719577 114.70899470899472,155.76719576719577 114.07407407407408,155.978835978836 113.43915343915344,155.978835978836 112.80423280423281,156.1904761904762 112.16931216931218,156.4021164021164 111.53439153439155,156.4021164021164 110.89947089947091,156.61375661375664 110.26455026455027,156.61375661375664 109.62962962962963,156.82539682539684 108.994708994709,156.82539682539684 108.35978835978837,156.82539682539684 107.72486772486774,156.82539682539684 107.0899470899471,157.03703703703704 106.45502645502647,157.03703703703704 105.82010582010582,157.24867724867727 105.18518518518519,157.24867724867727 104.55026455026456,157.24867724867727 103.91534391534393,157.24867724867727 103.28042328042329,157.24867724867727 102.64550264550266,157.24867724867727 102.01058201058201,157.24867724867727 101.37566137566138,157.46031746031747 100.74074074074075,157.46031746031747 100.10582010582011,157.67195767195767 99.47089947089948,157.67195767195767 98.83597883597885,157.67195767195767 98.2010582010582,157.8835978835979 97.56613756613757,158.0952380952381 96.93121693121694,158.0952380952381 96.2962962962963,158.0952380952381 95.66137566137567,158.0952380952381 95.02645502645504,158.0952380952381 94.39153439153439,158.30687830687833 93.75661375661376,158.30687830687833 93.12169312169313,158.30687830687833 92.4867724867725,158.51851851851853 91.85185185185186,158.51851851851853 91.21693121693123,158.51851851851853 90.58201058201058,158.51851851851853 89.94708994708995,158.73015873015873 89.31216931216932,158.73015873015873 88.67724867724868,158.73015873015873 88.04232804232805,158.94179894179896 87.40740740740742,158.94179894179896 86.77248677248677,159.15343915343917 86.13756613756614,159.36507936507937 85.5026455026455,159.36507936507937 84.86772486772487,159.5767195767196 84.23280423280424,160.0 83.59788359788361,160.21164021164023 82.96296296296298,160.63492063492066 82.32804232804233,161.05820105820106 81.6931216931217,161.4814814814815 81.26984126984128,161.90476190476193 80.84656084656085,162.32804232804233 80.42328042328043,162.96296296296296 80.0,163.3862433862434 79.7883597883598,164.02116402116403 79.36507936507937,164.65608465608466 79.15343915343917,165.2910052910053 78.73015873015873,165.92592592592595 78.51851851851852,166.56084656084658 78.51851851851852,167.19576719576722 78.51851851851852,167.83068783068785 78.51851851851852,168.46560846560848 78.51851851851852,169.10052910052912 78.51851851851852,169.73544973544975 78.51851851851852,170.37037037037038 78.73015873015873,171.005291005291 78.73015873015873,171.64021164021165 79.15343915343917,172.27513227513228 79.36507936507937,172.9100529100529 79.57671957671958,173.54497354497354 79.57671957671958,174.1798941798942 80.0,174.81481481481484 80.0,175.44973544973547 80.42328042328043,176.0846560846561 80.42328042328043,176.71957671957674 80.63492063492065,177.35449735449737 80.63492063492065,177.989417989418 80.84656084656085,178.62433862433863 81.05820105820106,179.25925925925927 81.05820105820106,179.8941798941799 81.26984126984128,180.52910052910053 81.48148148148148,181.16402116402116 81.48148148148148,181.79894179894183 81.6931216931217,182.43386243386246 81.6931216931217,183.0687830687831 81.90476190476191,183.70370370370372 81.90476190476191,184.33862433862436 81.90476190476191,184.973544973545 82.11640211640213,185.60846560846562 82.11640211640213,186.24338624338625 82.53968253968254,186.66666666666669 82.53968253968254,187.30158730158732 82.53968253968254,187.93650793650795 82.53968253968254,188.57142857142858 82.53968253968254,189.20634920634922 82.53968253968254,189.84126984126985 82.53968253968254,190.47619047619048 82.53968253968254,191.11111111111111 82.32804232804233,191.74603174603175 82.11640211640213,192.3809523809524 81.90476190476191,193.01587301587304 81.6931216931217,193.65079365079367 81.26984126984128,194.2857142857143 80.84656084656085,194.92063492063494 80.42328042328043,195.34391534391537 80.0,195.76719576719577 79.57671957671958,196.1904761904762 79.15343915343917,196.61375661375664 78.73015873015873,197.03703703703704 78.0952380952381,197.46031746031747 77.46031746031747,197.6719576719577 76.82539682539684,198.0952380952381 76.19047619047619,198.30687830687833 75.55555555555556,198.51851851851853 74.92063492063492,198.51851851851853 74.28571428571429,198.73015873015873 73.65079365079366,198.94179894179896 73.01587301587303,198.94179894179896 72.38095238095238,199.15343915343917 71.74603174603175,199.15343915343917 71.11111111111111,199.36507936507937 70.47619047619048,199.36507936507937 69.84126984126985,199.36507936507937 69.20634920634922,199.36507936507937 68.57142857142858,199.36507936507937 67.93650793650794,199.36507936507937 67.3015873015873,199.36507936507937 66.66666666666667,199.36507936507937 66.03174603174604,199.36507936507937 65.3968253968254,199.36507936507937 64.76190476190477,199.15343915343917 64.12698412698413,198.94179894179896 63.492063492063494,198.94179894179896 62.85714285714286,198.73015873015873 62.22222222222223,198.51851851851853 61.58730158730159,198.30687830687833 60.952380952380956,197.8835978835979 60.31746031746032,197.46031746031747 59.682539682539684,197.03703703703704 59.04761904761905,196.61375661375664 58.62433862433863,196.1904761904762 58.2010582010582,195.76719576719577 57.777777777777786,195.34391534391537 57.35449735449736,194.70899470899474 56.93121693121694,194.2857142857143 56.71957671957672,193.65079365079367 56.2962962962963,193.22751322751324 56.08465608465609,192.5925925925926 55.661375661375665,191.95767195767198 55.449735449735456,191.32275132275134 55.23809523809524,190.6878306878307 55.02645502645503,190.05291005291008 54.81481481481482,189.41798941798945 54.60317460317461,188.78306878306879 54.60317460317461,188.14814814814815 54.39153439153439,187.51322751322752 54.39153439153439,186.8783068783069 54.179894179894184,186.24338624338625 53.968253968253975,185.60846560846562 53.968253968253975,184.973544973545 53.968253968253975,184.33862433862436 54.179894179894184,183.70370370370372 54.39153439153439,183.0687830687831 54.60317460317461,182.43386243386246 54.60317460317461,181.79894179894183 54.81481481481482,181.16402116402116 55.02645502645503,180.52910052910053 55.23809523809524,179.8941798941799 55.449735449735456,179.25925925925927 55.661375661375665,178.62433862433863 55.87301587301588,177.989417989418 56.08465608465609,177.35449735449737 56.2962962962963,176.71957671957674 56.50793650793651,176.0846560846561 56.71957671957672,175.44973544973547 56.93121693121694,174.81481481481484 57.142857142857146,174.1798941798942 57.35449735449736,173.54497354497354 57.56613756613757,172.9100529100529 57.777777777777786,172.27513227513228 57.989417989417994,171.64021164021165 58.2010582010582,171.005291005291 58.41269841269842,170.37037037037038 58.62433862433863,169.73544973544975 58.83597883597884,169.10052910052912 58.83597883597884,168.46560846560848 59.04761904761905,167.83068783068785 59.04761904761905,167.19576719576722 59.04761904761905,166.56084656084658 59.04761904761905,165.92592592592595 59.04761904761905,165.2910052910053 58.83597883597884,164.65608465608466 58.83597883597884,164.02116402116403 58.41269841269842,163.3862433862434 58.2010582010582,162.75132275132276 57.777777777777786,162.32804232804233 57.35449735449736,161.6931216931217 56.93121693121694,161.2698412698413 56.50793650793651,160.84656084656086 56.08465608465609,160.42328042328043 55.449735449735456,160.0 54.81481481481482,159.7883597883598 54.179894179894184,159.5767195767196 53.54497354497355,159.15343915343917 52.91005291005291,159.15343915343917 52.27513227513228,158.94179894179896 51.640211640211646,158.94179894179896 51.00529100529101,158.94179894179896 50.370370370370374,158.94179894179896 49.73544973544974,158.94179894179896 49.1005291005291,158.94179894179896 48.46560846560847,158.94179894179896 47.830687830687836,158.94179894179896 47.195767195767196,158.94179894179896 46.560846560846564,158.94179894179896 45.92592592592593,158.94179894179896 45.29100529100529,159.15343915343917 44.65608465608466,159.15343915343917 44.021164021164026,159.15343915343917 43.386243386243386,159.15343915343917 39.36507936507937,159.36507936507937" style="fill:none; stroke:#00aa99; stroke-width:1.0"  /><polyline points="39.36507936507937,159.36507936507937 40.211640211640216,155.978835978836 40.423280423280424,155.34391534391534 40.63492063492064,154.7089947089947 40.63492063492064,154.07407407407408 40.84656084656085,153.43915343915344 41.058201058201064,152.8042328042328 41.058201058201064,152.16931216931218 41.058201058201064,151.53439153439155 41.26984126984127,150.8994708994709 41.48148148148149,150.26455026455028 41.6931216931217,149.62962962962965 41.904761904761905,148.99470899470901 41.904761904761905,148.35978835978838 42.11640211640212,147.72486772486775 42.32804232804233,147.0899470899471 42.32804232804233,146.45502645502646 42.539682539682545,145.82010582010582 42.539682539682545,145.1851851851852 42.75132275132275,144.55026455026456 42.96296296296297,143.91534391534393 42.96296296296297,143.2804232804233 43.17460317460318,142.64550264550266 43.17460317460318,142.01058201058203 43.386243386243386,141.3756613756614 43.386243386243386,140.74074074074076 43.5978835978836,140.10582010582013 43.5978835978836,139.47089947089947 43.80952380952381,138.83597883597884 44.021164021164026,138.2010582010582 44.021164021164026,137.56613756613757 44.232804232804234,136.93121693121694 44.232804232804234,136.2962962962963 44.44444444444445,135.66137566137567 44.44444444444445,135.02645502645504 44.65608465608466,134.3915343915344 44.65608465608466,133.75661375661377 44.867724867724874,133.12169312169314 44.867724867724874,132.4867724867725 45.07936507936508,131.85185185185185 45.07936507936508,131.21693121693121 45.29100529100529,130.58201058201058 45.29100529100529,129.94708994708995 45.29100529100529,129.31216931216932 45.50264550264551,128.67724867724868 45.50264550264551,128.04232804232805 45.714285714285715,127.40740740740742 45.714285714285715,126.77248677248679 45.714285714285715,126.13756613756615 45.714285714285715,125.5026455026455 45.92592592592593,124.86772486772487 45.92592592592593,124.23280423280424 45.92592592592593,123.59788359788361 46.13756613756614,122.96296296296298 46.13756613756614,122.32804232804234 46.13756613756614,121.6931216931217 46.349206349206355,121.05820105820106 46.349206349206355,120.42328042328043 46.349206349206355,119.7883597883598 46.560846560846564,119.15343915343917 46.560846560846564,118.51851851851853 46.560846560846564,117.88359788359789 46.560846560846564,117.24867724867725 46.560846560846564,116.61375661375662 46.560846560846564,115.97883597883599 46.560846560846564,115.34391534391536 46.77248677248678,114.70899470899472 46.77248677248678,114.07407407407408 46.77248677248678,113.43915343915344 46.77248677248678,112.80423280423281 46.98412698412699,112.16931216931218 46.98412698412699,111.53439153439155 46.98412698412699,110.89947089947091 46.98412698412699,110.26455026455027 46.98412698412699,109.62962962962963 47.195767195767196,108.994708994709 47.195767195767196,108.35978835978837 47.195767195767196,107.72486772486774 47.195767195767196,107.0899470899471 47.195767195767196,106.45502645502647 47.195767195767196,105.82010582010582 47.195767195767196,105.18518518518519 47.195767195767196,104.55026455026456 47.40740740740741,103.91534391534393 47.40740740740741,103.28042328042329 47.40740740740741,102.64550264550266 47.40740740740741,102.01058201058201 47.40740740740741,101.37566137566138 47.40740740740741,100.74074074074075 47.40740740740741,100.10582010582011 47.40740740740741,99.47089947089948 47.40740740740741,98.83597883597885 47.40740740740741,98.2010582010582 47.61904761904762,97.56613756613757 47.61904761904762,96.93121693121694 47.61904761904762,96.2962962962963 47.61904761904762,95.66137566137567 47.61904761904762,95.02645502645504 47.61904761904762,94.39153439153439 47.61904761904762,93.75661375661376 47.61904761904762,93.12169312169313 47.40740740740741,92.4867724867725 47.40740740740741,91.85185185185186 47.40740740740741,91.21693121693123 47.195767195767196,90.58201058201058 46.98412698412699,89.94708994708995 46.98412698412699,89.31216931216932 46.560846560846564,88.67724867724868 46.349206349206355,88.04232804232805 45.92592592592593,87.40740740740742 45.50264550264551,86.98412698412699 45.07936507936508,86.34920634920636 44.44444444444445,85.92592592592594 43.80952380952381,85.5026455026455 43.17460317460318,85.29100529100529 42.539682539682545,84.86772486772487 41.904761904761905,84.65608465608466 41.26984126984127,84.44444444444446 40.63492063492064,84.44444444444446 40.0,84.23280423280424 39.36507936507937,84.23280423280424 38.730158730158735,84.23280423280424 38.095238095238095,84.23280423280424 37.46031746031746,84.02116402116403 36.82539682539683,84.23280423280424 36.19047619047619,84.23280423280424 35.55555555555556,84.23280423280424 34.920634920634924,84.44444444444446 34.28571428571429,84.44444444444446 33.65079365079365,84.65608465608466 33.01587301587302,84.86772486772487 32.38095238095239,85.07936507936509 31.746031746031747,85.29100529100529 31.111111111111114,85.5026455026455 30.476190476190478,85.71428571428572 29.841269841269842,85.92592592592594 29.20634920634921,86.13756613756614 28.571428571428573,86.56084656084657 27.93650793650794,86.77248677248677 27.301587301587304,86.98412698412699 26.666666666666668,87.1957671957672 26.031746031746035,87.40740740740742 25.3968253968254,87.61904761904762 24.761904761904763,87.83068783068784 24.12698412698413,88.25396825396827 23.492063492063494,88.46560846560847 22.857142857142858,88.67724867724868 22.222222222222225,88.8888888888889 21.58730158730159,89.1005291005291 20.952380952380953,89.31216931216932 20.31746031746032,89.31216931216932 19.682539682539684,89.52380952380953 19.047619047619047,89.73544973544975 18.412698412698415,89.73544973544975 17.77777777777778,89.94708994708995 17.142857142857146,89.94708994708995 16.50793650793651,89.94708994708995 15.873015873015873,89.94708994708995 15.238095238095239,89.94708994708995 14.603174603174605,89.94708994708995 13.96825396825397,89.94708994708995 13.333333333333334,89.94708994708995 12.6984126984127,89.94708994708995 12.063492063492065,89.73544973544975 11.428571428571429,89.52380952380953 10.793650793650794,89.31216931216932 10.15873015873016,88.8888888888889 9.523809523809524,88.46560846560847 9.100529100529101,88.04232804232805 8.465608465608467,87.61904761904762 8.042328042328043,87.1957671957672 7.6190476190476195,86.77248677248677 6.984126984126985,86.34920634920636 6.560846560846561,85.92592592592594 6.137566137566138,85.5026455026455 5.714285714285714,84.86772486772487 5.291005291005291,84.44444444444446 4.867724867724868,83.80952380952381 4.444444444444445,83.17460317460318 4.021164021164021,82.75132275132276 3.597883597883598,82.11640211640213 3.174603174603175,81.6931216931217 2.9629629629629632,81.05820105820106 2.53968253968254,80.42328042328043 2.3280423280423284,79.7883597883598 2.1164021164021167,79.15343915343917 1.6931216931216932,78.51851851851852 1.4814814814814816,77.88359788359789 1.26984126984127,77.24867724867725 1.0582010582010584,76.61375661375662 0.8465608465608466,75.97883597883599 0.634920634920635,75.34391534391536 0.634920634920635,74.70899470899471 0.4232804232804233,74.07407407407408 0.4232804232804233,73.43915343915344 0.21164021164021166,72.80423280423281 0.21164021164021166,72.16931216931218 0.21164021164021166,71.53439153439155 0.21164021164021166,70.8994708994709 0.21164021164021166,70.26455026455027 0.21164021164021166,69.62962962962963 0.4232804232804233,68.994708994709 0.4232804232804233,68.35978835978837 0.634920634920635,67.72486772486774 0.8465608465608466,67.08994708994709 1.0582010582010584,66.45502645502646 1.26984126984127,65.82010582010582 1.4814814814814816,65.18518518518519 1.6931216931216932,64.55026455026456 1.9047619047619049,63.91534391534392 2.3280423280423284,63.280423280423285 2.53968253968254,62.64550264550265 2.9629629629629632,62.01058201058201 3.174603174603175,61.37566137566138 3.597883597883598,60.952380952380956 3.8095238095238098,60.31746031746032 4.2328042328042335,59.8941798941799 4.656084656084657,59.25925925925927 5.07936507936508,58.83597883597884 5.502645502645503,58.2010582010582 5.9259259259259265,57.777777777777786 6.34920634920635,57.35449735449736 6.772486772486773,56.71957671957672 7.407407407407408,56.2962962962963 7.830687830687832,55.87301587301588 8.465608465608467,55.449735449735456 9.100529100529101,55.02645502645503 9.735449735449736,54.60317460317461 10.370370370370372,54.39153439153439 11.005291005291006,53.968253968253975 11.640211640211641,53.75661375661376 12.275132275132275,53.333333333333336 12.910052910052912,53.12169312169313 13.544973544973546,53.12169312169313 14.17989417989418,52.91005291005291 14.814814814814817,52.91005291005291 15.449735449735451,52.6984126984127 16.084656084656086,52.6984126984127 16.71957671957672,52.6984126984127 17.354497354497354,52.6984126984127 17.98941798941799,52.6984126984127 18.624338624338627,52.91005291005291 19.25925925925926,52.91005291005291 19.894179894179896,53.12169312169313 20.529100529100532,53.12169312169313 21.164021164021165,53.333333333333336 21.7989417989418,53.54497354497355 22.433862433862437,53.75661375661376 23.06878306878307,53.75661375661376 23.703703703703706,54.179894179894184 24.338624338624342,54.39153439153439 24.973544973544975,54.39153439153439 25.60846560846561,54.81481481481482 26.243386243386244,55.02645502645503 26.87830687830688,55.23809523809524 27.301587301587304,55.661375661375665 27.93650793650794,55.661375661375665 28.35978835978836,56.08465608465609 28.994708994708997,56.08465608465609 29.41798941798942,56.50793650793651 30.052910052910054,56.93121693121694 30.68783068783069,57.142857142857146 31.111111111111114,57.56613756613757 31.746031746031747,57.777777777777786 32.16931216931217,58.2010582010582 32.804232804232804,58.41269841269842 33.43915343915344,58.83597883597884 34.074074074074076,59.25925925925927 34.70899470899471,59.682539682539684 35.34391534391535,59.8941798941799 35.97883597883598,60.31746031746032 36.613756613756614,60.52910052910053 37.248677248677254,60.952380952380956 37.883597883597886,61.16402116402117 38.51851851851852,61.37566137566138 39.15343915343916,61.58730158730159 39.78835978835979,61.798941798941804 40.423280423280424,61.798941798941804 41.058201058201064,61.798941798941804 41.6931216931217,62.01058201058201 42.32804232804233,62.01058201058201 42.96296296296297,61.798941798941804 43.5978835978836,61.798941798941804 44.232804232804234,61.58730158730159 44.867724867724874,61.37566137566138 45.50264550264551,60.952380952380956 46.13756613756614,60.52910052910053 46.560846560846564,60.10582010582011 46.98412698412699,59.470899470899475 47.40740740740741,59.04761904761905 47.61904761904762,58.41269841269842 48.042328042328045,57.777777777777786 48.25396825396826,57.142857142857146 48.46560846560847,56.50793650793651 48.46560846560847,55.87301587301588 48.46560846560847,55.23809523809524 48.46560846560847,54.60317460317461 48.46560846560847,53.968253968253975 48.46560846560847,53.333333333333336 48.46560846560847,52.6984126984127 48.46560846560847,52.06349206349207 48.25396825396826,51.42857142857143 48.042328042328045,50.7936507936508 48.042328042328045,50.158730158730165 47.830687830687836,49.523809523809526 47.61904761904762,48.88888888888889 47.61904761904762,48.25396825396826 47.40740740740741,47.61904761904762 47.40740740740741,46.98412698412699 46.98412698412699,46.560846560846564 46.98412698412699,45.92592592592593 46.77248677248678,45.29100529100529 46.77248677248678,44.65608465608466 46.560846560846564,44.021164021164026 46.349206349206355,43.386243386243386 46.349206349206355,42.75132275132275 46.13756613756614,42.11640211640212 46.13756613756614,41.48148148148149 45.92592592592593,40.84656084656085 45.92592592592593,40.211640211640216 45.714285714285715,39.57671957671958 45.714285714285715,38.94179894179894 45.50264550264551,38.30687830687831 45.50264550264551,37.67195767195768 45.29100529100529,37.03703703703704 45.29100529100529,36.402116402116405 45.07936507936508,35.76719576719577 44.867724867724874,35.13227513227513 44.867724867724874,34.4973544973545 44.65608465608466,33.86243386243387 44.65608465608466,33.22751322751323 44.65608465608466,32.592592592592595 44.44444444444445,31.95767195767196 44.44444444444445,31.322751322751326 44.232804232804234,30.68783068783069 44.232804232804234,30.052910052910054 44.232804232804234,29.41798941798942 44.021164021164026,28.783068783068785 44.021164021164026,28.14814814814815 43.80952380952381,27.513227513227516 43.80952380952381,26.87830687830688 43.5978835978836,26.243386243386244 43.5978835978836,25.60846560846561 43.5978835978836,24.973544973544975 43.386243386243386,24.338624338624342 43.386243386243386,23.703703703703706 43.386243386243386,23.06878306878307 43.17460317460318,22.433862433862437 43.17460317460318,21.7989417989418 43.17460317460318,21.164021164021165 42.96296296296297,20.529100529100532 42.96296296296297,19.894179894179896 42.96296296296297,19.25925925925926 42.96296296296297,18.624338624338627 42.75132275132275,17.98941798941799 42.75132275132275,17.354497354497354 42.75132275132275,16.71957671957672 42.75132275132275,16.084656084656086 42.539682539682545,15.449735449735451 42.539682539682545,14.814814814814817 42.539682539682545,14.17989417989418 42.539682539682545,13.544973544973546 42.539682539682545,12.910052910052912 42.539682539682545,12.275132275132275 42.11640211640212,11.640211640211641 42.11640211640212,11.005291005291006 42.11640211640212,10.370370370370372 41.904761904761905,9.735449735449736 41.6931216931217,5.714285714285714" style="fill:none; stroke:#3300bb; stroke-width:1.0"  /><circle cx="41.6931216931217" cy="5.714285714285714" r="2.0" style="fill:none; stroke:#000000aa; stroke-width:0.25" /><circle cx="137.7777777777778" cy="8.677248677248677" r="2.0" style="fill:none; stroke:#000000aa; stroke-width:0.25" /><circle cx="137.989417989418" cy="150.26455026455028" r="2.0" style="fill:none; stroke:#000000aa; stroke-width:0.25" /><circle cx="39.36507936507937" cy="159.36507936507937" r="2.0" style="fill:none; stroke:#000000aa; stroke-width:0.25" /><circle cx="41.904761904761905" cy="6.137566137566138" r="2.0" style="fill:none; stroke:#ff3366aa; stroke-width:0.25" /><circle cx="137.35449735449737" cy="8.88888888888889" r="2.0" style="fill:none; stroke:#ff3366aa; stroke-width:0.25" /><circle cx="137.56613756613757" cy="150.6878306878307" r="2.0" style="fill:none; stroke:#ff3366aa; stroke-width:0.25" /><circle cx="40.0" cy="159.15343915343917" r="2.0" style="fill:none; stroke:#ff3366aa; stroke-width:0.25" /><polyline points="53.12169312169313,3.3862433862433865 52.48677248677249,3.597883597883598 51.851851851851855,3.8095238095238098 51.21693121693122,3.8095238095238098 50.58201058201058,4.021164021164021 49.94708994708995,4.2328042328042335 49.31216931216932,4.2328042328042335 48.677248677248684,4.444444444444445 48.042328042328045,4.444444444444445 47.40740740740741,4.444444444444445 46.77248677248678,4.867724867724868 46.13756613756614,5.07936507936508 45.50264550264551,5.07936507936508 44.867724867724874,5.07936507936508" style="fill:none; stroke:#001100; stroke-width:1.0" /><polyline points="42.75132275132275,17.98941798941799 42.75132275132275,17.354497354497354 42.75132275132275,16.71957671957672 42.75132275132275,16.084656084656086 42.539682539682545,15.449735449735451 42.539682539682545,14.814814814814817 42.539682539682545,14.17989417989418 42.539682539682545,13.544973544973546 42.539682539682545,12.910052910052912 42.539682539682545,12.275132275132275 42.11640211640212,11.640211640211641 42.11640211640212,11.005291005291006 42.11640211640212,10.370370370370372 41.904761904761905,9.735449735449736 41.904761904761905,9.100529100529101" style="fill:none; stroke:#000011; stroke-width:1.0" /><polyline points="140.10582010582013,20.105820105820108 139.8941798941799,19.47089947089947 139.6825396825397,18.83597883597884 139.6825396825397,18.201058201058203 139.47089947089947,17.566137566137566 139.25925925925927,16.931216931216934 139.25925925925927,16.296296296296298 139.04761904761907,15.661375661375663 138.83597883597884,15.026455026455027 138.83597883597884,14.391534391534393 138.83597883597884,13.756613756613758 138.62433862433863,13.121693121693122 138.41269841269843,12.486772486772487 138.41269841269843,11.851851851851853" style="fill:none; stroke:#001100; stroke-width:1.0" /><polyline points="125.2910052910053,8.88888888888889 125.92592592592594,8.677248677248677 126.56084656084657,8.88888888888889 127.1957671957672,8.88888888888889 127.83068783068784,8.88888888888889 128.46560846560848,8.88888888888889 129.10052910052912,8.88888888888889 129.73544973544975,8.88888888888889 130.37037037037038,9.100529100529101 131.005291005291,8.88888888888889 131.64021164021165,8.88888888888889 132.27513227513228,9.100529100529101 132.9100529100529,9.100529100529101 133.54497354497354,8.88888888888889 134.17989417989418,8.677248677248677" style="fill:none; stroke:#000011; stroke-width:1.0" /><polyline points="126.13756613756615,153.01587301587304 126.77248677248679,153.01587301587304 127.40740740740742,152.8042328042328 128.04232804232805,152.5925925925926 128.67724867724868,152.38095238095238 129.31216931216932,152.38095238095238 129.94708994708995,152.16931216931218 130.58201058201058,151.95767195767198 131.21693121693121,151.95767195767198 131.85185185185185,151.74603174603175 132.4867724867725,151.53439153439155 133.12169312169314,151.53439153439155 133.75661375661377,151.32275132275134 134.3915343915344,151.11111111111111" style="fill:none; stroke:#001100; stroke-width:1.0" /><polyline points="139.8941798941799,139.47089947089947 139.8941798941799,140.10582010582013 139.6825396825397,140.74074074074076 139.47089947089947,141.3756613756614 139.47089947089947,142.01058201058203 139.25925925925927,142.64550264550266 139.25925925925927,143.2804232804233 139.04761904761907,143.91534391534393 138.83597883597884,144.55026455026456 138.83597883597884,145.1851851851852 138.62433862433863,145.82010582010582 138.62433862433863,146.45502645502646 138.62433862433863,147.0899470899471 138.41269841269843,147.72486772486775" style="fill:none; stroke:#000011; stroke-width:1.0" /><polyline points="42.11640211640212,147.72486772486775 41.904761904761905,148.35978835978838 41.904761904761905,148.99470899470901 41.6931216931217,149.62962962962965 41.48148148148149,150.26455026455028 41.26984126984127,150.8994708994709 41.058201058201064,151.53439153439155 41.058201058201064,152.16931216931218 41.058201058201064,152.8042328042328 40.84656084656085,153.43915343915344 40.63492063492064,154.07407407407408 40.63492063492064,154.7089947089947 40.423280423280424,155.34391534391534 40.211640211640216,155.978835978836" style="fill:none; stroke:#001100; stroke-width:1.0" /><polyline points="51.640211640211646,158.94179894179896 51.00529100529101,158.94179894179896 50.370370370370374,158.94179894179896 49.73544973544974,158.94179894179896 49.1005291005291,158.94179894179896 48.46560846560847,158.94179894179896 47.830687830687836,158.94179894179896 47.195767195767196,158.94179894179896 46.560846560846564,158.94179894179896 45.92592592592593,158.94179894179896 45.29100529100529,159.15343915343917 44.65608465608466,159.15343915343917 44.021164021164026,159.15343915343917 43.386243386243386,159.15343915343917" style="fill:none; stroke:#000011; stroke-width:1.0" /><polyline points="44.867724867724874,5.07936507936508 24.12698412698413,9.312169312169313" style="fill:none; stroke:#ffaa00; stroke-width:0.4" /><polyline points="41.904761904761905,9.100529100529101 40.0,-12.063492063492065" style="fill:none; stroke:#aaff00; stroke-width:0.4" /><polyline points="138.41269841269843,11.851851851851853 134.17989417989418,-8.88888888888889" style="fill:none; stroke:#ffaa00; stroke-width:0.4" /><polyline points="134.17989417989418,8.677248677248677 155.34391534391534,8.253968253968255" style="fill:none; stroke:#aaff00; stroke-width:0.4" /><polyline points="134.3915343915344,151.11111111111111 154.92063492063494,146.45502645502646" style="fill:none; stroke:#ffaa00; stroke-width:0.4" /><polyline points="138.41269841269843,147.72486772486775 134.6031746031746,168.46560846560848" style="fill:none; stroke:#aaff00; stroke-width:0.4" /><polyline points="40.211640211640216,155.978835978836 35.55555555555556,176.50793650793653" style="fill:none; stroke:#ffaa00; stroke-width:0.4" /><polyline points="43.386243386243386,159.15343915343917 22.222222222222225,159.7883597883598" style="fill:none; stroke:#aaff00; stroke-width:0.4" /><circle cx="85.29100529100529" cy="93.96825396825398" r="1.0" style="fill:#444444; stroke-width:0" /><circle cx="88.67724867724868" cy="117.88359788359789" r="10.582010582010582" style="fill:#ff770022; stroke-width:0" /><circle cx="88.67724867724868" cy="117.88359788359789" r="1.0" style="fill:#ff7700; stroke-width:0" /></svg>