<?xml version="1.0" encoding="UTF-8" standalone="no"?><svg width="699.0476190476192" height="422.8571428571429" viewBox="-10 -10 253.01587301587304 160.95238095238096" xmlns="http://www.w3.org/2000/svg" xmlns:xlink="http://www.w3.org/1999/xlink"><polyline points="1.26984126984127,9.947089947089948 5.291005291005291,9.947089947089948 5.9259259259259265,9.947089947089948 6.560846560846561,9.735449735449736 7.195767195767196,9.735449735449736 7.830687830687832,9.735449735449736 8.465608465608467,9.523809523809524 9.100529100529101,9.523809523809524 9.735449735449736,9.523809523809524 10.370370370370372,9.735449735449736 11.005291005291006,9.735449735449736 11.640211640211641,9.735449735449736 12.063492063492065,10.370370370370372 12.6984126984127,10.15873015873016 13.333333333333334,10.15873015873016 13.96825396825397,10.15873015873016 14.603174603174605,9.947089947089948 15.238095238095239,10.15873015873016 15.873015873015873,10.15873015873016 16.50793650793651,9.947089947089948 17.142857142857146,9.523809523809524 17.566137566137566,9.100529100529101 18.201058201058203,9.100529100529101 18.83597883597884,9.312169312169313 19.47089947089947,9.312169312169313 20.105820105820108,9.523809523809524 20.529100529100532,9.100529100529101 21.164021164021165,8.88888888888889 21.58730158730159,9.312169312169313 22.222222222222225,9.100529100529101 22.433862433862437,8.465608465608467 22.857142857142858,8.88888888888889 23.280423280423282,9.312169312169313 23.915343915343918,9.100529100529101 24.55026455026455,9.312169312169313 25.185185185185187,9.100529100529101 25.820105820105823,9.312169312169313 26.455026455026456,9.100529100529101 27.089947089947092,9.100529100529101 27.724867724867728,9.100529100529101 28.35978835978836,8.88888888888889 28.994708994708997,8.88888888888889 29.629629629629633,8.677248677248677 30.264550264550266,8.677248677248677 30.899470899470902,8.88888888888889 31.53439153439154,8.677248677248677 31.95767195767196,8.253968253968255 32.592592592592595,8.253968253968255 33.22751322751323,8.465608465608467 33.65079365079365,7.830687830687832 34.28571428571429,8.042328042328043 34.920634920634924,8.042328042328043 35.55555555555556,7.830687830687832 36.19047619047619,7.830687830687832 36.82539682539683,7.830687830687832 37.46031746031746,7.830687830687832 38.095238095238095,8.042328042328043 38.51851851851852,7.6190476190476195 39.15343915343916,8.042328042328043 39.78835978835979,8.042328042328043 40.423280423280424,8.042328042328043 41.058201058201064,8.042328042328043 41.6931216931217,8.042328042328043 42.32804232804233,8.042328042328043 42.96296296296297,7.830687830687832 41.904761904761905,7.195767195767196 41.48148148148149,7.6190476190476195 40.84656084656085,7.6190476190476195 40.0,7.407407407407408 40.63492063492064,7.195767195767196 41.26984126984127,7.195767195767196 41.904761904761905,7.195767195767196 42.539682539682545,7.195767195767196 43.17460317460318,7.195767195767196 43.80952380952381,7.407407407407408 44.44444444444445,7.407407407407408 45.07936507936508,7.195767195767196 45.50264550264551,7.6190476190476195 46.13756613756614,7.830687830687832 46.77248677248678,7.6190476190476195 47.195767195767196,7.195767195767196 47.830687830687836,7.195767195767196 48.46560846560847,7.6190476190476195 49.1005291005291,6.984126984126985 49.523809523809526,7.407407407407408 50.158730158730165,7.407407407407408 50.7936507936508,7.407407407407408 51.42857142857143,7.407407407407408 52.06349206349207,7.407407407407408 52.48677248677249,6.984126984126985 53.12169312169313,6.772486772486773 53.75661375661376,6.772486772486773 54.39153439153439,7.195767195767196 55.02645502645503,6.772486772486773 55.661375661375665,6.772486772486773 56.2962962962963,6.984126984126985 56.93121693121694,6.984126984126985 57.56613756613757,6.560846560846561 56.93121693121694,6.137566137566138 56.2962962962963,6.34920634920635 56.93121693121694,6.137566137566138 57.56613756613757,6.137566137566138 58.2010582010582,6.34920634920635 58.83597883597884,6.34920634920635 59.25925925925927,6.772486772486773 59.8941798941799,6.772486772486773 60.52910052910053,6.984126984126985 60.952380952380956,6.560846560846561 61.58730158730159,6.772486772486773 62.22222222222223,6.772486772486773 63.280423280423285,6.34920634920635 63.91534391534392,6.560846560846561 64.55026455026456,6.34920634920635 65.18518518518519,6.137566137566138 65.60846560846561,6.560846560846561 66.24338624338625,6.560846560846561 66.66666666666667,6.137566137566138 67.3015873015873,6.34920634920635 67.93650793650794,6.34920634920635 68.57142857142858,6.34920634920635 69.20634920634922,6.137566137566138 69.84126984126985,6.137566137566138 70.47619047619048,5.714285714285714 71.11111111111111,5.502645502645503 71.74603174603175,5.502645502645503 72.38095238095238,5.502645502645503 73.01587301587303,5.714285714285714 73.65079365079366,5.714285714285714 74.28571428571429,5.714285714285714 74.92063492063492,5.291005291005291 75.55555555555556,5.714285714285714 76.19047619047619,5.714285714285714 76.82539682539684,5.502645502645503 77.46031746031747,5.714285714285714 77.88359788359789,5.07936507936508 78.51851851851852,4.867724867724868 79.15343915343917,4.867724867724868 79.7883597883598,5.291005291005291 80.42328042328043,5.502645502645503 81.05820105820106,5.291005291005291 81.6931216931217,5.07936507936508 82.75132275132276,5.07936507936508 83.3862433862434,5.291005291005291 84.02116402116403,5.291005291005291 84.65608465608466,5.291005291005291 85.29100529100529,5.291005291005291 85.92592592592594,5.291005291005291 86.56084656084657,5.07936507936508 87.1957671957672,5.07936507936508 87.83068783068784,5.07936507936508 88.46560846560847,4.867724867724868 89.1005291005291,4.656084656084657 89.73544973544975,4.444444444444445 90.37037037037038,4.444444444444445 91.00529100529101,4.656084656084657 91.42857142857143,4.2328042328042335 92.06349206349208,4.444444444444445 92.69841269841271,4.444444444444445 93.33333333333334,4.2328042328042335 93.96825396825398,4.021164021164021 94.60317460317461,4.021164021164021 95.23809523809524,4.2328042328042335 95.87301587301587,4.444444444444445 96.50793650793652,4.444444444444445 97.14285714285715,4.444444444444445 97.77777777777779,4.444444444444445 98.41269841269842,4.444444444444445 98.62433862433863,3.8095238095238098 99.04761904761905,4.2328042328042335 99.68253968253968,4.021164021164021 100.31746031746033,4.021164021164021 101.37566137566138,4.021164021164021 102.01058201058201,4.2328042328042335 102.64550264550266,3.597883597883598 103.28042328042329,3.597883597883598 103.91534391534393,3.8095238095238098 104.55026455026456,4.021164021164021 105.18518518518519,3.8095238095238098 106.24338624338625,3.597883597883598 106.87830687830689,3.8095238095238098 107.3015873015873,3.3862433862433865 107.93650793650795,3.3862433862433865 108.57142857142858,3.3862433862433865 109.20634920634922,3.3862433862433865 109.84126984126985,3.174603174603175 110.47619047619048,3.174603174603175 110.89947089947091,3.597883597883598 111.53439153439155,3.3862433862433865 112.16931216931218,3.3862433862433865 112.80423280423281,3.3862433862433865 113.43915343915344,3.3862433862433865 114.07407407407408,3.3862433862433865 114.70899470899472,3.3862433862433865 115.34391534391536,3.3862433862433865 115.97883597883599,3.174603174603175 116.61375661375662,3.3862433862433865 117.24867724867725,3.174603174603175 117.88359788359789,2.9629629629629632 118.51851851851853,2.9629629629629632 119.15343915343917,2.7513227513227516 119.7883597883598,2.9629629629629632 120.42328042328043,2.9629629629629632 120.84656084656086,2.53968253968254 121.4814814814815,2.3280423280423284 121.6931216931217,2.9629629629629632 122.32804232804234,2.7513227513227516 122.96296296296298,2.7513227513227516 123.59788359788361,2.53968253968254 124.23280423280424,2.53968253968254 124.86772486772487,2.3280423280423284 125.5026455026455,2.3280423280423284 126.13756613756615,2.53968253968254 126.77248677248679,2.3280423280423284 127.40740740740742,2.3280423280423284 128.04232804232805,2.3280423280423284 128.67724867724868,2.3280423280423284 129.31216931216932,2.3280423280423284 130.15873015873018,2.1164021164021167 130.7936507936508,2.3280423280423284 131.42857142857144,2.3280423280423284 132.06349206349208,2.1164021164021167 132.6984126984127,1.9047619047619049 133.33333333333334,1.9047619047619049 133.96825396825398,1.9047619047619049 134.6031746031746,1.9047619047619049 135.23809523809524,1.9047619047619049 135.87301587301587,1.9047619047619049 136.5079365079365,1.6931216931216932 137.14285714285717,1.6931216931216932 137.7777777777778,1.6931216931216932 138.41269841269843,1.4814814814814816 139.04761904761907,1.4814814814814816 139.6825396825397,1.4814814814814816 140.31746031746033,1.4814814814814816 140.95238095238096,1.4814814814814816 141.5873015873016,1.26984126984127 142.22222222222223,1.26984126984127 142.85714285714286,1.0582010582010584 143.4920634920635,1.0582010582010584 144.12698412698413,1.26984126984127 144.76190476190476,1.0582010582010584 145.39682539682542,1.0582010582010584 146.03174603174605,0.8465608465608466 146.66666666666669,0.634920634920635 147.30158730158732,0.634920634920635 147.93650793650795,0.8465608465608466 148.57142857142858,0.634920634920635 149.20634920634922,0.634920634920635 149.84126984126985,0.634920634920635 150.47619047619048,0.634920634920635 151.11111111111111,0.634920634920635 151.74603174603175,0.4232804232804233 152.38095238095238,0.4232804232804233 153.01587301587304,0.4232804232804233 153.65079365079367,0.21164021164021166 154.2857142857143,0.21164021164021166 154.92063492063494,0.21164021164021166 158.94179894179896,0.0" style="fill:none; stroke:#cc0000; stroke-width:3.0" stroke-dasharray="6,3" /><polyline points="158.94179894179896,0.0 158.94179894179896,3.174603174603175 158.94179894179896,3.8095238095238098 158.94179894179896,4.444444444444445 158.94179894179896,5.07936507936508 158.73015873015873,5.714285714285714 158.73015873015873,6.34920634920635 158.73015873015873,6.984126984126985 158.73015873015873,7.6190476190476195 158.73015873015873,8.253968253968255 158.73015873015873,8.88888888888889 158.73015873015873,9.523809523809524 158.73015873015873,10.15873015873016 158.73015873015873,10.793650793650794 158.73015873015873,11.428571428571429 158.94179894179896,12.063492063492065 158.94179894179896,12.6984126984127 158.94179894179896,13.333333333333334 158.94179894179896,13.96825396825397 158.94179894179896,14.603174603174605 159.15343915343917,15.238095238095239 159.15343915343917,15.873015873015873 159.15343915343917,16.50793650793651 159.15343915343917,17.142857142857146 159.15343915343917,17.77777777777778 159.15343915343917,18.412698412698415 159.15343915343917,19.047619047619047 159.36507936507937,19.682539682539684 159.36507936507937,20.31746031746032 159.36507936507937,20.952380952380953 159.5767195767196,21.58730158730159 159.5767195767196,22.222222222222225 159.5767195767196,22.857142857142858 159.5767195767196,23.492063492063494 159.7883597883598,24.12698412698413 159.7883597883598,24.761904761904763 159.7883597883598,25.3968253968254 160.0,26.031746031746035 160.0,26.666666666666668 160.0,27.301587301587304 160.21164021164023,27.93650793650794 160.42328042328043,28.571428571428573 160.42328042328043,29.20634920634921 160.42328042328043,29.841269841269842 160.63492063492066,30.476190476190478 160.63492063492066,31.111111111111114 160.84656084656086,31.746031746031747 160.84656084656086,32.38095238095239 161.05820105820106,33.01587301587302 161.2698412698413,33.65079365079365 161.2698412698413,34.28571428571429 161.4814814814815,34.920634920634924 161.4814814814815,35.55555555555556 161.6931216931217,36.19047619047619 161.6931216931217,36.82539682539683 162.11640211640213,37.46031746031746 162.11640211640213,38.095238095238095 162.32804232804233,38.730158730158735 162.53968253968256,39.36507936507937 162.53968253968256,40.0 162.75132275132276,40.63492063492064 162.96296296296296,41.26984126984127 162.96296296296296,41.904761904761905 163.1746031746032,42.539682539682545 163.3862433862434,43.17460317460318 163.59788359788362,43.80952380952381 163.80952380952382,44.44444444444445 163.80952380952382,45.07936507936508 164.02116402116403,45.714285714285715 164.23280423280426,46.349206349206355 164.65608465608466,46.98412698412699 164.65608465608466,47.61904761904762 164.8677248677249,48.25396825396826 165.0793650793651,48.88888888888889 165.2910052910053,49.523809523809526 165.50264550264552,50.158730158730165 165.71428571428572,50.7936507936508 165.92592592592595,51.42857142857143 166.34920634920636,52.06349206349207 166.56084656084658,52.6984126984127 166.984126984127,53.333333333333336 167.40740740740742,53.968253968253975 167.83068783068785,54.60317460317461 168.25396825396825,55.02645502645503 168.67724867724868,55.661375661375665 169.31216931216932,56.08465608465609 169.73544973544975,56.50793650793651 170.37037037037038,56.93121693121694 170.7936507936508,57.35449735449736 171.42857142857144,57.56613756613757 171.85185185185188,57.989417989417994 172.4867724867725,57.989417989417994 173.12169312169314,57.989417989417994 173.75661375661377,58.41269841269842 174.3915343915344,58.41269841269842 175.02645502645504,58.41269841269842 175.66137566137567,58.41269841269842 176.2962962962963,58.41269841269842 176.93121693121694,58.41269841269842 177.56613756613757,58.2010582010582 178.2010582010582,58.2010582010582 178.83597883597884,57.777777777777786 179.4708994708995,57.56613756613757 180.10582010582013,57.35449735449736 180.74074074074076,56.93121693121694 181.3756613756614,56.71957671957672 181.79894179894183,56.2962962962963 182.43386243386246,55.87301587301588 183.0687830687831,55.449735449735456 183.4920634920635,55.02645502645503 183.91534391534393,54.60317460317461 184.33862433862436,54.179894179894184 184.7619047619048,53.75661375661376 185.1851851851852,53.12169312169313 185.60846560846562,52.48677248677249 186.03174603174605,52.06349206349207 186.45502645502646,51.640211640211646 186.8783068783069,51.00529100529101 187.30158730158732,50.58201058201058 187.72486772486775,50.158730158730165 188.14814814814815,49.523809523809526 188.57142857142858,49.1005291005291 188.99470899470901,48.677248677248684 189.41798941798945,48.042328042328045 189.84126984126985,47.61904761904762 190.26455026455028,47.195767195767196 190.6878306878307,46.77248677248678 191.11111111111111,46.13756613756614 191.53439153439155,45.714285714285715 192.16931216931218,45.29100529100529 192.5925925925926,44.867724867724874 193.22751322751324,44.44444444444445 193.65079365079367,44.021164021164026 194.2857142857143,43.5978835978836 194.92063492063494,43.17460317460318 195.34391534391537,42.75132275132275 195.76719576719577,42.32804232804233 196.4021164021164,41.904761904761905 197.03703703703704,41.48148148148149 197.6719576719577,41.058201058201064 198.30687830687833,40.84656084656085 198.73015873015873,40.423280423280424 199.15343915343917,40.0 199.7883597883598,39.78835978835979 200.42328042328043,39.36507936507937 201.05820105820106,38.94179894179894 201.6931216931217,38.730158730158735 202.11640211640213,38.30687830687831 202.75132275132276,38.095238095238095 203.1746031746032,37.67195767195768 203.80952380952382,37.46031746031746 204.44444444444446,37.03703703703704 205.0793650793651,36.82539682539683 205.71428571428572,36.402116402116405 206.34920634920636,36.402116402116405 206.984126984127,36.19047619047619 207.61904761904765,36.19047619047619 208.25396825396828,36.19047619047619 208.8888888888889,36.19047619047619 209.52380952380955,36.402116402116405 210.15873015873018,36.402116402116405 210.7936507936508,36.613756613756614 211.42857142857144,36.613756613756614 212.06349206349208,36.82539682539683 212.6984126984127,36.82539682539683 213.33333333333334,37.03703703703704 213.96825396825398,37.248677248677254 214.6031746031746,37.46031746031746 215.23809523809524,37.46031746031746 215.8730158730159,37.883597883597886 216.50793650793653,38.095238095238095 217.14285714285717,38.30687830687831 217.7777777777778,38.730158730158735 218.41269841269843,38.94179894179894 219.04761904761907,39.15343915343916 219.4708994708995,39.57671957671958 220.10582010582013,40.0 220.74074074074076,40.423280423280424 221.1640211640212,40.84656084656085 221.79894179894183,41.26984126984127 222.22222222222223,41.6931216931217 222.64550264550266,42.11640211640212 223.0687830687831,42.539682539682545 223.49206349206352,42.96296296296297 223.91534391534393,43.386243386243386 224.33862433862436,43.80952380952381 224.7619047619048,44.232804232804234 225.1851851851852,44.65608465608466 225.60846560846562,45.29100529100529 226.03174603174605,45.714285714285715 226.45502645502648,46.349206349206355 227.08994708994712,46.77248677248678 227.51322751322752,47.40740740740741 227.93650793650795,48.042328042328045 228.35978835978838,48.677248677248684 228.57142857142858,49.31216931216932 228.99470899470901,49.73544973544974 229.20634920634922,50.370370370370374 229.62962962962965,51.00529100529101 230.05291005291008,51.640211640211646 230.26455026455028,52.27513227513228 230.47619047619048,52.91005291005291 230.6878306878307,53.54497354497355 231.11111111111114,54.179894179894184 231.11111111111114,54.81481481481482 231.32275132275134,55.449735449735456 231.53439153439155,56.08465608465609 231.74603174603178,56.71957671957672 231.74603174603178,57.35449735449736 231.95767195767198,57.989417989417994 231.95767195767198,58.62433862433863 232.16931216931218,59.25925925925927 232.3809523809524,59.8941798941799 232.3809523809524,60.52910052910053 232.3809523809524,61.16402116402117 232.3809523809524,61.798941798941804 232.5925925925926,62.43386243386244 232.5925925925926,63.06878306878308 232.5925925925926,63.70370370370371 232.5925925925926,64.33862433862434 232.5925925925926,64.97354497354497 232.5925925925926,65.60846560846561 232.5925925925926,66.24338624338625 232.5925925925926,66.87830687830689 232.3809523809524,67.51322751322752 232.3809523809524,68.14814814814815 232.16931216931218,68.78306878306879 231.95767195767198,69.41798941798942 231.74603174603178,70.05291005291006 231.53439153439155,70.6878306878307 231.32275132275134,71.32275132275133 231.11111111111114,71.95767195767196 230.8994708994709,72.5925925925926 230.47619047619048,73.22751322751323 230.05291005291008,73.86243386243387 229.84126984126985,74.49735449735451 229.41798941798945,75.13227513227514 228.99470899470901,75.76719576719577 228.57142857142858,76.19047619047619 228.14814814814815,76.82539682539684 227.72486772486775,77.24867724867725 227.08994708994712,77.67195767195767 226.66666666666669,78.0952380952381 226.24338624338625,78.51851851851852 225.60846560846562,78.94179894179895 224.973544973545,79.36507936507937 224.33862433862436,79.7883597883598 223.70370370370372,80.21164021164022 223.0687830687831,80.42328042328043 222.64550264550266,80.84656084656085 222.01058201058203,81.05820105820106 221.5873015873016,81.48148148148148 220.95238095238096,81.6931216931217 220.31746031746033,82.11640211640213 219.6825396825397,82.32804232804233 219.04761904761907,82.53968253968254 218.41269841269843,82.75132275132276 217.7777777777778,83.17460317460318 217.14285714285717,83.3862433862434 216.50793650793653,83.3862433862434 215.8730158730159,83.80952380952381 215.23809523809524,83.80952380952381 214.6031746031746,84.02116402116403 213.96825396825398,84.23280423280424 213.33333333333334,84.23280423280424 212.6984126984127,84.44444444444446 212.06349206349208,84.44444444444446 211.42857142857144,84.65608465608466 210.7936507936508,84.65608465608466 210.15873015873018,84.86772486772487 209.52380952380955,84.86772486772487 208.8888888888889,84.86772486772487 208.25396825396828,84.86772486772487 207.61904761904765,84.86772486772487 206.984126984127,85.07936507936509 206.34920634920636,84.86772486772487 205.71428571428572,84.86772486772487 205.0793650793651,84.86772486772487 204.44444444444446,84.86772486772487 203.80952380952382,84.65608465608466 203.1746031746032,84.65608465608466 202.53968253968256,84.44444444444446 201.90476190476193,84.23280423280424 201.2698412698413,84.23280423280424 200.63492063492066,84.02116402116403 200.00000000000003,84.02116402116403 199.36507936507937,83.80952380952381 198.73015873015873,83.80952380952381 198.0952380952381,83.59788359788361 197.46031746031747,83.3862433862434 196.82539682539684,83.3862433862434 196.1904761904762,83.17460317460318 195.55555555555557,83.17460317460318 194.92063492063494,83.17460317460318 194.2857142857143,83.17460317460318 193.65079365079367,83.17460317460318 193.01587301587304,82.96296296296298 192.3809523809524,82.96296296296298 191.74603174603175,82.75132275132276 191.11111111111111,82.75132275132276 190.47619047619048,82.75132275132276 189.84126984126985,82.53968253968254 189.20634920634922,82.53968253968254 188.57142857142858,82.53968253968254 187.93650793650795,82.32804232804233 187.30158730158732,82.32804232804233 186.66666666666669,82.11640211640213 186.03174603174605,82.32804232804233 185.39682539682542,82.32804232804233 184.7619047619048,82.32804232804233 184.12698412698415,82.32804232804233 183.4920634920635,82.32804232804233 182.85714285714286,82.53968253968254 182.22222222222223,82.75132275132276 181.5873015873016,82.75132275132276 180.95238095238096,82.96296296296298 180.31746031746033,83.17460317460318 179.6825396825397,83.59788359788361 179.04761904761907,83.80952380952381 178.62433862433863,84.23280423280424 177.989417989418,84.44444444444446 177.56613756613757,84.86772486772487 177.14285714285717,85.29100529100529 176.71957671957674,85.71428571428572 176.2962962962963,86.13756613756614 175.87301587301587,86.56084656084657 175.44973544973547,87.1957671957672 175.02645502645504,87.83068783068784 174.81481481481484,88.46560846560847 174.81481481481484,89.1005291005291 174.6031746031746,89.73544973544975 174.3915343915344,90.37037037037038 174.1798941798942,91.00529100529101 174.1798941798942,91.64021164021165 174.1798941798942,92.27513227513228 174.1798941798942,92.91005291005291 174.1798941798942,93.54497354497356 174.1798941798942,94.17989417989419 174.1798941798942,94.81481481481482 174.1798941798942,95.44973544973546 174.1798941798942,96.08465608465609 174.1798941798942,96.71957671957672 174.1798941798942,97.35449735449737 174.1798941798942,97.989417989418 174.1798941798942,98.62433862433863 174.1798941798942,99.25925925925927 174.1798941798942,99.8941798941799 174.1798941798942,100.52910052910053 174.1798941798942,101.16402116402116 174.1798941798942,101.79894179894181 173.96825396825398,102.43386243386244 173.96825396825398,103.06878306878308 173.96825396825398,103.70370370370371 173.96825396825398,104.33862433862434 173.96825396825398,104.97354497354497 173.96825396825398,105.60846560846562 173.96825396825398,106.24338624338625 174.1798941798942,106.87830687830689 174.1798941798942,107.51322751322752 174.1798941798942,108.14814814814815 174.1798941798942,108.78306878306879 174.1798941798942,109.41798941798943 174.1798941798942,110.05291005291006 174.1798941798942,110.6878306878307 174.1798941798942,111.32275132275133 174.1798941798942,111.95767195767196 174.1798941798942,115.55555555555557" style="fill:none; stroke:#999900; stroke-width:1.0"  /><polyline points="174.1798941798942,115.55555555555557 171.42857142857144,117.46031746031747 171.005291005291,117.88359788359789 170.37037037037038,118.30687830687832 169.73544973544975,118.73015873015873 169.10052910052912,119.15343915343917 168.46560846560848,119.57671957671958 167.83068783068785,120.00000000000001 167.19576719576722,120.42328042328043 166.56084656084658,120.84656084656086 165.92592592592595,121.05820105820106 165.50264550264552,121.4814814814815 164.8677248677249,121.90476190476191 164.23280423280426,122.32804232804234 163.59788359788362,122.53968253968254 162.96296296296296,122.75132275132276 162.32804232804233,123.17460317460318 161.6931216931217,123.59788359788361 161.05820105820106,123.80952380952382 160.42328042328043,124.23280423280424 160.0,124.65608465608466 159.36507936507937,124.86772486772487 158.73015873015873,125.2910052910053 158.0952380952381,125.5026455026455 157.46031746031747,125.92592592592594 156.82539682539684,126.13756613756615 156.1904761904762,126.34920634920636 155.55555555555557,126.56084656084657 155.13227513227514,126.98412698412699 154.4973544973545,127.1957671957672 153.86243386243387,127.40740740740742 153.22751322751324,127.61904761904763 152.5925925925926,127.83068783068784 151.95767195767198,128.04232804232805 151.32275132275134,128.25396825396825 150.6878306878307,128.46560846560848 150.05291005291005,128.67724867724868 149.41798941798942,128.88888888888889 148.78306878306879,129.10052910052912 148.14814814814815,129.31216931216932 147.51322751322752,129.52380952380955 146.8783068783069,129.52380952380955 146.24338624338625,129.73544973544975 145.60846560846562,129.94708994708995 144.973544973545,130.15873015873018 144.33862433862436,130.15873015873018 143.70370370370372,130.37037037037038 143.0687830687831,130.37037037037038 142.43386243386246,130.58201058201058 141.7989417989418,130.58201058201058 141.16402116402116,130.37037037037038 140.52910052910053,130.15873015873018 139.8941798941799,130.15873015873018 139.25925925925927,129.73544973544975 138.62433862433863,129.52380952380955 138.2010582010582,129.10052910052912 137.56613756613757,128.67724867724868 137.14285714285717,128.04232804232805 136.93121693121694,127.40740740740742 136.71957671957674,126.77248677248679 136.5079365079365,126.13756613756615 136.5079365079365,125.5026455026455 136.5079365079365,124.86772486772487 136.5079365079365,124.23280423280424 136.71957671957674,123.59788359788361 136.93121693121694,122.96296296296298 137.14285714285717,122.32804232804234 137.14285714285717,121.6931216931217 137.56613756613757,121.05820105820106 137.56613756613757,120.42328042328043 137.7777777777778,119.7883597883598 137.989417989418,119.15343915343917 138.2010582010582,118.51851851851853 138.41269841269843,117.88359788359789 138.41269841269843,117.24867724867725 138.62433862433863,116.61375661375662 138.62433862433863,115.97883597883599 138.62433862433863,115.34391534391536 138.83597883597884,114.70899470899472 138.83597883597884,114.07407407407408 139.04761904761907,113.43915343915344 139.04761904761907,112.80423280423281 139.04761904761907,112.16931216931218 139.04761904761907,111.53439153439155 139.04761904761907,110.89947089947091 139.04761904761907,110.26455026455027 139.04761904761907,109.62962962962963 139.04761904761907,108.994708994709 139.04761904761907,108.35978835978837 139.04761904761907,107.72486772486774 139.04761904761907,107.0899470899471 138.83597883597884,106.45502645502647 138.62433862433863,105.82010582010582 138.62433862433863,105.18518518518519 138.41269841269843,104.55026455026456 138.2010582010582,103.91534391534393 137.7777777777778,103.28042328042329 137.56613756613757,102.64550264550266 137.14285714285717,102.01058201058201 136.71957671957674,101.5873015873016 136.2962962962963,100.95238095238096 135.87301587301587,100.52910052910053 135.23809523809524,100.10582010582011 134.81481481481484,99.68253968253968 134.17989417989418,99.47089947089948 133.54497354497354,99.04761904761905 132.9100529100529,98.83597883597885 132.27513227513228,98.41269841269842 131.64021164021165,98.2010582010582 131.005291005291,97.989417989418 130.37037037037038,97.77777777777779 129.73544973544975,97.56613756613757 129.10052910052912,97.56613756613757 128.46560846560848,97.35449735449737 127.83068783068784,97.35449735449737 127.1957671957672,97.14285714285715 126.56084656084657,96.93121693121694 125.92592592592594,96.93121693121694 125.2910052910053,96.93121693121694 124.65608465608466,96.93121693121694 124.02116402116403,96.93121693121694 123.3862433862434,96.93121693121694 122.75132275132276,97.14285714285715 122.11640211640213,97.14285714285715 121.4814814814815,97.14285714285715 120.84656084656086,97.14285714285715 120.21164021164022,97.35449735449737 119.57671957671958,97.35449735449737 118.94179894179895,97.56613756613757 118.30687830687832,97.56613756613757 117.67195767195768,97.77777777777779 117.03703703703705,97.989417989418 116.4021164021164,98.2010582010582 115.76719576719577,98.41269841269842 115.13227513227514,98.62433862433863 114.49735449735451,98.83597883597885 113.86243386243387,99.04761904761905 113.22751322751324,99.25925925925927 112.5925925925926,99.68253968253968 111.95767195767196,99.8941798941799 111.32275132275133,100.10582010582011 110.6878306878307,100.52910052910053 110.05291005291006,100.95238095238096 109.41798941798943,101.16402116402116 108.994708994709,101.5873015873016 108.35978835978837,102.01058201058201 107.72486772486774,102.43386243386244 107.3015873015873,102.85714285714286 106.66666666666667,103.28042328042329 106.24338624338625,103.70370370370371 105.82010582010582,104.12698412698414 105.3968253968254,104.55026455026456 104.97354497354497,104.97354497354497 104.55026455026456,105.3968253968254 104.12698412698414,106.03174603174604 103.70370370370371,106.66666666666667 103.4920634920635,107.3015873015873 103.28042328042329,107.93650793650795 103.06878306878308,108.57142857142858 102.85714285714286,109.20634920634922 102.85714285714286,109.84126984126985 102.64550264550266,110.47619047619048 102.64550264550266,111.11111111111111 102.64550264550266,111.74603174603176 102.64550264550266,112.3809523809524 102.64550264550266,113.01587301587303 102.85714285714286,113.65079365079366 102.85714285714286,114.28571428571429 102.85714285714286,114.92063492063492 103.06878306878308,115.55555555555557 103.28042328042329,116.1904761904762 103.4920634920635,116.82539682539684 103.70370370370371,117.46031746031747 104.12698412698414,118.0952380952381 104.33862433862434,118.73015873015873 104.55026455026456,119.36507936507937 104.97354497354497,120.00000000000001 105.18518518518519,120.63492063492065 105.60846560846562,121.26984126984128 106.03174603174604,121.6931216931217 106.45502645502647,122.32804232804234 106.87830687830689,122.96296296296298 107.3015873015873,123.3862433862434 107.72486772486774,123.80952380952382 108.14814814814815,124.23280423280424 108.57142857142858,124.86772486772487 108.994708994709,125.2910052910053 109.41798941798943,125.71428571428572 109.84126984126985,126.13756613756615 110.26455026455027,126.56084656084657 110.6878306878307,126.98412698412699 111.11111111111111,127.61904761904763 111.53439153439155,128.25396825396825 111.95767195767196,128.67724867724868 112.16931216931218,129.31216931216932 112.5925925925926,129.73544973544975 112.80423280423281,130.37037037037038 113.22751322751324,131.005291005291 113.43915343915344,131.64021164021165 113.86243386243387,132.27513227513228 114.07407407407408,132.9100529100529 114.07407407407408,133.54497354497354 114.07407407407408,134.17989417989418 114.28571428571429,134.81481481481484 114.28571428571429,135.44973544973547 114.28571428571429,136.0846560846561 114.07407407407408,136.71957671957674 113.86243386243387,137.35449735449737 113.65079365079366,137.989417989418 113.22751322751324,138.62433862433863 112.80423280423281,139.04761904761907 112.16931216931218,139.47089947089947 111.53439153439155,139.6825396825397 110.89947089947091,140.10582010582013 110.26455026455027,140.31746031746033 109.62962962962963,140.31746031746033 108.994708994709,140.31746031746033 108.35978835978837,140.52910052910053 107.72486772486774,140.52910052910053 107.0899470899471,140.52910052910053 106.45502645502647,140.31746031746033 105.82010582010582,140.31746031746033 105.18518518518519,140.10582010582013 104.55026455026456,139.8941798941799 103.91534391534393,139.8941798941799 103.28042328042329,139.6825396825397 102.64550264550266,139.6825396825397 102.01058201058201,139.47089947089947 101.37566137566138,139.25925925925927 100.74074074074075,139.04761904761907 100.10582010582011,139.04761904761907 99.47089947089948,138.83597883597884 98.83597883597885,138.62433862433863 98.2010582010582,138.62433862433863 97.56613756613757,138.41269841269843 96.93121693121694,138.2010582010582 96.2962962962963,137.989417989418 95.66137566137567,137.7777777777778 95.02645502645504,137.7777777777778 94.39153439153439,137.56613756613757 93.75661375661376,137.35449735449737 93.12169312169313,137.14285714285717 92.4867724867725,136.93121693121694 91.85185185185186,136.71957671957674 91.21693121693123,136.5079365079365 90.58201058201058,136.2962962962963 89.94708994708995,136.2962962962963 89.31216931216932,136.0846560846561 88.67724867724868,136.0846560846561 88.04232804232805,135.87301587301587 87.40740740740742,135.66137566137567 86.77248677248677,135.44973544973547 86.13756613756614,135.23809523809524 85.5026455026455,135.02645502645504 84.86772486772487,134.81481481481484 84.23280423280424,134.6031746031746 83.59788359788361,134.3915343915344 82.96296296296298,134.17989417989418 82.32804232804233,133.96825396825398 81.6931216931217,133.75661375661377 81.05820105820106,133.54497354497354 80.42328042328043,133.33333333333334 79.7883597883598,132.9100529100529 79.15343915343917,132.9100529100529 78.51851851851852,132.4867724867725 77.88359788359789,132.27513227513228 77.24867724867725,132.06349206349208 76.61375661375662,131.85185185185185 75.97883597883599,131.64021164021165 75.34391534391536,131.42857142857144 74.70899470899471,131.21693121693121 74.07407407407408,131.005291005291 73.43915343915344,130.7936507936508 72.80423280423281,130.58201058201058 72.16931216931218,130.37037037037038 71.53439153439155,130.15873015873018 70.8994708994709,129.94708994708995 70.26455026455027,129.73544973544975 69.62962962962963,129.52380952380955 68.994708994709,129.31216931216932 68.35978835978837,129.10052910052912 67.72486772486774,128.88888888888889 67.08994708994709,128.67724867724868 66.45502645502646,128.46560846560848 65.82010582010582,128.25396825396825 65.18518518518519,128.25396825396825 64.55026455026456,128.04232804232805 63.91534391534392,127.83068783068784 63.280423280423285,127.61904761904763 62.64550264550265,127.40740740740742 62.01058201058201,127.1957671957672 61.37566137566138,126.98412698412699 60.74074074074075,126.77248677248679 60.10582010582011,126.56084656084657 59.470899470899475,126.34920634920636 58.83597883597884,126.13756613756615 58.2010582010582,125.92592592592594 57.56613756613757,125.92592592592594 56.93121693121694,125.71428571428572 56.2962962962963,125.5026455026455 55.661375661375665,125.2910052910053 55.02645502645503,125.5026455026455 54.39153439153439,125.2910052910053 53.75661375661376,125.07936507936509 53.12169312169313,124.86772486772487 52.48677248677249,124.65608465608466 51.851851851851855,124.65608465608466 51.21693121693122,124.23280423280424 50.58201058201058,124.23280423280424 49.94708994708995,124.02116402116403 49.31216931216932,123.80952380952382 48.677248677248684,123.80952380952382 48.042328042328045,123.59788359788361 47.40740740740741,123.3862433862434 46.77248677248678,123.17460317460318 46.13756613756614,123.17460317460318 45.50264550264551,122.96296296296298 44.867724867724874,122.75132275132276 44.232804232804234,122.75132275132276 43.5978835978836,122.53968253968254 42.96296296296297,122.53968253968254 42.32804232804233,122.32804232804234 41.6931216931217,122.11640211640213 41.058201058201064,121.90476190476191 40.423280423280424,121.90476190476191 39.78835978835979,121.6931216931217 39.15343915343916,121.6931216931217 38.51851851851852,121.4814814814815 37.883597883597886,121.4814814814815 37.248677248677254,121.26984126984128 36.613756613756614,121.26984126984128 35.97883597883598,121.05820105820106 35.34391534391535,121.05820105820106 34.70899470899471,120.84656084656086 34.074074074074076,120.84656084656086 33.43915343915344,120.63492063492065 32.804232804232804,120.63492063492065 32.16931216931217,120.63492063492065 31.53439153439154,120.42328042328043 30.899470899470902,120.42328042328043 30.264550264550266,120.42328042328043 29.629629629629633,120.21164021164022 28.994708994708997,120.21164021164022 28.35978835978836,120.21164021164022 27.724867724867728,120.00000000000001 27.089947089947092,120.00000000000001 26.455026455026456,120.00000000000001 25.820105820105823,120.00000000000001 25.185185185185187,119.7883597883598 24.55026455026455,119.7883597883598 23.915343915343918,119.7883597883598 23.280423280423282,119.7883597883598 22.645502645502646,119.57671957671958 22.010582010582013,119.57671957671958 21.375661375661377,119.57671957671958 20.740740740740744,119.57671957671958 20.105820105820108,119.7883597883598 19.47089947089947,119.7883597883598 18.83597883597884,119.7883597883598 18.201058201058203,119.7883597883598 17.566137566137566,119.7883597883598 16.931216931216934,119.57671957671958 16.296296296296298,119.57671957671958 15.661375661375663,119.57671957671958 15.026455026455027,119.57671957671958 14.391534391534393,119.57671957671958 13.756613756613758,119.57671957671958 9.947089947089948,119.57671957671958" style="fill:none; stroke:#00aa99; stroke-width:1.0"  /><polyline points="9.947089947089948,119.57671957671958 10.370370370370372,116.4021164021164 10.370370370370372,115.76719576719577 10.582010582010582,115.13227513227514 10.582010582010582,114.49735449735451 10.582010582010582,113.86243386243387 10.793650793650794,113.22751322751324 10.793650793650794,112.5925925925926 10.793650793650794,111.95767195767196 10.793650793650794,111.32275132275133 11.005291005291006,110.6878306878307 11.005291005291006,110.05291005291006 11.216931216931219,109.41798941798943 11.216931216931219,108.78306878306879 11.216931216931219,108.14814814814815 11.428571428571429,107.51322751322752 11.428571428571429,106.87830687830689 11.640211640211641,106.24338624338625 11.640211640211641,105.60846560846562 11.640211640211641,104.97354497354497 11.851851851851853,104.33862433862434 11.851851851851853,103.70370370370371 12.063492063492065,103.06878306878308 12.063492063492065,102.43386243386244 12.063492063492065,101.79894179894181 12.275132275132275,101.16402116402116 12.275132275132275,100.52910052910053 12.486772486772487,99.8941798941799 12.486772486772487,99.25925925925927 12.6984126984127,98.62433862433863 12.6984126984127,97.989417989418 12.910052910052912,97.35449735449737 13.121693121693122,96.71957671957672 13.121693121693122,96.08465608465609 13.544973544973546,95.44973544973546 13.756613756613758,94.81481481481482 14.17989417989418,94.39153439153439 14.603174603174605,93.75661375661376 15.026455026455027,93.33333333333334 15.449735449735451,92.69841269841271 16.084656084656086,92.27513227513228 16.71957671957672,91.85185185185186 17.354497354497354,91.64021164021165 17.98941798941799,91.42857142857143 18.624338624338627,91.42857142857143 19.25925925925926,91.21693121693123 19.894179894179896,91.21693121693123 20.529100529100532,91.00529100529101 21.164021164021165,91.00529100529101 21.7989417989418,91.00529100529101 22.433862433862437,91.00529100529101 23.06878306878307,91.00529100529101 23.703703703703706,91.00529100529101 24.338624338624342,91.21693121693123 24.973544973544975,91.21693121693123 25.60846560846561,91.42857142857143 26.243386243386244,91.42857142857143 26.87830687830688,91.21693121693123 27.301587301587304,91.64021164021165 27.93650793650794,91.42857142857143 28.571428571428573,91.21693121693123 29.20634920634921,91.42857142857143 29.629629629629633,91.85185185185186 30.264550264550266,91.85185185185186 30.899470899470902,92.06349206349208 31.53439153439154,92.06349206349208 32.592592592592595,92.27513227513228 33.22751322751323,92.27513227513228 33.86243386243387,92.69841269841271 34.4973544973545,92.91005291005291 35.13227513227513,92.91005291005291 35.76719576719577,93.12169312169313 36.402116402116405,93.12169312169313 37.03703703703704,93.12169312169313 37.67195767195768,93.33333333333334 38.30687830687831,93.54497354497356 38.94179894179894,93.75661375661376 39.57671957671958,93.75661375661376 40.211640211640216,93.96825396825398 40.84656084656085,94.17989417989419 41.48148148148149,94.39153439153439 42.11640211640212,94.39153439153439 42.75132275132275,94.60317460317461 43.386243386243386,94.81481481481482 44.021164021164026,94.81481481481482 44.65608465608466,95.02645502645504 45.29100529100529,95.02645502645504 45.92592592592593,95.23809523809524 46.560846560846564,95.23809523809524 47.195767195767196,95.44973544973546 47.830687830687836,95.44973544973546 48.46560846560847,95.44973544973546 49.1005291005291,95.44973544973546 49.73544973544974,95.23809523809524 50.370370370370374,95.02645502645504 51.00529100529101,95.02645502645504 51.640211640211646,95.02645502645504 52.27513227513228,95.02645502645504 52.91005291005291,94.81481481481482 53.54497354497355,94.81481481481482 54.179894179894184,94.60317460317461 54.81481481481482,94.60317460317461 55.23809523809524,94.17989417989419 55.87301587301588,94.17989417989419 56.50793650793651,93.75661375661376 57.142857142857146,93.75661375661376 57.777777777777786,93.54497354497356 58.41269841269842,93.33333333333334 59.04761904761905,93.12169312169313 59.682539682539684,92.91005291005291 60.31746031746032,92.4867724867725 60.952380952380956,92.27513227513228 61.58730158730159,92.06349206349208 62.22222222222223,91.64021164021165 62.85714285714286,91.42857142857143 63.492063492063494,91.00529100529101 64.12698412698413,90.58201058201058 64.76190476190477,90.15873015873017 65.3968253968254,89.94708994708995 65.82010582010582,89.52380952380953 66.45502645502646,89.31216931216932 66.87830687830689,88.8888888888889 67.51322751322752,88.46560846560847 67.93650793650794,88.04232804232805 68.57142857142858,87.61904761904762 68.994708994709,87.1957671957672 69.41798941798942,86.77248677248677 69.84126984126985,86.34920634920636 70.26455026455027,85.92592592592594 70.6878306878307,85.5026455026455 71.11111111111111,85.07936507936509 71.53439153439155,84.44444444444446 71.95767195767196,83.80952380952381 72.38095238095238,83.3862433862434 72.80423280423281,82.75132275132276 73.01587301587303,82.11640211640213 73.22751322751323,81.48148148148148 73.65079365079366,80.84656084656085 73.86243386243387,80.21164021164022 74.07407407407408,79.57671957671958 74.28571428571429,78.94179894179895 74.49735449735451,78.30687830687832 74.70899470899471,77.67195767195767 74.92063492063492,77.03703703703704 75.13227513227514,76.4021164021164 75.34391534391536,75.76719576719577 75.34391534391536,75.13227513227514 75.55555555555556,74.49735449735451 75.55555555555556,73.86243386243387 75.55555555555556,73.22751322751323 75.55555555555556,72.5925925925926 75.55555555555556,71.95767195767196 75.55555555555556,71.32275132275133 75.55555555555556,70.6878306878307 75.55555555555556,70.05291005291006 75.55555555555556,69.41798941798942 75.34391534391536,68.78306878306879 75.34391534391536,68.14814814814815 75.34391534391536,67.51322751322752 75.13227513227514,66.87830687830689 75.13227513227514,66.24338624338625 74.92063492063492,65.60846560846561 74.92063492063492,64.97354497354497 74.70899470899471,64.33862433862434 74.49735449735451,63.70370370370371 74.49735449735451,63.06878306878308 74.28571428571429,62.43386243386244 74.07407407407408,61.798941798941804 73.86243386243387,61.16402116402117 73.65079365079366,60.52910052910053 73.43915343915344,59.8941798941799 73.22751322751323,59.25925925925927 73.01587301587303,58.62433862433863 72.5925925925926,58.2010582010582 72.38095238095238,57.56613756613757 72.16931216931218,56.93121693121694 71.74603174603175,56.2962962962963 71.53439153439155,55.661375661375665 71.11111111111111,55.02645502645503 70.8994708994709,54.39153439153439 70.47619047619048,53.968253968253975 70.05291005291006,53.333333333333336 69.62962962962963,52.91005291005291 69.20634920634922,52.27513227513228 68.78306878306879,51.640211640211646 68.35978835978837,51.21693121693122 67.93650793650794,50.7936507936508 67.51322751322752,50.370370370370374 67.08994708994709,49.73544973544974 66.66666666666667,49.31216931216932 66.24338624338625,48.88888888888889 65.82010582010582,48.46560846560847 65.18518518518519,48.042328042328045 64.76190476190477,47.61904761904762 64.33862433862434,47.195767195767196 63.91534391534392,46.77248677248678 63.280423280423285,46.560846560846564 62.64550264550265,46.13756613756614 62.01058201058201,45.714285714285715 61.37566137566138,45.29100529100529 60.74074074074075,45.07936507936508 60.31746031746032,44.65608465608466 59.682539682539684,44.44444444444445 59.25925925925927,44.021164021164026 58.62433862433863,43.80952380952381 57.989417989417994,43.5978835978836 57.35449735449736,43.17460317460318 56.71957671957672,42.96296296296297 56.08465608465609,42.75132275132275 55.449735449735456,42.32804232804233 54.81481481481482,42.32804232804233 54.179894179894184,42.32804232804233 53.54497354497355,42.11640211640212 52.91005291005291,42.11640211640212 52.27513227513228,41.904761904761905 51.640211640211646,42.11640211640212 51.00529100529101,42.11640211640212 50.370370370370374,42.11640211640212 49.73544973544974,42.32804232804233 49.1005291005291,42.539682539682545 48.46560846560847,42.75132275132275 47.830687830687836,42.96296296296297 47.195767195767196,43.386243386243386 46.560846560846564,43.5978835978836 45.92592592592593,43.80952380952381 45.29100529100529,44.232804232804234 44.65608465608466,44.44444444444445 44.021164021164026,44.65608465608466 43.386243386243386,45.07936507936508 42.75132275132275,45.29100529100529 42.11640211640212,45.714285714285715 41.48148148148149,45.92592592592593 40.84656084656085,46.349206349206355 40.211640211640216,46.77248677248678 39.57671957671958,47.195767195767196 38.94179894179894,47.40740740740741 38.30687830687831,47.830687830687836 37.67195767195768,48.25396825396826 37.03703703703704,48.677248677248684 36.402116402116405,48.88888888888889 35.97883597883598,49.31216931216932 35.34391534391535,49.73544973544974 34.70899470899471,50.158730158730165 34.074074074074076,50.58201058201058 33.43915343915344,51.00529100529101 32.804232804232804,51.42857142857143 32.16931216931217,51.851851851851855 31.746031746031747,52.27513227513228 31.322751322751326,52.6984126984127 30.899470899470902,53.12169312169313 30.476190476190478,53.54497354497355 30.052910052910054,53.968253968253975 29.629629629629633,54.39153439153439 29.20634920634921,54.81481481481482 28.783068783068785,55.23809523809524 28.14814814814815,55.661375661375665 27.724867724867728,56.08465608465609 27.301587301587304,56.50793650793651 26.87830687830688,56.93121693121694 26.455026455026456,57.35449735449736 26.031746031746035,57.777777777777786 25.60846560846561,58.2010582010582 25.185185185185187,58.62433862433863 24.761904761904763,59.04761904761905 24.338624338624342,59.470899470899475 23.703703703703706,59.8941798941799 23.280423280423282,60.31746031746032 22.645502645502646,60.74074074074075 22.010582010582013,61.16402116402117 21.375661375661377,61.37566137566138 20.740740740740744,61.798941798941804 20.105820105820108,62.01058201058201 19.47089947089947,62.43386243386244 18.83597883597884,62.43386243386244 18.201058201058203,62.64550264550265 17.566137566137566,62.64550264550265 16.931216931216934,62.64550264550265 16.296296296296298,62.64550264550265 15.661375661375663,62.64550264550265 15.026455026455027,62.43386243386244 14.391534391534393,62.22222222222223 13.756613756613758,62.22222222222223 13.121693121693122,61.798941798941804 12.486772486772487,61.58730158730159 11.851851851851853,61.16402116402117 11.216931216931219,60.952380952380956 10.793650793650794,60.52910052910053 10.15873015873016,60.10582010582011 9.523809523809524,59.682539682539684 9.100529100529101,59.25925925925927 8.677248677248677,58.83597883597884 8.253968253968255,58.41269841269842 7.830687830687832,57.989417989417994 7.407407407407408,57.56613756613757 6.984126984126985,57.142857142857146 6.560846560846561,56.50793650793651 6.34920634920635,55.87301587301588 5.9259259259259265,55.23809523809524 5.714285714285714,54.60317460317461 5.502645502645503,53.968253968253975 5.07936507936508,53.333333333333336 4.867724867724868,52.6984126984127 4.656084656084657,52.06349206349207 4.444444444444445,51.42857142857143 4.2328042328042335,50.7936507936508 4.021164021164021,50.158730158730165 3.8095238095238098,49.523809523809526 3.597883597883598,48.88888888888889 3.597883597883598,48.25396825396826 3.3862433862433865,47.61904761904762 2.9629629629629632,46.98412698412699 2.7513227513227516,46.349206349206355 2.53968253968254,45.714285714285715 2.53968253968254,45.07936507936508 2.3280423280423284,44.44444444444445 2.1164021164021167,43.80952380952381 2.1164021164021167,43.17460317460318 1.9047619047619049,42.539682539682545 1.6931216931216932,41.904761904761905 1.6931216931216932,41.26984126984127 1.4814814814814816,40.63492063492064 1.26984126984127,40.0 1.26984126984127,39.36507936507937 1.26984126984127,38.730158730158735 1.0582010582010584,38.095238095238095 0.8465608465608466,37.46031746031746 0.8465608465608466,36.82539682539683 0.8465608465608466,36.19047619047619 0.634920634920635,35.55555555555556 0.634920634920635,34.920634920634924 0.634920634920635,34.28571428571429 0.4232804232804233,33.65079365079365 0.4232804232804233,33.01587301587302 0.4232804232804233,32.38095238095239 0.4232804232804233,31.746031746031747 0.4232804232804233,31.111111111111114 0.4232804232804233,30.476190476190478 0.21164021164021166,29.841269841269842 0.21164021164021166,29.20634920634921 0.21164021164021166,28.571428571428573 0.21164021164021166,27.93650793650794 0.21164021164021166,27.301587301587304 0.21164021164021166,26.666666666666668 0.21164021164021166,26.031746031746035 0.21164021164021166,25.3968253968254 0.21164021164021166,24.761904761904763 0.21164021164021166,24.12698412698413 0.21164021164021166,23.492063492063494 0.21164021164021166,22.857142857142858 0.21164021164021166,22.222222222222225 0.21164021164021166,21.58730158730159 0.21164021164021166,20.952380952380953 0.4232804232804233,20.31746031746032 0.4232804232804233,19.682539682539684 0.4232804232804233,19.047619047619047 0.634920634920635,18.412698412698415 0.634920634920635,17.77777777777778 0.634920634920635,17.142857142857146 0.8465608465608466,16.50793650793651 0.8465608465608466,15.873015873015873 0.8465608465608466,15.238095238095239 1.0582010582010584,14.603174603174605 1.0582010582010584,13.96825396825397 1.0582010582010584,13.333333333333334 1.26984126984127,9.947089947089948" style="fill:none; stroke:#3300bb; stroke-width:1.0"  /><circle cx="1.26984126984127" cy="9.947089947089948" r="2.0" style="fill:none; stroke:#000000aa; stroke-width:0.25" /><circle cx="158.94179894179896" cy="0.0" r="2.0" style="fill:none; stroke:#000000aa; stroke-width:0.25" /><circle cx="174.1798941798942" cy="115.55555555555557" r="2.0" style="fill:none; stroke:#000000aa; stroke-width:0.25" /><circle cx="9.947089947089948" cy="119.57671957671958" r="2.0" style="fill:none; stroke:#000000aa; stroke-width:0.25" /><circle cx="2.1164021164021167" cy="10.370370370370372" r="2.0" style="fill:none; stroke:#ff3366aa; stroke-width:0.25" /><circle cx="158.30687830687833" cy="0.21164021164021166" r="2.0" style="fill:none; stroke:#ff3366aa; stroke-width:0.25" /><circle cx="174.1798941798942" cy="115.55555555555557" r="2.0" style="fill:none; stroke:#ff3366aa; stroke-width:0.25" /><circle cx="10.370370370370372" cy="119.57671957671958" r="2.0" style="fill:none; stroke:#ff3366aa; stroke-width:0.25" /><polyline points="13.96825396825397,10.15873015873016 13.333333333333334,10.15873015873016 12.6984126984127,10.15873015873016 12.063492063492065,10.370370370370372 11.640211640211641,9.735449735449736 11.005291005291006,9.735449735449736 10.370370370370372,9.735449735449736 9.735449735449736,9.523809523809524 9.100529100529101,9.523809523809524 8.465608465608467,9.523809523809524 7.830687830687832,9.735449735449736 7.195767195767196,9.735449735449736 6.560846560846561,9.735449735449736 5.9259259259259265,9.947089947089948 5.291005291005291,9.947089947089948" style="fill:none; stroke:#001100; stroke-width:1.0" /><polyline points="0.21164021164021166,22.222222222222225 0.21164021164021166,21.58730158730159 0.21164021164021166,20.952380952380953 0.4232804232804233,20.31746031746032 0.4232804232804233,19.682539682539684 0.4232804232804233,19.047619047619047 0.634920634920635,18.412698412698415 0.634920634920635,17.77777777777778 0.634920634920635,17.142857142857146 0.8465608465608466,16.50793650793651 0.8465608465608466,15.873015873015873 0.8465608465608466,15.238095238095239 1.0582010582010584,14.603174603174605 1.0582010582010584,13.96825396825397 1.0582010582010584,13.333333333333334" style="fill:none; stroke:#000011; stroke-width:1.0" /><polyline points="158.94179894179896,12.063492063492065 158.73015873015873,11.428571428571429 158.73015873015873,10.793650793650794 158.73015873015873,10.15873015873016 158.73015873015873,9.523809523809524 158.73015873015873,8.88888888888889 158.73015873015873,8.253968253968255 158.73015873015873,7.6190476190476195 158.73015873015873,6.984126984126985 158.73015873015873,6.34920634920635 158.73015873015873,5.714285714285714 158.94179894179896,5.07936507936508 158.94179894179896,4.444444444444445 158.94179894179896,3.8095238095238098 158.94179894179896,3.174603174603175" style="fill:none; stroke:#001100; stroke-width:1.0" /><polyline points="146.66666666666669,0.634920634920635 147.30158730158732,0.634920634920635 147.93650793650795,0.8465608465608466 148.57142857142858,0.634920634920635 149.20634920634922,0.634920634920635 149.84126984126985,0.634920634920635 150.47619047619048,0.634920634920635 151.11111111111111,0.634920634920635 151.74603174603175,0.4232804232804233 152.38095238095238,0.4232804232804233 153.01587301587304,0.4232804232804233 153.65079365079367,0.21164021164021166 154.2857142857143,0.21164021164021166 154.92063492063494,0.21164021164021166" style="fill:none; stroke:#000011; stroke-width:1.0" /><polyline points="164.23280423280426,122.32804232804234 164.8677248677249,121.90476190476191 165.50264550264552,121.4814814814815 165.92592592592595,121.05820105820106 166.56084656084658,120.84656084656086 167.19576719576722,120.42328042328043 167.83068783068785,120.00000000000001 168.46560846560848,119.57671957671958 169.10052910052912,119.15343915343917 169.73544973544975,118.73015873015873 170.37037037037038,118.30687830687832 171.005291005291,117.88359788359789 171.42857142857144,117.46031746031747" style="fill:none; stroke:#001100; stroke-width:1.0" /><polyline points="173.96825396825398,103.70370370370371 173.96825396825398,104.33862433862434 173.96825396825398,104.97354497354497 173.96825396825398,105.60846560846562 173.96825396825398,106.24338624338625 174.1798941798942,106.87830687830689 174.1798941798942,107.51322751322752 174.1798941798942,108.14814814814815 174.1798941798942,108.78306878306879 174.1798941798942,109.41798941798943 174.1798941798942,110.05291005291006 174.1798941798942,110.6878306878307 174.1798941798942,111.32275132275133 174.1798941798942,111.95767195767196 174.1798941798942,112.5925925925926" style="fill:none; stroke:#000011; stroke-width:1.0" /><polyline points="11.216931216931219,108.14814814814815 11.216931216931219,108.78306878306879 11.216931216931219,109.41798941798943 11.005291005291006,110.05291005291006 11.005291005291006,110.6878306878307 10.793650793650794,111.32275132275133 10.793650793650794,111.95767195767196 10.793650793650794,112.5925925925926 10.793650793650794,113.22751322751324 10.582010582010582,113.86243386243387 10.582010582010582,114.49735449735451 10.582010582010582,115.13227513227514 10.370370370370372,115.76719576719577 10.370370370370372,116.4021164021164" style="fill:none; stroke:#001100; stroke-width:1.0" /><polyline points="22.010582010582013,119.57671957671958 21.375661375661377,119.57671957671958 20.740740740740744,119.57671957671958 20.105820105820108,119.7883597883598 19.47089947089947,119.7883597883598 18.83597883597884,119.7883597883598 18.201058201058203,119.7883597883598 17.566137566137566,119.7883597883598 16.931216931216934,119.57671957671958 16.296296296296298,119.57671957671958 15.661375661375663,119.57671957671958 15.026455026455027,119.57671957671958 14.391534391534393,119.57671957671958 13.756613756613758,119.57671957671958" style="fill:none; stroke:#000011; stroke-width:1.0" /><polyline points="5.291005291005291,9.947089947089948 -15.873015873015873,9.523809523809524" style="fill:none; stroke:#ffaa00; stroke-width:0.4" /><polyline points="1.0582010582010584,13.333333333333334 2.9629629629629632,-7.830687830687832" style="fill:none; stroke:#aaff00; stroke-width:0.4" /><polyline points="158.94179894179896,3.174603174603175 158.94179894179896,-17.98941798941799" style="fill:none; stroke:#ffaa00; stroke-width:0.4" /><polyline points="154.92063492063494,0.21164021164021166 176.0846560846561,-0.8465608465608466" style="fill:none; stroke:#aaff00; stroke-width:0.4" /><polyline points="171.42857142857144,117.46031746031747 188.99470899470901,105.60846560846562" style="fill:none; stroke:#ffaa00; stroke-width:0.4" /><polyline points="174.1798941798942,112.5925925925926 174.6031746031746,133.75661375661377" style="fill:none; stroke:#aaff00; stroke-width:0.4" /><polyline points="10.370370370370372,116.4021164021164 8.253968253968255,137.35449735449737" style="fill:none; stroke:#ffaa00; stroke-width:0.4" /><polyline points="13.756613756613758,119.57671957671958 -7.407407407407408,119.57671957671958" style="fill:none; stroke:#aaff00; stroke-width:0.4" /><circle cx="107.93650793650795" cy="63.492063492063494" r="1.0" style="fill:#444444; stroke-width:0" /><circle cx="117.46031746031747" cy="49.31216931216932" r="10.582010582010582" style="fill:#ff770022; stroke-width:0" /><circle cx="117.46031746031747" cy="49.31216931216932" r="1.0" style="fill:#ff7700; stroke-width:0" /></svg>