<?xml version="1.0" encoding="UTF-8" standalone="no"?><svg width="472.3809523809524" height="517.4603174603175" viewBox="-10 -10 177.46031746031747 192.4867724867725" xmlns="http://www.w3.org/2000/svg" xmlns:xlink="http://www.w3.org/1999/xlink"><polyline points="41.6931216931217,0.0 45.714285714285715,0.21164021164021166 46.349206349206355,0.21164021164021166 46.98412698412699,0.21164021164021166 47.61904761904762,0.21164021164021166 48.25396825396826,0.21164021164021166 48.88888888888889,0.4232804232804233 49.523809523809526,0.4232804232804233 50.158730158730165,0.4232804232804233 50.7936507936508,0.4232804232804233 51.42857142857143,0.4232804232804233 52.06349206349207,0.634920634920635 52.6984126984127,0.634920634920635 53.333333333333336,0.634920634920635 53.968253968253975,0.634920634920635 54.60317460317461,0.4232804232804233 55.23809523809524,0.634920634920635 55.87301587301588,0.634920634920635 56.50793650793651,0.634920634920635 57.142857142857146,0.8465608465608466 57.777777777777786,0.8465608465608466 58.41269841269842,1.0582010582010584 59.04761904761905,1.0582010582010584 59.682539682539684,1.26984126984127 60.31746031746032,1.4814814814814816 60.952380952380956,1.6931216931216932 61.58730158730159,1.9047619047619049 62.22222222222223,2.1164021164021167 62.85714285714286,2.53968253968254 63.492063492063494,2.9629629629629632 63.91534391534392,3.3862433862433865 64.33862433862434,3.8095238095238098 64.76190476190477,4.2328042328042335 65.18518518518519,4.867724867724868 65.60846560846561,5.502645502645503 65.82010582010582,6.137566137566138 66.03174603174604,6.772486772486773 66.03174603174604,7.407407407407408 66.24338624338625,8.042328042328043 66.24338624338625,8.677248677248677 66.03174603174604,9.312169312169313 65.82010582010582,9.947089947089948 65.82010582010582,10.582010582010582 65.60846560846561,11.216931216931219 65.3968253968254,11.851851851851853 65.18518518518519,12.486772486772487 64.76190476190477,13.121693121693122 64.55026455026456,13.756613756613758 64.33862433862434,14.391534391534393 64.12698412698413,15.026455026455027 63.70370370370371,15.661375661375663 63.492063492063494,16.296296296296298 63.280423280423285,16.931216931216934 63.06878306878308,17.566137566137566 62.64550264550265,18.201058201058203 62.43386243386244,18.83597883597884 62.22222222222223,19.47089947089947 62.01058201058201,20.105820105820108 61.798941798941804,20.740740740740744 61.37566137566138,21.375661375661377 61.58730158730159,22.010582010582013 61.37566137566138,22.645502645502646 61.37566137566138,23.280423280423282 61.16402116402117,23.915343915343918 61.16402116402117,24.55026455026455 61.16402116402117,25.185185185185187 61.16402116402117,25.820105820105823 61.37566137566138,26.455026455026456 61.37566137566138,27.089947089947092 61.58730158730159,27.724867724867728 61.798941798941804,28.35978835978836 62.01058201058201,28.994708994708997 62.22222222222223,29.629629629629633 62.64550264550265,30.264550264550266 63.06878306878308,30.899470899470902 63.492063492063494,31.53439153439154 63.91534391534392,31.95767195767196 64.33862433862434,32.38095238095239 64.97354497354497,32.804232804232804 65.60846560846561,33.22751322751323 66.24338624338625,33.43915343915344 66.87830687830689,33.65079365079365 67.51322751322752,34.074074074074076 68.14814814814815,34.28571428571429 68.78306878306879,34.4973544973545 69.41798941798942,34.4973544973545 69.84126984126985,34.920634920634924 70.47619047619048,34.920634920634924 71.11111111111111,35.13227513227513 71.74603174603175,35.34391534391535 72.38095238095238,35.55555555555556 73.01587301587303,35.55555555555556 73.65079365079366,35.76719576719577 74.28571428571429,35.76719576719577 74.92063492063492,35.97883597883598 75.55555555555556,35.97883597883598 76.19047619047619,36.19047619047619 76.82539682539684,36.402116402116405 77.46031746031747,36.402116402116405 78.0952380952381,36.613756613756614 78.73015873015873,36.402116402116405 79.36507936507937,36.613756613756614 80.0,36.613756613756614 80.63492063492065,36.613756613756614 81.26984126984128,36.613756613756614 81.90476190476191,36.613756613756614 82.53968253968254,36.613756613756614 83.17460317460318,36.402116402116405 83.80952380952381,36.402116402116405 84.44444444444446,36.402116402116405 85.07936507936509,36.19047619047619 85.71428571428572,36.19047619047619 86.34920634920636,36.19047619047619 86.98412698412699,35.97883597883598 87.61904761904762,35.97883597883598 88.25396825396827,35.76719576719577 88.8888888888889,35.76719576719577 89.52380952380953,35.34391534391535 90.15873015873017,35.13227513227513 90.7936507936508,35.13227513227513 91.21693121693123,34.70899470899471 91.85185185185186,34.70899470899471 92.4867724867725,34.28571428571429 93.12169312169313,34.074074074074076 93.75661375661376,33.86243386243387 94.39153439153439,33.65079365079365 95.02645502645504,33.43915343915344 95.66137566137567,33.01587301587302 96.2962962962963,32.804232804232804 96.93121693121694,32.38095238095239 97.56613756613757,31.95767195767196 98.2010582010582,31.53439153439154 98.83597883597885,31.111111111111114 99.25925925925927,30.68783068783069 99.68253968253968,30.264550264550266 100.10582010582011,29.629629629629633 100.52910052910053,29.20634920634921 100.95238095238096,28.571428571428573 101.16402116402116,27.93650793650794 101.37566137566138,27.301587301587304 101.5873015873016,26.666666666666668 101.79894179894181,26.031746031746035 101.79894179894181,25.3968253968254 101.79894179894181,24.761904761904763 101.79894179894181,24.12698412698413 101.79894179894181,23.492063492063494 101.5873015873016,22.857142857142858 101.5873015873016,22.222222222222225 101.16402116402116,21.58730158730159 100.95238095238096,20.952380952380953 100.95238095238096,20.31746031746032 100.52910052910053,19.682539682539684 100.31746031746033,19.047619047619047 100.10582010582011,18.412698412698415 99.8941798941799,17.77777777777778 99.47089947089948,17.142857142857146 99.25925925925927,16.50793650793651 98.83597883597885,15.873015873015873 98.62433862433863,15.238095238095239 98.2010582010582,14.603174603174605 97.989417989418,13.96825396825397 97.56613756613757,13.333333333333334 97.35449735449737,12.6984126984127 97.35449735449737,12.063492063492065 97.35449735449737,11.428571428571429 97.35449735449737,10.793650793650794 97.35449735449737,10.15873015873016 97.56613756613757,9.523809523809524 97.56613756613757,8.88888888888889 97.77777777777779,8.253968253968255 98.2010582010582,7.6190476190476195 98.41269841269842,6.984126984126985 98.83597883597885,6.34920634920635 99.25925925925927,5.9259259259259265 99.68253968253968,5.502645502645503 100.10582010582011,4.867724867724868 100.74074074074075,4.656084656084657 101.37566137566138,4.444444444444445 102.01058201058201,4.2328042328042335 102.64550264550266,4.021164021164021 103.28042328042329,4.021164021164021 103.91534391534393,4.021164021164021 104.55026455026456,4.021164021164021 105.18518518518519,4.2328042328042335 105.82010582010582,4.2328042328042335 106.45502645502647,4.444444444444445 107.0899470899471,4.656084656084657 107.72486772486774,4.867724867724868 108.35978835978837,5.07936507936508 108.994708994709,5.291005291005291 109.62962962962963,5.502645502645503 110.26455026455027,5.714285714285714 110.89947089947091,5.9259259259259265 111.53439153439155,6.137566137566138 112.16931216931218,6.560846560846561 112.80423280423281,6.772486772486773 113.43915343915344,6.984126984126985 114.07407407407408,7.195767195767196 114.70899470899472,7.407407407407408 115.34391534391536,7.6190476190476195 115.97883597883599,8.042328042328043 116.61375661375662,8.253968253968255 117.24867724867725,8.465608465608467 117.88359788359789,8.677248677248677 118.51851851851853,8.88888888888889 119.15343915343917,9.100529100529101 119.7883597883598,9.100529100529101 120.42328042328043,9.312169312169313 121.05820105820106,9.523809523809524 121.6931216931217,9.735449735449736 122.32804232804234,9.947089947089948 122.96296296296298,9.947089947089948 123.59788359788361,10.15873015873016 124.23280423280424,10.370370370370372 124.86772486772487,10.15873015873016 125.5026455026455,10.370370370370372 126.13756613756615,10.582010582010582 126.77248677248679,10.793650793650794 127.40740740740742,10.793650793650794 128.04232804232805,11.005291005291006 128.67724867724868,11.005291005291006 129.31216931216932,11.216931216931219 129.94708994708995,11.216931216931219 130.58201058201058,11.428571428571429 131.21693121693121,11.640211640211641 131.85185185185185,11.640211640211641 132.4867724867725,11.851851851851853 133.12169312169314,11.851851851851853 133.75661375661377,11.851851851851853 134.3915343915344,12.063492063492065 135.02645502645504,12.275132275132275 135.66137566137567,12.275132275132275 136.2962962962963,12.275132275132275 136.93121693121694,12.275132275132275 137.56613756613757,12.486772486772487 138.2010582010582,12.486772486772487 138.83597883597884,12.6984126984127 139.47089947089947,12.6984126984127 140.10582010582013,12.6984126984127 140.74074074074076,12.6984126984127 141.3756613756614,12.6984126984127 142.01058201058203,12.910052910052912 142.64550264550266,12.910052910052912 143.2804232804233,12.910052910052912 143.91534391534393,12.910052910052912 146.66666666666669,13.121693121693122" style="fill:none; stroke:#cc0000; stroke-width:1.0"  /><polyline points="146.66666666666669,13.121693121693122 146.66666666666669,16.296296296296298 146.66666666666669,16.931216931216934 146.66666666666669,17.566137566137566 146.45502645502646,18.201058201058203 146.45502645502646,18.83597883597884 146.45502645502646,19.47089947089947 146.45502645502646,20.105820105820108 146.24338624338625,20.740740740740744 146.45502645502646,21.375661375661377 146.45502645502646,22.010582010582013 146.45502645502646,22.645502645502646 146.45502645502646,23.280423280423282 146.45502645502646,23.915343915343918 146.45502645502646,24.55026455026455 146.24338624338625,25.185185185185187 146.24338624338625,25.820105820105823 146.24338624338625,26.455026455026456 146.24338624338625,27.089947089947092 146.24338624338625,27.724867724867728 146.24338624338625,28.35978835978836 146.24338624338625,28.994708994708997 146.03174603174605,29.629629629629633 146.03174603174605,30.264550264550266 146.03174603174605,30.899470899470902 146.03174603174605,31.53439153439154 146.03174603174605,32.16931216931217 146.03174603174605,32.804232804232804 146.03174603174605,33.43915343915344 146.03174603174605,34.074074074074076 145.82010582010582,34.70899470899471 145.82010582010582,35.34391534391535 145.82010582010582,35.97883597883598 145.82010582010582,36.613756613756614 145.82010582010582,37.248677248677254 145.82010582010582,37.883597883597886 145.60846560846562,38.51851851851852 145.60846560846562,39.15343915343916 145.60846560846562,39.78835978835979 145.60846560846562,40.423280423280424 145.60846560846562,41.058201058201064 145.60846560846562,41.6931216931217 145.60846560846562,42.32804232804233 145.39682539682542,42.96296296296297 145.39682539682542,43.5978835978836 145.39682539682542,44.232804232804234 145.39682539682542,44.867724867724874 145.1851851851852,45.50264550264551 145.1851851851852,46.13756613756614 145.1851851851852,46.77248677248678 145.1851851851852,47.40740740740741 145.1851851851852,48.042328042328045 144.973544973545,48.677248677248684 144.973544973545,49.31216931216932 144.973544973545,49.94708994708995 144.973544973545,50.58201058201058 144.76190476190476,51.21693121693122 144.76190476190476,51.851851851851855 144.76190476190476,52.48677248677249 144.55026455026456,53.12169312169313 144.55026455026456,53.75661375661376 144.33862433862436,54.39153439153439 144.33862433862436,55.02645502645503 144.12698412698413,55.661375661375665 143.91534391534393,56.2962962962963 143.91534391534393,56.93121693121694 143.70370370370372,57.56613756613757 143.4920634920635,58.2010582010582 143.2804232804233,58.83597883597884 143.2804232804233,59.470899470899475 143.0687830687831,60.10582010582011 142.64550264550266,60.74074074074075 142.22222222222223,61.16402116402117 141.7989417989418,61.798941798941804 141.3756613756614,62.22222222222223 140.74074074074076,62.64550264550265 140.10582010582013,62.85714285714286 139.47089947089947,62.85714285714286 138.83597883597884,63.06878306878308 138.2010582010582,63.06878306878308 137.56613756613757,62.85714285714286 136.93121693121694,62.85714285714286 136.2962962962963,62.64550264550265 135.66137566137567,62.64550264550265 135.02645502645504,62.43386243386244 134.3915343915344,62.22222222222223 133.75661375661377,62.01058201058201 133.12169312169314,61.798941798941804 132.4867724867725,61.58730158730159 131.85185185185185,61.37566137566138 131.21693121693121,61.37566137566138 130.58201058201058,60.952380952380956 129.94708994708995,60.952380952380956 129.31216931216932,60.74074074074075 128.67724867724868,60.31746031746032 128.04232804232805,60.10582010582011 127.40740740740742,59.8941798941799 126.77248677248679,59.682539682539684 126.13756613756615,59.470899470899475 125.5026455026455,59.25925925925927 124.86772486772487,59.04761904761905 124.23280423280424,59.25925925925927 123.59788359788361,59.04761904761905 122.96296296296298,58.83597883597884 122.32804232804234,58.83597883597884 121.6931216931217,58.83597883597884 121.05820105820106,58.83597883597884 120.42328042328043,58.83597883597884 119.7883597883598,58.83597883597884 119.15343915343917,58.83597883597884 118.51851851851853,58.83597883597884 117.88359788359789,58.83597883597884 117.24867724867725,58.83597883597884 116.61375661375662,59.04761904761905 115.97883597883599,59.04761904761905 115.34391534391536,59.25925925925927 114.70899470899472,59.25925925925927 114.07407407407408,59.470899470899475 113.43915343915344,59.682539682539684 112.80423280423281,59.8941798941799 112.16931216931218,60.10582010582011 111.74603174603176,60.52910052910053 111.11111111111111,60.952380952380956 110.6878306878307,61.37566137566138 110.26455026455027,61.798941798941804 109.84126984126985,62.22222222222223 109.41798941798943,62.64550264550265 108.994708994709,63.06878306878308 108.78306878306879,63.70370370370371 108.35978835978837,64.33862433862434 108.35978835978837,64.97354497354497 107.93650793650795,65.60846560846561 107.72486772486774,66.24338624338625 107.51322751322752,66.87830687830689 107.51322751322752,67.51322751322752 107.3015873015873,68.14814814814815 107.0899470899471,68.78306878306879 107.0899470899471,69.41798941798942 107.0899470899471,70.05291005291006 106.87830687830689,70.6878306878307 106.87830687830689,71.32275132275133 106.87830687830689,71.95767195767196 107.0899470899471,72.5925925925926 107.0899470899471,73.22751322751323 107.0899470899471,73.86243386243387 107.0899470899471,74.49735449735451 107.3015873015873,75.13227513227514 107.3015873015873,75.76719576719577 107.3015873015873,76.4021164021164 107.51322751322752,77.03703703703704 107.51322751322752,77.67195767195767 107.72486772486774,78.30687830687832 107.72486772486774,78.94179894179895 107.93650793650795,79.57671957671958 107.93650793650795,80.21164021164022 108.14814814814815,80.84656084656085 108.35978835978837,81.48148148148148 108.57142857142858,82.11640211640213 108.78306878306879,82.75132275132276 108.994708994709,83.3862433862434 109.20634920634922,84.02116402116403 109.41798941798943,84.65608465608466 109.84126984126985,85.29100529100529 110.05291005291006,85.92592592592594 110.47619047619048,86.56084656084657 110.6878306878307,87.1957671957672 111.11111111111111,87.61904761904762 111.32275132275133,88.25396825396827 111.74603174603176,88.67724867724868 111.95767195767196,89.31216931216932 112.3809523809524,89.73544973544975 112.80423280423281,90.15873015873017 113.22751322751324,90.7936507936508 113.65079365079366,91.21693121693123 114.07407407407408,91.64021164021165 114.49735449735451,92.06349206349208 114.92063492063492,92.4867724867725 115.34391534391536,92.91005291005291 115.76719576719577,93.33333333333334 116.1904761904762,93.75661375661376 116.61375661375662,94.17989417989419 117.24867724867725,94.60317460317461 117.67195767195768,95.02645502645504 118.30687830687832,95.44973544973546 118.94179894179895,95.87301587301587 119.57671957671958,96.08465608465609 120.00000000000001,96.50793650793652 120.63492063492065,96.93121693121694 121.26984126984128,97.14285714285715 121.90476190476191,97.35449735449737 122.53968253968254,97.56613756613757 123.17460317460318,97.77777777777779 123.80952380952382,97.77777777777779 124.44444444444446,97.77777777777779 125.07936507936509,97.56613756613757 125.71428571428572,97.56613756613757 126.34920634920636,97.35449735449737 126.98412698412699,97.35449735449737 127.61904761904763,97.35449735449737 128.25396825396825,97.35449735449737 128.88888888888889,97.14285714285715 129.52380952380955,96.93121693121694 130.15873015873018,96.71957671957672 130.7936507936508,96.50793650793652 131.42857142857144,96.2962962962963 132.06349206349208,96.08465608465609 132.6984126984127,96.08465608465609 133.33333333333334,95.66137566137567 133.96825396825398,95.44973544973546 134.6031746031746,95.23809523809524 135.02645502645504,94.81481481481482 135.66137566137567,94.60317460317461 136.2962962962963,94.17989417989419 136.93121693121694,93.75661375661376 137.56613756613757,93.54497354497356 138.2010582010582,93.12169312169313 138.83597883597884,92.69841269841271 139.47089947089947,92.27513227513228 139.8941798941799,91.85185185185186 140.31746031746033,91.42857142857143 140.95238095238096,91.00529100529101 141.5873015873016,90.58201058201058 142.22222222222223,90.15873015873017 142.64550264550266,89.73544973544975 143.2804232804233,89.31216931216932 143.70370370370372,88.8888888888889 144.33862433862436,88.46560846560847 144.973544973545,88.04232804232805 145.60846560846562,87.83068783068784 146.24338624338625,87.40740740740742 146.8783068783069,87.40740740740742 147.51322751322752,87.1957671957672 148.14814814814815,87.1957671957672 148.78306878306879,86.98412698412699 149.41798941798942,86.98412698412699 150.05291005291005,86.98412698412699 150.6878306878307,86.98412698412699 151.32275132275134,87.1957671957672 151.95767195767198,87.1957671957672 152.5925925925926,87.40740740740742 153.01587301587304,87.83068783068784 153.43915343915344,88.25396825396827 153.86243386243387,88.67724867724868 154.07407407407408,89.31216931216932 154.4973544973545,89.94708994708995 154.7089947089947,90.58201058201058 154.92063492063494,91.21693121693123 155.34391534391534,91.64021164021165 155.55555555555557,92.27513227513228 155.55555555555557,92.91005291005291 155.55555555555557,93.54497354497356 155.55555555555557,94.17989417989419 155.76719576719577,94.81481481481482 155.76719576719577,95.44973544973546 155.76719576719577,96.08465608465609 155.76719576719577,96.71957671957672 155.55555555555557,97.35449735449737 155.55555555555557,97.989417989418 155.55555555555557,98.62433862433863 155.55555555555557,99.25925925925927 155.55555555555557,99.8941798941799 155.55555555555557,100.52910052910053 155.34391534391534,101.16402116402116 155.34391534391534,101.79894179894181 155.34391534391534,102.43386243386244 155.34391534391534,103.06878306878308 155.13227513227514,103.70370370370371 155.13227513227514,104.33862433862434 155.13227513227514,104.97354497354497 155.13227513227514,105.60846560846562 154.92063492063494,106.24338624338625 154.92063492063494,106.87830687830689 154.92063492063494,107.51322751322752 154.92063492063494,108.14814814814815 154.92063492063494,108.78306878306879 154.7089947089947,109.41798941798943 154.7089947089947,110.05291005291006 154.7089947089947,110.6878306878307 154.7089947089947,111.32275132275133 154.7089947089947,111.95767195767196 154.7089947089947,112.5925925925926 154.7089947089947,113.22751322751324 154.4973544973545,113.86243386243387 154.4973544973545,114.49735449735451 154.4973544973545,115.13227513227514 154.4973544973545,115.76719576719577 154.4973544973545,116.4021164021164 154.4973544973545,117.03703703703705 154.4973544973545,117.67195767195768 154.4973544973545,118.30687830687832 154.4973544973545,118.94179894179895 154.4973544973545,119.57671957671958 154.4973544973545,120.21164021164022 154.4973544973545,120.84656084656086 154.4973544973545,121.4814814814815 154.4973544973545,122.11640211640213 154.4973544973545,122.75132275132276 154.4973544973545,123.3862433862434 154.4973544973545,124.02116402116403 154.4973544973545,124.65608465608466 154.4973544973545,125.2910052910053 154.4973544973545,125.92592592592594 154.7089947089947,126.56084656084657 154.7089947089947,127.1957671957672 154.7089947089947,127.83068783068784 154.92063492063494,128.46560846560848 154.92063492063494,129.10052910052912 154.7089947089947,129.73544973544975 154.92063492063494,130.37037037037038 154.92063492063494,131.005291005291 154.92063492063494,131.64021164021165 154.92063492063494,132.27513227513228 154.92063492063494,132.9100529100529 154.92063492063494,133.54497354497354 154.92063492063494,134.17989417989418 154.92063492063494,134.81481481481484 154.92063492063494,135.44973544973547 154.92063492063494,136.0846560846561 154.92063492063494,136.71957671957674 154.92063492063494,137.35449735449737 154.92063492063494,137.989417989418 155.13227513227514,138.62433862433863 155.13227513227514,139.25925925925927 155.13227513227514,139.8941798941799 155.13227513227514,140.52910052910053 155.13227513227514,141.16402116402116 155.13227513227514,141.7989417989418 155.13227513227514,142.43386243386246 155.13227513227514,143.0687830687831 155.13227513227514,143.70370370370372 155.34391534391534,144.33862433862436 155.34391534391534,144.973544973545 155.34391534391534,145.60846560846562 155.34391534391534,146.24338624338625 155.34391534391534,146.8783068783069 155.55555555555557,147.51322751322752 155.55555555555557,148.14814814814815 155.55555555555557,148.78306878306879 155.55555555555557,149.41798941798942 155.76719576719577,150.05291005291005 155.76719576719577,150.6878306878307 155.76719576719577,151.32275132275134 155.76719576719577,151.95767195767198 155.978835978836,152.5925925925926 155.978835978836,153.22751322751324 155.978835978836,153.86243386243387 155.978835978836,154.4973544973545 156.1904761904762,155.13227513227514 156.1904761904762,155.76719576719577 156.4021164021164,156.4021164021164 156.4021164021164,157.03703703703704 156.4021164021164,157.67195767195767 156.4021164021164,158.30687830687833 156.61375661375664,158.94179894179896 156.4021164021164,159.5767195767196 156.4021164021164,160.21164021164023 156.4021164021164,160.84656084656086 156.61375661375664,164.02116402116403" style="fill:none; stroke:#999900; stroke-width:1.0"  /><polyline points="156.61375661375664,164.02116402116403 153.65079365079367,164.8677248677249 153.01587301587304,165.0793650793651 152.38095238095238,165.2910052910053 151.74603174603175,165.50264550264552 151.11111111111111,165.71428571428572 150.47619047619048,165.92592592592595 149.84126984126985,166.13756613756615 149.20634920634922,166.13756613756615 148.57142857142858,166.34920634920636 147.93650793650795,166.56084656084658 147.30158730158732,166.56084656084658 146.66666666666669,166.7724867724868 146.03174603174605,166.984126984127 145.39682539682542,167.19576719576722 144.76190476190476,167.40740740740742 144.12698412698413,167.61904761904762 143.4920634920635,167.83068783068785 142.85714285714286,168.04232804232805 142.22222222222223,168.04232804232805 141.5873015873016,168.25396825396825 140.95238095238096,168.46560846560848 140.31746031746033,168.67724867724868 139.6825396825397,168.8888888888889 139.04761904761907,168.8888888888889 138.41269841269843,169.10052910052912 137.7777777777778,169.31216931216932 137.14285714285717,169.52380952380955 136.5079365079365,169.73544973544975 135.87301587301587,169.73544973544975 135.23809523809524,169.94708994708995 134.6031746031746,170.15873015873018 133.96825396825398,170.37037037037038 133.33333333333334,170.37037037037038 132.6984126984127,170.58201058201058 132.06349206349208,170.7936507936508 131.42857142857144,171.005291005291 130.7936507936508,171.005291005291 130.15873015873018,171.005291005291 129.52380952380955,171.21693121693124 128.88888888888889,171.42857142857144 128.25396825396825,171.42857142857144 127.61904761904763,171.64021164021165 126.98412698412699,171.64021164021165 126.34920634920636,171.64021164021165 125.71428571428572,171.64021164021165 125.07936507936509,171.64021164021165 124.44444444444446,171.85185185185188 123.80952380952382,171.85185185185188 123.17460317460318,172.06349206349208 122.53968253968254,172.06349206349208 121.90476190476191,172.06349206349208 121.26984126984128,172.06349206349208 120.63492063492065,172.06349206349208 120.00000000000001,172.06349206349208 119.36507936507937,172.06349206349208 118.73015873015873,172.06349206349208 118.0952380952381,172.06349206349208 117.46031746031747,172.06349206349208 116.82539682539684,172.06349206349208 116.1904761904762,172.06349206349208 115.55555555555557,172.06349206349208 114.92063492063492,172.06349206349208 114.28571428571429,172.06349206349208 113.65079365079366,171.85185185185188 113.01587301587303,171.85185185185188 112.3809523809524,171.85185185185188 111.74603174603176,171.85185185185188 111.11111111111111,171.85185185185188 110.47619047619048,171.64021164021165 109.84126984126985,171.64021164021165 109.20634920634922,171.42857142857144 108.57142857142858,171.21693121693124 107.93650793650795,171.005291005291 107.3015873015873,171.005291005291 106.66666666666667,170.7936507936508 106.24338624338625,170.37037037037038 105.60846560846562,169.94708994708995 105.18518518518519,169.52380952380955 104.76190476190477,169.10052910052912 104.33862433862434,168.67724867724868 103.91534391534393,168.04232804232805 103.70370370370371,167.40740740740742 103.4920634920635,166.7724867724868 103.28042328042329,166.13756613756615 103.28042328042329,165.50264550264552 103.06878306878308,164.8677248677249 103.06878306878308,164.23280423280426 103.06878306878308,163.59788359788362 103.06878306878308,162.96296296296296 103.06878306878308,162.32804232804233 103.28042328042329,161.6931216931217 103.28042328042329,161.05820105820106 103.28042328042329,160.42328042328043 103.4920634920635,159.7883597883598 103.70370370370371,159.15343915343917 103.91534391534393,158.51851851851853 104.12698412698414,157.8835978835979 104.33862433862434,157.24867724867727 104.33862433862434,156.61375661375664 104.76190476190477,156.1904761904762 104.97354497354497,155.55555555555557 105.18518518518519,154.92063492063494 105.60846560846562,154.2857142857143 106.03174603174604,153.65079365079367 106.24338624338625,153.01587301587304 106.66666666666667,152.38095238095238 106.87830687830689,151.74603174603175 107.3015873015873,151.32275132275134 107.72486772486774,150.6878306878307 107.93650793650795,150.05291005291005 108.14814814814815,149.41798941798942 108.57142857142858,148.78306878306879 108.78306878306879,148.14814814814815 108.994708994709,147.51322751322752 109.41798941798943,146.8783068783069 109.62962962962963,146.24338624338625 109.84126984126985,145.60846560846562 110.05291005291006,144.973544973545 110.26455026455027,144.33862433862436 110.26455026455027,143.70370370370372 110.47619047619048,143.0687830687831 110.6878306878307,142.43386243386246 110.89947089947091,141.7989417989418 110.89947089947091,141.16402116402116 111.11111111111111,140.52910052910053 111.11111111111111,139.8941798941799 111.11111111111111,139.25925925925927 111.11111111111111,138.62433862433863 111.32275132275133,137.989417989418 111.32275132275133,137.35449735449737 111.11111111111111,136.71957671957674 111.11111111111111,136.0846560846561 111.11111111111111,135.44973544973547 111.11111111111111,134.81481481481484 110.89947089947091,134.17989417989418 110.89947089947091,133.54497354497354 110.89947089947091,132.9100529100529 110.6878306878307,132.27513227513228 110.26455026455027,131.64021164021165 110.05291005291006,131.005291005291 109.84126984126985,130.37037037037038 109.41798941798943,129.94708994708995 108.994708994709,129.31216931216932 108.57142857142858,128.88888888888889 108.14814814814815,128.46560846560848 107.51322751322752,128.04232804232805 106.87830687830689,127.83068783068784 106.45502645502647,127.40740740740742 105.82010582010582,127.1957671957672 105.18518518518519,126.98412698412699 104.55026455026456,126.77248677248679 103.91534391534393,126.56084656084657 103.28042328042329,126.56084656084657 102.64550264550266,126.34920634920636 102.01058201058201,126.13756613756615 101.37566137566138,126.13756613756615 100.74074074074075,125.92592592592594 100.10582010582011,125.92592592592594 99.47089947089948,125.71428571428572 98.83597883597885,125.71428571428572 98.2010582010582,125.5026455026455 97.56613756613757,125.5026455026455 96.93121693121694,125.5026455026455 96.2962962962963,125.2910052910053 95.66137566137567,125.2910052910053 95.02645502645504,125.2910052910053 94.39153439153439,125.2910052910053 93.75661375661376,125.5026455026455 93.12169312169313,125.5026455026455 92.4867724867725,125.5026455026455 91.85185185185186,125.5026455026455 91.21693121693123,125.5026455026455 90.58201058201058,125.5026455026455 89.94708994708995,125.71428571428572 89.31216931216932,125.92592592592594 88.67724867724868,125.92592592592594 88.04232804232805,126.13756613756615 87.40740740740742,126.34920634920636 86.77248677248677,126.34920634920636 86.13756613756614,126.56084656084657 85.5026455026455,126.77248677248679 84.86772486772487,126.98412698412699 84.23280423280424,127.1957671957672 83.59788359788361,127.40740740740742 82.96296296296298,127.61904761904763 82.32804232804233,127.83068783068784 81.6931216931217,128.25396825396825 81.05820105820106,128.46560846560848 80.42328042328043,128.67724867724868 80.0,129.10052910052912 79.36507936507937,129.31216931216932 78.73015873015873,129.73544973544975 78.0952380952381,129.94708994708995 77.67195767195767,130.37037037037038 77.03703703703704,130.58201058201058 76.61375661375662,131.005291005291 75.97883597883599,131.21693121693121 75.34391534391536,131.64021164021165 74.70899470899471,132.06349206349208 74.28571428571429,132.4867724867725 73.86243386243387,132.9100529100529 73.43915343915344,133.33333333333334 73.01587301587303,133.75661375661377 72.5925925925926,134.17989417989418 72.16931216931218,134.6031746031746 71.74603174603175,135.23809523809524 71.53439153439155,135.87301587301587 71.11111111111111,136.2962962962963 70.8994708994709,136.93121693121694 70.47619047619048,137.56613756613757 70.47619047619048,138.2010582010582 70.05291005291006,138.83597883597884 69.84126984126985,139.47089947089947 69.84126984126985,140.10582010582013 69.62962962962963,140.74074074074076 69.62962962962963,141.3756613756614 69.62962962962963,142.01058201058203 69.62962962962963,142.64550264550266 69.62962962962963,143.2804232804233 69.62962962962963,143.91534391534393 69.84126984126985,144.55026455026456 69.84126984126985,145.1851851851852 70.05291005291006,145.82010582010582 70.26455026455027,146.45502645502646 70.47619047619048,147.0899470899471 70.6878306878307,147.72486772486775 71.11111111111111,148.35978835978838 71.32275132275133,148.99470899470901 71.53439153439155,149.62962962962965 71.95767195767196,150.26455026455028 72.16931216931218,150.8994708994709 72.5925925925926,151.32275132275134 72.80423280423281,151.95767195767198 73.01587301587303,152.5925925925926 73.43915343915344,153.22751322751324 73.65079365079366,153.86243386243387 73.86243386243387,154.4973544973545 74.07407407407408,155.13227513227514 74.49735449735451,155.55555555555557 74.70899470899471,156.1904761904762 74.92063492063492,156.82539682539684 75.13227513227514,157.46031746031747 75.34391534391536,158.0952380952381 75.55555555555556,158.73015873015873 75.76719576719577,159.36507936507937 75.97883597883599,160.0 75.97883597883599,160.63492063492066 75.97883597883599,161.2698412698413 76.19047619047619,161.90476190476193 76.19047619047619,162.53968253968256 76.19047619047619,163.1746031746032 75.97883597883599,163.80952380952382 75.97883597883599,164.44444444444446 75.55555555555556,165.0793650793651 75.34391534391536,165.71428571428572 74.92063492063492,166.34920634920636 74.49735449735451,166.984126984127 73.86243386243387,167.40740740740742 73.43915343915344,167.83068783068785 72.80423280423281,168.25396825396825 72.38095238095238,168.67724867724868 71.74603174603175,168.8888888888889 71.11111111111111,169.31216931216932 70.47619047619048,169.52380952380955 69.84126984126985,169.73544973544975 69.20634920634922,169.94708994708995 68.57142857142858,170.15873015873018 67.93650793650794,170.37037037037038 67.3015873015873,170.37037037037038 66.66666666666667,170.58201058201058 66.03174603174604,170.58201058201058 65.3968253968254,170.58201058201058 64.76190476190477,170.58201058201058 64.12698412698413,170.7936507936508 63.492063492063494,170.58201058201058 62.85714285714286,170.58201058201058 62.22222222222223,170.58201058201058 61.58730158730159,170.58201058201058 60.952380952380956,170.37037037037038 60.31746031746032,170.15873015873018 59.682539682539684,169.94708994708995 59.04761904761905,169.73544973544975 58.41269841269842,169.73544973544975 57.777777777777786,169.52380952380955 57.142857142857146,169.10052910052912 56.50793650793651,168.8888888888889 55.87301587301588,168.46560846560848 55.23809523809524,168.25396825396825 54.60317460317461,168.25396825396825 53.968253968253975,167.83068783068785 53.333333333333336,167.61904761904762 52.6984126984127,167.40740740740742 52.06349206349207,166.984126984127 51.42857142857143,166.56084656084658 50.7936507936508,166.34920634920636 50.158730158730165,166.13756613756615 49.523809523809526,165.71428571428572 48.88888888888889,165.50264550264552 48.25396825396826,165.2910052910053 47.61904761904762,165.0793650793651 46.98412698412699,164.65608465608466 46.349206349206355,164.44444444444446 45.714285714285715,164.02116402116403 45.07936507936508,163.80952380952382 44.44444444444445,163.59788359788362 43.80952380952381,163.3862433862434 43.17460317460318,163.1746031746032 42.539682539682545,162.96296296296296 41.904761904761905,162.75132275132276 41.26984126984127,162.53968253968256 40.63492063492064,162.32804232804233 40.0,161.90476190476193 39.36507936507937,161.6931216931217 38.730158730158735,161.6931216931217 38.095238095238095,161.4814814814815 37.46031746031746,161.05820105820106 36.82539682539683,160.84656084656086 36.19047619047619,160.84656084656086 35.55555555555556,160.63492063492066 34.920634920634924,160.42328042328043 34.28571428571429,160.21164021164023 33.65079365079365,160.0 33.01587301587302,159.5767195767196 32.38095238095239,159.5767195767196 31.746031746031747,159.36507936507937 31.111111111111114,159.15343915343917 30.476190476190478,158.94179894179896 29.841269841269842,158.73015873015873 29.20634920634921,158.51851851851853 28.571428571428573,158.30687830687833 27.93650793650794,158.0952380952381 27.301587301587304,158.0952380952381 26.666666666666668,157.8835978835979 26.031746031746035,157.67195767195767 25.3968253968254,157.46031746031747 24.761904761904763,157.24867724867727 24.12698412698413,157.24867724867727 23.492063492063494,157.03703703703704 22.857142857142858,156.82539682539684 22.222222222222225,156.82539682539684 21.58730158730159,156.61375661375664 20.952380952380953,156.4021164021164 20.31746031746032,156.1904761904762 19.682539682539684,156.4021164021164 15.873015873015873,155.55555555555557" style="fill:none; stroke:#00aa99; stroke-width:1.0"  /><polyline points="15.873015873015873,155.55555555555557 17.354497354497354,152.5925925925926 17.77777777777778,151.95767195767198 17.98941798941799,151.32275132275134 18.201058201058203,150.6878306878307 18.624338624338627,150.05291005291005 18.83597883597884,149.41798941798942 19.25925925925926,148.78306878306879 19.47089947089947,148.14814814814815 19.894179894179896,147.51322751322752 20.105820105820108,146.8783068783069 20.31746031746032,146.24338624338625 20.740740740740744,145.60846560846562 20.952380952380953,144.973544973545 21.164021164021165,144.33862433862436 21.58730158730159,143.70370370370372 21.7989417989418,143.0687830687831 22.010582010582013,142.43386243386246 22.222222222222225,141.7989417989418 22.645502645502646,141.16402116402116 22.857142857142858,140.52910052910053 23.06878306878307,139.8941798941799 23.492063492063494,139.25925925925927 23.703703703703706,138.62433862433863 23.915343915343918,137.989417989418 24.12698412698413,137.35449735449737 24.338624338624342,136.71957671957674 24.55026455026455,136.0846560846561 24.973544973544975,135.44973544973547 25.185185185185187,134.81481481481484 25.3968253968254,134.17989417989418 25.60846560846561,133.54497354497354 26.031746031746035,132.9100529100529 26.243386243386244,132.27513227513228 26.455026455026456,131.64021164021165 26.666666666666668,131.005291005291 26.87830687830688,130.37037037037038 27.301587301587304,129.73544973544975 27.301587301587304,129.10052910052912 27.724867724867728,128.46560846560848 27.93650793650794,127.83068783068784 28.14814814814815,127.1957671957672 28.14814814814815,126.56084656084657 28.35978835978836,125.92592592592594 28.571428571428573,125.2910052910053 28.783068783068785,124.65608465608466 28.994708994708997,124.02116402116403 29.20634920634921,123.3862433862434 29.629629629629633,122.75132275132276 29.841269841269842,122.11640211640213 30.052910052910054,121.4814814814815 30.264550264550266,120.84656084656086 30.476190476190478,120.21164021164022 30.68783068783069,119.57671957671958 30.899470899470902,118.94179894179895 31.111111111111114,118.30687830687832 31.322751322751326,117.67195767195768 31.53439153439154,117.03703703703705 31.746031746031747,116.4021164021164 31.95767195767196,115.76719576719577 32.16931216931217,115.13227513227514 32.38095238095239,114.49735449735451 32.592592592592595,113.86243386243387 32.804232804232804,113.22751322751324 33.01587301587302,112.5925925925926 33.22751322751323,111.95767195767196 33.43915343915344,111.32275132275133 33.65079365079365,110.6878306878307 33.86243386243387,110.05291005291006 33.86243386243387,109.41798941798943 34.074074074074076,108.78306878306879 34.28571428571429,108.14814814814815 34.4973544973545,107.51322751322752 34.70899470899471,106.87830687830689 34.920634920634924,106.24338624338625 35.13227513227513,105.60846560846562 35.34391534391535,104.97354497354497 35.55555555555556,104.33862433862434 35.76719576719577,103.70370370370371 35.76719576719577,103.06878306878308 35.97883597883598,102.43386243386244 36.19047619047619,101.79894179894181 36.402116402116405,101.16402116402116 36.613756613756614,100.52910052910053 36.82539682539683,99.8941798941799 37.03703703703704,99.25925925925927 37.03703703703704,98.62433862433863 37.248677248677254,97.989417989418 37.46031746031746,97.35449735449737 37.67195767195768,96.71957671957672 37.67195767195768,96.08465608465609 37.883597883597886,95.44973544973546 38.095238095238095,94.81481481481482 38.095238095238095,94.17989417989419 38.095238095238095,93.54497354497356 38.30687830687831,92.91005291005291 38.30687830687831,92.27513227513228 37.883597883597886,91.64021164021165 37.883597883597886,91.00529100529101 37.883597883597886,90.37037037037038 37.67195767195768,89.73544973544975 37.46031746031746,89.1005291005291 37.03703703703704,88.67724867724868 36.82539682539683,88.04232804232805 36.402116402116405,87.61904761904762 35.97883597883598,87.1957671957672 35.55555555555556,86.77248677248677 35.13227513227513,86.34920634920636 34.70899470899471,85.92592592592594 34.074074074074076,85.71428571428572 33.43915343915344,85.5026455026455 32.804232804232804,85.29100529100529 32.16931216931217,85.29100529100529 31.53439153439154,85.29100529100529 30.899470899470902,85.29100529100529 30.264550264550266,85.29100529100529 29.629629629629633,85.5026455026455 28.994708994708997,85.71428571428572 28.35978835978836,85.92592592592594 27.724867724867728,86.34920634920636 27.089947089947092,86.56084656084657 26.666666666666668,86.98412698412699 26.031746031746035,87.40740740740742 25.3968253968254,87.83068783068784 24.761904761904763,88.25396825396827 24.12698412698413,88.67724867724868 23.703703703703706,89.1005291005291 23.06878306878307,89.52380952380953 22.433862433862437,89.94708994708995 22.010582010582013,90.37037037037038 21.375661375661377,90.7936507936508 20.740740740740744,91.21693121693123 20.105820105820108,91.42857142857143 19.682539682539684,91.85185185185186 19.25925925925926,92.27513227513228 18.624338624338627,92.69841269841271 17.98941798941799,92.91005291005291 17.354497354497354,93.33333333333334 16.71957671957672,93.54497354497356 16.084656084656086,93.75661375661376 15.449735449735451,93.96825396825398 14.814814814814817,94.17989417989419 14.17989417989418,94.39153439153439 13.544973544973546,94.39153439153439 12.910052910052912,94.60317460317461 12.275132275132275,94.60317460317461 11.640211640211641,94.81481481481482 11.005291005291006,94.81481481481482 10.370370370370372,94.81481481481482 9.735449735449736,94.81481481481482 9.100529100529101,94.81481481481482 8.465608465608467,94.81481481481482 7.830687830687832,94.60317460317461 7.195767195767196,94.60317460317461 6.560846560846561,94.39153439153439 5.9259259259259265,94.17989417989419 5.502645502645503,93.75661375661376 4.867724867724868,93.33333333333334 4.444444444444445,92.91005291005291 4.021164021164021,92.4867724867725 3.597883597883598,91.85185185185186 3.174603174603175,91.42857142857143 2.9629629629629632,90.7936507936508 2.7513227513227516,90.15873015873017 2.53968253968254,89.52380952380953 2.1164021164021167,89.1005291005291 2.1164021164021167,88.46560846560847 1.9047619047619049,87.83068783068784 1.6931216931216932,87.1957671957672 1.4814814814814816,86.56084656084657 1.26984126984127,85.92592592592594 1.26984126984127,85.29100529100529 1.0582010582010584,84.65608465608466 0.8465608465608466,84.02116402116403 0.8465608465608466,83.3862433862434 0.634920634920635,82.75132275132276 0.634920634920635,82.11640211640213 0.4232804232804233,81.48148148148148 0.4232804232804233,80.84656084656085 0.4232804232804233,80.21164021164022 0.21164021164021166,79.57671957671958 0.21164021164021166,78.94179894179895 0.21164021164021166,78.30687830687832 0.21164021164021166,77.67195767195767 0.21164021164021166,77.03703703703704 0.21164021164021166,76.4021164021164 0.21164021164021166,75.76719576719577 0.21164021164021166,75.13227513227514 0.21164021164021166,74.49735449735451 0.21164021164021166,73.86243386243387 0.21164021164021166,73.22751322751323 0.4232804232804233,72.5925925925926 0.4232804232804233,71.95767195767196 0.4232804232804233,71.32275132275133 0.634920634920635,70.6878306878307 0.634920634920635,70.05291005291006 0.8465608465608466,69.41798941798942 0.8465608465608466,68.78306878306879 1.0582010582010584,68.14814814814815 1.26984126984127,67.51322751322752 1.26984126984127,66.87830687830689 1.4814814814814816,66.24338624338625 1.6931216931216932,65.60846560846561 1.9047619047619049,64.97354497354497 2.1164021164021167,64.33862433862434 2.1164021164021167,63.70370370370371 2.3280423280423284,63.06878306878308 2.53968253968254,62.43386243386244 2.7513227513227516,61.798941798941804 3.174603174603175,61.16402116402117 3.3862433862433865,60.52910052910053 3.8095238095238098,59.8941798941799 4.2328042328042335,59.25925925925927 4.656084656084657,58.62433862433863 5.07936507936508,57.989417989417994 5.502645502645503,57.56613756613757 5.714285714285714,56.93121693121694 6.137566137566138,56.50793650793651 6.560846560846561,56.08465608465609 7.195767195767196,55.661375661375665 7.830687830687832,55.23809523809524 8.465608465608467,55.02645502645503 8.88888888888889,54.60317460317461 9.523809523809524,54.60317460317461 10.15873015873016,54.39153439153439 10.793650793650794,54.39153439153439 11.428571428571429,54.60317460317461 12.063492063492065,54.60317460317461 12.6984126984127,54.39153439153439 13.333333333333334,54.39153439153439 13.96825396825397,54.60317460317461 14.391534391534393,55.02645502645503 15.026455026455027,55.23809523809524 15.661375661375663,55.449735449735456 16.296296296296298,55.661375661375665 16.931216931216934,55.87301587301588 17.566137566137566,56.08465608465609 18.201058201058203,56.2962962962963 18.83597883597884,56.50793650793651 19.47089947089947,56.71957671957672 20.105820105820108,56.71957671957672 20.740740740740744,56.93121693121694 21.375661375661377,57.142857142857146 22.010582010582013,57.35449735449736 22.645502645502646,57.56613756613757 23.280423280423282,57.777777777777786 23.915343915343918,57.989417989417994 24.55026455026455,58.2010582010582 25.185185185185187,58.2010582010582 25.820105820105823,58.2010582010582 26.243386243386244,58.62433862433863 26.87830687830688,58.62433862433863 27.513227513227516,58.83597883597884 28.14814814814815,58.83597883597884 28.783068783068785,59.04761904761905 29.41798941798942,59.25925925925927 30.052910052910054,59.25925925925927 30.68783068783069,59.470899470899475 31.322751322751326,59.470899470899475 31.95767195767196,59.470899470899475 32.592592592592595,59.470899470899475 33.22751322751323,59.682539682539684 33.86243386243387,59.682539682539684 34.4973544973545,59.682539682539684 35.13227513227513,59.682539682539684 35.76719576719577,59.682539682539684 36.402116402116405,59.682539682539684 37.03703703703704,59.682539682539684 37.67195767195768,59.682539682539684 38.30687830687831,59.470899470899475 38.94179894179894,59.25925925925927 39.57671957671958,59.04761904761905 40.211640211640216,58.83597883597884 40.84656084656085,58.62433862433863 41.26984126984127,58.2010582010582 41.6931216931217,57.777777777777786 42.11640211640212,57.35449735449736 42.539682539682545,56.93121693121694 42.75132275132275,56.2962962962963 43.17460317460318,55.87301587301588 43.386243386243386,55.23809523809524 43.5978835978836,54.60317460317461 43.80952380952381,53.968253968253975 43.80952380952381,53.333333333333336 43.80952380952381,52.6984126984127 43.80952380952381,52.06349206349207 43.80952380952381,51.42857142857143 43.80952380952381,50.7936507936508 43.5978835978836,50.158730158730165 43.386243386243386,49.523809523809526 43.17460317460318,48.88888888888889 43.17460317460318,48.25396825396826 42.96296296296297,47.61904761904762 42.96296296296297,46.98412698412699 42.75132275132275,46.349206349206355 42.75132275132275,45.714285714285715 42.75132275132275,45.07936507936508 42.539682539682545,44.44444444444445 42.539682539682545,43.80952380952381 42.32804232804233,43.17460317460318 42.32804232804233,42.539682539682545 42.11640211640212,41.904761904761905 42.11640211640212,41.26984126984127 41.904761904761905,40.63492063492064 41.904761904761905,40.0 41.6931216931217,39.36507936507937 41.6931216931217,38.730158730158735 41.6931216931217,38.095238095238095 41.48148148148149,37.46031746031746 41.48148148148149,36.82539682539683 41.26984126984127,36.19047619047619 41.26984126984127,35.55555555555556 41.26984126984127,34.920634920634924 41.26984126984127,34.28571428571429 41.058201058201064,33.65079365079365 41.058201058201064,33.01587301587302 40.84656084656085,32.38095238095239 40.84656084656085,31.746031746031747 40.84656084656085,31.111111111111114 40.84656084656085,30.476190476190478 40.63492063492064,29.841269841269842 40.63492063492064,29.20634920634921 40.63492063492064,28.571428571428573 40.423280423280424,27.93650793650794 40.423280423280424,27.301587301587304 40.423280423280424,26.666666666666668 40.423280423280424,26.031746031746035 40.423280423280424,25.3968253968254 40.423280423280424,24.761904761904763 40.423280423280424,24.12698412698413 40.211640211640216,23.492063492063494 40.211640211640216,22.857142857142858 40.211640211640216,22.222222222222225 40.0,21.58730158730159 40.0,20.952380952380953 40.0,20.31746031746032 40.0,19.682539682539684 40.0,19.047619047619047 40.0,18.412698412698415 40.0,17.77777777777778 40.0,17.142857142857146 40.0,16.50793650793651 40.0,15.873015873015873 40.0,15.238095238095239 40.0,14.603174603174605 40.0,13.96825396825397 40.0,13.333333333333334 40.211640211640216,12.6984126984127 40.211640211640216,12.063492063492065 40.211640211640216,11.428571428571429 40.423280423280424,10.793650793650794 40.423280423280424,10.15873015873016 40.423280423280424,9.523809523809524 40.63492063492064,8.88888888888889 40.63492063492064,8.253968253968255 40.84656084656085,7.6190476190476195 40.84656084656085,6.984126984126985 40.84656084656085,6.34920634920635 41.058201058201064,5.714285714285714 41.058201058201064,5.07936507936508 41.058201058201064,4.444444444444445 41.26984126984127,3.8095238095238098 41.26984126984127,3.174603174603175 41.6931216931217,0.0" style="fill:none; stroke:#3300bb; stroke-width:1.0"  /><circle cx="41.6931216931217" cy="0.0" r="2.0" style="fill:none; stroke:#000000aa; stroke-width:0.25" /><circle cx="146.66666666666669" cy="13.121693121693122" r="2.0" style="fill:none; stroke:#000000aa; stroke-width:0.25" /><circle cx="156.61375661375664" cy="164.02116402116403" r="2.0" style="fill:none; stroke:#000000aa; stroke-width:0.25" /><circle cx="15.873015873015873" cy="155.55555555555557" r="2.0" style="fill:none; stroke:#000000aa; stroke-width:0.25" /><circle cx="42.539682539682545" cy="0.21164021164021166" r="2.0" style="fill:none; stroke:#ff3366aa; stroke-width:0.25" /><circle cx="147.0899470899471" cy="13.121693121693122" r="2.0" style="fill:none; stroke:#ff3366aa; stroke-width:0.25" /><circle cx="156.82539682539684" cy="164.02116402116403" r="2.0" style="fill:none; stroke:#ff3366aa; stroke-width:0.25" /><circle cx="16.50793650793651" cy="155.76719576719577" r="2.0" style="fill:none; stroke:#ff3366aa; stroke-width:0.25" /><polyline points="53.968253968253975,0.634920634920635 53.333333333333336,0.634920634920635 52.6984126984127,0.634920634920635 52.06349206349207,0.634920634920635 51.42857142857143,0.4232804232804233 50.7936507936508,0.4232804232804233 50.158730158730165,0.4232804232804233 49.523809523809526,0.4232804232804233 48.88888888888889,0.4232804232804233 48.25396825396826,0.21164021164021166 47.61904761904762,0.21164021164021166 46.98412698412699,0.21164021164021166 46.349206349206355,0.21164021164021166 45.714285714285715,0.21164021164021166" style="fill:none; stroke:#001100; stroke-width:1.0" /><polyline points="40.211640211640216,11.428571428571429 40.423280423280424,10.793650793650794 40.423280423280424,10.15873015873016 40.423280423280424,9.523809523809524 40.63492063492064,8.88888888888889 40.63492063492064,8.253968253968255 40.84656084656085,7.6190476190476195 40.84656084656085,6.984126984126985 40.84656084656085,6.34920634920635 41.058201058201064,5.714285714285714 41.058201058201064,5.07936507936508 41.058201058201064,4.444444444444445 41.26984126984127,3.8095238095238098 41.26984126984127,3.174603174603175" style="fill:none; stroke:#000011; stroke-width:1.0" /><polyline points="146.45502645502646,24.55026455026455 146.45502645502646,23.915343915343918 146.45502645502646,23.280423280423282 146.45502645502646,22.645502645502646 146.45502645502646,22.010582010582013 146.45502645502646,21.375661375661377 146.24338624338625,20.740740740740744 146.45502645502646,20.105820105820108 146.45502645502646,19.47089947089947 146.45502645502646,18.83597883597884 146.45502645502646,18.201058201058203 146.66666666666669,17.566137566137566 146.66666666666669,16.931216931216934 146.66666666666669,16.296296296296298" style="fill:none; stroke:#001100; stroke-width:1.0" /><polyline points="135.66137566137567,12.275132275132275 136.2962962962963,12.275132275132275 136.93121693121694,12.275132275132275 137.56613756613757,12.486772486772487 138.2010582010582,12.486772486772487 138.83597883597884,12.6984126984127 139.47089947089947,12.6984126984127 140.10582010582013,12.6984126984127 140.74074074074076,12.6984126984127 141.3756613756614,12.6984126984127 142.01058201058203,12.910052910052912 142.64550264550266,12.910052910052912 143.2804232804233,12.910052910052912 143.91534391534393,12.910052910052912" style="fill:none; stroke:#000011; stroke-width:1.0" /><polyline points="145.39682539682542,167.19576719576722 146.03174603174605,166.984126984127 146.66666666666669,166.7724867724868 147.30158730158732,166.56084656084658 147.93650793650795,166.56084656084658 148.57142857142858,166.34920634920636 149.20634920634922,166.13756613756615 149.84126984126985,166.13756613756615 150.47619047619048,165.92592592592595 151.11111111111111,165.71428571428572 151.74603174603175,165.50264550264552 152.38095238095238,165.2910052910053 153.01587301587304,165.0793650793651 153.65079365079367,164.8677248677249" style="fill:none; stroke:#001100; stroke-width:1.0" /><polyline points="155.978835978836,152.5925925925926 155.978835978836,153.22751322751324 155.978835978836,153.86243386243387 155.978835978836,154.4973544973545 156.1904761904762,155.13227513227514 156.1904761904762,155.76719576719577 156.4021164021164,156.4021164021164 156.4021164021164,157.03703703703704 156.4021164021164,157.67195767195767 156.4021164021164,158.30687830687833 156.61375661375664,158.94179894179896 156.4021164021164,159.5767195767196 156.4021164021164,160.21164021164023 156.4021164021164,160.84656084656086" style="fill:none; stroke:#000011; stroke-width:1.0" /><polyline points="20.952380952380953,144.973544973545 20.740740740740744,145.60846560846562 20.31746031746032,146.24338624338625 20.105820105820108,146.8783068783069 19.894179894179896,147.51322751322752 19.47089947089947,148.14814814814815 19.25925925925926,148.78306878306879 18.83597883597884,149.41798941798942 18.624338624338627,150.05291005291005 18.201058201058203,150.6878306878307 17.98941798941799,151.32275132275134 17.77777777777778,151.95767195767198 17.354497354497354,152.5925925925926" style="fill:none; stroke:#001100; stroke-width:1.0" /><polyline points="27.93650793650794,158.0952380952381 27.301587301587304,158.0952380952381 26.666666666666668,157.8835978835979 26.031746031746035,157.67195767195767 25.3968253968254,157.46031746031747 24.761904761904763,157.24867724867727 24.12698412698413,157.24867724867727 23.492063492063494,157.03703703703704 22.857142857142858,156.82539682539684 22.222222222222225,156.82539682539684 21.58730158730159,156.61375661375664 20.952380952380953,156.4021164021164 20.31746031746032,156.1904761904762 19.682539682539684,156.4021164021164" style="fill:none; stroke:#000011; stroke-width:1.0" /><polyline points="45.714285714285715,0.21164021164021166 24.55026455026455,-0.8465608465608466" style="fill:none; stroke:#ffaa00; stroke-width:0.4" /><polyline points="41.26984126984127,3.174603174603175 44.021164021164026,-17.77777777777778" style="fill:none; stroke:#aaff00; stroke-width:0.4" /><polyline points="146.66666666666669,16.296296296296298 147.30158730158732,-4.867724867724868" style="fill:none; stroke:#ffaa00; stroke-width:0.4" /><polyline points="143.91534391534393,12.910052910052912 165.0793650793651,14.603174603174605" style="fill:none; stroke:#aaff00; stroke-width:0.4" /><polyline points="153.65079365079367,164.8677248677249 173.96825396825398,159.15343915343917" style="fill:none; stroke:#ffaa00; stroke-width:0.4" /><polyline points="156.4021164021164,160.84656084656086 157.46031746031747,182.01058201058203" style="fill:none; stroke:#aaff00; stroke-width:0.4" /><polyline points="17.354497354497354,152.5925925925926 8.253968253968255,171.64021164021165" style="fill:none; stroke:#ffaa00; stroke-width:0.4" /><polyline points="19.682539682539684,156.4021164021164 -1.0582010582010584,152.16931216931218" style="fill:none; stroke:#aaff00; stroke-width:0.4" /><circle cx="84.86772486772487" cy="90.7936507936508" r="1.0" style="fill:#444444; stroke-width:0" /><circle cx="74.28571428571429" cy="92.27513227513228" r="10.582010582010582" style="fill:#ff770022; stroke-width:0" /><circle cx="74.28571428571429" cy="92.27513227513228" r="1.0" style="fill:#ff7700; stroke-width:0" /></svg>