<?xml version="1.0" encoding="UTF-8" standalone="no"?><svg width="571.4285714285714" height="527.6190476190477" viewBox="-10 -10 210.47619047619048 195.87301587301587" xmlns="http://www.w3.org/2000/svg" xmlns:xlink="http://www.w3.org/1999/xlink"><polyline points="-0.21164021164021166,70.26455026455027 3.174603174603175,68.35978835978837 3.8095238095238098,68.14814814814815 4.444444444444445,67.72486772486774 4.867724867724868,67.3015873015873 5.502645502645503,66.87830687830689 6.137566137566138,66.66666666666667 6.772486772486773,66.45502645502646 7.407407407407408,66.03174603174604 8.042328042328043,65.60846560846561 8.677248677248677,65.3968253968254 9.312169312169313,65.18518518518519 9.735449735449736,64.76190476190477 10.370370370370372,64.55026455026456 10.793650793650794,64.12698412698413 11.428571428571429,63.91534391534392 12.063492063492065,63.492063492063494 12.486772486772487,63.06878306878308 13.121693121693122,62.85714285714286 13.756613756613758,62.64550264550265 14.391534391534393,62.22222222222223 15.026455026455027,61.798941798941804 15.661375661375663,61.58730158730159 16.296296296296298,61.16402116402117 16.931216931216934,60.952380952380956 17.566137566137566,60.52910052910053 17.98941798941799,60.10582010582011 18.624338624338627,59.682539682539684 19.25925925925926,59.470899470899475 19.682539682539684,59.04761904761905 20.31746031746032,58.62433862433863 20.952380952380953,58.41269841269842 21.58730158730159,57.989417989417994 22.222222222222225,57.777777777777786 22.645502645502646,57.35449735449736 23.280423280423282,56.93121693121694 23.915343915343918,56.71957671957672 24.55026455026455,56.2962962962963 25.185185185185187,56.08465608465609 25.60846560846561,55.661375661375665 26.243386243386244,55.23809523809524 26.87830687830688,55.02645502645503 27.513227513227516,54.60317460317461 28.14814814814815,54.179894179894184 28.783068783068785,53.968253968253975 29.41798941798942,53.54497354497355 29.841269841269842,53.12169312169313 30.476190476190478,52.91005291005291 31.111111111111114,52.48677248677249 31.746031746031747,52.06349206349207 32.38095238095239,51.851851851851855 33.01587301587302,51.42857142857143 33.65079365079365,51.00529100529101 34.28571428571429,50.58201058201058 34.920634920634924,50.370370370370374 35.34391534391535,49.94708994708995 35.97883597883598,49.73544973544974 36.613756613756614,49.31216931216932 37.248677248677254,49.1005291005291 37.67195767195768,48.677248677248684 38.30687830687831,48.46560846560847 38.730158730158735,48.042328042328045 39.36507936507937,47.61904761904762 39.78835978835979,47.195767195767196 40.423280423280424,46.77248677248678 41.058201058201064,46.560846560846564 41.6931216931217,46.13756613756614 42.11640211640212,45.714285714285715 42.75132275132275,45.714285714285715 43.386243386243386,45.29100529100529 44.021164021164026,45.07936507936508 44.44444444444445,44.65608465608466 45.07936507936508,44.232804232804234 45.714285714285715,44.021164021164026 46.349206349206355,43.5978835978836 46.98412698412699,43.17460317460318 47.61904761904762,42.96296296296297 48.042328042328045,42.539682539682545 48.677248677248684,42.11640211640212 49.31216931216932,41.904761904761905 49.94708994708995,41.6931216931217 50.58201058201058,41.26984126984127 51.21693121693122,41.058201058201064 51.851851851851855,40.63492063492064 52.27513227513228,40.211640211640216 52.91005291005291,40.0 53.333333333333336,39.57671957671958 53.75661375661376,39.15343915343916 54.179894179894184,38.730158730158735 54.60317460317461,38.30687830687831 55.02645502645503,37.883597883597886 55.23809523809524,37.248677248677254 55.661375661375665,36.613756613756614 55.87301587301588,35.97883597883598 56.08465608465609,35.34391534391535 56.08465608465609,34.70899470899471 56.08465608465609,34.074074074074076 56.08465608465609,33.43915343915344 56.08465608465609,32.804232804232804 55.87301587301588,32.16931216931217 55.449735449735456,31.53439153439154 55.23809523809524,30.899470899470902 54.81481481481482,30.264550264550266 54.39153439153439,29.629629629629633 53.968253968253975,29.20634920634921 53.54497354497355,28.571428571428573 53.12169312169313,28.14814814814815 52.6984126984127,27.724867724867728 52.27513227513228,27.301587301587304 51.640211640211646,26.87830687830688 51.21693121693122,26.455026455026456 50.7936507936508,26.031746031746035 50.158730158730165,25.60846560846561 49.73544973544974,25.185185185185187 49.31216931216932,24.761904761904763 48.88888888888889,24.338624338624342 48.46560846560847,23.915343915343918 48.042328042328045,23.492063492063494 47.61904761904762,23.06878306878307 46.98412698412699,22.645502645502646 46.560846560846564,22.222222222222225 46.13756613756614,21.7989417989418 45.714285714285715,21.375661375661377 45.29100529100529,20.952380952380953 44.867724867724874,20.529100529100532 44.44444444444445,20.105820105820108 44.021164021164026,19.47089947089947 43.5978835978836,19.047619047619047 43.17460317460318,18.412698412698415 42.75132275132275,17.77777777777778 42.539682539682545,17.142857142857146 42.32804232804233,16.50793650793651 41.904761904761905,15.873015873015873 41.6931216931217,15.238095238095239 41.6931216931217,14.603174603174605 41.48148148148149,13.96825396825397 41.48148148148149,13.333333333333334 41.48148148148149,12.6984126984127 41.48148148148149,12.063492063492065 41.6931216931217,11.428571428571429 41.904761904761905,10.793650793650794 42.11640211640212,10.15873015873016 42.539682539682545,9.523809523809524 42.96296296296297,9.100529100529101 43.386243386243386,8.465608465608467 43.80952380952381,8.042328042328043 44.232804232804234,7.6190476190476195 44.65608465608466,7.195767195767196 45.07936507936508,6.772486772486773 45.714285714285715,6.34920634920635 46.13756613756614,5.9259259259259265 46.560846560846564,5.502645502645503 47.195767195767196,5.07936507936508 47.830687830687836,4.656084656084657 48.46560846560847,4.444444444444445 48.88888888888889,3.8095238095238098 49.523809523809526,3.8095238095238098 50.158730158730165,3.3862433862433865 50.58201058201058,2.9629629629629632 51.00529100529101,2.53968253968254 51.640211640211646,2.3280423280423284 52.27513227513228,2.3280423280423284 52.91005291005291,2.1164021164021167 53.54497354497355,1.9047619047619049 54.179894179894184,1.6931216931216932 54.81481481481482,1.26984126984127 55.449735449735456,0.8465608465608466 56.08465608465609,0.8465608465608466 56.71957671957672,0.8465608465608466 57.35449735449736,0.634920634920635 57.989417989417994,0.634920634920635 58.41269841269842,0.21164021164021166 59.04761904761905,0.634920634920635 59.682539682539684,0.4232804232804233 60.31746031746032,0.21164021164021166 60.952380952380956,0.21164021164021166 61.58730158730159,0.21164021164021166 62.22222222222223,0.21164021164021166 62.85714285714286,0.634920634920635 63.280423280423285,0.21164021164021166 63.91534391534392,0.21164021164021166 64.55026455026456,0.634920634920635 65.18518518518519,0.634920634920635 65.60846560846561,1.0582010582010584 66.24338624338625,1.0582010582010584 66.87830687830689,1.26984126984127 67.51322751322752,1.4814814814814816 68.14814814814815,1.9047619047619049 68.78306878306879,2.3280423280423284 69.20634920634922,2.7513227513227516 69.62962962962963,3.3862433862433865 70.05291005291006,3.8095238095238098 70.26455026455027,4.444444444444445 70.6878306878307,5.07936507936508 70.6878306878307,5.714285714285714 70.8994708994709,6.34920634920635 71.11111111111111,6.984126984126985 71.32275132275133,7.6190476190476195 71.53439153439155,8.253968253968255 71.53439153439155,8.88888888888889 71.53439153439155,9.523809523809524 71.53439153439155,10.15873015873016 71.53439153439155,10.793650793650794 71.53439153439155,11.428571428571429 71.53439153439155,12.063492063492065 71.32275132275133,12.6984126984127 71.32275132275133,13.333333333333334 71.11111111111111,13.96825396825397 71.11111111111111,14.603174603174605 70.8994708994709,15.238095238095239 70.8994708994709,15.873015873015873 70.6878306878307,16.50793650793651 70.6878306878307,17.142857142857146 70.47619047619048,17.77777777777778 70.47619047619048,18.412698412698415 70.47619047619048,19.047619047619047 70.47619047619048,19.682539682539684 70.47619047619048,20.31746031746032 70.47619047619048,20.952380952380953 70.47619047619048,21.58730158730159 70.6878306878307,22.222222222222225 70.8994708994709,22.857142857142858 71.32275132275133,23.492063492063494 71.53439153439155,24.12698412698413 71.95767195767196,24.55026455026455 72.38095238095238,24.973544973544975 73.01587301587303,25.3968253968254 73.65079365079366,25.820105820105823 74.28571428571429,26.031746031746035 74.92063492063492,26.243386243386244 75.55555555555556,26.243386243386244 76.19047619047619,26.455026455026456 76.82539682539684,26.455026455026456 77.46031746031747,26.455026455026456 78.0952380952381,26.455026455026456 78.73015873015873,26.243386243386244 79.36507936507937,26.031746031746035 80.0,26.031746031746035 80.63492063492065,25.60846560846561 81.26984126984128,25.3968253968254 81.90476190476191,25.185185185185187 82.53968253968254,24.973544973544975 83.17460317460318,24.761904761904763 83.80952380952381,24.55026455026455 84.44444444444446,24.338624338624342 85.07936507936509,24.12698412698413 85.71428571428572,23.703703703703706 86.34920634920636,23.492063492063494 86.98412698412699,23.280423280423282 87.61904761904762,23.06878306878307 88.25396825396827,22.645502645502646 88.8888888888889,22.433862433862437 89.52380952380953,22.222222222222225 90.15873015873017,21.7989417989418 90.7936507936508,21.7989417989418 91.42857142857143,21.375661375661377 92.06349206349208,20.952380952380953 92.69841269841271,20.952380952380953 93.33333333333334,20.529100529100532 93.96825396825398,20.31746031746032 94.60317460317461,20.105820105820108 95.23809523809524,19.894179894179896 95.87301587301587,19.682539682539684 96.2962962962963,19.25925925925926 96.93121693121694,19.047619047619047 97.56613756613757,18.83597883597884 98.41269841269842,18.412698412698415 99.04761904761905,17.98941798941799 99.68253968253968,17.77777777777778 100.31746031746033,17.77777777777778 100.74074074074075,17.354497354497354 101.37566137566138,16.931216931216934 102.01058201058201,16.71957671957672 102.64550264550266,16.50793650793651 103.28042328042329,16.084656084656086 103.91534391534393,15.873015873015873 104.55026455026456,15.873015873015873 105.18518518518519,15.449735449735451 105.82010582010582,15.238095238095239 106.45502645502647,15.026455026455027 106.87830687830689,14.603174603174605 107.51322751322752,14.391534391534393 108.14814814814815,14.17989417989418 108.57142857142858,13.756613756613758 109.20634920634922,13.544973544973546 109.62962962962963,13.121693121693122 110.26455026455027,12.910052910052912 110.6878306878307,12.486772486772487 111.32275132275133,12.275132275132275 111.95767195767196,11.851851851851853 112.5925925925926,11.640211640211641 113.22751322751324,11.428571428571429 113.65079365079366,11.005291005291006 114.28571428571429,10.793650793650794 114.92063492063492,10.582010582010582 115.55555555555557,10.15873015873016 116.1904761904762,9.947089947089948 116.82539682539684,9.523809523809524 117.46031746031747,9.100529100529101 118.0952380952381,8.677248677248677 118.73015873015873,8.465608465608467 119.36507936507937,8.253968253968255 120.00000000000001,7.830687830687832 120.63492063492065,7.407407407407408 121.26984126984128,7.195767195767196 121.90476190476191,6.772486772486773 122.32804232804234,6.34920634920635 122.96296296296298,5.9259259259259265 123.59788359788361,5.714285714285714 124.23280423280424,5.291005291005291 124.86772486772487,5.07936507936508 125.2910052910053,4.656084656084657 125.92592592592594,4.2328042328042335 128.88888888888889,2.53968253968254" style="fill:none; stroke:#cc0000; stroke-width:1.0"  /><polyline points="128.88888888888889,2.53968253968254 131.42857142857144,5.07936507936508 131.85185185185185,5.502645502645503 132.4867724867725,5.9259259259259265 132.9100529100529,6.34920634920635 133.33333333333334,6.772486772486773 133.75661375661377,7.195767195767196 134.3915343915344,7.6190476190476195 134.81481481481484,8.042328042328043 135.23809523809524,8.465608465608467 135.66137566137567,8.88888888888889 136.0846560846561,9.523809523809524 136.5079365079365,9.947089947089948 136.93121693121694,10.370370370370372 137.35449735449737,10.793650793650794 137.7777777777778,11.216931216931219 137.989417989418,11.851851851851853 138.41269841269843,12.275132275132275 138.83597883597884,12.6984126984127 139.25925925925927,13.333333333333334 139.6825396825397,13.756613756613758 140.10582010582013,14.391534391534393 140.52910052910053,14.814814814814817 140.95238095238096,15.449735449735451 141.3756613756614,16.084656084656086 141.7989417989418,16.71957671957672 142.22222222222223,17.142857142857146 142.64550264550266,17.77777777777778 143.0687830687831,18.412698412698415 143.4920634920635,19.047619047619047 143.91534391534393,19.682539682539684 144.33862433862436,20.105820105820108 144.76190476190476,20.740740740740744 145.1851851851852,21.375661375661377 145.60846560846562,22.010582010582013 146.03174603174605,22.645502645502646 146.24338624338625,23.280423280423282 146.45502645502646,23.915343915343918 146.66666666666669,24.55026455026455 146.8783068783069,25.185185185185187 147.0899470899471,25.820105820105823 147.0899470899471,26.455026455026456 147.0899470899471,27.089947089947092 146.8783068783069,27.724867724867728 146.66666666666669,28.35978835978836 146.45502645502646,28.994708994708997 146.24338624338625,29.629629629629633 145.82010582010582,30.264550264550266 145.39682539682542,30.899470899470902 144.973544973545,31.322751322751326 144.55026455026456,31.746031746031747 144.12698412698413,32.16931216931217 143.70370370370372,32.804232804232804 143.0687830687831,33.22751322751323 142.43386243386246,33.43915343915344 141.7989417989418,33.86243386243387 141.16402116402116,34.074074074074076 140.52910052910053,34.4973544973545 139.8941798941799,34.70899470899471 139.25925925925927,34.920634920634924 138.62433862433863,35.34391534391535 137.989417989418,35.55555555555556 137.35449735449737,35.76719576719577 136.71957671957674,35.97883597883598 136.0846560846561,35.97883597883598 135.44973544973547,36.19047619047619 134.81481481481484,36.19047619047619 134.17989417989418,36.402116402116405 133.54497354497354,36.402116402116405 132.9100529100529,36.402116402116405 132.27513227513228,36.613756613756614 131.64021164021165,36.613756613756614 131.005291005291,36.82539682539683 130.37037037037038,36.82539682539683 129.73544973544975,37.03703703703704 129.10052910052912,37.248677248677254 128.46560846560848,37.46031746031746 127.83068783068784,37.67195767195768 127.1957671957672,37.883597883597886 126.56084656084657,38.095238095238095 125.92592592592594,38.51851851851852 125.2910052910053,38.730158730158735 124.86772486772487,39.15343915343916 124.23280423280424,39.57671957671958 123.59788359788361,40.0 122.96296296296298,40.423280423280424 122.53968253968254,40.84656084656085 122.11640211640213,41.26984126984127 121.6931216931217,41.6931216931217 121.26984126984128,42.32804232804233 120.84656084656086,42.96296296296297 120.42328042328043,43.5978835978836 120.00000000000001,44.232804232804234 119.7883597883598,44.867724867724874 119.57671957671958,45.50264550264551 119.36507936507937,46.13756613756614 119.15343915343917,46.77248677248678 118.94179894179895,47.40740740740741 118.94179894179895,48.042328042328045 118.73015873015873,48.677248677248684 118.73015873015873,49.31216931216932 118.51851851851853,49.94708994708995 118.51851851851853,50.58201058201058 118.51851851851853,51.21693121693122 118.51851851851853,51.851851851851855 118.51851851851853,52.48677248677249 118.73015873015873,53.12169312169313 118.73015873015873,53.75661375661376 118.94179894179895,54.39153439153439 118.94179894179895,55.02645502645503 119.15343915343917,55.661375661375665 119.36507936507937,56.2962962962963 119.57671957671958,56.93121693121694 119.7883597883598,57.56613756613757 120.00000000000001,58.2010582010582 120.21164021164022,58.83597883597884 120.63492063492065,59.25925925925927 120.84656084656086,59.8941798941799 121.26984126984128,60.52910052910053 121.6931216931217,61.16402116402117 122.11640211640213,61.58730158730159 122.53968253968254,62.22222222222223 122.96296296296298,62.85714285714286 123.3862433862434,63.280423280423285 123.80952380952382,63.70370370370371 124.23280423280424,64.12698412698413 124.65608465608466,64.55026455026456 125.07936507936509,64.97354497354497 125.5026455026455,65.3968253968254 125.92592592592594,65.82010582010582 126.34920634920636,66.24338624338625 126.77248677248679,66.66666666666667 127.40740740740742,67.08994708994709 128.04232804232805,67.51322751322752 128.46560846560848,67.93650793650794 129.10052910052912,68.35978835978837 129.52380952380955,68.78306878306879 130.15873015873018,69.20634920634922 130.7936507936508,69.62962962962963 131.42857142857144,70.05291005291006 132.06349206349208,70.47619047619048 132.6984126984127,70.8994708994709 133.33333333333334,71.32275132275133 133.96825396825398,71.53439153439155 134.6031746031746,71.74603174603175 135.23809523809524,72.16931216931218 135.87301587301587,72.38095238095238 136.5079365079365,72.5925925925926 137.14285714285717,72.5925925925926 137.7777777777778,73.01587301587303 138.41269841269843,73.22751322751323 139.04761904761907,73.43915343915344 139.6825396825397,73.65079365079366 140.31746031746033,73.86243386243387 140.95238095238096,73.86243386243387 141.5873015873016,73.86243386243387 142.22222222222223,74.07407407407408 142.85714285714286,74.07407407407408 143.4920634920635,74.28571428571429 144.12698412698413,74.28571428571429 144.76190476190476,74.07407407407408 145.39682539682542,74.07407407407408 146.03174603174605,73.86243386243387 146.66666666666669,74.07407407407408 147.30158730158732,73.65079365079366 147.93650793650795,73.86243386243387 148.35978835978838,73.43915343915344 148.99470899470901,73.22751322751323 149.62962962962965,73.01587301587303 150.26455026455028,72.80423280423281 150.8994708994709,72.5925925925926 151.53439153439155,72.16931216931218 152.16931216931218,71.74603174603175 152.8042328042328,71.32275132275133 153.43915343915344,70.8994708994709 153.86243386243387,70.47619047619048 154.2857142857143,70.05291005291006 154.92063492063494,69.62962962962963 155.34391534391534,69.20634920634922 155.76719576719577,68.57142857142858 156.1904761904762,67.93650793650794 156.61375661375664,67.3015873015873 157.03703703703704,66.87830687830689 157.24867724867727,66.24338624338625 157.67195767195767,65.82010582010582 157.8835978835979,65.18518518518519 158.0952380952381,64.55026455026456 158.0952380952381,63.91534391534392 158.30687830687833,63.280423280423285 158.30687830687833,62.64550264550265 158.51851851851853,62.01058201058201 158.51851851851853,61.37566137566138 158.51851851851853,60.74074074074075 158.51851851851853,60.10582010582011 158.73015873015873,59.470899470899475 158.73015873015873,58.83597883597884 158.73015873015873,58.2010582010582 158.94179894179896,57.56613756613757 159.15343915343917,56.93121693121694 159.15343915343917,56.2962962962963 159.36507936507937,55.661375661375665 159.7883597883598,55.02645502645503 160.0,54.39153439153439 160.21164021164023,53.75661375661376 160.42328042328043,53.12169312169313 160.84656084656086,52.6984126984127 161.05820105820106,52.06349206349207 161.4814814814815,51.640211640211646 161.90476190476193,51.21693121693122 162.32804232804233,50.7936507936508 162.75132275132276,50.370370370370374 163.1746031746032,49.94708994708995 163.59788359788362,49.523809523809526 164.23280423280426,49.1005291005291 164.8677248677249,48.677248677248684 165.50264550264552,48.46560846560847 166.13756613756615,48.25396825396826 166.7724867724868,47.830687830687836 167.40740740740742,47.61904761904762 168.04232804232805,47.40740740740741 168.67724867724868,47.195767195767196 169.31216931216932,47.40740740740741 169.94708994708995,47.40740740740741 170.58201058201058,47.61904761904762 171.21693121693124,48.042328042328045 171.85185185185188,48.46560846560847 172.27513227513228,48.88888888888889 172.6984126984127,49.31216931216932 173.33333333333334,49.73544973544974 173.75661375661377,50.158730158730165 174.1798941798942,50.58201058201058 174.6031746031746,51.00529100529101 175.02645502645504,51.640211640211646 175.44973544973547,52.06349206349207 176.0846560846561,52.48677248677249 176.50793650793653,53.12169312169313 176.93121693121694,53.54497354497355 177.35449735449737,54.179894179894184 177.7777777777778,54.60317460317461 178.2010582010582,55.02645502645503 178.62433862433863,55.449735449735456 179.04761904761907,56.08465608465609 179.4708994708995,56.50793650793651 179.8941798941799,56.93121693121694 180.31746031746033,57.56613756613757 180.74074074074076,57.989417989417994 181.16402116402116,58.62433862433863 181.5873015873016,59.04761904761905 182.01058201058203,59.682539682539684 182.43386243386246,60.31746031746032 182.85714285714286,60.952380952380956 183.2804232804233,61.37566137566138 183.4920634920635,62.01058201058201 183.91534391534393,62.43386243386244 184.33862433862436,63.06878306878308 184.7619047619048,63.70370370370371 185.1851851851852,64.33862433862434 185.60846560846562,64.97354497354497 185.82010582010582,65.60846560846561 186.24338624338625,66.03174603174604 186.45502645502646,66.66666666666667 186.8783068783069,67.3015873015873 187.30158730158732,67.93650793650794 187.51322751322752,68.57142857142858 187.93650793650795,68.994708994709 188.14814814814815,69.62962962962963 190.05291005291008,72.80423280423281" style="fill:none; stroke:#999900; stroke-width:1.0"  /><polyline points="190.05291005291008,72.80423280423281 187.51322751322752,74.49735449735451 187.08994708994712,74.92063492063492 186.66666666666669,75.34391534391536 186.03174603174605,75.55555555555556 185.39682539682542,75.97883597883599 184.7619047619048,76.19047619047619 184.12698412698415,76.61375661375662 183.70370370370372,77.03703703703704 183.0687830687831,77.46031746031747 182.43386243386246,77.88359788359789 181.79894179894183,78.30687830687832 181.16402116402116,78.73015873015873 180.52910052910053,79.15343915343917 179.8941798941799,79.57671957671958 179.4708994708995,80.0 179.04761904761907,80.42328042328043 178.62433862433863,80.84656084656085 177.989417989418,81.26984126984128 177.35449735449737,81.6931216931217 176.93121693121694,82.11640211640213 176.2962962962963,82.53968253968254 175.66137566137567,82.96296296296298 175.23809523809524,83.3862433862434 174.81481481481484,83.80952380952381 174.1798941798942,84.23280423280424 173.75661375661377,84.65608465608466 173.33333333333334,85.07936507936509 172.6984126984127,85.5026455026455 172.27513227513228,85.92592592592594 171.64021164021165,86.34920634920636 171.21693121693124,86.77248677248677 170.7936507936508,87.1957671957672 170.15873015873018,87.61904761904762 169.73544973544975,88.04232804232805 169.10052910052912,88.46560846560847 168.67724867724868,88.8888888888889 168.25396825396825,89.31216931216932 167.61904761904762,89.73544973544975 167.19576719576722,90.15873015873017 166.7724867724868,90.58201058201058 166.13756613756615,91.00529100529101 165.71428571428572,91.42857142857143 165.2910052910053,91.85185185185186 164.8677248677249,92.27513227513228 164.44444444444446,92.69841269841271 164.02116402116403,93.12169312169313 163.59788359788362,93.54497354497356 162.96296296296296,93.96825396825398 162.32804232804233,94.39153439153439 161.90476190476193,94.81481481481482 161.4814814814815,95.44973544973546 160.84656084656086,95.87301587301587 160.42328042328043,96.2962962962963 160.0,96.71957671957672 159.5767195767196,97.14285714285715 159.15343915343917,97.56613756613757 158.73015873015873,97.989417989418 158.30687830687833,98.41269841269842 157.8835978835979,98.83597883597885 157.46031746031747,99.25925925925927 157.03703703703704,99.68253968253968 156.61375661375664,100.10582010582011 156.1904761904762,100.52910052910053 155.76719576719577,100.95238095238096 155.34391534391534,101.37566137566138 154.92063492063494,102.01058201058201 154.4973544973545,102.43386243386244 154.07407407407408,102.85714285714286 153.65079365079367,103.28042328042329 153.22751322751324,103.70370370370371 152.8042328042328,104.12698412698414 152.38095238095238,104.55026455026456 151.95767195767198,104.97354497354497 151.53439153439155,105.60846560846562 151.11111111111111,106.03174603174604 150.6878306878307,106.45502645502647 150.26455026455028,106.87830687830689 149.84126984126985,107.51322751322752 149.41798941798942,107.93650793650795 148.99470899470901,108.35978835978837 148.57142857142858,108.994708994709 148.14814814814815,109.41798941798943 147.72486772486775,109.84126984126985 147.30158730158732,110.26455026455027 146.8783068783069,110.89947089947091 146.45502645502646,111.32275132275133 146.03174603174605,111.95767195767196 145.60846560846562,112.5925925925926 145.1851851851852,113.22751322751324 144.76190476190476,113.65079365079366 144.33862433862436,114.07407407407408 144.12698412698413,114.70899470899472 143.70370370370372,115.13227513227514 143.2804232804233,115.55555555555557 142.85714285714286,116.1904761904762 142.43386243386246,116.61375661375662 142.01058201058203,117.24867724867725 141.5873015873016,117.67195767195768 141.16402116402116,118.30687830687832 140.74074074074076,118.73015873015873 140.31746031746033,119.36507936507937 139.8941798941799,120.00000000000001 139.47089947089947,120.63492063492065 139.04761904761907,121.26984126984128 138.83597883597884,121.90476190476191 138.62433862433863,122.53968253968254 138.41269841269843,123.17460317460318 138.2010582010582,123.80952380952382 138.2010582010582,124.44444444444446 138.2010582010582,125.07936507936509 138.2010582010582,125.71428571428572 138.2010582010582,126.34920634920636 138.41269841269843,126.98412698412699 138.62433862433863,127.61904761904763 139.04761904761907,128.25396825396825 139.47089947089947,128.88888888888889 139.8941798941799,129.52380952380955 140.31746031746033,129.94708994708995 140.95238095238096,130.37037037037038 141.5873015873016,130.7936507936508 142.22222222222223,131.005291005291 142.64550264550266,131.42857142857144 143.2804232804233,131.64021164021165 143.91534391534393,131.85185185185185 144.55026455026456,132.06349206349208 145.1851851851852,132.27513227513228 145.82010582010582,132.4867724867725 146.45502645502646,132.6984126984127 147.0899470899471,132.9100529100529 147.72486772486775,133.12169312169314 148.35978835978838,133.54497354497354 148.99470899470901,133.75661375661377 149.62962962962965,133.96825396825398 150.26455026455028,134.17989417989418 150.8994708994709,134.3915343915344 151.53439153439155,134.6031746031746 152.16931216931218,134.81481481481484 152.8042328042328,135.23809523809524 153.43915343915344,135.44973544973547 154.07407407407408,135.66137566137567 154.7089947089947,136.0846560846561 155.34391534391534,136.2962962962963 155.978835978836,136.71957671957674 156.61375661375664,136.93121693121694 157.03703703703704,137.35449735449737 157.67195767195767,137.7777777777778 158.30687830687833,138.2010582010582 158.94179894179896,138.62433862433863 159.5767195767196,139.04761904761907 160.0,139.47089947089947 160.42328042328043,139.8941798941799 160.84656084656086,140.31746031746033 161.2698412698413,140.74074074074076 161.6931216931217,141.16402116402116 162.11640211640213,141.5873015873016 162.53968253968256,142.01058201058203 162.96296296296296,142.64550264550266 163.1746031746032,143.2804232804233 163.3862433862434,143.91534391534393 163.3862433862434,144.55026455026456 163.3862433862434,145.1851851851852 163.3862433862434,145.82010582010582 163.3862433862434,146.45502645502646 163.59788359788362,147.0899470899471 163.3862433862434,147.72486772486775 163.3862433862434,148.35978835978838 163.1746031746032,148.99470899470901 162.96296296296296,149.62962962962965 162.75132275132276,150.26455026455028 162.53968253968256,150.8994708994709 162.11640211640213,151.53439153439155 161.90476190476193,152.16931216931218 161.4814814814815,152.8042328042328 161.2698412698413,153.43915343915344 160.84656084656086,154.07407407407408 160.42328042328043,154.7089947089947 160.0,155.34391534391534 159.5767195767196,155.978835978836 159.15343915343917,156.61375661375664 158.73015873015873,157.03703703703704 158.30687830687833,157.46031746031747 157.8835978835979,157.8835978835979 157.46031746031747,158.30687830687833 157.03703703703704,158.73015873015873 156.4021164021164,159.15343915343917 155.978835978836,159.5767195767196 155.55555555555557,160.0 154.92063492063494,160.42328042328043 154.2857142857143,160.63492063492066 153.86243386243387,161.05820105820106 153.22751322751324,161.4814814814815 152.5925925925926,161.90476190476193 151.95767195767198,162.32804232804233 151.32275132275134,162.75132275132276 150.6878306878307,163.1746031746032 150.05291005291005,163.3862433862434 149.62962962962965,163.80952380952382 148.99470899470901,164.02116402116403 148.35978835978838,164.44444444444446 147.72486772486775,164.8677248677249 147.0899470899471,165.0793650793651 146.45502645502646,165.50264550264552 145.82010582010582,165.71428571428572 145.1851851851852,166.13756613756615 144.55026455026456,166.34920634920636 144.12698412698413,166.7724867724868 143.4920634920635,166.984126984127 142.85714285714286,167.19576719576722 142.22222222222223,167.40740740740742 141.5873015873016,167.40740740740742 140.95238095238096,167.61904761904762 140.31746031746033,167.61904761904762 139.6825396825397,167.61904761904762 139.04761904761907,167.61904761904762 138.41269841269843,167.40740740740742 137.7777777777778,167.19576719576722 137.14285714285717,166.984126984127 136.5079365079365,166.56084656084658 136.0846560846561,166.13756613756615 135.44973544973547,165.71428571428572 135.02645502645504,165.2910052910053 134.6031746031746,164.8677248677249 134.17989417989418,164.44444444444446 133.75661375661377,164.02116402116403 133.33333333333334,163.3862433862434 132.9100529100529,162.75132275132276 132.4867724867725,162.11640211640213 132.27513227513228,161.4814814814815 131.85185185185185,160.84656084656086 131.64021164021165,160.21164021164023 131.42857142857144,159.5767195767196 131.21693121693121,158.94179894179896 130.7936507936508,158.30687830687833 130.58201058201058,157.67195767195767 130.58201058201058,157.03703703703704 130.37037037037038,156.4021164021164 130.15873015873018,155.76719576719577 129.94708994708995,155.13227513227514 129.94708994708995,154.4973544973545 129.94708994708995,153.86243386243387 129.73544973544975,153.22751322751324 129.52380952380955,152.5925925925926 129.52380952380955,151.95767195767198 129.31216931216932,151.32275132275134 129.31216931216932,150.6878306878307 129.10052910052912,150.05291005291005 129.10052910052912,149.41798941798942 128.88888888888889,148.78306878306879 128.67724867724868,148.14814814814815 128.46560846560848,147.51322751322752 128.04232804232805,146.8783068783069 127.61904761904763,146.24338624338625 127.40740740740742,145.60846560846562 126.98412698412699,145.1851851851852 126.56084656084657,144.76190476190476 126.13756613756615,144.33862433862436 125.71428571428572,143.91534391534393 125.07936507936509,143.4920634920635 124.44444444444446,143.0687830687831 123.80952380952382,142.85714285714286 123.17460317460318,142.64550264550266 122.53968253968254,142.64550264550266 121.90476190476191,142.64550264550266 121.26984126984128,142.64550264550266 120.63492063492065,142.64550264550266 120.00000000000001,142.85714285714286 119.36507936507937,143.0687830687831 118.73015873015873,143.2804232804233 118.0952380952381,143.2804232804233 117.67195767195768,143.70370370370372 117.03703703703705,144.12698412698413 116.4021164021164,144.55026455026456 115.97883597883599,144.973544973545 115.34391534391536,145.39682539682542 114.70899470899472,145.82010582010582 114.28571428571429,146.24338624338625 113.86243386243387,146.66666666666669 113.43915343915344,147.0899470899471 113.01587301587303,147.51322751322752 112.3809523809524,147.93650793650795 111.95767195767196,148.35978835978838 111.32275132275133,148.78306878306879 110.89947089947091,149.20634920634922 110.26455026455027,149.62962962962965 109.84126984126985,150.05291005291005 109.41798941798943,150.47619047619048 108.994708994709,150.8994708994709 108.35978835978837,151.32275132275134 107.93650793650795,151.74603174603175 107.3015873015873,152.16931216931218 106.87830687830689,152.5925925925926 106.24338624338625,153.01587301587304 105.82010582010582,153.43915343915344 105.3968253968254,153.86243386243387 104.76190476190477,154.2857142857143 104.33862433862434,154.7089947089947 103.91534391534393,155.13227513227514 103.28042328042329,155.55555555555557 102.85714285714286,155.978835978836 102.22222222222223,156.4021164021164 101.79894179894181,156.82539682539684 101.16402116402116,157.24867724867727 100.74074074074075,157.67195767195767 100.31746031746033,158.0952380952381 99.68253968253968,158.51851851851853 99.25925925925927,158.94179894179896 98.62433862433863,159.36507936507937 98.2010582010582,159.7883597883598 97.77777777777779,160.21164021164023 97.14285714285715,160.63492063492066 96.71957671957672,161.05820105820106 96.08465608465609,161.4814814814815 95.66137566137567,161.90476190476193 95.23809523809524,162.32804232804233 94.81481481481482,162.75132275132276 94.17989417989419,163.1746031746032 93.75661375661376,163.59788359788362 93.33333333333334,164.02116402116403 92.91005291005291,164.44444444444446 92.27513227513228,164.8677248677249 91.85185185185186,165.2910052910053 91.42857142857143,165.71428571428572 91.00529100529101,166.13756613756615 90.58201058201058,166.56084656084658 89.94708994708995,166.984126984127 89.52380952380953,167.40740740740742 89.1005291005291,167.83068783068785 88.67724867724868,168.25396825396825 88.25396825396827,168.67724867724868 87.83068783068784,169.10052910052912 87.40740740740742,169.52380952380955 86.98412698412699,169.94708994708995 86.56084656084657,170.37037037037038 86.13756613756614,170.7936507936508 85.71428571428572,171.21693121693124 85.29100529100529,171.64021164021165 84.86772486772487,172.06349206349208 84.44444444444446,172.4867724867725 84.02116402116403,172.9100529100529 83.59788359788361,173.33333333333334 81.48148148148148,175.44973544973547" style="fill:none; stroke:#00aa99; stroke-width:1.0"  /><polyline points="81.48148148148148,175.44973544973547 79.15343915343917,172.6984126984127 78.73015873015873,172.27513227513228 78.30687830687832,171.64021164021165 77.88359788359789,171.005291005291 77.46031746031747,170.58201058201058 77.03703703703704,169.94708994708995 76.61375661375662,169.52380952380955 76.19047619047619,168.8888888888889 75.76719576719577,168.25396825396825 75.34391534391536,167.83068783068785 74.92063492063492,167.19576719576722 74.49735449735451,166.7724867724868 74.07407407407408,166.34920634920636 73.65079365079366,165.71428571428572 73.22751322751323,165.2910052910053 72.80423280423281,164.65608465608466 72.38095238095238,164.02116402116403 71.95767195767196,163.3862433862434 71.53439153439155,162.96296296296296 71.11111111111111,162.32804232804233 70.6878306878307,161.90476190476193 70.26455026455027,161.2698412698413 69.84126984126985,160.63492063492066 69.41798941798942,160.0 68.994708994709,159.5767195767196 68.57142857142858,158.94179894179896 68.14814814814815,158.51851851851853 67.72486772486774,157.8835978835979 67.3015873015873,157.46031746031747 66.87830687830689,156.82539682539684 66.45502645502646,156.1904761904762 66.03174603174604,155.55555555555557 65.60846560846561,155.13227513227514 65.18518518518519,154.7089947089947 64.76190476190477,154.07407407407408 64.33862433862434,153.65079365079367 63.91534391534392,153.01587301587304 63.492063492063494,152.38095238095238 63.06878306878308,151.74603174603175 62.64550264550265,151.32275132275134 62.22222222222223,150.6878306878307 61.798941798941804,150.26455026455028 61.37566137566138,149.62962962962965 60.952380952380956,148.99470899470901 60.52910052910053,148.35978835978838 60.10582010582011,147.93650793650795 59.682539682539684,147.30158730158732 59.25925925925927,146.8783068783069 58.83597883597884,146.45502645502646 58.41269841269842,145.82010582010582 57.989417989417994,145.39682539682542 57.56613756613757,144.76190476190476 57.142857142857146,144.12698412698413 56.71957671957672,143.70370370370372 56.2962962962963,143.0687830687831 55.87301587301588,142.43386243386246 55.449735449735456,142.01058201058203 55.02645502645503,141.5873015873016 54.81481481481482,140.95238095238096 54.39153439153439,140.52910052910053 53.968253968253975,139.8941798941799 53.54497354497355,139.25925925925927 53.12169312169313,138.83597883597884 52.6984126984127,138.2010582010582 52.27513227513228,137.7777777777778 51.851851851851855,137.14285714285717 51.42857142857143,136.71957671957674 51.00529100529101,136.0846560846561 50.58201058201058,135.66137566137567 50.158730158730165,135.23809523809524 49.94708994708995,134.6031746031746 49.523809523809526,134.17989417989418 49.31216931216932,133.54497354497354 48.88888888888889,133.12169312169314 48.46560846560847,132.4867724867725 48.042328042328045,131.85185185185185 47.61904761904762,131.42857142857144 47.195767195767196,130.7936507936508 46.77248677248678,130.15873015873018 46.349206349206355,129.73544973544975 45.92592592592593,129.10052910052912 45.50264550264551,128.46560846560848 45.07936507936508,128.04232804232805 44.65608465608466,127.40740740740742 44.232804232804234,126.98412698412699 43.80952380952381,126.34920634920636 43.386243386243386,125.71428571428572 42.96296296296297,125.2910052910053 42.539682539682545,124.65608465608466 42.11640211640212,124.02116402116403 41.6931216931217,123.59788359788361 41.26984126984127,122.96296296296298 40.84656084656085,122.53968253968254 40.423280423280424,121.90476190476191 40.0,121.26984126984128 39.57671957671958,120.63492063492065 38.94179894179894,120.21164021164022 38.51851851851852,119.57671957671958 38.095238095238095,118.94179894179895 37.67195767195768,118.30687830687832 37.248677248677254,117.67195767195768 36.82539682539683,117.24867724867725 36.402116402116405,116.82539682539684 35.97883597883598,116.1904761904762 35.55555555555556,115.55555555555557 35.13227513227513,115.13227513227514 34.70899470899471,114.49735449735451 34.28571428571429,114.07407407407408 33.86243386243387,113.43915343915344 33.43915343915344,113.01587301587303 33.01587301587302,112.3809523809524 32.592592592592595,111.95767195767196 32.16931216931217,111.53439153439155 31.746031746031747,111.11111111111111 31.322751322751326,110.47619047619048 30.899470899470902,109.84126984126985 30.476190476190478,109.20634920634922 30.052910052910054,108.78306878306879 29.629629629629633,108.14814814814815 29.20634920634921,107.72486772486774 28.783068783068785,107.0899470899471 28.35978835978836,106.66666666666667 27.93650793650794,106.03174603174604 27.513227513227516,105.60846560846562 27.089947089947092,104.97354497354497 26.666666666666668,104.33862433862434 26.243386243386244,103.91534391534393 26.031746031746035,103.28042328042329 25.60846560846561,102.85714285714286 25.185185185185187,102.43386243386244 24.761904761904763,102.01058201058201 24.338624338624342,101.5873015873016 23.915343915343918,100.95238095238096 23.492063492063494,100.52910052910053 23.06878306878307,99.8941798941799 22.645502645502646,99.25925925925927 22.222222222222225,98.83597883597885 21.7989417989418,98.2010582010582 21.375661375661377,97.56613756613757 20.952380952380953,97.14285714285715 20.529100529100532,96.50793650793652 20.105820105820108,96.08465608465609 19.682539682539684,95.44973544973546 19.25925925925926,95.02645502645504 18.83597883597884,94.39153439153439 18.412698412698415,93.75661375661376 17.98941798941799,93.33333333333334 17.566137566137566,92.69841269841271 17.142857142857146,92.06349206349208 16.71957671957672,91.64021164021165 16.296296296296298,91.21693121693123 15.873015873015873,90.58201058201058 15.449735449735451,89.94708994708995 15.026455026455027,89.31216931216932 14.603174603174605,88.8888888888889 14.17989417989418,88.25396825396827 13.756613756613758,87.61904761904762 13.333333333333334,86.98412698412699 12.910052910052912,86.56084656084657 12.486772486772487,85.92592592592594 12.063492063492065,85.5026455026455 11.640211640211641,84.86772486772487 11.216931216931219,84.44444444444446 10.793650793650794,83.80952380952381 10.370370370370372,83.17460317460318 9.947089947089948,82.75132275132276 9.523809523809524,82.11640211640213 9.100529100529101,81.6931216931217 8.677248677248677,81.05820105820106 8.253968253968255,80.42328042328043 7.830687830687832,80.0 7.6190476190476195,79.36507936507937 7.195767195767196,78.94179894179895 6.772486772486773,78.51851851851852 6.34920634920635,77.88359788359789 5.9259259259259265,77.24867724867725 5.502645502645503,76.82539682539684 5.07936507936508,76.4021164021164 4.656084656084657,75.97883597883599 4.2328042328042335,75.55555555555556 3.8095238095238098,75.13227513227514 3.3862433862433865,74.49735449735451 2.9629629629629632,74.07407407407408 2.53968253968254,73.43915343915344 2.1164021164021167,73.01587301587303 -0.21164021164021166,70.26455026455027" style="fill:none; stroke:#3300bb; stroke-width:3.0" stroke-dasharray="6,3" /><circle cx="-0.21164021164021166" cy="70.26455026455027" r="2.0" style="fill:none; stroke:#000000aa; stroke-width:0.25" /><circle cx="128.88888888888889" cy="2.53968253968254" r="2.0" style="fill:none; stroke:#000000aa; stroke-width:0.25" /><circle cx="190.05291005291008" cy="72.80423280423281" r="2.0" style="fill:none; stroke:#000000aa; stroke-width:0.25" /><circle cx="81.48148148148148" cy="175.44973544973547" r="2.0" style="fill:none; stroke:#000000aa; stroke-width:0.25" /><circle cx="0.21164021164021166" cy="70.26455026455027" r="2.0" style="fill:none; stroke:#ff3366aa; stroke-width:0.25" /><circle cx="129.31216931216932" cy="2.9629629629629632" r="2.0" style="fill:none; stroke:#ff3366aa; stroke-width:0.25" /><circle cx="190.05291005291008" cy="72.80423280423281" r="2.0" style="fill:none; stroke:#ff3366aa; stroke-width:0.25" /><circle cx="81.05820105820106" cy="175.44973544973547" r="2.0" style="fill:none; stroke:#ff3366aa; stroke-width:0.25" /><polyline points="10.370370370370372,64.55026455026456 9.735449735449736,64.76190476190477 9.312169312169313,65.18518518518519 8.677248677248677,65.3968253968254 8.042328042328043,65.60846560846561 7.407407407407408,66.03174603174604 6.772486772486773,66.45502645502646 6.137566137566138,66.66666666666667 5.502645502645503,66.87830687830689 4.867724867724868,67.3015873015873 4.444444444444445,67.72486772486774 3.8095238095238098,68.14814814814815 3.174603174603175,68.35978835978837" style="fill:none; stroke:#001100; stroke-width:1.0" /><polyline points="7.6190476190476195,79.36507936507937 7.195767195767196,78.94179894179895 6.772486772486773,78.51851851851852 6.34920634920635,77.88359788359789 5.9259259259259265,77.24867724867725 5.502645502645503,76.82539682539684 5.07936507936508,76.4021164021164 4.656084656084657,75.97883597883599 4.2328042328042335,75.55555555555556 3.8095238095238098,75.13227513227514 3.3862433862433865,74.49735449735451 2.9629629629629632,74.07407407407408 2.53968253968254,73.43915343915344 2.1164021164021167,73.01587301587303" style="fill:none; stroke:#000011; stroke-width:1.0" /><polyline points="137.7777777777778,11.216931216931219 137.35449735449737,10.793650793650794 136.93121693121694,10.370370370370372 136.5079365079365,9.947089947089948 136.0846560846561,9.523809523809524 135.66137566137567,8.88888888888889 135.23809523809524,8.465608465608467 134.81481481481484,8.042328042328043 134.3915343915344,7.6190476190476195 133.75661375661377,7.195767195767196 133.33333333333334,6.772486772486773 132.9100529100529,6.34920634920635 132.4867724867725,5.9259259259259265 131.85185185185185,5.502645502645503 131.42857142857144,5.07936507936508" style="fill:none; stroke:#001100; stroke-width:1.0" /><polyline points="118.73015873015873,8.465608465608467 119.36507936507937,8.253968253968255 120.00000000000001,7.830687830687832 120.63492063492065,7.407407407407408 121.26984126984128,7.195767195767196 121.90476190476191,6.772486772486773 122.32804232804234,6.34920634920635 122.96296296296298,5.9259259259259265 123.59788359788361,5.714285714285714 124.23280423280424,5.291005291005291 124.86772486772487,5.07936507936508 125.2910052910053,4.656084656084657 125.92592592592594,4.2328042328042335" style="fill:none; stroke:#000011; stroke-width:1.0" /><polyline points="180.52910052910053,79.15343915343917 181.16402116402116,78.73015873015873 181.79894179894183,78.30687830687832 182.43386243386246,77.88359788359789 183.0687830687831,77.46031746031747 183.70370370370372,77.03703703703704 184.12698412698415,76.61375661375662 184.7619047619048,76.19047619047619 185.39682539682542,75.97883597883599 186.03174603174605,75.55555555555556 186.66666666666669,75.34391534391536 187.08994708994712,74.92063492063492 187.51322751322752,74.49735449735451" style="fill:none; stroke:#001100; stroke-width:1.0" /><polyline points="183.91534391534393,62.43386243386244 184.33862433862436,63.06878306878308 184.7619047619048,63.70370370370371 185.1851851851852,64.33862433862434 185.60846560846562,64.97354497354497 185.82010582010582,65.60846560846561 186.24338624338625,66.03174603174604 186.45502645502646,66.66666666666667 186.8783068783069,67.3015873015873 187.30158730158732,67.93650793650794 187.51322751322752,68.57142857142858 187.93650793650795,68.994708994709 188.14814814814815,69.62962962962963" style="fill:none; stroke:#000011; stroke-width:1.0" /><polyline points="74.07407407407408,166.34920634920636 74.49735449735451,166.7724867724868 74.92063492063492,167.19576719576722 75.34391534391536,167.83068783068785 75.76719576719577,168.25396825396825 76.19047619047619,168.8888888888889 76.61375661375662,169.52380952380955 77.03703703703704,169.94708994708995 77.46031746031747,170.58201058201058 77.88359788359789,171.005291005291 78.30687830687832,171.64021164021165 78.73015873015873,172.27513227513228 79.15343915343917,172.6984126984127" style="fill:none; stroke:#001100; stroke-width:1.0" /><polyline points="89.52380952380953,167.40740740740742 89.1005291005291,167.83068783068785 88.67724867724868,168.25396825396825 88.25396825396827,168.67724867724868 87.83068783068784,169.10052910052912 87.40740740740742,169.52380952380955 86.98412698412699,169.94708994708995 86.56084656084657,170.37037037037038 86.13756613756614,170.7936507936508 85.71428571428572,171.21693121693124 85.29100529100529,171.64021164021165 84.86772486772487,172.06349206349208 84.44444444444446,172.4867724867725 84.02116402116403,172.9100529100529 83.59788359788361,173.33333333333334" style="fill:none; stroke:#000011; stroke-width:1.0" /><polyline points="3.174603174603175,68.35978835978837 -15.449735449735451,78.30687830687832" style="fill:none; stroke:#ffaa00; stroke-width:0.4" /><polyline points="2.1164021164021167,73.01587301587303 -11.640211640211641,56.93121693121694" style="fill:none; stroke:#aaff00; stroke-width:0.4" /><polyline points="131.42857142857144,5.07936507936508 116.1904761904762,-9.735449735449736" style="fill:none; stroke:#ffaa00; stroke-width:0.4" /><polyline points="125.92592592592594,4.2328042328042335 144.12698412698413,-6.560846560846561" style="fill:none; stroke:#aaff00; stroke-width:0.4" /><polyline points="187.51322751322752,74.49735449735451 205.0793650793651,62.85714285714286" style="fill:none; stroke:#ffaa00; stroke-width:0.4" /><polyline points="188.14814814814815,69.62962962962963 198.94179894179896,87.83068783068784" style="fill:none; stroke:#aaff00; stroke-width:0.4" /><polyline points="79.15343915343917,172.6984126984127 92.27513227513228,189.20634920634922" style="fill:none; stroke:#ffaa00; stroke-width:0.4" /><polyline points="83.59788359788361,173.33333333333334 68.57142857142858,188.35978835978838" style="fill:none; stroke:#aaff00; stroke-width:0.4" /><circle cx="93.54497354497356" cy="86.34920634920636" r="1.0" style="fill:#444444; stroke-width:0" /><circle cx="84.86772486772487" cy="96.2962962962963" r="10.582010582010582" style="fill:#ff770022; stroke-width:0" /><circle cx="84.86772486772487" cy="96.2962962962963" r="1.0" style="fill:#ff7700; stroke-width:0" /></svg>