<?xml version="1.0" encoding="UTF-8" standalone="no"?><svg width="614.6031746031747" height="474.92063492063494" viewBox="-10 -10 224.8677248677249 178.30687830687833" xmlns="http://www.w3.org/2000/svg" xmlns:xlink="http://www.w3.org/1999/xlink"><polyline points="79.36507936507937,0.0 82.32804232804233,2.3280423280423284 82.96296296296298,2.7513227513227516 83.3862433862434,3.174603174603175 84.02116402116403,3.597883597883598 84.65608465608466,4.021164021164021 85.07936507936509,4.444444444444445 85.5026455026455,4.867724867724868 86.13756613756614,5.291005291005291 86.56084656084657,5.714285714285714 86.98412698412699,6.137566137566138 87.61904761904762,6.560846560846561 88.25396825396827,6.984126984126985 88.67724867724868,7.407407407407408 89.31216931216932,7.830687830687832 89.73544973544975,8.253968253968255 90.37037037037038,8.677248677248677 90.7936507936508,9.100529100529101 91.42857142857143,9.523809523809524 91.85185185185186,9.947089947089948 92.4867724867725,10.370370370370372 92.91005291005291,10.793650793650794 93.54497354497356,11.216931216931219 93.96825396825398,11.640211640211641 94.60317460317461,12.063492063492065 95.02645502645504,12.486772486772487 95.44973544973546,12.910052910052912 96.08465608465609,13.333333333333334 96.50793650793652,13.756613756613758 97.14285714285715,14.17989417989418 97.56613756613757,14.603174603174605 97.989417989418,15.026455026455027 98.62433862433863,15.449735449735451 99.04761904761905,15.873015873015873 99.47089947089948,16.296296296296298 100.10582010582011,16.50793650793651 100.52910052910053,16.931216931216934 100.95238095238096,17.354497354497354 101.5873015873016,17.77777777777778 102.22222222222223,18.201058201058203 102.64550264550266,18.624338624338627 103.06878306878308,19.047619047619047 103.70370370370371,19.47089947089947 104.12698412698414,19.894179894179896 104.55026455026456,20.31746031746032 105.18518518518519,20.740740740740744 105.60846560846562,21.164021164021165 106.03174603174604,21.58730158730159 106.45502645502647,22.010582010582013 106.87830687830689,22.433862433862437 107.3015873015873,22.857142857142858 107.72486772486774,23.280423280423282 108.14814814814815,23.703703703703706 108.57142857142858,24.12698412698413 108.994708994709,24.55026455026455 109.62962962962963,24.973544973544975 110.05291005291006,25.3968253968254 110.47619047619048,25.820105820105823 110.89947089947091,26.243386243386244 111.32275132275133,26.666666666666668 111.74603174603176,27.089947089947092 112.3809523809524,27.513227513227516 112.80423280423281,27.93650793650794 113.22751322751324,28.35978835978836 113.65079365079366,28.783068783068785 114.07407407407408,29.20634920634921 114.49735449735451,29.629629629629633 114.92063492063492,30.052910052910054 115.34391534391536,30.476190476190478 115.97883597883599,30.899470899470902 116.4021164021164,31.322751322751326 116.82539682539684,31.746031746031747 117.46031746031747,32.16931216931217 117.88359788359789,32.592592592592595 118.30687830687832,33.01587301587302 118.94179894179895,33.43915343915344 119.36507936507937,33.86243386243387 120.00000000000001,34.28571428571429 120.42328042328043,34.70899470899471 121.05820105820106,35.13227513227513 121.4814814814815,35.55555555555556 122.11640211640213,35.97883597883598 122.53968253968254,36.402116402116405 123.17460317460318,36.82539682539683 123.80952380952382,37.248677248677254 124.23280423280424,37.67195767195768 124.86772486772487,37.883597883597886 125.5026455026455,38.30687830687831 125.92592592592594,38.730158730158735 126.56084656084657,39.15343915343916 127.1957671957672,39.57671957671958 127.83068783068784,40.0 128.46560846560848,40.423280423280424 129.10052910052912,40.63492063492064 129.73544973544975,41.058201058201064 130.37037037037038,41.26984126984127 131.005291005291,41.48148148148149 131.64021164021165,41.48148148148149 132.27513227513228,41.6931216931217 132.9100529100529,41.6931216931217 133.54497354497354,41.6931216931217 134.17989417989418,41.6931216931217 134.81481481481484,41.6931216931217 135.23809523809524,41.26984126984127 135.87301587301587,41.058201058201064 136.2962962962963,40.63492063492064 136.93121693121694,40.423280423280424 137.35449735449737,40.0 137.7777777777778,39.57671957671958 138.2010582010582,39.15343915343916 138.62433862433863,38.51851851851852 138.83597883597884,37.883597883597886 139.25925925925927,37.248677248677254 139.47089947089947,36.613756613756614 139.6825396825397,35.97883597883598 139.8941798941799,35.34391534391535 140.10582010582013,34.70899470899471 140.10582010582013,34.074074074074076 140.31746031746033,33.43915343915344 140.31746031746033,32.804232804232804 140.52910052910053,32.16931216931217 140.52910052910053,31.53439153439154 140.74074074074076,30.899470899470902 140.74074074074076,30.264550264550266 140.95238095238096,29.629629629629633 140.95238095238096,28.994708994708997 140.95238095238096,28.35978835978836 140.95238095238096,27.724867724867728 140.95238095238096,27.089947089947092 140.95238095238096,26.455026455026456 140.95238095238096,25.820105820105823 140.74074074074076,25.185185185185187 140.74074074074076,24.55026455026455 140.74074074074076,23.915343915343918 140.52910052910053,23.280423280423282 140.52910052910053,22.645502645502646 140.52910052910053,22.010582010582013 140.52910052910053,21.375661375661377 140.31746031746033,20.740740740740744 140.31746031746033,20.105820105820108 140.31746031746033,19.47089947089947 140.10582010582013,18.83597883597884 140.10582010582013,18.201058201058203 139.8941798941799,17.566137566137566 139.6825396825397,16.931216931216934 139.6825396825397,16.296296296296298 139.6825396825397,15.661375661375663 139.47089947089947,15.026455026455027 139.47089947089947,14.391534391534393 139.47089947089947,13.756613756613758 139.25925925925927,13.121693121693122 139.25925925925927,12.486772486772487 139.47089947089947,11.851851851851853 139.25925925925927,11.216931216931219 139.47089947089947,10.582010582010582 139.47089947089947,9.947089947089948 139.6825396825397,9.312169312169313 139.8941798941799,8.677248677248677 140.10582010582013,8.042328042328043 140.31746031746033,7.407407407407408 140.74074074074076,6.772486772486773 141.16402116402116,6.137566137566138 141.5873015873016,5.502645502645503 142.22222222222223,5.07936507936508 142.64550264550266,4.444444444444445 143.2804232804233,4.2328042328042335 143.91534391534393,4.021164021164021 144.55026455026456,3.8095238095238098 145.1851851851852,3.597883597883598 145.82010582010582,3.597883597883598 146.45502645502646,3.597883597883598 147.0899470899471,3.597883597883598 147.72486772486775,3.3862433862433865 148.35978835978838,3.3862433862433865 148.99470899470901,3.3862433862433865 149.62962962962965,3.3862433862433865 150.26455026455028,3.3862433862433865 150.8994708994709,3.3862433862433865 151.53439153439155,3.3862433862433865 152.16931216931218,3.3862433862433865 152.8042328042328,3.3862433862433865 153.43915343915344,3.3862433862433865 154.07407407407408,3.3862433862433865 154.7089947089947,3.3862433862433865 155.34391534391534,3.3862433862433865 155.978835978836,3.597883597883598 156.61375661375664,3.597883597883598 157.24867724867727,3.597883597883598 157.8835978835979,3.8095238095238098 158.51851851851853,4.021164021164021 159.15343915343917,4.2328042328042335 159.7883597883598,4.2328042328042335 160.42328042328043,4.444444444444445 161.05820105820106,4.867724867724868 161.6931216931217,5.07936507936508 162.32804232804233,5.291005291005291 162.96296296296296,5.502645502645503 163.59788359788362,5.9259259259259265 164.23280423280426,5.9259259259259265 164.65608465608466,6.34920634920635 165.2910052910053,6.560846560846561 165.71428571428572,6.984126984126985 166.34920634920636,7.407407407407408 166.984126984127,7.830687830687832 167.61904761904762,8.253968253968255 168.25396825396825,8.677248677248677 168.67724867724868,9.100529100529101 169.31216931216932,9.523809523809524 169.73544973544975,9.947089947089948 170.37037037037038,10.15873015873016 170.7936507936508,10.582010582010582 171.21693121693124,11.005291005291006 171.64021164021165,11.428571428571429 172.06349206349208,11.851851851851853 172.4867724867725,12.275132275132275 172.9100529100529,12.6984126984127 173.33333333333334,13.121693121693122 173.75661375661377,13.544973544973546 174.1798941798942,13.96825396825397 174.6031746031746,14.391534391534393 175.02645502645504,14.814814814814817 175.44973544973547,15.449735449735451 175.87301587301587,15.873015873015873 176.2962962962963,16.50793650793651 176.71957671957674,17.142857142857146 177.14285714285717,17.566137566137566 177.35449735449737,18.201058201058203 177.7777777777778,18.83597883597884 177.7777777777778,19.47089947089947 177.989417989418,20.105820105820108 177.989417989418,20.740740740740744 177.989417989418,21.375661375661377 177.7777777777778,22.010582010582013 177.56613756613757,22.645502645502646 177.35449735449737,23.280423280423282 176.93121693121694,23.915343915343918 176.71957671957674,24.55026455026455 176.2962962962963,24.973544973544975 175.87301587301587,25.60846560846561 175.44973544973547,26.243386243386244 175.02645502645504,26.87830687830688 174.6031746031746,27.301587301587304 174.1798941798942,27.93650793650794 173.75661375661377,28.35978835978836 173.33333333333334,28.783068783068785 172.9100529100529,29.20634920634921 172.4867724867725,29.629629629629633 171.85185185185188,30.052910052910054 171.42857142857144,30.476190476190478 171.005291005291,30.899470899470902 170.37037037037038,31.322751322751326 169.94708994708995,31.746031746031747 169.52380952380955,32.16931216931217 168.8888888888889,32.592592592592595 168.46560846560848,33.01587301587302 167.83068783068785,33.43915343915344 167.19576719576722,33.86243386243387 166.56084656084658,34.28571428571429 166.13756613756615,34.70899470899471 165.50264550264552,35.13227513227513 165.0793650793651,35.55555555555556 164.65608465608466,35.97883597883598 164.23280423280426,36.402116402116405 163.80952380952382,37.03703703703704 163.3862433862434,37.67195767195768 162.96296296296296,38.30687830687831 162.96296296296296,38.94179894179894 162.75132275132276,39.57671957671958 162.75132275132276,40.211640211640216 162.75132275132276,40.84656084656085 162.75132275132276,41.48148148148149 162.96296296296296,42.11640211640212 163.1746031746032,42.75132275132275 163.3862433862434,43.386243386243386 163.80952380952382,44.021164021164026 164.23280423280426,44.65608465608466 164.65608465608466,45.07936507936508 165.0793650793651,45.50264550264551 165.50264550264552,45.92592592592593 166.13756613756615,46.349206349206355 166.7724867724868,46.77248677248678 167.40740740740742,47.195767195767196 168.04232804232805,47.40740740740741 168.67724867724868,47.61904761904762 169.31216931216932,48.042328042328045 169.94708994708995,48.25396825396826 170.58201058201058,48.25396825396826 171.21693121693124,48.677248677248684 171.85185185185188,48.88888888888889 172.4867724867725,49.1005291005291 173.12169312169314,49.31216931216932 173.75661375661377,49.31216931216932 174.3915343915344,49.73544973544974 175.02645502645504,49.94708994708995 175.66137566137567,49.94708994708995 176.2962962962963,50.158730158730165 176.93121693121694,50.370370370370374 177.56613756613757,50.58201058201058 178.2010582010582,50.58201058201058 178.83597883597884,50.7936507936508 179.4708994708995,51.00529100529101 180.10582010582013,51.00529100529101 180.74074074074076,51.21693121693122 181.3756613756614,51.21693121693122 182.01058201058203,51.21693121693122 182.64550264550266,51.21693121693122 183.2804232804233,51.42857142857143 183.91534391534393,51.42857142857143 184.55026455026456,51.21693121693122 185.1851851851852,51.21693121693122 185.82010582010582,51.21693121693122 186.45502645502646,51.21693121693122 187.08994708994712,51.21693121693122 187.72486772486775,51.21693121693122 188.35978835978838,51.21693121693122 188.99470899470901,51.21693121693122 189.62962962962965,51.00529100529101 190.26455026455028,51.21693121693122 190.8994708994709,51.21693121693122 191.53439153439155,51.21693121693122 192.16931216931218,51.42857142857143 196.1904761904762,51.42857142857143" style="fill:none; stroke:#cc0000; stroke-width:1.0"  /><polyline points="196.1904761904762,51.42857142857143 193.65079365079367,55.23809523809524 193.22751322751324,55.661375661375665 192.8042328042328,56.2962962962963 192.3809523809524,56.93121693121694 191.95767195767198,57.56613756613757 191.53439153439155,58.2010582010582 191.11111111111111,58.83597883597884 190.6878306878307,59.470899470899475 190.26455026455028,60.10582010582011 190.05291005291008,60.74074074074075 189.62962962962965,61.16402116402117 189.41798941798945,61.798941798941804 188.99470899470901,62.22222222222223 188.78306878306879,62.85714285714286 188.35978835978838,63.492063492063494 187.93650793650795,64.12698412698413 187.51322751322752,64.76190476190477 187.08994708994712,65.3968253968254 186.8783068783069,66.03174603174604 186.45502645502646,66.66666666666667 186.24338624338625,67.3015873015873 185.82010582010582,67.93650793650794 185.60846560846562,68.57142857142858 185.1851851851852,68.994708994709 184.973544973545,69.62962962962963 184.7619047619048,70.26455026455027 184.33862433862436,70.8994708994709 183.91534391534393,71.53439153439155 183.70370370370372,72.16931216931218 183.4920634920635,72.80423280423281 183.0687830687831,73.43915343915344 182.85714285714286,74.07407407407408 182.43386243386246,74.70899470899471 182.22222222222223,75.34391534391536 182.01058201058203,75.97883597883599 181.5873015873016,76.61375661375662 181.3756613756614,77.24867724867725 181.16402116402116,77.88359788359789 180.95238095238096,78.51851851851852 180.52910052910053,79.15343915343917 180.31746031746033,79.7883597883598 179.8941798941799,80.42328042328043 179.6825396825397,81.05820105820106 179.4708994708995,81.6931216931217 179.04761904761907,82.32804232804233 178.83597883597884,82.96296296296298 178.62433862433863,83.59788359788361 178.2010582010582,84.23280423280424 177.989417989418,84.86772486772487 177.7777777777778,85.5026455026455 177.56613756613757,86.13756613756614 177.35449735449737,86.77248677248677 177.35449735449737,87.40740740740742 177.14285714285717,88.04232804232805 177.14285714285717,88.67724867724868 176.93121693121694,89.31216931216932 176.93121693121694,89.94708994708995 176.93121693121694,90.58201058201058 176.93121693121694,91.21693121693123 176.93121693121694,91.85185185185186 177.14285714285717,92.4867724867725 177.35449735449737,93.12169312169313 177.56613756613757,93.75661375661376 177.989417989418,94.39153439153439 178.41269841269843,95.02645502645504 178.83597883597884,95.66137566137567 179.25925925925927,96.08465608465609 179.6825396825397,96.50793650793652 180.31746031746033,96.93121693121694 180.95238095238096,97.35449735449737 181.5873015873016,97.77777777777779 182.22222222222223,97.989417989418 182.85714285714286,98.2010582010582 183.4920634920635,98.41269841269842 184.12698412698415,98.62433862433863 184.7619047619048,98.83597883597885 185.39682539682542,98.83597883597885 186.03174603174605,98.62433862433863 186.66666666666669,98.83597883597885 187.30158730158732,98.62433862433863 187.93650793650795,98.41269841269842 188.57142857142858,98.2010582010582 189.20634920634922,97.989417989418 189.84126984126985,97.989417989418 190.47619047619048,97.56613756613757 191.11111111111111,97.56613756613757 191.74603174603175,97.35449735449737 192.3809523809524,97.35449735449737 193.01587301587304,97.35449735449737 193.65079365079367,97.35449735449737 194.2857142857143,97.35449735449737 194.92063492063494,97.35449735449737 195.55555555555557,97.56613756613757 196.1904761904762,97.56613756613757 196.82539682539684,97.56613756613757 197.46031746031747,97.989417989418 198.0952380952381,97.989417989418 198.73015873015873,97.989417989418 199.36507936507937,98.2010582010582 200.00000000000003,98.62433862433863 200.63492063492066,98.83597883597885 201.2698412698413,99.04761904761905 201.90476190476193,99.47089947089948 202.53968253968256,99.8941798941799 202.962962962963,100.31746031746033 203.3862433862434,100.95238095238096 203.59788359788362,101.5873015873016 203.80952380952382,102.22222222222223 204.02116402116403,102.85714285714286 204.23280423280426,103.4920634920635 204.23280423280426,104.12698412698414 204.44444444444446,104.76190476190477 204.44444444444446,105.3968253968254 204.23280423280426,106.03174603174604 204.23280423280426,106.66666666666667 204.23280423280426,107.3015873015873 204.23280423280426,107.93650793650795 204.23280423280426,108.57142857142858 204.02116402116403,109.20634920634922 204.02116402116403,109.84126984126985 204.02116402116403,110.47619047619048 203.80952380952382,111.11111111111111 203.80952380952382,111.74603174603176 203.59788359788362,112.3809523809524 203.59788359788362,113.01587301587303 203.3862433862434,113.65079365079366 203.1746031746032,114.28571428571429 202.962962962963,114.92063492063492 202.75132275132276,115.55555555555557 202.53968253968256,116.1904761904762 202.32804232804233,116.82539682539684 202.11640211640213,117.46031746031747 201.90476190476193,118.0952380952381 201.4814814814815,118.73015873015873 201.2698412698413,119.36507936507937 200.84656084656086,120.00000000000001 200.42328042328043,120.63492063492065 200.21164021164023,121.26984126984128 199.7883597883598,121.6931216931217 199.5767195767196,122.32804232804234 199.15343915343917,122.96296296296298 198.73015873015873,123.3862433862434 198.30687830687833,124.02116402116403 197.8835978835979,124.44444444444446 197.46031746031747,125.07936507936509 197.03703703703704,125.5026455026455 196.61375661375664,126.13756613756615 196.1904761904762,126.56084656084657 195.76719576719577,126.98412698412699 195.34391534391537,127.40740740740742 194.92063492063494,127.83068783068784 194.2857142857143,128.25396825396825 193.65079365079367,128.67724867724868 193.01587301587304,129.10052910052912 192.3809523809524,129.31216931216932 191.74603174603175,129.52380952380955 191.11111111111111,129.73544973544975 190.47619047619048,129.73544973544975 189.84126984126985,129.94708994708995 189.20634920634922,129.94708994708995 188.57142857142858,129.94708994708995 187.93650793650795,129.94708994708995 187.30158730158732,129.94708994708995 186.66666666666669,129.73544973544975 186.03174603174605,129.73544973544975 185.39682539682542,129.52380952380955 184.7619047619048,129.31216931216932 184.12698412698415,129.10052910052912 183.70370370370372,128.67724867724868 183.0687830687831,128.46560846560848 182.64550264550266,128.04232804232805 182.22222222222223,127.61904761904763 181.79894179894183,127.1957671957672 181.16402116402116,126.77248677248679 180.74074074074076,126.34920634920636 180.31746031746033,125.92592592592594 179.8941798941799,125.5026455026455 179.4708994708995,125.07936507936509 179.04761904761907,124.65608465608466 178.62433862433863,124.23280423280424 177.989417989418,123.80952380952382 177.56613756613757,123.3862433862434 177.14285714285717,122.96296296296298 176.50793650793653,122.53968253968254 175.87301587301587,122.11640211640213 175.23809523809524,121.6931216931217 174.6031746031746,121.26984126984128 173.96825396825398,121.05820105820106 173.33333333333334,120.63492063492065 172.6984126984127,120.42328042328043 172.06349206349208,120.21164021164022 171.42857142857144,120.21164021164022 170.7936507936508,120.00000000000001 170.15873015873018,120.21164021164022 169.52380952380955,120.21164021164022 168.8888888888889,120.21164021164022 168.25396825396825,120.21164021164022 167.61904761904762,120.42328042328043 166.984126984127,120.63492063492065 166.34920634920636,121.05820105820106 165.71428571428572,121.26984126984128 165.2910052910053,121.6931216931217 164.8677248677249,122.11640211640213 164.44444444444446,122.53968253968254 164.02116402116403,122.96296296296298 163.80952380952382,123.59788359788361 163.3862433862434,124.23280423280424 163.1746031746032,124.86772486772487 162.75132275132276,125.5026455026455 162.53968253968256,126.13756613756615 162.32804232804233,126.77248677248679 162.11640211640213,127.40740740740742 161.6931216931217,128.04232804232805 161.4814814814815,128.67724867724868 161.4814814814815,129.31216931216932 161.2698412698413,129.94708994708995 161.05820105820106,130.58201058201058 160.84656084656086,131.21693121693121 160.63492063492066,131.85185185185185 160.42328042328043,132.4867724867725 160.21164021164023,133.12169312169314 160.21164021164023,133.75661375661377 160.0,134.3915343915344 159.7883597883598,135.02645502645504 159.5767195767196,135.66137566137567 159.36507936507937,136.2962962962963 159.15343915343917,136.93121693121694 158.94179894179896,137.56613756613757 158.94179894179896,138.2010582010582 158.73015873015873,138.83597883597884 158.51851851851853,139.47089947089947 158.30687830687833,140.10582010582013 158.30687830687833,140.74074074074076 158.0952380952381,141.3756613756614 157.8835978835979,142.01058201058203 157.67195767195767,142.64550264550266 157.46031746031747,143.2804232804233 157.46031746031747,143.91534391534393 157.24867724867727,144.55026455026456 157.03703703703704,145.1851851851852 157.03703703703704,145.82010582010582 156.82539682539684,146.45502645502646 156.61375661375664,147.0899470899471 156.4021164021164,147.72486772486775 156.4021164021164,148.35978835978838 156.1904761904762,148.99470899470901 155.978835978836,149.62962962962965 155.978835978836,150.26455026455028 155.76719576719577,150.8994708994709 155.55555555555557,151.53439153439155 155.55555555555557,152.16931216931218 155.34391534391534,152.8042328042328 155.34391534391534,153.43915343915344 155.13227513227514,154.07407407407408 155.13227513227514,154.7089947089947 154.4973544973545,158.30687830687833" style="fill:none; stroke:#999900; stroke-width:1.0"  /><polyline points="154.4973544973545,158.30687830687833 151.53439153439155,157.8835978835979 150.8994708994709,157.67195767195767 150.26455026455028,157.67195767195767 149.62962962962965,157.46031746031747 148.99470899470901,157.46031746031747 148.35978835978838,157.46031746031747 147.72486772486775,157.24867724867727 147.0899470899471,157.24867724867727 146.45502645502646,157.03703703703704 145.82010582010582,157.03703703703704 145.1851851851852,156.82539682539684 144.55026455026456,156.82539682539684 143.91534391534393,156.61375661375664 143.2804232804233,156.61375661375664 142.64550264550266,156.61375661375664 142.01058201058203,156.4021164021164 141.3756613756614,156.4021164021164 140.74074074074076,156.1904761904762 140.10582010582013,156.1904761904762 139.47089947089947,155.978835978836 138.83597883597884,155.76719576719577 138.2010582010582,155.76719576719577 137.56613756613757,155.55555555555557 136.93121693121694,155.55555555555557 136.2962962962963,155.34391534391534 135.66137566137567,155.34391534391534 135.02645502645504,155.34391534391534 134.3915343915344,155.34391534391534 133.75661375661377,155.13227513227514 133.12169312169314,154.92063492063494 132.4867724867725,154.92063492063494 131.85185185185185,154.7089947089947 131.21693121693121,154.4973544973545 130.58201058201058,154.2857142857143 129.94708994708995,154.07407407407408 129.31216931216932,153.86243386243387 128.67724867724868,153.86243386243387 128.04232804232805,153.43915343915344 127.40740740740742,153.43915343915344 126.77248677248679,153.22751322751324 126.13756613756615,153.01587301587304 125.5026455026455,152.8042328042328 124.86772486772487,152.8042328042328 124.23280423280424,152.5925925925926 123.59788359788361,152.38095238095238 122.96296296296298,152.16931216931218 122.32804232804234,151.95767195767198 121.6931216931217,151.74603174603175 121.05820105820106,151.53439153439155 120.42328042328043,151.32275132275134 119.7883597883598,151.11111111111111 119.15343915343917,150.8994708994709 118.51851851851853,150.6878306878307 117.88359788359789,150.47619047619048 117.24867724867725,150.26455026455028 116.61375661375662,150.05291005291005 115.97883597883599,149.84126984126985 115.34391534391536,149.62962962962965 114.70899470899472,149.41798941798942 114.07407407407408,149.20634920634922 113.43915343915344,148.99470899470901 112.80423280423281,148.78306878306879 112.16931216931218,148.57142857142858 111.53439153439155,148.35978835978838 110.89947089947091,148.14814814814815 110.26455026455027,147.93650793650795 109.62962962962963,147.72486772486775 108.994708994709,147.51322751322752 108.57142857142858,147.0899470899471 107.93650793650795,146.8783068783069 107.3015873015873,146.66666666666669 106.66666666666667,146.45502645502646 106.03174603174604,146.03174603174605 105.3968253968254,145.82010582010582 104.76190476190477,145.60846560846562 104.12698412698414,145.39682539682542 103.4920634920635,144.973544973545 102.85714285714286,144.76190476190476 102.22222222222223,144.55026455026456 101.5873015873016,144.12698412698413 100.95238095238096,143.91534391534393 100.31746031746033,143.91534391534393 99.68253968253968,143.4920634920635 99.04761904761905,143.2804232804233 98.41269841269842,142.85714285714286 97.77777777777779,142.64550264550266 97.14285714285715,142.43386243386246 96.50793650793652,142.01058201058203 95.87301587301587,141.7989417989418 95.23809523809524,141.5873015873016 94.60317460317461,141.16402116402116 93.96825396825398,140.95238095238096 93.33333333333334,140.52910052910053 92.69841269841271,140.10582010582013 92.06349206349208,139.6825396825397 91.42857142857143,139.47089947089947 91.00529100529101,138.83597883597884 90.37037037037038,138.41269841269843 89.94708994708995,137.7777777777778 89.52380952380953,137.35449735449737 89.1005291005291,136.71957671957674 88.8888888888889,136.0846560846561 88.67724867724868,135.44973544973547 88.46560846560847,134.81481481481484 88.46560846560847,134.17989417989418 88.46560846560847,133.54497354497354 88.46560846560847,132.9100529100529 88.67724867724868,132.27513227513228 88.8888888888889,131.64021164021165 89.1005291005291,131.005291005291 89.31216931216932,130.37037037037038 89.73544973544975,129.94708994708995 90.15873015873017,129.31216931216932 90.58201058201058,128.88888888888889 91.00529100529101,128.25396825396825 91.64021164021165,127.83068783068784 92.06349206349208,127.40740740740742 92.4867724867725,126.98412698412699 92.91005291005291,126.56084656084657 93.54497354497356,126.13756613756615 93.96825396825398,125.71428571428572 94.39153439153439,125.2910052910053 95.02645502645504,124.86772486772487 95.44973544973546,124.44444444444446 95.87301587301587,124.02116402116403 96.50793650793652,123.59788359788361 96.93121693121694,123.17460317460318 97.56613756613757,122.75132275132276 97.989417989418,122.32804232804234 98.2010582010582,121.6931216931217 98.62433862433863,121.26984126984128 99.04761904761905,120.84656084656086 99.47089947089948,120.42328042328043 99.8941798941799,120.00000000000001 100.31746031746033,119.57671957671958 100.52910052910053,118.94179894179895 100.95238095238096,118.51851851851853 101.37566137566138,117.88359788359789 101.79894179894181,117.24867724867725 102.22222222222223,116.61375661375662 102.64550264550266,115.97883597883599 102.85714285714286,115.34391534391536 103.06878306878308,114.70899470899472 103.28042328042329,114.07407407407408 103.28042328042329,113.43915343915344 103.28042328042329,112.80423280423281 103.28042328042329,112.16931216931218 103.28042328042329,111.53439153439155 103.06878306878308,110.89947089947091 102.85714285714286,110.26455026455027 102.64550264550266,109.62962962962963 102.43386243386244,108.994708994709 102.01058201058201,108.57142857142858 101.79894179894181,107.93650793650795 101.37566137566138,107.51322751322752 101.16402116402116,106.87830687830689 100.74074074074075,106.45502645502647 100.31746031746033,105.82010582010582 99.68253968253968,105.3968253968254 99.25925925925927,104.76190476190477 98.83597883597885,104.33862433862434 98.41269841269842,103.91534391534393 97.989417989418,103.4920634920635 97.56613756613757,103.06878306878308 97.14285714285715,102.64550264550266 96.50793650793652,102.22222222222223 96.08465608465609,101.79894179894181 95.66137566137567,101.37566137566138 95.23809523809524,100.95238095238096 94.81481481481482,100.52910052910053 94.17989417989419,100.10582010582011 93.75661375661376,99.68253968253968 93.12169312169313,99.47089947089948 92.69841269841271,99.04761904761905 92.06349206349208,98.62433862433863 91.42857142857143,98.41269841269842 91.00529100529101,97.989417989418 90.37037037037038,97.77777777777779 89.73544973544975,97.35449735449737 89.1005291005291,97.14285714285715 88.46560846560847,96.71957671957672 87.83068783068784,96.50793650793652 87.1957671957672,96.2962962962963 86.56084656084657,96.08465608465609 85.92592592592594,95.87301587301587 85.29100529100529,95.66137566137567 84.65608465608466,95.44973544973546 84.02116402116403,95.23809523809524 83.3862433862434,95.23809523809524 82.75132275132276,95.02645502645504 82.11640211640213,95.02645502645504 81.48148148148148,94.81481481481482 80.84656084656085,94.81481481481482 80.21164021164022,94.60317460317461 79.57671957671958,94.60317460317461 78.94179894179895,94.60317460317461 78.30687830687832,94.60317460317461 77.67195767195767,94.39153439153439 77.03703703703704,94.39153439153439 76.4021164021164,94.39153439153439 75.76719576719577,94.39153439153439 75.13227513227514,94.39153439153439 74.49735449735451,94.60317460317461 73.86243386243387,94.60317460317461 73.22751322751323,94.60317460317461 72.5925925925926,94.60317460317461 71.95767195767196,94.81481481481482 71.32275132275133,94.81481481481482 70.6878306878307,94.81481481481482 70.05291005291006,95.02645502645504 69.41798941798942,95.02645502645504 68.78306878306879,95.23809523809524 68.14814814814815,95.44973544973546 67.51322751322752,95.44973544973546 66.87830687830689,95.87301587301587 66.24338624338625,96.08465608465609 65.82010582010582,96.50793650793652 65.18518518518519,96.93121693121694 64.76190476190477,97.56613756613757 64.33862433862434,97.989417989418 63.91534391534392,98.62433862433863 63.492063492063494,99.25925925925927 63.280423280423285,99.8941798941799 62.85714285714286,100.52910052910053 62.64550264550265,101.16402116402116 62.43386243386244,101.79894179894181 62.22222222222223,102.43386243386244 62.01058201058201,103.06878306878308 61.798941798941804,103.70370370370371 61.798941798941804,104.33862433862434 61.58730158730159,104.97354497354497 61.58730158730159,105.60846560846562 61.37566137566138,106.24338624338625 61.37566137566138,106.87830687830689 61.37566137566138,107.51322751322752 61.37566137566138,108.14814814814815 61.37566137566138,108.78306878306879 61.16402116402117,109.41798941798943 61.37566137566138,110.05291005291006 61.37566137566138,110.6878306878307 61.58730158730159,111.32275132275133 61.58730158730159,111.95767195767196 61.798941798941804,112.5925925925926 62.01058201058201,113.22751322751324 62.01058201058201,113.86243386243387 62.22222222222223,114.49735449735451 62.43386243386244,115.13227513227514 62.64550264550265,115.76719576719577 62.85714285714286,116.4021164021164 63.06878306878308,117.03703703703705 63.280423280423285,117.67195767195768 63.70370370370371,118.30687830687832 63.70370370370371,118.94179894179895 63.91534391534392,119.57671957671958 63.91534391534392,120.21164021164022 63.91534391534392,120.84656084656086 63.91534391534392,121.4814814814815 63.91534391534392,122.11640211640213 64.12698412698413,122.75132275132276 64.12698412698413,123.3862433862434 63.91534391534392,124.02116402116403 63.70370370370371,124.65608465608466 63.492063492063494,125.2910052910053 63.280423280423285,125.92592592592594 62.85714285714286,126.34920634920636 62.43386243386244,126.77248677248679 61.798941798941804,127.1957671957672 61.16402116402117,127.40740740740742 60.52910052910053,127.61904761904763 59.8941798941799,127.83068783068784 59.25925925925927,127.83068783068784 58.62433862433863,127.83068783068784 57.989417989417994,127.83068783068784 57.35449735449736,127.61904761904763 56.71957671957672,127.40740740740742 56.08465608465609,127.1957671957672 55.449735449735456,126.98412698412699 54.81481481481482,126.77248677248679 54.179894179894184,126.34920634920636 53.54497354497355,125.92592592592594 52.91005291005291,125.5026455026455 52.27513227513228,125.2910052910053 51.851851851851855,124.86772486772487 51.21693121693122,124.65608465608466 50.7936507936508,124.23280423280424 50.158730158730165,123.80952380952382 49.523809523809526,123.3862433862434 48.88888888888889,122.96296296296298 48.25396825396826,122.53968253968254 47.61904761904762,122.11640211640213 46.98412698412699,121.6931216931217 46.349206349206355,121.26984126984128 45.714285714285715,120.84656084656086 45.29100529100529,120.42328042328043 44.65608465608466,120.00000000000001 44.232804232804234,119.57671957671958 43.5978835978836,119.15343915343917 43.17460317460318,118.73015873015873 42.75132275132275,118.30687830687832 42.11640211640212,117.88359788359789 41.6931216931217,117.46031746031747 41.058201058201064,117.03703703703705 40.63492063492064,116.61375661375662 40.0,116.1904761904762 39.57671957671958,115.76719576719577 39.15343915343916,115.34391534391536 38.51851851851852,114.92063492063492 38.095238095238095,114.49735449735451 37.46031746031746,114.07407407407408 37.03703703703704,113.65079365079366 36.613756613756614,113.22751322751324 36.19047619047619,112.80423280423281 35.55555555555556,112.3809523809524 34.920634920634924,111.95767195767196 34.4973544973545,111.53439153439155 34.074074074074076,111.11111111111111 33.43915343915344,110.6878306878307 32.804232804232804,110.26455026455027 32.38095238095239,109.84126984126985 31.746031746031747,109.41798941798943 31.322751322751326,108.994708994709 30.68783068783069,108.57142857142858 30.052910052910054,108.35978835978837 29.629629629629633,107.93650793650795 28.994708994708997,107.51322751322752 28.571428571428573,107.0899470899471 27.93650793650794,106.66666666666667 27.513227513227516,106.24338624338625 26.87830687830688,105.82010582010582 26.455026455026456,105.3968253968254 25.820105820105823,104.97354497354497 25.3968253968254,104.55026455026456 24.761904761904763,104.12698412698414 24.12698412698413,103.70370370370371 23.492063492063494,103.28042328042329 23.06878306878307,102.85714285714286 22.433862433862437,102.43386243386244 21.7989417989418,102.01058201058201 21.375661375661377,101.5873015873016 20.740740740740744,101.16402116402116 20.105820105820108,100.74074074074075 19.47089947089947,100.31746031746033 15.238095238095239,97.35449735449737" style="fill:none; stroke:#00aa99; stroke-width:1.0"  /><polyline points="15.238095238095239,97.35449735449737 15.873015873015873,95.23809523809524 15.873015873015873,94.60317460317461 15.873015873015873,93.96825396825398 16.084656084656086,93.33333333333334 16.296296296296298,92.69841269841271 16.50793650793651,92.06349206349208 16.71957671957672,91.42857142857143 16.931216931216934,90.7936507936508 17.142857142857146,90.15873015873017 17.354497354497354,89.52380952380953 17.77777777777778,88.8888888888889 17.98941798941799,88.25396825396827 18.201058201058203,87.61904761904762 18.412698412698415,86.98412698412699 18.624338624338627,86.34920634920636 19.047619047619047,85.71428571428572 19.25925925925926,85.07936507936509 19.47089947089947,84.44444444444446 19.894179894179896,83.80952380952381 20.105820105820108,83.17460317460318 20.529100529100532,82.53968253968254 20.740740740740744,81.90476190476191 20.952380952380953,81.26984126984128 21.375661375661377,80.63492063492065 21.58730158730159,80.0 21.7989417989418,79.36507936507937 22.010582010582013,78.73015873015873 22.222222222222225,78.0952380952381 22.433862433862437,77.46031746031747 22.857142857142858,76.82539682539684 23.06878306878307,76.19047619047619 23.06878306878307,75.55555555555556 23.280423280423282,74.92063492063492 23.492063492063494,74.28571428571429 23.703703703703706,73.65079365079366 23.703703703703706,73.01587301587303 23.703703703703706,72.38095238095238 23.703703703703706,71.74603174603175 23.703703703703706,71.11111111111111 23.703703703703706,70.47619047619048 23.492063492063494,69.84126984126985 23.06878306878307,69.20634920634922 22.857142857142858,68.57142857142858 22.433862433862437,67.93650793650794 22.010582010582013,67.51322751322752 21.58730158730159,67.08994708994709 21.164021164021165,66.66666666666667 20.740740740740744,66.24338624338625 20.105820105820108,65.82010582010582 19.47089947089947,65.60846560846561 18.83597883597884,65.18518518518519 18.201058201058203,64.97354497354497 17.566137566137566,64.76190476190477 16.931216931216934,64.55026455026456 16.296296296296298,64.55026455026456 15.661375661375663,64.33862433862434 15.026455026455027,64.12698412698413 14.391534391534393,64.12698412698413 13.756613756613758,64.12698412698413 13.121693121693122,63.91534391534392 12.486772486772487,63.91534391534392 11.851851851851853,63.91534391534392 11.216931216931219,63.91534391534392 10.582010582010582,63.91534391534392 9.947089947089948,64.12698412698413 9.312169312169313,64.12698412698413 8.677248677248677,64.12698412698413 8.042328042328043,64.12698412698413 7.407407407407408,64.12698412698413 6.772486772486773,63.91534391534392 6.137566137566138,63.70370370370371 5.502645502645503,63.492063492063494 4.867724867724868,63.280423280423285 4.2328042328042335,62.85714285714286 3.8095238095238098,62.43386243386244 3.174603174603175,62.01058201058201 2.7513227513227516,61.58730158730159 2.3280423280423284,61.16402116402117 1.9047619047619049,60.74074074074075 1.4814814814814816,60.10582010582011 1.0582010582010584,59.470899470899475 0.8465608465608466,58.83597883597884 0.634920634920635,58.2010582010582 0.4232804232804233,57.56613756613757 0.4232804232804233,56.93121693121694 0.21164021164021166,56.2962962962963 0.21164021164021166,55.661375661375665 0.21164021164021166,55.02645502645503 0.4232804232804233,54.39153439153439 0.4232804232804233,53.75661375661376 0.634920634920635,53.12169312169313 0.634920634920635,52.48677248677249 0.634920634920635,51.851851851851855 0.8465608465608466,51.21693121693122 1.0582010582010584,50.58201058201058 1.4814814814814816,49.94708994708995 1.6931216931216932,49.31216931216932 2.1164021164021167,48.677248677248684 2.3280423280423284,48.042328042328045 2.7513227513227516,47.40740740740741 2.9629629629629632,46.77248677248678 3.3862433862433865,46.13756613756614 3.597883597883598,45.50264550264551 4.021164021164021,44.867724867724874 4.2328042328042335,44.232804232804234 4.656084656084657,43.80952380952381 4.867724867724868,43.17460317460318 5.291005291005291,42.75132275132275 5.502645502645503,42.11640211640212 5.9259259259259265,41.6931216931217 6.34920634920635,41.058201058201064 6.772486772486773,40.423280423280424 7.195767195767196,40.0 7.6190476190476195,39.36507936507937 8.042328042328043,38.94179894179894 8.465608465608467,38.51851851851852 8.88888888888889,38.095238095238095 9.312169312169313,37.67195767195768 9.947089947089948,37.248677248677254 10.370370370370372,36.82539682539683 11.005291005291006,36.402116402116405 11.640211640211641,36.19047619047619 12.275132275132275,35.76719576719577 12.910052910052912,35.34391534391535 13.544973544973546,34.920634920634924 14.17989417989418,34.920634920634924 14.814814814814817,34.4973544973545 15.449735449735451,34.28571428571429 16.084656084656086,34.4973544973545 16.71957671957672,34.4973544973545 17.354497354497354,34.4973544973545 17.98941798941799,34.920634920634924 18.624338624338627,35.13227513227513 19.25925925925926,35.34391534391535 19.894179894179896,35.55555555555556 20.529100529100532,35.76719576719577 21.164021164021165,36.19047619047619 21.58730158730159,36.613756613756614 22.222222222222225,37.03703703703704 22.645502645502646,37.46031746031746 23.280423280423282,37.883597883597886 23.915343915343918,38.30687830687831 24.338624338624342,38.730158730158735 24.761904761904763,39.36507936507937 25.185185185185187,40.0 25.60846560846561,40.423280423280424 26.031746031746035,40.84656084656085 26.455026455026456,41.48148148148149 26.666666666666668,42.11640211640212 27.089947089947092,42.539682539682545 27.513227513227516,42.96296296296297 27.93650793650794,43.5978835978836 28.14814814814815,44.232804232804234 28.571428571428573,44.867724867724874 28.783068783068785,45.50264550264551 29.20634920634921,46.13756613756614 29.629629629629633,46.77248677248678 29.841269841269842,47.40740740740741 30.264550264550266,47.830687830687836 30.68783068783069,48.25396825396826 31.111111111111114,48.88888888888889 31.53439153439154,49.31216931216932 31.95767195767196,49.73544973544974 32.38095238095239,50.158730158730165 32.804232804232804,50.58201058201058 33.43915343915344,51.00529100529101 33.86243386243387,51.42857142857143 34.4973544973545,51.851851851851855 35.13227513227513,52.27513227513228 35.76719576719577,52.48677248677249 36.402116402116405,52.91005291005291 37.03703703703704,53.333333333333336 37.67195767195768,53.54497354497355 38.095238095238095,53.968253968253975 38.730158730158735,54.179894179894184 39.36507936507937,54.39153439153439 40.0,54.39153439153439 40.63492063492064,54.60317460317461 41.26984126984127,54.60317460317461 41.904761904761905,54.81481481481482 42.539682539682545,54.60317460317461 43.17460317460318,54.60317460317461 43.80952380952381,54.39153439153439 44.44444444444445,54.179894179894184 45.07936507936508,53.75661375661376 45.714285714285715,53.54497354497355 46.349206349206355,53.12169312169313 46.98412698412699,52.6984126984127 47.40740740740741,52.27513227513228 47.830687830687836,51.851851851851855 48.25396825396826,51.42857142857143 48.88888888888889,51.00529100529101 49.31216931216932,50.58201058201058 49.94708994708995,50.158730158730165 50.370370370370374,49.73544973544974 50.7936507936508,49.31216931216932 51.21693121693122,48.88888888888889 51.851851851851855,48.46560846560847 52.27513227513228,48.042328042328045 52.6984126984127,47.61904761904762 53.12169312169313,47.195767195767196 53.75661375661376,46.77248677248678 54.179894179894184,46.349206349206355 54.60317460317461,45.92592592592593 55.02645502645503,45.50264550264551 55.449735449735456,44.867724867724874 55.87301587301588,44.44444444444445 56.2962962962963,44.021164021164026 56.71957671957672,43.386243386243386 57.142857142857146,42.75132275132275 57.56613756613757,42.32804232804233 57.989417989417994,41.6931216931217 58.41269841269842,41.058201058201064 58.83597883597884,40.423280423280424 59.25925925925927,39.78835978835979 59.682539682539684,39.15343915343916 60.10582010582011,38.51851851851852 60.31746031746032,37.883597883597886 60.74074074074075,37.46031746031746 61.16402116402117,36.82539682539683 61.58730158730159,36.19047619047619 62.01058201058201,35.55555555555556 62.43386243386244,34.920634920634924 62.85714285714286,34.28571428571429 63.06878306878308,33.65079365079365 63.492063492063494,33.22751322751323 63.70370370370371,32.592592592592595 64.12698412698413,31.95767195767196 64.55026455026456,31.322751322751326 64.97354497354497,30.68783068783069 65.18518518518519,30.052910052910054 65.60846560846561,29.629629629629633 65.82010582010582,28.994708994708997 66.24338624338625,28.35978835978836 66.66666666666667,27.724867724867728 67.08994708994709,27.089947089947092 67.3015873015873,26.455026455026456 67.72486772486774,25.820105820105823 68.14814814814815,25.185185185185187 68.35978835978837,24.55026455026455 68.78306878306879,23.915343915343918 68.994708994709,23.280423280423282 69.41798941798942,22.645502645502646 69.84126984126985,22.010582010582013 70.05291005291006,21.375661375661377 70.47619047619048,20.740740740740744 70.6878306878307,20.105820105820108 71.11111111111111,19.47089947089947 71.32275132275133,18.83597883597884 71.74603174603175,18.201058201058203 71.95767195767196,17.566137566137566 72.16931216931218,16.931216931216934 72.38095238095238,16.296296296296298 72.80423280423281,15.661375661375663 73.01587301587303,15.026455026455027 73.22751322751323,14.391534391534393 73.65079365079366,13.756613756613758 73.86243386243387,13.121693121693122 74.28571428571429,12.486772486772487 74.49735449735451,11.851851851851853 74.70899470899471,11.216931216931219 75.13227513227514,10.582010582010582 75.34391534391536,9.947089947089948 75.55555555555556,9.312169312169313 75.76719576719577,8.677248677248677 76.19047619047619,8.042328042328043 76.4021164021164,7.407407407407408 76.61375661375662,6.772486772486773 76.82539682539684,6.137566137566138 77.03703703703704,5.502645502645503 77.46031746031747,4.867724867724868 77.67195767195767,4.2328042328042335 77.88359788359789,3.597883597883598 78.0952380952381,2.9629629629629632 79.36507936507937,0.0" style="fill:none; stroke:#3300bb; stroke-width:1.0"  /><circle cx="79.36507936507937" cy="0.0" r="2.0" style="fill:none; stroke:#000000aa; stroke-width:0.25" /><circle cx="196.1904761904762" cy="51.42857142857143" r="2.0" style="fill:none; stroke:#000000aa; stroke-width:0.25" /><circle cx="154.4973544973545" cy="158.30687830687833" r="2.0" style="fill:none; stroke:#000000aa; stroke-width:0.25" /><circle cx="15.238095238095239" cy="97.35449735449737" r="2.0" style="fill:none; stroke:#000000aa; stroke-width:0.25" /><circle cx="79.57671957671958" cy="0.21164021164021166" r="2.0" style="fill:none; stroke:#ff3366aa; stroke-width:0.25" /><circle cx="195.55555555555557" cy="52.06349206349207" r="2.0" style="fill:none; stroke:#ff3366aa; stroke-width:0.25" /><circle cx="154.7089947089947" cy="157.67195767195767" r="2.0" style="fill:none; stroke:#ff3366aa; stroke-width:0.25" /><circle cx="16.50793650793651" cy="98.41269841269842" r="2.0" style="fill:none; stroke:#ff3366aa; stroke-width:0.25" /><polyline points="88.67724867724868,7.407407407407408 88.25396825396827,6.984126984126985 87.61904761904762,6.560846560846561 86.98412698412699,6.137566137566138 86.56084656084657,5.714285714285714 86.13756613756614,5.291005291005291 85.5026455026455,4.867724867724868 85.07936507936509,4.444444444444445 84.65608465608466,4.021164021164021 84.02116402116403,3.597883597883598 83.3862433862434,3.174603174603175 82.96296296296298,2.7513227513227516 82.32804232804233,2.3280423280423284" style="fill:none; stroke:#001100; stroke-width:1.0" /><polyline points="74.70899470899471,11.216931216931219 75.13227513227514,10.582010582010582 75.34391534391536,9.947089947089948 75.55555555555556,9.312169312169313 75.76719576719577,8.677248677248677 76.19047619047619,8.042328042328043 76.4021164021164,7.407407407407408 76.61375661375662,6.772486772486773 76.82539682539684,6.137566137566138 77.03703703703704,5.502645502645503 77.46031746031747,4.867724867724868 77.67195767195767,4.2328042328042335 77.88359788359789,3.597883597883598 78.0952380952381,2.9629629629629632" style="fill:none; stroke:#000011; stroke-width:1.0" /><polyline points="189.41798941798945,61.798941798941804 189.62962962962965,61.16402116402117 190.05291005291008,60.74074074074075 190.26455026455028,60.10582010582011 190.6878306878307,59.470899470899475 191.11111111111111,58.83597883597884 191.53439153439155,58.2010582010582 191.95767195767198,57.56613756613757 192.3809523809524,56.93121693121694 192.8042328042328,56.2962962962963 193.22751322751324,55.661375661375665 193.65079365079367,55.23809523809524" style="fill:none; stroke:#001100; stroke-width:1.0" /><polyline points="183.91534391534393,51.42857142857143 184.55026455026456,51.21693121693122 185.1851851851852,51.21693121693122 185.82010582010582,51.21693121693122 186.45502645502646,51.21693121693122 187.08994708994712,51.21693121693122 187.72486772486775,51.21693121693122 188.35978835978838,51.21693121693122 188.99470899470901,51.21693121693122 189.62962962962965,51.00529100529101 190.26455026455028,51.21693121693122 190.8994708994709,51.21693121693122 191.53439153439155,51.21693121693122 192.16931216931218,51.42857142857143" style="fill:none; stroke:#000011; stroke-width:1.0" /><polyline points="143.2804232804233,156.61375661375664 143.91534391534393,156.61375661375664 144.55026455026456,156.82539682539684 145.1851851851852,156.82539682539684 145.82010582010582,157.03703703703704 146.45502645502646,157.03703703703704 147.0899470899471,157.24867724867727 147.72486772486775,157.24867724867727 148.35978835978838,157.46031746031747 148.99470899470901,157.46031746031747 149.62962962962965,157.46031746031747 150.26455026455028,157.67195767195767 150.8994708994709,157.67195767195767 151.53439153439155,157.8835978835979" style="fill:none; stroke:#001100; stroke-width:1.0" /><polyline points="156.82539682539684,146.45502645502646 156.61375661375664,147.0899470899471 156.4021164021164,147.72486772486775 156.4021164021164,148.35978835978838 156.1904761904762,148.99470899470901 155.978835978836,149.62962962962965 155.978835978836,150.26455026455028 155.76719576719577,150.8994708994709 155.55555555555557,151.53439153439155 155.55555555555557,152.16931216931218 155.34391534391534,152.8042328042328 155.34391534391534,153.43915343915344 155.13227513227514,154.07407407407408 155.13227513227514,154.7089947089947" style="fill:none; stroke:#000011; stroke-width:1.0" /><polyline points="18.412698412698415,86.98412698412699 18.201058201058203,87.61904761904762 17.98941798941799,88.25396825396827 17.77777777777778,88.8888888888889 17.354497354497354,89.52380952380953 17.142857142857146,90.15873015873017 16.931216931216934,90.7936507936508 16.71957671957672,91.42857142857143 16.50793650793651,92.06349206349208 16.296296296296298,92.69841269841271 16.084656084656086,93.33333333333334 15.873015873015873,93.96825396825398 15.873015873015873,94.60317460317461 15.873015873015873,95.23809523809524" style="fill:none; stroke:#001100; stroke-width:1.0" /><polyline points="25.820105820105823,104.97354497354497 25.3968253968254,104.55026455026456 24.761904761904763,104.12698412698414 24.12698412698413,103.70370370370371 23.492063492063494,103.28042328042329 23.06878306878307,102.85714285714286 22.433862433862437,102.43386243386244 21.7989417989418,102.01058201058201 21.375661375661377,101.5873015873016 20.740740740740744,101.16402116402116 20.105820105820108,100.74074074074075 19.47089947089947,100.31746031746033" style="fill:none; stroke:#000011; stroke-width:1.0" /><polyline points="82.32804232804233,2.3280423280423284 65.82010582010582,-10.793650793650794" style="fill:none; stroke:#ffaa00; stroke-width:0.4" /><polyline points="78.0952380952381,2.9629629629629632 86.13756613756614,-16.71957671957672" style="fill:none; stroke:#aaff00; stroke-width:0.4" /><polyline points="193.65079365079367,55.23809523809524 205.0793650793651,37.46031746031746" style="fill:none; stroke:#ffaa00; stroke-width:0.4" /><polyline points="192.16931216931218,51.42857142857143 213.33333333333334,51.42857142857143" style="fill:none; stroke:#aaff00; stroke-width:0.4" /><polyline points="151.53439153439155,157.8835978835979 172.4867724867725,161.05820105820106" style="fill:none; stroke:#ffaa00; stroke-width:0.4" /><polyline points="155.13227513227514,154.7089947089947 150.8994708994709,175.44973544973547" style="fill:none; stroke:#aaff00; stroke-width:0.4" /><polyline points="15.873015873015873,95.23809523809524 9.735449735449736,115.55555555555557" style="fill:none; stroke:#ffaa00; stroke-width:0.4" /><polyline points="19.47089947089947,100.31746031746033 2.3280423280423284,87.83068783068784" style="fill:none; stroke:#aaff00; stroke-width:0.4" /><circle cx="110.6878306878307" cy="78.51851851851852" r="1.0" style="fill:#444444; stroke-width:0" /><circle cx="135.66137566137567" cy="83.17460317460318" r="10.582010582010582" style="fill:#ff770022; stroke-width:0" /><circle cx="135.66137566137567" cy="83.17460317460318" r="1.0" style="fill:#ff7700; stroke-width:0" /></svg>