<?xml version="1.0" encoding="UTF-8" standalone="no"?><svg width="501.5873015873016" height="484.44444444444446" viewBox="-10 -10 187.19576719576722 181.4814814814815" xmlns="http://www.w3.org/2000/svg" xmlns:xlink="http://www.w3.org/1999/xlink"><polyline points="5.291005291005291,12.910052910052912 8.677248677248677,12.6984126984127 9.312169312169313,12.486772486772487 9.947089947089948,12.486772486772487 10.582010582010582,12.486772486772487 11.216931216931219,12.486772486772487 11.851851851851853,12.486772486772487 12.486772486772487,12.486772486772487 13.121693121693122,12.486772486772487 13.756613756613758,12.275132275132275 14.391534391534393,12.275132275132275 15.026455026455027,12.063492063492065 15.661375661375663,12.063492063492065 16.296296296296298,12.063492063492065 16.931216931216934,12.063492063492065 17.566137566137566,12.063492063492065 18.201058201058203,12.063492063492065 18.83597883597884,12.063492063492065 19.47089947089947,12.063492063492065 20.105820105820108,12.063492063492065 20.740740740740744,12.063492063492065 21.375661375661377,12.063492063492065 22.010582010582013,12.063492063492065 22.645502645502646,12.063492063492065 23.280423280423282,12.063492063492065 23.915343915343918,12.063492063492065 24.55026455026455,12.063492063492065 25.185185185185187,12.063492063492065 25.820105820105823,12.063492063492065 26.455026455026456,12.063492063492065 27.089947089947092,12.063492063492065 27.724867724867728,12.063492063492065 28.35978835978836,12.063492063492065 28.994708994708997,12.063492063492065 29.629629629629633,12.275132275132275 30.264550264550266,12.275132275132275 30.899470899470902,12.275132275132275 31.53439153439154,12.275132275132275 32.16931216931217,12.486772486772487 32.804232804232804,12.486772486772487 33.43915343915344,12.6984126984127 34.074074074074076,12.910052910052912 34.70899470899471,13.121693121693122 35.34391534391535,13.333333333333334 35.97883597883598,13.544973544973546 36.613756613756614,13.96825396825397 37.248677248677254,14.17989417989418 37.883597883597886,14.603174603174605 38.51851851851852,14.814814814814817 38.94179894179894,15.238095238095239 39.57671957671958,15.449735449735451 40.0,15.873015873015873 40.423280423280424,16.296296296296298 40.84656084656085,16.71957671957672 41.26984126984127,17.142857142857146 41.6931216931217,17.77777777777778 42.11640211640212,18.201058201058203 42.539682539682545,18.83597883597884 42.75132275132275,19.47089947089947 43.17460317460318,19.894179894179896 43.386243386243386,20.529100529100532 43.5978835978836,21.164021164021165 43.80952380952381,21.7989417989418 44.021164021164026,22.433862433862437 44.232804232804234,23.06878306878307 44.232804232804234,23.703703703703706 44.44444444444445,24.338624338624342 44.44444444444445,24.973544973544975 44.44444444444445,25.60846560846561 44.65608465608466,26.243386243386244 44.65608465608466,26.87830687830688 44.65608465608466,27.513227513227516 44.65608465608466,28.14814814814815 44.65608465608466,28.783068783068785 44.65608465608466,29.41798941798942 44.65608465608466,30.052910052910054 44.65608465608466,30.68783068783069 44.44444444444445,31.322751322751326 44.44444444444445,31.95767195767196 44.232804232804234,32.592592592592595 44.232804232804234,33.22751322751323 44.021164021164026,33.86243386243387 43.80952380952381,34.4973544973545 43.80952380952381,35.13227513227513 43.5978835978836,35.76719576719577 43.386243386243386,36.402116402116405 43.17460317460318,37.03703703703704 42.96296296296297,37.67195767195768 42.75132275132275,38.30687830687831 42.539682539682545,38.94179894179894 42.32804232804233,39.57671957671958 42.32804232804233,40.211640211640216 42.11640211640212,40.84656084656085 41.904761904761905,41.48148148148149 41.6931216931217,42.11640211640212 41.6931216931217,42.75132275132275 41.48148148148149,43.386243386243386 41.48148148148149,44.021164021164026 41.26984126984127,44.65608465608466 41.26984126984127,45.29100529100529 41.26984126984127,45.92592592592593 41.26984126984127,46.560846560846564 41.26984126984127,47.195767195767196 41.26984126984127,47.830687830687836 41.26984126984127,48.46560846560847 41.48148148148149,49.1005291005291 41.48148148148149,49.73544973544974 41.6931216931217,50.370370370370374 41.904761904761905,51.00529100529101 42.11640211640212,51.640211640211646 42.32804232804233,52.27513227513228 42.75132275132275,52.91005291005291 42.96296296296297,53.54497354497355 43.386243386243386,53.968253968253975 43.80952380952381,54.60317460317461 44.232804232804234,55.23809523809524 44.65608465608466,55.661375661375665 45.07936507936508,56.08465608465609 45.50264550264551,56.50793650793651 45.92592592592593,56.93121693121694 46.560846560846564,57.35449735449736 47.195767195767196,57.777777777777786 47.830687830687836,57.989417989417994 48.46560846560847,58.2010582010582 49.1005291005291,58.2010582010582 49.523809523809526,58.62433862433863 50.158730158730165,58.62433862433863 50.7936507936508,58.83597883597884 51.42857142857143,59.04761904761905 52.06349206349207,59.04761904761905 52.6984126984127,59.25925925925927 53.333333333333336,59.25925925925927 53.968253968253975,59.470899470899475 54.60317460317461,59.470899470899475 55.23809523809524,59.682539682539684 55.87301587301588,59.682539682539684 56.50793650793651,59.682539682539684 57.142857142857146,59.682539682539684 57.777777777777786,59.682539682539684 58.41269841269842,59.682539682539684 59.04761904761905,59.682539682539684 59.682539682539684,59.682539682539684 60.31746031746032,59.682539682539684 60.952380952380956,59.470899470899475 61.58730158730159,59.470899470899475 62.22222222222223,59.470899470899475 62.85714285714286,59.25925925925927 63.492063492063494,59.04761904761905 64.12698412698413,59.04761904761905 64.76190476190477,58.83597883597884 65.3968253968254,58.62433862433863 66.03174603174604,58.62433862433863 66.66666666666667,58.41269841269842 67.3015873015873,58.2010582010582 67.93650793650794,57.989417989417994 68.57142857142858,57.777777777777786 69.20634920634922,57.56613756613757 69.84126984126985,57.35449735449736 70.47619047619048,56.93121693121694 71.11111111111111,56.71957671957672 71.74603174603175,56.50793650793651 72.38095238095238,56.08465608465609 73.01587301587303,55.87301587301588 73.65079365079366,55.449735449735456 74.28571428571429,55.02645502645503 74.92063492063492,54.81481481481482 75.34391534391536,54.39153439153439 75.97883597883599,53.968253968253975 76.61375661375662,53.54497354497355 77.03703703703704,53.12169312169313 77.67195767195767,52.6984126984127 78.30687830687832,52.27513227513228 78.73015873015873,51.851851851851855 79.15343915343917,51.42857142857143 79.7883597883598,51.00529100529101 80.21164021164022,50.58201058201058 80.63492063492065,50.158730158730165 81.05820105820106,49.73544973544974 81.48148148148148,49.31216931216932 81.90476190476191,48.677248677248684 82.32804232804233,48.25396825396826 82.53968253968254,47.61904761904762 82.96296296296298,46.98412698412699 83.17460317460318,46.349206349206355 83.17460317460318,45.714285714285715 83.3862433862434,45.07936507936508 83.3862433862434,44.44444444444445 83.3862433862434,43.80952380952381 83.3862433862434,43.17460317460318 83.3862433862434,42.539682539682545 83.17460317460318,41.904761904761905 82.96296296296298,41.26984126984127 82.75132275132276,40.63492063492064 82.75132275132276,40.0 82.53968253968254,39.36507936507937 82.32804232804233,38.730158730158735 82.11640211640213,38.095238095238095 81.90476190476191,37.46031746031746 81.48148148148148,36.82539682539683 81.26984126984128,36.19047619047619 81.05820105820106,35.55555555555556 80.63492063492065,34.920634920634924 80.42328042328043,34.28571428571429 80.0,33.65079365079365 79.7883597883598,33.01587301587302 79.36507936507937,32.592592592592595 78.94179894179895,31.95767195767196 78.51851851851852,31.322751322751326 78.0952380952381,30.899470899470902 77.67195767195767,30.264550264550266 77.24867724867725,29.841269841269842 76.82539682539684,29.41798941798942 76.4021164021164,28.994708994708997 75.97883597883599,28.571428571428573 75.55555555555556,28.14814814814815 75.13227513227514,27.724867724867728 74.70899470899471,27.301587301587304 74.28571428571429,26.87830687830688 73.86243386243387,26.455026455026456 73.43915343915344,26.031746031746035 73.01587301587303,25.60846560846561 72.5925925925926,25.185185185185187 72.16931216931218,24.761904761904763 71.74603174603175,24.338624338624342 71.32275132275133,23.915343915343918 70.8994708994709,23.492063492063494 70.47619047619048,22.857142857142858 70.05291005291006,22.433862433862437 69.62962962962963,21.7989417989418 69.20634920634922,21.164021164021165 68.994708994709,20.529100529100532 68.57142857142858,19.894179894179896 68.57142857142858,19.25925925925926 68.35978835978837,18.624338624338627 68.35978835978837,17.98941798941799 68.35978835978837,17.354497354497354 68.57142857142858,16.71957671957672 68.78306878306879,16.084656084656086 68.994708994709,15.449735449735451 69.41798941798942,15.026455026455027 69.84126984126985,14.603174603174605 70.26455026455027,14.17989417989418 70.6878306878307,13.544973544973546 71.32275132275133,13.121693121693122 71.95767195767196,12.6984126984127 72.5925925925926,12.275132275132275 73.22751322751323,12.063492063492065 73.65079365079366,11.640211640211641 74.28571428571429,11.216931216931219 74.92063492063492,11.005291005291006 75.55555555555556,10.582010582010582 76.19047619047619,10.370370370370372 76.82539682539684,10.15873015873016 77.46031746031747,9.947089947089948 78.0952380952381,9.735449735449736 78.73015873015873,9.523809523809524 79.36507936507937,9.312169312169313 80.0,9.100529100529101 80.63492063492065,8.88888888888889 81.26984126984128,8.677248677248677 81.90476190476191,8.465608465608467 82.53968253968254,8.253968253968255 83.17460317460318,8.042328042328043 83.80952380952381,7.830687830687832 84.44444444444446,7.6190476190476195 85.07936507936509,7.407407407407408 85.71428571428572,7.195767195767196 86.34920634920636,6.984126984126985 86.98412698412699,6.772486772486773 87.61904761904762,6.560846560846561 88.25396825396827,6.34920634920635 88.8888888888889,6.137566137566138 89.52380952380953,6.137566137566138 90.15873015873017,5.9259259259259265 90.7936507936508,5.9259259259259265 91.42857142857143,5.714285714285714 92.06349206349208,5.502645502645503 92.69841269841271,5.502645502645503 93.33333333333334,5.291005291005291 93.75661375661376,4.867724867724868 94.39153439153439,4.867724867724868 95.02645502645504,4.867724867724868 95.66137566137567,4.656084656084657 96.2962962962963,4.444444444444445 96.93121693121694,4.444444444444445 97.56613756613757,4.2328042328042335 98.2010582010582,4.021164021164021 98.83597883597885,4.021164021164021 99.47089947089948,3.8095238095238098 100.10582010582011,3.8095238095238098 100.74074074074075,3.597883597883598 101.37566137566138,3.597883597883598 102.01058201058201,3.3862433862433865 102.64550264550266,3.174603174603175 103.28042328042329,3.174603174603175 103.91534391534393,2.9629629629629632 104.55026455026456,2.9629629629629632 105.18518518518519,2.7513227513227516 105.82010582010582,2.7513227513227516 106.45502645502647,2.53968253968254 107.0899470899471,2.53968253968254 107.72486772486774,2.3280423280423284 108.35978835978837,2.3280423280423284 108.994708994709,2.3280423280423284 109.62962962962963,2.1164021164021167 110.26455026455027,1.9047619047619049 110.89947089947091,1.9047619047619049 111.53439153439155,1.9047619047619049 112.16931216931218,1.6931216931216932 112.80423280423281,1.6931216931216932 113.43915343915344,1.4814814814814816 114.07407407407408,1.4814814814814816 114.70899470899472,1.4814814814814816 115.34391534391536,1.4814814814814816 115.97883597883599,1.26984126984127 116.61375661375662,1.26984126984127 117.24867724867725,1.26984126984127 117.88359788359789,1.0582010582010584 118.51851851851853,1.0582010582010584 119.15343915343917,1.0582010582010584 119.7883597883598,0.634920634920635 120.42328042328043,0.634920634920635 121.05820105820106,0.634920634920635 121.6931216931217,0.4232804232804233 122.32804232804234,0.4232804232804233 122.96296296296298,0.4232804232804233 123.59788359788361,0.4232804232804233 124.23280423280424,0.4232804232804233 124.86772486772487,0.4232804232804233 125.5026455026455,0.4232804232804233 126.13756613756615,0.21164021164021166 126.77248677248679,0.21164021164021166 127.40740740740742,0.21164021164021166 128.04232804232805,0.21164021164021166 128.67724867724868,0.4232804232804233 129.31216931216932,0.4232804232804233 129.94708994708995,0.4232804232804233 130.58201058201058,0.4232804232804233 131.21693121693121,0.4232804232804233 131.85185185185185,0.4232804232804233 132.4867724867725,0.4232804232804233 133.12169312169314,0.4232804232804233 133.75661375661377,0.4232804232804233 134.3915343915344,0.4232804232804233 135.02645502645504,0.4232804232804233 135.66137566137567,0.4232804232804233 136.2962962962963,0.4232804232804233 136.93121693121694,0.634920634920635 137.56613756613757,0.634920634920635 138.2010582010582,0.634920634920635 138.83597883597884,0.634920634920635 139.47089947089947,0.8465608465608466 140.10582010582013,0.8465608465608466 140.74074074074076,0.8465608465608466 141.3756613756614,0.634920634920635 142.01058201058203,0.8465608465608466 142.64550264550266,0.8465608465608466 143.2804232804233,1.0582010582010584 143.91534391534393,1.0582010582010584 147.51322751322752,1.26984126984127" style="fill:none; stroke:#cc0000; stroke-width:1.0"  /><polyline points="147.51322751322752,1.26984126984127 147.30158730158732,4.656084656084657 147.30158730158732,5.291005291005291 147.0899470899471,5.9259259259259265 147.0899470899471,6.560846560846561 147.0899470899471,7.195767195767196 147.0899470899471,7.830687830687832 146.8783068783069,8.465608465608467 146.8783068783069,9.100529100529101 146.8783068783069,9.735449735449736 146.66666666666669,10.370370370370372 146.66666666666669,11.005291005291006 146.66666666666669,11.640211640211641 146.66666666666669,12.275132275132275 146.66666666666669,12.910052910052912 146.45502645502646,13.544973544973546 146.45502645502646,14.17989417989418 146.45502645502646,14.814814814814817 146.24338624338625,15.449735449735451 146.24338624338625,16.084656084656086 146.24338624338625,16.71957671957672 146.24338624338625,17.354497354497354 146.24338624338625,17.98941798941799 146.24338624338625,18.624338624338627 146.24338624338625,19.25925925925926 146.24338624338625,19.894179894179896 146.24338624338625,20.529100529100532 146.24338624338625,21.164021164021165 146.24338624338625,21.7989417989418 146.45502645502646,22.433862433862437 146.45502645502646,23.06878306878307 146.45502645502646,23.703703703703706 146.45502645502646,24.338624338624342 146.45502645502646,24.973544973544975 146.45502645502646,25.60846560846561 146.66666666666669,26.243386243386244 146.66666666666669,26.87830687830688 146.66666666666669,27.513227513227516 146.66666666666669,28.14814814814815 146.66666666666669,28.783068783068785 146.66666666666669,29.41798941798942 146.8783068783069,30.052910052910054 147.0899470899471,30.68783068783069 147.0899470899471,31.322751322751326 147.0899470899471,31.95767195767196 147.30158730158732,32.592592592592595 147.30158730158732,33.22751322751323 147.30158730158732,33.86243386243387 147.51322751322752,34.4973544973545 147.51322751322752,35.13227513227513 147.72486772486775,35.76719576719577 147.72486772486775,36.402116402116405 147.93650793650795,37.03703703703704 148.14814814814815,37.67195767195768 148.14814814814815,38.30687830687831 148.35978835978838,38.94179894179894 148.35978835978838,39.57671957671958 148.57142857142858,40.211640211640216 148.78306878306879,40.84656084656085 148.78306878306879,41.48148148148149 148.99470899470901,42.11640211640212 148.99470899470901,42.75132275132275 149.20634920634922,43.386243386243386 149.20634920634922,44.021164021164026 149.41798941798942,44.65608465608466 149.41798941798942,45.29100529100529 149.41798941798942,45.92592592592593 149.41798941798942,46.560846560846564 149.41798941798942,47.195767195767196 149.20634920634922,47.830687830687836 149.20634920634922,48.46560846560847 148.99470899470901,49.1005291005291 148.78306878306879,49.73544973544974 148.35978835978838,50.158730158730165 147.93650793650795,50.58201058201058 147.51322751322752,51.00529100529101 146.8783068783069,51.42857142857143 146.24338624338625,51.851851851851855 145.60846560846562,52.06349206349207 144.973544973545,52.27513227513228 144.33862433862436,52.27513227513228 143.70370370370372,52.27513227513228 143.0687830687831,52.27513227513228 142.43386243386246,52.27513227513228 141.7989417989418,52.06349206349207 141.16402116402116,51.851851851851855 140.52910052910053,51.640211640211646 139.8941798941799,51.21693121693122 139.25925925925927,51.00529100529101 138.62433862433863,50.58201058201058 137.989417989418,50.158730158730165 137.35449735449737,49.73544973544974 136.71957671957674,49.31216931216932 136.0846560846561,48.88888888888889 135.44973544973547,48.46560846560847 135.02645502645504,48.042328042328045 134.3915343915344,47.61904761904762 133.96825396825398,47.195767195767196 133.54497354497354,46.77248677248678 132.9100529100529,46.349206349206355 132.4867724867725,45.92592592592593 132.06349206349208,45.50264550264551 131.42857142857144,45.07936507936508 131.005291005291,44.65608465608466 130.58201058201058,44.232804232804234 129.94708994708995,43.80952380952381 129.31216931216932,43.386243386243386 128.67724867724868,42.96296296296297 128.04232804232805,42.75132275132275 127.40740740740742,42.32804232804233 126.77248677248679,42.11640211640212 126.13756613756615,41.904761904761905 125.5026455026455,41.48148148148149 124.86772486772487,41.26984126984127 124.23280423280424,41.26984126984127 123.59788359788361,41.058201058201064 122.96296296296298,41.058201058201064 122.32804232804234,41.058201058201064 121.6931216931217,40.84656084656085 121.05820105820106,41.058201058201064 120.42328042328043,41.26984126984127 119.7883597883598,41.48148148148149 119.36507936507937,41.904761904761905 118.73015873015873,42.32804232804233 118.0952380952381,42.75132275132275 117.67195767195768,43.17460317460318 117.24867724867725,43.5978835978836 116.82539682539684,44.021164021164026 116.4021164021164,44.65608465608466 116.1904761904762,45.29100529100529 115.76719576719577,45.92592592592593 115.34391534391536,46.560846560846564 115.13227513227514,47.195767195767196 114.70899470899472,47.830687830687836 114.49735449735451,48.46560846560847 114.28571428571429,49.1005291005291 113.86243386243387,49.73544973544974 113.65079365079366,50.370370370370374 113.43915343915344,51.00529100529101 113.22751322751324,51.640211640211646 112.80423280423281,52.27513227513228 112.5925925925926,52.91005291005291 112.3809523809524,53.54497354497355 112.16931216931218,54.179894179894184 111.95767195767196,54.81481481481482 111.95767195767196,55.449735449735456 111.74603174603176,56.08465608465609 111.53439153439155,56.71957671957672 111.32275132275133,57.35449735449736 111.32275132275133,57.989417989417994 111.11111111111111,58.62433862433863 111.11111111111111,59.25925925925927 111.11111111111111,59.8941798941799 110.89947089947091,60.52910052910053 110.89947089947091,61.16402116402117 110.89947089947091,61.798941798941804 110.6878306878307,62.43386243386244 110.6878306878307,63.06878306878308 110.6878306878307,63.70370370370371 110.6878306878307,64.33862433862434 110.89947089947091,64.97354497354497 110.89947089947091,65.60846560846561 111.11111111111111,66.24338624338625 111.11111111111111,66.87830687830689 111.11111111111111,67.51322751322752 110.89947089947091,68.14814814814815 111.11111111111111,68.78306878306879 111.11111111111111,69.41798941798942 111.11111111111111,70.05291005291006 111.32275132275133,70.6878306878307 111.32275132275133,71.32275132275133 111.53439153439155,71.95767195767196 111.53439153439155,72.5925925925926 111.74603174603176,73.22751322751323 111.74603174603176,73.86243386243387 111.95767195767196,74.49735449735451 112.16931216931218,75.13227513227514 112.3809523809524,75.76719576719577 112.3809523809524,76.4021164021164 112.5925925925926,77.03703703703704 112.80423280423281,77.67195767195767 113.22751322751324,78.30687830687832 113.43915343915344,78.94179894179895 113.65079365079366,79.57671957671958 113.86243386243387,80.21164021164022 114.07407407407408,80.84656084656085 114.49735449735451,81.48148148148148 114.92063492063492,82.11640211640213 115.13227513227514,82.75132275132276 115.55555555555557,83.17460317460318 115.97883597883599,83.80952380952381 116.4021164021164,84.44444444444446 116.82539682539684,85.07936507936509 117.24867724867725,85.5026455026455 117.67195767195768,86.13756613756614 118.0952380952381,86.77248677248677 118.51851851851853,87.1957671957672 118.94179894179895,87.61904761904762 119.36507936507937,88.04232804232805 119.7883597883598,88.46560846560847 120.42328042328043,88.8888888888889 120.84656084656086,89.31216931216932 121.4814814814815,89.73544973544975 121.90476190476191,90.15873015873017 122.53968253968254,90.58201058201058 123.17460317460318,90.7936507936508 123.80952380952382,91.21693121693123 124.44444444444446,91.42857142857143 125.07936507936509,91.64021164021165 125.71428571428572,91.85185185185186 126.34920634920636,92.06349206349208 126.98412698412699,92.06349206349208 127.61904761904763,92.27513227513228 128.25396825396825,92.27513227513228 128.88888888888889,92.27513227513228 129.52380952380955,92.27513227513228 130.15873015873018,92.27513227513228 130.7936507936508,92.27513227513228 131.42857142857144,92.06349206349208 132.06349206349208,91.85185185185186 132.6984126984127,91.85185185185186 133.33333333333334,91.42857142857143 133.96825396825398,91.21693121693123 134.6031746031746,90.7936507936508 135.23809523809524,90.58201058201058 135.87301587301587,90.15873015873017 136.5079365079365,89.73544973544975 137.14285714285717,89.31216931216932 137.7777777777778,88.8888888888889 138.41269841269843,88.46560846560847 139.04761904761907,88.04232804232805 139.6825396825397,87.61904761904762 140.31746031746033,87.1957671957672 140.74074074074076,86.77248677248677 141.3756613756614,86.56084656084657 141.7989417989418,86.13756613756614 142.22222222222223,85.71428571428572 142.64550264550266,85.29100529100529 143.2804232804233,84.86772486772487 143.70370370370372,84.44444444444446 144.33862433862436,84.02116402116403 144.973544973545,83.59788359788361 145.39682539682542,83.17460317460318 146.03174603174605,82.75132275132276 146.66666666666669,82.32804232804233 147.30158730158732,81.90476190476191 147.93650793650795,81.6931216931217 148.57142857142858,81.48148148148148 149.20634920634922,81.26984126984128 149.84126984126985,81.05820105820106 150.47619047619048,81.05820105820106 151.11111111111111,80.84656084656085 151.74603174603175,80.84656084656085 152.38095238095238,80.84656084656085 153.01587301587304,80.84656084656085 153.65079365079367,80.84656084656085 154.2857142857143,81.05820105820106 154.92063492063494,80.84656084656085 155.55555555555557,81.05820105820106 156.1904761904762,81.26984126984128 156.82539682539684,81.6931216931217 157.46031746031747,82.11640211640213 158.0952380952381,82.53968253968254 158.73015873015873,82.96296296296298 159.15343915343917,83.59788359788361 159.5767195767196,84.02116402116403 160.0,84.65608465608466 160.21164021164023,85.29100529100529 160.42328042328043,85.92592592592594 160.63492063492066,86.56084656084657 160.84656084656086,87.1957671957672 161.05820105820106,87.83068783068784 161.05820105820106,88.46560846560847 161.2698412698413,89.1005291005291 161.4814814814815,89.73544973544975 161.4814814814815,90.37037037037038 161.6931216931217,91.00529100529101 161.90476190476193,91.64021164021165 162.11640211640213,92.27513227513228 162.11640211640213,92.91005291005291 162.32804232804233,93.54497354497356 162.53968253968256,94.17989417989419 162.75132275132276,94.81481481481482 162.75132275132276,95.44973544973546 162.96296296296296,96.08465608465609 162.96296296296296,96.71957671957672 163.1746031746032,97.35449735449737 163.1746031746032,97.989417989418 163.3862433862434,98.62433862433863 163.59788359788362,99.25925925925927 163.80952380952382,99.8941798941799 164.02116402116403,100.52910052910053 164.02116402116403,101.16402116402116 164.23280423280426,101.79894179894181 164.23280423280426,102.43386243386244 164.44444444444446,103.06878306878308 164.44444444444446,103.70370370370371 164.65608465608466,104.33862433862434 164.8677248677249,104.97354497354497 164.8677248677249,105.60846560846562 164.8677248677249,106.24338624338625 165.0793650793651,106.87830687830689 165.0793650793651,107.51322751322752 165.0793650793651,108.14814814814815 165.2910052910053,108.78306878306879 165.2910052910053,109.41798941798943 165.50264550264552,110.05291005291006 165.50264550264552,110.6878306878307 165.71428571428572,111.32275132275133 165.71428571428572,111.95767195767196 165.92592592592595,112.5925925925926 165.92592592592595,113.22751322751324 166.13756613756615,113.86243386243387 166.13756613756615,114.49735449735451 166.13756613756615,115.13227513227514 166.34920634920636,115.76719576719577 166.34920634920636,116.4021164021164 166.34920634920636,117.03703703703705 166.56084656084658,117.67195767195768 166.56084656084658,118.30687830687832 166.984126984127,122.11640211640213" style="fill:none; stroke:#999900; stroke-width:1.0"  /><polyline points="166.984126984127,122.11640211640213 163.59788359788362,121.90476190476191 162.96296296296296,121.90476190476191 162.32804232804233,121.90476190476191 161.6931216931217,121.90476190476191 161.05820105820106,121.6931216931217 160.42328042328043,121.6931216931217 159.7883597883598,121.6931216931217 159.15343915343917,121.6931216931217 158.51851851851853,121.4814814814815 157.8835978835979,121.4814814814815 157.24867724867727,121.4814814814815 156.61375661375664,121.4814814814815 155.978835978836,121.4814814814815 155.34391534391534,121.4814814814815 154.7089947089947,121.4814814814815 154.07407407407408,121.4814814814815 153.43915343915344,121.4814814814815 152.8042328042328,121.4814814814815 152.16931216931218,121.4814814814815 151.53439153439155,121.4814814814815 150.8994708994709,121.4814814814815 150.26455026455028,121.4814814814815 149.62962962962965,121.26984126984128 148.99470899470901,121.26984126984128 148.35978835978838,121.26984126984128 147.72486772486775,121.26984126984128 147.0899470899471,121.26984126984128 146.45502645502646,121.26984126984128 145.82010582010582,121.26984126984128 145.1851851851852,121.26984126984128 144.55026455026456,121.05820105820106 143.91534391534393,121.05820105820106 143.2804232804233,121.05820105820106 142.64550264550266,121.05820105820106 142.01058201058203,121.05820105820106 141.3756613756614,121.05820105820106 140.74074074074076,120.84656084656086 140.10582010582013,120.84656084656086 139.47089947089947,120.84656084656086 138.83597883597884,120.84656084656086 138.2010582010582,120.84656084656086 137.56613756613757,120.63492063492065 136.93121693121694,120.63492063492065 136.2962962962963,120.63492063492065 135.66137566137567,120.63492063492065 135.02645502645504,120.63492063492065 134.3915343915344,120.63492063492065 133.75661375661377,120.42328042328043 133.12169312169314,120.42328042328043 132.4867724867725,120.42328042328043 131.85185185185185,120.42328042328043 131.21693121693121,120.42328042328043 130.58201058201058,120.21164021164022 129.94708994708995,120.21164021164022 129.31216931216932,120.21164021164022 128.67724867724868,120.21164021164022 128.04232804232805,120.00000000000001 127.40740740740742,120.00000000000001 126.77248677248679,120.00000000000001 126.13756613756615,119.7883597883598 125.5026455026455,119.7883597883598 124.86772486772487,119.7883597883598 124.23280423280424,119.7883597883598 123.59788359788361,119.57671957671958 122.96296296296298,119.57671957671958 122.32804232804234,119.57671957671958 121.6931216931217,119.57671957671958 121.05820105820106,119.36507936507937 120.42328042328043,119.36507936507937 119.7883597883598,119.57671957671958 119.15343915343917,119.36507936507937 118.51851851851853,119.36507936507937 117.88359788359789,119.36507936507937 117.24867724867725,119.15343915343917 116.61375661375662,119.15343915343917 115.97883597883599,119.15343915343917 115.34391534391536,119.15343915343917 114.70899470899472,118.94179894179895 114.07407407407408,118.94179894179895 113.43915343915344,118.94179894179895 112.80423280423281,118.94179894179895 112.16931216931218,118.73015873015873 111.53439153439155,118.73015873015873 110.89947089947091,118.73015873015873 110.26455026455027,118.73015873015873 109.62962962962963,118.51851851851853 108.994708994709,118.51851851851853 108.35978835978837,118.51851851851853 107.72486772486774,118.51851851851853 107.0899470899471,118.51851851851853 106.45502645502647,118.30687830687832 105.82010582010582,118.30687830687832 105.18518518518519,118.30687830687832 104.55026455026456,118.30687830687832 103.91534391534393,118.30687830687832 103.28042328042329,118.30687830687832 102.64550264550266,118.0952380952381 102.01058201058201,118.0952380952381 101.37566137566138,118.0952380952381 100.74074074074075,118.0952380952381 100.10582010582011,118.0952380952381 99.47089947089948,117.88359788359789 98.83597883597885,117.88359788359789 98.2010582010582,117.88359788359789 97.56613756613757,117.88359788359789 96.93121693121694,117.88359788359789 96.2962962962963,117.67195767195768 95.66137566137567,117.67195767195768 95.02645502645504,117.67195767195768 94.39153439153439,117.67195767195768 93.75661375661376,117.67195767195768 93.12169312169313,117.67195767195768 92.4867724867725,117.67195767195768 91.85185185185186,117.67195767195768 91.21693121693123,117.88359788359789 90.58201058201058,117.88359788359789 89.94708994708995,117.88359788359789 89.31216931216932,118.0952380952381 88.67724867724868,118.0952380952381 88.04232804232805,118.51851851851853 87.40740740740742,118.73015873015873 86.77248677248677,119.15343915343917 86.34920634920636,119.57671957671958 85.92592592592594,120.00000000000001 85.5026455026455,120.42328042328043 85.07936507936509,121.05820105820106 84.86772486772487,121.6931216931217 84.65608465608466,122.32804232804234 84.44444444444446,122.96296296296298 84.23280423280424,123.59788359788361 84.23280423280424,124.23280423280424 84.23280423280424,124.86772486772487 84.23280423280424,125.5026455026455 84.23280423280424,126.13756613756615 84.44444444444446,126.77248677248679 84.44444444444446,127.40740740740742 84.65608465608466,128.04232804232805 85.07936507936509,128.67724867724868 85.29100529100529,129.31216931216932 85.29100529100529,129.94708994708995 85.5026455026455,130.58201058201058 85.71428571428572,131.21693121693121 86.13756613756614,131.85185185185185 86.56084656084657,132.4867724867725 86.77248677248677,133.12169312169314 87.1957671957672,133.75661375661377 87.61904761904762,134.3915343915344 88.04232804232805,134.81481481481484 88.46560846560847,135.44973544973547 88.8888888888889,136.0846560846561 89.31216931216932,136.71957671957674 89.73544973544975,137.14285714285717 90.15873015873017,137.56613756613757 90.58201058201058,138.2010582010582 91.00529100529101,138.83597883597884 91.42857142857143,139.25925925925927 91.85185185185186,139.6825396825397 92.27513227513228,140.10582010582013 92.69841269841271,140.52910052910053 93.12169312169313,141.16402116402116 93.54497354497356,141.5873015873016 93.96825396825398,142.01058201058203 94.39153439153439,142.43386243386246 94.81481481481482,143.0687830687831 95.23809523809524,143.4920634920635 95.44973544973546,144.12698412698413 95.87301587301587,144.76190476190476 96.08465608465609,145.39682539682542 96.50793650793652,146.03174603174605 96.71957671957672,146.66666666666669 96.93121693121694,147.30158730158732 97.14285714285715,147.93650793650795 97.35449735449737,148.57142857142858 97.35449735449737,149.20634920634922 97.35449735449737,149.84126984126985 97.35449735449737,150.47619047619048 96.93121693121694,151.11111111111111 96.71957671957672,151.74603174603175 96.50793650793652,152.38095238095238 96.08465608465609,152.8042328042328 95.66137566137567,153.22751322751324 95.02645502645504,153.43915343915344 94.60317460317461,153.86243386243387 94.17989417989419,154.2857142857143 93.54497354497356,154.4973544973545 92.91005291005291,154.92063492063494 92.27513227513228,155.34391534391534 91.64021164021165,155.55555555555557 91.00529100529101,155.76719576719577 90.37037037037038,156.1904761904762 89.73544973544975,156.4021164021164 89.1005291005291,156.82539682539684 88.46560846560847,157.03703703703704 87.83068783068784,157.24867724867727 87.1957671957672,157.46031746031747 86.56084656084657,157.8835978835979 85.92592592592594,158.0952380952381 85.29100529100529,158.30687830687833 84.65608465608466,158.73015873015873 84.02116402116403,158.94179894179896 83.3862433862434,158.94179894179896 82.75132275132276,159.36507936507937 82.11640211640213,159.36507936507937 81.48148148148148,159.5767195767196 80.84656084656085,159.7883597883598 80.21164021164022,159.7883597883598 79.57671957671958,160.0 78.94179894179895,160.0 78.30687830687832,160.21164021164023 77.67195767195767,160.21164021164023 77.03703703703704,160.42328042328043 76.4021164021164,160.42328042328043 75.76719576719577,160.63492063492066 75.13227513227514,160.63492063492066 74.49735449735451,160.84656084656086 73.86243386243387,160.84656084656086 73.22751322751323,161.05820105820106 72.5925925925926,161.05820105820106 71.95767195767196,161.05820105820106 71.32275132275133,161.05820105820106 70.6878306878307,161.05820105820106 70.05291005291006,161.05820105820106 69.41798941798942,161.05820105820106 68.78306878306879,161.05820105820106 68.14814814814815,161.05820105820106 67.51322751322752,161.05820105820106 66.87830687830689,161.05820105820106 66.24338624338625,161.05820105820106 65.60846560846561,160.84656084656086 64.97354497354497,160.84656084656086 64.33862433862434,160.63492063492066 63.70370370370371,160.63492063492066 63.06878306878308,160.42328042328043 62.43386243386244,160.42328042328043 61.798941798941804,160.21164021164023 61.16402116402117,160.0 60.52910052910053,159.7883597883598 59.8941798941799,159.5767195767196 59.25925925925927,159.36507936507937 58.62433862433863,159.15343915343917 57.989417989417994,158.94179894179896 57.35449735449736,158.73015873015873 56.71957671957672,158.51851851851853 56.08465608465609,158.30687830687833 55.449735449735456,158.0952380952381 54.81481481481482,157.8835978835979 54.179894179894184,157.67195767195767 53.54497354497355,157.46031746031747 52.91005291005291,157.03703703703704 52.27513227513228,156.82539682539684 51.640211640211646,156.4021164021164 51.00529100529101,155.978835978836 50.370370370370374,155.55555555555557 49.73544973544974,155.13227513227514 49.31216931216932,154.7089947089947 48.88888888888889,154.07407407407408 48.677248677248684,153.43915343915344 48.46560846560847,152.8042328042328 48.46560846560847,152.16931216931218 48.25396825396826,151.53439153439155 48.25396825396826,150.8994708994709 48.25396825396826,150.26455026455028 48.46560846560847,149.62962962962965 48.46560846560847,148.99470899470901 48.677248677248684,148.35978835978838 48.88888888888889,147.72486772486775 49.1005291005291,147.0899470899471 49.31216931216932,146.45502645502646 49.523809523809526,145.82010582010582 49.73544973544974,145.1851851851852 50.158730158730165,144.55026455026456 50.370370370370374,143.91534391534393 50.58201058201058,143.2804232804233 51.00529100529101,142.64550264550266 51.21693121693122,142.01058201058203 51.640211640211646,141.5873015873016 51.851851851851855,140.95238095238096 52.27513227513228,140.52910052910053 52.6984126984127,139.8941798941799 53.12169312169313,139.25925925925927 53.54497354497355,138.83597883597884 53.968253968253975,138.2010582010582 54.39153439153439,137.56613756613757 54.81481481481482,137.14285714285717 55.23809523809524,136.5079365079365 55.661375661375665,135.87301587301587 56.08465608465609,135.44973544973547 56.50793650793651,134.81481481481484 56.50793650793651,134.17989417989418 56.93121693121694,133.75661375661377 57.142857142857146,133.12169312169314 57.56613756613757,132.4867724867725 57.777777777777786,131.85185185185185 57.989417989417994,131.21693121693121 58.2010582010582,130.58201058201058 58.2010582010582,129.94708994708995 58.41269841269842,129.31216931216932 58.62433862433863,128.67724867724868 58.62433862433863,128.04232804232805 58.62433862433863,127.40740740740742 58.62433862433863,126.77248677248679 58.62433862433863,126.13756613756615 58.41269841269842,125.5026455026455 58.2010582010582,124.86772486772487 57.777777777777786,124.23280423280424 57.56613756613757,123.59788359788361 57.142857142857146,123.17460317460318 56.71957671957672,122.75132275132276 56.2962962962963,122.11640211640213 55.87301587301588,121.6931216931217 55.23809523809524,121.26984126984128 54.60317460317461,121.05820105820106 53.968253968253975,120.84656084656086 53.333333333333336,120.63492063492065 52.6984126984127,120.42328042328043 52.06349206349207,120.42328042328043 51.42857142857143,120.21164021164022 50.7936507936508,120.21164021164022 50.158730158730165,120.42328042328043 49.523809523809526,120.63492063492065 48.88888888888889,120.84656084656086 48.25396825396826,121.05820105820106 47.61904761904762,121.26984126984128 46.98412698412699,121.4814814814815 46.349206349206355,121.6931216931217 45.714285714285715,122.11640211640213 45.07936507936508,122.32804232804234 44.65608465608466,122.75132275132276 44.021164021164026,122.96296296296298 43.386243386243386,123.3862433862434 42.75132275132275,123.59788359788361 42.32804232804233,124.02116402116403 41.6931216931217,124.44444444444446 41.058201058201064,124.65608465608466 40.423280423280424,125.07936507936509 39.78835978835979,125.5026455026455 39.15343915343916,125.92592592592594 38.51851851851852,126.13756613756615 37.883597883597886,126.56084656084657 37.248677248677254,126.98412698412699 36.613756613756614,127.40740740740742 35.97883597883598,127.61904761904763 35.34391534391535,128.04232804232805 34.70899470899471,128.25396825396825 34.074074074074076,128.46560846560848 33.43915343915344,128.88888888888889 32.804232804232804,129.10052910052912 32.16931216931217,129.31216931216932 31.53439153439154,129.52380952380955 30.899470899470902,129.73544973544975 30.264550264550266,129.94708994708995 29.629629629629633,130.15873015873018 28.994708994708997,130.15873015873018 28.35978835978836,130.37037037037038 27.724867724867728,130.58201058201058 27.089947089947092,130.58201058201058 26.455026455026456,130.58201058201058 25.820105820105823,130.7936507936508 25.185185185185187,130.7936507936508 24.55026455026455,130.58201058201058 23.915343915343918,130.7936507936508 23.280423280423282,130.7936507936508 22.645502645502646,130.58201058201058 22.010582010582013,130.58201058201058 21.375661375661377,130.58201058201058 20.740740740740744,130.58201058201058 20.105820105820108,130.58201058201058 19.47089947089947,130.37037037037038 18.83597883597884,130.37037037037038 18.201058201058203,130.37037037037038 17.566137566137566,130.15873015873018 16.931216931216934,130.15873015873018 16.296296296296298,129.94708994708995 13.756613756613758,129.73544973544975" style="fill:none; stroke:#00aa99; stroke-width:1.0"  /><polyline points="13.756613756613758,129.73544973544975 12.486772486772487,126.13756613756615 12.275132275132275,125.5026455026455 12.063492063492065,124.86772486772487 11.851851851851853,124.23280423280424 11.640211640211641,123.59788359788361 11.428571428571429,122.96296296296298 11.216931216931219,122.32804232804234 11.005291005291006,121.6931216931217 10.793650793650794,121.05820105820106 10.582010582010582,120.42328042328043 10.370370370370372,119.7883597883598 9.947089947089948,119.15343915343917 9.947089947089948,118.51851851851853 9.735449735449736,117.88359788359789 9.312169312169313,117.24867724867725 9.100529100529101,116.61375661375662 8.677248677248677,115.97883597883599 8.465608465608467,115.34391534391536 8.253968253968255,114.70899470899472 7.830687830687832,114.07407407407408 7.6190476190476195,113.43915343915344 7.407407407407408,112.80423280423281 6.984126984126985,112.16931216931218 6.772486772486773,111.53439153439155 6.560846560846561,110.89947089947091 6.34920634920635,110.26455026455027 6.137566137566138,109.62962962962963 5.9259259259259265,108.994708994709 5.714285714285714,108.35978835978837 5.502645502645503,107.72486772486774 5.502645502645503,107.0899470899471 5.291005291005291,106.45502645502647 5.291005291005291,105.82010582010582 5.07936507936508,105.18518518518519 5.07936507936508,104.55026455026456 5.07936507936508,103.91534391534393 5.07936507936508,103.28042328042329 5.07936507936508,102.64550264550266 5.07936507936508,102.01058201058201 5.291005291005291,101.37566137566138 5.502645502645503,100.74074074074075 5.9259259259259265,100.10582010582011 6.34920634920635,99.47089947089948 6.984126984126985,99.04761904761905 7.6190476190476195,98.62433862433863 8.253968253968255,98.41269841269842 8.88888888888889,98.2010582010582 9.523809523809524,98.2010582010582 10.15873015873016,98.2010582010582 10.793650793650794,98.2010582010582 11.428571428571429,98.2010582010582 12.063492063492065,98.2010582010582 12.6984126984127,98.2010582010582 13.333333333333334,98.2010582010582 13.96825396825397,98.2010582010582 14.603174603174605,98.41269841269842 15.238095238095239,98.41269841269842 15.873015873015873,98.41269841269842 16.50793650793651,98.62433862433863 17.142857142857146,98.62433862433863 17.77777777777778,98.83597883597885 18.412698412698415,98.83597883597885 19.047619047619047,99.04761904761905 19.682539682539684,99.04761904761905 20.31746031746032,99.04761904761905 20.952380952380953,98.83597883597885 21.58730158730159,98.83597883597885 22.222222222222225,98.62433862433863 22.857142857142858,98.41269841269842 23.492063492063494,97.989417989418 24.12698412698413,97.77777777777779 24.761904761904763,97.35449735449737 25.3968253968254,96.93121693121694 25.820105820105823,96.50793650793652 26.455026455026456,96.2962962962963 26.87830687830688,95.87301587301587 27.301587301587304,95.23809523809524 27.724867724867728,94.81481481481482 28.14814814814815,94.17989417989419 28.35978835978836,93.54497354497356 28.783068783068785,92.91005291005291 28.994708994708997,92.27513227513228 29.20634920634921,91.64021164021165 29.20634920634921,91.00529100529101 29.41798941798942,90.37037037037038 29.41798941798942,89.73544973544975 29.41798941798942,89.1005291005291 29.629629629629633,88.46560846560847 29.629629629629633,87.83068783068784 29.41798941798942,87.1957671957672 29.41798941798942,86.56084656084657 29.41798941798942,85.92592592592594 29.41798941798942,85.29100529100529 29.41798941798942,84.65608465608466 29.629629629629633,84.02116402116403 29.41798941798942,83.3862433862434 29.41798941798942,82.75132275132276 29.41798941798942,82.11640211640213 29.20634920634921,81.48148148148148 29.20634920634921,80.84656084656085 29.20634920634921,80.21164021164022 29.20634920634921,79.57671957671958 29.20634920634921,78.94179894179895 29.20634920634921,78.30687830687832 29.20634920634921,77.67195767195767 29.20634920634921,77.03703703703704 28.994708994708997,76.4021164021164 28.994708994708997,75.76719576719577 28.994708994708997,75.13227513227514 28.994708994708997,74.49735449735451 28.783068783068785,73.86243386243387 28.783068783068785,73.22751322751323 28.783068783068785,72.5925925925926 28.571428571428573,71.95767195767196 28.571428571428573,71.32275132275133 28.571428571428573,70.6878306878307 28.35978835978836,70.05291005291006 28.14814814814815,69.41798941798942 27.93650793650794,68.78306878306879 27.93650793650794,68.14814814814815 27.513227513227516,67.51322751322752 27.301587301587304,66.87830687830689 26.87830687830688,66.24338624338625 26.666666666666668,65.60846560846561 26.243386243386244,65.18518518518519 25.820105820105823,64.76190476190477 25.3968253968254,64.33862433862434 24.973544973544975,63.91534391534392 24.338624338624342,63.70370370370371 23.915343915343918,63.280423280423285 23.492063492063494,62.85714285714286 22.857142857142858,62.85714285714286 22.222222222222225,62.64550264550265 21.58730158730159,62.64550264550265 20.952380952380953,62.43386243386244 20.31746031746032,62.43386243386244 19.682539682539684,62.43386243386244 19.047619047619047,62.43386243386244 18.412698412698415,62.43386243386244 17.77777777777778,62.43386243386244 17.142857142857146,62.64550264550265 16.50793650793651,62.85714285714286 15.873015873015873,62.85714285714286 15.238095238095239,63.06878306878308 14.814814814814817,63.492063492063494 14.17989417989418,63.70370370370371 13.544973544973546,63.91534391534392 12.910052910052912,64.12698412698413 12.275132275132275,64.33862433862434 11.640211640211641,64.55026455026456 11.216931216931219,64.97354497354497 10.582010582010582,65.18518518518519 9.947089947089948,65.60846560846561 9.312169312169313,65.82010582010582 8.677248677248677,66.03174603174604 8.042328042328043,66.24338624338625 7.407407407407408,66.66666666666667 6.772486772486773,66.66666666666667 6.137566137566138,66.87830687830689 5.502645502645503,66.87830687830689 4.867724867724868,66.87830687830689 4.2328042328042335,66.87830687830689 3.597883597883598,66.66666666666667 2.9629629629629632,66.24338624338625 2.3280423280423284,66.03174603174604 1.9047619047619049,65.60846560846561 1.4814814814814816,65.18518518518519 1.0582010582010584,64.76190476190477 0.634920634920635,64.12698412698413 0.4232804232804233,63.492063492063494 0.21164021164021166,62.85714285714286 0.21164021164021166,62.22222222222223 0.21164021164021166,61.58730158730159 0.21164021164021166,60.952380952380956 0.21164021164021166,60.31746031746032 0.21164021164021166,59.682539682539684 0.21164021164021166,59.04761904761905 0.4232804232804233,58.41269841269842 0.4232804232804233,57.777777777777786 0.4232804232804233,57.142857142857146 0.634920634920635,56.50793650793651 0.8465608465608466,55.87301587301588 0.8465608465608466,55.23809523809524 1.0582010582010584,54.60317460317461 1.0582010582010584,53.968253968253975 1.26984126984127,53.333333333333336 1.26984126984127,52.6984126984127 1.4814814814814816,52.06349206349207 1.6931216931216932,51.42857142857143 1.6931216931216932,50.7936507936508 1.9047619047619049,50.158730158730165 2.1164021164021167,49.523809523809526 2.1164021164021167,48.88888888888889 2.3280423280423284,48.25396825396826 2.53968253968254,47.61904761904762 2.7513227513227516,46.98412698412699 2.7513227513227516,46.349206349206355 2.9629629629629632,45.714285714285715 3.174603174603175,45.07936507936508 3.3862433862433865,44.44444444444445 3.597883597883598,43.80952380952381 3.8095238095238098,43.17460317460318 4.021164021164021,42.539682539682545 4.2328042328042335,41.904761904761905 4.2328042328042335,41.26984126984127 4.444444444444445,40.63492063492064 4.656084656084657,40.0 4.867724867724868,39.36507936507937 5.07936507936508,38.730158730158735 5.07936507936508,38.095238095238095 5.291005291005291,37.46031746031746 5.502645502645503,36.82539682539683 5.714285714285714,36.19047619047619 5.714285714285714,35.55555555555556 5.9259259259259265,34.920634920634924 6.137566137566138,34.28571428571429 6.137566137566138,33.65079365079365 6.34920634920635,33.01587301587302 6.34920634920635,32.38095238095239 6.560846560846561,31.746031746031747 6.560846560846561,31.111111111111114 6.772486772486773,30.476190476190478 6.560846560846561,29.841269841269842 6.560846560846561,29.20634920634921 6.560846560846561,28.571428571428573 6.772486772486773,27.93650793650794 6.772486772486773,27.301587301587304 6.772486772486773,26.666666666666668 6.772486772486773,26.031746031746035 6.772486772486773,25.3968253968254 6.772486772486773,24.761904761904763 6.772486772486773,24.12698412698413 6.772486772486773,23.492063492063494 6.772486772486773,22.857142857142858 6.560846560846561,22.222222222222225 6.560846560846561,21.58730158730159 6.560846560846561,20.952380952380953 6.560846560846561,20.31746031746032 6.34920634920635,19.682539682539684 6.34920634920635,19.047619047619047 6.137566137566138,18.412698412698415 6.137566137566138,17.77777777777778 5.9259259259259265,17.142857142857146 5.714285714285714,16.50793650793651 5.291005291005291,12.910052910052912" style="fill:none; stroke:#3300bb; stroke-width:1.0"  /><circle cx="5.291005291005291" cy="12.910052910052912" r="2.0" style="fill:none; stroke:#000000aa; stroke-width:0.25" /><circle cx="147.51322751322752" cy="1.26984126984127" r="2.0" style="fill:none; stroke:#000000aa; stroke-width:0.25" /><circle cx="166.984126984127" cy="122.11640211640213" r="2.0" style="fill:none; stroke:#000000aa; stroke-width:0.25" /><circle cx="13.756613756613758" cy="129.73544973544975" r="2.0" style="fill:none; stroke:#000000aa; stroke-width:0.25" /><circle cx="5.502645502645503" cy="13.121693121693122" r="2.0" style="fill:none; stroke:#ff3366aa; stroke-width:0.25" /><circle cx="147.0899470899471" cy="1.4814814814814816" r="2.0" style="fill:none; stroke:#ff3366aa; stroke-width:0.25" /><circle cx="166.7724867724868" cy="121.6931216931217" r="2.0" style="fill:none; stroke:#ff3366aa; stroke-width:0.25" /><circle cx="13.333333333333334" cy="129.31216931216932" r="2.0" style="fill:none; stroke:#ff3366aa; stroke-width:0.25" /><polyline points="16.931216931216934,12.063492063492065 16.296296296296298,12.063492063492065 15.661375661375663,12.063492063492065 15.026455026455027,12.063492063492065 14.391534391534393,12.275132275132275 13.756613756613758,12.275132275132275 13.121693121693122,12.486772486772487 12.486772486772487,12.486772486772487 11.851851851851853,12.486772486772487 11.216931216931219,12.486772486772487 10.582010582010582,12.486772486772487 9.947089947089948,12.486772486772487 9.312169312169313,12.486772486772487 8.677248677248677,12.6984126984127" style="fill:none; stroke:#001100; stroke-width:1.0" /><polyline points="6.772486772486773,24.761904761904763 6.772486772486773,24.12698412698413 6.772486772486773,23.492063492063494 6.772486772486773,22.857142857142858 6.560846560846561,22.222222222222225 6.560846560846561,21.58730158730159 6.560846560846561,20.952380952380953 6.560846560846561,20.31746031746032 6.34920634920635,19.682539682539684 6.34920634920635,19.047619047619047 6.137566137566138,18.412698412698415 6.137566137566138,17.77777777777778 5.9259259259259265,17.142857142857146 5.714285714285714,16.50793650793651" style="fill:none; stroke:#000011; stroke-width:1.0" /><polyline points="146.66666666666669,12.910052910052912 146.66666666666669,12.275132275132275 146.66666666666669,11.640211640211641 146.66666666666669,11.005291005291006 146.66666666666669,10.370370370370372 146.8783068783069,9.735449735449736 146.8783068783069,9.100529100529101 146.8783068783069,8.465608465608467 147.0899470899471,7.830687830687832 147.0899470899471,7.195767195767196 147.0899470899471,6.560846560846561 147.0899470899471,5.9259259259259265 147.30158730158732,5.291005291005291 147.30158730158732,4.656084656084657" style="fill:none; stroke:#001100; stroke-width:1.0" /><polyline points="135.66137566137567,0.4232804232804233 136.2962962962963,0.4232804232804233 136.93121693121694,0.634920634920635 137.56613756613757,0.634920634920635 138.2010582010582,0.634920634920635 138.83597883597884,0.634920634920635 139.47089947089947,0.8465608465608466 140.10582010582013,0.8465608465608466 140.74074074074076,0.8465608465608466 141.3756613756614,0.634920634920635 142.01058201058203,0.8465608465608466 142.64550264550266,0.8465608465608466 143.2804232804233,1.0582010582010584 143.91534391534393,1.0582010582010584" style="fill:none; stroke:#000011; stroke-width:1.0" /><polyline points="155.34391534391534,121.4814814814815 155.978835978836,121.4814814814815 156.61375661375664,121.4814814814815 157.24867724867727,121.4814814814815 157.8835978835979,121.4814814814815 158.51851851851853,121.4814814814815 159.15343915343917,121.6931216931217 159.7883597883598,121.6931216931217 160.42328042328043,121.6931216931217 161.05820105820106,121.6931216931217 161.6931216931217,121.90476190476191 162.32804232804233,121.90476190476191 162.96296296296296,121.90476190476191 163.59788359788362,121.90476190476191" style="fill:none; stroke:#001100; stroke-width:1.0" /><polyline points="165.50264550264552,110.05291005291006 165.50264550264552,110.6878306878307 165.71428571428572,111.32275132275133 165.71428571428572,111.95767195767196 165.92592592592595,112.5925925925926 165.92592592592595,113.22751322751324 166.13756613756615,113.86243386243387 166.13756613756615,114.49735449735451 166.13756613756615,115.13227513227514 166.34920634920636,115.76719576719577 166.34920634920636,116.4021164021164 166.34920634920636,117.03703703703705 166.56084656084658,117.67195767195768 166.56084656084658,118.30687830687832" style="fill:none; stroke:#000011; stroke-width:1.0" /><polyline points="9.735449735449736,117.88359788359789 9.947089947089948,118.51851851851853 9.947089947089948,119.15343915343917 10.370370370370372,119.7883597883598 10.582010582010582,120.42328042328043 10.793650793650794,121.05820105820106 11.005291005291006,121.6931216931217 11.216931216931219,122.32804232804234 11.428571428571429,122.96296296296298 11.640211640211641,123.59788359788361 11.851851851851853,124.23280423280424 12.063492063492065,124.86772486772487 12.275132275132275,125.5026455026455 12.486772486772487,126.13756613756615" style="fill:none; stroke:#001100; stroke-width:1.0" /><polyline points="25.185185185185187,130.7936507936508 24.55026455026455,130.58201058201058 23.915343915343918,130.7936507936508 23.280423280423282,130.7936507936508 22.645502645502646,130.58201058201058 22.010582010582013,130.58201058201058 21.375661375661377,130.58201058201058 20.740740740740744,130.58201058201058 20.105820105820108,130.58201058201058 19.47089947089947,130.37037037037038 18.83597883597884,130.37037037037038 18.201058201058203,130.37037037037038 17.566137566137566,130.15873015873018 16.931216931216934,130.15873015873018 16.296296296296298,129.94708994708995" style="fill:none; stroke:#000011; stroke-width:1.0" /><polyline points="8.677248677248677,12.6984126984127 -12.486772486772487,14.391534391534393" style="fill:none; stroke:#ffaa00; stroke-width:0.4" /><polyline points="5.714285714285714,16.50793650793651 2.9629629629629632,-4.444444444444445" style="fill:none; stroke:#aaff00; stroke-width:0.4" /><polyline points="147.30158730158732,4.656084656084657 148.99470899470901,-16.50793650793651" style="fill:none; stroke:#ffaa00; stroke-width:0.4" /><polyline points="143.91534391534393,1.0582010582010584 165.0793650793651,2.7513227513227516" style="fill:none; stroke:#aaff00; stroke-width:0.4" /><polyline points="163.59788359788362,121.90476190476191 184.7619047619048,122.96296296296298" style="fill:none; stroke:#ffaa00; stroke-width:0.4" /><polyline points="166.56084656084658,118.30687830687832 169.31216931216932,139.25925925925927" style="fill:none; stroke:#aaff00; stroke-width:0.4" /><polyline points="12.486772486772487,126.13756613756615 19.25925925925926,146.24338624338625" style="fill:none; stroke:#ffaa00; stroke-width:0.4" /><polyline points="16.296296296296298,129.94708994708995 -4.867724867724868,128.04232804232805" style="fill:none; stroke:#aaff00; stroke-width:0.4" /><circle cx="79.7883597883598" cy="75.97883597883599" r="1.0" style="fill:#444444; stroke-width:0" /><circle cx="68.57142857142858" cy="91.85185185185186" r="10.582010582010582" style="fill:#ff770022; stroke-width:0" /><circle cx="68.57142857142858" cy="91.85185185185186" r="1.0" style="fill:#ff7700; stroke-width:0" /></svg>