<?xml version="1.0" encoding="UTF-8" standalone="no"?><svg width="518.0952380952382" height="504.12698412698415" viewBox="-10 -10 192.6984126984127 188.04232804232805" xmlns="http://www.w3.org/2000/svg" xmlns:xlink="http://www.w3.org/1999/xlink"><polyline points="0.0,34.074074074074076 3.597883597883598,33.65079365079365 4.2328042328042335,33.43915343915344 4.867724867724868,33.43915343915344 5.502645502645503,33.22751322751323 6.137566137566138,33.22751322751323 6.772486772486773,33.22751322751323 7.407407407407408,33.22751322751323 8.042328042328043,33.01587301587302 8.677248677248677,33.01587301587302 9.312169312169313,33.01587301587302 9.947089947089948,32.804232804232804 10.582010582010582,32.804232804232804 11.216931216931219,32.804232804232804 11.851851851851853,32.804232804232804 12.486772486772487,32.804232804232804 13.121693121693122,32.592592592592595 13.756613756613758,32.592592592592595 14.391534391534393,32.38095238095239 15.026455026455027,32.38095238095239 15.661375661375663,32.38095238095239 16.296296296296298,32.38095238095239 16.931216931216934,32.16931216931217 17.566137566137566,32.16931216931217 18.201058201058203,32.16931216931217 18.83597883597884,31.95767195767196 19.47089947089947,31.95767195767196 20.105820105820108,31.95767195767196 20.740740740740744,31.95767195767196 21.375661375661377,31.95767195767196 22.010582010582013,31.746031746031747 22.645502645502646,31.53439153439154 23.280423280423282,31.53439153439154 23.915343915343918,31.53439153439154 24.55026455026455,31.53439153439154 25.185185185185187,31.53439153439154 25.820105820105823,31.53439153439154 26.455026455026456,31.322751322751326 27.089947089947092,31.322751322751326 27.724867724867728,31.322751322751326 28.35978835978836,31.322751322751326 28.994708994708997,31.322751322751326 29.629629629629633,31.322751322751326 30.264550264550266,31.322751322751326 30.899470899470902,31.322751322751326 31.53439153439154,31.322751322751326 32.16931216931217,31.322751322751326 32.804232804232804,31.322751322751326 33.43915343915344,31.322751322751326 34.074074074074076,31.322751322751326 34.70899470899471,31.111111111111114 35.34391534391535,31.322751322751326 35.97883597883598,31.322751322751326 36.613756613756614,31.322751322751326 37.248677248677254,31.322751322751326 37.883597883597886,31.111111111111114 38.51851851851852,31.322751322751326 39.15343915343916,31.322751322751326 39.78835978835979,31.322751322751326 40.423280423280424,31.322751322751326 41.058201058201064,31.111111111111114 41.6931216931217,31.322751322751326 42.32804232804233,31.322751322751326 42.96296296296297,31.322751322751326 43.5978835978836,31.322751322751326 44.232804232804234,31.53439153439154 44.867724867724874,31.53439153439154 45.50264550264551,31.53439153439154 46.13756613756614,31.53439153439154 46.77248677248678,31.53439153439154 47.40740740740741,31.746031746031747 48.042328042328045,31.746031746031747 48.677248677248684,31.746031746031747 49.31216931216932,31.746031746031747 49.94708994708995,31.746031746031747 50.58201058201058,31.95767195767196 51.21693121693122,31.95767195767196 51.851851851851855,31.95767195767196 52.48677248677249,31.95767195767196 53.12169312169313,32.16931216931217 53.75661375661376,32.16931216931217 54.39153439153439,32.16931216931217 55.02645502645503,32.38095238095239 55.661375661375665,32.38095238095239 56.2962962962963,32.38095238095239 56.93121693121694,32.592592592592595 57.56613756613757,32.38095238095239 58.2010582010582,32.38095238095239 58.83597883597884,32.592592592592595 59.470899470899475,32.592592592592595 60.10582010582011,32.592592592592595 60.74074074074075,32.804232804232804 61.37566137566138,32.804232804232804 62.01058201058201,33.01587301587302 62.64550264550265,33.01587301587302 63.280423280423285,33.22751322751323 63.91534391534392,33.22751322751323 64.55026455026456,33.43915343915344 65.18518518518519,33.43915343915344 65.82010582010582,33.65079365079365 66.45502645502646,33.65079365079365 67.08994708994709,33.86243386243387 67.72486772486774,34.074074074074076 68.35978835978837,33.86243386243387 68.994708994709,34.28571428571429 69.62962962962963,34.28571428571429 70.26455026455027,34.4973544973545 70.8994708994709,34.70899470899471 71.53439153439155,34.70899470899471 72.16931216931218,34.70899470899471 72.80423280423281,34.920634920634924 73.43915343915344,34.920634920634924 74.07407407407408,35.13227513227513 74.70899470899471,35.13227513227513 75.34391534391536,35.13227513227513 75.97883597883599,35.34391534391535 76.61375661375662,35.34391534391535 77.24867724867725,35.13227513227513 77.88359788359789,35.13227513227513 78.51851851851852,34.920634920634924 79.15343915343917,34.70899470899471 79.7883597883598,34.4973544973545 80.42328042328043,34.28571428571429 81.05820105820106,33.86243386243387 81.48148148148148,33.43915343915344 81.90476190476191,33.01587301587302 82.32804232804233,32.592592592592595 82.75132275132276,32.16931216931217 83.17460317460318,31.53439153439154 83.3862433862434,30.899470899470902 83.59788359788361,30.264550264550266 83.80952380952381,29.629629629629633 83.80952380952381,28.994708994708997 83.80952380952381,28.35978835978836 83.80952380952381,27.724867724867728 83.80952380952381,27.089947089947092 83.59788359788361,26.455026455026456 83.59788359788361,25.820105820105823 83.59788359788361,25.185185185185187 83.3862433862434,24.55026455026455 83.17460317460318,23.915343915343918 83.17460317460318,23.280423280423282 82.75132275132276,22.645502645502646 82.53968253968254,22.010582010582013 82.32804232804233,21.375661375661377 81.90476190476191,20.740740740740744 81.6931216931217,20.105820105820108 81.26984126984128,19.47089947089947 81.05820105820106,18.83597883597884 80.63492063492065,18.201058201058203 80.42328042328043,17.566137566137566 80.0,16.931216931216934 79.7883597883598,16.296296296296298 79.57671957671958,15.661375661375663 79.36507936507937,15.026455026455027 79.15343915343917,14.391534391534393 78.94179894179895,13.756613756613758 78.94179894179895,13.121693121693122 78.73015873015873,12.486772486772487 78.73015873015873,11.851851851851853 78.73015873015873,11.216931216931219 78.73015873015873,10.582010582010582 78.73015873015873,9.947089947089948 78.73015873015873,9.312169312169313 78.73015873015873,8.677248677248677 78.94179894179895,8.042328042328043 78.94179894179895,7.407407407407408 79.15343915343917,6.772486772486773 79.36507936507937,6.137566137566138 79.7883597883598,5.502645502645503 80.0,4.867724867724868 80.42328042328043,4.444444444444445 80.84656084656085,4.021164021164021 81.26984126984128,3.597883597883598 81.90476190476191,3.174603174603175 82.53968253968254,2.7513227513227516 83.17460317460318,2.53968253968254 83.80952380952381,2.1164021164021167 84.44444444444446,1.9047619047619049 85.07936507936509,1.4814814814814816 85.71428571428572,1.4814814814814816 86.34920634920636,1.26984126984127 86.98412698412699,1.0582010582010584 87.61904761904762,0.8465608465608466 88.25396825396827,0.634920634920635 88.8888888888889,0.634920634920635 89.52380952380953,0.634920634920635 90.15873015873017,0.634920634920635 90.7936507936508,0.4232804232804233 91.42857142857143,0.634920634920635 92.06349206349208,0.4232804232804233 92.69841269841271,0.21164021164021166 93.33333333333334,0.21164021164021166 93.96825396825398,0.21164021164021166 94.60317460317461,0.4232804232804233 95.23809523809524,0.4232804232804233 95.87301587301587,0.4232804232804233 96.50793650793652,0.4232804232804233 97.14285714285715,0.4232804232804233 97.77777777777779,0.4232804232804233 98.41269841269842,0.634920634920635 99.04761904761905,0.634920634920635 99.68253968253968,0.8465608465608466 100.31746031746033,1.0582010582010584 100.95238095238096,1.26984126984127 101.5873015873016,1.26984126984127 102.22222222222223,1.6931216931216932 102.85714285714286,1.9047619047619049 103.4920634920635,2.1164021164021167 104.12698412698414,2.53968253968254 104.76190476190477,2.7513227513227516 105.3968253968254,3.174603174603175 106.03174603174604,3.3862433862433865 106.66666666666667,3.8095238095238098 107.3015873015873,4.2328042328042335 107.93650793650795,4.656084656084657 108.57142857142858,5.07936507936508 108.994708994709,5.502645502645503 109.62962962962963,5.9259259259259265 110.26455026455027,6.34920634920635 110.6878306878307,6.772486772486773 111.32275132275133,7.195767195767196 111.74603174603176,7.6190476190476195 112.16931216931218,8.042328042328043 112.5925925925926,8.465608465608467 113.01587301587303,8.88888888888889 113.43915343915344,9.523809523809524 113.86243386243387,10.15873015873016 114.07407407407408,10.793650793650794 114.28571428571429,11.428571428571429 114.28571428571429,12.063492063492065 114.28571428571429,12.6984126984127 114.28571428571429,13.333333333333334 114.28571428571429,13.96825396825397 114.28571428571429,14.603174603174605 114.28571428571429,15.238095238095239 114.28571428571429,15.873015873015873 114.28571428571429,16.50793650793651 114.07407407407408,17.142857142857146 113.86243386243387,17.77777777777778 113.65079365079366,18.412698412698415 113.22751322751324,18.83597883597884 113.01587301587303,19.47089947089947 112.5925925925926,20.105820105820108 112.3809523809524,20.740740740740744 111.95767195767196,21.375661375661377 111.74603174603176,22.010582010582013 111.32275132275133,22.645502645502646 111.32275132275133,23.280423280423282 111.11111111111111,23.915343915343918 110.89947089947091,24.55026455026455 110.89947089947091,25.185185185185187 110.89947089947091,25.820105820105823 110.6878306878307,26.455026455026456 110.89947089947091,27.089947089947092 111.11111111111111,27.724867724867728 111.11111111111111,28.35978835978836 111.32275132275133,28.994708994708997 111.53439153439155,29.629629629629633 111.95767195767196,30.264550264550266 112.16931216931218,30.899470899470902 112.5925925925926,31.322751322751326 113.01587301587303,31.746031746031747 113.43915343915344,32.16931216931217 113.86243386243387,32.592592592592595 114.49735449735451,33.01587301587302 115.13227513227514,33.43915343915344 115.76719576719577,33.65079365079365 116.4021164021164,33.86243386243387 117.03703703703705,34.074074074074076 117.67195767195768,34.28571428571429 118.30687830687832,34.4973544973545 118.94179894179895,34.70899470899471 119.57671957671958,34.70899470899471 120.21164021164022,34.920634920634924 120.84656084656086,35.13227513227513 121.4814814814815,35.13227513227513 122.11640211640213,35.34391534391535 122.75132275132276,35.34391534391535 123.3862433862434,35.55555555555556 124.02116402116403,35.55555555555556 124.65608465608466,35.55555555555556 125.2910052910053,35.55555555555556 125.92592592592594,35.76719576719577 126.56084656084657,35.76719576719577 127.1957671957672,35.55555555555556 127.83068783068784,35.76719576719577 128.46560846560848,35.76719576719577 129.10052910052912,35.76719576719577 129.73544973544975,35.76719576719577 130.37037037037038,35.76719576719577 131.005291005291,35.76719576719577 131.64021164021165,35.76719576719577 132.27513227513228,35.76719576719577 132.9100529100529,35.76719576719577 133.54497354497354,35.76719576719577 134.17989417989418,35.76719576719577 134.81481481481484,35.76719576719577 135.44973544973547,35.76719576719577 136.0846560846561,35.76719576719577 136.71957671957674,35.76719576719577 137.35449735449737,35.76719576719577 137.989417989418,35.76719576719577 138.62433862433863,35.76719576719577 139.25925925925927,35.76719576719577 139.8941798941799,35.76719576719577 140.52910052910053,35.76719576719577 141.16402116402116,35.76719576719577 141.7989417989418,35.76719576719577 142.43386243386246,35.76719576719577 143.0687830687831,35.76719576719577 143.70370370370372,35.76719576719577 144.33862433862436,35.76719576719577 144.973544973545,35.55555555555556 145.60846560846562,35.55555555555556 146.24338624338625,35.55555555555556 146.8783068783069,35.55555555555556 147.51322751322752,35.55555555555556 148.14814814814815,35.55555555555556 148.78306878306879,35.34391534391535 149.41798941798942,35.34391534391535 150.05291005291005,35.34391534391535 150.6878306878307,35.34391534391535 151.32275132275134,35.34391534391535 151.95767195767198,35.34391534391535 152.5925925925926,35.34391534391535 153.22751322751324,35.34391534391535 153.86243386243387,35.13227513227513 154.4973544973545,35.13227513227513 155.13227513227514,35.13227513227513 155.76719576719577,35.13227513227513 156.4021164021164,35.13227513227513 157.03703703703704,34.920634920634924 157.67195767195767,34.920634920634924 158.30687830687833,34.920634920634924 158.94179894179896,34.920634920634924 159.5767195767196,34.70899470899471 160.21164021164023,34.70899470899471 160.84656084656086,34.70899470899471 161.4814814814815,34.4973544973545 162.11640211640213,34.28571428571429 162.75132275132276,34.28571428571429 163.3862433862434,34.074074074074076 164.02116402116403,34.074074074074076 164.65608465608466,33.86243386243387 165.2910052910053,33.86243386243387 165.92592592592595,33.86243386243387 166.56084656084658,33.86243386243387 167.19576719576722,33.65079365079365 167.83068783068785,33.43915343915344 168.46560846560848,33.43915343915344 169.10052910052912,33.43915343915344 172.06349206349208,33.01587301587302" style="fill:none; stroke:#cc0000; stroke-width:1.0"  /><polyline points="172.06349206349208,33.01587301587302 171.64021164021165,36.402116402116405 171.42857142857144,37.03703703703704 171.21693121693124,37.67195767195768 171.21693121693124,38.30687830687831 171.005291005291,38.94179894179894 171.005291005291,39.57671957671958 171.005291005291,40.211640211640216 170.7936507936508,40.84656084656085 170.7936507936508,41.48148148148149 170.7936507936508,42.11640211640212 170.58201058201058,42.75132275132275 170.58201058201058,43.386243386243386 170.37037037037038,44.021164021164026 170.37037037037038,44.65608465608466 170.15873015873018,45.29100529100529 169.94708994708995,45.92592592592593 169.94708994708995,46.560846560846564 169.73544973544975,47.195767195767196 169.73544973544975,47.830687830687836 169.52380952380955,48.46560846560847 169.52380952380955,49.1005291005291 169.31216931216932,49.73544973544974 169.31216931216932,50.370370370370374 169.31216931216932,51.00529100529101 169.10052910052912,51.640211640211646 168.8888888888889,52.27513227513228 168.67724867724868,52.91005291005291 168.67724867724868,53.54497354497355 168.46560846560848,54.179894179894184 168.25396825396825,54.81481481481482 168.25396825396825,55.449735449735456 168.04232804232805,56.08465608465609 168.04232804232805,56.71957671957672 167.83068783068785,57.35449735449736 167.83068783068785,57.989417989417994 167.61904761904762,58.62433862433863 167.40740740740742,59.25925925925927 167.19576719576722,59.8941798941799 167.19576719576722,60.52910052910053 166.984126984127,61.16402116402117 167.19576719576722,61.798941798941804 166.984126984127,62.43386243386244 166.7724867724868,63.06878306878308 166.56084656084658,63.70370370370371 166.56084656084658,64.33862433862434 166.34920634920636,64.97354497354497 166.34920634920636,65.60846560846561 166.13756613756615,66.24338624338625 165.92592592592595,66.87830687830689 165.92592592592595,67.51322751322752 165.92592592592595,68.14814814814815 165.71428571428572,68.78306878306879 165.50264550264552,69.41798941798942 165.2910052910053,70.05291005291006 165.2910052910053,70.6878306878307 165.0793650793651,71.32275132275133 164.8677248677249,71.95767195767196 164.65608465608466,72.5925925925926 164.44444444444446,73.22751322751323 164.23280423280426,73.86243386243387 164.23280423280426,74.49735449735451 164.02116402116403,75.13227513227514 163.80952380952382,75.76719576719577 163.59788359788362,76.4021164021164 163.3862433862434,77.03703703703704 163.1746031746032,77.67195767195767 162.96296296296296,78.30687830687832 162.96296296296296,78.94179894179895 162.96296296296296,79.57671957671958 162.75132275132276,80.21164021164022 162.32804232804233,80.84656084656085 162.11640211640213,81.48148148148148 161.90476190476193,82.11640211640213 161.6931216931217,82.75132275132276 161.4814814814815,83.3862433862434 161.2698412698413,84.02116402116403 160.84656084656086,84.65608465608466 160.42328042328043,85.07936507936509 160.0,85.5026455026455 159.36507936507937,85.92592592592594 158.73015873015873,86.34920634920636 158.0952380952381,86.56084656084657 157.46031746031747,86.56084656084657 156.82539682539684,86.77248677248677 156.1904761904762,86.77248677248677 155.55555555555557,86.77248677248677 154.92063492063494,86.77248677248677 154.2857142857143,86.77248677248677 153.65079365079367,86.77248677248677 153.01587301587304,86.56084656084657 152.38095238095238,86.34920634920636 151.74603174603175,86.13756613756614 151.11111111111111,85.92592592592594 150.47619047619048,85.5026455026455 149.84126984126985,85.29100529100529 149.20634920634922,84.86772486772487 148.57142857142858,84.65608465608466 147.93650793650795,84.23280423280424 147.30158730158732,84.02116402116403 146.66666666666669,83.59788359788361 146.03174603174605,83.17460317460318 145.39682539682542,82.96296296296298 144.973544973545,82.53968253968254 144.33862433862436,82.32804232804233 143.91534391534393,81.90476190476191 143.2804232804233,81.48148148148148 142.64550264550266,81.05820105820106 142.01058201058203,80.63492063492065 141.3756613756614,80.42328042328043 140.95238095238096,80.0 140.31746031746033,79.7883597883598 139.6825396825397,79.57671957671958 139.04761904761907,79.36507936507937 138.41269841269843,79.15343915343917 137.7777777777778,78.94179894179895 137.14285714285717,78.94179894179895 136.5079365079365,78.73015873015873 135.87301587301587,78.73015873015873 135.23809523809524,78.51851851851852 134.6031746031746,78.51851851851852 133.96825396825398,78.51851851851852 133.33333333333334,78.51851851851852 132.6984126984127,78.51851851851852 132.06349206349208,78.51851851851852 131.42857142857144,78.51851851851852 130.7936507936508,78.51851851851852 130.15873015873018,78.73015873015873 129.52380952380955,78.94179894179895 128.88888888888889,78.94179894179895 128.25396825396825,79.15343915343917 127.61904761904763,79.36507936507937 127.1957671957672,79.7883597883598 126.56084656084657,80.21164021164022 125.92592592592594,80.42328042328043 125.2910052910053,80.84656084656085 124.65608465608466,81.26984126984128 124.02116402116403,81.48148148148148 123.59788359788361,81.90476190476191 123.17460317460318,82.32804232804233 122.53968253968254,82.75132275132276 122.11640211640213,83.17460317460318 121.6931216931217,83.59788359788361 121.26984126984128,84.02116402116403 120.84656084656086,84.44444444444446 120.42328042328043,85.07936507936509 120.00000000000001,85.5026455026455 119.57671957671958,86.13756613756614 119.15343915343917,86.77248677248677 118.73015873015873,87.40740740740742 118.51851851851853,88.04232804232805 118.0952380952381,88.46560846560847 117.88359788359789,89.1005291005291 117.46031746031747,89.52380952380953 117.24867724867725,90.15873015873017 117.03703703703705,90.7936507936508 116.82539682539684,91.42857142857143 116.4021164021164,92.06349206349208 116.1904761904762,92.69841269841271 116.1904761904762,93.33333333333334 115.97883597883599,93.96825396825398 115.76719576719577,94.60317460317461 115.55555555555557,95.23809523809524 115.34391534391536,95.87301587301587 115.34391534391536,96.50793650793652 115.34391534391536,97.14285714285715 115.34391534391536,97.77777777777779 115.34391534391536,98.41269841269842 115.13227513227514,99.04761904761905 115.13227513227514,99.68253968253968 115.13227513227514,100.31746031746033 115.13227513227514,100.95238095238096 115.13227513227514,101.5873015873016 115.13227513227514,102.22222222222223 115.13227513227514,102.85714285714286 115.13227513227514,103.4920634920635 115.13227513227514,104.12698412698414 115.34391534391536,104.76190476190477 115.34391534391536,105.3968253968254 115.55555555555557,106.03174603174604 115.76719576719577,106.66666666666667 115.76719576719577,107.3015873015873 116.1904761904762,107.93650793650795 116.4021164021164,108.57142857142858 116.61375661375662,109.20634920634922 117.03703703703705,109.84126984126985 117.24867724867725,110.47619047619048 117.67195767195768,110.89947089947091 118.0952380952381,111.32275132275133 118.51851851851853,111.95767195767196 118.94179894179895,112.5925925925926 119.36507936507937,113.01587301587303 119.7883597883598,113.43915343915344 120.21164021164022,113.86243386243387 120.63492063492065,114.28571428571429 121.26984126984128,114.70899470899472 121.6931216931217,115.13227513227514 122.32804232804234,115.55555555555557 122.96296296296298,115.97883597883599 123.59788359788361,116.1904761904762 124.23280423280424,116.1904761904762 124.86772486772487,116.4021164021164 125.5026455026455,116.61375661375662 126.13756613756615,116.82539682539684 126.77248677248679,116.82539682539684 127.40740740740742,116.82539682539684 128.04232804232805,116.61375661375662 128.67724867724868,116.82539682539684 129.31216931216932,116.82539682539684 129.94708994708995,116.61375661375662 130.58201058201058,116.61375661375662 131.21693121693121,116.61375661375662 131.85185185185185,116.61375661375662 132.4867724867725,116.4021164021164 133.12169312169314,116.4021164021164 133.75661375661377,116.4021164021164 134.3915343915344,116.1904761904762 135.02645502645504,115.97883597883599 135.66137566137567,115.76719576719577 136.2962962962963,115.34391534391536 136.93121693121694,115.34391534391536 137.56613756613757,115.13227513227514 138.2010582010582,114.70899470899472 138.83597883597884,114.49735449735451 139.47089947089947,114.07407407407408 140.10582010582013,113.86243386243387 140.52910052910053,113.43915343915344 141.16402116402116,113.22751322751324 141.7989417989418,112.80423280423281 142.43386243386246,112.3809523809524 143.0687830687831,111.95767195767196 142.64550264550266,111.53439153439155 142.01058201058203,111.74603174603176 141.3756613756614,111.74603174603176 140.74074074074076,111.32275132275133 141.3756613756614,110.89947089947091 142.01058201058203,110.89947089947091 142.64550264550266,111.11111111111111 143.2804232804233,111.11111111111111 143.91534391534393,111.32275132275133 144.55026455026456,110.89947089947091 145.1851851851852,110.47619047619048 145.82010582010582,110.05291005291006 146.45502645502646,109.62962962962963 147.0899470899471,109.20634920634922 147.72486772486775,108.994708994709 148.35978835978838,108.78306878306879 148.99470899470901,108.57142857142858 149.62962962962965,108.57142857142858 150.26455026455028,108.35978835978837 150.8994708994709,108.35978835978837 151.53439153439155,108.35978835978837 152.16931216931218,108.57142857142858 152.8042328042328,108.57142857142858 153.43915343915344,108.78306878306879 154.07407407407408,108.994708994709 154.7089947089947,109.20634920634922 155.34391534391534,109.62962962962963 155.978835978836,109.84126984126985 156.4021164021164,110.26455026455027 156.82539682539684,110.6878306878307 157.24867724867727,111.11111111111111 157.67195767195767,111.53439153439155 158.30687830687833,111.95767195767196 158.73015873015873,112.3809523809524 159.15343915343917,113.01587301587303 159.5767195767196,113.65079365079366 160.0,114.28571428571429 160.42328042328043,114.70899470899472 160.84656084656086,115.34391534391536 161.2698412698413,115.97883597883599 161.4814814814815,116.61375661375662 161.90476190476193,117.24867724867725 162.11640211640213,117.88359788359789 162.32804232804233,118.51851851851853 162.53968253968256,119.15343915343917 162.75132275132276,119.7883597883598 163.1746031746032,120.42328042328043 163.3862433862434,121.05820105820106 163.59788359788362,121.6931216931217 163.80952380952382,122.32804232804234 164.02116402116403,122.96296296296298 164.23280423280426,123.59788359788361 164.44444444444446,124.23280423280424 164.44444444444446,124.86772486772487 164.8677248677249,125.5026455026455 164.8677248677249,126.13756613756615 165.2910052910053,126.77248677248679 165.50264550264552,127.40740740740742 165.71428571428572,128.04232804232805 165.71428571428572,128.67724867724868 165.92592592592595,129.31216931216932 166.13756613756615,129.94708994708995 166.34920634920636,130.58201058201058 166.56084656084658,131.21693121693121 166.7724867724868,131.85185185185185 166.984126984127,132.4867724867725 167.19576719576722,133.12169312169314 167.19576719576722,133.75661375661377 167.40740740740742,134.3915343915344 167.61904761904762,135.02645502645504 167.61904761904762,135.66137566137567 167.83068783068785,136.2962962962963 168.04232804232805,136.93121693121694 168.04232804232805,137.56613756613757 168.25396825396825,138.2010582010582 168.25396825396825,138.83597883597884 168.25396825396825,139.47089947089947 168.46560846560848,140.10582010582013 168.67724867724868,140.74074074074076 168.67724867724868,141.3756613756614 168.67724867724868,142.01058201058203 168.8888888888889,142.64550264550266 168.8888888888889,143.2804232804233 168.8888888888889,143.91534391534393 169.10052910052912,144.55026455026456 169.10052910052912,145.1851851851852 169.31216931216932,145.82010582010582 169.31216931216932,146.45502645502646 169.31216931216932,147.0899470899471 169.52380952380955,147.72486772486775 169.52380952380955,148.35978835978838 169.52380952380955,148.99470899470901 169.52380952380955,149.62962962962965 169.73544973544975,150.26455026455028 169.73544973544975,150.8994708994709 169.73544973544975,151.53439153439155 169.73544973544975,152.16931216931218 169.73544973544975,152.8042328042328 169.52380952380955,153.43915343915344 169.52380952380955,154.07407407407408 169.52380952380955,154.7089947089947 169.52380952380955,155.34391534391534 169.52380952380955,155.978835978836 169.52380952380955,156.61375661375664 169.52380952380955,157.24867724867727 169.52380952380955,157.8835978835979 169.52380952380955,158.51851851851853 169.52380952380955,159.15343915343917 169.52380952380955,159.7883597883598 169.52380952380955,160.42328042328043 169.31216931216932,161.05820105820106 169.31216931216932,161.6931216931217 168.8888888888889,162.32804232804233 168.67724867724868,162.96296296296296 168.46560846560848,163.59788359788362 168.25396825396825,164.23280423280426 167.83068783068785,167.40740740740742" style="fill:none; stroke:#999900; stroke-width:1.0"  /><polyline points="167.83068783068785,167.40740740740742 164.44444444444446,167.40740740740742 163.80952380952382,167.40740740740742 163.1746031746032,167.40740740740742 162.53968253968256,167.19576719576722 161.90476190476193,167.40740740740742 161.2698412698413,167.40740740740742 160.63492063492066,167.40740740740742 160.0,167.40740740740742 159.36507936507937,167.40740740740742 158.73015873015873,167.40740740740742 158.0952380952381,167.40740740740742 157.46031746031747,167.40740740740742 156.82539682539684,167.40740740740742 156.1904761904762,167.40740740740742 155.55555555555557,167.40740740740742 154.92063492063494,167.40740740740742 154.2857142857143,167.40740740740742 153.65079365079367,167.40740740740742 153.01587301587304,167.40740740740742 152.38095238095238,167.40740740740742 151.74603174603175,167.40740740740742 151.11111111111111,167.40740740740742 150.47619047619048,167.40740740740742 149.84126984126985,167.40740740740742 149.20634920634922,167.40740740740742 148.57142857142858,167.40740740740742 147.93650793650795,167.40740740740742 147.30158730158732,167.40740740740742 146.66666666666669,167.40740740740742 146.03174603174605,167.40740740740742 145.39682539682542,167.40740740740742 144.76190476190476,167.40740740740742 144.12698412698413,167.40740740740742 143.4920634920635,167.40740740740742 142.85714285714286,167.40740740740742 142.22222222222223,167.40740740740742 141.5873015873016,167.40740740740742 140.95238095238096,167.40740740740742 140.31746031746033,167.40740740740742 139.6825396825397,167.40740740740742 139.04761904761907,167.40740740740742 138.41269841269843,167.40740740740742 137.7777777777778,167.40740740740742 137.14285714285717,167.40740740740742 136.5079365079365,167.40740740740742 135.87301587301587,167.40740740740742 135.23809523809524,167.40740740740742 134.6031746031746,167.40740740740742 133.96825396825398,167.40740740740742 133.33333333333334,167.40740740740742 132.6984126984127,167.40740740740742 132.06349206349208,167.40740740740742 131.42857142857144,167.40740740740742 130.7936507936508,167.40740740740742 130.15873015873018,167.40740740740742 129.52380952380955,167.40740740740742 128.88888888888889,167.40740740740742 128.25396825396825,167.40740740740742 127.61904761904763,167.40740740740742 126.98412698412699,167.61904761904762 126.34920634920636,167.61904761904762 125.71428571428572,167.61904761904762 125.07936507936509,167.61904761904762 124.44444444444446,167.61904761904762 123.80952380952382,167.61904761904762 123.17460317460318,167.61904761904762 122.53968253968254,167.61904761904762 121.90476190476191,167.61904761904762 121.26984126984128,167.61904761904762 120.63492063492065,167.61904761904762 120.00000000000001,167.61904761904762 119.36507936507937,167.61904761904762 118.73015873015873,167.61904761904762 118.0952380952381,167.61904761904762 117.46031746031747,167.61904761904762 116.82539682539684,167.40740740740742 116.1904761904762,167.40740740740742 115.55555555555557,167.40740740740742 114.92063492063492,167.40740740740742 114.28571428571429,167.40740740740742 113.65079365079366,167.40740740740742 113.01587301587303,167.19576719576722 112.3809523809524,166.984126984127 111.74603174603176,166.984126984127 111.11111111111111,166.56084656084658 110.47619047619048,166.34920634920636 109.84126984126985,165.92592592592595 109.20634920634922,165.50264550264552 108.78306878306879,164.8677248677249 108.57142857142858,164.23280423280426 108.35978835978837,163.59788359788362 108.14814814814815,162.96296296296296 108.14814814814815,162.32804232804233 108.14814814814815,161.6931216931217 108.14814814814815,161.05820105820106 108.14814814814815,160.42328042328043 108.35978835978837,159.7883597883598 108.57142857142858,159.15343915343917 108.78306878306879,158.51851851851853 108.994708994709,157.8835978835979 109.41798941798943,157.24867724867727 109.84126984126985,156.61375661375664 110.05291005291006,155.978835978836 110.47619047619048,155.34391534391534 110.89947089947091,154.7089947089947 111.32275132275133,154.07407407407408 111.74603174603176,153.43915343915344 112.16931216931218,152.8042328042328 112.5925925925926,152.38095238095238 113.01587301587303,151.74603174603175 113.43915343915344,151.11111111111111 113.86243386243387,150.47619047619048 114.07407407407408,149.84126984126985 114.49735449735451,149.20634920634922 114.70899470899472,148.57142857142858 114.92063492063492,147.93650793650795 115.13227513227514,147.30158730158732 115.34391534391536,146.66666666666669 115.55555555555557,146.03174603174605 115.55555555555557,145.39682539682542 115.76719576719577,144.76190476190476 115.76719576719577,144.12698412698413 115.97883597883599,143.4920634920635 115.97883597883599,142.85714285714286 115.97883597883599,142.22222222222223 115.97883597883599,141.5873015873016 115.76719576719577,140.95238095238096 115.76719576719577,140.31746031746033 115.55555555555557,139.6825396825397 115.34391534391536,139.04761904761907 115.13227513227514,138.41269841269843 114.70899470899472,137.7777777777778 114.28571428571429,137.14285714285717 113.86243386243387,136.71957671957674 113.43915343915344,136.0846560846561 113.01587301587303,135.66137566137567 112.5925925925926,135.02645502645504 112.16931216931218,134.6031746031746 111.74603174603176,134.17989417989418 111.11111111111111,133.75661375661377 110.6878306878307,133.33333333333334 110.05291005291006,132.9100529100529 109.62962962962963,132.4867724867725 108.994708994709,132.27513227513228 108.57142857142858,131.85185185185185 107.93650793650795,131.64021164021165 107.3015873015873,131.42857142857144 106.66666666666667,131.005291005291 106.03174603174604,130.7936507936508 105.3968253968254,130.58201058201058 104.76190476190477,130.37037037037038 104.12698412698414,130.15873015873018 103.4920634920635,129.94708994708995 102.85714285714286,129.73544973544975 102.22222222222223,129.52380952380955 101.5873015873016,129.31216931216932 100.95238095238096,129.10052910052912 100.31746031746033,128.88888888888889 99.68253968253968,128.88888888888889 99.04761904761905,128.67724867724868 98.41269841269842,128.67724867724868 97.77777777777779,128.67724867724868 97.14285714285715,128.67724867724868 96.50793650793652,128.67724867724868 95.87301587301587,128.67724867724868 95.23809523809524,128.67724867724868 94.60317460317461,128.67724867724868 93.96825396825398,128.67724867724868 93.33333333333334,128.67724867724868 92.69841269841271,128.67724867724868 92.27513227513228,129.10052910052912 91.64021164021165,129.10052910052912 91.00529100529101,129.10052910052912 90.37037037037038,129.31216931216932 89.73544973544975,129.31216931216932 89.1005291005291,129.52380952380955 88.46560846560847,129.73544973544975 87.83068783068784,129.94708994708995 87.1957671957672,130.15873015873018 86.56084656084657,130.37037037037038 85.92592592592594,130.58201058201058 85.29100529100529,130.7936507936508 84.65608465608466,131.005291005291 84.02116402116403,131.21693121693121 83.3862433862434,131.64021164021165 82.96296296296298,132.06349206349208 82.32804232804233,132.4867724867725 81.90476190476191,132.9100529100529 81.48148148148148,133.33333333333334 81.05820105820106,133.96825396825398 80.63492063492065,134.3915343915344 80.42328042328043,135.02645502645504 80.21164021164022,135.66137566137567 80.0,136.2962962962963 79.7883597883598,136.93121693121694 79.57671957671958,137.56613756613757 79.57671957671958,138.2010582010582 79.36507936507937,138.83597883597884 79.36507936507937,139.47089947089947 79.36507936507937,140.10582010582013 79.15343915343917,140.74074074074076 79.15343915343917,141.3756613756614 79.15343915343917,142.01058201058203 79.15343915343917,142.64550264550266 79.36507936507937,143.2804232804233 79.36507936507937,143.91534391534393 79.36507936507937,144.55026455026456 79.57671957671958,145.1851851851852 79.7883597883598,145.82010582010582 79.7883597883598,146.45502645502646 80.0,147.0899470899471 80.21164021164022,147.72486772486775 80.42328042328043,148.35978835978838 80.63492063492065,148.99470899470901 80.84656084656085,149.62962962962965 81.05820105820106,150.26455026455028 81.26984126984128,150.8994708994709 81.6931216931217,151.53439153439155 81.6931216931217,152.16931216931218 82.11640211640213,152.8042328042328 82.32804232804233,153.43915343915344 82.53968253968254,154.07407407407408 82.75132275132276,154.7089947089947 82.75132275132276,155.34391534391534 82.96296296296298,155.978835978836 82.96296296296298,156.61375661375664 83.17460317460318,157.24867724867727 83.3862433862434,157.8835978835979 83.3862433862434,158.51851851851853 83.3862433862434,159.15343915343917 83.3862433862434,159.7883597883598 83.3862433862434,160.42328042328043 83.3862433862434,161.05820105820106 83.17460317460318,161.6931216931217 82.96296296296298,162.32804232804233 82.75132275132276,162.96296296296296 82.32804232804233,163.59788359788362 81.90476190476191,164.02116402116403 81.48148148148148,164.44444444444446 80.84656084656085,164.8677248677249 80.42328042328043,165.2910052910053 79.7883597883598,165.71428571428572 79.15343915343917,165.92592592592595 78.51851851851852,166.13756613756615 77.88359788359789,166.34920634920636 77.24867724867725,166.56084656084658 76.61375661375662,166.7724867724868 75.97883597883599,166.984126984127 75.34391534391536,166.984126984127 74.70899470899471,167.19576719576722 74.07407407407408,167.19576719576722 73.43915343915344,167.19576719576722 72.80423280423281,167.19576719576722 72.16931216931218,167.19576719576722 71.53439153439155,167.19576719576722 70.8994708994709,167.19576719576722 70.26455026455027,167.19576719576722 69.62962962962963,167.19576719576722 68.994708994709,167.19576719576722 68.35978835978837,166.984126984127 67.72486772486774,166.984126984127 67.08994708994709,166.984126984127 66.45502645502646,166.7724867724868 65.82010582010582,166.7724867724868 65.18518518518519,166.7724867724868 64.55026455026456,166.56084656084658 63.91534391534392,166.56084656084658 63.280423280423285,166.56084656084658 62.64550264550265,166.56084656084658 62.01058201058201,166.56084656084658 61.37566137566138,166.56084656084658 60.74074074074075,166.34920634920636 60.10582010582011,166.34920634920636 59.470899470899475,166.34920634920636 58.83597883597884,166.13756613756615 58.2010582010582,166.13756613756615 57.56613756613757,165.92592592592595 56.93121693121694,166.13756613756615 56.2962962962963,166.13756613756615 55.661375661375665,165.92592592592595 55.02645502645503,165.92592592592595 54.39153439153439,165.92592592592595 53.75661375661376,165.71428571428572 53.12169312169313,165.71428571428572 52.48677248677249,165.71428571428572 51.851851851851855,165.71428571428572 51.21693121693122,165.50264550264552 50.58201058201058,165.50264550264552 49.94708994708995,165.50264550264552 49.31216931216932,165.50264550264552 48.677248677248684,165.2910052910053 48.042328042328045,165.2910052910053 47.40740740740741,165.0793650793651 46.77248677248678,165.0793650793651 46.13756613756614,164.8677248677249 45.50264550264551,164.8677248677249 44.867724867724874,164.8677248677249 44.232804232804234,164.65608465608466 43.5978835978836,164.65608465608466 42.96296296296297,164.65608465608466 42.32804232804233,164.44444444444446 41.6931216931217,164.44444444444446 41.058201058201064,164.44444444444446 40.423280423280424,164.23280423280426 39.78835978835979,164.23280423280426 39.15343915343916,164.23280423280426 38.51851851851852,164.02116402116403 37.883597883597886,164.02116402116403 37.248677248677254,163.80952380952382 36.613756613756614,163.80952380952382 35.97883597883598,163.80952380952382 35.34391534391535,163.59788359788362 34.70899470899471,163.59788359788362 34.074074074074076,163.3862433862434 33.43915343915344,163.3862433862434 32.804232804232804,163.3862433862434 32.16931216931217,163.1746031746032 31.53439153439154,163.1746031746032 30.899470899470902,162.96296296296296 30.264550264550266,162.96296296296296 29.629629629629633,162.75132275132276 28.994708994708997,162.75132275132276 28.35978835978836,162.53968253968256 27.724867724867728,162.53968253968256 27.089947089947092,162.53968253968256 26.455026455026456,162.32804232804233 25.820105820105823,162.32804232804233 25.185185185185187,162.11640211640213 24.55026455026455,162.11640211640213 23.915343915343918,161.90476190476193 23.280423280423282,161.90476190476193 22.645502645502646,161.90476190476193 22.010582010582013,161.90476190476193 21.375661375661377,161.90476190476193 20.740740740740744,161.6931216931217 20.105820105820108,161.6931216931217 19.47089947089947,161.4814814814815 18.83597883597884,161.4814814814815 18.201058201058203,161.4814814814815 17.566137566137566,161.2698412698413 16.931216931216934,161.2698412698413 16.296296296296298,161.2698412698413 15.661375661375663,161.05820105820106 15.026455026455027,161.05820105820106 14.391534391534393,161.05820105820106 11.005291005291006,160.63492063492066" style="fill:none; stroke:#00aa99; stroke-width:1.0"  /><polyline points="11.005291005291006,160.63492063492066 10.15873015873016,157.24867724867727 9.947089947089948,156.61375661375664 9.735449735449736,155.978835978836 9.735449735449736,155.34391534391534 9.523809523809524,154.7089947089947 9.312169312169313,154.07407407407408 9.100529100529101,153.43915343915344 9.100529100529101,152.8042328042328 8.88888888888889,152.16931216931218 8.677248677248677,151.53439153439155 8.677248677248677,150.8994708994709 8.465608465608467,150.26455026455028 8.465608465608467,149.62962962962965 8.253968253968255,148.99470899470901 8.253968253968255,148.35978835978838 8.042328042328043,147.72486772486775 7.830687830687832,147.0899470899471 7.830687830687832,146.45502645502646 7.830687830687832,145.82010582010582 7.6190476190476195,145.1851851851852 7.6190476190476195,144.55026455026456 7.6190476190476195,143.91534391534393 7.407407407407408,143.2804232804233 7.407407407407408,142.64550264550266 7.407407407407408,142.01058201058203 7.195767195767196,141.3756613756614 7.195767195767196,140.74074074074076 7.195767195767196,140.10582010582013 7.195767195767196,139.47089947089947 7.195767195767196,138.83597883597884 7.195767195767196,138.2010582010582 7.195767195767196,137.56613756613757 6.984126984126985,136.93121693121694 6.984126984126985,136.2962962962963 6.984126984126985,135.66137566137567 6.984126984126985,135.02645502645504 6.984126984126985,134.3915343915344 6.984126984126985,133.75661375661377 6.984126984126985,133.12169312169314 6.984126984126985,132.4867724867725 6.772486772486773,131.85185185185185 6.984126984126985,131.21693121693121 6.984126984126985,130.58201058201058 6.984126984126985,129.94708994708995 6.984126984126985,129.31216931216932 7.195767195767196,128.67724867724868 7.195767195767196,128.04232804232805 7.195767195767196,127.40740740740742 7.407407407407408,126.77248677248679 7.407407407407408,126.13756613756615 7.407407407407408,125.5026455026455 7.6190476190476195,124.86772486772487 7.6190476190476195,124.23280423280424 7.6190476190476195,123.59788359788361 7.6190476190476195,122.96296296296298 7.830687830687832,122.32804232804234 7.830687830687832,121.6931216931217 8.042328042328043,121.05820105820106 8.042328042328043,120.42328042328043 8.253968253968255,119.7883597883598 8.253968253968255,119.15343915343917 8.465608465608467,118.51851851851853 8.677248677248677,117.88359788359789 9.100529100529101,117.24867724867725 9.312169312169313,116.61375661375662 9.735449735449736,115.97883597883599 10.15873015873016,115.34391534391536 10.582010582010582,114.70899470899472 11.005291005291006,114.07407407407408 11.640211640211641,113.65079365079366 12.063492063492065,113.22751322751324 12.6984126984127,112.80423280423281 13.333333333333334,112.3809523809524 13.96825396825397,112.16931216931218 14.391534391534393,111.74603174603176 15.026455026455027,111.74603174603176 15.661375661375663,111.74603174603176 16.296296296296298,111.74603174603176 16.931216931216934,111.74603174603176 17.566137566137566,111.74603174603176 18.201058201058203,111.74603174603176 18.83597883597884,111.95767195767196 19.47089947089947,112.16931216931218 20.105820105820108,112.3809523809524 20.740740740740744,112.5925925925926 21.375661375661377,112.80423280423281 22.010582010582013,113.01587301587303 22.645502645502646,113.01587301587303 23.280423280423282,113.22751322751324 23.915343915343918,113.43915343915344 24.55026455026455,113.86243386243387 25.185185185185187,114.07407407407408 25.820105820105823,114.28571428571429 26.455026455026456,114.70899470899472 27.089947089947092,114.92063492063492 27.724867724867728,115.13227513227514 28.35978835978836,115.34391534391536 28.994708994708997,115.34391534391536 29.629629629629633,115.55555555555557 30.264550264550266,115.76719576719577 30.899470899470902,115.76719576719577 31.53439153439154,115.97883597883599 32.16931216931217,115.97883597883599 32.804232804232804,116.1904761904762 33.43915343915344,116.1904761904762 34.074074074074076,116.1904761904762 34.70899470899471,116.1904761904762 35.34391534391535,115.97883597883599 35.97883597883598,115.76719576719577 36.613756613756614,115.76719576719577 37.248677248677254,115.76719576719577 37.883597883597886,115.55555555555557 38.51851851851852,115.34391534391536 39.15343915343916,115.13227513227514 39.78835978835979,114.92063492063492 40.423280423280424,114.49735449735451 41.058201058201064,114.07407407407408 41.48148148148149,113.65079365079366 41.904761904761905,113.22751322751324 42.32804232804233,112.80423280423281 42.75132275132275,112.3809523809524 43.17460317460318,111.95767195767196 43.5978835978836,111.32275132275133 44.021164021164026,110.6878306878307 44.44444444444445,110.05291005291006 44.867724867724874,109.41798941798943 45.29100529100529,108.78306878306879 45.50264550264551,108.14814814814815 45.92592592592593,107.51322751322752 46.13756613756614,106.87830687830689 46.560846560846564,106.24338624338625 46.77248677248678,105.60846560846562 46.98412698412699,104.97354497354497 47.195767195767196,104.33862433862434 47.195767195767196,103.70370370370371 47.40740740740741,103.06878306878308 47.40740740740741,102.43386243386244 47.61904761904762,101.79894179894181 47.61904761904762,101.16402116402116 47.61904761904762,100.52910052910053 47.61904761904762,99.8941798941799 47.61904761904762,99.25925925925927 47.61904761904762,98.62433862433863 47.61904761904762,97.989417989418 47.61904761904762,97.35449735449737 47.40740740740741,96.71957671957672 47.61904761904762,96.08465608465609 47.61904761904762,95.44973544973546 47.61904761904762,94.81481481481482 47.40740740740741,94.17989417989419 47.40740740740741,93.54497354497356 47.40740740740741,92.91005291005291 47.40740740740741,92.27513227513228 47.195767195767196,91.64021164021165 47.195767195767196,91.00529100529101 46.98412698412699,90.37037037037038 46.98412698412699,89.73544973544975 46.77248677248678,89.1005291005291 46.560846560846564,88.46560846560847 46.349206349206355,87.83068783068784 45.92592592592593,87.1957671957672 45.714285714285715,86.56084656084657 45.50264550264551,85.92592592592594 45.29100529100529,85.29100529100529 44.867724867724874,84.65608465608466 44.65608465608466,84.02116402116403 44.232804232804234,83.59788359788361 44.021164021164026,82.96296296296298 43.5978835978836,82.53968253968254 43.17460317460318,81.90476190476191 42.96296296296297,81.26984126984128 42.539682539682545,80.84656084656085 42.32804232804233,80.21164021164022 41.904761904761905,79.7883597883598 41.48148148148149,79.15343915343917 41.058201058201064,78.51851851851852 40.63492063492064,78.0952380952381 40.211640211640216,77.67195767195767 39.78835978835979,77.24867724867725 39.36507936507937,76.82539682539684 38.94179894179894,76.4021164021164 38.51851851851852,75.97883597883599 37.883597883597886,75.55555555555556 37.46031746031746,75.13227513227514 36.82539682539683,74.92063492063492 36.19047619047619,74.70899470899471 35.55555555555556,74.49735449735451 34.920634920634924,74.07407407407408 34.28571428571429,73.86243386243387 33.65079365079365,73.86243386243387 33.01587301587302,73.65079365079366 32.38095238095239,73.65079365079366 31.746031746031747,73.65079365079366 31.111111111111114,73.65079365079366 30.476190476190478,73.65079365079366 29.841269841269842,73.65079365079366 29.20634920634921,73.65079365079366 28.571428571428573,73.65079365079366 27.93650793650794,73.86243386243387 27.301587301587304,74.07407407407408 26.666666666666668,74.28571428571429 26.031746031746035,74.49735449735451 25.3968253968254,74.92063492063492 24.761904761904763,75.13227513227514 24.12698412698413,75.55555555555556 23.492063492063494,75.76719576719577 23.06878306878307,76.19047619047619 22.645502645502646,76.61375661375662 22.222222222222225,77.03703703703704 21.7989417989418,77.67195767195767 21.375661375661377,78.0952380952381 20.952380952380953,78.73015873015873 20.529100529100532,79.15343915343917 20.31746031746032,79.7883597883598 20.105820105820108,80.42328042328043 19.894179894179896,81.05820105820106 19.47089947089947,81.48148148148148 19.25925925925926,82.11640211640213 18.83597883597884,82.53968253968254 18.412698412698415,83.17460317460318 18.201058201058203,83.80952380952381 17.77777777777778,84.23280423280424 17.354497354497354,84.86772486772487 17.142857142857146,85.5026455026455 16.71957671957672,85.92592592592594 16.296296296296298,86.34920634920636 15.873015873015873,86.98412698412699 15.449735449735451,87.40740740740742 15.026455026455027,87.83068783068784 14.391534391534393,88.25396825396827 13.756613756613758,88.67724867724868 13.121693121693122,88.8888888888889 12.486772486772487,89.1005291005291 11.851851851851853,89.31216931216932 11.216931216931219,89.31216931216932 10.582010582010582,89.31216931216932 9.947089947089948,89.31216931216932 9.312169312169313,89.31216931216932 8.677248677248677,89.1005291005291 8.042328042328043,88.8888888888889 7.407407407407408,88.46560846560847 6.984126984126985,88.04232804232805 6.34920634920635,87.61904761904762 5.9259259259259265,86.98412698412699 5.714285714285714,86.34920634920636 5.502645502645503,85.71428571428572 5.291005291005291,85.07936507936509 5.07936507936508,84.44444444444446 5.07936507936508,83.80952380952381 4.867724867724868,83.17460317460318 4.656084656084657,82.53968253968254 4.656084656084657,81.90476190476191 4.656084656084657,81.26984126984128 4.444444444444445,80.63492063492065 4.444444444444445,80.0 4.2328042328042335,79.36507936507937 4.2328042328042335,78.73015873015873 4.2328042328042335,78.0952380952381 4.2328042328042335,77.46031746031747 4.2328042328042335,76.82539682539684 4.2328042328042335,76.19047619047619 4.2328042328042335,75.55555555555556 4.2328042328042335,74.92063492063492 4.2328042328042335,74.28571428571429 4.2328042328042335,73.65079365079366 4.2328042328042335,73.01587301587303 4.444444444444445,72.38095238095238 4.444444444444445,71.74603174603175 4.444444444444445,71.11111111111111 4.656084656084657,70.47619047619048 4.656084656084657,69.84126984126985 4.656084656084657,69.20634920634922 4.656084656084657,68.57142857142858 4.867724867724868,67.93650793650794 4.867724867724868,67.3015873015873 4.867724867724868,66.66666666666667 4.867724867724868,66.03174603174604 4.867724867724868,65.3968253968254 4.867724867724868,64.76190476190477 5.07936507936508,64.12698412698413 5.07936507936508,63.492063492063494 5.07936507936508,62.85714285714286 5.07936507936508,62.22222222222223 4.867724867724868,61.58730158730159 4.867724867724868,60.952380952380956 4.867724867724868,60.31746031746032 4.867724867724868,59.682539682539684 4.867724867724868,59.04761904761905 4.867724867724868,58.41269841269842 4.656084656084657,57.777777777777786 4.656084656084657,57.142857142857146 4.867724867724868,56.50793650793651 4.656084656084657,55.87301587301588 4.656084656084657,55.23809523809524 4.656084656084657,54.60317460317461 4.444444444444445,53.968253968253975 4.444444444444445,53.333333333333336 4.444444444444445,52.6984126984127 4.2328042328042335,52.06349206349207 4.021164021164021,51.42857142857143 4.021164021164021,50.7936507936508 4.021164021164021,50.158730158730165 3.8095238095238098,49.523809523809526 3.597883597883598,48.88888888888889 3.3862433862433865,48.25396825396826 3.3862433862433865,47.61904761904762 3.174603174603175,46.98412698412699 2.9629629629629632,46.349206349206355 2.9629629629629632,45.714285714285715 2.7513227513227516,45.07936507936508 2.53968253968254,44.44444444444445 2.3280423280423284,43.80952380952381 2.3280423280423284,43.17460317460318 2.1164021164021167,42.539682539682545 1.9047619047619049,41.904761904761905 1.6931216931216932,41.26984126984127 1.6931216931216932,40.63492063492064 1.4814814814814816,40.0 1.26984126984127,39.36507936507937 1.0582010582010584,38.730158730158735 0.8465608465608466,38.095238095238095 0.8465608465608466,37.46031746031746 0.0,34.074074074074076" style="fill:none; stroke:#3300bb; stroke-width:1.0"  /><circle cx="0.0" cy="34.074074074074076" r="2.0" style="fill:none; stroke:#000000aa; stroke-width:0.25" /><circle cx="172.06349206349208" cy="33.01587301587302" r="2.0" style="fill:none; stroke:#000000aa; stroke-width:0.25" /><circle cx="167.83068783068785" cy="167.40740740740742" r="2.0" style="fill:none; stroke:#000000aa; stroke-width:0.25" /><circle cx="11.005291005291006" cy="160.63492063492066" r="2.0" style="fill:none; stroke:#000000aa; stroke-width:0.25" /><circle cx="0.4232804232804233" cy="34.074074074074076" r="2.0" style="fill:none; stroke:#ff3366aa; stroke-width:0.25" /><circle cx="172.06349206349208" cy="33.22751322751323" r="2.0" style="fill:none; stroke:#ff3366aa; stroke-width:0.25" /><circle cx="167.61904761904762" cy="167.40740740740742" r="2.0" style="fill:none; stroke:#ff3366aa; stroke-width:0.25" /><circle cx="11.216931216931219" cy="160.42328042328043" r="2.0" style="fill:none; stroke:#ff3366aa; stroke-width:0.25" /><polyline points="11.851851851851853,32.804232804232804 11.216931216931219,32.804232804232804 10.582010582010582,32.804232804232804 9.947089947089948,32.804232804232804 9.312169312169313,33.01587301587302 8.677248677248677,33.01587301587302 8.042328042328043,33.01587301587302 7.407407407407408,33.22751322751323 6.772486772486773,33.22751322751323 6.137566137566138,33.22751322751323 5.502645502645503,33.22751322751323 4.867724867724868,33.43915343915344 4.2328042328042335,33.43915343915344 3.597883597883598,33.65079365079365" style="fill:none; stroke:#001100; stroke-width:1.0" /><polyline points="2.9629629629629632,45.714285714285715 2.7513227513227516,45.07936507936508 2.53968253968254,44.44444444444445 2.3280423280423284,43.80952380952381 2.3280423280423284,43.17460317460318 2.1164021164021167,42.539682539682545 1.9047619047619049,41.904761904761905 1.6931216931216932,41.26984126984127 1.6931216931216932,40.63492063492064 1.4814814814814816,40.0 1.26984126984127,39.36507936507937 1.0582010582010584,38.730158730158735 0.8465608465608466,38.095238095238095 0.8465608465608466,37.46031746031746" style="fill:none; stroke:#000011; stroke-width:1.0" /><polyline points="170.37037037037038,44.65608465608466 170.37037037037038,44.021164021164026 170.58201058201058,43.386243386243386 170.58201058201058,42.75132275132275 170.7936507936508,42.11640211640212 170.7936507936508,41.48148148148149 170.7936507936508,40.84656084656085 171.005291005291,40.211640211640216 171.005291005291,39.57671957671958 171.005291005291,38.94179894179894 171.21693121693124,38.30687830687831 171.21693121693124,37.67195767195768 171.42857142857144,37.03703703703704 171.64021164021165,36.402116402116405" style="fill:none; stroke:#001100; stroke-width:1.0" /><polyline points="160.21164021164023,34.70899470899471 160.84656084656086,34.70899470899471 161.4814814814815,34.4973544973545 162.11640211640213,34.28571428571429 162.75132275132276,34.28571428571429 163.3862433862434,34.074074074074076 164.02116402116403,34.074074074074076 164.65608465608466,33.86243386243387 165.2910052910053,33.86243386243387 165.92592592592595,33.86243386243387 166.56084656084658,33.86243386243387 167.19576719576722,33.65079365079365 167.83068783068785,33.43915343915344 168.46560846560848,33.43915343915344 169.10052910052912,33.43915343915344" style="fill:none; stroke:#000011; stroke-width:1.0" /><polyline points="155.55555555555557,167.40740740740742 156.1904761904762,167.40740740740742 156.82539682539684,167.40740740740742 157.46031746031747,167.40740740740742 158.0952380952381,167.40740740740742 158.73015873015873,167.40740740740742 159.36507936507937,167.40740740740742 160.0,167.40740740740742 160.63492063492066,167.40740740740742 161.2698412698413,167.40740740740742 161.90476190476193,167.40740740740742 162.53968253968256,167.19576719576722 163.1746031746032,167.40740740740742 163.80952380952382,167.40740740740742 164.44444444444446,167.40740740740742" style="fill:none; stroke:#001100; stroke-width:1.0" /><polyline points="169.52380952380955,155.978835978836 169.52380952380955,156.61375661375664 169.52380952380955,157.24867724867727 169.52380952380955,157.8835978835979 169.52380952380955,158.51851851851853 169.52380952380955,159.15343915343917 169.52380952380955,159.7883597883598 169.52380952380955,160.42328042328043 169.31216931216932,161.05820105820106 169.31216931216932,161.6931216931217 168.8888888888889,162.32804232804233 168.67724867724868,162.96296296296296 168.46560846560848,163.59788359788362 168.25396825396825,164.23280423280426" style="fill:none; stroke:#000011; stroke-width:1.0" /><polyline points="8.253968253968255,148.99470899470901 8.465608465608467,149.62962962962965 8.465608465608467,150.26455026455028 8.677248677248677,150.8994708994709 8.677248677248677,151.53439153439155 8.88888888888889,152.16931216931218 9.100529100529101,152.8042328042328 9.100529100529101,153.43915343915344 9.312169312169313,154.07407407407408 9.523809523809524,154.7089947089947 9.735449735449736,155.34391534391534 9.735449735449736,155.978835978836 9.947089947089948,156.61375661375664 10.15873015873016,157.24867724867727" style="fill:none; stroke:#001100; stroke-width:1.0" /><polyline points="22.645502645502646,161.90476190476193 22.010582010582013,161.90476190476193 21.375661375661377,161.90476190476193 20.740740740740744,161.6931216931217 20.105820105820108,161.6931216931217 19.47089947089947,161.4814814814815 18.83597883597884,161.4814814814815 18.201058201058203,161.4814814814815 17.566137566137566,161.2698412698413 16.931216931216934,161.2698412698413 16.296296296296298,161.2698412698413 15.661375661375663,161.05820105820106 15.026455026455027,161.05820105820106 14.391534391534393,161.05820105820106" style="fill:none; stroke:#000011; stroke-width:1.0" /><polyline points="3.597883597883598,33.65079365079365 -17.354497354497354,35.76719576719577" style="fill:none; stroke:#ffaa00; stroke-width:0.4" /><polyline points="0.8465608465608466,37.46031746031746 -4.444444444444445,16.931216931216934" style="fill:none; stroke:#aaff00; stroke-width:0.4" /><polyline points="171.64021164021165,36.402116402116405 174.81481481481484,15.449735449735451" style="fill:none; stroke:#ffaa00; stroke-width:0.4" /><polyline points="169.10052910052912,33.43915343915344 190.05291005291008,30.476190476190478" style="fill:none; stroke:#aaff00; stroke-width:0.4" /><polyline points="164.44444444444446,167.40740740740742 185.60846560846562,167.40740740740742" style="fill:none; stroke:#ffaa00; stroke-width:0.4" /><polyline points="168.25396825396825,164.23280423280426 165.0793650793651,185.1851851851852" style="fill:none; stroke:#aaff00; stroke-width:0.4" /><polyline points="10.15873015873016,157.24867724867727 14.814814814814817,177.7777777777778" style="fill:none; stroke:#ffaa00; stroke-width:0.4" /><polyline points="14.391534391534393,161.05820105820106 -6.560846560846561,158.94179894179896" style="fill:none; stroke:#aaff00; stroke-width:0.4" /><circle cx="86.56084656084657" cy="92.06349206349208" r="1.0" style="fill:#444444; stroke-width:0" /><circle cx="82.32804232804233" cy="74.28571428571429" r="10.582010582010582" style="fill:#ff770022; stroke-width:0" /><circle cx="82.32804232804233" cy="74.28571428571429" r="1.0" style="fill:#ff7700; stroke-width:0" /></svg>