<?xml version="1.0" encoding="UTF-8" standalone="no"?><svg width="496.50793650793656" height="558.7301587301588" viewBox="-10 -10 185.50264550264552 206.24338624338625" xmlns="http://www.w3.org/2000/svg" xmlns:xlink="http://www.w3.org/1999/xlink"><polyline points="5.714285714285714,36.19047619047619 9.100529100529101,36.19047619047619 9.735449735449736,36.402116402116405 10.370370370370372,36.402116402116405 11.005291005291006,36.402116402116405 11.640211640211641,36.402116402116405 12.275132275132275,36.402116402116405 12.910052910052912,36.402116402116405 13.544973544973546,36.402116402116405 14.17989417989418,36.402116402116405 14.814814814814817,36.402116402116405 15.449735449735451,36.402116402116405 16.084656084656086,36.402116402116405 16.71957671957672,36.402116402116405 17.354497354497354,36.402116402116405 17.98941798941799,36.402116402116405 18.624338624338627,36.402116402116405 19.25925925925926,36.402116402116405 19.894179894179896,36.402116402116405 20.529100529100532,36.402116402116405 21.164021164021165,36.402116402116405 21.7989417989418,36.402116402116405 22.433862433862437,36.402116402116405 23.06878306878307,36.402116402116405 23.703703703703706,36.402116402116405 24.338624338624342,36.402116402116405 24.973544973544975,36.402116402116405 25.60846560846561,36.613756613756614 26.243386243386244,36.613756613756614 26.87830687830688,36.613756613756614 27.513227513227516,36.402116402116405 28.14814814814815,36.613756613756614 28.783068783068785,36.613756613756614 29.41798941798942,36.613756613756614 30.052910052910054,36.613756613756614 30.68783068783069,36.613756613756614 31.322751322751326,36.613756613756614 31.95767195767196,36.613756613756614 32.592592592592595,36.613756613756614 33.22751322751323,36.613756613756614 33.86243386243387,36.613756613756614 34.4973544973545,36.613756613756614 35.13227513227513,36.613756613756614 35.76719576719577,36.613756613756614 36.402116402116405,36.613756613756614 37.03703703703704,36.613756613756614 37.67195767195768,36.613756613756614 38.30687830687831,36.613756613756614 38.94179894179894,36.613756613756614 39.57671957671958,36.613756613756614 40.211640211640216,36.613756613756614 40.84656084656085,36.402116402116405 41.48148148148149,36.402116402116405 42.11640211640212,36.402116402116405 42.75132275132275,36.19047619047619 43.386243386243386,36.19047619047619 44.021164021164026,36.19047619047619 44.65608465608466,36.19047619047619 45.29100529100529,35.97883597883598 45.92592592592593,35.97883597883598 46.560846560846564,35.76719576719577 47.195767195767196,35.76719576719577 47.830687830687836,35.76719576719577 48.46560846560847,35.76719576719577 49.1005291005291,35.55555555555556 49.73544973544974,35.55555555555556 50.370370370370374,35.55555555555556 51.00529100529101,35.34391534391535 51.640211640211646,35.34391534391535 52.27513227513228,35.34391534391535 52.91005291005291,35.13227513227513 53.54497354497355,35.13227513227513 54.179894179894184,35.13227513227513 54.81481481481482,34.920634920634924 55.449735449735456,34.920634920634924 56.08465608465609,34.70899470899471 56.71957671957672,34.4973544973545 57.35449735449736,34.4973544973545 57.989417989417994,34.28571428571429 58.62433862433863,34.074074074074076 59.25925925925927,33.65079365079365 59.8941798941799,33.43915343915344 60.52910052910053,33.01587301587302 60.952380952380956,32.592592592592595 61.37566137566138,32.16931216931217 61.798941798941804,31.746031746031747 62.22222222222223,31.322751322751326 62.43386243386244,30.68783068783069 62.64550264550265,30.052910052910054 63.06878306878308,29.629629629629633 63.280423280423285,28.994708994708997 63.280423280423285,28.35978835978836 63.280423280423285,27.724867724867728 63.280423280423285,27.089947089947092 63.280423280423285,26.455026455026456 63.280423280423285,25.820105820105823 63.06878306878308,25.185185185185187 62.85714285714286,24.55026455026455 63.06878306878308,23.915343915343918 62.85714285714286,23.280423280423282 62.64550264550265,22.645502645502646 62.43386243386244,22.010582010582013 62.22222222222223,21.375661375661377 62.01058201058201,20.740740740740744 61.798941798941804,20.105820105820108 61.58730158730159,19.47089947089947 61.37566137566138,18.83597883597884 61.16402116402117,18.201058201058203 60.952380952380956,17.566137566137566 60.74074074074075,16.931216931216934 60.52910052910053,16.296296296296298 60.31746031746032,15.661375661375663 59.8941798941799,15.026455026455027 59.8941798941799,14.391534391534393 59.682539682539684,13.756613756613758 59.470899470899475,13.121693121693122 59.25925925925927,12.486772486772487 59.25925925925927,11.851851851851853 59.25925925925927,11.216931216931219 59.25925925925927,10.582010582010582 59.25925925925927,9.947089947089948 59.25925925925927,9.312169312169313 59.470899470899475,8.677248677248677 59.470899470899475,8.042328042328043 59.682539682539684,7.407407407407408 59.682539682539684,6.772486772486773 59.8941798941799,6.137566137566138 60.10582010582011,5.502645502645503 60.52910052910053,4.867724867724868 60.74074074074075,4.2328042328042335 61.16402116402117,3.8095238095238098 61.58730158730159,3.3862433862433865 62.22222222222223,2.9629629629629632 62.85714285714286,2.53968253968254 63.492063492063494,2.3280423280423284 63.91534391534392,1.9047619047619049 64.55026455026456,1.4814814814814816 65.18518518518519,1.26984126984127 65.82010582010582,0.8465608465608466 66.45502645502646,0.8465608465608466 67.08994708994709,0.634920634920635 67.72486772486774,0.634920634920635 68.35978835978837,0.4232804232804233 68.994708994709,0.4232804232804233 69.62962962962963,0.4232804232804233 70.26455026455027,0.21164021164021166 70.8994708994709,0.4232804232804233 71.53439153439155,0.21164021164021166 72.16931216931218,0.21164021164021166 72.80423280423281,0.21164021164021166 73.43915343915344,0.21164021164021166 74.07407407407408,0.4232804232804233 74.70899470899471,0.4232804232804233 75.34391534391536,0.4232804232804233 75.97883597883599,0.634920634920635 76.61375661375662,0.634920634920635 77.24867724867725,0.8465608465608466 77.88359788359789,0.634920634920635 78.51851851851852,0.8465608465608466 79.15343915343917,1.0582010582010584 79.7883597883598,1.26984126984127 80.42328042328043,1.4814814814814816 81.05820105820106,1.6931216931216932 81.6931216931217,1.9047619047619049 82.32804232804233,2.1164021164021167 82.96296296296298,2.3280423280423284 83.59788359788361,2.53968253968254 84.23280423280424,2.9629629629629632 84.86772486772487,3.174603174603175 85.5026455026455,3.597883597883598 86.13756613756614,3.8095238095238098 86.56084656084657,4.2328042328042335 87.1957671957672,4.444444444444445 87.61904761904762,4.867724867724868 88.25396825396827,5.291005291005291 88.67724867724868,5.714285714285714 89.1005291005291,6.137566137566138 89.73544973544975,6.560846560846561 90.15873015873017,6.984126984126985 90.58201058201058,7.407407407407408 91.00529100529101,8.042328042328043 91.42857142857143,8.465608465608467 91.85185185185186,8.88888888888889 92.27513227513228,9.523809523809524 92.4867724867725,10.15873015873016 92.91005291005291,10.793650793650794 93.12169312169313,11.428571428571429 93.12169312169313,12.063492063492065 93.33333333333334,12.6984126984127 93.33333333333334,13.333333333333334 93.33333333333334,13.96825396825397 93.12169312169313,14.603174603174605 93.12169312169313,15.238095238095239 93.12169312169313,15.873015873015873 92.91005291005291,16.50793650793651 92.91005291005291,17.142857142857146 92.69841269841271,17.77777777777778 92.4867724867725,18.412698412698415 92.27513227513228,19.047619047619047 92.06349206349208,19.682539682539684 91.64021164021165,20.31746031746032 91.42857142857143,20.952380952380953 91.00529100529101,21.58730158730159 90.7936507936508,22.222222222222225 90.37037037037038,22.857142857142858 89.94708994708995,23.492063492063494 89.52380952380953,23.915343915343918 89.1005291005291,24.338624338624342 88.67724867724868,24.973544973544975 88.25396825396827,25.60846560846561 88.04232804232805,26.243386243386244 87.83068783068784,26.87830687830688 87.40740740740742,27.513227513227516 87.1957671957672,28.14814814814815 86.98412698412699,28.783068783068785 86.98412698412699,29.41798941798942 86.98412698412699,30.052910052910054 86.98412698412699,30.68783068783069 86.98412698412699,31.322751322751326 86.98412698412699,31.95767195767196 87.1957671957672,32.592592592592595 87.40740740740742,33.22751322751323 87.61904761904762,33.86243386243387 88.04232804232805,34.4973544973545 88.25396825396827,35.13227513227513 88.67724867724868,35.76719576719577 89.1005291005291,36.402116402116405 89.52380952380953,37.03703703703704 89.94708994708995,37.67195767195768 90.37037037037038,38.30687830687831 90.7936507936508,38.94179894179894 91.21693121693123,39.57671957671958 91.64021164021165,40.0 92.06349206349208,40.423280423280424 92.4867724867725,40.84656084656085 92.91005291005291,41.26984126984127 93.33333333333334,41.6931216931217 93.75661375661376,42.11640211640212 94.17989417989419,42.539682539682545 94.60317460317461,42.96296296296297 95.02645502645504,43.386243386243386 95.66137566137567,43.80952380952381 96.08465608465609,44.232804232804234 96.71957671957672,44.65608465608466 97.14285714285715,45.07936507936508 97.77777777777779,45.50264550264551 98.41269841269842,45.92592592592593 99.04761904761905,46.13756613756614 99.47089947089948,46.560846560846564 100.10582010582011,46.77248677248678 100.74074074074075,47.195767195767196 101.37566137566138,47.40740740740741 102.01058201058201,47.61904761904762 102.64550264550266,48.042328042328045 103.28042328042329,48.25396825396826 103.91534391534393,48.46560846560847 104.55026455026456,48.677248677248684 105.18518518518519,48.88888888888889 105.82010582010582,49.1005291005291 106.45502645502647,49.31216931216932 107.0899470899471,49.31216931216932 107.72486772486774,49.523809523809526 108.35978835978837,49.73544973544974 108.994708994709,49.94708994708995 109.62962962962963,50.158730158730165 110.26455026455027,50.370370370370374 110.89947089947091,50.370370370370374 111.53439153439155,50.58201058201058 112.16931216931218,50.58201058201058 112.80423280423281,50.58201058201058 113.43915343915344,50.7936507936508 114.07407407407408,50.7936507936508 114.70899470899472,51.00529100529101 115.34391534391536,51.00529100529101 115.97883597883599,51.21693121693122 116.61375661375662,51.42857142857143 117.24867724867725,51.42857142857143 117.88359788359789,51.640211640211646 118.51851851851853,51.640211640211646 119.15343915343917,51.851851851851855 119.7883597883598,51.851851851851855 120.42328042328043,51.851851851851855 121.05820105820106,52.06349206349207 121.6931216931217,52.06349206349207 122.32804232804234,52.27513227513228 122.96296296296298,52.27513227513228 123.59788359788361,52.27513227513228 124.23280423280424,52.27513227513228 124.86772486772487,52.48677248677249 125.5026455026455,52.48677248677249 126.13756613756615,52.48677248677249 126.77248677248679,52.48677248677249 127.40740740740742,52.48677248677249 128.04232804232805,52.48677248677249 128.67724867724868,52.48677248677249 129.31216931216932,52.6984126984127 129.94708994708995,52.6984126984127 130.58201058201058,52.6984126984127 131.21693121693121,52.6984126984127 131.85185185185185,52.6984126984127 132.4867724867725,52.6984126984127 133.12169312169314,52.6984126984127 133.75661375661377,52.6984126984127 134.3915343915344,52.6984126984127 135.02645502645504,52.6984126984127 135.66137566137567,52.6984126984127 136.2962962962963,52.91005291005291 136.93121693121694,52.6984126984127 137.56613756613757,52.6984126984127 138.2010582010582,52.6984126984127 138.83597883597884,52.6984126984127 139.47089947089947,52.6984126984127 140.10582010582013,52.6984126984127 140.74074074074076,52.6984126984127 141.3756613756614,52.6984126984127 142.01058201058203,52.6984126984127 142.64550264550266,52.6984126984127 143.2804232804233,52.6984126984127 143.91534391534393,52.6984126984127 144.55026455026456,52.6984126984127 145.1851851851852,52.48677248677249 145.82010582010582,52.48677248677249 146.45502645502646,52.48677248677249 147.0899470899471,52.48677248677249 147.72486772486775,52.27513227513228 148.35978835978838,52.27513227513228 148.99470899470901,52.06349206349207 149.62962962962965,52.06349206349207 150.26455026455028,52.06349206349207 150.8994708994709,52.06349206349207 151.53439153439155,51.851851851851855 152.16931216931218,51.851851851851855 152.8042328042328,51.851851851851855 153.43915343915344,51.851851851851855 154.07407407407408,51.851851851851855 154.7089947089947,51.851851851851855 155.34391534391534,51.640211640211646 155.978835978836,51.640211640211646 156.61375661375664,51.640211640211646 157.24867724867727,51.42857142857143 157.8835978835979,51.42857142857143 158.51851851851853,51.42857142857143 161.2698412698413,51.21693121693122" style="fill:none; stroke:#cc0000; stroke-width:1.0"  /><polyline points="161.2698412698413,51.21693121693122 161.05820105820106,55.02645502645503 161.05820105820106,55.661375661375665 160.84656084656086,56.2962962962963 160.84656084656086,56.93121693121694 160.63492063492066,57.56613756613757 160.63492063492066,58.2010582010582 160.63492063492066,58.83597883597884 160.42328042328043,59.470899470899475 160.42328042328043,60.10582010582011 160.42328042328043,60.74074074074075 160.42328042328043,61.37566137566138 160.42328042328043,62.01058201058201 160.42328042328043,62.64550264550265 160.42328042328043,63.280423280423285 160.42328042328043,63.91534391534392 160.42328042328043,64.55026455026456 160.63492063492066,65.18518518518519 160.63492063492066,65.82010582010582 160.63492063492066,66.45502645502646 160.84656084656086,67.08994708994709 160.84656084656086,67.72486772486774 161.05820105820106,68.35978835978837 161.2698412698413,68.994708994709 161.2698412698413,69.62962962962963 161.2698412698413,70.26455026455027 161.4814814814815,70.8994708994709 161.6931216931217,71.53439153439155 161.6931216931217,72.16931216931218 161.90476190476193,72.80423280423281 162.11640211640213,73.43915343915344 162.11640211640213,74.07407407407408 162.32804232804233,74.70899470899471 162.53968253968256,75.34391534391536 162.75132275132276,75.97883597883599 162.96296296296296,76.61375661375662 163.1746031746032,77.24867724867725 163.3862433862434,77.88359788359789 163.59788359788362,78.51851851851852 163.59788359788362,79.15343915343917 163.80952380952382,79.7883597883598 164.02116402116403,80.42328042328043 164.23280423280426,81.05820105820106 164.44444444444446,81.6931216931217 164.44444444444446,82.32804232804233 164.65608465608466,82.96296296296298 164.65608465608466,83.59788359788361 164.8677248677249,84.23280423280424 164.8677248677249,84.86772486772487 164.8677248677249,85.5026455026455 164.8677248677249,86.13756613756614 165.0793650793651,86.77248677248677 165.0793650793651,87.40740740740742 165.0793650793651,88.04232804232805 165.0793650793651,88.67724867724868 165.0793650793651,89.31216931216932 164.8677248677249,89.94708994708995 164.8677248677249,90.58201058201058 164.65608465608466,91.21693121693123 164.65608465608466,91.85185185185186 164.44444444444446,92.4867724867725 164.23280423280426,93.12169312169313 164.02116402116403,93.75661375661376 163.59788359788362,94.39153439153439 163.3862433862434,95.02645502645504 163.1746031746032,95.66137566137567 162.75132275132276,96.2962962962963 162.32804232804233,96.93121693121694 162.11640211640213,97.56613756613757 161.6931216931217,97.989417989418 161.2698412698413,98.62433862433863 160.84656084656086,99.04761904761905 160.21164021164023,99.47089947089948 159.5767195767196,99.8941798941799 158.94179894179896,100.10582010582011 158.30687830687833,100.31746031746033 157.67195767195767,100.52910052910053 157.03703703703704,100.52910052910053 156.4021164021164,100.52910052910053 155.76719576719577,100.52910052910053 155.13227513227514,100.31746031746033 154.4973544973545,100.10582010582011 153.86243386243387,100.10582010582011 153.22751322751324,99.8941798941799 152.5925925925926,99.47089947089948 151.95767195767198,99.25925925925927 151.32275132275134,98.83597883597885 150.8994708994709,98.41269841269842 150.47619047619048,97.989417989418 150.05291005291005,97.56613756613757 149.62962962962965,97.14285714285715 149.20634920634922,96.71957671957672 148.78306878306879,96.2962962962963 148.35978835978838,95.87301587301587 147.93650793650795,95.44973544973546 147.30158730158732,95.02645502645504 146.66666666666669,94.60317460317461 146.24338624338625,94.17989417989419 145.60846560846562,93.96825396825398 145.1851851851852,93.54497354497356 144.55026455026456,93.12169312169313 143.91534391534393,92.69841269841271 143.2804232804233,92.4867724867725 142.64550264550266,92.27513227513228 142.01058201058203,92.06349206349208 141.3756613756614,91.85185185185186 140.74074074074076,91.85185185185186 140.10582010582013,91.64021164021165 139.47089947089947,91.42857142857143 138.83597883597884,91.42857142857143 138.2010582010582,91.42857142857143 137.56613756613757,91.21693121693123 136.93121693121694,91.21693121693123 136.2962962962963,91.21693121693123 135.66137566137567,91.42857142857143 135.02645502645504,91.42857142857143 134.3915343915344,91.64021164021165 133.75661375661377,92.06349206349208 133.12169312169314,92.27513227513228 132.4867724867725,92.69841269841271 132.06349206349208,93.12169312169313 131.42857142857144,93.54497354497356 131.005291005291,93.96825396825398 130.58201058201058,94.39153439153439 130.15873015873018,94.81481481481482 129.73544973544975,95.44973544973546 129.31216931216932,95.87301587301587 128.88888888888889,96.50793650793652 128.46560846560848,96.93121693121694 128.04232804232805,97.56613756613757 127.61904761904763,98.2010582010582 127.1957671957672,98.83597883597885 126.98412698412699,99.47089947089948 126.56084656084657,100.10582010582011 126.34920634920636,100.74074074074075 125.92592592592594,101.37566137566138 125.71428571428572,102.01058201058201 125.5026455026455,102.64550264550266 125.2910052910053,103.28042328042329 124.86772486772487,103.91534391534393 124.65608465608466,104.55026455026456 124.44444444444446,105.18518518518519 124.44444444444446,105.82010582010582 124.23280423280424,106.45502645502647 124.02116402116403,107.0899470899471 123.80952380952382,107.72486772486774 123.80952380952382,108.35978835978837 123.59788359788361,108.994708994709 123.59788359788361,109.62962962962963 123.59788359788361,110.26455026455027 123.3862433862434,110.89947089947091 123.3862433862434,111.53439153439155 123.3862433862434,112.16931216931218 123.59788359788361,112.80423280423281 123.59788359788361,113.43915343915344 123.59788359788361,114.07407407407408 123.59788359788361,114.70899470899472 123.80952380952382,115.34391534391536 123.80952380952382,115.97883597883599 124.02116402116403,116.61375661375662 124.23280423280424,117.24867724867725 124.44444444444446,117.88359788359789 124.65608465608466,118.51851851851853 124.86772486772487,119.15343915343917 125.2910052910053,119.57671957671958 125.5026455026455,120.21164021164022 125.92592592592594,120.84656084656086 126.34920634920636,121.4814814814815 126.77248677248679,121.90476190476191 127.1957671957672,122.32804232804234 127.61904761904763,122.75132275132276 128.04232804232805,123.17460317460318 128.46560846560848,123.59788359788361 128.88888888888889,124.02116402116403 129.31216931216932,124.44444444444446 129.73544973544975,124.86772486772487 130.37037037037038,125.2910052910053 130.7936507936508,125.71428571428572 131.42857142857144,126.13756613756615 132.06349206349208,126.56084656084657 132.6984126984127,126.77248677248679 133.33333333333334,126.98412698412699 133.96825396825398,127.1957671957672 134.6031746031746,127.40740740740742 135.23809523809524,127.61904761904763 135.87301587301587,127.61904761904763 136.5079365079365,127.61904761904763 137.14285714285717,127.40740740740742 137.7777777777778,127.40740740740742 138.41269841269843,127.1957671957672 139.04761904761907,126.98412698412699 139.6825396825397,126.98412698412699 140.31746031746033,126.56084656084657 141.16402116402116,125.92592592592594 141.7989417989418,126.13756613756615 142.43386243386246,126.13756613756615 143.0687830687831,125.92592592592594 143.70370370370372,125.92592592592594 144.33862433862436,125.71428571428572 144.973544973545,125.71428571428572 145.60846560846562,125.71428571428572 146.24338624338625,125.71428571428572 146.8783068783069,125.71428571428572 147.51322751322752,125.92592592592594 148.14814814814815,125.92592592592594 148.78306878306879,125.92592592592594 149.41798941798942,126.13756613756615 150.05291005291005,126.34920634920636 150.6878306878307,126.77248677248679 151.32275132275134,126.98412698412699 151.74603174603175,127.40740740740742 152.38095238095238,127.83068783068784 152.8042328042328,128.25396825396825 153.22751322751324,128.88888888888889 153.43915343915344,129.52380952380955 153.86243386243387,130.15873015873018 154.07407407407408,130.7936507936508 154.2857142857143,131.42857142857144 154.4973544973545,132.06349206349208 154.7089947089947,132.6984126984127 154.7089947089947,133.33333333333334 154.92063492063494,133.96825396825398 154.92063492063494,134.6031746031746 155.13227513227514,135.23809523809524 155.34391534391534,135.87301587301587 155.34391534391534,136.5079365079365 155.55555555555557,137.14285714285717 155.76719576719577,137.7777777777778 155.76719576719577,138.41269841269843 155.76719576719577,139.04761904761907 155.76719576719577,139.6825396825397 155.978835978836,140.31746031746033 155.978835978836,140.95238095238096 155.978835978836,141.5873015873016 155.978835978836,142.22222222222223 155.978835978836,142.85714285714286 155.978835978836,143.4920634920635 155.978835978836,144.12698412698413 155.978835978836,144.76190476190476 155.978835978836,145.39682539682542 155.978835978836,146.03174603174605 155.978835978836,146.66666666666669 155.76719576719577,147.30158730158732 155.76719576719577,147.93650793650795 155.55555555555557,148.57142857142858 155.55555555555557,149.20634920634922 155.34391534391534,149.84126984126985 155.13227513227514,150.47619047619048 155.13227513227514,151.11111111111111 154.92063492063494,151.74603174603175 154.7089947089947,152.38095238095238 154.4973544973545,153.01587301587304 154.4973544973545,153.65079365079367 154.2857142857143,154.2857142857143 154.07407407407408,154.92063492063494 153.86243386243387,155.55555555555557 153.65079365079367,156.1904761904762 153.65079365079367,156.82539682539684 153.43915343915344,157.46031746031747 153.01587301587304,158.0952380952381 152.8042328042328,158.73015873015873 152.5925925925926,159.36507936507937 152.38095238095238,160.0 151.95767195767198,160.63492063492066 151.74603174603175,161.2698412698413 151.32275132275134,161.90476190476193 151.11111111111111,162.53968253968256 150.6878306878307,163.1746031746032 150.47619047619048,163.80952380952382 150.05291005291005,164.44444444444446 149.84126984126985,165.0793650793651 149.41798941798942,165.71428571428572 148.99470899470901,166.34920634920636 148.57142857142858,166.984126984127 148.35978835978838,167.61904761904762 147.93650793650795,168.25396825396825 146.03174603174605,171.64021164021165" style="fill:none; stroke:#999900; stroke-width:1.0"  /><polyline points="146.03174603174605,171.64021164021165 143.0687830687831,170.37037037037038 142.43386243386246,169.94708994708995 141.7989417989418,169.73544973544975 141.16402116402116,169.52380952380955 140.52910052910053,169.31216931216932 139.8941798941799,169.10052910052912 139.25925925925927,168.67724867724868 138.62433862433863,168.46560846560848 137.989417989418,168.04232804232805 137.35449735449737,167.83068783068785 136.71957671957674,167.61904761904762 136.0846560846561,167.19576719576722 135.44973544973547,166.984126984127 134.81481481481484,166.7724867724868 134.17989417989418,166.34920634920636 133.54497354497354,166.13756613756615 132.9100529100529,165.92592592592595 132.4867724867725,165.50264550264552 131.85185185185185,165.2910052910053 131.21693121693121,165.0793650793651 130.58201058201058,164.65608465608466 129.94708994708995,164.44444444444446 129.31216931216932,164.02116402116403 128.67724867724868,163.80952380952382 128.04232804232805,163.3862433862434 127.40740740740742,163.1746031746032 126.77248677248679,162.96296296296296 126.13756613756615,162.53968253968256 125.5026455026455,162.11640211640213 124.86772486772487,161.90476190476193 124.23280423280424,161.4814814814815 123.59788359788361,161.2698412698413 122.96296296296298,161.05820105820106 122.32804232804234,160.63492063492066 121.6931216931217,160.42328042328043 121.05820105820106,160.0 120.42328042328043,159.5767195767196 119.7883597883598,159.36507936507937 119.15343915343917,158.94179894179896 118.51851851851853,158.73015873015873 117.88359788359789,158.30687830687833 117.24867724867725,158.0952380952381 116.61375661375662,157.67195767195767 115.97883597883599,157.24867724867727 115.34391534391536,157.03703703703704 114.70899470899472,156.82539682539684 114.07407407407408,156.4021164021164 113.43915343915344,156.1904761904762 112.80423280423281,155.978835978836 112.16931216931218,155.76719576719577 111.53439153439155,155.34391534391534 110.89947089947091,154.92063492063494 110.26455026455027,154.7089947089947 109.62962962962963,154.2857142857143 108.994708994709,153.86243386243387 108.35978835978837,153.65079365079367 107.72486772486774,153.22751322751324 107.0899470899471,153.01587301587304 106.45502645502647,152.5925925925926 105.82010582010582,152.38095238095238 105.18518518518519,151.95767195767198 104.55026455026456,151.74603174603175 103.91534391534393,151.32275132275134 103.28042328042329,151.11111111111111 102.64550264550266,150.6878306878307 102.01058201058201,150.47619047619048 101.37566137566138,150.26455026455028 100.74074074074075,150.05291005291005 100.10582010582011,149.84126984126985 99.47089947089948,149.62962962962965 98.83597883597885,149.62962962962965 98.2010582010582,149.41798941798942 97.56613756613757,149.20634920634922 96.93121693121694,149.20634920634922 96.2962962962963,148.99470899470901 95.66137566137567,148.99470899470901 95.02645502645504,148.99470899470901 94.39153439153439,148.78306878306879 93.75661375661376,148.78306878306879 93.12169312169313,148.78306878306879 92.4867724867725,148.78306878306879 91.85185185185186,148.78306878306879 91.21693121693123,148.78306878306879 90.58201058201058,148.78306878306879 89.94708994708995,148.78306878306879 89.31216931216932,148.78306878306879 88.67724867724868,148.78306878306879 88.04232804232805,148.99470899470901 87.40740740740742,148.99470899470901 86.77248677248677,149.20634920634922 86.13756613756614,149.41798941798942 85.5026455026455,149.84126984126985 84.86772486772487,150.26455026455028 84.44444444444446,150.6878306878307 84.02116402116403,151.11111111111111 83.59788359788361,151.53439153439155 83.17460317460318,152.16931216931218 82.96296296296298,152.8042328042328 82.53968253968254,153.22751322751324 82.32804232804233,153.86243386243387 82.32804232804233,154.4973544973545 82.11640211640213,155.13227513227514 82.11640211640213,155.76719576719577 82.11640211640213,156.4021164021164 82.32804232804233,157.03703703703704 82.53968253968254,157.67195767195767 82.53968253968254,158.30687830687833 82.53968253968254,158.94179894179896 82.75132275132276,159.5767195767196 82.96296296296298,160.21164021164023 82.96296296296298,160.84656084656086 83.17460317460318,161.4814814814815 83.17460317460318,162.11640211640213 83.3862433862434,162.75132275132276 83.59788359788361,163.3862433862434 83.59788359788361,164.02116402116403 83.80952380952381,164.65608465608466 84.02116402116403,165.2910052910053 84.23280423280424,165.92592592592595 84.23280423280424,166.56084656084658 84.44444444444446,167.19576719576722 84.44444444444446,167.83068783068785 84.65608465608466,168.46560846560848 84.65608465608466,169.10052910052912 84.65608465608466,169.73544973544975 84.65608465608466,170.37037037037038 84.86772486772487,171.005291005291 84.86772486772487,171.64021164021165 84.86772486772487,172.27513227513228 84.86772486772487,172.9100529100529 84.86772486772487,173.54497354497354 84.65608465608466,174.1798941798942 84.65608465608466,174.81481481481484 84.65608465608466,175.44973544973547 84.44444444444446,176.0846560846561 84.44444444444446,176.71957671957674 84.23280423280424,177.35449735449737 84.23280423280424,177.989417989418 84.02116402116403,178.62433862433863 83.80952380952381,179.25925925925927 83.59788359788361,179.8941798941799 83.3862433862434,180.52910052910053 82.96296296296298,181.16402116402116 82.75132275132276,181.79894179894183 82.32804232804233,182.22222222222223 81.90476190476191,182.64550264550266 81.48148148148148,183.0687830687831 81.05820105820106,183.4920634920635 80.42328042328043,183.91534391534393 79.7883597883598,184.12698412698415 79.15343915343917,184.55026455026456 78.51851851851852,184.7619047619048 77.88359788359789,184.973544973545 77.46031746031747,185.39682539682542 76.82539682539684,185.39682539682542 76.19047619047619,185.60846560846562 75.55555555555556,185.82010582010582 74.92063492063492,185.82010582010582 74.28571428571429,185.82010582010582 73.65079365079366,185.82010582010582 73.01587301587303,185.82010582010582 72.38095238095238,185.82010582010582 71.74603174603175,185.82010582010582 71.11111111111111,185.60846560846562 70.47619047619048,185.60846560846562 69.84126984126985,185.60846560846562 69.20634920634922,185.39682539682542 68.57142857142858,185.39682539682542 67.93650793650794,185.1851851851852 67.3015873015873,184.973544973545 66.66666666666667,184.7619047619048 66.03174603174604,184.7619047619048 65.3968253968254,184.55026455026456 64.76190476190477,184.33862433862436 64.12698412698413,183.91534391534393 63.492063492063494,183.70370370370372 62.85714285714286,183.4920634920635 62.22222222222223,183.0687830687831 61.58730158730159,182.85714285714286 60.952380952380956,182.43386243386246 60.31746031746032,182.01058201058203 59.682539682539684,181.5873015873016 59.04761904761905,181.16402116402116 58.62433862433863,180.74074074074076 58.2010582010582,180.31746031746033 57.56613756613757,179.8941798941799 57.142857142857146,179.4708994708995 56.50793650793651,179.04761904761907 56.08465608465609,178.62433862433863 55.661375661375665,178.2010582010582 55.23809523809524,177.7777777777778 54.81481481481482,177.35449735449737 54.39153439153439,176.93121693121694 53.968253968253975,176.50793650793653 53.54497354497355,175.87301587301587 53.12169312169313,175.44973544973547 52.6984126984127,175.02645502645504 52.27513227513228,174.6031746031746 51.851851851851855,173.96825396825398 51.42857142857143,173.33333333333334 51.00529100529101,172.6984126984127 50.58201058201058,172.06349206349208 50.158730158730165,171.42857142857144 49.94708994708995,170.7936507936508 49.73544973544974,170.15873015873018 49.73544973544974,169.52380952380955 49.523809523809526,168.8888888888889 49.523809523809526,168.25396825396825 49.73544973544974,167.61904761904762 49.73544973544974,166.984126984127 49.94708994708995,166.34920634920636 50.158730158730165,165.71428571428572 50.370370370370374,165.0793650793651 50.58201058201058,164.44444444444446 51.00529100529101,163.80952380952382 51.21693121693122,163.1746031746032 51.640211640211646,162.53968253968256 52.06349206349207,161.90476190476193 52.48677248677249,161.2698412698413 52.91005291005291,160.84656084656086 53.333333333333336,160.21164021164023 53.75661375661376,159.7883597883598 54.179894179894184,159.36507936507937 54.81481481481482,158.94179894179896 55.23809523809524,158.51851851851853 55.661375661375665,158.0952380952381 56.2962962962963,157.67195767195767 56.71957671957672,157.24867724867727 57.35449735449736,157.03703703703704 57.777777777777786,156.61375661375664 58.2010582010582,156.1904761904762 58.62433862433863,155.76719576719577 59.25925925925927,155.34391534391534 59.682539682539684,154.92063492063494 60.31746031746032,154.4973544973545 60.952380952380956,154.07407407407408 61.37566137566138,153.65079365079367 61.798941798941804,153.22751322751324 62.43386243386244,153.01587301587304 62.85714285714286,152.5925925925926 63.280423280423285,152.16931216931218 63.70370370370371,151.74603174603175 64.12698412698413,151.32275132275134 64.55026455026456,150.8994708994709 64.97354497354497,150.47619047619048 65.3968253968254,149.84126984126985 65.82010582010582,149.20634920634922 66.03174603174604,148.57142857142858 66.24338624338625,147.93650793650795 66.45502645502646,147.30158730158732 66.45502645502646,146.66666666666669 66.45502645502646,146.03174603174605 66.45502645502646,145.39682539682542 66.45502645502646,144.76190476190476 66.24338624338625,144.12698412698413 66.03174603174604,143.4920634920635 65.60846560846561,143.0687830687831 65.18518518518519,142.64550264550266 64.76190476190477,142.22222222222223 64.33862433862434,141.7989417989418 63.91534391534392,141.3756613756614 63.280423280423285,140.95238095238096 62.64550264550265,140.52910052910053 62.01058201058201,140.31746031746033 61.37566137566138,139.8941798941799 60.74074074074075,139.6825396825397 60.10582010582011,139.47089947089947 59.470899470899475,139.25925925925927 58.83597883597884,139.04761904761907 58.2010582010582,139.04761904761907 57.56613756613757,138.83597883597884 56.93121693121694,138.62433862433863 56.2962962962963,138.41269841269843 55.661375661375665,138.2010582010582 55.02645502645503,138.2010582010582 54.39153439153439,137.989417989418 53.75661375661376,137.989417989418 53.12169312169313,137.7777777777778 52.48677248677249,137.7777777777778 51.851851851851855,137.7777777777778 51.21693121693122,137.7777777777778 50.58201058201058,137.7777777777778 49.94708994708995,137.7777777777778 49.31216931216932,137.7777777777778 48.677248677248684,137.7777777777778 48.042328042328045,137.7777777777778 47.40740740740741,137.7777777777778 46.77248677248678,137.7777777777778 46.13756613756614,137.989417989418 45.50264550264551,137.989417989418 44.867724867724874,137.989417989418 44.232804232804234,138.2010582010582 43.5978835978836,138.2010582010582 42.96296296296297,138.2010582010582 42.32804232804233,138.62433862433863 41.6931216931217,138.62433862433863 41.058201058201064,138.83597883597884 40.423280423280424,139.04761904761907 39.78835978835979,139.04761904761907 39.15343915343916,139.25925925925927 38.51851851851852,139.47089947089947 37.883597883597886,139.47089947089947 37.248677248677254,139.6825396825397 36.613756613756614,139.8941798941799 35.97883597883598,140.10582010582013 35.34391534391535,140.31746031746033 34.70899470899471,140.52910052910053 34.074074074074076,140.74074074074076 33.43915343915344,140.95238095238096 32.804232804232804,141.16402116402116 32.16931216931217,141.5873015873016 31.53439153439154,141.7989417989418 30.899470899470902,142.01058201058203 30.264550264550266,142.22222222222223 29.629629629629633,142.64550264550266 28.994708994708997,142.85714285714286 28.35978835978836,143.2804232804233 27.724867724867728,143.4920634920635 27.089947089947092,143.70370370370372 26.455026455026456,144.12698412698413 25.820105820105823,144.33862433862436 25.185185185185187,144.76190476190476 24.55026455026455,144.973544973545 23.915343915343918,145.1851851851852 23.280423280423282,145.60846560846562 22.645502645502646,145.82010582010582 22.010582010582013,146.24338624338625 21.375661375661377,146.45502645502646 20.740740740740744,146.66666666666669 20.31746031746032,147.0899470899471 19.682539682539684,147.30158730158732 19.047619047619047,147.72486772486775 18.412698412698415,147.93650793650795 17.77777777777778,148.14814814814815 17.142857142857146,148.57142857142858 16.50793650793651,148.78306878306879 15.873015873015873,149.20634920634922 15.238095238095239,149.62962962962965 14.603174603174605,149.84126984126985 13.96825396825397,150.26455026455028 13.333333333333334,150.47619047619048 12.6984126984127,150.8994708994709 12.063492063492065,151.11111111111111 11.428571428571429,151.53439153439155 10.793650793650794,151.95767195767198 10.15873015873016,152.16931216931218 9.523809523809524,152.5925925925926 8.88888888888889,153.01587301587304 8.253968253968255,153.43915343915344 7.830687830687832,153.86243386243387 7.195767195767196,154.2857142857143 6.560846560846561,154.4973544973545 5.9259259259259265,154.92063492063494 2.3280423280423284,157.03703703703704" style="fill:none; stroke:#00aa99; stroke-width:1.0"  /><polyline points="2.3280423280423284,157.03703703703704 1.6931216931216932,153.01587301587304 1.4814814814814816,152.38095238095238 1.26984126984127,151.74603174603175 1.26984126984127,151.11111111111111 1.0582010582010584,150.47619047619048 1.0582010582010584,149.84126984126985 0.8465608465608466,149.20634920634922 0.8465608465608466,148.57142857142858 0.634920634920635,147.93650793650795 0.634920634920635,147.30158730158732 0.4232804232804233,146.66666666666669 0.4232804232804233,146.03174603174605 0.4232804232804233,145.39682539682542 0.4232804232804233,144.76190476190476 0.21164021164021166,144.12698412698413 0.21164021164021166,143.4920634920635 0.21164021164021166,142.85714285714286 0.21164021164021166,142.22222222222223 0.21164021164021166,141.5873015873016 0.21164021164021166,140.95238095238096 0.21164021164021166,140.31746031746033 0.21164021164021166,139.6825396825397 0.21164021164021166,139.04761904761907 0.21164021164021166,138.41269841269843 0.21164021164021166,137.7777777777778 0.21164021164021166,137.14285714285717 0.21164021164021166,136.5079365079365 0.21164021164021166,135.87301587301587 0.4232804232804233,135.23809523809524 0.4232804232804233,134.6031746031746 0.634920634920635,133.96825396825398 0.634920634920635,133.33333333333334 0.634920634920635,132.6984126984127 0.634920634920635,132.06349206349208 0.634920634920635,131.42857142857144 0.8465608465608466,130.7936507936508 1.0582010582010584,130.15873015873018 1.0582010582010584,129.52380952380955 1.26984126984127,128.88888888888889 1.26984126984127,128.25396825396825 1.4814814814814816,127.61904761904763 1.4814814814814816,126.98412698412699 1.6931216931216932,126.34920634920636 1.9047619047619049,125.71428571428572 1.9047619047619049,125.07936507936509 2.1164021164021167,124.44444444444446 2.3280423280423284,123.80952380952382 2.3280423280423284,123.17460317460318 2.53968253968254,122.53968253968254 2.53968253968254,121.90476190476191 2.7513227513227516,121.26984126984128 2.9629629629629632,120.63492063492065 2.9629629629629632,120.00000000000001 3.174603174603175,119.36507936507937 3.3862433862433865,118.73015873015873 3.597883597883598,118.0952380952381 3.8095238095238098,117.46031746031747 4.021164021164021,116.82539682539684 4.2328042328042335,116.1904761904762 4.444444444444445,115.55555555555557 4.656084656084657,114.92063492063492 5.07936507936508,114.28571428571429 5.291005291005291,113.65079365079366 5.714285714285714,113.22751322751324 6.137566137566138,112.80423280423281 6.560846560846561,112.3809523809524 6.984126984126985,111.95767195767196 7.6190476190476195,111.74603174603176 8.042328042328043,111.32275132275133 8.677248677248677,111.11111111111111 9.312169312169313,111.11111111111111 9.947089947089948,110.89947089947091 10.582010582010582,110.89947089947091 11.216931216931219,111.11111111111111 11.851851851851853,111.11111111111111 12.486772486772487,111.11111111111111 13.121693121693122,111.32275132275133 13.756613756613758,111.53439153439155 14.391534391534393,111.95767195767196 15.026455026455027,112.16931216931218 15.661375661375663,112.5925925925926 16.084656084656086,113.01587301587303 16.71957671957672,113.43915343915344 17.142857142857146,113.86243386243387 17.566137566137566,114.28571428571429 17.98941798941799,114.70899470899472 18.412698412698415,115.13227513227514 18.83597883597884,115.76719576719577 19.25925925925926,116.1904761904762 19.682539682539684,116.61375661375662 20.105820105820108,117.03703703703705 20.529100529100532,117.46031746031747 20.952380952380953,117.88359788359789 21.375661375661377,118.30687830687832 21.7989417989418,118.73015873015873 22.222222222222225,119.15343915343917 22.645502645502646,119.57671957671958 23.280423280423282,120.00000000000001 23.915343915343918,120.42328042328043 24.55026455026455,120.84656084656086 25.185185185185187,121.05820105820106 25.820105820105823,121.4814814814815 26.455026455026456,121.6931216931217 27.089947089947092,121.90476190476191 27.724867724867728,122.11640211640213 28.35978835978836,122.11640211640213 28.994708994708997,122.32804232804234 29.629629629629633,122.53968253968254 30.264550264550266,122.53968253968254 30.899470899470902,122.53968253968254 31.53439153439154,122.53968253968254 32.16931216931217,122.53968253968254 32.804232804232804,122.53968253968254 33.43915343915344,122.53968253968254 34.074074074074076,122.32804232804234 34.70899470899471,122.11640211640213 35.34391534391535,121.90476190476191 35.97883597883598,121.4814814814815 36.613756613756614,121.4814814814815 37.248677248677254,121.26984126984128 37.883597883597886,120.84656084656086 38.51851851851852,120.63492063492065 38.94179894179894,120.21164021164022 39.57671957671958,119.7883597883598 40.211640211640216,119.36507936507937 40.84656084656085,118.94179894179895 41.26984126984127,118.51851851851853 41.6931216931217,118.0952380952381 42.11640211640212,117.67195767195768 42.539682539682545,117.24867724867725 42.96296296296297,116.61375661375662 43.386243386243386,116.1904761904762 43.80952380952381,115.55555555555557 44.44444444444445,115.13227513227514 44.867724867724874,114.70899470899472 45.29100529100529,114.28571428571429 45.714285714285715,113.86243386243387 46.13756613756614,113.01587301587303 46.560846560846564,112.5925925925926 46.98412698412699,112.16931216931218 47.195767195767196,111.53439153439155 47.61904761904762,110.89947089947091 48.042328042328045,110.26455026455027 48.25396825396826,109.62962962962963 48.677248677248684,108.994708994709 48.88888888888889,108.35978835978837 49.1005291005291,107.72486772486774 49.31216931216932,107.0899470899471 49.523809523809526,106.45502645502647 49.73544973544974,105.82010582010582 49.73544973544974,105.18518518518519 49.94708994708995,104.55026455026456 50.158730158730165,103.91534391534393 50.158730158730165,103.28042328042329 50.370370370370374,102.64550264550266 50.370370370370374,102.01058201058201 50.58201058201058,101.37566137566138 50.58201058201058,100.74074074074075 50.58201058201058,100.10582010582011 50.58201058201058,99.47089947089948 50.58201058201058,98.83597883597885 50.58201058201058,98.2010582010582 50.58201058201058,97.56613756613757 50.58201058201058,96.93121693121694 50.370370370370374,96.2962962962963 50.370370370370374,95.66137566137567 50.370370370370374,95.02645502645504 50.158730158730165,94.39153439153439 50.158730158730165,93.75661375661376 49.94708994708995,93.12169312169313 49.73544973544974,92.4867724867725 49.523809523809526,91.85185185185186 49.31216931216932,91.21693121693123 49.1005291005291,90.58201058201058 48.88888888888889,89.94708994708995 48.46560846560847,89.31216931216932 48.042328042328045,88.67724867724868 47.61904761904762,88.04232804232805 47.195767195767196,87.40740740740742 46.77248677248678,86.98412698412699 46.349206349206355,86.56084656084657 45.92592592592593,86.13756613756614 45.50264550264551,85.71428571428572 45.07936507936508,85.29100529100529 44.65608465608466,84.86772486772487 44.021164021164026,84.44444444444446 43.5978835978836,84.02116402116403 43.17460317460318,83.59788359788361 42.75132275132275,83.17460317460318 42.11640211640212,83.17460317460318 41.48148148148149,82.75132275132276 40.84656084656085,82.53968253968254 40.423280423280424,82.11640211640213 39.78835978835979,81.90476190476191 39.15343915343916,81.90476190476191 38.51851851851852,81.6931216931217 37.883597883597886,81.48148148148148 37.248677248677254,81.48148148148148 36.613756613756614,81.26984126984128 35.97883597883598,81.26984126984128 35.34391534391535,81.26984126984128 34.70899470899471,81.26984126984128 34.074074074074076,81.26984126984128 33.43915343915344,81.26984126984128 32.804232804232804,81.48148148148148 32.16931216931217,81.48148148148148 31.53439153439154,81.6931216931217 30.899470899470902,81.6931216931217 30.264550264550266,81.90476190476191 29.629629629629633,82.11640211640213 28.994708994708997,82.11640211640213 28.35978835978836,82.32804232804233 27.724867724867728,82.53968253968254 27.089947089947092,82.96296296296298 26.455026455026456,83.17460317460318 25.820105820105823,83.3862433862434 25.185185185185187,83.59788359788361 24.55026455026455,83.80952380952381 23.915343915343918,84.02116402116403 23.280423280423282,84.44444444444446 22.645502645502646,84.65608465608466 22.010582010582013,84.86772486772487 21.375661375661377,85.07936507936509 20.740740740740744,85.5026455026455 20.105820105820108,85.71428571428572 19.47089947089947,85.92592592592594 18.83597883597884,86.13756613756614 18.201058201058203,86.34920634920636 17.566137566137566,86.56084656084657 16.931216931216934,86.56084656084657 16.296296296296298,86.56084656084657 15.661375661375663,86.56084656084657 15.026455026455027,86.34920634920636 14.391534391534393,86.13756613756614 13.756613756613758,85.92592592592594 13.121693121693122,85.5026455026455 12.6984126984127,85.07936507936509 12.063492063492065,84.65608465608466 11.640211640211641,84.02116402116403 11.216931216931219,83.59788359788361 10.793650793650794,82.96296296296298 10.582010582010582,82.32804232804233 10.370370370370372,81.6931216931217 10.15873015873016,81.05820105820106 9.947089947089948,80.42328042328043 9.735449735449736,79.7883597883598 9.735449735449736,79.15343915343917 9.523809523809524,78.51851851851852 9.523809523809524,77.88359788359789 9.312169312169313,77.24867724867725 9.312169312169313,76.61375661375662 9.312169312169313,75.97883597883599 9.100529100529101,75.34391534391536 9.100529100529101,74.70899470899471 8.88888888888889,74.07407407407408 8.88888888888889,73.43915343915344 8.88888888888889,72.80423280423281 8.677248677248677,72.16931216931218 8.677248677248677,71.53439153439155 8.677248677248677,70.8994708994709 8.465608465608467,70.26455026455027 8.465608465608467,69.62962962962963 8.253968253968255,68.994708994709 8.253968253968255,68.35978835978837 8.253968253968255,67.72486772486774 8.042328042328043,67.08994708994709 8.042328042328043,66.45502645502646 8.042328042328043,65.82010582010582 7.830687830687832,65.18518518518519 7.830687830687832,64.55026455026456 7.830687830687832,63.91534391534392 7.6190476190476195,63.280423280423285 7.6190476190476195,62.64550264550265 7.6190476190476195,62.01058201058201 7.6190476190476195,61.37566137566138 7.407407407407408,60.74074074074075 7.407407407407408,60.10582010582011 7.407407407407408,59.470899470899475 7.195767195767196,58.83597883597884 7.195767195767196,58.2010582010582 7.195767195767196,57.56613756613757 7.195767195767196,56.93121693121694 6.984126984126985,56.2962962962963 6.984126984126985,55.661375661375665 6.984126984126985,55.02645502645503 6.984126984126985,54.39153439153439 6.984126984126985,53.75661375661376 6.772486772486773,53.12169312169313 6.772486772486773,52.48677248677249 6.560846560846561,51.851851851851855 6.560846560846561,51.21693121693122 6.560846560846561,50.58201058201058 6.34920634920635,49.94708994708995 6.34920634920635,49.31216931216932 6.34920634920635,48.677248677248684 6.34920634920635,48.042328042328045 6.34920634920635,47.40740740740741 6.137566137566138,46.77248677248678 6.137566137566138,46.13756613756614 6.137566137566138,45.50264550264551 6.137566137566138,44.867724867724874 6.137566137566138,44.232804232804234 6.137566137566138,43.5978835978836 6.137566137566138,42.96296296296297 5.9259259259259265,42.32804232804233 5.9259259259259265,41.6931216931217 5.9259259259259265,41.058201058201064 5.9259259259259265,40.423280423280424 5.9259259259259265,39.78835978835979 5.714285714285714,36.19047619047619" style="fill:none; stroke:#3300bb; stroke-width:1.0"  /><circle cx="5.714285714285714" cy="36.19047619047619" r="2.0" style="fill:none; stroke:#000000aa; stroke-width:0.25" /><circle cx="161.2698412698413" cy="51.21693121693122" r="2.0" style="fill:none; stroke:#000000aa; stroke-width:0.25" /><circle cx="146.03174603174605" cy="171.64021164021165" r="2.0" style="fill:none; stroke:#000000aa; stroke-width:0.25" /><circle cx="2.3280423280423284" cy="157.03703703703704" r="2.0" style="fill:none; stroke:#000000aa; stroke-width:0.25" /><circle cx="6.137566137566138" cy="36.613756613756614" r="2.0" style="fill:none; stroke:#ff3366aa; stroke-width:0.25" /><circle cx="161.6931216931217" cy="51.851851851851855" r="2.0" style="fill:none; stroke:#ff3366aa; stroke-width:0.25" /><circle cx="146.24338624338625" cy="171.21693121693124" r="2.0" style="fill:none; stroke:#ff3366aa; stroke-width:0.25" /><circle cx="2.53968253968254" cy="156.1904761904762" r="2.0" style="fill:none; stroke:#ff3366aa; stroke-width:0.25" /><polyline points="17.98941798941799,36.402116402116405 17.354497354497354,36.402116402116405 16.71957671957672,36.402116402116405 16.084656084656086,36.402116402116405 15.449735449735451,36.402116402116405 14.814814814814817,36.402116402116405 14.17989417989418,36.402116402116405 13.544973544973546,36.402116402116405 12.910052910052912,36.402116402116405 12.275132275132275,36.402116402116405 11.640211640211641,36.402116402116405 11.005291005291006,36.402116402116405 10.370370370370372,36.402116402116405 9.735449735449736,36.402116402116405 9.100529100529101,36.19047619047619" style="fill:none; stroke:#001100; stroke-width:1.0" /><polyline points="6.34920634920635,48.042328042328045 6.34920634920635,47.40740740740741 6.137566137566138,46.77248677248678 6.137566137566138,46.13756613756614 6.137566137566138,45.50264550264551 6.137566137566138,44.867724867724874 6.137566137566138,44.232804232804234 6.137566137566138,43.5978835978836 6.137566137566138,42.96296296296297 5.9259259259259265,42.32804232804233 5.9259259259259265,41.6931216931217 5.9259259259259265,41.058201058201064 5.9259259259259265,40.423280423280424 5.9259259259259265,39.78835978835979" style="fill:none; stroke:#000011; stroke-width:1.0" /><polyline points="160.42328042328043,63.280423280423285 160.42328042328043,62.64550264550265 160.42328042328043,62.01058201058201 160.42328042328043,61.37566137566138 160.42328042328043,60.74074074074075 160.42328042328043,60.10582010582011 160.42328042328043,59.470899470899475 160.63492063492066,58.83597883597884 160.63492063492066,58.2010582010582 160.63492063492066,57.56613756613757 160.84656084656086,56.93121693121694 160.84656084656086,56.2962962962963 161.05820105820106,55.661375661375665 161.05820105820106,55.02645502645503" style="fill:none; stroke:#001100; stroke-width:1.0" /><polyline points="150.26455026455028,52.06349206349207 150.8994708994709,52.06349206349207 151.53439153439155,51.851851851851855 152.16931216931218,51.851851851851855 152.8042328042328,51.851851851851855 153.43915343915344,51.851851851851855 154.07407407407408,51.851851851851855 154.7089947089947,51.851851851851855 155.34391534391534,51.640211640211646 155.978835978836,51.640211640211646 156.61375661375664,51.640211640211646 157.24867724867727,51.42857142857143 157.8835978835979,51.42857142857143 158.51851851851853,51.42857142857143" style="fill:none; stroke:#000011; stroke-width:1.0" /><polyline points="135.44973544973547,166.984126984127 136.0846560846561,167.19576719576722 136.71957671957674,167.61904761904762 137.35449735449737,167.83068783068785 137.989417989418,168.04232804232805 138.62433862433863,168.46560846560848 139.25925925925927,168.67724867724868 139.8941798941799,169.10052910052912 140.52910052910053,169.31216931216932 141.16402116402116,169.52380952380955 141.7989417989418,169.73544973544975 142.43386243386246,169.94708994708995 143.0687830687831,170.37037037037038" style="fill:none; stroke:#001100; stroke-width:1.0" /><polyline points="151.95767195767198,160.63492063492066 151.74603174603175,161.2698412698413 151.32275132275134,161.90476190476193 151.11111111111111,162.53968253968256 150.6878306878307,163.1746031746032 150.47619047619048,163.80952380952382 150.05291005291005,164.44444444444446 149.84126984126985,165.0793650793651 149.41798941798942,165.71428571428572 148.99470899470901,166.34920634920636 148.57142857142858,166.984126984127 148.35978835978838,167.61904761904762 147.93650793650795,168.25396825396825" style="fill:none; stroke:#000011; stroke-width:1.0" /><polyline points="0.4232804232804233,144.76190476190476 0.4232804232804233,145.39682539682542 0.4232804232804233,146.03174603174605 0.4232804232804233,146.66666666666669 0.634920634920635,147.30158730158732 0.634920634920635,147.93650793650795 0.8465608465608466,148.57142857142858 0.8465608465608466,149.20634920634922 1.0582010582010584,149.84126984126985 1.0582010582010584,150.47619047619048 1.26984126984127,151.11111111111111 1.26984126984127,151.74603174603175 1.4814814814814816,152.38095238095238 1.6931216931216932,153.01587301587304" style="fill:none; stroke:#001100; stroke-width:1.0" /><polyline points="12.6984126984127,150.8994708994709 12.063492063492065,151.11111111111111 11.428571428571429,151.53439153439155 10.793650793650794,151.95767195767198 10.15873015873016,152.16931216931218 9.523809523809524,152.5925925925926 8.88888888888889,153.01587301587304 8.253968253968255,153.43915343915344 7.830687830687832,153.86243386243387 7.195767195767196,154.2857142857143 6.560846560846561,154.4973544973545 5.9259259259259265,154.92063492063494" style="fill:none; stroke:#000011; stroke-width:1.0" /><polyline points="9.100529100529101,36.19047619047619 -12.063492063492065,35.76719576719577" style="fill:none; stroke:#ffaa00; stroke-width:0.4" /><polyline points="5.9259259259259265,39.78835978835979 4.867724867724868,18.624338624338627" style="fill:none; stroke:#aaff00; stroke-width:0.4" /><polyline points="161.05820105820106,55.02645502645503 162.75132275132276,33.86243386243387" style="fill:none; stroke:#ffaa00; stroke-width:0.4" /><polyline points="158.51851851851853,51.42857142857143 179.6825396825397,49.73544973544974" style="fill:none; stroke:#aaff00; stroke-width:0.4" /><polyline points="143.0687830687831,170.37037037037038 162.32804232804233,179.04761904761907" style="fill:none; stroke:#ffaa00; stroke-width:0.4" /><polyline points="147.93650793650795,168.25396825396825 137.989417989418,186.8783068783069" style="fill:none; stroke:#aaff00; stroke-width:0.4" /><polyline points="1.6931216931216932,153.01587301587304 4.867724867724868,173.96825396825398" style="fill:none; stroke:#ffaa00; stroke-width:0.4" /><polyline points="5.9259259259259265,154.92063492063494 -12.275132275132275,165.71428571428572" style="fill:none; stroke:#aaff00; stroke-width:0.4" /><circle cx="82.32804232804233" cy="95.44973544973546" r="1.0" style="fill:#444444; stroke-width:0" /><circle cx="88.25396825396827" cy="84.65608465608466" r="10.582010582010582" style="fill:#ff770022; stroke-width:0" /><circle cx="88.25396825396827" cy="84.65608465608466" r="1.0" style="fill:#ff7700; stroke-width:0" /></svg>