<?xml version="1.0" encoding="UTF-8" standalone="no"?><svg width="575.2380952380953" height="640.0" viewBox="-10 -10 211.74603174603175 233.33333333333334" xmlns="http://www.w3.org/2000/svg" xmlns:xlink="http://www.w3.org/1999/xlink"><polyline points="15.238095238095239,45.50264550264551 19.047619047619047,46.560846560846564 19.682539682539684,46.77248677248678 20.31746031746032,46.98412698412699 20.952380952380953,47.195767195767196 21.58730158730159,47.40740740740741 22.222222222222225,47.40740740740741 22.857142857142858,47.61904761904762 23.492063492063494,47.830687830687836 24.12698412698413,48.042328042328045 24.761904761904763,48.25396825396826 25.3968253968254,48.46560846560847 26.031746031746035,48.677248677248684 26.666666666666668,48.88888888888889 27.301587301587304,49.1005291005291 27.93650793650794,49.31216931216932 28.571428571428573,49.523809523809526 29.20634920634921,49.73544973544974 29.841269841269842,49.94708994708995 30.476190476190478,49.94708994708995 30.899470899470902,50.370370370370374 31.53439153439154,50.58201058201058 32.16931216931217,50.7936507936508 32.804232804232804,51.00529100529101 33.43915343915344,51.21693121693122 34.074074074074076,51.42857142857143 34.70899470899471,51.640211640211646 35.34391534391535,51.640211640211646 35.97883597883598,51.851851851851855 36.613756613756614,52.06349206349207 37.248677248677254,52.27513227513228 37.883597883597886,52.48677248677249 38.51851851851852,52.48677248677249 39.15343915343916,52.6984126984127 39.78835978835979,52.6984126984127 40.423280423280424,52.6984126984127 41.058201058201064,52.91005291005291 41.6931216931217,52.91005291005291 42.32804232804233,53.12169312169313 42.96296296296297,53.12169312169313 43.5978835978836,53.333333333333336 44.232804232804234,53.54497354497355 44.867724867724874,53.333333333333336 45.50264550264551,53.54497354497355 46.13756613756614,53.75661375661376 46.77248677248678,53.968253968253975 47.40740740740741,53.968253968253975 48.042328042328045,53.968253968253975 48.677248677248684,53.968253968253975 49.31216931216932,53.968253968253975 49.94708994708995,54.179894179894184 50.58201058201058,54.39153439153439 51.21693121693122,54.39153439153439 51.851851851851855,54.39153439153439 52.48677248677249,54.39153439153439 53.12169312169313,54.39153439153439 53.75661375661376,54.39153439153439 54.39153439153439,54.39153439153439 55.02645502645503,54.39153439153439 55.661375661375665,54.39153439153439 56.2962962962963,54.39153439153439 56.93121693121694,54.39153439153439 57.56613756613757,54.179894179894184 58.2010582010582,53.968253968253975 58.83597883597884,54.179894179894184 59.470899470899475,53.968253968253975 60.10582010582011,53.54497354497355 60.74074074074075,53.333333333333336 61.37566137566138,53.12169312169313 61.798941798941804,52.6984126984127 62.22222222222223,52.27513227513228 62.64550264550265,51.640211640211646 63.280423280423285,51.21693121693122 63.492063492063494,50.58201058201058 63.70370370370371,49.94708994708995 64.12698412698413,49.31216931216932 64.12698412698413,48.677248677248684 64.12698412698413,48.042328042328045 64.12698412698413,47.40740740740741 63.91534391534392,46.77248677248678 63.91534391534392,46.13756613756614 63.70370370370371,45.50264550264551 63.492063492063494,44.867724867724874 63.06878306878308,44.232804232804234 62.85714285714286,43.5978835978836 62.43386243386244,42.96296296296297 62.01058201058201,42.32804232804233 61.58730158730159,41.904761904761905 61.16402116402117,41.48148148148149 60.74074074074075,41.058201058201064 60.10582010582011,40.63492063492064 59.682539682539684,40.211640211640216 59.04761904761905,40.0 58.41269841269842,39.57671957671958 57.989417989417994,39.15343915343916 57.35449735449736,38.94179894179894 56.71957671957672,38.51851851851852 56.08465608465609,38.30687830687831 55.449735449735456,38.095238095238095 54.81481481481482,37.67195767195768 54.179894179894184,37.46031746031746 53.54497354497355,37.248677248677254 52.91005291005291,36.82539682539683 52.27513227513228,36.613756613756614 51.640211640211646,36.19047619047619 51.00529100529101,35.97883597883598 50.58201058201058,35.55555555555556 49.94708994708995,35.13227513227513 49.523809523809526,34.70899470899471 49.1005291005291,34.28571428571429 48.677248677248684,33.86243386243387 48.25396825396826,33.22751322751323 47.830687830687836,32.592592592592595 47.40740740740741,32.16931216931217 47.195767195767196,31.53439153439154 46.77248677248678,30.899470899470902 46.560846560846564,30.264550264550266 46.349206349206355,29.629629629629633 46.349206349206355,28.994708994708997 46.13756613756614,28.35978835978836 46.13756613756614,27.724867724867728 45.92592592592593,27.089947089947092 45.92592592592593,26.455026455026456 45.92592592592593,25.820105820105823 45.92592592592593,25.185185185185187 45.714285714285715,24.55026455026455 45.714285714285715,23.915343915343918 45.92592592592593,23.280423280423282 45.92592592592593,22.645502645502646 45.92592592592593,22.010582010582013 45.92592592592593,21.375661375661377 46.13756613756614,20.740740740740744 46.349206349206355,20.105820105820108 46.349206349206355,19.47089947089947 46.560846560846564,18.83597883597884 46.77248677248678,18.201058201058203 46.77248677248678,17.566137566137566 46.98412698412699,16.931216931216934 47.40740740740741,16.296296296296298 47.61904761904762,15.661375661375663 47.830687830687836,15.026455026455027 48.042328042328045,14.391534391534393 48.46560846560847,13.756613756613758 48.677248677248684,13.121693121693122 49.1005291005291,12.6984126984127 49.31216931216932,12.063492063492065 49.73544973544974,11.640211640211641 50.158730158730165,11.005291005291006 50.58201058201058,10.370370370370372 51.00529100529101,9.735449735449736 51.42857142857143,9.100529100529101 51.851851851851855,8.465608465608467 52.27513227513228,8.042328042328043 52.6984126984127,7.407407407407408 53.12169312169313,6.984126984126985 53.54497354497355,6.560846560846561 53.968253968253975,6.137566137566138 54.39153439153439,5.714285714285714 54.81481481481482,5.07936507936508 55.449735449735456,4.656084656084657 55.87301587301588,4.2328042328042335 56.2962962962963,3.8095238095238098 56.71957671957672,3.3862433862433865 57.35449735449736,2.9629629629629632 57.989417989417994,2.53968253968254 58.62433862433863,2.1164021164021167 59.25925925925927,1.9047619047619049 59.8941798941799,1.4814814814814816 60.52910052910053,1.26984126984127 61.16402116402117,1.0582010582010584 61.798941798941804,0.8465608465608466 62.43386243386244,0.634920634920635 63.06878306878308,0.634920634920635 63.70370370370371,0.4232804232804233 64.33862433862434,0.4232804232804233 64.97354497354497,0.21164021164021166 65.60846560846561,0.21164021164021166 66.24338624338625,0.21164021164021166 66.87830687830689,0.21164021164021166 67.51322751322752,0.21164021164021166 68.14814814814815,0.21164021164021166 68.78306878306879,0.21164021164021166 69.41798941798942,0.21164021164021166 70.05291005291006,0.21164021164021166 70.6878306878307,0.21164021164021166 71.32275132275133,0.21164021164021166 71.95767195767196,0.21164021164021166 72.5925925925926,0.21164021164021166 73.22751322751323,0.4232804232804233 73.86243386243387,0.634920634920635 74.49735449735451,0.634920634920635 75.13227513227514,0.634920634920635 75.76719576719577,0.634920634920635 76.4021164021164,1.0582010582010584 77.03703703703704,1.0582010582010584 77.46031746031747,1.4814814814814816 78.0952380952381,1.4814814814814816 78.73015873015873,1.9047619047619049 79.36507936507937,2.1164021164021167 80.0,2.3280423280423284 80.63492063492065,2.7513227513227516 81.26984126984128,2.9629629629629632 81.90476190476191,3.3862433862433865 82.53968253968254,3.8095238095238098 83.17460317460318,4.2328042328042335 83.80952380952381,4.656084656084657 84.44444444444446,5.07936507936508 85.07936507936509,5.291005291005291 85.5026455026455,5.714285714285714 86.13756613756614,6.137566137566138 86.77248677248677,6.560846560846561 87.40740740740742,6.984126984126985 88.04232804232805,7.407407407407408 88.67724867724868,7.830687830687832 89.31216931216932,8.253968253968255 89.73544973544975,8.677248677248677 90.15873015873017,9.100529100529101 90.58201058201058,9.523809523809524 91.00529100529101,9.947089947089948 91.42857142857143,10.582010582010582 91.85185185185186,11.216931216931219 92.06349206349208,11.851851851851853 92.27513227513228,12.486772486772487 92.4867724867725,13.121693121693122 92.69841269841271,13.756613756613758 92.91005291005291,14.391534391534393 92.91005291005291,15.026455026455027 92.91005291005291,15.661375661375663 92.91005291005291,16.296296296296298 92.91005291005291,16.931216931216934 92.91005291005291,17.566137566137566 92.69841269841271,18.201058201058203 92.69841269841271,18.83597883597884 92.4867724867725,19.47089947089947 92.4867724867725,20.105820105820108 92.27513227513228,20.740740740740744 92.06349206349208,21.375661375661377 91.85185185185186,22.010582010582013 91.64021164021165,22.645502645502646 91.42857142857143,23.280423280423282 91.21693121693123,23.915343915343918 91.21693121693123,24.55026455026455 91.00529100529101,25.185185185185187 91.00529100529101,25.820105820105823 90.7936507936508,26.455026455026456 90.7936507936508,27.089947089947092 90.58201058201058,27.724867724867728 90.58201058201058,28.35978835978836 90.58201058201058,28.994708994708997 90.58201058201058,29.629629629629633 90.58201058201058,30.264550264550266 90.58201058201058,30.899470899470902 90.7936507936508,31.53439153439154 90.7936507936508,32.16931216931217 91.00529100529101,32.804232804232804 91.21693121693123,33.43915343915344 91.64021164021165,33.86243386243387 92.06349206349208,34.28571428571429 92.4867724867725,34.70899470899471 92.91005291005291,35.34391534391535 93.54497354497356,35.76719576719577 93.96825396825398,36.19047619047619 94.60317460317461,36.402116402116405 95.23809523809524,36.82539682539683 95.87301587301587,36.82539682539683 96.50793650793652,37.03703703703704 97.14285714285715,37.03703703703704 97.77777777777779,37.03703703703704 98.41269841269842,37.03703703703704 99.04761904761905,37.03703703703704 99.68253968253968,36.82539682539683 100.31746031746033,36.613756613756614 100.95238095238096,36.613756613756614 101.5873015873016,36.402116402116405 102.22222222222223,35.97883597883598 102.85714285714286,35.97883597883598 103.4920634920635,35.55555555555556 104.12698412698414,35.34391534391535 104.76190476190477,35.13227513227513 105.3968253968254,34.920634920634924 106.03174603174604,34.70899470899471 106.66666666666667,34.28571428571429 107.0899470899471,33.86243386243387 107.72486772486774,33.65079365079365 108.35978835978837,33.22751322751323 108.994708994709,33.01587301587302 109.62962962962963,32.592592592592595 110.05291005291006,32.16931216931217 110.6878306878307,31.746031746031747 111.32275132275133,31.322751322751326 111.95767195767196,31.111111111111114 112.5925925925926,30.68783068783069 113.22751322751324,30.264550264550266 113.86243386243387,30.052910052910054 114.28571428571429,29.629629629629633 114.92063492063492,29.41798941798942 115.55555555555557,28.994708994708997 116.1904761904762,28.994708994708997 116.61375661375662,28.571428571428573 117.24867724867725,28.35978835978836 117.67195767195768,27.93650793650794 118.30687830687832,27.724867724867728 118.94179894179895,27.301587301587304 119.57671957671958,27.089947089947092 120.21164021164022,26.666666666666668 120.84656084656086,26.455026455026456 121.4814814814815,26.243386243386244 121.90476190476191,25.820105820105823 122.53968253968254,25.60846560846561 123.17460317460318,25.3968253968254 123.80952380952382,25.185185185185187 124.44444444444446,24.973544973544975 125.07936507936509,24.973544973544975 125.5026455026455,24.55026455026455 126.13756613756615,24.338624338624342 126.77248677248679,24.12698412698413 127.40740740740742,24.12698412698413 127.83068783068784,23.703703703703706 128.46560846560848,23.703703703703706 129.10052910052912,23.703703703703706 129.73544973544975,23.280423280423282 130.37037037037038,23.06878306878307 131.005291005291,23.06878306878307 131.64021164021165,22.857142857142858 132.27513227513228,22.857142857142858 132.6984126984127,22.433862433862437 133.33333333333334,22.433862433862437 133.96825396825398,22.433862433862437 134.6031746031746,22.433862433862437 135.23809523809524,22.433862433862437 135.66137566137567,22.010582010582013 136.2962962962963,22.010582010582013 136.93121693121694,21.7989417989418 137.56613756613757,21.7989417989418 138.2010582010582,21.7989417989418 138.83597883597884,21.58730158730159 139.47089947089947,21.58730158730159 140.10582010582013,21.58730158730159 140.74074074074076,21.58730158730159 141.3756613756614,21.58730158730159 142.01058201058203,21.58730158730159 142.64550264550266,21.58730158730159 143.2804232804233,21.375661375661377 143.91534391534393,21.375661375661377 144.55026455026456,21.375661375661377 145.1851851851852,21.164021164021165 145.82010582010582,21.164021164021165 146.45502645502646,21.164021164021165 147.0899470899471,20.952380952380953 150.6878306878307,20.740740740740744" style="fill:none; stroke:#cc0000; stroke-width:1.0"  /><polyline points="150.6878306878307,20.740740740740744 150.8994708994709,24.12698412698413 150.8994708994709,24.761904761904763 150.8994708994709,25.3968253968254 150.8994708994709,26.031746031746035 151.11111111111111,26.666666666666668 151.11111111111111,27.301587301587304 151.11111111111111,27.93650793650794 151.11111111111111,28.571428571428573 151.32275132275134,29.20634920634921 151.32275132275134,29.841269841269842 151.53439153439155,30.476190476190478 151.53439153439155,31.111111111111114 151.53439153439155,31.746031746031747 151.74603174603175,32.38095238095239 151.74603174603175,33.01587301587302 151.95767195767198,33.65079365079365 152.16931216931218,34.28571428571429 152.16931216931218,34.920634920634924 152.38095238095238,35.55555555555556 152.8042328042328,35.97883597883598 152.8042328042328,36.613756613756614 153.01587301587304,37.248677248677254 153.01587301587304,37.883597883597886 153.22751322751324,38.51851851851852 153.43915343915344,39.15343915343916 153.65079365079367,39.78835978835979 153.86243386243387,40.423280423280424 154.07407407407408,41.058201058201064 154.2857142857143,41.6931216931217 154.4973544973545,42.32804232804233 154.7089947089947,42.96296296296297 154.92063492063494,43.5978835978836 155.13227513227514,44.232804232804234 155.55555555555557,44.867724867724874 155.76719576719577,45.50264550264551 155.978835978836,46.13756613756614 156.1904761904762,46.77248677248678 156.4021164021164,47.40740740740741 156.61375661375664,48.042328042328045 157.03703703703704,48.677248677248684 157.24867724867727,49.31216931216932 157.46031746031747,49.94708994708995 157.8835978835979,50.58201058201058 158.0952380952381,51.21693121693122 158.30687830687833,51.851851851851855 158.73015873015873,52.48677248677249 159.15343915343917,53.12169312169313 159.36507936507937,53.75661375661376 159.7883597883598,54.39153439153439 160.0,55.02645502645503 160.42328042328043,55.661375661375665 160.63492063492066,56.2962962962963 161.05820105820106,56.71957671957672 161.2698412698413,57.35449735449736 161.6931216931217,57.989417989417994 161.90476190476193,58.62433862433863 162.32804232804233,59.04761904761905 162.53968253968256,59.682539682539684 162.96296296296296,60.31746031746032 163.3862433862434,60.952380952380956 163.59788359788362,61.58730158730159 164.02116402116403,62.01058201058201 164.44444444444446,62.64550264550265 164.65608465608466,63.280423280423285 165.0793650793651,63.70370370370371 165.2910052910053,64.33862433862434 165.50264550264552,64.97354497354497 165.71428571428572,65.60846560846561 165.92592592592595,66.24338624338625 166.13756613756615,66.87830687830689 166.13756613756615,67.51322751322752 166.13756613756615,68.14814814814815 166.56084656084658,68.78306878306879 166.56084656084658,69.41798941798942 166.56084656084658,70.05291005291006 166.56084656084658,70.6878306878307 166.34920634920636,71.32275132275133 166.34920634920636,71.95767195767196 166.13756613756615,72.5925925925926 165.92592592592595,73.22751322751323 165.71428571428572,73.86243386243387 165.2910052910053,74.28571428571429 164.8677248677249,74.92063492063492 164.65608465608466,75.55555555555556 164.23280423280426,75.97883597883599 163.80952380952382,76.4021164021164 163.3862433862434,76.82539682539684 162.96296296296296,77.24867724867725 162.53968253968256,77.67195767195767 161.90476190476193,78.0952380952381 161.2698412698413,78.51851851851852 160.63492063492066,78.73015873015873 160.0,79.15343915343917 159.36507936507937,79.36507936507937 158.73015873015873,79.36507936507937 158.0952380952381,79.57671957671958 157.46031746031747,79.7883597883598 156.82539682539684,79.7883597883598 156.1904761904762,79.7883597883598 155.55555555555557,79.7883597883598 154.92063492063494,79.7883597883598 154.2857142857143,79.7883597883598 153.65079365079367,79.57671957671958 153.01587301587304,79.57671957671958 152.38095238095238,79.57671957671958 151.74603174603175,79.57671957671958 151.11111111111111,79.36507936507937 150.47619047619048,79.36507936507937 149.84126984126985,79.15343915343917 149.20634920634922,78.94179894179895 148.57142857142858,78.73015873015873 147.93650793650795,78.73015873015873 147.30158730158732,78.51851851851852 146.66666666666669,78.51851851851852 146.03174603174605,78.30687830687832 145.39682539682542,78.0952380952381 144.76190476190476,78.0952380952381 144.12698412698413,78.0952380952381 143.4920634920635,77.88359788359789 142.85714285714286,77.88359788359789 142.22222222222223,77.88359788359789 141.5873015873016,77.67195767195767 140.95238095238096,77.67195767195767 140.31746031746033,77.67195767195767 139.6825396825397,77.67195767195767 139.04761904761907,77.88359788359789 138.41269841269843,77.88359788359789 137.7777777777778,77.88359788359789 137.14285714285717,78.0952380952381 136.5079365079365,78.30687830687832 135.87301587301587,78.30687830687832 135.23809523809524,78.51851851851852 134.6031746031746,78.73015873015873 133.96825396825398,78.94179894179895 133.33333333333334,79.15343915343917 132.6984126984127,79.57671957671958 132.06349206349208,79.7883597883598 131.42857142857144,80.21164021164022 131.005291005291,80.63492063492065 130.37037037037038,81.05820105820106 129.94708994708995,81.48148148148148 129.52380952380955,81.90476190476191 129.10052910052912,82.32804232804233 128.67724867724868,82.75132275132276 128.25396825396825,83.3862433862434 127.83068783068784,83.80952380952381 127.61904761904763,84.44444444444446 127.1957671957672,85.07936507936509 126.98412698412699,85.71428571428572 126.56084656084657,86.34920634920636 126.34920634920636,86.98412698412699 126.13756613756615,87.61904761904762 126.13756613756615,88.25396825396827 125.92592592592594,88.8888888888889 125.71428571428572,89.52380952380953 125.71428571428572,90.15873015873017 125.71428571428572,90.7936507936508 125.71428571428572,91.42857142857143 125.71428571428572,92.06349206349208 125.71428571428572,92.69841269841271 125.71428571428572,93.33333333333334 125.92592592592594,93.96825396825398 125.92592592592594,94.60317460317461 126.13756613756615,95.23809523809524 126.13756613756615,95.87301587301587 126.34920634920636,96.50793650793652 126.34920634920636,97.14285714285715 126.56084656084657,97.77777777777779 126.77248677248679,98.41269841269842 126.98412698412699,99.04761904761905 126.98412698412699,99.68253968253968 127.1957671957672,100.31746031746033 127.40740740740742,100.95238095238096 127.83068783068784,101.5873015873016 128.25396825396825,102.22222222222223 128.46560846560848,102.85714285714286 128.88888888888889,103.28042328042329 129.31216931216932,103.91534391534393 129.73544973544975,104.33862433862434 130.15873015873018,104.76190476190477 130.58201058201058,105.3968253968254 131.005291005291,105.82010582010582 131.42857142857144,106.24338624338625 131.85185185185185,106.66666666666667 132.27513227513228,107.0899470899471 132.6984126984127,107.51322751322752 133.12169312169314,107.93650793650795 133.54497354497354,108.35978835978837 133.96825396825398,108.78306878306879 134.6031746031746,109.20634920634922 135.23809523809524,109.62962962962963 135.66137566137567,110.05291005291006 136.2962962962963,110.47619047619048 136.93121693121694,110.89947089947091 137.56613756613757,111.11111111111111 137.989417989418,111.53439153439155 138.62433862433863,111.95767195767196 139.25925925925927,112.16931216931218 139.8941798941799,112.3809523809524 140.52910052910053,112.5925925925926 141.16402116402116,112.80423280423281 141.7989417989418,113.01587301587303 142.43386243386246,113.22751322751324 143.0687830687831,113.43915343915344 143.70370370370372,113.86243386243387 144.33862433862436,113.86243386243387 144.973544973545,113.86243386243387 145.60846560846562,113.65079365079366 146.24338624338625,113.65079365079366 146.8783068783069,113.43915343915344 147.51322751322752,113.43915343915344 148.14814814814815,113.22751322751324 148.78306878306879,113.01587301587303 149.41798941798942,112.5925925925926 150.05291005291005,112.3809523809524 150.47619047619048,111.95767195767196 151.11111111111111,111.53439153439155 151.53439153439155,111.11111111111111 152.16931216931218,110.6878306878307 152.8042328042328,110.47619047619048 153.22751322751324,110.05291005291006 153.65079365079367,109.62962962962963 154.07407407407408,109.20634920634922 154.7089947089947,108.78306878306879 155.13227513227514,108.35978835978837 155.55555555555557,107.93650793650795 155.978835978836,107.51322751322752 156.4021164021164,107.0899470899471 156.82539682539684,106.45502645502647 157.24867724867727,105.82010582010582 157.67195767195767,105.3968253968254 158.0952380952381,104.97354497354497 158.51851851851853,104.33862433862434 158.73015873015873,103.70370370370371 159.15343915343917,103.28042328042329 159.5767195767196,102.64550264550266 160.0,102.22222222222223 160.42328042328043,101.79894179894181 160.84656084656086,101.37566137566138 161.4814814814815,100.95238095238096 162.11640211640213,100.52910052910053 162.53968253968256,100.10582010582011 163.1746031746032,100.10582010582011 163.80952380952382,99.8941798941799 164.44444444444446,99.68253968253968 165.0793650793651,99.47089947089948 165.71428571428572,99.47089947089948 166.34920634920636,99.47089947089948 166.7724867724868,98.83597883597885 167.40740740740742,99.04761904761905 167.83068783068785,99.47089947089948 168.46560846560848,99.68253968253968 169.10052910052912,99.8941798941799 169.73544973544975,100.10582010582011 170.37037037037038,100.31746031746033 171.005291005291,100.74074074074075 171.64021164021165,100.95238095238096 172.27513227513228,101.16402116402116 172.9100529100529,101.37566137566138 173.54497354497354,101.79894179894181 174.1798941798942,102.01058201058201 174.6031746031746,102.43386243386244 175.23809523809524,102.64550264550266 175.66137566137567,103.06878306878308 176.2962962962963,103.28042328042329 176.71957671957674,103.70370370370371 177.35449735449737,103.91534391534393 177.989417989418,104.33862433862434 178.41269841269843,104.76190476190477 178.83597883597884,105.18518518518519 179.4708994708995,105.60846560846562 179.8941798941799,106.03174603174604 180.52910052910053,106.45502645502647 180.95238095238096,106.87830687830689 181.3756613756614,107.51322751322752 181.79894179894183,107.93650793650795 182.22222222222223,108.57142857142858 182.64550264550266,109.20634920634922 182.85714285714286,109.84126984126985 183.2804232804233,110.26455026455027 183.70370370370372,110.89947089947091 183.91534391534393,111.53439153439155 184.12698412698415,112.16931216931218 184.55026455026456,112.80423280423281 184.7619047619048,113.43915343915344 185.1851851851852,114.07407407407408 185.1851851851852,114.70899470899472 185.39682539682542,115.34391534391536 185.60846560846562,115.97883597883599 185.82010582010582,116.61375661375662 185.82010582010582,117.24867724867725 186.03174603174605,117.88359788359789 186.24338624338625,118.51851851851853 186.45502645502646,119.15343915343917 186.66666666666669,119.7883597883598 186.66666666666669,120.42328042328043 186.45502645502646,121.05820105820106 186.8783068783069,121.6931216931217 187.08994708994712,122.32804232804234 186.8783068783069,122.96296296296298 187.08994708994712,123.59788359788361 187.72486772486775,124.02116402116403 187.72486772486775,124.65608465608466 187.93650793650795,125.2910052910053 187.93650793650795,125.92592592592594 187.72486772486775,126.56084656084657 188.14814814814815,126.98412698412699 188.14814814814815,127.61904761904763 188.35978835978838,128.25396825396825 188.35978835978838,128.88888888888889 188.57142857142858,129.52380952380955 188.57142857142858,130.15873015873018 188.78306878306879,130.7936507936508 188.78306878306879,131.42857142857144 188.78306878306879,132.06349206349208 188.99470899470901,132.6984126984127 188.99470899470901,133.33333333333334 188.99470899470901,133.96825396825398 189.20634920634922,134.6031746031746 189.20634920634922,135.23809523809524 189.20634920634922,135.87301587301587 189.20634920634922,136.5079365079365 189.41798941798945,137.14285714285717 189.41798941798945,137.7777777777778 189.41798941798945,138.41269841269843 189.84126984126985,139.04761904761907 189.84126984126985,139.6825396825397 189.84126984126985,140.31746031746033 189.84126984126985,140.95238095238096 189.84126984126985,141.5873015873016 190.05291005291008,142.22222222222223 190.05291005291008,142.85714285714286 190.05291005291008,143.4920634920635 190.05291005291008,144.12698412698413 190.05291005291008,144.76190476190476 190.05291005291008,145.39682539682542 190.26455026455028,146.03174603174605 190.26455026455028,146.66666666666669 190.26455026455028,147.30158730158732 190.47619047619048,147.93650793650795 190.47619047619048,148.57142857142858 190.47619047619048,149.20634920634922 190.6878306878307,149.84126984126985 190.6878306878307,150.47619047619048 190.6878306878307,151.11111111111111 190.6878306878307,151.74603174603175 190.6878306878307,152.38095238095238 190.6878306878307,153.01587301587304 190.6878306878307,153.65079365079367 190.6878306878307,154.2857142857143 190.8994708994709,154.92063492063494 190.8994708994709,155.55555555555557 191.11111111111111,156.1904761904762 191.32275132275134,159.5767195767196" style="fill:none; stroke:#999900; stroke-width:1.0"  /><polyline points="191.32275132275134,159.5767195767196 187.93650793650795,160.84656084656086 187.30158730158732,161.05820105820106 186.66666666666669,161.4814814814815 186.03174603174605,161.4814814814815 185.60846560846562,161.90476190476193 184.973544973545,162.11640211640213 184.33862433862436,162.32804232804233 183.70370370370372,162.53968253968256 183.0687830687831,162.75132275132276 182.43386243386246,162.96296296296296 181.79894179894183,163.1746031746032 181.16402116402116,163.3862433862434 180.52910052910053,163.59788359788362 179.8941798941799,164.02116402116403 179.25925925925927,164.23280423280426 178.62433862433863,164.44444444444446 177.989417989418,164.65608465608466 177.35449735449737,164.65608465608466 176.71957671957674,164.8677248677249 176.0846560846561,165.0793650793651 175.44973544973547,165.2910052910053 174.81481481481484,165.50264550264552 174.1798941798942,165.50264550264552 173.54497354497354,165.71428571428572 172.9100529100529,165.92592592592595 172.27513227513228,166.13756613756615 171.64021164021165,166.13756613756615 171.005291005291,166.34920634920636 170.37037037037038,166.56084656084658 169.73544973544975,166.7724867724868 169.10052910052912,166.7724867724868 168.46560846560848,166.984126984127 167.83068783068785,166.984126984127 167.19576719576722,167.19576719576722 166.56084656084658,167.19576719576722 165.92592592592595,167.19576719576722 165.2910052910053,167.40740740740742 164.65608465608466,167.40740740740742 164.02116402116403,167.40740740740742 163.3862433862434,167.40740740740742 162.75132275132276,167.40740740740742 162.11640211640213,167.40740740740742 161.4814814814815,167.61904761904762 160.84656084656086,167.61904761904762 160.21164021164023,167.61904761904762 159.5767195767196,167.61904761904762 158.94179894179896,167.83068783068785 158.30687830687833,167.83068783068785 157.67195767195767,167.83068783068785 157.03703703703704,168.04232804232805 156.4021164021164,168.25396825396825 155.76719576719577,168.46560846560848 155.13227513227514,168.46560846560848 154.4973544973545,168.8888888888889 153.86243386243387,169.10052910052912 153.22751322751324,169.52380952380955 152.5925925925926,169.94708994708995 152.16931216931218,170.37037037037038 151.74603174603175,170.7936507936508 151.32275132275134,171.21693121693124 150.8994708994709,171.85185185185188 150.47619047619048,172.4867724867725 150.05291005291005,173.12169312169314 150.05291005291005,173.75661375661377 149.84126984126985,174.3915343915344 149.41798941798942,175.02645502645504 149.20634920634922,175.66137566137567 149.20634920634922,176.2962962962963 149.20634920634922,176.93121693121694 149.20634920634922,177.56613756613757 149.20634920634922,178.2010582010582 149.20634920634922,178.83597883597884 149.20634920634922,179.4708994708995 149.41798941798942,180.10582010582013 149.41798941798942,180.74074074074076 149.62962962962965,181.3756613756614 149.62962962962965,182.01058201058203 149.84126984126985,182.64550264550266 150.05291005291005,183.2804232804233 150.05291005291005,183.91534391534393 150.47619047619048,184.33862433862436 150.6878306878307,184.973544973545 150.8994708994709,185.60846560846562 151.11111111111111,186.24338624338625 151.32275132275134,186.8783068783069 151.74603174603175,187.51322751322752 151.95767195767198,188.14814814814815 152.38095238095238,188.78306878306879 152.5925925925926,189.41798941798945 153.01587301587304,190.05291005291008 153.22751322751324,190.6878306878307 153.65079365079367,191.32275132275134 153.65079365079367,191.95767195767198 153.86243386243387,192.5925925925926 154.07407407407408,193.22751322751324 154.07407407407408,193.86243386243387 154.2857142857143,194.4973544973545 154.2857142857143,195.13227513227514 154.2857142857143,195.76719576719577 154.2857142857143,196.4021164021164 154.2857142857143,197.03703703703704 154.2857142857143,197.6719576719577 154.2857142857143,198.30687830687833 154.07407407407408,198.94179894179896 154.07407407407408,199.5767195767196 153.86243386243387,200.21164021164023 153.65079365079367,200.84656084656086 153.22751322751324,201.2698412698413 153.01587301587304,201.90476190476193 152.5925925925926,202.53968253968256 152.16931216931218,202.962962962963 151.74603174603175,203.59788359788362 151.11111111111111,204.02116402116403 150.6878306878307,204.44444444444446 150.26455026455028,204.8677248677249 149.62962962962965,205.29100529100532 148.99470899470901,205.71428571428572 148.35978835978838,206.13756613756615 147.72486772486775,206.56084656084658 147.0899470899471,206.984126984127 146.45502645502646,207.19576719576722 145.82010582010582,207.61904761904765 145.1851851851852,208.04232804232805 144.76190476190476,208.46560846560848 144.12698412698413,208.8888888888889 143.4920634920635,209.31216931216932 142.85714285714286,209.52380952380955 142.22222222222223,209.73544973544975 141.5873015873016,210.15873015873018 140.95238095238096,210.37037037037038 140.31746031746033,210.5820105820106 139.6825396825397,210.7936507936508 139.04761904761907,211.005291005291 138.41269841269843,211.21693121693124 137.7777777777778,211.21693121693124 137.14285714285717,211.42857142857144 136.5079365079365,211.64021164021165 135.87301587301587,211.64021164021165 135.23809523809524,211.85185185185188 134.6031746031746,212.06349206349208 133.96825396825398,212.27513227513228 133.33333333333334,212.27513227513228 132.6984126984127,212.27513227513228 132.06349206349208,212.4867724867725 131.42857142857144,212.4867724867725 130.7936507936508,212.6984126984127 130.15873015873018,212.6984126984127 129.52380952380955,212.6984126984127 128.88888888888889,212.6984126984127 128.25396825396825,212.91005291005294 127.61904761904763,212.91005291005294 126.98412698412699,212.91005291005294 126.34920634920636,212.91005291005294 125.71428571428572,212.91005291005294 125.07936507936509,212.6984126984127 124.44444444444446,212.6984126984127 123.80952380952382,212.6984126984127 123.17460317460318,212.6984126984127 122.53968253968254,212.6984126984127 121.90476190476191,212.6984126984127 121.26984126984128,212.6984126984127 120.63492063492065,212.6984126984127 120.00000000000001,212.4867724867725 119.36507936507937,212.4867724867725 118.73015873015873,212.27513227513228 118.0952380952381,212.06349206349208 117.46031746031747,211.85185185185188 116.82539682539684,211.64021164021165 116.1904761904762,211.21693121693124 115.55555555555557,210.7936507936508 115.13227513227514,210.37037037037038 114.49735449735451,209.94708994708995 114.07407407407408,209.31216931216932 113.65079365079366,208.67724867724868 113.22751322751324,208.25396825396828 113.01587301587303,207.61904761904765 112.80423280423281,206.984126984127 112.5925925925926,206.34920634920636 112.3809523809524,205.71428571428572 112.3809523809524,205.0793650793651 112.16931216931218,204.44444444444446 112.16931216931218,203.80952380952382 112.3809523809524,203.1746031746032 112.3809523809524,202.53968253968256 112.3809523809524,201.90476190476193 112.3809523809524,201.2698412698413 112.5925925925926,200.63492063492066 112.80423280423281,200.00000000000003 112.80423280423281,199.36507936507937 113.01587301587303,198.73015873015873 113.01587301587303,198.0952380952381 113.22751322751324,197.46031746031747 113.43915343915344,196.82539682539684 113.43915343915344,196.1904761904762 113.65079365079366,195.55555555555557 113.86243386243387,194.92063492063494 113.86243386243387,194.2857142857143 114.07407407407408,193.65079365079367 114.07407407407408,193.01587301587304 114.28571428571429,192.3809523809524 114.28571428571429,191.74603174603175 114.28571428571429,191.11111111111111 114.28571428571429,190.47619047619048 114.07407407407408,189.84126984126985 113.86243386243387,189.20634920634922 113.86243386243387,188.57142857142858 113.43915343915344,187.93650793650795 113.01587301587303,187.30158730158732 112.5925925925926,186.66666666666669 112.16931216931218,186.24338624338625 111.74603174603176,185.82010582010582 111.32275132275133,185.39682539682542 110.6878306878307,184.973544973545 110.05291005291006,184.7619047619048 109.41798941798943,184.55026455026456 108.78306878306879,184.55026455026456 108.14814814814815,184.33862433862436 107.51322751322752,184.33862433862436 106.87830687830689,184.33862433862436 106.24338624338625,184.55026455026456 105.60846560846562,184.7619047619048 104.97354497354497,184.973544973545 104.33862433862434,185.1851851851852 103.91534391534393,185.60846560846562 103.28042328042329,186.03174603174605 102.64550264550266,186.45502645502646 102.01058201058201,186.8783068783069 101.37566137566138,187.30158730158732 100.95238095238096,187.72486772486775 100.31746031746033,188.14814814814815 99.68253968253968,188.57142857142858 99.25925925925927,188.99470899470901 98.62433862433863,189.41798941798945 97.989417989418,189.84126984126985 97.35449735449737,190.26455026455028 96.71957671957672,190.6878306878307 96.2962962962963,191.11111111111111 95.66137566137567,191.53439153439155 95.02645502645504,191.95767195767198 94.39153439153439,192.3809523809524 93.75661375661376,192.8042328042328 93.33333333333334,193.22751322751324 92.69841269841271,193.65079365079367 92.06349206349208,193.86243386243387 91.64021164021165,194.2857142857143 91.00529100529101,194.4973544973545 90.58201058201058,194.92063492063494 89.94708994708995,195.34391534391537 89.31216931216932,195.55555555555557 88.8888888888889,195.978835978836 88.25396825396827,196.4021164021164 87.61904761904762,196.82539682539684 86.98412698412699,197.24867724867727 86.34920634920636,197.46031746031747 85.92592592592594,197.8835978835979 85.29100529100529,198.30687830687833 84.65608465608466,198.51851851851853 84.02116402116403,198.94179894179896 83.3862433862434,199.36507936507937 82.75132275132276,199.5767195767196 82.11640211640213,200.00000000000003 81.48148148148148,200.42328042328043 80.84656084656085,200.84656084656086 80.21164021164022,201.05820105820106 79.57671957671958,201.4814814814815 78.94179894179895,201.90476190476193 78.30687830687832,202.32804232804233 77.67195767195767,202.75132275132276 74.49735449735451,204.65608465608466" style="fill:none; stroke:#00aa99; stroke-width:1.0"  /><polyline points="74.49735449735451,204.65608465608466 73.22751322751323,201.05820105820106 72.80423280423281,200.42328042328043 72.5925925925926,199.7883597883598 72.38095238095238,199.15343915343917 72.16931216931218,198.51851851851853 71.74603174603175,197.8835978835979 71.53439153439155,197.24867724867727 71.32275132275133,196.61375661375664 71.32275132275133,195.978835978836 70.8994708994709,195.34391534391537 70.6878306878307,194.70899470899474 70.47619047619048,194.07407407407408 70.26455026455027,193.43915343915344 70.05291005291006,192.8042328042328 69.84126984126985,192.16931216931218 69.62962962962963,191.53439153439155 69.41798941798942,190.8994708994709 69.20634920634922,190.26455026455028 68.994708994709,189.62962962962965 68.78306878306879,188.99470899470901 68.57142857142858,188.35978835978838 68.35978835978837,187.72486772486775 67.93650793650794,187.08994708994712 67.72486772486774,186.45502645502646 67.51322751322752,185.82010582010582 67.3015873015873,185.1851851851852 67.08994708994709,184.55026455026456 66.87830687830689,183.91534391534393 66.66666666666667,183.2804232804233 66.45502645502646,182.64550264550266 66.24338624338625,182.01058201058203 66.03174603174604,181.3756613756614 65.60846560846561,180.74074074074076 65.3968253968254,180.10582010582013 65.18518518518519,179.4708994708995 64.97354497354497,178.83597883597884 64.76190476190477,178.2010582010582 64.55026455026456,177.56613756613757 64.33862433862434,176.93121693121694 63.91534391534392,176.2962962962963 63.70370370370371,175.66137566137567 63.492063492063494,175.02645502645504 63.280423280423285,174.3915343915344 62.85714285714286,173.96825396825398 62.64550264550265,173.33333333333334 62.43386243386244,172.6984126984127 62.01058201058201,172.06349206349208 61.798941798941804,171.42857142857144 61.58730158730159,170.7936507936508 61.37566137566138,170.15873015873018 60.952380952380956,169.52380952380955 60.74074074074075,168.8888888888889 60.52910052910053,168.25396825396825 60.31746031746032,167.61904761904762 59.8941798941799,166.984126984127 59.682539682539684,166.34920634920636 59.470899470899475,165.71428571428572 59.04761904761905,165.0793650793651 58.83597883597884,164.44444444444446 58.62433862433863,163.80952380952382 58.2010582010582,163.1746031746032 57.989417989417994,162.53968253968256 57.56613756613757,161.90476190476193 57.35449735449736,161.2698412698413 57.142857142857146,160.63492063492066 56.71957671957672,160.0 56.50793650793651,159.36507936507937 56.08465608465609,158.73015873015873 55.87301587301588,158.0952380952381 55.449735449735456,157.46031746031747 55.23809523809524,156.82539682539684 54.81481481481482,156.1904761904762 54.60317460317461,155.55555555555557 54.179894179894184,155.13227513227514 53.75661375661376,154.4973544973545 53.54497354497355,153.86243386243387 53.12169312169313,153.43915343915344 52.6984126984127,152.8042328042328 52.27513227513228,152.16931216931218 51.851851851851855,151.53439153439155 51.42857142857143,150.8994708994709 51.00529100529101,150.47619047619048 50.58201058201058,150.05291005291005 50.158730158730165,149.41798941798942 49.73544973544974,148.99470899470901 49.31216931216932,148.35978835978838 48.88888888888889,147.93650793650795 48.46560846560847,147.51322751322752 48.042328042328045,147.0899470899471 47.61904761904762,146.66666666666669 47.195767195767196,146.24338624338625 46.77248677248678,145.82010582010582 46.13756613756614,145.39682539682542 45.50264550264551,144.973544973545 44.867724867724874,144.55026455026456 44.232804232804234,144.33862433862436 43.5978835978836,144.12698412698413 42.96296296296297,143.91534391534393 42.32804232804233,143.91534391534393 41.6931216931217,143.91534391534393 41.058201058201064,144.12698412698413 40.423280423280424,144.33862433862436 39.78835978835979,144.55026455026456 39.15343915343916,144.973544973545 38.51851851851852,145.39682539682542 37.883597883597886,145.82010582010582 37.46031746031746,146.24338624338625 36.82539682539683,146.66666666666669 36.402116402116405,147.0899470899471 35.97883597883598,147.51322751322752 35.55555555555556,147.93650793650795 35.13227513227513,148.57142857142858 34.70899470899471,149.20634920634922 34.4973544973545,149.84126984126985 34.074074074074076,150.47619047619048 33.86243386243387,151.11111111111111 33.65079365079365,151.74603174603175 33.22751322751323,152.38095238095238 33.22751322751323,153.01587301587304 32.804232804232804,153.65079365079367 32.804232804232804,154.2857142857143 32.592592592592595,154.92063492063494 32.16931216931217,155.55555555555557 31.95767195767196,156.1904761904762 31.746031746031747,156.82539682539684 31.53439153439154,157.46031746031747 31.111111111111114,158.0952380952381 30.899470899470902,158.73015873015873 30.476190476190478,159.15343915343917 30.052910052910054,159.7883597883598 29.841269841269842,160.42328042328043 29.41798941798942,161.05820105820106 28.994708994708997,161.6931216931217 28.571428571428573,162.11640211640213 28.14814814814815,162.53968253968256 27.724867724867728,163.1746031746032 27.089947089947092,163.59788359788362 26.666666666666668,164.02116402116403 26.031746031746035,164.44444444444446 25.3968253968254,164.65608465608466 24.761904761904763,165.0793650793651 24.12698412698413,165.2910052910053 23.492063492063494,165.2910052910053 22.857142857142858,165.2910052910053 22.222222222222225,165.50264550264552 21.58730158730159,165.2910052910053 20.952380952380953,165.2910052910053 20.31746031746032,165.0793650793651 19.682539682539684,164.8677248677249 19.047619047619047,164.65608465608466 18.412698412698415,164.44444444444446 17.77777777777778,164.23280423280426 17.142857142857146,163.80952380952382 16.50793650793651,163.3862433862434 15.873015873015873,163.1746031746032 15.449735449735451,162.75132275132276 14.814814814814817,162.32804232804233 14.17989417989418,161.90476190476193 13.544973544973546,161.4814814814815 12.910052910052912,161.05820105820106 12.486772486772487,160.63492063492066 11.851851851851853,160.21164021164023 11.428571428571429,159.7883597883598 11.005291005291006,159.36507936507937 10.582010582010582,158.94179894179896 10.15873015873016,158.51851851851853 9.735449735449736,158.0952380952381 9.312169312169313,157.46031746031747 8.88888888888889,157.03703703703704 8.465608465608467,156.61375661375664 8.042328042328043,155.978835978836 7.6190476190476195,155.55555555555557 7.195767195767196,154.92063492063494 6.772486772486773,154.2857142857143 6.34920634920635,153.65079365079367 5.9259259259259265,153.01587301587304 5.714285714285714,152.38095238095238 5.291005291005291,151.95767195767198 4.867724867724868,151.32275132275134 4.444444444444445,150.6878306878307 4.2328042328042335,150.05291005291005 3.8095238095238098,149.41798941798942 3.597883597883598,148.78306878306879 3.174603174603175,148.14814814814815 2.9629629629629632,147.51322751322752 2.7513227513227516,146.8783068783069 2.3280423280423284,146.24338624338625 2.1164021164021167,145.60846560846562 1.9047619047619049,144.973544973545 1.6931216931216932,144.33862433862436 1.4814814814814816,143.70370370370372 1.26984126984127,143.0687830687831 1.0582010582010584,142.43386243386246 0.8465608465608466,141.7989417989418 0.8465608465608466,141.16402116402116 0.634920634920635,140.52910052910053 0.634920634920635,139.8941798941799 0.634920634920635,139.25925925925927 0.21164021164021166,138.83597883597884 0.21164021164021166,138.2010582010582 0.21164021164021166,137.56613756613757 0.21164021164021166,136.93121693121694 0.4232804232804233,136.2962962962963 0.4232804232804233,135.66137566137567 0.634920634920635,135.02645502645504 0.634920634920635,134.3915343915344 1.0582010582010584,133.75661375661377 1.0582010582010584,133.12169312169314 1.26984126984127,132.4867724867725 1.6931216931216932,131.85185185185185 1.9047619047619049,131.21693121693121 2.1164021164021167,130.58201058201058 2.53968253968254,130.15873015873018 2.9629629629629632,129.52380952380955 3.3862433862433865,129.10052910052912 3.8095238095238098,128.67724867724868 4.2328042328042335,128.25396825396825 4.867724867724868,127.83068783068784 5.291005291005291,127.40740740740742 5.9259259259259265,127.1957671957672 6.560846560846561,126.77248677248679 7.195767195767196,126.56084656084657 7.830687830687832,126.34920634920636 8.465608465608467,126.34920634920636 9.100529100529101,126.13756613756615 9.735449735449736,126.13756613756615 10.370370370370372,126.13756613756615 11.005291005291006,126.13756613756615 11.640211640211641,126.13756613756615 12.275132275132275,126.13756613756615 12.910052910052912,126.13756613756615 13.544973544973546,126.34920634920636 14.17989417989418,126.34920634920636 14.814814814814817,126.56084656084657 15.449735449735451,126.56084656084657 16.084656084656086,126.77248677248679 16.71957671957672,126.77248677248679 17.354497354497354,126.98412698412699 17.98941798941799,127.1957671957672 18.624338624338627,127.1957671957672 19.25925925925926,127.40740740740742 19.894179894179896,127.40740740740742 20.529100529100532,127.61904761904763 21.164021164021165,127.61904761904763 21.7989417989418,127.61904761904763 22.433862433862437,127.61904761904763 23.06878306878307,127.61904761904763 23.703703703703706,127.61904761904763 24.338624338624342,127.61904761904763 24.973544973544975,127.40740740740742 25.60846560846561,127.1957671957672 26.243386243386244,127.1957671957672 26.87830687830688,126.98412698412699 27.513227513227516,126.56084656084657 28.14814814814815,126.34920634920636 28.783068783068785,125.92592592592594 29.20634920634921,125.5026455026455 29.629629629629633,125.07936507936509 30.052910052910054,124.65608465608466 30.476190476190478,124.23280423280424 30.899470899470902,123.59788359788361 31.322751322751326,122.96296296296298 31.322751322751326,122.32804232804234 31.53439153439154,121.6931216931217 31.746031746031747,121.05820105820106 31.746031746031747,120.42328042328043 31.746031746031747,119.7883597883598 31.746031746031747,119.15343915343917 31.53439153439154,118.51851851851853 31.53439153439154,117.88359788359789 31.322751322751326,117.24867724867725 31.111111111111114,116.61375661375662 31.111111111111114,115.97883597883599 30.899470899470902,115.34391534391536 30.68783068783069,114.70899470899472 30.476190476190478,114.07407407407408 30.264550264550266,113.43915343915344 30.052910052910054,112.80423280423281 29.841269841269842,112.16931216931218 29.629629629629633,111.53439153439155 29.41798941798942,110.89947089947091 29.20634920634921,110.26455026455027 28.994708994708997,109.62962962962963 28.783068783068785,108.994708994709 28.571428571428573,108.35978835978837 28.35978835978836,107.72486772486774 28.14814814814815,107.0899470899471 27.93650793650794,106.45502645502647 27.724867724867728,105.82010582010582 27.513227513227516,105.18518518518519 27.301587301587304,104.55026455026456 27.089947089947092,103.91534391534393 26.87830687830688,103.28042328042329 26.455026455026456,102.64550264550266 26.455026455026456,102.01058201058201 26.243386243386244,101.37566137566138 26.031746031746035,100.74074074074075 25.820105820105823,100.10582010582011 25.60846560846561,99.47089947089948 25.3968253968254,98.83597883597885 25.185185185185187,98.2010582010582 24.973544973544975,97.56613756613757 24.761904761904763,96.93121693121694 24.761904761904763,96.2962962962963 24.55026455026455,95.66137566137567 24.338624338624342,95.02645502645504 24.12698412698413,94.39153439153439 23.915343915343918,93.75661375661376 23.703703703703706,93.12169312169313 23.703703703703706,92.4867724867725 23.492063492063494,91.85185185185186 23.280423280423282,91.21693121693123 23.280423280423282,90.58201058201058 23.06878306878307,89.94708994708995 22.857142857142858,89.31216931216932 22.645502645502646,88.67724867724868 22.645502645502646,88.04232804232805 22.433862433862437,87.40740740740742 22.222222222222225,86.77248677248677 22.010582010582013,86.13756613756614 22.010582010582013,85.5026455026455 21.7989417989418,84.86772486772487 21.58730158730159,84.23280423280424 21.375661375661377,83.59788359788361 21.375661375661377,82.96296296296298 21.164021164021165,82.32804232804233 20.952380952380953,81.6931216931217 20.952380952380953,81.05820105820106 20.740740740740744,80.42328042328043 20.740740740740744,79.7883597883598 20.529100529100532,79.15343915343917 20.31746031746032,78.51851851851852 20.31746031746032,77.88359788359789 20.105820105820108,77.24867724867725 20.105820105820108,76.61375661375662 19.894179894179896,75.97883597883599 19.682539682539684,75.34391534391536 19.682539682539684,74.70899470899471 19.47089947089947,74.07407407407408 19.47089947089947,73.43915343915344 19.25925925925926,72.80423280423281 19.25925925925926,72.16931216931218 19.047619047619047,71.53439153439155 19.047619047619047,70.8994708994709 18.83597883597884,70.26455026455027 18.83597883597884,69.62962962962963 18.412698412698415,68.994708994709 18.412698412698415,68.35978835978837 18.201058201058203,67.72486772486774 18.201058201058203,67.08994708994709 17.98941798941799,66.45502645502646 17.98941798941799,65.82010582010582 17.77777777777778,65.18518518518519 17.77777777777778,64.55026455026456 17.566137566137566,63.91534391534392 17.566137566137566,63.280423280423285 17.354497354497354,62.64550264550265 17.354497354497354,62.01058201058201 17.142857142857146,61.37566137566138 17.142857142857146,60.74074074074075 17.142857142857146,60.10582010582011 16.931216931216934,59.470899470899475 16.931216931216934,58.83597883597884 16.931216931216934,58.2010582010582 16.71957671957672,57.56613756613757 16.71957671957672,56.93121693121694 16.71957671957672,56.2962962962963 16.50793650793651,55.661375661375665 16.50793650793651,55.02645502645503 16.50793650793651,54.39153439153439 16.296296296296298,53.75661375661376 16.296296296296298,53.12169312169313 16.084656084656086,52.48677248677249 16.084656084656086,51.851851851851855 16.084656084656086,51.21693121693122 16.084656084656086,50.58201058201058 15.873015873015873,49.94708994708995 15.238095238095239,45.50264550264551" style="fill:none; stroke:#3300bb; stroke-width:1.0"  /><circle cx="15.238095238095239" cy="45.50264550264551" r="2.0" style="fill:none; stroke:#000000aa; stroke-width:0.25" /><circle cx="150.6878306878307" cy="20.740740740740744" r="2.0" style="fill:none; stroke:#000000aa; stroke-width:0.25" /><circle cx="191.32275132275134" cy="159.5767195767196" r="2.0" style="fill:none; stroke:#000000aa; stroke-width:0.25" /><circle cx="74.49735449735451" cy="204.65608465608466" r="2.0" style="fill:none; stroke:#000000aa; stroke-width:0.25" /><circle cx="15.873015873015873" cy="46.560846560846564" r="2.0" style="fill:none; stroke:#ff3366aa; stroke-width:0.25" /><circle cx="150.05291005291005" cy="21.164021164021165" r="2.0" style="fill:none; stroke:#ff3366aa; stroke-width:0.25" /><circle cx="191.11111111111111" cy="159.5767195767196" r="2.0" style="fill:none; stroke:#ff3366aa; stroke-width:0.25" /><circle cx="74.70899470899471" cy="204.23280423280426" r="2.0" style="fill:none; stroke:#ff3366aa; stroke-width:0.25" /><polyline points="27.301587301587304,49.1005291005291 26.666666666666668,48.88888888888889 26.031746031746035,48.677248677248684 25.3968253968254,48.46560846560847 24.761904761904763,48.25396825396826 24.12698412698413,48.042328042328045 23.492063492063494,47.830687830687836 22.857142857142858,47.61904761904762 22.222222222222225,47.40740740740741 21.58730158730159,47.40740740740741 20.952380952380953,47.195767195767196 20.31746031746032,46.98412698412699 19.682539682539684,46.77248677248678 19.047619047619047,46.560846560846564" style="fill:none; stroke:#001100; stroke-width:1.0" /><polyline points="16.931216931216934,58.2010582010582 16.71957671957672,57.56613756613757 16.71957671957672,56.93121693121694 16.71957671957672,56.2962962962963 16.50793650793651,55.661375661375665 16.50793650793651,55.02645502645503 16.50793650793651,54.39153439153439 16.296296296296298,53.75661375661376 16.296296296296298,53.12169312169313 16.084656084656086,52.48677248677249 16.084656084656086,51.851851851851855 16.084656084656086,51.21693121693122 16.084656084656086,50.58201058201058 15.873015873015873,49.94708994708995" style="fill:none; stroke:#000011; stroke-width:1.0" /><polyline points="151.74603174603175,33.01587301587302 151.74603174603175,32.38095238095239 151.53439153439155,31.746031746031747 151.53439153439155,31.111111111111114 151.53439153439155,30.476190476190478 151.32275132275134,29.841269841269842 151.32275132275134,29.20634920634921 151.11111111111111,28.571428571428573 151.11111111111111,27.93650793650794 151.11111111111111,27.301587301587304 151.11111111111111,26.666666666666668 150.8994708994709,26.031746031746035 150.8994708994709,25.3968253968254 150.8994708994709,24.761904761904763 150.8994708994709,24.12698412698413" style="fill:none; stroke:#001100; stroke-width:1.0" /><polyline points="138.2010582010582,21.7989417989418 138.83597883597884,21.58730158730159 139.47089947089947,21.58730158730159 140.10582010582013,21.58730158730159 140.74074074074076,21.58730158730159 141.3756613756614,21.58730158730159 142.01058201058203,21.58730158730159 142.64550264550266,21.58730158730159 143.2804232804233,21.375661375661377 143.91534391534393,21.375661375661377 144.55026455026456,21.375661375661377 145.1851851851852,21.164021164021165 145.82010582010582,21.164021164021165 146.45502645502646,21.164021164021165 147.0899470899471,20.952380952380953" style="fill:none; stroke:#000011; stroke-width:1.0" /><polyline points="180.52910052910053,163.59788359788362 181.16402116402116,163.3862433862434 181.79894179894183,163.1746031746032 182.43386243386246,162.96296296296296 183.0687830687831,162.75132275132276 183.70370370370372,162.53968253968256 184.33862433862436,162.32804232804233 184.973544973545,162.11640211640213 185.60846560846562,161.90476190476193 186.03174603174605,161.4814814814815 186.66666666666669,161.4814814814815 187.30158730158732,161.05820105820106 187.93650793650795,160.84656084656086" style="fill:none; stroke:#001100; stroke-width:1.0" /><polyline points="190.47619047619048,147.93650793650795 190.47619047619048,148.57142857142858 190.47619047619048,149.20634920634922 190.6878306878307,149.84126984126985 190.6878306878307,150.47619047619048 190.6878306878307,151.11111111111111 190.6878306878307,151.74603174603175 190.6878306878307,152.38095238095238 190.6878306878307,153.01587301587304 190.6878306878307,153.65079365079367 190.6878306878307,154.2857142857143 190.8994708994709,154.92063492063494 190.8994708994709,155.55555555555557 191.11111111111111,156.1904761904762" style="fill:none; stroke:#000011; stroke-width:1.0" /><polyline points="70.26455026455027,193.43915343915344 70.47619047619048,194.07407407407408 70.6878306878307,194.70899470899474 70.8994708994709,195.34391534391537 71.32275132275133,195.978835978836 71.32275132275133,196.61375661375664 71.53439153439155,197.24867724867727 71.74603174603175,197.8835978835979 72.16931216931218,198.51851851851853 72.38095238095238,199.15343915343917 72.5925925925926,199.7883597883598 72.80423280423281,200.42328042328043 73.22751322751323,201.05820105820106" style="fill:none; stroke:#001100; stroke-width:1.0" /><polyline points="84.65608465608466,198.51851851851853 84.02116402116403,198.94179894179896 83.3862433862434,199.36507936507937 82.75132275132276,199.5767195767196 82.11640211640213,200.00000000000003 81.48148148148148,200.42328042328043 80.84656084656085,200.84656084656086 80.21164021164022,201.05820105820106 79.57671957671958,201.4814814814815 78.94179894179895,201.90476190476193 78.30687830687832,202.32804232804233 77.67195767195767,202.75132275132276" style="fill:none; stroke:#000011; stroke-width:1.0" /><polyline points="19.047619047619047,46.560846560846564 -1.26984126984127,40.423280423280424" style="fill:none; stroke:#ffaa00; stroke-width:0.4" /><polyline points="15.873015873015873,49.94708994708995 13.121693121693122,28.994708994708997" style="fill:none; stroke:#aaff00; stroke-width:0.4" /><polyline points="150.8994708994709,24.12698412698413 148.99470899470901,2.9629629629629632" style="fill:none; stroke:#ffaa00; stroke-width:0.4" /><polyline points="147.0899470899471,20.952380952380953 168.25396825396825,19.047619047619047" style="fill:none; stroke:#aaff00; stroke-width:0.4" /><polyline points="187.93650793650795,160.84656084656086 207.83068783068785,153.43915343915344" style="fill:none; stroke:#ffaa00; stroke-width:0.4" /><polyline points="191.11111111111111,156.1904761904762 192.8042328042328,177.35449735449737" style="fill:none; stroke:#aaff00; stroke-width:0.4" /><polyline points="73.22751322751323,201.05820105820106 80.84656084656085,220.74074074074076" style="fill:none; stroke:#ffaa00; stroke-width:0.4" /><polyline points="77.67195767195767,202.75132275132276 59.470899470899475,213.75661375661377" style="fill:none; stroke:#aaff00; stroke-width:0.4" /><circle cx="97.77777777777779" cy="109.62962962962963" r="1.0" style="fill:#444444; stroke-width:0" /><circle cx="77.03703703703704" cy="100.74074074074075" r="10.582010582010582" style="fill:#ff770022; stroke-width:0" /><circle cx="77.03703703703704" cy="100.74074074074075" r="1.0" style="fill:#ff7700; stroke-width:0" /></svg>