<?xml version="1.0" encoding="UTF-8" standalone="no"?><svg width="503.49206349206355" height="633.6507936507937" viewBox="-10 -10 187.83068783068785 231.21693121693124" xmlns="http://www.w3.org/2000/svg" xmlns:xlink="http://www.w3.org/1999/xlink"><polyline points="15.661375661375663,51.851851851851855 19.25925925925926,51.851851851851855 19.894179894179896,51.851851851851855 20.529100529100532,52.06349206349207 21.164021164021165,51.851851851851855 21.7989417989418,51.851851851851855 22.433862433862437,51.851851851851855 23.06878306878307,51.851851851851855 23.703703703703706,52.06349206349207 24.338624338624342,52.06349206349207 24.973544973544975,52.06349206349207 25.60846560846561,52.06349206349207 26.243386243386244,52.06349206349207 26.87830687830688,52.06349206349207 27.513227513227516,52.06349206349207 28.14814814814815,52.06349206349207 28.783068783068785,52.06349206349207 29.41798941798942,52.06349206349207 30.052910052910054,51.851851851851855 30.68783068783069,51.851851851851855 31.322751322751326,51.851851851851855 31.95767195767196,52.06349206349207 32.592592592592595,51.851851851851855 33.22751322751323,51.851851851851855 33.86243386243387,51.851851851851855 34.4973544973545,51.851851851851855 35.13227513227513,51.851851851851855 35.76719576719577,51.851851851851855 36.402116402116405,51.851851851851855 37.03703703703704,51.851851851851855 37.67195767195768,51.851851851851855 38.30687830687831,51.640211640211646 38.94179894179894,51.640211640211646 39.57671957671958,51.640211640211646 40.211640211640216,51.640211640211646 40.84656084656085,51.42857142857143 41.48148148148149,51.42857142857143 42.11640211640212,51.42857142857143 42.75132275132275,51.42857142857143 43.386243386243386,51.42857142857143 44.021164021164026,51.42857142857143 44.65608465608466,51.21693121693122 45.29100529100529,51.21693121693122 45.92592592592593,51.21693121693122 46.560846560846564,51.00529100529101 47.195767195767196,50.7936507936508 47.830687830687836,50.7936507936508 48.46560846560847,50.7936507936508 49.1005291005291,50.58201058201058 49.73544973544974,50.58201058201058 50.370370370370374,50.370370370370374 51.00529100529101,50.370370370370374 51.640211640211646,50.158730158730165 52.27513227513228,49.94708994708995 52.91005291005291,49.73544973544974 53.54497354497355,49.523809523809526 54.179894179894184,49.31216931216932 54.81481481481482,49.1005291005291 55.449735449735456,49.1005291005291 56.08465608465609,48.88888888888889 56.71957671957672,48.46560846560847 57.35449735449736,48.25396825396826 57.989417989417994,48.042328042328045 58.62433862433863,47.830687830687836 59.25925925925927,47.40740740740741 59.8941798941799,47.195767195767196 60.52910052910053,46.98412698412699 60.952380952380956,46.560846560846564 61.58730158730159,46.13756613756614 62.22222222222223,45.714285714285715 62.64550264550265,45.29100529100529 63.280423280423285,44.867724867724874 63.70370370370371,44.44444444444445 64.12698412698413,44.021164021164026 64.55026455026456,43.5978835978836 64.76190476190477,42.96296296296297 65.18518518518519,42.539682539682545 65.60846560846561,42.11640211640212 66.03174603174604,41.48148148148149 66.24338624338625,40.84656084656085 66.66666666666667,40.211640211640216 66.87830687830689,39.57671957671958 67.3015873015873,38.94179894179894 67.51322751322752,38.30687830687831 67.72486772486774,37.67195767195768 67.93650793650794,37.03703703703704 68.14814814814815,36.402116402116405 68.35978835978837,35.76719576719577 68.57142857142858,35.13227513227513 68.57142857142858,34.4973544973545 68.78306878306879,33.86243386243387 68.78306878306879,33.22751322751323 68.78306878306879,32.592592592592595 68.78306878306879,31.95767195767196 68.994708994709,31.322751322751326 68.78306878306879,30.68783068783069 68.78306878306879,30.052910052910054 68.78306878306879,29.41798941798942 68.57142857142858,28.783068783068785 68.35978835978837,28.14814814814815 68.35978835978837,27.513227513227516 68.14814814814815,26.87830687830688 67.93650793650794,26.243386243386244 67.72486772486774,25.60846560846561 67.3015873015873,24.973544973544975 67.08994708994709,24.338624338624342 66.87830687830689,23.703703703703706 66.45502645502646,23.06878306878307 66.24338624338625,22.433862433862437 65.82010582010582,21.7989417989418 65.60846560846561,21.164021164021165 65.18518518518519,20.529100529100532 64.97354497354497,19.894179894179896 64.55026455026456,19.25925925925926 64.12698412698413,18.624338624338627 63.91534391534392,17.98941798941799 63.70370370370371,17.354497354497354 63.280423280423285,16.71957671957672 63.06878306878308,16.084656084656086 62.85714285714286,15.449735449735451 62.85714285714286,14.814814814814817 62.64550264550265,14.17989417989418 62.64550264550265,13.544973544973546 62.64550264550265,12.910052910052912 62.64550264550265,12.275132275132275 62.43386243386244,11.640211640211641 62.64550264550265,11.005291005291006 62.64550264550265,10.370370370370372 62.85714285714286,9.735449735449736 63.06878306878308,9.100529100529101 63.492063492063494,8.465608465608467 63.70370370370371,7.830687830687832 64.12698412698413,7.195767195767196 64.33862433862434,6.560846560846561 64.76190476190477,5.9259259259259265 65.18518518518519,5.291005291005291 65.60846560846561,4.867724867724868 66.03174603174604,4.444444444444445 66.45502645502646,4.021164021164021 67.08994708994709,3.597883597883598 67.51322751322752,3.174603174603175 68.14814814814815,2.9629629629629632 68.57142857142858,2.53968253968254 69.20634920634922,2.1164021164021167 69.84126984126985,1.9047619047619049 70.47619047619048,1.6931216931216932 71.11111111111111,1.6931216931216932 71.74603174603175,1.4814814814814816 72.38095238095238,1.26984126984127 73.01587301587303,1.0582010582010584 73.65079365079366,1.0582010582010584 74.28571428571429,1.0582010582010584 74.92063492063492,1.0582010582010584 75.34391534391536,0.634920634920635 75.97883597883599,0.634920634920635 76.61375661375662,0.634920634920635 77.24867724867725,0.4232804232804233 77.88359788359789,0.4232804232804233 78.51851851851852,0.4232804232804233 79.15343915343917,0.4232804232804233 79.7883597883598,0.21164021164021166 80.42328042328043,0.21164021164021166 81.05820105820106,0.21164021164021166 81.6931216931217,0.4232804232804233 82.32804232804233,0.21164021164021166 82.96296296296298,0.4232804232804233 83.59788359788361,0.4232804232804233 84.23280423280424,0.4232804232804233 84.86772486772487,0.634920634920635 85.5026455026455,0.634920634920635 86.13756613756614,0.634920634920635 86.77248677248677,0.634920634920635 87.40740740740742,0.8465608465608466 88.04232804232805,1.0582010582010584 88.67724867724868,1.0582010582010584 89.1005291005291,1.4814814814814816 89.73544973544975,1.4814814814814816 90.37037037037038,1.9047619047619049 91.00529100529101,2.1164021164021167 91.64021164021165,2.3280423280423284 92.27513227513228,2.53968253968254 92.91005291005291,2.9629629629629632 93.54497354497356,3.3862433862433865 94.17989417989419,3.8095238095238098 94.81481481481482,4.2328042328042335 95.44973544973546,4.656084656084657 95.87301587301587,5.07936507936508 96.50793650793652,5.502645502645503 96.93121693121694,5.9259259259259265 97.35449735449737,6.34920634920635 97.77777777777779,6.772486772486773 98.2010582010582,7.407407407407408 98.41269841269842,8.042328042328043 98.83597883597885,8.677248677248677 99.04761904761905,9.312169312169313 99.04761904761905,9.947089947089948 99.25925925925927,10.582010582010582 99.47089947089948,11.216931216931219 99.68253968253968,11.851851851851853 99.68253968253968,12.486772486772487 99.68253968253968,13.121693121693122 99.68253968253968,13.756613756613758 99.68253968253968,14.391534391534393 99.68253968253968,15.026455026455027 99.47089947089948,15.661375661375663 99.47089947089948,16.296296296296298 99.47089947089948,16.931216931216934 99.47089947089948,17.566137566137566 99.25925925925927,18.201058201058203 99.25925925925927,18.83597883597884 99.04761904761905,19.47089947089947 99.04761904761905,20.105820105820108 98.83597883597885,20.740740740740744 98.62433862433863,21.375661375661377 98.41269841269842,22.010582010582013 98.2010582010582,22.645502645502646 97.989417989418,23.280423280423282 97.56613756613757,23.915343915343918 97.14285714285715,24.55026455026455 96.71957671957672,25.185185185185187 96.2962962962963,25.820105820105823 95.87301587301587,26.243386243386244 95.44973544973546,26.87830687830688 95.02645502645504,27.301587301587304 94.60317460317461,27.724867724867728 94.17989417989419,28.14814814814815 93.75661375661376,28.783068783068785 93.33333333333334,29.20634920634921 92.91005291005291,29.629629629629633 92.4867724867725,30.264550264550266 92.06349206349208,30.68783068783069 91.64021164021165,31.322751322751326 91.21693121693123,31.95767195767196 91.00529100529101,32.592592592592595 90.7936507936508,33.22751322751323 90.58201058201058,33.86243386243387 90.37037037037038,34.4973544973545 90.15873015873017,35.13227513227513 90.15873015873017,35.76719576719577 90.15873015873017,36.402116402116405 89.94708994708995,37.03703703703704 89.94708994708995,37.67195767195768 90.15873015873017,38.30687830687831 90.15873015873017,38.94179894179894 90.37037037037038,39.57671957671958 90.58201058201058,40.211640211640216 90.7936507936508,40.84656084656085 91.00529100529101,41.48148148148149 91.42857142857143,42.11640211640212 91.85185185185186,42.539682539682545 92.06349206349208,43.17460317460318 92.4867724867725,43.5978835978836 92.91005291005291,44.232804232804234 93.33333333333334,44.65608465608466 93.75661375661376,45.07936507936508 94.17989417989419,45.50264550264551 94.81481481481482,45.92592592592593 95.44973544973546,46.349206349206355 95.87301587301587,46.77248677248678 96.50793650793652,46.77248677248678 97.14285714285715,47.195767195767196 97.77777777777779,47.61904761904762 98.41269841269842,47.830687830687836 99.04761904761905,48.25396825396826 99.68253968253968,48.25396825396826 100.31746031746033,48.46560846560847 100.95238095238096,48.88888888888889 101.5873015873016,49.31216931216932 102.22222222222223,49.523809523809526 102.85714285714286,49.73544973544974 103.4920634920635,50.158730158730165 104.12698412698414,50.370370370370374 104.76190476190477,50.58201058201058 105.3968253968254,50.7936507936508 106.03174603174604,51.00529100529101 106.66666666666667,51.42857142857143 107.3015873015873,51.42857142857143 107.93650793650795,51.42857142857143 108.57142857142858,51.640211640211646 109.20634920634922,51.851851851851855 109.84126984126985,51.851851851851855 110.47619047619048,52.06349206349207 111.11111111111111,52.06349206349207 111.74603174603176,52.27513227513228 112.3809523809524,52.27513227513228 113.01587301587303,52.27513227513228 113.65079365079366,52.48677248677249 114.28571428571429,52.48677248677249 114.92063492063492,52.48677248677249 115.55555555555557,52.6984126984127 116.1904761904762,52.6984126984127 116.82539682539684,52.6984126984127 117.46031746031747,52.6984126984127 118.0952380952381,52.6984126984127 118.73015873015873,52.6984126984127 119.36507936507937,52.6984126984127 120.00000000000001,52.6984126984127 120.63492063492065,52.91005291005291 121.26984126984128,52.6984126984127 121.90476190476191,52.91005291005291 122.53968253968254,52.91005291005291 123.17460317460318,52.91005291005291 123.80952380952382,52.91005291005291 124.44444444444446,52.91005291005291 125.07936507936509,52.91005291005291 125.71428571428572,53.12169312169313 126.34920634920636,53.12169312169313 126.98412698412699,53.12169312169313 127.61904761904763,53.12169312169313 128.25396825396825,53.12169312169313 128.88888888888889,53.12169312169313 129.52380952380955,53.12169312169313 130.15873015873018,53.333333333333336 130.7936507936508,53.333333333333336 131.42857142857144,53.333333333333336 132.06349206349208,53.333333333333336 132.6984126984127,53.333333333333336 133.33333333333334,53.333333333333336 133.96825396825398,53.333333333333336 134.6031746031746,53.12169312169313 135.23809523809524,53.333333333333336 135.87301587301587,53.333333333333336 136.5079365079365,53.333333333333336 137.14285714285717,53.333333333333336 137.7777777777778,53.333333333333336 138.41269841269843,53.333333333333336 139.04761904761907,53.54497354497355 139.6825396825397,53.54497354497355 140.31746031746033,53.54497354497355 140.95238095238096,53.54497354497355 141.5873015873016,53.75661375661376 142.22222222222223,53.75661375661376 142.85714285714286,53.75661375661376 143.4920634920635,53.968253968253975 144.12698412698413,53.968253968253975 144.76190476190476,53.968253968253975 145.39682539682542,54.179894179894184 146.03174603174605,54.179894179894184 146.66666666666669,54.179894179894184 147.30158730158732,54.39153439153439 147.93650793650795,54.39153439153439 148.57142857142858,54.39153439153439 149.20634920634922,54.39153439153439 149.84126984126985,54.60317460317461 150.47619047619048,54.60317460317461 151.11111111111111,54.81481481481482 151.74603174603175,54.81481481481482 152.38095238095238,54.81481481481482 153.01587301587304,54.81481481481482 153.65079365079367,54.81481481481482 154.2857142857143,54.81481481481482 154.92063492063494,55.02645502645503 155.55555555555557,55.02645502645503 156.1904761904762,55.02645502645503 156.82539682539684,55.23809523809524 157.46031746031747,55.23809523809524 158.0952380952381,55.23809523809524 158.73015873015873,55.23809523809524 159.36507936507937,55.23809523809524 160.0,55.23809523809524 160.63492063492066,55.23809523809524 161.2698412698413,55.449735449735456 161.90476190476193,55.449735449735456 162.53968253968256,55.449735449735456 163.1746031746032,55.449735449735456 163.80952380952382,55.449735449735456 164.44444444444446,55.449735449735456 167.83068783068785,55.661375661375665" style="fill:none; stroke:#cc0000; stroke-width:1.0"  /><polyline points="167.83068783068785,55.661375661375665 166.56084656084658,59.25925925925927 166.34920634920636,59.8941798941799 166.13756613756615,60.52910052910053 165.92592592592595,61.16402116402117 165.71428571428572,61.798941798941804 165.50264550264552,62.43386243386244 165.2910052910053,63.06878306878308 165.0793650793651,63.70370370370371 164.65608465608466,64.33862433862434 164.65608465608466,64.97354497354497 164.44444444444446,65.60846560846561 164.23280423280426,66.24338624338625 164.02116402116403,66.87830687830689 163.80952380952382,67.51322751322752 163.59788359788362,68.14814814814815 163.3862433862434,68.78306878306879 163.1746031746032,69.41798941798942 162.96296296296296,70.05291005291006 162.75132275132276,70.6878306878307 162.53968253968256,71.32275132275133 162.32804232804233,71.95767195767196 162.11640211640213,72.5925925925926 161.90476190476193,73.22751322751323 161.6931216931217,73.86243386243387 161.2698412698413,74.49735449735451 161.05820105820106,75.13227513227514 160.84656084656086,75.76719576719577 160.63492063492066,76.4021164021164 160.42328042328043,77.03703703703704 160.21164021164023,77.67195767195767 160.0,78.30687830687832 159.7883597883598,78.94179894179895 159.5767195767196,79.57671957671958 159.36507936507937,80.21164021164022 159.15343915343917,80.84656084656085 159.15343915343917,81.48148148148148 158.73015873015873,82.11640211640213 158.51851851851853,82.75132275132276 158.30687830687833,83.3862433862434 158.0952380952381,84.02116402116403 157.67195767195767,84.65608465608466 157.46031746031747,85.29100529100529 157.24867724867727,85.92592592592594 157.03703703703704,86.56084656084657 156.82539682539684,87.1957671957672 156.4021164021164,87.83068783068784 156.1904761904762,88.46560846560847 155.76719576719577,89.1005291005291 155.55555555555557,89.73544973544975 155.13227513227514,90.37037037037038 154.92063492063494,91.00529100529101 154.4973544973545,91.64021164021165 154.2857142857143,92.27513227513228 153.86243386243387,92.91005291005291 153.43915343915344,93.54497354497356 153.01587301587304,94.17989417989419 152.5925925925926,94.81481481481482 152.16931216931218,95.44973544973546 151.74603174603175,96.08465608465609 151.32275132275134,96.71957671957672 150.8994708994709,97.35449735449737 150.47619047619048,97.77777777777779 149.84126984126985,98.2010582010582 149.41798941798942,98.83597883597885 149.20634920634922,99.47089947089948 148.78306878306879,99.8941798941799 148.35978835978838,100.31746031746033 147.93650793650795,100.95238095238096 147.51322751322752,101.37566137566138 147.0899470899471,101.79894179894181 146.66666666666669,102.22222222222223 146.24338624338625,102.64550264550266 145.60846560846562,103.06878306878308 145.1851851851852,103.4920634920635 144.76190476190476,103.91534391534393 144.33862433862436,104.33862433862434 143.91534391534393,104.76190476190477 143.2804232804233,105.18518518518519 142.64550264550266,105.60846560846562 142.01058201058203,106.03174603174604 141.3756613756614,106.45502645502647 140.74074074074076,106.66666666666667 140.10582010582013,106.87830687830689 139.47089947089947,107.0899470899471 138.83597883597884,107.3015873015873 138.2010582010582,107.3015873015873 137.56613756613757,107.3015873015873 136.93121693121694,107.3015873015873 136.2962962962963,107.0899470899471 135.66137566137567,107.0899470899471 135.02645502645504,106.87830687830689 134.3915343915344,107.0899470899471 133.75661375661377,106.87830687830689 133.12169312169314,106.66666666666667 132.4867724867725,106.45502645502647 131.85185185185185,106.24338624338625 131.21693121693121,106.03174603174604 130.58201058201058,105.60846560846562 129.94708994708995,105.3968253968254 129.31216931216932,105.18518518518519 128.88888888888889,104.76190476190477 128.25396825396825,104.33862433862434 127.61904761904763,103.91534391534393 126.98412698412699,103.70370370370371 126.56084656084657,103.28042328042329 125.92592592592594,102.85714285714286 125.2910052910053,102.43386243386244 124.65608465608466,102.22222222222223 124.23280423280424,101.79894179894181 123.59788359788361,101.5873015873016 122.96296296296298,101.37566137566138 122.32804232804234,100.95238095238096 121.6931216931217,100.74074074074075 121.05820105820106,100.52910052910053 120.42328042328043,100.31746031746033 119.7883597883598,100.10582010582011 119.15343915343917,99.8941798941799 118.51851851851853,99.8941798941799 117.88359788359789,99.68253968253968 117.24867724867725,99.47089947089948 116.61375661375662,99.47089947089948 115.97883597883599,99.47089947089948 115.34391534391536,99.25925925925927 114.70899470899472,99.25925925925927 114.07407407407408,99.25925925925927 113.43915343915344,99.47089947089948 112.80423280423281,99.47089947089948 112.16931216931218,99.47089947089948 111.53439153439155,99.68253968253968 110.89947089947091,99.8941798941799 110.26455026455027,100.31746031746033 109.62962962962963,100.52910052910053 108.994708994709,100.95238095238096 108.35978835978837,101.37566137566138 107.93650793650795,101.79894179894181 107.3015873015873,102.22222222222223 106.87830687830689,102.64550264550266 106.45502645502647,103.06878306878308 106.03174603174604,103.4920634920635 105.60846560846562,103.91534391534393 105.18518518518519,104.33862433862434 104.76190476190477,104.76190476190477 104.33862433862434,105.3968253968254 103.91534391534393,106.03174603174604 103.4920634920635,106.66666666666667 103.06878306878308,107.3015873015873 102.64550264550266,107.93650793650795 102.22222222222223,108.57142857142858 101.79894179894181,109.20634920634922 101.5873015873016,109.84126984126985 101.16402116402116,110.47619047619048 100.95238095238096,111.11111111111111 100.74074074074075,111.74603174603176 100.52910052910053,112.3809523809524 100.31746031746033,113.01587301587303 100.10582010582011,113.65079365079366 99.8941798941799,114.28571428571429 99.68253968253968,114.92063492063492 99.68253968253968,115.55555555555557 99.68253968253968,116.1904761904762 99.68253968253968,116.82539682539684 99.68253968253968,117.46031746031747 99.68253968253968,118.0952380952381 99.47089947089948,118.73015873015873 99.47089947089948,119.36507936507937 99.47089947089948,120.00000000000001 99.25925925925927,120.63492063492065 99.25925925925927,121.26984126984128 99.25925925925927,121.90476190476191 99.25925925925927,122.53968253968254 99.25925925925927,123.17460317460318 99.25925925925927,123.80952380952382 99.25925925925927,124.44444444444446 99.25925925925927,125.07936507936509 99.25925925925927,125.71428571428572 99.25925925925927,126.34920634920636 99.25925925925927,126.98412698412699 99.47089947089948,127.61904761904763 99.47089947089948,128.25396825396825 99.68253968253968,128.88888888888889 99.8941798941799,129.52380952380955 100.10582010582011,130.15873015873018 100.31746031746033,130.7936507936508 100.52910052910053,131.42857142857144 100.95238095238096,131.85185185185185 101.16402116402116,132.4867724867725 101.5873015873016,132.9100529100529 102.01058201058201,133.33333333333334 102.43386243386244,133.75661375661377 102.85714285714286,134.17989417989418 103.28042328042329,134.6031746031746 103.91534391534393,134.81481481481484 104.33862433862434,135.23809523809524 104.97354497354497,135.66137566137567 105.60846560846562,135.66137566137567 106.03174603174604,136.0846560846561 106.66666666666667,136.0846560846561 107.3015873015873,136.2962962962963 107.93650793650795,136.2962962962963 108.57142857142858,136.5079365079365 109.20634920634922,136.71957671957674 109.84126984126985,136.93121693121694 110.47619047619048,136.93121693121694 111.11111111111111,136.93121693121694 111.74603174603176,137.14285714285717 112.3809523809524,137.14285714285717 113.01587301587303,137.35449735449737 113.65079365079366,137.35449735449737 114.28571428571429,137.35449735449737 114.92063492063492,137.14285714285717 115.55555555555557,137.14285714285717 116.1904761904762,137.14285714285717 116.82539682539684,137.14285714285717 117.46031746031747,137.14285714285717 118.0952380952381,137.14285714285717 118.73015873015873,137.14285714285717 119.36507936507937,136.93121693121694 120.00000000000001,136.71957671957674 120.63492063492065,136.71957671957674 121.26984126984128,136.5079365079365 121.90476190476191,136.5079365079365 122.53968253968254,136.2962962962963 123.17460317460318,136.0846560846561 123.80952380952382,135.87301587301587 124.44444444444446,135.87301587301587 124.86772486772487,135.44973544973547 125.5026455026455,135.44973544973547 126.13756613756615,135.23809523809524 126.77248677248679,135.02645502645504 127.40740740740742,134.81481481481484 128.04232804232805,134.6031746031746 128.67724867724868,134.3915343915344 129.31216931216932,134.17989417989418 129.94708994708995,133.96825396825398 130.58201058201058,133.75661375661377 131.21693121693121,133.75661375661377 131.85185185185185,133.75661375661377 132.4867724867725,133.54497354497354 133.12169312169314,133.54497354497354 133.75661375661377,133.54497354497354 134.3915343915344,133.75661375661377 135.02645502645504,133.54497354497354 135.66137566137567,133.75661375661377 136.2962962962963,133.96825396825398 136.93121693121694,134.3915343915344 137.35449735449737,134.81481481481484 137.7777777777778,135.23809523809524 138.2010582010582,135.66137566137567 138.62433862433863,136.2962962962963 138.83597883597884,136.93121693121694 139.04761904761907,137.56613756613757 139.25925925925927,138.2010582010582 139.47089947089947,138.83597883597884 139.6825396825397,139.47089947089947 139.6825396825397,140.10582010582013 139.8941798941799,140.74074074074076 139.8941798941799,141.3756613756614 139.8941798941799,142.01058201058203 139.8941798941799,142.64550264550266 139.8941798941799,143.2804232804233 139.8941798941799,143.91534391534393 139.6825396825397,144.55026455026456 139.6825396825397,145.1851851851852 139.6825396825397,145.82010582010582 139.47089947089947,146.45502645502646 139.47089947089947,147.0899470899471 139.25925925925927,147.72486772486775 139.25925925925927,148.35978835978838 139.04761904761907,148.99470899470901 139.04761904761907,149.62962962962965 138.83597883597884,150.26455026455028 138.83597883597884,150.8994708994709 138.83597883597884,151.53439153439155 138.62433862433863,152.16931216931218 138.62433862433863,152.8042328042328 138.41269841269843,153.43915343915344 138.41269841269843,154.07407407407408 138.2010582010582,154.7089947089947 137.989417989418,155.34391534391534 137.989417989418,155.978835978836 137.7777777777778,156.61375661375664 137.56613756613757,157.24867724867727 137.56613756613757,157.8835978835979 137.35449735449737,158.51851851851853 137.14285714285717,159.15343915343917 137.14285714285717,159.7883597883598 136.93121693121694,160.42328042328043 136.71957671957674,161.05820105820106 136.5079365079365,161.6931216931217 136.5079365079365,162.32804232804233 136.2962962962963,162.96296296296296 136.0846560846561,163.59788359788362 135.87301587301587,164.23280423280426 135.66137566137567,164.8677248677249 135.66137566137567,165.50264550264552 135.44973544973547,166.13756613756615 135.23809523809524,166.7724867724868 135.02645502645504,167.40740740740742 135.02645502645504,168.04232804232805 134.81481481481484,168.67724867724868 134.6031746031746,169.31216931216932 134.6031746031746,169.94708994708995 134.3915343915344,170.58201058201058 134.17989417989418,171.21693121693124 133.96825396825398,171.85185185185188 133.96825396825398,172.4867724867725 133.75661375661377,173.12169312169314 133.75661375661377,173.75661375661377 133.54497354497354,174.3915343915344 133.33333333333334,175.02645502645504 133.12169312169314,175.66137566137567 133.12169312169314,176.2962962962963 132.9100529100529,176.93121693121694 132.9100529100529,177.56613756613757 132.6984126984127,178.2010582010582 132.6984126984127,178.83597883597884 132.4867724867725,179.4708994708995 132.4867724867725,180.10582010582013 132.27513227513228,180.74074074074076 132.27513227513228,181.3756613756614 132.27513227513228,182.01058201058203 132.06349206349208,182.64550264550266 132.06349206349208,183.2804232804233 132.06349206349208,183.91534391534393 132.06349206349208,184.55026455026456 132.06349206349208,185.1851851851852 131.85185185185185,185.82010582010582 132.06349206349208,186.45502645502646 132.06349206349208,187.08994708994712 132.06349206349208,187.72486772486775 132.06349206349208,188.35978835978838 132.06349206349208,188.99470899470901 132.06349206349208,189.62962962962965 132.06349206349208,190.26455026455028 132.06349206349208,190.8994708994709 132.06349206349208,191.53439153439155 132.06349206349208,192.16931216931218 132.06349206349208,192.8042328042328 132.06349206349208,193.43915343915344 132.06349206349208,194.07407407407408 132.06349206349208,194.70899470899474 132.06349206349208,195.34391534391537 132.06349206349208,195.978835978836 132.06349206349208,196.61375661375664 132.06349206349208,197.24867724867727 132.06349206349208,200.21164021164023" style="fill:none; stroke:#999900; stroke-width:1.0"  /><polyline points="132.06349206349208,200.21164021164023 128.46560846560848,200.00000000000003 127.83068783068784,200.00000000000003 127.1957671957672,200.00000000000003 126.56084656084657,200.00000000000003 125.92592592592594,199.7883597883598 125.2910052910053,199.7883597883598 124.65608465608466,199.7883597883598 124.02116402116403,199.7883597883598 123.3862433862434,199.7883597883598 122.75132275132276,199.5767195767196 122.11640211640213,199.5767195767196 121.4814814814815,199.36507936507937 120.84656084656086,199.36507936507937 120.21164021164022,199.36507936507937 119.57671957671958,199.15343915343917 118.94179894179895,199.15343915343917 118.30687830687832,199.15343915343917 117.67195767195768,199.15343915343917 117.03703703703705,199.15343915343917 116.4021164021164,198.94179894179896 115.76719576719577,198.94179894179896 115.13227513227514,198.94179894179896 114.49735449735451,198.94179894179896 113.86243386243387,198.73015873015873 113.22751322751324,198.73015873015873 112.5925925925926,198.73015873015873 111.95767195767196,198.73015873015873 111.32275132275133,198.73015873015873 110.6878306878307,198.73015873015873 110.05291005291006,198.73015873015873 109.41798941798943,198.73015873015873 108.78306878306879,198.73015873015873 108.14814814814815,198.73015873015873 107.51322751322752,198.73015873015873 106.87830687830689,198.73015873015873 106.24338624338625,198.73015873015873 105.60846560846562,198.73015873015873 104.97354497354497,198.94179894179896 104.33862433862434,198.94179894179896 103.70370370370371,198.94179894179896 103.06878306878308,198.94179894179896 102.43386243386244,199.15343915343917 101.79894179894181,199.15343915343917 101.16402116402116,199.36507936507937 100.52910052910053,199.36507936507937 99.8941798941799,199.7883597883598 99.25925925925927,199.7883597883598 98.62433862433863,200.00000000000003 97.989417989418,200.21164021164023 97.35449735449737,200.42328042328043 96.71957671957672,200.42328042328043 96.08465608465609,200.63492063492066 95.44973544973546,200.63492063492066 94.81481481481482,200.84656084656086 94.17989417989419,201.05820105820106 93.54497354497356,201.2698412698413 92.91005291005291,201.4814814814815 92.27513227513228,201.6931216931217 91.64021164021165,201.90476190476193 91.00529100529101,202.11640211640213 90.37037037037038,202.53968253968256 89.73544973544975,202.75132275132276 89.31216931216932,203.1746031746032 88.67724867724868,203.3862433862434 88.04232804232805,203.80952380952382 87.40740740740742,204.23280423280426 86.77248677248677,204.65608465608466 86.13756613756614,204.8677248677249 85.71428571428572,205.29100529100532 85.07936507936509,205.50264550264552 84.44444444444446,205.71428571428572 83.80952380952381,205.92592592592595 83.17460317460318,206.13756613756615 82.53968253968254,206.34920634920636 81.90476190476191,206.34920634920636 81.26984126984128,206.34920634920636 80.63492063492065,206.34920634920636 80.0,206.34920634920636 79.36507936507937,206.34920634920636 78.73015873015873,206.13756613756615 78.0952380952381,206.13756613756615 77.46031746031747,205.71428571428572 76.82539682539684,205.50264550264552 76.19047619047619,205.0793650793651 75.76719576719577,204.44444444444446 75.34391534391536,204.02116402116403 75.13227513227514,203.3862433862434 74.92063492063492,202.75132275132276 74.92063492063492,202.11640211640213 74.92063492063492,201.4814814814815 74.92063492063492,200.84656084656086 75.13227513227514,200.21164021164023 75.34391534391536,199.5767195767196 75.55555555555556,198.94179894179896 75.76719576719577,198.30687830687833 75.97883597883599,197.6719576719577 76.4021164021164,197.03703703703704 76.61375661375662,196.4021164021164 77.03703703703704,195.76719576719577 77.24867724867725,195.13227513227514 77.67195767195767,194.4973544973545 77.88359788359789,193.86243386243387 78.30687830687832,193.22751322751324 78.51851851851852,192.5925925925926 78.94179894179895,191.95767195767198 79.15343915343917,191.32275132275134 79.57671957671958,190.6878306878307 79.7883597883598,190.05291005291008 80.21164021164022,189.41798941798945 80.42328042328043,188.78306878306879 80.63492063492065,188.14814814814815 81.05820105820106,187.51322751322752 81.26984126984128,186.8783068783069 81.26984126984128,186.24338624338625 81.26984126984128,185.60846560846562 81.48148148148148,184.973544973545 81.6931216931217,184.33862433862436 81.6931216931217,183.70370370370372 81.6931216931217,183.0687830687831 81.90476190476191,182.43386243386246 81.90476190476191,181.79894179894183 81.90476190476191,181.16402116402116 81.90476190476191,180.52910052910053 81.90476190476191,179.8941798941799 81.90476190476191,179.25925925925927 81.6931216931217,178.62433862433863 81.6931216931217,177.989417989418 81.48148148148148,177.35449735449737 81.26984126984128,176.71957671957674 81.05820105820106,176.0846560846561 80.63492063492065,175.66137566137567 80.42328042328043,175.02645502645504 80.0,174.3915343915344 79.57671957671958,173.75661375661377 79.15343915343917,173.12169312169314 78.73015873015873,172.6984126984127 78.30687830687832,172.27513227513228 77.88359788359789,171.85185185185188 77.46031746031747,171.42857142857144 77.03703703703704,171.005291005291 76.4021164021164,170.58201058201058 75.76719576719577,170.15873015873018 75.13227513227514,169.73544973544975 74.49735449735451,169.52380952380955 73.86243386243387,169.10052910052912 73.22751322751323,168.8888888888889 72.5925925925926,168.67724867724868 71.95767195767196,168.46560846560848 71.32275132275133,168.25396825396825 70.6878306878307,168.04232804232805 70.05291005291006,167.83068783068785 69.41798941798942,167.61904761904762 68.78306878306879,167.40740740740742 68.14814814814815,167.40740740740742 67.51322751322752,167.19576719576722 66.87830687830689,166.984126984127 66.24338624338625,166.984126984127 65.60846560846561,166.7724867724868 64.97354497354497,166.7724867724868 64.33862433862434,166.984126984127 63.70370370370371,166.7724867724868 63.06878306878308,166.7724867724868 62.43386243386244,166.7724867724868 61.798941798941804,166.56084656084658 61.16402116402117,166.56084656084658 60.52910052910053,166.34920634920636 59.8941798941799,166.34920634920636 59.25925925925927,166.34920634920636 58.62433862433863,166.34920634920636 57.989417989417994,166.34920634920636 57.35449735449736,166.56084656084658 56.71957671957672,166.56084656084658 56.08465608465609,166.56084656084658 55.449735449735456,166.56084656084658 54.81481481481482,166.7724867724868 54.179894179894184,166.984126984127 53.54497354497355,166.984126984127 52.91005291005291,166.984126984127 52.27513227513228,167.19576719576722 51.640211640211646,167.40740740740742 51.00529100529101,167.40740740740742 50.370370370370374,167.61904761904762 49.73544973544974,167.83068783068785 49.1005291005291,168.04232804232805 48.46560846560847,168.25396825396825 47.830687830687836,168.46560846560848 47.195767195767196,168.8888888888889 46.560846560846564,169.10052910052912 45.92592592592593,169.52380952380955 45.29100529100529,169.94708994708995 44.867724867724874,170.37037037037038 44.232804232804234,170.7936507936508 43.80952380952381,171.21693121693124 43.386243386243386,171.64021164021165 42.96296296296297,172.06349206349208 42.539682539682545,172.4867724867725 42.11640211640212,172.9100529100529 41.6931216931217,173.54497354497354 41.26984126984127,174.1798941798942 41.058201058201064,174.81481481481484 40.63492063492064,175.44973544973547 40.423280423280424,176.0846560846561 40.211640211640216,176.71957671957674 40.0,177.35449735449737 39.78835978835979,177.989417989418 39.57671957671958,178.62433862433863 39.57671957671958,179.25925925925927 39.36507936507937,179.8941798941799 39.36507936507937,180.52910052910053 39.36507936507937,181.16402116402116 39.36507936507937,181.79894179894183 39.15343915343916,182.43386243386246 39.15343915343916,183.0687830687831 39.36507936507937,183.70370370370372 39.36507936507937,184.33862433862436 39.57671957671958,184.973544973545 39.78835978835979,185.60846560846562 40.0,186.24338624338625 40.211640211640216,186.8783068783069 40.423280423280424,187.51322751322752 40.63492063492064,188.14814814814815 41.058201058201064,188.78306878306879 41.48148148148149,189.41798941798945 41.904761904761905,190.05291005291008 42.32804232804233,190.47619047619048 42.75132275132275,191.11111111111111 43.17460317460318,191.53439153439155 43.5978835978836,191.95767195767198 44.021164021164026,192.3809523809524 44.44444444444445,192.8042328042328 44.867724867724874,193.22751322751324 45.29100529100529,193.65079365079367 45.714285714285715,194.07407407407408 46.13756613756614,194.70899470899474 46.349206349206355,195.34391534391537 46.77248677248678,195.978835978836 46.98412698412699,196.61375661375664 46.98412698412699,197.24867724867727 47.195767195767196,197.8835978835979 47.195767195767196,198.51851851851853 47.195767195767196,199.15343915343917 47.195767195767196,199.7883597883598 47.195767195767196,200.42328042328043 47.195767195767196,201.05820105820106 46.98412698412699,201.6931216931217 46.77248677248678,202.32804232804233 46.560846560846564,202.962962962963 46.13756613756614,203.3862433862434 45.714285714285715,203.80952380952382 45.29100529100529,204.23280423280426 44.65608465608466,204.65608465608466 44.021164021164026,205.0793650793651 43.386243386243386,205.29100529100532 42.75132275132275,205.50264550264552 42.11640211640212,205.92592592592595 41.48148148148149,206.13756613756615 40.84656084656085,206.34920634920636 40.211640211640216,206.56084656084658 39.57671957671958,206.7724867724868 38.94179894179894,206.984126984127 38.30687830687831,207.19576719576722 37.67195767195768,207.40740740740742 37.03703703703704,207.61904761904765 36.402116402116405,207.83068783068785 35.76719576719577,208.04232804232805 35.13227513227513,208.25396825396828 34.4973544973545,208.46560846560848 33.86243386243387,208.67724867724868 33.22751322751323,208.67724867724868 32.592592592592595,208.8888888888889 31.95767195767196,209.10052910052912 31.322751322751326,209.10052910052912 30.68783068783069,209.31216931216932 30.052910052910054,209.73544973544975 29.41798941798942,209.73544973544975 28.783068783068785,209.94708994708995 28.14814814814815,209.94708994708995 27.513227513227516,210.15873015873018 26.87830687830688,210.15873015873018 26.243386243386244,210.37037037037038 25.60846560846561,210.37037037037038 24.973544973544975,210.5820105820106 24.338624338624342,210.5820105820106 23.703703703703706,210.5820105820106 23.06878306878307,210.5820105820106 22.433862433862437,210.5820105820106 21.7989417989418,210.7936507936508 21.164021164021165,210.7936507936508 20.529100529100532,210.7936507936508 19.894179894179896,210.7936507936508 19.25925925925926,210.7936507936508 18.624338624338627,210.7936507936508 17.98941798941799,210.7936507936508 17.354497354497354,210.7936507936508 16.71957671957672,210.7936507936508 16.084656084656086,210.7936507936508 15.449735449735451,210.7936507936508 14.814814814814817,210.7936507936508 14.17989417989418,210.7936507936508 13.544973544973546,210.7936507936508 12.910052910052912,210.5820105820106 12.275132275132275,210.5820105820106 11.640211640211641,210.5820105820106 8.677248677248677,210.5820105820106" style="fill:none; stroke:#00aa99; stroke-width:1.0"  /><polyline points="8.677248677248677,210.5820105820106 8.88888888888889,206.984126984127 9.100529100529101,206.34920634920636 9.100529100529101,205.71428571428572 9.100529100529101,205.0793650793651 9.100529100529101,204.44444444444446 9.312169312169313,203.80952380952382 9.312169312169313,203.1746031746032 9.312169312169313,202.53968253968256 9.312169312169313,201.90476190476193 9.312169312169313,201.2698412698413 9.312169312169313,200.63492063492066 9.312169312169313,200.00000000000003 9.523809523809524,199.36507936507937 9.523809523809524,198.73015873015873 9.523809523809524,198.0952380952381 9.523809523809524,197.46031746031747 9.523809523809524,196.82539682539684 9.312169312169313,196.1904761904762 9.312169312169313,195.55555555555557 9.523809523809524,194.92063492063494 9.523809523809524,194.2857142857143 9.523809523809524,193.65079365079367 9.312169312169313,193.01587301587304 9.312169312169313,192.3809523809524 9.312169312169313,191.74603174603175 9.312169312169313,191.11111111111111 9.312169312169313,190.47619047619048 9.312169312169313,189.84126984126985 9.100529100529101,189.20634920634922 9.100529100529101,188.57142857142858 9.100529100529101,187.93650793650795 9.100529100529101,187.30158730158732 8.88888888888889,186.66666666666669 8.677248677248677,186.03174603174605 8.677248677248677,185.39682539682542 8.677248677248677,184.7619047619048 8.465608465608467,184.12698412698415 8.465608465608467,183.4920634920635 8.465608465608467,182.85714285714286 8.253968253968255,182.22222222222223 8.253968253968255,181.5873015873016 8.042328042328043,180.95238095238096 8.042328042328043,180.31746031746033 7.830687830687832,179.6825396825397 7.830687830687832,179.04761904761907 7.830687830687832,178.41269841269843 7.6190476190476195,177.7777777777778 7.6190476190476195,177.14285714285717 7.407407407407408,176.50793650793653 7.407407407407408,175.87301587301587 7.195767195767196,175.23809523809524 6.984126984126985,174.6031746031746 6.984126984126985,173.96825396825398 6.772486772486773,173.33333333333334 6.772486772486773,172.6984126984127 6.560846560846561,172.06349206349208 6.34920634920635,171.42857142857144 6.34920634920635,170.7936507936508 6.137566137566138,170.15873015873018 5.9259259259259265,169.52380952380955 5.9259259259259265,168.8888888888889 5.714285714285714,168.25396825396825 5.502645502645503,167.61904761904762 5.291005291005291,166.984126984127 5.291005291005291,166.34920634920636 5.07936507936508,165.71428571428572 4.867724867724868,165.0793650793651 4.656084656084657,164.44444444444446 4.444444444444445,163.80952380952382 4.2328042328042335,163.1746031746032 4.2328042328042335,162.53968253968256 4.021164021164021,161.90476190476193 3.8095238095238098,161.2698412698413 3.597883597883598,160.63492063492066 3.3862433862433865,160.0 3.174603174603175,159.36507936507937 3.174603174603175,158.73015873015873 2.9629629629629632,158.0952380952381 2.7513227513227516,157.46031746031747 2.53968253968254,156.82539682539684 2.53968253968254,156.1904761904762 2.3280423280423284,155.55555555555557 2.1164021164021167,154.92063492063494 1.9047619047619049,154.2857142857143 1.9047619047619049,153.65079365079367 1.6931216931216932,153.01587301587304 1.4814814814814816,152.38095238095238 1.26984126984127,151.74603174603175 1.0582010582010584,151.11111111111111 0.8465608465608466,150.47619047619048 0.8465608465608466,149.84126984126985 0.634920634920635,149.20634920634922 0.634920634920635,148.57142857142858 0.4232804232804233,147.93650793650795 0.21164021164021166,147.30158730158732 0.21164021164021166,146.66666666666669 0.21164021164021166,146.03174603174605 0.21164021164021166,145.39682539682542 0.21164021164021166,144.76190476190476 0.21164021164021166,144.12698412698413 0.21164021164021166,143.4920634920635 0.21164021164021166,142.85714285714286 0.4232804232804233,142.22222222222223 0.634920634920635,141.5873015873016 0.8465608465608466,140.95238095238096 1.0582010582010584,140.31746031746033 1.4814814814814816,139.6825396825397 1.9047619047619049,139.04761904761907 2.3280423280423284,138.41269841269843 2.7513227513227516,137.989417989418 3.174603174603175,137.56613756613757 3.8095238095238098,137.35449735449737 4.444444444444445,136.93121693121694 5.07936507936508,136.71957671957674 5.714285714285714,136.71957671957674 6.34920634920635,136.71957671957674 6.984126984126985,136.93121693121694 7.6190476190476195,136.93121693121694 8.253968253968255,137.14285714285717 8.88888888888889,137.56613756613757 9.523809523809524,137.7777777777778 10.15873015873016,138.2010582010582 10.793650793650794,138.62433862433863 11.428571428571429,138.83597883597884 11.851851851851853,139.25925925925927 12.486772486772487,139.6825396825397 13.121693121693122,140.10582010582013 13.756613756613758,140.31746031746033 14.17989417989418,140.74074074074076 14.814814814814817,140.95238095238096 15.238095238095239,141.3756613756614 15.873015873015873,141.5873015873016 16.50793650793651,142.01058201058203 17.142857142857146,142.43386243386246 17.77777777777778,142.64550264550266 18.412698412698415,143.0687830687831 19.047619047619047,143.2804232804233 19.47089947089947,143.70370370370372 20.105820105820108,143.91534391534393 20.740740740740744,144.33862433862436 21.375661375661377,144.55026455026456 22.010582010582013,144.973544973545 22.645502645502646,145.1851851851852 23.280423280423282,145.39682539682542 23.915343915343918,145.60846560846562 24.55026455026455,145.82010582010582 25.185185185185187,146.03174603174605 25.820105820105823,146.03174603174605 26.455026455026456,146.24338624338625 27.089947089947092,146.24338624338625 27.724867724867728,146.45502645502646 28.35978835978836,146.45502645502646 28.994708994708997,146.24338624338625 29.629629629629633,146.24338624338625 30.264550264550266,146.03174603174605 30.899470899470902,145.82010582010582 31.53439153439154,145.60846560846562 31.95767195767196,145.1851851851852 32.592592592592595,144.76190476190476 33.22751322751323,144.33862433862436 33.65079365079365,143.91534391534393 34.074074074074076,143.2804232804233 34.4973544973545,142.64550264550266 34.920634920634924,142.01058201058203 35.34391534391535,141.3756613756614 35.34391534391535,140.74074074074076 35.55555555555556,140.10582010582013 35.97883597883598,139.47089947089947 36.19047619047619,138.83597883597884 36.613756613756614,138.2010582010582 36.82539682539683,137.56613756613757 37.03703703703704,136.93121693121694 37.248677248677254,136.2962962962963 37.46031746031746,135.66137566137567 37.67195767195768,135.02645502645504 37.883597883597886,134.3915343915344 38.095238095238095,133.75661375661377 38.30687830687831,133.12169312169314 38.51851851851852,132.4867724867725 38.730158730158735,131.85185185185185 38.94179894179894,131.21693121693121 39.15343915343916,130.58201058201058 39.15343915343916,129.94708994708995 39.36507936507937,129.31216931216932 39.57671957671958,128.67724867724868 39.57671957671958,128.04232804232805 39.78835978835979,127.40740740740742 39.78835978835979,126.77248677248679 40.0,126.13756613756615 40.0,125.5026455026455 40.211640211640216,124.86772486772487 40.211640211640216,124.23280423280424 40.211640211640216,123.59788359788361 40.211640211640216,122.96296296296298 40.423280423280424,122.32804232804234 40.423280423280424,121.6931216931217 40.423280423280424,121.05820105820106 40.423280423280424,120.42328042328043 40.423280423280424,119.7883597883598 40.423280423280424,119.15343915343917 40.423280423280424,118.51851851851853 40.211640211640216,117.88359788359789 40.211640211640216,117.24867724867725 40.0,116.61375661375662 39.78835978835979,115.97883597883599 39.78835978835979,115.34391534391536 39.78835978835979,114.70899470899472 39.57671957671958,114.07407407407408 39.57671957671958,113.43915343915344 39.36507936507937,112.80423280423281 39.15343915343916,112.16931216931218 39.15343915343916,111.53439153439155 38.94179894179894,110.89947089947091 38.94179894179894,110.26455026455027 38.730158730158735,109.62962962962963 38.51851851851852,108.994708994709 38.51851851851852,108.35978835978837 38.30687830687831,107.72486772486774 38.30687830687831,107.0899470899471 38.095238095238095,106.45502645502647 37.883597883597886,105.82010582010582 37.67195767195768,105.18518518518519 37.67195767195768,104.55026455026456 37.46031746031746,103.91534391534393 37.248677248677254,103.28042328042329 37.03703703703704,102.64550264550266 36.82539682539683,102.01058201058201 36.613756613756614,101.37566137566138 36.402116402116405,100.74074074074075 35.97883597883598,100.10582010582011 35.55555555555556,99.47089947089948 35.13227513227513,99.04761904761905 34.70899470899471,98.62433862433863 34.28571428571429,98.2010582010582 33.65079365079365,97.77777777777779 33.01587301587302,97.35449735449737 32.38095238095239,97.14285714285715 31.746031746031747,96.93121693121694 31.111111111111114,96.71957671957672 30.476190476190478,96.71957671957672 29.841269841269842,96.71957671957672 29.20634920634921,96.93121693121694 28.571428571428573,96.93121693121694 27.93650793650794,96.93121693121694 27.301587301587304,96.93121693121694 26.666666666666668,97.14285714285715 26.031746031746035,97.14285714285715 25.3968253968254,97.35449735449737 24.761904761904763,97.56613756613757 24.12698412698413,97.989417989418 23.492063492063494,98.2010582010582 22.857142857142858,98.62433862433863 22.222222222222225,99.04761904761905 21.58730158730159,99.25925925925927 21.164021164021165,99.68253968253968 20.529100529100532,100.10582010582011 19.894179894179896,100.31746031746033 19.47089947089947,100.74074074074075 18.83597883597884,100.95238095238096 18.201058201058203,101.37566137566138 17.566137566137566,101.79894179894181 16.931216931216934,102.01058201058201 16.296296296296298,102.43386243386244 15.661375661375663,102.64550264550266 15.026455026455027,102.85714285714286 14.391534391534393,103.28042328042329 13.756613756613758,103.4920634920635 13.121693121693122,103.70370370370371 12.486772486772487,103.70370370370371 11.851851851851853,103.91534391534393 11.216931216931219,104.12698412698414 10.582010582010582,104.12698412698414 9.947089947089948,104.33862433862434 9.312169312169313,104.33862433862434 8.677248677248677,104.55026455026456 8.042328042328043,104.55026455026456 7.407407407407408,104.55026455026456 6.772486772486773,104.55026455026456 6.137566137566138,104.55026455026456 5.502645502645503,104.33862433862434 4.867724867724868,104.33862433862434 4.2328042328042335,104.12698412698414 3.597883597883598,103.70370370370371 2.9629629629629632,103.28042328042329 2.53968253968254,102.85714285714286 2.1164021164021167,102.22222222222223 1.6931216931216932,101.5873015873016 1.4814814814814816,100.95238095238096 1.26984126984127,100.31746031746033 1.26984126984127,99.68253968253968 1.0582010582010584,99.04761904761905 1.0582010582010584,98.41269841269842 1.0582010582010584,97.77777777777779 1.0582010582010584,97.14285714285715 1.0582010582010584,96.50793650793652 1.0582010582010584,95.87301587301587 1.0582010582010584,95.23809523809524 1.0582010582010584,94.60317460317461 1.0582010582010584,93.96825396825398 1.0582010582010584,93.33333333333334 1.26984126984127,92.69841269841271 1.26984126984127,92.06349206349208 1.26984126984127,91.42857142857143 1.4814814814814816,90.7936507936508 1.4814814814814816,90.15873015873017 1.6931216931216932,89.52380952380953 1.9047619047619049,88.8888888888889 1.9047619047619049,88.25396825396827 2.1164021164021167,87.61904761904762 2.3280423280423284,86.98412698412699 2.3280423280423284,86.34920634920636 2.53968253968254,85.71428571428572 2.53968253968254,85.07936507936509 2.7513227513227516,84.44444444444446 2.9629629629629632,83.80952380952381 3.174603174603175,83.17460317460318 3.174603174603175,82.53968253968254 3.3862433862433865,81.90476190476191 3.3862433862433865,81.26984126984128 3.597883597883598,80.63492063492065 3.8095238095238098,80.0 4.021164021164021,79.36507936507937 4.2328042328042335,78.73015873015873 4.2328042328042335,78.0952380952381 4.656084656084657,77.46031746031747 4.867724867724868,76.82539682539684 5.07936507936508,76.19047619047619 5.291005291005291,75.55555555555556 5.502645502645503,74.92063492063492 5.714285714285714,74.28571428571429 5.9259259259259265,73.65079365079366 6.137566137566138,73.01587301587303 6.34920634920635,72.38095238095238 6.560846560846561,71.74603174603175 6.772486772486773,71.11111111111111 6.984126984126985,70.47619047619048 7.407407407407408,69.84126984126985 7.6190476190476195,69.20634920634922 7.830687830687832,68.57142857142858 8.042328042328043,67.93650793650794 8.465608465608467,67.3015873015873 8.677248677248677,66.66666666666667 8.88888888888889,66.03174603174604 9.312169312169313,65.3968253968254 9.523809523809524,64.76190476190477 9.735449735449736,64.12698412698413 10.15873015873016,63.492063492063494 10.370370370370372,62.85714285714286 10.793650793650794,62.22222222222223 11.005291005291006,61.58730158730159 11.428571428571429,60.952380952380956 11.640211640211641,60.31746031746032 12.063492063492065,59.682539682539684 12.275132275132275,59.04761904761905 12.486772486772487,58.41269841269842 12.910052910052912,57.777777777777786 13.121693121693122,57.142857142857146 13.333333333333334,56.50793650793651 13.756613756613758,55.87301587301588 13.96825396825397,55.23809523809524 14.391534391534393,54.60317460317461 15.661375661375663,51.851851851851855" style="fill:none; stroke:#3300bb; stroke-width:1.0"  /><circle cx="15.661375661375663" cy="51.851851851851855" r="2.0" style="fill:none; stroke:#000000aa; stroke-width:0.25" /><circle cx="167.83068783068785" cy="55.661375661375665" r="2.0" style="fill:none; stroke:#000000aa; stroke-width:0.25" /><circle cx="132.06349206349208" cy="200.21164021164023" r="2.0" style="fill:none; stroke:#000000aa; stroke-width:0.25" /><circle cx="8.677248677248677" cy="210.5820105820106" r="2.0" style="fill:none; stroke:#000000aa; stroke-width:0.25" /><circle cx="16.084656084656086" cy="52.06349206349207" r="2.0" style="fill:none; stroke:#ff3366aa; stroke-width:0.25" /><circle cx="167.40740740740742" cy="56.08465608465609" r="2.0" style="fill:none; stroke:#ff3366aa; stroke-width:0.25" /><circle cx="131.64021164021165" cy="200.21164021164023" r="2.0" style="fill:none; stroke:#ff3366aa; stroke-width:0.25" /><circle cx="8.677248677248677" cy="210.15873015873018" r="2.0" style="fill:none; stroke:#ff3366aa; stroke-width:0.25" /><polyline points="28.14814814814815,52.06349206349207 27.513227513227516,52.06349206349207 26.87830687830688,52.06349206349207 26.243386243386244,52.06349206349207 25.60846560846561,52.06349206349207 24.973544973544975,52.06349206349207 24.338624338624342,52.06349206349207 23.703703703703706,52.06349206349207 23.06878306878307,51.851851851851855 22.433862433862437,51.851851851851855 21.7989417989418,51.851851851851855 21.164021164021165,51.851851851851855 20.529100529100532,52.06349206349207 19.894179894179896,51.851851851851855 19.25925925925926,51.851851851851855" style="fill:none; stroke:#001100; stroke-width:1.0" /><polyline points="10.793650793650794,62.22222222222223 11.005291005291006,61.58730158730159 11.428571428571429,60.952380952380956 11.640211640211641,60.31746031746032 12.063492063492065,59.682539682539684 12.275132275132275,59.04761904761905 12.486772486772487,58.41269841269842 12.910052910052912,57.777777777777786 13.121693121693122,57.142857142857146 13.333333333333334,56.50793650793651 13.756613756613758,55.87301587301588 13.96825396825397,55.23809523809524 14.391534391534393,54.60317460317461" style="fill:none; stroke:#000011; stroke-width:1.0" /><polyline points="163.80952380952382,67.51322751322752 164.02116402116403,66.87830687830689 164.23280423280426,66.24338624338625 164.44444444444446,65.60846560846561 164.65608465608466,64.97354497354497 164.65608465608466,64.33862433862434 165.0793650793651,63.70370370370371 165.2910052910053,63.06878306878308 165.50264550264552,62.43386243386244 165.71428571428572,61.798941798941804 165.92592592592595,61.16402116402117 166.13756613756615,60.52910052910053 166.34920634920636,59.8941798941799 166.56084656084658,59.25925925925927" style="fill:none; stroke:#001100; stroke-width:1.0" /><polyline points="155.55555555555557,55.02645502645503 156.1904761904762,55.02645502645503 156.82539682539684,55.23809523809524 157.46031746031747,55.23809523809524 158.0952380952381,55.23809523809524 158.73015873015873,55.23809523809524 159.36507936507937,55.23809523809524 160.0,55.23809523809524 160.63492063492066,55.23809523809524 161.2698412698413,55.449735449735456 161.90476190476193,55.449735449735456 162.53968253968256,55.449735449735456 163.1746031746032,55.449735449735456 163.80952380952382,55.449735449735456 164.44444444444446,55.449735449735456" style="fill:none; stroke:#000011; stroke-width:1.0" /><polyline points="120.21164021164022,199.36507936507937 120.84656084656086,199.36507936507937 121.4814814814815,199.36507936507937 122.11640211640213,199.5767195767196 122.75132275132276,199.5767195767196 123.3862433862434,199.7883597883598 124.02116402116403,199.7883597883598 124.65608465608466,199.7883597883598 125.2910052910053,199.7883597883598 125.92592592592594,199.7883597883598 126.56084656084657,200.00000000000003 127.1957671957672,200.00000000000003 127.83068783068784,200.00000000000003 128.46560846560848,200.00000000000003" style="fill:none; stroke:#001100; stroke-width:1.0" /><polyline points="132.06349206349208,188.35978835978838 132.06349206349208,188.99470899470901 132.06349206349208,189.62962962962965 132.06349206349208,190.26455026455028 132.06349206349208,190.8994708994709 132.06349206349208,191.53439153439155 132.06349206349208,192.16931216931218 132.06349206349208,192.8042328042328 132.06349206349208,193.43915343915344 132.06349206349208,194.07407407407408 132.06349206349208,194.70899470899474 132.06349206349208,195.34391534391537 132.06349206349208,195.978835978836 132.06349206349208,196.61375661375664 132.06349206349208,197.24867724867727" style="fill:none; stroke:#000011; stroke-width:1.0" /><polyline points="9.523809523809524,198.73015873015873 9.523809523809524,199.36507936507937 9.312169312169313,200.00000000000003 9.312169312169313,200.63492063492066 9.312169312169313,201.2698412698413 9.312169312169313,201.90476190476193 9.312169312169313,202.53968253968256 9.312169312169313,203.1746031746032 9.312169312169313,203.80952380952382 9.100529100529101,204.44444444444446 9.100529100529101,205.0793650793651 9.100529100529101,205.71428571428572 9.100529100529101,206.34920634920636 8.88888888888889,206.984126984127" style="fill:none; stroke:#001100; stroke-width:1.0" /><polyline points="20.529100529100532,210.7936507936508 19.894179894179896,210.7936507936508 19.25925925925926,210.7936507936508 18.624338624338627,210.7936507936508 17.98941798941799,210.7936507936508 17.354497354497354,210.7936507936508 16.71957671957672,210.7936507936508 16.084656084656086,210.7936507936508 15.449735449735451,210.7936507936508 14.814814814814817,210.7936507936508 14.17989417989418,210.7936507936508 13.544973544973546,210.7936507936508 12.910052910052912,210.5820105820106 12.275132275132275,210.5820105820106 11.640211640211641,210.5820105820106" style="fill:none; stroke:#000011; stroke-width:1.0" /><polyline points="19.25925925925926,51.851851851851855 -1.9047619047619049,51.42857142857143" style="fill:none; stroke:#ffaa00; stroke-width:0.4" /><polyline points="14.391534391534393,54.60317460317461 23.492063492063494,35.55555555555556" style="fill:none; stroke:#aaff00; stroke-width:0.4" /><polyline points="166.56084656084658,59.25925925925927 173.33333333333334,39.15343915343916" style="fill:none; stroke:#ffaa00; stroke-width:0.4" /><polyline points="164.44444444444446,55.449735449735456 185.60846560846562,56.50793650793651" style="fill:none; stroke:#aaff00; stroke-width:0.4" /><polyline points="128.46560846560848,200.00000000000003 149.62962962962965,201.6931216931217" style="fill:none; stroke:#ffaa00; stroke-width:0.4" /><polyline points="132.06349206349208,197.24867724867727 132.06349206349208,218.41269841269843" style="fill:none; stroke:#aaff00; stroke-width:0.4" /><polyline points="8.88888888888889,206.984126984127 7.195767195767196,228.14814814814815" style="fill:none; stroke:#ffaa00; stroke-width:0.4" /><polyline points="11.640211640211641,210.5820105820106 -9.523809523809524,210.15873015873018" style="fill:none; stroke:#aaff00; stroke-width:0.4" /><circle cx="76.61375661375662" cy="113.01587301587303" r="1.0" style="fill:#444444; stroke-width:0" /><circle cx="71.95767195767196" cy="84.65608465608466" r="10.582010582010582" style="fill:#ff770022; stroke-width:0" /><circle cx="71.95767195767196" cy="84.65608465608466" r="1.0" style="fill:#ff7700; stroke-width:0" /></svg>