<?xml version="1.0" encoding="UTF-8" standalone="no"?><svg width="486.98412698412704" height="562.5396825396825" viewBox="-10 -10 182.32804232804233 207.51322751322752" xmlns="http://www.w3.org/2000/svg" xmlns:xlink="http://www.w3.org/1999/xlink"><polyline points="-0.4232804232804233,39.78835978835979 3.3862433862433865,39.15343915343916 4.021164021164021,39.15343915343916 4.656084656084657,38.94179894179894 5.291005291005291,38.730158730158735 5.9259259259259265,38.51851851851852 6.560846560846561,38.51851851851852 7.195767195767196,38.30687830687831 7.830687830687832,38.095238095238095 8.465608465608467,38.095238095238095 9.100529100529101,38.30687830687831 9.735449735449736,38.095238095238095 10.370370370370372,38.095238095238095 11.005291005291006,37.883597883597886 11.640211640211641,37.67195767195768 12.275132275132275,37.67195767195768 12.910052910052912,37.46031746031746 13.544973544973546,37.248677248677254 14.17989417989418,37.248677248677254 14.814814814814817,37.03703703703704 15.449735449735451,37.03703703703704 16.084656084656086,36.82539682539683 16.71957671957672,36.613756613756614 17.354497354497354,36.402116402116405 17.98941798941799,36.402116402116405 18.624338624338627,36.19047619047619 19.25925925925926,35.97883597883598 19.894179894179896,35.76719576719577 20.529100529100532,35.55555555555556 21.164021164021165,35.55555555555556 21.7989417989418,35.34391534391535 22.433862433862437,35.13227513227513 23.06878306878307,35.13227513227513 23.703703703703706,34.920634920634924 24.338624338624342,34.70899470899471 24.973544973544975,34.4973544973545 25.60846560846561,34.28571428571429 26.243386243386244,34.074074074074076 26.87830687830688,33.86243386243387 27.513227513227516,33.86243386243387 28.14814814814815,33.43915343915344 28.783068783068785,33.22751322751323 29.41798941798942,33.01587301587302 30.052910052910054,32.804232804232804 30.68783068783069,32.592592592592595 31.322751322751326,32.38095238095239 31.95767195767196,32.16931216931217 32.592592592592595,31.95767195767196 33.22751322751323,31.746031746031747 33.86243386243387,31.322751322751326 34.4973544973545,31.111111111111114 35.13227513227513,31.111111111111114 35.76719576719577,31.111111111111114 36.19047619047619,30.68783068783069 36.82539682539683,30.68783068783069 37.46031746031746,30.476190476190478 38.095238095238095,30.476190476190478 38.730158730158735,30.476190476190478 39.36507936507937,30.476190476190478 40.0,30.264550264550266 40.63492063492064,30.476190476190478 41.26984126984127,30.68783068783069 41.904761904761905,30.68783068783069 42.539682539682545,30.899470899470902 42.96296296296297,31.322751322751326 43.5978835978836,31.53439153439154 44.021164021164026,31.95767195767196 44.44444444444445,32.38095238095239 44.867724867724874,32.804232804232804 45.29100529100529,33.43915343915344 45.714285714285715,34.074074074074076 45.92592592592593,34.70899470899471 46.349206349206355,35.34391534391535 46.560846560846564,35.97883597883598 46.560846560846564,36.613756613756614 46.77248677248678,37.248677248677254 46.77248677248678,37.883597883597886 46.77248677248678,38.51851851851852 46.77248677248678,39.15343915343916 46.560846560846564,39.78835978835979 46.560846560846564,40.423280423280424 46.349206349206355,41.058201058201064 46.13756613756614,41.6931216931217 45.92592592592593,42.32804232804233 45.714285714285715,42.96296296296297 45.50264550264551,43.5978835978836 45.50264550264551,44.232804232804234 45.29100529100529,44.867724867724874 45.07936507936508,45.50264550264551 45.07936507936508,46.13756613756614 44.867724867724874,46.77248677248678 44.867724867724874,47.40740740740741 44.867724867724874,48.042328042328045 44.867724867724874,48.677248677248684 44.867724867724874,49.31216931216932 44.867724867724874,49.94708994708995 44.867724867724874,50.58201058201058 45.07936507936508,51.21693121693122 45.07936507936508,51.851851851851855 45.29100529100529,52.48677248677249 45.29100529100529,53.12169312169313 45.50264550264551,53.75661375661376 45.714285714285715,54.39153439153439 45.92592592592593,55.02645502645503 46.13756613756614,55.661375661375665 46.560846560846564,56.2962962962963 46.77248677248678,56.93121693121694 47.195767195767196,57.35449735449736 47.61904761904762,57.989417989417994 48.042328042328045,58.41269841269842 48.677248677248684,58.83597883597884 49.1005291005291,59.25925925925927 49.73544973544974,59.470899470899475 50.370370370370374,59.8941798941799 51.00529100529101,60.10582010582011 51.640211640211646,60.10582010582011 52.27513227513228,60.52910052910053 52.91005291005291,60.52910052910053 53.54497354497355,60.74074074074075 54.179894179894184,60.74074074074075 54.81481481481482,60.74074074074075 55.449735449735456,60.74074074074075 56.08465608465609,60.74074074074075 56.71957671957672,60.952380952380956 57.35449735449736,60.74074074074075 57.989417989417994,60.74074074074075 58.62433862433863,60.952380952380956 59.25925925925927,61.16402116402117 59.8941798941799,61.16402116402117 60.52910052910053,61.16402116402117 61.16402116402117,61.16402116402117 61.798941798941804,60.952380952380956 62.43386243386244,60.74074074074075 63.06878306878308,60.74074074074075 63.70370370370371,60.74074074074075 64.33862433862434,60.52910052910053 64.97354497354497,60.52910052910053 65.60846560846561,60.31746031746032 66.24338624338625,60.10582010582011 66.87830687830689,60.10582010582011 67.51322751322752,60.10582010582011 68.14814814814815,59.8941798941799 68.78306878306879,59.8941798941799 69.41798941798942,59.682539682539684 70.05291005291006,59.25925925925927 70.6878306878307,59.25925925925927 71.32275132275133,59.25925925925927 71.95767195767196,59.04761904761905 72.5925925925926,58.83597883597884 73.22751322751323,58.62433862433863 73.86243386243387,58.41269841269842 74.49735449735451,57.989417989417994 75.13227513227514,57.56613756613757 75.76719576719577,57.56613756613757 76.4021164021164,57.142857142857146 77.03703703703704,57.142857142857146 77.67195767195767,56.71957671957672 78.30687830687832,56.50793650793651 78.94179894179895,56.50793650793651 79.36507936507937,56.08465608465609 80.0,55.87301587301588 80.63492063492065,55.661375661375665 81.05820105820106,55.23809523809524 81.6931216931217,55.02645502645503 82.32804232804233,54.60317460317461 82.96296296296298,54.39153439153439 83.59788359788361,53.968253968253975 84.02116402116403,53.54497354497355 84.65608465608466,53.12169312169313 85.29100529100529,52.6984126984127 85.71428571428572,52.27513227513228 86.13756613756614,51.851851851851855 86.77248677248677,51.42857142857143 87.40740740740742,51.00529100529101 87.83068783068784,50.58201058201058 88.25396825396827,50.158730158730165 88.67724867724868,49.73544973544974 89.1005291005291,49.31216931216932 89.52380952380953,48.677248677248684 89.94708994708995,48.042328042328045 90.37037037037038,47.40740740740741 90.58201058201058,46.77248677248678 90.7936507936508,46.13756613756614 91.00529100529101,45.50264550264551 91.21693121693123,44.867724867724874 91.42857142857143,44.232804232804234 91.42857142857143,43.5978835978836 91.42857142857143,42.96296296296297 91.42857142857143,42.32804232804233 91.42857142857143,41.6931216931217 91.42857142857143,41.058201058201064 91.21693121693123,40.423280423280424 91.00529100529101,39.78835978835979 90.7936507936508,39.15343915343916 90.58201058201058,38.51851851851852 90.37037037037038,37.883597883597886 89.94708994708995,37.46031746031746 89.52380952380953,36.82539682539683 89.1005291005291,36.19047619047619 88.67724867724868,35.76719576719577 88.25396825396827,35.34391534391535 87.83068783068784,34.920634920634924 87.40740740740742,34.4973544973545 86.98412698412699,34.074074074074076 86.56084656084657,33.65079365079365 86.13756613756614,33.22751322751323 85.71428571428572,32.804232804232804 85.29100529100529,32.38095238095239 84.86772486772487,31.95767195767196 84.44444444444446,31.53439153439154 84.02116402116403,31.111111111111114 83.59788359788361,30.68783068783069 82.96296296296298,30.264550264550266 82.53968253968254,29.629629629629633 82.11640211640213,29.20634920634921 81.6931216931217,28.783068783068785 81.26984126984128,28.35978835978836 80.84656084656085,27.93650793650794 80.42328042328043,27.513227513227516 80.0,27.089947089947092 79.57671957671958,26.666666666666668 79.15343915343917,26.243386243386244 78.51851851851852,25.820105820105823 78.0952380952381,25.3968253968254 77.67195767195767,24.973544973544975 77.24867724867725,24.55026455026455 76.82539682539684,24.12698412698413 76.4021164021164,23.703703703703706 75.97883597883599,23.280423280423282 75.55555555555556,22.645502645502646 75.13227513227514,22.010582010582013 74.70899470899471,21.58730158730159 74.28571428571429,20.952380952380953 74.07407407407408,20.31746031746032 73.86243386243387,19.682539682539684 73.43915343915344,19.047619047619047 73.43915343915344,18.412698412698415 73.22751322751323,17.77777777777778 73.22751322751323,17.142857142857146 73.22751322751323,16.50793650793651 73.22751322751323,15.873015873015873 73.43915343915344,15.238095238095239 73.65079365079366,14.603174603174605 74.07407407407408,13.96825396825397 74.49735449735451,13.333333333333334 74.92063492063492,12.6984126984127 75.34391534391536,12.275132275132275 75.76719576719577,11.851851851851853 76.4021164021164,11.428571428571429 77.03703703703704,11.216931216931219 77.67195767195767,11.005291005291006 78.30687830687832,10.793650793650794 78.94179894179895,10.582010582010582 79.57671957671958,10.370370370370372 80.21164021164022,10.370370370370372 80.63492063492065,9.947089947089948 81.26984126984128,9.947089947089948 81.90476190476191,9.523809523809524 82.53968253968254,9.312169312169313 83.17460317460318,9.312169312169313 83.80952380952381,9.100529100529101 84.44444444444446,8.88888888888889 85.07936507936509,8.88888888888889 85.71428571428572,8.677248677248677 86.34920634920636,8.465608465608467 86.98412698412699,8.253968253968255 87.61904761904762,8.042328042328043 88.25396825396827,7.830687830687832 88.8888888888889,7.6190476190476195 89.52380952380953,7.6190476190476195 90.15873015873017,7.195767195767196 90.7936507936508,7.195767195767196 91.42857142857143,6.984126984126985 92.06349206349208,6.984126984126985 92.69841269841271,6.772486772486773 93.33333333333334,6.560846560846561 93.96825396825398,6.34920634920635 94.60317460317461,6.34920634920635 95.23809523809524,6.137566137566138 95.87301587301587,5.9259259259259265 96.50793650793652,5.714285714285714 97.14285714285715,5.714285714285714 97.77777777777779,5.502645502645503 98.41269841269842,5.502645502645503 99.04761904761905,5.291005291005291 99.68253968253968,5.07936507936508 100.31746031746033,4.867724867724868 100.95238095238096,4.867724867724868 101.5873015873016,4.656084656084657 102.22222222222223,4.656084656084657 102.85714285714286,4.444444444444445 103.4920634920635,4.2328042328042335 104.12698412698414,4.2328042328042335 104.76190476190477,4.021164021164021 105.3968253968254,4.021164021164021 106.03174603174604,3.8095238095238098 106.66666666666667,3.8095238095238098 107.3015873015873,3.597883597883598 107.93650793650795,3.597883597883598 108.57142857142858,3.3862433862433865 109.20634920634922,3.3862433862433865 109.84126984126985,2.9629629629629632 110.47619047619048,2.7513227513227516 111.11111111111111,2.7513227513227516 111.74603174603176,2.53968253968254 112.3809523809524,2.53968253968254 113.01587301587303,2.53968253968254 113.65079365079366,2.3280423280423284 114.28571428571429,2.1164021164021167 114.92063492063492,2.1164021164021167 115.55555555555557,2.1164021164021167 116.1904761904762,1.9047619047619049 116.82539682539684,1.9047619047619049 117.46031746031747,1.9047619047619049 118.0952380952381,1.9047619047619049 118.73015873015873,1.4814814814814816 119.36507936507937,1.4814814814814816 120.00000000000001,1.4814814814814816 120.63492063492065,1.26984126984127 121.26984126984128,1.26984126984127 121.90476190476191,1.26984126984127 122.53968253968254,1.26984126984127 123.17460317460318,1.0582010582010584 123.80952380952382,1.0582010582010584 124.44444444444446,1.0582010582010584 125.07936507936509,1.0582010582010584 125.71428571428572,0.634920634920635 126.34920634920636,0.634920634920635 126.98412698412699,0.634920634920635 127.61904761904763,0.634920634920635 128.25396825396825,0.4232804232804233 128.88888888888889,0.4232804232804233 129.52380952380955,0.4232804232804233 130.15873015873018,0.4232804232804233 133.54497354497354,0.21164021164021166" style="fill:none; stroke:#cc0000; stroke-width:1.0"  /><polyline points="133.54497354497354,0.21164021164021166 133.96825396825398,3.597883597883598 134.17989417989418,4.2328042328042335 134.17989417989418,4.867724867724868 134.3915343915344,5.502645502645503 134.3915343915344,6.137566137566138 134.3915343915344,6.772486772486773 134.3915343915344,7.407407407407408 134.6031746031746,8.042328042328043 134.6031746031746,8.677248677248677 134.6031746031746,9.312169312169313 134.81481481481484,9.947089947089948 134.81481481481484,10.582010582010582 134.81481481481484,11.216931216931219 135.02645502645504,11.851851851851853 135.02645502645504,12.486772486772487 135.02645502645504,13.121693121693122 135.23809523809524,13.756613756613758 135.23809523809524,14.391534391534393 135.44973544973547,15.026455026455027 135.44973544973547,15.661375661375663 135.44973544973547,16.296296296296298 135.44973544973547,16.931216931216934 135.44973544973547,17.566137566137566 135.66137566137567,18.201058201058203 135.66137566137567,18.83597883597884 135.87301587301587,19.47089947089947 135.87301587301587,20.105820105820108 135.87301587301587,20.740740740740744 135.87301587301587,21.375661375661377 136.0846560846561,22.010582010582013 136.0846560846561,22.645502645502646 136.0846560846561,23.280423280423282 136.2962962962963,23.915343915343918 136.2962962962963,24.55026455026455 136.2962962962963,25.185185185185187 136.5079365079365,25.820105820105823 136.71957671957674,26.455026455026456 136.71957671957674,27.089947089947092 136.71957671957674,27.724867724867728 136.93121693121694,28.35978835978836 136.93121693121694,28.994708994708997 136.93121693121694,29.629629629629633 137.14285714285717,30.264550264550266 137.14285714285717,30.899470899470902 137.35449735449737,31.53439153439154 137.35449735449737,32.16931216931217 137.35449735449737,32.804232804232804 137.35449735449737,33.43915343915344 137.56613756613757,34.074074074074076 137.56613756613757,34.70899470899471 137.56613756613757,35.34391534391535 137.56613756613757,35.97883597883598 137.7777777777778,36.613756613756614 137.7777777777778,37.248677248677254 137.7777777777778,37.883597883597886 137.989417989418,38.51851851851852 137.989417989418,39.15343915343916 137.989417989418,39.78835978835979 137.989417989418,40.423280423280424 138.2010582010582,41.058201058201064 138.2010582010582,41.6931216931217 138.2010582010582,42.32804232804233 138.2010582010582,42.96296296296297 138.41269841269843,43.5978835978836 138.41269841269843,44.232804232804234 138.41269841269843,44.867724867724874 138.41269841269843,45.50264550264551 138.41269841269843,46.13756613756614 138.62433862433863,46.77248677248678 138.62433862433863,47.40740740740741 138.62433862433863,48.042328042328045 138.62433862433863,48.677248677248684 138.83597883597884,49.31216931216932 138.83597883597884,49.94708994708995 138.83597883597884,50.58201058201058 138.83597883597884,51.21693121693122 139.04761904761907,51.851851851851855 139.04761904761907,52.48677248677249 139.04761904761907,53.12169312169313 139.25925925925927,53.75661375661376 139.25925925925927,54.39153439153439 139.25925925925927,55.02645502645503 139.25925925925927,55.661375661375665 139.25925925925927,56.2962962962963 139.47089947089947,56.93121693121694 139.47089947089947,57.56613756613757 139.47089947089947,58.2010582010582 139.47089947089947,58.83597883597884 139.47089947089947,59.470899470899475 139.47089947089947,60.10582010582011 139.47089947089947,60.74074074074075 139.6825396825397,61.37566137566138 139.6825396825397,62.01058201058201 139.6825396825397,62.64550264550265 139.6825396825397,63.280423280423285 139.6825396825397,63.91534391534392 139.6825396825397,64.55026455026456 139.6825396825397,65.18518518518519 139.6825396825397,65.82010582010582 139.6825396825397,66.45502645502646 139.47089947089947,67.08994708994709 139.47089947089947,67.72486772486774 139.47089947089947,68.35978835978837 139.47089947089947,68.994708994709 139.25925925925927,69.62962962962963 139.25925925925927,70.26455026455027 139.04761904761907,70.8994708994709 138.83597883597884,71.53439153439155 138.62433862433863,72.16931216931218 138.2010582010582,72.80423280423281 137.7777777777778,73.43915343915344 137.35449735449737,73.86243386243387 136.71957671957674,74.28571428571429 136.0846560846561,74.49735449735451 135.44973544973547,74.70899470899471 134.81481481481484,74.92063492063492 134.17989417989418,74.92063492063492 133.54497354497354,74.70899470899471 132.9100529100529,74.70899470899471 132.27513227513228,74.49735449735451 131.64021164021165,74.28571428571429 131.005291005291,74.07407407407408 130.37037037037038,73.65079365079366 129.73544973544975,73.43915343915344 129.31216931216932,73.01587301587303 128.67724867724868,72.80423280423281 128.04232804232805,72.38095238095238 127.40740740740742,72.16931216931218 126.77248677248679,71.74603174603175 126.13756613756615,71.53439153439155 125.5026455026455,71.32275132275133 124.86772486772487,71.11111111111111 124.23280423280424,70.8994708994709 123.59788359788361,70.6878306878307 122.96296296296298,70.47619047619048 122.32804232804234,70.26455026455027 121.6931216931217,70.05291005291006 121.05820105820106,70.05291005291006 120.42328042328043,69.84126984126985 119.7883597883598,69.84126984126985 119.15343915343917,69.84126984126985 118.51851851851853,69.84126984126985 117.88359788359789,69.84126984126985 117.24867724867725,70.05291005291006 116.61375661375662,70.26455026455027 115.97883597883599,70.47619047619048 115.34391534391536,70.6878306878307 114.92063492063492,71.11111111111111 114.49735449735451,71.53439153439155 114.07407407407408,71.95767195767196 113.65079365079366,72.38095238095238 113.22751322751324,72.80423280423281 112.80423280423281,73.43915343915344 112.3809523809524,74.07407407407408 112.16931216931218,74.70899470899471 111.95767195767196,75.34391534391536 111.74603174603176,75.97883597883599 111.53439153439155,76.61375661375662 111.32275132275133,77.24867724867725 111.11111111111111,77.88359788359789 110.89947089947091,78.51851851851852 110.89947089947091,79.15343915343917 110.6878306878307,79.7883597883598 110.6878306878307,80.42328042328043 110.47619047619048,81.05820105820106 110.47619047619048,81.6931216931217 110.47619047619048,82.32804232804233 110.26455026455027,82.96296296296298 110.26455026455027,83.59788359788361 110.26455026455027,84.23280423280424 110.26455026455027,84.86772486772487 110.26455026455027,85.5026455026455 110.47619047619048,86.13756613756614 110.47619047619048,86.77248677248677 110.47619047619048,87.40740740740742 110.6878306878307,88.04232804232805 110.6878306878307,88.67724867724868 110.6878306878307,89.31216931216932 110.89947089947091,89.94708994708995 110.89947089947091,90.58201058201058 110.6878306878307,91.21693121693123 110.89947089947091,91.85185185185186 110.89947089947091,92.4867724867725 111.11111111111111,93.12169312169313 111.11111111111111,93.75661375661376 111.32275132275133,94.39153439153439 111.53439153439155,95.02645502645504 111.74603174603176,95.66137566137567 111.95767195767196,96.2962962962963 112.16931216931218,96.93121693121694 112.3809523809524,97.56613756613757 112.5925925925926,98.2010582010582 112.80423280423281,98.83597883597885 113.01587301587303,99.47089947089948 113.22751322751324,100.10582010582011 113.43915343915344,100.74074074074075 113.65079365079366,101.37566137566138 113.86243386243387,102.01058201058201 114.07407407407408,102.64550264550266 114.28571428571429,103.28042328042329 114.70899470899472,103.91534391534393 114.92063492063492,104.55026455026456 115.34391534391536,105.18518518518519 115.76719576719577,105.82010582010582 116.1904761904762,106.24338624338625 116.61375661375662,106.66666666666667 117.03703703703705,107.0899470899471 117.67195767195768,107.51322751322752 118.30687830687832,107.93650793650795 118.94179894179895,107.93650793650795 119.57671957671958,108.14814814814815 120.21164021164022,108.35978835978837 120.84656084656086,108.35978835978837 121.4814814814815,108.35978835978837 122.11640211640213,108.14814814814815 122.75132275132276,107.93650793650795 123.3862433862434,107.93650793650795 124.02116402116403,107.72486772486774 124.65608465608466,107.51322751322752 125.2910052910053,107.3015873015873 125.71428571428572,106.87830687830689 126.34920634920636,106.66666666666667 126.98412698412699,106.45502645502647 127.40740740740742,106.03174603174604 128.04232804232805,105.60846560846562 128.46560846560848,105.18518518518519 129.10052910052912,104.97354497354497 129.52380952380955,104.55026455026456 130.15873015873018,104.33862433862434 130.58201058201058,103.91534391534393 131.21693121693121,103.70370370370371 131.85185185185185,103.28042328042329 132.4867724867725,102.85714285714286 133.12169312169314,102.43386243386244 133.75661375661377,102.01058201058201 134.3915343915344,101.79894179894181 134.81481481481484,101.37566137566138 135.44973544973547,100.95238095238096 136.0846560846561,100.74074074074075 136.71957671957674,100.52910052910053 137.35449735449737,100.31746031746033 137.7777777777778,99.8941798941799 138.41269841269843,99.68253968253968 139.04761904761907,99.47089947089948 139.6825396825397,99.25925925925927 140.31746031746033,99.04761904761905 140.95238095238096,98.83597883597885 141.5873015873016,98.41269841269842 142.22222222222223,98.41269841269842 142.85714285714286,98.2010582010582 143.4920634920635,97.989417989418 144.12698412698413,97.989417989418 144.76190476190476,97.77777777777779 145.1851851851852,97.35449735449737 145.82010582010582,97.35449735449737 146.45502645502646,97.14285714285715 147.0899470899471,97.14285714285715 147.72486772486775,97.14285714285715 148.35978835978838,96.93121693121694 148.99470899470901,96.93121693121694 149.62962962962965,96.93121693121694 150.26455026455028,96.93121693121694 150.8994708994709,96.93121693121694 151.53439153439155,96.93121693121694 152.16931216931218,96.93121693121694 152.8042328042328,96.93121693121694 153.43915343915344,97.14285714285715 154.07407407407408,97.14285714285715 154.7089947089947,97.14285714285715 155.34391534391534,97.35449735449737 155.978835978836,97.35449735449737 156.61375661375664,97.56613756613757 157.24867724867727,97.56613756613757 157.8835978835979,97.77777777777779 158.51851851851853,97.989417989418 159.15343915343917,98.41269841269842 159.7883597883598,98.62433862433863 160.21164021164023,99.04761904761905 160.63492063492066,99.47089947089948 161.05820105820106,99.8941798941799 161.2698412698413,100.52910052910053 161.4814814814815,101.16402116402116 161.6931216931217,101.79894179894181 161.90476190476193,102.43386243386244 161.90476190476193,103.06878306878308 161.90476190476193,103.70370370370371 161.6931216931217,104.33862433862434 161.6931216931217,104.97354497354497 161.6931216931217,105.60846560846562 161.4814814814815,106.24338624338625 161.2698412698413,106.87830687830689 161.05820105820106,107.51322751322752 161.05820105820106,108.14814814814815 160.84656084656086,108.78306878306879 160.63492063492066,109.41798941798943 160.63492063492066,110.05291005291006 160.42328042328043,110.6878306878307 160.21164021164023,111.32275132275133 160.0,111.95767195767196 159.7883597883598,112.5925925925926 159.7883597883598,113.22751322751324 159.5767195767196,113.86243386243387 159.36507936507937,114.49735449735451 159.15343915343917,115.13227513227514 158.94179894179896,115.76719576719577 158.94179894179896,116.4021164021164 158.73015873015873,117.03703703703705 158.51851851851853,117.67195767195768 158.51851851851853,118.30687830687832 158.30687830687833,118.94179894179895 158.0952380952381,119.57671957671958 157.8835978835979,120.21164021164022 157.8835978835979,120.84656084656086 157.67195767195767,121.4814814814815 157.67195767195767,122.11640211640213 157.46031746031747,122.75132275132276 157.46031746031747,123.3862433862434 157.24867724867727,124.02116402116403 157.24867724867727,124.65608465608466 157.03703703703704,125.2910052910053 156.82539682539684,125.92592592592594 156.82539682539684,126.56084656084657 156.82539682539684,127.1957671957672 156.61375661375664,127.83068783068784 156.61375661375664,128.46560846560848 156.4021164021164,129.10052910052912 156.4021164021164,129.73544973544975 156.4021164021164,130.37037037037038 156.1904761904762,131.005291005291 156.4021164021164,131.64021164021165 156.1904761904762,132.27513227513228 156.1904761904762,132.9100529100529 156.1904761904762,133.54497354497354 156.1904761904762,134.17989417989418 156.1904761904762,134.81481481481484 156.1904761904762,135.44973544973547 156.1904761904762,136.0846560846561 156.1904761904762,136.71957671957674 156.1904761904762,137.35449735449737 156.1904761904762,137.989417989418 156.1904761904762,138.62433862433863 156.1904761904762,139.25925925925927 156.1904761904762,139.8941798941799 156.1904761904762,140.52910052910053 156.1904761904762,143.91534391534393" style="fill:none; stroke:#999900; stroke-width:1.0"  /><polyline points="156.1904761904762,143.91534391534393 152.8042328042328,143.91534391534393 152.16931216931218,143.91534391534393 151.53439153439155,143.91534391534393 150.8994708994709,143.91534391534393 150.26455026455028,143.91534391534393 149.62962962962965,143.91534391534393 148.99470899470901,143.91534391534393 148.35978835978838,143.91534391534393 147.72486772486775,143.91534391534393 147.0899470899471,143.91534391534393 146.45502645502646,143.70370370370372 145.82010582010582,143.70370370370372 145.1851851851852,143.4920634920635 144.55026455026456,143.70370370370372 143.91534391534393,143.70370370370372 143.2804232804233,143.4920634920635 142.64550264550266,143.4920634920635 142.01058201058203,143.2804232804233 141.3756613756614,143.2804232804233 140.74074074074076,143.0687830687831 140.10582010582013,142.85714285714286 139.47089947089947,142.85714285714286 138.83597883597884,142.64550264550266 138.2010582010582,142.64550264550266 137.56613756613757,142.64550264550266 136.93121693121694,142.43386243386246 136.2962962962963,142.43386243386246 135.66137566137567,142.43386243386246 135.02645502645504,142.43386243386246 134.3915343915344,142.43386243386246 133.75661375661377,142.64550264550266 133.12169312169314,142.64550264550266 132.4867724867725,142.64550264550266 131.85185185185185,142.64550264550266 131.21693121693121,142.85714285714286 130.58201058201058,142.85714285714286 129.94708994708995,143.0687830687831 129.31216931216932,143.0687830687831 128.67724867724868,143.2804232804233 128.04232804232805,143.4920634920635 127.40740740740742,143.70370370370372 126.77248677248679,143.91534391534393 126.13756613756615,144.12698412698413 125.5026455026455,144.33862433862436 125.07936507936509,144.76190476190476 124.44444444444446,145.1851851851852 123.80952380952382,145.60846560846562 123.3862433862434,146.03174603174605 122.96296296296298,146.66666666666669 122.75132275132276,147.30158730158732 122.32804232804234,147.72486772486775 122.32804232804234,148.35978835978838 122.11640211640213,148.99470899470901 121.90476190476191,149.62962962962965 121.90476190476191,150.26455026455028 121.90476190476191,150.8994708994709 121.90476190476191,151.53439153439155 121.90476190476191,152.16931216931218 122.11640211640213,152.8042328042328 122.32804232804234,153.43915343915344 122.53968253968254,154.07407407407408 122.75132275132276,154.7089947089947 123.17460317460318,155.34391534391534 123.3862433862434,155.978835978836 123.80952380952382,156.4021164021164 124.02116402116403,157.03703703703704 124.44444444444446,157.46031746031747 124.86772486772487,157.8835978835979 125.2910052910053,158.51851851851853 125.71428571428572,158.94179894179896 126.13756613756615,159.5767195767196 126.56084656084657,160.0 126.98412698412699,160.42328042328043 127.40740740740742,161.05820105820106 127.83068783068784,161.4814814814815 128.25396825396825,161.90476190476193 128.67724867724868,162.32804232804233 129.10052910052912,162.75132275132276 129.52380952380955,163.3862433862434 129.94708994708995,164.02116402116403 130.37037037037038,164.65608465608466 130.58201058201058,165.2910052910053 130.7936507936508,165.92592592592595 131.21693121693121,166.56084656084658 131.42857142857144,167.19576719576722 131.42857142857144,167.83068783068785 131.42857142857144,168.46560846560848 131.42857142857144,169.10052910052912 131.42857142857144,169.73544973544975 131.42857142857144,170.37037037037038 131.21693121693121,171.005291005291 131.005291005291,171.64021164021165 130.7936507936508,172.27513227513228 130.37037037037038,172.6984126984127 129.94708994708995,173.33333333333334 129.52380952380955,173.75661375661377 129.10052910052912,174.1798941798942 128.67724867724868,174.6031746031746 128.25396825396825,175.02645502645504 127.61904761904763,175.44973544973547 127.1957671957672,175.87301587301587 126.77248677248679,176.2962962962963 126.34920634920636,176.71957671957674 125.71428571428572,177.14285714285717 125.2910052910053,177.56613756613757 124.65608465608466,177.989417989418 124.02116402116403,178.41269841269843 123.3862433862434,178.83597883597884 122.75132275132276,179.25925925925927 122.11640211640213,179.6825396825397 121.4814814814815,180.10582010582013 120.84656084656086,180.31746031746033 120.21164021164022,180.74074074074076 119.57671957671958,180.95238095238096 118.94179894179895,181.3756613756614 118.30687830687832,181.5873015873016 117.67195767195768,182.01058201058203 117.03703703703705,182.22222222222223 116.4021164021164,182.43386243386246 115.76719576719577,182.64550264550266 115.13227513227514,182.85714285714286 114.49735449735451,183.0687830687831 113.86243386243387,183.2804232804233 113.22751322751324,183.4920634920635 112.5925925925926,183.4920634920635 111.95767195767196,183.70370370370372 111.32275132275133,183.91534391534393 110.6878306878307,184.33862433862436 110.05291005291006,184.55026455026456 109.41798941798943,184.973544973545 108.78306878306879,185.1851851851852 108.14814814814815,185.1851851851852 107.51322751322752,185.39682539682542 106.87830687830689,185.39682539682542 106.24338624338625,185.39682539682542 105.60846560846562,185.60846560846562 104.97354497354497,185.60846560846562 104.33862433862434,185.60846560846562 103.70370370370371,185.82010582010582 103.06878306878308,185.82010582010582 102.43386243386244,185.82010582010582 101.79894179894181,185.82010582010582 101.16402116402116,185.82010582010582 100.52910052910053,185.82010582010582 99.8941798941799,185.60846560846562 99.25925925925927,185.60846560846562 98.62433862433863,185.39682539682542 97.989417989418,185.1851851851852 97.35449735449737,184.973544973545 96.93121693121694,184.55026455026456 96.2962962962963,184.12698412698415 95.87301587301587,183.70370370370372 95.44973544973546,183.2804232804233 95.02645502645504,182.85714285714286 94.60317460317461,182.22222222222223 94.17989417989419,181.5873015873016 93.96825396825398,180.95238095238096 93.54497354497356,180.31746031746033 93.54497354497356,179.6825396825397 93.12169312169313,179.04761904761907 93.12169312169313,178.41269841269843 92.91005291005291,177.7777777777778 92.69841269841271,177.14285714285717 92.69841269841271,176.50793650793653 92.69841269841271,175.87301587301587 92.69841269841271,175.23809523809524 92.69841269841271,174.6031746031746 92.69841269841271,173.96825396825398 92.4867724867725,173.33333333333334 92.27513227513228,172.6984126984127 92.06349206349208,172.06349206349208 91.85185185185186,171.42857142857144 91.64021164021165,170.7936507936508 91.21693121693123,170.37037037037038 90.7936507936508,169.73544973544975 90.37037037037038,169.31216931216932 89.73544973544975,168.8888888888889 89.31216931216932,168.46560846560848 88.67724867724868,168.25396825396825 88.25396825396827,167.83068783068785 87.61904761904762,167.61904761904762 86.98412698412699,167.40740740740742 86.34920634920636,167.19576719576722 85.71428571428572,166.984126984127 85.07936507936509,166.984126984127 84.44444444444446,166.984126984127 83.80952380952381,166.7724867724868 83.17460317460318,166.7724867724868 82.53968253968254,166.7724867724868 81.90476190476191,166.7724867724868 81.26984126984128,166.56084656084658 80.63492063492065,166.56084656084658 80.0,166.56084656084658 79.36507936507937,166.56084656084658 78.73015873015873,166.56084656084658 78.0952380952381,166.56084656084658 77.46031746031747,166.56084656084658 76.82539682539684,166.56084656084658 76.19047619047619,166.56084656084658 75.55555555555556,166.56084656084658 74.92063492063492,166.7724867724868 74.28571428571429,166.7724867724868 73.65079365079366,166.984126984127 73.01587301587303,166.984126984127 72.38095238095238,167.19576719576722 71.74603174603175,167.19576719576722 71.11111111111111,167.40740740740742 70.47619047619048,167.40740740740742 69.84126984126985,167.61904761904762 69.20634920634922,167.83068783068785 68.57142857142858,167.83068783068785 67.93650793650794,168.04232804232805 67.3015873015873,168.25396825396825 66.66666666666667,168.46560846560848 66.03174603174604,168.67724867724868 65.3968253968254,168.67724867724868 64.76190476190477,168.8888888888889 64.12698412698413,169.10052910052912 63.492063492063494,169.31216931216932 62.85714285714286,169.52380952380955 62.22222222222223,169.52380952380955 61.58730158730159,169.73544973544975 60.952380952380956,169.94708994708995 60.31746031746032,170.15873015873018 59.682539682539684,170.37037037037038 59.04761904761905,170.58201058201058 58.41269841269842,170.58201058201058 57.777777777777786,170.7936507936508 57.142857142857146,171.005291005291 56.50793650793651,171.42857142857144 55.87301587301588,171.42857142857144 55.23809523809524,171.64021164021165 54.60317460317461,171.85185185185188 53.968253968253975,172.06349206349208 53.333333333333336,172.27513227513228 52.6984126984127,172.4867724867725 52.06349206349207,172.6984126984127 51.42857142857143,172.9100529100529 50.7936507936508,173.12169312169314 50.158730158730165,173.33333333333334 49.523809523809526,173.75661375661377 48.88888888888889,173.96825396825398 48.25396825396826,174.1798941798942 47.61904761904762,174.3915343915344 46.98412698412699,174.6031746031746 46.349206349206355,175.02645502645504 45.714285714285715,175.23809523809524 45.07936507936508,175.44973544973547 44.44444444444445,175.66137566137567 43.80952380952381,176.0846560846561 43.17460317460318,176.2962962962963 42.539682539682545,176.50793650793653 41.904761904761905,176.71957671957674 41.48148148148149,177.14285714285717 40.84656084656085,177.35449735449737 40.211640211640216,177.56613756613757 39.78835978835979,177.989417989418 39.15343915343916,178.41269841269843 38.51851851851852,178.62433862433863 37.883597883597886,178.83597883597884 37.248677248677254,179.25925925925927 36.613756613756614,179.4708994708995 35.97883597883598,179.6825396825397 35.34391534391535,179.8941798941799 34.70899470899471,180.10582010582013 34.074074074074076,180.52910052910053 33.43915343915344,180.74074074074076 32.804232804232804,181.16402116402116 32.16931216931217,181.3756613756614 31.53439153439154,181.79894179894183 30.899470899470902,182.01058201058203 30.264550264550266,182.43386243386246 29.629629629629633,182.64550264550266 29.20634920634921,183.0687830687831 28.571428571428573,183.2804232804233 28.14814814814815,183.70370370370372 27.513227513227516,183.91534391534393 26.87830687830688,184.33862433862436 26.243386243386244,184.7619047619048 25.60846560846561,185.1851851851852 24.973544973544975,185.39682539682542 24.55026455026455,185.82010582010582 21.58730158730159,187.51322751322752" style="fill:none; stroke:#00aa99; stroke-width:1.0"  /><polyline points="21.58730158730159,187.51322751322752 20.31746031746032,184.12698412698415 20.105820105820108,183.4920634920635 19.894179894179896,182.85714285714286 19.682539682539684,182.22222222222223 19.47089947089947,181.5873015873016 19.25925925925926,180.95238095238096 19.047619047619047,180.31746031746033 19.047619047619047,179.6825396825397 18.624338624338627,179.04761904761907 18.412698412698415,178.41269841269843 18.201058201058203,177.7777777777778 17.98941798941799,177.14285714285717 17.77777777777778,176.50793650793653 17.566137566137566,175.87301587301587 17.142857142857146,175.23809523809524 16.931216931216934,174.6031746031746 16.71957671957672,173.96825396825398 16.50793650793651,173.33333333333334 16.084656084656086,172.6984126984127 15.873015873015873,172.06349206349208 15.661375661375663,171.42857142857144 15.449735449735451,170.7936507936508 15.026455026455027,170.15873015873018 14.814814814814817,169.52380952380955 14.603174603174605,168.8888888888889 14.17989417989418,168.25396825396825 13.96825396825397,167.61904761904762 13.756613756613758,166.984126984127 13.333333333333334,166.34920634920636 12.910052910052912,165.71428571428572 12.6984126984127,165.0793650793651 12.486772486772487,164.44444444444446 12.275132275132275,163.80952380952382 11.851851851851853,163.1746031746032 11.640211640211641,162.53968253968256 11.428571428571429,161.90476190476193 11.216931216931219,161.2698412698413 11.005291005291006,160.63492063492066 10.793650793650794,160.0 10.370370370370372,159.36507936507937 10.15873015873016,158.73015873015873 9.947089947089948,158.0952380952381 9.735449735449736,157.46031746031747 9.523809523809524,156.82539682539684 9.312169312169313,156.1904761904762 9.100529100529101,155.55555555555557 8.88888888888889,154.92063492063494 8.465608465608467,154.2857142857143 8.253968253968255,153.65079365079367 8.042328042328043,153.01587301587304 8.042328042328043,152.38095238095238 7.830687830687832,151.74603174603175 7.6190476190476195,151.11111111111111 7.407407407407408,150.47619047619048 7.195767195767196,149.84126984126985 6.984126984126985,149.20634920634922 6.772486772486773,148.57142857142858 6.560846560846561,147.93650793650795 6.34920634920635,147.30158730158732 6.34920634920635,146.66666666666669 6.137566137566138,146.03174603174605 5.9259259259259265,145.39682539682542 5.9259259259259265,144.76190476190476 5.714285714285714,144.12698412698413 5.502645502645503,143.4920634920635 5.502645502645503,142.85714285714286 5.502645502645503,142.22222222222223 5.502645502645503,141.5873015873016 5.502645502645503,140.95238095238096 5.714285714285714,140.31746031746033 5.714285714285714,139.6825396825397 6.137566137566138,139.04761904761907 6.34920634920635,138.41269841269843 6.772486772486773,137.989417989418 7.407407407407408,137.56613756613757 7.830687830687832,137.14285714285717 8.465608465608467,136.93121693121694 9.100529100529101,136.71957671957674 9.735449735449736,136.5079365079365 10.370370370370372,136.5079365079365 11.005291005291006,136.5079365079365 11.640211640211641,136.5079365079365 12.275132275132275,136.5079365079365 12.910052910052912,136.71957671957674 13.544973544973546,136.71957671957674 14.17989417989418,136.93121693121694 14.814814814814817,137.14285714285717 15.449735449735451,137.35449735449737 16.084656084656086,137.56613756613757 16.71957671957672,137.989417989418 17.354497354497354,137.989417989418 17.98941798941799,138.41269841269843 18.624338624338627,138.62433862433863 19.25925925925926,138.83597883597884 19.894179894179896,139.04761904761907 20.529100529100532,139.25925925925927 21.164021164021165,139.47089947089947 21.7989417989418,139.8941798941799 22.433862433862437,140.10582010582013 23.06878306878307,140.31746031746033 23.703703703703706,140.52910052910053 24.338624338624342,140.74074074074076 24.973544973544975,141.16402116402116 25.60846560846561,141.3756613756614 26.243386243386244,141.5873015873016 26.87830687830688,141.7989417989418 27.513227513227516,142.01058201058203 28.14814814814815,142.22222222222223 28.783068783068785,142.43386243386246 29.41798941798942,142.43386243386246 30.052910052910054,142.64550264550266 30.68783068783069,142.64550264550266 31.322751322751326,142.64550264550266 31.95767195767196,142.64550264550266 32.592592592592595,142.64550264550266 33.22751322751323,142.43386243386246 33.86243386243387,142.22222222222223 34.4973544973545,142.01058201058203 35.13227513227513,141.7989417989418 35.76719576719577,141.5873015873016 36.402116402116405,141.3756613756614 36.82539682539683,140.74074074074076 37.46031746031746,140.31746031746033 37.883597883597886,139.8941798941799 38.30687830687831,139.47089947089947 38.730158730158735,139.04761904761907 38.94179894179894,138.41269841269843 39.15343915343916,137.7777777777778 39.36507936507937,137.14285714285717 39.78835978835979,136.5079365079365 40.0,135.87301587301587 40.0,135.23809523809524 40.211640211640216,134.6031746031746 40.211640211640216,133.96825396825398 40.423280423280424,133.33333333333334 40.63492063492064,132.6984126984127 40.84656084656085,132.06349206349208 40.84656084656085,131.42857142857144 40.84656084656085,130.7936507936508 40.84656084656085,130.15873015873018 41.058201058201064,129.52380952380955 41.26984126984127,128.88888888888889 41.26984126984127,128.25396825396825 41.26984126984127,127.61904761904763 41.26984126984127,126.98412698412699 41.48148148148149,126.34920634920636 41.48148148148149,125.71428571428572 41.48148148148149,125.07936507936509 41.48148148148149,124.44444444444446 41.48148148148149,123.80952380952382 41.48148148148149,123.17460317460318 41.48148148148149,122.53968253968254 41.48148148148149,121.90476190476191 41.48148148148149,121.26984126984128 41.48148148148149,120.63492063492065 41.48148148148149,120.00000000000001 41.48148148148149,119.36507936507937 41.48148148148149,118.73015873015873 41.26984126984127,118.0952380952381 41.26984126984127,117.46031746031747 41.26984126984127,116.82539682539684 41.058201058201064,116.1904761904762 41.058201058201064,115.55555555555557 41.058201058201064,114.92063492063492 40.84656084656085,114.28571428571429 40.63492063492064,113.65079365079366 40.63492063492064,113.01587301587303 40.423280423280424,112.3809523809524 40.211640211640216,111.74603174603176 40.211640211640216,111.11111111111111 40.0,110.47619047619048 39.78835978835979,109.84126984126985 39.57671957671958,109.20634920634922 39.36507936507937,108.57142857142858 39.15343915343916,107.93650793650795 38.94179894179894,107.3015873015873 38.730158730158735,106.66666666666667 38.51851851851852,106.03174603174604 38.095238095238095,105.3968253968254 37.883597883597886,104.76190476190477 37.67195767195768,104.12698412698414 37.46031746031746,103.4920634920635 37.03703703703704,102.85714285714286 36.82539682539683,102.22222222222223 36.402116402116405,101.79894179894181 36.19047619047619,101.16402116402116 35.76719576719577,100.74074074074075 35.55555555555556,100.10582010582011 35.13227513227513,99.47089947089948 34.70899470899471,99.04761904761905 34.28571428571429,98.41269841269842 33.86243386243387,97.989417989418 33.43915343915344,97.56613756613757 33.01587301587302,97.14285714285715 32.38095238095239,96.71957671957672 31.746031746031747,96.50793650793652 31.111111111111114,96.2962962962963 30.476190476190478,95.87301587301587 29.841269841269842,95.87301587301587 29.20634920634921,95.66137566137567 28.571428571428573,95.66137566137567 27.93650793650794,95.66137566137567 27.301587301587304,95.87301587301587 26.666666666666668,95.87301587301587 26.031746031746035,95.87301587301587 25.3968253968254,96.08465608465609 24.761904761904763,96.2962962962963 24.12698412698413,96.50793650793652 23.492063492063494,96.93121693121694 22.857142857142858,97.14285714285715 22.222222222222225,97.35449735449737 21.7989417989418,97.77777777777779 21.164021164021165,97.989417989418 20.740740740740744,98.41269841269842 20.105820105820108,98.83597883597885 19.47089947089947,99.25925925925927 18.83597883597884,99.68253968253968 18.201058201058203,100.10582010582011 17.566137566137566,100.52910052910053 17.142857142857146,100.95238095238096 16.50793650793651,101.37566137566138 15.873015873015873,101.79894179894181 15.238095238095239,102.22222222222223 14.814814814814817,102.64550264550266 14.17989417989418,103.06878306878308 13.544973544973546,103.4920634920635 12.910052910052912,103.91534391534393 12.275132275132275,104.33862433862434 11.640211640211641,104.76190476190477 11.216931216931219,105.18518518518519 10.582010582010582,105.3968253968254 10.15873015873016,105.82010582010582 9.523809523809524,106.03174603174604 8.88888888888889,106.45502645502647 8.253968253968255,106.66666666666667 7.6190476190476195,106.66666666666667 6.984126984126985,106.66666666666667 6.34920634920635,106.66666666666667 5.714285714285714,106.45502645502647 5.07936507936508,106.24338624338625 4.444444444444445,106.24338624338625 4.021164021164021,105.82010582010582 3.597883597883598,105.3968253968254 3.174603174603175,104.97354497354497 2.9629629629629632,104.33862433862434 2.53968253968254,103.70370370370371 2.3280423280423284,103.06878306878308 2.1164021164021167,102.43386243386244 2.1164021164021167,101.79894179894181 2.1164021164021167,101.16402116402116 2.1164021164021167,100.52910052910053 1.9047619047619049,99.8941798941799 1.9047619047619049,99.25925925925927 2.1164021164021167,98.62433862433863 2.1164021164021167,97.989417989418 2.1164021164021167,97.35449735449737 2.3280423280423284,96.71957671957672 2.1164021164021167,96.08465608465609 2.3280423280423284,95.44973544973546 2.53968253968254,94.81481481481482 2.53968253968254,94.17989417989419 2.7513227513227516,93.54497354497356 2.9629629629629632,92.91005291005291 2.9629629629629632,92.27513227513228 3.174603174603175,91.64021164021165 3.174603174603175,91.00529100529101 3.3862433862433865,90.37037037037038 3.3862433862433865,89.73544973544975 3.597883597883598,89.1005291005291 3.597883597883598,88.46560846560847 3.8095238095238098,87.83068783068784 3.8095238095238098,87.1957671957672 3.8095238095238098,86.56084656084657 4.021164021164021,85.92592592592594 4.021164021164021,85.29100529100529 4.2328042328042335,84.65608465608466 4.2328042328042335,84.02116402116403 4.2328042328042335,83.3862433862434 4.2328042328042335,82.75132275132276 4.444444444444445,82.11640211640213 4.444444444444445,81.48148148148148 4.444444444444445,80.84656084656085 4.444444444444445,80.21164021164022 4.656084656084657,79.57671957671958 4.656084656084657,78.94179894179895 4.656084656084657,78.30687830687832 4.656084656084657,77.67195767195767 4.656084656084657,77.03703703703704 4.656084656084657,76.4021164021164 4.656084656084657,75.76719576719577 4.656084656084657,75.13227513227514 4.656084656084657,74.49735449735451 4.656084656084657,73.86243386243387 4.656084656084657,73.22751322751323 4.656084656084657,72.5925925925926 4.656084656084657,71.95767195767196 4.656084656084657,71.32275132275133 4.656084656084657,70.6878306878307 4.656084656084657,70.05291005291006 4.656084656084657,69.41798941798942 4.656084656084657,68.78306878306879 4.656084656084657,68.14814814814815 4.656084656084657,67.51322751322752 4.656084656084657,66.87830687830689 4.444444444444445,66.24338624338625 4.444444444444445,65.60846560846561 4.444444444444445,64.97354497354497 4.2328042328042335,64.33862433862434 4.2328042328042335,63.70370370370371 4.021164021164021,63.06878306878308 4.021164021164021,62.43386243386244 3.8095238095238098,61.798941798941804 3.597883597883598,61.16402116402117 3.3862433862433865,60.52910052910053 3.3862433862433865,59.8941798941799 3.174603174603175,59.25925925925927 2.9629629629629632,58.62433862433863 2.9629629629629632,57.989417989417994 2.7513227513227516,57.35449735449736 2.7513227513227516,56.71957671957672 2.53968253968254,56.08465608465609 2.3280423280423284,55.449735449735456 2.1164021164021167,54.81481481481482 2.1164021164021167,54.179894179894184 2.1164021164021167,53.54497354497355 1.9047619047619049,52.91005291005291 1.6931216931216932,52.27513227513228 1.6931216931216932,51.640211640211646 1.4814814814814816,51.00529100529101 1.26984126984127,50.370370370370374 1.0582010582010584,49.73544973544974 1.0582010582010584,49.1005291005291 0.8465608465608466,48.46560846560847 0.634920634920635,47.830687830687836 0.634920634920635,47.195767195767196 0.4232804232804233,46.560846560846564 0.4232804232804233,45.92592592592593 0.4232804232804233,45.29100529100529 0.21164021164021166,44.65608465608466 0.21164021164021166,44.021164021164026 0.21164021164021166,43.386243386243386 -0.4232804232804233,39.78835978835979" style="fill:none; stroke:#3300bb; stroke-width:1.0"  /><circle cx="-0.4232804232804233" cy="39.78835978835979" r="2.0" style="fill:none; stroke:#000000aa; stroke-width:0.25" /><circle cx="133.54497354497354" cy="0.21164021164021166" r="2.0" style="fill:none; stroke:#000000aa; stroke-width:0.25" /><circle cx="156.1904761904762" cy="143.91534391534393" r="2.0" style="fill:none; stroke:#000000aa; stroke-width:0.25" /><circle cx="21.58730158730159" cy="187.51322751322752" r="2.0" style="fill:none; stroke:#000000aa; stroke-width:0.25" /><circle cx="0.21164021164021166" cy="40.0" r="2.0" style="fill:none; stroke:#ff3366aa; stroke-width:0.25" /><circle cx="133.12169312169314" cy="0.634920634920635" r="2.0" style="fill:none; stroke:#ff3366aa; stroke-width:0.25" /><circle cx="155.978835978836" cy="143.70370370370372" r="2.0" style="fill:none; stroke:#ff3366aa; stroke-width:0.25" /><circle cx="21.58730158730159" cy="187.08994708994712" r="2.0" style="fill:none; stroke:#ff3366aa; stroke-width:0.25" /><polyline points="11.640211640211641,37.67195767195768 11.005291005291006,37.883597883597886 10.370370370370372,38.095238095238095 9.735449735449736,38.095238095238095 9.100529100529101,38.30687830687831 8.465608465608467,38.095238095238095 7.830687830687832,38.095238095238095 7.195767195767196,38.30687830687831 6.560846560846561,38.51851851851852 5.9259259259259265,38.51851851851852 5.291005291005291,38.730158730158735 4.656084656084657,38.94179894179894 4.021164021164021,39.15343915343916 3.3862433862433865,39.15343915343916" style="fill:none; stroke:#001100; stroke-width:1.0" /><polyline points="1.6931216931216932,51.640211640211646 1.4814814814814816,51.00529100529101 1.26984126984127,50.370370370370374 1.0582010582010584,49.73544973544974 1.0582010582010584,49.1005291005291 0.8465608465608466,48.46560846560847 0.634920634920635,47.830687830687836 0.634920634920635,47.195767195767196 0.4232804232804233,46.560846560846564 0.4232804232804233,45.92592592592593 0.4232804232804233,45.29100529100529 0.21164021164021166,44.65608465608466 0.21164021164021166,44.021164021164026 0.21164021164021166,43.386243386243386" style="fill:none; stroke:#000011; stroke-width:1.0" /><polyline points="135.02645502645504,12.486772486772487 135.02645502645504,11.851851851851853 134.81481481481484,11.216931216931219 134.81481481481484,10.582010582010582 134.81481481481484,9.947089947089948 134.6031746031746,9.312169312169313 134.6031746031746,8.677248677248677 134.6031746031746,8.042328042328043 134.3915343915344,7.407407407407408 134.3915343915344,6.772486772486773 134.3915343915344,6.137566137566138 134.3915343915344,5.502645502645503 134.17989417989418,4.867724867724868 134.17989417989418,4.2328042328042335 133.96825396825398,3.597883597883598" style="fill:none; stroke:#001100; stroke-width:1.0" /><polyline points="121.26984126984128,1.26984126984127 121.90476190476191,1.26984126984127 122.53968253968254,1.26984126984127 123.17460317460318,1.0582010582010584 123.80952380952382,1.0582010582010584 124.44444444444446,1.0582010582010584 125.07936507936509,1.0582010582010584 125.71428571428572,0.634920634920635 126.34920634920636,0.634920634920635 126.98412698412699,0.634920634920635 127.61904761904763,0.634920634920635 128.25396825396825,0.4232804232804233 128.88888888888889,0.4232804232804233 129.52380952380955,0.4232804232804233 130.15873015873018,0.4232804232804233" style="fill:none; stroke:#000011; stroke-width:1.0" /><polyline points="143.91534391534393,143.70370370370372 144.55026455026456,143.70370370370372 145.1851851851852,143.4920634920635 145.82010582010582,143.70370370370372 146.45502645502646,143.70370370370372 147.0899470899471,143.91534391534393 147.72486772486775,143.91534391534393 148.35978835978838,143.91534391534393 148.99470899470901,143.91534391534393 149.62962962962965,143.91534391534393 150.26455026455028,143.91534391534393 150.8994708994709,143.91534391534393 151.53439153439155,143.91534391534393 152.16931216931218,143.91534391534393 152.8042328042328,143.91534391534393" style="fill:none; stroke:#001100; stroke-width:1.0" /><polyline points="156.1904761904762,132.27513227513228 156.1904761904762,132.9100529100529 156.1904761904762,133.54497354497354 156.1904761904762,134.17989417989418 156.1904761904762,134.81481481481484 156.1904761904762,135.44973544973547 156.1904761904762,136.0846560846561 156.1904761904762,136.71957671957674 156.1904761904762,137.35449735449737 156.1904761904762,137.989417989418 156.1904761904762,138.62433862433863 156.1904761904762,139.25925925925927 156.1904761904762,139.8941798941799 156.1904761904762,140.52910052910053" style="fill:none; stroke:#000011; stroke-width:1.0" /><polyline points="17.566137566137566,175.87301587301587 17.77777777777778,176.50793650793653 17.98941798941799,177.14285714285717 18.201058201058203,177.7777777777778 18.412698412698415,178.41269841269843 18.624338624338627,179.04761904761907 19.047619047619047,179.6825396825397 19.047619047619047,180.31746031746033 19.25925925925926,180.95238095238096 19.47089947089947,181.5873015873016 19.682539682539684,182.22222222222223 19.894179894179896,182.85714285714286 20.105820105820108,183.4920634920635 20.31746031746032,184.12698412698415" style="fill:none; stroke:#001100; stroke-width:1.0" /><polyline points="32.16931216931217,181.3756613756614 31.53439153439154,181.79894179894183 30.899470899470902,182.01058201058203 30.264550264550266,182.43386243386246 29.629629629629633,182.64550264550266 29.20634920634921,183.0687830687831 28.571428571428573,183.2804232804233 28.14814814814815,183.70370370370372 27.513227513227516,183.91534391534393 26.87830687830688,184.33862433862436 26.243386243386244,184.7619047619048 25.60846560846561,185.1851851851852 24.973544973544975,185.39682539682542 24.55026455026455,185.82010582010582" style="fill:none; stroke:#000011; stroke-width:1.0" /><polyline points="3.3862433862433865,39.15343915343916 -17.354497354497354,42.96296296296297" style="fill:none; stroke:#ffaa00; stroke-width:0.4" /><polyline points="0.21164021164021166,43.386243386243386 -3.597883597883598,22.645502645502646" style="fill:none; stroke:#aaff00; stroke-width:0.4" /><polyline points="133.96825396825398,3.597883597883598 131.42857142857144,-17.354497354497354" style="fill:none; stroke:#ffaa00; stroke-width:0.4" /><polyline points="130.15873015873018,0.4232804232804233 151.32275132275134,-1.4814814814814816" style="fill:none; stroke:#aaff00; stroke-width:0.4" /><polyline points="152.8042328042328,143.91534391534393 173.96825396825398,144.33862433862436" style="fill:none; stroke:#ffaa00; stroke-width:0.4" /><polyline points="156.1904761904762,140.52910052910053 156.1904761904762,161.6931216931217" style="fill:none; stroke:#aaff00; stroke-width:0.4" /><polyline points="20.31746031746032,184.12698412698415 27.089947089947092,204.23280423280426" style="fill:none; stroke:#ffaa00; stroke-width:0.4" /><polyline points="24.55026455026455,185.82010582010582 6.34920634920635,196.4021164021164" style="fill:none; stroke:#aaff00; stroke-width:0.4" /><circle cx="79.7883597883598" cy="98.83597883597885" r="1.0" style="fill:#444444; stroke-width:0" /><circle cx="81.48148148148148" cy="126.13756613756615" r="10.582010582010582" style="fill:#ff770022; stroke-width:0" /><circle cx="81.48148148148148" cy="126.13756613756615" r="1.0" style="fill:#ff7700; stroke-width:0" /></svg>