<?xml version="1.0" encoding="UTF-8" standalone="no"?><svg width="660.952380952381" height="659.6825396825398" viewBox="-10 -10 240.31746031746033 239.8941798941799" xmlns="http://www.w3.org/2000/svg" xmlns:xlink="http://www.w3.org/1999/xlink"><polyline points="42.32804232804233,55.02645502645503 44.65608465608466,53.54497354497355 45.29100529100529,53.12169312169313 45.92592592592593,52.6984126984127 46.560846560846564,52.27513227513228 47.195767195767196,51.851851851851855 47.830687830687836,51.42857142857143 48.46560846560847,51.00529100529101 49.1005291005291,50.58201058201058 49.73544973544974,50.158730158730165 50.370370370370374,49.73544973544974 51.00529100529101,49.31216931216932 51.640211640211646,48.88888888888889 52.27513227513228,48.677248677248684 52.6984126984127,48.25396825396826 53.333333333333336,48.042328042328045 53.968253968253975,47.61904761904762 54.60317460317461,47.195767195767196 55.23809523809524,46.98412698412699 55.661375661375665,46.560846560846564 56.2962962962963,46.349206349206355 56.71957671957672,45.92592592592593 57.35449735449736,45.714285714285715 57.777777777777786,45.29100529100529 58.41269841269842,45.07936507936508 59.04761904761905,44.65608465608466 59.682539682539684,44.44444444444445 60.10582010582011,44.021164021164026 60.74074074074075,43.80952380952381 61.37566137566138,43.5978835978836 62.01058201058201,43.17460317460318 62.64550264550265,42.96296296296297 63.280423280423285,42.75132275132275 63.91534391534392,42.539682539682545 64.55026455026456,42.32804232804233 65.18518518518519,42.32804232804233 65.82010582010582,42.11640211640212 66.45502645502646,42.11640211640212 67.08994708994709,41.6931216931217 67.72486772486774,41.6931216931217 68.35978835978837,41.904761904761905 68.994708994709,41.904761904761905 69.62962962962963,41.904761904761905 70.26455026455027,41.904761904761905 70.8994708994709,41.6931216931217 71.53439153439155,41.6931216931217 72.16931216931218,41.904761904761905 72.5925925925926,42.32804232804233 73.22751322751323,42.32804232804233 73.86243386243387,42.539682539682545 74.49735449735451,42.75132275132275 75.13227513227514,43.17460317460318 75.76719576719577,43.17460317460318 76.4021164021164,43.5978835978836 77.03703703703704,44.021164021164026 77.67195767195767,44.232804232804234 78.30687830687832,44.65608465608466 78.94179894179895,45.07936507936508 79.36507936507937,45.50264550264551 80.0,45.92592592592593 80.42328042328043,46.349206349206355 80.84656084656085,46.77248677248678 81.26984126984128,47.195767195767196 81.48148148148148,47.830687830687836 81.90476190476191,48.25396825396826 82.32804232804233,48.88888888888889 82.75132275132276,49.523809523809526 82.96296296296298,50.158730158730165 83.3862433862434,50.7936507936508 83.59788359788361,51.42857142857143 83.80952380952381,52.06349206349207 84.02116402116403,52.6984126984127 84.23280423280424,53.333333333333336 84.23280423280424,53.968253968253975 84.44444444444446,54.60317460317461 84.44444444444446,55.23809523809524 84.65608465608466,55.87301587301588 84.44444444444446,56.50793650793651 84.44444444444446,57.142857142857146 84.65608465608466,57.777777777777786 84.65608465608466,58.41269841269842 84.65608465608466,59.04761904761905 84.65608465608466,59.682539682539684 84.44444444444446,60.31746031746032 84.65608465608466,60.952380952380956 84.65608465608466,61.58730158730159 84.86772486772487,62.22222222222223 85.07936507936509,62.85714285714286 85.29100529100529,63.492063492063494 85.71428571428572,64.12698412698413 86.13756613756614,64.76190476190477 86.56084656084657,65.3968253968254 86.98412698412699,65.82010582010582 87.40740740740742,66.45502645502646 87.83068783068784,67.08994708994709 88.25396825396827,67.72486772486774 88.67724867724868,68.14814814814815 89.1005291005291,68.57142857142858 89.52380952380953,69.20634920634922 89.94708994708995,69.62962962962963 90.37037037037038,70.05291005291006 90.7936507936508,70.47619047619048 91.42857142857143,70.8994708994709 91.85185185185186,71.32275132275133 92.4867724867725,71.74603174603175 93.12169312169313,72.16931216931218 93.75661375661376,72.38095238095238 94.39153439153439,72.38095238095238 94.81481481481482,73.01587301587303 95.44973544973546,73.22751322751323 96.08465608465609,73.43915343915344 96.71957671957672,73.65079365079366 97.35449735449737,73.86243386243387 97.989417989418,74.28571428571429 98.62433862433863,74.28571428571429 99.25925925925927,74.28571428571429 99.8941798941799,74.70899470899471 100.52910052910053,74.70899470899471 101.16402116402116,74.49735449735451 101.79894179894181,74.49735449735451 102.43386243386244,74.49735449735451 103.06878306878308,74.70899470899471 103.70370370370371,74.49735449735451 104.33862433862434,74.49735449735451 104.97354497354497,74.70899470899471 105.60846560846562,74.28571428571429 106.24338624338625,74.28571428571429 106.87830687830689,74.28571428571429 107.51322751322752,73.86243386243387 108.14814814814815,73.86243386243387 108.78306878306879,73.65079365079366 109.41798941798943,73.43915343915344 110.05291005291006,73.01587301587303 110.6878306878307,73.01587301587303 111.11111111111111,72.5925925925926 111.74603174603176,72.38095238095238 112.3809523809524,72.16931216931218 113.01587301587303,71.74603174603175 113.43915343915344,71.32275132275133 114.07407407407408,71.11111111111111 114.70899470899472,70.6878306878307 115.34391534391536,70.26455026455027 115.97883597883599,69.84126984126985 116.61375661375662,69.62962962962963 117.24867724867725,69.20634920634922 117.88359788359789,68.78306878306879 118.51851851851853,68.35978835978837 119.15343915343917,67.93650793650794 119.7883597883598,67.51322751322752 120.21164021164022,67.08994708994709 120.63492063492065,66.66666666666667 121.26984126984128,66.24338624338625 121.6931216931217,65.82010582010582 122.11640211640213,65.3968253968254 122.53968253968254,64.97354497354497 122.96296296296298,64.55026455026456 123.3862433862434,64.12698412698413 123.80952380952382,63.70370370370371 124.23280423280424,63.280423280423285 124.65608465608466,62.64550264550265 125.07936507936509,62.22222222222223 125.5026455026455,61.58730158730159 125.92592592592594,61.16402116402117 126.34920634920636,60.52910052910053 126.77248677248679,59.8941798941799 127.1957671957672,59.25925925925927 127.61904761904763,58.62433862433863 127.83068783068784,57.989417989417994 128.04232804232805,57.35449735449736 128.25396825396825,56.71957671957672 128.46560846560848,56.08465608465609 128.46560846560848,55.449735449735456 128.46560846560848,54.81481481481482 128.46560846560848,54.179894179894184 128.25396825396825,53.54497354497355 128.25396825396825,52.91005291005291 128.04232804232805,52.27513227513228 127.83068783068784,51.640211640211646 127.40740740740742,51.00529100529101 127.1957671957672,50.370370370370374 126.77248677248679,49.73544973544974 126.34920634920636,49.1005291005291 126.13756613756615,48.46560846560847 125.71428571428572,48.042328042328045 125.2910052910053,47.40740740740741 124.86772486772487,46.77248677248678 124.44444444444446,46.349206349206355 124.02116402116403,45.92592592592593 123.59788359788361,45.50264550264551 123.17460317460318,45.07936507936508 122.75132275132276,44.65608465608466 122.32804232804234,44.232804232804234 121.6931216931217,43.80952380952381 121.26984126984128,43.386243386243386 120.63492063492065,42.96296296296297 120.00000000000001,42.539682539682545 119.36507936507937,42.11640211640212 118.73015873015873,41.6931216931217 118.0952380952381,41.26984126984127 117.67195767195768,40.84656084656085 117.03703703703705,40.63492063492064 116.61375661375662,40.211640211640216 115.97883597883599,39.78835978835979 115.34391534391536,39.36507936507937 114.70899470899472,39.15343915343916 114.28571428571429,38.730158730158735 113.86243386243387,38.30687830687831 113.43915343915344,37.883597883597886 113.01587301587303,37.46031746031746 112.5925925925926,37.03703703703704 112.16931216931218,36.613756613756614 111.74603174603176,35.97883597883598 111.53439153439155,35.34391534391535 111.11111111111111,34.920634920634924 110.6878306878307,34.28571428571429 110.47619047619048,33.65079365079365 110.26455026455027,33.01587301587302 110.05291005291006,32.38095238095239 109.62962962962963,31.746031746031747 109.62962962962963,31.111111111111114 109.41798941798943,30.476190476190478 109.20634920634922,29.841269841269842 108.994708994709,29.20634920634921 108.994708994709,28.571428571428573 108.78306878306879,27.93650793650794 108.78306878306879,27.301587301587304 108.78306878306879,26.666666666666668 108.78306878306879,26.031746031746035 108.78306878306879,25.3968253968254 108.994708994709,24.761904761904763 108.994708994709,24.12698412698413 108.994708994709,23.492063492063494 109.20634920634922,22.857142857142858 109.20634920634922,22.222222222222225 109.41798941798943,21.58730158730159 109.62962962962963,20.952380952380953 109.84126984126985,20.31746031746032 110.05291005291006,19.682539682539684 110.26455026455027,19.047619047619047 110.47619047619048,18.412698412698415 110.89947089947091,17.77777777777778 111.11111111111111,17.142857142857146 111.53439153439155,16.50793650793651 111.95767195767196,16.084656084656086 112.3809523809524,15.661375661375663 112.80423280423281,15.026455026455027 113.22751322751324,14.391534391534393 113.65079365079366,13.756613756613758 114.07407407407408,13.333333333333334 114.49735449735451,12.910052910052912 115.13227513227514,12.486772486772487 115.55555555555557,12.063492063492065 116.1904761904762,11.640211640211641 116.61375661375662,11.216931216931219 117.24867724867725,11.005291005291006 117.67195767195768,10.582010582010582 118.30687830687832,10.15873015873016 118.94179894179895,9.947089947089948 119.57671957671958,9.523809523809524 120.21164021164022,9.100529100529101 120.84656084656086,8.88888888888889 121.4814814814815,8.465608465608467 122.11640211640213,8.253968253968255 122.53968253968254,7.830687830687832 123.17460317460318,7.6190476190476195 123.80952380952382,7.195767195767196 124.44444444444446,6.984126984126985 125.07936507936509,6.560846560846561 125.71428571428572,6.34920634920635 126.34920634920636,5.9259259259259265 126.98412698412699,5.714285714285714 127.61904761904763,5.291005291005291 128.25396825396825,5.07936507936508 128.88888888888889,4.867724867724868 129.52380952380955,4.444444444444445 130.15873015873018,4.2328042328042335 130.7936507936508,3.8095238095238098 131.42857142857144,3.597883597883598 132.06349206349208,3.3862433862433865 132.6984126984127,2.9629629629629632 133.33333333333334,2.7513227513227516 133.96825396825398,2.53968253968254 134.6031746031746,2.3280423280423284 135.23809523809524,2.1164021164021167 135.87301587301587,1.6931216931216932 136.5079365079365,1.4814814814814816 137.14285714285717,1.26984126984127 140.74074074074076,-0.21164021164021166" style="fill:none; stroke:#cc0000; stroke-width:1.0"  /><polyline points="140.74074074074076,-0.21164021164021166 141.5873015873016,3.174603174603175 141.7989417989418,3.8095238095238098 142.01058201058203,4.444444444444445 142.22222222222223,5.07936507936508 142.22222222222223,5.714285714285714 142.43386243386246,6.34920634920635 142.64550264550266,6.984126984126985 142.85714285714286,7.6190476190476195 142.85714285714286,8.253968253968255 143.0687830687831,8.88888888888889 143.2804232804233,9.523809523809524 143.4920634920635,10.15873015873016 143.70370370370372,10.793650793650794 143.91534391534393,11.428571428571429 144.12698412698413,12.063492063492065 144.33862433862436,12.6984126984127 144.76190476190476,13.333333333333334 144.973544973545,13.96825396825397 145.1851851851852,14.603174603174605 145.39682539682542,15.238095238095239 145.60846560846562,15.873015873015873 146.03174603174605,16.50793650793651 146.24338624338625,17.142857142857146 146.45502645502646,17.77777777777778 146.66666666666669,18.412698412698415 146.8783068783069,19.047619047619047 147.30158730158732,19.682539682539684 147.51322751322752,20.31746031746032 147.93650793650795,20.952380952380953 148.14814814814815,21.58730158730159 148.57142857142858,22.222222222222225 148.78306878306879,22.857142857142858 149.20634920634922,23.492063492063494 149.41798941798942,24.12698412698413 149.62962962962965,24.761904761904763 150.05291005291005,25.3968253968254 150.26455026455028,26.031746031746035 150.6878306878307,26.455026455026456 150.8994708994709,27.089947089947092 151.32275132275134,27.724867724867728 151.53439153439155,28.35978835978836 151.95767195767198,28.994708994708997 152.16931216931218,29.629629629629633 152.5925925925926,30.264550264550266 152.8042328042328,30.899470899470902 153.22751322751324,31.53439153439154 153.43915343915344,32.16931216931217 153.86243386243387,32.804232804232804 154.07407407407408,33.43915343915344 154.4973544973545,34.074074074074076 154.92063492063494,34.70899470899471 155.13227513227514,35.34391534391535 155.55555555555557,35.97883597883598 155.76719576719577,36.613756613756614 155.978835978836,37.248677248677254 156.4021164021164,37.883597883597886 156.82539682539684,38.51851851851852 157.03703703703704,39.15343915343916 157.46031746031747,39.57671957671958 157.8835978835979,40.211640211640216 158.0952380952381,40.84656084656085 158.51851851851853,41.48148148148149 158.73015873015873,42.11640211640212 159.15343915343917,42.75132275132275 159.5767195767196,43.386243386243386 159.7883597883598,44.021164021164026 160.21164021164023,44.65608465608466 160.42328042328043,45.29100529100529 160.84656084656086,45.92592592592593 161.05820105820106,46.560846560846564 161.4814814814815,47.195767195767196 161.6931216931217,47.830687830687836 162.11640211640213,48.25396825396826 162.32804232804233,48.88888888888889 162.75132275132276,49.523809523809526 162.96296296296296,50.158730158730165 163.3862433862434,50.7936507936508 163.59788359788362,51.42857142857143 164.02116402116403,52.06349206349207 164.44444444444446,52.6984126984127 164.8677248677249,53.333333333333336 165.0793650793651,53.968253968253975 165.50264550264552,54.60317460317461 165.92592592592595,55.23809523809524 166.34920634920636,55.87301587301588 166.7724867724868,56.50793650793651 167.19576719576722,57.142857142857146 167.61904761904762,57.777777777777786 168.04232804232805,58.41269841269842 168.46560846560848,58.83597883597884 168.8888888888889,59.470899470899475 169.31216931216932,59.8941798941799 169.73544973544975,60.52910052910053 170.15873015873018,60.952380952380956 170.58201058201058,61.58730158730159 171.005291005291,62.01058201058201 171.42857142857144,62.43386243386244 171.85185185185188,62.85714285714286 172.27513227513228,63.280423280423285 172.6984126984127,63.70370370370371 173.33333333333334,64.12698412698413 173.96825396825398,64.55026455026456 174.6031746031746,64.97354497354497 175.23809523809524,65.3968253968254 175.87301587301587,65.60846560846561 176.50793650793653,66.03174603174604 177.14285714285717,66.24338624338625 177.7777777777778,66.24338624338625 178.41269841269843,66.24338624338625 179.04761904761907,66.24338624338625 179.6825396825397,66.24338624338625 180.31746031746033,66.24338624338625 180.95238095238096,65.82010582010582 181.5873015873016,65.60846560846561 182.22222222222223,65.18518518518519 182.85714285714286,64.97354497354497 183.2804232804233,64.33862433862434 183.70370370370372,63.91534391534392 184.33862433862436,63.492063492063494 184.7619047619048,63.06878306878308 185.1851851851852,62.64550264550265 185.60846560846562,62.22222222222223 186.03174603174605,61.798941798941804 186.45502645502646,61.16402116402117 186.8783068783069,60.74074074074075 187.30158730158732,60.10582010582011 187.72486772486775,59.682539682539684 188.14814814814815,59.04761904761905 188.57142857142858,58.41269841269842 188.99470899470901,57.777777777777786 189.20634920634922,57.142857142857146 189.62962962962965,56.71957671957672 190.05291005291008,56.2962962962963 190.47619047619048,55.661375661375665 190.8994708994709,55.02645502645503 191.32275132275134,54.39153439153439 191.74603174603175,53.75661375661376 192.16931216931218,53.12169312169313 192.5925925925926,52.6984126984127 193.01587301587304,52.06349206349207 193.43915343915344,51.640211640211646 193.86243386243387,51.00529100529101 194.2857142857143,50.58201058201058 194.70899470899474,50.158730158730165 195.34391534391537,49.73544973544974 195.76719576719577,49.31216931216932 196.1904761904762,48.88888888888889 196.82539682539684,48.46560846560847 197.46031746031747,48.042328042328045 197.8835978835979,47.61904761904762 198.51851851851853,47.40740740740741 199.15343915343917,47.195767195767196 199.7883597883598,46.77248677248678 200.42328042328043,46.77248677248678 201.05820105820106,46.560846560846564 201.6931216931217,46.560846560846564 202.32804232804233,46.349206349206355 202.962962962963,46.13756613756614 203.59788359788362,46.13756613756614 204.23280423280426,46.13756613756614 204.8677248677249,46.13756613756614 205.50264550264552,46.349206349206355 206.13756613756615,46.560846560846564 206.7724867724868,46.77248677248678 207.40740740740742,46.98412698412699 208.04232804232805,47.195767195767196 208.46560846560848,47.61904761904762 209.10052910052912,48.042328042328045 209.52380952380955,48.46560846560847 209.94708994708995,48.88888888888889 210.37037037037038,49.31216931216932 210.7936507936508,49.94708994708995 211.21693121693124,50.370370370370374 211.64021164021165,51.00529100529101 212.06349206349208,51.42857142857143 212.4867724867725,52.06349206349207 212.91005291005294,52.6984126984127 213.33333333333334,53.333333333333336 213.75661375661377,53.968253968253975 214.1798941798942,54.60317460317461 214.3915343915344,55.23809523809524 214.81481481481484,55.661375661375665 215.02645502645504,56.2962962962963 215.44973544973547,56.71957671957672 215.66137566137567,57.35449735449736 216.0846560846561,57.989417989417994 216.50793650793653,58.62433862433863 216.71957671957674,59.25925925925927 216.93121693121694,59.8941798941799 217.35449735449737,60.52910052910053 217.56613756613757,61.16402116402117 217.7777777777778,61.798941798941804 217.989417989418,62.43386243386244 218.20105820105823,63.06878306878308 218.62433862433863,63.70370370370371 218.62433862433863,64.33862433862434 219.04761904761907,64.97354497354497 219.25925925925927,65.60846560846561 219.25925925925927,66.24338624338625 219.4708994708995,66.87830687830689 219.6825396825397,67.51322751322752 219.6825396825397,68.14814814814815 219.6825396825397,68.78306878306879 219.8941798941799,69.41798941798942 219.8941798941799,70.05291005291006 219.8941798941799,70.6878306878307 219.6825396825397,71.32275132275133 219.8941798941799,71.95767195767196 219.6825396825397,72.5925925925926 219.6825396825397,73.22751322751323 219.6825396825397,73.86243386243387 219.6825396825397,74.49735449735451 219.6825396825397,75.13227513227514 219.4708994708995,75.76719576719577 219.25925925925927,76.4021164021164 219.25925925925927,77.03703703703704 219.04761904761907,77.67195767195767 219.04761904761907,78.30687830687832 218.83597883597886,78.94179894179895 218.62433862433863,79.57671957671958 218.41269841269843,80.21164021164022 218.20105820105823,80.84656084656085 218.20105820105823,81.48148148148148 217.989417989418,82.11640211640213 217.7777777777778,82.75132275132276 217.56613756613757,83.3862433862434 217.35449735449737,84.02116402116403 217.14285714285717,84.65608465608466 216.93121693121694,85.29100529100529 216.71957671957674,85.92592592592594 216.2962962962963,86.56084656084657 216.0846560846561,87.1957671957672 215.66137566137567,87.83068783068784 215.23809523809524,88.46560846560847 214.81481481481484,88.8888888888889 214.3915343915344,89.52380952380953 213.96825396825398,90.15873015873017 213.54497354497357,90.58201058201058 213.12169312169314,91.00529100529101 212.6984126984127,91.42857142857143 212.06349206349208,91.85185185185186 211.64021164021165,92.27513227513228 211.005291005291,92.69841269841271 210.37037037037038,92.91005291005291 209.73544973544975,93.12169312169313 209.10052910052912,93.33333333333334 208.46560846560848,93.33333333333334 207.83068783068785,93.33333333333334 207.19576719576722,93.54497354497356 206.56084656084658,93.54497354497356 205.92592592592595,93.54497354497356 205.29100529100532,93.33333333333334 204.65608465608466,93.33333333333334 204.02116402116403,93.33333333333334 203.3862433862434,93.12169312169313 202.75132275132276,93.12169312169313 202.11640211640213,92.91005291005291 201.4814814814815,92.91005291005291 200.84656084656086,92.69841269841271 200.21164021164023,92.4867724867725 199.5767195767196,92.27513227513228 198.94179894179896,92.06349206349208 198.30687830687833,91.85185185185186 197.6719576719577,91.64021164021165 197.03703703703704,91.42857142857143 196.4021164021164,91.21693121693123 195.76719576719577,91.00529100529101 195.13227513227514,90.7936507936508 194.4973544973545,90.37037037037038 193.86243386243387,90.15873015873017 193.22751322751324,89.94708994708995 192.5925925925926,89.73544973544975 191.95767195767198,89.52380952380953 191.32275132275134,89.1005291005291 190.6878306878307,88.8888888888889 190.05291005291008,88.67724867724868 189.41798941798945,88.46560846560847 188.78306878306879,88.04232804232805 188.14814814814815,87.83068783068784 187.51322751322752,87.83068783068784 186.8783068783069,87.40740740740742 186.24338624338625,87.40740740740742 185.60846560846562,87.1957671957672 184.973544973545,87.1957671957672 184.33862433862436,87.1957671957672 183.70370370370372,86.98412698412699 183.0687830687831,87.1957671957672 182.43386243386246,87.1957671957672 181.79894179894183,87.1957671957672 181.16402116402116,87.1957671957672 180.52910052910053,87.40740740740742 179.8941798941799,87.40740740740742 179.25925925925927,87.61904761904762 178.62433862433863,88.04232804232805 177.989417989418,88.25396825396827 177.35449735449737,88.67724867724868 176.71957671957674,89.1005291005291 176.2962962962963,89.52380952380953 175.87301587301587,89.94708994708995 175.44973544973547,90.37037037037038 175.02645502645504,91.00529100529101 174.6031746031746,91.64021164021165 174.1798941798942,92.27513227513228 173.96825396825398,92.91005291005291 173.54497354497354,93.54497354497356 173.33333333333334,94.17989417989419 173.12169312169314,94.81481481481482 172.9100529100529,95.44973544973546 172.4867724867725,96.08465608465609 172.4867724867725,96.71957671957672 172.27513227513228,97.35449735449737 172.27513227513228,97.989417989418 172.06349206349208,98.62433862433863 172.06349206349208,99.25925925925927 171.85185185185188,99.8941798941799 171.85185185185188,100.52910052910053 171.85185185185188,101.16402116402116 171.85185185185188,101.79894179894181 172.06349206349208,102.43386243386244 172.06349206349208,103.06878306878308 172.06349206349208,103.70370370370371 172.27513227513228,104.33862433862434 172.27513227513228,104.97354497354497 172.4867724867725,105.60846560846562 172.6984126984127,106.24338624338625 172.9100529100529,106.87830687830689 172.9100529100529,107.51322751322752 173.12169312169314,108.14814814814815 173.54497354497354,108.78306878306879 173.96825396825398,109.20634920634922 174.1798941798942,109.84126984126985 174.3915343915344,110.47619047619048 174.81481481481484,111.11111111111111 175.02645502645504,111.74603174603176 175.44973544973547,112.3809523809524 175.66137566137567,113.01587301587303 175.87301587301587,113.65079365079366 176.2962962962963,114.07407407407408 176.50793650793653,114.70899470899472 176.93121693121694,115.34391534391536 177.14285714285717,115.97883597883599 177.56613756613757,116.61375661375662 177.7777777777778,117.24867724867725 178.2010582010582,117.88359788359789 178.41269841269843,118.51851851851853 178.83597883597884,118.94179894179895 179.04761904761907,119.57671957671958 179.25925925925927,120.21164021164022 179.6825396825397,120.63492063492065 179.8941798941799,121.26984126984128 180.10582010582013,121.90476190476191 180.52910052910053,122.32804232804234 180.95238095238096,122.96296296296298 181.16402116402116,123.59788359788361 181.5873015873016,124.23280423280424 181.79894179894183,124.86772486772487 182.22222222222223,125.5026455026455 182.43386243386246,126.13756613756615 182.85714285714286,126.56084656084657 183.0687830687831,127.1957671957672 183.4920634920635,127.61904761904763 183.70370370370372,128.25396825396825 184.12698412698415,128.88888888888889 184.33862433862436,129.52380952380955 184.7619047619048,129.94708994708995 184.973544973545,130.58201058201058 185.39682539682542,131.005291005291 185.60846560846562,131.64021164021165 186.03174603174605,132.27513227513228 186.45502645502646,132.9100529100529 186.66666666666669,133.54497354497354 187.08994708994712,134.17989417989418 187.51322751322752,134.81481481481484 187.93650793650795,135.44973544973547 188.14814814814815,136.0846560846561 188.57142857142858,136.5079365079365 188.99470899470901,137.14285714285717 189.41798941798945,137.7777777777778 189.62962962962965,138.41269841269843 190.05291005291008,139.04761904761907 190.47619047619048,139.6825396825397 190.6878306878307,140.31746031746033 191.11111111111111,140.74074074074076 191.53439153439155,141.3756613756614 191.95767195767198,142.01058201058203 192.3809523809524,142.64550264550266 192.8042328042328,143.0687830687831 193.22751322751324,143.70370370370372 193.86243386243387,144.12698412698413 194.2857142857143,144.55026455026456 194.4973544973545,145.1851851851852 194.92063492063494,145.60846560846562 197.03703703703704,148.35978835978838" style="fill:none; stroke:#999900; stroke-width:1.0"  /><polyline points="197.03703703703704,148.35978835978838 193.43915343915344,150.26455026455028 192.8042328042328,150.47619047619048 192.16931216931218,150.8994708994709 191.53439153439155,151.11111111111111 190.8994708994709,151.53439153439155 190.26455026455028,151.95767195767198 189.62962962962965,152.16931216931218 188.99470899470901,152.5925925925926 188.35978835978838,152.8042328042328 187.72486772486775,153.22751322751324 187.08994708994712,153.65079365079367 186.45502645502646,153.86243386243387 185.82010582010582,154.07407407407408 185.1851851851852,154.2857142857143 184.55026455026456,154.4973544973545 183.91534391534393,154.7089947089947 183.2804232804233,155.13227513227514 182.64550264550266,155.34391534391534 182.01058201058203,155.55555555555557 181.3756613756614,155.76719576719577 180.74074074074076,155.978835978836 180.10582010582013,155.978835978836 179.4708994708995,156.1904761904762 178.83597883597884,156.4021164021164 178.2010582010582,156.4021164021164 177.56613756613757,156.61375661375664 176.93121693121694,156.61375661375664 176.2962962962963,156.82539682539684 175.66137566137567,156.82539682539684 175.02645502645504,157.03703703703704 174.3915343915344,157.03703703703704 173.75661375661377,157.03703703703704 173.12169312169314,157.03703703703704 172.4867724867725,157.03703703703704 171.85185185185188,157.03703703703704 171.21693121693124,157.03703703703704 170.58201058201058,157.03703703703704 169.94708994708995,157.03703703703704 169.31216931216932,157.03703703703704 168.67724867724868,157.03703703703704 168.04232804232805,157.03703703703704 167.40740740740742,157.03703703703704 166.7724867724868,156.82539682539684 166.13756613756615,156.82539682539684 165.50264550264552,156.82539682539684 164.8677248677249,156.82539682539684 164.23280423280426,156.82539682539684 163.59788359788362,156.82539682539684 162.96296296296296,156.82539682539684 162.32804232804233,156.82539682539684 161.6931216931217,156.82539682539684 161.05820105820106,156.61375661375664 160.42328042328043,156.61375661375664 159.7883597883598,156.61375661375664 159.15343915343917,156.61375661375664 158.51851851851853,156.61375661375664 157.8835978835979,156.61375661375664 157.24867724867727,156.4021164021164 156.61375661375664,156.4021164021164 155.978835978836,156.4021164021164 155.34391534391534,156.4021164021164 154.7089947089947,156.4021164021164 154.07407407407408,156.1904761904762 153.43915343915344,156.1904761904762 152.8042328042328,156.1904761904762 152.16931216931218,156.1904761904762 151.53439153439155,156.1904761904762 150.8994708994709,156.1904761904762 150.26455026455028,156.1904761904762 149.62962962962965,156.1904761904762 148.99470899470901,156.1904761904762 148.35978835978838,155.978835978836 147.72486772486775,156.1904761904762 147.0899470899471,156.1904761904762 146.45502645502646,156.4021164021164 145.82010582010582,156.4021164021164 145.1851851851852,156.61375661375664 144.55026455026456,156.61375661375664 143.91534391534393,156.82539682539684 143.2804232804233,157.03703703703704 142.64550264550266,157.24867724867727 142.01058201058203,157.46031746031747 141.3756613756614,157.8835978835979 140.74074074074076,158.0952380952381 140.10582010582013,158.30687830687833 139.6825396825397,158.73015873015873 139.04761904761907,158.94179894179896 138.62433862433863,159.36507936507937 137.989417989418,159.7883597883598 137.35449735449737,160.21164021164023 136.93121693121694,160.63492063492066 136.2962962962963,161.05820105820106 135.87301587301587,161.4814814814815 135.44973544973547,161.90476190476193 135.02645502645504,162.53968253968256 134.6031746031746,162.96296296296296 134.17989417989418,163.59788359788362 133.75661375661377,164.23280423280426 133.54497354497354,164.8677248677249 133.33333333333334,165.50264550264552 132.9100529100529,166.13756613756615 132.9100529100529,166.7724867724868 132.6984126984127,167.40740740740742 132.4867724867725,168.04232804232805 132.4867724867725,168.67724867724868 132.4867724867725,169.31216931216932 132.4867724867725,169.94708994708995 132.27513227513228,170.58201058201058 132.27513227513228,171.21693121693124 132.4867724867725,171.85185185185188 132.4867724867725,172.4867724867725 132.6984126984127,173.12169312169314 132.6984126984127,173.75661375661377 133.12169312169314,174.3915343915344 133.33333333333334,175.02645502645504 133.54497354497354,175.66137566137567 133.96825396825398,176.2962962962963 134.17989417989418,176.93121693121694 134.6031746031746,177.35449735449737 135.02645502645504,177.7777777777778 135.44973544973547,178.41269841269843 135.87301587301587,178.83597883597884 136.2962962962963,179.25925925925927 136.93121693121694,179.6825396825397 137.35449735449737,180.10582010582013 137.989417989418,180.31746031746033 138.62433862433863,180.74074074074076 139.25925925925927,180.95238095238096 139.8941798941799,181.3756613756614 140.52910052910053,181.5873015873016 141.16402116402116,182.01058201058203 141.7989417989418,182.22222222222223 142.43386243386246,182.43386243386246 143.0687830687831,182.85714285714286 143.70370370370372,183.0687830687831 144.33862433862436,183.4920634920635 144.973544973545,183.70370370370372 145.60846560846562,184.12698412698415 146.24338624338625,184.33862433862436 146.8783068783069,184.7619047619048 147.51322751322752,184.973544973545 147.93650793650795,185.39682539682542 148.57142857142858,185.39682539682542 149.20634920634922,185.82010582010582 149.84126984126985,186.24338624338625 150.47619047619048,186.45502645502646 150.8994708994709,186.8783068783069 151.53439153439155,187.30158730158732 152.16931216931218,187.72486772486775 152.5925925925926,188.14814814814815 153.01587301587304,188.57142857142858 153.43915343915344,188.99470899470901 153.86243386243387,189.62962962962965 154.2857142857143,190.05291005291008 154.4973544973545,190.6878306878307 154.92063492063494,191.11111111111111 154.92063492063494,191.74603174603175 155.13227513227514,192.3809523809524 155.13227513227514,193.01587301587304 155.13227513227514,193.65079365079367 154.92063492063494,194.2857142857143 154.92063492063494,194.92063492063494 154.7089947089947,195.55555555555557 154.4973544973545,196.1904761904762 154.2857142857143,196.82539682539684 153.86243386243387,197.46031746031747 153.65079365079367,198.0952380952381 153.22751322751324,198.73015873015873 152.8042328042328,199.36507936507937 152.38095238095238,200.00000000000003 151.95767195767198,200.63492063492066 151.53439153439155,201.2698412698413 151.11111111111111,201.6931216931217 150.8994708994709,202.32804232804233 150.47619047619048,202.75132275132276 150.05291005291005,203.3862433862434 149.62962962962965,203.80952380952382 149.20634920634922,204.23280423280426 148.78306878306879,204.65608465608466 148.35978835978838,205.0793650793651 147.93650793650795,205.50264550264552 147.51322751322752,205.92592592592595 147.0899470899471,206.34920634920636 146.66666666666669,206.7724867724868 146.03174603174605,207.19576719576722 145.60846560846562,207.61904761904765 144.973544973545,208.04232804232805 144.33862433862436,208.46560846560848 143.70370370370372,208.8888888888889 143.2804232804233,209.31216931216932 142.64550264550266,209.52380952380955 142.22222222222223,209.94708994708995 141.5873015873016,210.37037037037038 140.95238095238096,210.7936507936508 140.31746031746033,211.21693121693124 139.6825396825397,211.64021164021165 139.04761904761907,211.85185185185188 138.62433862433863,212.27513227513228 137.989417989418,212.6984126984127 137.35449735449737,212.91005291005294 136.71957671957674,213.33333333333334 136.0846560846561,213.54497354497357 135.66137566137567,213.96825396825398 135.02645502645504,214.3915343915344 134.3915343915344,214.6031746031746 133.75661375661377,214.81481481481484 133.12169312169314,215.23809523809524 132.4867724867725,215.44973544973547 131.85185185185185,215.66137566137567 131.21693121693121,216.0846560846561 130.58201058201058,216.2962962962963 129.94708994708995,216.50793650793653 129.31216931216932,216.71957671957674 128.67724867724868,216.93121693121694 128.04232804232805,217.14285714285717 127.40740740740742,217.35449735449737 126.77248677248679,217.56613756613757 126.13756613756615,217.7777777777778 125.5026455026455,217.989417989418 124.86772486772487,218.20105820105823 124.23280423280424,218.41269841269843 123.59788359788361,218.62433862433863 122.96296296296298,218.62433862433863 122.32804232804234,218.83597883597886 121.6931216931217,219.04761904761907 121.05820105820106,219.04761904761907 120.42328042328043,219.25925925925927 119.7883597883598,219.25925925925927 119.15343915343917,219.25925925925927 118.51851851851853,219.4708994708995 117.88359788359789,219.4708994708995 117.24867724867725,219.4708994708995 116.61375661375662,219.4708994708995 115.97883597883599,219.25925925925927 115.34391534391536,219.25925925925927 114.70899470899472,219.25925925925927 114.07407407407408,219.04761904761907 113.43915343915344,219.25925925925927 112.80423280423281,219.04761904761907 112.16931216931218,219.04761904761907 111.53439153439155,218.83597883597886 110.89947089947091,218.62433862433863 110.26455026455027,218.20105820105823 109.62962962962963,217.7777777777778 108.994708994709,217.35449735449737 108.35978835978837,216.93121693121694 107.93650793650795,216.50793650793653 107.51322751322752,216.0846560846561 107.0899470899471,215.44973544973547 106.66666666666667,214.81481481481484 106.24338624338625,214.1798941798942 105.82010582010582,213.75661375661377 105.60846560846562,213.12169312169314 105.3968253968254,212.4867724867725 105.18518518518519,211.85185185185188 105.18518518518519,211.21693121693124 104.97354497354497,210.5820105820106 104.97354497354497,209.94708994708995 104.97354497354497,209.31216931216932 105.18518518518519,208.67724867724868 105.18518518518519,208.04232804232805 105.18518518518519,207.40740740740742 105.18518518518519,206.7724867724868 105.3968253968254,206.13756613756615 105.3968253968254,205.50264550264552 105.60846560846562,204.8677248677249 105.60846560846562,204.23280423280426 105.3968253968254,203.59788359788362 105.3968253968254,202.962962962963 105.18518518518519,202.32804232804233 104.97354497354497,201.6931216931217 104.76190476190477,201.05820105820106 104.55026455026456,200.42328042328043 104.12698412698414,199.7883597883598 103.70370370370371,199.15343915343917 103.28042328042329,198.73015873015873 102.85714285714286,198.30687830687833 102.43386243386244,197.8835978835979 102.01058201058201,197.46031746031747 101.37566137566138,197.24867724867727 100.74074074074075,197.03703703703704 100.10582010582011,196.82539682539684 99.47089947089948,196.61375661375664 98.83597883597885,196.61375661375664 98.2010582010582,196.61375661375664 97.56613756613757,196.61375661375664 96.93121693121694,196.61375661375664 96.2962962962963,197.03703703703704 95.66137566137567,197.24867724867727 95.02645502645504,197.46031746031747 94.39153439153439,197.8835978835979 93.75661375661376,198.30687830687833 93.12169312169313,198.51851851851853 92.69841269841271,198.94179894179896 92.06349206349208,199.36507936507937 91.42857142857143,199.7883597883598 90.7936507936508,200.21164021164023 90.37037037037038,200.63492063492066 89.73544973544975,200.84656084656086 89.31216931216932,201.2698412698413 88.67724867724868,201.6931216931217 88.04232804232805,202.11640211640213 87.40740740740742,202.32804232804233 86.98412698412699,202.75132275132276 86.34920634920636,202.962962962963 85.71428571428572,203.3862433862434 85.07936507936509,203.59788359788362 84.44444444444446,203.80952380952382 83.80952380952381,204.23280423280426 83.17460317460318,204.44444444444446 82.53968253968254,204.65608465608466 81.90476190476191,204.8677248677249 81.26984126984128,205.0793650793651 80.63492063492065,205.29100529100532 80.0,205.50264550264552 79.36507936507937,205.71428571428572 78.73015873015873,205.71428571428572 78.30687830687832,206.13756613756615 74.49735449735451,207.61904761904765" style="fill:none; stroke:#00aa99; stroke-width:1.0"  /><polyline points="74.49735449735451,207.61904761904765 74.07407407407408,203.80952380952382 74.07407407407408,203.1746031746032 73.86243386243387,202.53968253968256 73.86243386243387,201.90476190476193 73.65079365079366,201.2698412698413 73.65079365079366,200.63492063492066 73.65079365079366,200.00000000000003 73.65079365079366,199.36507936507937 73.43915343915344,198.73015873015873 73.43915343915344,198.0952380952381 73.22751322751323,197.46031746031747 73.22751322751323,196.82539682539684 73.01587301587303,196.1904761904762 73.01587301587303,195.55555555555557 72.80423280423281,194.92063492063494 72.80423280423281,194.2857142857143 72.80423280423281,193.65079365079367 72.5925925925926,193.01587301587304 72.5925925925926,192.3809523809524 72.5925925925926,191.74603174603175 72.5925925925926,191.11111111111111 72.5925925925926,190.47619047619048 72.38095238095238,189.84126984126985 72.38095238095238,189.20634920634922 72.38095238095238,188.57142857142858 72.38095238095238,187.93650793650795 72.16931216931218,187.30158730158732 72.16931216931218,186.66666666666669 72.16931216931218,186.03174603174605 72.16931216931218,185.39682539682542 71.95767195767196,184.7619047619048 71.95767195767196,184.12698412698415 71.95767195767196,183.4920634920635 71.74603174603175,182.85714285714286 71.74603174603175,182.22222222222223 71.74603174603175,181.5873015873016 71.74603174603175,180.95238095238096 71.53439153439155,180.31746031746033 71.53439153439155,179.6825396825397 71.32275132275133,179.04761904761907 71.11111111111111,178.41269841269843 71.11111111111111,177.7777777777778 70.8994708994709,177.14285714285717 70.8994708994709,176.50793650793653 70.8994708994709,175.87301587301587 70.8994708994709,175.23809523809524 70.8994708994709,174.6031746031746 70.6878306878307,173.96825396825398 70.6878306878307,173.33333333333334 70.6878306878307,172.6984126984127 70.47619047619048,172.06349206349208 70.47619047619048,171.42857142857144 70.26455026455027,170.7936507936508 70.26455026455027,170.15873015873018 70.05291005291006,169.52380952380955 70.05291005291006,168.8888888888889 69.84126984126985,168.25396825396825 69.62962962962963,167.61904761904762 69.62962962962963,166.984126984127 69.41798941798942,166.34920634920636 69.41798941798942,165.71428571428572 69.20634920634922,165.0793650793651 68.994708994709,164.44444444444446 68.78306878306879,163.80952380952382 68.57142857142858,163.1746031746032 68.57142857142858,162.53968253968256 68.35978835978837,161.90476190476193 68.14814814814815,161.2698412698413 67.93650793650794,160.63492063492066 67.72486772486774,160.0 67.51322751322752,159.36507936507937 67.08994708994709,158.73015873015873 66.87830687830689,158.0952380952381 66.66666666666667,157.46031746031747 66.45502645502646,156.82539682539684 66.24338624338625,156.1904761904762 65.82010582010582,155.55555555555557 65.60846560846561,154.92063492063494 65.3968253968254,154.2857142857143 64.97354497354497,153.65079365079367 64.76190476190477,153.01587301587304 64.55026455026456,152.38095238095238 64.12698412698413,151.74603174603175 63.91534391534392,151.11111111111111 63.492063492063494,150.47619047619048 63.280423280423285,149.84126984126985 62.85714285714286,149.20634920634922 62.64550264550265,148.57142857142858 62.22222222222223,148.14814814814815 62.01058201058201,147.51322751322752 61.58730158730159,147.0899470899471 61.16402116402117,146.45502645502646 60.74074074074075,145.82010582010582 60.31746031746032,145.39682539682542 59.8941798941799,144.973544973545 59.470899470899475,144.55026455026456 58.83597883597884,144.12698412698413 58.2010582010582,143.70370370370372 57.56613756613757,143.2804232804233 56.93121693121694,142.85714285714286 56.2962962962963,142.64550264550266 55.661375661375665,142.22222222222223 55.02645502645503,142.22222222222223 54.39153439153439,142.01058201058203 53.75661375661376,142.01058201058203 53.12169312169313,142.01058201058203 52.48677248677249,142.01058201058203 51.851851851851855,142.01058201058203 51.21693121693122,142.22222222222223 50.58201058201058,142.43386243386246 49.94708994708995,142.64550264550266 49.31216931216932,143.0687830687831 48.677248677248684,143.2804232804233 48.25396825396826,143.70370370370372 47.61904761904762,144.12698412698413 46.98412698412699,144.55026455026456 46.560846560846564,144.973544973545 46.13756613756614,145.39682539682542 45.50264550264551,145.82010582010582 45.07936507936508,146.24338624338625 44.65608465608466,146.66666666666669 44.232804232804234,147.0899470899471 43.80952380952381,147.51322751322752 43.386243386243386,147.93650793650795 42.96296296296297,148.57142857142858 42.539682539682545,149.20634920634922 42.11640211640212,149.84126984126985 41.6931216931217,150.26455026455028 41.26984126984127,150.8994708994709 40.84656084656085,151.53439153439155 40.423280423280424,152.16931216931218 40.0,152.5925925925926 39.57671957671958,153.22751322751324 39.15343915343916,153.86243386243387 38.730158730158735,154.2857142857143 38.30687830687831,154.92063492063494 37.883597883597886,155.34391534391534 37.46031746031746,155.978835978836 37.03703703703704,156.61375661375664 36.613756613756614,157.03703703703704 36.19047619047619,157.46031746031747 35.76719576719577,157.8835978835979 35.34391534391535,158.30687830687833 34.920634920634924,158.94179894179896 34.4973544973545,159.36507936507937 34.074074074074076,159.7883597883598 33.43915343915344,160.21164021164023 33.01587301587302,160.63492063492066 32.592592592592595,161.05820105820106 31.95767195767196,161.4814814814815 31.322751322751326,161.90476190476193 30.68783068783069,162.32804232804233 30.052910052910054,162.75132275132276 29.41798941798942,162.96296296296296 28.783068783068785,163.1746031746032 28.14814814814815,163.59788359788362 27.513227513227516,163.59788359788362 26.87830687830688,163.59788359788362 26.243386243386244,163.59788359788362 25.60846560846561,163.59788359788362 24.973544973544975,163.59788359788362 24.338624338624342,163.59788359788362 23.703703703703706,163.3862433862434 23.06878306878307,163.1746031746032 22.433862433862437,162.96296296296296 21.7989417989418,162.75132275132276 21.164021164021165,162.53968253968256 20.529100529100532,162.11640211640213 19.894179894179896,161.90476190476193 19.25925925925926,161.4814814814815 18.624338624338627,161.2698412698413 18.201058201058203,160.84656084656086 17.566137566137566,160.42328042328043 16.931216931216934,160.0 16.296296296296298,159.5767195767196 15.661375661375663,159.15343915343917 15.238095238095239,158.73015873015873 14.814814814814817,158.30687830687833 14.17989417989418,157.8835978835979 13.756613756613758,157.46031746031747 13.121693121693122,157.03703703703704 12.6984126984127,156.61375661375664 12.063492063492065,156.1904761904762 11.640211640211641,155.76719576719577 11.216931216931219,155.34391534391534 10.793650793650794,154.92063492063494 10.370370370370372,154.4973544973545 9.947089947089948,154.07407407407408 9.523809523809524,153.43915343915344 9.100529100529101,153.01587301587304 8.677248677248677,152.5925925925926 8.253968253968255,152.16931216931218 7.830687830687832,151.74603174603175 7.407407407407408,151.32275132275134 6.984126984126985,150.8994708994709 6.560846560846561,150.26455026455028 6.137566137566138,149.84126984126985 5.714285714285714,149.20634920634922 5.291005291005291,148.57142857142858 4.867724867724868,147.93650793650795 4.444444444444445,147.30158730158732 4.021164021164021,146.8783068783069 3.8095238095238098,146.24338624338625 3.3862433862433865,145.82010582010582 3.174603174603175,145.1851851851852 2.7513227513227516,144.55026455026456 2.3280423280423284,144.12698412698413 2.1164021164021167,143.4920634920635 1.9047619047619049,142.85714285714286 1.4814814814814816,142.22222222222223 1.26984126984127,141.5873015873016 1.0582010582010584,140.95238095238096 0.8465608465608466,140.31746031746033 0.634920634920635,139.6825396825397 0.4232804232804233,139.04761904761907 0.4232804232804233,138.41269841269843 0.21164021164021166,137.7777777777778 0.21164021164021166,137.14285714285717 0.21164021164021166,136.5079365079365 0.4232804232804233,135.87301587301587 0.4232804232804233,135.23809523809524 0.634920634920635,134.6031746031746 1.0582010582010584,133.96825396825398 1.26984126984127,133.33333333333334 1.6931216931216932,132.6984126984127 2.1164021164021167,132.27513227513228 2.53968253968254,131.85185185185185 2.9629629629629632,131.42857142857144 3.597883597883598,131.005291005291 4.021164021164021,130.58201058201058 4.656084656084657,130.37037037037038 5.07936507936508,129.94708994708995 5.714285714285714,129.73544973544975 6.34920634920635,129.52380952380955 6.984126984126985,129.31216931216932 7.407407407407408,128.88888888888889 8.042328042328043,128.67724867724868 8.677248677248677,128.25396825396825 9.312169312169313,128.25396825396825 9.947089947089948,127.83068783068784 10.582010582010582,127.83068783068784 11.005291005291006,127.40740740740742 11.640211640211641,127.40740740740742 12.275132275132275,127.40740740740742 12.910052910052912,127.1957671957672 13.544973544973546,126.98412698412699 14.17989417989418,126.98412698412699 14.814814814814817,126.77248677248679 15.449735449735451,126.77248677248679 16.084656084656086,126.56084656084657 16.71957671957672,126.56084656084657 17.354497354497354,126.34920634920636 17.98941798941799,126.34920634920636 18.624338624338627,126.34920634920636 19.25925925925926,126.34920634920636 19.894179894179896,126.13756613756615 20.529100529100532,126.13756613756615 21.164021164021165,126.13756613756615 21.7989417989418,126.13756613756615 22.433862433862437,126.34920634920636 23.06878306878307,126.34920634920636 23.703703703703706,126.34920634920636 24.338624338624342,126.13756613756615 24.973544973544975,126.13756613756615 25.60846560846561,126.13756613756615 26.243386243386244,126.13756613756615 26.87830687830688,125.92592592592594 27.513227513227516,126.13756613756615 28.14814814814815,126.13756613756615 28.783068783068785,126.13756613756615 29.41798941798942,126.13756613756615 30.052910052910054,126.13756613756615 30.68783068783069,126.13756613756615 31.322751322751326,126.13756613756615 31.95767195767196,126.13756613756615 32.592592592592595,126.13756613756615 33.22751322751323,126.13756613756615 33.86243386243387,126.13756613756615 34.4973544973545,126.13756613756615 35.13227513227513,126.13756613756615 35.76719576719577,125.92592592592594 36.402116402116405,125.92592592592594 37.03703703703704,125.71428571428572 37.67195767195768,125.71428571428572 38.30687830687831,125.5026455026455 38.94179894179894,125.07936507936509 39.57671957671958,124.86772486772487 40.0,124.44444444444446 40.63492063492064,124.02116402116403 41.058201058201064,123.59788359788361 41.48148148148149,122.96296296296298 41.904761904761905,122.32804232804234 42.11640211640212,121.6931216931217 42.539682539682545,121.05820105820106 42.75132275132275,120.42328042328043 42.75132275132275,119.7883597883598 42.75132275132275,119.15343915343917 42.96296296296297,118.51851851851853 42.96296296296297,117.88359788359789 42.96296296296297,117.24867724867725 42.96296296296297,116.61375661375662 42.96296296296297,115.97883597883599 42.96296296296297,115.34391534391536 42.75132275132275,114.70899470899472 42.75132275132275,114.07407407407408 42.75132275132275,113.43915343915344 42.539682539682545,112.80423280423281 42.539682539682545,112.16931216931218 42.539682539682545,111.53439153439155 42.32804232804233,110.89947089947091 42.32804232804233,110.26455026455027 42.11640211640212,109.62962962962963 41.904761904761905,108.994708994709 41.6931216931217,108.35978835978837 41.6931216931217,107.72486772486774 41.48148148148149,107.0899470899471 41.48148148148149,106.45502645502647 41.26984126984127,105.82010582010582 41.26984126984127,105.18518518518519 41.058201058201064,104.55026455026456 41.058201058201064,103.91534391534393 41.058201058201064,103.28042328042329 40.84656084656085,102.64550264550266 40.84656084656085,102.01058201058201 40.63492063492064,101.37566137566138 40.63492063492064,100.74074074074075 40.63492063492064,100.10582010582011 40.63492063492064,99.47089947089948 40.423280423280424,98.83597883597885 40.423280423280424,98.2010582010582 40.423280423280424,97.56613756613757 40.211640211640216,96.93121693121694 40.211640211640216,96.2962962962963 40.211640211640216,95.66137566137567 40.0,95.02645502645504 40.0,94.39153439153439 40.0,93.75661375661376 40.0,93.12169312169313 40.0,92.4867724867725 39.78835978835979,91.85185185185186 39.78835978835979,91.21693121693123 39.78835978835979,90.58201058201058 39.78835978835979,89.94708994708995 39.78835978835979,89.31216931216932 39.78835978835979,88.67724867724868 39.57671957671958,88.04232804232805 39.57671957671958,87.40740740740742 39.57671957671958,86.77248677248677 39.57671957671958,86.13756613756614 39.57671957671958,85.5026455026455 39.57671957671958,84.86772486772487 39.57671957671958,84.23280423280424 39.57671957671958,83.59788359788361 39.57671957671958,82.96296296296298 39.57671957671958,82.32804232804233 39.36507936507937,81.6931216931217 39.36507936507937,81.05820105820106 39.36507936507937,80.42328042328043 39.57671957671958,79.7883597883598 39.57671957671958,79.15343915343917 39.57671957671958,78.51851851851852 39.57671957671958,77.88359788359789 39.57671957671958,77.24867724867725 39.57671957671958,76.61375661375662 39.57671957671958,75.97883597883599 39.57671957671958,75.34391534391536 39.57671957671958,74.70899470899471 39.36507936507937,74.07407407407408 39.57671957671958,73.43915343915344 39.57671957671958,72.80423280423281 39.57671957671958,72.16931216931218 39.78835978835979,71.53439153439155 39.78835978835979,70.8994708994709 39.78835978835979,70.26455026455027 40.0,69.62962962962963 40.0,68.994708994709 40.0,68.35978835978837 40.211640211640216,67.72486772486774 40.211640211640216,67.08994708994709 40.423280423280424,66.45502645502646 40.423280423280424,65.82010582010582 40.423280423280424,65.18518518518519 40.63492063492064,64.55026455026456 40.84656084656085,63.91534391534392 40.84656084656085,63.280423280423285 41.058201058201064,62.64550264550265 41.058201058201064,62.01058201058201 41.26984126984127,61.37566137566138 41.26984126984127,60.74074074074075 41.48148148148149,60.10582010582011 41.48148148148149,59.470899470899475 41.6931216931217,58.83597883597884 42.32804232804233,55.02645502645503" style="fill:none; stroke:#3300bb; stroke-width:1.0"  /><circle cx="42.32804232804233" cy="55.02645502645503" r="2.0" style="fill:none; stroke:#000000aa; stroke-width:0.25" /><circle cx="140.74074074074076" cy="-0.21164021164021166" r="2.0" style="fill:none; stroke:#000000aa; stroke-width:0.25" /><circle cx="197.03703703703704" cy="148.35978835978838" r="2.0" style="fill:none; stroke:#000000aa; stroke-width:0.25" /><circle cx="74.49735449735451" cy="207.61904761904765" r="2.0" style="fill:none; stroke:#000000aa; stroke-width:0.25" /><circle cx="42.32804232804233" cy="55.87301587301588" r="2.0" style="fill:none; stroke:#ff3366aa; stroke-width:0.25" /><circle cx="140.52910052910053" cy="0.21164021164021166" r="2.0" style="fill:none; stroke:#ff3366aa; stroke-width:0.25" /><circle cx="196.4021164021164" cy="148.35978835978838" r="2.0" style="fill:none; stroke:#ff3366aa; stroke-width:0.25" /><circle cx="75.34391534391536" cy="206.7724867724868" r="2.0" style="fill:none; stroke:#ff3366aa; stroke-width:0.25" /><polyline points="51.640211640211646,48.88888888888889 51.00529100529101,49.31216931216932 50.370370370370374,49.73544973544974 49.73544973544974,50.158730158730165 49.1005291005291,50.58201058201058 48.46560846560847,51.00529100529101 47.830687830687836,51.42857142857143 47.195767195767196,51.851851851851855 46.560846560846564,52.27513227513228 45.92592592592593,52.6984126984127 45.29100529100529,53.12169312169313 44.65608465608466,53.54497354497355" style="fill:none; stroke:#001100; stroke-width:1.0" /><polyline points="40.211640211640216,67.72486772486774 40.211640211640216,67.08994708994709 40.423280423280424,66.45502645502646 40.423280423280424,65.82010582010582 40.423280423280424,65.18518518518519 40.63492063492064,64.55026455026456 40.84656084656085,63.91534391534392 40.84656084656085,63.280423280423285 41.058201058201064,62.64550264550265 41.058201058201064,62.01058201058201 41.26984126984127,61.37566137566138 41.26984126984127,60.74074074074075 41.48148148148149,60.10582010582011 41.48148148148149,59.470899470899475 41.6931216931217,58.83597883597884" style="fill:none; stroke:#000011; stroke-width:1.0" /><polyline points="143.91534391534393,11.428571428571429 143.70370370370372,10.793650793650794 143.4920634920635,10.15873015873016 143.2804232804233,9.523809523809524 143.0687830687831,8.88888888888889 142.85714285714286,8.253968253968255 142.85714285714286,7.6190476190476195 142.64550264550266,6.984126984126985 142.43386243386246,6.34920634920635 142.22222222222223,5.714285714285714 142.22222222222223,5.07936507936508 142.01058201058203,4.444444444444445 141.7989417989418,3.8095238095238098 141.5873015873016,3.174603174603175" style="fill:none; stroke:#001100; stroke-width:1.0" /><polyline points="129.52380952380955,4.444444444444445 130.15873015873018,4.2328042328042335 130.7936507936508,3.8095238095238098 131.42857142857144,3.597883597883598 132.06349206349208,3.3862433862433865 132.6984126984127,2.9629629629629632 133.33333333333334,2.7513227513227516 133.96825396825398,2.53968253968254 134.6031746031746,2.3280423280423284 135.23809523809524,2.1164021164021167 135.87301587301587,1.6931216931216932 136.5079365079365,1.4814814814814816 137.14285714285717,1.26984126984127" style="fill:none; stroke:#000011; stroke-width:1.0" /><polyline points="185.82010582010582,154.07407407407408 186.45502645502646,153.86243386243387 187.08994708994712,153.65079365079367 187.72486772486775,153.22751322751324 188.35978835978838,152.8042328042328 188.99470899470901,152.5925925925926 189.62962962962965,152.16931216931218 190.26455026455028,151.95767195767198 190.8994708994709,151.53439153439155 191.53439153439155,151.11111111111111 192.16931216931218,150.8994708994709 192.8042328042328,150.47619047619048 193.43915343915344,150.26455026455028" style="fill:none; stroke:#001100; stroke-width:1.0" /><polyline points="189.62962962962965,138.41269841269843 190.05291005291008,139.04761904761907 190.47619047619048,139.6825396825397 190.6878306878307,140.31746031746033 191.11111111111111,140.74074074074076 191.53439153439155,141.3756613756614 191.95767195767198,142.01058201058203 192.3809523809524,142.64550264550266 192.8042328042328,143.0687830687831 193.22751322751324,143.70370370370372 193.86243386243387,144.12698412698413 194.2857142857143,144.55026455026456 194.4973544973545,145.1851851851852 194.92063492063494,145.60846560846562" style="fill:none; stroke:#000011; stroke-width:1.0" /><polyline points="73.01587301587303,195.55555555555557 73.01587301587303,196.1904761904762 73.22751322751323,196.82539682539684 73.22751322751323,197.46031746031747 73.43915343915344,198.0952380952381 73.43915343915344,198.73015873015873 73.65079365079366,199.36507936507937 73.65079365079366,200.00000000000003 73.65079365079366,200.63492063492066 73.65079365079366,201.2698412698413 73.86243386243387,201.90476190476193 73.86243386243387,202.53968253968256 74.07407407407408,203.1746031746032 74.07407407407408,203.80952380952382" style="fill:none; stroke:#001100; stroke-width:1.0" /><polyline points="86.34920634920636,202.962962962963 85.71428571428572,203.3862433862434 85.07936507936509,203.59788359788362 84.44444444444446,203.80952380952382 83.80952380952381,204.23280423280426 83.17460317460318,204.44444444444446 82.53968253968254,204.65608465608466 81.90476190476191,204.8677248677249 81.26984126984128,205.0793650793651 80.63492063492065,205.29100529100532 80.0,205.50264550264552 79.36507936507937,205.71428571428572 78.73015873015873,205.71428571428572 78.30687830687832,206.13756613756615" style="fill:none; stroke:#000011; stroke-width:1.0" /><polyline points="44.65608465608466,53.54497354497355 27.089947089947092,65.18518518518519" style="fill:none; stroke:#ffaa00; stroke-width:0.4" /><polyline points="41.6931216931217,58.83597883597884 45.07936507936508,37.883597883597886" style="fill:none; stroke:#aaff00; stroke-width:0.4" /><polyline points="141.5873015873016,3.174603174603175 135.87301587301587,-17.142857142857146" style="fill:none; stroke:#ffaa00; stroke-width:0.4" /><polyline points="137.14285714285717,1.26984126984127 156.61375661375664,-6.772486772486773" style="fill:none; stroke:#aaff00; stroke-width:0.4" /><polyline points="193.43915343915344,150.26455026455028 212.27513227513228,140.74074074074076" style="fill:none; stroke:#ffaa00; stroke-width:0.4" /><polyline points="194.92063492063494,145.60846560846562 207.40740740740742,162.75132275132276" style="fill:none; stroke:#aaff00; stroke-width:0.4" /><polyline points="74.07407407407408,203.80952380952382 76.82539682539684,224.7619047619048" style="fill:none; stroke:#ffaa00; stroke-width:0.4" /><polyline points="78.30687830687832,206.13756613756615 58.62433862433863,213.96825396825398" style="fill:none; stroke:#aaff00; stroke-width:0.4" /><circle cx="113.65079365079366" cy="113.43915343915344" r="1.0" style="fill:#444444; stroke-width:0" /><circle cx="104.33862433862434" cy="124.44444444444446" r="10.582010582010582" style="fill:#ff770022; stroke-width:0" /><circle cx="104.33862433862434" cy="124.44444444444446" r="1.0" style="fill:#ff7700; stroke-width:0" /></svg>