<?xml version="1.0" encoding="UTF-8" standalone="no"?><svg width="408.8888888888889" height="640.0" viewBox="-10 -10 156.2962962962963 233.33333333333334" xmlns="http://www.w3.org/2000/svg" xmlns:xlink="http://www.w3.org/1999/xlink"><polyline points="0.0,55.449735449735456 3.8095238095238098,55.02645502645503 4.444444444444445,55.02645502645503 5.07936507936508,54.81481481481482 5.714285714285714,54.81481481481482 6.34920634920635,54.81481481481482 6.984126984126985,54.60317460317461 7.6190476190476195,54.60317460317461 8.253968253968255,54.60317460317461 8.88888888888889,54.39153439153439 9.523809523809524,54.39153439153439 10.15873015873016,54.39153439153439 10.793650793650794,54.179894179894184 11.428571428571429,54.179894179894184 12.063492063492065,53.968253968253975 12.6984126984127,53.968253968253975 13.333333333333334,53.75661375661376 13.96825396825397,53.75661375661376 14.603174603174605,53.54497354497355 15.238095238095239,53.54497354497355 15.873015873015873,53.333333333333336 16.50793650793651,53.333333333333336 17.142857142857146,53.12169312169313 17.77777777777778,53.12169312169313 18.412698412698415,52.91005291005291 19.047619047619047,52.91005291005291 19.682539682539684,52.6984126984127 20.31746031746032,52.48677248677249 20.952380952380953,52.48677248677249 21.58730158730159,52.27513227513228 22.222222222222225,52.06349206349207 22.857142857142858,52.06349206349207 23.492063492063494,51.851851851851855 24.12698412698413,51.640211640211646 24.761904761904763,51.640211640211646 25.3968253968254,51.42857142857143 26.031746031746035,51.21693121693122 26.666666666666668,51.00529100529101 27.301587301587304,50.7936507936508 27.93650793650794,50.58201058201058 28.571428571428573,50.58201058201058 29.20634920634921,50.158730158730165 29.841269841269842,49.94708994708995 30.476190476190478,49.73544973544974 31.111111111111114,49.73544973544974 31.746031746031747,49.523809523809526 32.38095238095239,49.1005291005291 33.01587301587302,49.1005291005291 33.65079365079365,48.88888888888889 34.28571428571429,48.677248677248684 34.920634920634924,48.46560846560847 35.55555555555556,48.25396825396826 36.19047619047619,48.042328042328045 36.82539682539683,47.830687830687836 37.46031746031746,47.61904761904762 38.095238095238095,47.40740740740741 38.730158730158735,47.195767195767196 39.36507936507937,46.98412698412699 40.0,46.77248677248678 40.63492063492064,46.560846560846564 41.26984126984127,46.349206349206355 41.904761904761905,46.13756613756614 42.539682539682545,45.92592592592593 43.17460317460318,45.714285714285715 43.80952380952381,45.50264550264551 44.44444444444445,45.07936507936508 45.07936507936508,44.867724867724874 45.714285714285715,44.65608465608466 46.349206349206355,44.44444444444445 46.98412698412699,44.232804232804234 47.61904761904762,43.80952380952381 48.25396825396826,43.5978835978836 48.88888888888889,43.386243386243386 49.523809523809526,43.17460317460318 50.158730158730165,42.96296296296297 50.7936507936508,42.75132275132275 51.21693121693122,42.32804232804233 51.851851851851855,42.11640211640212 52.48677248677249,41.904761904761905 53.12169312169313,41.48148148148149 53.75661375661376,41.058201058201064 54.39153439153439,40.84656084656085 55.02645502645503,40.63492063492064 55.661375661375665,40.211640211640216 56.2962962962963,40.0 56.93121693121694,39.57671957671958 57.56613756613757,39.36507936507937 58.2010582010582,38.94179894179894 58.83597883597884,38.51851851851852 59.470899470899475,38.095238095238095 59.8941798941799,37.67195767195768 60.52910052910053,37.248677248677254 60.952380952380956,36.82539682539683 61.37566137566138,36.402116402116405 61.798941798941804,35.97883597883598 62.22222222222223,35.34391534391535 62.64550264550265,34.70899470899471 63.06878306878308,34.074074074074076 63.280423280423285,33.43915343915344 63.280423280423285,32.804232804232804 63.492063492063494,32.16931216931217 63.492063492063494,31.53439153439154 63.492063492063494,30.899470899470902 63.492063492063494,30.264550264550266 63.280423280423285,29.629629629629633 63.280423280423285,28.994708994708997 63.06878306878308,28.35978835978836 62.85714285714286,27.724867724867728 62.64550264550265,27.089947089947092 62.22222222222223,26.666666666666668 62.01058201058201,26.031746031746035 61.798941798941804,25.3968253968254 61.37566137566138,24.761904761904763 60.952380952380956,24.12698412698413 60.74074074074075,23.492063492063494 60.31746031746032,23.06878306878307 60.10582010582011,22.433862433862437 59.682539682539684,21.7989417989418 59.470899470899475,21.164021164021165 59.04761904761905,20.529100529100532 58.83597883597884,19.894179894179896 58.41269841269842,19.47089947089947 58.2010582010582,18.83597883597884 57.777777777777786,18.201058201058203 57.56613756613757,17.566137566137566 57.142857142857146,16.931216931216934 56.93121693121694,16.296296296296298 56.71957671957672,15.661375661375663 56.71957671957672,15.026455026455027 56.50793650793651,14.391534391534393 56.50793650793651,13.756613756613758 56.50793650793651,13.121693121693122 56.50793650793651,12.486772486772487 56.50793650793651,11.851851851851853 56.50793650793651,11.216931216931219 56.71957671957672,10.582010582010582 56.93121693121694,9.947089947089948 56.93121693121694,9.312169312169313 57.142857142857146,8.677248677248677 57.35449735449736,8.042328042328043 57.777777777777786,7.6190476190476195 58.2010582010582,6.984126984126985 58.41269841269842,6.34920634920635 58.83597883597884,5.714285714285714 59.25925925925927,5.291005291005291 59.682539682539684,4.867724867724868 60.31746031746032,4.444444444444445 60.952380952380956,4.021164021164021 61.58730158730159,3.597883597883598 62.22222222222223,3.3862433862433865 62.85714285714286,3.174603174603175 63.492063492063494,2.9629629629629632 64.12698412698413,2.7513227513227516 64.55026455026456,2.3280423280423284 65.18518518518519,2.1164021164021167 65.82010582010582,1.9047619047619049 66.45502645502646,1.6931216931216932 67.08994708994709,1.4814814814814816 67.72486772486774,1.26984126984127 68.35978835978837,1.26984126984127 68.994708994709,1.0582010582010584 69.62962962962963,0.8465608465608466 70.26455026455027,0.8465608465608466 70.8994708994709,0.634920634920635 71.53439153439155,0.634920634920635 72.16931216931218,0.4232804232804233 72.80423280423281,0.4232804232804233 73.43915343915344,0.4232804232804233 74.07407407407408,0.21164021164021166 74.70899470899471,0.21164021164021166 75.34391534391536,0.21164021164021166 75.97883597883599,0.21164021164021166 76.61375661375662,0.21164021164021166 77.24867724867725,0.21164021164021166 77.88359788359789,0.4232804232804233 78.51851851851852,0.4232804232804233 79.15343915343917,0.4232804232804233 79.7883597883598,0.634920634920635 80.42328042328043,0.8465608465608466 81.05820105820106,1.0582010582010584 81.6931216931217,1.0582010582010584 82.32804232804233,1.0582010582010584 82.75132275132276,1.4814814814814816 83.3862433862434,1.9047619047619049 84.02116402116403,2.1164021164021167 84.65608465608466,2.3280423280423284 85.07936507936509,2.7513227513227516 85.5026455026455,3.174603174603175 85.92592592592594,3.597883597883598 86.34920634920636,4.2328042328042335 86.77248677248677,4.656084656084657 87.1957671957672,5.291005291005291 87.61904761904762,5.9259259259259265 87.83068783068784,6.560846560846561 88.25396825396827,7.195767195767196 88.46560846560847,7.830687830687832 88.46560846560847,8.465608465608467 88.67724867724868,9.100529100529101 88.8888888888889,9.735449735449736 89.1005291005291,10.370370370370372 89.1005291005291,11.005291005291006 89.1005291005291,11.640211640211641 89.1005291005291,12.275132275132275 88.8888888888889,12.910052910052912 88.8888888888889,13.544973544973546 88.67724867724868,14.17989417989418 88.46560846560847,14.814814814814817 88.25396825396827,15.449735449735451 88.25396825396827,16.084656084656086 88.04232804232805,16.71957671957672 87.61904761904762,17.354497354497354 87.61904761904762,17.98941798941799 87.40740740740742,18.624338624338627 87.1957671957672,19.25925925925926 86.98412698412699,19.894179894179896 86.98412698412699,20.529100529100532 86.77248677248677,21.164021164021165 86.77248677248677,21.7989417989418 86.77248677248677,22.433862433862437 86.56084656084657,23.06878306878307 86.56084656084657,23.703703703703706 86.77248677248677,24.338624338624342 86.98412698412699,24.973544973544975 87.1957671957672,25.60846560846561 87.40740740740742,26.243386243386244 87.83068783068784,26.87830687830688 88.04232804232805,27.513227513227516 88.46560846560847,27.93650793650794 88.8888888888889,28.35978835978836 89.31216931216932,28.783068783068785 89.73544973544975,29.20634920634921 90.37037037037038,29.629629629629633 91.00529100529101,29.841269841269842 91.64021164021165,30.052910052910054 92.27513227513228,30.264550264550266 92.91005291005291,30.476190476190478 93.54497354497356,30.476190476190478 94.17989417989419,30.68783068783069 94.81481481481482,30.476190476190478 95.44973544973546,30.476190476190478 96.08465608465609,30.264550264550266 96.71957671957672,30.264550264550266 97.35449735449737,29.841269841269842 97.989417989418,29.841269841269842 98.62433862433863,29.629629629629633 99.25925925925927,29.20634920634921 99.8941798941799,28.994708994708997 100.52910052910053,28.783068783068785 101.16402116402116,28.571428571428573 101.79894179894181,28.35978835978836 102.43386243386244,28.14814814814815 103.06878306878308,27.93650793650794 103.70370370370371,27.513227513227516 104.33862433862434,27.301587301587304 104.97354497354497,27.089947089947092 105.60846560846562,27.089947089947092 106.03174603174604,26.666666666666668 106.66666666666667,26.666666666666668 107.3015873015873,26.455026455026456 107.93650793650795,26.243386243386244 108.57142857142858,26.031746031746035 109.20634920634922,25.60846560846561 109.84126984126985,25.60846560846561 110.47619047619048,25.3968253968254 111.11111111111111,25.185185185185187 111.74603174603176,24.973544973544975 112.3809523809524,24.761904761904763 113.01587301587303,24.761904761904763 113.65079365079366,24.55026455026455 114.28571428571429,24.338624338624342 114.92063492063492,24.12698412698413 115.55555555555557,24.12698412698413 116.1904761904762,23.915343915343918 116.82539682539684,23.703703703703706 117.46031746031747,23.703703703703706 118.0952380952381,23.492063492063494 118.73015873015873,23.280423280423282 119.36507936507937,23.06878306878307 120.00000000000001,23.06878306878307 120.63492063492065,22.857142857142858 121.26984126984128,22.857142857142858 121.90476190476191,22.645502645502646 122.53968253968254,22.433862433862437 123.17460317460318,22.222222222222225 123.80952380952382,22.222222222222225 124.44444444444446,22.010582010582013 125.07936507936509,21.7989417989418 125.71428571428572,21.7989417989418 126.34920634920636,21.58730158730159 126.98412698412699,21.58730158730159 127.61904761904763,21.375661375661377 128.25396825396825,21.375661375661377 128.88888888888889,21.164021164021165 132.9100529100529,20.31746031746032" style="fill:none; stroke:#cc0000; stroke-width:1.0"  /><polyline points="132.9100529100529,20.31746031746032 131.85185185185185,23.915343915343918 131.64021164021165,24.55026455026455 131.42857142857144,25.185185185185187 131.21693121693121,25.820105820105823 131.21693121693121,26.455026455026456 131.005291005291,27.089947089947092 130.7936507936508,27.724867724867728 130.58201058201058,28.35978835978836 130.37037037037038,28.994708994708997 130.15873015873018,29.629629629629633 129.94708994708995,30.264550264550266 129.73544973544975,30.899470899470902 129.52380952380955,31.53439153439154 129.31216931216932,32.16931216931217 129.10052910052912,32.804232804232804 129.10052910052912,33.43915343915344 128.88888888888889,34.074074074074076 128.67724867724868,34.70899470899471 128.67724867724868,35.34391534391535 128.46560846560848,35.97883597883598 128.25396825396825,36.613756613756614 128.25396825396825,37.248677248677254 128.04232804232805,37.883597883597886 127.83068783068784,38.51851851851852 127.83068783068784,39.15343915343916 127.61904761904763,39.78835978835979 127.61904761904763,40.423280423280424 127.40740740740742,41.058201058201064 127.40740740740742,41.6931216931217 127.40740740740742,42.32804232804233 127.1957671957672,42.96296296296297 127.1957671957672,43.5978835978836 127.1957671957672,44.232804232804234 127.1957671957672,44.867724867724874 126.98412698412699,45.50264550264551 126.98412698412699,46.13756613756614 126.98412698412699,46.77248677248678 126.77248677248679,47.40740740740741 126.77248677248679,48.042328042328045 126.77248677248679,48.677248677248684 126.56084656084657,49.31216931216932 126.56084656084657,49.94708994708995 126.56084656084657,50.58201058201058 126.56084656084657,51.21693121693122 126.56084656084657,51.851851851851855 126.34920634920636,52.48677248677249 126.34920634920636,53.12169312169313 126.34920634920636,53.75661375661376 126.34920634920636,54.39153439153439 126.34920634920636,55.02645502645503 126.34920634920636,55.661375661375665 126.34920634920636,56.2962962962963 126.34920634920636,56.93121693121694 126.34920634920636,57.56613756613757 126.34920634920636,58.2010582010582 126.13756613756615,58.83597883597884 126.13756613756615,59.470899470899475 126.13756613756615,60.10582010582011 126.13756613756615,60.74074074074075 126.13756613756615,61.37566137566138 126.13756613756615,62.01058201058201 126.13756613756615,62.64550264550265 126.34920634920636,63.280423280423285 126.34920634920636,63.91534391534392 126.34920634920636,64.55026455026456 126.34920634920636,65.18518518518519 126.34920634920636,65.82010582010582 126.34920634920636,66.45502645502646 126.34920634920636,67.08994708994709 126.56084656084657,67.72486772486774 126.56084656084657,68.35978835978837 126.56084656084657,68.994708994709 126.56084656084657,69.62962962962963 126.77248677248679,70.26455026455027 126.77248677248679,70.8994708994709 126.77248677248679,71.53439153439155 126.98412698412699,72.16931216931218 126.98412698412699,72.80423280423281 127.1957671957672,73.43915343915344 127.1957671957672,74.07407407407408 127.40740740740742,74.70899470899471 127.40740740740742,75.34391534391536 127.61904761904763,75.97883597883599 127.61904761904763,76.61375661375662 127.61904761904763,77.24867724867725 127.83068783068784,77.88359788359789 127.83068783068784,78.51851851851852 128.04232804232805,79.15343915343917 128.25396825396825,79.7883597883598 128.46560846560848,80.42328042328043 128.67724867724868,81.05820105820106 128.67724867724868,81.6931216931217 128.67724867724868,82.32804232804233 128.88888888888889,82.96296296296298 129.10052910052912,83.59788359788361 129.10052910052912,84.23280423280424 129.31216931216932,84.86772486772487 129.31216931216932,85.5026455026455 129.52380952380955,86.13756613756614 129.52380952380955,86.77248677248677 129.73544973544975,87.40740740740742 129.94708994708995,88.04232804232805 129.94708994708995,88.67724867724868 130.15873015873018,89.31216931216932 130.37037037037038,89.94708994708995 130.37037037037038,90.58201058201058 130.58201058201058,91.21693121693123 130.7936507936508,91.85185185185186 130.7936507936508,92.4867724867725 131.005291005291,93.12169312169313 131.21693121693121,93.75661375661376 131.21693121693121,94.39153439153439 131.42857142857144,95.02645502645504 131.64021164021165,95.66137566137567 131.85185185185185,96.2962962962963 132.06349206349208,96.93121693121694 132.06349206349208,97.56613756613757 132.27513227513228,98.2010582010582 132.4867724867725,98.83597883597885 132.4867724867725,99.47089947089948 132.6984126984127,100.10582010582011 132.9100529100529,100.74074074074075 133.12169312169314,101.37566137566138 133.33333333333334,102.01058201058201 133.54497354497354,102.64550264550266 133.54497354497354,103.28042328042329 133.75661375661377,103.91534391534393 133.96825396825398,104.55026455026456 134.17989417989418,105.18518518518519 134.3915343915344,105.82010582010582 134.6031746031746,106.45502645502647 134.6031746031746,107.0899470899471 134.81481481481484,107.72486772486774 135.02645502645504,108.35978835978837 135.02645502645504,108.994708994709 135.23809523809524,109.62962962962963 135.23809523809524,110.26455026455027 135.44973544973547,110.89947089947091 135.44973544973547,111.53439153439155 135.44973544973547,112.16931216931218 135.44973544973547,112.80423280423281 135.44973544973547,113.43915343915344 135.66137566137567,114.07407407407408 135.66137566137567,114.70899470899472 135.66137566137567,115.34391534391536 135.66137566137567,115.97883597883599 135.66137566137567,116.61375661375662 135.66137566137567,117.24867724867725 135.44973544973547,117.88359788359789 135.23809523809524,118.51851851851853 135.23809523809524,119.15343915343917 135.02645502645504,119.7883597883598 134.81481481481484,120.42328042328043 134.6031746031746,121.05820105820106 134.3915343915344,121.6931216931217 134.17989417989418,122.32804232804234 133.75661375661377,122.96296296296298 133.54497354497354,123.59788359788361 133.12169312169314,124.23280423280424 132.6984126984127,124.86772486772487 132.27513227513228,125.5026455026455 131.85185185185185,126.13756613756615 131.42857142857144,126.56084656084657 131.005291005291,126.98412698412699 130.58201058201058,127.40740740740742 130.15873015873018,127.83068783068784 129.52380952380955,128.25396825396825 128.88888888888889,128.67724867724868 128.25396825396825,128.88888888888889 127.61904761904763,129.10052910052912 126.98412698412699,129.10052910052912 126.34920634920636,129.10052910052912 125.71428571428572,129.10052910052912 125.07936507936509,128.88888888888889 124.44444444444446,128.67724867724868 123.80952380952382,128.46560846560848 123.17460317460318,128.25396825396825 122.53968253968254,128.04232804232805 121.90476190476191,127.61904761904763 121.26984126984128,127.40740740740742 120.63492063492065,126.98412698412699 120.00000000000001,126.56084656084657 119.36507936507937,126.13756613756615 118.73015873015873,125.71428571428572 118.30687830687832,125.2910052910053 117.88359788359789,124.86772486772487 117.46031746031747,124.44444444444446 116.82539682539684,124.02116402116403 116.4021164021164,123.59788359788361 115.97883597883599,123.17460317460318 115.55555555555557,122.53968253968254 115.13227513227514,122.11640211640213 114.70899470899472,121.6931216931217 114.28571428571429,121.26984126984128 113.86243386243387,120.84656084656086 113.43915343915344,120.42328042328043 113.01587301587303,120.00000000000001 112.5925925925926,119.57671957671958 111.95767195767196,119.15343915343917 111.32275132275133,118.73015873015873 110.6878306878307,118.51851851851853 110.05291005291006,118.0952380952381 109.41798941798943,117.88359788359789 108.78306878306879,117.46031746031747 108.14814814814815,117.24867724867725 107.51322751322752,117.03703703703705 106.87830687830689,116.82539682539684 106.24338624338625,116.61375661375662 105.60846560846562,116.4021164021164 104.97354497354497,116.1904761904762 104.33862433862434,116.1904761904762 103.70370370370371,116.1904761904762 103.06878306878308,116.1904761904762 102.43386243386244,116.1904761904762 101.79894179894181,116.1904761904762 101.16402116402116,116.1904761904762 100.52910052910053,116.1904761904762 99.8941798941799,116.61375661375662 99.25925925925927,116.82539682539684 98.83597883597885,117.24867724867725 98.2010582010582,117.67195767195768 97.56613756613757,118.0952380952381 97.14285714285715,118.51851851851853 96.50793650793652,118.94179894179895 96.08465608465609,119.36507936507937 95.44973544973546,119.7883597883598 95.02645502645504,120.21164021164022 94.60317460317461,120.63492063492065 94.17989417989419,121.05820105820106 93.75661375661376,121.4814814814815 93.33333333333334,122.11640211640213 92.91005291005291,122.53968253968254 92.4867724867725,122.96296296296298 92.06349206349208,123.59788359788361 91.64021164021165,124.23280423280424 91.21693121693123,124.86772486772487 90.7936507936508,125.5026455026455 90.37037037037038,126.13756613756615 89.94708994708995,126.77248677248679 89.73544973544975,127.40740740740742 89.31216931216932,128.04232804232805 89.1005291005291,128.67724867724868 88.8888888888889,129.31216931216932 88.46560846560847,129.94708994708995 88.25396825396827,130.58201058201058 88.04232804232805,131.21693121693121 87.83068783068784,131.85185185185185 87.61904761904762,132.4867724867725 87.40740740740742,133.12169312169314 87.1957671957672,133.75661375661377 86.98412698412699,134.3915343915344 86.98412698412699,135.02645502645504 86.77248677248677,135.66137566137567 86.77248677248677,136.2962962962963 86.77248677248677,136.93121693121694 86.56084656084657,137.56613756613757 86.56084656084657,138.2010582010582 86.56084656084657,138.83597883597884 86.77248677248677,139.47089947089947 86.77248677248677,140.10582010582013 86.77248677248677,140.74074074074076 86.98412698412699,141.3756613756614 86.98412698412699,142.01058201058203 87.1957671957672,142.64550264550266 87.1957671957672,143.2804232804233 87.40740740740742,143.91534391534393 87.61904761904762,144.55026455026456 87.83068783068784,145.1851851851852 88.04232804232805,145.82010582010582 88.25396825396827,146.45502645502646 88.46560846560847,147.0899470899471 88.67724867724868,147.72486772486775 89.1005291005291,148.35978835978838 89.31216931216932,148.99470899470901 89.73544973544975,149.41798941798942 90.15873015873017,150.05291005291005 90.58201058201058,150.47619047619048 91.00529100529101,151.11111111111111 91.42857142857143,151.53439153439155 91.85185185185186,151.95767195767198 92.27513227513228,152.38095238095238 92.91005291005291,152.5925925925926 93.33333333333334,153.01587301587304 93.96825396825398,153.43915343915344 94.60317460317461,153.65079365079367 95.23809523809524,153.86243386243387 95.87301587301587,154.07407407407408 96.50793650793652,154.07407407407408 97.14285714285715,154.07407407407408 97.77777777777779,154.2857142857143 98.41269841269842,154.2857142857143 99.04761904761905,154.2857142857143 99.68253968253968,154.07407407407408 100.31746031746033,154.07407407407408 100.95238095238096,154.07407407407408 101.5873015873016,154.07407407407408 102.22222222222223,154.07407407407408 102.85714285714286,153.86243386243387 103.4920634920635,154.07407407407408 104.12698412698414,153.86243386243387 104.76190476190477,153.86243386243387 105.3968253968254,153.65079365079367 106.03174603174604,153.43915343915344 106.66666666666667,153.43915343915344 107.3015873015873,153.22751322751324 107.93650793650795,153.22751322751324 108.57142857142858,153.01587301587304 109.20634920634922,153.01587301587304 109.84126984126985,152.5925925925926 110.47619047619048,152.38095238095238 111.11111111111111,152.38095238095238 111.74603174603176,152.16931216931218 112.3809523809524,151.74603174603175 113.01587301587303,151.32275132275134 113.65079365079366,151.32275132275134 114.28571428571429,150.8994708994709 114.92063492063492,150.8994708994709 115.55555555555557,150.6878306878307 116.1904761904762,150.47619047619048 116.82539682539684,150.26455026455028 117.46031746031747,150.26455026455028 118.0952380952381,150.05291005291005 118.73015873015873,150.05291005291005 119.36507936507937,149.84126984126985 120.00000000000001,149.84126984126985 120.63492063492065,149.84126984126985 121.26984126984128,149.84126984126985 121.90476190476191,149.84126984126985 122.53968253968254,150.05291005291005 123.17460317460318,150.05291005291005 123.80952380952382,150.47619047619048 124.44444444444446,150.6878306878307 124.86772486772487,151.11111111111111 125.5026455026455,151.53439153439155 125.92592592592594,152.16931216931218 126.34920634920636,152.8042328042328 126.56084656084657,153.43915343915344 126.98412698412699,154.07407407407408 127.1957671957672,154.7089947089947 127.40740740740742,155.34391534391534 127.40740740740742,155.978835978836 127.61904761904763,156.61375661375664 127.61904761904763,157.24867724867727 127.83068783068784,157.8835978835979 127.83068783068784,158.51851851851853 127.83068783068784,159.15343915343917 127.83068783068784,159.7883597883598 127.83068783068784,160.42328042328043 127.83068783068784,161.05820105820106 127.83068783068784,161.6931216931217 127.83068783068784,162.32804232804233 127.83068783068784,162.96296296296296 127.83068783068784,163.59788359788362 127.83068783068784,164.23280423280426 127.83068783068784,164.8677248677249 127.83068783068784,165.50264550264552 127.83068783068784,166.13756613756615 127.83068783068784,166.7724867724868 127.83068783068784,167.40740740740742 127.83068783068784,168.04232804232805 127.83068783068784,168.67724867724868 127.83068783068784,169.31216931216932 127.83068783068784,169.94708994708995 127.83068783068784,170.58201058201058 128.04232804232805,171.21693121693124 128.04232804232805,171.85185185185188 128.04232804232805,172.4867724867725 128.04232804232805,173.12169312169314 128.04232804232805,173.75661375661377 128.04232804232805,174.3915343915344 128.04232804232805,175.02645502645504 128.25396825396825,175.66137566137567 128.25396825396825,176.2962962962963 128.25396825396825,176.93121693121694 128.25396825396825,177.56613756613757 128.46560846560848,178.2010582010582 128.46560846560848,178.83597883597884 128.46560846560848,179.4708994708995 128.46560846560848,180.10582010582013 128.46560846560848,180.74074074074076 128.67724867724868,181.3756613756614 128.67724867724868,182.01058201058203 128.88888888888889,182.64550264550266 128.88888888888889,183.2804232804233 128.88888888888889,183.91534391534393 129.10052910052912,184.55026455026456 129.31216931216932,185.1851851851852 129.31216931216932,185.82010582010582 129.31216931216932,186.45502645502646 129.52380952380955,187.08994708994712 129.52380952380955,187.72486772486775 129.73544973544975,188.35978835978838 129.73544973544975,188.99470899470901 129.73544973544975,189.62962962962965 129.94708994708995,190.26455026455028 129.94708994708995,190.8994708994709 130.15873015873018,191.53439153439155 130.15873015873018,192.16931216931218 130.37037037037038,192.8042328042328 130.37037037037038,193.43915343915344 130.58201058201058,194.07407407407408 130.58201058201058,194.70899470899474 130.7936507936508,195.34391534391537 130.7936507936508,195.978835978836 131.005291005291,196.61375661375664 131.21693121693121,197.24867724867727 131.42857142857144,197.8835978835979 131.42857142857144,198.51851851851853 131.64021164021165,199.15343915343917 131.85185185185185,199.7883597883598 132.06349206349208,200.42328042328043 132.06349206349208,201.05820105820106 132.27513227513228,201.6931216931217 132.27513227513228,202.32804232804233 132.4867724867725,202.962962962963 133.33333333333334,206.34920634920636" style="fill:none; stroke:#999900; stroke-width:1.0"  /><polyline points="133.33333333333334,206.34920634920636 129.94708994708995,206.56084656084658 129.31216931216932,206.56084656084658 128.67724867724868,206.56084656084658 128.04232804232805,206.7724867724868 127.40740740740742,206.7724867724868 126.77248677248679,206.7724867724868 126.13756613756615,206.7724867724868 125.5026455026455,206.7724867724868 124.86772486772487,206.7724867724868 124.23280423280424,206.7724867724868 123.59788359788361,206.7724867724868 122.96296296296298,206.7724867724868 122.32804232804234,206.984126984127 121.6931216931217,206.984126984127 121.05820105820106,206.984126984127 120.42328042328043,206.984126984127 119.7883597883598,206.984126984127 119.15343915343917,206.984126984127 118.51851851851853,206.984126984127 117.88359788359789,206.984126984127 117.24867724867725,207.19576719576722 116.61375661375662,207.19576719576722 115.97883597883599,207.19576719576722 115.34391534391536,207.19576719576722 114.70899470899472,207.19576719576722 114.07407407407408,207.19576719576722 113.43915343915344,207.19576719576722 112.80423280423281,207.40740740740742 112.16931216931218,207.40740740740742 111.53439153439155,207.40740740740742 110.89947089947091,207.40740740740742 110.26455026455027,207.61904761904765 109.62962962962963,207.61904761904765 108.994708994709,207.61904761904765 108.35978835978837,207.61904761904765 107.72486772486774,207.61904761904765 107.0899470899471,207.61904761904765 106.45502645502647,207.61904761904765 105.82010582010582,207.61904761904765 105.18518518518519,207.61904761904765 104.55026455026456,207.61904761904765 103.91534391534393,207.83068783068785 103.28042328042329,207.83068783068785 102.64550264550266,207.83068783068785 102.01058201058201,207.83068783068785 101.37566137566138,208.04232804232805 100.74074074074075,208.04232804232805 100.10582010582011,208.04232804232805 99.47089947089948,208.25396825396828 98.83597883597885,208.25396825396828 98.2010582010582,208.25396825396828 97.56613756613757,208.25396825396828 96.93121693121694,208.25396825396828 96.2962962962963,208.46560846560848 95.66137566137567,208.25396825396828 95.02645502645504,208.46560846560848 94.39153439153439,208.46560846560848 93.75661375661376,208.46560846560848 93.12169312169313,208.46560846560848 92.4867724867725,208.46560846560848 91.85185185185186,208.46560846560848 91.21693121693123,208.46560846560848 90.58201058201058,208.46560846560848 89.94708994708995,208.46560846560848 89.31216931216932,208.46560846560848 88.67724867724868,208.46560846560848 88.04232804232805,208.46560846560848 87.40740740740742,208.46560846560848 86.77248677248677,208.67724867724868 86.13756613756614,208.67724867724868 85.5026455026455,208.67724867724868 84.86772486772487,208.67724867724868 84.23280423280424,208.67724867724868 83.59788359788361,208.67724867724868 82.96296296296298,208.67724867724868 82.32804232804233,208.67724867724868 81.6931216931217,208.8888888888889 81.05820105820106,208.8888888888889 80.42328042328043,208.8888888888889 79.7883597883598,208.8888888888889 79.15343915343917,208.8888888888889 78.51851851851852,208.8888888888889 77.88359788359789,208.8888888888889 77.24867724867725,209.10052910052912 76.61375661375662,209.10052910052912 75.97883597883599,209.10052910052912 75.34391534391536,209.10052910052912 74.70899470899471,209.10052910052912 74.07407407407408,209.10052910052912 73.43915343915344,209.10052910052912 72.80423280423281,209.10052910052912 72.16931216931218,209.31216931216932 71.53439153439155,209.31216931216932 70.8994708994709,209.31216931216932 70.26455026455027,209.31216931216932 69.62962962962963,209.31216931216932 68.994708994709,209.31216931216932 68.35978835978837,209.31216931216932 67.72486772486774,209.52380952380955 67.08994708994709,209.52380952380955 66.45502645502646,209.52380952380955 65.82010582010582,209.52380952380955 65.18518518518519,209.52380952380955 64.55026455026456,209.52380952380955 64.12698412698413,209.94708994708995 63.492063492063494,209.73544973544975 62.85714285714286,209.94708994708995 62.22222222222223,209.94708994708995 61.58730158730159,209.94708994708995 60.952380952380956,209.94708994708995 60.31746031746032,209.94708994708995 59.682539682539684,210.15873015873018 59.04761904761905,210.15873015873018 58.41269841269842,210.15873015873018 57.777777777777786,210.15873015873018 57.142857142857146,210.15873015873018 56.50793650793651,210.15873015873018 55.87301587301588,210.37037037037038 55.23809523809524,210.37037037037038 54.60317460317461,210.37037037037038 53.968253968253975,210.5820105820106 53.333333333333336,210.37037037037038 52.6984126984127,210.5820105820106 52.06349206349207,210.5820105820106 51.42857142857143,210.5820105820106 50.7936507936508,210.5820105820106 50.158730158730165,210.7936507936508 49.523809523809526,210.5820105820106 48.88888888888889,210.7936507936508 48.25396825396826,210.7936507936508 47.61904761904762,211.005291005291 46.98412698412699,211.005291005291 46.349206349206355,211.005291005291 45.714285714285715,211.005291005291 45.07936507936508,211.005291005291 44.44444444444445,211.005291005291 43.80952380952381,211.005291005291 43.17460317460318,211.005291005291 42.539682539682545,211.005291005291 41.904761904761905,211.005291005291 41.26984126984127,211.21693121693124 40.63492063492064,211.21693121693124 40.0,211.21693121693124 39.36507936507937,211.21693121693124 38.730158730158735,211.21693121693124 38.095238095238095,211.21693121693124 37.46031746031746,211.21693121693124 36.82539682539683,211.21693121693124 36.19047619047619,211.21693121693124 35.55555555555556,211.21693121693124 34.920634920634924,211.21693121693124 34.28571428571429,211.21693121693124 33.65079365079365,211.21693121693124 33.01587301587302,211.21693121693124 32.38095238095239,211.21693121693124 31.746031746031747,211.42857142857144 31.111111111111114,211.42857142857144 30.476190476190478,211.42857142857144 29.841269841269842,211.42857142857144 29.20634920634921,211.64021164021165 28.571428571428573,211.64021164021165 27.93650793650794,211.64021164021165 27.301587301587304,211.85185185185188 26.666666666666668,211.85185185185188 26.031746031746035,211.85185185185188 25.3968253968254,211.85185185185188 24.761904761904763,211.85185185185188 24.12698412698413,211.85185185185188 23.492063492063494,211.85185185185188 22.857142857142858,212.06349206349208 22.222222222222225,212.06349206349208 21.58730158730159,212.06349206349208 20.952380952380953,212.06349206349208 20.31746031746032,212.06349206349208 19.682539682539684,212.06349206349208 19.047619047619047,212.06349206349208 18.412698412698415,212.27513227513228 17.77777777777778,212.06349206349208 17.142857142857146,212.27513227513228 16.50793650793651,212.27513227513228 15.873015873015873,212.27513227513228 15.238095238095239,212.27513227513228 14.603174603174605,212.27513227513228 13.96825396825397,212.27513227513228 13.333333333333334,212.4867724867725 12.6984126984127,212.4867724867725 12.063492063492065,212.4867724867725 11.428571428571429,212.4867724867725 10.793650793650794,212.4867724867725 10.15873015873016,212.4867724867725 6.984126984126985,212.6984126984127" style="fill:none; stroke:#00aa99; stroke-width:3.0" stroke-dasharray="6,3" /><polyline points="6.984126984126985,212.6984126984127 6.984126984126985,209.73544973544975 6.984126984126985,209.10052910052912 6.984126984126985,208.46560846560848 6.984126984126985,207.83068783068785 6.984126984126985,207.19576719576722 6.984126984126985,206.56084656084658 6.984126984126985,205.92592592592595 6.984126984126985,205.29100529100532 6.984126984126985,204.65608465608466 6.984126984126985,204.02116402116403 6.984126984126985,203.3862433862434 6.772486772486773,202.75132275132276 6.984126984126985,202.11640211640213 6.772486772486773,201.4814814814815 6.772486772486773,200.84656084656086 6.772486772486773,200.21164021164023 6.772486772486773,199.5767195767196 6.772486772486773,198.94179894179896 6.772486772486773,198.30687830687833 6.984126984126985,197.6719576719577 6.984126984126985,197.03703703703704 6.772486772486773,196.4021164021164 6.772486772486773,195.76719576719577 6.772486772486773,195.13227513227514 6.772486772486773,194.4973544973545 6.772486772486773,193.86243386243387 6.772486772486773,193.22751322751324 6.772486772486773,192.5925925925926 6.772486772486773,191.95767195767198 6.560846560846561,191.32275132275134 6.560846560846561,190.6878306878307 6.560846560846561,190.05291005291008 6.560846560846561,189.41798941798945 6.560846560846561,188.78306878306879 6.560846560846561,188.14814814814815 6.560846560846561,187.51322751322752 6.560846560846561,186.8783068783069 6.560846560846561,186.24338624338625 6.34920634920635,185.60846560846562 6.34920634920635,184.973544973545 6.137566137566138,184.33862433862436 6.137566137566138,183.70370370370372 6.137566137566138,183.0687830687831 6.137566137566138,182.43386243386246 6.137566137566138,181.79894179894183 6.137566137566138,181.16402116402116 6.137566137566138,180.52910052910053 6.137566137566138,179.8941798941799 6.137566137566138,179.25925925925927 6.137566137566138,178.62433862433863 5.9259259259259265,177.989417989418 6.137566137566138,177.35449735449737 6.137566137566138,176.71957671957674 6.137566137566138,176.0846560846561 6.137566137566138,175.44973544973547 5.9259259259259265,174.81481481481484 5.9259259259259265,174.1798941798942 5.9259259259259265,173.54497354497354 5.9259259259259265,172.9100529100529 5.9259259259259265,172.27513227513228 5.9259259259259265,171.64021164021165 5.9259259259259265,171.005291005291 5.9259259259259265,170.37037037037038 5.9259259259259265,169.73544973544975 5.9259259259259265,169.10052910052912 5.9259259259259265,168.46560846560848 5.9259259259259265,167.83068783068785 5.9259259259259265,167.19576719576722 5.9259259259259265,166.56084656084658 5.9259259259259265,165.92592592592595 5.9259259259259265,165.2910052910053 5.9259259259259265,164.65608465608466 5.9259259259259265,164.02116402116403 5.9259259259259265,163.3862433862434 5.9259259259259265,162.75132275132276 5.9259259259259265,162.11640211640213 5.9259259259259265,161.4814814814815 5.9259259259259265,160.84656084656086 6.137566137566138,160.21164021164023 6.137566137566138,159.5767195767196 6.137566137566138,158.94179894179896 6.137566137566138,158.30687830687833 6.137566137566138,157.67195767195767 6.137566137566138,157.03703703703704 6.137566137566138,156.4021164021164 6.137566137566138,155.76719576719577 6.137566137566138,155.13227513227514 6.137566137566138,154.4973544973545 6.137566137566138,153.86243386243387 6.137566137566138,153.22751322751324 6.34920634920635,152.5925925925926 6.34920634920635,151.95767195767198 6.34920634920635,151.32275132275134 6.34920634920635,150.6878306878307 6.34920634920635,150.05291005291005 6.137566137566138,149.41798941798942 6.137566137566138,148.78306878306879 6.137566137566138,148.14814814814815 6.137566137566138,147.51322751322752 6.137566137566138,146.8783068783069 6.137566137566138,146.24338624338625 6.137566137566138,145.60846560846562 6.137566137566138,144.973544973545 6.137566137566138,144.33862433862436 6.137566137566138,143.70370370370372 6.34920634920635,143.0687830687831 6.34920634920635,142.43386243386246 6.34920634920635,141.7989417989418 6.34920634920635,141.16402116402116 6.34920634920635,140.52910052910053 6.34920634920635,139.8941798941799 6.34920634920635,139.25925925925927 6.560846560846561,138.62433862433863 6.560846560846561,137.989417989418 6.560846560846561,137.35449735449737 6.560846560846561,136.71957671957674 6.560846560846561,136.0846560846561 6.560846560846561,135.44973544973547 6.560846560846561,134.81481481481484 6.560846560846561,134.17989417989418 6.772486772486773,133.54497354497354 6.772486772486773,132.9100529100529 6.772486772486773,132.27513227513228 6.772486772486773,131.64021164021165 6.984126984126985,131.005291005291 6.984126984126985,130.37037037037038 6.984126984126985,129.73544973544975 6.984126984126985,129.10052910052912 6.984126984126985,128.46560846560848 6.984126984126985,127.83068783068784 6.984126984126985,127.1957671957672 7.195767195767196,126.56084656084657 7.195767195767196,125.92592592592594 7.195767195767196,125.2910052910053 7.195767195767196,124.65608465608466 7.195767195767196,124.02116402116403 7.407407407407408,123.3862433862434 7.407407407407408,122.75132275132276 7.6190476190476195,122.11640211640213 7.6190476190476195,121.4814814814815 7.6190476190476195,120.84656084656086 7.6190476190476195,120.21164021164022 7.830687830687832,119.57671957671958 7.830687830687832,118.94179894179895 8.042328042328043,118.30687830687832 8.253968253968255,117.67195767195768 8.465608465608467,117.03703703703705 8.677248677248677,116.4021164021164 8.88888888888889,115.76719576719577 9.312169312169313,115.13227513227514 9.312169312169313,114.49735449735451 9.523809523809524,113.86243386243387 9.947089947089948,113.43915343915344 10.370370370370372,112.80423280423281 10.793650793650794,112.16931216931218 11.216931216931219,111.53439153439155 11.640211640211641,111.11111111111111 12.063492063492065,110.6878306878307 12.486772486772487,110.26455026455027 13.121693121693122,109.84126984126985 13.756613756613758,109.41798941798943 14.391534391534393,109.20634920634922 15.026455026455027,109.20634920634922 15.661375661375663,108.994708994709 16.296296296296298,108.994708994709 16.931216931216934,108.994708994709 17.354497354497354,108.57142857142858 17.98941798941799,108.78306878306879 18.624338624338627,108.78306878306879 19.25925925925926,108.78306878306879 19.894179894179896,108.78306878306879 20.529100529100532,108.78306878306879 21.164021164021165,108.994708994709 21.7989417989418,109.20634920634922 22.433862433862437,109.41798941798943 23.06878306878307,109.41798941798943 23.703703703703706,109.62962962962963 24.338624338624342,109.84126984126985 24.973544973544975,110.05291005291006 25.60846560846561,110.26455026455027 26.243386243386244,110.47619047619048 26.87830687830688,110.89947089947091 27.513227513227516,111.11111111111111 28.14814814814815,111.53439153439155 28.783068783068785,111.74603174603176 29.41798941798942,111.74603174603176 30.052910052910054,111.95767195767196 30.68783068783069,112.3809523809524 31.322751322751326,112.5925925925926 31.95767195767196,112.80423280423281 32.592592592592595,112.80423280423281 33.22751322751323,113.01587301587303 33.86243386243387,113.01587301587303 34.4973544973545,113.22751322751324 35.13227513227513,113.22751322751324 35.76719576719577,113.22751322751324 36.402116402116405,113.22751322751324 37.03703703703704,113.22751322751324 37.67195767195768,113.22751322751324 38.30687830687831,113.22751322751324 38.94179894179894,113.01587301587303 39.57671957671958,113.01587301587303 40.211640211640216,112.80423280423281 40.84656084656085,112.3809523809524 41.48148148148149,112.16931216931218 41.904761904761905,111.74603174603176 42.32804232804233,111.32275132275133 42.75132275132275,110.89947089947091 43.17460317460318,110.47619047619048 43.5978835978836,110.05291005291006 44.021164021164026,109.41798941798943 44.232804232804234,108.78306878306879 44.65608465608466,108.14814814814815 44.867724867724874,107.51322751322752 44.867724867724874,106.87830687830689 45.29100529100529,106.24338624338625 45.29100529100529,105.60846560846562 45.714285714285715,104.97354497354497 45.714285714285715,104.33862433862434 45.92592592592593,103.70370370370371 46.13756613756614,103.06878306878308 46.349206349206355,102.43386243386244 46.349206349206355,101.79894179894181 46.560846560846564,101.16402116402116 46.560846560846564,100.52910052910053 46.77248677248678,99.8941798941799 46.560846560846564,99.25925925925927 46.77248677248678,98.62433862433863 46.77248677248678,97.989417989418 46.77248677248678,97.35449735449737 46.560846560846564,96.71957671957672 46.560846560846564,96.08465608465609 46.560846560846564,95.44973544973546 46.349206349206355,94.81481481481482 46.349206349206355,94.17989417989419 46.349206349206355,93.54497354497356 46.13756613756614,92.91005291005291 46.13756613756614,92.27513227513228 45.92592592592593,91.64021164021165 45.92592592592593,91.00529100529101 45.714285714285715,90.37037037037038 45.50264550264551,89.73544973544975 45.29100529100529,89.1005291005291 45.29100529100529,88.46560846560847 45.07936507936508,87.83068783068784 44.867724867724874,87.1957671957672 44.65608465608466,86.56084656084657 44.44444444444445,85.92592592592594 44.44444444444445,85.29100529100529 44.021164021164026,84.65608465608466 43.80952380952381,84.02116402116403 43.5978835978836,83.3862433862434 43.386243386243386,82.75132275132276 42.96296296296297,82.32804232804233 42.75132275132275,81.6931216931217 42.32804232804233,81.05820105820106 41.904761904761905,80.42328042328043 41.6931216931217,79.7883597883598 41.26984126984127,79.36507936507937 40.84656084656085,78.94179894179895 40.423280423280424,78.51851851851852 40.0,78.0952380952381 39.57671957671958,77.46031746031747 39.15343915343916,77.03703703703704 38.94179894179894,76.4021164021164 38.51851851851852,75.97883597883599 38.095238095238095,75.55555555555556 37.67195767195768,74.92063492063492 37.248677248677254,74.49735449735451 36.82539682539683,74.07407407407408 36.402116402116405,73.65079365079366 35.97883597883598,73.22751322751323 35.55555555555556,72.80423280423281 34.920634920634924,72.38095238095238 34.28571428571429,71.95767195767196 33.65079365079365,71.74603174603175 33.01587301587302,71.53439153439155 32.38095238095239,71.32275132275133 31.746031746031747,71.32275132275133 31.111111111111114,71.32275132275133 30.476190476190478,71.53439153439155 29.841269841269842,71.53439153439155 29.20634920634921,71.74603174603175 28.783068783068785,72.16931216931218 28.14814814814815,72.16931216931218 27.513227513227516,72.38095238095238 26.87830687830688,72.80423280423281 26.243386243386244,73.01587301587303 25.60846560846561,73.43915343915344 24.973544973544975,73.86243386243387 24.338624338624342,74.28571428571429 23.915343915343918,74.70899470899471 23.280423280423282,75.13227513227514 22.857142857142858,75.55555555555556 22.433862433862437,75.97883597883599 22.010582010582013,76.61375661375662 21.58730158730159,77.03703703703704 21.164021164021165,77.46031746031747 20.740740740740744,77.88359788359789 20.31746031746032,78.30687830687832 19.894179894179896,78.73015873015873 19.47089947089947,79.15343915343917 19.047619047619047,79.7883597883598 18.624338624338627,80.21164021164022 18.201058201058203,80.63492063492065 17.77777777777778,81.05820105820106 17.142857142857146,81.48148148148148 16.50793650793651,81.90476190476191 16.084656084656086,82.32804232804233 15.449735449735451,82.53968253968254 14.814814814814817,82.96296296296298 14.17989417989418,83.17460317460318 13.544973544973546,83.3862433862434 12.910052910052912,83.59788359788361 12.275132275132275,83.80952380952381 11.640211640211641,83.80952380952381 11.005291005291006,83.80952380952381 10.370370370370372,83.80952380952381 9.735449735449736,83.59788359788361 9.100529100529101,83.3862433862434 8.465608465608467,83.17460317460318 8.042328042328043,82.75132275132276 7.6190476190476195,82.32804232804233 7.195767195767196,81.90476190476191 6.772486772486773,81.26984126984128 6.34920634920635,80.63492063492065 6.137566137566138,80.0 5.714285714285714,79.36507936507937 5.291005291005291,78.73015873015873 5.291005291005291,78.0952380952381 5.07936507936508,77.46031746031747 4.867724867724868,76.82539682539684 4.867724867724868,76.19047619047619 4.656084656084657,75.55555555555556 4.444444444444445,74.92063492063492 4.444444444444445,74.28571428571429 4.444444444444445,73.65079365079366 4.444444444444445,73.01587301587303 4.2328042328042335,72.38095238095238 4.2328042328042335,71.74603174603175 4.021164021164021,71.11111111111111 3.8095238095238098,70.47619047619048 3.8095238095238098,69.84126984126985 3.597883597883598,69.20634920634922 3.3862433862433865,68.57142857142858 3.3862433862433865,67.93650793650794 3.174603174603175,67.3015873015873 3.174603174603175,66.66666666666667 2.9629629629629632,66.03174603174604 2.7513227513227516,65.3968253968254 2.7513227513227516,64.76190476190477 2.53968253968254,64.12698412698413 2.3280423280423284,63.492063492063494 2.3280423280423284,62.85714285714286 2.1164021164021167,62.22222222222223 1.6931216931216932,61.58730158730159 1.6931216931216932,60.952380952380956 1.4814814814814816,60.31746031746032 1.26984126984127,59.682539682539684 1.0582010582010584,59.04761904761905 0.8465608465608466,58.41269841269842 0.0,55.449735449735456" style="fill:none; stroke:#3300bb; stroke-width:1.0"  /><circle cx="0.0" cy="55.449735449735456" r="2.0" style="fill:none; stroke:#000000aa; stroke-width:0.25" /><circle cx="132.9100529100529" cy="20.31746031746032" r="2.0" style="fill:none; stroke:#000000aa; stroke-width:0.25" /><circle cx="133.33333333333334" cy="206.34920634920636" r="2.0" style="fill:none; stroke:#000000aa; stroke-width:0.25" /><circle cx="6.984126984126985" cy="212.6984126984127" r="2.0" style="fill:none; stroke:#000000aa; stroke-width:0.25" /><circle cx="0.634920634920635" cy="55.449735449735456" r="2.0" style="fill:none; stroke:#ff3366aa; stroke-width:0.25" /><circle cx="132.06349206349208" cy="20.740740740740744" r="2.0" style="fill:none; stroke:#ff3366aa; stroke-width:0.25" /><circle cx="133.12169312169314" cy="206.34920634920636" r="2.0" style="fill:none; stroke:#ff3366aa; stroke-width:0.25" /><circle cx="7.195767195767196" cy="212.91005291005294" r="2.0" style="fill:none; stroke:#ff3366aa; stroke-width:0.25" /><polyline points="12.063492063492065,53.968253968253975 11.428571428571429,54.179894179894184 10.793650793650794,54.179894179894184 10.15873015873016,54.39153439153439 9.523809523809524,54.39153439153439 8.88888888888889,54.39153439153439 8.253968253968255,54.60317460317461 7.6190476190476195,54.60317460317461 6.984126984126985,54.60317460317461 6.34920634920635,54.81481481481482 5.714285714285714,54.81481481481482 5.07936507936508,54.81481481481482 4.444444444444445,55.02645502645503 3.8095238095238098,55.02645502645503" style="fill:none; stroke:#001100; stroke-width:1.0" /><polyline points="3.174603174603175,66.66666666666667 2.9629629629629632,66.03174603174604 2.7513227513227516,65.3968253968254 2.7513227513227516,64.76190476190477 2.53968253968254,64.12698412698413 2.3280423280423284,63.492063492063494 2.3280423280423284,62.85714285714286 2.1164021164021167,62.22222222222223 1.6931216931216932,61.58730158730159 1.6931216931216932,60.952380952380956 1.4814814814814816,60.31746031746032 1.26984126984127,59.682539682539684 1.0582010582010584,59.04761904761905 0.8465608465608466,58.41269841269842" style="fill:none; stroke:#000011; stroke-width:1.0" /><polyline points="129.31216931216932,32.16931216931217 129.52380952380955,31.53439153439154 129.73544973544975,30.899470899470902 129.94708994708995,30.264550264550266 130.15873015873018,29.629629629629633 130.37037037037038,28.994708994708997 130.58201058201058,28.35978835978836 130.7936507936508,27.724867724867728 131.005291005291,27.089947089947092 131.21693121693121,26.455026455026456 131.21693121693121,25.820105820105823 131.42857142857144,25.185185185185187 131.64021164021165,24.55026455026455 131.85185185185185,23.915343915343918" style="fill:none; stroke:#001100; stroke-width:1.0" /><polyline points="120.63492063492065,22.857142857142858 121.26984126984128,22.857142857142858 121.90476190476191,22.645502645502646 122.53968253968254,22.433862433862437 123.17460317460318,22.222222222222225 123.80952380952382,22.222222222222225 124.44444444444446,22.010582010582013 125.07936507936509,21.7989417989418 125.71428571428572,21.7989417989418 126.34920634920636,21.58730158730159 126.98412698412699,21.58730158730159 127.61904761904763,21.375661375661377 128.25396825396825,21.375661375661377 128.88888888888889,21.164021164021165" style="fill:none; stroke:#000011; stroke-width:1.0" /><polyline points="121.6931216931217,206.984126984127 122.32804232804234,206.984126984127 122.96296296296298,206.7724867724868 123.59788359788361,206.7724867724868 124.23280423280424,206.7724867724868 124.86772486772487,206.7724867724868 125.5026455026455,206.7724867724868 126.13756613756615,206.7724867724868 126.77248677248679,206.7724867724868 127.40740740740742,206.7724867724868 128.04232804232805,206.7724867724868 128.67724867724868,206.56084656084658 129.31216931216932,206.56084656084658 129.94708994708995,206.56084656084658" style="fill:none; stroke:#001100; stroke-width:1.0" /><polyline points="130.58201058201058,194.70899470899474 130.7936507936508,195.34391534391537 130.7936507936508,195.978835978836 131.005291005291,196.61375661375664 131.21693121693121,197.24867724867727 131.42857142857144,197.8835978835979 131.42857142857144,198.51851851851853 131.64021164021165,199.15343915343917 131.85185185185185,199.7883597883598 132.06349206349208,200.42328042328043 132.06349206349208,201.05820105820106 132.27513227513228,201.6931216931217 132.27513227513228,202.32804232804233 132.4867724867725,202.962962962963" style="fill:none; stroke:#000011; stroke-width:1.0" /><polyline points="6.772486772486773,201.4814814814815 6.984126984126985,202.11640211640213 6.772486772486773,202.75132275132276 6.984126984126985,203.3862433862434 6.984126984126985,204.02116402116403 6.984126984126985,204.65608465608466 6.984126984126985,205.29100529100532 6.984126984126985,205.92592592592595 6.984126984126985,206.56084656084658 6.984126984126985,207.19576719576722 6.984126984126985,207.83068783068785 6.984126984126985,208.46560846560848 6.984126984126985,209.10052910052912 6.984126984126985,209.73544973544975" style="fill:none; stroke:#001100; stroke-width:1.0" /><polyline points="19.047619047619047,212.06349206349208 18.412698412698415,212.27513227513228 17.77777777777778,212.06349206349208 17.142857142857146,212.27513227513228 16.50793650793651,212.27513227513228 15.873015873015873,212.27513227513228 15.238095238095239,212.27513227513228 14.603174603174605,212.27513227513228 13.96825396825397,212.27513227513228 13.333333333333334,212.4867724867725 12.6984126984127,212.4867724867725 12.063492063492065,212.4867724867725 11.428571428571429,212.4867724867725 10.793650793650794,212.4867724867725 10.15873015873016,212.4867724867725" style="fill:none; stroke:#000011; stroke-width:1.0" /><polyline points="3.8095238095238098,55.02645502645503 -17.142857142857146,57.777777777777786" style="fill:none; stroke:#ffaa00; stroke-width:0.4" /><polyline points="0.8465608465608466,58.41269841269842 -4.867724867724868,38.095238095238095" style="fill:none; stroke:#aaff00; stroke-width:0.4" /><polyline points="131.85185185185185,23.915343915343918 137.989417989418,3.597883597883598" style="fill:none; stroke:#ffaa00; stroke-width:0.4" /><polyline points="128.88888888888889,21.164021164021165 149.62962962962965,16.931216931216934" style="fill:none; stroke:#aaff00; stroke-width:0.4" /><polyline points="129.94708994708995,206.56084656084658 151.11111111111111,205.50264550264552" style="fill:none; stroke:#ffaa00; stroke-width:0.4" /><polyline points="132.4867724867725,202.962962962963 137.14285714285717,223.49206349206352" style="fill:none; stroke:#aaff00; stroke-width:0.4" /><polyline points="6.984126984126985,209.73544973544975 7.6190476190476195,230.8994708994709" style="fill:none; stroke:#ffaa00; stroke-width:0.4" /><polyline points="10.15873015873016,212.4867724867725 -11.005291005291006,213.54497354497357" style="fill:none; stroke:#aaff00; stroke-width:0.4" /><circle cx="70.26455026455027" cy="119.36507936507937" r="1.0" style="fill:#444444; stroke-width:0" /><circle cx="48.042328042328045" cy="153.01587301587304" r="10.582010582010582" style="fill:#ff770022; stroke-width:0" /><circle cx="48.042328042328045" cy="153.01587301587304" r="1.0" style="fill:#ff7700; stroke-width:0" /></svg>