<?xml version="1.0" encoding="UTF-8" standalone="no"?><svg width="526.3492063492064" height="664.1269841269842" viewBox="-10 -10 195.44973544973547 241.3756613756614" xmlns="http://www.w3.org/2000/svg" xmlns:xlink="http://www.w3.org/1999/xlink"><polyline points="5.291005291005291,49.523809523809526 8.465608465608467,49.1005291005291 9.100529100529101,49.1005291005291 9.735449735449736,49.1005291005291 10.370370370370372,49.1005291005291 11.005291005291006,48.88888888888889 11.640211640211641,48.677248677248684 12.275132275132275,48.677248677248684 12.910052910052912,48.46560846560847 13.544973544973546,48.25396825396826 14.17989417989418,48.25396825396826 14.814814814814817,48.25396825396826 15.449735449735451,47.830687830687836 16.084656084656086,47.830687830687836 16.71957671957672,47.830687830687836 17.354497354497354,47.830687830687836 17.98941798941799,47.61904761904762 18.624338624338627,47.61904761904762 19.25925925925926,47.40740740740741 19.894179894179896,47.195767195767196 20.529100529100532,47.195767195767196 21.164021164021165,46.98412698412699 21.7989417989418,46.98412698412699 22.433862433862437,46.77248677248678 23.06878306878307,46.77248677248678 23.703703703703706,46.560846560846564 24.338624338624342,46.560846560846564 24.973544973544975,46.349206349206355 25.60846560846561,46.349206349206355 26.243386243386244,46.13756613756614 26.87830687830688,46.13756613756614 27.513227513227516,45.714285714285715 28.14814814814815,45.714285714285715 28.783068783068785,45.714285714285715 29.41798941798942,45.714285714285715 30.052910052910054,45.50264550264551 30.68783068783069,45.50264550264551 31.322751322751326,45.29100529100529 31.95767195767196,45.07936507936508 32.592592592592595,45.07936507936508 33.22751322751323,44.867724867724874 33.86243386243387,44.867724867724874 34.4973544973545,44.65608465608466 35.13227513227513,44.65608465608466 35.76719576719577,44.44444444444445 36.402116402116405,44.44444444444445 37.03703703703704,44.232804232804234 37.67195767195768,44.021164021164026 38.30687830687831,44.021164021164026 38.94179894179894,44.021164021164026 39.57671957671958,43.80952380952381 40.211640211640216,43.80952380952381 40.84656084656085,43.5978835978836 41.48148148148149,43.5978835978836 42.11640211640212,43.386243386243386 42.75132275132275,43.386243386243386 43.386243386243386,43.17460317460318 44.021164021164026,43.17460317460318 44.65608465608466,43.17460317460318 45.29100529100529,42.96296296296297 45.92592592592593,42.75132275132275 46.560846560846564,42.75132275132275 47.195767195767196,42.75132275132275 47.830687830687836,42.539682539682545 48.25396825396826,42.11640211640212 48.88888888888889,42.11640211640212 49.523809523809526,42.11640211640212 50.158730158730165,42.11640211640212 50.7936507936508,41.904761904761905 51.42857142857143,41.6931216931217 52.06349206349207,41.6931216931217 52.6984126984127,41.6931216931217 53.333333333333336,41.48148148148149 53.968253968253975,41.26984126984127 54.60317460317461,41.26984126984127 55.23809523809524,41.26984126984127 55.87301587301588,41.058201058201064 56.50793650793651,41.058201058201064 57.142857142857146,40.84656084656085 57.777777777777786,40.84656084656085 58.41269841269842,40.63492063492064 59.04761904761905,40.423280423280424 59.682539682539684,40.211640211640216 60.31746031746032,40.211640211640216 60.952380952380956,40.0 61.58730158730159,39.78835978835979 62.22222222222223,39.36507936507937 62.85714285714286,38.94179894179894 63.280423280423285,38.51851851851852 63.70370370370371,38.095238095238095 64.12698412698413,37.67195767195768 64.55026455026456,37.03703703703704 64.76190476190477,36.402116402116405 65.18518518518519,35.76719576719577 65.18518518518519,35.13227513227513 65.3968253968254,34.4973544973545 65.3968253968254,33.86243386243387 65.3968253968254,33.22751322751323 65.3968253968254,32.592592592592595 65.18518518518519,31.95767195767196 64.97354497354497,31.322751322751326 64.76190476190477,30.68783068783069 64.55026455026456,30.052910052910054 64.33862433862434,29.41798941798942 63.91534391534392,28.783068783068785 63.70370370370371,28.14814814814815 63.280423280423285,27.513227513227516 63.06878306878308,26.87830687830688 62.64550264550265,26.243386243386244 62.22222222222223,25.820105820105823 61.798941798941804,25.185185185185187 61.37566137566138,24.761904761904763 60.952380952380956,24.338624338624342 60.52910052910053,23.703703703703706 60.10582010582011,23.280423280423282 59.682539682539684,22.857142857142858 59.470899470899475,22.222222222222225 59.04761904761905,21.7989417989418 58.83597883597884,21.164021164021165 58.62433862433863,20.529100529100532 58.41269841269842,19.894179894179896 58.41269841269842,19.25925925925926 58.2010582010582,18.624338624338627 57.989417989417994,17.98941798941799 57.989417989417994,17.354497354497354 57.989417989417994,16.71957671957672 57.777777777777786,16.084656084656086 57.777777777777786,15.449735449735451 57.777777777777786,14.814814814814817 57.777777777777786,14.17989417989418 57.777777777777786,13.544973544973546 57.777777777777786,12.910052910052912 57.989417989417994,12.275132275132275 57.989417989417994,11.640211640211641 57.989417989417994,11.005291005291006 58.2010582010582,10.370370370370372 58.62433862433863,9.735449735449736 58.83597883597884,9.100529100529101 59.04761904761905,8.465608465608467 59.470899470899475,8.042328042328043 59.8941798941799,7.407407407407408 60.31746031746032,6.772486772486773 60.74074074074075,6.34920634920635 61.16402116402117,5.714285714285714 61.58730158730159,5.07936507936508 62.22222222222223,4.656084656084657 62.64550264550265,4.2328042328042335 63.06878306878308,3.8095238095238098 63.70370370370371,3.3862433862433865 64.12698412698413,2.9629629629629632 64.76190476190477,2.53968253968254 65.18518518518519,2.1164021164021167 65.82010582010582,1.9047619047619049 66.45502645502646,1.6931216931216932 67.08994708994709,1.26984126984127 67.72486772486774,1.0582010582010584 68.35978835978837,0.8465608465608466 68.994708994709,0.634920634920635 69.62962962962963,0.4232804232804233 70.26455026455027,0.4232804232804233 70.8994708994709,0.21164021164021166 71.53439153439155,0.21164021164021166 72.16931216931218,0.21164021164021166 72.80423280423281,0.4232804232804233 73.43915343915344,0.4232804232804233 74.07407407407408,0.4232804232804233 74.70899470899471,0.634920634920635 75.34391534391536,0.634920634920635 75.97883597883599,0.8465608465608466 76.61375661375662,1.0582010582010584 77.24867724867725,1.26984126984127 77.67195767195767,1.6931216931216932 78.30687830687832,1.9047619047619049 78.94179894179895,2.1164021164021167 79.57671957671958,2.53968253968254 80.21164021164022,2.9629629629629632 80.84656084656085,3.3862433862433865 81.48148148148148,3.8095238095238098 81.90476190476191,4.2328042328042335 82.32804232804233,4.656084656084657 82.96296296296298,5.07936507936508 83.3862433862434,5.502645502645503 83.80952380952381,5.9259259259259265 84.23280423280424,6.560846560846561 84.65608465608466,7.195767195767196 84.86772486772487,7.830687830687832 85.29100529100529,8.465608465608467 85.5026455026455,9.100529100529101 85.92592592592594,9.735449735449736 86.13756613756614,10.370370370370372 86.34920634920636,11.005291005291006 86.56084656084657,11.640211640211641 86.98412698412699,12.275132275132275 86.98412698412699,12.910052910052912 86.98412698412699,13.544973544973546 86.98412698412699,14.17989417989418 86.98412698412699,14.814814814814817 86.98412698412699,15.449735449735451 86.77248677248677,16.084656084656086 86.56084656084657,16.71957671957672 86.13756613756614,17.354497354497354 85.92592592592594,17.98941798941799 85.71428571428572,18.624338624338627 85.5026455026455,19.25925925925926 85.07936507936509,19.894179894179896 84.86772486772487,20.529100529100532 84.44444444444446,20.952380952380953 84.02116402116403,21.58730158730159 83.80952380952381,22.222222222222225 83.3862433862434,22.645502645502646 82.96296296296298,23.280423280423282 82.75132275132276,23.915343915343918 82.53968253968254,24.55026455026455 82.11640211640213,25.185185185185187 81.90476190476191,25.820105820105823 81.48148148148148,26.455026455026456 81.26984126984128,27.089947089947092 81.05820105820106,27.724867724867728 80.84656084656085,28.35978835978836 80.63492063492065,28.994708994708997 80.63492063492065,29.629629629629633 80.63492063492065,30.264550264550266 80.63492063492065,30.899470899470902 80.63492063492065,31.53439153439154 80.63492063492065,32.16931216931217 80.84656084656085,32.804232804232804 81.05820105820106,33.43915343915344 81.26984126984128,34.074074074074076 81.6931216931217,34.4973544973545 82.11640211640213,35.13227513227513 82.53968253968254,35.76719576719577 83.17460317460318,36.19047619047619 83.80952380952381,36.613756613756614 84.44444444444446,36.82539682539683 85.07936507936509,37.03703703703704 85.71428571428572,37.46031746031746 86.34920634920636,37.67195767195768 86.98412698412699,37.883597883597886 87.61904761904762,37.883597883597886 88.25396825396827,37.883597883597886 88.8888888888889,38.095238095238095 89.52380952380953,38.095238095238095 90.15873015873017,38.095238095238095 90.7936507936508,38.095238095238095 91.42857142857143,38.30687830687831 92.06349206349208,38.30687830687831 92.69841269841271,38.30687830687831 93.33333333333334,38.30687830687831 93.96825396825398,38.30687830687831 94.60317460317461,38.30687830687831 95.23809523809524,38.30687830687831 95.87301587301587,38.30687830687831 96.50793650793652,38.30687830687831 97.14285714285715,38.51851851851852 97.77777777777779,38.30687830687831 98.41269841269842,38.30687830687831 99.04761904761905,38.30687830687831 99.68253968253968,38.30687830687831 100.31746031746033,38.30687830687831 100.95238095238096,38.51851851851852 101.5873015873016,38.51851851851852 102.22222222222223,38.30687830687831 102.85714285714286,38.30687830687831 103.4920634920635,38.51851851851852 104.12698412698414,38.51851851851852 104.76190476190477,38.51851851851852 105.3968253968254,38.51851851851852 106.03174603174604,38.30687830687831 106.66666666666667,38.51851851851852 107.3015873015873,38.51851851851852 107.93650793650795,38.30687830687831 108.57142857142858,38.30687830687831 109.20634920634922,38.095238095238095 109.84126984126985,38.095238095238095 110.47619047619048,38.30687830687831 111.11111111111111,38.095238095238095 111.74603174603176,38.30687830687831 112.3809523809524,38.095238095238095 113.01587301587303,38.095238095238095 113.65079365079366,38.095238095238095 114.28571428571429,37.883597883597886 114.92063492063492,37.883597883597886 115.55555555555557,37.883597883597886 116.1904761904762,37.883597883597886 116.82539682539684,37.67195767195768 117.46031746031747,37.67195767195768 118.0952380952381,37.46031746031746 118.51851851851853,37.03703703703704 119.15343915343917,37.03703703703704 119.7883597883598,37.03703703703704 120.42328042328043,37.03703703703704 121.05820105820106,37.03703703703704 121.6931216931217,36.82539682539683 122.32804232804234,36.82539682539683 122.96296296296298,36.613756613756614 123.59788359788361,36.613756613756614 124.23280423280424,36.613756613756614 124.86772486772487,36.402116402116405 125.5026455026455,36.402116402116405 126.13756613756615,36.19047619047619 126.77248677248679,35.97883597883598 127.40740740740742,35.97883597883598 128.04232804232805,35.97883597883598 128.67724867724868,35.76719576719577 129.31216931216932,35.76719576719577 129.73544973544975,35.34391534391535 130.37037037037038,35.55555555555556 131.005291005291,35.34391534391535 131.64021164021165,35.13227513227513 132.27513227513228,35.13227513227513 132.9100529100529,34.920634920634924 133.54497354497354,34.70899470899471 134.17989417989418,34.4973544973545 134.81481481481484,34.4973544973545 135.44973544973547,34.28571428571429 136.0846560846561,34.28571428571429 136.71957671957674,34.074074074074076 137.35449735449737,34.074074074074076 137.7777777777778,33.65079365079365 138.41269841269843,33.65079365079365 139.04761904761907,33.43915343915344 139.6825396825397,33.22751322751323 140.31746031746033,33.01587301587302 140.95238095238096,32.804232804232804 141.5873015873016,32.592592592592595 142.22222222222223,32.38095238095239 142.85714285714286,32.16931216931217 143.4920634920635,31.95767195767196 144.12698412698413,31.95767195767196 148.57142857142858,30.68783068783069" style="fill:none; stroke:#cc0000; stroke-width:1.0"  /><polyline points="148.57142857142858,30.68783068783069 147.51322751322752,34.28571428571429 147.30158730158732,34.920634920634924 147.0899470899471,35.55555555555556 147.0899470899471,36.19047619047619 146.8783068783069,36.82539682539683 146.66666666666669,37.46031746031746 146.45502645502646,38.095238095238095 146.45502645502646,38.730158730158735 146.24338624338625,39.36507936507937 146.03174603174605,40.0 145.82010582010582,40.63492063492064 145.60846560846562,41.26984126984127 145.39682539682542,41.904761904761905 145.1851851851852,42.539682539682545 144.973544973545,43.17460317460318 144.76190476190476,43.80952380952381 144.55026455026456,44.44444444444445 144.33862433862436,45.07936507936508 144.12698412698413,45.714285714285715 143.91534391534393,46.349206349206355 143.91534391534393,46.98412698412699 143.70370370370372,47.61904761904762 143.4920634920635,48.25396825396826 143.2804232804233,48.88888888888889 143.0687830687831,49.523809523809526 142.85714285714286,50.158730158730165 142.64550264550266,50.7936507936508 142.43386243386246,51.42857142857143 142.22222222222223,52.06349206349207 142.01058201058203,52.6984126984127 141.7989417989418,53.333333333333336 141.5873015873016,53.968253968253975 141.3756613756614,54.60317460317461 141.16402116402116,55.23809523809524 140.95238095238096,55.87301587301588 140.74074074074076,56.50793650793651 140.52910052910053,57.142857142857146 140.31746031746033,57.777777777777786 140.10582010582013,58.41269841269842 139.8941798941799,59.04761904761905 139.6825396825397,59.682539682539684 139.47089947089947,60.31746031746032 139.25925925925927,60.952380952380956 139.25925925925927,61.58730158730159 139.04761904761907,62.22222222222223 138.83597883597884,62.85714285714286 138.62433862433863,63.492063492063494 138.41269841269843,64.12698412698413 138.2010582010582,64.76190476190477 138.2010582010582,65.3968253968254 137.989417989418,66.03174603174604 137.7777777777778,66.66666666666667 137.56613756613757,67.3015873015873 137.56613756613757,67.93650793650794 137.35449735449737,68.57142857142858 137.14285714285717,69.20634920634922 136.93121693121694,69.84126984126985 136.93121693121694,70.47619047619048 136.71957671957674,71.11111111111111 136.5079365079365,71.74603174603175 136.5079365079365,72.38095238095238 136.2962962962963,73.01587301587303 136.0846560846561,73.65079365079366 136.0846560846561,74.28571428571429 135.87301587301587,74.92063492063492 135.66137566137567,75.55555555555556 135.66137566137567,76.19047619047619 135.44973544973547,76.82539682539684 135.23809523809524,77.46031746031747 135.02645502645504,78.0952380952381 135.02645502645504,78.73015873015873 134.81481481481484,79.36507936507937 134.6031746031746,80.0 134.6031746031746,80.63492063492065 134.3915343915344,81.26984126984128 134.6031746031746,81.90476190476191 134.3915343915344,82.53968253968254 134.3915343915344,83.17460317460318 134.3915343915344,83.80952380952381 134.17989417989418,84.44444444444446 134.17989417989418,85.07936507936509 134.3915343915344,85.71428571428572 134.3915343915344,86.34920634920636 134.3915343915344,86.98412698412699 134.6031746031746,87.61904761904762 134.81481481481484,88.25396825396827 135.02645502645504,88.8888888888889 135.44973544973547,89.31216931216932 135.66137566137567,89.94708994708995 136.0846560846561,90.37037037037038 136.5079365079365,90.7936507936508 136.93121693121694,91.21693121693123 137.35449735449737,91.64021164021165 137.989417989418,92.06349206349208 138.62433862433863,92.27513227513228 139.25925925925927,92.4867724867725 139.8941798941799,92.69841269841271 140.52910052910053,92.69841269841271 141.16402116402116,92.91005291005291 141.7989417989418,92.91005291005291 142.43386243386246,92.91005291005291 143.0687830687831,92.69841269841271 143.70370370370372,92.69841269841271 144.33862433862436,92.4867724867725 144.973544973545,92.27513227513228 145.60846560846562,92.06349206349208 146.24338624338625,91.85185185185186 146.66666666666669,91.42857142857143 147.30158730158732,91.00529100529101 147.93650793650795,90.58201058201058 148.57142857142858,90.15873015873017 149.20634920634922,89.73544973544975 149.62962962962965,89.31216931216932 150.05291005291005,88.8888888888889 150.47619047619048,88.46560846560847 151.11111111111111,88.04232804232805 151.53439153439155,87.40740740740742 152.16931216931218,86.98412698412699 152.8042328042328,86.56084656084657 153.22751322751324,86.13756613756614 153.65079365079367,85.71428571428572 154.07407407407408,85.29100529100529 154.7089947089947,84.86772486772487 155.34391534391534,84.65608465608466 155.76719576719577,84.23280423280424 156.4021164021164,84.02116402116403 157.03703703703704,83.80952380952381 157.67195767195767,83.59788359788361 158.30687830687833,83.3862433862434 158.94179894179896,83.17460317460318 159.5767195767196,83.17460317460318 160.21164021164023,82.96296296296298 160.84656084656086,82.75132275132276 161.4814814814815,82.53968253968254 162.11640211640213,82.53968253968254 162.75132275132276,82.75132275132276 163.3862433862434,82.53968253968254 164.02116402116403,82.75132275132276 164.65608465608466,82.75132275132276 165.2910052910053,82.96296296296298 165.92592592592595,82.75132275132276 166.34920634920636,83.17460317460318 166.984126984127,83.3862433862434 167.61904761904762,83.59788359788361 168.25396825396825,83.80952380952381 168.67724867724868,84.23280423280424 169.31216931216932,84.65608465608466 169.73544973544975,85.07936507936509 170.15873015873018,85.5026455026455 170.58201058201058,86.13756613756614 171.005291005291,86.77248677248677 171.21693121693124,87.40740740740742 171.64021164021165,87.83068783068784 171.85185185185188,88.46560846560847 172.27513227513228,89.1005291005291 172.4867724867725,89.73544973544975 172.6984126984127,90.37037037037038 172.9100529100529,91.00529100529101 173.12169312169314,91.64021164021165 173.33333333333334,92.27513227513228 173.54497354497354,92.91005291005291 173.54497354497354,93.54497354497356 173.75661375661377,94.17989417989419 173.96825396825398,94.81481481481482 173.96825396825398,95.44973544973546 174.1798941798942,96.08465608465609 174.1798941798942,96.71957671957672 174.3915343915344,97.35449735449737 174.3915343915344,97.989417989418 174.6031746031746,98.62433862433863 174.6031746031746,99.25925925925927 174.6031746031746,99.8941798941799 174.6031746031746,100.52910052910053 174.81481481481484,101.16402116402116 174.81481481481484,101.79894179894181 174.81481481481484,102.43386243386244 174.81481481481484,103.06878306878308 174.81481481481484,103.70370370370371 174.81481481481484,104.33862433862434 174.81481481481484,104.97354497354497 175.02645502645504,105.60846560846562 175.02645502645504,106.24338624338625 174.81481481481484,106.87830687830689 174.81481481481484,107.51322751322752 174.81481481481484,108.14814814814815 174.81481481481484,108.78306878306879 174.81481481481484,109.41798941798943 174.6031746031746,110.05291005291006 174.6031746031746,110.6878306878307 174.6031746031746,111.32275132275133 174.3915343915344,111.95767195767196 174.3915343915344,112.5925925925926 174.1798941798942,113.22751322751324 174.1798941798942,113.86243386243387 174.1798941798942,114.49735449735451 173.96825396825398,115.13227513227514 173.75661375661377,115.76719576719577 173.75661375661377,116.4021164021164 173.75661375661377,117.03703703703705 173.54497354497354,117.67195767195768 173.12169312169314,118.30687830687832 172.9100529100529,118.94179894179895 172.4867724867725,119.36507936507937 172.06349206349208,120.00000000000001 171.64021164021165,120.63492063492065 171.21693121693124,121.26984126984128 170.7936507936508,121.6931216931217 170.37037037037038,122.11640211640213 169.73544973544975,122.53968253968254 169.10052910052912,122.96296296296298 168.46560846560848,123.3862433862434 167.83068783068785,123.59788359788361 167.19576719576722,123.80952380952382 166.56084656084658,124.02116402116403 165.92592592592595,124.23280423280424 165.2910052910053,124.44444444444446 164.65608465608466,124.44444444444446 164.02116402116403,124.44444444444446 163.3862433862434,124.44444444444446 162.75132275132276,124.44444444444446 162.11640211640213,124.44444444444446 161.4814814814815,124.23280423280424 160.84656084656086,124.23280423280424 160.21164021164023,124.02116402116403 159.5767195767196,123.80952380952382 158.94179894179896,123.59788359788361 158.30687830687833,123.3862433862434 157.67195767195767,122.96296296296298 157.03703703703704,122.75132275132276 156.4021164021164,122.32804232804234 155.978835978836,121.90476190476191 155.34391534391534,121.6931216931217 154.7089947089947,121.26984126984128 154.07407407407408,120.84656084656086 153.43915343915344,120.42328042328043 152.8042328042328,120.42328042328043 152.16931216931218,120.00000000000001 151.53439153439155,119.7883597883598 150.8994708994709,119.57671957671958 150.26455026455028,119.36507936507937 149.62962962962965,119.15343915343917 148.99470899470901,118.94179894179895 148.35978835978838,118.73015873015873 147.72486772486775,118.73015873015873 147.0899470899471,118.73015873015873 146.45502645502646,118.73015873015873 145.82010582010582,118.73015873015873 145.1851851851852,118.73015873015873 144.55026455026456,118.94179894179895 143.91534391534393,118.94179894179895 143.2804232804233,119.36507936507937 142.64550264550266,119.36507936507937 142.01058201058203,119.7883597883598 141.3756613756614,120.21164021164022 140.74074074074076,120.63492063492065 140.31746031746033,121.05820105820106 139.8941798941799,121.6931216931217 139.47089947089947,122.32804232804234 139.25925925925927,122.96296296296298 139.04761904761907,123.59788359788361 138.83597883597884,124.23280423280424 138.62433862433863,124.86772486772487 138.62433862433863,125.5026455026455 138.62433862433863,126.13756613756615 138.83597883597884,126.77248677248679 138.83597883597884,127.40740740740742 139.04761904761907,128.04232804232805 139.25925925925927,128.67724867724868 139.47089947089947,129.31216931216932 139.6825396825397,129.94708994708995 140.10582010582013,130.58201058201058 140.52910052910053,131.21693121693121 140.95238095238096,131.85185185185185 141.3756613756614,132.4867724867725 141.5873015873016,133.12169312169314 142.01058201058203,133.54497354497354 142.43386243386246,134.17989417989418 142.85714285714286,134.81481481481484 143.2804232804233,135.44973544973547 143.4920634920635,136.0846560846561 143.91534391534393,136.5079365079365 144.12698412698413,137.14285714285717 144.55026455026456,137.56613756613757 144.76190476190476,138.2010582010582 145.1851851851852,138.62433862433863 145.39682539682542,139.25925925925927 145.82010582010582,139.8941798941799 146.24338624338625,140.52910052910053 146.66666666666669,141.16402116402116 146.8783068783069,141.7989417989418 147.30158730158732,142.43386243386246 147.72486772486775,143.0687830687831 148.14814814814815,143.70370370370372 148.35978835978838,144.33862433862436 148.78306878306879,144.76190476190476 148.99470899470901,145.39682539682542 149.41798941798942,146.03174603174605 149.62962962962965,146.66666666666669 150.05291005291005,147.30158730158732 150.47619047619048,147.93650793650795 150.6878306878307,148.57142857142858 151.11111111111111,149.20634920634922 151.32275132275134,149.84126984126985 151.74603174603175,150.47619047619048 152.16931216931218,151.11111111111111 152.5925925925926,151.74603174603175 153.01587301587304,152.16931216931218 153.22751322751324,152.8042328042328 153.65079365079367,153.43915343915344 153.86243386243387,154.07407407407408 154.2857142857143,154.7089947089947 154.4973544973545,155.34391534391534 154.92063492063494,155.978835978836 155.34391534391534,156.61375661375664 157.67195767195767,160.42328042328043" style="fill:none; stroke:#999900; stroke-width:1.0"  /><polyline points="157.67195767195767,160.42328042328043 153.86243386243387,161.4814814814815 153.22751322751324,161.6931216931217 152.5925925925926,161.90476190476193 151.95767195767198,162.11640211640213 151.32275132275134,162.32804232804233 150.6878306878307,162.53968253968256 150.05291005291005,162.53968253968256 149.41798941798942,162.96296296296296 148.78306878306879,162.75132275132276 148.14814814814815,162.96296296296296 147.51322751322752,163.1746031746032 146.8783068783069,163.3862433862434 146.24338624338625,163.59788359788362 145.60846560846562,163.80952380952382 144.973544973545,163.80952380952382 144.33862433862436,164.02116402116403 143.70370370370372,164.23280423280426 143.0687830687831,164.44444444444446 142.43386243386246,164.65608465608466 141.7989417989418,164.8677248677249 141.16402116402116,164.8677248677249 140.52910052910053,165.0793650793651 139.8941798941799,165.2910052910053 139.25925925925927,165.50264550264552 138.62433862433863,165.71428571428572 137.989417989418,165.92592592592595 137.35449735449737,166.13756613756615 136.71957671957674,166.13756613756615 136.0846560846561,166.34920634920636 135.44973544973547,166.56084656084658 134.81481481481484,166.7724867724868 134.17989417989418,166.984126984127 133.54497354497354,167.19576719576722 132.9100529100529,167.19576719576722 132.27513227513228,167.40740740740742 131.64021164021165,167.61904761904762 131.005291005291,167.83068783068785 130.37037037037038,168.04232804232805 129.73544973544975,168.25396825396825 129.10052910052912,168.25396825396825 128.46560846560848,168.46560846560848 127.83068783068784,168.67724867724868 127.1957671957672,168.8888888888889 126.56084656084657,168.8888888888889 125.92592592592594,169.10052910052912 125.2910052910053,169.31216931216932 124.65608465608466,169.31216931216932 124.02116402116403,169.52380952380955 123.3862433862434,169.73544973544975 122.75132275132276,169.94708994708995 122.11640211640213,169.94708994708995 121.4814814814815,170.15873015873018 120.84656084656086,170.37037037037038 120.21164021164022,170.58201058201058 119.57671957671958,170.58201058201058 118.94179894179895,170.7936507936508 118.30687830687832,171.005291005291 117.67195767195768,171.21693121693124 117.03703703703705,171.42857142857144 116.4021164021164,171.64021164021165 115.76719576719577,171.64021164021165 115.13227513227514,171.85185185185188 114.49735449735451,171.85185185185188 113.86243386243387,172.06349206349208 113.22751322751324,172.06349206349208 112.5925925925926,172.27513227513228 111.95767195767196,172.4867724867725 111.32275132275133,172.4867724867725 110.6878306878307,172.6984126984127 110.05291005291006,172.9100529100529 109.41798941798943,172.9100529100529 108.78306878306879,173.12169312169314 108.14814814814815,173.12169312169314 107.51322751322752,173.33333333333334 106.87830687830689,173.54497354497354 106.24338624338625,173.54497354497354 105.60846560846562,173.75661375661377 104.97354497354497,173.96825396825398 104.33862433862434,174.1798941798942 103.70370370370371,174.3915343915344 103.06878306878308,174.6031746031746 102.43386243386244,175.02645502645504 101.79894179894181,175.23809523809524 101.16402116402116,175.66137566137567 100.74074074074075,176.0846560846561 100.10582010582011,176.50793650793653 99.68253968253968,176.93121693121694 99.25925925925927,177.35449735449737 98.83597883597885,177.7777777777778 98.41269841269842,178.2010582010582 97.989417989418,178.83597883597884 97.77777777777779,179.4708994708995 97.56613756613757,180.10582010582013 97.35449735449737,180.74074074074076 97.35449735449737,181.3756613756614 97.14285714285715,182.01058201058203 97.35449735449737,182.64550264550266 97.35449735449737,183.2804232804233 97.35449735449737,183.91534391534393 97.56613756613757,184.55026455026456 97.77777777777779,185.1851851851852 98.2010582010582,185.82010582010582 98.62433862433863,186.45502645502646 99.04761904761905,186.8783068783069 99.47089947089948,187.51322751322752 99.8941798941799,188.14814814814815 100.31746031746033,188.57142857142858 100.74074074074075,189.20634920634922 101.16402116402116,189.62962962962965 101.5873015873016,190.05291005291008 102.01058201058201,190.6878306878307 102.43386243386244,191.11111111111111 102.85714285714286,191.74603174603175 103.28042328042329,192.16931216931218 103.70370370370371,192.8042328042328 104.12698412698414,193.22751322751324 104.55026455026456,193.86243386243387 104.97354497354497,194.2857142857143 105.3968253968254,194.92063492063494 105.60846560846562,195.55555555555557 106.03174603174604,195.978835978836 106.45502645502647,196.61375661375664 106.66666666666667,197.24867724867727 107.0899470899471,197.8835978835979 107.3015873015873,198.51851851851853 107.72486772486774,199.15343915343917 107.93650793650795,199.7883597883598 108.14814814814815,200.42328042328043 108.35978835978837,201.05820105820106 108.57142857142858,201.6931216931217 108.57142857142858,202.32804232804233 108.78306878306879,202.962962962963 108.994708994709,203.59788359788362 109.20634920634922,204.23280423280426 109.20634920634922,204.8677248677249 109.20634920634922,205.50264550264552 109.20634920634922,206.13756613756615 109.20634920634922,206.7724867724868 109.20634920634922,207.40740740740742 108.994708994709,208.04232804232805 108.78306878306879,208.67724867724868 108.57142857142858,209.31216931216932 108.14814814814815,209.94708994708995 107.72486772486774,210.5820105820106 107.3015873015873,211.21693121693124 106.87830687830689,211.85185185185188 106.45502645502647,212.4867724867725 106.03174603174604,212.91005291005294 105.60846560846562,213.33333333333334 105.18518518518519,213.96825396825398 104.76190476190477,214.3915343915344 104.33862433862434,214.81481481481484 103.91534391534393,215.23809523809524 103.4920634920635,215.66137566137567 102.85714285714286,216.0846560846561 102.43386243386244,216.50793650793653 102.01058201058201,216.93121693121694 101.37566137566138,217.35449735449737 100.74074074074075,217.7777777777778 100.10582010582011,217.989417989418 99.68253968253968,218.41269841269843 99.04761904761905,218.62433862433863 98.41269841269842,219.04761904761907 97.77777777777779,219.25925925925927 97.14285714285715,219.4708994708995 96.50793650793652,219.6825396825397 95.87301587301587,219.8941798941799 95.23809523809524,220.10582010582013 94.60317460317461,220.31746031746033 93.96825396825398,220.31746031746033 93.33333333333334,220.31746031746033 92.69841269841271,220.52910052910053 92.06349206349208,220.74074074074076 91.42857142857143,220.74074074074076 90.7936507936508,220.95238095238096 90.15873015873017,220.95238095238096 89.52380952380953,220.95238095238096 88.8888888888889,220.95238095238096 88.25396825396827,220.95238095238096 87.61904761904762,220.95238095238096 86.98412698412699,220.74074074074076 86.34920634920636,220.74074074074076 85.71428571428572,220.74074074074076 85.07936507936509,220.52910052910053 84.44444444444446,220.52910052910053 83.80952380952381,220.31746031746033 83.17460317460318,220.31746031746033 82.53968253968254,220.10582010582013 81.90476190476191,219.8941798941799 81.26984126984128,219.6825396825397 80.63492063492065,219.4708994708995 80.0,219.04761904761907 79.36507936507937,218.83597883597886 78.73015873015873,218.41269841269843 78.0952380952381,217.989417989418 77.46031746031747,217.7777777777778 77.03703703703704,217.35449735449737 76.4021164021164,216.93121693121694 75.76719576719577,216.50793650793653 75.34391534391536,216.0846560846561 74.70899470899471,215.66137566137567 74.28571428571429,215.23809523809524 73.86243386243387,214.81481481481484 73.43915343915344,214.3915343915344 73.22751322751323,213.75661375661377 72.80423280423281,213.33333333333334 72.38095238095238,212.6984126984127 72.16931216931218,212.06349206349208 71.95767195767196,211.42857142857144 71.74603174603175,210.7936507936508 71.74603174603175,210.15873015873018 71.53439153439155,209.52380952380955 71.53439153439155,208.8888888888889 71.53439153439155,208.25396825396828 71.32275132275133,207.61904761904765 71.32275132275133,206.984126984127 71.53439153439155,206.34920634920636 71.53439153439155,205.71428571428572 71.53439153439155,205.0793650793651 71.53439153439155,204.44444444444446 71.74603174603175,203.80952380952382 71.95767195767196,203.1746031746032 72.16931216931218,202.53968253968256 72.38095238095238,201.90476190476193 72.5925925925926,201.2698412698413 72.80423280423281,200.63492063492066 73.01587301587303,200.00000000000003 73.43915343915344,199.36507936507937 73.65079365079366,198.73015873015873 74.07407407407408,198.0952380952381 74.28571428571429,197.46031746031747 74.70899470899471,196.82539682539684 75.13227513227514,196.1904761904762 75.34391534391536,195.55555555555557 75.76719576719577,195.13227513227514 75.97883597883599,194.4973544973545 76.4021164021164,194.07407407407408 76.82539682539684,193.43915343915344 77.03703703703704,192.8042328042328 77.46031746031747,192.16931216931218 77.67195767195767,191.53439153439155 78.0952380952381,190.8994708994709 78.30687830687832,190.26455026455028 78.51851851851852,189.62962962962965 78.73015873015873,188.99470899470901 78.73015873015873,188.35978835978838 78.94179894179895,187.72486772486775 78.94179894179895,187.08994708994712 78.73015873015873,186.45502645502646 78.73015873015873,185.82010582010582 78.51851851851852,185.1851851851852 78.51851851851852,184.55026455026456 78.30687830687832,183.91534391534393 77.88359788359789,183.2804232804233 77.46031746031747,182.64550264550266 77.03703703703704,182.01058201058203 76.61375661375662,181.5873015873016 76.19047619047619,181.16402116402116 75.55555555555556,180.74074074074076 74.92063492063492,180.31746031746033 74.28571428571429,180.10582010582013 73.65079365079366,179.8941798941799 73.01587301587303,179.6825396825397 72.38095238095238,179.4708994708995 71.74603174603175,179.25925925925927 71.11111111111111,179.25925925925927 70.47619047619048,179.25925925925927 69.84126984126985,179.04761904761907 69.20634920634922,179.04761904761907 68.57142857142858,179.04761904761907 67.93650793650794,179.04761904761907 67.3015873015873,179.04761904761907 66.66666666666667,179.04761904761907 66.03174603174604,179.04761904761907 65.3968253968254,179.04761904761907 64.76190476190477,179.04761904761907 64.12698412698413,179.04761904761907 63.492063492063494,179.04761904761907 62.85714285714286,179.25925925925927 62.22222222222223,179.25925925925927 61.58730158730159,179.25925925925927 60.952380952380956,179.4708994708995 60.31746031746032,179.4708994708995 59.682539682539684,179.6825396825397 59.04761904761905,179.6825396825397 58.41269841269842,179.8941798941799 57.777777777777786,180.10582010582013 57.142857142857146,180.10582010582013 56.50793650793651,180.31746031746033 55.87301587301588,180.52910052910053 55.23809523809524,180.74074074074076 54.60317460317461,180.74074074074076 53.968253968253975,180.95238095238096 53.333333333333336,181.16402116402116 52.6984126984127,181.3756613756614 52.06349206349207,181.5873015873016 51.42857142857143,181.5873015873016 50.7936507936508,181.79894179894183 50.158730158730165,182.01058201058203 49.523809523809526,182.22222222222223 48.88888888888889,182.43386243386246 48.25396825396826,182.43386243386246 47.830687830687836,182.85714285714286 47.195767195767196,183.0687830687831 46.560846560846564,183.0687830687831 45.92592592592593,183.2804232804233 45.29100529100529,183.4920634920635 44.65608465608466,183.70370370370372 44.021164021164026,183.91534391534393 43.386243386243386,183.91534391534393 42.75132275132275,184.12698412698415 42.11640211640212,184.33862433862436 41.48148148148149,184.55026455026456 40.84656084656085,184.55026455026456 40.211640211640216,184.7619047619048 39.57671957671958,184.973544973545 38.94179894179894,184.973544973545 38.30687830687831,185.1851851851852 37.67195767195768,185.1851851851852 37.03703703703704,185.39682539682542 36.402116402116405,185.39682539682542 35.76719576719577,185.60846560846562 35.13227513227513,185.82010582010582 34.4973544973545,185.82010582010582 33.86243386243387,186.03174603174605 33.22751322751323,186.03174603174605 32.592592592592595,186.24338624338625 31.95767195767196,186.45502645502646 31.322751322751326,186.45502645502646 30.68783068783069,186.66666666666669 30.052910052910054,186.66666666666669 29.41798941798942,186.8783068783069 28.783068783068785,186.8783068783069 28.14814814814815,187.08994708994712 27.513227513227516,187.08994708994712 26.87830687830688,187.30158730158732 26.243386243386244,187.30158730158732 25.60846560846561,187.51322751322752 24.973544973544975,187.51322751322752 24.338624338624342,187.72486772486775 23.703703703703706,187.72486772486775 23.06878306878307,187.93650793650795 22.433862433862437,187.93650793650795 21.7989417989418,187.93650793650795 21.164021164021165,188.14814814814815 20.529100529100532,188.35978835978838 19.894179894179896,188.35978835978838 19.25925925925926,188.57142857142858 18.624338624338627,188.57142857142858 17.98941798941799,188.57142857142858 17.354497354497354,188.78306878306879 16.71957671957672,188.78306878306879 16.084656084656086,188.99470899470901 15.449735449735451,188.99470899470901 14.814814814814817,189.20634920634922 14.17989417989418,189.20634920634922 13.544973544973546,189.41798941798945 12.910052910052912,189.62962962962965 12.275132275132275,189.84126984126985 8.465608465608467,190.47619047619048" style="fill:none; stroke:#00aa99; stroke-width:1.0"  /><polyline points="8.465608465608467,190.47619047619048 8.677248677248677,186.66666666666669 8.88888888888889,186.03174603174605 8.88888888888889,185.39682539682542 8.88888888888889,184.7619047619048 8.88888888888889,184.12698412698415 9.100529100529101,183.4920634920635 9.100529100529101,182.85714285714286 9.100529100529101,182.22222222222223 9.100529100529101,181.5873015873016 9.100529100529101,180.95238095238096 9.100529100529101,180.31746031746033 9.100529100529101,179.6825396825397 9.100529100529101,179.04761904761907 9.100529100529101,178.41269841269843 9.100529100529101,177.7777777777778 9.100529100529101,177.14285714285717 9.100529100529101,176.50793650793653 9.100529100529101,175.87301587301587 9.100529100529101,175.23809523809524 8.88888888888889,174.6031746031746 8.88888888888889,173.96825396825398 8.88888888888889,173.33333333333334 8.88888888888889,172.6984126984127 8.88888888888889,172.06349206349208 8.88888888888889,171.42857142857144 8.88888888888889,170.7936507936508 8.677248677248677,170.15873015873018 8.677248677248677,169.52380952380955 8.677248677248677,168.8888888888889 8.677248677248677,168.25396825396825 8.465608465608467,167.61904761904762 8.465608465608467,166.984126984127 8.465608465608467,166.34920634920636 8.465608465608467,165.71428571428572 8.253968253968255,165.0793650793651 8.253968253968255,164.44444444444446 8.042328042328043,163.80952380952382 8.042328042328043,163.1746031746032 8.042328042328043,162.53968253968256 7.830687830687832,161.90476190476193 7.830687830687832,161.2698412698413 7.6190476190476195,160.63492063492066 7.6190476190476195,160.0 7.407407407407408,159.36507936507937 7.407407407407408,158.73015873015873 7.195767195767196,158.0952380952381 7.195767195767196,157.46031746031747 6.984126984126985,156.82539682539684 6.772486772486773,156.1904761904762 6.772486772486773,155.55555555555557 6.560846560846561,154.92063492063494 6.560846560846561,154.2857142857143 6.34920634920635,153.65079365079367 6.137566137566138,153.01587301587304 6.137566137566138,152.38095238095238 5.714285714285714,151.95767195767198 5.714285714285714,151.32275132275134 5.502645502645503,150.6878306878307 5.291005291005291,150.05291005291005 5.291005291005291,149.41798941798942 5.07936507936508,148.78306878306879 4.867724867724868,148.14814814814815 4.656084656084657,147.51322751322752 4.444444444444445,146.8783068783069 4.444444444444445,146.24338624338625 4.021164021164021,145.60846560846562 4.021164021164021,144.973544973545 3.8095238095238098,144.33862433862436 3.597883597883598,143.70370370370372 3.3862433862433865,143.0687830687831 3.3862433862433865,142.43386243386246 3.174603174603175,141.7989417989418 3.174603174603175,141.16402116402116 3.174603174603175,140.52910052910053 3.174603174603175,139.8941798941799 3.3862433862433865,139.25925925925927 3.597883597883598,138.62433862433863 4.021164021164021,137.989417989418 4.444444444444445,137.35449735449737 4.867724867724868,136.71957671957674 5.291005291005291,136.2962962962963 5.9259259259259265,135.87301587301587 6.560846560846561,135.44973544973547 7.195767195767196,135.23809523809524 7.6190476190476195,134.81481481481484 8.042328042328043,135.23809523809524 8.677248677248677,135.23809523809524 9.100529100529101,134.81481481481484 9.735449735449736,134.81481481481484 10.370370370370372,135.02645502645504 11.005291005291006,135.02645502645504 11.640211640211641,135.02645502645504 12.275132275132275,135.23809523809524 12.910052910052912,135.23809523809524 13.544973544973546,135.23809523809524 14.17989417989418,135.23809523809524 14.814814814814817,135.44973544973547 15.449735449735451,135.66137566137567 16.084656084656086,135.87301587301587 16.71957671957672,136.0846560846561 17.354497354497354,136.2962962962963 17.98941798941799,136.5079365079365 18.624338624338627,136.71957671957674 19.25925925925926,136.71957671957674 19.894179894179896,136.71957671957674 20.529100529100532,136.71957671957674 21.164021164021165,136.93121693121694 21.7989417989418,137.14285714285717 22.433862433862437,137.14285714285717 23.06878306878307,137.14285714285717 23.703703703703706,137.35449735449737 24.338624338624342,137.35449735449737 24.973544973544975,137.35449735449737 25.60846560846561,137.35449735449737 26.243386243386244,137.35449735449737 26.87830687830688,137.35449735449737 27.513227513227516,137.14285714285717 28.14814814814815,137.14285714285717 28.783068783068785,136.93121693121694 29.41798941798942,136.93121693121694 30.052910052910054,136.93121693121694 30.68783068783069,136.71957671957674 31.322751322751326,136.5079365079365 31.95767195767196,136.0846560846561 32.592592592592595,135.66137566137567 33.22751322751323,135.66137566137567 33.65079365079365,135.23809523809524 34.074074074074076,134.81481481481484 34.4973544973545,134.3915343915344 35.13227513227513,133.96825396825398 35.55555555555556,133.54497354497354 36.19047619047619,133.12169312169314 36.613756613756614,132.4867724867725 37.03703703703704,131.85185185185185 37.248677248677254,131.21693121693121 37.67195767195768,130.58201058201058 37.883597883597886,129.94708994708995 38.30687830687831,129.31216931216932 38.51851851851852,128.67724867724868 38.51851851851852,128.04232804232805 38.730158730158735,127.40740740740742 38.94179894179894,126.77248677248679 38.94179894179894,126.13756613756615 38.94179894179894,125.5026455026455 39.15343915343916,124.86772486772487 39.15343915343916,124.23280423280424 39.15343915343916,123.59788359788361 39.15343915343916,122.96296296296298 39.15343915343916,122.32804232804234 39.15343915343916,121.6931216931217 39.36507936507937,121.05820105820106 39.15343915343916,120.42328042328043 39.15343915343916,119.7883597883598 39.15343915343916,119.15343915343917 39.15343915343916,118.51851851851853 38.94179894179894,117.88359788359789 38.94179894179894,117.24867724867725 38.730158730158735,116.61375661375662 38.51851851851852,115.97883597883599 38.30687830687831,115.34391534391536 38.30687830687831,114.70899470899472 38.095238095238095,114.07407407407408 38.095238095238095,113.43915343915344 37.67195767195768,112.80423280423281 37.46031746031746,112.16931216931218 37.248677248677254,111.53439153439155 37.03703703703704,110.89947089947091 36.82539682539683,110.26455026455027 36.613756613756614,109.62962962962963 36.19047619047619,108.994708994709 35.97883597883598,108.35978835978837 35.76719576719577,107.72486772486774 35.55555555555556,107.0899470899471 35.13227513227513,106.45502645502647 34.70899470899471,105.82010582010582 34.28571428571429,105.18518518518519 34.074074074074076,104.55026455026456 33.65079365079365,104.12698412698414 33.22751322751323,103.4920634920635 32.804232804232804,102.85714285714286 32.38095238095239,102.43386243386244 31.95767195767196,102.01058201058201 31.322751322751326,101.5873015873016 30.68783068783069,101.16402116402116 30.052910052910054,100.95238095238096 29.629629629629633,100.52910052910053 28.994708994708997,100.31746031746033 28.35978835978836,100.10582010582011 27.724867724867728,99.8941798941799 27.089947089947092,99.68253968253968 26.455026455026456,99.47089947089948 25.820105820105823,99.47089947089948 25.185185185185187,99.47089947089948 24.55026455026455,99.47089947089948 23.915343915343918,99.47089947089948 23.280423280423282,99.47089947089948 22.645502645502646,99.47089947089948 22.010582010582013,99.47089947089948 21.375661375661377,99.68253968253968 20.740740740740744,99.68253968253968 20.105820105820108,99.8941798941799 19.47089947089947,99.8941798941799 18.83597883597884,100.10582010582011 18.201058201058203,100.31746031746033 17.566137566137566,100.52910052910053 16.931216931216934,100.74074074074075 16.296296296296298,100.95238095238096 15.661375661375663,101.16402116402116 15.026455026455027,101.37566137566138 14.391534391534393,101.5873015873016 13.756613756613758,102.01058201058201 13.121693121693122,102.43386243386244 12.6984126984127,102.85714285714286 12.063492063492065,103.28042328042329 11.428571428571429,103.4920634920635 10.793650793650794,103.91534391534393 10.15873015873016,104.12698412698414 9.523809523809524,104.33862433862434 8.88888888888889,104.55026455026456 8.253968253968255,104.76190476190477 7.6190476190476195,104.55026455026456 6.984126984126985,104.55026455026456 6.34920634920635,104.55026455026456 5.714285714285714,104.33862433862434 5.07936507936508,104.33862433862434 4.444444444444445,104.12698412698414 3.8095238095238098,103.91534391534393 3.174603174603175,103.4920634920635 2.53968253968254,103.06878306878308 2.1164021164021167,102.64550264550266 1.6931216931216932,102.22222222222223 1.26984126984127,101.5873015873016 1.0582010582010584,100.95238095238096 0.634920634920635,100.31746031746033 0.4232804232804233,99.68253968253968 0.21164021164021166,99.04761904761905 0.21164021164021166,98.41269841269842 0.21164021164021166,97.77777777777779 0.21164021164021166,97.14285714285715 0.21164021164021166,96.50793650793652 0.21164021164021166,95.87301587301587 0.21164021164021166,95.23809523809524 0.21164021164021166,94.60317460317461 0.4232804232804233,93.96825396825398 0.634920634920635,93.33333333333334 0.634920634920635,92.69841269841271 0.8465608465608466,92.06349206349208 1.0582010582010584,91.42857142857143 1.0582010582010584,90.7936507936508 1.26984126984127,90.15873015873017 1.4814814814814816,89.52380952380953 1.6931216931216932,88.8888888888889 1.9047619047619049,88.25396825396827 2.1164021164021167,87.61904761904762 2.1164021164021167,86.98412698412699 2.3280423280423284,86.34920634920636 2.53968253968254,85.71428571428572 2.53968253968254,85.07936507936509 2.7513227513227516,84.44444444444446 2.9629629629629632,83.80952380952381 2.9629629629629632,83.17460317460318 3.174603174603175,82.53968253968254 2.9629629629629632,81.90476190476191 3.174603174603175,81.26984126984128 3.174603174603175,80.63492063492065 3.174603174603175,80.0 3.3862433862433865,79.36507936507937 3.3862433862433865,78.73015873015873 3.597883597883598,78.0952380952381 3.597883597883598,77.46031746031747 3.597883597883598,76.82539682539684 3.8095238095238098,76.19047619047619 3.8095238095238098,75.55555555555556 4.021164021164021,74.92063492063492 4.021164021164021,74.28571428571429 4.021164021164021,73.65079365079366 4.2328042328042335,73.01587301587303 4.2328042328042335,72.38095238095238 4.2328042328042335,71.74603174603175 4.444444444444445,71.11111111111111 4.444444444444445,70.47619047619048 4.444444444444445,69.84126984126985 4.656084656084657,69.20634920634922 4.656084656084657,68.57142857142858 4.656084656084657,67.93650793650794 4.867724867724868,67.3015873015873 5.07936507936508,66.66666666666667 5.07936507936508,66.03174603174604 5.07936507936508,65.3968253968254 5.07936507936508,64.76190476190477 5.07936507936508,64.12698412698413 5.291005291005291,63.492063492063494 5.291005291005291,62.85714285714286 5.291005291005291,62.22222222222223 5.291005291005291,61.58730158730159 5.291005291005291,60.952380952380956 5.291005291005291,60.31746031746032 5.291005291005291,59.682539682539684 5.291005291005291,59.04761904761905 5.291005291005291,58.41269841269842 5.291005291005291,57.777777777777786 5.502645502645503,57.142857142857146 5.291005291005291,56.50793650793651 5.502645502645503,55.87301587301588 5.291005291005291,55.23809523809524 5.291005291005291,54.60317460317461 5.291005291005291,53.968253968253975 5.291005291005291,53.333333333333336 5.291005291005291,49.523809523809526" style="fill:none; stroke:#3300bb; stroke-width:1.0"  /><circle cx="5.291005291005291" cy="49.523809523809526" r="2.0" style="fill:none; stroke:#000000aa; stroke-width:0.25" /><circle cx="148.57142857142858" cy="30.68783068783069" r="2.0" style="fill:none; stroke:#000000aa; stroke-width:0.25" /><circle cx="157.67195767195767" cy="160.42328042328043" r="2.0" style="fill:none; stroke:#000000aa; stroke-width:0.25" /><circle cx="8.465608465608467" cy="190.47619047619048" r="2.0" style="fill:none; stroke:#000000aa; stroke-width:0.25" /><circle cx="5.502645502645503" cy="50.158730158730165" r="2.0" style="fill:none; stroke:#ff3366aa; stroke-width:0.25" /><circle cx="147.30158730158732" cy="31.322751322751326" r="2.0" style="fill:none; stroke:#ff3366aa; stroke-width:0.25" /><circle cx="156.61375661375664" cy="160.0" r="2.0" style="fill:none; stroke:#ff3366aa; stroke-width:0.25" /><circle cx="8.88888888888889" cy="189.84126984126985" r="2.0" style="fill:none; stroke:#ff3366aa; stroke-width:0.25" /><polyline points="16.71957671957672,47.830687830687836 16.084656084656086,47.830687830687836 15.449735449735451,47.830687830687836 14.814814814814817,48.25396825396826 14.17989417989418,48.25396825396826 13.544973544973546,48.25396825396826 12.910052910052912,48.46560846560847 12.275132275132275,48.677248677248684 11.640211640211641,48.677248677248684 11.005291005291006,48.88888888888889 10.370370370370372,49.1005291005291 9.735449735449736,49.1005291005291 9.100529100529101,49.1005291005291 8.465608465608467,49.1005291005291" style="fill:none; stroke:#001100; stroke-width:1.0" /><polyline points="5.291005291005291,61.58730158730159 5.291005291005291,60.952380952380956 5.291005291005291,60.31746031746032 5.291005291005291,59.682539682539684 5.291005291005291,59.04761904761905 5.291005291005291,58.41269841269842 5.291005291005291,57.777777777777786 5.502645502645503,57.142857142857146 5.291005291005291,56.50793650793651 5.502645502645503,55.87301587301588 5.291005291005291,55.23809523809524 5.291005291005291,54.60317460317461 5.291005291005291,53.968253968253975 5.291005291005291,53.333333333333336" style="fill:none; stroke:#000011; stroke-width:1.0" /><polyline points="145.1851851851852,42.539682539682545 145.39682539682542,41.904761904761905 145.60846560846562,41.26984126984127 145.82010582010582,40.63492063492064 146.03174603174605,40.0 146.24338624338625,39.36507936507937 146.45502645502646,38.730158730158735 146.45502645502646,38.095238095238095 146.66666666666669,37.46031746031746 146.8783068783069,36.82539682539683 147.0899470899471,36.19047619047619 147.0899470899471,35.55555555555556 147.30158730158732,34.920634920634924 147.51322751322752,34.28571428571429" style="fill:none; stroke:#001100; stroke-width:1.0" /><polyline points="136.0846560846561,34.28571428571429 136.71957671957674,34.074074074074076 137.35449735449737,34.074074074074076 137.7777777777778,33.65079365079365 138.41269841269843,33.65079365079365 139.04761904761907,33.43915343915344 139.6825396825397,33.22751322751323 140.31746031746033,33.01587301587302 140.95238095238096,32.804232804232804 141.5873015873016,32.592592592592595 142.22222222222223,32.38095238095239 142.85714285714286,32.16931216931217 143.4920634920635,31.95767195767196 144.12698412698413,31.95767195767196" style="fill:none; stroke:#000011; stroke-width:1.0" /><polyline points="145.60846560846562,163.80952380952382 146.24338624338625,163.59788359788362 146.8783068783069,163.3862433862434 147.51322751322752,163.1746031746032 148.14814814814815,162.96296296296296 148.78306878306879,162.75132275132276 149.41798941798942,162.96296296296296 150.05291005291005,162.53968253968256 150.6878306878307,162.53968253968256 151.32275132275134,162.32804232804233 151.95767195767198,162.11640211640213 152.5925925925926,161.90476190476193 153.22751322751324,161.6931216931217 153.86243386243387,161.4814814814815" style="fill:none; stroke:#001100; stroke-width:1.0" /><polyline points="151.32275132275134,149.84126984126985 151.74603174603175,150.47619047619048 152.16931216931218,151.11111111111111 152.5925925925926,151.74603174603175 153.01587301587304,152.16931216931218 153.22751322751324,152.8042328042328 153.65079365079367,153.43915343915344 153.86243386243387,154.07407407407408 154.2857142857143,154.7089947089947 154.4973544973545,155.34391534391534 154.92063492063494,155.978835978836 155.34391534391534,156.61375661375664" style="fill:none; stroke:#000011; stroke-width:1.0" /><polyline points="9.100529100529101,178.41269841269843 9.100529100529101,179.04761904761907 9.100529100529101,179.6825396825397 9.100529100529101,180.31746031746033 9.100529100529101,180.95238095238096 9.100529100529101,181.5873015873016 9.100529100529101,182.22222222222223 9.100529100529101,182.85714285714286 9.100529100529101,183.4920634920635 8.88888888888889,184.12698412698415 8.88888888888889,184.7619047619048 8.88888888888889,185.39682539682542 8.88888888888889,186.03174603174605 8.677248677248677,186.66666666666669" style="fill:none; stroke:#001100; stroke-width:1.0" /><polyline points="20.529100529100532,188.35978835978838 19.894179894179896,188.35978835978838 19.25925925925926,188.57142857142858 18.624338624338627,188.57142857142858 17.98941798941799,188.57142857142858 17.354497354497354,188.78306878306879 16.71957671957672,188.78306878306879 16.084656084656086,188.99470899470901 15.449735449735451,188.99470899470901 14.814814814814817,189.20634920634922 14.17989417989418,189.20634920634922 13.544973544973546,189.41798941798945 12.910052910052912,189.62962962962965 12.275132275132275,189.84126984126985" style="fill:none; stroke:#000011; stroke-width:1.0" /><polyline points="8.465608465608467,49.1005291005291 -12.486772486772487,52.27513227513228" style="fill:none; stroke:#ffaa00; stroke-width:0.4" /><polyline points="5.291005291005291,53.333333333333336 5.291005291005291,32.16931216931217" style="fill:none; stroke:#aaff00; stroke-width:0.4" /><polyline points="147.51322751322752,34.28571428571429 153.22751322751324,13.96825396825397" style="fill:none; stroke:#ffaa00; stroke-width:0.4" /><polyline points="144.12698412698413,31.95767195767196 164.44444444444446,26.031746031746035" style="fill:none; stroke:#aaff00; stroke-width:0.4" /><polyline points="153.86243386243387,161.4814814814815 174.1798941798942,155.76719576719577" style="fill:none; stroke:#ffaa00; stroke-width:0.4" /><polyline points="155.34391534391534,156.61375661375664 166.13756613756615,174.81481481481484" style="fill:none; stroke:#aaff00; stroke-width:0.4" /><polyline points="8.677248677248677,186.66666666666669 7.6190476190476195,207.83068783068785" style="fill:none; stroke:#ffaa00; stroke-width:0.4" /><polyline points="12.275132275132275,189.84126984126985 -8.465608465608467,193.65079365079367" style="fill:none; stroke:#aaff00; stroke-width:0.4" /><circle cx="81.48148148148148" cy="110.6878306878307" r="1.0" style="fill:#444444; stroke-width:0" /><circle cx="83.3862433862434" cy="88.8888888888889" r="10.582010582010582" style="fill:#ff770022; stroke-width:0" /><circle cx="83.3862433862434" cy="88.8888888888889" r="1.0" style="fill:#ff7700; stroke-width:0" /></svg>