<?xml version="1.0" encoding="UTF-8" standalone="no"?><svg width="485.7142857142857" height="566.984126984127" viewBox="-10 -10 181.90476190476193 208.99470899470901" xmlns="http://www.w3.org/2000/svg" xmlns:xlink="http://www.w3.org/1999/xlink"><polyline points="84.44444444444446,8.677248677248677 86.98412698412699,12.6984126984127 87.40740740740742,13.333333333333334 87.83068783068784,13.96825396825397 88.04232804232805,14.603174603174605 88.46560846560847,15.026455026455027 88.8888888888889,15.661375661375663 89.31216931216932,16.296296296296298 89.73544973544975,16.931216931216934 90.15873015873017,17.566137566137566 90.37037037037038,18.201058201058203 90.7936507936508,18.624338624338627 91.21693121693123,19.25925925925926 91.42857142857143,19.894179894179896 91.85185185185186,20.31746031746032 92.27513227513228,20.952380952380953 92.69841269841271,21.58730158730159 93.12169312169313,22.010582010582013 93.54497354497356,22.645502645502646 94.17989417989419,23.06878306878307 94.60317460317461,23.703703703703706 95.23809523809524,24.12698412698413 95.66137566137567,24.55026455026455 96.08465608465609,24.973544973544975 96.50793650793652,25.3968253968254 97.14285714285715,25.820105820105823 97.77777777777779,26.243386243386244 98.41269841269842,26.666666666666668 99.04761904761905,27.089947089947092 99.68253968253968,27.301587301587304 100.31746031746033,27.724867724867728 100.95238095238096,27.93650793650794 101.5873015873016,28.14814814814815 102.22222222222223,28.35978835978836 102.85714285714286,28.783068783068785 103.4920634920635,28.783068783068785 104.12698412698414,28.783068783068785 104.76190476190477,28.783068783068785 105.3968253968254,28.994708994708997 106.03174603174604,28.783068783068785 106.66666666666667,28.571428571428573 107.3015873015873,28.35978835978836 107.93650793650795,28.35978835978836 108.35978835978837,27.93650793650794 108.994708994709,27.513227513227516 109.41798941798943,27.089947089947092 109.84126984126985,26.455026455026456 110.26455026455027,25.820105820105823 110.47619047619048,25.185185185185187 110.6878306878307,24.55026455026455 110.89947089947091,23.915343915343918 111.11111111111111,23.280423280423282 111.11111111111111,22.645502645502646 111.32275132275133,22.010582010582013 111.32275132275133,21.375661375661377 111.32275132275133,20.740740740740744 111.32275132275133,20.105820105820108 111.11111111111111,19.47089947089947 111.11111111111111,18.83597883597884 111.11111111111111,18.201058201058203 110.89947089947091,17.566137566137566 110.89947089947091,16.931216931216934 110.6878306878307,16.296296296296298 110.47619047619048,15.661375661375663 110.26455026455027,15.026455026455027 110.05291005291006,14.391534391534393 110.05291005291006,13.756613756613758 109.84126984126985,13.121693121693122 109.62962962962963,12.486772486772487 109.41798941798943,11.851851851851853 109.41798941798943,11.216931216931219 109.41798941798943,10.582010582010582 109.41798941798943,9.947089947089948 109.41798941798943,9.312169312169313 109.62962962962963,8.677248677248677 109.62962962962963,8.042328042328043 109.84126984126985,7.407407407407408 109.84126984126985,6.772486772486773 110.05291005291006,6.137566137566138 110.47619047619048,5.502645502645503 110.6878306878307,4.867724867724868 111.11111111111111,4.444444444444445 111.53439153439155,3.8095238095238098 111.95767195767196,3.3862433862433865 112.3809523809524,2.9629629629629632 112.80423280423281,2.53968253968254 113.22751322751324,2.1164021164021167 113.65079365079366,1.6931216931216932 114.28571428571429,1.4814814814814816 114.70899470899472,1.0582010582010584 115.34391534391536,0.8465608465608466 115.97883597883599,0.8465608465608466 116.61375661375662,0.634920634920635 117.24867724867725,0.4232804232804233 117.88359788359789,0.21164021164021166 118.51851851851853,0.21164021164021166 119.15343915343917,0.21164021164021166 119.7883597883598,0.21164021164021166 120.42328042328043,0.21164021164021166 121.05820105820106,0.21164021164021166 121.6931216931217,0.21164021164021166 122.32804232804234,0.21164021164021166 122.96296296296298,0.4232804232804233 123.59788359788361,0.4232804232804233 124.23280423280424,0.634920634920635 124.86772486772487,0.634920634920635 125.5026455026455,0.8465608465608466 126.13756613756615,1.0582010582010584 126.77248677248679,1.26984126984127 127.40740740740742,1.4814814814814816 128.04232804232805,1.6931216931216932 128.67724867724868,1.9047619047619049 129.31216931216932,1.9047619047619049 129.94708994708995,2.3280423280423284 130.58201058201058,2.53968253968254 131.21693121693121,2.9629629629629632 131.85185185185185,3.3862433862433865 132.4867724867725,3.597883597883598 133.12169312169314,4.021164021164021 133.75661375661377,4.444444444444445 134.17989417989418,4.867724867724868 134.81481481481484,5.291005291005291 135.23809523809524,5.714285714285714 135.87301587301587,6.137566137566138 136.2962962962963,6.560846560846561 136.71957671957674,6.984126984126985 137.35449735449737,7.407407407407408 137.7777777777778,7.830687830687832 138.2010582010582,8.253968253968255 138.62433862433863,8.677248677248677 139.04761904761907,9.312169312169313 139.47089947089947,9.735449735449736 139.8941798941799,10.370370370370372 140.10582010582013,11.005291005291006 140.52910052910053,11.640211640211641 140.74074074074076,12.275132275132275 140.74074074074076,12.910052910052912 140.74074074074076,13.544973544973546 140.95238095238096,14.17989417989418 140.74074074074076,14.814814814814817 140.74074074074076,15.449735449735451 140.52910052910053,16.084656084656086 140.52910052910053,16.71957671957672 140.31746031746033,17.354497354497354 140.10582010582013,17.98941798941799 139.8941798941799,18.624338624338627 139.47089947089947,19.25925925925926 139.04761904761907,19.894179894179896 138.62433862433863,20.529100529100532 138.2010582010582,21.164021164021165 137.7777777777778,21.7989417989418 137.35449735449737,22.222222222222225 136.93121693121694,22.645502645502646 136.5079365079365,23.06878306878307 135.87301587301587,23.492063492063494 135.44973544973547,23.915343915343918 135.02645502645504,24.338624338624342 134.3915343915344,24.55026455026455 133.96825396825398,24.973544973544975 133.33333333333334,25.3968253968254 132.6984126984127,25.820105820105823 132.27513227513228,26.243386243386244 131.64021164021165,26.666666666666668 131.21693121693121,27.089947089947092 130.7936507936508,27.513227513227516 130.15873015873018,27.93650793650794 129.73544973544975,28.571428571428573 129.31216931216932,29.20634920634921 129.10052910052912,29.841269841269842 128.67724867724868,30.476190476190478 128.46560846560848,31.111111111111114 128.25396825396825,31.746031746031747 128.04232804232805,32.38095238095239 127.83068783068784,33.01587301587302 127.83068783068784,33.65079365079365 127.61904761904763,34.28571428571429 127.61904761904763,34.920634920634924 127.61904761904763,35.55555555555556 127.83068783068784,36.19047619047619 128.04232804232805,36.82539682539683 128.25396825396825,37.46031746031746 128.46560846560848,38.095238095238095 128.88888888888889,38.51851851851852 129.31216931216932,39.15343915343916 129.73544973544975,39.57671957671958 130.15873015873018,40.0 130.58201058201058,40.423280423280424 131.21693121693121,40.84656084656085 131.85185185185185,41.26984126984127 132.4867724867725,41.6931216931217 133.12169312169314,42.11640211640212 133.75661375661377,42.32804232804233 134.3915343915344,42.75132275132275 135.02645502645504,42.96296296296297 135.44973544973547,43.386243386243386 136.0846560846561,43.5978835978836 136.71957671957674,44.021164021164026 137.35449735449737,44.44444444444445 137.989417989418,44.65608465608466 138.62433862433863,45.07936507936508 139.25925925925927,45.29100529100529 139.8941798941799,45.714285714285715 140.52910052910053,45.92592592592593 141.16402116402116,46.13756613756614 141.7989417989418,46.349206349206355 142.43386243386246,46.560846560846564 143.0687830687831,46.98412698412699 143.70370370370372,46.98412698412699 144.33862433862436,47.195767195767196 144.973544973545,47.40740740740741 145.60846560846562,47.61904761904762 146.24338624338625,47.830687830687836 146.8783068783069,47.830687830687836 147.51322751322752,48.042328042328045 148.14814814814815,48.25396825396826 148.78306878306879,48.25396825396826 149.41798941798942,48.46560846560847 150.05291005291005,48.46560846560847 150.6878306878307,48.677248677248684 151.32275132275134,48.88888888888889 151.95767195767198,48.88888888888889 152.5925925925926,48.88888888888889 153.22751322751324,48.88888888888889 153.86243386243387,49.1005291005291 154.4973544973545,48.88888888888889 155.13227513227514,49.1005291005291 155.76719576719577,49.1005291005291 156.4021164021164,49.1005291005291 157.03703703703704,49.1005291005291 157.67195767195767,49.1005291005291 161.6931216931217,49.31216931216932" style="fill:none; stroke:#cc0000; stroke-width:1.0"  /><polyline points="161.6931216931217,49.31216931216932 160.0,52.27513227513228 159.5767195767196,52.91005291005291 159.15343915343917,53.54497354497355 158.94179894179896,54.179894179894184 158.51851851851853,54.81481481481482 158.30687830687833,55.449735449735456 157.8835978835979,55.87301587301588 157.46031746031747,56.50793650793651 157.03703703703704,57.142857142857146 156.61375661375664,57.777777777777786 156.4021164021164,58.41269841269842 155.978835978836,59.04761904761905 155.55555555555557,59.682539682539684 155.13227513227514,60.31746031746032 154.7089947089947,60.952380952380956 154.2857142857143,61.58730158730159 153.86243386243387,62.22222222222223 153.65079365079367,62.85714285714286 153.22751322751324,63.280423280423285 152.8042328042328,63.91534391534392 152.38095238095238,64.55026455026456 151.95767195767198,65.18518518518519 151.53439153439155,65.60846560846561 151.11111111111111,66.24338624338625 150.6878306878307,66.87830687830689 150.26455026455028,67.51322751322752 149.84126984126985,68.14814814814815 149.41798941798942,68.57142857142858 148.99470899470901,69.20634920634922 148.57142857142858,69.62962962962963 148.14814814814815,70.26455026455027 147.72486772486775,70.8994708994709 147.30158730158732,71.53439153439155 146.8783068783069,71.95767195767196 146.45502645502646,72.5925925925926 146.03174603174605,73.01587301587303 145.60846560846562,73.65079365079366 145.1851851851852,74.07407407407408 144.76190476190476,74.49735449735451 144.33862433862436,75.13227513227514 143.91534391534393,75.55555555555556 143.4920634920635,75.97883597883599 143.0687830687831,76.4021164021164 142.64550264550266,76.82539682539684 142.22222222222223,77.46031746031747 141.7989417989418,77.88359788359789 141.3756613756614,78.51851851851852 140.95238095238096,78.94179894179895 140.52910052910053,79.36507936507937 140.10582010582013,79.7883597883598 139.6825396825397,80.21164021164022 139.25925925925927,80.63492063492065 138.83597883597884,81.05820105820106 138.41269841269843,81.48148148148148 137.989417989418,81.90476190476191 137.35449735449737,82.32804232804233 136.93121693121694,82.75132275132276 136.5079365079365,83.17460317460318 136.0846560846561,83.59788359788361 135.66137566137567,84.02116402116403 135.23809523809524,84.44444444444446 134.6031746031746,84.86772486772487 134.17989417989418,85.29100529100529 133.75661375661377,85.71428571428572 133.12169312169314,86.13756613756614 132.6984126984127,86.56084656084657 132.27513227513228,86.98412698412699 131.64021164021165,87.40740740740742 131.21693121693121,87.83068783068784 130.7936507936508,88.25396825396827 130.15873015873018,88.67724867724868 129.73544973544975,89.1005291005291 129.31216931216932,89.52380952380953 128.88888888888889,89.94708994708995 128.46560846560848,90.37037037037038 128.04232804232805,90.7936507936508 127.61904761904763,91.21693121693123 127.1957671957672,91.64021164021165 126.77248677248679,92.06349206349208 126.13756613756615,92.4867724867725 125.71428571428572,92.91005291005291 125.2910052910053,93.33333333333334 124.86772486772487,93.96825396825398 124.44444444444446,94.39153439153439 124.02116402116403,94.81481481481482 123.59788359788361,95.44973544973546 123.17460317460318,96.08465608465609 122.75132275132276,96.50793650793652 122.53968253968254,97.14285714285715 122.11640211640213,97.77777777777779 121.6931216931217,98.41269841269842 121.26984126984128,99.04761904761905 121.05820105820106,99.68253968253968 120.63492063492065,100.31746031746033 120.21164021164022,100.95238095238096 120.00000000000001,101.5873015873016 119.7883597883598,102.22222222222223 119.57671957671958,102.85714285714286 119.15343915343917,103.4920634920635 118.94179894179895,104.12698412698414 118.94179894179895,104.76190476190477 118.73015873015873,105.3968253968254 118.51851851851853,106.03174603174604 118.30687830687832,106.66666666666667 118.30687830687832,107.3015873015873 118.30687830687832,107.93650793650795 118.0952380952381,108.57142857142858 118.0952380952381,109.20634920634922 118.0952380952381,109.84126984126985 118.0952380952381,110.47619047619048 118.0952380952381,111.11111111111111 118.0952380952381,111.74603174603176 118.30687830687832,112.3809523809524 118.51851851851853,113.01587301587303 118.51851851851853,113.65079365079366 118.73015873015873,114.28571428571429 118.94179894179895,114.92063492063492 119.15343915343917,115.55555555555557 119.57671957671958,115.97883597883599 120.00000000000001,116.61375661375662 120.42328042328043,117.03703703703705 120.84656084656086,117.46031746031747 121.26984126984128,117.88359788359789 121.90476190476191,118.30687830687832 122.53968253968254,118.30687830687832 122.96296296296298,118.73015873015873 123.59788359788361,118.73015873015873 124.23280423280424,118.94179894179895 124.86772486772487,119.15343915343917 125.5026455026455,119.36507936507937 126.13756613756615,119.36507936507937 126.77248677248679,119.36507936507937 127.40740740740742,119.36507936507937 128.04232804232805,119.36507936507937 128.67724867724868,119.36507936507937 129.31216931216932,118.94179894179895 129.94708994708995,118.94179894179895 130.58201058201058,118.94179894179895 131.21693121693121,118.94179894179895 131.85185185185185,118.73015873015873 132.4867724867725,118.73015873015873 133.12169312169314,118.51851851851853 133.75661375661377,118.51851851851853 134.3915343915344,118.51851851851853 135.02645502645504,118.30687830687832 135.66137566137567,118.0952380952381 136.2962962962963,118.0952380952381 136.93121693121694,117.88359788359789 137.56613756613757,117.88359788359789 138.2010582010582,117.67195767195768 138.83597883597884,117.46031746031747 139.47089947089947,117.24867724867725 140.10582010582013,117.24867724867725 140.74074074074076,117.03703703703705 141.3756613756614,117.03703703703705 142.01058201058203,116.82539682539684 142.64550264550266,116.82539682539684 143.2804232804233,116.82539682539684 143.91534391534393,116.82539682539684 144.55026455026456,117.03703703703705 145.1851851851852,117.03703703703705 145.82010582010582,117.24867724867725 146.45502645502646,117.24867724867725 147.0899470899471,117.24867724867725 147.72486772486775,117.46031746031747 148.35978835978838,117.67195767195768 148.99470899470901,117.88359788359789 149.62962962962965,118.0952380952381 150.26455026455028,118.30687830687832 150.8994708994709,118.51851851851853 151.53439153439155,118.73015873015873 152.16931216931218,119.15343915343917 152.8042328042328,119.57671957671958 153.43915343915344,119.7883597883598 154.07407407407408,120.21164021164022 154.4973544973545,120.63492063492065 155.13227513227514,121.05820105820106 155.76719576719577,121.4814814814815 156.4021164021164,121.90476190476191 156.82539682539684,122.32804232804234 157.24867724867727,122.75132275132276 157.67195767195767,123.17460317460318 158.0952380952381,123.59788359788361 158.51851851851853,124.02116402116403 158.73015873015873,124.65608465608466 159.15343915343917,125.2910052910053 159.5767195767196,125.71428571428572 159.7883597883598,126.34920634920636 160.21164021164023,126.98412698412699 160.42328042328043,127.61904761904763 160.63492063492066,128.25396825396825 160.63492063492066,128.88888888888889 160.84656084656086,129.52380952380955 161.05820105820106,130.15873015873018 161.05820105820106,130.7936507936508 161.2698412698413,131.42857142857144 161.2698412698413,132.06349206349208 161.2698412698413,132.6984126984127 161.2698412698413,133.33333333333334 161.4814814814815,133.96825396825398 161.2698412698413,134.6031746031746 161.4814814814815,135.23809523809524 161.4814814814815,135.87301587301587 161.4814814814815,136.5079365079365 161.4814814814815,137.14285714285717 161.2698412698413,137.7777777777778 161.2698412698413,138.41269841269843 161.05820105820106,139.04761904761907 161.05820105820106,139.6825396825397 160.84656084656086,140.31746031746033 160.84656084656086,140.95238095238096 160.63492063492066,141.5873015873016 160.63492063492066,142.22222222222223 160.42328042328043,142.85714285714286 160.21164021164023,143.4920634920635 160.0,144.12698412698413 159.7883597883598,144.76190476190476 159.36507936507937,145.39682539682542 159.15343915343917,146.03174603174605 158.94179894179896,146.66666666666669 158.73015873015873,147.30158730158732 158.51851851851853,147.93650793650795 158.0952380952381,148.35978835978838 157.67195767195767,148.99470899470901 157.24867724867727,149.41798941798942 156.82539682539684,150.05291005291005 156.4021164021164,150.47619047619048 155.978835978836,151.11111111111111 155.55555555555557,151.53439153439155 154.92063492063494,151.95767195767198 154.4973544973545,152.38095238095238 154.07407407407408,152.8042328042328 153.43915343915344,153.22751322751324 152.8042328042328,153.65079365079367 152.38095238095238,154.07407407407408 151.74603174603175,154.4973544973545 151.32275132275134,154.92063492063494 150.6878306878307,155.34391534391534 150.05291005291005,155.55555555555557 149.41798941798942,155.978835978836 148.78306878306879,156.1904761904762 148.14814814814815,156.61375661375664 147.51322751322752,156.61375661375664 146.8783068783069,156.82539682539684 146.24338624338625,157.03703703703704 145.60846560846562,157.03703703703704 144.973544973545,157.03703703703704 144.33862433862436,157.03703703703704 143.70370370370372,157.03703703703704 143.0687830687831,157.03703703703704 142.43386243386246,156.82539682539684 141.7989417989418,156.82539682539684 141.16402116402116,156.61375661375664 140.52910052910053,156.4021164021164 139.8941798941799,156.4021164021164 139.25925925925927,156.1904761904762 138.62433862433863,155.978835978836 137.989417989418,155.76719576719577 137.35449735449737,155.34391534391534 136.71957671957674,155.13227513227514 136.0846560846561,154.7089947089947 135.44973544973547,154.4973544973545 134.81481481481484,154.07407407407408 134.17989417989418,153.65079365079367 133.54497354497354,153.22751322751324 132.9100529100529,152.8042328042328 132.27513227513228,152.38095238095238 131.85185185185185,151.95767195767198 131.21693121693121,151.53439153439155 130.7936507936508,151.11111111111111 130.37037037037038,150.6878306878307 129.94708994708995,150.26455026455028 129.52380952380955,149.84126984126985 129.10052910052912,149.41798941798942 128.67724867724868,148.99470899470901 128.25396825396825,148.57142857142858 127.83068783068784,147.93650793650795 127.40740740740742,147.51322751322752 126.98412698412699,147.0899470899471 126.34920634920636,146.66666666666669 125.92592592592594,146.03174603174605 125.5026455026455,145.60846560846562 125.07936507936509,145.1851851851852 124.65608465608466,144.76190476190476 124.23280423280424,144.33862433862436 123.59788359788361,143.91534391534393 123.17460317460318,143.4920634920635 122.53968253968254,143.0687830687831 121.90476190476191,142.64550264550266 121.26984126984128,142.22222222222223 120.63492063492065,141.7989417989418 120.00000000000001,141.5873015873016 119.36507936507937,141.3756613756614 118.73015873015873,141.16402116402116 118.0952380952381,140.95238095238096 117.46031746031747,140.95238095238096 116.82539682539684,140.95238095238096 116.1904761904762,140.95238095238096 115.55555555555557,141.16402116402116 114.92063492063492,141.16402116402116 114.28571428571429,141.3756613756614 113.65079365079366,141.7989417989418 113.01587301587303,142.01058201058203 112.3809523809524,142.43386243386246 111.74603174603176,142.85714285714286 111.11111111111111,143.2804232804233 110.6878306878307,143.70370370370372 110.26455026455027,144.12698412698413 109.84126984126985,144.76190476190476 109.41798941798943,145.1851851851852 108.994708994709,145.82010582010582 108.57142857142858,146.45502645502646 108.57142857142858,147.0899470899471 108.14814814814815,147.51322751322752 107.93650793650795,148.14814814814815 107.51322751322752,148.78306878306879 107.3015873015873,149.41798941798942 106.87830687830689,150.05291005291005 106.66666666666667,150.6878306878307 106.45502645502647,151.32275132275134 106.24338624338625,151.95767195767198 106.03174603174604,152.5925925925926 105.82010582010582,153.22751322751324 105.60846560846562,153.86243386243387 105.60846560846562,154.4973544973545 105.3968253968254,155.13227513227514 105.18518518518519,155.76719576719577 105.18518518518519,156.4021164021164 105.18518518518519,157.03703703703704 104.97354497354497,157.67195767195767 104.97354497354497,158.30687830687833 104.97354497354497,158.94179894179896 104.97354497354497,159.5767195767196 104.97354497354497,160.21164021164023 104.97354497354497,160.84656084656086 104.97354497354497,161.4814814814815 104.97354497354497,162.11640211640213 104.97354497354497,162.75132275132276 104.97354497354497,163.3862433862434 104.97354497354497,164.02116402116403 104.97354497354497,164.65608465608466 104.97354497354497,165.2910052910053 104.76190476190477,165.92592592592595 104.76190476190477,166.56084656084658 104.76190476190477,167.19576719576722 104.55026455026456,167.83068783068785 104.33862433862434,168.46560846560848 104.33862433862434,169.10052910052912 104.12698412698414,169.73544973544975 103.91534391534393,170.37037037037038 103.70370370370371,171.005291005291 103.4920634920635,171.64021164021165 103.4920634920635,172.27513227513228 103.06878306878308,175.23809523809524" style="fill:none; stroke:#999900; stroke-width:1.0"  /><polyline points="103.06878306878308,175.23809523809524 98.83597883597885,175.66137566137567 98.2010582010582,175.66137566137567 97.56613756613757,175.66137566137567 96.93121693121694,175.87301587301587 96.2962962962963,176.0846560846561 95.66137566137567,176.0846560846561 95.02645502645504,176.0846560846561 94.39153439153439,176.0846560846561 93.75661375661376,176.50793650793653 93.12169312169313,176.50793650793653 92.4867724867725,176.50793650793653 91.85185185185186,176.50793650793653 91.21693121693123,176.50793650793653 90.58201058201058,176.50793650793653 89.94708994708995,176.50793650793653 89.31216931216932,176.50793650793653 88.67724867724868,176.50793650793653 88.04232804232805,176.50793650793653 87.40740740740742,176.50793650793653 86.77248677248677,176.2962962962963 86.13756613756614,176.2962962962963 85.5026455026455,176.0846560846561 84.86772486772487,176.0846560846561 84.23280423280424,176.0846560846561 83.59788359788361,175.87301587301587 82.96296296296298,175.87301587301587 82.32804232804233,175.66137566137567 81.6931216931217,175.66137566137567 81.05820105820106,175.44973544973547 80.42328042328043,175.23809523809524 79.7883597883598,175.02645502645504 79.15343915343917,175.02645502645504 78.51851851851852,175.02645502645504 77.88359788359789,174.81481481481484 77.24867724867725,174.6031746031746 76.61375661375662,174.3915343915344 75.97883597883599,174.1798941798942 75.34391534391536,173.96825396825398 74.70899470899471,173.75661375661377 74.07407407407408,173.33333333333334 73.43915343915344,173.12169312169314 72.80423280423281,172.6984126984127 72.16931216931218,172.4867724867725 71.53439153439155,172.06349206349208 70.8994708994709,171.64021164021165 70.26455026455027,171.42857142857144 69.62962962962963,171.005291005291 68.994708994709,170.58201058201058 68.35978835978837,170.37037037037038 67.72486772486774,169.94708994708995 67.08994708994709,169.52380952380955 66.45502645502646,169.31216931216932 65.82010582010582,169.10052910052912 65.18518518518519,168.8888888888889 64.55026455026456,168.67724867724868 63.91534391534392,168.67724867724868 63.280423280423285,168.67724867724868 62.64550264550265,168.67724867724868 62.01058201058201,168.67724867724868 61.37566137566138,168.8888888888889 60.74074074074075,168.8888888888889 60.10582010582011,169.10052910052912 59.682539682539684,169.52380952380955 59.04761904761905,169.94708994708995 58.62433862433863,170.58201058201058 57.989417989417994,171.005291005291 57.56613756613757,171.64021164021165 57.142857142857146,172.27513227513228 56.71957671957672,172.9100529100529 56.71957671957672,173.54497354497354 56.50793650793651,174.1798941798942 56.2962962962963,174.81481481481484 56.2962962962963,175.44973544973547 56.08465608465609,176.0846560846561 56.08465608465609,176.71957671957674 55.87301587301588,177.35449735449737 55.661375661375665,177.989417989418 55.449735449735456,178.62433862433863 55.23809523809524,179.25925925925927 55.02645502645503,179.8941798941799 54.60317460317461,180.52910052910053 54.39153439153439,181.16402116402116 53.968253968253975,181.79894179894183 53.75661375661376,182.43386243386246 53.333333333333336,183.0687830687831 52.91005291005291,183.70370370370372 52.48677248677249,184.33862433862436 52.06349206349207,184.7619047619048 51.640211640211646,185.1851851851852 51.21693121693122,185.60846560846562 50.58201058201058,186.03174603174605 50.158730158730165,186.45502645502646 49.73544973544974,186.8783068783069 49.1005291005291,187.08994708994712 48.46560846560847,187.51322751322752 47.830687830687836,187.72486772486775 47.195767195767196,187.93650793650795 46.560846560846564,188.14814814814815 45.92592592592593,188.14814814814815 45.29100529100529,188.35978835978838 44.65608465608466,188.35978835978838 44.021164021164026,188.35978835978838 43.386243386243386,188.57142857142858 42.75132275132275,188.57142857142858 42.11640211640212,188.57142857142858 41.48148148148149,188.57142857142858 40.84656084656085,188.57142857142858 40.211640211640216,188.57142857142858 39.57671957671958,188.35978835978838 38.94179894179894,188.35978835978838 38.30687830687831,188.35978835978838 37.67195767195768,188.14814814814815 37.03703703703704,188.14814814814815 36.402116402116405,188.14814814814815 35.76719576719577,187.93650793650795 35.13227513227513,187.93650793650795 34.4973544973545,187.72486772486775 33.86243386243387,187.72486772486775 33.22751322751323,187.51322751322752 32.592592592592595,187.30158730158732 31.95767195767196,187.30158730158732 31.322751322751326,187.08994708994712 30.68783068783069,186.8783068783069 30.052910052910054,186.66666666666669 29.41798941798942,186.45502645502646 28.783068783068785,186.45502645502646 28.35978835978836,186.03174603174605 27.724867724867728,185.82010582010582 27.089947089947092,185.60846560846562 26.455026455026456,185.39682539682542 25.820105820105823,184.973544973545 25.185185185185187,184.7619047619048 24.55026455026455,184.33862433862436 23.915343915343918,184.33862433862436 23.280423280423282,183.91534391534393 22.645502645502646,183.70370370370372 22.222222222222225,183.2804232804233 21.58730158730159,183.0687830687831 21.164021164021165,182.64550264550266 20.529100529100532,182.22222222222223 19.894179894179896,182.01058201058203 19.25925925925926,181.5873015873016 18.83597883597884,181.16402116402116 18.201058201058203,180.74074074074076 17.77777777777778,180.31746031746033 17.142857142857146,179.8941798941799 16.71957671957672,179.4708994708995 16.296296296296298,179.04761904761907 15.873015873015873,178.62433862433863 15.449735449735451,177.989417989418 15.026455026455027,177.35449735449737 14.814814814814817,176.71957671957674 14.391534391534393,176.0846560846561 14.17989417989418,175.44973544973547 14.17989417989418,174.81481481481484 13.96825396825397,174.1798941798942 13.96825396825397,173.54497354497354 13.96825396825397,172.9100529100529 13.96825396825397,172.27513227513228 13.96825396825397,171.64021164021165 13.96825396825397,171.005291005291 14.17989417989418,170.37037037037038 14.391534391534393,169.73544973544975 14.603174603174605,169.10052910052912 14.814814814814817,168.46560846560848 15.238095238095239,168.04232804232805 15.449735449735451,167.40740740740742 15.661375661375663,166.7724867724868 16.084656084656086,166.13756613756615 16.296296296296298,165.50264550264552 16.71957671957672,164.8677248677249 16.931216931216934,164.23280423280426 17.354497354497354,163.59788359788362 17.566137566137566,162.96296296296296 17.98941798941799,162.32804232804233 18.201058201058203,161.6931216931217 18.412698412698415,161.05820105820106 18.624338624338627,160.42328042328043 18.83597883597884,159.7883597883598 19.047619047619047,159.15343915343917 19.047619047619047,158.51851851851853 19.047619047619047,157.8835978835979 19.047619047619047,157.24867724867727 19.047619047619047,156.61375661375664 18.83597883597884,155.978835978836 18.624338624338627,155.34391534391534 18.412698412698415,154.7089947089947 17.98941798941799,154.07407407407408 17.566137566137566,153.65079365079367 17.142857142857146,153.22751322751324 16.71957671957672,152.5925925925926 16.296296296296298,152.16931216931218 15.661375661375663,151.95767195767198 15.026455026455027,151.53439153439155 14.603174603174605,151.11111111111111 13.96825396825397,150.8994708994709 13.333333333333334,150.6878306878307 12.6984126984127,150.47619047619048 12.063492063492065,150.26455026455028 11.428571428571429,149.84126984126985 10.793650793650794,149.62962962962965 10.15873015873016,149.41798941798942 9.523809523809524,149.20634920634922 8.88888888888889,148.99470899470901 8.253968253968255,148.78306878306879 7.6190476190476195,148.35978835978838 6.984126984126985,148.14814814814815 6.34920634920635,147.93650793650795 5.714285714285714,147.72486772486775 5.07936507936508,147.51322751322752 4.444444444444445,147.51322751322752 3.8095238095238098,147.30158730158732 3.174603174603175,147.0899470899471 -0.4232804232804233,145.82010582010582" style="fill:none; stroke:#00aa99; stroke-width:1.0"  /><polyline points="-0.4232804232804233,145.82010582010582 1.0582010582010584,142.85714285714286 1.4814814814814816,142.22222222222223 1.6931216931216932,141.5873015873016 2.1164021164021167,140.95238095238096 2.3280423280423284,140.31746031746033 2.53968253968254,139.6825396825397 2.9629629629629632,139.04761904761907 3.174603174603175,138.41269841269843 3.3862433862433865,137.7777777777778 3.597883597883598,137.14285714285717 4.021164021164021,136.5079365079365 4.2328042328042335,135.87301587301587 4.444444444444445,135.23809523809524 4.656084656084657,134.6031746031746 5.07936507936508,133.96825396825398 5.291005291005291,133.33333333333334 5.502645502645503,132.6984126984127 5.714285714285714,132.06349206349208 6.137566137566138,131.42857142857144 6.34920634920635,130.7936507936508 6.772486772486773,130.15873015873018 6.984126984126985,129.52380952380955 7.195767195767196,128.88888888888889 7.6190476190476195,128.25396825396825 7.830687830687832,127.61904761904763 8.042328042328043,126.98412698412699 8.465608465608467,126.56084656084657 8.677248677248677,125.92592592592594 8.88888888888889,125.2910052910053 9.312169312169313,124.86772486772487 9.523809523809524,124.23280423280424 9.947089947089948,123.59788359788361 10.370370370370372,122.96296296296298 10.582010582010582,122.32804232804234 10.793650793650794,121.6931216931217 11.216931216931219,121.05820105820106 11.640211640211641,120.42328042328043 12.063492063492065,119.7883597883598 12.275132275132275,119.15343915343917 12.6984126984127,118.73015873015873 12.910052910052912,118.0952380952381 13.333333333333334,117.67195767195768 13.544973544973546,117.03703703703705 13.96825396825397,116.61375661375662 14.17989417989418,115.97883597883599 14.603174603174605,115.34391534391536 15.026455026455027,114.70899470899472 15.449735449735451,114.07407407407408 15.873015873015873,113.43915343915344 16.084656084656086,112.80423280423281 16.50793650793651,112.3809523809524 16.71957671957672,111.74603174603176 16.931216931216934,111.11111111111111 17.354497354497354,110.6878306878307 17.77777777777778,110.05291005291006 18.201058201058203,109.41798941798943 18.624338624338627,108.78306878306879 19.047619047619047,108.14814814814815 19.25925925925926,107.51322751322752 19.682539682539684,107.0899470899471 20.105820105820108,106.45502645502647 20.529100529100532,105.82010582010582 20.952380952380953,105.3968253968254 21.375661375661377,104.76190476190477 21.7989417989418,104.12698412698414 22.222222222222225,103.4920634920635 22.645502645502646,103.06878306878308 23.06878306878307,102.64550264550266 23.492063492063494,102.01058201058201 24.12698412698413,101.5873015873016 24.761904761904763,100.52910052910053 25.185185185185187,99.8941798941799 25.820105820105823,99.68253968253968 26.455026455026456,99.68253968253968 26.87830687830688,100.10582010582011 27.513227513227516,99.8941798941799 27.93650793650794,99.47089947089948 28.571428571428573,99.47089947089948 28.994708994708997,99.8941798941799 29.629629629629633,100.10582010582011 30.264550264550266,100.10582010582011 30.68783068783069,100.52910052910053 31.111111111111114,100.95238095238096 31.746031746031747,101.37566137566138 32.16931216931217,101.79894179894181 32.592592592592595,102.22222222222223 33.01587301587302,102.64550264550266 33.43915343915344,103.06878306878308 33.86243386243387,103.4920634920635 34.28571428571429,104.12698412698414 34.70899470899471,104.76190476190477 35.13227513227513,105.18518518518519 35.55555555555556,105.60846560846562 35.97883597883598,106.24338624338625 36.402116402116405,106.66666666666667 36.82539682539683,107.0899470899471 37.248677248677254,107.72486772486774 37.67195767195768,108.14814814814815 38.095238095238095,108.57142857142858 38.51851851851852,108.994708994709 38.94179894179894,109.41798941798943 39.57671957671958,109.84126984126985 40.0,110.26455026455027 40.423280423280424,110.6878306878307 41.058201058201064,111.11111111111111 41.6931216931217,111.32275132275133 42.32804232804233,111.53439153439155 42.96296296296297,111.74603174603176 43.5978835978836,111.74603174603176 44.232804232804234,111.95767195767196 44.867724867724874,111.95767195767196 45.50264550264551,111.95767195767196 46.13756613756614,111.74603174603176 46.77248677248678,111.74603174603176 47.40740740740741,111.32275132275133 48.042328042328045,111.11111111111111 48.677248677248684,110.6878306878307 49.1005291005291,110.26455026455027 49.73544973544974,109.84126984126985 50.370370370370374,109.41798941798943 50.7936507936508,108.994708994709 51.21693121693122,108.57142857142858 51.851851851851855,108.14814814814815 52.27513227513228,107.72486772486774 52.6984126984127,107.3015873015873 53.12169312169313,106.87830687830689 53.54497354497355,106.45502645502647 53.968253968253975,106.03174603174604 54.39153439153439,105.3968253968254 54.81481481481482,104.76190476190477 55.23809523809524,104.33862433862434 55.661375661375665,103.70370370370371 55.87301587301588,103.06878306878308 56.2962962962963,102.43386243386244 56.50793650793651,101.79894179894181 56.93121693121694,101.37566137566138 57.142857142857146,100.74074074074075 57.35449735449736,100.10582010582011 57.777777777777786,99.47089947089948 57.989417989417994,98.83597883597885 58.2010582010582,98.2010582010582 58.41269841269842,97.56613756613757 58.62433862433863,96.93121693121694 59.04761904761905,96.2962962962963 59.04761904761905,95.66137566137567 59.25925925925927,95.02645502645504 59.470899470899475,94.39153439153439 59.682539682539684,93.75661375661376 59.8941798941799,93.12169312169313 60.10582010582011,92.4867724867725 60.10582010582011,91.85185185185186 60.31746031746032,91.21693121693123 60.31746031746032,90.58201058201058 60.31746031746032,89.94708994708995 60.31746031746032,89.31216931216932 60.10582010582011,88.67724867724868 60.10582010582011,88.04232804232805 59.8941798941799,87.40740740740742 59.470899470899475,86.77248677248677 59.25925925925927,86.13756613756614 58.62433862433863,85.71428571428572 58.2010582010582,85.29100529100529 57.777777777777786,84.86772486772487 57.35449735449736,84.44444444444446 56.93121693121694,84.02116402116403 56.2962962962963,83.59788359788361 55.661375661375665,83.17460317460318 55.02645502645503,82.96296296296298 54.39153439153439,82.53968253968254 53.75661375661376,82.11640211640213 53.12169312169313,81.90476190476191 52.48677248677249,81.6931216931217 51.851851851851855,81.48148148148148 51.21693121693122,81.26984126984128 50.58201058201058,81.26984126984128 49.94708994708995,81.05820105820106 49.31216931216932,81.05820105820106 48.677248677248684,81.05820105820106 48.042328042328045,81.05820105820106 47.40740740740741,81.05820105820106 46.77248677248678,81.05820105820106 46.13756613756614,81.05820105820106 45.50264550264551,81.05820105820106 44.867724867724874,81.05820105820106 44.232804232804234,81.05820105820106 43.5978835978836,81.05820105820106 42.96296296296297,81.05820105820106 42.32804232804233,80.84656084656085 41.6931216931217,80.84656084656085 41.058201058201064,80.63492063492065 40.423280423280424,80.42328042328043 39.78835978835979,80.0 39.15343915343916,79.7883597883598 38.51851851851852,79.36507936507937 37.883597883597886,78.94179894179895 37.46031746031746,78.51851851851852 37.03703703703704,78.0952380952381 36.613756613756614,77.46031746031747 36.19047619047619,77.03703703703704 35.97883597883598,76.4021164021164 35.76719576719577,75.76719576719577 35.76719576719577,75.13227513227514 35.76719576719577,74.49735449735451 35.76719576719577,73.86243386243387 35.97883597883598,73.22751322751323 36.19047619047619,72.5925925925926 36.402116402116405,71.95767195767196 36.82539682539683,71.32275132275133 37.03703703703704,70.6878306878307 37.46031746031746,70.26455026455027 37.67195767195768,69.62962962962963 38.095238095238095,68.994708994709 38.51851851851852,68.57142857142858 38.94179894179894,68.14814814814815 39.36507936507937,67.72486772486774 39.57671957671958,67.08994708994709 40.0,66.66666666666667 40.423280423280424,66.03174603174604 40.84656084656085,65.60846560846561 41.058201058201064,64.97354497354497 41.48148148148149,64.55026455026456 41.904761904761905,64.12698412698413 42.32804232804233,63.492063492063494 42.75132275132275,62.85714285714286 43.17460317460318,62.22222222222223 43.5978835978836,61.798941798941804 44.021164021164026,61.37566137566138 44.44444444444445,60.74074074074075 44.867724867724874,60.10582010582011 45.29100529100529,59.470899470899475 45.714285714285715,59.04761904761905 46.13756613756614,58.62433862433863 46.560846560846564,57.989417989417994 46.98412698412699,57.35449735449736 47.40740740740741,56.93121693121694 47.830687830687836,56.2962962962963 48.25396825396826,55.661375661375665 48.677248677248684,55.23809523809524 49.1005291005291,54.60317460317461 49.523809523809526,53.968253968253975 49.94708994708995,53.333333333333336 50.370370370370374,52.91005291005291 50.7936507936508,52.48677248677249 51.21693121693122,51.851851851851855 51.640211640211646,51.21693121693122 52.06349206349207,50.7936507936508 52.48677248677249,50.158730158730165 52.91005291005291,49.523809523809526 53.333333333333336,49.1005291005291 53.75661375661376,48.46560846560847 54.179894179894184,47.830687830687836 54.60317460317461,47.40740740740741 55.02645502645503,46.98412698412699 55.449735449735456,46.349206349206355 55.87301587301588,45.714285714285715 56.2962962962963,45.29100529100529 56.71957671957672,44.65608465608466 57.142857142857146,44.021164021164026 57.56613756613757,43.5978835978836 57.989417989417994,43.17460317460318 58.41269841269842,42.539682539682545 58.62433862433863,41.904761904761905 59.04761904761905,41.26984126984127 59.470899470899475,40.63492063492064 59.8941798941799,40.211640211640216 60.31746031746032,39.57671957671958 60.74074074074075,39.15343915343916 61.16402116402117,38.51851851851852 61.58730158730159,37.883597883597886 62.01058201058201,37.248677248677254 62.43386243386244,36.82539682539683 62.85714285714286,36.19047619047619 63.280423280423285,35.76719576719577 63.70370370370371,35.13227513227513 64.12698412698413,34.4973544973545 64.55026455026456,34.074074074074076 64.97354497354497,33.65079365079365 65.3968253968254,33.01587301587302 65.82010582010582,32.38095238095239 66.24338624338625,31.95767195767196 66.66666666666667,31.322751322751326 67.08994708994709,30.899470899470902 67.51322751322752,30.264550264550266 67.93650793650794,29.841269841269842 68.35978835978837,29.20634920634921 68.78306878306879,28.783068783068785 69.20634920634922,28.14814814814815 69.62962962962963,27.724867724867728 70.05291005291006,27.089947089947092 70.47619047619048,26.666666666666668 70.8994708994709,26.243386243386244 71.32275132275133,25.60846560846561 71.74603174603175,25.185185185185187 72.16931216931218,24.55026455026455 72.5925925925926,24.12698412698413 73.01587301587303,23.492063492063494 73.43915343915344,23.06878306878307 73.86243386243387,22.433862433862437 74.28571428571429,22.010582010582013 74.70899470899471,21.375661375661377 75.13227513227514,20.740740740740744 75.55555555555556,20.31746031746032 75.97883597883599,19.894179894179896 76.4021164021164,19.25925925925926 76.82539682539684,18.624338624338627 77.24867724867725,17.98941798941799 77.67195767195767,17.566137566137566 78.0952380952381,16.931216931216934 78.51851851851852,16.50793650793651 78.94179894179895,15.873015873015873 79.36507936507937,15.238095238095239 79.7883597883598,14.814814814814817 80.21164021164022,14.17989417989418 80.63492063492065,13.544973544973546 81.05820105820106,13.121693121693122 81.48148148148148,12.486772486772487 81.90476190476191,12.063492063492065 82.32804232804233,11.428571428571429 84.44444444444446,8.677248677248677" style="fill:none; stroke:#3300bb; stroke-width:1.0"  /><circle cx="84.44444444444446" cy="8.677248677248677" r="2.0" style="fill:none; stroke:#000000aa; stroke-width:0.25" /><circle cx="161.6931216931217" cy="49.31216931216932" r="2.0" style="fill:none; stroke:#000000aa; stroke-width:0.25" /><circle cx="103.06878306878308" cy="175.23809523809524" r="2.0" style="fill:none; stroke:#000000aa; stroke-width:0.25" /><circle cx="-0.4232804232804233" cy="145.82010582010582" r="2.0" style="fill:none; stroke:#000000aa; stroke-width:0.25" /><circle cx="84.86772486772487" cy="9.735449735449736" r="2.0" style="fill:none; stroke:#ff3366aa; stroke-width:0.25" /><circle cx="161.2698412698413" cy="49.1005291005291" r="2.0" style="fill:none; stroke:#ff3366aa; stroke-width:0.25" /><circle cx="102.01058201058201" cy="175.02645502645504" r="2.0" style="fill:none; stroke:#ff3366aa; stroke-width:0.25" /><circle cx="0.21164021164021166" cy="146.03174603174605" r="2.0" style="fill:none; stroke:#ff3366aa; stroke-width:0.25" /><polyline points="91.21693121693123,19.25925925925926 90.7936507936508,18.624338624338627 90.37037037037038,18.201058201058203 90.15873015873017,17.566137566137566 89.73544973544975,16.931216931216934 89.31216931216932,16.296296296296298 88.8888888888889,15.661375661375663 88.46560846560847,15.026455026455027 88.04232804232805,14.603174603174605 87.83068783068784,13.96825396825397 87.40740740740742,13.333333333333334 86.98412698412699,12.6984126984127" style="fill:none; stroke:#001100; stroke-width:1.0" /><polyline points="76.82539682539684,18.624338624338627 77.24867724867725,17.98941798941799 77.67195767195767,17.566137566137566 78.0952380952381,16.931216931216934 78.51851851851852,16.50793650793651 78.94179894179895,15.873015873015873 79.36507936507937,15.238095238095239 79.7883597883598,14.814814814814817 80.21164021164022,14.17989417989418 80.63492063492065,13.544973544973546 81.05820105820106,13.121693121693122 81.48148148148148,12.486772486772487 81.90476190476191,12.063492063492065 82.32804232804233,11.428571428571429" style="fill:none; stroke:#000011; stroke-width:1.0" /><polyline points="155.55555555555557,59.682539682539684 155.978835978836,59.04761904761905 156.4021164021164,58.41269841269842 156.61375661375664,57.777777777777786 157.03703703703704,57.142857142857146 157.46031746031747,56.50793650793651 157.8835978835979,55.87301587301588 158.30687830687833,55.449735449735456 158.51851851851853,54.81481481481482 158.94179894179896,54.179894179894184 159.15343915343917,53.54497354497355 159.5767195767196,52.91005291005291 160.0,52.27513227513228" style="fill:none; stroke:#001100; stroke-width:1.0" /><polyline points="149.41798941798942,48.46560846560847 150.05291005291005,48.46560846560847 150.6878306878307,48.677248677248684 151.32275132275134,48.88888888888889 151.95767195767198,48.88888888888889 152.5925925925926,48.88888888888889 153.22751322751324,48.88888888888889 153.86243386243387,49.1005291005291 154.4973544973545,48.88888888888889 155.13227513227514,49.1005291005291 155.76719576719577,49.1005291005291 156.4021164021164,49.1005291005291 157.03703703703704,49.1005291005291 157.67195767195767,49.1005291005291 158.30687830687833,49.1005291005291" style="fill:none; stroke:#000011; stroke-width:1.0" /><polyline points="90.58201058201058,176.50793650793653 91.21693121693123,176.50793650793653 91.85185185185186,176.50793650793653 92.4867724867725,176.50793650793653 93.12169312169313,176.50793650793653 93.75661375661376,176.50793650793653 94.39153439153439,176.0846560846561 95.02645502645504,176.0846560846561 95.66137566137567,176.0846560846561 96.2962962962963,176.0846560846561 96.93121693121694,175.87301587301587 97.56613756613757,175.66137566137567 98.2010582010582,175.66137566137567 98.83597883597885,175.66137566137567" style="fill:none; stroke:#001100; stroke-width:1.0" /><polyline points="104.97354497354497,163.3862433862434 104.97354497354497,164.02116402116403 104.97354497354497,164.65608465608466 104.97354497354497,165.2910052910053 104.76190476190477,165.92592592592595 104.76190476190477,166.56084656084658 104.76190476190477,167.19576719576722 104.55026455026456,167.83068783068785 104.33862433862434,168.46560846560848 104.33862433862434,169.10052910052912 104.12698412698414,169.73544973544975 103.91534391534393,170.37037037037038 103.70370370370371,171.005291005291 103.4920634920635,171.64021164021165 103.4920634920635,172.27513227513228" style="fill:none; stroke:#000011; stroke-width:1.0" /><polyline points="4.444444444444445,135.23809523809524 4.2328042328042335,135.87301587301587 4.021164021164021,136.5079365079365 3.597883597883598,137.14285714285717 3.3862433862433865,137.7777777777778 3.174603174603175,138.41269841269843 2.9629629629629632,139.04761904761907 2.53968253968254,139.6825396825397 2.3280423280423284,140.31746031746033 2.1164021164021167,140.95238095238096 1.6931216931216932,141.5873015873016 1.4814814814814816,142.22222222222223 1.0582010582010584,142.85714285714286" style="fill:none; stroke:#001100; stroke-width:1.0" /><polyline points="11.428571428571429,149.84126984126985 10.793650793650794,149.62962962962965 10.15873015873016,149.41798941798942 9.523809523809524,149.20634920634922 8.88888888888889,148.99470899470901 8.253968253968255,148.78306878306879 7.6190476190476195,148.35978835978838 6.984126984126985,148.14814814814815 6.34920634920635,147.93650793650795 5.714285714285714,147.72486772486775 5.07936507936508,147.51322751322752 4.444444444444445,147.51322751322752 3.8095238095238098,147.30158730158732 3.174603174603175,147.0899470899471" style="fill:none; stroke:#000011; stroke-width:1.0" /><polyline points="86.98412698412699,12.6984126984127 75.55555555555556,-5.07936507936508" style="fill:none; stroke:#ffaa00; stroke-width:0.4" /><polyline points="82.32804232804233,11.428571428571429 95.23809523809524,-5.291005291005291" style="fill:none; stroke:#aaff00; stroke-width:0.4" /><polyline points="160.0,52.27513227513228 170.7936507936508,34.074074074074076" style="fill:none; stroke:#ffaa00; stroke-width:0.4" /><polyline points="158.30687830687833,49.1005291005291 179.4708994708995,50.58201058201058" style="fill:none; stroke:#aaff00; stroke-width:0.4" /><polyline points="98.83597883597885,175.66137566137567 119.7883597883598,173.54497354497354" style="fill:none; stroke:#ffaa00; stroke-width:0.4" /><polyline points="103.4920634920635,172.27513227513228 100.10582010582011,193.22751322751324" style="fill:none; stroke:#aaff00; stroke-width:0.4" /><polyline points="1.0582010582010584,142.85714285714286 -7.6190476190476195,162.11640211640213" style="fill:none; stroke:#ffaa00; stroke-width:0.4" /><polyline points="3.174603174603175,147.0899470899471 -16.931216931216934,140.31746031746033" style="fill:none; stroke:#aaff00; stroke-width:0.4" /><circle cx="84.86772486772487" cy="102.64550264550266" r="1.0" style="fill:#444444; stroke-width:0" /><circle cx="95.23809523809524" cy="67.3015873015873" r="10.582010582010582" style="fill:#ff770022; stroke-width:0" /><circle cx="95.23809523809524" cy="67.3015873015873" r="1.0" style="fill:#ff7700; stroke-width:0" /></svg>