<?xml version="1.0" encoding="UTF-8" standalone="no"?><svg width="439.3650793650794" height="622.8571428571429" viewBox="-10 -10 166.45502645502646 227.61904761904765" xmlns="http://www.w3.org/2000/svg" xmlns:xlink="http://www.w3.org/1999/xlink"><polyline points="25.820105820105823,33.43915343915344 28.994708994708997,33.22751322751323 29.629629629629633,33.22751322751323 30.264550264550266,33.22751322751323 30.899470899470902,33.01587301587302 31.53439153439154,33.01587301587302 32.16931216931217,33.01587301587302 32.804232804232804,32.804232804232804 33.43915343915344,32.804232804232804 34.074074074074076,32.804232804232804 34.70899470899471,32.804232804232804 35.34391534391535,32.804232804232804 35.97883597883598,32.804232804232804 36.613756613756614,32.804232804232804 37.248677248677254,32.804232804232804 37.883597883597886,33.01587301587302 38.51851851851852,32.804232804232804 39.15343915343916,32.804232804232804 39.78835978835979,32.804232804232804 40.423280423280424,33.01587301587302 41.058201058201064,33.01587301587302 41.6931216931217,33.22751322751323 42.32804232804233,33.43915343915344 42.96296296296297,33.43915343915344 43.5978835978836,33.43915343915344 44.232804232804234,33.65079365079365 44.867724867724874,33.86243386243387 45.50264550264551,33.86243386243387 46.13756613756614,34.074074074074076 46.77248677248678,34.28571428571429 47.40740740740741,34.4973544973545 48.042328042328045,34.70899470899471 48.677248677248684,34.920634920634924 49.1005291005291,35.34391534391535 49.73544973544974,35.34391534391535 50.370370370370374,35.76719576719577 51.00529100529101,35.76719576719577 51.640211640211646,36.19047619047619 52.27513227513228,36.613756613756614 52.91005291005291,37.03703703703704 53.54497354497355,37.248677248677254 54.179894179894184,37.46031746031746 54.81481481481482,37.67195767195768 55.23809523809524,38.095238095238095 55.87301587301588,38.51851851851852 56.50793650793651,38.730158730158735 57.142857142857146,38.94179894179894 57.777777777777786,39.36507936507937 58.41269841269842,39.57671957671958 59.04761904761905,40.0 59.682539682539684,40.211640211640216 60.31746031746032,40.423280423280424 60.952380952380956,40.84656084656085 61.58730158730159,40.84656084656085 62.01058201058201,41.26984126984127 62.64550264550265,41.26984126984127 63.280423280423285,41.48148148148149 63.91534391534392,41.48148148148149 64.55026455026456,41.6931216931217 65.18518518518519,41.904761904761905 65.82010582010582,41.904761904761905 66.45502645502646,42.11640211640212 67.08994708994709,42.11640211640212 67.72486772486774,42.32804232804233 68.35978835978837,42.32804232804233 68.994708994709,42.32804232804233 69.62962962962963,42.32804232804233 70.26455026455027,42.11640211640212 70.8994708994709,41.904761904761905 71.53439153439155,41.6931216931217 72.16931216931218,41.26984126984127 72.80423280423281,40.84656084656085 73.22751322751323,40.423280423280424 73.65079365079366,40.0 74.07407407407408,39.57671957671958 74.49735449735451,39.15343915343916 74.92063492063492,38.51851851851852 75.34391534391536,38.095238095238095 75.76719576719577,37.46031746031746 75.97883597883599,36.82539682539683 76.4021164021164,36.19047619047619 76.61375661375662,35.55555555555556 77.03703703703704,35.13227513227513 77.24867724867725,34.4973544973545 77.46031746031747,33.86243386243387 77.67195767195767,33.22751322751323 77.88359788359789,32.592592592592595 78.0952380952381,31.95767195767196 78.30687830687832,31.322751322751326 78.30687830687832,30.68783068783069 78.51851851851852,30.052910052910054 78.51851851851852,29.41798941798942 78.51851851851852,28.783068783068785 78.51851851851852,28.14814814814815 78.51851851851852,27.513227513227516 78.51851851851852,26.87830687830688 78.51851851851852,26.243386243386244 78.51851851851852,25.60846560846561 78.30687830687832,24.973544973544975 78.0952380952381,24.338624338624342 77.88359788359789,23.703703703703706 77.67195767195767,23.06878306878307 77.46031746031747,22.433862433862437 77.24867724867725,21.7989417989418 77.03703703703704,21.164021164021165 76.82539682539684,20.529100529100532 76.61375661375662,19.894179894179896 76.4021164021164,19.25925925925926 76.19047619047619,18.624338624338627 75.97883597883599,17.98941798941799 75.76719576719577,17.354497354497354 75.55555555555556,16.71957671957672 75.55555555555556,16.084656084656086 75.34391534391536,15.449735449735451 75.13227513227514,14.814814814814817 75.13227513227514,14.17989417989418 75.13227513227514,13.544973544973546 74.92063492063492,12.910052910052912 74.92063492063492,12.275132275132275 74.92063492063492,11.640211640211641 75.13227513227514,11.005291005291006 75.13227513227514,10.370370370370372 75.34391534391536,9.735449735449736 75.55555555555556,9.100529100529101 75.76719576719577,8.465608465608467 75.97883597883599,7.830687830687832 76.4021164021164,7.195767195767196 76.61375661375662,6.560846560846561 77.03703703703704,5.9259259259259265 77.46031746031747,5.291005291005291 77.88359788359789,4.867724867724868 78.30687830687832,4.444444444444445 78.73015873015873,4.021164021164021 79.15343915343917,3.597883597883598 79.57671957671958,3.174603174603175 80.21164021164022,2.7513227513227516 80.84656084656085,2.53968253968254 81.26984126984128,2.1164021164021167 81.90476190476191,1.9047619047619049 82.53968253968254,1.6931216931216932 83.17460317460318,1.26984126984127 83.80952380952381,1.26984126984127 84.44444444444446,1.0582010582010584 85.07936507936509,0.8465608465608466 85.71428571428572,0.634920634920635 86.34920634920636,0.634920634920635 86.98412698412699,0.4232804232804233 87.61904761904762,0.4232804232804233 88.25396825396827,0.4232804232804233 88.8888888888889,0.21164021164021166 89.52380952380953,0.4232804232804233 90.15873015873017,0.4232804232804233 90.7936507936508,0.4232804232804233 91.42857142857143,0.4232804232804233 92.06349206349208,0.4232804232804233 92.69841269841271,0.4232804232804233 93.33333333333334,0.8465608465608466 93.96825396825398,0.8465608465608466 94.60317460317461,1.0582010582010584 95.23809523809524,1.26984126984127 95.87301587301587,1.26984126984127 96.50793650793652,1.6931216931216932 97.14285714285715,1.9047619047619049 97.77777777777779,2.1164021164021167 98.41269841269842,2.3280423280423284 99.04761904761905,2.7513227513227516 99.68253968253968,2.9629629629629632 100.31746031746033,3.3862433862433865 100.95238095238096,3.597883597883598 101.37566137566138,4.021164021164021 102.01058201058201,4.444444444444445 102.43386243386244,4.867724867724868 102.85714285714286,5.291005291005291 103.4920634920635,5.714285714285714 103.70370370370371,6.34920634920635 104.12698412698414,6.772486772486773 104.55026455026456,7.195767195767196 104.97354497354497,7.830687830687832 105.3968253968254,8.465608465608467 105.60846560846562,9.100529100529101 106.03174603174604,9.523809523809524 106.24338624338625,10.15873015873016 106.66666666666667,10.793650793650794 106.87830687830689,11.428571428571429 107.0899470899471,12.063492063492065 107.3015873015873,12.6984126984127 107.51322751322752,13.333333333333334 107.72486772486774,13.96825396825397 107.72486772486774,14.603174603174605 107.72486772486774,15.238095238095239 107.72486772486774,15.873015873015873 107.72486772486774,16.50793650793651 107.51322751322752,17.142857142857146 107.3015873015873,17.77777777777778 106.87830687830689,18.412698412698415 106.66666666666667,19.047619047619047 106.24338624338625,19.682539682539684 105.82010582010582,20.31746031746032 105.3968253968254,20.952380952380953 105.18518518518519,21.58730158730159 104.76190476190477,22.010582010582013 104.33862433862434,22.645502645502646 104.12698412698414,23.280423280423282 103.70370370370371,23.915343915343918 103.28042328042329,24.55026455026455 102.85714285714286,25.185185185185187 102.64550264550266,25.820105820105823 102.22222222222223,26.243386243386244 102.01058201058201,26.87830687830688 101.79894179894181,27.513227513227516 101.5873015873016,28.14814814814815 101.37566137566138,28.783068783068785 101.16402116402116,29.41798941798942 100.74074074074075,30.052910052910054 100.52910052910053,30.68783068783069 100.31746031746033,31.322751322751326 100.10582010582011,31.95767195767196 99.8941798941799,32.592592592592595 99.68253968253968,33.22751322751323 99.68253968253968,33.86243386243387 99.47089947089948,34.4973544973545 99.47089947089948,35.13227513227513 99.47089947089948,35.76719576719577 99.47089947089948,36.402116402116405 99.47089947089948,37.03703703703704 99.47089947089948,37.67195767195768 99.47089947089948,38.30687830687831 99.8941798941799,38.94179894179894 99.8941798941799,39.57671957671958 100.10582010582011,40.211640211640216 100.52910052910053,40.84656084656085 100.74074074074075,41.48148148148149 101.16402116402116,41.904761904761905 101.5873015873016,42.539682539682545 102.01058201058201,42.96296296296297 102.43386243386244,43.386243386243386 102.85714285714286,43.80952380952381 103.4920634920635,44.232804232804234 104.12698412698414,44.44444444444445 104.76190476190477,44.65608465608466 105.3968253968254,45.07936507936508 106.03174603174604,45.07936507936508 106.66666666666667,45.29100529100529 107.3015873015873,45.07936507936508 107.93650793650795,45.07936507936508 108.57142857142858,44.867724867724874 109.20634920634922,44.867724867724874 109.84126984126985,45.07936507936508 110.47619047619048,45.07936507936508 111.11111111111111,45.07936507936508 111.74603174603176,44.65608465608466 112.3809523809524,44.65608465608466 113.01587301587303,44.65608465608466 113.65079365079366,44.65608465608466 114.28571428571429,44.44444444444445 114.92063492063492,44.232804232804234 115.55555555555557,44.232804232804234 116.1904761904762,44.021164021164026 116.82539682539684,43.5978835978836 117.46031746031747,43.5978835978836 118.0952380952381,43.386243386243386 118.73015873015873,43.17460317460318 119.36507936507937,42.96296296296297 120.00000000000001,42.75132275132275 120.63492063492065,42.539682539682545 121.26984126984128,42.539682539682545 121.90476190476191,42.32804232804233 122.53968253968254,42.11640211640212 123.17460317460318,42.11640211640212 123.80952380952382,42.11640211640212 124.44444444444446,42.11640211640212 125.07936507936509,42.11640211640212 125.71428571428572,41.904761904761905 126.34920634920636,41.904761904761905 126.98412698412699,41.904761904761905 127.61904761904763,41.904761904761905 128.25396825396825,41.904761904761905 128.88888888888889,41.904761904761905 129.52380952380955,41.6931216931217 130.15873015873018,41.6931216931217 130.7936507936508,41.6931216931217 131.42857142857144,41.904761904761905 135.23809523809524,41.6931216931217" style="fill:none; stroke:#cc0000; stroke-width:1.0"  /><polyline points="135.23809523809524,41.6931216931217 135.23809523809524,45.714285714285715 135.23809523809524,46.349206349206355 135.23809523809524,46.98412698412699 135.23809523809524,47.61904761904762 135.23809523809524,48.25396825396826 135.02645502645504,48.88888888888889 135.23809523809524,49.523809523809526 135.23809523809524,50.158730158730165 135.23809523809524,50.7936507936508 135.23809523809524,51.42857142857143 135.23809523809524,52.06349206349207 135.23809523809524,52.6984126984127 135.23809523809524,53.333333333333336 135.23809523809524,53.968253968253975 135.23809523809524,54.60317460317461 135.23809523809524,55.23809523809524 135.23809523809524,55.87301587301588 135.23809523809524,56.50793650793651 135.23809523809524,57.142857142857146 135.23809523809524,57.777777777777786 135.44973544973547,58.41269841269842 135.66137566137567,59.04761904761905 135.66137566137567,59.682539682539684 135.66137566137567,60.31746031746032 135.66137566137567,60.952380952380956 135.66137566137567,61.58730158730159 135.66137566137567,62.22222222222223 135.66137566137567,62.85714285714286 135.66137566137567,63.492063492063494 135.66137566137567,64.12698412698413 135.66137566137567,64.76190476190477 135.66137566137567,65.3968253968254 135.66137566137567,66.03174603174604 135.66137566137567,66.66666666666667 135.66137566137567,67.3015873015873 135.66137566137567,67.93650793650794 135.66137566137567,68.57142857142858 135.66137566137567,69.20634920634922 135.66137566137567,69.84126984126985 135.66137566137567,70.47619047619048 135.66137566137567,71.11111111111111 135.66137566137567,71.74603174603175 135.66137566137567,72.38095238095238 135.66137566137567,73.01587301587303 135.66137566137567,73.65079365079366 135.66137566137567,74.28571428571429 135.44973544973547,74.92063492063492 135.66137566137567,75.55555555555556 135.66137566137567,76.19047619047619 135.66137566137567,76.82539682539684 135.44973544973547,77.46031746031747 135.44973544973547,78.0952380952381 135.44973544973547,78.73015873015873 135.44973544973547,79.36507936507937 135.23809523809524,80.0 135.02645502645504,80.63492063492065 134.81481481481484,81.26984126984128 134.6031746031746,81.90476190476191 134.3915343915344,82.53968253968254 133.96825396825398,83.17460317460318 133.54497354497354,83.80952380952381 133.12169312169314,84.44444444444446 132.4867724867725,84.86772486772487 132.06349206349208,85.29100529100529 131.42857142857144,85.5026455026455 130.7936507936508,85.5026455026455 130.15873015873018,85.71428571428572 129.52380952380955,85.71428571428572 128.88888888888889,85.71428571428572 128.25396825396825,85.71428571428572 127.61904761904763,85.5026455026455 126.98412698412699,85.29100529100529 126.34920634920636,85.07936507936509 125.71428571428572,84.86772486772487 125.07936507936509,84.44444444444446 124.44444444444446,84.02116402116403 123.80952380952382,83.59788359788361 123.17460317460318,83.17460317460318 122.75132275132276,82.75132275132276 122.32804232804234,82.32804232804233 121.90476190476191,81.90476190476191 121.4814814814815,81.48148148148148 121.05820105820106,81.05820105820106 120.63492063492065,80.63492063492065 120.21164021164022,80.21164021164022 119.7883597883598,79.57671957671958 119.36507936507937,79.15343915343917 118.94179894179895,78.51851851851852 118.51851851851853,78.0952380952381 118.0952380952381,77.67195767195767 117.67195767195768,77.24867724867725 117.24867724867725,76.82539682539684 116.61375661375662,76.4021164021164 115.97883597883599,75.97883597883599 115.55555555555557,75.55555555555556 114.92063492063492,75.13227513227514 114.28571428571429,74.92063492063492 113.65079365079366,74.49735449735451 113.01587301587303,74.28571428571429 112.3809523809524,73.86243386243387 111.74603174603176,73.65079365079366 111.11111111111111,73.43915343915344 110.47619047619048,73.43915343915344 109.84126984126985,73.22751322751323 109.20634920634922,73.22751322751323 108.57142857142858,73.22751322751323 108.14814814814815,73.65079365079366 107.51322751322752,73.65079365079366 106.87830687830689,73.86243386243387 106.24338624338625,74.07407407407408 105.60846560846562,74.49735449735451 105.18518518518519,74.92063492063492 104.76190476190477,75.34391534391536 104.33862433862434,75.76719576719577 103.91534391534393,76.19047619047619 103.4920634920635,76.61375661375662 103.06878306878308,77.03703703703704 102.64550264550266,77.67195767195767 102.22222222222223,78.0952380952381 101.79894179894181,78.73015873015873 101.37566137566138,79.36507936507937 100.95238095238096,79.7883597883598 100.52910052910053,80.42328042328043 100.10582010582011,81.05820105820106 99.8941798941799,81.6931216931217 99.68253968253968,82.32804232804233 99.25925925925927,82.75132275132276 99.04761904761905,83.3862433862434 98.83597883597885,84.02116402116403 98.62433862433863,84.65608465608466 98.41269841269842,85.29100529100529 98.2010582010582,85.92592592592594 97.989417989418,86.56084656084657 97.989417989418,87.1957671957672 97.77777777777779,87.83068783068784 97.77777777777779,88.46560846560847 97.56613756613757,89.1005291005291 97.56613756613757,89.73544973544975 97.35449735449737,90.37037037037038 97.35449735449737,91.00529100529101 97.35449735449737,91.64021164021165 97.35449735449737,92.27513227513228 97.35449735449737,92.91005291005291 97.56613756613757,93.54497354497356 97.56613756613757,94.17989417989419 97.56613756613757,94.81481481481482 97.56613756613757,95.44973544973546 97.77777777777779,96.08465608465609 97.77777777777779,96.71957671957672 97.989417989418,97.35449735449737 97.989417989418,97.989417989418 97.989417989418,98.62433862433863 98.2010582010582,99.25925925925927 98.2010582010582,99.8941798941799 98.41269841269842,100.52910052910053 98.62433862433863,101.16402116402116 98.62433862433863,101.79894179894181 98.83597883597885,102.43386243386244 99.04761904761905,103.06878306878308 99.25925925925927,103.70370370370371 99.47089947089948,104.33862433862434 99.68253968253968,104.97354497354497 100.10582010582011,105.60846560846562 100.31746031746033,106.24338624338625 100.74074074074075,106.66666666666667 100.95238095238096,107.3015873015873 101.37566137566138,107.93650793650795 101.5873015873016,108.57142857142858 102.01058201058201,109.20634920634922 102.43386243386244,109.62962962962963 102.85714285714286,110.26455026455027 103.28042328042329,110.89947089947091 103.70370370370371,111.32275132275133 104.12698412698414,111.74603174603176 104.55026455026456,112.16931216931218 104.97354497354497,112.5925925925926 105.3968253968254,113.01587301587303 106.03174603174604,113.43915343915344 106.66666666666667,113.86243386243387 107.3015873015873,114.07407407407408 107.93650793650795,114.49735449735451 108.57142857142858,114.49735449735451 109.20634920634922,114.70899470899472 109.84126984126985,114.70899470899472 110.47619047619048,114.70899470899472 111.11111111111111,114.92063492063492 111.74603174603176,114.92063492063492 112.3809523809524,114.92063492063492 113.01587301587303,114.92063492063492 113.65079365079366,114.70899470899472 114.28571428571429,114.49735449735451 114.92063492063492,114.49735449735451 115.55555555555557,114.49735449735451 116.1904761904762,114.28571428571429 116.82539682539684,114.07407407407408 117.46031746031747,113.86243386243387 118.0952380952381,113.65079365079366 118.73015873015873,113.43915343915344 119.36507936507937,113.22751322751324 120.00000000000001,113.01587301587303 120.63492063492065,112.5925925925926 121.26984126984128,112.3809523809524 121.90476190476191,111.95767195767196 122.53968253968254,111.74603174603176 123.17460317460318,111.32275132275133 123.80952380952382,110.89947089947091 124.44444444444446,110.47619047619048 125.07936507936509,110.05291005291006 125.71428571428572,109.62962962962963 126.34920634920636,109.20634920634922 126.98412698412699,108.78306878306879 127.61904761904763,108.57142857142858 128.04232804232805,108.14814814814815 128.67724867724868,107.72486772486774 129.31216931216932,107.72486772486774 129.94708994708995,107.51322751322752 130.58201058201058,107.51322751322752 131.21693121693121,107.51322751322752 131.85185185185185,107.72486772486774 132.4867724867725,107.51322751322752 133.12169312169314,107.72486772486774 133.75661375661377,107.93650793650795 134.3915343915344,108.14814814814815 135.02645502645504,108.35978835978837 135.66137566137567,108.78306878306879 136.2962962962963,109.20634920634922 136.71957671957674,109.62962962962963 136.93121693121694,110.26455026455027 137.14285714285717,110.89947089947091 137.56613756613757,111.53439153439155 137.7777777777778,112.16931216931218 137.989417989418,112.80423280423281 137.989417989418,113.43915343915344 138.2010582010582,114.07407407407408 138.2010582010582,114.70899470899472 138.41269841269843,115.34391534391536 138.41269841269843,115.97883597883599 138.41269841269843,116.61375661375662 138.62433862433863,117.24867724867725 138.62433862433863,117.88359788359789 138.62433862433863,118.51851851851853 138.83597883597884,119.15343915343917 138.83597883597884,119.7883597883598 138.83597883597884,120.42328042328043 138.83597883597884,121.05820105820106 138.83597883597884,121.6931216931217 138.83597883597884,122.32804232804234 139.04761904761907,122.96296296296298 139.04761904761907,123.59788359788361 139.04761904761907,124.23280423280424 139.04761904761907,124.86772486772487 139.25925925925927,125.5026455026455 139.25925925925927,126.13756613756615 139.25925925925927,126.77248677248679 139.25925925925927,127.40740740740742 139.25925925925927,128.04232804232805 139.6825396825397,128.67724867724868 139.6825396825397,129.31216931216932 139.6825396825397,129.94708994708995 139.6825396825397,130.58201058201058 139.8941798941799,131.21693121693121 139.8941798941799,131.85185185185185 139.8941798941799,132.4867724867725 139.8941798941799,133.12169312169314 139.8941798941799,133.75661375661377 140.10582010582013,134.3915343915344 140.10582010582013,135.02645502645504 140.10582010582013,135.66137566137567 140.31746031746033,136.2962962962963 140.31746031746033,136.93121693121694 140.31746031746033,137.56613756613757 140.52910052910053,138.2010582010582 140.31746031746033,138.83597883597884 140.52910052910053,139.47089947089947 140.52910052910053,140.10582010582013 140.52910052910053,140.74074074074076 140.52910052910053,141.3756613756614 140.74074074074076,142.01058201058203 140.74074074074076,142.64550264550266 140.74074074074076,143.2804232804233 140.74074074074076,143.91534391534393 140.74074074074076,144.55026455026456 140.95238095238096,145.1851851851852 140.95238095238096,145.82010582010582 140.95238095238096,146.45502645502646 140.95238095238096,147.0899470899471 140.95238095238096,147.72486772486775 141.16402116402116,148.35978835978838 141.16402116402116,148.99470899470901 141.16402116402116,149.62962962962965 141.16402116402116,150.26455026455028 141.16402116402116,150.8994708994709 141.3756613756614,151.53439153439155 141.3756613756614,152.16931216931218 141.3756613756614,152.8042328042328 141.3756613756614,153.43915343915344 141.5873015873016,154.07407407407408 141.5873015873016,154.7089947089947 141.5873015873016,155.34391534391534 141.5873015873016,155.978835978836 141.5873015873016,156.61375661375664 141.7989417989418,157.24867724867727 141.7989417989418,157.8835978835979 141.7989417989418,158.51851851851853 141.7989417989418,159.15343915343917 142.01058201058203,159.7883597883598 142.01058201058203,160.42328042328043 142.01058201058203,161.05820105820106 142.01058201058203,161.6931216931217 142.01058201058203,162.32804232804233 142.01058201058203,162.96296296296296 142.22222222222223,163.59788359788362 142.22222222222223,164.23280423280426 142.22222222222223,164.8677248677249 142.43386243386246,165.50264550264552 142.43386243386246,166.13756613756615 142.43386243386246,166.7724867724868 142.64550264550266,167.40740740740742 142.64550264550266,168.04232804232805 142.64550264550266,168.67724867724868 142.64550264550266,169.31216931216932 142.85714285714286,169.94708994708995 142.85714285714286,170.58201058201058 142.85714285714286,171.21693121693124 142.85714285714286,171.85185185185188 143.0687830687831,172.4867724867725 143.0687830687831,173.12169312169314 143.0687830687831,173.75661375661377 143.2804232804233,174.3915343915344 143.2804232804233,175.02645502645504 143.2804232804233,175.66137566137567 143.4920634920635,176.2962962962963 143.4920634920635,176.93121693121694 143.4920634920635,177.56613756613757 143.4920634920635,178.2010582010582 143.70370370370372,178.83597883597884 143.70370370370372,179.4708994708995 143.70370370370372,180.10582010582013 143.70370370370372,180.74074074074076 143.70370370370372,181.3756613756614 143.70370370370372,182.01058201058203 143.91534391534393,182.64550264550266 143.91534391534393,183.2804232804233 143.91534391534393,183.91534391534393 144.12698412698413,184.55026455026456 144.12698412698413,185.1851851851852 144.12698412698413,185.82010582010582 144.12698412698413,186.45502645502646 144.12698412698413,187.08994708994712 144.33862433862436,187.72486772486775 144.33862433862436,188.35978835978838 144.33862433862436,188.99470899470901 144.33862433862436,189.62962962962965 144.55026455026456,190.26455026455028 144.55026455026456,190.8994708994709 144.55026455026456,191.53439153439155 144.55026455026456,192.16931216931218 144.76190476190476,192.8042328042328 144.76190476190476,193.43915343915344 144.76190476190476,194.07407407407408 144.76190476190476,194.70899470899474 144.76190476190476,195.34391534391537 144.973544973545,195.978835978836 144.973544973545,196.61375661375664 144.973544973545,197.24867724867727 145.1851851851852,197.8835978835979 145.39682539682542,198.51851851851853 145.39682539682542,199.15343915343917 145.39682539682542,199.7883597883598 145.60846560846562,200.42328042328043 145.60846560846562,201.05820105820106 145.60846560846562,201.6931216931217 145.60846560846562,202.32804232804233 145.82010582010582,202.962962962963 145.82010582010582,203.59788359788362 146.45502645502646,207.83068783068785" style="fill:none; stroke:#999900; stroke-width:1.0"  /><polyline points="146.45502645502646,207.83068783068785 142.64550264550266,207.19576719576722 142.01058201058203,206.984126984127 141.3756613756614,206.984126984127 140.74074074074076,206.7724867724868 140.10582010582013,206.7724867724868 139.47089947089947,206.7724867724868 138.83597883597884,206.56084656084658 138.2010582010582,206.56084656084658 137.56613756613757,206.56084656084658 136.93121693121694,206.34920634920636 136.2962962962963,206.34920634920636 135.66137566137567,206.13756613756615 135.02645502645504,206.13756613756615 134.3915343915344,205.92592592592595 133.75661375661377,205.92592592592595 133.12169312169314,205.71428571428572 132.4867724867725,205.50264550264552 131.85185185185185,205.50264550264552 131.21693121693121,205.29100529100532 130.58201058201058,205.29100529100532 129.94708994708995,205.29100529100532 129.31216931216932,205.0793650793651 128.67724867724868,204.8677248677249 128.04232804232805,204.65608465608466 127.40740740740742,204.65608465608466 126.77248677248679,204.65608465608466 126.13756613756615,204.44444444444446 125.5026455026455,204.23280423280426 124.86772486772487,204.23280423280426 124.23280423280424,204.02116402116403 123.59788359788361,203.80952380952382 122.96296296296298,203.80952380952382 122.32804232804234,203.59788359788362 121.6931216931217,203.3862433862434 121.05820105820106,203.3862433862434 120.42328042328043,203.1746031746032 119.7883597883598,202.962962962963 119.15343915343917,202.75132275132276 118.51851851851853,202.53968253968256 117.88359788359789,202.32804232804233 117.24867724867725,202.11640211640213 116.61375661375662,202.11640211640213 115.97883597883599,201.90476190476193 115.34391534391536,201.6931216931217 114.70899470899472,201.4814814814815 114.07407407407408,201.2698412698413 113.43915343915344,201.05820105820106 112.80423280423281,200.84656084656086 112.16931216931218,200.63492063492066 111.53439153439155,200.42328042328043 110.89947089947091,200.21164021164023 110.26455026455027,200.00000000000003 109.62962962962963,199.7883597883598 108.994708994709,199.5767195767196 108.35978835978837,199.5767195767196 107.72486772486774,199.36507936507937 107.0899470899471,199.15343915343917 106.45502645502647,198.94179894179896 105.82010582010582,198.51851851851853 105.18518518518519,198.30687830687833 104.55026455026456,198.0952380952381 103.91534391534393,197.8835978835979 103.28042328042329,197.6719576719577 102.64550264550266,197.46031746031747 102.01058201058201,197.03703703703704 101.37566137566138,196.82539682539684 100.74074074074075,196.61375661375664 100.10582010582011,196.4021164021164 99.47089947089948,195.978835978836 98.83597883597885,195.76719576719577 98.2010582010582,195.55555555555557 97.56613756613757,195.13227513227514 96.93121693121694,194.92063492063494 96.2962962962963,194.4973544973545 95.66137566137567,194.2857142857143 95.02645502645504,194.07407407407408 94.39153439153439,193.65079365079367 93.75661375661376,193.43915343915344 93.33333333333334,193.01587301587304 92.69841269841271,192.8042328042328 92.06349206349208,192.3809523809524 91.42857142857143,192.16931216931218 90.7936507936508,191.74603174603175 90.15873015873017,191.53439153439155 89.52380952380953,191.11111111111111 88.8888888888889,190.8994708994709 88.25396825396827,190.47619047619048 87.61904761904762,190.05291005291008 86.98412698412699,189.84126984126985 86.56084656084657,189.41798941798945 85.92592592592594,189.20634920634922 85.29100529100529,188.78306878306879 84.65608465608466,188.35978835978838 84.02116402116403,188.14814814814815 83.59788359788361,187.72486772486775 82.96296296296298,187.51322751322752 82.32804232804233,187.08994708994712 81.6931216931217,186.66666666666669 81.05820105820106,186.24338624338625 80.42328042328043,185.82010582010582 79.7883597883598,185.39682539682542 79.36507936507937,184.973544973545 78.94179894179895,184.55026455026456 78.51851851851852,184.12698412698415 78.0952380952381,183.70370370370372 77.67195767195767,183.0687830687831 77.46031746031747,182.43386243386246 77.24867724867725,181.79894179894183 77.03703703703704,181.16402116402116 77.03703703703704,180.52910052910053 77.03703703703704,179.8941798941799 77.03703703703704,179.25925925925927 77.03703703703704,178.62433862433863 77.24867724867725,177.989417989418 77.46031746031747,177.35449735449737 77.67195767195767,176.71957671957674 77.88359788359789,176.0846560846561 78.0952380952381,175.44973544973547 78.51851851851852,174.81481481481484 78.73015873015873,174.1798941798942 79.15343915343917,173.54497354497354 79.36507936507937,172.9100529100529 79.57671957671958,172.27513227513228 80.0,171.64021164021165 80.21164021164022,171.005291005291 80.42328042328043,170.37037037037038 80.84656084656085,169.73544973544975 81.05820105820106,169.10052910052912 81.48148148148148,168.46560846560848 81.6931216931217,167.83068783068785 82.11640211640213,167.19576719576722 82.53968253968254,166.56084656084658 82.75132275132276,165.92592592592595 82.96296296296298,165.2910052910053 83.3862433862434,164.65608465608466 83.59788359788361,164.02116402116403 84.02116402116403,163.3862433862434 84.02116402116403,162.75132275132276 84.44444444444446,162.32804232804233 84.65608465608466,161.6931216931217 85.07936507936509,161.05820105820106 85.29100529100529,160.42328042328043 85.71428571428572,159.7883597883598 86.13756613756614,159.15343915343917 86.34920634920636,158.51851851851853 86.77248677248677,157.8835978835979 86.98412698412699,157.24867724867727 87.40740740740742,156.61375661375664 87.61904761904762,155.978835978836 88.04232804232805,155.34391534391534 88.46560846560847,154.7089947089947 88.67724867724868,154.07407407407408 88.8888888888889,153.43915343915344 89.31216931216932,152.8042328042328 89.52380952380953,152.16931216931218 89.73544973544975,151.53439153439155 89.94708994708995,150.8994708994709 90.15873015873017,150.26455026455028 90.58201058201058,149.62962962962965 90.7936507936508,148.99470899470901 90.7936507936508,148.35978835978838 91.00529100529101,147.72486772486775 91.00529100529101,147.0899470899471 91.00529100529101,146.45502645502646 91.00529100529101,145.82010582010582 91.00529100529101,145.1851851851852 90.7936507936508,144.55026455026456 90.58201058201058,143.91534391534393 90.37037037037038,143.2804232804233 89.94708994708995,142.64550264550266 89.73544973544975,142.01058201058203 89.52380952380953,141.3756613756614 89.1005291005291,140.74074074074076 88.8888888888889,140.10582010582013 88.46560846560847,139.47089947089947 88.04232804232805,138.83597883597884 87.61904761904762,138.2010582010582 87.1957671957672,137.56613756613757 86.77248677248677,136.93121693121694 86.34920634920636,136.2962962962963 85.92592592592594,135.66137566137567 85.5026455026455,135.23809523809524 85.07936507936509,134.6031746031746 84.65608465608466,134.17989417989418 84.23280423280424,133.75661375661377 83.80952380952381,133.33333333333334 83.3862433862434,132.9100529100529 82.96296296296298,132.4867724867725 82.53968253968254,132.06349206349208 82.11640211640213,131.64021164021165 81.6931216931217,131.21693121693121 81.05820105820106,130.7936507936508 80.63492063492065,130.37037037037038 80.0,129.94708994708995 79.36507936507937,129.52380952380955 78.73015873015873,129.10052910052912 78.0952380952381,128.88888888888889 77.46031746031747,128.46560846560848 76.82539682539684,128.25396825396825 76.19047619047619,128.04232804232805 75.55555555555556,127.61904761904763 74.92063492063492,127.40740740740742 74.28571428571429,127.1957671957672 73.65079365079366,127.1957671957672 73.01587301587303,127.1957671957672 72.38095238095238,126.98412698412699 71.74603174603175,126.98412698412699 71.11111111111111,126.77248677248679 70.47619047619048,126.77248677248679 69.84126984126985,126.77248677248679 69.20634920634922,126.77248677248679 68.57142857142858,126.77248677248679 67.93650793650794,126.77248677248679 67.3015873015873,126.98412698412699 66.66666666666667,126.98412698412699 66.03174603174604,127.1957671957672 65.3968253968254,127.1957671957672 64.76190476190477,127.40740740740742 64.12698412698413,127.61904761904763 63.492063492063494,127.83068783068784 62.85714285714286,128.04232804232805 62.22222222222223,128.25396825396825 61.58730158730159,128.46560846560848 61.16402116402117,128.88888888888889 60.52910052910053,129.10052910052912 60.10582010582011,129.52380952380955 59.470899470899475,129.94708994708995 58.83597883597884,130.37037037037038 58.2010582010582,130.7936507936508 57.56613756613757,131.21693121693121 57.142857142857146,131.64021164021165 56.71957671957672,132.06349206349208 56.2962962962963,132.4867724867725 55.87301587301588,132.9100529100529 55.449735449735456,133.33333333333334 55.02645502645503,133.75661375661377 54.60317460317461,134.17989417989418 54.179894179894184,134.81481481481484 53.75661375661376,135.44973544973547 53.333333333333336,136.0846560846561 52.91005291005291,136.71957671957674 52.48677248677249,137.35449735449737 52.27513227513228,137.989417989418 51.851851851851855,138.62433862433863 51.640211640211646,139.25925925925927 51.42857142857143,139.8941798941799 51.00529100529101,140.52910052910053 51.00529100529101,141.16402116402116 50.7936507936508,141.7989417989418 50.58201058201058,142.43386243386246 50.58201058201058,143.0687830687831 50.58201058201058,143.70370370370372 50.58201058201058,144.33862433862436 50.58201058201058,144.973544973545 50.58201058201058,145.60846560846562 50.7936507936508,146.24338624338625 51.00529100529101,146.8783068783069 51.00529100529101,147.51322751322752 51.21693121693122,148.14814814814815 51.42857142857143,148.78306878306879 51.851851851851855,149.41798941798942 52.27513227513228,150.05291005291005 52.48677248677249,150.6878306878307 52.91005291005291,151.11111111111111 53.12169312169313,151.74603174603175 53.333333333333336,152.38095238095238 53.75661375661376,153.01587301587304 54.179894179894184,153.65079365079367 54.39153439153439,154.2857142857143 54.81481481481482,154.92063492063494 55.23809523809524,155.55555555555557 55.449735449735456,156.1904761904762 55.87301587301588,156.82539682539684 56.2962962962963,157.24867724867727 56.71957671957672,157.8835978835979 56.93121693121694,158.51851851851853 57.35449735449736,159.15343915343917 57.777777777777786,159.5767195767196 57.989417989417994,160.21164021164023 58.41269841269842,160.63492063492066 58.83597883597884,161.2698412698413 59.04761904761905,161.90476190476193 59.470899470899475,162.53968253968256 59.8941798941799,163.1746031746032 60.31746031746032,163.59788359788362 60.52910052910053,164.23280423280426 60.74074074074075,164.8677248677249 61.16402116402117,165.50264550264552 61.16402116402117,166.13756613756615 61.37566137566138,166.7724867724868 61.58730158730159,167.40740740740742 61.798941798941804,168.04232804232805 61.798941798941804,168.67724867724868 62.01058201058201,169.31216931216932 62.01058201058201,169.94708994708995 62.01058201058201,170.58201058201058 62.01058201058201,171.21693121693124 62.01058201058201,171.85185185185188 62.01058201058201,172.4867724867725 62.01058201058201,173.12169312169314 61.798941798941804,173.75661375661377 61.58730158730159,174.3915343915344 61.37566137566138,175.02645502645504 61.16402116402117,175.66137566137567 61.16402116402117,176.2962962962963 60.952380952380956,176.93121693121694 60.52910052910053,177.56613756613757 60.31746031746032,178.2010582010582 59.8941798941799,178.83597883597884 59.470899470899475,179.4708994708995 59.04761904761905,180.10582010582013 58.62433862433863,180.74074074074076 58.2010582010582,181.16402116402116 57.777777777777786,181.5873015873016 57.35449735449736,182.01058201058203 56.93121693121694,182.43386243386246 56.50793650793651,182.85714285714286 55.87301587301588,183.2804232804233 55.23809523809524,183.70370370370372 54.60317460317461,184.12698412698415 53.968253968253975,184.33862433862436 53.54497354497355,184.7619047619048 52.91005291005291,184.973544973545 52.27513227513228,185.1851851851852 51.640211640211646,185.39682539682542 51.00529100529101,185.60846560846562 50.370370370370374,185.82010582010582 49.73544973544974,185.82010582010582 49.1005291005291,186.03174603174605 48.46560846560847,186.24338624338625 47.830687830687836,186.24338624338625 47.195767195767196,186.45502645502646 46.560846560846564,186.45502645502646 45.92592592592593,186.66666666666669 45.29100529100529,186.66666666666669 44.65608465608466,186.8783068783069 44.021164021164026,186.8783068783069 43.386243386243386,186.8783068783069 42.75132275132275,187.08994708994712 42.11640211640212,187.08994708994712 41.48148148148149,187.08994708994712 40.84656084656085,187.08994708994712 40.211640211640216,187.30158730158732 39.57671957671958,187.30158730158732 38.94179894179894,187.30158730158732 38.30687830687831,187.51322751322752 37.67195767195768,187.51322751322752 37.03703703703704,187.51322751322752 36.402116402116405,187.51322751322752 35.76719576719577,187.51322751322752 35.13227513227513,187.51322751322752 34.4973544973545,187.51322751322752 33.86243386243387,187.51322751322752 33.22751322751323,187.51322751322752 32.592592592592595,187.51322751322752 31.95767195767196,187.51322751322752 31.322751322751326,187.30158730158732 30.68783068783069,187.30158730158732 30.052910052910054,187.30158730158732 29.41798941798942,187.30158730158732 28.783068783068785,187.08994708994712 28.14814814814815,187.08994708994712 27.513227513227516,186.8783068783069 26.87830687830688,186.8783068783069 26.243386243386244,186.66666666666669 25.60846560846561,186.66666666666669 24.973544973544975,186.66666666666669 24.338624338624342,186.45502645502646 23.703703703703706,186.45502645502646 23.06878306878307,186.24338624338625 22.433862433862437,186.03174603174605 21.7989417989418,186.03174603174605 21.164021164021165,185.82010582010582 20.529100529100532,185.82010582010582 19.894179894179896,185.60846560846562 19.25925925925926,185.39682539682542 18.624338624338627,185.1851851851852 17.98941798941799,185.1851851851852 17.354497354497354,184.973544973545 16.71957671957672,184.973544973545 12.910052910052912,184.12698412698415" style="fill:none; stroke:#00aa99; stroke-width:1.0"  /><polyline points="12.910052910052912,184.12698412698415 13.544973544973546,180.95238095238096 13.756613756613758,180.31746031746033 13.756613756613758,179.6825396825397 13.96825396825397,179.04761904761907 13.96825396825397,178.41269841269843 14.17989417989418,177.7777777777778 14.17989417989418,177.14285714285717 14.17989417989418,176.50793650793653 14.391534391534393,175.87301587301587 14.391534391534393,175.23809523809524 14.603174603174605,174.6031746031746 14.603174603174605,173.96825396825398 14.814814814814817,173.33333333333334 15.026455026455027,172.6984126984127 15.026455026455027,172.06349206349208 15.238095238095239,171.42857142857144 15.238095238095239,170.7936507936508 15.449735449735451,170.15873015873018 15.661375661375663,169.52380952380955 15.661375661375663,168.8888888888889 15.873015873015873,168.25396825396825 16.084656084656086,167.61904761904762 16.084656084656086,166.984126984127 16.296296296296298,166.34920634920636 16.50793650793651,165.71428571428572 16.50793650793651,165.0793650793651 16.71957671957672,164.44444444444446 16.71957671957672,163.80952380952382 16.71957671957672,163.1746031746032 16.931216931216934,162.53968253968256 17.142857142857146,161.90476190476193 17.142857142857146,161.2698412698413 17.354497354497354,160.63492063492066 17.566137566137566,160.0 17.566137566137566,159.36507936507937 17.77777777777778,158.73015873015873 17.98941798941799,158.0952380952381 18.201058201058203,157.46031746031747 18.201058201058203,156.82539682539684 18.412698412698415,156.1904761904762 18.624338624338627,155.55555555555557 18.83597883597884,154.92063492063494 19.047619047619047,154.2857142857143 19.047619047619047,153.65079365079367 19.25925925925926,153.01587301587304 19.47089947089947,152.38095238095238 19.47089947089947,151.74603174603175 19.682539682539684,151.11111111111111 19.894179894179896,150.47619047619048 20.105820105820108,149.84126984126985 20.31746031746032,149.20634920634922 20.31746031746032,148.57142857142858 20.529100529100532,147.93650793650795 20.740740740740744,147.30158730158732 20.952380952380953,146.66666666666669 21.164021164021165,146.03174603174605 21.164021164021165,145.39682539682542 21.375661375661377,144.76190476190476 21.58730158730159,144.12698412698413 21.7989417989418,143.4920634920635 22.010582010582013,142.85714285714286 22.010582010582013,142.22222222222223 22.222222222222225,141.5873015873016 22.433862433862437,140.95238095238096 22.645502645502646,140.31746031746033 22.645502645502646,139.6825396825397 22.857142857142858,139.04761904761907 23.06878306878307,138.41269841269843 23.280423280423282,137.7777777777778 23.280423280423282,137.14285714285717 23.492063492063494,136.5079365079365 23.703703703703706,135.87301587301587 23.915343915343918,135.23809523809524 23.915343915343918,134.6031746031746 24.12698412698413,133.96825396825398 24.338624338624342,133.33333333333334 24.338624338624342,132.6984126984127 24.55026455026455,132.06349206349208 24.55026455026455,131.42857142857144 24.761904761904763,130.7936507936508 24.761904761904763,130.15873015873018 24.973544973544975,129.52380952380955 24.973544973544975,128.88888888888889 24.973544973544975,128.25396825396825 24.973544973544975,127.61904761904763 25.185185185185187,126.98412698412699 25.185185185185187,126.34920634920636 25.185185185185187,125.71428571428572 25.3968253968254,125.07936507936509 25.3968253968254,124.44444444444446 25.60846560846561,123.80952380952382 25.60846560846561,123.17460317460318 25.60846560846561,122.53968253968254 25.60846560846561,121.90476190476191 25.820105820105823,121.26984126984128 25.820105820105823,120.63492063492065 25.820105820105823,120.00000000000001 25.820105820105823,119.36507936507937 25.820105820105823,118.73015873015873 25.820105820105823,118.0952380952381 25.820105820105823,117.46031746031747 25.820105820105823,116.82539682539684 26.031746031746035,116.1904761904762 26.031746031746035,115.55555555555557 26.031746031746035,114.92063492063492 25.820105820105823,114.28571428571429 25.820105820105823,113.65079365079366 25.820105820105823,113.01587301587303 25.820105820105823,112.3809523809524 25.820105820105823,111.74603174603176 25.820105820105823,111.11111111111111 25.820105820105823,110.47619047619048 25.820105820105823,109.84126984126985 25.820105820105823,109.20634920634922 25.820105820105823,108.57142857142858 25.820105820105823,107.93650793650795 25.820105820105823,107.3015873015873 25.820105820105823,106.66666666666667 25.60846560846561,106.03174603174604 25.60846560846561,105.3968253968254 25.60846560846561,104.76190476190477 25.60846560846561,104.12698412698414 25.3968253968254,103.4920634920635 25.3968253968254,102.85714285714286 25.3968253968254,102.22222222222223 25.3968253968254,101.5873015873016 25.3968253968254,100.95238095238096 25.185185185185187,100.31746031746033 25.185185185185187,99.68253968253968 25.185185185185187,99.04761904761905 24.973544973544975,98.41269841269842 24.973544973544975,97.77777777777779 24.973544973544975,97.14285714285715 24.761904761904763,96.50793650793652 24.761904761904763,95.87301587301587 24.761904761904763,95.23809523809524 24.55026455026455,94.60317460317461 24.338624338624342,93.96825396825398 24.12698412698413,93.33333333333334 23.703703703703706,92.69841269841271 23.492063492063494,92.06349206349208 23.06878306878307,91.42857142857143 22.645502645502646,91.00529100529101 22.222222222222225,90.37037037037038 21.7989417989418,89.94708994708995 21.375661375661377,89.52380952380953 20.952380952380953,89.1005291005291 20.31746031746032,88.67724867724868 19.682539682539684,88.25396825396827 19.047619047619047,88.04232804232805 18.412698412698415,87.83068783068784 17.77777777777778,87.61904761904762 17.142857142857146,87.40740740740742 16.50793650793651,87.1957671957672 15.873015873015873,87.1957671957672 15.238095238095239,87.1957671957672 14.603174603174605,86.98412698412699 13.96825396825397,86.98412698412699 13.333333333333334,86.77248677248677 12.6984126984127,86.77248677248677 12.063492063492065,86.56084656084657 11.428571428571429,86.34920634920636 10.793650793650794,86.34920634920636 10.15873015873016,86.13756613756614 9.523809523809524,85.92592592592594 8.88888888888889,85.71428571428572 8.253968253968255,85.5026455026455 7.6190476190476195,85.29100529100529 6.984126984126985,84.86772486772487 6.34920634920635,84.65608465608466 5.714285714285714,84.23280423280424 5.07936507936508,83.80952380952381 4.444444444444445,83.3862433862434 4.021164021164021,82.96296296296298 3.597883597883598,82.53968253968254 2.9629629629629632,82.11640211640213 2.53968253968254,81.48148148148148 2.1164021164021167,80.84656084656085 1.9047619047619049,80.21164021164022 1.4814814814814816,79.57671957671958 1.26984126984127,78.94179894179895 1.0582010582010584,78.30687830687832 0.8465608465608466,77.67195767195767 0.634920634920635,77.03703703703704 0.4232804232804233,76.4021164021164 0.4232804232804233,75.76719576719577 0.21164021164021166,75.13227513227514 0.21164021164021166,74.49735449735451 0.21164021164021166,73.86243386243387 0.21164021164021166,73.22751322751323 0.4232804232804233,72.5925925925926 0.4232804232804233,71.95767195767196 0.634920634920635,71.32275132275133 0.634920634920635,70.6878306878307 0.8465608465608466,70.05291005291006 1.0582010582010584,69.41798941798942 1.26984126984127,68.78306878306879 1.4814814814814816,68.14814814814815 1.6931216931216932,67.51322751322752 1.9047619047619049,66.87830687830689 2.3280423280423284,66.24338624338625 2.53968253968254,65.60846560846561 2.7513227513227516,64.97354497354497 3.174603174603175,64.55026455026456 3.3862433862433865,63.91534391534392 3.8095238095238098,63.280423280423285 4.021164021164021,62.64550264550265 4.444444444444445,62.22222222222223 4.867724867724868,61.58730158730159 5.291005291005291,61.16402116402117 5.714285714285714,60.74074074074075 6.34920634920635,60.31746031746032 6.984126984126985,60.10582010582011 7.407407407407408,59.682539682539684 8.042328042328043,59.470899470899475 8.677248677248677,59.470899470899475 9.312169312169313,59.25925925925927 9.947089947089948,59.04761904761905 10.582010582010582,58.83597883597884 11.216931216931219,58.83597883597884 11.851851851851853,58.83597883597884 12.486772486772487,59.04761904761905 13.121693121693122,59.04761904761905 13.756613756613758,59.25925925925927 14.391534391534393,59.25925925925927 15.026455026455027,59.25925925925927 15.661375661375663,59.470899470899475 16.296296296296298,59.470899470899475 16.931216931216934,59.682539682539684 17.566137566137566,59.8941798941799 18.201058201058203,59.8941798941799 18.83597883597884,60.10582010582011 19.47089947089947,60.31746031746032 20.105820105820108,60.31746031746032 20.740740740740744,60.52910052910053 21.375661375661377,60.52910052910053 22.010582010582013,60.74074074074075 22.645502645502646,60.74074074074075 23.280423280423282,60.952380952380956 23.915343915343918,60.952380952380956 24.55026455026455,60.952380952380956 25.185185185185187,60.952380952380956 25.820105820105823,60.952380952380956 26.455026455026456,60.952380952380956 27.089947089947092,61.16402116402117 27.724867724867728,60.952380952380956 28.35978835978836,60.74074074074075 28.994708994708997,60.52910052910053 29.41798941798942,60.10582010582011 30.052910052910054,59.8941798941799 30.476190476190478,59.470899470899475 30.899470899470902,59.04761904761905 31.322751322751326,58.62433862433863 31.53439153439154,57.989417989417994 31.746031746031747,57.35449735449736 32.16931216931217,56.71957671957672 32.38095238095239,56.08465608465609 32.38095238095239,55.449735449735456 32.38095238095239,54.81481481481482 32.592592592592595,54.179894179894184 32.38095238095239,53.54497354497355 32.38095238095239,52.91005291005291 32.38095238095239,52.27513227513228 32.38095238095239,51.640211640211646 32.16931216931217,51.00529100529101 32.16931216931217,50.370370370370374 31.95767195767196,49.73544973544974 31.746031746031747,49.1005291005291 31.746031746031747,48.46560846560847 31.53439153439154,47.830687830687836 31.322751322751326,47.195767195767196 31.111111111111114,46.560846560846564 31.111111111111114,45.92592592592593 30.899470899470902,45.29100529100529 30.68783068783069,44.65608465608466 30.476190476190478,44.021164021164026 30.264550264550266,43.386243386243386 30.052910052910054,42.75132275132275 29.841269841269842,42.11640211640212 29.41798941798942,41.48148148148149 29.20634920634921,40.84656084656085 28.994708994708997,40.211640211640216 28.571428571428573,39.57671957671958 28.35978835978836,38.94179894179894 28.14814814814815,38.30687830687831 27.724867724867728,37.883597883597886 27.513227513227516,37.248677248677254 25.820105820105823,33.43915343915344" style="fill:none; stroke:#3300bb; stroke-width:1.0"  /><circle cx="25.820105820105823" cy="33.43915343915344" r="2.0" style="fill:none; stroke:#000000aa; stroke-width:0.25" /><circle cx="135.23809523809524" cy="41.6931216931217" r="2.0" style="fill:none; stroke:#000000aa; stroke-width:0.25" /><circle cx="146.45502645502646" cy="207.83068783068785" r="2.0" style="fill:none; stroke:#000000aa; stroke-width:0.25" /><circle cx="12.910052910052912" cy="184.12698412698415" r="2.0" style="fill:none; stroke:#000000aa; stroke-width:0.25" /><circle cx="25.820105820105823" cy="34.074074074074076" r="2.0" style="fill:none; stroke:#ff3366aa; stroke-width:0.25" /><circle cx="134.81481481481484" cy="42.539682539682545" r="2.0" style="fill:none; stroke:#ff3366aa; stroke-width:0.25" /><circle cx="145.82010582010582" cy="206.984126984127" r="2.0" style="fill:none; stroke:#ff3366aa; stroke-width:0.25" /><circle cx="13.333333333333334" cy="184.12698412698415" r="2.0" style="fill:none; stroke:#ff3366aa; stroke-width:0.25" /><polyline points="37.248677248677254,32.804232804232804 36.613756613756614,32.804232804232804 35.97883597883598,32.804232804232804 35.34391534391535,32.804232804232804 34.70899470899471,32.804232804232804 34.074074074074076,32.804232804232804 33.43915343915344,32.804232804232804 32.804232804232804,32.804232804232804 32.16931216931217,33.01587301587302 31.53439153439154,33.01587301587302 30.899470899470902,33.01587301587302 30.264550264550266,33.22751322751323 29.629629629629633,33.22751322751323 28.994708994708997,33.22751322751323" style="fill:none; stroke:#001100; stroke-width:1.0" /><polyline points="30.68783068783069,44.65608465608466 30.476190476190478,44.021164021164026 30.264550264550266,43.386243386243386 30.052910052910054,42.75132275132275 29.841269841269842,42.11640211640212 29.41798941798942,41.48148148148149 29.20634920634921,40.84656084656085 28.994708994708997,40.211640211640216 28.571428571428573,39.57671957671958 28.35978835978836,38.94179894179894 28.14814814814815,38.30687830687831 27.724867724867728,37.883597883597886 27.513227513227516,37.248677248677254" style="fill:none; stroke:#000011; stroke-width:1.0" /><polyline points="135.23809523809524,53.968253968253975 135.23809523809524,53.333333333333336 135.23809523809524,52.6984126984127 135.23809523809524,52.06349206349207 135.23809523809524,51.42857142857143 135.23809523809524,50.7936507936508 135.23809523809524,50.158730158730165 135.23809523809524,49.523809523809526 135.02645502645504,48.88888888888889 135.23809523809524,48.25396825396826 135.23809523809524,47.61904761904762 135.23809523809524,46.98412698412699 135.23809523809524,46.349206349206355 135.23809523809524,45.714285714285715" style="fill:none; stroke:#001100; stroke-width:1.0" /><polyline points="123.17460317460318,42.11640211640212 123.80952380952382,42.11640211640212 124.44444444444446,42.11640211640212 125.07936507936509,42.11640211640212 125.71428571428572,41.904761904761905 126.34920634920636,41.904761904761905 126.98412698412699,41.904761904761905 127.61904761904763,41.904761904761905 128.25396825396825,41.904761904761905 128.88888888888889,41.904761904761905 129.52380952380955,41.6931216931217 130.15873015873018,41.6931216931217 130.7936507936508,41.6931216931217 131.42857142857144,41.904761904761905" style="fill:none; stroke:#000011; stroke-width:1.0" /><polyline points="134.3915343915344,205.92592592592595 135.02645502645504,206.13756613756615 135.66137566137567,206.13756613756615 136.2962962962963,206.34920634920636 136.93121693121694,206.34920634920636 137.56613756613757,206.56084656084658 138.2010582010582,206.56084656084658 138.83597883597884,206.56084656084658 139.47089947089947,206.7724867724868 140.10582010582013,206.7724867724868 140.74074074074076,206.7724867724868 141.3756613756614,206.984126984127 142.01058201058203,206.984126984127 142.64550264550266,207.19576719576722" style="fill:none; stroke:#001100; stroke-width:1.0" /><polyline points="144.76190476190476,195.34391534391537 144.973544973545,195.978835978836 144.973544973545,196.61375661375664 144.973544973545,197.24867724867727 145.1851851851852,197.8835978835979 145.39682539682542,198.51851851851853 145.39682539682542,199.15343915343917 145.39682539682542,199.7883597883598 145.60846560846562,200.42328042328043 145.60846560846562,201.05820105820106 145.60846560846562,201.6931216931217 145.60846560846562,202.32804232804233 145.82010582010582,202.962962962963 145.82010582010582,203.59788359788362" style="fill:none; stroke:#000011; stroke-width:1.0" /><polyline points="15.026455026455027,172.6984126984127 14.814814814814817,173.33333333333334 14.603174603174605,173.96825396825398 14.603174603174605,174.6031746031746 14.391534391534393,175.23809523809524 14.391534391534393,175.87301587301587 14.17989417989418,176.50793650793653 14.17989417989418,177.14285714285717 14.17989417989418,177.7777777777778 13.96825396825397,178.41269841269843 13.96825396825397,179.04761904761907 13.756613756613758,179.6825396825397 13.756613756613758,180.31746031746033 13.544973544973546,180.95238095238096" style="fill:none; stroke:#001100; stroke-width:1.0" /><polyline points="24.973544973544975,186.66666666666669 24.338624338624342,186.45502645502646 23.703703703703706,186.45502645502646 23.06878306878307,186.24338624338625 22.433862433862437,186.03174603174605 21.7989417989418,186.03174603174605 21.164021164021165,185.82010582010582 20.529100529100532,185.82010582010582 19.894179894179896,185.60846560846562 19.25925925925926,185.39682539682542 18.624338624338627,185.1851851851852 17.98941798941799,185.1851851851852 17.354497354497354,184.973544973545 16.71957671957672,184.973544973545" style="fill:none; stroke:#000011; stroke-width:1.0" /><polyline points="28.994708994708997,33.22751322751323 7.830687830687832,34.28571428571429" style="fill:none; stroke:#ffaa00; stroke-width:0.4" /><polyline points="27.513227513227516,37.248677248677254 19.25925925925926,17.77777777777778" style="fill:none; stroke:#aaff00; stroke-width:0.4" /><polyline points="135.23809523809524,45.714285714285715 135.23809523809524,24.55026455026455" style="fill:none; stroke:#ffaa00; stroke-width:0.4" /><polyline points="131.42857142857144,41.904761904761905 152.5925925925926,41.26984126984127" style="fill:none; stroke:#aaff00; stroke-width:0.4" /><polyline points="142.64550264550266,207.19576719576722 163.59788359788362,210.37037037037038" style="fill:none; stroke:#ffaa00; stroke-width:0.4" /><polyline points="145.82010582010582,203.59788359788362 148.57142857142858,224.55026455026456" style="fill:none; stroke:#aaff00; stroke-width:0.4" /><polyline points="13.544973544973546,180.95238095238096 9.735449735449736,201.6931216931217" style="fill:none; stroke:#ffaa00; stroke-width:0.4" /><polyline points="16.71957671957672,184.973544973545 -4.021164021164021,180.74074074074076" style="fill:none; stroke:#aaff00; stroke-width:0.4" /><circle cx="78.94179894179895" cy="110.05291005291006" r="1.0" style="fill:#444444; stroke-width:0" /><circle cx="60.952380952380956" cy="81.90476190476191" r="10.582010582010582" style="fill:#ff770022; stroke-width:0" /><circle cx="60.952380952380956" cy="81.90476190476191" r="1.0" style="fill:#ff7700; stroke-width:0" /></svg>