<?xml version="1.0" encoding="UTF-8" standalone="no"?><svg width="541.5873015873017" height="578.4126984126984" viewBox="-10 -10 200.52910052910053 212.8042328042328" xmlns="http://www.w3.org/2000/svg" xmlns:xlink="http://www.w3.org/1999/xlink"><polyline points="0.21164021164021166,89.52380952380953 2.53968253968254,87.40740740740742 2.9629629629629632,86.98412698412699 3.597883597883598,86.56084656084657 4.021164021164021,85.92592592592594 4.444444444444445,85.5026455026455 4.867724867724868,85.07936507936509 5.502645502645503,84.65608465608466 5.9259259259259265,84.23280423280424 6.34920634920635,83.80952380952381 6.772486772486773,83.3862433862434 7.195767195767196,82.96296296296298 7.6190476190476195,82.32804232804233 8.253968253968255,81.90476190476191 8.677248677248677,81.48148148148148 9.312169312169313,81.05820105820106 9.735449735449736,80.63492063492065 10.15873015873016,80.21164021164022 10.582010582010582,79.7883597883598 11.005291005291006,79.36507936507937 11.428571428571429,78.94179894179895 11.851851851851853,78.51851851851852 12.275132275132275,78.0952380952381 12.6984126984127,77.67195767195767 13.121693121693122,77.24867724867725 13.544973544973546,76.82539682539684 13.96825396825397,76.4021164021164 14.391534391534393,75.97883597883599 15.026455026455027,75.55555555555556 15.449735449735451,74.92063492063492 15.873015873015873,74.49735449735451 16.296296296296298,74.07407407407408 16.931216931216934,73.65079365079366 17.354497354497354,73.22751322751323 17.77777777777778,72.80423280423281 18.201058201058203,72.38095238095238 18.624338624338627,71.95767195767196 19.047619047619047,71.53439153439155 19.47089947089947,71.11111111111111 19.894179894179896,70.6878306878307 20.31746031746032,70.26455026455027 20.952380952380953,69.84126984126985 21.375661375661377,69.41798941798942 21.7989417989418,68.994708994709 22.222222222222225,68.57142857142858 22.645502645502646,68.14814814814815 23.06878306878307,67.72486772486774 23.492063492063494,67.3015873015873 23.915343915343918,66.87830687830689 24.338624338624342,66.45502645502646 24.761904761904763,66.03174603174604 25.185185185185187,65.60846560846561 25.60846560846561,64.97354497354497 26.031746031746035,64.55026455026456 26.666666666666668,64.12698412698413 27.089947089947092,63.70370370370371 27.513227513227516,63.280423280423285 27.93650793650794,62.85714285714286 28.35978835978836,62.43386243386244 28.783068783068785,62.01058201058201 29.20634920634921,61.58730158730159 29.629629629629633,61.16402116402117 30.052910052910054,60.74074074074075 30.476190476190478,60.31746031746032 31.111111111111114,59.8941798941799 31.53439153439154,59.470899470899475 31.95767195767196,59.04761904761905 32.38095238095239,58.62433862433863 32.804232804232804,58.2010582010582 33.22751322751323,57.777777777777786 33.65079365079365,57.35449735449736 34.074074074074076,56.93121693121694 34.4973544973545,56.50793650793651 34.920634920634924,56.08465608465609 35.34391534391535,55.661375661375665 35.76719576719577,55.23809523809524 36.19047619047619,54.81481481481482 36.613756613756614,54.39153439153439 37.248677248677254,53.968253968253975 37.67195767195768,53.54497354497355 38.095238095238095,53.12169312169313 38.51851851851852,52.6984126984127 38.94179894179894,52.27513227513228 39.36507936507937,51.851851851851855 39.78835978835979,51.42857142857143 40.211640211640216,50.7936507936508 40.63492063492064,50.370370370370374 41.058201058201064,49.94708994708995 41.48148148148149,49.523809523809526 41.904761904761905,49.1005291005291 42.32804232804233,48.677248677248684 42.96296296296297,48.25396825396826 43.386243386243386,47.830687830687836 43.80952380952381,47.40740740740741 44.232804232804234,46.98412698412699 44.65608465608466,46.560846560846564 45.07936507936508,46.13756613756614 45.50264550264551,45.714285714285715 45.92592592592593,45.29100529100529 46.349206349206355,44.867724867724874 46.77248677248678,44.44444444444445 47.195767195767196,44.021164021164026 47.830687830687836,43.5978835978836 48.25396825396826,43.17460317460318 48.677248677248684,42.75132275132275 49.1005291005291,42.32804232804233 49.523809523809526,41.904761904761905 50.158730158730165,41.48148148148149 50.58201058201058,41.058201058201064 51.00529100529101,40.63492063492064 51.42857142857143,40.211640211640216 51.851851851851855,39.78835978835979 52.27513227513228,39.36507936507937 52.6984126984127,38.94179894179894 53.12169312169313,38.51851851851852 53.54497354497355,38.095238095238095 53.968253968253975,37.67195767195768 54.39153439153439,37.248677248677254 54.81481481481482,36.82539682539683 55.23809523809524,36.402116402116405 55.661375661375665,35.97883597883598 56.08465608465609,35.55555555555556 56.50793650793651,35.13227513227513 56.93121693121694,34.70899470899471 57.35449735449736,34.28571428571429 57.777777777777786,33.86243386243387 58.2010582010582,33.43915343915344 58.83597883597884,33.01587301587302 59.25925925925927,32.592592592592595 59.682539682539684,32.16931216931217 60.10582010582011,31.53439153439154 60.52910052910053,31.111111111111114 60.952380952380956,30.68783068783069 61.37566137566138,30.264550264550266 61.798941798941804,29.841269841269842 62.22222222222223,29.41798941798942 62.64550264550265,28.994708994708997 63.06878306878308,28.571428571428573 63.70370370370371,28.14814814814815 64.12698412698413,27.724867724867728 64.55026455026456,27.301587301587304 64.97354497354497,26.87830687830688 65.3968253968254,26.455026455026456 65.82010582010582,26.031746031746035 66.24338624338625,25.60846560846561 66.66666666666667,25.185185185185187 67.08994708994709,24.761904761904763 67.72486772486774,24.338624338624342 68.14814814814815,23.915343915343918 68.57142857142858,23.492063492063494 68.994708994709,23.06878306878307 69.41798941798942,22.645502645502646 69.84126984126985,22.222222222222225 70.26455026455027,21.7989417989418 70.6878306878307,21.375661375661377 71.32275132275133,20.952380952380953 71.74603174603175,20.529100529100532 72.16931216931218,20.105820105820108 72.5925925925926,19.682539682539684 73.01587301587303,19.25925925925926 73.43915343915344,18.83597883597884 73.86243386243387,18.412698412698415 74.28571428571429,17.98941798941799 74.70899470899471,17.566137566137566 75.13227513227514,17.142857142857146 75.55555555555556,16.71957671957672 75.97883597883599,16.296296296296298 76.4021164021164,15.873015873015873 77.03703703703704,15.449735449735451 77.46031746031747,15.026455026455027 77.88359788359789,14.603174603174605 78.30687830687832,14.17989417989418 78.73015873015873,13.756613756613758 78.94179894179895,13.121693121693122 79.57671957671958,12.910052910052912 80.0,12.486772486772487 80.42328042328043,12.063492063492065 80.84656084656085,11.640211640211641 81.26984126984128,11.216931216931219 81.6931216931217,10.793650793650794 82.11640211640213,10.370370370370372 82.75132275132276,9.947089947089948 83.17460317460318,9.523809523809524 83.59788359788361,9.100529100529101 84.02116402116403,8.677248677248677 84.44444444444446,8.253968253968255 84.86772486772487,7.830687830687832 85.29100529100529,7.407407407407408 85.71428571428572,6.984126984126985 86.13756613756614,6.560846560846561 86.56084656084657,6.137566137566138 86.98412698412699,5.714285714285714 87.61904761904762,5.291005291005291 88.04232804232805,4.656084656084657 88.46560846560847,4.2328042328042335 89.1005291005291,3.8095238095238098 89.52380952380953,3.3862433862433865 89.94708994708995,2.9629629629629632 90.37037037037038,2.53968253968254 93.33333333333334,-0.21164021164021166" style="fill:none; stroke:#cc0000; stroke-width:3.0" stroke-dasharray="6,3" /><polyline points="93.33333333333334,-0.21164021164021166 95.23809523809524,1.9047619047619049 95.66137566137567,2.3280423280423284 96.08465608465609,2.7513227513227516 96.50793650793652,3.174603174603175 96.93121693121694,3.597883597883598 97.35449735449737,4.2328042328042335 97.77777777777779,4.656084656084657 98.2010582010582,5.07936507936508 98.62433862433863,5.714285714285714 99.04761904761905,6.137566137566138 99.47089947089948,6.560846560846561 99.8941798941799,6.984126984126985 100.31746031746033,7.407407407407408 100.74074074074075,8.042328042328043 101.16402116402116,8.465608465608467 101.5873015873016,8.88888888888889 102.01058201058201,9.312169312169313 102.43386243386244,9.947089947089948 102.85714285714286,10.370370370370372 103.28042328042329,10.793650793650794 103.70370370370371,11.216931216931219 104.12698412698414,11.640211640211641 104.55026455026456,12.063492063492065 104.97354497354497,12.6984126984127 105.3968253968254,13.121693121693122 105.82010582010582,13.544973544973546 106.24338624338625,14.17989417989418 106.66666666666667,14.603174603174605 107.0899470899471,15.026455026455027 107.51322751322752,15.661375661375663 107.93650793650795,16.084656084656086 108.35978835978837,16.50793650793651 108.78306878306879,16.931216931216934 109.20634920634922,17.354497354497354 109.62962962962963,17.98941798941799 110.05291005291006,18.412698412698415 110.47619047619048,19.047619047619047 110.89947089947091,19.47089947089947 111.32275132275133,20.105820105820108 111.74603174603176,20.740740740740744 112.16931216931218,21.164021164021165 112.5925925925926,21.7989417989418 113.01587301587303,22.433862433862437 113.43915343915344,23.06878306878307 113.86243386243387,23.703703703703706 114.28571428571429,24.12698412698413 114.49735449735451,24.761904761904763 114.92063492063492,25.185185185185187 115.34391534391536,25.820105820105823 115.76719576719577,26.455026455026456 116.1904761904762,27.089947089947092 116.61375661375662,27.724867724867728 117.03703703703705,28.35978835978836 117.46031746031747,28.994708994708997 117.88359788359789,29.629629629629633 118.0952380952381,30.264550264550266 118.51851851851853,30.68783068783069 118.73015873015873,31.322751322751326 119.15343915343917,31.95767195767196 119.57671957671958,32.592592592592595 119.7883597883598,33.22751322751323 120.21164021164022,33.65079365079365 120.42328042328043,34.28571428571429 120.84656084656086,34.920634920634924 121.05820105820106,35.55555555555556 121.4814814814815,35.97883597883598 121.6931216931217,36.613756613756614 122.11640211640213,37.03703703703704 122.11640211640213,37.67195767195768 122.53968253968254,38.095238095238095 122.75132275132276,38.730158730158735 123.17460317460318,39.15343915343916 123.3862433862434,39.78835978835979 123.80952380952382,40.423280423280424 124.23280423280424,41.058201058201064 124.65608465608466,41.48148148148149 125.07936507936509,42.11640211640212 125.5026455026455,42.75132275132275 125.92592592592594,43.386243386243386 126.34920634920636,44.021164021164026 126.77248677248679,44.65608465608466 127.1957671957672,45.07936507936508 127.61904761904763,45.714285714285715 128.04232804232805,46.349206349206355 128.46560846560848,46.77248677248678 128.88888888888889,47.40740740740741 129.31216931216932,48.042328042328045 129.73544973544975,48.46560846560847 130.15873015873018,48.88888888888889 130.58201058201058,49.31216931216932 131.005291005291,49.94708994708995 131.42857142857144,50.370370370370374 131.85185185185185,50.7936507936508 132.4867724867725,51.21693121693122 132.9100529100529,51.640211640211646 133.33333333333334,52.06349206349207 133.75661375661377,52.48677248677249 134.17989417989418,52.91005291005291 134.6031746031746,53.333333333333336 135.02645502645504,53.75661375661376 135.44973544973547,54.179894179894184 135.87301587301587,54.60317460317461 136.2962962962963,55.02645502645503 136.71957671957674,55.449735449735456 137.35449735449737,55.87301587301588 137.7777777777778,56.2962962962963 138.41269841269843,56.71957671957672 139.04761904761907,57.142857142857146 139.6825396825397,57.35449735449736 140.31746031746033,57.777777777777786 140.95238095238096,57.989417989417994 141.5873015873016,57.989417989417994 142.22222222222223,58.2010582010582 142.85714285714286,58.2010582010582 143.4920634920635,58.2010582010582 144.12698412698413,57.989417989417994 144.76190476190476,57.777777777777786 145.39682539682542,57.777777777777786 145.82010582010582,57.35449735449736 146.45502645502646,57.142857142857146 147.0899470899471,56.71957671957672 147.51322751322752,56.2962962962963 147.93650793650795,55.87301587301588 148.57142857142858,55.449735449735456 148.99470899470901,55.02645502645503 149.41798941798942,54.60317460317461 149.84126984126985,54.179894179894184 150.26455026455028,53.54497354497355 150.47619047619048,52.91005291005291 150.8994708994709,52.27513227513228 151.32275132275134,51.851851851851855 151.53439153439155,51.21693121693122 151.53439153439155,50.58201058201058 151.95767195767198,49.94708994708995 152.38095238095238,49.523809523809526 152.5925925925926,48.88888888888889 153.01587301587304,48.25396825396826 153.43915343915344,47.61904761904762 153.86243386243387,46.98412698412699 154.2857142857143,46.349206349206355 154.7089947089947,45.92592592592593 155.34391534391534,45.50264550264551 155.76719576719577,45.07936507936508 156.1904761904762,44.65608465608466 156.82539682539684,44.232804232804234 157.46031746031747,43.80952380952381 158.0952380952381,43.386243386243386 158.73015873015873,43.17460317460318 159.36507936507937,42.96296296296297 160.0,42.75132275132275 160.63492063492066,42.32804232804233 161.2698412698413,42.32804232804233 161.90476190476193,42.11640211640212 162.53968253968256,42.11640211640212 163.1746031746032,42.11640211640212 163.80952380952382,42.11640211640212 164.44444444444446,42.32804232804233 165.0793650793651,42.11640211640212 165.71428571428572,42.32804232804233 166.34920634920636,42.539682539682545 166.984126984127,42.75132275132275 167.61904761904762,43.17460317460318 168.25396825396825,43.386243386243386 168.8888888888889,43.80952380952381 169.52380952380955,44.232804232804234 170.15873015873018,44.65608465608466 170.7936507936508,45.07936507936508 171.21693121693124,45.50264550264551 171.85185185185188,45.92592592592593 172.4867724867725,46.349206349206355 172.9100529100529,46.77248677248678 173.33333333333334,47.195767195767196 173.75661375661377,47.61904761904762 174.1798941798942,48.042328042328045 174.6031746031746,48.46560846560847 175.02645502645504,48.88888888888889 175.44973544973547,49.523809523809526 175.87301587301587,49.94708994708995 176.2962962962963,50.58201058201058 176.71957671957674,51.00529100529101 176.93121693121694,51.640211640211646 177.35449735449737,52.06349206349207 177.56613756613757,52.6984126984127 177.989417989418,53.333333333333336 178.2010582010582,53.968253968253975 178.41269841269843,54.60317460317461 178.62433862433863,55.23809523809524 178.83597883597884,55.87301587301588 179.04761904761907,56.50793650793651 179.25925925925927,57.142857142857146 179.25925925925927,57.777777777777786 179.4708994708995,58.41269841269842 179.6825396825397,59.04761904761905 179.6825396825397,59.682539682539684 179.8941798941799,60.31746031746032 179.8941798941799,60.952380952380956 180.10582010582013,61.58730158730159 180.10582010582013,62.22222222222223 180.10582010582013,62.85714285714286 180.10582010582013,63.492063492063494 180.10582010582013,64.12698412698413 180.10582010582013,64.76190476190477 179.8941798941799,65.3968253968254 179.8941798941799,66.03174603174604 179.8941798941799,66.66666666666667 179.8941798941799,67.3015873015873 179.6825396825397,67.93650793650794 179.6825396825397,68.57142857142858 179.4708994708995,69.20634920634922 179.25925925925927,69.84126984126985 179.04761904761907,70.47619047619048 178.83597883597884,71.11111111111111 178.62433862433863,71.74603174603175 178.2010582010582,72.16931216931218 177.56613756613757,72.5925925925926 176.93121693121694,72.5925925925926 176.50793650793653,73.01587301587303 175.87301587301587,73.43915343915344 175.23809523809524,73.86243386243387 174.6031746031746,74.07407407407408 173.96825396825398,74.28571428571429 173.33333333333334,74.28571428571429 172.6984126984127,74.49735449735451 172.06349206349208,74.49735449735451 171.42857142857144,74.70899470899471 170.7936507936508,74.70899470899471 170.15873015873018,74.70899470899471 169.52380952380955,74.92063492063492 168.8888888888889,74.70899470899471 168.25396825396825,74.70899470899471 167.61904761904762,74.92063492063492 166.984126984127,74.92063492063492 166.34920634920636,74.92063492063492 165.71428571428572,74.70899470899471 165.0793650793651,74.70899470899471 164.44444444444446,74.92063492063492 163.80952380952382,74.70899470899471 163.1746031746032,74.70899470899471 162.53968253968256,74.49735449735451 161.90476190476193,74.49735449735451 161.2698412698413,74.49735449735451 160.63492063492066,74.28571428571429 160.0,74.28571428571429 159.36507936507937,74.07407407407408 158.73015873015873,74.07407407407408 158.0952380952381,74.07407407407408 157.46031746031747,74.28571428571429 156.82539682539684,74.49735449735451 156.1904761904762,74.49735449735451 155.55555555555557,74.49735449735451 154.92063492063494,74.92063492063492 154.2857142857143,75.34391534391536 153.65079365079367,75.76719576719577 153.22751322751324,76.19047619047619 152.8042328042328,76.61375661375662 152.38095238095238,77.03703703703704 151.95767195767198,77.67195767195767 151.53439153439155,78.30687830687832 151.32275132275134,78.94179894179895 151.11111111111111,79.57671957671958 150.8994708994709,80.21164021164022 150.8994708994709,80.84656084656085 150.8994708994709,81.48148148148148 150.6878306878307,82.11640211640213 150.6878306878307,82.75132275132276 150.8994708994709,83.3862433862434 150.8994708994709,84.02116402116403 151.11111111111111,84.65608465608466 151.11111111111111,85.29100529100529 151.53439153439155,85.92592592592594 151.74603174603175,86.56084656084657 151.95767195767198,87.1957671957672 152.38095238095238,87.83068783068784 152.5925925925926,88.46560846560847 152.8042328042328,89.1005291005291 153.22751322751324,89.73544973544975 153.43915343915344,90.37037037037038 153.86243386243387,91.00529100529101 154.07407407407408,91.64021164021165 154.4973544973545,92.27513227513228 154.7089947089947,92.91005291005291 155.13227513227514,93.54497354497356 155.34391534391534,94.17989417989419 155.76719576719577,94.60317460317461 155.978835978836,95.23809523809524 156.4021164021164,95.87301587301587 156.61375661375664,96.50793650793652 157.03703703703704,97.14285714285715 157.24867724867727,97.77777777777779 157.67195767195767,98.2010582010582 157.8835978835979,98.83597883597885 158.30687830687833,99.47089947089948 158.51851851851853,100.10582010582011 158.94179894179896,100.74074074074075 159.36507936507937,101.37566137566138 159.5767195767196,102.01058201058201 160.0,102.64550264550266 160.42328042328043,103.28042328042329 160.84656084656086,103.91534391534393 161.05820105820106,104.55026455026456 161.4814814814815,104.97354497354497 161.6931216931217,105.60846560846562 162.11640211640213,106.03174603174604 162.32804232804233,106.66666666666667 162.75132275132276,107.0899470899471 162.96296296296296,107.72486772486774 163.3862433862434,108.14814814814815 163.80952380952382,108.78306878306879 164.23280423280426,109.41798941798943 164.65608465608466,110.05291005291006 165.0793650793651,110.47619047619048 165.50264550264552,111.11111111111111 165.92592592592595,111.74603174603176 166.34920634920636,112.3809523809524 166.7724867724868,113.01587301587303 167.19576719576722,113.65079365079366 167.61904761904762,114.07407407407408 168.04232804232805,114.70899470899472 168.46560846560848,115.34391534391536 168.8888888888889,115.97883597883599 169.31216931216932,116.61375661375662 169.73544973544975,117.03703703703705 170.15873015873018,117.46031746031747 170.58201058201058,118.0952380952381 171.005291005291,118.51851851851853 171.42857142857144,118.94179894179895 171.85185185185188,119.36507936507937 172.27513227513228,119.7883597883598 172.6984126984127,120.21164021164022 173.12169312169314,120.84656084656086 173.54497354497354,121.26984126984128 173.96825396825398,121.6931216931217 174.3915343915344,122.11640211640213 174.81481481481484,122.53968253968254 175.23809523809524,122.96296296296298 175.66137566137567,123.3862433862434 178.2010582010582,126.13756613756615" style="fill:none; stroke:#999900; stroke-width:1.0"  /><polyline points="178.2010582010582,126.13756613756615 174.6031746031746,127.61904761904763 173.96825396825398,127.83068783068784 173.33333333333334,128.04232804232805 172.6984126984127,128.25396825396825 172.06349206349208,128.46560846560848 171.42857142857144,128.67724867724868 170.7936507936508,129.10052910052912 170.15873015873018,129.31216931216932 169.52380952380955,129.52380952380955 168.8888888888889,129.73544973544975 168.25396825396825,130.15873015873018 167.61904761904762,130.37037037037038 166.984126984127,130.58201058201058 166.34920634920636,131.005291005291 165.71428571428572,131.21693121693121 165.0793650793651,131.64021164021165 164.44444444444446,131.85185185185185 163.80952380952382,132.06349206349208 163.1746031746032,132.27513227513228 162.53968253968256,132.6984126984127 161.90476190476193,132.9100529100529 161.2698412698413,133.12169312169314 160.63492063492066,133.33333333333334 160.0,133.54497354497354 159.36507936507937,133.96825396825398 158.73015873015873,134.17989417989418 158.0952380952381,134.3915343915344 157.46031746031747,134.6031746031746 156.82539682539684,134.81481481481484 156.1904761904762,135.23809523809524 155.55555555555557,135.44973544973547 154.92063492063494,135.66137566137567 154.2857142857143,135.87301587301587 153.65079365079367,136.0846560846561 153.01587301587304,136.2962962962963 152.38095238095238,136.5079365079365 151.74603174603175,136.93121693121694 151.11111111111111,137.14285714285717 150.47619047619048,137.56613756613757 149.84126984126985,137.7777777777778 149.20634920634922,137.989417989418 148.57142857142858,138.2010582010582 147.93650793650795,138.41269841269843 147.30158730158732,138.62433862433863 146.66666666666669,139.04761904761907 146.03174603174605,139.25925925925927 145.39682539682542,139.6825396825397 144.76190476190476,140.10582010582013 144.33862433862436,140.52910052910053 143.70370370370372,140.95238095238096 143.2804232804233,141.3756613756614 142.85714285714286,141.7989417989418 142.43386243386246,142.22222222222223 142.01058201058203,142.85714285714286 141.5873015873016,143.4920634920635 141.16402116402116,144.12698412698413 140.95238095238096,144.76190476190476 140.74074074074076,145.39682539682542 140.52910052910053,146.03174603174605 140.52910052910053,146.66666666666669 140.31746031746033,147.30158730158732 140.52910052910053,147.93650793650795 140.52910052910053,148.57142857142858 140.52910052910053,149.20634920634922 140.74074074074076,149.84126984126985 140.95238095238096,150.47619047619048 141.16402116402116,151.11111111111111 141.5873015873016,151.74603174603175 142.01058201058203,152.38095238095238 142.43386243386246,152.8042328042328 142.85714285714286,153.22751322751324 143.2804232804233,153.65079365079367 143.70370370370372,154.07407407407408 144.33862433862436,154.4973544973545 144.973544973545,154.92063492063494 145.60846560846562,155.13227513227514 146.03174603174605,155.55555555555557 146.66666666666669,155.76719576719577 147.30158730158732,155.978835978836 147.93650793650795,156.1904761904762 148.35978835978838,156.61375661375664 148.99470899470901,156.82539682539684 149.62962962962965,157.24867724867727 150.26455026455028,157.67195767195767 150.8994708994709,158.0952380952381 151.53439153439155,158.51851851851853 152.16931216931218,158.94179894179896 152.5925925925926,159.36507936507937 153.22751322751324,159.7883597883598 153.65079365079367,160.21164021164023 154.07407407407408,160.63492063492066 154.4973544973545,161.05820105820106 154.92063492063494,161.4814814814815 155.34391534391534,161.90476190476193 155.76719576719577,162.53968253968256 156.1904761904762,162.96296296296296 156.61375661375664,163.3862433862434 157.03703703703704,164.02116402116403 157.46031746031747,164.44444444444446 157.8835978835979,165.0793650793651 158.30687830687833,165.71428571428572 158.73015873015873,166.13756613756615 159.15343915343917,166.7724867724868 159.5767195767196,167.40740740740742 160.0,168.04232804232805 160.21164021164023,168.67724867724868 160.63492063492066,169.31216931216932 160.84656084656086,169.94708994708995 161.05820105820106,170.58201058201058 161.2698412698413,171.21693121693124 161.4814814814815,171.85185185185188 161.6931216931217,172.4867724867725 161.6931216931217,173.12169312169314 161.6931216931217,173.75661375661377 161.4814814814815,174.3915343915344 161.4814814814815,175.02645502645504 161.2698412698413,175.66137566137567 161.05820105820106,176.2962962962963 160.84656084656086,176.93121693121694 160.63492063492066,177.56613756613757 160.21164021164023,178.2010582010582 160.0,178.83597883597884 159.7883597883598,179.4708994708995 159.36507936507937,179.8941798941799 159.15343915343917,180.52910052910053 158.73015873015873,180.95238095238096 158.51851851851853,181.5873015873016 158.0952380952381,182.01058201058203 157.8835978835979,182.64550264550266 157.46031746031747,183.0687830687831 156.82539682539684,183.4920634920635 156.4021164021164,184.12698412698415 155.978835978836,184.55026455026456 155.55555555555557,184.973544973545 155.13227513227514,185.39682539682542 154.4973544973545,185.82010582010582 153.86243386243387,186.24338624338625 153.22751322751324,186.66666666666669 152.5925925925926,187.08994708994712 151.95767195767198,187.51322751322752 151.32275132275134,187.72486772486775 150.6878306878307,187.93650793650795 150.05291005291005,188.14814814814815 149.41798941798942,188.35978835978838 148.78306878306879,188.57142857142858 148.14814814814815,188.57142857142858 147.51322751322752,188.57142857142858 146.8783068783069,188.78306878306879 146.24338624338625,188.78306878306879 145.60846560846562,188.78306878306879 144.973544973545,188.57142857142858 144.33862433862436,188.57142857142858 143.70370370370372,188.35978835978838 143.0687830687831,188.14814814814815 142.43386243386246,188.14814814814815 141.7989417989418,187.72486772486775 141.16402116402116,187.51322751322752 140.52910052910053,187.08994708994712 139.8941798941799,186.66666666666669 139.25925925925927,186.24338624338625 138.62433862433863,185.82010582010582 138.2010582010582,185.39682539682542 137.7777777777778,184.7619047619048 137.35449735449737,184.33862433862436 136.93121693121694,183.70370370370372 136.5079365079365,183.0687830687831 136.2962962962963,182.43386243386246 136.0846560846561,181.79894179894183 135.66137566137567,181.16402116402116 135.44973544973547,180.52910052910053 135.23809523809524,179.8941798941799 135.02645502645504,179.25925925925927 134.6031746031746,178.62433862433863 134.3915343915344,177.989417989418 133.96825396825398,177.35449735449737 133.75661375661377,176.71957671957674 133.54497354497354,176.0846560846561 133.33333333333334,175.44973544973547 132.9100529100529,174.81481481481484 132.6984126984127,174.1798941798942 132.27513227513228,173.54497354497354 132.06349206349208,172.9100529100529 131.64021164021165,172.27513227513228 131.42857142857144,171.64021164021165 131.005291005291,171.21693121693124 130.58201058201058,170.58201058201058 129.94708994708995,170.15873015873018 129.52380952380955,169.52380952380955 128.88888888888889,169.10052910052912 128.46560846560848,168.67724867724868 127.83068783068784,168.25396825396825 127.1957671957672,167.83068783068785 126.56084656084657,167.61904761904762 125.92592592592594,167.19576719576722 125.2910052910053,167.19576719576722 124.65608465608466,166.984126984127 124.02116402116403,166.7724867724868 123.3862433862434,166.7724867724868 122.75132275132276,166.984126984127 122.11640211640213,166.984126984127 121.4814814814815,166.984126984127 120.84656084656086,167.19576719576722 120.21164021164022,167.40740740740742 119.57671957671958,167.83068783068785 118.94179894179895,168.25396825396825 118.30687830687832,168.67724867724868 117.88359788359789,169.10052910052912 117.24867724867725,169.52380952380955 116.82539682539684,170.15873015873018 116.4021164021164,170.7936507936508 115.97883597883599,171.42857142857144 115.76719576719577,172.06349206349208 115.34391534391536,172.6984126984127 115.13227513227514,173.33333333333334 114.70899470899472,173.96825396825398 114.49735449735451,174.6031746031746 114.28571428571429,175.23809523809524 113.86243386243387,175.87301587301587 113.65079365079366,176.50793650793653 113.22751322751324,177.14285714285717 113.01587301587303,177.7777777777778 112.5925925925926,178.41269841269843 112.3809523809524,179.04761904761907 111.95767195767196,179.6825396825397 111.74603174603176,180.31746031746033 111.53439153439155,180.95238095238096 111.11111111111111,181.5873015873016 110.6878306878307,182.22222222222223 110.47619047619048,182.85714285714286 110.26455026455027,183.4920634920635 109.84126984126985,184.12698412698415 109.62962962962963,184.7619047619048 109.20634920634922,185.1851851851852 108.994708994709,185.82010582010582 108.57142857142858,186.45502645502646 108.35978835978837,187.08994708994712 107.93650793650795,187.72486772486775 107.72486772486774,188.35978835978838 107.51322751322752,188.99470899470901 105.82010582010582,192.5925925925926" style="fill:none; stroke:#00aa99; stroke-width:1.0"  /><polyline points="105.82010582010582,192.5925925925926 103.70370370370371,190.47619047619048 103.28042328042329,190.05291005291008 102.85714285714286,189.62962962962965 102.43386243386244,189.20634920634922 102.01058201058201,188.78306878306879 101.37566137566138,188.35978835978838 100.95238095238096,187.72486772486775 100.52910052910053,187.30158730158732 100.10582010582011,186.8783068783069 99.68253968253968,186.45502645502646 99.25925925925927,186.03174603174605 98.83597883597885,185.60846560846562 98.2010582010582,185.1851851851852 97.77777777777779,184.7619047619048 97.35449735449737,184.33862433862436 96.93121693121694,183.91534391534393 96.2962962962963,183.4920634920635 95.87301587301587,183.0687830687831 95.44973544973546,182.64550264550266 94.81481481481482,182.43386243386246 94.39153439153439,181.79894179894183 93.75661375661376,181.3756613756614 93.33333333333334,180.95238095238096 92.91005291005291,180.52910052910053 92.27513227513228,180.10582010582013 91.85185185185186,179.6825396825397 91.42857142857143,179.25925925925927 91.00529100529101,178.83597883597884 90.37037037037038,178.41269841269843 89.94708994708995,177.989417989418 89.31216931216932,177.56613756613757 88.8888888888889,177.14285714285717 88.46560846560847,176.71957671957674 87.83068783068784,176.2962962962963 87.1957671957672,175.87301587301587 86.77248677248677,175.44973544973547 86.34920634920636,175.02645502645504 85.71428571428572,174.6031746031746 85.29100529100529,174.1798941798942 84.65608465608466,173.75661375661377 84.23280423280424,173.33333333333334 83.80952380952381,172.9100529100529 83.3862433862434,172.4867724867725 82.96296296296298,172.06349206349208 82.53968253968254,171.64021164021165 82.11640211640213,171.005291005291 81.90476190476191,170.37037037037038 81.48148148148148,169.73544973544975 81.48148148148148,169.10052910052912 81.26984126984128,168.46560846560848 81.26984126984128,167.83068783068785 81.26984126984128,167.19576719576722 81.26984126984128,166.56084656084658 81.48148148148148,165.92592592592595 81.90476190476191,165.2910052910053 82.32804232804233,164.65608465608466 82.75132275132276,164.23280423280426 83.17460317460318,163.80952380952382 83.80952380952381,163.3862433862434 84.44444444444446,163.1746031746032 85.07936507936509,162.75132275132276 85.71428571428572,162.53968253968256 86.34920634920636,162.32804232804233 86.98412698412699,161.90476190476193 87.61904761904762,161.6931216931217 88.25396825396827,161.4814814814815 88.8888888888889,161.05820105820106 89.52380952380953,160.84656084656086 90.15873015873017,160.42328042328043 90.7936507936508,160.21164021164023 91.42857142857143,159.7883597883598 92.06349206349208,159.36507936507937 92.69841269841271,158.94179894179896 93.33333333333334,158.51851851851853 93.96825396825398,158.0952380952381 94.60317460317461,157.67195767195767 95.02645502645504,157.24867724867727 95.44973544973546,156.61375661375664 95.66137566137567,155.978835978836 96.08465608465609,155.55555555555557 96.50793650793652,154.92063492063494 96.71957671957672,154.2857142857143 97.14285714285715,153.65079365079367 97.14285714285715,153.01587301587304 97.35449735449737,152.38095238095238 97.35449735449737,151.74603174603175 97.56613756613757,151.11111111111111 97.56613756613757,150.47619047619048 97.56613756613757,149.84126984126985 97.56613756613757,149.20634920634922 97.35449735449737,148.57142857142858 97.35449735449737,147.93650793650795 97.35449735449737,147.30158730158732 97.14285714285715,146.66666666666669 97.14285714285715,146.03174603174605 96.93121693121694,145.39682539682542 96.71957671957672,144.76190476190476 96.50793650793652,144.12698412698413 96.2962962962963,143.4920634920635 96.08465608465609,142.85714285714286 95.87301587301587,142.22222222222223 95.44973544973546,141.5873015873016 95.02645502645504,141.16402116402116 94.81481481481482,140.52910052910053 94.39153439153439,139.8941798941799 93.96825396825398,139.25925925925927 93.54497354497356,138.62433862433863 93.12169312169313,137.989417989418 92.69841269841271,137.56613756613757 92.27513227513228,136.93121693121694 91.85185185185186,136.5079365079365 91.42857142857143,136.0846560846561 91.00529100529101,135.66137566137567 90.58201058201058,135.23809523809524 90.15873015873017,134.81481481481484 89.73544973544975,134.3915343915344 89.1005291005291,133.96825396825398 88.67724867724868,133.54497354497354 88.04232804232805,133.12169312169314 87.61904761904762,132.6984126984127 86.98412698412699,132.27513227513228 86.34920634920636,131.85185185185185 85.71428571428572,131.42857142857144 85.07936507936509,131.005291005291 84.44444444444446,130.58201058201058 83.80952380952381,130.15873015873018 83.17460317460318,129.73544973544975 82.53968253968254,129.52380952380955 81.90476190476191,129.31216931216932 81.26984126984128,129.10052910052912 80.63492063492065,128.88888888888889 80.0,128.88888888888889 79.36507936507937,128.88888888888889 78.73015873015873,128.88888888888889 78.0952380952381,128.88888888888889 77.46031746031747,129.10052910052912 76.82539682539684,129.31216931216932 76.4021164021164,129.73544973544975 75.76719576719577,129.94708994708995 75.34391534391536,130.37037037037038 74.70899470899471,130.7936507936508 74.28571428571429,131.21693121693121 73.86243386243387,131.64021164021165 73.43915343915344,132.27513227513228 73.01587301587303,132.6984126984127 72.5925925925926,133.33333333333334 72.38095238095238,133.96825396825398 71.95767195767196,134.6031746031746 71.74603174603175,135.23809523809524 71.53439153439155,135.87301587301587 71.32275132275133,136.5079365079365 71.11111111111111,137.14285714285717 70.8994708994709,137.7777777777778 70.8994708994709,138.41269841269843 70.6878306878307,139.04761904761907 70.47619047619048,139.6825396825397 70.26455026455027,140.31746031746033 70.05291005291006,140.95238095238096 69.84126984126985,141.5873015873016 69.62962962962963,142.22222222222223 69.62962962962963,142.85714285714286 69.20634920634922,143.4920634920635 68.994708994709,144.12698412698413 68.78306878306879,144.76190476190476 68.57142857142858,145.39682539682542 68.57142857142858,146.03174603174605 68.35978835978837,146.66666666666669 67.93650793650794,147.0899470899471 67.72486772486774,147.72486772486775 67.51322751322752,148.35978835978838 67.08994708994709,148.78306878306879 66.66666666666667,149.41798941798942 66.03174603174604,149.84126984126985 65.60846560846561,150.26455026455028 65.18518518518519,150.6878306878307 64.76190476190477,151.11111111111111 64.33862433862434,151.53439153439155 63.70370370370371,151.74603174603175 63.06878306878308,151.95767195767198 62.43386243386244,152.38095238095238 61.798941798941804,152.38095238095238 61.16402116402117,152.38095238095238 60.52910052910053,152.38095238095238 59.8941798941799,152.38095238095238 59.25925925925927,152.16931216931218 58.62433862433863,151.95767195767198 57.989417989417994,151.53439153439155 57.35449735449736,151.32275132275134 56.93121693121694,150.8994708994709 56.2962962962963,150.47619047619048 55.661375661375665,150.05291005291005 55.23809523809524,149.62962962962965 54.60317460317461,149.20634920634922 54.179894179894184,148.78306878306879 53.54497354497355,148.35978835978838 52.91005291005291,147.93650793650795 52.48677248677249,147.51322751322752 51.851851851851855,147.0899470899471 51.42857142857143,146.66666666666669 51.00529100529101,146.24338624338625 50.58201058201058,145.82010582010582 50.158730158730165,145.39682539682542 49.73544973544974,144.973544973545 49.31216931216932,144.55026455026456 48.88888888888889,144.12698412698413 48.46560846560847,143.70370370370372 48.042328042328045,143.2804232804233 47.61904761904762,142.85714285714286 47.195767195767196,142.43386243386246 46.77248677248678,142.01058201058203 46.349206349206355,141.5873015873016 45.92592592592593,140.95238095238096 45.50264550264551,140.52910052910053 45.07936507936508,140.10582010582013 44.65608465608466,139.6825396825397 44.232804232804234,139.04761904761907 43.80952380952381,138.62433862433863 43.386243386243386,138.2010582010582 42.96296296296297,137.56613756613757 42.539682539682545,137.14285714285717 42.11640211640212,136.71957671957674 41.6931216931217,136.0846560846561 41.26984126984127,135.66137566137567 40.84656084656085,135.23809523809524 40.423280423280424,134.6031746031746 40.0,134.17989417989418 39.57671957671958,133.75661375661377 39.15343915343916,133.33333333333334 38.730158730158735,132.6984126984127 38.30687830687831,132.06349206349208 37.883597883597886,131.42857142857144 37.46031746031746,131.005291005291 37.03703703703704,130.58201058201058 36.613756613756614,129.94708994708995 36.19047619047619,129.52380952380955 35.76719576719577,129.10052910052912 35.34391534391535,128.46560846560848 34.920634920634924,128.04232804232805 34.4973544973545,127.40740740740742 34.074074074074076,126.98412698412699 33.65079365079365,126.56084656084657 33.22751322751323,126.13756613756615 32.804232804232804,125.5026455026455 32.38095238095239,125.07936507936509 31.95767195767196,124.44444444444446 31.53439153439154,124.02116402116403 31.111111111111114,123.59788359788361 30.68783068783069,123.17460317460318 30.264550264550266,122.53968253968254 29.841269841269842,122.11640211640213 29.41798941798942,121.4814814814815 28.994708994708997,121.05820105820106 28.571428571428573,120.63492063492065 28.14814814814815,120.21164021164022 27.724867724867728,119.57671957671958 27.301587301587304,119.15343915343917 26.87830687830688,118.73015873015873 26.455026455026456,118.0952380952381 26.031746031746035,117.67195767195768 25.60846560846561,117.24867724867725 25.185185185185187,116.61375661375662 24.55026455026455,116.1904761904762 24.12698412698413,115.55555555555557 23.703703703703706,115.13227513227514 23.280423280423282,114.70899470899472 22.857142857142858,114.07407407407408 22.433862433862437,113.65079365079366 22.010582010582013,113.22751322751324 21.58730158730159,112.5925925925926 21.164021164021165,112.16931216931218 20.740740740740744,111.74603174603176 20.31746031746032,111.11111111111111 19.894179894179896,110.6878306878307 19.47089947089947,110.26455026455027 19.047619047619047,109.62962962962963 18.624338624338627,109.20634920634922 18.201058201058203,108.57142857142858 17.77777777777778,108.14814814814815 17.354497354497354,107.72486772486774 16.931216931216934,107.0899470899471 16.50793650793651,106.66666666666667 16.084656084656086,106.24338624338625 15.661375661375663,105.82010582010582 15.238095238095239,105.3968253968254 14.814814814814817,104.76190476190477 14.391534391534393,104.33862433862434 13.96825396825397,103.70370370370371 13.544973544973546,103.28042328042329 13.121693121693122,102.85714285714286 12.6984126984127,102.43386243386244 12.275132275132275,102.01058201058201 11.851851851851853,101.37566137566138 11.428571428571429,100.95238095238096 11.005291005291006,100.52910052910053 10.582010582010582,100.10582010582011 10.15873015873016,99.68253968253968 9.735449735449736,99.04761904761905 9.312169312169313,98.62433862433863 8.88888888888889,98.2010582010582 8.465608465608467,97.77777777777779 8.042328042328043,97.35449735449737 7.6190476190476195,96.71957671957672 6.984126984126985,96.2962962962963 6.560846560846561,95.66137566137567 6.137566137566138,95.23809523809524 5.714285714285714,94.81481481481482 5.07936507936508,94.39153439153439 4.656084656084657,93.96825396825398 4.2328042328042335,93.54497354497356 3.8095238095238098,93.12169312169313 3.3862433862433865,92.69841269841271 2.9629629629629632,92.27513227513228 2.53968253968254,91.85185185185186 0.21164021164021166,89.52380952380953" style="fill:none; stroke:#3300bb; stroke-width:1.0"  /><circle cx="0.21164021164021166" cy="89.52380952380953" r="2.0" style="fill:none; stroke:#000000aa; stroke-width:0.25" /><circle cx="93.33333333333334" cy="-0.21164021164021166" r="2.0" style="fill:none; stroke:#000000aa; stroke-width:0.25" /><circle cx="178.2010582010582" cy="126.13756613756615" r="2.0" style="fill:none; stroke:#000000aa; stroke-width:0.25" /><circle cx="105.82010582010582" cy="192.5925925925926" r="2.0" style="fill:none; stroke:#000000aa; stroke-width:0.25" /><circle cx="0.21164021164021166" cy="89.52380952380953" r="2.0" style="fill:none; stroke:#ff3366aa; stroke-width:0.25" /><circle cx="92.69841269841271" cy="0.21164021164021166" r="2.0" style="fill:none; stroke:#ff3366aa; stroke-width:0.25" /><circle cx="177.56613756613757" cy="126.34920634920636" r="2.0" style="fill:none; stroke:#ff3366aa; stroke-width:0.25" /><circle cx="106.03174603174604" cy="192.3809523809524" r="2.0" style="fill:none; stroke:#ff3366aa; stroke-width:0.25" /><polyline points="8.677248677248677,81.48148148148148 8.253968253968255,81.90476190476191 7.6190476190476195,82.32804232804233 7.195767195767196,82.96296296296298 6.772486772486773,83.3862433862434 6.34920634920635,83.80952380952381 5.9259259259259265,84.23280423280424 5.502645502645503,84.65608465608466 4.867724867724868,85.07936507936509 4.444444444444445,85.5026455026455 4.021164021164021,85.92592592592594 3.597883597883598,86.56084656084657 2.9629629629629632,86.98412698412699 2.53968253968254,87.40740740740742" style="fill:none; stroke:#001100; stroke-width:1.0" /><polyline points="8.465608465608467,97.77777777777779 8.042328042328043,97.35449735449737 7.6190476190476195,96.71957671957672 6.984126984126985,96.2962962962963 6.560846560846561,95.66137566137567 6.137566137566138,95.23809523809524 5.714285714285714,94.81481481481482 5.07936507936508,94.39153439153439 4.656084656084657,93.96825396825398 4.2328042328042335,93.54497354497356 3.8095238095238098,93.12169312169313 3.3862433862433865,92.69841269841271 2.9629629629629632,92.27513227513228 2.53968253968254,91.85185185185186" style="fill:none; stroke:#000011; stroke-width:1.0" /><polyline points="101.16402116402116,8.465608465608467 100.74074074074075,8.042328042328043 100.31746031746033,7.407407407407408 99.8941798941799,6.984126984126985 99.47089947089948,6.560846560846561 99.04761904761905,6.137566137566138 98.62433862433863,5.714285714285714 98.2010582010582,5.07936507936508 97.77777777777779,4.656084656084657 97.35449735449737,4.2328042328042335 96.93121693121694,3.597883597883598 96.50793650793652,3.174603174603175 96.08465608465609,2.7513227513227516 95.66137566137567,2.3280423280423284 95.23809523809524,1.9047619047619049" style="fill:none; stroke:#001100; stroke-width:1.0" /><polyline points="84.44444444444446,8.253968253968255 84.86772486772487,7.830687830687832 85.29100529100529,7.407407407407408 85.71428571428572,6.984126984126985 86.13756613756614,6.560846560846561 86.56084656084657,6.137566137566138 86.98412698412699,5.714285714285714 87.61904761904762,5.291005291005291 88.04232804232805,4.656084656084657 88.46560846560847,4.2328042328042335 89.1005291005291,3.8095238095238098 89.52380952380953,3.3862433862433865 89.94708994708995,2.9629629629629632 90.37037037037038,2.53968253968254" style="fill:none; stroke:#000011; stroke-width:1.0" /><polyline points="166.984126984127,130.58201058201058 167.61904761904762,130.37037037037038 168.25396825396825,130.15873015873018 168.8888888888889,129.73544973544975 169.52380952380955,129.52380952380955 170.15873015873018,129.31216931216932 170.7936507936508,129.10052910052912 171.42857142857144,128.67724867724868 172.06349206349208,128.46560846560848 172.6984126984127,128.25396825396825 173.33333333333334,128.04232804232805 173.96825396825398,127.83068783068784 174.6031746031746,127.61904761904763" style="fill:none; stroke:#001100; stroke-width:1.0" /><polyline points="170.15873015873018,117.46031746031747 170.58201058201058,118.0952380952381 171.005291005291,118.51851851851853 171.42857142857144,118.94179894179895 171.85185185185188,119.36507936507937 172.27513227513228,119.7883597883598 172.6984126984127,120.21164021164022 173.12169312169314,120.84656084656086 173.54497354497354,121.26984126984128 173.96825396825398,121.6931216931217 174.3915343915344,122.11640211640213 174.81481481481484,122.53968253968254 175.23809523809524,122.96296296296298 175.66137566137567,123.3862433862434" style="fill:none; stroke:#000011; stroke-width:1.0" /><polyline points="97.35449735449737,184.33862433862436 97.77777777777779,184.7619047619048 98.2010582010582,185.1851851851852 98.83597883597885,185.60846560846562 99.25925925925927,186.03174603174605 99.68253968253968,186.45502645502646 100.10582010582011,186.8783068783069 100.52910052910053,187.30158730158732 100.95238095238096,187.72486772486775 101.37566137566138,188.35978835978838 102.01058201058201,188.78306878306879 102.43386243386244,189.20634920634922 102.85714285714286,189.62962962962965 103.28042328042329,190.05291005291008 103.70370370370371,190.47619047619048" style="fill:none; stroke:#001100; stroke-width:1.0" /><polyline points="111.11111111111111,181.5873015873016 110.6878306878307,182.22222222222223 110.47619047619048,182.85714285714286 110.26455026455027,183.4920634920635 109.84126984126985,184.12698412698415 109.62962962962963,184.7619047619048 109.20634920634922,185.1851851851852 108.994708994709,185.82010582010582 108.57142857142858,186.45502645502646 108.35978835978837,187.08994708994712 107.93650793650795,187.72486772486775 107.72486772486774,188.35978835978838 107.51322751322752,188.99470899470901" style="fill:none; stroke:#000011; stroke-width:1.0" /><polyline points="2.53968253968254,87.40740740740742 -12.6984126984127,102.01058201058201" style="fill:none; stroke:#ffaa00; stroke-width:0.4" /><polyline points="2.53968253968254,91.85185185185186 -12.486772486772487,76.82539682539684" style="fill:none; stroke:#aaff00; stroke-width:0.4" /><polyline points="95.23809523809524,1.9047619047619049 81.05820105820106,-13.756613756613758" style="fill:none; stroke:#ffaa00; stroke-width:0.4" /><polyline points="90.37037037037038,2.53968253968254 105.60846560846562,-12.063492063492065" style="fill:none; stroke:#aaff00; stroke-width:0.4" /><polyline points="174.6031746031746,127.61904761904763 194.2857142857143,120.00000000000001" style="fill:none; stroke:#ffaa00; stroke-width:0.4" /><polyline points="175.66137566137567,123.3862433862434 190.05291005291008,138.83597883597884" style="fill:none; stroke:#aaff00; stroke-width:0.4" /><polyline points="103.70370370370371,190.47619047619048 118.94179894179895,205.29100529100532" style="fill:none; stroke:#ffaa00; stroke-width:0.4" /><polyline points="107.51322751322752,188.99470899470901 98.2010582010582,208.04232804232805" style="fill:none; stroke:#aaff00; stroke-width:0.4" /><circle cx="96.93121693121694" cy="95.66137566137567" r="1.0" style="fill:#444444; stroke-width:0" /><circle cx="87.40740740740742" cy="77.67195767195767" r="10.582010582010582" style="fill:#ff770022; stroke-width:0" /><circle cx="87.40740740740742" cy="77.67195767195767" r="1.0" style="fill:#ff7700; stroke-width:0" /></svg>