<?xml version="1.0" encoding="UTF-8" standalone="no"?><svg width="599.3650793650794" height="574.6031746031747" viewBox="-10 -10 219.7883597883598 211.53439153439155" xmlns="http://www.w3.org/2000/svg" xmlns:xlink="http://www.w3.org/1999/xlink"><polyline points="0.0,32.38095238095239 3.174603174603175,31.322751322751326 3.8095238095238098,30.899470899470902 4.444444444444445,30.68783068783069 5.07936507936508,30.476190476190478 5.714285714285714,30.052910052910054 6.34920634920635,30.052910052910054 6.984126984126985,29.841269841269842 7.6190476190476195,29.629629629629633 8.253968253968255,29.629629629629633 8.88888888888889,29.41798941798942 9.523809523809524,29.20634920634921 10.15873015873016,28.994708994708997 10.793650793650794,28.783068783068785 11.428571428571429,28.571428571428573 12.063492063492065,28.35978835978836 12.6984126984127,28.35978835978836 13.333333333333334,28.14814814814815 13.96825396825397,27.93650793650794 14.603174603174605,27.93650793650794 15.238095238095239,27.513227513227516 15.873015873015873,27.513227513227516 16.50793650793651,27.301587301587304 16.931216931216934,26.87830687830688 17.566137566137566,26.87830687830688 18.201058201058203,26.87830687830688 18.83597883597884,26.87830687830688 19.47089947089947,26.666666666666668 20.105820105820108,26.455026455026456 20.740740740740744,26.455026455026456 21.164021164021165,26.031746031746035 21.7989417989418,26.031746031746035 22.433862433862437,25.820105820105823 23.06878306878307,25.820105820105823 23.703703703703706,25.60846560846561 24.338624338624342,25.820105820105823 24.973544973544975,25.3968253968254 25.60846560846561,25.3968253968254 26.243386243386244,25.185185185185187 26.87830687830688,25.185185185185187 27.513227513227516,25.3968253968254 27.93650793650794,24.973544973544975 28.571428571428573,24.973544973544975 29.20634920634921,24.761904761904763 29.841269841269842,24.761904761904763 30.476190476190478,24.761904761904763 31.111111111111114,24.55026455026455 31.746031746031747,24.55026455026455 32.38095238095239,24.55026455026455 33.01587301587302,24.55026455026455 33.65079365079365,24.761904761904763 34.28571428571429,24.55026455026455 34.920634920634924,24.338624338624342 35.55555555555556,24.338624338624342 36.19047619047619,24.338624338624342 36.82539682539683,24.12698412698413 37.46031746031746,24.12698412698413 38.095238095238095,24.12698412698413 38.730158730158735,24.12698412698413 39.36507936507937,24.12698412698413 40.0,24.12698412698413 40.63492063492064,24.12698412698413 41.26984126984127,23.915343915343918 41.904761904761905,23.915343915343918 42.539682539682545,23.915343915343918 43.17460317460318,23.915343915343918 43.80952380952381,23.915343915343918 44.44444444444445,23.915343915343918 45.07936507936508,23.915343915343918 45.714285714285715,23.915343915343918 46.349206349206355,23.915343915343918 46.98412698412699,24.12698412698413 47.61904761904762,24.12698412698413 48.25396825396826,24.12698412698413 48.88888888888889,24.12698412698413 49.523809523809526,24.12698412698413 50.158730158730165,24.12698412698413 50.7936507936508,24.12698412698413 51.42857142857143,24.12698412698413 52.06349206349207,24.12698412698413 52.6984126984127,24.338624338624342 53.333333333333336,24.338624338624342 53.968253968253975,24.338624338624342 54.60317460317461,24.338624338624342 55.23809523809524,24.338624338624342 55.87301587301588,24.338624338624342 56.50793650793651,24.338624338624342 57.142857142857146,24.338624338624342 57.777777777777786,24.55026455026455 58.41269841269842,24.55026455026455 59.04761904761905,24.55026455026455 59.682539682539684,24.55026455026455 60.31746031746032,24.761904761904763 60.952380952380956,24.761904761904763 61.58730158730159,24.761904761904763 62.22222222222223,24.973544973544975 62.85714285714286,24.973544973544975 63.492063492063494,25.185185185185187 64.12698412698413,25.3968253968254 64.76190476190477,25.60846560846561 65.3968253968254,25.820105820105823 66.03174603174604,25.820105820105823 66.66666666666667,26.243386243386244 67.3015873015873,26.243386243386244 67.93650793650794,26.666666666666668 68.57142857142858,26.87830687830688 69.20634920634922,27.301587301587304 69.84126984126985,27.301587301587304 70.47619047619048,27.513227513227516 70.8994708994709,27.93650793650794 71.53439153439155,28.35978835978836 72.16931216931218,28.571428571428573 72.80423280423281,28.783068783068785 73.43915343915344,29.20634920634921 74.07407407407408,29.629629629629633 74.70899470899471,29.841269841269842 75.13227513227514,30.476190476190478 75.76719576719577,30.899470899470902 76.19047619047619,31.53439153439154 76.61375661375662,32.16931216931217 77.03703703703704,32.804232804232804 77.24867724867725,33.43915343915344 77.67195767195767,34.074074074074076 77.67195767195767,34.70899470899471 77.88359788359789,35.34391534391535 77.88359788359789,35.97883597883598 78.0952380952381,36.613756613756614 77.88359788359789,37.248677248677254 77.88359788359789,37.883597883597886 77.88359788359789,38.51851851851852 77.88359788359789,39.15343915343916 77.67195767195767,39.78835978835979 77.46031746031747,40.423280423280424 77.46031746031747,41.058201058201064 77.24867724867725,41.6931216931217 77.03703703703704,42.32804232804233 76.82539682539684,42.96296296296297 76.4021164021164,43.5978835978836 76.19047619047619,44.232804232804234 75.76719576719577,44.867724867724874 75.34391534391536,45.50264550264551 74.92063492063492,46.13756613756614 74.70899470899471,46.77248677248678 74.28571428571429,47.195767195767196 73.86243386243387,47.830687830687836 73.65079365079366,48.46560846560847 73.43915343915344,49.1005291005291 73.01587301587303,49.73544973544974 72.80423280423281,50.370370370370374 72.38095238095238,51.00529100529101 72.38095238095238,51.640211640211646 72.16931216931218,52.27513227513228 71.95767195767196,52.91005291005291 71.74603174603175,53.54497354497355 71.53439153439155,54.179894179894184 71.53439153439155,54.81481481481482 71.32275132275133,55.449735449735456 71.32275132275133,56.08465608465609 71.32275132275133,56.71957671957672 71.11111111111111,57.35449735449736 71.32275132275133,57.989417989417994 71.32275132275133,58.62433862433863 71.32275132275133,59.25925925925927 71.53439153439155,59.8941798941799 71.53439153439155,60.52910052910053 71.53439153439155,61.16402116402117 71.95767195767196,61.798941798941804 72.16931216931218,62.43386243386244 72.38095238095238,63.06878306878308 72.80423280423281,63.492063492063494 73.22751322751323,64.12698412698413 73.65079365079366,64.76190476190477 74.07407407407408,65.18518518518519 74.49735449735451,65.82010582010582 74.92063492063492,66.24338624338625 75.34391534391536,66.66666666666667 75.76719576719577,67.08994708994709 76.19047619047619,67.51322751322752 76.61375661375662,68.14814814814815 77.03703703703704,68.57142857142858 77.46031746031747,68.994708994709 77.88359788359789,69.41798941798942 78.30687830687832,69.84126984126985 78.73015873015873,70.26455026455027 79.36507936507937,70.47619047619048 80.0,70.8994708994709 80.42328042328043,71.53439153439155 81.05820105820106,71.95767195767196 81.6931216931217,72.38095238095238 82.32804232804233,72.5925925925926 82.96296296296298,73.01587301587303 83.59788359788361,73.22751322751323 84.23280423280424,73.43915343915344 84.86772486772487,73.86243386243387 85.5026455026455,74.07407407407408 86.13756613756614,74.28571428571429 86.77248677248677,74.49735449735451 87.40740740740742,74.49735449735451 88.04232804232805,74.92063492063492 88.67724867724868,74.92063492063492 89.31216931216932,74.92063492063492 89.94708994708995,75.13227513227514 90.58201058201058,75.13227513227514 91.21693121693123,75.34391534391536 91.85185185185186,75.34391534391536 92.4867724867725,75.55555555555556 93.12169312169313,75.55555555555556 93.75661375661376,75.55555555555556 94.39153439153439,75.55555555555556 95.02645502645504,75.55555555555556 95.66137566137567,75.55555555555556 96.2962962962963,75.55555555555556 96.93121693121694,75.34391534391536 97.56613756613757,75.34391534391536 98.2010582010582,75.13227513227514 98.83597883597885,75.13227513227514 99.47089947089948,74.92063492063492 100.10582010582011,74.92063492063492 100.52910052910053,74.49735449735451 101.16402116402116,74.49735449735451 101.79894179894181,74.07407407407408 102.43386243386244,74.07407407407408 103.06878306878308,73.65079365079366 103.70370370370371,73.43915343915344 104.33862433862434,73.01587301587303 104.97354497354497,72.80423280423281 105.3968253968254,72.38095238095238 106.03174603174604,72.16931216931218 106.45502645502647,71.74603174603175 107.0899470899471,71.32275132275133 107.72486772486774,70.8994708994709 108.35978835978837,70.47619047619048 108.994708994709,70.05291005291006 109.41798941798943,69.62962962962963 109.84126984126985,69.20634920634922 110.26455026455027,68.78306878306879 110.6878306878307,68.35978835978837 111.11111111111111,67.93650793650794 111.53439153439155,67.51322751322752 111.95767195767196,66.87830687830689 112.3809523809524,66.45502645502646 112.80423280423281,66.03174603174604 113.22751322751324,65.60846560846561 113.65079365079366,64.97354497354497 114.07407407407408,64.55026455026456 114.49735449735451,63.91534391534392 114.92063492063492,63.492063492063494 115.34391534391536,62.85714285714286 115.76719576719577,62.43386243386244 116.1904761904762,61.798941798941804 116.61375661375662,61.16402116402117 117.03703703703705,60.52910052910053 117.46031746031747,60.10582010582011 117.67195767195768,59.470899470899475 118.0952380952381,59.04761904761905 118.51851851851853,58.41269841269842 118.51851851851853,57.777777777777786 118.94179894179895,57.35449735449736 119.36507936507937,56.71957671957672 119.7883597883598,56.08465608465609 120.00000000000001,55.449735449735456 120.42328042328043,54.81481481481482 120.63492063492065,54.179894179894184 120.84656084656086,53.54497354497355 121.05820105820106,52.91005291005291 121.26984126984128,52.27513227513228 121.4814814814815,51.640211640211646 121.4814814814815,51.00529100529101 121.4814814814815,50.370370370370374 121.4814814814815,49.73544973544974 121.4814814814815,49.1005291005291 121.4814814814815,48.46560846560847 121.26984126984128,47.830687830687836 121.05820105820106,47.195767195767196 120.84656084656086,46.560846560846564 120.63492063492065,45.92592592592593 120.42328042328043,45.29100529100529 120.00000000000001,44.867724867724874 119.57671957671958,44.232804232804234 119.15343915343917,43.5978835978836 118.73015873015873,42.96296296296297 118.30687830687832,42.539682539682545 117.88359788359789,42.11640211640212 117.46031746031747,41.6931216931217 116.82539682539684,41.26984126984127 116.4021164021164,40.84656084656085 115.76719576719577,40.423280423280424 115.34391534391536,40.0 114.70899470899472,39.57671957671958 114.07407407407408,39.15343915343916 113.43915343915344,38.730158730158735 112.80423280423281,38.30687830687831 112.16931216931218,37.883597883597886 111.53439153439155,37.67195767195768 111.11111111111111,37.248677248677254 110.47619047619048,36.82539682539683 109.84126984126985,36.402116402116405 109.20634920634922,35.97883597883598 108.57142857142858,35.55555555555556 107.93650793650795,35.13227513227513 107.3015873015873,34.70899470899471 106.87830687830689,34.28571428571429 106.45502645502647,33.86243386243387 106.03174603174604,33.43915343915344 105.60846560846562,33.01587301587302 105.18518518518519,32.38095238095239 104.76190476190477,31.746031746031747 104.55026455026456,31.111111111111114 104.33862433862434,30.476190476190478 104.12698412698414,29.841269841269842 104.12698412698414,29.20634920634921 104.12698412698414,28.571428571428573 104.12698412698414,27.93650793650794 104.12698412698414,27.301587301587304 104.33862433862434,26.666666666666668 104.33862433862434,26.031746031746035 104.76190476190477,25.3968253968254 104.97354497354497,24.761904761904763 105.3968253968254,24.12698412698413 105.60846560846562,23.492063492063494 105.82010582010582,22.857142857142858 106.24338624338625,22.222222222222225 106.45502645502647,21.58730158730159 106.87830687830689,21.164021164021165 107.3015873015873,20.529100529100532 107.72486772486774,19.894179894179896 108.14814814814815,19.47089947089947 108.57142857142858,18.83597883597884 108.994708994709,18.412698412698415 109.41798941798943,17.98941798941799 109.84126984126985,17.354497354497354 110.26455026455027,16.931216931216934 110.6878306878307,16.50793650793651 111.11111111111111,16.084656084656086 111.53439153439155,15.661375661375663 111.95767195767196,15.238095238095239 112.3809523809524,14.814814814814817 112.80423280423281,14.391534391534393 113.43915343915344,13.96825396825397 113.86243386243387,13.544973544973546 114.28571428571429,13.121693121693122 114.92063492063492,12.6984126984127 115.55555555555557,12.275132275132275 115.97883597883599,11.851851851851853 116.4021164021164,11.428571428571429 117.03703703703705,11.005291005291006 117.67195767195768,10.793650793650794 118.0952380952381,10.370370370370372 118.73015873015873,9.947089947089948 119.36507936507937,9.523809523809524 120.00000000000001,9.100529100529101 120.63492063492065,8.677248677248677 121.05820105820106,8.253968253968255 121.6931216931217,8.042328042328043 122.11640211640213,7.6190476190476195 122.75132275132276,7.407407407407408 123.3862433862434,6.984126984126985 124.02116402116403,6.772486772486773 124.65608465608466,6.34920634920635 125.2910052910053,5.9259259259259265 125.92592592592594,5.714285714285714 126.56084656084657,5.291005291005291 127.1957671957672,5.07936507936508 127.61904761904763,4.656084656084657 128.25396825396825,4.656084656084657 128.88888888888889,4.2328042328042335 129.52380952380955,4.021164021164021 130.15873015873018,3.8095238095238098 130.7936507936508,3.597883597883598 131.42857142857144,3.3862433862433865 132.06349206349208,3.174603174603175 132.6984126984127,2.7513227513227516 133.33333333333334,2.53968253968254 133.96825396825398,2.53968253968254 134.6031746031746,2.1164021164021167 135.23809523809524,1.9047619047619049 135.87301587301587,1.9047619047619049 136.5079365079365,1.6931216931216932 137.14285714285717,1.4814814814814816 137.7777777777778,1.26984126984127 138.41269841269843,1.26984126984127 139.04761904761907,1.0582010582010584 139.6825396825397,1.0582010582010584 140.31746031746033,0.8465608465608466 140.95238095238096,0.8465608465608466 141.5873015873016,0.634920634920635 142.22222222222223,0.634920634920635 142.85714285714286,0.4232804232804233 143.4920634920635,0.4232804232804233 146.8783068783069,-0.21164021164021166" style="fill:none; stroke:#cc0000; stroke-width:1.0"  /><polyline points="146.8783068783069,-0.21164021164021166 147.30158730158732,3.8095238095238098 147.30158730158732,4.444444444444445 147.30158730158732,5.07936507936508 147.30158730158732,5.714285714285714 147.51322751322752,6.34920634920635 147.51322751322752,6.984126984126985 147.51322751322752,7.6190476190476195 147.51322751322752,8.253968253968255 147.51322751322752,8.88888888888889 147.72486772486775,9.523809523809524 147.72486772486775,10.15873015873016 147.72486772486775,10.793650793650794 147.72486772486775,11.428571428571429 147.93650793650795,12.063492063492065 147.93650793650795,12.6984126984127 148.14814814814815,13.333333333333334 148.14814814814815,13.96825396825397 148.14814814814815,14.603174603174605 148.35978835978838,15.238095238095239 148.35978835978838,15.873015873015873 148.35978835978838,16.50793650793651 148.35978835978838,17.142857142857146 148.57142857142858,17.77777777777778 148.57142857142858,18.412698412698415 148.57142857142858,19.047619047619047 148.78306878306879,19.682539682539684 148.78306878306879,20.31746031746032 148.78306878306879,20.952380952380953 148.99470899470901,21.58730158730159 148.99470899470901,22.222222222222225 148.99470899470901,22.857142857142858 148.99470899470901,23.492063492063494 149.20634920634922,24.12698412698413 149.20634920634922,24.761904761904763 149.41798941798942,25.3968253968254 149.41798941798942,26.031746031746035 149.62962962962965,26.666666666666668 149.62962962962965,27.301587301587304 149.62962962962965,27.93650793650794 149.84126984126985,28.571428571428573 149.84126984126985,29.20634920634921 149.84126984126985,29.841269841269842 149.84126984126985,30.476190476190478 150.05291005291005,31.111111111111114 150.05291005291005,31.746031746031747 150.26455026455028,32.38095238095239 150.26455026455028,33.01587301587302 150.26455026455028,33.65079365079365 150.47619047619048,34.28571428571429 150.47619047619048,34.920634920634924 150.47619047619048,35.55555555555556 150.6878306878307,36.19047619047619 150.6878306878307,36.82539682539683 150.6878306878307,37.46031746031746 150.8994708994709,38.095238095238095 150.8994708994709,38.730158730158735 151.11111111111111,39.36507936507937 151.11111111111111,40.0 151.32275132275134,40.63492063492064 151.32275132275134,41.26984126984127 151.53439153439155,41.904761904761905 151.53439153439155,42.539682539682545 151.74603174603175,43.17460317460318 151.74603174603175,43.80952380952381 151.95767195767198,44.44444444444445 151.95767195767198,45.07936507936508 151.95767195767198,45.714285714285715 152.16931216931218,46.349206349206355 152.38095238095238,46.98412698412699 152.38095238095238,47.61904761904762 152.5925925925926,48.25396825396826 152.8042328042328,48.88888888888889 152.8042328042328,49.523809523809526 153.01587301587304,50.158730158730165 153.22751322751324,50.7936507936508 153.22751322751324,51.42857142857143 153.43915343915344,52.06349206349207 153.65079365079367,52.6984126984127 153.65079365079367,53.333333333333336 153.86243386243387,53.968253968253975 154.07407407407408,54.60317460317461 154.2857142857143,55.23809523809524 154.4973544973545,55.87301587301588 154.92063492063494,56.2962962962963 155.34391534391534,56.93121693121694 155.76719576719577,57.56613756613757 156.4021164021164,57.777777777777786 156.82539682539684,58.2010582010582 157.46031746031747,58.62433862433863 158.0952380952381,59.04761904761905 158.73015873015873,59.25925925925927 159.36507936507937,59.470899470899475 160.0,59.470899470899475 160.63492063492066,59.470899470899475 161.2698412698413,59.682539682539684 161.90476190476193,59.470899470899475 162.53968253968256,59.470899470899475 163.1746031746032,59.25925925925927 163.80952380952382,59.04761904761905 164.44444444444446,58.62433862433863 165.0793650793651,58.41269841269842 165.71428571428572,58.2010582010582 166.13756613756615,57.56613756613757 166.7724867724868,57.142857142857146 167.40740740740742,56.71957671957672 167.83068783068785,56.2962962962963 168.25396825396825,55.87301587301588 168.8888888888889,55.449735449735456 169.31216931216932,55.02645502645503 169.73544973544975,54.60317460317461 170.37037037037038,54.179894179894184 170.7936507936508,53.75661375661376 171.42857142857144,53.333333333333336 172.06349206349208,52.91005291005291 172.4867724867725,52.48677248677249 172.9100529100529,52.06349206349207 173.33333333333334,51.640211640211646 173.96825396825398,51.21693121693122 174.6031746031746,51.00529100529101 175.02645502645504,50.370370370370374 175.66137566137567,50.158730158730165 176.0846560846561,49.73544973544974 176.71957671957674,49.31216931216932 177.35449735449737,48.88888888888889 177.7777777777778,48.46560846560847 178.41269841269843,48.46560846560847 178.83597883597884,48.042328042328045 179.4708994708995,47.61904761904762 180.10582010582013,47.61904761904762 180.52910052910053,47.195767195767196 181.16402116402116,46.98412698412699 181.79894179894183,46.77248677248678 182.43386243386246,46.560846560846564 183.0687830687831,46.349206349206355 183.70370370370372,46.13756613756614 184.33862433862436,46.13756613756614 184.973544973545,45.92592592592593 185.60846560846562,46.13756613756614 186.03174603174605,46.560846560846564 186.66666666666669,46.349206349206355 187.30158730158732,46.349206349206355 187.93650793650795,46.349206349206355 188.35978835978838,46.77248677248678 188.99470899470901,46.98412698412699 189.62962962962965,47.195767195767196 190.05291005291008,47.61904761904762 190.47619047619048,48.042328042328045 191.11111111111111,48.46560846560847 191.53439153439155,48.88888888888889 191.95767195767198,49.523809523809526 192.3809523809524,49.94708994708995 192.8042328042328,50.370370370370374 193.01587301587304,51.00529100529101 193.22751322751324,51.640211640211646 193.65079365079367,52.06349206349207 193.86243386243387,52.6984126984127 194.2857142857143,53.12169312169313 194.4973544973545,53.75661375661376 194.70899470899474,54.39153439153439 195.13227513227514,55.02645502645503 195.34391534391537,55.661375661375665 195.55555555555557,56.2962962962963 195.978835978836,56.93121693121694 196.1904761904762,57.56613756613757 196.61375661375664,58.2010582010582 196.82539682539684,58.83597883597884 197.03703703703704,59.470899470899475 197.24867724867727,60.10582010582011 197.46031746031747,60.74074074074075 197.6719576719577,61.37566137566138 197.6719576719577,62.01058201058201 197.8835978835979,62.64550264550265 198.0952380952381,63.280423280423285 198.30687830687833,63.91534391534392 198.30687830687833,64.55026455026456 198.51851851851853,65.18518518518519 198.51851851851853,65.82010582010582 198.73015873015873,66.45502645502646 198.73015873015873,67.08994708994709 198.94179894179896,67.72486772486774 198.94179894179896,68.35978835978837 199.15343915343917,68.994708994709 199.15343915343917,69.62962962962963 199.15343915343917,70.26455026455027 199.15343915343917,70.8994708994709 199.36507936507937,71.53439153439155 199.36507936507937,72.16931216931218 199.36507936507937,72.80423280423281 199.36507936507937,73.43915343915344 199.36507936507937,74.07407407407408 199.36507936507937,74.70899470899471 199.36507936507937,75.34391534391536 199.15343915343917,75.97883597883599 199.15343915343917,76.61375661375662 199.15343915343917,77.24867724867725 198.94179894179896,77.88359788359789 198.94179894179896,78.51851851851852 198.73015873015873,79.15343915343917 198.51851851851853,79.7883597883598 198.30687830687833,80.42328042328043 198.30687830687833,81.05820105820106 198.0952380952381,81.6931216931217 197.8835978835979,82.32804232804233 197.46031746031747,82.96296296296298 197.24867724867727,83.59788359788361 197.03703703703704,84.23280423280424 196.61375661375664,84.86772486772487 196.1904761904762,85.5026455026455 195.76719576719577,86.13756613756614 195.34391534391537,86.56084656084657 194.92063492063494,86.98412698412699 194.2857142857143,87.40740740740742 193.65079365079367,87.61904761904762 193.01587301587304,87.83068783068784 192.3809523809524,88.04232804232805 191.74603174603175,88.25396825396827 191.11111111111111,88.67724867724868 190.47619047619048,88.8888888888889 189.84126984126985,88.8888888888889 189.20634920634922,88.8888888888889 188.57142857142858,88.8888888888889 187.93650793650795,89.1005291005291 187.30158730158732,89.1005291005291 186.66666666666669,89.1005291005291 186.03174603174605,88.8888888888889 185.39682539682542,88.8888888888889 184.7619047619048,88.67724867724868 184.12698412698415,88.67724867724868 183.4920634920635,88.46560846560847 182.85714285714286,88.25396825396827 182.22222222222223,88.04232804232805 181.5873015873016,87.83068783068784 180.95238095238096,87.83068783068784 180.31746031746033,87.61904761904762 179.6825396825397,87.40740740740742 179.04761904761907,87.1957671957672 178.41269841269843,86.77248677248677 177.7777777777778,86.77248677248677 177.14285714285717,86.56084656084657 176.50793650793653,86.34920634920636 175.87301587301587,86.13756613756614 175.23809523809524,85.92592592592594 174.6031746031746,85.71428571428572 173.96825396825398,85.5026455026455 173.33333333333334,85.29100529100529 172.6984126984127,85.07936507936509 172.06349206349208,84.86772486772487 171.42857142857144,84.65608465608466 170.7936507936508,84.44444444444446 170.15873015873018,84.44444444444446 169.52380952380955,84.23280423280424 168.8888888888889,84.23280423280424 168.25396825396825,84.23280423280424 167.61904761904762,84.23280423280424 166.984126984127,84.44444444444446 166.34920634920636,84.65608465608466 165.71428571428572,84.65608465608466 165.0793650793651,85.07936507936509 164.44444444444446,85.5026455026455 163.80952380952382,85.92592592592594 163.3862433862434,86.34920634920636 162.96296296296296,86.77248677248677 162.53968253968256,87.40740740740742 162.32804232804233,88.04232804232805 162.11640211640213,88.67724867724868 161.90476190476193,89.31216931216932 161.90476190476193,89.94708994708995 161.6931216931217,90.58201058201058 161.6931216931217,91.21693121693123 161.6931216931217,91.85185185185186 161.6931216931217,92.4867724867725 162.11640211640213,92.91005291005291 162.11640211640213,93.54497354497356 162.11640211640213,94.17989417989419 162.11640211640213,94.81481481481482 162.32804232804233,95.44973544973546 162.32804232804233,96.08465608465609 162.32804232804233,96.71957671957672 162.53968253968256,97.35449735449737 162.53968253968256,97.989417989418 162.53968253968256,98.62433862433863 162.75132275132276,99.25925925925927 162.75132275132276,99.8941798941799 162.96296296296296,100.52910052910053 162.96296296296296,101.16402116402116 163.1746031746032,101.79894179894181 163.1746031746032,102.43386243386244 163.3862433862434,103.06878306878308 163.59788359788362,103.70370370370371 163.59788359788362,104.33862433862434 163.80952380952382,104.97354497354497 163.80952380952382,105.60846560846562 164.02116402116403,106.24338624338625 164.23280423280426,106.87830687830689 164.44444444444446,107.51322751322752 164.44444444444446,108.14814814814815 164.65608465608466,108.78306878306879 164.65608465608466,109.41798941798943 165.0793650793651,110.05291005291006 165.0793650793651,110.6878306878307 165.50264550264552,111.32275132275133 165.50264550264552,111.95767195767196 165.71428571428572,112.5925925925926 165.92592592592595,113.22751322751324 166.13756613756615,113.86243386243387 166.34920634920636,114.49735449735451 166.56084656084658,115.13227513227514 166.7724867724868,115.76719576719577 166.984126984127,116.4021164021164 167.19576719576722,117.03703703703705 167.40740740740742,117.67195767195768 167.61904761904762,118.30687830687832 167.61904761904762,118.94179894179895 167.83068783068785,119.57671957671958 168.04232804232805,120.21164021164022 168.25396825396825,120.84656084656086 168.46560846560848,121.4814814814815 168.67724867724868,122.11640211640213 168.8888888888889,122.75132275132276 169.10052910052912,123.3862433862434 169.31216931216932,124.02116402116403 169.31216931216932,124.65608465608466 169.52380952380955,125.2910052910053 169.73544973544975,125.92592592592594 169.94708994708995,126.56084656084657 170.15873015873018,127.1957671957672 170.37037037037038,127.83068783068784 170.58201058201058,128.46560846560848 170.7936507936508,129.10052910052912 170.7936507936508,129.73544973544975 171.005291005291,130.37037037037038 171.21693121693124,131.005291005291 171.42857142857144,131.64021164021165 171.42857142857144,132.27513227513228 171.64021164021165,132.9100529100529 171.64021164021165,133.54497354497354 171.85185185185188,134.17989417989418 172.06349206349208,134.81481481481484 172.06349206349208,135.44973544973547 172.27513227513228,136.0846560846561 172.27513227513228,136.71957671957674 172.4867724867725,137.35449735449737 172.4867724867725,137.989417989418 172.6984126984127,138.62433862433863 172.6984126984127,139.25925925925927 172.9100529100529,139.8941798941799 172.9100529100529,140.52910052910053 172.9100529100529,141.16402116402116 173.12169312169314,141.7989417989418 173.12169312169314,142.43386243386246 173.12169312169314,143.0687830687831 173.33333333333334,143.70370370370372 173.33333333333334,144.33862433862436 173.33333333333334,144.973544973545 173.54497354497354,145.60846560846562 173.54497354497354,146.24338624338625 173.75661375661377,146.8783068783069 173.75661375661377,147.51322751322752 173.75661375661377,148.14814814814815 173.75661375661377,148.78306878306879 173.75661375661377,149.41798941798942 173.96825396825398,150.05291005291005 173.96825396825398,150.6878306878307 173.96825396825398,151.32275132275134 173.96825396825398,151.95767195767198 173.96825396825398,152.5925925925926 174.1798941798942,153.22751322751324 174.1798941798942,153.86243386243387 174.1798941798942,154.4973544973545 174.1798941798942,155.13227513227514 174.1798941798942,155.76719576719577 174.1798941798942,156.4021164021164 174.1798941798942,157.03703703703704 174.1798941798942,157.67195767195767 174.1798941798942,158.30687830687833 174.1798941798942,158.94179894179896 174.1798941798942,159.5767195767196 174.1798941798942,160.21164021164023 174.1798941798942,160.84656084656086 173.96825396825398,161.4814814814815 173.96825396825398,162.11640211640213 174.1798941798942,162.75132275132276 174.1798941798942,163.3862433862434 174.1798941798942,164.02116402116403 174.1798941798942,164.65608465608466 174.1798941798942,165.2910052910053 174.1798941798942,165.92592592592595 173.96825396825398,166.56084656084658 173.75661375661377,167.19576719576722 173.75661375661377,167.83068783068785 173.75661375661377,168.46560846560848 173.75661375661377,169.10052910052912 173.54497354497354,172.27513227513228" style="fill:none; stroke:#999900; stroke-width:1.0"  /><polyline points="173.54497354497354,172.27513227513228 170.15873015873018,173.12169312169314 169.52380952380955,173.33333333333334 168.8888888888889,173.33333333333334 168.25396825396825,173.54497354497354 167.61904761904762,173.75661375661377 166.984126984127,173.75661375661377 166.34920634920636,173.96825396825398 165.71428571428572,174.1798941798942 165.0793650793651,174.1798941798942 164.44444444444446,174.3915343915344 163.80952380952382,174.6031746031746 163.1746031746032,174.81481481481484 162.53968253968256,175.02645502645504 161.90476190476193,175.23809523809524 161.2698412698413,175.44973544973547 160.63492063492066,175.66137566137567 160.0,175.87301587301587 159.36507936507937,176.0846560846561 158.73015873015873,176.0846560846561 158.0952380952381,176.50793650793653 157.46031746031747,176.50793650793653 156.82539682539684,176.93121693121694 156.1904761904762,177.35449735449737 155.55555555555557,177.56613756613757 154.92063492063494,177.7777777777778 154.2857142857143,177.7777777777778 153.65079365079367,178.2010582010582 153.01587301587304,178.2010582010582 152.38095238095238,178.41269841269843 151.74603174603175,178.83597883597884 151.11111111111111,178.83597883597884 150.47619047619048,179.04761904761907 149.84126984126985,179.25925925925927 149.20634920634922,179.4708994708995 148.57142857142858,179.6825396825397 147.93650793650795,179.6825396825397 147.30158730158732,179.8941798941799 146.66666666666669,179.8941798941799 146.03174603174605,180.10582010582013 145.39682539682542,180.10582010582013 144.76190476190476,180.31746031746033 144.12698412698413,180.31746031746033 143.4920634920635,180.52910052910053 142.85714285714286,180.52910052910053 142.22222222222223,180.74074074074076 141.5873015873016,180.74074074074076 140.95238095238096,180.95238095238096 140.31746031746033,180.95238095238096 139.6825396825397,181.16402116402116 139.04761904761907,181.16402116402116 138.41269841269843,181.16402116402116 137.7777777777778,181.3756613756614 137.14285714285717,181.3756613756614 136.5079365079365,181.3756613756614 135.87301587301587,181.5873015873016 135.23809523809524,181.5873015873016 134.6031746031746,181.5873015873016 133.96825396825398,181.5873015873016 133.33333333333334,181.5873015873016 132.6984126984127,181.5873015873016 132.06349206349208,181.5873015873016 131.42857142857144,181.5873015873016 130.7936507936508,181.5873015873016 130.15873015873018,181.5873015873016 129.52380952380955,181.5873015873016 128.88888888888889,181.5873015873016 128.25396825396825,181.5873015873016 127.61904761904763,181.5873015873016 126.98412698412699,181.5873015873016 126.34920634920636,181.5873015873016 125.71428571428572,181.5873015873016 125.07936507936509,181.3756613756614 124.44444444444446,181.3756613756614 123.80952380952382,181.3756613756614 123.17460317460318,181.3756613756614 122.53968253968254,181.3756613756614 121.90476190476191,181.16402116402116 121.26984126984128,181.3756613756614 120.63492063492065,181.16402116402116 120.00000000000001,181.16402116402116 119.36507936507937,180.95238095238096 118.73015873015873,180.95238095238096 118.0952380952381,180.74074074074076 117.46031746031747,180.74074074074076 116.82539682539684,180.52910052910053 116.1904761904762,180.31746031746033 115.55555555555557,180.10582010582013 114.92063492063492,179.8941798941799 114.28571428571429,179.6825396825397 113.65079365079366,179.25925925925927 113.01587301587303,178.83597883597884 112.3809523809524,178.41269841269843 111.95767195767196,177.989417989418 111.53439153439155,177.56613756613757 111.11111111111111,177.14285714285717 110.6878306878307,176.71957671957674 110.26455026455027,176.0846560846561 110.05291005291006,175.44973544973547 109.84126984126985,174.81481481481484 109.62962962962963,174.1798941798942 109.41798941798943,173.54497354497354 109.41798941798943,172.9100529100529 109.20634920634922,172.27513227513228 109.41798941798943,171.64021164021165 109.41798941798943,171.005291005291 109.62962962962963,170.37037037037038 109.62962962962963,169.73544973544975 109.84126984126985,169.10052910052912 110.05291005291006,168.46560846560848 110.26455026455027,167.83068783068785 110.26455026455027,167.19576719576722 110.47619047619048,166.56084656084658 110.89947089947091,165.92592592592595 111.11111111111111,165.2910052910053 111.32275132275133,164.65608465608466 111.53439153439155,164.02116402116403 111.74603174603176,163.3862433862434 111.74603174603176,162.75132275132276 111.95767195767196,162.11640211640213 112.16931216931218,161.4814814814815 112.3809523809524,160.84656084656086 112.5925925925926,160.21164021164023 112.80423280423281,159.5767195767196 113.01587301587303,158.94179894179896 113.22751322751324,158.30687830687833 113.65079365079366,157.67195767195767 113.86243386243387,157.03703703703704 114.07407407407408,156.4021164021164 114.28571428571429,155.76719576719577 114.49735449735451,155.13227513227514 114.49735449735451,154.4973544973545 114.70899470899472,153.86243386243387 114.92063492063492,153.22751322751324 115.13227513227514,152.5925925925926 115.13227513227514,151.95767195767198 115.13227513227514,151.32275132275134 115.13227513227514,150.6878306878307 115.13227513227514,150.05291005291005 114.92063492063492,149.41798941798942 114.92063492063492,148.78306878306879 114.70899470899472,148.14814814814815 114.28571428571429,147.51322751322752 114.07407407407408,146.8783068783069 113.65079365079366,146.24338624338625 113.43915343915344,145.60846560846562 113.01587301587303,144.973544973545 112.5925925925926,144.55026455026456 112.16931216931218,143.91534391534393 111.74603174603176,143.4920634920635 111.32275132275133,143.0687830687831 110.89947089947091,142.64550264550266 110.26455026455027,142.22222222222223 109.84126984126985,141.7989417989418 109.20634920634922,141.3756613756614 108.57142857142858,140.95238095238096 107.93650793650795,140.74074074074076 107.3015873015873,140.31746031746033 106.66666666666667,140.10582010582013 106.03174603174604,139.8941798941799 105.3968253968254,139.47089947089947 104.76190476190477,139.47089947089947 104.12698412698414,139.04761904761907 103.4920634920635,139.04761904761907 102.85714285714286,138.83597883597884 102.22222222222223,138.83597883597884 101.5873015873016,138.62433862433863 100.95238095238096,138.62433862433863 100.31746031746033,138.41269841269843 99.68253968253968,138.41269841269843 99.04761904761905,138.41269841269843 98.41269841269842,138.41269841269843 97.77777777777779,138.41269841269843 97.14285714285715,138.41269841269843 96.50793650793652,138.2010582010582 95.87301587301587,138.2010582010582 95.23809523809524,138.2010582010582 94.60317460317461,138.2010582010582 93.96825396825398,138.2010582010582 93.33333333333334,138.2010582010582 92.69841269841271,138.41269841269843 92.06349206349208,138.41269841269843 91.42857142857143,138.41269841269843 90.7936507936508,138.41269841269843 90.15873015873017,138.62433862433863 89.52380952380953,138.83597883597884 88.8888888888889,138.83597883597884 88.25396825396827,139.04761904761907 87.61904761904762,139.04761904761907 86.98412698412699,139.47089947089947 86.34920634920636,139.6825396825397 85.71428571428572,140.10582010582013 85.07936507936509,140.31746031746033 84.44444444444446,140.52910052910053 83.80952380952381,140.95238095238096 83.17460317460318,141.16402116402116 82.75132275132276,141.5873015873016 82.11640211640213,141.7989417989418 81.6931216931217,142.22222222222223 81.26984126984128,142.64550264550266 80.63492063492065,143.0687830687831 80.0,143.4920634920635 79.36507936507937,143.91534391534393 78.94179894179895,144.33862433862436 78.30687830687832,144.76190476190476 77.88359788359789,145.39682539682542 77.46031746031747,146.03174603174605 77.03703703703704,146.45502645502646 76.61375661375662,147.0899470899471 76.4021164021164,147.72486772486775 75.97883597883599,148.35978835978838 75.97883597883599,148.99470899470901 75.76719576719577,149.62962962962965 75.55555555555556,150.26455026455028 75.55555555555556,150.8994708994709 75.55555555555556,151.53439153439155 75.55555555555556,152.16931216931218 75.55555555555556,152.8042328042328 75.55555555555556,153.43915343915344 75.76719576719577,154.07407407407408 75.76719576719577,154.7089947089947 75.97883597883599,155.34391534391534 76.19047619047619,155.978835978836 76.19047619047619,156.61375661375664 76.4021164021164,157.24867724867727 76.61375661375662,157.8835978835979 76.82539682539684,158.51851851851853 77.03703703703704,159.15343915343917 77.46031746031747,159.7883597883598 77.46031746031747,160.42328042328043 77.88359788359789,161.05820105820106 78.0952380952381,161.6931216931217 78.30687830687832,162.32804232804233 78.51851851851852,162.96296296296296 78.94179894179895,163.3862433862434 78.94179894179895,164.02116402116403 79.36507936507937,164.65608465608466 79.57671957671958,165.2910052910053 79.57671957671958,165.92592592592595 79.7883597883598,166.56084656084658 79.7883597883598,167.19576719576722 80.0,167.83068783068785 80.21164021164022,168.46560846560848 80.21164021164022,169.10052910052912 80.42328042328043,169.73544973544975 80.63492063492065,170.37037037037038 80.63492063492065,171.005291005291 80.84656084656085,171.64021164021165 81.05820105820106,172.27513227513228 81.05820105820106,172.9100529100529 81.26984126984128,173.54497354497354 81.05820105820106,174.1798941798942 81.05820105820106,174.81481481481484 81.05820105820106,175.44973544973547 80.63492063492065,176.0846560846561 80.42328042328043,176.71957671957674 80.0,177.35449735449737 79.57671957671958,177.7777777777778 79.15343915343917,178.2010582010582 78.51851851851852,178.62433862433863 77.88359788359789,179.04761904761907 77.24867724867725,179.25925925925927 76.61375661375662,179.4708994708995 75.97883597883599,179.8941798941799 75.34391534391536,180.10582010582013 74.70899470899471,180.31746031746033 74.07407407407408,180.52910052910053 73.43915343915344,180.74074074074076 72.80423280423281,180.95238095238096 72.16931216931218,181.16402116402116 71.53439153439155,181.3756613756614 70.8994708994709,181.3756613756614 70.26455026455027,181.5873015873016 69.62962962962963,181.79894179894183 68.994708994709,182.01058201058203 68.35978835978837,181.79894179894183 67.72486772486774,182.01058201058203 67.08994708994709,182.22222222222223 66.45502645502646,182.43386243386246 65.82010582010582,182.43386243386246 65.18518518518519,182.64550264550266 64.55026455026456,182.85714285714286 63.91534391534392,183.0687830687831 63.280423280423285,183.0687830687831 62.64550264550265,183.2804232804233 62.01058201058201,183.4920634920635 61.37566137566138,183.4920634920635 60.74074074074075,183.70370370370372 60.10582010582011,183.91534391534393 59.470899470899475,184.12698412698415 58.83597883597884,184.12698412698415 58.2010582010582,184.33862433862436 57.56613756613757,184.55026455026456 56.93121693121694,184.7619047619048 56.2962962962963,184.973544973545 55.661375661375665,184.973544973545 55.02645502645503,185.1851851851852 54.39153439153439,185.39682539682542 53.75661375661376,185.60846560846562 53.12169312169313,185.82010582010582 52.48677248677249,185.82010582010582 51.851851851851855,186.03174603174605 51.42857142857143,186.45502645502646 50.7936507936508,186.66666666666669 50.158730158730165,186.8783068783069 49.523809523809526,187.08994708994712 48.88888888888889,187.08994708994712 48.25396825396826,187.30158730158732 47.61904761904762,187.51322751322752 46.98412698412699,187.72486772486775 46.349206349206355,187.93650793650795 45.714285714285715,188.14814814814815 45.07936507936508,188.14814814814815 44.44444444444445,188.35978835978838 43.80952380952381,188.57142857142858 43.17460317460318,188.78306878306879 42.539682539682545,188.99470899470901 41.904761904761905,189.20634920634922 41.26984126984127,189.20634920634922 40.63492063492064,189.41798941798945 40.0,189.62962962962965 39.36507936507937,189.84126984126985 38.730158730158735,190.05291005291008 38.095238095238095,190.26455026455028 34.920634920634924,191.11111111111111" style="fill:none; stroke:#00aa99; stroke-width:1.0"  /><polyline points="34.920634920634924,191.11111111111111 34.28571428571429,187.93650793650795 34.28571428571429,187.30158730158732 34.074074074074076,186.66666666666669 34.074074074074076,186.03174603174605 33.86243386243387,185.39682539682542 33.86243386243387,184.7619047619048 33.65079365079365,184.12698412698415 33.65079365079365,183.4920634920635 33.43915343915344,182.85714285714286 33.43915343915344,182.22222222222223 33.22751322751323,181.5873015873016 33.01587301587302,180.95238095238096 33.01587301587302,180.31746031746033 32.804232804232804,179.6825396825397 32.592592592592595,179.04761904761907 32.592592592592595,178.41269841269843 32.38095238095239,177.7777777777778 32.38095238095239,177.14285714285717 32.16931216931217,176.50793650793653 31.95767195767196,175.87301587301587 31.95767195767196,175.23809523809524 31.746031746031747,174.6031746031746 31.53439153439154,173.96825396825398 31.322751322751326,173.33333333333334 31.322751322751326,172.6984126984127 31.111111111111114,172.06349206349208 30.899470899470902,171.42857142857144 30.899470899470902,170.7936507936508 30.68783068783069,170.15873015873018 30.68783068783069,169.52380952380955 30.476190476190478,168.8888888888889 30.264550264550266,168.25396825396825 30.264550264550266,167.61904761904762 30.052910052910054,166.984126984127 30.052910052910054,166.34920634920636 29.841269841269842,165.71428571428572 29.629629629629633,165.0793650793651 29.41798941798942,164.44444444444446 29.41798941798942,163.80952380952382 29.20634920634921,163.1746031746032 28.994708994708997,162.53968253968256 28.783068783068785,161.90476190476193 28.571428571428573,161.2698412698413 28.571428571428573,160.63492063492066 28.35978835978836,160.0 28.14814814814815,159.36507936507937 28.14814814814815,158.73015873015873 27.93650793650794,158.0952380952381 27.724867724867728,157.46031746031747 27.724867724867728,156.82539682539684 27.513227513227516,156.1904761904762 27.301587301587304,155.55555555555557 27.089947089947092,154.92063492063494 27.089947089947092,154.2857142857143 26.87830687830688,153.65079365079367 26.87830687830688,153.01587301587304 26.666666666666668,152.38095238095238 26.666666666666668,151.74603174603175 26.455026455026456,151.11111111111111 26.243386243386244,150.47619047619048 26.243386243386244,149.84126984126985 26.031746031746035,149.20634920634922 26.031746031746035,148.57142857142858 25.820105820105823,147.93650793650795 25.60846560846561,147.30158730158732 25.60846560846561,146.66666666666669 25.3968253968254,146.03174603174605 25.185185185185187,145.39682539682542 25.185185185185187,144.76190476190476 24.973544973544975,144.12698412698413 24.973544973544975,143.4920634920635 24.761904761904763,142.85714285714286 24.55026455026455,142.22222222222223 24.55026455026455,141.5873015873016 24.338624338624342,140.95238095238096 24.12698412698413,140.31746031746033 23.915343915343918,139.6825396825397 23.915343915343918,139.04761904761907 23.703703703703706,138.41269841269843 23.492063492063494,137.7777777777778 23.492063492063494,137.14285714285717 23.280423280423282,136.5079365079365 23.280423280423282,135.87301587301587 23.06878306878307,135.23809523809524 22.857142857142858,134.6031746031746 22.857142857142858,133.96825396825398 22.645502645502646,133.33333333333334 22.645502645502646,132.6984126984127 22.433862433862437,132.06349206349208 22.222222222222225,131.42857142857144 22.222222222222225,130.7936507936508 22.010582010582013,130.15873015873018 21.7989417989418,129.52380952380955 21.7989417989418,128.88888888888889 21.58730158730159,128.25396825396825 21.375661375661377,127.61904761904763 21.164021164021165,126.98412698412699 20.952380952380953,126.34920634920636 20.740740740740744,125.71428571428572 20.740740740740744,125.07936507936509 20.529100529100532,124.44444444444446 20.31746031746032,123.80952380952382 20.105820105820108,123.17460317460318 20.105820105820108,122.53968253968254 19.894179894179896,121.90476190476191 19.894179894179896,121.26984126984128 19.682539682539684,120.63492063492065 19.682539682539684,120.00000000000001 19.47089947089947,119.36507936507937 19.25925925925926,118.73015873015873 19.25925925925926,118.0952380952381 19.047619047619047,117.46031746031747 18.83597883597884,116.82539682539684 18.83597883597884,116.1904761904762 18.624338624338627,115.55555555555557 18.412698412698415,114.92063492063492 18.412698412698415,114.28571428571429 18.201058201058203,113.65079365079366 18.201058201058203,113.01587301587303 17.98941798941799,112.3809523809524 17.98941798941799,111.74603174603176 17.77777777777778,111.11111111111111 17.566137566137566,110.47619047619048 17.354497354497354,109.84126984126985 17.354497354497354,109.20634920634922 17.142857142857146,108.57142857142858 16.931216931216934,107.93650793650795 16.931216931216934,107.3015873015873 16.71957671957672,106.66666666666667 16.50793650793651,106.03174603174604 16.296296296296298,105.3968253968254 16.296296296296298,104.76190476190477 16.084656084656086,104.12698412698414 15.873015873015873,103.4920634920635 15.661375661375663,102.85714285714286 15.661375661375663,102.22222222222223 15.449735449735451,101.5873015873016 15.449735449735451,100.95238095238096 15.238095238095239,100.31746031746033 15.026455026455027,99.68253968253968 15.026455026455027,99.04761904761905 14.814814814814817,98.41269841269842 14.814814814814817,97.77777777777779 14.603174603174605,97.14285714285715 14.391534391534393,96.50793650793652 14.17989417989418,95.87301587301587 14.17989417989418,95.23809523809524 13.96825396825397,94.60317460317461 13.96825396825397,93.96825396825398 13.756613756613758,93.33333333333334 13.333333333333334,92.91005291005291 13.333333333333334,92.27513227513228 13.121693121693122,91.64021164021165 12.910052910052912,91.00529100529101 12.910052910052912,90.37037037037038 12.6984126984127,89.73544973544975 12.486772486772487,89.1005291005291 12.486772486772487,88.46560846560847 12.275132275132275,87.83068783068784 12.275132275132275,87.1957671957672 12.063492063492065,86.56084656084657 11.851851851851853,85.92592592592594 11.851851851851853,85.29100529100529 11.640211640211641,84.65608465608466 11.428571428571429,84.02116402116403 11.216931216931219,83.3862433862434 11.216931216931219,82.75132275132276 11.005291005291006,82.11640211640213 11.005291005291006,81.48148148148148 10.793650793650794,80.84656084656085 10.582010582010582,80.21164021164022 10.582010582010582,79.57671957671958 10.370370370370372,78.94179894179895 10.370370370370372,78.30687830687832 10.15873015873016,77.67195767195767 9.947089947089948,77.03703703703704 9.947089947089948,76.4021164021164 9.735449735449736,75.76719576719577 9.523809523809524,75.13227513227514 9.523809523809524,74.49735449735451 9.312169312169313,73.86243386243387 9.100529100529101,73.22751322751323 9.100529100529101,72.5925925925926 8.88888888888889,71.95767195767196 8.677248677248677,71.32275132275133 8.677248677248677,70.6878306878307 8.465608465608467,70.05291005291006 8.253968253968255,69.41798941798942 8.253968253968255,68.78306878306879 8.042328042328043,68.14814814814815 8.042328042328043,67.51322751322752 7.830687830687832,66.87830687830689 7.6190476190476195,66.24338624338625 7.6190476190476195,65.60846560846561 7.407407407407408,64.97354497354497 7.195767195767196,64.33862433862434 7.195767195767196,63.70370370370371 6.984126984126985,63.06878306878308 6.984126984126985,62.43386243386244 6.772486772486773,61.798941798941804 6.560846560846561,61.16402116402117 6.560846560846561,60.52910052910053 6.34920634920635,59.8941798941799 6.137566137566138,59.25925925925927 6.137566137566138,58.62433862433863 5.714285714285714,57.989417989417994 5.502645502645503,57.35449735449736 5.502645502645503,56.71957671957672 5.291005291005291,56.08465608465609 5.291005291005291,55.449735449735456 5.07936507936508,54.81481481481482 4.867724867724868,54.179894179894184 4.867724867724868,53.54497354497355 4.656084656084657,52.91005291005291 4.444444444444445,52.27513227513228 4.444444444444445,51.640211640211646 4.2328042328042335,51.00529100529101 4.2328042328042335,50.370370370370374 4.021164021164021,49.73544973544974 3.8095238095238098,49.1005291005291 3.8095238095238098,48.46560846560847 3.597883597883598,47.830687830687836 3.597883597883598,47.195767195767196 3.3862433862433865,46.560846560846564 3.174603174603175,45.92592592592593 3.174603174603175,45.29100529100529 2.9629629629629632,44.65608465608466 2.9629629629629632,44.021164021164026 2.7513227513227516,43.386243386243386 2.53968253968254,42.75132275132275 2.53968253968254,42.11640211640212 2.3280423280423284,41.48148148148149 2.1164021164021167,40.84656084656085 1.9047619047619049,40.211640211640216 1.9047619047619049,39.57671957671958 1.6931216931216932,38.94179894179894 1.4814814814814816,38.30687830687831 1.4814814814814816,37.67195767195768 1.26984126984127,37.03703703703704 1.0582010582010584,36.402116402116405 0.8465608465608466,35.76719576719577 0.0,32.38095238095239" style="fill:none; stroke:#3300bb; stroke-width:3.0" stroke-dasharray="6,3" /><circle cx="0.0" cy="32.38095238095239" r="2.0" style="fill:none; stroke:#000000aa; stroke-width:0.25" /><circle cx="146.8783068783069" cy="-0.21164021164021166" r="2.0" style="fill:none; stroke:#000000aa; stroke-width:0.25" /><circle cx="173.54497354497354" cy="172.27513227513228" r="2.0" style="fill:none; stroke:#000000aa; stroke-width:0.25" /><circle cx="34.920634920634924" cy="191.11111111111111" r="2.0" style="fill:none; stroke:#000000aa; stroke-width:0.25" /><circle cx="0.21164021164021166" cy="32.804232804232804" r="2.0" style="fill:none; stroke:#ff3366aa; stroke-width:0.25" /><circle cx="146.8783068783069" cy="0.634920634920635" r="2.0" style="fill:none; stroke:#ff3366aa; stroke-width:0.25" /><circle cx="173.12169312169314" cy="172.06349206349208" r="2.0" style="fill:none; stroke:#ff3366aa; stroke-width:0.25" /><circle cx="35.13227513227513" cy="191.11111111111111" r="2.0" style="fill:none; stroke:#ff3366aa; stroke-width:0.25" /><polyline points="11.428571428571429,28.571428571428573 10.793650793650794,28.783068783068785 10.15873015873016,28.994708994708997 9.523809523809524,29.20634920634921 8.88888888888889,29.41798941798942 8.253968253968255,29.629629629629633 7.6190476190476195,29.629629629629633 6.984126984126985,29.841269841269842 6.34920634920635,30.052910052910054 5.714285714285714,30.052910052910054 5.07936507936508,30.476190476190478 4.444444444444445,30.68783068783069 3.8095238095238098,30.899470899470902 3.174603174603175,31.322751322751326" style="fill:none; stroke:#001100; stroke-width:1.0" /><polyline points="2.9629629629629632,44.021164021164026 2.7513227513227516,43.386243386243386 2.53968253968254,42.75132275132275 2.53968253968254,42.11640211640212 2.3280423280423284,41.48148148148149 2.1164021164021167,40.84656084656085 1.9047619047619049,40.211640211640216 1.9047619047619049,39.57671957671958 1.6931216931216932,38.94179894179894 1.4814814814814816,38.30687830687831 1.4814814814814816,37.67195767195768 1.26984126984127,37.03703703703704 1.0582010582010584,36.402116402116405 0.8465608465608466,35.76719576719577" style="fill:none; stroke:#000011; stroke-width:1.0" /><polyline points="147.93650793650795,12.063492063492065 147.72486772486775,11.428571428571429 147.72486772486775,10.793650793650794 147.72486772486775,10.15873015873016 147.72486772486775,9.523809523809524 147.51322751322752,8.88888888888889 147.51322751322752,8.253968253968255 147.51322751322752,7.6190476190476195 147.51322751322752,6.984126984126985 147.51322751322752,6.34920634920635 147.30158730158732,5.714285714285714 147.30158730158732,5.07936507936508 147.30158730158732,4.444444444444445 147.30158730158732,3.8095238095238098" style="fill:none; stroke:#001100; stroke-width:1.0" /><polyline points="135.23809523809524,1.9047619047619049 135.87301587301587,1.9047619047619049 136.5079365079365,1.6931216931216932 137.14285714285717,1.4814814814814816 137.7777777777778,1.26984126984127 138.41269841269843,1.26984126984127 139.04761904761907,1.0582010582010584 139.6825396825397,1.0582010582010584 140.31746031746033,0.8465608465608466 140.95238095238096,0.8465608465608466 141.5873015873016,0.634920634920635 142.22222222222223,0.634920634920635 142.85714285714286,0.4232804232804233 143.4920634920635,0.4232804232804233" style="fill:none; stroke:#000011; stroke-width:1.0" /><polyline points="161.90476190476193,175.23809523809524 162.53968253968256,175.02645502645504 163.1746031746032,174.81481481481484 163.80952380952382,174.6031746031746 164.44444444444446,174.3915343915344 165.0793650793651,174.1798941798942 165.71428571428572,174.1798941798942 166.34920634920636,173.96825396825398 166.984126984127,173.75661375661377 167.61904761904762,173.75661375661377 168.25396825396825,173.54497354497354 168.8888888888889,173.33333333333334 169.52380952380955,173.33333333333334 170.15873015873018,173.12169312169314" style="fill:none; stroke:#001100; stroke-width:1.0" /><polyline points="174.1798941798942,160.21164021164023 174.1798941798942,160.84656084656086 173.96825396825398,161.4814814814815 173.96825396825398,162.11640211640213 174.1798941798942,162.75132275132276 174.1798941798942,163.3862433862434 174.1798941798942,164.02116402116403 174.1798941798942,164.65608465608466 174.1798941798942,165.2910052910053 174.1798941798942,165.92592592592595 173.96825396825398,166.56084656084658 173.75661375661377,167.19576719576722 173.75661375661377,167.83068783068785 173.75661375661377,168.46560846560848 173.75661375661377,169.10052910052912" style="fill:none; stroke:#000011; stroke-width:1.0" /><polyline points="32.804232804232804,179.6825396825397 33.01587301587302,180.31746031746033 33.01587301587302,180.95238095238096 33.22751322751323,181.5873015873016 33.43915343915344,182.22222222222223 33.43915343915344,182.85714285714286 33.65079365079365,183.4920634920635 33.65079365079365,184.12698412698415 33.86243386243387,184.7619047619048 33.86243386243387,185.39682539682542 34.074074074074076,186.03174603174605 34.074074074074076,186.66666666666669 34.28571428571429,187.30158730158732 34.28571428571429,187.93650793650795" style="fill:none; stroke:#001100; stroke-width:1.0" /><polyline points="46.349206349206355,187.93650793650795 45.714285714285715,188.14814814814815 45.07936507936508,188.14814814814815 44.44444444444445,188.35978835978838 43.80952380952381,188.57142857142858 43.17460317460318,188.78306878306879 42.539682539682545,188.99470899470901 41.904761904761905,189.20634920634922 41.26984126984127,189.20634920634922 40.63492063492064,189.41798941798945 40.0,189.62962962962965 39.36507936507937,189.84126984126985 38.730158730158735,190.05291005291008 38.095238095238095,190.26455026455028" style="fill:none; stroke:#000011; stroke-width:1.0" /><polyline points="3.174603174603175,31.322751322751326 -16.931216931216934,38.095238095238095" style="fill:none; stroke:#ffaa00; stroke-width:0.4" /><polyline points="0.8465608465608466,35.76719576719577 -4.444444444444445,15.238095238095239" style="fill:none; stroke:#aaff00; stroke-width:0.4" /><polyline points="147.30158730158732,3.8095238095238098 145.60846560846562,-17.354497354497354" style="fill:none; stroke:#ffaa00; stroke-width:0.4" /><polyline points="143.4920634920635,0.4232804232804233 164.23280423280426,-3.3862433862433865" style="fill:none; stroke:#aaff00; stroke-width:0.4" /><polyline points="170.15873015873018,173.12169312169314 190.6878306878307,167.83068783068785" style="fill:none; stroke:#ffaa00; stroke-width:0.4" /><polyline points="173.75661375661377,169.10052910052912 172.6984126984127,190.26455026455028" style="fill:none; stroke:#aaff00; stroke-width:0.4" /><polyline points="34.28571428571429,187.93650793650795 38.095238095238095,208.67724867724868" style="fill:none; stroke:#ffaa00; stroke-width:0.4" /><polyline points="38.095238095238095,190.26455026455028 17.77777777777778,195.978835978836" style="fill:none; stroke:#aaff00; stroke-width:0.4" /><circle cx="95.44973544973546" cy="98.83597883597885" r="1.0" style="fill:#444444; stroke-width:0" /><circle cx="59.04761904761905" cy="106.45502645502647" r="10.582010582010582" style="fill:#ff770022; stroke-width:0" /><circle cx="59.04761904761905" cy="106.45502645502647" r="1.0" style="fill:#ff7700; stroke-width:0" /></svg>