<?xml version="1.0" encoding="UTF-8" standalone="no"?><svg width="477.46031746031747" height="538.4126984126984" viewBox="-10 -10 179.15343915343917 199.4708994708995" xmlns="http://www.w3.org/2000/svg" xmlns:xlink="http://www.w3.org/1999/xlink"><polyline points="31.53439153439154,46.77248677248678 34.920634920634924,47.61904761904762 35.55555555555556,47.830687830687836 36.19047619047619,47.830687830687836 36.82539682539683,48.042328042328045 37.46031746031746,48.042328042328045 38.095238095238095,48.25396825396826 38.730158730158735,48.25396825396826 39.36507936507937,48.46560846560847 40.0,48.677248677248684 40.63492063492064,48.88888888888889 41.26984126984127,48.88888888888889 41.904761904761905,49.1005291005291 42.539682539682545,49.31216931216932 43.17460317460318,49.523809523809526 43.80952380952381,49.523809523809526 44.44444444444445,49.73544973544974 45.07936507936508,49.94708994708995 45.714285714285715,49.94708994708995 46.349206349206355,49.94708994708995 46.98412698412699,50.158730158730165 47.61904761904762,50.370370370370374 48.25396825396826,50.370370370370374 48.88888888888889,50.58201058201058 49.523809523809526,50.7936507936508 50.158730158730165,51.00529100529101 50.7936507936508,51.21693121693122 51.42857142857143,51.42857142857143 52.06349206349207,51.42857142857143 52.6984126984127,51.640211640211646 53.333333333333336,52.06349206349207 53.968253968253975,52.06349206349207 54.60317460317461,52.27513227513228 55.23809523809524,52.48677248677249 55.87301587301588,52.6984126984127 56.50793650793651,52.6984126984127 57.142857142857146,52.6984126984127 57.777777777777786,52.6984126984127 58.41269841269842,52.6984126984127 59.04761904761905,52.6984126984127 59.682539682539684,52.48677248677249 60.31746031746032,52.27513227513228 60.952380952380956,52.06349206349207 61.58730158730159,51.640211640211646 62.22222222222223,51.21693121693122 62.85714285714286,50.7936507936508 63.280423280423285,50.370370370370374 63.70370370370371,49.94708994708995 64.12698412698413,49.523809523809526 64.55026455026456,49.1005291005291 64.76190476190477,48.46560846560847 65.18518518518519,47.830687830687836 65.3968253968254,47.195767195767196 65.3968253968254,46.560846560846564 65.60846560846561,45.92592592592593 65.60846560846561,45.29100529100529 65.60846560846561,44.65608465608466 65.60846560846561,44.021164021164026 65.60846560846561,43.386243386243386 65.3968253968254,42.75132275132275 65.18518518518519,42.11640211640212 64.97354497354497,41.48148148148149 64.76190476190477,40.84656084656085 64.33862433862434,40.423280423280424 63.91534391534392,40.0 63.70370370370371,39.36507936507937 63.280423280423285,38.730158730158735 62.85714285714286,38.095238095238095 62.43386243386244,37.46031746031746 62.01058201058201,37.03703703703704 61.58730158730159,36.402116402116405 61.16402116402117,35.97883597883598 60.74074074074075,35.55555555555556 60.31746031746032,35.13227513227513 59.8941798941799,34.70899470899471 59.470899470899475,34.28571428571429 59.04761904761905,33.86243386243387 58.62433862433863,33.43915343915344 58.2010582010582,33.01587301587302 57.56613756613757,32.592592592592595 56.93121693121694,32.16931216931217 56.2962962962963,31.746031746031747 55.661375661375665,31.322751322751326 55.02645502645503,30.899470899470902 54.39153439153439,30.68783068783069 53.968253968253975,30.264550264550266 53.333333333333336,30.052910052910054 52.6984126984127,29.629629629629633 52.06349206349207,29.20634920634921 51.640211640211646,28.783068783068785 51.21693121693122,28.35978835978836 50.7936507936508,27.93650793650794 50.370370370370374,27.301587301587304 49.94708994708995,26.666666666666668 49.73544973544974,26.031746031746035 49.523809523809526,25.3968253968254 49.31216931216932,24.761904761904763 49.1005291005291,24.12698412698413 48.88888888888889,23.492063492063494 48.677248677248684,22.857142857142858 48.677248677248684,22.222222222222225 48.46560846560847,21.58730158730159 48.46560846560847,20.952380952380953 48.46560846560847,20.31746031746032 48.46560846560847,19.682539682539684 48.677248677248684,19.047619047619047 48.677248677248684,18.412698412698415 48.88888888888889,17.77777777777778 48.88888888888889,17.142857142857146 49.1005291005291,16.50793650793651 49.31216931216932,15.873015873015873 49.523809523809526,15.238095238095239 49.73544973544974,14.603174603174605 50.158730158730165,14.17989417989418 50.370370370370374,13.544973544973546 50.7936507936508,13.121693121693122 51.21693121693122,12.486772486772487 51.640211640211646,11.851851851851853 52.06349206349207,11.428571428571429 52.48677248677249,10.793650793650794 53.12169312169313,10.370370370370372 53.54497354497355,9.947089947089948 53.968253968253975,9.523809523809524 54.39153439153439,9.100529100529101 54.81481481481482,8.465608465608467 55.449735449735456,8.042328042328043 55.87301587301588,7.6190476190476195 56.2962962962963,7.195767195767196 56.71957671957672,6.772486772486773 57.35449735449736,6.34920634920635 57.777777777777786,5.9259259259259265 58.41269841269842,5.502645502645503 58.83597883597884,5.07936507936508 59.470899470899475,4.867724867724868 59.8941798941799,4.444444444444445 60.52910052910053,4.021164021164021 60.952380952380956,3.597883597883598 61.58730158730159,3.597883597883598 62.22222222222223,3.3862433862433865 62.85714285714286,3.174603174603175 63.492063492063494,2.7513227513227516 64.12698412698413,2.53968253968254 64.76190476190477,2.3280423280423284 65.3968253968254,2.1164021164021167 66.03174603174604,1.9047619047619049 66.66666666666667,1.4814814814814816 67.3015873015873,1.26984126984127 67.93650793650794,1.26984126984127 68.57142857142858,1.0582010582010584 69.20634920634922,0.8465608465608466 69.84126984126985,0.634920634920635 70.47619047619048,0.4232804232804233 71.11111111111111,0.4232804232804233 71.74603174603175,0.4232804232804233 72.38095238095238,0.4232804232804233 73.01587301587303,0.21164021164021166 73.65079365079366,0.21164021164021166 74.28571428571429,0.4232804232804233 74.92063492063492,0.4232804232804233 75.55555555555556,0.4232804232804233 76.19047619047619,0.4232804232804233 76.82539682539684,0.634920634920635 77.46031746031747,0.634920634920635 78.0952380952381,1.0582010582010584 78.73015873015873,1.4814814814814816 79.36507936507937,1.6931216931216932 79.7883597883598,2.1164021164021167 80.42328042328043,2.53968253968254 81.05820105820106,2.7513227513227516 81.48148148148148,3.174603174603175 82.11640211640213,3.597883597883598 82.53968253968254,4.021164021164021 82.96296296296298,4.444444444444445 83.59788359788361,4.867724867724868 84.23280423280424,5.291005291005291 84.65608465608466,5.714285714285714 85.07936507936509,6.137566137566138 85.5026455026455,6.772486772486773 85.92592592592594,7.195767195767196 86.34920634920636,7.6190476190476195 86.77248677248677,8.042328042328043 87.1957671957672,8.677248677248677 87.61904761904762,9.100529100529101 87.83068783068784,9.735449735449736 88.25396825396827,10.370370370370372 88.25396825396827,11.005291005291006 88.67724867724868,11.640211640211641 88.8888888888889,12.275132275132275 88.8888888888889,12.910052910052912 89.1005291005291,13.544973544973546 89.1005291005291,14.17989417989418 89.31216931216932,14.814814814814817 89.31216931216932,15.449735449735451 89.31216931216932,16.084656084656086 89.52380952380953,16.71957671957672 89.52380952380953,17.354497354497354 89.52380952380953,17.98941798941799 89.52380952380953,18.624338624338627 89.73544973544975,19.25925925925926 89.73544973544975,19.894179894179896 89.73544973544975,20.529100529100532 89.73544973544975,21.164021164021165 89.94708994708995,21.7989417989418 89.94708994708995,22.433862433862437 89.94708994708995,23.06878306878307 89.94708994708995,23.703703703703706 89.94708994708995,24.338624338624342 90.15873015873017,24.973544973544975 90.37037037037038,25.60846560846561 90.37037037037038,26.243386243386244 90.58201058201058,26.87830687830688 90.7936507936508,27.513227513227516 91.21693121693123,27.93650793650794 91.42857142857143,28.571428571428573 91.85185185185186,28.994708994708997 92.27513227513228,29.41798941798942 92.69841269841271,30.052910052910054 93.33333333333334,30.264550264550266 93.96825396825398,30.476190476190478 94.60317460317461,30.68783068783069 95.23809523809524,30.899470899470902 95.87301587301587,30.899470899470902 96.50793650793652,30.899470899470902 97.14285714285715,30.68783068783069 97.77777777777779,30.68783068783069 98.41269841269842,30.68783068783069 99.04761904761905,30.476190476190478 99.68253968253968,30.264550264550266 100.31746031746033,30.052910052910054 100.74074074074075,29.629629629629633 101.37566137566138,29.20634920634921 102.01058201058201,28.783068783068785 102.64550264550266,28.35978835978836 103.28042328042329,28.14814814814815 103.70370370370371,27.724867724867728 104.33862433862434,27.513227513227516 104.97354497354497,27.089947089947092 105.60846560846562,26.87830687830688 106.24338624338625,26.666666666666668 106.87830687830689,26.455026455026456 107.51322751322752,26.243386243386244 108.14814814814815,26.031746031746035 108.78306878306879,26.031746031746035 109.41798941798943,25.820105820105823 110.05291005291006,25.820105820105823 110.6878306878307,25.60846560846561 111.32275132275133,25.185185185185187 111.95767195767196,25.185185185185187 112.5925925925926,24.973544973544975 113.22751322751324,24.761904761904763 113.86243386243387,24.55026455026455 114.49735449735451,24.55026455026455 115.13227513227514,24.338624338624342 115.76719576719577,23.915343915343918 116.4021164021164,24.12698412698413 117.03703703703705,23.915343915343918 117.46031746031747,23.492063492063494 118.0952380952381,23.280423280423282 118.73015873015873,23.280423280423282 119.36507936507937,23.280423280423282 120.00000000000001,23.280423280423282 120.63492063492065,23.06878306878307 121.26984126984128,22.857142857142858 121.6931216931217,23.280423280423282 122.32804232804234,23.06878306878307 122.75132275132276,22.645502645502646 123.3862433862434,22.645502645502646 124.02116402116403,22.433862433862437 124.44444444444446,22.857142857142858 125.07936507936509,22.857142857142858 125.5026455026455,22.433862433862437 126.13756613756615,22.222222222222225 126.77248677248679,22.222222222222225 127.40740740740742,22.222222222222225 128.04232804232805,22.010582010582013 128.67724867724868,22.010582010582013 129.31216931216932,21.7989417989418 129.94708994708995,21.7989417989418 130.58201058201058,21.7989417989418 131.21693121693121,21.7989417989418 131.85185185185185,21.7989417989418 132.4867724867725,21.7989417989418 133.12169312169314,21.7989417989418 133.75661375661377,21.58730158730159 134.3915343915344,21.58730158730159 135.02645502645504,21.58730158730159 135.66137566137567,21.58730158730159 136.2962962962963,21.58730158730159 136.93121693121694,21.58730158730159 140.10582010582013,21.375661375661377" style="fill:none; stroke:#cc0000; stroke-width:1.0"  /><polyline points="140.10582010582013,21.375661375661377 140.52910052910053,25.185185185185187 140.52910052910053,25.820105820105823 140.74074074074076,26.455026455026456 140.74074074074076,27.089947089947092 140.74074074074076,27.724867724867728 140.95238095238096,28.35978835978836 140.95238095238096,28.994708994708997 141.16402116402116,29.629629629629633 141.16402116402116,30.264550264550266 141.16402116402116,30.899470899470902 141.3756613756614,31.53439153439154 141.3756613756614,32.16931216931217 141.5873015873016,32.804232804232804 141.5873015873016,33.43915343915344 141.7989417989418,34.074074074074076 141.7989417989418,34.70899470899471 142.01058201058203,35.34391534391535 142.01058201058203,35.97883597883598 142.01058201058203,36.613756613756614 142.22222222222223,37.248677248677254 142.43386243386246,37.883597883597886 142.43386243386246,38.51851851851852 142.43386243386246,39.15343915343916 142.64550264550266,39.78835978835979 143.0687830687831,40.423280423280424 143.0687830687831,41.058201058201064 143.2804232804233,41.6931216931217 143.2804232804233,42.32804232804233 143.2804232804233,42.96296296296297 143.4920634920635,43.5978835978836 143.4920634920635,44.232804232804234 143.70370370370372,44.867724867724874 143.70370370370372,45.50264550264551 143.91534391534393,46.13756613756614 143.91534391534393,46.77248677248678 144.12698412698413,47.40740740740741 144.33862433862436,48.042328042328045 144.33862433862436,48.677248677248684 144.33862433862436,49.31216931216932 144.55026455026456,49.94708994708995 144.76190476190476,50.58201058201058 144.76190476190476,51.21693121693122 144.973544973545,51.851851851851855 144.973544973545,52.48677248677249 144.973544973545,53.12169312169313 145.1851851851852,53.75661375661376 145.1851851851852,54.39153439153439 145.39682539682542,55.02645502645503 145.39682539682542,55.661375661375665 145.60846560846562,56.2962962962963 145.60846560846562,56.93121693121694 145.60846560846562,57.56613756613757 145.82010582010582,58.2010582010582 145.82010582010582,58.83597883597884 146.03174603174605,59.470899470899475 146.03174603174605,60.10582010582011 146.24338624338625,60.74074074074075 146.24338624338625,61.37566137566138 146.45502645502646,62.01058201058201 146.45502645502646,62.64550264550265 146.66666666666669,63.280423280423285 146.66666666666669,63.91534391534392 146.8783068783069,64.55026455026456 146.8783068783069,65.18518518518519 147.0899470899471,65.82010582010582 147.0899470899471,66.45502645502646 147.30158730158732,67.08994708994709 147.30158730158732,67.72486772486774 147.30158730158732,68.35978835978837 147.51322751322752,68.994708994709 147.51322751322752,69.62962962962963 147.72486772486775,70.26455026455027 147.72486772486775,70.8994708994709 147.93650793650795,71.53439153439155 147.93650793650795,72.16931216931218 148.14814814814815,72.80423280423281 148.14814814814815,73.43915343915344 148.35978835978838,74.07407407407408 148.57142857142858,74.70899470899471 148.78306878306879,75.34391534391536 148.78306878306879,75.97883597883599 148.99470899470901,76.61375661375662 148.99470899470901,77.24867724867725 149.20634920634922,77.88359788359789 149.20634920634922,78.51851851851852 149.20634920634922,79.15343915343917 149.41798941798942,79.7883597883598 149.41798941798942,80.42328042328043 149.62962962962965,81.05820105820106 149.62962962962965,81.6931216931217 149.84126984126985,82.32804232804233 149.84126984126985,82.96296296296298 150.05291005291005,83.59788359788361 150.05291005291005,84.23280423280424 150.26455026455028,84.86772486772487 150.26455026455028,85.5026455026455 150.47619047619048,86.13756613756614 150.47619047619048,86.77248677248677 150.6878306878307,87.40740740740742 150.6878306878307,88.04232804232805 150.8994708994709,88.67724867724868 150.8994708994709,89.31216931216932 151.11111111111111,89.94708994708995 151.11111111111111,90.58201058201058 151.32275132275134,91.21693121693123 151.32275132275134,91.85185185185186 151.53439153439155,92.4867724867725 151.53439153439155,93.12169312169313 151.74603174603175,93.75661375661376 151.74603174603175,94.39153439153439 151.95767195767198,95.02645502645504 151.95767195767198,95.66137566137567 152.16931216931218,96.2962962962963 152.16931216931218,96.93121693121694 152.38095238095238,97.56613756613757 152.38095238095238,98.2010582010582 152.38095238095238,98.83597883597885 152.5925925925926,99.47089947089948 152.5925925925926,100.10582010582011 152.8042328042328,100.74074074074075 153.01587301587304,101.37566137566138 153.01587301587304,102.01058201058201 153.01587301587304,102.64550264550266 153.22751322751324,103.28042328042329 153.22751322751324,103.91534391534393 153.43915343915344,104.55026455026456 153.43915343915344,105.18518518518519 153.65079365079367,105.82010582010582 153.65079365079367,106.45502645502647 153.86243386243387,107.0899470899471 153.86243386243387,107.72486772486774 154.07407407407408,108.35978835978837 154.07407407407408,108.994708994709 154.2857142857143,109.62962962962963 154.4973544973545,110.26455026455027 154.7089947089947,110.89947089947091 154.7089947089947,111.53439153439155 154.92063492063494,112.16931216931218 154.92063492063494,112.80423280423281 154.92063492063494,113.43915343915344 155.13227513227514,114.07407407407408 155.34391534391534,114.70899470899472 155.34391534391534,115.34391534391536 155.34391534391534,115.97883597883599 155.55555555555557,116.61375661375662 155.55555555555557,117.24867724867725 155.76719576719577,117.88359788359789 155.76719576719577,118.51851851851853 155.978835978836,119.15343915343917 155.978835978836,119.7883597883598 156.1904761904762,120.42328042328043 156.4021164021164,121.05820105820106 156.4021164021164,121.6931216931217 156.4021164021164,122.32804232804234 156.61375661375664,122.96296296296298 156.61375661375664,123.59788359788361 156.82539682539684,124.23280423280424 156.82539682539684,124.86772486772487 156.82539682539684,125.5026455026455 157.03703703703704,126.13756613756615 157.03703703703704,126.77248677248679 157.24867724867727,127.40740740740742 157.46031746031747,128.04232804232805 157.67195767195767,128.67724867724868 157.8835978835979,129.31216931216932 157.8835978835979,129.94708994708995 158.0952380952381,130.58201058201058 158.73015873015873,133.96825396825398" style="fill:none; stroke:#999900; stroke-width:3.0" stroke-dasharray="6,3" /><polyline points="158.73015873015873,133.96825396825398 155.55555555555557,133.96825396825398 154.92063492063494,133.96825396825398 154.2857142857143,133.75661375661377 153.65079365079367,133.75661375661377 153.01587301587304,133.75661375661377 152.38095238095238,133.75661375661377 151.74603174603175,133.75661375661377 151.11111111111111,133.75661375661377 150.47619047619048,134.17989417989418 149.84126984126985,134.17989417989418 149.20634920634922,134.17989417989418 148.57142857142858,134.17989417989418 147.93650793650795,134.17989417989418 147.30158730158732,134.17989417989418 146.66666666666669,134.17989417989418 146.03174603174605,134.17989417989418 145.39682539682542,134.17989417989418 144.76190476190476,134.17989417989418 144.12698412698413,134.3915343915344 143.4920634920635,134.3915343915344 142.85714285714286,134.3915343915344 142.22222222222223,134.3915343915344 141.5873015873016,134.6031746031746 140.95238095238096,134.6031746031746 140.31746031746033,134.6031746031746 139.6825396825397,134.81481481481484 139.04761904761907,134.81481481481484 138.41269841269843,134.81481481481484 137.7777777777778,135.02645502645504 137.14285714285717,135.02645502645504 136.5079365079365,135.23809523809524 135.87301587301587,135.23809523809524 135.23809523809524,135.44973544973547 134.6031746031746,135.44973544973547 133.96825396825398,135.66137566137567 133.33333333333334,135.66137566137567 132.6984126984127,135.87301587301587 132.06349206349208,135.87301587301587 131.42857142857144,136.0846560846561 130.7936507936508,136.2962962962963 130.15873015873018,136.2962962962963 129.52380952380955,136.5079365079365 128.88888888888889,136.5079365079365 128.25396825396825,136.71957671957674 127.61904761904763,136.93121693121694 126.98412698412699,136.93121693121694 126.34920634920636,137.14285714285717 125.71428571428572,137.35449735449737 125.07936507936509,137.35449735449737 124.44444444444446,137.56613756613757 123.80952380952382,137.7777777777778 123.17460317460318,137.989417989418 122.53968253968254,137.989417989418 121.90476190476191,138.2010582010582 121.26984126984128,138.41269841269843 120.63492063492065,138.62433862433863 120.00000000000001,138.83597883597884 119.36507936507937,139.04761904761907 118.73015873015873,139.25925925925927 118.0952380952381,139.6825396825397 117.46031746031747,140.10582010582013 116.82539682539684,140.31746031746033 116.4021164021164,140.74074074074076 115.97883597883599,141.16402116402116 115.55555555555557,141.5873015873016 114.92063492063492,142.01058201058203 114.49735449735451,142.43386243386246 114.07407407407408,142.85714285714286 113.65079365079366,143.2804232804233 113.22751322751324,143.91534391534393 112.80423280423281,144.33862433862436 112.80423280423281,144.973544973545 112.5925925925926,145.60846560846562 112.3809523809524,146.24338624338625 111.95767195767196,146.8783068783069 111.95767195767196,147.51322751322752 111.74603174603176,148.14814814814815 111.53439153439155,148.78306878306879 111.53439153439155,149.41798941798942 111.53439153439155,150.05291005291005 111.53439153439155,150.6878306878307 111.74603174603176,151.32275132275134 111.95767195767196,151.95767195767198 112.16931216931218,152.5925925925926 112.3809523809524,153.22751322751324 112.5925925925926,153.86243386243387 113.01587301587303,154.4973544973545 113.43915343915344,155.13227513227514 113.86243386243387,155.76719576719577 114.28571428571429,156.4021164021164 114.70899470899472,157.03703703703704 115.13227513227514,157.67195767195767 115.55555555555557,158.0952380952381 115.76719576719577,158.73015873015873 116.1904761904762,159.15343915343917 116.61375661375662,159.5767195767196 116.82539682539684,160.21164021164023 117.24867724867725,160.84656084656086 117.67195767195768,161.4814814814815 117.88359788359789,162.11640211640213 118.0952380952381,162.75132275132276 118.30687830687832,163.3862433862434 118.51851851851853,164.02116402116403 118.94179894179895,164.65608465608466 118.94179894179895,165.2910052910053 119.15343915343917,165.92592592592595 119.15343915343917,166.56084656084658 119.36507936507937,167.19576719576722 119.36507936507937,167.83068783068785 119.57671957671958,168.46560846560848 119.36507936507937,169.10052910052912 119.36507936507937,169.73544973544975 119.36507936507937,170.37037037037038 119.15343915343917,171.005291005291 118.94179894179895,171.64021164021165 118.51851851851853,172.27513227513228 118.30687830687832,172.9100529100529 117.88359788359789,173.33333333333334 117.46031746031747,173.75661375661377 117.03703703703705,174.1798941798942 116.61375661375662,174.6031746031746 116.1904761904762,175.02645502645504 115.76719576719577,175.44973544973547 115.34391534391536,175.87301587301587 114.70899470899472,176.0846560846561 114.07407407407408,176.50793650793653 113.43915343915344,176.71957671957674 113.01587301587303,177.14285714285717 112.3809523809524,177.35449735449737 111.74603174603176,177.56613756613757 111.11111111111111,177.7777777777778 110.47619047619048,177.989417989418 109.84126984126985,178.2010582010582 109.20634920634922,178.41269841269843 108.57142857142858,178.41269841269843 107.93650793650795,178.62433862433863 107.3015873015873,178.83597883597884 106.66666666666667,178.83597883597884 106.03174603174604,179.04761904761907 105.3968253968254,179.04761904761907 104.76190476190477,179.04761904761907 104.12698412698414,179.04761904761907 103.4920634920635,179.04761904761907 102.85714285714286,179.04761904761907 102.22222222222223,179.04761904761907 101.5873015873016,179.04761904761907 100.95238095238096,179.04761904761907 100.31746031746033,178.83597883597884 99.68253968253968,178.62433862433863 99.04761904761905,178.41269841269843 98.41269841269842,178.2010582010582 97.77777777777779,177.7777777777778 97.35449735449737,177.35449735449737 96.71957671957672,176.93121693121694 96.2962962962963,176.50793650793653 95.87301587301587,175.87301587301587 95.44973544973546,175.23809523809524 95.23809523809524,174.6031746031746 95.02645502645504,173.96825396825398 94.60317460317461,173.33333333333334 94.60317460317461,172.6984126984127 94.60317460317461,172.06349206349208 94.60317460317461,171.42857142857144 94.60317460317461,170.7936507936508 94.60317460317461,170.15873015873018 94.60317460317461,169.52380952380955 94.60317460317461,168.8888888888889 94.60317460317461,168.25396825396825 94.81481481481482,167.61904761904762 94.81481481481482,166.984126984127 94.81481481481482,166.34920634920636 95.02645502645504,165.71428571428572 94.81481481481482,165.0793650793651 95.02645502645504,164.44444444444446 95.02645502645504,163.80952380952382 95.02645502645504,163.1746031746032 95.02645502645504,162.53968253968256 95.02645502645504,161.90476190476193 95.02645502645504,161.2698412698413 94.81481481481482,160.63492063492066 94.81481481481482,160.0 94.81481481481482,159.36507936507937 94.81481481481482,158.73015873015873 94.60317460317461,158.0952380952381 94.39153439153439,157.46031746031747 94.39153439153439,156.82539682539684 94.17989417989419,156.1904761904762 93.96825396825398,155.55555555555557 93.75661375661376,154.92063492063494 93.54497354497356,154.2857142857143 93.33333333333334,153.65079365079367 92.91005291005291,153.01587301587304 92.69841269841271,152.38095238095238 92.4867724867725,151.74603174603175 92.06349206349208,151.11111111111111 91.64021164021165,150.47619047619048 91.21693121693123,149.84126984126985 90.7936507936508,149.20634920634922 90.37037037037038,148.57142857142858 89.94708994708995,147.93650793650795 89.52380952380953,147.51322751322752 89.1005291005291,147.0899470899471 88.67724867724868,146.66666666666669 88.25396825396827,146.24338624338625 87.83068783068784,145.82010582010582 87.40740740740742,145.39682539682542 86.98412698412699,144.973544973545 86.56084656084657,144.55026455026456 85.92592592592594,144.12698412698413 85.29100529100529,143.70370370370372 84.65608465608466,143.2804232804233 84.02116402116403,142.85714285714286 83.3862433862434,142.43386243386246 82.75132275132276,142.22222222222223 82.32804232804233,141.7989417989418 81.6931216931217,141.5873015873016 81.05820105820106,141.3756613756614 80.42328042328043,141.3756613756614 79.7883597883598,141.16402116402116 79.15343915343917,140.95238095238096 78.51851851851852,140.74074074074076 77.88359788359789,140.74074074074076 77.24867724867725,140.52910052910053 76.61375661375662,140.52910052910053 75.97883597883599,140.31746031746033 75.34391534391536,140.31746031746033 74.70899470899471,140.10582010582013 74.07407407407408,140.10582010582013 73.43915343915344,140.10582010582013 72.80423280423281,140.10582010582013 72.16931216931218,139.8941798941799 71.53439153439155,139.8941798941799 70.8994708994709,139.8941798941799 70.26455026455027,139.8941798941799 69.62962962962963,139.8941798941799 68.994708994709,139.8941798941799 68.35978835978837,139.8941798941799 67.72486772486774,139.8941798941799 67.08994708994709,139.8941798941799 66.45502645502646,139.8941798941799 65.82010582010582,139.8941798941799 65.18518518518519,139.8941798941799 64.55026455026456,139.8941798941799 63.91534391534392,139.8941798941799 63.280423280423285,139.8941798941799 62.64550264550265,139.8941798941799 62.01058201058201,139.8941798941799 61.37566137566138,140.10582010582013 60.74074074074075,140.10582010582013 60.10582010582011,140.10582010582013 59.470899470899475,140.31746031746033 58.83597883597884,140.31746031746033 58.2010582010582,140.52910052910053 57.56613756613757,140.52910052910053 56.93121693121694,140.74074074074076 56.2962962962963,140.74074074074076 55.661375661375665,140.74074074074076 55.02645502645503,140.95238095238096 54.39153439153439,140.95238095238096 53.75661375661376,141.16402116402116 53.12169312169313,141.3756613756614 52.48677248677249,141.3756613756614 51.851851851851855,141.5873015873016 51.21693121693122,141.5873015873016 50.58201058201058,141.7989417989418 49.94708994708995,142.01058201058203 49.31216931216932,142.01058201058203 48.677248677248684,142.22222222222223 48.042328042328045,142.22222222222223 47.40740740740741,142.43386243386246 46.77248677248678,142.64550264550266 46.13756613756614,142.85714285714286 45.50264550264551,143.0687830687831 44.867724867724874,143.2804232804233 44.232804232804234,143.2804232804233 43.5978835978836,143.4920634920635 40.0,144.33862433862436" style="fill:none; stroke:#00aa99; stroke-width:1.0"  /><polyline points="40.0,144.33862433862436 39.36507936507937,140.95238095238096 39.36507936507937,140.31746031746033 39.15343915343916,139.6825396825397 38.94179894179894,139.04761904761907 38.94179894179894,138.41269841269843 38.730158730158735,137.7777777777778 38.730158730158735,137.14285714285717 38.51851851851852,136.5079365079365 38.51851851851852,135.87301587301587 38.30687830687831,135.23809523809524 38.095238095238095,134.6031746031746 38.095238095238095,133.96825396825398 37.883597883597886,133.33333333333334 37.883597883597886,132.6984126984127 37.67195767195768,132.06349206349208 37.46031746031746,131.42857142857144 37.46031746031746,130.7936507936508 37.248677248677254,130.15873015873018 37.248677248677254,129.52380952380955 37.03703703703704,128.88888888888889 37.03703703703704,128.25396825396825 36.82539682539683,127.61904761904763 36.613756613756614,126.98412698412699 36.613756613756614,126.34920634920636 36.402116402116405,125.71428571428572 36.19047619047619,125.07936507936509 36.19047619047619,124.44444444444446 35.97883597883598,123.80952380952382 35.97883597883598,123.17460317460318 35.76719576719577,122.53968253968254 35.76719576719577,121.90476190476191 35.55555555555556,121.26984126984128 35.34391534391535,120.63492063492065 35.34391534391535,120.00000000000001 35.13227513227513,119.36507936507937 35.13227513227513,118.73015873015873 34.920634920634924,118.0952380952381 34.70899470899471,117.46031746031747 34.70899470899471,116.82539682539684 34.4973544973545,116.1904761904762 34.4973544973545,115.55555555555557 34.4973544973545,114.92063492063492 34.28571428571429,114.28571428571429 34.28571428571429,113.65079365079366 34.074074074074076,113.01587301587303 34.074074074074076,112.3809523809524 33.86243386243387,111.74603174603176 33.86243386243387,111.11111111111111 33.65079365079365,110.47619047619048 33.43915343915344,109.84126984126985 33.43915343915344,109.20634920634922 33.43915343915344,108.57142857142858 33.22751322751323,107.93650793650795 33.22751322751323,107.3015873015873 33.01587301587302,106.66666666666667 32.804232804232804,106.03174603174604 32.592592592592595,105.3968253968254 32.592592592592595,104.76190476190477 32.16931216931217,104.12698412698414 31.746031746031747,103.4920634920635 31.322751322751326,102.85714285714286 30.899470899470902,102.22222222222223 30.476190476190478,101.79894179894181 29.841269841269842,101.37566137566138 29.20634920634921,100.95238095238096 28.571428571428573,100.74074074074075 27.93650793650794,100.52910052910053 27.301587301587304,100.52910052910053 26.666666666666668,100.52910052910053 26.031746031746035,100.52910052910053 25.3968253968254,100.52910052910053 24.761904761904763,100.74074074074075 24.12698412698413,100.74074074074075 23.492063492063494,100.95238095238096 22.857142857142858,100.95238095238096 22.222222222222225,101.16402116402116 21.58730158730159,101.16402116402116 20.952380952380953,101.37566137566138 20.31746031746032,101.5873015873016 19.682539682539684,101.79894179894181 19.047619047619047,101.79894179894181 18.412698412698415,102.01058201058201 17.77777777777778,102.22222222222223 17.142857142857146,102.22222222222223 16.50793650793651,102.43386243386244 15.873015873015873,102.64550264550266 15.238095238095239,102.64550264550266 14.603174603174605,102.85714285714286 13.96825396825397,102.85714285714286 13.333333333333334,103.06878306878308 12.6984126984127,103.06878306878308 12.063492063492065,103.06878306878308 11.428571428571429,103.28042328042329 10.793650793650794,103.4920634920635 10.15873015873016,103.28042328042329 9.523809523809524,103.28042328042329 8.88888888888889,103.28042328042329 8.253968253968255,103.28042328042329 7.6190476190476195,103.06878306878308 6.984126984126985,103.06878306878308 6.34920634920635,102.85714285714286 5.714285714285714,102.64550264550266 5.07936507936508,102.43386243386244 4.444444444444445,102.22222222222223 3.8095238095238098,101.79894179894181 3.174603174603175,101.37566137566138 2.7513227513227516,100.95238095238096 2.3280423280423284,100.52910052910053 1.9047619047619049,99.8941798941799 1.4814814814814816,99.25925925925927 1.4814814814814816,98.62433862433863 1.26984126984127,97.989417989418 1.0582010582010584,97.35449735449737 0.8465608465608466,96.71957671957672 0.8465608465608466,96.08465608465609 0.634920634920635,95.44973544973546 0.634920634920635,94.81481481481482 0.634920634920635,94.17989417989419 0.4232804232804233,93.54497354497356 0.4232804232804233,92.91005291005291 0.4232804232804233,92.27513227513228 0.4232804232804233,91.64021164021165 0.4232804232804233,91.00529100529101 0.21164021164021166,90.37037037037038 0.21164021164021166,89.73544973544975 0.4232804232804233,89.1005291005291 0.4232804232804233,88.46560846560847 0.4232804232804233,87.83068783068784 0.4232804232804233,87.1957671957672 0.4232804232804233,86.56084656084657 0.634920634920635,85.92592592592594 0.634920634920635,85.29100529100529 0.8465608465608466,84.65608465608466 1.0582010582010584,84.02116402116403 1.0582010582010584,83.3862433862434 1.26984126984127,82.75132275132276 1.4814814814814816,82.11640211640213 1.6931216931216932,81.48148148148148 1.9047619047619049,80.84656084656085 2.1164021164021167,80.21164021164022 2.3280423280423284,79.57671957671958 2.53968253968254,78.94179894179895 2.9629629629629632,78.30687830687832 3.174603174603175,77.67195767195767 3.597883597883598,77.03703703703704 4.021164021164021,76.4021164021164 4.444444444444445,75.76719576719577 4.867724867724868,75.34391534391536 5.291005291005291,74.92063492063492 5.714285714285714,74.49735449735451 6.34920634920635,74.28571428571429 6.984126984126985,74.07407407407408 7.6190476190476195,74.07407407407408 8.253968253968255,73.86243386243387 8.88888888888889,73.86243386243387 9.523809523809524,73.86243386243387 10.15873015873016,73.86243386243387 10.793650793650794,73.86243386243387 11.428571428571429,73.86243386243387 12.063492063492065,73.86243386243387 12.6984126984127,74.07407407407408 13.333333333333334,74.28571428571429 13.96825396825397,74.49735449735451 14.603174603174605,74.92063492063492 15.238095238095239,75.13227513227514 15.873015873015873,75.34391534391536 16.50793650793651,75.55555555555556 17.142857142857146,75.97883597883599 17.77777777777778,76.19047619047619 18.412698412698415,76.4021164021164 19.047619047619047,76.82539682539684 19.682539682539684,76.82539682539684 20.31746031746032,77.24867724867725 20.952380952380953,77.24867724867725 21.58730158730159,77.46031746031747 22.222222222222225,77.46031746031747 22.857142857142858,77.46031746031747 23.492063492063494,77.67195767195767 24.12698412698413,77.67195767195767 24.761904761904763,77.67195767195767 25.3968253968254,77.46031746031747 26.031746031746035,77.46031746031747 26.666666666666668,77.24867724867725 27.301587301587304,77.03703703703704 27.93650793650794,76.61375661375662 28.571428571428573,76.4021164021164 28.994708994708997,75.97883597883599 29.629629629629633,75.55555555555556 29.841269841269842,74.92063492063492 30.264550264550266,74.49735449735451 30.68783068783069,73.86243386243387 31.111111111111114,73.22751322751323 31.322751322751326,72.5925925925926 31.53439153439154,71.95767195767196 31.746031746031747,71.32275132275133 31.95767195767196,70.6878306878307 32.16931216931217,70.05291005291006 32.16931216931217,69.41798941798942 32.16931216931217,68.78306878306879 32.16931216931217,68.14814814814815 32.16931216931217,67.51322751322752 32.16931216931217,66.87830687830689 32.16931216931217,66.24338624338625 32.16931216931217,65.60846560846561 32.16931216931217,64.97354497354497 32.16931216931217,64.33862433862434 32.16931216931217,63.70370370370371 32.16931216931217,63.06878306878308 32.16931216931217,62.43386243386244 32.16931216931217,61.798941798941804 32.16931216931217,61.16402116402117 32.16931216931217,60.52910052910053 32.16931216931217,59.8941798941799 31.95767195767196,59.25925925925927 32.16931216931217,58.62433862433863 31.95767195767196,57.989417989417994 31.95767195767196,57.35449735449736 31.95767195767196,56.71957671957672 31.95767195767196,56.08465608465609 31.95767195767196,55.449735449735456 31.95767195767196,54.81481481481482 31.95767195767196,54.179894179894184 31.95767195767196,53.54497354497355 31.95767195767196,52.91005291005291 31.95767195767196,52.27513227513228 31.95767195767196,51.640211640211646 31.95767195767196,51.00529100529101 31.746031746031747,50.370370370370374 31.53439153439154,46.77248677248678" style="fill:none; stroke:#3300bb; stroke-width:1.0"  /><circle cx="31.53439153439154" cy="46.77248677248678" r="2.0" style="fill:none; stroke:#000000aa; stroke-width:0.25" /><circle cx="140.10582010582013" cy="21.375661375661377" r="2.0" style="fill:none; stroke:#000000aa; stroke-width:0.25" /><circle cx="158.73015873015873" cy="133.96825396825398" r="2.0" style="fill:none; stroke:#000000aa; stroke-width:0.25" /><circle cx="40.0" cy="144.33862433862436" r="2.0" style="fill:none; stroke:#000000aa; stroke-width:0.25" /><circle cx="31.746031746031747" cy="47.195767195767196" r="2.0" style="fill:none; stroke:#ff3366aa; stroke-width:0.25" /><circle cx="140.10582010582013" cy="22.010582010582013" r="2.0" style="fill:none; stroke:#ff3366aa; stroke-width:0.25" /><circle cx="158.73015873015873" cy="133.75661375661377" r="2.0" style="fill:none; stroke:#ff3366aa; stroke-width:0.25" /><circle cx="40.423280423280424" cy="144.12698412698413" r="2.0" style="fill:none; stroke:#ff3366aa; stroke-width:0.25" /><polyline points="43.17460317460318,49.523809523809526 42.539682539682545,49.31216931216932 41.904761904761905,49.1005291005291 41.26984126984127,48.88888888888889 40.63492063492064,48.88888888888889 40.0,48.677248677248684 39.36507936507937,48.46560846560847 38.730158730158735,48.25396825396826 38.095238095238095,48.25396825396826 37.46031746031746,48.042328042328045 36.82539682539683,48.042328042328045 36.19047619047619,47.830687830687836 35.55555555555556,47.830687830687836 34.920634920634924,47.61904761904762" style="fill:none; stroke:#001100; stroke-width:1.0" /><polyline points="32.16931216931217,58.62433862433863 31.95767195767196,57.989417989417994 31.95767195767196,57.35449735449736 31.95767195767196,56.71957671957672 31.95767195767196,56.08465608465609 31.95767195767196,55.449735449735456 31.95767195767196,54.81481481481482 31.95767195767196,54.179894179894184 31.95767195767196,53.54497354497355 31.95767195767196,52.91005291005291 31.95767195767196,52.27513227513228 31.95767195767196,51.640211640211646 31.95767195767196,51.00529100529101 31.746031746031747,50.370370370370374" style="fill:none; stroke:#000011; stroke-width:1.0" /><polyline points="141.5873015873016,33.43915343915344 141.5873015873016,32.804232804232804 141.3756613756614,32.16931216931217 141.3756613756614,31.53439153439154 141.16402116402116,30.899470899470902 141.16402116402116,30.264550264550266 141.16402116402116,29.629629629629633 140.95238095238096,28.994708994708997 140.95238095238096,28.35978835978836 140.74074074074076,27.724867724867728 140.74074074074076,27.089947089947092 140.74074074074076,26.455026455026456 140.52910052910053,25.820105820105823 140.52910052910053,25.185185185185187" style="fill:none; stroke:#001100; stroke-width:1.0" /><polyline points="128.04232804232805,22.010582010582013 128.67724867724868,22.010582010582013 129.31216931216932,21.7989417989418 129.94708994708995,21.7989417989418 130.58201058201058,21.7989417989418 131.21693121693121,21.7989417989418 131.85185185185185,21.7989417989418 132.4867724867725,21.7989417989418 133.12169312169314,21.7989417989418 133.75661375661377,21.58730158730159 134.3915343915344,21.58730158730159 135.02645502645504,21.58730158730159 135.66137566137567,21.58730158730159 136.2962962962963,21.58730158730159 136.93121693121694,21.58730158730159" style="fill:none; stroke:#000011; stroke-width:1.0" /><polyline points="147.30158730158732,134.17989417989418 147.93650793650795,134.17989417989418 148.57142857142858,134.17989417989418 149.20634920634922,134.17989417989418 149.84126984126985,134.17989417989418 150.47619047619048,134.17989417989418 151.11111111111111,133.75661375661377 151.74603174603175,133.75661375661377 152.38095238095238,133.75661375661377 153.01587301587304,133.75661375661377 153.65079365079367,133.75661375661377 154.2857142857143,133.75661375661377 154.92063492063494,133.96825396825398 155.55555555555557,133.96825396825398" style="fill:none; stroke:#001100; stroke-width:1.0" /><polyline points="156.4021164021164,122.32804232804234 156.61375661375664,122.96296296296298 156.61375661375664,123.59788359788361 156.82539682539684,124.23280423280424 156.82539682539684,124.86772486772487 156.82539682539684,125.5026455026455 157.03703703703704,126.13756613756615 157.03703703703704,126.77248677248679 157.24867724867727,127.40740740740742 157.46031746031747,128.04232804232805 157.67195767195767,128.67724867724868 157.8835978835979,129.31216931216932 157.8835978835979,129.94708994708995 158.0952380952381,130.58201058201058" style="fill:none; stroke:#000011; stroke-width:1.0" /><polyline points="37.883597883597886,132.6984126984127 37.883597883597886,133.33333333333334 38.095238095238095,133.96825396825398 38.095238095238095,134.6031746031746 38.30687830687831,135.23809523809524 38.51851851851852,135.87301587301587 38.51851851851852,136.5079365079365 38.730158730158735,137.14285714285717 38.730158730158735,137.7777777777778 38.94179894179894,138.41269841269843 38.94179894179894,139.04761904761907 39.15343915343916,139.6825396825397 39.36507936507937,140.31746031746033 39.36507936507937,140.95238095238096" style="fill:none; stroke:#001100; stroke-width:1.0" /><polyline points="51.851851851851855,141.5873015873016 51.21693121693122,141.5873015873016 50.58201058201058,141.7989417989418 49.94708994708995,142.01058201058203 49.31216931216932,142.01058201058203 48.677248677248684,142.22222222222223 48.042328042328045,142.22222222222223 47.40740740740741,142.43386243386246 46.77248677248678,142.64550264550266 46.13756613756614,142.85714285714286 45.50264550264551,143.0687830687831 44.867724867724874,143.2804232804233 44.232804232804234,143.2804232804233 43.5978835978836,143.4920634920635" style="fill:none; stroke:#000011; stroke-width:1.0" /><polyline points="34.920634920634924,47.61904761904762 14.391534391534393,42.96296296296297" style="fill:none; stroke:#ffaa00; stroke-width:0.4" /><polyline points="31.746031746031747,50.370370370370374 30.68783068783069,29.20634920634921" style="fill:none; stroke:#aaff00; stroke-width:0.4" /><polyline points="140.52910052910053,25.185185185185187 137.7777777777778,4.2328042328042335" style="fill:none; stroke:#ffaa00; stroke-width:0.4" /><polyline points="136.93121693121694,21.58730158730159 158.0952380952381,20.529100529100532" style="fill:none; stroke:#aaff00; stroke-width:0.4" /><polyline points="155.55555555555557,133.96825396825398 176.71957671957674,133.33333333333334" style="fill:none; stroke:#ffaa00; stroke-width:0.4" /><polyline points="158.0952380952381,130.58201058201058 162.32804232804233,151.32275132275134" style="fill:none; stroke:#aaff00; stroke-width:0.4" /><polyline points="39.36507936507937,140.95238095238096 43.17460317460318,161.6931216931217" style="fill:none; stroke:#ffaa00; stroke-width:0.4" /><polyline points="43.5978835978836,143.4920634920635 23.06878306878307,148.14814814814815" style="fill:none; stroke:#aaff00; stroke-width:0.4" /><circle cx="88.67724867724868" cy="86.13756613756614" r="1.0" style="fill:#444444; stroke-width:0" /><circle cx="97.989417989418" cy="90.37037037037038" r="10.582010582010582" style="fill:#ff770022; stroke-width:0" /><circle cx="97.989417989418" cy="90.37037037037038" r="1.0" style="fill:#ff7700; stroke-width:0" /></svg>