<?xml version="1.0" encoding="UTF-8" standalone="no"?><svg width="441.9047619047619" height="551.1111111111112" viewBox="-10 -10 167.30158730158732 203.70370370370372" xmlns="http://www.w3.org/2000/svg" xmlns:xlink="http://www.w3.org/1999/xlink"><polyline points="42.32804232804233,-0.4232804232804233 45.29100529100529,2.3280423280423284 45.714285714285715,2.7513227513227516 46.349206349206355,3.174603174603175 46.77248677248678,3.597883597883598 47.195767195767196,4.021164021164021 47.61904761904762,4.444444444444445 48.042328042328045,4.867724867724868 48.46560846560847,5.291005291005291 48.88888888888889,5.714285714285714 49.523809523809526,6.137566137566138 49.94708994708995,6.560846560846561 50.370370370370374,6.984126984126985 50.7936507936508,7.407407407407408 51.21693121693122,7.830687830687832 51.640211640211646,8.253968253968255 52.06349206349207,8.677248677248677 52.48677248677249,9.100529100529101 52.91005291005291,9.523809523809524 53.333333333333336,9.947089947089948 53.968253968253975,10.370370370370372 54.39153439153439,10.793650793650794 54.81481481481482,11.216931216931219 55.23809523809524,11.640211640211641 55.661375661375665,12.063492063492065 56.2962962962963,12.486772486772487 56.71957671957672,12.910052910052912 57.142857142857146,13.544973544973546 57.56613756613757,13.96825396825397 57.989417989417994,14.391534391534393 58.41269841269842,14.814814814814817 58.83597883597884,15.238095238095239 59.25925925925927,15.661375661375663 59.682539682539684,16.084656084656086 60.10582010582011,16.50793650793651 60.52910052910053,16.931216931216934 60.952380952380956,17.354497354497354 61.37566137566138,17.98941798941799 61.798941798941804,18.412698412698415 62.22222222222223,18.83597883597884 62.64550264550265,19.25925925925926 63.06878306878308,19.682539682539684 63.492063492063494,20.105820105820108 63.91534391534392,20.529100529100532 64.33862433862434,21.164021164021165 64.76190476190477,21.58730158730159 65.18518518518519,22.010582010582013 65.60846560846561,22.645502645502646 66.03174603174604,23.06878306878307 66.45502645502646,23.492063492063494 66.87830687830689,23.915343915343918 67.3015873015873,24.338624338624342 67.72486772486774,24.761904761904763 68.14814814814815,25.185185185185187 68.57142857142858,25.60846560846561 68.994708994709,26.031746031746035 69.62962962962963,26.455026455026456 70.05291005291006,26.87830687830688 70.47619047619048,27.513227513227516 71.11111111111111,27.93650793650794 71.53439153439155,28.35978835978836 71.95767195767196,28.783068783068785 72.5925925925926,29.20634920634921 73.01587301587303,29.629629629629633 73.43915343915344,30.052910052910054 73.86243386243387,30.476190476190478 74.49735449735451,30.899470899470902 74.92063492063492,31.322751322751326 75.34391534391536,31.746031746031747 75.97883597883599,32.16931216931217 76.61375661375662,32.592592592592595 77.24867724867725,33.01587301587302 77.67195767195767,33.43915343915344 78.30687830687832,33.86243386243387 78.73015873015873,34.28571428571429 79.36507936507937,34.70899470899471 79.7883597883598,35.13227513227513 80.42328042328043,35.55555555555556 80.84656084656085,35.97883597883598 81.26984126984128,36.402116402116405 81.90476190476191,36.82539682539683 82.53968253968254,37.248677248677254 82.96296296296298,37.67195767195768 83.59788359788361,37.883597883597886 84.02116402116403,38.30687830687831 84.65608465608466,38.730158730158735 85.29100529100529,39.15343915343916 85.92592592592594,39.36507936507937 86.56084656084657,39.78835978835979 87.1957671957672,40.0 87.61904761904762,40.423280423280424 88.25396825396827,40.63492063492064 88.8888888888889,40.63492063492064 89.52380952380953,40.84656084656085 90.15873015873017,40.84656084656085 90.7936507936508,40.84656084656085 91.42857142857143,41.058201058201064 92.06349206349208,41.058201058201064 92.69841269841271,40.84656084656085 93.33333333333334,40.63492063492064 93.96825396825398,40.211640211640216 94.60317460317461,40.0 95.23809523809524,39.57671957671958 95.66137566137567,39.15343915343916 96.08465608465609,38.730158730158735 96.50793650793652,38.30687830687831 96.93121693121694,37.67195767195768 97.14285714285715,37.03703703703704 97.35449735449737,36.402116402116405 97.77777777777779,35.97883597883598 97.989417989418,35.34391534391535 98.2010582010582,34.70899470899471 98.41269841269842,34.074074074074076 98.62433862433863,33.43915343915344 98.62433862433863,32.804232804232804 98.83597883597885,32.16931216931217 98.83597883597885,31.53439153439154 99.04761904761905,30.899470899470902 99.04761904761905,30.264550264550266 99.04761904761905,29.629629629629633 99.25925925925927,28.994708994708997 99.47089947089948,28.35978835978836 99.47089947089948,27.724867724867728 99.68253968253968,27.089947089947092 99.68253968253968,26.455026455026456 99.8941798941799,25.820105820105823 100.10582010582011,25.185185185185187 100.31746031746033,24.55026455026455 100.74074074074075,23.915343915343918 100.95238095238096,23.280423280423282 101.37566137566138,22.857142857142858 101.79894179894181,22.222222222222225 102.22222222222223,21.7989417989418 102.64550264550266,21.375661375661377 103.4920634920635,20.740740740740744 104.12698412698414,20.31746031746032 104.76190476190477,20.31746031746032 105.18518518518519,19.894179894179896 105.82010582010582,19.682539682539684 106.45502645502647,19.682539682539684 107.0899470899471,19.894179894179896 108.14814814814815,20.105820105820108 108.78306878306879,20.31746031746032 109.41798941798943,20.31746031746032 110.05291005291006,20.529100529100532 110.47619047619048,20.952380952380953 111.11111111111111,20.740740740740744 111.53439153439155,21.164021164021165 112.16931216931218,21.58730158730159 112.80423280423281,21.7989417989418 113.43915343915344,21.7989417989418 113.86243386243387,22.222222222222225 114.49735449735451,22.433862433862437 114.92063492063492,22.857142857142858 115.55555555555557,23.06878306878307 115.97883597883599,23.492063492063494 116.61375661375662,23.703703703703706 117.03703703703705,24.12698412698413 117.67195767195768,24.338624338624342 118.0952380952381,24.761904761904763 118.73015873015873,25.185185185185187 119.15343915343917,25.60846560846561 119.7883597883598,26.031746031746035 120.21164021164022,26.455026455026456 120.84656084656086,26.87830687830688 121.26984126984128,27.301587301587304 121.90476190476191,27.724867724867728 122.32804232804234,28.35978835978836 122.75132275132276,28.783068783068785 123.17460317460318,29.20634920634921 123.59788359788361,29.629629629629633 124.23280423280424,30.052910052910054 124.65608465608466,30.68783068783069 125.07936507936509,31.322751322751326 125.5026455026455,31.95767195767196 125.71428571428572,32.592592592592595 126.13756613756615,33.01587301587302 126.34920634920636,33.65079365079365 126.56084656084657,34.28571428571429 126.98412698412699,34.920634920634924 126.98412698412699,35.55555555555556 127.1957671957672,36.19047619047619 127.40740740740742,36.82539682539683 127.61904761904763,37.46031746031746 127.40740740740742,38.095238095238095 127.40740740740742,38.730158730158735 127.40740740740742,39.36507936507937 127.1957671957672,40.0 126.98412698412699,40.63492063492064 126.77248677248679,41.26984126984127 126.56084656084657,41.904761904761905 126.13756613756615,42.32804232804233 125.71428571428572,42.96296296296297 125.2910052910053,43.5978835978836 124.86772486772487,44.232804232804234 124.44444444444446,44.65608465608466 123.80952380952382,45.07936507936508 123.3862433862434,45.714285714285715 122.75132275132276,45.92592592592593 122.11640211640213,46.13756613756614 121.4814814814815,46.349206349206355 121.05820105820106,46.77248677248678 120.42328042328043,46.98412698412699 119.7883597883598,47.195767195767196 119.15343915343917,47.61904761904762 118.51851851851853,47.830687830687836 117.88359788359789,48.25396825396826 117.24867724867725,48.677248677248684 116.82539682539684,49.1005291005291 116.1904761904762,49.523809523809526 115.76719576719577,49.94708994708995 115.34391534391536,50.370370370370374 114.92063492063492,51.00529100529101 114.49735449735451,51.42857142857143 114.07407407407408,52.06349206349207 113.86243386243387,52.6984126984127 113.43915343915344,53.333333333333336 113.43915343915344,53.968253968253975 113.43915343915344,54.60317460317461 113.22751322751324,55.23809523809524 113.43915343915344,55.87301587301588 113.65079365079366,56.50793650793651 113.65079365079366,57.142857142857146 113.86243386243387,57.777777777777786 114.28571428571429,58.2010582010582 114.70899470899472,58.83597883597884 115.13227513227514,59.25925925925927 115.55555555555557,59.682539682539684 115.97883597883599,60.10582010582011 116.4021164021164,60.52910052910053 116.82539682539684,60.952380952380956 117.24867724867725,61.37566137566138 117.67195767195768,61.798941798941804 118.30687830687832,62.22222222222223 118.94179894179895,62.64550264550265 119.36507936507937,63.06878306878308 119.7883597883598,63.492063492063494 120.42328042328043,63.91534391534392 121.05820105820106,64.33862433862434 121.4814814814815,64.76190476190477 122.11640211640213,65.18518518518519 122.53968253968254,65.60846560846561 123.17460317460318,66.03174603174604 123.80952380952382,66.45502645502646 124.44444444444446,66.66666666666667 124.86772486772487,67.08994708994709 125.5026455026455,67.51322751322752 126.13756613756615,67.93650793650794 126.77248677248679,68.35978835978837 127.40740740740742,68.78306878306879 127.83068783068784,69.20634920634922 128.46560846560848,69.62962962962963 129.10052910052912,70.05291005291006 129.73544973544975,70.47619047619048 130.37037037037038,70.8994708994709 130.7936507936508,71.32275132275133 131.42857142857144,71.74603174603175 132.06349206349208,72.16931216931218 132.6984126984127,72.5925925925926 133.33333333333334,72.80423280423281 133.96825396825398,73.22751322751323 134.6031746031746,73.65079365079366 135.02645502645504,74.07407407407408 135.66137566137567,74.28571428571429 136.0846560846561,74.70899470899471 136.71957671957674,75.13227513227514 137.35449735449737,75.55555555555556 137.989417989418,75.97883597883599 138.62433862433863,76.4021164021164 139.25925925925927,76.61375661375662 139.8941798941799,77.03703703703704 140.52910052910053,77.46031746031747 141.16402116402116,77.88359788359789 141.7989417989418,78.0952380952381 142.22222222222223,78.51851851851852 142.85714285714286,78.94179894179895 143.4920634920635,79.15343915343917 144.12698412698413,79.57671957671958 146.8783068783069,81.26984126984128" style="fill:none; stroke:#cc0000; stroke-width:1.0"  /><polyline points="146.8783068783069,81.26984126984128 145.39682539682542,84.02116402116403 145.1851851851852,84.65608465608466 144.76190476190476,85.07936507936509 144.55026455026456,85.71428571428572 144.12698412698413,86.13756613756614 143.91534391534393,86.77248677248677 143.4920634920635,87.40740740740742 143.0687830687831,88.04232804232805 142.85714285714286,88.67724867724868 142.43386243386246,89.31216931216932 142.22222222222223,89.94708994708995 142.01058201058203,90.58201058201058 141.5873015873016,91.21693121693123 141.3756613756614,91.85185185185186 141.16402116402116,92.4867724867725 140.95238095238096,93.12169312169313 140.52910052910053,93.75661375661376 140.31746031746033,94.39153439153439 140.10582010582013,95.02645502645504 139.8941798941799,95.66137566137567 139.6825396825397,96.2962962962963 139.47089947089947,96.93121693121694 139.25925925925927,97.56613756613757 139.04761904761907,98.2010582010582 138.83597883597884,98.83597883597885 138.62433862433863,99.47089947089948 138.41269841269843,100.10582010582011 138.2010582010582,100.74074074074075 137.989417989418,101.37566137566138 137.7777777777778,102.01058201058201 137.56613756613757,102.64550264550266 137.35449735449737,103.28042328042329 137.14285714285717,103.91534391534393 137.14285714285717,104.55026455026456 136.93121693121694,105.18518518518519 136.71957671957674,105.82010582010582 136.5079365079365,106.45502645502647 136.2962962962963,107.0899470899471 136.2962962962963,107.72486772486774 136.0846560846561,108.35978835978837 135.87301587301587,108.994708994709 135.44973544973547,109.62962962962963 135.23809523809524,110.26455026455027 134.81481481481484,110.6878306878307 134.6031746031746,111.32275132275133 134.17989417989418,111.74603174603176 133.75661375661377,112.3809523809524 133.33333333333334,112.80423280423281 132.6984126984127,113.22751322751324 132.27513227513228,113.65079365079366 131.64021164021165,113.86243386243387 131.005291005291,114.28571428571429 130.37037037037038,114.49735449735451 129.73544973544975,114.70899470899472 129.10052910052912,114.70899470899472 128.46560846560848,114.70899470899472 127.83068783068784,114.49735449735451 127.1957671957672,114.28571428571429 126.56084656084657,114.07407407407408 125.92592592592594,113.86243386243387 125.2910052910053,113.43915343915344 124.86772486772487,113.01587301587303 124.23280423280424,112.5925925925926 123.59788359788361,112.16931216931218 123.17460317460318,111.74603174603176 122.75132275132276,111.11111111111111 122.32804232804234,110.47619047619048 122.11640211640213,109.84126984126985 121.90476190476191,109.20634920634922 121.4814814814815,108.57142857142858 121.05820105820106,108.14814814814815 120.84656084656086,107.51322751322752 120.42328042328043,107.0899470899471 120.00000000000001,106.45502645502647 119.57671957671958,106.03174603174604 119.15343915343917,105.3968253968254 118.73015873015873,104.76190476190477 118.30687830687832,104.33862433862434 117.88359788359789,103.70370370370371 117.46031746031747,103.28042328042329 117.03703703703705,102.64550264550266 116.61375661375662,102.22222222222223 116.1904761904762,101.79894179894181 115.76719576719577,101.37566137566138 115.34391534391536,100.95238095238096 114.92063492063492,100.52910052910053 114.49735449735451,100.10582010582011 114.07407407407408,99.68253968253968 113.43915343915344,99.47089947089948 113.01587301587303,99.04761904761905 112.3809523809524,98.83597883597885 111.74603174603176,98.62433862433863 111.11111111111111,98.41269841269842 110.47619047619048,98.41269841269842 109.84126984126985,98.2010582010582 109.20634920634922,98.41269841269842 108.57142857142858,98.41269841269842 107.93650793650795,98.62433862433863 107.3015873015873,98.83597883597885 106.66666666666667,99.04761904761905 106.03174603174604,99.47089947089948 105.3968253968254,99.68253968253968 104.76190476190477,100.10582010582011 104.12698412698414,100.52910052910053 103.4920634920635,100.95238095238096 103.06878306878308,101.37566137566138 102.43386243386244,101.79894179894181 101.79894179894181,102.22222222222223 101.16402116402116,102.64550264550266 100.74074074074075,103.06878306878308 100.31746031746033,103.4920634920635 99.8941798941799,103.91534391534393 99.47089947089948,104.33862433862434 99.04761904761905,104.76190476190477 98.62433862433863,105.18518518518519 98.2010582010582,105.60846560846562 97.77777777777779,106.03174603174604 97.35449735449737,106.66666666666667 96.93121693121694,107.3015873015873 96.71957671957672,107.93650793650795 96.50793650793652,108.57142857142858 96.2962962962963,109.20634920634922 95.87301587301587,109.84126984126985 95.66137566137567,110.47619047619048 95.44973544973546,111.11111111111111 95.44973544973546,111.74603174603176 95.23809523809524,112.3809523809524 95.23809523809524,113.01587301587303 95.02645502645504,113.65079365079366 95.02645502645504,114.28571428571429 94.81481481481482,114.92063492063492 94.81481481481482,115.55555555555557 94.81481481481482,116.1904761904762 94.81481481481482,116.82539682539684 94.81481481481482,117.46031746031747 94.81481481481482,118.0952380952381 94.81481481481482,118.73015873015873 94.81481481481482,119.36507936507937 95.02645502645504,120.00000000000001 95.23809523809524,120.63492063492065 95.23809523809524,121.26984126984128 95.44973544973546,121.90476190476191 95.87301587301587,122.53968253968254 96.08465608465609,123.17460317460318 96.2962962962963,123.80952380952382 96.71957671957672,124.23280423280424 97.14285714285715,124.86772486772487 97.56613756613757,125.2910052910053 97.989417989418,125.92592592592594 98.41269841269842,126.56084656084657 98.83597883597885,126.98412698412699 99.25925925925927,127.40740740740742 99.68253968253968,127.83068783068784 100.10582010582011,128.25396825396825 100.52910052910053,128.67724867724868 101.16402116402116,129.10052910052912 101.5873015873016,129.52380952380955 102.01058201058201,129.94708994708995 102.64550264550266,130.15873015873018 103.28042328042329,130.58201058201058 103.91534391534393,130.7936507936508 104.55026455026456,131.005291005291 105.18518518518519,131.21693121693121 105.82010582010582,131.42857142857144 106.24338624338625,131.85185185185185 106.87830687830689,132.06349206349208 107.51322751322752,132.06349206349208 108.14814814814815,132.27513227513228 108.78306878306879,132.4867724867725 109.41798941798943,132.9100529100529 110.05291005291006,133.33333333333334 110.6878306878307,133.54497354497354 111.32275132275133,133.96825396825398 111.74603174603176,134.3915343915344 112.16931216931218,134.81481481481484 112.5925925925926,135.23809523809524 113.01587301587303,135.66137566137567 113.43915343915344,136.0846560846561 113.65079365079366,136.71957671957674 113.86243386243387,137.35449735449737 114.07407407407408,137.989417989418 114.28571428571429,138.62433862433863 114.49735449735451,139.25925925925927 114.49735449735451,139.8941798941799 114.28571428571429,140.52910052910053 114.07407407407408,141.16402116402116 113.86243386243387,141.7989417989418 113.43915343915344,142.43386243386246 113.22751322751324,143.0687830687831 112.80423280423281,143.4920634920635 112.3809523809524,144.12698412698413 111.95767195767196,144.55026455026456 111.53439153439155,145.1851851851852 111.11111111111111,145.60846560846562 110.6878306878307,146.24338624338625 110.26455026455027,146.66666666666669 109.84126984126985,147.0899470899471 109.41798941798943,147.72486772486775 108.78306878306879,148.14814814814815 108.35978835978837,148.78306878306879 107.93650793650795,149.20634920634922 107.51322751322752,149.62962962962965 107.0899470899471,150.05291005291005 106.66666666666667,150.47619047619048 106.24338624338625,150.8994708994709 105.82010582010582,151.32275132275134 105.3968253968254,151.74603174603175 104.97354497354497,152.16931216931218 104.55026455026456,152.5925925925926 104.12698412698414,153.01587301587304 103.70370370370371,153.43915343915344 103.28042328042329,153.86243386243387 102.85714285714286,154.2857142857143 102.43386243386244,154.7089947089947 102.01058201058201,155.13227513227514 101.5873015873016,155.76719576719577 101.16402116402116,156.1904761904762 100.74074074074075,156.61375661375664 100.31746031746033,157.03703703703704 99.8941798941799,157.46031746031747 99.47089947089948,158.0952380952381 99.04761904761905,158.51851851851853 98.62433862433863,158.94179894179896 98.2010582010582,159.36507936507937 97.77777777777779,159.7883597883598 97.35449735449737,160.21164021164023 96.93121693121694,160.63492063492066 96.50793650793652,161.05820105820106 96.08465608465609,161.6931216931217 95.66137566137567,162.11640211640213 95.23809523809524,162.53968253968256 94.81481481481482,163.1746031746032 94.39153439153439,163.59788359788362 93.96825396825398,164.02116402116403 93.54497354497356,164.44444444444446 93.12169312169313,165.0793650793651 92.69841269841271,165.50264550264552 92.27513227513228,166.13756613756615 91.85185185185186,166.56084656084658 91.42857142857143,166.984126984127 91.00529100529101,167.61904761904762 90.58201058201058,168.04232804232805 90.15873015873017,168.46560846560848 89.73544973544975,169.10052910052912 89.31216931216932,169.52380952380955 89.1005291005291,170.15873015873018 88.67724867724868,170.58201058201058 88.25396825396827,171.005291005291 87.83068783068784,171.64021164021165 87.40740740740742,172.27513227513228 86.98412698412699,172.6984126984127 86.56084656084657,173.33333333333334 86.13756613756614,173.75661375661377 85.71428571428572,174.3915343915344 85.29100529100529,175.02645502645504 84.86772486772487,175.44973544973547 84.44444444444446,176.0846560846561 84.02116402116403,176.71957671957674 83.59788359788361,177.14285714285717 83.3862433862434,177.7777777777778 82.96296296296298,178.2010582010582 82.75132275132276,178.83597883597884 82.32804232804233,179.25925925925927 81.90476190476191,179.8941798941799 81.48148148148148,180.52910052910053 79.15343915343917,183.91534391534393" style="fill:none; stroke:#999900; stroke-width:1.0"  /><polyline points="79.15343915343917,183.91534391534393 76.19047619047619,181.79894179894183 75.76719576719577,181.3756613756614 75.13227513227514,180.95238095238096 74.49735449735451,180.52910052910053 73.86243386243387,180.10582010582013 73.43915343915344,179.6825396825397 72.80423280423281,179.25925925925927 72.38095238095238,178.83597883597884 71.74603174603175,178.41269841269843 71.32275132275133,177.989417989418 70.6878306878307,177.56613756613757 70.26455026455027,177.14285714285717 69.62962962962963,176.71957671957674 69.20634920634922,176.2962962962963 68.78306878306879,175.87301587301587 68.35978835978837,175.44973544973547 67.93650793650794,174.81481481481484 67.51322751322752,174.3915343915344 67.08994708994709,173.96825396825398 66.66666666666667,173.33333333333334 66.24338624338625,172.9100529100529 66.03174603174604,172.27513227513228 65.60846560846561,171.85185185185188 65.18518518518519,171.42857142857144 64.76190476190477,170.7936507936508 64.55026455026456,170.15873015873018 64.12698412698413,169.52380952380955 63.70370370370371,168.8888888888889 63.492063492063494,168.25396825396825 63.280423280423285,167.61904761904762 63.06878306878308,166.984126984127 62.85714285714286,166.34920634920636 62.85714285714286,165.71428571428572 62.64550264550265,165.0793650793651 62.64550264550265,164.44444444444446 62.85714285714286,163.80952380952382 62.85714285714286,163.1746031746032 63.06878306878308,162.53968253968256 63.06878306878308,161.90476190476193 63.280423280423285,161.2698412698413 63.70370370370371,160.63492063492066 63.91534391534392,160.0 64.12698412698413,159.36507936507937 64.55026455026456,158.73015873015873 64.97354497354497,158.0952380952381 65.3968253968254,157.46031746031747 65.82010582010582,156.82539682539684 66.24338624338625,156.4021164021164 66.66666666666667,155.76719576719577 67.08994708994709,155.34391534391534 67.51322751322752,154.92063492063494 67.93650793650794,154.4973544973545 68.57142857142858,154.07407407407408 68.994708994709,153.65079365079367 69.62962962962963,153.22751322751324 70.26455026455027,152.8042328042328 70.8994708994709,152.38095238095238 71.53439153439155,152.16931216931218 71.95767195767196,151.74603174603175 72.5925925925926,151.53439153439155 73.22751322751323,151.32275132275134 73.86243386243387,151.11111111111111 74.49735449735451,150.6878306878307 75.13227513227514,150.47619047619048 75.55555555555556,150.05291005291005 76.19047619047619,149.62962962962965 76.82539682539684,149.20634920634922 77.46031746031747,148.78306878306879 77.88359788359789,148.35978835978838 78.51851851851852,147.93650793650795 78.94179894179895,147.51322751322752 79.36507936507937,147.0899470899471 79.7883597883598,146.45502645502646 80.21164021164022,146.03174603174605 80.63492063492065,145.39682539682542 81.05820105820106,144.76190476190476 81.48148148148148,144.12698412698413 81.90476190476191,143.4920634920635 82.11640211640213,142.85714285714286 81.90476190476191,142.22222222222223 82.11640211640213,141.5873015873016 82.11640211640213,140.95238095238096 82.32804232804233,140.31746031746033 82.32804232804233,139.6825396825397 82.32804232804233,139.04761904761907 82.32804232804233,138.41269841269843 82.32804232804233,137.7777777777778 82.32804232804233,137.14285714285717 82.32804232804233,136.5079365079365 82.11640211640213,135.87301587301587 81.90476190476191,135.23809523809524 81.6931216931217,134.6031746031746 81.48148148148148,133.96825396825398 81.05820105820106,133.54497354497354 80.84656084656085,132.9100529100529 80.63492063492065,132.27513227513228 80.21164021164022,131.85185185185185 80.0,131.21693121693121 79.57671957671958,130.7936507936508 79.15343915343917,130.15873015873018 78.73015873015873,129.52380952380955 78.30687830687832,129.10052910052912 77.88359788359789,128.46560846560848 77.46031746031747,128.04232804232805 77.03703703703704,127.40740740740742 76.61375661375662,126.98412698412699 76.19047619047619,126.56084656084657 75.76719576719577,126.13756613756615 75.34391534391536,125.71428571428572 74.92063492063492,125.2910052910053 74.28571428571429,124.86772486772487 73.86243386243387,124.44444444444446 73.43915343915344,124.02116402116403 72.80423280423281,123.59788359788361 72.16931216931218,123.17460317460318 71.74603174603175,122.75132275132276 71.11111111111111,122.53968253968254 70.47619047619048,122.11640211640213 69.84126984126985,121.90476190476191 69.20634920634922,121.4814814814815 68.57142857142858,121.26984126984128 67.93650793650794,121.05820105820106 67.3015873015873,120.63492063492065 66.66666666666667,120.42328042328043 66.03174603174604,120.21164021164022 65.3968253968254,120.00000000000001 64.76190476190477,120.00000000000001 64.12698412698413,119.7883597883598 63.492063492063494,119.57671957671958 62.85714285714286,119.57671957671958 62.22222222222223,119.7883597883598 61.58730158730159,119.7883597883598 60.952380952380956,119.7883597883598 60.31746031746032,119.7883597883598 59.682539682539684,120.00000000000001 59.04761904761905,120.21164021164022 58.41269841269842,120.42328042328043 57.777777777777786,120.84656084656086 57.142857142857146,121.05820105820106 56.71957671957672,121.4814814814815 56.08465608465609,121.90476190476191 55.449735449735456,122.32804232804234 55.02645502645503,122.75132275132276 54.60317460317461,123.17460317460318 54.179894179894184,123.59788359788361 53.968253968253975,124.23280423280424 53.54497354497355,124.65608465608466 53.12169312169313,125.07936507936509 52.6984126984127,125.71428571428572 52.27513227513228,126.34920634920636 51.851851851851855,126.98412698412699 51.42857142857143,127.61904761904763 51.21693121693122,128.25396825396825 51.00529100529101,128.88888888888889 50.58201058201058,129.52380952380955 50.370370370370374,130.15873015873018 50.158730158730165,130.7936507936508 49.73544973544974,131.42857142857144 49.523809523809526,132.06349206349208 49.1005291005291,132.6984126984127 48.88888888888889,133.33333333333334 48.46560846560847,133.96825396825398 48.25396825396826,134.6031746031746 47.830687830687836,135.23809523809524 47.61904761904762,135.87301587301587 47.195767195767196,136.5079365079365 46.77248677248678,136.93121693121694 46.349206349206355,137.56613756613757 45.92592592592593,138.2010582010582 45.50264550264551,138.62433862433863 44.867724867724874,138.83597883597884 44.232804232804234,139.25925925925927 43.5978835978836,139.47089947089947 42.96296296296297,139.47089947089947 42.32804232804233,139.47089947089947 41.6931216931217,139.47089947089947 41.058201058201064,139.47089947089947 40.423280423280424,139.47089947089947 39.78835978835979,139.25925925925927 39.15343915343916,139.04761904761907 38.51851851851852,138.83597883597884 37.883597883597886,138.41269841269843 37.248677248677254,138.2010582010582 36.613756613756614,137.7777777777778 35.97883597883598,137.35449735449737 35.34391534391535,136.93121693121694 34.70899470899471,136.5079365079365 34.074074074074076,136.2962962962963 33.65079365079365,135.87301587301587 33.01587301587302,135.66137566137567 32.592592592592595,135.23809523809524 31.95767195767196,134.81481481481484 31.322751322751326,134.3915343915344 30.68783068783069,133.96825396825398 30.052910052910054,133.54497354497354 29.629629629629633,133.12169312169314 28.994708994708997,132.9100529100529 28.571428571428573,132.4867724867725 27.93650793650794,132.06349206349208 27.513227513227516,131.64021164021165 26.87830687830688,131.21693121693121 26.243386243386244,130.7936507936508 25.820105820105823,130.37037037037038 25.185185185185187,129.94708994708995 24.761904761904763,129.52380952380955 24.12698412698413,129.10052910052912 23.492063492063494,128.67724867724868 23.06878306878307,128.25396825396825 22.645502645502646,127.83068783068784 22.222222222222225,127.40740740740742 21.58730158730159,126.98412698412699 21.164021164021165,126.56084656084657 20.740740740740744,126.13756613756615 20.31746031746032,125.71428571428572 19.682539682539684,125.2910052910053 19.25925925925926,124.86772486772487 18.624338624338627,124.44444444444446 18.201058201058203,124.02116402116403 17.566137566137566,123.59788359788361 17.142857142857146,123.17460317460318 16.71957671957672,122.75132275132276 16.296296296296298,122.32804232804234 15.873015873015873,121.90476190476191 15.238095238095239,121.4814814814815 14.814814814814817,121.05820105820106 14.17989417989418,120.84656084656086 13.756613756613758,120.42328042328043 13.333333333333334,120.00000000000001 12.6984126984127,119.57671957671958 12.063492063492065,119.15343915343917 11.640211640211641,118.73015873015873 11.005291005291006,118.30687830687832 10.582010582010582,117.88359788359789 10.15873015873016,117.46031746031747 9.523809523809524,117.03703703703705 8.88888888888889,116.61375661375662 8.253968253968255,116.1904761904762 7.830687830687832,115.76719576719577 7.195767195767196,115.34391534391536 6.560846560846561,114.92063492063492 6.137566137566138,114.49735449735451 5.502645502645503,114.07407407407408 4.867724867724868,113.65079365079366 4.2328042328042335,113.22751322751324 3.8095238095238098,112.80423280423281 3.174603174603175,112.3809523809524 0.0,110.05291005291006" style="fill:none; stroke:#00aa99; stroke-width:1.0"  /><polyline points="0.0,110.05291005291006 0.21164021164021166,107.0899470899471 0.21164021164021166,106.45502645502647 0.21164021164021166,105.82010582010582 0.21164021164021166,105.18518518518519 0.21164021164021166,104.55026455026456 0.21164021164021166,103.91534391534393 0.4232804232804233,103.28042328042329 0.4232804232804233,102.64550264550266 0.4232804232804233,102.01058201058201 0.4232804232804233,101.37566137566138 0.4232804232804233,100.74074074074075 0.634920634920635,100.10582010582011 0.634920634920635,99.47089947089948 0.634920634920635,98.83597883597885 0.634920634920635,98.2010582010582 0.8465608465608466,97.56613756613757 0.8465608465608466,96.93121693121694 0.8465608465608466,96.2962962962963 0.8465608465608466,95.66137566137567 1.0582010582010584,95.02645502645504 1.0582010582010584,94.39153439153439 1.0582010582010584,93.75661375661376 1.0582010582010584,93.12169312169313 1.26984126984127,92.4867724867725 1.26984126984127,91.85185185185186 1.4814814814814816,91.21693121693123 1.6931216931216932,90.58201058201058 1.6931216931216932,89.94708994708995 1.6931216931216932,89.31216931216932 2.1164021164021167,88.67724867724868 2.1164021164021167,88.04232804232805 2.1164021164021167,87.40740740740742 2.3280423280423284,86.77248677248677 2.3280423280423284,86.13756613756614 2.53968253968254,85.5026455026455 2.53968253968254,84.86772486772487 2.7513227513227516,84.23280423280424 2.9629629629629632,83.59788359788361 3.174603174603175,82.96296296296298 3.3862433862433865,82.32804232804233 3.597883597883598,81.6931216931217 3.8095238095238098,81.05820105820106 4.021164021164021,80.42328042328043 4.444444444444445,79.7883597883598 4.867724867724868,79.15343915343917 5.291005291005291,78.73015873015873 5.714285714285714,78.30687830687832 6.34920634920635,77.88359788359789 6.984126984126985,77.67195767195767 7.6190476190476195,77.46031746031747 8.253968253968255,77.24867724867725 8.88888888888889,77.24867724867725 9.523809523809524,77.24867724867725 10.15873015873016,77.24867724867725 10.793650793650794,77.46031746031747 11.428571428571429,77.46031746031747 12.063492063492065,77.67195767195767 12.6984126984127,77.88359788359789 13.333333333333334,77.88359788359789 13.756613756613758,78.30687830687832 14.391534391534393,78.51851851851852 15.026455026455027,78.94179894179895 15.661375661375663,79.15343915343917 16.084656084656086,79.57671957671958 16.50793650793651,80.0 17.142857142857146,80.42328042328043 17.77777777777778,80.84656084656085 18.412698412698415,81.26984126984128 19.047619047619047,81.48148148148148 19.682539682539684,81.90476190476191 20.31746031746032,82.32804232804233 20.952380952380953,82.75132275132276 21.375661375661377,83.17460317460318 21.7989417989418,83.59788359788361 22.433862433862437,83.80952380952381 22.857142857142858,84.23280423280424 23.280423280423282,84.65608465608466 23.915343915343918,85.07936507936509 24.55026455026455,85.5026455026455 25.185185185185187,85.71428571428572 25.60846560846561,86.13756613756614 26.243386243386244,86.56084656084657 26.87830687830688,86.77248677248677 27.513227513227516,87.1957671957672 28.14814814814815,87.40740740740742 28.783068783068785,87.61904761904762 29.41798941798942,87.83068783068784 30.052910052910054,87.83068783068784 30.68783068783069,87.83068783068784 31.322751322751326,87.83068783068784 31.95767195767196,87.61904761904762 32.592592592592595,87.40740740740742 33.22751322751323,87.1957671957672 33.86243386243387,86.77248677248677 34.4973544973545,86.56084656084657 34.920634920634924,86.13756613756614 35.55555555555556,85.71428571428572 35.97883597883598,85.29100529100529 36.613756613756614,84.86772486772487 37.03703703703704,84.44444444444446 37.46031746031746,84.02116402116403 37.883597883597886,83.59788359788361 38.30687830687831,83.17460317460318 38.730158730158735,82.75132275132276 39.15343915343916,82.11640211640213 39.57671957671958,81.6931216931217 40.0,81.05820105820106 40.423280423280424,80.63492063492065 40.84656084656085,80.0 41.26984126984127,79.36507936507937 41.6931216931217,78.73015873015873 41.904761904761905,78.0952380952381 42.32804232804233,77.46031746031747 42.75132275132275,76.82539682539684 42.96296296296297,76.19047619047619 43.17460317460318,75.55555555555556 43.5978835978836,74.92063492063492 43.80952380952381,74.28571428571429 44.021164021164026,73.65079365079366 44.232804232804234,73.01587301587303 44.44444444444445,72.38095238095238 44.44444444444445,71.74603174603175 44.867724867724874,71.11111111111111 44.867724867724874,70.47619047619048 45.07936507936508,69.84126984126985 45.29100529100529,69.20634920634922 45.50264550264551,68.57142857142858 45.714285714285715,67.93650793650794 45.714285714285715,67.3015873015873 45.92592592592593,66.66666666666667 46.13756613756614,66.03174603174604 46.349206349206355,65.3968253968254 46.349206349206355,64.76190476190477 46.349206349206355,64.12698412698413 46.560846560846564,63.492063492063494 46.560846560846564,62.85714285714286 46.560846560846564,62.22222222222223 46.560846560846564,61.58730158730159 46.560846560846564,60.952380952380956 46.349206349206355,60.31746031746032 46.349206349206355,59.682539682539684 46.13756613756614,59.04761904761905 45.92592592592593,58.41269841269842 45.714285714285715,57.777777777777786 45.29100529100529,57.142857142857146 44.867724867724874,56.50793650793651 44.44444444444445,55.87301587301588 44.021164021164026,55.449735449735456 43.5978835978836,55.02645502645503 43.17460317460318,54.60317460317461 42.539682539682545,54.179894179894184 41.904761904761905,53.75661375661376 41.26984126984127,53.333333333333336 40.63492063492064,52.91005291005291 40.0,52.6984126984127 39.36507936507937,52.27513227513228 38.730158730158735,52.06349206349207 38.095238095238095,51.851851851851855 37.46031746031746,51.42857142857143 36.82539682539683,51.42857142857143 36.19047619047619,51.21693121693122 35.55555555555556,51.00529100529101 34.920634920634924,50.7936507936508 34.28571428571429,50.7936507936508 33.65079365079365,50.58201058201058 33.01587301587302,50.58201058201058 32.38095238095239,50.370370370370374 31.746031746031747,50.370370370370374 31.111111111111114,50.158730158730165 30.476190476190478,50.158730158730165 29.841269841269842,50.158730158730165 29.20634920634921,50.158730158730165 28.571428571428573,49.94708994708995 27.93650793650794,49.94708994708995 27.301587301587304,49.94708994708995 26.666666666666668,49.94708994708995 26.031746031746035,49.73544973544974 25.3968253968254,49.73544973544974 24.761904761904763,49.523809523809526 24.12698412698413,49.523809523809526 23.492063492063494,49.31216931216932 22.857142857142858,49.1005291005291 22.222222222222225,48.88888888888889 21.7989417989418,48.46560846560847 21.164021164021165,48.25396825396826 20.740740740740744,47.830687830687836 20.31746031746032,47.40740740740741 20.105820105820108,46.77248677248678 19.682539682539684,46.13756613756614 19.47089947089947,45.50264550264551 19.47089947089947,44.867724867724874 19.47089947089947,44.232804232804234 19.47089947089947,43.5978835978836 19.682539682539684,42.96296296296297 19.894179894179896,42.32804232804233 20.105820105820108,41.6931216931217 20.31746031746032,41.058201058201064 20.529100529100532,40.423280423280424 20.952380952380953,39.78835978835979 21.164021164021165,39.15343915343916 21.58730158730159,38.51851851851852 21.7989417989418,37.883597883597886 22.010582010582013,37.248677248677254 22.222222222222225,36.613756613756614 22.645502645502646,35.97883597883598 22.857142857142858,35.34391534391535 23.280423280423282,34.70899470899471 23.492063492063494,34.074074074074076 23.915343915343918,33.65079365079365 24.12698412698413,33.01587301587302 24.55026455026455,32.38095238095239 24.761904761904763,31.746031746031747 25.185185185185187,31.111111111111114 25.60846560846561,30.476190476190478 25.820105820105823,29.841269841269842 26.243386243386244,29.20634920634921 26.455026455026456,28.571428571428573 26.87830687830688,28.14814814814815 27.089947089947092,27.513227513227516 27.513227513227516,26.87830687830688 27.724867724867728,26.243386243386244 28.14814814814815,25.820105820105823 28.571428571428573,25.185185185185187 28.783068783068785,24.55026455026455 29.20634920634921,23.915343915343918 29.629629629629633,23.280423280423282 30.052910052910054,22.645502645502646 30.264550264550266,22.010582010582013 30.68783068783069,21.375661375661377 31.111111111111114,20.740740740740744 31.53439153439154,20.105820105820108 31.746031746031747,19.47089947089947 32.16931216931217,18.83597883597884 32.592592592592595,18.412698412698415 32.804232804232804,17.77777777777778 33.22751322751323,17.142857142857146 33.65079365079365,16.50793650793651 34.074074074074076,15.873015873015873 34.28571428571429,15.238095238095239 34.70899470899471,14.603174603174605 35.13227513227513,13.96825396825397 35.34391534391535,13.333333333333334 35.76719576719577,12.6984126984127 36.19047619047619,12.063492063492065 36.402116402116405,11.428571428571429 36.82539682539683,10.793650793650794 37.03703703703704,10.15873015873016 37.46031746031746,9.523809523809524 37.883597883597886,8.88888888888889 38.095238095238095,8.253968253968255 38.51851851851852,7.6190476190476195 38.730158730158735,6.984126984126985 39.15343915343916,6.34920634920635 39.36507936507937,5.714285714285714 39.57671957671958,5.07936507936508 40.0,4.444444444444445 40.423280423280424,3.8095238095238098 40.63492063492064,3.174603174603175 42.32804232804233,-0.4232804232804233" style="fill:none; stroke:#3300bb; stroke-width:1.0"  /><circle cx="42.32804232804233" cy="-0.4232804232804233" r="2.0" style="fill:none; stroke:#000000aa; stroke-width:0.25" /><circle cx="146.8783068783069" cy="81.26984126984128" r="2.0" style="fill:none; stroke:#000000aa; stroke-width:0.25" /><circle cx="79.15343915343917" cy="183.91534391534393" r="2.0" style="fill:none; stroke:#000000aa; stroke-width:0.25" /><circle cx="0.0" cy="110.05291005291006" r="2.0" style="fill:none; stroke:#000000aa; stroke-width:0.25" /><circle cx="42.539682539682545" cy="0.21164021164021166" r="2.0" style="fill:none; stroke:#ff3366aa; stroke-width:0.25" /><circle cx="146.8783068783069" cy="81.26984126984128" r="2.0" style="fill:none; stroke:#ff3366aa; stroke-width:0.25" /><circle cx="79.36507936507937" cy="183.2804232804233" r="2.0" style="fill:none; stroke:#ff3366aa; stroke-width:0.25" /><circle cx="0.4232804232804233" cy="110.26455026455027" r="2.0" style="fill:none; stroke:#ff3366aa; stroke-width:0.25" /><polyline points="51.21693121693122,7.830687830687832 50.7936507936508,7.407407407407408 50.370370370370374,6.984126984126985 49.94708994708995,6.560846560846561 49.523809523809526,6.137566137566138 48.88888888888889,5.714285714285714 48.46560846560847,5.291005291005291 48.042328042328045,4.867724867724868 47.61904761904762,4.444444444444445 47.195767195767196,4.021164021164021 46.77248677248678,3.597883597883598 46.349206349206355,3.174603174603175 45.714285714285715,2.7513227513227516 45.29100529100529,2.3280423280423284" style="fill:none; stroke:#001100; stroke-width:1.0" /><polyline points="36.82539682539683,10.793650793650794 37.03703703703704,10.15873015873016 37.46031746031746,9.523809523809524 37.883597883597886,8.88888888888889 38.095238095238095,8.253968253968255 38.51851851851852,7.6190476190476195 38.730158730158735,6.984126984126985 39.15343915343916,6.34920634920635 39.36507936507937,5.714285714285714 39.57671957671958,5.07936507936508 40.0,4.444444444444445 40.423280423280424,3.8095238095238098 40.63492063492064,3.174603174603175" style="fill:none; stroke:#000011; stroke-width:1.0" /><polyline points="141.3756613756614,91.85185185185186 141.5873015873016,91.21693121693123 142.01058201058203,90.58201058201058 142.22222222222223,89.94708994708995 142.43386243386246,89.31216931216932 142.85714285714286,88.67724867724868 143.0687830687831,88.04232804232805 143.4920634920635,87.40740740740742 143.91534391534393,86.77248677248677 144.12698412698413,86.13756613756614 144.55026455026456,85.71428571428572 144.76190476190476,85.07936507936509 145.1851851851852,84.65608465608466 145.39682539682542,84.02116402116403" style="fill:none; stroke:#001100; stroke-width:1.0" /><polyline points="136.71957671957674,75.13227513227514 137.35449735449737,75.55555555555556 137.989417989418,75.97883597883599 138.62433862433863,76.4021164021164 139.25925925925927,76.61375661375662 139.8941798941799,77.03703703703704 140.52910052910053,77.46031746031747 141.16402116402116,77.88359788359789 141.7989417989418,78.0952380952381 142.22222222222223,78.51851851851852 142.85714285714286,78.94179894179895 143.4920634920635,79.15343915343917 144.12698412698413,79.57671957671958" style="fill:none; stroke:#000011; stroke-width:1.0" /><polyline points="69.62962962962963,176.71957671957674 70.26455026455027,177.14285714285717 70.6878306878307,177.56613756613757 71.32275132275133,177.989417989418 71.74603174603175,178.41269841269843 72.38095238095238,178.83597883597884 72.80423280423281,179.25925925925927 73.43915343915344,179.6825396825397 73.86243386243387,180.10582010582013 74.49735449735451,180.52910052910053 75.13227513227514,180.95238095238096 75.76719576719577,181.3756613756614 76.19047619047619,181.79894179894183" style="fill:none; stroke:#001100; stroke-width:1.0" /><polyline points="86.13756613756614,173.75661375661377 85.71428571428572,174.3915343915344 85.29100529100529,175.02645502645504 84.86772486772487,175.44973544973547 84.44444444444446,176.0846560846561 84.02116402116403,176.71957671957674 83.59788359788361,177.14285714285717 83.3862433862434,177.7777777777778 82.96296296296298,178.2010582010582 82.75132275132276,178.83597883597884 82.32804232804233,179.25925925925927 81.90476190476191,179.8941798941799 81.48148148148148,180.52910052910053" style="fill:none; stroke:#000011; stroke-width:1.0" /><polyline points="0.634920634920635,98.83597883597885 0.634920634920635,99.47089947089948 0.634920634920635,100.10582010582011 0.4232804232804233,100.74074074074075 0.4232804232804233,101.37566137566138 0.4232804232804233,102.01058201058201 0.4232804232804233,102.64550264550266 0.4232804232804233,103.28042328042329 0.21164021164021166,103.91534391534393 0.21164021164021166,104.55026455026456 0.21164021164021166,105.18518518518519 0.21164021164021166,105.82010582010582 0.21164021164021166,106.45502645502647 0.21164021164021166,107.0899470899471" style="fill:none; stroke:#001100; stroke-width:1.0" /><polyline points="9.523809523809524,117.03703703703705 8.88888888888889,116.61375661375662 8.253968253968255,116.1904761904762 7.830687830687832,115.76719576719577 7.195767195767196,115.34391534391536 6.560846560846561,114.92063492063492 6.137566137566138,114.49735449735451 5.502645502645503,114.07407407407408 4.867724867724868,113.65079365079366 4.2328042328042335,113.22751322751324 3.8095238095238098,112.80423280423281 3.174603174603175,112.3809523809524" style="fill:none; stroke:#000011; stroke-width:1.0" /><polyline points="45.29100529100529,2.3280423280423284 29.841269841269842,-12.063492063492065" style="fill:none; stroke:#ffaa00; stroke-width:0.4" /><polyline points="40.63492063492064,3.174603174603175 50.158730158730165,-15.661375661375663" style="fill:none; stroke:#aaff00; stroke-width:0.4" /><polyline points="145.39682539682542,84.02116402116403 155.13227513227514,65.18518518518519" style="fill:none; stroke:#ffaa00; stroke-width:0.4" /><polyline points="144.12698412698413,79.57671957671958 162.32804232804233,90.37037037037038" style="fill:none; stroke:#aaff00; stroke-width:0.4" /><polyline points="76.19047619047619,181.79894179894183 92.91005291005291,194.70899470899474" style="fill:none; stroke:#ffaa00; stroke-width:0.4" /><polyline points="81.48148148148148,180.52910052910053 69.41798941798942,197.8835978835979" style="fill:none; stroke:#aaff00; stroke-width:0.4" /><polyline points="0.21164021164021166,107.0899470899471 -0.8465608465608466,128.25396825396825" style="fill:none; stroke:#ffaa00; stroke-width:0.4" /><polyline points="3.174603174603175,112.3809523809524 -13.96825396825397,99.8941798941799" style="fill:none; stroke:#aaff00; stroke-width:0.4" /><circle cx="72.16931216931218" cy="85.5026455026455" r="1.0" style="fill:#444444; stroke-width:0" /><circle cx="79.36507936507937" cy="75.76719576719577" r="10.582010582010582" style="fill:#ff770022; stroke-width:0" /><circle cx="79.36507936507937" cy="75.76719576719577" r="1.0" style="fill:#ff7700; stroke-width:0" /></svg>