<?xml version="1.0" encoding="UTF-8" standalone="no"?><svg width="546.6666666666667" height="547.936507936508" viewBox="-10 -10 202.22222222222223 202.64550264550266" xmlns="http://www.w3.org/2000/svg" xmlns:xlink="http://www.w3.org/1999/xlink"><polyline points="-0.4232804232804233,70.6878306878307 2.7513227513227516,68.78306878306879 3.3862433862433865,68.35978835978837 4.021164021164021,67.93650793650794 4.656084656084657,67.51322751322752 5.291005291005291,67.08994708994709 5.9259259259259265,66.66666666666667 6.560846560846561,66.45502645502646 6.984126984126985,66.03174603174604 7.6190476190476195,65.60846560846561 8.253968253968255,65.3968253968254 8.677248677248677,64.97354497354497 9.312169312169313,64.55026455026456 9.947089947089948,64.33862433862434 10.582010582010582,63.91534391534392 11.216931216931219,63.492063492063494 11.851851851851853,63.06878306878308 12.486772486772487,62.85714285714286 12.910052910052912,62.43386243386244 13.544973544973546,62.22222222222223 13.96825396825397,61.798941798941804 14.603174603174605,61.58730158730159 15.238095238095239,61.16402116402117 15.873015873015873,60.74074074074075 16.50793650793651,60.31746031746032 17.142857142857146,60.10582010582011 17.566137566137566,59.682539682539684 18.201058201058203,59.470899470899475 18.83597883597884,59.04761904761905 19.47089947089947,58.83597883597884 20.105820105820108,58.62433862433863 20.740740740740744,58.2010582010582 21.375661375661377,57.989417989417994 22.010582010582013,57.56613756613757 22.645502645502646,57.35449735449736 23.280423280423282,57.142857142857146 23.703703703703706,56.71957671957672 24.338624338624342,56.50793650793651 24.973544973544975,56.08465608465609 25.60846560846561,55.87301587301588 26.243386243386244,55.449735449735456 26.87830687830688,55.23809523809524 27.513227513227516,55.02645502645503 28.14814814814815,54.60317460317461 28.783068783068785,54.179894179894184 29.41798941798942,53.75661375661376 30.052910052910054,53.333333333333336 30.476190476190478,52.91005291005291 30.899470899470902,52.48677248677249 31.322751322751326,52.06349206349207 31.746031746031747,51.42857142857143 32.16931216931217,50.7936507936508 32.592592592592595,50.158730158730165 32.804232804232804,49.523809523809526 33.01587301587302,48.88888888888889 33.22751322751323,48.25396825396826 33.22751322751323,47.61904761904762 33.22751322751323,46.98412698412699 33.22751322751323,46.349206349206355 33.22751322751323,45.714285714285715 32.804232804232804,45.07936507936508 32.804232804232804,44.44444444444445 32.592592592592595,43.80952380952381 32.16931216931217,43.386243386243386 31.746031746031747,42.75132275132275 31.322751322751326,42.11640211640212 30.899470899470902,41.6931216931217 30.264550264550266,41.26984126984127 29.841269841269842,40.84656084656085 29.20634920634921,40.423280423280424 28.571428571428573,40.211640211640216 27.93650793650794,39.78835978835979 27.301587301587304,39.57671957671958 26.666666666666668,39.36507936507937 26.031746031746035,39.36507936507937 25.3968253968254,39.36507936507937 24.761904761904763,39.15343915343916 24.12698412698413,39.15343915343916 23.492063492063494,39.15343915343916 22.857142857142858,39.15343915343916 22.222222222222225,39.15343915343916 21.58730158730159,39.15343915343916 20.952380952380953,38.94179894179894 20.31746031746032,38.94179894179894 19.682539682539684,38.94179894179894 19.047619047619047,38.730158730158735 18.412698412698415,38.730158730158735 17.77777777777778,38.730158730158735 17.142857142857146,38.51851851851852 16.50793650793651,38.51851851851852 15.873015873015873,38.30687830687831 15.238095238095239,38.30687830687831 14.603174603174605,38.095238095238095 13.96825396825397,38.095238095238095 13.333333333333334,37.883597883597886 12.6984126984127,37.883597883597886 12.063492063492065,37.67195767195768 11.428571428571429,37.46031746031746 10.793650793650794,37.03703703703704 10.15873015873016,36.82539682539683 9.735449735449736,36.402116402116405 9.100529100529101,35.97883597883598 8.465608465608467,35.55555555555556 8.042328042328043,35.13227513227513 7.6190476190476195,34.70899470899471 7.195767195767196,34.074074074074076 6.772486772486773,33.65079365079365 6.34920634920635,33.01587301587302 5.9259259259259265,32.38095238095239 5.714285714285714,31.746031746031747 5.291005291005291,31.111111111111114 5.07936507936508,30.476190476190478 4.867724867724868,29.841269841269842 4.656084656084657,29.20634920634921 4.444444444444445,28.571428571428573 4.444444444444445,27.93650793650794 4.2328042328042335,27.301587301587304 4.2328042328042335,26.666666666666668 4.2328042328042335,26.031746031746035 3.8095238095238098,25.3968253968254 3.8095238095238098,24.761904761904763 4.021164021164021,24.12698412698413 4.021164021164021,23.492063492063494 4.2328042328042335,22.857142857142858 4.2328042328042335,22.222222222222225 4.444444444444445,21.58730158730159 4.444444444444445,20.952380952380953 4.656084656084657,20.31746031746032 4.867724867724868,19.682539682539684 5.07936507936508,19.047619047619047 5.291005291005291,18.412698412698415 5.291005291005291,17.77777777777778 5.502645502645503,17.142857142857146 5.9259259259259265,16.50793650793651 6.137566137566138,15.873015873015873 6.34920634920635,15.238095238095239 6.560846560846561,14.603174603174605 6.772486772486773,13.96825396825397 7.195767195767196,13.333333333333334 7.6190476190476195,12.6984126984127 8.042328042328043,12.063492063492065 8.465608465608467,11.640211640211641 8.88888888888889,11.005291005291006 9.312169312169313,10.582010582010582 9.735449735449736,10.15873015873016 10.15873015873016,9.735449735449736 10.582010582010582,9.312169312169313 11.005291005291006,8.88888888888889 11.640211640211641,8.465608465608467 12.275132275132275,8.042328042328043 12.910052910052912,7.6190476190476195 13.544973544973546,7.195767195767196 14.17989417989418,6.984126984126985 14.814814814814817,6.560846560846561 15.449735449735451,6.34920634920635 16.084656084656086,6.137566137566138 16.71957671957672,5.9259259259259265 17.354497354497354,5.9259259259259265 17.98941798941799,5.714285714285714 18.624338624338627,5.502645502645503 19.25925925925926,5.291005291005291 19.894179894179896,5.291005291005291 20.529100529100532,5.291005291005291 21.164021164021165,5.291005291005291 21.7989417989418,5.291005291005291 22.433862433862437,5.502645502645503 23.06878306878307,5.502645502645503 23.703703703703706,5.502645502645503 24.338624338624342,5.502645502645503 24.973544973544975,5.714285714285714 25.60846560846561,5.9259259259259265 26.243386243386244,6.137566137566138 26.87830687830688,6.34920634920635 27.513227513227516,6.560846560846561 28.14814814814815,6.772486772486773 28.783068783068785,6.772486772486773 29.41798941798942,7.195767195767196 30.052910052910054,7.6190476190476195 30.68783068783069,7.830687830687832 31.322751322751326,8.253968253968255 31.95767195767196,8.677248677248677 32.592592592592595,9.100529100529101 33.22751322751323,9.523809523809524 33.65079365079365,9.947089947089948 34.074074074074076,10.370370370370372 34.4973544973545,10.793650793650794 34.920634920634924,11.216931216931219 35.34391534391535,11.851851851851853 35.76719576719577,12.486772486772487 35.97883597883598,13.121693121693122 36.19047619047619,13.756613756613758 36.613756613756614,14.391534391534393 36.613756613756614,15.026455026455027 36.82539682539683,15.661375661375663 37.03703703703704,16.296296296296298 37.03703703703704,16.931216931216934 37.248677248677254,17.566137566137566 37.46031746031746,18.201058201058203 37.46031746031746,18.83597883597884 37.67195767195768,19.47089947089947 37.883597883597886,20.105820105820108 37.883597883597886,20.740740740740744 38.095238095238095,21.375661375661377 38.30687830687831,22.010582010582013 38.51851851851852,22.645502645502646 38.730158730158735,23.280423280423282 38.94179894179894,23.915343915343918 39.15343915343916,24.55026455026455 39.57671957671958,24.973544973544975 40.0,25.3968253968254 40.423280423280424,25.820105820105823 40.84656084656085,26.455026455026456 41.26984126984127,26.87830687830688 41.6931216931217,27.301587301587304 42.11640211640212,27.724867724867728 42.539682539682545,28.14814814814815 43.17460317460318,28.35978835978836 43.80952380952381,28.783068783068785 44.44444444444445,29.20634920634921 45.07936507936508,29.41798941798942 45.714285714285715,29.41798941798942 46.349206349206355,29.41798941798942 46.98412698412699,29.629629629629633 47.61904761904762,29.629629629629633 48.25396825396826,29.41798941798942 48.88888888888889,29.20634920634921 49.523809523809526,28.994708994708997 50.158730158730165,28.783068783068785 50.7936507936508,28.35978835978836 51.42857142857143,28.14814814814815 51.851851851851855,27.724867724867728 52.48677248677249,27.301587301587304 52.91005291005291,26.87830687830688 53.333333333333336,26.455026455026456 53.75661375661376,25.820105820105823 54.179894179894184,25.3968253968254 54.179894179894184,24.761904761904763 54.60317460317461,24.12698412698413 55.02645502645503,23.492063492063494 55.23809523809524,22.857142857142858 55.449735449735456,22.222222222222225 55.661375661375665,21.58730158730159 56.08465608465609,20.952380952380953 56.2962962962963,20.31746031746032 56.50793650793651,19.682539682539684 56.71957671957672,19.047619047619047 57.142857142857146,18.412698412698415 57.35449735449736,17.77777777777778 57.777777777777786,17.142857142857146 57.989417989417994,16.50793650793651 58.41269841269842,15.873015873015873 58.41269841269842,15.238095238095239 58.83597883597884,14.603174603174605 59.04761904761905,13.96825396825397 59.470899470899475,13.333333333333334 59.8941798941799,12.6984126984127 60.10582010582011,12.063492063492065 60.52910052910053,11.640211640211641 60.74074074074075,11.005291005291006 61.16402116402117,10.370370370370372 61.37566137566138,9.735449735449736 61.798941798941804,9.100529100529101 62.01058201058201,8.465608465608467 62.43386243386244,8.042328042328043 62.64550264550265,7.407407407407408 63.06878306878308,6.772486772486773 63.280423280423285,6.137566137566138 63.70370370370371,5.502645502645503 64.12698412698413,4.867724867724868 64.33862433862434,4.2328042328042335 64.76190476190477,3.597883597883598 65.18518518518519,2.9629629629629632 67.08994708994709,-0.4232804232804233" style="fill:none; stroke:#cc0000; stroke-width:1.0"  /><polyline points="67.08994708994709,-0.4232804232804233 68.14814814814815,2.9629629629629632 68.57142857142858,3.597883597883598 68.78306878306879,4.2328042328042335 68.78306878306879,4.867724867724868 68.994708994709,5.502645502645503 69.20634920634922,6.137566137566138 69.41798941798942,6.772486772486773 69.62962962962963,7.407407407407408 69.84126984126985,8.042328042328043 70.05291005291006,8.677248677248677 70.26455026455027,9.312169312169313 70.47619047619048,9.947089947089948 70.6878306878307,10.582010582010582 70.8994708994709,11.216931216931219 71.11111111111111,11.851851851851853 71.32275132275133,12.486772486772487 71.53439153439155,13.121693121693122 71.74603174603175,13.756613756613758 71.95767195767196,14.391534391534393 72.16931216931218,15.026455026455027 72.38095238095238,15.661375661375663 72.5925925925926,16.296296296296298 73.01587301587303,16.931216931216934 73.22751322751323,17.566137566137566 73.43915343915344,18.201058201058203 73.65079365079366,18.83597883597884 74.07407407407408,19.47089947089947 74.28571428571429,20.105820105820108 74.70899470899471,20.740740740740744 74.92063492063492,21.375661375661377 75.34391534391536,22.010582010582013 75.55555555555556,22.645502645502646 75.97883597883599,23.280423280423282 76.19047619047619,23.915343915343918 76.61375661375662,24.338624338624342 76.82539682539684,24.973544973544975 77.24867724867725,25.3968253968254 77.67195767195767,26.031746031746035 77.88359788359789,26.666666666666668 78.30687830687832,27.089947089947092 78.73015873015873,27.724867724867728 78.94179894179895,28.35978835978836 79.36507936507937,28.783068783068785 79.7883597883598,29.41798941798942 80.21164021164022,30.052910052910054 80.63492063492065,30.68783068783069 81.05820105820106,31.322751322751326 81.48148148148148,31.95767195767196 81.90476190476191,32.592592592592595 82.32804232804233,33.01587301587302 82.53968253968254,33.65079365079365 82.96296296296298,34.074074074074076 83.3862433862434,34.70899470899471 83.80952380952381,35.34391534391535 84.23280423280424,35.97883597883598 84.65608465608466,36.402116402116405 85.07936507936509,37.03703703703704 85.5026455026455,37.46031746031746 85.92592592592594,38.095238095238095 86.34920634920636,38.730158730158735 86.77248677248677,39.15343915343916 87.1957671957672,39.57671957671958 87.61904761904762,40.211640211640216 88.04232804232805,40.63492063492064 88.46560846560847,41.058201058201064 88.8888888888889,41.48148148148149 89.31216931216932,42.11640211640212 89.73544973544975,42.539682539682545 90.15873015873017,42.96296296296297 90.58201058201058,43.386243386243386 91.00529100529101,44.021164021164026 91.42857142857143,44.44444444444445 91.85185185185186,44.867724867724874 92.27513227513228,45.29100529100529 92.69841269841271,45.714285714285715 93.12169312169313,46.13756613756614 93.75661375661376,46.560846560846564 94.17989417989419,46.98412698412699 94.60317460317461,47.40740740740741 95.02645502645504,47.830687830687836 95.66137566137567,48.042328042328045 96.08465608465609,48.46560846560847 96.71957671957672,48.88888888888889 97.14285714285715,49.31216931216932 97.56613756613757,49.73544973544974 98.2010582010582,50.158730158730165 98.83597883597885,50.58201058201058 99.47089947089948,51.00529100529101 100.10582010582011,51.42857142857143 100.74074074074075,51.851851851851855 101.37566137566138,52.27513227513228 101.79894179894181,52.6984126984127 102.43386243386244,52.91005291005291 102.85714285714286,53.333333333333336 103.4920634920635,53.75661375661376 104.12698412698414,54.179894179894184 104.76190476190477,54.39153439153439 105.3968253968254,54.81481481481482 106.03174603174604,55.23809523809524 106.66666666666667,55.449735449735456 107.3015873015873,55.87301587301588 107.93650793650795,56.08465608465609 108.57142857142858,56.2962962962963 109.20634920634922,56.2962962962963 109.84126984126985,56.50793650793651 110.47619047619048,56.50793650793651 111.11111111111111,56.50793650793651 111.74603174603176,56.2962962962963 112.3809523809524,56.2962962962963 113.01587301587303,56.08465608465609 113.65079365079366,55.661375661375665 114.28571428571429,55.23809523809524 114.92063492063492,54.81481481481482 115.34391534391536,54.39153439153439 115.97883597883599,53.968253968253975 116.4021164021164,53.333333333333336 116.82539682539684,52.6984126984127 117.03703703703705,52.06349206349207 117.24867724867725,51.42857142857143 117.46031746031747,50.7936507936508 117.67195767195768,50.158730158730165 117.88359788359789,49.523809523809526 117.88359788359789,48.88888888888889 118.0952380952381,48.25396825396826 118.0952380952381,47.61904761904762 118.30687830687832,46.98412698412699 118.30687830687832,46.349206349206355 118.30687830687832,45.714285714285715 118.51851851851853,45.07936507936508 118.73015873015873,44.44444444444445 118.73015873015873,43.80952380952381 118.94179894179895,43.17460317460318 118.94179894179895,42.539682539682545 119.15343915343917,41.904761904761905 119.36507936507937,41.26984126984127 119.57671957671958,40.63492063492064 119.7883597883598,40.0 120.21164021164022,39.36507936507937 120.42328042328043,38.730158730158735 120.84656084656086,38.095238095238095 121.05820105820106,37.46031746031746 121.4814814814815,37.03703703703704 121.90476190476191,36.402116402116405 122.32804232804234,35.76719576719577 122.75132275132276,35.34391534391535 123.17460317460318,34.70899470899471 123.59788359788361,34.28571428571429 124.23280423280424,33.86243386243387 124.65608465608466,33.43915343915344 125.2910052910053,33.01587301587302 125.71428571428572,32.592592592592595 126.34920634920636,32.38095238095239 126.98412698412699,32.16931216931217 127.61904761904763,31.95767195767196 128.25396825396825,31.746031746031747 128.88888888888889,31.746031746031747 129.52380952380955,31.53439153439154 130.15873015873018,31.53439153439154 130.7936507936508,31.53439153439154 131.42857142857144,31.53439153439154 132.06349206349208,31.53439153439154 132.6984126984127,31.746031746031747 133.33333333333334,31.746031746031747 133.96825396825398,31.95767195767196 134.6031746031746,31.95767195767196 135.23809523809524,32.16931216931217 135.87301587301587,32.16931216931217 136.5079365079365,32.38095238095239 137.14285714285717,32.38095238095239 137.7777777777778,32.592592592592595 138.41269841269843,32.804232804232804 139.04761904761907,33.01587301587302 139.6825396825397,33.22751322751323 140.31746031746033,33.43915343915344 140.95238095238096,33.86243386243387 141.5873015873016,34.074074074074076 142.22222222222223,34.28571428571429 142.64550264550266,34.70899470899471 143.2804232804233,35.13227513227513 143.91534391534393,35.34391534391535 144.55026455026456,35.76719576719577 145.1851851851852,35.97883597883598 145.60846560846562,36.402116402116405 146.03174603174605,36.82539682539683 146.66666666666669,37.03703703703704 147.0899470899471,37.46031746031746 147.51322751322752,37.883597883597886 148.14814814814815,38.095238095238095 148.57142857142858,38.51851851851852 149.20634920634922,38.94179894179894 149.62962962962965,39.36507936507937 150.26455026455028,39.78835978835979 150.6878306878307,40.211640211640216 151.11111111111111,40.63492063492064 151.53439153439155,41.058201058201064 151.95767195767198,41.48148148148149 152.38095238095238,41.904761904761905 152.5925925925926,42.539682539682545 153.01587301587304,42.96296296296297 153.22751322751324,43.5978835978836 153.43915343915344,44.232804232804234 153.65079365079367,44.867724867724874 153.86243386243387,45.50264550264551 153.86243386243387,46.13756613756614 153.86243386243387,46.77248677248678 153.65079365079367,47.40740740740741 153.43915343915344,48.042328042328045 153.43915343915344,48.677248677248684 153.22751322751324,49.31216931216932 153.01587301587304,49.94708994708995 152.8042328042328,50.58201058201058 152.38095238095238,51.00529100529101 152.16931216931218,51.640211640211646 151.74603174603175,52.27513227513228 151.32275132275134,52.6984126984127 150.8994708994709,53.333333333333336 150.47619047619048,53.75661375661376 150.05291005291005,54.179894179894184 149.62962962962965,54.81481481481482 149.20634920634922,55.23809523809524 148.78306878306879,55.661375661375665 148.35978835978838,56.08465608465609 147.93650793650795,56.50793650793651 147.51322751322752,56.93121693121694 147.0899470899471,57.35449735449736 146.66666666666669,57.777777777777786 146.24338624338625,58.2010582010582 145.82010582010582,58.62433862433863 145.39682539682542,59.04761904761905 144.76190476190476,59.470899470899475 144.33862433862436,59.8941798941799 143.91534391534393,60.52910052910053 143.2804232804233,60.952380952380956 142.85714285714286,61.37566137566138 142.43386243386246,61.798941798941804 141.7989417989418,62.22222222222223 141.3756613756614,62.64550264550265 140.95238095238096,63.06878306878308 140.31746031746033,63.492063492063494 139.8941798941799,63.91534391534392 139.47089947089947,64.33862433862434 138.83597883597884,64.76190476190477 138.41269841269843,65.18518518518519 137.989417989418,65.60846560846561 137.56613756613757,66.03174603174604 137.14285714285717,66.45502645502646 136.71957671957674,67.08994708994709 136.2962962962963,67.72486772486774 135.87301587301587,68.35978835978837 135.44973544973547,68.994708994709 135.23809523809524,69.62962962962963 135.02645502645504,70.26455026455027 135.02645502645504,70.8994708994709 135.02645502645504,71.53439153439155 134.81481481481484,72.16931216931218 134.81481481481484,72.80423280423281 135.02645502645504,73.43915343915344 135.23809523809524,74.07407407407408 135.66137566137567,74.70899470899471 135.87301587301587,75.34391534391536 136.2962962962963,75.97883597883599 136.71957671957674,76.61375661375662 137.14285714285717,77.24867724867725 137.56613756613757,77.67195767195767 137.989417989418,78.30687830687832 138.41269841269843,78.73015873015873 138.83597883597884,79.36507936507937 139.25925925925927,79.7883597883598 139.6825396825397,80.42328042328043 140.10582010582013,80.84656084656085 140.52910052910053,81.48148148148148 140.95238095238096,81.90476190476191 141.3756613756614,82.32804232804233 141.7989417989418,82.96296296296298 142.22222222222223,83.3862433862434 142.64550264550266,83.80952380952381 143.0687830687831,84.23280423280424 143.4920634920635,84.65608465608466 143.91534391534393,85.07936507936509 144.33862433862436,85.5026455026455 144.76190476190476,85.92592592592594 145.1851851851852,86.34920634920636 145.60846560846562,86.77248677248677 146.24338624338625,87.1957671957672 146.66666666666669,87.61904761904762 147.0899470899471,88.04232804232805 147.51322751322752,88.46560846560847 147.93650793650795,88.8888888888889 148.35978835978838,89.31216931216932 148.99470899470901,89.73544973544975 149.62962962962965,90.15873015873017 150.05291005291005,90.58201058201058 150.47619047619048,91.00529100529101 151.11111111111111,91.42857142857143 151.53439153439155,91.85185185185186 152.16931216931218,92.27513227513228 152.8042328042328,92.69841269841271 153.43915343915344,93.12169312169313 153.86243386243387,93.54497354497356 154.4973544973545,93.96825396825398 155.13227513227514,94.17989417989419 155.55555555555557,94.60317460317461 156.1904761904762,95.02645502645504 156.82539682539684,95.23809523809524 157.46031746031747,95.66137566137567 158.0952380952381,96.08465608465609 158.73015873015873,96.2962962962963 159.15343915343917,96.71957671957672 159.7883597883598,96.93121693121694 160.42328042328043,97.35449735449737 161.05820105820106,97.56613756613757 161.4814814814815,97.989417989418 162.11640211640213,98.2010582010582 162.75132275132276,98.41269841269842 163.3862433862434,98.83597883597885 164.02116402116403,98.83597883597885 164.65608465608466,99.04761904761905 165.0793650793651,99.47089947089948 165.71428571428572,99.68253968253968 166.34920634920636,100.10582010582011 166.984126984127,100.10582010582011 167.61904761904762,100.52910052910053 168.25396825396825,100.74074074074075 168.8888888888889,100.95238095238096 169.52380952380955,101.16402116402116 170.15873015873018,101.37566137566138 170.7936507936508,101.5873015873016 171.42857142857144,101.79894179894181 172.06349206349208,102.01058201058201 172.6984126984127,102.22222222222223 173.33333333333334,102.22222222222223 173.96825396825398,102.43386243386244 174.6031746031746,102.64550264550266 175.23809523809524,102.85714285714286 175.87301587301587,102.85714285714286 176.50793650793653,103.06878306878308 177.14285714285717,103.28042328042329 177.7777777777778,103.4920634920635 178.41269841269843,103.4920634920635 181.79894179894183,104.33862433862434" style="fill:none; stroke:#999900; stroke-width:1.0"  /><polyline points="181.79894179894183,104.33862433862434 180.31746031746033,107.72486772486774 179.8941798941799,108.35978835978837 179.6825396825397,108.994708994709 179.25925925925927,109.62962962962963 179.04761904761907,110.26455026455027 178.83597883597884,110.89947089947091 178.41269841269843,111.53439153439155 178.2010582010582,112.16931216931218 177.7777777777778,112.80423280423281 177.56613756613757,113.43915343915344 177.35449735449737,114.07407407407408 177.14285714285717,114.70899470899472 177.14285714285717,115.34391534391536 176.93121693121694,115.97883597883599 176.71957671957674,116.61375661375662 176.50793650793653,117.24867724867725 176.50793650793653,117.88359788359789 176.2962962962963,118.51851851851853 176.0846560846561,119.15343915343917 175.87301587301587,119.7883597883598 175.87301587301587,120.42328042328043 175.66137566137567,121.05820105820106 175.66137566137567,121.6931216931217 175.44973544973547,122.32804232804234 175.23809523809524,122.96296296296298 175.23809523809524,123.59788359788361 175.23809523809524,124.23280423280424 175.02645502645504,124.86772486772487 175.02645502645504,125.5026455026455 174.81481481481484,126.13756613756615 174.81481481481484,126.77248677248679 174.81481481481484,127.40740740740742 174.6031746031746,128.04232804232805 174.6031746031746,128.67724867724868 174.3915343915344,129.31216931216932 174.3915343915344,129.94708994708995 174.1798941798942,130.58201058201058 173.75661375661377,131.005291005291 173.33333333333334,131.64021164021165 172.9100529100529,132.06349206349208 172.4867724867725,132.4867724867725 172.06349206349208,132.9100529100529 171.42857142857144,133.33333333333334 170.7936507936508,133.54497354497354 170.15873015873018,133.75661375661377 169.52380952380955,133.96825396825398 168.8888888888889,133.96825396825398 168.25396825396825,133.96825396825398 167.61904761904762,133.75661375661377 166.984126984127,133.75661375661377 166.34920634920636,133.33333333333334 165.71428571428572,133.12169312169314 165.0793650793651,132.6984126984127 164.44444444444446,132.4867724867725 164.02116402116403,132.06349206349208 163.59788359788362,131.64021164021165 162.96296296296296,131.42857142857144 162.53968253968256,130.7936507936508 162.11640211640213,130.37037037037038 161.6931216931217,129.94708994708995 161.2698412698413,129.52380952380955 161.05820105820106,128.88888888888889 160.63492063492066,128.25396825396825 160.21164021164023,127.61904761904763 160.0,126.98412698412699 159.7883597883598,126.34920634920636 159.36507936507937,125.92592592592594 159.15343915343917,125.2910052910053 158.94179894179896,124.65608465608466 158.73015873015873,124.02116402116403 158.30687830687833,123.3862433862434 158.0952380952381,122.75132275132276 157.8835978835979,122.11640211640213 157.67195767195767,121.4814814814815 157.24867724867727,120.84656084656086 157.03703703703704,120.21164021164022 156.61375661375664,119.57671957671958 156.1904761904762,118.94179894179895 155.76719576719577,118.30687830687832 155.34391534391534,117.67195767195768 154.92063492063494,117.24867724867725 154.4973544973545,116.82539682539684 154.07407407407408,116.1904761904762 153.65079365079367,115.76719576719577 153.01587301587304,115.34391534391536 152.38095238095238,114.92063492063492 151.74603174603175,114.49735449735451 151.11111111111111,114.07407407407408 150.47619047619048,113.86243386243387 149.84126984126985,113.43915343915344 149.20634920634922,113.22751322751324 148.57142857142858,113.01587301587303 147.93650793650795,112.80423280423281 147.30158730158732,112.80423280423281 146.66666666666669,112.5925925925926 146.03174603174605,112.5925925925926 145.39682539682542,112.5925925925926 144.76190476190476,112.5925925925926 144.12698412698413,112.5925925925926 143.4920634920635,112.5925925925926 142.85714285714286,112.80423280423281 142.22222222222223,113.01587301587303 141.5873015873016,113.22751322751324 140.95238095238096,113.43915343915344 140.52910052910053,113.86243386243387 139.8941798941799,114.28571428571429 139.25925925925927,114.70899470899472 138.83597883597884,115.13227513227514 138.2010582010582,115.55555555555557 137.56613756613757,115.97883597883599 137.14285714285717,116.4021164021164 136.5079365079365,116.82539682539684 136.0846560846561,117.24867724867725 135.66137566137567,117.67195767195768 135.23809523809524,118.0952380952381 134.6031746031746,118.51851851851853 134.17989417989418,118.94179894179895 133.75661375661377,119.36507936507937 133.33333333333334,119.7883597883598 132.9100529100529,120.21164021164022 132.4867724867725,120.63492063492065 132.06349206349208,121.05820105820106 131.64021164021165,121.4814814814815 131.21693121693121,121.90476190476191 130.7936507936508,122.32804232804234 130.37037037037038,122.96296296296298 129.94708994708995,123.3862433862434 129.52380952380955,123.80952380952382 129.10052910052912,124.44444444444446 128.67724867724868,124.86772486772487 128.46560846560848,125.5026455026455 128.04232804232805,125.92592592592594 127.61904761904763,126.34920634920636 127.1957671957672,126.98412698412699 126.77248677248679,127.40740740740742 126.34920634920636,128.04232804232805 125.92592592592594,128.67724867724868 125.71428571428572,129.31216931216932 125.2910052910053,129.94708994708995 125.07936507936509,130.58201058201058 124.86772486772487,131.21693121693121 124.65608465608466,131.85185185185185 124.44444444444446,132.4867724867725 124.23280423280424,133.12169312169314 124.02116402116403,133.75661375661377 124.02116402116403,134.3915343915344 123.80952380952382,135.02645502645504 123.59788359788361,135.66137566137567 123.59788359788361,136.2962962962963 123.59788359788361,136.93121693121694 123.59788359788361,137.56613756613757 123.59788359788361,138.2010582010582 123.80952380952382,138.83597883597884 123.80952380952382,139.47089947089947 124.23280423280424,140.10582010582013 124.44444444444446,140.74074074074076 124.65608465608466,141.3756613756614 125.07936507936509,141.7989417989418 125.5026455026455,142.22222222222223 125.92592592592594,142.85714285714286 126.34920634920636,143.2804232804233 126.77248677248679,143.70370370370372 127.1957671957672,144.12698412698413 127.61904761904763,144.55026455026456 128.04232804232805,144.973544973545 128.46560846560848,145.39682539682542 129.10052910052912,145.60846560846562 129.52380952380955,146.03174603174605 129.94708994708995,146.66666666666669 130.58201058201058,147.0899470899471 131.21693121693121,147.51322751322752 131.85185185185185,147.93650793650795 132.27513227513228,148.35978835978838 132.9100529100529,148.57142857142858 133.33333333333334,148.99470899470901 133.96825396825398,149.41798941798942 134.6031746031746,149.62962962962965 135.02645502645504,150.05291005291005 135.66137566137567,150.26455026455028 136.2962962962963,150.47619047619048 136.93121693121694,150.8994708994709 137.56613756613757,151.32275132275134 138.2010582010582,151.32275132275134 138.83597883597884,151.53439153439155 139.47089947089947,151.74603174603175 140.10582010582013,151.74603174603175 140.74074074074076,151.95767195767198 141.3756613756614,152.16931216931218 142.01058201058203,152.16931216931218 142.64550264550266,152.16931216931218 143.0687830687831,152.5925925925926 143.70370370370372,152.5925925925926 144.33862433862436,152.5925925925926 144.973544973545,152.8042328042328 145.60846560846562,152.8042328042328 146.24338624338625,153.01587301587304 146.8783068783069,153.22751322751324 147.51322751322752,153.43915343915344 148.14814814814815,153.86243386243387 148.78306878306879,154.07407407407408 149.41798941798942,154.4973544973545 149.84126984126985,154.92063492063494 150.26455026455028,155.34391534391534 150.6878306878307,155.76719576719577 151.11111111111111,156.4021164021164 151.32275132275134,157.03703703703704 151.53439153439155,157.67195767195767 151.74603174603175,158.30687830687833 151.74603174603175,158.94179894179896 151.74603174603175,159.5767195767196 151.74603174603175,160.21164021164023 151.53439153439155,160.84656084656086 151.53439153439155,161.4814814814815 151.11111111111111,162.11640211640213 150.8994708994709,162.75132275132276 150.6878306878307,163.3862433862434 150.26455026455028,163.80952380952382 150.05291005291005,164.44444444444446 149.62962962962965,164.8677248677249 149.41798941798942,165.50264550264552 148.99470899470901,165.92592592592595 148.57142857142858,166.34920634920636 148.14814814814815,166.7724867724868 147.72486772486775,167.19576719576722 147.30158730158732,167.61904761904762 146.66666666666669,168.04232804232805 146.24338624338625,168.46560846560848 145.82010582010582,168.8888888888889 145.39682539682542,169.31216931216932 144.973544973545,169.73544973544975 144.55026455026456,170.15873015873018 144.12698412698413,170.58201058201058 143.70370370370372,171.005291005291 143.2804232804233,171.42857142857144 142.85714285714286,171.85185185185188 142.43386243386246,172.27513227513228 141.7989417989418,172.6984126984127 141.3756613756614,173.12169312169314 140.95238095238096,173.54497354497354 140.52910052910053,173.96825396825398 140.10582010582013,174.3915343915344 139.6825396825397,174.81481481481484 139.04761904761907,175.23809523809524 138.62433862433863,175.66137566137567 138.2010582010582,176.0846560846561 137.7777777777778,176.50793650793653 137.14285714285717,176.93121693121694 136.71957671957674,177.35449735449737 136.0846560846561,177.7777777777778 135.66137566137567,178.2010582010582 135.02645502645504,178.62433862433863 134.6031746031746,179.04761904761907 134.17989417989418,179.4708994708995 133.54497354497354,179.8941798941799 133.12169312169314,180.31746031746033 129.94708994708995,182.85714285714286" style="fill:none; stroke:#00aa99; stroke-width:1.0"  /><polyline points="129.94708994708995,182.85714285714286 127.61904761904763,181.5873015873016 127.1957671957672,181.16402116402116 126.56084656084657,180.74074074074076 125.92592592592594,180.52910052910053 125.5026455026455,180.10582010582013 124.86772486772487,179.8941798941799 124.44444444444446,179.4708994708995 123.80952380952382,179.04761904761907 123.17460317460318,178.83597883597884 122.53968253968254,178.62433862433863 121.90476190476191,178.2010582010582 121.26984126984128,177.7777777777778 120.63492063492065,177.56613756613757 120.00000000000001,177.14285714285717 119.36507936507937,176.71957671957674 118.73015873015873,176.50793650793653 118.0952380952381,176.0846560846561 117.46031746031747,175.66137566137567 116.82539682539684,175.44973544973547 116.1904761904762,175.23809523809524 115.76719576719577,174.81481481481484 115.13227513227514,174.6031746031746 114.49735449735451,174.1798941798942 113.86243386243387,173.75661375661377 113.22751322751324,173.54497354497354 112.5925925925926,173.33333333333334 112.16931216931218,172.9100529100529 111.53439153439155,172.6984126984127 110.89947089947091,172.27513227513228 110.26455026455027,172.06349206349208 109.62962962962963,171.64021164021165 108.994708994709,171.21693121693124 108.35978835978837,171.005291005291 107.72486772486774,170.58201058201058 107.0899470899471,170.37037037037038 106.45502645502647,169.94708994708995 105.82010582010582,169.52380952380955 105.18518518518519,169.31216931216932 104.55026455026456,168.8888888888889 103.91534391534393,168.67724867724868 103.4920634920635,168.25396825396825 102.85714285714286,168.04232804232805 102.22222222222223,167.61904761904762 101.5873015873016,167.40740740740742 101.16402116402116,166.984126984127 100.52910052910053,166.7724867724868 99.8941798941799,166.34920634920636 99.25925925925927,166.13756613756615 98.62433862433863,165.71428571428572 97.989417989418,165.50264550264552 97.35449735449737,165.0793650793651 96.71957671957672,164.8677248677249 96.08465608465609,164.65608465608466 95.44973544973546,164.23280423280426 94.81481481481482,163.80952380952382 94.17989417989419,163.59788359788362 93.54497354497356,163.3862433862434 92.91005291005291,163.1746031746032 92.4867724867725,162.75132275132276 92.06349206349208,162.32804232804233 91.42857142857143,162.11640211640213 90.7936507936508,161.6931216931217 90.15873015873017,161.4814814814815 89.52380952380953,161.05820105820106 88.8888888888889,160.84656084656086 88.25396825396827,160.42328042328043 87.61904761904762,160.0 86.98412698412699,159.7883597883598 86.34920634920636,159.36507936507937 85.71428571428572,158.94179894179896 85.07936507936509,158.73015873015873 84.65608465608466,158.30687830687833 84.02116402116403,158.0952380952381 83.3862433862434,157.8835978835979 82.96296296296298,157.46031746031747 82.32804232804233,157.24867724867727 81.6931216931217,156.82539682539684 81.05820105820106,156.4021164021164 80.42328042328043,156.1904761904762 79.7883597883598,155.76719576719577 79.15343915343917,155.34391534391534 78.51851851851852,155.13227513227514 78.0952380952381,154.7089947089947 77.46031746031747,154.4973544973545 77.03703703703704,154.07407407407408 76.4021164021164,153.65079365079367 75.97883597883599,153.22751322751324 75.55555555555556,152.8042328042328 75.13227513227514,152.38095238095238 74.70899470899471,151.95767195767198 74.28571428571429,151.32275132275134 74.07407407407408,150.6878306878307 73.86243386243387,150.05291005291005 73.86243386243387,149.41798941798942 73.65079365079366,148.78306878306879 73.86243386243387,148.14814814814815 74.07407407407408,147.51322751322752 74.28571428571429,146.8783068783069 74.70899470899471,146.24338624338625 75.13227513227514,145.60846560846562 75.55555555555556,145.1851851851852 75.97883597883599,144.76190476190476 76.4021164021164,144.33862433862436 77.03703703703704,144.12698412698413 77.67195767195767,143.70370370370372 78.30687830687832,143.4920634920635 78.73015873015873,143.0687830687831 79.36507936507937,142.85714285714286 80.0,142.64550264550266 80.63492063492065,142.64550264550266 81.26984126984128,142.22222222222223 81.90476190476191,142.01058201058203 82.53968253968254,142.01058201058203 82.96296296296298,141.5873015873016 83.59788359788361,141.5873015873016 84.23280423280424,141.16402116402116 84.86772486772487,140.95238095238096 85.5026455026455,140.74074074074076 86.13756613756614,140.31746031746033 86.77248677248677,140.31746031746033 87.1957671957672,139.8941798941799 87.83068783068784,139.6825396825397 88.46560846560847,139.47089947089947 89.1005291005291,139.04761904761907 89.73544973544975,138.62433862433863 90.37037037037038,138.2010582010582 91.00529100529101,137.7777777777778 91.42857142857143,137.35449735449737 91.85185185185186,136.71957671957674 92.27513227513228,136.0846560846561 92.69841269841271,135.44973544973547 92.91005291005291,134.81481481481484 93.33333333333334,134.17989417989418 93.54497354497356,133.54497354497354 93.54497354497356,132.9100529100529 93.75661375661376,132.27513227513228 93.75661375661376,131.64021164021165 93.96825396825398,131.005291005291 93.96825396825398,130.37037037037038 93.75661375661376,129.73544973544975 93.75661375661376,129.10052910052912 93.75661375661376,128.46560846560848 93.54497354497356,127.83068783068784 93.54497354497356,127.1957671957672 93.33333333333334,126.56084656084657 93.12169312169313,125.92592592592594 92.91005291005291,125.2910052910053 92.69841269841271,124.65608465608466 92.27513227513228,124.02116402116403 91.85185185185186,123.3862433862434 91.42857142857143,122.75132275132276 91.00529100529101,122.32804232804234 90.58201058201058,121.6931216931217 90.15873015873017,121.26984126984128 89.73544973544975,120.84656084656086 89.31216931216932,120.42328042328043 88.67724867724868,120.00000000000001 88.25396825396827,119.57671957671958 87.61904761904762,119.15343915343917 87.1957671957672,118.73015873015873 86.56084656084657,118.30687830687832 85.92592592592594,117.88359788359789 85.29100529100529,117.67195767195768 84.86772486772487,117.24867724867725 84.23280423280424,116.82539682539684 83.59788359788361,116.4021164021164 82.96296296296298,116.1904761904762 82.32804232804233,115.76719576719577 81.6931216931217,115.34391534391536 81.05820105820106,115.13227513227514 80.42328042328043,114.70899470899472 79.7883597883598,114.49735449735451 79.15343915343917,114.07407407407408 78.51851851851852,113.86243386243387 77.88359788359789,113.43915343915344 77.24867724867725,113.22751322751324 76.61375661375662,113.01587301587303 75.97883597883599,112.5925925925926 75.34391534391536,112.3809523809524 74.70899470899471,112.16931216931218 74.07407407407408,111.74603174603176 73.43915343915344,111.74603174603176 72.80423280423281,111.32275132275133 72.16931216931218,111.11111111111111 71.53439153439155,110.89947089947091 70.8994708994709,110.6878306878307 70.26455026455027,110.47619047619048 69.62962962962963,110.47619047619048 68.994708994709,110.26455026455027 68.35978835978837,110.05291005291006 67.72486772486774,110.05291005291006 67.08994708994709,109.84126984126985 66.45502645502646,109.84126984126985 65.82010582010582,109.84126984126985 65.18518518518519,109.84126984126985 64.55026455026456,109.62962962962963 63.91534391534392,109.62962962962963 63.280423280423285,109.62962962962963 62.64550264550265,109.62962962962963 62.01058201058201,109.62962962962963 61.37566137566138,109.84126984126985 60.74074074074075,109.84126984126985 60.10582010582011,109.84126984126985 59.470899470899475,109.84126984126985 58.83597883597884,110.05291005291006 58.2010582010582,110.26455026455027 57.56613756613757,110.26455026455027 56.93121693121694,110.47619047619048 56.2962962962963,110.6878306878307 55.661375661375665,110.89947089947091 55.02645502645503,111.11111111111111 54.39153439153439,111.53439153439155 53.75661375661376,111.74603174603176 53.333333333333336,112.16931216931218 52.91005291005291,112.5925925925926 52.48677248677249,113.01587301587303 52.06349206349207,113.43915343915344 51.640211640211646,114.07407407407408 51.21693121693122,114.70899470899472 51.00529100529101,115.34391534391536 50.7936507936508,115.97883597883599 50.58201058201058,116.61375661375662 50.158730158730165,117.24867724867725 50.158730158730165,117.88359788359789 49.94708994708995,118.51851851851853 49.73544973544974,119.15343915343917 49.73544973544974,119.7883597883598 49.523809523809526,120.42328042328043 49.523809523809526,121.05820105820106 49.523809523809526,121.6931216931217 49.31216931216932,122.32804232804234 49.31216931216932,122.96296296296298 49.31216931216932,123.59788359788361 49.31216931216932,124.23280423280424 49.31216931216932,124.86772486772487 49.31216931216932,125.5026455026455 49.523809523809526,126.13756613756615 49.523809523809526,126.77248677248679 49.523809523809526,127.40740740740742 49.523809523809526,128.04232804232805 49.73544973544974,128.67724867724868 49.73544973544974,129.31216931216932 49.73544973544974,129.94708994708995 49.94708994708995,130.58201058201058 49.94708994708995,131.21693121693121 49.94708994708995,131.85185185185185 49.94708994708995,132.4867724867725 49.94708994708995,133.12169312169314 49.73544973544974,133.75661375661377 49.73544973544974,134.3915343915344 49.523809523809526,135.02645502645504 49.31216931216932,135.66137566137567 49.1005291005291,136.2962962962963 48.677248677248684,136.71957671957674 48.25396825396826,137.35449735449737 47.830687830687836,137.7777777777778 47.195767195767196,138.2010582010582 46.560846560846564,138.41269841269843 45.92592592592593,138.62433862433863 45.29100529100529,138.83597883597884 44.65608465608466,138.83597883597884 44.021164021164026,138.83597883597884 43.386243386243386,138.62433862433863 42.75132275132275,138.41269841269843 42.11640211640212,138.2010582010582 41.48148148148149,137.7777777777778 40.84656084656085,137.35449735449737 40.211640211640216,136.93121693121694 39.57671957671958,136.5079365079365 39.15343915343916,136.0846560846561 38.730158730158735,135.66137566137567 38.30687830687831,135.23809523809524 37.883597883597886,134.81481481481484 37.46031746031746,134.3915343915344 37.03703703703704,133.96825396825398 36.613756613756614,133.54497354497354 36.19047619047619,133.12169312169314 35.76719576719577,132.4867724867725 35.34391534391535,132.06349206349208 34.920634920634924,131.42857142857144 34.4973544973545,131.005291005291 34.074074074074076,130.37037037037038 33.65079365079365,129.94708994708995 33.22751322751323,129.31216931216932 32.804232804232804,128.88888888888889 32.38095238095239,128.25396825396825 31.95767195767196,127.61904761904763 31.53439153439154,126.98412698412699 31.322751322751326,126.34920634920636 30.899470899470902,125.92592592592594 30.476190476190478,125.5026455026455 30.052910052910054,124.86772486772487 29.841269841269842,124.23280423280424 29.41798941798942,123.80952380952382 29.20634920634921,123.17460317460318 28.783068783068785,122.75132275132276 28.35978835978836,122.11640211640213 28.14814814814815,121.4814814814815 27.724867724867728,121.05820105820106 27.513227513227516,120.42328042328043 27.301587301587304,119.7883597883598 26.87830687830688,119.36507936507937 26.666666666666668,118.73015873015873 26.243386243386244,118.0952380952381 26.031746031746035,117.46031746031747 25.60846560846561,117.03703703703705 25.185185185185187,116.4021164021164 24.973544973544975,115.76719576719577 24.55026455026455,115.34391534391536 24.338624338624342,114.70899470899472 23.915343915343918,114.28571428571429 23.492063492063494,113.65079365079366 23.06878306878307,113.01587301587303 22.857142857142858,112.3809523809524 22.433862433862437,111.74603174603176 22.010582010582013,111.11111111111111 21.7989417989418,110.47619047619048 21.375661375661377,109.84126984126985 20.952380952380953,109.20634920634922 20.740740740740744,108.57142857142858 20.31746031746032,107.93650793650795 19.894179894179896,107.3015873015873 19.682539682539684,106.66666666666667 19.25925925925926,106.24338624338625 19.047619047619047,105.60846560846562 18.624338624338627,104.97354497354497 18.412698412698415,104.33862433862434 17.98941798941799,103.91534391534393 17.77777777777778,103.28042328042329 17.354497354497354,102.64550264550266 17.142857142857146,102.01058201058201 16.71957671957672,101.37566137566138 16.296296296296298,100.74074074074075 16.084656084656086,100.10582010582011 15.661375661375663,99.47089947089948 15.238095238095239,98.83597883597885 15.026455026455027,98.2010582010582 14.603174603174605,97.56613756613757 14.17989417989418,96.93121693121694 13.96825396825397,96.2962962962963 13.544973544973546,95.66137566137567 13.121693121693122,95.23809523809524 12.910052910052912,94.60317460317461 12.486772486772487,93.96825396825398 12.063492063492065,93.33333333333334 11.851851851851853,92.69841269841271 11.428571428571429,92.06349206349208 11.005291005291006,91.42857142857143 10.793650793650794,90.7936507936508 10.370370370370372,90.15873015873017 10.15873015873016,89.52380952380953 9.735449735449736,88.8888888888889 9.523809523809524,88.25396825396827 9.100529100529101,87.61904761904762 8.677248677248677,86.98412698412699 8.465608465608467,86.34920634920636 8.042328042328043,85.71428571428572 7.830687830687832,85.07936507936509 7.407407407407408,84.65608465608466 7.195767195767196,84.02116402116403 6.984126984126985,83.3862433862434 6.560846560846561,82.96296296296298 6.34920634920635,82.32804232804233 5.9259259259259265,81.90476190476191 5.714285714285714,81.26984126984128 5.502645502645503,80.63492063492065 5.07936507936508,80.21164021164022 4.867724867724868,79.57671957671958 4.444444444444445,79.15343915343917 4.2328042328042335,78.51851851851852 3.8095238095238098,77.88359788359789 3.3862433862433865,77.24867724867725 3.174603174603175,76.61375661375662 2.7513227513227516,75.97883597883599 2.53968253968254,75.34391534391536 2.1164021164021167,74.92063492063492 1.9047619047619049,74.28571428571429 1.4814814814814816,73.86243386243387 -0.4232804232804233,70.6878306878307" style="fill:none; stroke:#3300bb; stroke-width:1.0"  /><circle cx="-0.4232804232804233" cy="70.6878306878307" r="2.0" style="fill:none; stroke:#000000aa; stroke-width:0.25" /><circle cx="67.08994708994709" cy="-0.4232804232804233" r="2.0" style="fill:none; stroke:#000000aa; stroke-width:0.25" /><circle cx="181.79894179894183" cy="104.33862433862434" r="2.0" style="fill:none; stroke:#000000aa; stroke-width:0.25" /><circle cx="129.94708994708995" cy="182.85714285714286" r="2.0" style="fill:none; stroke:#000000aa; stroke-width:0.25" /><circle cx="0.21164021164021166" cy="70.8994708994709" r="2.0" style="fill:none; stroke:#ff3366aa; stroke-width:0.25" /><circle cx="66.87830687830689" cy="0.21164021164021166" r="2.0" style="fill:none; stroke:#ff3366aa; stroke-width:0.25" /><circle cx="181.79894179894183" cy="104.76190476190477" r="2.0" style="fill:none; stroke:#ff3366aa; stroke-width:0.25" /><circle cx="130.7936507936508" cy="182.22222222222223" r="2.0" style="fill:none; stroke:#ff3366aa; stroke-width:0.25" /><polyline points="9.947089947089948,64.33862433862434 9.312169312169313,64.55026455026456 8.677248677248677,64.97354497354497 8.253968253968255,65.3968253968254 7.6190476190476195,65.60846560846561 6.984126984126985,66.03174603174604 6.560846560846561,66.45502645502646 5.9259259259259265,66.66666666666667 5.291005291005291,67.08994708994709 4.656084656084657,67.51322751322752 4.021164021164021,67.93650793650794 3.3862433862433865,68.35978835978837 2.7513227513227516,68.78306878306879" style="fill:none; stroke:#001100; stroke-width:1.0" /><polyline points="5.714285714285714,81.26984126984128 5.502645502645503,80.63492063492065 5.07936507936508,80.21164021164022 4.867724867724868,79.57671957671958 4.444444444444445,79.15343915343917 4.2328042328042335,78.51851851851852 3.8095238095238098,77.88359788359789 3.3862433862433865,77.24867724867725 3.174603174603175,76.61375661375662 2.7513227513227516,75.97883597883599 2.53968253968254,75.34391534391536 2.1164021164021167,74.92063492063492 1.9047619047619049,74.28571428571429 1.4814814814814816,73.86243386243387" style="fill:none; stroke:#000011; stroke-width:1.0" /><polyline points="70.8994708994709,11.216931216931219 70.6878306878307,10.582010582010582 70.47619047619048,9.947089947089948 70.26455026455027,9.312169312169313 70.05291005291006,8.677248677248677 69.84126984126985,8.042328042328043 69.62962962962963,7.407407407407408 69.41798941798942,6.772486772486773 69.20634920634922,6.137566137566138 68.994708994709,5.502645502645503 68.78306878306879,4.867724867724868 68.78306878306879,4.2328042328042335 68.57142857142858,3.597883597883598 68.14814814814815,2.9629629629629632" style="fill:none; stroke:#001100; stroke-width:1.0" /><polyline points="61.16402116402117,10.370370370370372 61.37566137566138,9.735449735449736 61.798941798941804,9.100529100529101 62.01058201058201,8.465608465608467 62.43386243386244,8.042328042328043 62.64550264550265,7.407407407407408 63.06878306878308,6.772486772486773 63.280423280423285,6.137566137566138 63.70370370370371,5.502645502645503 64.12698412698413,4.867724867724868 64.33862433862434,4.2328042328042335 64.76190476190477,3.597883597883598 65.18518518518519,2.9629629629629632" style="fill:none; stroke:#000011; stroke-width:1.0" /><polyline points="177.14285714285717,115.34391534391536 177.14285714285717,114.70899470899472 177.35449735449737,114.07407407407408 177.56613756613757,113.43915343915344 177.7777777777778,112.80423280423281 178.2010582010582,112.16931216931218 178.41269841269843,111.53439153439155 178.83597883597884,110.89947089947091 179.04761904761907,110.26455026455027 179.25925925925927,109.62962962962963 179.6825396825397,108.994708994709 179.8941798941799,108.35978835978837 180.31746031746033,107.72486772486774" style="fill:none; stroke:#001100; stroke-width:1.0" /><polyline points="170.7936507936508,101.5873015873016 171.42857142857144,101.79894179894181 172.06349206349208,102.01058201058201 172.6984126984127,102.22222222222223 173.33333333333334,102.22222222222223 173.96825396825398,102.43386243386244 174.6031746031746,102.64550264550266 175.23809523809524,102.85714285714286 175.87301587301587,102.85714285714286 176.50793650793653,103.06878306878308 177.14285714285717,103.28042328042329 177.7777777777778,103.4920634920635 178.41269841269843,103.4920634920635" style="fill:none; stroke:#000011; stroke-width:1.0" /><polyline points="120.00000000000001,177.14285714285717 120.63492063492065,177.56613756613757 121.26984126984128,177.7777777777778 121.90476190476191,178.2010582010582 122.53968253968254,178.62433862433863 123.17460317460318,178.83597883597884 123.80952380952382,179.04761904761907 124.44444444444446,179.4708994708995 124.86772486772487,179.8941798941799 125.5026455026455,180.10582010582013 125.92592592592594,180.52910052910053 126.56084656084657,180.74074074074076 127.1957671957672,181.16402116402116 127.61904761904763,181.5873015873016" style="fill:none; stroke:#001100; stroke-width:1.0" /><polyline points="139.6825396825397,174.81481481481484 139.04761904761907,175.23809523809524 138.62433862433863,175.66137566137567 138.2010582010582,176.0846560846561 137.7777777777778,176.50793650793653 137.14285714285717,176.93121693121694 136.71957671957674,177.35449735449737 136.0846560846561,177.7777777777778 135.66137566137567,178.2010582010582 135.02645502645504,178.62433862433863 134.6031746031746,179.04761904761907 134.17989417989418,179.4708994708995 133.54497354497354,179.8941798941799 133.12169312169314,180.31746031746033" style="fill:none; stroke:#000011; stroke-width:1.0" /><polyline points="2.7513227513227516,68.78306878306879 -15.238095238095239,80.0" style="fill:none; stroke:#ffaa00; stroke-width:0.4" /><polyline points="1.4814814814814816,73.86243386243387 -9.100529100529101,55.449735449735456" style="fill:none; stroke:#aaff00; stroke-width:0.4" /><polyline points="68.14814814814815,2.9629629629629632 61.37566137566138,-17.142857142857146" style="fill:none; stroke:#ffaa00; stroke-width:0.4" /><polyline points="65.18518518518519,2.9629629629629632 75.34391534391536,-15.661375661375663" style="fill:none; stroke:#aaff00; stroke-width:0.4" /><polyline points="180.31746031746033,107.72486772486774 188.35978835978838,88.25396825396827" style="fill:none; stroke:#ffaa00; stroke-width:0.4" /><polyline points="178.41269841269843,103.4920634920635 198.94179894179896,108.57142857142858" style="fill:none; stroke:#aaff00; stroke-width:0.4" /><polyline points="127.61904761904763,181.5873015873016 145.82010582010582,192.16931216931218" style="fill:none; stroke:#ffaa00; stroke-width:0.4" /><polyline points="133.12169312169314,180.31746031746033 116.82539682539684,193.86243386243387" style="fill:none; stroke:#aaff00; stroke-width:0.4" /><circle cx="85.29100529100529" cy="87.61904761904762" r="1.0" style="fill:#444444; stroke-width:0" /><circle cx="65.18518518518519" cy="70.8994708994709" r="10.582010582010582" style="fill:#ff770022; stroke-width:0" /><circle cx="65.18518518518519" cy="70.8994708994709" r="1.0" style="fill:#ff7700; stroke-width:0" /></svg>