<?xml version="1.0" encoding="UTF-8" standalone="no"?><svg width="601.9047619047619" height="585.3968253968254" viewBox="-10 -10 220.63492063492066 215.13227513227514" xmlns="http://www.w3.org/2000/svg" xmlns:xlink="http://www.w3.org/1999/xlink"><polyline points="95.66137566137567,-0.4232804232804233 97.77777777777779,2.1164021164021167 98.2010582010582,2.53968253968254 98.62433862433863,3.174603174603175 99.04761904761905,3.597883597883598 99.47089947089948,4.2328042328042335 99.8941798941799,4.656084656084657 100.31746031746033,5.07936507936508 100.74074074074075,5.714285714285714 101.16402116402116,6.137566137566138 101.5873015873016,6.772486772486773 102.01058201058201,7.195767195767196 102.43386243386244,7.6190476190476195 102.85714285714286,8.253968253968255 103.28042328042329,8.677248677248677 103.70370370370371,9.100529100529101 104.12698412698414,9.735449735449736 104.55026455026456,10.15873015873016 104.97354497354497,10.582010582010582 105.3968253968254,11.005291005291006 105.82010582010582,11.428571428571429 106.24338624338625,11.851851851851853 106.66666666666667,12.486772486772487 107.0899470899471,12.910052910052912 107.51322751322752,13.333333333333334 107.93650793650795,13.756613756613758 108.35978835978837,14.17989417989418 108.78306878306879,14.814814814814817 109.20634920634922,15.238095238095239 109.62962962962963,15.661375661375663 110.05291005291006,16.084656084656086 110.47619047619048,16.50793650793651 110.89947089947091,17.142857142857146 111.32275132275133,17.566137566137566 111.74603174603176,17.98941798941799 112.16931216931218,18.412698412698415 112.5925925925926,18.83597883597884 113.01587301587303,19.25925925925926 113.43915343915344,19.894179894179896 113.86243386243387,20.31746031746032 114.28571428571429,20.740740740740744 114.70899470899472,21.164021164021165 115.13227513227514,21.58730158730159 115.55555555555557,22.010582010582013 115.97883597883599,22.433862433862437 116.4021164021164,23.06878306878307 116.82539682539684,23.492063492063494 117.24867724867725,23.915343915343918 117.67195767195768,24.338624338624342 118.0952380952381,24.761904761904763 118.51851851851853,25.185185185185187 118.94179894179895,25.60846560846561 119.36507936507937,26.031746031746035 119.7883597883598,26.455026455026456 120.21164021164022,27.089947089947092 120.63492063492065,27.513227513227516 121.05820105820106,27.93650793650794 121.4814814814815,28.35978835978836 121.90476190476191,28.783068783068785 122.32804232804234,29.20634920634921 122.75132275132276,29.629629629629633 123.3862433862434,30.052910052910054 123.80952380952382,30.476190476190478 124.23280423280424,31.111111111111114 124.65608465608466,31.53439153439154 125.07936507936509,31.95767195767196 125.5026455026455,32.38095238095239 125.92592592592594,32.804232804232804 126.34920634920636,33.22751322751323 126.77248677248679,33.65079365079365 127.1957671957672,34.074074074074076 127.61904761904763,34.70899470899471 128.04232804232805,35.13227513227513 128.46560846560848,35.55555555555556 128.88888888888889,35.97883597883598 129.31216931216932,36.402116402116405 129.94708994708995,36.82539682539683 130.37037037037038,37.248677248677254 130.7936507936508,37.67195767195768 131.21693121693121,38.095238095238095 131.64021164021165,38.51851851851852 132.27513227513228,38.94179894179894 132.9100529100529,39.36507936507937 133.54497354497354,39.78835978835979 134.17989417989418,40.0 134.81481481481484,40.423280423280424 135.44973544973547,40.423280423280424 136.0846560846561,40.423280423280424 136.71957671957674,40.423280423280424 137.35449735449737,40.423280423280424 137.989417989418,40.211640211640216 138.62433862433863,40.0 139.25925925925927,39.57671957671958 139.8941798941799,39.36507936507937 140.31746031746033,38.94179894179894 140.74074074074076,38.51851851851852 141.16402116402116,38.095238095238095 141.5873015873016,37.67195767195768 142.01058201058203,37.248677248677254 142.22222222222223,36.613756613756614 142.64550264550266,36.19047619047619 142.85714285714286,35.55555555555556 143.2804232804233,35.13227513227513 143.4920634920635,34.4973544973545 143.70370370370372,33.86243386243387 143.91534391534393,33.22751322751323 144.12698412698413,32.592592592592595 144.33862433862436,31.95767195767196 144.33862433862436,31.322751322751326 144.76190476190476,30.68783068783069 144.76190476190476,30.052910052910054 144.973544973545,29.41798941798942 144.973544973545,28.783068783068785 145.1851851851852,28.14814814814815 145.39682539682542,27.513227513227516 145.60846560846562,26.87830687830688 145.82010582010582,26.243386243386244 146.03174603174605,25.60846560846561 146.45502645502646,24.973544973544975 146.66666666666669,24.338624338624342 146.8783068783069,23.703703703703706 147.30158730158732,23.06878306878307 147.51322751322752,22.433862433862437 147.72486772486775,21.7989417989418 148.14814814814815,21.164021164021165 148.35978835978838,20.529100529100532 148.78306878306879,20.105820105820108 148.99470899470901,19.47089947089947 149.41798941798942,18.83597883597884 149.84126984126985,18.412698412698415 150.26455026455028,17.98941798941799 150.6878306878307,17.354497354497354 151.11111111111111,16.931216931216934 151.53439153439155,16.50793650793651 151.95767195767198,16.084656084656086 152.38095238095238,15.661375661375663 153.01587301587304,15.238095238095239 153.43915343915344,14.814814814814817 154.07407407407408,14.391534391534393 154.7089947089947,14.17989417989418 155.13227513227514,13.756613756613758 155.76719576719577,13.333333333333334 156.4021164021164,13.121693121693122 157.03703703703704,12.910052910052912 157.67195767195767,12.6984126984127 158.30687830687833,12.6984126984127 158.94179894179896,12.486772486772487 159.5767195767196,12.486772486772487 160.21164021164023,12.486772486772487 160.84656084656086,12.486772486772487 161.4814814814815,12.486772486772487 162.11640211640213,12.486772486772487 162.75132275132276,12.486772486772487 163.3862433862434,12.6984126984127 164.02116402116403,12.6984126984127 164.65608465608466,12.6984126984127 165.2910052910053,12.910052910052912 165.92592592592595,13.121693121693122 166.56084656084658,13.333333333333334 167.19576719576722,13.333333333333334 167.61904761904762,13.756613756613758 168.25396825396825,13.96825396825397 168.8888888888889,14.17989417989418 169.31216931216932,14.603174603174605 169.94708994708995,14.814814814814817 170.58201058201058,15.238095238095239 171.005291005291,15.661375661375663 171.64021164021165,16.084656084656086 172.27513227513228,16.50793650793651 172.6984126984127,16.931216931216934 173.12169312169314,17.354497354497354 173.54497354497354,17.77777777777778 173.96825396825398,18.201058201058203 174.3915343915344,18.624338624338627 174.81481481481484,19.047619047619047 175.23809523809524,19.682539682539684 175.66137566137567,20.105820105820108 175.87301587301587,20.740740740740744 176.2962962962963,21.375661375661377 176.50793650793653,22.010582010582013 176.93121693121694,22.645502645502646 177.14285714285717,23.280423280423282 177.35449735449737,23.915343915343918 177.35449735449737,24.55026455026455 177.56613756613757,25.185185185185187 177.56613756613757,25.820105820105823 177.35449735449737,26.455026455026456 177.35449735449737,27.089947089947092 177.14285714285717,27.724867724867728 176.71957671957674,28.35978835978836 176.50793650793653,28.994708994708997 176.2962962962963,29.629629629629633 175.87301587301587,30.264550264550266 175.44973544973547,30.899470899470902 175.02645502645504,31.53439153439154 174.6031746031746,32.16931216931217 174.1798941798942,32.592592592592595 173.75661375661377,33.01587301587302 173.33333333333334,33.65079365079365 172.6984126984127,34.074074074074076 172.27513227513228,34.4973544973545 171.85185185185188,34.920634920634924 171.42857142857144,35.34391534391535 171.005291005291,35.76719576719577 170.58201058201058,36.19047619047619 169.94708994708995,36.613756613756614 169.52380952380955,37.03703703703704 169.10052910052912,37.46031746031746 168.67724867724868,38.095238095238095 168.25396825396825,38.51851851851852 167.83068783068785,39.15343915343916 167.40740740740742,39.57671957671958 166.984126984127,40.211640211640216 166.56084656084658,40.84656084656085 166.34920634920636,41.48148148148149 166.13756613756615,42.11640211640212 165.92592592592595,42.75132275132275 165.71428571428572,43.386243386243386 165.71428571428572,44.021164021164026 165.50264550264552,44.65608465608466 165.50264550264552,45.29100529100529 165.71428571428572,45.92592592592593 165.71428571428572,46.560846560846564 165.71428571428572,47.195767195767196 165.92592592592595,47.830687830687836 166.13756613756615,48.46560846560847 166.34920634920636,49.1005291005291 166.56084656084658,49.73544973544974 166.7724867724868,50.370370370370374 166.984126984127,51.00529100529101 167.19576719576722,51.640211640211646 167.40740740740742,52.27513227513228 167.61904761904762,52.91005291005291 167.83068783068785,53.54497354497355 168.25396825396825,54.179894179894184 168.46560846560848,54.81481481481482 168.67724867724868,55.449735449735456 169.10052910052912,56.08465608465609 169.31216931216932,56.71957671957672 169.73544973544975,57.35449735449736 169.94708994708995,57.989417989417994 170.37037037037038,58.62433862433863 170.7936507936508,59.25925925925927 171.005291005291,59.8941798941799 171.42857142857144,60.31746031746032 171.85185185185188,60.952380952380956 172.27513227513228,61.58730158730159 172.6984126984127,62.22222222222223 173.12169312169314,62.85714285714286 173.54497354497354,63.492063492063494 173.96825396825398,64.12698412698413 174.3915343915344,64.55026455026456 174.81481481481484,64.97354497354497 175.23809523809524,65.3968253968254 175.66137566137567,66.03174603174604 176.0846560846561,66.66666666666667 176.50793650793653,67.08994708994709 176.93121693121694,67.51322751322752 177.35449735449737,68.14814814814815 177.7777777777778,68.57142857142858 178.2010582010582,68.994708994709 178.62433862433863,69.41798941798942 179.04761904761907,70.05291005291006 179.4708994708995,70.47619047619048 179.8941798941799,70.8994708994709 180.31746031746033,71.32275132275133 180.74074074074076,71.74603174603175 181.16402116402116,72.16931216931218 181.5873015873016,72.5925925925926 182.01058201058203,73.01587301587303 182.43386243386246,73.43915343915344 182.85714285714286,73.86243386243387 183.2804232804233,74.28571428571429 183.70370370370372,74.70899470899471 184.12698412698415,75.13227513227514 184.55026455026456,75.55555555555556 185.1851851851852,75.97883597883599 185.60846560846562,76.4021164021164 186.03174603174605,76.82539682539684 186.45502645502646,77.24867724867725 186.8783068783069,77.67195767195767 187.30158730158732,78.0952380952381 187.72486772486775,78.51851851851852 188.35978835978838,78.94179894179895 188.78306878306879,79.36507936507937 189.20634920634922,79.7883597883598 189.62962962962965,80.21164021164022 190.05291005291008,80.63492063492065 190.47619047619048,81.05820105820106 190.8994708994709,81.48148148148148 191.32275132275134,81.90476190476191 191.95767195767198,82.32804232804233 192.3809523809524,82.75132275132276 192.8042328042328,83.17460317460318 193.43915343915344,83.59788359788361 193.86243386243387,84.02116402116403 194.2857142857143,84.44444444444446 194.92063492063494,84.86772486772487 195.34391534391537,85.29100529100529 195.978835978836,85.71428571428572 196.4021164021164,86.13756613756614 196.82539682539684,86.56084656084657 197.46031746031747,86.98412698412699 197.8835978835979,87.40740740740742 198.30687830687833,87.83068783068784 201.2698412698413,90.37037037037038" style="fill:none; stroke:#cc0000; stroke-width:1.0"  /><polyline points="201.2698412698413,90.37037037037038 198.30687830687833,93.33333333333334 197.8835978835979,93.75661375661376 197.46031746031747,94.17989417989419 197.03703703703704,94.60317460317461 196.61375661375664,95.02645502645504 196.1904761904762,95.44973544973546 195.76719576719577,95.87301587301587 195.34391534391537,96.2962962962963 194.70899470899474,96.71957671957672 194.2857142857143,97.14285714285715 193.86243386243387,97.56613756613757 193.43915343915344,97.989417989418 193.01587301587304,98.41269841269842 192.5925925925926,98.83597883597885 192.16931216931218,99.25925925925927 191.74603174603175,99.68253968253968 191.32275132275134,100.10582010582011 190.8994708994709,100.52910052910053 190.47619047619048,100.95238095238096 190.05291005291008,101.37566137566138 189.62962962962965,101.79894179894181 188.99470899470901,102.22222222222223 188.57142857142858,102.64550264550266 187.93650793650795,103.06878306878308 187.51322751322752,103.4920634920635 187.08994708994712,103.91534391534393 186.66666666666669,104.33862433862434 186.03174603174605,104.76190476190477 185.60846560846562,105.18518518518519 185.1851851851852,105.60846560846562 184.7619047619048,106.03174603174604 184.12698412698415,106.45502645502647 183.70370370370372,106.87830687830689 183.0687830687831,107.3015873015873 182.64550264550266,107.72486772486774 182.01058201058203,108.14814814814815 181.3756613756614,108.57142857142858 180.95238095238096,108.994708994709 180.31746031746033,109.41798941798943 179.6825396825397,109.84126984126985 179.04761904761907,110.05291005291006 178.62433862433863,110.47619047619048 177.989417989418,110.89947089947091 177.35449735449737,111.32275132275133 176.71957671957674,111.74603174603176 176.0846560846561,112.16931216931218 175.44973544973547,112.5925925925926 175.02645502645504,113.01587301587303 174.3915343915344,113.22751322751324 173.75661375661377,113.65079365079366 173.12169312169314,114.07407407407408 172.4867724867725,114.28571428571429 171.85185185185188,114.70899470899472 171.21693121693124,115.13227513227514 170.58201058201058,115.34391534391536 169.94708994708995,115.76719576719577 169.31216931216932,116.1904761904762 168.67724867724868,116.4021164021164 168.04232804232805,116.82539682539684 167.40740740740742,117.24867724867725 166.7724867724868,117.67195767195768 166.34920634920636,118.0952380952381 165.92592592592595,118.51851851851853 165.50264550264552,118.94179894179895 165.0793650793651,119.36507936507937 164.65608465608466,120.00000000000001 164.44444444444446,120.63492063492065 164.23280423280426,121.26984126984128 164.02116402116403,121.90476190476191 163.80952380952382,122.53968253968254 163.80952380952382,123.17460317460318 163.80952380952382,123.80952380952382 163.80952380952382,124.44444444444446 164.02116402116403,125.07936507936509 164.23280423280426,125.71428571428572 164.65608465608466,126.13756613756615 165.0793650793651,126.56084656084657 165.50264550264552,127.1957671957672 165.92592592592595,127.61904761904763 166.34920634920636,128.04232804232805 166.984126984127,128.46560846560848 167.40740740740742,128.88888888888889 168.04232804232805,129.31216931216932 168.67724867724868,129.73544973544975 169.31216931216932,129.94708994708995 169.73544973544975,130.37037037037038 170.37037037037038,130.7936507936508 171.005291005291,131.21693121693121 171.42857142857144,131.64021164021165 172.06349206349208,132.06349206349208 172.6984126984127,132.4867724867725 173.33333333333334,132.9100529100529 173.96825396825398,133.33333333333334 174.3915343915344,133.75661375661377 175.02645502645504,134.17989417989418 175.66137566137567,134.3915343915344 176.0846560846561,134.81481481481484 176.71957671957674,135.23809523809524 177.14285714285717,135.66137566137567 177.7777777777778,136.0846560846561 178.2010582010582,136.5079365079365 178.83597883597884,136.93121693121694 179.25925925925927,137.35449735449737 179.8941798941799,137.7777777777778 180.31746031746033,138.2010582010582 180.74074074074076,138.62433862433863 181.16402116402116,139.04761904761907 181.5873015873016,139.6825396825397 181.79894179894183,140.31746031746033 182.22222222222223,140.74074074074076 182.43386243386246,141.3756613756614 182.43386243386246,142.01058201058203 182.64550264550266,142.64550264550266 182.64550264550266,143.2804232804233 182.64550264550266,143.91534391534393 182.64550264550266,144.55026455026456 182.64550264550266,145.1851851851852 182.43386243386246,145.82010582010582 182.22222222222223,146.45502645502646 182.01058201058203,147.0899470899471 181.79894179894183,147.72486772486775 181.5873015873016,148.35978835978838 181.16402116402116,148.99470899470901 180.95238095238096,149.62962962962965 180.52910052910053,150.26455026455028 180.10582010582013,150.8994708994709 179.6825396825397,151.53439153439155 179.25925925925927,152.16931216931218 178.83597883597884,152.5925925925926 178.41269841269843,153.01587301587304 177.989417989418,153.43915343915344 177.56613756613757,153.86243386243387 177.14285714285717,154.2857142857143 176.71957671957674,154.7089947089947 176.2962962962963,155.13227513227514 175.66137566137567,155.55555555555557 175.02645502645504,155.978835978836 174.6031746031746,156.4021164021164 174.1798941798942,156.82539682539684 173.54497354497354,157.24867724867727 173.12169312169314,157.67195767195767 172.4867724867725,158.0952380952381 172.06349206349208,158.51851851851853 171.64021164021165,158.94179894179896 171.005291005291,159.36507936507937 170.37037037037038,159.7883597883598 169.73544973544975,160.21164021164023 169.10052910052912,160.42328042328043 168.46560846560848,160.84656084656086 167.83068783068785,161.05820105820106 167.19576719576722,161.2698412698413 166.56084656084658,161.4814814814815 165.92592592592595,161.6931216931217 165.2910052910053,161.90476190476193 164.8677248677249,162.32804232804233 164.23280423280426,162.32804232804233 163.59788359788362,162.32804232804233 162.96296296296296,162.53968253968256 162.32804232804233,162.53968253968256 161.6931216931217,162.75132275132276 161.05820105820106,162.75132275132276 160.42328042328043,162.75132275132276 159.7883597883598,162.75132275132276 159.15343915343917,162.75132275132276 158.51851851851853,162.53968253968256 157.8835978835979,162.32804232804233 157.24867724867727,162.11640211640213 156.61375661375664,161.90476190476193 155.978835978836,161.6931216931217 155.34391534391534,161.2698412698413 154.92063492063494,160.84656084656086 154.4973544973545,160.42328042328043 154.07407407407408,160.0 153.65079365079367,159.5767195767196 153.22751322751324,158.94179894179896 153.01587301587304,158.30687830687833 152.5925925925926,157.67195767195767 152.5925925925926,157.03703703703704 152.38095238095238,156.4021164021164 152.16931216931218,155.76719576719577 152.16931216931218,155.13227513227514 151.95767195767198,154.4973544973545 151.74603174603175,153.86243386243387 151.74603174603175,153.22751322751324 151.53439153439155,152.5925925925926 151.32275132275134,151.95767195767198 151.32275132275134,151.32275132275134 151.11111111111111,150.6878306878307 151.11111111111111,150.05291005291005 150.8994708994709,149.41798941798942 150.6878306878307,148.78306878306879 150.6878306878307,148.14814814814815 150.47619047619048,147.51322751322752 150.26455026455028,146.8783068783069 150.05291005291005,146.24338624338625 149.84126984126985,145.60846560846562 149.62962962962965,144.973544973545 149.41798941798942,144.33862433862436 148.99470899470901,143.70370370370372 148.78306878306879,143.0687830687831 148.35978835978838,142.43386243386246 147.93650793650795,142.01058201058203 147.51322751322752,141.3756613756614 147.0899470899471,140.74074074074076 146.66666666666669,140.31746031746033 146.24338624338625,139.8941798941799 145.82010582010582,139.47089947089947 145.39682539682542,139.04761904761907 144.76190476190476,138.62433862433863 144.12698412698413,138.41269841269843 143.4920634920635,137.989417989418 142.85714285714286,137.56613756613757 142.22222222222223,137.56613756613757 141.5873015873016,137.56613756613757 140.95238095238096,137.35449735449737 140.31746031746033,137.35449735449737 139.6825396825397,137.35449735449737 139.04761904761907,137.35449735449737 138.41269841269843,137.56613756613757 137.7777777777778,137.7777777777778 137.14285714285717,137.989417989418 136.5079365079365,138.2010582010582 136.0846560846561,138.62433862433863 135.66137566137567,139.04761904761907 135.02645502645504,139.47089947089947 134.6031746031746,139.8941798941799 134.17989417989418,140.31746031746033 133.75661375661377,140.74074074074076 133.33333333333334,141.16402116402116 132.9100529100529,141.5873015873016 132.6984126984127,142.22222222222223 132.27513227513228,142.85714285714286 131.85185185185185,143.4920634920635 131.64021164021165,144.12698412698413 131.42857142857144,144.76190476190476 131.21693121693121,145.39682539682542 131.005291005291,146.03174603174605 130.7936507936508,146.66666666666669 130.58201058201058,147.30158730158732 130.58201058201058,147.93650793650795 130.37037037037038,148.57142857142858 130.15873015873018,149.20634920634922 129.94708994708995,149.84126984126985 129.94708994708995,150.47619047619048 129.73544973544975,151.11111111111111 129.52380952380955,151.74603174603175 129.52380952380955,152.38095238095238 129.31216931216932,153.01587301587304 129.10052910052912,153.65079365079367 128.88888888888889,154.2857142857143 128.67724867724868,154.92063492063494 128.46560846560848,155.55555555555557 128.25396825396825,156.1904761904762 128.04232804232805,156.82539682539684 127.83068783068784,157.46031746031747 127.61904761904763,158.0952380952381 127.40740740740742,158.73015873015873 127.1957671957672,159.36507936507937 126.98412698412699,160.0 126.77248677248679,160.63492063492066 126.56084656084657,161.2698412698413 126.34920634920636,161.90476190476193 126.13756613756615,162.53968253968256 125.92592592592594,163.1746031746032 125.71428571428572,163.80952380952382 125.5026455026455,164.44444444444446 125.2910052910053,165.0793650793651 124.86772486772487,165.71428571428572 124.65608465608466,166.34920634920636 124.44444444444446,166.984126984127 124.23280423280424,167.61904761904762 123.80952380952382,168.25396825396825 123.59788359788361,168.8888888888889 123.3862433862434,169.52380952380955 123.17460317460318,170.15873015873018 122.96296296296298,170.7936507936508 122.53968253968254,171.42857142857144 122.32804232804234,172.06349206349208 122.11640211640213,172.6984126984127 121.6931216931217,173.33333333333334 121.26984126984128,173.96825396825398 121.05820105820106,174.6031746031746 120.63492063492065,175.23809523809524 120.42328042328043,175.87301587301587 120.21164021164022,176.50793650793653 119.7883597883598,177.14285714285717 119.36507936507937,177.7777777777778 119.15343915343917,178.41269841269843 118.73015873015873,179.04761904761907 118.51851851851853,179.6825396825397 118.0952380952381,180.10582010582013 117.88359788359789,180.74074074074076 117.46031746031747,181.3756613756614 117.03703703703705,182.01058201058203 116.61375661375662,182.64550264550266 116.4021164021164,183.2804232804233 115.97883597883599,183.91534391534393 115.55555555555557,184.55026455026456 115.13227513227514,185.1851851851852 114.70899470899472,185.82010582010582 114.49735449735451,186.45502645502646 114.07407407407408,187.08994708994712 113.65079365079366,187.72486772486775 113.43915343915344,188.35978835978838 113.01587301587303,188.99470899470901 112.5925925925926,189.62962962962965 112.16931216931218,190.26455026455028 111.95767195767196,190.8994708994709 111.74603174603176,191.53439153439155 111.74603174603176,192.16931216931218 111.53439153439155,192.8042328042328 109.84126984126985,196.4021164021164" style="fill:none; stroke:#999900; stroke-width:1.0"  /><polyline points="109.84126984126985,196.4021164021164 106.87830687830689,192.16931216931218 106.45502645502647,191.53439153439155 106.03174603174604,191.11111111111111 105.60846560846562,190.47619047619048 105.3968253968254,189.84126984126985 104.97354497354497,189.41798941798945 104.55026455026456,188.78306878306879 104.12698412698414,188.14814814814815 103.70370370370371,187.72486772486775 103.28042328042329,187.08994708994712 103.06878306878308,186.45502645502646 102.64550264550266,186.03174603174605 102.22222222222223,185.39682539682542 102.01058201058201,184.7619047619048 101.5873015873016,184.33862433862436 101.16402116402116,183.91534391534393 100.74074074074075,183.2804232804233 100.31746031746033,182.64550264550266 99.8941798941799,182.22222222222223 99.47089947089948,181.5873015873016 99.04761904761905,180.95238095238096 98.62433862433863,180.31746031746033 98.2010582010582,179.6825396825397 97.77777777777779,179.04761904761907 97.35449735449737,178.62433862433863 96.93121693121694,177.989417989418 96.50793650793652,177.35449735449737 96.08465608465609,176.71957671957674 95.66137566137567,176.2962962962963 95.23809523809524,175.66137566137567 94.81481481481482,175.23809523809524 94.39153439153439,174.6031746031746 93.96825396825398,174.1798941798942 93.54497354497356,173.54497354497354 93.12169312169313,173.12169312169314 92.69841269841271,172.4867724867725 92.27513227513228,171.85185185185188 91.85185185185186,171.42857142857144 91.64021164021165,170.7936507936508 91.21693121693123,170.37037037037038 90.7936507936508,169.73544973544975 90.37037037037038,169.31216931216932 89.94708994708995,168.8888888888889 89.73544973544975,168.25396825396825 89.31216931216932,167.83068783068785 88.8888888888889,167.19576719576722 88.46560846560847,166.56084656084658 88.04232804232805,165.92592592592595 87.61904761904762,165.50264550264552 87.1957671957672,164.8677248677249 86.77248677248677,164.23280423280426 86.34920634920636,163.59788359788362 85.92592592592594,162.96296296296296 85.5026455026455,162.53968253968256 85.07936507936509,161.90476190476193 84.65608465608466,161.2698412698413 84.23280423280424,160.63492063492066 83.80952380952381,160.21164021164023 83.3862433862434,159.5767195767196 82.96296296296298,158.94179894179896 82.53968253968254,158.30687830687833 82.11640211640213,157.8835978835979 81.6931216931217,157.24867724867727 81.26984126984128,156.61375661375664 80.84656084656085,155.978835978836 80.63492063492065,155.34391534391534 80.21164021164022,154.92063492063494 79.7883597883598,154.2857142857143 79.57671957671958,153.65079365079367 79.15343915343917,153.01587301587304 78.94179894179895,152.38095238095238 78.73015873015873,151.74603174603175 78.30687830687832,151.11111111111111 78.0952380952381,150.47619047619048 77.88359788359789,149.84126984126985 77.46031746031747,149.20634920634922 77.24867724867725,148.57142857142858 77.03703703703704,147.93650793650795 76.82539682539684,147.30158730158732 76.61375661375662,146.66666666666669 76.61375661375662,146.03174603174605 76.4021164021164,145.39682539682542 76.19047619047619,144.76190476190476 75.97883597883599,144.12698412698413 75.97883597883599,143.4920634920635 75.76719576719577,142.85714285714286 75.55555555555556,142.22222222222223 75.55555555555556,141.5873015873016 75.55555555555556,140.95238095238096 75.55555555555556,140.31746031746033 75.55555555555556,139.6825396825397 75.76719576719577,139.04761904761907 75.97883597883599,138.41269841269843 76.19047619047619,137.7777777777778 76.61375661375662,137.14285714285717 77.03703703703704,136.71957671957674 77.46031746031747,136.2962962962963 77.88359788359789,135.87301587301587 78.51851851851852,135.66137566137567 79.15343915343917,135.23809523809524 79.7883597883598,134.81481481481484 80.21164021164022,134.3915343915344 80.84656084656085,134.6031746031746 81.48148148148148,134.3915343915344 82.11640211640213,134.17989417989418 82.75132275132276,134.17989417989418 83.3862433862434,133.96825396825398 84.02116402116403,133.75661375661377 84.65608465608466,133.75661375661377 85.29100529100529,133.75661375661377 85.92592592592594,133.75661375661377 86.56084656084657,133.75661375661377 87.1957671957672,133.54497354497354 87.83068783068784,133.54497354497354 88.46560846560847,133.54497354497354 89.1005291005291,133.33333333333334 89.73544973544975,133.33333333333334 90.37037037037038,133.12169312169314 91.00529100529101,133.12169312169314 91.64021164021165,132.9100529100529 92.27513227513228,132.6984126984127 92.91005291005291,132.6984126984127 93.54497354497356,132.4867724867725 94.17989417989419,132.27513227513228 94.81481481481482,132.06349206349208 95.23809523809524,131.64021164021165 95.87301587301587,131.64021164021165 96.50793650793652,131.21693121693121 97.14285714285715,131.005291005291 97.56613756613757,130.58201058201058 98.2010582010582,130.37037037037038 98.83597883597885,129.94708994708995 99.47089947089948,129.52380952380955 99.8941798941799,129.10052910052912 100.31746031746033,128.67724867724868 100.74074074074075,128.25396825396825 101.16402116402116,127.61904761904763 101.5873015873016,126.98412698412699 101.79894179894181,126.34920634920636 102.01058201058201,125.71428571428572 102.22222222222223,125.07936507936509 102.22222222222223,124.44444444444446 102.22222222222223,123.80952380952382 102.22222222222223,123.17460317460318 102.22222222222223,122.53968253968254 102.22222222222223,121.90476190476191 102.01058201058201,121.26984126984128 101.79894179894181,120.63492063492065 101.79894179894181,120.00000000000001 101.5873015873016,119.36507936507937 101.5873015873016,118.73015873015873 101.37566137566138,118.0952380952381 101.16402116402116,117.46031746031747 100.95238095238096,116.82539682539684 100.74074074074075,116.1904761904762 100.74074074074075,115.55555555555557 100.31746031746033,114.92063492063492 100.10582010582011,114.28571428571429 99.8941798941799,113.65079365079366 99.68253968253968,113.01587301587303 99.47089947089948,112.3809523809524 99.25925925925927,111.74603174603176 98.83597883597885,111.11111111111111 98.62433862433863,110.47619047619048 98.41269841269842,109.84126984126985 97.989417989418,109.41798941798943 97.56613756613757,108.78306878306879 97.35449735449737,108.14814814814815 96.93121693121694,107.72486772486774 96.71957671957672,107.0899470899471 96.2962962962963,106.66666666666667 95.87301587301587,106.03174603174604 95.44973544973546,105.60846560846562 95.02645502645504,104.97354497354497 94.60317460317461,104.55026455026456 94.17989417989419,104.12698412698414 93.75661375661376,103.4920634920635 93.33333333333334,103.06878306878308 92.69841269841271,102.64550264550266 92.27513227513228,102.22222222222223 91.85185185185186,101.79894179894181 91.21693121693123,101.37566137566138 90.58201058201058,100.95238095238096 90.15873015873017,100.52910052910053 89.52380952380953,100.10582010582011 88.8888888888889,99.68253968253968 88.25396825396827,99.25925925925927 87.83068783068784,98.83597883597885 87.40740740740742,98.41269841269842 86.77248677248677,97.989417989418 86.13756613756614,97.56613756613757 85.71428571428572,97.14285714285715 85.07936507936509,96.71957671957672 84.44444444444446,96.50793650793652 83.80952380952381,96.08465608465609 83.17460317460318,95.87301587301587 82.53968253968254,95.66137566137567 81.90476190476191,95.23809523809524 81.26984126984128,95.02645502645504 80.63492063492065,94.81481481481482 80.0,94.60317460317461 79.36507936507937,94.60317460317461 78.73015873015873,94.17989417989419 78.0952380952381,94.17989417989419 77.46031746031747,93.96825396825398 76.82539682539684,93.75661375661376 76.19047619047619,93.75661375661376 75.55555555555556,93.54497354497356 74.92063492063492,93.54497354497356 74.28571428571429,93.54497354497356 73.65079365079366,93.33333333333334 73.01587301587303,93.33333333333334 72.38095238095238,93.33333333333334 71.74603174603175,93.33333333333334 71.11111111111111,93.33333333333334 70.47619047619048,93.33333333333334 69.84126984126985,93.54497354497356 69.20634920634922,93.54497354497356 68.57142857142858,93.96825396825398 67.93650793650794,94.17989417989419 67.3015873015873,94.39153439153439 66.87830687830689,94.81481481481482 66.24338624338625,95.23809523809524 65.82010582010582,95.66137566137567 65.3968253968254,96.08465608465609 64.97354497354497,96.50793650793652 64.55026455026456,96.93121693121694 64.12698412698413,97.56613756613757 63.91534391534392,98.2010582010582 63.492063492063494,98.83597883597885 63.280423280423285,99.47089947089948 63.06878306878308,100.10582010582011 62.85714285714286,100.74074074074075 62.64550264550265,101.37566137566138 62.64550264550265,102.01058201058201 62.43386243386244,102.64550264550266 62.22222222222223,103.28042328042329 62.22222222222223,103.91534391534393 62.01058201058201,104.55026455026456 62.01058201058201,105.18518518518519 62.01058201058201,105.82010582010582 62.01058201058201,106.45502645502647 62.01058201058201,107.0899470899471 62.01058201058201,107.72486772486774 62.01058201058201,108.35978835978837 62.01058201058201,108.994708994709 61.798941798941804,109.62962962962963 61.798941798941804,110.26455026455027 61.798941798941804,110.89947089947091 61.798941798941804,111.53439153439155 61.798941798941804,112.16931216931218 61.798941798941804,112.80423280423281 61.58730158730159,113.43915343915344 61.37566137566138,114.07407407407408 61.16402116402117,114.70899470899472 60.952380952380956,115.34391534391536 60.52910052910053,115.97883597883599 60.31746031746032,116.61375661375662 59.8941798941799,117.24867724867725 59.682539682539684,117.88359788359789 59.25925925925927,118.30687830687832 58.83597883597884,118.73015873015873 58.41269841269842,119.15343915343917 57.989417989417994,119.57671957671958 57.56613756613757,120.00000000000001 56.93121693121694,120.21164021164022 56.50793650793651,120.63492063492065 55.87301587301588,120.84656084656086 55.23809523809524,121.05820105820106 54.60317460317461,121.05820105820106 53.968253968253975,121.05820105820106 53.333333333333336,121.05820105820106 52.6984126984127,121.05820105820106 52.06349206349207,121.05820105820106 51.42857142857143,121.05820105820106 50.7936507936508,121.05820105820106 50.158730158730165,120.84656084656086 49.523809523809526,120.84656084656086 48.88888888888889,120.84656084656086 48.25396825396826,120.63492063492065 47.61904761904762,120.63492063492065 46.98412698412699,120.42328042328043 46.349206349206355,120.42328042328043 45.714285714285715,120.21164021164022 45.07936507936508,120.00000000000001 44.44444444444445,120.00000000000001 43.80952380952381,119.7883597883598 43.17460317460318,119.57671957671958 42.539682539682545,119.36507936507937 41.904761904761905,119.15343915343917 41.26984126984127,118.94179894179895 40.63492063492064,118.73015873015873 40.0,118.51851851851853 39.36507936507937,118.30687830687832 38.730158730158735,117.88359788359789 38.095238095238095,117.67195767195768 37.46031746031746,117.24867724867725 36.82539682539683,117.03703703703705 36.19047619047619,116.61375661375662 35.55555555555556,116.4021164021164 34.920634920634924,115.97883597883599 34.28571428571429,115.55555555555557 33.65079365079365,115.13227513227514 33.01587301587302,114.70899470899472 32.38095238095239,114.28571428571429 31.95767195767196,113.86243386243387 31.322751322751326,113.65079365079366 30.899470899470902,113.22751322751324 30.264550264550266,112.80423280423281 29.841269841269842,112.3809523809524 29.20634920634921,111.95767195767196 28.783068783068785,111.53439153439155 28.35978835978836,111.11111111111111 27.724867724867728,110.6878306878307 27.089947089947092,110.26455026455027 26.666666666666668,109.84126984126985 26.031746031746035,109.41798941798943 25.60846560846561,108.994708994709 25.185185185185187,108.57142857142858 24.55026455026455,108.35978835978837 24.12698412698413,107.93650793650795 23.703703703703706,107.51322751322752 23.06878306878307,107.0899470899471 22.645502645502646,106.66666666666667 22.010582010582013,106.24338624338625 21.58730158730159,105.60846560846562 21.164021164021165,105.18518518518519 20.529100529100532,104.76190476190477 20.105820105820108,104.12698412698414 19.682539682539684,103.70370370370371 19.047619047619047,103.28042328042329 18.624338624338627,102.85714285714286 18.201058201058203,102.43386243386244 17.77777777777778,102.01058201058201 17.354497354497354,101.37566137566138 16.931216931216934,100.95238095238096 16.50793650793651,100.52910052910053 16.084656084656086,100.10582010582011 15.661375661375663,99.68253968253968 15.026455026455027,99.25925925925927 14.603174603174605,98.83597883597885 14.17989417989418,98.2010582010582 13.756613756613758,97.77777777777779 13.333333333333334,97.35449735449737 12.910052910052912,96.93121693121694 12.486772486772487,96.50793650793652 12.063492063492065,95.87301587301587 11.640211640211641,95.44973544973546 11.216931216931219,95.02645502645504 10.793650793650794,94.60317460317461 10.370370370370372,93.96825396825398 9.947089947089948,93.54497354497356 9.523809523809524,93.12169312169313 9.100529100529101,92.69841269841271 8.677248677248677,92.27513227513228 8.253968253968255,91.85185185185186 7.830687830687832,91.21693121693123 7.407407407407408,90.7936507936508 6.984126984126985,90.37037037037038 6.560846560846561,89.94708994708995 6.137566137566138,89.31216931216932 5.714285714285714,88.8888888888889 5.291005291005291,88.46560846560847 3.174603174603175,86.13756613756614" style="fill:none; stroke:#00aa99; stroke-width:1.0"  /><polyline points="3.174603174603175,86.13756613756614 5.9259259259259265,84.02116402116403 6.560846560846561,83.59788359788361 7.195767195767196,83.17460317460318 7.830687830687832,82.75132275132276 8.253968253968255,82.32804232804233 8.677248677248677,81.90476190476191 9.312169312169313,81.6931216931217 9.947089947089948,81.26984126984128 10.370370370370372,80.84656084656085 11.005291005291006,80.42328042328043 11.640211640211641,80.0 12.063492063492065,79.57671957671958 12.6984126984127,79.15343915343917 13.121693121693122,78.73015873015873 13.544973544973546,78.30687830687832 13.96825396825397,77.88359788359789 14.603174603174605,77.46031746031747 15.026455026455027,77.03703703703704 15.661375661375663,76.61375661375662 16.296296296296298,76.19047619047619 16.71957671957672,75.76719576719577 17.142857142857146,75.34391534391536 17.77777777777778,74.92063492063492 18.201058201058203,74.49735449735451 18.624338624338627,74.07407407407408 19.047619047619047,73.65079365079366 19.47089947089947,73.22751322751323 19.894179894179896,72.80423280423281 20.31746031746032,72.38095238095238 20.740740740740744,71.95767195767196 21.164021164021165,71.53439153439155 21.58730158730159,71.11111111111111 22.010582010582013,70.47619047619048 22.433862433862437,69.84126984126985 22.857142857142858,69.41798941798942 23.280423280423282,68.78306878306879 23.703703703703706,68.14814814814815 24.12698412698413,67.51322751322752 24.338624338624342,66.87830687830689 24.761904761904763,66.24338624338625 24.973544973544975,65.60846560846561 25.3968253968254,64.97354497354497 25.60846560846561,64.33862433862434 26.031746031746035,63.70370370370371 26.243386243386244,63.06878306878308 26.455026455026456,62.43386243386244 26.666666666666668,61.798941798941804 27.089947089947092,61.37566137566138 27.089947089947092,60.74074074074075 27.513227513227516,60.10582010582011 27.724867724867728,59.470899470899475 27.93650793650794,58.83597883597884 28.14814814814815,58.2010582010582 28.14814814814815,57.56613756613757 28.571428571428573,56.93121693121694 28.571428571428573,56.2962962962963 28.571428571428573,55.661375661375665 28.571428571428573,55.02645502645503 28.571428571428573,54.39153439153439 28.35978835978836,53.75661375661376 28.35978835978836,53.12169312169313 27.93650793650794,52.48677248677249 27.724867724867728,51.851851851851855 27.513227513227516,51.21693121693122 27.089947089947092,50.7936507936508 26.666666666666668,50.370370370370374 26.243386243386244,49.73544973544974 25.820105820105823,49.31216931216932 25.185185185185187,48.88888888888889 24.761904761904763,48.46560846560847 24.12698412698413,48.25396825396826 23.703703703703706,47.830687830687836 23.06878306878307,47.61904761904762 22.645502645502646,47.195767195767196 22.010582010582013,46.98412698412699 21.375661375661377,46.77248677248678 20.740740740740744,46.560846560846564 20.105820105820108,46.349206349206355 19.47089947089947,46.349206349206355 18.83597883597884,46.13756613756614 18.201058201058203,46.13756613756614 17.566137566137566,45.92592592592593 16.931216931216934,45.92592592592593 16.296296296296298,45.92592592592593 15.661375661375663,45.714285714285715 15.026455026455027,45.714285714285715 14.391534391534393,45.714285714285715 13.756613756613758,45.714285714285715 13.121693121693122,45.50264550264551 12.486772486772487,45.50264550264551 11.851851851851853,45.29100529100529 11.216931216931219,45.29100529100529 10.582010582010582,45.29100529100529 9.947089947089948,45.29100529100529 9.312169312169313,45.07936507936508 8.677248677248677,44.867724867724874 8.042328042328043,44.867724867724874 7.407407407407408,44.65608465608466 6.772486772486773,44.44444444444445 6.137566137566138,44.232804232804234 5.502645502645503,44.021164021164026 5.07936507936508,43.5978835978836 4.444444444444445,43.17460317460318 3.8095238095238098,42.75132275132275 3.3862433862433865,42.32804232804233 2.9629629629629632,41.904761904761905 2.53968253968254,41.48148148148149 2.1164021164021167,40.84656084656085 1.6931216931216932,40.211640211640216 1.26984126984127,39.57671957671958 1.0582010582010584,38.94179894179894 0.8465608465608466,38.30687830687831 0.634920634920635,37.67195767195768 0.4232804232804233,37.03703703703704 0.4232804232804233,36.402116402116405 0.21164021164021166,35.76719576719577 0.21164021164021166,35.13227513227513 0.21164021164021166,34.4973544973545 0.4232804232804233,33.86243386243387 0.4232804232804233,33.22751322751323 0.4232804232804233,32.592592592592595 0.634920634920635,31.95767195767196 0.8465608465608466,31.322751322751326 0.8465608465608466,30.68783068783069 1.0582010582010584,30.052910052910054 1.0582010582010584,29.41798941798942 1.26984126984127,28.783068783068785 1.4814814814814816,28.14814814814815 1.6931216931216932,27.513227513227516 1.9047619047619049,26.87830687830688 2.1164021164021167,26.243386243386244 2.53968253968254,25.60846560846561 2.7513227513227516,24.973544973544975 2.9629629629629632,24.338624338624342 3.3862433862433865,23.703703703703706 3.597883597883598,23.06878306878307 4.021164021164021,22.433862433862437 4.2328042328042335,21.7989417989418 4.656084656084657,21.375661375661377 4.867724867724868,20.740740740740744 5.291005291005291,20.31746031746032 5.714285714285714,19.682539682539684 6.137566137566138,19.25925925925926 6.560846560846561,18.624338624338627 6.984126984126985,18.201058201058203 7.407407407407408,17.566137566137566 7.830687830687832,17.142857142857146 8.253968253968255,16.71957671957672 8.677248677248677,16.296296296296298 9.100529100529101,15.873015873015873 9.523809523809524,15.449735449735451 10.15873015873016,15.238095238095239 10.582010582010582,14.814814814814817 11.005291005291006,14.391534391534393 11.428571428571429,13.96825396825397 12.063492063492065,13.544973544973546 12.6984126984127,13.121693121693122 13.333333333333334,12.6984126984127 13.96825396825397,12.275132275132275 14.391534391534393,11.851851851851853 15.026455026455027,11.640211640211641 15.449735449735451,11.216931216931219 16.084656084656086,11.005291005291006 16.71957671957672,10.582010582010582 17.354497354497354,10.15873015873016 17.98941798941799,9.947089947089948 18.624338624338627,9.523809523809524 19.25925925925926,9.312169312169313 19.894179894179896,9.100529100529101 20.529100529100532,8.88888888888889 21.164021164021165,8.677248677248677 21.7989417989418,8.465608465608467 22.433862433862437,8.253968253968255 23.06878306878307,8.253968253968255 23.703703703703706,8.042328042328043 24.338624338624342,7.830687830687832 24.973544973544975,7.6190476190476195 25.60846560846561,7.6190476190476195 26.243386243386244,7.6190476190476195 26.87830687830688,7.6190476190476195 27.513227513227516,7.6190476190476195 28.14814814814815,7.6190476190476195 28.783068783068785,7.830687830687832 29.41798941798942,7.830687830687832 30.052910052910054,8.042328042328043 30.68783068783069,8.253968253968255 31.322751322751326,8.465608465608467 31.95767195767196,8.465608465608467 32.592592592592595,8.677248677248677 33.01587301587302,9.100529100529101 33.65079365079365,9.312169312169313 34.28571428571429,9.523809523809524 34.920634920634924,9.947089947089948 35.55555555555556,10.370370370370372 35.97883597883598,10.793650793650794 36.613756613756614,11.216931216931219 37.03703703703704,11.640211640211641 37.46031746031746,12.063492063492065 37.883597883597886,12.486772486772487 38.30687830687831,13.121693121693122 38.730158730158735,13.756613756613758 39.15343915343916,14.391534391534393 39.57671957671958,15.026455026455027 39.78835978835979,15.661375661375663 40.211640211640216,16.296296296296298 40.423280423280424,16.931216931216934 40.63492063492064,17.566137566137566 40.84656084656085,18.201058201058203 40.84656084656085,18.83597883597884 41.058201058201064,19.47089947089947 41.26984126984127,20.105820105820108 41.26984126984127,20.740740740740744 41.26984126984127,21.375661375661377 41.26984126984127,22.010582010582013 41.26984126984127,22.645502645502646 41.26984126984127,23.280423280423282 41.26984126984127,23.915343915343918 41.26984126984127,24.55026455026455 41.26984126984127,25.185185185185187 41.26984126984127,25.820105820105823 41.26984126984127,26.455026455026456 41.26984126984127,27.089947089947092 41.48148148148149,27.724867724867728 41.48148148148149,28.35978835978836 41.6931216931217,28.994708994708997 41.904761904761905,29.629629629629633 42.32804232804233,30.264550264550266 42.539682539682545,30.899470899470902 42.96296296296297,31.53439153439154 43.17460317460318,32.16931216931217 43.5978835978836,32.804232804232804 44.021164021164026,33.22751322751323 44.44444444444445,33.86243386243387 44.867724867724874,34.28571428571429 45.29100529100529,34.70899470899471 45.714285714285715,35.13227513227513 46.349206349206355,35.55555555555556 46.98412698412699,35.97883597883598 47.61904761904762,36.402116402116405 48.25396825396826,36.613756613756614 48.88888888888889,36.613756613756614 49.523809523809526,37.03703703703704 50.158730158730165,37.03703703703704 50.7936507936508,37.03703703703704 51.42857142857143,36.82539682539683 52.06349206349207,36.82539682539683 52.6984126984127,36.82539682539683 53.333333333333336,36.613756613756614 53.968253968253975,36.402116402116405 54.60317460317461,36.402116402116405 55.23809523809524,35.97883597883598 55.87301587301588,35.76719576719577 56.50793650793651,35.34391534391535 57.142857142857146,34.920634920634924 57.777777777777786,34.4973544973545 58.41269841269842,34.074074074074076 59.04761904761905,33.65079365079365 59.682539682539684,33.22751322751323 60.10582010582011,32.804232804232804 60.52910052910053,32.38095238095239 61.16402116402117,31.95767195767196 61.798941798941804,31.53439153439154 62.43386243386244,31.111111111111114 62.85714285714286,30.68783068783069 63.492063492063494,30.264550264550266 64.12698412698413,29.841269841269842 64.55026455026456,29.41798941798942 65.18518518518519,28.994708994708997 65.82010582010582,28.571428571428573 66.45502645502646,28.14814814814815 66.87830687830689,27.724867724867728 67.51322751322752,27.301587301587304 68.14814814814815,26.87830687830688 68.57142857142858,26.455026455026456 69.20634920634922,26.031746031746035 69.62962962962963,25.60846560846561 70.26455026455027,25.185185185185187 70.6878306878307,24.761904761904763 71.11111111111111,24.338624338624342 71.74603174603175,23.915343915343918 72.16931216931218,23.492063492063494 72.5925925925926,23.06878306878307 73.22751322751323,22.645502645502646 73.65079365079366,22.222222222222225 74.07407407407408,21.7989417989418 74.70899470899471,21.375661375661377 75.13227513227514,20.952380952380953 75.55555555555556,20.529100529100532 75.97883597883599,20.105820105820108 76.61375661375662,19.682539682539684 77.03703703703704,19.25925925925926 77.46031746031747,18.83597883597884 78.0952380952381,18.412698412698415 78.51851851851852,17.98941798941799 78.94179894179895,17.566137566137566 79.36507936507937,17.142857142857146 79.7883597883598,16.71957671957672 80.21164021164022,16.296296296296298 80.63492063492065,15.873015873015873 81.05820105820106,15.449735449735451 81.6931216931217,15.026455026455027 82.11640211640213,14.603174603174605 82.53968253968254,14.17989417989418 82.96296296296298,13.756613756613758 83.3862433862434,13.333333333333334 83.80952380952381,12.910052910052912 84.23280423280424,12.486772486772487 84.65608465608466,12.063492063492065 85.07936507936509,11.640211640211641 85.5026455026455,11.216931216931219 85.92592592592594,10.582010582010582 86.34920634920636,10.15873015873016 86.77248677248677,9.735449735449736 87.1957671957672,9.312169312169313 87.61904761904762,8.88888888888889 88.04232804232805,8.465608465608467 88.46560846560847,8.042328042328043 88.8888888888889,7.407407407407408 89.31216931216932,6.984126984126985 89.73544973544975,6.560846560846561 90.15873015873017,5.9259259259259265 90.58201058201058,5.502645502645503 91.00529100529101,5.07936507936508 91.42857142857143,4.444444444444445 91.85185185185186,4.021164021164021 92.27513227513228,3.3862433862433865 92.69841269841271,2.9629629629629632 93.12169312169313,2.53968253968254 95.66137566137567,-0.4232804232804233" style="fill:none; stroke:#3300bb; stroke-width:1.0"  /><circle cx="95.66137566137567" cy="-0.4232804232804233" r="2.0" style="fill:none; stroke:#000000aa; stroke-width:0.25" /><circle cx="201.2698412698413" cy="90.37037037037038" r="2.0" style="fill:none; stroke:#000000aa; stroke-width:0.25" /><circle cx="109.84126984126985" cy="196.4021164021164" r="2.0" style="fill:none; stroke:#000000aa; stroke-width:0.25" /><circle cx="3.174603174603175" cy="86.13756613756614" r="2.0" style="fill:none; stroke:#000000aa; stroke-width:0.25" /><circle cx="95.02645502645504" cy="0.21164021164021166" r="2.0" style="fill:none; stroke:#ff3366aa; stroke-width:0.25" /><circle cx="200.21164021164023" cy="90.58201058201058" r="2.0" style="fill:none; stroke:#ff3366aa; stroke-width:0.25" /><circle cx="109.20634920634922" cy="194.70899470899474" r="2.0" style="fill:none; stroke:#ff3366aa; stroke-width:0.25" /><circle cx="3.597883597883598" cy="85.92592592592594" r="2.0" style="fill:none; stroke:#ff3366aa; stroke-width:0.25" /><polyline points="103.28042328042329,8.677248677248677 102.85714285714286,8.253968253968255 102.43386243386244,7.6190476190476195 102.01058201058201,7.195767195767196 101.5873015873016,6.772486772486773 101.16402116402116,6.137566137566138 100.74074074074075,5.714285714285714 100.31746031746033,5.07936507936508 99.8941798941799,4.656084656084657 99.47089947089948,4.2328042328042335 99.04761904761905,3.597883597883598 98.62433862433863,3.174603174603175 98.2010582010582,2.53968253968254 97.77777777777779,2.1164021164021167" style="fill:none; stroke:#001100; stroke-width:1.0" /><polyline points="87.1957671957672,9.312169312169313 87.61904761904762,8.88888888888889 88.04232804232805,8.465608465608467 88.46560846560847,8.042328042328043 88.8888888888889,7.407407407407408 89.31216931216932,6.984126984126985 89.73544973544975,6.560846560846561 90.15873015873017,5.9259259259259265 90.58201058201058,5.502645502645503 91.00529100529101,5.07936507936508 91.42857142857143,4.444444444444445 91.85185185185186,4.021164021164021 92.27513227513228,3.3862433862433865 92.69841269841271,2.9629629629629632 93.12169312169313,2.53968253968254" style="fill:none; stroke:#000011; stroke-width:1.0" /><polyline points="192.16931216931218,99.25925925925927 192.5925925925926,98.83597883597885 193.01587301587304,98.41269841269842 193.43915343915344,97.989417989418 193.86243386243387,97.56613756613757 194.2857142857143,97.14285714285715 194.70899470899474,96.71957671957672 195.34391534391537,96.2962962962963 195.76719576719577,95.87301587301587 196.1904761904762,95.44973544973546 196.61375661375664,95.02645502645504 197.03703703703704,94.60317460317461 197.46031746031747,94.17989417989419 197.8835978835979,93.75661375661376 198.30687830687833,93.33333333333334" style="fill:none; stroke:#001100; stroke-width:1.0" /><polyline points="191.95767195767198,82.32804232804233 192.3809523809524,82.75132275132276 192.8042328042328,83.17460317460318 193.43915343915344,83.59788359788361 193.86243386243387,84.02116402116403 194.2857142857143,84.44444444444446 194.92063492063494,84.86772486772487 195.34391534391537,85.29100529100529 195.978835978836,85.71428571428572 196.4021164021164,86.13756613756614 196.82539682539684,86.56084656084657 197.46031746031747,86.98412698412699 197.8835978835979,87.40740740740742 198.30687830687833,87.83068783068784" style="fill:none; stroke:#000011; stroke-width:1.0" /><polyline points="102.22222222222223,185.39682539682542 102.64550264550266,186.03174603174605 103.06878306878308,186.45502645502646 103.28042328042329,187.08994708994712 103.70370370370371,187.72486772486775 104.12698412698414,188.14814814814815 104.55026455026456,188.78306878306879 104.97354497354497,189.41798941798945 105.3968253968254,189.84126984126985 105.60846560846562,190.47619047619048 106.03174603174604,191.11111111111111 106.45502645502647,191.53439153439155 106.87830687830689,192.16931216931218" style="fill:none; stroke:#001100; stroke-width:1.0" /><polyline points="115.55555555555557,184.55026455026456 115.13227513227514,185.1851851851852 114.70899470899472,185.82010582010582 114.49735449735451,186.45502645502646 114.07407407407408,187.08994708994712 113.65079365079366,187.72486772486775 113.43915343915344,188.35978835978838 113.01587301587303,188.99470899470901 112.5925925925926,189.62962962962965 112.16931216931218,190.26455026455028 111.95767195767196,190.8994708994709 111.74603174603176,191.53439153439155 111.74603174603176,192.16931216931218 111.53439153439155,192.8042328042328" style="fill:none; stroke:#000011; stroke-width:1.0" /><polyline points="13.121693121693122,78.73015873015873 12.6984126984127,79.15343915343917 12.063492063492065,79.57671957671958 11.640211640211641,80.0 11.005291005291006,80.42328042328043 10.370370370370372,80.84656084656085 9.947089947089948,81.26984126984128 9.312169312169313,81.6931216931217 8.677248677248677,81.90476190476191 8.253968253968255,82.32804232804233 7.830687830687832,82.75132275132276 7.195767195767196,83.17460317460318 6.560846560846561,83.59788359788361 5.9259259259259265,84.02116402116403" style="fill:none; stroke:#001100; stroke-width:1.0" /><polyline points="11.216931216931219,95.02645502645504 10.793650793650794,94.60317460317461 10.370370370370372,93.96825396825398 9.947089947089948,93.54497354497356 9.523809523809524,93.12169312169313 9.100529100529101,92.69841269841271 8.677248677248677,92.27513227513228 8.253968253968255,91.85185185185186 7.830687830687832,91.21693121693123 7.407407407407408,90.7936507936508 6.984126984126985,90.37037037037038 6.560846560846561,89.94708994708995 6.137566137566138,89.31216931216932 5.714285714285714,88.8888888888889 5.291005291005291,88.46560846560847" style="fill:none; stroke:#000011; stroke-width:1.0" /><polyline points="97.77777777777779,2.1164021164021167 84.23280423280424,-14.17989417989418" style="fill:none; stroke:#ffaa00; stroke-width:0.4" /><polyline points="93.12169312169313,2.53968253968254 107.0899470899471,-13.333333333333334" style="fill:none; stroke:#aaff00; stroke-width:0.4" /><polyline points="198.30687830687833,93.33333333333334 213.54497354497357,78.73015873015873" style="fill:none; stroke:#ffaa00; stroke-width:0.4" /><polyline points="198.30687830687833,87.83068783068784 214.3915343915344,101.5873015873016" style="fill:none; stroke:#aaff00; stroke-width:0.4" /><polyline points="106.87830687830689,192.16931216931218 118.94179894179895,209.52380952380955" style="fill:none; stroke:#ffaa00; stroke-width:0.4" /><polyline points="111.53439153439155,192.8042328042328 102.22222222222223,211.85185185185188" style="fill:none; stroke:#aaff00; stroke-width:0.4" /><polyline points="5.9259259259259265,84.02116402116403 -11.216931216931219,96.50793650793652" style="fill:none; stroke:#ffaa00; stroke-width:0.4" /><polyline points="5.291005291005291,88.46560846560847 -8.88888888888889,72.80423280423281" style="fill:none; stroke:#aaff00; stroke-width:0.4" /><circle cx="103.06878306878308" cy="83.3862433862434" r="1.0" style="fill:#444444; stroke-width:0" /><circle cx="134.17989417989418" cy="84.02116402116403" r="10.582010582010582" style="fill:#ff770022; stroke-width:0" /><circle cx="134.17989417989418" cy="84.02116402116403" r="1.0" style="fill:#ff7700; stroke-width:0" /></svg>