<?xml version="1.0" encoding="UTF-8" standalone="no"?><svg width="565.7142857142858" height="669.2063492063493" viewBox="-10 -10 208.57142857142858 243.0687830687831" xmlns="http://www.w3.org/2000/svg" xmlns:xlink="http://www.w3.org/1999/xlink"><polyline points="-0.4232804232804233,63.280423280423285 2.53968253968254,61.798941798941804 3.174603174603175,61.58730158730159 3.8095238095238098,61.16402116402117 4.444444444444445,60.952380952380956 5.07936507936508,60.52910052910053 5.714285714285714,60.10582010582011 6.34920634920635,59.8941798941799 6.984126984126985,59.682539682539684 7.6190476190476195,59.470899470899475 8.042328042328043,59.04761904761905 8.677248677248677,59.04761904761905 9.312169312169313,58.62433862433863 9.947089947089948,58.41269841269842 10.370370370370372,57.989417989417994 11.005291005291006,57.777777777777786 11.640211640211641,57.56613756613757 12.275132275132275,57.142857142857146 12.910052910052912,56.93121693121694 13.544973544973546,56.71957671957672 14.17989417989418,56.2962962962963 14.814814814814817,56.08465608465609 15.449735449735451,55.661375661375665 16.084656084656086,55.449735449735456 16.71957671957672,55.23809523809524 17.354497354497354,55.02645502645503 17.98941798941799,54.60317460317461 18.624338624338627,54.39153439153439 19.25925925925926,53.968253968253975 19.894179894179896,53.75661375661376 20.529100529100532,53.333333333333336 21.164021164021165,53.12169312169313 21.7989417989418,52.91005291005291 22.433862433862437,52.6984126984127 23.06878306878307,52.27513227513228 23.703703703703706,52.06349206349207 24.338624338624342,51.851851851851855 24.973544973544975,51.42857142857143 25.60846560846561,51.21693121693122 26.243386243386244,50.7936507936508 26.87830687830688,50.58201058201058 27.513227513227516,50.370370370370374 28.14814814814815,49.94708994708995 28.783068783068785,49.73544973544974 29.41798941798942,49.31216931216932 30.052910052910054,48.88888888888889 30.68783068783069,48.46560846560847 31.322751322751326,48.042328042328045 31.746031746031747,47.61904761904762 32.16931216931217,47.195767195767196 32.592592592592595,46.77248677248678 32.804232804232804,46.13756613756614 33.22751322751323,45.714285714285715 33.43915343915344,45.07936507936508 33.65079365079365,44.44444444444445 33.86243386243387,43.80952380952381 33.86243386243387,43.17460317460318 34.074074074074076,42.539682539682545 34.074074074074076,41.904761904761905 33.86243386243387,41.26984126984127 33.86243386243387,40.63492063492064 33.65079365079365,40.0 33.43915343915344,39.36507936507937 33.22751322751323,38.730158730158735 33.01587301587302,38.095238095238095 32.592592592592595,37.67195767195768 32.16931216931217,37.03703703703704 31.746031746031747,36.402116402116405 31.322751322751326,35.76719576719577 30.899470899470902,35.34391534391535 30.476190476190478,34.70899470899471 30.052910052910054,34.28571428571429 29.629629629629633,33.86243386243387 29.20634920634921,33.43915343915344 28.783068783068785,33.01587301587302 28.35978835978836,32.592592592592595 27.724867724867728,32.16931216931217 27.301587301587304,31.53439153439154 26.87830687830688,31.111111111111114 26.455026455026456,30.68783068783069 26.031746031746035,30.052910052910054 25.60846560846561,29.629629629629633 25.185185185185187,29.20634920634921 24.761904761904763,28.571428571428573 24.338624338624342,27.93650793650794 24.12698412698413,27.301587301587304 23.703703703703706,26.666666666666668 23.280423280423282,26.031746031746035 23.06878306878307,25.3968253968254 23.06878306878307,24.761904761904763 22.857142857142858,24.12698412698413 22.645502645502646,23.492063492063494 22.433862433862437,22.857142857142858 22.222222222222225,22.222222222222225 22.010582010582013,21.58730158730159 22.010582010582013,20.952380952380953 21.7989417989418,20.31746031746032 21.7989417989418,19.682539682539684 21.58730158730159,19.047619047619047 21.58730158730159,18.412698412698415 21.58730158730159,17.77777777777778 21.7989417989418,17.142857142857146 21.7989417989418,16.50793650793651 22.010582010582013,15.873015873015873 22.010582010582013,15.238095238095239 22.222222222222225,14.603174603174605 22.433862433862437,13.96825396825397 22.645502645502646,13.333333333333334 22.857142857142858,12.6984126984127 23.280423280423282,12.063492063492065 23.492063492063494,11.428571428571429 23.915343915343918,10.793650793650794 24.338624338624342,10.15873015873016 24.761904761904763,9.523809523809524 25.185185185185187,8.88888888888889 25.60846560846561,8.253968253968255 26.031746031746035,7.830687830687832 26.455026455026456,7.195767195767196 26.87830687830688,6.772486772486773 27.301587301587304,6.34920634920635 27.724867724867728,5.9259259259259265 28.14814814814815,5.502645502645503 28.783068783068785,5.07936507936508 29.20634920634921,4.656084656084657 29.841269841269842,4.2328042328042335 30.476190476190478,3.8095238095238098 31.111111111111114,3.3862433862433865 31.746031746031747,2.9629629629629632 32.38095238095239,2.53968253968254 32.804232804232804,2.1164021164021167 33.43915343915344,1.6931216931216932 34.074074074074076,1.6931216931216932 34.4973544973545,1.26984126984127 35.13227513227513,1.0582010582010584 35.76719576719577,0.8465608465608466 36.402116402116405,0.634920634920635 37.03703703703704,0.634920634920635 37.67195767195768,0.634920634920635 38.30687830687831,0.4232804232804233 38.94179894179894,0.21164021164021166 39.57671957671958,0.21164021164021166 40.211640211640216,0.21164021164021166 40.84656084656085,0.21164021164021166 41.48148148148149,0.21164021164021166 42.11640211640212,0.21164021164021166 42.75132275132275,0.4232804232804233 43.386243386243386,0.4232804232804233 44.021164021164026,0.634920634920635 44.65608465608466,1.0582010582010584 45.29100529100529,1.0582010582010584 45.92592592592593,1.0582010582010584 46.560846560846564,1.4814814814814816 47.195767195767196,1.4814814814814816 47.830687830687836,1.6931216931216932 48.46560846560847,1.9047619047619049 49.1005291005291,2.1164021164021167 49.523809523809526,2.53968253968254 50.158730158730165,2.7513227513227516 50.7936507936508,3.174603174603175 51.42857142857143,3.597883597883598 52.06349206349207,4.021164021164021 52.48677248677249,4.444444444444445 53.12169312169313,4.867724867724868 53.54497354497355,5.291005291005291 53.968253968253975,5.714285714285714 54.60317460317461,6.137566137566138 55.02645502645503,6.772486772486773 55.449735449735456,7.407407407407408 55.87301587301588,8.042328042328043 56.2962962962963,8.677248677248677 56.50793650793651,9.312169312169313 56.71957671957672,9.947089947089948 56.93121693121694,10.582010582010582 57.142857142857146,11.216931216931219 57.35449735449736,11.851851851851853 57.56613756613757,12.486772486772487 57.777777777777786,13.121693121693122 57.989417989417994,13.756613756613758 58.2010582010582,14.391534391534393 58.2010582010582,15.026455026455027 58.41269841269842,15.661375661375663 58.62433862433863,16.296296296296298 58.62433862433863,16.931216931216934 58.83597883597884,17.566137566137566 58.83597883597884,18.201058201058203 58.83597883597884,18.83597883597884 59.04761904761905,19.47089947089947 59.04761904761905,20.105820105820108 59.04761904761905,20.740740740740744 59.25925925925927,21.375661375661377 59.25925925925927,22.010582010582013 59.25925925925927,22.645502645502646 59.470899470899475,23.280423280423282 59.470899470899475,23.915343915343918 59.682539682539684,24.55026455026455 59.8941798941799,25.185185185185187 60.10582010582011,25.820105820105823 60.31746031746032,26.455026455026456 60.74074074074075,27.089947089947092 61.16402116402117,27.724867724867728 61.58730158730159,28.35978835978836 62.01058201058201,28.994708994708997 62.64550264550265,29.41798941798942 63.06878306878308,29.841269841269842 63.70370370370371,30.052910052910054 64.33862433862434,30.476190476190478 64.97354497354497,30.68783068783069 65.60846560846561,30.68783068783069 66.24338624338625,30.68783068783069 66.87830687830689,30.899470899470902 67.51322751322752,30.899470899470902 67.93650793650794,30.476190476190478 68.57142857142858,30.476190476190478 69.20634920634922,30.264550264550266 69.84126984126985,30.264550264550266 70.47619047619048,30.052910052910054 71.11111111111111,29.841269841269842 71.74603174603175,29.629629629629633 72.16931216931218,29.20634920634921 72.80423280423281,28.994708994708997 73.43915343915344,28.571428571428573 74.07407407407408,28.35978835978836 74.70899470899471,27.93650793650794 75.34391534391536,27.513227513227516 75.97883597883599,27.301587301587304 76.4021164021164,26.87830687830688 77.03703703703704,26.666666666666668 77.46031746031747,26.243386243386244 78.0952380952381,26.031746031746035 78.51851851851852,25.60846560846561 79.15343915343917,25.185185185185187 79.57671957671958,24.761904761904763 80.21164021164022,24.55026455026455 80.84656084656085,24.338624338624342 81.26984126984128,23.915343915343918 81.90476190476191,23.703703703703706 82.32804232804233,23.280423280423282 82.96296296296298,23.06878306878307 83.3862433862434,22.645502645502646 84.02116402116403,22.433862433862437 84.65608465608466,22.010582010582013 85.29100529100529,21.7989417989418 85.92592592592594,21.375661375661377 86.56084656084657,20.952380952380953 87.1957671957672,20.740740740740744 87.83068783068784,20.529100529100532 88.25396825396827,20.105820105820108 88.8888888888889,19.682539682539684 89.52380952380953,19.47089947089947 90.15873015873017,19.047619047619047 90.7936507936508,18.83597883597884 91.42857142857143,18.412698412698415 92.06349206349208,18.201058201058203 92.69841269841271,17.98941798941799 93.12169312169313,17.566137566137566 93.75661375661376,17.142857142857146 94.39153439153439,16.931216931216934 95.02645502645504,16.71957671957672 95.66137566137567,16.296296296296298 96.2962962962963,16.084656084656086 96.93121693121694,15.873015873015873 97.56613756613757,15.449735449735451 98.2010582010582,15.238095238095239 98.83597883597885,14.814814814814817 99.47089947089948,14.814814814814817 99.8941798941799,14.391534391534393 100.52910052910053,14.17989417989418 101.16402116402116,13.756613756613758 101.79894179894181,13.544973544973546 102.43386243386244,13.333333333333334 102.85714285714286,12.910052910052912 103.4920634920635,12.6984126984127 104.12698412698414,12.486772486772487 104.76190476190477,12.275132275132275 105.18518518518519,11.851851851851853 105.82010582010582,11.640211640211641 106.45502645502647,11.428571428571429 107.0899470899471,11.216931216931219 107.72486772486774,11.005291005291006 108.35978835978837,10.793650793650794 108.994708994709,10.370370370370372 109.62962962962963,10.370370370370372 110.26455026455027,9.947089947089948 110.89947089947091,9.735449735449736 111.53439153439155,9.523809523809524 112.16931216931218,9.312169312169313 112.80423280423281,9.100529100529101 113.43915343915344,8.88888888888889 114.07407407407408,8.677248677248677 114.70899470899472,8.465608465608467 115.34391534391536,8.465608465608467 115.97883597883599,8.253968253968255 116.61375661375662,8.042328042328043 117.24867724867725,7.830687830687832 117.88359788359789,7.6190476190476195 118.51851851851853,7.407407407407408 119.15343915343917,7.407407407407408 119.7883597883598,7.195767195767196 120.42328042328043,6.984126984126985 121.05820105820106,6.772486772486773 121.6931216931217,6.772486772486773 122.32804232804234,6.560846560846561 122.96296296296298,6.34920634920635 123.59788359788361,6.137566137566138 124.23280423280424,6.137566137566138 124.86772486772487,5.9259259259259265 125.5026455026455,5.714285714285714 126.13756613756615,5.714285714285714 126.77248677248679,5.502645502645503 127.40740740740742,5.502645502645503 130.7936507936508,4.656084656084657" style="fill:none; stroke:#cc0000; stroke-width:1.0"  /><polyline points="130.7936507936508,4.656084656084657 131.85185185185185,8.042328042328043 132.06349206349208,8.677248677248677 132.27513227513228,9.312169312169313 132.4867724867725,9.947089947089948 132.6984126984127,10.582010582010582 132.9100529100529,11.216931216931219 133.12169312169314,11.851851851851853 133.33333333333334,12.486772486772487 133.54497354497354,13.121693121693122 133.75661375661377,13.756613756613758 133.96825396825398,14.391534391534393 133.96825396825398,15.026455026455027 134.17989417989418,15.661375661375663 134.3915343915344,16.296296296296298 134.6031746031746,16.931216931216934 134.81481481481484,17.566137566137566 135.02645502645504,18.201058201058203 135.23809523809524,18.83597883597884 135.23809523809524,19.47089947089947 135.44973544973547,20.105820105820108 135.66137566137567,20.740740740740744 135.87301587301587,21.375661375661377 135.87301587301587,22.010582010582013 136.0846560846561,22.645502645502646 136.0846560846561,23.280423280423282 136.2962962962963,23.915343915343918 136.5079365079365,24.55026455026455 136.5079365079365,25.185185185185187 136.71957671957674,25.820105820105823 136.71957671957674,26.455026455026456 136.93121693121694,27.089947089947092 137.14285714285717,27.724867724867728 137.14285714285717,28.35978835978836 137.14285714285717,28.994708994708997 137.35449735449737,29.629629629629633 137.35449735449737,30.264550264550266 137.56613756613757,30.899470899470902 137.7777777777778,31.53439153439154 137.7777777777778,32.16931216931217 137.989417989418,32.804232804232804 138.2010582010582,33.43915343915344 138.2010582010582,34.074074074074076 138.2010582010582,34.70899470899471 138.41269841269843,35.34391534391535 138.41269841269843,35.97883597883598 138.41269841269843,36.613756613756614 138.41269841269843,37.248677248677254 138.62433862433863,37.883597883597886 138.62433862433863,38.51851851851852 138.62433862433863,39.15343915343916 138.62433862433863,39.78835978835979 138.62433862433863,40.423280423280424 138.83597883597884,41.058201058201064 138.83597883597884,41.6931216931217 138.83597883597884,42.32804232804233 138.83597883597884,42.96296296296297 138.83597883597884,43.5978835978836 138.83597883597884,44.232804232804234 138.83597883597884,44.867724867724874 138.83597883597884,45.50264550264551 138.83597883597884,46.13756613756614 138.83597883597884,46.77248677248678 139.04761904761907,47.40740740740741 139.04761904761907,48.042328042328045 139.04761904761907,48.677248677248684 139.04761904761907,49.31216931216932 139.04761904761907,49.94708994708995 139.04761904761907,50.58201058201058 139.04761904761907,51.21693121693122 139.04761904761907,51.851851851851855 139.04761904761907,52.48677248677249 139.04761904761907,53.12169312169313 139.04761904761907,53.75661375661376 139.04761904761907,54.39153439153439 138.83597883597884,55.02645502645503 138.83597883597884,55.661375661375665 138.83597883597884,56.2962962962963 138.83597883597884,56.93121693121694 138.83597883597884,57.56613756613757 138.83597883597884,58.2010582010582 138.83597883597884,58.83597883597884 138.62433862433863,59.470899470899475 138.62433862433863,60.10582010582011 138.62433862433863,60.74074074074075 138.62433862433863,61.37566137566138 138.41269841269843,62.01058201058201 138.41269841269843,62.64550264550265 138.41269841269843,63.280423280423285 138.41269841269843,63.91534391534392 138.2010582010582,64.55026455026456 138.2010582010582,65.18518518518519 138.2010582010582,65.82010582010582 138.2010582010582,66.45502645502646 138.2010582010582,67.08994708994709 138.41269841269843,67.72486772486774 138.2010582010582,68.35978835978837 138.2010582010582,68.994708994709 138.2010582010582,69.62962962962963 138.2010582010582,70.26455026455027 138.2010582010582,70.8994708994709 137.989417989418,71.53439153439155 137.989417989418,72.16931216931218 137.989417989418,72.80423280423281 137.989417989418,73.43915343915344 137.989417989418,74.07407407407408 137.989417989418,74.70899470899471 137.989417989418,75.34391534391536 137.989417989418,75.97883597883599 137.989417989418,76.61375661375662 138.2010582010582,77.24867724867725 138.2010582010582,77.88359788359789 138.41269841269843,78.51851851851852 138.62433862433863,79.15343915343917 138.83597883597884,79.7883597883598 139.25925925925927,80.42328042328043 139.47089947089947,81.05820105820106 139.8941798941799,81.48148148148148 140.31746031746033,81.90476190476191 140.74074074074076,82.32804232804233 141.16402116402116,82.75132275132276 141.5873015873016,83.17460317460318 142.22222222222223,83.3862433862434 142.85714285714286,83.80952380952381 143.4920634920635,84.02116402116403 144.12698412698413,84.02116402116403 144.76190476190476,84.23280423280424 145.39682539682542,84.44444444444446 146.03174603174605,84.44444444444446 146.66666666666669,84.23280423280424 147.30158730158732,84.23280423280424 147.93650793650795,84.23280423280424 148.57142857142858,84.02116402116403 149.20634920634922,83.80952380952381 149.84126984126985,83.59788359788361 150.47619047619048,83.3862433862434 151.11111111111111,82.96296296296298 151.53439153439155,82.53968253968254 152.16931216931218,82.32804232804233 152.5925925925926,81.6931216931217 153.22751322751324,81.26984126984128 153.65079365079367,80.84656084656085 154.07407407407408,80.42328042328043 154.4973544973545,80.0 154.92063492063494,79.57671957671958 155.34391534391534,78.94179894179895 155.978835978836,78.51851851851852 156.4021164021164,78.0952380952381 156.82539682539684,77.67195767195767 157.24867724867727,77.24867724867725 157.67195767195767,76.82539682539684 158.0952380952381,76.4021164021164 158.73015873015873,75.97883597883599 159.15343915343917,75.55555555555556 159.5767195767196,75.13227513227514 160.0,74.70899470899471 160.63492063492066,74.28571428571429 161.05820105820106,73.86243386243387 161.6931216931217,73.43915343915344 162.32804232804233,73.01587301587303 162.75132275132276,72.5925925925926 163.3862433862434,72.16931216931218 164.02116402116403,71.95767195767196 164.44444444444446,71.53439153439155 165.0793650793651,71.32275132275133 165.71428571428572,71.11111111111111 166.34920634920636,70.6878306878307 166.984126984127,70.6878306878307 167.40740740740742,70.26455026455027 168.04232804232805,70.05291005291006 168.67724867724868,69.84126984126985 169.31216931216932,69.84126984126985 169.94708994708995,69.84126984126985 170.37037037037038,70.26455026455027 171.005291005291,70.26455026455027 171.64021164021165,70.26455026455027 172.27513227513228,70.47619047619048 172.9100529100529,70.26455026455027 173.54497354497354,70.6878306878307 174.1798941798942,71.11111111111111 174.81481481481484,71.53439153439155 175.44973544973547,71.95767195767196 176.0846560846561,72.38095238095238 176.50793650793653,72.80423280423281 177.14285714285717,73.22751322751323 177.56613756613757,73.65079365079366 177.989417989418,74.07407407407408 178.41269841269843,74.49735449735451 178.83597883597884,74.92063492063492 179.25925925925927,75.34391534391536 179.6825396825397,75.97883597883599 180.10582010582013,76.4021164021164 180.52910052910053,76.82539682539684 180.95238095238096,77.46031746031747 181.3756613756614,78.0952380952381 181.79894179894183,78.73015873015873 182.01058201058203,79.36507936507937 182.43386243386246,80.0 182.85714285714286,80.63492063492065 183.0687830687831,81.26984126984128 183.2804232804233,81.90476190476191 183.70370370370372,82.53968253968254 183.91534391534393,83.17460317460318 184.12698412698415,83.80952380952381 184.55026455026456,84.44444444444446 184.7619047619048,85.07936507936509 184.973544973545,85.71428571428572 185.1851851851852,86.34920634920636 185.39682539682542,86.98412698412699 185.39682539682542,87.61904761904762 185.60846560846562,88.25396825396827 185.82010582010582,88.8888888888889 186.03174603174605,89.52380952380953 186.24338624338625,90.15873015873017 186.24338624338625,90.7936507936508 186.45502645502646,91.42857142857143 186.66666666666669,92.06349206349208 186.66666666666669,92.69841269841271 186.8783068783069,93.33333333333334 187.08994708994712,93.96825396825398 187.08994708994712,94.60317460317461 187.30158730158732,95.23809523809524 187.30158730158732,95.87301587301587 187.51322751322752,96.50793650793652 187.51322751322752,97.14285714285715 187.51322751322752,97.77777777777779 187.51322751322752,98.41269841269842 187.72486772486775,99.04761904761905 187.72486772486775,99.68253968253968 187.72486772486775,100.31746031746033 187.72486772486775,100.95238095238096 187.72486772486775,101.5873015873016 188.14814814814815,102.22222222222223 188.14814814814815,102.85714285714286 188.14814814814815,103.4920634920635 188.14814814814815,104.12698412698414 188.14814814814815,104.76190476190477 187.93650793650795,105.3968253968254 187.93650793650795,106.03174603174604 187.72486772486775,106.66666666666667 187.51322751322752,107.3015873015873 187.30158730158732,107.93650793650795 186.8783068783069,108.57142857142858 186.45502645502646,109.20634920634922 186.03174603174605,109.62962962962963 185.60846560846562,110.05291005291006 185.1851851851852,110.47619047619048 184.7619047619048,110.89947089947091 184.33862433862436,111.32275132275133 183.70370370370372,111.74603174603176 183.0687830687831,112.16931216931218 182.43386243386246,112.5925925925926 181.79894179894183,112.80423280423281 181.16402116402116,113.22751322751324 180.52910052910053,113.22751322751324 179.8941798941799,113.43915343915344 179.25925925925927,113.65079365079366 178.62433862433863,113.86243386243387 177.989417989418,114.07407407407408 177.35449735449737,114.07407407407408 176.71957671957674,114.07407407407408 176.0846560846561,114.07407407407408 175.44973544973547,114.28571428571429 174.81481481481484,114.07407407407408 174.1798941798942,114.07407407407408 173.54497354497354,114.07407407407408 172.9100529100529,113.86243386243387 172.27513227513228,114.07407407407408 171.64021164021165,114.07407407407408 171.005291005291,113.86243386243387 170.37037037037038,113.86243386243387 169.73544973544975,113.65079365079366 169.10052910052912,113.65079365079366 168.46560846560848,113.43915343915344 167.83068783068785,113.22751322751324 167.19576719576722,113.22751322751324 166.56084656084658,113.01587301587303 165.92592592592595,112.80423280423281 165.2910052910053,112.5925925925926 164.65608465608466,112.3809523809524 164.02116402116403,112.16931216931218 163.3862433862434,112.16931216931218 162.75132275132276,111.95767195767196 162.11640211640213,111.74603174603176 161.4814814814815,111.53439153439155 160.84656084656086,111.53439153439155 160.21164021164023,111.53439153439155 159.5767195767196,111.53439153439155 158.94179894179896,111.53439153439155 158.30687830687833,111.53439153439155 157.67195767195767,111.53439153439155 157.03703703703704,111.53439153439155 156.4021164021164,111.74603174603176 155.76719576719577,111.74603174603176 155.13227513227514,111.95767195767196 154.4973544973545,112.16931216931218 153.86243386243387,112.3809523809524 153.22751322751324,112.5925925925926 152.5925925925926,112.80423280423281 151.95767195767198,113.01587301587303 151.32275132275134,113.43915343915344 150.6878306878307,113.86243386243387 150.05291005291005,114.07407407407408 149.62962962962965,114.49735449735451 148.99470899470901,114.92063492063492 148.35978835978838,115.34391534391536 147.93650793650795,115.76719576719577 147.51322751322752,116.1904761904762 147.0899470899471,116.61375661375662 146.66666666666669,117.03703703703705 146.24338624338625,117.67195767195768 146.03174603174605,118.30687830687832 145.82010582010582,118.94179894179895 145.60846560846562,119.57671957671958 145.39682539682542,120.21164021164022 145.39682539682542,120.84656084656086 145.39682539682542,121.4814814814815 145.60846560846562,122.11640211640213 145.60846560846562,122.75132275132276 145.82010582010582,123.3862433862434 146.03174603174605,124.02116402116403 146.24338624338625,124.65608465608466 146.45502645502646,125.2910052910053 146.66666666666669,125.92592592592594 147.0899470899471,126.34920634920636 147.51322751322752,126.98412698412699 147.93650793650795,127.61904761904763 148.35978835978838,128.04232804232805 148.78306878306879,128.67724867724868 149.20634920634922,129.10052910052912 149.62962962962965,129.52380952380955 150.26455026455028,129.94708994708995 150.8994708994709,130.37037037037038 151.32275132275134,130.7936507936508 151.95767195767198,131.21693121693121 152.5925925925926,131.64021164021165 153.01587301587304,132.06349206349208 153.65079365079367,132.4867724867725 154.2857142857143,132.9100529100529 154.7089947089947,133.33333333333334 155.34391534391534,133.75661375661377 155.76719576719577,134.17989417989418 156.4021164021164,134.6031746031746 156.82539682539684,135.02645502645504 157.46031746031747,135.44973544973547 157.8835978835979,135.87301587301587 158.51851851851853,136.2962962962963 158.94179894179896,136.71957671957674 159.5767195767196,137.14285714285717 160.21164021164023,137.56613756613757 160.63492063492066,137.989417989418 161.2698412698413,138.41269841269843 161.6931216931217,138.83597883597884 162.11640211640213,139.25925925925927 162.53968253968256,139.6825396825397 163.1746031746032,140.10582010582013 163.59788359788362,140.52910052910053 164.02116402116403,140.95238095238096 164.65608465608466,141.3756613756614 165.0793650793651,141.7989417989418 165.50264550264552,142.22222222222223 166.13756613756615,142.64550264550266 166.56084656084658,143.0687830687831 166.984126984127,143.4920634920635 167.40740740740742,143.91534391534393 168.04232804232805,144.33862433862436 168.46560846560848,144.76190476190476 168.8888888888889,145.1851851851852 169.31216931216932,145.60846560846562 169.73544973544975,146.03174603174605 170.15873015873018,146.45502645502646 170.58201058201058,146.8783068783069 171.005291005291,147.30158730158732 171.42857142857144,147.72486772486775 171.85185185185188,148.14814814814815 172.27513227513228,148.57142857142858 172.6984126984127,148.99470899470901 173.33333333333334,149.41798941798942 173.75661375661377,149.84126984126985 174.1798941798942,150.26455026455028 174.6031746031746,150.6878306878307 175.02645502645504,151.11111111111111 175.44973544973547,151.53439153439155 175.87301587301587,151.95767195767198 176.2962962962963,152.38095238095238 176.71957671957674,152.8042328042328 177.14285714285717,153.22751322751324 177.56613756613757,153.65079365079367 177.989417989418,154.07407407407408 178.41269841269843,154.4973544973545 178.83597883597884,154.92063492063494 179.25925925925927,155.34391534391534 179.6825396825397,155.76719576719577 180.10582010582013,156.1904761904762 182.64550264550266,158.73015873015873" style="fill:none; stroke:#999900; stroke-width:1.0"  /><polyline points="182.64550264550266,158.73015873015873 179.04761904761907,159.5767195767196 178.41269841269843,159.5767195767196 177.7777777777778,159.7883597883598 177.14285714285717,159.7883597883598 176.50793650793653,160.0 175.87301587301587,160.21164021164023 175.23809523809524,160.21164021164023 174.6031746031746,160.21164021164023 173.96825396825398,160.63492063492066 173.33333333333334,160.63492063492066 172.9100529100529,161.05820105820106 172.27513227513228,161.2698412698413 171.64021164021165,161.2698412698413 171.005291005291,161.4814814814815 170.37037037037038,161.6931216931217 169.73544973544975,161.90476190476193 169.10052910052912,161.90476190476193 168.46560846560848,162.11640211640213 167.83068783068785,162.11640211640213 167.19576719576722,162.32804232804233 166.56084656084658,162.53968253968256 165.92592592592595,162.75132275132276 165.2910052910053,162.75132275132276 164.65608465608466,162.96296296296296 164.02116402116403,163.1746031746032 163.3862433862434,163.3862433862434 162.75132275132276,163.59788359788362 162.11640211640213,163.80952380952382 161.4814814814815,163.80952380952382 160.84656084656086,164.02116402116403 160.21164021164023,164.23280423280426 159.5767195767196,164.23280423280426 158.94179894179896,164.44444444444446 158.30687830687833,164.44444444444446 157.67195767195767,164.65608465608466 157.03703703703704,164.8677248677249 156.4021164021164,165.0793650793651 155.76719576719577,165.2910052910053 155.13227513227514,165.50264550264552 154.4973544973545,165.71428571428572 153.86243386243387,165.71428571428572 153.22751322751324,165.92592592592595 152.5925925925926,166.13756613756615 151.95767195767198,166.34920634920636 151.32275132275134,166.56084656084658 150.6878306878307,166.7724867724868 150.05291005291005,166.7724867724868 149.41798941798942,166.984126984127 148.78306878306879,167.19576719576722 148.14814814814815,167.40740740740742 147.51322751322752,167.40740740740742 146.8783068783069,167.83068783068785 146.24338624338625,168.04232804232805 145.60846560846562,168.04232804232805 144.973544973545,168.25396825396825 144.33862433862436,168.46560846560848 143.70370370370372,168.67724867724868 143.0687830687831,168.8888888888889 142.43386243386246,169.31216931216932 141.7989417989418,169.52380952380955 141.16402116402116,169.94708994708995 140.52910052910053,170.15873015873018 139.8941798941799,170.58201058201058 139.47089947089947,171.005291005291 139.04761904761907,171.42857142857144 138.41269841269843,171.85185185185188 138.2010582010582,172.4867724867725 137.989417989418,173.12169312169314 137.56613756613757,173.54497354497354 137.35449735449737,174.1798941798942 137.14285714285717,174.81481481481484 136.93121693121694,175.44973544973547 136.93121693121694,176.0846560846561 136.93121693121694,176.71957671957674 136.93121693121694,177.35449735449737 137.14285714285717,177.989417989418 137.35449735449737,178.62433862433863 137.56613756613757,179.25925925925927 137.7777777777778,179.8941798941799 138.2010582010582,180.31746031746033 138.62433862433863,180.95238095238096 139.04761904761907,181.5873015873016 139.47089947089947,182.01058201058203 139.8941798941799,182.43386243386246 140.31746031746033,182.85714285714286 140.74074074074076,183.2804232804233 141.3756613756614,183.70370370370372 141.7989417989418,184.12698412698415 142.43386243386246,184.55026455026456 143.0687830687831,184.973544973545 143.70370370370372,185.1851851851852 144.12698412698413,185.60846560846562 144.76190476190476,185.82010582010582 145.39682539682542,186.24338624338625 146.03174603174605,186.45502645502646 146.45502645502646,186.8783068783069 147.0899470899471,187.08994708994712 147.72486772486775,187.51322751322752 148.35978835978838,187.72486772486775 148.78306878306879,188.14814814814815 149.41798941798942,188.35978835978838 150.05291005291005,188.78306878306879 150.6878306878307,189.20634920634922 151.32275132275134,189.62962962962965 151.74603174603175,190.05291005291008 152.38095238095238,190.47619047619048 153.01587301587304,190.8994708994709 153.43915343915344,191.32275132275134 153.86243386243387,191.74603174603175 154.2857142857143,192.16931216931218 154.7089947089947,192.5925925925926 155.13227513227514,193.22751322751324 155.55555555555557,193.65079365079367 155.978835978836,194.2857142857143 156.4021164021164,194.92063492063494 156.61375661375664,195.55555555555557 157.03703703703704,196.1904761904762 157.24867724867727,196.82539682539684 157.46031746031747,197.46031746031747 157.67195767195767,198.0952380952381 157.67195767195767,198.73015873015873 157.67195767195767,199.36507936507937 157.67195767195767,200.00000000000003 157.67195767195767,200.63492063492066 157.46031746031747,201.2698412698413 157.24867724867727,201.90476190476193 157.24867724867727,202.53968253968256 157.03703703703704,203.1746031746032 156.82539682539684,203.80952380952382 156.61375661375664,204.44444444444446 156.4021164021164,205.0793650793651 155.978835978836,205.71428571428572 155.76719576719577,206.34920634920636 155.55555555555557,206.984126984127 155.55555555555557,207.61904761904765 155.13227513227514,208.25396825396828 154.92063492063494,208.8888888888889 154.4973544973545,209.52380952380955 154.07407407407408,210.15873015873018 153.65079365079367,210.7936507936508 153.22751322751324,211.42857142857144 152.8042328042328,212.06349206349208 152.38095238095238,212.4867724867725 151.95767195767198,213.12169312169314 151.53439153439155,213.54497354497357 151.11111111111111,213.96825396825398 150.6878306878307,214.3915343915344 150.26455026455028,214.81481481481484 149.62962962962965,215.23809523809524 149.20634920634922,215.66137566137567 148.57142857142858,216.0846560846561 147.93650793650795,216.50793650793653 147.51322751322752,216.93121693121694 147.0899470899471,217.35449735449737 146.45502645502646,217.7777777777778 145.82010582010582,218.20105820105823 145.1851851851852,218.62433862433863 144.55026455026456,219.04761904761907 143.91534391534393,219.4708994708995 143.2804232804233,219.6825396825397 142.64550264550266,220.10582010582013 142.01058201058203,220.31746031746033 141.3756613756614,220.52910052910053 140.74074074074076,220.74074074074076 140.10582010582013,221.1640211640212 139.47089947089947,221.3756613756614 138.83597883597884,221.5873015873016 138.2010582010582,221.79894179894183 137.56613756613757,222.01058201058203 136.93121693121694,222.22222222222223 136.2962962962963,222.22222222222223 135.66137566137567,222.43386243386246 135.02645502645504,222.43386243386246 134.3915343915344,222.64550264550266 133.75661375661377,222.64550264550266 133.12169312169314,222.64550264550266 132.4867724867725,222.64550264550266 131.85185185185185,222.64550264550266 131.21693121693121,222.64550264550266 130.58201058201058,222.64550264550266 129.94708994708995,222.43386243386246 129.31216931216932,222.43386243386246 128.67724867724868,222.43386243386246 128.04232804232805,222.22222222222223 127.40740740740742,222.01058201058203 126.77248677248679,222.01058201058203 126.13756613756615,221.79894179894183 125.5026455026455,221.5873015873016 124.86772486772487,221.3756613756614 124.23280423280424,221.1640211640212 123.59788359788361,220.74074074074076 122.96296296296298,220.52910052910053 122.53968253968254,220.10582010582013 121.90476190476191,219.6825396825397 121.4814814814815,219.25925925925927 121.05820105820106,218.83597883597886 120.63492063492065,218.20105820105823 120.21164021164022,217.56613756613757 119.7883597883598,216.93121693121694 119.57671957671958,216.2962962962963 119.15343915343917,215.66137566137567 118.94179894179895,215.02645502645504 118.73015873015873,214.3915343915344 118.51851851851853,213.75661375661377 118.30687830687832,213.12169312169314 118.0952380952381,212.4867724867725 118.0952380952381,211.85185185185188 117.88359788359789,211.21693121693124 117.88359788359789,210.5820105820106 117.88359788359789,209.94708994708995 117.88359788359789,209.31216931216932 117.88359788359789,208.67724867724868 117.88359788359789,208.04232804232805 117.88359788359789,207.40740740740742 117.67195767195768,206.7724867724868 117.88359788359789,206.13756613756615 117.88359788359789,205.50264550264552 118.0952380952381,204.8677248677249 118.30687830687832,204.23280423280426 118.51851851851853,203.59788359788362 118.73015873015873,202.962962962963 118.94179894179895,202.32804232804233 119.15343915343917,201.6931216931217 119.36507936507937,201.05820105820106 119.57671957671958,200.42328042328043 119.7883597883598,199.7883597883598 120.00000000000001,199.15343915343917 120.21164021164022,198.51851851851853 120.42328042328043,197.8835978835979 120.63492063492065,197.24867724867727 120.84656084656086,196.61375661375664 121.05820105820106,195.978835978836 121.05820105820106,195.34391534391537 121.05820105820106,194.70899470899474 121.05820105820106,194.07407407407408 121.26984126984128,193.43915343915344 121.26984126984128,192.8042328042328 121.05820105820106,192.16931216931218 121.05820105820106,191.53439153439155 120.63492063492065,190.8994708994709 120.42328042328043,190.26455026455028 120.00000000000001,189.62962962962965 119.57671957671958,188.99470899470901 119.15343915343917,188.57142857142858 118.73015873015873,188.14814814814815 118.0952380952381,187.93650793650795 117.67195767195768,187.51322751322752 117.03703703703705,187.30158730158732 116.4021164021164,187.08994708994712 115.76719576719577,186.8783068783069 115.13227513227514,186.66666666666669 114.49735449735451,186.66666666666669 113.86243386243387,186.45502645502646 113.22751322751324,186.45502645502646 112.5925925925926,186.45502645502646 111.95767195767196,186.45502645502646 111.32275132275133,186.45502645502646 110.6878306878307,186.45502645502646 110.05291005291006,186.45502645502646 109.41798941798943,186.45502645502646 108.78306878306879,186.45502645502646 108.14814814814815,186.45502645502646 107.51322751322752,186.45502645502646 106.87830687830689,186.45502645502646 106.24338624338625,186.66666666666669 105.60846560846562,186.66666666666669 104.97354497354497,186.66666666666669 104.33862433862434,186.8783068783069 103.70370370370371,187.08994708994712 103.06878306878308,187.30158730158732 102.43386243386244,187.51322751322752 101.79894179894181,187.72486772486775 101.16402116402116,187.72486772486775 100.52910052910053,187.93650793650795 99.8941798941799,188.14814814814815 99.25925925925927,188.35978835978838 98.62433862433863,188.57142857142858 97.989417989418,188.78306878306879 97.35449735449737,188.99470899470901 96.71957671957672,189.20634920634922 96.08465608465609,189.62962962962965 95.44973544973546,189.84126984126985 94.81481481481482,190.26455026455028 94.17989417989419,190.47619047619048 93.54497354497356,190.8994708994709 92.91005291005291,191.11111111111111 92.27513227513228,191.53439153439155 91.64021164021165,191.95767195767198 91.00529100529101,192.3809523809524 90.37037037037038,192.8042328042328 89.73544973544975,193.22751322751324 89.1005291005291,193.65079365079367 88.46560846560847,194.07407407407408 87.83068783068784,194.4973544973545 87.1957671957672,194.92063492063494 86.56084656084657,195.34391534391537 86.13756613756614,195.76719576719577 85.5026455026455,196.1904761904762 84.86772486772487,196.4021164021164 84.44444444444446,196.82539682539684 83.80952380952381,197.24867724867727 83.17460317460318,197.6719576719577 82.53968253968254,198.0952380952381 82.11640211640213,198.51851851851853 81.48148148148148,198.94179894179896 80.84656084656085,199.36507936507937 80.21164021164022,199.7883597883598 79.57671957671958,200.21164021164023 78.94179894179895,200.63492063492066 78.30687830687832,201.05820105820106 77.67195767195767,201.4814814814815 77.03703703703704,201.90476190476193 76.4021164021164,202.32804232804233 75.76719576719577,202.75132275132276 75.13227513227514,203.1746031746032 74.49735449735451,203.59788359788362 73.86243386243387,204.02116402116403 73.22751322751323,204.44444444444446 72.5925925925926,204.8677248677249 71.95767195767196,205.29100529100532 71.32275132275133,205.71428571428572 70.6878306878307,205.92592592592595 70.05291005291006,206.34920634920636 69.41798941798942,206.7724867724868 68.78306878306879,207.19576719576722 68.35978835978837,207.61904761904765 67.93650793650794,208.04232804232805 67.51322751322752,208.46560846560848 66.87830687830689,208.8888888888889 66.24338624338625,209.31216931216932 65.60846560846561,209.73544973544975 65.18518518518519,210.15873015873018 64.55026455026456,210.5820105820106 63.91534391534392,211.005291005291 63.280423280423285,211.42857142857144 62.64550264550265,211.85185185185188 62.01058201058201,212.06349206349208 61.37566137566138,212.4867724867725 60.74074074074075,212.91005291005294 60.31746031746032,213.33333333333334 57.56613756613757,215.23809523809524" style="fill:none; stroke:#00aa99; stroke-width:1.0"  /><polyline points="57.56613756613757,215.23809523809524 55.02645502645503,212.27513227513228 54.60317460317461,211.85185185185188 54.179894179894184,211.21693121693124 53.75661375661376,210.7936507936508 53.333333333333336,210.15873015873018 52.91005291005291,209.73544973544975 52.48677248677249,209.10052910052912 52.06349206349207,208.67724867724868 51.640211640211646,208.25396825396828 51.21693121693122,207.61904761904765 50.58201058201058,207.19576719576722 50.158730158730165,206.56084656084658 49.73544973544974,205.92592592592595 49.31216931216932,205.50264550264552 48.88888888888889,205.0793650793651 48.46560846560847,204.65608465608466 48.042328042328045,204.02116402116403 47.61904761904762,203.3862433862434 47.195767195767196,202.962962962963 46.77248677248678,202.32804232804233 46.349206349206355,201.6931216931217 45.92592592592593,201.05820105820106 45.50264550264551,200.42328042328043 45.07936507936508,199.7883597883598 44.65608465608466,199.36507936507937 44.232804232804234,198.73015873015873 43.80952380952381,198.0952380952381 43.386243386243386,197.46031746031747 42.96296296296297,196.82539682539684 42.539682539682545,196.1904761904762 42.11640211640212,195.55555555555557 41.6931216931217,194.92063492063494 41.26984126984127,194.2857142857143 40.84656084656085,193.65079365079367 40.63492063492064,193.01587301587304 40.423280423280424,192.3809523809524 40.0,191.74603174603175 39.78835978835979,191.11111111111111 39.78835978835979,190.47619047619048 39.57671957671958,189.84126984126985 39.36507936507937,189.20634920634922 39.36507936507937,188.57142857142858 39.36507936507937,187.93650793650795 39.36507936507937,187.30158730158732 39.36507936507937,186.66666666666669 39.36507936507937,186.03174603174605 39.36507936507937,185.39682539682542 39.36507936507937,184.7619047619048 39.57671957671958,184.12698412698415 39.78835978835979,183.4920634920635 39.78835978835979,182.85714285714286 40.211640211640216,182.22222222222223 40.423280423280424,181.5873015873016 40.84656084656085,180.95238095238096 41.26984126984127,180.31746031746033 41.6931216931217,179.6825396825397 42.11640211640212,179.25925925925927 42.539682539682545,178.83597883597884 42.96296296296297,178.41269841269843 43.386243386243386,177.989417989418 44.021164021164026,177.56613756613757 44.65608465608466,177.35449735449737 45.29100529100529,177.14285714285717 45.92592592592593,176.71957671957674 46.560846560846564,176.71957671957674 47.195767195767196,176.50793650793653 47.830687830687836,176.50793650793653 48.46560846560847,176.2962962962963 49.1005291005291,176.2962962962963 49.73544973544974,176.2962962962963 50.370370370370374,176.2962962962963 51.00529100529101,176.2962962962963 51.640211640211646,176.2962962962963 52.27513227513228,176.2962962962963 52.91005291005291,176.2962962962963 53.54497354497355,176.50793650793653 54.179894179894184,176.71957671957674 54.81481481481482,176.71957671957674 55.449735449735456,176.93121693121694 56.08465608465609,177.14285714285717 56.71957671957672,177.14285714285717 57.142857142857146,177.56613756613757 57.777777777777786,177.7777777777778 58.41269841269842,177.989417989418 58.83597883597884,178.41269841269843 59.470899470899475,178.83597883597884 60.10582010582011,179.25925925925927 60.74074074074075,179.6825396825397 61.37566137566138,180.10582010582013 62.01058201058201,180.31746031746033 62.43386243386244,180.74074074074076 63.06878306878308,181.16402116402116 63.70370370370371,181.5873015873016 64.33862433862434,181.79894179894183 64.97354497354497,182.22222222222223 65.60846560846561,182.43386243386246 66.03174603174604,182.85714285714286 66.66666666666667,183.0687830687831 67.3015873015873,183.4920634920635 67.93650793650794,183.70370370370372 68.57142857142858,183.70370370370372 69.20634920634922,184.12698412698415 69.84126984126985,184.12698412698415 70.47619047619048,184.33862433862436 71.11111111111111,184.33862433862436 71.74603174603175,184.55026455026456 72.38095238095238,184.55026455026456 73.01587301587303,184.33862433862436 73.65079365079366,184.33862433862436 74.28571428571429,184.33862433862436 74.92063492063492,184.12698412698415 75.55555555555556,183.70370370370372 76.19047619047619,183.70370370370372 76.82539682539684,183.2804232804233 77.46031746031747,182.85714285714286 78.0952380952381,182.64550264550266 78.51851851851852,182.22222222222223 78.94179894179895,181.79894179894183 79.36507936507937,181.3756613756614 80.0,180.95238095238096 80.42328042328043,180.31746031746033 80.84656084656085,179.8941798941799 81.26984126984128,179.25925925925927 81.48148148148148,178.62433862433863 81.90476190476191,177.989417989418 82.32804232804233,177.35449735449737 82.32804232804233,176.71957671957674 82.75132275132276,176.2962962962963 82.75132275132276,175.66137566137567 82.96296296296298,175.02645502645504 83.17460317460318,174.3915343915344 83.3862433862434,173.75661375661377 83.59788359788361,173.12169312169314 83.80952380952381,172.4867724867725 83.59788359788361,171.85185185185188 83.80952380952381,171.21693121693124 83.80952380952381,170.58201058201058 84.02116402116403,169.94708994708995 84.02116402116403,169.31216931216932 84.23280423280424,168.67724867724868 84.23280423280424,168.04232804232805 84.23280423280424,167.40740740740742 84.23280423280424,166.7724867724868 84.23280423280424,166.13756613756615 84.23280423280424,165.50264550264552 84.23280423280424,164.8677248677249 84.23280423280424,164.23280423280426 84.23280423280424,163.59788359788362 84.02116402116403,162.96296296296296 84.02116402116403,162.32804232804233 83.80952380952381,161.6931216931217 83.80952380952381,161.05820105820106 83.59788359788361,160.42328042328043 83.59788359788361,159.7883597883598 83.59788359788361,159.15343915343917 83.3862433862434,158.51851851851853 83.17460317460318,157.8835978835979 82.96296296296298,157.24867724867727 82.96296296296298,156.61375661375664 82.75132275132276,155.978835978836 82.75132275132276,155.34391534391534 82.53968253968254,154.7089947089947 82.32804232804233,154.07407407407408 82.11640211640213,153.43915343915344 81.90476190476191,152.8042328042328 81.6931216931217,152.16931216931218 81.48148148148148,151.53439153439155 81.26984126984128,150.8994708994709 81.05820105820106,150.26455026455028 80.84656084656085,149.62962962962965 80.63492063492065,148.99470899470901 80.21164021164022,148.35978835978838 80.0,147.72486772486775 79.57671957671958,147.0899470899471 79.36507936507937,146.45502645502646 78.94179894179895,146.03174603174605 78.51851851851852,145.39682539682542 78.0952380952381,144.76190476190476 77.67195767195767,144.12698412698413 77.24867724867725,143.4920634920635 76.82539682539684,143.0687830687831 76.4021164021164,142.64550264550266 75.97883597883599,142.22222222222223 75.55555555555556,141.7989417989418 75.13227513227514,141.3756613756614 74.70899470899471,140.95238095238096 74.28571428571429,140.52910052910053 73.86243386243387,140.10582010582013 73.43915343915344,139.6825396825397 73.01587301587303,139.25925925925927 72.38095238095238,138.83597883597884 71.95767195767196,138.41269841269843 71.53439153439155,137.989417989418 70.8994708994709,137.7777777777778 70.26455026455027,137.35449735449737 69.62962962962963,136.93121693121694 68.994708994709,136.93121693121694 68.35978835978837,136.71957671957674 67.72486772486774,136.93121693121694 67.08994708994709,136.93121693121694 66.45502645502646,136.93121693121694 65.82010582010582,136.93121693121694 65.18518518518519,137.14285714285717 64.55026455026456,137.56613756613757 63.91534391534392,137.7777777777778 63.280423280423285,137.989417989418 62.85714285714286,138.41269841269843 62.22222222222223,138.83597883597884 61.58730158730159,139.25925925925927 61.16402116402117,139.6825396825397 60.74074074074075,140.10582010582013 60.31746031746032,140.52910052910053 59.8941798941799,140.95238095238096 59.470899470899475,141.3756613756614 59.04761904761905,141.7989417989418 58.62433862433863,142.22222222222223 58.2010582010582,142.64550264550266 57.777777777777786,143.0687830687831 57.35449735449736,143.4920634920635 56.93121693121694,143.91534391534393 56.50793650793651,144.55026455026456 56.08465608465609,144.973544973545 55.661375661375665,145.39682539682542 55.23809523809524,145.82010582010582 54.81481481481482,146.24338624338625 54.39153439153439,146.66666666666669 53.968253968253975,147.30158730158732 53.54497354497355,147.72486772486775 52.91005291005291,148.14814814814815 52.48677248677249,148.57142857142858 52.06349206349207,148.99470899470901 51.42857142857143,149.41798941798942 51.00529100529101,149.84126984126985 50.58201058201058,150.26455026455028 50.158730158730165,150.6878306878307 49.523809523809526,151.11111111111111 48.88888888888889,151.32275132275134 48.25396825396826,151.53439153439155 47.61904761904762,151.74603174603175 46.98412698412699,151.74603174603175 46.349206349206355,151.74603174603175 45.714285714285715,151.53439153439155 45.07936507936508,151.53439153439155 44.44444444444445,151.32275132275134 43.80952380952381,150.8994708994709 43.17460317460318,150.47619047619048 42.539682539682545,150.05291005291005 42.11640211640212,149.62962962962965 41.6931216931217,148.99470899470901 41.26984126984127,148.57142857142858 41.058201058201064,147.93650793650795 40.63492063492064,147.30158730158732 40.423280423280424,146.66666666666669 40.211640211640216,146.03174603174605 40.0,145.39682539682542 39.78835978835979,144.76190476190476 39.57671957671958,144.12698412698413 39.36507936507937,143.4920634920635 39.15343915343916,142.85714285714286 38.94179894179894,142.22222222222223 38.730158730158735,141.5873015873016 38.51851851851852,140.95238095238096 38.30687830687831,140.31746031746033 38.095238095238095,139.6825396825397 38.095238095238095,139.04761904761907 37.67195767195768,138.62433862433863 37.46031746031746,137.989417989418 37.248677248677254,137.35449735449737 37.03703703703704,136.71957671957674 36.613756613756614,136.0846560846561 36.402116402116405,135.44973544973547 36.19047619047619,134.81481481481484 35.97883597883598,134.17989417989418 35.76719576719577,133.54497354497354 35.55555555555556,132.9100529100529 35.13227513227513,132.27513227513228 34.920634920634924,131.64021164021165 34.70899470899471,131.005291005291 34.4973544973545,130.37037037037038 34.074074074074076,129.73544973544975 33.86243386243387,129.10052910052912 33.65079365079365,128.46560846560848 33.22751322751323,127.83068783068784 33.01587301587302,127.1957671957672 32.592592592592595,126.56084656084657 32.38095238095239,125.92592592592594 31.95767195767196,125.2910052910053 31.746031746031747,124.65608465608466 31.53439153439154,124.02116402116403 31.111111111111114,123.3862433862434 30.899470899470902,122.75132275132276 30.476190476190478,122.11640211640213 30.264550264550266,121.4814814814815 29.841269841269842,120.84656084656086 29.629629629629633,120.21164021164022 29.20634920634921,119.57671957671958 28.994708994708997,118.94179894179895 28.571428571428573,118.30687830687832 28.35978835978836,117.67195767195768 27.93650793650794,117.03703703703705 27.513227513227516,116.4021164021164 27.301587301587304,115.76719576719577 26.87830687830688,115.34391534391536 26.666666666666668,114.70899470899472 26.243386243386244,114.28571428571429 26.031746031746035,113.65079365079366 25.60846560846561,113.01587301587303 25.185185185185187,112.3809523809524 24.973544973544975,111.74603174603176 24.55026455026455,111.11111111111111 24.12698412698413,110.47619047619048 23.703703703703706,109.84126984126985 23.280423280423282,109.20634920634922 22.857142857142858,108.57142857142858 22.433862433862437,107.93650793650795 22.222222222222225,107.3015873015873 21.7989417989418,106.87830687830689 21.58730158730159,106.24338624338625 21.164021164021165,105.60846560846562 20.740740740740744,104.97354497354497 20.31746031746032,104.33862433862434 19.894179894179896,103.70370370370371 19.47089947089947,103.06878306878308 19.047619047619047,102.64550264550266 18.624338624338627,102.22222222222223 18.201058201058203,101.5873015873016 17.77777777777778,100.95238095238096 17.354497354497354,100.31746031746033 16.931216931216934,99.68253968253968 16.50793650793651,99.04761904761905 16.084656084656086,98.41269841269842 15.873015873015873,97.77777777777779 15.449735449735451,97.35449735449737 15.238095238095239,96.71957671957672 14.814814814814817,96.2962962962963 14.391534391534393,95.87301587301587 14.17989417989418,95.23809523809524 13.756613756613758,94.60317460317461 13.333333333333334,93.96825396825398 13.121693121693122,93.33333333333334 12.6984126984127,92.69841269841271 12.275132275132275,92.06349206349208 11.851851851851853,91.42857142857143 11.640211640211641,90.7936507936508 11.428571428571429,90.15873015873017 11.005291005291006,89.52380952380953 10.582010582010582,89.1005291005291 10.370370370370372,88.46560846560847 9.947089947089948,87.83068783068784 9.523809523809524,87.1957671957672 9.312169312169313,86.56084656084657 8.88888888888889,86.13756613756614 8.677248677248677,85.5026455026455 8.465608465608467,84.86772486772487 8.042328042328043,84.44444444444446 7.830687830687832,83.80952380952381 7.407407407407408,83.3862433862434 7.195767195767196,82.75132275132276 6.984126984126985,82.11640211640213 6.772486772486773,81.48148148148148 6.34920634920635,81.05820105820106 6.34920634920635,80.42328042328043 5.9259259259259265,80.0 5.714285714285714,79.36507936507937 5.502645502645503,78.73015873015873 5.07936507936508,78.0952380952381 4.867724867724868,77.46031746031747 4.656084656084657,76.82539682539684 4.444444444444445,76.19047619047619 4.2328042328042335,75.55555555555556 4.021164021164021,74.92063492063492 3.8095238095238098,74.28571428571429 3.597883597883598,73.65079365079366 3.174603174603175,73.01587301587303 2.9629629629629632,72.38095238095238 2.7513227513227516,71.74603174603175 2.53968253968254,71.11111111111111 2.3280423280423284,70.47619047619048 2.3280423280423284,69.84126984126985 1.9047619047619049,69.20634920634922 1.6931216931216932,68.57142857142858 1.4814814814814816,67.93650793650794 1.0582010582010584,67.3015873015873 -0.4232804232804233,63.280423280423285" style="fill:none; stroke:#3300bb; stroke-width:1.0"  /><circle cx="-0.4232804232804233" cy="63.280423280423285" r="2.0" style="fill:none; stroke:#000000aa; stroke-width:0.25" /><circle cx="130.7936507936508" cy="4.656084656084657" r="2.0" style="fill:none; stroke:#000000aa; stroke-width:0.25" /><circle cx="182.64550264550266" cy="158.73015873015873" r="2.0" style="fill:none; stroke:#000000aa; stroke-width:0.25" /><circle cx="57.56613756613757" cy="215.23809523809524" r="2.0" style="fill:none; stroke:#000000aa; stroke-width:0.25" /><circle cx="0.21164021164021166" cy="64.12698412698413" r="2.0" style="fill:none; stroke:#ff3366aa; stroke-width:0.25" /><circle cx="130.58201058201058" cy="5.07936507936508" r="2.0" style="fill:none; stroke:#ff3366aa; stroke-width:0.25" /><circle cx="182.01058201058203" cy="158.51851851851853" r="2.0" style="fill:none; stroke:#ff3366aa; stroke-width:0.25" /><circle cx="57.142857142857146" cy="214.6031746031746" r="2.0" style="fill:none; stroke:#ff3366aa; stroke-width:0.25" /><polyline points="10.370370370370372,57.989417989417994 9.947089947089948,58.41269841269842 9.312169312169313,58.62433862433863 8.677248677248677,59.04761904761905 8.042328042328043,59.04761904761905 7.6190476190476195,59.470899470899475 6.984126984126985,59.682539682539684 6.34920634920635,59.8941798941799 5.714285714285714,60.10582010582011 5.07936507936508,60.52910052910053 4.444444444444445,60.952380952380956 3.8095238095238098,61.16402116402117 3.174603174603175,61.58730158730159 2.53968253968254,61.798941798941804" style="fill:none; stroke:#001100; stroke-width:1.0" /><polyline points="4.021164021164021,74.92063492063492 3.8095238095238098,74.28571428571429 3.597883597883598,73.65079365079366 3.174603174603175,73.01587301587303 2.9629629629629632,72.38095238095238 2.7513227513227516,71.74603174603175 2.53968253968254,71.11111111111111 2.3280423280423284,70.47619047619048 2.3280423280423284,69.84126984126985 1.9047619047619049,69.20634920634922 1.6931216931216932,68.57142857142858 1.4814814814814816,67.93650793650794 1.0582010582010584,67.3015873015873" style="fill:none; stroke:#000011; stroke-width:1.0" /><polyline points="134.3915343915344,16.296296296296298 134.17989417989418,15.661375661375663 133.96825396825398,15.026455026455027 133.96825396825398,14.391534391534393 133.75661375661377,13.756613756613758 133.54497354497354,13.121693121693122 133.33333333333334,12.486772486772487 133.12169312169314,11.851851851851853 132.9100529100529,11.216931216931219 132.6984126984127,10.582010582010582 132.4867724867725,9.947089947089948 132.27513227513228,9.312169312169313 132.06349206349208,8.677248677248677 131.85185185185185,8.042328042328043" style="fill:none; stroke:#001100; stroke-width:1.0" /><polyline points="119.15343915343917,7.407407407407408 119.7883597883598,7.195767195767196 120.42328042328043,6.984126984126985 121.05820105820106,6.772486772486773 121.6931216931217,6.772486772486773 122.32804232804234,6.560846560846561 122.96296296296298,6.34920634920635 123.59788359788361,6.137566137566138 124.23280423280424,6.137566137566138 124.86772486772487,5.9259259259259265 125.5026455026455,5.714285714285714 126.13756613756615,5.714285714285714 126.77248677248679,5.502645502645503 127.40740740740742,5.502645502645503" style="fill:none; stroke:#000011; stroke-width:1.0" /><polyline points="171.005291005291,161.4814814814815 171.64021164021165,161.2698412698413 172.27513227513228,161.2698412698413 172.9100529100529,161.05820105820106 173.33333333333334,160.63492063492066 173.96825396825398,160.63492063492066 174.6031746031746,160.21164021164023 175.23809523809524,160.21164021164023 175.87301587301587,160.21164021164023 176.50793650793653,160.0 177.14285714285717,159.7883597883598 177.7777777777778,159.7883597883598 178.41269841269843,159.5767195767196 179.04761904761907,159.5767195767196" style="fill:none; stroke:#001100; stroke-width:1.0" /><polyline points="173.75661375661377,149.84126984126985 174.1798941798942,150.26455026455028 174.6031746031746,150.6878306878307 175.02645502645504,151.11111111111111 175.44973544973547,151.53439153439155 175.87301587301587,151.95767195767198 176.2962962962963,152.38095238095238 176.71957671957674,152.8042328042328 177.14285714285717,153.22751322751324 177.56613756613757,153.65079365079367 177.989417989418,154.07407407407408 178.41269841269843,154.4973544973545 178.83597883597884,154.92063492063494 179.25925925925927,155.34391534391534 179.6825396825397,155.76719576719577 180.10582010582013,156.1904761904762" style="fill:none; stroke:#000011; stroke-width:1.0" /><polyline points="49.31216931216932,205.50264550264552 49.73544973544974,205.92592592592595 50.158730158730165,206.56084656084658 50.58201058201058,207.19576719576722 51.21693121693122,207.61904761904765 51.640211640211646,208.25396825396828 52.06349206349207,208.67724867724868 52.48677248677249,209.10052910052912 52.91005291005291,209.73544973544975 53.333333333333336,210.15873015873018 53.75661375661376,210.7936507936508 54.179894179894184,211.21693121693124 54.60317460317461,211.85185185185188 55.02645502645503,212.27513227513228" style="fill:none; stroke:#001100; stroke-width:1.0" /><polyline points="67.51322751322752,208.46560846560848 66.87830687830689,208.8888888888889 66.24338624338625,209.31216931216932 65.60846560846561,209.73544973544975 65.18518518518519,210.15873015873018 64.55026455026456,210.5820105820106 63.91534391534392,211.005291005291 63.280423280423285,211.42857142857144 62.64550264550265,211.85185185185188 62.01058201058201,212.06349206349208 61.37566137566138,212.4867724867725 60.74074074074075,212.91005291005294 60.31746031746032,213.33333333333334" style="fill:none; stroke:#000011; stroke-width:1.0" /><polyline points="2.53968253968254,61.798941798941804 -16.50793650793651,71.11111111111111" style="fill:none; stroke:#ffaa00; stroke-width:0.4" /><polyline points="1.0582010582010584,67.3015873015873 -6.560846560846561,47.61904761904762" style="fill:none; stroke:#aaff00; stroke-width:0.4" /><polyline points="131.85185185185185,8.042328042328043 125.71428571428572,-12.275132275132275" style="fill:none; stroke:#ffaa00; stroke-width:0.4" /><polyline points="127.40740740740742,5.502645502645503 147.93650793650795,0.8465608465608466" style="fill:none; stroke:#aaff00; stroke-width:0.4" /><polyline points="179.04761904761907,159.5767195767196 199.5767195767196,154.7089947089947" style="fill:none; stroke:#ffaa00; stroke-width:0.4" /><polyline points="180.10582010582013,156.1904761904762 195.13227513227514,171.21693121693124" style="fill:none; stroke:#aaff00; stroke-width:0.4" /><polyline points="55.02645502645503,212.27513227513228 68.57142857142858,228.35978835978838" style="fill:none; stroke:#ffaa00; stroke-width:0.4" /><polyline points="60.31746031746032,213.33333333333334 42.75132275132275,225.1851851851852" style="fill:none; stroke:#aaff00; stroke-width:0.4" /><circle cx="94.39153439153439" cy="104.12698412698414" r="1.0" style="fill:#444444; stroke-width:0" /><circle cx="82.96296296296298" cy="84.02116402116403" r="10.582010582010582" style="fill:#ff770022; stroke-width:0" /><circle cx="82.96296296296298" cy="84.02116402116403" r="1.0" style="fill:#ff7700; stroke-width:0" /></svg>