<?xml version="1.0" encoding="UTF-8" standalone="no"?><svg width="492.0634920634921" height="586.031746031746" viewBox="-10 -10 184.02116402116403 215.34391534391537" xmlns="http://www.w3.org/2000/svg" xmlns:xlink="http://www.w3.org/1999/xlink"><polyline points="5.07936507936508,59.04761904761905 7.407407407407408,57.989417989417994 8.042328042328043,57.56613756613757 8.677248677248677,57.35449735449736 9.312169312169313,57.142857142857146 9.947089947089948,56.71957671957672 10.582010582010582,56.50793650793651 11.216931216931219,56.08465608465609 11.851851851851853,55.87301587301588 12.486772486772487,55.661375661375665 12.910052910052912,55.23809523809524 13.544973544973546,54.81481481481482 14.17989417989418,54.81481481481482 14.603174603174605,54.39153439153439 15.238095238095239,54.179894179894184 15.873015873015873,53.75661375661376 16.50793650793651,53.54497354497355 17.142857142857146,53.333333333333336 17.77777777777778,53.12169312169313 18.412698412698415,52.91005291005291 19.047619047619047,52.48677248677249 19.682539682539684,52.06349206349207 20.31746031746032,51.851851851851855 20.952380952380953,51.640211640211646 21.58730158730159,51.42857142857143 22.222222222222225,51.21693121693122 22.857142857142858,51.00529100529101 23.492063492063494,50.58201058201058 24.12698412698413,50.370370370370374 24.761904761904763,49.94708994708995 25.3968253968254,49.73544973544974 26.031746031746035,49.523809523809526 26.666666666666668,49.31216931216932 27.301587301587304,49.1005291005291 27.93650793650794,48.88888888888889 28.571428571428573,48.677248677248684 29.20634920634921,48.46560846560847 29.841269841269842,48.042328042328045 30.476190476190478,47.830687830687836 31.111111111111114,47.61904761904762 31.746031746031747,47.40740740740741 32.38095238095239,47.195767195767196 33.01587301587302,46.98412698412699 33.65079365079365,46.98412698412699 34.28571428571429,46.560846560846564 34.920634920634924,46.560846560846564 35.55555555555556,46.349206349206355 36.19047619047619,46.13756613756614 36.82539682539683,45.92592592592593 37.46031746031746,45.714285714285715 38.095238095238095,45.50264550264551 38.730158730158735,45.50264550264551 39.36507936507937,45.29100529100529 40.0,45.07936507936508 40.63492063492064,45.07936507936508 41.26984126984127,44.867724867724874 41.904761904761905,44.65608465608466 42.539682539682545,44.44444444444445 43.17460317460318,44.232804232804234 43.80952380952381,44.021164021164026 44.44444444444445,43.80952380952381 45.07936507936508,43.5978835978836 45.714285714285715,43.386243386243386 46.349206349206355,42.96296296296297 46.98412698412699,42.539682539682545 47.40740740740741,42.11640211640212 47.830687830687836,41.6931216931217 48.25396825396826,41.26984126984127 48.677248677248684,40.84656084656085 49.1005291005291,40.423280423280424 49.523809523809526,39.78835978835979 49.73544973544974,39.15343915343916 49.73544973544974,38.51851851851852 49.94708994708995,37.883597883597886 49.94708994708995,37.248677248677254 49.94708994708995,36.613756613756614 49.94708994708995,35.97883597883598 49.73544973544974,35.34391534391535 49.523809523809526,34.70899470899471 49.31216931216932,34.074074074074076 48.88888888888889,33.43915343915344 48.677248677248684,32.804232804232804 48.25396825396826,32.16931216931217 47.830687830687836,31.53439153439154 47.40740740740741,31.111111111111114 46.98412698412699,30.68783068783069 46.560846560846564,30.264550264550266 46.13756613756614,29.841269841269842 45.714285714285715,29.41798941798942 45.29100529100529,28.994708994708997 44.867724867724874,28.571428571428573 44.232804232804234,28.35978835978836 43.80952380952381,27.93650793650794 43.386243386243386,27.513227513227516 42.75132275132275,27.089947089947092 42.32804232804233,26.666666666666668 41.904761904761905,26.243386243386244 41.48148148148149,25.820105820105823 41.058201058201064,25.185185185185187 40.63492063492064,24.761904761904763 40.211640211640216,24.12698412698413 39.78835978835979,23.492063492063494 39.57671957671958,22.857142857142858 39.36507936507937,22.222222222222225 38.94179894179894,21.58730158730159 38.730158730158735,20.952380952380953 38.51851851851852,20.31746031746032 38.30687830687831,19.682539682539684 38.095238095238095,19.047619047619047 38.095238095238095,18.412698412698415 37.883597883597886,17.77777777777778 37.883597883597886,17.142857142857146 37.883597883597886,16.50793650793651 37.67195767195768,15.873015873015873 37.67195767195768,15.238095238095239 37.67195767195768,14.603174603174605 37.67195767195768,13.96825396825397 37.67195767195768,13.333333333333334 37.67195767195768,12.6984126984127 37.883597883597886,12.063492063492065 37.883597883597886,11.428571428571429 38.095238095238095,10.793650793650794 38.30687830687831,10.15873015873016 38.51851851851852,9.523809523809524 38.94179894179894,8.88888888888889 39.36507936507937,8.253968253968255 39.78835978835979,7.6190476190476195 40.211640211640216,6.984126984126985 40.63492063492064,6.560846560846561 41.26984126984127,6.137566137566138 41.904761904761905,5.714285714285714 42.32804232804233,5.291005291005291 42.96296296296297,4.867724867724868 43.5978835978836,4.444444444444445 44.232804232804234,4.2328042328042335 44.867724867724874,4.021164021164021 45.29100529100529,3.597883597883598 45.92592592592593,3.3862433862433865 46.560846560846564,3.174603174603175 47.195767195767196,2.9629629629629632 47.61904761904762,2.53968253968254 48.25396825396826,2.3280423280423284 48.88888888888889,2.1164021164021167 49.523809523809526,1.9047619047619049 50.158730158730165,1.6931216931216932 50.7936507936508,1.6931216931216932 51.42857142857143,1.4814814814814816 52.06349206349207,1.26984126984127 52.6984126984127,1.26984126984127 53.333333333333336,1.26984126984127 53.968253968253975,0.8465608465608466 54.60317460317461,0.8465608465608466 55.23809523809524,0.8465608465608466 55.87301587301588,0.634920634920635 56.50793650793651,0.634920634920635 57.142857142857146,0.634920634920635 57.777777777777786,0.4232804232804233 58.41269841269842,0.4232804232804233 59.04761904761905,0.4232804232804233 59.682539682539684,0.21164021164021166 60.31746031746032,0.4232804232804233 60.952380952380956,0.4232804232804233 61.58730158730159,0.4232804232804233 62.22222222222223,0.4232804232804233 62.85714285714286,0.8465608465608466 63.492063492063494,0.8465608465608466 64.12698412698413,1.0582010582010584 64.76190476190477,1.26984126984127 65.3968253968254,1.4814814814814816 66.03174603174604,1.6931216931216932 66.66666666666667,1.9047619047619049 67.3015873015873,2.3280423280423284 67.93650793650794,2.53968253968254 68.57142857142858,2.7513227513227516 69.20634920634922,3.174603174603175 69.84126984126985,3.597883597883598 70.47619047619048,3.8095238095238098 70.8994708994709,4.2328042328042335 71.53439153439155,4.656084656084657 71.95767195767196,5.07936507936508 72.38095238095238,5.502645502645503 72.80423280423281,5.9259259259259265 73.01587301587303,6.560846560846561 73.22751322751323,7.195767195767196 73.43915343915344,7.830687830687832 73.65079365079366,8.465608465608467 73.65079365079366,9.100529100529101 73.65079365079366,9.735449735449736 73.65079365079366,10.370370370370372 73.65079365079366,11.005291005291006 73.65079365079366,11.640211640211641 73.65079365079366,12.275132275132275 73.43915343915344,12.910052910052912 73.43915343915344,13.544973544973546 73.43915343915344,14.17989417989418 73.43915343915344,14.814814814814817 73.22751322751323,15.449735449735451 73.22751322751323,16.084656084656086 73.01587301587303,16.71957671957672 73.01587301587303,17.354497354497354 72.80423280423281,17.98941798941799 72.5925925925926,18.624338624338627 72.38095238095238,19.25925925925926 72.16931216931218,19.894179894179896 71.95767195767196,20.529100529100532 71.53439153439155,21.164021164021165 71.32275132275133,21.7989417989418 71.11111111111111,22.433862433862437 70.6878306878307,23.06878306878307 70.47619047619048,23.703703703703706 70.26455026455027,24.338624338624342 70.05291005291006,24.973544973544975 69.84126984126985,25.60846560846561 69.62962962962963,26.243386243386244 69.62962962962963,26.87830687830688 69.41798941798942,27.513227513227516 69.41798941798942,28.14814814814815 69.41798941798942,28.783068783068785 69.41798941798942,29.41798941798942 69.41798941798942,30.052910052910054 69.62962962962963,30.68783068783069 69.84126984126985,31.322751322751326 70.05291005291006,31.95767195767196 70.26455026455027,32.592592592592595 70.6878306878307,33.22751322751323 71.11111111111111,33.86243386243387 71.53439153439155,34.28571428571429 71.95767195767196,34.70899470899471 72.5925925925926,35.13227513227513 73.01587301587303,35.55555555555556 73.65079365079366,35.76719576719577 74.07407407407408,36.19047619047619 74.70899470899471,36.613756613756614 75.34391534391536,36.82539682539683 75.97883597883599,37.03703703703704 76.61375661375662,37.248677248677254 77.24867724867725,37.46031746031746 77.88359788359789,37.67195767195768 78.51851851851852,37.67195767195768 79.15343915343917,37.67195767195768 79.7883597883598,37.67195767195768 80.42328042328043,37.67195767195768 81.05820105820106,37.67195767195768 81.6931216931217,37.46031746031746 82.32804232804233,37.46031746031746 82.75132275132276,37.03703703703704 83.3862433862434,37.03703703703704 84.02116402116403,36.82539682539683 84.65608465608466,36.82539682539683 85.29100529100529,36.402116402116405 85.92592592592594,36.402116402116405 86.56084656084657,36.19047619047619 87.1957671957672,35.97883597883598 87.83068783068784,35.76719576719577 88.46560846560847,35.76719576719577 89.1005291005291,35.34391534391535 89.73544973544975,35.34391534391535 90.37037037037038,35.13227513227513 91.00529100529101,34.920634920634924 91.64021164021165,34.70899470899471 92.27513227513228,34.4973544973545 92.91005291005291,34.28571428571429 93.54497354497356,34.074074074074076 94.17989417989419,34.074074074074076 94.81481481481482,33.86243386243387 95.44973544973546,33.65079365079365 96.08465608465609,33.43915343915344 96.71957671957672,33.43915343915344 97.35449735449737,33.01587301587302 97.989417989418,33.01587301587302 98.62433862433863,32.804232804232804 99.25925925925927,32.592592592592595 99.8941798941799,32.38095238095239 100.52910052910053,32.16931216931217 101.16402116402116,31.95767195767196 101.79894179894181,31.746031746031747 102.43386243386244,31.53439153439154 103.06878306878308,31.53439153439154 103.70370370370371,31.322751322751326 104.12698412698414,30.899470899470902 104.76190476190477,30.899470899470902 105.3968253968254,30.68783068783069 106.03174603174604,30.476190476190478 106.66666666666667,30.264550264550266 107.3015873015873,30.264550264550266 107.93650793650795,30.052910052910054 108.57142857142858,29.629629629629633 109.20634920634922,29.41798941798942 109.84126984126985,29.20634920634921 110.47619047619048,28.994708994708997 111.11111111111111,28.783068783068785 111.74603174603176,28.571428571428573 112.3809523809524,28.35978835978836 113.01587301587303,28.35978835978836 113.65079365079366,27.93650793650794 114.28571428571429,27.93650793650794 114.92063492063492,27.724867724867728 115.55555555555557,27.513227513227516 116.1904761904762,27.301587301587304 116.82539682539684,27.089947089947092 117.46031746031747,26.87830687830688 117.88359788359789,26.455026455026456 121.6931216931217,25.185185185185187" style="fill:none; stroke:#cc0000; stroke-width:1.0"  /><polyline points="121.6931216931217,25.185185185185187 123.3862433862434,27.724867724867728 123.80952380952382,28.35978835978836 124.23280423280424,28.783068783068785 124.65608465608466,29.41798941798942 125.07936507936509,29.841269841269842 125.5026455026455,30.476190476190478 125.92592592592594,31.111111111111114 126.34920634920636,31.746031746031747 126.77248677248679,32.38095238095239 127.1957671957672,33.01587301587302 127.61904761904763,33.65079365079365 128.04232804232805,34.28571428571429 128.46560846560848,34.920634920634924 128.88888888888889,35.55555555555556 129.31216931216932,36.19047619047619 129.73544973544975,36.82539682539683 129.94708994708995,37.46031746031746 130.37037037037038,37.883597883597886 130.58201058201058,38.51851851851852 131.005291005291,38.94179894179894 131.21693121693121,39.57671957671958 131.64021164021165,40.0 131.85185185185185,40.63492063492064 132.27513227513228,41.26984126984127 132.4867724867725,41.904761904761905 132.9100529100529,42.539682539682545 133.12169312169314,43.17460317460318 133.54497354497354,43.80952380952381 133.75661375661377,44.44444444444445 133.96825396825398,45.07936507936508 134.3915343915344,45.714285714285715 134.6031746031746,46.349206349206355 134.81481481481484,46.98412698412699 135.23809523809524,47.61904761904762 135.44973544973547,48.25396825396826 135.66137566137567,48.88888888888889 136.0846560846561,49.31216931216932 136.2962962962963,49.94708994708995 136.5079365079365,50.58201058201058 136.71957671957674,51.21693121693122 136.93121693121694,51.851851851851855 137.14285714285717,52.48677248677249 137.35449735449737,53.12169312169313 137.56613756613757,53.75661375661376 137.56613756613757,54.39153439153439 137.7777777777778,55.02645502645503 137.7777777777778,55.661375661375665 137.989417989418,56.2962962962963 137.989417989418,56.93121693121694 138.2010582010582,57.56613756613757 138.2010582010582,58.2010582010582 138.2010582010582,58.83597883597884 138.41269841269843,59.470899470899475 138.41269841269843,60.10582010582011 138.41269841269843,60.74074074074075 138.62433862433863,61.37566137566138 138.62433862433863,62.01058201058201 138.41269841269843,62.64550264550265 138.41269841269843,63.280423280423285 138.41269841269843,63.91534391534392 138.2010582010582,64.55026455026456 137.989417989418,65.18518518518519 137.7777777777778,65.82010582010582 137.35449735449737,66.45502645502646 136.93121693121694,67.08994708994709 136.5079365079365,67.72486772486774 136.0846560846561,68.14814814814815 135.44973544973547,68.57142857142858 134.81481481481484,68.994708994709 134.17989417989418,69.41798941798942 133.54497354497354,69.62962962962963 132.9100529100529,69.84126984126985 132.27513227513228,70.05291005291006 131.64021164021165,70.05291005291006 131.005291005291,70.05291005291006 130.37037037037038,70.26455026455027 129.73544973544975,70.26455026455027 129.10052910052912,70.05291005291006 128.46560846560848,70.05291005291006 127.83068783068784,70.26455026455027 127.1957671957672,70.26455026455027 126.56084656084657,70.26455026455027 125.92592592592594,70.26455026455027 125.2910052910053,70.26455026455027 124.65608465608466,70.26455026455027 124.02116402116403,70.26455026455027 123.3862433862434,70.26455026455027 122.75132275132276,70.26455026455027 122.11640211640213,70.26455026455027 121.4814814814815,70.47619047619048 120.84656084656086,70.47619047619048 120.21164021164022,70.47619047619048 119.57671957671958,70.6878306878307 118.94179894179895,70.6878306878307 118.30687830687832,70.8994708994709 117.67195767195768,71.11111111111111 117.03703703703705,71.53439153439155 116.4021164021164,71.74603174603175 115.76719576719577,71.95767195767196 115.13227513227514,72.16931216931218 114.49735449735451,72.5925925925926 113.86243386243387,73.01587301587303 113.22751322751324,73.43915343915344 112.80423280423281,73.86243386243387 112.3809523809524,74.28571428571429 111.95767195767196,74.70899470899471 111.53439153439155,75.34391534391536 111.11111111111111,75.97883597883599 110.89947089947091,76.61375661375662 110.47619047619048,77.24867724867725 110.26455026455027,77.88359788359789 110.05291005291006,78.51851851851852 110.05291005291006,79.15343915343917 109.84126984126985,79.7883597883598 109.84126984126985,80.42328042328043 109.84126984126985,81.05820105820106 109.84126984126985,81.6931216931217 109.84126984126985,82.32804232804233 109.84126984126985,82.96296296296298 109.84126984126985,83.59788359788361 109.84126984126985,84.23280423280424 110.05291005291006,84.86772486772487 110.26455026455027,85.5026455026455 110.26455026455027,86.13756613756614 110.47619047619048,86.77248677248677 110.6878306878307,87.40740740740742 110.6878306878307,88.04232804232805 110.89947089947091,88.67724867724868 111.11111111111111,89.31216931216932 111.32275132275133,89.94708994708995 111.74603174603176,90.58201058201058 111.95767195767196,91.21693121693123 112.16931216931218,91.85185185185186 112.5925925925926,92.4867724867725 112.80423280423281,93.12169312169313 113.01587301587303,93.75661375661376 113.43915343915344,94.17989417989419 113.86243386243387,94.81481481481482 114.28571428571429,95.44973544973546 114.49735449735451,96.08465608465609 114.92063492063492,96.50793650793652 115.34391534391536,96.93121693121694 115.76719576719577,97.56613756613757 116.1904761904762,97.989417989418 116.61375661375662,98.41269841269842 117.24867724867725,98.83597883597885 117.88359788359789,99.04761904761905 118.51851851851853,99.25925925925927 119.15343915343917,99.68253968253968 119.7883597883598,99.8941798941799 120.42328042328043,100.10582010582011 121.05820105820106,100.10582010582011 121.6931216931217,100.31746031746033 122.32804232804234,100.31746031746033 122.96296296296298,100.52910052910053 123.59788359788361,100.52910052910053 124.23280423280424,100.52910052910053 124.86772486772487,100.31746031746033 125.5026455026455,100.10582010582011 126.13756613756615,100.10582010582011 126.77248677248679,99.8941798941799 127.40740740740742,99.68253968253968 128.04232804232805,99.47089947089948 128.67724867724868,99.25925925925927 129.31216931216932,99.04761904761905 129.94708994708995,98.83597883597885 130.58201058201058,98.62433862433863 131.21693121693121,98.62433862433863 131.85185185185185,98.2010582010582 132.4867724867725,97.989417989418 133.12169312169314,97.77777777777779 133.75661375661377,97.56613756613757 134.3915343915344,97.56613756613757 135.02645502645504,97.35449735449737 135.66137566137567,96.93121693121694 136.2962962962963,96.50793650793652 136.93121693121694,96.2962962962963 137.56613756613757,96.2962962962963 138.2010582010582,96.08465608465609 138.83597883597884,95.87301587301587 139.25925925925927,95.44973544973546 139.8941798941799,95.44973544973546 140.31746031746033,95.02645502645504 140.95238095238096,95.02645502645504 141.5873015873016,94.81481481481482 142.22222222222223,94.81481481481482 142.85714285714286,94.60317460317461 143.4920634920635,94.60317460317461 144.12698412698413,94.60317460317461 144.76190476190476,94.81481481481482 145.39682539682542,94.81481481481482 146.03174603174605,94.81481481481482 146.66666666666669,95.02645502645504 147.30158730158732,95.23809523809524 147.93650793650795,95.44973544973546 148.35978835978838,95.87301587301587 148.99470899470901,96.2962962962963 149.41798941798942,96.93121693121694 149.84126984126985,97.56613756613757 150.26455026455028,98.2010582010582 150.47619047619048,98.83597883597885 150.6878306878307,99.47089947089948 151.11111111111111,100.10582010582011 151.32275132275134,100.74074074074075 151.74603174603175,101.37566137566138 151.95767195767198,102.01058201058201 152.16931216931218,102.64550264550266 152.5925925925926,103.28042328042329 152.8042328042328,103.91534391534393 153.01587301587304,104.55026455026456 153.43915343915344,105.18518518518519 153.65079365079367,105.82010582010582 153.86243386243387,106.45502645502647 154.07407407407408,107.0899470899471 154.2857142857143,107.72486772486774 154.4973544973545,108.35978835978837 154.7089947089947,108.994708994709 155.13227513227514,109.41798941798943 155.34391534391534,110.05291005291006 155.55555555555557,110.6878306878307 155.76719576719577,111.32275132275133 155.978835978836,111.95767195767196 156.1904761904762,112.5925925925926 156.4021164021164,113.22751322751324 156.82539682539684,113.86243386243387 157.03703703703704,114.49735449735451 157.24867724867727,115.13227513227514 157.46031746031747,115.76719576719577 157.67195767195767,116.4021164021164 158.0952380952381,117.03703703703705 158.30687830687833,117.67195767195768 158.51851851851853,118.30687830687832 158.73015873015873,118.94179894179895 159.15343915343917,119.36507936507937 159.36507936507937,120.00000000000001 159.5767195767196,120.63492063492065 159.5767195767196,121.26984126984128 159.7883597883598,121.90476190476191 160.0,122.53968253968254 160.42328042328043,123.17460317460318 160.63492063492066,123.80952380952382 160.84656084656086,124.44444444444446 161.05820105820106,125.07936507936509 161.2698412698413,125.71428571428572 161.4814814814815,126.34920634920636 161.6931216931217,126.98412698412699 161.90476190476193,127.61904761904763 162.11640211640213,128.25396825396825 162.53968253968256,128.88888888888889 163.80952380952382,132.4867724867725" style="fill:none; stroke:#999900; stroke-width:1.0"  /><polyline points="163.80952380952382,132.4867724867725 160.84656084656086,134.17989417989418 160.21164021164023,134.6031746031746 159.5767195767196,135.02645502645504 158.94179894179896,135.23809523809524 158.30687830687833,135.66137566137567 157.67195767195767,136.0846560846561 157.03703703703704,136.2962962962963 156.4021164021164,136.5079365079365 155.978835978836,136.93121693121694 155.34391534391534,137.14285714285717 154.92063492063494,137.56613756613757 154.2857142857143,137.7777777777778 153.86243386243387,138.2010582010582 153.22751322751324,138.62433862433863 152.8042328042328,139.04761904761907 152.16931216931218,139.47089947089947 151.53439153439155,139.8941798941799 151.11111111111111,140.31746031746033 150.47619047619048,140.74074074074076 149.84126984126985,141.16402116402116 149.20634920634922,141.5873015873016 148.78306878306879,142.01058201058203 148.14814814814815,142.43386243386246 147.51322751322752,142.85714285714286 146.8783068783069,143.2804232804233 146.45502645502646,143.70370370370372 145.82010582010582,144.12698412698413 145.1851851851852,144.55026455026456 144.76190476190476,144.973544973545 144.12698412698413,145.39682539682542 143.70370370370372,145.82010582010582 143.2804232804233,146.24338624338625 142.64550264550266,146.66666666666669 142.22222222222223,147.0899470899471 141.5873015873016,147.51322751322752 141.16402116402116,147.93650793650795 140.74074074074076,148.35978835978838 140.10582010582013,148.78306878306879 139.6825396825397,149.20634920634922 139.25925925925927,149.62962962962965 138.62433862433863,150.05291005291005 138.2010582010582,150.47619047619048 137.7777777777778,150.8994708994709 137.35449735449737,151.32275132275134 136.71957671957674,151.74603174603175 136.2962962962963,152.16931216931218 135.87301587301587,152.5925925925926 135.44973544973547,153.01587301587304 135.02645502645504,153.43915343915344 134.6031746031746,153.86243386243387 134.17989417989418,154.4973544973545 133.75661375661377,154.92063492063494 133.33333333333334,155.34391534391534 132.9100529100529,155.76719576719577 132.4867724867725,156.1904761904762 132.06349206349208,156.61375661375664 131.64021164021165,157.03703703703704 131.005291005291,157.46031746031747 130.58201058201058,157.8835978835979 130.15873015873018,158.30687830687833 129.52380952380955,158.73015873015873 128.88888888888889,159.15343915343917 128.25396825396825,159.36507936507937 127.61904761904763,159.7883597883598 126.98412698412699,160.0 126.34920634920636,160.42328042328043 125.71428571428572,160.42328042328043 125.07936507936509,160.63492063492066 124.44444444444446,160.63492063492066 123.80952380952382,160.84656084656086 123.17460317460318,160.84656084656086 122.53968253968254,160.84656084656086 121.90476190476191,160.63492063492066 121.26984126984128,160.42328042328043 120.63492063492065,160.21164021164023 120.00000000000001,159.7883597883598 119.57671957671958,159.36507936507937 119.15343915343917,158.94179894179896 118.73015873015873,158.30687830687833 118.51851851851853,157.67195767195767 118.30687830687832,157.03703703703704 118.0952380952381,156.4021164021164 117.88359788359789,155.76719576719577 117.88359788359789,155.13227513227514 117.67195767195768,154.4973544973545 117.24867724867725,153.86243386243387 117.24867724867725,153.22751322751324 117.24867724867725,152.5925925925926 117.03703703703705,151.95767195767198 117.03703703703705,151.32275132275134 117.03703703703705,150.6878306878307 117.03703703703705,150.05291005291005 117.03703703703705,149.41798941798942 116.82539682539684,148.78306878306879 117.03703703703705,148.14814814814815 116.82539682539684,147.51322751322752 116.82539682539684,146.8783068783069 116.82539682539684,146.24338624338625 116.82539682539684,145.60846560846562 116.82539682539684,144.973544973545 116.82539682539684,144.33862433862436 116.82539682539684,143.70370370370372 117.03703703703705,143.0687830687831 117.03703703703705,142.43386243386246 117.03703703703705,141.7989417989418 117.03703703703705,141.16402116402116 117.24867724867725,140.52910052910053 117.24867724867725,139.8941798941799 117.24867724867725,139.25925925925927 117.24867724867725,138.62433862433863 117.24867724867725,137.989417989418 117.24867724867725,137.35449735449737 117.24867724867725,136.71957671957674 117.46031746031747,136.0846560846561 117.46031746031747,135.44973544973547 117.24867724867725,134.81481481481484 117.24867724867725,134.17989417989418 117.24867724867725,133.54497354497354 117.03703703703705,132.9100529100529 117.24867724867725,132.27513227513228 117.24867724867725,131.64021164021165 117.24867724867725,131.005291005291 117.03703703703705,130.37037037037038 116.82539682539684,129.73544973544975 116.82539682539684,129.10052910052912 116.61375661375662,128.46560846560848 116.4021164021164,127.83068783068784 116.1904761904762,127.1957671957672 115.76719576719577,126.77248677248679 115.55555555555557,126.13756613756615 115.13227513227514,125.71428571428572 114.49735449735451,125.2910052910053 114.07407407407408,124.86772486772487 113.65079365079366,124.44444444444446 113.22751322751324,124.02116402116403 112.5925925925926,123.59788359788361 111.95767195767196,123.17460317460318 111.32275132275133,122.75132275132276 110.6878306878307,122.53968253968254 110.05291005291006,122.11640211640213 109.41798941798943,121.90476190476191 108.78306878306879,121.6931216931217 108.14814814814815,121.26984126984128 107.51322751322752,121.26984126984128 106.87830687830689,121.05820105820106 106.24338624338625,120.84656084656086 105.60846560846562,120.63492063492065 104.97354497354497,120.42328042328043 104.33862433862434,120.42328042328043 103.70370370370371,120.42328042328043 103.06878306878308,120.21164021164022 102.43386243386244,120.21164021164022 101.79894179894181,120.21164021164022 101.16402116402116,120.21164021164022 100.52910052910053,120.21164021164022 99.8941798941799,120.21164021164022 99.25925925925927,120.42328042328043 98.62433862433863,120.42328042328043 97.989417989418,120.42328042328043 97.35449735449737,120.42328042328043 96.71957671957672,120.63492063492065 96.08465608465609,120.84656084656086 95.44973544973546,121.05820105820106 94.81481481481482,121.26984126984128 94.17989417989419,121.6931216931217 93.54497354497356,122.11640211640213 93.12169312169313,122.53968253968254 92.4867724867725,122.75132275132276 92.06349206349208,123.17460317460318 91.64021164021165,123.59788359788361 91.21693121693123,124.02116402116403 90.7936507936508,124.65608465608466 90.37037037037038,125.2910052910053 89.94708994708995,125.92592592592594 89.73544973544975,126.56084656084657 89.31216931216932,127.1957671957672 89.1005291005291,127.83068783068784 88.67724867724868,128.46560846560848 88.46560846560847,129.10052910052912 88.25396825396827,129.73544973544975 88.04232804232805,130.37037037037038 87.61904761904762,131.005291005291 87.40740740740742,131.64021164021165 87.40740740740742,132.27513227513228 87.1957671957672,132.9100529100529 86.98412698412699,133.54497354497354 86.77248677248677,134.17989417989418 86.56084656084657,134.81481481481484 86.56084656084657,135.44973544973547 86.34920634920636,136.0846560846561 86.34920634920636,136.71957671957674 86.13756613756614,137.35449735449737 86.13756613756614,137.989417989418 86.13756613756614,138.62433862433863 86.13756613756614,139.25925925925927 85.92592592592594,139.8941798941799 85.92592592592594,140.52910052910053 86.13756613756614,141.16402116402116 86.13756613756614,141.7989417989418 86.13756613756614,142.43386243386246 86.34920634920636,143.0687830687831 86.56084656084657,143.70370370370372 86.56084656084657,144.33862433862436 86.77248677248677,144.973544973545 86.98412698412699,145.60846560846562 87.1957671957672,146.24338624338625 87.40740740740742,146.8783068783069 87.40740740740742,147.51322751322752 87.83068783068784,148.14814814814815 88.04232804232805,148.78306878306879 88.46560846560847,149.41798941798942 88.67724867724868,150.05291005291005 88.8888888888889,150.6878306878307 89.31216931216932,151.11111111111111 89.52380952380953,151.74603174603175 89.94708994708995,152.16931216931218 90.15873015873017,152.8042328042328 90.58201058201058,153.22751322751324 90.7936507936508,153.86243386243387 91.21693121693123,154.2857142857143 91.64021164021165,154.7089947089947 92.06349206349208,155.34391534391534 92.27513227513228,155.978835978836 92.69841269841271,156.61375661375664 93.12169312169313,157.03703703703704 93.33333333333334,157.67195767195767 93.54497354497356,158.30687830687833 93.96825396825398,158.94179894179896 94.17989417989419,159.5767195767196 94.39153439153439,160.21164021164023 94.60317460317461,160.84656084656086 94.81481481481482,161.4814814814815 95.02645502645504,162.11640211640213 95.23809523809524,162.75132275132276 95.44973544973546,163.3862433862434 95.66137566137567,164.02116402116403 95.66137566137567,164.65608465608466 95.87301587301587,165.2910052910053 95.87301587301587,165.92592592592595 95.87301587301587,166.56084656084658 96.08465608465609,167.19576719576722 96.08465608465609,167.83068783068785 96.08465608465609,168.46560846560848 96.08465608465609,169.10052910052912 96.08465608465609,169.73544973544975 96.08465608465609,170.37037037037038 96.08465608465609,171.005291005291 95.87301587301587,171.64021164021165 95.66137566137567,172.27513227513228 95.66137566137567,172.9100529100529 95.44973544973546,173.54497354497354 95.23809523809524,174.1798941798942 95.02645502645504,174.81481481481484 94.60317460317461,175.44973544973547 94.39153439153439,176.0846560846561 93.96825396825398,176.71957671957674 93.75661375661376,177.35449735449737 93.33333333333334,177.989417989418 92.91005291005291,178.62433862433863 92.4867724867725,179.25925925925927 92.06349206349208,179.6825396825397 91.64021164021165,180.31746031746033 91.21693121693123,180.74074074074076 90.7936507936508,181.16402116402116 90.37037037037038,181.5873015873016 89.73544973544975,182.01058201058203 89.31216931216932,182.43386243386246 88.8888888888889,182.85714285714286 88.25396825396827,183.2804232804233 87.61904761904762,183.70370370370372 86.98412698412699,184.12698412698415 86.34920634920636,184.55026455026456 85.71428571428572,184.7619047619048 85.29100529100529,185.1851851851852 84.65608465608466,185.39682539682542 84.23280423280424,185.82010582010582 83.59788359788361,186.03174603174605 82.96296296296298,186.45502645502646 82.53968253968254,186.8783068783069 81.90476190476191,187.30158730158732 81.26984126984128,187.51322751322752 80.84656084656085,187.93650793650795 80.21164021164022,188.14814814814815 79.57671957671958,188.57142857142858 78.94179894179895,188.78306878306879 78.30687830687832,189.20634920634922 77.67195767195767,189.62962962962965 77.03703703703704,189.84126984126985 76.4021164021164,190.05291005291008 75.76719576719577,190.47619047619048 75.13227513227514,190.6878306878307 74.49735449735451,190.8994708994709 73.86243386243387,191.32275132275134 73.22751322751323,191.53439153439155 72.5925925925926,191.74603174603175 71.95767195767196,192.16931216931218 71.32275132275133,192.3809523809524 70.6878306878307,192.5925925925926 70.05291005291006,192.8042328042328 69.41798941798942,193.01587301587304 68.78306878306879,193.22751322751324 68.14814814814815,193.43915343915344 67.51322751322752,193.65079365079367 66.87830687830689,193.86243386243387 66.24338624338625,194.07407407407408 65.60846560846561,194.2857142857143 62.64550264550265,195.34391534391537" style="fill:none; stroke:#00aa99; stroke-width:1.0"  /><polyline points="62.64550264550265,195.34391534391537 61.798941798941804,191.74603174603175 61.58730158730159,191.11111111111111 61.58730158730159,190.47619047619048 61.58730158730159,189.84126984126985 61.16402116402117,189.41798941798945 61.16402116402117,188.78306878306879 60.952380952380956,188.14814814814815 60.952380952380956,187.51322751322752 60.74074074074075,186.8783068783069 60.52910052910053,186.24338624338625 60.52910052910053,185.60846560846562 60.10582010582011,184.973544973545 60.10582010582011,184.33862433862436 59.8941798941799,183.70370370370372 59.8941798941799,183.0687830687831 59.682539682539684,182.43386243386246 59.470899470899475,181.79894179894183 59.25925925925927,181.16402116402116 59.25925925925927,180.52910052910053 59.04761904761905,179.8941798941799 58.83597883597884,179.25925925925927 58.62433862433863,178.62433862433863 58.41269841269842,177.989417989418 58.41269841269842,177.35449735449737 58.2010582010582,176.71957671957674 57.989417989417994,176.0846560846561 57.777777777777786,175.44973544973547 57.777777777777786,174.81481481481484 57.35449735449736,174.1798941798942 57.35449735449736,173.54497354497354 57.142857142857146,172.9100529100529 56.93121693121694,172.27513227513228 56.71957671957672,171.64021164021165 56.71957671957672,171.005291005291 56.50793650793651,170.37037037037038 56.50793650793651,169.73544973544975 56.2962962962963,169.10052910052912 56.08465608465609,168.46560846560848 55.87301587301588,167.83068783068785 55.661375661375665,167.19576719576722 55.449735449735456,166.56084656084658 55.449735449735456,165.92592592592595 55.02645502645503,165.2910052910053 54.81481481481482,164.65608465608466 54.81481481481482,164.02116402116403 54.39153439153439,163.3862433862434 54.39153439153439,162.75132275132276 54.179894179894184,162.11640211640213 53.968253968253975,161.4814814814815 53.75661375661376,160.84656084656086 53.54497354497355,160.21164021164023 53.333333333333336,159.5767195767196 53.333333333333336,158.94179894179896 53.12169312169313,158.30687830687833 52.91005291005291,157.67195767195767 52.48677248677249,157.03703703703704 52.27513227513228,156.4021164021164 52.06349206349207,155.76719576719577 51.851851851851855,155.13227513227514 51.42857142857143,154.4973544973545 51.21693121693122,153.86243386243387 51.00529100529101,153.22751322751324 50.7936507936508,152.5925925925926 50.370370370370374,151.95767195767198 50.158730158730165,151.32275132275134 49.94708994708995,150.6878306878307 49.523809523809526,150.05291005291005 49.31216931216932,149.41798941798942 48.88888888888889,148.78306878306879 48.46560846560847,148.14814814814815 48.25396825396826,147.51322751322752 47.61904761904762,147.0899470899471 47.195767195767196,146.45502645502646 46.77248677248678,146.03174603174605 46.349206349206355,145.60846560846562 45.714285714285715,145.1851851851852 45.07936507936508,144.973544973545 44.65608465608466,144.55026455026456 44.021164021164026,144.33862433862436 43.386243386243386,144.33862433862436 42.75132275132275,144.12698412698413 42.11640211640212,144.12698412698413 41.48148148148149,144.12698412698413 40.84656084656085,144.33862433862436 40.211640211640216,144.55026455026456 39.57671957671958,144.76190476190476 38.94179894179894,144.973544973545 38.51851851851852,145.39682539682542 37.883597883597886,145.82010582010582 37.46031746031746,146.24338624338625 37.03703703703704,146.66666666666669 36.613756613756614,147.0899470899471 36.19047619047619,147.51322751322752 35.76719576719577,148.14814814814815 35.34391534391535,148.78306878306879 35.13227513227513,149.41798941798942 34.70899470899471,150.05291005291005 34.4973544973545,150.6878306878307 34.28571428571429,151.32275132275134 34.074074074074076,151.95767195767198 33.86243386243387,152.5925925925926 33.86243386243387,153.22751322751324 33.65079365079365,153.86243386243387 33.43915343915344,154.4973544973545 33.65079365079365,155.13227513227514 33.43915343915344,155.76719576719577 33.22751322751323,156.4021164021164 33.22751322751323,157.03703703703704 33.01587301587302,157.67195767195767 32.804232804232804,158.30687830687833 32.804232804232804,158.94179894179896 32.38095238095239,159.5767195767196 32.16931216931217,160.21164021164023 31.95767195767196,160.84656084656086 31.53439153439154,161.4814814814815 31.111111111111114,162.11640211640213 30.68783068783069,162.53968253968256 30.264550264550266,162.96296296296296 29.841269841269842,163.3862433862434 29.41798941798942,163.80952380952382 28.994708994708997,164.23280423280426 28.35978835978836,164.65608465608466 27.724867724867728,165.0793650793651 27.089947089947092,165.2910052910053 26.455026455026456,165.71428571428572 25.820105820105823,165.92592592592595 25.185185185185187,166.13756613756615 24.55026455026455,166.13756613756615 23.915343915343918,166.34920634920636 23.280423280423282,166.34920634920636 22.645502645502646,166.34920634920636 22.010582010582013,166.34920634920636 21.375661375661377,166.13756613756615 20.740740740740744,165.92592592592595 20.105820105820108,165.71428571428572 19.47089947089947,165.50264550264552 18.83597883597884,165.2910052910053 18.412698412698415,164.8677248677249 17.77777777777778,164.65608465608466 17.354497354497354,164.23280423280426 16.71957671957672,164.02116402116403 16.296296296296298,163.59788359788362 15.873015873015873,163.1746031746032 15.238095238095239,162.75132275132276 14.814814814814817,162.32804232804233 14.391534391534393,161.90476190476193 13.96825396825397,161.4814814814815 13.544973544973546,161.05820105820106 13.121693121693122,160.63492063492066 12.486772486772487,160.21164021164023 12.063492063492065,159.7883597883598 11.640211640211641,159.36507936507937 11.216931216931219,158.73015873015873 10.793650793650794,158.30687830687833 10.370370370370372,157.67195767195767 9.947089947089948,157.03703703703704 9.523809523809524,156.61375661375664 9.100529100529101,155.978835978836 8.677248677248677,155.34391534391534 8.253968253968255,154.7089947089947 7.830687830687832,154.2857142857143 7.407407407407408,153.86243386243387 6.984126984126985,153.22751322751324 6.560846560846561,152.5925925925926 6.137566137566138,151.95767195767198 5.9259259259259265,151.32275132275134 5.502645502645503,150.6878306878307 5.291005291005291,150.05291005291005 5.07936507936508,149.41798941798942 4.656084656084657,148.99470899470901 4.444444444444445,148.35978835978838 4.021164021164021,147.72486772486775 3.8095238095238098,147.0899470899471 3.597883597883598,146.45502645502646 3.174603174603175,145.82010582010582 2.9629629629629632,145.1851851851852 2.7513227513227516,144.55026455026456 2.53968253968254,143.91534391534393 2.3280423280423284,143.2804232804233 2.1164021164021167,142.64550264550266 1.9047619047619049,142.01058201058203 1.6931216931216932,141.3756613756614 1.4814814814814816,140.74074074074076 1.26984126984127,140.10582010582013 1.0582010582010584,139.47089947089947 1.0582010582010584,138.83597883597884 0.8465608465608466,138.2010582010582 0.634920634920635,137.56613756613757 0.634920634920635,136.93121693121694 0.4232804232804233,136.2962962962963 0.4232804232804233,135.66137566137567 0.4232804232804233,135.02645502645504 0.4232804232804233,134.3915343915344 0.4232804232804233,133.75661375661377 0.21164021164021166,133.12169312169314 0.21164021164021166,132.4867724867725 0.21164021164021166,131.85185185185185 0.21164021164021166,131.21693121693121 0.21164021164021166,130.58201058201058 0.21164021164021166,129.94708994708995 0.21164021164021166,129.31216931216932 0.4232804232804233,128.67724867724868 0.634920634920635,128.04232804232805 0.634920634920635,127.40740740740742 1.0582010582010584,126.77248677248679 1.26984126984127,126.13756613756615 1.6931216931216932,125.5026455026455 2.1164021164021167,125.07936507936509 2.53968253968254,124.65608465608466 2.9629629629629632,124.23280423280424 3.597883597883598,123.80952380952382 4.2328042328042335,123.59788359788361 4.867724867724868,123.17460317460318 5.502645502645503,122.75132275132276 6.137566137566138,122.75132275132276 6.772486772486773,122.53968253968254 7.407407407407408,122.32804232804234 8.042328042328043,122.11640211640213 8.677248677248677,121.90476190476191 9.312169312169313,121.90476190476191 9.947089947089948,121.6931216931217 10.582010582010582,121.90476190476191 11.216931216931219,121.6931216931217 11.851851851851853,121.90476190476191 12.486772486772487,121.90476190476191 13.121693121693122,121.6931216931217 13.756613756613758,121.6931216931217 14.391534391534393,121.6931216931217 15.026455026455027,121.90476190476191 15.661375661375663,122.11640211640213 16.296296296296298,122.11640211640213 16.931216931216934,122.11640211640213 17.566137566137566,122.32804232804234 18.201058201058203,122.32804232804234 18.83597883597884,122.53968253968254 19.47089947089947,122.32804232804234 20.105820105820108,122.32804232804234 20.740740740740744,122.32804232804234 21.375661375661377,122.11640211640213 22.010582010582013,122.11640211640213 22.645502645502646,121.90476190476191 23.280423280423282,121.6931216931217 23.915343915343918,121.26984126984128 24.338624338624342,120.84656084656086 24.973544973544975,120.42328042328043 25.3968253968254,120.00000000000001 25.60846560846561,119.36507936507937 26.031746031746035,118.94179894179895 26.243386243386244,118.30687830687832 26.455026455026456,117.67195767195768 26.666666666666668,117.03703703703705 26.666666666666668,116.4021164021164 26.666666666666668,115.76719576719577 26.666666666666668,115.13227513227514 26.666666666666668,114.49735449735451 26.455026455026456,113.86243386243387 26.243386243386244,113.22751322751324 26.031746031746035,112.5925925925926 25.60846560846561,111.95767195767196 25.185185185185187,111.32275132275133 24.761904761904763,110.6878306878307 24.338624338624342,110.05291005291006 23.915343915343918,109.62962962962963 23.492063492063494,108.994708994709 23.06878306878307,108.35978835978837 22.645502645502646,107.72486772486774 22.222222222222225,107.0899470899471 21.7989417989418,106.66666666666667 21.375661375661377,106.03174603174604 20.952380952380953,105.3968253968254 20.529100529100532,104.76190476190477 20.105820105820108,104.12698412698414 19.682539682539684,103.4920634920635 19.47089947089947,102.85714285714286 19.047619047619047,102.22222222222223 18.624338624338627,101.5873015873016 18.412698412698415,100.95238095238096 17.98941798941799,100.31746031746033 17.77777777777778,99.68253968253968 17.566137566137566,99.04761904761905 17.142857142857146,98.41269841269842 16.931216931216934,97.77777777777779 16.71957671957672,97.14285714285715 16.296296296296298,96.50793650793652 16.084656084656086,95.87301587301587 15.661375661375663,95.23809523809524 15.449735449735451,94.60317460317461 15.238095238095239,93.96825396825398 14.814814814814817,93.33333333333334 14.603174603174605,92.69841269841271 14.391534391534393,92.06349206349208 13.96825396825397,91.42857142857143 13.756613756613758,90.7936507936508 13.544973544973546,90.15873015873017 13.333333333333334,89.52380952380953 13.121693121693122,88.8888888888889 12.6984126984127,88.46560846560847 12.6984126984127,87.83068783068784 12.486772486772487,87.1957671957672 12.275132275132275,86.56084656084657 11.851851851851853,85.92592592592594 11.851851851851853,85.29100529100529 11.428571428571429,84.65608465608466 11.216931216931219,84.02116402116403 11.005291005291006,83.3862433862434 10.793650793650794,82.75132275132276 10.582010582010582,82.11640211640213 10.370370370370372,81.48148148148148 10.370370370370372,80.84656084656085 10.15873015873016,80.21164021164022 10.15873015873016,79.57671957671958 9.947089947089948,78.94179894179895 9.735449735449736,78.30687830687832 9.523809523809524,77.67195767195767 9.523809523809524,77.03703703703704 9.312169312169313,76.4021164021164 9.100529100529101,75.76719576719577 9.100529100529101,75.13227513227514 8.88888888888889,74.49735449735451 8.677248677248677,73.86243386243387 8.677248677248677,73.22751322751323 8.465608465608467,72.5925925925926 8.465608465608467,71.95767195767196 8.253968253968255,71.32275132275133 8.042328042328043,70.6878306878307 8.042328042328043,70.05291005291006 7.830687830687832,69.41798941798942 7.830687830687832,68.78306878306879 7.6190476190476195,68.14814814814815 7.407407407407408,67.51322751322752 7.407407407407408,66.87830687830689 7.195767195767196,66.24338624338625 6.984126984126985,65.60846560846561 6.772486772486773,64.97354497354497 6.560846560846561,64.33862433862434 6.34920634920635,63.70370370370371 6.137566137566138,63.06878306878308 5.07936507936508,59.04761904761905" style="fill:none; stroke:#3300bb; stroke-width:1.0"  /><circle cx="5.07936507936508" cy="59.04761904761905" r="2.0" style="fill:none; stroke:#000000aa; stroke-width:0.25" /><circle cx="121.6931216931217" cy="25.185185185185187" r="2.0" style="fill:none; stroke:#000000aa; stroke-width:0.25" /><circle cx="163.80952380952382" cy="132.4867724867725" r="2.0" style="fill:none; stroke:#000000aa; stroke-width:0.25" /><circle cx="62.64550264550265" cy="195.34391534391537" r="2.0" style="fill:none; stroke:#000000aa; stroke-width:0.25" /><circle cx="4.867724867724868" cy="59.682539682539684" r="2.0" style="fill:none; stroke:#ff3366aa; stroke-width:0.25" /><circle cx="121.26984126984128" cy="25.60846560846561" r="2.0" style="fill:none; stroke:#ff3366aa; stroke-width:0.25" /><circle cx="163.59788359788362" cy="132.27513227513228" r="2.0" style="fill:none; stroke:#ff3366aa; stroke-width:0.25" /><circle cx="62.43386243386244" cy="194.92063492063494" r="2.0" style="fill:none; stroke:#ff3366aa; stroke-width:0.25" /><polyline points="15.238095238095239,54.179894179894184 14.603174603174605,54.39153439153439 14.17989417989418,54.81481481481482 13.544973544973546,54.81481481481482 12.910052910052912,55.23809523809524 12.486772486772487,55.661375661375665 11.851851851851853,55.87301587301588 11.216931216931219,56.08465608465609 10.582010582010582,56.50793650793651 9.947089947089948,56.71957671957672 9.312169312169313,57.142857142857146 8.677248677248677,57.35449735449736 8.042328042328043,57.56613756613757 7.407407407407408,57.989417989417994" style="fill:none; stroke:#001100; stroke-width:1.0" /><polyline points="8.042328042328043,70.6878306878307 8.042328042328043,70.05291005291006 7.830687830687832,69.41798941798942 7.830687830687832,68.78306878306879 7.6190476190476195,68.14814814814815 7.407407407407408,67.51322751322752 7.407407407407408,66.87830687830689 7.195767195767196,66.24338624338625 6.984126984126985,65.60846560846561 6.772486772486773,64.97354497354497 6.560846560846561,64.33862433862434 6.34920634920635,63.70370370370371 6.137566137566138,63.06878306878308" style="fill:none; stroke:#000011; stroke-width:1.0" /><polyline points="128.46560846560848,34.920634920634924 128.04232804232805,34.28571428571429 127.61904761904763,33.65079365079365 127.1957671957672,33.01587301587302 126.77248677248679,32.38095238095239 126.34920634920636,31.746031746031747 125.92592592592594,31.111111111111114 125.5026455026455,30.476190476190478 125.07936507936509,29.841269841269842 124.65608465608466,29.41798941798942 124.23280423280424,28.783068783068785 123.80952380952382,28.35978835978836 123.3862433862434,27.724867724867728" style="fill:none; stroke:#001100; stroke-width:1.0" /><polyline points="109.84126984126985,29.20634920634921 110.47619047619048,28.994708994708997 111.11111111111111,28.783068783068785 111.74603174603176,28.571428571428573 112.3809523809524,28.35978835978836 113.01587301587303,28.35978835978836 113.65079365079366,27.93650793650794 114.28571428571429,27.93650793650794 114.92063492063492,27.724867724867728 115.55555555555557,27.513227513227516 116.1904761904762,27.301587301587304 116.82539682539684,27.089947089947092 117.46031746031747,26.87830687830688 117.88359788359789,26.455026455026456" style="fill:none; stroke:#000011; stroke-width:1.0" /><polyline points="153.86243386243387,138.2010582010582 154.2857142857143,137.7777777777778 154.92063492063494,137.56613756613757 155.34391534391534,137.14285714285717 155.978835978836,136.93121693121694 156.4021164021164,136.5079365079365 157.03703703703704,136.2962962962963 157.67195767195767,136.0846560846561 158.30687830687833,135.66137566137567 158.94179894179896,135.23809523809524 159.5767195767196,135.02645502645504 160.21164021164023,134.6031746031746 160.84656084656086,134.17989417989418" style="fill:none; stroke:#001100; stroke-width:1.0" /><polyline points="159.5767195767196,121.26984126984128 159.7883597883598,121.90476190476191 160.0,122.53968253968254 160.42328042328043,123.17460317460318 160.63492063492066,123.80952380952382 160.84656084656086,124.44444444444446 161.05820105820106,125.07936507936509 161.2698412698413,125.71428571428572 161.4814814814815,126.34920634920636 161.6931216931217,126.98412698412699 161.90476190476193,127.61904761904763 162.11640211640213,128.25396825396825 162.53968253968256,128.88888888888889" style="fill:none; stroke:#000011; stroke-width:1.0" /><polyline points="59.8941798941799,183.70370370370372 60.10582010582011,184.33862433862436 60.10582010582011,184.973544973545 60.52910052910053,185.60846560846562 60.52910052910053,186.24338624338625 60.74074074074075,186.8783068783069 60.952380952380956,187.51322751322752 60.952380952380956,188.14814814814815 61.16402116402117,188.78306878306879 61.16402116402117,189.41798941798945 61.58730158730159,189.84126984126985 61.58730158730159,190.47619047619048 61.58730158730159,191.11111111111111 61.798941798941804,191.74603174603175" style="fill:none; stroke:#001100; stroke-width:1.0" /><polyline points="73.86243386243387,191.32275132275134 73.22751322751323,191.53439153439155 72.5925925925926,191.74603174603175 71.95767195767196,192.16931216931218 71.32275132275133,192.3809523809524 70.6878306878307,192.5925925925926 70.05291005291006,192.8042328042328 69.41798941798942,193.01587301587304 68.78306878306879,193.22751322751324 68.14814814814815,193.43915343915344 67.51322751322752,193.65079365079367 66.87830687830689,193.86243386243387 66.24338624338625,194.07407407407408 65.60846560846561,194.2857142857143" style="fill:none; stroke:#000011; stroke-width:1.0" /><polyline points="7.407407407407408,57.989417989417994 -11.640211640211641,67.3015873015873" style="fill:none; stroke:#ffaa00; stroke-width:0.4" /><polyline points="6.137566137566138,63.06878306878308 1.0582010582010584,42.539682539682545" style="fill:none; stroke:#aaff00; stroke-width:0.4" /><polyline points="123.3862433862434,27.724867724867728 111.11111111111111,10.370370370370372" style="fill:none; stroke:#ffaa00; stroke-width:0.4" /><polyline points="117.88359788359789,26.455026455026456 137.989417989418,19.682539682539684" style="fill:none; stroke:#aaff00; stroke-width:0.4" /><polyline points="160.84656084656086,134.17989417989418 179.25925925925927,123.59788359788361" style="fill:none; stroke:#ffaa00; stroke-width:0.4" /><polyline points="162.53968253968256,128.88888888888889 170.15873015873018,148.57142857142858" style="fill:none; stroke:#aaff00; stroke-width:0.4" /><polyline points="61.798941798941804,191.74603174603175 66.66666666666667,212.27513227513228" style="fill:none; stroke:#ffaa00; stroke-width:0.4" /><polyline points="65.60846560846561,194.2857142857143 45.714285714285715,201.4814814814815" style="fill:none; stroke:#aaff00; stroke-width:0.4" /><circle cx="74.70899470899471" cy="97.77777777777779" r="1.0" style="fill:#444444; stroke-width:0" /><circle cx="64.12698412698413" cy="85.5026455026455" r="10.582010582010582" style="fill:#ff770022; stroke-width:0" /><circle cx="64.12698412698413" cy="85.5026455026455" r="1.0" style="fill:#ff7700; stroke-width:0" /></svg>