<?xml version="1.0" encoding="UTF-8" standalone="no"?><svg width="463.49206349206355" height="694.6031746031747" viewBox="-10 -10 174.4973544973545 251.53439153439155" xmlns="http://www.w3.org/2000/svg" xmlns:xlink="http://www.w3.org/1999/xlink"><polyline points="18.412698412698415,17.566137566137566 22.645502645502646,17.98941798941799 23.280423280423282,17.98941798941799 23.915343915343918,18.201058201058203 24.55026455026455,18.201058201058203 25.185185185185187,18.201058201058203 25.820105820105823,18.201058201058203 26.455026455026456,18.201058201058203 27.089947089947092,18.201058201058203 27.724867724867728,18.412698412698415 28.35978835978836,18.412698412698415 28.994708994708997,18.412698412698415 29.629629629629633,18.624338624338627 30.264550264550266,18.624338624338627 30.899470899470902,18.83597883597884 31.53439153439154,18.83597883597884 32.16931216931217,18.83597883597884 32.804232804232804,18.83597883597884 33.43915343915344,19.047619047619047 34.074074074074076,19.25925925925926 34.70899470899471,19.25925925925926 35.34391534391535,19.25925925925926 35.97883597883598,19.25925925925926 36.613756613756614,19.25925925925926 37.248677248677254,19.47089947089947 37.883597883597886,19.47089947089947 38.51851851851852,19.682539682539684 39.15343915343916,19.894179894179896 39.78835978835979,19.894179894179896 40.423280423280424,20.105820105820108 41.058201058201064,20.31746031746032 41.6931216931217,20.31746031746032 42.32804232804233,20.529100529100532 42.96296296296297,20.529100529100532 43.5978835978836,20.952380952380953 44.232804232804234,21.164021164021165 44.867724867724874,21.164021164021165 45.50264550264551,21.375661375661377 46.13756613756614,21.58730158730159 46.77248677248678,21.7989417989418 47.40740740740741,22.010582010582013 48.042328042328045,22.222222222222225 48.677248677248684,22.433862433862437 49.31216931216932,22.645502645502646 49.94708994708995,22.857142857142858 50.370370370370374,23.280423280423282 51.00529100529101,23.492063492063494 51.42857142857143,23.915343915343918 52.06349206349207,24.338624338624342 52.48677248677249,24.761904761904763 52.91005291005291,25.3968253968254 53.333333333333336,25.820105820105823 53.54497354497355,26.455026455026456 53.968253968253975,27.089947089947092 54.179894179894184,27.724867724867728 54.60317460317461,28.35978835978836 54.81481481481482,28.994708994708997 55.02645502645503,29.629629629629633 55.02645502645503,30.264550264550266 55.23809523809524,30.899470899470902 55.661375661375665,31.322751322751326 55.661375661375665,31.95767195767196 55.661375661375665,32.592592592592595 55.87301587301588,33.22751322751323 55.87301587301588,33.86243386243387 55.87301587301588,34.4973544973545 55.87301587301588,35.13227513227513 55.87301587301588,35.76719576719577 55.87301587301588,36.402116402116405 55.87301587301588,37.03703703703704 55.87301587301588,37.67195767195768 55.87301587301588,38.30687830687831 55.87301587301588,38.94179894179894 55.87301587301588,39.57671957671958 55.87301587301588,40.211640211640216 55.87301587301588,40.84656084656085 55.661375661375665,41.48148148148149 55.661375661375665,42.11640211640212 55.449735449735456,42.75132275132275 55.449735449735456,43.386243386243386 55.23809523809524,44.021164021164026 55.02645502645503,44.65608465608466 54.81481481481482,45.29100529100529 54.60317460317461,45.92592592592593 54.60317460317461,46.560846560846564 54.39153439153439,47.195767195767196 54.179894179894184,47.830687830687836 53.75661375661376,48.46560846560847 53.54497354497355,49.1005291005291 53.333333333333336,49.73544973544974 53.12169312169313,50.370370370370374 52.6984126984127,51.00529100529101 52.48677248677249,51.640211640211646 52.27513227513228,52.27513227513228 52.06349206349207,52.91005291005291 51.640211640211646,53.54497354497355 51.42857142857143,54.179894179894184 51.21693121693122,54.81481481481482 51.00529100529101,55.449735449735456 51.00529100529101,56.08465608465609 50.7936507936508,56.71957671957672 50.7936507936508,57.35449735449736 50.58201058201058,57.989417989417994 50.58201058201058,58.62433862433863 50.58201058201058,59.25925925925927 50.370370370370374,59.8941798941799 50.370370370370374,60.52910052910053 50.370370370370374,61.16402116402117 50.370370370370374,61.798941798941804 50.370370370370374,62.43386243386244 50.370370370370374,63.06878306878308 50.370370370370374,63.70370370370371 50.370370370370374,64.33862433862434 50.58201058201058,64.97354497354497 50.370370370370374,65.60846560846561 50.58201058201058,66.24338624338625 50.7936507936508,66.87830687830689 50.7936507936508,67.51322751322752 51.00529100529101,68.14814814814815 51.21693121693122,68.78306878306879 51.21693121693122,69.41798941798942 51.42857142857143,70.05291005291006 51.640211640211646,70.6878306878307 51.851851851851855,71.32275132275133 52.06349206349207,71.95767195767196 52.27513227513228,72.5925925925926 52.48677248677249,73.22751322751323 52.91005291005291,73.86243386243387 53.12169312169313,74.49735449735451 53.333333333333336,75.13227513227514 53.75661375661376,75.76719576719577 53.968253968253975,76.4021164021164 54.39153439153439,76.82539682539684 54.60317460317461,77.46031746031747 55.02645502645503,78.0952380952381 55.449735449735456,78.73015873015873 55.87301587301588,79.36507936507937 56.2962962962963,79.7883597883598 56.50793650793651,80.42328042328043 56.93121693121694,80.84656084656085 57.35449735449736,81.26984126984128 57.777777777777786,81.90476190476191 58.2010582010582,82.32804232804233 58.62433862433863,82.75132275132276 59.04761904761905,83.17460317460318 59.470899470899475,83.59788359788361 59.8941798941799,84.02116402116403 60.31746031746032,84.44444444444446 60.74074074074075,84.86772486772487 61.37566137566138,85.29100529100529 61.798941798941804,85.71428571428572 62.22222222222223,86.13756613756614 62.64550264550265,86.56084656084657 63.280423280423285,86.77248677248677 63.70370370370371,87.1957671957672 64.12698412698413,87.61904761904762 64.76190476190477,87.83068783068784 65.3968253968254,88.25396825396827 66.03174603174604,88.46560846560847 66.66666666666667,88.8888888888889 67.3015873015873,89.1005291005291 67.93650793650794,89.31216931216932 68.35978835978837,89.73544973544975 68.994708994709,89.94708994708995 69.62962962962963,90.15873015873017 70.26455026455027,90.15873015873017 70.8994708994709,90.15873015873017 71.53439153439155,90.58201058201058 72.16931216931218,90.58201058201058 72.80423280423281,90.58201058201058 73.22751322751323,91.00529100529101 73.86243386243387,91.00529100529101 74.49735449735451,91.00529100529101 75.13227513227514,91.21693121693123 75.76719576719577,91.21693121693123 76.4021164021164,91.21693121693123 77.03703703703704,91.21693121693123 77.67195767195767,91.21693121693123 78.30687830687832,91.21693121693123 78.94179894179895,91.21693121693123 79.57671957671958,91.21693121693123 80.21164021164022,91.21693121693123 80.84656084656085,91.21693121693123 81.48148148148148,91.21693121693123 82.11640211640213,90.7936507936508 82.75132275132276,90.7936507936508 83.3862433862434,90.7936507936508 84.02116402116403,90.58201058201058 84.65608465608466,90.58201058201058 85.29100529100529,90.37037037037038 85.92592592592594,90.37037037037038 86.56084656084657,89.94708994708995 87.1957671957672,89.94708994708995 87.83068783068784,89.73544973544975 88.46560846560847,89.52380952380953 89.1005291005291,89.31216931216932 89.73544973544975,89.1005291005291 90.37037037037038,88.8888888888889 91.00529100529101,88.67724867724868 91.64021164021165,88.46560846560847 92.27513227513228,88.25396825396827 92.91005291005291,88.04232804232805 93.54497354497356,87.83068783068784 94.17989417989419,87.40740740740742 94.81481481481482,87.1957671957672 95.23809523809524,86.77248677248677 95.87301587301587,86.56084656084657 96.2962962962963,86.13756613756614 96.93121693121694,85.71428571428572 97.56613756613757,85.5026455026455 97.989417989418,85.07936507936509 98.62433862433863,84.65608465608466 99.25925925925927,84.23280423280424 99.68253968253968,83.80952380952381 100.10582010582011,83.3862433862434 100.74074074074075,82.96296296296298 101.16402116402116,82.53968253968254 101.5873015873016,82.11640211640213 102.01058201058201,81.6931216931217 102.43386243386244,81.26984126984128 102.85714285714286,80.84656084656085 103.28042328042329,80.42328042328043 103.70370370370371,79.7883597883598 104.12698412698414,79.36507936507937 104.55026455026456,78.94179894179895 104.97354497354497,78.30687830687832 105.18518518518519,77.67195767195767 105.60846560846562,77.24867724867725 106.03174603174604,76.61375661375662 106.45502645502647,75.97883597883599 106.87830687830689,75.34391534391536 107.0899470899471,74.70899470899471 107.51322751322752,74.07407407407408 107.72486772486774,73.43915343915344 107.93650793650795,72.80423280423281 108.14814814814815,72.16931216931218 108.35978835978837,71.53439153439155 108.35978835978837,70.8994708994709 108.57142857142858,70.26455026455027 108.57142857142858,69.62962962962963 108.57142857142858,68.994708994709 108.57142857142858,68.35978835978837 108.35978835978837,67.72486772486774 108.35978835978837,67.08994708994709 108.35978835978837,66.45502645502646 108.14814814814815,65.82010582010582 107.93650793650795,65.18518518518519 107.93650793650795,64.55026455026456 107.72486772486774,63.91534391534392 107.72486772486774,63.280423280423285 107.51322751322752,62.64550264550265 107.51322751322752,62.01058201058201 107.3015873015873,61.37566137566138 107.0899470899471,60.74074074074075 107.0899470899471,60.10582010582011 106.66666666666667,59.470899470899475 106.66666666666667,58.83597883597884 106.45502645502647,58.2010582010582 106.24338624338625,57.56613756613757 106.03174603174604,56.93121693121694 105.82010582010582,56.2962962962963 105.60846560846562,55.661375661375665 105.3968253968254,55.02645502645503 105.18518518518519,54.39153439153439 104.97354497354497,53.75661375661376 104.76190476190477,53.12169312169313 104.55026455026456,52.48677248677249 104.12698412698414,51.851851851851855 103.91534391534393,51.21693121693122 103.70370370370371,50.58201058201058 103.28042328042329,49.94708994708995 103.06878306878308,49.31216931216932 102.64550264550266,48.88888888888889 102.43386243386244,48.25396825396826 102.22222222222223,47.61904761904762 101.79894179894181,47.195767195767196 101.5873015873016,46.560846560846564 101.37566137566138,45.92592592592593 100.95238095238096,45.50264550264551 100.52910052910053,44.867724867724874 100.10582010582011,44.232804232804234 99.68253968253968,43.5978835978836 99.25925925925927,42.96296296296297 99.04761904761905,42.32804232804233 98.62433862433863,41.904761904761905 98.2010582010582,41.26984126984127 97.77777777777779,40.63492063492064 97.35449735449737,40.211640211640216 96.93121693121694,39.57671957671958 96.50793650793652,39.15343915343916 96.08465608465609,38.51851851851852 95.66137566137567,38.095238095238095 95.23809523809524,37.67195767195768 94.81481481481482,37.03703703703704 94.39153439153439,36.613756613756614 93.96825396825398,36.19047619047619 93.54497354497356,35.76719576719577 93.12169312169313,35.34391534391535 92.69841269841271,34.920634920634924 92.06349206349208,34.4973544973545 91.64021164021165,34.074074074074076 91.21693121693123,33.65079365079365 90.7936507936508,33.22751322751323 90.37037037037038,32.804232804232804 89.94708994708995,32.38095238095239 89.52380952380953,31.95767195767196 89.1005291005291,31.53439153439154 88.67724867724868,31.111111111111114 88.25396825396827,30.68783068783069 87.83068783068784,30.264550264550266 87.40740740740742,29.629629629629633 86.98412698412699,28.994708994708997 86.77248677248677,28.35978835978836 86.56084656084657,27.724867724867728 86.34920634920636,27.089947089947092 85.92592592592594,26.455026455026456 85.71428571428572,25.820105820105823 85.5026455026455,25.185185185185187 85.29100529100529,24.55026455026455 85.07936507936509,23.915343915343918 85.07936507936509,23.280423280423282 85.07936507936509,22.645502645502646 84.86772486772487,22.010582010582013 84.86772486772487,21.375661375661377 84.86772486772487,20.740740740740744 85.07936507936509,20.105820105820108 85.29100529100529,19.47089947089947 85.5026455026455,18.83597883597884 85.71428571428572,18.201058201058203 85.71428571428572,17.566137566137566 86.13756613756614,16.931216931216934 86.56084656084657,16.296296296296298 86.77248677248677,15.661375661375663 87.1957671957672,15.238095238095239 87.61904761904762,14.814814814814817 88.04232804232805,14.391534391534393 88.46560846560847,13.96825396825397 88.8888888888889,13.333333333333334 89.52380952380953,12.910052910052912 90.15873015873017,12.486772486772487 90.7936507936508,12.275132275132275 91.21693121693123,11.851851851851853 91.85185185185186,11.640211640211641 92.4867724867725,11.216931216931219 93.12169312169313,11.005291005291006 93.75661375661376,10.793650793650794 94.39153439153439,10.582010582010582 95.02645502645504,10.15873015873016 95.66137566137567,9.947089947089948 96.2962962962963,9.735449735449736 96.93121693121694,9.523809523809524 97.56613756613757,9.312169312169313 98.2010582010582,8.88888888888889 98.83597883597885,8.677248677248677 99.47089947089948,8.465608465608467 100.10582010582011,8.253968253968255 100.74074074074075,8.042328042328043 101.37566137566138,7.6190476190476195 102.01058201058201,7.407407407407408 102.64550264550266,7.195767195767196 103.28042328042329,6.984126984126985 103.91534391534393,6.772486772486773 104.55026455026456,6.560846560846561 105.18518518518519,6.137566137566138 105.82010582010582,5.9259259259259265 106.45502645502647,5.714285714285714 107.0899470899471,5.502645502645503 107.72486772486774,5.291005291005291 108.35978835978837,5.07936507936508 108.994708994709,5.07936507936508 109.62962962962963,4.656084656084657 110.26455026455027,4.656084656084657 110.89947089947091,4.444444444444445 111.53439153439155,4.2328042328042335 112.16931216931218,4.021164021164021 112.80423280423281,4.021164021164021 113.22751322751324,3.597883597883598 113.86243386243387,3.8095238095238098 114.49735449735451,3.597883597883598 115.13227513227514,3.3862433862433865 115.76719576719577,3.174603174603175 116.4021164021164,3.174603174603175 117.03703703703705,2.9629629629629632 117.67195767195768,2.7513227513227516 118.30687830687832,2.53968253968254 118.94179894179895,2.7513227513227516 119.57671957671958,2.53968253968254 120.21164021164022,2.3280423280423284 120.84656084656086,2.1164021164021167 121.4814814814815,2.1164021164021167 122.11640211640213,1.9047619047619049 122.75132275132276,1.9047619047619049 123.3862433862434,1.9047619047619049 124.02116402116403,1.6931216931216932 124.65608465608466,1.6931216931216932 125.2910052910053,1.4814814814814816 125.92592592592594,1.4814814814814816 126.56084656084657,1.4814814814814816 127.1957671957672,1.26984126984127 127.83068783068784,1.0582010582010584 128.46560846560848,1.0582010582010584 129.10052910052912,1.0582010582010584 129.73544973544975,0.8465608465608466 130.37037037037038,0.8465608465608466 131.005291005291,0.8465608465608466 131.64021164021165,0.8465608465608466 132.27513227513228,0.8465608465608466 132.9100529100529,0.8465608465608466 133.54497354497354,0.634920634920635 134.17989417989418,0.634920634920635 134.81481481481484,0.634920634920635 135.44973544973547,0.634920634920635 136.0846560846561,0.4232804232804233 136.71957671957674,0.4232804232804233 137.35449735449737,0.4232804232804233 137.989417989418,0.4232804232804233 138.62433862433863,0.634920634920635 139.25925925925927,0.4232804232804233 139.8941798941799,0.21164021164021166 140.52910052910053,0.21164021164021166 144.12698412698413,0.0" style="fill:none; stroke:#cc0000; stroke-width:1.0"  /><polyline points="144.12698412698413,0.0 144.12698412698413,3.3862433862433865 144.12698412698413,4.021164021164021 144.12698412698413,4.656084656084657 143.91534391534393,5.291005291005291 143.91534391534393,5.9259259259259265 143.91534391534393,6.560846560846561 143.91534391534393,7.195767195767196 143.91534391534393,7.830687830687832 143.91534391534393,8.465608465608467 144.12698412698413,9.100529100529101 144.12698412698413,9.735449735449736 144.12698412698413,10.370370370370372 144.12698412698413,11.005291005291006 144.12698412698413,11.640211640211641 144.12698412698413,12.275132275132275 144.33862433862436,12.910052910052912 144.33862433862436,13.544973544973546 144.33862433862436,14.17989417989418 144.33862433862436,14.814814814814817 144.33862433862436,15.449735449735451 144.33862433862436,16.084656084656086 144.33862433862436,16.71957671957672 144.55026455026456,17.354497354497354 144.55026455026456,17.98941798941799 144.55026455026456,18.624338624338627 144.55026455026456,19.25925925925926 144.55026455026456,19.894179894179896 144.55026455026456,20.529100529100532 144.76190476190476,21.164021164021165 144.76190476190476,21.7989417989418 144.76190476190476,22.433862433862437 144.76190476190476,23.06878306878307 144.973544973545,23.703703703703706 144.973544973545,24.338624338624342 144.973544973545,24.973544973544975 144.973544973545,25.60846560846561 144.973544973545,26.243386243386244 145.1851851851852,26.87830687830688 145.1851851851852,27.513227513227516 145.1851851851852,28.14814814814815 145.1851851851852,28.783068783068785 145.1851851851852,29.41798941798942 145.1851851851852,30.052910052910054 145.39682539682542,30.68783068783069 145.60846560846562,31.322751322751326 145.60846560846562,31.95767195767196 145.60846560846562,32.592592592592595 145.60846560846562,33.22751322751323 145.82010582010582,33.86243386243387 145.82010582010582,34.4973544973545 145.82010582010582,35.13227513227513 145.82010582010582,35.76719576719577 145.82010582010582,36.402116402116405 146.03174603174605,37.03703703703704 146.03174603174605,37.67195767195768 146.03174603174605,38.30687830687831 146.03174603174605,38.94179894179894 146.03174603174605,39.57671957671958 146.24338624338625,40.211640211640216 146.24338624338625,40.84656084656085 146.24338624338625,41.48148148148149 146.24338624338625,42.11640211640212 146.24338624338625,42.75132275132275 146.24338624338625,43.386243386243386 146.45502645502646,44.021164021164026 146.45502645502646,44.65608465608466 146.45502645502646,45.29100529100529 146.45502645502646,45.92592592592593 146.45502645502646,46.560846560846564 146.45502645502646,47.195767195767196 146.66666666666669,47.830687830687836 146.66666666666669,48.46560846560847 146.66666666666669,49.1005291005291 146.66666666666669,49.73544973544974 146.66666666666669,50.370370370370374 146.8783068783069,51.00529100529101 146.8783068783069,51.640211640211646 146.8783068783069,52.27513227513228 146.8783068783069,52.91005291005291 146.8783068783069,53.54497354497355 147.0899470899471,54.179894179894184 147.0899470899471,54.81481481481482 147.0899470899471,55.449735449735456 147.0899470899471,56.08465608465609 147.30158730158732,56.71957671957672 147.30158730158732,57.35449735449736 147.30158730158732,57.989417989417994 147.30158730158732,58.62433862433863 147.30158730158732,59.25925925925927 147.30158730158732,59.8941798941799 147.51322751322752,60.52910052910053 147.51322751322752,61.16402116402117 147.51322751322752,61.798941798941804 147.51322751322752,62.43386243386244 147.51322751322752,63.06878306878308 147.72486772486775,63.70370370370371 147.72486772486775,64.33862433862434 147.72486772486775,64.97354497354497 147.72486772486775,65.60846560846561 147.93650793650795,66.24338624338625 148.14814814814815,66.87830687830689 148.14814814814815,67.51322751322752 148.14814814814815,68.14814814814815 148.14814814814815,68.78306878306879 148.14814814814815,69.41798941798942 148.35978835978838,70.05291005291006 148.35978835978838,70.6878306878307 148.35978835978838,71.32275132275133 148.35978835978838,71.95767195767196 148.35978835978838,72.5925925925926 148.35978835978838,73.22751322751323 148.57142857142858,73.86243386243387 148.57142857142858,74.49735449735451 148.57142857142858,75.13227513227514 148.57142857142858,75.76719576719577 148.57142857142858,76.4021164021164 148.57142857142858,77.03703703703704 148.78306878306879,77.67195767195767 148.78306878306879,78.30687830687832 148.78306878306879,78.94179894179895 148.78306878306879,79.57671957671958 148.78306878306879,80.21164021164022 148.99470899470901,80.84656084656085 148.99470899470901,81.48148148148148 148.99470899470901,82.11640211640213 148.99470899470901,82.75132275132276 148.99470899470901,83.3862433862434 149.20634920634922,84.02116402116403 149.20634920634922,84.65608465608466 149.20634920634922,85.29100529100529 149.20634920634922,85.92592592592594 149.20634920634922,86.56084656084657 149.41798941798942,87.1957671957672 149.41798941798942,87.83068783068784 149.41798941798942,88.46560846560847 149.41798941798942,89.1005291005291 149.41798941798942,89.73544973544975 149.41798941798942,90.37037037037038 149.62962962962965,91.00529100529101 149.62962962962965,91.64021164021165 149.62962962962965,92.27513227513228 149.62962962962965,92.91005291005291 149.84126984126985,93.54497354497356 149.84126984126985,94.17989417989419 149.84126984126985,94.81481481481482 149.84126984126985,95.44973544973546 149.84126984126985,96.08465608465609 150.05291005291005,96.71957671957672 150.05291005291005,97.35449735449737 150.05291005291005,97.989417989418 150.05291005291005,98.62433862433863 150.05291005291005,99.25925925925927 150.26455026455028,99.8941798941799 150.26455026455028,100.52910052910053 150.47619047619048,101.16402116402116 150.47619047619048,101.79894179894181 150.47619047619048,102.43386243386244 150.47619047619048,103.06878306878308 150.6878306878307,103.70370370370371 150.6878306878307,104.33862433862434 150.6878306878307,104.97354497354497 150.6878306878307,105.60846560846562 150.6878306878307,106.24338624338625 150.8994708994709,106.87830687830689 150.8994708994709,107.51322751322752 150.8994708994709,108.14814814814815 150.8994708994709,108.78306878306879 150.8994708994709,109.41798941798943 151.11111111111111,110.05291005291006 151.11111111111111,110.6878306878307 151.11111111111111,111.32275132275133 151.11111111111111,111.95767195767196 151.11111111111111,112.5925925925926 151.11111111111111,113.22751322751324 151.32275132275134,113.86243386243387 151.32275132275134,114.49735449735451 151.32275132275134,115.13227513227514 151.32275132275134,115.76719576719577 151.32275132275134,116.4021164021164 151.32275132275134,117.03703703703705 151.53439153439155,117.67195767195768 151.53439153439155,118.30687830687832 151.53439153439155,118.94179894179895 151.53439153439155,119.57671957671958 151.53439153439155,120.21164021164022 151.53439153439155,120.84656084656086 151.74603174603175,121.4814814814815 151.74603174603175,122.11640211640213 151.74603174603175,122.75132275132276 151.74603174603175,123.3862433862434 151.95767195767198,124.02116402116403 151.95767195767198,124.65608465608466 151.95767195767198,125.2910052910053 151.95767195767198,125.92592592592594 151.95767195767198,126.56084656084657 152.16931216931218,127.1957671957672 152.16931216931218,127.83068783068784 152.16931216931218,128.46560846560848 151.95767195767198,129.10052910052912 152.16931216931218,129.73544973544975 152.16931216931218,130.37037037037038 152.16931216931218,131.005291005291 152.16931216931218,131.64021164021165 152.16931216931218,132.27513227513228 152.16931216931218,132.9100529100529 152.38095238095238,133.54497354497354 152.38095238095238,134.17989417989418 152.38095238095238,134.81481481481484 152.38095238095238,135.44973544973547 152.8042328042328,136.0846560846561 152.8042328042328,136.71957671957674 152.8042328042328,137.35449735449737 153.01587301587304,137.989417989418 153.01587301587304,138.62433862433863 153.01587301587304,139.25925925925927 153.01587301587304,139.8941798941799 153.01587301587304,140.52910052910053 153.01587301587304,141.16402116402116 153.22751322751324,141.7989417989418 153.22751322751324,142.43386243386246 153.22751322751324,143.0687830687831 153.22751322751324,143.70370370370372 153.22751322751324,144.33862433862436 153.43915343915344,144.973544973545 153.43915343915344,145.60846560846562 153.43915343915344,146.24338624338625 153.43915343915344,146.8783068783069 153.65079365079367,147.51322751322752 153.65079365079367,148.14814814814815 153.86243386243387,148.78306878306879 154.07407407407408,151.95767195767198" style="fill:none; stroke:#999900; stroke-width:3.0" stroke-dasharray="6,3" /><polyline points="154.07407407407408,151.95767195767198 150.8994708994709,151.95767195767198 150.26455026455028,151.95767195767198 149.62962962962965,151.95767195767198 148.99470899470901,151.95767195767198 148.35978835978838,151.95767195767198 147.72486772486775,151.95767195767198 147.0899470899471,151.95767195767198 146.45502645502646,151.95767195767198 145.82010582010582,151.95767195767198 145.1851851851852,151.95767195767198 144.55026455026456,151.95767195767198 143.91534391534393,151.95767195767198 143.2804232804233,151.95767195767198 142.64550264550266,152.16931216931218 142.01058201058203,152.16931216931218 141.3756613756614,152.16931216931218 140.74074074074076,152.16931216931218 140.10582010582013,152.38095238095238 139.47089947089947,152.5925925925926 138.83597883597884,152.5925925925926 138.2010582010582,152.5925925925926 137.56613756613757,152.5925925925926 136.93121693121694,152.5925925925926 136.2962962962963,152.8042328042328 135.66137566137567,152.8042328042328 135.02645502645504,153.01587301587304 134.3915343915344,153.01587301587304 133.75661375661377,153.01587301587304 133.12169312169314,153.01587301587304 132.4867724867725,153.22751322751324 131.85185185185185,153.22751322751324 131.21693121693121,153.22751322751324 130.58201058201058,153.43915343915344 129.94708994708995,153.43915343915344 129.31216931216932,153.43915343915344 128.67724867724868,153.65079365079367 128.04232804232805,153.65079365079367 127.40740740740742,153.86243386243387 126.77248677248679,153.86243386243387 126.13756613756615,153.86243386243387 125.5026455026455,154.07407407407408 124.86772486772487,154.07407407407408 124.23280423280424,154.2857142857143 123.59788359788361,154.2857142857143 122.96296296296298,154.4973544973545 122.32804232804234,154.4973544973545 121.6931216931217,154.4973544973545 121.05820105820106,154.7089947089947 120.42328042328043,154.7089947089947 119.7883597883598,154.92063492063494 119.15343915343917,154.92063492063494 118.51851851851853,155.13227513227514 117.88359788359789,155.13227513227514 117.24867724867725,155.34391534391534 116.61375661375662,155.34391534391534 115.97883597883599,155.34391534391534 115.34391534391536,155.55555555555557 114.70899470899472,155.55555555555557 114.07407407407408,155.76719576719577 113.43915343915344,155.978835978836 112.80423280423281,155.978835978836 112.16931216931218,156.1904761904762 111.53439153439155,156.4021164021164 110.89947089947091,156.4021164021164 110.26455026455027,156.61375661375664 109.62962962962963,156.82539682539684 108.994708994709,157.03703703703704 108.35978835978837,157.03703703703704 107.72486772486774,157.24867724867727 107.0899470899471,157.46031746031747 106.45502645502647,157.67195767195767 105.82010582010582,158.0952380952381 105.18518518518519,158.51851851851853 104.55026455026456,158.94179894179896 103.91534391534393,159.15343915343917 103.28042328042329,159.36507936507937 102.85714285714286,159.7883597883598 102.22222222222223,160.0 101.5873015873016,160.42328042328043 100.95238095238096,160.63492063492066 100.31746031746033,161.05820105820106 99.68253968253968,161.4814814814815 99.04761904761905,161.6931216931217 98.41269841269842,162.11640211640213 97.77777777777779,162.53968253968256 97.14285714285715,162.96296296296296 96.50793650793652,163.3862433862434 96.08465608465609,163.80952380952382 95.66137566137567,164.23280423280426 95.23809523809524,164.65608465608466 94.81481481481482,165.0793650793651 94.39153439153439,165.71428571428572 94.17989417989419,166.34920634920636 93.75661375661376,166.984126984127 93.54497354497356,167.61904761904762 93.33333333333334,168.25396825396825 93.12169312169313,168.8888888888889 92.91005291005291,169.52380952380955 92.91005291005291,170.15873015873018 92.91005291005291,170.7936507936508 93.12169312169313,171.42857142857144 93.33333333333334,172.06349206349208 93.33333333333334,172.6984126984127 93.54497354497356,173.33333333333334 93.75661375661376,173.96825396825398 93.96825396825398,174.6031746031746 94.39153439153439,175.23809523809524 94.81481481481482,175.87301587301587 95.23809523809524,176.50793650793653 95.44973544973546,177.14285714285717 95.87301587301587,177.7777777777778 96.2962962962963,178.2010582010582 96.71957671957672,178.62433862433863 97.14285714285715,179.25925925925927 97.56613756613757,179.6825396825397 98.2010582010582,180.10582010582013 98.62433862433863,180.52910052910053 99.04761904761905,180.95238095238096 99.47089947089948,181.3756613756614 99.8941798941799,181.79894179894183 100.52910052910053,182.22222222222223 100.95238095238096,182.85714285714286 101.37566137566138,183.2804232804233 101.79894179894181,183.70370370370372 102.22222222222223,184.12698412698415 102.64550264550266,184.55026455026456 103.06878306878308,185.1851851851852 103.4920634920635,185.60846560846562 103.91534391534393,186.24338624338625 104.33862433862434,186.66666666666669 104.76190476190477,187.30158730158732 105.18518518518519,187.93650793650795 105.60846560846562,188.35978835978838 106.03174603174604,188.99470899470901 106.45502645502647,189.62962962962965 106.87830687830689,190.26455026455028 107.0899470899471,190.8994708994709 107.51322751322752,191.32275132275134 107.72486772486774,191.95767195767198 108.14814814814815,192.5925925925926 108.35978835978837,193.22751322751324 108.78306878306879,193.86243386243387 109.20634920634922,194.4973544973545 109.41798941798943,195.13227513227514 109.62962962962963,195.76719576719577 110.05291005291006,196.4021164021164 110.26455026455027,197.03703703703704 110.47619047619048,197.6719576719577 110.89947089947091,198.30687830687833 111.11111111111111,198.94179894179896 111.32275132275133,199.5767195767196 111.53439153439155,200.21164021164023 111.95767195767196,200.84656084656086 112.16931216931218,201.4814814814815 112.3809523809524,202.11640211640213 112.5925925925926,202.75132275132276 112.80423280423281,203.3862433862434 113.01587301587303,204.02116402116403 113.22751322751324,204.65608465608466 113.43915343915344,205.29100529100532 113.43915343915344,205.92592592592595 113.86243386243387,206.34920634920636 113.86243386243387,206.984126984127 114.07407407407408,207.61904761904765 114.07407407407408,208.25396825396828 114.07407407407408,208.8888888888889 114.28571428571429,209.52380952380955 114.28571428571429,210.15873015873018 114.07407407407408,210.7936507936508 114.07407407407408,211.42857142857144 113.86243386243387,212.06349206349208 113.65079365079366,212.6984126984127 113.43915343915344,213.33333333333334 113.22751322751324,213.96825396825398 113.01587301587303,214.6031746031746 112.80423280423281,215.23809523809524 112.3809523809524,215.8730158730159 111.95767195767196,216.50793650793653 111.74603174603176,217.14285714285717 111.32275132275133,217.7777777777778 110.89947089947091,218.41269841269843 110.47619047619048,219.04761904761907 110.05291005291006,219.6825396825397 109.62962962962963,220.10582010582013 109.20634920634922,220.74074074074076 108.78306878306879,221.1640211640212 108.35978835978837,221.5873015873016 107.93650793650795,222.22222222222223 107.51322751322752,222.64550264550266 107.0899470899471,223.0687830687831 106.66666666666667,223.49206349206352 106.24338624338625,223.91534391534393 105.82010582010582,224.33862433862436 105.3968253968254,224.7619047619048 104.97354497354497,225.1851851851852 104.55026455026456,225.60846560846562 103.91534391534393,226.03174603174605 103.28042328042329,226.45502645502648 102.64550264550266,226.66666666666669 102.22222222222223,227.08994708994712 101.5873015873016,227.30158730158732 100.95238095238096,227.72486772486775 100.31746031746033,227.93650793650795 99.68253968253968,228.14814814814815 99.04761904761905,228.35978835978838 98.41269841269842,228.7830687830688 97.77777777777779,228.99470899470901 97.14285714285715,228.99470899470901 96.50793650793652,229.20634920634922 95.87301587301587,229.41798941798945 95.23809523809524,229.62962962962965 94.60317460317461,229.84126984126985 93.96825396825398,230.05291005291008 93.33333333333334,230.05291005291008 92.69841269841271,230.26455026455028 92.06349206349208,230.47619047619048 91.42857142857143,230.47619047619048 90.7936507936508,230.6878306878307 90.15873015873017,230.6878306878307 89.52380952380953,230.8994708994709 88.8888888888889,230.8994708994709 88.25396825396827,230.8994708994709 87.61904761904762,230.8994708994709 86.98412698412699,231.11111111111114 86.34920634920636,231.11111111111114 85.71428571428572,230.8994708994709 85.07936507936509,230.8994708994709 84.44444444444446,230.6878306878307 83.80952380952381,230.6878306878307 83.17460317460318,230.6878306878307 82.53968253968254,230.47619047619048 81.90476190476191,230.47619047619048 81.26984126984128,230.26455026455028 80.63492063492065,230.05291005291008 80.0,229.84126984126985 79.36507936507937,229.62962962962965 78.73015873015873,229.41798941798945 78.0952380952381,228.99470899470901 77.46031746031747,228.7830687830688 76.82539682539684,228.35978835978838 76.19047619047619,227.93650793650795 75.55555555555556,227.51322751322752 74.92063492063492,227.08994708994712 74.49735449735451,226.66666666666669 73.86243386243387,226.24338624338625 73.43915343915344,225.82010582010582 73.01587301587303,225.39682539682542 72.5925925925926,224.973544973545 72.16931216931218,224.55026455026456 71.74603174603175,224.12698412698415 71.32275132275133,223.70370370370372 70.8994708994709,223.0687830687831 70.47619047619048,222.64550264550266 70.05291005291006,222.22222222222223 69.62962962962963,221.5873015873016 69.20634920634922,220.95238095238096 68.994708994709,220.31746031746033 68.57142857142858,219.6825396825397 68.14814814814815,219.04761904761907 67.72486772486774,218.41269841269843 67.51322751322752,217.7777777777778 67.51322751322752,217.14285714285717 67.3015873015873,216.50793650793653 66.87830687830689,216.0846560846561 66.66666666666667,215.44973544973547 66.45502645502646,214.81481481481484 66.24338624338625,214.1798941798942 66.03174603174604,213.54497354497357 65.82010582010582,212.91005291005294 65.60846560846561,212.27513227513228 65.3968253968254,211.64021164021165 65.18518518518519,211.005291005291 65.18518518518519,210.37037037037038 64.97354497354497,209.73544973544975 64.76190476190477,209.10052910052912 64.76190476190477,208.46560846560848 64.55026455026456,207.83068783068785 64.55026455026456,207.19576719576722 64.55026455026456,206.56084656084658 64.12698412698413,205.92592592592595 64.12698412698413,205.29100529100532 64.12698412698413,204.65608465608466 64.12698412698413,204.02116402116403 64.12698412698413,203.3862433862434 64.12698412698413,202.75132275132276 64.12698412698413,202.11640211640213 64.12698412698413,201.4814814814815 64.12698412698413,200.84656084656086 64.12698412698413,200.21164021164023 64.33862433862434,199.5767195767196 64.33862433862434,198.94179894179896 64.55026455026456,198.30687830687833 64.76190476190477,197.6719576719577 64.76190476190477,197.03703703703704 64.97354497354497,196.4021164021164 65.18518518518519,195.76719576719577 65.3968253968254,195.13227513227514 65.3968253968254,194.4973544973545 65.60846560846561,193.86243386243387 65.82010582010582,193.22751322751324 66.03174603174604,192.5925925925926 66.03174603174604,191.95767195767198 66.24338624338625,191.32275132275134 66.45502645502646,190.6878306878307 66.45502645502646,190.05291005291008 66.66666666666667,189.41798941798945 66.87830687830689,188.78306878306879 67.08994708994709,188.14814814814815 67.08994708994709,187.51322751322752 67.08994708994709,186.8783068783069 67.3015873015873,186.24338624338625 67.3015873015873,185.60846560846562 67.51322751322752,184.973544973545 67.72486772486774,184.33862433862436 67.72486772486774,183.70370370370372 67.72486772486774,183.0687830687831 67.93650793650794,182.43386243386246 68.14814814814815,181.79894179894183 68.14814814814815,181.16402116402116 68.35978835978837,180.52910052910053 68.35978835978837,179.8941798941799 68.57142857142858,179.25925925925927 68.57142857142858,178.62433862433863 68.57142857142858,177.989417989418 68.57142857142858,177.35449735449737 68.35978835978837,176.71957671957674 68.35978835978837,176.0846560846561 68.14814814814815,175.44973544973547 68.14814814814815,174.81481481481484 67.93650793650794,174.1798941798942 67.51322751322752,173.54497354497354 67.3015873015873,172.9100529100529 67.08994708994709,172.27513227513228 66.66666666666667,171.85185185185188 66.24338624338625,171.21693121693124 65.82010582010582,170.7936507936508 65.3968253968254,170.37037037037038 64.97354497354497,169.73544973544975 64.33862433862434,169.31216931216932 63.91534391534392,168.8888888888889 63.280423280423285,168.46560846560848 62.85714285714286,168.04232804232805 62.22222222222223,167.61904761904762 61.58730158730159,167.19576719576722 60.952380952380956,166.984126984127 60.31746031746032,166.56084656084658 59.682539682539684,166.13756613756615 59.04761904761905,165.92592592592595 58.41269841269842,165.71428571428572 57.777777777777786,165.50264550264552 57.142857142857146,165.0793650793651 56.50793650793651,164.8677248677249 55.87301587301588,164.65608465608466 55.23809523809524,164.44444444444446 54.60317460317461,164.23280423280426 53.968253968253975,164.02116402116403 53.333333333333336,163.80952380952382 52.6984126984127,163.80952380952382 52.06349206349207,163.59788359788362 51.42857142857143,163.59788359788362 50.7936507936508,163.3862433862434 50.158730158730165,163.3862433862434 49.523809523809526,163.1746031746032 48.88888888888889,163.1746031746032 48.25396825396826,163.1746031746032 47.61904761904762,163.1746031746032 46.98412698412699,163.1746031746032 46.349206349206355,163.1746031746032 45.714285714285715,163.1746031746032 45.07936507936508,163.1746031746032 44.44444444444445,163.1746031746032 43.80952380952381,163.3862433862434 43.17460317460318,163.3862433862434 42.539682539682545,163.3862433862434 41.904761904761905,163.3862433862434 41.26984126984127,163.3862433862434 40.63492063492064,163.3862433862434 40.0,163.3862433862434 39.36507936507937,163.3862433862434 38.730158730158735,163.59788359788362 38.095238095238095,163.59788359788362 34.70899470899471,163.80952380952382" style="fill:none; stroke:#00aa99; stroke-width:1.0"  /><polyline points="34.70899470899471,163.80952380952382 35.13227513227513,160.63492063492066 35.34391534391535,160.0 35.34391534391535,159.36507936507937 35.34391534391535,158.73015873015873 35.55555555555556,158.0952380952381 35.55555555555556,157.46031746031747 35.76719576719577,156.82539682539684 35.76719576719577,156.1904761904762 35.97883597883598,155.55555555555557 35.97883597883598,154.92063492063494 36.19047619047619,154.2857142857143 36.19047619047619,153.65079365079367 36.402116402116405,153.01587301587304 36.402116402116405,152.38095238095238 36.613756613756614,151.74603174603175 36.613756613756614,151.11111111111111 36.82539682539683,150.47619047619048 37.03703703703704,149.84126984126985 37.03703703703704,149.20634920634922 37.248677248677254,148.57142857142858 37.248677248677254,147.93650793650795 37.248677248677254,147.30158730158732 37.46031746031746,146.66666666666669 37.46031746031746,146.03174603174605 37.67195767195768,145.39682539682542 37.67195767195768,144.76190476190476 37.67195767195768,144.12698412698413 37.883597883597886,143.4920634920635 37.883597883597886,142.85714285714286 38.095238095238095,142.22222222222223 38.095238095238095,141.5873015873016 38.095238095238095,140.95238095238096 38.30687830687831,140.31746031746033 38.30687830687831,139.6825396825397 38.51851851851852,139.04761904761907 38.51851851851852,138.41269841269843 38.51851851851852,137.7777777777778 38.730158730158735,137.14285714285717 38.730158730158735,136.5079365079365 38.51851851851852,135.87301587301587 38.51851851851852,135.23809523809524 38.51851851851852,134.6031746031746 38.730158730158735,133.96825396825398 38.730158730158735,133.33333333333334 38.730158730158735,132.6984126984127 38.730158730158735,132.06349206349208 38.730158730158735,131.42857142857144 38.730158730158735,130.7936507936508 38.730158730158735,130.15873015873018 38.730158730158735,129.52380952380955 38.730158730158735,128.88888888888889 38.730158730158735,128.25396825396825 38.730158730158735,127.61904761904763 38.730158730158735,126.98412698412699 38.730158730158735,126.34920634920636 38.730158730158735,125.71428571428572 38.51851851851852,125.07936507936509 38.51851851851852,124.44444444444446 38.51851851851852,123.80952380952382 38.51851851851852,123.17460317460318 38.51851851851852,122.53968253968254 38.30687830687831,121.90476190476191 38.30687830687831,121.26984126984128 38.30687830687831,120.63492063492065 38.095238095238095,120.00000000000001 38.095238095238095,119.36507936507937 38.095238095238095,118.73015873015873 38.095238095238095,118.0952380952381 38.095238095238095,117.46031746031747 37.883597883597886,116.82539682539684 37.883597883597886,116.1904761904762 37.67195767195768,115.55555555555557 37.46031746031746,114.92063492063492 37.248677248677254,114.28571428571429 36.82539682539683,113.65079365079366 36.613756613756614,113.01587301587303 36.19047619047619,112.5925925925926 35.76719576719577,111.95767195767196 35.34391534391535,111.53439153439155 34.70899470899471,111.32275132275133 34.28571428571429,110.89947089947091 33.65079365079365,110.6878306878307 33.01587301587302,110.26455026455027 32.38095238095239,110.26455026455027 31.746031746031747,110.05291005291006 31.111111111111114,109.84126984126985 30.476190476190478,109.84126984126985 29.841269841269842,109.84126984126985 29.20634920634921,109.84126984126985 28.571428571428573,109.84126984126985 27.93650793650794,110.05291005291006 27.301587301587304,110.05291005291006 26.666666666666668,110.26455026455027 26.031746031746035,110.47619047619048 25.3968253968254,110.47619047619048 24.761904761904763,110.6878306878307 24.12698412698413,111.11111111111111 23.492063492063494,111.11111111111111 22.857142857142858,111.53439153439155 22.222222222222225,111.74603174603176 21.58730158730159,111.95767195767196 20.952380952380953,112.16931216931218 20.31746031746032,112.3809523809524 19.682539682539684,112.5925925925926 19.047619047619047,112.5925925925926 18.412698412698415,112.80423280423281 17.77777777777778,113.01587301587303 17.142857142857146,113.22751322751324 16.50793650793651,113.22751322751324 15.873015873015873,113.43915343915344 15.238095238095239,113.43915343915344 14.603174603174605,113.65079365079366 13.96825396825397,113.65079365079366 13.333333333333334,113.65079365079366 12.6984126984127,113.65079365079366 12.063492063492065,113.65079365079366 11.428571428571429,113.65079365079366 10.793650793650794,113.65079365079366 10.15873015873016,113.43915343915344 9.523809523809524,113.43915343915344 8.88888888888889,113.22751322751324 8.253968253968255,113.22751322751324 7.6190476190476195,113.01587301587303 6.984126984126985,112.80423280423281 6.34920634920635,112.5925925925926 5.714285714285714,112.3809523809524 5.07936507936508,111.95767195767196 4.444444444444445,111.53439153439155 3.8095238095238098,111.11111111111111 3.3862433862433865,110.6878306878307 2.9629629629629632,110.26455026455027 2.7513227513227516,109.62962962962963 2.3280423280423284,109.20634920634922 2.1164021164021167,108.57142857142858 1.6931216931216932,107.93650793650795 1.4814814814814816,107.3015873015873 1.26984126984127,106.66666666666667 1.0582010582010584,106.03174603174604 1.0582010582010584,105.3968253968254 0.8465608465608466,104.76190476190477 0.634920634920635,104.12698412698414 0.634920634920635,103.4920634920635 0.634920634920635,102.85714285714286 0.4232804232804233,102.22222222222223 0.4232804232804233,101.5873015873016 0.21164021164021166,100.95238095238096 0.21164021164021166,100.31746031746033 0.21164021164021166,99.68253968253968 0.21164021164021166,99.04761904761905 0.4232804232804233,98.41269841269842 0.4232804232804233,97.77777777777779 0.4232804232804233,97.14285714285715 0.634920634920635,96.50793650793652 0.634920634920635,95.87301587301587 0.8465608465608466,95.23809523809524 0.8465608465608466,94.60317460317461 1.0582010582010584,93.96825396825398 1.0582010582010584,93.33333333333334 1.26984126984127,92.69841269841271 1.4814814814814816,92.06349206349208 1.6931216931216932,91.42857142857143 2.1164021164021167,90.7936507936508 2.3280423280423284,90.15873015873017 2.7513227513227516,89.52380952380953 2.9629629629629632,88.8888888888889 3.3862433862433865,88.46560846560847 3.8095238095238098,87.83068783068784 4.2328042328042335,87.40740740740742 4.656084656084657,86.98412698412699 5.07936507936508,86.56084656084657 5.714285714285714,86.13756613756614 6.137566137566138,85.71428571428572 6.772486772486773,85.5026455026455 7.6190476190476195,84.86772486772487 8.253968253968255,84.44444444444446 8.88888888888889,84.44444444444446 9.523809523809524,84.44444444444446 10.15873015873016,84.23280423280424 10.793650793650794,84.23280423280424 11.428571428571429,84.23280423280424 12.063492063492065,84.23280423280424 12.6984126984127,84.02116402116403 13.333333333333334,84.02116402116403 13.96825396825397,84.23280423280424 14.603174603174605,84.23280423280424 15.238095238095239,84.44444444444446 15.873015873015873,84.65608465608466 16.50793650793651,84.65608465608466 16.931216931216934,85.07936507936509 17.566137566137566,85.29100529100529 18.201058201058203,85.5026455026455 18.83597883597884,85.71428571428572 19.47089947089947,85.71428571428572 20.105820105820108,86.13756613756614 20.740740740740744,86.34920634920636 21.375661375661377,86.56084656084657 22.010582010582013,86.77248677248677 22.645502645502646,86.98412698412699 23.280423280423282,86.98412698412699 23.915343915343918,87.1957671957672 24.55026455026455,87.1957671957672 25.185185185185187,87.1957671957672 25.820105820105823,87.1957671957672 26.455026455026456,87.1957671957672 27.089947089947092,87.1957671957672 27.724867724867728,86.98412698412699 28.35978835978836,86.77248677248677 28.994708994708997,86.34920634920636 29.629629629629633,85.92592592592594 30.052910052910054,85.5026455026455 30.476190476190478,85.07936507936509 30.899470899470902,84.44444444444446 31.322751322751326,83.80952380952381 31.53439153439154,83.17460317460318 31.746031746031747,82.53968253968254 31.95767195767196,81.90476190476191 32.16931216931217,81.26984126984128 32.16931216931217,80.63492063492065 32.16931216931217,80.0 32.16931216931217,79.36507936507937 32.16931216931217,78.73015873015873 31.95767195767196,78.0952380952381 31.95767195767196,77.46031746031747 31.746031746031747,76.82539682539684 31.746031746031747,76.19047619047619 31.53439153439154,75.55555555555556 31.322751322751326,74.92063492063492 31.322751322751326,74.28571428571429 31.111111111111114,73.65079365079366 30.899470899470902,73.01587301587303 30.899470899470902,72.38095238095238 30.68783068783069,71.74603174603175 30.476190476190478,71.11111111111111 30.476190476190478,70.47619047619048 30.264550264550266,69.84126984126985 30.264550264550266,69.20634920634922 30.052910052910054,68.57142857142858 29.841269841269842,67.93650793650794 29.841269841269842,67.3015873015873 29.629629629629633,66.66666666666667 29.20634920634921,66.24338624338625 29.20634920634921,65.60846560846561 28.994708994708997,64.97354497354497 28.783068783068785,64.33862433862434 28.783068783068785,63.70370370370371 28.571428571428573,63.06878306878308 28.35978835978836,62.43386243386244 28.14814814814815,61.798941798941804 28.14814814814815,61.16402116402117 27.93650793650794,60.52910052910053 27.724867724867728,59.8941798941799 27.513227513227516,59.25925925925927 27.513227513227516,58.62433862433863 27.301587301587304,57.989417989417994 27.089947089947092,57.35449735449736 27.089947089947092,56.71957671957672 26.87830687830688,56.08465608465609 26.666666666666668,55.449735449735456 26.455026455026456,54.81481481481482 26.455026455026456,54.179894179894184 26.243386243386244,53.54497354497355 26.031746031746035,52.91005291005291 25.820105820105823,52.27513227513228 25.60846560846561,51.640211640211646 25.60846560846561,51.00529100529101 25.3968253968254,50.370370370370374 25.185185185185187,49.73544973544974 25.185185185185187,49.1005291005291 24.973544973544975,48.46560846560847 24.761904761904763,47.830687830687836 24.55026455026455,47.195767195767196 24.55026455026455,46.560846560846564 24.338624338624342,45.92592592592593 24.12698412698413,45.29100529100529 23.915343915343918,44.65608465608466 23.703703703703706,44.021164021164026 23.703703703703706,43.386243386243386 23.492063492063494,42.75132275132275 23.280423280423282,42.11640211640212 23.06878306878307,41.48148148148149 23.06878306878307,40.84656084656085 22.857142857142858,40.211640211640216 22.645502645502646,39.57671957671958 22.645502645502646,38.94179894179894 22.433862433862437,38.30687830687831 22.222222222222225,37.67195767195768 22.222222222222225,37.03703703703704 22.010582010582013,36.402116402116405 21.7989417989418,35.76719576719577 21.7989417989418,35.13227513227513 21.58730158730159,34.4973544973545 21.58730158730159,33.86243386243387 21.375661375661377,33.22751322751323 21.164021164021165,32.592592592592595 21.164021164021165,31.95767195767196 20.952380952380953,31.322751322751326 20.740740740740744,30.68783068783069 20.529100529100532,30.052910052910054 20.529100529100532,29.41798941798942 20.31746031746032,28.783068783068785 20.105820105820108,28.14814814814815 20.105820105820108,27.513227513227516 20.105820105820108,26.87830687830688 19.894179894179896,26.243386243386244 19.894179894179896,25.60846560846561 19.682539682539684,24.973544973544975 19.47089947089947,24.338624338624342 19.47089947089947,23.703703703703706 19.25925925925926,23.06878306878307 19.25925925925926,22.433862433862437 19.047619047619047,21.7989417989418 19.047619047619047,21.164021164021165 18.412698412698415,17.566137566137566" style="fill:none; stroke:#3300bb; stroke-width:1.0"  /><circle cx="18.412698412698415" cy="17.566137566137566" r="2.0" style="fill:none; stroke:#000000aa; stroke-width:0.25" /><circle cx="144.12698412698413" cy="0.0" r="2.0" style="fill:none; stroke:#000000aa; stroke-width:0.25" /><circle cx="154.07407407407408" cy="151.95767195767198" r="2.0" style="fill:none; stroke:#000000aa; stroke-width:0.25" /><circle cx="34.70899470899471" cy="163.80952380952382" r="2.0" style="fill:none; stroke:#000000aa; stroke-width:0.25" /><circle cx="19.47089947089947" cy="17.98941798941799" r="2.0" style="fill:none; stroke:#ff3366aa; stroke-width:0.25" /><circle cx="143.4920634920635" cy="0.4232804232804233" r="2.0" style="fill:none; stroke:#ff3366aa; stroke-width:0.25" /><circle cx="154.07407407407408" cy="151.74603174603175" r="2.0" style="fill:none; stroke:#ff3366aa; stroke-width:0.25" /><circle cx="35.13227513227513" cy="163.80952380952382" r="2.0" style="fill:none; stroke:#ff3366aa; stroke-width:0.25" /><polyline points="30.899470899470902,18.83597883597884 30.264550264550266,18.624338624338627 29.629629629629633,18.624338624338627 28.994708994708997,18.412698412698415 28.35978835978836,18.412698412698415 27.724867724867728,18.412698412698415 27.089947089947092,18.201058201058203 26.455026455026456,18.201058201058203 25.820105820105823,18.201058201058203 25.185185185185187,18.201058201058203 24.55026455026455,18.201058201058203 23.915343915343918,18.201058201058203 23.280423280423282,17.98941798941799 22.645502645502646,17.98941798941799" style="fill:none; stroke:#001100; stroke-width:1.0" /><polyline points="20.529100529100532,29.41798941798942 20.31746031746032,28.783068783068785 20.105820105820108,28.14814814814815 20.105820105820108,27.513227513227516 20.105820105820108,26.87830687830688 19.894179894179896,26.243386243386244 19.894179894179896,25.60846560846561 19.682539682539684,24.973544973544975 19.47089947089947,24.338624338624342 19.47089947089947,23.703703703703706 19.25925925925926,23.06878306878307 19.25925925925926,22.433862433862437 19.047619047619047,21.7989417989418 19.047619047619047,21.164021164021165" style="fill:none; stroke:#000011; stroke-width:1.0" /><polyline points="144.12698412698413,12.275132275132275 144.12698412698413,11.640211640211641 144.12698412698413,11.005291005291006 144.12698412698413,10.370370370370372 144.12698412698413,9.735449735449736 144.12698412698413,9.100529100529101 143.91534391534393,8.465608465608467 143.91534391534393,7.830687830687832 143.91534391534393,7.195767195767196 143.91534391534393,6.560846560846561 143.91534391534393,5.9259259259259265 143.91534391534393,5.291005291005291 144.12698412698413,4.656084656084657 144.12698412698413,4.021164021164021 144.12698412698413,3.3862433862433865" style="fill:none; stroke:#001100; stroke-width:1.0" /><polyline points="131.64021164021165,0.8465608465608466 132.27513227513228,0.8465608465608466 132.9100529100529,0.8465608465608466 133.54497354497354,0.634920634920635 134.17989417989418,0.634920634920635 134.81481481481484,0.634920634920635 135.44973544973547,0.634920634920635 136.0846560846561,0.4232804232804233 136.71957671957674,0.4232804232804233 137.35449735449737,0.4232804232804233 137.989417989418,0.4232804232804233 138.62433862433863,0.634920634920635 139.25925925925927,0.4232804232804233 139.8941798941799,0.21164021164021166 140.52910052910053,0.21164021164021166" style="fill:none; stroke:#000011; stroke-width:1.0" /><polyline points="142.64550264550266,152.16931216931218 143.2804232804233,151.95767195767198 143.91534391534393,151.95767195767198 144.55026455026456,151.95767195767198 145.1851851851852,151.95767195767198 145.82010582010582,151.95767195767198 146.45502645502646,151.95767195767198 147.0899470899471,151.95767195767198 147.72486772486775,151.95767195767198 148.35978835978838,151.95767195767198 148.99470899470901,151.95767195767198 149.62962962962965,151.95767195767198 150.26455026455028,151.95767195767198 150.8994708994709,151.95767195767198" style="fill:none; stroke:#001100; stroke-width:1.0" /><polyline points="153.01587301587304,139.8941798941799 153.01587301587304,140.52910052910053 153.01587301587304,141.16402116402116 153.22751322751324,141.7989417989418 153.22751322751324,142.43386243386246 153.22751322751324,143.0687830687831 153.22751322751324,143.70370370370372 153.22751322751324,144.33862433862436 153.43915343915344,144.973544973545 153.43915343915344,145.60846560846562 153.43915343915344,146.24338624338625 153.43915343915344,146.8783068783069 153.65079365079367,147.51322751322752 153.65079365079367,148.14814814814815 153.86243386243387,148.78306878306879" style="fill:none; stroke:#000011; stroke-width:1.0" /><polyline points="36.402116402116405,152.38095238095238 36.402116402116405,153.01587301587304 36.19047619047619,153.65079365079367 36.19047619047619,154.2857142857143 35.97883597883598,154.92063492063494 35.97883597883598,155.55555555555557 35.76719576719577,156.1904761904762 35.76719576719577,156.82539682539684 35.55555555555556,157.46031746031747 35.55555555555556,158.0952380952381 35.34391534391535,158.73015873015873 35.34391534391535,159.36507936507937 35.34391534391535,160.0 35.13227513227513,160.63492063492066" style="fill:none; stroke:#001100; stroke-width:1.0" /><polyline points="46.98412698412699,163.1746031746032 46.349206349206355,163.1746031746032 45.714285714285715,163.1746031746032 45.07936507936508,163.1746031746032 44.44444444444445,163.1746031746032 43.80952380952381,163.3862433862434 43.17460317460318,163.3862433862434 42.539682539682545,163.3862433862434 41.904761904761905,163.3862433862434 41.26984126984127,163.3862433862434 40.63492063492064,163.3862433862434 40.0,163.3862433862434 39.36507936507937,163.3862433862434 38.730158730158735,163.59788359788362 38.095238095238095,163.59788359788362" style="fill:none; stroke:#000011; stroke-width:1.0" /><polyline points="22.645502645502646,17.98941798941799 1.6931216931216932,15.873015873015873" style="fill:none; stroke:#ffaa00; stroke-width:0.4" /><polyline points="19.047619047619047,21.164021164021165 15.238095238095239,0.4232804232804233" style="fill:none; stroke:#aaff00; stroke-width:0.4" /><polyline points="144.12698412698413,3.3862433862433865 144.12698412698413,-17.77777777777778" style="fill:none; stroke:#ffaa00; stroke-width:0.4" /><polyline points="140.52910052910053,0.21164021164021166 161.6931216931217,-1.26984126984127" style="fill:none; stroke:#aaff00; stroke-width:0.4" /><polyline points="150.8994708994709,151.95767195767198 172.06349206349208,151.32275132275134" style="fill:none; stroke:#ffaa00; stroke-width:0.4" /><polyline points="153.86243386243387,148.78306878306879 155.76719576719577,169.94708994708995" style="fill:none; stroke:#aaff00; stroke-width:0.4" /><polyline points="35.13227513227513,160.63492063492066 31.95767195767196,181.5873015873016" style="fill:none; stroke:#ffaa00; stroke-width:0.4" /><polyline points="38.095238095238095,163.59788359788362 16.931216931216934,164.65608465608466" style="fill:none; stroke:#aaff00; stroke-width:0.4" /><circle cx="88.8888888888889" cy="106.87830687830689" r="1.0" style="fill:#444444; stroke-width:0" /><circle cx="77.46031746031747" cy="129.31216931216932" r="10.582010582010582" style="fill:#ff770022; stroke-width:0" /><circle cx="77.46031746031747" cy="129.31216931216932" r="1.0" style="fill:#ff7700; stroke-width:0" /></svg>