<?xml version="1.0" encoding="UTF-8" standalone="no"?><svg width="605.7142857142858" height="522.5396825396825" viewBox="-10 -10 221.90476190476193 194.1798941798942" xmlns="http://www.w3.org/2000/svg" xmlns:xlink="http://www.w3.org/1999/xlink"><polyline points="0.21164021164021166,64.76190476190477 3.3862433862433865,63.91534391534392 4.021164021164021,63.91534391534392 4.656084656084657,63.70370370370371 5.291005291005291,63.492063492063494 5.9259259259259265,63.280423280423285 6.560846560846561,63.280423280423285 7.195767195767196,63.06878306878308 7.830687830687832,62.85714285714286 8.465608465608467,62.64550264550265 9.100529100529101,62.64550264550265 9.735449735449736,62.43386243386244 10.370370370370372,62.22222222222223 11.005291005291006,62.22222222222223 11.640211640211641,61.798941798941804 12.275132275132275,61.798941798941804 12.910052910052912,61.58730158730159 13.544973544973546,61.37566137566138 14.17989417989418,61.16402116402117 14.814814814814817,60.952380952380956 15.449735449735451,60.74074074074075 16.084656084656086,60.52910052910053 16.71957671957672,60.52910052910053 17.354497354497354,60.31746031746032 17.98941798941799,60.10582010582011 18.624338624338627,59.682539682539684 19.25925925925926,59.682539682539684 19.894179894179896,59.470899470899475 20.529100529100532,59.470899470899475 21.164021164021165,59.25925925925927 21.7989417989418,59.25925925925927 22.222222222222225,58.83597883597884 22.857142857142858,58.62433862433863 23.492063492063494,58.41269841269842 24.12698412698413,58.41269841269842 24.761904761904763,57.989417989417994 25.3968253968254,57.989417989417994 26.031746031746035,57.777777777777786 26.666666666666668,57.56613756613757 27.301587301587304,57.56613756613757 27.724867724867728,57.142857142857146 28.35978835978836,56.93121693121694 28.994708994708997,56.93121693121694 29.629629629629633,56.71957671957672 30.264550264550266,56.50793650793651 30.899470899470902,56.2962962962963 31.53439153439154,56.08465608465609 32.16931216931217,55.87301587301588 32.804232804232804,55.661375661375665 33.43915343915344,55.23809523809524 34.074074074074076,55.02645502645503 34.70899470899471,54.81481481481482 35.34391534391535,54.60317460317461 35.97883597883598,54.39153439153439 36.613756613756614,54.39153439153439 37.248677248677254,54.179894179894184 37.883597883597886,53.968253968253975 38.51851851851852,53.54497354497355 39.15343915343916,53.333333333333336 39.78835978835979,53.12169312169313 40.211640211640216,52.6984126984127 40.84656084656085,52.6984126984127 41.48148148148149,52.48677248677249 42.11640211640212,52.27513227513228 42.75132275132275,51.851851851851855 43.386243386243386,51.640211640211646 44.021164021164026,51.42857142857143 44.65608465608466,51.00529100529101 45.29100529100529,50.58201058201058 45.92592592592593,50.370370370370374 46.560846560846564,49.94708994708995 46.98412698412699,49.523809523809526 47.40740740740741,49.1005291005291 48.042328042328045,48.677248677248684 48.46560846560847,48.042328042328045 48.88888888888889,47.40740740740741 49.1005291005291,46.77248677248678 49.31216931216932,46.13756613756614 49.523809523809526,45.50264550264551 49.73544973544974,44.867724867724874 49.73544973544974,44.232804232804234 49.73544973544974,43.5978835978836 49.523809523809526,42.96296296296297 49.523809523809526,42.32804232804233 49.1005291005291,41.6931216931217 48.88888888888889,41.058201058201064 48.46560846560847,40.63492063492064 48.042328042328045,40.0 47.61904761904762,39.57671957671958 46.98412698412699,39.15343915343916 46.560846560846564,38.730158730158735 45.92592592592593,38.30687830687831 45.29100529100529,37.883597883597886 44.65608465608466,37.67195767195768 44.232804232804234,37.248677248677254 43.5978835978836,37.03703703703704 42.96296296296297,36.613756613756614 42.32804232804233,36.19047619047619 41.6931216931217,35.97883597883598 41.26984126984127,35.55555555555556 40.63492063492064,35.34391534391535 40.211640211640216,34.920634920634924 39.57671957671958,34.4973544973545 38.94179894179894,34.28571428571429 38.51851851851852,33.86243386243387 37.883597883597886,33.43915343915344 37.46031746031746,33.01587301587302 37.03703703703704,32.592592592592595 36.613756613756614,32.16931216931217 36.19047619047619,31.53439153439154 35.76719576719577,31.111111111111114 35.34391534391535,30.68783068783069 35.13227513227513,30.052910052910054 34.70899470899471,29.41798941798942 34.4973544973545,28.783068783068785 34.28571428571429,28.14814814814815 34.074074074074076,27.513227513227516 33.86243386243387,26.87830687830688 33.86243386243387,26.243386243386244 33.86243386243387,25.60846560846561 33.65079365079365,24.973544973544975 33.65079365079365,24.338624338624342 33.86243386243387,23.703703703703706 34.074074074074076,23.06878306878307 34.4973544973545,22.433862433862437 34.70899470899471,21.7989417989418 34.920634920634924,21.164021164021165 35.34391534391535,20.529100529100532 35.76719576719577,19.894179894179896 35.97883597883598,19.25925925925926 36.402116402116405,18.83597883597884 36.613756613756614,18.201058201058203 37.03703703703704,17.77777777777778 37.46031746031746,17.142857142857146 37.883597883597886,16.50793650793651 38.30687830687831,15.873015873015873 38.730158730158735,15.449735449735451 39.15343915343916,15.026455026455027 39.57671957671958,14.391534391534393 40.0,13.756613756613758 40.423280423280424,13.333333333333334 40.84656084656085,12.910052910052912 41.26984126984127,12.486772486772487 41.6931216931217,12.063492063492065 42.11640211640212,11.640211640211641 42.539682539682545,11.216931216931219 42.96296296296297,10.793650793650794 43.5978835978836,10.370370370370372 44.021164021164026,9.947089947089948 44.65608465608466,9.523809523809524 45.07936507936508,9.100529100529101 45.714285714285715,8.677248677248677 46.349206349206355,8.253968253968255 46.77248677248678,7.830687830687832 47.40740740740741,7.407407407407408 48.042328042328045,6.984126984126985 48.677248677248684,6.560846560846561 49.31216931216932,6.34920634920635 49.73544973544974,5.9259259259259265 50.370370370370374,5.714285714285714 51.00529100529101,5.291005291005291 51.640211640211646,5.07936507936508 52.27513227513228,4.656084656084657 52.6984126984127,4.2328042328042335 53.333333333333336,4.021164021164021 53.968253968253975,3.8095238095238098 54.60317460317461,3.597883597883598 55.02645502645503,3.174603174603175 55.661375661375665,2.9629629629629632 56.2962962962963,2.7513227513227516 56.93121693121694,2.7513227513227516 57.56613756613757,2.53968253968254 58.2010582010582,2.3280423280423284 58.83597883597884,2.3280423280423284 59.25925925925927,1.9047619047619049 59.8941798941799,1.6931216931216932 60.52910052910053,1.6931216931216932 61.16402116402117,1.4814814814814816 61.798941798941804,1.4814814814814816 62.43386243386244,1.26984126984127 63.06878306878308,1.0582010582010584 63.70370370370371,0.8465608465608466 64.33862433862434,0.8465608465608466 64.97354497354497,0.8465608465608466 65.60846560846561,0.634920634920635 66.24338624338625,0.4232804232804233 66.87830687830689,0.4232804232804233 67.51322751322752,0.4232804232804233 68.14814814814815,0.21164021164021166 68.57142857142858,0.634920634920635 69.20634920634922,0.634920634920635 69.84126984126985,0.8465608465608466 70.47619047619048,1.0582010582010584 71.11111111111111,1.4814814814814816 71.74603174603175,1.9047619047619049 72.16931216931218,2.3280423280423284 72.5925925925926,2.7513227513227516 73.01587301587303,3.3862433862433865 73.22751322751323,4.021164021164021 73.43915343915344,4.656084656084657 73.86243386243387,5.291005291005291 74.07407407407408,5.9259259259259265 74.28571428571429,6.560846560846561 74.49735449735451,7.195767195767196 74.92063492063492,7.830687830687832 75.13227513227514,8.465608465608467 75.34391534391536,9.100529100529101 75.55555555555556,9.735449735449736 75.76719576719577,10.370370370370372 75.76719576719577,11.005291005291006 75.97883597883599,11.640211640211641 75.97883597883599,12.275132275132275 76.19047619047619,12.910052910052912 76.19047619047619,13.544973544973546 76.4021164021164,14.17989417989418 76.4021164021164,14.814814814814817 76.4021164021164,15.449735449735451 76.4021164021164,16.084656084656086 76.61375661375662,16.71957671957672 76.61375661375662,17.354497354497354 76.61375661375662,17.98941798941799 76.61375661375662,18.624338624338627 76.61375661375662,19.25925925925926 76.61375661375662,19.894179894179896 76.61375661375662,20.529100529100532 76.61375661375662,21.164021164021165 76.61375661375662,21.7989417989418 76.61375661375662,22.433862433862437 76.61375661375662,23.06878306878307 76.61375661375662,23.703703703703706 76.82539682539684,24.338624338624342 77.03703703703704,24.973544973544975 77.24867724867725,25.60846560846561 77.24867724867725,26.243386243386244 77.46031746031747,26.87830687830688 77.88359788359789,27.513227513227516 78.0952380952381,28.14814814814815 78.51851851851852,28.571428571428573 78.94179894179895,29.20634920634921 79.57671957671958,29.629629629629633 80.0,30.052910052910054 80.63492063492065,30.476190476190478 81.26984126984128,30.68783068783069 81.90476190476191,30.899470899470902 82.53968253968254,30.899470899470902 83.17460317460318,31.111111111111114 83.80952380952381,31.322751322751326 84.44444444444446,31.111111111111114 85.07936507936509,31.111111111111114 85.71428571428572,31.111111111111114 86.34920634920636,31.111111111111114 86.98412698412699,31.111111111111114 87.61904761904762,31.111111111111114 88.25396825396827,30.899470899470902 88.8888888888889,30.899470899470902 89.52380952380953,30.899470899470902 90.15873015873017,30.899470899470902 90.7936507936508,30.68783068783069 91.42857142857143,30.476190476190478 92.06349206349208,30.476190476190478 92.69841269841271,30.264550264550266 93.33333333333334,30.052910052910054 93.96825396825398,29.841269841269842 94.60317460317461,29.629629629629633 95.23809523809524,29.41798941798942 95.87301587301587,29.20634920634921 96.50793650793652,29.20634920634921 97.14285714285715,28.994708994708997 97.77777777777779,28.571428571428573 98.41269841269842,28.571428571428573 99.04761904761905,28.35978835978836 99.68253968253968,28.14814814814815 100.31746031746033,27.93650793650794 100.95238095238096,27.724867724867728 101.5873015873016,27.513227513227516 102.22222222222223,27.513227513227516 102.64550264550266,27.089947089947092 103.28042328042329,26.666666666666668 103.91534391534393,26.455026455026456 104.55026455026456,26.243386243386244 105.18518518518519,26.031746031746035 105.82010582010582,25.820105820105823 106.45502645502647,25.60846560846561 107.0899470899471,25.3968253968254 107.72486772486774,25.185185185185187 108.35978835978837,24.973544973544975 108.994708994709,24.55026455026455 109.62962962962963,24.338624338624342 110.26455026455027,24.12698412698413 110.89947089947091,24.12698412698413 111.53439153439155,23.915343915343918 112.16931216931218,23.703703703703706 112.80423280423281,23.703703703703706 113.22751322751324,23.280423280423282 113.86243386243387,23.06878306878307 114.49735449735451,22.857142857142858 115.13227513227514,22.645502645502646 115.76719576719577,22.222222222222225 116.4021164021164,22.010582010582013 117.03703703703705,21.7989417989418 117.67195767195768,21.58730158730159 118.30687830687832,21.375661375661377 118.94179894179895,21.164021164021165 119.57671957671958,20.952380952380953 120.21164021164022,20.529100529100532 120.84656084656086,20.31746031746032 121.4814814814815,20.105820105820108 122.11640211640213,19.894179894179896 122.75132275132276,19.682539682539684 123.3862433862434,19.25925925925926 124.02116402116403,19.047619047619047 124.65608465608466,18.624338624338627 125.2910052910053,18.624338624338627 125.92592592592594,18.201058201058203 126.56084656084657,17.98941798941799 127.1957671957672,17.77777777777778 127.61904761904763,17.354497354497354 128.25396825396825,17.142857142857146 128.88888888888889,16.931216931216934 129.52380952380955,16.71957671957672 130.15873015873018,16.296296296296298 130.7936507936508,16.084656084656086 131.42857142857144,15.873015873015873 132.06349206349208,15.661375661375663 132.6984126984127,15.238095238095239 133.33333333333334,14.814814814814817 133.96825396825398,14.814814814814817 134.6031746031746,14.391534391534393 135.23809523809524,14.17989417989418 135.66137566137567,13.756613756613758 136.2962962962963,13.544973544973546 136.93121693121694,13.121693121693122 137.56613756613757,12.910052910052912 137.989417989418,12.486772486772487 138.62433862433863,12.275132275132275 139.25925925925927,11.851851851851853 139.8941798941799,11.428571428571429 140.52910052910053,11.216931216931219 141.16402116402116,10.793650793650794 141.7989417989418,10.582010582010582 142.43386243386246,10.15873015873016 143.0687830687831,9.735449735449736 146.24338624338625,8.042328042328043" style="fill:none; stroke:#cc0000; stroke-width:1.0"  /><polyline points="146.24338624338625,8.042328042328043 147.72486772486775,12.063492063492065 147.93650793650795,12.6984126984127 148.14814814814815,13.333333333333334 148.35978835978838,13.96825396825397 148.57142857142858,14.603174603174605 148.78306878306879,15.238095238095239 148.78306878306879,15.873015873015873 149.20634920634922,16.50793650793651 149.41798941798942,17.142857142857146 149.62962962962965,17.77777777777778 149.84126984126985,18.412698412698415 150.05291005291005,19.047619047619047 150.47619047619048,19.682539682539684 150.6878306878307,20.31746031746032 150.8994708994709,20.952380952380953 151.32275132275134,21.58730158730159 151.53439153439155,22.222222222222225 151.74603174603175,22.857142857142858 152.16931216931218,23.492063492063494 152.5925925925926,24.12698412698413 153.01587301587304,24.761904761904763 153.43915343915344,25.3968253968254 153.86243386243387,26.031746031746035 154.07407407407408,26.666666666666668 154.4973544973545,27.301587301587304 154.7089947089947,27.93650793650794 155.13227513227514,28.35978835978836 155.34391534391534,28.994708994708997 155.76719576719577,29.629629629629633 156.1904761904762,30.264550264550266 156.4021164021164,30.899470899470902 156.82539682539684,31.322751322751326 157.24867724867727,31.95767195767196 157.46031746031747,32.592592592592595 157.8835978835979,33.22751322751323 158.30687830687833,33.65079365079365 158.73015873015873,34.28571428571429 158.94179894179896,34.920634920634924 159.36507936507937,35.55555555555556 159.7883597883598,36.19047619047619 160.21164021164023,36.613756613756614 160.63492063492066,37.03703703703704 161.05820105820106,37.46031746031746 161.4814814814815,37.883597883597886 162.11640211640213,38.30687830687831 162.75132275132276,38.730158730158735 163.3862433862434,39.15343915343916 164.02116402116403,39.15343915343916 164.65608465608466,39.15343915343916 165.2910052910053,39.15343915343916 165.92592592592595,39.15343915343916 166.56084656084658,39.36507936507937 167.19576719576722,39.15343915343916 167.83068783068785,39.15343915343916 168.25396825396825,38.730158730158735 168.8888888888889,38.51851851851852 169.52380952380955,38.30687830687831 170.15873015873018,37.883597883597886 170.7936507936508,37.46031746031746 171.42857142857144,37.03703703703704 171.85185185185188,36.613756613756614 172.4867724867725,36.19047619047619 172.9100529100529,35.76719576719577 173.33333333333334,35.13227513227513 173.75661375661377,34.70899470899471 174.1798941798942,34.28571428571429 174.6031746031746,33.65079365079365 175.02645502645504,33.22751322751323 175.44973544973547,32.804232804232804 175.87301587301587,32.38095238095239 176.0846560846561,31.746031746031747 176.71957671957674,31.53439153439154 177.14285714285717,31.111111111111114 177.56613756613757,30.68783068783069 178.2010582010582,30.476190476190478 178.83597883597884,30.052910052910054 179.4708994708995,29.841269841269842 180.10582010582013,29.41798941798942 180.74074074074076,29.20634920634921 181.3756613756614,28.994708994708997 182.01058201058203,28.783068783068785 182.43386243386246,28.35978835978836 183.0687830687831,28.35978835978836 183.4920634920635,27.93650793650794 184.12698412698415,27.93650793650794 184.7619047619048,27.93650793650794 185.1851851851852,27.513227513227516 185.82010582010582,27.513227513227516 186.45502645502646,27.513227513227516 187.08994708994712,27.513227513227516 187.72486772486775,27.513227513227516 188.35978835978838,27.513227513227516 188.99470899470901,27.513227513227516 189.62962962962965,27.513227513227516 190.26455026455028,27.724867724867728 190.6878306878307,28.14814814814815 191.32275132275134,28.35978835978836 191.95767195767198,28.571428571428573 192.5925925925926,28.783068783068785 193.22751322751324,29.20634920634921 193.86243386243387,29.629629629629633 194.2857142857143,30.052910052910054 194.92063492063494,30.476190476190478 195.34391534391537,30.899470899470902 195.76719576719577,31.322751322751326 196.1904761904762,31.746031746031747 196.61375661375664,32.16931216931217 197.03703703703704,32.804232804232804 197.46031746031747,33.22751322751323 197.8835978835979,33.86243386243387 198.30687830687833,34.28571428571429 198.51851851851853,34.920634920634924 198.94179894179896,35.34391534391535 199.36507936507937,35.97883597883598 199.7883597883598,36.613756613756614 200.00000000000003,37.248677248677254 200.42328042328043,37.883597883597886 200.63492063492066,38.51851851851852 200.84656084656086,39.15343915343916 201.05820105820106,39.78835978835979 201.2698412698413,40.423280423280424 201.4814814814815,41.058201058201064 201.4814814814815,41.6931216931217 201.4814814814815,42.32804232804233 201.4814814814815,42.96296296296297 201.4814814814815,43.5978835978836 201.4814814814815,44.232804232804234 201.2698412698413,44.867724867724874 201.2698412698413,45.50264550264551 201.05820105820106,46.13756613756614 200.84656084656086,46.77248677248678 200.63492063492066,47.40740740740741 200.42328042328043,48.042328042328045 200.21164021164023,48.677248677248684 199.7883597883598,49.1005291005291 199.5767195767196,49.73544973544974 199.15343915343917,50.158730158730165 198.73015873015873,50.58201058201058 198.30687830687833,51.00529100529101 197.8835978835979,51.42857142857143 197.46031746031747,51.851851851851855 197.03703703703704,52.27513227513228 196.4021164021164,52.6984126984127 195.978835978836,53.12169312169313 195.34391534391537,53.54497354497355 194.70899470899474,53.75661375661376 194.2857142857143,54.179894179894184 193.65079365079367,54.39153439153439 193.01587301587304,54.81481481481482 192.3809523809524,55.02645502645503 191.74603174603175,55.23809523809524 191.11111111111111,55.449735449735456 190.47619047619048,55.661375661375665 189.84126984126985,55.661375661375665 189.20634920634922,55.87301587301588 188.57142857142858,56.08465608465609 187.93650793650795,56.08465608465609 187.30158730158732,56.08465608465609 186.66666666666669,56.2962962962963 186.03174603174605,56.2962962962963 185.39682539682542,56.08465608465609 184.7619047619048,56.2962962962963 184.12698412698415,56.2962962962963 183.4920634920635,56.50793650793651 182.85714285714286,56.50793650793651 182.22222222222223,56.71957671957672 181.5873015873016,56.71957671957672 180.95238095238096,56.93121693121694 180.31746031746033,56.93121693121694 179.6825396825397,57.142857142857146 179.04761904761907,57.35449735449736 178.41269841269843,57.56613756613757 177.7777777777778,57.56613756613757 177.14285714285717,57.989417989417994 176.50793650793653,58.2010582010582 175.87301587301587,58.41269841269842 175.44973544973547,58.83597883597884 174.81481481481484,59.04761904761905 174.3915343915344,59.470899470899475 173.96825396825398,60.10582010582011 173.54497354497354,60.52910052910053 173.12169312169314,60.952380952380956 172.6984126984127,61.58730158730159 172.4867724867725,62.22222222222223 172.06349206349208,62.85714285714286 171.85185185185188,63.492063492063494 171.64021164021165,64.12698412698413 171.42857142857144,64.76190476190477 171.42857142857144,65.3968253968254 171.42857142857144,66.03174603174604 171.42857142857144,66.66666666666667 171.42857142857144,67.3015873015873 171.42857142857144,67.93650793650794 171.64021164021165,68.57142857142858 171.85185185185188,69.20634920634922 171.85185185185188,69.84126984126985 172.06349206349208,70.47619047619048 172.27513227513228,71.11111111111111 172.27513227513228,71.74603174603175 172.27513227513228,72.38095238095238 172.4867724867725,73.01587301587303 172.6984126984127,73.65079365079366 172.6984126984127,74.28571428571429 172.9100529100529,74.92063492063492 173.12169312169314,75.55555555555556 173.33333333333334,76.19047619047619 173.33333333333334,76.82539682539684 173.54497354497354,77.46031746031747 173.75661375661377,78.0952380952381 173.96825396825398,78.73015873015873 173.96825396825398,79.36507936507937 174.3915343915344,80.0 174.6031746031746,80.63492063492065 174.81481481481484,81.26984126984128 175.02645502645504,81.90476190476191 175.23809523809524,82.53968253968254 175.44973544973547,83.17460317460318 175.66137566137567,83.80952380952381 175.87301587301587,84.44444444444446 176.2962962962963,85.07936507936509 176.50793650793653,85.71428571428572 176.71957671957674,86.34920634920636 176.93121693121694,86.98412698412699 177.35449735449737,87.61904761904762 177.56613756613757,88.25396825396827 177.989417989418,88.8888888888889 178.2010582010582,89.52380952380953 178.41269841269843,90.15873015873017 178.83597883597884,90.58201058201058 179.04761904761907,91.21693121693123 179.4708994708995,91.85185185185186 179.6825396825397,92.4867724867725 180.10582010582013,92.91005291005291 180.52910052910053,93.54497354497356 180.74074074074076,94.17989417989419 181.16402116402116,94.60317460317461 181.5873015873016,95.02645502645504 181.79894179894183,95.66137566137567 182.22222222222223,96.08465608465609 182.43386243386246,96.71957671957672 182.85714285714286,97.14285714285715 183.2804232804233,97.77777777777779 183.70370370370372,98.41269841269842 184.12698412698415,99.04761904761905 184.55026455026456,99.68253968253968 184.973544973545,100.10582010582011 185.39682539682542,100.74074074074075 185.82010582010582,101.16402116402116 186.24338624338625,101.79894179894181 186.66666666666669,102.43386243386244 187.08994708994712,102.85714285714286 187.51322751322752,103.28042328042329 187.93650793650795,103.91534391534393 188.35978835978838,104.33862433862434 188.78306878306879,104.76190476190477 189.20634920634922,105.18518518518519 189.62962962962965,105.60846560846562 190.05291005291008,106.24338624338625 190.47619047619048,106.66666666666667 190.8994708994709,107.0899470899471 191.32275132275134,107.51322751322752 191.74603174603175,107.93650793650795 192.16931216931218,108.35978835978837 192.5925925925926,108.78306878306879 193.01587301587304,109.20634920634922 193.43915343915344,109.62962962962963 193.86243386243387,110.05291005291006 194.2857142857143,110.47619047619048 194.92063492063494,110.89947089947091 195.34391534391537,111.32275132275133 195.978835978836,111.74603174603176 196.4021164021164,112.16931216931218 197.03703703703704,112.5925925925926 197.6719576719577,112.80423280423281 198.0952380952381,113.22751322751324 198.73015873015873,113.65079365079366 201.4814814814815,115.97883597883599" style="fill:none; stroke:#999900; stroke-width:1.0"  /><polyline points="201.4814814814815,115.97883597883599 198.51851851851853,117.88359788359789 198.0952380952381,118.30687830687832 197.46031746031747,118.73015873015873 197.03703703703704,119.15343915343917 196.4021164021164,119.57671957671958 195.76719576719577,120.00000000000001 195.13227513227514,120.42328042328043 194.70899470899474,120.84656084656086 194.07407407407408,121.05820105820106 193.65079365079367,121.4814814814815 193.01587301587304,121.6931216931217 192.3809523809524,122.11640211640213 191.74603174603175,122.32804232804234 191.11111111111111,122.75132275132276 190.47619047619048,122.96296296296298 189.84126984126985,123.17460317460318 189.20634920634922,123.59788359788361 188.57142857142858,123.80952380952382 188.14814814814815,124.23280423280424 187.51322751322752,124.44444444444446 186.8783068783069,124.65608465608466 186.24338624338625,125.07936507936509 185.60846560846562,125.2910052910053 184.973544973545,125.71428571428572 184.33862433862436,125.92592592592594 183.70370370370372,126.13756613756615 183.0687830687831,126.34920634920636 182.43386243386246,126.56084656084657 181.79894179894183,126.77248677248679 181.16402116402116,127.1957671957672 180.52910052910053,127.40740740740742 179.8941798941799,127.61904761904763 179.25925925925927,127.83068783068784 178.62433862433863,128.04232804232805 177.989417989418,128.25396825396825 177.35449735449737,128.46560846560848 176.71957671957674,128.88888888888889 176.0846560846561,128.88888888888889 175.44973544973547,129.10052910052912 174.81481481481484,129.52380952380955 174.1798941798942,129.73544973544975 173.54497354497354,129.73544973544975 173.12169312169314,130.15873015873018 172.4867724867725,130.37037037037038 171.85185185185188,130.58201058201058 171.21693121693124,130.7936507936508 170.58201058201058,130.7936507936508 169.94708994708995,131.005291005291 169.31216931216932,131.21693121693121 168.67724867724868,131.21693121693121 168.04232804232805,131.42857142857144 167.40740740740742,131.64021164021165 166.7724867724868,131.64021164021165 166.13756613756615,131.85185185185185 165.50264550264552,132.06349206349208 164.8677248677249,132.06349206349208 164.23280423280426,132.27513227513228 163.59788359788362,132.27513227513228 162.96296296296296,132.27513227513228 162.32804232804233,132.27513227513228 161.6931216931217,132.27513227513228 161.05820105820106,132.06349206349208 160.42328042328043,132.06349206349208 159.7883597883598,132.06349206349208 159.15343915343917,131.64021164021165 158.51851851851853,131.42857142857144 158.0952380952381,131.005291005291 157.46031746031747,130.58201058201058 157.03703703703704,130.15873015873018 156.61375661375664,129.73544973544975 156.1904761904762,129.31216931216932 155.76719576719577,128.67724867724868 155.76719576719577,128.04232804232805 155.55555555555557,127.40740740740742 155.34391534391534,126.77248677248679 155.13227513227514,126.13756613756615 155.13227513227514,125.5026455026455 155.13227513227514,124.86772486772487 155.13227513227514,124.23280423280424 155.13227513227514,123.59788359788361 154.92063492063494,122.96296296296298 155.13227513227514,122.32804232804234 155.34391534391534,121.6931216931217 155.34391534391534,121.05820105820106 155.55555555555557,120.42328042328043 155.55555555555557,119.7883597883598 155.55555555555557,119.15343915343917 155.76719576719577,118.51851851851853 155.76719576719577,117.88359788359789 155.76719576719577,117.24867724867725 155.76719576719577,116.61375661375662 155.978835978836,115.97883597883599 155.978835978836,115.34391534391536 155.978835978836,114.70899470899472 155.978835978836,114.07407407407408 155.978835978836,113.43915343915344 155.978835978836,112.80423280423281 155.76719576719577,112.16931216931218 155.76719576719577,111.53439153439155 155.55555555555557,110.89947089947091 155.55555555555557,110.26455026455027 155.34391534391534,109.62962962962963 155.13227513227514,108.994708994709 154.92063492063494,108.35978835978837 154.7089947089947,107.72486772486774 154.4973544973545,107.0899470899471 154.2857142857143,106.45502645502647 153.86243386243387,105.82010582010582 153.65079365079367,105.18518518518519 153.22751322751324,104.55026455026456 152.8042328042328,103.91534391534393 152.38095238095238,103.4920634920635 151.95767195767198,102.85714285714286 151.53439153439155,102.22222222222223 151.11111111111111,101.79894179894181 150.6878306878307,101.37566137566138 150.26455026455028,100.95238095238096 149.84126984126985,100.52910052910053 149.41798941798942,100.10582010582011 148.78306878306879,99.68253968253968 148.14814814814815,99.25925925925927 147.72486772486775,98.83597883597885 147.0899470899471,98.41269841269842 146.45502645502646,97.989417989418 145.82010582010582,97.77777777777779 145.1851851851852,97.35449735449737 144.55026455026456,97.14285714285715 143.91534391534393,96.93121693121694 143.2804232804233,96.71957671957672 142.64550264550266,96.71957671957672 142.01058201058203,96.50793650793652 141.3756613756614,96.50793650793652 140.74074074074076,96.2962962962963 140.10582010582013,96.2962962962963 139.47089947089947,96.2962962962963 138.83597883597884,96.2962962962963 138.2010582010582,96.2962962962963 137.56613756613757,96.50793650793652 136.93121693121694,96.50793650793652 136.2962962962963,96.71957671957672 135.66137566137567,96.93121693121694 135.02645502645504,96.93121693121694 134.3915343915344,96.93121693121694 133.75661375661377,97.14285714285715 133.12169312169314,97.35449735449737 132.4867724867725,97.56613756613757 131.85185185185185,97.77777777777779 131.21693121693121,97.989417989418 130.58201058201058,98.2010582010582 129.94708994708995,98.41269841269842 129.31216931216932,98.83597883597885 128.67724867724868,99.04761904761905 128.04232804232805,99.47089947089948 127.40740740740742,99.68253968253968 126.98412698412699,100.10582010582011 126.34920634920636,100.31746031746033 125.71428571428572,100.52910052910053 125.2910052910053,100.95238095238096 124.65608465608466,101.37566137566138 124.23280423280424,101.79894179894181 123.59788359788361,102.22222222222223 123.17460317460318,102.64550264550266 122.75132275132276,103.06878306878308 122.11640211640213,103.4920634920635 121.6931216931217,103.91534391534393 121.26984126984128,104.55026455026456 120.84656084656086,104.97354497354497 120.42328042328043,105.60846560846562 120.00000000000001,106.24338624338625 119.57671957671958,106.87830687830689 119.36507936507937,107.51322751322752 119.15343915343917,108.14814814814815 118.94179894179895,108.78306878306879 118.73015873015873,109.41798941798943 118.73015873015873,110.05291005291006 118.51851851851853,110.6878306878307 118.51851851851853,111.32275132275133 118.51851851851853,111.95767195767196 118.51851851851853,112.5925925925926 118.51851851851853,113.22751322751324 118.51851851851853,113.86243386243387 118.73015873015873,114.49735449735451 118.94179894179895,115.13227513227514 118.94179894179895,115.76719576719577 119.15343915343917,116.4021164021164 119.15343915343917,117.03703703703705 119.36507936507937,117.67195767195768 119.57671957671958,118.30687830687832 119.7883597883598,118.94179894179895 120.00000000000001,119.57671957671958 120.21164021164022,120.21164021164022 120.42328042328043,120.84656084656086 120.63492063492065,121.4814814814815 120.84656084656086,122.11640211640213 121.05820105820106,122.75132275132276 121.26984126984128,123.3862433862434 121.6931216931217,124.02116402116403 121.90476190476191,124.65608465608466 122.32804232804234,125.2910052910053 122.53968253968254,125.92592592592594 122.96296296296298,126.56084656084657 123.3862433862434,127.1957671957672 123.59788359788361,127.83068783068784 124.02116402116403,128.46560846560848 124.23280423280424,129.10052910052912 124.65608465608466,129.73544973544975 125.07936507936509,130.15873015873018 125.2910052910053,130.7936507936508 125.71428571428572,131.21693121693121 125.92592592592594,131.85185185185185 126.13756613756615,132.4867724867725 126.13756613756615,133.12169312169314 126.13756613756615,133.75661375661377 126.34920634920636,134.3915343915344 126.34920634920636,135.02645502645504 126.34920634920636,135.66137566137567 126.34920634920636,136.2962962962963 126.13756613756615,136.93121693121694 125.92592592592594,137.56613756613757 125.71428571428572,138.2010582010582 125.2910052910053,138.83597883597884 124.86772486772487,139.25925925925927 124.44444444444446,139.6825396825397 124.02116402116403,140.10582010582013 123.3862433862434,140.52910052910053 122.75132275132276,140.95238095238096 122.11640211640213,141.16402116402116 121.4814814814815,141.5873015873016 120.84656084656086,141.7989417989418 120.21164021164022,142.01058201058203 119.57671957671958,142.22222222222223 118.94179894179895,142.43386243386246 118.30687830687832,142.43386243386246 117.67195767195768,142.64550264550266 117.03703703703705,142.85714285714286 116.4021164021164,143.0687830687831 115.76719576719577,143.0687830687831 115.13227513227514,143.2804232804233 114.49735449735451,143.4920634920635 113.86243386243387,143.4920634920635 113.22751322751324,143.70370370370372 112.5925925925926,143.91534391534393 111.95767195767196,143.91534391534393 111.32275132275133,144.12698412698413 110.6878306878307,144.33862433862436 110.05291005291006,144.55026455026456 109.41798941798943,144.76190476190476 108.78306878306879,144.76190476190476 108.14814814814815,144.973544973545 107.51322751322752,145.1851851851852 106.87830687830689,145.39682539682542 106.24338624338625,145.60846560846562 105.60846560846562,145.82010582010582 104.97354497354497,146.03174603174605 104.33862433862434,146.24338624338625 103.70370370370371,146.45502645502646 103.06878306878308,146.8783068783069 102.43386243386244,147.30158730158732 101.79894179894181,147.51322751322752 101.16402116402116,147.72486772486775 100.52910052910053,147.93650793650795 99.8941798941799,148.14814814814815 99.25925925925927,148.57142857142858 98.62433862433863,148.78306878306879 97.989417989418,149.20634920634922 97.35449735449737,149.41798941798942 96.71957671957672,149.62962962962965 96.08465608465609,150.05291005291005 95.44973544973546,150.26455026455028 94.81481481481482,150.6878306878307 94.17989417989419,150.8994708994709 93.54497354497356,151.32275132275134 92.91005291005291,151.53439153439155 92.27513227513228,151.95767195767198 91.64021164021165,152.38095238095238 91.00529100529101,152.8042328042328 90.37037037037038,153.01587301587304 89.73544973544975,153.43915343915344 89.1005291005291,153.65079365079367 88.46560846560847,154.07407407407408 87.83068783068784,154.4973544973545 87.1957671957672,154.7089947089947 86.56084656084657,155.13227513227514 85.92592592592594,155.34391534391534 85.29100529100529,155.76719576719577 84.65608465608466,156.1904761904762 84.02116402116403,156.4021164021164 83.59788359788361,156.82539682539684 82.96296296296298,157.03703703703704 82.32804232804233,157.24867724867727 81.6931216931217,157.67195767195767 81.05820105820106,157.8835978835979 80.63492063492065,158.30687830687833 80.0,158.51851851851853 79.36507936507937,158.94179894179896 78.73015873015873,159.15343915343917 78.0952380952381,159.5767195767196 77.46031746031747,159.7883597883598 76.82539682539684,160.21164021164023 76.19047619047619,160.42328042328043 75.55555555555556,160.84656084656086 74.92063492063492,161.05820105820106 74.28571428571429,161.4814814814815 73.65079365079366,161.6931216931217 73.01587301587303,161.90476190476193 72.38095238095238,162.32804232804233 71.74603174603175,162.53968253968256 71.11111111111111,162.96296296296296 70.47619047619048,163.1746031746032 69.84126984126985,163.3862433862434 69.20634920634922,163.59788359788362 68.57142857142858,164.02116402116403 67.93650793650794,164.44444444444446 67.3015873015873,164.65608465608466 66.66666666666667,165.0793650793651 66.03174603174604,165.2910052910053 65.3968253968254,165.50264550264552 64.76190476190477,165.71428571428572 64.12698412698413,166.13756613756615 63.492063492063494,166.34920634920636 62.85714285714286,166.56084656084658 62.22222222222223,166.7724867724868 61.58730158730159,166.984126984127 60.952380952380956,167.19576719576722 60.31746031746032,167.40740740740742 59.682539682539684,167.83068783068785 59.04761904761905,168.04232804232805 58.41269841269842,168.25396825396825 57.777777777777786,168.46560846560848 57.142857142857146,168.67724867724868 56.50793650793651,168.8888888888889 55.87301587301588,169.10052910052912 55.23809523809524,169.31216931216932 54.60317460317461,169.52380952380955 53.968253968253975,169.73544973544975 53.333333333333336,169.94708994708995 52.6984126984127,170.15873015873018 52.06349206349207,170.58201058201058 51.42857142857143,170.7936507936508 50.7936507936508,171.005291005291 50.158730158730165,171.21693121693124 49.523809523809526,171.42857142857144 48.88888888888889,171.64021164021165 48.25396825396826,171.85185185185188 47.61904761904762,171.85185185185188 46.98412698412699,172.06349206349208 46.349206349206355,172.27513227513228 45.714285714285715,172.6984126984127 45.07936507936508,172.9100529100529 44.44444444444445,173.12169312169314 41.6931216931217,174.1798941798942" style="fill:none; stroke:#00aa99; stroke-width:1.0"  /><polyline points="41.6931216931217,174.1798941798942 39.15343915343916,171.21693121693124 38.730158730158735,170.58201058201058 38.30687830687831,170.15873015873018 37.883597883597886,169.73544973544975 37.46031746031746,169.10052910052912 37.03703703703704,168.67724867724868 36.613756613756614,168.04232804232805 36.19047619047619,167.61904761904762 35.76719576719577,167.19576719576722 35.34391534391535,166.56084656084658 34.920634920634924,166.13756613756615 34.4973544973545,165.71428571428572 34.074074074074076,165.2910052910053 33.65079365079365,164.8677248677249 33.01587301587302,164.65608465608466 32.592592592592595,164.02116402116403 32.16931216931217,163.3862433862434 31.746031746031747,162.96296296296296 31.322751322751326,162.53968253968256 30.899470899470902,162.11640211640213 30.476190476190478,161.6931216931217 30.052910052910054,161.2698412698413 29.629629629629633,160.63492063492066 29.20634920634921,160.21164021164023 28.783068783068785,159.7883597883598 28.35978835978836,159.36507936507937 27.93650793650794,158.94179894179896 27.301587301587304,158.51851851851853 26.87830687830688,158.0952380952381 26.455026455026456,157.67195767195767 26.031746031746035,157.24867724867727 25.60846560846561,156.82539682539684 24.973544973544975,156.4021164021164 24.338624338624342,155.978835978836 23.915343915343918,155.55555555555557 23.492063492063494,155.13227513227514 22.857142857142858,154.7089947089947 22.222222222222225,154.2857142857143 21.7989417989418,153.86243386243387 21.375661375661377,153.43915343915344 20.952380952380953,153.01587301587304 20.529100529100532,152.5925925925926 20.105820105820108,152.16931216931218 19.682539682539684,151.74603174603175 19.25925925925926,151.11111111111111 18.83597883597884,150.47619047619048 18.624338624338627,149.84126984126985 18.412698412698415,149.20634920634922 17.98941798941799,148.57142857142858 17.98941798941799,147.93650793650795 17.77777777777778,147.30158730158732 17.77777777777778,146.66666666666669 17.77777777777778,146.03174603174605 17.98941798941799,145.39682539682542 18.201058201058203,144.76190476190476 18.412698412698415,144.12698412698413 18.83597883597884,143.4920634920635 19.25925925925926,143.0687830687831 19.682539682539684,142.64550264550266 20.105820105820108,142.22222222222223 20.740740740740744,141.7989417989418 21.375661375661377,141.3756613756614 22.010582010582013,141.16402116402116 22.645502645502646,140.95238095238096 23.280423280423282,140.74074074074076 23.915343915343918,140.52910052910053 24.55026455026455,140.31746031746033 25.185185185185187,140.10582010582013 25.820105820105823,139.8941798941799 26.455026455026456,139.6825396825397 27.089947089947092,139.47089947089947 27.724867724867728,139.25925925925927 28.35978835978836,139.04761904761907 28.994708994708997,138.83597883597884 29.629629629629633,138.41269841269843 30.264550264550266,138.2010582010582 30.899470899470902,137.989417989418 31.53439153439154,137.7777777777778 31.95767195767196,137.35449735449737 32.592592592592595,136.93121693121694 33.22751322751323,136.5079365079365 33.86243386243387,136.0846560846561 34.4973544973545,135.66137566137567 35.13227513227513,135.23809523809524 35.76719576719577,134.81481481481484 36.402116402116405,134.3915343915344 37.03703703703704,134.17989417989418 37.46031746031746,133.75661375661377 38.095238095238095,133.33333333333334 38.51851851851852,132.9100529100529 38.94179894179894,132.4867724867725 39.57671957671958,132.06349206349208 40.0,131.64021164021165 40.423280423280424,131.005291005291 40.84656084656085,130.58201058201058 41.26984126984127,130.15873015873018 41.48148148148149,129.52380952380955 41.6931216931217,128.88888888888889 42.11640211640212,128.25396825396825 42.32804232804233,127.61904761904763 42.539682539682545,126.98412698412699 42.539682539682545,126.34920634920636 42.75132275132275,125.71428571428572 42.75132275132275,125.07936507936509 42.75132275132275,124.44444444444446 42.96296296296297,123.80952380952382 42.75132275132275,123.17460317460318 42.75132275132275,122.53968253968254 42.75132275132275,121.90476190476191 42.75132275132275,121.26984126984128 42.539682539682545,120.63492063492065 42.539682539682545,120.00000000000001 42.32804232804233,119.36507936507937 42.11640211640212,118.73015873015873 41.904761904761905,118.0952380952381 41.6931216931217,117.46031746031747 41.6931216931217,116.82539682539684 41.48148148148149,116.1904761904762 41.058201058201064,115.55555555555557 40.84656084656085,114.92063492063492 40.423280423280424,114.49735449735451 40.0,113.86243386243387 39.57671957671958,113.22751322751324 39.15343915343916,112.5925925925926 38.730158730158735,112.16931216931218 38.30687830687831,111.74603174603176 37.883597883597886,111.32275132275133 37.46031746031746,110.89947089947091 36.82539682539683,110.47619047619048 36.19047619047619,110.05291005291006 35.55555555555556,109.62962962962963 34.920634920634924,109.41798941798943 34.28571428571429,108.994708994709 33.65079365079365,108.78306878306879 33.01587301587302,108.57142857142858 32.38095238095239,108.35978835978837 31.746031746031747,108.14814814814815 31.111111111111114,107.93650793650795 30.476190476190478,107.93650793650795 29.841269841269842,107.93650793650795 29.20634920634921,107.93650793650795 28.571428571428573,107.93650793650795 27.93650793650794,107.93650793650795 27.301587301587304,107.93650793650795 26.666666666666668,107.93650793650795 26.031746031746035,108.14814814814815 25.3968253968254,108.14814814814815 24.761904761904763,108.14814814814815 24.12698412698413,108.14814814814815 23.492063492063494,108.35978835978837 22.857142857142858,108.35978835978837 22.222222222222225,108.57142857142858 21.58730158730159,108.57142857142858 20.952380952380953,108.57142857142858 20.31746031746032,108.78306878306879 19.682539682539684,108.78306878306879 19.047619047619047,108.994708994709 18.412698412698415,109.20634920634922 17.77777777777778,109.20634920634922 17.142857142857146,109.41798941798943 16.50793650793651,109.41798941798943 15.873015873015873,109.62962962962963 15.238095238095239,109.84126984126985 14.603174603174605,109.84126984126985 13.96825396825397,110.05291005291006 13.333333333333334,110.05291005291006 12.6984126984127,110.05291005291006 12.063492063492065,110.26455026455027 11.428571428571429,110.26455026455027 10.793650793650794,110.26455026455027 10.15873015873016,110.26455026455027 9.523809523809524,110.26455026455027 8.88888888888889,110.05291005291006 8.253968253968255,109.84126984126985 7.6190476190476195,109.84126984126985 6.984126984126985,109.62962962962963 6.34920634920635,109.41798941798943 5.714285714285714,108.994708994709 5.291005291005291,108.57142857142858 4.656084656084657,108.14814814814815 4.2328042328042335,107.72486772486774 3.8095238095238098,107.3015873015873 3.3862433862433865,106.66666666666667 2.9629629629629632,106.03174603174604 2.7513227513227516,105.3968253968254 2.3280423280423284,104.76190476190477 2.1164021164021167,104.12698412698414 1.9047619047619049,103.4920634920635 1.6931216931216932,102.85714285714286 1.6931216931216932,102.22222222222223 1.4814814814814816,101.5873015873016 1.4814814814814816,100.95238095238096 1.4814814814814816,100.31746031746033 1.4814814814814816,99.68253968253968 1.4814814814814816,99.04761904761905 1.6931216931216932,98.41269841269842 1.6931216931216932,97.77777777777779 1.6931216931216932,97.14285714285715 1.9047619047619049,96.50793650793652 1.9047619047619049,95.87301587301587 2.1164021164021167,95.23809523809524 2.1164021164021167,94.60317460317461 2.1164021164021167,93.96825396825398 2.3280423280423284,93.33333333333334 2.53968253968254,92.69841269841271 2.7513227513227516,92.06349206349208 2.9629629629629632,91.42857142857143 3.174603174603175,90.7936507936508 3.3862433862433865,90.15873015873017 3.8095238095238098,89.52380952380953 4.021164021164021,88.8888888888889 4.2328042328042335,88.25396825396827 4.2328042328042335,87.61904761904762 4.444444444444445,86.98412698412699 4.656084656084657,86.34920634920636 4.867724867724868,85.71428571428572 4.867724867724868,85.07936507936509 5.07936507936508,84.44444444444446 5.07936507936508,83.80952380952381 5.07936507936508,83.17460317460318 5.291005291005291,82.53968253968254 5.291005291005291,81.90476190476191 5.291005291005291,81.26984126984128 5.291005291005291,80.63492063492065 5.291005291005291,80.0 5.291005291005291,79.36507936507937 5.07936507936508,78.73015873015873 5.07936507936508,78.0952380952381 5.07936507936508,77.46031746031747 4.867724867724868,76.82539682539684 4.867724867724868,76.19047619047619 4.656084656084657,75.55555555555556 4.444444444444445,74.92063492063492 4.444444444444445,74.28571428571429 4.2328042328042335,73.65079365079366 4.021164021164021,73.01587301587303 3.8095238095238098,72.38095238095238 3.597883597883598,71.74603174603175 3.3862433862433865,71.11111111111111 2.9629629629629632,70.47619047619048 2.7513227513227516,69.84126984126985 2.3280423280423284,69.20634920634922 1.9047619047619049,68.57142857142858 1.4814814814814816,67.93650793650794 0.21164021164021166,64.76190476190477" style="fill:none; stroke:#3300bb; stroke-width:1.0"  /><circle cx="0.21164021164021166" cy="64.76190476190477" r="2.0" style="fill:none; stroke:#000000aa; stroke-width:0.25" /><circle cx="146.24338624338625" cy="8.042328042328043" r="2.0" style="fill:none; stroke:#000000aa; stroke-width:0.25" /><circle cx="201.4814814814815" cy="115.97883597883599" r="2.0" style="fill:none; stroke:#000000aa; stroke-width:0.25" /><circle cx="41.6931216931217" cy="174.1798941798942" r="2.0" style="fill:none; stroke:#000000aa; stroke-width:0.25" /><circle cx="0.21164021164021166" cy="65.18518518518519" r="2.0" style="fill:none; stroke:#ff3366aa; stroke-width:0.25" /><circle cx="146.45502645502646" cy="8.677248677248677" r="2.0" style="fill:none; stroke:#ff3366aa; stroke-width:0.25" /><circle cx="201.05820105820106" cy="115.55555555555557" r="2.0" style="fill:none; stroke:#ff3366aa; stroke-width:0.25" /><circle cx="41.48148148148149" cy="173.75661375661377" r="2.0" style="fill:none; stroke:#ff3366aa; stroke-width:0.25" /><polyline points="11.640211640211641,61.798941798941804 11.005291005291006,62.22222222222223 10.370370370370372,62.22222222222223 9.735449735449736,62.43386243386244 9.100529100529101,62.64550264550265 8.465608465608467,62.64550264550265 7.830687830687832,62.85714285714286 7.195767195767196,63.06878306878308 6.560846560846561,63.280423280423285 5.9259259259259265,63.280423280423285 5.291005291005291,63.492063492063494 4.656084656084657,63.70370370370371 4.021164021164021,63.91534391534392 3.3862433862433865,63.91534391534392" style="fill:none; stroke:#001100; stroke-width:1.0" /><polyline points="4.867724867724868,76.19047619047619 4.656084656084657,75.55555555555556 4.444444444444445,74.92063492063492 4.444444444444445,74.28571428571429 4.2328042328042335,73.65079365079366 4.021164021164021,73.01587301587303 3.8095238095238098,72.38095238095238 3.597883597883598,71.74603174603175 3.3862433862433865,71.11111111111111 2.9629629629629632,70.47619047619048 2.7513227513227516,69.84126984126985 2.3280423280423284,69.20634920634922 1.9047619047619049,68.57142857142858 1.4814814814814816,67.93650793650794" style="fill:none; stroke:#000011; stroke-width:1.0" /><polyline points="150.47619047619048,19.682539682539684 150.05291005291005,19.047619047619047 149.84126984126985,18.412698412698415 149.62962962962965,17.77777777777778 149.41798941798942,17.142857142857146 149.20634920634922,16.50793650793651 148.78306878306879,15.873015873015873 148.78306878306879,15.238095238095239 148.57142857142858,14.603174603174605 148.35978835978838,13.96825396825397 148.14814814814815,13.333333333333334 147.93650793650795,12.6984126984127 147.72486772486775,12.063492063492065" style="fill:none; stroke:#001100; stroke-width:1.0" /><polyline points="135.66137566137567,13.756613756613758 136.2962962962963,13.544973544973546 136.93121693121694,13.121693121693122 137.56613756613757,12.910052910052912 137.989417989418,12.486772486772487 138.62433862433863,12.275132275132275 139.25925925925927,11.851851851851853 139.8941798941799,11.428571428571429 140.52910052910053,11.216931216931219 141.16402116402116,10.793650793650794 141.7989417989418,10.582010582010582 142.43386243386246,10.15873015873016 143.0687830687831,9.735449735449736" style="fill:none; stroke:#000011; stroke-width:1.0" /><polyline points="191.74603174603175,122.32804232804234 192.3809523809524,122.11640211640213 193.01587301587304,121.6931216931217 193.65079365079367,121.4814814814815 194.07407407407408,121.05820105820106 194.70899470899474,120.84656084656086 195.13227513227514,120.42328042328043 195.76719576719577,120.00000000000001 196.4021164021164,119.57671957671958 197.03703703703704,119.15343915343917 197.46031746031747,118.73015873015873 198.0952380952381,118.30687830687832 198.51851851851853,117.88359788359789" style="fill:none; stroke:#001100; stroke-width:1.0" /><polyline points="191.74603174603175,107.93650793650795 192.16931216931218,108.35978835978837 192.5925925925926,108.78306878306879 193.01587301587304,109.20634920634922 193.43915343915344,109.62962962962963 193.86243386243387,110.05291005291006 194.2857142857143,110.47619047619048 194.92063492063494,110.89947089947091 195.34391534391537,111.32275132275133 195.978835978836,111.74603174603176 196.4021164021164,112.16931216931218 197.03703703703704,112.5925925925926 197.6719576719577,112.80423280423281 198.0952380952381,113.22751322751324 198.73015873015873,113.65079365079366" style="fill:none; stroke:#000011; stroke-width:1.0" /><polyline points="33.65079365079365,164.8677248677249 34.074074074074076,165.2910052910053 34.4973544973545,165.71428571428572 34.920634920634924,166.13756613756615 35.34391534391535,166.56084656084658 35.76719576719577,167.19576719576722 36.19047619047619,167.61904761904762 36.613756613756614,168.04232804232805 37.03703703703704,168.67724867724868 37.46031746031746,169.10052910052912 37.883597883597886,169.73544973544975 38.30687830687831,170.15873015873018 38.730158730158735,170.58201058201058 39.15343915343916,171.21693121693124" style="fill:none; stroke:#001100; stroke-width:1.0" /><polyline points="52.6984126984127,170.15873015873018 52.06349206349207,170.58201058201058 51.42857142857143,170.7936507936508 50.7936507936508,171.005291005291 50.158730158730165,171.21693121693124 49.523809523809526,171.42857142857144 48.88888888888889,171.64021164021165 48.25396825396826,171.85185185185188 47.61904761904762,171.85185185185188 46.98412698412699,172.06349206349208 46.349206349206355,172.27513227513228 45.714285714285715,172.6984126984127 45.07936507936508,172.9100529100529 44.44444444444445,173.12169312169314" style="fill:none; stroke:#000011; stroke-width:1.0" /><polyline points="3.3862433862433865,63.91534391534392 -17.142857142857146,69.20634920634922" style="fill:none; stroke:#ffaa00; stroke-width:0.4" /><polyline points="1.4814814814814816,67.93650793650794 -6.560846560846561,48.25396825396826" style="fill:none; stroke:#aaff00; stroke-width:0.4" /><polyline points="147.72486772486775,12.063492063492065 140.52910052910053,-7.830687830687832" style="fill:none; stroke:#ffaa00; stroke-width:0.4" /><polyline points="143.0687830687831,9.735449735449736 161.6931216931217,-0.4232804232804233" style="fill:none; stroke:#aaff00; stroke-width:0.4" /><polyline points="198.51851851851853,117.88359788359789 216.2962962962963,106.24338624338625" style="fill:none; stroke:#ffaa00; stroke-width:0.4" /><polyline points="198.73015873015873,113.65079365079366 215.02645502645504,126.98412698412699" style="fill:none; stroke:#aaff00; stroke-width:0.4" /><polyline points="39.15343915343916,171.21693121693124 52.91005291005291,187.30158730158732" style="fill:none; stroke:#ffaa00; stroke-width:0.4" /><polyline points="44.44444444444445,173.12169312169314 24.55026455026455,180.31746031746033" style="fill:none; stroke:#aaff00; stroke-width:0.4" /><circle cx="94.81481481481482" cy="83.17460317460318" r="1.0" style="fill:#444444; stroke-width:0" /><circle cx="78.30687830687832" cy="85.29100529100529" r="10.582010582010582" style="fill:#ff770022; stroke-width:0" /><circle cx="78.30687830687832" cy="85.29100529100529" r="1.0" style="fill:#ff7700; stroke-width:0" /></svg>