<?xml version="1.0" encoding="UTF-8" standalone="no"?><svg width="479.3650793650794" height="544.7619047619048" viewBox="-10 -10 179.7883597883598 201.5873015873016" xmlns="http://www.w3.org/2000/svg" xmlns:xlink="http://www.w3.org/1999/xlink"><polyline points="11.640211640211641,0.0 15.026455026455027,0.4232804232804233 15.661375661375663,0.4232804232804233 16.296296296296298,0.4232804232804233 16.931216931216934,0.634920634920635 17.566137566137566,0.634920634920635 18.201058201058203,0.8465608465608466 18.83597883597884,0.8465608465608466 19.47089947089947,0.8465608465608466 20.105820105820108,1.0582010582010584 20.740740740740744,1.0582010582010584 21.375661375661377,1.0582010582010584 22.010582010582013,1.26984126984127 22.645502645502646,1.26984126984127 23.280423280423282,1.26984126984127 23.915343915343918,1.4814814814814816 24.55026455026455,1.4814814814814816 25.185185185185187,1.6931216931216932 25.820105820105823,1.6931216931216932 26.455026455026456,1.6931216931216932 27.089947089947092,1.6931216931216932 27.724867724867728,1.9047619047619049 28.35978835978836,1.9047619047619049 28.994708994708997,2.1164021164021167 29.629629629629633,2.1164021164021167 30.264550264550266,2.3280423280423284 30.899470899470902,2.3280423280423284 31.53439153439154,2.53968253968254 32.16931216931217,2.53968253968254 32.804232804232804,2.7513227513227516 33.43915343915344,2.7513227513227516 34.074074074074076,2.7513227513227516 34.70899470899471,2.9629629629629632 35.34391534391535,2.9629629629629632 35.97883597883598,3.174603174603175 36.613756613756614,3.3862433862433865 37.248677248677254,3.3862433862433865 37.883597883597886,3.597883597883598 38.51851851851852,3.597883597883598 39.15343915343916,3.597883597883598 39.78835978835979,4.021164021164021 40.423280423280424,4.021164021164021 41.058201058201064,4.2328042328042335 41.6931216931217,4.444444444444445 42.32804232804233,4.444444444444445 42.96296296296297,4.656084656084657 43.5978835978836,4.867724867724868 44.232804232804234,5.07936507936508 44.867724867724874,5.291005291005291 45.50264550264551,5.502645502645503 46.13756613756614,5.502645502645503 46.77248677248678,5.714285714285714 47.40740740740741,5.9259259259259265 48.042328042328045,5.9259259259259265 48.677248677248684,6.137566137566138 49.31216931216932,6.34920634920635 49.94708994708995,6.560846560846561 50.58201058201058,6.772486772486773 51.21693121693122,6.984126984126985 51.851851851851855,7.195767195767196 52.48677248677249,7.407407407407408 53.12169312169313,7.6190476190476195 53.75661375661376,7.830687830687832 54.39153439153439,8.042328042328043 55.02645502645503,8.253968253968255 55.449735449735456,8.677248677248677 56.08465608465609,8.677248677248677 56.71957671957672,8.88888888888889 57.35449735449736,9.100529100529101 57.989417989417994,9.523809523809524 58.62433862433863,9.735449735449736 59.25925925925927,9.947089947089948 59.8941798941799,10.370370370370372 60.52910052910053,10.582010582010582 61.16402116402117,10.793650793650794 61.798941798941804,11.005291005291006 62.43386243386244,11.216931216931219 63.06878306878308,11.640211640211641 63.70370370370371,12.063492063492065 64.12698412698413,12.486772486772487 64.76190476190477,12.910052910052912 65.18518518518519,13.333333333333334 65.60846560846561,13.756613756613758 66.03174603174604,14.391534391534393 66.24338624338625,15.026455026455027 66.45502645502646,15.661375661375663 66.45502645502646,16.296296296296298 66.66666666666667,16.931216931216934 66.66666666666667,17.566137566137566 66.66666666666667,18.201058201058203 66.45502645502646,18.83597883597884 66.24338624338625,19.47089947089947 65.82010582010582,20.105820105820108 65.60846560846561,20.740740740740744 65.18518518518519,21.375661375661377 64.76190476190477,22.010582010582013 64.33862433862434,22.645502645502646 63.91534391534392,23.06878306878307 63.492063492063494,23.703703703703706 63.06878306878308,24.338624338624342 62.64550264550265,24.761904761904763 62.22222222222223,25.3968253968254 62.01058201058201,26.031746031746035 61.58730158730159,26.455026455026456 61.16402116402117,27.089947089947092 60.74074074074075,27.724867724867728 60.31746031746032,28.14814814814815 59.8941798941799,28.783068783068785 59.470899470899475,29.41798941798942 59.04761904761905,30.052910052910054 58.62433862433863,30.68783068783069 58.2010582010582,31.111111111111114 57.777777777777786,31.746031746031747 57.35449735449736,32.38095238095239 56.93121693121694,33.01587301587302 56.50793650793651,33.65079365079365 56.2962962962963,34.28571428571429 55.87301587301588,34.920634920634924 55.661375661375665,35.55555555555556 55.449735449735456,36.19047619047619 55.02645502645503,36.82539682539683 54.81481481481482,37.46031746031746 54.81481481481482,38.095238095238095 54.60317460317461,38.730158730158735 54.39153439153439,39.36507936507937 54.39153439153439,40.0 54.39153439153439,40.63492063492064 54.39153439153439,41.26984126984127 54.39153439153439,41.904761904761905 54.39153439153439,42.539682539682545 54.60317460317461,43.17460317460318 54.60317460317461,43.80952380952381 54.81481481481482,44.44444444444445 55.02645502645503,45.07936507936508 55.23809523809524,45.714285714285715 55.661375661375665,46.349206349206355 55.87301587301588,46.98412698412699 56.2962962962963,47.61904761904762 56.50793650793651,48.25396825396826 56.93121693121694,48.677248677248684 57.142857142857146,49.31216931216932 57.56613756613757,49.73544973544974 57.989417989417994,50.370370370370374 58.41269841269842,51.00529100529101 58.83597883597884,51.640211640211646 59.25925925925927,52.06349206349207 59.682539682539684,52.48677248677249 60.10582010582011,53.12169312169313 60.52910052910053,53.54497354497355 61.16402116402117,53.968253968253975 61.58730158730159,54.39153439153439 62.01058201058201,54.81481481481482 62.64550264550265,55.23809523809524 63.280423280423285,55.661375661375665 63.91534391534392,56.08465608465609 64.55026455026456,56.50793650793651 65.18518518518519,56.71957671957672 65.82010582010582,57.142857142857146 66.45502645502646,57.35449735449736 67.08994708994709,57.56613756613757 67.72486772486774,57.989417989417994 68.35978835978837,57.989417989417994 68.994708994709,58.2010582010582 69.62962962962963,58.41269841269842 70.26455026455027,58.41269841269842 70.8994708994709,58.41269841269842 71.53439153439155,58.62433862433863 72.16931216931218,58.83597883597884 72.80423280423281,58.83597883597884 73.43915343915344,59.04761904761905 74.07407407407408,59.04761904761905 74.70899470899471,59.25925925925927 75.34391534391536,59.25925925925927 75.97883597883599,59.25925925925927 76.61375661375662,59.25925925925927 77.24867724867725,59.25925925925927 77.88359788359789,59.04761904761905 78.51851851851852,59.04761904761905 79.15343915343917,59.04761904761905 79.7883597883598,59.04761904761905 80.42328042328043,58.83597883597884 81.05820105820106,58.62433862433863 81.6931216931217,58.62433862433863 82.32804232804233,58.41269841269842 82.96296296296298,58.2010582010582 83.59788359788361,57.989417989417994 84.23280423280424,57.777777777777786 84.86772486772487,57.56613756613757 85.5026455026455,57.35449735449736 86.13756613756614,57.142857142857146 86.77248677248677,56.71957671957672 87.40740740740742,56.50793650793651 88.04232804232805,56.2962962962963 88.46560846560847,55.87301587301588 88.8888888888889,55.449735449735456 89.52380952380953,55.23809523809524 89.94708994708995,54.81481481481482 90.37037037037038,54.39153439153439 90.7936507936508,53.968253968253975 91.21693121693123,53.54497354497355 91.64021164021165,52.91005291005291 92.06349206349208,52.48677248677249 92.27513227513228,51.851851851851855 92.69841269841271,51.21693121693122 92.91005291005291,50.58201058201058 93.12169312169313,49.94708994708995 93.33333333333334,49.31216931216932 93.54497354497356,48.677248677248684 93.75661375661376,48.042328042328045 93.75661375661376,47.40740740740741 93.96825396825398,46.77248677248678 93.96825396825398,46.13756613756614 93.96825396825398,45.50264550264551 94.17989417989419,44.867724867724874 94.17989417989419,44.232804232804234 94.17989417989419,43.5978835978836 94.17989417989419,42.96296296296297 94.17989417989419,42.32804232804233 94.17989417989419,41.6931216931217 93.96825396825398,41.058201058201064 93.96825396825398,40.423280423280424 93.96825396825398,39.78835978835979 93.75661375661376,39.15343915343916 93.75661375661376,38.51851851851852 93.54497354497356,37.883597883597886 93.54497354497356,37.248677248677254 93.33333333333334,36.613756613756614 93.12169312169313,35.97883597883598 92.91005291005291,35.34391534391535 92.91005291005291,34.70899470899471 92.69841269841271,34.074074074074076 92.4867724867725,33.43915343915344 92.27513227513228,32.804232804232804 92.27513227513228,32.16931216931217 92.06349206349208,31.53439153439154 91.85185185185186,30.899470899470902 91.64021164021165,30.264550264550266 91.64021164021165,29.629629629629633 91.42857142857143,28.994708994708997 91.42857142857143,28.35978835978836 91.21693121693123,27.724867724867728 91.21693121693123,27.089947089947092 91.00529100529101,26.455026455026456 91.00529100529101,25.820105820105823 90.7936507936508,25.185185185185187 90.7936507936508,24.55026455026455 91.00529100529101,23.915343915343918 91.21693121693123,23.280423280423282 91.21693121693123,22.645502645502646 91.64021164021165,22.010582010582013 91.85185185185186,21.375661375661377 92.27513227513228,20.740740740740744 92.69841269841271,20.31746031746032 93.33333333333334,19.894179894179896 93.75661375661376,19.47089947089947 94.39153439153439,19.25925925925926 95.02645502645504,19.047619047619047 95.66137566137567,18.83597883597884 96.2962962962963,18.624338624338627 96.93121693121694,18.624338624338627 97.56613756613757,18.83597883597884 98.2010582010582,18.83597883597884 98.83597883597885,18.83597883597884 99.47089947089948,18.624338624338627 100.10582010582011,19.047619047619047 100.74074074074075,19.047619047619047 101.37566137566138,19.047619047619047 102.01058201058201,19.047619047619047 102.43386243386244,19.47089947089947 103.06878306878308,19.25925925925926 103.70370370370371,19.25925925925926 104.33862433862434,19.47089947089947 104.97354497354497,19.682539682539684 105.60846560846562,19.682539682539684 106.24338624338625,19.894179894179896 106.87830687830689,19.894179894179896 107.51322751322752,20.105820105820108 108.14814814814815,20.31746031746032 108.78306878306879,20.31746031746032 109.41798941798943,20.529100529100532 110.05291005291006,20.740740740740744 110.6878306878307,20.740740740740744 111.32275132275133,20.952380952380953 111.95767195767196,21.164021164021165 112.5925925925926,21.164021164021165 113.22751322751324,21.375661375661377 113.86243386243387,21.375661375661377 114.49735449735451,21.58730158730159 115.13227513227514,21.7989417989418 115.76719576719577,21.7989417989418 116.4021164021164,22.010582010582013 117.03703703703705,22.010582010582013 117.67195767195768,22.222222222222225 118.30687830687832,22.222222222222225 118.94179894179895,22.433862433862437 119.57671957671958,22.645502645502646 120.21164021164022,22.645502645502646 120.84656084656086,22.857142857142858 121.4814814814815,22.857142857142858 122.11640211640213,23.06878306878307 122.75132275132276,23.06878306878307 123.3862433862434,23.280423280423282 124.02116402116403,23.280423280423282 124.65608465608466,23.492063492063494 125.2910052910053,23.703703703703706 125.92592592592594,23.703703703703706 126.56084656084657,23.915343915343918 127.1957671957672,23.915343915343918 127.83068783068784,23.915343915343918 128.25396825396825,24.338624338624342 128.88888888888889,24.338624338624342 129.52380952380955,24.338624338624342 130.15873015873018,24.338624338624342 130.7936507936508,24.55026455026455 131.42857142857144,24.761904761904763 132.06349206349208,24.973544973544975 132.6984126984127,24.973544973544975 133.33333333333334,24.973544973544975 133.96825396825398,25.185185185185187 134.6031746031746,25.185185185185187 135.23809523809524,25.3968253968254 135.87301587301587,25.60846560846561 136.5079365079365,25.60846560846561 137.14285714285717,25.60846560846561 137.7777777777778,25.60846560846561 138.41269841269843,25.60846560846561 139.04761904761907,25.60846560846561 139.6825396825397,25.60846560846561 140.31746031746033,25.820105820105823 140.95238095238096,25.820105820105823 141.5873015873016,25.820105820105823 142.22222222222223,26.031746031746035 142.85714285714286,26.031746031746035 143.4920634920635,26.031746031746035 144.12698412698413,26.243386243386244 144.76190476190476,26.455026455026456 145.39682539682542,26.243386243386244 146.03174603174605,26.455026455026456 146.66666666666669,26.455026455026456 147.30158730158732,26.666666666666668 147.93650793650795,26.666666666666668 148.57142857142858,26.666666666666668 149.20634920634922,26.666666666666668 152.38095238095238,26.87830687830688" style="fill:none; stroke:#cc0000; stroke-width:1.0"  /><polyline points="152.38095238095238,26.87830687830688 153.22751322751324,30.476190476190478 153.43915343915344,31.111111111111114 153.65079365079367,31.746031746031747 153.65079365079367,32.38095238095239 153.86243386243387,33.01587301587302 154.07407407407408,33.65079365079365 154.2857142857143,34.28571428571429 154.4973544973545,34.920634920634924 154.4973544973545,35.55555555555556 154.7089947089947,36.19047619047619 154.92063492063494,36.82539682539683 155.13227513227514,37.46031746031746 155.13227513227514,38.095238095238095 155.34391534391534,38.730158730158735 155.55555555555557,39.36507936507937 155.55555555555557,40.0 155.76719576719577,40.63492063492064 155.978835978836,41.26984126984127 155.978835978836,41.904761904761905 156.1904761904762,42.539682539682545 156.1904761904762,43.17460317460318 156.4021164021164,43.80952380952381 156.61375661375664,44.44444444444445 156.61375661375664,45.07936507936508 156.82539682539684,45.714285714285715 156.82539682539684,46.349206349206355 157.03703703703704,46.98412698412699 157.03703703703704,47.61904761904762 157.24867724867727,48.25396825396826 157.24867724867727,48.88888888888889 157.24867724867727,49.523809523809526 157.46031746031747,50.158730158730165 157.46031746031747,50.7936507936508 157.46031746031747,51.42857142857143 157.67195767195767,52.06349206349207 157.67195767195767,52.6984126984127 157.67195767195767,53.333333333333336 157.67195767195767,53.968253968253975 157.8835978835979,54.60317460317461 157.8835978835979,55.23809523809524 157.8835978835979,55.87301587301588 157.8835978835979,56.50793650793651 157.8835978835979,57.142857142857146 157.8835978835979,57.777777777777786 158.0952380952381,58.41269841269842 158.0952380952381,59.04761904761905 158.0952380952381,59.682539682539684 158.0952380952381,60.31746031746032 158.30687830687833,60.952380952380956 158.30687830687833,61.58730158730159 158.30687830687833,62.22222222222223 158.30687830687833,62.85714285714286 158.30687830687833,63.492063492063494 158.30687830687833,64.12698412698413 158.30687830687833,64.76190476190477 158.30687830687833,65.3968253968254 158.0952380952381,66.03174603174604 158.0952380952381,66.66666666666667 158.0952380952381,67.3015873015873 158.0952380952381,67.93650793650794 158.0952380952381,68.57142857142858 157.8835978835979,69.20634920634922 157.8835978835979,69.84126984126985 157.8835978835979,70.47619047619048 157.67195767195767,71.11111111111111 157.67195767195767,71.74603174603175 157.46031746031747,72.38095238095238 157.24867724867727,73.01587301587303 156.82539682539684,73.43915343915344 156.61375661375664,74.07407407407408 156.4021164021164,74.70899470899471 155.978835978836,75.34391534391536 155.55555555555557,75.97883597883599 155.13227513227514,76.61375661375662 154.7089947089947,77.24867724867725 154.2857142857143,77.67195767195767 153.86243386243387,78.0952380952381 153.43915343915344,78.51851851851852 153.01587301587304,78.94179894179895 152.38095238095238,79.36507936507937 151.95767195767198,79.7883597883598 151.32275132275134,80.21164021164022 150.6878306878307,80.63492063492065 150.05291005291005,80.84656084656085 149.41798941798942,81.26984126984128 148.78306878306879,81.48148148148148 148.14814814814815,81.6931216931217 147.51322751322752,81.90476190476191 146.8783068783069,82.11640211640213 146.24338624338625,82.32804232804233 145.60846560846562,82.53968253968254 144.973544973545,82.53968253968254 144.33862433862436,82.75132275132276 143.70370370370372,82.75132275132276 143.0687830687831,82.75132275132276 142.43386243386246,82.75132275132276 141.7989417989418,82.75132275132276 141.16402116402116,82.53968253968254 140.52910052910053,82.53968253968254 139.8941798941799,82.53968253968254 139.25925925925927,82.32804232804233 138.62433862433863,82.32804232804233 137.989417989418,82.53968253968254 137.35449735449737,82.32804232804233 136.71957671957674,82.32804232804233 136.0846560846561,82.11640211640213 135.44973544973547,82.11640211640213 134.81481481481484,81.90476190476191 134.17989417989418,81.90476190476191 133.54497354497354,81.6931216931217 132.9100529100529,81.48148148148148 132.27513227513228,81.26984126984128 131.64021164021165,81.26984126984128 131.005291005291,81.05820105820106 130.37037037037038,80.84656084656085 129.73544973544975,80.63492063492065 129.10052910052912,80.42328042328043 128.46560846560848,80.21164021164022 127.83068783068784,80.0 127.1957671957672,80.0 126.56084656084657,79.7883597883598 125.92592592592594,79.57671957671958 125.2910052910053,79.36507936507937 124.65608465608466,79.36507936507937 124.02116402116403,79.15343915343917 123.3862433862434,79.15343915343917 122.75132275132276,79.15343915343917 122.11640211640213,79.15343915343917 121.4814814814815,79.15343915343917 120.84656084656086,79.15343915343917 120.21164021164022,79.36507936507937 119.57671957671958,79.57671957671958 118.94179894179895,79.7883597883598 118.30687830687832,80.0 117.67195767195768,80.21164021164022 117.03703703703705,80.42328042328043 116.61375661375662,80.84656084656085 115.97883597883599,81.05820105820106 115.55555555555557,81.48148148148148 114.92063492063492,81.90476190476191 114.49735449735451,82.32804232804233 114.07407407407408,82.75132275132276 113.65079365079366,83.3862433862434 113.22751322751324,83.80952380952381 112.80423280423281,84.44444444444446 112.3809523809524,85.07936507936509 112.16931216931218,85.71428571428572 111.74603174603176,86.34920634920636 111.53439153439155,86.98412698412699 111.32275132275133,87.61904761904762 111.11111111111111,88.25396825396827 110.6878306878307,88.8888888888889 110.6878306878307,89.52380952380953 110.47619047619048,90.15873015873017 110.26455026455027,90.7936507936508 110.05291005291006,91.42857142857143 110.05291005291006,92.06349206349208 109.84126984126985,92.69841269841271 109.62962962962963,93.33333333333334 109.62962962962963,93.96825396825398 109.62962962962963,94.60317460317461 109.41798941798943,95.23809523809524 109.62962962962963,95.87301587301587 109.41798941798943,96.50793650793652 109.41798941798943,97.14285714285715 109.41798941798943,97.77777777777779 109.20634920634922,98.41269841269842 109.20634920634922,99.04761904761905 109.20634920634922,99.68253968253968 109.20634920634922,100.31746031746033 109.20634920634922,100.95238095238096 109.20634920634922,101.5873015873016 109.20634920634922,102.22222222222223 109.41798941798943,102.85714285714286 109.41798941798943,103.4920634920635 109.41798941798943,104.12698412698414 109.41798941798943,104.76190476190477 109.62962962962963,105.3968253968254 109.62962962962963,106.03174603174604 109.62962962962963,106.66666666666667 109.84126984126985,107.3015873015873 110.05291005291006,107.93650793650795 110.05291005291006,108.57142857142858 110.26455026455027,109.20634920634922 110.47619047619048,109.84126984126985 110.6878306878307,110.47619047619048 111.11111111111111,111.11111111111111 111.32275132275133,111.74603174603176 111.74603174603176,112.3809523809524 112.16931216931218,113.01587301587303 112.5925925925926,113.43915343915344 113.01587301587303,113.86243386243387 113.43915343915344,114.28571428571429 113.86243386243387,114.70899470899472 114.28571428571429,115.13227513227514 114.92063492063492,115.55555555555557 115.55555555555557,115.97883597883599 116.1904761904762,116.4021164021164 116.82539682539684,116.61375661375662 117.46031746031747,116.82539682539684 118.0952380952381,117.03703703703705 118.73015873015873,117.24867724867725 119.36507936507937,117.46031746031747 120.00000000000001,117.46031746031747 120.63492063492065,117.46031746031747 121.26984126984128,117.46031746031747 121.90476190476191,117.67195767195768 122.53968253968254,117.67195767195768 123.17460317460318,117.46031746031747 123.80952380952382,117.24867724867725 124.44444444444446,117.24867724867725 125.07936507936509,117.24867724867725 125.5026455026455,116.82539682539684 126.13756613756615,116.61375661375662 126.56084656084657,116.1904761904762 127.1957671957672,115.97883597883599 127.83068783068784,115.55555555555557 128.46560846560848,115.34391534391536 129.10052910052912,115.13227513227514 129.52380952380955,114.70899470899472 130.15873015873018,114.49735449735451 130.7936507936508,114.28571428571429 131.42857142857144,114.07407407407408 132.06349206349208,113.86243386243387 132.6984126984127,113.43915343915344 133.33333333333334,113.43915343915344 133.96825396825398,113.01587301587303 134.6031746031746,112.80423280423281 135.23809523809524,112.5925925925926 135.87301587301587,112.3809523809524 136.5079365079365,112.16931216931218 137.14285714285717,112.16931216931218 137.7777777777778,112.16931216931218 138.2010582010582,111.74603174603176 138.62433862433863,111.32275132275133 139.25925925925927,111.53439153439155 139.8941798941799,111.11111111111111 140.52910052910053,111.11111111111111 140.95238095238096,110.6878306878307 141.5873015873016,110.6878306878307 142.22222222222223,110.6878306878307 142.85714285714286,110.47619047619048 143.2804232804233,110.05291005291006 143.91534391534393,110.26455026455027 144.33862433862436,109.84126984126985 144.973544973545,109.84126984126985 145.60846560846562,109.84126984126985 146.24338624338625,109.84126984126985 146.8783068783069,109.84126984126985 147.51322751322752,109.84126984126985 148.14814814814815,110.05291005291006 148.78306878306879,110.26455026455027 149.41798941798942,110.26455026455027 150.05291005291005,110.6878306878307 150.6878306878307,110.89947089947091 151.32275132275134,111.32275132275133 151.74603174603175,111.74603174603176 152.16931216931218,112.16931216931218 152.5925925925926,112.80423280423281 152.8042328042328,113.43915343915344 153.01587301587304,114.07407407407408 153.43915343915344,114.70899470899472 153.65079365079367,115.34391534391536 153.86243386243387,115.97883597883599 154.07407407407408,116.61375661375662 154.2857142857143,117.24867724867725 154.2857142857143,117.88359788359789 154.4973544973545,118.51851851851853 154.7089947089947,119.15343915343917 154.92063492063494,119.7883597883598 154.92063492063494,120.42328042328043 155.13227513227514,121.05820105820106 155.34391534391534,121.6931216931217 155.34391534391534,122.32804232804234 155.55555555555557,122.96296296296298 155.55555555555557,123.59788359788361 155.76719576719577,124.23280423280424 155.978835978836,124.86772486772487 155.978835978836,125.5026455026455 156.1904761904762,126.13756613756615 156.1904761904762,126.77248677248679 156.4021164021164,127.40740740740742 156.4021164021164,128.04232804232805 156.61375661375664,128.67724867724868 156.61375661375664,129.31216931216932 156.82539682539684,129.94708994708995 157.03703703703704,130.58201058201058 157.24867724867727,131.21693121693121 157.46031746031747,131.85185185185185 157.46031746031747,132.4867724867725 157.46031746031747,133.12169312169314 157.67195767195767,133.75661375661377 157.67195767195767,134.3915343915344 157.8835978835979,135.02645502645504 157.8835978835979,135.66137566137567 158.0952380952381,136.2962962962963 158.0952380952381,136.93121693121694 158.0952380952381,137.56613756613757 158.30687830687833,138.2010582010582 158.30687830687833,138.83597883597884 158.30687830687833,139.47089947089947 158.51851851851853,140.10582010582013 158.51851851851853,140.74074074074076 158.51851851851853,141.3756613756614 158.73015873015873,142.01058201058203 158.73015873015873,142.64550264550266 158.73015873015873,143.2804232804233 158.73015873015873,143.91534391534393 158.94179894179896,144.55026455026456 158.94179894179896,145.1851851851852 158.94179894179896,145.82010582010582 158.94179894179896,146.45502645502646 159.15343915343917,147.0899470899471 159.15343915343917,147.72486772486775 159.15343915343917,148.35978835978838 159.15343915343917,148.99470899470901 159.15343915343917,149.62962962962965 159.15343915343917,150.26455026455028 159.15343915343917,150.8994708994709 159.15343915343917,151.53439153439155 159.36507936507937,152.16931216931218 159.36507936507937,152.8042328042328 159.36507936507937,153.43915343915344 159.36507936507937,154.07407407407408 159.36507936507937,154.7089947089947 159.36507936507937,155.34391534391534 159.36507936507937,155.978835978836 159.36507936507937,156.61375661375664 159.36507936507937,157.24867724867727 159.36507936507937,157.8835978835979 159.5767195767196,161.4814814814815" style="fill:none; stroke:#999900; stroke-width:1.0"  /><polyline points="159.5767195767196,161.4814814814815 155.76719576719577,160.42328042328043 155.13227513227514,160.42328042328043 154.4973544973545,160.21164021164023 153.86243386243387,160.0 153.22751322751324,159.7883597883598 152.5925925925926,159.5767195767196 151.95767195767198,159.36507936507937 151.32275132275134,159.15343915343917 150.6878306878307,158.94179894179896 150.05291005291005,158.73015873015873 149.41798941798942,158.51851851851853 148.78306878306879,158.30687830687833 148.14814814814815,158.0952380952381 147.51322751322752,158.0952380952381 146.8783068783069,157.67195767195767 146.24338624338625,157.46031746031747 145.60846560846562,157.24867724867727 144.973544973545,157.03703703703704 144.33862433862436,156.82539682539684 143.70370370370372,156.61375661375664 143.0687830687831,156.4021164021164 142.43386243386246,156.1904761904762 141.7989417989418,156.1904761904762 141.16402116402116,155.978835978836 140.52910052910053,155.76719576719577 139.8941798941799,155.34391534391534 139.25925925925927,155.13227513227514 138.62433862433863,154.92063492063494 137.989417989418,154.92063492063494 137.35449735449737,154.7089947089947 136.71957671957674,154.4973544973545 136.0846560846561,154.2857142857143 135.44973544973547,154.07407407407408 134.81481481481484,153.86243386243387 134.17989417989418,153.65079365079367 133.54497354497354,153.43915343915344 132.9100529100529,153.22751322751324 132.27513227513228,153.01587301587304 131.64021164021165,152.5925925925926 131.005291005291,152.38095238095238 130.37037037037038,152.16931216931218 129.73544973544975,151.95767195767198 129.10052910052912,151.74603174603175 128.46560846560848,151.32275132275134 127.83068783068784,151.11111111111111 127.1957671957672,150.6878306878307 126.56084656084657,150.47619047619048 125.92592592592594,150.26455026455028 125.2910052910053,150.05291005291005 124.65608465608466,149.62962962962965 124.02116402116403,149.41798941798942 123.3862433862434,149.20634920634922 122.75132275132276,148.99470899470901 122.11640211640213,148.78306878306879 121.4814814814815,148.57142857142858 120.84656084656086,148.14814814814815 120.21164021164022,147.93650793650795 119.57671957671958,147.72486772486775 118.94179894179895,147.51322751322752 118.30687830687832,147.30158730158732 117.67195767195768,147.0899470899471 117.03703703703705,146.66666666666669 116.4021164021164,146.45502645502646 115.76719576719577,146.24338624338625 115.13227513227514,146.03174603174605 114.49735449735451,145.60846560846562 113.86243386243387,145.39682539682542 113.22751322751324,145.1851851851852 112.5925925925926,144.973544973545 111.95767195767196,144.76190476190476 111.32275132275133,144.55026455026456 110.6878306878307,144.33862433862436 110.05291005291006,143.91534391534393 109.41798941798943,143.70370370370372 108.78306878306879,143.4920634920635 108.14814814814815,143.2804232804233 107.51322751322752,143.0687830687831 106.87830687830689,142.85714285714286 106.24338624338625,142.43386243386246 105.60846560846562,142.43386243386246 104.97354497354497,142.01058201058203 104.33862433862434,141.7989417989418 103.70370370370371,141.5873015873016 103.06878306878308,141.5873015873016 102.43386243386244,141.3756613756614 101.79894179894181,141.16402116402116 101.16402116402116,140.95238095238096 100.52910052910053,140.74074074074076 99.8941798941799,140.52910052910053 99.25925925925927,140.31746031746033 98.62433862433863,140.31746031746033 97.989417989418,140.10582010582013 97.35449735449737,139.8941798941799 96.71957671957672,139.8941798941799 96.08465608465609,139.6825396825397 95.44973544973546,139.6825396825397 94.81481481481482,139.47089947089947 94.17989417989419,139.25925925925927 93.54497354497356,139.25925925925927 92.91005291005291,139.04761904761907 92.27513227513228,139.04761904761907 91.64021164021165,139.04761904761907 91.00529100529101,138.83597883597884 90.37037037037038,138.83597883597884 89.73544973544975,139.04761904761907 89.1005291005291,139.04761904761907 88.46560846560847,139.04761904761907 87.83068783068784,139.04761904761907 87.1957671957672,139.25925925925927 86.56084656084657,139.25925925925927 85.92592592592594,139.47089947089947 85.29100529100529,139.6825396825397 84.65608465608466,139.6825396825397 84.02116402116403,139.8941798941799 83.3862433862434,140.31746031746033 82.75132275132276,140.52910052910053 82.11640211640213,140.95238095238096 81.6931216931217,141.3756613756614 81.26984126984128,141.7989417989418 80.84656084656085,142.22222222222223 80.42328042328043,142.85714285714286 80.21164021164022,143.4920634920635 80.0,144.12698412698413 79.7883597883598,144.76190476190476 79.7883597883598,145.39682539682542 79.7883597883598,146.03174603174605 79.7883597883598,146.66666666666669 79.7883597883598,147.30158730158732 80.0,147.93650793650795 80.21164021164022,148.57142857142858 80.42328042328043,149.20634920634922 80.63492063492065,149.84126984126985 80.84656084656085,150.47619047619048 81.26984126984128,151.11111111111111 81.48148148148148,151.74603174603175 81.90476190476191,152.38095238095238 82.32804232804233,153.01587301587304 82.75132275132276,153.65079365079367 83.17460317460318,154.2857142857143 83.59788359788361,154.92063492063494 84.02116402116403,155.55555555555557 84.44444444444446,156.1904761904762 84.86772486772487,156.82539682539684 85.29100529100529,157.46031746031747 85.5026455026455,158.0952380952381 85.92592592592594,158.73015873015873 86.34920634920636,159.36507936507937 86.56084656084657,160.0 86.77248677248677,160.63492063492066 86.98412698412699,161.2698412698413 87.40740740740742,161.90476190476193 87.40740740740742,162.53968253968256 87.61904761904762,163.1746031746032 87.83068783068784,163.80952380952382 88.04232804232805,164.44444444444446 88.04232804232805,165.0793650793651 88.46560846560847,165.50264550264552 88.46560846560847,166.13756613756615 88.46560846560847,166.7724867724868 88.46560846560847,167.40740740740742 88.46560846560847,168.04232804232805 88.46560846560847,168.67724867724868 88.46560846560847,169.31216931216932 88.46560846560847,169.94708994708995 88.46560846560847,170.58201058201058 88.46560846560847,171.21693121693124 88.25396825396827,171.85185185185188 88.04232804232805,172.4867724867725 87.83068783068784,173.12169312169314 87.61904761904762,173.75661375661377 87.1957671957672,174.3915343915344 86.77248677248677,174.81481481481484 86.34920634920636,175.23809523809524 85.92592592592594,175.66137566137567 85.29100529100529,175.87301587301587 84.86772486772487,176.2962962962963 84.23280423280424,176.50793650793653 83.59788359788361,176.93121693121694 82.96296296296298,177.14285714285717 82.32804232804233,177.56613756613757 81.6931216931217,177.7777777777778 81.05820105820106,177.989417989418 80.42328042328043,178.2010582010582 79.7883597883598,178.41269841269843 79.15343915343917,178.62433862433863 78.51851851851852,179.04761904761907 77.88359788359789,179.04761904761907 77.24867724867725,179.25925925925927 76.61375661375662,179.4708994708995 75.97883597883599,179.6825396825397 75.34391534391536,179.8941798941799 74.70899470899471,179.8941798941799 74.07407407407408,180.10582010582013 73.43915343915344,180.31746031746033 72.80423280423281,180.31746031746033 72.16931216931218,180.52910052910053 71.53439153439155,180.52910052910053 70.8994708994709,180.52910052910053 70.26455026455027,180.74074074074076 69.62962962962963,180.74074074074076 68.994708994709,180.74074074074076 68.35978835978837,180.74074074074076 67.72486772486774,180.95238095238096 67.08994708994709,181.16402116402116 66.45502645502646,181.16402116402116 65.82010582010582,181.16402116402116 65.18518518518519,181.16402116402116 64.55026455026456,180.95238095238096 63.91534391534392,180.95238095238096 63.280423280423285,180.95238095238096 62.64550264550265,180.95238095238096 62.01058201058201,180.95238095238096 61.37566137566138,180.95238095238096 60.74074074074075,180.74074074074076 60.10582010582011,180.74074074074076 59.470899470899475,180.52910052910053 58.83597883597884,180.52910052910053 58.2010582010582,180.31746031746033 57.56613756613757,180.10582010582013 56.93121693121694,179.8941798941799 56.2962962962963,179.8941798941799 55.661375661375665,179.4708994708995 55.02645502645503,179.25925925925927 54.39153439153439,179.04761904761907 53.75661375661376,178.83597883597884 53.12169312169313,178.41269841269843 52.48677248677249,178.2010582010582 51.851851851851855,177.7777777777778 51.21693121693122,177.56613756613757 50.58201058201058,177.14285714285717 49.94708994708995,176.71957671957674 49.523809523809526,176.2962962962963 48.88888888888889,175.87301587301587 48.46560846560847,175.44973544973547 48.042328042328045,174.81481481481484 47.61904761904762,174.3915343915344 47.40740740740741,173.75661375661377 46.98412698412699,173.33333333333334 46.98412698412699,172.6984126984127 46.560846560846564,172.06349206349208 46.560846560846564,171.42857142857144 46.560846560846564,170.7936507936508 46.560846560846564,170.15873015873018 46.560846560846564,169.52380952380955 46.560846560846564,168.8888888888889 46.77248677248678,168.25396825396825 46.98412698412699,167.61904761904762 47.195767195767196,166.984126984127 47.61904761904762,166.34920634920636 47.830687830687836,165.71428571428572 48.042328042328045,165.0793650793651 48.46560846560847,164.44444444444446 48.88888888888889,164.02116402116403 49.31216931216932,163.3862433862434 49.73544973544974,162.75132275132276 50.158730158730165,162.11640211640213 50.58201058201058,161.6931216931217 51.00529100529101,161.05820105820106 51.42857142857143,160.42328042328043 51.851851851851855,159.7883597883598 52.27513227513228,159.36507936507937 52.6984126984127,158.73015873015873 53.12169312169313,158.30687830687833 53.54497354497355,157.67195767195767 53.968253968253975,157.03703703703704 54.39153439153439,156.4021164021164 54.81481481481482,155.978835978836 55.23809523809524,155.34391534391534 55.449735449735456,154.7089947089947 55.87301587301588,154.07407407407408 56.08465608465609,153.43915343915344 56.2962962962963,152.8042328042328 56.50793650793651,152.16931216931218 56.71957671957672,151.53439153439155 56.71957671957672,150.8994708994709 56.71957671957672,150.26455026455028 56.71957671957672,149.62962962962965 56.50793650793651,148.99470899470901 56.2962962962963,148.35978835978838 56.08465608465609,147.72486772486775 55.661375661375665,147.30158730158732 55.23809523809524,146.66666666666669 54.81481481481482,146.03174603174605 54.39153439153439,145.60846560846562 53.968253968253975,145.1851851851852 53.333333333333336,144.76190476190476 52.91005291005291,144.33862433862436 52.27513227513228,143.91534391534393 51.640211640211646,143.4920634920635 51.00529100529101,143.2804232804233 50.370370370370374,142.85714285714286 49.73544973544974,142.64550264550266 49.1005291005291,142.43386243386246 48.46560846560847,142.01058201058203 47.830687830687836,141.5873015873016 47.195767195767196,141.3756613756614 46.560846560846564,141.16402116402116 45.92592592592593,140.95238095238096 45.29100529100529,140.74074074074076 44.65608465608466,140.52910052910053 44.021164021164026,140.10582010582013 43.386243386243386,139.8941798941799 42.75132275132275,139.6825396825397 42.11640211640212,139.47089947089947 41.48148148148149,139.25925925925927 40.84656084656085,139.04761904761907 40.211640211640216,138.83597883597884 39.57671957671958,138.62433862433863 38.94179894179894,138.41269841269843 38.30687830687831,138.2010582010582 37.67195767195768,137.989417989418 37.03703703703704,137.7777777777778 36.402116402116405,137.56613756613757 35.76719576719577,137.56613756613757 35.13227513227513,137.35449735449737 34.4973544973545,137.14285714285717 33.86243386243387,136.93121693121694 33.22751322751323,137.14285714285717 32.592592592592595,136.93121693121694 31.95767195767196,136.71957671957674 31.322751322751326,136.71957671957674 30.68783068783069,136.5079365079365 30.052910052910054,136.2962962962963 29.41798941798942,136.0846560846561 28.783068783068785,136.0846560846561 28.14814814814815,135.87301587301587 27.513227513227516,135.87301587301587 26.87830687830688,135.66137566137567 26.243386243386244,135.66137566137567 25.60846560846561,135.44973544973547 24.973544973544975,135.44973544973547 24.338624338624342,135.23809523809524 23.703703703703706,135.23809523809524 23.06878306878307,135.02645502645504 22.433862433862437,135.02645502645504 21.7989417989418,135.02645502645504 21.164021164021165,135.02645502645504 20.529100529100532,134.81481481481484 19.894179894179896,134.81481481481484 19.25925925925926,134.81481481481484 18.624338624338627,134.81481481481484 17.98941798941799,134.81481481481484 17.354497354497354,134.6031746031746 16.71957671957672,134.6031746031746 16.084656084656086,134.6031746031746 15.449735449735451,134.6031746031746 14.814814814814817,134.6031746031746 11.640211640211641,134.3915343915344" style="fill:none; stroke:#00aa99; stroke-width:1.0"  /><polyline points="11.640211640211641,134.3915343915344 11.216931216931219,131.21693121693121 11.005291005291006,130.58201058201058 11.005291005291006,129.94708994708995 10.793650793650794,129.31216931216932 10.793650793650794,128.67724867724868 10.793650793650794,128.04232804232805 10.793650793650794,127.40740740740742 10.582010582010582,126.77248677248679 10.582010582010582,126.13756613756615 10.370370370370372,125.5026455026455 10.370370370370372,124.86772486772487 10.15873015873016,124.23280423280424 10.15873015873016,123.59788359788361 9.947089947089948,122.96296296296298 9.947089947089948,122.32804232804234 9.735449735449736,121.6931216931217 9.735449735449736,121.05820105820106 9.523809523809524,120.42328042328043 9.312169312169313,119.7883597883598 9.312169312169313,119.15343915343917 9.100529100529101,118.51851851851853 8.88888888888889,117.88359788359789 8.88888888888889,117.24867724867725 8.465608465608467,116.61375661375662 8.465608465608467,115.97883597883599 8.253968253968255,115.34391534391536 8.253968253968255,114.70899470899472 8.042328042328043,114.07407407407408 8.042328042328043,113.43915343915344 7.830687830687832,112.80423280423281 7.6190476190476195,112.16931216931218 7.407407407407408,111.53439153439155 7.195767195767196,110.89947089947091 6.984126984126985,110.26455026455027 6.772486772486773,109.62962962962963 6.560846560846561,108.994708994709 6.34920634920635,108.35978835978837 6.137566137566138,107.72486772486774 5.9259259259259265,107.0899470899471 5.714285714285714,106.45502645502647 5.502645502645503,105.82010582010582 5.291005291005291,105.18518518518519 5.07936507936508,104.55026455026456 4.867724867724868,103.91534391534393 4.656084656084657,103.28042328042329 4.2328042328042335,102.64550264550266 4.021164021164021,102.01058201058201 3.8095238095238098,101.37566137566138 3.597883597883598,100.74074074074075 3.3862433862433865,100.10582010582011 2.9629629629629632,99.47089947089948 2.53968253968254,98.83597883597885 2.3280423280423284,98.2010582010582 2.3280423280423284,97.56613756613757 1.9047619047619049,97.14285714285715 1.6931216931216932,96.50793650793652 1.4814814814814816,95.87301587301587 1.26984126984127,95.23809523809524 1.0582010582010584,94.60317460317461 1.0582010582010584,93.96825396825398 1.0582010582010584,93.33333333333334 1.0582010582010584,92.69841269841271 1.0582010582010584,92.06349206349208 1.26984126984127,91.42857142857143 1.4814814814814816,90.7936507936508 1.6931216931216932,90.15873015873017 1.9047619047619049,89.52380952380953 2.3280423280423284,89.1005291005291 2.53968253968254,88.46560846560847 3.174603174603175,88.04232804232805 3.597883597883598,87.61904761904762 4.021164021164021,87.1957671957672 4.656084656084657,86.98412698412699 5.291005291005291,86.98412698412699 5.9259259259259265,86.77248677248677 6.560846560846561,86.77248677248677 7.195767195767196,86.77248677248677 7.830687830687832,86.77248677248677 8.465608465608467,86.77248677248677 9.100529100529101,86.98412698412699 9.735449735449736,87.1957671957672 10.370370370370372,87.40740740740742 11.005291005291006,87.40740740740742 11.640211640211641,87.83068783068784 12.275132275132275,88.04232804232805 12.910052910052912,88.25396825396827 13.544973544973546,88.67724867724868 14.17989417989418,88.8888888888889 14.814814814814817,89.31216931216932 15.449735449735451,89.73544973544975 16.084656084656086,89.94708994708995 16.50793650793651,90.37037037037038 17.142857142857146,90.58201058201058 17.77777777777778,90.7936507936508 18.412698412698415,91.00529100529101 18.83597883597884,91.42857142857143 19.47089947089947,91.42857142857143 20.105820105820108,91.64021164021165 20.740740740740744,91.85185185185186 21.375661375661377,91.85185185185186 22.010582010582013,91.85185185185186 22.645502645502646,92.06349206349208 23.280423280423282,91.85185185185186 23.915343915343918,91.85185185185186 24.55026455026455,91.85185185185186 25.185185185185187,91.85185185185186 25.820105820105823,91.64021164021165 26.455026455026456,91.42857142857143 27.089947089947092,91.42857142857143 27.724867724867728,91.21693121693123 28.35978835978836,91.00529100529101 28.994708994708997,90.7936507936508 29.629629629629633,90.37037037037038 30.264550264550266,90.15873015873017 30.899470899470902,89.73544973544975 31.322751322751326,89.31216931216932 31.95767195767196,88.8888888888889 32.592592592592595,88.46560846560847 33.01587301587302,88.04232804232805 33.43915343915344,87.40740740740742 33.86243386243387,86.98412698412699 34.28571428571429,86.56084656084657 34.70899470899471,86.13756613756614 35.13227513227513,85.5026455026455 35.55555555555556,84.86772486772487 35.97883597883598,84.23280423280424 36.19047619047619,83.59788359788361 36.613756613756614,83.17460317460318 36.82539682539683,82.53968253968254 37.03703703703704,81.90476190476191 37.248677248677254,81.26984126984128 37.67195767195768,80.63492063492065 37.883597883597886,80.0 38.095238095238095,79.36507936507937 38.30687830687831,78.73015873015873 38.30687830687831,78.0952380952381 38.51851851851852,77.46031746031747 38.51851851851852,76.82539682539684 38.730158730158735,76.19047619047619 38.730158730158735,75.55555555555556 38.94179894179894,74.92063492063492 38.94179894179894,74.28571428571429 38.94179894179894,73.65079365079366 38.94179894179894,73.01587301587303 38.94179894179894,72.38095238095238 38.94179894179894,71.74603174603175 38.94179894179894,71.11111111111111 38.730158730158735,70.47619047619048 38.730158730158735,69.84126984126985 38.51851851851852,69.20634920634922 38.51851851851852,68.57142857142858 38.30687830687831,67.93650793650794 38.095238095238095,67.3015873015873 37.883597883597886,66.66666666666667 37.67195767195768,66.03174603174604 37.46031746031746,65.3968253968254 37.248677248677254,64.76190476190477 37.03703703703704,64.12698412698413 36.613756613756614,63.492063492063494 36.402116402116405,62.85714285714286 35.97883597883598,62.22222222222223 35.55555555555556,61.58730158730159 35.34391534391535,60.952380952380956 34.920634920634924,60.52910052910053 34.4973544973545,60.10582010582011 34.074074074074076,59.470899470899475 33.65079365079365,59.04761904761905 33.22751322751323,58.41269841269842 32.592592592592595,58.2010582010582 32.16931216931217,57.777777777777786 31.53439153439154,57.35449735449736 30.899470899470902,57.142857142857146 30.264550264550266,56.93121693121694 29.629629629629633,56.50793650793651 28.994708994708997,56.50793650793651 28.35978835978836,56.2962962962963 27.724867724867728,56.08465608465609 27.089947089947092,56.08465608465609 26.455026455026456,55.87301587301588 25.820105820105823,55.87301587301588 25.185185185185187,56.08465608465609 24.55026455026455,56.08465608465609 23.915343915343918,56.08465608465609 23.280423280423282,56.2962962962963 22.645502645502646,56.2962962962963 22.010582010582013,56.50793650793651 21.375661375661377,56.71957671957672 20.740740740740744,56.71957671957672 20.105820105820108,57.142857142857146 19.47089947089947,57.142857142857146 18.83597883597884,57.35449735449736 18.201058201058203,57.56613756613757 17.566137566137566,57.777777777777786 16.931216931216934,57.989417989417994 16.296296296296298,58.2010582010582 15.661375661375663,58.41269841269842 15.026455026455027,58.62433862433863 14.391534391534393,58.83597883597884 13.756613756613758,59.25925925925927 13.121693121693122,59.470899470899475 12.486772486772487,59.682539682539684 11.851851851851853,59.8941798941799 11.216931216931219,60.31746031746032 10.582010582010582,60.52910052910053 10.15873015873016,60.952380952380956 9.523809523809524,61.16402116402117 8.88888888888889,61.37566137566138 8.253968253968255,61.58730158730159 7.6190476190476195,61.58730158730159 6.984126984126985,61.58730158730159 6.34920634920635,61.58730158730159 5.714285714285714,61.37566137566138 5.07936507936508,61.16402116402117 4.444444444444445,60.952380952380956 3.8095238095238098,60.74074074074075 3.174603174603175,60.52910052910053 2.53968253968254,60.10582010582011 2.1164021164021167,59.682539682539684 1.6931216931216932,59.25925925925927 1.26984126984127,58.62433862433863 0.8465608465608466,57.989417989417994 0.8465608465608466,57.35449735449736 0.4232804232804233,56.71957671957672 0.21164021164021166,56.08465608465609 0.21164021164021166,55.449735449735456 0.21164021164021166,54.81481481481482 0.21164021164021166,54.179894179894184 0.21164021164021166,53.54497354497355 0.21164021164021166,52.91005291005291 0.21164021164021166,52.27513227513228 0.21164021164021166,51.640211640211646 0.4232804232804233,51.00529100529101 0.4232804232804233,50.370370370370374 0.634920634920635,49.73544973544974 0.8465608465608466,49.1005291005291 0.8465608465608466,48.46560846560847 0.8465608465608466,47.830687830687836 1.0582010582010584,47.195767195767196 1.0582010582010584,46.560846560846564 1.26984126984127,45.92592592592593 1.26984126984127,45.29100529100529 1.4814814814814816,44.65608465608466 1.4814814814814816,44.021164021164026 1.6931216931216932,43.386243386243386 1.6931216931216932,42.75132275132275 1.9047619047619049,42.11640211640212 1.9047619047619049,41.48148148148149 2.1164021164021167,40.84656084656085 2.1164021164021167,40.211640211640216 2.3280423280423284,39.57671957671958 2.3280423280423284,38.94179894179894 2.53968253968254,38.30687830687831 2.7513227513227516,37.67195767195768 2.7513227513227516,37.03703703703704 2.9629629629629632,36.402116402116405 3.174603174603175,35.76719576719577 3.174603174603175,35.13227513227513 3.174603174603175,34.4973544973545 3.3862433862433865,33.86243386243387 3.597883597883598,33.22751322751323 3.8095238095238098,32.592592592592595 3.8095238095238098,31.95767195767196 4.021164021164021,31.322751322751326 4.021164021164021,30.68783068783069 4.2328042328042335,30.052910052910054 4.444444444444445,29.41798941798942 4.444444444444445,28.783068783068785 4.656084656084657,28.14814814814815 4.867724867724868,27.513227513227516 4.867724867724868,26.87830687830688 5.07936507936508,26.243386243386244 5.07936507936508,25.60846560846561 5.291005291005291,24.973544973544975 5.291005291005291,24.338624338624342 5.502645502645503,23.703703703703706 5.714285714285714,23.06878306878307 5.714285714285714,22.433862433862437 5.9259259259259265,21.7989417989418 5.9259259259259265,21.164021164021165 6.137566137566138,20.529100529100532 6.34920634920635,19.894179894179896 6.560846560846561,19.25925925925926 6.772486772486773,18.624338624338627 6.772486772486773,17.98941798941799 6.984126984126985,17.354497354497354 7.195767195767196,16.71957671957672 7.407407407407408,16.084656084656086 7.407407407407408,15.449735449735451 7.6190476190476195,14.814814814814817 7.830687830687832,14.17989417989418 8.042328042328043,13.544973544973546 8.253968253968255,12.910052910052912 8.253968253968255,12.275132275132275 8.465608465608467,11.640211640211641 8.677248677248677,11.005291005291006 8.88888888888889,10.370370370370372 9.100529100529101,9.735449735449736 9.312169312169313,9.100529100529101 9.523809523809524,8.465608465608467 9.523809523809524,7.830687830687832 9.735449735449736,7.195767195767196 9.947089947089948,6.560846560846561 10.15873015873016,5.9259259259259265 10.15873015873016,5.291005291005291 10.370370370370372,4.656084656084657 10.582010582010582,4.021164021164021 10.793650793650794,3.3862433862433865 11.640211640211641,0.0" style="fill:none; stroke:#3300bb; stroke-width:1.0"  /><circle cx="11.640211640211641" cy="0.0" r="2.0" style="fill:none; stroke:#000000aa; stroke-width:0.25" /><circle cx="152.38095238095238" cy="26.87830687830688" r="2.0" style="fill:none; stroke:#000000aa; stroke-width:0.25" /><circle cx="159.5767195767196" cy="161.4814814814815" r="2.0" style="fill:none; stroke:#000000aa; stroke-width:0.25" /><circle cx="11.640211640211641" cy="134.3915343915344" r="2.0" style="fill:none; stroke:#000000aa; stroke-width:0.25" /><circle cx="11.851851851851853" cy="0.4232804232804233" r="2.0" style="fill:none; stroke:#ff3366aa; stroke-width:0.25" /><circle cx="152.5925925925926" cy="27.301587301587304" r="2.0" style="fill:none; stroke:#ff3366aa; stroke-width:0.25" /><circle cx="158.94179894179896" cy="161.05820105820106" r="2.0" style="fill:none; stroke:#ff3366aa; stroke-width:0.25" /><circle cx="11.428571428571429" cy="134.3915343915344" r="2.0" style="fill:none; stroke:#ff3366aa; stroke-width:0.25" /><polyline points="23.280423280423282,1.26984126984127 22.645502645502646,1.26984126984127 22.010582010582013,1.26984126984127 21.375661375661377,1.0582010582010584 20.740740740740744,1.0582010582010584 20.105820105820108,1.0582010582010584 19.47089947089947,0.8465608465608466 18.83597883597884,0.8465608465608466 18.201058201058203,0.8465608465608466 17.566137566137566,0.634920634920635 16.931216931216934,0.634920634920635 16.296296296296298,0.4232804232804233 15.661375661375663,0.4232804232804233 15.026455026455027,0.4232804232804233" style="fill:none; stroke:#001100; stroke-width:1.0" /><polyline points="8.465608465608467,11.640211640211641 8.677248677248677,11.005291005291006 8.88888888888889,10.370370370370372 9.100529100529101,9.735449735449736 9.312169312169313,9.100529100529101 9.523809523809524,8.465608465608467 9.523809523809524,7.830687830687832 9.735449735449736,7.195767195767196 9.947089947089948,6.560846560846561 10.15873015873016,5.9259259259259265 10.15873015873016,5.291005291005291 10.370370370370372,4.656084656084657 10.582010582010582,4.021164021164021 10.793650793650794,3.3862433862433865" style="fill:none; stroke:#000011; stroke-width:1.0" /><polyline points="155.34391534391534,38.730158730158735 155.13227513227514,38.095238095238095 155.13227513227514,37.46031746031746 154.92063492063494,36.82539682539683 154.7089947089947,36.19047619047619 154.4973544973545,35.55555555555556 154.4973544973545,34.920634920634924 154.2857142857143,34.28571428571429 154.07407407407408,33.65079365079365 153.86243386243387,33.01587301587302 153.65079365079367,32.38095238095239 153.65079365079367,31.746031746031747 153.43915343915344,31.111111111111114 153.22751322751324,30.476190476190478" style="fill:none; stroke:#001100; stroke-width:1.0" /><polyline points="140.95238095238096,25.820105820105823 141.5873015873016,25.820105820105823 142.22222222222223,26.031746031746035 142.85714285714286,26.031746031746035 143.4920634920635,26.031746031746035 144.12698412698413,26.243386243386244 144.76190476190476,26.455026455026456 145.39682539682542,26.243386243386244 146.03174603174605,26.455026455026456 146.66666666666669,26.455026455026456 147.30158730158732,26.666666666666668 147.93650793650795,26.666666666666668 148.57142857142858,26.666666666666668 149.20634920634922,26.666666666666668" style="fill:none; stroke:#000011; stroke-width:1.0" /><polyline points="147.51322751322752,158.0952380952381 148.14814814814815,158.0952380952381 148.78306878306879,158.30687830687833 149.41798941798942,158.51851851851853 150.05291005291005,158.73015873015873 150.6878306878307,158.94179894179896 151.32275132275134,159.15343915343917 151.95767195767198,159.36507936507937 152.5925925925926,159.5767195767196 153.22751322751324,159.7883597883598 153.86243386243387,160.0 154.4973544973545,160.21164021164023 155.13227513227514,160.42328042328043 155.76719576719577,160.42328042328043" style="fill:none; stroke:#001100; stroke-width:1.0" /><polyline points="159.15343915343917,149.62962962962965 159.15343915343917,150.26455026455028 159.15343915343917,150.8994708994709 159.15343915343917,151.53439153439155 159.36507936507937,152.16931216931218 159.36507936507937,152.8042328042328 159.36507936507937,153.43915343915344 159.36507936507937,154.07407407407408 159.36507936507937,154.7089947089947 159.36507936507937,155.34391534391534 159.36507936507937,155.978835978836 159.36507936507937,156.61375661375664 159.36507936507937,157.24867724867727 159.36507936507937,157.8835978835979" style="fill:none; stroke:#000011; stroke-width:1.0" /><polyline points="9.947089947089948,122.96296296296298 10.15873015873016,123.59788359788361 10.15873015873016,124.23280423280424 10.370370370370372,124.86772486772487 10.370370370370372,125.5026455026455 10.582010582010582,126.13756613756615 10.582010582010582,126.77248677248679 10.793650793650794,127.40740740740742 10.793650793650794,128.04232804232805 10.793650793650794,128.67724867724868 10.793650793650794,129.31216931216932 11.005291005291006,129.94708994708995 11.005291005291006,130.58201058201058 11.216931216931219,131.21693121693121" style="fill:none; stroke:#001100; stroke-width:1.0" /><polyline points="23.06878306878307,135.02645502645504 22.433862433862437,135.02645502645504 21.7989417989418,135.02645502645504 21.164021164021165,135.02645502645504 20.529100529100532,134.81481481481484 19.894179894179896,134.81481481481484 19.25925925925926,134.81481481481484 18.624338624338627,134.81481481481484 17.98941798941799,134.81481481481484 17.354497354497354,134.6031746031746 16.71957671957672,134.6031746031746 16.084656084656086,134.6031746031746 15.449735449735451,134.6031746031746 14.814814814814817,134.6031746031746" style="fill:none; stroke:#000011; stroke-width:1.0" /><polyline points="15.026455026455027,0.4232804232804233 -5.9259259259259265,-1.6931216931216932" style="fill:none; stroke:#ffaa00; stroke-width:0.4" /><polyline points="10.793650793650794,3.3862433862433865 16.50793650793651,-16.931216931216934" style="fill:none; stroke:#aaff00; stroke-width:0.4" /><polyline points="153.22751322751324,30.476190476190478 147.93650793650795,9.947089947089948" style="fill:none; stroke:#ffaa00; stroke-width:0.4" /><polyline points="149.20634920634922,26.666666666666668 170.15873015873018,28.783068783068785" style="fill:none; stroke:#aaff00; stroke-width:0.4" /><polyline points="155.76719576719577,160.42328042328043 176.0846560846561,166.13756613756615" style="fill:none; stroke:#ffaa00; stroke-width:0.4" /><polyline points="159.36507936507937,157.8835978835979 160.0,179.04761904761907" style="fill:none; stroke:#aaff00; stroke-width:0.4" /><polyline points="11.216931216931219,131.21693121693121 14.391534391534393,152.16931216931218" style="fill:none; stroke:#ffaa00; stroke-width:0.4" /><polyline points="14.814814814814817,134.6031746031746 -6.34920634920635,133.54497354497354" style="fill:none; stroke:#aaff00; stroke-width:0.4" /><circle cx="78.51851851851852" cy="87.1957671957672" r="1.0" style="fill:#444444; stroke-width:0" /><circle cx="70.8994708994709" cy="103.06878306878308" r="10.582010582010582" style="fill:#ff770022; stroke-width:0" /><circle cx="70.8994708994709" cy="103.06878306878308" r="1.0" style="fill:#ff7700; stroke-width:0" /></svg>