<?xml version="1.0" encoding="UTF-8" standalone="no"?><svg width="545.3968253968254" height="363.1746031746032" viewBox="-10 -10 201.79894179894183 141.05820105820106" xmlns="http://www.w3.org/2000/svg" xmlns:xlink="http://www.w3.org/1999/xlink"><polyline points="3.597883597883598,22.222222222222225 7.195767195767196,21.164021164021165 7.830687830687832,21.164021164021165 8.465608465608467,20.952380952380953 9.100529100529101,20.740740740740744 9.735449735449736,20.529100529100532 10.370370370370372,20.31746031746032 11.005291005291006,20.31746031746032 11.640211640211641,20.105820105820108 12.275132275132275,19.894179894179896 12.910052910052912,19.682539682539684 13.544973544973546,19.47089947089947 14.17989417989418,19.047619047619047 14.814814814814817,19.047619047619047 15.449735449735451,18.624338624338627 16.084656084656086,18.412698412698415 16.71957671957672,18.201058201058203 17.354497354497354,17.98941798941799 17.98941798941799,17.77777777777778 18.624338624338627,17.566137566137566 19.25925925925926,17.354497354497354 19.894179894179896,17.142857142857146 20.529100529100532,16.931216931216934 21.164021164021165,16.71957671957672 21.7989417989418,16.296296296296298 22.433862433862437,16.084656084656086 22.857142857142858,15.661375661375663 23.492063492063494,15.661375661375663 24.12698412698413,15.238095238095239 24.761904761904763,15.026455026455027 25.3968253968254,14.603174603174605 26.031746031746035,14.391534391534393 26.666666666666668,14.17989417989418 27.301587301587304,13.756613756613758 27.93650793650794,13.333333333333334 28.571428571428573,13.121693121693122 29.20634920634921,12.6984126984127 29.841269841269842,12.6984126984127 30.476190476190478,12.275132275132275 31.111111111111114,12.063492063492065 31.746031746031747,11.640211640211641 32.38095238095239,11.428571428571429 32.804232804232804,11.005291005291006 33.43915343915344,10.793650793650794 33.86243386243387,10.370370370370372 34.4973544973545,9.947089947089948 35.13227513227513,9.735449735449736 35.76719576719577,9.523809523809524 36.402116402116405,9.100529100529101 37.03703703703704,8.88888888888889 37.46031746031746,8.465608465608467 38.095238095238095,8.253968253968255 38.51851851851852,7.830687830687832 39.15343915343916,7.6190476190476195 39.57671957671958,7.195767195767196 40.0,6.772486772486773 40.63492063492064,6.34920634920635 41.26984126984127,6.34920634920635 41.904761904761905,5.9259259259259265 42.539682539682545,5.714285714285714 42.96296296296297,5.291005291005291 43.5978835978836,5.07936507936508 44.232804232804234,4.867724867724868 44.867724867724874,4.656084656084657 45.50264550264551,4.2328042328042335 46.13756613756614,4.021164021164021 46.77248677248678,3.8095238095238098 47.40740740740741,3.597883597883598 48.042328042328045,3.3862433862433865 48.677248677248684,3.174603174603175 49.31216931216932,2.9629629629629632 49.73544973544974,2.53968253968254 50.370370370370374,2.7513227513227516 50.7936507936508,2.3280423280423284 51.42857142857143,2.3280423280423284 52.06349206349207,2.1164021164021167 52.6984126984127,1.9047619047619049 53.333333333333336,1.6931216931216932 53.968253968253975,1.6931216931216932 54.60317460317461,1.4814814814814816 55.23809523809524,1.26984126984127 55.87301587301588,1.0582010582010584 56.50793650793651,0.8465608465608466 57.142857142857146,1.0582010582010584 57.777777777777786,0.8465608465608466 58.41269841269842,0.634920634920635 59.04761904761905,0.634920634920635 59.682539682539684,0.4232804232804233 60.31746031746032,0.634920634920635 60.952380952380956,0.4232804232804233 61.58730158730159,0.634920634920635 62.22222222222223,0.4232804232804233 62.85714285714286,0.4232804232804233 63.492063492063494,0.4232804232804233 64.12698412698413,0.21164021164021166 64.76190476190477,0.21164021164021166 65.3968253968254,0.21164021164021166 66.03174603174604,0.4232804232804233 66.66666666666667,0.4232804232804233 67.3015873015873,0.634920634920635 67.93650793650794,0.8465608465608466 68.57142857142858,1.0582010582010584 69.20634920634922,1.4814814814814816 69.84126984126985,1.9047619047619049 70.26455026455027,2.53968253968254 70.47619047619048,3.174603174603175 70.8994708994709,3.8095238095238098 70.8994708994709,4.444444444444445 71.11111111111111,5.07936507936508 71.32275132275133,5.714285714285714 71.32275132275133,6.34920634920635 71.32275132275133,6.984126984126985 71.32275132275133,7.6190476190476195 71.11111111111111,8.253968253968255 71.11111111111111,8.88888888888889 70.8994708994709,9.523809523809524 70.8994708994709,10.15873015873016 70.6878306878307,10.793650793650794 70.47619047619048,11.428571428571429 70.47619047619048,12.063492063492065 70.26455026455027,12.6984126984127 70.26455026455027,13.333333333333334 70.26455026455027,13.96825396825397 70.05291005291006,14.603174603174605 70.05291005291006,15.238095238095239 70.05291005291006,15.873015873015873 70.26455026455027,16.50793650793651 70.26455026455027,17.142857142857146 70.26455026455027,17.77777777777778 70.47619047619048,18.412698412698415 70.47619047619048,19.047619047619047 70.47619047619048,19.682539682539684 70.6878306878307,20.31746031746032 70.6878306878307,20.952380952380953 70.8994708994709,21.58730158730159 71.32275132275133,22.222222222222225 71.53439153439155,22.857142857142858 71.74603174603175,23.492063492063494 72.16931216931218,23.915343915343918 72.5925925925926,24.55026455026455 73.01587301587303,25.185185185185187 73.43915343915344,25.60846560846561 73.86243386243387,26.031746031746035 74.49735449735451,26.455026455026456 74.92063492063492,26.87830687830688 75.34391534391536,27.301587301587304 75.97883597883599,27.724867724867728 76.61375661375662,28.14814814814815 77.24867724867725,28.571428571428573 77.88359788359789,28.994708994708997 78.51851851851852,29.20634920634921 79.15343915343917,29.629629629629633 79.7883597883598,29.841269841269842 80.42328042328043,30.052910052910054 81.05820105820106,30.264550264550266 81.6931216931217,30.476190476190478 82.32804232804233,30.68783068783069 82.96296296296298,30.68783068783069 83.59788359788361,30.68783068783069 84.23280423280424,30.899470899470902 84.86772486772487,30.899470899470902 85.5026455026455,31.111111111111114 86.13756613756614,31.111111111111114 86.77248677248677,31.111111111111114 87.40740740740742,31.111111111111114 88.04232804232805,31.111111111111114 88.67724867724868,30.899470899470902 89.31216931216932,30.899470899470902 89.94708994708995,30.899470899470902 90.58201058201058,30.68783068783069 91.21693121693123,30.68783068783069 91.85185185185186,30.68783068783069 92.4867724867725,30.264550264550266 93.12169312169313,30.264550264550266 93.75661375661376,30.052910052910054 94.39153439153439,29.841269841269842 95.02645502645504,29.629629629629633 95.66137566137567,29.20634920634921 96.2962962962963,28.994708994708997 96.93121693121694,28.571428571428573 97.56613756613757,28.35978835978836 97.989417989418,27.93650793650794 98.41269841269842,27.513227513227516 98.83597883597885,27.089947089947092 99.25925925925927,26.666666666666668 99.68253968253968,26.243386243386244 100.10582010582011,25.60846560846561 100.52910052910053,24.973544973544975 100.74074074074075,24.338624338624342 100.74074074074075,23.703703703703706 100.95238095238096,23.06878306878307 101.16402116402116,22.433862433862437 101.16402116402116,21.7989417989418 101.37566137566138,21.164021164021165 101.37566137566138,20.529100529100532 101.37566137566138,19.894179894179896 101.16402116402116,19.25925925925926 101.16402116402116,18.624338624338627 100.95238095238096,17.98941798941799 100.74074074074075,17.354497354497354 100.52910052910053,16.71957671957672 100.10582010582011,16.084656084656086 99.8941798941799,15.449735449735451 99.68253968253968,14.814814814814817 99.47089947089948,14.17989417989418 99.25925925925927,13.544973544973546 99.04761904761905,12.910052910052912 98.83597883597885,12.275132275132275 98.62433862433863,11.640211640211641 98.62433862433863,11.005291005291006 98.41269841269842,10.370370370370372 98.41269841269842,9.735449735449736 98.2010582010582,9.100529100529101 98.2010582010582,8.465608465608467 98.2010582010582,7.830687830687832 98.2010582010582,7.195767195767196 98.41269841269842,6.560846560846561 98.41269841269842,5.9259259259259265 98.83597883597885,5.291005291005291 99.04761904761905,4.656084656084657 99.47089947089948,4.021164021164021 99.8941798941799,3.597883597883598 100.31746031746033,2.9629629629629632 100.95238095238096,2.53968253968254 101.37566137566138,2.1164021164021167 102.01058201058201,2.1164021164021167 102.64550264550266,2.1164021164021167 103.28042328042329,2.1164021164021167 103.91534391534393,1.6931216931216932 104.55026455026456,1.6931216931216932 105.18518518518519,1.9047619047619049 105.82010582010582,2.1164021164021167 106.45502645502647,1.9047619047619049 107.0899470899471,2.1164021164021167 107.72486772486774,2.3280423280423284 108.35978835978837,2.1164021164021167 108.994708994709,2.3280423280423284 109.62962962962963,2.3280423280423284 110.26455026455027,2.3280423280423284 110.89947089947091,2.3280423280423284 111.53439153439155,2.3280423280423284 112.16931216931218,2.53968253968254 112.80423280423281,2.53968253968254 113.43915343915344,2.53968253968254 114.07407407407408,2.7513227513227516 114.70899470899472,2.7513227513227516 115.34391534391536,2.9629629629629632 115.97883597883599,3.174603174603175 116.61375661375662,3.174603174603175 117.24867724867725,3.174603174603175 117.88359788359789,3.174603174603175 118.51851851851853,3.597883597883598 119.15343915343917,3.597883597883598 119.7883597883598,3.8095238095238098 120.42328042328043,3.597883597883598 121.05820105820106,3.8095238095238098 121.6931216931217,4.021164021164021 122.32804232804234,4.021164021164021 122.96296296296298,4.021164021164021 123.59788359788361,4.2328042328042335 124.23280423280424,4.2328042328042335 124.86772486772487,4.444444444444445 125.5026455026455,4.444444444444445 126.13756613756615,4.444444444444445 126.77248677248679,4.444444444444445 127.40740740740742,4.656084656084657 128.04232804232805,4.867724867724868 128.67724867724868,4.867724867724868 129.31216931216932,4.867724867724868 129.94708994708995,5.07936507936508 130.58201058201058,5.07936507936508 131.21693121693121,5.291005291005291 131.85185185185185,5.291005291005291 132.4867724867725,5.291005291005291 133.12169312169314,5.291005291005291 133.75661375661377,5.291005291005291 134.3915343915344,5.502645502645503 135.02645502645504,5.502645502645503 135.66137566137567,5.714285714285714 136.2962962962963,5.714285714285714 136.93121693121694,5.714285714285714 137.56613756613757,5.714285714285714 138.2010582010582,5.9259259259259265 138.62433862433863,6.34920634920635 139.25925925925927,6.34920634920635 139.8941798941799,6.34920634920635 140.52910052910053,6.34920634920635 141.16402116402116,6.34920634920635 141.7989417989418,6.34920634920635 142.43386243386246,6.560846560846561 143.0687830687831,6.560846560846561 143.70370370370372,6.560846560846561 144.33862433862436,6.34920634920635 144.973544973545,6.34920634920635 145.60846560846562,6.34920634920635 146.24338624338625,6.34920634920635 146.8783068783069,6.560846560846561 147.51322751322752,6.772486772486773 148.14814814814815,6.560846560846561 148.78306878306879,6.772486772486773 149.41798941798942,6.772486772486773 150.05291005291005,6.772486772486773 150.6878306878307,6.772486772486773 151.32275132275134,6.772486772486773 151.95767195767198,6.560846560846561 152.5925925925926,6.772486772486773 153.22751322751324,6.772486772486773 153.86243386243387,6.772486772486773 154.4973544973545,6.772486772486773 155.13227513227514,6.772486772486773 155.76719576719577,6.984126984126985 156.4021164021164,6.984126984126985 157.03703703703704,6.984126984126985 157.67195767195767,6.984126984126985 158.30687830687833,6.772486772486773 158.94179894179896,6.772486772486773 159.5767195767196,6.772486772486773 160.21164021164023,6.772486772486773 160.84656084656086,6.560846560846561 161.4814814814815,6.560846560846561 162.11640211640213,6.560846560846561 162.75132275132276,6.560846560846561 163.3862433862434,6.560846560846561 164.02116402116403,6.560846560846561 164.65608465608466,6.34920634920635 165.2910052910053,6.34920634920635 165.92592592592595,6.34920634920635 166.56084656084658,6.34920634920635 167.19576719576722,6.34920634920635 167.83068783068785,6.34920634920635 168.46560846560848,6.34920634920635 169.10052910052912,6.137566137566138 169.73544973544975,6.137566137566138 170.37037037037038,6.137566137566138 171.005291005291,6.137566137566138 171.64021164021165,6.137566137566138 172.27513227513228,6.137566137566138 172.9100529100529,5.9259259259259265 173.54497354497354,5.9259259259259265 174.1798941798942,5.9259259259259265 174.81481481481484,5.714285714285714 175.44973544973547,5.714285714285714 176.0846560846561,5.502645502645503 176.71957671957674,5.502645502645503 177.35449735449737,5.502645502645503 177.989417989418,5.291005291005291 181.5873015873016,4.867724867724868" style="fill:none; stroke:#cc0000; stroke-width:1.0"  /><polyline points="181.5873015873016,4.867724867724868 181.3756613756614,8.253968253968255 181.3756613756614,8.88888888888889 181.3756613756614,9.523809523809524 181.16402116402116,10.15873015873016 181.16402116402116,10.793650793650794 181.16402116402116,11.428571428571429 181.16402116402116,12.063492063492065 181.16402116402116,12.6984126984127 180.95238095238096,13.333333333333334 180.95238095238096,13.96825396825397 180.74074074074076,14.603174603174605 180.74074074074076,15.238095238095239 180.52910052910053,15.873015873015873 180.74074074074076,16.50793650793651 180.52910052910053,17.142857142857146 180.52910052910053,17.77777777777778 180.31746031746033,18.412698412698415 180.10582010582013,19.047619047619047 179.8941798941799,19.682539682539684 179.8941798941799,20.31746031746032 179.6825396825397,20.952380952380953 179.4708994708995,21.58730158730159 179.25925925925927,22.222222222222225 179.04761904761907,22.857142857142858 178.83597883597884,23.492063492063494 178.62433862433863,24.12698412698413 178.41269841269843,24.761904761904763 177.989417989418,25.3968253968254 177.7777777777778,26.031746031746035 177.35449735449737,26.666666666666668 177.14285714285717,27.301587301587304 176.71957671957674,27.93650793650794 176.2962962962963,28.35978835978836 175.87301587301587,28.783068783068785 175.44973544973547,29.20634920634921 174.81481481481484,29.629629629629633 174.3915343915344,30.052910052910054 173.75661375661377,30.264550264550266 173.33333333333334,30.68783068783069 172.6984126984127,30.899470899470902 172.06349206349208,31.111111111111114 171.42857142857144,31.322751322751326 170.7936507936508,31.53439153439154 170.15873015873018,31.746031746031747 169.52380952380955,31.746031746031747 168.8888888888889,31.95767195767196 168.25396825396825,31.95767195767196 167.61904761904762,31.95767195767196 166.984126984127,31.95767195767196 166.34920634920636,32.16931216931217 165.71428571428572,32.16931216931217 165.0793650793651,32.16931216931217 164.44444444444446,32.38095238095239 163.80952380952382,32.38095238095239 163.1746031746032,32.38095238095239 162.53968253968256,32.38095238095239 161.90476190476193,32.592592592592595 161.2698412698413,32.592592592592595 160.63492063492066,32.592592592592595 160.0,32.592592592592595 159.36507936507937,32.592592592592595 158.73015873015873,32.592592592592595 158.0952380952381,32.592592592592595 157.46031746031747,32.592592592592595 156.82539682539684,32.592592592592595 156.1904761904762,32.592592592592595 155.55555555555557,32.592592592592595 154.92063492063494,32.592592592592595 154.2857142857143,32.592592592592595 153.65079365079367,32.38095238095239 153.01587301587304,32.38095238095239 152.38095238095238,32.38095238095239 151.74603174603175,32.16931216931217 151.11111111111111,32.16931216931217 150.47619047619048,32.16931216931217 149.84126984126985,31.95767195767196 149.20634920634922,31.746031746031747 148.57142857142858,31.746031746031747 147.93650793650795,31.53439153439154 147.30158730158732,31.53439153439154 146.66666666666669,31.322751322751326 146.03174603174605,31.111111111111114 145.39682539682542,31.111111111111114 144.76190476190476,30.899470899470902 144.12698412698413,30.899470899470902 143.4920634920635,30.899470899470902 142.85714285714286,30.899470899470902 142.22222222222223,30.68783068783069 141.5873015873016,30.68783068783069 140.95238095238096,30.68783068783069 140.31746031746033,30.68783068783069 139.6825396825397,30.68783068783069 139.04761904761907,30.899470899470902 138.41269841269843,30.899470899470902 137.7777777777778,31.111111111111114 137.14285714285717,31.322751322751326 136.5079365079365,31.53439153439154 135.87301587301587,31.746031746031747 135.23809523809524,31.95767195767196 134.6031746031746,32.16931216931217 133.96825396825398,32.38095238095239 133.33333333333334,32.804232804232804 132.6984126984127,33.01587301587302 132.27513227513228,33.43915343915344 131.64021164021165,33.86243386243387 131.005291005291,34.28571428571429 130.37037037037038,34.70899470899471 129.73544973544975,35.13227513227513 129.31216931216932,35.76719576719577 128.88888888888889,36.19047619047619 128.46560846560848,36.613756613756614 128.04232804232805,37.03703703703704 127.61904761904763,37.67195767195768 127.1957671957672,38.30687830687831 126.98412698412699,38.94179894179894 126.56084656084657,39.36507936507937 126.34920634920636,40.0 126.13756613756615,40.63492063492064 125.92592592592594,41.26984126984127 125.92592592592594,41.904761904761905 125.71428571428572,42.539682539682545 125.71428571428572,43.17460317460318 125.5026455026455,43.80952380952381 125.5026455026455,44.44444444444445 125.5026455026455,45.07936507936508 125.5026455026455,45.714285714285715 125.5026455026455,46.349206349206355 125.5026455026455,46.98412698412699 125.5026455026455,47.61904761904762 125.71428571428572,48.25396825396826 125.71428571428572,48.88888888888889 125.92592592592594,49.523809523809526 126.13756613756615,50.158730158730165 126.34920634920636,50.7936507936508 126.77248677248679,51.21693121693122 126.98412698412699,51.851851851851855 127.1957671957672,52.48677248677249 127.40740740740742,53.12169312169313 127.83068783068784,53.75661375661376 128.25396825396825,54.179894179894184 128.46560846560848,54.81481481481482 128.88888888888889,55.449735449735456 129.31216931216932,56.08465608465609 129.73544973544975,56.50793650793651 130.15873015873018,57.142857142857146 130.7936507936508,57.56613756613757 131.21693121693121,57.989417989417994 131.85185185185185,58.41269841269842 132.4867724867725,58.83597883597884 133.12169312169314,59.04761904761905 133.75661375661377,59.25925925925927 134.3915343915344,59.682539682539684 135.02645502645504,59.8941798941799 135.66137566137567,60.10582010582011 136.2962962962963,60.10582010582011 136.93121693121694,60.31746031746032 137.56613756613757,60.52910052910053 138.2010582010582,60.52910052910053 138.83597883597884,60.74074074074075 139.47089947089947,60.74074074074075 140.10582010582013,60.74074074074075 140.74074074074076,60.952380952380956 141.3756613756614,60.952380952380956 142.01058201058203,60.952380952380956 142.64550264550266,60.952380952380956 143.2804232804233,61.16402116402117 143.91534391534393,61.16402116402117 144.55026455026456,60.952380952380956 145.1851851851852,60.74074074074075 145.82010582010582,60.74074074074075 146.45502645502646,60.52910052910053 147.0899470899471,60.31746031746032 147.72486772486775,60.31746031746032 148.35978835978838,60.31746031746032 148.99470899470901,60.10582010582011 149.62962962962965,59.8941798941799 150.05291005291005,59.470899470899475 150.6878306878307,59.470899470899475 151.32275132275134,59.25925925925927 151.95767195767198,59.04761904761905 152.5925925925926,58.83597883597884 153.22751322751324,58.41269841269842 153.86243386243387,58.2010582010582 154.4973544973545,57.989417989417994 155.13227513227514,57.777777777777786 155.76719576719577,57.56613756613757 156.4021164021164,57.35449735449736 157.03703703703704,57.35449735449736 157.67195767195767,57.142857142857146 158.30687830687833,56.93121693121694 158.94179894179896,56.71957671957672 159.5767195767196,56.50793650793651 160.21164021164023,56.2962962962963 160.84656084656086,56.2962962962963 161.2698412698413,55.87301587301588 161.90476190476193,55.87301587301588 162.53968253968256,55.87301587301588 163.1746031746032,55.661375661375665 163.80952380952382,55.449735449735456 164.44444444444446,55.23809523809524 165.0793650793651,55.23809523809524 165.71428571428572,55.02645502645503 166.34920634920636,54.81481481481482 166.984126984127,55.02645502645503 167.61904761904762,55.02645502645503 168.25396825396825,55.23809523809524 168.8888888888889,55.449735449735456 169.52380952380955,55.661375661375665 170.15873015873018,55.87301587301588 170.7936507936508,56.08465608465609 171.21693121693124,56.50793650793651 171.85185185185188,56.93121693121694 172.4867724867725,57.142857142857146 172.9100529100529,57.56613756613757 173.33333333333334,57.989417989417994 173.54497354497354,58.62433862433863 173.75661375661377,59.25925925925927 174.1798941798942,59.8941798941799 174.3915343915344,60.52910052910053 174.6031746031746,61.16402116402117 174.6031746031746,61.798941798941804 174.6031746031746,62.43386243386244 174.81481481481484,63.06878306878308 174.81481481481484,63.70370370370371 174.81481481481484,64.33862433862434 174.81481481481484,64.97354497354497 174.81481481481484,65.60846560846561 174.6031746031746,66.24338624338625 174.6031746031746,66.87830687830689 174.6031746031746,67.51322751322752 174.3915343915344,68.14814814814815 174.3915343915344,68.78306878306879 174.3915343915344,69.41798941798942 174.3915343915344,70.05291005291006 174.1798941798942,70.6878306878307 174.1798941798942,71.32275132275133 174.1798941798942,71.95767195767196 173.96825396825398,72.5925925925926 173.96825396825398,73.22751322751323 173.96825396825398,73.86243386243387 173.96825396825398,74.49735449735451 173.96825396825398,75.13227513227514 173.96825396825398,75.76719576719577 173.96825396825398,76.4021164021164 173.75661375661377,77.03703703703704 173.96825396825398,77.67195767195767 173.96825396825398,78.30687830687832 173.96825396825398,78.94179894179895 173.96825396825398,79.57671957671958 173.96825396825398,80.21164021164022 173.75661375661377,80.84656084656085 173.75661375661377,81.48148148148148 173.75661375661377,82.11640211640213 173.75661375661377,82.75132275132276 173.96825396825398,83.3862433862434 173.96825396825398,84.02116402116403 173.96825396825398,84.65608465608466 173.96825396825398,85.29100529100529 174.1798941798942,85.92592592592594 174.3915343915344,86.56084656084657 174.3915343915344,87.1957671957672 174.3915343915344,87.83068783068784 174.3915343915344,88.46560846560847 174.6031746031746,89.1005291005291 174.81481481481484,89.73544973544975 174.81481481481484,90.37037037037038 175.02645502645504,91.00529100529101 175.02645502645504,91.64021164021165 175.23809523809524,92.27513227513228 175.44973544973547,92.91005291005291 176.0846560846561,96.2962962962963" style="fill:none; stroke:#999900; stroke-width:1.0"  /><polyline points="176.0846560846561,96.2962962962963 172.9100529100529,96.50793650793652 172.27513227513228,96.50793650793652 171.64021164021165,96.50793650793652 171.005291005291,96.71957671957672 170.37037037037038,96.71957671957672 169.73544973544975,96.71957671957672 169.10052910052912,96.71957671957672 168.46560846560848,96.71957671957672 167.83068783068785,96.71957671957672 167.19576719576722,96.71957671957672 166.56084656084658,96.71957671957672 165.92592592592595,96.93121693121694 165.2910052910053,96.93121693121694 164.65608465608466,96.93121693121694 164.02116402116403,96.93121693121694 163.3862433862434,97.14285714285715 162.75132275132276,97.14285714285715 162.11640211640213,97.14285714285715 161.4814814814815,97.35449735449737 160.84656084656086,97.35449735449737 160.21164021164023,97.35449735449737 159.5767195767196,97.35449735449737 158.94179894179896,97.56613756613757 158.30687830687833,97.56613756613757 157.67195767195767,97.56613756613757 157.03703703703704,97.77777777777779 156.4021164021164,97.77777777777779 155.76719576719577,97.989417989418 155.13227513227514,97.989417989418 154.4973544973545,97.989417989418 153.86243386243387,97.989417989418 153.22751322751324,98.2010582010582 152.5925925925926,98.2010582010582 151.95767195767198,98.41269841269842 151.32275132275134,98.41269841269842 150.6878306878307,98.41269841269842 150.05291005291005,98.62433862433863 149.41798941798942,98.62433862433863 148.78306878306879,98.62433862433863 148.14814814814815,98.83597883597885 147.51322751322752,98.83597883597885 146.8783068783069,98.83597883597885 146.24338624338625,99.04761904761905 145.60846560846562,99.25925925925927 144.973544973545,99.25925925925927 144.33862433862436,99.25925925925927 143.91534391534393,99.68253968253968 143.2804232804233,99.68253968253968 142.64550264550266,99.68253968253968 142.01058201058203,99.8941798941799 141.3756613756614,99.8941798941799 140.74074074074076,100.10582010582011 140.10582010582013,100.10582010582011 139.47089947089947,100.31746031746033 138.83597883597884,100.31746031746033 138.2010582010582,100.52910052910053 137.56613756613757,100.52910052910053 136.93121693121694,100.74074074074075 136.2962962962963,100.95238095238096 135.66137566137567,101.16402116402116 135.02645502645504,101.16402116402116 134.3915343915344,101.5873015873016 133.75661375661377,101.79894179894181 133.12169312169314,102.01058201058201 132.4867724867725,102.22222222222223 131.85185185185185,102.64550264550266 131.21693121693121,102.85714285714286 130.58201058201058,103.28042328042329 129.94708994708995,103.4920634920635 129.31216931216932,103.70370370370371 128.67724867724868,103.91534391534393 128.25396825396825,104.33862433862434 127.61904761904763,104.76190476190477 126.98412698412699,105.18518518518519 126.34920634920636,105.60846560846562 125.71428571428572,106.03174603174604 125.07936507936509,106.45502645502647 124.65608465608466,106.87830687830689 124.02116402116403,107.3015873015873 123.59788359788361,107.72486772486774 122.96296296296298,108.14814814814815 122.53968253968254,108.57142857142858 121.90476190476191,108.994708994709 121.4814814814815,109.41798941798943 120.84656084656086,109.84126984126985 120.42328042328043,110.26455026455027 119.7883597883598,110.6878306878307 119.36507936507937,111.11111111111111 118.94179894179895,111.53439153439155 118.30687830687832,111.95767195767196 117.88359788359789,112.3809523809524 117.24867724867725,112.80423280423281 116.82539682539684,113.22751322751324 116.1904761904762,113.65079365079366 115.76719576719577,114.07407407407408 115.13227513227514,114.49735449735451 114.70899470899472,114.92063492063492 114.07407407407408,115.34391534391536 113.43915343915344,115.76719576719577 112.80423280423281,116.1904761904762 112.16931216931218,116.4021164021164 111.74603174603176,116.82539682539684 111.11111111111111,117.03703703703705 110.47619047619048,117.24867724867725 109.84126984126985,117.46031746031747 109.20634920634922,117.88359788359789 108.78306878306879,118.30687830687832 108.14814814814815,118.51851851851853 107.51322751322752,118.51851851851853 106.87830687830689,118.73015873015873 106.24338624338625,118.94179894179895 105.60846560846562,119.15343915343917 104.97354497354497,119.15343915343917 104.33862433862434,119.36507936507937 103.70370370370371,119.15343915343917 103.06878306878308,119.15343915343917 102.43386243386244,119.15343915343917 101.79894179894181,118.94179894179895 101.16402116402116,118.73015873015873 100.52910052910053,118.51851851851853 99.8941798941799,118.0952380952381 99.47089947089948,117.67195767195768 99.04761904761905,117.24867724867725 98.62433862433863,116.61375661375662 98.2010582010582,115.97883597883599 97.989417989418,115.34391534391536 97.77777777777779,114.70899470899472 97.77777777777779,114.07407407407408 97.56613756613757,113.43915343915344 97.56613756613757,112.80423280423281 97.56613756613757,112.16931216931218 97.56613756613757,111.53439153439155 97.56613756613757,110.89947089947091 97.77777777777779,110.26455026455027 97.77777777777779,109.62962962962963 97.989417989418,108.994708994709 98.2010582010582,108.35978835978837 98.41269841269842,107.72486772486774 98.62433862433863,107.0899470899471 98.83597883597885,106.45502645502647 99.04761904761905,105.82010582010582 99.25925925925927,105.18518518518519 99.47089947089948,104.55026455026456 99.68253968253968,103.91534391534393 99.8941798941799,103.28042328042329 100.10582010582011,102.64550264550266 100.31746031746033,102.01058201058201 100.52910052910053,101.37566137566138 100.74074074074075,100.74074074074075 100.74074074074075,100.10582010582011 100.95238095238096,99.47089947089948 100.95238095238096,98.83597883597885 101.16402116402116,98.2010582010582 101.16402116402116,97.56613756613757 101.16402116402116,96.93121693121694 101.16402116402116,96.2962962962963 101.16402116402116,95.66137566137567 100.95238095238096,95.02645502645504 100.95238095238096,94.39153439153439 100.74074074074075,93.75661375661376 100.52910052910053,93.12169312169313 100.31746031746033,92.4867724867725 100.10582010582011,91.85185185185186 99.68253968253968,91.42857142857143 99.25925925925927,90.7936507936508 98.83597883597885,90.15873015873017 98.41269841269842,89.73544973544975 97.989417989418,89.31216931216932 97.56613756613757,88.8888888888889 96.93121693121694,88.46560846560847 96.2962962962963,88.25396825396827 95.87301587301587,87.83068783068784 95.23809523809524,87.61904761904762 94.60317460317461,87.1957671957672 93.96825396825398,86.98412698412699 93.33333333333334,86.77248677248677 92.69841269841271,86.56084656084657 92.06349206349208,86.34920634920636 91.42857142857143,86.13756613756614 90.7936507936508,85.92592592592594 90.15873015873017,85.92592592592594 89.52380952380953,85.71428571428572 88.8888888888889,85.5026455026455 88.25396825396827,85.5026455026455 87.61904761904762,85.5026455026455 86.98412698412699,85.29100529100529 86.34920634920636,85.29100529100529 85.71428571428572,85.29100529100529 85.07936507936509,85.29100529100529 84.44444444444446,85.29100529100529 83.80952380952381,85.29100529100529 83.17460317460318,85.29100529100529 82.53968253968254,85.07936507936509 81.90476190476191,85.07936507936509 81.26984126984128,85.07936507936509 80.63492063492065,85.07936507936509 80.0,85.07936507936509 79.36507936507937,85.07936507936509 78.73015873015873,85.29100529100529 78.0952380952381,85.29100529100529 77.46031746031747,85.29100529100529 76.82539682539684,85.5026455026455 76.19047619047619,85.5026455026455 75.55555555555556,85.71428571428572 74.92063492063492,85.92592592592594 74.28571428571429,86.13756613756614 73.86243386243387,86.56084656084657 73.22751322751323,86.77248677248677 72.5925925925926,86.98412698412699 71.95767195767196,86.98412698412699 71.32275132275133,87.40740740740742 70.6878306878307,87.61904761904762 70.05291005291006,87.83068783068784 69.62962962962963,88.25396825396827 68.994708994709,88.67724867724868 68.35978835978837,89.1005291005291 67.93650793650794,89.52380952380953 67.51322751322752,90.15873015873017 67.08994708994709,90.7936507936508 66.87830687830689,91.42857142857143 66.45502645502646,92.06349206349208 66.24338624338625,92.69841269841271 66.24338624338625,93.33333333333334 66.24338624338625,93.96825396825398 66.03174603174604,94.60317460317461 66.03174603174604,95.23809523809524 66.03174603174604,95.87301587301587 66.03174603174604,96.50793650793652 66.03174603174604,97.14285714285715 66.24338624338625,97.77777777777779 66.24338624338625,98.41269841269842 66.24338624338625,99.04761904761905 66.45502645502646,99.68253968253968 66.66666666666667,100.31746031746033 66.66666666666667,100.95238095238096 67.08994708994709,101.5873015873016 67.3015873015873,102.22222222222223 67.51322751322752,102.85714285714286 67.72486772486774,103.4920634920635 68.14814814814815,104.12698412698414 68.35978835978837,104.76190476190477 68.78306878306879,105.18518518518519 68.994708994709,105.82010582010582 69.41798941798942,106.24338624338625 69.62962962962963,106.87830687830689 70.05291005291006,107.3015873015873 70.47619047619048,107.93650793650795 70.6878306878307,108.57142857142858 71.11111111111111,109.20634920634922 71.32275132275133,109.84126984126985 71.53439153439155,110.47619047619048 71.53439153439155,111.11111111111111 71.74603174603175,111.74603174603176 71.74603174603175,112.3809523809524 71.74603174603175,113.01587301587303 71.74603174603175,113.65079365079366 71.74603174603175,114.28571428571429 71.53439153439155,114.92063492063492 71.32275132275133,115.55555555555557 71.11111111111111,116.1904761904762 70.6878306878307,116.82539682539684 70.26455026455027,117.46031746031747 69.84126984126985,117.88359788359789 69.20634920634922,118.30687830687832 68.57142857142858,118.73015873015873 67.93650793650794,118.94179894179895 67.3015873015873,119.15343915343917 66.66666666666667,119.36507936507937 66.03174603174604,119.57671957671958 65.3968253968254,119.7883597883598 64.76190476190477,119.7883597883598 64.12698412698413,120.00000000000001 63.492063492063494,120.00000000000001 62.85714285714286,120.00000000000001 62.22222222222223,120.00000000000001 61.58730158730159,120.00000000000001 60.952380952380956,120.00000000000001 60.31746031746032,120.00000000000001 59.682539682539684,120.00000000000001 59.04761904761905,120.00000000000001 58.41269841269842,119.7883597883598 57.777777777777786,119.7883597883598 57.142857142857146,119.7883597883598 56.50793650793651,119.7883597883598 55.87301587301588,119.57671957671958 55.23809523809524,119.57671957671958 54.60317460317461,119.57671957671958 53.968253968253975,119.57671957671958 53.333333333333336,119.57671957671958 52.6984126984127,119.57671957671958 52.06349206349207,119.36507936507937 51.42857142857143,119.36507936507937 50.7936507936508,119.36507936507937 50.158730158730165,119.36507936507937 49.523809523809526,119.36507936507937 48.88888888888889,119.36507936507937 48.25396825396826,119.36507936507937 47.61904761904762,119.36507936507937 46.98412698412699,119.36507936507937 46.349206349206355,119.36507936507937 45.714285714285715,119.36507936507937 45.07936507936508,119.15343915343917 44.44444444444445,119.15343915343917 43.80952380952381,119.15343915343917 43.17460317460318,119.15343915343917 42.539682539682545,119.15343915343917 41.904761904761905,119.15343915343917 41.26984126984127,119.15343915343917 40.63492063492064,119.15343915343917 40.0,119.15343915343917 39.36507936507937,119.36507936507937 38.730158730158735,119.36507936507937 38.095238095238095,119.36507936507937 37.46031746031746,119.36507936507937 36.82539682539683,119.36507936507937 36.19047619047619,119.36507936507937 35.55555555555556,119.36507936507937 34.920634920634924,119.36507936507937 34.28571428571429,119.36507936507937 33.65079365079365,119.36507936507937 33.01587301587302,119.36507936507937 32.38095238095239,119.36507936507937 31.746031746031747,119.36507936507937 31.111111111111114,119.57671957671958 30.476190476190478,119.57671957671958 29.841269841269842,119.57671957671958 29.20634920634921,119.57671957671958 28.571428571428573,119.57671957671958 27.93650793650794,119.57671957671958 27.301587301587304,119.57671957671958 26.666666666666668,119.57671957671958 26.031746031746035,119.7883597883598 25.3968253968254,119.7883597883598 24.761904761904763,119.7883597883598 24.12698412698413,120.00000000000001 23.492063492063494,120.00000000000001 22.857142857142858,120.00000000000001 22.222222222222225,120.00000000000001 21.58730158730159,120.21164021164022 20.952380952380953,120.21164021164022 20.31746031746032,120.21164021164022 19.682539682539684,120.42328042328043 16.296296296296298,120.84656084656086" style="fill:none; stroke:#00aa99; stroke-width:1.0"  /><polyline points="16.296296296296298,120.84656084656086 14.603174603174605,117.67195767195768 14.17989417989418,117.03703703703705 13.96825396825397,116.4021164021164 13.756613756613758,115.76719576719577 13.333333333333334,115.13227513227514 13.121693121693122,114.49735449735451 12.6984126984127,113.86243386243387 12.486772486772487,113.22751322751324 12.063492063492065,112.5925925925926 11.851851851851853,111.95767195767196 11.428571428571429,111.53439153439155 11.005291005291006,110.89947089947091 10.582010582010582,110.26455026455027 10.15873015873016,109.62962962962963 9.735449735449736,108.994708994709 9.312169312169313,108.57142857142858 8.88888888888889,107.93650793650795 8.465608465608467,107.3015873015873 8.042328042328043,106.87830687830689 7.6190476190476195,106.24338624338625 7.195767195767196,105.82010582010582 6.984126984126985,105.18518518518519 6.560846560846561,104.76190476190477 6.137566137566138,104.12698412698414 5.9259259259259265,103.4920634920635 5.502645502645503,103.06878306878308 5.07936507936508,102.43386243386244 4.867724867724868,101.79894179894181 4.444444444444445,101.37566137566138 4.021164021164021,100.74074074074075 3.8095238095238098,100.10582010582011 3.3862433862433865,99.47089947089948 3.174603174603175,98.83597883597885 2.9629629629629632,98.2010582010582 2.53968253968254,97.56613756613757 2.3280423280423284,96.93121693121694 2.1164021164021167,96.2962962962963 1.9047619047619049,95.66137566137567 1.6931216931216932,95.02645502645504 1.6931216931216932,94.39153439153439 1.4814814814814816,93.75661375661376 1.26984126984127,93.12169312169313 1.26984126984127,92.4867724867725 1.0582010582010584,91.85185185185186 1.0582010582010584,91.21693121693123 0.8465608465608466,90.58201058201058 0.634920634920635,89.94708994708995 0.634920634920635,89.31216931216932 0.634920634920635,88.67724867724868 0.4232804232804233,88.04232804232805 0.4232804232804233,87.40740740740742 0.4232804232804233,86.77248677248677 0.21164021164021166,86.13756613756614 0.21164021164021166,85.5026455026455 0.21164021164021166,84.86772486772487 0.21164021164021166,84.23280423280424 0.21164021164021166,83.59788359788361 0.21164021164021166,82.96296296296298 0.21164021164021166,82.32804232804233 0.4232804232804233,81.6931216931217 0.4232804232804233,81.05820105820106 0.4232804232804233,80.42328042328043 0.4232804232804233,79.7883597883598 0.634920634920635,79.15343915343917 0.634920634920635,78.51851851851852 0.634920634920635,77.88359788359789 0.8465608465608466,77.24867724867725 0.8465608465608466,76.61375661375662 1.0582010582010584,75.97883597883599 1.0582010582010584,75.34391534391536 1.0582010582010584,74.70899470899471 1.26984126984127,74.07407407407408 1.4814814814814816,73.43915343915344 1.6931216931216932,72.80423280423281 1.9047619047619049,72.16931216931218 2.3280423280423284,71.74603174603175 2.7513227513227516,71.11111111111111 3.174603174603175,70.47619047619048 3.597883597883598,70.05291005291006 4.021164021164021,69.62962962962963 4.444444444444445,69.20634920634922 5.07936507936508,68.78306878306879 5.714285714285714,68.78306878306879 6.34920634920635,68.57142857142858 6.984126984126985,68.35978835978837 7.6190476190476195,68.35978835978837 8.253968253968255,68.35978835978837 8.88888888888889,68.35978835978837 9.523809523809524,68.35978835978837 10.15873015873016,68.35978835978837 10.793650793650794,68.35978835978837 11.428571428571429,68.57142857142858 12.063492063492065,68.57142857142858 12.6984126984127,68.57142857142858 13.333333333333334,68.78306878306879 13.96825396825397,68.78306878306879 14.603174603174605,68.78306878306879 15.238095238095239,68.994708994709 15.873015873015873,69.20634920634922 16.50793650793651,69.41798941798942 17.142857142857146,69.62962962962963 17.77777777777778,70.05291005291006 18.412698412698415,70.26455026455027 19.047619047619047,70.47619047619048 19.682539682539684,70.6878306878307 20.31746031746032,70.8994708994709 20.952380952380953,71.11111111111111 21.58730158730159,71.32275132275133 22.222222222222225,71.32275132275133 22.857142857142858,71.53439153439155 23.492063492063494,71.74603174603175 24.12698412698413,71.74603174603175 24.761904761904763,71.95767195767196 25.3968253968254,71.95767195767196 26.031746031746035,72.16931216931218 26.666666666666668,72.16931216931218 27.301587301587304,72.16931216931218 27.93650793650794,71.95767195767196 28.571428571428573,71.95767195767196 29.20634920634921,71.74603174603175 29.841269841269842,71.53439153439155 30.476190476190478,71.11111111111111 31.111111111111114,70.8994708994709 31.53439153439154,70.47619047619048 31.95767195767196,70.05291005291006 32.38095238095239,69.62962962962963 32.804232804232804,68.994708994709 33.22751322751323,68.35978835978837 33.65079365079365,67.72486772486774 34.074074074074076,67.08994708994709 34.28571428571429,66.45502645502646 34.4973544973545,65.82010582010582 34.70899470899471,65.18518518518519 34.70899470899471,64.55026455026456 34.920634920634924,63.91534391534392 34.920634920634924,63.280423280423285 35.13227513227513,62.64550264550265 34.920634920634924,62.01058201058201 34.920634920634924,61.37566137566138 34.920634920634924,60.74074074074075 34.920634920634924,60.10582010582011 34.920634920634924,59.470899470899475 35.13227513227513,58.83597883597884 34.920634920634924,58.2010582010582 34.920634920634924,57.56613756613757 34.920634920634924,56.93121693121694 34.920634920634924,56.2962962962963 34.920634920634924,55.661375661375665 34.70899470899471,55.02645502645503 34.70899470899471,54.39153439153439 34.70899470899471,53.75661375661376 34.70899470899471,53.12169312169313 34.70899470899471,52.48677248677249 34.4973544973545,51.851851851851855 34.28571428571429,51.21693121693122 34.074074074074076,50.58201058201058 34.074074074074076,49.94708994708995 33.86243386243387,49.31216931216932 33.86243386243387,48.677248677248684 33.65079365079365,48.042328042328045 33.43915343915344,47.40740740740741 33.43915343915344,46.77248677248678 33.01587301587302,46.13756613756614 32.804232804232804,45.50264550264551 32.592592592592595,44.867724867724874 32.16931216931217,44.232804232804234 31.746031746031747,43.5978835978836 31.53439153439154,42.96296296296297 31.111111111111114,42.539682539682545 30.68783068783069,41.904761904761905 30.264550264550266,41.26984126984127 29.841269841269842,40.63492063492064 29.41798941798942,40.211640211640216 28.994708994708997,39.78835978835979 28.571428571428573,39.36507936507937 28.14814814814815,38.94179894179894 27.513227513227516,38.51851851851852 26.87830687830688,38.095238095238095 26.243386243386244,37.883597883597886 25.60846560846561,37.46031746031746 24.973544973544975,37.248677248677254 24.338624338624342,37.03703703703704 23.703703703703706,37.03703703703704 23.06878306878307,36.82539682539683 22.433862433862437,36.82539682539683 21.7989417989418,36.613756613756614 21.164021164021165,36.613756613756614 20.529100529100532,36.82539682539683 19.894179894179896,36.82539682539683 19.25925925925926,36.82539682539683 18.624338624338627,37.03703703703704 17.98941798941799,37.248677248677254 17.354497354497354,37.46031746031746 16.931216931216934,37.883597883597886 16.296296296296298,38.095238095238095 15.661375661375663,38.51851851851852 15.026455026455027,38.94179894179894 14.603174603174605,39.36507936507937 13.96825396825397,39.78835978835979 13.544973544973546,40.211640211640216 13.121693121693122,40.63492063492064 12.6984126984127,41.058201058201064 12.275132275132275,41.48148148148149 11.640211640211641,41.904761904761905 11.216931216931219,42.32804232804233 10.582010582010582,42.539682539682545 9.947089947089948,42.96296296296297 9.312169312169313,42.96296296296297 8.677248677248677,43.17460317460318 8.042328042328043,43.17460317460318 7.407407407407408,43.17460317460318 6.772486772486773,43.17460317460318 6.137566137566138,42.96296296296297 5.502645502645503,42.75132275132275 5.07936507936508,42.32804232804233 4.444444444444445,41.904761904761905 4.021164021164021,41.48148148148149 3.8095238095238098,40.84656084656085 3.597883597883598,40.211640211640216 3.3862433862433865,39.57671957671958 3.174603174603175,38.94179894179894 3.174603174603175,38.30687830687831 3.174603174603175,37.67195767195768 3.174603174603175,37.03703703703704 3.174603174603175,36.402116402116405 3.174603174603175,35.76719576719577 3.174603174603175,35.13227513227513 3.174603174603175,34.4973544973545 3.174603174603175,33.86243386243387 3.174603174603175,33.22751322751323 3.174603174603175,32.592592592592595 3.174603174603175,31.95767195767196 3.174603174603175,31.322751322751326 3.3862433862433865,30.68783068783069 3.3862433862433865,30.052910052910054 3.3862433862433865,29.41798941798942 3.3862433862433865,28.783068783068785 3.3862433862433865,28.14814814814815 3.3862433862433865,27.513227513227516 3.3862433862433865,26.87830687830688 3.3862433862433865,26.243386243386244 3.597883597883598,22.222222222222225" style="fill:none; stroke:#3300bb; stroke-width:1.0"  /><circle cx="3.597883597883598" cy="22.222222222222225" r="2.0" style="fill:none; stroke:#000000aa; stroke-width:0.25" /><circle cx="181.5873015873016" cy="4.867724867724868" r="2.0" style="fill:none; stroke:#000000aa; stroke-width:0.25" /><circle cx="176.0846560846561" cy="96.2962962962963" r="2.0" style="fill:none; stroke:#000000aa; stroke-width:0.25" /><circle cx="16.296296296296298" cy="120.84656084656086" r="2.0" style="fill:none; stroke:#000000aa; stroke-width:0.25" /><circle cx="4.021164021164021" cy="22.857142857142858" r="2.0" style="fill:none; stroke:#ff3366aa; stroke-width:0.25" /><circle cx="181.16402116402116" cy="5.07936507936508" r="2.0" style="fill:none; stroke:#ff3366aa; stroke-width:0.25" /><circle cx="175.87301587301587" cy="95.87301587301587" r="2.0" style="fill:none; stroke:#ff3366aa; stroke-width:0.25" /><circle cx="16.296296296296298" cy="120.63492063492065" r="2.0" style="fill:none; stroke:#ff3366aa; stroke-width:0.25" /><polyline points="14.814814814814817,19.047619047619047 14.17989417989418,19.047619047619047 13.544973544973546,19.47089947089947 12.910052910052912,19.682539682539684 12.275132275132275,19.894179894179896 11.640211640211641,20.105820105820108 11.005291005291006,20.31746031746032 10.370370370370372,20.31746031746032 9.735449735449736,20.529100529100532 9.100529100529101,20.740740740740744 8.465608465608467,20.952380952380953 7.830687830687832,21.164021164021165 7.195767195767196,21.164021164021165" style="fill:none; stroke:#001100; stroke-width:1.0" /><polyline points="3.174603174603175,34.4973544973545 3.174603174603175,33.86243386243387 3.174603174603175,33.22751322751323 3.174603174603175,32.592592592592595 3.174603174603175,31.95767195767196 3.174603174603175,31.322751322751326 3.3862433862433865,30.68783068783069 3.3862433862433865,30.052910052910054 3.3862433862433865,29.41798941798942 3.3862433862433865,28.783068783068785 3.3862433862433865,28.14814814814815 3.3862433862433865,27.513227513227516 3.3862433862433865,26.87830687830688 3.3862433862433865,26.243386243386244" style="fill:none; stroke:#000011; stroke-width:1.0" /><polyline points="180.74074074074076,16.50793650793651 180.52910052910053,15.873015873015873 180.74074074074076,15.238095238095239 180.74074074074076,14.603174603174605 180.95238095238096,13.96825396825397 180.95238095238096,13.333333333333334 181.16402116402116,12.6984126984127 181.16402116402116,12.063492063492065 181.16402116402116,11.428571428571429 181.16402116402116,10.793650793650794 181.16402116402116,10.15873015873016 181.3756613756614,9.523809523809524 181.3756613756614,8.88888888888889 181.3756613756614,8.253968253968255" style="fill:none; stroke:#001100; stroke-width:1.0" /><polyline points="169.73544973544975,6.137566137566138 170.37037037037038,6.137566137566138 171.005291005291,6.137566137566138 171.64021164021165,6.137566137566138 172.27513227513228,6.137566137566138 172.9100529100529,5.9259259259259265 173.54497354497354,5.9259259259259265 174.1798941798942,5.9259259259259265 174.81481481481484,5.714285714285714 175.44973544973547,5.714285714285714 176.0846560846561,5.502645502645503 176.71957671957674,5.502645502645503 177.35449735449737,5.502645502645503 177.989417989418,5.291005291005291" style="fill:none; stroke:#000011; stroke-width:1.0" /><polyline points="164.02116402116403,96.93121693121694 164.65608465608466,96.93121693121694 165.2910052910053,96.93121693121694 165.92592592592595,96.93121693121694 166.56084656084658,96.71957671957672 167.19576719576722,96.71957671957672 167.83068783068785,96.71957671957672 168.46560846560848,96.71957671957672 169.10052910052912,96.71957671957672 169.73544973544975,96.71957671957672 170.37037037037038,96.71957671957672 171.005291005291,96.71957671957672 171.64021164021165,96.50793650793652 172.27513227513228,96.50793650793652 172.9100529100529,96.50793650793652" style="fill:none; stroke:#001100; stroke-width:1.0" /><polyline points="173.96825396825398,84.02116402116403 173.96825396825398,84.65608465608466 173.96825396825398,85.29100529100529 174.1798941798942,85.92592592592594 174.3915343915344,86.56084656084657 174.3915343915344,87.1957671957672 174.3915343915344,87.83068783068784 174.3915343915344,88.46560846560847 174.6031746031746,89.1005291005291 174.81481481481484,89.73544973544975 174.81481481481484,90.37037037037038 175.02645502645504,91.00529100529101 175.02645502645504,91.64021164021165 175.23809523809524,92.27513227513228 175.44973544973547,92.91005291005291" style="fill:none; stroke:#000011; stroke-width:1.0" /><polyline points="10.582010582010582,110.26455026455027 11.005291005291006,110.89947089947091 11.428571428571429,111.53439153439155 11.851851851851853,111.95767195767196 12.063492063492065,112.5925925925926 12.486772486772487,113.22751322751324 12.6984126984127,113.86243386243387 13.121693121693122,114.49735449735451 13.333333333333334,115.13227513227514 13.756613756613758,115.76719576719577 13.96825396825397,116.4021164021164 14.17989417989418,117.03703703703705 14.603174603174605,117.67195767195768" style="fill:none; stroke:#001100; stroke-width:1.0" /><polyline points="27.93650793650794,119.57671957671958 27.301587301587304,119.57671957671958 26.666666666666668,119.57671957671958 26.031746031746035,119.7883597883598 25.3968253968254,119.7883597883598 24.761904761904763,119.7883597883598 24.12698412698413,120.00000000000001 23.492063492063494,120.00000000000001 22.857142857142858,120.00000000000001 22.222222222222225,120.00000000000001 21.58730158730159,120.21164021164022 20.952380952380953,120.21164021164022 20.31746031746032,120.21164021164022 19.682539682539684,120.42328042328043" style="fill:none; stroke:#000011; stroke-width:1.0" /><polyline points="7.195767195767196,21.164021164021165 -13.121693121693122,26.87830687830688" style="fill:none; stroke:#ffaa00; stroke-width:0.4" /><polyline points="3.3862433862433865,26.243386243386244 4.021164021164021,5.07936507936508" style="fill:none; stroke:#aaff00; stroke-width:0.4" /><polyline points="181.3756613756614,8.253968253968255 183.0687830687831,-12.910052910052912" style="fill:none; stroke:#ffaa00; stroke-width:0.4" /><polyline points="177.989417989418,5.291005291005291 198.94179894179896,3.174603174603175" style="fill:none; stroke:#aaff00; stroke-width:0.4" /><polyline points="172.9100529100529,96.50793650793652 194.07407407407408,95.44973544973546" style="fill:none; stroke:#ffaa00; stroke-width:0.4" /><polyline points="175.44973544973547,92.91005291005291 178.83597883597884,113.86243386243387" style="fill:none; stroke:#aaff00; stroke-width:0.4" /><polyline points="14.603174603174605,117.67195767195768 24.761904761904763,136.2962962962963" style="fill:none; stroke:#ffaa00; stroke-width:0.4" /><polyline points="19.682539682539684,120.42328042328043 -1.26984126984127,122.53968253968254" style="fill:none; stroke:#aaff00; stroke-width:0.4" /><circle cx="86.77248677248677" cy="60.10582010582011" r="1.0" style="fill:#444444; stroke-width:0" /><circle cx="64.97354497354497" cy="57.142857142857146" r="10.582010582010582" style="fill:#ff770022; stroke-width:0" /><circle cx="64.97354497354497" cy="57.142857142857146" r="1.0" style="fill:#ff7700; stroke-width:0" /></svg>