<?xml version="1.0" encoding="UTF-8" standalone="no"?><svg width="533.968253968254" height="633.6507936507937" viewBox="-10 -10 197.989417989418 231.21693121693124" xmlns="http://www.w3.org/2000/svg" xmlns:xlink="http://www.w3.org/1999/xlink"><polyline points="0.21164021164021166,82.96296296296298 2.53968253968254,81.05820105820106 2.9629629629629632,80.63492063492065 3.3862433862433865,80.21164021164022 3.8095238095238098,79.7883597883598 4.444444444444445,79.36507936507937 4.867724867724868,78.94179894179895 5.502645502645503,78.51851851851852 6.137566137566138,78.0952380952381 6.560846560846561,77.67195767195767 6.984126984126985,77.24867724867725 7.407407407407408,76.82539682539684 8.042328042328043,76.61375661375662 8.465608465608467,76.19047619047619 9.100529100529101,75.76719576719577 9.523809523809524,75.34391534391536 10.15873015873016,74.92063492063492 10.582010582010582,74.49735449735451 11.216931216931219,74.28571428571429 11.640211640211641,73.86243386243387 12.063492063492065,73.43915343915344 12.6984126984127,73.01587301587303 13.333333333333334,72.5925925925926 13.96825396825397,72.16931216931218 14.603174603174605,71.74603174603175 15.026455026455027,71.32275132275133 15.661375661375663,71.11111111111111 16.296296296296298,70.6878306878307 16.71957671957672,70.26455026455027 17.354497354497354,69.84126984126985 17.77777777777778,69.41798941798942 18.412698412698415,68.994708994709 19.047619047619047,68.78306878306879 19.47089947089947,68.14814814814815 20.105820105820108,67.93650793650794 20.529100529100532,67.51322751322752 21.164021164021165,67.08994708994709 21.7989417989418,66.66666666666667 22.433862433862437,66.24338624338625 23.06878306878307,66.03174603174604 23.492063492063494,65.60846560846561 24.12698412698413,65.18518518518519 24.761904761904763,64.97354497354497 25.185185185185187,64.55026455026456 25.820105820105823,64.12698412698413 26.455026455026456,63.91534391534392 27.089947089947092,63.492063492063494 27.724867724867728,63.06878306878308 28.35978835978836,62.85714285714286 28.783068783068785,62.43386243386244 29.41798941798942,62.22222222222223 29.841269841269842,61.798941798941804 30.476190476190478,61.37566137566138 31.111111111111114,61.16402116402117 31.53439153439154,60.74074074074075 32.16931216931217,60.52910052910053 32.804232804232804,60.31746031746032 33.43915343915344,59.8941798941799 34.074074074074076,59.682539682539684 34.70899470899471,59.25925925925927 35.34391534391535,59.04761904761905 35.97883597883598,58.83597883597884 36.613756613756614,58.41269841269842 37.248677248677254,58.2010582010582 37.883597883597886,57.989417989417994 38.51851851851852,57.56613756613757 39.15343915343916,57.35449735449736 39.78835978835979,57.142857142857146 40.423280423280424,56.93121693121694 41.058201058201064,56.50793650793651 41.6931216931217,56.2962962962963 42.32804232804233,55.87301587301588 42.96296296296297,55.661375661375665 43.5978835978836,55.449735449735456 44.232804232804234,55.23809523809524 44.65608465608466,54.81481481481482 45.29100529100529,54.60317460317461 45.714285714285715,54.179894179894184 46.349206349206355,53.75661375661376 46.98412698412699,53.333333333333336 47.40740740740741,52.91005291005291 47.830687830687836,52.48677248677249 48.25396825396826,52.06349206349207 48.677248677248684,51.640211640211646 49.1005291005291,51.00529100529101 49.31216931216932,50.370370370370374 49.73544973544974,49.73544973544974 49.94708994708995,49.1005291005291 50.158730158730165,48.46560846560847 50.370370370370374,47.830687830687836 50.370370370370374,47.195767195767196 50.370370370370374,46.560846560846564 50.370370370370374,45.92592592592593 50.158730158730165,45.29100529100529 49.94708994708995,44.65608465608466 49.523809523809526,44.021164021164026 49.31216931216932,43.386243386243386 48.88888888888889,42.75132275132275 48.677248677248684,42.11640211640212 48.25396825396826,41.6931216931217 47.830687830687836,41.26984126984127 47.40740740740741,40.84656084656085 46.98412698412699,40.423280423280424 46.349206349206355,40.0 45.714285714285715,39.78835978835979 45.07936507936508,39.36507936507937 44.44444444444445,39.15343915343916 43.80952380952381,38.730158730158735 43.17460317460318,38.51851851851852 42.539682539682545,38.30687830687831 41.904761904761905,38.095238095238095 41.26984126984127,37.67195767195768 40.63492063492064,37.248677248677254 40.0,37.03703703703704 39.57671957671958,36.613756613756614 38.94179894179894,36.19047619047619 38.51851851851852,35.76719576719577 38.095238095238095,35.34391534391535 37.67195767195768,34.920634920634924 37.248677248677254,34.4973544973545 36.82539682539683,34.074074074074076 36.402116402116405,33.43915343915344 35.97883597883598,32.804232804232804 35.76719576719577,32.16931216931217 35.34391534391535,31.53439153439154 35.13227513227513,30.899470899470902 35.13227513227513,30.264550264550266 34.920634920634924,29.629629629629633 34.920634920634924,28.994708994708997 34.920634920634924,28.35978835978836 34.920634920634924,27.724867724867728 35.13227513227513,27.089947089947092 34.920634920634924,26.455026455026456 34.920634920634924,25.820105820105823 35.13227513227513,25.185185185185187 35.13227513227513,24.55026455026455 35.34391534391535,23.915343915343918 35.34391534391535,23.280423280423282 35.34391534391535,22.645502645502646 35.76719576719577,22.222222222222225 35.97883597883598,21.58730158730159 36.19047619047619,20.952380952380953 36.402116402116405,20.31746031746032 36.613756613756614,19.682539682539684 36.82539682539683,19.047619047619047 37.248677248677254,18.412698412698415 37.46031746031746,17.77777777777778 37.883597883597886,17.142857142857146 38.30687830687831,16.50793650793651 38.51851851851852,15.873015873015873 38.94179894179894,15.449735449735451 39.36507936507937,14.814814814814817 39.78835978835979,14.17989417989418 40.211640211640216,13.756613756613758 40.63492063492064,13.121693121693122 41.058201058201064,12.6984126984127 41.48148148148149,12.275132275132275 41.904761904761905,11.640211640211641 42.32804232804233,11.216931216931219 42.96296296296297,10.793650793650794 43.386243386243386,10.370370370370372 43.80952380952381,9.735449735449736 44.44444444444445,9.312169312169313 44.867724867724874,8.88888888888889 45.50264550264551,8.465608465608467 45.92592592592593,8.042328042328043 46.349206349206355,7.6190476190476195 46.98412698412699,7.195767195767196 47.61904761904762,6.984126984126985 48.042328042328045,6.560846560846561 48.677248677248684,6.137566137566138 49.31216931216932,5.714285714285714 49.94708994708995,5.502645502645503 50.370370370370374,5.07936507936508 51.00529100529101,4.867724867724868 51.640211640211646,4.444444444444445 52.27513227513228,4.021164021164021 52.91005291005291,3.8095238095238098 53.333333333333336,3.3862433862433865 53.968253968253975,3.174603174603175 54.60317460317461,2.7513227513227516 55.23809523809524,2.53968253968254 55.87301587301588,2.1164021164021167 56.50793650793651,2.1164021164021167 57.142857142857146,1.9047619047619049 57.777777777777786,1.6931216931216932 58.41269841269842,1.4814814814814816 59.04761904761905,1.26984126984127 59.682539682539684,1.0582010582010584 60.31746031746032,1.0582010582010584 60.952380952380956,0.8465608465608466 61.58730158730159,0.634920634920635 62.22222222222223,0.634920634920635 62.85714285714286,0.634920634920635 63.492063492063494,0.4232804232804233 64.12698412698413,0.4232804232804233 64.76190476190477,0.4232804232804233 65.3968253968254,0.4232804232804233 66.03174603174604,0.4232804232804233 66.66666666666667,0.4232804232804233 67.3015873015873,0.634920634920635 67.93650793650794,0.634920634920635 68.57142857142858,0.8465608465608466 69.20634920634922,0.8465608465608466 69.84126984126985,1.0582010582010584 70.47619047619048,1.26984126984127 71.11111111111111,1.4814814814814816 71.74603174603175,1.6931216931216932 72.38095238095238,1.9047619047619049 72.80423280423281,2.3280423280423284 73.43915343915344,2.53968253968254 74.07407407407408,2.9629629629629632 74.70899470899471,3.174603174603175 75.34391534391536,3.3862433862433865 75.97883597883599,3.8095238095238098 76.61375661375662,4.2328042328042335 77.24867724867725,4.656084656084657 77.88359788359789,5.07936507936508 78.30687830687832,5.502645502645503 78.73015873015873,5.9259259259259265 79.15343915343917,6.560846560846561 79.57671957671958,7.195767195767196 79.7883597883598,7.830687830687832 80.0,8.465608465608467 80.21164021164022,9.100529100529101 80.42328042328043,9.735449735449736 80.42328042328043,10.370370370370372 80.42328042328043,11.005291005291006 80.42328042328043,11.640211640211641 80.42328042328043,12.275132275132275 80.21164021164022,12.910052910052912 80.21164021164022,13.544973544973546 80.0,14.17989417989418 80.0,14.814814814814817 79.7883597883598,15.449735449735451 79.57671957671958,16.084656084656086 79.57671957671958,16.71957671957672 79.36507936507937,17.354497354497354 79.15343915343917,17.98941798941799 79.15343915343917,18.624338624338627 78.94179894179895,19.25925925925926 78.94179894179895,19.894179894179896 78.94179894179895,20.529100529100532 78.94179894179895,21.164021164021165 78.94179894179895,21.7989417989418 78.94179894179895,22.433862433862437 79.15343915343917,23.06878306878307 79.15343915343917,23.703703703703706 79.36507936507937,24.338624338624342 79.36507936507937,24.973544973544975 79.57671957671958,25.60846560846561 79.7883597883598,26.243386243386244 80.21164021164022,26.87830687830688 80.63492063492065,27.513227513227516 81.05820105820106,28.14814814814815 81.48148148148148,28.783068783068785 81.90476190476191,29.41798941798942 82.32804232804233,29.841269841269842 82.96296296296298,30.264550264550266 83.3862433862434,30.68783068783069 84.02116402116403,30.899470899470902 84.65608465608466,31.322751322751326 85.29100529100529,31.53439153439154 85.92592592592594,31.53439153439154 86.56084656084657,31.746031746031747 87.1957671957672,31.53439153439154 87.83068783068784,31.53439153439154 88.46560846560847,31.53439153439154 89.1005291005291,31.322751322751326 89.73544973544975,31.111111111111114 90.37037037037038,30.899470899470902 91.00529100529101,30.899470899470902 91.64021164021165,30.899470899470902 92.27513227513228,30.68783068783069 92.91005291005291,30.476190476190478 93.54497354497356,30.264550264550266 94.17989417989419,30.264550264550266 94.81481481481482,30.052910052910054 95.44973544973546,29.841269841269842 96.08465608465609,29.629629629629633 96.71957671957672,29.41798941798942 97.35449735449737,29.20634920634921 97.989417989418,28.783068783068785 98.62433862433863,28.571428571428573 99.25925925925927,28.35978835978836 99.8941798941799,27.93650793650794 100.52910052910053,27.724867724867728 101.16402116402116,27.301587301587304 101.79894179894181,26.87830687830688 102.43386243386244,26.455026455026456 103.06878306878308,26.031746031746035 103.70370370370371,25.60846560846561 104.33862433862434,25.185185185185187 104.97354497354497,24.973544973544975 105.3968253968254,24.55026455026455 106.03174603174604,24.12698412698413 106.66666666666667,23.703703703703706 107.3015873015873,23.280423280423282 107.93650793650795,22.857142857142858 108.57142857142858,22.433862433862437 109.20634920634922,22.010582010582013 109.84126984126985,21.7989417989418 110.26455026455027,21.375661375661377 110.89947089947091,20.952380952380953 114.49735449735451,18.624338624338627" style="fill:none; stroke:#cc0000; stroke-width:1.0"  /><polyline points="114.49735449735451,18.624338624338627 115.76719576719577,21.58730158730159 115.97883597883599,22.222222222222225 116.4021164021164,22.857142857142858 116.61375661375662,23.492063492063494 116.82539682539684,24.12698412698413 117.03703703703705,24.761904761904763 117.24867724867725,25.3968253968254 117.46031746031747,26.031746031746035 117.88359788359789,26.666666666666668 118.30687830687832,27.089947089947092 118.51851851851853,27.724867724867728 118.73015873015873,28.35978835978836 118.94179894179895,28.994708994708997 119.15343915343917,29.629629629629633 119.36507936507937,30.264550264550266 119.7883597883598,30.899470899470902 120.00000000000001,31.53439153439154 120.21164021164022,32.16931216931217 120.42328042328043,32.804232804232804 120.84656084656086,33.43915343915344 121.05820105820106,34.074074074074076 121.26984126984128,34.70899470899471 121.4814814814815,35.34391534391535 121.90476190476191,35.97883597883598 122.11640211640213,36.613756613756614 122.32804232804234,37.248677248677254 122.53968253968254,37.883597883597886 122.96296296296298,38.51851851851852 123.17460317460318,39.15343915343916 123.3862433862434,39.78835978835979 123.59788359788361,40.423280423280424 124.02116402116403,41.058201058201064 124.23280423280424,41.6931216931217 124.65608465608466,42.32804232804233 124.86772486772487,42.96296296296297 125.07936507936509,43.5978835978836 125.2910052910053,44.232804232804234 125.5026455026455,44.867724867724874 125.92592592592594,45.50264550264551 126.13756613756615,46.13756613756614 126.34920634920636,46.77248677248678 126.56084656084657,47.40740740740741 126.77248677248679,48.042328042328045 126.98412698412699,48.677248677248684 127.40740740740742,49.31216931216932 127.61904761904763,49.94708994708995 127.83068783068784,50.58201058201058 128.04232804232805,51.21693121693122 128.25396825396825,51.851851851851855 128.46560846560848,52.48677248677249 128.67724867724868,53.12169312169313 129.10052910052912,53.75661375661376 129.31216931216932,54.39153439153439 129.52380952380955,55.02645502645503 129.73544973544975,55.661375661375665 129.94708994708995,56.2962962962963 130.15873015873018,56.93121693121694 130.37037037037038,57.56613756613757 130.58201058201058,58.2010582010582 130.7936507936508,58.83597883597884 131.005291005291,59.470899470899475 131.21693121693121,60.10582010582011 131.42857142857144,60.74074074074075 131.64021164021165,61.37566137566138 132.06349206349208,61.798941798941804 132.27513227513228,62.43386243386244 132.4867724867725,63.06878306878308 132.6984126984127,63.70370370370371 132.9100529100529,64.33862433862434 133.12169312169314,64.97354497354497 133.12169312169314,65.60846560846561 133.33333333333334,66.24338624338625 133.54497354497354,66.87830687830689 133.75661375661377,67.51322751322752 133.96825396825398,68.14814814814815 134.17989417989418,68.78306878306879 134.3915343915344,69.41798941798942 134.6031746031746,70.05291005291006 134.81481481481484,70.6878306878307 135.02645502645504,71.32275132275133 135.23809523809524,71.95767195767196 135.02645502645504,72.5925925925926 135.23809523809524,73.22751322751323 135.44973544973547,73.86243386243387 135.44973544973547,74.49735449735451 135.66137566137567,75.13227513227514 135.66137566137567,75.76719576719577 135.87301587301587,76.4021164021164 135.87301587301587,77.03703703703704 136.0846560846561,77.67195767195767 136.0846560846561,78.30687830687832 136.2962962962963,78.94179894179895 136.5079365079365,79.57671957671958 136.5079365079365,80.21164021164022 136.71957671957674,80.84656084656085 136.93121693121694,81.48148148148148 137.14285714285717,82.11640211640213 137.35449735449737,82.75132275132276 137.7777777777778,83.3862433862434 137.989417989418,84.02116402116403 138.2010582010582,84.65608465608466 138.62433862433863,85.07936507936509 139.04761904761907,85.71428571428572 139.47089947089947,86.34920634920636 139.8941798941799,86.77248677248677 140.31746031746033,87.1957671957672 140.74074074074076,87.61904761904762 141.3756613756614,88.04232804232805 142.01058201058203,88.25396825396827 142.64550264550266,88.67724867724868 143.2804232804233,88.67724867724868 143.91534391534393,88.8888888888889 144.55026455026456,89.1005291005291 145.1851851851852,88.8888888888889 145.82010582010582,88.8888888888889 146.24338624338625,88.46560846560847 146.8783068783069,88.25396825396827 147.51322751322752,88.04232804232805 148.14814814814815,87.61904761904762 148.78306878306879,87.1957671957672 149.41798941798942,86.98412698412699 149.84126984126985,86.56084656084657 150.47619047619048,86.13756613756614 151.11111111111111,85.92592592592594 151.53439153439155,85.5026455026455 152.16931216931218,85.07936507936509 152.8042328042328,84.65608465608466 153.43915343915344,84.44444444444446 154.07407407407408,84.23280423280424 154.4973544973545,83.80952380952381 155.13227513227514,83.59788359788361 155.76719576719577,83.3862433862434 156.4021164021164,83.17460317460318 157.03703703703704,82.75132275132276 157.67195767195767,82.53968253968254 158.30687830687833,82.32804232804233 158.94179894179896,82.11640211640213 159.5767195767196,81.6931216931217 160.21164021164023,81.48148148148148 160.84656084656086,81.26984126984128 161.4814814814815,81.26984126984128 162.11640211640213,81.26984126984128 162.75132275132276,81.26984126984128 163.3862433862434,81.26984126984128 164.02116402116403,81.05820105820106 164.65608465608466,81.05820105820106 165.2910052910053,81.05820105820106 165.92592592592595,81.05820105820106 166.56084656084658,81.05820105820106 167.19576719576722,81.26984126984128 167.83068783068785,81.48148148148148 168.46560846560848,81.6931216931217 169.10052910052912,81.90476190476191 169.73544973544975,82.11640211640213 170.15873015873018,82.53968253968254 170.7936507936508,82.75132275132276 171.21693121693124,83.17460317460318 171.85185185185188,83.59788359788361 172.4867724867725,84.02116402116403 172.9100529100529,84.44444444444446 173.33333333333334,84.86772486772487 173.75661375661377,85.5026455026455 174.1798941798942,86.13756613756614 174.6031746031746,86.77248677248677 175.02645502645504,87.40740740740742 175.23809523809524,88.04232804232805 175.66137566137567,88.67724867724868 175.87301587301587,89.31216931216932 176.0846560846561,89.94708994708995 176.2962962962963,90.58201058201058 176.50793650793653,91.21693121693123 176.71957671957674,91.85185185185186 176.93121693121694,92.4867724867725 176.93121693121694,93.12169312169313 177.14285714285717,93.75661375661376 177.14285714285717,94.39153439153439 177.35449735449737,95.02645502645504 177.35449735449737,95.66137566137567 177.35449735449737,96.2962962962963 177.56613756613757,96.93121693121694 177.56613756613757,97.56613756613757 177.56613756613757,98.2010582010582 177.56613756613757,98.83597883597885 177.56613756613757,99.47089947089948 177.35449735449737,100.10582010582011 177.14285714285717,100.74074074074075 177.14285714285717,101.37566137566138 176.93121693121694,102.01058201058201 176.71957671957674,102.64550264550266 176.50793650793653,103.28042328042329 176.0846560846561,103.91534391534393 175.87301587301587,104.55026455026456 175.44973544973547,104.97354497354497 175.02645502645504,105.3968253968254 175.02645502645504,106.03174603174604 174.6031746031746,106.66666666666667 174.1798941798942,107.0899470899471 173.75661375661377,107.51322751322752 173.33333333333334,107.93650793650795 172.9100529100529,108.35978835978837 172.27513227513228,108.78306878306879 171.64021164021165,109.20634920634922 171.005291005291,109.41798941798943 170.37037037037038,109.62962962962963 169.73544973544975,109.84126984126985 169.10052910052912,110.05291005291006 168.46560846560848,110.26455026455027 167.83068783068785,110.26455026455027 167.19576719576722,110.47619047619048 166.56084656084658,110.47619047619048 165.92592592592595,110.47619047619048 165.2910052910053,110.47619047619048 164.65608465608466,110.47619047619048 164.02116402116403,110.26455026455027 163.3862433862434,110.26455026455027 162.75132275132276,110.26455026455027 162.11640211640213,110.26455026455027 161.4814814814815,110.05291005291006 160.84656084656086,110.05291005291006 160.21164021164023,109.84126984126985 159.5767195767196,109.84126984126985 158.94179894179896,110.05291005291006 158.30687830687833,110.05291005291006 157.67195767195767,110.05291005291006 157.03703703703704,110.05291005291006 156.4021164021164,110.05291005291006 155.76719576719577,110.05291005291006 155.13227513227514,110.05291005291006 154.4973544973545,110.26455026455027 153.86243386243387,110.26455026455027 153.22751322751324,110.47619047619048 152.5925925925926,110.6878306878307 151.95767195767198,110.6878306878307 151.32275132275134,111.11111111111111 150.6878306878307,111.32275132275133 150.05291005291005,111.74603174603176 149.41798941798942,112.16931216931218 148.78306878306879,112.5925925925926 148.35978835978838,113.01587301587303 147.93650793650795,113.43915343915344 147.51322751322752,114.07407407407408 147.0899470899471,114.70899470899472 146.8783068783069,115.34391534391536 146.66666666666669,115.97883597883599 146.45502645502646,116.61375661375662 146.45502645502646,117.24867724867725 146.45502645502646,117.88359788359789 146.03174603174605,118.30687830687832 146.24338624338625,118.94179894179895 146.45502645502646,119.57671957671958 146.8783068783069,120.21164021164022 147.0899470899471,120.84656084656086 147.51322751322752,121.4814814814815 147.72486772486775,122.11640211640213 147.93650793650795,122.75132275132276 148.35978835978838,123.3862433862434 148.78306878306879,124.02116402116403 148.99470899470901,124.65608465608466 149.41798941798942,125.07936507936509 149.84126984126985,125.71428571428572 150.05291005291005,126.34920634920636 150.47619047619048,126.77248677248679 150.8994708994709,127.1957671957672 151.32275132275134,127.83068783068784 151.53439153439155,128.46560846560848 151.95767195767198,129.10052910052912 152.38095238095238,129.73544973544975 152.8042328042328,130.15873015873018 153.22751322751324,130.7936507936508 153.65079365079367,131.42857142857144 154.07407407407408,131.85185185185185 154.4973544973545,132.4867724867725 154.92063492063494,133.12169312169314 155.34391534391534,133.75661375661377 155.55555555555557,134.3915343915344 155.978835978836,134.81481481481484 156.4021164021164,135.44973544973547 156.82539682539684,136.0846560846561 157.24867724867727,136.71957671957674 157.46031746031747,137.35449735449737 157.8835978835979,137.7777777777778 158.30687830687833,138.41269841269843 158.51851851851853,139.04761904761907 158.94179894179896,139.47089947089947 159.36507936507937,140.10582010582013 159.7883597883598,140.74074074074076 160.21164021164023,141.3756613756614 160.63492063492066,142.01058201058203 161.05820105820106,142.64550264550266 161.2698412698413,143.2804232804233 161.6931216931217,143.70370370370372 162.11640211640213,144.33862433862436 162.53968253968256,144.973544973545 162.75132275132276,145.60846560846562 163.1746031746032,146.03174603174605 163.59788359788362,146.66666666666669 163.80952380952382,147.30158730158732 164.23280423280426,147.93650793650795 164.65608465608466,148.57142857142858 165.0793650793651,149.20634920634922 165.2910052910053,149.84126984126985 165.71428571428572,150.26455026455028 166.13756613756615,150.8994708994709 166.34920634920636,151.53439153439155 166.7724867724868,151.95767195767198 166.984126984127,152.5925925925926 167.40740740740742,153.01587301587304 167.83068783068785,153.65079365079367 168.04232804232805,154.2857142857143 168.46560846560848,154.92063492063494 168.8888888888889,155.55555555555557 169.31216931216932,156.1904761904762 169.73544973544975,156.82539682539684 169.94708994708995,157.46031746031747 170.37037037037038,157.8835978835979 170.7936507936508,158.51851851851853 171.21693121693124,159.15343915343917 171.64021164021165,159.7883597883598 172.06349206349208,160.21164021164023 172.27513227513228,160.84656084656086 172.6984126984127,161.2698412698413 173.12169312169314,161.90476190476193 175.02645502645504,164.8677248677249" style="fill:none; stroke:#999900; stroke-width:1.0"  /><polyline points="175.02645502645504,164.8677248677249 171.85185185185188,166.984126984127 171.21693121693124,167.40740740740742 170.58201058201058,167.61904761904762 169.94708994708995,168.04232804232805 169.52380952380955,168.46560846560848 168.8888888888889,168.8888888888889 168.25396825396825,169.31216931216932 167.61904761904762,169.52380952380955 167.19576719576722,169.94708994708995 166.56084656084658,170.37037037037038 165.92592592592595,170.7936507936508 165.2910052910053,171.21693121693124 164.65608465608466,171.64021164021165 164.23280423280426,172.06349206349208 163.59788359788362,172.4867724867725 162.96296296296296,172.6984126984127 162.53968253968256,173.12169312169314 161.90476190476193,173.54497354497354 161.2698412698413,173.75661375661377 160.63492063492066,174.1798941798942 160.0,174.6031746031746 159.36507936507937,175.02645502645504 158.94179894179896,175.44973544973547 158.30687830687833,175.87301587301587 157.67195767195767,176.2962962962963 157.03703703703704,176.50793650793653 156.61375661375664,176.93121693121694 155.978835978836,177.14285714285717 155.34391534391534,177.56613756613757 154.7089947089947,177.989417989418 154.07407407407408,178.2010582010582 153.43915343915344,178.62433862433863 152.8042328042328,178.83597883597884 152.16931216931218,179.25925925925927 151.53439153439155,179.6825396825397 150.8994708994709,179.8941798941799 150.26455026455028,180.31746031746033 149.62962962962965,180.52910052910053 149.20634920634922,180.95238095238096 148.57142857142858,181.16402116402116 147.93650793650795,181.5873015873016 147.30158730158732,181.79894179894183 146.66666666666669,182.22222222222223 146.03174603174605,182.43386243386246 145.39682539682542,182.85714285714286 144.76190476190476,183.0687830687831 144.12698412698413,183.4920634920635 143.4920634920635,183.70370370370372 142.85714285714286,183.91534391534393 142.22222222222223,184.33862433862436 141.5873015873016,184.33862433862436 140.95238095238096,184.55026455026456 140.31746031746033,184.55026455026456 139.6825396825397,184.7619047619048 139.04761904761907,184.7619047619048 138.41269841269843,184.55026455026456 137.7777777777778,184.55026455026456 137.14285714285717,184.33862433862436 136.5079365079365,184.12698412698415 135.87301587301587,183.91534391534393 135.44973544973547,183.4920634920635 134.81481481481484,183.2804232804233 134.17989417989418,182.85714285714286 133.75661375661377,182.43386243386246 133.33333333333334,182.01058201058203 132.9100529100529,181.3756613756614 132.4867724867725,180.95238095238096 132.06349206349208,180.31746031746033 131.85185185185185,179.6825396825397 131.64021164021165,179.04761904761907 131.42857142857144,178.41269841269843 131.42857142857144,177.7777777777778 131.21693121693121,177.14285714285717 131.21693121693121,176.50793650793653 131.21693121693121,175.87301587301587 131.21693121693121,175.23809523809524 131.005291005291,174.6031746031746 131.005291005291,173.96825396825398 131.005291005291,173.33333333333334 131.005291005291,172.6984126984127 130.7936507936508,172.06349206349208 130.7936507936508,171.42857142857144 130.7936507936508,170.7936507936508 130.58201058201058,170.15873015873018 130.58201058201058,169.52380952380955 130.58201058201058,168.8888888888889 130.37037037037038,168.25396825396825 130.37037037037038,167.61904761904762 130.15873015873018,166.984126984127 129.73544973544975,166.34920634920636 129.73544973544975,165.71428571428572 129.31216931216932,165.0793650793651 129.10052910052912,164.44444444444446 128.67724867724868,163.80952380952382 128.46560846560848,163.1746031746032 128.04232804232805,162.53968253968256 127.61904761904763,161.90476190476193 127.1957671957672,161.2698412698413 126.77248677248679,160.84656084656086 126.34920634920636,160.42328042328043 125.92592592592594,159.7883597883598 125.5026455026455,159.36507936507937 125.07936507936509,158.94179894179896 124.65608465608466,158.51851851851853 124.02116402116403,158.30687830687833 123.3862433862434,157.8835978835979 122.75132275132276,157.46031746031747 122.11640211640213,157.03703703703704 121.4814814814815,156.82539682539684 120.84656084656086,156.61375661375664 120.21164021164022,156.4021164021164 119.57671957671958,156.1904761904762 118.94179894179895,155.978835978836 118.30687830687832,155.76719576719577 117.67195767195768,155.76719576719577 117.03703703703705,155.55555555555557 116.4021164021164,155.55555555555557 115.76719576719577,155.55555555555557 115.13227513227514,155.34391534391534 114.49735449735451,155.34391534391534 113.86243386243387,155.55555555555557 113.22751322751324,155.55555555555557 112.5925925925926,155.55555555555557 111.95767195767196,155.76719576719577 111.32275132275133,155.978835978836 110.6878306878307,155.978835978836 110.05291005291006,156.1904761904762 109.41798941798943,156.4021164021164 108.78306878306879,156.61375661375664 108.14814814814815,157.03703703703704 107.51322751322752,157.24867724867727 106.87830687830689,157.67195767195767 106.24338624338625,157.8835978835979 105.82010582010582,158.30687830687833 105.18518518518519,158.51851851851853 104.76190476190477,158.94179894179896 104.12698412698414,159.36507936507937 103.70370370370371,159.7883597883598 103.28042328042329,160.21164021164023 102.85714285714286,160.63492063492066 102.43386243386244,161.05820105820106 102.01058201058201,161.4814814814815 101.5873015873016,162.11640211640213 101.16402116402116,162.53968253968256 100.74074074074075,163.1746031746032 100.31746031746033,163.80952380952382 99.8941798941799,164.44444444444446 99.68253968253968,165.0793650793651 99.25925925925927,165.71428571428572 99.04761904761905,166.34920634920636 99.04761904761905,166.984126984127 99.04761904761905,167.61904761904762 98.83597883597885,168.25396825396825 98.83597883597885,168.8888888888889 98.83597883597885,169.52380952380955 98.83597883597885,170.15873015873018 99.04761904761905,170.7936507936508 99.04761904761905,171.42857142857144 99.25925925925927,172.06349206349208 99.47089947089948,172.6984126984127 99.8941798941799,173.33333333333334 100.10582010582011,173.96825396825398 100.31746031746033,174.6031746031746 100.74074074074075,175.23809523809524 100.95238095238096,175.87301587301587 101.37566137566138,176.50793650793653 101.5873015873016,177.14285714285717 102.01058201058201,177.7777777777778 102.43386243386244,178.41269841269843 102.85714285714286,179.04761904761907 103.28042328042329,179.6825396825397 103.70370370370371,180.10582010582013 104.12698412698414,180.74074074074076 104.55026455026456,181.3756613756614 104.97354497354497,181.79894179894183 105.3968253968254,182.43386243386246 105.82010582010582,182.85714285714286 106.24338624338625,183.2804232804233 106.66666666666667,183.70370370370372 107.0899470899471,184.12698412698415 107.51322751322752,184.55026455026456 107.93650793650795,185.1851851851852 108.35978835978837,185.60846560846562 108.78306878306879,186.03174603174605 109.20634920634922,186.45502645502646 109.41798941798943,187.08994708994712 109.84126984126985,187.72486772486775 110.05291005291006,188.35978835978838 110.26455026455027,188.99470899470901 110.26455026455027,189.62962962962965 110.47619047619048,190.26455026455028 110.47619047619048,190.8994708994709 110.26455026455027,191.53439153439155 110.26455026455027,192.16931216931218 110.05291005291006,192.8042328042328 109.84126984126985,193.43915343915344 109.62962962962963,194.07407407407408 109.41798941798943,194.70899470899474 108.994708994709,195.34391534391537 108.57142857142858,195.978835978836 108.14814814814815,196.4021164021164 107.72486772486774,196.82539682539684 107.3015873015873,197.24867724867727 106.66666666666667,197.6719576719577 106.03174603174604,198.0952380952381 105.3968253968254,198.30687830687833 104.76190476190477,198.73015873015873 104.12698412698414,198.94179894179896 103.4920634920635,198.94179894179896 102.85714285714286,199.36507936507937 102.22222222222223,199.5767195767196 101.5873015873016,199.7883597883598 100.95238095238096,200.00000000000003 100.31746031746033,200.42328042328043 99.68253968253968,200.63492063492066 99.04761904761905,200.84656084656086 98.41269841269842,201.05820105820106 97.77777777777779,201.2698412698413 97.35449735449737,201.6931216931217 96.71957671957672,201.90476190476193 96.08465608465609,202.11640211640213 95.44973544973546,202.32804232804233 94.81481481481482,202.53968253968256 94.17989417989419,202.75132275132276 93.54497354497356,202.962962962963 92.91005291005291,203.3862433862434 92.27513227513228,203.59788359788362 91.64021164021165,203.80952380952382 91.00529100529101,204.02116402116403 90.37037037037038,204.23280423280426 89.73544973544975,204.44444444444446 89.31216931216932,204.8677248677249 88.67724867724868,205.0793650793651 88.04232804232805,205.29100529100532 87.40740740740742,205.50264550264552 86.77248677248677,205.71428571428572 86.13756613756614,205.92592592592595 85.5026455026455,206.13756613756615 84.86772486772487,206.56084656084658 84.23280423280424,206.7724867724868 83.59788359788361,206.984126984127 82.96296296296298,207.19576719576722 82.32804232804233,207.40740740740742 81.6931216931217,207.61904761904765 81.05820105820106,207.83068783068785 80.42328042328043,208.04232804232805 79.7883597883598,208.25396825396828 79.15343915343917,208.46560846560848 78.51851851851852,208.67724867724868 77.88359788359789,208.8888888888889 77.24867724867725,209.10052910052912 76.61375661375662,209.52380952380955 75.97883597883599,209.73544973544975 72.5925925925926,211.005291005291" style="fill:none; stroke:#00aa99; stroke-width:1.0"  /><polyline points="72.5925925925926,211.005291005291 70.6878306878307,207.83068783068785 70.26455026455027,207.19576719576722 69.84126984126985,206.56084656084658 69.62962962962963,205.92592592592595 69.20634920634922,205.29100529100532 68.994708994709,204.65608465608466 68.57142857142858,204.02116402116403 68.14814814814815,203.3862433862434 67.93650793650794,202.75132275132276 67.51322751322752,202.32804232804233 67.08994708994709,201.6931216931217 66.66666666666667,201.2698412698413 66.24338624338625,200.63492063492066 65.82010582010582,200.00000000000003 65.3968253968254,199.36507936507937 65.18518518518519,198.73015873015873 64.76190476190477,198.30687830687833 64.33862433862434,197.6719576719577 63.91534391534392,197.03703703703704 63.70370370370371,196.4021164021164 63.280423280423285,195.76719576719577 62.85714285714286,195.13227513227514 62.64550264550265,194.4973544973545 62.22222222222223,193.86243386243387 61.798941798941804,193.43915343915344 61.37566137566138,192.8042328042328 61.16402116402117,192.16931216931218 60.74074074074075,191.74603174603175 60.31746031746032,191.11111111111111 59.8941798941799,190.47619047619048 59.682539682539684,189.84126984126985 59.25925925925927,189.41798941798945 58.83597883597884,188.78306878306879 58.41269841269842,188.14814814814815 57.989417989417994,187.51322751322752 57.56613756613757,186.8783068783069 57.142857142857146,186.24338624338625 56.71957671957672,185.60846560846562 56.2962962962963,185.1851851851852 56.08465608465609,184.55026455026456 55.661375661375665,183.91534391534393 55.23809523809524,183.2804232804233 54.81481481481482,182.64550264550266 54.39153439153439,182.22222222222223 53.968253968253975,181.79894179894183 53.54497354497355,181.16402116402116 53.12169312169313,180.52910052910053 52.6984126984127,179.8941798941799 52.27513227513228,179.25925925925927 51.851851851851855,178.83597883597884 51.42857142857143,178.2010582010582 51.00529100529101,177.56613756613757 50.58201058201058,177.14285714285717 50.158730158730165,176.50793650793653 49.73544973544974,175.87301587301587 49.31216931216932,175.44973544973547 49.1005291005291,174.81481481481484 48.677248677248684,174.3915343915344 48.25396825396826,173.96825396825398 47.830687830687836,173.33333333333334 47.40740740740741,172.6984126984127 46.98412698412699,172.27513227513228 46.77248677248678,171.64021164021165 46.349206349206355,171.21693121693124 45.92592592592593,170.7936507936508 45.50264550264551,170.15873015873018 45.07936507936508,169.52380952380955 44.65608465608466,169.10052910052912 44.232804232804234,168.46560846560848 43.80952380952381,167.83068783068785 43.386243386243386,167.40740740740742 42.96296296296297,166.7724867724868 42.539682539682545,166.34920634920636 42.11640211640212,165.71428571428572 41.6931216931217,165.0793650793651 41.26984126984127,164.44444444444446 40.84656084656085,164.02116402116403 40.63492063492064,163.3862433862434 40.211640211640216,162.96296296296296 39.78835978835979,162.32804232804233 39.57671957671958,161.6931216931217 39.15343915343916,161.05820105820106 38.730158730158735,160.42328042328043 38.30687830687831,159.7883597883598 38.095238095238095,159.15343915343917 37.67195767195768,158.51851851851853 37.46031746031746,157.8835978835979 37.03703703703704,157.24867724867727 36.82539682539683,156.61375661375664 36.402116402116405,156.1904761904762 36.19047619047619,155.55555555555557 35.97883597883598,154.92063492063494 35.55555555555556,154.2857142857143 35.34391534391535,153.65079365079367 34.920634920634924,153.01587301587304 34.70899470899471,152.38095238095238 34.4973544973545,151.74603174603175 34.28571428571429,151.11111111111111 34.074074074074076,150.47619047619048 33.86243386243387,149.84126984126985 33.65079365079365,149.20634920634922 33.65079365079365,148.57142857142858 33.65079365079365,147.93650793650795 33.65079365079365,147.30158730158732 33.43915343915344,146.66666666666669 33.65079365079365,146.03174603174605 33.65079365079365,145.39682539682542 33.86243386243387,144.76190476190476 34.28571428571429,144.12698412698413 34.4973544973545,143.4920634920635 34.70899470899471,142.85714285714286 35.13227513227513,142.22222222222223 35.34391534391535,141.5873015873016 35.76719576719577,141.16402116402116 36.19047619047619,140.74074074074076 36.613756613756614,140.10582010582013 37.03703703703704,139.47089947089947 37.46031746031746,139.04761904761907 37.883597883597886,138.62433862433863 38.30687830687831,138.2010582010582 38.730158730158735,137.7777777777778 39.15343915343916,137.35449735449737 39.57671957671958,136.93121693121694 40.0,136.5079365079365 40.423280423280424,136.0846560846561 40.84656084656085,135.44973544973547 41.26984126984127,135.02645502645504 41.6931216931217,134.6031746031746 42.11640211640212,134.17989417989418 42.539682539682545,133.75661375661377 42.96296296296297,133.33333333333334 43.386243386243386,132.9100529100529 43.80952380952381,132.4867724867725 44.232804232804234,132.06349206349208 44.65608465608466,131.42857142857144 45.07936507936508,131.005291005291 45.50264550264551,130.58201058201058 45.92592592592593,129.94708994708995 46.349206349206355,129.52380952380955 46.77248677248678,129.10052910052912 47.195767195767196,128.67724867724868 47.61904761904762,128.25396825396825 48.042328042328045,127.83068783068784 48.46560846560847,127.40740740740742 48.88888888888889,126.98412698412699 49.31216931216932,126.56084656084657 49.73544973544974,126.13756613756615 50.158730158730165,125.71428571428572 50.58201058201058,125.2910052910053 51.00529100529101,124.86772486772487 51.42857142857143,124.44444444444446 51.851851851851855,124.02116402116403 52.27513227513228,123.59788359788361 52.6984126984127,122.96296296296298 53.12169312169313,122.53968253968254 53.54497354497355,122.11640211640213 53.968253968253975,121.4814814814815 54.39153439153439,121.05820105820106 54.81481481481482,120.42328042328043 55.23809523809524,119.7883597883598 55.661375661375665,119.36507936507937 56.08465608465609,118.73015873015873 56.50793650793651,118.0952380952381 56.93121693121694,117.46031746031747 57.142857142857146,116.82539682539684 57.35449735449736,116.1904761904762 57.56613756613757,115.55555555555557 57.56613756613757,114.92063492063492 57.56613756613757,114.28571428571429 57.56613756613757,113.65079365079366 57.56613756613757,113.01587301587303 57.35449735449736,112.3809523809524 57.142857142857146,111.74603174603176 57.142857142857146,111.11111111111111 56.93121693121694,110.47619047619048 56.71957671957672,109.84126984126985 56.2962962962963,109.20634920634922 56.08465608465609,108.57142857142858 55.661375661375665,108.14814814814815 55.449735449735456,107.51322751322752 55.02645502645503,107.0899470899471 54.60317460317461,106.66666666666667 54.179894179894184,106.24338624338625 53.75661375661376,105.82010582010582 53.333333333333336,105.3968253968254 52.6984126984127,104.97354497354497 52.06349206349207,104.55026455026456 51.42857142857143,104.12698412698414 50.7936507936508,103.91534391534393 50.158730158730165,103.70370370370371 49.523809523809526,103.4920634920635 48.88888888888889,103.06878306878308 48.25396825396826,103.06878306878308 47.61904761904762,102.85714285714286 46.98412698412699,102.85714285714286 46.349206349206355,102.85714285714286 45.714285714285715,102.64550264550266 45.07936507936508,102.64550264550266 44.44444444444445,102.85714285714286 43.80952380952381,102.85714285714286 43.17460317460318,103.06878306878308 42.539682539682545,103.28042328042329 41.904761904761905,103.4920634920635 41.26984126984127,103.70370370370371 40.63492063492064,104.12698412698414 40.0,104.33862433862434 39.36507936507937,104.76190476190477 38.730158730158735,105.18518518518519 38.095238095238095,105.60846560846562 37.46031746031746,106.03174603174604 36.82539682539683,106.45502645502647 36.402116402116405,106.87830687830689 35.76719576719577,107.3015873015873 35.34391534391535,107.72486772486774 34.920634920634924,108.14814814814815 34.4973544973545,108.57142857142858 34.074074074074076,108.994708994709 33.43915343915344,109.41798941798943 33.01587301587302,109.84126984126985 32.592592592592595,110.47619047619048 32.16931216931217,110.89947089947091 31.746031746031747,111.32275132275133 31.322751322751326,111.74603174603176 30.899470899470902,112.16931216931218 30.476190476190478,112.5925925925926 30.052910052910054,113.01587301587303 29.629629629629633,113.43915343915344 29.20634920634921,113.86243386243387 28.783068783068785,114.28571428571429 28.35978835978836,114.70899470899472 27.93650793650794,115.13227513227514 27.513227513227516,115.55555555555557 27.089947089947092,115.97883597883599 26.455026455026456,116.4021164021164 26.031746031746035,116.82539682539684 25.60846560846561,117.24867724867725 24.973544973544975,117.67195767195768 24.55026455026455,118.0952380952381 23.915343915343918,118.51851851851853 23.280423280423282,118.94179894179895 22.645502645502646,119.36507936507937 22.010582010582013,119.7883597883598 21.375661375661377,120.00000000000001 20.740740740740744,120.00000000000001 20.105820105820108,120.21164021164022 19.47089947089947,120.21164021164022 18.83597883597884,120.21164021164022 18.201058201058203,120.21164021164022 17.566137566137566,119.7883597883598 16.931216931216934,119.36507936507937 16.296296296296298,118.94179894179895 15.873015873015873,118.51851851851853 15.449735449735451,118.0952380952381 15.026455026455027,117.46031746031747 14.603174603174605,116.82539682539684 14.391534391534393,116.1904761904762 14.17989417989418,115.55555555555557 13.96825396825397,114.92063492063492 13.756613756613758,114.28571428571429 13.544973544973546,113.65079365079366 13.333333333333334,113.01587301587303 13.121693121693122,112.3809523809524 12.910052910052912,111.74603174603176 12.910052910052912,111.11111111111111 12.6984126984127,110.47619047619048 12.486772486772487,109.84126984126985 12.063492063492065,109.20634920634922 11.851851851851853,108.57142857142858 11.851851851851853,107.93650793650795 11.640211640211641,107.3015873015873 11.216931216931219,106.66666666666667 11.216931216931219,106.03174603174604 11.005291005291006,105.3968253968254 10.582010582010582,104.76190476190477 10.370370370370372,104.12698412698414 10.15873015873016,103.4920634920635 9.947089947089948,102.85714285714286 9.735449735449736,102.22222222222223 9.312169312169313,101.5873015873016 9.100529100529101,100.95238095238096 8.88888888888889,100.31746031746033 8.677248677248677,99.68253968253968 8.465608465608467,99.04761904761905 8.042328042328043,98.41269841269842 7.830687830687832,97.77777777777779 7.6190476190476195,97.14285714285715 7.195767195767196,96.71957671957672 6.984126984126985,96.08465608465609 6.560846560846561,95.44973544973546 6.34920634920635,94.81481481481482 6.137566137566138,94.17989417989419 5.714285714285714,93.54497354497356 5.502645502645503,92.91005291005291 5.07936507936508,92.27513227513228 4.867724867724868,91.64021164021165 4.444444444444445,91.00529100529101 4.2328042328042335,90.37037037037038 3.8095238095238098,89.73544973544975 3.3862433862433865,89.1005291005291 3.174603174603175,88.46560846560847 2.7513227513227516,87.83068783068784 2.3280423280423284,87.1957671957672 1.9047619047619049,86.56084656084657 1.6931216931216932,85.92592592592594 0.21164021164021166,82.96296296296298" style="fill:none; stroke:#3300bb; stroke-width:1.0"  /><circle cx="0.21164021164021166" cy="82.96296296296298" r="2.0" style="fill:none; stroke:#000000aa; stroke-width:0.25" /><circle cx="114.49735449735451" cy="18.624338624338627" r="2.0" style="fill:none; stroke:#000000aa; stroke-width:0.25" /><circle cx="175.02645502645504" cy="164.8677248677249" r="2.0" style="fill:none; stroke:#000000aa; stroke-width:0.25" /><circle cx="72.5925925925926" cy="211.005291005291" r="2.0" style="fill:none; stroke:#000000aa; stroke-width:0.25" /><circle cx="0.21164021164021166" cy="83.17460317460318" r="2.0" style="fill:none; stroke:#ff3366aa; stroke-width:0.25" /><circle cx="113.65079365079366" cy="19.25925925925926" r="2.0" style="fill:none; stroke:#ff3366aa; stroke-width:0.25" /><circle cx="174.3915343915344" cy="164.65608465608466" r="2.0" style="fill:none; stroke:#ff3366aa; stroke-width:0.25" /><circle cx="72.5925925925926" cy="210.7936507936508" r="2.0" style="fill:none; stroke:#ff3366aa; stroke-width:0.25" /><polyline points="9.100529100529101,75.76719576719577 8.465608465608467,76.19047619047619 8.042328042328043,76.61375661375662 7.407407407407408,76.82539682539684 6.984126984126985,77.24867724867725 6.560846560846561,77.67195767195767 6.137566137566138,78.0952380952381 5.502645502645503,78.51851851851852 4.867724867724868,78.94179894179895 4.444444444444445,79.36507936507937 3.8095238095238098,79.7883597883598 3.3862433862433865,80.21164021164022 2.9629629629629632,80.63492063492065 2.53968253968254,81.05820105820106" style="fill:none; stroke:#001100; stroke-width:1.0" /><polyline points="5.714285714285714,93.54497354497356 5.502645502645503,92.91005291005291 5.07936507936508,92.27513227513228 4.867724867724868,91.64021164021165 4.444444444444445,91.00529100529101 4.2328042328042335,90.37037037037038 3.8095238095238098,89.73544973544975 3.3862433862433865,89.1005291005291 3.174603174603175,88.46560846560847 2.7513227513227516,87.83068783068784 2.3280423280423284,87.1957671957672 1.9047619047619049,86.56084656084657 1.6931216931216932,85.92592592592594" style="fill:none; stroke:#000011; stroke-width:1.0" /><polyline points="119.15343915343917,29.629629629629633 118.94179894179895,28.994708994708997 118.73015873015873,28.35978835978836 118.51851851851853,27.724867724867728 118.30687830687832,27.089947089947092 117.88359788359789,26.666666666666668 117.46031746031747,26.031746031746035 117.24867724867725,25.3968253968254 117.03703703703705,24.761904761904763 116.82539682539684,24.12698412698413 116.61375661375662,23.492063492063494 116.4021164021164,22.857142857142858 115.97883597883599,22.222222222222225 115.76719576719577,21.58730158730159" style="fill:none; stroke:#001100; stroke-width:1.0" /><polyline points="103.70370370370371,25.60846560846561 104.33862433862434,25.185185185185187 104.97354497354497,24.973544973544975 105.3968253968254,24.55026455026455 106.03174603174604,24.12698412698413 106.66666666666667,23.703703703703706 107.3015873015873,23.280423280423282 107.93650793650795,22.857142857142858 108.57142857142858,22.433862433862437 109.20634920634922,22.010582010582013 109.84126984126985,21.7989417989418 110.26455026455027,21.375661375661377 110.89947089947091,20.952380952380953" style="fill:none; stroke:#000011; stroke-width:1.0" /><polyline points="164.65608465608466,171.64021164021165 165.2910052910053,171.21693121693124 165.92592592592595,170.7936507936508 166.56084656084658,170.37037037037038 167.19576719576722,169.94708994708995 167.61904761904762,169.52380952380955 168.25396825396825,169.31216931216932 168.8888888888889,168.8888888888889 169.52380952380955,168.46560846560848 169.94708994708995,168.04232804232805 170.58201058201058,167.61904761904762 171.21693121693124,167.40740740740742 171.85185185185188,166.984126984127" style="fill:none; stroke:#001100; stroke-width:1.0" /><polyline points="168.46560846560848,154.92063492063494 168.8888888888889,155.55555555555557 169.31216931216932,156.1904761904762 169.73544973544975,156.82539682539684 169.94708994708995,157.46031746031747 170.37037037037038,157.8835978835979 170.7936507936508,158.51851851851853 171.21693121693124,159.15343915343917 171.64021164021165,159.7883597883598 172.06349206349208,160.21164021164023 172.27513227513228,160.84656084656086 172.6984126984127,161.2698412698413 173.12169312169314,161.90476190476193" style="fill:none; stroke:#000011; stroke-width:1.0" /><polyline points="66.24338624338625,200.63492063492066 66.66666666666667,201.2698412698413 67.08994708994709,201.6931216931217 67.51322751322752,202.32804232804233 67.93650793650794,202.75132275132276 68.14814814814815,203.3862433862434 68.57142857142858,204.02116402116403 68.994708994709,204.65608465608466 69.20634920634922,205.29100529100532 69.62962962962963,205.92592592592595 69.84126984126985,206.56084656084658 70.26455026455027,207.19576719576722 70.6878306878307,207.83068783068785" style="fill:none; stroke:#001100; stroke-width:1.0" /><polyline points="83.59788359788361,206.984126984127 82.96296296296298,207.19576719576722 82.32804232804233,207.40740740740742 81.6931216931217,207.61904761904765 81.05820105820106,207.83068783068785 80.42328042328043,208.04232804232805 79.7883597883598,208.25396825396828 79.15343915343917,208.46560846560848 78.51851851851852,208.67724867724868 77.88359788359789,208.8888888888889 77.24867724867725,209.10052910052912 76.61375661375662,209.52380952380955 75.97883597883599,209.73544973544975" style="fill:none; stroke:#000011; stroke-width:1.0" /><polyline points="2.53968253968254,81.05820105820106 -13.96825396825397,94.39153439153439" style="fill:none; stroke:#ffaa00; stroke-width:0.4" /><polyline points="1.6931216931216932,85.92592592592594 -8.253968253968255,67.3015873015873" style="fill:none; stroke:#aaff00; stroke-width:0.4" /><polyline points="115.76719576719577,21.58730158730159 107.51322751322752,2.1164021164021167" style="fill:none; stroke:#ffaa00; stroke-width:0.4" /><polyline points="110.89947089947091,20.952380952380953 128.67724867724868,9.523809523809524" style="fill:none; stroke:#aaff00; stroke-width:0.4" /><polyline points="171.85185185185188,166.984126984127 189.62962962962965,155.55555555555557" style="fill:none; stroke:#ffaa00; stroke-width:0.4" /><polyline points="173.12169312169314,161.90476190476193 184.7619047619048,179.4708994708995" style="fill:none; stroke:#aaff00; stroke-width:0.4" /><polyline points="70.6878306878307,207.83068783068785 81.90476190476191,225.82010582010582" style="fill:none; stroke:#ffaa00; stroke-width:0.4" /><polyline points="75.97883597883599,209.73544973544975 56.08465608465609,216.93121693121694" style="fill:none; stroke:#aaff00; stroke-width:0.4" /><circle cx="89.31216931216932" cy="106.03174603174604" r="1.0" style="fill:#444444; stroke-width:0" /><circle cx="88.8888888888889" cy="76.82539682539684" r="10.582010582010582" style="fill:#ff770022; stroke-width:0" /><circle cx="88.8888888888889" cy="76.82539682539684" r="1.0" style="fill:#ff7700; stroke-width:0" /></svg>