<?xml version="1.0" encoding="UTF-8" standalone="no"?><svg width="534.6031746031747" height="663.4920634920635" viewBox="-10 -10 198.2010582010582 241.1640211640212" xmlns="http://www.w3.org/2000/svg" xmlns:xlink="http://www.w3.org/1999/xlink"><polyline points="68.14814814814815,0.21164021164021166 71.11111111111111,1.6931216931216932 71.74603174603175,1.9047619047619049 72.38095238095238,2.1164021164021167 73.01587301587303,2.53968253968254 73.65079365079366,2.7513227513227516 74.28571428571429,3.174603174603175 74.92063492063492,3.3862433862433865 75.55555555555556,3.8095238095238098 76.19047619047619,4.021164021164021 76.82539682539684,4.444444444444445 77.46031746031747,4.867724867724868 78.0952380952381,5.07936507936508 78.73015873015873,5.502645502645503 79.36507936507937,5.714285714285714 79.7883597883598,6.137566137566138 80.42328042328043,6.560846560846561 81.05820105820106,6.772486772486773 81.48148148148148,7.195767195767196 82.11640211640213,7.407407407407408 82.75132275132276,7.830687830687832 83.17460317460318,8.253968253968255 83.59788359788361,8.677248677248677 84.23280423280424,9.100529100529101 84.65608465608466,9.523809523809524 85.07936507936509,9.947089947089948 85.5026455026455,10.582010582010582 85.92592592592594,11.005291005291006 86.34920634920636,11.428571428571429 86.77248677248677,12.063492063492065 87.1957671957672,12.486772486772487 87.61904761904762,13.121693121693122 88.04232804232805,13.756613756613758 88.46560846560847,14.391534391534393 88.8888888888889,15.026455026455027 89.1005291005291,15.661375661375663 89.52380952380953,16.084656084656086 89.94708994708995,16.71957671957672 90.15873015873017,17.354497354497354 90.37037037037038,17.98941798941799 90.58201058201058,18.624338624338627 90.7936507936508,19.25925925925926 90.7936507936508,19.894179894179896 91.00529100529101,20.529100529100532 91.00529100529101,21.164021164021165 91.00529100529101,21.7989417989418 91.00529100529101,22.433862433862437 91.00529100529101,23.06878306878307 90.7936507936508,23.703703703703706 90.7936507936508,24.338624338624342 90.58201058201058,24.973544973544975 90.37037037037038,25.60846560846561 90.15873015873017,26.243386243386244 89.94708994708995,26.87830687830688 89.52380952380953,27.513227513227516 89.31216931216932,28.14814814814815 88.8888888888889,28.783068783068785 88.46560846560847,29.41798941798942 88.04232804232805,29.841269841269842 87.61904761904762,30.476190476190478 87.1957671957672,31.111111111111114 86.77248677248677,31.53439153439154 86.34920634920636,32.16931216931217 85.92592592592594,32.592592592592595 85.5026455026455,33.22751322751323 85.07936507936509,33.65079365079365 84.65608465608466,34.074074074074076 84.23280423280424,34.70899470899471 83.80952380952381,35.13227513227513 83.3862433862434,35.76719576719577 82.96296296296298,36.19047619047619 82.53968253968254,36.613756613756614 82.11640211640213,37.03703703703704 81.6931216931217,37.46031746031746 81.26984126984128,38.095238095238095 80.84656084656085,38.51851851851852 80.42328042328043,38.94179894179894 80.0,39.36507936507937 79.57671957671958,39.78835978835979 79.15343915343917,40.211640211640216 78.73015873015873,40.63492063492064 78.30687830687832,41.058201058201064 77.88359788359789,41.48148148148149 77.46031746031747,41.904761904761905 77.03703703703704,42.539682539682545 76.61375661375662,42.96296296296297 76.19047619047619,43.5978835978836 75.76719576719577,44.021164021164026 75.34391534391536,44.65608465608466 74.92063492063492,45.07936507936508 74.70899470899471,45.714285714285715 74.28571428571429,46.13756613756614 73.86243386243387,46.77248677248678 73.65079365079366,47.40740740740741 73.22751322751323,48.042328042328045 73.01587301587303,48.677248677248684 72.5925925925926,49.31216931216932 72.38095238095238,49.94708994708995 71.95767195767196,50.58201058201058 71.74603174603175,51.21693121693122 71.53439153439155,51.851851851851855 71.32275132275133,52.48677248677249 71.11111111111111,53.12169312169313 70.8994708994709,53.75661375661376 70.6878306878307,54.39153439153439 70.47619047619048,55.02645502645503 70.26455026455027,55.661375661375665 70.26455026455027,56.2962962962963 70.05291005291006,56.93121693121694 69.84126984126985,57.56613756613757 69.84126984126985,58.2010582010582 69.62962962962963,58.83597883597884 69.62962962962963,59.470899470899475 69.62962962962963,60.10582010582011 69.41798941798942,60.74074074074075 69.41798941798942,61.37566137566138 69.41798941798942,62.01058201058201 69.41798941798942,62.64550264550265 69.41798941798942,63.280423280423285 69.20634920634922,63.91534391534392 69.41798941798942,64.55026455026456 69.41798941798942,65.18518518518519 69.41798941798942,65.82010582010582 69.41798941798942,66.45502645502646 69.41798941798942,67.08994708994709 69.41798941798942,67.72486772486774 69.62962962962963,68.35978835978837 69.62962962962963,68.994708994709 69.84126984126985,69.62962962962963 69.84126984126985,70.26455026455027 70.05291005291006,70.8994708994709 70.26455026455027,71.53439153439155 70.47619047619048,72.16931216931218 70.6878306878307,72.80423280423281 70.8994708994709,73.43915343915344 71.11111111111111,74.07407407407408 71.32275132275133,74.70899470899471 71.74603174603175,75.34391534391536 72.16931216931218,75.97883597883599 72.38095238095238,76.61375661375662 72.80423280423281,77.24867724867725 73.22751322751323,77.67195767195767 73.65079365079366,78.0952380952381 74.07407407407408,78.73015873015873 74.49735449735451,79.15343915343917 74.92063492063492,79.7883597883598 75.34391534391536,80.21164021164022 75.76719576719577,80.63492063492065 76.19047619047619,81.05820105820106 76.61375661375662,81.48148148148148 77.03703703703704,81.90476190476191 77.67195767195767,82.32804232804233 78.0952380952381,82.75132275132276 78.73015873015873,83.17460317460318 79.36507936507937,83.59788359788361 80.0,84.02116402116403 80.63492063492065,84.44444444444446 81.26984126984128,84.65608465608466 81.90476190476191,85.07936507936509 82.53968253968254,85.29100529100529 83.17460317460318,85.5026455026455 83.80952380952381,85.92592592592594 84.44444444444446,86.13756613756614 85.07936507936509,86.34920634920636 85.71428571428572,86.34920634920636 86.34920634920636,86.56084656084657 86.77248677248677,86.98412698412699 87.40740740740742,86.98412698412699 88.04232804232805,87.1957671957672 88.67724867724868,87.40740740740742 89.31216931216932,87.40740740740742 89.94708994708995,87.40740740740742 90.58201058201058,87.61904761904762 91.21693121693123,87.61904761904762 91.85185185185186,87.83068783068784 92.4867724867725,88.04232804232805 93.12169312169313,88.04232804232805 93.75661375661376,88.04232804232805 94.39153439153439,88.25396825396827 95.02645502645504,88.25396825396827 95.66137566137567,88.25396825396827 96.2962962962963,88.25396825396827 96.93121693121694,88.25396825396827 97.56613756613757,88.46560846560847 98.2010582010582,88.46560846560847 98.83597883597885,88.25396825396827 99.47089947089948,88.25396825396827 100.10582010582011,88.25396825396827 100.74074074074075,88.04232804232805 101.37566137566138,88.04232804232805 102.01058201058201,87.83068783068784 102.64550264550266,87.61904761904762 103.28042328042329,87.40740740740742 103.91534391534393,87.1957671957672 104.55026455026456,86.98412698412699 105.18518518518519,86.77248677248677 105.82010582010582,86.56084656084657 106.45502645502647,86.34920634920636 107.0899470899471,86.13756613756614 107.72486772486774,85.71428571428572 108.35978835978837,85.5026455026455 108.994708994709,85.07936507936509 109.62962962962963,84.86772486772487 110.05291005291006,84.44444444444446 110.6878306878307,84.23280423280424 111.32275132275133,84.02116402116403 111.95767195767196,83.59788359788361 112.5925925925926,83.3862433862434 113.01587301587303,82.96296296296298 113.43915343915344,82.53968253968254 114.07407407407408,82.11640211640213 114.49735449735451,81.6931216931217 114.92063492063492,81.26984126984128 115.34391534391536,80.84656084656085 115.76719576719577,80.42328042328043 116.1904761904762,79.7883597883598 116.61375661375662,79.15343915343917 116.82539682539684,78.51851851851852 117.24867724867725,77.88359788359789 117.46031746031747,77.24867724867725 117.46031746031747,76.61375661375662 117.67195767195768,75.97883597883599 117.88359788359789,75.34391534391536 117.88359788359789,74.70899470899471 118.0952380952381,74.07407407407408 118.30687830687832,73.43915343915344 118.51851851851853,72.80423280423281 118.51851851851853,72.16931216931218 118.51851851851853,71.53439153439155 118.73015873015873,70.8994708994709 118.73015873015873,70.26455026455027 118.94179894179895,69.62962962962963 118.94179894179895,68.994708994709 118.94179894179895,68.35978835978837 119.15343915343917,67.72486772486774 119.15343915343917,67.08994708994709 119.15343915343917,66.45502645502646 119.36507936507937,65.82010582010582 119.36507936507937,65.18518518518519 119.57671957671958,64.55026455026456 119.57671957671958,63.91534391534392 119.57671957671958,63.280423280423285 119.57671957671958,62.64550264550265 119.57671957671958,62.01058201058201 119.57671957671958,61.37566137566138 119.57671957671958,60.74074074074075 119.57671957671958,60.10582010582011 119.57671957671958,59.470899470899475 120.00000000000001,58.83597883597884 119.7883597883598,58.2010582010582 119.7883597883598,57.56613756613757 119.7883597883598,56.93121693121694 119.7883597883598,56.2962962962963 119.7883597883598,55.661375661375665 119.7883597883598,55.02645502645503 119.7883597883598,54.39153439153439 119.57671957671958,53.75661375661376 119.57671957671958,53.12169312169313 119.57671957671958,52.48677248677249 119.36507936507937,51.851851851851855 119.15343915343917,51.21693121693122 119.15343915343917,50.58201058201058 118.94179894179895,49.94708994708995 118.94179894179895,49.31216931216932 118.73015873015873,48.677248677248684 118.30687830687832,48.042328042328045 118.0952380952381,47.40740740740741 118.30687830687832,46.77248677248678 118.0952380952381,46.13756613756614 118.0952380952381,45.50264550264551 117.67195767195768,44.867724867724874 117.46031746031747,44.232804232804234 117.46031746031747,43.5978835978836 117.24867724867725,42.96296296296297 117.03703703703705,42.32804232804233 116.82539682539684,41.6931216931217 116.82539682539684,41.058201058201064 116.61375661375662,40.423280423280424 116.61375661375662,39.78835978835979 116.61375661375662,39.15343915343916 116.61375661375662,38.51851851851852 116.61375661375662,37.883597883597886 116.82539682539684,37.248677248677254 116.82539682539684,36.613756613756614 117.03703703703705,35.97883597883598 117.24867724867725,35.34391534391535 117.67195767195768,34.70899470899471 117.88359788359789,34.074074074074076 118.30687830687832,33.65079365079365 118.73015873015873,33.22751322751323 119.15343915343917,32.804232804232804 119.57671957671958,32.38095238095239 120.00000000000001,31.95767195767196 120.63492063492065,31.53439153439154 121.05820105820106,31.111111111111114 121.6931216931217,30.899470899470902 122.32804232804234,30.68783068783069 122.96296296296298,30.476190476190478 123.59788359788361,30.476190476190478 124.23280423280424,30.476190476190478 124.65608465608466,30.052910052910054 125.2910052910053,30.052910052910054 125.92592592592594,30.052910052910054 126.56084656084657,30.052910052910054 127.1957671957672,30.052910052910054 127.83068783068784,30.052910052910054 128.46560846560848,30.052910052910054 129.10052910052912,30.052910052910054 129.73544973544975,30.052910052910054 130.37037037037038,30.052910052910054 131.005291005291,30.052910052910054 131.64021164021165,30.264550264550266 132.27513227513228,30.264550264550266 132.9100529100529,30.264550264550266 133.54497354497354,30.264550264550266 134.17989417989418,30.476190476190478 134.81481481481484,30.68783068783069 135.44973544973547,30.68783068783069 136.0846560846561,30.899470899470902 136.71957671957674,30.899470899470902 137.35449735449737,31.111111111111114 137.989417989418,31.322751322751326 138.62433862433863,31.53439153439154 139.25925925925927,31.53439153439154 139.8941798941799,31.95767195767196 140.52910052910053,32.16931216931217 141.16402116402116,32.38095238095239 141.7989417989418,32.38095238095239 142.43386243386246,32.804232804232804 143.0687830687831,33.01587301587302 143.70370370370372,33.01587301587302 144.33862433862436,33.22751322751323 144.973544973545,33.65079365079365 145.60846560846562,33.86243386243387 146.24338624338625,34.074074074074076 146.8783068783069,34.28571428571429 147.51322751322752,34.4973544973545 148.14814814814815,34.70899470899471 148.78306878306879,35.13227513227513 149.41798941798942,35.34391534391535 150.05291005291005,35.55555555555556 150.6878306878307,35.76719576719577 151.32275132275134,35.97883597883598 151.95767195767198,36.402116402116405 152.5925925925926,36.613756613756614 153.22751322751324,36.82539682539683 153.86243386243387,37.03703703703704 154.4973544973545,37.46031746031746 155.13227513227514,37.67195767195768 155.76719576719577,37.883597883597886 156.4021164021164,38.095238095238095 157.03703703703704,38.51851851851852 157.67195767195767,38.730158730158735 158.30687830687833,38.94179894179894 158.94179894179896,39.36507936507937 159.5767195767196,39.36507936507937 160.21164021164023,39.57671957671958 160.84656084656086,39.78835978835979 161.4814814814815,40.211640211640216 162.11640211640213,40.423280423280424 162.75132275132276,40.63492063492064 163.3862433862434,41.058201058201064 164.02116402116403,41.26984126984127 164.65608465608466,41.6931216931217 165.2910052910053,41.904761904761905 165.92592592592595,42.11640211640212 166.56084656084658,42.539682539682545 167.19576719576722,42.75132275132275 167.83068783068785,42.96296296296297 168.46560846560848,43.386243386243386 169.10052910052912,43.5978835978836 169.52380952380955,44.021164021164026 170.15873015873018,44.232804232804234 170.7936507936508,44.65608465608466 171.42857142857144,44.867724867724874 171.85185185185188,45.29100529100529 172.4867724867725,45.50264550264551 173.12169312169314,45.92592592592593 173.75661375661377,46.13756613756614 174.3915343915344,46.560846560846564 175.02645502645504,46.77248677248678 177.989417989418,48.25396825396826" style="fill:none; stroke:#cc0000; stroke-width:1.0"  /><polyline points="177.989417989418,48.25396825396826 176.2962962962963,51.640211640211646 176.0846560846561,52.27513227513228 175.66137566137567,52.91005291005291 175.23809523809524,53.54497354497355 175.02645502645504,54.179894179894184 174.6031746031746,54.81481481481482 174.3915343915344,55.449735449735456 173.96825396825398,56.08465608465609 173.75661375661377,56.71957671957672 173.33333333333334,57.35449735449736 173.12169312169314,57.989417989417994 172.6984126984127,58.62433862433863 172.4867724867725,59.25925925925927 172.06349206349208,59.8941798941799 171.85185185185188,60.52910052910053 171.42857142857144,61.16402116402117 171.21693121693124,61.798941798941804 171.005291005291,62.43386243386244 170.58201058201058,63.06878306878308 170.37037037037038,63.70370370370371 169.94708994708995,64.33862433862434 169.73544973544975,64.97354497354497 169.31216931216932,65.60846560846561 169.10052910052912,66.24338624338625 168.67724867724868,66.87830687830689 168.46560846560848,67.51322751322752 168.04232804232805,68.14814814814815 167.83068783068785,68.78306878306879 167.61904761904762,69.41798941798942 167.19576719576722,70.05291005291006 166.984126984127,70.6878306878307 166.7724867724868,71.32275132275133 166.34920634920636,71.95767195767196 165.92592592592595,72.5925925925926 165.71428571428572,73.22751322751323 165.2910052910053,73.86243386243387 165.0793650793651,74.49735449735451 164.8677248677249,75.13227513227514 164.44444444444446,75.76719576719577 164.23280423280426,76.4021164021164 164.02116402116403,77.03703703703704 163.80952380952382,77.67195767195767 163.3862433862434,78.30687830687832 163.1746031746032,78.94179894179895 162.96296296296296,79.57671957671958 162.53968253968256,80.21164021164022 162.32804232804233,80.84656084656085 161.90476190476193,81.48148148148148 161.6931216931217,82.11640211640213 161.4814814814815,82.75132275132276 161.05820105820106,83.3862433862434 160.63492063492066,84.02116402116403 160.42328042328043,84.65608465608466 160.21164021164023,85.29100529100529 159.7883597883598,85.71428571428572 159.5767195767196,86.34920634920636 159.36507936507937,86.98412698412699 159.15343915343917,87.61904761904762 158.73015873015873,88.25396825396827 158.51851851851853,88.8888888888889 158.0952380952381,89.52380952380953 157.8835978835979,90.15873015873017 157.46031746031747,90.7936507936508 157.24867724867727,91.42857142857143 156.82539682539684,92.06349206349208 156.61375661375664,92.69841269841271 156.1904761904762,93.33333333333334 155.978835978836,93.96825396825398 155.76719576719577,94.60317460317461 155.34391534391534,95.23809523809524 155.13227513227514,95.87301587301587 154.7089947089947,96.50793650793652 154.2857142857143,97.14285714285715 154.07407407407408,97.77777777777779 153.86243386243387,98.41269841269842 153.43915343915344,99.04761904761905 153.22751322751324,99.68253968253968 152.8042328042328,100.31746031746033 152.5925925925926,100.95238095238096 152.16931216931218,101.5873015873016 151.95767195767198,102.22222222222223 151.53439153439155,102.64550264550266 151.32275132275134,103.28042328042329 151.11111111111111,103.91534391534393 150.6878306878307,104.55026455026456 150.47619047619048,105.18518518518519 150.05291005291005,105.82010582010582 149.84126984126985,106.45502645502647 149.41798941798942,107.0899470899471 149.20634920634922,107.72486772486774 148.78306878306879,108.35978835978837 148.57142857142858,108.994708994709 148.35978835978838,109.62962962962963 147.93650793650795,110.26455026455027 147.72486772486775,110.89947089947091 147.30158730158732,111.32275132275133 147.0899470899471,111.95767195767196 146.8783068783069,112.5925925925926 146.66666666666669,113.22751322751324 146.45502645502646,113.86243386243387 146.24338624338625,114.49735449735451 145.82010582010582,114.92063492063492 145.60846560846562,115.55555555555557 145.1851851851852,116.1904761904762 144.973544973545,116.82539682539684 144.55026455026456,117.46031746031747 144.33862433862436,118.0952380952381 144.12698412698413,118.73015873015873 143.70370370370372,119.36507936507937 143.4920634920635,120.00000000000001 143.0687830687831,120.63492063492065 142.85714285714286,121.26984126984128 142.64550264550266,121.90476190476191 142.22222222222223,122.53968253968254 142.01058201058203,123.17460317460318 141.5873015873016,123.80952380952382 141.3756613756614,124.44444444444446 140.95238095238096,125.07936507936509 140.74074074074076,125.71428571428572 140.52910052910053,126.34920634920636 140.10582010582013,126.98412698412699 139.8941798941799,127.61904761904763 139.47089947089947,128.25396825396825 139.04761904761907,128.88888888888889 138.83597883597884,129.52380952380955 138.62433862433863,130.15873015873018 138.2010582010582,130.7936507936508 137.989417989418,131.42857142857144 137.56613756613757,132.06349206349208 137.35449735449737,132.6984126984127 137.14285714285717,133.33333333333334 136.71957671957674,133.96825396825398 136.5079365079365,134.6031746031746 136.0846560846561,135.23809523809524 135.87301587301587,135.87301587301587 135.44973544973547,136.5079365079365 135.23809523809524,137.14285714285717 134.81481481481484,137.7777777777778 134.6031746031746,138.41269841269843 134.3915343915344,139.04761904761907 133.96825396825398,139.6825396825397 133.54497354497354,140.31746031746033 133.33333333333334,140.95238095238096 132.9100529100529,141.5873015873016 132.6984126984127,142.22222222222223 132.4867724867725,142.85714285714286 132.06349206349208,143.4920634920635 131.85185185185185,144.12698412698413 131.42857142857144,144.76190476190476 131.21693121693121,145.39682539682542 130.7936507936508,146.03174603174605 130.58201058201058,146.66666666666669 130.58201058201058,147.30158730158732 130.15873015873018,147.93650793650795 129.94708994708995,148.57142857142858 129.52380952380955,149.20634920634922 129.31216931216932,149.84126984126985 128.88888888888889,150.47619047619048 128.67724867724868,151.11111111111111 128.25396825396825,151.74603174603175 128.04232804232805,152.38095238095238 127.83068783068784,153.01587301587304 127.40740740740742,153.65079365079367 127.1957671957672,154.2857142857143 126.98412698412699,154.92063492063494 126.56084656084657,155.34391534391534 126.34920634920636,155.978835978836 126.13756613756615,156.61375661375664 125.71428571428572,157.24867724867727 125.5026455026455,157.8835978835979 125.07936507936509,158.51851851851853 124.86772486772487,159.15343915343917 124.65608465608466,159.7883597883598 124.44444444444446,160.42328042328043 124.02116402116403,161.05820105820106 123.80952380952382,161.6931216931217 123.3862433862434,162.32804232804233 123.17460317460318,162.96296296296296 122.75132275132276,163.59788359788362 122.53968253968254,164.23280423280426 122.11640211640213,164.8677248677249 121.90476190476191,165.50264550264552 121.4814814814815,166.13756613756615 121.26984126984128,166.7724867724868 121.05820105820106,167.40740740740742 120.63492063492065,168.04232804232805 120.42328042328043,168.67724867724868 120.00000000000001,169.31216931216932 119.7883597883598,169.94708994708995 119.36507936507937,170.58201058201058 119.15343915343917,171.21693121693124 118.73015873015873,171.85185185185188 118.51851851851853,172.4867724867725 118.30687830687832,173.12169312169314 117.88359788359789,173.75661375661377 117.67195767195768,174.3915343915344 117.24867724867725,175.02645502645504 117.03703703703705,175.66137566137567 116.82539682539684,176.2962962962963 116.4021164021164,176.93121693121694 116.1904761904762,177.56613756613757 115.97883597883599,178.2010582010582 115.55555555555557,178.83597883597884 114.07407407407408,182.01058201058203" style="fill:none; stroke:#999900; stroke-width:3.0" stroke-dasharray="6,3" /><polyline points="114.07407407407408,182.01058201058203 110.89947089947091,179.8941798941799 110.47619047619048,179.4708994708995 109.84126984126985,179.04761904761907 109.20634920634922,178.62433862433863 108.57142857142858,178.2010582010582 107.93650793650795,177.7777777777778 107.3015873015873,177.35449735449737 106.66666666666667,176.93121693121694 106.03174603174604,176.50793650793653 105.3968253968254,176.2962962962963 104.97354497354497,175.87301587301587 104.33862433862434,175.44973544973547 103.70370370370371,175.23809523809524 103.28042328042329,174.81481481481484 102.64550264550266,174.6031746031746 102.01058201058201,174.1798941798942 101.37566137566138,173.75661375661377 100.74074074074075,173.33333333333334 100.10582010582011,173.12169312169314 99.47089947089948,172.6984126984127 98.83597883597885,172.4867724867725 98.41269841269842,172.06349206349208 97.77777777777779,171.85185185185188 97.14285714285715,171.42857142857144 96.50793650793652,171.21693121693124 95.87301587301587,170.7936507936508 95.23809523809524,170.58201058201058 94.60317460317461,170.37037037037038 93.96825396825398,169.94708994708995 93.33333333333334,169.73544973544975 92.69841269841271,169.52380952380955 92.06349206349208,169.31216931216932 91.42857142857143,168.8888888888889 90.7936507936508,168.8888888888889 90.37037037037038,168.46560846560848 89.73544973544975,168.67724867724868 89.1005291005291,168.46560846560848 88.46560846560847,168.04232804232805 87.83068783068784,167.83068783068785 87.1957671957672,167.61904761904762 86.56084656084657,167.40740740740742 85.92592592592594,167.19576719576722 85.29100529100529,167.19576719576722 84.65608465608466,166.984126984127 84.02116402116403,166.7724867724868 83.3862433862434,166.56084656084658 82.75132275132276,166.34920634920636 82.11640211640213,166.13756613756615 81.48148148148148,166.13756613756615 80.84656084656085,165.92592592592595 80.21164021164022,165.71428571428572 79.57671957671958,165.50264550264552 78.94179894179895,165.2910052910053 78.30687830687832,165.2910052910053 77.67195767195767,165.0793650793651 77.03703703703704,164.8677248677249 76.4021164021164,164.8677248677249 75.76719576719577,164.65608465608466 75.13227513227514,164.44444444444446 74.49735449735451,164.23280423280426 73.86243386243387,164.23280423280426 73.22751322751323,164.02116402116403 72.5925925925926,164.02116402116403 71.95767195767196,164.02116402116403 71.32275132275133,163.80952380952382 70.6878306878307,163.80952380952382 70.05291005291006,163.80952380952382 69.41798941798942,164.02116402116403 68.78306878306879,164.02116402116403 68.14814814814815,164.23280423280426 67.51322751322752,164.44444444444446 66.87830687830689,164.65608465608466 66.24338624338625,164.8677248677249 65.60846560846561,165.0793650793651 64.97354497354497,165.2910052910053 64.33862433862434,165.71428571428572 63.70370370370371,165.92592592592595 63.06878306878308,166.34920634920636 62.43386243386244,166.7724867724868 61.798941798941804,166.984126984127 61.37566137566138,167.40740740740742 60.952380952380956,167.83068783068785 60.52910052910053,168.25396825396825 60.10582010582011,168.67724867724868 59.682539682539684,169.10052910052912 59.25925925925927,169.73544973544975 59.04761904761905,170.37037037037038 58.83597883597884,171.005291005291 58.62433862433863,171.64021164021165 58.2010582010582,172.27513227513228 58.2010582010582,172.9100529100529 57.989417989417994,173.54497354497354 57.989417989417994,174.1798941798942 57.989417989417994,174.81481481481484 57.989417989417994,175.44973544973547 57.989417989417994,176.0846560846561 57.989417989417994,176.71957671957674 57.989417989417994,177.35449735449737 57.989417989417994,177.989417989418 58.2010582010582,178.62433862433863 58.41269841269842,179.25925925925927 58.41269841269842,179.8941798941799 58.62433862433863,180.52910052910053 58.83597883597884,181.16402116402116 59.04761904761905,181.79894179894183 59.470899470899475,182.43386243386246 59.682539682539684,183.0687830687831 59.8941798941799,183.70370370370372 60.10582010582011,184.33862433862436 60.31746031746032,184.973544973545 60.52910052910053,185.60846560846562 60.74074074074075,186.24338624338625 60.952380952380956,186.8783068783069 60.952380952380956,187.51322751322752 61.16402116402117,188.14814814814815 61.16402116402117,188.78306878306879 61.37566137566138,189.41798941798945 61.37566137566138,190.05291005291008 61.58730158730159,190.6878306878307 61.58730158730159,191.32275132275134 61.798941798941804,191.95767195767198 61.798941798941804,192.5925925925926 61.798941798941804,193.22751322751324 61.798941798941804,193.86243386243387 61.798941798941804,194.4973544973545 62.01058201058201,195.13227513227514 62.01058201058201,195.76719576719577 62.01058201058201,196.4021164021164 62.01058201058201,197.03703703703704 62.01058201058201,197.6719576719577 62.01058201058201,198.30687830687833 61.798941798941804,198.94179894179896 61.798941798941804,199.5767195767196 61.798941798941804,200.21164021164023 61.798941798941804,200.84656084656086 61.798941798941804,201.4814814814815 61.798941798941804,202.11640211640213 61.58730158730159,202.75132275132276 61.58730158730159,203.3862433862434 61.58730158730159,204.02116402116403 61.58730158730159,204.65608465608466 61.58730158730159,205.29100529100532 61.37566137566138,205.92592592592595 61.37566137566138,206.56084656084658 61.37566137566138,207.19576719576722 61.16402116402117,207.83068783068785 61.16402116402117,208.46560846560848 60.952380952380956,209.10052910052912 60.74074074074075,209.73544973544975 60.74074074074075,210.37037037037038 60.31746031746032,211.005291005291 59.8941798941799,211.64021164021165 59.470899470899475,212.27513227513228 59.04761904761905,212.6984126984127 58.62433862433863,213.12169312169314 58.2010582010582,213.54497354497357 57.777777777777786,213.96825396825398 57.142857142857146,214.3915343915344 56.71957671957672,214.81481481481484 56.08465608465609,215.23809523809524 55.449735449735456,215.66137566137567 55.02645502645503,216.0846560846561 54.60317460317461,216.50793650793653 53.968253968253975,216.93121693121694 53.333333333333336,217.35449735449737 52.6984126984127,217.7777777777778 52.06349206349207,217.989417989418 51.42857142857143,218.41269841269843 50.7936507936508,218.62433862433863 50.158730158730165,218.83597883597886 49.523809523809526,219.04761904761907 48.88888888888889,219.25925925925927 48.25396825396826,219.4708994708995 47.61904761904762,219.6825396825397 46.98412698412699,219.8941798941799 46.349206349206355,220.10582010582013 45.714285714285715,220.31746031746033 45.07936507936508,220.31746031746033 44.44444444444445,220.52910052910053 43.80952380952381,220.52910052910053 43.17460317460318,220.74074074074076 42.539682539682545,220.74074074074076 41.904761904761905,220.74074074074076 41.26984126984127,220.74074074074076 40.63492063492064,220.74074074074076 40.0,220.74074074074076 39.36507936507937,220.74074074074076 38.730158730158735,220.74074074074076 38.095238095238095,220.74074074074076 37.46031746031746,220.74074074074076 36.82539682539683,220.52910052910053 36.19047619047619,220.52910052910053 35.55555555555556,220.31746031746033 34.920634920634924,220.31746031746033 34.28571428571429,220.10582010582013 33.65079365079365,219.8941798941799 33.01587301587302,219.8941798941799 32.38095238095239,219.6825396825397 31.746031746031747,219.4708994708995 31.111111111111114,219.25925925925927 30.476190476190478,219.04761904761907 29.841269841269842,218.83597883597886 29.20634920634921,218.62433862433863 28.571428571428573,218.20105820105823 27.93650793650794,217.989417989418 27.301587301587304,217.7777777777778 26.666666666666668,217.35449735449737 26.031746031746035,217.35449735449737 25.3968253968254,216.93121693121694 24.761904761904763,216.71957671957674 24.338624338624342,216.2962962962963 23.703703703703706,215.8730158730159 23.06878306878307,215.44973544973547 22.433862433862437,215.23809523809524 22.010582010582013,214.81481481481484 21.58730158730159,214.3915343915344 21.164021164021165,213.96825396825398 20.740740740740744,213.54497354497357 20.31746031746032,213.12169312169314 19.682539682539684,212.91005291005294 19.25925925925926,212.27513227513228 18.83597883597884,211.64021164021165 18.412698412698415,211.005291005291 17.98941798941799,210.5820105820106 17.566137566137566,209.94708994708995 17.354497354497354,209.31216931216932 16.931216931216934,208.67724867724868 16.71957671957672,208.04232804232805 16.296296296296298,207.40740740740742 16.084656084656086,206.7724867724868 15.873015873015873,206.13756613756615 15.661375661375663,205.50264550264552 15.449735449735451,204.8677248677249 15.449735449735451,204.23280423280426 15.238095238095239,203.59788359788362 15.026455026455027,202.962962962963 15.026455026455027,202.32804232804233 15.026455026455027,201.6931216931217 14.814814814814817,201.05820105820106 14.814814814814817,200.42328042328043 14.814814814814817,199.7883597883598 14.814814814814817,199.15343915343917 14.814814814814817,198.51851851851853 14.814814814814817,197.8835978835979 14.814814814814817,197.24867724867727 14.814814814814817,196.61375661375664 14.814814814814817,195.978835978836 14.814814814814817,195.34391534391537 15.026455026455027,194.70899470899474 15.026455026455027,194.07407407407408 15.026455026455027,193.43915343915344 15.238095238095239,192.8042328042328 15.449735449735451,192.16931216931218 15.449735449735451,191.53439153439155 15.661375661375663,190.8994708994709 15.873015873015873,190.26455026455028 16.084656084656086,189.62962962962965 16.084656084656086,188.99470899470901 16.296296296296298,188.35978835978838 16.50793650793651,187.72486772486775 16.71957671957672,187.08994708994712 17.142857142857146,186.45502645502646 17.354497354497354,185.82010582010582 17.566137566137566,185.1851851851852 17.98941798941799,184.55026455026456 18.412698412698415,183.91534391534393 18.624338624338627,183.2804232804233 19.047619047619047,182.64550264550266 19.047619047619047,182.01058201058203 19.47089947089947,181.3756613756614 19.894179894179896,180.74074074074076 20.105820105820108,180.10582010582013 20.529100529100532,179.6825396825397 20.952380952380953,179.25925925925927 21.375661375661377,178.62433862433863 21.7989417989418,178.2010582010582 22.222222222222225,177.7777777777778 22.645502645502646,177.35449735449737 23.06878306878307,176.71957671957674 23.492063492063494,176.2962962962963 23.915343915343918,175.87301587301587 24.338624338624342,175.44973544973547 24.761904761904763,175.02645502645504 25.185185185185187,174.6031746031746 25.60846560846561,174.1798941798942 26.031746031746035,173.75661375661377 26.455026455026456,173.33333333333334 26.87830687830688,172.9100529100529 27.301587301587304,172.4867724867725 27.724867724867728,171.85185185185188 28.14814814814815,171.42857142857144 28.571428571428573,171.005291005291 28.994708994708997,170.58201058201058 29.41798941798942,169.94708994708995 29.841269841269842,169.52380952380955 30.264550264550266,169.10052910052912 30.68783068783069,168.46560846560848 31.111111111111114,167.83068783068785 31.53439153439154,167.40740740740742 31.95767195767196,166.7724867724868 32.38095238095239,166.13756613756615 32.804232804232804,165.71428571428572 33.22751322751323,165.2910052910053 33.65079365079365,164.65608465608466 34.074074074074076,164.02116402116403 34.4973544973545,163.59788359788362 34.920634920634924,163.1746031746032 35.34391534391535,162.53968253968256 35.76719576719577,161.90476190476193 36.19047619047619,161.4814814814815 36.402116402116405,160.84656084656086 36.82539682539683,160.21164021164023 37.03703703703704,159.5767195767196 37.46031746031746,158.94179894179896 37.67195767195768,158.30687830687833 37.67195767195768,157.67195767195767 37.67195767195768,157.03703703703704 37.67195767195768,156.4021164021164 37.67195767195768,155.76719576719577 37.67195767195768,155.13227513227514 37.46031746031746,154.4973544973545 37.248677248677254,153.86243386243387 37.03703703703704,153.22751322751324 36.613756613756614,152.5925925925926 36.19047619047619,152.16931216931218 35.76719576719577,151.53439153439155 35.34391534391535,151.11111111111111 34.920634920634924,150.47619047619048 34.28571428571429,150.05291005291005 33.86243386243387,149.62962962962965 33.43915343915344,149.20634920634922 32.804232804232804,148.78306878306879 32.38095238095239,148.35978835978838 31.746031746031747,147.93650793650795 31.322751322751326,147.51322751322752 30.68783068783069,147.30158730158732 30.052910052910054,146.8783068783069 29.629629629629633,146.45502645502646 28.994708994708997,146.03174603174605 28.35978835978836,145.60846560846562 27.93650793650794,145.1851851851852 27.301587301587304,144.76190476190476 26.666666666666668,144.33862433862436 26.243386243386244,143.91534391534393 25.60846560846561,143.70370370370372 25.185185185185187,143.2804232804233 24.55026455026455,142.85714285714286 24.12698412698413,142.43386243386246 23.492063492063494,142.22222222222223 23.06878306878307,141.7989417989418 22.433862433862437,141.3756613756614 22.010582010582013,140.95238095238096 21.375661375661377,140.52910052910053 20.740740740740744,140.10582010582013 20.105820105820108,139.6825396825397 19.47089947089947,139.47089947089947 19.047619047619047,139.04761904761907 18.412698412698415,138.83597883597884 17.98941798941799,138.41269841269843 14.814814814814817,136.2962962962963" style="fill:none; stroke:#00aa99; stroke-width:1.0"  /><polyline points="14.814814814814817,136.2962962962963 16.084656084656086,133.75661375661377 16.50793650793651,133.12169312169314 16.71957671957672,132.4867724867725 16.931216931216934,131.85185185185185 17.354497354497354,131.21693121693121 17.566137566137566,130.58201058201058 17.77777777777778,129.94708994708995 18.201058201058203,129.31216931216932 18.412698412698415,128.67724867724868 18.624338624338627,128.04232804232805 18.83597883597884,127.40740740740742 19.25925925925926,126.77248677248679 19.47089947089947,126.13756613756615 19.682539682539684,125.5026455026455 19.894179894179896,124.86772486772487 20.105820105820108,124.23280423280424 20.31746031746032,123.59788359788361 20.529100529100532,122.96296296296298 20.740740740740744,122.32804232804234 20.952380952380953,121.6931216931217 21.164021164021165,121.05820105820106 21.58730158730159,120.42328042328043 21.58730158730159,119.7883597883598 21.7989417989418,119.15343915343917 22.010582010582013,118.51851851851853 22.433862433862437,117.88359788359789 22.433862433862437,117.24867724867725 22.857142857142858,116.61375661375662 23.06878306878307,115.97883597883599 23.280423280423282,115.34391534391536 23.492063492063494,114.70899470899472 23.703703703703706,114.07407407407408 23.703703703703706,113.43915343915344 23.915343915343918,112.80423280423281 23.915343915343918,112.16931216931218 24.12698412698413,111.53439153439155 24.338624338624342,110.89947089947091 24.55026455026455,110.26455026455027 24.761904761904763,109.62962962962963 24.973544973544975,108.994708994709 25.185185185185187,108.35978835978837 25.3968253968254,107.72486772486774 25.60846560846561,107.0899470899471 25.820105820105823,106.45502645502647 25.820105820105823,105.82010582010582 26.031746031746035,105.18518518518519 26.243386243386244,104.55026455026456 26.455026455026456,103.91534391534393 26.666666666666668,103.28042328042329 26.87830687830688,102.64550264550266 26.87830687830688,102.01058201058201 27.089947089947092,101.37566137566138 27.301587301587304,100.74074074074075 27.301587301587304,100.10582010582011 27.513227513227516,99.47089947089948 27.724867724867728,98.83597883597885 27.93650793650794,98.2010582010582 27.93650793650794,97.56613756613757 28.14814814814815,96.93121693121694 28.14814814814815,96.2962962962963 28.35978835978836,95.66137566137567 28.571428571428573,95.02645502645504 28.571428571428573,94.39153439153439 28.783068783068785,93.75661375661376 28.783068783068785,93.12169312169313 28.994708994708997,92.4867724867725 29.20634920634921,91.85185185185186 29.20634920634921,91.21693121693123 29.41798941798942,90.58201058201058 29.41798941798942,89.94708994708995 29.629629629629633,89.31216931216932 29.629629629629633,88.67724867724868 29.841269841269842,88.04232804232805 29.841269841269842,87.40740740740742 30.052910052910054,86.77248677248677 30.052910052910054,86.13756613756614 30.264550264550266,85.5026455026455 30.264550264550266,84.86772486772487 30.476190476190478,84.23280423280424 30.476190476190478,83.59788359788361 30.476190476190478,82.96296296296298 30.68783068783069,82.32804232804233 30.68783068783069,81.6931216931217 30.68783068783069,81.05820105820106 30.68783068783069,80.42328042328043 30.68783068783069,79.7883597883598 30.68783068783069,79.15343915343917 30.476190476190478,78.51851851851852 30.264550264550266,77.88359788359789 30.052910052910054,77.24867724867725 29.629629629629633,76.82539682539684 29.20634920634921,76.19047619047619 28.783068783068785,75.76719576719577 28.35978835978836,75.13227513227514 27.93650793650794,74.70899470899471 27.513227513227516,74.28571428571429 26.87830687830688,74.07407407407408 26.455026455026456,73.65079365079366 25.820105820105823,73.43915343915344 25.185185185185187,73.01587301587303 24.55026455026455,73.01587301587303 23.915343915343918,72.80423280423281 23.280423280423282,72.80423280423281 22.645502645502646,72.5925925925926 22.010582010582013,72.5925925925926 21.375661375661377,72.5925925925926 20.740740740740744,72.38095238095238 20.105820105820108,72.38095238095238 19.47089947089947,72.5925925925926 18.83597883597884,72.5925925925926 18.201058201058203,72.5925925925926 17.566137566137566,72.5925925925926 16.931216931216934,72.5925925925926 16.296296296296298,72.38095238095238 15.661375661375663,72.38095238095238 15.026455026455027,72.38095238095238 14.391534391534393,72.38095238095238 13.756613756613758,72.16931216931218 13.121693121693122,72.16931216931218 12.486772486772487,72.16931216931218 11.851851851851853,72.16931216931218 11.216931216931219,71.95767195767196 10.582010582010582,71.95767195767196 9.947089947089948,71.74603174603175 9.312169312169313,71.74603174603175 8.677248677248677,71.53439153439155 8.042328042328043,71.32275132275133 7.407407407407408,71.11111111111111 6.772486772486773,70.8994708994709 6.137566137566138,70.47619047619048 5.502645502645503,70.26455026455027 4.867724867724868,69.84126984126985 4.2328042328042335,69.62962962962963 3.8095238095238098,69.20634920634922 3.174603174603175,68.78306878306879 2.7513227513227516,68.35978835978837 2.3280423280423284,67.93650793650794 1.9047619047619049,67.51322751322752 1.4814814814814816,67.08994708994709 1.0582010582010584,66.45502645502646 0.634920634920635,65.82010582010582 0.4232804232804233,65.18518518518519 0.4232804232804233,64.55026455026456 0.4232804232804233,63.91534391534392 0.21164021164021166,63.280423280423285 0.21164021164021166,62.64550264550265 0.21164021164021166,62.01058201058201 0.4232804232804233,61.37566137566138 0.4232804232804233,60.74074074074075 0.634920634920635,60.10582010582011 0.634920634920635,59.470899470899475 0.8465608465608466,58.83597883597884 0.8465608465608466,58.2010582010582 1.0582010582010584,57.56613756613757 1.0582010582010584,56.93121693121694 1.26984126984127,56.2962962962963 1.4814814814814816,55.661375661375665 1.6931216931216932,55.02645502645503 1.6931216931216932,54.39153439153439 1.9047619047619049,53.75661375661376 2.1164021164021167,53.12169312169313 2.3280423280423284,52.48677248677249 2.53968253968254,51.851851851851855 2.7513227513227516,51.21693121693122 3.174603174603175,50.58201058201058 3.597883597883598,49.94708994708995 3.8095238095238098,49.31216931216932 4.2328042328042335,48.677248677248684 4.656084656084657,48.042328042328045 5.07936507936508,47.40740740740741 5.502645502645503,46.98412698412699 5.9259259259259265,46.349206349206355 6.34920634920635,45.92592592592593 6.772486772486773,45.50264550264551 7.195767195767196,45.07936507936508 7.6190476190476195,44.65608465608466 8.253968253968255,44.232804232804234 8.677248677248677,43.80952380952381 9.312169312169313,43.386243386243386 9.947089947089948,42.96296296296297 10.370370370370372,42.539682539682545 11.005291005291006,42.32804232804233 11.640211640211641,42.11640211640212 12.275132275132275,42.11640211640212 12.910052910052912,41.904761904761905 13.544973544973546,41.904761904761905 14.17989417989418,42.11640211640212 14.814814814814817,42.11640211640212 15.449735449735451,42.32804232804233 16.084656084656086,42.539682539682545 16.71957671957672,42.75132275132275 17.354497354497354,42.96296296296297 17.98941798941799,42.96296296296297 18.412698412698415,43.386243386243386 19.047619047619047,43.80952380952381 19.682539682539684,43.80952380952381 20.31746031746032,44.232804232804234 20.952380952380953,44.65608465608466 21.58730158730159,45.07936507936508 22.222222222222225,45.50264550264551 22.645502645502646,45.92592592592593 23.280423280423282,46.349206349206355 23.703703703703706,46.77248677248678 24.12698412698413,47.195767195767196 24.55026455026455,47.61904761904762 24.973544973544975,48.042328042328045 25.3968253968254,48.46560846560847 25.820105820105823,49.1005291005291 26.243386243386244,49.523809523809526 26.666666666666668,49.94708994708995 27.089947089947092,50.370370370370374 27.513227513227516,50.7936507936508 27.93650793650794,51.21693121693122 28.35978835978836,51.640211640211646 28.994708994708997,52.06349206349207 29.41798941798942,52.48677248677249 30.052910052910054,52.91005291005291 30.68783068783069,53.12169312169313 31.111111111111114,53.54497354497355 31.746031746031747,53.75661375661376 32.38095238095239,53.968253968253975 33.01587301587302,54.179894179894184 33.65079365079365,54.179894179894184 34.28571428571429,54.39153439153439 34.920634920634924,54.179894179894184 35.55555555555556,54.179894179894184 36.19047619047619,53.968253968253975 36.82539682539683,53.75661375661376 37.46031746031746,53.333333333333336 38.095238095238095,52.91005291005291 38.730158730158735,52.48677248677249 39.15343915343916,52.06349206349207 39.57671957671958,51.640211640211646 40.0,51.21693121693122 40.423280423280424,50.7936507936508 40.84656084656085,50.158730158730165 41.26984126984127,49.73544973544974 41.6931216931217,49.1005291005291 42.11640211640212,48.677248677248684 42.32804232804233,48.042328042328045 42.75132275132275,47.61904761904762 43.17460317460318,46.98412698412699 43.5978835978836,46.349206349206355 44.021164021164026,45.714285714285715 44.44444444444445,45.07936507936508 44.867724867724874,44.44444444444445 45.29100529100529,43.80952380952381 45.50264550264551,43.17460317460318 45.92592592592593,42.75132275132275 45.92592592592593,42.11640211640212 46.349206349206355,41.48148148148149 46.77248677248678,40.84656084656085 46.98412698412699,40.211640211640216 47.40740740740741,39.57671957671958 47.61904761904762,38.94179894179894 48.042328042328045,38.30687830687831 48.25396825396826,37.67195767195768 48.46560846560847,37.03703703703704 48.88888888888889,36.402116402116405 49.1005291005291,35.76719576719577 49.31216931216932,35.13227513227513 49.73544973544974,34.4973544973545 49.94708994708995,33.86243386243387 50.158730158730165,33.22751322751323 50.58201058201058,32.592592592592595 50.7936507936508,31.95767195767196 51.21693121693122,31.322751322751326 51.42857142857143,30.68783068783069 51.851851851851855,30.052910052910054 52.06349206349207,29.41798941798942 52.48677248677249,28.783068783068785 52.6984126984127,28.14814814814815 53.12169312169313,27.513227513227516 53.333333333333336,26.87830687830688 53.75661375661376,26.243386243386244 53.968253968253975,25.60846560846561 54.39153439153439,24.973544973544975 54.60317460317461,24.338624338624342 54.81481481481482,23.703703703703706 55.23809523809524,23.280423280423282 55.449735449735456,22.645502645502646 55.87301587301588,22.010582010582013 56.08465608465609,21.375661375661377 56.50793650793651,20.740740740740744 56.71957671957672,20.105820105820108 57.142857142857146,19.47089947089947 57.56613756613757,18.83597883597884 57.777777777777786,18.201058201058203 58.2010582010582,17.566137566137566 58.41269841269842,16.931216931216934 58.83597883597884,16.50793650793651 59.04761904761905,15.873015873015873 59.470899470899475,15.238095238095239 59.8941798941799,14.603174603174605 60.10582010582011,13.96825396825397 60.52910052910053,13.333333333333334 60.952380952380956,12.6984126984127 61.37566137566138,12.063492063492065 61.58730158730159,11.428571428571429 62.01058201058201,10.793650793650794 62.43386243386244,10.15873015873016 62.85714285714286,9.523809523809524 63.06878306878308,8.88888888888889 63.492063492063494,8.465608465608467 63.70370370370371,7.830687830687832 64.12698412698413,7.407407407407408 64.12698412698413,6.772486772486773 64.55026455026456,6.34920634920635 64.76190476190477,5.714285714285714 65.18518518518519,5.291005291005291 65.3968253968254,4.656084656084657 65.82010582010582,4.2328042328042335 66.03174603174604,3.597883597883598 66.45502645502646,3.174603174603175 68.14814814814815,0.21164021164021166" style="fill:none; stroke:#3300bb; stroke-width:1.0"  /><circle cx="68.14814814814815" cy="0.21164021164021166" r="2.0" style="fill:none; stroke:#000000aa; stroke-width:0.25" /><circle cx="177.989417989418" cy="48.25396825396826" r="2.0" style="fill:none; stroke:#000000aa; stroke-width:0.25" /><circle cx="114.07407407407408" cy="182.01058201058203" r="2.0" style="fill:none; stroke:#000000aa; stroke-width:0.25" /><circle cx="14.814814814814817" cy="136.2962962962963" r="2.0" style="fill:none; stroke:#000000aa; stroke-width:0.25" /><circle cx="68.35978835978837" cy="0.21164021164021166" r="2.0" style="fill:none; stroke:#ff3366aa; stroke-width:0.25" /><circle cx="177.7777777777778" cy="48.677248677248684" r="2.0" style="fill:none; stroke:#ff3366aa; stroke-width:0.25" /><circle cx="113.86243386243387" cy="181.79894179894183" r="2.0" style="fill:none; stroke:#ff3366aa; stroke-width:0.25" /><circle cx="14.814814814814817" cy="136.71957671957674" r="2.0" style="fill:none; stroke:#ff3366aa; stroke-width:0.25" /><polyline points="78.73015873015873,5.502645502645503 78.0952380952381,5.07936507936508 77.46031746031747,4.867724867724868 76.82539682539684,4.444444444444445 76.19047619047619,4.021164021164021 75.55555555555556,3.8095238095238098 74.92063492063492,3.3862433862433865 74.28571428571429,3.174603174603175 73.65079365079366,2.7513227513227516 73.01587301587303,2.53968253968254 72.38095238095238,2.1164021164021167 71.74603174603175,1.9047619047619049 71.11111111111111,1.6931216931216932" style="fill:none; stroke:#001100; stroke-width:1.0" /><polyline points="62.43386243386244,10.15873015873016 62.85714285714286,9.523809523809524 63.06878306878308,8.88888888888889 63.492063492063494,8.465608465608467 63.70370370370371,7.830687830687832 64.12698412698413,7.407407407407408 64.12698412698413,6.772486772486773 64.55026455026456,6.34920634920635 64.76190476190477,5.714285714285714 65.18518518518519,5.291005291005291 65.3968253968254,4.656084656084657 65.82010582010582,4.2328042328042335 66.03174603174604,3.597883597883598 66.45502645502646,3.174603174603175" style="fill:none; stroke:#000011; stroke-width:1.0" /><polyline points="172.4867724867725,59.25925925925927 172.6984126984127,58.62433862433863 173.12169312169314,57.989417989417994 173.33333333333334,57.35449735449736 173.75661375661377,56.71957671957672 173.96825396825398,56.08465608465609 174.3915343915344,55.449735449735456 174.6031746031746,54.81481481481482 175.02645502645504,54.179894179894184 175.23809523809524,53.54497354497355 175.66137566137567,52.91005291005291 176.0846560846561,52.27513227513228 176.2962962962963,51.640211640211646" style="fill:none; stroke:#001100; stroke-width:1.0" /><polyline points="167.83068783068785,42.96296296296297 168.46560846560848,43.386243386243386 169.10052910052912,43.5978835978836 169.52380952380955,44.021164021164026 170.15873015873018,44.232804232804234 170.7936507936508,44.65608465608466 171.42857142857144,44.867724867724874 171.85185185185188,45.29100529100529 172.4867724867725,45.50264550264551 173.12169312169314,45.92592592592593 173.75661375661377,46.13756613756614 174.3915343915344,46.560846560846564 175.02645502645504,46.77248677248678" style="fill:none; stroke:#000011; stroke-width:1.0" /><polyline points="104.33862433862434,175.44973544973547 104.97354497354497,175.87301587301587 105.3968253968254,176.2962962962963 106.03174603174604,176.50793650793653 106.66666666666667,176.93121693121694 107.3015873015873,177.35449735449737 107.93650793650795,177.7777777777778 108.57142857142858,178.2010582010582 109.20634920634922,178.62433862433863 109.84126984126985,179.04761904761907 110.47619047619048,179.4708994708995 110.89947089947091,179.8941798941799" style="fill:none; stroke:#001100; stroke-width:1.0" /><polyline points="119.15343915343917,171.21693121693124 118.73015873015873,171.85185185185188 118.51851851851853,172.4867724867725 118.30687830687832,173.12169312169314 117.88359788359789,173.75661375661377 117.67195767195768,174.3915343915344 117.24867724867725,175.02645502645504 117.03703703703705,175.66137566137567 116.82539682539684,176.2962962962963 116.4021164021164,176.93121693121694 116.1904761904762,177.56613756613757 115.97883597883599,178.2010582010582 115.55555555555557,178.83597883597884" style="fill:none; stroke:#000011; stroke-width:1.0" /><polyline points="19.47089947089947,126.13756613756615 19.25925925925926,126.77248677248679 18.83597883597884,127.40740740740742 18.624338624338627,128.04232804232805 18.412698412698415,128.67724867724868 18.201058201058203,129.31216931216932 17.77777777777778,129.94708994708995 17.566137566137566,130.58201058201058 17.354497354497354,131.21693121693121 16.931216931216934,131.85185185185185 16.71957671957672,132.4867724867725 16.50793650793651,133.12169312169314 16.084656084656086,133.75661375661377" style="fill:none; stroke:#001100; stroke-width:1.0" /><polyline points="24.55026455026455,142.85714285714286 24.12698412698413,142.43386243386246 23.492063492063494,142.22222222222223 23.06878306878307,141.7989417989418 22.433862433862437,141.3756613756614 22.010582010582013,140.95238095238096 21.375661375661377,140.52910052910053 20.740740740740744,140.10582010582013 20.105820105820108,139.6825396825397 19.47089947089947,139.47089947089947 19.047619047619047,139.04761904761907 18.412698412698415,138.83597883597884 17.98941798941799,138.41269841269843" style="fill:none; stroke:#000011; stroke-width:1.0" /><polyline points="71.11111111111111,1.6931216931216932 52.27513227513228,-7.830687830687832" style="fill:none; stroke:#ffaa00; stroke-width:0.4" /><polyline points="66.45502645502646,3.174603174603175 77.03703703703704,-15.238095238095239" style="fill:none; stroke:#aaff00; stroke-width:0.4" /><polyline points="176.2962962962963,51.640211640211646 185.82010582010582,32.804232804232804" style="fill:none; stroke:#ffaa00; stroke-width:0.4" /><polyline points="175.02645502645504,46.77248677248678 193.65079365079367,56.71957671957672" style="fill:none; stroke:#aaff00; stroke-width:0.4" /><polyline points="110.89947089947091,179.8941798941799 128.46560846560848,191.74603174603175" style="fill:none; stroke:#ffaa00; stroke-width:0.4" /><polyline points="115.55555555555557,178.83597883597884 106.45502645502647,197.8835978835979" style="fill:none; stroke:#aaff00; stroke-width:0.4" /><polyline points="16.084656084656086,133.75661375661377 7.407407407407408,153.01587301587304" style="fill:none; stroke:#ffaa00; stroke-width:0.4" /><polyline points="17.98941798941799,138.41269841269843 0.4232804232804233,126.56084656084657" style="fill:none; stroke:#aaff00; stroke-width:0.4" /><circle cx="80.84656084656085" cy="108.14814814814815" r="1.0" style="fill:#444444; stroke-width:0" /><circle cx="65.18518518518519" cy="122.96296296296298" r="10.582010582010582" style="fill:#ff770022; stroke-width:0" /><circle cx="65.18518518518519" cy="122.96296296296298" r="1.0" style="fill:#ff7700; stroke-width:0" /></svg>