<?xml version="1.0" encoding="UTF-8" standalone="no"?><svg width="565.7142857142858" height="560.6349206349207" viewBox="-10 -10 208.57142857142858 206.8783068783069" xmlns="http://www.w3.org/2000/svg" xmlns:xlink="http://www.w3.org/1999/xlink"><polyline points="17.98941798941799,44.867724867724874 21.7989417989418,43.5978835978836 22.433862433862437,43.386243386243386 23.06878306878307,43.17460317460318 23.703703703703706,42.96296296296297 24.338624338624342,42.539682539682545 24.973544973544975,42.32804232804233 25.60846560846561,42.11640211640212 26.243386243386244,41.904761904761905 26.87830687830688,41.6931216931217 27.513227513227516,41.48148148148149 28.14814814814815,41.26984126984127 28.783068783068785,41.058201058201064 29.41798941798942,40.84656084656085 30.052910052910054,40.63492063492064 30.68783068783069,40.423280423280424 31.322751322751326,40.211640211640216 31.95767195767196,39.78835978835979 32.592592592592595,39.57671957671958 33.22751322751323,39.36507936507937 33.86243386243387,39.15343915343916 34.4973544973545,38.94179894179894 35.13227513227513,38.51851851851852 35.76719576719577,38.30687830687831 36.402116402116405,38.095238095238095 36.82539682539683,37.67195767195768 37.46031746031746,37.46031746031746 38.095238095238095,37.03703703703704 38.730158730158735,36.82539682539683 39.36507936507937,36.402116402116405 40.0,36.19047619047619 40.63492063492064,35.76719576719577 41.26984126984127,35.55555555555556 41.904761904761905,35.13227513227513 42.539682539682545,34.920634920634924 43.17460317460318,34.4973544973545 43.80952380952381,34.28571428571429 44.44444444444445,33.86243386243387 45.07936507936508,33.65079365079365 45.714285714285715,33.43915343915344 46.349206349206355,33.22751322751323 46.98412698412699,32.804232804232804 47.61904761904762,32.804232804232804 48.25396825396826,32.592592592592595 48.88888888888889,32.38095238095239 49.523809523809526,32.16931216931217 50.158730158730165,31.95767195767196 50.7936507936508,31.746031746031747 51.42857142857143,31.53439153439154 52.06349206349207,31.53439153439154 52.6984126984127,31.322751322751326 53.333333333333336,31.322751322751326 53.968253968253975,30.899470899470902 54.60317460317461,30.899470899470902 55.23809523809524,30.68783068783069 55.87301587301588,30.68783068783069 56.50793650793651,30.68783068783069 57.142857142857146,30.476190476190478 57.777777777777786,30.476190476190478 58.41269841269842,30.476190476190478 59.04761904761905,30.264550264550266 59.682539682539684,30.264550264550266 60.31746031746032,30.264550264550266 60.952380952380956,30.476190476190478 61.58730158730159,30.476190476190478 62.22222222222223,30.899470899470902 62.85714285714286,31.111111111111114 63.492063492063494,31.53439153439154 63.91534391534392,31.95767195767196 64.33862433862434,32.38095238095239 64.76190476190477,32.804232804232804 65.18518518518519,33.22751322751323 65.60846560846561,33.86243386243387 66.03174603174604,34.4973544973545 66.24338624338625,35.13227513227513 66.45502645502646,35.76719576719577 66.66666666666667,36.402116402116405 66.87830687830689,37.03703703703704 66.87830687830689,37.67195767195768 66.87830687830689,38.30687830687831 66.87830687830689,38.94179894179894 66.87830687830689,39.57671957671958 66.87830687830689,40.211640211640216 66.66666666666667,40.84656084656085 66.66666666666667,41.48148148148149 66.66666666666667,42.11640211640212 66.66666666666667,42.75132275132275 66.87830687830689,43.386243386243386 66.87830687830689,44.021164021164026 66.87830687830689,44.65608465608466 67.08994708994709,45.29100529100529 67.08994708994709,45.92592592592593 67.3015873015873,46.560846560846564 67.51322751322752,47.195767195767196 67.72486772486774,47.830687830687836 67.93650793650794,48.46560846560847 68.14814814814815,49.1005291005291 68.57142857142858,49.73544973544974 68.994708994709,50.370370370370374 69.41798941798942,51.00529100529101 69.84126984126985,51.42857142857143 70.26455026455027,51.851851851851855 70.8994708994709,52.27513227513228 71.53439153439155,52.6984126984127 72.16931216931218,52.91005291005291 72.80423280423281,53.12169312169313 73.43915343915344,53.333333333333336 74.07407407407408,53.54497354497355 74.70899470899471,53.54497354497355 75.34391534391536,53.75661375661376 75.97883597883599,53.75661375661376 76.61375661375662,53.968253968253975 77.24867724867725,53.968253968253975 77.88359788359789,53.75661375661376 78.51851851851852,53.75661375661376 79.15343915343917,53.75661375661376 79.7883597883598,53.75661375661376 80.42328042328043,53.75661375661376 81.05820105820106,53.75661375661376 81.6931216931217,53.75661375661376 82.32804232804233,53.54497354497355 82.96296296296298,53.333333333333336 83.59788359788361,53.333333333333336 84.23280423280424,53.12169312169313 84.86772486772487,52.91005291005291 85.5026455026455,52.6984126984127 86.13756613756614,52.48677248677249 86.77248677248677,52.06349206349207 87.40740740740742,51.851851851851855 88.04232804232805,51.640211640211646 88.67724867724868,51.42857142857143 89.31216931216932,51.00529100529101 89.94708994708995,50.58201058201058 90.58201058201058,50.370370370370374 91.00529100529101,49.94708994708995 91.64021164021165,49.73544973544974 92.06349206349208,49.31216931216932 92.69841269841271,48.88888888888889 93.33333333333334,48.46560846560847 93.96825396825398,48.042328042328045 94.39153439153439,47.40740740740741 94.81481481481482,46.98412698412699 95.23809523809524,46.560846560846564 95.66137566137567,46.13756613756614 96.08465608465609,45.50264550264551 96.50793650793652,44.867724867724874 96.71957671957672,44.232804232804234 97.14285714285715,43.5978835978836 97.35449735449737,42.96296296296297 97.56613756613757,42.32804232804233 97.56613756613757,41.6931216931217 97.77777777777779,41.058201058201064 97.989417989418,40.423280423280424 97.77777777777779,39.78835978835979 97.989417989418,39.15343915343916 97.77777777777779,38.51851851851852 97.77777777777779,37.883597883597886 97.56613756613757,37.248677248677254 97.35449735449737,36.613756613756614 97.14285714285715,35.97883597883598 96.93121693121694,35.34391534391535 96.93121693121694,34.70899470899471 96.50793650793652,34.074074074074076 96.2962962962963,33.43915343915344 95.87301587301587,33.01587301587302 95.66137566137567,32.38095238095239 95.23809523809524,31.95767195767196 94.81481481481482,31.322751322751326 94.39153439153439,30.68783068783069 93.96825396825398,30.264550264550266 93.54497354497356,29.841269841269842 93.12169312169313,29.20634920634921 92.91005291005291,28.571428571428573 92.4867724867725,28.14814814814815 92.27513227513228,27.513227513227516 91.85185185185186,26.87830687830688 91.42857142857143,26.243386243386244 91.21693121693123,25.60846560846561 91.00529100529101,24.973544973544975 91.00529100529101,24.338624338624342 90.7936507936508,23.703703703703706 90.7936507936508,23.06878306878307 90.7936507936508,22.433862433862437 90.7936507936508,21.7989417989418 90.7936507936508,21.164021164021165 91.00529100529101,20.529100529100532 91.21693121693123,19.894179894179896 91.64021164021165,19.47089947089947 92.06349206349208,18.83597883597884 92.4867724867725,18.412698412698415 92.91005291005291,17.98941798941799 93.33333333333334,17.566137566137566 93.75661375661376,17.142857142857146 94.17989417989419,16.71957671957672 94.60317460317461,16.296296296296298 95.23809523809524,15.873015873015873 95.87301587301587,15.449735449735451 96.50793650793652,15.238095238095239 96.93121693121694,14.814814814814817 97.56613756613757,14.603174603174605 97.989417989418,14.17989417989418 98.62433862433863,13.96825396825397 99.25925925925927,13.544973544973546 99.8941798941799,13.333333333333334 100.52910052910053,12.910052910052912 101.16402116402116,12.6984126984127 101.79894179894181,12.275132275132275 102.43386243386244,12.063492063492065 103.06878306878308,11.851851851851853 103.70370370370371,11.640211640211641 104.33862433862434,11.428571428571429 104.97354497354497,11.216931216931219 105.60846560846562,11.005291005291006 106.24338624338625,10.793650793650794 106.87830687830689,10.582010582010582 107.51322751322752,10.370370370370372 108.14814814814815,10.370370370370372 108.78306878306879,10.15873015873016 109.41798941798943,9.947089947089948 110.05291005291006,9.735449735449736 110.6878306878307,9.523809523809524 111.32275132275133,9.312169312169313 111.95767195767196,9.312169312169313 112.5925925925926,9.100529100529101 113.22751322751324,8.88888888888889 113.86243386243387,8.677248677248677 114.49735449735451,8.677248677248677 115.13227513227514,8.465608465608467 115.76719576719577,8.253968253968255 116.4021164021164,8.042328042328043 117.03703703703705,7.830687830687832 117.67195767195768,7.6190476190476195 118.30687830687832,7.6190476190476195 118.94179894179895,7.407407407407408 119.57671957671958,7.195767195767196 120.21164021164022,6.984126984126985 120.84656084656086,6.772486772486773 121.4814814814815,6.560846560846561 122.11640211640213,6.34920634920635 122.75132275132276,6.137566137566138 123.3862433862434,5.9259259259259265 124.02116402116403,5.714285714285714 124.65608465608466,5.502645502645503 125.2910052910053,5.291005291005291 125.92592592592594,5.07936507936508 126.56084656084657,4.867724867724868 127.1957671957672,4.656084656084657 127.83068783068784,4.444444444444445 128.46560846560848,4.444444444444445 128.88888888888889,4.021164021164021 129.52380952380955,3.8095238095238098 130.15873015873018,3.597883597883598 130.7936507936508,3.3862433862433865 131.42857142857144,3.174603174603175 132.06349206349208,2.9629629629629632 132.6984126984127,2.7513227513227516 133.33333333333334,2.3280423280423284 133.96825396825398,2.1164021164021167 134.6031746031746,1.9047619047619049 135.23809523809524,1.6931216931216932 135.87301587301587,1.26984126984127 136.5079365079365,1.0582010582010584 137.14285714285717,0.8465608465608466 137.7777777777778,0.634920634920635 138.41269841269843,0.4232804232804233 142.01058201058203,-1.0582010582010584" style="fill:none; stroke:#cc0000; stroke-width:1.0"  /><polyline points="142.01058201058203,-1.0582010582010584 142.22222222222223,3.174603174603175 142.22222222222223,3.8095238095238098 142.43386243386246,4.444444444444445 142.43386243386246,5.07936507936508 142.43386243386246,5.714285714285714 142.43386243386246,6.34920634920635 142.43386243386246,6.984126984126985 142.43386243386246,7.6190476190476195 142.64550264550266,8.253968253968255 142.64550264550266,8.88888888888889 142.64550264550266,9.523809523809524 142.64550264550266,10.15873015873016 142.64550264550266,10.793650793650794 142.64550264550266,11.428571428571429 142.64550264550266,12.063492063492065 142.85714285714286,12.6984126984127 142.85714285714286,13.333333333333334 142.85714285714286,13.96825396825397 142.85714285714286,14.603174603174605 142.85714285714286,15.238095238095239 143.0687830687831,15.873015873015873 143.0687830687831,16.50793650793651 143.0687830687831,17.142857142857146 143.0687830687831,17.77777777777778 143.2804232804233,18.412698412698415 143.2804232804233,19.047619047619047 143.2804232804233,19.682539682539684 143.2804232804233,20.31746031746032 143.2804232804233,20.952380952380953 143.2804232804233,21.58730158730159 143.2804232804233,22.222222222222225 143.2804232804233,22.857142857142858 143.2804232804233,23.492063492063494 143.2804232804233,24.12698412698413 143.2804232804233,24.761904761904763 143.2804232804233,25.3968253968254 143.2804232804233,26.031746031746035 143.2804232804233,26.666666666666668 143.2804232804233,27.301587301587304 143.2804232804233,27.93650793650794 143.2804232804233,28.571428571428573 143.0687830687831,29.20634920634921 143.0687830687831,29.841269841269842 143.0687830687831,30.476190476190478 143.0687830687831,31.111111111111114 142.85714285714286,31.746031746031747 142.85714285714286,32.38095238095239 142.85714285714286,33.01587301587302 142.85714285714286,33.65079365079365 142.64550264550266,34.28571428571429 142.64550264550266,34.920634920634924 142.64550264550266,35.55555555555556 142.43386243386246,36.19047619047619 142.43386243386246,36.82539682539683 142.43386243386246,37.46031746031746 142.22222222222223,38.095238095238095 142.22222222222223,38.730158730158735 142.01058201058203,39.36507936507937 142.01058201058203,40.0 141.7989417989418,40.63492063492064 141.7989417989418,41.26984126984127 141.5873015873016,41.904761904761905 141.5873015873016,42.539682539682545 141.3756613756614,43.17460317460318 141.16402116402116,43.80952380952381 141.16402116402116,44.44444444444445 141.16402116402116,45.07936507936508 140.95238095238096,45.714285714285715 140.95238095238096,46.349206349206355 140.74074074074076,46.98412698412699 140.52910052910053,47.61904761904762 140.52910052910053,48.25396825396826 140.31746031746033,48.88888888888889 140.31746031746033,49.523809523809526 140.10582010582013,50.158730158730165 140.10582010582013,50.7936507936508 140.10582010582013,51.42857142857143 140.10582010582013,52.06349206349207 139.8941798941799,52.6984126984127 139.8941798941799,53.333333333333336 139.8941798941799,53.968253968253975 139.8941798941799,54.60317460317461 139.8941798941799,55.23809523809524 139.6825396825397,55.87301587301588 139.6825396825397,56.50793650793651 139.6825396825397,57.142857142857146 139.6825396825397,57.777777777777786 139.6825396825397,58.41269841269842 139.6825396825397,59.04761904761905 139.8941798941799,59.682539682539684 139.8941798941799,60.31746031746032 139.8941798941799,60.952380952380956 139.8941798941799,61.58730158730159 139.8941798941799,62.22222222222223 139.8941798941799,62.85714285714286 140.10582010582013,63.492063492063494 140.10582010582013,64.12698412698413 140.31746031746033,64.76190476190477 140.31746031746033,65.3968253968254 140.52910052910053,66.03174603174604 140.52910052910053,66.66666666666667 140.74074074074076,67.3015873015873 140.74074074074076,67.93650793650794 140.74074074074076,68.57142857142858 140.95238095238096,69.20634920634922 140.95238095238096,69.84126984126985 141.16402116402116,70.47619047619048 141.3756613756614,71.11111111111111 141.3756613756614,71.74603174603175 141.5873015873016,72.38095238095238 142.01058201058203,73.01587301587303 142.22222222222223,73.65079365079366 142.43386243386246,74.28571428571429 142.64550264550266,74.92063492063492 142.85714285714286,75.55555555555556 143.0687830687831,76.19047619047619 143.4920634920635,76.82539682539684 143.91534391534393,77.46031746031747 144.33862433862436,77.88359788359789 144.76190476190476,78.51851851851852 145.1851851851852,78.94179894179895 145.82010582010582,79.36507936507937 146.45502645502646,79.7883597883598 147.0899470899471,80.21164021164022 147.72486772486775,80.42328042328043 148.35978835978838,80.63492063492065 148.99470899470901,80.63492063492065 149.62962962962965,80.63492063492065 150.26455026455028,80.63492063492065 150.8994708994709,80.63492063492065 151.53439153439155,80.42328042328043 152.16931216931218,80.21164021164022 152.8042328042328,80.0 153.43915343915344,80.0 154.07407407407408,79.57671957671958 154.7089947089947,79.36507936507937 155.34391534391534,78.94179894179895 155.978835978836,78.73015873015873 156.61375661375664,78.30687830687832 157.24867724867727,77.88359788359789 157.8835978835979,77.46031746031747 158.51851851851853,77.24867724867725 158.94179894179896,76.82539682539684 159.5767195767196,76.4021164021164 160.21164021164023,75.97883597883599 160.84656084656086,75.55555555555556 161.4814814814815,75.34391534391536 162.11640211640213,74.92063492063492 162.75132275132276,74.70899470899471 163.3862433862434,74.28571428571429 164.02116402116403,73.86243386243387 164.65608465608466,73.65079365079366 165.2910052910053,73.43915343915344 165.92592592592595,73.01587301587303 166.56084656084658,72.80423280423281 167.19576719576722,72.5925925925926 167.83068783068785,72.38095238095238 168.46560846560848,72.16931216931218 169.10052910052912,71.95767195767196 169.73544973544975,71.95767195767196 170.37037037037038,71.95767195767196 171.005291005291,71.53439153439155 171.64021164021165,71.74603174603175 172.27513227513228,71.74603174603175 172.9100529100529,71.74603174603175 173.54497354497354,71.74603174603175 174.1798941798942,71.74603174603175 174.81481481481484,71.74603174603175 175.44973544973547,71.74603174603175 176.0846560846561,71.74603174603175 176.71957671957674,71.74603174603175 177.35449735449737,71.74603174603175 177.989417989418,71.95767195767196 178.62433862433863,71.95767195767196 179.25925925925927,72.16931216931218 179.8941798941799,72.38095238095238 180.52910052910053,72.5925925925926 181.16402116402116,72.80423280423281 181.5873015873016,73.22751322751323 182.22222222222223,73.65079365079366 182.85714285714286,74.07407407407408 183.2804232804233,74.49735449735451 183.70370370370372,74.92063492063492 184.12698412698415,75.34391534391536 184.55026455026456,75.76719576719577 184.973544973545,76.4021164021164 185.39682539682542,77.03703703703704 185.82010582010582,77.67195767195767 186.24338624338625,78.30687830687832 186.45502645502646,78.94179894179895 186.8783068783069,79.57671957671958 187.08994708994712,80.21164021164022 187.30158730158732,80.84656084656085 187.51322751322752,81.48148148148148 187.72486772486775,82.11640211640213 187.93650793650795,82.75132275132276 187.93650793650795,83.3862433862434 187.93650793650795,84.02116402116403 188.14814814814815,84.65608465608466 188.14814814814815,85.29100529100529 188.14814814814815,85.92592592592594 188.14814814814815,86.56084656084657 188.14814814814815,87.1957671957672 188.14814814814815,87.83068783068784 188.14814814814815,88.46560846560847 188.14814814814815,89.1005291005291 188.14814814814815,89.73544973544975 187.93650793650795,90.37037037037038 187.93650793650795,91.00529100529101 187.72486772486775,91.64021164021165 187.72486772486775,92.27513227513228 187.72486772486775,92.91005291005291 187.51322751322752,93.54497354497356 187.30158730158732,94.17989417989419 187.30158730158732,94.81481481481482 186.8783068783069,95.44973544973546 186.66666666666669,96.08465608465609 186.45502645502646,96.71957671957672 186.03174603174605,97.35449735449737 186.03174603174605,97.989417989418 185.82010582010582,98.62433862433863 185.39682539682542,99.25925925925927 184.973544973545,99.8941798941799 184.7619047619048,100.52910052910053 184.33862433862436,101.16402116402116 183.91534391534393,101.79894179894181 183.70370370370372,102.43386243386244 183.2804232804233,102.85714285714286 182.85714285714286,103.4920634920635 182.43386243386246,104.12698412698414 182.01058201058203,104.55026455026456 181.5873015873016,104.97354497354497 181.16402116402116,105.3968253968254 180.74074074074076,105.82010582010582 180.31746031746033,106.24338624338625 179.8941798941799,106.66666666666667 179.25925925925927,106.87830687830689 178.62433862433863,107.0899470899471 177.989417989418,107.3015873015873 177.35449735449737,107.51322751322752 176.71957671957674,107.51322751322752 176.0846560846561,107.72486772486774 175.44973544973547,107.72486772486774 174.81481481481484,107.72486772486774 174.1798941798942,107.72486772486774 173.54497354497354,107.72486772486774 172.9100529100529,107.72486772486774 172.27513227513228,107.72486772486774 171.64021164021165,107.51322751322752 171.005291005291,107.3015873015873 170.37037037037038,107.3015873015873 169.73544973544975,107.0899470899471 169.10052910052912,106.87830687830689 168.46560846560848,106.66666666666667 167.83068783068785,106.45502645502647 167.19576719576722,106.24338624338625 166.56084656084658,105.82010582010582 165.92592592592595,105.60846560846562 165.2910052910053,105.3968253968254 164.65608465608466,104.97354497354497 164.02116402116403,104.76190476190477 163.3862433862434,104.55026455026456 162.75132275132276,104.33862433862434 162.11640211640213,104.12698412698414 161.4814814814815,103.70370370370371 160.84656084656086,103.4920634920635 160.21164021164023,103.28042328042329 159.5767195767196,103.06878306878308 158.94179894179896,102.85714285714286 158.30687830687833,102.64550264550266 157.67195767195767,102.43386243386244 157.03703703703704,102.22222222222223 156.4021164021164,102.22222222222223 155.76719576719577,102.01058201058201 155.13227513227514,102.01058201058201 154.4973544973545,102.01058201058201 153.86243386243387,102.22222222222223 153.22751322751324,102.43386243386244 152.5925925925926,102.64550264550266 151.95767195767198,102.85714285714286 151.53439153439155,103.28042328042329 150.8994708994709,103.4920634920635 150.47619047619048,103.91534391534393 150.05291005291005,104.33862433862434 149.62962962962965,104.97354497354497 149.20634920634922,105.60846560846562 148.99470899470901,106.24338624338625 148.78306878306879,106.87830687830689 148.78306878306879,107.51322751322752 148.78306878306879,108.14814814814815 148.78306878306879,108.78306878306879 148.78306878306879,109.41798941798943 148.78306878306879,110.05291005291006 148.78306878306879,110.6878306878307 148.99470899470901,111.32275132275133 149.20634920634922,111.95767195767196 149.41798941798942,112.5925925925926 149.41798941798942,113.22751322751324 149.62962962962965,113.86243386243387 150.05291005291005,114.49735449735451 150.26455026455028,115.13227513227514 150.47619047619048,115.76719576719577 150.6878306878307,116.4021164021164 150.8994708994709,117.03703703703705 151.11111111111111,117.67195767195768 151.32275132275134,118.30687830687832 151.53439153439155,118.94179894179895 151.74603174603175,119.57671957671958 151.95767195767198,120.21164021164022 152.16931216931218,120.84656084656086 152.38095238095238,121.4814814814815 152.5925925925926,122.11640211640213 152.8042328042328,122.75132275132276 153.01587301587304,123.3862433862434 153.22751322751324,124.02116402116403 153.43915343915344,124.65608465608466 153.65079365079367,125.2910052910053 153.86243386243387,125.92592592592594 154.07407407407408,126.56084656084657 154.2857142857143,127.1957671957672 154.4973544973545,127.83068783068784 154.92063492063494,128.46560846560848 155.13227513227514,129.10052910052912 155.34391534391534,129.73544973544975 155.55555555555557,130.37037037037038 155.76719576719577,131.005291005291 155.978835978836,131.64021164021165 156.1904761904762,132.27513227513228 156.4021164021164,132.9100529100529 156.61375661375664,133.54497354497354 157.03703703703704,134.17989417989418 157.24867724867727,134.81481481481484 157.46031746031747,135.44973544973547 157.67195767195767,136.0846560846561 157.8835978835979,136.71957671957674 158.30687830687833,137.35449735449737 158.51851851851853,137.989417989418 158.73015873015873,138.62433862433863 158.94179894179896,139.25925925925927 159.36507936507937,139.8941798941799 159.5767195767196,140.52910052910053 159.7883597883598,141.16402116402116 160.0,141.7989417989418 160.42328042328043,142.43386243386246 160.63492063492066,143.0687830687831 161.05820105820106,143.70370370370372 161.2698412698413,144.33862433862436 161.4814814814815,144.973544973545 161.6931216931217,145.60846560846562 161.90476190476193,146.24338624338625 162.32804232804233,146.8783068783069 162.53968253968256,147.51322751322752 162.75132275132276,148.14814814814815 162.96296296296296,148.78306878306879 163.1746031746032,149.41798941798942 163.59788359788362,150.05291005291005 163.80952380952382,150.6878306878307 164.23280423280426,151.32275132275134 164.44444444444446,151.95767195767198 164.65608465608466,152.5925925925926 165.0793650793651,153.22751322751324 165.2910052910053,153.86243386243387 166.984126984127,157.67195767195767" style="fill:none; stroke:#999900; stroke-width:1.0"  /><polyline points="166.984126984127,157.67195767195767 163.59788359788362,158.73015873015873 162.96296296296296,158.73015873015873 162.32804232804233,158.94179894179896 161.6931216931217,159.15343915343917 161.05820105820106,159.36507936507937 160.42328042328043,159.5767195767196 159.7883597883598,159.7883597883598 159.15343915343917,160.0 158.51851851851853,160.21164021164023 157.8835978835979,160.42328042328043 157.24867724867727,160.84656084656086 156.61375661375664,160.84656084656086 155.978835978836,161.2698412698413 155.34391534391534,161.4814814814815 154.7089947089947,161.6931216931217 154.07407407407408,162.11640211640213 153.43915343915344,162.32804232804233 152.8042328042328,162.53968253968256 152.16931216931218,162.96296296296296 151.53439153439155,163.1746031746032 150.8994708994709,163.3862433862434 150.26455026455028,163.80952380952382 149.62962962962965,164.02116402116403 148.99470899470901,164.23280423280426 148.35978835978838,164.65608465608466 147.72486772486775,164.8677248677249 147.0899470899471,165.2910052910053 146.45502645502646,165.50264550264552 145.82010582010582,165.92592592592595 145.1851851851852,166.13756613756615 144.55026455026456,166.34920634920636 144.12698412698413,166.7724867724868 143.4920634920635,166.984126984127 142.85714285714286,167.19576719576722 142.22222222222223,167.40740740740742 141.5873015873016,167.61904761904762 140.95238095238096,167.61904761904762 140.31746031746033,167.61904761904762 139.6825396825397,167.61904761904762 139.04761904761907,167.61904761904762 138.41269841269843,167.40740740740742 137.7777777777778,167.40740740740742 137.14285714285717,166.984126984127 136.5079365079365,166.56084656084658 135.87301587301587,166.13756613756615 135.44973544973547,165.71428571428572 135.02645502645504,165.0793650793651 134.6031746031746,164.44444444444446 134.3915343915344,163.80952380952382 134.17989417989418,163.1746031746032 133.96825396825398,162.53968253968256 133.75661375661377,161.90476190476193 133.75661375661377,161.2698412698413 133.54497354497354,160.63492063492066 133.54497354497354,160.0 133.54497354497354,159.36507936507937 133.75661375661377,158.73015873015873 133.75661375661377,158.0952380952381 133.75661375661377,157.46031746031747 133.75661375661377,156.82539682539684 133.96825396825398,156.1904761904762 134.17989417989418,155.55555555555557 134.17989417989418,154.92063492063494 134.3915343915344,154.2857142857143 134.6031746031746,153.65079365079367 134.6031746031746,153.01587301587304 134.81481481481484,152.38095238095238 135.02645502645504,151.74603174603175 135.02645502645504,151.11111111111111 135.23809523809524,150.47619047619048 135.44973544973547,149.84126984126985 135.44973544973547,149.20634920634922 135.66137566137567,148.57142857142858 135.66137566137567,147.93650793650795 135.66137566137567,147.30158730158732 135.66137566137567,146.66666666666669 135.66137566137567,146.03174603174605 135.44973544973547,145.39682539682542 135.44973544973547,144.76190476190476 135.23809523809524,144.12698412698413 134.81481481481484,143.4920634920635 134.6031746031746,142.85714285714286 134.17989417989418,142.43386243386246 133.75661375661377,141.7989417989418 133.33333333333334,141.3756613756614 132.9100529100529,140.74074074074076 132.4867724867725,140.31746031746033 132.06349206349208,139.8941798941799 131.64021164021165,139.47089947089947 131.005291005291,139.04761904761907 130.58201058201058,138.62433862433863 129.94708994708995,138.41269841269843 129.31216931216932,137.989417989418 128.67724867724868,137.989417989418 128.04232804232805,137.7777777777778 127.40740740740742,137.56613756613757 126.77248677248679,137.35449735449737 126.13756613756615,137.14285714285717 125.5026455026455,136.93121693121694 124.86772486772487,136.71957671957674 124.23280423280424,136.5079365079365 123.59788359788361,136.5079365079365 122.96296296296298,136.2962962962963 122.32804232804234,136.2962962962963 121.6931216931217,136.2962962962963 121.05820105820106,136.2962962962963 120.42328042328043,136.2962962962963 119.7883597883598,136.2962962962963 119.15343915343917,136.2962962962963 118.51851851851853,136.2962962962963 117.88359788359789,136.2962962962963 117.24867724867725,136.2962962962963 116.61375661375662,136.5079365079365 115.97883597883599,136.5079365079365 115.34391534391536,136.71957671957674 114.70899470899472,136.93121693121694 114.07407407407408,136.93121693121694 113.43915343915344,137.14285714285717 112.80423280423281,137.35449735449737 112.16931216931218,137.56613756613757 111.53439153439155,137.7777777777778 110.89947089947091,137.7777777777778 110.26455026455027,138.2010582010582 109.62962962962963,138.41269841269843 108.994708994709,138.62433862433863 108.35978835978837,138.83597883597884 107.72486772486774,139.04761904761907 107.0899470899471,139.25925925925927 106.45502645502647,139.6825396825397 105.82010582010582,139.8941798941799 105.18518518518519,140.10582010582013 104.55026455026456,140.52910052910053 103.91534391534393,140.74074074074076 103.28042328042329,141.16402116402116 102.64550264550266,141.3756613756614 102.01058201058201,141.5873015873016 101.37566137566138,141.7989417989418 100.74074074074075,142.01058201058203 100.31746031746033,142.43386243386246 99.68253968253968,142.64550264550266 99.04761904761905,143.0687830687831 98.41269841269842,143.4920634920635 97.77777777777779,143.70370370370372 97.35449735449737,144.12698412698413 96.71957671957672,144.33862433862436 96.2962962962963,144.76190476190476 95.66137566137567,144.973544973545 95.23809523809524,145.39682539682542 94.60317460317461,145.82010582010582 94.17989417989419,146.24338624338625 93.75661375661376,146.66666666666669 93.33333333333334,147.30158730158732 92.69841269841271,147.72486772486775 92.27513227513228,148.35978835978838 91.85185185185186,148.78306878306879 91.42857142857143,149.20634920634922 91.00529100529101,149.84126984126985 90.58201058201058,150.26455026455028 90.37037037037038,150.8994708994709 89.94708994708995,151.32275132275134 89.52380952380953,151.95767195767198 89.1005291005291,152.5925925925926 88.67724867724868,153.22751322751324 88.46560846560847,153.86243386243387 88.04232804232805,154.4973544973545 87.61904761904762,154.92063492063494 87.61904761904762,155.55555555555557 87.1957671957672,156.1904761904762 86.98412698412699,156.82539682539684 86.98412698412699,157.46031746031747 86.98412698412699,158.0952380952381 87.1957671957672,158.73015873015873 87.1957671957672,159.36507936507937 87.40740740740742,160.0 87.61904761904762,160.63492063492066 88.04232804232805,161.2698412698413 88.46560846560847,161.90476190476193 88.8888888888889,162.53968253968256 89.31216931216932,163.1746031746032 89.73544973544975,163.59788359788362 90.15873015873017,164.23280423280426 90.58201058201058,164.65608465608466 91.00529100529101,165.0793650793651 91.42857142857143,165.50264550264552 91.85185185185186,165.92592592592595 92.27513227513228,166.34920634920636 92.69841269841271,166.7724867724868 93.12169312169313,167.19576719576722 93.54497354497356,167.61904761904762 93.96825396825398,168.04232804232805 94.60317460317461,168.25396825396825 95.23809523809524,168.67724867724868 95.87301587301587,168.8888888888889 96.50793650793652,169.31216931216932 97.14285714285715,169.73544973544975 97.77777777777779,169.94708994708995 98.41269841269842,170.15873015873018 99.04761904761905,170.58201058201058 99.68253968253968,170.7936507936508 100.31746031746033,171.005291005291 100.95238095238096,171.21693121693124 101.5873015873016,171.42857142857144 102.22222222222223,171.85185185185188 102.85714285714286,172.06349206349208 103.28042328042329,172.4867724867725 103.91534391534393,172.9100529100529 104.55026455026456,173.33333333333334 104.97354497354497,173.75661375661377 105.3968253968254,174.1798941798942 105.82010582010582,174.81481481481484 106.24338624338625,175.44973544973547 106.45502645502647,176.0846560846561 106.66666666666667,176.71957671957674 106.87830687830689,177.35449735449737 107.0899470899471,177.989417989418 107.0899470899471,178.62433862433863 107.0899470899471,179.25925925925927 107.0899470899471,179.8941798941799 107.0899470899471,180.52910052910053 106.66666666666667,180.95238095238096 106.45502645502647,181.5873015873016 106.24338624338625,182.22222222222223 106.03174603174604,182.85714285714286 105.60846560846562,183.2804232804233 105.18518518518519,183.70370370370372 104.76190476190477,184.12698412698415 104.33862433862434,184.55026455026456 103.70370370370371,184.7619047619048 103.06878306878308,185.1851851851852 102.43386243386244,185.39682539682542 101.79894179894181,185.60846560846562 101.16402116402116,185.82010582010582 100.52910052910053,186.03174603174605 99.8941798941799,186.03174603174605 99.25925925925927,186.24338624338625 98.62433862433863,186.24338624338625 97.989417989418,186.24338624338625 97.35449735449737,186.24338624338625 96.71957671957672,186.24338624338625 96.08465608465609,186.24338624338625 95.44973544973546,186.45502645502646 94.81481481481482,186.45502645502646 94.17989417989419,186.45502645502646 93.54497354497356,186.45502645502646 92.91005291005291,186.45502645502646 92.27513227513228,186.45502645502646 91.64021164021165,186.45502645502646 91.00529100529101,186.45502645502646 90.37037037037038,186.24338624338625 89.73544973544975,186.24338624338625 89.1005291005291,186.24338624338625 88.46560846560847,186.03174603174605 87.83068783068784,186.03174603174605 87.1957671957672,185.82010582010582 86.56084656084657,185.60846560846562 85.92592592592594,185.60846560846562 85.29100529100529,185.39682539682542 84.65608465608466,185.39682539682542 84.02116402116403,185.1851851851852 83.3862433862434,184.973544973545 82.75132275132276,184.973544973545 82.11640211640213,184.7619047619048 81.48148148148148,184.33862433862436 80.84656084656085,184.12698412698415 80.21164021164022,183.91534391534393 79.57671957671958,183.91534391534393 78.94179894179895,183.70370370370372 78.30687830687832,183.4920634920635 77.67195767195767,183.2804232804233 77.03703703703704,183.0687830687831 76.4021164021164,182.64550264550266 75.76719576719577,182.64550264550266 75.13227513227514,182.43386243386246 74.49735449735451,182.22222222222223 73.86243386243387,182.01058201058203 73.22751322751323,182.01058201058203 72.5925925925926,181.79894179894183 71.95767195767196,181.5873015873016 71.32275132275133,181.5873015873016 70.6878306878307,181.3756613756614 70.05291005291006,181.3756613756614 69.41798941798942,181.16402116402116 68.78306878306879,181.16402116402116 68.14814814814815,180.95238095238096 67.51322751322752,180.95238095238096 66.87830687830689,180.74074074074076 66.24338624338625,180.74074074074076 65.60846560846561,180.52910052910053 64.97354497354497,180.52910052910053 64.33862433862434,180.31746031746033 63.70370370370371,180.31746031746033 63.06878306878308,180.31746031746033 62.43386243386244,180.31746031746033 61.798941798941804,180.10582010582013 61.16402116402117,180.10582010582013 60.52910052910053,179.8941798941799 59.8941798941799,179.8941798941799 59.25925925925927,179.8941798941799 58.62433862433863,179.8941798941799 57.989417989417994,179.8941798941799 57.35449735449736,179.8941798941799 56.71957671957672,179.8941798941799 56.08465608465609,179.8941798941799 51.851851851851855,179.4708994708995" style="fill:none; stroke:#00aa99; stroke-width:1.0"  /><polyline points="51.851851851851855,179.4708994708995 51.851851851851855,176.71957671957674 51.851851851851855,176.0846560846561 51.851851851851855,175.44973544973547 51.851851851851855,174.81481481481484 51.851851851851855,174.1798941798942 51.851851851851855,173.54497354497354 51.851851851851855,172.9100529100529 51.851851851851855,172.27513227513228 51.851851851851855,171.64021164021165 51.851851851851855,171.005291005291 51.851851851851855,170.37037037037038 51.851851851851855,169.73544973544975 51.851851851851855,169.10052910052912 51.851851851851855,168.46560846560848 51.851851851851855,167.83068783068785 51.851851851851855,167.19576719576722 51.851851851851855,166.56084656084658 51.851851851851855,165.92592592592595 51.851851851851855,165.2910052910053 51.851851851851855,164.65608465608466 52.06349206349207,164.02116402116403 52.06349206349207,163.3862433862434 52.06349206349207,162.75132275132276 52.06349206349207,162.11640211640213 52.06349206349207,161.4814814814815 52.06349206349207,160.84656084656086 52.06349206349207,160.21164021164023 52.06349206349207,159.5767195767196 52.06349206349207,158.94179894179896 52.27513227513228,158.30687830687833 52.27513227513228,157.67195767195767 52.27513227513228,157.03703703703704 52.27513227513228,156.4021164021164 52.27513227513228,155.76719576719577 52.27513227513228,155.13227513227514 52.27513227513228,154.4973544973545 52.48677248677249,153.86243386243387 52.48677248677249,153.22751322751324 52.48677248677249,152.5925925925926 52.48677248677249,151.95767195767198 52.6984126984127,151.32275132275134 52.6984126984127,150.6878306878307 52.6984126984127,150.05291005291005 52.6984126984127,149.41798941798942 52.91005291005291,148.78306878306879 52.91005291005291,148.14814814814815 52.91005291005291,147.51322751322752 53.12169312169313,146.8783068783069 53.12169312169313,146.24338624338625 53.12169312169313,145.60846560846562 53.333333333333336,144.973544973545 53.333333333333336,144.33862433862436 53.333333333333336,143.70370370370372 53.54497354497355,143.0687830687831 53.333333333333336,142.43386243386246 53.333333333333336,141.7989417989418 53.54497354497355,141.16402116402116 53.75661375661376,140.52910052910053 53.75661375661376,139.8941798941799 53.75661375661376,139.25925925925927 53.968253968253975,138.62433862433863 53.968253968253975,137.989417989418 53.968253968253975,137.35449735449737 53.968253968253975,136.71957671957674 53.968253968253975,136.0846560846561 53.75661375661376,135.44973544973547 53.75661375661376,134.81481481481484 53.75661375661376,134.17989417989418 53.75661375661376,133.54497354497354 53.54497354497355,132.9100529100529 53.54497354497355,132.27513227513228 53.333333333333336,131.64021164021165 53.12169312169313,131.005291005291 52.91005291005291,130.37037037037038 52.6984126984127,129.73544973544975 52.48677248677249,129.10052910052912 52.27513227513228,128.46560846560848 51.851851851851855,127.83068783068784 51.42857142857143,127.1957671957672 51.00529100529101,126.77248677248679 50.58201058201058,126.13756613756615 49.94708994708995,125.71428571428572 49.31216931216932,125.2910052910053 48.677248677248684,125.07936507936509 48.042328042328045,124.86772486772487 47.40740740740741,124.65608465608466 46.77248677248678,124.65608465608466 46.13756613756614,124.65608465608466 45.50264550264551,124.65608465608466 44.867724867724874,124.65608465608466 44.232804232804234,124.65608465608466 43.5978835978836,124.86772486772487 42.96296296296297,125.07936507936509 42.32804232804233,125.2910052910053 41.6931216931217,125.5026455026455 41.058201058201064,125.71428571428572 40.423280423280424,125.92592592592594 39.78835978835979,126.34920634920636 39.15343915343916,126.56084656084657 38.730158730158735,126.98412698412699 38.095238095238095,127.1957671957672 37.46031746031746,127.61904761904763 36.82539682539683,128.04232804232805 36.19047619047619,128.46560846560848 35.76719576719577,128.88888888888889 35.13227513227513,129.31216931216932 34.4973544973545,129.73544973544975 33.86243386243387,130.15873015873018 33.22751322751323,130.58201058201058 32.592592592592595,131.005291005291 32.16931216931217,131.42857142857144 31.53439153439154,131.85185185185185 30.899470899470902,132.27513227513228 30.476190476190478,132.6984126984127 30.052910052910054,133.12169312169314 29.41798941798942,133.54497354497354 28.783068783068785,133.96825396825398 28.14814814814815,134.3915343915344 27.513227513227516,134.6031746031746 27.089947089947092,135.02645502645504 26.455026455026456,135.23809523809524 25.820105820105823,135.66137566137567 25.185185185185187,135.87301587301587 24.55026455026455,136.0846560846561 23.915343915343918,136.2962962962963 23.280423280423282,136.71957671957674 22.645502645502646,136.93121693121694 22.010582010582013,136.93121693121694 21.375661375661377,137.14285714285717 20.740740740740744,137.14285714285717 20.105820105820108,137.35449735449737 19.47089947089947,137.35449735449737 18.83597883597884,137.56613756613757 18.201058201058203,137.56613756613757 17.566137566137566,137.56613756613757 16.931216931216934,137.56613756613757 16.296296296296298,137.56613756613757 15.661375661375663,137.35449735449737 15.026455026455027,137.35449735449737 14.391534391534393,137.14285714285717 13.756613756613758,136.93121693121694 13.121693121693122,136.71957671957674 12.486772486772487,136.5079365079365 11.851851851851853,136.2962962962963 11.216931216931219,135.87301587301587 10.582010582010582,135.44973544973547 9.947089947089948,135.02645502645504 9.312169312169313,134.6031746031746 8.677248677248677,134.17989417989418 8.042328042328043,133.75661375661377 7.407407407407408,133.33333333333334 6.984126984126985,132.9100529100529 6.560846560846561,132.4867724867725 6.137566137566138,132.06349206349208 5.714285714285714,131.64021164021165 5.291005291005291,131.005291005291 4.867724867724868,130.37037037037038 4.444444444444445,129.94708994708995 4.021164021164021,129.31216931216932 3.597883597883598,128.88888888888889 3.174603174603175,128.25396825396825 2.7513227513227516,127.61904761904763 2.3280423280423284,126.98412698412699 2.1164021164021167,126.34920634920636 1.6931216931216932,125.71428571428572 1.4814814814814816,125.07936507936509 1.26984126984127,124.44444444444446 1.0582010582010584,123.80952380952382 0.8465608465608466,123.17460317460318 0.8465608465608466,122.53968253968254 0.634920634920635,121.90476190476191 0.4232804232804233,121.26984126984128 0.4232804232804233,120.63492063492065 0.4232804232804233,120.00000000000001 0.21164021164021166,119.36507936507937 0.21164021164021166,118.73015873015873 0.21164021164021166,118.0952380952381 0.21164021164021166,117.46031746031747 0.21164021164021166,116.82539682539684 0.4232804232804233,116.1904761904762 0.4232804232804233,115.55555555555557 0.4232804232804233,114.92063492063492 0.634920634920635,114.28571428571429 0.8465608465608466,113.65079365079366 0.8465608465608466,113.01587301587303 1.0582010582010584,112.3809523809524 1.26984126984127,111.74603174603176 1.26984126984127,111.11111111111111 1.4814814814814816,110.47619047619048 1.6931216931216932,109.84126984126985 1.9047619047619049,109.20634920634922 2.1164021164021167,108.57142857142858 2.3280423280423284,107.93650793650795 2.3280423280423284,107.3015873015873 2.7513227513227516,106.66666666666667 2.9629629629629632,106.03174603174604 3.3862433862433865,105.3968253968254 3.8095238095238098,104.76190476190477 4.2328042328042335,104.12698412698414 4.656084656084657,103.70370370370371 5.07936507936508,103.06878306878308 5.502645502645503,102.64550264550266 5.9259259259259265,102.22222222222223 6.34920634920635,101.79894179894181 6.984126984126985,101.37566137566138 7.407407407407408,100.95238095238096 7.830687830687832,100.52910052910053 8.465608465608467,100.10582010582011 8.677248677248677,99.47089947089948 8.88888888888889,98.83597883597885 9.312169312169313,99.25925925925927 9.947089947089948,99.25925925925927 10.582010582010582,98.83597883597885 11.216931216931219,98.62433862433863 11.851851851851853,98.2010582010582 12.486772486772487,97.989417989418 13.121693121693122,97.77777777777779 13.544973544973546,97.35449735449737 14.17989417989418,97.35449735449737 14.603174603174605,96.93121693121694 15.238095238095239,96.93121693121694 15.873015873015873,96.93121693121694 16.50793650793651,96.93121693121694 17.142857142857146,96.93121693121694 17.77777777777778,96.93121693121694 18.412698412698415,96.93121693121694 19.047619047619047,97.14285714285715 19.682539682539684,97.14285714285715 20.31746031746032,97.35449735449737 20.952380952380953,97.56613756613757 21.58730158730159,97.56613756613757 22.222222222222225,97.77777777777779 22.857142857142858,97.989417989418 23.492063492063494,98.2010582010582 24.12698412698413,98.2010582010582 24.761904761904763,98.62433862433863 25.3968253968254,98.83597883597885 26.031746031746035,99.04761904761905 26.666666666666668,99.25925925925927 27.301587301587304,99.68253968253968 27.93650793650794,99.8941798941799 28.571428571428573,100.31746031746033 29.20634920634921,100.52910052910053 29.841269841269842,100.74074074074075 30.264550264550266,101.16402116402116 30.899470899470902,101.37566137566138 31.53439153439154,101.5873015873016 32.16931216931217,102.01058201058201 32.804232804232804,102.22222222222223 33.43915343915344,102.43386243386244 34.074074074074076,102.64550264550266 34.70899470899471,102.85714285714286 35.34391534391535,103.06878306878308 35.97883597883598,103.28042328042329 36.613756613756614,103.4920634920635 37.248677248677254,103.70370370370371 37.883597883597886,103.70370370370371 38.51851851851852,103.91534391534393 39.15343915343916,104.12698412698414 39.78835978835979,104.12698412698414 40.423280423280424,104.12698412698414 41.058201058201064,104.12698412698414 41.6931216931217,104.12698412698414 42.32804232804233,104.12698412698414 42.96296296296297,103.91534391534393 43.5978835978836,103.70370370370371 44.232804232804234,103.4920634920635 44.867724867724874,103.06878306878308 45.50264550264551,102.64550264550266 46.13756613756614,102.22222222222223 46.560846560846564,101.79894179894181 46.98412698412699,101.16402116402116 47.40740740740741,100.52910052910053 47.61904761904762,99.8941798941799 47.830687830687836,99.25925925925927 48.042328042328045,98.62433862433863 48.042328042328045,97.989417989418 48.25396825396826,97.35449735449737 48.25396825396826,96.71957671957672 48.25396825396826,96.08465608465609 48.25396825396826,95.44973544973546 48.25396825396826,94.81481481481482 48.042328042328045,94.17989417989419 48.042328042328045,93.54497354497356 48.042328042328045,92.91005291005291 47.830687830687836,92.27513227513228 47.61904761904762,91.64021164021165 47.61904761904762,91.00529100529101 47.40740740740741,90.37037037037038 47.195767195767196,89.73544973544975 46.98412698412699,89.1005291005291 46.77248677248678,88.46560846560847 46.349206349206355,87.83068783068784 46.13756613756614,87.1957671957672 45.714285714285715,86.56084656084657 45.50264550264551,85.92592592592594 45.07936507936508,85.5026455026455 44.65608465608466,84.86772486772487 44.232804232804234,84.23280423280424 43.80952380952381,83.59788359788361 43.386243386243386,83.17460317460318 42.96296296296297,82.53968253968254 42.539682539682545,81.90476190476191 42.11640211640212,81.48148148148148 41.6931216931217,80.84656084656085 41.26984126984127,80.42328042328043 40.84656084656085,79.7883597883598 40.423280423280424,79.36507936507937 40.0,78.94179894179895 39.57671957671958,78.30687830687832 39.15343915343916,77.88359788359789 38.730158730158735,77.46031746031747 38.30687830687831,77.03703703703704 37.883597883597886,76.4021164021164 37.46031746031746,75.97883597883599 37.03703703703704,75.55555555555556 36.613756613756614,75.13227513227514 36.19047619047619,74.70899470899471 35.76719576719577,74.28571428571429 35.34391534391535,73.86243386243387 34.920634920634924,73.43915343915344 34.4973544973545,73.01587301587303 34.074074074074076,72.5925925925926 33.43915343915344,72.16931216931218 33.01587301587302,71.53439153439155 32.38095238095239,71.11111111111111 31.95767195767196,70.6878306878307 31.53439153439154,70.26455026455027 31.111111111111114,69.84126984126985 30.68783068783069,69.41798941798942 30.264550264550266,68.994708994709 29.841269841269842,68.57142857142858 29.41798941798942,68.14814814814815 28.994708994708997,67.72486772486774 28.571428571428573,67.3015873015873 28.14814814814815,66.87830687830689 27.724867724867728,66.45502645502646 27.301587301587304,66.03174603174604 26.87830687830688,65.60846560846561 26.455026455026456,65.18518518518519 26.031746031746035,64.55026455026456 25.60846560846561,64.12698412698413 25.185185185185187,63.492063492063494 24.761904761904763,62.85714285714286 24.338624338624342,62.22222222222223 23.915343915343918,61.58730158730159 23.492063492063494,61.16402116402117 23.06878306878307,60.52910052910053 22.857142857142858,59.8941798941799 22.433862433862437,59.25925925925927 22.222222222222225,58.62433862433863 21.7989417989418,57.989417989417994 21.58730158730159,57.35449735449736 21.375661375661377,56.71957671957672 21.164021164021165,56.08465608465609 20.740740740740744,55.449735449735456 20.740740740740744,54.81481481481482 20.31746031746032,54.179894179894184 20.105820105820108,53.54497354497355 19.894179894179896,52.91005291005291 19.894179894179896,52.27513227513228 19.47089947089947,51.640211640211646 19.47089947089947,51.00529100529101 19.25925925925926,50.370370370370374 19.047619047619047,49.73544973544974 19.047619047619047,49.1005291005291 18.83597883597884,48.46560846560847 18.83597883597884,47.830687830687836 17.98941798941799,44.867724867724874" style="fill:none; stroke:#3300bb; stroke-width:1.0"  /><circle cx="17.98941798941799" cy="44.867724867724874" r="2.0" style="fill:none; stroke:#000000aa; stroke-width:0.25" /><circle cx="142.01058201058203" cy="-1.0582010582010584" r="2.0" style="fill:none; stroke:#000000aa; stroke-width:0.25" /><circle cx="166.984126984127" cy="157.67195767195767" r="2.0" style="fill:none; stroke:#000000aa; stroke-width:0.25" /><circle cx="51.851851851851855" cy="179.4708994708995" r="2.0" style="fill:none; stroke:#000000aa; stroke-width:0.25" /><circle cx="18.83597883597884" cy="44.65608465608466" r="2.0" style="fill:none; stroke:#ff3366aa; stroke-width:0.25" /><circle cx="141.3756613756614" cy="0.21164021164021166" r="2.0" style="fill:none; stroke:#ff3366aa; stroke-width:0.25" /><circle cx="166.56084656084658" cy="157.24867724867727" r="2.0" style="fill:none; stroke:#ff3366aa; stroke-width:0.25" /><circle cx="52.48677248677249" cy="179.6825396825397" r="2.0" style="fill:none; stroke:#ff3366aa; stroke-width:0.25" /><polyline points="30.052910052910054,40.63492063492064 29.41798941798942,40.84656084656085 28.783068783068785,41.058201058201064 28.14814814814815,41.26984126984127 27.513227513227516,41.48148148148149 26.87830687830688,41.6931216931217 26.243386243386244,41.904761904761905 25.60846560846561,42.11640211640212 24.973544973544975,42.32804232804233 24.338624338624342,42.539682539682545 23.703703703703706,42.96296296296297 23.06878306878307,43.17460317460318 22.433862433862437,43.386243386243386 21.7989417989418,43.5978835978836" style="fill:none; stroke:#001100; stroke-width:1.0" /><polyline points="21.164021164021165,56.08465608465609 20.740740740740744,55.449735449735456 20.740740740740744,54.81481481481482 20.31746031746032,54.179894179894184 20.105820105820108,53.54497354497355 19.894179894179896,52.91005291005291 19.894179894179896,52.27513227513228 19.47089947089947,51.640211640211646 19.47089947089947,51.00529100529101 19.25925925925926,50.370370370370374 19.047619047619047,49.73544973544974 19.047619047619047,49.1005291005291 18.83597883597884,48.46560846560847 18.83597883597884,47.830687830687836" style="fill:none; stroke:#000011; stroke-width:1.0" /><polyline points="142.64550264550266,12.063492063492065 142.64550264550266,11.428571428571429 142.64550264550266,10.793650793650794 142.64550264550266,10.15873015873016 142.64550264550266,9.523809523809524 142.64550264550266,8.88888888888889 142.64550264550266,8.253968253968255 142.43386243386246,7.6190476190476195 142.43386243386246,6.984126984126985 142.43386243386246,6.34920634920635 142.43386243386246,5.714285714285714 142.43386243386246,5.07936507936508 142.43386243386246,4.444444444444445 142.22222222222223,3.8095238095238098 142.22222222222223,3.174603174603175" style="fill:none; stroke:#001100; stroke-width:1.0" /><polyline points="130.15873015873018,3.597883597883598 130.7936507936508,3.3862433862433865 131.42857142857144,3.174603174603175 132.06349206349208,2.9629629629629632 132.6984126984127,2.7513227513227516 133.33333333333334,2.3280423280423284 133.96825396825398,2.1164021164021167 134.6031746031746,1.9047619047619049 135.23809523809524,1.6931216931216932 135.87301587301587,1.26984126984127 136.5079365079365,1.0582010582010584 137.14285714285717,0.8465608465608466 137.7777777777778,0.634920634920635 138.41269841269843,0.4232804232804233" style="fill:none; stroke:#000011; stroke-width:1.0" /><polyline points="155.34391534391534,161.4814814814815 155.978835978836,161.2698412698413 156.61375661375664,160.84656084656086 157.24867724867727,160.84656084656086 157.8835978835979,160.42328042328043 158.51851851851853,160.21164021164023 159.15343915343917,160.0 159.7883597883598,159.7883597883598 160.42328042328043,159.5767195767196 161.05820105820106,159.36507936507937 161.6931216931217,159.15343915343917 162.32804232804233,158.94179894179896 162.96296296296296,158.73015873015873 163.59788359788362,158.73015873015873" style="fill:none; stroke:#001100; stroke-width:1.0" /><polyline points="161.90476190476193,146.24338624338625 162.32804232804233,146.8783068783069 162.53968253968256,147.51322751322752 162.75132275132276,148.14814814814815 162.96296296296296,148.78306878306879 163.1746031746032,149.41798941798942 163.59788359788362,150.05291005291005 163.80952380952382,150.6878306878307 164.23280423280426,151.32275132275134 164.44444444444446,151.95767195767198 164.65608465608466,152.5925925925926 165.0793650793651,153.22751322751324 165.2910052910053,153.86243386243387" style="fill:none; stroke:#000011; stroke-width:1.0" /><polyline points="51.851851851851855,167.83068783068785 51.851851851851855,168.46560846560848 51.851851851851855,169.10052910052912 51.851851851851855,169.73544973544975 51.851851851851855,170.37037037037038 51.851851851851855,171.005291005291 51.851851851851855,171.64021164021165 51.851851851851855,172.27513227513228 51.851851851851855,172.9100529100529 51.851851851851855,173.54497354497354 51.851851851851855,174.1798941798942 51.851851851851855,174.81481481481484 51.851851851851855,175.44973544973547 51.851851851851855,176.0846560846561 51.851851851851855,176.71957671957674" style="fill:none; stroke:#001100; stroke-width:1.0" /><polyline points="64.33862433862434,180.31746031746033 63.70370370370371,180.31746031746033 63.06878306878308,180.31746031746033 62.43386243386244,180.31746031746033 61.798941798941804,180.10582010582013 61.16402116402117,180.10582010582013 60.52910052910053,179.8941798941799 59.8941798941799,179.8941798941799 59.25925925925927,179.8941798941799 58.62433862433863,179.8941798941799 57.989417989417994,179.8941798941799 57.35449735449736,179.8941798941799 56.71957671957672,179.8941798941799 56.08465608465609,179.8941798941799 55.449735449735456,179.6825396825397" style="fill:none; stroke:#000011; stroke-width:1.0" /><polyline points="21.7989417989418,43.5978835978836 1.9047619047619049,50.7936507936508" style="fill:none; stroke:#ffaa00; stroke-width:0.4" /><polyline points="18.83597883597884,47.830687830687836 13.121693121693122,27.513227513227516" style="fill:none; stroke:#aaff00; stroke-width:0.4" /><polyline points="142.22222222222223,3.174603174603175 141.16402116402116,-17.98941798941799" style="fill:none; stroke:#ffaa00; stroke-width:0.4" /><polyline points="138.41269841269843,0.4232804232804233 158.0952380952381,-7.195767195767196" style="fill:none; stroke:#aaff00; stroke-width:0.4" /><polyline points="163.59788359788362,158.73015873015873 183.70370370370372,151.95767195767198" style="fill:none; stroke:#ffaa00; stroke-width:0.4" /><polyline points="165.2910052910053,153.86243386243387 173.96825396825398,173.12169312169314" style="fill:none; stroke:#aaff00; stroke-width:0.4" /><polyline points="51.851851851851855,176.71957671957674 51.851851851851855,197.8835978835979" style="fill:none; stroke:#ffaa00; stroke-width:0.4" /><polyline points="55.449735449735456,179.6825396825397 34.28571428571429,178.2010582010582" style="fill:none; stroke:#aaff00; stroke-width:0.4" /><circle cx="94.60317460317461" cy="95.66137566137567" r="1.0" style="fill:#444444; stroke-width:0" /><circle cx="101.5873015873016" cy="94.17989417989419" r="10.582010582010582" style="fill:#ff770022; stroke-width:0" /><circle cx="101.5873015873016" cy="94.17989417989419" r="1.0" style="fill:#ff7700; stroke-width:0" /></svg>