<?xml version="1.0" encoding="UTF-8" standalone="no"?><svg width="600.0" height="538.4126984126984" viewBox="-10 -10 220.00000000000003 199.4708994708995" xmlns="http://www.w3.org/2000/svg" xmlns:xlink="http://www.w3.org/1999/xlink"><polyline points="0.0,28.35978835978836 3.174603174603175,28.571428571428573 3.8095238095238098,28.571428571428573 4.444444444444445,28.571428571428573 5.07936507936508,28.571428571428573 5.714285714285714,28.783068783068785 6.34920634920635,28.783068783068785 6.984126984126985,28.994708994708997 7.6190476190476195,28.994708994708997 8.253968253968255,28.994708994708997 8.88888888888889,28.994708994708997 9.523809523809524,28.994708994708997 10.15873015873016,28.994708994708997 10.793650793650794,29.20634920634921 11.428571428571429,29.20634920634921 12.063492063492065,29.20634920634921 12.6984126984127,29.20634920634921 13.333333333333334,29.20634920634921 13.96825396825397,29.20634920634921 14.603174603174605,29.20634920634921 15.238095238095239,29.41798941798942 15.873015873015873,29.41798941798942 16.50793650793651,29.41798941798942 17.142857142857146,29.20634920634921 17.77777777777778,29.20634920634921 18.412698412698415,29.41798941798942 19.047619047619047,29.41798941798942 19.682539682539684,29.41798941798942 20.31746031746032,29.41798941798942 20.952380952380953,29.41798941798942 21.58730158730159,29.41798941798942 22.222222222222225,29.41798941798942 22.857142857142858,29.41798941798942 23.492063492063494,29.41798941798942 24.12698412698413,29.41798941798942 24.761904761904763,29.41798941798942 25.3968253968254,29.20634920634921 26.031746031746035,29.20634920634921 26.666666666666668,29.20634920634921 27.301587301587304,28.994708994708997 27.93650793650794,28.994708994708997 28.571428571428573,28.783068783068785 29.20634920634921,28.783068783068785 29.841269841269842,28.783068783068785 30.476190476190478,28.571428571428573 31.111111111111114,28.35978835978836 31.746031746031747,28.35978835978836 32.38095238095239,28.35978835978836 33.01587301587302,28.14814814814815 33.65079365079365,28.14814814814815 34.28571428571429,27.93650793650794 34.920634920634924,27.93650793650794 35.55555555555556,27.724867724867728 36.19047619047619,27.724867724867728 36.82539682539683,27.513227513227516 37.46031746031746,27.513227513227516 38.095238095238095,27.301587301587304 38.730158730158735,27.301587301587304 39.36507936507937,27.089947089947092 40.0,27.089947089947092 40.63492063492064,26.87830687830688 41.26984126984127,26.666666666666668 41.904761904761905,26.666666666666668 42.539682539682545,26.455026455026456 43.17460317460318,26.243386243386244 43.80952380952381,26.243386243386244 44.44444444444445,26.031746031746035 45.07936507936508,25.820105820105823 45.714285714285715,25.60846560846561 46.349206349206355,25.60846560846561 46.98412698412699,25.3968253968254 47.61904761904762,25.185185185185187 48.25396825396826,25.185185185185187 48.88888888888889,24.973544973544975 49.523809523809526,24.761904761904763 50.158730158730165,24.55026455026455 50.7936507936508,24.55026455026455 51.21693121693122,24.12698412698413 51.851851851851855,24.12698412698413 52.48677248677249,23.915343915343918 53.12169312169313,23.703703703703706 53.75661375661376,23.280423280423282 54.39153439153439,23.280423280423282 55.02645502645503,23.06878306878307 55.661375661375665,22.857142857142858 56.2962962962963,22.645502645502646 56.93121693121694,22.433862433862437 57.56613756613757,22.222222222222225 58.2010582010582,22.010582010582013 58.83597883597884,22.010582010582013 59.470899470899475,21.58730158730159 60.10582010582011,21.375661375661377 60.74074074074075,21.375661375661377 61.37566137566138,20.952380952380953 62.01058201058201,20.740740740740744 62.64550264550265,20.529100529100532 63.280423280423285,20.31746031746032 63.91534391534392,19.894179894179896 64.55026455026456,19.682539682539684 65.18518518518519,19.682539682539684 65.60846560846561,19.25925925925926 66.24338624338625,19.047619047619047 66.87830687830689,18.83597883597884 67.51322751322752,18.624338624338627 68.14814814814815,18.412698412698415 68.78306878306879,18.201058201058203 69.41798941798942,17.98941798941799 70.05291005291006,17.566137566137566 70.6878306878307,17.566137566137566 71.32275132275133,17.354497354497354 71.74603174603175,16.931216931216934 72.38095238095238,16.71957671957672 73.01587301587303,16.50793650793651 73.65079365079366,16.296296296296298 74.28571428571429,16.084656084656086 74.92063492063492,15.873015873015873 75.55555555555556,15.661375661375663 75.97883597883599,15.238095238095239 76.61375661375662,15.026455026455027 77.24867724867725,15.026455026455027 77.88359788359789,14.814814814814817 78.51851851851852,14.603174603174605 79.15343915343917,14.17989417989418 79.57671957671958,13.756613756613758 80.21164021164022,13.544973544973546 80.84656084656085,13.333333333333334 81.48148148148148,12.910052910052912 82.11640211640213,12.910052910052912 82.75132275132276,12.6984126984127 83.17460317460318,12.275132275132275 83.80952380952381,12.275132275132275 84.44444444444446,12.275132275132275 85.07936507936509,12.063492063492065 85.71428571428572,11.851851851851853 86.34920634920636,11.640211640211641 86.98412698412699,11.640211640211641 87.61904761904762,11.640211640211641 88.25396825396827,11.640211640211641 88.8888888888889,11.640211640211641 89.52380952380953,11.851851851851853 90.15873015873017,12.063492063492065 90.7936507936508,12.486772486772487 91.42857142857143,12.910052910052912 91.85185185185186,13.544973544973546 92.27513227513228,14.17989417989418 92.4867724867725,14.814814814814817 92.69841269841271,15.449735449735451 92.91005291005291,16.084656084656086 92.91005291005291,16.71957671957672 92.91005291005291,17.354497354497354 92.91005291005291,17.98941798941799 92.91005291005291,18.624338624338627 92.91005291005291,19.25925925925926 92.91005291005291,19.894179894179896 92.91005291005291,20.529100529100532 92.69841269841271,21.164021164021165 92.69841269841271,21.7989417989418 92.4867724867725,22.433862433862437 92.4867724867725,23.06878306878307 92.4867724867725,23.703703703703706 92.27513227513228,24.338624338624342 92.27513227513228,24.973544973544975 92.06349206349208,25.60846560846561 92.06349206349208,26.243386243386244 91.85185185185186,26.87830687830688 91.85185185185186,27.513227513227516 91.64021164021165,28.14814814814815 91.64021164021165,28.783068783068785 91.42857142857143,29.41798941798942 91.42857142857143,30.052910052910054 91.21693121693123,30.68783068783069 91.21693121693123,31.322751322751326 91.00529100529101,31.95767195767196 91.00529100529101,32.592592592592595 90.7936507936508,33.22751322751323 90.7936507936508,33.86243386243387 90.7936507936508,34.4973544973545 90.58201058201058,35.13227513227513 90.58201058201058,35.76719576719577 90.58201058201058,36.402116402116405 90.58201058201058,37.03703703703704 90.7936507936508,37.67195767195768 90.7936507936508,38.30687830687831 90.7936507936508,38.94179894179894 91.00529100529101,39.57671957671958 91.00529100529101,40.211640211640216 91.21693121693123,40.84656084656085 91.42857142857143,41.48148148148149 91.64021164021165,42.11640211640212 91.85185185185186,42.75132275132275 92.27513227513228,43.386243386243386 92.69841269841271,44.021164021164026 93.12169312169313,44.65608465608466 93.54497354497356,45.07936507936508 93.96825396825398,45.50264550264551 94.60317460317461,45.92592592592593 95.02645502645504,46.349206349206355 95.66137566137567,46.560846560846564 96.08465608465609,46.98412698412699 96.71957671957672,47.40740740740741 97.35449735449737,47.61904761904762 97.989417989418,48.042328042328045 98.62433862433863,48.25396825396826 99.25925925925927,48.46560846560847 99.8941798941799,48.677248677248684 100.52910052910053,49.1005291005291 101.16402116402116,49.31216931216932 101.79894179894181,49.523809523809526 102.43386243386244,49.73544973544974 103.06878306878308,49.94708994708995 103.70370370370371,49.94708994708995 104.33862433862434,50.158730158730165 104.97354497354497,50.370370370370374 105.60846560846562,50.370370370370374 106.24338624338625,50.58201058201058 106.87830687830689,50.58201058201058 107.51322751322752,50.58201058201058 108.14814814814815,50.7936507936508 108.78306878306879,50.7936507936508 109.41798941798943,50.7936507936508 110.05291005291006,50.58201058201058 110.6878306878307,50.7936507936508 111.32275132275133,50.58201058201058 111.95767195767196,50.58201058201058 112.5925925925926,50.58201058201058 113.22751322751324,50.58201058201058 113.86243386243387,50.370370370370374 114.49735449735451,50.370370370370374 115.13227513227514,50.158730158730165 115.76719576719577,49.94708994708995 116.4021164021164,49.73544973544974 117.03703703703705,49.523809523809526 117.67195767195768,49.31216931216932 118.30687830687832,49.31216931216932 118.94179894179895,49.1005291005291 119.57671957671958,48.88888888888889 120.21164021164022,48.677248677248684 120.63492063492065,48.25396825396826 121.26984126984128,48.25396825396826 121.90476190476191,47.830687830687836 122.53968253968254,47.61904761904762 123.17460317460318,47.40740740740741 123.80952380952382,46.98412698412699 124.44444444444446,46.560846560846564 125.07936507936509,46.349206349206355 125.71428571428572,45.92592592592593 126.34920634920636,45.50264550264551 126.98412698412699,45.07936507936508 127.61904761904763,44.65608465608466 128.04232804232805,44.232804232804234 128.67724867724868,43.80952380952381 129.10052910052912,43.386243386243386 129.52380952380955,42.96296296296297 129.94708994708995,42.539682539682545 130.37037037037038,42.11640211640212 130.7936507936508,41.6931216931217 131.21693121693121,41.26984126984127 131.64021164021165,40.63492063492064 132.06349206349208,40.0 132.4867724867725,39.36507936507937 132.9100529100529,38.730158730158735 133.12169312169314,38.095238095238095 133.33333333333334,37.46031746031746 133.33333333333334,36.82539682539683 133.54497354497354,36.19047619047619 133.75661375661377,35.55555555555556 133.96825396825398,34.920634920634924 134.17989417989418,34.28571428571429 134.17989417989418,33.65079365079365 134.17989417989418,33.01587301587302 134.17989417989418,32.38095238095239 134.17989417989418,31.746031746031747 134.17989417989418,31.111111111111114 134.17989417989418,30.476190476190478 133.96825396825398,29.841269841269842 133.75661375661377,29.20634920634921 133.33333333333334,28.571428571428573 133.12169312169314,27.93650793650794 132.9100529100529,27.301587301587304 132.4867724867725,26.666666666666668 132.06349206349208,26.243386243386244 131.64021164021165,25.60846560846561 131.21693121693121,24.973544973544975 130.7936507936508,24.55026455026455 130.37037037037038,23.915343915343918 129.94708994708995,23.492063492063494 129.52380952380955,22.857142857142858 129.10052910052912,22.433862433862437 128.67724867724868,21.7989417989418 128.25396825396825,21.375661375661377 127.83068783068784,20.740740740740744 127.40740740740742,20.31746031746032 126.98412698412699,19.682539682539684 126.56084656084657,19.25925925925926 126.13756613756615,18.624338624338627 125.71428571428572,17.98941798941799 125.2910052910053,17.354497354497354 124.86772486772487,16.71957671957672 124.44444444444446,16.084656084656086 124.02116402116403,15.449735449735451 123.59788359788361,14.814814814814817 123.17460317460318,14.17989417989418 122.75132275132276,13.544973544973546 122.53968253968254,12.910052910052912 122.11640211640213,12.486772486772487 121.90476190476191,11.851851851851853 121.4814814814815,11.216931216931219 121.26984126984128,10.582010582010582 121.05820105820106,9.947089947089948 120.84656084656086,9.312169312169313 120.63492063492065,8.677248677248677 120.42328042328043,8.042328042328043 120.00000000000001,7.407407407407408 120.00000000000001,6.772486772486773 120.00000000000001,6.137566137566138 119.7883597883598,5.502645502645503 120.00000000000001,4.867724867724868 120.00000000000001,4.2328042328042335 120.42328042328043,3.597883597883598 120.63492063492065,2.9629629629629632 121.05820105820106,2.53968253968254 121.26984126984128,1.9047619047619049 121.90476190476191,1.4814814814814816 122.53968253968254,1.26984126984127 123.17460317460318,1.0582010582010584 123.59788359788361,0.4232804232804233 124.23280423280424,0.4232804232804233 124.86772486772487,0.21164021164021166 125.5026455026455,0.21164021164021166 126.13756613756615,0.21164021164021166 126.77248677248679,0.21164021164021166 127.40740740740742,0.21164021164021166 128.04232804232805,0.21164021164021166 128.67724867724868,0.21164021164021166 129.31216931216932,0.21164021164021166 129.94708994708995,0.21164021164021166 130.58201058201058,0.21164021164021166 131.21693121693121,0.21164021164021166 131.85185185185185,0.4232804232804233 132.4867724867725,0.4232804232804233 133.12169312169314,0.4232804232804233 133.75661375661377,0.21164021164021166 134.3915343915344,0.21164021164021166 135.02645502645504,0.21164021164021166 135.66137566137567,0.4232804232804233 136.2962962962963,0.4232804232804233 136.93121693121694,0.634920634920635 137.56613756613757,0.634920634920635 138.2010582010582,0.634920634920635 138.83597883597884,0.634920634920635 139.47089947089947,0.8465608465608466 140.10582010582013,0.634920634920635 140.74074074074076,0.8465608465608466 141.3756613756614,0.8465608465608466 142.01058201058203,1.0582010582010584 142.64550264550266,1.26984126984127 143.2804232804233,1.26984126984127 143.91534391534393,1.26984126984127 144.55026455026456,1.4814814814814816 145.1851851851852,1.4814814814814816 145.82010582010582,1.6931216931216932 146.45502645502646,1.6931216931216932 147.0899470899471,1.6931216931216932 147.72486772486775,1.9047619047619049 148.35978835978838,1.9047619047619049 148.99470899470901,2.1164021164021167 149.62962962962965,2.1164021164021167 150.26455026455028,2.3280423280423284 150.8994708994709,2.3280423280423284 151.53439153439155,2.3280423280423284 152.16931216931218,2.53968253968254 152.8042328042328,2.53968253968254 153.43915343915344,2.7513227513227516 154.07407407407408,2.7513227513227516 154.7089947089947,2.9629629629629632 155.34391534391534,2.9629629629629632 155.978835978836,2.9629629629629632 156.61375661375664,3.174603174603175 157.24867724867727,3.174603174603175 157.8835978835979,3.174603174603175 158.51851851851853,3.3862433862433865 159.15343915343917,3.3862433862433865 159.7883597883598,3.3862433862433865 160.42328042328043,3.597883597883598 161.05820105820106,3.597883597883598 161.6931216931217,3.597883597883598 162.32804232804233,3.597883597883598 162.96296296296296,3.597883597883598 163.59788359788362,3.597883597883598 164.23280423280426,3.597883597883598 164.8677248677249,3.597883597883598 165.50264550264552,3.597883597883598 168.8888888888889,3.8095238095238098" style="fill:none; stroke:#cc0000; stroke-width:1.0"  /><polyline points="168.8888888888889,3.8095238095238098 168.46560846560848,6.984126984126985 168.25396825396825,7.6190476190476195 168.25396825396825,8.253968253968255 168.04232804232805,8.88888888888889 168.04232804232805,9.523809523809524 168.04232804232805,10.15873015873016 167.83068783068785,10.793650793650794 167.83068783068785,11.428571428571429 167.83068783068785,12.063492063492065 167.61904761904762,12.6984126984127 167.61904761904762,13.333333333333334 167.61904761904762,13.96825396825397 167.40740740740742,14.603174603174605 167.40740740740742,15.238095238095239 167.40740740740742,15.873015873015873 167.19576719576722,16.50793650793651 167.19576719576722,17.142857142857146 166.984126984127,17.77777777777778 166.984126984127,18.412698412698415 166.984126984127,19.047619047619047 166.7724867724868,19.682539682539684 166.56084656084658,20.31746031746032 166.56084656084658,20.952380952380953 166.34920634920636,21.58730158730159 166.34920634920636,22.222222222222225 166.34920634920636,22.857142857142858 166.13756613756615,23.492063492063494 166.13756613756615,24.12698412698413 166.13756613756615,24.761904761904763 165.92592592592595,25.3968253968254 165.92592592592595,26.031746031746035 165.71428571428572,26.666666666666668 165.71428571428572,27.301587301587304 165.71428571428572,27.93650793650794 165.71428571428572,28.571428571428573 165.50264550264552,29.20634920634921 165.50264550264552,29.841269841269842 165.50264550264552,30.476190476190478 165.50264550264552,31.111111111111114 165.2910052910053,31.746031746031747 165.2910052910053,32.38095238095239 165.2910052910053,33.01587301587302 165.2910052910053,33.65079365079365 165.0793650793651,34.28571428571429 165.0793650793651,34.920634920634924 165.0793650793651,35.55555555555556 165.0793650793651,36.19047619047619 165.0793650793651,36.82539682539683 165.0793650793651,37.46031746031746 165.0793650793651,38.095238095238095 165.0793650793651,38.730158730158735 165.0793650793651,39.36507936507937 165.0793650793651,40.0 165.0793650793651,40.63492063492064 164.8677248677249,41.26984126984127 164.8677248677249,41.904761904761905 164.8677248677249,42.539682539682545 164.8677248677249,43.17460317460318 164.8677248677249,43.80952380952381 164.8677248677249,44.44444444444445 164.8677248677249,45.07936507936508 164.65608465608466,45.714285714285715 164.65608465608466,46.349206349206355 164.65608465608466,46.98412698412699 164.65608465608466,47.61904761904762 164.65608465608466,48.25396825396826 164.65608465608466,48.88888888888889 164.65608465608466,49.523809523809526 164.44444444444446,50.158730158730165 164.44444444444446,50.7936507936508 164.44444444444446,51.42857142857143 164.44444444444446,52.06349206349207 164.44444444444446,52.6984126984127 164.44444444444446,53.333333333333336 164.44444444444446,53.968253968253975 164.44444444444446,54.60317460317461 164.44444444444446,55.23809523809524 164.44444444444446,55.87301587301588 164.44444444444446,56.50793650793651 164.44444444444446,57.142857142857146 164.44444444444446,57.777777777777786 164.44444444444446,58.41269841269842 164.44444444444446,59.04761904761905 164.8677248677249,59.682539682539684 164.8677248677249,60.31746031746032 165.0793650793651,60.952380952380956 165.2910052910053,61.58730158730159 165.71428571428572,62.01058201058201 166.13756613756615,62.64550264550265 166.56084656084658,63.280423280423285 166.984126984127,63.70370370370371 167.61904761904762,64.12698412698413 168.25396825396825,64.55026455026456 168.8888888888889,64.55026455026456 169.52380952380955,64.76190476190477 170.15873015873018,64.97354497354497 170.7936507936508,64.97354497354497 171.42857142857144,64.97354497354497 172.06349206349208,64.97354497354497 172.6984126984127,64.76190476190477 173.33333333333334,64.76190476190477 173.75661375661377,64.12698412698413 174.3915343915344,64.12698412698413 175.02645502645504,63.70370370370371 175.66137566137567,63.280423280423285 176.2962962962963,62.85714285714286 176.71957671957674,62.22222222222223 177.35449735449737,61.798941798941804 177.7777777777778,61.37566137566138 178.2010582010582,60.952380952380956 178.62433862433863,60.52910052910053 179.04761904761907,60.10582010582011 179.4708994708995,59.682539682539684 179.8941798941799,59.04761904761905 180.31746031746033,58.62433862433863 180.74074074074076,58.2010582010582 181.16402116402116,57.56613756613757 181.5873015873016,57.142857142857146 182.01058201058203,56.50793650793651 182.43386243386246,56.08465608465609 182.85714285714286,55.661375661375665 183.2804232804233,55.23809523809524 183.70370370370372,54.81481481481482 184.33862433862436,54.39153439153439 184.973544973545,53.968253968253975 185.60846560846562,53.75661375661376 186.24338624338625,53.54497354497355 186.66666666666669,53.12169312169313 187.30158730158732,53.333333333333336 187.93650793650795,53.12169312169313 188.57142857142858,53.12169312169313 189.20634920634922,53.12169312169313 189.84126984126985,53.12169312169313 190.47619047619048,53.12169312169313 191.11111111111111,53.333333333333336 191.74603174603175,53.333333333333336 192.3809523809524,53.54497354497355 193.01587301587304,53.968253968253975 193.65079365079367,54.39153439153439 194.07407407407408,54.81481481481482 194.4973544973545,55.23809523809524 194.92063492063494,55.661375661375665 195.34391534391537,56.2962962962963 195.76719576719577,56.71957671957672 196.1904761904762,57.35449735449736 196.61375661375664,57.989417989417994 196.82539682539684,58.62433862433863 197.24867724867727,59.04761904761905 197.46031746031747,59.682539682539684 197.8835978835979,60.31746031746032 198.0952380952381,60.952380952380956 198.30687830687833,61.58730158730159 198.51851851851853,62.22222222222223 198.73015873015873,62.85714285714286 198.73015873015873,63.492063492063494 198.94179894179896,64.12698412698413 199.15343915343917,64.76190476190477 199.15343915343917,65.3968253968254 199.15343915343917,66.03174603174604 199.15343915343917,66.66666666666667 199.15343915343917,67.3015873015873 199.15343915343917,67.93650793650794 199.36507936507937,68.57142857142858 199.36507936507937,69.20634920634922 199.36507936507937,69.84126984126985 199.36507936507937,70.47619047619048 199.36507936507937,71.11111111111111 199.36507936507937,71.74603174603175 199.5767195767196,72.38095238095238 199.5767195767196,73.01587301587303 199.5767195767196,73.65079365079366 199.36507936507937,74.28571428571429 199.36507936507937,74.92063492063492 199.5767195767196,75.55555555555556 199.36507936507937,76.19047619047619 199.36507936507937,76.82539682539684 199.36507936507937,77.46031746031747 199.36507936507937,78.0952380952381 199.36507936507937,78.73015873015873 199.36507936507937,79.36507936507937 199.36507936507937,80.0 199.15343915343917,80.63492063492065 199.15343915343917,81.26984126984128 198.94179894179896,81.90476190476191 198.73015873015873,82.53968253968254 198.51851851851853,83.17460317460318 198.30687830687833,83.80952380952381 197.8835978835979,84.23280423280424 197.6719576719577,84.86772486772487 197.24867724867727,85.29100529100529 196.82539682539684,85.71428571428572 196.4021164021164,86.13756613756614 195.978835978836,86.56084656084657 195.34391534391537,86.77248677248677 194.70899470899474,87.1957671957672 194.07407407407408,87.61904761904762 193.43915343915344,87.83068783068784 192.8042328042328,88.25396825396827 192.16931216931218,88.46560846560847 191.53439153439155,88.67724867724868 190.8994708994709,89.1005291005291 190.26455026455028,89.31216931216932 189.62962962962965,89.73544973544975 188.99470899470901,89.94708994708995 188.35978835978838,90.15873015873017 187.72486772486775,90.58201058201058 187.08994708994712,90.7936507936508 186.45502645502646,91.00529100529101 185.82010582010582,91.21693121693123 185.1851851851852,91.64021164021165 184.55026455026456,91.85185185185186 183.91534391534393,92.06349206349208 183.2804232804233,92.4867724867725 182.64550264550266,92.69841269841271 182.01058201058203,92.91005291005291 181.3756613756614,93.12169312169313 180.74074074074076,93.54497354497356 180.10582010582013,93.75661375661376 179.4708994708995,93.96825396825398 178.83597883597884,94.17989417989419 178.2010582010582,94.60317460317461 177.56613756613757,95.02645502645504 176.93121693121694,95.23809523809524 176.50793650793653,95.66137566137567 175.87301587301587,96.08465608465609 175.44973544973547,96.50793650793652 175.02645502645504,96.93121693121694 174.6031746031746,97.56613756613757 174.1798941798942,98.2010582010582 173.96825396825398,98.83597883597885 173.96825396825398,99.47089947089948 173.75661375661377,100.10582010582011 173.75661375661377,100.74074074074075 173.75661375661377,101.37566137566138 173.75661375661377,102.01058201058201 173.96825396825398,102.64550264550266 174.1798941798942,103.28042328042329 174.3915343915344,103.91534391534393 174.6031746031746,104.55026455026456 174.81481481481484,105.18518518518519 175.02645502645504,105.82010582010582 175.23809523809524,106.45502645502647 175.66137566137567,107.0899470899471 176.0846560846561,107.72486772486774 176.2962962962963,108.35978835978837 176.50793650793653,108.994708994709 176.71957671957674,109.62962962962963 177.14285714285717,110.26455026455027 177.35449735449737,110.89947089947091 177.7777777777778,111.53439153439155 177.989417989418,112.16931216931218 178.2010582010582,112.80423280423281 178.41269841269843,113.43915343915344 178.83597883597884,114.07407407407408 179.04761904761907,114.70899470899472 179.25925925925927,115.34391534391536 179.6825396825397,115.97883597883599 179.8941798941799,116.61375661375662 180.10582010582013,117.24867724867725 180.52910052910053,117.88359788359789 180.74074074074076,118.51851851851853 180.95238095238096,119.15343915343917 181.16402116402116,119.7883597883598 181.5873015873016,120.42328042328043 181.79894179894183,121.05820105820106 182.22222222222223,121.4814814814815 182.43386243386246,122.11640211640213 182.85714285714286,122.75132275132276 183.2804232804233,123.3862433862434 183.4920634920635,124.02116402116403 183.91534391534393,124.44444444444446 184.12698412698415,125.07936507936509 184.55026455026456,125.71428571428572 184.973544973545,126.34920634920636 185.39682539682542,126.98412698412699 185.82010582010582,127.61904761904763 186.03174603174605,128.25396825396825 186.45502645502646,128.67724867724868 186.8783068783069,129.31216931216932 187.30158730158732,129.94708994708995 187.51322751322752,130.58201058201058 187.93650793650795,131.005291005291 188.35978835978838,131.64021164021165 188.78306878306879,132.27513227513228 189.20634920634922,132.6984126984127 189.62962962962965,133.33333333333334 190.05291005291008,133.96825396825398 190.47619047619048,134.6031746031746 190.8994708994709,135.23809523809524 191.32275132275134,135.66137566137567 191.74603174603175,136.2962962962963 192.16931216931218,136.93121693121694 192.5925925925926,137.35449735449737 194.70899470899474,140.31746031746033" style="fill:none; stroke:#999900; stroke-width:1.0"  /><polyline points="194.70899470899474,140.31746031746033 191.32275132275134,140.52910052910053 190.6878306878307,140.74074074074076 190.05291005291008,140.74074074074076 189.41798941798945,140.74074074074076 188.78306878306879,140.74074074074076 188.14814814814815,140.95238095238096 187.51322751322752,140.95238095238096 186.8783068783069,140.95238095238096 186.24338624338625,140.95238095238096 185.60846560846562,140.95238095238096 184.973544973545,140.95238095238096 184.33862433862436,141.16402116402116 183.70370370370372,141.16402116402116 183.0687830687831,141.16402116402116 182.43386243386246,141.16402116402116 181.79894179894183,141.3756613756614 181.16402116402116,141.3756613756614 180.52910052910053,141.3756613756614 179.8941798941799,141.5873015873016 179.25925925925927,141.5873015873016 178.62433862433863,141.5873015873016 177.989417989418,141.7989417989418 177.35449735449737,141.7989417989418 176.71957671957674,142.01058201058203 176.0846560846561,142.01058201058203 175.44973544973547,142.01058201058203 174.81481481481484,142.22222222222223 174.1798941798942,142.22222222222223 173.54497354497354,142.43386243386246 172.9100529100529,142.43386243386246 172.27513227513228,142.43386243386246 171.64021164021165,142.64550264550266 171.005291005291,142.64550264550266 170.37037037037038,142.64550264550266 169.73544973544975,142.64550264550266 169.10052910052912,142.85714285714286 168.46560846560848,143.0687830687831 167.83068783068785,143.2804232804233 167.19576719576722,143.2804232804233 166.56084656084658,143.2804232804233 165.92592592592595,143.4920634920635 165.2910052910053,143.4920634920635 164.65608465608466,143.70370370370372 164.02116402116403,143.70370370370372 163.3862433862434,143.70370370370372 162.75132275132276,143.91534391534393 162.11640211640213,143.91534391534393 161.4814814814815,144.12698412698413 160.84656084656086,144.12698412698413 160.21164021164023,144.12698412698413 159.5767195767196,144.33862433862436 158.94179894179896,144.33862433862436 158.30687830687833,144.33862433862436 157.67195767195767,144.55026455026456 157.03703703703704,144.55026455026456 156.4021164021164,144.76190476190476 155.76719576719577,144.76190476190476 155.13227513227514,144.973544973545 154.4973544973545,145.1851851851852 153.86243386243387,145.39682539682542 153.22751322751324,145.60846560846562 152.5925925925926,146.03174603174605 151.95767195767198,146.24338624338625 151.53439153439155,146.66666666666669 151.11111111111111,147.0899470899471 150.6878306878307,147.51322751322752 150.26455026455028,147.93650793650795 149.84126984126985,148.57142857142858 149.62962962962965,149.20634920634922 149.41798941798942,149.84126984126985 149.20634920634922,150.47619047619048 148.99470899470901,151.11111111111111 148.99470899470901,151.74603174603175 148.99470899470901,152.38095238095238 148.99470899470901,153.01587301587304 148.99470899470901,153.65079365079367 148.99470899470901,154.2857142857143 149.20634920634922,154.92063492063494 149.20634920634922,155.55555555555557 149.41798941798942,156.1904761904762 149.41798941798942,156.82539682539684 149.62962962962965,157.46031746031747 149.84126984126985,158.0952380952381 150.05291005291005,158.73015873015873 150.26455026455028,159.36507936507937 150.47619047619048,160.0 150.6878306878307,160.63492063492066 150.8994708994709,161.2698412698413 151.11111111111111,161.90476190476193 151.32275132275134,162.53968253968256 151.32275132275134,163.1746031746032 151.53439153439155,163.80952380952382 151.74603174603175,164.44444444444446 151.95767195767198,165.0793650793651 151.95767195767198,165.71428571428572 152.16931216931218,166.34920634920636 152.16931216931218,166.984126984127 152.16931216931218,167.61904761904762 151.95767195767198,168.25396825396825 151.95767195767198,168.8888888888889 151.95767195767198,169.52380952380955 151.74603174603175,170.15873015873018 151.53439153439155,170.7936507936508 151.53439153439155,171.42857142857144 151.11111111111111,172.06349206349208 150.8994708994709,172.6984126984127 150.6878306878307,173.33333333333334 150.47619047619048,173.96825396825398 150.05291005291005,174.3915343915344 149.62962962962965,175.02645502645504 149.20634920634922,175.44973544973547 148.78306878306879,175.87301587301587 148.35978835978838,176.2962962962963 147.72486772486775,176.71957671957674 147.30158730158732,177.14285714285717 146.66666666666669,177.56613756613757 146.03174603174605,177.7777777777778 145.39682539682542,177.989417989418 144.76190476190476,178.2010582010582 144.12698412698413,178.41269841269843 143.4920634920635,178.41269841269843 142.85714285714286,178.62433862433863 142.22222222222223,178.83597883597884 141.5873015873016,178.83597883597884 140.95238095238096,178.83597883597884 140.31746031746033,179.04761904761907 139.6825396825397,179.04761904761907 139.04761904761907,179.04761904761907 138.41269841269843,179.04761904761907 137.7777777777778,179.04761904761907 137.14285714285717,179.04761904761907 136.5079365079365,179.04761904761907 135.87301587301587,178.83597883597884 135.23809523809524,178.83597883597884 134.6031746031746,178.83597883597884 133.96825396825398,178.62433862433863 133.33333333333334,178.83597883597884 132.6984126984127,178.62433862433863 132.06349206349208,178.41269841269843 131.42857142857144,178.41269841269843 130.7936507936508,178.2010582010582 130.15873015873018,177.989417989418 129.52380952380955,177.7777777777778 128.88888888888889,177.56613756613757 128.25396825396825,177.35449735449737 127.61904761904763,177.14285714285717 126.98412698412699,176.93121693121694 126.34920634920636,176.71957671957674 125.92592592592594,176.2962962962963 125.2910052910053,176.0846560846561 124.65608465608466,175.66137566137567 124.02116402116403,175.44973544973547 123.3862433862434,175.02645502645504 122.75132275132276,174.6031746031746 122.32804232804234,174.1798941798942 121.6931216931217,173.75661375661377 121.26984126984128,173.33333333333334 120.84656084656086,172.9100529100529 120.42328042328043,172.27513227513228 120.00000000000001,171.85185185185188 119.7883597883598,171.21693121693124 119.36507936507937,170.7936507936508 119.15343915343917,170.15873015873018 118.94179894179895,169.52380952380955 118.73015873015873,168.8888888888889 118.73015873015873,168.25396825396825 118.51851851851853,167.61904761904762 118.51851851851853,166.984126984127 118.51851851851853,166.34920634920636 118.30687830687832,165.71428571428572 118.30687830687832,165.0793650793651 118.30687830687832,164.44444444444446 118.30687830687832,163.80952380952382 118.30687830687832,163.1746031746032 118.51851851851853,162.53968253968256 118.73015873015873,161.90476190476193 118.73015873015873,161.2698412698413 118.94179894179895,160.63492063492066 118.94179894179895,160.0 119.15343915343917,159.36507936507937 119.36507936507937,158.73015873015873 119.57671957671958,158.0952380952381 119.57671957671958,157.46031746031747 119.7883597883598,156.82539682539684 120.00000000000001,156.1904761904762 120.42328042328043,155.55555555555557 120.63492063492065,154.92063492063494 120.84656084656086,154.2857142857143 120.84656084656086,153.65079365079367 121.05820105820106,153.01587301587304 121.26984126984128,152.38095238095238 121.4814814814815,151.74603174603175 121.6931216931217,151.11111111111111 121.6931216931217,150.47619047619048 121.6931216931217,149.84126984126985 121.90476190476191,149.20634920634922 121.6931216931217,148.57142857142858 121.6931216931217,147.93650793650795 121.4814814814815,147.30158730158732 121.4814814814815,146.66666666666669 121.26984126984128,146.03174603174605 120.84656084656086,145.39682539682542 120.42328042328043,144.76190476190476 120.00000000000001,144.33862433862436 119.57671957671958,143.91534391534393 119.15343915343917,143.4920634920635 118.73015873015873,143.0687830687831 118.0952380952381,142.85714285714286 117.46031746031747,142.43386243386246 116.82539682539684,142.22222222222223 116.1904761904762,142.01058201058203 115.55555555555557,142.01058201058203 114.92063492063492,141.7989417989418 114.28571428571429,141.7989417989418 113.65079365079366,141.7989417989418 113.01587301587303,141.7989417989418 112.3809523809524,141.7989417989418 111.74603174603176,141.7989417989418 111.11111111111111,142.01058201058203 110.47619047619048,142.01058201058203 109.84126984126985,142.22222222222223 109.20634920634922,142.43386243386246 108.57142857142858,142.64550264550266 107.93650793650795,142.85714285714286 107.3015873015873,143.0687830687831 106.66666666666667,143.2804232804233 106.03174603174604,143.70370370370372 105.3968253968254,143.91534391534393 104.76190476190477,144.12698412698413 104.12698412698414,144.33862433862436 103.4920634920635,144.76190476190476 102.85714285714286,144.973544973545 102.22222222222223,145.1851851851852 101.5873015873016,145.39682539682542 100.95238095238096,145.60846560846562 100.31746031746033,146.03174603174605 99.68253968253968,146.24338624338625 99.04761904761905,146.45502645502646 98.41269841269842,146.8783068783069 97.77777777777779,147.30158730158732 97.14285714285715,147.51322751322752 96.50793650793652,147.72486772486775 95.87301587301587,147.93650793650795 95.23809523809524,148.14814814814815 94.60317460317461,148.57142857142858 93.96825396825398,148.78306878306879 93.33333333333334,148.99470899470901 92.69841269841271,149.20634920634922 92.06349206349208,149.62962962962965 91.42857142857143,149.84126984126985 90.7936507936508,150.05291005291005 90.15873015873017,150.26455026455028 89.52380952380953,150.6878306878307 88.8888888888889,150.8994708994709 88.25396825396827,151.11111111111111 87.61904761904762,151.32275132275134 86.98412698412699,151.53439153439155 86.34920634920636,151.95767195767198 85.71428571428572,152.16931216931218 85.07936507936509,152.38095238095238 84.44444444444446,152.5925925925926 83.80952380952381,152.8042328042328 83.17460317460318,153.01587301587304 82.53968253968254,153.22751322751324 81.90476190476191,153.65079365079367 81.26984126984128,153.86243386243387 80.63492063492065,154.07407407407408 80.0,154.2857142857143 79.36507936507937,154.4973544973545 78.73015873015873,154.7089947089947 78.0952380952381,154.92063492063494 77.46031746031747,155.34391534391534 76.82539682539684,155.55555555555557 76.19047619047619,155.76719576719577 75.55555555555556,155.978835978836 74.92063492063492,156.1904761904762 74.28571428571429,156.61375661375664 73.65079365079366,156.82539682539684 73.01587301587303,157.03703703703704 72.38095238095238,157.24867724867727 71.74603174603175,157.46031746031747 71.11111111111111,157.67195767195767 70.47619047619048,157.8835978835979 69.84126984126985,158.0952380952381 69.20634920634922,158.30687830687833 68.57142857142858,158.51851851851853 67.93650793650794,158.73015873015873 67.3015873015873,158.73015873015873 66.66666666666667,158.94179894179896 66.03174603174604,159.15343915343917 65.3968253968254,159.36507936507937 64.76190476190477,159.5767195767196 64.12698412698413,159.5767195767196 63.492063492063494,160.0 62.85714285714286,160.21164021164023 62.22222222222223,160.21164021164023 61.58730158730159,160.42328042328043 60.952380952380956,160.63492063492066 60.31746031746032,160.84656084656086 59.682539682539684,160.84656084656086 59.04761904761905,161.05820105820106 58.41269841269842,161.2698412698413 57.777777777777786,161.2698412698413 57.142857142857146,161.4814814814815 56.50793650793651,161.4814814814815 55.87301587301588,161.6931216931217 55.23809523809524,161.90476190476193 54.60317460317461,162.11640211640213 53.968253968253975,162.11640211640213 53.333333333333336,162.32804232804233 52.6984126984127,162.32804232804233 52.06349206349207,162.53968253968256 51.42857142857143,162.53968253968256 50.7936507936508,162.75132275132276 50.158730158730165,162.75132275132276 49.523809523809526,162.96296296296296 48.88888888888889,162.96296296296296 48.25396825396826,163.1746031746032 47.61904761904762,163.1746031746032 46.98412698412699,163.1746031746032 46.349206349206355,163.3862433862434 45.714285714285715,163.3862433862434 45.07936507936508,163.3862433862434 44.44444444444445,163.59788359788362 43.80952380952381,163.59788359788362 43.17460317460318,163.59788359788362 42.539682539682545,163.59788359788362 41.904761904761905,163.80952380952382 41.26984126984127,163.80952380952382 40.63492063492064,164.02116402116403 40.0,164.02116402116403 39.36507936507937,164.02116402116403 38.730158730158735,164.23280423280426 38.095238095238095,164.23280423280426 37.46031746031746,164.23280423280426 36.82539682539683,164.44444444444446 36.19047619047619,164.44444444444446 35.55555555555556,164.44444444444446 34.920634920634924,164.65608465608466 34.28571428571429,164.8677248677249 33.65079365079365,164.8677248677249 30.68783068783069,165.2910052910053" style="fill:none; stroke:#00aa99; stroke-width:1.0"  /><polyline points="30.68783068783069,165.2910052910053 28.571428571428573,162.11640211640213 28.35978835978836,161.4814814814815 27.93650793650794,160.84656084656086 27.724867724867728,160.21164021164023 27.301587301587304,159.5767195767196 26.87830687830688,158.94179894179896 26.455026455026456,158.30687830687833 26.031746031746035,157.67195767195767 25.60846560846561,157.03703703703704 25.185185185185187,156.61375661375664 24.761904761904763,155.978835978836 24.338624338624342,155.55555555555557 23.915343915343918,155.13227513227514 23.492063492063494,154.4973544973545 23.06878306878307,154.07407407407408 22.645502645502646,153.43915343915344 22.222222222222225,153.01587301587304 21.7989417989418,152.38095238095238 21.375661375661377,151.95767195767198 20.952380952380953,151.32275132275134 20.529100529100532,150.8994708994709 20.31746031746032,150.26455026455028 19.894179894179896,149.84126984126985 19.682539682539684,149.20634920634922 19.25925925925926,148.57142857142858 18.83597883597884,147.93650793650795 18.412698412698415,147.30158730158732 18.201058201058203,146.66666666666669 17.77777777777778,146.03174603174605 17.566137566137566,145.39682539682542 17.354497354497354,144.76190476190476 17.142857142857146,144.12698412698413 16.71957671957672,143.4920634920635 16.50793650793651,142.85714285714286 16.296296296296298,142.22222222222223 15.873015873015873,141.7989417989418 15.661375661375663,141.16402116402116 15.661375661375663,140.52910052910053 15.449735449735451,139.8941798941799 15.238095238095239,139.25925925925927 15.026455026455027,138.62433862433863 15.026455026455027,137.989417989418 14.814814814814817,137.35449735449737 14.603174603174605,136.71957671957674 14.603174603174605,136.0846560846561 14.391534391534393,135.44973544973547 14.391534391534393,134.81481481481484 14.17989417989418,134.17989417989418 14.17989417989418,133.54497354497354 14.17989417989418,132.9100529100529 14.17989417989418,132.27513227513228 13.96825396825397,131.64021164021165 13.96825396825397,131.005291005291 13.96825396825397,130.37037037037038 13.96825396825397,129.73544973544975 13.96825396825397,129.10052910052912 13.96825396825397,128.46560846560848 14.17989417989418,127.83068783068784 14.17989417989418,127.1957671957672 14.17989417989418,126.56084656084657 14.17989417989418,125.92592592592594 14.17989417989418,125.2910052910053 14.391534391534393,124.65608465608466 14.391534391534393,124.02116402116403 14.603174603174605,123.3862433862434 14.603174603174605,122.75132275132276 14.603174603174605,122.11640211640213 14.814814814814817,121.4814814814815 15.026455026455027,120.84656084656086 15.238095238095239,120.21164021164022 15.449735449735451,119.57671957671958 15.661375661375663,118.94179894179895 15.873015873015873,118.30687830687832 16.296296296296298,117.88359788359789 16.71957671957672,117.24867724867725 17.142857142857146,116.82539682539684 17.566137566137566,116.4021164021164 18.201058201058203,115.97883597883599 18.83597883597884,115.55555555555557 19.47089947089947,115.34391534391536 20.105820105820108,115.13227513227514 20.740740740740744,114.92063492063492 21.375661375661377,114.92063492063492 22.010582010582013,114.92063492063492 22.645502645502646,114.92063492063492 23.280423280423282,114.92063492063492 23.915343915343918,114.92063492063492 24.55026455026455,115.13227513227514 25.185185185185187,115.34391534391536 25.820105820105823,115.55555555555557 26.455026455026456,115.76719576719577 27.089947089947092,115.97883597883599 27.724867724867728,116.1904761904762 28.35978835978836,116.4021164021164 28.994708994708997,116.4021164021164 29.629629629629633,116.61375661375662 30.264550264550266,117.03703703703705 30.899470899470902,117.24867724867725 31.53439153439154,117.46031746031747 32.16931216931217,117.67195767195768 32.804232804232804,117.88359788359789 33.43915343915344,118.0952380952381 34.074074074074076,118.30687830687832 34.70899470899471,118.51851851851853 35.34391534391535,118.94179894179895 35.97883597883598,119.15343915343917 36.613756613756614,119.36507936507937 37.248677248677254,119.57671957671958 37.883597883597886,119.7883597883598 38.51851851851852,120.21164021164022 39.15343915343916,120.42328042328043 39.78835978835979,120.63492063492065 40.423280423280424,120.84656084656086 41.058201058201064,121.26984126984128 41.6931216931217,121.4814814814815 42.32804232804233,121.4814814814815 42.75132275132275,121.90476190476191 43.386243386243386,121.90476190476191 44.021164021164026,122.11640211640213 44.65608465608466,122.32804232804234 45.29100529100529,122.32804232804234 45.92592592592593,122.53968253968254 46.560846560846564,122.53968253968254 47.195767195767196,122.53968253968254 47.830687830687836,122.75132275132276 48.46560846560847,122.75132275132276 49.1005291005291,122.53968253968254 49.73544973544974,122.53968253968254 50.370370370370374,122.53968253968254 51.00529100529101,122.32804232804234 51.640211640211646,122.32804232804234 52.27513227513228,122.11640211640213 52.91005291005291,121.90476190476191 53.54497354497355,121.6931216931217 54.179894179894184,121.4814814814815 54.81481481481482,121.05820105820106 55.449735449735456,120.63492063492065 56.08465608465609,120.21164021164022 56.50793650793651,119.7883597883598 56.93121693121694,119.36507936507937 57.35449735449736,118.94179894179895 57.777777777777786,118.30687830687832 58.2010582010582,117.67195767195768 58.62433862433863,117.03703703703705 58.83597883597884,116.4021164021164 59.04761904761905,115.76719576719577 59.470899470899475,115.34391534391536 59.682539682539684,114.70899470899472 60.10582010582011,113.86243386243387 60.52910052910053,113.43915343915344 60.74074074074075,112.80423280423281 61.16402116402117,112.3809523809524 61.37566137566138,111.74603174603176 61.798941798941804,111.11111111111111 62.01058201058201,110.47619047619048 62.22222222222223,109.84126984126985 62.43386243386244,109.20634920634922 62.64550264550265,108.57142857142858 62.85714285714286,107.93650793650795 63.06878306878308,107.3015873015873 63.06878306878308,106.66666666666667 63.280423280423285,106.03174603174604 63.492063492063494,105.3968253968254 63.70370370370371,104.76190476190477 63.70370370370371,104.12698412698414 63.91534391534392,103.4920634920635 64.12698412698413,102.85714285714286 64.12698412698413,102.22222222222223 64.33862433862434,101.5873015873016 64.33862433862434,100.95238095238096 64.33862433862434,100.31746031746033 64.33862433862434,99.68253968253968 64.33862433862434,99.04761904761905 64.55026455026456,98.41269841269842 64.55026455026456,97.77777777777779 64.33862433862434,97.14285714285715 64.33862433862434,96.50793650793652 64.33862433862434,95.87301587301587 64.33862433862434,95.23809523809524 64.12698412698413,94.60317460317461 64.12698412698413,93.96825396825398 64.12698412698413,93.33333333333334 64.12698412698413,92.69841269841271 64.12698412698413,92.06349206349208 63.91534391534392,91.42857142857143 63.91534391534392,90.7936507936508 63.70370370370371,90.15873015873017 63.70370370370371,89.52380952380953 63.492063492063494,88.8888888888889 63.280423280423285,88.25396825396827 63.06878306878308,87.61904761904762 62.64550264550265,86.98412698412699 62.43386243386244,86.34920634920636 62.01058201058201,85.92592592592594 61.58730158730159,85.29100529100529 61.16402116402117,84.86772486772487 60.74074074074075,84.44444444444446 60.31746031746032,84.02116402116403 59.8941798941799,83.59788359788361 59.470899470899475,83.17460317460318 58.83597883597884,82.96296296296298 58.2010582010582,82.53968253968254 57.777777777777786,82.11640211640213 57.142857142857146,81.90476190476191 56.50793650793651,81.6931216931217 55.87301587301588,81.6931216931217 55.23809523809524,81.48148148148148 54.60317460317461,81.26984126984128 53.968253968253975,81.26984126984128 53.333333333333336,81.26984126984128 52.6984126984127,81.26984126984128 52.06349206349207,81.26984126984128 51.42857142857143,81.26984126984128 50.7936507936508,81.26984126984128 50.158730158730165,81.48148148148148 49.523809523809526,81.48148148148148 48.88888888888889,81.48148148148148 48.25396825396826,81.6931216931217 47.61904761904762,81.6931216931217 46.98412698412699,81.90476190476191 46.349206349206355,81.90476190476191 45.714285714285715,81.90476190476191 45.07936507936508,82.11640211640213 44.44444444444445,82.32804232804233 43.80952380952381,82.53968253968254 43.17460317460318,82.53968253968254 42.539682539682545,82.75132275132276 41.904761904761905,82.96296296296298 41.26984126984127,83.17460317460318 40.63492063492064,83.59788359788361 40.0,83.80952380952381 39.36507936507937,84.02116402116403 38.730158730158735,84.44444444444446 38.095238095238095,84.65608465608466 37.46031746031746,85.07936507936509 36.82539682539683,85.29100529100529 36.19047619047619,85.5026455026455 35.55555555555556,85.92592592592594 34.920634920634924,86.13756613756614 34.28571428571429,86.56084656084657 33.65079365079365,86.77248677248677 33.01587301587302,86.98412698412699 32.38095238095239,87.40740740740742 31.746031746031747,87.61904761904762 31.111111111111114,87.83068783068784 30.476190476190478,88.25396825396827 29.841269841269842,88.46560846560847 29.20634920634921,88.67724867724868 28.571428571428573,89.1005291005291 27.93650793650794,89.31216931216932 27.301587301587304,89.52380952380953 26.666666666666668,89.73544973544975 26.031746031746035,89.73544973544975 25.3968253968254,89.94708994708995 24.761904761904763,89.94708994708995 24.12698412698413,89.94708994708995 23.492063492063494,89.73544973544975 22.857142857142858,89.52380952380953 22.222222222222225,89.1005291005291 21.58730158730159,88.67724867724868 21.164021164021165,88.25396825396827 20.529100529100532,87.83068783068784 20.105820105820108,87.1957671957672 19.682539682539684,86.56084656084657 19.25925925925926,85.92592592592594 18.83597883597884,85.29100529100529 18.624338624338627,84.65608465608466 18.412698412698415,84.02116402116403 17.98941798941799,83.3862433862434 17.77777777777778,82.75132275132276 17.77777777777778,82.11640211640213 17.566137566137566,81.48148148148148 17.354497354497354,80.84656084656085 17.142857142857146,80.21164021164022 16.71957671957672,79.57671957671958 16.71957671957672,78.94179894179895 16.50793650793651,78.30687830687832 16.296296296296298,77.67195767195767 16.084656084656086,77.03703703703704 15.873015873015873,76.4021164021164 15.661375661375663,75.76719576719577 15.449735449735451,75.13227513227514 15.238095238095239,74.49735449735451 15.026455026455027,73.86243386243387 14.814814814814817,73.22751322751323 14.603174603174605,72.5925925925926 14.17989417989418,71.95767195767196 13.96825396825397,71.32275132275133 13.756613756613758,70.6878306878307 13.756613756613758,70.05291005291006 13.544973544973546,69.41798941798942 13.333333333333334,68.78306878306879 13.121693121693122,68.14814814814815 12.910052910052912,67.51322751322752 12.6984126984127,66.87830687830689 12.486772486772487,66.24338624338625 12.275132275132275,65.60846560846561 12.063492063492065,64.97354497354497 11.851851851851853,64.33862433862434 11.640211640211641,63.70370370370371 11.428571428571429,63.06878306878308 11.216931216931219,62.43386243386244 11.005291005291006,61.798941798941804 10.582010582010582,61.16402116402117 10.582010582010582,60.52910052910053 10.370370370370372,59.8941798941799 10.15873015873016,59.25925925925927 9.947089947089948,58.62433862433863 9.735449735449736,57.989417989417994 9.523809523809524,57.35449735449736 9.312169312169313,56.71957671957672 9.100529100529101,56.08465608465609 8.88888888888889,55.449735449735456 8.677248677248677,54.81481481481482 8.465608465608467,54.179894179894184 8.253968253968255,53.54497354497355 8.042328042328043,52.91005291005291 7.830687830687832,52.27513227513228 7.6190476190476195,51.640211640211646 7.407407407407408,51.00529100529101 7.195767195767196,50.370370370370374 6.984126984126985,49.73544973544974 6.772486772486773,49.1005291005291 6.560846560846561,48.46560846560847 6.34920634920635,47.830687830687836 6.137566137566138,47.195767195767196 5.9259259259259265,46.560846560846564 5.714285714285714,45.92592592592593 5.502645502645503,45.29100529100529 5.291005291005291,44.65608465608466 5.07936507936508,44.021164021164026 4.867724867724868,43.386243386243386 4.656084656084657,42.75132275132275 4.444444444444445,42.11640211640212 4.2328042328042335,41.48148148148149 4.021164021164021,40.84656084656085 4.021164021164021,40.211640211640216 3.8095238095238098,39.57671957671958 3.597883597883598,38.94179894179894 3.3862433862433865,38.30687830687831 3.3862433862433865,37.67195767195768 2.9629629629629632,37.248677248677254 2.7513227513227516,36.613756613756614 2.53968253968254,35.97883597883598 2.3280423280423284,35.34391534391535 2.1164021164021167,34.70899470899471 1.9047619047619049,34.074074074074076 1.6931216931216932,33.43915343915344 1.4814814814814816,32.804232804232804 1.26984126984127,32.16931216931217 0.0,28.35978835978836" style="fill:none; stroke:#3300bb; stroke-width:1.0"  /><circle cx="0.0" cy="28.35978835978836" r="2.0" style="fill:none; stroke:#000000aa; stroke-width:0.25" /><circle cx="168.8888888888889" cy="3.8095238095238098" r="2.0" style="fill:none; stroke:#000000aa; stroke-width:0.25" /><circle cx="194.70899470899474" cy="140.31746031746033" r="2.0" style="fill:none; stroke:#000000aa; stroke-width:0.25" /><circle cx="30.68783068783069" cy="165.2910052910053" r="2.0" style="fill:none; stroke:#000000aa; stroke-width:0.25" /><circle cx="0.21164021164021166" cy="29.20634920634921" r="2.0" style="fill:none; stroke:#ff3366aa; stroke-width:0.25" /><circle cx="168.8888888888889" cy="3.8095238095238098" r="2.0" style="fill:none; stroke:#ff3366aa; stroke-width:0.25" /><circle cx="194.4973544973545" cy="140.10582010582013" r="2.0" style="fill:none; stroke:#ff3366aa; stroke-width:0.25" /><circle cx="30.264550264550266" cy="165.0793650793651" r="2.0" style="fill:none; stroke:#ff3366aa; stroke-width:0.25" /><polyline points="12.063492063492065,29.20634920634921 11.428571428571429,29.20634920634921 10.793650793650794,29.20634920634921 10.15873015873016,28.994708994708997 9.523809523809524,28.994708994708997 8.88888888888889,28.994708994708997 8.253968253968255,28.994708994708997 7.6190476190476195,28.994708994708997 6.984126984126985,28.994708994708997 6.34920634920635,28.783068783068785 5.714285714285714,28.783068783068785 5.07936507936508,28.571428571428573 4.444444444444445,28.571428571428573 3.8095238095238098,28.571428571428573 3.174603174603175,28.571428571428573" style="fill:none; stroke:#001100; stroke-width:1.0" /><polyline points="4.021164021164021,40.211640211640216 3.8095238095238098,39.57671957671958 3.597883597883598,38.94179894179894 3.3862433862433865,38.30687830687831 3.3862433862433865,37.67195767195768 2.9629629629629632,37.248677248677254 2.7513227513227516,36.613756613756614 2.53968253968254,35.97883597883598 2.3280423280423284,35.34391534391535 2.1164021164021167,34.70899470899471 1.9047619047619049,34.074074074074076 1.6931216931216932,33.43915343915344 1.4814814814814816,32.804232804232804 1.26984126984127,32.16931216931217" style="fill:none; stroke:#000011; stroke-width:1.0" /><polyline points="167.40740740740742,15.238095238095239 167.40740740740742,14.603174603174605 167.61904761904762,13.96825396825397 167.61904761904762,13.333333333333334 167.61904761904762,12.6984126984127 167.83068783068785,12.063492063492065 167.83068783068785,11.428571428571429 167.83068783068785,10.793650793650794 168.04232804232805,10.15873015873016 168.04232804232805,9.523809523809524 168.04232804232805,8.88888888888889 168.25396825396825,8.253968253968255 168.25396825396825,7.6190476190476195 168.46560846560848,6.984126984126985" style="fill:none; stroke:#001100; stroke-width:1.0" /><polyline points="157.24867724867727,3.174603174603175 157.8835978835979,3.174603174603175 158.51851851851853,3.3862433862433865 159.15343915343917,3.3862433862433865 159.7883597883598,3.3862433862433865 160.42328042328043,3.597883597883598 161.05820105820106,3.597883597883598 161.6931216931217,3.597883597883598 162.32804232804233,3.597883597883598 162.96296296296296,3.597883597883598 163.59788359788362,3.597883597883598 164.23280423280426,3.597883597883598 164.8677248677249,3.597883597883598 165.50264550264552,3.597883597883598" style="fill:none; stroke:#000011; stroke-width:1.0" /><polyline points="183.0687830687831,141.16402116402116 183.70370370370372,141.16402116402116 184.33862433862436,141.16402116402116 184.973544973545,140.95238095238096 185.60846560846562,140.95238095238096 186.24338624338625,140.95238095238096 186.8783068783069,140.95238095238096 187.51322751322752,140.95238095238096 188.14814814814815,140.95238095238096 188.78306878306879,140.74074074074076 189.41798941798945,140.74074074074076 190.05291005291008,140.74074074074076 190.6878306878307,140.74074074074076 191.32275132275134,140.52910052910053" style="fill:none; stroke:#001100; stroke-width:1.0" /><polyline points="187.51322751322752,130.58201058201058 187.93650793650795,131.005291005291 188.35978835978838,131.64021164021165 188.78306878306879,132.27513227513228 189.20634920634922,132.6984126984127 189.62962962962965,133.33333333333334 190.05291005291008,133.96825396825398 190.47619047619048,134.6031746031746 190.8994708994709,135.23809523809524 191.32275132275134,135.66137566137567 191.74603174603175,136.2962962962963 192.16931216931218,136.93121693121694 192.5925925925926,137.35449735449737" style="fill:none; stroke:#000011; stroke-width:1.0" /><polyline points="23.915343915343918,155.13227513227514 24.338624338624342,155.55555555555557 24.761904761904763,155.978835978836 25.185185185185187,156.61375661375664 25.60846560846561,157.03703703703704 26.031746031746035,157.67195767195767 26.455026455026456,158.30687830687833 26.87830687830688,158.94179894179896 27.301587301587304,159.5767195767196 27.724867724867728,160.21164021164023 27.93650793650794,160.84656084656086 28.35978835978836,161.4814814814815 28.571428571428573,162.11640211640213" style="fill:none; stroke:#001100; stroke-width:1.0" /><polyline points="41.904761904761905,163.80952380952382 41.26984126984127,163.80952380952382 40.63492063492064,164.02116402116403 40.0,164.02116402116403 39.36507936507937,164.02116402116403 38.730158730158735,164.23280423280426 38.095238095238095,164.23280423280426 37.46031746031746,164.23280423280426 36.82539682539683,164.44444444444446 36.19047619047619,164.44444444444446 35.55555555555556,164.44444444444446 34.920634920634924,164.65608465608466 34.28571428571429,164.8677248677249 33.65079365079365,164.8677248677249" style="fill:none; stroke:#000011; stroke-width:1.0" /><polyline points="3.174603174603175,28.571428571428573 -17.98941798941799,27.089947089947092" style="fill:none; stroke:#ffaa00; stroke-width:0.4" /><polyline points="1.26984126984127,32.16931216931217 -5.502645502645503,12.063492063492065" style="fill:none; stroke:#aaff00; stroke-width:0.4" /><polyline points="168.46560846560848,6.984126984126985 171.21693121693124,-13.96825396825397" style="fill:none; stroke:#ffaa00; stroke-width:0.4" /><polyline points="165.50264550264552,3.597883597883598 186.66666666666669,4.656084656084657" style="fill:none; stroke:#aaff00; stroke-width:0.4" /><polyline points="191.32275132275134,140.52910052910053 212.4867724867725,138.83597883597884" style="fill:none; stroke:#ffaa00; stroke-width:0.4" /><polyline points="192.5925925925926,137.35449735449737 205.29100529100532,154.2857142857143" style="fill:none; stroke:#aaff00; stroke-width:0.4" /><polyline points="28.571428571428573,162.11640211640213 40.211640211640216,179.6825396825397" style="fill:none; stroke:#ffaa00; stroke-width:0.4" /><polyline points="33.65079365079365,164.8677248677249 12.6984126984127,167.61904761904762" style="fill:none; stroke:#aaff00; stroke-width:0.4" /><circle cx="102.85714285714286" cy="88.8888888888889" r="1.0" style="fill:#444444; stroke-width:0" /><circle cx="125.71428571428572" cy="96.50793650793652" r="10.582010582010582" style="fill:#ff770022; stroke-width:0" /><circle cx="125.71428571428572" cy="96.50793650793652" r="1.0" style="fill:#ff7700; stroke-width:0" /></svg>