<?xml version="1.0" encoding="UTF-8" standalone="no"?><svg width="604.4444444444445" height="640.6349206349207" viewBox="-10 -10 221.4814814814815 233.54497354497357" xmlns="http://www.w3.org/2000/svg" xmlns:xlink="http://www.w3.org/1999/xlink"><polyline points="-0.21164021164021166,58.2010582010582 2.3280423280423284,56.2962962962963 2.7513227513227516,55.87301587301588 3.3862433862433865,55.449735449735456 4.021164021164021,55.02645502645503 4.656084656084657,54.60317460317461 5.07936507936508,54.179894179894184 5.502645502645503,53.75661375661376 5.9259259259259265,53.333333333333336 6.560846560846561,52.91005291005291 7.195767195767196,52.48677248677249 7.830687830687832,52.06349206349207 8.253968253968255,51.640211640211646 8.88888888888889,51.21693121693122 9.523809523809524,50.7936507936508 10.15873015873016,50.370370370370374 10.793650793650794,49.94708994708995 11.216931216931219,49.523809523809526 11.851851851851853,49.1005291005291 12.275132275132275,48.677248677248684 12.910052910052912,48.46560846560847 13.333333333333334,48.042328042328045 13.96825396825397,47.61904761904762 14.603174603174605,47.195767195767196 15.238095238095239,46.77248677248678 15.873015873015873,46.349206349206355 16.50793650793651,45.92592592592593 16.931216931216934,45.50264550264551 17.566137566137566,45.07936507936508 18.201058201058203,44.65608465608466 18.624338624338627,44.232804232804234 19.25925925925926,43.80952380952381 19.682539682539684,43.386243386243386 20.31746031746032,42.96296296296297 20.952380952380953,42.539682539682545 21.58730158730159,42.11640211640212 22.222222222222225,41.904761904761905 22.645502645502646,41.48148148148149 23.280423280423282,41.058201058201064 23.915343915343918,40.63492063492064 24.55026455026455,40.423280423280424 24.973544973544975,40.0 25.60846560846561,39.78835978835979 26.031746031746035,39.36507936507937 26.666666666666668,38.94179894179894 27.301587301587304,38.730158730158735 27.724867724867728,38.30687830687831 28.35978835978836,38.095238095238095 28.783068783068785,37.67195767195768 29.41798941798942,37.46031746031746 29.841269841269842,37.03703703703704 30.476190476190478,36.82539682539683 31.111111111111114,36.402116402116405 31.746031746031747,35.97883597883598 32.38095238095239,35.76719576719577 33.01587301587302,35.34391534391535 33.65079365079365,34.920634920634924 34.28571428571429,34.70899470899471 34.70899470899471,34.28571428571429 35.34391534391535,34.074074074074076 35.97883597883598,33.65079365079365 36.613756613756614,33.22751322751323 37.248677248677254,33.22751322751323 37.67195767195768,32.804232804232804 38.30687830687831,32.592592592592595 38.94179894179894,32.38095238095239 39.57671957671958,32.16931216931217 40.211640211640216,32.16931216931217 40.84656084656085,32.16931216931217 41.48148148148149,32.16931216931217 42.11640211640212,32.16931216931217 42.75132275132275,32.38095238095239 43.386243386243386,32.804232804232804 44.021164021164026,33.01587301587302 44.44444444444445,33.43915343915344 44.867724867724874,33.86243386243387 45.29100529100529,34.4973544973545 45.50264550264551,35.13227513227513 45.714285714285715,35.76719576719577 45.92592592592593,36.402116402116405 46.13756613756614,37.03703703703704 46.13756613756614,37.67195767195768 46.13756613756614,38.30687830687831 46.349206349206355,38.94179894179894 46.349206349206355,39.57671957671958 46.349206349206355,40.211640211640216 46.349206349206355,40.84656084656085 46.349206349206355,41.48148148148149 46.349206349206355,42.11640211640212 46.349206349206355,42.75132275132275 46.349206349206355,43.386243386243386 46.560846560846564,44.021164021164026 46.349206349206355,44.65608465608466 46.349206349206355,45.29100529100529 46.349206349206355,45.92592592592593 46.349206349206355,46.560846560846564 46.349206349206355,47.195767195767196 46.13756613756614,47.830687830687836 46.13756613756614,48.46560846560847 45.92592592592593,49.1005291005291 45.92592592592593,49.73544973544974 45.92592592592593,50.370370370370374 45.714285714285715,51.00529100529101 45.714285714285715,51.640211640211646 45.714285714285715,52.27513227513228 45.714285714285715,52.91005291005291 45.714285714285715,53.54497354497355 45.92592592592593,54.179894179894184 45.92592592592593,54.81481481481482 45.92592592592593,55.449735449735456 45.92592592592593,56.08465608465609 46.13756613756614,56.71957671957672 46.13756613756614,57.35449735449736 46.349206349206355,57.989417989417994 46.560846560846564,58.62433862433863 46.77248677248678,59.25925925925927 46.98412698412699,59.8941798941799 47.195767195767196,60.52910052910053 47.40740740740741,61.16402116402117 47.830687830687836,61.798941798941804 48.042328042328045,62.43386243386244 48.25396825396826,63.06878306878308 48.677248677248684,63.70370370370371 48.88888888888889,64.33862433862434 49.31216931216932,64.97354497354497 49.73544973544974,65.60846560846561 50.158730158730165,66.24338624338625 50.58201058201058,66.66666666666667 51.00529100529101,67.08994708994709 51.640211640211646,67.51322751322752 52.27513227513228,67.93650793650794 52.91005291005291,68.35978835978837 53.54497354497355,68.35978835978837 54.179894179894184,68.57142857142858 54.81481481481482,68.57142857142858 55.449735449735456,68.78306878306879 56.08465608465609,68.78306878306879 56.71957671957672,68.78306878306879 57.35449735449736,68.78306878306879 57.989417989417994,68.994708994709 58.62433862433863,68.78306878306879 59.25925925925927,68.78306878306879 59.8941798941799,68.57142857142858 60.52910052910053,68.57142857142858 61.16402116402117,68.57142857142858 61.798941798941804,68.57142857142858 62.22222222222223,68.14814814814815 62.85714285714286,68.14814814814815 63.492063492063494,68.14814814814815 64.12698412698413,67.93650793650794 64.76190476190477,67.72486772486774 65.3968253968254,67.51322751322752 66.03174603174604,67.51322751322752 66.66666666666667,67.08994708994709 67.3015873015873,66.87830687830689 67.93650793650794,66.87830687830689 68.35978835978837,66.45502645502646 68.994708994709,66.24338624338625 69.62962962962963,66.03174603174604 70.26455026455027,65.60846560846561 70.8994708994709,65.18518518518519 71.53439153439155,64.97354497354497 72.16931216931218,64.55026455026456 72.5925925925926,64.12698412698413 73.22751322751323,63.70370370370371 73.65079365079366,63.280423280423285 74.28571428571429,62.85714285714286 74.70899470899471,62.43386243386244 75.13227513227514,62.01058201058201 75.55555555555556,61.58730158730159 75.97883597883599,61.16402116402117 76.4021164021164,60.74074074074075 76.82539682539684,60.31746031746032 77.24867724867725,59.8941798941799 77.67195767195767,59.470899470899475 78.0952380952381,58.83597883597884 78.51851851851852,58.41269841269842 78.94179894179895,57.777777777777786 79.36507936507937,57.35449735449736 79.7883597883598,56.71957671957672 80.21164021164022,56.08465608465609 80.42328042328043,55.449735449735456 80.84656084656085,54.81481481481482 81.05820105820106,54.179894179894184 81.05820105820106,53.54497354497355 81.26984126984128,52.91005291005291 81.48148148148148,52.27513227513228 81.6931216931217,51.640211640211646 81.90476190476191,51.00529100529101 81.90476190476191,50.370370370370374 81.90476190476191,49.73544973544974 81.90476190476191,49.1005291005291 81.90476190476191,48.46560846560847 81.90476190476191,47.830687830687836 81.6931216931217,47.195767195767196 81.6931216931217,46.560846560846564 81.48148148148148,45.92592592592593 81.26984126984128,45.29100529100529 81.05820105820106,44.65608465608466 80.84656084656085,44.021164021164026 80.42328042328043,43.5978835978836 80.21164021164022,42.96296296296297 79.7883597883598,42.539682539682545 79.36507936507937,41.904761904761905 78.94179894179895,41.48148148148149 78.51851851851852,40.84656084656085 78.0952380952381,40.423280423280424 77.46031746031747,40.0 77.03703703703704,39.57671957671958 76.61375661375662,39.15343915343916 75.97883597883599,38.730158730158735 75.55555555555556,38.30687830687831 75.13227513227514,37.883597883597886 74.70899470899471,37.46031746031746 74.28571428571429,37.03703703703704 73.65079365079366,36.613756613756614 73.22751322751323,36.19047619047619 72.80423280423281,35.76719576719577 72.38095238095238,35.34391534391535 71.95767195767196,34.920634920634924 71.32275132275133,34.4973544973545 70.8994708994709,33.86243386243387 70.26455026455027,33.43915343915344 69.84126984126985,32.804232804232804 69.41798941798942,32.38095238095239 68.994708994709,31.95767195767196 68.57142857142858,31.322751322751326 68.14814814814815,30.68783068783069 67.93650793650794,30.052910052910054 67.72486772486774,29.41798941798942 67.51322751322752,28.783068783068785 67.3015873015873,28.14814814814815 67.3015873015873,27.513227513227516 67.3015873015873,26.87830687830688 67.51322751322752,26.243386243386244 67.72486772486774,25.60846560846561 68.14814814814815,24.973544973544975 68.57142857142858,24.338624338624342 68.994708994709,23.703703703703706 69.62962962962963,23.280423280423282 70.05291005291006,22.857142857142858 70.6878306878307,22.433862433862437 71.11111111111111,22.010582010582013 71.74603174603175,21.58730158730159 72.38095238095238,21.164021164021165 73.01587301587303,20.740740740740744 73.43915343915344,20.31746031746032 74.07407407407408,20.105820105820108 74.70899470899471,19.682539682539684 75.34391534391536,19.25925925925926 75.97883597883599,19.047619047619047 76.4021164021164,18.624338624338627 76.82539682539684,18.201058201058203 77.46031746031747,17.77777777777778 78.0952380952381,17.566137566137566 78.51851851851852,17.142857142857146 79.15343915343917,16.931216931216934 79.7883597883598,16.50793650793651 80.42328042328043,16.084656084656086 81.05820105820106,15.661375661375663 81.6931216931217,15.238095238095239 82.32804232804233,15.026455026455027 82.96296296296298,14.603174603174605 83.3862433862434,14.17989417989418 84.02116402116403,13.96825396825397 84.65608465608466,13.544973544973546 85.29100529100529,13.121693121693122 85.92592592592594,12.910052910052912 86.56084656084657,12.486772486772487 87.1957671957672,12.063492063492065 87.83068783068784,11.851851851851853 88.25396825396827,11.428571428571429 88.8888888888889,11.005291005291006 89.52380952380953,10.582010582010582 90.15873015873017,10.370370370370372 90.7936507936508,9.947089947089948 91.42857142857143,9.735449735449736 92.06349206349208,9.312169312169313 92.69841269841271,8.88888888888889 93.33333333333334,8.677248677248677 93.96825396825398,8.465608465608467 94.60317460317461,8.253968253968255 95.02645502645504,7.830687830687832 95.66137566137567,7.6190476190476195 96.2962962962963,7.407407407407408 96.93121693121694,7.195767195767196 97.35449735449737,6.772486772486773 97.989417989418,6.34920634920635 98.62433862433863,6.137566137566138 99.25925925925927,5.9259259259259265 99.8941798941799,5.714285714285714 100.52910052910053,5.291005291005291 101.16402116402116,5.07936507936508 101.79894179894181,4.656084656084657 102.43386243386244,4.444444444444445 103.06878306878308,4.2328042328042335 103.70370370370371,4.021164021164021 104.33862433862434,3.8095238095238098 104.97354497354497,3.597883597883598 105.60846560846562,3.3862433862433865 106.24338624338625,3.174603174603175 106.87830687830689,2.9629629629629632 107.51322751322752,2.7513227513227516 108.14814814814815,2.53968253968254 108.78306878306879,2.3280423280423284 109.41798941798943,2.1164021164021167 110.05291005291006,1.9047619047619049 110.6878306878307,1.6931216931216932 111.32275132275133,1.4814814814814816 111.95767195767196,1.26984126984127 112.5925925925926,1.0582010582010584 115.76719576719577,0.0" style="fill:none; stroke:#cc0000; stroke-width:1.0"  /><polyline points="115.76719576719577,0.0 117.03703703703705,2.9629629629629632 117.46031746031747,3.597883597883598 117.67195767195768,4.2328042328042335 117.88359788359789,4.867724867724868 118.0952380952381,5.502645502645503 118.51851851851853,6.137566137566138 118.73015873015873,6.772486772486773 118.94179894179895,7.407407407407408 119.15343915343917,8.042328042328043 119.36507936507937,8.677248677248677 119.57671957671958,9.312169312169313 119.7883597883598,9.947089947089948 120.00000000000001,10.582010582010582 120.21164021164022,11.216931216931219 120.42328042328043,11.851851851851853 120.63492063492065,12.486772486772487 120.84656084656086,13.121693121693122 121.05820105820106,13.756613756613758 121.26984126984128,14.391534391534393 121.4814814814815,15.026455026455027 121.6931216931217,15.661375661375663 121.90476190476191,16.296296296296298 122.11640211640213,16.931216931216934 122.11640211640213,17.566137566137566 122.32804232804234,18.201058201058203 122.75132275132276,18.624338624338627 123.17460317460318,19.25925925925926 123.17460317460318,19.894179894179896 123.3862433862434,20.529100529100532 123.59788359788361,21.164021164021165 123.80952380952382,21.7989417989418 124.23280423280424,22.433862433862437 124.44444444444446,23.06878306878307 124.44444444444446,23.703703703703706 124.86772486772487,24.338624338624342 125.07936507936509,24.973544973544975 125.2910052910053,25.60846560846561 125.5026455026455,26.243386243386244 125.71428571428572,26.87830687830688 125.92592592592594,27.513227513227516 126.13756613756615,28.14814814814815 126.34920634920636,28.783068783068785 126.56084656084657,29.41798941798942 126.77248677248679,30.052910052910054 126.98412698412699,30.68783068783069 127.1957671957672,31.322751322751326 127.40740740740742,31.95767195767196 127.61904761904763,32.592592592592595 127.83068783068784,33.22751322751323 128.04232804232805,33.86243386243387 128.25396825396825,34.4973544973545 128.46560846560848,35.13227513227513 128.88888888888889,35.76719576719577 129.10052910052912,36.402116402116405 129.31216931216932,37.03703703703704 129.73544973544975,37.46031746031746 129.94708994708995,38.095238095238095 130.37037037037038,38.51851851851852 130.7936507936508,39.15343915343916 131.21693121693121,39.78835978835979 131.64021164021165,40.423280423280424 132.27513227513228,40.84656084656085 132.6984126984127,41.26984126984127 133.33333333333334,41.6931216931217 133.96825396825398,41.904761904761905 134.6031746031746,42.32804232804233 135.23809523809524,42.539682539682545 135.87301587301587,42.539682539682545 136.5079365079365,42.539682539682545 137.14285714285717,42.539682539682545 137.7777777777778,42.539682539682545 138.41269841269843,42.32804232804233 139.04761904761907,42.11640211640212 139.6825396825397,41.904761904761905 140.10582010582013,41.48148148148149 140.74074074074076,41.058201058201064 141.16402116402116,40.63492063492064 141.5873015873016,40.211640211640216 142.01058201058203,39.78835978835979 142.43386243386246,39.15343915343916 142.85714285714286,38.730158730158735 143.2804232804233,38.095238095238095 143.70370370370372,37.67195767195768 143.91534391534393,37.03703703703704 144.33862433862436,36.402116402116405 144.55026455026456,35.76719576719577 144.973544973545,35.13227513227513 145.39682539682542,34.4973544973545 145.60846560846562,33.86243386243387 146.03174603174605,33.22751322751323 146.45502645502646,32.592592592592595 146.66666666666669,31.95767195767196 147.0899470899471,31.322751322751326 147.30158730158732,30.68783068783069 147.72486772486775,30.052910052910054 148.14814814814815,29.629629629629633 148.35978835978838,28.994708994708997 148.78306878306879,28.35978835978836 149.20634920634922,27.724867724867728 149.41798941798942,27.089947089947092 149.84126984126985,26.666666666666668 150.05291005291005,26.031746031746035 150.47619047619048,25.3968253968254 150.8994708994709,24.973544973544975 151.32275132275134,24.55026455026455 151.74603174603175,24.12698412698413 152.16931216931218,23.492063492063494 152.5925925925926,23.06878306878307 153.01587301587304,22.645502645502646 153.43915343915344,22.222222222222225 153.86243386243387,21.7989417989418 154.4973544973545,21.375661375661377 155.13227513227514,20.952380952380953 155.76719576719577,20.740740740740744 156.1904761904762,20.31746031746032 156.82539682539684,20.31746031746032 157.24867724867727,19.894179894179896 157.8835978835979,20.105820105820108 158.51851851851853,19.894179894179896 159.15343915343917,19.894179894179896 159.7883597883598,19.894179894179896 160.42328042328043,20.105820105820108 161.05820105820106,20.31746031746032 161.6931216931217,20.529100529100532 162.32804232804233,20.740740740740744 162.96296296296296,20.952380952380953 163.59788359788362,21.375661375661377 164.23280423280426,21.58730158730159 164.8677248677249,22.010582010582013 165.50264550264552,22.433862433862437 166.13756613756615,22.857142857142858 166.7724867724868,23.280423280423282 167.40740740740742,23.703703703703706 168.04232804232805,24.12698412698413 168.46560846560848,24.55026455026455 169.10052910052912,24.973544973544975 169.52380952380955,25.3968253968254 169.94708994708995,25.820105820105823 170.58201058201058,26.243386243386244 171.005291005291,26.87830687830688 171.42857142857144,27.301587301587304 171.85185185185188,27.724867724867728 172.27513227513228,28.14814814814815 172.6984126984127,28.571428571428573 173.12169312169314,29.20634920634921 173.54497354497354,29.629629629629633 173.96825396825398,30.264550264550266 174.3915343915344,30.899470899470902 174.81481481481484,31.322751322751326 175.02645502645504,31.95767195767196 175.44973544973547,32.38095238095239 175.66137566137567,33.01587301587302 176.0846560846561,33.65079365079365 176.50793650793653,34.28571428571429 176.71957671957674,34.920634920634924 176.93121693121694,35.55555555555556 177.14285714285717,36.19047619047619 177.56613756613757,36.82539682539683 177.7777777777778,37.46031746031746 177.989417989418,38.095238095238095 178.2010582010582,38.730158730158735 178.2010582010582,39.36507936507937 178.41269841269843,40.0 178.41269841269843,40.63492063492064 178.41269841269843,41.26984126984127 178.62433862433863,41.904761904761905 178.62433862433863,42.539682539682545 178.62433862433863,43.17460317460318 178.62433862433863,43.80952380952381 178.62433862433863,44.44444444444445 178.41269841269843,45.07936507936508 178.41269841269843,45.714285714285715 177.989417989418,46.349206349206355 177.56613756613757,46.98412698412699 177.14285714285717,47.61904761904762 176.71957671957674,48.042328042328045 176.0846560846561,48.46560846560847 175.66137566137567,48.88888888888889 175.02645502645504,49.31216931216932 174.3915343915344,49.73544973544974 173.75661375661377,50.158730158730165 173.12169312169314,50.370370370370374 172.4867724867725,50.7936507936508 171.85185185185188,51.00529100529101 171.21693121693124,51.21693121693122 170.58201058201058,51.640211640211646 169.94708994708995,51.851851851851855 169.31216931216932,52.06349206349207 168.67724867724868,52.27513227513228 168.04232804232805,52.48677248677249 167.40740740740742,52.48677248677249 166.7724867724868,52.6984126984127 166.13756613756615,52.6984126984127 165.50264550264552,52.91005291005291 164.8677248677249,52.91005291005291 164.23280423280426,53.12169312169313 163.59788359788362,53.12169312169313 162.96296296296296,53.12169312169313 162.32804232804233,53.12169312169313 161.6931216931217,53.12169312169313 161.05820105820106,53.12169312169313 160.42328042328043,53.12169312169313 159.7883597883598,53.12169312169313 159.15343915343917,53.12169312169313 158.51851851851853,53.12169312169313 157.8835978835979,53.333333333333336 157.24867724867727,53.333333333333336 156.61375661375664,53.333333333333336 155.978835978836,53.333333333333336 155.34391534391534,53.54497354497355 154.7089947089947,53.54497354497355 154.07407407407408,53.75661375661376 153.43915343915344,53.75661375661376 152.8042328042328,53.968253968253975 152.16931216931218,54.39153439153439 151.53439153439155,54.60317460317461 150.8994708994709,55.02645502645503 150.26455026455028,55.449735449735456 149.84126984126985,55.87301587301588 149.41798941798942,56.2962962962963 148.99470899470901,56.93121693121694 148.57142857142858,57.56613756613757 148.14814814814815,58.2010582010582 148.14814814814815,58.83597883597884 147.93650793650795,59.470899470899475 147.93650793650795,60.10582010582011 147.93650793650795,60.74074074074075 147.93650793650795,61.37566137566138 148.14814814814815,62.01058201058201 148.35978835978838,62.64550264550265 148.35978835978838,63.280423280423285 148.57142857142858,63.91534391534392 148.99470899470901,64.55026455026456 149.41798941798942,65.18518518518519 149.84126984126985,65.82010582010582 150.26455026455028,66.45502645502646 150.6878306878307,67.08994708994709 151.11111111111111,67.51322751322752 151.53439153439155,67.93650793650794 151.95767195767198,68.57142857142858 152.38095238095238,68.994708994709 152.8042328042328,69.41798941798942 153.22751322751324,70.05291005291006 153.65079365079367,70.47619047619048 154.07407407407408,71.11111111111111 154.4973544973545,71.53439153439155 154.92063492063494,71.95767195767196 155.34391534391534,72.5925925925926 155.76719576719577,73.01587301587303 156.1904761904762,73.65079365079366 156.61375661375664,74.07407407407408 157.03703703703704,74.49735449735451 157.46031746031747,75.13227513227514 157.8835978835979,75.55555555555556 158.30687830687833,75.97883597883599 158.73015873015873,76.4021164021164 159.15343915343917,77.03703703703704 159.5767195767196,77.67195767195767 160.0,78.0952380952381 160.42328042328043,78.51851851851852 160.84656084656086,78.94179894179895 161.2698412698413,79.57671957671958 161.6931216931217,80.21164021164022 162.11640211640213,80.63492063492065 162.53968253968256,81.26984126984128 162.96296296296296,81.90476190476191 163.3862433862434,82.32804232804233 163.80952380952382,82.96296296296298 164.23280423280426,83.59788359788361 164.65608465608466,84.23280423280424 165.0793650793651,84.86772486772487 165.50264550264552,85.5026455026455 165.92592592592595,86.13756613756614 166.34920634920636,86.77248677248677 166.7724867724868,87.1957671957672 167.19576719576722,87.83068783068784 167.61904761904762,88.46560846560847 168.04232804232805,88.8888888888889 168.46560846560848,89.52380952380953 168.8888888888889,89.94708994708995 169.31216931216932,90.58201058201058 169.73544973544975,91.21693121693123 170.15873015873018,91.85185185185186 170.58201058201058,92.4867724867725 171.005291005291,93.12169312169313 171.42857142857144,93.75661375661376 171.85185185185188,94.39153439153439 172.27513227513228,95.02645502645504 172.6984126984127,95.66137566137567 173.12169312169314,96.08465608465609 173.54497354497354,96.71957671957672 173.75661375661377,97.35449735449737 174.1798941798942,97.77777777777779 174.3915343915344,98.41269841269842 174.81481481481484,98.83597883597885 175.23809523809524,99.47089947089948 175.66137566137567,100.10582010582011 175.87301587301587,100.74074074074075 176.2962962962963,101.16402116402116 176.71957671957674,101.79894179894181 177.14285714285717,102.43386243386244 177.35449735449737,103.06878306878308 177.7777777777778,103.4920634920635 177.989417989418,104.12698412698414 178.41269841269843,104.55026455026456 178.83597883597884,105.18518518518519 179.25925925925927,105.82010582010582 179.4708994708995,106.45502645502647 179.8941798941799,107.0899470899471 180.31746031746033,107.72486772486774 180.52910052910053,108.35978835978837 180.95238095238096,108.78306878306879 181.16402116402116,109.41798941798943 181.5873015873016,110.05291005291006 182.01058201058203,110.6878306878307 182.22222222222223,111.32275132275133 182.64550264550266,111.74603174603176 182.85714285714286,112.3809523809524 183.2804232804233,113.01587301587303 183.4920634920635,113.65079365079366 183.91534391534393,114.28571428571429 184.12698412698415,114.92063492063492 184.55026455026456,115.34391534391536 184.973544973545,115.97883597883599 185.1851851851852,116.61375661375662 185.60846560846562,117.24867724867725 185.82010582010582,117.88359788359789 186.03174603174605,118.51851851851853 186.45502645502646,118.94179894179895 186.66666666666669,119.57671957671958 187.08994708994712,120.21164021164022 187.30158730158732,120.84656084656086 187.72486772486775,121.4814814814815 187.93650793650795,122.11640211640213 188.35978835978838,122.75132275132276 188.57142857142858,123.3862433862434 188.99470899470901,123.80952380952382 189.41798941798945,124.44444444444446 189.62962962962965,125.07936507936509 189.84126984126985,125.71428571428572 190.26455026455028,126.34920634920636 190.47619047619048,126.98412698412699 190.8994708994709,127.61904761904763 191.11111111111111,128.25396825396825 191.32275132275134,128.88888888888889 191.74603174603175,129.52380952380955 191.95767195767198,130.15873015873018 192.16931216931218,130.7936507936508 192.5925925925926,131.42857142857144 192.8042328042328,132.06349206349208 193.01587301587304,132.6984126984127 193.43915343915344,133.33333333333334 193.65079365079367,133.96825396825398 193.86243386243387,134.6031746031746 194.2857142857143,135.23809523809524 194.4973544973545,135.87301587301587 194.70899470899474,136.5079365079365 195.13227513227514,137.14285714285717 195.34391534391537,137.7777777777778 195.55555555555557,138.41269841269843 195.76719576719577,139.04761904761907 196.1904761904762,139.6825396825397 196.4021164021164,140.31746031746033 196.61375661375664,140.95238095238096 196.82539682539684,141.5873015873016 197.03703703703704,142.22222222222223 197.24867724867727,142.85714285714286 197.6719576719577,143.4920634920635 197.8835978835979,144.12698412698413 198.0952380952381,144.76190476190476 198.30687830687833,145.39682539682542 198.51851851851853,146.03174603174605 198.94179894179896,146.66666666666669 199.15343915343917,147.30158730158732 199.36507936507937,147.93650793650795 199.5767195767196,148.57142857142858 199.7883597883598,149.20634920634922 200.21164021164023,149.62962962962965 200.21164021164023,150.26455026455028 200.42328042328043,150.8994708994709 201.6931216931217,153.86243386243387" style="fill:none; stroke:#999900; stroke-width:1.0"  /><polyline points="201.6931216931217,153.86243386243387 198.94179894179896,156.82539682539684 198.51851851851853,157.24867724867727 198.0952380952381,157.67195767195767 197.6719576719577,158.0952380952381 197.46031746031747,158.73015873015873 197.03703703703704,159.15343915343917 196.61375661375664,159.5767195767196 196.1904761904762,160.0 195.76719576719577,160.42328042328043 195.34391534391537,161.05820105820106 194.92063492063494,161.4814814814815 194.4973544973545,161.90476190476193 194.07407407407408,162.32804232804233 193.65079365079367,162.75132275132276 193.22751322751324,163.1746031746032 192.8042328042328,163.80952380952382 192.3809523809524,164.23280423280426 191.95767195767198,164.65608465608466 191.53439153439155,165.0793650793651 191.11111111111111,165.50264550264552 190.47619047619048,165.92592592592595 190.05291005291008,166.34920634920636 189.62962962962965,166.7724867724868 188.99470899470901,167.19576719576722 188.35978835978838,167.61904761904762 187.93650793650795,168.04232804232805 187.30158730158732,168.25396825396825 186.8783068783069,168.67724867724868 186.24338624338625,169.10052910052912 185.60846560846562,169.31216931216932 185.1851851851852,169.73544973544975 184.55026455026456,169.94708994708995 183.91534391534393,170.37037037037038 183.2804232804233,170.58201058201058 182.85714285714286,171.005291005291 182.22222222222223,171.21693121693124 181.5873015873016,171.42857142857144 180.95238095238096,171.85185185185188 180.31746031746033,172.06349206349208 179.6825396825397,172.27513227513228 179.04761904761907,172.6984126984127 178.41269841269843,172.9100529100529 177.7777777777778,173.12169312169314 177.14285714285717,173.33333333333334 176.50793650793653,173.54497354497354 175.87301587301587,173.75661375661377 175.23809523809524,173.96825396825398 174.6031746031746,173.96825396825398 173.96825396825398,174.1798941798942 173.33333333333334,174.3915343915344 172.6984126984127,174.6031746031746 172.06349206349208,174.6031746031746 171.42857142857144,174.81481481481484 170.7936507936508,175.02645502645504 170.15873015873018,175.02645502645504 169.52380952380955,175.23809523809524 168.8888888888889,175.23809523809524 168.25396825396825,175.44973544973547 167.61904761904762,175.44973544973547 166.984126984127,175.44973544973547 166.34920634920636,175.44973544973547 165.71428571428572,175.66137566137567 165.0793650793651,175.66137566137567 164.44444444444446,175.66137566137567 163.80952380952382,175.66137566137567 163.1746031746032,175.66137566137567 162.53968253968256,175.44973544973547 161.90476190476193,175.44973544973547 161.2698412698413,175.44973544973547 160.63492063492066,175.23809523809524 160.0,175.23809523809524 159.36507936507937,175.02645502645504 158.73015873015873,175.02645502645504 158.0952380952381,175.02645502645504 157.46031746031747,174.81481481481484 156.82539682539684,174.6031746031746 156.1904761904762,174.3915343915344 155.55555555555557,174.1798941798942 154.92063492063494,173.96825396825398 154.4973544973545,173.54497354497354 153.86243386243387,173.12169312169314 153.22751322751324,172.6984126984127 152.8042328042328,172.27513227513228 152.38095238095238,171.85185185185188 151.95767195767198,171.42857142857144 151.53439153439155,170.7936507936508 151.11111111111111,170.15873015873018 150.8994708994709,169.52380952380955 150.47619047619048,168.8888888888889 150.26455026455028,168.25396825396825 150.05291005291005,167.61904761904762 150.05291005291005,166.984126984127 149.84126984126985,166.34920634920636 149.62962962962965,165.71428571428572 149.62962962962965,165.0793650793651 149.41798941798942,164.44444444444446 149.41798941798942,163.80952380952382 149.41798941798942,163.1746031746032 149.41798941798942,162.53968253968256 149.41798941798942,161.90476190476193 149.41798941798942,161.2698412698413 149.41798941798942,160.63492063492066 149.41798941798942,160.0 149.41798941798942,159.36507936507937 149.62962962962965,158.73015873015873 149.20634920634922,158.0952380952381 149.41798941798942,157.46031746031747 149.41798941798942,156.82539682539684 149.41798941798942,156.1904761904762 149.41798941798942,155.55555555555557 149.41798941798942,154.92063492063494 149.41798941798942,154.2857142857143 149.41798941798942,153.65079365079367 149.41798941798942,153.01587301587304 149.41798941798942,152.38095238095238 149.41798941798942,151.74603174603175 149.41798941798942,151.11111111111111 149.41798941798942,150.47619047619048 149.41798941798942,149.84126984126985 149.20634920634922,149.20634920634922 148.99470899470901,148.57142857142858 148.99470899470901,147.93650793650795 148.57142857142858,147.30158730158732 148.35978835978838,146.66666666666669 147.93650793650795,146.03174603174605 147.72486772486775,145.39682539682542 147.30158730158732,144.76190476190476 146.8783068783069,144.33862433862436 146.45502645502646,143.91534391534393 146.03174603174605,143.2804232804233 145.60846560846562,142.85714285714286 145.1851851851852,142.43386243386246 144.76190476190476,142.01058201058203 144.12698412698413,141.5873015873016 143.70370370370372,141.16402116402116 143.0687830687831,140.74074074074076 142.43386243386246,140.31746031746033 141.7989417989418,140.10582010582013 141.16402116402116,139.8941798941799 140.52910052910053,139.47089947089947 139.8941798941799,139.25925925925927 139.25925925925927,139.04761904761907 138.62433862433863,138.83597883597884 137.989417989418,138.41269841269843 137.35449735449737,138.41269841269843 136.71957671957674,138.2010582010582 136.0846560846561,137.989417989418 135.44973544973547,137.989417989418 134.81481481481484,137.7777777777778 134.17989417989418,137.7777777777778 133.54497354497354,137.56613756613757 132.9100529100529,137.56613756613757 132.27513227513228,137.56613756613757 131.64021164021165,137.56613756613757 131.005291005291,137.56613756613757 130.37037037037038,137.7777777777778 129.73544973544975,137.7777777777778 129.10052910052912,137.7777777777778 128.46560846560848,137.989417989418 127.83068783068784,138.2010582010582 127.1957671957672,138.2010582010582 126.56084656084657,138.41269841269843 125.92592592592594,138.62433862433863 125.2910052910053,138.83597883597884 124.65608465608466,139.04761904761907 124.02116402116403,139.25925925925927 123.3862433862434,139.47089947089947 122.96296296296298,139.8941798941799 122.32804232804234,140.10582010582013 121.6931216931217,140.31746031746033 121.05820105820106,140.74074074074076 120.42328042328043,140.95238095238096 119.7883597883598,141.3756613756614 119.15343915343917,141.5873015873016 118.51851851851853,141.7989417989418 118.0952380952381,142.22222222222223 117.46031746031747,142.43386243386246 116.82539682539684,142.85714285714286 116.1904761904762,143.0687830687831 115.76719576719577,143.4920634920635 115.13227513227514,143.70370370370372 114.70899470899472,144.12698412698413 114.07407407407408,144.55026455026456 113.43915343915344,144.76190476190476 112.80423280423281,145.1851851851852 112.3809523809524,145.60846560846562 111.74603174603176,146.03174603174605 111.11111111111111,146.45502645502646 110.47619047619048,146.8783068783069 110.05291005291006,147.51322751322752 109.41798941798943,147.93650793650795 108.994708994709,148.35978835978838 108.57142857142858,148.78306878306879 108.14814814814815,149.20634920634922 107.72486772486774,149.84126984126985 107.3015873015873,150.26455026455028 106.87830687830689,150.6878306878307 106.45502645502647,151.32275132275134 106.03174603174604,151.95767195767198 105.60846560846562,152.5925925925926 105.18518518518519,153.22751322751324 104.97354497354497,153.86243386243387 104.55026455026456,154.2857142857143 104.33862433862434,154.92063492063494 103.91534391534393,155.55555555555557 103.4920634920635,156.1904761904762 103.28042328042329,156.82539682539684 103.06878306878308,157.46031746031747 102.64550264550266,158.0952380952381 102.64550264550266,158.73015873015873 102.43386243386244,159.36507936507937 102.22222222222223,160.0 102.22222222222223,160.63492063492066 102.22222222222223,161.2698412698413 102.22222222222223,161.90476190476193 102.22222222222223,162.53968253968256 102.22222222222223,163.1746031746032 102.22222222222223,163.80952380952382 102.43386243386244,164.44444444444446 102.43386243386244,165.0793650793651 102.64550264550266,165.71428571428572 102.85714285714286,166.34920634920636 103.06878306878308,166.984126984127 103.28042328042329,167.61904761904762 103.4920634920635,168.25396825396825 103.91534391534393,168.8888888888889 104.33862433862434,169.52380952380955 104.55026455026456,170.15873015873018 104.97354497354497,170.58201058201058 105.3968253968254,171.21693121693124 105.82010582010582,171.64021164021165 106.24338624338625,172.06349206349208 106.66666666666667,172.6984126984127 107.0899470899471,173.12169312169314 107.51322751322752,173.54497354497354 108.14814814814815,173.96825396825398 108.57142857142858,174.3915343915344 108.994708994709,174.81481481481484 109.62962962962963,175.23809523809524 110.26455026455027,175.66137566137567 110.6878306878307,176.0846560846561 111.32275132275133,176.50793650793653 111.95767195767196,176.71957671957674 112.3809523809524,177.14285714285717 113.01587301587303,177.56613756613757 113.65079365079366,177.989417989418 114.28571428571429,178.2010582010582 114.92063492063492,178.62433862433863 115.55555555555557,179.04761904761907 116.1904761904762,179.4708994708995 116.82539682539684,179.6825396825397 117.24867724867725,180.10582010582013 117.88359788359789,180.31746031746033 118.51851851851853,180.74074074074076 119.15343915343917,181.16402116402116 119.7883597883598,181.5873015873016 120.42328042328043,181.79894179894183 120.84656084656086,182.22222222222223 121.4814814814815,182.64550264550266 121.90476190476191,183.0687830687831 122.53968253968254,183.4920634920635 122.96296296296298,184.12698412698415 123.3862433862434,184.7619047619048 123.80952380952382,185.1851851851852 124.02116402116403,185.82010582010582 124.23280423280424,186.45502645502646 124.44444444444446,187.08994708994712 124.65608465608466,187.72486772486775 124.86772486772487,188.35978835978838 124.86772486772487,188.99470899470901 124.86772486772487,189.62962962962965 124.86772486772487,190.26455026455028 124.86772486772487,190.8994708994709 124.86772486772487,191.53439153439155 124.65608465608466,192.16931216931218 124.65608465608466,192.8042328042328 124.44444444444446,193.43915343915344 124.44444444444446,194.07407407407408 124.23280423280424,194.70899470899474 123.80952380952382,195.34391534391537 123.59788359788361,195.978835978836 123.17460317460318,196.61375661375664 122.96296296296298,197.24867724867727 122.75132275132276,197.8835978835979 122.32804232804234,198.51851851851853 121.90476190476191,198.94179894179896 121.6931216931217,199.5767195767196 121.26984126984128,200.00000000000003 120.84656084656086,200.42328042328043 120.42328042328043,201.05820105820106 120.00000000000001,201.4814814814815 119.57671957671958,201.90476190476193 119.15343915343917,202.32804232804233 118.51851851851853,202.75132275132276 117.88359788359789,202.962962962963 117.46031746031747,203.3862433862434 116.82539682539684,203.80952380952382 116.1904761904762,204.02116402116403 115.55555555555557,204.44444444444446 114.92063492063492,204.65608465608466 114.28571428571429,204.8677248677249 113.65079365079366,205.0793650793651 113.01587301587303,205.50264550264552 112.3809523809524,205.71428571428572 111.74603174603176,205.71428571428572 111.11111111111111,205.92592592592595 110.47619047619048,206.13756613756615 109.84126984126985,206.34920634920636 109.20634920634922,206.56084656084658 108.57142857142858,206.56084656084658 107.93650793650795,206.7724867724868 107.3015873015873,206.984126984127 106.66666666666667,207.19576719576722 106.03174603174604,207.19576719576722 105.3968253968254,207.40740740740742 104.76190476190477,207.61904761904765 104.12698412698414,207.61904761904765 103.4920634920635,207.83068783068785 102.85714285714286,208.04232804232805 102.22222222222223,208.25396825396828 101.5873015873016,208.25396825396828 100.95238095238096,208.46560846560848 100.31746031746033,208.46560846560848 99.68253968253968,208.67724867724868 99.04761904761905,208.8888888888889 98.41269841269842,208.8888888888889 97.77777777777779,208.8888888888889 97.14285714285715,209.10052910052912 96.50793650793652,209.31216931216932 95.87301587301587,209.52380952380955 95.23809523809524,209.52380952380955 94.60317460317461,209.73544973544975 93.96825396825398,209.73544973544975 93.33333333333334,209.94708994708995 92.69841269841271,209.94708994708995 92.06349206349208,210.15873015873018 91.42857142857143,210.37037037037038 90.7936507936508,210.37037037037038 90.15873015873017,210.5820105820106 89.52380952380953,210.7936507936508 88.8888888888889,210.7936507936508 88.46560846560847,211.21693121693124 87.83068783068784,211.21693121693124 87.1957671957672,211.42857142857144 86.56084656084657,211.42857142857144 85.92592592592594,211.64021164021165 85.29100529100529,211.85185185185188 84.65608465608466,212.06349206349208 84.02116402116403,212.06349206349208 83.3862433862434,212.27513227513228 82.75132275132276,212.27513227513228 78.94179894179895,213.12169312169314" style="fill:none; stroke:#00aa99; stroke-width:1.0"  /><polyline points="78.94179894179895,213.12169312169314 77.67195767195767,210.15873015873018 77.46031746031747,209.52380952380955 77.24867724867725,208.8888888888889 76.82539682539684,208.25396825396828 76.61375661375662,207.61904761904765 76.4021164021164,206.984126984127 76.19047619047619,206.34920634920636 75.76719576719577,205.71428571428572 75.55555555555556,205.0793650793651 75.34391534391536,204.44444444444446 75.13227513227514,203.80952380952382 74.70899470899471,203.1746031746032 74.49735449735451,202.53968253968256 74.28571428571429,201.90476190476193 74.07407407407408,201.2698412698413 73.65079365079366,200.63492063492066 73.43915343915344,200.00000000000003 73.01587301587303,199.36507936507937 72.80423280423281,198.73015873015873 72.5925925925926,198.0952380952381 72.16931216931218,197.6719576719577 71.95767195767196,197.03703703703704 71.95767195767196,196.4021164021164 71.53439153439155,195.76719576719577 71.32275132275133,195.13227513227514 71.11111111111111,194.4973544973545 70.8994708994709,193.86243386243387 70.47619047619048,193.43915343915344 70.05291005291006,192.8042328042328 69.84126984126985,192.16931216931218 69.62962962962963,191.53439153439155 69.41798941798942,190.8994708994709 69.20634920634922,190.26455026455028 68.78306878306879,189.62962962962965 68.57142857142858,188.99470899470901 68.35978835978837,188.35978835978838 68.14814814814815,187.72486772486775 67.72486772486774,187.08994708994712 67.51322751322752,186.45502645502646 67.08994708994709,185.82010582010582 66.87830687830689,185.1851851851852 66.66666666666667,184.55026455026456 66.45502645502646,183.91534391534393 66.24338624338625,183.2804232804233 65.82010582010582,182.64550264550266 65.60846560846561,182.01058201058203 65.3968253968254,181.3756613756614 64.97354497354497,180.74074074074076 64.76190476190477,180.10582010582013 64.55026455026456,179.4708994708995 64.12698412698413,178.83597883597884 63.91534391534392,178.2010582010582 63.70370370370371,177.56613756613757 63.492063492063494,176.93121693121694 63.280423280423285,176.2962962962963 62.85714285714286,175.66137566137567 62.64550264550265,175.02645502645504 62.43386243386244,174.3915343915344 62.22222222222223,173.75661375661377 62.01058201058201,173.12169312169314 61.58730158730159,172.4867724867725 61.37566137566138,171.85185185185188 61.16402116402117,171.21693121693124 60.74074074074075,170.58201058201058 60.52910052910053,169.94708994708995 60.31746031746032,169.31216931216932 60.10582010582011,168.67724867724868 59.8941798941799,168.04232804232805 59.682539682539684,167.40740740740742 59.25925925925927,166.7724867724868 59.04761904761905,166.13756613756615 58.83597883597884,165.50264550264552 58.41269841269842,164.8677248677249 58.41269841269842,164.23280423280426 57.989417989417994,163.59788359788362 57.777777777777786,162.96296296296296 57.56613756613757,162.32804232804233 57.35449735449736,161.6931216931217 56.93121693121694,161.05820105820106 56.71957671957672,160.42328042328043 56.50793650793651,159.7883597883598 56.2962962962963,159.15343915343917 55.87301587301588,158.73015873015873 55.449735449735456,158.0952380952381 55.02645502645503,157.46031746031747 54.60317460317461,156.82539682539684 53.968253968253975,156.4021164021164 53.54497354497355,155.978835978836 52.91005291005291,155.76719576719577 52.27513227513228,155.34391534391534 51.640211640211646,155.34391534391534 51.00529100529101,155.13227513227514 50.370370370370374,155.13227513227514 49.73544973544974,155.13227513227514 49.1005291005291,155.13227513227514 48.46560846560847,155.34391534391534 47.830687830687836,155.55555555555557 47.195767195767196,155.76719576719577 46.560846560846564,155.978835978836 45.92592592592593,156.4021164021164 45.29100529100529,156.82539682539684 44.65608465608466,157.24867724867727 44.232804232804234,157.67195767195767 43.5978835978836,158.0952380952381 43.17460317460318,158.51851851851853 42.75132275132275,159.15343915343917 42.32804232804233,159.5767195767196 41.904761904761905,160.21164021164023 41.48148148148149,160.63492063492066 41.058201058201064,161.2698412698413 40.63492063492064,161.6931216931217 40.211640211640216,162.32804232804233 39.78835978835979,162.96296296296296 39.36507936507937,163.3862433862434 38.94179894179894,163.80952380952382 38.51851851851852,164.23280423280426 38.095238095238095,164.8677248677249 37.67195767195768,165.2910052910053 37.248677248677254,165.71428571428572 36.82539682539683,166.13756613756615 36.19047619047619,166.56084656084658 35.76719576719577,166.984126984127 35.13227513227513,167.40740740740742 34.4973544973545,167.61904761904762 33.86243386243387,167.83068783068785 33.22751322751323,168.25396825396825 32.592592592592595,168.46560846560848 31.95767195767196,168.8888888888889 31.322751322751326,168.8888888888889 30.68783068783069,169.10052910052912 30.052910052910054,169.31216931216932 29.41798941798942,169.31216931216932 28.783068783068785,169.31216931216932 28.14814814814815,169.31216931216932 27.513227513227516,169.31216931216932 26.87830687830688,169.10052910052912 26.243386243386244,169.10052910052912 25.60846560846561,168.8888888888889 24.973544973544975,168.8888888888889 24.338624338624342,168.46560846560848 23.703703703703706,168.25396825396825 23.06878306878307,167.83068783068785 22.433862433862437,167.61904761904762 21.7989417989418,167.19576719576722 21.164021164021165,166.7724867724868 20.529100529100532,166.34920634920636 20.105820105820108,165.92592592592595 19.47089947089947,165.50264550264552 18.83597883597884,165.0793650793651 18.201058201058203,164.65608465608466 17.77777777777778,164.23280423280426 17.354497354497354,163.80952380952382 16.931216931216934,163.3862433862434 16.50793650793651,162.75132275132276 16.084656084656086,162.32804232804233 15.661375661375663,161.6931216931217 15.238095238095239,161.2698412698413 14.814814814814817,160.63492063492066 14.391534391534393,160.0 14.17989417989418,159.36507936507937 13.756613756613758,158.73015873015873 13.333333333333334,158.0952380952381 13.333333333333334,157.46031746031747 13.121693121693122,156.82539682539684 12.910052910052912,156.1904761904762 12.6984126984127,155.55555555555557 12.6984126984127,154.92063492063494 12.486772486772487,154.2857142857143 12.486772486772487,153.65079365079367 12.486772486772487,153.01587301587304 12.486772486772487,152.38095238095238 12.486772486772487,151.74603174603175 12.486772486772487,151.11111111111111 12.486772486772487,150.47619047619048 12.486772486772487,149.84126984126985 12.486772486772487,149.20634920634922 12.6984126984127,148.57142857142858 12.910052910052912,147.93650793650795 13.333333333333334,147.30158730158732 13.544973544973546,146.66666666666669 13.96825396825397,146.24338624338625 14.391534391534393,145.60846560846562 14.814814814814817,145.1851851851852 15.238095238095239,144.76190476190476 15.661375661375663,144.33862433862436 16.296296296296298,143.91534391534393 16.71957671957672,143.4920634920635 17.354497354497354,143.0687830687831 17.77777777777778,142.64550264550266 18.412698412698415,142.22222222222223 18.83597883597884,141.7989417989418 19.47089947089947,141.3756613756614 19.894179894179896,140.95238095238096 20.529100529100532,140.95238095238096 20.952380952380953,140.52910052910053 21.375661375661377,140.10582010582013 22.010582010582013,140.10582010582013 22.645502645502646,139.6825396825397 23.280423280423282,139.47089947089947 24.12698412698413,138.83597883597884 24.761904761904763,138.83597883597884 25.185185185185187,138.41269841269843 25.820105820105823,138.2010582010582 26.455026455026456,137.989417989418 27.089947089947092,137.7777777777778 27.724867724867728,137.989417989418 28.35978835978836,137.7777777777778 28.994708994708997,137.56613756613757 29.629629629629633,137.35449735449737 30.264550264550266,137.14285714285717 30.899470899470902,136.93121693121694 31.53439153439154,136.5079365079365 31.95767195767196,136.0846560846561 32.592592592592595,135.87301587301587 33.22751322751323,135.44973544973547 33.65079365079365,135.02645502645504 34.074074074074076,134.6031746031746 34.4973544973545,134.17989417989418 34.920634920634924,133.54497354497354 35.34391534391535,132.9100529100529 35.55555555555556,132.27513227513228 35.76719576719577,131.64021164021165 35.76719576719577,131.005291005291 35.76719576719577,130.37037037037038 35.76719576719577,129.73544973544975 35.76719576719577,129.10052910052912 35.55555555555556,128.46560846560848 35.34391534391535,127.83068783068784 35.13227513227513,127.1957671957672 34.920634920634924,126.56084656084657 34.4973544973545,125.92592592592594 34.074074074074076,125.2910052910053 33.86243386243387,124.65608465608466 33.43915343915344,124.23280423280424 33.01587301587302,123.80952380952382 32.804232804232804,123.17460317460318 32.38095238095239,122.53968253968254 31.95767195767196,121.90476190476191 31.53439153439154,121.26984126984128 31.111111111111114,120.63492063492065 30.899470899470902,120.00000000000001 30.476190476190478,119.36507936507937 30.052910052910054,118.73015873015873 29.841269841269842,118.0952380952381 29.41798941798942,117.46031746031747 28.994708994708997,116.82539682539684 28.571428571428573,116.1904761904762 28.14814814814815,115.55555555555557 27.93650793650794,114.92063492063492 27.513227513227516,114.28571428571429 27.301587301587304,113.65079365079366 26.87830687830688,113.01587301587303 26.455026455026456,112.3809523809524 26.243386243386244,111.74603174603176 25.820105820105823,111.32275132275133 25.60846560846561,110.6878306878307 25.185185185185187,110.05291005291006 24.761904761904763,109.41798941798943 24.55026455026455,108.78306878306879 24.12698412698413,108.14814814814815 23.703703703703706,107.72486772486774 23.492063492063494,107.0899470899471 23.06878306878307,106.45502645502647 23.06878306878307,105.82010582010582 22.645502645502646,105.3968253968254 22.222222222222225,104.76190476190477 22.010582010582013,104.12698412698414 21.58730158730159,103.4920634920635 21.375661375661377,102.85714285714286 20.952380952380953,102.43386243386244 20.740740740740744,101.79894179894181 20.31746031746032,101.16402116402116 19.894179894179896,100.52910052910053 19.682539682539684,99.8941798941799 19.25925925925926,99.25925925925927 19.047619047619047,98.62433862433863 18.624338624338627,98.2010582010582 18.201058201058203,97.56613756613757 17.77777777777778,96.93121693121694 17.566137566137566,96.2962962962963 17.142857142857146,95.66137566137567 16.931216931216934,95.02645502645504 16.50793650793651,94.39153439153439 16.296296296296298,93.75661375661376 15.873015873015873,93.12169312169313 15.449735449735451,92.4867724867725 15.238095238095239,91.85185185185186 14.814814814814817,91.21693121693123 14.391534391534393,90.58201058201058 14.17989417989418,89.94708994708995 13.756613756613758,89.31216931216932 13.333333333333334,88.8888888888889 13.121693121693122,88.25396825396827 12.6984126984127,87.61904761904762 12.486772486772487,86.98412698412699 12.275132275132275,86.34920634920636 11.851851851851853,85.92592592592594 11.640211640211641,85.29100529100529 11.216931216931219,84.65608465608466 11.005291005291006,84.02116402116403 10.793650793650794,83.3862433862434 10.370370370370372,82.75132275132276 10.15873015873016,82.11640211640213 9.947089947089948,81.48148148148148 9.523809523809524,80.84656084656085 9.312169312169313,80.21164021164022 9.100529100529101,79.57671957671958 8.677248677248677,78.94179894179895 8.465608465608467,78.30687830687832 8.042328042328043,77.67195767195767 7.830687830687832,77.03703703703704 7.6190476190476195,76.4021164021164 7.407407407407408,75.76719576719577 6.984126984126985,75.13227513227514 6.772486772486773,74.49735449735451 6.34920634920635,73.86243386243387 6.137566137566138,73.22751322751323 5.9259259259259265,72.5925925925926 5.714285714285714,71.95767195767196 5.291005291005291,71.32275132275133 5.07936507936508,70.6878306878307 4.867724867724868,70.05291005291006 4.444444444444445,69.41798941798942 4.2328042328042335,68.78306878306879 4.021164021164021,68.14814814814815 3.8095238095238098,67.51322751322752 3.3862433862433865,66.87830687830689 3.174603174603175,66.24338624338625 2.9629629629629632,65.60846560846561 2.7513227513227516,64.97354497354497 2.3280423280423284,64.33862433862434 2.1164021164021167,63.70370370370371 1.6931216931216932,63.06878306878308 1.4814814814814816,62.43386243386244 1.26984126984127,61.798941798941804 -0.21164021164021166,58.2010582010582" style="fill:none; stroke:#3300bb; stroke-width:1.0"  /><circle cx="-0.21164021164021166" cy="58.2010582010582" r="2.0" style="fill:none; stroke:#000000aa; stroke-width:0.25" /><circle cx="115.76719576719577" cy="0.0" r="2.0" style="fill:none; stroke:#000000aa; stroke-width:0.25" /><circle cx="201.6931216931217" cy="153.86243386243387" r="2.0" style="fill:none; stroke:#000000aa; stroke-width:0.25" /><circle cx="78.94179894179895" cy="213.12169312169314" r="2.0" style="fill:none; stroke:#000000aa; stroke-width:0.25" /><circle cx="0.21164021164021166" cy="58.41269841269842" r="2.0" style="fill:none; stroke:#ff3366aa; stroke-width:0.25" /><circle cx="115.55555555555557" cy="0.21164021164021166" r="2.0" style="fill:none; stroke:#ff3366aa; stroke-width:0.25" /><circle cx="201.05820105820106" cy="154.07407407407408" r="2.0" style="fill:none; stroke:#ff3366aa; stroke-width:0.25" /><circle cx="79.36507936507937" cy="213.12169312169314" r="2.0" style="fill:none; stroke:#ff3366aa; stroke-width:0.25" /><polyline points="9.523809523809524,50.7936507936508 8.88888888888889,51.21693121693122 8.253968253968255,51.640211640211646 7.830687830687832,52.06349206349207 7.195767195767196,52.48677248677249 6.560846560846561,52.91005291005291 5.9259259259259265,53.333333333333336 5.502645502645503,53.75661375661376 5.07936507936508,54.179894179894184 4.656084656084657,54.60317460317461 4.021164021164021,55.02645502645503 3.3862433862433865,55.449735449735456 2.7513227513227516,55.87301587301588 2.3280423280423284,56.2962962962963" style="fill:none; stroke:#001100; stroke-width:1.0" /><polyline points="4.444444444444445,69.41798941798942 4.2328042328042335,68.78306878306879 4.021164021164021,68.14814814814815 3.8095238095238098,67.51322751322752 3.3862433862433865,66.87830687830689 3.174603174603175,66.24338624338625 2.9629629629629632,65.60846560846561 2.7513227513227516,64.97354497354497 2.3280423280423284,64.33862433862434 2.1164021164021167,63.70370370370371 1.6931216931216932,63.06878306878308 1.4814814814814816,62.43386243386244 1.26984126984127,61.798941798941804" style="fill:none; stroke:#000011; stroke-width:1.0" /><polyline points="120.21164021164022,11.216931216931219 120.00000000000001,10.582010582010582 119.7883597883598,9.947089947089948 119.57671957671958,9.312169312169313 119.36507936507937,8.677248677248677 119.15343915343917,8.042328042328043 118.94179894179895,7.407407407407408 118.73015873015873,6.772486772486773 118.51851851851853,6.137566137566138 118.0952380952381,5.502645502645503 117.88359788359789,4.867724867724868 117.67195767195768,4.2328042328042335 117.46031746031747,3.597883597883598 117.03703703703705,2.9629629629629632" style="fill:none; stroke:#001100; stroke-width:1.0" /><polyline points="104.33862433862434,3.8095238095238098 104.97354497354497,3.597883597883598 105.60846560846562,3.3862433862433865 106.24338624338625,3.174603174603175 106.87830687830689,2.9629629629629632 107.51322751322752,2.7513227513227516 108.14814814814815,2.53968253968254 108.78306878306879,2.3280423280423284 109.41798941798943,2.1164021164021167 110.05291005291006,1.9047619047619049 110.6878306878307,1.6931216931216932 111.32275132275133,1.4814814814814816 111.95767195767196,1.26984126984127 112.5925925925926,1.0582010582010584" style="fill:none; stroke:#000011; stroke-width:1.0" /><polyline points="193.22751322751324,163.1746031746032 193.65079365079367,162.75132275132276 194.07407407407408,162.32804232804233 194.4973544973545,161.90476190476193 194.92063492063494,161.4814814814815 195.34391534391537,161.05820105820106 195.76719576719577,160.42328042328043 196.1904761904762,160.0 196.61375661375664,159.5767195767196 197.03703703703704,159.15343915343917 197.46031746031747,158.73015873015873 197.6719576719577,158.0952380952381 198.0952380952381,157.67195767195767 198.51851851851853,157.24867724867727 198.94179894179896,156.82539682539684" style="fill:none; stroke:#001100; stroke-width:1.0" /><polyline points="197.24867724867727,142.85714285714286 197.6719576719577,143.4920634920635 197.8835978835979,144.12698412698413 198.0952380952381,144.76190476190476 198.30687830687833,145.39682539682542 198.51851851851853,146.03174603174605 198.94179894179896,146.66666666666669 199.15343915343917,147.30158730158732 199.36507936507937,147.93650793650795 199.5767195767196,148.57142857142858 199.7883597883598,149.20634920634922 200.21164021164023,149.62962962962965 200.21164021164023,150.26455026455028 200.42328042328043,150.8994708994709" style="fill:none; stroke:#000011; stroke-width:1.0" /><polyline points="74.49735449735451,202.53968253968256 74.70899470899471,203.1746031746032 75.13227513227514,203.80952380952382 75.34391534391536,204.44444444444446 75.55555555555556,205.0793650793651 75.76719576719577,205.71428571428572 76.19047619047619,206.34920634920636 76.4021164021164,206.984126984127 76.61375661375662,207.61904761904765 76.82539682539684,208.25396825396828 77.24867724867725,208.8888888888889 77.46031746031747,209.52380952380955 77.67195767195767,210.15873015873018" style="fill:none; stroke:#001100; stroke-width:1.0" /><polyline points="90.7936507936508,210.37037037037038 90.15873015873017,210.5820105820106 89.52380952380953,210.7936507936508 88.8888888888889,210.7936507936508 88.46560846560847,211.21693121693124 87.83068783068784,211.21693121693124 87.1957671957672,211.42857142857144 86.56084656084657,211.42857142857144 85.92592592592594,211.64021164021165 85.29100529100529,211.85185185185188 84.65608465608466,212.06349206349208 84.02116402116403,212.06349206349208 83.3862433862434,212.27513227513228 82.75132275132276,212.27513227513228" style="fill:none; stroke:#000011; stroke-width:1.0" /><polyline points="2.3280423280423284,56.2962962962963 -14.391534391534393,69.20634920634922" style="fill:none; stroke:#ffaa00; stroke-width:0.4" /><polyline points="1.26984126984127,61.798941798941804 -6.772486772486773,42.32804232804233" style="fill:none; stroke:#aaff00; stroke-width:0.4" /><polyline points="117.03703703703705,2.9629629629629632 109.41798941798943,-16.71957671957672" style="fill:none; stroke:#ffaa00; stroke-width:0.4" /><polyline points="112.5925925925926,1.0582010582010584 132.6984126984127,-5.714285714285714" style="fill:none; stroke:#aaff00; stroke-width:0.4" /><polyline points="198.94179894179896,156.82539682539684 213.12169312169314,141.16402116402116" style="fill:none; stroke:#ffaa00; stroke-width:0.4" /><polyline points="200.42328042328043,150.8994708994709 208.25396825396828,170.58201058201058" style="fill:none; stroke:#aaff00; stroke-width:0.4" /><polyline points="77.67195767195767,210.15873015873018 85.71428571428572,229.62962962962965" style="fill:none; stroke:#ffaa00; stroke-width:0.4" /><polyline points="82.75132275132276,212.27513227513228 62.22222222222223,217.14285714285717" style="fill:none; stroke:#aaff00; stroke-width:0.4" /><circle cx="99.68253968253968" cy="105.18518518518519" r="1.0" style="fill:#444444; stroke-width:0" /><circle cx="110.26455026455027" cy="93.75661375661376" r="10.582010582010582" style="fill:#ff770022; stroke-width:0" /><circle cx="110.26455026455027" cy="93.75661375661376" r="1.0" style="fill:#ff7700; stroke-width:0" /></svg>