<?xml version="1.0" encoding="UTF-8" standalone="no"?><svg width="534.6031746031747" height="572.6984126984128" viewBox="-10 -10 198.2010582010582 210.8994708994709" xmlns="http://www.w3.org/2000/svg" xmlns:xlink="http://www.w3.org/1999/xlink"><polyline points="79.7883597883598,-0.4232804232804233 83.3862433862434,1.4814814814814816 84.02116402116403,1.9047619047619049 84.65608465608466,2.1164021164021167 85.29100529100529,2.53968253968254 85.92592592592594,2.7513227513227516 86.56084656084657,3.174603174603175 87.1957671957672,3.3862433862433865 87.83068783068784,3.597883597883598 88.46560846560847,4.021164021164021 89.1005291005291,4.2328042328042335 89.73544973544975,4.656084656084657 90.37037037037038,4.867724867724868 91.00529100529101,5.291005291005291 91.64021164021165,5.502645502645503 92.27513227513228,5.9259259259259265 92.91005291005291,6.137566137566138 93.54497354497356,6.34920634920635 94.17989417989419,6.772486772486773 94.81481481481482,6.984126984126985 95.44973544973546,7.407407407407408 96.08465608465609,7.6190476190476195 96.50793650793652,8.042328042328043 97.14285714285715,8.253968253968255 97.56613756613757,8.677248677248677 98.2010582010582,8.88888888888889 98.83597883597885,9.312169312169313 99.47089947089948,9.523809523809524 99.8941798941799,9.947089947089948 100.52910052910053,10.15873015873016 101.16402116402116,10.582010582010582 101.79894179894181,11.005291005291006 102.43386243386244,11.216931216931219 103.06878306878308,11.640211640211641 103.70370370370371,12.063492063492065 104.33862433862434,12.486772486772487 104.97354497354497,12.910052910052912 105.60846560846562,13.121693121693122 106.24338624338625,13.544973544973546 106.87830687830689,13.96825396825397 107.51322751322752,14.391534391534393 108.14814814814815,14.391534391534393 108.57142857142858,14.814814814814817 109.20634920634922,15.238095238095239 109.84126984126985,15.661375661375663 110.47619047619048,16.084656084656086 110.89947089947091,16.50793650793651 111.53439153439155,16.931216931216934 112.16931216931218,17.354497354497354 112.80423280423281,17.77777777777778 113.43915343915344,18.201058201058203 114.07407407407408,18.624338624338627 114.49735449735451,19.047619047619047 115.13227513227514,19.47089947089947 115.55555555555557,19.894179894179896 115.97883597883599,20.31746031746032 116.61375661375662,20.740740740740744 117.03703703703705,21.164021164021165 117.24867724867725,21.7989417989418 117.46031746031747,22.433862433862437 117.67195767195768,23.06878306878307 117.88359788359789,23.703703703703706 117.67195767195768,24.338624338624342 117.67195767195768,24.973544973544975 117.67195767195768,25.60846560846561 117.46031746031747,26.243386243386244 117.03703703703705,26.87830687830688 116.82539682539684,27.513227513227516 116.4021164021164,28.14814814814815 115.97883597883599,28.571428571428573 115.55555555555557,29.20634920634921 115.13227513227514,29.629629629629633 114.49735449735451,30.052910052910054 114.07407407407408,30.476190476190478 113.43915343915344,30.899470899470902 112.80423280423281,31.111111111111114 112.16931216931218,31.53439153439154 111.53439153439155,31.95767195767196 110.89947089947091,32.38095238095239 110.26455026455027,32.804232804232804 109.84126984126985,33.22751322751323 109.20634920634922,33.65079365079365 108.78306878306879,34.074074074074076 108.14814814814815,34.4973544973545 107.93650793650795,35.13227513227513 107.51322751322752,35.76719576719577 107.51322751322752,36.402116402116405 107.0899470899471,37.03703703703704 107.0899470899471,37.67195767195768 106.87830687830689,38.30687830687831 106.66666666666667,38.94179894179894 106.66666666666667,39.57671957671958 106.66666666666667,40.211640211640216 106.87830687830689,40.84656084656085 107.0899470899471,41.48148148148149 107.0899470899471,42.11640211640212 107.51322751322752,42.75132275132275 107.93650793650795,43.386243386243386 108.35978835978837,44.021164021164026 108.78306878306879,44.65608465608466 109.20634920634922,45.29100529100529 109.62962962962963,45.92592592592593 110.05291005291006,46.349206349206355 110.47619047619048,46.98412698412699 110.89947089947091,47.40740740740741 111.32275132275133,48.042328042328045 111.74603174603176,48.46560846560847 112.16931216931218,49.1005291005291 112.5925925925926,49.523809523809526 113.01587301587303,49.94708994708995 113.43915343915344,50.370370370370374 113.86243386243387,51.00529100529101 114.49735449735451,51.42857142857143 114.92063492063492,51.851851851851855 115.34391534391536,52.27513227513228 115.76719576719577,52.6984126984127 116.1904761904762,53.12169312169313 116.61375661375662,53.54497354497355 117.24867724867725,53.968253968253975 117.67195767195768,54.39153439153439 118.30687830687832,54.81481481481482 118.94179894179895,55.23809523809524 119.57671957671958,55.661375661375665 120.21164021164022,56.08465608465609 120.84656084656086,56.50793650793651 121.4814814814815,56.93121693121694 122.11640211640213,57.35449735449736 122.75132275132276,57.777777777777786 123.3862433862434,57.989417989417994 124.02116402116403,58.41269841269842 124.65608465608466,58.62433862433863 125.2910052910053,59.04761904761905 125.92592592592594,59.25925925925927 126.56084656084657,59.470899470899475 127.1957671957672,59.682539682539684 127.83068783068784,59.8941798941799 128.46560846560848,60.31746031746032 129.10052910052912,60.31746031746032 129.73544973544975,60.31746031746032 130.37037037037038,60.31746031746032 131.005291005291,60.31746031746032 131.64021164021165,60.31746031746032 132.27513227513228,60.10582010582011 132.9100529100529,60.10582010582011 133.33333333333334,59.470899470899475 133.96825396825398,59.25925925925927 134.6031746031746,58.83597883597884 135.02645502645504,58.41269841269842 135.44973544973547,57.989417989417994 135.87301587301587,57.56613756613757 136.2962962962963,57.142857142857146 136.71957671957674,56.71957671957672 137.14285714285717,56.08465608465609 137.56613756613757,55.449735449735456 137.989417989418,54.81481481481482 138.41269841269843,54.39153439153439 138.62433862433863,53.75661375661376 138.83597883597884,53.12169312169313 139.25925925925927,52.6984126984127 139.47089947089947,52.06349206349207 139.8941798941799,51.42857142857143 140.31746031746033,51.00529100529101 140.74074074074076,50.370370370370374 141.16402116402116,49.73544973544974 141.5873015873016,49.31216931216932 142.01058201058203,48.88888888888889 142.43386243386246,48.46560846560847 142.85714285714286,48.042328042328045 143.4920634920635,48.042328042328045 144.12698412698413,47.61904761904762 144.76190476190476,47.61904761904762 145.39682539682542,47.61904761904762 146.03174603174605,47.61904761904762 146.66666666666669,47.61904761904762 147.30158730158732,47.830687830687836 147.93650793650795,48.042328042328045 148.57142857142858,48.25396825396826 149.20634920634922,48.46560846560847 149.84126984126985,48.88888888888889 150.47619047619048,49.1005291005291 150.8994708994709,49.523809523809526 151.53439153439155,49.73544973544974 151.95767195767198,50.158730158730165 152.5925925925926,50.370370370370374 153.22751322751324,50.7936507936508 153.86243386243387,51.21693121693122 154.4973544973545,51.640211640211646 155.13227513227514,52.06349206349207 155.76719576719577,52.48677248677249 156.4021164021164,52.91005291005291 156.82539682539684,53.333333333333336 157.46031746031747,53.75661375661376 157.8835978835979,54.179894179894184 158.30687830687833,54.60317460317461 158.94179894179896,55.02645502645503 159.36507936507937,55.661375661375665 159.7883597883598,56.08465608465609 160.21164021164023,56.50793650793651 160.63492063492066,56.93121693121694 161.05820105820106,57.35449735449736 161.4814814814815,57.989417989417994 161.90476190476193,58.41269841269842 162.32804232804233,59.04761904761905 162.75132275132276,59.470899470899475 162.96296296296296,60.10582010582011 163.3862433862434,60.52910052910053 163.80952380952382,61.16402116402117 164.23280423280426,61.58730158730159 164.65608465608466,62.22222222222223 164.8677248677249,62.85714285714286 165.2910052910053,63.280423280423285 165.71428571428572,63.91534391534392 166.13756613756615,64.55026455026456 166.56084656084658,65.18518518518519 166.984126984127,65.82010582010582 167.40740740740742,66.45502645502646 167.83068783068785,66.87830687830689 168.25396825396825,67.51322751322752 168.67724867724868,68.14814814814815 169.10052910052912,68.78306878306879 169.52380952380955,69.41798941798942 169.94708994708995,70.05291005291006 170.37037037037038,70.47619047619048 170.58201058201058,71.11111111111111 171.005291005291,71.53439153439155 171.42857142857144,72.16931216931218 171.85185185185188,72.5925925925926 172.27513227513228,73.22751322751323 172.6984126984127,73.65079365079366 173.12169312169314,74.28571428571429 173.54497354497354,74.70899470899471 173.96825396825398,75.34391534391536 174.6031746031746,75.76719576719577 175.02645502645504,76.19047619047619 175.44973544973547,76.82539682539684 175.87301587301587,77.24867724867725 178.2010582010582,80.0" style="fill:none; stroke:#cc0000; stroke-width:1.0"  /><polyline points="178.2010582010582,80.0 175.02645502645504,82.11640211640213 174.3915343915344,82.32804232804233 173.96825396825398,82.75132275132276 173.54497354497354,83.17460317460318 172.9100529100529,83.3862433862434 172.4867724867725,83.80952380952381 171.85185185185188,84.23280423280424 171.21693121693124,84.44444444444446 170.7936507936508,84.86772486772487 170.15873015873018,85.29100529100529 169.52380952380955,85.71428571428572 168.8888888888889,86.13756613756614 168.46560846560848,86.56084656084657 167.83068783068785,86.98412698412699 167.19576719576722,87.40740740740742 166.7724867724868,87.83068783068784 166.13756613756615,88.25396825396827 165.50264550264552,88.67724867724868 165.0793650793651,89.1005291005291 164.44444444444446,89.52380952380953 164.02116402116403,89.94708994708995 163.3862433862434,90.37037037037038 162.96296296296296,90.7936507936508 162.53968253968256,91.21693121693123 161.90476190476193,91.64021164021165 161.2698412698413,92.06349206349208 160.84656084656086,92.4867724867725 160.42328042328043,92.91005291005291 159.7883597883598,93.33333333333334 159.36507936507937,93.75661375661376 158.73015873015873,94.17989417989419 158.0952380952381,94.60317460317461 157.67195767195767,95.02645502645504 157.03703703703704,95.44973544973546 156.61375661375664,95.87301587301587 155.978835978836,96.2962962962963 155.55555555555557,96.71957671957672 154.92063492063494,97.14285714285715 154.4973544973545,97.56613756613757 153.86243386243387,97.989417989418 153.43915343915344,98.41269841269842 152.8042328042328,98.83597883597885 152.16931216931218,99.25925925925927 151.74603174603175,99.68253968253968 151.11111111111111,100.10582010582011 150.6878306878307,100.52910052910053 150.05291005291005,100.95238095238096 149.41798941798942,101.16402116402116 148.99470899470901,101.5873015873016 148.35978835978838,102.01058201058201 147.72486772486775,102.43386243386244 147.0899470899471,102.64550264550266 146.66666666666669,103.06878306878308 146.03174603174605,103.4920634920635 145.39682539682542,103.91534391534393 144.76190476190476,104.12698412698414 144.12698412698413,104.55026455026456 143.4920634920635,104.76190476190477 142.85714285714286,104.76190476190477 142.43386243386246,105.18518518518519 141.7989417989418,105.18518518518519 141.16402116402116,104.97354497354497 140.52910052910053,104.76190476190477 139.8941798941799,104.76190476190477 139.25925925925927,104.55026455026456 138.83597883597884,104.12698412698414 138.2010582010582,103.70370370370371 137.7777777777778,103.28042328042329 137.35449735449737,102.85714285714286 136.93121693121694,102.43386243386244 136.5079365079365,101.79894179894181 136.0846560846561,101.16402116402116 135.66137566137567,100.52910052910053 135.23809523809524,99.8941798941799 134.81481481481484,99.25925925925927 134.6031746031746,98.62433862433863 134.17989417989418,98.2010582010582 133.96825396825398,97.56613756613757 133.75661375661377,96.93121693121694 133.33333333333334,96.2962962962963 133.12169312169314,95.66137566137567 132.9100529100529,95.02645502645504 132.6984126984127,94.39153439153439 132.27513227513228,93.96825396825398 132.06349206349208,93.33333333333334 131.85185185185185,92.69841269841271 131.42857142857144,92.27513227513228 131.005291005291,91.64021164021165 130.58201058201058,91.00529100529101 130.15873015873018,90.37037037037038 129.73544973544975,89.94708994708995 129.31216931216932,89.52380952380953 128.88888888888889,89.1005291005291 128.46560846560848,88.67724867724868 128.04232804232805,88.25396825396827 127.40740740740742,87.83068783068784 126.77248677248679,87.40740740740742 126.13756613756615,86.98412698412699 125.5026455026455,86.56084656084657 124.86772486772487,86.34920634920636 124.23280423280424,85.92592592592594 123.59788359788361,85.71428571428572 122.96296296296298,85.71428571428572 122.32804232804234,85.5026455026455 121.6931216931217,85.29100529100529 121.05820105820106,85.29100529100529 120.42328042328043,85.07936507936509 119.7883597883598,85.07936507936509 119.15343915343917,85.07936507936509 118.51851851851853,85.29100529100529 117.88359788359789,85.29100529100529 117.24867724867725,85.29100529100529 116.61375661375662,85.29100529100529 115.97883597883599,85.5026455026455 115.34391534391536,85.71428571428572 114.70899470899472,85.92592592592594 114.07407407407408,86.13756613756614 113.43915343915344,86.34920634920636 112.80423280423281,86.56084656084657 112.16931216931218,86.77248677248677 111.53439153439155,87.1957671957672 110.89947089947091,87.61904761904762 110.26455026455027,88.04232804232805 109.62962962962963,88.46560846560847 108.994708994709,88.8888888888889 108.35978835978837,89.31216931216932 107.93650793650795,89.73544973544975 107.51322751322752,90.37037037037038 107.0899470899471,90.7936507936508 106.66666666666667,91.21693121693123 106.24338624338625,91.64021164021165 105.82010582010582,92.06349206349208 105.3968253968254,92.69841269841271 104.97354497354497,93.12169312169313 104.55026455026456,93.54497354497356 104.12698412698414,94.17989417989419 103.70370370370371,94.81481481481482 103.28042328042329,95.44973544973546 102.85714285714286,96.08465608465609 102.64550264550266,96.71957671957672 102.22222222222223,97.35449735449737 102.01058201058201,97.989417989418 101.5873015873016,98.62433862433863 101.37566137566138,99.25925925925927 101.16402116402116,99.8941798941799 100.95238095238096,100.52910052910053 100.74074074074075,101.16402116402116 100.74074074074075,101.79894179894181 100.52910052910053,102.43386243386244 100.31746031746033,103.06878306878308 100.31746031746033,103.70370370370371 100.10582010582011,104.33862433862434 100.10582010582011,104.97354497354497 100.10582010582011,105.60846560846562 100.10582010582011,106.24338624338625 100.10582010582011,106.87830687830689 100.10582010582011,107.51322751322752 100.31746031746033,108.14814814814815 100.31746031746033,108.78306878306879 100.52910052910053,109.41798941798943 100.74074074074075,110.05291005291006 101.16402116402116,110.6878306878307 101.5873015873016,111.11111111111111 101.79894179894181,111.74603174603176 102.22222222222223,112.16931216931218 102.64550264550266,112.80423280423281 103.06878306878308,113.43915343915344 103.4920634920635,113.86243386243387 103.91534391534393,114.28571428571429 104.33862433862434,114.70899470899472 104.76190476190477,115.13227513227514 105.3968253968254,115.55555555555557 105.82010582010582,115.97883597883599 106.45502645502647,116.4021164021164 107.0899470899471,116.82539682539684 107.72486772486774,117.24867724867725 108.35978835978837,117.24867724867725 108.78306878306879,117.67195767195768 109.41798941798943,117.88359788359789 110.05291005291006,118.0952380952381 110.6878306878307,118.30687830687832 111.32275132275133,118.73015873015873 111.95767195767196,118.94179894179895 112.5925925925926,119.15343915343917 113.22751322751324,119.36507936507937 113.86243386243387,119.57671957671958 114.49735449735451,119.57671957671958 115.13227513227514,119.7883597883598 115.76719576719577,120.00000000000001 116.4021164021164,120.21164021164022 117.03703703703705,120.42328042328043 117.67195767195768,120.42328042328043 118.30687830687832,120.63492063492065 118.94179894179895,120.84656084656086 119.57671957671958,121.05820105820106 120.21164021164022,121.26984126984128 120.84656084656086,121.6931216931217 121.4814814814815,121.90476190476191 121.90476190476191,122.32804232804234 122.53968253968254,122.75132275132276 123.17460317460318,123.17460317460318 123.59788359788361,123.80952380952382 124.02116402116403,124.23280423280424 124.44444444444446,124.86772486772487 124.65608465608466,125.5026455026455 124.86772486772487,126.13756613756615 124.86772486772487,126.77248677248679 124.86772486772487,127.40740740740742 124.65608465608466,128.04232804232805 124.65608465608466,128.67724867724868 124.44444444444446,129.31216931216932 124.23280423280424,129.94708994708995 124.02116402116403,130.58201058201058 123.80952380952382,131.21693121693121 123.3862433862434,131.85185185185185 122.96296296296298,132.4867724867725 122.53968253968254,133.12169312169314 122.32804232804234,133.75661375661377 122.11640211640213,134.3915343915344 121.6931216931217,135.02645502645504 121.4814814814815,135.66137566137567 121.26984126984128,136.2962962962963 120.84656084656086,136.93121693121694 120.63492063492065,137.56613756613757 120.21164021164022,138.2010582010582 120.00000000000001,138.83597883597884 119.57671957671958,139.47089947089947 119.36507936507937,140.10582010582013 118.94179894179895,140.52910052910053 118.73015873015873,141.16402116402116 118.30687830687832,141.5873015873016 118.0952380952381,142.22222222222223 117.67195767195768,142.85714285714286 117.46031746031747,143.4920634920635 117.03703703703705,143.91534391534393 116.82539682539684,144.55026455026456 116.4021164021164,145.1851851851852 116.4021164021164,145.82010582010582 115.97883597883599,146.45502645502646 115.76719576719577,147.0899470899471 115.34391534391536,147.51322751322752 115.13227513227514,148.14814814814815 114.70899470899472,148.78306878306879 114.49735449735451,149.41798941798942 114.07407407407408,149.84126984126985 113.86243386243387,150.47619047619048 113.43915343915344,151.11111111111111 113.01587301587303,151.74603174603175 112.80423280423281,152.38095238095238 112.3809523809524,153.01587301587304 112.16931216931218,153.65079365079367 111.74603174603176,154.07407407407408 111.53439153439155,154.7089947089947 111.11111111111111,155.34391534391534 110.6878306878307,155.978835978836 110.26455026455027,156.61375661375664 110.05291005291006,157.24867724867727 109.62962962962963,157.8835978835979 109.20634920634922,158.51851851851853 108.994708994709,159.15343915343917 108.57142857142858,159.7883597883598 108.14814814814815,160.42328042328043 107.93650793650795,161.05820105820106 107.51322751322752,161.6931216931217 107.0899470899471,162.32804232804233 106.66666666666667,162.96296296296296 106.24338624338625,163.59788359788362 106.03174603174604,164.23280423280426 105.60846560846562,164.8677248677249 105.18518518518519,165.50264550264552 104.76190476190477,166.13756613756615 104.33862433862434,166.7724867724868 103.91534391534393,167.40740740740742 103.70370370370371,168.04232804232805 103.28042328042329,168.46560846560848 102.85714285714286,169.10052910052912 102.43386243386244,169.73544973544975 102.22222222222223,170.37037037037038 101.79894179894181,170.7936507936508 101.37566137566138,171.42857142857144 100.95238095238096,172.06349206349208 100.52910052910053,172.6984126984127 100.10582010582011,173.33333333333334 99.68253968253968,173.96825396825398 99.47089947089948,174.6031746031746 99.04761904761905,175.02645502645504 98.62433862433863,175.66137566137567 98.41269841269842,176.2962962962963 97.989417989418,176.71957671957674 97.56613756613757,177.35449735449737 97.14285714285715,177.989417989418 96.71957671957672,178.62433862433863 96.2962962962963,179.25925925925927 95.87301587301587,179.8941798941799 95.44973544973546,180.52910052910053 95.23809523809524,181.16402116402116 94.81481481481482,181.79894179894183 94.39153439153439,182.43386243386246 93.96825396825398,183.0687830687831 93.54497354497356,183.70370370370372 93.12169312169313,184.33862433862436 92.69841269841271,184.973544973545 92.4867724867725,185.60846560846562 92.06349206349208,186.03174603174605 91.64021164021165,186.66666666666669 91.21693121693123,187.30158730158732 90.7936507936508,187.93650793650795 89.1005291005291,190.47619047619048" style="fill:none; stroke:#999900; stroke-width:1.0"  /><polyline points="89.1005291005291,190.47619047619048 85.92592592592594,188.99470899470901 85.29100529100529,188.78306878306879 84.65608465608466,188.57142857142858 84.23280423280424,188.14814814814815 83.59788359788361,187.93650793650795 82.96296296296298,187.51322751322752 82.32804232804233,187.30158730158732 81.6931216931217,187.08994708994712 81.26984126984128,186.66666666666669 80.63492063492065,186.45502645502646 80.0,186.24338624338625 79.36507936507937,185.82010582010582 78.73015873015873,185.39682539682542 78.0952380952381,185.1851851851852 77.46031746031747,184.7619047619048 76.82539682539684,184.55026455026456 76.19047619047619,184.12698412698415 75.55555555555556,183.91534391534393 74.92063492063492,183.4920634920635 74.28571428571429,183.0687830687831 73.65079365079366,182.85714285714286 73.01587301587303,182.64550264550266 72.38095238095238,182.22222222222223 71.74603174603175,182.01058201058203 71.11111111111111,181.5873015873016 70.47619047619048,181.16402116402116 69.84126984126985,180.95238095238096 69.20634920634922,180.74074074074076 68.57142857142858,180.31746031746033 67.93650793650794,179.8941798941799 67.3015873015873,179.4708994708995 66.66666666666667,179.25925925925927 66.24338624338625,178.83597883597884 65.60846560846561,178.41269841269843 64.97354497354497,177.989417989418 64.33862433862434,177.56613756613757 63.70370370370371,177.14285714285717 63.06878306878308,176.93121693121694 62.64550264550265,176.50793650793653 62.01058201058201,176.0846560846561 61.37566137566138,175.66137566137567 60.74074074074075,175.44973544973547 60.10582010582011,175.02645502645504 59.470899470899475,174.6031746031746 58.83597883597884,174.1798941798942 58.2010582010582,173.96825396825398 57.56613756613757,173.54497354497354 56.93121693121694,173.12169312169314 56.2962962962963,172.9100529100529 55.661375661375665,172.6984126984127 55.02645502645503,172.4867724867725 54.39153439153439,172.4867724867725 53.75661375661376,172.27513227513228 53.12169312169313,172.27513227513228 52.48677248677249,172.27513227513228 51.851851851851855,172.4867724867725 51.21693121693122,172.4867724867725 50.58201058201058,172.6984126984127 49.94708994708995,172.9100529100529 49.31216931216932,173.12169312169314 48.677248677248684,173.33333333333334 48.042328042328045,173.75661375661377 47.40740740740741,174.1798941798942 46.77248677248678,174.6031746031746 46.13756613756614,175.02645502645504 45.714285714285715,175.44973544973547 45.07936507936508,175.87301587301587 44.867724867724874,176.50793650793653 44.44444444444445,177.14285714285717 44.021164021164026,177.56613756613757 44.021164021164026,178.2010582010582 43.5978835978836,178.83597883597884 43.5978835978836,179.4708994708995 43.386243386243386,180.10582010582013 43.17460317460318,180.74074074074076 43.17460317460318,181.3756613756614 42.96296296296297,182.01058201058203 42.75132275132275,182.64550264550266 42.32804232804233,183.2804232804233 42.11640211640212,183.91534391534393 41.6931216931217,184.55026455026456 41.26984126984127,185.1851851851852 40.84656084656085,185.82010582010582 40.423280423280424,186.24338624338625 40.0,186.66666666666669 39.57671957671958,187.08994708994712 39.15343915343916,187.51322751322752 38.730158730158735,187.93650793650795 38.095238095238095,188.35978835978838 37.67195767195768,188.78306878306879 37.03703703703704,188.99470899470901 36.402116402116405,189.20634920634922 35.76719576719577,189.20634920634922 35.13227513227513,189.41798941798945 34.4973544973545,189.41798941798945 33.86243386243387,189.41798941798945 33.22751322751323,189.41798941798945 32.592592592592595,189.41798941798945 31.95767195767196,189.41798941798945 31.322751322751326,189.20634920634922 30.68783068783069,189.20634920634922 30.052910052910054,189.20634920634922 29.41798941798942,188.99470899470901 28.783068783068785,188.78306878306879 28.14814814814815,188.78306878306879 27.513227513227516,188.57142857142858 26.87830687830688,188.35978835978838 26.243386243386244,188.14814814814815 25.60846560846561,187.93650793650795 24.973544973544975,187.72486772486775 24.338624338624342,187.51322751322752 23.703703703703706,187.30158730158732 23.280423280423282,186.8783068783069 22.645502645502646,186.66666666666669 22.010582010582013,186.24338624338625 21.375661375661377,185.82010582010582 20.740740740740744,185.39682539682542 20.105820105820108,184.973544973545 19.47089947089947,184.55026455026456 19.047619047619047,184.12698412698415 18.624338624338627,183.70370370370372 18.201058201058203,183.2804232804233 17.77777777777778,182.85714285714286 17.354497354497354,182.43386243386246 16.931216931216934,182.01058201058203 16.50793650793651,181.3756613756614 16.084656084656086,180.95238095238096 15.449735449735451,180.52910052910053 15.238095238095239,179.8941798941799 14.814814814814817,179.4708994708995 14.391534391534393,178.83597883597884 14.17989417989418,178.2010582010582 13.756613756613758,177.7777777777778 13.544973544973546,177.14285714285717 13.121693121693122,176.50793650793653 12.910052910052912,175.87301587301587 12.6984126984127,175.23809523809524 12.275132275132275,174.6031746031746 12.063492063492065,173.96825396825398 12.063492063492065,173.33333333333334 11.851851851851853,172.6984126984127 11.640211640211641,172.06349206349208 11.428571428571429,171.42857142857144 11.428571428571429,170.7936507936508 11.428571428571429,170.15873015873018 11.640211640211641,169.52380952380955 11.640211640211641,168.8888888888889 11.851851851851853,168.25396825396825 12.275132275132275,167.83068783068785 12.486772486772487,167.19576719576722 12.910052910052912,166.56084656084658 13.333333333333334,166.13756613756615 13.756613756613758,165.50264550264552 14.17989417989418,165.0793650793651 14.603174603174605,164.65608465608466 15.026455026455027,164.23280423280426 15.661375661375663,163.80952380952382 16.296296296296298,163.59788359788362 16.931216931216934,163.3862433862434 17.566137566137566,163.1746031746032 18.201058201058203,162.96296296296296 18.83597883597884,162.75132275132276 19.47089947089947,162.53968253968256 20.105820105820108,162.32804232804233 20.740740740740744,162.32804232804233 21.375661375661377,162.11640211640213 22.010582010582013,161.90476190476193 22.645502645502646,161.6931216931217 23.280423280423282,161.4814814814815 23.915343915343918,161.05820105820106 24.55026455026455,161.05820105820106 25.185185185185187,160.63492063492066 25.820105820105823,160.42328042328043 26.455026455026456,160.21164021164023 26.87830687830688,159.7883597883598 27.301587301587304,159.36507936507937 27.93650793650794,158.94179894179896 28.35978835978836,158.51851851851853 28.783068783068785,158.0952380952381 29.20634920634921,157.67195767195767 29.629629629629633,157.03703703703704 30.052910052910054,156.4021164021164 30.476190476190478,155.76719576719577 30.68783068783069,155.13227513227514 31.111111111111114,154.4973544973545 31.111111111111114,153.86243386243387 31.322751322751326,153.22751322751324 31.53439153439154,152.5925925925926 31.53439153439154,151.95767195767198 31.746031746031747,151.32275132275134 31.746031746031747,150.6878306878307 31.746031746031747,150.05291005291005 31.746031746031747,149.41798941798942 31.746031746031747,148.78306878306879 31.53439153439154,148.14814814814815 31.53439153439154,147.51322751322752 31.322751322751326,146.8783068783069 31.322751322751326,146.24338624338625 30.899470899470902,145.82010582010582 30.68783068783069,145.1851851851852 30.476190476190478,144.55026455026456 30.264550264550266,143.91534391534393 30.052910052910054,143.2804232804233 29.841269841269842,142.64550264550266 29.41798941798942,142.22222222222223 29.20634920634921,141.5873015873016 28.994708994708997,140.95238095238096 28.571428571428573,140.31746031746033 28.14814814814815,139.6825396825397 27.93650793650794,139.04761904761907 27.724867724867728,138.41269841269843 27.301587301587304,137.989417989418 27.089947089947092,137.35449735449737 26.666666666666668,136.71957671957674 26.243386243386244,136.0846560846561 25.820105820105823,135.44973544973547 25.60846560846561,134.81481481481484 25.185185185185187,134.3915343915344 24.973544973544975,133.75661375661377 24.55026455026455,133.12169312169314 24.12698412698413,132.6984126984127 23.703703703703706,132.06349206349208 23.492063492063494,131.42857142857144 23.06878306878307,131.005291005291 22.645502645502646,130.58201058201058 22.222222222222225,129.94708994708995 21.7989417989418,129.52380952380955 21.375661375661377,128.88888888888889 20.952380952380953,128.46560846560848 20.529100529100532,127.83068783068784 20.105820105820108,127.40740740740742 19.682539682539684,126.77248677248679 19.25925925925926,126.34920634920636 18.83597883597884,125.92592592592594 18.412698412698415,125.5026455026455 17.98941798941799,124.86772486772487 17.566137566137566,124.44444444444446 17.142857142857146,124.02116402116403 16.71957671957672,123.59788359788361 16.296296296296298,123.17460317460318 15.873015873015873,122.75132275132276 15.449735449735451,122.32804232804234 15.026455026455027,121.90476190476191 14.603174603174605,121.4814814814815 14.17989417989418,121.05820105820106 13.756613756613758,120.63492063492065 13.121693121693122,120.21164021164022 12.6984126984127,119.7883597883598 12.275132275132275,119.36507936507937 11.851851851851853,118.94179894179895 11.428571428571429,118.51851851851853 11.005291005291006,118.0952380952381 10.582010582010582,117.67195767195768 10.15873015873016,117.24867724867725 9.735449735449736,116.82539682539684 9.100529100529101,116.4021164021164 8.465608465608467,115.97883597883599 8.042328042328043,115.55555555555557 7.6190476190476195,115.13227513227514 7.195767195767196,114.70899470899472 6.772486772486773,114.28571428571429 6.137566137566138,113.86243386243387 5.502645502645503,113.43915343915344 5.07936507936508,112.80423280423281 4.444444444444445,112.3809523809524 3.8095238095238098,111.95767195767196 3.3862433862433865,111.53439153439155 2.7513227513227516,111.32275132275133 0.21164021164021166,109.41798941798943" style="fill:none; stroke:#00aa99; stroke-width:1.0"  /><polyline points="0.21164021164021166,109.41798941798943 2.9629629629629632,107.72486772486774 3.3862433862433865,107.3015873015873 4.021164021164021,107.0899470899471 4.656084656084657,106.87830687830689 5.07936507936508,106.45502645502647 5.714285714285714,106.24338624338625 6.137566137566138,105.82010582010582 6.772486772486773,105.60846560846562 7.407407407407408,105.18518518518519 8.042328042328043,104.76190476190477 8.677248677248677,104.33862433862434 9.312169312169313,104.12698412698414 9.735449735449736,103.70370370370371 10.370370370370372,103.4920634920635 11.005291005291006,103.06878306878308 11.640211640211641,102.64550264550266 12.275132275132275,102.43386243386244 12.6984126984127,102.01058201058201 13.333333333333334,101.79894179894181 13.756613756613758,101.37566137566138 14.391534391534393,100.95238095238096 15.026455026455027,100.74074074074075 15.661375661375663,100.31746031746033 16.296296296296298,100.10582010582011 16.71957671957672,99.68253968253968 17.354497354497354,99.25925925925927 17.98941798941799,99.04761904761905 18.624338624338627,98.62433862433863 19.25925925925926,98.2010582010582 19.894179894179896,97.77777777777779 20.529100529100532,97.35449735449737 21.164021164021165,97.14285714285715 21.7989417989418,96.71957671957672 22.433862433862437,96.2962962962963 23.06878306878307,95.87301587301587 23.703703703703706,95.66137566137567 24.338624338624342,95.44973544973546 24.973544973544975,95.02645502645504 25.60846560846561,94.60317460317461 26.243386243386244,94.17989417989419 26.87830687830688,93.96825396825398 27.301587301587304,93.54497354497356 27.93650793650794,93.33333333333334 28.35978835978836,92.91005291005291 28.994708994708997,92.69841269841271 29.41798941798942,92.27513227513228 30.052910052910054,91.85185185185186 30.68783068783069,91.42857142857143 31.322751322751326,91.00529100529101 31.95767195767196,90.58201058201058 32.592592592592595,90.15873015873017 33.01587301587302,89.73544973544975 33.43915343915344,89.31216931216932 33.86243386243387,88.8888888888889 34.28571428571429,88.46560846560847 34.70899470899471,88.04232804232805 35.13227513227513,87.61904761904762 35.55555555555556,86.98412698412699 35.97883597883598,86.34920634920636 36.402116402116405,85.71428571428572 36.613756613756614,85.07936507936509 36.82539682539683,84.44444444444446 36.82539682539683,83.80952380952381 36.82539682539683,83.17460317460318 37.03703703703704,82.53968253968254 36.82539682539683,81.90476190476191 36.613756613756614,81.26984126984128 36.402116402116405,80.63492063492065 36.19047619047619,80.0 35.76719576719577,79.57671957671958 35.55555555555556,78.94179894179895 35.13227513227513,78.51851851851852 34.70899470899471,77.88359788359789 34.28571428571429,77.46031746031747 33.86243386243387,77.03703703703704 33.43915343915344,76.61375661375662 33.01587301587302,76.19047619047619 32.38095238095239,75.76719576719577 31.95767195767196,75.34391534391536 31.322751322751326,74.92063492063492 30.68783068783069,74.70899470899471 30.052910052910054,74.28571428571429 29.41798941798942,74.07407407407408 28.783068783068785,73.86243386243387 28.14814814814815,73.65079365079366 27.513227513227516,73.43915343915344 26.87830687830688,73.43915343915344 26.243386243386244,73.22751322751323 25.60846560846561,73.22751322751323 24.973544973544975,73.01587301587303 24.338624338624342,73.01587301587303 23.703703703703706,72.80423280423281 23.06878306878307,72.5925925925926 22.433862433862437,72.38095238095238 21.7989417989418,72.38095238095238 21.164021164021165,71.95767195767196 20.529100529100532,71.95767195767196 19.894179894179896,71.53439153439155 19.25925925925926,71.32275132275133 18.624338624338627,71.11111111111111 17.98941798941799,70.6878306878307 17.354497354497354,70.26455026455027 16.71957671957672,69.84126984126985 16.296296296296298,69.41798941798942 15.873015873015873,68.994708994709 15.449735449735451,68.57142857142858 15.026455026455027,68.14814814814815 14.814814814814817,67.51322751322752 14.391534391534393,66.87830687830689 14.391534391534393,66.24338624338625 14.17989417989418,65.60846560846561 13.96825396825397,64.97354497354497 13.756613756613758,64.33862433862434 13.756613756613758,63.70370370370371 13.756613756613758,63.06878306878308 13.756613756613758,62.43386243386244 13.96825396825397,61.798941798941804 13.96825396825397,61.16402116402117 13.96825396825397,60.52910052910053 14.17989417989418,59.8941798941799 14.391534391534393,59.25925925925927 13.96825396825397,58.83597883597884 14.391534391534393,58.41269841269842 14.603174603174605,57.777777777777786 14.603174603174605,57.142857142857146 14.814814814814817,56.50793650793651 15.026455026455027,55.87301587301588 15.238095238095239,55.23809523809524 15.449735449735451,54.60317460317461 15.661375661375663,53.968253968253975 16.084656084656086,53.333333333333336 16.296296296296298,52.6984126984127 16.50793650793651,52.06349206349207 16.931216931216934,51.42857142857143 16.931216931216934,50.7936507936508 17.354497354497354,50.370370370370374 17.77777777777778,49.73544973544974 18.201058201058203,49.1005291005291 18.412698412698415,48.46560846560847 18.83597883597884,47.830687830687836 19.25925925925926,47.195767195767196 19.682539682539684,46.560846560846564 20.105820105820108,46.13756613756614 20.529100529100532,45.50264550264551 20.952380952380953,45.07936507936508 21.375661375661377,44.65608465608466 21.7989417989418,44.232804232804234 22.222222222222225,43.80952380952381 22.857142857142858,43.386243386243386 23.492063492063494,42.96296296296297 24.12698412698413,42.539682539682545 24.761904761904763,42.32804232804233 25.3968253968254,42.11640211640212 26.031746031746035,41.6931216931217 26.666666666666668,41.904761904761905 27.301587301587304,41.904761904761905 27.93650793650794,41.904761904761905 28.571428571428573,41.904761904761905 29.20634920634921,41.904761904761905 29.841269841269842,41.904761904761905 30.476190476190478,41.904761904761905 30.899470899470902,42.32804232804233 31.53439153439154,42.32804232804233 32.16931216931217,42.539682539682545 32.804232804232804,42.75132275132275 33.43915343915344,42.96296296296297 34.074074074074076,43.17460317460318 34.70899470899471,43.5978835978836 35.34391534391535,44.021164021164026 35.97883597883598,44.44444444444445 36.613756613756614,44.65608465608466 37.03703703703704,45.07936507936508 37.67195767195768,45.50264550264551 38.30687830687831,45.92592592592593 38.730158730158735,46.349206349206355 39.15343915343916,46.77248677248678 39.57671957671958,47.195767195767196 40.0,47.830687830687836 40.423280423280424,48.46560846560847 40.84656084656085,49.1005291005291 41.26984126984127,49.73544973544974 41.6931216931217,50.158730158730165 42.11640211640212,50.7936507936508 42.539682539682545,51.21693121693122 42.96296296296297,51.640211640211646 43.386243386243386,52.27513227513228 44.021164021164026,52.6984126984127 44.65608465608466,53.12169312169313 45.29100529100529,53.333333333333336 45.92592592592593,53.54497354497355 46.560846560846564,53.968253968253975 47.195767195767196,53.968253968253975 47.830687830687836,53.968253968253975 48.46560846560847,53.968253968253975 49.1005291005291,53.968253968253975 49.73544973544974,53.75661375661376 50.370370370370374,53.54497354497355 51.00529100529101,53.333333333333336 51.640211640211646,52.91005291005291 52.27513227513228,52.48677248677249 52.6984126984127,52.06349206349207 53.12169312169313,51.640211640211646 53.54497354497355,51.00529100529101 53.968253968253975,50.370370370370374 54.179894179894184,49.73544973544974 54.39153439153439,49.1005291005291 54.81481481481482,48.46560846560847 55.02645502645503,47.830687830687836 55.23809523809524,47.195767195767196 55.661375661375665,46.560846560846564 55.661375661375665,45.92592592592593 55.87301587301588,45.29100529100529 56.2962962962963,44.867724867724874 56.50793650793651,44.232804232804234 56.71957671957672,43.5978835978836 57.142857142857146,42.96296296296297 57.56613756613757,42.32804232804233 57.989417989417994,41.6931216931217 58.2010582010582,41.058201058201064 58.41269841269842,40.423280423280424 58.62433862433863,39.78835978835979 59.04761904761905,39.15343915343916 59.470899470899475,38.730158730158735 59.682539682539684,38.095238095238095 60.10582010582011,37.46031746031746 60.52910052910053,36.82539682539683 60.74074074074075,36.19047619047619 61.16402116402117,35.76719576719577 61.58730158730159,35.13227513227513 62.01058201058201,34.4973544973545 62.43386243386244,33.86243386243387 62.85714285714286,33.22751322751323 63.280423280423285,32.592592592592595 63.492063492063494,31.95767195767196 63.91534391534392,31.53439153439154 64.33862433862434,30.899470899470902 64.76190476190477,30.264550264550266 65.18518518518519,29.629629629629633 65.60846560846561,28.994708994708997 66.03174603174604,28.571428571428573 66.45502645502646,27.93650793650794 66.66666666666667,27.301587301587304 67.08994708994709,26.666666666666668 67.51322751322752,26.031746031746035 67.93650793650794,25.60846560846561 68.14814814814815,24.973544973544975 68.57142857142858,24.55026455026455 68.994708994709,23.915343915343918 69.20634920634922,23.280423280423282 69.62962962962963,22.645502645502646 69.84126984126985,22.010582010582013 70.26455026455027,21.58730158730159 70.47619047619048,20.952380952380953 70.8994708994709,20.31746031746032 71.11111111111111,19.682539682539684 71.53439153439155,19.047619047619047 71.74603174603175,18.412698412698415 71.95767195767196,17.77777777777778 72.16931216931218,17.142857142857146 72.5925925925926,16.50793650793651 72.80423280423281,15.873015873015873 73.22751322751323,15.238095238095239 73.43915343915344,14.603174603174605 73.65079365079366,13.96825396825397 74.07407407407408,13.544973544973546 74.28571428571429,12.910052910052912 74.70899470899471,12.275132275132275 74.92063492063492,11.640211640211641 75.13227513227514,11.005291005291006 75.55555555555556,10.370370370370372 75.76719576719577,9.735449735449736 75.97883597883599,9.100529100529101 76.4021164021164,8.465608465608467 76.61375661375662,7.830687830687832 77.03703703703704,7.195767195767196 77.24867724867725,6.560846560846561 77.46031746031747,5.9259259259259265 77.46031746031747,5.291005291005291 77.88359788359789,4.656084656084657 78.0952380952381,4.021164021164021 78.30687830687832,3.3862433862433865 78.51851851851852,2.7513227513227516 79.7883597883598,-0.4232804232804233" style="fill:none; stroke:#3300bb; stroke-width:1.0"  /><circle cx="79.7883597883598" cy="-0.4232804232804233" r="2.0" style="fill:none; stroke:#000000aa; stroke-width:0.25" /><circle cx="178.2010582010582" cy="80.0" r="2.0" style="fill:none; stroke:#000000aa; stroke-width:0.25" /><circle cx="89.1005291005291" cy="190.47619047619048" r="2.0" style="fill:none; stroke:#000000aa; stroke-width:0.25" /><circle cx="0.21164021164021166" cy="109.41798941798943" r="2.0" style="fill:none; stroke:#000000aa; stroke-width:0.25" /><circle cx="80.21164021164022" cy="0.21164021164021166" r="2.0" style="fill:none; stroke:#ff3366aa; stroke-width:0.25" /><circle cx="177.7777777777778" cy="80.0" r="2.0" style="fill:none; stroke:#ff3366aa; stroke-width:0.25" /><circle cx="88.8888888888889" cy="190.47619047619048" r="2.0" style="fill:none; stroke:#ff3366aa; stroke-width:0.25" /><circle cx="0.21164021164021166" cy="109.62962962962963" r="2.0" style="fill:none; stroke:#ff3366aa; stroke-width:0.25" /><polyline points="91.00529100529101,5.291005291005291 90.37037037037038,4.867724867724868 89.73544973544975,4.656084656084657 89.1005291005291,4.2328042328042335 88.46560846560847,4.021164021164021 87.83068783068784,3.597883597883598 87.1957671957672,3.3862433862433865 86.56084656084657,3.174603174603175 85.92592592592594,2.7513227513227516 85.29100529100529,2.53968253968254 84.65608465608466,2.1164021164021167 84.02116402116403,1.9047619047619049 83.3862433862434,1.4814814814814816" style="fill:none; stroke:#001100; stroke-width:1.0" /><polyline points="75.13227513227514,11.005291005291006 75.55555555555556,10.370370370370372 75.76719576719577,9.735449735449736 75.97883597883599,9.100529100529101 76.4021164021164,8.465608465608467 76.61375661375662,7.830687830687832 77.03703703703704,7.195767195767196 77.24867724867725,6.560846560846561 77.46031746031747,5.9259259259259265 77.46031746031747,5.291005291005291 77.88359788359789,4.656084656084657 78.0952380952381,4.021164021164021 78.30687830687832,3.3862433862433865 78.51851851851852,2.7513227513227516" style="fill:none; stroke:#000011; stroke-width:1.0" /><polyline points="168.46560846560848,86.56084656084657 168.8888888888889,86.13756613756614 169.52380952380955,85.71428571428572 170.15873015873018,85.29100529100529 170.7936507936508,84.86772486772487 171.21693121693124,84.44444444444446 171.85185185185188,84.23280423280424 172.4867724867725,83.80952380952381 172.9100529100529,83.3862433862434 173.54497354497354,83.17460317460318 173.96825396825398,82.75132275132276 174.3915343915344,82.32804232804233 175.02645502645504,82.11640211640213" style="fill:none; stroke:#001100; stroke-width:1.0" /><polyline points="170.58201058201058,71.11111111111111 171.005291005291,71.53439153439155 171.42857142857144,72.16931216931218 171.85185185185188,72.5925925925926 172.27513227513228,73.22751322751323 172.6984126984127,73.65079365079366 173.12169312169314,74.28571428571429 173.54497354497354,74.70899470899471 173.96825396825398,75.34391534391536 174.6031746031746,75.76719576719577 175.02645502645504,76.19047619047619 175.44973544973547,76.82539682539684 175.87301587301587,77.24867724867725" style="fill:none; stroke:#000011; stroke-width:1.0" /><polyline points="78.0952380952381,185.1851851851852 78.73015873015873,185.39682539682542 79.36507936507937,185.82010582010582 80.0,186.24338624338625 80.63492063492065,186.45502645502646 81.26984126984128,186.66666666666669 81.6931216931217,187.08994708994712 82.32804232804233,187.30158730158732 82.96296296296298,187.51322751322752 83.59788359788361,187.93650793650795 84.23280423280424,188.14814814814815 84.65608465608466,188.57142857142858 85.29100529100529,188.78306878306879 85.92592592592594,188.99470899470901" style="fill:none; stroke:#001100; stroke-width:1.0" /><polyline points="95.44973544973546,180.52910052910053 95.23809523809524,181.16402116402116 94.81481481481482,181.79894179894183 94.39153439153439,182.43386243386246 93.96825396825398,183.0687830687831 93.54497354497356,183.70370370370372 93.12169312169313,184.33862433862436 92.69841269841271,184.973544973545 92.4867724867725,185.60846560846562 92.06349206349208,186.03174603174605 91.64021164021165,186.66666666666669 91.21693121693123,187.30158730158732 90.7936507936508,187.93650793650795" style="fill:none; stroke:#000011; stroke-width:1.0" /><polyline points="10.370370370370372,103.4920634920635 9.735449735449736,103.70370370370371 9.312169312169313,104.12698412698414 8.677248677248677,104.33862433862434 8.042328042328043,104.76190476190477 7.407407407407408,105.18518518518519 6.772486772486773,105.60846560846562 6.137566137566138,105.82010582010582 5.714285714285714,106.24338624338625 5.07936507936508,106.45502645502647 4.656084656084657,106.87830687830689 4.021164021164021,107.0899470899471 3.3862433862433865,107.3015873015873 2.9629629629629632,107.72486772486774" style="fill:none; stroke:#001100; stroke-width:1.0" /><polyline points="9.735449735449736,116.82539682539684 9.100529100529101,116.4021164021164 8.465608465608467,115.97883597883599 8.042328042328043,115.55555555555557 7.6190476190476195,115.13227513227514 7.195767195767196,114.70899470899472 6.772486772486773,114.28571428571429 6.137566137566138,113.86243386243387 5.502645502645503,113.43915343915344 5.07936507936508,112.80423280423281 4.444444444444445,112.3809523809524 3.8095238095238098,111.95767195767196 3.3862433862433865,111.53439153439155 2.7513227513227516,111.32275132275133" style="fill:none; stroke:#000011; stroke-width:1.0" /><polyline points="83.3862433862434,1.4814814814814816 64.55026455026456,-8.042328042328043" style="fill:none; stroke:#ffaa00; stroke-width:0.4" /><polyline points="78.51851851851852,2.7513227513227516 86.56084656084657,-16.931216931216934" style="fill:none; stroke:#aaff00; stroke-width:0.4" /><polyline points="175.02645502645504,82.11640211640213 192.5925925925926,70.26455026455027" style="fill:none; stroke:#ffaa00; stroke-width:0.4" /><polyline points="175.87301587301587,77.24867724867725 189.62962962962965,93.33333333333334" style="fill:none; stroke:#aaff00; stroke-width:0.4" /><polyline points="85.92592592592594,188.99470899470901 104.97354497354497,198.30687830687833" style="fill:none; stroke:#ffaa00; stroke-width:0.4" /><polyline points="90.7936507936508,187.93650793650795 79.57671957671958,205.92592592592595" style="fill:none; stroke:#aaff00; stroke-width:0.4" /><polyline points="2.9629629629629632,107.72486772486774 -15.449735449735451,118.30687830687832" style="fill:none; stroke:#ffaa00; stroke-width:0.4" /><polyline points="2.7513227513227516,111.32275132275133 -13.96825396825397,98.2010582010582" style="fill:none; stroke:#aaff00; stroke-width:0.4" /><circle cx="78.30687830687832" cy="99.47089947089948" r="1.0" style="fill:#444444; stroke-width:0" /><circle cx="69.41798941798942" cy="134.3915343915344" r="10.582010582010582" style="fill:#ff770022; stroke-width:0" /><circle cx="69.41798941798942" cy="134.3915343915344" r="1.0" style="fill:#ff7700; stroke-width:0" /></svg>