<?xml version="1.0" encoding="UTF-8" standalone="no"?><svg width="452.6984126984127" height="601.2698412698413" viewBox="-10 -10 170.8994708994709 220.42328042328043" xmlns="http://www.w3.org/2000/svg" xmlns:xlink="http://www.w3.org/1999/xlink"><polyline points="23.703703703703706,22.010582010582013 26.666666666666668,24.12698412698413 27.089947089947092,24.55026455026455 27.724867724867728,24.973544973544975 28.14814814814815,25.3968253968254 28.783068783068785,25.60846560846561 29.20634920634921,26.031746031746035 29.841269841269842,26.455026455026456 30.476190476190478,26.87830687830688 30.899470899470902,27.301587301587304 31.53439153439154,27.724867724867728 31.95767195767196,28.14814814814815 32.592592592592595,28.571428571428573 33.22751322751323,28.994708994708997 33.86243386243387,29.41798941798942 34.28571428571429,29.841269841269842 34.920634920634924,30.264550264550266 35.55555555555556,30.68783068783069 36.19047619047619,31.111111111111114 36.82539682539683,31.53439153439154 37.46031746031746,31.95767195767196 38.095238095238095,32.38095238095239 38.730158730158735,32.804232804232804 39.36507936507937,33.01587301587302 40.0,33.43915343915344 40.63492063492064,33.65079365079365 41.26984126984127,34.074074074074076 41.904761904761905,34.28571428571429 42.539682539682545,34.70899470899471 43.17460317460318,34.920634920634924 43.80952380952381,35.13227513227513 44.44444444444445,35.55555555555556 45.07936507936508,35.76719576719577 45.714285714285715,35.97883597883598 46.349206349206355,36.19047619047619 46.98412698412699,36.402116402116405 47.61904761904762,36.82539682539683 48.25396825396826,37.03703703703704 48.88888888888889,37.248677248677254 49.523809523809526,37.248677248677254 50.158730158730165,37.46031746031746 50.7936507936508,37.67195767195768 51.42857142857143,37.883597883597886 52.06349206349207,37.883597883597886 52.6984126984127,38.095238095238095 53.333333333333336,38.095238095238095 53.968253968253975,38.30687830687831 54.60317460317461,38.51851851851852 55.23809523809524,38.51851851851852 55.87301587301588,38.730158730158735 56.50793650793651,38.730158730158735 57.142857142857146,38.730158730158735 57.777777777777786,38.94179894179894 58.41269841269842,38.730158730158735 59.04761904761905,38.94179894179894 59.682539682539684,38.94179894179894 60.31746031746032,38.94179894179894 60.952380952380956,38.94179894179894 61.58730158730159,38.94179894179894 62.22222222222223,38.730158730158735 62.85714285714286,38.730158730158735 63.492063492063494,38.730158730158735 64.12698412698413,38.730158730158735 64.76190476190477,38.730158730158735 65.3968253968254,38.51851851851852 66.03174603174604,38.51851851851852 66.66666666666667,38.51851851851852 67.3015873015873,38.30687830687831 67.93650793650794,38.30687830687831 68.57142857142858,38.095238095238095 69.20634920634922,38.095238095238095 69.84126984126985,37.883597883597886 70.47619047619048,37.67195767195768 71.11111111111111,37.67195767195768 71.74603174603175,37.46031746031746 72.38095238095238,37.248677248677254 73.01587301587303,37.03703703703704 73.43915343915344,36.613756613756614 74.07407407407408,36.19047619047619 74.49735449735451,35.76719576719577 74.92063492063492,35.34391534391535 75.34391534391536,34.920634920634924 75.76719576719577,34.4973544973545 75.97883597883599,33.86243386243387 76.4021164021164,33.22751322751323 76.61375661375662,32.592592592592595 76.61375661375662,31.95767195767196 76.82539682539684,31.322751322751326 76.82539682539684,30.68783068783069 76.82539682539684,30.052910052910054 76.82539682539684,29.41798941798942 76.82539682539684,28.783068783068785 76.82539682539684,28.14814814814815 76.61375661375662,27.513227513227516 76.61375661375662,26.87830687830688 76.61375661375662,26.243386243386244 76.4021164021164,25.60846560846561 76.19047619047619,24.973544973544975 76.19047619047619,24.338624338624342 75.97883597883599,23.703703703703706 75.97883597883599,23.06878306878307 75.55555555555556,22.433862433862437 75.34391534391536,21.7989417989418 75.13227513227514,21.164021164021165 74.92063492063492,20.529100529100532 74.70899470899471,19.894179894179896 74.70899470899471,19.25925925925926 74.49735449735451,18.624338624338627 74.28571428571429,17.98941798941799 74.07407407407408,17.354497354497354 74.07407407407408,16.71957671957672 73.86243386243387,16.084656084656086 73.86243386243387,15.449735449735451 73.65079365079366,14.814814814814817 73.65079365079366,14.17989417989418 73.65079365079366,13.544973544973546 73.65079365079366,12.910052910052912 73.65079365079366,12.275132275132275 73.86243386243387,11.640211640211641 73.86243386243387,11.005291005291006 73.86243386243387,10.370370370370372 74.07407407407408,9.735449735449736 74.07407407407408,9.100529100529101 74.28571428571429,8.465608465608467 74.49735449735451,7.830687830687832 74.92063492063492,7.195767195767196 75.13227513227514,6.560846560846561 75.55555555555556,5.9259259259259265 75.97883597883599,5.291005291005291 76.4021164021164,4.656084656084657 76.82539682539684,4.2328042328042335 77.24867724867725,3.8095238095238098 77.67195767195767,3.3862433862433865 78.0952380952381,2.9629629629629632 78.51851851851852,2.53968253968254 79.15343915343917,2.1164021164021167 79.7883597883598,1.9047619047619049 80.21164021164022,1.4814814814814816 80.84656084656085,1.26984126984127 81.48148148148148,1.26984126984127 82.11640211640213,1.0582010582010584 82.75132275132276,1.0582010582010584 83.3862433862434,0.634920634920635 84.02116402116403,0.634920634920635 84.65608465608466,0.4232804232804233 85.29100529100529,0.634920634920635 85.92592592592594,0.634920634920635 86.56084656084657,0.4232804232804233 87.1957671957672,0.4232804232804233 87.83068783068784,0.4232804232804233 88.46560846560847,0.4232804232804233 89.1005291005291,0.4232804232804233 89.73544973544975,0.21164021164021166 90.37037037037038,0.21164021164021166 91.00529100529101,0.634920634920635 91.64021164021165,0.4232804232804233 92.27513227513228,0.634920634920635 92.91005291005291,0.8465608465608466 93.54497354497356,1.0582010582010584 94.17989417989419,1.0582010582010584 94.81481481481482,1.26984126984127 95.44973544973546,1.4814814814814816 96.08465608465609,1.6931216931216932 96.71957671957672,1.9047619047619049 97.35449735449737,2.1164021164021167 97.989417989418,2.53968253968254 98.62433862433863,2.7513227513227516 99.25925925925927,3.174603174603175 99.68253968253968,3.597883597883598 100.31746031746033,4.021164021164021 100.74074074074075,4.444444444444445 101.16402116402116,5.07936507936508 101.5873015873016,5.502645502645503 102.01058201058201,5.9259259259259265 102.43386243386244,6.560846560846561 102.64550264550266,7.195767195767196 103.06878306878308,7.830687830687832 103.28042328042329,8.465608465608467 103.4920634920635,9.100529100529101 103.70370370370371,9.735449735449736 103.91534391534393,10.370370370370372 104.12698412698414,11.005291005291006 104.12698412698414,11.640211640211641 104.12698412698414,12.275132275132275 104.12698412698414,12.910052910052912 104.12698412698414,13.544973544973546 104.12698412698414,14.17989417989418 104.12698412698414,14.814814814814817 104.12698412698414,15.449735449735451 104.12698412698414,16.084656084656086 103.91534391534393,16.71957671957672 103.91534391534393,17.354497354497354 103.70370370370371,17.98941798941799 103.4920634920635,18.624338624338627 103.28042328042329,19.25925925925926 103.06878306878308,19.894179894179896 102.85714285714286,20.529100529100532 102.85714285714286,21.164021164021165 102.64550264550266,21.7989417989418 102.64550264550266,22.433862433862437 102.43386243386244,23.06878306878307 102.22222222222223,23.703703703703706 102.01058201058201,24.338624338624342 101.79894179894181,24.973544973544975 101.79894179894181,25.60846560846561 101.5873015873016,26.243386243386244 101.37566137566138,26.87830687830688 101.16402116402116,27.513227513227516 101.16402116402116,28.14814814814815 101.16402116402116,28.783068783068785 100.95238095238096,29.41798941798942 100.95238095238096,30.052910052910054 100.95238095238096,30.68783068783069 101.16402116402116,31.322751322751326 101.16402116402116,31.95767195767196 101.37566137566138,32.592592592592595 101.5873015873016,33.22751322751323 101.79894179894181,33.86243386243387 102.01058201058201,34.4973544973545 102.22222222222223,35.13227513227513 102.64550264550266,35.55555555555556 103.06878306878308,36.19047619047619 103.4920634920635,36.613756613756614 103.91534391534393,37.03703703703704 104.33862433862434,37.46031746031746 104.97354497354497,37.883597883597886 105.60846560846562,38.30687830687831 106.24338624338625,38.51851851851852 106.87830687830689,38.730158730158735 107.51322751322752,38.730158730158735 108.14814814814815,38.94179894179894 108.78306878306879,39.15343915343916 109.41798941798943,38.94179894179894 110.05291005291006,38.94179894179894 110.6878306878307,38.94179894179894 111.32275132275133,38.730158730158735 111.95767195767196,38.51851851851852 112.5925925925926,38.51851851851852 113.22751322751324,38.095238095238095 113.86243386243387,38.095238095238095 114.49735449735451,37.883597883597886 115.13227513227514,37.67195767195768 115.76719576719577,37.46031746031746 116.4021164021164,37.248677248677254 117.03703703703705,37.03703703703704 117.67195767195768,36.82539682539683 118.30687830687832,36.613756613756614 118.94179894179895,36.613756613756614 119.57671957671958,36.402116402116405 120.21164021164022,36.19047619047619 120.84656084656086,36.19047619047619 121.4814814814815,35.97883597883598 122.11640211640213,35.76719576719577 122.75132275132276,35.76719576719577 123.3862433862434,35.55555555555556 124.02116402116403,35.34391534391535 124.65608465608466,35.13227513227513 125.2910052910053,35.13227513227513 125.92592592592594,34.920634920634924 126.56084656084657,34.920634920634924 127.1957671957672,34.70899470899471 127.83068783068784,34.70899470899471 128.46560846560848,34.4973544973545 129.10052910052912,34.28571428571429 129.73544973544975,34.28571428571429 130.37037037037038,34.074074074074076 131.005291005291,33.86243386243387 131.64021164021165,33.86243386243387 132.27513227513228,33.86243386243387 132.9100529100529,33.65079365079365 133.54497354497354,33.65079365079365 134.17989417989418,33.65079365079365 134.81481481481484,33.43915343915344 135.44973544973547,33.43915343915344 136.0846560846561,33.43915343915344 136.71957671957674,33.43915343915344 137.35449735449737,33.22751322751323 137.989417989418,33.22751322751323 138.62433862433863,33.22751322751323 139.25925925925927,33.22751322751323 139.8941798941799,33.01587301587302 140.52910052910053,33.01587301587302 141.16402116402116,33.01587301587302 141.7989417989418,33.01587301587302 142.43386243386246,33.01587301587302 143.0687830687831,33.01587301587302 143.70370370370372,33.01587301587302 144.33862433862436,32.804232804232804 144.973544973545,32.804232804232804 145.60846560846562,32.804232804232804 146.24338624338625,32.804232804232804 146.8783068783069,32.804232804232804 147.51322751322752,32.804232804232804 150.6878306878307,32.592592592592595" style="fill:none; stroke:#cc0000; stroke-width:1.0"  /><polyline points="150.6878306878307,32.592592592592595 150.26455026455028,36.402116402116405 150.05291005291005,37.03703703703704 150.05291005291005,37.67195767195768 150.05291005291005,38.30687830687831 150.05291005291005,38.94179894179894 149.84126984126985,39.57671957671958 149.84126984126985,40.211640211640216 149.62962962962965,40.84656084656085 149.62962962962965,41.48148148148149 149.62962962962965,42.11640211640212 149.41798941798942,42.75132275132275 149.41798941798942,43.386243386243386 149.41798941798942,44.021164021164026 149.41798941798942,44.65608465608466 149.20634920634922,45.29100529100529 149.20634920634922,45.92592592592593 149.20634920634922,46.560846560846564 149.20634920634922,47.195767195767196 148.99470899470901,47.830687830687836 148.99470899470901,48.46560846560847 148.99470899470901,49.1005291005291 148.99470899470901,49.73544973544974 148.99470899470901,50.370370370370374 148.78306878306879,51.00529100529101 148.78306878306879,51.640211640211646 148.78306878306879,52.27513227513228 148.57142857142858,52.91005291005291 148.57142857142858,53.54497354497355 148.57142857142858,54.179894179894184 148.57142857142858,54.81481481481482 148.35978835978838,55.449735449735456 148.35978835978838,56.08465608465609 148.35978835978838,56.71957671957672 148.35978835978838,57.35449735449736 148.35978835978838,57.989417989417994 148.35978835978838,58.62433862433863 148.35978835978838,59.25925925925927 148.14814814814815,59.8941798941799 148.14814814814815,60.52910052910053 148.14814814814815,61.16402116402117 148.14814814814815,61.798941798941804 147.93650793650795,62.43386243386244 147.93650793650795,63.06878306878308 147.93650793650795,63.70370370370371 147.72486772486775,64.33862433862434 147.72486772486775,64.97354497354497 147.72486772486775,65.60846560846561 147.51322751322752,66.24338624338625 147.51322751322752,66.87830687830689 147.51322751322752,67.51322751322752 147.51322751322752,68.14814814814815 147.30158730158732,68.78306878306879 147.30158730158732,69.41798941798942 147.30158730158732,70.05291005291006 147.0899470899471,70.6878306878307 147.0899470899471,71.32275132275133 147.0899470899471,71.95767195767196 147.0899470899471,72.5925925925926 146.8783068783069,73.22751322751323 146.8783068783069,73.86243386243387 146.66666666666669,74.49735449735451 146.66666666666669,75.13227513227514 146.66666666666669,75.76719576719577 146.66666666666669,76.4021164021164 146.45502645502646,77.03703703703704 146.24338624338625,77.67195767195767 146.24338624338625,78.30687830687832 146.03174603174605,78.94179894179895 146.03174603174605,79.57671957671958 145.82010582010582,80.21164021164022 145.60846560846562,80.84656084656085 145.60846560846562,81.48148148148148 145.39682539682542,82.11640211640213 145.1851851851852,82.75132275132276 144.973544973545,83.3862433862434 144.76190476190476,84.02116402116403 144.55026455026456,84.65608465608466 144.12698412698413,85.29100529100529 143.91534391534393,85.92592592592594 143.70370370370372,86.56084656084657 143.2804232804233,87.1957671957672 143.0687830687831,87.83068783068784 142.64550264550266,88.46560846560847 142.43386243386246,89.1005291005291 142.01058201058203,89.52380952380953 141.7989417989418,90.15873015873017 141.3756613756614,90.58201058201058 140.95238095238096,91.21693121693123 140.52910052910053,91.85185185185186 140.31746031746033,92.4867724867725 139.8941798941799,92.91005291005291 139.47089947089947,93.54497354497356 138.83597883597884,93.96825396825398 138.41269841269843,94.60317460317461 137.989417989418,95.02645502645504 137.56613756613757,95.44973544973546 137.14285714285717,95.87301587301587 136.5079365079365,96.2962962962963 136.0846560846561,96.71957671957672 135.44973544973547,96.93121693121694 135.02645502645504,97.35449735449737 134.3915343915344,97.56613756613757 133.75661375661377,97.77777777777779 133.12169312169314,97.77777777777779 132.4867724867725,97.989417989418 131.85185185185185,97.77777777777779 131.21693121693121,97.77777777777779 130.58201058201058,97.77777777777779 129.94708994708995,97.35449735449737 129.31216931216932,96.93121693121694 128.67724867724868,96.50793650793652 128.25396825396825,96.08465608465609 127.83068783068784,95.66137566137567 127.1957671957672,95.23809523809524 126.77248677248679,94.81481481481482 126.34920634920636,94.39153439153439 125.92592592592594,93.75661375661376 125.5026455026455,93.12169312169313 125.07936507936509,92.69841269841271 124.65608465608466,92.27513227513228 124.23280423280424,91.85185185185186 123.80952380952382,91.21693121693123 123.3862433862434,90.7936507936508 122.96296296296298,90.15873015873017 122.53968253968254,89.73544973544975 122.11640211640213,89.31216931216932 121.6931216931217,88.67724867724868 121.26984126984128,88.25396825396827 120.84656084656086,87.83068783068784 120.21164021164022,87.40740740740742 119.7883597883598,86.98412698412699 119.15343915343917,86.56084656084657 118.73015873015873,86.13756613756614 118.0952380952381,85.71428571428572 117.67195767195768,85.29100529100529 117.03703703703705,85.07936507936509 116.4021164021164,84.65608465608466 115.76719576719577,84.23280423280424 115.13227513227514,84.02116402116403 114.49735449735451,83.80952380952381 113.86243386243387,83.59788359788361 113.22751322751324,83.3862433862434 112.5925925925926,83.17460317460318 111.95767195767196,83.17460317460318 111.32275132275133,83.17460317460318 110.6878306878307,83.17460317460318 110.05291005291006,83.3862433862434 109.41798941798943,83.59788359788361 108.78306878306879,83.59788359788361 108.14814814814815,84.02116402116403 107.51322751322752,84.44444444444446 106.87830687830689,84.86772486772487 106.45502645502647,85.29100529100529 106.03174603174604,85.71428571428572 105.60846560846562,86.13756613756614 105.18518518518519,86.56084656084657 104.76190476190477,86.98412698412699 104.33862433862434,87.40740740740742 103.91534391534393,87.83068783068784 103.4920634920635,88.46560846560847 103.06878306878308,88.8888888888889 102.64550264550266,89.31216931216932 102.22222222222223,89.94708994708995 101.79894179894181,90.37037037037038 101.37566137566138,91.00529100529101 100.95238095238096,91.42857142857143 100.52910052910053,92.06349206349208 100.52910052910053,92.69841269841271 100.10582010582011,93.12169312169313 99.8941798941799,93.75661375661376 99.47089947089948,94.39153439153439 99.25925925925927,95.02645502645504 98.83597883597885,95.66137566137567 98.62433862433863,96.2962962962963 98.41269841269842,96.93121693121694 98.2010582010582,97.56613756613757 97.77777777777779,98.2010582010582 97.56613756613757,98.83597883597885 97.35449735449737,99.47089947089948 97.14285714285715,100.10582010582011 96.93121693121694,100.74074074074075 96.71957671957672,101.37566137566138 96.50793650793652,102.01058201058201 96.50793650793652,102.64550264550266 96.2962962962963,103.28042328042329 96.08465608465609,103.91534391534393 96.08465608465609,104.55026455026456 95.87301587301587,105.18518518518519 95.87301587301587,105.82010582010582 95.66137566137567,106.45502645502647 95.66137566137567,107.0899470899471 95.66137566137567,107.72486772486774 95.44973544973546,108.35978835978837 95.44973544973546,108.994708994709 95.44973544973546,109.62962962962963 95.44973544973546,110.26455026455027 95.44973544973546,110.89947089947091 95.44973544973546,111.53439153439155 95.44973544973546,112.16931216931218 95.44973544973546,112.80423280423281 95.44973544973546,113.43915343915344 95.66137566137567,114.07407407407408 95.66137566137567,114.70899470899472 95.87301587301587,115.34391534391536 95.87301587301587,115.97883597883599 96.08465608465609,116.61375661375662 96.2962962962963,117.24867724867725 96.2962962962963,117.88359788359789 96.50793650793652,118.51851851851853 96.71957671957672,119.15343915343917 96.93121693121694,119.7883597883598 96.93121693121694,120.42328042328043 97.35449735449737,121.05820105820106 97.35449735449737,121.6931216931217 97.77777777777779,122.32804232804234 97.989417989418,122.96296296296298 98.2010582010582,123.59788359788361 98.41269841269842,124.23280423280424 98.83597883597885,124.86772486772487 99.04761904761905,125.5026455026455 99.47089947089948,126.13756613756615 99.8941798941799,126.77248677248679 100.31746031746033,127.40740740740742 100.74074074074075,127.83068783068784 101.16402116402116,128.25396825396825 101.79894179894181,128.67724867724868 102.22222222222223,129.10052910052912 102.64550264550266,129.52380952380955 103.28042328042329,129.94708994708995 103.91534391534393,130.15873015873018 104.55026455026456,130.37037037037038 105.18518518518519,130.58201058201058 105.82010582010582,130.7936507936508 106.45502645502647,130.7936507936508 107.0899470899471,131.005291005291 107.72486772486774,131.21693121693121 108.35978835978837,131.21693121693121 108.994708994709,131.21693121693121 109.62962962962963,131.21693121693121 110.26455026455027,131.21693121693121 110.89947089947091,131.005291005291 111.53439153439155,130.7936507936508 112.16931216931218,131.005291005291 112.80423280423281,130.7936507936508 113.43915343915344,130.58201058201058 114.07407407407408,130.37037037037038 114.70899470899472,130.37037037037038 115.13227513227514,129.94708994708995 115.76719576719577,129.94708994708995 116.4021164021164,129.73544973544975 117.03703703703705,129.31216931216932 117.67195767195768,129.10052910052912 118.0952380952381,128.67724867724868 118.73015873015873,128.46560846560848 119.15343915343917,128.04232804232805 119.7883597883598,127.61904761904763 120.21164021164022,126.98412698412699 120.63492063492065,126.56084656084657 121.26984126984128,126.13756613756615 121.90476190476191,125.71428571428572 122.53968253968254,125.2910052910053 123.17460317460318,124.86772486772487 123.80952380952382,124.44444444444446 124.44444444444446,124.23280423280424 125.07936507936509,123.80952380952382 125.71428571428572,124.02116402116403 126.13756613756615,123.3862433862434 126.77248677248679,123.3862433862434 127.40740740740742,123.3862433862434 128.04232804232805,123.3862433862434 128.67724867724868,123.3862433862434 129.31216931216932,123.80952380952382 129.94708994708995,124.02116402116403 130.58201058201058,124.23280423280424 131.21693121693121,124.44444444444446 131.85185185185185,124.86772486772487 132.27513227513228,125.2910052910053 132.6984126984127,125.92592592592594 132.9100529100529,126.56084656084657 133.12169312169314,127.1957671957672 133.54497354497354,127.61904761904763 133.75661375661377,128.25396825396825 133.96825396825398,128.88888888888889 133.96825396825398,129.52380952380955 134.17989417989418,130.15873015873018 134.17989417989418,130.7936507936508 134.3915343915344,131.42857142857144 134.3915343915344,132.06349206349208 134.6031746031746,132.6984126984127 134.6031746031746,133.33333333333334 134.6031746031746,133.96825396825398 134.81481481481484,134.6031746031746 134.81481481481484,135.23809523809524 135.02645502645504,135.87301587301587 135.02645502645504,136.5079365079365 135.02645502645504,137.14285714285717 135.23809523809524,137.7777777777778 135.23809523809524,138.41269841269843 135.44973544973547,139.04761904761907 135.44973544973547,139.6825396825397 135.44973544973547,140.31746031746033 135.44973544973547,140.95238095238096 135.66137566137567,141.5873015873016 135.66137566137567,142.22222222222223 135.66137566137567,142.85714285714286 135.87301587301587,143.4920634920635 135.87301587301587,144.12698412698413 135.87301587301587,144.76190476190476 135.87301587301587,145.39682539682542 136.0846560846561,146.03174603174605 136.0846560846561,146.66666666666669 136.0846560846561,147.30158730158732 136.0846560846561,147.93650793650795 136.2962962962963,148.57142857142858 136.2962962962963,149.20634920634922 136.2962962962963,149.84126984126985 136.2962962962963,150.47619047619048 136.2962962962963,151.11111111111111 136.2962962962963,151.74603174603175 136.2962962962963,152.38095238095238 136.5079365079365,153.01587301587304 136.5079365079365,153.65079365079367 136.5079365079365,154.2857142857143 136.5079365079365,154.92063492063494 136.5079365079365,155.55555555555557 136.5079365079365,156.1904761904762 136.5079365079365,156.82539682539684 136.71957671957674,157.46031746031747 136.5079365079365,158.0952380952381 136.5079365079365,158.73015873015873 136.5079365079365,159.36507936507937 136.5079365079365,160.0 136.5079365079365,160.63492063492066 136.5079365079365,161.2698412698413 136.5079365079365,161.90476190476193 136.71957671957674,162.53968253968256 136.71957671957674,163.1746031746032 136.71957671957674,163.80952380952382 136.71957671957674,164.44444444444446 136.71957671957674,165.0793650793651 136.71957671957674,165.71428571428572 136.71957671957674,166.34920634920636 136.71957671957674,166.984126984127 136.71957671957674,167.61904761904762 136.71957671957674,168.25396825396825 136.5079365079365,168.8888888888889 136.5079365079365,169.52380952380955 136.5079365079365,170.15873015873018 136.5079365079365,170.7936507936508 136.2962962962963,171.42857142857144 136.0846560846561,174.81481481481484" style="fill:none; stroke:#999900; stroke-width:1.0"  /><polyline points="136.0846560846561,174.81481481481484 132.6984126984127,173.96825396825398 132.06349206349208,173.75661375661377 131.42857142857144,173.54497354497354 130.7936507936508,173.54497354497354 130.15873015873018,173.54497354497354 129.52380952380955,173.33333333333334 128.88888888888889,173.12169312169314 128.25396825396825,172.9100529100529 127.61904761904763,172.6984126984127 126.98412698412699,172.6984126984127 126.34920634920636,172.4867724867725 125.71428571428572,172.27513227513228 125.07936507936509,172.27513227513228 124.44444444444446,172.06349206349208 123.80952380952382,172.06349206349208 123.17460317460318,171.85185185185188 122.53968253968254,171.85185185185188 121.90476190476191,171.64021164021165 121.26984126984128,171.42857142857144 120.63492063492065,171.42857142857144 120.00000000000001,171.21693121693124 119.36507936507937,171.21693121693124 118.73015873015873,171.21693121693124 118.0952380952381,171.005291005291 117.46031746031747,171.005291005291 116.82539682539684,171.005291005291 116.1904761904762,170.7936507936508 115.55555555555557,170.7936507936508 114.92063492063492,170.7936507936508 114.28571428571429,170.58201058201058 113.65079365079366,170.58201058201058 113.01587301587303,170.58201058201058 112.3809523809524,170.37037037037038 111.74603174603176,170.37037037037038 111.11111111111111,170.37037037037038 110.47619047619048,170.37037037037038 109.84126984126985,170.37037037037038 109.20634920634922,170.37037037037038 108.57142857142858,170.37037037037038 107.93650793650795,170.15873015873018 107.3015873015873,170.15873015873018 106.66666666666667,170.15873015873018 106.03174603174604,170.15873015873018 105.3968253968254,170.15873015873018 104.76190476190477,170.15873015873018 104.12698412698414,170.15873015873018 103.4920634920635,170.37037037037038 102.85714285714286,170.15873015873018 102.22222222222223,170.37037037037038 101.5873015873016,170.37037037037038 100.95238095238096,170.37037037037038 100.31746031746033,170.37037037037038 99.68253968253968,170.37037037037038 99.04761904761905,170.37037037037038 98.41269841269842,170.58201058201058 97.77777777777779,170.7936507936508 97.14285714285715,170.7936507936508 96.50793650793652,171.005291005291 96.08465608465609,171.42857142857144 95.44973544973546,171.85185185185188 94.81481481481482,172.27513227513228 94.39153439153439,172.6984126984127 93.96825396825398,173.12169312169314 93.54497354497356,173.54497354497354 93.33333333333334,174.1798941798942 92.91005291005291,174.6031746031746 92.69841269841271,175.23809523809524 92.69841269841271,175.87301587301587 92.4867724867725,176.50793650793653 92.4867724867725,177.14285714285717 92.4867724867725,177.7777777777778 92.27513227513228,178.41269841269843 92.27513227513228,179.04761904761907 92.27513227513228,179.6825396825397 92.27513227513228,180.31746031746033 92.27513227513228,180.95238095238096 92.27513227513228,181.5873015873016 92.27513227513228,182.22222222222223 92.4867724867725,182.85714285714286 92.4867724867725,183.4920634920635 92.4867724867725,184.12698412698415 92.4867724867725,184.7619047619048 92.4867724867725,185.39682539682542 92.4867724867725,186.03174603174605 92.4867724867725,186.66666666666669 92.4867724867725,187.30158730158732 92.4867724867725,187.93650793650795 92.4867724867725,188.57142857142858 92.27513227513228,189.20634920634922 92.27513227513228,189.84126984126985 92.27513227513228,190.47619047619048 92.27513227513228,191.11111111111111 92.27513227513228,191.74603174603175 92.27513227513228,192.3809523809524 92.27513227513228,193.01587301587304 92.27513227513228,193.65079365079367 92.27513227513228,194.2857142857143 92.06349206349208,194.92063492063494 92.06349206349208,195.55555555555557 91.85185185185186,196.1904761904762 91.42857142857143,196.61375661375664 91.21693121693123,197.24867724867727 90.7936507936508,197.8835978835979 90.37037037037038,198.30687830687833 89.73544973544975,198.73015873015873 89.1005291005291,199.15343915343917 88.46560846560847,199.36507936507937 87.83068783068784,199.5767195767196 87.1957671957672,199.7883597883598 86.56084656084657,200.00000000000003 85.92592592592594,200.00000000000003 85.29100529100529,200.00000000000003 84.65608465608466,200.00000000000003 84.02116402116403,200.00000000000003 83.3862433862434,200.00000000000003 82.75132275132276,200.00000000000003 82.11640211640213,200.00000000000003 81.48148148148148,200.00000000000003 80.84656084656085,200.00000000000003 80.21164021164022,199.7883597883598 79.57671957671958,199.7883597883598 78.94179894179895,199.5767195767196 78.30687830687832,199.5767195767196 77.67195767195767,199.5767195767196 77.03703703703704,199.36507936507937 76.4021164021164,199.36507936507937 75.76719576719577,199.15343915343917 75.13227513227514,198.94179894179896 74.49735449735451,198.73015873015873 73.86243386243387,198.73015873015873 73.22751322751323,198.51851851851853 72.5925925925926,198.30687830687833 71.95767195767196,198.0952380952381 71.32275132275133,197.8835978835979 70.6878306878307,197.6719576719577 70.05291005291006,197.46031746031747 69.41798941798942,197.24867724867727 68.78306878306879,197.03703703703704 68.14814814814815,196.61375661375664 67.51322751322752,196.4021164021164 66.87830687830689,195.978835978836 66.24338624338625,195.55555555555557 65.60846560846561,195.34391534391537 64.97354497354497,194.92063492063494 64.33862433862434,194.4973544973545 63.91534391534392,194.07407407407408 63.492063492063494,193.65079365079367 62.85714285714286,193.22751322751324 62.43386243386244,192.8042328042328 62.01058201058201,192.3809523809524 61.58730158730159,191.74603174603175 60.952380952380956,191.32275132275134 60.52910052910053,190.8994708994709 60.10582010582011,190.26455026455028 59.682539682539684,189.62962962962965 59.470899470899475,188.99470899470901 59.25925925925927,188.35978835978838 59.04761904761905,187.72486772486775 59.04761904761905,187.08994708994712 59.25925925925927,186.45502645502646 59.25925925925927,185.82010582010582 59.25925925925927,185.1851851851852 59.470899470899475,184.55026455026456 59.682539682539684,183.91534391534393 59.8941798941799,183.2804232804233 60.10582010582011,182.64550264550266 60.52910052910053,182.01058201058203 60.952380952380956,181.3756613756614 61.37566137566138,180.74074074074076 61.58730158730159,180.10582010582013 62.01058201058201,179.6825396825397 62.43386243386244,179.04761904761907 62.85714285714286,178.62433862433863 63.280423280423285,178.2010582010582 63.70370370370371,177.56613756613757 64.12698412698413,177.14285714285717 64.55026455026456,176.71957671957674 64.97354497354497,176.2962962962963 65.3968253968254,175.87301587301587 65.82010582010582,175.44973544973547 66.24338624338625,175.02645502645504 66.66666666666667,174.6031746031746 67.08994708994709,174.1798941798942 67.51322751322752,173.75661375661377 67.93650793650794,173.33333333333334 68.35978835978837,172.6984126984127 68.78306878306879,172.27513227513228 69.20634920634922,171.85185185185188 69.62962962962963,171.42857142857144 70.05291005291006,170.7936507936508 70.47619047619048,170.15873015873018 70.8994708994709,169.52380952380955 71.11111111111111,168.8888888888889 71.32275132275133,168.25396825396825 71.32275132275133,167.61904761904762 71.32275132275133,166.984126984127 71.32275132275133,166.34920634920636 71.32275132275133,165.71428571428572 71.11111111111111,165.0793650793651 70.8994708994709,164.44444444444446 70.6878306878307,163.80952380952382 70.26455026455027,163.3862433862434 70.05291005291006,162.75132275132276 69.62962962962963,162.32804232804233 68.994708994709,161.90476190476193 68.35978835978837,161.4814814814815 67.72486772486774,161.05820105820106 67.08994708994709,160.63492063492066 66.45502645502646,160.42328042328043 65.82010582010582,160.21164021164023 65.18518518518519,160.0 64.55026455026456,160.0 63.91534391534392,159.7883597883598 63.280423280423285,159.7883597883598 62.64550264550265,159.5767195767196 62.01058201058201,159.5767195767196 61.37566137566138,159.36507936507937 60.74074074074075,159.5767195767196 60.10582010582011,159.5767195767196 59.470899470899475,159.5767195767196 58.83597883597884,159.36507936507937 58.2010582010582,159.36507936507937 57.56613756613757,159.36507936507937 56.93121693121694,159.36507936507937 56.2962962962963,159.36507936507937 55.661375661375665,159.36507936507937 55.02645502645503,159.36507936507937 54.39153439153439,159.36507936507937 53.75661375661376,159.36507936507937 53.12169312169313,159.36507936507937 52.48677248677249,159.5767195767196 51.851851851851855,159.5767195767196 51.21693121693122,159.7883597883598 50.58201058201058,159.7883597883598 49.94708994708995,160.0 49.31216931216932,160.0 48.677248677248684,160.21164021164023 48.042328042328045,160.42328042328043 47.40740740740741,160.42328042328043 46.77248677248678,160.63492063492066 46.13756613756614,160.63492063492066 45.50264550264551,160.84656084656086 44.867724867724874,161.05820105820106 44.232804232804234,161.2698412698413 43.5978835978836,161.05820105820106 42.96296296296297,161.05820105820106 42.32804232804233,161.05820105820106 41.6931216931217,161.2698412698413 41.058201058201064,161.2698412698413 40.423280423280424,161.2698412698413 39.78835978835979,161.2698412698413 39.15343915343916,161.2698412698413 38.51851851851852,161.2698412698413 37.883597883597886,161.2698412698413 37.248677248677254,161.2698412698413 36.613756613756614,161.2698412698413 35.97883597883598,161.2698412698413 35.34391534391535,161.2698412698413 34.70899470899471,161.2698412698413 34.074074074074076,161.2698412698413 33.43915343915344,161.2698412698413 32.804232804232804,161.2698412698413 32.16931216931217,161.2698412698413 31.53439153439154,161.05820105820106 30.899470899470902,161.05820105820106 30.264550264550266,161.05820105820106 29.629629629629633,161.05820105820106 28.994708994708997,161.05820105820106 28.35978835978836,161.05820105820106 27.724867724867728,160.84656084656086 27.089947089947092,160.84656084656086 26.455026455026456,160.84656084656086 25.820105820105823,160.84656084656086 25.185185185185187,160.84656084656086 24.55026455026455,160.63492063492066 23.915343915343918,160.63492063492066 23.280423280423282,160.63492063492066 22.645502645502646,160.42328042328043 22.010582010582013,160.21164021164023 21.375661375661377,160.21164021164023 20.740740740740744,160.0 20.105820105820108,160.0 19.47089947089947,159.7883597883598 18.83597883597884,159.7883597883598 18.201058201058203,159.5767195767196 17.566137566137566,159.5767195767196 16.931216931216934,159.5767195767196 16.296296296296298,159.36507936507937 15.661375661375663,159.15343915343917 15.026455026455027,159.15343915343917 14.391534391534393,158.94179894179896 13.756613756613758,158.94179894179896 13.121693121693122,158.73015873015873 9.523809523809524,158.0952380952381" style="fill:none; stroke:#00aa99; stroke-width:1.0"  /><polyline points="9.523809523809524,158.0952380952381 8.88888888888889,154.7089947089947 8.88888888888889,154.07407407407408 8.677248677248677,153.43915343915344 8.677248677248677,152.8042328042328 8.465608465608467,152.16931216931218 8.465608465608467,151.53439153439155 8.253968253968255,150.8994708994709 8.253968253968255,150.26455026455028 8.042328042328043,149.62962962962965 7.830687830687832,148.99470899470901 7.830687830687832,148.35978835978838 7.6190476190476195,147.72486772486775 7.407407407407408,147.0899470899471 7.407407407407408,146.45502645502646 7.195767195767196,145.82010582010582 7.195767195767196,145.1851851851852 6.984126984126985,144.55026455026456 6.772486772486773,143.91534391534393 6.772486772486773,143.2804232804233 6.560846560846561,142.64550264550266 6.34920634920635,142.01058201058203 6.34920634920635,141.3756613756614 6.137566137566138,140.74074074074076 5.9259259259259265,140.10582010582013 5.9259259259259265,139.47089947089947 5.714285714285714,138.83597883597884 5.502645502645503,138.2010582010582 5.502645502645503,137.56613756613757 5.291005291005291,136.93121693121694 5.07936507936508,136.2962962962963 5.07936507936508,135.66137566137567 4.867724867724868,135.02645502645504 4.656084656084657,134.3915343915344 4.656084656084657,133.75661375661377 4.444444444444445,133.12169312169314 4.2328042328042335,132.4867724867725 4.021164021164021,131.85185185185185 4.021164021164021,131.21693121693121 3.8095238095238098,130.58201058201058 3.597883597883598,129.94708994708995 3.597883597883598,129.31216931216932 3.3862433862433865,128.67724867724868 3.174603174603175,128.04232804232805 2.7513227513227516,127.61904761904763 2.7513227513227516,126.98412698412699 2.53968253968254,126.34920634920636 2.3280423280423284,125.71428571428572 2.3280423280423284,125.07936507936509 2.1164021164021167,124.44444444444446 2.1164021164021167,123.80952380952382 1.9047619047619049,123.17460317460318 1.6931216931216932,122.53968253968254 1.6931216931216932,121.90476190476191 1.4814814814814816,121.26984126984128 1.26984126984127,120.63492063492065 1.0582010582010584,120.00000000000001 1.0582010582010584,119.36507936507937 0.8465608465608466,118.73015873015873 0.634920634920635,118.0952380952381 0.634920634920635,117.46031746031747 0.4232804232804233,116.82539682539684 0.4232804232804233,116.1904761904762 0.4232804232804233,115.55555555555557 0.21164021164021166,114.92063492063492 0.4232804232804233,114.28571428571429 0.4232804232804233,113.65079365079366 0.4232804232804233,113.01587301587303 0.634920634920635,112.3809523809524 0.8465608465608466,111.74603174603176 1.26984126984127,111.11111111111111 1.6931216931216932,110.47619047619048 2.1164021164021167,109.84126984126985 2.7513227513227516,109.41798941798943 3.3862433862433865,108.994708994709 4.021164021164021,108.78306878306879 4.656084656084657,108.57142857142858 5.291005291005291,108.57142857142858 5.9259259259259265,108.57142857142858 6.560846560846561,108.57142857142858 7.195767195767196,108.57142857142858 7.6190476190476195,108.14814814814815 8.253968253968255,108.35978835978837 8.88888888888889,108.78306878306879 9.523809523809524,109.20634920634922 10.15873015873016,109.20634920634922 10.582010582010582,109.62962962962963 11.005291005291006,110.05291005291006 11.640211640211641,110.05291005291006 12.063492063492065,110.47619047619048 12.486772486772487,110.89947089947091 13.121693121693122,111.11111111111111 13.756613756613758,111.53439153439155 14.391534391534393,111.95767195767196 15.026455026455027,112.3809523809524 15.661375661375663,112.5925925925926 16.296296296296298,112.80423280423281 16.931216931216934,113.22751322751324 17.566137566137566,113.43915343915344 18.201058201058203,113.86243386243387 18.83597883597884,114.07407407407408 19.47089947089947,114.49735449735451 20.105820105820108,114.70899470899472 20.740740740740744,114.70899470899472 21.375661375661377,115.13227513227514 22.010582010582013,115.13227513227514 22.645502645502646,115.13227513227514 23.280423280423282,115.34391534391536 23.915343915343918,115.55555555555557 24.55026455026455,115.76719576719577 25.185185185185187,115.55555555555557 25.820105820105823,115.55555555555557 26.243386243386244,115.13227513227514 26.87830687830688,115.13227513227514 27.513227513227516,114.70899470899472 28.14814814814815,114.49735449735451 28.571428571428573,114.07407407407408 29.20634920634921,113.65079365079366 29.629629629629633,113.22751322751324 30.052910052910054,112.80423280423281 30.476190476190478,112.3809523809524 30.899470899470902,111.74603174603176 31.322751322751326,111.32275132275133 31.746031746031747,110.6878306878307 32.16931216931217,110.05291005291006 32.592592592592595,109.41798941798943 33.01587301587302,108.78306878306879 33.43915343915344,108.14814814814815 33.86243386243387,107.51322751322752 34.074074074074076,106.87830687830689 34.4973544973545,106.24338624338625 34.70899470899471,105.60846560846562 35.13227513227513,104.97354497354497 35.34391534391535,104.33862433862434 35.55555555555556,103.70370370370371 35.97883597883598,103.06878306878308 36.19047619047619,102.43386243386244 36.402116402116405,101.79894179894181 36.613756613756614,101.16402116402116 36.82539682539683,100.52910052910053 37.03703703703704,99.8941798941799 37.248677248677254,99.25925925925927 37.46031746031746,98.62433862433863 37.46031746031746,97.989417989418 37.67195767195768,97.35449735449737 37.883597883597886,96.71957671957672 37.883597883597886,96.08465608465609 38.095238095238095,95.44973544973546 38.095238095238095,94.81481481481482 38.30687830687831,94.17989417989419 38.30687830687831,93.54497354497356 38.30687830687831,92.91005291005291 38.30687830687831,92.27513227513228 38.30687830687831,91.64021164021165 38.30687830687831,91.00529100529101 38.30687830687831,90.37037037037038 38.30687830687831,89.73544973544975 38.30687830687831,89.1005291005291 38.30687830687831,88.46560846560847 38.30687830687831,87.83068783068784 38.095238095238095,87.1957671957672 38.095238095238095,86.56084656084657 38.095238095238095,85.92592592592594 38.095238095238095,85.29100529100529 37.883597883597886,84.65608465608466 37.883597883597886,84.02116402116403 37.67195767195768,83.3862433862434 37.67195767195768,82.75132275132276 37.46031746031746,82.11640211640213 37.248677248677254,81.48148148148148 37.03703703703704,80.84656084656085 36.82539682539683,80.21164021164022 36.613756613756614,79.57671957671958 36.402116402116405,78.94179894179895 35.97883597883598,78.30687830687832 35.76719576719577,77.67195767195767 35.34391534391535,77.03703703703704 35.13227513227513,76.4021164021164 34.70899470899471,75.97883597883599 34.28571428571429,75.34391534391536 33.86243386243387,74.92063492063492 33.43915343915344,74.49735449735451 33.01587301587302,74.07407407407408 32.38095238095239,73.65079365079366 31.746031746031747,73.22751322751323 31.111111111111114,73.01587301587303 30.476190476190478,72.80423280423281 29.841269841269842,72.5925925925926 29.20634920634921,72.38095238095238 28.571428571428573,72.16931216931218 27.93650793650794,72.16931216931218 27.301587301587304,71.95767195767196 26.666666666666668,71.74603174603175 26.031746031746035,71.74603174603175 25.3968253968254,71.95767195767196 24.761904761904763,71.74603174603175 24.12698412698413,71.74603174603175 23.492063492063494,71.74603174603175 22.857142857142858,71.74603174603175 22.222222222222225,71.74603174603175 21.58730158730159,71.74603174603175 20.952380952380953,71.74603174603175 20.31746031746032,71.95767195767196 19.682539682539684,71.95767195767196 19.047619047619047,71.95767195767196 18.412698412698415,72.16931216931218 17.77777777777778,72.16931216931218 17.142857142857146,72.38095238095238 16.50793650793651,72.5925925925926 15.873015873015873,72.80423280423281 15.238095238095239,72.80423280423281 14.603174603174605,73.01587301587303 13.96825396825397,73.22751322751323 13.333333333333334,73.43915343915344 12.6984126984127,73.43915343915344 12.063492063492065,73.65079365079366 11.428571428571429,73.65079365079366 10.793650793650794,73.65079365079366 10.15873015873016,73.65079365079366 9.523809523809524,73.65079365079366 8.88888888888889,73.65079365079366 8.253968253968255,73.43915343915344 7.6190476190476195,73.22751322751323 6.984126984126985,73.01587301587303 6.34920634920635,72.80423280423281 5.714285714285714,72.38095238095238 5.07936507936508,71.95767195767196 4.656084656084657,71.32275132275133 4.2328042328042335,70.6878306878307 4.021164021164021,70.05291005291006 4.021164021164021,69.41798941798942 3.8095238095238098,68.78306878306879 3.8095238095238098,68.14814814814815 3.8095238095238098,67.51322751322752 4.021164021164021,66.87830687830689 4.021164021164021,66.24338624338625 4.2328042328042335,65.60846560846561 4.444444444444445,64.97354497354497 4.444444444444445,64.33862433862434 4.656084656084657,63.70370370370371 4.867724867724868,63.06878306878308 5.291005291005291,62.43386243386244 5.502645502645503,61.798941798941804 5.714285714285714,61.16402116402117 6.137566137566138,60.52910052910053 6.34920634920635,59.8941798941799 6.560846560846561,59.25925925925927 6.984126984126985,58.62433862433863 7.195767195767196,57.989417989417994 7.407407407407408,57.35449735449736 7.830687830687832,56.71957671957672 8.042328042328043,56.08465608465609 8.253968253968255,55.449735449735456 8.677248677248677,54.81481481481482 8.88888888888889,54.179894179894184 9.312169312169313,53.54497354497355 9.523809523809524,52.91005291005291 9.735449735449736,52.27513227513228 10.15873015873016,51.640211640211646 10.370370370370372,51.00529100529101 10.793650793650794,50.370370370370374 11.005291005291006,49.73544973544974 11.428571428571429,49.1005291005291 11.640211640211641,48.46560846560847 11.851851851851853,47.830687830687836 12.275132275132275,47.195767195767196 12.486772486772487,46.560846560846564 12.6984126984127,45.92592592592593 13.121693121693122,45.29100529100529 13.333333333333334,44.65608465608466 13.756613756613758,44.021164021164026 13.96825396825397,43.386243386243386 14.391534391534393,42.75132275132275 14.603174603174605,42.11640211640212 15.026455026455027,41.48148148148149 15.238095238095239,40.84656084656085 15.449735449735451,40.211640211640216 15.873015873015873,39.57671957671958 16.084656084656086,38.94179894179894 16.50793650793651,38.30687830687831 16.71957671957672,37.67195767195768 17.142857142857146,37.03703703703704 17.354497354497354,36.402116402116405 17.77777777777778,35.76719576719577 17.98941798941799,35.13227513227513 18.201058201058203,34.4973544973545 18.624338624338627,33.86243386243387 18.83597883597884,33.22751322751323 19.047619047619047,32.592592592592595 19.47089947089947,32.16931216931217 19.682539682539684,31.53439153439154 19.894179894179896,30.899470899470902 20.105820105820108,30.264550264550266 20.529100529100532,29.629629629629633 20.740740740740744,28.994708994708997 20.952380952380953,28.35978835978836 21.164021164021165,27.724867724867728 21.58730158730159,27.089947089947092 21.7989417989418,26.455026455026456 23.703703703703706,22.010582010582013" style="fill:none; stroke:#3300bb; stroke-width:1.0"  /><circle cx="23.703703703703706" cy="22.010582010582013" r="2.0" style="fill:none; stroke:#000000aa; stroke-width:0.25" /><circle cx="150.6878306878307" cy="32.592592592592595" r="2.0" style="fill:none; stroke:#000000aa; stroke-width:0.25" /><circle cx="136.0846560846561" cy="174.81481481481484" r="2.0" style="fill:none; stroke:#000000aa; stroke-width:0.25" /><circle cx="9.523809523809524" cy="158.0952380952381" r="2.0" style="fill:none; stroke:#000000aa; stroke-width:0.25" /><circle cx="23.492063492063494" cy="23.492063492063494" r="2.0" style="fill:none; stroke:#ff3366aa; stroke-width:0.25" /><circle cx="150.47619047619048" cy="33.22751322751323" r="2.0" style="fill:none; stroke:#ff3366aa; stroke-width:0.25" /><circle cx="135.87301587301587" cy="174.81481481481484" r="2.0" style="fill:none; stroke:#ff3366aa; stroke-width:0.25" /><circle cx="9.735449735449736" cy="157.8835978835979" r="2.0" style="fill:none; stroke:#ff3366aa; stroke-width:0.25" /><polyline points="33.86243386243387,29.41798941798942 33.22751322751323,28.994708994708997 32.592592592592595,28.571428571428573 31.95767195767196,28.14814814814815 31.53439153439154,27.724867724867728 30.899470899470902,27.301587301587304 30.476190476190478,26.87830687830688 29.841269841269842,26.455026455026456 29.20634920634921,26.031746031746035 28.783068783068785,25.60846560846561 28.14814814814815,25.3968253968254 27.724867724867728,24.973544973544975 27.089947089947092,24.55026455026455 26.666666666666668,24.12698412698413" style="fill:none; stroke:#001100; stroke-width:1.0" /><polyline points="18.624338624338627,33.86243386243387 18.83597883597884,33.22751322751323 19.047619047619047,32.592592592592595 19.47089947089947,32.16931216931217 19.682539682539684,31.53439153439154 19.894179894179896,30.899470899470902 20.105820105820108,30.264550264550266 20.529100529100532,29.629629629629633 20.740740740740744,28.994708994708997 20.952380952380953,28.35978835978836 21.164021164021165,27.724867724867728 21.58730158730159,27.089947089947092 21.7989417989418,26.455026455026456" style="fill:none; stroke:#000011; stroke-width:1.0" /><polyline points="149.41798941798942,44.65608465608466 149.41798941798942,44.021164021164026 149.41798941798942,43.386243386243386 149.41798941798942,42.75132275132275 149.62962962962965,42.11640211640212 149.62962962962965,41.48148148148149 149.62962962962965,40.84656084656085 149.84126984126985,40.211640211640216 149.84126984126985,39.57671957671958 150.05291005291005,38.94179894179894 150.05291005291005,38.30687830687831 150.05291005291005,37.67195767195768 150.05291005291005,37.03703703703704 150.26455026455028,36.402116402116405" style="fill:none; stroke:#001100; stroke-width:1.0" /><polyline points="138.62433862433863,33.22751322751323 139.25925925925927,33.22751322751323 139.8941798941799,33.01587301587302 140.52910052910053,33.01587301587302 141.16402116402116,33.01587301587302 141.7989417989418,33.01587301587302 142.43386243386246,33.01587301587302 143.0687830687831,33.01587301587302 143.70370370370372,33.01587301587302 144.33862433862436,32.804232804232804 144.973544973545,32.804232804232804 145.60846560846562,32.804232804232804 146.24338624338625,32.804232804232804 146.8783068783069,32.804232804232804 147.51322751322752,32.804232804232804" style="fill:none; stroke:#000011; stroke-width:1.0" /><polyline points="124.44444444444446,172.06349206349208 125.07936507936509,172.27513227513228 125.71428571428572,172.27513227513228 126.34920634920636,172.4867724867725 126.98412698412699,172.6984126984127 127.61904761904763,172.6984126984127 128.25396825396825,172.9100529100529 128.88888888888889,173.12169312169314 129.52380952380955,173.33333333333334 130.15873015873018,173.54497354497354 130.7936507936508,173.54497354497354 131.42857142857144,173.54497354497354 132.06349206349208,173.75661375661377 132.6984126984127,173.96825396825398" style="fill:none; stroke:#001100; stroke-width:1.0" /><polyline points="136.71957671957674,163.1746031746032 136.71957671957674,163.80952380952382 136.71957671957674,164.44444444444446 136.71957671957674,165.0793650793651 136.71957671957674,165.71428571428572 136.71957671957674,166.34920634920636 136.71957671957674,166.984126984127 136.71957671957674,167.61904761904762 136.71957671957674,168.25396825396825 136.5079365079365,168.8888888888889 136.5079365079365,169.52380952380955 136.5079365079365,170.15873015873018 136.5079365079365,170.7936507936508 136.2962962962963,171.42857142857144" style="fill:none; stroke:#000011; stroke-width:1.0" /><polyline points="7.407407407407408,146.45502645502646 7.407407407407408,147.0899470899471 7.6190476190476195,147.72486772486775 7.830687830687832,148.35978835978838 7.830687830687832,148.99470899470901 8.042328042328043,149.62962962962965 8.253968253968255,150.26455026455028 8.253968253968255,150.8994708994709 8.465608465608467,151.53439153439155 8.465608465608467,152.16931216931218 8.677248677248677,152.8042328042328 8.677248677248677,153.43915343915344 8.88888888888889,154.07407407407408 8.88888888888889,154.7089947089947" style="fill:none; stroke:#001100; stroke-width:1.0" /><polyline points="21.375661375661377,160.21164021164023 20.740740740740744,160.0 20.105820105820108,160.0 19.47089947089947,159.7883597883598 18.83597883597884,159.7883597883598 18.201058201058203,159.5767195767196 17.566137566137566,159.5767195767196 16.931216931216934,159.5767195767196 16.296296296296298,159.36507936507937 15.661375661375663,159.15343915343917 15.026455026455027,159.15343915343917 14.391534391534393,158.94179894179896 13.756613756613758,158.94179894179896 13.121693121693122,158.73015873015873" style="fill:none; stroke:#000011; stroke-width:1.0" /><polyline points="26.666666666666668,24.12698412698413 9.523809523809524,11.640211640211641" style="fill:none; stroke:#ffaa00; stroke-width:0.4" /><polyline points="21.7989417989418,26.455026455026456 30.052910052910054,6.984126984126985" style="fill:none; stroke:#aaff00; stroke-width:0.4" /><polyline points="150.26455026455028,36.402116402116405 152.38095238095238,15.449735449735451" style="fill:none; stroke:#ffaa00; stroke-width:0.4" /><polyline points="147.51322751322752,32.804232804232804 168.67724867724868,31.746031746031747" style="fill:none; stroke:#aaff00; stroke-width:0.4" /><polyline points="132.6984126984127,173.96825396825398 153.22751322751324,178.62433862433863" style="fill:none; stroke:#ffaa00; stroke-width:0.4" /><polyline points="136.2962962962963,171.42857142857144 135.23809523809524,192.5925925925926" style="fill:none; stroke:#aaff00; stroke-width:0.4" /><polyline points="8.88888888888889,154.7089947089947 12.6984126984127,175.44973544973547" style="fill:none; stroke:#ffaa00; stroke-width:0.4" /><polyline points="13.121693121693122,158.73015873015873 -7.6190476190476195,154.92063492063494" style="fill:none; stroke:#aaff00; stroke-width:0.4" /><circle cx="76.19047619047619" cy="98.83597883597885" r="1.0" style="fill:#444444; stroke-width:0" /><circle cx="70.6878306878307" cy="73.01587301587303" r="10.582010582010582" style="fill:#ff770022; stroke-width:0" /><circle cx="70.6878306878307" cy="73.01587301587303" r="1.0" style="fill:#ff7700; stroke-width:0" /></svg>