<?xml version="1.0" encoding="UTF-8" standalone="no"?><svg width="534.6031746031747" height="436.82539682539687" viewBox="-10 -10 198.2010582010582 165.60846560846562" xmlns="http://www.w3.org/2000/svg" xmlns:xlink="http://www.w3.org/1999/xlink"><polyline points="25.185185185185187,4.867724867724868 28.14814814814815,4.656084656084657 28.783068783068785,4.656084656084657 29.41798941798942,4.656084656084657 30.052910052910054,4.444444444444445 30.68783068783069,4.444444444444445 31.322751322751326,4.444444444444445 31.95767195767196,4.444444444444445 32.592592592592595,4.444444444444445 33.22751322751323,4.2328042328042335 33.86243386243387,4.2328042328042335 34.4973544973545,4.021164021164021 35.13227513227513,4.021164021164021 35.76719576719577,4.021164021164021 36.402116402116405,4.021164021164021 37.03703703703704,3.8095238095238098 37.67195767195768,3.8095238095238098 38.30687830687831,3.8095238095238098 38.94179894179894,3.597883597883598 39.57671957671958,3.3862433862433865 40.211640211640216,3.3862433862433865 40.84656084656085,3.3862433862433865 41.48148148148149,3.174603174603175 42.11640211640212,3.174603174603175 42.75132275132275,2.9629629629629632 43.386243386243386,2.9629629629629632 44.021164021164026,3.174603174603175 44.65608465608466,2.9629629629629632 45.29100529100529,2.9629629629629632 45.92592592592593,2.7513227513227516 46.560846560846564,2.9629629629629632 47.195767195767196,2.7513227513227516 47.830687830687836,2.7513227513227516 48.46560846560847,2.53968253968254 49.1005291005291,2.53968253968254 49.73544973544974,2.53968253968254 50.370370370370374,2.3280423280423284 51.00529100529101,2.3280423280423284 51.640211640211646,2.3280423280423284 52.27513227513228,2.3280423280423284 52.91005291005291,2.3280423280423284 53.54497354497355,2.3280423280423284 54.179894179894184,2.1164021164021167 54.81481481481482,2.1164021164021167 55.449735449735456,1.9047619047619049 56.08465608465609,1.9047619047619049 56.71957671957672,1.9047619047619049 57.35449735449736,1.6931216931216932 57.989417989417994,1.6931216931216932 58.62433862433863,1.9047619047619049 59.25925925925927,1.6931216931216932 59.8941798941799,1.6931216931216932 60.52910052910053,1.6931216931216932 61.16402116402117,1.4814814814814816 61.798941798941804,1.4814814814814816 62.43386243386244,1.4814814814814816 63.06878306878308,1.4814814814814816 63.70370370370371,1.26984126984127 64.33862433862434,1.26984126984127 64.97354497354497,1.26984126984127 65.60846560846561,1.26984126984127 66.24338624338625,1.26984126984127 66.87830687830689,1.26984126984127 67.51322751322752,1.0582010582010584 68.14814814814815,1.26984126984127 68.78306878306879,1.26984126984127 69.41798941798942,1.0582010582010584 70.05291005291006,1.0582010582010584 70.6878306878307,1.0582010582010584 71.32275132275133,1.0582010582010584 71.95767195767196,0.8465608465608466 72.5925925925926,0.8465608465608466 73.22751322751323,0.8465608465608466 73.86243386243387,0.634920634920635 74.49735449735451,0.634920634920635 75.13227513227514,0.634920634920635 75.76719576719577,0.634920634920635 76.4021164021164,0.634920634920635 77.03703703703704,0.4232804232804233 77.67195767195767,0.4232804232804233 78.30687830687832,0.634920634920635 78.94179894179895,0.634920634920635 79.57671957671958,0.4232804232804233 80.21164021164022,0.4232804232804233 80.84656084656085,0.4232804232804233 81.48148148148148,0.4232804232804233 82.11640211640213,0.4232804232804233 82.75132275132276,0.4232804232804233 83.3862433862434,0.4232804232804233 84.02116402116403,0.21164021164021166 84.65608465608466,0.4232804232804233 85.29100529100529,0.4232804232804233 85.92592592592594,0.4232804232804233 86.56084656084657,0.4232804232804233 87.1957671957672,0.4232804232804233 87.83068783068784,0.4232804232804233 88.46560846560847,0.4232804232804233 89.1005291005291,0.4232804232804233 89.73544973544975,0.4232804232804233 90.37037037037038,0.634920634920635 91.00529100529101,0.634920634920635 91.64021164021165,0.634920634920635 92.27513227513228,0.8465608465608466 92.91005291005291,1.0582010582010584 93.54497354497356,1.0582010582010584 94.17989417989419,1.4814814814814816 94.81481481481482,1.4814814814814816 95.44973544973546,1.4814814814814816 96.08465608465609,1.6931216931216932 96.71957671957672,1.9047619047619049 97.35449735449737,1.9047619047619049 97.989417989418,2.1164021164021167 98.62433862433863,2.3280423280423284 99.25925925925927,2.7513227513227516 99.8941798941799,2.7513227513227516 100.52910052910053,3.174603174603175 101.16402116402116,3.3862433862433865 101.79894179894181,3.597883597883598 102.22222222222223,4.021164021164021 102.85714285714286,4.444444444444445 103.28042328042329,4.867724867724868 103.70370370370371,5.502645502645503 104.12698412698414,5.9259259259259265 104.33862433862434,6.560846560846561 104.55026455026456,7.195767195767196 104.55026455026456,7.830687830687832 104.55026455026456,8.465608465608467 104.55026455026456,9.100529100529101 104.33862433862434,9.735449735449736 104.12698412698414,10.370370370370372 103.70370370370371,11.005291005291006 103.4920634920635,11.640211640211641 103.28042328042329,12.275132275132275 102.85714285714286,12.6984126984127 102.64550264550266,13.333333333333334 102.22222222222223,13.96825396825397 101.79894179894181,14.603174603174605 101.5873015873016,15.238095238095239 101.16402116402116,15.873015873015873 100.95238095238096,16.50793650793651 100.52910052910053,17.142857142857146 100.52910052910053,17.77777777777778 100.10582010582011,18.412698412698415 99.8941798941799,19.047619047619047 99.68253968253968,19.682539682539684 99.47089947089948,20.31746031746032 99.47089947089948,20.952380952380953 99.25925925925927,21.58730158730159 99.25925925925927,22.222222222222225 99.25925925925927,22.857142857142858 99.25925925925927,23.492063492063494 99.47089947089948,24.12698412698413 99.68253968253968,24.761904761904763 99.8941798941799,25.3968253968254 100.31746031746033,26.031746031746035 100.74074074074075,26.666666666666668 101.16402116402116,27.089947089947092 101.5873015873016,27.513227513227516 102.01058201058201,27.93650793650794 102.64550264550266,28.35978835978836 103.06878306878308,28.783068783068785 103.70370370370371,28.994708994708997 104.33862433862434,29.41798941798942 104.97354497354497,29.841269841269842 105.60846560846562,30.264550264550266 106.24338624338625,30.476190476190478 106.87830687830689,30.899470899470902 107.51322751322752,31.111111111111114 108.14814814814815,31.322751322751326 108.78306878306879,31.322751322751326 109.41798941798943,31.53439153439154 110.05291005291006,31.746031746031747 110.6878306878307,31.95767195767196 111.32275132275133,32.16931216931217 111.95767195767196,32.16931216931217 112.5925925925926,32.38095238095239 113.22751322751324,32.38095238095239 113.86243386243387,32.38095238095239 114.49735449735451,32.38095238095239 115.13227513227514,32.38095238095239 115.76719576719577,32.38095238095239 116.4021164021164,32.38095238095239 117.03703703703705,32.38095238095239 117.67195767195768,32.38095238095239 118.30687830687832,32.38095238095239 118.94179894179895,32.38095238095239 119.57671957671958,32.16931216931217 120.21164021164022,32.16931216931217 120.84656084656086,32.16931216931217 121.4814814814815,31.95767195767196 122.11640211640213,31.746031746031747 122.75132275132276,31.746031746031747 123.3862433862434,31.53439153439154 124.02116402116403,31.322751322751326 124.65608465608466,31.322751322751326 125.2910052910053,30.899470899470902 125.92592592592594,30.899470899470902 126.34920634920636,30.476190476190478 126.98412698412699,30.264550264550266 127.61904761904763,29.841269841269842 128.25396825396825,29.41798941798942 128.67724867724868,28.994708994708997 129.10052910052912,28.571428571428573 129.52380952380955,28.14814814814815 129.94708994708995,27.513227513227516 130.37037037037038,26.87830687830688 130.58201058201058,26.243386243386244 130.7936507936508,25.60846560846561 131.005291005291,24.973544973544975 131.21693121693121,24.338624338624342 131.21693121693121,23.703703703703706 131.42857142857144,23.06878306878307 131.42857142857144,22.433862433862437 131.64021164021165,21.7989417989418 131.64021164021165,21.164021164021165 131.64021164021165,20.529100529100532 131.64021164021165,19.894179894179896 131.42857142857144,19.25925925925926 131.42857142857144,18.624338624338627 131.42857142857144,17.98941798941799 131.005291005291,17.354497354497354 131.005291005291,16.71957671957672 130.7936507936508,16.084656084656086 130.58201058201058,15.449735449735451 130.37037037037038,14.814814814814817 130.37037037037038,14.17989417989418 130.15873015873018,13.544973544973546 130.15873015873018,12.910052910052912 130.15873015873018,12.275132275132275 129.94708994708995,11.640211640211641 129.73544973544975,11.005291005291006 129.73544973544975,10.370370370370372 129.52380952380955,9.735449735449736 129.52380952380955,9.100529100529101 129.52380952380955,8.465608465608467 129.52380952380955,7.830687830687832 129.52380952380955,7.195767195767196 129.73544973544975,6.560846560846561 129.73544973544975,5.9259259259259265 129.94708994708995,5.291005291005291 130.37037037037038,4.656084656084657 130.7936507936508,4.021164021164021 131.005291005291,3.3862433862433865 131.42857142857144,2.9629629629629632 131.85185185185185,2.53968253968254 132.4867724867725,2.1164021164021167 132.9100529100529,1.6931216931216932 133.54497354497354,1.6931216931216932 133.96825396825398,1.26984126984127 134.6031746031746,1.26984126984127 135.23809523809524,1.26984126984127 135.87301587301587,1.0582010582010584 136.5079365079365,1.0582010582010584 137.14285714285717,1.26984126984127 137.7777777777778,1.26984126984127 138.41269841269843,1.4814814814814816 139.04761904761907,1.6931216931216932 139.6825396825397,1.6931216931216932 140.31746031746033,1.6931216931216932 140.95238095238096,1.9047619047619049 141.5873015873016,2.1164021164021167 142.22222222222223,2.1164021164021167 142.85714285714286,2.1164021164021167 143.2804232804233,2.53968253968254 143.91534391534393,2.3280423280423284 144.55026455026456,2.3280423280423284 145.1851851851852,2.53968253968254 145.82010582010582,2.7513227513227516 146.45502645502646,2.7513227513227516 147.0899470899471,2.9629629629629632 147.51322751322752,3.3862433862433865 148.14814814814815,3.3862433862433865 148.78306878306879,3.597883597883598 149.41798941798942,3.8095238095238098 150.05291005291005,4.021164021164021 150.6878306878307,4.021164021164021 151.11111111111111,4.444444444444445 151.74603174603175,4.656084656084657 152.38095238095238,4.867724867724868 153.01587301587304,5.291005291005291 153.65079365079367,5.502645502645503 154.2857142857143,5.714285714285714 154.92063492063494,6.137566137566138 155.55555555555557,6.34920634920635 156.1904761904762,6.772486772486773 156.82539682539684,6.984126984126985 157.46031746031747,7.407407407407408 158.0952380952381,7.6190476190476195 158.73015873015873,7.830687830687832 159.36507936507937,8.253968253968255 160.0,8.465608465608467 160.63492063492066,8.88888888888889 161.2698412698413,9.100529100529101 163.59788359788362,10.15873015873016" style="fill:none; stroke:#cc0000; stroke-width:1.0"  /><polyline points="163.59788359788362,10.15873015873016 164.8677248677249,13.96825396825397 165.0793650793651,14.603174603174605 165.2910052910053,15.238095238095239 165.50264550264552,15.873015873015873 165.71428571428572,16.50793650793651 165.92592592592595,17.142857142857146 166.34920634920636,17.77777777777778 166.34920634920636,18.412698412698415 166.56084656084658,19.047619047619047 166.7724867724868,19.682539682539684 167.19576719576722,20.31746031746032 167.40740740740742,20.952380952380953 167.61904761904762,21.58730158730159 167.61904761904762,22.222222222222225 168.04232804232805,22.857142857142858 168.25396825396825,23.492063492063494 168.46560846560848,24.12698412698413 168.67724867724868,24.761904761904763 168.8888888888889,25.3968253968254 169.10052910052912,26.031746031746035 169.31216931216932,26.666666666666668 169.73544973544975,27.301587301587304 169.94708994708995,27.93650793650794 170.15873015873018,28.571428571428573 170.15873015873018,29.20634920634921 170.37037037037038,29.841269841269842 170.7936507936508,30.476190476190478 171.005291005291,31.111111111111114 171.21693121693124,31.746031746031747 171.42857142857144,32.38095238095239 171.64021164021165,33.01587301587302 172.06349206349208,33.65079365079365 172.27513227513228,34.28571428571429 172.4867724867725,34.920634920634924 172.6984126984127,35.55555555555556 172.9100529100529,36.19047619047619 173.12169312169314,36.82539682539683 173.33333333333334,37.46031746031746 173.54497354497354,38.095238095238095 173.54497354497354,38.730158730158735 173.54497354497354,39.36507936507937 173.54497354497354,40.0 173.33333333333334,40.63492063492064 173.12169312169314,41.26984126984127 173.12169312169314,41.904761904761905 172.6984126984127,42.539682539682545 172.4867724867725,43.17460317460318 172.06349206349208,43.80952380952381 171.64021164021165,44.232804232804234 171.21693121693124,44.65608465608466 170.7936507936508,45.07936507936508 170.15873015873018,45.29100529100529 169.52380952380955,45.714285714285715 168.8888888888889,45.92592592592593 168.25396825396825,46.13756613756614 167.61904761904762,46.13756613756614 166.984126984127,46.13756613756614 166.34920634920636,46.13756613756614 165.71428571428572,46.13756613756614 165.0793650793651,46.13756613756614 164.44444444444446,45.92592592592593 163.80952380952382,45.714285714285715 163.1746031746032,45.50264550264551 162.53968253968256,45.29100529100529 161.90476190476193,44.867724867724874 161.2698412698413,44.65608465608466 160.63492063492066,44.232804232804234 160.0,44.021164021164026 159.36507936507937,43.5978835978836 158.73015873015873,43.17460317460318 158.0952380952381,42.96296296296297 157.46031746031747,42.539682539682545 156.82539682539684,42.11640211640212 156.1904761904762,41.904761904761905 155.55555555555557,41.48148148148149 154.92063492063494,41.26984126984127 154.2857142857143,41.058201058201064 153.65079365079367,40.84656084656085 153.01587301587304,40.63492063492064 152.38095238095238,40.423280423280424 151.74603174603175,40.423280423280424 151.11111111111111,40.423280423280424 150.47619047619048,40.423280423280424 149.84126984126985,40.423280423280424 149.20634920634922,40.423280423280424 148.57142857142858,40.423280423280424 147.93650793650795,40.63492063492064 147.30158730158732,40.63492063492064 146.66666666666669,40.84656084656085 146.03174603174605,41.058201058201064 145.39682539682542,41.26984126984127 144.76190476190476,41.48148148148149 144.12698412698413,41.6931216931217 143.70370370370372,42.11640211640212 143.0687830687831,42.539682539682545 142.43386243386246,42.75132275132275 141.7989417989418,43.17460317460318 141.16402116402116,43.5978835978836 140.52910052910053,43.80952380952381 140.10582010582013,44.232804232804234 139.47089947089947,44.65608465608466 138.83597883597884,45.07936507936508 138.2010582010582,45.50264550264551 137.56613756613757,45.92592592592593 136.93121693121694,46.349206349206355 136.5079365079365,46.77248677248678 136.0846560846561,47.195767195767196 135.66137566137567,47.61904761904762 135.23809523809524,48.042328042328045 134.81481481481484,48.677248677248684 134.3915343915344,49.31216931216932 134.17989417989418,49.94708994708995 133.75661375661377,50.58201058201058 133.33333333333334,51.21693121693122 133.12169312169314,51.851851851851855 133.12169312169314,52.48677248677249 132.9100529100529,53.12169312169313 132.6984126984127,53.75661375661376 132.4867724867725,54.39153439153439 132.4867724867725,55.02645502645503 132.27513227513228,55.661375661375665 132.27513227513228,56.2962962962963 132.06349206349208,56.93121693121694 132.06349206349208,57.56613756613757 132.06349206349208,58.2010582010582 132.06349206349208,58.83597883597884 132.06349206349208,59.470899470899475 132.06349206349208,60.10582010582011 132.06349206349208,60.74074074074075 132.27513227513228,61.37566137566138 132.4867724867725,62.01058201058201 132.4867724867725,62.64550264550265 132.6984126984127,63.280423280423285 132.9100529100529,63.91534391534392 133.12169312169314,64.55026455026456 133.33333333333334,65.18518518518519 133.54497354497354,65.82010582010582 133.96825396825398,66.45502645502646 134.17989417989418,67.08994708994709 134.6031746031746,67.72486772486774 135.02645502645504,68.35978835978837 135.23809523809524,68.994708994709 135.66137566137567,69.62962962962963 136.0846560846561,70.26455026455027 136.5079365079365,70.8994708994709 136.93121693121694,71.53439153439155 137.35449735449737,72.16931216931218 137.7777777777778,72.80423280423281 138.2010582010582,73.43915343915344 138.62433862433863,73.86243386243387 139.04761904761907,74.49735449735451 139.47089947089947,74.92063492063492 139.8941798941799,75.34391534391536 140.31746031746033,75.76719576719577 140.74074074074076,76.19047619047619 141.3756613756614,76.61375661375662 142.01058201058203,77.03703703703704 142.64550264550266,77.46031746031747 143.2804232804233,77.88359788359789 143.91534391534393,77.88359788359789 144.55026455026456,78.30687830687832 145.1851851851852,78.51851851851852 145.82010582010582,78.73015873015873 146.45502645502646,78.73015873015873 147.0899470899471,79.15343915343917 147.72486772486775,79.15343915343917 148.35978835978838,79.36507936507937 148.99470899470901,79.36507936507937 149.62962962962965,79.57671957671958 150.26455026455028,79.36507936507937 150.8994708994709,79.36507936507937 151.53439153439155,79.36507936507937 152.16931216931218,79.36507936507937 152.8042328042328,79.15343915343917 153.43915343915344,79.15343915343917 154.07407407407408,78.94179894179895 154.7089947089947,78.73015873015873 155.34391534391534,78.30687830687832 155.978835978836,78.0952380952381 156.61375661375664,77.67195767195767 157.24867724867727,77.24867724867725 157.8835978835979,77.03703703703704 158.30687830687833,76.61375661375662 158.73015873015873,76.19047619047619 159.36507936507937,75.76719576719577 159.7883597883598,75.34391534391536 160.42328042328043,74.92063492063492 160.84656084656086,74.49735449735451 161.4814814814815,74.07407407407408 161.90476190476193,73.65079365079366 162.53968253968256,73.22751322751323 163.1746031746032,72.80423280423281 163.59788359788362,72.16931216931218 164.23280423280426,71.74603174603175 164.65608465608466,71.32275132275133 165.0793650793651,70.8994708994709 165.71428571428572,70.47619047619048 166.34920634920636,70.05291005291006 166.7724867724868,69.62962962962963 167.40740740740742,69.20634920634922 168.04232804232805,68.78306878306879 168.67724867724868,68.57142857142858 169.10052910052912,68.14814814814815 169.73544973544975,68.35978835978837 170.37037037037038,67.93650793650794 171.005291005291,67.72486772486774 171.64021164021165,67.72486772486774 172.27513227513228,67.72486772486774 172.9100529100529,67.93650793650794 173.54497354497354,68.14814814814815 174.1798941798942,68.35978835978837 174.81481481481484,68.57142857142858 175.44973544973547,68.994708994709 175.87301587301587,69.41798941798942 176.2962962962963,69.84126984126985 176.71957671957674,70.26455026455027 176.93121693121694,70.8994708994709 177.35449735449737,71.53439153439155 177.56613756613757,72.16931216931218 177.56613756613757,72.80423280423281 177.7777777777778,73.43915343915344 177.7777777777778,74.07407407407408 177.7777777777778,74.70899470899471 177.56613756613757,75.34391534391536 177.56613756613757,75.97883597883599 177.35449735449737,76.61375661375662 177.35449735449737,77.24867724867725 177.14285714285717,77.88359788359789 176.93121693121694,78.51851851851852 176.71957671957674,79.15343915343917 176.50793650793653,79.7883597883598 176.2962962962963,80.42328042328043 176.0846560846561,81.05820105820106 175.87301587301587,81.6931216931217 175.66137566137567,82.32804232804233 175.66137566137567,82.96296296296298 175.44973544973547,83.59788359788361 175.23809523809524,84.23280423280424 175.02645502645504,84.86772486772487 174.81481481481484,85.5026455026455 174.6031746031746,86.13756613756614 174.3915343915344,86.77248677248677 174.3915343915344,87.40740740740742 174.1798941798942,88.04232804232805 173.96825396825398,88.67724867724868 173.96825396825398,89.31216931216932 173.75661375661377,89.94708994708995 173.54497354497354,90.58201058201058 173.54497354497354,91.21693121693123 173.33333333333334,91.85185185185186 173.12169312169314,92.4867724867725 173.12169312169314,93.12169312169313 172.9100529100529,93.75661375661376 172.6984126984127,94.39153439153439 172.6984126984127,95.02645502645504 172.4867724867725,95.66137566137567 172.4867724867725,96.2962962962963 172.27513227513228,96.93121693121694 172.27513227513228,97.56613756613757 172.06349206349208,98.2010582010582 172.06349206349208,98.83597883597885 171.85185185185188,99.47089947089948 171.64021164021165,100.10582010582011 171.64021164021165,100.74074074074075 171.42857142857144,101.37566137566138 171.42857142857144,102.01058201058201 171.21693121693124,102.64550264550266 171.21693121693124,103.28042328042329 171.005291005291,103.91534391534393 171.005291005291,104.55026455026456 171.005291005291,105.18518518518519 170.58201058201058,107.93650793650795" style="fill:none; stroke:#999900; stroke-width:1.0"  /><polyline points="170.58201058201058,107.93650793650795 167.40740740740742,107.72486772486774 166.7724867724868,107.51322751322752 166.13756613756615,107.3015873015873 165.50264550264552,107.3015873015873 164.8677248677249,107.0899470899471 164.23280423280426,107.0899470899471 163.59788359788362,106.87830687830689 162.96296296296296,106.87830687830689 162.32804232804233,106.87830687830689 161.6931216931217,107.0899470899471 161.05820105820106,107.0899470899471 160.42328042328043,107.0899470899471 159.7883597883598,107.0899470899471 159.15343915343917,107.0899470899471 158.51851851851853,107.3015873015873 157.8835978835979,107.3015873015873 157.24867724867727,107.3015873015873 156.61375661375664,107.51322751322752 155.978835978836,107.72486772486774 155.34391534391534,107.72486772486774 154.7089947089947,107.93650793650795 154.07407407407408,108.14814814814815 153.43915343915344,108.35978835978837 152.8042328042328,108.35978835978837 152.16931216931218,108.57142857142858 151.53439153439155,108.78306878306879 150.8994708994709,109.20634920634922 150.26455026455028,109.20634920634922 149.62962962962965,109.62962962962963 148.99470899470901,109.84126984126985 148.35978835978838,110.05291005291006 147.72486772486775,110.26455026455027 147.30158730158732,110.6878306878307 146.66666666666669,110.89947089947091 146.03174603174605,111.32275132275133 145.39682539682542,111.53439153439155 144.973544973545,111.95767195767196 144.33862433862436,112.16931216931218 143.91534391534393,112.5925925925926 143.4920634920635,113.01587301587303 142.85714285714286,113.43915343915344 142.22222222222223,113.86243386243387 141.5873015873016,113.86243386243387 141.16402116402116,114.28571428571429 140.52910052910053,114.49735449735451 140.10582010582013,114.92063492063492 139.47089947089947,115.13227513227514 139.04761904761907,115.55555555555557 138.41269841269843,115.97883597883599 137.7777777777778,116.1904761904762 137.14285714285717,116.61375661375662 136.5079365079365,116.82539682539684 135.87301587301587,117.24867724867725 135.23809523809524,117.46031746031747 134.6031746031746,117.88359788359789 133.96825396825398,118.0952380952381 133.33333333333334,118.30687830687832 132.6984126984127,118.73015873015873 132.06349206349208,118.94179894179895 131.42857142857144,119.15343915343917 130.7936507936508,119.36507936507937 130.15873015873018,119.57671957671958 129.52380952380955,119.7883597883598 128.88888888888889,120.21164021164022 128.25396825396825,120.42328042328043 127.61904761904763,120.42328042328043 126.98412698412699,120.63492063492065 126.34920634920636,120.84656084656086 125.71428571428572,121.05820105820106 125.07936507936509,121.26984126984128 124.44444444444446,121.26984126984128 123.80952380952382,121.4814814814815 123.17460317460318,121.6931216931217 122.53968253968254,121.6931216931217 121.90476190476191,121.90476190476191 121.26984126984128,121.90476190476191 120.63492063492065,122.11640211640213 120.00000000000001,122.11640211640213 119.36507936507937,122.11640211640213 118.73015873015873,122.32804232804234 118.0952380952381,122.32804232804234 117.46031746031747,122.32804232804234 116.82539682539684,122.32804232804234 116.1904761904762,122.32804232804234 115.55555555555557,122.32804232804234 114.92063492063492,122.32804232804234 114.28571428571429,122.32804232804234 113.65079365079366,122.11640211640213 113.01587301587303,121.90476190476191 112.3809523809524,121.6931216931217 111.74603174603176,121.4814814814815 111.32275132275133,121.05820105820106 110.89947089947091,120.63492063492065 110.47619047619048,120.21164021164022 110.05291005291006,119.57671957671958 110.05291005291006,118.94179894179895 109.62962962962963,118.51851851851853 109.41798941798943,117.88359788359789 109.41798941798943,117.24867724867725 109.20634920634922,116.61375661375662 109.20634920634922,115.97883597883599 109.20634920634922,115.34391534391536 109.20634920634922,114.70899470899472 109.20634920634922,114.07407407407408 109.41798941798943,113.43915343915344 109.41798941798943,112.80423280423281 109.41798941798943,112.16931216931218 109.62962962962963,111.53439153439155 109.62962962962963,110.89947089947091 109.84126984126985,110.26455026455027 109.84126984126985,109.62962962962963 110.05291005291006,108.994708994709 110.05291005291006,108.35978835978837 110.26455026455027,107.72486772486774 110.47619047619048,107.0899470899471 110.47619047619048,106.45502645502647 110.6878306878307,105.82010582010582 110.6878306878307,105.18518518518519 110.89947089947091,104.55026455026456 111.11111111111111,103.91534391534393 111.11111111111111,103.28042328042329 111.32275132275133,102.64550264550266 111.53439153439155,102.01058201058201 111.53439153439155,101.37566137566138 111.74603174603176,100.74074074074075 111.74603174603176,100.10582010582011 111.95767195767196,99.47089947089948 111.95767195767196,98.83597883597885 111.95767195767196,98.2010582010582 111.95767195767196,97.56613756613757 111.95767195767196,96.93121693121694 111.95767195767196,96.2962962962963 111.95767195767196,95.66137566137567 111.95767195767196,95.02645502645504 111.95767195767196,94.39153439153439 111.74603174603176,93.75661375661376 111.74603174603176,93.12169312169313 111.53439153439155,92.4867724867725 111.32275132275133,91.85185185185186 111.32275132275133,91.21693121693123 111.11111111111111,90.58201058201058 110.89947089947091,89.94708994708995 110.6878306878307,89.31216931216932 110.26455026455027,88.67724867724868 110.05291005291006,88.04232804232805 109.62962962962963,87.40740740740742 108.994708994709,86.98412698412699 108.57142857142858,86.56084656084657 108.14814814814815,86.13756613756614 107.72486772486774,85.71428571428572 107.3015873015873,85.29100529100529 106.87830687830689,84.86772486772487 106.24338624338625,84.44444444444446 105.60846560846562,84.02116402116403 104.97354497354497,83.80952380952381 104.55026455026456,83.3862433862434 103.91534391534393,83.17460317460318 103.28042328042329,82.96296296296298 102.64550264550266,82.75132275132276 102.01058201058201,82.53968253968254 101.37566137566138,82.32804232804233 100.74074074074075,82.32804232804233 100.10582010582011,82.11640211640213 99.47089947089948,82.11640211640213 98.83597883597885,82.11640211640213 98.2010582010582,81.90476190476191 97.56613756613757,81.90476190476191 96.93121693121694,81.90476190476191 96.2962962962963,81.90476190476191 95.66137566137567,81.90476190476191 95.02645502645504,82.11640211640213 94.39153439153439,82.11640211640213 93.75661375661376,82.11640211640213 93.12169312169313,82.32804232804233 92.4867724867725,82.32804232804233 91.85185185185186,82.53968253968254 91.21693121693123,82.53968253968254 90.58201058201058,82.75132275132276 89.94708994708995,82.96296296296298 89.31216931216932,83.17460317460318 88.67724867724868,83.17460317460318 88.04232804232805,83.3862433862434 87.40740740740742,83.59788359788361 86.77248677248677,83.80952380952381 86.13756613756614,84.02116402116403 85.5026455026455,84.23280423280424 84.86772486772487,84.65608465608466 84.23280423280424,84.86772486772487 83.59788359788361,85.07936507936509 82.96296296296298,85.29100529100529 82.32804232804233,85.71428571428572 81.6931216931217,85.92592592592594 81.26984126984128,86.34920634920636 80.63492063492065,86.56084656084657 80.21164021164022,86.98412698412699 79.57671957671958,87.40740740740742 79.15343915343917,87.83068783068784 78.51851851851852,88.25396825396827 78.0952380952381,88.67724867724868 77.67195767195767,89.1005291005291 77.24867724867725,89.52380952380953 76.82539682539684,89.94708994708995 76.4021164021164,90.37037037037038 75.97883597883599,91.00529100529101 75.55555555555556,91.42857142857143 75.34391534391536,92.06349206349208 74.92063492063492,92.4867724867725 74.70899470899471,93.12169312169313 74.28571428571429,93.75661375661376 74.07407407407408,94.39153439153439 73.86243386243387,95.02645502645504 73.65079365079366,95.66137566137567 73.22751322751323,96.2962962962963 73.01587301587303,96.93121693121694 73.01587301587303,97.56613756613757 72.80423280423281,98.2010582010582 72.5925925925926,98.83597883597885 72.5925925925926,99.47089947089948 72.5925925925926,100.10582010582011 72.5925925925926,100.74074074074075 72.5925925925926,101.37566137566138 72.80423280423281,102.01058201058201 72.80423280423281,102.64550264550266 73.01587301587303,103.28042328042329 73.22751322751323,103.91534391534393 73.43915343915344,104.55026455026456 73.43915343915344,105.18518518518519 73.65079365079366,105.82010582010582 74.07407407407408,106.45502645502647 74.28571428571429,107.0899470899471 74.49735449735451,107.72486772486774 74.70899470899471,108.35978835978837 74.92063492063492,108.994708994709 75.13227513227514,109.62962962962963 75.55555555555556,110.05291005291006 75.76719576719577,110.6878306878307 76.19047619047619,111.11111111111111 76.4021164021164,111.74603174603176 76.82539682539684,112.16931216931218 77.24867724867725,112.80423280423281 77.67195767195767,113.43915343915344 78.0952380952381,113.86243386243387 78.51851851851852,114.49735449735451 78.94179894179895,114.92063492063492 79.36507936507937,115.34391534391536 79.7883597883598,115.76719576719577 80.21164021164022,116.1904761904762 80.63492063492065,116.82539682539684 81.26984126984128,117.24867724867725 81.6931216931217,117.67195767195768 82.11640211640213,118.0952380952381 82.53968253968254,118.51851851851853 82.96296296296298,118.94179894179895 83.3862433862434,119.36507936507937 83.80952380952381,119.7883597883598 84.23280423280424,120.21164021164022 84.65608465608466,120.63492063492065 85.07936507936509,121.05820105820106 85.5026455026455,121.4814814814815 85.92592592592594,121.90476190476191 86.34920634920636,122.32804232804234 86.77248677248677,122.75132275132276 87.40740740740742,123.17460317460318 87.83068783068784,123.59788359788361 88.25396825396827,124.02116402116403 88.67724867724868,124.44444444444446 89.1005291005291,124.86772486772487 89.52380952380953,125.5026455026455 89.94708994708995,126.13756613756615 90.37037037037038,126.56084656084657 90.7936507936508,127.1957671957672 91.21693121693123,127.83068783068784 91.64021164021165,128.46560846560848 91.85185185185186,129.10052910052912 92.27513227513228,129.52380952380955 92.4867724867725,130.15873015873018 92.91005291005291,130.7936507936508 93.12169312169313,131.42857142857144 93.33333333333334,132.06349206349208 93.75661375661376,132.6984126984127 93.96825396825398,133.33333333333334 94.17989417989419,133.96825396825398 94.39153439153439,134.6031746031746 94.39153439153439,135.23809523809524 94.60317460317461,135.87301587301587 94.81481481481482,136.5079365079365 95.02645502645504,137.14285714285717 95.02645502645504,137.7777777777778 95.02645502645504,138.41269841269843 95.02645502645504,139.04761904761907 95.02645502645504,139.6825396825397 94.81481481481482,140.31746031746033 94.60317460317461,140.95238095238096 94.17989417989419,141.5873015873016 93.75661375661376,142.01058201058203 93.33333333333334,142.43386243386246 92.91005291005291,142.85714285714286 92.27513227513228,143.2804232804233 91.64021164021165,143.70370370370372 91.00529100529101,143.91534391534393 90.37037037037038,144.12698412698413 89.73544973544975,144.33862433862436 89.1005291005291,144.33862433862436 88.46560846560847,144.55026455026456 87.83068783068784,144.55026455026456 87.1957671957672,144.76190476190476 86.56084656084657,144.76190476190476 85.92592592592594,144.76190476190476 85.29100529100529,144.973544973545 84.65608465608466,144.973544973545 84.02116402116403,144.973544973545 83.3862433862434,144.973544973545 82.75132275132276,144.973544973545 82.11640211640213,144.973544973545 81.48148148148148,145.1851851851852 80.84656084656085,145.1851851851852 80.21164021164022,145.1851851851852 79.57671957671958,145.1851851851852 78.94179894179895,145.1851851851852 78.30687830687832,144.973544973545 77.67195767195767,144.973544973545 77.03703703703704,144.973544973545 76.4021164021164,144.76190476190476 75.76719576719577,144.76190476190476 75.13227513227514,144.55026455026456 74.49735449735451,144.55026455026456 73.86243386243387,144.76190476190476 73.22751322751323,144.55026455026456 72.5925925925926,144.33862433862436 71.95767195767196,144.33862433862436 71.32275132275133,144.33862433862436 70.6878306878307,144.12698412698413 70.05291005291006,143.91534391534393 69.41798941798942,143.91534391534393 68.78306878306879,143.70370370370372 68.14814814814815,143.70370370370372 67.51322751322752,143.70370370370372 66.87830687830689,143.4920634920635 66.24338624338625,143.2804232804233 65.60846560846561,143.2804232804233 64.97354497354497,143.0687830687831 64.33862433862434,143.0687830687831 63.70370370370371,142.85714285714286 63.06878306878308,142.85714285714286 62.43386243386244,142.85714285714286 61.798941798941804,142.64550264550266 61.16402116402117,142.64550264550266 60.52910052910053,142.64550264550266 59.8941798941799,142.43386243386246 59.25925925925927,142.43386243386246 58.62433862433863,142.22222222222223 57.989417989417994,142.22222222222223 57.35449735449736,142.01058201058203 56.71957671957672,142.01058201058203 56.08465608465609,141.7989417989418 55.449735449735456,141.7989417989418 54.81481481481482,141.7989417989418 54.179894179894184,141.5873015873016 53.54497354497355,141.5873015873016 52.91005291005291,141.5873015873016 52.27513227513228,141.3756613756614 51.640211640211646,141.3756613756614 51.00529100529101,141.3756613756614 50.370370370370374,141.16402116402116 49.73544973544974,141.16402116402116 49.1005291005291,141.16402116402116 48.46560846560847,140.95238095238096 47.830687830687836,140.95238095238096 47.195767195767196,140.95238095238096 46.560846560846564,140.74074074074076 45.92592592592593,140.74074074074076 45.29100529100529,140.74074074074076 44.65608465608466,140.74074074074076 44.021164021164026,140.52910052910053 43.386243386243386,140.52910052910053 42.75132275132275,140.52910052910053 42.11640211640212,140.52910052910053 41.48148148148149,140.31746031746033 40.84656084656085,140.31746031746033 40.211640211640216,140.31746031746033 39.57671957671958,140.31746031746033 38.94179894179894,140.31746031746033 38.30687830687831,140.31746031746033 37.67195767195768,140.31746031746033 37.03703703703704,140.31746031746033 36.402116402116405,140.31746031746033 35.76719576719577,140.31746031746033 35.13227513227513,140.31746031746033 34.4973544973545,140.31746031746033 33.86243386243387,140.31746031746033 33.22751322751323,140.31746031746033 32.592592592592595,140.31746031746033 31.95767195767196,140.31746031746033 31.322751322751326,140.31746031746033 30.68783068783069,140.31746031746033 30.052910052910054,140.31746031746033 26.455026455026456,140.31746031746033" style="fill:none; stroke:#00aa99; stroke-width:1.0"  /><polyline points="26.455026455026456,140.31746031746033 27.301587301587304,136.93121693121694 27.301587301587304,136.2962962962963 27.513227513227516,135.66137566137567 27.724867724867728,135.02645502645504 27.93650793650794,134.3915343915344 27.93650793650794,133.75661375661377 28.14814814814815,133.12169312169314 28.35978835978836,132.4867724867725 28.35978835978836,131.85185185185185 28.571428571428573,131.21693121693121 28.783068783068785,130.58201058201058 28.783068783068785,129.94708994708995 28.994708994708997,129.31216931216932 29.20634920634921,128.67724867724868 29.41798941798942,128.04232804232805 29.41798941798942,127.40740740740742 29.629629629629633,126.77248677248679 29.841269841269842,126.13756613756615 30.052910052910054,125.5026455026455 30.052910052910054,124.86772486772487 30.264550264550266,124.23280423280424 30.476190476190478,123.59788359788361 30.68783068783069,122.96296296296298 30.68783068783069,122.32804232804234 30.899470899470902,121.6931216931217 31.111111111111114,121.05820105820106 31.111111111111114,120.42328042328043 31.322751322751326,119.7883597883598 31.53439153439154,119.15343915343917 31.746031746031747,118.51851851851853 31.95767195767196,117.88359788359789 32.16931216931217,117.24867724867725 32.38095238095239,116.61375661375662 32.592592592592595,115.97883597883599 32.804232804232804,115.34391534391536 33.01587301587302,114.70899470899472 33.22751322751323,114.07407407407408 33.43915343915344,113.43915343915344 33.65079365079365,112.80423280423281 33.86243386243387,112.16931216931218 34.074074074074076,111.53439153439155 34.28571428571429,110.89947089947091 34.4973544973545,110.26455026455027 34.70899470899471,109.62962962962963 35.13227513227513,108.994708994709 35.34391534391535,108.35978835978837 35.55555555555556,107.72486772486774 35.76719576719577,107.0899470899471 35.97883597883598,106.45502645502647 36.19047619047619,105.82010582010582 36.402116402116405,105.18518518518519 36.613756613756614,104.55026455026456 36.82539682539683,103.91534391534393 37.03703703703704,103.28042328042329 37.46031746031746,102.64550264550266 37.67195767195768,102.01058201058201 37.883597883597886,101.37566137566138 37.883597883597886,100.74074074074075 38.095238095238095,100.10582010582011 38.30687830687831,99.47089947089948 38.51851851851852,98.83597883597885 38.730158730158735,98.2010582010582 38.94179894179894,97.56613756613757 39.15343915343916,96.93121693121694 39.36507936507937,96.2962962962963 39.57671957671958,95.66137566137567 39.78835978835979,95.02645502645504 40.0,94.39153439153439 40.211640211640216,93.75661375661376 40.423280423280424,93.12169312169313 40.63492063492064,92.4867724867725 40.84656084656085,91.85185185185186 40.84656084656085,91.21693121693123 41.058201058201064,90.58201058201058 41.26984126984127,89.94708994708995 41.26984126984127,89.31216931216932 41.26984126984127,88.67724867724868 41.48148148148149,88.04232804232805 41.058201058201064,87.40740740740742 41.058201058201064,86.77248677248677 40.84656084656085,86.13756613756614 40.84656084656085,85.5026455026455 40.63492063492064,84.86772486772487 40.211640211640216,84.23280423280424 40.0,83.59788359788361 39.57671957671958,82.96296296296298 39.15343915343916,82.53968253968254 38.730158730158735,82.11640211640213 38.30687830687831,81.6931216931217 37.67195767195768,81.26984126984128 37.03703703703704,81.05820105820106 36.402116402116405,80.84656084656085 35.76719576719577,80.63492063492065 35.13227513227513,80.42328042328043 34.4973544973545,80.42328042328043 33.86243386243387,80.42328042328043 33.22751322751323,80.42328042328043 32.592592592592595,80.42328042328043 31.95767195767196,80.63492063492065 31.322751322751326,80.63492063492065 30.68783068783069,80.84656084656085 30.052910052910054,81.26984126984128 29.41798941798942,81.48148148148148 28.994708994708997,81.90476190476191 28.35978835978836,82.11640211640213 27.93650793650794,82.53968253968254 27.513227513227516,82.96296296296298 26.87830687830688,83.3862433862434 26.243386243386244,83.80952380952381 25.60846560846561,84.23280423280424 24.973544973544975,84.44444444444446 24.55026455026455,84.86772486772487 23.915343915343918,85.07936507936509 23.280423280423282,85.29100529100529 22.645502645502646,85.5026455026455 22.010582010582013,85.71428571428572 21.375661375661377,85.92592592592594 20.740740740740744,86.13756613756614 20.105820105820108,86.13756613756614 19.47089947089947,86.13756613756614 18.83597883597884,86.34920634920636 18.201058201058203,86.13756613756614 17.566137566137566,86.13756613756614 16.931216931216934,86.13756613756614 16.296296296296298,85.92592592592594 15.661375661375663,85.92592592592594 15.026455026455027,85.92592592592594 14.391534391534393,85.71428571428572 13.756613756613758,85.5026455026455 13.121693121693122,85.29100529100529 12.486772486772487,85.07936507936509 11.851851851851853,84.86772486772487 11.216931216931219,84.65608465608466 10.793650793650794,84.23280423280424 10.15873015873016,83.80952380952381 9.523809523809524,83.3862433862434 8.88888888888889,82.96296296296298 8.465608465608467,82.53968253968254 7.830687830687832,82.11640211640213 7.407407407407408,81.6931216931217 6.984126984126985,81.26984126984128 6.560846560846561,80.84656084656085 6.137566137566138,80.42328042328043 5.714285714285714,80.0 5.291005291005291,79.36507936507937 4.656084656084657,78.94179894179895 4.444444444444445,78.30687830687832 4.021164021164021,77.88359788359789 3.597883597883598,77.46031746031747 3.174603174603175,76.82539682539684 2.7513227513227516,76.19047619047619 2.53968253968254,75.55555555555556 2.1164021164021167,75.13227513227514 1.9047619047619049,74.49735449735451 1.6931216931216932,73.86243386243387 1.4814814814814816,73.22751322751323 1.26984126984127,72.5925925925926 1.0582010582010584,71.95767195767196 0.8465608465608466,71.32275132275133 0.634920634920635,70.6878306878307 0.4232804232804233,70.05291005291006 0.4232804232804233,69.41798941798942 0.4232804232804233,68.78306878306879 0.21164021164021166,68.14814814814815 0.21164021164021166,67.51322751322752 0.21164021164021166,66.87830687830689 0.21164021164021166,66.24338624338625 0.21164021164021166,65.60846560846561 0.21164021164021166,64.97354497354497 0.21164021164021166,64.33862433862434 0.4232804232804233,63.70370370370371 0.4232804232804233,63.06878306878308 0.4232804232804233,62.43386243386244 0.4232804232804233,61.798941798941804 0.4232804232804233,61.16402116402117 0.634920634920635,60.52910052910053 0.8465608465608466,59.8941798941799 0.8465608465608466,59.25925925925927 1.0582010582010584,58.62433862433863 1.26984126984127,57.989417989417994 1.4814814814814816,57.35449735449736 1.9047619047619049,56.71957671957672 2.3280423280423284,56.08465608465609 2.7513227513227516,55.661375661375665 3.174603174603175,55.23809523809524 3.8095238095238098,54.81481481481482 4.2328042328042335,54.39153439153439 4.867724867724868,54.179894179894184 5.502645502645503,53.968253968253975 6.137566137566138,53.75661375661376 6.772486772486773,53.54497354497355 7.407407407407408,53.333333333333336 8.042328042328043,53.333333333333336 8.677248677248677,53.54497354497355 9.312169312169313,53.54497354497355 9.947089947089948,53.54497354497355 10.582010582010582,53.54497354497355 11.216931216931219,53.75661375661376 11.851851851851853,53.75661375661376 12.486772486772487,54.179894179894184 13.121693121693122,54.39153439153439 13.756613756613758,54.81481481481482 14.391534391534393,55.23809523809524 14.814814814814817,55.661375661375665 15.449735449735451,55.87301587301588 16.084656084656086,56.2962962962963 16.71957671957672,56.71957671957672 17.354497354497354,57.142857142857146 17.98941798941799,57.35449735449736 18.624338624338627,57.56613756613757 19.25925925925926,57.777777777777786 19.894179894179896,58.2010582010582 20.529100529100532,58.2010582010582 21.164021164021165,58.41269841269842 21.7989417989418,58.62433862433863 22.433862433862437,58.62433862433863 23.06878306878307,58.83597883597884 23.703703703703706,59.04761904761905 24.338624338624342,59.04761904761905 24.973544973544975,59.04761904761905 25.60846560846561,59.25925925925927 26.243386243386244,59.25925925925927 26.87830687830688,59.25925925925927 27.513227513227516,59.25925925925927 28.14814814814815,59.25925925925927 28.783068783068785,59.25925925925927 29.41798941798942,59.25925925925927 30.052910052910054,59.04761904761905 30.68783068783069,59.04761904761905 31.322751322751326,59.04761904761905 31.95767195767196,58.83597883597884 32.592592592592595,58.83597883597884 33.22751322751323,58.62433862433863 33.86243386243387,58.41269841269842 34.4973544973545,58.2010582010582 35.13227513227513,57.777777777777786 35.76719576719577,57.35449735449736 36.19047619047619,56.93121693121694 36.613756613756614,56.50793650793651 37.248677248677254,56.08465608465609 37.67195767195768,55.449735449735456 38.095238095238095,55.02645502645503 38.51851851851852,54.39153439153439 38.94179894179894,53.75661375661376 39.15343915343916,53.12169312169313 39.36507936507937,52.48677248677249 39.57671957671958,51.851851851851855 39.78835978835979,51.21693121693122 40.0,50.58201058201058 40.211640211640216,49.94708994708995 40.211640211640216,49.31216931216932 40.423280423280424,48.677248677248684 40.423280423280424,48.042328042328045 40.423280423280424,47.40740740740741 40.63492063492064,46.77248677248678 40.423280423280424,46.13756613756614 40.423280423280424,45.50264550264551 40.423280423280424,44.867724867724874 40.211640211640216,44.232804232804234 40.0,43.5978835978836 39.78835978835979,42.96296296296297 39.57671957671958,42.32804232804233 39.36507936507937,41.6931216931217 38.94179894179894,41.058201058201064 38.51851851851852,40.423280423280424 38.095238095238095,39.78835978835979 37.67195767195768,39.15343915343916 37.46031746031746,38.51851851851852 37.03703703703704,37.883597883597886 36.613756613756614,37.248677248677254 36.19047619047619,36.613756613756614 35.76719576719577,35.97883597883598 35.55555555555556,35.34391534391535 35.13227513227513,34.70899470899471 34.920634920634924,34.074074074074076 34.4973544973545,33.65079365079365 34.28571428571429,33.01587301587302 34.074074074074076,32.38095238095239 33.65079365079365,31.95767195767196 33.43915343915344,31.322751322751326 33.01587301587302,30.68783068783069 32.804232804232804,30.052910052910054 32.592592592592595,29.41798941798942 32.38095238095239,28.783068783068785 31.95767195767196,28.14814814814815 31.746031746031747,27.513227513227516 31.53439153439154,26.87830687830688 31.322751322751326,26.243386243386244 31.111111111111114,25.60846560846561 30.68783068783069,24.973544973544975 30.476190476190478,24.338624338624342 30.264550264550266,23.703703703703706 30.052910052910054,23.06878306878307 29.841269841269842,22.433862433862437 29.629629629629633,21.7989417989418 29.41798941798942,21.164021164021165 29.20634920634921,20.529100529100532 28.994708994708997,19.894179894179896 28.783068783068785,19.25925925925926 28.571428571428573,18.624338624338627 28.35978835978836,17.98941798941799 27.93650793650794,17.354497354497354 27.724867724867728,16.71957671957672 27.724867724867728,16.084656084656086 27.513227513227516,15.449735449735451 27.301587301587304,14.814814814814817 27.089947089947092,14.17989417989418 27.089947089947092,13.544973544973546 26.87830687830688,12.910052910052912 26.666666666666668,12.275132275132275 26.455026455026456,11.640211640211641 26.455026455026456,11.005291005291006 26.243386243386244,10.370370370370372 26.031746031746035,9.735449735449736 26.031746031746035,9.100529100529101 25.185185185185187,4.867724867724868" style="fill:none; stroke:#3300bb; stroke-width:1.0"  /><circle cx="25.185185185185187" cy="4.867724867724868" r="2.0" style="fill:none; stroke:#000000aa; stroke-width:0.25" /><circle cx="163.59788359788362" cy="10.15873015873016" r="2.0" style="fill:none; stroke:#000000aa; stroke-width:0.25" /><circle cx="170.58201058201058" cy="107.93650793650795" r="2.0" style="fill:none; stroke:#000000aa; stroke-width:0.25" /><circle cx="26.455026455026456" cy="140.31746031746033" r="2.0" style="fill:none; stroke:#000000aa; stroke-width:0.25" /><circle cx="25.185185185185187" cy="5.714285714285714" r="2.0" style="fill:none; stroke:#ff3366aa; stroke-width:0.25" /><circle cx="163.80952380952382" cy="10.793650793650794" r="2.0" style="fill:none; stroke:#ff3366aa; stroke-width:0.25" /><circle cx="170.58201058201058" cy="108.14814814814815" r="2.0" style="fill:none; stroke:#ff3366aa; stroke-width:0.25" /><circle cx="27.089947089947092" cy="140.10582010582013" r="2.0" style="fill:none; stroke:#ff3366aa; stroke-width:0.25" /><polyline points="37.03703703703704,3.8095238095238098 36.402116402116405,4.021164021164021 35.76719576719577,4.021164021164021 35.13227513227513,4.021164021164021 34.4973544973545,4.021164021164021 33.86243386243387,4.2328042328042335 33.22751322751323,4.2328042328042335 32.592592592592595,4.444444444444445 31.95767195767196,4.444444444444445 31.322751322751326,4.444444444444445 30.68783068783069,4.444444444444445 30.052910052910054,4.444444444444445 29.41798941798942,4.656084656084657 28.783068783068785,4.656084656084657 28.14814814814815,4.656084656084657" style="fill:none; stroke:#001100; stroke-width:1.0" /><polyline points="27.93650793650794,17.354497354497354 27.724867724867728,16.71957671957672 27.724867724867728,16.084656084656086 27.513227513227516,15.449735449735451 27.301587301587304,14.814814814814817 27.089947089947092,14.17989417989418 27.089947089947092,13.544973544973546 26.87830687830688,12.910052910052912 26.666666666666668,12.275132275132275 26.455026455026456,11.640211640211641 26.455026455026456,11.005291005291006 26.243386243386244,10.370370370370372 26.031746031746035,9.735449735449736 26.031746031746035,9.100529100529101" style="fill:none; stroke:#000011; stroke-width:1.0" /><polyline points="167.61904761904762,22.222222222222225 167.61904761904762,21.58730158730159 167.40740740740742,20.952380952380953 167.19576719576722,20.31746031746032 166.7724867724868,19.682539682539684 166.56084656084658,19.047619047619047 166.34920634920636,18.412698412698415 166.34920634920636,17.77777777777778 165.92592592592595,17.142857142857146 165.71428571428572,16.50793650793651 165.50264550264552,15.873015873015873 165.2910052910053,15.238095238095239 165.0793650793651,14.603174603174605 164.8677248677249,13.96825396825397" style="fill:none; stroke:#001100; stroke-width:1.0" /><polyline points="153.65079365079367,5.502645502645503 154.2857142857143,5.714285714285714 154.92063492063494,6.137566137566138 155.55555555555557,6.34920634920635 156.1904761904762,6.772486772486773 156.82539682539684,6.984126984126985 157.46031746031747,7.407407407407408 158.0952380952381,7.6190476190476195 158.73015873015873,7.830687830687832 159.36507936507937,8.253968253968255 160.0,8.465608465608467 160.63492063492066,8.88888888888889 161.2698412698413,9.100529100529101" style="fill:none; stroke:#000011; stroke-width:1.0" /><polyline points="159.15343915343917,107.0899470899471 159.7883597883598,107.0899470899471 160.42328042328043,107.0899470899471 161.05820105820106,107.0899470899471 161.6931216931217,107.0899470899471 162.32804232804233,106.87830687830689 162.96296296296296,106.87830687830689 163.59788359788362,106.87830687830689 164.23280423280426,107.0899470899471 164.8677248677249,107.0899470899471 165.50264550264552,107.3015873015873 166.13756613756615,107.3015873015873 166.7724867724868,107.51322751322752 167.40740740740742,107.72486772486774" style="fill:none; stroke:#001100; stroke-width:1.0" /><polyline points="172.4867724867725,96.2962962962963 172.27513227513228,96.93121693121694 172.27513227513228,97.56613756613757 172.06349206349208,98.2010582010582 172.06349206349208,98.83597883597885 171.85185185185188,99.47089947089948 171.64021164021165,100.10582010582011 171.64021164021165,100.74074074074075 171.42857142857144,101.37566137566138 171.42857142857144,102.01058201058201 171.21693121693124,102.64550264550266 171.21693121693124,103.28042328042329 171.005291005291,103.91534391534393 171.005291005291,104.55026455026456 171.005291005291,105.18518518518519" style="fill:none; stroke:#000011; stroke-width:1.0" /><polyline points="29.20634920634921,128.67724867724868 28.994708994708997,129.31216931216932 28.783068783068785,129.94708994708995 28.783068783068785,130.58201058201058 28.571428571428573,131.21693121693121 28.35978835978836,131.85185185185185 28.35978835978836,132.4867724867725 28.14814814814815,133.12169312169314 27.93650793650794,133.75661375661377 27.93650793650794,134.3915343915344 27.724867724867728,135.02645502645504 27.513227513227516,135.66137566137567 27.301587301587304,136.2962962962963 27.301587301587304,136.93121693121694" style="fill:none; stroke:#001100; stroke-width:1.0" /><polyline points="38.94179894179894,140.31746031746033 38.30687830687831,140.31746031746033 37.67195767195768,140.31746031746033 37.03703703703704,140.31746031746033 36.402116402116405,140.31746031746033 35.76719576719577,140.31746031746033 35.13227513227513,140.31746031746033 34.4973544973545,140.31746031746033 33.86243386243387,140.31746031746033 33.22751322751323,140.31746031746033 32.592592592592595,140.31746031746033 31.95767195767196,140.31746031746033 31.322751322751326,140.31746031746033 30.68783068783069,140.31746031746033 30.052910052910054,140.31746031746033" style="fill:none; stroke:#000011; stroke-width:1.0" /><polyline points="28.14814814814815,4.656084656084657 6.984126984126985,6.560846560846561" style="fill:none; stroke:#ffaa00; stroke-width:0.4" /><polyline points="26.031746031746035,9.100529100529101 21.375661375661377,-11.428571428571429" style="fill:none; stroke:#aaff00; stroke-width:0.4" /><polyline points="164.8677248677249,13.96825396825397 158.0952380952381,-6.137566137566138" style="fill:none; stroke:#ffaa00; stroke-width:0.4" /><polyline points="161.2698412698413,9.100529100529101 180.31746031746033,18.201058201058203" style="fill:none; stroke:#aaff00; stroke-width:0.4" /><polyline points="167.40740740740742,107.72486772486774 188.57142857142858,109.41798941798943" style="fill:none; stroke:#ffaa00; stroke-width:0.4" /><polyline points="171.005291005291,105.18518518518519 167.61904761904762,126.13756613756615" style="fill:none; stroke:#aaff00; stroke-width:0.4" /><polyline points="27.301587301587304,136.93121693121694 22.645502645502646,157.46031746031747" style="fill:none; stroke:#ffaa00; stroke-width:0.4" /><polyline points="30.052910052910054,140.31746031746033 8.88888888888889,140.31746031746033" style="fill:none; stroke:#aaff00; stroke-width:0.4" /><circle cx="88.46560846560847" cy="66.45502645502646" r="1.0" style="fill:#444444; stroke-width:0" /><circle cx="76.19047619047619" cy="50.7936507936508" r="10.582010582010582" style="fill:#ff770022; stroke-width:0" /><circle cx="76.19047619047619" cy="50.7936507936508" r="1.0" style="fill:#ff7700; stroke-width:0" /></svg>