<?xml version="1.0" encoding="UTF-8" standalone="no"?><svg width="604.4444444444445" height="559.3650793650794" viewBox="-10 -10 221.4814814814815 206.45502645502646" xmlns="http://www.w3.org/2000/svg" xmlns:xlink="http://www.w3.org/1999/xlink"><polyline points="111.11111111111111,0.21164021164021166 114.49735449735451,1.6931216931216932 115.13227513227514,1.9047619047619049 115.76719576719577,2.3280423280423284 116.4021164021164,2.53968253968254 117.03703703703705,2.9629629629629632 117.67195767195768,3.174603174603175 118.30687830687832,3.3862433862433865 118.94179894179895,3.8095238095238098 119.57671957671958,4.021164021164021 120.21164021164022,4.2328042328042335 120.84656084656086,4.444444444444445 121.4814814814815,4.656084656084657 122.11640211640213,4.867724867724868 122.75132275132276,5.07936507936508 123.3862433862434,5.502645502645503 124.02116402116403,5.714285714285714 124.65608465608466,5.9259259259259265 125.2910052910053,6.137566137566138 125.92592592592594,6.34920634920635 126.56084656084657,6.560846560846561 127.1957671957672,6.772486772486773 127.83068783068784,6.984126984126985 128.46560846560848,7.195767195767196 129.10052910052912,7.407407407407408 129.73544973544975,7.6190476190476195 130.37037037037038,7.6190476190476195 131.005291005291,7.830687830687832 131.64021164021165,8.042328042328043 132.27513227513228,8.253968253968255 132.9100529100529,8.465608465608467 133.54497354497354,8.677248677248677 134.17989417989418,8.88888888888889 134.81481481481484,8.88888888888889 135.44973544973547,9.100529100529101 136.0846560846561,9.312169312169313 136.71957671957674,9.523809523809524 137.35449735449737,9.735449735449736 137.989417989418,10.15873015873016 138.62433862433863,10.582010582010582 139.25925925925927,11.005291005291006 139.6825396825397,11.428571428571429 140.10582010582013,11.851851851851853 140.52910052910053,12.275132275132275 140.95238095238096,12.910052910052912 141.16402116402116,13.544973544973546 141.5873015873016,14.17989417989418 141.5873015873016,14.814814814814817 141.7989417989418,15.449735449735451 141.7989417989418,16.084656084656086 142.01058201058203,16.71957671957672 142.22222222222223,17.354497354497354 142.22222222222223,17.98941798941799 142.01058201058203,18.624338624338627 141.7989417989418,19.25925925925926 141.7989417989418,19.894179894179896 141.5873015873016,20.529100529100532 141.3756613756614,21.164021164021165 140.95238095238096,21.7989417989418 140.74074074074076,22.433862433862437 140.31746031746033,23.06878306878307 139.8941798941799,23.492063492063494 139.47089947089947,24.12698412698413 139.04761904761907,24.55026455026455 138.62433862433863,24.973544973544975 138.2010582010582,25.3968253968254 137.7777777777778,25.820105820105823 137.35449735449737,26.243386243386244 136.71957671957674,26.455026455026456 136.2962962962963,26.87830687830688 135.66137566137567,27.301587301587304 135.02645502645504,27.724867724867728 134.3915343915344,28.14814814814815 133.75661375661377,28.571428571428573 133.12169312169314,28.994708994708997 132.6984126984127,29.41798941798942 132.06349206349208,29.841269841269842 131.64021164021165,30.264550264550266 131.21693121693121,30.68783068783069 130.7936507936508,31.322751322751326 130.37037037037038,31.746031746031747 129.94708994708995,32.38095238095239 129.52380952380955,33.01587301587302 129.10052910052912,33.65079365079365 128.88888888888889,34.28571428571429 128.46560846560848,34.920634920634924 128.04232804232805,35.55555555555556 127.61904761904763,36.19047619047619 127.40740740740742,36.82539682539683 127.1957671957672,37.46031746031746 126.77248677248679,38.095238095238095 126.56084656084657,38.730158730158735 126.34920634920636,39.36507936507937 126.34920634920636,40.0 126.13756613756615,40.63492063492064 126.13756613756615,41.26984126984127 126.13756613756615,41.904761904761905 126.13756613756615,42.539682539682545 126.13756613756615,43.17460317460318 126.34920634920636,43.80952380952381 126.34920634920636,44.44444444444445 126.56084656084657,45.07936507936508 126.56084656084657,45.714285714285715 126.77248677248679,46.349206349206355 126.98412698412699,46.98412698412699 127.1957671957672,47.61904761904762 127.61904761904763,48.25396825396826 127.83068783068784,48.88888888888889 128.25396825396825,49.523809523809526 128.46560846560848,50.158730158730165 128.88888888888889,50.58201058201058 129.31216931216932,51.21693121693122 129.73544973544975,51.851851851851855 130.15873015873018,52.27513227513228 130.58201058201058,52.6984126984127 131.005291005291,53.12169312169313 131.42857142857144,53.75661375661376 131.85185185185185,54.179894179894184 132.4867724867725,54.60317460317461 132.9100529100529,55.02645502645503 133.33333333333334,55.449735449735456 133.96825396825398,55.87301587301588 134.3915343915344,56.2962962962963 135.02645502645504,56.71957671957672 135.66137566137567,56.93121693121694 136.2962962962963,57.35449735449736 136.93121693121694,57.56613756613757 137.56613756613757,57.777777777777786 138.2010582010582,57.989417989417994 138.83597883597884,58.2010582010582 139.47089947089947,58.41269841269842 140.10582010582013,58.62433862433863 140.74074074074076,58.62433862433863 141.3756613756614,58.83597883597884 142.01058201058203,59.04761904761905 142.64550264550266,58.83597883597884 143.2804232804233,58.83597883597884 143.91534391534393,58.83597883597884 144.55026455026456,58.83597883597884 145.1851851851852,58.83597883597884 145.82010582010582,58.83597883597884 146.45502645502646,58.83597883597884 147.0899470899471,58.62433862433863 147.72486772486775,58.41269841269842 148.35978835978838,58.41269841269842 148.99470899470901,57.989417989417994 149.62962962962965,57.777777777777786 150.26455026455028,57.56613756613757 150.6878306878307,57.142857142857146 151.32275132275134,56.71957671957672 151.74603174603175,56.2962962962963 152.38095238095238,55.87301587301588 152.8042328042328,55.23809523809524 153.22751322751324,54.81481481481482 153.65079365079367,54.39153439153439 154.07407407407408,53.75661375661376 154.4973544973545,53.333333333333336 154.92063492063494,52.6984126984127 155.34391534391534,52.27513227513228 155.55555555555557,51.640211640211646 155.978835978836,51.00529100529101 156.4021164021164,50.370370370370374 156.82539682539684,49.73544973544974 157.03703703703704,49.1005291005291 157.46031746031747,48.46560846560847 157.67195767195767,47.830687830687836 158.0952380952381,47.195767195767196 158.30687830687833,46.560846560846564 158.51851851851853,45.92592592592593 158.73015873015873,45.29100529100529 158.94179894179896,44.65608465608466 159.15343915343917,44.021164021164026 159.15343915343917,43.386243386243386 159.5767195767196,42.75132275132275 159.5767195767196,42.11640211640212 159.7883597883598,41.48148148148149 160.21164021164023,40.84656084656085 160.42328042328043,40.211640211640216 160.63492063492066,39.57671957671958 161.05820105820106,38.94179894179894 161.2698412698413,38.30687830687831 161.6931216931217,37.883597883597886 162.11640211640213,37.248677248677254 162.53968253968256,36.82539682539683 162.96296296296296,36.402116402116405 163.59788359788362,35.97883597883598 164.23280423280426,35.55555555555556 164.8677248677249,35.13227513227513 165.50264550264552,34.920634920634924 166.13756613756615,34.4973544973545 166.7724867724868,34.28571428571429 167.40740740740742,34.28571428571429 168.04232804232805,34.074074074074076 168.67724867724868,34.074074074074076 169.31216931216932,34.074074074074076 169.94708994708995,34.074074074074076 170.58201058201058,34.074074074074076 171.21693121693124,34.28571428571429 171.85185185185188,34.28571428571429 172.4867724867725,34.4973544973545 173.12169312169314,34.70899470899471 173.75661375661377,35.13227513227513 174.3915343915344,35.34391534391535 175.02645502645504,35.76719576719577 175.66137566137567,36.19047619047619 176.0846560846561,36.613756613756614 176.71957671957674,37.03703703703704 177.14285714285717,37.46031746031746 177.7777777777778,37.883597883597886 178.2010582010582,38.30687830687831 178.62433862433863,38.730158730158735 179.04761904761907,39.15343915343916 179.4708994708995,39.57671957671958 179.8941798941799,40.0 180.31746031746033,40.423280423280424 180.74074074074076,40.84656084656085 181.16402116402116,41.26984126984127 181.5873015873016,41.6931216931217 182.01058201058203,42.11640211640212 182.43386243386246,42.539682539682545 182.85714285714286,42.96296296296297 183.2804232804233,43.386243386243386 183.70370370370372,43.80952380952381 184.12698412698415,44.232804232804234 184.55026455026456,44.65608465608466 184.973544973545,45.07936507936508 185.39682539682542,45.50264550264551 185.82010582010582,45.92592592592593 186.24338624338625,46.349206349206355 186.8783068783069,46.77248677248678 187.30158730158732,47.195767195767196 187.72486772486775,47.61904761904762 188.35978835978838,48.042328042328045 188.78306878306879,48.46560846560847 189.20634920634922,48.88888888888889 189.62962962962965,49.31216931216932 190.26455026455028,49.73544973544974 190.6878306878307,50.158730158730165 191.11111111111111,50.58201058201058 191.53439153439155,51.00529100529101 192.16931216931218,51.42857142857143 192.5925925925926,51.851851851851855 193.22751322751324,52.27513227513228 193.86243386243387,52.6984126984127 194.2857142857143,53.12169312169313 194.70899470899474,53.54497354497355 195.34391534391537,53.968253968253975 195.76719576719577,54.39153439153439 196.1904761904762,54.81481481481482 196.82539682539684,55.23809523809524 197.24867724867727,55.661375661375665 197.8835978835979,56.08465608465609 198.51851851851853,56.50793650793651 200.84656084656086,58.41269841269842" style="fill:none; stroke:#cc0000; stroke-width:1.0"  /><polyline points="200.84656084656086,58.41269841269842 199.5767195767196,61.798941798941804 199.36507936507937,62.43386243386244 198.94179894179896,63.06878306878308 198.73015873015873,63.70370370370371 198.51851851851853,64.33862433862434 198.30687830687833,64.97354497354497 198.0952380952381,65.60846560846561 197.8835978835979,66.24338624338625 197.46031746031747,66.87830687830689 197.24867724867727,67.51322751322752 197.24867724867727,68.14814814814815 197.03703703703704,68.78306878306879 196.61375661375664,69.41798941798942 196.61375661375664,70.05291005291006 196.4021164021164,70.6878306878307 196.1904761904762,71.32275132275133 195.978835978836,71.95767195767196 195.76719576719577,72.5925925925926 195.55555555555557,73.22751322751323 195.34391534391537,73.86243386243387 195.13227513227514,74.49735449735451 194.92063492063494,75.13227513227514 194.92063492063494,75.76719576719577 194.70899470899474,76.4021164021164 194.4973544973545,77.03703703703704 194.4973544973545,77.67195767195767 194.2857142857143,78.30687830687832 194.07407407407408,78.94179894179895 194.07407407407408,79.57671957671958 193.86243386243387,80.21164021164022 193.86243386243387,80.84656084656085 193.65079365079367,81.48148148148148 193.65079365079367,82.11640211640213 193.65079365079367,82.75132275132276 193.43915343915344,83.3862433862434 193.43915343915344,84.02116402116403 193.22751322751324,84.65608465608466 193.01587301587304,85.29100529100529 193.01587301587304,85.92592592592594 192.8042328042328,86.56084656084657 192.5925925925926,87.1957671957672 192.5925925925926,87.83068783068784 192.3809523809524,88.46560846560847 191.95767195767198,88.8888888888889 191.74603174603175,89.52380952380953 191.53439153439155,90.15873015873017 191.32275132275134,90.7936507936508 190.8994708994709,91.42857142857143 190.6878306878307,92.06349206349208 190.47619047619048,92.69841269841271 190.26455026455028,93.33333333333334 190.05291005291008,93.96825396825398 189.84126984126985,94.60317460317461 189.41798941798945,95.23809523809524 189.20634920634922,95.87301587301587 188.99470899470901,96.50793650793652 188.57142857142858,97.14285714285715 188.35978835978838,97.77777777777779 188.14814814814815,98.41269841269842 187.93650793650795,99.04761904761905 187.72486772486775,99.68253968253968 187.51322751322752,100.31746031746033 187.08994708994712,100.95238095238096 186.8783068783069,101.5873015873016 186.66666666666669,102.22222222222223 186.24338624338625,102.85714285714286 186.03174603174605,103.4920634920635 185.82010582010582,104.12698412698414 185.39682539682542,104.76190476190477 184.973544973545,105.3968253968254 184.7619047619048,106.03174603174604 184.33862433862436,106.66666666666667 184.12698412698415,107.3015873015873 183.70370370370372,107.93650793650795 183.4920634920635,108.57142857142858 183.0687830687831,108.994708994709 182.64550264550266,109.62962962962963 182.22222222222223,110.26455026455027 181.79894179894183,110.89947089947091 181.3756613756614,111.53439153439155 180.95238095238096,112.16931216931218 180.52910052910053,112.5925925925926 179.8941798941799,113.01587301587303 179.25925925925927,113.43915343915344 178.62433862433863,113.65079365079366 177.989417989418,113.86243386243387 177.35449735449737,114.07407407407408 176.71957671957674,114.28571428571429 176.0846560846561,114.07407407407408 175.44973544973547,114.07407407407408 174.81481481481484,113.65079365079366 174.1798941798942,113.43915343915344 173.75661375661377,113.01587301587303 173.33333333333334,112.5925925925926 172.9100529100529,112.16931216931218 172.4867724867725,111.53439153439155 172.06349206349208,110.89947089947091 171.85185185185188,110.26455026455027 171.64021164021165,109.62962962962963 171.42857142857144,108.994708994709 171.21693121693124,108.35978835978837 171.005291005291,107.72486772486774 170.58201058201058,107.0899470899471 170.37037037037038,106.45502645502647 170.15873015873018,105.82010582010582 169.94708994708995,105.18518518518519 169.73544973544975,104.55026455026456 169.73544973544975,103.91534391534393 169.31216931216932,103.28042328042329 169.10052910052912,102.64550264550266 169.10052910052912,102.01058201058201 168.67724867724868,101.37566137566138 168.46560846560848,100.74074074074075 168.25396825396825,100.10582010582011 168.04232804232805,99.47089947089948 167.83068783068785,98.83597883597885 167.61904761904762,98.2010582010582 167.40740740740742,97.56613756613757 167.19576719576722,96.93121693121694 166.984126984127,96.2962962962963 166.56084656084658,95.66137566137567 166.34920634920636,95.02645502645504 166.13756613756615,94.39153439153439 165.71428571428572,93.96825396825398 165.50264550264552,93.33333333333334 165.0793650793651,92.91005291005291 164.65608465608466,92.27513227513228 164.23280423280426,91.85185185185186 163.80952380952382,91.21693121693123 163.3862433862434,90.7936507936508 162.96296296296296,90.37037037037038 162.53968253968256,89.94708994708995 162.11640211640213,89.52380952380953 161.6931216931217,89.1005291005291 161.2698412698413,88.67724867724868 160.63492063492066,88.25396825396827 160.0,87.83068783068784 159.36507936507937,87.40740740740742 158.73015873015873,87.1957671957672 158.0952380952381,86.98412698412699 157.46031746031747,86.77248677248677 156.82539682539684,86.56084656084657 156.1904761904762,86.34920634920636 155.55555555555557,86.34920634920636 154.92063492063494,86.13756613756614 154.2857142857143,86.13756613756614 153.65079365079367,86.13756613756614 153.01587301587304,86.13756613756614 152.38095238095238,86.13756613756614 151.74603174603175,86.13756613756614 151.11111111111111,86.13756613756614 150.47619047619048,86.13756613756614 149.84126984126985,86.13756613756614 149.20634920634922,86.13756613756614 148.57142857142858,86.34920634920636 147.93650793650795,86.34920634920636 147.30158730158732,86.56084656084657 146.66666666666669,86.77248677248677 146.03174603174605,87.1957671957672 145.39682539682542,87.40740740740742 144.76190476190476,87.40740740740742 144.12698412698413,87.83068783068784 143.4920634920635,88.04232804232805 142.85714285714286,88.46560846560847 142.43386243386246,88.8888888888889 141.7989417989418,89.1005291005291 141.16402116402116,89.52380952380953 140.52910052910053,89.73544973544975 139.8941798941799,90.15873015873017 139.25925925925927,90.58201058201058 138.62433862433863,91.00529100529101 137.989417989418,91.42857142857143 137.35449735449737,91.85185185185186 136.71957671957674,92.27513227513228 136.2962962962963,92.69841269841271 135.66137566137567,93.12169312169313 135.23809523809524,93.54497354497356 134.81481481481484,93.96825396825398 134.3915343915344,94.39153439153439 133.75661375661377,94.81481481481482 133.33333333333334,95.23809523809524 132.9100529100529,95.66137566137567 132.4867724867725,96.08465608465609 132.06349206349208,96.50793650793652 131.64021164021165,96.93121693121694 131.21693121693121,97.56613756613757 130.7936507936508,97.989417989418 130.37037037037038,98.62433862433863 129.94708994708995,99.04761904761905 129.52380952380955,99.47089947089948 129.10052910052912,100.10582010582011 128.67724867724868,100.74074074074075 128.25396825396825,101.37566137566138 127.83068783068784,102.01058201058201 127.40740740740742,102.64550264550266 127.1957671957672,103.28042328042329 126.77248677248679,103.91534391534393 126.34920634920636,104.33862433862434 126.13756613756615,104.97354497354497 125.92592592592594,105.60846560846562 125.5026455026455,106.24338624338625 125.2910052910053,106.87830687830689 125.07936507936509,107.51322751322752 124.65608465608466,108.14814814814815 124.44444444444446,108.78306878306879 124.23280423280424,109.41798941798943 124.02116402116403,110.05291005291006 123.80952380952382,110.6878306878307 123.59788359788361,111.32275132275133 123.3862433862434,111.95767195767196 123.3862433862434,112.5925925925926 123.3862433862434,113.22751322751324 123.17460317460318,113.86243386243387 123.3862433862434,114.49735449735451 123.3862433862434,115.13227513227514 123.59788359788361,115.76719576719577 123.80952380952382,116.4021164021164 124.23280423280424,117.03703703703705 124.65608465608466,117.67195767195768 125.07936507936509,118.30687830687832 125.5026455026455,118.94179894179895 125.92592592592594,119.36507936507937 126.34920634920636,119.7883597883598 126.77248677248679,120.21164021164022 127.1957671957672,120.63492063492065 127.61904761904763,121.05820105820106 128.04232804232805,121.4814814814815 128.67724867724868,121.90476190476191 129.31216931216932,122.32804232804234 129.94708994708995,122.75132275132276 130.58201058201058,123.17460317460318 131.21693121693121,123.59788359788361 131.85185185185185,123.80952380952382 132.4867724867725,124.23280423280424 133.12169312169314,124.44444444444446 133.75661375661377,124.86772486772487 134.3915343915344,125.07936507936509 135.02645502645504,125.5026455026455 135.66137566137567,125.71428571428572 136.2962962962963,125.92592592592594 136.93121693121694,126.13756613756615 137.56613756613757,126.56084656084657 138.2010582010582,126.77248677248679 138.83597883597884,127.1957671957672 139.47089947089947,127.40740740740742 139.8941798941799,127.83068783068784 140.31746031746033,128.25396825396825 140.74074074074076,128.67724867724868 141.16402116402116,129.31216931216932 141.3756613756614,129.94708994708995 141.5873015873016,130.58201058201058 141.7989417989418,131.21693121693121 141.7989417989418,131.85185185185185 141.5873015873016,132.4867724867725 141.5873015873016,133.12169312169314 141.16402116402116,133.75661375661377 140.74074074074076,134.17989417989418 140.31746031746033,134.6031746031746 140.10582010582013,135.23809523809524 139.6825396825397,135.66137566137567 139.25925925925927,136.0846560846561 138.83597883597884,136.5079365079365 138.41269841269843,136.93121693121694 137.7777777777778,137.35449735449737 137.35449735449737,137.7777777777778 136.93121693121694,138.2010582010582 136.2962962962963,138.62433862433863 135.87301587301587,139.04761904761907 135.44973544973547,139.47089947089947 134.81481481481484,139.8941798941799 134.3915343915344,140.31746031746033 133.75661375661377,140.74074074074076 133.12169312169314,141.16402116402116 132.6984126984127,141.5873015873016 132.27513227513228,142.01058201058203 131.85185185185185,142.43386243386246 131.21693121693121,142.85714285714286 130.7936507936508,143.2804232804233 130.15873015873018,143.70370370370372 129.73544973544975,144.12698412698413 129.31216931216932,144.55026455026456 128.67724867724868,144.973544973545 128.25396825396825,145.39682539682542 127.61904761904763,145.82010582010582 127.1957671957672,146.24338624338625 126.77248677248679,146.66666666666669 126.13756613756615,147.0899470899471 125.71428571428572,147.51322751322752 125.07936507936509,147.93650793650795 124.65608465608466,148.35978835978838 124.23280423280424,148.78306878306879 123.59788359788361,149.20634920634922 123.17460317460318,149.62962962962965 122.75132275132276,150.05291005291005 122.11640211640213,150.47619047619048 121.6931216931217,150.8994708994709 121.05820105820106,151.32275132275134 120.63492063492065,151.74603174603175 120.21164021164022,152.16931216931218 119.7883597883598,152.5925925925926 119.15343915343917,153.01587301587304 118.73015873015873,153.43915343915344 118.0952380952381,153.86243386243387 117.67195767195768,154.2857142857143 117.24867724867725,154.7089947089947 116.61375661375662,155.13227513227514 115.97883597883599,155.55555555555557 115.34391534391536,155.978835978836 114.92063492063492,156.4021164021164 114.28571428571429,156.82539682539684 113.86243386243387,157.46031746031747 113.22751322751324,157.8835978835979 112.80423280423281,158.30687830687833 112.16931216931218,158.73015873015873 111.74603174603176,159.15343915343917 111.32275132275133,159.5767195767196 110.89947089947091,160.0 110.26455026455027,160.42328042328043 109.84126984126985,160.84656084656086 109.20634920634922,161.2698412698413 108.78306878306879,161.6931216931217 108.14814814814815,162.11640211640213 107.72486772486774,162.53968253968256 107.3015873015873,163.1746031746032 106.87830687830689,163.59788359788362 106.24338624338625,164.02116402116403 105.82010582010582,164.44444444444446 105.3968253968254,164.8677248677249 104.76190476190477,165.2910052910053 104.33862433862434,165.71428571428572 103.91534391534393,166.13756613756615 103.28042328042329,166.56084656084658 102.85714285714286,166.984126984127 102.43386243386244,167.40740740740742 102.01058201058201,167.83068783068785 101.37566137566138,168.25396825396825 100.95238095238096,168.67724867724868 100.52910052910053,169.10052910052912 100.10582010582011,169.52380952380955 99.68253968253968,169.94708994708995 99.04761904761905,170.37037037037038 98.62433862433863,170.7936507936508 98.2010582010582,171.21693121693124 97.77777777777779,171.64021164021165 97.35449735449737,172.06349206349208 96.93121693121694,172.4867724867725 96.50793650793652,172.9100529100529 96.08465608465609,173.54497354497354 95.66137566137567,173.96825396825398 95.23809523809524,174.3915343915344 94.81481481481482,174.81481481481484 94.39153439153439,175.23809523809524 93.96825396825398,175.66137566137567 93.54497354497356,176.0846560846561 93.12169312169313,176.71957671957674 92.69841269841271,177.14285714285717 92.27513227513228,177.56613756613757 91.85185185185186,177.989417989418 91.42857142857143,178.41269841269843 91.00529100529101,179.04761904761907 90.58201058201058,179.4708994708995 90.15873015873017,179.8941798941799 89.73544973544975,180.52910052910053 89.31216931216932,180.95238095238096 88.8888888888889,181.5873015873016 88.46560846560847,182.22222222222223 88.04232804232805,182.85714285714286 87.61904761904762,183.4920634920635 85.5026455026455,186.24338624338625" style="fill:none; stroke:#999900; stroke-width:1.0"  /><polyline points="85.5026455026455,186.24338624338625 82.96296296296298,183.70370370370372 82.53968253968254,183.2804232804233 82.11640211640213,182.85714285714286 81.6931216931217,182.22222222222223 81.26984126984128,181.79894179894183 80.84656084656085,181.3756613756614 80.42328042328043,180.95238095238096 80.0,180.52910052910053 79.57671957671958,180.10582010582013 79.15343915343917,179.6825396825397 78.73015873015873,179.25925925925927 78.30687830687832,178.83597883597884 77.88359788359789,178.41269841269843 77.46031746031747,177.989417989418 77.03703703703704,177.56613756613757 76.61375661375662,177.14285714285717 76.19047619047619,176.71957671957674 75.76719576719577,176.2962962962963 75.34391534391536,175.87301587301587 74.92063492063492,175.44973544973547 74.49735449735451,175.02645502645504 73.86243386243387,174.6031746031746 73.43915343915344,174.1798941798942 73.01587301587303,173.75661375661377 72.38095238095238,173.54497354497354 71.95767195767196,173.12169312169314 71.32275132275133,172.6984126984127 70.8994708994709,172.27513227513228 70.26455026455027,171.85185185185188 69.84126984126985,171.42857142857144 69.20634920634922,171.005291005291 68.78306878306879,170.58201058201058 68.35978835978837,170.15873015873018 67.72486772486774,169.73544973544975 67.3015873015873,169.31216931216932 66.87830687830689,168.8888888888889 66.45502645502646,168.46560846560848 65.82010582010582,168.04232804232805 65.3968253968254,167.61904761904762 64.97354497354497,166.984126984127 64.55026455026456,166.56084656084658 64.12698412698413,165.92592592592595 63.91534391534392,165.2910052910053 63.492063492063494,164.65608465608466 63.280423280423285,164.02116402116403 63.492063492063494,163.3862433862434 63.280423280423285,162.75132275132276 63.280423280423285,162.11640211640213 63.492063492063494,161.4814814814815 63.70370370370371,160.84656084656086 63.91534391534392,160.21164021164023 64.33862433862434,159.5767195767196 64.76190476190477,158.94179894179896 65.18518518518519,158.30687830687833 65.60846560846561,157.8835978835979 66.03174603174604,157.46031746031747 66.45502645502646,157.03703703703704 67.08994708994709,156.82539682539684 67.72486772486774,156.61375661375664 68.35978835978837,156.4021164021164 68.994708994709,156.1904761904762 69.62962962962963,156.1904761904762 70.26455026455027,155.978835978836 70.8994708994709,155.76719576719577 71.53439153439155,155.76719576719577 72.16931216931218,155.55555555555557 72.80423280423281,155.13227513227514 73.43915343915344,154.92063492063494 74.07407407407408,154.7089947089947 74.70899470899471,154.2857142857143 75.34391534391536,153.86243386243387 75.97883597883599,153.43915343915344 76.61375661375662,153.01587301587304 77.24867724867725,152.5925925925926 77.67195767195767,152.16931216931218 78.0952380952381,151.74603174603175 78.51851851851852,151.11111111111111 78.94179894179895,150.6878306878307 79.36507936507937,150.05291005291005 79.57671957671958,149.41798941798942 79.7883597883598,148.78306878306879 80.0,148.14814814814815 80.0,147.51322751322752 80.0,146.8783068783069 80.0,146.24338624338625 79.7883597883598,145.60846560846562 79.57671957671958,144.973544973545 79.36507936507937,144.33862433862436 78.94179894179895,143.70370370370372 78.51851851851852,143.0687830687831 78.30687830687832,142.43386243386246 77.88359788359789,142.01058201058203 77.46031746031747,141.3756613756614 77.03703703703704,140.74074074074076 76.61375661375662,140.31746031746033 76.19047619047619,139.6825396825397 75.76719576719577,139.04761904761907 75.34391534391536,138.62433862433863 74.92063492063492,137.989417989418 74.49735449735451,137.56613756613757 74.07407407407408,136.93121693121694 73.65079365079366,136.5079365079365 73.22751322751323,136.0846560846561 72.80423280423281,135.44973544973547 72.16931216931218,135.02645502645504 71.74603174603175,134.6031746031746 71.32275132275133,134.17989417989418 70.8994708994709,133.75661375661377 70.47619047619048,133.12169312169314 70.05291005291006,132.6984126984127 69.62962962962963,132.27513227513228 68.994708994709,131.85185185185185 68.57142857142858,131.42857142857144 68.14814814814815,131.005291005291 67.72486772486774,130.58201058201058 67.3015873015873,130.15873015873018 66.87830687830689,129.73544973544975 66.45502645502646,129.31216931216932 65.82010582010582,128.88888888888889 65.3968253968254,128.46560846560848 64.97354497354497,128.04232804232805 64.55026455026456,127.61904761904763 64.12698412698413,127.1957671957672 63.492063492063494,126.77248677248679 62.85714285714286,126.56084656084657 62.43386243386244,126.13756613756615 62.01058201058201,125.71428571428572 61.37566137566138,125.2910052910053 60.952380952380956,124.86772486772487 60.31746031746032,124.44444444444446 59.682539682539684,124.02116402116403 59.04761904761905,123.59788359788361 58.41269841269842,123.17460317460318 57.777777777777786,122.75132275132276 57.142857142857146,122.32804232804234 56.50793650793651,122.32804232804234 56.08465608465609,121.90476190476191 55.449735449735456,121.6931216931217 54.81481481481482,121.26984126984128 54.179894179894184,120.84656084656086 53.54497354497355,120.63492063492065 52.91005291005291,120.21164021164022 52.27513227513228,120.00000000000001 51.640211640211646,119.57671957671958 51.00529100529101,119.15343915343917 50.370370370370374,118.94179894179895 49.73544973544974,118.51851851851853 49.1005291005291,118.30687830687832 48.46560846560847,117.88359788359789 47.830687830687836,117.67195767195768 47.195767195767196,117.24867724867725 46.560846560846564,117.03703703703705 45.92592592592593,116.61375661375662 45.29100529100529,116.4021164021164 44.65608465608466,116.1904761904762 44.021164021164026,115.76719576719577 43.386243386243386,115.55555555555557 42.75132275132275,115.34391534391536 42.11640211640212,115.13227513227514 41.48148148148149,114.70899470899472 40.84656084656085,114.49735449735451 40.211640211640216,114.28571428571429 39.57671957671958,114.07407407407408 38.94179894179894,113.65079365079366 38.30687830687831,113.43915343915344 37.67195767195768,113.43915343915344 37.03703703703704,113.43915343915344 36.402116402116405,113.22751322751324 35.76719576719577,113.22751322751324 35.13227513227513,113.01587301587303 34.4973544973545,113.01587301587303 33.86243386243387,112.80423280423281 33.22751322751323,113.01587301587303 32.592592592592595,113.01587301587303 31.95767195767196,113.22751322751324 31.322751322751326,113.43915343915344 30.68783068783069,113.86243386243387 30.052910052910054,114.28571428571429 29.629629629629633,114.70899470899472 29.20634920634921,115.13227513227514 28.571428571428573,115.55555555555557 28.35978835978836,116.1904761904762 28.14814814814815,116.82539682539684 27.724867724867728,117.46031746031747 27.724867724867728,118.0952380952381 27.513227513227516,118.73015873015873 27.301587301587304,119.36507936507937 27.301587301587304,120.00000000000001 27.089947089947092,120.63492063492065 27.089947089947092,121.26984126984128 26.87830687830688,121.90476190476191 27.089947089947092,122.53968253968254 27.301587301587304,123.17460317460318 27.301587301587304,123.80952380952382 27.513227513227516,124.44444444444446 27.724867724867728,125.07936507936509 27.93650793650794,125.71428571428572 28.14814814814815,126.34920634920636 28.571428571428573,126.77248677248679 28.783068783068785,127.40740740740742 29.20634920634921,128.04232804232805 29.41798941798942,128.67724867724868 29.629629629629633,129.31216931216932 29.841269841269842,129.94708994708995 30.052910052910054,130.58201058201058 30.052910052910054,131.21693121693121 30.264550264550266,131.85185185185185 30.264550264550266,132.4867724867725 30.264550264550266,133.12169312169314 30.264550264550266,133.75661375661377 30.264550264550266,134.3915343915344 30.264550264550266,135.02645502645504 30.052910052910054,135.66137566137567 29.841269841269842,136.2962962962963 29.629629629629633,136.93121693121694 29.20634920634921,137.56613756613757 28.783068783068785,138.2010582010582 28.35978835978836,138.62433862433863 27.724867724867728,139.04761904761907 27.089947089947092,139.47089947089947 26.455026455026456,139.6825396825397 25.820105820105823,139.8941798941799 25.185185185185187,139.8941798941799 24.55026455026455,139.8941798941799 23.915343915343918,139.8941798941799 23.280423280423282,139.6825396825397 22.645502645502646,139.25925925925927 22.010582010582013,139.04761904761907 21.375661375661377,138.83597883597884 20.740740740740744,138.41269841269843 20.105820105820108,137.989417989418 19.47089947089947,137.56613756613757 18.83597883597884,137.35449735449737 18.412698412698415,136.93121693121694 17.77777777777778,136.5079365079365 17.354497354497354,136.0846560846561 16.71957671957672,135.66137566137567 16.084656084656086,135.23809523809524 15.661375661375663,134.81481481481484 15.238095238095239,134.3915343915344 14.603174603174605,133.96825396825398 14.17989417989418,133.54497354497354 13.756613756613758,133.12169312169314 13.121693121693122,132.6984126984127 12.6984126984127,132.27513227513228 12.275132275132275,131.85185185185185 11.851851851851853,131.42857142857144 11.428571428571429,131.005291005291 10.793650793650794,130.58201058201058 10.370370370370372,129.94708994708995 9.947089947089948,129.52380952380955 9.523809523809524,129.10052910052912 9.100529100529101,128.46560846560848 8.677248677248677,128.04232804232805 8.253968253968255,127.61904761904763 7.830687830687832,126.98412698412699 7.407407407407408,126.34920634920636 6.984126984126985,125.92592592592594 6.560846560846561,125.5026455026455 6.137566137566138,124.86772486772487 5.714285714285714,124.44444444444446 5.291005291005291,123.80952380952382 4.867724867724868,123.3862433862434 4.444444444444445,122.75132275132276 4.021164021164021,122.32804232804234 3.3862433862433865,121.90476190476191 2.9629629629629632,121.4814814814815 2.53968253968254,121.05820105820106 0.21164021164021166,118.51851851851853" style="fill:none; stroke:#00aa99; stroke-width:1.0"  /><polyline points="0.21164021164021166,118.51851851851853 2.1164021164021167,115.76719576719577 2.53968253968254,115.13227513227514 2.7513227513227516,114.49735449735451 3.174603174603175,114.07407407407408 3.3862433862433865,113.43915343915344 3.8095238095238098,113.01587301587303 4.2328042328042335,112.3809523809524 4.656084656084657,111.95767195767196 5.07936507936508,111.32275132275133 5.291005291005291,110.6878306878307 5.714285714285714,110.26455026455027 6.137566137566138,109.62962962962963 6.560846560846561,108.994708994709 6.984126984126985,108.35978835978837 7.407407407407408,107.72486772486774 7.830687830687832,107.0899470899471 8.253968253968255,106.45502645502647 8.677248677248677,105.82010582010582 9.100529100529101,105.18518518518519 9.523809523809524,104.76190476190477 9.947089947089948,104.33862433862434 10.15873015873016,103.70370370370371 10.582010582010582,103.28042328042329 11.005291005291006,102.85714285714286 11.428571428571429,102.43386243386244 11.851851851851853,101.79894179894181 12.275132275132275,101.37566137566138 12.6984126984127,100.74074074074075 12.910052910052912,100.10582010582011 13.333333333333334,99.68253968253968 13.756613756613758,99.25925925925927 14.17989417989418,98.83597883597885 14.603174603174605,98.2010582010582 15.026455026455027,97.77777777777779 15.449735449735451,97.14285714285715 15.873015873015873,96.50793650793652 16.296296296296298,96.08465608465609 16.71957671957672,95.44973544973546 17.142857142857146,95.02645502645504 17.566137566137566,94.60317460317461 17.98941798941799,93.96825396825398 18.412698412698415,93.54497354497356 18.83597883597884,93.12169312169313 19.25925925925926,92.4867724867725 19.682539682539684,92.06349206349208 20.31746031746032,91.64021164021165 20.740740740740744,91.21693121693123 21.164021164021165,90.58201058201058 21.58730158730159,90.15873015873017 22.010582010582013,89.73544973544975 22.433862433862437,89.31216931216932 22.857142857142858,88.8888888888889 23.280423280423282,88.46560846560847 23.703703703703706,88.04232804232805 24.12698412698413,87.61904761904762 24.55026455026455,86.98412698412699 24.973544973544975,86.56084656084657 25.3968253968254,86.13756613756614 25.820105820105823,85.71428571428572 26.243386243386244,85.29100529100529 26.666666666666668,84.86772486772487 27.089947089947092,84.44444444444446 27.513227513227516,84.02116402116403 27.93650793650794,83.59788359788361 28.571428571428573,83.17460317460318 28.994708994708997,82.75132275132276 29.41798941798942,82.32804232804233 29.841269841269842,81.90476190476191 30.264550264550266,81.48148148148148 30.899470899470902,81.05820105820106 31.322751322751326,80.63492063492065 31.746031746031747,80.21164021164022 32.16931216931217,79.7883597883598 32.592592592592595,79.36507936507937 33.22751322751323,78.94179894179895 33.65079365079365,78.51851851851852 34.074074074074076,78.0952380952381 34.70899470899471,77.67195767195767 35.13227513227513,77.24867724867725 35.55555555555556,76.82539682539684 36.19047619047619,76.61375661375662 36.613756613756614,76.19047619047619 37.03703703703704,75.76719576719577 37.46031746031746,75.34391534391536 37.883597883597886,74.92063492063492 38.51851851851852,74.49735449735451 38.94179894179894,74.07407407407408 39.57671957671958,73.86243386243387 40.0,73.43915343915344 40.63492063492064,73.01587301587303 41.26984126984127,72.5925925925926 41.904761904761905,72.16931216931218 42.539682539682545,71.74603174603175 42.96296296296297,71.32275132275133 43.5978835978836,71.11111111111111 44.021164021164026,70.6878306878307 44.65608465608466,70.26455026455027 45.29100529100529,70.05291005291006 45.92592592592593,69.62962962962963 46.560846560846564,69.41798941798942 47.195767195767196,68.994708994709 47.61904761904762,68.57142857142858 48.25396825396826,68.14814814814815 48.88888888888889,67.93650793650794 49.31216931216932,67.51322751322752 49.94708994708995,67.08994708994709 50.58201058201058,66.66666666666667 51.00529100529101,66.24338624338625 51.640211640211646,65.82010582010582 52.27513227513228,65.3968253968254 52.6984126984127,64.97354497354497 53.333333333333336,64.76190476190477 53.968253968253975,64.33862433862434 54.60317460317461,64.12698412698413 55.23809523809524,63.91534391534392 55.87301587301588,63.492063492063494 56.50793650793651,63.280423280423285 57.142857142857146,63.06878306878308 57.777777777777786,63.06878306878308 58.41269841269842,62.85714285714286 59.04761904761905,62.64550264550265 59.682539682539684,62.64550264550265 60.31746031746032,62.64550264550265 60.952380952380956,62.64550264550265 61.58730158730159,62.64550264550265 62.22222222222223,62.64550264550265 62.85714285714286,62.85714285714286 63.492063492063494,63.06878306878308 64.12698412698413,63.492063492063494 64.55026455026456,63.91534391534392 64.97354497354497,64.33862433862434 65.3968253968254,64.97354497354497 65.60846560846561,65.60846560846561 66.03174603174604,66.24338624338625 66.24338624338625,66.87830687830689 66.45502645502646,67.51322751322752 66.45502645502646,68.14814814814815 66.66666666666667,68.78306878306879 66.66666666666667,69.41798941798942 66.87830687830689,70.05291005291006 66.87830687830689,70.6878306878307 67.08994708994709,71.32275132275133 67.3015873015873,71.95767195767196 67.3015873015873,72.5925925925926 67.51322751322752,73.22751322751323 67.72486772486774,73.86243386243387 67.93650793650794,74.49735449735451 67.93650793650794,75.13227513227514 68.14814814814815,75.76719576719577 68.57142857142858,76.4021164021164 68.78306878306879,77.03703703703704 68.994708994709,77.67195767195767 69.41798941798942,78.30687830687832 69.62962962962963,78.94179894179895 70.05291005291006,79.36507936507937 70.26455026455027,80.0 70.6878306878307,80.42328042328043 71.11111111111111,81.05820105820106 71.53439153439155,81.6931216931217 71.95767195767196,82.11640211640213 72.38095238095238,82.75132275132276 73.01587301587303,83.17460317460318 73.43915343915344,83.59788359788361 73.86243386243387,84.02116402116403 74.49735449735451,84.44444444444446 75.13227513227514,84.65608465608466 75.76719576719577,84.86772486772487 76.4021164021164,85.29100529100529 77.03703703703704,85.29100529100529 77.67195767195767,85.5026455026455 78.30687830687832,85.5026455026455 78.94179894179895,85.5026455026455 79.57671957671958,85.29100529100529 80.21164021164022,85.29100529100529 80.84656084656085,85.07936507936509 81.48148148148148,84.86772486772487 82.11640211640213,84.65608465608466 82.75132275132276,84.44444444444446 83.3862433862434,84.23280423280424 84.02116402116403,84.02116402116403 84.65608465608466,83.80952380952381 85.29100529100529,83.59788359788361 85.92592592592594,83.3862433862434 86.56084656084657,82.96296296296298 87.1957671957672,82.75132275132276 87.83068783068784,82.53968253968254 88.46560846560847,82.11640211640213 89.1005291005291,81.6931216931217 89.73544973544975,81.48148148148148 90.37037037037038,81.05820105820106 91.00529100529101,80.63492063492065 91.64021164021165,80.42328042328043 92.06349206349208,80.0 92.4867724867725,79.57671957671958 93.12169312169313,79.15343915343917 93.75661375661376,78.73015873015873 94.17989417989419,78.30687830687832 94.81481481481482,77.88359788359789 95.23809523809524,77.46031746031747 95.66137566137567,77.03703703703704 96.08465608465609,76.61375661375662 96.50793650793652,76.19047619047619 96.93121693121694,75.76719576719577 97.35449735449737,75.34391534391536 97.77777777777779,74.92063492063492 98.2010582010582,74.49735449735451 98.62433862433863,74.07407407407408 99.04761904761905,73.43915343915344 99.47089947089948,73.01587301587303 99.8941798941799,72.5925925925926 100.31746031746033,71.95767195767196 100.74074074074075,71.53439153439155 101.16402116402116,71.11111111111111 101.5873015873016,70.47619047619048 102.01058201058201,70.05291005291006 102.43386243386244,69.41798941798942 102.85714285714286,68.78306878306879 103.06878306878308,68.14814814814815 103.4920634920635,67.51322751322752 103.91534391534393,66.87830687830689 104.33862433862434,66.24338624338625 104.55026455026456,65.60846560846561 104.97354497354497,64.97354497354497 105.18518518518519,64.33862433862434 105.60846560846562,63.91534391534392 105.82010582010582,63.280423280423285 106.03174603174604,62.64550264550265 106.45502645502647,62.01058201058201 106.66666666666667,61.37566137566138 106.87830687830689,60.74074074074075 107.0899470899471,60.10582010582011 107.3015873015873,59.470899470899475 107.51322751322752,58.83597883597884 107.51322751322752,58.2010582010582 107.51322751322752,57.56613756613757 107.51322751322752,56.93121693121694 107.3015873015873,56.2962962962963 107.3015873015873,55.661375661375665 106.87830687830689,55.02645502645503 106.66666666666667,54.39153439153439 106.24338624338625,53.75661375661376 105.82010582010582,53.12169312169313 105.3968253968254,52.6984126984127 104.76190476190477,52.27513227513228 104.12698412698414,51.851851851851855 103.70370370370371,51.42857142857143 103.28042328042329,51.00529100529101 102.64550264550266,50.58201058201058 102.01058201058201,50.370370370370374 101.5873015873016,49.94708994708995 100.95238095238096,49.73544973544974 100.52910052910053,49.31216931216932 99.8941798941799,49.1005291005291 99.25925925925927,48.88888888888889 98.62433862433863,48.677248677248684 97.989417989418,48.46560846560847 97.35449735449737,48.25396825396826 96.71957671957672,48.25396825396826 96.08465608465609,48.042328042328045 95.44973544973546,47.830687830687836 94.81481481481482,47.61904761904762 94.17989417989419,47.61904761904762 93.54497354497356,47.61904761904762 92.91005291005291,47.40740740740741 92.27513227513228,47.195767195767196 91.64021164021165,46.98412698412699 91.00529100529101,46.98412698412699 90.37037037037038,46.98412698412699 89.73544973544975,46.77248677248678 89.1005291005291,46.77248677248678 88.46560846560847,46.560846560846564 87.83068783068784,46.349206349206355 87.1957671957672,46.349206349206355 86.56084656084657,46.13756613756614 85.92592592592594,45.92592592592593 85.29100529100529,45.92592592592593 84.65608465608466,45.714285714285715 84.02116402116403,45.50264550264551 83.3862433862434,45.07936507936508 82.75132275132276,44.867724867724874 82.11640211640213,44.65608465608466 81.6931216931217,44.232804232804234 81.05820105820106,43.80952380952381 80.63492063492065,43.386243386243386 80.0,42.96296296296297 79.57671957671958,42.539682539682545 79.15343915343917,41.904761904761905 78.94179894179895,41.26984126984127 78.73015873015873,40.63492063492064 78.73015873015873,40.0 78.73015873015873,39.36507936507937 78.73015873015873,38.730158730158735 78.94179894179895,38.095238095238095 79.15343915343917,37.46031746031746 79.36507936507937,36.82539682539683 79.7883597883598,36.19047619047619 80.21164021164022,35.55555555555556 80.63492063492065,35.13227513227513 81.05820105820106,34.4973544973545 81.48148148148148,34.074074074074076 81.90476190476191,33.65079365079365 82.32804232804233,33.22751322751323 82.75132275132276,32.804232804232804 83.17460317460318,32.38095238095239 83.80952380952381,31.95767195767196 84.23280423280424,31.53439153439154 84.65608465608466,31.111111111111114 85.07936507936509,30.68783068783069 85.5026455026455,30.264550264550266 85.92592592592594,29.841269841269842 86.34920634920636,29.41798941798942 86.98412698412699,28.994708994708997 87.40740740740742,28.571428571428573 87.83068783068784,28.14814814814815 88.25396825396827,27.724867724867728 88.67724867724868,27.301587301587304 89.1005291005291,26.87830687830688 89.52380952380953,26.455026455026456 89.94708994708995,26.031746031746035 90.37037037037038,25.60846560846561 90.7936507936508,25.185185185185187 91.42857142857143,24.761904761904763 91.85185185185186,24.338624338624342 92.27513227513228,23.915343915343918 92.69841269841271,23.492063492063494 93.12169312169313,23.06878306878307 93.54497354497356,22.645502645502646 93.96825396825398,22.222222222222225 94.39153439153439,21.7989417989418 94.81481481481482,21.375661375661377 95.23809523809524,20.952380952380953 95.66137566137567,20.529100529100532 96.08465608465609,20.105820105820108 96.50793650793652,19.682539682539684 96.93121693121694,19.25925925925926 97.35449735449737,18.83597883597884 97.77777777777779,18.412698412698415 98.2010582010582,17.77777777777778 98.62433862433863,17.354497354497354 99.04761904761905,16.71957671957672 99.47089947089948,16.084656084656086 99.8941798941799,15.661375661375663 100.31746031746033,15.238095238095239 100.74074074074075,14.603174603174605 101.16402116402116,13.96825396825397 101.5873015873016,13.544973544973546 102.01058201058201,13.121693121693122 102.43386243386244,12.6984126984127 102.85714285714286,12.063492063492065 103.28042328042329,11.640211640211641 103.70370370370371,11.005291005291006 104.12698412698414,10.370370370370372 104.55026455026456,9.947089947089948 104.97354497354497,9.312169312169313 105.3968253968254,8.88888888888889 105.82010582010582,8.253968253968255 106.24338624338625,7.6190476190476195 106.66666666666667,6.984126984126985 107.0899470899471,6.34920634920635 107.3015873015873,5.714285714285714 107.72486772486774,5.07936507936508 108.14814814814815,4.444444444444445 108.57142857142858,3.8095238095238098 108.994708994709,3.3862433862433865 109.41798941798943,2.7513227513227516 111.11111111111111,0.21164021164021166" style="fill:none; stroke:#3300bb; stroke-width:1.0"  /><circle cx="111.11111111111111" cy="0.21164021164021166" r="2.0" style="fill:none; stroke:#000000aa; stroke-width:0.25" /><circle cx="200.84656084656086" cy="58.41269841269842" r="2.0" style="fill:none; stroke:#000000aa; stroke-width:0.25" /><circle cx="85.5026455026455" cy="186.24338624338625" r="2.0" style="fill:none; stroke:#000000aa; stroke-width:0.25" /><circle cx="0.21164021164021166" cy="118.51851851851853" r="2.0" style="fill:none; stroke:#000000aa; stroke-width:0.25" /><circle cx="111.53439153439155" cy="0.21164021164021166" r="2.0" style="fill:none; stroke:#ff3366aa; stroke-width:0.25" /><circle cx="201.05820105820106" cy="58.83597883597884" r="2.0" style="fill:none; stroke:#ff3366aa; stroke-width:0.25" /><circle cx="85.29100529100529" cy="186.03174603174605" r="2.0" style="fill:none; stroke:#ff3366aa; stroke-width:0.25" /><circle cx="0.21164021164021166" cy="118.73015873015873" r="2.0" style="fill:none; stroke:#ff3366aa; stroke-width:0.25" /><polyline points="122.11640211640213,4.867724867724868 121.4814814814815,4.656084656084657 120.84656084656086,4.444444444444445 120.21164021164022,4.2328042328042335 119.57671957671958,4.021164021164021 118.94179894179895,3.8095238095238098 118.30687830687832,3.3862433862433865 117.67195767195768,3.174603174603175 117.03703703703705,2.9629629629629632 116.4021164021164,2.53968253968254 115.76719576719577,2.3280423280423284 115.13227513227514,1.9047619047619049 114.49735449735451,1.6931216931216932" style="fill:none; stroke:#001100; stroke-width:1.0" /><polyline points="104.55026455026456,9.947089947089948 104.97354497354497,9.312169312169313 105.3968253968254,8.88888888888889 105.82010582010582,8.253968253968255 106.24338624338625,7.6190476190476195 106.66666666666667,6.984126984126985 107.0899470899471,6.34920634920635 107.3015873015873,5.714285714285714 107.72486772486774,5.07936507936508 108.14814814814815,4.444444444444445 108.57142857142858,3.8095238095238098 108.994708994709,3.3862433862433865 109.41798941798943,2.7513227513227516" style="fill:none; stroke:#000011; stroke-width:1.0" /><polyline points="196.61375661375664,69.41798941798942 197.03703703703704,68.78306878306879 197.24867724867727,68.14814814814815 197.24867724867727,67.51322751322752 197.46031746031747,66.87830687830689 197.8835978835979,66.24338624338625 198.0952380952381,65.60846560846561 198.30687830687833,64.97354497354497 198.51851851851853,64.33862433862434 198.73015873015873,63.70370370370371 198.94179894179896,63.06878306878308 199.36507936507937,62.43386243386244 199.5767195767196,61.798941798941804" style="fill:none; stroke:#001100; stroke-width:1.0" /><polyline points="192.16931216931218,51.42857142857143 192.5925925925926,51.851851851851855 193.22751322751324,52.27513227513228 193.86243386243387,52.6984126984127 194.2857142857143,53.12169312169313 194.70899470899474,53.54497354497355 195.34391534391537,53.968253968253975 195.76719576719577,54.39153439153439 196.1904761904762,54.81481481481482 196.82539682539684,55.23809523809524 197.24867724867727,55.661375661375665 197.8835978835979,56.08465608465609 198.51851851851853,56.50793650793651" style="fill:none; stroke:#000011; stroke-width:1.0" /><polyline points="77.03703703703704,177.56613756613757 77.46031746031747,177.989417989418 77.88359788359789,178.41269841269843 78.30687830687832,178.83597883597884 78.73015873015873,179.25925925925927 79.15343915343917,179.6825396825397 79.57671957671958,180.10582010582013 80.0,180.52910052910053 80.42328042328043,180.95238095238096 80.84656084656085,181.3756613756614 81.26984126984128,181.79894179894183 81.6931216931217,182.22222222222223 82.11640211640213,182.85714285714286 82.53968253968254,183.2804232804233 82.96296296296298,183.70370370370372" style="fill:none; stroke:#001100; stroke-width:1.0" /><polyline points="92.69841269841271,177.14285714285717 92.27513227513228,177.56613756613757 91.85185185185186,177.989417989418 91.42857142857143,178.41269841269843 91.00529100529101,179.04761904761907 90.58201058201058,179.4708994708995 90.15873015873017,179.8941798941799 89.73544973544975,180.52910052910053 89.31216931216932,180.95238095238096 88.8888888888889,181.5873015873016 88.46560846560847,182.22222222222223 88.04232804232805,182.85714285714286 87.61904761904762,183.4920634920635" style="fill:none; stroke:#000011; stroke-width:1.0" /><polyline points="6.560846560846561,108.994708994709 6.137566137566138,109.62962962962963 5.714285714285714,110.26455026455027 5.291005291005291,110.6878306878307 5.07936507936508,111.32275132275133 4.656084656084657,111.95767195767196 4.2328042328042335,112.3809523809524 3.8095238095238098,113.01587301587303 3.3862433862433865,113.43915343915344 3.174603174603175,114.07407407407408 2.7513227513227516,114.49735449735451 2.53968253968254,115.13227513227514 2.1164021164021167,115.76719576719577" style="fill:none; stroke:#001100; stroke-width:1.0" /><polyline points="8.253968253968255,127.61904761904763 7.830687830687832,126.98412698412699 7.407407407407408,126.34920634920636 6.984126984126985,125.92592592592594 6.560846560846561,125.5026455026455 6.137566137566138,124.86772486772487 5.714285714285714,124.44444444444446 5.291005291005291,123.80952380952382 4.867724867724868,123.3862433862434 4.444444444444445,122.75132275132276 4.021164021164021,122.32804232804234 3.3862433862433865,121.90476190476191 2.9629629629629632,121.4814814814815 2.53968253968254,121.05820105820106" style="fill:none; stroke:#000011; stroke-width:1.0" /><polyline points="114.49735449735451,1.6931216931216932 95.02645502645504,-6.34920634920635" style="fill:none; stroke:#ffaa00; stroke-width:0.4" /><polyline points="109.41798941798943,2.7513227513227516 121.26984126984128,-14.814814814814817" style="fill:none; stroke:#aaff00; stroke-width:0.4" /><polyline points="199.5767195767196,61.798941798941804 207.19576719576722,42.11640211640212" style="fill:none; stroke:#ffaa00; stroke-width:0.4" /><polyline points="198.51851851851853,56.50793650793651 215.02645502645504,69.62962962962963" style="fill:none; stroke:#aaff00; stroke-width:0.4" /><polyline points="82.96296296296298,183.70370370370372 97.56613756613757,198.94179894179896" style="fill:none; stroke:#ffaa00; stroke-width:0.4" /><polyline points="87.61904761904762,183.4920634920635 74.49735449735451,200.00000000000003" style="fill:none; stroke:#aaff00; stroke-width:0.4" /><polyline points="2.1164021164021167,115.76719576719577 -9.523809523809524,133.54497354497354" style="fill:none; stroke:#ffaa00; stroke-width:0.4" /><polyline points="2.53968253968254,121.05820105820106 -11.428571428571429,105.18518518518519" style="fill:none; stroke:#aaff00; stroke-width:0.4" /><circle cx="104.76190476190477" cy="91.42857142857143" r="1.0" style="fill:#444444; stroke-width:0" /><circle cx="93.54497354497356" cy="113.86243386243387" r="10.582010582010582" style="fill:#ff770022; stroke-width:0" /><circle cx="93.54497354497356" cy="113.86243386243387" r="1.0" style="fill:#ff7700; stroke-width:0" /></svg>