<?xml version="1.0" encoding="UTF-8" standalone="no"?><svg width="521.9047619047619" height="648.8888888888889" viewBox="-10 -10 193.96825396825398 236.2962962962963" xmlns="http://www.w3.org/2000/svg" xmlns:xlink="http://www.w3.org/1999/xlink"><polyline points="56.50793650793651,17.566137566137566 60.10582010582011,20.31746031746032 60.52910052910053,20.740740740740744 61.16402116402117,21.164021164021165 61.58730158730159,21.58730158730159 62.22222222222223,22.010582010582013 62.85714285714286,22.433862433862437 63.280423280423285,22.857142857142858 63.91534391534392,23.06878306878307 64.33862433862434,23.492063492063494 64.76190476190477,23.915343915343918 65.3968253968254,24.338624338624342 66.03174603174604,24.761904761904763 66.45502645502646,25.185185185185187 67.08994708994709,25.60846560846561 67.72486772486774,26.031746031746035 68.14814814814815,26.455026455026456 68.78306878306879,26.87830687830688 69.41798941798942,27.301587301587304 69.84126984126985,27.724867724867728 70.47619047619048,28.14814814814815 70.8994708994709,28.571428571428573 71.53439153439155,28.994708994708997 72.16931216931218,29.41798941798942 72.5925925925926,29.841269841269842 73.22751322751323,30.264550264550266 73.65079365079366,30.68783068783069 74.07407407407408,31.111111111111114 74.70899470899471,31.53439153439154 75.34391534391536,31.746031746031747 75.76719576719577,32.38095238095239 76.4021164021164,32.804232804232804 77.03703703703704,33.22751322751323 77.46031746031747,33.65079365079365 77.88359788359789,34.074074074074076 78.51851851851852,34.4973544973545 79.15343915343917,34.920634920634924 79.57671957671958,35.34391534391535 80.21164021164022,35.76719576719577 80.84656084656085,36.19047619047619 81.26984126984128,36.613756613756614 81.6931216931217,37.03703703703704 82.11640211640213,37.46031746031746 82.53968253968254,37.883597883597886 82.96296296296298,38.30687830687831 83.59788359788361,38.730158730158735 84.23280423280424,39.15343915343916 84.65608465608466,39.57671957671958 85.29100529100529,40.0 85.92592592592594,40.423280423280424 86.56084656084657,40.84656084656085 87.1957671957672,41.26984126984127 87.83068783068784,41.48148148148149 88.46560846560847,41.6931216931217 89.1005291005291,41.904761904761905 89.73544973544975,41.904761904761905 90.37037037037038,41.904761904761905 91.00529100529101,41.904761904761905 91.64021164021165,42.11640211640212 92.27513227513228,42.11640211640212 92.69841269841271,41.6931216931217 93.33333333333334,41.6931216931217 93.96825396825398,41.48148148148149 94.60317460317461,41.058201058201064 95.23809523809524,40.84656084656085 95.66137566137567,40.423280423280424 96.08465608465609,40.0 96.50793650793652,39.57671957671958 96.93121693121694,38.94179894179894 97.35449735449737,38.30687830687831 97.56613756613757,37.67195767195768 97.77777777777779,37.03703703703704 97.989417989418,36.402116402116405 98.2010582010582,35.76719576719577 98.41269841269842,35.13227513227513 98.41269841269842,34.4973544973545 98.41269841269842,33.86243386243387 98.41269841269842,33.22751322751323 98.41269841269842,32.592592592592595 98.41269841269842,31.95767195767196 98.2010582010582,31.322751322751326 98.2010582010582,30.68783068783069 97.989417989418,30.052910052910054 97.989417989418,29.41798941798942 97.77777777777779,28.783068783068785 97.56613756613757,28.14814814814815 97.56613756613757,27.513227513227516 97.35449735449737,26.87830687830688 97.14285714285715,26.243386243386244 96.93121693121694,25.60846560846561 96.93121693121694,24.973544973544975 96.71957671957672,24.338624338624342 96.50793650793652,23.703703703703706 96.2962962962963,23.06878306878307 96.2962962962963,22.433862433862437 96.08465608465609,21.7989417989418 96.08465608465609,21.164021164021165 95.87301587301587,20.529100529100532 95.87301587301587,19.894179894179896 95.87301587301587,19.25925925925926 95.87301587301587,18.624338624338627 95.87301587301587,17.98941798941799 95.87301587301587,17.354497354497354 96.08465608465609,16.71957671957672 96.08465608465609,16.084656084656086 96.2962962962963,15.449735449735451 96.2962962962963,14.814814814814817 96.50793650793652,14.17989417989418 96.71957671957672,13.544973544973546 96.93121693121694,12.910052910052912 97.14285714285715,12.275132275132275 97.35449735449737,11.640211640211641 97.35449735449737,11.005291005291006 97.77777777777779,10.370370370370372 98.2010582010582,9.735449735449736 98.41269841269842,9.100529100529101 98.83597883597885,8.677248677248677 99.25925925925927,8.042328042328043 99.68253968253968,7.407407407407408 100.10582010582011,6.772486772486773 100.52910052910053,6.34920634920635 100.95238095238096,5.9259259259259265 101.37566137566138,5.502645502645503 101.79894179894181,5.07936507936508 102.22222222222223,4.656084656084657 102.85714285714286,4.2328042328042335 103.28042328042329,3.8095238095238098 103.91534391534393,3.3862433862433865 104.55026455026456,2.9629629629629632 104.97354497354497,2.53968253968254 105.60846560846562,2.3280423280423284 106.24338624338625,2.1164021164021167 106.87830687830689,1.9047619047619049 107.3015873015873,1.4814814814814816 107.93650793650795,1.26984126984127 108.57142857142858,1.0582010582010584 109.20634920634922,0.8465608465608466 109.84126984126985,0.634920634920635 110.47619047619048,0.634920634920635 111.11111111111111,0.4232804232804233 111.74603174603176,0.21164021164021166 112.3809523809524,0.21164021164021166 113.01587301587303,0.21164021164021166 113.65079365079366,0.21164021164021166 114.28571428571429,0.21164021164021166 114.92063492063492,0.21164021164021166 115.55555555555557,0.21164021164021166 116.1904761904762,0.21164021164021166 116.82539682539684,0.4232804232804233 117.46031746031747,0.634920634920635 118.0952380952381,0.634920634920635 118.73015873015873,0.8465608465608466 119.36507936507937,1.0582010582010584 119.7883597883598,1.4814814814814816 120.42328042328043,1.4814814814814816 121.05820105820106,1.6931216931216932 121.6931216931217,1.9047619047619049 122.11640211640213,2.3280423280423284 122.75132275132276,2.7513227513227516 123.3862433862434,3.174603174603175 124.02116402116403,3.597883597883598 124.65608465608466,4.021164021164021 125.07936507936509,4.444444444444445 125.5026455026455,4.867724867724868 126.13756613756615,5.291005291005291 126.56084656084657,5.714285714285714 126.98412698412699,6.137566137566138 127.40740740740742,6.560846560846561 127.83068783068784,6.984126984126985 128.25396825396825,7.6190476190476195 128.67724867724868,8.253968253968255 129.10052910052912,8.88888888888889 129.31216931216932,9.523809523809524 129.73544973544975,10.15873015873016 129.94708994708995,10.793650793650794 130.37037037037038,11.428571428571429 130.58201058201058,12.063492063492065 130.7936507936508,12.6984126984127 131.005291005291,13.333333333333334 131.21693121693121,13.96825396825397 131.21693121693121,14.603174603174605 131.21693121693121,15.238095238095239 131.42857142857144,15.873015873015873 131.42857142857144,16.50793650793651 131.42857142857144,17.142857142857146 131.42857142857144,17.77777777777778 131.42857142857144,18.412698412698415 131.42857142857144,19.047619047619047 131.42857142857144,19.682539682539684 131.21693121693121,20.31746031746032 131.21693121693121,20.952380952380953 131.005291005291,21.58730158730159 131.005291005291,22.222222222222225 130.7936507936508,22.857142857142858 130.7936507936508,23.492063492063494 130.58201058201058,24.12698412698413 130.37037037037038,24.761904761904763 130.15873015873018,25.3968253968254 129.94708994708995,26.031746031746035 129.73544973544975,26.666666666666668 129.52380952380955,27.301587301587304 129.31216931216932,27.93650793650794 128.88888888888889,28.571428571428573 128.67724867724868,29.20634920634921 128.25396825396825,29.841269841269842 127.83068783068784,30.476190476190478 127.40740740740742,31.111111111111114 127.1957671957672,31.746031746031747 126.77248677248679,32.38095238095239 126.34920634920636,33.01587301587302 125.92592592592594,33.43915343915344 125.71428571428572,34.074074074074076 125.2910052910053,34.70899470899471 124.86772486772487,35.34391534391535 124.44444444444446,35.97883597883598 124.23280423280424,36.613756613756614 123.80952380952382,37.248677248677254 123.3862433862434,37.883597883597886 123.17460317460318,38.51851851851852 122.75132275132276,39.15343915343916 122.53968253968254,39.78835978835979 122.53968253968254,40.423280423280424 122.32804232804234,41.058201058201064 122.11640211640213,41.6931216931217 122.11640211640213,42.32804232804233 122.11640211640213,42.96296296296297 122.11640211640213,43.5978835978836 122.11640211640213,44.232804232804234 122.32804232804234,44.867724867724874 122.75132275132276,45.50264550264551 122.96296296296298,46.13756613756614 123.3862433862434,46.560846560846564 123.80952380952382,46.98412698412699 124.23280423280424,47.40740740740741 124.65608465608466,47.830687830687836 125.07936507936509,48.25396825396826 125.71428571428572,48.677248677248684 126.34920634920636,48.88888888888889 126.98412698412699,49.31216931216932 127.61904761904763,49.31216931216932 128.25396825396825,49.523809523809526 128.88888888888889,49.523809523809526 129.52380952380955,49.523809523809526 130.15873015873018,49.73544973544974 130.7936507936508,49.73544973544974 131.42857142857144,49.73544973544974 132.06349206349208,49.523809523809526 132.6984126984127,49.523809523809526 133.33333333333334,49.523809523809526 133.96825396825398,49.31216931216932 134.6031746031746,49.31216931216932 135.23809523809524,49.1005291005291 135.87301587301587,49.1005291005291 136.5079365079365,48.88888888888889 137.14285714285717,48.677248677248684 137.7777777777778,48.677248677248684 138.41269841269843,48.677248677248684 139.04761904761907,48.46560846560847 139.6825396825397,48.25396825396826 140.31746031746033,48.042328042328045 140.95238095238096,48.042328042328045 141.5873015873016,47.830687830687836 142.22222222222223,47.830687830687836 142.85714285714286,47.830687830687836 143.4920634920635,47.61904761904762 144.12698412698413,47.61904761904762 144.76190476190476,47.40740740740741 145.39682539682542,47.40740740740741 146.03174603174605,47.40740740740741 146.66666666666669,47.195767195767196 147.30158730158732,47.195767195767196 147.93650793650795,47.195767195767196 148.57142857142858,47.195767195767196 149.20634920634922,47.195767195767196 149.84126984126985,47.195767195767196 150.47619047619048,46.98412698412699 151.11111111111111,46.98412698412699 151.74603174603175,46.98412698412699 152.38095238095238,46.98412698412699 153.01587301587304,46.98412698412699 153.65079365079367,46.98412698412699 154.2857142857143,46.98412698412699 154.92063492063494,46.77248677248678 155.55555555555557,46.98412698412699 156.1904761904762,46.98412698412699 156.82539682539684,46.77248677248678 157.46031746031747,46.77248677248678 158.0952380952381,46.77248677248678 158.73015873015873,46.77248677248678 159.36507936507937,46.77248677248678 160.0,46.77248677248678 160.63492063492066,46.77248677248678 161.2698412698413,46.98412698412699 161.90476190476193,46.98412698412699 162.53968253968256,46.77248677248678 163.1746031746032,46.77248677248678 163.80952380952382,46.77248677248678 164.44444444444446,46.77248677248678 165.0793650793651,46.77248677248678 165.71428571428572,46.77248677248678 166.34920634920636,46.77248677248678 166.984126984127,46.77248677248678 167.61904761904762,46.77248677248678 168.25396825396825,46.77248677248678 168.8888888888889,46.77248677248678 169.52380952380955,46.77248677248678 170.15873015873018,46.77248677248678 173.96825396825398,46.560846560846564" style="fill:none; stroke:#cc0000; stroke-width:1.0"  /><polyline points="173.96825396825398,46.560846560846564 172.27513227513228,50.58201058201058 172.06349206349208,51.21693121693122 171.85185185185188,51.851851851851855 171.42857142857144,52.27513227513228 171.21693121693124,52.91005291005291 171.005291005291,53.54497354497355 170.58201058201058,53.968253968253975 170.37037037037038,54.60317460317461 170.15873015873018,55.23809523809524 169.73544973544975,55.87301587301588 169.52380952380955,56.50793650793651 169.31216931216932,57.142857142857146 169.10052910052912,57.777777777777786 168.8888888888889,58.41269841269842 168.46560846560848,59.04761904761905 168.25396825396825,59.682539682539684 168.04232804232805,60.31746031746032 167.83068783068785,60.952380952380956 167.40740740740742,61.58730158730159 167.19576719576722,62.22222222222223 166.984126984127,62.85714285714286 166.7724867724868,63.492063492063494 166.56084656084658,64.12698412698413 166.34920634920636,64.76190476190477 166.13756613756615,65.3968253968254 165.92592592592595,66.03174603174604 165.71428571428572,66.66666666666667 165.50264550264552,67.3015873015873 165.2910052910053,67.93650793650794 164.8677248677249,68.57142857142858 164.65608465608466,69.20634920634922 164.44444444444446,69.84126984126985 164.23280423280426,70.47619047619048 164.02116402116403,71.11111111111111 163.80952380952382,71.74603174603175 163.59788359788362,72.38095238095238 163.3862433862434,73.01587301587303 163.1746031746032,73.65079365079366 162.96296296296296,74.28571428571429 162.75132275132276,74.92063492063492 162.75132275132276,75.55555555555556 162.53968253968256,76.19047619047619 162.32804232804233,76.82539682539684 162.11640211640213,77.46031746031747 161.90476190476193,78.0952380952381 161.6931216931217,78.73015873015873 161.4814814814815,79.36507936507937 161.2698412698413,80.0 161.05820105820106,80.63492063492065 161.05820105820106,81.26984126984128 161.05820105820106,81.90476190476191 160.84656084656086,82.53968253968254 160.63492063492066,83.17460317460318 160.42328042328043,83.80952380952381 160.21164021164023,84.44444444444446 160.0,85.07936507936509 160.0,85.71428571428572 159.7883597883598,86.34920634920636 159.5767195767196,86.98412698412699 159.36507936507937,87.61904761904762 159.15343915343917,88.25396825396827 159.15343915343917,88.8888888888889 158.94179894179896,89.52380952380953 158.73015873015873,90.15873015873017 158.51851851851853,90.7936507936508 158.30687830687833,91.42857142857143 158.0952380952381,92.06349206349208 157.8835978835979,92.69841269841271 157.67195767195767,93.33333333333334 157.46031746031747,93.96825396825398 157.24867724867727,94.60317460317461 157.03703703703704,95.23809523809524 156.82539682539684,95.87301587301587 156.82539682539684,96.50793650793652 156.4021164021164,96.93121693121694 156.1904761904762,97.56613756613757 155.978835978836,98.2010582010582 155.55555555555557,98.83597883597885 155.13227513227514,99.47089947089948 154.7089947089947,99.8941798941799 154.2857142857143,100.31746031746033 153.65079365079367,100.74074074074075 153.01587301587304,100.95238095238096 152.38095238095238,101.16402116402116 151.74603174603175,101.37566137566138 151.11111111111111,101.37566137566138 150.47619047619048,101.37566137566138 149.84126984126985,101.37566137566138 149.20634920634922,101.16402116402116 148.57142857142858,100.95238095238096 147.93650793650795,100.74074074074075 147.30158730158732,100.52910052910053 146.66666666666669,100.10582010582011 146.03174603174605,99.68253968253968 145.39682539682542,99.25925925925927 144.76190476190476,98.83597883597885 144.33862433862436,98.41269841269842 143.91534391534393,97.989417989418 143.2804232804233,97.56613756613757 142.85714285714286,97.14285714285715 142.43386243386246,96.71957671957672 142.01058201058203,96.2962962962963 141.3756613756614,95.87301587301587 140.95238095238096,95.44973544973546 140.31746031746033,95.02645502645504 139.8941798941799,94.60317460317461 139.25925925925927,94.17989417989419 138.83597883597884,93.75661375661376 138.2010582010582,93.33333333333334 137.56613756613757,92.91005291005291 136.93121693121694,92.4867724867725 136.2962962962963,92.06349206349208 135.66137566137567,91.64021164021165 135.02645502645504,91.21693121693123 134.3915343915344,90.7936507936508 133.75661375661377,90.37037037037038 133.12169312169314,90.15873015873017 132.4867724867725,89.73544973544975 131.85185185185185,89.31216931216932 131.21693121693121,88.8888888888889 130.58201058201058,88.67724867724868 129.94708994708995,88.25396825396827 129.31216931216932,87.83068783068784 128.67724867724868,87.61904761904762 128.04232804232805,87.1957671957672 127.40740740740742,87.1957671957672 126.77248677248679,86.77248677248677 126.13756613756615,86.77248677248677 125.5026455026455,86.56084656084657 124.86772486772487,86.34920634920636 124.23280423280424,86.34920634920636 123.59788359788361,86.34920634920636 122.96296296296298,86.56084656084657 122.32804232804234,86.77248677248677 121.6931216931217,86.98412698412699 121.05820105820106,87.1957671957672 120.42328042328043,87.61904761904762 120.00000000000001,88.04232804232805 119.57671957671958,88.46560846560847 119.15343915343917,88.8888888888889 118.73015873015873,89.52380952380953 118.30687830687832,89.94708994708995 117.88359788359789,90.37037037037038 117.67195767195768,91.00529100529101 117.24867724867725,91.64021164021165 117.03703703703705,92.27513227513228 116.61375661375662,92.91005291005291 116.4021164021164,93.54497354497356 116.1904761904762,94.17989417989419 115.76719576719577,94.81481481481482 115.55555555555557,95.44973544973546 115.34391534391536,96.08465608465609 114.92063492063492,96.71957671957672 114.70899470899472,97.35449735449737 114.49735449735451,97.989417989418 114.28571428571429,98.62433862433863 113.86243386243387,99.25925925925927 113.65079365079366,99.8941798941799 113.43915343915344,100.52910052910053 113.22751322751324,101.16402116402116 112.80423280423281,101.79894179894181 112.5925925925926,102.43386243386244 112.3809523809524,103.06878306878308 112.16931216931218,103.70370370370371 111.74603174603176,104.33862433862434 111.53439153439155,104.97354497354497 111.32275132275133,105.60846560846562 111.11111111111111,106.24338624338625 110.89947089947091,106.87830687830689 110.47619047619048,107.51322751322752 110.26455026455027,108.14814814814815 110.05291005291006,108.78306878306879 109.84126984126985,109.41798941798943 109.62962962962963,110.05291005291006 109.41798941798943,110.6878306878307 109.20634920634922,111.32275132275133 109.20634920634922,111.95767195767196 108.994708994709,112.5925925925926 108.78306878306879,113.22751322751324 108.78306878306879,113.86243386243387 108.57142857142858,114.49735449735451 108.57142857142858,115.13227513227514 108.35978835978837,115.76719576719577 108.35978835978837,116.4021164021164 108.35978835978837,117.03703703703705 108.35978835978837,117.67195767195768 108.14814814814815,118.30687830687832 108.14814814814815,118.94179894179895 107.93650793650795,119.57671957671958 107.93650793650795,120.21164021164022 107.93650793650795,120.84656084656086 107.72486772486774,121.4814814814815 107.72486772486774,122.11640211640213 107.72486772486774,122.75132275132276 107.51322751322752,123.3862433862434 107.51322751322752,124.02116402116403 107.51322751322752,124.65608465608466 107.51322751322752,125.2910052910053 107.72486772486774,125.92592592592594 107.72486772486774,126.56084656084657 107.93650793650795,127.1957671957672 107.93650793650795,127.83068783068784 108.14814814814815,128.46560846560848 108.57142857142858,129.10052910052912 108.78306878306879,129.73544973544975 109.20634920634922,130.15873015873018 109.62962962962963,130.58201058201058 110.26455026455027,131.005291005291 110.6878306878307,131.42857142857144 111.32275132275133,131.85185185185185 111.95767195767196,132.27513227513228 112.5925925925926,132.4867724867725 113.22751322751324,132.9100529100529 113.86243386243387,132.9100529100529 114.49735449735451,133.12169312169314 115.13227513227514,133.12169312169314 115.76719576719577,133.33333333333334 116.4021164021164,133.54497354497354 117.03703703703705,133.75661375661377 117.67195767195768,133.75661375661377 118.30687830687832,133.75661375661377 118.94179894179895,133.96825396825398 119.57671957671958,133.96825396825398 120.21164021164022,134.17989417989418 120.84656084656086,134.17989417989418 121.4814814814815,134.17989417989418 122.11640211640213,133.96825396825398 122.75132275132276,133.96825396825398 123.3862433862434,133.96825396825398 124.02116402116403,133.96825396825398 124.65608465608466,133.75661375661377 125.2910052910053,133.75661375661377 125.92592592592594,133.75661375661377 126.56084656084657,133.75661375661377 127.1957671957672,133.33333333333334 127.83068783068784,133.12169312169314 128.46560846560848,133.12169312169314 129.10052910052912,132.9100529100529 129.73544973544975,132.6984126984127 130.37037037037038,132.6984126984127 131.005291005291,132.4867724867725 131.64021164021165,132.4867724867725 132.27513227513228,132.27513227513228 132.9100529100529,132.06349206349208 133.54497354497354,132.27513227513228 133.96825396825398,131.85185185185185 134.3915343915344,132.27513227513228 135.02645502645504,132.27513227513228 135.66137566137567,132.27513227513228 136.2962962962963,132.27513227513228 136.93121693121694,132.27513227513228 137.56613756613757,132.4867724867725 138.2010582010582,132.6984126984127 138.83597883597884,132.9100529100529 139.47089947089947,133.12169312169314 140.10582010582013,133.54497354497354 140.74074074074076,133.96825396825398 141.3756613756614,134.3915343915344 141.7989417989418,134.81481481481484 142.01058201058203,135.44973544973547 142.43386243386246,135.87301587301587 142.43386243386246,136.5079365079365 142.64550264550266,137.14285714285717 142.85714285714286,137.7777777777778 142.85714285714286,138.41269841269843 142.85714285714286,139.04761904761907 143.0687830687831,139.6825396825397 143.0687830687831,140.31746031746033 143.0687830687831,140.95238095238096 143.0687830687831,141.5873015873016 143.0687830687831,142.22222222222223 143.0687830687831,142.85714285714286 143.0687830687831,143.4920634920635 143.0687830687831,144.12698412698413 143.0687830687831,144.76190476190476 143.0687830687831,145.39682539682542 143.0687830687831,146.03174603174605 143.0687830687831,146.66666666666669 143.0687830687831,147.30158730158732 142.85714285714286,147.93650793650795 142.85714285714286,148.57142857142858 142.85714285714286,149.20634920634922 142.64550264550266,149.84126984126985 142.64550264550266,150.47619047619048 142.43386243386246,151.11111111111111 142.64550264550266,151.74603174603175 142.64550264550266,152.38095238095238 142.43386243386246,153.01587301587304 142.22222222222223,153.65079365079367 142.01058201058203,154.2857142857143 141.7989417989418,154.92063492063494 141.7989417989418,155.55555555555557 141.5873015873016,156.1904761904762 141.3756613756614,156.82539682539684 140.95238095238096,157.46031746031747 140.74074074074076,158.0952380952381 140.52910052910053,158.73015873015873 140.31746031746033,159.36507936507937 139.8941798941799,160.0 139.6825396825397,160.63492063492066 139.25925925925927,161.05820105820106 139.04761904761907,161.6931216931217 138.62433862433863,162.32804232804233 138.2010582010582,162.96296296296296 137.7777777777778,163.59788359788362 137.35449735449737,164.23280423280426 136.93121693121694,164.8677248677249 136.5079365079365,165.2910052910053 136.0846560846561,165.92592592592595 135.66137566137567,166.56084656084658 135.23809523809524,166.984126984127 134.81481481481484,167.40740740740742 134.3915343915344,167.83068783068785 133.96825396825398,168.46560846560848 133.54497354497354,168.8888888888889 133.12169312169314,169.52380952380955 132.6984126984127,169.94708994708995 132.27513227513228,170.37037037037038 131.85185185185185,170.7936507936508 131.42857142857144,171.42857142857144 131.005291005291,171.85185185185188 130.58201058201058,172.27513227513228 130.15873015873018,172.6984126984127 129.73544973544975,173.12169312169314 129.31216931216932,173.75661375661377 128.88888888888889,174.1798941798942 128.46560846560848,174.6031746031746 128.04232804232805,175.23809523809524 127.61904761904763,175.87301587301587 127.1957671957672,176.2962962962963 126.77248677248679,176.71957671957674 126.34920634920636,177.14285714285717 125.92592592592594,177.56613756613757 125.5026455026455,177.989417989418 125.07936507936509,178.62433862433863 124.65608465608466,179.04761904761907 124.23280423280424,179.4708994708995 123.80952380952382,179.8941798941799 123.3862433862434,180.52910052910053 122.96296296296298,180.95238095238096 122.53968253968254,181.3756613756614 122.11640211640213,182.01058201058203 121.6931216931217,182.64550264550266 121.26984126984128,183.0687830687831 120.84656084656086,183.70370370370372 120.42328042328043,184.12698412698415 120.00000000000001,184.7619047619048 119.57671957671958,185.1851851851852 119.36507936507937,185.82010582010582 118.94179894179895,186.24338624338625 118.73015873015873,186.8783068783069 118.30687830687832,187.51322751322752 117.88359788359789,188.14814814814815 117.46031746031747,188.78306878306879 117.03703703703705,189.41798941798945 116.82539682539684,190.05291005291008 116.4021164021164,190.47619047619048 116.1904761904762,191.11111111111111 115.76719576719577,191.74603174603175 115.55555555555557,192.3809523809524 115.13227513227514,193.01587301587304 114.92063492063492,193.65079365079367 114.49735449735451,194.2857142857143 114.28571428571429,194.92063492063494 114.07407407407408,195.55555555555557 113.65079365079366,196.1904761904762 113.43915343915344,196.82539682539684 113.22751322751324,197.46031746031747 113.01587301587303,198.0952380952381 112.80423280423281,198.73015873015873 112.5925925925926,199.36507936507937 112.3809523809524,200.00000000000003 112.3809523809524,200.63492063492066 112.16931216931218,201.2698412698413 110.89947089947091,204.8677248677249" style="fill:none; stroke:#999900; stroke-width:1.0"  /><polyline points="110.89947089947091,204.8677248677249 107.72486772486774,203.1746031746032 107.0899470899471,202.962962962963 106.66666666666667,202.53968253968256 106.03174603174604,202.32804232804233 105.3968253968254,202.11640211640213 104.97354497354497,201.6931216931217 104.33862433862434,201.4814814814815 103.70370370370371,201.05820105820106 103.06878306878308,200.63492063492066 102.43386243386244,200.42328042328043 101.79894179894181,200.00000000000003 101.16402116402116,199.7883597883598 100.52910052910053,199.36507936507937 99.8941798941799,199.15343915343917 99.47089947089948,198.73015873015873 98.83597883597885,198.51851851851853 98.2010582010582,198.0952380952381 97.56613756613757,197.8835978835979 96.93121693121694,197.46031746031747 96.2962962962963,197.24867724867727 95.66137566137567,196.82539682539684 95.02645502645504,196.4021164021164 94.39153439153439,195.978835978836 93.75661375661376,195.55555555555557 93.12169312169313,195.34391534391537 92.4867724867725,195.13227513227514 91.85185185185186,194.70899470899474 91.42857142857143,194.2857142857143 90.7936507936508,193.86243386243387 90.15873015873017,193.43915343915344 89.52380952380953,193.01587301587304 88.8888888888889,192.5925925925926 88.46560846560847,192.16931216931218 87.83068783068784,191.74603174603175 87.1957671957672,191.32275132275134 86.56084656084657,191.11111111111111 86.13756613756614,190.6878306878307 85.5026455026455,190.47619047619048 85.07936507936509,190.05291005291008 84.44444444444446,189.84126984126985 83.80952380952381,189.62962962962965 83.17460317460318,189.41798941798945 82.53968253968254,189.20634920634922 81.90476190476191,189.20634920634922 81.26984126984128,188.99470899470901 80.63492063492065,188.99470899470901 80.0,188.99470899470901 79.36507936507937,188.99470899470901 78.73015873015873,189.20634920634922 78.0952380952381,189.41798941798945 77.46031746031747,189.62962962962965 76.82539682539684,190.05291005291008 76.19047619047619,190.26455026455028 75.76719576719577,190.6878306878307 75.34391534391536,191.11111111111111 74.92063492063492,191.53439153439155 74.49735449735451,191.95767195767198 74.07407407407408,192.3809523809524 73.65079365079366,193.01587301587304 73.22751322751323,193.65079365079367 73.01587301587303,194.2857142857143 72.80423280423281,194.92063492063494 72.5925925925926,195.55555555555557 72.38095238095238,196.1904761904762 72.38095238095238,196.82539682539684 72.38095238095238,197.46031746031747 72.38095238095238,198.0952380952381 72.38095238095238,198.73015873015873 72.38095238095238,199.36507936507937 72.5925925925926,200.00000000000003 72.5925925925926,200.63492063492066 72.5925925925926,201.2698412698413 72.80423280423281,201.90476190476193 72.80423280423281,202.53968253968256 72.80423280423281,203.1746031746032 72.80423280423281,203.80952380952382 72.80423280423281,204.44444444444446 72.80423280423281,205.0793650793651 72.5925925925926,205.71428571428572 72.5925925925926,206.34920634920636 72.38095238095238,206.984126984127 72.38095238095238,207.61904761904765 72.16931216931218,208.25396825396828 71.95767195767196,208.8888888888889 71.74603174603175,209.52380952380955 71.53439153439155,210.15873015873018 71.32275132275133,210.7936507936508 70.8994708994709,211.42857142857144 70.8994708994709,212.06349206349208 70.47619047619048,212.6984126984127 70.05291005291006,213.12169312169314 69.62962962962963,213.54497354497357 69.20634920634922,213.96825396825398 68.57142857142858,214.3915343915344 67.93650793650794,214.6031746031746 67.3015873015873,214.81481481481484 66.66666666666667,215.02645502645504 66.03174603174604,215.23809523809524 65.3968253968254,215.44973544973547 64.76190476190477,215.66137566137567 64.12698412698413,215.66137566137567 63.492063492063494,215.66137566137567 62.85714285714286,215.8730158730159 62.22222222222223,215.8730158730159 61.58730158730159,215.8730158730159 60.952380952380956,215.8730158730159 60.31746031746032,215.66137566137567 59.682539682539684,215.66137566137567 59.04761904761905,215.66137566137567 58.41269841269842,215.44973544973547 57.777777777777786,215.66137566137567 57.142857142857146,215.44973544973547 56.50793650793651,215.23809523809524 55.87301587301588,215.23809523809524 55.23809523809524,215.02645502645504 54.60317460317461,214.6031746031746 53.968253968253975,214.3915343915344 53.333333333333336,214.1798941798942 52.91005291005291,213.75661375661377 52.27513227513228,213.33333333333334 51.640211640211646,212.91005291005294 51.00529100529101,212.4867724867725 50.370370370370374,212.06349206349208 49.73544973544974,211.64021164021165 49.1005291005291,211.21693121693124 48.677248677248684,210.7936507936508 48.25396825396826,210.37037037037038 47.830687830687836,209.94708994708995 47.40740740740741,209.31216931216932 46.98412698412699,208.67724867724868 46.77248677248678,208.04232804232805 46.560846560846564,207.40740740740742 46.560846560846564,206.7724867724868 46.349206349206355,206.13756613756615 46.349206349206355,205.50264550264552 46.349206349206355,204.8677248677249 46.349206349206355,204.23280423280426 46.349206349206355,203.59788359788362 46.560846560846564,202.962962962963 46.77248677248678,202.32804232804233 46.98412698412699,201.6931216931217 47.195767195767196,201.05820105820106 47.40740740740741,200.42328042328043 47.830687830687836,199.7883597883598 48.042328042328045,199.15343915343917 48.46560846560847,198.73015873015873 48.88888888888889,198.0952380952381 49.1005291005291,197.46031746031747 49.523809523809526,196.82539682539684 49.94708994708995,196.1904761904762 50.370370370370374,195.55555555555557 50.7936507936508,194.92063492063494 51.21693121693122,194.2857142857143 51.42857142857143,193.65079365079367 51.851851851851855,193.01587301587304 52.06349206349207,192.3809523809524 52.27513227513228,191.74603174603175 52.48677248677249,191.11111111111111 52.6984126984127,190.47619047619048 52.91005291005291,189.84126984126985 53.12169312169313,189.20634920634922 53.12169312169313,188.57142857142858 53.12169312169313,187.93650793650795 53.12169312169313,187.30158730158732 52.91005291005291,186.66666666666669 52.6984126984127,186.03174603174605 52.48677248677249,185.39682539682542 52.06349206349207,184.7619047619048 51.640211640211646,184.12698412698415 51.21693121693122,183.4920634920635 50.7936507936508,183.0687830687831 50.370370370370374,182.64550264550266 49.94708994708995,182.22222222222223 49.31216931216932,181.79894179894183 48.677248677248684,181.5873015873016 48.042328042328045,181.3756613756614 47.40740740740741,181.16402116402116 46.77248677248678,180.95238095238096 46.13756613756614,180.95238095238096 45.50264550264551,180.95238095238096 44.867724867724874,180.95238095238096 44.232804232804234,180.95238095238096 43.5978835978836,181.16402116402116 42.96296296296297,181.16402116402116 42.32804232804233,181.3756613756614 41.6931216931217,181.3756613756614 41.058201058201064,181.16402116402116 40.423280423280424,181.16402116402116 39.78835978835979,181.3756613756614 39.15343915343916,181.3756613756614 38.51851851851852,181.3756613756614 37.883597883597886,181.5873015873016 37.248677248677254,181.5873015873016 36.613756613756614,181.5873015873016 35.97883597883598,181.5873015873016 35.34391534391535,181.5873015873016 34.70899470899471,181.5873015873016 34.074074074074076,181.5873015873016 33.43915343915344,181.5873015873016 32.804232804232804,181.5873015873016 32.16931216931217,181.5873015873016 31.53439153439154,181.5873015873016 30.899470899470902,181.5873015873016 30.264550264550266,181.5873015873016 29.629629629629633,181.5873015873016 28.994708994708997,181.5873015873016 28.35978835978836,181.5873015873016 27.724867724867728,181.5873015873016 27.089947089947092,181.3756613756614 26.455026455026456,181.3756613756614 25.820105820105823,181.3756613756614 25.185185185185187,181.3756613756614 24.55026455026455,181.16402116402116 23.915343915343918,181.16402116402116 23.280423280423282,181.16402116402116 22.645502645502646,181.16402116402116 22.010582010582013,181.16402116402116 21.375661375661377,181.16402116402116 20.740740740740744,180.95238095238096 20.105820105820108,180.95238095238096 16.50793650793651,180.74074074074076" style="fill:none; stroke:#00aa99; stroke-width:1.0"  /><polyline points="16.50793650793651,180.74074074074076 17.98941798941799,177.35449735449737 18.201058201058203,176.71957671957674 18.624338624338627,176.0846560846561 18.83597883597884,175.44973544973547 19.047619047619047,174.81481481481484 19.47089947089947,174.1798941798942 19.682539682539684,173.54497354497354 20.105820105820108,172.9100529100529 20.31746031746032,172.27513227513228 20.529100529100532,171.64021164021165 20.740740740740744,171.005291005291 21.164021164021165,170.37037037037038 21.375661375661377,169.73544973544975 21.58730158730159,169.10052910052912 22.010582010582013,168.46560846560848 22.222222222222225,167.83068783068785 22.433862433862437,167.19576719576722 22.645502645502646,166.56084656084658 22.857142857142858,165.92592592592595 23.06878306878307,165.2910052910053 23.492063492063494,164.65608465608466 23.703703703703706,164.02116402116403 23.915343915343918,163.3862433862434 24.12698412698413,162.75132275132276 24.338624338624342,162.11640211640213 24.55026455026455,161.4814814814815 24.973544973544975,160.84656084656086 25.185185185185187,160.21164021164023 25.3968253968254,159.5767195767196 25.60846560846561,158.94179894179896 25.820105820105823,158.30687830687833 26.031746031746035,157.67195767195767 26.243386243386244,157.03703703703704 26.455026455026456,156.4021164021164 26.87830687830688,155.76719576719577 27.089947089947092,155.13227513227514 27.301587301587304,154.4973544973545 27.513227513227516,153.86243386243387 27.724867724867728,153.22751322751324 27.93650793650794,152.5925925925926 28.14814814814815,151.95767195767198 28.14814814814815,151.32275132275134 28.35978835978836,150.6878306878307 28.571428571428573,150.05291005291005 28.783068783068785,149.41798941798942 28.994708994708997,148.78306878306879 29.20634920634921,148.14814814814815 29.20634920634921,147.51322751322752 29.41798941798942,146.8783068783069 29.629629629629633,146.24338624338625 29.841269841269842,145.60846560846562 30.052910052910054,144.973544973545 30.264550264550266,144.33862433862436 30.476190476190478,143.70370370370372 30.68783068783069,143.0687830687831 30.68783068783069,142.43386243386246 30.899470899470902,141.7989417989418 31.111111111111114,141.16402116402116 31.322751322751326,140.52910052910053 31.53439153439154,139.8941798941799 31.746031746031747,139.25925925925927 31.95767195767196,138.62433862433863 32.16931216931217,137.989417989418 32.38095238095239,137.35449735449737 32.592592592592595,136.71957671957674 32.592592592592595,136.0846560846561 32.804232804232804,135.44973544973547 33.01587301587302,134.81481481481484 33.22751322751323,134.17989417989418 33.43915343915344,133.54497354497354 33.65079365079365,132.9100529100529 33.65079365079365,132.27513227513228 33.86243386243387,131.64021164021165 34.074074074074076,131.005291005291 34.28571428571429,130.37037037037038 34.4973544973545,129.73544973544975 34.70899470899471,129.10052910052912 34.70899470899471,128.46560846560848 34.920634920634924,127.83068783068784 35.13227513227513,127.1957671957672 35.34391534391535,126.56084656084657 35.34391534391535,125.92592592592594 35.55555555555556,125.2910052910053 35.76719576719577,124.65608465608466 35.97883597883598,124.02116402116403 36.19047619047619,123.3862433862434 36.402116402116405,122.75132275132276 36.613756613756614,122.11640211640213 36.82539682539683,121.4814814814815 36.82539682539683,120.84656084656086 37.03703703703704,120.21164021164022 37.248677248677254,119.57671957671958 37.46031746031746,118.94179894179895 37.46031746031746,118.30687830687832 37.67195767195768,117.67195767195768 37.883597883597886,117.03703703703705 37.883597883597886,116.4021164021164 38.095238095238095,115.76719576719577 38.095238095238095,115.13227513227514 38.30687830687831,114.49735449735451 38.51851851851852,113.86243386243387 38.51851851851852,113.22751322751324 38.730158730158735,112.5925925925926 38.94179894179894,111.95767195767196 39.15343915343916,111.32275132275133 39.15343915343916,110.6878306878307 39.36507936507937,110.05291005291006 39.36507936507937,109.41798941798943 39.57671957671958,108.78306878306879 39.57671957671958,108.14814814814815 39.57671957671958,107.51322751322752 39.78835978835979,106.87830687830689 39.78835978835979,106.24338624338625 39.78835978835979,105.60846560846562 39.78835978835979,104.97354497354497 39.78835978835979,104.33862433862434 39.78835978835979,103.70370370370371 39.78835978835979,103.06878306878308 39.78835978835979,102.43386243386244 39.78835978835979,101.79894179894181 39.78835978835979,101.16402116402116 39.57671957671958,100.52910052910053 39.57671957671958,99.8941798941799 39.57671957671958,99.25925925925927 39.36507936507937,98.62433862433863 39.36507936507937,97.989417989418 39.15343915343916,97.35449735449737 39.15343915343916,96.71957671957672 38.94179894179894,96.08465608465609 38.730158730158735,95.44973544973546 38.730158730158735,94.81481481481482 38.51851851851852,94.17989417989419 38.30687830687831,93.54497354497356 38.095238095238095,92.91005291005291 37.883597883597886,92.27513227513228 37.46031746031746,91.64021164021165 37.248677248677254,91.00529100529101 37.03703703703704,90.37037037037038 36.613756613756614,89.73544973544975 36.402116402116405,89.1005291005291 36.19047619047619,88.46560846560847 35.76719576719577,87.83068783068784 35.55555555555556,87.1957671957672 35.13227513227513,86.56084656084657 34.920634920634924,85.92592592592594 34.4973544973545,85.5026455026455 34.074074074074076,84.86772486772487 33.86243386243387,84.23280423280424 33.43915343915344,83.80952380952381 33.01587301587302,83.3862433862434 32.592592592592595,82.96296296296298 32.16931216931217,82.32804232804233 31.53439153439154,81.90476190476191 30.899470899470902,81.6931216931217 30.264550264550266,81.26984126984128 29.629629629629633,81.05820105820106 28.994708994708997,81.05820105820106 28.35978835978836,80.84656084656085 27.724867724867728,80.84656084656085 27.089947089947092,80.84656084656085 26.455026455026456,80.84656084656085 25.820105820105823,80.84656084656085 25.185185185185187,80.84656084656085 24.55026455026455,81.05820105820106 23.915343915343918,81.05820105820106 23.280423280423282,81.26984126984128 22.645502645502646,81.26984126984128 22.222222222222225,81.6931216931217 21.58730158730159,81.90476190476191 20.952380952380953,81.90476190476191 20.31746031746032,82.11640211640213 19.682539682539684,82.32804232804233 19.047619047619047,82.32804232804233 18.412698412698415,82.53968253968254 17.77777777777778,82.53968253968254 17.142857142857146,82.75132275132276 16.50793650793651,82.75132275132276 15.873015873015873,82.96296296296298 15.238095238095239,82.96296296296298 14.603174603174605,82.96296296296298 13.96825396825397,82.96296296296298 13.333333333333334,82.96296296296298 12.6984126984127,82.96296296296298 12.063492063492065,82.96296296296298 11.428571428571429,82.96296296296298 10.793650793650794,82.75132275132276 10.15873015873016,82.75132275132276 9.523809523809524,82.53968253968254 8.88888888888889,82.53968253968254 8.253968253968255,82.32804232804233 7.6190476190476195,82.11640211640213 6.984126984126985,81.6931216931217 6.34920634920635,81.48148148148148 5.9259259259259265,81.05820105820106 5.502645502645503,80.63492063492065 5.07936507936508,80.21164021164022 4.656084656084657,79.7883597883598 4.2328042328042335,79.15343915343917 3.8095238095238098,78.51851851851852 3.3862433862433865,77.88359788359789 2.9629629629629632,77.24867724867725 2.7513227513227516,76.61375661375662 2.3280423280423284,75.97883597883599 2.1164021164021167,75.34391534391536 1.9047619047619049,74.70899470899471 1.6931216931216932,74.07407407407408 1.4814814814814816,73.43915343915344 1.26984126984127,72.80423280423281 1.0582010582010584,72.16931216931218 1.0582010582010584,71.53439153439155 0.8465608465608466,70.8994708994709 0.634920634920635,70.26455026455027 0.634920634920635,69.62962962962963 0.4232804232804233,68.994708994709 0.4232804232804233,68.35978835978837 0.4232804232804233,67.72486772486774 0.4232804232804233,67.08994708994709 0.21164021164021166,66.45502645502646 0.21164021164021166,65.82010582010582 0.21164021164021166,65.18518518518519 0.4232804232804233,64.55026455026456 0.4232804232804233,63.91534391534392 0.634920634920635,63.280423280423285 0.634920634920635,62.64550264550265 0.8465608465608466,62.01058201058201 1.0582010582010584,61.37566137566138 1.26984126984127,60.74074074074075 1.4814814814814816,60.10582010582011 1.6931216931216932,59.470899470899475 1.9047619047619049,58.83597883597884 2.1164021164021167,58.2010582010582 2.3280423280423284,57.56613756613757 2.53968253968254,56.93121693121694 2.9629629629629632,56.2962962962963 3.3862433862433865,55.661375661375665 3.8095238095238098,55.02645502645503 4.2328042328042335,54.39153439153439 4.656084656084657,53.75661375661376 5.07936507936508,53.333333333333336 5.502645502645503,52.91005291005291 5.9259259259259265,52.48677248677249 6.34920634920635,52.06349206349207 6.772486772486773,51.640211640211646 7.407407407407408,51.21693121693122 7.830687830687832,50.7936507936508 8.465608465608467,50.58201058201058 9.100529100529101,50.370370370370374 9.523809523809524,49.94708994708995 10.15873015873016,49.73544973544974 10.793650793650794,49.523809523809526 11.216931216931219,48.88888888888889 11.851851851851853,49.1005291005291 12.486772486772487,48.677248677248684 13.121693121693122,48.46560846560847 13.756613756613758,48.25396825396826 14.391534391534393,48.25396825396826 14.814814814814817,47.61904761904762 15.449735449735451,47.830687830687836 16.084656084656086,47.61904761904762 16.71957671957672,47.40740740740741 17.354497354497354,47.40740740740741 17.98941798941799,47.61904761904762 18.624338624338627,47.61904761904762 19.25925925925926,47.830687830687836 19.894179894179896,48.042328042328045 20.529100529100532,48.042328042328045 21.164021164021165,48.25396825396826 21.7989417989418,48.46560846560847 22.433862433862437,48.46560846560847 23.492063492063494,48.677248677248684 24.12698412698413,48.88888888888889 24.761904761904763,49.1005291005291 25.3968253968254,49.523809523809526 26.031746031746035,49.73544973544974 26.455026455026456,50.158730158730165 27.089947089947092,50.370370370370374 27.724867724867728,50.58201058201058 28.14814814814815,51.00529100529101 28.571428571428573,51.42857142857143 28.994708994708997,51.851851851851855 29.41798941798942,52.27513227513228 29.841269841269842,52.6984126984127 30.264550264550266,53.12169312169313 30.68783068783069,53.75661375661376 31.111111111111114,54.179894179894184 31.53439153439154,54.60317460317461 31.746031746031747,55.23809523809524 32.16931216931217,55.661375661375665 32.592592592592595,56.08465608465609 33.01587301587302,56.71957671957672 33.22751322751323,57.35449735449736 33.65079365079365,57.777777777777786 34.074074074074076,58.2010582010582 34.4973544973545,58.62433862433863 34.920634920634924,59.25925925925927 35.34391534391535,59.682539682539684 35.76719576719577,60.10582010582011 36.19047619047619,60.52910052910053 36.82539682539683,60.952380952380956 37.248677248677254,61.37566137566138 37.883597883597886,61.798941798941804 38.30687830687831,62.22222222222223 38.94179894179894,62.43386243386244 39.57671957671958,62.85714285714286 40.211640211640216,63.06878306878308 40.63492063492064,63.492063492063494 41.26984126984127,63.492063492063494 41.904761904761905,63.70370370370371 42.539682539682545,63.70370370370371 43.17460317460318,63.70370370370371 43.80952380952381,63.70370370370371 44.44444444444445,63.492063492063494 45.07936507936508,63.06878306878308 45.714285714285715,62.85714285714286 46.13756613756614,62.43386243386244 46.77248677248678,62.01058201058201 47.40740740740741,61.58730158730159 48.042328042328045,61.16402116402117 48.46560846560847,60.52910052910053 48.88888888888889,59.8941798941799 49.31216931216932,59.470899470899475 49.523809523809526,58.83597883597884 49.94708994708995,58.41269841269842 50.158730158730165,57.777777777777786 50.58201058201058,57.142857142857146 51.00529100529101,56.50793650793651 51.21693121693122,55.87301587301588 51.640211640211646,55.23809523809524 52.06349206349207,54.60317460317461 52.27513227513228,53.968253968253975 52.6984126984127,53.333333333333336 52.91005291005291,52.6984126984127 53.12169312169313,52.06349206349207 53.333333333333336,51.42857142857143 53.75661375661376,50.7936507936508 53.968253968253975,50.158730158730165 54.179894179894184,49.523809523809526 54.179894179894184,48.88888888888889 54.39153439153439,48.25396825396826 54.60317460317461,47.61904761904762 54.81481481481482,46.98412698412699 54.60317460317461,46.349206349206355 54.81481481481482,45.714285714285715 54.81481481481482,45.07936507936508 55.02645502645503,44.44444444444445 55.02645502645503,43.80952380952381 55.02645502645503,43.17460317460318 55.23809523809524,42.539682539682545 55.23809523809524,41.904761904761905 55.23809523809524,41.26984126984127 55.23809523809524,40.63492063492064 55.449735449735456,40.0 55.449735449735456,39.36507936507937 55.449735449735456,38.730158730158735 55.449735449735456,38.095238095238095 55.449735449735456,37.46031746031746 55.449735449735456,36.82539682539683 55.661375661375665,36.19047619047619 55.661375661375665,35.55555555555556 55.661375661375665,34.920634920634924 55.661375661375665,34.28571428571429 55.661375661375665,33.65079365079365 55.87301587301588,33.01587301587302 55.87301587301588,32.38095238095239 55.87301587301588,31.746031746031747 55.87301587301588,31.111111111111114 55.87301587301588,30.476190476190478 55.87301587301588,29.841269841269842 55.87301587301588,29.20634920634921 55.87301587301588,28.571428571428573 55.87301587301588,27.93650793650794 55.87301587301588,27.301587301587304 55.87301587301588,26.666666666666668 55.87301587301588,26.031746031746035 55.87301587301588,25.3968253968254 55.87301587301588,24.761904761904763 56.08465608465609,24.12698412698413 56.08465608465609,23.492063492063494 56.08465608465609,22.857142857142858 56.08465608465609,22.222222222222225 56.2962962962963,21.58730158730159 56.50793650793651,17.566137566137566" style="fill:none; stroke:#3300bb; stroke-width:1.0"  /><circle cx="56.50793650793651" cy="17.566137566137566" r="2.0" style="fill:none; stroke:#000000aa; stroke-width:0.25" /><circle cx="173.96825396825398" cy="46.560846560846564" r="2.0" style="fill:none; stroke:#000000aa; stroke-width:0.25" /><circle cx="110.89947089947091" cy="204.8677248677249" r="2.0" style="fill:none; stroke:#000000aa; stroke-width:0.25" /><circle cx="16.50793650793651" cy="180.74074074074076" r="2.0" style="fill:none; stroke:#000000aa; stroke-width:0.25" /><circle cx="57.56613756613757" cy="18.624338624338627" r="2.0" style="fill:none; stroke:#ff3366aa; stroke-width:0.25" /><circle cx="173.54497354497354" cy="47.40740740740741" r="2.0" style="fill:none; stroke:#ff3366aa; stroke-width:0.25" /><circle cx="110.89947089947091" cy="204.44444444444446" r="2.0" style="fill:none; stroke:#ff3366aa; stroke-width:0.25" /><circle cx="16.931216931216934" cy="180.52910052910053" r="2.0" style="fill:none; stroke:#ff3366aa; stroke-width:0.25" /><polyline points="67.08994708994709,25.60846560846561 66.45502645502646,25.185185185185187 66.03174603174604,24.761904761904763 65.3968253968254,24.338624338624342 64.76190476190477,23.915343915343918 64.33862433862434,23.492063492063494 63.91534391534392,23.06878306878307 63.280423280423285,22.857142857142858 62.85714285714286,22.433862433862437 62.22222222222223,22.010582010582013 61.58730158730159,21.58730158730159 61.16402116402117,21.164021164021165 60.52910052910053,20.740740740740744 60.10582010582011,20.31746031746032" style="fill:none; stroke:#001100; stroke-width:1.0" /><polyline points="55.87301587301588,30.476190476190478 55.87301587301588,29.841269841269842 55.87301587301588,29.20634920634921 55.87301587301588,28.571428571428573 55.87301587301588,27.93650793650794 55.87301587301588,27.301587301587304 55.87301587301588,26.666666666666668 55.87301587301588,26.031746031746035 55.87301587301588,25.3968253968254 55.87301587301588,24.761904761904763 56.08465608465609,24.12698412698413 56.08465608465609,23.492063492063494 56.08465608465609,22.857142857142858 56.08465608465609,22.222222222222225 56.2962962962963,21.58730158730159" style="fill:none; stroke:#000011; stroke-width:1.0" /><polyline points="168.8888888888889,58.41269841269842 169.10052910052912,57.777777777777786 169.31216931216932,57.142857142857146 169.52380952380955,56.50793650793651 169.73544973544975,55.87301587301588 170.15873015873018,55.23809523809524 170.37037037037038,54.60317460317461 170.58201058201058,53.968253968253975 171.005291005291,53.54497354497355 171.21693121693124,52.91005291005291 171.42857142857144,52.27513227513228 171.85185185185188,51.851851851851855 172.06349206349208,51.21693121693122 172.27513227513228,50.58201058201058" style="fill:none; stroke:#001100; stroke-width:1.0" /><polyline points="161.90476190476193,46.98412698412699 162.53968253968256,46.77248677248678 163.1746031746032,46.77248677248678 163.80952380952382,46.77248677248678 164.44444444444446,46.77248677248678 165.0793650793651,46.77248677248678 165.71428571428572,46.77248677248678 166.34920634920636,46.77248677248678 166.984126984127,46.77248677248678 167.61904761904762,46.77248677248678 168.25396825396825,46.77248677248678 168.8888888888889,46.77248677248678 169.52380952380955,46.77248677248678 170.15873015873018,46.77248677248678" style="fill:none; stroke:#000011; stroke-width:1.0" /><polyline points="100.52910052910053,199.36507936507937 101.16402116402116,199.7883597883598 101.79894179894181,200.00000000000003 102.43386243386244,200.42328042328043 103.06878306878308,200.63492063492066 103.70370370370371,201.05820105820106 104.33862433862434,201.4814814814815 104.97354497354497,201.6931216931217 105.3968253968254,202.11640211640213 106.03174603174604,202.32804232804233 106.66666666666667,202.53968253968256 107.0899470899471,202.962962962963 107.72486772486774,203.1746031746032" style="fill:none; stroke:#001100; stroke-width:1.0" /><polyline points="114.92063492063492,193.65079365079367 114.49735449735451,194.2857142857143 114.28571428571429,194.92063492063494 114.07407407407408,195.55555555555557 113.65079365079366,196.1904761904762 113.43915343915344,196.82539682539684 113.22751322751324,197.46031746031747 113.01587301587303,198.0952380952381 112.80423280423281,198.73015873015873 112.5925925925926,199.36507936507937 112.3809523809524,200.00000000000003 112.3809523809524,200.63492063492066 112.16931216931218,201.2698412698413" style="fill:none; stroke:#000011; stroke-width:1.0" /><polyline points="21.375661375661377,169.73544973544975 21.164021164021165,170.37037037037038 20.740740740740744,171.005291005291 20.529100529100532,171.64021164021165 20.31746031746032,172.27513227513228 20.105820105820108,172.9100529100529 19.682539682539684,173.54497354497354 19.47089947089947,174.1798941798942 19.047619047619047,174.81481481481484 18.83597883597884,175.44973544973547 18.624338624338627,176.0846560846561 18.201058201058203,176.71957671957674 17.98941798941799,177.35449735449737" style="fill:none; stroke:#001100; stroke-width:1.0" /><polyline points="28.35978835978836,181.5873015873016 27.724867724867728,181.5873015873016 27.089947089947092,181.3756613756614 26.455026455026456,181.3756613756614 25.820105820105823,181.3756613756614 25.185185185185187,181.3756613756614 24.55026455026455,181.16402116402116 23.915343915343918,181.16402116402116 23.280423280423282,181.16402116402116 22.645502645502646,181.16402116402116 22.010582010582013,181.16402116402116 21.375661375661377,181.16402116402116 20.740740740740744,180.95238095238096 20.105820105820108,180.95238095238096" style="fill:none; stroke:#000011; stroke-width:1.0" /><polyline points="60.10582010582011,20.31746031746032 43.17460317460318,7.6190476190476195" style="fill:none; stroke:#ffaa00; stroke-width:0.4" /><polyline points="56.2962962962963,21.58730158730159 57.35449735449736,0.4232804232804233" style="fill:none; stroke:#aaff00; stroke-width:0.4" /><polyline points="172.27513227513228,50.58201058201058 180.74074074074076,31.111111111111114" style="fill:none; stroke:#ffaa00; stroke-width:0.4" /><polyline points="170.15873015873018,46.77248677248678 191.32275132275134,46.13756613756614" style="fill:none; stroke:#aaff00; stroke-width:0.4" /><polyline points="107.72486772486774,203.1746031746032 126.34920634920636,213.12169312169314" style="fill:none; stroke:#ffaa00; stroke-width:0.4" /><polyline points="112.16931216931218,201.2698412698413 104.97354497354497,221.1640211640212" style="fill:none; stroke:#aaff00; stroke-width:0.4" /><polyline points="17.98941798941799,177.35449735449737 9.312169312169313,196.61375661375664" style="fill:none; stroke:#ffaa00; stroke-width:0.4" /><polyline points="20.105820105820108,180.95238095238096 -1.0582010582010584,179.25925925925927" style="fill:none; stroke:#aaff00; stroke-width:0.4" /><circle cx="85.29100529100529" cy="107.3015873015873" r="1.0" style="fill:#444444; stroke-width:0" /><circle cx="72.16931216931218" cy="146.8783068783069" r="10.582010582010582" style="fill:#ff770022; stroke-width:0" /><circle cx="72.16931216931218" cy="146.8783068783069" r="1.0" style="fill:#ff7700; stroke-width:0" /></svg>