<?xml version="1.0" encoding="UTF-8" standalone="no"?><svg width="436.1904761904762" height="518.7301587301588" viewBox="-10 -10 165.39682539682542 192.9100529100529" xmlns="http://www.w3.org/2000/svg" xmlns:xlink="http://www.w3.org/1999/xlink"><polyline points="73.65079365079366,0.0 76.82539682539684,1.9047619047619049 77.46031746031747,2.1164021164021167 77.88359788359789,2.53968253968254 78.51851851851852,2.7513227513227516 78.94179894179895,3.174603174603175 79.57671957671958,3.597883597883598 80.21164021164022,4.021164021164021 80.84656084656085,4.2328042328042335 81.26984126984128,4.656084656084657 81.90476190476191,4.867724867724868 82.32804232804233,5.291005291005291 82.96296296296298,5.714285714285714 83.59788359788361,6.137566137566138 84.23280423280424,6.560846560846561 84.86772486772487,6.772486772486773 85.29100529100529,7.195767195767196 85.92592592592594,7.407407407407408 86.34920634920636,7.830687830687832 86.98412698412699,8.253968253968255 87.61904761904762,8.677248677248677 88.25396825396827,9.100529100529101 88.8888888888889,9.523809523809524 89.31216931216932,9.947089947089948 89.94708994708995,10.15873015873016 90.37037037037038,10.582010582010582 90.7936507936508,11.005291005291006 91.42857142857143,11.428571428571429 91.85185185185186,11.851851851851853 92.27513227513228,12.275132275132275 92.69841269841271,12.6984126984127 92.91005291005291,13.333333333333334 93.33333333333334,13.96825396825397 93.54497354497356,14.603174603174605 93.75661375661376,15.238095238095239 94.17989417989419,15.873015873015873 94.17989417989419,16.50793650793651 94.17989417989419,17.142857142857146 94.17989417989419,17.77777777777778 94.17989417989419,18.412698412698415 94.17989417989419,19.047619047619047 93.96825396825398,19.682539682539684 93.75661375661376,20.31746031746032 93.33333333333334,20.952380952380953 93.12169312169313,21.58730158730159 92.69841269841271,22.010582010582013 92.27513227513228,22.645502645502646 91.85185185185186,23.06878306878307 91.42857142857143,23.703703703703706 91.00529100529101,24.12698412698413 90.58201058201058,24.55026455026455 90.15873015873017,24.973544973544975 89.73544973544975,25.3968253968254 89.31216931216932,25.820105820105823 88.8888888888889,26.243386243386244 88.25396825396827,26.666666666666668 87.83068783068784,27.089947089947092 87.1957671957672,27.513227513227516 86.77248677248677,27.93650793650794 86.13756613756614,28.35978835978836 85.71428571428572,28.783068783068785 85.29100529100529,29.20634920634921 84.86772486772487,29.629629629629633 84.44444444444446,30.052910052910054 84.02116402116403,30.68783068783069 83.59788359788361,31.322751322751326 83.17460317460318,31.95767195767196 82.96296296296298,32.592592592592595 82.53968253968254,33.22751322751323 82.32804232804233,33.86243386243387 82.11640211640213,34.4973544973545 81.90476190476191,35.13227513227513 81.6931216931217,35.76719576719577 81.48148148148148,36.402116402116405 81.26984126984128,37.03703703703704 81.05820105820106,37.67195767195768 81.05820105820106,38.30687830687831 80.84656084656085,38.94179894179894 80.84656084656085,39.57671957671958 80.84656084656085,40.211640211640216 80.84656084656085,40.84656084656085 80.84656084656085,41.48148148148149 80.84656084656085,42.11640211640212 81.05820105820106,42.75132275132275 80.84656084656085,43.386243386243386 81.05820105820106,44.021164021164026 81.26984126984128,44.65608465608466 81.6931216931217,45.29100529100529 82.11640211640213,45.92592592592593 82.53968253968254,46.560846560846564 82.96296296296298,47.195767195767196 83.3862433862434,47.61904761904762 83.80952380952381,48.042328042328045 84.44444444444446,48.46560846560847 84.86772486772487,48.88888888888889 85.5026455026455,49.31216931216932 86.13756613756614,49.73544973544974 86.77248677248677,50.158730158730165 87.40740740740742,50.370370370370374 88.04232804232805,50.58201058201058 88.67724867724868,50.7936507936508 89.31216931216932,51.21693121693122 89.94708994708995,51.42857142857143 90.58201058201058,51.851851851851855 91.21693121693123,52.06349206349207 91.85185185185186,52.27513227513228 92.4867724867725,52.06349206349207 93.12169312169313,52.27513227513228 93.75661375661376,52.27513227513228 94.39153439153439,52.48677248677249 95.02645502645504,52.48677248677249 95.66137566137567,52.6984126984127 96.2962962962963,52.6984126984127 96.93121693121694,52.6984126984127 97.56613756613757,52.91005291005291 98.2010582010582,52.6984126984127 98.83597883597885,52.6984126984127 99.47089947089948,52.6984126984127 100.10582010582011,52.6984126984127 100.74074074074075,52.6984126984127 101.37566137566138,52.48677248677249 102.01058201058201,52.48677248677249 102.64550264550266,52.27513227513228 103.28042328042329,52.27513227513228 103.91534391534393,52.27513227513228 104.55026455026456,52.06349206349207 105.18518518518519,52.06349206349207 105.82010582010582,51.640211640211646 106.45502645502647,51.640211640211646 106.87830687830689,51.21693121693122 107.51322751322752,50.7936507936508 108.14814814814815,50.370370370370374 108.57142857142858,49.73544973544974 108.994708994709,49.31216931216932 109.41798941798943,48.677248677248684 109.62962962962963,48.042328042328045 110.05291005291006,47.40740740740741 110.26455026455027,46.77248677248678 110.47619047619048,46.13756613756614 110.6878306878307,45.50264550264551 110.89947089947091,44.867724867724874 111.11111111111111,44.232804232804234 111.32275132275133,43.5978835978836 111.53439153439155,42.96296296296297 111.53439153439155,42.32804232804233 111.74603174603176,41.6931216931217 111.74603174603176,41.058201058201064 111.95767195767196,40.423280423280424 111.95767195767196,39.78835978835979 111.95767195767196,39.15343915343916 111.95767195767196,38.51851851851852 111.95767195767196,37.883597883597886 111.95767195767196,37.248677248677254 111.95767195767196,36.613756613756614 111.95767195767196,35.97883597883598 111.95767195767196,35.34391534391535 111.95767195767196,34.70899470899471 111.95767195767196,34.074074074074076 111.95767195767196,33.43915343915344 111.95767195767196,32.804232804232804 111.95767195767196,32.16931216931217 111.95767195767196,31.53439153439154 111.95767195767196,30.899470899470902 112.16931216931218,30.264550264550266 112.3809523809524,29.629629629629633 112.5925925925926,28.994708994708997 112.80423280423281,28.35978835978836 113.22751322751324,27.93650793650794 113.65079365079366,27.513227513227516 114.07407407407408,27.089947089947092 114.49735449735451,26.666666666666668 115.13227513227514,26.243386243386244 115.76719576719577,25.820105820105823 116.1904761904762,25.3968253968254 116.82539682539684,25.3968253968254 117.24867724867725,24.973544973544975 117.88359788359789,24.973544973544975 118.51851851851853,24.973544973544975 119.15343915343917,24.973544973544975 119.57671957671958,25.3968253968254 120.21164021164022,25.185185185185187 120.84656084656086,25.3968253968254 121.26984126984128,25.820105820105823 121.90476190476191,25.820105820105823 122.53968253968254,26.243386243386244 122.96296296296298,26.666666666666668 123.59788359788361,26.87830687830688 124.02116402116403,27.301587301587304 124.65608465608466,27.724867724867728 125.2910052910053,28.14814814814815 125.71428571428572,28.571428571428573 126.13756613756615,28.994708994708997 126.77248677248679,29.41798941798942 127.40740740740742,29.841269841269842 127.83068783068784,30.264550264550266 128.46560846560848,30.68783068783069 129.10052910052912,31.111111111111114 129.52380952380955,31.53439153439154 129.94708994708995,31.95767195767196 130.37037037037038,32.38095238095239 130.7936507936508,32.804232804232804 131.42857142857144,33.22751322751323 132.06349206349208,33.65079365079365 132.4867724867725,34.074074074074076 132.9100529100529,34.4973544973545 133.54497354497354,34.920634920634924 134.17989417989418,35.34391534391535 134.81481481481484,35.76719576719577 135.44973544973547,36.19047619047619 135.87301587301587,36.613756613756614 136.5079365079365,37.03703703703704 137.14285714285717,37.248677248677254 137.7777777777778,37.67195767195768 138.41269841269843,38.095238095238095 138.83597883597884,38.51851851851852 139.47089947089947,38.730158730158735 139.8941798941799,39.15343915343916 140.52910052910053,39.57671957671958 141.16402116402116,39.78835978835979 141.5873015873016,40.211640211640216 142.22222222222223,40.423280423280424 145.39682539682542,42.539682539682545" style="fill:none; stroke:#cc0000; stroke-width:1.0"  /><polyline points="145.39682539682542,42.539682539682545 143.70370370370372,45.714285714285715 143.2804232804233,46.13756613756614 142.85714285714286,46.77248677248678 142.64550264550266,47.40740740740741 142.22222222222223,47.830687830687836 141.7989417989418,48.46560846560847 141.5873015873016,49.1005291005291 141.16402116402116,49.73544973544974 141.16402116402116,50.370370370370374 140.74074074074076,51.00529100529101 140.52910052910053,51.640211640211646 140.31746031746033,52.27513227513228 139.8941798941799,52.91005291005291 139.6825396825397,53.54497354497355 139.47089947089947,54.179894179894184 139.04761904761907,54.81481481481482 138.83597883597884,55.449735449735456 138.62433862433863,56.08465608465609 138.2010582010582,56.71957671957672 137.989417989418,57.35449735449736 137.7777777777778,57.989417989417994 137.56613756613757,58.62433862433863 137.35449735449737,59.25925925925927 136.93121693121694,59.8941798941799 136.93121693121694,60.52910052910053 136.5079365079365,61.16402116402117 136.2962962962963,61.798941798941804 136.0846560846561,62.43386243386244 135.87301587301587,63.06878306878308 135.66137566137567,63.70370370370371 135.44973544973547,64.33862433862434 135.23809523809524,64.97354497354497 135.02645502645504,65.60846560846561 134.81481481481484,66.24338624338625 134.6031746031746,66.87830687830689 134.3915343915344,67.51322751322752 134.17989417989418,68.14814814814815 133.75661375661377,68.78306878306879 133.54497354497354,69.41798941798942 133.33333333333334,70.05291005291006 133.12169312169314,70.6878306878307 132.9100529100529,71.32275132275133 132.6984126984127,71.95767195767196 132.4867724867725,72.5925925925926 132.27513227513228,73.22751322751323 131.85185185185185,73.86243386243387 131.64021164021165,74.49735449735451 131.42857142857144,75.13227513227514 131.21693121693121,75.76719576719577 131.005291005291,76.4021164021164 130.7936507936508,77.03703703703704 130.37037037037038,77.67195767195767 130.15873015873018,78.30687830687832 129.94708994708995,78.94179894179895 129.73544973544975,79.57671957671958 129.52380952380955,80.21164021164022 129.31216931216932,80.84656084656085 128.88888888888889,81.48148148148148 128.67724867724868,82.11640211640213 128.46560846560848,82.75132275132276 128.04232804232805,83.3862433862434 127.83068783068784,84.02116402116403 127.61904761904763,84.65608465608466 127.40740740740742,85.29100529100529 127.1957671957672,85.92592592592594 126.98412698412699,86.56084656084657 126.77248677248679,87.1957671957672 126.56084656084657,87.83068783068784 126.13756613756615,88.46560846560847 125.92592592592594,89.1005291005291 125.71428571428572,89.73544973544975 125.2910052910053,90.37037037037038 125.07936507936509,91.00529100529101 124.65608465608466,91.64021164021165 124.44444444444446,92.27513227513228 124.02116402116403,92.91005291005291 123.59788359788361,93.54497354497356 123.17460317460318,94.17989417989419 122.96296296296298,94.81481481481482 122.53968253968254,95.23809523809524 122.11640211640213,95.87301587301587 121.6931216931217,96.50793650793652 121.26984126984128,96.93121693121694 120.84656084656086,97.56613756613757 120.42328042328043,97.989417989418 120.00000000000001,98.41269841269842 119.57671957671958,99.04761904761905 118.94179894179895,99.47089947089948 118.51851851851853,99.8941798941799 118.0952380952381,100.31746031746033 117.46031746031747,100.74074074074075 117.03703703703705,101.16402116402116 116.4021164021164,101.5873015873016 115.76719576719577,101.79894179894181 115.13227513227514,102.01058201058201 114.49735449735451,102.22222222222223 113.86243386243387,102.43386243386244 113.22751322751324,102.43386243386244 112.5925925925926,102.43386243386244 111.95767195767196,102.43386243386244 111.32275132275133,102.01058201058201 110.6878306878307,101.79894179894181 110.05291005291006,101.37566137566138 109.41798941798943,100.95238095238096 108.994708994709,100.52910052910053 108.35978835978837,100.10582010582011 107.93650793650795,99.47089947089948 107.51322751322752,99.04761904761905 107.0899470899471,98.62433862433863 106.66666666666667,98.2010582010582 106.24338624338625,97.77777777777779 105.82010582010582,97.14285714285715 105.3968253968254,96.50793650793652 104.97354497354497,96.08465608465609 104.55026455026456,95.44973544973546 104.12698412698414,94.81481481481482 103.70370370370371,94.17989417989419 103.28042328042329,93.54497354497356 102.85714285714286,92.91005291005291 102.64550264550266,92.27513227513228 102.22222222222223,91.64021164021165 101.79894179894181,91.00529100529101 101.37566137566138,90.37037037037038 100.95238095238096,89.73544973544975 100.52910052910053,89.1005291005291 100.10582010582011,88.46560846560847 99.68253968253968,88.04232804232805 99.25925925925927,87.61904761904762 98.83597883597885,86.98412698412699 98.2010582010582,86.56084656084657 97.77777777777779,86.13756613756614 97.35449735449737,85.71428571428572 96.93121693121694,85.29100529100529 96.50793650793652,84.86772486772487 95.87301587301587,84.65608465608466 95.23809523809524,84.44444444444446 94.81481481481482,84.02116402116403 94.17989417989419,83.59788359788361 93.54497354497356,83.17460317460318 92.91005291005291,82.96296296296298 92.27513227513228,82.75132275132276 91.64021164021165,82.75132275132276 91.00529100529101,82.75132275132276 90.37037037037038,82.53968253968254 89.73544973544975,82.53968253968254 89.1005291005291,82.53968253968254 88.46560846560847,82.75132275132276 87.83068783068784,82.75132275132276 87.1957671957672,82.96296296296298 86.56084656084657,83.17460317460318 85.92592592592594,83.3862433862434 85.29100529100529,83.59788359788361 84.65608465608466,83.80952380952381 84.02116402116403,84.23280423280424 83.3862433862434,84.44444444444446 82.75132275132276,84.65608465608466 82.11640211640213,85.07936507936509 81.48148148148148,85.5026455026455 80.84656084656085,85.92592592592594 80.21164021164022,86.34920634920636 79.57671957671958,86.77248677248677 79.15343915343917,87.1957671957672 78.51851851851852,87.61904761904762 78.0952380952381,88.04232804232805 77.67195767195767,88.46560846560847 77.24867724867725,88.8888888888889 76.82539682539684,89.52380952380953 76.4021164021164,89.94708994708995 75.97883597883599,90.37037037037038 75.55555555555556,91.00529100529101 75.13227513227514,91.64021164021165 74.70899470899471,92.27513227513228 74.28571428571429,92.91005291005291 74.07407407407408,93.54497354497356 73.65079365079366,93.96825396825398 73.22751322751323,94.60317460317461 72.80423280423281,95.23809523809524 72.5925925925926,95.87301587301587 72.16931216931218,96.50793650793652 71.95767195767196,97.14285714285715 71.53439153439155,97.77777777777779 71.32275132275133,98.41269841269842 71.11111111111111,99.04761904761905 70.8994708994709,99.68253968253968 70.6878306878307,100.31746031746033 70.47619047619048,100.95238095238096 70.47619047619048,101.5873015873016 70.26455026455027,102.22222222222223 70.26455026455027,102.85714285714286 70.26455026455027,103.4920634920635 70.05291005291006,104.12698412698414 70.05291005291006,104.76190476190477 70.05291005291006,105.3968253968254 70.05291005291006,106.03174603174604 70.05291005291006,106.66666666666667 70.26455026455027,107.3015873015873 70.26455026455027,107.93650793650795 70.26455026455027,108.57142857142858 70.47619047619048,109.20634920634922 70.47619047619048,109.84126984126985 70.6878306878307,110.47619047619048 70.6878306878307,111.11111111111111 70.8994708994709,111.74603174603176 71.11111111111111,112.3809523809524 71.53439153439155,113.01587301587303 71.95767195767196,113.65079365079366 72.38095238095238,114.28571428571429 72.80423280423281,114.70899470899472 73.22751322751323,115.13227513227514 73.65079365079366,115.55555555555557 74.28571428571429,115.97883597883599 74.92063492063492,116.4021164021164 75.55555555555556,116.61375661375662 76.19047619047619,117.03703703703705 76.82539682539684,117.24867724867725 77.46031746031747,117.67195767195768 78.0952380952381,117.88359788359789 78.73015873015873,118.0952380952381 79.36507936507937,118.30687830687832 80.0,118.51851851851853 80.63492063492065,118.73015873015873 81.26984126984128,118.94179894179895 81.90476190476191,119.15343915343917 82.53968253968254,119.36507936507937 83.17460317460318,119.36507936507937 83.80952380952381,119.57671957671958 84.44444444444446,119.7883597883598 85.07936507936509,119.7883597883598 85.71428571428572,120.00000000000001 86.34920634920636,120.00000000000001 86.98412698412699,120.21164021164022 87.61904761904762,120.21164021164022 88.25396825396827,120.63492063492065 88.8888888888889,120.63492063492065 89.52380952380953,120.84656084656086 90.15873015873017,120.84656084656086 90.7936507936508,121.26984126984128 91.42857142857143,121.26984126984128 92.06349206349208,121.4814814814815 92.69841269841271,121.26984126984128 93.33333333333334,121.4814814814815 93.75661375661376,121.90476190476191 94.39153439153439,121.90476190476191 95.02645502645504,122.32804232804234 95.66137566137567,122.53968253968254 96.2962962962963,122.75132275132276 96.71957671957672,123.17460317460318 97.35449735449737,123.59788359788361 97.989417989418,124.02116402116403 98.41269841269842,124.44444444444446 98.83597883597885,124.86772486772487 99.25925925925927,125.5026455026455 99.47089947089948,126.13756613756615 99.68253968253968,126.77248677248679 99.8941798941799,127.40740740740742 99.8941798941799,128.04232804232805 99.8941798941799,128.67724867724868 99.8941798941799,129.31216931216932 99.8941798941799,129.94708994708995 99.68253968253968,130.58201058201058 99.68253968253968,131.21693121693121 99.25925925925927,131.85185185185185 99.04761904761905,132.4867724867725 98.62433862433863,133.12169312169314 98.41269841269842,133.75661375661377 97.989417989418,134.17989417989418 97.56613756613757,134.81481481481484 97.14285714285715,135.44973544973547 96.71957671957672,136.0846560846561 96.2962962962963,136.71957671957674 95.87301587301587,137.35449735449737 95.44973544973546,137.989417989418 95.02645502645504,138.41269841269843 94.60317460317461,139.04761904761907 94.39153439153439,139.6825396825397 93.96825396825398,140.10582010582013 93.54497354497356,140.74074074074076 93.12169312169313,141.3756613756614 92.69841269841271,141.7989417989418 92.27513227513228,142.43386243386246 92.06349206349208,143.0687830687831 91.64021164021165,143.4920634920635 91.21693121693123,144.12698412698413 90.7936507936508,144.76190476190476 90.37037037037038,145.39682539682542 89.94708994708995,146.03174603174605 89.52380952380953,146.66666666666669 89.1005291005291,147.30158730158732 88.67724867724868,147.72486772486775 88.25396825396827,148.35978835978838 87.83068783068784,148.99470899470901 87.61904761904762,149.62962962962965 87.1957671957672,150.05291005291005 86.77248677248677,150.6878306878307 86.34920634920636,151.32275132275134 85.92592592592594,151.95767195767198 85.5026455026455,152.5925925925926 85.29100529100529,153.22751322751324 84.86772486772487,153.65079365079367 84.44444444444446,154.2857142857143 84.02116402116403,154.92063492063494 83.80952380952381,155.55555555555557 83.59788359788361,156.1904761904762 83.17460317460318,156.61375661375664 82.96296296296298,157.24867724867727 82.53968253968254,157.67195767195767 82.32804232804233,158.30687830687833 81.90476190476191,158.73015873015873 81.6931216931217,159.36507936507937 81.26984126984128,159.7883597883598 81.05820105820106,160.42328042328043 80.63492063492065,160.84656084656086 80.21164021164022,161.4814814814815 80.0,162.11640211640213 79.57671957671958,162.53968253968256 79.15343915343917,163.1746031746032 78.94179894179895,163.80952380952382 78.51851851851852,164.44444444444446 78.0952380952381,165.0793650793651 77.88359788359789,165.71428571428572 77.46031746031747,166.13756613756615 77.24867724867725,166.7724867724868 76.82539682539684,167.40740740740742 76.61375661375662,168.04232804232805 76.19047619047619,168.67724867724868 75.76719576719577,169.31216931216932 73.65079365079366,172.9100529100529" style="fill:none; stroke:#999900; stroke-width:1.0"  /><polyline points="73.65079365079366,172.9100529100529 70.8994708994709,172.4867724867725 70.26455026455027,172.4867724867725 69.62962962962963,172.4867724867725 68.994708994709,172.4867724867725 68.35978835978837,172.27513227513228 67.72486772486774,172.27513227513228 67.08994708994709,172.27513227513228 66.45502645502646,172.06349206349208 65.82010582010582,172.06349206349208 65.18518518518519,171.85185185185188 64.55026455026456,171.85185185185188 63.91534391534392,171.64021164021165 63.280423280423285,171.42857142857144 62.64550264550265,171.42857142857144 62.01058201058201,171.21693121693124 61.37566137566138,171.005291005291 60.74074074074075,170.7936507936508 60.10582010582011,170.58201058201058 59.470899470899475,170.58201058201058 58.83597883597884,170.37037037037038 58.2010582010582,170.15873015873018 57.56613756613757,169.94708994708995 56.93121693121694,169.94708994708995 56.2962962962963,169.52380952380955 55.661375661375665,169.31216931216932 55.02645502645503,169.10052910052912 54.39153439153439,168.8888888888889 53.75661375661376,168.46560846560848 53.12169312169313,168.25396825396825 52.48677248677249,168.04232804232805 51.851851851851855,167.61904761904762 51.21693121693122,167.19576719576722 50.7936507936508,166.7724867724868 50.158730158730165,166.34920634920636 49.523809523809526,165.92592592592595 48.88888888888889,165.50264550264552 48.25396825396826,165.0793650793651 47.61904761904762,164.65608465608466 46.98412698412699,164.23280423280426 46.349206349206355,163.80952380952382 45.92592592592593,163.3862433862434 45.29100529100529,162.96296296296296 44.867724867724874,162.53968253968256 44.44444444444445,162.11640211640213 44.021164021164026,161.6931216931217 43.5978835978836,161.05820105820106 43.17460317460318,160.42328042328043 42.96296296296297,159.7883597883598 42.75132275132275,159.15343915343917 42.75132275132275,158.51851851851853 42.539682539682545,157.8835978835979 42.75132275132275,157.24867724867727 42.75132275132275,156.61375661375664 42.96296296296297,155.978835978836 43.17460317460318,155.34391534391534 43.386243386243386,154.7089947089947 43.5978835978836,154.07407407407408 44.021164021164026,153.43915343915344 44.44444444444445,152.8042328042328 44.867724867724874,152.38095238095238 45.29100529100529,151.74603174603175 45.714285714285715,151.32275132275134 46.13756613756614,150.8994708994709 46.77248677248678,150.47619047619048 47.195767195767196,150.05291005291005 47.830687830687836,149.62962962962965 48.46560846560847,149.41798941798942 48.88888888888889,148.99470899470901 49.523809523809526,148.57142857142858 50.158730158730165,148.14814814814815 50.7936507936508,147.72486772486775 51.42857142857143,147.30158730158732 51.851851851851855,146.8783068783069 52.48677248677249,146.45502645502646 52.91005291005291,146.03174603174605 53.333333333333336,145.60846560846562 53.75661375661376,144.973544973545 54.179894179894184,144.33862433862436 54.60317460317461,143.91534391534393 55.02645502645503,143.2804232804233 55.23809523809524,142.64550264550266 55.661375661375665,142.01058201058203 55.87301587301588,141.3756613756614 56.2962962962963,140.74074074074076 56.50793650793651,140.10582010582013 56.71957671957672,139.47089947089947 56.71957671957672,138.83597883597884 56.93121693121694,138.2010582010582 56.93121693121694,137.56613756613757 56.93121693121694,136.93121693121694 56.93121693121694,136.2962962962963 56.93121693121694,135.66137566137567 56.71957671957672,135.02645502645504 56.50793650793651,134.3915343915344 56.08465608465609,133.75661375661377 55.87301587301588,133.12169312169314 55.449735449735456,132.6984126984127 55.02645502645503,132.06349206349208 54.60317460317461,131.42857142857144 54.179894179894184,131.005291005291 53.75661375661376,130.58201058201058 53.333333333333336,129.94708994708995 52.91005291005291,129.52380952380955 52.48677248677249,129.10052910052912 52.06349206349207,128.67724867724868 51.640211640211646,128.25396825396825 51.21693121693122,127.61904761904763 50.58201058201058,127.1957671957672 50.158730158730165,126.77248677248679 49.73544973544974,126.34920634920636 49.1005291005291,125.92592592592594 48.46560846560847,125.5026455026455 47.830687830687836,125.07936507936509 47.40740740740741,124.65608465608466 46.77248677248678,124.44444444444446 46.349206349206355,124.02116402116403 45.714285714285715,123.80952380952382 45.29100529100529,123.3862433862434 44.65608465608466,123.17460317460318 44.021164021164026,122.75132275132276 43.386243386243386,122.53968253968254 42.75132275132275,122.32804232804234 42.11640211640212,122.11640211640213 41.48148148148149,121.90476190476191 40.84656084656085,121.4814814814815 40.211640211640216,121.4814814814815 39.57671957671958,121.26984126984128 38.94179894179894,121.05820105820106 38.30687830687831,120.84656084656086 37.67195767195768,120.84656084656086 37.03703703703704,120.63492063492065 36.402116402116405,120.63492063492065 35.76719576719577,120.63492063492065 35.13227513227513,120.63492063492065 34.4973544973545,120.63492063492065 33.86243386243387,120.63492063492065 33.22751322751323,120.63492063492065 32.592592592592595,120.63492063492065 31.95767195767196,120.84656084656086 31.322751322751326,120.84656084656086 30.68783068783069,120.84656084656086 30.052910052910054,121.05820105820106 29.41798941798942,121.26984126984128 28.783068783068785,121.4814814814815 28.14814814814815,121.90476190476191 27.513227513227516,122.11640211640213 27.089947089947092,122.53968253968254 26.455026455026456,122.96296296296298 26.031746031746035,123.3862433862434 25.60846560846561,123.80952380952382 25.185185185185187,124.44444444444446 24.761904761904763,124.86772486772487 24.338624338624342,125.5026455026455 23.915343915343918,126.13756613756615 23.703703703703706,126.77248677248679 23.280423280423282,127.40740740740742 23.280423280423282,128.04232804232805 22.857142857142858,128.67724867724868 22.645502645502646,129.31216931216932 22.645502645502646,129.94708994708995 22.433862433862437,130.58201058201058 22.433862433862437,131.21693121693121 22.433862433862437,131.85185185185185 22.433862433862437,132.4867724867725 22.433862433862437,133.12169312169314 22.433862433862437,133.75661375661377 22.433862433862437,134.3915343915344 22.645502645502646,135.02645502645504 22.645502645502646,135.66137566137567 22.645502645502646,136.2962962962963 22.857142857142858,136.93121693121694 23.06878306878307,137.56613756613757 23.06878306878307,138.2010582010582 23.280423280423282,138.83597883597884 23.280423280423282,139.47089947089947 23.280423280423282,140.10582010582013 23.280423280423282,140.74074074074076 23.280423280423282,141.3756613756614 23.280423280423282,142.01058201058203 23.280423280423282,142.64550264550266 23.06878306878307,143.2804232804233 22.857142857142858,143.91534391534393 22.645502645502646,144.55026455026456 22.433862433862437,145.1851851851852 22.010582010582013,145.82010582010582 21.58730158730159,146.24338624338625 21.164021164021165,146.8783068783069 20.740740740740744,147.30158730158732 20.105820105820108,147.51322751322752 19.47089947089947,147.72486772486775 18.83597883597884,147.93650793650795 18.201058201058203,147.93650793650795 17.566137566137566,147.93650793650795 16.931216931216934,147.72486772486775 16.296296296296298,147.72486772486775 15.661375661375663,147.51322751322752 15.026455026455027,147.0899470899471 14.391534391534393,146.8783068783069 13.756613756613758,146.45502645502646 13.121693121693122,146.24338624338625 12.486772486772487,145.82010582010582 12.063492063492065,145.39682539682542 11.428571428571429,144.973544973545 10.793650793650794,144.55026455026456 10.370370370370372,144.12698412698413 9.947089947089948,143.70370370370372 9.523809523809524,143.2804232804233 9.100529100529101,142.85714285714286 8.677248677248677,142.43386243386246 8.253968253968255,142.01058201058203 7.830687830687832,141.3756613756614 7.407407407407408,140.74074074074076 7.195767195767196,140.10582010582013 6.772486772486773,139.6825396825397 6.560846560846561,139.04761904761907 6.34920634920635,138.41269841269843 6.137566137566138,137.7777777777778 5.714285714285714,137.35449735449737 5.502645502645503,136.71957671957674 5.07936507936508,136.0846560846561 4.867724867724868,135.44973544973547 4.444444444444445,134.81481481481484 4.021164021164021,134.17989417989418 3.8095238095238098,133.54497354497354 3.3862433862433865,133.12169312169314 3.174603174603175,132.4867724867725 2.7513227513227516,131.85185185185185 2.3280423280423284,131.21693121693121 1.9047619047619049,130.58201058201058 0.0,127.40740740740742" style="fill:none; stroke:#00aa99; stroke-width:1.0"  /><polyline points="0.0,127.40740740740742 2.3280423280423284,125.07936507936509 2.7513227513227516,124.65608465608466 3.174603174603175,124.23280423280424 3.597883597883598,123.80952380952382 4.021164021164021,123.3862433862434 4.444444444444445,122.96296296296298 4.867724867724868,122.53968253968254 5.291005291005291,122.11640211640213 5.714285714285714,121.6931216931217 6.137566137566138,121.26984126984128 6.560846560846561,120.84656084656086 6.984126984126985,120.42328042328043 7.407407407407408,119.7883597883598 7.830687830687832,119.36507936507937 8.253968253968255,118.94179894179895 8.677248677248677,118.51851851851853 9.100529100529101,118.0952380952381 9.523809523809524,117.67195767195768 9.947089947089948,117.24867724867725 10.370370370370372,116.61375661375662 10.793650793650794,116.1904761904762 11.216931216931219,115.76719576719577 11.640211640211641,115.34391534391536 12.063492063492065,114.92063492063492 12.486772486772487,114.49735449735451 12.910052910052912,114.07407407407408 13.333333333333334,113.65079365079366 13.756613756613758,113.01587301587303 14.17989417989418,112.5925925925926 14.603174603174605,112.16931216931218 15.026455026455027,111.53439153439155 15.449735449735451,111.11111111111111 15.873015873015873,110.6878306878307 16.296296296296298,110.05291005291006 16.71957671957672,109.41798941798943 17.142857142857146,108.994708994709 17.566137566137566,108.35978835978837 17.98941798941799,107.72486772486774 18.412698412698415,107.3015873015873 18.83597883597884,106.66666666666667 19.25925925925926,106.24338624338625 19.682539682539684,105.60846560846562 20.105820105820108,104.97354497354497 20.529100529100532,104.33862433862434 20.952380952380953,103.70370370370371 21.375661375661377,103.06878306878308 21.7989417989418,102.64550264550266 22.010582010582013,102.01058201058201 22.433862433862437,101.37566137566138 22.857142857142858,100.74074074074075 23.280423280423282,100.10582010582011 23.703703703703706,99.47089947089948 23.915343915343918,98.83597883597885 24.338624338624342,98.2010582010582 24.761904761904763,97.56613756613757 25.185185185185187,96.93121693121694 25.3968253968254,96.2962962962963 25.820105820105823,95.87301587301587 26.031746031746035,95.23809523809524 26.455026455026456,94.60317460317461 26.666666666666668,93.96825396825398 27.089947089947092,93.33333333333334 27.513227513227516,92.69841269841271 27.724867724867728,92.06349206349208 28.14814814814815,91.42857142857143 28.35978835978836,90.7936507936508 28.783068783068785,90.15873015873017 28.994708994708997,89.52380952380953 29.41798941798942,88.8888888888889 29.629629629629633,88.25396825396827 29.841269841269842,87.61904761904762 30.264550264550266,86.98412698412699 30.68783068783069,86.34920634920636 30.899470899470902,85.71428571428572 30.899470899470902,85.07936507936509 31.322751322751326,84.44444444444446 31.53439153439154,83.80952380952381 31.746031746031747,83.17460317460318 32.16931216931217,82.53968253968254 32.38095238095239,81.90476190476191 32.592592592592595,81.26984126984128 32.804232804232804,80.63492063492065 33.01587301587302,80.0 33.22751322751323,79.36507936507937 33.43915343915344,78.73015873015873 33.65079365079365,78.0952380952381 33.65079365079365,77.46031746031747 33.65079365079365,76.82539682539684 33.86243386243387,76.19047619047619 33.86243386243387,75.55555555555556 33.65079365079365,74.92063492063492 33.65079365079365,74.28571428571429 33.43915343915344,73.65079365079366 33.22751322751323,73.01587301587303 33.01587301587302,72.38095238095238 32.804232804232804,71.74603174603175 32.38095238095239,71.32275132275133 31.95767195767196,70.6878306878307 31.53439153439154,70.26455026455027 31.111111111111114,69.84126984126985 30.68783068783069,69.41798941798942 30.052910052910054,68.994708994709 29.41798941798942,68.78306878306879 28.783068783068785,68.57142857142858 28.14814814814815,68.35978835978837 27.513227513227516,68.35978835978837 26.87830687830688,68.14814814814815 26.243386243386244,68.14814814814815 25.60846560846561,67.93650793650794 24.973544973544975,67.93650793650794 24.338624338624342,67.93650793650794 23.703703703703706,67.93650793650794 23.06878306878307,67.72486772486774 22.433862433862437,67.72486772486774 21.7989417989418,67.93650793650794 21.164021164021165,67.93650793650794 20.529100529100532,67.72486772486774 19.894179894179896,67.72486772486774 19.25925925925926,67.51322751322752 18.624338624338627,67.51322751322752 17.98941798941799,67.51322751322752 17.354497354497354,67.3015873015873 16.71957671957672,67.3015873015873 16.084656084656086,67.3015873015873 15.449735449735451,67.08994708994709 14.814814814814817,66.87830687830689 14.17989417989418,66.66666666666667 13.544973544973546,66.66666666666667 12.910052910052912,66.45502645502646 12.275132275132275,66.24338624338625 11.640211640211641,66.03174603174604 11.005291005291006,65.82010582010582 10.370370370370372,65.60846560846561 9.735449735449736,65.18518518518519 9.312169312169313,64.76190476190477 8.677248677248677,64.55026455026456 8.042328042328043,64.33862433862434 7.6190476190476195,63.91534391534392 7.195767195767196,63.492063492063494 6.560846560846561,63.06878306878308 6.137566137566138,62.64550264550265 5.714285714285714,62.22222222222223 5.291005291005291,61.798941798941804 4.867724867724868,61.16402116402117 4.444444444444445,60.52910052910053 4.2328042328042335,59.8941798941799 4.021164021164021,59.25925925925927 3.8095238095238098,58.62433862433863 3.8095238095238098,57.989417989417994 3.8095238095238098,57.35449735449736 3.8095238095238098,56.71957671957672 3.8095238095238098,56.08465608465609 3.8095238095238098,55.449735449735456 3.8095238095238098,54.81481481481482 4.021164021164021,54.179894179894184 4.021164021164021,53.54497354497355 4.2328042328042335,52.91005291005291 4.444444444444445,52.27513227513228 4.444444444444445,51.640211640211646 4.656084656084657,51.00529100529101 4.867724867724868,50.370370370370374 4.867724867724868,49.73544973544974 5.07936507936508,49.1005291005291 5.291005291005291,48.46560846560847 5.502645502645503,47.830687830687836 5.714285714285714,47.195767195767196 5.9259259259259265,46.560846560846564 6.137566137566138,45.92592592592593 6.560846560846561,45.29100529100529 6.772486772486773,44.65608465608466 7.195767195767196,44.021164021164026 7.407407407407408,43.386243386243386 7.6190476190476195,42.75132275132275 8.042328042328043,42.11640211640212 8.253968253968255,41.48148148148149 8.677248677248677,40.84656084656085 9.100529100529101,40.211640211640216 9.312169312169313,39.57671957671958 9.735449735449736,38.94179894179894 10.15873015873016,38.30687830687831 10.582010582010582,37.67195767195768 11.005291005291006,37.03703703703704 11.428571428571429,36.402116402116405 11.851851851851853,35.76719576719577 12.275132275132275,35.13227513227513 12.6984126984127,34.70899470899471 13.121693121693122,34.074074074074076 13.544973544973546,33.43915343915344 13.96825396825397,32.804232804232804 14.391534391534393,32.38095238095239 14.814814814814817,31.746031746031747 15.238095238095239,31.322751322751326 15.661375661375663,30.68783068783069 16.084656084656086,30.264550264550266 16.50793650793651,29.841269841269842 16.931216931216934,29.41798941798942 17.354497354497354,28.783068783068785 17.77777777777778,28.35978835978836 18.201058201058203,27.93650793650794 18.624338624338627,27.513227513227516 19.047619047619047,27.089947089947092 19.682539682539684,26.666666666666668 20.105820105820108,26.243386243386244 20.529100529100532,25.820105820105823 20.952380952380953,25.3968253968254 21.375661375661377,24.973544973544975 22.010582010582013,24.55026455026455 22.433862433862437,23.915343915343918 22.857142857142858,23.492063492063494 23.492063492063494,23.06878306878307 24.12698412698413,22.645502645502646 24.55026455026455,22.222222222222225 25.185185185185187,21.7989417989418 25.60846560846561,21.375661375661377 26.243386243386244,20.952380952380953 26.87830687830688,20.529100529100532 27.513227513227516,20.105820105820108 28.14814814814815,19.682539682539684 28.783068783068785,19.47089947089947 29.41798941798942,19.047619047619047 30.052910052910054,19.047619047619047 30.68783068783069,19.047619047619047 31.322751322751326,19.047619047619047 31.746031746031747,19.47089947089947 32.38095238095239,19.47089947089947 33.01587301587302,19.894179894179896 33.65079365079365,20.105820105820108 34.074074074074076,20.529100529100532 34.70899470899471,20.952380952380953 35.34391534391535,21.375661375661377 35.76719576719577,21.7989417989418 36.19047619047619,22.222222222222225 36.613756613756614,22.645502645502646 37.03703703703704,23.06878306878307 37.46031746031746,23.492063492063494 37.883597883597886,24.12698412698413 38.30687830687831,24.761904761904763 38.51851851851852,25.3968253968254 38.94179894179894,26.031746031746035 39.36507936507937,26.666666666666668 39.57671957671958,27.301587301587304 40.0,27.93650793650794 40.211640211640216,28.571428571428573 40.63492063492064,29.20634920634921 40.84656084656085,29.841269841269842 41.26984126984127,30.476190476190478 41.48148148148149,31.111111111111114 41.904761904761905,31.746031746031747 42.11640211640212,32.38095238095239 42.539682539682545,33.01587301587302 42.96296296296297,33.65079365079365 43.17460317460318,34.28571428571429 43.5978835978836,34.920634920634924 44.021164021164026,35.55555555555556 44.44444444444445,36.19047619047619 44.867724867724874,36.613756613756614 45.29100529100529,37.03703703703704 45.714285714285715,37.46031746031746 46.349206349206355,37.883597883597886 46.77248677248678,38.30687830687831 47.40740740740741,38.51851851851852 48.042328042328045,38.730158730158735 48.677248677248684,38.94179894179894 49.31216931216932,38.94179894179894 49.94708994708995,38.94179894179894 50.58201058201058,38.94179894179894 51.21693121693122,38.94179894179894 51.851851851851855,38.730158730158735 52.48677248677249,38.730158730158735 53.12169312169313,38.51851851851852 53.75661375661376,38.095238095238095 54.39153439153439,37.883597883597886 55.02645502645503,37.46031746031746 55.661375661375665,37.248677248677254 56.08465608465609,36.82539682539683 56.71957671957672,36.402116402116405 57.142857142857146,35.97883597883598 57.777777777777786,35.55555555555556 58.2010582010582,35.13227513227513 58.83597883597884,34.70899470899471 59.470899470899475,34.28571428571429 60.10582010582011,33.86243386243387 60.52910052910053,33.43915343915344 60.952380952380956,33.01587301587302 61.37566137566138,32.592592592592595 61.798941798941804,32.16931216931217 62.22222222222223,31.746031746031747 62.64550264550265,31.322751322751326 63.06878306878308,30.68783068783069 63.492063492063494,30.264550264550266 63.91534391534392,29.841269841269842 64.33862433862434,29.41798941798942 64.76190476190477,28.783068783068785 65.18518518518519,28.35978835978836 65.60846560846561,27.724867724867728 66.03174603174604,27.301587301587304 66.45502645502646,26.666666666666668 66.87830687830689,26.031746031746035 67.3015873015873,25.3968253968254 67.72486772486774,24.761904761904763 68.14814814814815,24.12698412698413 68.35978835978837,23.492063492063494 68.78306878306879,22.857142857142858 68.994708994709,22.222222222222225 69.41798941798942,21.58730158730159 69.62962962962963,20.952380952380953 69.84126984126985,20.31746031746032 70.26455026455027,19.682539682539684 70.47619047619048,19.047619047619047 70.6878306878307,18.412698412698415 70.8994708994709,17.77777777777778 71.11111111111111,17.142857142857146 71.32275132275133,16.50793650793651 71.53439153439155,15.873015873015873 71.53439153439155,15.238095238095239 71.53439153439155,14.603174603174605 71.74603174603175,13.96825396825397 71.74603174603175,13.333333333333334 71.95767195767196,12.6984126984127 72.16931216931218,12.063492063492065 72.16931216931218,11.428571428571429 72.38095238095238,10.793650793650794 72.38095238095238,10.15873015873016 72.5925925925926,9.523809523809524 72.5925925925926,8.88888888888889 72.80423280423281,8.253968253968255 72.80423280423281,7.6190476190476195 73.01587301587303,6.984126984126985 73.01587301587303,6.34920634920635 73.01587301587303,5.714285714285714 73.01587301587303,5.07936507936508 73.01587301587303,4.444444444444445 73.01587301587303,3.8095238095238098 73.22751322751323,3.174603174603175 73.65079365079366,0.0" style="fill:none; stroke:#3300bb; stroke-width:1.0"  /><circle cx="73.65079365079366" cy="0.0" r="2.0" style="fill:none; stroke:#000000aa; stroke-width:0.25" /><circle cx="145.39682539682542" cy="42.539682539682545" r="2.0" style="fill:none; stroke:#000000aa; stroke-width:0.25" /><circle cx="73.65079365079366" cy="172.9100529100529" r="2.0" style="fill:none; stroke:#000000aa; stroke-width:0.25" /><circle cx="0.0" cy="127.40740740740742" r="2.0" style="fill:none; stroke:#000000aa; stroke-width:0.25" /><circle cx="73.86243386243387" cy="0.21164021164021166" r="2.0" style="fill:none; stroke:#ff3366aa; stroke-width:0.25" /><circle cx="144.973544973545" cy="42.539682539682545" r="2.0" style="fill:none; stroke:#ff3366aa; stroke-width:0.25" /><circle cx="74.07407407407408" cy="172.27513227513228" r="2.0" style="fill:none; stroke:#ff3366aa; stroke-width:0.25" /><circle cx="0.21164021164021166" cy="127.61904761904763" r="2.0" style="fill:none; stroke:#ff3366aa; stroke-width:0.25" /><polyline points="83.59788359788361,6.137566137566138 82.96296296296298,5.714285714285714 82.32804232804233,5.291005291005291 81.90476190476191,4.867724867724868 81.26984126984128,4.656084656084657 80.84656084656085,4.2328042328042335 80.21164021164022,4.021164021164021 79.57671957671958,3.597883597883598 78.94179894179895,3.174603174603175 78.51851851851852,2.7513227513227516 77.88359788359789,2.53968253968254 77.46031746031747,2.1164021164021167 76.82539682539684,1.9047619047619049" style="fill:none; stroke:#001100; stroke-width:1.0" /><polyline points="72.16931216931218,12.063492063492065 72.16931216931218,11.428571428571429 72.38095238095238,10.793650793650794 72.38095238095238,10.15873015873016 72.5925925925926,9.523809523809524 72.5925925925926,8.88888888888889 72.80423280423281,8.253968253968255 72.80423280423281,7.6190476190476195 73.01587301587303,6.984126984126985 73.01587301587303,6.34920634920635 73.01587301587303,5.714285714285714 73.01587301587303,5.07936507936508 73.01587301587303,4.444444444444445 73.01587301587303,3.8095238095238098 73.22751322751323,3.174603174603175" style="fill:none; stroke:#000011; stroke-width:1.0" /><polyline points="139.8941798941799,52.91005291005291 140.31746031746033,52.27513227513228 140.52910052910053,51.640211640211646 140.74074074074076,51.00529100529101 141.16402116402116,50.370370370370374 141.16402116402116,49.73544973544974 141.5873015873016,49.1005291005291 141.7989417989418,48.46560846560847 142.22222222222223,47.830687830687836 142.64550264550266,47.40740740740741 142.85714285714286,46.77248677248678 143.2804232804233,46.13756613756614 143.70370370370372,45.714285714285715" style="fill:none; stroke:#001100; stroke-width:1.0" /><polyline points="135.44973544973547,36.19047619047619 135.87301587301587,36.613756613756614 136.5079365079365,37.03703703703704 137.14285714285717,37.248677248677254 137.7777777777778,37.67195767195768 138.41269841269843,38.095238095238095 138.83597883597884,38.51851851851852 139.47089947089947,38.730158730158735 139.8941798941799,39.15343915343916 140.52910052910053,39.57671957671958 141.16402116402116,39.78835978835979 141.5873015873016,40.211640211640216 142.22222222222223,40.423280423280424" style="fill:none; stroke:#000011; stroke-width:1.0" /><polyline points="62.64550264550265,171.42857142857144 63.280423280423285,171.42857142857144 63.91534391534392,171.64021164021165 64.55026455026456,171.85185185185188 65.18518518518519,171.85185185185188 65.82010582010582,172.06349206349208 66.45502645502646,172.06349206349208 67.08994708994709,172.27513227513228 67.72486772486774,172.27513227513228 68.35978835978837,172.27513227513228 68.994708994709,172.4867724867725 69.62962962962963,172.4867724867725 70.26455026455027,172.4867724867725 70.8994708994709,172.4867724867725" style="fill:none; stroke:#001100; stroke-width:1.0" /><polyline points="80.0,162.11640211640213 79.57671957671958,162.53968253968256 79.15343915343917,163.1746031746032 78.94179894179895,163.80952380952382 78.51851851851852,164.44444444444446 78.0952380952381,165.0793650793651 77.88359788359789,165.71428571428572 77.46031746031747,166.13756613756615 77.24867724867725,166.7724867724868 76.82539682539684,167.40740740740742 76.61375661375662,168.04232804232805 76.19047619047619,168.67724867724868 75.76719576719577,169.31216931216932" style="fill:none; stroke:#000011; stroke-width:1.0" /><polyline points="8.253968253968255,118.94179894179895 7.830687830687832,119.36507936507937 7.407407407407408,119.7883597883598 6.984126984126985,120.42328042328043 6.560846560846561,120.84656084656086 6.137566137566138,121.26984126984128 5.714285714285714,121.6931216931217 5.291005291005291,122.11640211640213 4.867724867724868,122.53968253968254 4.444444444444445,122.96296296296298 4.021164021164021,123.3862433862434 3.597883597883598,123.80952380952382 3.174603174603175,124.23280423280424 2.7513227513227516,124.65608465608466 2.3280423280423284,125.07936507936509" style="fill:none; stroke:#001100; stroke-width:1.0" /><polyline points="6.137566137566138,137.7777777777778 5.714285714285714,137.35449735449737 5.502645502645503,136.71957671957674 5.07936507936508,136.0846560846561 4.867724867724868,135.44973544973547 4.444444444444445,134.81481481481484 4.021164021164021,134.17989417989418 3.8095238095238098,133.54497354497354 3.3862433862433865,133.12169312169314 3.174603174603175,132.4867724867725 2.7513227513227516,131.85185185185185 2.3280423280423284,131.21693121693121 1.9047619047619049,130.58201058201058" style="fill:none; stroke:#000011; stroke-width:1.0" /><polyline points="76.82539682539684,1.9047619047619049 58.83597883597884,-9.312169312169313" style="fill:none; stroke:#ffaa00; stroke-width:0.4" /><polyline points="73.22751322751323,3.174603174603175 75.76719576719577,-17.77777777777778" style="fill:none; stroke:#aaff00; stroke-width:0.4" /><polyline points="143.70370370370372,45.714285714285715 153.65079365079367,27.089947089947092" style="fill:none; stroke:#ffaa00; stroke-width:0.4" /><polyline points="142.22222222222223,40.423280423280424 160.21164021164023,51.640211640211646" style="fill:none; stroke:#aaff00; stroke-width:0.4" /><polyline points="70.8994708994709,172.4867724867725 91.85185185185186,175.23809523809524" style="fill:none; stroke:#ffaa00; stroke-width:0.4" /><polyline points="75.76719576719577,169.31216931216932 64.97354497354497,187.51322751322752" style="fill:none; stroke:#aaff00; stroke-width:0.4" /><polyline points="2.3280423280423284,125.07936507936509 -12.275132275132275,140.31746031746033" style="fill:none; stroke:#ffaa00; stroke-width:0.4" /><polyline points="1.9047619047619049,130.58201058201058 -8.88888888888889,112.3809523809524" style="fill:none; stroke:#aaff00; stroke-width:0.4" /><circle cx="66.87830687830689" cy="82.53968253968254" r="1.0" style="fill:#444444; stroke-width:0" /><circle cx="61.16402116402117" cy="64.97354497354497" r="10.582010582010582" style="fill:#ff770022; stroke-width:0" /><circle cx="61.16402116402117" cy="64.97354497354497" r="1.0" style="fill:#ff7700; stroke-width:0" /></svg>