<?xml version="1.0" encoding="UTF-8" standalone="no"?><svg width="566.984126984127" height="546.031746031746" viewBox="-10 -10 208.99470899470901 202.01058201058203" xmlns="http://www.w3.org/2000/svg" xmlns:xlink="http://www.w3.org/1999/xlink"><polyline points="94.17989417989419,-0.8465608465608466 96.50793650793652,2.1164021164021167 96.93121693121694,2.53968253968254 97.35449735449737,3.174603174603175 97.77777777777779,3.597883597883598 98.2010582010582,4.021164021164021 98.62433862433863,4.656084656084657 99.04761904761905,5.07936507936508 99.47089947089948,5.714285714285714 99.8941798941799,6.137566137566138 100.31746031746033,6.560846560846561 100.74074074074075,7.195767195767196 101.16402116402116,7.6190476190476195 101.5873015873016,8.253968253968255 102.01058201058201,8.88888888888889 102.43386243386244,9.312169312169313 102.85714285714286,9.947089947089948 103.28042328042329,10.370370370370372 103.70370370370371,11.005291005291006 104.12698412698414,11.428571428571429 104.55026455026456,12.063492063492065 104.97354497354497,12.486772486772487 105.3968253968254,13.121693121693122 105.82010582010582,13.756613756613758 106.24338624338625,14.17989417989418 106.66666666666667,14.814814814814817 107.0899470899471,15.449735449735451 107.51322751322752,15.873015873015873 107.93650793650795,16.296296296296298 108.35978835978837,16.71957671957672 108.78306878306879,17.354497354497354 108.994708994709,17.98941798941799 109.41798941798943,18.412698412698415 109.62962962962963,19.047619047619047 110.05291005291006,19.682539682539684 110.47619047619048,20.31746031746032 110.6878306878307,20.952380952380953 111.11111111111111,21.58730158730159 111.53439153439155,22.222222222222225 111.74603174603176,22.857142857142858 112.16931216931218,23.492063492063494 112.5925925925926,24.12698412698413 112.80423280423281,24.761904761904763 113.22751322751324,25.185185185185187 113.65079365079366,25.820105820105823 114.07407407407408,26.455026455026456 114.49735449735451,26.87830687830688 114.92063492063492,27.513227513227516 115.34391534391536,27.93650793650794 115.76719576719577,28.35978835978836 116.4021164021164,28.783068783068785 116.82539682539684,29.20634920634921 117.46031746031747,29.41798941798942 117.88359788359789,29.841269841269842 118.51851851851853,30.052910052910054 119.15343915343917,30.264550264550266 119.7883597883598,30.68783068783069 120.42328042328043,30.899470899470902 121.05820105820106,30.68783068783069 121.6931216931217,30.899470899470902 122.32804232804234,30.899470899470902 122.96296296296298,31.111111111111114 123.59788359788361,30.68783068783069 124.23280423280424,30.68783068783069 124.86772486772487,30.476190476190478 125.5026455026455,30.476190476190478 125.92592592592594,30.052910052910054 126.56084656084657,29.629629629629633 127.1957671957672,29.41798941798942 127.61904761904763,28.994708994708997 128.04232804232805,28.571428571428573 128.46560846560848,28.14814814814815 128.88888888888889,27.724867724867728 129.31216931216932,27.089947089947092 129.73544973544975,26.666666666666668 129.94708994708995,26.031746031746035 130.15873015873018,25.3968253968254 130.37037037037038,24.761904761904763 130.7936507936508,24.12698412698413 131.005291005291,23.492063492063494 131.21693121693121,22.857142857142858 131.42857142857144,22.222222222222225 131.42857142857144,21.58730158730159 131.64021164021165,20.952380952380953 131.85185185185185,20.31746031746032 131.85185185185185,19.682539682539684 132.06349206349208,19.047619047619047 132.27513227513228,18.412698412698415 132.27513227513228,17.77777777777778 132.4867724867725,17.142857142857146 132.6984126984127,16.50793650793651 132.6984126984127,15.873015873015873 132.6984126984127,15.238095238095239 132.9100529100529,14.603174603174605 133.12169312169314,13.96825396825397 133.33333333333334,13.333333333333334 133.54497354497354,12.6984126984127 133.75661375661377,12.063492063492065 134.17989417989418,11.640211640211641 134.6031746031746,11.005291005291006 135.02645502645504,10.370370370370372 135.44973544973547,9.735449735449736 135.87301587301587,9.312169312169313 136.2962962962963,8.88888888888889 136.71957671957674,8.465608465608467 136.93121693121694,7.830687830687832 137.56613756613757,7.407407407407408 137.989417989418,6.984126984126985 138.41269841269843,6.560846560846561 139.04761904761907,6.137566137566138 139.6825396825397,5.9259259259259265 140.31746031746033,5.502645502645503 140.95238095238096,5.291005291005291 141.5873015873016,5.07936507936508 142.22222222222223,5.07936507936508 142.85714285714286,5.07936507936508 143.4920634920635,4.867724867724868 144.12698412698413,5.07936507936508 144.76190476190476,5.07936507936508 145.39682539682542,5.291005291005291 146.03174603174605,5.291005291005291 146.66666666666669,5.502645502645503 147.30158730158732,5.714285714285714 147.93650793650795,5.9259259259259265 148.57142857142858,6.137566137566138 149.20634920634922,6.34920634920635 149.84126984126985,6.560846560846561 150.47619047619048,6.984126984126985 151.11111111111111,7.195767195767196 151.74603174603175,7.407407407407408 152.38095238095238,7.6190476190476195 153.01587301587304,8.042328042328043 153.65079365079367,8.253968253968255 154.2857142857143,8.677248677248677 154.92063492063494,8.88888888888889 155.55555555555557,9.100529100529101 156.1904761904762,9.523809523809524 156.82539682539684,9.947089947089948 157.46031746031747,10.15873015873016 158.0952380952381,10.582010582010582 158.51851851851853,11.005291005291006 159.15343915343917,11.428571428571429 159.7883597883598,11.851851851851853 160.42328042328043,12.275132275132275 160.84656084656086,12.6984126984127 161.4814814814815,13.121693121693122 161.90476190476193,13.544973544973546 162.53968253968256,13.96825396825397 162.96296296296296,14.391534391534393 163.3862433862434,14.814814814814817 163.80952380952382,15.238095238095239 164.23280423280426,15.661375661375663 164.65608465608466,16.084656084656086 165.0793650793651,16.50793650793651 165.50264550264552,16.931216931216934 165.92592592592595,17.566137566137566 166.34920634920636,18.201058201058203 166.56084656084658,18.83597883597884 166.984126984127,19.47089947089947 167.19576719576722,20.105820105820108 167.40740740740742,20.740740740740744 167.40740740740742,21.375661375661377 167.61904761904762,22.010582010582013 167.61904761904762,22.645502645502646 167.83068783068785,23.280423280423282 167.61904761904762,23.915343915343918 167.61904761904762,24.55026455026455 167.61904761904762,25.185185185185187 167.40740740740742,25.820105820105823 167.19576719576722,26.455026455026456 166.984126984127,27.089947089947092 166.7724867724868,27.724867724867728 166.34920634920636,28.35978835978836 166.13756613756615,28.994708994708997 165.71428571428572,29.629629629629633 165.2910052910053,30.264550264550266 164.8677248677249,30.899470899470902 164.44444444444446,31.322751322751326 164.02116402116403,31.746031746031747 163.59788359788362,32.16931216931217 163.1746031746032,32.592592592592595 162.53968253968256,33.01587301587302 161.90476190476193,33.43915343915344 161.2698412698413,33.86243386243387 160.63492063492066,34.28571428571429 160.0,34.4973544973545 159.5767195767196,34.920634920634924 158.94179894179896,35.13227513227513 158.51851851851853,35.55555555555556 157.8835978835979,35.97883597883598 157.24867724867727,36.402116402116405 156.61375661375664,36.82539682539683 155.978835978836,37.248677248677254 155.34391534391534,37.67195767195768 154.92063492063494,38.095238095238095 154.2857142857143,38.51851851851852 153.65079365079367,38.94179894179894 153.22751322751324,39.36507936507937 152.5925925925926,39.78835978835979 151.95767195767198,40.211640211640216 151.53439153439155,40.63492063492064 151.11111111111111,41.058201058201064 150.6878306878307,41.48148148148149 150.26455026455028,42.11640211640212 149.84126984126985,42.75132275132275 149.41798941798942,43.386243386243386 149.20634920634922,44.021164021164026 148.99470899470901,44.65608465608466 148.57142857142858,45.29100529100529 148.57142857142858,45.92592592592593 148.35978835978838,46.560846560846564 148.35978835978838,47.195767195767196 148.35978835978838,47.830687830687836 148.35978835978838,48.46560846560847 148.57142857142858,49.1005291005291 148.78306878306879,49.73544973544974 149.20634920634922,50.370370370370374 149.62962962962965,51.00529100529101 150.26455026455028,51.42857142857143 150.6878306878307,51.851851851851855 151.11111111111111,52.27513227513228 151.53439153439155,52.6984126984127 152.16931216931218,53.12169312169313 152.8042328042328,53.333333333333336 153.43915343915344,53.54497354497355 154.07407407407408,53.968253968253975 154.7089947089947,54.179894179894184 155.34391534391534,54.39153439153439 155.978835978836,54.39153439153439 156.61375661375664,54.60317460317461 157.24867724867727,54.81481481481482 157.8835978835979,55.02645502645503 158.51851851851853,55.02645502645503 159.15343915343917,55.23809523809524 159.7883597883598,55.23809523809524 160.42328042328043,55.449735449735456 161.05820105820106,55.449735449735456 161.6931216931217,55.449735449735456 162.32804232804233,55.661375661375665 162.96296296296296,55.661375661375665 163.59788359788362,55.87301587301588 164.23280423280426,55.87301587301588 164.8677248677249,55.87301587301588 165.50264550264552,55.87301587301588 166.13756613756615,56.08465608465609 166.7724867724868,56.08465608465609 167.40740740740742,56.2962962962963 168.04232804232805,56.2962962962963 168.67724867724868,56.2962962962963 169.31216931216932,56.50793650793651 169.94708994708995,56.50793650793651 170.58201058201058,56.71957671957672 171.21693121693124,56.71957671957672 171.85185185185188,56.71957671957672 172.4867724867725,56.93121693121694 173.12169312169314,56.93121693121694 173.75661375661377,57.142857142857146 174.3915343915344,57.35449735449736 175.02645502645504,57.35449735449736 175.66137566137567,57.35449735449736 176.2962962962963,57.56613756613757 176.93121693121694,57.777777777777786 177.56613756613757,57.777777777777786 178.2010582010582,57.989417989417994 178.83597883597884,58.2010582010582 179.4708994708995,58.2010582010582 180.10582010582013,58.2010582010582 180.74074074074076,58.2010582010582 181.3756613756614,58.41269841269842 182.01058201058203,58.62433862433863 182.64550264550266,58.62433862433863 183.2804232804233,58.83597883597884 183.91534391534393,58.83597883597884 184.55026455026456,59.04761904761905 185.1851851851852,59.04761904761905 188.78306878306879,59.682539682539684" style="fill:none; stroke:#cc0000; stroke-width:1.0"  /><polyline points="188.78306878306879,59.682539682539684 186.8783068783069,62.64550264550265 186.45502645502646,63.280423280423285 186.03174603174605,63.91534391534392 185.60846560846562,64.55026455026456 185.1851851851852,65.18518518518519 184.7619047619048,65.82010582010582 184.55026455026456,66.45502645502646 184.12698412698415,66.87830687830689 183.70370370370372,67.51322751322752 183.4920634920635,68.14814814814815 183.0687830687831,68.57142857142858 182.85714285714286,69.20634920634922 182.43386243386246,69.62962962962963 182.22222222222223,70.26455026455027 181.79894179894183,70.6878306878307 181.5873015873016,71.32275132275133 181.16402116402116,71.74603174603175 180.95238095238096,72.38095238095238 180.52910052910053,73.01587301587303 180.10582010582013,73.65079365079366 179.8941798941799,74.28571428571429 179.4708994708995,74.92063492063492 179.25925925925927,75.55555555555556 178.83597883597884,76.19047619047619 178.41269841269843,76.82539682539684 178.2010582010582,77.46031746031747 177.7777777777778,78.0952380952381 177.56613756613757,78.73015873015873 177.14285714285717,79.36507936507937 176.93121693121694,80.0 176.50793650793653,80.63492063492065 176.0846560846561,81.26984126984128 175.87301587301587,81.90476190476191 175.44973544973547,82.53968253968254 175.23809523809524,83.17460317460318 174.81481481481484,83.80952380952381 174.6031746031746,84.44444444444446 174.1798941798942,85.07936507936509 173.96825396825398,85.71428571428572 173.75661375661377,86.34920634920636 173.54497354497354,86.98412698412699 173.12169312169314,87.61904761904762 172.9100529100529,88.25396825396827 172.4867724867725,88.67724867724868 172.27513227513228,89.31216931216932 171.85185185185188,89.94708994708995 171.42857142857144,90.58201058201058 171.21693121693124,91.21693121693123 170.7936507936508,91.64021164021165 170.37037037037038,92.27513227513228 169.94708994708995,92.69841269841271 169.52380952380955,93.12169312169313 169.10052910052912,93.54497354497356 168.67724867724868,93.96825396825398 168.04232804232805,94.39153439153439 167.40740740740742,94.81481481481482 166.7724867724868,95.23809523809524 166.13756613756615,95.44973544973546 165.50264550264552,95.66137566137567 164.8677248677249,95.66137566137567 164.23280423280426,95.66137566137567 163.59788359788362,95.66137566137567 162.96296296296296,95.44973544973546 162.32804232804233,95.23809523809524 161.6931216931217,94.81481481481482 161.05820105820106,94.39153439153439 160.42328042328043,93.96825396825398 160.0,93.54497354497356 159.5767195767196,93.12169312169313 159.15343915343917,92.69841269841271 158.73015873015873,92.06349206349208 158.30687830687833,91.64021164021165 157.8835978835979,91.00529100529101 157.46031746031747,90.58201058201058 157.03703703703704,89.94708994708995 156.61375661375664,89.52380952380953 156.1904761904762,89.1005291005291 155.76719576719577,88.46560846560847 155.13227513227514,88.04232804232805 154.7089947089947,87.61904761904762 154.2857142857143,86.98412698412699 153.86243386243387,86.56084656084657 153.22751322751324,86.13756613756614 152.5925925925926,85.71428571428572 152.16931216931218,85.29100529100529 151.53439153439155,84.86772486772487 150.8994708994709,84.44444444444446 150.26455026455028,84.02116402116403 149.62962962962965,83.59788359788361 148.99470899470901,83.3862433862434 148.57142857142858,82.96296296296298 147.93650793650795,82.75132275132276 147.30158730158732,82.53968253968254 146.66666666666669,82.11640211640213 146.03174603174605,82.11640211640213 145.39682539682542,81.90476190476191 144.76190476190476,81.90476190476191 144.12698412698413,81.90476190476191 143.4920634920635,81.90476190476191 142.85714285714286,82.11640211640213 142.22222222222223,82.11640211640213 141.5873015873016,82.53968253968254 140.95238095238096,82.75132275132276 140.31746031746033,83.17460317460318 139.6825396825397,83.59788359788361 139.04761904761907,84.02116402116403 138.41269841269843,84.44444444444446 137.989417989418,84.86772486772487 137.35449735449737,85.29100529100529 136.93121693121694,85.71428571428572 136.2962962962963,86.13756613756614 135.87301587301587,86.77248677248677 135.44973544973547,87.1957671957672 135.02645502645504,87.61904761904762 134.6031746031746,88.04232804232805 134.17989417989418,88.46560846560847 133.75661375661377,88.8888888888889 133.33333333333334,89.52380952380953 132.9100529100529,90.15873015873017 132.4867724867725,90.7936507936508 132.06349206349208,91.42857142857143 131.85185185185185,92.06349206349208 131.42857142857144,92.4867724867725 131.005291005291,93.12169312169313 130.7936507936508,93.75661375661376 130.37037037037038,94.39153439153439 130.15873015873018,95.02645502645504 129.73544973544975,95.66137566137567 129.52380952380955,96.2962962962963 129.31216931216932,96.93121693121694 128.88888888888889,97.56613756613757 128.67724867724868,98.2010582010582 128.46560846560848,98.83597883597885 128.25396825396825,99.47089947089948 127.83068783068784,100.10582010582011 127.61904761904763,100.74074074074075 127.61904761904763,101.37566137566138 127.40740740740742,102.01058201058201 127.1957671957672,102.64550264550266 126.77248677248679,103.28042328042329 126.77248677248679,103.91534391534393 126.56084656084657,104.55026455026456 126.56084656084657,105.18518518518519 126.34920634920636,105.82010582010582 126.34920634920636,106.45502645502647 126.13756613756615,107.0899470899471 126.13756613756615,107.72486772486774 126.13756613756615,108.35978835978837 126.13756613756615,108.994708994709 126.13756613756615,109.62962962962963 126.13756613756615,110.26455026455027 126.34920634920636,110.89947089947091 126.34920634920636,111.53439153439155 126.56084656084657,112.16931216931218 126.77248677248679,112.80423280423281 126.77248677248679,113.43915343915344 127.1957671957672,114.07407407407408 127.40740740740742,114.70899470899472 127.83068783068784,115.34391534391536 128.25396825396825,115.97883597883599 128.67724867724868,116.4021164021164 129.10052910052912,116.82539682539684 129.52380952380955,117.46031746031747 130.15873015873018,117.88359788359789 130.58201058201058,118.30687830687832 131.21693121693121,118.73015873015873 131.85185185185185,118.94179894179895 132.4867724867725,119.36507936507937 133.12169312169314,119.57671957671958 133.75661375661377,120.00000000000001 134.3915343915344,120.21164021164022 135.02645502645504,120.42328042328043 135.66137566137567,120.63492063492065 136.2962962962963,120.84656084656086 136.93121693121694,120.84656084656086 137.56613756613757,121.05820105820106 138.2010582010582,121.05820105820106 138.83597883597884,121.05820105820106 139.47089947089947,121.05820105820106 140.10582010582013,121.05820105820106 140.74074074074076,121.05820105820106 141.3756613756614,121.05820105820106 142.01058201058203,121.05820105820106 142.64550264550266,120.84656084656086 143.2804232804233,120.63492063492065 143.91534391534393,120.63492063492065 144.55026455026456,120.42328042328043 145.1851851851852,120.42328042328043 145.82010582010582,120.21164021164022 146.45502645502646,120.21164021164022 147.0899470899471,120.00000000000001 147.72486772486775,120.00000000000001 148.35978835978838,119.7883597883598 148.99470899470901,119.7883597883598 149.62962962962965,119.57671957671958 150.26455026455028,119.57671957671958 150.8994708994709,119.57671957671958 151.53439153439155,119.7883597883598 152.16931216931218,119.7883597883598 152.5925925925926,119.36507936507937 153.22751322751324,119.36507936507937 153.86243386243387,119.36507936507937 154.4973544973545,119.36507936507937 155.13227513227514,119.36507936507937 155.76719576719577,119.57671957671958 156.4021164021164,119.57671957671958 157.03703703703704,119.57671957671958 157.67195767195767,119.7883597883598 158.30687830687833,119.7883597883598 158.73015873015873,120.21164021164022 159.36507936507937,120.42328042328043 159.7883597883598,120.84656084656086 160.42328042328043,121.26984126984128 160.84656084656086,121.6931216931217 161.2698412698413,122.11640211640213 161.6931216931217,122.75132275132276 161.90476190476193,123.3862433862434 162.11640211640213,124.02116402116403 162.11640211640213,124.65608465608466 162.32804232804233,125.2910052910053 162.32804232804233,125.92592592592594 162.53968253968256,126.56084656084657 162.53968253968256,127.1957671957672 162.53968253968256,127.83068783068784 162.53968253968256,128.46560846560848 162.32804232804233,129.10052910052912 162.32804232804233,129.73544973544975 162.32804232804233,130.37037037037038 162.11640211640213,131.005291005291 162.11640211640213,131.64021164021165 161.90476190476193,132.27513227513228 161.90476190476193,132.9100529100529 161.6931216931217,133.54497354497354 161.6931216931217,134.17989417989418 161.4814814814815,134.81481481481484 161.2698412698413,135.44973544973547 161.05820105820106,136.0846560846561 160.84656084656086,136.71957671957674 160.63492063492066,137.35449735449737 160.21164021164023,137.7777777777778 160.0,138.41269841269843 159.7883597883598,139.04761904761907 159.36507936507937,139.6825396825397 159.15343915343917,140.31746031746033 158.73015873015873,140.95238095238096 158.51851851851853,141.5873015873016 158.0952380952381,142.01058201058203 157.67195767195767,142.64550264550266 157.24867724867727,143.2804232804233 156.82539682539684,143.91534391534393 156.4021164021164,144.33862433862436 155.978835978836,144.973544973545 155.76719576719577,145.60846560846562 155.34391534391534,146.03174603174605 154.92063492063494,146.66666666666669 154.4973544973545,147.0899470899471 154.07407407407408,147.72486772486775 153.65079365079367,148.35978835978838 153.22751322751324,148.78306878306879 152.8042328042328,149.41798941798942 152.38095238095238,149.84126984126985 151.95767195767198,150.47619047619048 151.53439153439155,151.11111111111111 151.11111111111111,151.53439153439155 150.6878306878307,152.16931216931218 150.26455026455028,152.8042328042328 149.84126984126985,153.43915343915344 149.41798941798942,153.86243386243387 148.99470899470901,154.4973544973545 148.57142857142858,155.13227513227514 148.14814814814815,155.76719576719577 147.93650793650795,156.4021164021164 147.51322751322752,156.82539682539684 147.0899470899471,157.46031746031747 146.66666666666669,157.8835978835979 146.24338624338625,158.51851851851853 145.82010582010582,159.15343915343917 145.39682539682542,159.5767195767196 144.973544973545,160.21164021164023 144.55026455026456,160.84656084656086 144.12698412698413,161.2698412698413 143.70370370370372,161.90476190476193 143.2804232804233,162.53968253968256 142.85714285714286,163.1746031746032 142.43386243386246,163.59788359788362 142.01058201058203,164.23280423280426 141.5873015873016,164.8677248677249 141.16402116402116,165.50264550264552 140.74074074074076,165.92592592592595 140.31746031746033,166.56084656084658 139.8941798941799,167.19576719576722 139.47089947089947,167.61904761904762 139.04761904761907,168.25396825396825 138.62433862433863,168.8888888888889 138.2010582010582,169.31216931216932 137.7777777777778,169.94708994708995 137.35449735449737,170.58201058201058 136.93121693121694,171.005291005291 136.5079365079365,171.64021164021165 136.0846560846561,172.27513227513228 135.66137566137567,172.6984126984127 135.23809523809524,173.33333333333334 134.81481481481484,173.75661375661377 134.6031746031746,174.3915343915344 134.17989417989418,174.81481481481484 133.75661375661377,175.44973544973547 133.33333333333334,176.0846560846561 132.9100529100529,176.71957671957674 132.4867724867725,177.35449735449737 132.06349206349208,177.989417989418 131.85185185185185,178.62433862433863 131.42857142857144,179.25925925925927 129.73544973544975,181.79894179894183" style="fill:none; stroke:#999900; stroke-width:1.0"  /><polyline points="129.73544973544975,181.79894179894183 126.56084656084657,179.8941798941799 125.92592592592594,179.4708994708995 125.2910052910053,179.04761904761907 124.65608465608466,178.62433862433863 124.02116402116403,178.2010582010582 123.3862433862434,177.7777777777778 122.75132275132276,177.35449735449737 122.11640211640213,176.93121693121694 121.4814814814815,176.50793650793653 121.05820105820106,176.0846560846561 120.42328042328043,176.0846560846561 120.00000000000001,175.66137566137567 119.36507936507937,175.23809523809524 118.73015873015873,174.81481481481484 118.0952380952381,174.3915343915344 117.46031746031747,173.96825396825398 117.03703703703705,173.54497354497354 116.4021164021164,173.33333333333334 115.97883597883599,172.9100529100529 115.34391534391536,172.4867724867725 114.70899470899472,172.27513227513228 114.28571428571429,171.85185185185188 113.65079365079366,171.42857142857144 113.01587301587303,171.005291005291 112.3809523809524,170.7936507936508 111.95767195767196,170.37037037037038 111.32275132275133,169.94708994708995 110.6878306878307,169.52380952380955 110.26455026455027,169.10052910052912 109.62962962962963,168.67724867724868 108.994708994709,168.25396825396825 108.35978835978837,167.83068783068785 107.72486772486774,167.40740740740742 107.0899470899471,166.984126984127 106.45502645502647,166.56084656084658 105.82010582010582,166.13756613756615 105.18518518518519,165.71428571428572 104.55026455026456,165.2910052910053 104.12698412698414,164.8677248677249 103.4920634920635,164.65608465608466 103.06878306878308,164.23280423280426 102.43386243386244,163.80952380952382 101.79894179894181,163.59788359788362 101.37566137566138,163.1746031746032 100.74074074074075,162.75132275132276 100.10582010582011,162.32804232804233 99.47089947089948,161.90476190476193 99.04761904761905,161.4814814814815 98.41269841269842,161.2698412698413 97.989417989418,160.84656084656086 97.35449735449737,160.42328042328043 96.71957671957672,160.0 96.08465608465609,159.5767195767196 95.44973544973546,159.15343915343917 94.81481481481482,158.73015873015873 94.17989417989419,158.30687830687833 93.54497354497356,157.8835978835979 92.91005291005291,157.46031746031747 92.27513227513228,157.03703703703704 91.85185185185186,156.61375661375664 91.21693121693123,156.1904761904762 90.58201058201058,155.978835978836 89.94708994708995,155.55555555555557 89.31216931216932,155.13227513227514 88.67724867724868,154.7089947089947 88.04232804232805,154.2857142857143 87.40740740740742,153.86243386243387 86.98412698412699,153.43915343915344 86.34920634920636,153.01587301587304 85.71428571428572,153.01587301587304 85.29100529100529,152.5925925925926 84.65608465608466,152.16931216931218 84.23280423280424,151.74603174603175 83.59788359788361,151.32275132275134 82.96296296296298,151.11111111111111 82.32804232804233,150.6878306878307 81.90476190476191,150.26455026455028 81.26984126984128,149.84126984126985 80.63492063492065,149.41798941798942 80.0,148.99470899470901 79.36507936507937,148.78306878306879 78.94179894179895,148.35978835978838 78.30687830687832,147.93650793650795 77.67195767195767,147.51322751322752 77.03703703703704,147.0899470899471 76.61375661375662,146.66666666666669 75.97883597883599,146.24338624338625 75.34391534391536,146.03174603174605 74.92063492063492,145.60846560846562 74.28571428571429,145.1851851851852 73.65079365079366,144.76190476190476 73.01587301587303,144.33862433862436 72.38095238095238,143.91534391534393 71.74603174603175,143.4920634920635 71.11111111111111,143.0687830687831 70.47619047619048,142.64550264550266 69.84126984126985,142.22222222222223 69.41798941798942,141.7989417989418 68.78306878306879,141.3756613756614 68.14814814814815,141.16402116402116 67.72486772486774,140.74074074074076 67.08994708994709,140.31746031746033 66.45502645502646,139.8941798941799 65.82010582010582,139.47089947089947 65.18518518518519,139.04761904761907 64.55026455026456,138.62433862433863 63.91534391534392,138.2010582010582 63.492063492063494,137.7777777777778 62.85714285714286,137.35449735449737 62.22222222222223,136.93121693121694 61.58730158730159,136.5079365079365 60.952380952380956,136.0846560846561 60.31746031746032,135.66137566137567 59.682539682539684,135.23809523809524 59.25925925925927,134.81481481481484 58.62433862433863,134.3915343915344 57.989417989417994,133.96825396825398 57.35449735449736,133.54497354497354 56.71957671957672,133.12169312169314 56.08465608465609,132.6984126984127 55.449735449735456,132.27513227513228 54.81481481481482,131.85185185185185 54.179894179894184,131.42857142857144 53.54497354497355,131.005291005291 52.91005291005291,130.58201058201058 52.27513227513228,130.15873015873018 51.640211640211646,129.73544973544975 51.00529100529101,129.31216931216932 50.370370370370374,129.10052910052912 49.73544973544974,128.67724867724868 49.1005291005291,128.25396825396825 48.46560846560847,127.83068783068784 47.830687830687836,127.40740740740742 47.195767195767196,126.98412698412699 46.560846560846564,126.56084656084657 45.92592592592593,126.13756613756615 45.50264550264551,125.71428571428572 44.867724867724874,125.5026455026455 44.44444444444445,125.07936507936509 44.021164021164026,124.65608465608466 43.386243386243386,124.44444444444446 42.96296296296297,124.02116402116403 42.32804232804233,123.59788359788361 41.6931216931217,123.17460317460318 41.058201058201064,122.96296296296298 40.63492063492064,122.53968253968254 40.0,122.11640211640213 39.36507936507937,121.6931216931217 38.730158730158735,121.26984126984128 38.095238095238095,120.84656084656086 37.46031746031746,120.63492063492065 37.03703703703704,120.21164021164022 36.402116402116405,119.7883597883598 35.76719576719577,119.36507936507937 35.13227513227513,118.94179894179895 34.4973544973545,118.51851851851853 33.86243386243387,118.0952380952381 33.43915343915344,117.67195767195768 32.804232804232804,117.46031746031747 32.38095238095239,117.03703703703705 31.746031746031747,116.61375661375662 31.111111111111114,116.1904761904762 30.476190476190478,115.76719576719577 29.841269841269842,115.55555555555557 29.41798941798942,115.13227513227514 28.994708994708997,114.70899470899472 28.35978835978836,114.49735449735451 27.93650793650794,114.07407407407408 27.301587301587304,113.65079365079366 26.666666666666668,113.43915343915344 26.243386243386244,113.01587301587303 25.60846560846561,112.5925925925926 25.185185185185187,112.16931216931218 24.55026455026455,111.74603174603176 23.915343915343918,111.53439153439155 23.492063492063494,111.11111111111111 22.857142857142858,110.6878306878307 22.222222222222225,110.26455026455027 21.58730158730159,109.84126984126985 20.952380952380953,109.41798941798943 20.31746031746032,109.20634920634922 19.894179894179896,108.78306878306879 19.47089947089947,108.35978835978837 18.83597883597884,107.93650793650795 18.201058201058203,107.51322751322752 17.566137566137566,107.0899470899471 16.931216931216934,106.66666666666667 16.296296296296298,106.24338624338625 15.661375661375663,106.03174603174604 15.026455026455027,105.60846560846562 14.391534391534393,105.18518518518519 13.756613756613758,104.76190476190477 13.121693121693122,104.33862433862434 12.6984126984127,103.91534391534393 12.063492063492065,103.70370370370371 11.640211640211641,103.28042328042329 11.005291005291006,102.85714285714286 10.370370370370372,102.43386243386244 9.735449735449736,102.01058201058201 9.100529100529101,101.5873015873016 8.465608465608467,101.16402116402116 7.830687830687832,100.74074074074075 7.407407407407408,100.31746031746033 6.772486772486773,99.8941798941799 6.137566137566138,99.47089947089948 5.502645502645503,99.04761904761905 4.867724867724868,98.62433862433863 4.2328042328042335,98.2010582010582 3.597883597883598,97.77777777777779 2.9629629629629632,97.35449735449737 0.4232804232804233,95.44973544973546" style="fill:none; stroke:#00aa99; stroke-width:3.0" stroke-dasharray="6,3" /><polyline points="0.4232804232804233,95.44973544973546 2.3280423280423284,93.54497354497356 2.9629629629629632,93.12169312169313 3.3862433862433865,92.69841269841271 3.8095238095238098,92.06349206349208 4.444444444444445,91.64021164021165 4.867724867724868,91.00529100529101 5.502645502645503,90.58201058201058 5.9259259259259265,90.15873015873017 6.34920634920635,89.73544973544975 6.772486772486773,89.31216931216932 7.195767195767196,88.67724867724868 7.6190476190476195,88.25396825396827 8.042328042328043,87.83068783068784 8.465608465608467,87.40740740740742 8.88888888888889,86.98412698412699 9.312169312169313,86.56084656084657 9.735449735449736,86.13756613756614 10.15873015873016,85.71428571428572 10.582010582010582,85.29100529100529 11.005291005291006,84.86772486772487 11.428571428571429,84.44444444444446 11.851851851851853,84.02116402116403 12.275132275132275,83.59788359788361 12.6984126984127,83.17460317460318 13.121693121693122,82.75132275132276 13.544973544973546,82.32804232804233 13.96825396825397,81.90476190476191 14.391534391534393,81.48148148148148 15.026455026455027,81.05820105820106 15.449735449735451,80.63492063492065 15.873015873015873,80.21164021164022 16.084656084656086,79.57671957671958 16.71957671957672,79.15343915343917 17.142857142857146,78.73015873015873 17.566137566137566,78.30687830687832 17.98941798941799,77.88359788359789 18.412698412698415,77.46031746031747 18.83597883597884,77.03703703703704 19.47089947089947,76.61375661375662 19.894179894179896,76.19047619047619 20.31746031746032,75.76719576719577 20.952380952380953,75.34391534391536 21.375661375661377,74.92063492063492 21.7989417989418,74.49735449735451 22.222222222222225,74.07407407407408 22.857142857142858,73.65079365079366 23.280423280423282,73.22751322751323 23.915343915343918,72.80423280423281 24.338624338624342,72.38095238095238 24.761904761904763,71.95767195767196 25.185185185185187,71.53439153439155 25.60846560846561,71.11111111111111 26.031746031746035,70.6878306878307 26.455026455026456,70.26455026455027 26.87830687830688,69.84126984126985 27.301587301587304,69.41798941798942 27.724867724867728,68.994708994709 28.35978835978836,68.57142857142858 28.783068783068785,68.14814814814815 29.20634920634921,67.51322751322752 29.629629629629633,67.08994708994709 29.841269841269842,66.45502645502646 30.264550264550266,66.03174603174604 30.476190476190478,65.3968253968254 30.899470899470902,64.76190476190477 31.111111111111114,64.12698412698413 31.322751322751326,63.492063492063494 31.322751322751326,62.85714285714286 31.53439153439154,62.22222222222223 31.53439153439154,61.58730158730159 31.322751322751326,60.952380952380956 31.322751322751326,60.31746031746032 31.111111111111114,59.682539682539684 30.68783068783069,59.25925925925927 30.476190476190478,58.62433862433863 30.052910052910054,58.2010582010582 29.629629629629633,57.777777777777786 29.20634920634921,57.142857142857146 28.783068783068785,56.71957671957672 28.14814814814815,56.2962962962963 27.724867724867728,55.87301587301588 27.089947089947092,55.661375661375665 26.666666666666668,55.23809523809524 26.031746031746035,55.02645502645503 25.3968253968254,54.81481481481482 24.761904761904763,54.60317460317461 24.12698412698413,54.39153439153439 23.492063492063494,54.179894179894184 22.857142857142858,54.179894179894184 22.222222222222225,53.968253968253975 21.58730158730159,53.968253968253975 20.952380952380953,53.75661375661376 20.31746031746032,53.75661375661376 19.682539682539684,53.54497354497355 19.047619047619047,53.54497354497355 18.412698412698415,53.54497354497355 17.77777777777778,53.333333333333336 17.142857142857146,53.333333333333336 16.50793650793651,53.333333333333336 15.873015873015873,53.12169312169313 15.238095238095239,53.333333333333336 14.603174603174605,53.333333333333336 13.96825396825397,53.333333333333336 13.333333333333334,53.12169312169313 12.6984126984127,53.12169312169313 12.063492063492065,52.91005291005291 11.428571428571429,52.91005291005291 10.793650793650794,52.6984126984127 10.15873015873016,52.48677248677249 9.523809523809524,52.27513227513228 8.88888888888889,52.06349206349207 8.253968253968255,51.640211640211646 7.6190476190476195,51.42857142857143 6.984126984126985,51.00529100529101 6.34920634920635,50.58201058201058 5.714285714285714,50.158730158730165 5.07936507936508,49.73544973544974 4.656084656084657,49.31216931216932 4.2328042328042335,48.88888888888889 3.8095238095238098,48.46560846560847 3.3862433862433865,48.042328042328045 2.9629629629629632,47.40740740740741 2.7513227513227516,46.77248677248678 2.53968253968254,46.13756613756614 2.3280423280423284,45.50264550264551 2.3280423280423284,44.867724867724874 2.3280423280423284,44.232804232804234 2.3280423280423284,43.5978835978836 2.53968253968254,42.96296296296297 2.7513227513227516,42.32804232804233 2.7513227513227516,41.6931216931217 2.9629629629629632,41.058201058201064 3.174603174603175,40.423280423280424 3.3862433862433865,39.78835978835979 3.597883597883598,39.15343915343916 3.8095238095238098,38.51851851851852 4.2328042328042335,37.883597883597886 4.444444444444445,37.248677248677254 4.867724867724868,36.613756613756614 5.07936507936508,35.97883597883598 5.502645502645503,35.34391534391535 5.9259259259259265,34.70899470899471 6.34920634920635,34.074074074074076 6.772486772486773,33.43915343915344 6.984126984126985,32.804232804232804 7.6190476190476195,32.38095238095239 8.042328042328043,31.746031746031747 8.465608465608467,31.322751322751326 8.88888888888889,30.68783068783069 9.312169312169313,30.264550264550266 9.735449735449736,29.841269841269842 10.15873015873016,29.41798941798942 10.582010582010582,28.994708994708997 11.005291005291006,28.571428571428573 11.428571428571429,28.14814814814815 12.063492063492065,27.724867724867728 12.486772486772487,27.301587301587304 12.910052910052912,26.87830687830688 13.544973544973546,26.666666666666668 13.96825396825397,26.243386243386244 14.603174603174605,25.820105820105823 15.238095238095239,25.3968253968254 15.661375661375663,24.973544973544975 16.296296296296298,24.55026455026455 16.931216931216934,24.338624338624342 17.566137566137566,23.915343915343918 18.201058201058203,23.703703703703706 18.83597883597884,23.492063492063494 19.25925925925926,23.06878306878307 19.894179894179896,22.857142857142858 20.529100529100532,22.645502645502646 21.164021164021165,22.222222222222225 21.7989417989418,22.222222222222225 22.433862433862437,21.7989417989418 23.06878306878307,21.58730158730159 23.703703703703706,21.375661375661377 24.338624338624342,21.164021164021165 24.973544973544975,20.952380952380953 25.60846560846561,20.740740740740744 26.243386243386244,20.529100529100532 26.87830687830688,20.31746031746032 27.513227513227516,20.31746031746032 28.14814814814815,20.105820105820108 28.783068783068785,20.105820105820108 29.41798941798942,20.105820105820108 30.052910052910054,20.105820105820108 30.68783068783069,19.894179894179896 31.322751322751326,19.894179894179896 31.95767195767196,20.105820105820108 32.592592592592595,20.105820105820108 33.22751322751323,20.105820105820108 33.86243386243387,20.105820105820108 34.4973544973545,20.105820105820108 35.13227513227513,20.105820105820108 35.76719576719577,20.105820105820108 36.402116402116405,20.105820105820108 37.03703703703704,20.105820105820108 37.67195767195768,20.31746031746032 38.30687830687831,20.31746031746032 38.94179894179894,20.529100529100532 39.57671957671958,20.740740740740744 40.211640211640216,20.952380952380953 40.84656084656085,21.164021164021165 41.48148148148149,21.375661375661377 41.904761904761905,21.7989417989418 42.32804232804233,22.222222222222225 42.75132275132275,22.645502645502646 43.17460317460318,23.06878306878307 43.5978835978836,23.703703703703706 44.021164021164026,24.338624338624342 44.232804232804234,24.973544973544975 44.65608465608466,25.60846560846561 44.867724867724874,26.243386243386244 45.07936507936508,26.87830687830688 45.29100529100529,27.513227513227516 45.50264550264551,28.14814814814815 45.714285714285715,28.783068783068785 45.92592592592593,29.41798941798942 46.13756613756614,30.052910052910054 46.349206349206355,30.68783068783069 46.349206349206355,31.322751322751326 46.560846560846564,31.95767195767196 46.560846560846564,32.592592592592595 46.77248677248678,33.22751322751323 46.77248677248678,33.86243386243387 46.77248677248678,34.4973544973545 46.98412698412699,35.13227513227513 46.98412698412699,35.76719576719577 46.98412698412699,36.402116402116405 46.98412698412699,37.03703703703704 46.98412698412699,37.67195767195768 47.195767195767196,38.30687830687831 47.195767195767196,38.94179894179894 47.195767195767196,39.57671957671958 47.40740740740741,40.211640211640216 47.40740740740741,40.84656084656085 47.61904761904762,41.48148148148149 48.042328042328045,42.11640211640212 48.042328042328045,42.75132275132275 48.46560846560847,43.386243386243386 48.88888888888889,44.021164021164026 49.31216931216932,44.65608465608466 49.73544973544974,45.07936507936508 50.158730158730165,45.50264550264551 50.58201058201058,45.92592592592593 51.21693121693122,46.13756613756614 51.640211640211646,46.560846560846564 52.27513227513228,46.77248677248678 52.91005291005291,47.195767195767196 53.54497354497355,47.40740740740741 54.179894179894184,47.40740740740741 54.81481481481482,47.40740740740741 55.449735449735456,47.61904761904762 56.08465608465609,47.40740740740741 56.71957671957672,47.40740740740741 57.35449735449736,47.195767195767196 57.989417989417994,47.195767195767196 58.62433862433863,46.98412698412699 59.25925925925927,46.560846560846564 59.8941798941799,46.349206349206355 60.52910052910053,45.92592592592593 61.16402116402117,45.50264550264551 61.798941798941804,45.07936507936508 62.22222222222223,44.65608465608466 62.64550264550265,44.232804232804234 63.06878306878308,43.80952380952381 63.492063492063494,43.386243386243386 63.91534391534392,42.96296296296297 64.33862433862434,42.539682539682545 64.76190476190477,41.904761904761905 65.18518518518519,41.48148148148149 65.60846560846561,40.84656084656085 66.03174603174604,40.211640211640216 66.45502645502646,39.78835978835979 66.87830687830689,39.15343915343916 67.3015873015873,38.51851851851852 67.72486772486774,37.883597883597886 68.14814814814815,37.46031746031746 68.35978835978837,36.82539682539683 68.78306878306879,36.402116402116405 69.20634920634922,35.97883597883598 69.62962962962963,35.34391534391535 70.05291005291006,34.70899470899471 70.47619047619048,34.074074074074076 70.8994708994709,33.43915343915344 71.32275132275133,33.01587301587302 71.74603174603175,32.38095238095239 72.16931216931218,31.746031746031747 72.5925925925926,31.111111111111114 73.01587301587303,30.476190476190478 73.43915343915344,30.052910052910054 73.86243386243387,29.41798941798942 74.28571428571429,28.994708994708997 74.70899470899471,28.571428571428573 74.92063492063492,27.93650793650794 75.34391534391536,27.301587301587304 75.76719576719577,26.87830687830688 76.19047619047619,26.243386243386244 76.61375661375662,25.820105820105823 77.03703703703704,25.185185185185187 77.46031746031747,24.55026455026455 77.88359788359789,23.915343915343918 78.30687830687832,23.280423280423282 78.73015873015873,22.857142857142858 79.15343915343917,22.222222222222225 79.57671957671958,21.7989417989418 80.0,21.164021164021165 80.42328042328043,20.529100529100532 80.84656084656085,19.894179894179896 81.26984126984128,19.25925925925926 81.6931216931217,18.624338624338627 82.11640211640213,18.201058201058203 82.53968253968254,17.566137566137566 82.96296296296298,16.931216931216934 83.17460317460318,16.296296296296298 83.59788359788361,15.873015873015873 84.02116402116403,15.238095238095239 84.44444444444446,14.603174603174605 84.86772486772487,13.96825396825397 85.29100529100529,13.333333333333334 85.5026455026455,12.6984126984127 85.92592592592594,12.275132275132275 86.34920634920636,11.640211640211641 86.77248677248677,11.005291005291006 87.1957671957672,10.370370370370372 87.61904761904762,9.735449735449736 88.04232804232805,9.100529100529101 88.25396825396827,8.465608465608467 88.67724867724868,8.042328042328043 89.1005291005291,7.407407407407408 89.52380952380953,6.772486772486773 89.94708994708995,6.137566137566138 90.37037037037038,5.502645502645503 90.7936507936508,4.867724867724868 91.00529100529101,4.2328042328042335 91.42857142857143,3.597883597883598 91.85185185185186,2.9629629629629632 94.17989417989419,-0.8465608465608466" style="fill:none; stroke:#3300bb; stroke-width:1.0"  /><circle cx="94.17989417989419" cy="-0.8465608465608466" r="2.0" style="fill:none; stroke:#000000aa; stroke-width:0.25" /><circle cx="188.78306878306879" cy="59.682539682539684" r="2.0" style="fill:none; stroke:#000000aa; stroke-width:0.25" /><circle cx="129.73544973544975" cy="181.79894179894183" r="2.0" style="fill:none; stroke:#000000aa; stroke-width:0.25" /><circle cx="0.4232804232804233" cy="95.44973544973546" r="2.0" style="fill:none; stroke:#000000aa; stroke-width:0.25" /><circle cx="93.96825396825398" cy="0.21164021164021166" r="2.0" style="fill:none; stroke:#ff3366aa; stroke-width:0.25" /><circle cx="188.57142857142858" cy="59.682539682539684" r="2.0" style="fill:none; stroke:#ff3366aa; stroke-width:0.25" /><circle cx="129.52380952380955" cy="181.5873015873016" r="2.0" style="fill:none; stroke:#ff3366aa; stroke-width:0.25" /><circle cx="0.21164021164021166" cy="96.08465608465609" r="2.0" style="fill:none; stroke:#ff3366aa; stroke-width:0.25" /><polyline points="102.01058201058201,8.88888888888889 101.5873015873016,8.253968253968255 101.16402116402116,7.6190476190476195 100.74074074074075,7.195767195767196 100.31746031746033,6.560846560846561 99.8941798941799,6.137566137566138 99.47089947089948,5.714285714285714 99.04761904761905,5.07936507936508 98.62433862433863,4.656084656084657 98.2010582010582,4.021164021164021 97.77777777777779,3.597883597883598 97.35449735449737,3.174603174603175 96.93121693121694,2.53968253968254 96.50793650793652,2.1164021164021167" style="fill:none; stroke:#001100; stroke-width:1.0" /><polyline points="87.61904761904762,9.735449735449736 88.04232804232805,9.100529100529101 88.25396825396827,8.465608465608467 88.67724867724868,8.042328042328043 89.1005291005291,7.407407407407408 89.52380952380953,6.772486772486773 89.94708994708995,6.137566137566138 90.37037037037038,5.502645502645503 90.7936507936508,4.867724867724868 91.00529100529101,4.2328042328042335 91.42857142857143,3.597883597883598 91.85185185185186,2.9629629629629632" style="fill:none; stroke:#000011; stroke-width:1.0" /><polyline points="182.43386243386246,69.62962962962963 182.85714285714286,69.20634920634922 183.0687830687831,68.57142857142858 183.4920634920635,68.14814814814815 183.70370370370372,67.51322751322752 184.12698412698415,66.87830687830689 184.55026455026456,66.45502645502646 184.7619047619048,65.82010582010582 185.1851851851852,65.18518518518519 185.60846560846562,64.55026455026456 186.03174603174605,63.91534391534392 186.45502645502646,63.280423280423285 186.8783068783069,62.64550264550265" style="fill:none; stroke:#001100; stroke-width:1.0" /><polyline points="176.93121693121694,57.777777777777786 177.56613756613757,57.777777777777786 178.2010582010582,57.989417989417994 178.83597883597884,58.2010582010582 179.4708994708995,58.2010582010582 180.10582010582013,58.2010582010582 180.74074074074076,58.2010582010582 181.3756613756614,58.41269841269842 182.01058201058203,58.62433862433863 182.64550264550266,58.62433862433863 183.2804232804233,58.83597883597884 183.91534391534393,58.83597883597884 184.55026455026456,59.04761904761905 185.1851851851852,59.04761904761905" style="fill:none; stroke:#000011; stroke-width:1.0" /><polyline points="119.36507936507937,175.23809523809524 120.00000000000001,175.66137566137567 120.42328042328043,176.0846560846561 121.05820105820106,176.0846560846561 121.4814814814815,176.50793650793653 122.11640211640213,176.93121693121694 122.75132275132276,177.35449735449737 123.3862433862434,177.7777777777778 124.02116402116403,178.2010582010582 124.65608465608466,178.62433862433863 125.2910052910053,179.04761904761907 125.92592592592594,179.4708994708995 126.56084656084657,179.8941798941799" style="fill:none; stroke:#001100; stroke-width:1.0" /><polyline points="136.0846560846561,172.27513227513228 135.66137566137567,172.6984126984127 135.23809523809524,173.33333333333334 134.81481481481484,173.75661375661377 134.6031746031746,174.3915343915344 134.17989417989418,174.81481481481484 133.75661375661377,175.44973544973547 133.33333333333334,176.0846560846561 132.9100529100529,176.71957671957674 132.4867724867725,177.35449735449737 132.06349206349208,177.989417989418 131.85185185185185,178.62433862433863 131.42857142857144,179.25925925925927" style="fill:none; stroke:#000011; stroke-width:1.0" /><polyline points="8.465608465608467,87.40740740740742 8.042328042328043,87.83068783068784 7.6190476190476195,88.25396825396827 7.195767195767196,88.67724867724868 6.772486772486773,89.31216931216932 6.34920634920635,89.73544973544975 5.9259259259259265,90.15873015873017 5.502645502645503,90.58201058201058 4.867724867724868,91.00529100529101 4.444444444444445,91.64021164021165 3.8095238095238098,92.06349206349208 3.3862433862433865,92.69841269841271 2.9629629629629632,93.12169312169313 2.3280423280423284,93.54497354497356" style="fill:none; stroke:#001100; stroke-width:1.0" /><polyline points="10.370370370370372,102.43386243386244 9.735449735449736,102.01058201058201 9.100529100529101,101.5873015873016 8.465608465608467,101.16402116402116 7.830687830687832,100.74074074074075 7.407407407407408,100.31746031746033 6.772486772486773,99.8941798941799 6.137566137566138,99.47089947089948 5.502645502645503,99.04761904761905 4.867724867724868,98.62433862433863 4.2328042328042335,98.2010582010582 3.597883597883598,97.77777777777779 2.9629629629629632,97.35449735449737" style="fill:none; stroke:#000011; stroke-width:1.0" /><polyline points="96.50793650793652,2.1164021164021167 83.17460317460318,-14.391534391534393" style="fill:none; stroke:#ffaa00; stroke-width:0.4" /><polyline points="91.85185185185186,2.9629629629629632 103.06878306878308,-15.026455026455027" style="fill:none; stroke:#aaff00; stroke-width:0.4" /><polyline points="186.8783068783069,62.64550264550265 198.30687830687833,44.867724867724874" style="fill:none; stroke:#ffaa00; stroke-width:0.4" /><polyline points="185.1851851851852,59.04761904761905 206.13756613756615,62.22222222222223" style="fill:none; stroke:#aaff00; stroke-width:0.4" /><polyline points="126.56084656084657,179.8941798941799 144.33862433862436,191.32275132275134" style="fill:none; stroke:#ffaa00; stroke-width:0.4" /><polyline points="131.42857142857144,179.25925925925927 119.7883597883598,196.82539682539684" style="fill:none; stroke:#aaff00; stroke-width:0.4" /><polyline points="2.3280423280423284,93.54497354497356 -12.6984126984127,108.57142857142858" style="fill:none; stroke:#ffaa00; stroke-width:0.4" /><polyline points="2.9629629629629632,97.35449735449737 -14.391534391534393,85.29100529100529" style="fill:none; stroke:#aaff00; stroke-width:0.4" /><circle cx="94.81481481481482" cy="83.80952380952381" r="1.0" style="fill:#444444; stroke-width:0" /><circle cx="79.7883597883598" cy="90.7936507936508" r="10.582010582010582" style="fill:#ff770022; stroke-width:0" /><circle cx="79.7883597883598" cy="90.7936507936508" r="1.0" style="fill:#ff7700; stroke-width:0" /></svg>