<?xml version="1.0" encoding="UTF-8" standalone="no"?><svg width="452.6984126984127" height="499.6825396825397" viewBox="-10 -10 170.8994708994709 186.56084656084658" xmlns="http://www.w3.org/2000/svg" xmlns:xlink="http://www.w3.org/1999/xlink"><polyline points="23.280423280423282,0.21164021164021166 27.513227513227516,0.4232804232804233 28.14814814814815,0.21164021164021166 28.783068783068785,0.4232804232804233 29.41798941798942,0.4232804232804233 30.052910052910054,0.4232804232804233 30.68783068783069,0.21164021164021166 31.322751322751326,0.4232804232804233 31.95767195767196,0.4232804232804233 32.592592592592595,0.4232804232804233 33.22751322751323,0.634920634920635 33.86243386243387,0.634920634920635 34.4973544973545,0.634920634920635 35.13227513227513,0.634920634920635 35.76719576719577,0.634920634920635 36.402116402116405,0.8465608465608466 37.03703703703704,0.8465608465608466 37.67195767195768,0.8465608465608466 38.30687830687831,1.0582010582010584 38.94179894179894,1.0582010582010584 39.57671957671958,1.0582010582010584 40.211640211640216,1.0582010582010584 40.84656084656085,1.26984126984127 41.48148148148149,1.4814814814814816 42.11640211640212,1.4814814814814816 42.75132275132275,1.6931216931216932 43.386243386243386,1.6931216931216932 44.021164021164026,1.9047619047619049 44.65608465608466,1.9047619047619049 45.29100529100529,1.9047619047619049 45.92592592592593,2.1164021164021167 46.560846560846564,2.3280423280423284 47.195767195767196,2.3280423280423284 47.830687830687836,2.53968253968254 48.46560846560847,2.7513227513227516 49.1005291005291,2.7513227513227516 49.73544973544974,2.9629629629629632 50.370370370370374,2.9629629629629632 51.00529100529101,3.3862433862433865 51.640211640211646,3.3862433862433865 52.27513227513228,3.597883597883598 52.91005291005291,3.8095238095238098 53.54497354497355,3.8095238095238098 54.179894179894184,4.021164021164021 54.81481481481482,4.2328042328042335 55.449735449735456,4.444444444444445 56.08465608465609,4.444444444444445 56.71957671957672,4.656084656084657 57.35449735449736,5.07936507936508 57.777777777777786,5.502645502645503 58.41269841269842,5.9259259259259265 58.83597883597884,6.560846560846561 59.25925925925927,6.984126984126985 59.470899470899475,7.6190476190476195 59.682539682539684,8.253968253968255 59.8941798941799,8.88888888888889 60.10582010582011,9.523809523809524 60.10582010582011,10.15873015873016 60.31746031746032,10.793650793650794 60.31746031746032,11.428571428571429 60.31746031746032,12.063492063492065 60.10582010582011,12.6984126984127 59.8941798941799,13.333333333333334 59.8941798941799,13.96825396825397 59.470899470899475,14.603174603174605 59.25925925925927,15.238095238095239 59.04761904761905,15.873015873015873 58.62433862433863,16.296296296296298 58.2010582010582,16.931216931216934 57.777777777777786,17.566137566137566 57.35449735449736,17.98941798941799 56.93121693121694,18.624338624338627 56.50793650793651,19.25925925925926 56.08465608465609,19.682539682539684 55.661375661375665,20.31746031746032 55.23809523809524,20.952380952380953 54.81481481481482,21.375661375661377 54.39153439153439,22.010582010582013 53.968253968253975,22.645502645502646 53.54497354497355,23.06878306878307 53.12169312169313,23.492063492063494 52.6984126984127,24.12698412698413 52.27513227513228,24.761904761904763 51.851851851851855,25.3968253968254 51.640211640211646,26.031746031746035 51.21693121693122,26.666666666666668 51.00529100529101,27.301587301587304 50.7936507936508,27.93650793650794 50.58201058201058,28.571428571428573 50.370370370370374,29.20634920634921 50.370370370370374,29.841269841269842 50.370370370370374,30.476190476190478 50.370370370370374,31.111111111111114 50.370370370370374,31.746031746031747 50.370370370370374,32.38095238095239 50.370370370370374,33.01587301587302 50.58201058201058,33.65079365079365 50.58201058201058,34.28571428571429 50.7936507936508,34.920634920634924 51.00529100529101,35.55555555555556 51.21693121693122,36.19047619047619 51.640211640211646,36.82539682539683 51.851851851851855,37.46031746031746 52.06349206349207,38.095238095238095 52.48677248677249,38.51851851851852 52.91005291005291,39.15343915343916 53.333333333333336,39.78835978835979 53.75661375661376,40.211640211640216 54.179894179894184,40.84656084656085 54.60317460317461,41.26984126984127 55.02645502645503,41.6931216931217 55.661375661375665,42.11640211640212 56.08465608465609,42.75132275132275 56.71957671957672,42.96296296296297 57.35449735449736,43.386243386243386 57.989417989417994,43.80952380952381 58.41269841269842,44.232804232804234 59.04761904761905,44.44444444444445 59.470899470899475,44.867724867724874 60.10582010582011,45.07936507936508 60.74074074074075,45.50264550264551 61.37566137566138,45.714285714285715 62.01058201058201,45.92592592592593 62.64550264550265,46.13756613756614 63.280423280423285,46.349206349206355 63.91534391534392,46.560846560846564 64.55026455026456,46.560846560846564 65.18518518518519,46.77248677248678 65.82010582010582,46.77248677248678 66.45502645502646,46.98412698412699 67.08994708994709,47.195767195767196 67.72486772486774,47.195767195767196 68.35978835978837,47.195767195767196 68.994708994709,47.195767195767196 69.62962962962963,47.40740740740741 70.26455026455027,47.40740740740741 70.8994708994709,47.40740740740741 71.53439153439155,47.61904761904762 72.16931216931218,47.40740740740741 72.80423280423281,47.61904761904762 73.43915343915344,47.61904761904762 74.07407407407408,47.61904761904762 74.70899470899471,47.61904761904762 75.34391534391536,47.40740740740741 75.97883597883599,47.40740740740741 76.61375661375662,47.61904761904762 77.24867724867725,47.40740740740741 77.88359788359789,47.61904761904762 78.51851851851852,47.40740740740741 79.15343915343917,47.40740740740741 79.7883597883598,47.61904761904762 80.21164021164022,47.195767195767196 80.84656084656085,47.195767195767196 81.48148148148148,47.40740740740741 82.11640211640213,46.98412698412699 82.75132275132276,46.77248677248678 83.3862433862434,46.98412698412699 84.02116402116403,46.77248677248678 84.65608465608466,46.560846560846564 85.29100529100529,46.560846560846564 85.92592592592594,46.349206349206355 86.56084656084657,46.13756613756614 87.1957671957672,45.92592592592593 87.83068783068784,45.92592592592593 88.46560846560847,45.714285714285715 89.1005291005291,45.50264550264551 89.73544973544975,45.07936507936508 90.37037037037038,44.867724867724874 91.00529100529101,44.65608465608466 91.64021164021165,44.44444444444445 92.27513227513228,44.021164021164026 92.91005291005291,43.5978835978836 93.54497354497356,43.17460317460318 93.96825396825398,42.75132275132275 94.39153439153439,42.32804232804233 94.81481481481482,41.904761904761905 95.23809523809524,41.48148148148149 95.44973544973546,40.84656084656085 95.66137566137567,40.211640211640216 95.87301587301587,39.57671957671958 96.08465608465609,38.94179894179894 96.08465608465609,38.30687830687831 96.08465608465609,37.67195767195768 96.08465608465609,37.03703703703704 96.08465608465609,36.402116402116405 96.08465608465609,35.76719576719577 95.87301587301587,35.13227513227513 95.87301587301587,34.4973544973545 95.66137566137567,33.86243386243387 95.44973544973546,33.22751322751323 95.23809523809524,32.592592592592595 95.02645502645504,31.95767195767196 94.60317460317461,31.322751322751326 94.39153439153439,30.68783068783069 93.96825396825398,30.264550264550266 93.75661375661376,29.629629629629633 93.33333333333334,28.994708994708997 92.91005291005291,28.35978835978836 92.69841269841271,27.724867724867728 92.27513227513228,27.089947089947092 91.85185185185186,26.455026455026456 91.64021164021165,25.820105820105823 91.21693121693123,25.185185185185187 90.7936507936508,24.761904761904763 90.58201058201058,24.12698412698413 90.15873015873017,23.492063492063494 89.94708994708995,22.857142857142858 89.73544973544975,22.222222222222225 89.52380952380953,21.58730158730159 89.52380952380953,20.952380952380953 89.31216931216932,20.31746031746032 89.31216931216932,19.682539682539684 89.31216931216932,19.047619047619047 89.52380952380953,18.412698412698415 89.52380952380953,17.77777777777778 89.73544973544975,17.142857142857146 89.94708994708995,16.50793650793651 90.37037037037038,15.873015873015873 90.7936507936508,15.238095238095239 91.21693121693123,14.603174603174605 91.64021164021165,13.96825396825397 92.27513227513228,13.544973544973546 92.91005291005291,13.121693121693122 93.54497354497356,12.6984126984127 94.17989417989419,12.486772486772487 94.81481481481482,12.275132275132275 95.44973544973546,12.063492063492065 96.08465608465609,12.063492063492065 96.71957671957672,12.063492063492065 97.35449735449737,11.851851851851853 97.989417989418,11.851851851851853 98.62433862433863,12.063492063492065 99.25925925925927,12.063492063492065 99.8941798941799,12.275132275132275 100.52910052910053,12.486772486772487 101.16402116402116,12.6984126984127 101.79894179894181,12.6984126984127 102.43386243386244,12.6984126984127 103.06878306878308,12.910052910052912 103.70370370370371,13.121693121693122 104.12698412698414,13.544973544973546 104.76190476190477,13.333333333333334 105.3968253968254,13.544973544973546 106.03174603174604,13.756613756613758 106.66666666666667,13.96825396825397 107.3015873015873,14.17989417989418 107.93650793650795,14.391534391534393 108.57142857142858,14.391534391534393 109.20634920634922,14.603174603174605 109.84126984126985,14.814814814814817 110.47619047619048,15.026455026455027 111.11111111111111,15.238095238095239 111.74603174603176,15.449735449735451 112.3809523809524,15.661375661375663 113.01587301587303,15.873015873015873 113.65079365079366,16.084656084656086 114.28571428571429,16.084656084656086 114.92063492063492,16.296296296296298 115.34391534391536,16.931216931216934 115.97883597883599,16.931216931216934 116.61375661375662,17.142857142857146 117.24867724867725,17.566137566137566 117.88359788359789,17.566137566137566 118.51851851851853,17.566137566137566 118.94179894179895,17.98941798941799 119.57671957671958,18.201058201058203 120.21164021164022,18.412698412698415 120.84656084656086,18.624338624338627 121.4814814814815,19.047619047619047 122.11640211640213,19.25925925925926 122.75132275132276,19.47089947089947 123.17460317460318,19.894179894179896 123.80952380952382,20.105820105820108 124.44444444444446,20.31746031746032 125.07936507936509,20.529100529100532 125.5026455026455,20.952380952380953 126.13756613756615,20.952380952380953 126.77248677248679,21.164021164021165 127.1957671957672,21.58730158730159 127.83068783068784,21.58730158730159 128.46560846560848,22.010582010582013 129.10052910052912,22.222222222222225 129.52380952380955,22.645502645502646 130.15873015873018,23.06878306878307 130.7936507936508,23.280423280423282 131.42857142857144,23.492063492063494 132.06349206349208,23.915343915343918 132.6984126984127,24.338624338624342 133.33333333333334,24.55026455026455 133.96825396825398,24.761904761904763 134.3915343915344,25.185185185185187 135.02645502645504,25.3968253968254 135.66137566137567,25.60846560846561 136.0846560846561,26.031746031746035 136.71957671957674,26.243386243386244 137.35449735449737,26.455026455026456 137.989417989418,26.87830687830688 138.62433862433863,27.301587301587304 139.25925925925927,27.301587301587304 139.8941798941799,27.724867724867728 140.52910052910053,28.14814814814815 141.16402116402116,28.35978835978836 141.7989417989418,28.571428571428573 142.43386243386246,28.571428571428573 143.0687830687831,28.994708994708997 143.70370370370372,29.20634920634921 144.33862433862436,29.41798941798942 144.973544973545,29.629629629629633 145.60846560846562,29.841269841269842 146.24338624338625,29.841269841269842 146.8783068783069,30.052910052910054 147.51322751322752,30.264550264550266 150.47619047619048,31.322751322751326" style="fill:none; stroke:#cc0000; stroke-width:1.0"  /><polyline points="150.47619047619048,31.322751322751326 149.62962962962965,34.70899470899471 149.41798941798942,35.34391534391535 149.41798941798942,35.97883597883598 149.20634920634922,36.613756613756614 148.99470899470901,37.248677248677254 148.78306878306879,37.883597883597886 148.57142857142858,38.51851851851852 148.35978835978838,39.15343915343916 148.35978835978838,39.78835978835979 148.14814814814815,40.423280423280424 147.93650793650795,41.058201058201064 147.93650793650795,41.6931216931217 147.72486772486775,42.32804232804233 147.51322751322752,42.96296296296297 147.51322751322752,43.5978835978836 147.30158730158732,44.232804232804234 147.30158730158732,44.867724867724874 147.0899470899471,45.50264550264551 147.0899470899471,46.13756613756614 147.0899470899471,46.77248677248678 146.8783068783069,47.40740740740741 146.66666666666669,48.042328042328045 146.66666666666669,48.677248677248684 146.45502645502646,49.31216931216932 146.24338624338625,49.94708994708995 146.24338624338625,50.58201058201058 146.03174603174605,51.21693121693122 145.82010582010582,51.851851851851855 145.82010582010582,52.48677248677249 145.60846560846562,53.12169312169313 145.39682539682542,53.75661375661376 145.39682539682542,54.39153439153439 145.1851851851852,55.02645502645503 144.973544973545,55.661375661375665 144.973544973545,56.2962962962963 144.76190476190476,56.93121693121694 144.76190476190476,57.56613756613757 144.55026455026456,58.2010582010582 144.33862433862436,58.83597883597884 144.33862433862436,59.470899470899475 144.12698412698413,60.10582010582011 144.12698412698413,60.74074074074075 143.91534391534393,61.37566137566138 143.70370370370372,62.01058201058201 143.70370370370372,62.64550264550265 143.4920634920635,63.280423280423285 143.2804232804233,63.91534391534392 143.0687830687831,64.55026455026456 142.85714285714286,65.18518518518519 142.85714285714286,65.82010582010582 142.64550264550266,66.45502645502646 142.64550264550266,67.08994708994709 142.43386243386246,67.72486772486774 142.22222222222223,68.35978835978837 142.22222222222223,68.994708994709 142.01058201058203,69.62962962962963 141.7989417989418,70.26455026455027 141.7989417989418,70.8994708994709 141.5873015873016,71.53439153439155 141.3756613756614,72.16931216931218 140.95238095238096,72.80423280423281 140.95238095238096,73.43915343915344 140.74074074074076,74.07407407407408 140.52910052910053,74.70899470899471 140.52910052910053,75.34391534391536 140.31746031746033,75.97883597883599 140.10582010582013,76.61375661375662 139.8941798941799,77.24867724867725 139.8941798941799,77.88359788359789 139.6825396825397,78.51851851851852 139.47089947089947,79.15343915343917 139.25925925925927,79.7883597883598 139.04761904761907,80.42328042328043 139.25925925925927,81.05820105820106 139.04761904761907,81.6931216931217 138.83597883597884,82.32804232804233 138.62433862433863,82.96296296296298 138.41269841269843,83.59788359788361 137.989417989418,84.23280423280424 137.7777777777778,84.86772486772487 137.56613756613757,85.5026455026455 137.14285714285717,85.92592592592594 136.93121693121694,86.56084656084657 136.5079365079365,86.98412698412699 136.0846560846561,87.61904761904762 135.66137566137567,88.04232804232805 135.23809523809524,88.46560846560847 134.81481481481484,88.8888888888889 134.3915343915344,89.31216931216932 133.75661375661377,89.73544973544975 133.12169312169314,89.94708994708995 132.4867724867725,90.15873015873017 131.85185185185185,90.37037037037038 131.21693121693121,90.58201058201058 130.58201058201058,90.58201058201058 129.94708994708995,90.58201058201058 129.31216931216932,90.58201058201058 128.67724867724868,90.37037037037038 128.04232804232805,90.15873015873017 127.40740740740742,90.15873015873017 126.77248677248679,89.94708994708995 126.13756613756615,89.94708994708995 125.5026455026455,89.52380952380953 124.86772486772487,89.31216931216932 124.23280423280424,89.1005291005291 123.59788359788361,88.67724867724868 122.96296296296298,88.46560846560847 122.32804232804234,88.04232804232805 121.6931216931217,87.61904761904762 121.05820105820106,87.40740740740742 120.42328042328043,86.98412698412699 119.7883597883598,86.77248677248677 119.15343915343917,86.34920634920636 118.51851851851853,85.92592592592594 117.88359788359789,85.5026455026455 117.24867724867725,85.29100529100529 116.61375661375662,85.07936507936509 115.97883597883599,84.65608465608466 115.34391534391536,84.44444444444446 114.70899470899472,84.02116402116403 114.07407407407408,83.80952380952381 113.43915343915344,83.59788359788361 112.80423280423281,83.59788359788361 112.16931216931218,83.3862433862434 111.53439153439155,83.17460317460318 110.89947089947091,82.96296296296298 110.26455026455027,82.96296296296298 109.62962962962963,82.96296296296298 108.994708994709,82.96296296296298 108.35978835978837,82.96296296296298 107.72486772486774,82.96296296296298 107.0899470899471,83.17460317460318 106.45502645502647,83.17460317460318 105.82010582010582,83.59788359788361 105.18518518518519,83.80952380952381 104.55026455026456,84.23280423280424 103.91534391534393,84.65608465608466 103.4920634920635,85.07936507936509 103.06878306878308,85.5026455026455 102.64550264550266,85.92592592592594 102.22222222222223,86.56084656084657 101.79894179894181,86.98412698412699 101.37566137566138,87.61904761904762 101.16402116402116,88.25396825396827 100.74074074074075,88.8888888888889 100.52910052910053,89.52380952380953 100.31746031746033,90.15873015873017 100.10582010582011,90.7936507936508 100.10582010582011,91.42857142857143 100.10582010582011,92.06349206349208 99.8941798941799,92.69841269841271 99.8941798941799,93.33333333333334 99.8941798941799,93.96825396825398 99.8941798941799,94.60317460317461 99.8941798941799,95.23809523809524 99.8941798941799,95.87301587301587 99.8941798941799,96.50793650793652 100.10582010582011,97.14285714285715 100.10582010582011,97.77777777777779 100.31746031746033,98.41269841269842 100.52910052910053,99.04761904761905 100.74074074074075,99.68253968253968 100.95238095238096,100.31746031746033 101.37566137566138,100.95238095238096 101.5873015873016,101.5873015873016 102.01058201058201,102.01058201058201 102.43386243386244,102.43386243386244 102.85714285714286,103.06878306878308 103.28042328042329,103.4920634920635 103.70370370370371,103.91534391534393 104.33862433862434,104.33862433862434 104.97354497354497,104.76190476190477 105.3968253968254,105.18518518518519 106.03174603174604,105.60846560846562 106.66666666666667,106.03174603174604 107.3015873015873,106.24338624338625 107.93650793650795,106.66666666666667 108.57142857142858,106.87830687830689 109.20634920634922,107.0899470899471 109.84126984126985,107.3015873015873 110.47619047619048,107.51322751322752 111.11111111111111,107.93650793650795 111.74603174603176,107.93650793650795 112.3809523809524,108.14814814814815 113.01587301587303,108.35978835978837 113.65079365079366,108.57142857142858 114.28571428571429,108.57142857142858 114.92063492063492,108.78306878306879 115.55555555555557,108.994708994709 116.1904761904762,108.994708994709 116.82539682539684,108.994708994709 117.46031746031747,109.20634920634922 118.0952380952381,109.20634920634922 118.73015873015873,109.41798941798943 119.36507936507937,109.41798941798943 120.00000000000001,109.41798941798943 120.63492063492065,109.62962962962963 121.26984126984128,109.84126984126985 121.90476190476191,109.84126984126985 122.53968253968254,110.05291005291006 123.17460317460318,110.26455026455027 123.80952380952382,110.26455026455027 124.44444444444446,110.6878306878307 125.07936507936509,110.89947089947091 125.71428571428572,111.32275132275133 126.34920634920636,111.32275132275133 126.98412698412699,111.74603174603176 127.61904761904763,112.16931216931218 128.25396825396825,112.3809523809524 128.67724867724868,112.80423280423281 129.31216931216932,113.22751322751324 129.73544973544975,113.65079365079366 130.37037037037038,114.07407407407408 130.7936507936508,114.49735449735451 131.21693121693121,114.92063492063492 131.64021164021165,115.55555555555557 132.27513227513228,115.97883597883599 132.9100529100529,116.4021164021164 133.33333333333334,117.03703703703705 133.75661375661377,117.67195767195768 134.17989417989418,118.0952380952381 134.6031746031746,118.73015873015873 134.81481481481484,119.36507936507937 135.23809523809524,119.7883597883598 135.44973544973547,120.42328042328043 135.87301587301587,121.05820105820106 136.0846560846561,121.6931216931217 136.5079365079365,122.32804232804234 136.71957671957674,122.96296296296298 136.93121693121694,123.59788359788361 137.14285714285717,124.23280423280424 137.35449735449737,124.86772486772487 137.56613756613757,125.5026455026455 137.56613756613757,126.13756613756615 137.7777777777778,126.77248677248679 137.989417989418,127.40740740740742 137.989417989418,128.04232804232805 138.2010582010582,128.67724867724868 138.2010582010582,129.31216931216932 138.2010582010582,129.94708994708995 138.2010582010582,130.58201058201058 138.41269841269843,131.21693121693121 138.41269841269843,131.85185185185185 138.41269841269843,132.4867724867725 138.41269841269843,133.12169312169314 138.41269841269843,133.75661375661377 138.41269841269843,134.3915343915344 138.41269841269843,135.02645502645504 138.41269841269843,135.66137566137567 138.2010582010582,136.2962962962963 138.2010582010582,136.93121693121694 138.2010582010582,137.56613756613757 138.2010582010582,138.2010582010582 137.989417989418,138.83597883597884 137.7777777777778,139.47089947089947 137.7777777777778,140.10582010582013 137.56613756613757,140.74074074074076 137.56613756613757,141.3756613756614 137.35449735449737,142.01058201058203 137.14285714285717,142.64550264550266 136.93121693121694,143.2804232804233 136.71957671957674,143.91534391534393 136.5079365079365,144.55026455026456 136.2962962962963,145.1851851851852 136.0846560846561,145.82010582010582 135.87301587301587,146.45502645502646 135.44973544973547,147.0899470899471 135.23809523809524,147.72486772486775 135.02645502645504,148.35978835978838 134.81481481481484,148.99470899470901 134.6031746031746,149.62962962962965 134.17989417989418,150.26455026455028 134.17989417989418,150.8994708994709 133.96825396825398,151.53439153439155 133.54497354497354,152.16931216931218 133.33333333333334,152.8042328042328 133.12169312169314,153.43915343915344 132.9100529100529,154.07407407407408 131.42857142857144,157.67195767195767" style="fill:none; stroke:#999900; stroke-width:1.0"  /><polyline points="131.42857142857144,157.67195767195767 128.46560846560848,155.978835978836 127.83068783068784,155.76719576719577 127.40740740740742,155.34391534391534 126.77248677248679,154.92063492063494 126.13756613756615,154.7089947089947 125.5026455026455,154.4973544973545 125.07936507936509,154.07407407407408 124.44444444444446,153.86243386243387 124.02116402116403,153.43915343915344 123.3862433862434,153.22751322751324 122.96296296296298,152.8042328042328 122.32804232804234,152.38095238095238 121.6931216931217,151.95767195767198 121.05820105820106,151.53439153439155 120.42328042328043,151.32275132275134 119.7883597883598,150.8994708994709 119.15343915343917,150.47619047619048 118.51851851851853,150.26455026455028 118.0952380952381,149.84126984126985 117.46031746031747,149.41798941798942 116.82539682539684,148.99470899470901 116.1904761904762,148.57142857142858 115.55555555555557,148.14814814814815 115.13227513227514,147.72486772486775 114.49735449735451,147.30158730158732 114.07407407407408,146.8783068783069 113.43915343915344,146.45502645502646 113.01587301587303,146.03174603174605 112.3809523809524,145.60846560846562 111.74603174603176,145.1851851851852 111.32275132275133,144.76190476190476 110.6878306878307,144.33862433862436 110.26455026455027,143.91534391534393 109.84126984126985,143.4920634920635 109.20634920634922,143.0687830687831 108.78306878306879,142.64550264550266 108.14814814814815,142.22222222222223 107.72486772486774,141.7989417989418 107.3015873015873,141.3756613756614 106.66666666666667,140.95238095238096 106.24338624338625,140.52910052910053 105.82010582010582,140.10582010582013 105.18518518518519,139.6825396825397 104.55026455026456,139.25925925925927 103.91534391534393,138.83597883597884 103.28042328042329,138.41269841269843 102.64550264550266,138.2010582010582 102.01058201058201,137.989417989418 101.37566137566138,137.7777777777778 100.74074074074075,137.56613756613757 100.10582010582011,137.56613756613757 99.47089947089948,137.35449735449737 98.83597883597885,137.35449735449737 98.2010582010582,137.56613756613757 97.56613756613757,137.56613756613757 96.93121693121694,137.7777777777778 96.2962962962963,137.989417989418 95.66137566137567,138.41269841269843 95.02645502645504,138.83597883597884 94.60317460317461,139.25925925925927 94.17989417989419,139.6825396825397 93.75661375661376,140.10582010582013 93.33333333333334,140.74074074074076 93.12169312169313,141.3756613756614 92.69841269841271,142.01058201058203 92.4867724867725,142.64550264550266 92.27513227513228,143.2804232804233 92.06349206349208,143.91534391534393 91.85185185185186,144.55026455026456 91.85185185185186,145.1851851851852 91.85185185185186,145.82010582010582 91.85185185185186,146.45502645502646 91.85185185185186,147.0899470899471 92.06349206349208,147.72486772486775 92.06349206349208,148.35978835978838 92.27513227513228,148.99470899470901 92.4867724867725,149.62962962962965 92.91005291005291,150.26455026455028 93.12169312169313,150.8994708994709 93.54497354497356,151.53439153439155 93.75661375661376,152.16931216931218 93.96825396825398,152.8042328042328 94.17989417989419,153.43915343915344 94.17989417989419,154.07407407407408 94.39153439153439,154.7089947089947 94.39153439153439,155.34391534391534 94.39153439153439,155.978835978836 94.39153439153439,156.61375661375664 94.39153439153439,157.24867724867727 94.39153439153439,157.8835978835979 94.17989417989419,158.51851851851853 94.17989417989419,159.15343915343917 93.96825396825398,159.7883597883598 93.75661375661376,160.42328042328043 93.54497354497356,161.05820105820106 93.12169312169313,161.6931216931217 92.69841269841271,162.32804232804233 92.27513227513228,162.75132275132276 91.85185185185186,163.1746031746032 91.42857142857143,163.59788359788362 90.7936507936508,164.02116402116403 90.15873015873017,164.23280423280426 89.52380952380953,164.44444444444446 88.8888888888889,164.65608465608466 88.25396825396827,164.8677248677249 87.61904761904762,165.0793650793651 86.98412698412699,165.2910052910053 86.34920634920636,165.2910052910053 85.71428571428572,165.50264550264552 85.07936507936509,165.50264550264552 84.44444444444446,165.71428571428572 83.80952380952381,165.71428571428572 83.17460317460318,165.71428571428572 82.53968253968254,165.92592592592595 81.90476190476191,165.92592592592595 81.26984126984128,165.92592592592595 80.63492063492065,165.92592592592595 80.0,165.92592592592595 79.36507936507937,165.92592592592595 78.73015873015873,165.92592592592595 78.0952380952381,165.92592592592595 77.46031746031747,165.92592592592595 76.82539682539684,166.13756613756615 76.19047619047619,166.13756613756615 75.55555555555556,166.13756613756615 74.92063492063492,165.92592592592595 74.28571428571429,165.92592592592595 73.65079365079366,165.92592592592595 73.01587301587303,165.92592592592595 72.38095238095238,165.71428571428572 71.74603174603175,165.71428571428572 71.11111111111111,165.71428571428572 70.47619047619048,165.50264550264552 69.84126984126985,165.50264550264552 69.20634920634922,165.50264550264552 68.57142857142858,165.2910052910053 67.93650793650794,165.2910052910053 67.3015873015873,165.0793650793651 66.66666666666667,165.0793650793651 66.03174603174604,164.8677248677249 65.3968253968254,164.65608465608466 64.76190476190477,164.44444444444446 64.12698412698413,164.44444444444446 63.492063492063494,164.23280423280426 62.85714285714286,164.02116402116403 62.22222222222223,163.80952380952382 61.58730158730159,163.59788359788362 60.952380952380956,163.3862433862434 60.31746031746032,163.1746031746032 59.682539682539684,162.96296296296296 59.04761904761905,162.75132275132276 58.41269841269842,162.53968253968256 57.777777777777786,162.32804232804233 57.142857142857146,162.11640211640213 56.50793650793651,161.90476190476193 55.87301587301588,161.90476190476193 55.23809523809524,161.4814814814815 54.60317460317461,161.2698412698413 54.179894179894184,160.84656084656086 53.54497354497355,160.63492063492066 53.12169312169313,160.21164021164023 52.6984126984127,159.7883597883598 52.27513227513228,159.36507936507937 51.851851851851855,158.94179894179896 51.42857142857143,158.51851851851853 51.21693121693122,157.8835978835979 50.7936507936508,157.24867724867727 50.58201058201058,156.61375661375664 50.370370370370374,155.978835978836 50.158730158730165,155.34391534391534 50.158730158730165,154.7089947089947 50.158730158730165,154.07407407407408 49.94708994708995,153.43915343915344 49.94708994708995,152.8042328042328 49.94708994708995,152.16931216931218 50.158730158730165,151.53439153439155 49.94708994708995,150.8994708994709 49.94708994708995,150.26455026455028 50.370370370370374,149.62962962962965 50.58201058201058,148.99470899470901 50.7936507936508,148.35978835978838 51.00529100529101,147.72486772486775 51.42857142857143,147.0899470899471 51.640211640211646,146.45502645502646 52.06349206349207,145.82010582010582 52.27513227513228,145.1851851851852 52.6984126984127,144.55026455026456 52.91005291005291,143.91534391534393 53.333333333333336,143.2804232804233 53.75661375661376,142.64550264550266 53.968253968253975,142.01058201058203 54.39153439153439,141.5873015873016 54.60317460317461,140.95238095238096 55.02645502645503,140.31746031746033 55.23809523809524,139.6825396825397 55.449735449735456,139.04761904761907 55.661375661375665,138.41269841269843 55.661375661375665,137.7777777777778 55.87301587301588,137.14285714285717 55.87301587301588,136.5079365079365 55.87301587301588,135.87301587301587 55.87301587301588,135.23809523809524 55.87301587301588,134.6031746031746 55.87301587301588,133.96825396825398 55.661375661375665,133.33333333333334 55.449735449735456,132.6984126984127 55.449735449735456,132.06349206349208 55.02645502645503,131.42857142857144 54.81481481481482,130.7936507936508 54.39153439153439,130.15873015873018 53.968253968253975,129.52380952380955 53.54497354497355,129.10052910052912 53.12169312169313,128.67724867724868 52.6984126984127,128.25396825396825 52.06349206349207,127.83068783068784 51.640211640211646,127.40740740740742 51.00529100529101,126.98412698412699 50.370370370370374,126.98412698412699 49.73544973544974,126.77248677248679 49.1005291005291,126.56084656084657 48.46560846560847,126.56084656084657 47.830687830687836,126.34920634920636 47.195767195767196,126.34920634920636 46.560846560846564,126.34920634920636 45.92592592592593,126.56084656084657 45.29100529100529,126.56084656084657 44.65608465608466,126.56084656084657 44.021164021164026,126.56084656084657 43.386243386243386,126.56084656084657 42.75132275132275,126.56084656084657 42.11640211640212,126.77248677248679 41.48148148148149,126.77248677248679 40.84656084656085,126.77248677248679 40.211640211640216,126.77248677248679 39.57671957671958,126.77248677248679 38.94179894179894,126.77248677248679 38.30687830687831,126.77248677248679 37.67195767195768,126.77248677248679 37.03703703703704,126.77248677248679 36.402116402116405,126.77248677248679 35.76719576719577,126.77248677248679 35.13227513227513,126.77248677248679 34.4973544973545,126.56084656084657 33.86243386243387,126.56084656084657 33.22751322751323,126.56084656084657 32.592592592592595,126.56084656084657 31.95767195767196,126.56084656084657 31.322751322751326,126.34920634920636 30.68783068783069,126.34920634920636 30.052910052910054,126.34920634920636 29.41798941798942,126.13756613756615 28.783068783068785,126.13756613756615 28.14814814814815,125.92592592592594 27.513227513227516,125.92592592592594 26.87830687830688,125.92592592592594 26.243386243386244,125.71428571428572 25.60846560846561,125.5026455026455 24.973544973544975,125.5026455026455 24.338624338624342,125.2910052910053 23.703703703703706,125.2910052910053 23.06878306878307,125.07936507936509 22.433862433862437,124.86772486772487 21.7989417989418,124.86772486772487 21.164021164021165,124.86772486772487 20.529100529100532,124.65608465608466 19.894179894179896,124.44444444444446 19.25925925925926,124.44444444444446 18.624338624338627,124.23280423280424 17.98941798941799,123.80952380952382 17.354497354497354,123.80952380952382 16.71957671957672,123.59788359788361 13.333333333333334,122.75132275132276" style="fill:none; stroke:#00aa99; stroke-width:1.0"  /><polyline points="13.333333333333334,122.75132275132276 15.449735449735451,119.36507936507937 15.873015873015873,118.73015873015873 16.296296296296298,118.0952380952381 16.71957671957672,117.67195767195768 16.931216931216934,117.03703703703705 17.354497354497354,116.61375661375662 17.566137566137566,115.97883597883599 17.98941798941799,115.34391534391536 18.201058201058203,114.70899470899472 18.624338624338627,114.07407407407408 19.047619047619047,113.43915343915344 19.25925925925926,112.80423280423281 19.682539682539684,112.3809523809524 19.894179894179896,111.74603174603176 20.31746031746032,111.11111111111111 20.529100529100532,110.47619047619048 20.952380952380953,110.05291005291006 21.164021164021165,109.41798941798943 21.375661375661377,108.78306878306879 21.7989417989418,108.14814814814815 22.010582010582013,107.51322751322752 22.222222222222225,106.87830687830689 22.645502645502646,106.24338624338625 22.857142857142858,105.60846560846562 23.06878306878307,104.97354497354497 23.492063492063494,104.33862433862434 23.703703703703706,103.70370370370371 23.915343915343918,103.06878306878308 24.12698412698413,102.43386243386244 24.338624338624342,101.79894179894181 24.761904761904763,101.16402116402116 24.973544973544975,100.52910052910053 25.185185185185187,99.8941798941799 25.3968253968254,99.25925925925927 25.820105820105823,98.62433862433863 25.820105820105823,97.989417989418 26.031746031746035,97.35449735449737 26.243386243386244,96.71957671957672 26.455026455026456,96.08465608465609 26.666666666666668,95.44973544973546 26.87830687830688,94.81481481481482 27.089947089947092,94.17989417989419 27.301587301587304,93.54497354497356 27.513227513227516,92.91005291005291 27.513227513227516,92.27513227513228 27.724867724867728,91.64021164021165 27.93650793650794,91.00529100529101 28.14814814814815,90.37037037037038 28.35978835978836,89.73544973544975 28.571428571428573,89.1005291005291 28.571428571428573,88.46560846560847 28.783068783068785,87.83068783068784 28.994708994708997,87.1957671957672 29.20634920634921,86.56084656084657 29.20634920634921,85.92592592592594 29.41798941798942,85.29100529100529 29.41798941798942,84.65608465608466 29.41798941798942,84.02116402116403 29.41798941798942,83.3862433862434 29.41798941798942,82.75132275132276 29.20634920634921,82.11640211640213 28.994708994708997,81.48148148148148 28.571428571428573,80.84656084656085 28.14814814814815,80.42328042328043 27.724867724867728,79.7883597883598 27.301587301587304,79.36507936507937 26.87830687830688,78.94179894179895 26.455026455026456,78.51851851851852 25.820105820105823,78.0952380952381 25.185185185185187,77.88359788359789 24.55026455026455,77.67195767195767 23.915343915343918,77.46031746031747 23.280423280423282,77.46031746031747 22.645502645502646,77.46031746031747 22.010582010582013,77.46031746031747 21.375661375661377,77.46031746031747 20.740740740740744,77.88359788359789 20.105820105820108,77.88359788359789 19.47089947089947,78.0952380952381 18.83597883597884,78.30687830687832 18.201058201058203,78.51851851851852 17.566137566137566,78.73015873015873 16.931216931216934,78.94179894179895 16.296296296296298,78.94179894179895 15.661375661375663,79.15343915343917 15.026455026455027,79.36507936507937 14.391534391534393,79.36507936507937 13.756613756613758,79.36507936507937 13.121693121693122,79.57671957671958 12.486772486772487,79.57671957671958 11.851851851851853,79.57671957671958 11.216931216931219,79.57671957671958 10.582010582010582,79.57671957671958 9.947089947089948,79.36507936507937 9.312169312169313,79.36507936507937 8.677248677248677,79.15343915343917 8.042328042328043,79.15343915343917 7.407407407407408,79.15343915343917 6.772486772486773,78.94179894179895 6.137566137566138,78.73015873015873 5.502645502645503,78.51851851851852 4.867724867724868,78.30687830687832 4.444444444444445,77.88359788359789 3.8095238095238098,77.46031746031747 3.3862433862433865,77.03703703703704 2.9629629629629632,76.4021164021164 2.53968253968254,75.76719576719577 2.3280423280423284,75.13227513227514 1.9047619047619049,74.49735449735451 1.6931216931216932,73.86243386243387 1.4814814814814816,73.22751322751323 1.26984126984127,72.5925925925926 1.0582010582010584,71.95767195767196 1.0582010582010584,71.32275132275133 0.8465608465608466,70.6878306878307 0.8465608465608466,70.05291005291006 0.634920634920635,69.41798941798942 0.4232804232804233,68.78306878306879 0.4232804232804233,68.14814814814815 0.4232804232804233,67.51322751322752 0.4232804232804233,66.87830687830689 0.21164021164021166,66.24338624338625 0.21164021164021166,65.60846560846561 0.21164021164021166,64.97354497354497 0.21164021164021166,64.33862433862434 0.21164021164021166,63.70370370370371 0.21164021164021166,63.06878306878308 0.21164021164021166,62.43386243386244 0.21164021164021166,61.798941798941804 0.21164021164021166,61.16402116402117 0.21164021164021166,60.52910052910053 0.4232804232804233,59.8941798941799 0.4232804232804233,59.25925925925927 0.634920634920635,58.62433862433863 0.634920634920635,57.989417989417994 0.8465608465608466,57.35449735449736 1.0582010582010584,56.71957671957672 1.26984126984127,56.08465608465609 1.26984126984127,55.449735449735456 1.4814814814814816,54.81481481481482 1.9047619047619049,54.179894179894184 2.1164021164021167,53.54497354497355 2.53968253968254,52.91005291005291 2.9629629629629632,52.27513227513228 3.3862433862433865,51.640211640211646 3.8095238095238098,51.21693121693122 4.2328042328042335,50.7936507936508 4.656084656084657,50.370370370370374 5.291005291005291,50.158730158730165 5.9259259259259265,49.73544973544974 6.560846560846561,49.523809523809526 7.195767195767196,49.31216931216932 7.830687830687832,49.31216931216932 8.465608465608467,49.31216931216932 9.100529100529101,49.31216931216932 9.735449735449736,49.523809523809526 10.370370370370372,49.523809523809526 11.005291005291006,49.523809523809526 11.640211640211641,49.523809523809526 12.275132275132275,49.73544973544974 12.910052910052912,49.94708994708995 13.544973544973546,50.158730158730165 14.17989417989418,50.370370370370374 14.814814814814817,50.58201058201058 15.449735449735451,50.58201058201058 15.873015873015873,51.00529100529101 16.50793650793651,51.21693121693122 17.142857142857146,51.42857142857143 17.77777777777778,51.851851851851855 18.412698412698415,52.06349206349207 19.047619047619047,52.27513227513228 19.682539682539684,52.48677248677249 20.31746031746032,52.91005291005291 20.952380952380953,53.12169312169313 21.58730158730159,52.91005291005291 22.010582010582013,53.333333333333336 22.645502645502646,53.333333333333336 23.280423280423282,53.75661375661376 23.915343915343918,53.75661375661376 24.55026455026455,53.75661375661376 25.185185185185187,53.75661375661376 25.820105820105823,53.968253968253975 26.455026455026456,53.75661375661376 27.089947089947092,53.54497354497355 27.724867724867728,53.333333333333336 28.35978835978836,53.12169312169313 28.783068783068785,52.6984126984127 29.41798941798942,52.27513227513228 29.841269841269842,51.851851851851855 30.264550264550266,51.21693121693122 30.68783068783069,50.58201058201058 30.899470899470902,49.94708994708995 31.322751322751326,49.31216931216932 31.322751322751326,48.677248677248684 31.53439153439154,48.042328042328045 31.53439153439154,47.40740740740741 31.53439153439154,46.77248677248678 31.322751322751326,46.13756613756614 31.322751322751326,45.50264550264551 31.111111111111114,44.867724867724874 30.899470899470902,44.232804232804234 30.68783068783069,43.5978835978836 30.476190476190478,42.96296296296297 30.264550264550266,42.32804232804233 30.052910052910054,41.6931216931217 29.841269841269842,41.058201058201064 29.629629629629633,40.423280423280424 29.629629629629633,39.78835978835979 29.41798941798942,39.15343915343916 29.20634920634921,38.51851851851852 28.994708994708997,37.883597883597886 28.783068783068785,37.248677248677254 28.571428571428573,36.613756613756614 28.35978835978836,35.97883597883598 28.35978835978836,35.34391534391535 28.14814814814815,34.70899470899471 27.93650793650794,34.074074074074076 27.724867724867728,33.43915343915344 27.513227513227516,32.804232804232804 27.301587301587304,32.16931216931217 27.089947089947092,31.53439153439154 26.87830687830688,30.899470899470902 26.87830687830688,30.264550264550266 26.666666666666668,29.629629629629633 26.455026455026456,28.994708994708997 26.455026455026456,28.35978835978836 26.243386243386244,27.724867724867728 26.031746031746035,27.089947089947092 26.031746031746035,26.455026455026456 25.820105820105823,25.820105820105823 25.60846560846561,25.185185185185187 25.60846560846561,24.55026455026455 25.3968253968254,23.915343915343918 25.3968253968254,23.280423280423282 25.185185185185187,22.645502645502646 25.185185185185187,22.010582010582013 24.973544973544975,21.375661375661377 24.973544973544975,20.740740740740744 24.761904761904763,20.105820105820108 24.761904761904763,19.47089947089947 24.55026455026455,18.83597883597884 24.55026455026455,18.201058201058203 24.55026455026455,17.566137566137566 24.338624338624342,16.931216931216934 24.338624338624342,16.296296296296298 24.12698412698413,15.661375661375663 24.12698412698413,15.026455026455027 24.12698412698413,14.391534391534393 23.915343915343918,13.756613756613758 23.915343915343918,13.121693121693122 23.915343915343918,12.486772486772487 23.915343915343918,11.851851851851853 23.703703703703706,11.216931216931219 23.492063492063494,10.582010582010582 23.492063492063494,9.947089947089948 23.492063492063494,9.312169312169313 23.492063492063494,8.677248677248677 23.492063492063494,8.042328042328043 23.492063492063494,7.407407407407408 23.492063492063494,6.772486772486773 23.492063492063494,6.137566137566138 23.492063492063494,5.502645502645503 23.492063492063494,4.867724867724868 23.280423280423282,4.2328042328042335 23.492063492063494,3.597883597883598 23.280423280423282,0.21164021164021166" style="fill:none; stroke:#3300bb; stroke-width:1.0"  /><circle cx="23.280423280423282" cy="0.21164021164021166" r="2.0" style="fill:none; stroke:#000000aa; stroke-width:0.25" /><circle cx="150.47619047619048" cy="31.322751322751326" r="2.0" style="fill:none; stroke:#000000aa; stroke-width:0.25" /><circle cx="131.42857142857144" cy="157.67195767195767" r="2.0" style="fill:none; stroke:#000000aa; stroke-width:0.25" /><circle cx="13.333333333333334" cy="122.75132275132276" r="2.0" style="fill:none; stroke:#000000aa; stroke-width:0.25" /><circle cx="24.338624338624342" cy="0.21164021164021166" r="2.0" style="fill:none; stroke:#ff3366aa; stroke-width:0.25" /><circle cx="150.47619047619048" cy="31.53439153439154" r="2.0" style="fill:none; stroke:#ff3366aa; stroke-width:0.25" /><circle cx="131.64021164021165" cy="157.24867724867727" r="2.0" style="fill:none; stroke:#ff3366aa; stroke-width:0.25" /><circle cx="13.544973544973546" cy="122.53968253968254" r="2.0" style="fill:none; stroke:#ff3366aa; stroke-width:0.25" /><polyline points="35.76719576719577,0.634920634920635 35.13227513227513,0.634920634920635 34.4973544973545,0.634920634920635 33.86243386243387,0.634920634920635 33.22751322751323,0.634920634920635 32.592592592592595,0.4232804232804233 31.95767195767196,0.4232804232804233 31.322751322751326,0.4232804232804233 30.68783068783069,0.21164021164021166 30.052910052910054,0.4232804232804233 29.41798941798942,0.4232804232804233 28.783068783068785,0.4232804232804233 28.14814814814815,0.21164021164021166 27.513227513227516,0.4232804232804233" style="fill:none; stroke:#001100; stroke-width:1.0" /><polyline points="23.915343915343918,11.851851851851853 23.703703703703706,11.216931216931219 23.492063492063494,10.582010582010582 23.492063492063494,9.947089947089948 23.492063492063494,9.312169312169313 23.492063492063494,8.677248677248677 23.492063492063494,8.042328042328043 23.492063492063494,7.407407407407408 23.492063492063494,6.772486772486773 23.492063492063494,6.137566137566138 23.492063492063494,5.502645502645503 23.492063492063494,4.867724867724868 23.280423280423282,4.2328042328042335 23.492063492063494,3.597883597883598" style="fill:none; stroke:#000011; stroke-width:1.0" /><polyline points="147.51322751322752,42.96296296296297 147.72486772486775,42.32804232804233 147.93650793650795,41.6931216931217 147.93650793650795,41.058201058201064 148.14814814814815,40.423280423280424 148.35978835978838,39.78835978835979 148.35978835978838,39.15343915343916 148.57142857142858,38.51851851851852 148.78306878306879,37.883597883597886 148.99470899470901,37.248677248677254 149.20634920634922,36.613756613756614 149.41798941798942,35.97883597883598 149.41798941798942,35.34391534391535 149.62962962962965,34.70899470899471" style="fill:none; stroke:#001100; stroke-width:1.0" /><polyline points="139.25925925925927,27.301587301587304 139.8941798941799,27.724867724867728 140.52910052910053,28.14814814814815 141.16402116402116,28.35978835978836 141.7989417989418,28.571428571428573 142.43386243386246,28.571428571428573 143.0687830687831,28.994708994708997 143.70370370370372,29.20634920634921 144.33862433862436,29.41798941798942 144.973544973545,29.629629629629633 145.60846560846562,29.841269841269842 146.24338624338625,29.841269841269842 146.8783068783069,30.052910052910054 147.51322751322752,30.264550264550266" style="fill:none; stroke:#000011; stroke-width:1.0" /><polyline points="121.05820105820106,151.53439153439155 121.6931216931217,151.95767195767198 122.32804232804234,152.38095238095238 122.96296296296298,152.8042328042328 123.3862433862434,153.22751322751324 124.02116402116403,153.43915343915344 124.44444444444446,153.86243386243387 125.07936507936509,154.07407407407408 125.5026455026455,154.4973544973545 126.13756613756615,154.7089947089947 126.77248677248679,154.92063492063494 127.40740740740742,155.34391534391534 127.83068783068784,155.76719576719577 128.46560846560848,155.978835978836" style="fill:none; stroke:#001100; stroke-width:1.0" /><polyline points="135.87301587301587,146.45502645502646 135.44973544973547,147.0899470899471 135.23809523809524,147.72486772486775 135.02645502645504,148.35978835978838 134.81481481481484,148.99470899470901 134.6031746031746,149.62962962962965 134.17989417989418,150.26455026455028 134.17989417989418,150.8994708994709 133.96825396825398,151.53439153439155 133.54497354497354,152.16931216931218 133.33333333333334,152.8042328042328 133.12169312169314,153.43915343915344 132.9100529100529,154.07407407407408" style="fill:none; stroke:#000011; stroke-width:1.0" /><polyline points="19.682539682539684,112.3809523809524 19.25925925925926,112.80423280423281 19.047619047619047,113.43915343915344 18.624338624338627,114.07407407407408 18.201058201058203,114.70899470899472 17.98941798941799,115.34391534391536 17.566137566137566,115.97883597883599 17.354497354497354,116.61375661375662 16.931216931216934,117.03703703703705 16.71957671957672,117.67195767195768 16.296296296296298,118.0952380952381 15.873015873015873,118.73015873015873 15.449735449735451,119.36507936507937" style="fill:none; stroke:#001100; stroke-width:1.0" /><polyline points="24.973544973544975,125.5026455026455 24.338624338624342,125.2910052910053 23.703703703703706,125.2910052910053 23.06878306878307,125.07936507936509 22.433862433862437,124.86772486772487 21.7989417989418,124.86772486772487 21.164021164021165,124.86772486772487 20.529100529100532,124.65608465608466 19.894179894179896,124.44444444444446 19.25925925925926,124.44444444444446 18.624338624338627,124.23280423280424 17.98941798941799,123.80952380952382 17.354497354497354,123.80952380952382 16.71957671957672,123.59788359788361" style="fill:none; stroke:#000011; stroke-width:1.0" /><polyline points="27.513227513227516,0.4232804232804233 6.34920634920635,-0.21164021164021166" style="fill:none; stroke:#ffaa00; stroke-width:0.4" /><polyline points="23.492063492063494,3.597883597883598 22.433862433862437,-17.566137566137566" style="fill:none; stroke:#aaff00; stroke-width:0.4" /><polyline points="149.62962962962965,34.70899470899471 154.92063492063494,14.17989417989418" style="fill:none; stroke:#ffaa00; stroke-width:0.4" /><polyline points="147.51322751322752,30.264550264550266 167.40740740740742,37.46031746031746" style="fill:none; stroke:#aaff00; stroke-width:0.4" /><polyline points="128.46560846560848,155.978835978836 146.66666666666669,166.7724867724868" style="fill:none; stroke:#ffaa00; stroke-width:0.4" /><polyline points="132.9100529100529,154.07407407407408 125.2910052910053,173.75661375661377" style="fill:none; stroke:#aaff00; stroke-width:0.4" /><polyline points="15.449735449735451,119.36507936507937 4.444444444444445,137.56613756613757" style="fill:none; stroke:#ffaa00; stroke-width:0.4" /><polyline points="16.71957671957672,123.59788359788361 -3.8095238095238098,118.94179894179895" style="fill:none; stroke:#aaff00; stroke-width:0.4" /><circle cx="77.88359788359789" cy="82.75132275132276" r="1.0" style="fill:#444444; stroke-width:0" /><circle cx="63.91534391534392" cy="94.17989417989419" r="10.582010582010582" style="fill:#ff770022; stroke-width:0" /><circle cx="63.91534391534392" cy="94.17989417989419" r="1.0" style="fill:#ff7700; stroke-width:0" /></svg>