<?xml version="1.0" encoding="UTF-8" standalone="no"?><svg width="567.6190476190477" height="521.2698412698413" viewBox="-10 -10 209.20634920634922 193.75661375661377" xmlns="http://www.w3.org/2000/svg" xmlns:xlink="http://www.w3.org/1999/xlink"><polyline points="-0.4232804232804233,65.18518518518519 2.9629629629629632,64.33862433862434 3.597883597883598,64.12698412698413 4.2328042328042335,63.91534391534392 4.867724867724868,63.70370370370371 5.502645502645503,63.70370370370371 6.137566137566138,63.492063492063494 6.772486772486773,63.280423280423285 7.407407407407408,63.280423280423285 8.042328042328043,63.06878306878308 8.677248677248677,63.06878306878308 9.312169312169313,62.85714285714286 9.947089947089948,62.64550264550265 10.582010582010582,62.64550264550265 11.216931216931219,62.43386243386244 11.851851851851853,62.43386243386244 12.486772486772487,62.43386243386244 13.121693121693122,62.22222222222223 13.756613756613758,62.22222222222223 14.391534391534393,62.01058201058201 15.026455026455027,62.01058201058201 15.661375661375663,61.798941798941804 16.296296296296298,61.798941798941804 16.931216931216934,61.798941798941804 17.566137566137566,61.58730158730159 18.201058201058203,61.58730158730159 18.83597883597884,61.58730158730159 19.47089947089947,61.58730158730159 20.105820105820108,61.37566137566138 20.740740740740744,61.37566137566138 21.375661375661377,61.16402116402117 22.010582010582013,61.16402116402117 22.645502645502646,61.16402116402117 23.280423280423282,61.37566137566138 23.915343915343918,61.16402116402117 24.55026455026455,61.16402116402117 25.185185185185187,61.16402116402117 25.820105820105823,60.952380952380956 26.455026455026456,60.74074074074075 27.089947089947092,60.952380952380956 27.724867724867728,60.952380952380956 28.35978835978836,60.952380952380956 28.994708994708997,60.952380952380956 29.629629629629633,60.952380952380956 30.264550264550266,60.952380952380956 30.899470899470902,60.952380952380956 31.53439153439154,60.952380952380956 32.16931216931217,60.74074074074075 32.804232804232804,60.74074074074075 33.43915343915344,60.952380952380956 34.074074074074076,60.74074074074075 34.70899470899471,60.74074074074075 35.34391534391535,60.52910052910053 35.97883597883598,60.74074074074075 36.613756613756614,60.52910052910053 37.248677248677254,60.52910052910053 37.883597883597886,60.31746031746032 38.51851851851852,60.31746031746032 39.15343915343916,60.10582010582011 39.78835978835979,60.10582010582011 40.423280423280424,59.8941798941799 41.058201058201064,59.682539682539684 41.6931216931217,59.470899470899475 42.32804232804233,59.470899470899475 42.96296296296297,59.25925925925927 43.5978835978836,59.04761904761905 44.232804232804234,58.83597883597884 44.867724867724874,58.41269841269842 45.50264550264551,58.41269841269842 46.13756613756614,57.989417989417994 46.77248677248678,57.777777777777786 47.40740740740741,57.56613756613757 48.042328042328045,57.35449735449736 48.677248677248684,56.93121693121694 49.31216931216932,56.71957671957672 49.94708994708995,56.2962962962963 50.58201058201058,56.08465608465609 51.21693121693122,55.661375661375665 51.851851851851855,55.449735449735456 52.48677248677249,55.02645502645503 53.12169312169313,54.81481481481482 53.54497354497355,54.39153439153439 54.179894179894184,53.968253968253975 54.81481481481482,53.54497354497355 55.23809523809524,53.12169312169313 55.661375661375665,52.6984126984127 56.2962962962963,52.27513227513228 56.71957671957672,51.640211640211646 57.142857142857146,51.21693121693122 57.56613756613757,50.7936507936508 57.989417989417994,50.158730158730165 58.41269841269842,49.523809523809526 58.62433862433863,48.88888888888889 58.83597883597884,48.25396825396826 59.04761904761905,47.61904761904762 59.25925925925927,46.98412698412699 59.25925925925927,46.349206349206355 59.25925925925927,45.714285714285715 59.25925925925927,45.07936507936508 59.04761904761905,44.44444444444445 59.04761904761905,43.80952380952381 58.62433862433863,43.17460317460318 58.41269841269842,42.539682539682545 57.989417989417994,41.904761904761905 57.56613756613757,41.26984126984127 57.142857142857146,40.84656084656085 56.71957671957672,40.423280423280424 56.2962962962963,39.78835978835979 55.661375661375665,39.36507936507937 55.23809523809524,38.94179894179894 54.60317460317461,38.51851851851852 54.179894179894184,38.095238095238095 53.54497354497355,37.67195767195768 53.12169312169313,37.248677248677254 52.48677248677249,36.82539682539683 51.851851851851855,36.402116402116405 51.21693121693122,35.97883597883598 50.58201058201058,35.55555555555556 49.94708994708995,35.13227513227513 49.31216931216932,34.70899470899471 48.88888888888889,34.28571428571429 48.46560846560847,33.86243386243387 47.830687830687836,33.43915343915344 47.195767195767196,33.01587301587302 46.560846560846564,32.592592592592595 45.92592592592593,32.16931216931217 45.29100529100529,31.746031746031747 44.867724867724874,31.322751322751326 44.232804232804234,30.899470899470902 43.5978835978836,30.476190476190478 43.17460317460318,30.052910052910054 42.539682539682545,29.629629629629633 42.11640211640212,29.20634920634921 41.6931216931217,28.783068783068785 41.058201058201064,28.35978835978836 40.63492063492064,27.724867724867728 40.211640211640216,27.301587301587304 39.78835978835979,26.87830687830688 39.36507936507937,26.243386243386244 38.730158730158735,25.820105820105823 38.30687830687831,25.185185185185187 37.883597883597886,24.55026455026455 37.46031746031746,24.12698412698413 37.248677248677254,23.492063492063494 37.03703703703704,22.857142857142858 36.82539682539683,22.222222222222225 36.613756613756614,21.58730158730159 36.402116402116405,20.952380952380953 36.402116402116405,20.31746031746032 36.402116402116405,19.682539682539684 36.402116402116405,19.047619047619047 36.402116402116405,18.412698412698415 36.402116402116405,17.77777777777778 36.613756613756614,17.142857142857146 36.82539682539683,16.50793650793651 36.82539682539683,15.873015873015873 37.248677248677254,15.238095238095239 37.46031746031746,14.603174603174605 37.67195767195768,13.96825396825397 38.095238095238095,13.333333333333334 38.51851851851852,12.6984126984127 38.730158730158735,12.063492063492065 39.15343915343916,11.640211640211641 39.57671957671958,11.005291005291006 40.0,10.370370370370372 40.423280423280424,9.947089947089948 40.84656084656085,9.312169312169313 41.26984126984127,8.88888888888889 41.6931216931217,8.253968253968255 42.11640211640212,7.830687830687832 42.539682539682545,7.407407407407408 42.96296296296297,6.984126984126985 43.386243386243386,6.560846560846561 43.80952380952381,6.137566137566138 44.44444444444445,5.714285714285714 44.867724867724874,5.291005291005291 45.50264550264551,4.867724867724868 46.13756613756614,4.444444444444445 46.560846560846564,4.021164021164021 47.195767195767196,3.8095238095238098 47.61904761904762,3.3862433862433865 48.25396825396826,3.174603174603175 48.88888888888889,2.7513227513227516 49.523809523809526,2.53968253968254 50.158730158730165,2.3280423280423284 50.58201058201058,1.9047619047619049 51.21693121693122,1.9047619047619049 51.851851851851855,1.6931216931216932 52.48677248677249,1.4814814814814816 53.12169312169313,1.26984126984127 53.75661375661376,1.0582010582010584 54.39153439153439,1.0582010582010584 55.02645502645503,0.8465608465608466 55.661375661375665,0.8465608465608466 56.2962962962963,0.634920634920635 56.93121693121694,0.634920634920635 57.56613756613757,0.634920634920635 58.2010582010582,0.634920634920635 58.83597883597884,0.634920634920635 59.470899470899475,0.634920634920635 60.10582010582011,0.4232804232804233 60.74074074074075,0.4232804232804233 61.37566137566138,0.4232804232804233 62.01058201058201,0.4232804232804233 62.64550264550265,0.4232804232804233 63.280423280423285,0.4232804232804233 63.91534391534392,0.4232804232804233 64.55026455026456,0.634920634920635 65.18518518518519,0.634920634920635 65.82010582010582,0.8465608465608466 66.45502645502646,0.8465608465608466 67.08994708994709,1.26984126984127 67.72486772486774,1.26984126984127 68.35978835978837,1.4814814814814816 68.994708994709,1.9047619047619049 69.62962962962963,2.1164021164021167 70.26455026455027,2.3280423280423284 70.8994708994709,2.3280423280423284 71.32275132275133,2.7513227513227516 71.95767195767196,3.174603174603175 72.5925925925926,3.3862433862433865 73.22751322751323,3.8095238095238098 73.86243386243387,4.2328042328042335 74.28571428571429,4.656084656084657 74.70899470899471,5.07936507936508 75.13227513227514,5.502645502645503 75.55555555555556,5.9259259259259265 75.97883597883599,6.560846560846561 76.4021164021164,7.195767195767196 76.82539682539684,7.830687830687832 77.03703703703704,8.465608465608467 77.24867724867725,9.100529100529101 77.24867724867725,9.735449735449736 77.46031746031747,10.370370370370372 77.46031746031747,11.005291005291006 77.67195767195767,11.640211640211641 77.67195767195767,12.275132275132275 77.67195767195767,12.910052910052912 77.67195767195767,13.544973544973546 77.67195767195767,14.17989417989418 77.67195767195767,14.814814814814817 77.67195767195767,15.449735449735451 77.46031746031747,16.084656084656086 77.46031746031747,16.71957671957672 77.24867724867725,17.354497354497354 77.03703703703704,17.98941798941799 76.61375661375662,18.624338624338627 76.61375661375662,19.25925925925926 76.4021164021164,19.894179894179896 75.97883597883599,20.31746031746032 75.76719576719577,20.952380952380953 75.55555555555556,21.58730158730159 75.34391534391536,22.222222222222225 75.13227513227514,22.857142857142858 74.92063492063492,23.492063492063494 74.70899470899471,24.12698412698413 74.49735449735451,24.761904761904763 74.28571428571429,25.3968253968254 74.07407407407408,26.031746031746035 73.86243386243387,26.666666666666668 73.65079365079366,27.301587301587304 73.65079365079366,27.93650793650794 73.43915343915344,28.571428571428573 73.22751322751323,29.20634920634921 73.22751322751323,29.841269841269842 73.01587301587303,30.476190476190478 73.01587301587303,31.111111111111114 73.01587301587303,31.746031746031747 73.01587301587303,32.38095238095239 73.01587301587303,33.01587301587302 73.01587301587303,33.65079365079365 73.22751322751323,34.28571428571429 73.22751322751323,34.920634920634924 73.65079365079366,35.55555555555556 73.86243386243387,36.19047619047619 74.07407407407408,36.82539682539683 74.49735449735451,37.248677248677254 74.92063492063492,37.67195767195768 75.34391534391536,38.095238095238095 75.76719576719577,38.51851851851852 76.19047619047619,38.94179894179894 76.82539682539684,39.15343915343916 77.46031746031747,39.57671957671958 78.0952380952381,39.78835978835979 78.73015873015873,39.78835978835979 79.36507936507937,40.0 80.0,40.0 80.63492063492065,40.0 81.26984126984128,39.78835978835979 81.90476190476191,39.78835978835979 82.53968253968254,39.57671957671958 83.17460317460318,39.15343915343916 83.80952380952381,38.94179894179894 84.44444444444446,38.51851851851852 85.07936507936509,38.30687830687831 85.5026455026455,37.883597883597886 86.13756613756614,37.67195767195768 86.77248677248677,37.248677248677254 87.40740740740742,36.82539682539683 88.04232804232805,36.613756613756614 88.67724867724868,36.402116402116405 89.31216931216932,35.97883597883598 89.94708994708995,35.76719576719577 90.58201058201058,35.34391534391535 91.21693121693123,35.13227513227513 91.85185185185186,34.70899470899471 92.4867724867725,34.28571428571429 93.12169312169313,34.074074074074076 93.75661375661376,33.65079365079365 94.39153439153439,33.43915343915344 95.02645502645504,33.01587301587302 95.44973544973546,32.592592592592595 96.08465608465609,32.16931216931217 96.71957671957672,31.95767195767196 97.35449735449737,31.53439153439154 97.989417989418,31.111111111111114 98.62433862433863,30.899470899470902 99.25925925925927,30.476190476190478 99.8941798941799,30.264550264550266 100.31746031746033,29.841269841269842 100.95238095238096,29.629629629629633 101.5873015873016,29.20634920634921 102.22222222222223,28.783068783068785 102.85714285714286,28.571428571428573 103.4920634920635,28.14814814814815 104.12698412698414,27.93650793650794 104.76190476190477,27.513227513227516 105.3968253968254,27.089947089947092 106.03174603174604,26.87830687830688 106.66666666666667,26.455026455026456 107.3015873015873,26.243386243386244 107.72486772486774,25.820105820105823 108.35978835978837,25.60846560846561 108.994708994709,25.185185185185187 109.62962962962963,24.761904761904763 110.26455026455027,24.55026455026455 110.89947089947091,24.338624338624342 111.32275132275133,23.915343915343918 111.95767195767196,23.703703703703706 112.5925925925926,23.492063492063494 113.22751322751324,23.06878306878307 113.86243386243387,22.645502645502646 114.49735449735451,22.433862433862437 115.13227513227514,22.010582010582013 115.76719576719577,21.7989417989418 116.1904761904762,21.375661375661377 116.82539682539684,21.164021164021165 117.46031746031747,20.952380952380953 117.88359788359789,20.529100529100532 118.51851851851853,20.31746031746032 118.94179894179895,19.894179894179896 119.57671957671958,19.682539682539684 120.21164021164022,19.25925925925926 120.84656084656086,18.83597883597884 121.4814814814815,18.624338624338627 121.90476190476191,18.201058201058203 122.53968253968254,17.98941798941799 123.17460317460318,17.566137566137566 123.80952380952382,17.142857142857146 124.44444444444446,16.931216931216934 125.07936507936509,16.71957671957672 125.71428571428572,16.296296296296298 129.10052910052912,14.391534391534393" style="fill:none; stroke:#cc0000; stroke-width:1.0"  /><polyline points="129.10052910052912,14.391534391534393 131.21693121693121,17.98941798941799 131.64021164021165,18.412698412698415 132.06349206349208,19.047619047619047 132.4867724867725,19.682539682539684 132.9100529100529,20.31746031746032 133.33333333333334,20.952380952380953 133.54497354497354,21.58730158730159 133.96825396825398,22.010582010582013 134.17989417989418,22.645502645502646 134.6031746031746,23.06878306878307 134.81481481481484,23.703703703703706 135.23809523809524,24.338624338624342 135.44973544973547,24.973544973544975 135.87301587301587,25.60846560846561 136.2962962962963,26.031746031746035 136.5079365079365,26.666666666666668 136.71957671957674,27.301587301587304 137.14285714285717,27.93650793650794 137.35449735449737,28.571428571428573 137.56613756613757,29.20634920634921 137.7777777777778,29.841269841269842 137.989417989418,30.476190476190478 138.2010582010582,31.111111111111114 138.41269841269843,31.746031746031747 138.41269841269843,32.38095238095239 138.62433862433863,33.01587301587302 138.83597883597884,33.65079365079365 139.04761904761907,34.28571428571429 139.04761904761907,34.920634920634924 139.25925925925927,35.55555555555556 139.25925925925927,36.19047619047619 139.47089947089947,36.82539682539683 139.6825396825397,37.46031746031746 139.6825396825397,38.095238095238095 139.8941798941799,38.730158730158735 140.10582010582013,39.36507936507937 140.52910052910053,40.0 140.74074074074076,40.63492063492064 140.95238095238096,41.26984126984127 141.3756613756614,41.904761904761905 141.7989417989418,42.539682539682545 142.22222222222223,43.17460317460318 142.64550264550266,43.5978835978836 143.0687830687831,44.021164021164026 143.4920634920635,44.44444444444445 143.91534391534393,44.867724867724874 144.55026455026456,45.29100529100529 144.973544973545,45.714285714285715 145.60846560846562,46.13756613756614 146.24338624338625,46.560846560846564 146.8783068783069,46.77248677248678 147.51322751322752,46.77248677248678 148.14814814814815,46.98412698412699 148.78306878306879,46.98412698412699 149.41798941798942,47.195767195767196 150.05291005291005,46.98412698412699 150.6878306878307,46.77248677248678 151.32275132275134,46.560846560846564 151.95767195767198,46.13756613756614 152.5925925925926,45.92592592592593 153.01587301587304,45.50264550264551 153.65079365079367,45.07936507936508 154.07407407407408,44.65608465608466 154.4973544973545,44.232804232804234 154.92063492063494,43.80952380952381 155.34391534391534,43.17460317460318 155.76719576719577,42.75132275132275 156.1904761904762,42.32804232804233 156.61375661375664,41.6931216931217 157.03703703703704,41.058201058201064 157.46031746031747,40.423280423280424 157.67195767195767,39.78835978835979 158.0952380952381,39.15343915343916 158.30687830687833,38.51851851851852 158.51851851851853,37.883597883597886 158.73015873015873,37.248677248677254 158.94179894179896,36.613756613756614 159.15343915343917,35.97883597883598 159.36507936507937,35.34391534391535 159.36507936507937,34.70899470899471 159.5767195767196,34.074074074074076 159.7883597883598,33.43915343915344 160.0,32.804232804232804 160.21164021164023,32.16931216931217 160.63492063492066,31.53439153439154 160.84656084656086,30.899470899470902 161.4814814814815,30.476190476190478 161.90476190476193,30.052910052910054 162.32804232804233,29.629629629629633 162.75132275132276,29.20634920634921 163.1746031746032,28.783068783068785 163.80952380952382,28.35978835978836 164.44444444444446,28.14814814814815 164.8677248677249,27.724867724867728 165.2910052910053,27.301587301587304 165.92592592592595,27.089947089947092 166.56084656084658,26.87830687830688 167.19576719576722,26.666666666666668 167.83068783068785,26.455026455026456 168.46560846560848,26.455026455026456 169.10052910052912,26.455026455026456 169.73544973544975,26.455026455026456 170.37037037037038,26.455026455026456 171.005291005291,26.455026455026456 171.64021164021165,26.666666666666668 172.27513227513228,26.666666666666668 172.9100529100529,26.87830687830688 173.54497354497354,27.089947089947092 174.1798941798942,27.301587301587304 174.81481481481484,27.724867724867728 175.44973544973547,27.93650793650794 176.0846560846561,28.35978835978836 176.71957671957674,28.783068783068785 177.35449735449737,29.20634920634921 177.989417989418,29.629629629629633 178.62433862433863,30.052910052910054 179.25925925925927,30.476190476190478 179.6825396825397,30.899470899470902 180.10582010582013,31.322751322751326 180.52910052910053,31.746031746031747 180.95238095238096,32.16931216931217 181.3756613756614,32.592592592592595 181.79894179894183,33.01587301587302 182.22222222222223,33.65079365079365 182.64550264550266,34.074074074074076 183.0687830687831,34.70899470899471 183.4920634920635,35.13227513227513 183.91534391534393,35.76719576719577 184.12698412698415,36.402116402116405 184.55026455026456,36.82539682539683 184.973544973545,37.46031746031746 185.1851851851852,38.095238095238095 185.60846560846562,38.51851851851852 185.82010582010582,39.15343915343916 186.03174603174605,39.78835978835979 186.24338624338625,40.423280423280424 186.66666666666669,41.058201058201064 186.8783068783069,41.6931216931217 187.08994708994712,42.32804232804233 187.30158730158732,42.96296296296297 187.51322751322752,43.5978835978836 187.72486772486775,44.232804232804234 187.72486772486775,44.867724867724874 187.93650793650795,45.50264550264551 188.14814814814815,46.13756613756614 188.35978835978838,46.77248677248678 188.35978835978838,47.40740740740741 188.57142857142858,48.042328042328045 188.78306878306879,48.677248677248684 188.78306878306879,49.31216931216932 188.78306878306879,49.94708994708995 188.78306878306879,50.58201058201058 188.78306878306879,51.21693121693122 188.78306878306879,51.851851851851855 188.57142857142858,52.48677248677249 188.57142857142858,53.12169312169313 188.57142857142858,53.75661375661376 188.35978835978838,54.39153439153439 188.14814814814815,55.02645502645503 187.93650793650795,55.661375661375665 187.72486772486775,56.2962962962963 187.30158730158732,56.93121693121694 186.8783068783069,57.56613756613757 186.45502645502646,58.2010582010582 186.03174603174605,58.62433862433863 185.60846560846562,59.25925925925927 185.1851851851852,59.682539682539684 184.7619047619048,60.10582010582011 184.33862433862436,60.52910052910053 183.91534391534393,60.952380952380956 183.4920634920635,61.37566137566138 182.85714285714286,61.798941798941804 182.22222222222223,62.01058201058201 181.5873015873016,62.43386243386244 180.95238095238096,62.85714285714286 180.31746031746033,63.06878306878308 179.6825396825397,63.280423280423285 179.04761904761907,63.492063492063494 178.41269841269843,63.91534391534392 177.7777777777778,63.91534391534392 177.14285714285717,63.91534391534392 176.50793650793653,64.12698412698413 175.87301587301587,64.12698412698413 175.23809523809524,64.33862433862434 174.6031746031746,64.33862433862434 173.96825396825398,64.55026455026456 173.33333333333334,64.55026455026456 172.6984126984127,64.55026455026456 172.06349206349208,64.55026455026456 171.42857142857144,64.55026455026456 170.7936507936508,64.55026455026456 170.15873015873018,64.76190476190477 169.52380952380955,64.76190476190477 168.8888888888889,64.76190476190477 168.25396825396825,64.76190476190477 167.61904761904762,64.97354497354497 166.984126984127,64.97354497354497 166.34920634920636,64.97354497354497 165.71428571428572,65.18518518518519 165.0793650793651,65.3968253968254 164.44444444444446,65.3968253968254 163.80952380952382,65.60846560846561 163.1746031746032,65.60846560846561 162.53968253968256,65.82010582010582 161.90476190476193,66.03174603174604 161.2698412698413,66.03174603174604 160.63492063492066,66.24338624338625 160.0,66.45502645502646 159.36507936507937,66.66666666666667 158.94179894179896,67.08994708994709 158.30687830687833,67.51322751322752 157.67195767195767,67.93650793650794 157.03703703703704,68.35978835978837 156.61375661375664,68.78306878306879 156.1904761904762,69.20634920634922 155.76719576719577,69.84126984126985 155.34391534391534,70.26455026455027 155.13227513227514,70.8994708994709 154.92063492063494,71.53439153439155 154.7089947089947,72.16931216931218 154.4973544973545,72.80423280423281 154.4973544973545,73.43915343915344 154.2857142857143,74.07407407407408 154.4973544973545,74.70899470899471 154.4973544973545,75.34391534391536 154.4973544973545,75.97883597883599 154.7089947089947,76.61375661375662 154.92063492063494,77.24867724867725 155.13227513227514,77.88359788359789 155.34391534391534,78.51851851851852 155.55555555555557,79.15343915343917 155.76719576719577,79.7883597883598 156.1904761904762,80.42328042328043 156.61375661375664,81.05820105820106 157.03703703703704,81.6931216931217 157.46031746031747,82.11640211640213 157.8835978835979,82.75132275132276 158.30687830687833,83.17460317460318 158.73015873015873,83.59788359788361 159.15343915343917,84.23280423280424 159.5767195767196,84.65608465608466 160.0,85.07936507936509 160.63492063492066,85.5026455026455 161.05820105820106,86.13756613756614 161.4814814814815,86.56084656084657 161.90476190476193,86.98412698412699 162.32804232804233,87.40740740740742 162.75132275132276,87.83068783068784 163.1746031746032,88.46560846560847 163.59788359788362,88.8888888888889 164.02116402116403,89.52380952380953 164.44444444444446,89.94708994708995 164.8677248677249,90.37037037037038 165.2910052910053,90.7936507936508 165.92592592592595,91.21693121693123 166.56084656084658,91.64021164021165 166.984126984127,92.06349206349208 167.40740740740742,92.4867724867725 167.83068783068785,92.91005291005291 168.25396825396825,93.33333333333334 168.8888888888889,93.75661375661376 169.31216931216932,94.17989417989419 169.73544973544975,94.60317460317461 170.37037037037038,95.02645502645504 170.7936507936508,95.44973544973546 171.42857142857144,95.87301587301587 172.06349206349208,96.2962962962963 172.6984126984127,96.71957671957672 173.12169312169314,97.14285714285715 173.54497354497354,97.56613756613757 174.1798941798942,97.989417989418 174.81481481481484,98.41269841269842 175.44973544973547,98.83597883597885 175.87301587301587,99.25925925925927 176.50793650793653,99.68253968253968 176.93121693121694,100.10582010582011 177.56613756613757,100.52910052910053 178.2010582010582,100.95238095238096 178.83597883597884,101.37566137566138 179.4708994708995,101.5873015873016 179.8941798941799,102.01058201058201 180.52910052910053,102.43386243386244 183.4920634920635,104.33862433862434" style="fill:none; stroke:#999900; stroke-width:1.0"  /><polyline points="183.4920634920635,104.33862433862434 180.95238095238096,107.0899470899471 180.52910052910053,107.51322751322752 180.10582010582013,107.93650793650795 179.6825396825397,108.35978835978837 179.25925925925927,108.78306878306879 178.83597883597884,109.20634920634922 178.41269841269843,109.62962962962963 177.989417989418,110.05291005291006 177.56613756613757,110.47619047619048 177.14285714285717,111.11111111111111 176.71957671957674,111.53439153439155 176.2962962962963,111.95767195767196 175.87301587301587,112.5925925925926 175.44973544973547,113.01587301587303 175.02645502645504,113.65079365079366 174.6031746031746,114.28571428571429 174.1798941798942,114.92063492063492 173.75661375661377,115.55555555555557 173.33333333333334,116.1904761904762 172.9100529100529,116.82539682539684 172.4867724867725,117.24867724867725 172.06349206349208,117.88359788359789 171.64021164021165,118.51851851851853 171.21693121693124,119.15343915343917 170.7936507936508,119.7883597883598 170.37037037037038,120.42328042328043 169.94708994708995,120.84656084656086 169.52380952380955,121.4814814814815 169.10052910052912,122.11640211640213 168.67724867724868,122.53968253968254 168.25396825396825,122.96296296296298 167.83068783068785,123.3862433862434 167.40740740740742,124.02116402116403 166.984126984127,124.44444444444446 166.56084656084658,124.86772486772487 166.13756613756615,125.2910052910053 165.71428571428572,125.92592592592594 165.2910052910053,126.56084656084657 164.8677248677249,127.1957671957672 164.44444444444446,127.61904761904763 164.02116402116403,128.25396825396825 163.3862433862434,128.67724867724868 162.96296296296296,129.10052910052912 162.53968253968256,129.73544973544975 162.11640211640213,130.37037037037038 161.6931216931217,131.005291005291 161.2698412698413,131.42857142857144 160.84656084656086,131.85185185185185 160.42328042328043,132.27513227513228 160.0,132.6984126984127 159.5767195767196,133.12169312169314 159.15343915343917,133.75661375661377 158.73015873015873,134.17989417989418 158.30687830687833,134.6031746031746 157.8835978835979,135.02645502645504 157.46031746031747,135.44973544973547 156.82539682539684,135.87301587301587 156.4021164021164,136.2962962962963 155.978835978836,136.71957671957674 155.55555555555557,137.35449735449737 155.13227513227514,137.7777777777778 154.7089947089947,138.2010582010582 154.07407407407408,138.62433862433863 153.65079365079367,139.04761904761907 153.22751322751324,139.47089947089947 152.8042328042328,139.8941798941799 152.38095238095238,140.31746031746033 151.95767195767198,140.74074074074076 151.32275132275134,141.16402116402116 150.6878306878307,141.5873015873016 150.26455026455028,142.01058201058203 149.62962962962965,142.22222222222223 148.99470899470901,142.64550264550266 148.35978835978838,142.64550264550266 147.72486772486775,142.64550264550266 147.0899470899471,142.85714285714286 146.45502645502646,142.64550264550266 145.82010582010582,142.43386243386246 145.1851851851852,142.22222222222223 144.55026455026456,141.7989417989418 143.91534391534393,141.5873015873016 143.4920634920635,141.16402116402116 143.0687830687831,140.74074074074076 142.64550264550266,140.31746031746033 142.22222222222223,139.8941798941799 141.7989417989418,139.25925925925927 141.5873015873016,138.62433862433863 141.16402116402116,137.989417989418 140.95238095238096,137.35449735449737 140.74074074074076,136.71957671957674 140.52910052910053,136.0846560846561 140.52910052910053,135.44973544973547 140.52910052910053,134.81481481481484 140.31746031746033,134.17989417989418 140.31746031746033,133.54497354497354 140.31746031746033,132.9100529100529 140.31746031746033,132.27513227513228 140.10582010582013,131.64021164021165 139.8941798941799,131.005291005291 139.6825396825397,130.37037037037038 139.47089947089947,129.73544973544975 139.25925925925927,129.10052910052912 139.04761904761907,128.46560846560848 138.62433862433863,127.83068783068784 138.41269841269843,127.1957671957672 137.989417989418,126.77248677248679 137.7777777777778,126.13756613756615 137.35449735449737,125.71428571428572 136.93121693121694,125.07936507936509 136.5079365079365,124.44444444444446 136.0846560846561,124.02116402116403 135.66137566137567,123.59788359788361 135.23809523809524,123.17460317460318 134.6031746031746,122.75132275132276 133.96825396825398,122.32804232804234 133.33333333333334,122.11640211640213 132.6984126984127,121.90476190476191 132.06349206349208,121.90476190476191 131.42857142857144,121.6931216931217 130.7936507936508,121.6931216931217 130.15873015873018,121.90476190476191 129.52380952380955,122.11640211640213 128.88888888888889,122.11640211640213 128.25396825396825,122.32804232804234 127.61904761904763,122.32804232804234 126.98412698412699,122.53968253968254 126.34920634920636,122.53968253968254 125.71428571428572,122.75132275132276 125.07936507936509,122.96296296296298 124.44444444444446,123.17460317460318 123.80952380952382,123.3862433862434 123.17460317460318,123.3862433862434 122.53968253968254,123.80952380952382 121.90476190476191,124.02116402116403 121.26984126984128,124.23280423280424 120.63492063492065,124.65608465608466 120.00000000000001,124.86772486772487 119.36507936507937,125.07936507936509 118.94179894179895,125.5026455026455 118.30687830687832,125.71428571428572 117.88359788359789,126.13756613756615 117.24867724867725,126.56084656084657 116.82539682539684,126.98412698412699 116.4021164021164,127.40740740740742 115.76719576719577,127.83068783068784 115.13227513227514,128.25396825396825 114.70899470899472,128.67724867724868 114.28571428571429,129.10052910052912 113.65079365079366,129.52380952380955 113.22751322751324,129.94708994708995 112.80423280423281,130.37037037037038 112.3809523809524,130.7936507936508 111.95767195767196,131.42857142857144 111.74603174603176,132.06349206349208 111.32275132275133,132.4867724867725 110.89947089947091,133.12169312169314 110.47619047619048,133.75661375661377 110.05291005291006,134.3915343915344 109.84126984126985,135.02645502645504 109.41798941798943,135.66137566137567 109.20634920634922,136.2962962962963 108.994708994709,136.93121693121694 108.78306878306879,137.56613756613757 108.57142857142858,138.2010582010582 108.57142857142858,138.83597883597884 108.57142857142858,139.47089947089947 108.57142857142858,140.10582010582013 108.57142857142858,140.74074074074076 108.57142857142858,141.3756613756614 108.78306878306879,142.01058201058203 108.994708994709,142.64550264550266 109.41798941798943,143.2804232804233 109.62962962962963,143.91534391534393 110.05291005291006,144.55026455026456 110.47619047619048,145.1851851851852 110.89947089947091,145.82010582010582 111.32275132275133,146.24338624338625 111.74603174603176,146.66666666666669 112.16931216931218,147.0899470899471 112.5925925925926,147.51322751322752 113.01587301587303,148.14814814814815 113.65079365079366,148.57142857142858 114.07407407407408,148.99470899470901 114.49735449735451,149.41798941798942 115.13227513227514,149.84126984126985 115.55555555555557,150.26455026455028 116.1904761904762,150.6878306878307 116.82539682539684,151.11111111111111 117.46031746031747,151.53439153439155 118.0952380952381,151.74603174603175 118.51851851851853,152.16931216931218 119.15343915343917,152.5925925925926 119.7883597883598,153.01587301587304 120.21164021164022,153.43915343915344 120.63492063492065,153.86243386243387 121.05820105820106,154.2857142857143 121.4814814814815,154.92063492063494 121.6931216931217,155.55555555555557 122.11640211640213,156.1904761904762 122.32804232804234,156.82539682539684 122.53968253968254,157.46031746031747 122.75132275132276,158.0952380952381 122.75132275132276,158.73015873015873 122.75132275132276,159.36507936507937 122.75132275132276,160.0 122.53968253968254,160.63492063492066 122.11640211640213,161.2698412698413 121.90476190476191,161.90476190476193 121.4814814814815,162.32804232804233 121.05820105820106,162.96296296296296 120.63492063492065,163.3862433862434 120.21164021164022,163.80952380952382 119.7883597883598,164.23280423280426 119.15343915343917,164.65608465608466 118.51851851851853,165.0793650793651 117.88359788359789,165.50264550264552 117.46031746031747,165.92592592592595 116.82539682539684,166.34920634920636 116.1904761904762,166.56084656084658 115.55555555555557,166.984126984127 114.92063492063492,167.19576719576722 114.49735449735451,167.61904761904762 113.86243386243387,167.83068783068785 113.22751322751324,168.25396825396825 112.5925925925926,168.46560846560848 111.95767195767196,168.8888888888889 111.32275132275133,169.31216931216932 110.6878306878307,169.52380952380955 110.26455026455027,169.94708994708995 109.62962962962963,170.15873015873018 108.994708994709,170.58201058201058 108.35978835978837,171.005291005291 107.72486772486774,171.21693121693124 107.0899470899471,171.64021164021165 106.45502645502647,172.06349206349208 103.91534391534393,173.54497354497354" style="fill:none; stroke:#00aa99; stroke-width:1.0"  /><polyline points="103.91534391534393,173.54497354497354 101.16402116402116,171.005291005291 100.74074074074075,170.58201058201058 100.31746031746033,170.15873015873018 99.8941798941799,169.73544973544975 99.47089947089948,169.31216931216932 99.04761904761905,168.8888888888889 98.62433862433863,168.46560846560848 98.2010582010582,168.04232804232805 97.77777777777779,167.61904761904762 97.35449735449737,167.19576719576722 96.93121693121694,166.7724867724868 96.50793650793652,166.34920634920636 96.08465608465609,165.92592592592595 95.44973544973546,165.71428571428572 95.02645502645504,165.2910052910053 94.60317460317461,164.8677248677249 93.96825396825398,164.44444444444446 93.54497354497356,163.80952380952382 92.91005291005291,163.3862433862434 92.4867724867725,162.96296296296296 92.06349206349208,162.53968253968256 91.64021164021165,162.11640211640213 91.00529100529101,161.6931216931217 90.58201058201058,161.2698412698413 90.15873015873017,160.84656084656086 89.52380952380953,160.42328042328043 89.1005291005291,160.0 88.67724867724868,159.5767195767196 88.25396825396827,159.15343915343917 87.61904761904762,158.73015873015873 87.1957671957672,158.30687830687833 86.77248677248677,157.8835978835979 86.34920634920636,157.46031746031747 85.92592592592594,157.03703703703704 85.5026455026455,156.61375661375664 85.07936507936509,156.1904761904762 84.44444444444446,155.76719576719577 84.02116402116403,155.13227513227514 83.59788359788361,154.7089947089947 83.17460317460318,154.2857142857143 82.53968253968254,153.86243386243387 82.11640211640213,153.22751322751324 81.6931216931217,152.8042328042328 81.26984126984128,152.38095238095238 80.84656084656085,151.95767195767198 80.42328042328043,151.53439153439155 80.0,151.11111111111111 79.57671957671958,150.6878306878307 79.15343915343917,150.26455026455028 78.73015873015873,149.84126984126985 78.30687830687832,149.41798941798942 77.88359788359789,148.99470899470901 77.46031746031747,148.57142857142858 77.03703703703704,147.93650793650795 76.61375661375662,147.51322751322752 76.19047619047619,147.0899470899471 75.76719576719577,146.66666666666669 75.34391534391536,146.24338624338625 74.92063492063492,145.82010582010582 74.49735449735451,145.1851851851852 74.07407407407408,144.76190476190476 73.65079365079366,144.33862433862436 73.22751322751323,143.91534391534393 72.80423280423281,143.2804232804233 72.38095238095238,142.85714285714286 71.95767195767196,142.43386243386246 71.53439153439155,141.7989417989418 71.11111111111111,141.3756613756614 70.6878306878307,140.74074074074076 70.26455026455027,140.31746031746033 69.84126984126985,139.6825396825397 69.41798941798942,139.04761904761907 68.994708994709,138.62433862433863 68.57142857142858,138.2010582010582 68.14814814814815,137.56613756613757 67.72486772486774,136.93121693121694 67.3015873015873,136.5079365079365 66.87830687830689,136.0846560846561 66.45502645502646,135.66137566137567 66.03174603174604,135.02645502645504 65.60846560846561,134.3915343915344 65.18518518518519,133.96825396825398 64.76190476190477,133.33333333333334 64.33862433862434,132.9100529100529 63.91534391534392,132.4867724867725 63.70370370370371,131.85185185185185 63.280423280423285,131.42857142857144 62.85714285714286,131.005291005291 62.64550264550265,130.37037037037038 62.22222222222223,129.94708994708995 62.01058201058201,129.31216931216932 61.58730158730159,128.88888888888889 61.37566137566138,128.25396825396825 60.952380952380956,127.61904761904763 60.74074074074075,126.98412698412699 60.74074074074075,126.34920634920636 60.52910052910053,125.71428571428572 60.74074074074075,125.07936507936509 60.74074074074075,124.44444444444446 60.74074074074075,123.80952380952382 61.16402116402117,123.17460317460318 61.37566137566138,122.53968253968254 61.798941798941804,122.11640211640213 62.22222222222223,121.4814814814815 62.64550264550265,121.05820105820106 63.06878306878308,120.63492063492065 63.492063492063494,120.21164021164022 63.91534391534392,119.7883597883598 64.55026455026456,119.36507936507937 65.18518518518519,118.94179894179895 65.82010582010582,118.73015873015873 66.45502645502646,118.51851851851853 67.08994708994709,118.51851851851853 67.72486772486774,118.30687830687832 68.35978835978837,118.30687830687832 68.994708994709,118.30687830687832 69.62962962962963,118.30687830687832 70.26455026455027,118.30687830687832 70.8994708994709,118.0952380952381 71.53439153439155,117.88359788359789 72.16931216931218,117.88359788359789 72.80423280423281,117.88359788359789 73.43915343915344,117.46031746031747 74.07407407407408,117.46031746031747 74.70899470899471,117.24867724867725 75.34391534391536,116.82539682539684 75.97883597883599,116.61375661375662 76.61375661375662,116.1904761904762 77.24867724867725,115.76719576719577 77.67195767195767,115.34391534391536 78.30687830687832,114.92063492063492 78.73015873015873,114.49735449735451 79.15343915343917,114.07407407407408 79.57671957671958,113.65079365079366 80.0,113.01587301587303 80.21164021164022,112.3809523809524 80.42328042328043,111.74603174603176 80.63492063492065,111.11111111111111 80.63492063492065,110.47619047619048 80.84656084656085,109.84126984126985 80.84656084656085,109.20634920634922 80.63492063492065,108.57142857142858 80.42328042328043,107.93650793650795 80.42328042328043,107.3015873015873 80.21164021164022,106.66666666666667 80.0,106.03174603174604 79.7883597883598,105.3968253968254 79.57671957671958,104.76190476190477 79.36507936507937,104.12698412698414 79.15343915343917,103.4920634920635 78.94179894179895,102.85714285714286 78.51851851851852,102.22222222222223 78.30687830687832,101.5873015873016 78.0952380952381,100.95238095238096 77.67195767195767,100.31746031746033 77.46031746031747,99.68253968253968 77.03703703703704,99.04761904761905 76.82539682539684,98.41269841269842 76.4021164021164,97.989417989418 76.19047619047619,97.35449735449737 75.76719576719577,96.93121693121694 75.55555555555556,96.2962962962963 75.13227513227514,95.87301587301587 74.70899470899471,95.44973544973546 74.28571428571429,95.02645502645504 73.86243386243387,94.39153439153439 73.43915343915344,93.75661375661376 73.01587301587303,93.33333333333334 72.5925925925926,92.69841269841271 72.16931216931218,92.27513227513228 71.74603174603175,91.85185185185186 71.32275132275133,91.21693121693123 70.8994708994709,90.7936507936508 70.47619047619048,90.37037037037038 70.05291005291006,89.73544973544975 69.62962962962963,89.31216931216932 69.20634920634922,88.8888888888889 68.57142857142858,88.46560846560847 68.14814814814815,88.04232804232805 67.72486772486774,87.61904761904762 67.08994708994709,87.1957671957672 66.66666666666667,86.77248677248677 66.24338624338625,86.34920634920636 65.60846560846561,85.92592592592594 65.18518518518519,85.5026455026455 64.55026455026456,85.07936507936509 63.91534391534392,84.65608465608466 63.280423280423285,84.23280423280424 62.64550264550265,83.80952380952381 62.01058201058201,83.3862433862434 61.37566137566138,82.96296296296298 60.74074074074075,82.53968253968254 60.10582010582011,82.53968253968254 59.470899470899475,82.11640211640213 58.83597883597884,81.90476190476191 58.2010582010582,81.6931216931217 57.56613756613757,81.26984126984128 56.93121693121694,81.05820105820106 56.2962962962963,80.84656084656085 55.661375661375665,80.63492063492065 55.02645502645503,80.42328042328043 54.39153439153439,80.21164021164022 53.75661375661376,80.0 53.12169312169313,79.7883597883598 52.48677248677249,79.57671957671958 51.851851851851855,79.36507936507937 51.21693121693122,79.36507936507937 50.58201058201058,79.15343915343917 49.94708994708995,79.15343915343917 49.31216931216932,79.15343915343917 48.677248677248684,79.15343915343917 48.042328042328045,79.36507936507937 47.40740740740741,79.36507936507937 46.77248677248678,79.7883597883598 46.13756613756614,80.21164021164022 45.50264550264551,80.63492063492065 45.07936507936508,81.05820105820106 44.65608465608466,81.6931216931217 44.232804232804234,82.32804232804233 44.021164021164026,82.96296296296298 43.5978835978836,83.59788359788361 43.386243386243386,84.23280423280424 43.17460317460318,84.86772486772487 43.17460317460318,85.5026455026455 42.96296296296297,86.13756613756614 42.96296296296297,86.77248677248677 42.75132275132275,87.40740740740742 42.75132275132275,88.04232804232805 42.539682539682545,88.67724867724868 42.32804232804233,89.31216931216932 42.32804232804233,89.94708994708995 42.32804232804233,90.58201058201058 42.11640211640212,91.21693121693123 42.11640211640212,91.85185185185186 41.904761904761905,92.4867724867725 41.904761904761905,93.12169312169313 41.6931216931217,93.75661375661376 41.48148148148149,94.39153439153439 41.48148148148149,95.02645502645504 41.26984126984127,95.66137566137567 41.48148148148149,96.2962962962963 41.26984126984127,96.93121693121694 40.84656084656085,97.56613756613757 40.63492063492064,98.2010582010582 40.423280423280424,98.83597883597885 40.0,99.47089947089948 39.57671957671958,99.8941798941799 39.15343915343916,100.52910052910053 38.730158730158735,100.95238095238096 38.30687830687831,101.37566137566138 37.67195767195768,101.79894179894181 37.03703703703704,102.01058201058201 36.402116402116405,102.22222222222223 35.76719576719577,102.43386243386244 35.13227513227513,102.43386243386244 34.4973544973545,102.43386243386244 33.86243386243387,102.43386243386244 33.22751322751323,102.22222222222223 32.592592592592595,102.01058201058201 31.95767195767196,101.5873015873016 31.322751322751326,101.37566137566138 30.899470899470902,100.95238095238096 30.264550264550266,100.52910052910053 29.629629629629633,100.10582010582011 29.20634920634921,99.68253968253968 28.571428571428573,99.25925925925927 28.14814814814815,98.83597883597885 27.513227513227516,98.41269841269842 27.089947089947092,97.989417989418 26.666666666666668,97.56613756613757 26.031746031746035,97.14285714285715 25.60846560846561,96.71957671957672 24.973544973544975,96.2962962962963 24.338624338624342,95.87301587301587 23.915343915343918,95.44973544973546 23.492063492063494,95.02645502645504 23.06878306878307,94.60317460317461 22.645502645502646,94.17989417989419 22.222222222222225,93.75661375661376 21.7989417989418,93.33333333333334 21.375661375661377,92.91005291005291 20.952380952380953,92.4867724867725 20.529100529100532,92.06349206349208 20.105820105820108,91.64021164021165 19.682539682539684,91.21693121693123 19.25925925925926,90.7936507936508 18.83597883597884,90.15873015873017 18.412698412698415,89.73544973544975 17.98941798941799,89.1005291005291 17.566137566137566,88.67724867724868 17.142857142857146,88.04232804232805 16.71957671957672,87.61904761904762 16.296296296296298,86.98412698412699 15.873015873015873,86.34920634920636 15.449735449735451,85.92592592592594 15.026455026455027,85.29100529100529 14.603174603174605,84.65608465608466 14.17989417989418,84.23280423280424 13.756613756613758,83.59788359788361 13.333333333333334,83.17460317460318 12.910052910052912,82.53968253968254 12.486772486772487,81.90476190476191 12.063492063492065,81.48148148148148 11.640211640211641,80.84656084656085 11.216931216931219,80.21164021164022 10.793650793650794,79.7883597883598 10.370370370370372,79.15343915343917 9.947089947089948,78.73015873015873 9.523809523809524,78.0952380952381 9.100529100529101,77.67195767195767 8.677248677248677,77.03703703703704 8.253968253968255,76.4021164021164 7.830687830687832,75.76719576719577 7.407407407407408,75.34391534391536 6.984126984126985,74.92063492063492 6.560846560846561,74.28571428571429 6.137566137566138,73.65079365079366 5.714285714285714,73.22751322751323 5.291005291005291,72.5925925925926 4.867724867724868,72.16931216931218 4.444444444444445,71.53439153439155 4.021164021164021,70.8994708994709 3.597883597883598,70.47619047619048 3.3862433862433865,69.84126984126985 2.9629629629629632,69.41798941798942 2.53968253968254,68.78306878306879 2.1164021164021167,68.35978835978837 -0.4232804232804233,65.18518518518519" style="fill:none; stroke:#3300bb; stroke-width:1.0"  /><circle cx="-0.4232804232804233" cy="65.18518518518519" r="2.0" style="fill:none; stroke:#000000aa; stroke-width:0.25" /><circle cx="129.10052910052912" cy="14.391534391534393" r="2.0" style="fill:none; stroke:#000000aa; stroke-width:0.25" /><circle cx="183.4920634920635" cy="104.33862433862434" r="2.0" style="fill:none; stroke:#000000aa; stroke-width:0.25" /><circle cx="103.91534391534393" cy="173.54497354497354" r="2.0" style="fill:none; stroke:#000000aa; stroke-width:0.25" /><circle cx="0.21164021164021166" cy="65.60846560846561" r="2.0" style="fill:none; stroke:#ff3366aa; stroke-width:0.25" /><circle cx="129.10052910052912" cy="15.238095238095239" r="2.0" style="fill:none; stroke:#ff3366aa; stroke-width:0.25" /><circle cx="183.0687830687831" cy="104.33862433862434" r="2.0" style="fill:none; stroke:#ff3366aa; stroke-width:0.25" /><circle cx="103.4920634920635" cy="173.33333333333334" r="2.0" style="fill:none; stroke:#ff3366aa; stroke-width:0.25" /><polyline points="11.216931216931219,62.43386243386244 10.582010582010582,62.64550264550265 9.947089947089948,62.64550264550265 9.312169312169313,62.85714285714286 8.677248677248677,63.06878306878308 8.042328042328043,63.06878306878308 7.407407407407408,63.280423280423285 6.772486772486773,63.280423280423285 6.137566137566138,63.492063492063494 5.502645502645503,63.70370370370371 4.867724867724868,63.70370370370371 4.2328042328042335,63.91534391534392 3.597883597883598,64.12698412698413 2.9629629629629632,64.33862433862434" style="fill:none; stroke:#001100; stroke-width:1.0" /><polyline points="6.984126984126985,74.92063492063492 6.560846560846561,74.28571428571429 6.137566137566138,73.65079365079366 5.714285714285714,73.22751322751323 5.291005291005291,72.5925925925926 4.867724867724868,72.16931216931218 4.444444444444445,71.53439153439155 4.021164021164021,70.8994708994709 3.597883597883598,70.47619047619048 3.3862433862433865,69.84126984126985 2.9629629629629632,69.41798941798942 2.53968253968254,68.78306878306879 2.1164021164021167,68.35978835978837" style="fill:none; stroke:#000011; stroke-width:1.0" /><polyline points="135.44973544973547,24.973544973544975 135.23809523809524,24.338624338624342 134.81481481481484,23.703703703703706 134.6031746031746,23.06878306878307 134.17989417989418,22.645502645502646 133.96825396825398,22.010582010582013 133.54497354497354,21.58730158730159 133.33333333333334,20.952380952380953 132.9100529100529,20.31746031746032 132.4867724867725,19.682539682539684 132.06349206349208,19.047619047619047 131.64021164021165,18.412698412698415 131.21693121693121,17.98941798941799" style="fill:none; stroke:#001100; stroke-width:1.0" /><polyline points="118.51851851851853,20.31746031746032 118.94179894179895,19.894179894179896 119.57671957671958,19.682539682539684 120.21164021164022,19.25925925925926 120.84656084656086,18.83597883597884 121.4814814814815,18.624338624338627 121.90476190476191,18.201058201058203 122.53968253968254,17.98941798941799 123.17460317460318,17.566137566137566 123.80952380952382,17.142857142857146 124.44444444444446,16.931216931216934 125.07936507936509,16.71957671957672 125.71428571428572,16.296296296296298" style="fill:none; stroke:#000011; stroke-width:1.0" /><polyline points="175.44973544973547,113.01587301587303 175.87301587301587,112.5925925925926 176.2962962962963,111.95767195767196 176.71957671957674,111.53439153439155 177.14285714285717,111.11111111111111 177.56613756613757,110.47619047619048 177.989417989418,110.05291005291006 178.41269841269843,109.62962962962963 178.83597883597884,109.20634920634922 179.25925925925927,108.78306878306879 179.6825396825397,108.35978835978837 180.10582010582013,107.93650793650795 180.52910052910053,107.51322751322752 180.95238095238096,107.0899470899471" style="fill:none; stroke:#001100; stroke-width:1.0" /><polyline points="173.54497354497354,97.56613756613757 174.1798941798942,97.989417989418 174.81481481481484,98.41269841269842 175.44973544973547,98.83597883597885 175.87301587301587,99.25925925925927 176.50793650793653,99.68253968253968 176.93121693121694,100.10582010582011 177.56613756613757,100.52910052910053 178.2010582010582,100.95238095238096 178.83597883597884,101.37566137566138 179.4708994708995,101.5873015873016 179.8941798941799,102.01058201058201 180.52910052910053,102.43386243386244" style="fill:none; stroke:#000011; stroke-width:1.0" /><polyline points="95.02645502645504,165.2910052910053 95.44973544973546,165.71428571428572 96.08465608465609,165.92592592592595 96.50793650793652,166.34920634920636 96.93121693121694,166.7724867724868 97.35449735449737,167.19576719576722 97.77777777777779,167.61904761904762 98.2010582010582,168.04232804232805 98.62433862433863,168.46560846560848 99.04761904761905,168.8888888888889 99.47089947089948,169.31216931216932 99.8941798941799,169.73544973544975 100.31746031746033,170.15873015873018 100.74074074074075,170.58201058201058 101.16402116402116,171.005291005291" style="fill:none; stroke:#001100; stroke-width:1.0" /><polyline points="113.86243386243387,167.83068783068785 113.22751322751324,168.25396825396825 112.5925925925926,168.46560846560848 111.95767195767196,168.8888888888889 111.32275132275133,169.31216931216932 110.6878306878307,169.52380952380955 110.26455026455027,169.94708994708995 109.62962962962963,170.15873015873018 108.994708994709,170.58201058201058 108.35978835978837,171.005291005291 107.72486772486774,171.21693121693124 107.0899470899471,171.64021164021165 106.45502645502647,172.06349206349208" style="fill:none; stroke:#000011; stroke-width:1.0" /><polyline points="2.9629629629629632,64.33862433862434 -17.566137566137566,68.994708994709" style="fill:none; stroke:#ffaa00; stroke-width:0.4" /><polyline points="2.1164021164021167,68.35978835978837 -10.582010582010582,51.42857142857143" style="fill:none; stroke:#aaff00; stroke-width:0.4" /><polyline points="131.21693121693121,17.98941798941799 120.21164021164022,-0.21164021164021166" style="fill:none; stroke:#ffaa00; stroke-width:0.4" /><polyline points="125.71428571428572,16.296296296296298 144.12698412698413,5.9259259259259265" style="fill:none; stroke:#aaff00; stroke-width:0.4" /><polyline points="180.95238095238096,107.0899470899471 195.34391534391537,91.64021164021165" style="fill:none; stroke:#ffaa00; stroke-width:0.4" /><polyline points="180.52910052910053,102.43386243386244 197.8835978835979,114.49735449735451" style="fill:none; stroke:#aaff00; stroke-width:0.4" /><polyline points="101.16402116402116,171.005291005291 116.61375661375662,185.39682539682542" style="fill:none; stroke:#ffaa00; stroke-width:0.4" /><polyline points="106.45502645502647,172.06349206349208 88.04232804232805,182.64550264550266" style="fill:none; stroke:#aaff00; stroke-width:0.4" /><circle cx="103.70370370370371" cy="79.7883597883598" r="1.0" style="fill:#444444; stroke-width:0" /><circle cx="110.6878306878307" cy="73.22751322751323" r="10.582010582010582" style="fill:#ff770022; stroke-width:0" /><circle cx="110.6878306878307" cy="73.22751322751323" r="1.0" style="fill:#ff7700; stroke-width:0" /></svg>