<?xml version="1.0" encoding="UTF-8" standalone="no"?><svg width="661.5873015873017" height="525.0793650793652" viewBox="-10 -10 240.52910052910053 195.02645502645504" xmlns="http://www.w3.org/2000/svg" xmlns:xlink="http://www.w3.org/1999/xlink"><polyline points="78.30687830687832,-0.4232804232804233 81.48148148148148,1.26984126984127 82.11640211640213,1.6931216931216932 82.75132275132276,1.9047619047619049 83.3862433862434,2.1164021164021167 84.02116402116403,2.53968253968254 84.65608465608466,2.7513227513227516 85.29100529100529,3.174603174603175 85.92592592592594,3.3862433862433865 86.56084656084657,3.597883597883598 86.98412698412699,4.021164021164021 87.61904761904762,4.2328042328042335 88.25396825396827,4.444444444444445 88.8888888888889,4.867724867724868 89.52380952380953,5.07936507936508 90.15873015873017,5.502645502645503 90.7936507936508,5.714285714285714 91.42857142857143,6.137566137566138 92.06349206349208,6.34920634920635 92.69841269841271,6.560846560846561 93.33333333333334,6.984126984126985 93.96825396825398,7.195767195767196 94.60317460317461,7.407407407407408 95.02645502645504,7.830687830687832 95.66137566137567,8.042328042328043 96.2962962962963,8.253968253968255 96.93121693121694,8.465608465608467 97.56613756613757,8.88888888888889 98.2010582010582,9.312169312169313 98.83597883597885,9.523809523809524 99.47089947089948,9.947089947089948 100.10582010582011,10.15873015873016 100.74074074074075,10.370370370370372 101.37566137566138,10.793650793650794 102.01058201058201,11.216931216931219 102.64550264550266,11.428571428571429 103.28042328042329,11.640211640211641 103.91534391534393,12.063492063492065 104.55026455026456,12.275132275132275 105.18518518518519,12.6984126984127 105.82010582010582,13.121693121693122 106.45502645502647,13.121693121693122 107.0899470899471,13.544973544973546 107.72486772486774,13.756613756613758 108.35978835978837,13.96825396825397 108.78306878306879,14.391534391534393 109.41798941798943,14.603174603174605 109.84126984126985,15.026455026455027 110.47619047619048,15.238095238095239 111.11111111111111,15.661375661375663 111.74603174603176,15.873015873015873 112.3809523809524,16.296296296296298 113.01587301587303,16.50793650793651 113.65079365079366,16.931216931216934 114.28571428571429,17.142857142857146 114.92063492063492,17.566137566137566 115.55555555555557,17.98941798941799 116.1904761904762,18.201058201058203 116.61375661375662,18.624338624338627 117.24867724867725,18.83597883597884 117.88359788359789,19.25925925925926 118.51851851851853,19.47089947089947 119.15343915343917,19.682539682539684 119.57671957671958,20.105820105820108 120.21164021164022,20.31746031746032 120.84656084656086,20.740740740740744 121.4814814814815,20.740740740740744 122.11640211640213,20.952380952380953 122.75132275132276,21.164021164021165 123.3862433862434,20.952380952380953 124.02116402116403,21.164021164021165 124.65608465608466,20.952380952380953 125.2910052910053,20.952380952380953 125.92592592592594,20.740740740740744 126.56084656084657,20.529100529100532 127.1957671957672,20.31746031746032 127.61904761904763,19.894179894179896 128.25396825396825,19.47089947089947 128.67724867724868,19.047619047619047 129.10052910052912,18.624338624338627 129.52380952380955,17.98941798941799 129.73544973544975,17.354497354497354 130.15873015873018,16.71957671957672 130.37037037037038,16.084656084656086 130.37037037037038,15.449735449735451 130.58201058201058,14.814814814814817 130.58201058201058,14.17989417989418 130.7936507936508,13.544973544973546 130.7936507936508,12.910052910052912 130.7936507936508,12.275132275132275 130.7936507936508,11.640211640211641 130.7936507936508,11.005291005291006 131.005291005291,10.370370370370372 131.005291005291,9.735449735449736 131.005291005291,9.100529100529101 131.21693121693121,8.465608465608467 131.42857142857144,7.830687830687832 131.64021164021165,7.195767195767196 131.64021164021165,6.560846560846561 132.06349206349208,5.9259259259259265 132.27513227513228,5.291005291005291 132.4867724867725,4.656084656084657 132.9100529100529,4.021164021164021 133.33333333333334,3.3862433862433865 133.75661375661377,2.9629629629629632 134.17989417989418,2.53968253968254 134.6031746031746,2.1164021164021167 135.02645502645504,1.6931216931216932 135.66137566137567,1.26984126984127 136.2962962962963,1.0582010582010584 136.71957671957674,0.4232804232804233 137.35449735449737,0.4232804232804233 137.989417989418,0.4232804232804233 138.62433862433863,0.4232804232804233 139.25925925925927,0.4232804232804233 139.8941798941799,0.634920634920635 140.52910052910053,0.4232804232804233 140.95238095238096,0.8465608465608466 141.5873015873016,0.634920634920635 142.22222222222223,0.8465608465608466 142.85714285714286,1.0582010582010584 143.4920634920635,1.26984126984127 144.12698412698413,1.4814814814814816 144.76190476190476,1.6931216931216932 145.39682539682542,1.9047619047619049 146.03174603174605,2.3280423280423284 146.66666666666669,2.53968253968254 147.30158730158732,2.7513227513227516 147.93650793650795,3.174603174603175 148.57142857142858,3.3862433862433865 149.20634920634922,3.597883597883598 149.62962962962965,4.021164021164021 150.26455026455028,4.444444444444445 150.8994708994709,4.656084656084657 151.32275132275134,5.07936507936508 151.95767195767198,5.291005291005291 152.5925925925926,5.714285714285714 153.22751322751324,6.137566137566138 153.65079365079367,6.560846560846561 154.2857142857143,6.984126984126985 154.7089947089947,7.407407407407408 155.13227513227514,7.830687830687832 155.76719576719577,8.253968253968255 156.1904761904762,8.677248677248677 156.61375661375664,9.100529100529101 157.03703703703704,9.735449735449736 157.46031746031747,10.15873015873016 157.8835978835979,10.793650793650794 158.30687830687833,11.428571428571429 158.73015873015873,12.063492063492065 158.94179894179896,12.6984126984127 159.36507936507937,13.333333333333334 159.5767195767196,13.96825396825397 159.7883597883598,14.603174603174605 159.7883597883598,15.238095238095239 159.7883597883598,15.873015873015873 159.7883597883598,16.50793650793651 159.7883597883598,17.142857142857146 159.5767195767196,17.77777777777778 159.36507936507937,18.412698412698415 159.15343915343917,19.047619047619047 158.73015873015873,19.682539682539684 158.30687830687833,20.31746031746032 157.8835978835979,20.952380952380953 157.46031746031747,21.58730158730159 157.03703703703704,22.010582010582013 156.61375661375664,22.433862433862437 156.1904761904762,23.06878306878307 155.76719576719577,23.492063492063494 155.34391534391534,23.915343915343918 154.92063492063494,24.338624338624342 154.4973544973545,24.761904761904763 154.07407407407408,25.185185185185187 153.43915343915344,25.60846560846561 153.01587301587304,26.031746031746035 152.5925925925926,26.455026455026456 152.16931216931218,26.87830687830688 151.74603174603175,27.301587301587304 151.32275132275134,27.93650793650794 150.8994708994709,28.35978835978836 150.47619047619048,28.783068783068785 150.05291005291005,29.20634920634921 149.62962962962965,29.841269841269842 149.20634920634922,30.476190476190478 148.78306878306879,31.111111111111114 148.57142857142858,31.746031746031747 148.35978835978838,32.38095238095239 148.14814814814815,33.01587301587302 147.93650793650795,33.65079365079365 147.93650793650795,34.28571428571429 147.93650793650795,34.920634920634924 147.93650793650795,35.55555555555556 148.14814814814815,36.19047619047619 148.14814814814815,36.82539682539683 148.35978835978838,37.46031746031746 148.57142857142858,38.095238095238095 148.99470899470901,38.730158730158735 149.41798941798942,39.36507936507937 149.84126984126985,39.78835978835979 150.26455026455028,40.211640211640216 150.6878306878307,40.63492063492064 151.32275132275134,41.058201058201064 151.95767195767198,41.26984126984127 152.5925925925926,41.6931216931217 153.22751322751324,41.904761904761905 153.86243386243387,42.11640211640212 154.4973544973545,42.11640211640212 155.13227513227514,42.32804232804233 155.76719576719577,42.539682539682545 156.4021164021164,42.75132275132275 157.03703703703704,42.75132275132275 157.67195767195767,42.75132275132275 158.30687830687833,42.96296296296297 158.94179894179896,43.17460317460318 159.5767195767196,43.386243386243386 160.21164021164023,43.386243386243386 160.84656084656086,43.5978835978836 161.4814814814815,43.80952380952381 162.11640211640213,43.80952380952381 162.75132275132276,44.232804232804234 163.3862433862434,44.232804232804234 164.02116402116403,44.232804232804234 164.65608465608466,44.44444444444445 165.2910052910053,44.44444444444445 165.92592592592595,44.65608465608466 166.56084656084658,44.867724867724874 167.19576719576722,44.867724867724874 167.83068783068785,45.07936507936508 168.46560846560848,45.07936507936508 169.10052910052912,45.29100529100529 169.73544973544975,45.50264550264551 170.37037037037038,45.714285714285715 171.005291005291,45.714285714285715 171.64021164021165,45.92592592592593 172.27513227513228,45.92592592592593 172.9100529100529,46.349206349206355 173.54497354497354,46.349206349206355 174.1798941798942,46.349206349206355 174.81481481481484,46.560846560846564 175.44973544973547,46.77248677248678 176.0846560846561,46.77248677248678 176.71957671957674,46.77248677248678 177.35449735449737,46.77248677248678 177.989417989418,46.98412698412699 178.62433862433863,47.195767195767196 179.25925925925927,47.195767195767196 179.8941798941799,47.40740740740741 180.52910052910053,47.40740740740741 181.16402116402116,47.61904761904762 181.79894179894183,47.830687830687836 182.43386243386246,47.830687830687836 183.0687830687831,48.042328042328045 183.70370370370372,48.042328042328045 184.33862433862436,48.25396825396826 184.973544973545,48.25396825396826 185.60846560846562,48.46560846560847 186.24338624338625,48.677248677248684 186.8783068783069,48.677248677248684 187.51322751322752,48.88888888888889 188.14814814814815,48.88888888888889 188.78306878306879,49.1005291005291 189.41798941798945,49.1005291005291 190.05291005291008,49.31216931216932 190.6878306878307,49.523809523809526 191.32275132275134,49.523809523809526 191.95767195767198,49.73544973544974 192.5925925925926,49.73544973544974 193.22751322751324,49.94708994708995 193.86243386243387,50.158730158730165 194.4973544973545,50.158730158730165 195.13227513227514,50.370370370370374 195.76719576719577,50.58201058201058 196.4021164021164,50.58201058201058 197.03703703703704,50.58201058201058 197.6719576719577,50.7936507936508 198.30687830687833,51.00529100529101 198.94179894179896,51.00529100529101 199.5767195767196,51.21693121693122 200.21164021164023,51.21693121693122 200.84656084656086,51.42857142857143 201.4814814814815,51.42857142857143 202.11640211640213,51.640211640211646 202.75132275132276,51.851851851851855 203.3862433862434,51.851851851851855 204.02116402116403,52.06349206349207 204.65608465608466,52.27513227513228 205.29100529100532,52.27513227513228 205.92592592592595,52.27513227513228 206.56084656084658,52.48677248677249 207.19576719576722,52.6984126984127 207.83068783068785,52.91005291005291 208.46560846560848,52.6984126984127 209.10052910052912,52.91005291005291 209.73544973544975,53.12169312169313 210.37037037037038,53.12169312169313 211.005291005291,53.12169312169313 211.64021164021165,53.12169312169313 212.27513227513228,53.333333333333336 212.91005291005294,53.333333333333336 213.54497354497357,53.54497354497355 214.1798941798942,53.54497354497355 214.81481481481484,53.54497354497355 215.44973544973547,53.54497354497355 216.0846560846561,53.54497354497355 216.71957671957674,53.75661375661376 217.35449735449737,53.968253968253975 220.52910052910053,54.39153439153439" style="fill:none; stroke:#cc0000; stroke-width:1.0"  /><polyline points="220.52910052910053,54.39153439153439 219.8941798941799,58.41269841269842 219.6825396825397,59.04761904761905 219.6825396825397,59.682539682539684 219.4708994708995,60.31746031746032 219.4708994708995,60.952380952380956 219.4708994708995,61.58730158730159 219.25925925925927,62.22222222222223 219.04761904761907,62.85714285714286 219.04761904761907,63.492063492063494 219.04761904761907,64.12698412698413 218.83597883597886,64.76190476190477 218.83597883597886,65.3968253968254 218.62433862433863,66.03174603174604 218.62433862433863,66.66666666666667 218.41269841269843,67.3015873015873 218.41269841269843,67.93650793650794 218.20105820105823,68.57142857142858 218.20105820105823,69.20634920634922 218.20105820105823,69.84126984126985 217.989417989418,70.47619047619048 217.989417989418,71.11111111111111 217.7777777777778,71.74603174603175 217.56613756613757,72.38095238095238 217.56613756613757,73.01587301587303 217.35449735449737,73.65079365079366 217.35449735449737,74.28571428571429 217.14285714285717,74.92063492063492 216.93121693121694,75.55555555555556 216.71957671957674,76.19047619047619 216.50793650793653,76.82539682539684 216.50793650793653,77.46031746031747 216.2962962962963,78.0952380952381 216.0846560846561,78.73015873015873 216.0846560846561,79.36507936507937 215.8730158730159,80.0 215.66137566137567,80.63492063492065 215.44973544973547,81.26984126984128 215.23809523809524,81.90476190476191 215.02645502645504,82.53968253968254 214.81481481481484,83.17460317460318 214.6031746031746,83.80952380952381 214.3915343915344,84.44444444444446 214.1798941798942,85.07936507936509 213.96825396825398,85.71428571428572 213.96825396825398,86.34920634920636 213.75661375661377,86.98412698412699 213.54497354497357,87.61904761904762 213.33333333333334,88.25396825396827 213.12169312169314,88.8888888888889 212.6984126984127,89.52380952380953 212.4867724867725,90.15873015873017 212.27513227513228,90.7936507936508 212.06349206349208,91.42857142857143 211.85185185185188,92.06349206349208 211.64021164021165,92.69841269841271 211.42857142857144,93.33333333333334 211.21693121693124,93.96825396825398 210.7936507936508,94.60317460317461 210.5820105820106,95.23809523809524 210.37037037037038,95.87301587301587 209.94708994708995,96.50793650793652 209.73544973544975,97.14285714285715 209.31216931216932,97.77777777777779 208.8888888888889,98.41269841269842 208.46560846560848,99.04761904761905 208.04232804232805,99.68253968253968 207.61904761904765,100.10582010582011 207.19576719576722,100.52910052910053 206.7724867724868,100.95238095238096 206.13756613756615,101.16402116402116 205.50264550264552,101.5873015873016 204.8677248677249,101.5873015873016 204.23280423280426,101.5873015873016 203.59788359788362,101.37566137566138 202.962962962963,101.37566137566138 202.32804232804233,101.16402116402116 201.6931216931217,100.95238095238096 201.05820105820106,100.52910052910053 200.42328042328043,100.10582010582011 199.7883597883598,99.68253968253968 199.36507936507937,99.25925925925927 198.94179894179896,98.83597883597885 198.51851851851853,98.41269841269842 198.0952380952381,97.989417989418 197.6719576719577,97.35449735449737 197.24867724867727,96.93121693121694 197.03703703703704,96.2962962962963 196.61375661375664,95.87301587301587 196.1904761904762,95.23809523809524 195.978835978836,94.60317460317461 195.55555555555557,94.17989417989419 195.13227513227514,93.54497354497356 194.92063492063494,92.91005291005291 194.4973544973545,92.27513227513228 194.07407407407408,91.64021164021165 193.86243386243387,91.00529100529101 193.43915343915344,90.58201058201058 193.22751322751324,89.94708994708995 192.8042328042328,89.52380952380953 192.5925925925926,88.8888888888889 192.16931216931218,88.25396825396827 191.95767195767198,87.61904761904762 191.53439153439155,87.1957671957672 191.11111111111111,86.56084656084657 190.6878306878307,86.13756613756614 190.26455026455028,85.5026455026455 189.84126984126985,85.07936507936509 189.41798941798945,84.65608465608466 188.78306878306879,84.23280423280424 188.14814814814815,84.02116402116403 187.72486772486775,83.59788359788361 187.08994708994712,83.3862433862434 186.45502645502646,82.96296296296298 185.82010582010582,82.96296296296298 185.1851851851852,82.75132275132276 184.55026455026456,82.53968253968254 183.91534391534393,82.32804232804233 183.2804232804233,82.32804232804233 182.64550264550266,82.11640211640213 182.01058201058203,82.11640211640213 181.3756613756614,81.90476190476191 180.74074074074076,81.90476190476191 180.10582010582013,81.6931216931217 179.4708994708995,81.6931216931217 178.83597883597884,81.6931216931217 178.2010582010582,81.6931216931217 177.56613756613757,81.6931216931217 176.93121693121694,81.48148148148148 176.2962962962963,81.90476190476191 175.66137566137567,81.90476190476191 175.02645502645504,81.90476190476191 174.3915343915344,81.90476190476191 173.75661375661377,81.90476190476191 173.12169312169314,82.11640211640213 172.4867724867725,82.32804232804233 171.85185185185188,82.32804232804233 171.21693121693124,82.53968253968254 170.58201058201058,82.75132275132276 169.94708994708995,82.75132275132276 169.31216931216932,83.17460317460318 168.67724867724868,83.3862433862434 168.04232804232805,83.3862433862434 167.40740740740742,83.80952380952381 166.7724867724868,84.02116402116403 166.13756613756615,84.44444444444446 165.50264550264552,84.65608465608466 164.8677248677249,85.07936507936509 164.23280423280426,85.5026455026455 163.59788359788362,85.92592592592594 162.96296296296296,86.34920634920636 162.53968253968256,86.77248677248677 161.90476190476193,87.1957671957672 161.4814814814815,87.61904761904762 161.05820105820106,88.04232804232805 160.63492063492066,88.46560846560847 160.21164021164023,88.8888888888889 159.7883597883598,89.31216931216932 159.36507936507937,89.73544973544975 158.94179894179896,90.15873015873017 158.51851851851853,90.7936507936508 158.0952380952381,91.42857142857143 157.67195767195767,92.06349206349208 157.24867724867727,92.69841269841271 157.03703703703704,93.33333333333334 156.61375661375664,93.75661375661376 156.4021164021164,94.39153439153439 155.978835978836,95.02645502645504 155.76719576719577,95.66137566137567 155.34391534391534,96.2962962962963 155.13227513227514,96.93121693121694 154.92063492063494,97.56613756613757 154.7089947089947,98.2010582010582 154.4973544973545,98.83597883597885 154.2857142857143,99.47089947089948 154.07407407407408,100.10582010582011 154.07407407407408,100.74074074074075 153.86243386243387,101.37566137566138 153.65079365079367,102.01058201058201 153.65079365079367,102.64550264550266 153.65079365079367,103.28042328042329 153.65079365079367,103.91534391534393 153.86243386243387,104.55026455026456 153.86243386243387,105.18518518518519 153.86243386243387,105.82010582010582 153.86243386243387,106.45502645502647 154.07407407407408,107.0899470899471 154.07407407407408,107.72486772486774 154.2857142857143,108.35978835978837 154.2857142857143,108.994708994709 154.4973544973545,109.62962962962963 154.7089947089947,110.26455026455027 154.92063492063494,110.89947089947091 155.13227513227514,111.53439153439155 155.34391534391534,112.16931216931218 155.76719576719577,112.80423280423281 155.978835978836,113.43915343915344 156.4021164021164,114.07407407407408 156.82539682539684,114.49735449735451 157.24867724867727,115.13227513227514 157.67195767195767,115.55555555555557 158.0952380952381,115.97883597883599 158.51851851851853,116.4021164021164 158.94179894179896,116.82539682539684 159.5767195767196,117.24867724867725 160.21164021164023,117.67195767195768 160.84656084656086,117.88359788359789 161.2698412698413,118.30687830687832 161.90476190476193,118.73015873015873 162.53968253968256,119.15343915343917 163.1746031746032,119.57671957671958 163.80952380952382,120.00000000000001 164.44444444444446,120.21164021164022 165.0793650793651,120.63492063492065 165.71428571428572,121.05820105820106 166.34920634920636,121.26984126984128 166.984126984127,121.6931216931217 167.61904761904762,121.90476190476191 168.04232804232805,122.32804232804234 168.67724867724868,122.32804232804234 169.31216931216932,122.75132275132276 169.94708994708995,122.96296296296298 170.58201058201058,123.17460317460318 171.21693121693124,123.3862433862434 171.85185185185188,123.59788359788361 172.4867724867725,123.80952380952382 173.12169312169314,124.02116402116403 173.75661375661377,124.23280423280424 174.3915343915344,124.44444444444446 175.02645502645504,124.65608465608466 175.66137566137567,124.86772486772487 176.2962962962963,124.86772486772487 176.93121693121694,124.86772486772487 177.56613756613757,124.86772486772487 178.2010582010582,125.07936507936509 178.83597883597884,125.07936507936509 179.4708994708995,125.07936507936509 180.10582010582013,125.07936507936509 180.74074074074076,125.2910052910053 181.3756613756614,125.07936507936509 182.01058201058203,125.07936507936509 182.64550264550266,125.07936507936509 183.2804232804233,125.07936507936509 183.91534391534393,125.07936507936509 184.55026455026456,125.07936507936509 184.973544973545,125.5026455026455 185.60846560846562,125.5026455026455 186.24338624338625,125.71428571428572 186.8783068783069,126.13756613756615 187.51322751322752,126.34920634920636 188.14814814814815,126.77248677248679 188.78306878306879,127.1957671957672 189.41798941798945,127.61904761904763 189.84126984126985,128.04232804232805 190.26455026455028,128.46560846560848 190.6878306878307,128.88888888888889 191.11111111111111,129.31216931216932 191.53439153439155,129.94708994708995 191.95767195767198,130.58201058201058 192.16931216931218,131.21693121693121 192.5925925925926,131.85185185185185 192.8042328042328,132.4867724867725 193.01587301587304,133.12169312169314 193.01587301587304,133.75661375661377 193.22751322751324,134.3915343915344 193.22751322751324,135.02645502645504 193.43915343915344,135.66137566137567 193.43915343915344,136.2962962962963 193.22751322751324,136.93121693121694 193.22751322751324,137.56613756613757 193.01587301587304,138.2010582010582 193.01587301587304,138.83597883597884 193.01587301587304,139.47089947089947 192.8042328042328,140.10582010582013 192.5925925925926,140.74074074074076 192.16931216931218,141.3756613756614 191.95767195767198,142.01058201058203 191.74603174603175,142.64550264550266 191.32275132275134,143.2804232804233 191.11111111111111,143.91534391534393 190.6878306878307,144.55026455026456 190.47619047619048,145.1851851851852 190.05291005291008,145.82010582010582 189.62962962962965,146.45502645502646 189.41798941798945,147.0899470899471 188.99470899470901,147.72486772486775 188.57142857142858,148.35978835978838 188.35978835978838,148.99470899470901 187.93650793650795,149.41798941798942 187.72486772486775,150.05291005291005 187.30158730158732,150.47619047619048 186.8783068783069,151.11111111111111 186.45502645502646,151.74603174603175 186.24338624338625,152.38095238095238 185.82010582010582,152.8042328042328 185.39682539682542,153.43915343915344 184.973544973545,153.86243386243387 184.55026455026456,154.4973544973545 184.12698412698415,155.13227513227514 183.70370370370372,155.55555555555557 183.2804232804233,155.978835978836 182.85714285714286,156.61375661375664 182.43386243386246,157.03703703703704 182.01058201058203,157.46031746031747 181.5873015873016,157.8835978835979 181.16402116402116,158.30687830687833 180.74074074074076,158.73015873015873 180.31746031746033,159.36507936507937 179.8941798941799,159.7883597883598 179.4708994708995,160.21164021164023 178.83597883597884,160.63492063492066 178.41269841269843,161.05820105820106 177.989417989418,161.4814814814815 177.56613756613757,161.90476190476193 176.93121693121694,162.32804232804233 176.50793650793653,162.96296296296296 176.0846560846561,163.3862433862434 175.66137566137567,163.80952380952382 175.02645502645504,164.02116402116403 174.6031746031746,164.44444444444446 173.96825396825398,164.8677248677249 173.54497354497354,165.2910052910053 173.12169312169314,165.71428571428572 172.4867724867725,165.92592592592595 172.06349206349208,166.34920634920636 171.42857142857144,166.7724867724868 170.7936507936508,167.19576719576722 170.37037037037038,167.61904761904762 169.73544973544975,168.04232804232805 169.10052910052912,168.46560846560848 168.46560846560848,168.8888888888889 167.83068783068785,169.31216931216932 167.19576719576722,169.73544973544975 166.56084656084658,170.15873015873018 165.92592592592595,170.37037037037038 165.50264550264552,170.7936507936508 165.0793650793651,171.21693121693124 164.44444444444446,171.42857142857144 164.02116402116403,171.85185185185188 163.3862433862434,172.06349206349208 162.96296296296296,172.4867724867725 162.32804232804233,172.6984126984127 161.90476190476193,173.12169312169314 161.2698412698413,173.33333333333334 158.51851851851853,175.02645502645504" style="fill:none; stroke:#999900; stroke-width:1.0"  /><polyline points="158.51851851851853,175.02645502645504 155.13227513227514,172.6984126984127 154.4973544973545,172.27513227513228 154.07407407407408,171.85185185185188 153.65079365079367,171.42857142857144 153.01587301587304,171.005291005291 152.38095238095238,170.58201058201058 151.95767195767198,170.15873015873018 151.32275132275134,169.73544973544975 150.6878306878307,169.31216931216932 150.05291005291005,168.8888888888889 149.41798941798942,168.46560846560848 148.99470899470901,168.04232804232805 148.35978835978838,167.83068783068785 147.93650793650795,167.40740740740742 147.30158730158732,167.19576719576722 146.8783068783069,166.7724867724868 146.24338624338625,166.56084656084658 145.60846560846562,166.13756613756615 144.973544973545,165.92592592592595 144.33862433862436,165.50264550264552 143.70370370370372,165.2910052910053 143.0687830687831,164.8677248677249 142.43386243386246,164.65608465608466 141.7989417989418,164.44444444444446 141.16402116402116,164.44444444444446 140.52910052910053,164.02116402116403 139.8941798941799,163.80952380952382 139.25925925925927,163.59788359788362 138.62433862433863,163.3862433862434 137.989417989418,163.1746031746032 137.35449735449737,162.96296296296296 136.71957671957674,162.75132275132276 136.0846560846561,162.53968253968256 135.44973544973547,162.32804232804233 134.81481481481484,162.32804232804233 134.17989417989418,162.11640211640213 133.54497354497354,161.90476190476193 132.9100529100529,161.6931216931217 132.27513227513228,161.6931216931217 131.64021164021165,161.4814814814815 131.005291005291,161.2698412698413 130.37037037037038,161.2698412698413 129.73544973544975,161.05820105820106 129.10052910052912,161.05820105820106 128.46560846560848,160.84656084656086 127.83068783068784,160.84656084656086 127.1957671957672,160.63492063492066 126.56084656084657,160.42328042328043 125.92592592592594,160.42328042328043 125.2910052910053,160.21164021164023 124.65608465608466,160.21164021164023 124.02116402116403,160.21164021164023 123.3862433862434,160.0 122.75132275132276,160.0 122.11640211640213,159.7883597883598 121.4814814814815,159.7883597883598 120.84656084656086,159.5767195767196 120.21164021164022,159.5767195767196 119.57671957671958,159.36507936507937 118.94179894179895,159.15343915343917 118.30687830687832,159.15343915343917 117.67195767195768,158.94179894179896 117.03703703703705,158.73015873015873 116.4021164021164,158.51851851851853 115.76719576719577,158.30687830687833 115.34391534391536,157.8835978835979 114.70899470899472,157.46031746031747 114.28571428571429,157.03703703703704 113.86243386243387,156.4021164021164 113.65079365079366,155.76719576719577 113.43915343915344,155.13227513227514 113.22751322751324,154.4973544973545 113.22751322751324,153.86243386243387 113.22751322751324,153.22751322751324 113.22751322751324,152.5925925925926 113.43915343915344,151.95767195767198 113.65079365079366,151.32275132275134 113.86243386243387,150.6878306878307 114.07407407407408,150.05291005291005 114.49735449735451,149.41798941798942 114.92063492063492,148.78306878306879 115.34391534391536,148.14814814814815 115.76719576719577,147.51322751322752 116.1904761904762,147.0899470899471 116.61375661375662,146.45502645502646 117.03703703703705,146.03174603174605 117.46031746031747,145.39682539682542 117.88359788359789,144.76190476190476 118.30687830687832,144.12698412698413 118.73015873015873,143.4920634920635 118.94179894179895,142.85714285714286 119.36507936507937,142.22222222222223 119.57671957671958,141.5873015873016 119.7883597883598,140.95238095238096 120.00000000000001,140.31746031746033 120.21164021164022,139.6825396825397 120.21164021164022,139.04761904761907 120.21164021164022,138.41269841269843 120.42328042328043,137.7777777777778 120.42328042328043,137.14285714285717 120.42328042328043,136.5079365079365 120.63492063492065,135.87301587301587 120.63492063492065,135.23809523809524 120.42328042328043,134.6031746031746 120.21164021164022,133.96825396825398 120.21164021164022,133.33333333333334 120.00000000000001,132.6984126984127 119.7883597883598,132.06349206349208 119.57671957671958,131.42857142857144 119.15343915343917,130.7936507936508 118.73015873015873,130.37037037037038 118.30687830687832,129.73544973544975 117.88359788359789,129.31216931216932 117.46031746031747,128.88888888888889 117.03703703703705,128.46560846560848 116.61375661375662,128.04232804232805 116.1904761904762,127.61904761904763 115.55555555555557,127.1957671957672 114.92063492063492,126.77248677248679 114.28571428571429,126.34920634920636 113.65079365079366,125.92592592592594 113.01587301587303,125.71428571428572 112.3809523809524,125.5026455026455 111.95767195767196,125.07936507936509 111.32275132275133,124.86772486772487 110.6878306878307,124.44444444444446 110.05291005291006,124.23280423280424 109.41798941798943,124.02116402116403 108.78306878306879,123.80952380952382 108.14814814814815,123.59788359788361 107.51322751322752,123.3862433862434 106.87830687830689,123.17460317460318 106.24338624338625,123.17460317460318 105.60846560846562,123.17460317460318 104.97354497354497,122.96296296296298 104.33862433862434,122.75132275132276 103.70370370370371,122.75132275132276 103.06878306878308,122.53968253968254 102.43386243386244,122.53968253968254 101.79894179894181,122.32804232804234 101.16402116402116,122.32804232804234 100.52910052910053,122.32804232804234 99.8941798941799,122.11640211640213 99.25925925925927,122.11640211640213 98.62433862433863,122.11640211640213 97.989417989418,122.11640211640213 97.35449735449737,122.11640211640213 96.71957671957672,122.11640211640213 96.08465608465609,122.11640211640213 95.44973544973546,122.32804232804234 94.81481481481482,122.53968253968254 94.17989417989419,122.53968253968254 93.54497354497356,122.75132275132276 92.91005291005291,122.75132275132276 92.27513227513228,122.96296296296298 91.64021164021165,123.17460317460318 91.00529100529101,123.3862433862434 90.37037037037038,123.59788359788361 89.94708994708995,124.02116402116403 89.31216931216932,124.23280423280424 88.67724867724868,124.65608465608466 88.04232804232805,124.86772486772487 87.61904761904762,125.2910052910053 86.98412698412699,125.71428571428572 86.56084656084657,126.13756613756615 86.13756613756614,126.56084656084657 85.5026455026455,126.98412698412699 85.07936507936509,127.61904761904763 84.86772486772487,128.25396825396825 84.65608465608466,128.88888888888889 84.23280423280424,129.31216931216932 84.23280423280424,129.94708994708995 84.02116402116403,130.58201058201058 83.80952380952381,131.21693121693121 83.59788359788361,131.85185185185185 83.59788359788361,132.4867724867725 83.59788359788361,133.12169312169314 83.3862433862434,133.75661375661377 83.3862433862434,134.3915343915344 83.3862433862434,135.02645502645504 83.17460317460318,135.66137566137567 83.17460317460318,136.2962962962963 83.17460317460318,136.93121693121694 83.17460317460318,137.56613756613757 83.17460317460318,138.2010582010582 83.17460317460318,138.83597883597884 83.3862433862434,139.47089947089947 83.59788359788361,140.10582010582013 83.59788359788361,140.74074074074076 83.59788359788361,141.3756613756614 83.80952380952381,142.01058201058203 83.80952380952381,142.64550264550266 84.02116402116403,143.2804232804233 84.02116402116403,143.91534391534393 84.23280423280424,144.55026455026456 84.23280423280424,145.1851851851852 84.23280423280424,145.82010582010582 84.23280423280424,146.45502645502646 84.23280423280424,147.0899470899471 84.23280423280424,147.72486772486775 84.23280423280424,148.35978835978838 84.23280423280424,148.99470899470901 84.02116402116403,149.62962962962965 83.80952380952381,150.26455026455028 83.3862433862434,150.8994708994709 82.96296296296298,151.53439153439155 82.53968253968254,152.16931216931218 82.11640211640213,152.5925925925926 81.6931216931217,153.01587301587304 81.26984126984128,153.43915343915344 80.63492063492065,153.86243386243387 80.0,154.2857142857143 79.36507936507937,154.7089947089947 78.73015873015873,155.13227513227514 78.0952380952381,155.34391534391534 77.46031746031747,155.55555555555557 76.82539682539684,155.978835978836 76.19047619047619,156.1904761904762 75.55555555555556,156.4021164021164 74.92063492063492,156.61375661375664 74.28571428571429,156.82539682539684 73.65079365079366,156.82539682539684 73.01587301587303,157.03703703703704 72.38095238095238,157.03703703703704 71.74603174603175,157.24867724867727 71.11111111111111,157.46031746031747 70.47619047619048,157.46031746031747 69.84126984126985,157.46031746031747 69.20634920634922,157.46031746031747 68.57142857142858,157.67195767195767 67.93650793650794,157.67195767195767 67.3015873015873,157.67195767195767 66.66666666666667,157.67195767195767 66.03174603174604,157.67195767195767 65.3968253968254,157.67195767195767 64.76190476190477,157.67195767195767 64.12698412698413,157.67195767195767 63.492063492063494,157.67195767195767 62.85714285714286,157.67195767195767 62.22222222222223,157.67195767195767 61.58730158730159,157.67195767195767 60.952380952380956,157.67195767195767 60.31746031746032,157.46031746031747 59.682539682539684,157.46031746031747 59.04761904761905,157.46031746031747 58.41269841269842,157.46031746031747 57.777777777777786,157.24867724867727 57.142857142857146,157.24867724867727 56.50793650793651,157.03703703703704 55.87301587301588,157.03703703703704 55.23809523809524,156.82539682539684 54.60317460317461,156.82539682539684 53.968253968253975,156.61375661375664 53.333333333333336,156.61375661375664 52.6984126984127,156.4021164021164 52.06349206349207,156.4021164021164 51.42857142857143,156.1904761904762 50.7936507936508,155.978835978836 50.158730158730165,155.76719576719577 49.523809523809526,155.76719576719577 48.88888888888889,155.55555555555557 48.25396825396826,155.55555555555557 47.61904761904762,155.34391534391534 46.98412698412699,155.13227513227514 46.349206349206355,154.92063492063494 45.714285714285715,154.7089947089947 45.07936507936508,154.4973544973545 44.44444444444445,154.4973544973545 43.80952380952381,154.07407407407408 43.17460317460318,154.07407407407408 42.539682539682545,153.86243386243387 41.904761904761905,153.65079365079367 41.26984126984127,153.43915343915344 40.63492063492064,153.22751322751324 40.0,153.01587301587304 39.36507936507937,152.8042328042328 38.730158730158735,152.5925925925926 38.095238095238095,152.38095238095238 37.46031746031746,152.16931216931218 36.82539682539683,151.95767195767198 36.19047619047619,151.95767195767198 35.55555555555556,151.53439153439155 34.920634920634924,151.53439153439155 34.28571428571429,151.32275132275134 33.65079365079365,151.11111111111111 33.01587301587302,150.6878306878307 32.38095238095239,150.47619047619048 31.746031746031747,150.26455026455028 31.111111111111114,150.05291005291005 30.476190476190478,149.84126984126985 29.841269841269842,149.62962962962965 29.20634920634921,149.20634920634922 28.571428571428573,148.99470899470901 27.93650793650794,148.78306878306879 27.301587301587304,148.57142857142858 26.666666666666668,148.35978835978838 26.031746031746035,148.14814814814815 25.3968253968254,147.72486772486775 24.761904761904763,147.51322751322752 24.12698412698413,147.30158730158732 23.492063492063494,147.0899470899471 22.857142857142858,146.8783068783069 22.222222222222225,146.45502645502646 21.58730158730159,146.24338624338625 20.952380952380953,146.03174603174605 20.31746031746032,145.60846560846562 19.682539682539684,145.39682539682542 19.047619047619047,145.1851851851852 18.412698412698415,144.973544973545 17.77777777777778,144.55026455026456 17.142857142857146,144.33862433862436 16.50793650793651,144.12698412698413 15.873015873015873,143.70370370370372 15.238095238095239,143.4920634920635 14.603174603174605,143.2804232804233 13.96825396825397,143.0687830687831 10.15873015873016,141.5873015873016" style="fill:none; stroke:#00aa99; stroke-width:1.0"  /><polyline points="10.15873015873016,141.5873015873016 11.428571428571429,138.2010582010582 11.640211640211641,137.56613756613757 11.851851851851853,136.93121693121694 12.063492063492065,136.2962962962963 12.275132275132275,135.66137566137567 12.486772486772487,135.02645502645504 12.6984126984127,134.3915343915344 13.121693121693122,133.75661375661377 13.121693121693122,133.12169312169314 13.333333333333334,132.4867724867725 13.544973544973546,131.85185185185185 13.756613756613758,131.21693121693121 13.96825396825397,130.58201058201058 14.391534391534393,129.94708994708995 14.603174603174605,129.31216931216932 14.814814814814817,128.67724867724868 15.026455026455027,128.04232804232805 15.449735449735451,127.40740740740742 15.661375661375663,126.77248677248679 16.084656084656086,126.13756613756615 16.296296296296298,125.5026455026455 16.71957671957672,124.86772486772487 16.931216931216934,124.23280423280424 17.354497354497354,123.59788359788361 17.566137566137566,122.96296296296298 17.98941798941799,122.32804232804234 18.201058201058203,121.6931216931217 18.624338624338627,121.05820105820106 19.047619047619047,120.42328042328043 19.47089947089947,119.7883597883598 19.894179894179896,119.15343915343917 20.105820105820108,118.51851851851853 20.529100529100532,117.88359788359789 20.952380952380953,117.24867724867725 21.375661375661377,116.61375661375662 21.7989417989418,115.97883597883599 22.222222222222225,115.34391534391536 22.645502645502646,114.70899470899472 23.06878306878307,114.07407407407408 23.492063492063494,113.43915343915344 23.703703703703706,112.80423280423281 24.12698412698413,112.3809523809524 24.55026455026455,111.74603174603176 24.973544973544975,111.11111111111111 25.3968253968254,110.6878306878307 25.820105820105823,110.05291005291006 26.243386243386244,109.41798941798943 26.666666666666668,108.78306878306879 27.089947089947092,108.14814814814815 27.513227513227516,107.51322751322752 27.93650793650794,106.87830687830689 28.35978835978836,106.45502645502647 28.783068783068785,106.03174603174604 29.20634920634921,105.3968253968254 29.629629629629633,104.76190476190477 29.841269841269842,104.12698412698414 30.264550264550266,103.70370370370371 30.68783068783069,103.06878306878308 31.111111111111114,102.64550264550266 31.53439153439154,102.01058201058201 31.95767195767196,101.37566137566138 32.38095238095239,100.95238095238096 32.804232804232804,100.31746031746033 33.22751322751323,99.8941798941799 33.65079365079365,99.47089947089948 34.074074074074076,98.83597883597885 34.4973544973545,98.41269841269842 34.920634920634924,97.989417989418 35.34391534391535,97.35449735449737 35.76719576719577,96.93121693121694 36.19047619047619,96.50793650793652 36.613756613756614,96.08465608465609 36.82539682539683,95.44973544973546 37.248677248677254,95.02645502645504 37.67195767195768,94.60317460317461 38.095238095238095,94.17989417989419 38.51851851851852,93.75661375661376 38.94179894179894,93.12169312169313 39.36507936507937,92.69841269841271 39.78835978835979,92.27513227513228 40.211640211640216,91.64021164021165 40.63492063492064,91.21693121693123 41.058201058201064,90.58201058201058 41.26984126984127,89.94708994708995 41.6931216931217,89.31216931216932 41.904761904761905,88.67724867724868 42.11640211640212,88.04232804232805 42.32804232804233,87.40740740740742 42.32804232804233,86.77248677248677 42.32804232804233,86.13756613756614 42.32804232804233,85.5026455026455 42.32804232804233,84.86772486772487 42.32804232804233,84.23280423280424 42.11640211640212,83.59788359788361 41.6931216931217,82.96296296296298 41.48148148148149,82.32804232804233 41.058201058201064,81.6931216931217 40.63492063492064,81.26984126984128 40.211640211640216,80.84656084656085 39.78835978835979,80.42328042328043 39.15343915343916,80.21164021164022 38.730158730158735,79.7883597883598 38.095238095238095,79.57671957671958 37.46031746031746,79.36507936507937 36.82539682539683,79.15343915343917 36.19047619047619,79.36507936507937 35.55555555555556,79.15343915343917 34.920634920634924,79.15343915343917 34.28571428571429,79.15343915343917 33.65079365079365,79.15343915343917 33.01587301587302,79.15343915343917 32.38095238095239,79.15343915343917 31.746031746031747,79.15343915343917 31.111111111111114,79.36507936507937 30.476190476190478,79.36507936507937 29.841269841269842,79.36507936507937 29.20634920634921,79.57671957671958 28.571428571428573,79.57671957671958 27.93650793650794,79.7883597883598 27.301587301587304,79.7883597883598 26.666666666666668,80.0 26.031746031746035,80.0 25.3968253968254,80.21164021164022 24.761904761904763,80.42328042328043 24.12698412698413,80.42328042328043 23.492063492063494,80.63492063492065 22.857142857142858,80.84656084656085 22.222222222222225,81.05820105820106 21.58730158730159,81.48148148148148 20.952380952380953,81.6931216931217 20.31746031746032,81.90476190476191 19.682539682539684,82.11640211640213 19.047619047619047,82.53968253968254 18.412698412698415,82.75132275132276 17.77777777777778,82.96296296296298 17.142857142857146,82.96296296296298 16.50793650793651,83.17460317460318 15.873015873015873,83.3862433862434 15.238095238095239,83.3862433862434 14.603174603174605,83.3862433862434 13.96825396825397,83.3862433862434 13.333333333333334,83.3862433862434 12.6984126984127,83.17460317460318 12.063492063492065,83.17460317460318 11.428571428571429,82.96296296296298 10.793650793650794,82.96296296296298 10.15873015873016,82.75132275132276 9.523809523809524,82.53968253968254 8.88888888888889,82.11640211640213 8.253968253968255,81.90476190476191 7.6190476190476195,81.48148148148148 6.984126984126985,81.05820105820106 6.34920634920635,80.84656084656085 5.714285714285714,80.42328042328043 5.07936507936508,80.0 4.656084656084657,79.57671957671958 4.2328042328042335,79.15343915343917 3.8095238095238098,78.73015873015873 3.3862433862433865,78.0952380952381 2.9629629629629632,77.46031746031747 2.53968253968254,77.03703703703704 2.3280423280423284,76.4021164021164 1.9047619047619049,75.97883597883599 1.4814814814814816,75.34391534391536 1.26984126984127,74.70899470899471 1.0582010582010584,74.07407407407408 1.0582010582010584,73.43915343915344 0.8465608465608466,72.80423280423281 0.8465608465608466,72.16931216931218 0.634920634920635,71.53439153439155 0.634920634920635,70.8994708994709 0.4232804232804233,70.26455026455027 0.4232804232804233,69.62962962962963 0.21164021164021166,68.994708994709 0.21164021164021166,68.35978835978837 0.4232804232804233,67.72486772486774 0.4232804232804233,67.08994708994709 0.634920634920635,66.45502645502646 0.634920634920635,65.82010582010582 0.8465608465608466,65.18518518518519 0.8465608465608466,64.55026455026456 1.0582010582010584,63.91534391534392 1.0582010582010584,63.280423280423285 1.26984126984127,62.64550264550265 1.26984126984127,62.01058201058201 1.4814814814814816,61.37566137566138 1.4814814814814816,60.74074074074075 1.6931216931216932,60.10582010582011 1.6931216931216932,59.470899470899475 1.6931216931216932,58.83597883597884 1.9047619047619049,58.2010582010582 2.1164021164021167,57.56613756613757 2.1164021164021167,56.93121693121694 2.3280423280423284,56.2962962962963 2.3280423280423284,55.661375661375665 2.53968253968254,55.02645502645503 2.9629629629629632,54.39153439153439 3.174603174603175,53.75661375661376 3.3862433862433865,53.12169312169313 3.597883597883598,52.48677248677249 4.021164021164021,51.851851851851855 4.444444444444445,51.21693121693122 4.867724867724868,50.58201058201058 5.291005291005291,49.94708994708995 5.714285714285714,49.523809523809526 6.137566137566138,48.88888888888889 6.772486772486773,48.46560846560847 7.195767195767196,48.042328042328045 7.830687830687832,47.61904761904762 8.253968253968255,47.195767195767196 8.88888888888889,46.98412698412699 9.312169312169313,46.560846560846564 9.947089947089948,46.349206349206355 10.582010582010582,45.92592592592593 11.216931216931219,45.714285714285715 11.851851851851853,45.29100529100529 12.486772486772487,45.07936507936508 13.121693121693122,44.867724867724874 13.756613756613758,44.65608465608466 14.391534391534393,44.44444444444445 15.026455026455027,44.232804232804234 15.661375661375663,44.021164021164026 16.296296296296298,43.80952380952381 16.931216931216934,43.80952380952381 17.566137566137566,43.80952380952381 18.201058201058203,44.021164021164026 18.83597883597884,44.021164021164026 19.47089947089947,44.021164021164026 20.105820105820108,44.232804232804234 20.740740740740744,44.232804232804234 21.375661375661377,44.44444444444445 21.7989417989418,44.867724867724874 22.433862433862437,44.867724867724874 23.06878306878307,45.29100529100529 23.703703703703706,45.29100529100529 24.12698412698413,45.714285714285715 24.761904761904763,45.92592592592593 25.185185185185187,46.349206349206355 25.820105820105823,46.560846560846564 26.455026455026456,46.98412698412699 26.87830687830688,47.40740740740741 27.301587301587304,47.830687830687836 27.724867724867728,48.25396825396826 28.14814814814815,48.677248677248684 28.571428571428573,49.31216931216932 28.994708994708997,49.94708994708995 29.41798941798942,50.370370370370374 29.841269841269842,51.00529100529101 30.264550264550266,51.640211640211646 30.68783068783069,52.27513227513228 31.111111111111114,52.91005291005291 31.53439153439154,53.54497354497355 31.95767195767196,54.179894179894184 32.38095238095239,54.60317460317461 32.804232804232804,55.23809523809524 33.22751322751323,55.87301587301588 33.65079365079365,56.50793650793651 34.074074074074076,56.93121693121694 34.4973544973545,57.35449735449736 34.70899470899471,57.989417989417994 35.13227513227513,58.41269841269842 35.55555555555556,58.83597883597884 35.97883597883598,59.470899470899475 36.402116402116405,60.10582010582011 37.03703703703704,60.52910052910053 37.46031746031746,60.952380952380956 37.883597883597886,61.37566137566138 38.30687830687831,61.798941798941804 38.94179894179894,62.22222222222223 39.57671957671958,62.64550264550265 40.211640211640216,63.06878306878308 40.84656084656085,63.280423280423285 41.26984126984127,63.70370370370371 41.904761904761905,63.70370370370371 42.539682539682545,64.12698412698413 43.17460317460318,64.33862433862434 43.80952380952381,64.33862433862434 44.44444444444445,64.55026455026456 45.07936507936508,64.55026455026456 45.714285714285715,64.76190476190477 46.349206349206355,64.76190476190477 46.98412698412699,64.76190476190477 47.61904761904762,64.55026455026456 48.25396825396826,64.55026455026456 48.88888888888889,64.12698412698413 49.523809523809526,63.91534391534392 50.158730158730165,63.70370370370371 50.7936507936508,63.280423280423285 51.42857142857143,62.85714285714286 51.851851851851855,62.43386243386244 52.48677248677249,62.01058201058201 52.91005291005291,61.58730158730159 53.333333333333336,61.16402116402117 53.75661375661376,60.74074074074075 54.179894179894184,60.31746031746032 54.60317460317461,59.682539682539684 55.02645502645503,59.04761904761905 55.449735449735456,58.62433862433863 55.661375661375665,57.989417989417994 56.08465608465609,57.35449735449736 56.50793650793651,56.71957671957672 56.71957671957672,56.08465608465609 57.142857142857146,55.661375661375665 57.35449735449736,55.02645502645503 57.777777777777786,54.39153439153439 58.2010582010582,53.75661375661376 58.41269841269842,53.12169312169313 58.83597883597884,52.48677248677249 59.25925925925927,51.851851851851855 59.470899470899475,51.21693121693122 59.8941798941799,50.58201058201058 60.31746031746032,49.94708994708995 60.52910052910053,49.31216931216932 60.952380952380956,48.677248677248684 61.37566137566138,48.042328042328045 61.58730158730159,47.40740740740741 62.01058201058201,46.77248677248678 62.22222222222223,46.13756613756614 62.64550264550265,45.50264550264551 62.85714285714286,44.867724867724874 63.280423280423285,44.232804232804234 63.492063492063494,43.5978835978836 63.91534391534392,42.96296296296297 64.12698412698413,42.32804232804233 64.55026455026456,41.6931216931217 64.76190476190477,41.058201058201064 64.97354497354497,40.423280423280424 65.3968253968254,39.78835978835979 65.60846560846561,39.15343915343916 66.03174603174604,38.51851851851852 66.24338624338625,37.883597883597886 66.45502645502646,37.248677248677254 66.87830687830689,36.613756613756614 67.08994708994709,35.97883597883598 67.3015873015873,35.34391534391535 67.72486772486774,34.70899470899471 67.72486772486774,34.074074074074076 67.93650793650794,33.43915343915344 68.14814814814815,32.804232804232804 68.35978835978837,32.16931216931217 68.57142857142858,31.53439153439154 68.78306878306879,30.899470899470902 68.994708994709,30.264550264550266 69.41798941798942,29.629629629629633 69.62962962962963,28.994708994708997 69.84126984126985,28.35978835978836 70.05291005291006,27.724867724867728 70.26455026455027,27.089947089947092 70.47619047619048,26.455026455026456 70.8994708994709,25.820105820105823 70.8994708994709,25.185185185185187 71.11111111111111,24.55026455026455 71.32275132275133,23.915343915343918 71.74603174603175,23.280423280423282 71.74603174603175,22.645502645502646 72.16931216931218,22.010582010582013 72.38095238095238,21.375661375661377 72.5925925925926,20.740740740740744 72.80423280423281,20.105820105820108 72.80423280423281,19.47089947089947 73.22751322751323,18.83597883597884 73.22751322751323,18.201058201058203 73.43915343915344,17.566137566137566 73.65079365079366,16.931216931216934 73.86243386243387,16.296296296296298 74.07407407407408,15.661375661375663 74.28571428571429,15.026455026455027 74.49735449735451,14.391534391534393 74.70899470899471,13.756613756613758 74.70899470899471,13.121693121693122 74.92063492063492,12.486772486772487 75.13227513227514,11.851851851851853 75.34391534391536,11.216931216931219 75.55555555555556,10.582010582010582 75.55555555555556,9.947089947089948 75.76719576719577,9.312169312169313 75.97883597883599,8.677248677248677 76.19047619047619,8.042328042328043 76.4021164021164,7.407407407407408 76.4021164021164,6.772486772486773 76.61375661375662,6.137566137566138 76.82539682539684,5.502645502645503 76.82539682539684,4.867724867724868 77.03703703703704,4.2328042328042335 77.24867724867725,3.597883597883598 78.30687830687832,-0.4232804232804233" style="fill:none; stroke:#3300bb; stroke-width:1.0"  /><circle cx="78.30687830687832" cy="-0.4232804232804233" r="2.0" style="fill:none; stroke:#000000aa; stroke-width:0.25" /><circle cx="220.52910052910053" cy="54.39153439153439" r="2.0" style="fill:none; stroke:#000000aa; stroke-width:0.25" /><circle cx="158.51851851851853" cy="175.02645502645504" r="2.0" style="fill:none; stroke:#000000aa; stroke-width:0.25" /><circle cx="10.15873015873016" cy="141.5873015873016" r="2.0" style="fill:none; stroke:#000000aa; stroke-width:0.25" /><circle cx="78.30687830687832" cy="0.21164021164021166" r="2.0" style="fill:none; stroke:#ff3366aa; stroke-width:0.25" /><circle cx="220.10582010582013" cy="55.23809523809524" r="2.0" style="fill:none; stroke:#ff3366aa; stroke-width:0.25" /><circle cx="157.8835978835979" cy="174.6031746031746" r="2.0" style="fill:none; stroke:#ff3366aa; stroke-width:0.25" /><circle cx="10.793650793650794" cy="141.3756613756614" r="2.0" style="fill:none; stroke:#ff3366aa; stroke-width:0.25" /><polyline points="88.8888888888889,4.867724867724868 88.25396825396827,4.444444444444445 87.61904761904762,4.2328042328042335 86.98412698412699,4.021164021164021 86.56084656084657,3.597883597883598 85.92592592592594,3.3862433862433865 85.29100529100529,3.174603174603175 84.65608465608466,2.7513227513227516 84.02116402116403,2.53968253968254 83.3862433862434,2.1164021164021167 82.75132275132276,1.9047619047619049 82.11640211640213,1.6931216931216932 81.48148148148148,1.26984126984127" style="fill:none; stroke:#001100; stroke-width:1.0" /><polyline points="75.34391534391536,11.216931216931219 75.55555555555556,10.582010582010582 75.55555555555556,9.947089947089948 75.76719576719577,9.312169312169313 75.97883597883599,8.677248677248677 76.19047619047619,8.042328042328043 76.4021164021164,7.407407407407408 76.4021164021164,6.772486772486773 76.61375661375662,6.137566137566138 76.82539682539684,5.502645502645503 76.82539682539684,4.867724867724868 77.03703703703704,4.2328042328042335 77.24867724867725,3.597883597883598" style="fill:none; stroke:#000011; stroke-width:1.0" /><polyline points="218.62433862433863,66.66666666666667 218.62433862433863,66.03174603174604 218.83597883597886,65.3968253968254 218.83597883597886,64.76190476190477 219.04761904761907,64.12698412698413 219.04761904761907,63.492063492063494 219.04761904761907,62.85714285714286 219.25925925925927,62.22222222222223 219.4708994708995,61.58730158730159 219.4708994708995,60.952380952380956 219.4708994708995,60.31746031746032 219.6825396825397,59.682539682539684 219.6825396825397,59.04761904761905 219.8941798941799,58.41269841269842" style="fill:none; stroke:#001100; stroke-width:1.0" /><polyline points="208.46560846560848,52.6984126984127 209.10052910052912,52.91005291005291 209.73544973544975,53.12169312169313 210.37037037037038,53.12169312169313 211.005291005291,53.12169312169313 211.64021164021165,53.12169312169313 212.27513227513228,53.333333333333336 212.91005291005294,53.333333333333336 213.54497354497357,53.54497354497355 214.1798941798942,53.54497354497355 214.81481481481484,53.54497354497355 215.44973544973547,53.54497354497355 216.0846560846561,53.54497354497355 216.71957671957674,53.75661375661376 217.35449735449737,53.968253968253975" style="fill:none; stroke:#000011; stroke-width:1.0" /><polyline points="148.35978835978838,167.83068783068785 148.99470899470901,168.04232804232805 149.41798941798942,168.46560846560848 150.05291005291005,168.8888888888889 150.6878306878307,169.31216931216932 151.32275132275134,169.73544973544975 151.95767195767198,170.15873015873018 152.38095238095238,170.58201058201058 153.01587301587304,171.005291005291 153.65079365079367,171.42857142857144 154.07407407407408,171.85185185185188 154.4973544973545,172.27513227513228 155.13227513227514,172.6984126984127" style="fill:none; stroke:#001100; stroke-width:1.0" /><polyline points="168.46560846560848,168.8888888888889 167.83068783068785,169.31216931216932 167.19576719576722,169.73544973544975 166.56084656084658,170.15873015873018 165.92592592592595,170.37037037037038 165.50264550264552,170.7936507936508 165.0793650793651,171.21693121693124 164.44444444444446,171.42857142857144 164.02116402116403,171.85185185185188 163.3862433862434,172.06349206349208 162.96296296296296,172.4867724867725 162.32804232804233,172.6984126984127 161.90476190476193,173.12169312169314 161.2698412698413,173.33333333333334" style="fill:none; stroke:#000011; stroke-width:1.0" /><polyline points="14.391534391534393,129.94708994708995 13.96825396825397,130.58201058201058 13.756613756613758,131.21693121693121 13.544973544973546,131.85185185185185 13.333333333333334,132.4867724867725 13.121693121693122,133.12169312169314 13.121693121693122,133.75661375661377 12.6984126984127,134.3915343915344 12.486772486772487,135.02645502645504 12.275132275132275,135.66137566137567 12.063492063492065,136.2962962962963 11.851851851851853,136.93121693121694 11.640211640211641,137.56613756613757 11.428571428571429,138.2010582010582" style="fill:none; stroke:#001100; stroke-width:1.0" /><polyline points="21.58730158730159,146.24338624338625 20.952380952380953,146.03174603174605 20.31746031746032,145.60846560846562 19.682539682539684,145.39682539682542 19.047619047619047,145.1851851851852 18.412698412698415,144.973544973545 17.77777777777778,144.55026455026456 17.142857142857146,144.33862433862436 16.50793650793651,144.12698412698413 15.873015873015873,143.70370370370372 15.238095238095239,143.4920634920635 14.603174603174605,143.2804232804233 13.96825396825397,143.0687830687831" style="fill:none; stroke:#000011; stroke-width:1.0" /><polyline points="81.48148148148148,1.26984126984127 62.43386243386244,-8.042328042328043" style="fill:none; stroke:#ffaa00; stroke-width:0.4" /><polyline points="77.24867724867725,3.597883597883598 82.32804232804233,-16.931216931216934" style="fill:none; stroke:#aaff00; stroke-width:0.4" /><polyline points="219.8941798941799,58.41269841269842 223.0687830687831,37.46031746031746" style="fill:none; stroke:#ffaa00; stroke-width:0.4" /><polyline points="217.35449735449737,53.968253968253975 238.30687830687833,56.93121693121694" style="fill:none; stroke:#aaff00; stroke-width:0.4" /><polyline points="155.13227513227514,172.6984126984127 172.27513227513228,184.973544973545" style="fill:none; stroke:#ffaa00; stroke-width:0.4" /><polyline points="161.2698412698413,173.33333333333334 143.2804232804233,184.55026455026456" style="fill:none; stroke:#aaff00; stroke-width:0.4" /><polyline points="11.428571428571429,138.2010582010582 4.2328042328042335,158.0952380952381" style="fill:none; stroke:#ffaa00; stroke-width:0.4" /><polyline points="13.96825396825397,143.0687830687831 -5.502645502645503,135.02645502645504" style="fill:none; stroke:#aaff00; stroke-width:0.4" /><circle cx="108.994708994709" cy="88.04232804232805" r="1.0" style="fill:#444444; stroke-width:0" /><circle cx="108.14814814814815" cy="70.26455026455027" r="10.582010582010582" style="fill:#ff770022; stroke-width:0" /><circle cx="108.14814814814815" cy="70.26455026455027" r="1.0" style="fill:#ff7700; stroke-width:0" /></svg>