<?xml version="1.0" encoding="UTF-8" standalone="no"?><svg width="591.1111111111112" height="471.7460317460318" viewBox="-10 -10 217.03703703703704 177.24867724867727" xmlns="http://www.w3.org/2000/svg" xmlns:xlink="http://www.w3.org/1999/xlink"><polyline points="13.121693121693122,8.677248677248677 16.50793650793651,9.947089947089948 17.142857142857146,10.15873015873016 17.77777777777778,10.370370370370372 18.412698412698415,10.582010582010582 19.047619047619047,10.793650793650794 19.682539682539684,11.216931216931219 20.31746031746032,11.428571428571429 20.952380952380953,11.640211640211641 21.58730158730159,11.851851851851853 22.222222222222225,12.063492063492065 22.857142857142858,12.275132275132275 23.492063492063494,12.486772486772487 24.12698412698413,12.6984126984127 24.761904761904763,12.910052910052912 25.3968253968254,13.121693121693122 26.031746031746035,13.544973544973546 26.666666666666668,13.756613756613758 27.301587301587304,13.96825396825397 27.93650793650794,14.17989417989418 28.571428571428573,14.603174603174605 29.20634920634921,14.814814814814817 29.841269841269842,15.026455026455027 30.476190476190478,15.238095238095239 31.111111111111114,15.449735449735451 31.746031746031747,15.873015873015873 32.38095238095239,16.084656084656086 33.01587301587302,16.296296296296298 33.65079365079365,16.71957671957672 34.28571428571429,16.931216931216934 34.920634920634924,17.142857142857146 35.34391534391535,17.566137566137566 35.97883597883598,17.77777777777778 36.613756613756614,18.201058201058203 37.248677248677254,18.412698412698415 37.883597883597886,18.83597883597884 38.51851851851852,19.047619047619047 39.15343915343916,19.25925925925926 39.57671957671958,19.682539682539684 40.211640211640216,19.894179894179896 40.84656084656085,20.31746031746032 41.48148148148149,20.740740740740744 42.11640211640212,20.952380952380953 42.75132275132275,21.375661375661377 43.386243386243386,21.58730158730159 43.80952380952381,22.010582010582013 44.44444444444445,22.222222222222225 45.07936507936508,22.645502645502646 45.714285714285715,22.857142857142858 46.13756613756614,23.280423280423282 46.77248677248678,23.492063492063494 47.40740740740741,23.703703703703706 48.042328042328045,24.12698412698413 48.677248677248684,24.338624338624342 49.31216931216932,24.761904761904763 49.94708994708995,25.185185185185187 50.58201058201058,25.60846560846561 51.21693121693122,26.031746031746035 51.851851851851855,26.455026455026456 52.48677248677249,26.666666666666668 53.12169312169313,27.089947089947092 53.75661375661376,27.513227513227516 54.39153439153439,27.724867724867728 54.81481481481482,28.14814814814815 55.449735449735456,28.35978835978836 56.08465608465609,28.783068783068785 56.71957671957672,29.20634920634921 57.35449735449736,29.41798941798942 57.989417989417994,29.841269841269842 58.62433862433863,30.052910052910054 59.25925925925927,30.476190476190478 59.8941798941799,30.68783068783069 60.52910052910053,31.111111111111114 61.16402116402117,31.322751322751326 61.798941798941804,31.746031746031747 62.43386243386244,31.746031746031747 63.06878306878308,31.95767195767196 63.70370370370371,32.38095238095239 64.33862433862434,32.38095238095239 64.76190476190477,32.804232804232804 65.3968253968254,33.01587301587302 66.03174603174604,33.22751322751323 66.66666666666667,33.43915343915344 67.3015873015873,33.65079365079365 67.93650793650794,33.65079365079365 68.57142857142858,33.86243386243387 69.20634920634922,34.074074074074076 69.84126984126985,34.074074074074076 70.47619047619048,34.28571428571429 71.11111111111111,34.28571428571429 71.74603174603175,34.28571428571429 72.38095238095238,34.074074074074076 73.01587301587303,34.074074074074076 73.65079365079366,33.86243386243387 74.28571428571429,33.43915343915344 74.92063492063492,33.01587301587302 75.55555555555556,32.592592592592595 75.97883597883599,31.95767195767196 76.4021164021164,31.53439153439154 76.61375661375662,30.899470899470902 77.03703703703704,30.264550264550266 77.24867724867725,29.629629629629633 77.24867724867725,28.994708994708997 77.46031746031747,28.35978835978836 77.46031746031747,27.724867724867728 77.46031746031747,27.089947089947092 77.46031746031747,26.455026455026456 77.46031746031747,25.820105820105823 77.24867724867725,25.185185185185187 77.03703703703704,24.55026455026455 76.82539682539684,23.915343915343918 76.82539682539684,23.280423280423282 76.4021164021164,22.645502645502646 76.19047619047619,22.010582010582013 75.76719576719577,21.375661375661377 75.55555555555556,20.740740740740744 75.13227513227514,20.31746031746032 74.92063492063492,19.682539682539684 74.49735449735451,19.047619047619047 74.28571428571429,18.412698412698415 73.86243386243387,17.77777777777778 73.65079365079366,17.142857142857146 73.22751322751323,16.71957671957672 73.01587301587303,16.084656084656086 73.01587301587303,15.449735449735451 72.5925925925926,15.026455026455027 72.38095238095238,14.391534391534393 72.16931216931218,13.756613756613758 71.74603174603175,13.121693121693122 71.95767195767196,12.486772486772487 71.74603174603175,11.851851851851853 71.74603174603175,11.216931216931219 71.53439153439155,10.582010582010582 71.53439153439155,9.947089947089948 71.53439153439155,9.312169312169313 71.53439153439155,8.677248677248677 71.53439153439155,8.042328042328043 71.53439153439155,7.407407407407408 71.53439153439155,6.772486772486773 71.74603174603175,6.137566137566138 71.95767195767196,5.502645502645503 72.16931216931218,4.867724867724868 72.5925925925926,4.2328042328042335 73.01587301587303,3.597883597883598 73.43915343915344,3.174603174603175 74.07407407407408,2.7513227513227516 74.70899470899471,2.3280423280423284 75.34391534391536,2.1164021164021167 75.76719576719577,1.4814814814814816 76.4021164021164,1.26984126984127 77.03703703703704,1.26984126984127 77.67195767195767,1.0582010582010584 78.30687830687832,0.8465608465608466 78.94179894179895,0.8465608465608466 79.57671957671958,0.8465608465608466 80.21164021164022,0.8465608465608466 80.84656084656085,0.8465608465608466 81.48148148148148,0.634920634920635 82.11640211640213,0.4232804232804233 82.75132275132276,0.4232804232804233 83.3862433862434,0.4232804232804233 84.02116402116403,0.21164021164021166 84.65608465608466,0.4232804232804233 85.29100529100529,0.4232804232804233 85.92592592592594,0.4232804232804233 86.56084656084657,0.21164021164021166 87.1957671957672,0.21164021164021166 87.83068783068784,0.4232804232804233 88.46560846560847,0.4232804232804233 89.1005291005291,0.21164021164021166 89.73544973544975,0.21164021164021166 90.37037037037038,0.21164021164021166 91.00529100529101,0.21164021164021166 91.64021164021165,0.4232804232804233 92.27513227513228,0.4232804232804233 92.91005291005291,0.4232804232804233 93.54497354497356,0.634920634920635 94.17989417989419,0.634920634920635 94.81481481481482,0.8465608465608466 95.44973544973546,0.8465608465608466 96.08465608465609,0.8465608465608466 96.71957671957672,1.0582010582010584 97.35449735449737,1.4814814814814816 97.989417989418,1.6931216931216932 98.62433862433863,1.6931216931216932 99.25925925925927,1.9047619047619049 99.8941798941799,2.1164021164021167 100.52910052910053,2.1164021164021167 101.16402116402116,2.3280423280423284 101.79894179894181,2.53968253968254 102.43386243386244,2.53968253968254 103.06878306878308,2.9629629629629632 103.70370370370371,3.174603174603175 104.33862433862434,3.3862433862433865 104.97354497354497,3.8095238095238098 105.60846560846562,3.8095238095238098 106.03174603174604,4.2328042328042335 106.66666666666667,4.444444444444445 107.3015873015873,4.867724867724868 107.93650793650795,5.07936507936508 108.57142857142858,5.291005291005291 109.20634920634922,5.714285714285714 109.62962962962963,6.137566137566138 110.26455026455027,6.34920634920635 110.6878306878307,6.772486772486773 111.11111111111111,7.195767195767196 111.53439153439155,7.6190476190476195 112.16931216931218,8.042328042328043 112.5925925925926,8.677248677248677 113.01587301587303,9.312169312169313 113.43915343915344,9.947089947089948 113.65079365079366,10.582010582010582 113.86243386243387,11.216931216931219 114.07407407407408,11.851851851851853 114.07407407407408,12.486772486772487 114.07407407407408,13.121693121693122 114.07407407407408,13.756613756613758 113.86243386243387,14.391534391534393 113.43915343915344,14.814814814814817 113.43915343915344,15.449735449735451 113.65079365079366,16.084656084656086 113.22751322751324,16.71957671957672 113.01587301587303,17.354497354497354 112.80423280423281,17.98941798941799 112.3809523809524,18.624338624338627 111.95767195767196,19.047619047619047 111.53439153439155,19.682539682539684 111.11111111111111,20.31746031746032 110.6878306878307,20.740740740740744 110.26455026455027,21.375661375661377 109.84126984126985,21.7989417989418 109.41798941798943,22.433862433862437 108.994708994709,22.857142857142858 108.57142857142858,23.492063492063494 108.14814814814815,23.915343915343918 107.72486772486774,24.338624338624342 107.3015873015873,24.973544973544975 106.87830687830689,25.3968253968254 106.45502645502647,26.031746031746035 106.03174603174604,26.455026455026456 105.60846560846562,27.089947089947092 105.18518518518519,27.724867724867728 104.76190476190477,28.35978835978836 104.55026455026456,28.994708994708997 104.33862433862434,29.629629629629633 103.91534391534393,30.264550264550266 103.91534391534393,30.899470899470902 103.91534391534393,31.53439153439154 103.91534391534393,32.16931216931217 103.91534391534393,32.804232804232804 104.12698412698414,33.43915343915344 104.33862433862434,34.074074074074076 104.55026455026456,34.70899470899471 104.97354497354497,35.13227513227513 105.3968253968254,35.76719576719577 105.82010582010582,36.402116402116405 106.45502645502647,36.82539682539683 106.87830687830689,37.248677248677254 107.51322751322752,37.67195767195768 108.14814814814815,38.095238095238095 108.78306878306879,38.30687830687831 109.41798941798943,38.51851851851852 110.05291005291006,38.51851851851852 110.6878306878307,38.730158730158735 111.32275132275133,38.94179894179894 111.95767195767196,38.94179894179894 112.5925925925926,38.94179894179894 113.22751322751324,39.36507936507937 113.86243386243387,39.15343915343916 114.49735449735451,39.36507936507937 115.13227513227514,39.36507936507937 115.76719576719577,39.36507936507937 116.4021164021164,39.57671957671958 117.03703703703705,39.36507936507937 117.67195767195768,39.57671957671958 118.30687830687832,39.57671957671958 118.94179894179895,39.57671957671958 119.57671957671958,39.78835978835979 120.21164021164022,40.0 120.84656084656086,39.78835978835979 121.4814814814815,40.0 122.11640211640213,40.0 122.75132275132276,40.211640211640216 123.3862433862434,40.211640211640216 124.02116402116403,40.423280423280424 124.65608465608466,40.423280423280424 125.2910052910053,40.423280423280424 125.92592592592594,40.63492063492064 126.56084656084657,40.63492063492064 127.1957671957672,40.63492063492064 127.83068783068784,40.63492063492064 128.46560846560848,40.84656084656085 129.10052910052912,40.84656084656085 129.73544973544975,40.84656084656085 130.37037037037038,41.058201058201064 131.005291005291,41.058201058201064 131.64021164021165,41.26984126984127 132.27513227513228,41.26984126984127 132.9100529100529,41.26984126984127 133.54497354497354,41.48148148148149 134.17989417989418,41.48148148148149 134.81481481481484,41.48148148148149 135.44973544973547,41.6931216931217 136.0846560846561,41.6931216931217 136.71957671957674,41.6931216931217 137.35449735449737,41.6931216931217 137.989417989418,41.904761904761905 138.62433862433863,41.904761904761905 139.25925925925927,41.904761904761905 139.8941798941799,42.11640211640212 140.52910052910053,42.11640211640212 141.16402116402116,42.11640211640212 141.7989417989418,42.32804232804233 142.43386243386246,42.32804232804233 143.0687830687831,42.32804232804233 143.70370370370372,42.32804232804233 144.33862433862436,42.32804232804233 144.973544973545,42.32804232804233 145.60846560846562,42.539682539682545 146.24338624338625,42.539682539682545 146.8783068783069,42.539682539682545 147.51322751322752,42.539682539682545 148.14814814814815,42.539682539682545 148.78306878306879,42.539682539682545 149.41798941798942,42.75132275132275 150.05291005291005,42.75132275132275 150.6878306878307,42.75132275132275 151.32275132275134,42.75132275132275 151.95767195767198,42.539682539682545 152.5925925925926,42.539682539682545 153.22751322751324,42.75132275132275 153.86243386243387,42.75132275132275 154.4973544973545,42.75132275132275 155.13227513227514,42.75132275132275 155.76719576719577,42.75132275132275 156.4021164021164,42.75132275132275 157.03703703703704,42.75132275132275 157.67195767195767,42.75132275132275 158.30687830687833,42.96296296296297 158.94179894179896,42.75132275132275 159.5767195767196,42.75132275132275 160.21164021164023,42.75132275132275 160.84656084656086,42.75132275132275 161.4814814814815,42.96296296296297 162.11640211640213,42.96296296296297 162.75132275132276,42.96296296296297 163.3862433862434,42.96296296296297 164.02116402116403,42.75132275132275 164.65608465608466,42.75132275132275 165.2910052910053,42.75132275132275 165.92592592592595,42.75132275132275 166.56084656084658,42.75132275132275 167.19576719576722,42.75132275132275 167.83068783068785,42.75132275132275 168.46560846560848,42.75132275132275 169.10052910052912,42.75132275132275 169.73544973544975,42.75132275132275 172.9100529100529,42.75132275132275" style="fill:none; stroke:#cc0000; stroke-width:1.0"  /><polyline points="172.9100529100529,42.75132275132275 172.4867724867725,45.92592592592593 172.4867724867725,46.560846560846564 172.27513227513228,47.195767195767196 172.27513227513228,47.830687830687836 172.27513227513228,48.46560846560847 172.06349206349208,49.1005291005291 171.85185185185188,49.73544973544974 172.06349206349208,50.370370370370374 172.06349206349208,51.00529100529101 171.85185185185188,51.640211640211646 171.85185185185188,52.27513227513228 171.85185185185188,52.91005291005291 171.64021164021165,53.54497354497355 171.64021164021165,54.179894179894184 171.42857142857144,54.81481481481482 171.42857142857144,55.449735449735456 171.21693121693124,56.08465608465609 171.21693121693124,56.71957671957672 171.21693121693124,57.35449735449736 171.005291005291,57.989417989417994 170.7936507936508,58.62433862433863 170.58201058201058,59.25925925925927 170.58201058201058,59.8941798941799 170.58201058201058,60.52910052910053 170.37037037037038,61.16402116402117 170.15873015873018,61.798941798941804 170.15873015873018,62.43386243386244 169.94708994708995,63.06878306878308 169.94708994708995,63.70370370370371 169.73544973544975,64.33862433862434 169.73544973544975,64.97354497354497 169.52380952380955,65.60846560846561 169.52380952380955,66.24338624338625 169.31216931216932,66.87830687830689 169.31216931216932,67.51322751322752 169.31216931216932,68.14814814814815 169.10052910052912,68.78306878306879 169.10052910052912,69.41798941798942 168.8888888888889,70.05291005291006 168.8888888888889,70.6878306878307 168.8888888888889,71.32275132275133 168.8888888888889,71.95767195767196 168.67724867724868,72.5925925925926 168.67724867724868,73.22751322751323 168.46560846560848,73.86243386243387 168.46560846560848,74.49735449735451 168.25396825396825,75.13227513227514 168.46560846560848,75.76719576719577 168.67724867724868,76.4021164021164 168.67724867724868,77.03703703703704 168.8888888888889,77.67195767195767 169.10052910052912,78.30687830687832 169.52380952380955,78.94179894179895 169.94708994708995,79.57671957671958 170.37037037037038,80.21164021164022 171.005291005291,80.63492063492065 171.64021164021165,81.05820105820106 172.27513227513228,81.05820105820106 172.9100529100529,81.48148148148148 173.54497354497354,81.48148148148148 174.1798941798942,81.48148148148148 174.81481481481484,81.6931216931217 175.44973544973547,81.6931216931217 176.0846560846561,81.6931216931217 176.71957671957674,81.6931216931217 177.35449735449737,81.6931216931217 177.989417989418,81.6931216931217 178.62433862433863,81.48148148148148 179.25925925925927,81.48148148148148 179.8941798941799,81.48148148148148 180.52910052910053,81.48148148148148 181.16402116402116,81.26984126984128 181.79894179894183,81.26984126984128 182.43386243386246,81.26984126984128 183.0687830687831,81.48148148148148 183.70370370370372,81.48148148148148 184.12698412698415,81.05820105820106 184.7619047619048,80.84656084656085 185.39682539682542,80.84656084656085 186.03174603174605,81.05820105820106 186.66666666666669,81.26984126984128 187.30158730158732,81.26984126984128 187.93650793650795,81.48148148148148 188.57142857142858,81.6931216931217 189.20634920634922,81.6931216931217 189.84126984126985,81.90476190476191 190.47619047619048,82.11640211640213 191.11111111111111,82.32804232804233 191.74603174603175,82.53968253968254 192.3809523809524,82.96296296296298 193.01587301587304,83.17460317460318 193.65079365079367,83.59788359788361 194.07407407407408,84.02116402116403 194.4973544973545,84.44444444444446 194.92063492063494,84.86772486772487 195.55555555555557,85.29100529100529 195.978835978836,85.92592592592594 196.1904761904762,86.56084656084657 196.4021164021164,87.1957671957672 196.61375661375664,87.83068783068784 196.61375661375664,88.46560846560847 196.61375661375664,89.1005291005291 196.61375661375664,89.73544973544975 196.61375661375664,90.37037037037038 196.61375661375664,91.00529100529101 196.4021164021164,91.64021164021165 196.1904761904762,92.27513227513228 196.1904761904762,92.91005291005291 195.76719576719577,93.33333333333334 195.76719576719577,93.96825396825398 195.76719576719577,94.60317460317461 195.76719576719577,95.23809523809524 195.55555555555557,95.87301587301587 195.55555555555557,96.50793650793652 195.34391534391537,97.14285714285715 195.13227513227514,97.77777777777779 194.92063492063494,98.41269841269842 194.92063492063494,99.04761904761905 194.70899470899474,99.68253968253968 194.4973544973545,100.31746031746033 194.2857142857143,100.95238095238096 194.2857142857143,101.5873015873016 193.86243386243387,102.22222222222223 193.65079365079367,102.85714285714286 193.43915343915344,103.4920634920635 193.22751322751324,104.12698412698414 192.8042328042328,104.76190476190477 192.5925925925926,105.3968253968254 192.16931216931218,106.03174603174604 191.95767195767198,106.66666666666667 191.53439153439155,107.0899470899471 191.32275132275134,107.72486772486774 190.8994708994709,108.14814814814815 190.47619047619048,108.78306878306879 190.05291005291008,109.41798941798943 189.62962962962965,109.84126984126985 189.20634920634922,110.26455026455027 188.78306878306879,110.6878306878307 188.35978835978838,111.11111111111111 187.72486772486775,111.53439153439155 187.08994708994712,111.74603174603176 186.66666666666669,112.16931216931218 186.03174603174605,112.3809523809524 185.39682539682542,112.3809523809524 184.7619047619048,112.3809523809524 184.12698412698415,112.3809523809524 183.4920634920635,112.16931216931218 182.85714285714286,111.95767195767196 182.22222222222223,111.74603174603176 181.5873015873016,111.53439153439155 180.95238095238096,111.11111111111111 180.31746031746033,110.6878306878307 179.6825396825397,110.26455026455027 179.25925925925927,109.84126984126985 178.62433862433863,109.41798941798943 178.2010582010582,108.78306878306879 177.7777777777778,108.35978835978837 177.35449735449737,107.72486772486774 176.93121693121694,107.0899470899471 176.50793650793653,106.66666666666667 176.0846560846561,106.03174603174604 175.66137566137567,105.3968253968254 175.23809523809524,104.97354497354497 174.6031746031746,104.55026455026456 173.96825396825398,104.12698412698414 173.33333333333334,103.70370370370371 172.6984126984127,103.70370370370371 172.06349206349208,103.4920634920635 171.42857142857144,103.28042328042329 170.7936507936508,103.28042328042329 170.15873015873018,103.28042328042329 169.52380952380955,103.28042328042329 168.8888888888889,103.4920634920635 168.25396825396825,103.4920634920635 167.61904761904762,103.70370370370371 166.984126984127,103.91534391534393 166.34920634920636,104.33862433862434 165.71428571428572,104.76190476190477 165.2910052910053,105.18518518518519 164.8677248677249,105.82010582010582 164.44444444444446,106.24338624338625 164.23280423280426,106.87830687830689 163.80952380952382,107.51322751322752 163.59788359788362,108.14814814814815 163.3862433862434,108.78306878306879 163.1746031746032,109.41798941798943 163.1746031746032,110.05291005291006 162.96296296296296,110.6878306878307 162.75132275132276,111.32275132275133 162.75132275132276,111.95767195767196 162.53968253968256,112.5925925925926 162.53968253968256,113.22751322751324 162.32804232804233,113.86243386243387 162.32804232804233,114.49735449735451 162.11640211640213,115.13227513227514 162.11640211640213,115.76719576719577 162.11640211640213,116.4021164021164 161.90476190476193,117.03703703703705 161.90476190476193,117.67195767195768 161.90476190476193,118.30687830687832 161.6931216931217,118.94179894179895 161.6931216931217,119.57671957671958 161.90476190476193,120.21164021164022 161.90476190476193,120.84656084656086 161.90476190476193,121.4814814814815 161.90476190476193,122.11640211640213 161.90476190476193,122.75132275132276 161.6931216931217,123.3862433862434 161.6931216931217,124.02116402116403 161.6931216931217,124.65608465608466 161.6931216931217,125.2910052910053 161.4814814814815,125.92592592592594 161.4814814814815,126.56084656084657 161.4814814814815,127.1957671957672 161.4814814814815,127.83068783068784 161.4814814814815,128.46560846560848 161.2698412698413,129.10052910052912 161.2698412698413,129.73544973544975 161.2698412698413,130.37037037037038 161.05820105820106,131.005291005291 161.05820105820106,131.64021164021165 161.05820105820106,132.27513227513228 161.05820105820106,132.9100529100529 160.84656084656086,133.54497354497354 160.84656084656086,134.17989417989418 160.63492063492066,134.81481481481484 160.63492063492066,135.44973544973547 160.63492063492066,136.0846560846561 160.63492063492066,136.71957671957674 160.42328042328043,137.35449735449737 160.42328042328043,137.989417989418 160.21164021164023,138.62433862433863 160.21164021164023,139.25925925925927 160.0,139.8941798941799 160.0,140.52910052910053 160.0,141.16402116402116 159.7883597883598,141.7989417989418 159.7883597883598,142.43386243386246 159.7883597883598,143.0687830687831 159.5767195767196,143.70370370370372 159.5767195767196,144.33862433862436 159.5767195767196,144.973544973545 159.36507936507937,145.60846560846562 159.36507936507937,146.24338624338625 159.15343915343917,146.8783068783069 159.15343915343917,147.51322751322752 159.15343915343917,148.14814814814815 158.94179894179896,148.78306878306879 158.94179894179896,149.41798941798942 158.73015873015873,150.05291005291005 158.73015873015873,150.6878306878307 158.73015873015873,151.32275132275134 158.51851851851853,151.95767195767198 158.51851851851853,152.5925925925926 158.51851851851853,153.22751322751324 157.8835978835979,156.61375661375664" style="fill:none; stroke:#999900; stroke-width:1.0"  /><polyline points="157.8835978835979,156.61375661375664 155.13227513227514,156.4021164021164 154.4973544973545,156.4021164021164 153.86243386243387,156.1904761904762 153.22751322751324,156.1904761904762 152.5925925925926,155.978835978836 151.95767195767198,155.978835978836 151.32275132275134,155.978835978836 150.6878306878307,155.978835978836 150.05291005291005,155.978835978836 149.41798941798942,155.978835978836 148.78306878306879,155.76719576719577 148.14814814814815,155.76719576719577 147.51322751322752,155.76719576719577 146.8783068783069,155.76719576719577 146.24338624338625,155.76719576719577 145.60846560846562,155.76719576719577 144.973544973545,155.76719576719577 144.33862433862436,155.55555555555557 143.70370370370372,155.55555555555557 143.0687830687831,155.55555555555557 142.43386243386246,155.55555555555557 141.7989417989418,155.55555555555557 141.16402116402116,155.55555555555557 140.52910052910053,155.34391534391534 139.8941798941799,155.34391534391534 139.25925925925927,155.34391534391534 138.62433862433863,155.34391534391534 137.989417989418,155.13227513227514 137.35449735449737,155.13227513227514 136.71957671957674,154.92063492063494 136.0846560846561,154.92063492063494 135.44973544973547,154.92063492063494 134.81481481481484,154.7089947089947 134.17989417989418,154.7089947089947 133.54497354497354,154.4973544973545 132.9100529100529,154.2857142857143 132.27513227513228,154.2857142857143 131.64021164021165,154.2857142857143 131.005291005291,154.07407407407408 130.37037037037038,154.07407407407408 129.73544973544975,153.86243386243387 129.10052910052912,153.65079365079367 128.46560846560848,153.65079365079367 127.83068783068784,153.43915343915344 127.1957671957672,153.22751322751324 126.56084656084657,153.01587301587304 125.92592592592594,153.01587301587304 125.2910052910053,152.8042328042328 124.65608465608466,152.5925925925926 124.02116402116403,152.38095238095238 123.3862433862434,152.16931216931218 122.75132275132276,151.95767195767198 122.11640211640213,151.74603174603175 121.4814814814815,151.32275132275134 120.84656084656086,151.32275132275134 120.21164021164022,150.8994708994709 119.57671957671958,150.6878306878307 118.94179894179895,150.47619047619048 118.30687830687832,150.26455026455028 117.67195767195768,150.05291005291005 117.03703703703705,149.84126984126985 116.4021164021164,149.62962962962965 115.76719576719577,149.41798941798942 115.13227513227514,149.20634920634922 114.49735449735451,148.78306878306879 113.86243386243387,148.57142857142858 113.22751322751324,148.14814814814815 112.5925925925926,147.93650793650795 111.95767195767196,147.72486772486775 111.32275132275133,147.30158730158732 110.6878306878307,146.8783068783069 110.05291005291006,146.66666666666669 109.41798941798943,146.24338624338625 108.78306878306879,146.03174603174605 108.35978835978837,145.60846560846562 107.72486772486774,145.39682539682542 107.0899470899471,144.973544973545 106.45502645502647,144.55026455026456 105.82010582010582,144.33862433862436 105.18518518518519,143.91534391534393 104.76190476190477,143.4920634920635 104.12698412698414,143.2804232804233 103.70370370370371,142.85714285714286 103.06878306878308,142.43386243386246 102.64550264550266,142.01058201058203 102.01058201058201,141.5873015873016 101.37566137566138,141.16402116402116 100.95238095238096,140.74074074074076 100.52910052910053,140.31746031746033 100.10582010582011,139.6825396825397 99.8941798941799,139.04761904761907 99.68253968253968,138.41269841269843 99.47089947089948,137.7777777777778 99.47089947089948,137.14285714285717 99.47089947089948,136.5079365079365 99.68253968253968,135.87301587301587 99.8941798941799,135.23809523809524 100.10582010582011,134.6031746031746 100.52910052910053,134.17989417989418 100.95238095238096,133.54497354497354 101.37566137566138,133.12169312169314 101.79894179894181,132.6984126984127 102.22222222222223,132.27513227513228 102.85714285714286,131.85185185185185 103.28042328042329,131.42857142857144 103.70370370370371,131.005291005291 104.33862433862434,130.58201058201058 104.97354497354497,130.15873015873018 105.60846560846562,129.73544973544975 106.03174603174604,129.31216931216932 106.66666666666667,128.88888888888889 107.3015873015873,128.46560846560848 107.72486772486774,128.04232804232805 108.35978835978837,127.61904761904763 108.994708994709,127.1957671957672 109.41798941798943,126.77248677248679 110.05291005291006,126.34920634920636 110.6878306878307,125.92592592592594 111.11111111111111,125.5026455026455 111.74603174603176,125.07936507936509 112.16931216931218,124.65608465608466 112.5925925925926,124.02116402116403 113.01587301587303,123.59788359788361 113.65079365079366,123.17460317460318 114.07407407407408,122.53968253968254 114.49735449735451,121.90476190476191 114.92063492063492,121.4814814814815 115.34391534391536,120.84656084656086 115.55555555555557,120.21164021164022 115.76719576719577,119.57671957671958 116.1904761904762,118.94179894179895 116.4021164021164,118.30687830687832 116.82539682539684,117.67195767195768 117.03703703703705,117.03703703703705 117.24867724867725,116.4021164021164 117.46031746031747,115.76719576719577 117.67195767195768,115.13227513227514 117.67195767195768,114.49735449735451 117.88359788359789,113.86243386243387 117.88359788359789,113.22751322751324 117.88359788359789,112.5925925925926 117.67195767195768,111.95767195767196 117.67195767195768,111.32275132275133 117.46031746031747,110.6878306878307 117.03703703703705,110.05291005291006 116.82539682539684,109.41798941798943 116.4021164021164,108.994708994709 115.97883597883599,108.35978835978837 115.55555555555557,107.93650793650795 115.13227513227514,107.3015873015873 114.70899470899472,106.87830687830689 114.28571428571429,106.45502645502647 113.86243386243387,106.03174603174604 113.22751322751324,105.60846560846562 112.80423280423281,105.18518518518519 112.16931216931218,104.76190476190477 111.53439153439155,104.33862433862434 110.89947089947091,103.91534391534393 110.26455026455027,103.4920634920635 109.62962962962963,103.06878306878308 108.994708994709,102.64550264550266 108.35978835978837,102.43386243386244 107.72486772486774,102.01058201058201 107.0899470899471,101.79894179894181 106.45502645502647,101.37566137566138 105.82010582010582,100.95238095238096 105.18518518518519,100.74074074074075 104.55026455026456,100.52910052910053 103.91534391534393,100.31746031746033 103.28042328042329,100.10582010582011 102.64550264550266,99.68253968253968 102.01058201058201,99.47089947089948 101.37566137566138,99.25925925925927 100.74074074074075,99.04761904761905 100.10582010582011,99.04761904761905 99.47089947089948,98.83597883597885 98.83597883597885,98.62433862433863 98.2010582010582,98.41269841269842 97.56613756613757,98.41269841269842 96.93121693121694,98.2010582010582 96.2962962962963,97.989417989418 95.66137566137567,97.77777777777779 95.02645502645504,97.56613756613757 94.39153439153439,97.56613756613757 93.75661375661376,97.35449735449737 93.12169312169313,97.35449735449737 92.4867724867725,97.14285714285715 91.85185185185186,97.14285714285715 91.21693121693123,97.14285714285715 90.58201058201058,97.14285714285715 89.94708994708995,96.93121693121694 89.31216931216932,96.93121693121694 88.67724867724868,97.14285714285715 88.04232804232805,97.14285714285715 87.40740740740742,97.14285714285715 86.77248677248677,97.14285714285715 86.13756613756614,97.14285714285715 85.5026455026455,97.35449735449737 84.86772486772487,97.35449735449737 84.23280423280424,97.35449735449737 83.59788359788361,97.56613756613757 82.96296296296298,97.77777777777779 82.32804232804233,97.989417989418 81.6931216931217,98.2010582010582 81.26984126984128,98.62433862433863 80.63492063492065,98.83597883597885 80.21164021164022,99.25925925925927 79.57671957671958,99.68253968253968 79.15343915343917,100.10582010582011 78.73015873015873,100.52910052910053 78.30687830687832,100.95238095238096 77.88359788359789,101.5873015873016 77.46031746031747,102.22222222222223 77.24867724867725,102.85714285714286 76.82539682539684,103.4920634920635 76.61375661375662,104.12698412698414 76.4021164021164,104.76190476190477 76.19047619047619,105.3968253968254 75.97883597883599,106.03174603174604 75.97883597883599,106.66666666666667 75.76719576719577,107.3015873015873 75.55555555555556,107.93650793650795 75.55555555555556,108.57142857142858 75.55555555555556,109.20634920634922 75.34391534391536,109.84126984126985 75.34391534391536,110.47619047619048 75.34391534391536,111.11111111111111 75.34391534391536,111.74603174603176 75.55555555555556,112.3809523809524 75.55555555555556,113.01587301587303 75.55555555555556,113.65079365079366 75.55555555555556,114.28571428571429 75.76719576719577,114.92063492063492 75.76719576719577,115.55555555555557 75.97883597883599,116.1904761904762 76.19047619047619,116.82539682539684 76.4021164021164,117.46031746031747 76.4021164021164,118.0952380952381 76.61375661375662,118.73015873015873 76.82539682539684,119.36507936507937 77.03703703703704,120.00000000000001 77.24867724867725,120.63492063492065 77.46031746031747,121.26984126984128 77.67195767195767,121.90476190476191 77.67195767195767,122.53968253968254 77.88359788359789,123.17460317460318 77.88359788359789,123.80952380952382 77.88359788359789,124.44444444444446 77.88359788359789,125.07936507936509 78.0952380952381,125.71428571428572 78.0952380952381,126.34920634920636 78.0952380952381,126.98412698412699 78.30687830687832,127.61904761904763 78.30687830687832,128.25396825396825 78.30687830687832,128.88888888888889 78.30687830687832,129.52380952380955 78.30687830687832,130.15873015873018 78.30687830687832,130.7936507936508 78.30687830687832,131.42857142857144 78.0952380952381,132.06349206349208 78.0952380952381,132.6984126984127 77.88359788359789,133.33333333333334 77.67195767195767,133.96825396825398 77.46031746031747,134.6031746031746 77.03703703703704,135.23809523809524 76.61375661375662,135.87301587301587 76.4021164021164,136.5079365079365 75.97883597883599,136.93121693121694 75.55555555555556,137.35449735449737 75.13227513227514,137.7777777777778 74.70899470899471,138.2010582010582 74.28571428571429,138.62433862433863 73.65079365079366,139.04761904761907 73.01587301587303,139.47089947089947 72.38095238095238,139.8941798941799 71.74603174603175,140.10582010582013 71.11111111111111,140.52910052910053 70.47619047619048,140.74074074074076 69.84126984126985,140.95238095238096 69.20634920634922,141.3756613756614 68.57142857142858,141.5873015873016 67.93650793650794,141.7989417989418 67.3015873015873,142.01058201058203 66.66666666666667,142.22222222222223 66.03174603174604,142.43386243386246 65.3968253968254,142.64550264550266 64.76190476190477,142.64550264550266 64.12698412698413,142.85714285714286 63.492063492063494,143.0687830687831 62.85714285714286,143.2804232804233 62.22222222222223,143.2804232804233 61.58730158730159,143.4920634920635 60.952380952380956,143.4920634920635 60.31746031746032,143.70370370370372 59.682539682539684,143.70370370370372 59.04761904761905,143.70370370370372 58.41269841269842,143.91534391534393 57.777777777777786,143.91534391534393 57.142857142857146,143.91534391534393 56.50793650793651,143.91534391534393 55.87301587301588,144.12698412698413 55.23809523809524,144.12698412698413 54.60317460317461,144.12698412698413 53.968253968253975,144.12698412698413 53.333333333333336,144.12698412698413 52.6984126984127,144.12698412698413 52.06349206349207,144.12698412698413 51.42857142857143,143.91534391534393 50.7936507936508,143.91534391534393 50.158730158730165,143.91534391534393 49.523809523809526,143.91534391534393 48.88888888888889,143.91534391534393 48.25396825396826,143.70370370370372 47.61904761904762,143.70370370370372 46.98412698412699,143.70370370370372 46.349206349206355,143.70370370370372 45.714285714285715,143.70370370370372 45.07936507936508,143.4920634920635 44.44444444444445,143.4920634920635 43.80952380952381,143.2804232804233 43.17460317460318,143.2804232804233 42.539682539682545,143.0687830687831 41.904761904761905,143.0687830687831 41.26984126984127,142.85714285714286 40.63492063492064,142.64550264550266 40.0,142.43386243386246 39.36507936507937,142.22222222222223 38.730158730158735,142.01058201058203 38.095238095238095,141.7989417989418 37.46031746031746,141.5873015873016 36.82539682539683,141.3756613756614 36.19047619047619,141.3756613756614 35.55555555555556,141.16402116402116 34.920634920634924,140.74074074074076 34.28571428571429,140.52910052910053 33.65079365079365,140.31746031746033 33.01587301587302,140.10582010582013 32.38095238095239,139.8941798941799 31.746031746031747,139.6825396825397 31.111111111111114,139.47089947089947 30.476190476190478,139.25925925925927 29.841269841269842,139.04761904761907 29.20634920634921,138.83597883597884 28.571428571428573,138.62433862433863 27.93650793650794,138.41269841269843 27.301587301587304,138.2010582010582 26.666666666666668,137.989417989418 26.031746031746035,137.7777777777778 25.3968253968254,137.56613756613757 24.761904761904763,137.35449735449737 24.12698412698413,137.14285714285717 23.492063492063494,136.93121693121694 22.857142857142858,136.93121693121694 22.222222222222225,136.71957671957674 21.58730158730159,136.5079365079365 20.952380952380953,136.2962962962963 20.31746031746032,136.0846560846561 19.682539682539684,135.87301587301587 19.047619047619047,135.66137566137567 18.412698412698415,135.44973544973547 17.77777777777778,135.44973544973547 17.142857142857146,135.23809523809524 16.50793650793651,135.02645502645504 15.873015873015873,134.81481481481484 15.238095238095239,134.81481481481484 14.603174603174605,134.6031746031746 13.96825396825397,134.6031746031746 13.333333333333334,134.3915343915344 12.6984126984127,134.17989417989418 12.063492063492065,134.17989417989418 11.428571428571429,134.17989417989418 10.793650793650794,133.96825396825398 10.15873015873016,133.96825396825398 9.523809523809524,133.96825396825398 8.88888888888889,133.96825396825398 8.253968253968255,133.96825396825398 4.656084656084657,133.54497354497354" style="fill:none; stroke:#00aa99; stroke-width:1.0"  /><polyline points="4.656084656084657,133.54497354497354 5.502645502645503,130.15873015873018 5.714285714285714,129.52380952380955 5.9259259259259265,128.88888888888889 6.137566137566138,128.25396825396825 6.34920634920635,127.61904761904763 6.772486772486773,126.98412698412699 6.772486772486773,126.34920634920636 6.772486772486773,125.71428571428572 6.984126984126985,125.07936507936509 7.195767195767196,124.44444444444446 7.195767195767196,123.80952380952382 7.407407407407408,123.17460317460318 7.6190476190476195,122.53968253968254 7.6190476190476195,121.90476190476191 7.830687830687832,121.26984126984128 7.830687830687832,120.63492063492065 7.6190476190476195,120.00000000000001 7.830687830687832,119.36507936507937 7.830687830687832,118.73015873015873 7.830687830687832,118.0952380952381 7.830687830687832,117.46031746031747 8.042328042328043,116.82539682539684 8.042328042328043,116.1904761904762 8.042328042328043,115.55555555555557 8.042328042328043,114.92063492063492 8.042328042328043,114.28571428571429 8.042328042328043,113.65079365079366 7.830687830687832,113.01587301587303 7.830687830687832,112.3809523809524 7.830687830687832,111.74603174603176 7.830687830687832,111.11111111111111 7.830687830687832,110.47619047619048 7.6190476190476195,109.84126984126985 7.6190476190476195,109.20634920634922 7.6190476190476195,108.57142857142858 7.407407407407408,107.93650793650795 7.407407407407408,107.3015873015873 7.195767195767196,106.66666666666667 7.195767195767196,106.03174603174604 6.984126984126985,105.3968253968254 6.984126984126985,104.76190476190477 6.772486772486773,104.12698412698414 6.560846560846561,103.4920634920635 6.560846560846561,102.85714285714286 6.34920634920635,102.22222222222223 5.9259259259259265,101.5873015873016 5.714285714285714,100.95238095238096 5.502645502645503,100.31746031746033 5.291005291005291,99.68253968253968 5.07936507936508,99.04761904761905 4.656084656084657,98.41269841269842 4.444444444444445,97.77777777777779 4.2328042328042335,97.14285714285715 4.021164021164021,96.50793650793652 3.597883597883598,95.87301587301587 3.3862433862433865,95.23809523809524 3.174603174603175,94.60317460317461 2.9629629629629632,93.96825396825398 2.7513227513227516,93.33333333333334 2.53968253968254,92.69841269841271 2.3280423280423284,92.06349206349208 2.3280423280423284,91.42857142857143 1.9047619047619049,90.7936507936508 1.9047619047619049,90.15873015873017 1.9047619047619049,89.52380952380953 1.6931216931216932,88.8888888888889 1.6931216931216932,88.25396825396827 1.4814814814814816,87.61904761904762 1.4814814814814816,86.98412698412699 1.4814814814814816,86.34920634920636 1.26984126984127,85.71428571428572 1.0582010582010584,85.07936507936509 1.0582010582010584,84.44444444444446 1.0582010582010584,83.80952380952381 1.0582010582010584,83.17460317460318 1.0582010582010584,82.53968253968254 1.0582010582010584,81.90476190476191 1.26984126984127,81.26984126984128 1.4814814814814816,80.63492063492065 1.6931216931216932,80.0 2.1164021164021167,79.36507936507937 2.53968253968254,78.73015873015873 2.9629629629629632,78.30687830687832 3.3862433862433865,77.88359788359789 4.021164021164021,77.46031746031747 4.656084656084657,77.24867724867725 5.291005291005291,77.03703703703704 5.9259259259259265,76.82539682539684 6.560846560846561,76.82539682539684 7.195767195767196,76.61375661375662 7.830687830687832,76.61375661375662 8.465608465608467,76.82539682539684 9.100529100529101,76.82539682539684 9.735449735449736,77.03703703703704 10.370370370370372,77.24867724867725 11.005291005291006,77.46031746031747 11.640211640211641,77.88359788359789 12.275132275132275,77.88359788359789 12.910052910052912,78.30687830687832 13.544973544973546,78.51851851851852 13.96825396825397,78.94179894179895 14.603174603174605,79.36507936507937 15.238095238095239,79.57671957671958 15.873015873015873,80.0 16.50793650793651,80.21164021164022 17.142857142857146,80.42328042328043 17.566137566137566,80.84656084656085 18.201058201058203,81.05820105820106 18.83597883597884,81.26984126984128 19.47089947089947,81.48148148148148 20.105820105820108,81.48148148148148 20.740740740740744,81.6931216931217 21.375661375661377,81.90476190476191 22.010582010582013,81.90476190476191 22.645502645502646,82.11640211640213 23.280423280423282,82.11640211640213 23.915343915343918,82.11640211640213 24.55026455026455,82.11640211640213 25.185185185185187,82.11640211640213 25.820105820105823,82.11640211640213 26.455026455026456,81.90476190476191 27.089947089947092,81.90476190476191 27.724867724867728,81.90476190476191 28.35978835978836,81.6931216931217 28.994708994708997,81.48148148148148 29.629629629629633,81.48148148148148 30.264550264550266,81.05820105820106 30.899470899470902,80.84656084656085 31.322751322751326,80.42328042328043 31.95767195767196,80.21164021164022 32.592592592592595,79.7883597883598 33.01587301587302,79.36507936507937 33.65079365079365,78.94179894179895 34.074074074074076,78.30687830687832 34.4973544973545,77.88359788359789 34.920634920634924,77.24867724867725 35.34391534391535,76.61375661375662 35.76719576719577,76.19047619047619 35.97883597883598,75.55555555555556 36.402116402116405,74.92063492063492 36.613756613756614,74.28571428571429 36.82539682539683,73.65079365079366 37.03703703703704,73.01587301587303 37.248677248677254,72.38095238095238 37.46031746031746,71.74603174603175 37.46031746031746,71.11111111111111 37.67195767195768,70.47619047619048 37.883597883597886,69.84126984126985 37.883597883597886,69.20634920634922 38.095238095238095,68.57142857142858 38.095238095238095,67.93650793650794 38.095238095238095,67.3015873015873 38.095238095238095,66.66666666666667 38.095238095238095,66.03174603174604 38.095238095238095,65.3968253968254 38.095238095238095,64.76190476190477 38.095238095238095,64.12698412698413 37.883597883597886,63.492063492063494 37.67195767195768,62.85714285714286 37.67195767195768,62.22222222222223 37.67195767195768,61.58730158730159 37.248677248677254,60.952380952380956 37.03703703703704,60.31746031746032 36.82539682539683,59.682539682539684 36.613756613756614,59.04761904761905 36.19047619047619,58.41269841269842 35.97883597883598,57.777777777777786 35.55555555555556,57.35449735449736 35.13227513227513,56.71957671957672 34.920634920634924,56.08465608465609 34.4973544973545,55.661375661375665 34.074074074074076,55.02645502645503 33.65079365079365,54.39153439153439 33.22751322751323,53.968253968253975 32.804232804232804,53.54497354497355 32.38095238095239,53.12169312169313 31.746031746031747,52.6984126984127 31.322751322751326,52.27513227513228 30.68783068783069,51.851851851851855 30.052910052910054,51.42857142857143 29.41798941798942,51.21693121693122 28.783068783068785,50.7936507936508 28.14814814814815,50.58201058201058 27.513227513227516,50.370370370370374 26.87830687830688,50.158730158730165 26.243386243386244,49.94708994708995 25.60846560846561,49.94708994708995 24.973544973544975,49.94708994708995 24.338624338624342,49.73544973544974 23.703703703703706,49.73544973544974 23.06878306878307,49.73544973544974 22.433862433862437,49.94708994708995 21.7989417989418,49.94708994708995 21.164021164021165,49.94708994708995 20.529100529100532,50.158730158730165 19.894179894179896,50.370370370370374 19.25925925925926,50.58201058201058 18.624338624338627,51.00529100529101 17.98941798941799,51.21693121693122 17.354497354497354,51.42857142857143 16.71957671957672,51.851851851851855 16.084656084656086,52.06349206349207 15.449735449735451,52.27513227513228 14.814814814814817,52.48677248677249 14.17989417989418,52.91005291005291 13.544973544973546,53.12169312169313 12.910052910052912,53.333333333333336 12.275132275132275,53.54497354497355 11.640211640211641,53.968253968253975 11.005291005291006,54.39153439153439 10.370370370370372,54.39153439153439 9.735449735449736,54.60317460317461 9.100529100529101,54.60317460317461 8.465608465608467,54.81481481481482 7.830687830687832,54.81481481481482 7.195767195767196,54.81481481481482 6.560846560846561,54.81481481481482 5.9259259259259265,54.60317460317461 5.291005291005291,54.60317460317461 4.656084656084657,54.39153439153439 4.021164021164021,54.179894179894184 3.3862433862433865,53.968253968253975 2.9629629629629632,53.54497354497355 2.53968253968254,53.12169312169313 2.1164021164021167,52.6984126984127 1.6931216931216932,52.27513227513228 1.26984126984127,51.640211640211646 1.0582010582010584,51.00529100529101 0.634920634920635,50.370370370370374 0.4232804232804233,49.73544973544974 0.21164021164021166,49.1005291005291 0.21164021164021166,48.46560846560847 0.21164021164021166,47.830687830687836 0.21164021164021166,47.195767195767196 0.4232804232804233,46.560846560846564 0.4232804232804233,45.92592592592593 0.634920634920635,45.29100529100529 0.634920634920635,44.65608465608466 0.8465608465608466,44.021164021164026 1.0582010582010584,43.386243386243386 1.26984126984127,42.75132275132275 1.4814814814814816,42.11640211640212 1.6931216931216932,41.48148148148149 1.6931216931216932,40.84656084656085 1.9047619047619049,40.211640211640216 2.3280423280423284,39.57671957671958 2.53968253968254,38.94179894179894 2.9629629629629632,38.30687830687831 3.174603174603175,37.67195767195768 3.597883597883598,37.248677248677254 3.8095238095238098,36.613756613756614 4.2328042328042335,36.19047619047619 4.656084656084657,35.55555555555556 5.07936507936508,34.920634920634924 5.502645502645503,34.4973544973545 5.9259259259259265,33.86243386243387 6.137566137566138,33.22751322751323 6.560846560846561,32.804232804232804 6.984126984126985,32.16931216931217 7.195767195767196,31.53439153439154 7.6190476190476195,31.111111111111114 7.830687830687832,30.476190476190478 8.253968253968255,30.052910052910054 8.465608465608467,29.41798941798942 8.88888888888889,28.783068783068785 9.312169312169313,28.14814814814815 9.523809523809524,27.513227513227516 9.947089947089948,26.87830687830688 10.370370370370372,26.243386243386244 10.582010582010582,25.60846560846561 11.005291005291006,24.973544973544975 11.216931216931219,24.338624338624342 11.640211640211641,23.703703703703706 11.851851851851853,23.06878306878307 12.063492063492065,22.433862433862437 12.275132275132275,21.7989417989418 12.486772486772487,21.164021164021165 12.6984126984127,20.529100529100532 12.6984126984127,19.894179894179896 12.910052910052912,19.25925925925926 12.910052910052912,18.624338624338627 12.910052910052912,17.98941798941799 13.121693121693122,17.354497354497354 13.121693121693122,16.71957671957672 13.121693121693122,16.084656084656086 12.910052910052912,15.449735449735451 12.910052910052912,14.814814814814817 12.910052910052912,14.17989417989418 12.910052910052912,13.544973544973546 12.910052910052912,12.910052910052912 12.910052910052912,12.275132275132275 13.121693121693122,8.677248677248677" style="fill:none; stroke:#3300bb; stroke-width:1.0"  /><circle cx="13.121693121693122" cy="8.677248677248677" r="2.0" style="fill:none; stroke:#000000aa; stroke-width:0.25" /><circle cx="172.9100529100529" cy="42.75132275132275" r="2.0" style="fill:none; stroke:#000000aa; stroke-width:0.25" /><circle cx="157.8835978835979" cy="156.61375661375664" r="2.0" style="fill:none; stroke:#000000aa; stroke-width:0.25" /><circle cx="4.656084656084657" cy="133.54497354497354" r="2.0" style="fill:none; stroke:#000000aa; stroke-width:0.25" /><circle cx="13.333333333333334" cy="9.100529100529101" r="2.0" style="fill:none; stroke:#ff3366aa; stroke-width:0.25" /><circle cx="172.9100529100529" cy="42.75132275132275" r="2.0" style="fill:none; stroke:#ff3366aa; stroke-width:0.25" /><circle cx="158.30687830687833" cy="156.82539682539684" r="2.0" style="fill:none; stroke:#ff3366aa; stroke-width:0.25" /><circle cx="4.867724867724868" cy="133.33333333333334" r="2.0" style="fill:none; stroke:#ff3366aa; stroke-width:0.25" /><polyline points="24.761904761904763,12.910052910052912 24.12698412698413,12.6984126984127 23.492063492063494,12.486772486772487 22.857142857142858,12.275132275132275 22.222222222222225,12.063492063492065 21.58730158730159,11.851851851851853 20.952380952380953,11.640211640211641 20.31746031746032,11.428571428571429 19.682539682539684,11.216931216931219 19.047619047619047,10.793650793650794 18.412698412698415,10.582010582010582 17.77777777777778,10.370370370370372 17.142857142857146,10.15873015873016 16.50793650793651,9.947089947089948" style="fill:none; stroke:#001100; stroke-width:1.0" /><polyline points="12.6984126984127,20.529100529100532 12.6984126984127,19.894179894179896 12.910052910052912,19.25925925925926 12.910052910052912,18.624338624338627 12.910052910052912,17.98941798941799 13.121693121693122,17.354497354497354 13.121693121693122,16.71957671957672 13.121693121693122,16.084656084656086 12.910052910052912,15.449735449735451 12.910052910052912,14.814814814814817 12.910052910052912,14.17989417989418 12.910052910052912,13.544973544973546 12.910052910052912,12.910052910052912 12.910052910052912,12.275132275132275" style="fill:none; stroke:#000011; stroke-width:1.0" /><polyline points="171.64021164021165,54.179894179894184 171.64021164021165,53.54497354497355 171.85185185185188,52.91005291005291 171.85185185185188,52.27513227513228 171.85185185185188,51.640211640211646 172.06349206349208,51.00529100529101 172.06349206349208,50.370370370370374 171.85185185185188,49.73544973544974 172.06349206349208,49.1005291005291 172.27513227513228,48.46560846560847 172.27513227513228,47.830687830687836 172.27513227513228,47.195767195767196 172.4867724867725,46.560846560846564 172.4867724867725,45.92592592592593" style="fill:none; stroke:#001100; stroke-width:1.0" /><polyline points="160.84656084656086,42.75132275132275 161.4814814814815,42.96296296296297 162.11640211640213,42.96296296296297 162.75132275132276,42.96296296296297 163.3862433862434,42.96296296296297 164.02116402116403,42.75132275132275 164.65608465608466,42.75132275132275 165.2910052910053,42.75132275132275 165.92592592592595,42.75132275132275 166.56084656084658,42.75132275132275 167.19576719576722,42.75132275132275 167.83068783068785,42.75132275132275 168.46560846560848,42.75132275132275 169.10052910052912,42.75132275132275 169.73544973544975,42.75132275132275" style="fill:none; stroke:#000011; stroke-width:1.0" /><polyline points="146.8783068783069,155.76719576719577 147.51322751322752,155.76719576719577 148.14814814814815,155.76719576719577 148.78306878306879,155.76719576719577 149.41798941798942,155.978835978836 150.05291005291005,155.978835978836 150.6878306878307,155.978835978836 151.32275132275134,155.978835978836 151.95767195767198,155.978835978836 152.5925925925926,155.978835978836 153.22751322751324,156.1904761904762 153.86243386243387,156.1904761904762 154.4973544973545,156.4021164021164 155.13227513227514,156.4021164021164" style="fill:none; stroke:#001100; stroke-width:1.0" /><polyline points="159.5767195767196,144.973544973545 159.36507936507937,145.60846560846562 159.36507936507937,146.24338624338625 159.15343915343917,146.8783068783069 159.15343915343917,147.51322751322752 159.15343915343917,148.14814814814815 158.94179894179896,148.78306878306879 158.94179894179896,149.41798941798942 158.73015873015873,150.05291005291005 158.73015873015873,150.6878306878307 158.73015873015873,151.32275132275134 158.51851851851853,151.95767195767198 158.51851851851853,152.5925925925926 158.51851851851853,153.22751322751324 158.30687830687833,153.86243386243387" style="fill:none; stroke:#000011; stroke-width:1.0" /><polyline points="7.6190476190476195,121.90476190476191 7.6190476190476195,122.53968253968254 7.407407407407408,123.17460317460318 7.195767195767196,123.80952380952382 7.195767195767196,124.44444444444446 6.984126984126985,125.07936507936509 6.772486772486773,125.71428571428572 6.772486772486773,126.34920634920636 6.772486772486773,126.98412698412699 6.34920634920635,127.61904761904763 6.137566137566138,128.25396825396825 5.9259259259259265,128.88888888888889 5.714285714285714,129.52380952380955 5.502645502645503,130.15873015873018" style="fill:none; stroke:#001100; stroke-width:1.0" /><polyline points="16.50793650793651,135.02645502645504 15.873015873015873,134.81481481481484 15.238095238095239,134.81481481481484 14.603174603174605,134.6031746031746 13.96825396825397,134.6031746031746 13.333333333333334,134.3915343915344 12.6984126984127,134.17989417989418 12.063492063492065,134.17989417989418 11.428571428571429,134.17989417989418 10.793650793650794,133.96825396825398 10.15873015873016,133.96825396825398 9.523809523809524,133.96825396825398 8.88888888888889,133.96825396825398 8.253968253968255,133.96825396825398" style="fill:none; stroke:#000011; stroke-width:1.0" /><polyline points="16.50793650793651,9.947089947089948 -3.3862433862433865,2.7513227513227516" style="fill:none; stroke:#ffaa00; stroke-width:0.4" /><polyline points="12.910052910052912,12.275132275132275 13.544973544973546,-8.88888888888889" style="fill:none; stroke:#aaff00; stroke-width:0.4" /><polyline points="172.4867724867725,45.92592592592593 174.6031746031746,24.973544973544975" style="fill:none; stroke:#ffaa00; stroke-width:0.4" /><polyline points="169.73544973544975,42.75132275132275 190.8994708994709,42.75132275132275" style="fill:none; stroke:#aaff00; stroke-width:0.4" /><polyline points="155.13227513227514,156.4021164021164 176.2962962962963,158.0952380952381" style="fill:none; stroke:#ffaa00; stroke-width:0.4" /><polyline points="158.30687830687833,153.86243386243387 155.34391534391534,174.81481481481484" style="fill:none; stroke:#aaff00; stroke-width:0.4" /><polyline points="5.502645502645503,130.15873015873018 0.21164021164021166,150.6878306878307" style="fill:none; stroke:#ffaa00; stroke-width:0.4" /><polyline points="8.253968253968255,133.96825396825398 -12.6984126984127,131.21693121693121" style="fill:none; stroke:#aaff00; stroke-width:0.4" /><circle cx="90.7936507936508" cy="81.48148148148148" r="1.0" style="fill:#444444; stroke-width:0" /><circle cx="133.12169312169314" cy="76.4021164021164" r="10.582010582010582" style="fill:#ff770022; stroke-width:0" /><circle cx="133.12169312169314" cy="76.4021164021164" r="1.0" style="fill:#ff7700; stroke-width:0" /></svg>