<?xml version="1.0" encoding="UTF-8" standalone="no"?><svg width="579.047619047619" height="507.93650793650795" viewBox="-10 -10 213.01587301587304 189.31216931216932" xmlns="http://www.w3.org/2000/svg" xmlns:xlink="http://www.w3.org/1999/xlink"><polyline points="12.063492063492065,0.4232804232804233 15.449735449735451,1.0582010582010584 16.084656084656086,1.4814814814814816 16.71957671957672,1.4814814814814816 17.354497354497354,1.6931216931216932 17.98941798941799,1.6931216931216932 18.624338624338627,1.9047619047619049 19.25925925925926,2.1164021164021167 19.894179894179896,2.1164021164021167 20.529100529100532,2.3280423280423284 21.164021164021165,2.3280423280423284 21.7989417989418,2.3280423280423284 22.222222222222225,2.7513227513227516 22.857142857142858,2.7513227513227516 23.492063492063494,2.7513227513227516 24.12698412698413,2.9629629629629632 24.761904761904763,2.9629629629629632 25.3968253968254,2.9629629629629632 26.031746031746035,2.9629629629629632 26.666666666666668,3.174603174603175 27.301587301587304,3.3862433862433865 27.93650793650794,3.3862433862433865 28.571428571428573,3.3862433862433865 29.20634920634921,3.3862433862433865 29.841269841269842,3.3862433862433865 30.476190476190478,3.597883597883598 31.111111111111114,3.597883597883598 31.746031746031747,3.8095238095238098 32.38095238095239,3.597883597883598 33.01587301587302,3.597883597883598 33.65079365079365,3.597883597883598 34.28571428571429,3.8095238095238098 34.920634920634924,4.021164021164021 35.55555555555556,4.021164021164021 36.19047619047619,3.8095238095238098 36.82539682539683,3.8095238095238098 37.46031746031746,3.8095238095238098 38.095238095238095,3.8095238095238098 38.730158730158735,3.8095238095238098 39.36507936507937,3.8095238095238098 40.0,3.8095238095238098 40.63492063492064,3.597883597883598 41.26984126984127,3.3862433862433865 41.904761904761905,3.597883597883598 42.539682539682545,3.3862433862433865 43.17460317460318,3.3862433862433865 43.80952380952381,3.3862433862433865 44.44444444444445,3.3862433862433865 45.07936507936508,3.3862433862433865 45.714285714285715,3.3862433862433865 46.349206349206355,3.3862433862433865 46.98412698412699,3.174603174603175 47.61904761904762,3.174603174603175 48.25396825396826,2.9629629629629632 48.88888888888889,2.9629629629629632 49.523809523809526,2.7513227513227516 50.158730158730165,2.7513227513227516 50.7936507936508,2.53968253968254 51.42857142857143,2.53968253968254 52.06349206349207,2.3280423280423284 52.6984126984127,2.1164021164021167 53.333333333333336,1.9047619047619049 53.968253968253975,1.9047619047619049 54.60317460317461,1.9047619047619049 55.23809523809524,1.4814814814814816 55.87301587301588,1.4814814814814816 56.50793650793651,1.26984126984127 57.142857142857146,1.26984126984127 57.777777777777786,1.0582010582010584 58.41269841269842,1.0582010582010584 59.04761904761905,0.8465608465608466 59.682539682539684,0.8465608465608466 60.31746031746032,0.8465608465608466 60.952380952380956,0.8465608465608466 61.58730158730159,0.8465608465608466 62.22222222222223,0.634920634920635 62.85714285714286,0.4232804232804233 63.492063492063494,0.4232804232804233 64.12698412698413,0.21164021164021166 64.76190476190477,0.21164021164021166 65.3968253968254,0.21164021164021166 66.03174603174604,0.4232804232804233 66.66666666666667,0.21164021164021166 67.3015873015873,0.4232804232804233 67.93650793650794,0.4232804232804233 68.57142857142858,0.4232804232804233 69.20634920634922,0.21164021164021166 69.84126984126985,0.4232804232804233 70.47619047619048,0.4232804232804233 71.11111111111111,0.4232804232804233 71.74603174603175,0.634920634920635 72.38095238095238,0.634920634920635 73.01587301587303,0.8465608465608466 73.65079365079366,1.0582010582010584 74.28571428571429,1.26984126984127 74.92063492063492,1.6931216931216932 75.55555555555556,1.9047619047619049 76.19047619047619,2.1164021164021167 76.82539682539684,2.53968253968254 77.24867724867725,2.9629629629629632 77.88359788359789,3.3862433862433865 78.30687830687832,3.8095238095238098 78.73015873015873,4.2328042328042335 79.15343915343917,4.867724867724868 79.57671957671958,5.291005291005291 80.0,5.714285714285714 80.42328042328043,6.34920634920635 80.84656084656085,6.984126984126985 81.05820105820106,7.6190476190476195 81.26984126984128,8.253968253968255 81.48148148148148,8.88888888888889 81.6931216931217,9.523809523809524 81.90476190476191,10.15873015873016 82.11640211640213,10.793650793650794 82.32804232804233,11.428571428571429 82.32804232804233,12.063492063492065 82.53968253968254,12.6984126984127 82.53968253968254,13.333333333333334 82.53968253968254,13.96825396825397 82.53968253968254,14.603174603174605 82.53968253968254,15.238095238095239 82.32804232804233,15.873015873015873 82.32804232804233,16.50793650793651 82.11640211640213,17.142857142857146 81.90476190476191,17.77777777777778 81.90476190476191,18.412698412698415 81.6931216931217,19.047619047619047 81.26984126984128,19.682539682539684 81.05820105820106,20.31746031746032 80.84656084656085,20.952380952380953 80.42328042328043,21.58730158730159 80.42328042328043,22.222222222222225 80.0,22.645502645502646 79.57671957671958,23.06878306878307 79.15343915343917,23.492063492063494 78.73015873015873,23.915343915343918 78.30687830687832,24.338624338624342 77.67195767195767,24.761904761904763 77.24867724867725,25.185185185185187 76.61375661375662,25.60846560846561 76.19047619047619,26.031746031746035 75.76719576719577,26.455026455026456 75.13227513227514,26.87830687830688 74.70899470899471,27.513227513227516 74.28571428571429,28.14814814814815 73.86243386243387,28.571428571428573 73.43915343915344,29.20634920634921 73.01587301587303,29.841269841269842 72.80423280423281,30.476190476190478 72.38095238095238,30.899470899470902 72.16931216931218,31.53439153439154 71.74603174603175,32.16931216931217 71.53439153439155,32.804232804232804 71.32275132275133,33.43915343915344 71.11111111111111,34.074074074074076 70.8994708994709,34.70899470899471 70.6878306878307,35.34391534391535 70.47619047619048,35.97883597883598 70.47619047619048,36.613756613756614 70.26455026455027,37.248677248677254 70.05291005291006,37.883597883597886 70.05291005291006,38.51851851851852 69.84126984126985,39.15343915343916 69.84126984126985,39.78835978835979 69.84126984126985,40.423280423280424 69.84126984126985,41.058201058201064 69.84126984126985,41.6931216931217 69.84126984126985,42.32804232804233 69.84126984126985,42.96296296296297 70.05291005291006,43.5978835978836 70.26455026455027,44.232804232804234 70.47619047619048,44.867724867724874 70.6878306878307,45.50264550264551 71.11111111111111,46.13756613756614 71.53439153439155,46.77248677248678 71.95767195767196,47.195767195767196 72.38095238095238,47.61904761904762 72.80423280423281,48.042328042328045 73.22751322751323,48.46560846560847 73.86243386243387,48.88888888888889 74.28571428571429,49.31216931216932 74.92063492063492,49.523809523809526 75.55555555555556,49.73544973544974 76.19047619047619,50.158730158730165 76.82539682539684,50.370370370370374 77.46031746031747,50.58201058201058 78.0952380952381,51.00529100529101 78.73015873015873,51.21693121693122 79.36507936507937,51.42857142857143 80.0,51.640211640211646 80.63492063492065,51.640211640211646 81.26984126984128,52.06349206349207 81.90476190476191,52.27513227513228 82.53968253968254,52.27513227513228 83.17460317460318,52.48677248677249 83.80952380952381,52.6984126984127 84.44444444444446,52.6984126984127 85.07936507936509,52.91005291005291 85.71428571428572,52.91005291005291 86.34920634920636,53.12169312169313 86.98412698412699,53.12169312169313 87.61904761904762,53.12169312169313 88.25396825396827,53.333333333333336 88.8888888888889,53.333333333333336 89.52380952380953,53.333333333333336 90.15873015873017,53.333333333333336 90.7936507936508,53.333333333333336 91.42857142857143,53.333333333333336 92.06349206349208,53.333333333333336 92.69841269841271,53.333333333333336 93.33333333333334,53.333333333333336 93.96825396825398,53.333333333333336 94.60317460317461,53.333333333333336 95.23809523809524,53.333333333333336 95.87301587301587,52.91005291005291 96.50793650793652,52.91005291005291 97.14285714285715,52.91005291005291 97.77777777777779,52.6984126984127 98.41269841269842,52.48677248677249 99.04761904761905,52.27513227513228 99.68253968253968,52.06349206349207 100.31746031746033,51.851851851851855 100.95238095238096,51.640211640211646 101.5873015873016,51.42857142857143 102.01058201058201,51.00529100529101 102.64550264550266,50.7936507936508 103.28042328042329,50.370370370370374 103.91534391534393,49.94708994708995 104.55026455026456,49.523809523809526 105.18518518518519,49.1005291005291 105.82010582010582,48.677248677248684 106.24338624338625,48.25396825396826 106.66666666666667,47.830687830687836 107.0899470899471,47.40740740740741 107.51322751322752,46.98412698412699 107.93650793650795,46.560846560846564 108.35978835978837,46.13756613756614 108.78306878306879,45.714285714285715 109.20634920634922,45.07936507936508 109.62962962962963,44.65608465608466 110.05291005291006,44.021164021164026 110.47619047619048,43.386243386243386 110.6878306878307,42.75132275132275 111.11111111111111,42.11640211640212 111.53439153439155,41.48148148148149 111.74603174603176,40.84656084656085 111.95767195767196,40.211640211640216 112.16931216931218,39.57671957671958 112.3809523809524,38.94179894179894 112.5925925925926,38.30687830687831 112.80423280423281,37.67195767195768 112.80423280423281,37.03703703703704 112.80423280423281,36.402116402116405 112.80423280423281,35.76719576719577 112.80423280423281,35.13227513227513 112.80423280423281,34.4973544973545 112.5925925925926,33.86243386243387 112.5925925925926,33.22751322751323 112.3809523809524,32.592592592592595 112.16931216931218,31.95767195767196 111.95767195767196,31.322751322751326 111.74603174603176,30.68783068783069 111.32275132275133,30.052910052910054 110.89947089947091,29.41798941798942 110.47619047619048,28.783068783068785 110.05291005291006,28.35978835978836 109.62962962962963,27.724867724867728 109.20634920634922,27.089947089947092 108.78306878306879,26.666666666666668 108.35978835978837,26.031746031746035 107.93650793650795,25.3968253968254 107.51322751322752,24.761904761904763 107.0899470899471,24.12698412698413 106.87830687830689,23.492063492063494 106.66666666666667,22.857142857142858 106.45502645502647,22.222222222222225 106.24338624338625,21.58730158730159 106.24338624338625,20.952380952380953 106.24338624338625,20.31746031746032 106.45502645502647,19.682539682539684 106.66666666666667,19.047619047619047 106.87830687830689,18.412698412698415 107.3015873015873,17.98941798941799 107.72486772486774,17.354497354497354 108.14814814814815,16.931216931216934 108.78306878306879,16.50793650793651 109.41798941798943,16.296296296296298 110.05291005291006,15.873015873015873 110.6878306878307,15.873015873015873 111.32275132275133,15.873015873015873 111.95767195767196,15.873015873015873 112.5925925925926,15.661375661375663 113.22751322751324,15.661375661375663 113.86243386243387,15.873015873015873 114.49735449735451,15.873015873015873 115.13227513227514,16.084656084656086 115.76719576719577,16.084656084656086 116.4021164021164,16.50793650793651 117.03703703703705,16.50793650793651 117.67195767195768,16.50793650793651 118.0952380952381,16.931216931216934 118.73015873015873,16.931216931216934 119.36507936507937,16.931216931216934 120.00000000000001,16.931216931216934 120.42328042328043,17.354497354497354 121.05820105820106,17.354497354497354 121.6931216931217,17.354497354497354 122.32804232804234,17.354497354497354 122.96296296296298,17.354497354497354 123.59788359788361,17.566137566137566 124.23280423280424,17.77777777777778 124.86772486772487,17.77777777777778 125.5026455026455,17.77777777777778 126.13756613756615,17.77777777777778 126.77248677248679,17.77777777777778 127.40740740740742,17.77777777777778 128.04232804232805,17.77777777777778 128.67724867724868,17.77777777777778 129.31216931216932,17.77777777777778 129.94708994708995,17.77777777777778 130.58201058201058,17.77777777777778 131.21693121693121,17.77777777777778 131.85185185185185,17.77777777777778 132.4867724867725,17.77777777777778 133.12169312169314,17.77777777777778 133.75661375661377,17.566137566137566 134.3915343915344,17.354497354497354 135.02645502645504,17.142857142857146 135.66137566137567,17.142857142857146 136.2962962962963,16.931216931216934 136.93121693121694,16.71957671957672 137.56613756613757,16.71957671957672 138.2010582010582,16.50793650793651 138.83597883597884,16.50793650793651 139.47089947089947,16.084656084656086 140.10582010582013,15.873015873015873 140.74074074074076,15.661375661375663 141.3756613756614,15.449735449735451 142.01058201058203,15.238095238095239 142.64550264550266,15.026455026455027 146.03174603174605,13.96825396825397" style="fill:none; stroke:#cc0000; stroke-width:1.0"  /><polyline points="146.03174603174605,13.96825396825397 146.8783068783069,17.354497354497354 146.8783068783069,17.98941798941799 147.0899470899471,18.624338624338627 147.30158730158732,19.25925925925926 147.30158730158732,19.894179894179896 147.51322751322752,20.529100529100532 147.72486772486775,21.164021164021165 147.93650793650795,21.7989417989418 148.35978835978838,22.433862433862437 148.35978835978838,23.06878306878307 148.57142857142858,23.703703703703706 148.57142857142858,24.338624338624342 148.78306878306879,24.973544973544975 148.78306878306879,25.60846560846561 148.99470899470901,26.243386243386244 149.20634920634922,26.87830687830688 149.20634920634922,27.513227513227516 149.20634920634922,28.14814814814815 149.41798941798942,28.783068783068785 149.41798941798942,29.41798941798942 149.62962962962965,30.052910052910054 149.62962962962965,30.68783068783069 149.84126984126985,31.322751322751326 149.84126984126985,31.95767195767196 150.05291005291005,32.592592592592595 150.05291005291005,33.22751322751323 150.26455026455028,33.86243386243387 150.26455026455028,34.4973544973545 150.26455026455028,35.13227513227513 150.47619047619048,35.76719576719577 150.47619047619048,36.402116402116405 150.47619047619048,37.03703703703704 150.6878306878307,37.67195767195768 150.6878306878307,38.30687830687831 150.6878306878307,38.94179894179894 150.6878306878307,39.57671957671958 150.8994708994709,40.211640211640216 150.8994708994709,40.84656084656085 151.11111111111111,41.48148148148149 151.11111111111111,42.11640211640212 151.11111111111111,42.75132275132275 151.32275132275134,43.386243386243386 151.32275132275134,44.021164021164026 151.32275132275134,44.65608465608466 151.32275132275134,45.29100529100529 151.32275132275134,45.92592592592593 151.53439153439155,46.560846560846564 151.53439153439155,47.195767195767196 151.53439153439155,47.830687830687836 151.53439153439155,48.46560846560847 151.53439153439155,49.1005291005291 151.53439153439155,49.73544973544974 151.74603174603175,50.370370370370374 151.74603174603175,51.00529100529101 151.74603174603175,51.640211640211646 151.74603174603175,52.27513227513228 151.74603174603175,52.91005291005291 151.74603174603175,53.54497354497355 151.74603174603175,54.179894179894184 151.74603174603175,54.81481481481482 151.74603174603175,55.449735449735456 151.74603174603175,56.08465608465609 151.95767195767198,56.71957671957672 151.95767195767198,57.35449735449736 151.95767195767198,57.989417989417994 151.95767195767198,58.62433862433863 151.95767195767198,59.25925925925927 151.95767195767198,59.8941798941799 151.95767195767198,60.52910052910053 151.74603174603175,61.16402116402117 151.74603174603175,61.798941798941804 151.74603174603175,62.43386243386244 151.74603174603175,63.06878306878308 151.74603174603175,63.70370370370371 151.74603174603175,64.33862433862434 151.74603174603175,64.97354497354497 151.74603174603175,65.60846560846561 151.74603174603175,66.24338624338625 151.53439153439155,66.87830687830689 151.53439153439155,67.51322751322752 151.53439153439155,68.14814814814815 151.32275132275134,68.78306878306879 151.32275132275134,69.41798941798942 151.32275132275134,70.05291005291006 151.32275132275134,70.6878306878307 151.11111111111111,71.32275132275133 151.11111111111111,71.95767195767196 151.11111111111111,72.5925925925926 150.8994708994709,73.22751322751323 150.8994708994709,73.86243386243387 150.6878306878307,74.49735449735451 150.6878306878307,75.13227513227514 150.47619047619048,75.76719576719577 150.47619047619048,76.4021164021164 150.47619047619048,77.03703703703704 150.26455026455028,77.67195767195767 150.05291005291005,78.30687830687832 150.05291005291005,78.94179894179895 150.05291005291005,79.57671957671958 149.84126984126985,80.21164021164022 149.62962962962965,80.84656084656085 149.62962962962965,81.48148148148148 149.41798941798942,82.11640211640213 149.41798941798942,82.75132275132276 149.20634920634922,83.3862433862434 149.20634920634922,84.02116402116403 149.20634920634922,84.65608465608466 149.20634920634922,85.29100529100529 149.20634920634922,85.92592592592594 149.41798941798942,86.56084656084657 149.41798941798942,87.1957671957672 149.62962962962965,87.83068783068784 149.84126984126985,88.46560846560847 150.05291005291005,89.1005291005291 150.26455026455028,89.73544973544975 150.47619047619048,90.37037037037038 150.8994708994709,91.00529100529101 151.32275132275134,91.42857142857143 151.74603174603175,91.85185185185186 152.38095238095238,92.27513227513228 152.8042328042328,92.69841269841271 153.43915343915344,93.12169312169313 154.07407407407408,93.33333333333334 154.7089947089947,93.54497354497356 155.34391534391534,93.96825396825398 155.978835978836,93.96825396825398 156.61375661375664,93.96825396825398 157.24867724867727,93.96825396825398 157.8835978835979,94.17989417989419 158.51851851851853,94.17989417989419 159.15343915343917,93.96825396825398 159.7883597883598,93.96825396825398 160.42328042328043,93.75661375661376 161.05820105820106,93.54497354497356 161.6931216931217,93.12169312169313 162.32804232804233,93.12169312169313 162.96296296296296,92.69841269841271 163.59788359788362,92.4867724867725 164.23280423280426,92.06349206349208 164.65608465608466,91.64021164021165 165.2910052910053,91.42857142857143 165.92592592592595,91.00529100529101 166.56084656084658,90.7936507936508 166.984126984127,90.37037037037038 167.61904761904762,90.15873015873017 168.25396825396825,90.15873015873017 168.8888888888889,89.94708994708995 169.52380952380955,89.52380952380953 170.15873015873018,89.31216931216932 170.7936507936508,89.1005291005291 171.42857142857144,88.8888888888889 172.06349206349208,88.8888888888889 172.6984126984127,88.67724867724868 173.33333333333334,88.46560846560847 173.96825396825398,88.46560846560847 174.6031746031746,88.46560846560847 175.23809523809524,88.25396825396827 175.87301587301587,88.25396825396827 176.50793650793653,88.25396825396827 177.14285714285717,88.04232804232805 177.7777777777778,88.04232804232805 178.41269841269843,88.04232804232805 179.04761904761907,88.04232804232805 179.6825396825397,88.04232804232805 180.31746031746033,88.04232804232805 180.95238095238096,88.04232804232805 181.5873015873016,88.04232804232805 182.22222222222223,88.25396825396827 182.85714285714286,88.46560846560847 183.4920634920635,88.67724867724868 184.12698412698415,88.8888888888889 184.7619047619048,89.31216931216932 185.1851851851852,89.73544973544975 185.60846560846562,90.15873015873017 186.03174603174605,90.58201058201058 186.45502645502646,91.00529100529101 186.8783068783069,91.64021164021165 187.30158730158732,92.06349206349208 187.72486772486775,92.4867724867725 188.14814814814815,93.12169312169313 188.57142857142858,93.75661375661376 188.99470899470901,94.39153439153439 189.20634920634922,95.02645502645504 189.62962962962965,95.66137566137567 189.84126984126985,96.2962962962963 190.05291005291008,96.93121693121694 190.26455026455028,97.56613756613757 190.47619047619048,98.2010582010582 190.8994708994709,98.83597883597885 191.11111111111111,99.47089947089948 191.11111111111111,100.10582010582011 191.32275132275134,100.74074074074075 191.53439153439155,101.37566137566138 191.74603174603175,102.01058201058201 191.95767195767198,102.64550264550266 191.95767195767198,103.28042328042329 192.16931216931218,103.91534391534393 192.16931216931218,104.55026455026456 192.3809523809524,105.18518518518519 192.3809523809524,105.82010582010582 192.3809523809524,106.45502645502647 192.5925925925926,107.0899470899471 192.5925925925926,107.72486772486774 192.5925925925926,108.35978835978837 192.5925925925926,108.994708994709 192.5925925925926,109.62962962962963 192.5925925925926,110.26455026455027 192.5925925925926,110.89947089947091 192.5925925925926,111.53439153439155 192.3809523809524,112.16931216931218 192.3809523809524,112.80423280423281 192.3809523809524,113.43915343915344 192.16931216931218,114.07407407407408 191.95767195767198,114.70899470899472 191.74603174603175,115.34391534391536 191.74603174603175,115.97883597883599 191.53439153439155,116.61375661375662 191.11111111111111,117.24867724867725 190.8994708994709,117.88359788359789 190.6878306878307,118.51851851851853 190.47619047619048,119.15343915343917 190.05291005291008,119.7883597883598 189.62962962962965,120.42328042328043 189.41798941798945,121.05820105820106 188.99470899470901,121.4814814814815 188.57142857142858,122.11640211640213 188.14814814814815,122.75132275132276 187.72486772486775,123.17460317460318 187.30158730158732,123.59788359788361 186.8783068783069,124.02116402116403 186.45502645502646,124.44444444444446 186.03174603174605,124.86772486772487 185.60846560846562,125.2910052910053 184.973544973545,125.71428571428572 184.33862433862436,126.13756613756615 183.70370370370372,126.34920634920636 183.0687830687831,126.77248677248679 182.43386243386246,126.98412698412699 181.79894179894183,126.98412698412699 181.16402116402116,127.1957671957672 180.52910052910053,127.40740740740742 179.8941798941799,127.61904761904763 179.25925925925927,127.61904761904763 178.62433862433863,127.61904761904763 177.989417989418,127.61904761904763 177.35449735449737,127.40740740740742 176.71957671957674,127.1957671957672 176.0846560846561,126.98412698412699 175.44973544973547,126.77248677248679 174.81481481481484,126.56084656084657 174.1798941798942,126.34920634920636 173.54497354497354,126.13756613756615 172.9100529100529,125.92592592592594 172.4867724867725,125.5026455026455 171.85185185185188,125.2910052910053 171.21693121693124,125.07936507936509 170.58201058201058,124.65608465608466 169.94708994708995,124.23280423280424 169.31216931216932,124.02116402116403 168.67724867724868,123.59788359788361 168.04232804232805,123.17460317460318 167.40740740740742,122.96296296296298 166.984126984127,122.53968253968254 166.34920634920636,122.11640211640213 165.71428571428572,121.6931216931217 165.0793650793651,121.26984126984128 164.44444444444446,121.05820105820106 164.02116402116403,120.63492063492065 163.59788359788362,120.21164021164022 162.96296296296296,119.7883597883598 162.32804232804233,119.36507936507937 161.6931216931217,118.94179894179895 161.2698412698413,118.51851851851853 160.84656084656086,118.0952380952381 160.42328042328043,117.67195767195768 160.0,117.24867724867725 159.36507936507937,116.82539682539684 158.94179894179896,116.4021164021164 158.51851851851853,115.97883597883599 158.0952380952381,115.55555555555557 157.46031746031747,115.13227513227514 157.03703703703704,114.70899470899472 156.4021164021164,114.28571428571429 155.76719576719577,114.07407407407408 155.13227513227514,113.65079365079366 154.4973544973545,113.43915343915344 153.86243386243387,113.22751322751324 153.22751322751324,113.01587301587303 152.5925925925926,112.80423280423281 151.95767195767198,112.80423280423281 151.32275132275134,112.5925925925926 150.6878306878307,112.5925925925926 150.05291005291005,112.80423280423281 149.41798941798942,112.80423280423281 148.78306878306879,113.01587301587303 148.14814814814815,113.22751322751324 147.51322751322752,113.65079365079366 147.0899470899471,114.07407407407408 146.45502645502646,114.49735449735451 146.03174603174605,114.92063492063492 145.60846560846562,115.55555555555557 145.39682539682542,116.1904761904762 144.973544973545,116.82539682539684 144.76190476190476,117.46031746031747 144.55026455026456,118.0952380952381 144.33862433862436,118.73015873015873 144.12698412698413,119.36507936507937 143.91534391534393,120.00000000000001 143.70370370370372,120.63492063492065 143.4920634920635,121.26984126984128 143.4920634920635,121.90476190476191 143.2804232804233,122.53968253968254 143.0687830687831,123.17460317460318 142.85714285714286,123.80952380952382 142.64550264550266,124.44444444444446 142.64550264550266,125.07936507936509 142.43386243386246,125.71428571428572 142.22222222222223,126.34920634920636 142.43386243386246,126.98412698412699 142.22222222222223,127.61904761904763 142.01058201058203,128.25396825396825 142.01058201058203,128.88888888888889 141.7989417989418,129.52380952380955 141.7989417989418,130.15873015873018 141.5873015873016,130.7936507936508 141.5873015873016,131.42857142857144 141.3756613756614,132.06349206349208 141.3756613756614,132.6984126984127 141.16402116402116,133.33333333333334 141.16402116402116,133.96825396825398 141.16402116402116,134.6031746031746 141.16402116402116,135.23809523809524 140.95238095238096,135.87301587301587 140.95238095238096,136.5079365079365 140.74074074074076,137.14285714285717 140.74074074074076,137.7777777777778 140.74074074074076,138.41269841269843 140.74074074074076,139.04761904761907 140.52910052910053,139.6825396825397 140.52910052910053,140.31746031746033 140.52910052910053,140.95238095238096 140.52910052910053,141.5873015873016 140.52910052910053,142.22222222222223 140.52910052910053,142.85714285714286 140.52910052910053,143.4920634920635 140.52910052910053,144.12698412698413 140.52910052910053,144.76190476190476 140.52910052910053,145.39682539682542 140.52910052910053,146.03174603174605 140.52910052910053,146.66666666666669 140.52910052910053,147.30158730158732 140.52910052910053,147.93650793650795 140.52910052910053,148.57142857142858 140.74074074074076,149.20634920634922 140.74074074074076,149.84126984126985 140.95238095238096,150.47619047619048 140.95238095238096,151.11111111111111 140.95238095238096,151.74603174603175 141.16402116402116,155.34391534391534" style="fill:none; stroke:#999900; stroke-width:1.0"  /><polyline points="141.16402116402116,155.34391534391534 137.7777777777778,154.92063492063494 137.14285714285717,154.92063492063494 136.5079365079365,154.7089947089947 135.87301587301587,154.7089947089947 135.23809523809524,154.4973544973545 134.6031746031746,154.4973544973545 133.96825396825398,154.2857142857143 133.33333333333334,154.2857142857143 132.6984126984127,154.2857142857143 132.06349206349208,154.07407407407408 131.42857142857144,154.07407407407408 130.7936507936508,154.07407407407408 130.15873015873018,154.07407407407408 129.52380952380955,154.07407407407408 128.88888888888889,154.07407407407408 128.25396825396825,153.86243386243387 127.61904761904763,153.86243386243387 126.98412698412699,153.86243386243387 126.34920634920636,153.86243386243387 125.71428571428572,153.86243386243387 125.07936507936509,153.86243386243387 124.44444444444446,153.86243386243387 123.80952380952382,153.86243386243387 123.17460317460318,153.86243386243387 122.53968253968254,153.86243386243387 121.90476190476191,153.86243386243387 121.26984126984128,153.86243386243387 120.63492063492065,153.86243386243387 120.00000000000001,153.86243386243387 119.36507936507937,153.86243386243387 118.73015873015873,153.86243386243387 118.0952380952381,154.07407407407408 117.46031746031747,154.07407407407408 116.82539682539684,154.07407407407408 116.1904761904762,154.07407407407408 115.55555555555557,154.2857142857143 114.92063492063492,154.2857142857143 114.28571428571429,154.2857142857143 113.65079365079366,154.4973544973545 113.01587301587303,154.4973544973545 112.3809523809524,154.4973544973545 111.74603174603176,154.7089947089947 111.11111111111111,154.7089947089947 110.47619047619048,154.92063492063494 109.84126984126985,155.13227513227514 109.20634920634922,155.13227513227514 108.57142857142858,155.34391534391534 107.93650793650795,155.34391534391534 107.3015873015873,155.34391534391534 106.66666666666667,155.55555555555557 106.03174603174604,155.55555555555557 105.3968253968254,155.76719576719577 104.76190476190477,155.76719576719577 104.12698412698414,155.76719576719577 103.4920634920635,155.76719576719577 102.85714285714286,155.76719576719577 102.22222222222223,155.76719576719577 101.5873015873016,155.76719576719577 100.95238095238096,155.76719576719577 100.31746031746033,155.76719576719577 99.68253968253968,155.55555555555557 99.04761904761905,155.55555555555557 98.41269841269842,155.55555555555557 97.77777777777779,155.34391534391534 97.14285714285715,155.34391534391534 96.50793650793652,155.13227513227514 95.87301587301587,155.13227513227514 95.23809523809524,154.92063492063494 94.60317460317461,154.7089947089947 93.96825396825398,154.4973544973545 93.33333333333334,154.2857142857143 92.69841269841271,154.07407407407408 92.06349206349208,153.65079365079367 91.42857142857143,153.43915343915344 90.7936507936508,153.01587301587304 90.37037037037038,152.5925925925926 89.94708994708995,152.16931216931218 89.73544973544975,151.53439153439155 89.52380952380953,150.8994708994709 89.31216931216932,150.26455026455028 89.1005291005291,149.62962962962965 89.1005291005291,148.99470899470901 89.1005291005291,148.35978835978838 89.1005291005291,147.72486772486775 89.1005291005291,147.0899470899471 89.31216931216932,146.45502645502646 89.31216931216932,145.82010582010582 89.52380952380953,145.1851851851852 89.94708994708995,144.55026455026456 90.15873015873017,143.91534391534393 90.37037037037038,143.2804232804233 90.58201058201058,142.64550264550266 91.00529100529101,142.01058201058203 91.21693121693123,141.3756613756614 91.64021164021165,140.74074074074076 92.06349206349208,140.10582010582013 92.27513227513228,139.47089947089947 92.69841269841271,138.83597883597884 92.91005291005291,138.2010582010582 93.33333333333334,137.7777777777778 93.54497354497356,137.14285714285717 93.75661375661376,136.5079365079365 93.96825396825398,135.87301587301587 94.17989417989419,135.23809523809524 94.39153439153439,134.6031746031746 94.39153439153439,133.96825396825398 94.60317460317461,133.33333333333334 94.81481481481482,132.6984126984127 94.81481481481482,132.06349206349208 94.81481481481482,131.42857142857144 94.81481481481482,130.7936507936508 94.60317460317461,130.15873015873018 94.60317460317461,129.52380952380955 94.60317460317461,128.88888888888889 94.39153439153439,128.25396825396825 94.17989417989419,127.61904761904763 93.96825396825398,126.98412698412699 93.54497354497356,126.34920634920636 93.33333333333334,125.71428571428572 93.12169312169313,125.07936507936509 92.69841269841271,124.44444444444446 92.27513227513228,123.80952380952382 91.85185185185186,123.17460317460318 91.42857142857143,122.53968253968254 91.00529100529101,122.11640211640213 90.58201058201058,121.6931216931217 90.37037037037038,121.05820105820106 89.73544973544975,120.63492063492065 89.31216931216932,120.21164021164022 88.8888888888889,119.7883597883598 88.25396825396827,119.36507936507937 87.83068783068784,118.94179894179895 87.40740740740742,118.51851851851853 86.77248677248677,118.0952380952381 86.34920634920636,117.67195767195768 85.71428571428572,117.24867724867725 85.07936507936509,117.03703703703705 84.65608465608466,116.61375661375662 84.02116402116403,116.4021164021164 83.3862433862434,115.97883597883599 82.75132275132276,115.76719576719577 82.11640211640213,115.34391534391536 81.48148148148148,115.13227513227514 80.84656084656085,114.92063492063492 80.21164021164022,114.70899470899472 79.57671957671958,114.70899470899472 78.94179894179895,114.49735449735451 78.30687830687832,114.28571428571429 77.67195767195767,114.28571428571429 77.03703703703704,114.07407407407408 76.4021164021164,114.07407407407408 75.76719576719577,113.86243386243387 75.13227513227514,114.07407407407408 74.49735449735451,114.07407407407408 73.86243386243387,114.07407407407408 73.22751322751323,114.07407407407408 72.5925925925926,114.07407407407408 71.95767195767196,114.07407407407408 71.32275132275133,114.07407407407408 70.6878306878307,114.28571428571429 70.05291005291006,114.28571428571429 69.41798941798942,114.28571428571429 68.78306878306879,114.49735449735451 68.14814814814815,114.70899470899472 67.51322751322752,114.70899470899472 66.87830687830689,114.92063492063492 66.24338624338625,115.13227513227514 65.60846560846561,115.34391534391536 64.97354497354497,115.55555555555557 64.33862433862434,115.76719576719577 63.70370370370371,115.76719576719577 63.06878306878308,116.1904761904762 62.43386243386244,116.4021164021164 61.798941798941804,116.82539682539684 61.16402116402117,117.03703703703705 60.52910052910053,117.46031746031747 59.8941798941799,117.88359788359789 59.25925925925927,118.30687830687832 58.62433862433863,118.73015873015873 58.2010582010582,119.15343915343917 57.777777777777786,119.57671957671958 57.35449735449736,120.21164021164022 56.93121693121694,120.63492063492065 56.50793650793651,121.26984126984128 56.08465608465609,121.90476190476191 55.87301587301588,122.53968253968254 55.661375661375665,123.17460317460318 55.449735449735456,123.80952380952382 55.23809523809524,124.44444444444446 55.02645502645503,125.07936507936509 55.02645502645503,125.71428571428572 55.02645502645503,126.34920634920636 55.02645502645503,126.98412698412699 55.02645502645503,127.61904761904763 55.23809523809524,128.25396825396825 55.23809523809524,128.88888888888889 55.23809523809524,129.52380952380955 55.449735449735456,130.15873015873018 55.449735449735456,130.7936507936508 55.449735449735456,131.42857142857144 55.661375661375665,132.06349206349208 55.661375661375665,132.6984126984127 55.87301587301588,133.33333333333334 56.08465608465609,133.96825396825398 56.08465608465609,134.6031746031746 56.2962962962963,135.23809523809524 56.2962962962963,135.87301587301587 56.50793650793651,136.5079365079365 56.71957671957672,137.14285714285717 56.93121693121694,137.7777777777778 57.142857142857146,138.41269841269843 57.35449735449736,139.04761904761907 57.56613756613757,139.6825396825397 57.989417989417994,140.31746031746033 58.2010582010582,140.95238095238096 58.41269841269842,141.5873015873016 58.62433862433863,142.22222222222223 59.04761904761905,142.85714285714286 59.25925925925927,143.4920634920635 59.682539682539684,144.12698412698413 60.10582010582011,144.55026455026456 60.52910052910053,145.1851851851852 60.74074074074075,145.82010582010582 61.16402116402117,146.24338624338625 61.58730158730159,146.8783068783069 62.01058201058201,147.51322751322752 62.43386243386244,147.93650793650795 62.85714285714286,148.35978835978838 63.06878306878308,148.99470899470901 63.492063492063494,149.62962962962965 63.70370370370371,150.26455026455028 63.91534391534392,150.8994708994709 63.91534391534392,151.53439153439155 63.91534391534392,152.16931216931218 63.91534391534392,152.8042328042328 63.91534391534392,153.43915343915344 63.70370370370371,154.07407407407408 63.70370370370371,154.7089947089947 63.280423280423285,155.34391534391534 63.06878306878308,155.978835978836 62.85714285714286,156.61375661375664 62.43386243386244,157.24867724867727 62.01058201058201,157.67195767195767 61.58730158730159,158.30687830687833 61.16402116402117,158.73015873015873 60.74074074074075,159.15343915343917 60.10582010582011,159.5767195767196 59.470899470899475,160.0 58.83597883597884,160.21164021164023 58.2010582010582,160.42328042328043 57.56613756613757,160.84656084656086 56.93121693121694,161.05820105820106 56.2962962962963,161.2698412698413 55.661375661375665,161.4814814814815 55.02645502645503,161.4814814814815 54.39153439153439,161.6931216931217 53.75661375661376,161.6931216931217 53.12169312169313,162.11640211640213 52.48677248677249,162.11640211640213 51.851851851851855,162.32804232804233 51.21693121693122,162.53968253968256 50.58201058201058,162.75132275132276 49.94708994708995,162.75132275132276 49.31216931216932,162.96296296296296 48.677248677248684,163.1746031746032 48.042328042328045,163.1746031746032 47.40740740740741,163.3862433862434 46.77248677248678,163.59788359788362 46.13756613756614,163.80952380952382 45.50264550264551,163.80952380952382 44.867724867724874,164.02116402116403 44.232804232804234,164.23280423280426 43.5978835978836,164.23280423280426 42.96296296296297,164.44444444444446 42.32804232804233,164.65608465608466 41.6931216931217,164.65608465608466 41.058201058201064,164.8677248677249 40.423280423280424,165.2910052910053 39.78835978835979,165.2910052910053 39.15343915343916,165.50264550264552 38.51851851851852,165.50264550264552 37.883597883597886,165.71428571428572 37.248677248677254,165.71428571428572 36.613756613756614,165.92592592592595 35.97883597883598,166.13756613756615 35.34391534391535,166.13756613756615 34.70899470899471,166.13756613756615 34.074074074074076,166.34920634920636 33.43915343915344,166.56084656084658 32.804232804232804,166.56084656084658 32.16931216931217,166.56084656084658 31.53439153439154,166.7724867724868 30.899470899470902,166.7724867724868 30.264550264550266,166.984126984127 29.629629629629633,166.984126984127 28.994708994708997,167.19576719576722 28.35978835978836,167.19576719576722 27.724867724867728,167.19576719576722 27.089947089947092,167.40740740740742 26.455026455026456,167.40740740740742 25.820105820105823,167.61904761904762 25.185185185185187,167.61904761904762 24.55026455026455,167.61904761904762 23.915343915343918,167.83068783068785 23.280423280423282,167.83068783068785 22.645502645502646,167.83068783068785 22.010582010582013,168.04232804232805 21.375661375661377,168.04232804232805 20.740740740740744,168.04232804232805 20.105820105820108,168.25396825396825 19.47089947089947,168.25396825396825 18.83597883597884,168.25396825396825 18.201058201058203,168.25396825396825 17.566137566137566,168.46560846560848 16.931216931216934,168.46560846560848 16.296296296296298,168.46560846560848 15.661375661375663,168.67724867724868 15.026455026455027,168.67724867724868 11.851851851851853,169.10052910052912" style="fill:none; stroke:#00aa99; stroke-width:1.0"  /><polyline points="11.851851851851853,169.10052910052912 11.851851851851853,165.71428571428572 11.851851851851853,165.0793650793651 11.851851851851853,164.44444444444446 11.851851851851853,163.80952380952382 11.851851851851853,163.1746031746032 12.063492063492065,162.53968253968256 11.851851851851853,161.90476190476193 12.063492063492065,161.2698412698413 12.063492063492065,160.63492063492066 12.063492063492065,160.0 12.063492063492065,159.36507936507937 12.063492063492065,158.73015873015873 12.063492063492065,158.0952380952381 12.063492063492065,157.46031746031747 12.063492063492065,156.82539682539684 12.063492063492065,156.1904761904762 12.063492063492065,155.55555555555557 12.063492063492065,154.92063492063494 12.063492063492065,154.2857142857143 12.063492063492065,153.65079365079367 12.063492063492065,153.01587301587304 11.851851851851853,152.38095238095238 11.851851851851853,151.74603174603175 11.851851851851853,151.11111111111111 11.851851851851853,150.47619047619048 11.851851851851853,149.84126984126985 11.640211640211641,149.20634920634922 11.640211640211641,148.57142857142858 11.640211640211641,147.93650793650795 11.640211640211641,147.30158730158732 11.428571428571429,146.66666666666669 11.428571428571429,146.03174603174605 11.216931216931219,145.39682539682542 11.216931216931219,144.76190476190476 11.216931216931219,144.12698412698413 11.005291005291006,143.4920634920635 11.005291005291006,142.85714285714286 10.793650793650794,142.22222222222223 10.793650793650794,141.5873015873016 10.582010582010582,140.95238095238096 10.582010582010582,140.31746031746033 10.370370370370372,139.6825396825397 10.370370370370372,139.04761904761907 10.15873015873016,138.41269841269843 9.947089947089948,137.7777777777778 9.947089947089948,137.14285714285717 9.735449735449736,136.5079365079365 9.735449735449736,135.87301587301587 9.523809523809524,135.23809523809524 9.523809523809524,134.6031746031746 9.312169312169313,133.96825396825398 9.100529100529101,133.33333333333334 9.100529100529101,132.6984126984127 8.88888888888889,132.06349206349208 8.88888888888889,131.42857142857144 8.677248677248677,130.7936507936508 8.677248677248677,130.15873015873018 8.465608465608467,129.52380952380955 8.465608465608467,128.88888888888889 8.253968253968255,128.25396825396825 8.253968253968255,127.61904761904763 7.830687830687832,126.98412698412699 7.830687830687832,126.34920634920636 7.6190476190476195,125.71428571428572 7.6190476190476195,125.07936507936509 7.407407407407408,124.44444444444446 7.407407407407408,123.80952380952382 7.407407407407408,123.17460317460318 7.195767195767196,122.53968253968254 7.195767195767196,121.90476190476191 6.984126984126985,121.26984126984128 6.984126984126985,120.63492063492065 6.984126984126985,120.00000000000001 6.984126984126985,119.36507936507937 6.772486772486773,118.73015873015873 6.772486772486773,118.0952380952381 6.772486772486773,117.46031746031747 6.772486772486773,116.82539682539684 6.560846560846561,116.1904761904762 6.560846560846561,115.55555555555557 6.560846560846561,114.92063492063492 6.560846560846561,114.28571428571429 6.34920634920635,113.65079365079366 6.34920634920635,113.01587301587303 6.34920634920635,112.3809523809524 6.34920634920635,111.74603174603176 6.34920634920635,111.11111111111111 6.34920634920635,110.47619047619048 6.34920634920635,109.84126984126985 6.560846560846561,109.20634920634922 6.560846560846561,108.57142857142858 6.560846560846561,107.93650793650795 6.560846560846561,107.3015873015873 6.560846560846561,106.66666666666667 6.772486772486773,106.03174603174604 6.984126984126985,105.3968253968254 7.407407407407408,104.76190476190477 7.6190476190476195,104.12698412698414 8.042328042328043,103.70370370370371 8.465608465608467,103.28042328042329 9.100529100529101,102.85714285714286 9.735449735449736,102.64550264550266 10.370370370370372,102.43386243386244 11.005291005291006,102.22222222222223 11.640211640211641,102.22222222222223 12.275132275132275,102.01058201058201 12.910052910052912,102.01058201058201 13.544973544973546,102.01058201058201 14.17989417989418,102.22222222222223 14.814814814814817,102.22222222222223 15.449735449735451,102.43386243386244 16.084656084656086,102.64550264550266 16.71957671957672,102.85714285714286 17.354497354497354,103.06878306878308 17.98941798941799,103.28042328042329 18.624338624338627,103.70370370370371 19.25925925925926,103.91534391534393 19.894179894179896,104.33862433862434 20.529100529100532,104.55026455026456 21.164021164021165,104.76190476190477 21.7989417989418,104.97354497354497 22.433862433862437,105.3968253968254 23.06878306878307,105.60846560846562 23.703703703703706,105.82010582010582 24.338624338624342,106.03174603174604 24.973544973544975,106.24338624338625 25.60846560846561,106.45502645502647 26.243386243386244,106.66666666666667 26.87830687830688,106.87830687830689 27.513227513227516,107.0899470899471 28.14814814814815,107.0899470899471 28.783068783068785,107.3015873015873 29.41798941798942,107.3015873015873 30.052910052910054,107.3015873015873 30.68783068783069,107.3015873015873 31.322751322751326,107.3015873015873 31.95767195767196,107.3015873015873 32.592592592592595,107.3015873015873 33.22751322751323,107.0899470899471 33.86243386243387,107.0899470899471 34.4973544973545,107.0899470899471 35.13227513227513,106.87830687830689 35.76719576719577,106.66666666666667 36.402116402116405,106.45502645502647 37.03703703703704,106.45502645502647 37.67195767195768,106.03174603174604 38.30687830687831,105.60846560846562 38.94179894179894,105.3968253968254 39.57671957671958,104.97354497354497 40.211640211640216,104.76190476190477 40.63492063492064,104.33862433862434 41.058201058201064,103.70370370370371 41.48148148148149,103.28042328042329 41.904761904761905,102.64550264550266 42.32804232804233,102.22222222222223 42.75132275132275,101.5873015873016 43.17460317460318,100.95238095238096 43.5978835978836,100.31746031746033 43.80952380952381,99.68253968253968 44.021164021164026,99.04761904761905 44.44444444444445,98.41269841269842 44.65608465608466,97.77777777777779 44.867724867724874,97.14285714285715 45.07936507936508,96.50793650793652 45.29100529100529,95.87301587301587 45.50264550264551,95.23809523809524 45.50264550264551,94.60317460317461 45.714285714285715,93.96825396825398 45.714285714285715,93.33333333333334 45.92592592592593,92.69841269841271 46.13756613756614,92.06349206349208 45.92592592592593,91.42857142857143 45.92592592592593,90.7936507936508 46.13756613756614,90.15873015873017 46.13756613756614,89.52380952380953 46.13756613756614,88.8888888888889 46.13756613756614,88.25396825396827 46.13756613756614,87.61904761904762 46.13756613756614,86.98412698412699 46.13756613756614,86.34920634920636 45.92592592592593,85.71428571428572 45.92592592592593,85.07936507936509 45.92592592592593,84.44444444444446 45.714285714285715,83.80952380952381 45.714285714285715,83.17460317460318 45.50264550264551,82.53968253968254 45.50264550264551,81.90476190476191 45.29100529100529,81.26984126984128 45.07936507936508,80.63492063492065 44.867724867724874,80.0 44.65608465608466,79.36507936507937 44.44444444444445,78.73015873015873 44.232804232804234,78.0952380952381 43.80952380952381,77.46031746031747 43.5978835978836,76.82539682539684 43.17460317460318,76.19047619047619 42.96296296296297,75.55555555555556 42.539682539682545,75.13227513227514 42.32804232804233,74.49735449735451 41.904761904761905,74.07407407407408 41.48148148148149,73.65079365079366 41.058201058201064,73.01587301587303 40.63492063492064,72.5925925925926 40.0,72.16931216931218 39.36507936507937,71.74603174603175 38.94179894179894,71.32275132275133 38.30687830687831,70.8994708994709 37.67195767195768,70.47619047619048 37.03703703703704,70.26455026455027 36.613756613756614,69.84126984126985 35.97883597883598,69.62962962962963 35.34391534391535,69.20634920634922 34.70899470899471,68.994708994709 34.074074074074076,68.78306878306879 33.43915343915344,68.78306878306879 32.804232804232804,68.57142857142858 32.16931216931217,68.57142857142858 31.53439153439154,68.57142857142858 30.899470899470902,68.57142857142858 30.264550264550266,68.57142857142858 29.629629629629633,68.78306878306879 28.994708994708997,68.78306878306879 28.35978835978836,68.994708994709 27.724867724867728,69.20634920634922 27.089947089947092,69.20634920634922 26.455026455026456,69.41798941798942 25.820105820105823,69.62962962962963 25.185185185185187,69.84126984126985 24.55026455026455,70.05291005291006 23.915343915343918,70.47619047619048 23.280423280423282,70.6878306878307 22.645502645502646,70.8994708994709 22.010582010582013,71.32275132275133 21.375661375661377,71.53439153439155 20.740740740740744,71.95767195767196 20.105820105820108,72.16931216931218 19.47089947089947,72.5925925925926 18.83597883597884,73.01587301587303 18.201058201058203,73.43915343915344 17.566137566137566,73.86243386243387 16.931216931216934,74.07407407407408 16.50793650793651,74.49735449735451 15.873015873015873,74.92063492063492 15.238095238095239,75.13227513227514 14.603174603174605,75.34391534391536 14.17989417989418,75.76719576719577 13.544973544973546,75.97883597883599 12.910052910052912,76.19047619047619 12.275132275132275,76.61375661375662 11.640211640211641,76.61375661375662 11.005291005291006,76.82539682539684 10.370370370370372,76.82539682539684 9.735449735449736,76.82539682539684 9.100529100529101,76.82539682539684 8.465608465608467,76.82539682539684 7.830687830687832,76.61375661375662 7.195767195767196,76.4021164021164 6.560846560846561,75.97883597883599 5.9259259259259265,75.76719576719577 5.502645502645503,75.34391534391536 5.07936507936508,74.92063492063492 4.656084656084657,74.49735449735451 4.2328042328042335,73.86243386243387 3.8095238095238098,73.22751322751323 3.3862433862433865,72.5925925925926 3.174603174603175,71.95767195767196 2.9629629629629632,71.32275132275133 2.53968253968254,70.6878306878307 2.3280423280423284,70.05291005291006 2.1164021164021167,69.41798941798942 1.9047619047619049,68.78306878306879 1.9047619047619049,68.14814814814815 1.6931216931216932,67.51322751322752 1.4814814814814816,66.87830687830689 1.26984126984127,66.24338624338625 1.26984126984127,65.60846560846561 1.0582010582010584,64.97354497354497 1.0582010582010584,64.33862433862434 0.8465608465608466,63.70370370370371 0.634920634920635,63.06878306878308 0.634920634920635,62.43386243386244 0.634920634920635,61.798941798941804 0.634920634920635,61.16402116402117 0.4232804232804233,60.52910052910053 0.4232804232804233,59.8941798941799 0.4232804232804233,59.25925925925927 0.4232804232804233,58.62433862433863 0.4232804232804233,57.989417989417994 0.4232804232804233,57.35449735449736 0.21164021164021166,56.71957671957672 0.21164021164021166,56.08465608465609 0.21164021164021166,55.449735449735456 0.21164021164021166,54.81481481481482 0.21164021164021166,54.179894179894184 0.21164021164021166,53.54497354497355 0.21164021164021166,52.91005291005291 0.21164021164021166,52.27513227513228 0.21164021164021166,51.640211640211646 0.21164021164021166,51.00529100529101 0.21164021164021166,50.370370370370374 0.4232804232804233,49.73544973544974 0.4232804232804233,49.1005291005291 0.4232804232804233,48.46560846560847 0.634920634920635,47.830687830687836 0.634920634920635,47.195767195767196 0.634920634920635,46.560846560846564 0.634920634920635,45.92592592592593 0.8465608465608466,45.29100529100529 0.8465608465608466,44.65608465608466 0.8465608465608466,44.021164021164026 1.0582010582010584,43.386243386243386 1.0582010582010584,42.75132275132275 1.26984126984127,42.11640211640212 1.26984126984127,41.48148148148149 1.26984126984127,40.84656084656085 1.4814814814814816,40.211640211640216 1.4814814814814816,39.57671957671958 1.6931216931216932,38.94179894179894 1.6931216931216932,38.30687830687831 1.9047619047619049,37.67195767195768 1.9047619047619049,37.03703703703704 2.1164021164021167,36.402116402116405 2.3280423280423284,35.76719576719577 2.3280423280423284,35.13227513227513 2.53968253968254,34.4973544973545 2.7513227513227516,33.86243386243387 2.7513227513227516,33.22751322751323 2.9629629629629632,32.592592592592595 3.174603174603175,31.95767195767196 3.3862433862433865,31.322751322751326 3.3862433862433865,30.68783068783069 3.597883597883598,30.052910052910054 3.597883597883598,29.41798941798942 3.8095238095238098,28.783068783068785 4.021164021164021,28.14814814814815 4.2328042328042335,27.513227513227516 4.444444444444445,26.87830687830688 4.444444444444445,26.243386243386244 4.656084656084657,25.60846560846561 4.867724867724868,24.973544973544975 5.07936507936508,24.338624338624342 5.291005291005291,23.703703703703706 5.291005291005291,23.06878306878307 5.502645502645503,22.433862433862437 5.502645502645503,21.7989417989418 5.714285714285714,21.164021164021165 5.9259259259259265,20.529100529100532 6.137566137566138,19.894179894179896 6.137566137566138,19.25925925925926 6.560846560846561,18.624338624338627 6.560846560846561,17.98941798941799 6.772486772486773,17.354497354497354 6.984126984126985,16.71957671957672 7.195767195767196,16.084656084656086 7.407407407407408,15.449735449735451 7.6190476190476195,14.814814814814817 7.830687830687832,14.17989417989418 8.042328042328043,13.544973544973546 8.253968253968255,12.910052910052912 8.465608465608467,12.275132275132275 8.677248677248677,11.640211640211641 8.88888888888889,11.005291005291006 9.100529100529101,10.370370370370372 9.312169312169313,9.735449735449736 9.523809523809524,9.100529100529101 9.735449735449736,8.465608465608467 9.947089947089948,7.830687830687832 10.15873015873016,7.195767195767196 10.15873015873016,6.560846560846561 10.582010582010582,5.9259259259259265 10.582010582010582,5.291005291005291 10.793650793650794,4.656084656084657 11.005291005291006,4.021164021164021 12.063492063492065,0.4232804232804233" style="fill:none; stroke:#3300bb; stroke-width:1.0"  /><circle cx="12.063492063492065" cy="0.4232804232804233" r="2.0" style="fill:none; stroke:#000000aa; stroke-width:0.25" /><circle cx="146.03174603174605" cy="13.96825396825397" r="2.0" style="fill:none; stroke:#000000aa; stroke-width:0.25" /><circle cx="141.16402116402116" cy="155.34391534391534" r="2.0" style="fill:none; stroke:#000000aa; stroke-width:0.25" /><circle cx="11.851851851851853" cy="169.10052910052912" r="2.0" style="fill:none; stroke:#000000aa; stroke-width:0.25" /><circle cx="12.275132275132275" cy="1.0582010582010584" r="2.0" style="fill:none; stroke:#ff3366aa; stroke-width:0.25" /><circle cx="145.82010582010582" cy="14.17989417989418" r="2.0" style="fill:none; stroke:#ff3366aa; stroke-width:0.25" /><circle cx="140.95238095238096" cy="155.34391534391534" r="2.0" style="fill:none; stroke:#ff3366aa; stroke-width:0.25" /><circle cx="11.851851851851853" cy="168.8888888888889" r="2.0" style="fill:none; stroke:#ff3366aa; stroke-width:0.25" /><polyline points="24.12698412698413,2.9629629629629632 23.492063492063494,2.7513227513227516 22.857142857142858,2.7513227513227516 22.222222222222225,2.7513227513227516 21.7989417989418,2.3280423280423284 21.164021164021165,2.3280423280423284 20.529100529100532,2.3280423280423284 19.894179894179896,2.1164021164021167 19.25925925925926,2.1164021164021167 18.624338624338627,1.9047619047619049 17.98941798941799,1.6931216931216932 17.354497354497354,1.6931216931216932 16.71957671957672,1.4814814814814816 16.084656084656086,1.4814814814814816 15.449735449735451,1.0582010582010584" style="fill:none; stroke:#001100; stroke-width:1.0" /><polyline points="8.465608465608467,12.275132275132275 8.677248677248677,11.640211640211641 8.88888888888889,11.005291005291006 9.100529100529101,10.370370370370372 9.312169312169313,9.735449735449736 9.523809523809524,9.100529100529101 9.735449735449736,8.465608465608467 9.947089947089948,7.830687830687832 10.15873015873016,7.195767195767196 10.15873015873016,6.560846560846561 10.582010582010582,5.9259259259259265 10.582010582010582,5.291005291005291 10.793650793650794,4.656084656084657 11.005291005291006,4.021164021164021" style="fill:none; stroke:#000011; stroke-width:1.0" /><polyline points="148.78306878306879,25.60846560846561 148.78306878306879,24.973544973544975 148.57142857142858,24.338624338624342 148.57142857142858,23.703703703703706 148.35978835978838,23.06878306878307 148.35978835978838,22.433862433862437 147.93650793650795,21.7989417989418 147.72486772486775,21.164021164021165 147.51322751322752,20.529100529100532 147.30158730158732,19.894179894179896 147.30158730158732,19.25925925925926 147.0899470899471,18.624338624338627 146.8783068783069,17.98941798941799 146.8783068783069,17.354497354497354" style="fill:none; stroke:#001100; stroke-width:1.0" /><polyline points="134.3915343915344,17.354497354497354 135.02645502645504,17.142857142857146 135.66137566137567,17.142857142857146 136.2962962962963,16.931216931216934 136.93121693121694,16.71957671957672 137.56613756613757,16.71957671957672 138.2010582010582,16.50793650793651 138.83597883597884,16.50793650793651 139.47089947089947,16.084656084656086 140.10582010582013,15.873015873015873 140.74074074074076,15.661375661375663 141.3756613756614,15.449735449735451 142.01058201058203,15.238095238095239 142.64550264550266,15.026455026455027" style="fill:none; stroke:#000011; stroke-width:1.0" /><polyline points="129.52380952380955,154.07407407407408 130.15873015873018,154.07407407407408 130.7936507936508,154.07407407407408 131.42857142857144,154.07407407407408 132.06349206349208,154.07407407407408 132.6984126984127,154.2857142857143 133.33333333333334,154.2857142857143 133.96825396825398,154.2857142857143 134.6031746031746,154.4973544973545 135.23809523809524,154.4973544973545 135.87301587301587,154.7089947089947 136.5079365079365,154.7089947089947 137.14285714285717,154.92063492063494 137.7777777777778,154.92063492063494" style="fill:none; stroke:#001100; stroke-width:1.0" /><polyline points="140.52910052910053,143.4920634920635 140.52910052910053,144.12698412698413 140.52910052910053,144.76190476190476 140.52910052910053,145.39682539682542 140.52910052910053,146.03174603174605 140.52910052910053,146.66666666666669 140.52910052910053,147.30158730158732 140.52910052910053,147.93650793650795 140.52910052910053,148.57142857142858 140.74074074074076,149.20634920634922 140.74074074074076,149.84126984126985 140.95238095238096,150.47619047619048 140.95238095238096,151.11111111111111 140.95238095238096,151.74603174603175 140.95238095238096,152.38095238095238" style="fill:none; stroke:#000011; stroke-width:1.0" /><polyline points="12.063492063492065,157.46031746031747 12.063492063492065,158.0952380952381 12.063492063492065,158.73015873015873 12.063492063492065,159.36507936507937 12.063492063492065,160.0 12.063492063492065,160.63492063492066 12.063492063492065,161.2698412698413 11.851851851851853,161.90476190476193 12.063492063492065,162.53968253968256 11.851851851851853,163.1746031746032 11.851851851851853,163.80952380952382 11.851851851851853,164.44444444444446 11.851851851851853,165.0793650793651 11.851851851851853,165.71428571428572" style="fill:none; stroke:#001100; stroke-width:1.0" /><polyline points="23.280423280423282,167.83068783068785 22.645502645502646,167.83068783068785 22.010582010582013,168.04232804232805 21.375661375661377,168.04232804232805 20.740740740740744,168.04232804232805 20.105820105820108,168.25396825396825 19.47089947089947,168.25396825396825 18.83597883597884,168.25396825396825 18.201058201058203,168.25396825396825 17.566137566137566,168.46560846560848 16.931216931216934,168.46560846560848 16.296296296296298,168.46560846560848 15.661375661375663,168.67724867724868 15.026455026455027,168.67724867724868" style="fill:none; stroke:#000011; stroke-width:1.0" /><polyline points="15.449735449735451,1.0582010582010584 -5.291005291005291,-3.3862433862433865" style="fill:none; stroke:#ffaa00; stroke-width:0.4" /><polyline points="11.005291005291006,4.021164021164021 17.142857142857146,-16.296296296296298" style="fill:none; stroke:#aaff00; stroke-width:0.4" /><polyline points="146.8783068783069,17.354497354497354 142.22222222222223,-3.174603174603175" style="fill:none; stroke:#ffaa00; stroke-width:0.4" /><polyline points="142.64550264550266,15.026455026455027 162.96296296296296,9.312169312169313" style="fill:none; stroke:#aaff00; stroke-width:0.4" /><polyline points="137.7777777777778,154.92063492063494 158.73015873015873,157.03703703703704" style="fill:none; stroke:#ffaa00; stroke-width:0.4" /><polyline points="140.95238095238096,152.38095238095238 142.01058201058203,173.54497354497354" style="fill:none; stroke:#aaff00; stroke-width:0.4" /><polyline points="11.851851851851853,165.71428571428572 11.216931216931219,186.8783068783069" style="fill:none; stroke:#ffaa00; stroke-width:0.4" /><polyline points="15.026455026455027,168.67724867724868 -5.9259259259259265,170.7936507936508" style="fill:none; stroke:#aaff00; stroke-width:0.4" /><circle cx="82.75132275132276" cy="82.96296296296298" r="1.0" style="fill:#444444; stroke-width:0" /><circle cx="110.6878306878307" cy="89.1005291005291" r="10.582010582010582" style="fill:#ff770022; stroke-width:0" /><circle cx="110.6878306878307" cy="89.1005291005291" r="1.0" style="fill:#ff7700; stroke-width:0" /></svg>