<?xml version="1.0" encoding="UTF-8" standalone="no"?><svg width="493.96825396825403" height="578.4126984126984" viewBox="-10 -10 184.65608465608466 212.8042328042328" xmlns="http://www.w3.org/2000/svg" xmlns:xlink="http://www.w3.org/1999/xlink"><polyline points="0.0,44.232804232804234 3.174603174603175,43.17460317460318 3.8095238095238098,42.96296296296297 4.444444444444445,42.75132275132275 5.07936507936508,42.539682539682545 5.714285714285714,42.32804232804233 6.34920634920635,42.11640211640212 6.984126984126985,42.11640211640212 7.407407407407408,41.6931216931217 8.042328042328043,41.48148148148149 8.677248677248677,41.26984126984127 9.312169312169313,41.058201058201064 9.947089947089948,40.84656084656085 10.582010582010582,40.423280423280424 11.216931216931219,40.211640211640216 11.851851851851853,40.0 12.486772486772487,39.57671957671958 13.121693121693122,39.36507936507937 13.756613756613758,38.94179894179894 14.391534391534393,38.51851851851852 15.026455026455027,38.30687830687831 15.661375661375663,37.883597883597886 16.296296296296298,37.67195767195768 16.931216931216934,37.46031746031746 17.566137566137566,37.03703703703704 18.201058201058203,36.82539682539683 18.83597883597884,36.402116402116405 19.47089947089947,35.97883597883598 20.105820105820108,35.76719576719577 20.740740740740744,35.34391534391535 21.375661375661377,34.920634920634924 21.7989417989418,34.4973544973545 22.433862433862437,34.074074074074076 22.857142857142858,33.65079365079365 23.280423280423282,33.22751322751323 23.915343915343918,32.804232804232804 24.338624338624342,32.38095238095239 24.973544973544975,31.95767195767196 25.60846560846561,31.53439153439154 26.243386243386244,31.111111111111114 26.666666666666668,30.68783068783069 27.089947089947092,30.264550264550266 27.724867724867728,29.841269841269842 28.35978835978836,29.629629629629633 28.783068783068785,29.20634920634921 29.41798941798942,28.994708994708997 29.841269841269842,28.571428571428573 30.476190476190478,28.35978835978836 31.111111111111114,27.93650793650794 31.746031746031747,27.724867724867728 32.38095238095239,27.301587301587304 33.01587301587302,27.089947089947092 33.65079365079365,26.87830687830688 34.28571428571429,26.87830687830688 34.920634920634924,26.666666666666668 35.55555555555556,26.666666666666668 36.19047619047619,26.666666666666668 36.82539682539683,26.666666666666668 37.248677248677254,27.089947089947092 37.883597883597886,27.301587301587304 38.51851851851852,27.513227513227516 38.94179894179894,27.93650793650794 39.57671957671958,28.35978835978836 40.0,28.783068783068785 40.423280423280424,29.20634920634921 40.84656084656085,29.629629629629633 41.26984126984127,30.264550264550266 41.6931216931217,30.899470899470902 41.904761904761905,31.53439153439154 42.11640211640212,32.16931216931217 42.32804232804233,32.804232804232804 42.32804232804233,33.43915343915344 42.75132275132275,34.074074074074076 42.75132275132275,34.70899470899471 42.75132275132275,35.34391534391535 42.96296296296297,35.97883597883598 42.96296296296297,36.613756613756614 42.96296296296297,37.248677248677254 42.96296296296297,37.883597883597886 43.17460317460318,38.51851851851852 43.17460317460318,39.15343915343916 43.17460317460318,39.78835978835979 43.17460317460318,40.423280423280424 43.386243386243386,41.058201058201064 43.386243386243386,41.6931216931217 43.5978835978836,42.32804232804233 43.5978835978836,42.96296296296297 43.5978835978836,43.5978835978836 43.80952380952381,44.232804232804234 44.021164021164026,44.867724867724874 44.232804232804234,45.50264550264551 44.44444444444445,46.13756613756614 44.65608465608466,46.77248677248678 44.867724867724874,47.40740740740741 45.07936507936508,48.042328042328045 45.29100529100529,48.677248677248684 45.714285714285715,49.31216931216932 45.92592592592593,49.94708994708995 46.349206349206355,50.58201058201058 46.77248677248678,51.21693121693122 47.195767195767196,51.851851851851855 47.61904761904762,52.48677248677249 48.042328042328045,53.12169312169313 48.46560846560847,53.75661375661376 48.88888888888889,54.179894179894184 49.31216931216932,54.60317460317461 49.73544973544974,55.02645502645503 50.158730158730165,55.449735449735456 50.58201058201058,55.87301587301588 51.21693121693122,56.2962962962963 51.640211640211646,56.71957671957672 52.27513227513228,57.142857142857146 52.91005291005291,57.35449735449736 53.54497354497355,57.56613756613757 53.968253968253975,57.989417989417994 54.60317460317461,57.989417989417994 55.23809523809524,58.2010582010582 55.87301587301588,58.62433862433863 56.50793650793651,58.62433862433863 57.142857142857146,58.62433862433863 57.777777777777786,58.83597883597884 58.41269841269842,59.04761904761905 59.04761904761905,59.04761904761905 59.682539682539684,59.04761904761905 60.31746031746032,59.04761904761905 60.952380952380956,59.25925925925927 61.58730158730159,59.04761904761905 62.22222222222223,59.04761904761905 62.85714285714286,58.83597883597884 63.492063492063494,58.62433862433863 64.12698412698413,58.62433862433863 64.76190476190477,58.62433862433863 65.3968253968254,58.41269841269842 66.03174603174604,58.2010582010582 66.66666666666667,57.989417989417994 67.3015873015873,57.777777777777786 67.93650793650794,57.56613756613757 68.57142857142858,57.35449735449736 69.20634920634922,57.142857142857146 69.84126984126985,56.93121693121694 70.47619047619048,56.71957671957672 71.11111111111111,56.50793650793651 71.74603174603175,56.08465608465609 72.38095238095238,55.87301587301588 72.80423280423281,55.449735449735456 73.43915343915344,55.02645502645503 74.07407407407408,54.81481481481482 74.49735449735451,54.39153439153439 74.92063492063492,53.968253968253975 75.55555555555556,53.75661375661376 75.97883597883599,53.333333333333336 76.61375661375662,52.91005291005291 77.03703703703704,52.48677248677249 77.46031746031747,51.851851851851855 77.88359788359789,51.42857142857143 78.30687830687832,51.00529100529101 78.73015873015873,50.58201058201058 79.15343915343917,49.94708994708995 79.57671957671958,49.523809523809526 80.0,48.88888888888889 80.42328042328043,48.25396825396826 80.84656084656085,47.61904761904762 81.26984126984128,46.98412698412699 81.48148148148148,46.349206349206355 81.6931216931217,45.714285714285715 82.11640211640213,45.07936507936508 82.32804232804233,44.44444444444445 82.53968253968254,43.80952380952381 82.75132275132276,43.17460317460318 82.96296296296298,42.539682539682545 82.96296296296298,41.904761904761905 83.17460317460318,41.26984126984127 83.17460317460318,40.63492063492064 83.17460317460318,40.0 83.17460317460318,39.36507936507937 83.17460317460318,38.730158730158735 83.17460317460318,38.095238095238095 82.96296296296298,37.46031746031746 82.75132275132276,36.82539682539683 82.75132275132276,36.19047619047619 82.53968253968254,35.55555555555556 82.32804232804233,34.920634920634924 82.11640211640213,34.28571428571429 81.6931216931217,33.86243386243387 81.48148148148148,33.22751322751323 81.05820105820106,32.592592592592595 80.63492063492065,31.95767195767196 80.21164021164022,31.322751322751326 79.7883597883598,30.68783068783069 79.36507936507937,30.052910052910054 78.94179894179895,29.629629629629633 78.51851851851852,29.20634920634921 77.88359788359789,28.783068783068785 77.46031746031747,28.35978835978836 77.03703703703704,27.93650793650794 76.61375661375662,27.513227513227516 75.97883597883599,27.089947089947092 75.55555555555556,26.666666666666668 75.13227513227514,26.243386243386244 74.70899470899471,25.820105820105823 74.28571428571429,25.3968253968254 73.86243386243387,24.973544973544975 73.22751322751323,24.55026455026455 72.80423280423281,24.12698412698413 72.38095238095238,23.703703703703706 71.95767195767196,23.280423280423282 71.53439153439155,22.857142857142858 71.11111111111111,22.433862433862437 70.6878306878307,22.010582010582013 70.26455026455027,21.58730158730159 69.84126984126985,21.164021164021165 69.41798941798942,20.529100529100532 68.994708994709,19.894179894179896 68.78306878306879,19.25925925925926 68.35978835978837,18.83597883597884 68.14814814814815,18.201058201058203 68.14814814814815,17.566137566137566 67.93650793650794,16.931216931216934 67.72486772486774,16.296296296296298 67.72486772486774,15.661375661375663 67.72486772486774,15.026455026455027 67.72486772486774,14.391534391534393 68.14814814814815,13.756613756613758 68.35978835978837,13.121693121693122 68.78306878306879,12.486772486772487 69.20634920634922,11.851851851851853 69.62962962962963,11.428571428571429 70.05291005291006,11.005291005291006 70.47619047619048,10.582010582010582 71.11111111111111,10.15873015873016 71.74603174603175,9.735449735449736 72.38095238095238,9.312169312169313 73.01587301587303,8.88888888888889 73.65079365079366,8.465608465608467 74.28571428571429,8.253968253968255 74.70899470899471,7.830687830687832 75.34391534391536,7.6190476190476195 75.97883597883599,7.407407407407408 76.4021164021164,6.984126984126985 77.03703703703704,6.772486772486773 77.67195767195767,6.560846560846561 78.30687830687832,6.137566137566138 78.94179894179895,5.9259259259259265 79.57671957671958,5.714285714285714 80.21164021164022,5.291005291005291 80.84656084656085,5.07936507936508 81.48148148148148,4.656084656084657 82.11640211640213,4.444444444444445 82.75132275132276,4.444444444444445 83.3862433862434,4.2328042328042335 83.80952380952381,3.8095238095238098 84.44444444444446,3.8095238095238098 85.07936507936509,3.597883597883598 85.71428571428572,3.3862433862433865 86.34920634920636,3.3862433862433865 86.98412698412699,3.174603174603175 87.61904761904762,2.9629629629629632 88.25396825396827,2.9629629629629632 88.8888888888889,2.7513227513227516 89.52380952380953,2.7513227513227516 90.15873015873017,2.53968253968254 90.7936507936508,2.53968253968254 91.42857142857143,2.53968253968254 92.06349206349208,2.3280423280423284 92.69841269841271,2.3280423280423284 93.33333333333334,2.1164021164021167 93.96825396825398,2.1164021164021167 94.60317460317461,1.9047619047619049 95.23809523809524,1.9047619047619049 95.87301587301587,1.6931216931216932 96.50793650793652,1.4814814814814816 97.14285714285715,1.4814814814814816 97.77777777777779,1.26984126984127 98.41269841269842,1.0582010582010584 99.04761904761905,1.0582010582010584 99.68253968253968,0.8465608465608466 102.85714285714286,0.21164021164021166" style="fill:none; stroke:#cc0000; stroke-width:1.0"  /><polyline points="102.85714285714286,0.21164021164021166 103.70370370370371,3.597883597883598 103.91534391534393,4.2328042328042335 104.12698412698414,4.867724867724868 104.12698412698414,5.502645502645503 104.33862433862434,6.137566137566138 104.55026455026456,6.772486772486773 104.76190476190477,7.407407407407408 104.97354497354497,8.042328042328043 104.97354497354497,8.677248677248677 105.18518518518519,9.312169312169313 105.3968253968254,9.947089947089948 105.60846560846562,10.582010582010582 105.82010582010582,11.216931216931219 106.03174603174604,11.851851851851853 106.03174603174604,12.486772486772487 106.24338624338625,13.121693121693122 106.45502645502647,13.756613756613758 106.66666666666667,14.391534391534393 106.87830687830689,15.026455026455027 106.87830687830689,15.661375661375663 106.87830687830689,16.296296296296298 107.0899470899471,16.931216931216934 107.3015873015873,17.566137566137566 107.51322751322752,18.201058201058203 107.51322751322752,18.83597883597884 107.72486772486774,19.47089947089947 107.93650793650795,20.105820105820108 108.14814814814815,20.740740740740744 108.35978835978837,21.375661375661377 108.35978835978837,22.010582010582013 108.57142857142858,22.645502645502646 108.78306878306879,23.280423280423282 108.78306878306879,23.915343915343918 108.994708994709,24.55026455026455 109.20634920634922,25.185185185185187 109.41798941798943,25.820105820105823 109.62962962962963,26.455026455026456 109.84126984126985,27.089947089947092 109.84126984126985,27.724867724867728 110.05291005291006,28.35978835978836 110.26455026455027,28.994708994708997 110.47619047619048,29.629629629629633 110.47619047619048,30.264550264550266 110.6878306878307,30.899470899470902 110.89947089947091,31.53439153439154 110.89947089947091,32.16931216931217 111.11111111111111,32.804232804232804 111.32275132275133,33.43915343915344 111.53439153439155,34.074074074074076 111.74603174603176,34.70899470899471 111.74603174603176,35.34391534391535 111.95767195767196,35.97883597883598 112.16931216931218,36.613756613756614 112.3809523809524,37.248677248677254 112.3809523809524,37.883597883597886 112.5925925925926,38.51851851851852 112.5925925925926,39.15343915343916 112.80423280423281,39.78835978835979 112.80423280423281,40.423280423280424 113.01587301587303,41.058201058201064 113.22751322751324,41.6931216931217 113.22751322751324,42.32804232804233 113.43915343915344,42.96296296296297 113.43915343915344,43.5978835978836 113.65079365079366,44.232804232804234 113.65079365079366,44.867724867724874 113.86243386243387,45.50264550264551 113.86243386243387,46.13756613756614 114.07407407407408,46.77248677248678 114.28571428571429,47.40740740740741 114.28571428571429,48.042328042328045 114.49735449735451,48.677248677248684 114.70899470899472,49.31216931216932 114.92063492063492,49.94708994708995 115.13227513227514,50.58201058201058 115.34391534391536,51.21693121693122 115.76719576719577,51.851851851851855 115.97883597883599,52.48677248677249 116.4021164021164,52.91005291005291 116.82539682539684,53.54497354497355 117.24867724867725,53.968253968253975 117.67195767195768,54.39153439153439 118.0952380952381,54.81481481481482 118.73015873015873,55.23809523809524 119.36507936507937,55.661375661375665 120.00000000000001,55.661375661375665 120.63492063492065,55.87301587301588 121.26984126984128,55.87301587301588 121.90476190476191,56.08465608465609 122.53968253968254,56.08465608465609 123.17460317460318,56.08465608465609 123.80952380952382,55.87301587301588 124.44444444444446,55.661375661375665 125.07936507936509,55.661375661375665 125.71428571428572,55.449735449735456 126.34920634920636,55.23809523809524 126.98412698412699,55.02645502645503 127.40740740740742,54.60317460317461 128.04232804232805,54.179894179894184 128.67724867724868,53.75661375661376 129.31216931216932,53.333333333333336 129.73544973544975,52.91005291005291 130.15873015873018,52.48677248677249 130.7936507936508,52.06349206349207 131.21693121693121,51.640211640211646 131.64021164021165,51.00529100529101 132.06349206349208,50.58201058201058 132.6984126984127,50.158730158730165 133.12169312169314,49.73544973544974 133.75661375661377,49.31216931216932 134.3915343915344,48.88888888888889 135.02645502645504,48.46560846560847 135.44973544973547,48.042328042328045 136.0846560846561,47.61904761904762 136.71957671957674,47.195767195767196 137.35449735449737,46.77248677248678 137.989417989418,46.560846560846564 138.41269841269843,46.13756613756614 139.04761904761907,45.92592592592593 139.6825396825397,45.50264550264551 140.31746031746033,45.29100529100529 140.95238095238096,45.07936507936508 141.5873015873016,44.65608465608466 142.22222222222223,44.44444444444445 142.85714285714286,44.232804232804234 143.4920634920635,43.80952380952381 144.12698412698413,43.80952380952381 144.76190476190476,43.5978835978836 145.39682539682542,43.386243386243386 146.03174603174605,43.17460317460318 146.66666666666669,43.17460317460318 147.30158730158732,43.17460317460318 147.93650793650795,43.17460317460318 148.57142857142858,43.17460317460318 149.20634920634922,43.386243386243386 149.84126984126985,43.386243386243386 150.47619047619048,43.5978835978836 151.11111111111111,43.80952380952381 151.74603174603175,44.232804232804234 152.38095238095238,44.44444444444445 153.01587301587304,44.867724867724874 153.65079365079367,45.29100529100529 154.2857142857143,45.714285714285715 154.92063492063494,46.13756613756614 155.34391534391534,46.560846560846564 155.76719576719577,47.195767195767196 156.1904761904762,47.61904761904762 156.61375661375664,48.042328042328045 157.03703703703704,48.677248677248684 157.46031746031747,49.31216931216932 157.67195767195767,49.94708994708995 158.0952380952381,50.58201058201058 158.30687830687833,51.21693121693122 158.51851851851853,51.851851851851855 158.73015873015873,52.48677248677249 158.94179894179896,53.12169312169313 159.15343915343917,53.75661375661376 159.36507936507937,54.39153439153439 159.5767195767196,55.02645502645503 159.7883597883598,55.661375661375665 159.7883597883598,56.2962962962963 160.0,56.93121693121694 160.0,57.56613756613757 160.21164021164023,58.2010582010582 160.21164021164023,58.83597883597884 160.21164021164023,59.470899470899475 160.42328042328043,60.10582010582011 160.42328042328043,60.74074074074075 160.42328042328043,61.37566137566138 160.42328042328043,62.01058201058201 160.21164021164023,62.64550264550265 160.21164021164023,63.280423280423285 160.21164021164023,63.91534391534392 160.0,64.55026455026456 159.7883597883598,65.18518518518519 159.7883597883598,65.82010582010582 159.5767195767196,66.45502645502646 159.36507936507937,67.08994708994709 159.15343915343917,67.72486772486774 158.94179894179896,68.35978835978837 158.73015873015873,68.994708994709 158.51851851851853,69.62962962962963 158.0952380952381,70.05291005291006 157.67195767195767,70.6878306878307 157.46031746031747,71.32275132275133 157.03703703703704,71.74603174603175 156.61375661375664,72.16931216931218 156.1904761904762,72.5925925925926 155.76719576719577,73.01587301587303 155.13227513227514,73.22751322751323 154.4973544973545,73.65079365079366 153.86243386243387,73.86243386243387 153.22751322751324,74.07407407407408 152.5925925925926,74.28571428571429 151.95767195767198,74.49735449735451 151.32275132275134,74.70899470899471 150.6878306878307,74.70899470899471 150.05291005291005,74.70899470899471 149.41798941798942,74.70899470899471 148.78306878306879,74.92063492063492 148.14814814814815,74.92063492063492 147.51322751322752,74.92063492063492 146.8783068783069,74.92063492063492 146.24338624338625,74.92063492063492 145.60846560846562,74.92063492063492 144.973544973545,74.92063492063492 144.33862433862436,74.70899470899471 143.70370370370372,74.70899470899471 143.0687830687831,74.70899470899471 142.43386243386246,74.70899470899471 141.7989417989418,74.70899470899471 141.16402116402116,74.70899470899471 140.52910052910053,74.70899470899471 139.8941798941799,74.70899470899471 139.25925925925927,74.70899470899471 138.62433862433863,74.70899470899471 137.989417989418,74.70899470899471 137.35449735449737,74.70899470899471 136.71957671957674,74.49735449735451 136.0846560846561,74.49735449735451 135.44973544973547,74.49735449735451 134.81481481481484,74.49735449735451 134.17989417989418,74.49735449735451 133.54497354497354,74.49735449735451 132.9100529100529,74.70899470899471 132.27513227513228,74.70899470899471 131.64021164021165,74.92063492063492 131.005291005291,75.13227513227514 130.37037037037038,75.34391534391536 129.73544973544975,75.76719576719577 129.10052910052912,75.97883597883599 128.67724867724868,76.4021164021164 128.04232804232805,76.82539682539684 127.61904761904763,77.24867724867725 127.1957671957672,77.67195767195767 126.77248677248679,78.0952380952381 126.56084656084657,78.73015873015873 126.13756613756615,79.36507936507937 125.92592592592594,80.0 125.92592592592594,80.63492063492065 125.71428571428572,81.26984126984128 125.71428571428572,81.90476190476191 125.71428571428572,82.53968253968254 125.71428571428572,83.17460317460318 125.71428571428572,83.80952380952381 125.92592592592594,84.44444444444446 126.13756613756615,85.07936507936509 126.56084656084657,85.71428571428572 126.77248677248679,86.34920634920636 127.1957671957672,86.98412698412699 127.61904761904763,87.61904761904762 128.04232804232805,88.25396825396827 128.46560846560848,88.8888888888889 128.88888888888889,89.31216931216932 129.31216931216932,89.94708994708995 129.73544973544975,90.37037037037038 130.15873015873018,91.00529100529101 130.58201058201058,91.42857142857143 131.005291005291,92.06349206349208 131.64021164021165,92.4867724867725 132.06349206349208,93.12169312169313 132.4867724867725,93.54497354497356 132.9100529100529,94.17989417989419 133.33333333333334,94.60317460317461 133.75661375661377,95.02645502645504 134.17989417989418,95.66137566137567 134.6031746031746,96.08465608465609 135.02645502645504,96.71957671957672 135.44973544973547,97.14285714285715 135.87301587301587,97.77777777777779 136.2962962962963,98.2010582010582 136.71957671957674,98.83597883597885 137.14285714285717,99.25925925925927 137.56613756613757,99.8941798941799 137.989417989418,100.31746031746033 138.41269841269843,100.95238095238096 138.83597883597884,101.37566137566138 139.25925925925927,102.01058201058201 139.6825396825397,102.43386243386244 140.10582010582013,103.06878306878308 140.52910052910053,103.4920634920635 141.16402116402116,103.91534391534393 141.3756613756614,104.55026455026456 141.7989417989418,104.97354497354497 142.22222222222223,105.3968253968254 142.64550264550266,106.03174603174604 143.0687830687831,106.45502645502647 143.4920634920635,107.0899470899471 143.91534391534393,107.72486772486774 144.33862433862436,108.14814814814815 144.76190476190476,108.78306878306879 145.1851851851852,109.20634920634922 145.60846560846562,109.84126984126985 146.03174603174605,110.47619047619048 146.45502645502646,110.89947089947091 146.8783068783069,111.53439153439155 147.30158730158732,112.16931216931218 147.72486772486775,112.80423280423281 148.14814814814815,113.22751322751324 148.57142857142858,113.86243386243387 148.99470899470901,114.49735449735451 149.41798941798942,114.92063492063492 149.84126984126985,115.55555555555557 150.26455026455028,116.1904761904762 150.6878306878307,116.82539682539684 151.11111111111111,117.24867724867725 151.53439153439155,117.88359788359789 151.95767195767198,118.51851851851853 152.38095238095238,119.15343915343917 152.8042328042328,119.7883597883598 153.22751322751324,120.21164021164022 153.65079365079367,120.84656084656086 154.07407407407408,121.4814814814815 154.4973544973545,122.11640211640213 154.92063492063494,122.75132275132276 155.34391534391534,123.3862433862434 155.76719576719577,124.02116402116403 156.1904761904762,124.65608465608466 156.61375661375664,125.07936507936509 156.82539682539684,125.71428571428572 157.24867724867727,126.34920634920636 157.67195767195767,126.98412698412699 158.0952380952381,127.40740740740742 158.51851851851853,127.83068783068784 158.94179894179896,128.46560846560848 159.36507936507937,129.10052910052912 159.7883597883598,129.73544973544975 160.21164021164023,130.37037037037038 160.63492063492066,131.005291005291 161.05820105820106,131.64021164021165 161.4814814814815,132.06349206349208 161.6931216931217,132.6984126984127 162.11640211640213,133.12169312169314 162.53968253968256,133.75661375661377 165.0793650793651,137.35449735449737" style="fill:none; stroke:#999900; stroke-width:1.0"  /><polyline points="165.0793650793651,137.35449735449737 161.05820105820106,137.989417989418 160.42328042328043,138.2010582010582 159.7883597883598,138.2010582010582 159.15343915343917,138.41269841269843 158.51851851851853,138.41269841269843 157.8835978835979,138.62433862433863 157.24867724867727,138.62433862433863 156.61375661375664,138.83597883597884 155.978835978836,139.04761904761907 155.34391534391534,139.04761904761907 154.7089947089947,139.04761904761907 154.07407407407408,139.25925925925927 153.43915343915344,139.47089947089947 152.8042328042328,139.47089947089947 152.16931216931218,139.47089947089947 151.53439153439155,139.6825396825397 150.8994708994709,139.6825396825397 150.26455026455028,139.6825396825397 149.62962962962965,139.8941798941799 148.99470899470901,139.8941798941799 148.35978835978838,139.8941798941799 147.72486772486775,139.8941798941799 147.0899470899471,139.8941798941799 146.45502645502646,139.8941798941799 145.82010582010582,139.8941798941799 145.1851851851852,139.8941798941799 144.55026455026456,139.8941798941799 143.91534391534393,140.10582010582013 143.2804232804233,140.10582010582013 142.64550264550266,140.10582010582013 142.01058201058203,140.10582010582013 141.3756613756614,140.10582010582013 140.74074074074076,140.10582010582013 140.10582010582013,140.10582010582013 139.47089947089947,139.8941798941799 138.83597883597884,139.8941798941799 138.2010582010582,139.8941798941799 137.56613756613757,139.8941798941799 136.93121693121694,139.6825396825397 136.2962962962963,139.6825396825397 135.66137566137567,139.6825396825397 135.02645502645504,139.6825396825397 134.3915343915344,139.47089947089947 133.75661375661377,139.47089947089947 133.12169312169314,139.47089947089947 132.4867724867725,139.47089947089947 131.85185185185185,139.47089947089947 131.21693121693121,139.6825396825397 130.58201058201058,139.8941798941799 129.94708994708995,139.8941798941799 129.31216931216932,140.10582010582013 128.67724867724868,140.31746031746033 128.04232804232805,140.52910052910053 127.40740740740742,140.74074074074076 126.77248677248679,140.95238095238096 126.13756613756615,141.3756613756614 125.5026455026455,141.5873015873016 124.86772486772487,141.7989417989418 124.23280423280424,142.22222222222223 123.59788359788361,142.64550264550266 122.96296296296298,143.0687830687831 122.53968253968254,143.4920634920635 121.90476190476191,143.91534391534393 121.4814814814815,144.55026455026456 121.05820105820106,144.973544973545 120.63492063492065,145.60846560846562 120.21164021164022,146.24338624338625 120.00000000000001,146.8783068783069 119.7883597883598,147.51322751322752 119.57671957671958,148.14814814814815 119.57671957671958,148.78306878306879 119.7883597883598,149.41798941798942 119.7883597883598,150.05291005291005 119.7883597883598,150.6878306878307 120.21164021164022,151.32275132275134 120.42328042328043,151.95767195767198 120.63492063492065,152.5925925925926 120.84656084656086,153.22751322751324 121.26984126984128,153.86243386243387 121.4814814814815,154.4973544973545 121.90476190476191,155.13227513227514 122.32804232804234,155.76719576719577 122.75132275132276,156.1904761904762 123.17460317460318,156.82539682539684 123.59788359788361,157.46031746031747 124.02116402116403,157.8835978835979 124.44444444444446,158.30687830687833 124.86772486772487,158.73015873015873 125.2910052910053,159.15343915343917 125.71428571428572,159.5767195767196 126.34920634920636,160.0 126.77248677248679,160.42328042328043 127.40740740740742,160.84656084656086 127.83068783068784,161.2698412698413 128.46560846560848,161.6931216931217 129.10052910052912,162.11640211640213 129.73544973544975,162.53968253968256 130.37037037037038,162.75132275132276 131.005291005291,163.1746031746032 131.64021164021165,163.1746031746032 132.27513227513228,163.3862433862434 132.9100529100529,163.59788359788362 133.54497354497354,164.02116402116403 134.17989417989418,164.23280423280426 134.81481481481484,164.44444444444446 135.44973544973547,164.65608465608466 136.0846560846561,165.0793650793651 136.71957671957674,165.2910052910053 137.35449735449737,165.71428571428572 137.7777777777778,166.13756613756615 138.2010582010582,166.56084656084658 138.62433862433863,166.984126984127 139.04761904761907,167.40740740740742 139.47089947089947,168.04232804232805 139.8941798941799,168.67724867724868 140.31746031746033,169.10052910052912 140.52910052910053,169.73544973544975 140.95238095238096,170.37037037037038 141.3756613756614,171.005291005291 141.5873015873016,171.64021164021165 141.7989417989418,172.27513227513228 142.01058201058203,172.9100529100529 142.01058201058203,173.54497354497354 142.43386243386246,173.96825396825398 142.43386243386246,174.6031746031746 142.43386243386246,175.23809523809524 142.43386243386246,175.87301587301587 142.43386243386246,176.50793650793653 142.43386243386246,177.14285714285717 142.22222222222223,177.7777777777778 142.22222222222223,178.41269841269843 142.01058201058203,179.04761904761907 141.7989417989418,179.6825396825397 141.5873015873016,180.31746031746033 141.16402116402116,180.95238095238096 140.95238095238096,181.5873015873016 140.52910052910053,182.01058201058203 140.31746031746033,182.64550264550266 139.8941798941799,183.2804232804233 139.47089947089947,183.91534391534393 139.04761904761907,184.55026455026456 138.62433862433863,185.1851851851852 138.2010582010582,185.60846560846562 137.7777777777778,186.03174603174605 137.35449735449737,186.45502645502646 136.93121693121694,186.8783068783069 136.5079365079365,187.30158730158732 135.87301587301587,187.72486772486775 135.23809523809524,188.14814814814815 134.6031746031746,188.57142857142858 133.96825396825398,188.99470899470901 133.33333333333334,189.20634920634922 132.6984126984127,189.62962962962965 132.06349206349208,189.84126984126985 131.64021164021165,190.26455026455028 131.005291005291,190.6878306878307 130.37037037037038,190.8994708994709 129.73544973544975,191.11111111111111 129.10052910052912,191.32275132275134 128.46560846560848,191.53439153439155 127.83068783068784,191.74603174603175 127.1957671957672,191.95767195767198 126.56084656084657,191.95767195767198 125.92592592592594,192.16931216931218 125.2910052910053,192.16931216931218 124.65608465608466,192.16931216931218 124.02116402116403,192.16931216931218 123.3862433862434,192.3809523809524 122.75132275132276,192.3809523809524 122.11640211640213,192.3809523809524 121.4814814814815,192.16931216931218 120.84656084656086,192.16931216931218 120.21164021164022,192.16931216931218 119.57671957671958,192.16931216931218 118.94179894179895,191.95767195767198 118.30687830687832,191.95767195767198 117.67195767195768,191.95767195767198 117.03703703703705,191.74603174603175 116.4021164021164,191.53439153439155 115.76719576719577,191.53439153439155 115.13227513227514,191.32275132275134 114.49735449735451,191.11111111111111 113.86243386243387,191.11111111111111 113.22751322751324,190.6878306878307 112.5925925925926,190.26455026455028 112.16931216931218,189.84126984126985 111.53439153439155,189.41798941798945 111.11111111111111,188.99470899470901 110.89947089947091,188.35978835978838 110.47619047619048,187.93650793650795 110.26455026455027,187.30158730158732 110.05291005291006,186.66666666666669 109.62962962962963,186.03174603174605 109.41798941798943,185.39682539682542 109.20634920634922,184.7619047619048 108.994708994709,184.12698412698415 108.78306878306879,183.4920634920635 108.78306878306879,182.85714285714286 108.57142857142858,182.22222222222223 108.57142857142858,181.5873015873016 108.35978835978837,180.95238095238096 108.35978835978837,180.31746031746033 108.14814814814815,179.6825396825397 108.14814814814815,179.04761904761907 107.93650793650795,178.41269841269843 107.72486772486774,177.7777777777778 107.72486772486774,177.14285714285717 107.51322751322752,176.50793650793653 107.3015873015873,175.87301587301587 107.0899470899471,175.23809523809524 106.66666666666667,174.81481481481484 106.66666666666667,174.1798941798942 106.24338624338625,173.75661375661377 106.03174603174604,173.12169312169314 105.60846560846562,172.4867724867725 105.3968253968254,171.85185185185188 104.97354497354497,171.21693121693124 104.76190476190477,170.58201058201058 104.55026455026456,169.94708994708995 104.12698412698414,169.31216931216932 103.70370370370371,168.67724867724868 103.28042328042329,168.04232804232805 102.85714285714286,167.61904761904762 102.43386243386244,166.984126984127 102.01058201058201,166.56084656084658 101.5873015873016,166.13756613756615 101.16402116402116,165.71428571428572 100.52910052910053,165.2910052910053 99.8941798941799,164.8677248677249 99.25925925925927,164.44444444444446 98.62433862433863,164.02116402116403 97.989417989418,163.80952380952382 97.35449735449737,163.59788359788362 96.71957671957672,163.1746031746032 96.08465608465609,163.1746031746032 95.44973544973546,163.1746031746032 94.81481481481482,162.96296296296296 94.17989417989419,162.96296296296296 93.54497354497356,162.75132275132276 92.91005291005291,162.75132275132276 92.27513227513228,162.75132275132276 91.64021164021165,162.96296296296296 91.00529100529101,162.75132275132276 90.37037037037038,162.96296296296296 89.73544973544975,162.96296296296296 89.1005291005291,162.96296296296296 88.46560846560847,163.1746031746032 87.83068783068784,163.3862433862434 87.1957671957672,163.3862433862434 86.56084656084657,163.59788359788362 85.92592592592594,163.80952380952382 85.29100529100529,164.02116402116403 84.65608465608466,164.23280423280426 84.02116402116403,164.44444444444446 83.3862433862434,164.65608465608466 82.75132275132276,165.0793650793651 82.11640211640213,165.2910052910053 81.48148148148148,165.71428571428572 80.84656084656085,166.13756613756615 80.21164021164022,166.34920634920636 79.57671957671958,166.7724867724868 78.94179894179895,167.19576719576722 78.30687830687832,167.61904761904762 77.67195767195767,168.04232804232805 77.03703703703704,168.46560846560848 76.4021164021164,168.8888888888889 75.76719576719577,169.31216931216932 75.34391534391536,169.73544973544975 74.70899470899471,170.15873015873018 74.07407407407408,170.58201058201058 73.43915343915344,171.005291005291 73.01587301587303,171.42857142857144 72.38095238095238,171.85185185185188 71.74603174603175,172.27513227513228 71.32275132275133,172.6984126984127 70.6878306878307,173.12169312169314 70.26455026455027,173.54497354497354 69.84126984126985,174.1798941798942 69.41798941798942,174.6031746031746 68.78306878306879,175.02645502645504 68.35978835978837,175.44973544973547 67.93650793650794,175.87301587301587 67.51322751322752,176.2962962962963 67.08994708994709,176.71957671957674 66.66666666666667,177.14285714285717 66.24338624338625,177.56613756613757 63.70370370370371,179.8941798941799" style="fill:none; stroke:#00aa99; stroke-width:1.0"  /><polyline points="63.70370370370371,179.8941798941799 61.37566137566138,177.35449735449737 60.952380952380956,176.93121693121694 60.52910052910053,176.50793650793653 60.10582010582011,175.87301587301587 59.682539682539684,175.44973544973547 59.25925925925927,175.02645502645504 58.83597883597884,174.6031746031746 58.41269841269842,173.96825396825398 57.777777777777786,173.54497354497354 57.35449735449736,173.12169312169314 56.93121693121694,172.4867724867725 56.50793650793651,172.06349206349208 56.08465608465609,171.64021164021165 55.661375661375665,171.005291005291 55.23809523809524,170.58201058201058 54.81481481481482,170.15873015873018 54.39153439153439,169.73544973544975 53.968253968253975,169.10052910052912 53.54497354497355,168.67724867724868 53.12169312169313,168.04232804232805 52.6984126984127,167.61904761904762 52.27513227513228,167.19576719576722 51.851851851851855,166.56084656084658 51.42857142857143,166.13756613756615 51.00529100529101,165.50264550264552 50.58201058201058,165.0793650793651 50.158730158730165,164.44444444444446 49.73544973544974,164.02116402116403 49.31216931216932,163.59788359788362 48.88888888888889,162.96296296296296 48.46560846560847,162.32804232804233 48.042328042328045,161.6931216931217 47.61904761904762,161.05820105820106 47.40740740740741,160.42328042328043 46.98412698412699,160.0 46.560846560846564,159.36507936507937 46.349206349206355,158.73015873015873 46.13756613756614,158.0952380952381 45.92592592592593,157.46031746031747 45.50264550264551,157.03703703703704 45.29100529100529,156.4021164021164 45.07936507936508,155.76719576719577 44.867724867724874,155.13227513227514 44.65608465608466,154.4973544973545 44.44444444444445,153.86243386243387 44.232804232804234,153.22751322751324 44.021164021164026,152.5925925925926 44.021164021164026,151.95767195767198 43.5978835978836,151.32275132275134 43.5978835978836,150.6878306878307 43.386243386243386,150.05291005291005 43.17460317460318,149.41798941798942 42.96296296296297,148.78306878306879 42.96296296296297,148.14814814814815 42.75132275132275,147.51322751322752 42.539682539682545,146.8783068783069 42.539682539682545,146.24338624338625 42.32804232804233,145.60846560846562 42.11640211640212,144.973544973545 41.904761904761905,144.33862433862436 41.904761904761905,143.70370370370372 41.904761904761905,143.0687830687831 41.6931216931217,142.43386243386246 41.48148148148149,141.7989417989418 41.48148148148149,141.16402116402116 41.26984126984127,140.52910052910053 41.26984126984127,139.8941798941799 41.26984126984127,139.25925925925927 41.058201058201064,138.62433862433863 41.058201058201064,137.989417989418 40.84656084656085,137.35449735449737 40.84656084656085,136.71957671957674 40.63492063492064,136.0846560846561 40.63492063492064,135.44973544973547 40.63492063492064,134.81481481481484 40.84656084656085,134.17989417989418 40.84656084656085,133.54497354497354 40.84656084656085,132.9100529100529 41.058201058201064,132.27513227513228 41.26984126984127,131.64021164021165 41.48148148148149,131.005291005291 41.904761904761905,130.58201058201058 42.11640211640212,129.94708994708995 42.539682539682545,129.52380952380955 42.96296296296297,129.10052910052912 43.5978835978836,128.67724867724868 44.232804232804234,128.46560846560848 44.65608465608466,128.04232804232805 45.29100529100529,128.04232804232805 45.714285714285715,127.40740740740742 46.349206349206355,127.40740740740742 46.98412698412699,127.40740740740742 47.61904761904762,127.40740740740742 48.25396825396826,127.40740740740742 48.88888888888889,127.40740740740742 49.523809523809526,127.61904761904763 50.158730158730165,127.61904761904763 50.7936507936508,127.61904761904763 51.42857142857143,127.61904761904763 52.06349206349207,128.04232804232805 52.6984126984127,127.83068783068784 53.333333333333336,128.04232804232805 53.968253968253975,128.04232804232805 54.60317460317461,128.25396825396825 55.23809523809524,128.25396825396825 55.87301587301588,128.46560846560848 56.50793650793651,128.46560846560848 57.142857142857146,128.46560846560848 57.777777777777786,128.67724867724868 58.41269841269842,128.67724867724868 59.04761904761905,128.88888888888889 59.682539682539684,128.88888888888889 60.31746031746032,129.10052910052912 60.952380952380956,129.31216931216932 61.58730158730159,128.88888888888889 62.22222222222223,129.10052910052912 62.85714285714286,129.31216931216932 63.492063492063494,129.31216931216932 64.12698412698413,129.31216931216932 64.76190476190477,129.31216931216932 65.3968253968254,129.31216931216932 66.03174603174604,129.52380952380955 66.66666666666667,129.31216931216932 67.3015873015873,129.52380952380955 67.93650793650794,129.52380952380955 68.57142857142858,129.31216931216932 69.20634920634922,129.10052910052912 69.84126984126985,129.10052910052912 70.47619047619048,128.88888888888889 71.11111111111111,128.67724867724868 71.74603174603175,128.67724867724868 72.38095238095238,128.46560846560848 73.01587301587303,128.25396825396825 73.43915343915344,127.83068783068784 74.07407407407408,127.61904761904763 74.49735449735451,127.1957671957672 75.13227513227514,126.77248677248679 75.55555555555556,126.13756613756615 75.97883597883599,125.71428571428572 76.4021164021164,125.2910052910053 76.61375661375662,124.65608465608466 77.03703703703704,124.02116402116403 77.24867724867725,123.3862433862434 77.46031746031747,122.75132275132276 77.46031746031747,122.11640211640213 77.67195767195767,121.4814814814815 77.88359788359789,120.84656084656086 78.0952380952381,120.21164021164022 78.0952380952381,119.57671957671958 78.30687830687832,118.94179894179895 78.30687830687832,118.30687830687832 78.30687830687832,117.67195767195768 78.30687830687832,117.03703703703705 78.51851851851852,116.4021164021164 78.30687830687832,115.76719576719577 78.30687830687832,115.13227513227514 78.51851851851852,114.49735449735451 78.51851851851852,113.86243386243387 78.51851851851852,113.22751322751324 78.51851851851852,112.5925925925926 78.30687830687832,111.95767195767196 78.30687830687832,111.32275132275133 78.30687830687832,110.6878306878307 78.30687830687832,110.05291005291006 78.0952380952381,109.41798941798943 78.0952380952381,108.78306878306879 77.88359788359789,108.14814814814815 77.67195767195767,107.51322751322752 77.67195767195767,106.87830687830689 77.46031746031747,106.24338624338625 77.24867724867725,105.60846560846562 76.82539682539684,104.97354497354497 76.61375661375662,104.33862433862434 76.19047619047619,103.70370370370371 75.97883597883599,103.06878306878308 75.76719576719577,102.43386243386244 75.34391534391536,101.79894179894181 75.13227513227514,101.16402116402116 74.92063492063492,100.52910052910053 74.49735449735451,99.8941798941799 74.28571428571429,99.25925925925927 73.86243386243387,98.62433862433863 73.65079365079366,97.989417989418 73.22751322751323,97.35449735449737 73.01587301587303,96.71957671957672 72.80423280423281,96.08465608465609 72.38095238095238,95.66137566137567 71.95767195767196,95.02645502645504 71.74603174603175,94.39153439153439 71.32275132275133,93.96825396825398 71.11111111111111,93.33333333333334 70.6878306878307,92.69841269841271 70.26455026455027,92.06349206349208 69.84126984126985,91.64021164021165 69.41798941798942,91.00529100529101 68.994708994709,90.37037037037038 68.57142857142858,89.94708994708995 68.14814814814815,89.31216931216932 67.72486772486774,88.8888888888889 67.3015873015873,88.46560846560847 66.66666666666667,88.04232804232805 66.24338624338625,87.61904761904762 65.60846560846561,87.1957671957672 64.97354497354497,86.77248677248677 64.33862433862434,86.34920634920636 63.70370370370371,86.13756613756614 63.06878306878308,85.92592592592594 62.43386243386244,85.71428571428572 61.798941798941804,85.71428571428572 61.16402116402117,85.71428571428572 60.52910052910053,85.71428571428572 59.8941798941799,85.71428571428572 59.25925925925927,85.71428571428572 58.62433862433863,85.71428571428572 57.989417989417994,85.92592592592594 57.35449735449736,85.92592592592594 56.71957671957672,86.13756613756614 56.08465608465609,86.34920634920636 55.449735449735456,86.56084656084657 54.81481481481482,86.77248677248677 54.179894179894184,86.98412698412699 53.54497354497355,87.1957671957672 52.91005291005291,87.61904761904762 52.27513227513228,87.83068783068784 51.640211640211646,88.04232804232805 51.00529100529101,88.46560846560847 50.370370370370374,88.67724867724868 49.73544973544974,89.1005291005291 49.1005291005291,89.52380952380953 48.46560846560847,89.94708994708995 48.042328042328045,90.37037037037038 47.61904761904762,90.7936507936508 47.195767195767196,91.21693121693123 46.77248677248678,91.85185185185186 46.349206349206355,92.27513227513228 45.92592592592593,92.69841269841271 45.50264550264551,93.12169312169313 45.07936507936508,93.54497354497356 44.65608465608466,94.17989417989419 44.232804232804234,94.60317460317461 43.80952380952381,95.02645502645504 43.386243386243386,95.44973544973546 42.96296296296297,96.08465608465609 42.539682539682545,96.50793650793652 42.11640211640212,96.93121693121694 41.6931216931217,97.35449735449737 41.26984126984127,97.77777777777779 40.84656084656085,98.41269841269842 40.423280423280424,98.83597883597885 40.0,99.25925925925927 39.57671957671958,99.68253968253968 39.15343915343916,100.10582010582011 38.730158730158735,100.52910052910053 38.30687830687831,100.95238095238096 37.883597883597886,101.37566137566138 37.46031746031746,101.79894179894181 36.82539682539683,102.22222222222223 36.19047619047619,102.64550264550266 35.55555555555556,102.85714285714286 34.920634920634924,103.06878306878308 34.28571428571429,103.28042328042329 33.65079365079365,103.28042328042329 33.01587301587302,103.28042328042329 32.38095238095239,103.28042328042329 31.746031746031747,103.06878306878308 31.111111111111114,102.85714285714286 30.476190476190478,102.64550264550266 29.841269841269842,102.43386243386244 29.20634920634921,102.01058201058201 28.571428571428573,101.5873015873016 27.93650793650794,101.16402116402116 27.301587301587304,100.74074074074075 26.666666666666668,100.31746031746033 26.031746031746035,100.10582010582011 25.60846560846561,99.68253968253968 24.973544973544975,99.25925925925927 24.55026455026455,98.83597883597885 24.12698412698413,98.41269841269842 23.703703703703706,97.989417989418 23.06878306878307,97.56613756613757 22.645502645502646,97.14285714285715 22.222222222222225,96.71957671957672 21.7989417989418,96.2962962962963 21.375661375661377,95.87301587301587 20.740740740740744,95.44973544973546 20.31746031746032,95.02645502645504 19.894179894179896,94.60317460317461 19.47089947089947,94.17989417989419 19.047619047619047,93.75661375661376 18.624338624338627,93.12169312169313 18.201058201058203,92.69841269841271 17.77777777777778,92.27513227513228 17.354497354497354,91.85185185185186 16.931216931216934,91.42857142857143 16.50793650793651,90.7936507936508 16.084656084656086,90.37037037037038 15.661375661375663,89.94708994708995 15.238095238095239,89.31216931216932 14.814814814814817,88.8888888888889 14.391534391534393,88.25396825396827 13.96825396825397,87.61904761904762 13.544973544973546,86.98412698412699 13.121693121693122,86.56084656084657 12.6984126984127,85.92592592592594 12.275132275132275,85.29100529100529 11.851851851851853,84.65608465608466 11.640211640211641,84.02116402116403 11.216931216931219,83.59788359788361 11.005291005291006,82.96296296296298 10.582010582010582,82.32804232804233 10.370370370370372,81.6931216931217 9.947089947089948,81.05820105820106 9.735449735449736,80.42328042328043 9.523809523809524,79.7883597883598 9.100529100529101,79.15343915343917 8.677248677248677,78.51851851851852 8.677248677248677,77.88359788359789 8.253968253968255,77.24867724867725 8.042328042328043,76.61375661375662 7.830687830687832,75.97883597883599 7.6190476190476195,75.34391534391536 7.407407407407408,74.70899470899471 7.195767195767196,74.07407407407408 6.772486772486773,73.43915343915344 6.772486772486773,72.80423280423281 6.34920634920635,72.16931216931218 6.34920634920635,71.53439153439155 6.137566137566138,70.8994708994709 5.9259259259259265,70.26455026455027 5.714285714285714,69.62962962962963 5.502645502645503,68.994708994709 5.291005291005291,68.35978835978837 5.07936507936508,67.72486772486774 4.867724867724868,67.08994708994709 4.656084656084657,66.45502645502646 4.444444444444445,65.82010582010582 4.444444444444445,65.18518518518519 4.2328042328042335,64.55026455026456 4.021164021164021,63.91534391534392 4.021164021164021,63.280423280423285 4.021164021164021,62.64550264550265 3.8095238095238098,62.01058201058201 3.597883597883598,61.37566137566138 3.597883597883598,60.74074074074075 3.3862433862433865,60.10582010582011 3.174603174603175,59.470899470899475 3.174603174603175,58.83597883597884 2.9629629629629632,58.2010582010582 2.7513227513227516,57.56613756613757 2.7513227513227516,56.93121693121694 2.53968253968254,56.2962962962963 2.3280423280423284,55.661375661375665 2.3280423280423284,55.02645502645503 2.1164021164021167,54.39153439153439 2.1164021164021167,53.75661375661376 1.9047619047619049,53.12169312169313 1.9047619047619049,52.48677248677249 1.6931216931216932,51.851851851851855 1.4814814814814816,51.21693121693122 1.4814814814814816,50.58201058201058 1.26984126984127,49.94708994708995 1.0582010582010584,49.31216931216932 0.8465608465608466,48.677248677248684 0.8465608465608466,48.042328042328045 0.0,44.232804232804234" style="fill:none; stroke:#3300bb; stroke-width:1.0"  /><circle cx="0.0" cy="44.232804232804234" r="2.0" style="fill:none; stroke:#000000aa; stroke-width:0.25" /><circle cx="102.85714285714286" cy="0.21164021164021166" r="2.0" style="fill:none; stroke:#000000aa; stroke-width:0.25" /><circle cx="165.0793650793651" cy="137.35449735449737" r="2.0" style="fill:none; stroke:#000000aa; stroke-width:0.25" /><circle cx="63.70370370370371" cy="179.8941798941799" r="2.0" style="fill:none; stroke:#000000aa; stroke-width:0.25" /><circle cx="0.21164021164021166" cy="44.65608465608466" r="2.0" style="fill:none; stroke:#ff3366aa; stroke-width:0.25" /><circle cx="102.64550264550266" cy="0.4232804232804233" r="2.0" style="fill:none; stroke:#ff3366aa; stroke-width:0.25" /><circle cx="164.23280423280426" cy="136.93121693121694" r="2.0" style="fill:none; stroke:#ff3366aa; stroke-width:0.25" /><circle cx="63.91534391534392" cy="179.6825396825397" r="2.0" style="fill:none; stroke:#ff3366aa; stroke-width:0.25" /><polyline points="11.216931216931219,40.211640211640216 10.582010582010582,40.423280423280424 9.947089947089948,40.84656084656085 9.312169312169313,41.058201058201064 8.677248677248677,41.26984126984127 8.042328042328043,41.48148148148149 7.407407407407408,41.6931216931217 6.984126984126985,42.11640211640212 6.34920634920635,42.11640211640212 5.714285714285714,42.32804232804233 5.07936507936508,42.539682539682545 4.444444444444445,42.75132275132275 3.8095238095238098,42.96296296296297 3.174603174603175,43.17460317460318" style="fill:none; stroke:#001100; stroke-width:1.0" /><polyline points="2.53968253968254,56.2962962962963 2.3280423280423284,55.661375661375665 2.3280423280423284,55.02645502645503 2.1164021164021167,54.39153439153439 2.1164021164021167,53.75661375661376 1.9047619047619049,53.12169312169313 1.9047619047619049,52.48677248677249 1.6931216931216932,51.851851851851855 1.4814814814814816,51.21693121693122 1.4814814814814816,50.58201058201058 1.26984126984127,49.94708994708995 1.0582010582010584,49.31216931216932 0.8465608465608466,48.677248677248684 0.8465608465608466,48.042328042328045" style="fill:none; stroke:#000011; stroke-width:1.0" /><polyline points="106.03174603174604,11.851851851851853 105.82010582010582,11.216931216931219 105.60846560846562,10.582010582010582 105.3968253968254,9.947089947089948 105.18518518518519,9.312169312169313 104.97354497354497,8.677248677248677 104.97354497354497,8.042328042328043 104.76190476190477,7.407407407407408 104.55026455026456,6.772486772486773 104.33862433862434,6.137566137566138 104.12698412698414,5.502645502645503 104.12698412698414,4.867724867724868 103.91534391534393,4.2328042328042335 103.70370370370371,3.597883597883598" style="fill:none; stroke:#001100; stroke-width:1.0" /><polyline points="90.7936507936508,2.53968253968254 91.42857142857143,2.53968253968254 92.06349206349208,2.3280423280423284 92.69841269841271,2.3280423280423284 93.33333333333334,2.1164021164021167 93.96825396825398,2.1164021164021167 94.60317460317461,1.9047619047619049 95.23809523809524,1.9047619047619049 95.87301587301587,1.6931216931216932 96.50793650793652,1.4814814814814816 97.14285714285715,1.4814814814814816 97.77777777777779,1.26984126984127 98.41269841269842,1.0582010582010584 99.04761904761905,1.0582010582010584 99.68253968253968,0.8465608465608466" style="fill:none; stroke:#000011; stroke-width:1.0" /><polyline points="152.8042328042328,139.47089947089947 153.43915343915344,139.47089947089947 154.07407407407408,139.25925925925927 154.7089947089947,139.04761904761907 155.34391534391534,139.04761904761907 155.978835978836,139.04761904761907 156.61375661375664,138.83597883597884 157.24867724867727,138.62433862433863 157.8835978835979,138.62433862433863 158.51851851851853,138.41269841269843 159.15343915343917,138.41269841269843 159.7883597883598,138.2010582010582 160.42328042328043,138.2010582010582 161.05820105820106,137.989417989418" style="fill:none; stroke:#001100; stroke-width:1.0" /><polyline points="157.67195767195767,126.98412698412699 158.0952380952381,127.40740740740742 158.51851851851853,127.83068783068784 158.94179894179896,128.46560846560848 159.36507936507937,129.10052910052912 159.7883597883598,129.73544973544975 160.21164021164023,130.37037037037038 160.63492063492066,131.005291005291 161.05820105820106,131.64021164021165 161.4814814814815,132.06349206349208 161.6931216931217,132.6984126984127 162.11640211640213,133.12169312169314 162.53968253968256,133.75661375661377" style="fill:none; stroke:#000011; stroke-width:1.0" /><polyline points="55.661375661375665,171.005291005291 56.08465608465609,171.64021164021165 56.50793650793651,172.06349206349208 56.93121693121694,172.4867724867725 57.35449735449736,173.12169312169314 57.777777777777786,173.54497354497354 58.41269841269842,173.96825396825398 58.83597883597884,174.6031746031746 59.25925925925927,175.02645502645504 59.682539682539684,175.44973544973547 60.10582010582011,175.87301587301587 60.52910052910053,176.50793650793653 60.952380952380956,176.93121693121694 61.37566137566138,177.35449735449737" style="fill:none; stroke:#001100; stroke-width:1.0" /><polyline points="72.38095238095238,171.85185185185188 71.74603174603175,172.27513227513228 71.32275132275133,172.6984126984127 70.6878306878307,173.12169312169314 70.26455026455027,173.54497354497354 69.84126984126985,174.1798941798942 69.41798941798942,174.6031746031746 68.78306878306879,175.02645502645504 68.35978835978837,175.44973544973547 67.93650793650794,175.87301587301587 67.51322751322752,176.2962962962963 67.08994708994709,176.71957671957674 66.66666666666667,177.14285714285717 66.24338624338625,177.56613756613757" style="fill:none; stroke:#000011; stroke-width:1.0" /><polyline points="3.174603174603175,43.17460317460318 -16.71957671957672,50.58201058201058" style="fill:none; stroke:#ffaa00; stroke-width:0.4" /><polyline points="0.8465608465608466,48.042328042328045 -3.3862433862433865,27.301587301587304" style="fill:none; stroke:#aaff00; stroke-width:0.4" /><polyline points="103.70370370370371,3.597883597883598 97.989417989418,-16.71957671957672" style="fill:none; stroke:#ffaa00; stroke-width:0.4" /><polyline points="99.68253968253968,0.8465608465608466 120.42328042328043,-3.174603174603175" style="fill:none; stroke:#aaff00; stroke-width:0.4" /><polyline points="161.05820105820106,137.989417989418 181.79894179894183,134.17989417989418" style="fill:none; stroke:#ffaa00; stroke-width:0.4" /><polyline points="162.53968253968256,133.75661375661377 174.81481481481484,150.8994708994709" style="fill:none; stroke:#aaff00; stroke-width:0.4" /><polyline points="61.37566137566138,177.35449735449737 75.55555555555556,193.01587301587304" style="fill:none; stroke:#ffaa00; stroke-width:0.4" /><polyline points="66.24338624338625,177.56613756613757 50.7936507936508,191.95767195767198" style="fill:none; stroke:#aaff00; stroke-width:0.4" /><circle cx="88.04232804232805" cy="95.66137566137567" r="1.0" style="fill:#444444; stroke-width:0" /><circle cx="109.62962962962963" cy="113.86243386243387" r="10.582010582010582" style="fill:#ff770022; stroke-width:0" /><circle cx="109.62962962962963" cy="113.86243386243387" r="1.0" style="fill:#ff7700; stroke-width:0" /></svg>