<?xml version="1.0" encoding="UTF-8" standalone="no"?><svg width="501.5873015873016" height="573.968253968254" viewBox="-10 -10 187.19576719576722 211.32275132275134" xmlns="http://www.w3.org/2000/svg" xmlns:xlink="http://www.w3.org/1999/xlink"><polyline points="30.899470899470902,41.058201058201064 34.28571428571429,41.26984126984127 34.920634920634924,41.26984126984127 35.55555555555556,41.26984126984127 36.19047619047619,41.26984126984127 36.82539682539683,41.26984126984127 37.46031746031746,41.48148148148149 38.095238095238095,41.48148148148149 38.730158730158735,41.48148148148149 39.36507936507937,41.48148148148149 40.0,41.48148148148149 40.63492063492064,41.48148148148149 41.26984126984127,41.48148148148149 41.904761904761905,41.6931216931217 42.539682539682545,41.6931216931217 43.17460317460318,41.6931216931217 43.80952380952381,41.6931216931217 44.44444444444445,41.6931216931217 45.07936507936508,41.904761904761905 45.714285714285715,41.904761904761905 46.349206349206355,41.6931216931217 46.98412698412699,41.6931216931217 47.61904761904762,41.6931216931217 48.25396825396826,41.6931216931217 48.88888888888889,41.6931216931217 49.523809523809526,41.6931216931217 50.158730158730165,41.904761904761905 50.7936507936508,41.904761904761905 51.42857142857143,41.904761904761905 52.06349206349207,42.11640211640212 52.6984126984127,42.11640211640212 53.333333333333336,42.11640211640212 53.968253968253975,42.11640211640212 54.60317460317461,42.32804232804233 55.23809523809524,42.539682539682545 55.87301587301588,42.539682539682545 56.50793650793651,42.539682539682545 57.142857142857146,42.539682539682545 57.777777777777786,42.539682539682545 58.41269841269842,42.75132275132275 59.04761904761905,42.75132275132275 59.682539682539684,42.75132275132275 60.31746031746032,42.75132275132275 60.952380952380956,42.75132275132275 61.58730158730159,42.75132275132275 62.22222222222223,42.75132275132275 62.85714285714286,42.96296296296297 63.492063492063494,42.96296296296297 64.12698412698413,42.75132275132275 64.76190476190477,42.75132275132275 65.3968253968254,42.75132275132275 66.03174603174604,42.539682539682545 66.66666666666667,42.32804232804233 67.3015873015873,42.32804232804233 67.93650793650794,42.11640211640212 68.57142857142858,41.904761904761905 69.20634920634922,41.904761904761905 69.62962962962963,41.48148148148149 70.26455026455027,41.26984126984127 70.8994708994709,41.058201058201064 71.53439153439155,40.63492063492064 71.95767195767196,40.211640211640216 72.38095238095238,39.78835978835979 72.80423280423281,39.36507936507937 73.22751322751323,38.94179894179894 73.65079365079366,38.30687830687831 73.86243386243387,37.67195767195768 74.07407407407408,37.03703703703704 74.28571428571429,36.402116402116405 74.28571428571429,35.76719576719577 74.28571428571429,35.13227513227513 74.49735449735451,34.4973544973545 74.28571428571429,33.86243386243387 74.07407407407408,33.22751322751323 73.86243386243387,32.592592592592595 73.65079365079366,31.95767195767196 73.22751322751323,31.322751322751326 72.80423280423281,30.68783068783069 72.38095238095238,30.052910052910054 71.95767195767196,29.41798941798942 71.53439153439155,28.994708994708997 71.11111111111111,28.35978835978836 70.6878306878307,27.93650793650794 70.26455026455027,27.513227513227516 69.84126984126985,27.089947089947092 69.20634920634922,26.666666666666668 68.78306878306879,26.243386243386244 68.35978835978837,25.820105820105823 67.93650793650794,25.3968253968254 67.51322751322752,24.973544973544975 67.08994708994709,24.55026455026455 66.66666666666667,24.12698412698413 66.24338624338625,23.492063492063494 65.82010582010582,22.857142857142858 65.3968253968254,22.222222222222225 65.18518518518519,21.58730158730159 64.97354497354497,20.952380952380953 64.76190476190477,20.31746031746032 64.55026455026456,19.682539682539684 64.55026455026456,19.047619047619047 64.55026455026456,18.412698412698415 64.55026455026456,17.77777777777778 64.55026455026456,17.142857142857146 64.55026455026456,16.50793650793651 64.76190476190477,15.873015873015873 64.76190476190477,15.238095238095239 64.97354497354497,14.603174603174605 65.18518518518519,13.96825396825397 65.3968253968254,13.333333333333334 65.60846560846561,12.6984126984127 66.03174603174604,12.063492063492065 66.24338624338625,11.428571428571429 66.66666666666667,10.793650793650794 67.08994708994709,10.370370370370372 67.51322751322752,9.735449735449736 67.93650793650794,9.100529100529101 68.35978835978837,8.677248677248677 68.78306878306879,8.253968253968255 69.41798941798942,7.830687830687832 69.84126984126985,7.407407407407408 70.47619047619048,6.984126984126985 71.11111111111111,6.560846560846561 71.53439153439155,6.137566137566138 72.16931216931218,5.714285714285714 72.5925925925926,5.291005291005291 73.22751322751323,5.07936507936508 73.86243386243387,4.656084656084657 74.49735449735451,4.444444444444445 75.13227513227514,4.021164021164021 75.76719576719577,3.8095238095238098 76.4021164021164,3.597883597883598 77.03703703703704,3.174603174603175 77.67195767195767,2.7513227513227516 78.30687830687832,2.53968253968254 78.94179894179895,2.3280423280423284 79.57671957671958,2.1164021164021167 80.21164021164022,2.1164021164021167 80.84656084656085,1.6931216931216932 81.48148148148148,1.4814814814814816 82.11640211640213,1.26984126984127 82.75132275132276,1.0582010582010584 83.3862433862434,0.8465608465608466 84.02116402116403,0.8465608465608466 84.65608465608466,0.634920634920635 85.29100529100529,0.634920634920635 85.92592592592594,0.634920634920635 86.56084656084657,0.4232804232804233 87.1957671957672,0.4232804232804233 87.83068783068784,0.21164021164021166 88.46560846560847,0.21164021164021166 89.1005291005291,0.21164021164021166 89.73544973544975,0.4232804232804233 90.37037037037038,0.4232804232804233 91.00529100529101,0.4232804232804233 91.64021164021165,0.4232804232804233 92.27513227513228,0.4232804232804233 92.91005291005291,0.4232804232804233 93.54497354497356,0.4232804232804233 94.17989417989419,0.634920634920635 94.81481481481482,0.8465608465608466 95.44973544973546,0.8465608465608466 96.08465608465609,1.0582010582010584 96.71957671957672,1.0582010582010584 97.35449735449737,1.26984126984127 97.989417989418,1.6931216931216932 98.62433862433863,1.9047619047619049 99.25925925925927,2.1164021164021167 99.68253968253968,2.53968253968254 100.31746031746033,2.9629629629629632 100.74074074074075,3.3862433862433865 101.16402116402116,3.8095238095238098 101.5873015873016,4.2328042328042335 102.01058201058201,4.867724867724868 102.22222222222223,5.502645502645503 102.64550264550266,5.9259259259259265 102.85714285714286,6.560846560846561 103.06878306878308,7.195767195767196 103.28042328042329,7.830687830687832 103.4920634920635,8.465608465608467 103.4920634920635,9.100529100529101 103.70370370370371,9.735449735449736 103.70370370370371,10.370370370370372 103.70370370370371,11.005291005291006 103.4920634920635,11.640211640211641 103.4920634920635,12.275132275132275 103.28042328042329,12.910052910052912 103.28042328042329,13.544973544973546 103.06878306878308,14.17989417989418 102.85714285714286,14.814814814814817 102.43386243386244,15.449735449735451 102.22222222222223,16.084656084656086 102.01058201058201,16.71957671957672 101.79894179894181,17.354497354497354 101.5873015873016,17.98941798941799 101.16402116402116,18.624338624338627 100.95238095238096,19.25925925925926 100.74074074074075,19.894179894179896 100.74074074074075,20.529100529100532 100.31746031746033,21.164021164021165 100.10582010582011,21.7989417989418 99.68253968253968,22.433862433862437 99.47089947089948,23.06878306878307 99.25925925925927,23.703703703703706 99.04761904761905,24.338624338624342 98.83597883597885,24.973544973544975 98.62433862433863,25.60846560846561 98.41269841269842,26.243386243386244 98.2010582010582,26.87830687830688 98.2010582010582,27.513227513227516 97.989417989418,28.14814814814815 97.989417989418,28.783068783068785 97.989417989418,29.41798941798942 97.989417989418,30.052910052910054 97.989417989418,30.68783068783069 97.989417989418,31.322751322751326 97.989417989418,31.95767195767196 98.2010582010582,32.592592592592595 98.41269841269842,33.22751322751323 98.62433862433863,33.86243386243387 99.04761904761905,34.4973544973545 99.47089947089948,34.920634920634924 99.8941798941799,35.55555555555556 100.31746031746033,35.97883597883598 100.74074074074075,36.402116402116405 101.37566137566138,36.613756613756614 101.79894179894181,37.03703703703704 102.43386243386244,37.248677248677254 103.06878306878308,37.46031746031746 103.70370370370371,37.67195767195768 104.33862433862434,37.883597883597886 104.97354497354497,37.67195767195768 105.60846560846562,37.883597883597886 106.24338624338625,37.67195767195768 106.87830687830689,37.67195767195768 107.51322751322752,37.46031746031746 108.14814814814815,37.248677248677254 108.78306878306879,37.03703703703704 109.41798941798943,36.82539682539683 110.05291005291006,36.402116402116405 110.6878306878307,36.19047619047619 111.32275132275133,35.76719576719577 111.95767195767196,35.34391534391535 112.5925925925926,35.13227513227513 113.01587301587303,34.70899470899471 113.65079365079366,34.4973544973545 114.28571428571429,34.074074074074076 114.92063492063492,33.86243386243387 115.55555555555557,33.43915343915344 116.1904761904762,33.01587301587302 116.61375661375662,32.592592592592595 117.24867724867725,32.38095238095239 117.88359788359789,32.16931216931217 118.51851851851853,31.746031746031747 119.15343915343917,31.322751322751326 119.7883597883598,31.111111111111114 120.42328042328043,30.68783068783069 121.05820105820106,30.476190476190478 121.6931216931217,30.264550264550266 122.32804232804234,30.052910052910054 122.96296296296298,29.629629629629633 123.59788359788361,29.41798941798942 124.23280423280424,29.20634920634921 124.86772486772487,28.783068783068785 125.5026455026455,28.571428571428573 126.13756613756615,28.35978835978836 126.56084656084657,27.93650793650794 127.1957671957672,27.724867724867728 127.83068783068784,27.513227513227516 128.46560846560848,27.301587301587304 129.10052910052912,27.089947089947092 129.73544973544975,26.87830687830688 130.37037037037038,26.455026455026456 131.005291005291,26.243386243386244 131.64021164021165,26.031746031746035 132.27513227513228,25.820105820105823 132.9100529100529,25.60846560846561 133.54497354497354,25.3968253968254 134.17989417989418,24.973544973544975 134.81481481481484,24.761904761904763 135.44973544973547,24.55026455026455 136.0846560846561,24.338624338624342 136.71957671957674,24.12698412698413 137.35449735449737,23.915343915343918 137.989417989418,23.703703703703706 138.62433862433863,23.703703703703706 139.04761904761907,23.280423280423282 139.6825396825397,23.06878306878307 140.31746031746033,22.857142857142858 140.95238095238096,22.645502645502646 141.3756613756614,22.222222222222225 142.01058201058203,22.222222222222225 142.64550264550266,22.010582010582013 143.2804232804233,21.7989417989418 143.91534391534393,21.375661375661377 144.55026455026456,21.375661375661377 145.1851851851852,21.164021164021165 148.57142857142858,19.894179894179896" style="fill:none; stroke:#cc0000; stroke-width:1.0"  /><polyline points="148.57142857142858,19.894179894179896 146.8783068783069,23.703703703703706 146.66666666666669,24.338624338624342 146.45502645502646,24.973544973544975 146.24338624338625,25.60846560846561 146.03174603174605,26.243386243386244 145.82010582010582,26.87830687830688 145.39682539682542,27.513227513227516 145.1851851851852,28.14814814814815 144.76190476190476,28.783068783068785 144.55026455026456,29.41798941798942 144.33862433862436,30.052910052910054 144.12698412698413,30.68783068783069 143.70370370370372,31.111111111111114 143.2804232804233,31.746031746031747 143.0687830687831,32.38095238095239 142.85714285714286,33.01587301587302 142.43386243386246,33.65079365079365 142.22222222222223,34.28571428571429 142.01058201058203,34.920634920634924 141.7989417989418,35.55555555555556 141.3756613756614,36.19047619047619 141.16402116402116,36.82539682539683 140.74074074074076,37.46031746031746 140.52910052910053,38.095238095238095 140.31746031746033,38.730158730158735 139.8941798941799,39.36507936507937 139.6825396825397,40.0 139.47089947089947,40.63492063492064 139.25925925925927,41.26984126984127 139.04761904761907,41.904761904761905 138.62433862433863,42.539682539682545 138.41269841269843,43.17460317460318 138.2010582010582,43.80952380952381 137.7777777777778,44.44444444444445 137.56613756613757,45.07936507936508 137.35449735449737,45.714285714285715 136.93121693121694,46.349206349206355 136.71957671957674,46.98412698412699 136.2962962962963,47.61904761904762 136.0846560846561,48.25396825396826 135.87301587301587,48.88888888888889 135.66137566137567,49.523809523809526 135.44973544973547,50.158730158730165 135.23809523809524,50.7936507936508 134.81481481481484,51.42857142857143 134.6031746031746,52.06349206349207 134.3915343915344,52.6984126984127 134.17989417989418,53.333333333333336 133.96825396825398,53.968253968253975 133.75661375661377,54.60317460317461 133.54497354497354,55.23809523809524 133.33333333333334,55.87301587301588 133.12169312169314,56.50793650793651 132.9100529100529,57.142857142857146 132.6984126984127,57.777777777777786 132.4867724867725,58.41269841269842 132.27513227513228,59.04761904761905 132.06349206349208,59.682539682539684 132.06349206349208,60.31746031746032 131.85185185185185,60.952380952380956 131.64021164021165,61.58730158730159 131.42857142857144,62.22222222222223 131.21693121693121,62.85714285714286 131.005291005291,63.492063492063494 131.005291005291,64.12698412698413 130.7936507936508,64.76190476190477 130.58201058201058,65.3968253968254 130.37037037037038,66.03174603174604 130.37037037037038,66.66666666666667 130.15873015873018,67.3015873015873 130.15873015873018,67.93650793650794 129.94708994708995,68.57142857142858 129.94708994708995,69.20634920634922 129.94708994708995,69.84126984126985 129.94708994708995,70.47619047619048 129.73544973544975,71.11111111111111 129.73544973544975,71.74603174603175 129.73544973544975,72.38095238095238 129.52380952380955,73.01587301587303 129.52380952380955,73.65079365079366 129.31216931216932,74.28571428571429 129.31216931216932,74.92063492063492 129.52380952380955,75.55555555555556 129.73544973544975,76.19047619047619 129.52380952380955,76.82539682539684 129.73544973544975,77.46031746031747 129.52380952380955,78.0952380952381 129.52380952380955,78.73015873015873 129.52380952380955,79.36507936507937 129.52380952380955,80.0 129.52380952380955,80.63492063492065 129.52380952380955,81.26984126984128 129.73544973544975,81.90476190476191 129.73544973544975,82.53968253968254 129.73544973544975,83.17460317460318 129.73544973544975,83.80952380952381 129.94708994708995,84.44444444444446 129.94708994708995,85.07936507936509 129.94708994708995,85.71428571428572 130.15873015873018,86.34920634920636 130.37037037037038,86.98412698412699 130.37037037037038,87.61904761904762 130.58201058201058,88.25396825396827 130.58201058201058,88.8888888888889 130.7936507936508,89.52380952380953 130.7936507936508,90.15873015873017 131.005291005291,90.7936507936508 131.21693121693121,91.42857142857143 131.21693121693121,92.06349206349208 131.42857142857144,92.69841269841271 131.64021164021165,93.33333333333334 131.85185185185185,93.96825396825398 132.27513227513228,94.60317460317461 132.27513227513228,95.23809523809524 132.6984126984127,95.87301587301587 132.6984126984127,96.50793650793652 132.9100529100529,97.14285714285715 133.33333333333334,97.77777777777779 133.54497354497354,98.41269841269842 133.75661375661377,99.04761904761905 133.96825396825398,99.68253968253968 134.3915343915344,100.31746031746033 134.6031746031746,100.95238095238096 134.81481481481484,101.5873015873016 135.23809523809524,102.22222222222223 135.44973544973547,102.85714285714286 135.87301587301587,103.4920634920635 136.0846560846561,104.12698412698414 136.5079365079365,104.76190476190477 136.71957671957674,105.3968253968254 137.14285714285717,106.03174603174604 137.35449735449737,106.66666666666667 137.7777777777778,107.3015873015873 138.2010582010582,107.93650793650795 138.41269841269843,108.57142857142858 138.83597883597884,109.20634920634922 139.04761904761907,109.84126984126985 139.47089947089947,110.26455026455027 139.8941798941799,110.6878306878307 140.10582010582013,111.32275132275133 140.52910052910053,111.95767195767196 140.95238095238096,112.5925925925926 141.16402116402116,113.22751322751324 141.5873015873016,113.86243386243387 142.01058201058203,114.49735449735451 142.22222222222223,115.13227513227514 142.64550264550266,115.76719576719577 143.0687830687831,116.4021164021164 143.4920634920635,117.03703703703705 143.70370370370372,117.67195767195768 144.12698412698413,118.30687830687832 144.33862433862436,118.94179894179895 144.76190476190476,119.36507936507937 145.1851851851852,120.00000000000001 145.39682539682542,120.63492063492065 145.82010582010582,121.26984126984128 146.03174603174605,121.90476190476191 146.45502645502646,122.32804232804234 146.8783068783069,122.96296296296298 147.0899470899471,123.59788359788361 147.51322751322752,124.23280423280424 147.93650793650795,124.86772486772487 148.35978835978838,125.5026455026455 148.57142857142858,126.13756613756615 148.99470899470901,126.56084656084657 149.41798941798942,127.1957671957672 149.84126984126985,127.83068783068784 150.05291005291005,128.46560846560848 150.47619047619048,129.10052910052912 150.8994708994709,129.73544973544975 151.11111111111111,130.37037037037038 151.53439153439155,130.7936507936508 151.95767195767198,131.42857142857144 152.16931216931218,132.06349206349208 152.5925925925926,132.6984126984127 153.01587301587304,133.33333333333334 153.22751322751324,133.96825396825398 153.65079365079367,134.3915343915344 153.86243386243387,135.02645502645504 154.07407407407408,135.66137566137567 154.4973544973545,136.0846560846561 154.7089947089947,136.71957671957674 155.13227513227514,137.35449735449737 155.34391534391534,137.989417989418 155.76719576719577,138.62433862433863 156.1904761904762,139.25925925925927 156.4021164021164,139.8941798941799 156.61375661375664,140.52910052910053 157.03703703703704,141.16402116402116 157.46031746031747,141.7989417989418 157.8835978835979,142.43386243386246 158.0952380952381,143.0687830687831 158.51851851851853,143.70370370370372 158.73015873015873,144.33862433862436 159.15343915343917,144.973544973545 159.5767195767196,145.39682539682542 159.7883597883598,146.03174603174605 160.0,146.66666666666669 160.21164021164023,147.30158730158732 160.63492063492066,147.93650793650795 160.84656084656086,148.57142857142858 161.2698412698413,149.20634920634922 161.4814814814815,149.84126984126985 161.90476190476193,150.47619047619048 162.11640211640213,151.11111111111111 162.32804232804233,151.74603174603175 162.75132275132276,152.38095238095238 162.96296296296296,153.01587301587304 163.1746031746032,153.65079365079367 163.3862433862434,154.2857142857143 163.59788359788362,154.92063492063494 163.80952380952382,155.55555555555557 164.02116402116403,156.1904761904762 164.23280423280426,156.82539682539684 164.44444444444446,157.46031746031747 164.65608465608466,158.0952380952381 164.65608465608466,158.73015873015873 164.8677248677249,159.36507936507937 165.0793650793651,160.0 165.2910052910053,160.63492063492066 165.0793650793651,161.2698412698413 165.2910052910053,161.90476190476193 165.50264550264552,162.53968253968256 165.71428571428572,163.1746031746032 165.92592592592595,163.80952380952382 166.13756613756615,164.44444444444446 166.34920634920636,165.0793650793651 167.40740740740742,168.8888888888889" style="fill:none; stroke:#999900; stroke-width:1.0"  /><polyline points="167.40740740740742,168.8888888888889 163.59788359788362,170.15873015873018 162.96296296296296,170.37037037037038 162.32804232804233,170.7936507936508 161.6931216931217,171.005291005291 161.05820105820106,171.21693121693124 160.42328042328043,171.42857142857144 159.7883597883598,171.64021164021165 159.15343915343917,171.85185185185188 158.51851851851853,172.06349206349208 157.8835978835979,172.27513227513228 157.24867724867727,172.4867724867725 156.61375661375664,172.6984126984127 155.978835978836,172.6984126984127 155.34391534391534,172.9100529100529 154.7089947089947,173.12169312169314 154.07407407407408,173.33333333333334 153.43915343915344,173.54497354497354 152.8042328042328,173.54497354497354 152.16931216931218,173.75661375661377 151.53439153439155,173.96825396825398 151.11111111111111,174.3915343915344 150.47619047619048,174.6031746031746 149.84126984126985,174.6031746031746 149.20634920634922,174.81481481481484 148.57142857142858,174.81481481481484 147.93650793650795,175.02645502645504 147.30158730158732,175.23809523809524 146.66666666666669,175.23809523809524 146.03174603174605,175.44973544973547 145.39682539682542,175.44973544973547 144.76190476190476,175.66137566137567 144.12698412698413,175.66137566137567 143.4920634920635,175.87301587301587 142.85714285714286,175.87301587301587 142.22222222222223,175.87301587301587 141.5873015873016,176.0846560846561 140.95238095238096,176.0846560846561 140.31746031746033,176.0846560846561 139.6825396825397,176.2962962962963 139.04761904761907,176.2962962962963 138.41269841269843,176.2962962962963 137.7777777777778,176.2962962962963 137.14285714285717,176.2962962962963 136.5079365079365,176.50793650793653 135.87301587301587,176.50793650793653 135.23809523809524,176.2962962962963 134.6031746031746,176.2962962962963 133.96825396825398,176.2962962962963 133.33333333333334,176.0846560846561 132.6984126984127,176.0846560846561 132.06349206349208,175.87301587301587 131.42857142857144,175.66137566137567 130.7936507936508,175.66137566137567 130.15873015873018,175.44973544973547 129.52380952380955,175.23809523809524 128.88888888888889,174.81481481481484 128.25396825396825,174.3915343915344 127.61904761904763,173.96825396825398 127.1957671957672,173.54497354497354 126.77248677248679,173.12169312169314 126.34920634920636,172.6984126984127 126.13756613756615,172.06349206349208 125.71428571428572,171.42857142857144 125.5026455026455,170.7936507936508 125.5026455026455,170.15873015873018 125.5026455026455,169.52380952380955 125.2910052910053,168.8888888888889 125.2910052910053,168.25396825396825 125.07936507936509,167.61904761904762 125.07936507936509,166.984126984127 125.07936507936509,166.34920634920636 125.07936507936509,165.71428571428572 125.07936507936509,165.0793650793651 125.07936507936509,164.44444444444446 125.07936507936509,163.80952380952382 124.86772486772487,163.1746031746032 125.07936507936509,162.53968253968256 124.86772486772487,161.90476190476193 124.86772486772487,161.2698412698413 124.86772486772487,160.63492063492066 125.07936507936509,160.0 124.86772486772487,159.36507936507937 125.07936507936509,158.73015873015873 125.07936507936509,158.0952380952381 125.07936507936509,157.46031746031747 125.2910052910053,156.82539682539684 125.2910052910053,156.1904761904762 125.5026455026455,155.55555555555557 125.5026455026455,154.92063492063494 125.5026455026455,154.2857142857143 125.2910052910053,153.65079365079367 125.2910052910053,153.01587301587304 125.2910052910053,152.38095238095238 125.07936507936509,151.74603174603175 124.86772486772487,151.11111111111111 124.65608465608466,150.47619047619048 124.44444444444446,149.84126984126985 124.23280423280424,149.20634920634922 123.80952380952382,148.57142857142858 123.3862433862434,147.93650793650795 122.96296296296298,147.30158730158732 122.53968253968254,146.66666666666669 122.11640211640213,146.24338624338625 121.6931216931217,145.60846560846562 121.05820105820106,145.1851851851852 120.63492063492065,144.76190476190476 120.21164021164022,144.33862433862436 119.57671957671958,143.91534391534393 119.15343915343917,143.4920634920635 118.51851851851853,143.0687830687831 117.88359788359789,142.85714285714286 117.24867724867725,142.43386243386246 116.61375661375662,142.22222222222223 115.97883597883599,142.22222222222223 115.34391534391536,141.7989417989418 114.70899470899472,141.7989417989418 114.07407407407408,141.3756613756614 113.43915343915344,141.16402116402116 112.80423280423281,141.16402116402116 112.16931216931218,140.95238095238096 111.53439153439155,140.95238095238096 110.89947089947091,140.74074074074076 110.26455026455027,140.74074074074076 109.62962962962963,140.52910052910053 108.994708994709,140.52910052910053 108.35978835978837,140.52910052910053 107.72486772486774,140.52910052910053 107.0899470899471,140.52910052910053 106.45502645502647,140.52910052910053 105.82010582010582,140.52910052910053 105.18518518518519,140.74074074074076 104.55026455026456,140.74074074074076 103.91534391534393,140.95238095238096 103.28042328042329,140.95238095238096 102.64550264550266,141.16402116402116 102.01058201058201,141.16402116402116 101.37566137566138,141.3756613756614 100.74074074074075,141.5873015873016 100.10582010582011,141.7989417989418 99.47089947089948,142.01058201058203 98.83597883597885,142.22222222222223 98.2010582010582,142.43386243386246 97.56613756613757,142.85714285714286 96.93121693121694,143.2804232804233 96.2962962962963,143.4920634920635 95.87301587301587,143.91534391534393 95.23809523809524,144.12698412698413 94.81481481481482,144.55026455026456 94.17989417989419,144.973544973545 93.75661375661376,145.39682539682542 93.33333333333334,145.82010582010582 92.91005291005291,146.24338624338625 92.4867724867725,146.66666666666669 92.06349206349208,147.30158730158732 91.64021164021165,147.72486772486775 91.21693121693123,148.14814814814815 90.7936507936508,148.78306878306879 90.37037037037038,149.20634920634922 90.15873015873017,149.84126984126985 89.73544973544975,150.47619047619048 89.52380952380953,151.11111111111111 89.31216931216932,151.74603174603175 88.8888888888889,152.38095238095238 88.67724867724868,153.01587301587304 88.67724867724868,153.65079365079367 88.67724867724868,154.2857142857143 88.46560846560847,154.92063492063494 88.46560846560847,155.55555555555557 88.46560846560847,156.1904761904762 88.67724867724868,156.82539682539684 88.67724867724868,157.46031746031747 88.8888888888889,158.0952380952381 89.1005291005291,158.73015873015873 89.31216931216932,159.36507936507937 89.52380952380953,160.0 89.94708994708995,160.42328042328043 90.37037037037038,161.05820105820106 90.7936507936508,161.6931216931217 91.21693121693123,162.11640211640213 91.64021164021165,162.75132275132276 92.06349206349208,163.3862433862434 92.4867724867725,163.80952380952382 92.91005291005291,164.23280423280426 93.33333333333334,164.65608465608466 93.75661375661376,165.0793650793651 94.17989417989419,165.50264550264552 94.81481481481482,165.92592592592595 95.23809523809524,166.34920634920636 95.87301587301587,166.7724867724868 96.50793650793652,167.19576719576722 97.14285714285715,167.61904761904762 97.77777777777779,168.04232804232805 98.41269841269842,168.25396825396825 99.04761904761905,168.67724867724868 99.47089947089948,169.10052910052912 100.10582010582011,169.31216931216932 100.52910052910053,169.73544973544975 101.16402116402116,170.15873015873018 101.79894179894181,170.58201058201058 102.22222222222223,171.005291005291 102.64550264550266,171.42857142857144 103.06878306878308,171.85185185185188 103.4920634920635,172.4867724867725 103.70370370370371,173.12169312169314 104.12698412698414,173.75661375661377 104.12698412698414,174.3915343915344 103.91534391534393,175.02645502645504 103.91534391534393,175.66137566137567 103.91534391534393,176.2962962962963 103.4920634920635,176.93121693121694 103.28042328042329,177.56613756613757 102.85714285714286,177.989417989418 102.43386243386244,178.62433862433863 102.01058201058201,179.04761904761907 101.37566137566138,179.25925925925927 100.95238095238096,179.6825396825397 100.31746031746033,179.8941798941799 99.68253968253968,180.10582010582013 99.04761904761905,180.10582010582013 98.41269841269842,180.31746031746033 97.77777777777779,180.52910052910053 97.14285714285715,180.52910052910053 96.50793650793652,180.74074074074076 95.87301587301587,180.74074074074076 95.23809523809524,180.74074074074076 94.60317460317461,180.95238095238096 93.96825396825398,180.95238095238096 93.33333333333334,180.95238095238096 92.69841269841271,180.95238095238096 92.06349206349208,180.95238095238096 91.42857142857143,180.95238095238096 90.7936507936508,180.95238095238096 90.15873015873017,181.16402116402116 89.52380952380953,181.16402116402116 88.8888888888889,181.16402116402116 88.25396825396827,181.16402116402116 87.61904761904762,181.3756613756614 86.98412698412699,181.3756613756614 86.34920634920636,181.3756613756614 85.71428571428572,181.3756613756614 85.07936507936509,181.5873015873016 84.44444444444446,181.5873015873016 83.80952380952381,181.5873015873016 83.17460317460318,181.5873015873016 82.53968253968254,181.79894179894183 81.90476190476191,181.79894179894183 81.48148148148148,182.22222222222223 80.84656084656085,182.22222222222223 80.21164021164022,182.43386243386246 79.57671957671958,182.43386243386246 78.94179894179895,182.43386243386246 78.30687830687832,182.64550264550266 77.67195767195767,182.64550264550266 77.03703703703704,182.85714285714286 76.4021164021164,182.85714285714286 75.76719576719577,182.85714285714286 75.13227513227514,183.0687830687831 74.49735449735451,183.0687830687831 73.86243386243387,183.2804232804233 73.22751322751323,183.2804232804233 72.5925925925926,183.4920634920635 71.95767195767196,183.70370370370372 71.32275132275133,183.70370370370372 70.6878306878307,183.91534391534393 70.05291005291006,183.91534391534393 69.41798941798942,184.12698412698415 68.78306878306879,184.33862433862436 68.14814814814815,184.33862433862436 67.51322751322752,184.55026455026456 66.87830687830689,184.7619047619048 66.24338624338625,184.973544973545 65.60846560846561,184.973544973545 64.97354497354497,185.1851851851852 64.33862433862434,185.39682539682542 63.70370370370371,185.60846560846562 63.06878306878308,185.82010582010582 62.43386243386244,186.03174603174605 61.798941798941804,186.24338624338625 61.16402116402117,186.45502645502646 60.74074074074075,186.8783068783069 60.10582010582011,186.8783068783069 59.470899470899475,187.30158730158732 58.83597883597884,187.51322751322752 58.2010582010582,187.93650793650795 57.56613756613757,188.14814814814815 56.93121693121694,188.35978835978838 56.50793650793651,188.78306878306879 55.87301587301588,189.20634920634922 55.23809523809524,189.62962962962965 51.640211640211646,191.32275132275134" style="fill:none; stroke:#00aa99; stroke-width:1.0"  /><polyline points="51.640211640211646,191.32275132275134 52.48677248677249,187.51322751322752 52.6984126984127,186.8783068783069 52.91005291005291,186.24338624338625 53.12169312169313,185.60846560846562 53.12169312169313,184.973544973545 53.333333333333336,184.33862433862436 53.54497354497355,183.70370370370372 53.54497354497355,183.0687830687831 53.75661375661376,182.43386243386246 53.75661375661376,181.79894179894183 53.968253968253975,181.16402116402116 53.968253968253975,180.52910052910053 53.968253968253975,179.8941798941799 54.179894179894184,179.25925925925927 54.179894179894184,178.62433862433863 54.39153439153439,177.989417989418 54.39153439153439,177.35449735449737 54.60317460317461,176.71957671957674 54.60317460317461,176.0846560846561 54.81481481481482,175.44973544973547 54.81481481481482,174.81481481481484 54.81481481481482,174.1798941798942 55.02645502645503,173.54497354497354 55.02645502645503,172.9100529100529 55.02645502645503,172.27513227513228 55.23809523809524,171.64021164021165 55.23809523809524,171.005291005291 55.23809523809524,170.37037037037038 55.23809523809524,169.73544973544975 55.23809523809524,169.10052910052912 55.23809523809524,168.46560846560848 55.23809523809524,167.83068783068785 55.449735449735456,167.19576719576722 55.449735449735456,166.56084656084658 55.449735449735456,165.92592592592595 55.449735449735456,165.2910052910053 55.449735449735456,164.65608465608466 55.449735449735456,164.02116402116403 55.449735449735456,163.3862433862434 55.449735449735456,162.75132275132276 55.449735449735456,162.11640211640213 55.449735449735456,161.4814814814815 55.449735449735456,160.84656084656086 55.23809523809524,160.21164021164023 55.23809523809524,159.5767195767196 55.23809523809524,158.94179894179896 55.23809523809524,158.30687830687833 55.23809523809524,157.67195767195767 55.23809523809524,157.03703703703704 55.02645502645503,156.4021164021164 55.02645502645503,155.76719576719577 55.02645502645503,155.13227513227514 55.02645502645503,154.4973544973545 55.02645502645503,153.86243386243387 55.02645502645503,153.22751322751324 55.02645502645503,152.5925925925926 55.02645502645503,151.95767195767198 54.81481481481482,151.32275132275134 54.81481481481482,150.6878306878307 54.81481481481482,150.05291005291005 54.81481481481482,149.41798941798942 54.81481481481482,148.78306878306879 54.60317460317461,148.14814814814815 54.60317460317461,147.51322751322752 54.60317460317461,146.8783068783069 54.39153439153439,146.24338624338625 54.179894179894184,145.60846560846562 53.968253968253975,144.973544973545 53.968253968253975,144.33862433862436 53.968253968253975,143.70370370370372 53.75661375661376,143.0687830687831 53.75661375661376,142.43386243386246 53.54497354497355,141.7989417989418 53.333333333333336,141.16402116402116 53.333333333333336,140.52910052910053 53.12169312169313,139.8941798941799 53.12169312169313,139.25925925925927 52.91005291005291,138.62433862433863 52.6984126984127,137.989417989418 52.6984126984127,137.35449735449737 52.48677248677249,136.71957671957674 52.48677248677249,136.0846560846561 52.27513227513228,135.44973544973547 52.06349206349207,134.81481481481484 51.851851851851855,134.17989417989418 51.851851851851855,133.54497354497354 51.640211640211646,132.9100529100529 51.640211640211646,132.27513227513228 51.21693121693122,131.64021164021165 51.21693121693122,131.005291005291 51.00529100529101,130.37037037037038 50.7936507936508,129.73544973544975 50.58201058201058,129.10052910052912 50.370370370370374,128.46560846560848 50.158730158730165,127.83068783068784 49.94708994708995,127.1957671957672 49.73544973544974,126.56084656084657 49.31216931216932,125.92592592592594 49.1005291005291,125.2910052910053 48.677248677248684,124.86772486772487 48.25396825396826,124.44444444444446 47.830687830687836,124.02116402116403 47.40740740740741,123.59788359788361 46.98412698412699,123.17460317460318 46.349206349206355,122.75132275132276 45.714285714285715,122.75132275132276 45.07936507936508,122.75132275132276 44.44444444444445,122.53968253968254 43.80952380952381,122.32804232804234 43.17460317460318,122.32804232804234 42.539682539682545,122.53968253968254 41.904761904761905,122.53968253968254 41.26984126984127,122.75132275132276 40.63492063492064,122.96296296296298 40.0,123.17460317460318 39.36507936507937,123.3862433862434 38.730158730158735,123.80952380952382 38.095238095238095,124.23280423280424 37.46031746031746,124.65608465608466 36.82539682539683,125.07936507936509 36.402116402116405,125.5026455026455 35.76719576719577,125.92592592592594 35.34391534391535,126.56084656084657 34.70899470899471,126.98412698412699 34.28571428571429,127.61904761904763 33.86243386243387,128.04232804232805 33.43915343915344,128.46560846560848 33.01587301587302,128.88888888888889 32.592592592592595,129.52380952380955 32.16931216931217,130.15873015873018 31.746031746031747,130.58201058201058 31.322751322751326,131.005291005291 30.899470899470902,131.42857142857144 30.476190476190478,131.85185185185185 30.052910052910054,132.27513227513228 29.629629629629633,132.9100529100529 29.20634920634921,133.33333333333334 28.783068783068785,133.75661375661377 28.14814814814815,134.17989417989418 27.724867724867728,134.6031746031746 27.301587301587304,135.02645502645504 26.666666666666668,135.44973544973547 26.243386243386244,135.87301587301587 25.60846560846561,136.0846560846561 25.185185185185187,136.5079365079365 24.55026455026455,136.71957671957674 23.915343915343918,137.14285714285717 23.280423280423282,137.35449735449737 22.645502645502646,137.56613756613757 22.010582010582013,137.7777777777778 21.375661375661377,137.989417989418 20.740740740740744,138.2010582010582 20.105820105820108,138.2010582010582 19.47089947089947,138.41269841269843 18.83597883597884,138.41269841269843 18.201058201058203,138.41269841269843 17.566137566137566,138.62433862433863 16.931216931216934,138.62433862433863 16.296296296296298,138.62433862433863 15.661375661375663,138.62433862433863 15.026455026455027,138.41269841269843 14.391534391534393,138.41269841269843 13.756613756613758,138.2010582010582 13.121693121693122,138.2010582010582 12.486772486772487,137.989417989418 11.851851851851853,137.7777777777778 11.216931216931219,137.7777777777778 10.582010582010582,137.35449735449737 9.947089947089948,136.93121693121694 9.312169312169313,136.71957671957674 8.88888888888889,136.2962962962963 8.465608465608467,135.87301587301587 8.042328042328043,135.44973544973547 7.6190476190476195,135.02645502645504 7.195767195767196,134.6031746031746 6.772486772486773,133.96825396825398 6.34920634920635,133.54497354497354 6.137566137566138,132.9100529100529 5.714285714285714,132.4867724867725 5.291005291005291,131.85185185185185 5.07936507936508,131.21693121693121 4.656084656084657,130.58201058201058 4.444444444444445,129.94708994708995 4.021164021164021,129.31216931216932 3.8095238095238098,128.67724867724868 3.597883597883598,128.04232804232805 3.174603174603175,127.40740740740742 2.9629629629629632,126.77248677248679 2.7513227513227516,126.13756613756615 2.3280423280423284,125.5026455026455 2.1164021164021167,124.86772486772487 1.9047619047619049,124.23280423280424 1.6931216931216932,123.59788359788361 1.4814814814814816,122.96296296296298 1.26984126984127,122.32804232804234 1.0582010582010584,121.6931216931217 0.8465608465608466,121.05820105820106 0.8465608465608466,120.42328042328043 0.634920634920635,119.7883597883598 0.4232804232804233,119.15343915343917 0.4232804232804233,118.51851851851853 0.4232804232804233,117.88359788359789 0.4232804232804233,117.24867724867725 0.4232804232804233,116.61375661375662 0.21164021164021166,115.97883597883599 0.21164021164021166,115.34391534391536 0.21164021164021166,114.70899470899472 0.21164021164021166,114.07407407407408 0.4232804232804233,113.43915343915344 0.4232804232804233,112.80423280423281 0.4232804232804233,112.16931216931218 0.634920634920635,111.53439153439155 0.634920634920635,110.89947089947091 0.634920634920635,110.26455026455027 0.634920634920635,109.62962962962963 0.8465608465608466,108.994708994709 1.0582010582010584,108.35978835978837 1.26984126984127,107.72486772486774 1.4814814814814816,107.0899470899471 1.9047619047619049,106.45502645502647 2.3280423280423284,105.82010582010582 2.7513227513227516,105.18518518518519 3.3862433862433865,104.76190476190477 3.8095238095238098,104.33862433862434 4.444444444444445,104.12698412698414 5.07936507936508,103.70370370370371 5.714285714285714,103.4920634920635 6.34920634920635,103.4920634920635 6.984126984126985,103.28042328042329 7.6190476190476195,103.06878306878308 8.253968253968255,102.85714285714286 8.88888888888889,102.64550264550266 9.523809523809524,102.64550264550266 10.15873015873016,102.43386243386244 10.793650793650794,102.22222222222223 11.428571428571429,102.01058201058201 12.063492063492065,102.01058201058201 12.6984126984127,101.79894179894181 13.333333333333334,101.79894179894181 13.96825396825397,101.5873015873016 14.603174603174605,101.5873015873016 15.238095238095239,101.5873015873016 15.873015873015873,101.79894179894181 16.50793650793651,101.79894179894181 17.142857142857146,101.5873015873016 17.77777777777778,101.5873015873016 18.412698412698415,101.5873015873016 19.047619047619047,101.79894179894181 19.682539682539684,101.79894179894181 20.31746031746032,102.01058201058201 20.952380952380953,102.01058201058201 21.58730158730159,102.01058201058201 22.222222222222225,102.01058201058201 22.857142857142858,102.22222222222223 23.492063492063494,102.43386243386244 24.12698412698413,102.43386243386244 24.55026455026455,102.85714285714286 25.185185185185187,102.85714285714286 25.820105820105823,103.06878306878308 26.455026455026456,103.06878306878308 27.089947089947092,103.28042328042329 27.724867724867728,103.28042328042329 28.35978835978836,103.4920634920635 28.994708994708997,103.4920634920635 29.629629629629633,103.70370370370371 30.264550264550266,103.70370370370371 30.899470899470902,103.70370370370371 31.53439153439154,103.4920634920635 32.16931216931217,103.4920634920635 32.804232804232804,103.06878306878308 33.43915343915344,102.85714285714286 34.074074074074076,102.43386243386244 34.70899470899471,102.01058201058201 35.13227513227513,101.5873015873016 35.55555555555556,100.95238095238096 35.97883597883598,100.52910052910053 36.19047619047619,99.8941798941799 36.613756613756614,99.25925925925927 36.82539682539683,98.62433862433863 37.03703703703704,97.989417989418 37.248677248677254,97.35449735449737 37.46031746031746,96.71957671957672 37.46031746031746,96.08465608465609 37.46031746031746,95.44973544973546 37.46031746031746,94.81481481481482 37.46031746031746,94.17989417989419 37.46031746031746,93.54497354497356 37.46031746031746,92.91005291005291 37.248677248677254,92.27513227513228 37.248677248677254,91.64021164021165 37.248677248677254,91.00529100529101 37.03703703703704,90.37037037037038 37.03703703703704,89.73544973544975 36.82539682539683,89.1005291005291 36.82539682539683,88.46560846560847 36.82539682539683,87.83068783068784 36.613756613756614,87.1957671957672 36.613756613756614,86.56084656084657 36.402116402116405,85.92592592592594 36.402116402116405,85.29100529100529 36.19047619047619,84.65608465608466 36.19047619047619,84.02116402116403 36.19047619047619,83.3862433862434 35.97883597883598,82.75132275132276 35.76719576719577,82.11640211640213 35.76719576719577,81.48148148148148 35.76719576719577,80.84656084656085 35.55555555555556,80.21164021164022 35.55555555555556,79.57671957671958 35.34391534391535,78.94179894179895 35.34391534391535,78.30687830687832 35.34391534391535,77.67195767195767 35.13227513227513,77.03703703703704 35.13227513227513,76.4021164021164 34.920634920634924,75.76719576719577 34.70899470899471,75.13227513227514 34.70899470899471,74.49735449735451 34.70899470899471,73.86243386243387 34.4973544973545,73.22751322751323 34.4973544973545,72.5925925925926 34.28571428571429,71.95767195767196 34.28571428571429,71.32275132275133 34.28571428571429,70.6878306878307 34.074074074074076,70.05291005291006 34.074074074074076,69.41798941798942 34.074074074074076,68.78306878306879 33.86243386243387,68.14814814814815 33.86243386243387,67.51322751322752 33.65079365079365,66.87830687830689 33.65079365079365,66.24338624338625 33.65079365079365,65.60846560846561 33.43915343915344,64.97354497354497 33.43915343915344,64.33862433862434 33.43915343915344,63.70370370370371 33.43915343915344,63.06878306878308 33.22751322751323,62.43386243386244 33.22751322751323,61.798941798941804 33.22751322751323,61.16402116402117 33.01587301587302,60.52910052910053 33.01587301587302,59.8941798941799 33.01587301587302,59.25925925925927 32.804232804232804,58.62433862433863 32.804232804232804,57.989417989417994 32.592592592592595,57.35449735449736 32.592592592592595,56.71957671957672 32.592592592592595,56.08465608465609 32.592592592592595,55.449735449735456 32.592592592592595,54.81481481481482 32.38095238095239,54.179894179894184 32.38095238095239,53.54497354497355 32.38095238095239,52.91005291005291 32.16931216931217,52.27513227513228 32.16931216931217,51.640211640211646 32.16931216931217,51.00529100529101 31.95767195767196,50.370370370370374 31.95767195767196,49.73544973544974 31.95767195767196,49.1005291005291 31.746031746031747,48.46560846560847 31.746031746031747,47.830687830687836 31.746031746031747,47.195767195767196 31.53439153439154,46.560846560846564 31.322751322751326,45.92592592592593 31.322751322751326,45.29100529100529 31.322751322751326,44.65608465608466 30.899470899470902,41.058201058201064" style="fill:none; stroke:#3300bb; stroke-width:1.0"  /><circle cx="30.899470899470902" cy="41.058201058201064" r="2.0" style="fill:none; stroke:#000000aa; stroke-width:0.25" /><circle cx="148.57142857142858" cy="19.894179894179896" r="2.0" style="fill:none; stroke:#000000aa; stroke-width:0.25" /><circle cx="167.40740740740742" cy="168.8888888888889" r="2.0" style="fill:none; stroke:#000000aa; stroke-width:0.25" /><circle cx="51.640211640211646" cy="191.32275132275134" r="2.0" style="fill:none; stroke:#000000aa; stroke-width:0.25" /><circle cx="31.322751322751326" cy="41.48148148148149" r="2.0" style="fill:none; stroke:#ff3366aa; stroke-width:0.25" /><circle cx="148.14814814814815" cy="20.952380952380953" r="2.0" style="fill:none; stroke:#ff3366aa; stroke-width:0.25" /><circle cx="166.7724867724868" cy="168.25396825396825" r="2.0" style="fill:none; stroke:#ff3366aa; stroke-width:0.25" /><circle cx="52.06349206349207" cy="190.6878306878307" r="2.0" style="fill:none; stroke:#ff3366aa; stroke-width:0.25" /><polyline points="43.17460317460318,41.6931216931217 42.539682539682545,41.6931216931217 41.904761904761905,41.6931216931217 41.26984126984127,41.48148148148149 40.63492063492064,41.48148148148149 40.0,41.48148148148149 39.36507936507937,41.48148148148149 38.730158730158735,41.48148148148149 38.095238095238095,41.48148148148149 37.46031746031746,41.48148148148149 36.82539682539683,41.26984126984127 36.19047619047619,41.26984126984127 35.55555555555556,41.26984126984127 34.920634920634924,41.26984126984127 34.28571428571429,41.26984126984127" style="fill:none; stroke:#001100; stroke-width:1.0" /><polyline points="32.38095238095239,52.91005291005291 32.16931216931217,52.27513227513228 32.16931216931217,51.640211640211646 32.16931216931217,51.00529100529101 31.95767195767196,50.370370370370374 31.95767195767196,49.73544973544974 31.95767195767196,49.1005291005291 31.746031746031747,48.46560846560847 31.746031746031747,47.830687830687836 31.746031746031747,47.195767195767196 31.53439153439154,46.560846560846564 31.322751322751326,45.92592592592593 31.322751322751326,45.29100529100529 31.322751322751326,44.65608465608466" style="fill:none; stroke:#000011; stroke-width:1.0" /><polyline points="143.2804232804233,31.746031746031747 143.70370370370372,31.111111111111114 144.12698412698413,30.68783068783069 144.33862433862436,30.052910052910054 144.55026455026456,29.41798941798942 144.76190476190476,28.783068783068785 145.1851851851852,28.14814814814815 145.39682539682542,27.513227513227516 145.82010582010582,26.87830687830688 146.03174603174605,26.243386243386244 146.24338624338625,25.60846560846561 146.45502645502646,24.973544973544975 146.66666666666669,24.338624338624342 146.8783068783069,23.703703703703706" style="fill:none; stroke:#001100; stroke-width:1.0" /><polyline points="136.71957671957674,24.12698412698413 137.35449735449737,23.915343915343918 137.989417989418,23.703703703703706 138.62433862433863,23.703703703703706 139.04761904761907,23.280423280423282 139.6825396825397,23.06878306878307 140.31746031746033,22.857142857142858 140.95238095238096,22.645502645502646 141.3756613756614,22.222222222222225 142.01058201058203,22.222222222222225 142.64550264550266,22.010582010582013 143.2804232804233,21.7989417989418 143.91534391534393,21.375661375661377 144.55026455026456,21.375661375661377 145.1851851851852,21.164021164021165" style="fill:none; stroke:#000011; stroke-width:1.0" /><polyline points="155.978835978836,172.6984126984127 156.61375661375664,172.6984126984127 157.24867724867727,172.4867724867725 157.8835978835979,172.27513227513228 158.51851851851853,172.06349206349208 159.15343915343917,171.85185185185188 159.7883597883598,171.64021164021165 160.42328042328043,171.42857142857144 161.05820105820106,171.21693121693124 161.6931216931217,171.005291005291 162.32804232804233,170.7936507936508 162.96296296296296,170.37037037037038 163.59788359788362,170.15873015873018" style="fill:none; stroke:#001100; stroke-width:1.0" /><polyline points="164.23280423280426,156.82539682539684 164.44444444444446,157.46031746031747 164.65608465608466,158.0952380952381 164.65608465608466,158.73015873015873 164.8677248677249,159.36507936507937 165.0793650793651,160.0 165.2910052910053,160.63492063492066 165.0793650793651,161.2698412698413 165.2910052910053,161.90476190476193 165.50264550264552,162.53968253968256 165.71428571428572,163.1746031746032 165.92592592592595,163.80952380952382 166.13756613756615,164.44444444444446 166.34920634920636,165.0793650793651" style="fill:none; stroke:#000011; stroke-width:1.0" /><polyline points="54.179894179894184,179.25925925925927 53.968253968253975,179.8941798941799 53.968253968253975,180.52910052910053 53.968253968253975,181.16402116402116 53.75661375661376,181.79894179894183 53.75661375661376,182.43386243386246 53.54497354497355,183.0687830687831 53.54497354497355,183.70370370370372 53.333333333333336,184.33862433862436 53.12169312169313,184.973544973545 53.12169312169313,185.60846560846562 52.91005291005291,186.24338624338625 52.6984126984127,186.8783068783069 52.48677248677249,187.51322751322752" style="fill:none; stroke:#001100; stroke-width:1.0" /><polyline points="63.06878306878308,185.82010582010582 62.43386243386244,186.03174603174605 61.798941798941804,186.24338624338625 61.16402116402117,186.45502645502646 60.74074074074075,186.8783068783069 60.10582010582011,186.8783068783069 59.470899470899475,187.30158730158732 58.83597883597884,187.51322751322752 58.2010582010582,187.93650793650795 57.56613756613757,188.14814814814815 56.93121693121694,188.35978835978838 56.50793650793651,188.78306878306879 55.87301587301588,189.20634920634922 55.23809523809524,189.62962962962965" style="fill:none; stroke:#000011; stroke-width:1.0" /><polyline points="34.28571428571429,41.26984126984127 13.121693121693122,40.211640211640216" style="fill:none; stroke:#ffaa00; stroke-width:0.4" /><polyline points="31.322751322751326,44.65608465608466 28.571428571428573,23.703703703703706" style="fill:none; stroke:#aaff00; stroke-width:0.4" /><polyline points="146.8783068783069,23.703703703703706 155.55555555555557,4.444444444444445" style="fill:none; stroke:#ffaa00; stroke-width:0.4" /><polyline points="145.1851851851852,21.164021164021165 165.0793650793651,14.17989417989418" style="fill:none; stroke:#aaff00; stroke-width:0.4" /><polyline points="163.59788359788362,170.15873015873018 183.70370370370372,163.3862433862434" style="fill:none; stroke:#ffaa00; stroke-width:0.4" /><polyline points="166.34920634920636,165.0793650793651 171.64021164021165,185.60846560846562" style="fill:none; stroke:#aaff00; stroke-width:0.4" /><polyline points="52.48677248677249,187.51322751322752 48.25396825396826,208.25396825396828" style="fill:none; stroke:#ffaa00; stroke-width:0.4" /><polyline points="55.23809523809524,189.62962962962965 36.19047619047619,198.94179894179896" style="fill:none; stroke:#aaff00; stroke-width:0.4" /><circle cx="87.1957671957672" cy="99.47089947089948" r="1.0" style="fill:#444444; stroke-width:0" /><circle cx="84.23280423280424" cy="95.02645502645504" r="10.582010582010582" style="fill:#ff770022; stroke-width:0" /><circle cx="84.23280423280424" cy="95.02645502645504" r="1.0" style="fill:#ff7700; stroke-width:0" /></svg>