<?xml version="1.0" encoding="UTF-8" standalone="no"?><svg width="466.6666666666667" height="490.79365079365084" viewBox="-10 -10 175.55555555555557 183.59788359788362" xmlns="http://www.w3.org/2000/svg" xmlns:xlink="http://www.w3.org/1999/xlink"><polyline points="-0.21164021164021166,51.640211640211646 3.174603174603175,49.523809523809526 3.8095238095238098,49.1005291005291 4.444444444444445,48.677248677248684 5.07936507936508,48.46560846560847 5.714285714285714,48.042328042328045 6.34920634920635,47.830687830687836 6.772486772486773,47.40740740740741 7.407407407407408,46.98412698412699 8.042328042328043,46.560846560846564 8.677248677248677,46.13756613756614 9.312169312169313,45.714285714285715 9.947089947089948,45.29100529100529 10.582010582010582,45.07936507936508 11.005291005291006,44.65608465608466 11.640211640211641,44.232804232804234 12.275132275132275,43.80952380952381 12.910052910052912,43.386243386243386 13.544973544973546,43.17460317460318 13.96825396825397,42.75132275132275 14.603174603174605,42.539682539682545 15.026455026455027,42.11640211640212 15.661375661375663,41.904761904761905 16.084656084656086,41.48148148148149 16.71957671957672,41.058201058201064 17.354497354497354,40.84656084656085 17.77777777777778,40.423280423280424 18.412698412698415,40.0 19.047619047619047,39.78835978835979 19.682539682539684,39.36507936507937 20.31746031746032,38.94179894179894 20.952380952380953,38.51851851851852 21.58730158730159,38.30687830687831 22.010582010582013,37.883597883597886 22.645502645502646,37.67195767195768 23.280423280423282,37.248677248677254 23.915343915343918,36.82539682539683 24.55026455026455,36.402116402116405 25.185185185185187,36.19047619047619 25.820105820105823,35.76719576719577 26.455026455026456,35.55555555555556 27.089947089947092,35.13227513227513 27.724867724867728,34.70899470899471 28.35978835978836,34.28571428571429 28.994708994708997,34.074074074074076 29.629629629629633,33.86243386243387 30.264550264550266,33.65079365079365 30.899470899470902,33.65079365079365 31.53439153439154,33.65079365079365 32.16931216931217,33.65079365079365 32.804232804232804,33.86243386243387 33.43915343915344,34.074074074074076 34.074074074074076,34.28571428571429 34.4973544973545,34.70899470899471 35.13227513227513,34.920634920634924 35.55555555555556,35.34391534391535 36.19047619047619,35.76719576719577 36.613756613756614,36.19047619047619 37.03703703703704,36.82539682539683 37.46031746031746,37.248677248677254 37.67195767195768,37.883597883597886 38.095238095238095,38.51851851851852 38.30687830687831,39.15343915343916 38.51851851851852,39.78835978835979 38.730158730158735,40.423280423280424 38.94179894179894,41.058201058201064 39.15343915343916,41.6931216931217 39.36507936507937,42.32804232804233 39.57671957671958,42.96296296296297 39.78835978835979,43.5978835978836 40.0,44.232804232804234 40.211640211640216,44.867724867724874 40.63492063492064,45.50264550264551 40.84656084656085,46.13756613756614 41.058201058201064,46.77248677248678 41.26984126984127,47.40740740740741 41.6931216931217,47.830687830687836 42.11640211640212,48.46560846560847 42.539682539682545,48.88888888888889 42.96296296296297,49.31216931216932 43.386243386243386,49.73544973544974 44.021164021164026,50.158730158730165 44.65608465608466,50.370370370370374 45.29100529100529,50.58201058201058 45.92592592592593,50.58201058201058 46.560846560846564,50.7936507936508 47.195767195767196,51.00529100529101 47.830687830687836,51.21693121693122 48.46560846560847,51.42857142857143 49.1005291005291,51.42857142857143 49.73544973544974,51.42857142857143 50.370370370370374,51.42857142857143 51.00529100529101,51.640211640211646 51.640211640211646,51.851851851851855 52.27513227513228,51.640211640211646 52.91005291005291,51.640211640211646 53.54497354497355,51.640211640211646 54.179894179894184,51.640211640211646 54.81481481481482,51.640211640211646 55.449735449735456,51.42857142857143 56.08465608465609,51.21693121693122 56.71957671957672,51.21693121693122 57.35449735449736,51.00529100529101 57.989417989417994,50.58201058201058 58.62433862433863,50.58201058201058 59.25925925925927,50.158730158730165 59.8941798941799,50.158730158730165 60.52910052910053,49.73544973544974 61.16402116402117,49.523809523809526 61.58730158730159,49.1005291005291 62.22222222222223,48.88888888888889 62.85714285714286,48.46560846560847 63.492063492063494,48.042328042328045 63.91534391534392,47.61904761904762 64.55026455026456,47.195767195767196 64.97354497354497,46.77248677248678 65.60846560846561,46.349206349206355 66.03174603174604,45.92592592592593 66.45502645502646,45.29100529100529 66.87830687830689,44.867724867724874 67.08994708994709,44.232804232804234 67.51322751322752,43.80952380952381 67.93650793650794,43.17460317460318 68.35978835978837,42.75132275132275 68.78306878306879,42.11640211640212 69.20634920634922,41.48148148148149 69.41798941798942,40.84656084656085 69.84126984126985,40.423280423280424 70.05291005291006,39.78835978835979 70.26455026455027,39.15343915343916 70.47619047619048,38.51851851851852 70.6878306878307,37.883597883597886 70.8994708994709,37.248677248677254 71.11111111111111,36.613756613756614 70.8994708994709,35.97883597883598 71.11111111111111,35.34391534391535 71.11111111111111,34.70899470899471 70.6878306878307,34.074074074074076 70.47619047619048,33.43915343915344 70.26455026455027,32.804232804232804 70.05291005291006,32.16931216931217 69.62962962962963,31.53439153439154 69.20634920634922,30.899470899470902 68.78306878306879,30.264550264550266 68.35978835978837,29.629629629629633 67.93650793650794,28.994708994708997 67.51322751322752,28.571428571428573 66.87830687830689,28.14814814814815 66.45502645502646,27.513227513227516 66.03174603174604,27.089947089947092 65.3968253968254,26.666666666666668 64.97354497354497,26.243386243386244 64.33862433862434,25.820105820105823 63.70370370370371,25.3968253968254 63.280423280423285,24.973544973544975 62.64550264550265,24.55026455026455 62.22222222222223,24.12698412698413 61.798941798941804,23.703703703703706 61.37566137566138,23.06878306878307 60.952380952380956,22.433862433862437 60.74074074074075,21.7989417989418 60.52910052910053,21.164021164021165 60.52910052910053,20.529100529100532 60.31746031746032,19.894179894179896 60.31746031746032,19.25925925925926 60.31746031746032,18.624338624338627 60.31746031746032,17.98941798941799 60.52910052910053,17.354497354497354 60.74074074074075,16.71957671957672 60.952380952380956,16.084656084656086 61.37566137566138,15.449735449735451 61.798941798941804,14.814814814814817 62.22222222222223,14.391534391534393 62.64550264550265,13.96825396825397 63.06878306878308,13.544973544973546 63.70370370370371,13.121693121693122 64.33862433862434,12.910052910052912 64.97354497354497,12.6984126984127 65.60846560846561,12.486772486772487 66.24338624338625,12.275132275132275 66.87830687830689,11.851851851851853 67.51322751322752,11.640211640211641 68.14814814814815,11.428571428571429 68.78306878306879,11.216931216931219 69.41798941798942,11.005291005291006 69.84126984126985,10.582010582010582 70.47619047619048,10.370370370370372 71.11111111111111,10.15873015873016 71.74603174603175,9.947089947089948 72.38095238095238,9.523809523809524 73.01587301587303,9.312169312169313 73.65079365079366,9.100529100529101 74.28571428571429,8.88888888888889 74.92063492063492,8.677248677248677 75.55555555555556,8.465608465608467 76.19047619047619,8.042328042328043 76.82539682539684,7.830687830687832 77.46031746031747,7.6190476190476195 78.0952380952381,7.407407407407408 78.73015873015873,7.195767195767196 79.15343915343917,6.772486772486773 79.7883597883598,6.560846560846561 80.42328042328043,6.34920634920635 81.05820105820106,6.137566137566138 81.6931216931217,5.714285714285714 82.32804232804233,5.291005291005291 82.96296296296298,5.07936507936508 83.59788359788361,4.867724867724868 84.23280423280424,4.656084656084657 84.86772486772487,4.2328042328042335 85.5026455026455,3.8095238095238098 86.13756613756614,3.597883597883598 86.77248677248677,3.174603174603175 87.40740740740742,2.7513227513227516 88.04232804232805,2.53968253968254 88.67724867724868,2.1164021164021167 89.31216931216932,1.6931216931216932 92.4867724867725,0.0" style="fill:none; stroke:#cc0000; stroke-width:1.0"  /><polyline points="92.4867724867725,0.0 94.60317460317461,2.53968253968254 95.02645502645504,2.9629629629629632 95.44973544973546,3.3862433862433865 95.87301587301587,4.021164021164021 96.2962962962963,4.444444444444445 96.71957671957672,4.867724867724868 97.14285714285715,5.291005291005291 97.56613756613757,5.9259259259259265 97.989417989418,6.34920634920635 98.41269841269842,6.772486772486773 98.83597883597885,7.195767195767196 99.25925925925927,7.830687830687832 99.68253968253968,8.253968253968255 100.10582010582011,8.88888888888889 100.52910052910053,9.312169312169313 100.95238095238096,9.735449735449736 101.5873015873016,10.15873015873016 102.01058201058201,10.793650793650794 102.43386243386244,11.216931216931219 102.85714285714286,11.851851851851853 103.28042328042329,12.275132275132275 103.70370370370371,12.910052910052912 104.12698412698414,13.333333333333334 104.55026455026456,13.96825396825397 105.18518518518519,14.391534391534393 105.60846560846562,15.026455026455027 106.03174603174604,15.661375661375663 106.45502645502647,16.084656084656086 106.87830687830689,16.71957671957672 107.3015873015873,17.142857142857146 107.72486772486774,17.77777777777778 108.14814814814815,18.412698412698415 108.57142857142858,18.83597883597884 108.994708994709,19.47089947089947 109.41798941798943,20.105820105820108 109.84126984126985,20.740740740740744 110.26455026455027,21.375661375661377 110.6878306878307,22.010582010582013 110.89947089947091,22.645502645502646 111.32275132275133,23.06878306878307 111.53439153439155,23.703703703703706 111.74603174603176,24.338624338624342 111.95767195767196,24.973544973544975 112.16931216931218,25.60846560846561 112.16931216931218,26.243386243386244 112.3809523809524,26.87830687830688 112.3809523809524,27.513227513227516 112.16931216931218,28.14814814814815 112.16931216931218,28.783068783068785 111.95767195767196,29.41798941798942 111.53439153439155,30.052910052910054 111.11111111111111,30.68783068783069 110.6878306878307,31.111111111111114 110.26455026455027,31.53439153439154 109.62962962962963,31.95767195767196 108.994708994709,32.38095238095239 108.57142857142858,32.804232804232804 107.93650793650795,33.01587301587302 107.3015873015873,33.43915343915344 106.66666666666667,33.65079365079365 106.03174603174604,33.86243386243387 105.3968253968254,34.074074074074076 104.76190476190477,34.28571428571429 104.12698412698414,34.4973544973545 103.4920634920635,34.70899470899471 102.85714285714286,34.70899470899471 102.22222222222223,34.920634920634924 101.5873015873016,34.920634920634924 100.95238095238096,35.13227513227513 100.31746031746033,35.34391534391535 99.68253968253968,35.34391534391535 99.04761904761905,35.55555555555556 98.41269841269842,35.76719576719577 97.77777777777779,35.97883597883598 97.14285714285715,36.19047619047619 96.50793650793652,36.402116402116405 95.87301587301587,36.613756613756614 95.23809523809524,36.82539682539683 94.60317460317461,37.248677248677254 93.96825396825398,37.46031746031746 93.54497354497356,37.883597883597886 93.12169312169313,38.30687830687831 92.4867724867725,38.730158730158735 92.06349206349208,39.36507936507937 91.64021164021165,40.0 91.21693121693123,40.63492063492064 91.00529100529101,41.26984126984127 90.7936507936508,41.904761904761905 90.58201058201058,42.539682539682545 90.58201058201058,43.17460317460318 90.37037037037038,43.80952380952381 90.58201058201058,44.44444444444445 90.7936507936508,45.07936507936508 90.7936507936508,45.714285714285715 90.7936507936508,46.349206349206355 90.7936507936508,46.98412698412699 91.00529100529101,47.61904761904762 91.00529100529101,48.25396825396826 91.21693121693123,48.88888888888889 91.42857142857143,49.523809523809526 91.42857142857143,50.158730158730165 91.64021164021165,50.7936507936508 91.85185185185186,51.42857142857143 92.06349206349208,52.06349206349207 92.27513227513228,52.6984126984127 92.4867724867725,53.333333333333336 92.69841269841271,53.968253968253975 93.12169312169313,54.60317460317461 93.33333333333334,55.23809523809524 93.75661375661376,55.661375661375665 93.96825396825398,56.2962962962963 94.39153439153439,56.93121693121694 94.81481481481482,57.56613756613757 95.23809523809524,58.2010582010582 95.66137566137567,58.83597883597884 96.08465608465609,59.470899470899475 96.50793650793652,59.8941798941799 96.93121693121694,60.52910052910053 97.35449735449737,60.952380952380956 97.77777777777779,61.37566137566138 98.2010582010582,61.798941798941804 98.62433862433863,62.22222222222223 99.04761904761905,62.85714285714286 99.68253968253968,63.280423280423285 100.10582010582011,63.70370370370371 100.52910052910053,64.12698412698413 101.16402116402116,64.55026455026456 101.5873015873016,64.97354497354497 102.22222222222223,65.3968253968254 102.85714285714286,65.60846560846561 103.4920634920635,65.82010582010582 104.12698412698414,66.03174603174604 104.76190476190477,66.24338624338625 105.18518518518519,65.82010582010582 105.82010582010582,66.03174603174604 106.45502645502647,66.03174603174604 107.0899470899471,66.03174603174604 107.72486772486774,65.82010582010582 108.35978835978837,65.60846560846561 108.994708994709,65.3968253968254 109.62962962962963,65.18518518518519 110.26455026455027,64.97354497354497 110.89947089947091,64.55026455026456 111.53439153439155,64.33862433862434 112.16931216931218,63.91534391534392 112.80423280423281,63.492063492063494 113.43915343915344,63.06878306878308 113.86243386243387,62.64550264550265 114.49735449735451,62.22222222222223 114.92063492063492,61.798941798941804 115.34391534391536,61.37566137566138 115.76719576719577,60.952380952380956 116.1904761904762,60.52910052910053 116.61375661375662,60.10582010582011 117.03703703703705,59.470899470899475 117.46031746031747,59.04761904761905 117.88359788359789,58.41269841269842 118.30687830687832,57.989417989417994 118.73015873015873,57.35449735449736 119.15343915343917,56.93121693121694 119.57671957671958,56.2962962962963 120.21164021164022,55.87301587301588 120.63492063492065,55.449735449735456 121.05820105820106,55.02645502645503 121.6931216931217,54.60317460317461 122.32804232804234,54.179894179894184 122.96296296296298,53.968253968253975 123.59788359788361,53.75661375661376 124.23280423280424,53.54497354497355 124.86772486772487,53.333333333333336 125.5026455026455,53.333333333333336 126.13756613756615,53.333333333333336 126.77248677248679,53.333333333333336 126.98412698412699,53.968253968253975 127.61904761904763,53.75661375661376 128.04232804232805,54.179894179894184 128.67724867724868,54.60317460317461 129.31216931216932,54.81481481481482 129.73544973544975,55.23809523809524 130.15873015873018,55.661375661375665 130.7936507936508,56.08465608465609 131.21693121693121,56.50793650793651 131.64021164021165,57.142857142857146 132.06349206349208,57.56613756613757 132.4867724867725,58.2010582010582 132.9100529100529,58.83597883597884 133.33333333333334,59.470899470899475 133.75661375661377,60.10582010582011 134.17989417989418,60.74074074074075 134.6031746031746,61.37566137566138 135.02645502645504,62.01058201058201 135.44973544973547,62.64550264550265 135.87301587301587,63.280423280423285 136.2962962962963,63.91534391534392 136.71957671957674,64.55026455026456 137.14285714285717,65.18518518518519 137.35449735449737,65.82010582010582 137.7777777777778,66.24338624338625 138.2010582010582,66.87830687830689 138.41269841269843,67.51322751322752 138.83597883597884,67.93650793650794 139.25925925925927,68.57142857142858 139.6825396825397,69.20634920634922 140.10582010582013,69.84126984126985 140.52910052910053,70.47619047619048 140.95238095238096,71.11111111111111 141.3756613756614,71.74603174603175 141.7989417989418,72.38095238095238 142.01058201058203,73.01587301587303 142.43386243386246,73.65079365079366 142.85714285714286,74.28571428571429 143.2804232804233,74.92063492063492 143.70370370370372,75.55555555555556 144.12698412698413,76.19047619047619 144.33862433862436,76.82539682539684 144.76190476190476,77.24867724867725 145.1851851851852,77.88359788359789 145.39682539682542,78.51851851851852 145.82010582010582,78.94179894179895 146.24338624338625,79.36507936507937 146.66666666666669,80.0 146.8783068783069,80.63492063492065 147.30158730158732,81.05820105820106 147.51322751322752,81.6931216931217 147.93650793650795,82.11640211640213 148.35978835978838,82.75132275132276 148.78306878306879,83.3862433862434 148.99470899470901,84.02116402116403 149.41798941798942,84.44444444444446 149.62962962962965,85.07936507936509 150.05291005291005,85.5026455026455 150.47619047619048,86.13756613756614 150.6878306878307,86.77248677248677 151.11111111111111,87.1957671957672 151.53439153439155,87.83068783068784 151.95767195767198,88.46560846560847 152.38095238095238,89.1005291005291 152.8042328042328,89.73544973544975 153.22751322751324,90.37037037037038 153.65079365079367,91.00529100529101 155.34391534391534,93.54497354497356" style="fill:none; stroke:#999900; stroke-width:1.0"  /><polyline points="155.34391534391534,93.54497354497356 152.8042328042328,96.50793650793652 152.38095238095238,96.93121693121694 151.95767195767198,97.56613756613757 151.53439153439155,97.989417989418 151.11111111111111,98.41269841269842 150.6878306878307,98.83597883597885 150.26455026455028,99.25925925925927 149.84126984126985,99.8941798941799 149.41798941798942,100.31746031746033 148.99470899470901,100.74074074074075 148.57142857142858,101.16402116402116 148.14814814814815,101.79894179894181 147.72486772486775,102.43386243386244 147.30158730158732,102.85714285714286 146.8783068783069,103.28042328042329 146.45502645502646,103.91534391534393 146.03174603174605,104.55026455026456 145.60846560846562,104.97354497354497 145.1851851851852,105.60846560846562 144.76190476190476,106.24338624338625 144.33862433862436,106.66666666666667 143.91534391534393,107.3015873015873 143.70370370370372,107.93650793650795 143.2804232804233,108.35978835978837 142.85714285714286,108.994708994709 142.64550264550266,109.62962962962963 142.22222222222223,110.26455026455027 141.7989417989418,110.89947089947091 141.5873015873016,111.53439153439155 141.3756613756614,112.16931216931218 140.95238095238096,112.80423280423281 140.74074074074076,113.43915343915344 140.31746031746033,113.86243386243387 140.31746031746033,114.49735449735451 139.8941798941799,115.13227513227514 139.6825396825397,115.76719576719577 139.25925925925927,116.4021164021164 138.83597883597884,117.03703703703705 138.41269841269843,117.67195767195768 137.989417989418,118.0952380952381 137.56613756613757,118.73015873015873 137.14285714285717,119.36507936507937 136.71957671957674,119.7883597883598 136.2962962962963,120.21164021164022 135.87301587301587,120.63492063492065 135.44973544973547,121.05820105820106 135.02645502645504,121.4814814814815 134.6031746031746,121.90476190476191 134.17989417989418,122.32804232804234 133.75661375661377,122.75132275132276 133.33333333333334,123.17460317460318 132.9100529100529,123.59788359788361 132.27513227513228,124.02116402116403 131.85185185185185,124.44444444444446 131.21693121693121,124.86772486772487 130.58201058201058,125.07936507936509 129.94708994708995,125.5026455026455 129.31216931216932,125.71428571428572 128.67724867724868,125.92592592592594 128.04232804232805,126.13756613756615 127.40740740740742,126.13756613756615 126.77248677248679,126.13756613756615 126.13756613756615,126.13756613756615 125.5026455026455,125.92592592592594 124.86772486772487,125.92592592592594 124.23280423280424,125.71428571428572 123.59788359788361,125.5026455026455 123.17460317460318,125.07936507936509 122.53968253968254,124.65608465608466 121.90476190476191,124.23280423280424 121.4814814814815,123.80952380952382 121.05820105820106,123.3862433862434 120.63492063492065,122.75132275132276 120.21164021164022,122.11640211640213 120.00000000000001,121.4814814814815 119.7883597883598,120.84656084656086 119.57671957671958,120.21164021164022 119.57671957671958,119.57671957671958 119.36507936507937,118.94179894179895 119.36507936507937,118.30687830687832 119.15343915343917,117.67195767195768 118.94179894179895,117.03703703703705 118.73015873015873,116.4021164021164 118.51851851851853,115.76719576719577 118.30687830687832,115.13227513227514 117.88359788359789,114.49735449735451 117.46031746031747,114.07407407407408 117.24867724867725,113.43915343915344 116.82539682539684,112.80423280423281 116.61375661375662,112.16931216931218 116.1904761904762,111.74603174603176 115.76719576719577,111.11111111111111 115.34391534391536,110.47619047619048 114.92063492063492,109.84126984126985 114.49735449735451,109.41798941798943 114.07407407407408,108.78306878306879 113.65079365079366,108.35978835978837 113.22751322751324,107.72486772486774 112.80423280423281,107.3015873015873 112.3809523809524,106.87830687830689 111.74603174603176,106.45502645502647 111.32275132275133,106.03174603174604 110.89947089947091,105.60846560846562 110.26455026455027,105.18518518518519 109.62962962962963,104.76190476190477 108.994708994709,104.55026455026456 108.35978835978837,104.33862433862434 107.72486772486774,104.12698412698414 107.0899470899471,104.12698412698414 106.45502645502647,103.91534391534393 105.82010582010582,103.91534391534393 105.18518518518519,103.91534391534393 104.55026455026456,104.12698412698414 103.91534391534393,104.12698412698414 103.28042328042329,104.33862433862434 102.64550264550266,104.33862433862434 102.01058201058201,104.55026455026456 101.37566137566138,104.55026455026456 100.74074074074075,104.76190476190477 100.10582010582011,104.76190476190477 99.47089947089948,104.97354497354497 98.83597883597885,105.18518518518519 98.2010582010582,105.3968253968254 97.56613756613757,105.3968253968254 96.93121693121694,105.60846560846562 96.2962962962963,105.82010582010582 95.66137566137567,106.24338624338625 95.02645502645504,106.45502645502647 94.39153439153439,106.87830687830689 93.75661375661376,107.0899470899471 93.12169312169313,107.51322751322752 92.4867724867725,107.93650793650795 91.85185185185186,108.35978835978837 91.21693121693123,108.78306878306879 90.7936507936508,109.20634920634922 90.15873015873017,109.62962962962963 89.73544973544975,110.05291005291006 89.31216931216932,110.47619047619048 88.67724867724868,110.89947089947091 88.25396825396827,111.32275132275133 87.83068783068784,111.95767195767196 87.40740740740742,112.3809523809524 86.98412698412699,112.80423280423281 86.56084656084657,113.22751322751324 86.13756613756614,113.86243386243387 85.71428571428572,114.49735449735451 85.5026455026455,115.13227513227514 85.07936507936509,115.55555555555557 84.86772486772487,116.1904761904762 84.44444444444446,116.82539682539684 84.02116402116403,117.46031746031747 83.80952380952381,118.0952380952381 83.59788359788361,118.73015873015873 83.3862433862434,119.36507936507937 83.17460317460318,120.00000000000001 83.17460317460318,120.63492063492065 82.96296296296298,121.26984126984128 82.96296296296298,121.90476190476191 82.75132275132276,122.53968253968254 82.75132275132276,123.17460317460318 82.75132275132276,123.80952380952382 82.75132275132276,124.44444444444446 82.75132275132276,125.07936507936509 82.75132275132276,125.71428571428572 82.96296296296298,126.34920634920636 82.96296296296298,126.98412698412699 82.96296296296298,127.61904761904763 82.96296296296298,128.25396825396825 83.17460317460318,128.88888888888889 83.17460317460318,129.52380952380955 83.59788359788361,130.15873015873018 84.02116402116403,130.7936507936508 84.23280423280424,131.42857142857144 84.65608465608466,131.85185185185185 85.07936507936509,132.4867724867725 85.5026455026455,132.9100529100529 86.13756613756614,133.33333333333334 86.56084656084657,133.75661375661377 87.1957671957672,134.17989417989418 87.61904761904762,134.6031746031746 88.25396825396827,135.02645502645504 88.67724867724868,135.44973544973547 89.1005291005291,135.87301587301587 89.73544973544975,136.2962962962963 90.15873015873017,136.71957671957674 90.58201058201058,137.14285714285717 91.00529100529101,137.56613756613757 91.42857142857143,137.989417989418 91.85185185185186,138.41269841269843 92.27513227513228,138.83597883597884 92.69841269841271,139.47089947089947 93.12169312169313,140.10582010582013 93.33333333333334,140.74074074074076 93.54497354497356,141.3756613756614 93.96825396825398,142.01058201058203 94.17989417989419,142.64550264550266 94.17989417989419,143.2804232804233 94.39153439153439,143.91534391534393 94.60317460317461,144.55026455026456 94.60317460317461,145.1851851851852 94.60317460317461,145.82010582010582 94.60317460317461,146.45502645502646 94.60317460317461,147.0899470899471 94.60317460317461,147.72486772486775 94.39153439153439,148.35978835978838 94.17989417989419,148.99470899470901 93.96825396825398,149.62962962962965 93.54497354497356,150.26455026455028 93.12169312169313,150.6878306878307 92.69841269841271,151.32275132275134 92.27513227513228,151.95767195767198 91.85185185185186,152.38095238095238 91.21693121693123,152.8042328042328 90.7936507936508,153.22751322751324 90.15873015873017,153.65079365079367 89.52380952380953,153.86243386243387 88.8888888888889,154.2857142857143 88.25396825396827,154.4973544973545 87.61904761904762,154.7089947089947 86.98412698412699,155.13227513227514 86.34920634920636,155.34391534391534 85.71428571428572,155.55555555555557 85.07936507936509,155.76719576719577 84.44444444444446,155.978835978836 83.80952380952381,156.4021164021164 83.17460317460318,156.61375661375664 82.53968253968254,156.82539682539684 81.90476190476191,157.24867724867727 81.26984126984128,157.46031746031747 80.63492063492065,157.8835978835979 80.0,158.0952380952381 79.36507936507937,158.30687830687833 78.73015873015873,158.73015873015873 78.0952380952381,158.94179894179896 77.46031746031747,159.36507936507937 76.82539682539684,159.5767195767196 76.19047619047619,160.0 75.55555555555556,160.21164021164023 74.92063492063492,160.63492063492066 74.28571428571429,160.84656084656086 73.65079365079366,161.2698412698413 73.01587301587303,161.6931216931217 72.38095238095238,161.90476190476193 69.20634920634922,163.3862433862434" style="fill:none; stroke:#00aa99; stroke-width:1.0"  /><polyline points="69.20634920634922,163.3862433862434 66.87830687830689,160.42328042328043 66.45502645502646,159.7883597883598 66.03174603174604,159.36507936507937 65.60846560846561,158.73015873015873 65.18518518518519,158.0952380952381 64.76190476190477,157.67195767195767 64.33862433862434,157.03703703703704 63.91534391534392,156.61375661375664 63.492063492063494,155.978835978836 63.06878306878308,155.55555555555557 62.64550264550265,154.92063492063494 62.22222222222223,154.2857142857143 61.798941798941804,153.86243386243387 61.37566137566138,153.22751322751324 60.952380952380956,152.5925925925926 60.52910052910053,152.16931216931218 60.10582010582011,151.53439153439155 59.682539682539684,151.11111111111111 59.25925925925927,150.6878306878307 58.83597883597884,150.05291005291005 58.41269841269842,149.41798941798942 57.989417989417994,148.99470899470901 57.56613756613757,148.57142857142858 57.142857142857146,148.14814814814815 56.71957671957672,147.51322751322752 56.2962962962963,147.0899470899471 55.87301587301588,146.45502645502646 55.449735449735456,145.82010582010582 55.02645502645503,145.39682539682542 54.60317460317461,144.76190476190476 54.179894179894184,144.12698412698413 53.75661375661376,143.70370370370372 53.333333333333336,143.0687830687831 52.91005291005291,142.64550264550266 52.48677248677249,142.01058201058203 52.06349206349207,141.3756613756614 51.640211640211646,140.95238095238096 51.21693121693122,140.31746031746033 51.00529100529101,139.6825396825397 50.58201058201058,139.25925925925927 50.158730158730165,138.62433862433863 49.73544973544974,138.2010582010582 49.31216931216932,137.56613756613757 48.88888888888889,136.93121693121694 48.46560846560847,136.5079365079365 48.042328042328045,135.87301587301587 47.61904761904762,135.44973544973547 47.195767195767196,134.81481481481484 46.77248677248678,134.3915343915344 46.349206349206355,133.75661375661377 45.92592592592593,133.12169312169314 45.50264550264551,132.4867724867725 45.07936507936508,132.06349206349208 44.65608465608466,131.42857142857144 44.232804232804234,131.005291005291 43.80952380952381,130.37037037037038 43.386243386243386,129.94708994708995 43.17460317460318,129.31216931216932 42.75132275132275,128.88888888888889 42.32804232804233,128.46560846560848 41.904761904761905,127.83068783068784 41.48148148148149,127.1957671957672 41.058201058201064,126.77248677248679 40.63492063492064,126.13756613756615 40.211640211640216,125.5026455026455 39.78835978835979,125.07936507936509 39.36507936507937,124.44444444444446 38.94179894179894,123.80952380952382 38.51851851851852,123.3862433862434 38.095238095238095,122.75132275132276 37.67195767195768,122.11640211640213 37.248677248677254,121.4814814814815 36.82539682539683,120.84656084656086 36.613756613756614,120.21164021164022 36.19047619047619,119.57671957671958 35.76719576719577,118.94179894179895 35.55555555555556,118.30687830687832 35.34391534391535,117.67195767195768 34.920634920634924,117.03703703703705 34.70899470899471,116.4021164021164 34.4973544973545,115.76719576719577 34.28571428571429,115.13227513227514 34.074074074074076,114.49735449735451 33.86243386243387,113.86243386243387 33.86243386243387,113.22751322751324 33.65079365079365,112.5925925925926 33.86243386243387,111.95767195767196 33.86243386243387,111.32275132275133 34.074074074074076,110.6878306878307 34.4973544973545,110.05291005291006 34.920634920634924,109.41798941798943 35.34391534391535,108.78306878306879 35.97883597883598,108.35978835978837 36.402116402116405,107.93650793650795 37.03703703703704,107.51322751322752 37.67195767195768,107.51322751322752 38.095238095238095,107.0899470899471 38.730158730158735,107.0899470899471 39.15343915343916,106.66666666666667 39.78835978835979,106.66666666666667 40.423280423280424,106.66666666666667 41.058201058201064,106.66666666666667 41.6931216931217,106.66666666666667 42.32804232804233,106.66666666666667 42.96296296296297,106.66666666666667 43.5978835978836,106.66666666666667 44.232804232804234,106.66666666666667 44.867724867724874,106.66666666666667 45.50264550264551,106.45502645502647 46.13756613756614,106.45502645502647 46.77248677248678,106.45502645502647 47.40740740740741,106.45502645502647 48.042328042328045,106.24338624338625 48.677248677248684,106.03174603174604 49.31216931216932,106.03174603174604 49.94708994708995,105.82010582010582 50.58201058201058,105.60846560846562 51.21693121693122,105.3968253968254 51.851851851851855,104.97354497354497 52.48677248677249,104.76190476190477 53.12169312169313,104.33862433862434 53.75661375661376,103.91534391534393 54.39153439153439,103.4920634920635 54.81481481481482,103.06878306878308 55.23809523809524,102.64550264550266 55.661375661375665,102.22222222222223 56.08465608465609,101.5873015873016 56.2962962962963,100.95238095238096 56.50793650793651,100.31746031746033 56.71957671957672,99.68253968253968 56.93121693121694,99.04761904761905 56.93121693121694,98.41269841269842 56.93121693121694,97.77777777777779 56.93121693121694,97.14285714285715 56.93121693121694,96.50793650793652 56.71957671957672,95.87301587301587 56.50793650793651,95.23809523809524 56.2962962962963,94.60317460317461 56.08465608465609,93.96825396825398 56.08465608465609,93.33333333333334 55.87301587301588,92.69841269841271 55.661375661375665,92.06349206349208 55.449735449735456,91.42857142857143 55.23809523809524,90.7936507936508 55.02645502645503,90.15873015873017 54.81481481481482,89.52380952380953 54.60317460317461,88.8888888888889 54.39153439153439,88.25396825396827 54.179894179894184,87.61904761904762 53.968253968253975,86.98412698412699 53.75661375661376,86.34920634920636 53.54497354497355,85.71428571428572 53.333333333333336,85.07936507936509 53.12169312169313,84.44444444444446 52.91005291005291,83.80952380952381 52.48677248677249,83.17460317460318 52.48677248677249,82.53968253968254 52.06349206349207,82.11640211640213 51.851851851851855,81.48148148148148 51.42857142857143,80.84656084656085 51.00529100529101,80.21164021164022 50.7936507936508,79.57671957671958 50.370370370370374,79.15343915343917 50.158730158730165,78.51851851851852 49.73544973544974,78.0952380952381 49.523809523809526,77.46031746031747 49.1005291005291,77.03703703703704 48.677248677248684,76.4021164021164 48.25396825396826,75.76719576719577 47.830687830687836,75.13227513227514 47.40740740740741,74.70899470899471 46.98412698412699,74.07407407407408 46.560846560846564,73.43915343915344 46.13756613756614,73.01587301587303 45.714285714285715,72.5925925925926 45.29100529100529,71.95767195767196 44.867724867724874,71.53439153439155 44.44444444444445,71.11111111111111 44.021164021164026,70.47619047619048 43.5978835978836,70.05291005291006 43.17460317460318,69.62962962962963 42.75132275132275,69.20634920634922 42.11640211640212,68.78306878306879 41.48148148148149,68.35978835978837 41.058201058201064,67.93650793650794 40.63492063492064,67.51322751322752 40.0,67.08994708994709 39.36507936507937,66.66666666666667 38.94179894179894,66.24338624338625 38.30687830687831,65.82010582010582 37.883597883597886,65.3968253968254 37.248677248677254,64.97354497354497 36.82539682539683,64.55026455026456 36.19047619047619,64.12698412698413 35.55555555555556,63.91534391534392 34.920634920634924,63.70370370370371 34.28571428571429,63.70370370370371 33.65079365079365,63.492063492063494 33.01587301587302,63.492063492063494 32.38095238095239,63.492063492063494 31.746031746031747,63.492063492063494 31.111111111111114,63.70370370370371 30.476190476190478,63.91534391534392 29.841269841269842,64.12698412698413 29.20634920634921,64.55026455026456 28.571428571428573,64.76190476190477 28.14814814814815,65.18518518518519 27.513227513227516,65.60846560846561 27.089947089947092,66.03174603174604 26.666666666666668,66.45502645502646 26.243386243386244,66.87830687830689 25.820105820105823,67.3015873015873 25.3968253968254,67.93650793650794 24.973544973544975,68.57142857142858 24.761904761904763,69.20634920634922 24.338624338624342,69.84126984126985 24.12698412698413,70.47619047619048 23.915343915343918,71.11111111111111 23.703703703703706,71.74603174603175 23.492063492063494,72.38095238095238 23.06878306878307,73.01587301587303 22.857142857142858,73.65079365079366 22.645502645502646,74.28571428571429 22.433862433862437,74.92063492063492 22.010582010582013,75.55555555555556 21.58730158730159,76.19047619047619 21.164021164021165,76.61375661375662 20.740740740740744,77.24867724867725 20.31746031746032,77.67195767195767 19.894179894179896,78.0952380952381 19.25925925925926,78.51851851851852 18.624338624338627,78.94179894179895 17.98941798941799,79.15343915343917 17.354497354497354,79.36507936507937 16.71957671957672,79.57671957671958 16.084656084656086,79.7883597883598 15.449735449735451,79.7883597883598 14.814814814814817,79.7883597883598 14.17989417989418,79.57671957671958 13.544973544973546,79.36507936507937 12.910052910052912,79.15343915343917 12.275132275132275,78.73015873015873 11.851851851851853,78.30687830687832 11.428571428571429,77.88359788359789 11.005291005291006,77.24867724867725 10.793650793650794,76.61375661375662 10.370370370370372,76.19047619047619 10.15873015873016,75.55555555555556 9.947089947089948,74.92063492063492 9.735449735449736,74.28571428571429 9.312169312169313,73.65079365079366 9.100529100529101,73.01587301587303 8.88888888888889,72.38095238095238 8.465608465608467,71.74603174603175 8.253968253968255,71.11111111111111 8.042328042328043,70.47619047619048 7.830687830687832,69.84126984126985 7.6190476190476195,69.20634920634922 7.407407407407408,68.57142857142858 6.984126984126985,67.93650793650794 6.772486772486773,67.3015873015873 6.560846560846561,66.66666666666667 6.34920634920635,66.03174603174604 6.137566137566138,65.3968253968254 5.9259259259259265,64.76190476190477 5.714285714285714,64.12698412698413 5.291005291005291,63.492063492063494 5.07936507936508,62.85714285714286 4.867724867724868,62.22222222222223 4.656084656084657,61.58730158730159 4.2328042328042335,60.952380952380956 4.021164021164021,60.31746031746032 3.8095238095238098,59.682539682539684 3.597883597883598,59.04761904761905 3.3862433862433865,58.41269841269842 2.9629629629629632,57.777777777777786 2.53968253968254,57.142857142857146 2.3280423280423284,56.50793650793651 1.9047619047619049,55.87301587301588 1.4814814814814816,55.23809523809524 1.26984126984127,54.60317460317461 -0.21164021164021166,51.640211640211646" style="fill:none; stroke:#3300bb; stroke-width:1.0"  /><circle cx="-0.21164021164021166" cy="51.640211640211646" r="2.0" style="fill:none; stroke:#000000aa; stroke-width:0.25" /><circle cx="92.4867724867725" cy="0.0" r="2.0" style="fill:none; stroke:#000000aa; stroke-width:0.25" /><circle cx="155.34391534391534" cy="93.54497354497356" r="2.0" style="fill:none; stroke:#000000aa; stroke-width:0.25" /><circle cx="69.20634920634922" cy="163.3862433862434" r="2.0" style="fill:none; stroke:#000000aa; stroke-width:0.25" /><circle cx="0.21164021164021166" cy="51.640211640211646" r="2.0" style="fill:none; stroke:#ff3366aa; stroke-width:0.25" /><circle cx="92.27513227513228" cy="0.21164021164021166" r="2.0" style="fill:none; stroke:#ff3366aa; stroke-width:0.25" /><circle cx="155.13227513227514" cy="94.17989417989419" r="2.0" style="fill:none; stroke:#ff3366aa; stroke-width:0.25" /><circle cx="69.20634920634922" cy="163.1746031746032" r="2.0" style="fill:none; stroke:#ff3366aa; stroke-width:0.25" /><polyline points="9.947089947089948,45.29100529100529 9.312169312169313,45.714285714285715 8.677248677248677,46.13756613756614 8.042328042328043,46.560846560846564 7.407407407407408,46.98412698412699 6.772486772486773,47.40740740740741 6.34920634920635,47.830687830687836 5.714285714285714,48.042328042328045 5.07936507936508,48.46560846560847 4.444444444444445,48.677248677248684 3.8095238095238098,49.1005291005291 3.174603174603175,49.523809523809526" style="fill:none; stroke:#001100; stroke-width:1.0" /><polyline points="4.867724867724868,62.22222222222223 4.656084656084657,61.58730158730159 4.2328042328042335,60.952380952380956 4.021164021164021,60.31746031746032 3.8095238095238098,59.682539682539684 3.597883597883598,59.04761904761905 3.3862433862433865,58.41269841269842 2.9629629629629632,57.777777777777786 2.53968253968254,57.142857142857146 2.3280423280423284,56.50793650793651 1.9047619047619049,55.87301587301588 1.4814814814814816,55.23809523809524 1.26984126984127,54.60317460317461" style="fill:none; stroke:#000011; stroke-width:1.0" /><polyline points="100.10582010582011,8.88888888888889 99.68253968253968,8.253968253968255 99.25925925925927,7.830687830687832 98.83597883597885,7.195767195767196 98.41269841269842,6.772486772486773 97.989417989418,6.34920634920635 97.56613756613757,5.9259259259259265 97.14285714285715,5.291005291005291 96.71957671957672,4.867724867724868 96.2962962962963,4.444444444444445 95.87301587301587,4.021164021164021 95.44973544973546,3.3862433862433865 95.02645502645504,2.9629629629629632 94.60317460317461,2.53968253968254" style="fill:none; stroke:#001100; stroke-width:1.0" /><polyline points="81.6931216931217,5.714285714285714 82.32804232804233,5.291005291005291 82.96296296296298,5.07936507936508 83.59788359788361,4.867724867724868 84.23280423280424,4.656084656084657 84.86772486772487,4.2328042328042335 85.5026455026455,3.8095238095238098 86.13756613756614,3.597883597883598 86.77248677248677,3.174603174603175 87.40740740740742,2.7513227513227516 88.04232804232805,2.53968253968254 88.67724867724868,2.1164021164021167 89.31216931216932,1.6931216931216932" style="fill:none; stroke:#000011; stroke-width:1.0" /><polyline points="147.30158730158732,102.85714285714286 147.72486772486775,102.43386243386244 148.14814814814815,101.79894179894181 148.57142857142858,101.16402116402116 148.99470899470901,100.74074074074075 149.41798941798942,100.31746031746033 149.84126984126985,99.8941798941799 150.26455026455028,99.25925925925927 150.6878306878307,98.83597883597885 151.11111111111111,98.41269841269842 151.53439153439155,97.989417989418 151.95767195767198,97.56613756613757 152.38095238095238,96.93121693121694 152.8042328042328,96.50793650793652" style="fill:none; stroke:#001100; stroke-width:1.0" /><polyline points="148.99470899470901,84.02116402116403 149.41798941798942,84.44444444444446 149.62962962962965,85.07936507936509 150.05291005291005,85.5026455026455 150.47619047619048,86.13756613756614 150.6878306878307,86.77248677248677 151.11111111111111,87.1957671957672 151.53439153439155,87.83068783068784 151.95767195767198,88.46560846560847 152.38095238095238,89.1005291005291 152.8042328042328,89.73544973544975 153.22751322751324,90.37037037037038 153.65079365079367,91.00529100529101" style="fill:none; stroke:#000011; stroke-width:1.0" /><polyline points="61.798941798941804,153.86243386243387 62.22222222222223,154.2857142857143 62.64550264550265,154.92063492063494 63.06878306878308,155.55555555555557 63.492063492063494,155.978835978836 63.91534391534392,156.61375661375664 64.33862433862434,157.03703703703704 64.76190476190477,157.67195767195767 65.18518518518519,158.0952380952381 65.60846560846561,158.73015873015873 66.03174603174604,159.36507936507937 66.45502645502646,159.7883597883598 66.87830687830689,160.42328042328043" style="fill:none; stroke:#001100; stroke-width:1.0" /><polyline points="80.0,158.0952380952381 79.36507936507937,158.30687830687833 78.73015873015873,158.73015873015873 78.0952380952381,158.94179894179896 77.46031746031747,159.36507936507937 76.82539682539684,159.5767195767196 76.19047619047619,160.0 75.55555555555556,160.21164021164023 74.92063492063492,160.63492063492066 74.28571428571429,160.84656084656086 73.65079365079366,161.2698412698413 73.01587301587303,161.6931216931217 72.38095238095238,161.90476190476193" style="fill:none; stroke:#000011; stroke-width:1.0" /><polyline points="3.174603174603175,49.523809523809526 -14.814814814814817,60.74074074074075" style="fill:none; stroke:#ffaa00; stroke-width:0.4" /><polyline points="1.26984126984127,54.60317460317461 -7.830687830687832,35.55555555555556" style="fill:none; stroke:#aaff00; stroke-width:0.4" /><polyline points="94.60317460317461,2.53968253968254 80.84656084656085,-13.544973544973546" style="fill:none; stroke:#ffaa00; stroke-width:0.4" /><polyline points="89.31216931216932,1.6931216931216932 107.93650793650795,-8.253968253968255" style="fill:none; stroke:#aaff00; stroke-width:0.4" /><polyline points="152.8042328042328,96.50793650793652 166.56084656084658,80.42328042328043" style="fill:none; stroke:#ffaa00; stroke-width:0.4" /><polyline points="153.65079365079367,91.00529100529101 165.2910052910053,108.57142857142858" style="fill:none; stroke:#aaff00; stroke-width:0.4" /><polyline points="66.87830687830689,160.42328042328043 79.7883597883598,177.14285714285717" style="fill:none; stroke:#ffaa00; stroke-width:0.4" /><polyline points="72.38095238095238,161.90476190476193 53.54497354497355,171.42857142857144" style="fill:none; stroke:#aaff00; stroke-width:0.4" /><circle cx="80.63492063492065" cy="80.84656084656085" r="1.0" style="fill:#444444; stroke-width:0" /><circle cx="80.63492063492065" cy="82.75132275132276" r="10.582010582010582" style="fill:#ff770022; stroke-width:0" /><circle cx="80.63492063492065" cy="82.75132275132276" r="1.0" style="fill:#ff7700; stroke-width:0" /></svg>