<?xml version="1.0" encoding="UTF-8" standalone="no"?><svg width="615.2380952380953" height="561.9047619047619" viewBox="-10 -10 225.0793650793651 207.30158730158732" xmlns="http://www.w3.org/2000/svg" xmlns:xlink="http://www.w3.org/1999/xlink"><polyline points="-0.21164021164021166,70.05291005291006 3.174603174603175,67.72486772486774 3.8095238095238098,67.51322751322752 4.2328042328042335,67.08994708994709 4.867724867724868,66.66666666666667 5.502645502645503,66.45502645502646 5.9259259259259265,66.03174603174604 6.560846560846561,65.82010582010582 6.984126984126985,65.3968253968254 7.407407407407408,64.97354497354497 8.042328042328043,64.55026455026456 8.88888888888889,64.12698412698413 9.312169312169313,63.70370370370371 9.947089947089948,63.280423280423285 10.582010582010582,63.06878306878308 11.005291005291006,62.64550264550265 11.640211640211641,62.43386243386244 12.275132275132275,62.22222222222223 12.6984126984127,61.798941798941804 13.333333333333334,61.37566137566138 13.756613756613758,60.952380952380956 14.391534391534393,60.74074074074075 14.814814814814817,60.31746031746032 15.449735449735451,59.8941798941799 15.873015873015873,59.470899470899475 16.50793650793651,59.25925925925927 17.142857142857146,59.04761904761905 17.566137566137566,58.41269841269842 18.201058201058203,58.2010582010582 18.624338624338627,57.777777777777786 19.25925925925926,57.35449735449736 19.894179894179896,56.93121693121694 20.529100529100532,56.50793650793651 21.164021164021165,56.08465608465609 21.7989417989418,56.08465608465609 22.222222222222225,55.661375661375665 22.645502645502646,55.23809523809524 23.06878306878307,54.81481481481482 23.703703703703706,54.60317460317461 24.338624338624342,54.39153439153439 24.761904761904763,53.968253968253975 25.3968253968254,53.54497354497355 26.031746031746035,53.333333333333336 26.455026455026456,52.91005291005291 27.089947089947092,52.48677248677249 27.724867724867728,52.06349206349207 28.35978835978836,51.851851851851855 28.783068783068785,51.42857142857143 29.41798941798942,51.21693121693122 29.841269841269842,50.7936507936508 30.476190476190478,50.370370370370374 31.111111111111114,49.94708994708995 31.746031746031747,49.94708994708995 32.16931216931217,49.31216931216932 32.592592592592595,48.88888888888889 33.22751322751323,48.677248677248684 33.86243386243387,48.25396825396826 34.28571428571429,47.61904761904762 34.920634920634924,47.40740740740741 35.34391534391535,46.98412698412699 35.97883597883598,46.560846560846564 36.613756613756614,46.13756613756614 37.248677248677254,45.92592592592593 37.67195767195768,45.50264550264551 38.30687830687831,45.07936507936508 38.94179894179894,44.867724867724874 39.57671957671958,44.44444444444445 40.211640211640216,44.232804232804234 40.63492063492064,43.80952380952381 41.26984126984127,43.386243386243386 41.6931216931217,42.96296296296297 42.11640211640212,42.539682539682545 42.75132275132275,42.32804232804233 43.386243386243386,41.904761904761905 44.021164021164026,41.48148148148149 44.65608465608466,41.058201058201064 45.29100529100529,40.63492063492064 45.92592592592593,40.423280423280424 46.349206349206355,40.0 46.98412698412699,39.57671957671958 47.40740740740741,39.15343915343916 48.042328042328045,38.94179894179894 48.677248677248684,38.51851851851852 49.31216931216932,38.30687830687831 49.73544973544974,37.883597883597886 50.158730158730165,37.46031746031746 50.7936507936508,37.03703703703704 51.42857142857143,36.613756613756614 52.06349206349207,36.19047619047619 52.6984126984127,35.97883597883598 53.333333333333336,35.55555555555556 53.968253968253975,35.13227513227513 54.60317460317461,34.70899470899471 55.23809523809524,34.4973544973545 55.661375661375665,34.074074074074076 56.2962962962963,33.65079365079365 56.93121693121694,33.22751322751323 57.56613756613757,32.804232804232804 58.2010582010582,32.592592592592595 58.62433862433863,32.16931216931217 59.25925925925927,31.95767195767196 59.682539682539684,31.53439153439154 60.31746031746032,31.111111111111114 60.952380952380956,30.68783068783069 61.58730158730159,30.264550264550266 62.22222222222223,29.841269841269842 62.64550264550265,29.41798941798942 63.280423280423285,29.20634920634921 63.91534391534392,28.783068783068785 64.55026455026456,28.35978835978836 65.18518518518519,27.93650793650794 65.82010582010582,27.724867724867728 66.24338624338625,27.301587301587304 66.87830687830689,26.87830687830688 67.3015873015873,26.455026455026456 67.72486772486774,26.031746031746035 68.35978835978837,25.60846560846561 68.994708994709,25.185185185185187 69.62962962962963,24.761904761904763 70.26455026455027,24.55026455026455 70.6878306878307,24.12698412698413 71.32275132275133,23.915343915343918 71.95767195767196,23.492063492063494 72.38095238095238,23.06878306878307 73.01587301587303,22.857142857142858 73.43915343915344,22.433862433862437 74.07407407407408,22.222222222222225 74.49735449735451,21.7989417989418 75.13227513227514,21.375661375661377 75.76719576719577,20.952380952380953 76.4021164021164,20.529100529100532 77.03703703703704,20.31746031746032 77.46031746031747,19.894179894179896 78.0952380952381,19.682539682539684 78.51851851851852,19.25925925925926 79.15343915343917,18.83597883597884 79.7883597883598,18.412698412698415 80.42328042328043,17.98941798941799 81.05820105820106,17.77777777777778 81.48148148148148,17.354497354497354 82.11640211640213,16.931216931216934 82.75132275132276,16.50793650793651 83.3862433862434,16.084656084656086 84.02116402116403,15.661375661375663 84.65608465608466,15.449735449735451 85.07936507936509,15.026455026455027 85.71428571428572,14.814814814814817 86.13756613756614,14.391534391534393 86.77248677248677,13.96825396825397 87.40740740740742,13.544973544973546 87.83068783068784,13.121693121693122 88.46560846560847,12.910052910052912 89.1005291005291,12.486772486772487 89.73544973544975,12.063492063492065 90.37037037037038,11.851851851851853 90.7936507936508,11.428571428571429 91.42857142857143,11.005291005291006 92.06349206349208,10.793650793650794 92.4867724867725,10.370370370370372 92.91005291005291,9.947089947089948 93.54497354497356,9.735449735449736 93.96825396825398,9.312169312169313 94.60317460317461,9.100529100529101 95.02645502645504,8.677248677248677 95.66137566137567,8.465608465608467 96.08465608465609,8.042328042328043 96.71957671957672,7.6190476190476195 97.35449735449737,7.195767195767196 97.989417989418,6.772486772486773 98.62433862433863,6.34920634920635 99.25925925925927,5.9259259259259265 99.8941798941799,5.502645502645503 100.52910052910053,5.07936507936508 101.16402116402116,4.867724867724868 101.5873015873016,4.444444444444445 102.01058201058201,4.021164021164021 102.43386243386244,3.597883597883598 103.06878306878308,3.174603174603175 103.4920634920635,2.7513227513227516 104.12698412698414,2.53968253968254 104.76190476190477,2.1164021164021167 105.3968253968254,1.6931216931216932 108.14814814814815,-0.21164021164021166" style="fill:none; stroke:#cc0000; stroke-width:3.0" stroke-dasharray="6,3" /><polyline points="108.14814814814815,-0.21164021164021166 109.84126984126985,2.9629629629629632 110.05291005291006,3.597883597883598 110.47619047619048,4.021164021164021 110.6878306878307,4.656084656084657 111.11111111111111,5.291005291005291 111.32275132275133,5.9259259259259265 111.53439153439155,6.560846560846561 111.95767195767196,7.195767195767196 112.16931216931218,7.830687830687832 112.5925925925926,8.465608465608467 112.80423280423281,9.100529100529101 113.01587301587303,9.735449735449736 113.43915343915344,10.370370370370372 113.65079365079366,11.005291005291006 114.07407407407408,11.428571428571429 114.28571428571429,12.063492063492065 114.70899470899472,12.6984126984127 114.92063492063492,13.333333333333334 115.34391534391536,13.96825396825397 115.55555555555557,14.603174603174605 115.97883597883599,15.238095238095239 116.1904761904762,15.873015873015873 116.61375661375662,16.50793650793651 116.82539682539684,17.142857142857146 117.24867724867725,17.566137566137566 117.46031746031747,18.201058201058203 117.88359788359789,18.83597883597884 118.0952380952381,19.47089947089947 118.51851851851853,20.105820105820108 118.94179894179895,20.740740740740744 119.15343915343917,21.375661375661377 119.57671957671958,22.010582010582013 120.00000000000001,22.645502645502646 120.21164021164022,23.280423280423282 120.63492063492065,23.915343915343918 120.84656084656086,24.55026455026455 121.26984126984128,25.185185185185187 121.6931216931217,25.820105820105823 121.90476190476191,26.455026455026456 122.32804232804234,27.089947089947092 122.53968253968254,27.724867724867728 122.96296296296298,28.14814814814815 123.17460317460318,28.783068783068785 123.59788359788361,29.41798941798942 124.02116402116403,30.052910052910054 124.23280423280424,30.68783068783069 124.65608465608466,31.111111111111114 124.86772486772487,31.746031746031747 125.2910052910053,32.38095238095239 125.71428571428572,33.01587301587302 125.92592592592594,33.65079365079365 126.34920634920636,34.28571428571429 126.56084656084657,34.920634920634924 126.98412698412699,35.55555555555556 127.40740740740742,36.19047619047619 127.83068783068784,36.82539682539683 128.04232804232805,37.46031746031746 128.46560846560848,37.883597883597886 128.67724867724868,38.51851851851852 129.10052910052912,38.94179894179894 129.52380952380955,39.36507936507937 129.73544973544975,40.0 130.15873015873018,40.423280423280424 130.37037037037038,41.058201058201064 130.7936507936508,41.48148148148149 131.005291005291,42.11640211640212 131.42857142857144,42.539682539682545 131.64021164021165,43.17460317460318 132.06349206349208,43.5978835978836 132.27513227513228,44.232804232804234 132.6984126984127,44.867724867724874 132.9100529100529,45.50264550264551 133.33333333333334,46.13756613756614 133.75661375661377,46.77248677248678 133.96825396825398,47.40740740740741 134.3915343915344,48.042328042328045 134.81481481481484,48.677248677248684 135.02645502645504,49.31216931216932 135.44973544973547,49.73544973544974 135.66137566137567,50.370370370370374 135.87301587301587,51.00529100529101 136.2962962962963,51.640211640211646 136.5079365079365,52.27513227513228 136.93121693121694,52.6984126984127 137.14285714285717,53.333333333333336 137.56613756613757,53.75661375661376 137.7777777777778,54.39153439153439 138.2010582010582,55.02645502645503 138.62433862433863,55.661375661375665 139.04761904761907,56.08465608465609 139.47089947089947,56.71957671957672 139.8941798941799,57.35449735449736 140.31746031746033,57.777777777777786 140.74074074074076,58.2010582010582 141.16402116402116,58.62433862433863 141.5873015873016,59.04761904761905 142.22222222222223,59.470899470899475 142.85714285714286,59.8941798941799 143.4920634920635,60.10582010582011 144.12698412698413,60.31746031746032 144.76190476190476,60.52910052910053 145.39682539682542,60.74074074074075 146.03174603174605,60.74074074074075 146.66666666666669,60.74074074074075 147.30158730158732,60.74074074074075 147.93650793650795,60.52910052910053 148.57142857142858,60.31746031746032 149.20634920634922,60.10582010582011 149.84126984126985,59.682539682539684 150.47619047619048,59.25925925925927 151.11111111111111,58.83597883597884 151.53439153439155,58.41269841269842 152.16931216931218,57.989417989417994 152.5925925925926,57.35449735449736 153.01587301587304,56.93121693121694 153.43915343915344,56.50793650793651 153.86243386243387,55.87301587301588 154.2857142857143,55.23809523809524 154.4973544973545,54.60317460317461 154.92063492063494,53.968253968253975 155.13227513227514,53.333333333333336 155.34391534391534,52.6984126984127 155.76719576719577,52.06349206349207 155.978835978836,51.42857142857143 156.1904761904762,50.7936507936508 156.4021164021164,50.158730158730165 156.61375661375664,49.523809523809526 157.03703703703704,48.88888888888889 157.24867724867727,48.25396825396826 157.46031746031747,47.61904761904762 157.67195767195767,46.98412698412699 157.8835978835979,46.349206349206355 158.0952380952381,45.714285714285715 158.51851851851853,45.07936507936508 158.73015873015873,44.44444444444445 159.15343915343917,43.80952380952381 159.5767195767196,43.17460317460318 160.0,42.539682539682545 160.42328042328043,42.11640211640212 160.84656084656086,41.6931216931217 161.2698412698413,41.058201058201064 161.6931216931217,40.63492063492064 162.11640211640213,40.211640211640216 162.75132275132276,39.78835978835979 163.3862433862434,39.36507936507937 163.80952380952382,38.730158730158735 164.44444444444446,38.730158730158735 165.0793650793651,38.51851851851852 165.50264550264552,38.095238095238095 166.13756613756615,38.30687830687831 166.7724867724868,38.30687830687831 167.40740740740742,38.51851851851852 168.04232804232805,38.51851851851852 168.67724867724868,38.730158730158735 169.31216931216932,38.94179894179894 169.94708994708995,39.15343915343916 170.37037037037038,39.57671957671958 171.005291005291,40.0 171.64021164021165,40.423280423280424 172.27513227513228,40.63492063492064 172.6984126984127,41.058201058201064 173.12169312169314,41.48148148148149 173.75661375661377,41.904761904761905 174.1798941798942,42.32804232804233 174.6031746031746,42.75132275132275 175.23809523809524,43.17460317460318 175.66137566137567,43.5978835978836 176.0846560846561,44.021164021164026 176.50793650793653,44.44444444444445 176.93121693121694,44.867724867724874 177.35449735449737,45.29100529100529 177.989417989418,45.714285714285715 178.41269841269843,46.13756613756614 178.83597883597884,46.77248677248678 179.25925925925927,47.195767195767196 179.6825396825397,47.61904761904762 180.10582010582013,48.042328042328045 180.52910052910053,48.46560846560847 180.95238095238096,49.1005291005291 181.3756613756614,49.523809523809526 181.79894179894183,50.158730158730165 182.01058201058203,50.7936507936508 182.43386243386246,51.21693121693122 182.85714285714286,51.851851851851855 183.2804232804233,52.48677248677249 183.70370370370372,52.91005291005291 183.91534391534393,53.54497354497355 184.33862433862436,53.968253968253975 184.55026455026456,54.60317460317461 184.973544973545,55.02645502645503 185.39682539682542,55.661375661375665 185.60846560846562,56.2962962962963 186.03174603174605,56.71957671957672 186.24338624338625,57.35449735449736 186.66666666666669,57.989417989417994 187.08994708994712,58.62433862433863 187.30158730158732,59.25925925925927 187.72486772486775,59.8941798941799 187.93650793650795,60.52910052910053 188.14814814814815,61.16402116402117 188.35978835978838,61.798941798941804 188.57142857142858,62.43386243386244 188.78306878306879,63.06878306878308 188.99470899470901,63.70370370370371 189.20634920634922,64.33862433862434 189.20634920634922,64.97354497354497 189.41798941798945,65.60846560846561 189.62962962962965,66.24338624338625 189.84126984126985,66.87830687830689 189.84126984126985,67.51322751322752 190.05291005291008,68.14814814814815 190.05291005291008,68.78306878306879 190.05291005291008,69.41798941798942 189.84126984126985,70.05291005291006 189.84126984126985,70.6878306878307 189.62962962962965,71.32275132275133 189.20634920634922,71.95767195767196 188.78306878306879,72.5925925925926 188.14814814814815,73.01587301587303 187.72486772486775,73.43915343915344 187.30158730158732,73.86243386243387 186.66666666666669,74.28571428571429 186.03174603174605,74.49735449735451 185.39682539682542,74.70899470899471 184.7619047619048,74.92063492063492 184.12698412698415,75.13227513227514 183.4920634920635,75.34391534391536 182.85714285714286,75.55555555555556 182.22222222222223,75.55555555555556 181.5873015873016,75.55555555555556 180.95238095238096,75.55555555555556 180.31746031746033,75.76719576719577 179.6825396825397,75.76719576719577 179.04761904761907,75.76719576719577 178.41269841269843,75.76719576719577 177.7777777777778,75.97883597883599 177.14285714285717,75.97883597883599 176.50793650793653,75.97883597883599 175.87301587301587,76.19047619047619 175.23809523809524,76.19047619047619 174.6031746031746,76.19047619047619 173.96825396825398,76.4021164021164 173.33333333333334,76.4021164021164 172.6984126984127,76.82539682539684 172.06349206349208,77.03703703703704 171.64021164021165,77.46031746031747 171.005291005291,77.67195767195767 170.58201058201058,78.0952380952381 170.15873015873018,78.51851851851852 169.73544973544975,78.94179894179895 169.31216931216932,79.57671957671958 169.10052910052912,80.21164021164022 168.67724867724868,80.84656084656085 168.46560846560848,81.48148148148148 168.46560846560848,82.11640211640213 168.46560846560848,82.75132275132276 168.46560846560848,83.3862433862434 168.46560846560848,84.02116402116403 168.46560846560848,84.65608465608466 168.46560846560848,85.29100529100529 168.67724867724868,85.92592592592594 168.67724867724868,86.56084656084657 168.8888888888889,87.1957671957672 169.10052910052912,87.83068783068784 169.52380952380955,88.46560846560847 169.73544973544975,89.1005291005291 169.94708994708995,89.73544973544975 170.37037037037038,90.37037037037038 170.7936507936508,91.00529100529101 171.005291005291,91.64021164021165 171.42857142857144,92.27513227513228 171.85185185185188,92.69841269841271 172.27513227513228,93.12169312169313 172.6984126984127,93.75661375661376 173.12169312169314,94.17989417989419 173.54497354497354,94.60317460317461 173.96825396825398,95.02645502645504 174.3915343915344,95.44973544973546 174.81481481481484,95.87301587301587 175.23809523809524,96.2962962962963 175.66137566137567,96.71957671957672 176.0846560846561,97.14285714285715 176.71957671957674,97.56613756613757 177.35449735449737,97.989417989418 177.7777777777778,98.41269841269842 178.41269841269843,98.83597883597885 179.04761904761907,99.25925925925927 179.4708994708995,99.68253968253968 180.10582010582013,100.10582010582011 180.74074074074076,100.52910052910053 181.3756613756614,100.95238095238096 182.01058201058203,101.37566137566138 182.43386243386246,101.79894179894181 183.0687830687831,102.22222222222223 183.70370370370372,102.64550264550266 184.12698412698415,103.06878306878308 184.7619047619048,103.4920634920635 185.1851851851852,103.91534391534393 185.82010582010582,104.33862433862434 186.24338624338625,104.76190476190477 186.66666666666669,105.18518518518519 187.30158730158732,105.60846560846562 187.72486772486775,106.03174603174604 188.14814814814815,106.45502645502647 188.57142857142858,106.87830687830689 189.20634920634922,107.3015873015873 189.62962962962965,107.72486772486774 190.05291005291008,108.14814814814815 190.6878306878307,108.57142857142858 191.32275132275134,108.994708994709 191.74603174603175,109.41798941798943 192.3809523809524,109.84126984126985 192.8042328042328,110.26455026455027 193.22751322751324,110.6878306878307 193.65079365079367,111.11111111111111 194.07407407407408,111.53439153439155 194.70899470899474,111.95767195767196 195.13227513227514,112.3809523809524 195.55555555555557,112.80423280423281 196.1904761904762,113.22751322751324 196.61375661375664,113.65079365079366 197.03703703703704,114.07407407407408 197.46031746031747,114.49735449735451 198.0952380952381,114.92063492063492 198.51851851851853,115.34391534391536 198.94179894179896,115.76719576719577 199.36507936507937,116.1904761904762 200.00000000000003,116.61375661375662 200.42328042328043,117.03703703703705 200.84656084656086,117.46031746031747 201.2698412698413,117.88359788359789 201.6931216931217,118.30687830687832 202.11640211640213,118.73015873015873 204.8677248677249,121.26984126984128" style="fill:none; stroke:#999900; stroke-width:1.0"  /><polyline points="204.8677248677249,121.26984126984128 201.90476190476193,123.3862433862434 201.2698412698413,123.80952380952382 200.84656084656086,124.23280423280424 200.21164021164023,124.65608465608466 199.5767195767196,125.07936507936509 199.15343915343917,125.5026455026455 198.51851851851853,125.92592592592594 198.0952380952381,126.34920634920636 197.46031746031747,126.56084656084657 197.03703703703704,126.98412698412699 196.4021164021164,127.40740740740742 195.76719576719577,127.83068783068784 195.34391534391537,128.25396825396825 194.92063492063494,128.67724867724868 194.2857142857143,129.10052910052912 193.86243386243387,129.52380952380955 193.22751322751324,129.94708994708995 192.8042328042328,130.37037037037038 192.16931216931218,130.7936507936508 191.74603174603175,131.21693121693121 191.32275132275134,131.64021164021165 190.6878306878307,132.06349206349208 190.26455026455028,132.4867724867725 189.62962962962965,132.9100529100529 189.20634920634922,133.33333333333334 188.78306878306879,133.75661375661377 188.14814814814815,134.17989417989418 187.72486772486775,134.6031746031746 187.30158730158732,135.02645502645504 186.66666666666669,135.44973544973547 186.24338624338625,135.87301587301587 185.82010582010582,136.2962962962963 185.39682539682542,136.71957671957674 184.7619047619048,137.14285714285717 184.33862433862436,137.56613756613757 183.70370370370372,137.989417989418 183.2804232804233,138.41269841269843 182.64550264550266,138.83597883597884 182.22222222222223,139.25925925925927 181.5873015873016,139.6825396825397 181.16402116402116,140.10582010582013 180.52910052910053,140.52910052910053 180.10582010582013,140.95238095238096 179.6825396825397,141.3756613756614 179.04761904761907,141.7989417989418 178.62433862433863,142.22222222222223 177.989417989418,142.64550264550266 177.35449735449737,143.0687830687831 176.93121693121694,143.4920634920635 176.50793650793653,143.91534391534393 175.87301587301587,144.33862433862436 175.44973544973547,144.76190476190476 174.81481481481484,145.1851851851852 174.1798941798942,145.60846560846562 173.54497354497354,146.03174603174605 172.9100529100529,146.45502645502646 172.27513227513228,146.66666666666669 171.85185185185188,147.30158730158732 171.21693121693124,147.72486772486775 170.58201058201058,147.93650793650795 170.15873015873018,148.35978835978838 169.52380952380955,148.78306878306879 168.8888888888889,149.20634920634922 168.25396825396825,149.62962962962965 167.61904761904762,149.84126984126985 167.19576719576722,150.26455026455028 166.56084656084658,150.6878306878307 165.92592592592595,150.8994708994709 165.2910052910053,151.32275132275134 164.65608465608466,151.74603174603175 164.02116402116403,151.95767195767198 163.3862433862434,152.38095238095238 162.75132275132276,152.5925925925926 162.11640211640213,153.01587301587304 161.4814814814815,153.22751322751324 160.84656084656086,153.43915343915344 160.21164021164023,153.65079365079367 159.5767195767196,153.86243386243387 158.94179894179896,154.07407407407408 158.30687830687833,154.2857142857143 157.67195767195767,154.4973544973545 157.03703703703704,154.7089947089947 156.4021164021164,154.92063492063494 155.76719576719577,155.13227513227514 155.13227513227514,155.13227513227514 154.4973544973545,155.13227513227514 153.86243386243387,155.13227513227514 153.22751322751324,155.13227513227514 152.5925925925926,154.92063492063494 151.95767195767198,154.7089947089947 151.32275132275134,154.4973544973545 150.8994708994709,154.07407407407408 150.47619047619048,153.65079365079367 150.05291005291005,153.22751322751324 149.62962962962965,152.5925925925926 149.62962962962965,151.95767195767198 149.41798941798942,151.32275132275134 149.41798941798942,150.6878306878307 149.41798941798942,150.05291005291005 149.20634920634922,149.41798941798942 149.20634920634922,148.78306878306879 149.41798941798942,148.14814814814815 149.41798941798942,147.51322751322752 149.41798941798942,146.8783068783069 149.41798941798942,146.24338624338625 149.62962962962965,145.60846560846562 149.62962962962965,144.973544973545 149.62962962962965,144.33862433862436 149.62962962962965,143.70370370370372 149.62962962962965,143.0687830687831 149.84126984126985,142.43386243386246 149.84126984126985,141.7989417989418 150.05291005291005,141.16402116402116 150.05291005291005,140.52910052910053 150.26455026455028,139.8941798941799 150.47619047619048,139.25925925925927 150.47619047619048,138.62433862433863 150.6878306878307,137.989417989418 150.6878306878307,137.35449735449737 150.8994708994709,136.71957671957674 150.8994708994709,136.0846560846561 151.11111111111111,135.44973544973547 151.11111111111111,134.81481481481484 151.11111111111111,134.17989417989418 151.32275132275134,133.54497354497354 151.32275132275134,132.9100529100529 151.32275132275134,132.27513227513228 151.32275132275134,131.64021164021165 151.32275132275134,131.005291005291 151.32275132275134,130.37037037037038 151.32275132275134,129.73544973544975 151.32275132275134,129.10052910052912 151.32275132275134,128.46560846560848 151.32275132275134,127.83068783068784 151.11111111111111,127.1957671957672 151.11111111111111,126.56084656084657 151.11111111111111,125.92592592592594 150.8994708994709,125.2910052910053 150.8994708994709,124.65608465608466 150.6878306878307,124.02116402116403 150.47619047619048,123.3862433862434 150.05291005291005,122.75132275132276 149.84126984126985,122.11640211640213 149.41798941798942,121.4814814814815 149.20634920634922,120.84656084656086 148.78306878306879,120.42328042328043 148.35978835978838,120.00000000000001 147.72486772486775,119.57671957671958 147.0899470899471,119.36507936507937 146.45502645502646,119.15343915343917 145.82010582010582,118.94179894179895 145.1851851851852,118.94179894179895 144.55026455026456,118.94179894179895 143.91534391534393,118.94179894179895 143.2804232804233,118.94179894179895 142.64550264550266,119.15343915343917 142.01058201058203,119.36507936507937 141.3756613756614,119.57671957671958 140.74074074074076,119.7883597883598 140.10582010582013,120.21164021164022 139.47089947089947,120.42328042328043 138.83597883597884,120.63492063492065 138.2010582010582,121.05820105820106 137.56613756613757,121.26984126984128 136.93121693121694,121.6931216931217 136.5079365079365,122.11640211640213 135.87301587301587,122.53968253968254 135.23809523809524,122.75132275132276 134.6031746031746,123.17460317460318 133.96825396825398,123.3862433862434 133.54497354497354,123.80952380952382 132.9100529100529,124.02116402116403 132.27513227513228,124.44444444444446 131.64021164021165,124.65608465608466 131.005291005291,125.07936507936509 130.37037037037038,125.5026455026455 129.73544973544975,125.71428571428572 129.10052910052912,126.13756613756615 128.46560846560848,126.34920634920636 128.04232804232805,126.77248677248679 127.40740740740742,126.98412698412699 126.77248677248679,127.40740740740742 126.13756613756615,127.83068783068784 125.5026455026455,128.04232804232805 125.07936507936509,128.46560846560848 124.44444444444446,128.67724867724868 124.02116402116403,129.10052910052912 123.3862433862434,129.31216931216932 122.75132275132276,129.73544973544975 122.11640211640213,130.15873015873018 121.4814814814815,130.58201058201058 120.84656084656086,130.7936507936508 120.21164021164022,131.21693121693121 119.7883597883598,131.64021164021165 119.15343915343917,131.85185185185185 118.73015873015873,132.27513227513228 118.0952380952381,132.6984126984127 117.46031746031747,133.12169312169314 116.82539682539684,133.54497354497354 116.1904761904762,133.96825396825398 115.76719576719577,134.3915343915344 115.13227513227514,134.81481481481484 114.70899470899472,135.23809523809524 114.07407407407408,135.66137566137567 113.65079365079366,136.0846560846561 113.22751322751324,136.5079365079365 112.80423280423281,136.93121693121694 112.3809523809524,137.56613756613757 111.95767195767196,137.989417989418 111.53439153439155,138.62433862433863 111.11111111111111,139.25925925925927 110.6878306878307,139.6825396825397 110.47619047619048,140.31746031746033 110.05291005291006,140.95238095238096 109.84126984126985,141.5873015873016 109.62962962962963,142.22222222222223 109.41798941798943,142.85714285714286 108.994708994709,143.4920634920635 108.994708994709,144.12698412698413 108.78306878306879,144.76190476190476 108.57142857142858,145.39682539682542 108.35978835978837,146.03174603174605 108.35978835978837,146.66666666666669 108.14814814814815,147.30158730158732 107.93650793650795,147.93650793650795 107.93650793650795,148.57142857142858 107.93650793650795,149.20634920634922 107.93650793650795,149.84126984126985 107.93650793650795,150.47619047619048 108.14814814814815,151.11111111111111 108.14814814814815,151.74603174603175 108.35978835978837,152.38095238095238 108.57142857142858,153.01587301587304 108.994708994709,153.65079365079367 109.20634920634922,154.2857142857143 109.62962962962963,154.92063492063494 110.05291005291006,155.55555555555557 110.47619047619048,155.978835978836 110.89947089947091,156.4021164021164 111.32275132275133,156.82539682539684 111.74603174603176,157.24867724867727 112.3809523809524,157.67195767195767 113.01587301587303,158.0952380952381 113.65079365079366,158.51851851851853 114.28571428571429,158.73015873015873 114.92063492063492,159.15343915343917 115.55555555555557,159.36507936507937 116.1904761904762,159.7883597883598 116.82539682539684,160.0 117.24867724867725,160.42328042328043 117.88359788359789,160.63492063492066 118.51851851851853,161.05820105820106 119.15343915343917,161.4814814814815 119.7883597883598,161.90476190476193 120.21164021164022,162.32804232804233 120.84656084656086,162.75132275132276 121.4814814814815,163.1746031746032 121.90476190476191,163.80952380952382 122.32804232804234,164.23280423280426 122.75132275132276,164.65608465608466 123.17460317460318,165.0793650793651 123.59788359788361,165.50264550264552 124.02116402116403,166.13756613756615 124.23280423280424,166.7724867724868 124.65608465608466,167.40740740740742 124.86772486772487,168.04232804232805 124.86772486772487,168.67724867724868 125.07936507936509,169.31216931216932 125.07936507936509,169.94708994708995 125.07936507936509,170.58201058201058 124.86772486772487,171.21693121693124 124.65608465608466,171.85185185185188 124.23280423280424,172.4867724867725 123.80952380952382,173.12169312169314 123.17460317460318,173.54497354497354 122.53968253968254,173.96825396825398 121.90476190476191,174.1798941798942 121.4814814814815,174.6031746031746 120.84656084656086,174.81481481481484 120.21164021164022,175.23809523809524 119.57671957671958,175.44973544973547 118.94179894179895,175.87301587301587 118.30687830687832,176.2962962962963 117.67195767195768,176.50793650793653 117.03703703703705,176.71957671957674 116.4021164021164,177.14285714285717 115.76719576719577,177.35449735449737 115.13227513227514,177.7777777777778 114.49735449735451,177.989417989418 113.86243386243387,178.41269841269843 113.22751322751324,178.62433862433863 112.80423280423281,179.04761904761907 112.16931216931218,179.4708994708995 111.53439153439155,179.6825396825397 110.89947089947091,180.10582010582013 110.26455026455027,180.31746031746033 109.62962962962963,180.74074074074076 108.994708994709,180.95238095238096 108.35978835978837,181.3756613756614 107.72486772486774,181.5873015873016 107.0899470899471,182.01058201058203 106.45502645502647,182.22222222222223 105.82010582010582,182.43386243386246 105.18518518518519,182.85714285714286 104.55026455026456,183.2804232804233 103.91534391534393,183.4920634920635 103.28042328042329,183.91534391534393 102.64550264550266,184.12698412698415 102.22222222222223,184.55026455026456 101.5873015873016,184.973544973545 100.95238095238096,185.1851851851852 100.31746031746033,185.39682539682542 97.35449735449737,186.8783068783069" style="fill:none; stroke:#00aa99; stroke-width:1.0"  /><polyline points="97.35449735449737,186.8783068783069 96.08465608465609,183.91534391534393 95.87301587301587,183.2804232804233 95.44973544973546,182.85714285714286 95.44973544973546,182.22222222222223 95.02645502645504,181.5873015873016 94.81481481481482,180.95238095238096 94.81481481481482,180.31746031746033 94.39153439153439,179.6825396825397 94.17989417989419,179.04761904761907 93.75661375661376,178.62433862433863 93.54497354497356,177.989417989418 93.12169312169313,177.35449735449737 92.91005291005291,176.71957671957674 92.69841269841271,176.0846560846561 92.27513227513228,175.44973544973547 92.06349206349208,174.81481481481484 91.64021164021165,174.1798941798942 91.42857142857143,173.54497354497354 91.21693121693123,172.9100529100529 90.7936507936508,172.27513227513228 90.58201058201058,171.64021164021165 90.15873015873017,171.005291005291 89.94708994708995,170.37037037037038 89.52380952380953,169.94708994708995 89.31216931216932,169.31216931216932 88.8888888888889,168.67724867724868 88.67724867724868,168.04232804232805 88.46560846560847,167.40740740740742 88.04232804232805,166.984126984127 87.83068783068784,166.34920634920636 87.61904761904762,165.71428571428572 87.1957671957672,165.0793650793651 86.98412698412699,164.44444444444446 86.56084656084657,164.02116402116403 86.34920634920636,163.3862433862434 85.92592592592594,162.75132275132276 85.5026455026455,162.11640211640213 85.29100529100529,161.4814814814815 84.86772486772487,160.84656084656086 84.44444444444446,160.21164021164023 84.02116402116403,159.5767195767196 83.59788359788361,158.94179894179896 83.3862433862434,158.30687830687833 82.96296296296298,157.8835978835979 82.75132275132276,157.24867724867727 82.32804232804233,156.61375661375664 81.90476190476191,155.978835978836 81.48148148148148,155.34391534391534 81.05820105820106,154.7089947089947 80.63492063492065,154.2857142857143 80.21164021164022,153.65079365079367 79.7883597883598,153.01587301587304 79.36507936507937,152.5925925925926 78.94179894179895,151.95767195767198 78.51851851851852,151.53439153439155 78.0952380952381,150.8994708994709 77.67195767195767,150.47619047619048 77.24867724867725,150.05291005291005 76.82539682539684,149.62962962962965 76.4021164021164,148.99470899470901 75.97883597883599,148.57142857142858 75.55555555555556,148.14814814814815 75.13227513227514,147.72486772486775 74.49735449735451,147.30158730158732 74.07407407407408,146.8783068783069 73.43915343915344,146.45502645502646 72.80423280423281,146.24338624338625 72.16931216931218,145.82010582010582 71.53439153439155,145.60846560846562 70.8994708994709,145.39682539682542 70.26455026455027,145.39682539682542 69.62962962962963,145.39682539682542 68.994708994709,145.39682539682542 68.35978835978837,145.39682539682542 67.72486772486774,145.60846560846562 67.08994708994709,145.82010582010582 66.66666666666667,146.24338624338625 66.03174603174604,146.45502645502646 65.60846560846561,146.8783068783069 64.97354497354497,147.30158730158732 64.55026455026456,147.72486772486775 64.12698412698413,148.35978835978838 63.70370370370371,148.99470899470901 63.280423280423285,149.62962962962965 63.06878306878308,150.26455026455028 62.85714285714286,150.8994708994709 62.85714285714286,151.53439153439155 62.64550264550265,152.16931216931218 62.64550264550265,152.8042328042328 62.64550264550265,153.43915343915344 62.43386243386244,154.07407407407408 62.43386243386244,154.7089947089947 62.22222222222223,155.34391534391534 62.22222222222223,155.978835978836 62.22222222222223,156.61375661375664 62.22222222222223,157.24867724867727 62.01058201058201,157.8835978835979 62.01058201058201,158.51851851851853 61.798941798941804,159.15343915343917 61.58730158730159,159.7883597883598 61.58730158730159,160.42328042328043 61.37566137566138,161.05820105820106 61.16402116402117,161.6931216931217 60.952380952380956,162.32804232804233 60.74074074074075,162.96296296296296 60.31746031746032,163.59788359788362 59.8941798941799,164.23280423280426 59.470899470899475,164.65608465608466 59.04761904761905,165.0793650793651 58.62433862433863,165.50264550264552 57.989417989417994,165.92592592592595 57.35449735449736,166.13756613756615 56.71957671957672,166.34920634920636 56.08465608465609,166.56084656084658 55.449735449735456,166.7724867724868 54.81481481481482,166.984126984127 54.179894179894184,166.984126984127 53.54497354497355,166.984126984127 52.91005291005291,166.984126984127 52.27513227513228,166.984126984127 51.640211640211646,166.984126984127 51.00529100529101,166.984126984127 50.370370370370374,166.984126984127 49.73544973544974,166.7724867724868 49.1005291005291,166.7724867724868 48.46560846560847,166.56084656084658 47.830687830687836,166.56084656084658 47.195767195767196,166.34920634920636 46.560846560846564,166.13756613756615 45.92592592592593,166.13756613756615 45.29100529100529,165.92592592592595 44.65608465608466,165.92592592592595 44.021164021164026,165.50264550264552 43.386243386243386,165.2910052910053 42.75132275132275,165.0793650793651 42.11640211640212,164.8677248677249 41.48148148148149,164.65608465608466 40.84656084656085,164.44444444444446 40.211640211640216,164.02116402116403 39.57671957671958,163.59788359788362 38.94179894179894,163.3862433862434 38.30687830687831,162.96296296296296 37.67195767195768,162.53968253968256 37.03703703703704,162.11640211640213 36.402116402116405,161.6931216931217 35.97883597883598,161.2698412698413 35.34391534391535,160.84656084656086 34.920634920634924,160.42328042328043 34.4973544973545,160.0 33.86243386243387,159.5767195767196 33.43915343915344,159.15343915343917 33.01587301587302,158.73015873015873 32.592592592592595,158.0952380952381 31.95767195767196,157.67195767195767 31.53439153439154,157.03703703703704 31.111111111111114,156.4021164021164 30.68783068783069,155.76719576719577 30.264550264550266,155.13227513227514 30.052910052910054,154.4973544973545 29.629629629629633,153.86243386243387 29.41798941798942,153.22751322751324 29.20634920634921,152.5925925925926 28.994708994708997,151.95767195767198 28.783068783068785,151.32275132275134 28.571428571428573,150.6878306878307 28.571428571428573,150.05291005291005 28.35978835978836,149.41798941798942 28.35978835978836,148.78306878306879 28.35978835978836,148.14814814814815 28.35978835978836,147.51322751322752 28.571428571428573,146.8783068783069 28.783068783068785,146.24338624338625 28.994708994708997,145.60846560846562 29.20634920634921,144.973544973545 29.41798941798942,144.33862433862436 29.841269841269842,143.70370370370372 30.052910052910054,143.0687830687831 30.476190476190478,142.64550264550266 30.899470899470902,142.22222222222223 31.322751322751326,141.7989417989418 31.746031746031747,141.16402116402116 32.16931216931217,140.74074074074076 32.592592592592595,140.10582010582013 33.22751322751323,139.8941798941799 33.86243386243387,139.47089947089947 34.4973544973545,139.25925925925927 35.13227513227513,138.83597883597884 35.76719576719577,138.62433862433863 36.402116402116405,138.41269841269843 37.03703703703704,137.989417989418 37.67195767195768,137.7777777777778 38.30687830687831,137.7777777777778 38.94179894179894,137.56613756613757 39.57671957671958,137.14285714285717 40.211640211640216,136.93121693121694 40.63492063492064,136.5079365079365 41.26984126984127,136.0846560846561 41.6931216931217,135.66137566137567 42.32804232804233,135.23809523809524 42.75132275132275,134.81481481481484 43.17460317460318,134.3915343915344 43.5978835978836,133.75661375661377 44.021164021164026,133.12169312169314 44.232804232804234,132.4867724867725 44.44444444444445,131.85185185185185 44.65608465608466,131.21693121693121 44.867724867724874,130.58201058201058 44.867724867724874,129.94708994708995 44.867724867724874,129.31216931216932 44.65608465608466,128.67724867724868 44.65608465608466,128.04232804232805 44.232804232804234,127.40740740740742 44.021164021164026,126.77248677248679 43.5978835978836,126.13756613756615 43.386243386243386,125.5026455026455 42.96296296296297,124.86772486772487 42.539682539682545,124.44444444444446 42.11640211640212,123.80952380952382 41.6931216931217,123.3862433862434 41.26984126984127,122.96296296296298 40.84656084656085,122.32804232804234 40.423280423280424,121.90476190476191 40.0,121.26984126984128 39.57671957671958,120.84656084656086 39.15343915343916,120.21164021164022 38.730158730158735,119.7883597883598 38.30687830687831,119.15343915343917 37.883597883597886,118.73015873015873 37.46031746031746,118.0952380952381 37.03703703703704,117.67195767195768 36.613756613756614,117.03703703703705 36.19047619047619,116.4021164021164 35.76719576719577,115.97883597883599 35.34391534391535,115.55555555555557 34.920634920634924,114.92063492063492 34.4973544973545,114.49735449735451 34.28571428571429,113.86243386243387 33.86243386243387,113.43915343915344 33.43915343915344,113.01587301587303 33.01587301587302,112.3809523809524 32.592592592592595,111.74603174603176 32.16931216931217,111.32275132275133 31.746031746031747,110.89947089947091 31.322751322751326,110.26455026455027 30.899470899470902,109.84126984126985 30.476190476190478,109.20634920634922 29.841269841269842,108.78306878306879 29.41798941798942,108.35978835978837 28.994708994708997,107.72486772486774 28.571428571428573,107.0899470899471 28.14814814814815,106.45502645502647 27.724867724867728,105.82010582010582 27.301587301587304,105.3968253968254 26.87830687830688,104.76190476190477 26.455026455026456,104.12698412698414 26.031746031746035,103.70370370370371 25.60846560846561,103.06878306878308 25.185185185185187,102.43386243386244 24.761904761904763,102.01058201058201 24.338624338624342,101.5873015873016 23.915343915343918,100.95238095238096 23.492063492063494,100.31746031746033 23.06878306878307,99.8941798941799 22.645502645502646,99.25925925925927 22.222222222222225,98.83597883597885 21.7989417989418,98.2010582010582 21.375661375661377,97.56613756613757 20.952380952380953,97.14285714285715 20.529100529100532,96.50793650793652 20.105820105820108,95.87301587301587 19.682539682539684,95.44973544973546 19.25925925925926,94.81481481481482 18.83597883597884,94.39153439153439 18.412698412698415,93.75661375661376 17.98941798941799,93.12169312169313 17.566137566137566,92.69841269841271 17.142857142857146,92.06349206349208 16.71957671957672,91.42857142857143 16.296296296296298,91.00529100529101 15.873015873015873,90.37037037037038 15.449735449735451,89.73544973544975 15.026455026455027,89.1005291005291 14.603174603174605,88.67724867724868 14.17989417989418,88.04232804232805 13.756613756613758,87.61904761904762 13.333333333333334,86.98412698412699 12.910052910052912,86.34920634920636 12.486772486772487,85.71428571428572 12.063492063492065,85.29100529100529 11.640211640211641,84.65608465608466 11.216931216931219,84.02116402116403 10.793650793650794,83.59788359788361 10.370370370370372,82.96296296296298 9.947089947089948,82.32804232804233 9.523809523809524,81.90476190476191 9.100529100529101,81.26984126984128 8.677248677248677,80.84656084656085 8.253968253968255,80.21164021164022 7.830687830687832,79.57671957671958 7.407407407407408,78.94179894179895 6.984126984126985,78.51851851851852 6.560846560846561,77.88359788359789 6.137566137566138,77.24867724867725 5.714285714285714,76.61375661375662 5.291005291005291,76.19047619047619 4.867724867724868,75.76719576719577 4.444444444444445,75.34391534391536 4.021164021164021,74.70899470899471 3.597883597883598,74.28571428571429 2.9629629629629632,73.86243386243387 2.53968253968254,73.22751322751323 2.1164021164021167,72.80423280423281 -0.21164021164021166,70.05291005291006" style="fill:none; stroke:#3300bb; stroke-width:1.0"  /><circle cx="-0.21164021164021166" cy="70.05291005291006" r="2.0" style="fill:none; stroke:#000000aa; stroke-width:0.25" /><circle cx="108.14814814814815" cy="-0.21164021164021166" r="2.0" style="fill:none; stroke:#000000aa; stroke-width:0.25" /><circle cx="204.8677248677249" cy="121.26984126984128" r="2.0" style="fill:none; stroke:#000000aa; stroke-width:0.25" /><circle cx="97.35449735449737" cy="186.8783068783069" r="2.0" style="fill:none; stroke:#000000aa; stroke-width:0.25" /><circle cx="0.21164021164021166" cy="69.84126984126985" r="2.0" style="fill:none; stroke:#ff3366aa; stroke-width:0.25" /><circle cx="108.14814814814815" cy="0.21164021164021166" r="2.0" style="fill:none; stroke:#ff3366aa; stroke-width:0.25" /><circle cx="204.65608465608466" cy="121.26984126984128" r="2.0" style="fill:none; stroke:#ff3366aa; stroke-width:0.25" /><circle cx="97.56613756613757" cy="186.8783068783069" r="2.0" style="fill:none; stroke:#ff3366aa; stroke-width:0.25" /><polyline points="9.947089947089948,63.280423280423285 9.312169312169313,63.70370370370371 8.88888888888889,64.12698412698413 8.042328042328043,64.55026455026456 7.407407407407408,64.97354497354497 6.984126984126985,65.3968253968254 6.560846560846561,65.82010582010582 5.9259259259259265,66.03174603174604 5.502645502645503,66.45502645502646 4.867724867724868,66.66666666666667 4.2328042328042335,67.08994708994709 3.8095238095238098,67.51322751322752 3.174603174603175,67.72486772486774" style="fill:none; stroke:#001100; stroke-width:1.0" /><polyline points="7.407407407407408,78.94179894179895 6.984126984126985,78.51851851851852 6.560846560846561,77.88359788359789 6.137566137566138,77.24867724867725 5.714285714285714,76.61375661375662 5.291005291005291,76.19047619047619 4.867724867724868,75.76719576719577 4.444444444444445,75.34391534391536 4.021164021164021,74.70899470899471 3.597883597883598,74.28571428571429 2.9629629629629632,73.86243386243387 2.53968253968254,73.22751322751323 2.1164021164021167,72.80423280423281" style="fill:none; stroke:#000011; stroke-width:1.0" /><polyline points="113.43915343915344,10.370370370370372 113.01587301587303,9.735449735449736 112.80423280423281,9.100529100529101 112.5925925925926,8.465608465608467 112.16931216931218,7.830687830687832 111.95767195767196,7.195767195767196 111.53439153439155,6.560846560846561 111.32275132275133,5.9259259259259265 111.11111111111111,5.291005291005291 110.6878306878307,4.656084656084657 110.47619047619048,4.021164021164021 110.05291005291006,3.597883597883598 109.84126984126985,2.9629629629629632" style="fill:none; stroke:#001100; stroke-width:1.0" /><polyline points="98.62433862433863,6.34920634920635 99.25925925925927,5.9259259259259265 99.8941798941799,5.502645502645503 100.52910052910053,5.07936507936508 101.16402116402116,4.867724867724868 101.5873015873016,4.444444444444445 102.01058201058201,4.021164021164021 102.43386243386244,3.597883597883598 103.06878306878308,3.174603174603175 103.4920634920635,2.7513227513227516 104.12698412698414,2.53968253968254 104.76190476190477,2.1164021164021167 105.3968253968254,1.6931216931216932" style="fill:none; stroke:#000011; stroke-width:1.0" /><polyline points="195.34391534391537,128.25396825396825 195.76719576719577,127.83068783068784 196.4021164021164,127.40740740740742 197.03703703703704,126.98412698412699 197.46031746031747,126.56084656084657 198.0952380952381,126.34920634920636 198.51851851851853,125.92592592592594 199.15343915343917,125.5026455026455 199.5767195767196,125.07936507936509 200.21164021164023,124.65608465608466 200.84656084656086,124.23280423280424 201.2698412698413,123.80952380952382 201.90476190476193,123.3862433862434" style="fill:none; stroke:#001100; stroke-width:1.0" /><polyline points="196.1904761904762,113.22751322751324 196.61375661375664,113.65079365079366 197.03703703703704,114.07407407407408 197.46031746031747,114.49735449735451 198.0952380952381,114.92063492063492 198.51851851851853,115.34391534391536 198.94179894179896,115.76719576719577 199.36507936507937,116.1904761904762 200.00000000000003,116.61375661375662 200.42328042328043,117.03703703703705 200.84656084656086,117.46031746031747 201.2698412698413,117.88359788359789 201.6931216931217,118.30687830687832 202.11640211640213,118.73015873015873" style="fill:none; stroke:#000011; stroke-width:1.0" /><polyline points="92.69841269841271,176.0846560846561 92.91005291005291,176.71957671957674 93.12169312169313,177.35449735449737 93.54497354497356,177.989417989418 93.75661375661376,178.62433862433863 94.17989417989419,179.04761904761907 94.39153439153439,179.6825396825397 94.81481481481482,180.31746031746033 94.81481481481482,180.95238095238096 95.02645502645504,181.5873015873016 95.44973544973546,182.22222222222223 95.44973544973546,182.85714285714286 95.87301587301587,183.2804232804233 96.08465608465609,183.91534391534393" style="fill:none; stroke:#001100; stroke-width:1.0" /><polyline points="107.72486772486774,181.5873015873016 107.0899470899471,182.01058201058203 106.45502645502647,182.22222222222223 105.82010582010582,182.43386243386246 105.18518518518519,182.85714285714286 104.55026455026456,183.2804232804233 103.91534391534393,183.4920634920635 103.28042328042329,183.91534391534393 102.64550264550266,184.12698412698415 102.22222222222223,184.55026455026456 101.5873015873016,184.973544973545 100.95238095238096,185.1851851851852 100.31746031746033,185.39682539682542" style="fill:none; stroke:#000011; stroke-width:1.0" /><polyline points="3.174603174603175,67.72486772486774 -14.603174603174605,79.36507936507937" style="fill:none; stroke:#ffaa00; stroke-width:0.4" /><polyline points="2.1164021164021167,72.80423280423281 -11.640211640211641,56.71957671957672" style="fill:none; stroke:#aaff00; stroke-width:0.4" /><polyline points="109.84126984126985,2.9629629629629632 100.52910052910053,-16.084656084656086" style="fill:none; stroke:#ffaa00; stroke-width:0.4" /><polyline points="105.3968253968254,1.6931216931216932 122.75132275132276,-10.370370370370372" style="fill:none; stroke:#aaff00; stroke-width:0.4" /><polyline points="201.90476190476193,123.3862433862434 218.83597883597886,110.6878306878307" style="fill:none; stroke:#ffaa00; stroke-width:0.4" /><polyline points="202.11640211640213,118.73015873015873 217.56613756613757,133.12169312169314" style="fill:none; stroke:#aaff00; stroke-width:0.4" /><polyline points="96.08465608465609,183.91534391534393 104.55026455026456,203.3862433862434" style="fill:none; stroke:#ffaa00; stroke-width:0.4" /><polyline points="100.31746031746033,185.39682539682542 81.48148148148148,195.13227513227514" style="fill:none; stroke:#aaff00; stroke-width:0.4" /><circle cx="100.10582010582011" cy="92.4867724867725" r="1.0" style="fill:#444444; stroke-width:0" /><circle cx="86.13756613756614" cy="83.59788359788361" r="10.582010582010582" style="fill:#ff770022; stroke-width:0" /><circle cx="86.13756613756614" cy="83.59788359788361" r="1.0" style="fill:#ff7700; stroke-width:0" /></svg>