<?xml version="1.0" encoding="UTF-8" standalone="no"?><svg width="594.9206349206349" height="594.9206349206349" viewBox="-10 -10 218.30687830687833 218.30687830687833" xmlns="http://www.w3.org/2000/svg" xmlns:xlink="http://www.w3.org/1999/xlink"><polyline points="101.37566137566138,2.53968253968254 103.4920634920635,4.444444444444445 103.91534391534393,4.867724867724868 104.33862433862434,5.291005291005291 104.76190476190477,5.714285714285714 105.18518518518519,6.137566137566138 105.82010582010582,6.560846560846561 106.24338624338625,6.984126984126985 106.66666666666667,7.407407407407408 107.0899470899471,7.830687830687832 107.51322751322752,8.253968253968255 107.93650793650795,8.677248677248677 108.35978835978837,9.100529100529101 108.78306878306879,9.523809523809524 109.20634920634922,9.947089947089948 109.62962962962963,10.370370370370372 110.05291005291006,10.793650793650794 110.47619047619048,11.216931216931219 111.11111111111111,11.640211640211641 111.53439153439155,12.063492063492065 111.95767195767196,12.6984126984127 112.3809523809524,13.121693121693122 112.80423280423281,13.544973544973546 113.43915343915344,13.96825396825397 113.86243386243387,14.391534391534393 114.28571428571429,14.814814814814817 114.70899470899472,15.238095238095239 115.13227513227514,15.661375661375663 115.55555555555557,16.084656084656086 115.97883597883599,16.50793650793651 116.4021164021164,16.931216931216934 116.82539682539684,17.354497354497354 117.24867724867725,17.77777777777778 117.67195767195768,18.201058201058203 118.0952380952381,18.624338624338627 118.51851851851853,19.047619047619047 118.94179894179895,19.47089947089947 119.57671957671958,19.894179894179896 120.00000000000001,20.31746031746032 120.42328042328043,20.740740740740744 120.84656084656086,21.164021164021165 121.26984126984128,21.58730158730159 121.6931216931217,22.010582010582013 122.11640211640213,22.433862433862437 122.53968253968254,22.857142857142858 123.17460317460318,23.280423280423282 123.59788359788361,23.703703703703706 124.02116402116403,24.12698412698413 124.44444444444446,24.55026455026455 124.86772486772487,24.973544973544975 125.2910052910053,25.3968253968254 125.71428571428572,25.820105820105823 126.13756613756615,26.243386243386244 126.56084656084657,26.666666666666668 126.98412698412699,27.089947089947092 127.40740740740742,27.513227513227516 128.04232804232805,27.93650793650794 128.46560846560848,28.35978835978836 128.88888888888889,28.783068783068785 129.31216931216932,29.20634920634921 129.73544973544975,29.629629629629633 130.15873015873018,30.052910052910054 130.58201058201058,30.476190476190478 131.005291005291,30.899470899470902 131.42857142857144,31.322751322751326 131.85185185185185,31.95767195767196 132.27513227513228,32.38095238095239 132.6984126984127,32.804232804232804 133.12169312169314,33.22751322751323 133.54497354497354,33.65079365079365 133.96825396825398,34.074074074074076 134.3915343915344,34.4973544973545 134.81481481481484,34.920634920634924 135.23809523809524,35.34391534391535 135.66137566137567,35.76719576719577 136.0846560846561,36.19047619047619 136.71957671957674,36.613756613756614 137.35449735449737,37.03703703703704 137.989417989418,37.46031746031746 138.62433862433863,37.67195767195768 139.25925925925927,38.095238095238095 139.8941798941799,38.30687830687831 140.52910052910053,38.51851851851852 141.16402116402116,38.730158730158735 141.7989417989418,38.730158730158735 142.43386243386246,38.730158730158735 143.0687830687831,38.730158730158735 143.70370370370372,38.730158730158735 144.33862433862436,38.51851851851852 144.973544973545,38.30687830687831 145.60846560846562,38.095238095238095 146.24338624338625,37.67195767195768 146.66666666666669,37.248677248677254 147.30158730158732,36.82539682539683 147.72486772486775,36.402116402116405 148.14814814814815,35.97883597883598 148.57142857142858,35.34391534391535 148.78306878306879,34.70899470899471 149.20634920634922,34.074074074074076 149.41798941798942,33.43915343915344 149.62962962962965,32.804232804232804 149.84126984126985,32.16931216931217 149.84126984126985,31.53439153439154 150.05291005291005,30.899470899470902 150.05291005291005,30.264550264550266 150.05291005291005,29.629629629629633 150.05291005291005,28.994708994708997 149.84126984126985,28.35978835978836 149.84126984126985,27.724867724867728 149.41798941798942,27.301587301587304 149.20634920634922,26.666666666666668 148.99470899470901,26.031746031746035 148.78306878306879,25.3968253968254 148.57142857142858,24.761904761904763 148.35978835978838,24.12698412698413 148.14814814814815,23.492063492063494 147.93650793650795,22.857142857142858 147.51322751322752,22.222222222222225 147.30158730158732,21.58730158730159 147.0899470899471,20.952380952380953 146.8783068783069,20.31746031746032 146.8783068783069,19.682539682539684 146.66666666666669,19.047619047619047 146.66666666666669,18.412698412698415 146.45502645502646,17.77777777777778 146.45502645502646,17.142857142857146 146.24338624338625,16.50793650793651 146.24338624338625,15.873015873015873 146.24338624338625,15.238095238095239 146.24338624338625,14.603174603174605 146.24338624338625,13.96825396825397 146.45502645502646,13.333333333333334 146.45502645502646,12.6984126984127 146.45502645502646,12.063492063492065 146.66666666666669,11.428571428571429 146.8783068783069,10.793650793650794 147.0899470899471,10.15873015873016 147.51322751322752,9.523809523809524 147.72486772486775,8.88888888888889 148.14814814814815,8.465608465608467 148.57142857142858,7.830687830687832 148.99470899470901,7.407407407407408 149.41798941798942,6.984126984126985 149.84126984126985,6.560846560846561 150.47619047619048,6.137566137566138 150.8994708994709,5.714285714285714 151.53439153439155,5.291005291005291 152.16931216931218,4.867724867724868 152.8042328042328,4.444444444444445 153.22751322751324,4.021164021164021 153.86243386243387,3.597883597883598 154.4973544973545,3.174603174603175 155.13227513227514,2.9629629629629632 155.76719576719577,2.53968253968254 156.4021164021164,2.3280423280423284 157.03703703703704,2.1164021164021167 157.46031746031747,1.6931216931216932 158.0952380952381,1.4814814814814816 158.73015873015873,1.26984126984127 159.36507936507937,1.26984126984127 160.0,1.0582010582010584 160.63492063492066,1.0582010582010584 161.2698412698413,0.8465608465608466 161.90476190476193,0.634920634920635 162.53968253968256,0.634920634920635 163.1746031746032,0.4232804232804233 163.80952380952382,0.4232804232804233 164.44444444444446,0.4232804232804233 165.0793650793651,0.4232804232804233 165.71428571428572,0.4232804232804233 166.34920634920636,0.21164021164021166 166.984126984127,0.21164021164021166 167.61904761904762,0.4232804232804233 168.25396825396825,0.4232804232804233 168.8888888888889,0.4232804232804233 169.52380952380955,0.634920634920635 170.15873015873018,0.634920634920635 170.7936507936508,0.634920634920635 171.42857142857144,0.634920634920635 172.06349206349208,0.8465608465608466 172.6984126984127,0.8465608465608466 173.33333333333334,1.0582010582010584 173.96825396825398,1.0582010582010584 174.6031746031746,1.26984126984127 175.23809523809524,1.4814814814814816 175.87301587301587,1.6931216931216932 176.50793650793653,1.9047619047619049 177.14285714285717,2.1164021164021167 177.7777777777778,2.3280423280423284 178.41269841269843,2.53968253968254 179.04761904761907,2.9629629629629632 179.6825396825397,3.174603174603175 180.31746031746033,3.3862433862433865 180.95238095238096,3.8095238095238098 181.5873015873016,4.021164021164021 182.22222222222223,4.444444444444445 182.85714285714286,4.867724867724868 183.4920634920635,5.291005291005291 184.12698412698415,5.502645502645503 184.55026455026456,5.9259259259259265 185.1851851851852,6.137566137566138 185.60846560846562,6.560846560846561 186.24338624338625,6.984126984126985 186.66666666666669,7.407407407407408 187.30158730158732,7.830687830687832 187.93650793650795,8.253968253968255 188.35978835978838,8.677248677248677 188.78306878306879,9.100529100529101 189.41798941798945,9.523809523809524 189.84126984126985,9.947089947089948 190.26455026455028,10.370370370370372 190.6878306878307,11.005291005291006 191.11111111111111,11.428571428571429 191.53439153439155,12.063492063492065 191.95767195767198,12.486772486772487 192.3809523809524,12.910052910052912 192.8042328042328,13.544973544973546 193.22751322751324,14.17989417989418 193.65079365079367,14.814814814814817 193.86243386243387,15.449735449735451 194.2857142857143,15.873015873015873 194.4973544973545,16.50793650793651 194.70899470899474,17.142857142857146 195.13227513227514,17.77777777777778 195.34391534391537,18.412698412698415 195.55555555555557,19.047619047619047 195.76719576719577,19.682539682539684 195.978835978836,20.31746031746032 196.1904761904762,20.952380952380953 196.4021164021164,21.58730158730159 196.61375661375664,22.222222222222225 196.82539682539684,22.857142857142858 196.82539682539684,23.492063492063494 197.03703703703704,24.12698412698413 197.24867724867727,24.761904761904763 197.24867724867727,25.3968253968254 197.46031746031747,26.031746031746035 197.46031746031747,26.666666666666668 197.6719576719577,27.301587301587304 197.8835978835979,27.93650793650794 197.8835978835979,28.571428571428573 197.8835978835979,29.20634920634921 197.8835978835979,29.841269841269842 197.6719576719577,30.476190476190478 197.6719576719577,31.111111111111114 197.46031746031747,31.746031746031747 197.24867724867727,32.38095238095239 197.03703703703704,33.01587301587302 196.82539682539684,33.65079365079365 196.4021164021164,34.28571428571429 195.978835978836,34.70899470899471 195.55555555555557,35.34391534391535 195.13227513227514,35.76719576719577 194.70899470899474,36.19047619047619 194.2857142857143,36.613756613756614 193.86243386243387,37.03703703703704 193.22751322751324,37.46031746031746 192.5925925925926,37.883597883597886 192.16931216931218,38.30687830687831 191.53439153439155,38.51851851851852 190.8994708994709,38.730158730158735 190.26455026455028,38.94179894179894 189.62962962962965,39.36507936507937 188.99470899470901,39.57671957671958 188.35978835978838,39.78835978835979 187.72486772486775,39.78835978835979 187.08994708994712,40.211640211640216 186.45502645502646,40.211640211640216 185.82010582010582,40.423280423280424 185.1851851851852,40.63492063492064 184.55026455026456,40.84656084656085 183.91534391534393,41.058201058201064 183.2804232804233,41.26984126984127 182.64550264550266,41.48148148148149 182.01058201058203,41.6931216931217 181.3756613756614,41.6931216931217 180.74074074074076,41.904761904761905 180.10582010582013,42.11640211640212 179.4708994708995,42.32804232804233 178.83597883597884,42.539682539682545 178.2010582010582,42.75132275132275 177.56613756613757,42.96296296296297 176.93121693121694,43.386243386243386 176.2962962962963,43.5978835978836 175.66137566137567,44.021164021164026 175.23809523809524,44.44444444444445 174.6031746031746,44.867724867724874 174.1798941798942,45.29100529100529 173.75661375661377,45.714285714285715 173.33333333333334,46.13756613756614 172.9100529100529,46.560846560846564 172.6984126984127,47.195767195767196 172.27513227513228,47.830687830687836 172.06349206349208,48.46560846560847 171.64021164021165,49.1005291005291 171.64021164021165,49.73544973544974 171.64021164021165,50.370370370370374 171.64021164021165,51.00529100529101 171.64021164021165,51.640211640211646 171.85185185185188,52.27513227513228 172.06349206349208,52.91005291005291 172.27513227513228,53.54497354497355 172.4867724867725,54.179894179894184 172.6984126984127,54.81481481481482 172.9100529100529,55.449735449735456 173.33333333333334,56.08465608465609 173.54497354497354,56.71957671957672 173.96825396825398,57.35449735449736 174.1798941798942,57.989417989417994 174.3915343915344,58.62433862433863 174.81481481481484,59.25925925925927 175.23809523809524,59.8941798941799 175.44973544973547,60.52910052910053 175.87301587301587,60.952380952380956 176.0846560846561,61.58730158730159 176.50793650793653,62.01058201058201 176.93121693121694,62.43386243386244 177.35449735449737,63.06878306878308 177.7777777777778,63.492063492063494 178.2010582010582,64.12698412698413 178.62433862433863,64.76190476190477 179.04761904761907,65.3968253968254 179.4708994708995,66.03174603174604 179.8941798941799,66.45502645502646 180.31746031746033,67.08994708994709 180.74074074074076,67.72486772486774 181.16402116402116,68.35978835978837 181.5873015873016,68.994708994709 182.01058201058203,69.41798941798942 182.43386243386246,70.05291005291006 182.64550264550266,70.6878306878307 183.0687830687831,71.11111111111111 183.4920634920635,71.53439153439155 183.91534391534393,72.16931216931218 184.33862433862436,72.5925925925926 184.7619047619048,73.22751322751323 185.1851851851852,73.65079365079366 185.60846560846562,74.28571428571429 186.03174603174605,74.70899470899471 186.45502645502646,75.13227513227514 186.8783068783069,75.76719576719577 187.30158730158732,76.19047619047619 187.72486772486775,76.82539682539684 188.14814814814815,77.24867724867725 188.57142857142858,77.88359788359789 188.99470899470901,78.30687830687832 189.41798941798945,78.73015873015873 189.84126984126985,79.36507936507937 190.26455026455028,79.7883597883598 190.6878306878307,80.21164021164022 191.11111111111111,80.63492063492065 191.53439153439155,81.05820105820106 191.95767195767198,81.6931216931217 192.5925925925926,82.11640211640213 193.01587301587304,82.53968253968254 193.43915343915344,82.96296296296298 193.86243386243387,83.3862433862434 194.2857142857143,83.80952380952381 196.61375661375664,86.34920634920636" style="fill:none; stroke:#cc0000; stroke-width:1.0"  /><polyline points="196.61375661375664,86.34920634920636 194.2857142857143,88.67724867724868 193.86243386243387,89.1005291005291 193.43915343915344,89.52380952380953 193.01587301587304,89.94708994708995 192.5925925925926,90.37037037037038 192.16931216931218,90.7936507936508 191.74603174603175,91.21693121693123 191.32275132275134,91.64021164021165 190.8994708994709,92.06349206349208 190.47619047619048,92.4867724867725 190.05291005291008,92.91005291005291 189.62962962962965,93.33333333333334 189.20634920634922,93.75661375661376 188.78306878306879,94.17989417989419 188.14814814814815,94.60317460317461 187.72486772486775,95.02645502645504 187.30158730158732,95.44973544973546 186.8783068783069,95.87301587301587 186.45502645502646,96.2962962962963 186.03174603174605,96.71957671957672 185.60846560846562,97.14285714285715 185.1851851851852,97.77777777777779 184.7619047619048,98.2010582010582 184.33862433862436,98.62433862433863 183.91534391534393,99.04761904761905 183.4920634920635,99.47089947089948 183.0687830687831,99.8941798941799 182.64550264550266,100.31746031746033 182.22222222222223,100.74074074074075 181.79894179894183,101.16402116402116 181.3756613756614,101.5873015873016 180.95238095238096,102.01058201058201 180.52910052910053,102.43386243386244 180.10582010582013,102.85714285714286 179.6825396825397,103.28042328042329 179.25925925925927,103.70370370370371 178.83597883597884,104.12698412698414 178.41269841269843,104.55026455026456 177.989417989418,104.97354497354497 177.56613756613757,105.3968253968254 177.14285714285717,105.82010582010582 176.71957671957674,106.24338624338625 176.2962962962963,106.66666666666667 175.87301587301587,107.0899470899471 175.44973544973547,107.51322751322752 175.02645502645504,107.93650793650795 174.6031746031746,108.35978835978837 174.1798941798942,108.78306878306879 173.75661375661377,109.20634920634922 173.33333333333334,109.62962962962963 172.9100529100529,110.05291005291006 172.4867724867725,110.6878306878307 172.06349206349208,111.11111111111111 171.64021164021165,111.53439153439155 171.21693121693124,111.95767195767196 170.7936507936508,112.3809523809524 170.37037037037038,112.80423280423281 169.94708994708995,113.22751322751324 169.52380952380955,113.65079365079366 169.10052910052912,114.07407407407408 168.67724867724868,114.49735449735451 168.25396825396825,114.92063492063492 167.83068783068785,115.34391534391536 167.40740740740742,115.76719576719577 166.984126984127,116.1904761904762 166.56084656084658,116.61375661375662 166.13756613756615,117.03703703703705 165.71428571428572,117.46031746031747 165.2910052910053,117.88359788359789 164.8677248677249,118.30687830687832 164.44444444444446,118.73015873015873 164.02116402116403,119.15343915343917 163.59788359788362,119.57671957671958 163.1746031746032,120.00000000000001 162.75132275132276,120.42328042328043 162.32804232804233,120.84656084656086 161.90476190476193,121.26984126984128 161.4814814814815,121.6931216931217 161.05820105820106,122.32804232804234 160.63492063492066,122.75132275132276 160.21164021164023,123.17460317460318 159.7883597883598,123.59788359788361 159.36507936507937,124.02116402116403 158.94179894179896,124.65608465608466 158.51851851851853,125.2910052910053 158.0952380952381,125.92592592592594 157.8835978835979,126.56084656084657 157.67195767195767,127.1957671957672 157.46031746031747,127.83068783068784 157.24867724867727,128.46560846560848 157.24867724867727,129.10052910052912 157.24867724867727,129.73544973544975 157.46031746031747,130.37037037037038 157.46031746031747,131.005291005291 157.67195767195767,131.64021164021165 158.0952380952381,132.27513227513228 158.51851851851853,132.6984126984127 158.94179894179896,133.33333333333334 159.36507936507937,133.75661375661377 159.7883597883598,134.3915343915344 160.21164021164023,134.81481481481484 160.84656084656086,135.23809523809524 161.2698412698413,135.66137566137567 161.90476190476193,136.0846560846561 162.53968253968256,136.5079365079365 163.1746031746032,136.93121693121694 163.80952380952382,137.14285714285717 164.44444444444446,137.35449735449737 165.0793650793651,137.7777777777778 165.71428571428572,137.989417989418 166.34920634920636,138.2010582010582 166.984126984127,138.62433862433863 167.61904761904762,138.83597883597884 168.25396825396825,139.04761904761907 168.8888888888889,139.47089947089947 169.52380952380955,139.8941798941799 170.15873015873018,140.10582010582013 170.7936507936508,140.52910052910053 171.42857142857144,140.74074074074076 172.06349206349208,141.16402116402116 172.6984126984127,141.3756613756614 173.12169312169314,141.7989417989418 173.75661375661377,142.01058201058203 174.3915343915344,142.43386243386246 175.02645502645504,142.64550264550266 175.66137566137567,143.0687830687831 176.2962962962963,143.4920634920635 176.93121693121694,143.91534391534393 177.56613756613757,144.33862433862436 178.2010582010582,144.76190476190476 178.83597883597884,145.1851851851852 179.4708994708995,145.39682539682542 179.8941798941799,145.82010582010582 180.52910052910053,146.24338624338625 181.16402116402116,146.66666666666669 181.79894179894183,147.0899470899471 182.43386243386246,147.51322751322752 182.85714285714286,147.93650793650795 183.4920634920635,148.35978835978838 183.91534391534393,148.78306878306879 184.33862433862436,149.20634920634922 184.7619047619048,149.62962962962965 185.1851851851852,150.26455026455028 185.60846560846562,150.6878306878307 186.03174603174605,151.11111111111111 186.45502645502646,151.74603174603175 186.8783068783069,152.38095238095238 187.30158730158732,153.01587301587304 187.51322751322752,153.65079365079367 187.72486772486775,154.2857142857143 187.93650793650795,154.92063492063494 187.93650793650795,155.55555555555557 188.14814814814815,156.1904761904762 188.14814814814815,156.82539682539684 188.14814814814815,157.46031746031747 187.93650793650795,158.0952380952381 187.93650793650795,158.73015873015873 187.72486772486775,159.36507936507937 187.72486772486775,160.0 187.51322751322752,160.63492063492066 187.30158730158732,161.2698412698413 187.08994708994712,161.90476190476193 186.8783068783069,162.53968253968256 186.66666666666669,163.1746031746032 186.24338624338625,163.80952380952382 186.03174603174605,164.44444444444446 185.82010582010582,165.0793650793651 185.39682539682542,165.71428571428572 184.973544973545,166.34920634920636 184.55026455026456,166.984126984127 184.33862433862436,167.61904761904762 183.91534391534393,168.25396825396825 183.4920634920635,168.67724867724868 183.0687830687831,169.31216931216932 182.64550264550266,169.73544973544975 182.22222222222223,170.37037037037038 181.79894179894183,170.7936507936508 181.3756613756614,171.21693121693124 180.95238095238096,171.64021164021165 180.52910052910053,172.06349206349208 179.8941798941799,172.4867724867725 179.4708994708995,172.9100529100529 178.83597883597884,173.33333333333334 178.2010582010582,173.75661375661377 177.56613756613757,174.1798941798942 176.93121693121694,174.6031746031746 176.2962962962963,174.81481481481484 175.66137566137567,175.23809523809524 175.02645502645504,175.44973544973547 174.3915343915344,175.66137566137567 173.75661375661377,176.0846560846561 173.12169312169314,176.2962962962963 172.4867724867725,176.2962962962963 171.85185185185188,176.50793650793653 171.21693121693124,176.71957671957674 170.58201058201058,176.93121693121694 169.94708994708995,176.93121693121694 169.31216931216932,177.14285714285717 168.67724867724868,177.14285714285717 168.04232804232805,177.14285714285717 167.40740740740742,176.93121693121694 166.7724867724868,176.93121693121694 166.13756613756615,176.71957671957674 165.50264550264552,176.50793650793653 164.8677248677249,176.2962962962963 164.23280423280426,175.87301587301587 163.59788359788362,175.44973544973547 162.96296296296296,175.02645502645504 162.32804232804233,174.6031746031746 161.90476190476193,174.1798941798942 161.2698412698413,173.75661375661377 160.84656084656086,173.33333333333334 160.42328042328043,172.9100529100529 160.0,172.4867724867725 159.5767195767196,171.85185185185188 159.15343915343917,171.42857142857144 158.94179894179896,170.7936507936508 158.51851851851853,170.37037037037038 158.0952380952381,169.73544973544975 157.67195767195767,169.10052910052912 157.24867724867727,168.46560846560848 156.82539682539684,167.83068783068785 156.4021164021164,167.19576719576722 155.978835978836,166.7724867724868 155.76719576719577,166.13756613756615 155.34391534391534,165.71428571428572 155.13227513227514,165.0793650793651 154.92063492063494,164.44444444444446 154.7089947089947,163.80952380952382 154.2857142857143,163.1746031746032 153.86243386243387,162.53968253968256 153.65079365079367,161.90476190476193 153.22751322751324,161.2698412698413 153.01587301587304,160.63492063492066 152.5925925925926,160.21164021164023 152.38095238095238,159.5767195767196 151.95767195767198,158.94179894179896 151.74603174603175,158.30687830687833 151.32275132275134,157.67195767195767 151.11111111111111,157.03703703703704 150.6878306878307,156.4021164021164 150.26455026455028,155.76719576719577 150.05291005291005,155.13227513227514 149.62962962962965,154.7089947089947 149.20634920634922,154.07407407407408 148.78306878306879,153.43915343915344 148.35978835978838,153.01587301587304 147.93650793650795,152.38095238095238 147.51322751322752,151.95767195767198 147.0899470899471,151.53439153439155 146.45502645502646,151.11111111111111 145.82010582010582,150.8994708994709 145.1851851851852,150.6878306878307 144.55026455026456,150.47619047619048 143.91534391534393,150.26455026455028 143.2804232804233,150.26455026455028 142.64550264550266,150.26455026455028 142.01058201058203,150.47619047619048 141.3756613756614,150.6878306878307 140.74074074074076,150.8994708994709 140.10582010582013,151.32275132275134 139.47089947089947,151.74603174603175 138.83597883597884,152.16931216931218 138.2010582010582,152.5925925925926 137.7777777777778,153.01587301587304 137.35449735449737,153.43915343915344 136.71957671957674,153.86243386243387 136.2962962962963,154.2857142857143 135.87301587301587,154.7089947089947 135.44973544973547,155.13227513227514 135.02645502645504,155.55555555555557 134.6031746031746,156.1904761904762 134.17989417989418,156.61375661375664 133.75661375661377,157.03703703703704 133.33333333333334,157.46031746031747 132.9100529100529,157.8835978835979 132.4867724867725,158.30687830687833 132.06349206349208,158.73015873015873 131.64021164021165,159.36507936507937 131.21693121693121,159.7883597883598 130.7936507936508,160.21164021164023 130.37037037037038,160.63492063492066 129.94708994708995,161.05820105820106 129.52380952380955,161.4814814814815 129.10052910052912,162.11640211640213 128.67724867724868,162.53968253968256 128.25396825396825,162.96296296296296 127.83068783068784,163.59788359788362 127.40740740740742,164.02116402116403 126.98412698412699,164.44444444444446 126.56084656084657,165.0793650793651 126.13756613756615,165.50264550264552 125.71428571428572,165.92592592592595 125.2910052910053,166.34920634920636 124.86772486772487,166.984126984127 124.44444444444446,167.40740740740742 124.23280423280424,168.04232804232805 123.80952380952382,168.46560846560848 123.3862433862434,168.8888888888889 122.96296296296298,169.31216931216932 122.53968253968254,169.94708994708995 122.11640211640213,170.58201058201058 121.6931216931217,171.21693121693124 121.26984126984128,171.64021164021165 120.84656084656086,172.06349206349208 120.42328042328043,172.6984126984127 120.00000000000001,173.12169312169314 119.57671957671958,173.75661375661377 119.15343915343917,174.1798941798942 118.73015873015873,174.6031746031746 118.30687830687832,175.23809523809524 117.88359788359789,175.66137566137567 117.46031746031747,176.0846560846561 117.03703703703705,176.71957671957674 116.61375661375662,177.14285714285717 116.1904761904762,177.7777777777778 115.76719576719577,178.2010582010582 115.34391534391536,178.62433862433863 114.92063492063492,179.25925925925927 114.49735449735451,179.8941798941799 114.07407407407408,180.31746031746033 113.65079365079366,180.95238095238096 113.22751322751324,181.5873015873016 112.80423280423281,182.22222222222223 112.3809523809524,182.85714285714286 111.95767195767196,183.4920634920635 111.53439153439155,184.12698412698415 111.11111111111111,184.7619047619048 110.6878306878307,185.39682539682542 110.26455026455027,185.82010582010582 110.05291005291006,186.45502645502646 109.62962962962963,186.8783068783069 109.20634920634922,187.51322751322752 108.78306878306879,188.14814814814815 108.35978835978837,188.57142857142858 108.14814814814815,189.20634920634922 107.72486772486774,189.62962962962965 107.51322751322752,190.26455026455028 107.0899470899471,190.6878306878307 106.87830687830689,191.32275132275134 106.45502645502647,191.95767195767198 106.24338624338625,192.5925925925926 105.82010582010582,193.01587301587304 105.60846560846562,193.65079365079367 105.18518518518519,194.2857142857143 104.76190476190477,194.70899470899474 104.55026455026456,195.34391534391537 102.64550264550266,198.51851851851853" style="fill:none; stroke:#999900; stroke-width:1.0"  /><polyline points="102.64550264550266,198.51851851851853 99.8941798941799,195.55555555555557 99.47089947089948,195.13227513227514 99.04761904761905,194.70899470899474 98.62433862433863,194.2857142857143 98.2010582010582,193.65079365079367 97.77777777777779,193.22751322751324 97.35449735449737,192.8042328042328 96.93121693121694,192.3809523809524 96.50793650793652,191.74603174603175 96.08465608465609,191.32275132275134 95.66137566137567,190.8994708994709 95.23809523809524,190.26455026455028 94.81481481481482,189.84126984126985 94.39153439153439,189.41798941798945 93.96825396825398,188.78306878306879 93.54497354497356,188.35978835978838 93.12169312169313,187.72486772486775 92.69841269841271,187.30158730158732 92.27513227513228,186.66666666666669 91.85185185185186,186.03174603174605 91.42857142857143,185.39682539682542 91.00529100529101,184.973544973545 90.58201058201058,184.33862433862436 90.15873015873017,183.91534391534393 89.73544973544975,183.2804232804233 89.31216931216932,182.64550264550266 88.8888888888889,182.01058201058203 88.46560846560847,181.3756613756614 88.04232804232805,180.74074074074076 87.61904761904762,180.31746031746033 87.1957671957672,179.6825396825397 86.98412698412699,179.04761904761907 86.56084656084657,178.62433862433863 86.13756613756614,177.989417989418 85.71428571428572,177.35449735449737 85.5026455026455,176.71957671957674 85.07936507936509,176.2962962962963 84.65608465608466,175.66137566137567 84.23280423280424,175.02645502645504 83.80952380952381,174.6031746031746 83.3862433862434,173.96825396825398 82.96296296296298,173.54497354497354 82.53968253968254,173.12169312169314 82.11640211640213,172.4867724867725 81.6931216931217,172.06349206349208 81.26984126984128,171.64021164021165 80.84656084656085,171.21693121693124 80.42328042328043,170.7936507936508 80.0,170.37037037037038 79.36507936507937,169.94708994708995 78.94179894179895,169.52380952380955 78.51851851851852,169.10052910052912 78.0952380952381,168.67724867724868 77.67195767195767,168.25396825396825 77.24867724867725,167.83068783068785 76.61375661375662,167.61904761904762 76.19047619047619,167.19576719576722 75.76719576719577,166.7724867724868 75.13227513227514,166.34920634920636 74.49735449735451,165.92592592592595 73.86243386243387,165.50264550264552 73.22751322751323,165.0793650793651 72.5925925925926,164.8677248677249 72.16931216931218,164.44444444444446 71.53439153439155,164.23280423280426 70.8994708994709,164.02116402116403 70.26455026455027,163.80952380952382 69.62962962962963,163.59788359788362 68.994708994709,163.3862433862434 68.35978835978837,163.3862433862434 67.72486772486774,163.3862433862434 67.08994708994709,163.3862433862434 66.45502645502646,163.3862433862434 65.82010582010582,163.3862433862434 65.18518518518519,163.3862433862434 64.55026455026456,163.59788359788362 63.91534391534392,163.59788359788362 63.280423280423285,163.59788359788362 62.64550264550265,163.80952380952382 62.01058201058201,164.02116402116403 61.37566137566138,164.23280423280426 60.74074074074075,164.44444444444446 60.10582010582011,164.65608465608466 59.470899470899475,165.0793650793651 58.83597883597884,165.2910052910053 58.2010582010582,165.71428571428572 57.56613756613757,166.13756613756615 56.93121693121694,166.56084656084658 56.50793650793651,166.984126984127 55.87301587301588,167.40740740740742 55.449735449735456,168.04232804232805 55.02645502645503,168.46560846560848 54.60317460317461,169.10052910052912 54.179894179894184,169.52380952380955 53.75661375661376,169.94708994708995 53.333333333333336,170.58201058201058 52.91005291005291,171.21693121693124 52.6984126984127,171.85185185185188 52.48677248677249,172.4867724867725 52.27513227513228,173.12169312169314 51.851851851851855,173.75661375661377 51.851851851851855,174.3915343915344 51.42857142857143,175.02645502645504 51.21693121693122,175.66137566137567 51.00529100529101,176.2962962962963 50.7936507936508,176.93121693121694 50.58201058201058,177.56613756613757 50.370370370370374,178.2010582010582 50.158730158730165,178.83597883597884 49.94708994708995,179.4708994708995 49.73544973544974,180.10582010582013 49.73544973544974,180.74074074074076 49.523809523809526,181.3756613756614 49.1005291005291,182.01058201058203 49.1005291005291,182.64550264550266 48.88888888888889,183.2804232804233 48.677248677248684,183.91534391534393 48.46560846560847,184.55026455026456 48.25396825396826,185.1851851851852 47.830687830687836,185.82010582010582 47.61904761904762,186.45502645502646 47.195767195767196,186.8783068783069 46.77248677248678,187.51322751322752 46.349206349206355,187.93650793650795 45.92592592592593,188.35978835978838 45.50264550264551,188.78306878306879 44.867724867724874,189.20634920634922 44.232804232804234,189.62962962962965 43.80952380952381,190.05291005291008 43.17460317460318,190.26455026455028 42.539682539682545,190.47619047619048 41.904761904761905,190.8994708994709 41.26984126984127,191.11111111111111 40.63492063492064,191.32275132275134 40.0,191.32275132275134 39.36507936507937,191.53439153439155 38.730158730158735,191.53439153439155 38.095238095238095,191.53439153439155 37.46031746031746,191.74603174603175 36.82539682539683,191.74603174603175 36.19047619047619,191.74603174603175 35.55555555555556,191.74603174603175 34.920634920634924,191.95767195767198 34.28571428571429,191.74603174603175 33.65079365079365,191.74603174603175 33.01587301587302,191.74603174603175 32.38095238095239,191.53439153439155 31.746031746031747,191.32275132275134 31.111111111111114,191.32275132275134 30.476190476190478,191.11111111111111 29.841269841269842,190.6878306878307 29.20634920634921,190.47619047619048 28.571428571428573,190.26455026455028 27.93650793650794,189.84126984126985 27.301587301587304,189.62962962962965 26.87830687830688,189.20634920634922 26.243386243386244,188.78306878306879 25.60846560846561,188.35978835978838 24.973544973544975,187.93650793650795 24.55026455026455,187.51322751322752 23.915343915343918,187.08994708994712 23.280423280423282,186.66666666666669 22.857142857142858,186.24338624338625 22.433862433862437,185.82010582010582 22.010582010582013,185.39682539682542 21.58730158730159,184.973544973545 21.164021164021165,184.55026455026456 20.740740740740744,183.91534391534393 20.31746031746032,183.4920634920635 19.894179894179896,182.85714285714286 19.47089947089947,182.43386243386246 19.25925925925926,181.79894179894183 18.83597883597884,181.3756613756614 18.412698412698415,180.74074074074076 17.98941798941799,180.10582010582013 17.566137566137566,179.6825396825397 17.142857142857146,179.04761904761907 16.71957671957672,178.41269841269843 16.50793650793651,177.7777777777778 16.084656084656086,177.14285714285717 15.873015873015873,176.50793650793653 15.661375661375663,175.87301587301587 15.449735449735451,175.23809523809524 15.238095238095239,174.6031746031746 15.026455026455027,173.96825396825398 14.814814814814817,173.33333333333334 14.603174603174605,172.6984126984127 14.391534391534393,172.06349206349208 14.17989417989418,171.42857142857144 14.17989417989418,170.7936507936508 13.96825396825397,170.15873015873018 13.756613756613758,169.52380952380955 13.756613756613758,168.8888888888889 13.544973544973546,168.25396825396825 13.333333333333334,167.61904761904762 13.333333333333334,166.984126984127 13.121693121693122,166.34920634920636 13.121693121693122,165.71428571428572 13.121693121693122,165.0793650793651 13.333333333333334,164.44444444444446 13.333333333333334,163.80952380952382 13.333333333333334,163.1746031746032 13.544973544973546,162.53968253968256 13.756613756613758,161.90476190476193 14.17989417989418,161.2698412698413 14.603174603174605,160.84656084656086 15.026455026455027,160.21164021164023 15.449735449735451,159.7883597883598 16.084656084656086,159.36507936507937 16.71957671957672,158.94179894179896 17.354497354497354,158.73015873015873 17.77777777777778,158.30687830687833 18.412698412698415,157.8835978835979 19.047619047619047,157.8835978835979 19.682539682539684,157.46031746031747 20.31746031746032,157.24867724867727 20.952380952380953,157.24867724867727 21.58730158730159,157.03703703703704 22.222222222222225,157.03703703703704 22.857142857142858,156.82539682539684 23.492063492063494,156.61375661375664 24.12698412698413,156.61375661375664 24.761904761904763,156.61375661375664 25.3968253968254,156.82539682539684 26.031746031746035,156.61375661375664 26.666666666666668,156.61375661375664 27.301587301587304,156.61375661375664 27.93650793650794,156.61375661375664 28.571428571428573,156.61375661375664 29.20634920634921,156.82539682539684 29.841269841269842,156.82539682539684 30.476190476190478,156.82539682539684 31.111111111111114,156.82539682539684 31.746031746031747,156.82539682539684 32.38095238095239,156.82539682539684 33.01587301587302,156.61375661375664 33.65079365079365,156.61375661375664 34.28571428571429,156.82539682539684 34.920634920634924,156.82539682539684 35.55555555555556,156.61375661375664 36.19047619047619,156.4021164021164 36.82539682539683,156.1904761904762 37.46031746031746,156.1904761904762 38.095238095238095,155.978835978836 38.730158730158735,155.76719576719577 39.36507936507937,155.55555555555557 40.0,155.13227513227514 40.63492063492064,154.92063492063494 41.058201058201064,154.4973544973545 41.6931216931217,154.07407407407408 42.11640211640212,153.65079365079367 42.539682539682545,153.22751322751324 43.17460317460318,152.8042328042328 43.5978835978836,152.16931216931218 44.021164021164026,151.74603174603175 44.44444444444445,151.32275132275134 44.867724867724874,150.6878306878307 45.07936507936508,150.05291005291005 45.50264550264551,149.62962962962965 45.714285714285715,148.99470899470901 45.92592592592593,148.35978835978838 46.13756613756614,147.72486772486775 46.349206349206355,147.0899470899471 46.560846560846564,146.45502645502646 46.560846560846564,145.82010582010582 46.560846560846564,145.1851851851852 46.560846560846564,144.55026455026456 46.349206349206355,143.91534391534393 46.13756613756614,143.2804232804233 46.13756613756614,142.64550264550266 45.714285714285715,142.01058201058203 45.50264550264551,141.3756613756614 45.07936507936508,140.74074074074076 44.65608465608466,140.10582010582013 44.232804232804234,139.47089947089947 43.80952380952381,138.83597883597884 43.386243386243386,138.41269841269843 42.96296296296297,137.989417989418 42.539682539682545,137.56613756613757 42.11640211640212,136.93121693121694 41.6931216931217,136.5079365079365 41.26984126984127,136.0846560846561 40.84656084656085,135.66137566137567 40.423280423280424,135.02645502645504 40.0,134.6031746031746 39.57671957671958,134.17989417989418 39.15343915343916,133.75661375661377 38.51851851851852,133.33333333333334 37.883597883597886,132.9100529100529 37.248677248677254,132.4867724867725 36.613756613756614,132.06349206349208 35.97883597883598,131.64021164021165 35.34391534391535,131.21693121693121 34.70899470899471,131.005291005291 34.074074074074076,130.58201058201058 33.43915343915344,130.37037037037038 32.804232804232804,129.94708994708995 32.16931216931217,129.73544973544975 31.53439153439154,129.52380952380955 30.899470899470902,129.10052910052912 30.264550264550266,128.88888888888889 29.629629629629633,128.46560846560848 28.994708994708997,128.25396825396825 28.35978835978836,128.04232804232805 27.724867724867728,127.61904761904763 27.089947089947092,127.40740740740742 26.455026455026456,127.1957671957672 25.820105820105823,126.77248677248679 25.185185185185187,126.56084656084657 24.55026455026455,126.34920634920636 23.915343915343918,125.92592592592594 23.280423280423282,125.71428571428572 22.645502645502646,125.2910052910053 22.010582010582013,125.07936507936509 21.375661375661377,124.86772486772487 20.740740740740744,124.44444444444446 20.105820105820108,124.23280423280424 19.47089947089947,124.02116402116403 18.83597883597884,123.59788359788361 18.201058201058203,123.3862433862434 17.566137566137566,123.17460317460318 16.931216931216934,122.96296296296298 16.296296296296298,122.75132275132276 15.661375661375663,122.53968253968254 15.026455026455027,122.11640211640213 14.391534391534393,121.90476190476191 13.756613756613758,121.6931216931217 13.121693121693122,121.26984126984128 12.486772486772487,121.05820105820106 11.851851851851853,120.84656084656086 11.216931216931219,120.42328042328043 10.582010582010582,120.21164021164022 9.947089947089948,119.7883597883598 9.312169312169313,119.36507936507937 8.677248677248677,118.94179894179895 8.042328042328043,118.73015873015873 7.6190476190476195,118.30687830687832 6.984126984126985,118.0952380952381 6.560846560846561,117.67195767195768 5.9259259259259265,117.24867724867725 5.291005291005291,117.03703703703705 4.867724867724868,116.61375661375662 4.2328042328042335,116.1904761904762 3.597883597883598,115.76719576719577 2.9629629629629632,115.55555555555557 -0.4232804232804233,113.65079365079366" style="fill:none; stroke:#00aa99; stroke-width:1.0"  /><polyline points="-0.4232804232804233,113.65079365079366 2.1164021164021167,111.32275132275133 2.53968253968254,110.89947089947091 2.9629629629629632,110.47619047619048 3.3862433862433865,110.05291005291006 4.021164021164021,109.62962962962963 4.444444444444445,109.20634920634922 4.867724867724868,108.78306878306879 5.291005291005291,108.35978835978837 5.9259259259259265,107.93650793650795 6.34920634920635,107.51322751322752 6.772486772486773,107.0899470899471 7.407407407407408,106.66666666666667 7.830687830687832,106.24338624338625 8.253968253968255,105.82010582010582 8.677248677248677,105.3968253968254 9.312169312169313,104.97354497354497 9.735449735449736,104.55026455026456 10.370370370370372,104.12698412698414 10.793650793650794,103.70370370370371 11.428571428571429,103.28042328042329 12.063492063492065,102.85714285714286 12.486772486772487,102.43386243386244 13.121693121693122,102.01058201058201 13.544973544973546,101.5873015873016 14.17989417989418,101.16402116402116 14.814814814814817,100.74074074074075 15.449735449735451,100.31746031746033 16.084656084656086,99.8941798941799 16.71957671957672,99.47089947089948 17.142857142857146,99.04761904761905 17.566137566137566,98.62433862433863 18.201058201058203,98.2010582010582 18.624338624338627,97.77777777777779 19.25925925925926,97.35449735449737 19.894179894179896,96.93121693121694 20.529100529100532,96.50793650793652 21.164021164021165,96.08465608465609 21.7989417989418,95.87301587301587 22.222222222222225,95.44973544973546 22.857142857142858,95.02645502645504 23.492063492063494,94.81481481481482 24.12698412698413,94.39153439153439 24.761904761904763,94.17989417989419 25.185185185185187,93.75661375661376 25.820105820105823,93.33333333333334 26.455026455026456,93.12169312169313 27.089947089947092,92.91005291005291 27.724867724867728,92.69841269841271 28.35978835978836,92.69841269841271 28.994708994708997,92.4867724867725 29.629629629629633,92.4867724867725 30.264550264550266,92.4867724867725 30.899470899470902,92.4867724867725 31.53439153439154,92.4867724867725 32.16931216931217,92.91005291005291 32.804232804232804,93.12169312169313 33.22751322751323,93.54497354497356 33.86243386243387,93.96825396825398 34.28571428571429,94.60317460317461 34.70899470899471,95.02645502645504 35.13227513227513,95.66137566137567 35.34391534391535,96.2962962962963 35.76719576719577,96.93121693121694 35.97883597883598,97.56613756613757 36.402116402116405,97.989417989418 36.82539682539683,98.62433862433863 37.03703703703704,99.25925925925927 37.248677248677254,99.8941798941799 37.67195767195768,100.52910052910053 37.883597883597886,101.16402116402116 38.095238095238095,101.79894179894181 38.30687830687831,102.43386243386244 38.730158730158735,103.06878306878308 38.94179894179894,103.70370370370371 39.36507936507937,104.33862433862434 39.57671957671958,104.97354497354497 40.0,105.60846560846562 40.211640211640216,106.24338624338625 40.63492063492064,106.87830687830689 40.84656084656085,107.51322751322752 41.26984126984127,108.14814814814815 41.6931216931217,108.78306878306879 42.11640211640212,109.41798941798943 42.539682539682545,110.05291005291006 42.96296296296297,110.6878306878307 43.386243386243386,111.11111111111111 43.80952380952381,111.74603174603176 44.232804232804234,112.16931216931218 44.65608465608466,112.5925925925926 45.07936507936508,113.01587301587303 45.50264550264551,113.43915343915344 46.13756613756614,113.86243386243387 46.560846560846564,114.28571428571429 47.195767195767196,114.70899470899472 47.830687830687836,114.92063492063492 48.25396825396826,115.34391534391536 48.88888888888889,115.55555555555557 49.523809523809526,115.76719576719577 50.158730158730165,115.97883597883599 50.7936507936508,116.1904761904762 51.42857142857143,115.97883597883599 52.06349206349207,115.97883597883599 52.6984126984127,115.76719576719577 53.333333333333336,115.55555555555557 53.968253968253975,115.34391534391536 54.60317460317461,115.13227513227514 55.23809523809524,115.13227513227514 55.87301587301588,114.70899470899472 56.50793650793651,114.49735449735451 56.93121693121694,114.07407407407408 57.56613756613757,113.65079365079366 58.2010582010582,113.43915343915344 58.62433862433863,113.01587301587303 59.04761904761905,112.5925925925926 59.682539682539684,112.16931216931218 60.10582010582011,111.74603174603176 60.52910052910053,111.32275132275133 61.16402116402117,110.89947089947091 61.58730158730159,110.26455026455027 62.01058201058201,109.84126984126985 62.43386243386244,109.41798941798943 62.85714285714286,108.994708994709 63.280423280423285,108.35978835978837 63.70370370370371,107.72486772486774 64.12698412698413,107.3015873015873 64.55026455026456,106.66666666666667 64.97354497354497,106.03174603174604 65.3968253968254,105.3968253968254 65.82010582010582,104.76190476190477 66.24338624338625,104.12698412698414 66.45502645502646,103.4920634920635 66.87830687830689,103.06878306878308 67.08994708994709,102.43386243386244 67.51322751322752,101.79894179894181 67.93650793650794,101.16402116402116 68.14814814814815,100.52910052910053 68.35978835978837,99.8941798941799 68.78306878306879,99.47089947089948 68.994708994709,98.83597883597885 69.20634920634922,98.2010582010582 69.41798941798942,97.56613756613757 69.62962962962963,96.93121693121694 69.84126984126985,96.2962962962963 70.26455026455027,95.66137566137567 70.47619047619048,95.02645502645504 70.6878306878307,94.39153439153439 70.8994708994709,93.75661375661376 71.11111111111111,93.12169312169313 71.32275132275133,92.4867724867725 71.32275132275133,91.85185185185186 71.53439153439155,91.21693121693123 71.74603174603175,90.58201058201058 71.74603174603175,89.94708994708995 71.74603174603175,89.31216931216932 71.74603174603175,88.67724867724868 71.95767195767196,88.04232804232805 71.95767195767196,87.40740740740742 71.95767195767196,86.77248677248677 71.95767195767196,86.13756613756614 71.95767195767196,85.5026455026455 71.95767195767196,84.86772486772487 71.74603174603175,84.23280423280424 71.74603174603175,83.59788359788361 71.74603174603175,82.96296296296298 71.74603174603175,82.32804232804233 71.74603174603175,81.6931216931217 71.53439153439155,81.05820105820106 71.53439153439155,80.42328042328043 71.53439153439155,79.7883597883598 71.32275132275133,79.15343915343917 71.32275132275133,78.51851851851852 71.11111111111111,77.88359788359789 70.8994708994709,77.24867724867725 70.47619047619048,76.82539682539684 70.26455026455027,76.19047619047619 69.84126984126985,75.76719576719577 69.41798941798942,75.13227513227514 68.994708994709,74.70899470899471 68.57142857142858,74.28571428571429 67.93650793650794,73.86243386243387 67.51322751322752,73.43915343915344 66.87830687830689,73.22751322751323 66.45502645502646,72.80423280423281 65.82010582010582,72.5925925925926 65.18518518518519,72.38095238095238 64.55026455026456,72.16931216931218 63.91534391534392,71.95767195767196 63.280423280423285,71.74603174603175 62.64550264550265,71.74603174603175 62.01058201058201,71.53439153439155 61.37566137566138,71.53439153439155 60.74074074074075,71.32275132275133 60.10582010582011,71.32275132275133 59.470899470899475,71.32275132275133 58.83597883597884,71.11111111111111 58.2010582010582,71.11111111111111 57.56613756613757,71.11111111111111 56.93121693121694,71.11111111111111 56.2962962962963,71.11111111111111 55.661375661375665,71.11111111111111 55.02645502645503,71.32275132275133 54.39153439153439,71.32275132275133 53.75661375661376,71.32275132275133 53.12169312169313,71.32275132275133 52.48677248677249,71.32275132275133 52.06349206349207,71.74603174603175 51.42857142857143,71.74603174603175 50.7936507936508,71.74603174603175 50.158730158730165,71.95767195767196 49.523809523809526,71.95767195767196 48.88888888888889,71.74603174603175 48.25396825396826,71.74603174603175 47.61904761904762,71.74603174603175 46.98412698412699,71.74603174603175 46.349206349206355,71.74603174603175 45.714285714285715,71.53439153439155 45.07936507936508,71.53439153439155 44.44444444444445,71.32275132275133 43.80952380952381,71.32275132275133 43.17460317460318,71.11111111111111 42.539682539682545,70.8994708994709 41.904761904761905,70.8994708994709 41.26984126984127,70.6878306878307 40.63492063492064,70.26455026455027 40.0,70.05291005291006 39.57671957671958,69.62962962962963 38.94179894179894,69.20634920634922 38.51851851851852,68.78306878306879 38.095238095238095,68.14814814814815 37.883597883597886,67.51322751322752 37.67195767195768,66.87830687830689 37.46031746031746,66.24338624338625 37.46031746031746,65.60846560846561 37.67195767195768,64.97354497354497 37.67195767195768,64.33862433862434 37.883597883597886,63.70370370370371 37.883597883597886,63.06878306878308 37.883597883597886,62.43386243386244 38.095238095238095,61.798941798941804 38.095238095238095,61.16402116402117 38.51851851851852,60.52910052910053 38.730158730158735,59.8941798941799 38.94179894179894,59.25925925925927 39.15343915343916,58.62433862433863 39.57671957671958,57.989417989417994 39.78835978835979,57.35449735449736 40.211640211640216,56.93121693121694 40.63492063492064,56.2962962962963 40.84656084656085,55.661375661375665 41.26984126984127,55.02645502645503 41.6931216931217,54.39153439153439 42.11640211640212,53.75661375661376 42.32804232804233,53.12169312169313 42.75132275132275,52.48677248677249 43.17460317460318,51.851851851851855 43.5978835978836,51.21693121693122 44.021164021164026,50.58201058201058 44.44444444444445,49.94708994708995 44.867724867724874,49.31216931216932 45.29100529100529,48.677248677248684 45.714285714285715,48.042328042328045 46.13756613756614,47.61904761904762 46.560846560846564,46.98412698412699 46.98412698412699,46.560846560846564 47.40740740740741,45.92592592592593 47.830687830687836,45.29100529100529 48.25396825396826,44.867724867724874 48.677248677248684,44.232804232804234 49.1005291005291,43.80952380952381 49.523809523809526,43.17460317460318 49.94708994708995,42.75132275132275 50.370370370370374,42.32804232804233 50.7936507936508,41.6931216931217 51.21693121693122,41.26984126984127 51.640211640211646,40.84656084656085 52.06349206349207,40.423280423280424 52.27513227513228,39.78835978835979 52.6984126984127,39.36507936507937 53.12169312169313,38.94179894179894 53.54497354497355,38.51851851851852 53.968253968253975,38.095238095238095 54.39153439153439,37.67195767195768 54.81481481481482,37.248677248677254 55.23809523809524,36.613756613756614 55.661375661375665,36.19047619047619 56.08465608465609,35.76719576719577 56.50793650793651,35.34391534391535 56.93121693121694,34.920634920634924 57.35449735449736,34.4973544973545 57.777777777777786,34.074074074074076 58.2010582010582,33.65079365079365 58.62433862433863,33.22751322751323 59.04761904761905,32.804232804232804 59.470899470899475,32.38095238095239 59.8941798941799,31.95767195767196 60.31746031746032,31.53439153439154 60.74074074074075,31.111111111111114 61.37566137566138,30.68783068783069 61.798941798941804,30.264550264550266 62.22222222222223,29.841269841269842 62.64550264550265,29.41798941798942 63.280423280423285,28.994708994708997 63.70370370370371,28.571428571428573 64.12698412698413,28.14814814814815 64.55026455026456,27.513227513227516 65.18518518518519,27.089947089947092 65.60846560846561,26.666666666666668 66.03174603174604,26.243386243386244 66.45502645502646,25.820105820105823 67.08994708994709,25.3968253968254 67.72486772486774,24.973544973544975 68.14814814814815,24.55026455026455 68.57142857142858,24.12698412698413 69.20634920634922,23.703703703703706 69.62962962962963,23.280423280423282 70.26455026455027,22.857142857142858 70.6878306878307,22.433862433862437 71.11111111111111,22.010582010582013 71.74603174603175,21.58730158730159 72.38095238095238,21.164021164021165 72.80423280423281,20.740740740740744 73.43915343915344,20.31746031746032 74.07407407407408,19.894179894179896 74.49735449735451,19.47089947089947 75.13227513227514,19.047619047619047 75.76719576719577,18.624338624338627 76.4021164021164,18.201058201058203 76.82539682539684,17.77777777777778 77.46031746031747,17.566137566137566 77.88359788359789,17.142857142857146 78.51851851851852,16.71957671957672 78.94179894179895,16.296296296296298 79.57671957671958,15.873015873015873 80.21164021164022,15.449735449735451 80.84656084656085,15.026455026455027 81.48148148148148,14.603174603174605 82.11640211640213,14.17989417989418 82.75132275132276,13.756613756613758 83.3862433862434,13.544973544973546 83.80952380952381,13.121693121693122 84.44444444444446,12.910052910052912 84.86772486772487,12.486772486772487 85.5026455026455,12.063492063492065 86.13756613756614,11.851851851851853 86.56084656084657,11.428571428571429 87.1957671957672,11.005291005291006 87.61904761904762,10.582010582010582 88.25396825396827,10.15873015873016 88.8888888888889,9.735449735449736 89.52380952380953,9.523809523809524 89.94708994708995,9.100529100529101 90.58201058201058,8.88888888888889 91.21693121693123,8.465608465608467 91.85185185185186,8.042328042328043 92.4867724867725,7.6190476190476195 93.12169312169313,7.195767195767196 93.75661375661376,6.984126984126985 94.39153439153439,6.560846560846561 95.02645502645504,6.137566137566138 95.66137566137567,5.9259259259259265 96.08465608465609,5.502645502645503 96.71957671957672,5.291005291005291 97.14285714285715,4.867724867724868 97.77777777777779,4.656084656084657 98.41269841269842,4.2328042328042335 101.37566137566138,2.53968253968254" style="fill:none; stroke:#3300bb; stroke-width:1.0"  /><circle cx="101.37566137566138" cy="2.53968253968254" r="2.0" style="fill:none; stroke:#000000aa; stroke-width:0.25" /><circle cx="196.61375661375664" cy="86.34920634920636" r="2.0" style="fill:none; stroke:#000000aa; stroke-width:0.25" /><circle cx="102.64550264550266" cy="198.51851851851853" r="2.0" style="fill:none; stroke:#000000aa; stroke-width:0.25" /><circle cx="-0.4232804232804233" cy="113.65079365079366" r="2.0" style="fill:none; stroke:#000000aa; stroke-width:0.25" /><circle cx="101.16402116402116" cy="2.53968253968254" r="2.0" style="fill:none; stroke:#ff3366aa; stroke-width:0.25" /><circle cx="196.4021164021164" cy="86.34920634920636" r="2.0" style="fill:none; stroke:#ff3366aa; stroke-width:0.25" /><circle cx="102.22222222222223" cy="197.8835978835979" r="2.0" style="fill:none; stroke:#ff3366aa; stroke-width:0.25" /><circle cx="0.21164021164021166" cy="113.86243386243387" r="2.0" style="fill:none; stroke:#ff3366aa; stroke-width:0.25" /><polyline points="109.62962962962963,10.370370370370372 109.20634920634922,9.947089947089948 108.78306878306879,9.523809523809524 108.35978835978837,9.100529100529101 107.93650793650795,8.677248677248677 107.51322751322752,8.253968253968255 107.0899470899471,7.830687830687832 106.66666666666667,7.407407407407408 106.24338624338625,6.984126984126985 105.82010582010582,6.560846560846561 105.18518518518519,6.137566137566138 104.76190476190477,5.714285714285714 104.33862433862434,5.291005291005291 103.91534391534393,4.867724867724868 103.4920634920635,4.444444444444445" style="fill:none; stroke:#001100; stroke-width:1.0" /><polyline points="91.21693121693123,8.465608465608467 91.85185185185186,8.042328042328043 92.4867724867725,7.6190476190476195 93.12169312169313,7.195767195767196 93.75661375661376,6.984126984126985 94.39153439153439,6.560846560846561 95.02645502645504,6.137566137566138 95.66137566137567,5.9259259259259265 96.08465608465609,5.502645502645503 96.71957671957672,5.291005291005291 97.14285714285715,4.867724867724868 97.77777777777779,4.656084656084657 98.41269841269842,4.2328042328042335" style="fill:none; stroke:#000011; stroke-width:1.0" /><polyline points="188.14814814814815,94.60317460317461 188.78306878306879,94.17989417989419 189.20634920634922,93.75661375661376 189.62962962962965,93.33333333333334 190.05291005291008,92.91005291005291 190.47619047619048,92.4867724867725 190.8994708994709,92.06349206349208 191.32275132275134,91.64021164021165 191.74603174603175,91.21693121693123 192.16931216931218,90.7936507936508 192.5925925925926,90.37037037037038 193.01587301587304,89.94708994708995 193.43915343915344,89.52380952380953 193.86243386243387,89.1005291005291 194.2857142857143,88.67724867724868" style="fill:none; stroke:#001100; stroke-width:1.0" /><polyline points="188.57142857142858,77.88359788359789 188.99470899470901,78.30687830687832 189.41798941798945,78.73015873015873 189.84126984126985,79.36507936507937 190.26455026455028,79.7883597883598 190.6878306878307,80.21164021164022 191.11111111111111,80.63492063492065 191.53439153439155,81.05820105820106 191.95767195767198,81.6931216931217 192.5925925925926,82.11640211640213 193.01587301587304,82.53968253968254 193.43915343915344,82.96296296296298 193.86243386243387,83.3862433862434 194.2857142857143,83.80952380952381" style="fill:none; stroke:#000011; stroke-width:1.0" /><polyline points="94.39153439153439,189.41798941798945 94.81481481481482,189.84126984126985 95.23809523809524,190.26455026455028 95.66137566137567,190.8994708994709 96.08465608465609,191.32275132275134 96.50793650793652,191.74603174603175 96.93121693121694,192.3809523809524 97.35449735449737,192.8042328042328 97.77777777777779,193.22751322751324 98.2010582010582,193.65079365079367 98.62433862433863,194.2857142857143 99.04761904761905,194.70899470899474 99.47089947089948,195.13227513227514 99.8941798941799,195.55555555555557" style="fill:none; stroke:#001100; stroke-width:1.0" /><polyline points="108.78306878306879,188.14814814814815 108.35978835978837,188.57142857142858 108.14814814814815,189.20634920634922 107.72486772486774,189.62962962962965 107.51322751322752,190.26455026455028 107.0899470899471,190.6878306878307 106.87830687830689,191.32275132275134 106.45502645502647,191.95767195767198 106.24338624338625,192.5925925925926 105.82010582010582,193.01587301587304 105.60846560846562,193.65079365079367 105.18518518518519,194.2857142857143 104.76190476190477,194.70899470899474 104.55026455026456,195.34391534391537" style="fill:none; stroke:#000011; stroke-width:1.0" /><polyline points="8.677248677248677,105.3968253968254 8.253968253968255,105.82010582010582 7.830687830687832,106.24338624338625 7.407407407407408,106.66666666666667 6.772486772486773,107.0899470899471 6.34920634920635,107.51322751322752 5.9259259259259265,107.93650793650795 5.291005291005291,108.35978835978837 4.867724867724868,108.78306878306879 4.444444444444445,109.20634920634922 4.021164021164021,109.62962962962963 3.3862433862433865,110.05291005291006 2.9629629629629632,110.47619047619048 2.53968253968254,110.89947089947091 2.1164021164021167,111.32275132275133" style="fill:none; stroke:#001100; stroke-width:1.0" /><polyline points="9.947089947089948,119.7883597883598 9.312169312169313,119.36507936507937 8.677248677248677,118.94179894179895 8.042328042328043,118.73015873015873 7.6190476190476195,118.30687830687832 6.984126984126985,118.0952380952381 6.560846560846561,117.67195767195768 5.9259259259259265,117.24867724867725 5.291005291005291,117.03703703703705 4.867724867724868,116.61375661375662 4.2328042328042335,116.1904761904762 3.597883597883598,115.76719576719577 2.9629629629629632,115.55555555555557" style="fill:none; stroke:#000011; stroke-width:1.0" /><polyline points="103.4920634920635,4.444444444444445 88.25396825396827,-10.15873015873016" style="fill:none; stroke:#ffaa00; stroke-width:0.4" /><polyline points="98.41269841269842,4.2328042328042335 116.61375661375662,-6.560846560846561" style="fill:none; stroke:#aaff00; stroke-width:0.4" /><polyline points="194.2857142857143,88.67724867724868 209.52380952380955,74.07407407407408" style="fill:none; stroke:#ffaa00; stroke-width:0.4" /><polyline points="194.2857142857143,83.80952380952381 208.8888888888889,99.04761904761905" style="fill:none; stroke:#aaff00; stroke-width:0.4" /><polyline points="99.8941798941799,195.55555555555557 114.07407407407408,211.21693121693124" style="fill:none; stroke:#ffaa00; stroke-width:0.4" /><polyline points="104.55026455026456,195.34391534391537 93.75661375661376,213.54497354497357" style="fill:none; stroke:#aaff00; stroke-width:0.4" /><polyline points="2.1164021164021167,111.32275132275133 -13.544973544973546,125.5026455026455" style="fill:none; stroke:#ffaa00; stroke-width:0.4" /><polyline points="2.9629629629629632,115.55555555555557 -15.238095238095239,104.55026455026456" style="fill:none; stroke:#aaff00; stroke-width:0.4" /><circle cx="109.20634920634922" cy="97.35449735449737" r="1.0" style="fill:#444444; stroke-width:0" /><circle cx="124.02116402116403" cy="86.77248677248677" r="10.582010582010582" style="fill:#ff770022; stroke-width:0" /><circle cx="124.02116402116403" cy="86.77248677248677" r="1.0" style="fill:#ff7700; stroke-width:0" /></svg>