<?xml version="1.0" encoding="UTF-8" standalone="no"?><svg width="428.5714285714286" height="568.8888888888889" viewBox="-10 -10 162.85714285714286 209.62962962962965" xmlns="http://www.w3.org/2000/svg" xmlns:xlink="http://www.w3.org/1999/xlink"><polyline points="15.238095238095239,21.375661375661377 18.624338624338627,20.740740740740744 19.25925925925926,20.529100529100532 19.894179894179896,20.31746031746032 20.529100529100532,20.31746031746032 21.164021164021165,20.105820105820108 21.7989417989418,20.105820105820108 22.433862433862437,20.105820105820108 23.06878306878307,19.894179894179896 23.703703703703706,19.682539682539684 24.338624338624342,19.682539682539684 24.973544973544975,19.47089947089947 25.60846560846561,19.25925925925926 26.243386243386244,19.25925925925926 26.87830687830688,19.047619047619047 27.513227513227516,18.83597883597884 28.14814814814815,18.83597883597884 28.783068783068785,18.624338624338627 29.41798941798942,18.412698412698415 30.052910052910054,18.201058201058203 30.68783068783069,18.201058201058203 31.322751322751326,17.98941798941799 31.95767195767196,17.98941798941799 32.592592592592595,17.566137566137566 33.22751322751323,17.566137566137566 33.86243386243387,17.354497354497354 34.4973544973545,17.142857142857146 35.13227513227513,16.931216931216934 35.76719576719577,16.71957671957672 36.402116402116405,16.50793650793651 37.03703703703704,16.296296296296298 37.67195767195768,16.084656084656086 38.30687830687831,15.873015873015873 38.94179894179894,15.661375661375663 39.57671957671958,15.661375661375663 40.211640211640216,15.449735449735451 40.84656084656085,15.238095238095239 41.48148148148149,15.238095238095239 42.11640211640212,15.238095238095239 42.75132275132275,15.449735449735451 43.386243386243386,15.661375661375663 44.021164021164026,15.873015873015873 44.65608465608466,16.084656084656086 45.29100529100529,16.296296296296298 45.714285714285715,16.71957671957672 46.349206349206355,17.142857142857146 46.98412698412699,17.566137566137566 47.40740740740741,18.201058201058203 47.830687830687836,18.624338624338627 48.042328042328045,19.25925925925926 48.25396825396826,19.894179894179896 48.46560846560847,20.529100529100532 48.677248677248684,21.164021164021165 48.677248677248684,21.7989417989418 48.677248677248684,22.433862433862437 48.677248677248684,23.06878306878307 48.677248677248684,23.703703703703706 48.46560846560847,24.338624338624342 48.25396825396826,24.973544973544975 48.042328042328045,25.60846560846561 47.830687830687836,26.243386243386244 47.61904761904762,26.87830687830688 47.40740740740741,27.513227513227516 46.98412698412699,28.14814814814815 46.77248677248678,28.783068783068785 46.560846560846564,29.41798941798942 46.13756613756614,30.052910052910054 45.714285714285715,30.68783068783069 45.50264550264551,31.322751322751326 45.07936507936508,31.95767195767196 44.65608465608466,32.592592592592595 44.44444444444445,33.22751322751323 44.021164021164026,33.86243386243387 43.80952380952381,34.4973544973545 43.5978835978836,35.13227513227513 43.386243386243386,35.76719576719577 43.17460317460318,36.402116402116405 42.96296296296297,37.03703703703704 42.75132275132275,37.67195767195768 42.75132275132275,38.30687830687831 42.539682539682545,38.94179894179894 42.539682539682545,39.57671957671958 42.539682539682545,40.211640211640216 42.539682539682545,40.84656084656085 42.75132275132275,41.48148148148149 42.75132275132275,42.11640211640212 42.75132275132275,42.75132275132275 42.96296296296297,43.386243386243386 43.17460317460318,44.021164021164026 43.17460317460318,44.65608465608466 43.386243386243386,45.29100529100529 43.386243386243386,45.92592592592593 43.80952380952381,46.560846560846564 43.80952380952381,47.195767195767196 44.232804232804234,47.830687830687836 44.44444444444445,48.46560846560847 44.65608465608466,49.1005291005291 45.07936507936508,49.523809523809526 45.50264550264551,50.158730158730165 45.92592592592593,50.7936507936508 46.349206349206355,51.21693121693122 46.77248677248678,51.640211640211646 47.195767195767196,52.27513227513228 47.61904761904762,52.6984126984127 48.042328042328045,53.12169312169313 48.46560846560847,53.54497354497355 48.88888888888889,53.968253968253975 49.31216931216932,54.39153439153439 49.94708994708995,54.81481481481482 50.370370370370374,55.23809523809524 51.00529100529101,55.661375661375665 51.640211640211646,56.08465608465609 52.27513227513228,56.2962962962963 52.91005291005291,56.71957671957672 53.54497354497355,56.93121693121694 54.179894179894184,57.142857142857146 54.81481481481482,57.35449735449736 55.449735449735456,57.56613756613757 56.08465608465609,57.56613756613757 56.71957671957672,57.777777777777786 57.35449735449736,57.777777777777786 57.989417989417994,57.989417989417994 58.62433862433863,57.989417989417994 59.25925925925927,57.989417989417994 59.8941798941799,58.2010582010582 60.52910052910053,58.41269841269842 61.16402116402117,58.2010582010582 61.798941798941804,58.41269841269842 62.43386243386244,58.41269841269842 63.06878306878308,58.2010582010582 63.70370370370371,58.2010582010582 64.33862433862434,58.2010582010582 64.97354497354497,57.989417989417994 65.60846560846561,57.989417989417994 66.24338624338625,57.777777777777786 66.87830687830689,57.56613756613757 67.51322751322752,57.56613756613757 68.14814814814815,57.56613756613757 68.78306878306879,57.35449735449736 69.41798941798942,57.142857142857146 70.05291005291006,57.142857142857146 70.6878306878307,56.93121693121694 71.11111111111111,56.50793650793651 71.74603174603175,56.50793650793651 72.38095238095238,56.2962962962963 73.01587301587303,56.08465608465609 73.65079365079366,55.87301587301588 74.28571428571429,55.661375661375665 74.92063492063492,55.449735449735456 75.55555555555556,55.23809523809524 76.19047619047619,55.02645502645503 76.82539682539684,54.60317460317461 77.46031746031747,54.39153439153439 78.0952380952381,54.179894179894184 78.51851851851852,53.75661375661376 78.94179894179895,53.333333333333336 79.57671957671958,52.91005291005291 80.0,52.48677248677249 80.42328042328043,52.06349206349207 80.84656084656085,51.640211640211646 81.26984126984128,51.21693121693122 81.48148148148148,50.58201058201058 81.90476190476191,50.158730158730165 82.11640211640213,49.523809523809526 82.53968253968254,48.88888888888889 82.75132275132276,48.25396825396826 82.96296296296298,47.61904761904762 83.17460317460318,46.98412698412699 83.3862433862434,46.349206349206355 83.59788359788361,45.714285714285715 83.59788359788361,45.07936507936508 83.80952380952381,44.44444444444445 83.80952380952381,43.80952380952381 84.02116402116403,43.17460317460318 84.02116402116403,42.539682539682545 84.02116402116403,41.904761904761905 84.02116402116403,41.26984126984127 84.02116402116403,40.63492063492064 84.02116402116403,40.0 84.02116402116403,39.36507936507937 84.02116402116403,38.730158730158735 84.02116402116403,38.095238095238095 83.80952380952381,37.46031746031746 83.80952380952381,36.82539682539683 83.59788359788361,36.19047619047619 83.59788359788361,35.55555555555556 83.17460317460318,34.920634920634924 83.17460317460318,34.28571428571429 82.96296296296298,33.65079365079365 82.53968253968254,33.01587301587302 82.32804232804233,32.38095238095239 82.11640211640213,31.746031746031747 81.6931216931217,31.322751322751326 81.48148148148148,30.68783068783069 81.05820105820106,30.052910052910054 80.63492063492065,29.41798941798942 80.42328042328043,28.783068783068785 80.21164021164022,28.14814814814815 80.0,27.513227513227516 80.0,26.87830687830688 80.0,26.243386243386244 80.0,25.60846560846561 80.0,24.973544973544975 80.0,24.338624338624342 80.0,23.703703703703706 80.21164021164022,23.06878306878307 80.21164021164022,22.433862433862437 80.21164021164022,21.7989417989418 80.42328042328043,21.164021164021165 80.63492063492065,20.529100529100532 80.84656084656085,19.894179894179896 81.05820105820106,19.25925925925926 81.26984126984128,18.624338624338627 81.48148148148148,17.98941798941799 81.6931216931217,17.354497354497354 82.11640211640213,16.71957671957672 82.53968253968254,16.084656084656086 82.75132275132276,15.449735449735451 83.17460317460318,14.814814814814817 83.59788359788361,14.391534391534393 84.02116402116403,13.756613756613758 84.44444444444446,13.333333333333334 84.86772486772487,12.910052910052912 85.5026455026455,12.486772486772487 85.92592592592594,12.063492063492065 86.34920634920636,11.640211640211641 86.77248677248677,11.216931216931219 87.40740740740742,11.005291005291006 88.04232804232805,10.582010582010582 88.67724867724868,10.370370370370372 89.31216931216932,10.15873015873016 89.94708994708995,9.735449735449736 90.58201058201058,9.735449735449736 91.21693121693123,9.312169312169313 91.85185185185186,9.100529100529101 92.4867724867725,8.88888888888889 93.12169312169313,8.677248677248677 93.75661375661376,8.465608465608467 94.39153439153439,8.253968253968255 95.02645502645504,8.042328042328043 95.66137566137567,7.6190476190476195 96.2962962962963,7.407407407407408 96.93121693121694,7.195767195767196 97.56613756613757,6.984126984126985 98.2010582010582,6.772486772486773 98.83597883597885,6.560846560846561 99.47089947089948,6.137566137566138 100.10582010582011,6.137566137566138 100.74074074074075,5.9259259259259265 101.37566137566138,5.714285714285714 102.01058201058201,5.502645502645503 102.64550264550266,5.291005291005291 103.28042328042329,5.07936507936508 103.91534391534393,4.867724867724868 104.55026455026456,4.656084656084657 105.18518518518519,4.444444444444445 105.82010582010582,4.2328042328042335 106.45502645502647,4.021164021164021 107.0899470899471,3.8095238095238098 107.72486772486774,3.597883597883598 108.35978835978837,3.597883597883598 108.994708994709,3.3862433862433865 109.62962962962963,3.174603174603175 110.26455026455027,2.9629629629629632 110.89947089947091,2.9629629629629632 111.53439153439155,2.7513227513227516 112.16931216931218,2.7513227513227516 112.80423280423281,2.53968253968254 113.43915343915344,2.3280423280423284 114.07407407407408,2.1164021164021167 114.70899470899472,2.1164021164021167 115.34391534391536,1.9047619047619049 115.97883597883599,1.9047619047619049 116.61375661375662,1.6931216931216932 117.24867724867725,1.6931216931216932 117.88359788359789,1.4814814814814816 118.51851851851853,1.4814814814814816 119.15343915343917,1.4814814814814816 119.7883597883598,1.26984126984127 120.42328042328043,1.0582010582010584 121.05820105820106,1.0582010582010584 121.6931216931217,1.0582010582010584 122.32804232804234,1.0582010582010584 122.96296296296298,0.8465608465608466 123.59788359788361,0.8465608465608466 124.23280423280424,0.634920634920635 124.86772486772487,0.634920634920635 125.5026455026455,0.634920634920635 126.13756613756615,0.634920634920635 126.77248677248679,0.634920634920635 127.40740740740742,0.4232804232804233 128.04232804232805,0.4232804232804233 128.67724867724868,0.4232804232804233 129.31216931216932,0.4232804232804233 129.94708994708995,0.21164021164021166 130.58201058201058,0.21164021164021166 131.21693121693121,0.21164021164021166 131.85185185185185,0.21164021164021166 132.4867724867725,0.21164021164021166 133.12169312169314,0.21164021164021166 133.75661375661377,0.21164021164021166 134.3915343915344,0.21164021164021166 135.02645502645504,0.21164021164021166 135.66137566137567,0.21164021164021166 136.2962962962963,0.21164021164021166 136.93121693121694,0.21164021164021166 137.56613756613757,0.21164021164021166 138.2010582010582,0.21164021164021166 138.83597883597884,0.21164021164021166 139.47089947089947,0.21164021164021166 142.64550264550266,0.21164021164021166" style="fill:none; stroke:#cc0000; stroke-width:1.0"  /><polyline points="142.64550264550266,0.21164021164021166 142.22222222222223,4.021164021164021 142.22222222222223,4.656084656084657 142.01058201058203,5.291005291005291 142.01058201058203,5.9259259259259265 142.01058201058203,6.560846560846561 141.7989417989418,7.195767195767196 141.7989417989418,7.830687830687832 141.7989417989418,8.465608465608467 141.5873015873016,9.100529100529101 141.5873015873016,9.735449735449736 141.5873015873016,10.370370370370372 141.5873015873016,11.005291005291006 141.5873015873016,11.640211640211641 141.3756613756614,12.275132275132275 141.3756613756614,12.910052910052912 141.3756613756614,13.544973544973546 141.3756613756614,14.17989417989418 141.3756613756614,14.814814814814817 141.3756613756614,15.449735449735451 141.3756613756614,16.084656084656086 141.3756613756614,16.71957671957672 141.3756613756614,17.354497354497354 141.3756613756614,17.98941798941799 141.3756613756614,18.624338624338627 141.3756613756614,19.25925925925926 141.3756613756614,19.894179894179896 141.3756613756614,20.529100529100532 141.3756613756614,21.164021164021165 141.3756613756614,21.7989417989418 141.3756613756614,22.433862433862437 141.3756613756614,23.06878306878307 141.3756613756614,23.703703703703706 141.3756613756614,24.338624338624342 141.16402116402116,24.973544973544975 141.16402116402116,25.60846560846561 141.3756613756614,26.243386243386244 141.3756613756614,26.87830687830688 141.3756613756614,27.513227513227516 141.3756613756614,28.14814814814815 141.3756613756614,28.783068783068785 141.3756613756614,29.41798941798942 141.3756613756614,30.052910052910054 141.3756613756614,30.68783068783069 141.16402116402116,31.322751322751326 141.16402116402116,31.95767195767196 141.16402116402116,32.592592592592595 141.16402116402116,33.22751322751323 141.16402116402116,33.86243386243387 141.16402116402116,34.4973544973545 141.16402116402116,35.13227513227513 141.16402116402116,35.76719576719577 141.16402116402116,36.402116402116405 141.3756613756614,37.03703703703704 141.3756613756614,37.67195767195768 141.3756613756614,38.30687830687831 141.3756613756614,38.94179894179894 141.3756613756614,39.57671957671958 141.3756613756614,40.211640211640216 141.3756613756614,40.84656084656085 141.3756613756614,41.48148148148149 141.5873015873016,42.11640211640212 141.5873015873016,42.75132275132275 141.5873015873016,43.386243386243386 141.5873015873016,44.021164021164026 141.5873015873016,44.65608465608466 141.5873015873016,45.29100529100529 141.5873015873016,45.92592592592593 141.5873015873016,46.560846560846564 141.5873015873016,47.195767195767196 141.7989417989418,47.830687830687836 141.7989417989418,48.46560846560847 141.7989417989418,49.1005291005291 141.7989417989418,49.73544973544974 141.7989417989418,50.370370370370374 142.01058201058203,51.00529100529101 142.01058201058203,51.640211640211646 142.01058201058203,52.27513227513228 142.01058201058203,52.91005291005291 142.01058201058203,53.54497354497355 142.01058201058203,54.179894179894184 142.01058201058203,54.81481481481482 142.01058201058203,55.449735449735456 142.01058201058203,56.08465608465609 142.01058201058203,56.71957671957672 142.01058201058203,57.35449735449736 141.7989417989418,57.989417989417994 141.7989417989418,58.62433862433863 141.5873015873016,59.25925925925927 141.5873015873016,59.8941798941799 141.3756613756614,60.52910052910053 141.16402116402116,61.16402116402117 140.95238095238096,61.798941798941804 140.74074074074076,62.43386243386244 140.31746031746033,62.85714285714286 139.8941798941799,63.280423280423285 139.47089947089947,63.70370370370371 138.83597883597884,64.12698412698413 138.2010582010582,64.33862433862434 137.56613756613757,64.55026455026456 136.93121693121694,64.55026455026456 136.2962962962963,64.76190476190477 135.66137566137567,64.76190476190477 135.02645502645504,64.76190476190477 134.3915343915344,64.55026455026456 133.75661375661377,64.33862433862434 133.12169312169314,64.33862433862434 132.4867724867725,64.12698412698413 131.85185185185185,63.91534391534392 131.21693121693121,63.492063492063494 130.58201058201058,63.280423280423285 129.94708994708995,63.06878306878308 129.31216931216932,62.64550264550265 128.67724867724868,62.43386243386244 128.04232804232805,62.01058201058201 127.40740740740742,61.798941798941804 126.98412698412699,61.37566137566138 126.34920634920636,61.16402116402117 125.71428571428572,60.952380952380956 125.07936507936509,60.52910052910053 124.44444444444446,60.31746031746032 123.80952380952382,59.8941798941799 123.17460317460318,59.682539682539684 122.53968253968254,59.470899470899475 122.11640211640213,59.04761904761905 121.4814814814815,58.83597883597884 120.84656084656086,58.62433862433863 120.21164021164022,58.2010582010582 119.57671957671958,57.989417989417994 118.94179894179895,57.777777777777786 118.30687830687832,57.56613756613757 117.67195767195768,57.142857142857146 117.03703703703705,56.93121693121694 116.4021164021164,56.71957671957672 115.76719576719577,56.71957671957672 115.13227513227514,56.50793650793651 114.49735449735451,56.2962962962963 113.86243386243387,56.08465608465609 113.22751322751324,56.08465608465609 112.5925925925926,56.2962962962963 111.95767195767196,56.2962962962963 111.32275132275133,56.50793650793651 110.6878306878307,56.71957671957672 110.05291005291006,57.142857142857146 109.41798941798943,57.56613756613757 108.78306878306879,57.989417989417994 108.35978835978837,58.41269841269842 107.93650793650795,59.04761904761905 107.51322751322752,59.470899470899475 107.0899470899471,60.10582010582011 106.66666666666667,60.74074074074075 106.45502645502647,61.37566137566138 106.03174603174604,62.01058201058201 105.82010582010582,62.64550264550265 105.60846560846562,63.280423280423285 105.3968253968254,63.91534391534392 105.18518518518519,64.55026455026456 104.76190476190477,65.18518518518519 104.55026455026456,65.82010582010582 104.33862433862434,66.45502645502646 104.12698412698414,67.08994708994709 103.91534391534393,67.72486772486774 103.70370370370371,68.35978835978837 103.4920634920635,68.994708994709 103.4920634920635,69.62962962962963 103.28042328042329,70.26455026455027 103.06878306878308,70.8994708994709 103.06878306878308,71.53439153439155 103.06878306878308,72.16931216931218 103.06878306878308,72.80423280423281 103.06878306878308,73.43915343915344 102.85714285714286,74.07407407407408 102.85714285714286,74.70899470899471 102.85714285714286,75.34391534391536 102.85714285714286,75.97883597883599 102.85714285714286,76.61375661375662 102.85714285714286,77.24867724867725 102.85714285714286,77.88359788359789 103.06878306878308,78.51851851851852 103.06878306878308,79.15343915343917 103.28042328042329,79.7883597883598 103.28042328042329,80.42328042328043 103.4920634920635,81.05820105820106 103.91534391534393,81.6931216931217 104.12698412698414,82.32804232804233 104.55026455026456,82.75132275132276 104.97354497354497,83.3862433862434 105.3968253968254,83.80952380952381 105.82010582010582,84.23280423280424 106.45502645502647,84.44444444444446 107.0899470899471,84.86772486772487 107.72486772486774,85.07936507936509 108.35978835978837,85.5026455026455 108.994708994709,85.71428571428572 109.62962962962963,85.71428571428572 110.26455026455027,85.92592592592594 110.89947089947091,86.13756613756614 111.53439153439155,86.34920634920636 112.16931216931218,86.56084656084657 112.80423280423281,86.56084656084657 113.43915343915344,86.56084656084657 114.07407407407408,86.56084656084657 114.70899470899472,86.77248677248677 115.34391534391536,86.77248677248677 115.97883597883599,86.77248677248677 116.61375661375662,86.77248677248677 117.24867724867725,86.77248677248677 117.88359788359789,86.77248677248677 118.51851851851853,86.98412698412699 119.15343915343917,86.98412698412699 119.7883597883598,86.98412698412699 120.42328042328043,86.98412698412699 121.05820105820106,86.98412698412699 121.6931216931217,86.98412698412699 122.32804232804234,86.98412698412699 122.96296296296298,87.1957671957672 123.59788359788361,87.61904761904762 124.23280423280424,87.61904761904762 124.86772486772487,87.83068783068784 125.5026455026455,88.04232804232805 126.13756613756615,88.25396825396827 126.77248677248679,88.67724867724868 127.40740740740742,88.8888888888889 127.83068783068784,89.31216931216932 128.46560846560848,89.73544973544975 128.88888888888889,90.15873015873017 129.31216931216932,90.7936507936508 129.52380952380955,91.42857142857143 129.73544973544975,92.06349206349208 129.94708994708995,92.69841269841271 130.15873015873018,93.33333333333334 130.15873015873018,93.96825396825398 130.37037037037038,94.60317460317461 130.37037037037038,95.23809523809524 130.37037037037038,95.87301587301587 130.37037037037038,96.50793650793652 130.37037037037038,97.14285714285715 130.37037037037038,97.77777777777779 130.37037037037038,98.41269841269842 130.37037037037038,99.04761904761905 130.15873015873018,99.68253968253968 130.15873015873018,100.31746031746033 129.94708994708995,100.95238095238096 129.94708994708995,101.5873015873016 129.73544973544975,102.22222222222223 129.52380952380955,102.85714285714286 129.31216931216932,103.4920634920635 129.10052910052912,104.12698412698414 128.88888888888889,104.76190476190477 128.67724867724868,105.3968253968254 128.46560846560848,106.03174603174604 128.25396825396825,106.66666666666667 128.04232804232805,107.3015873015873 127.83068783068784,107.93650793650795 127.83068783068784,108.57142857142858 127.61904761904763,109.20634920634922 127.40740740740742,109.84126984126985 127.40740740740742,110.47619047619048 127.1957671957672,111.11111111111111 127.1957671957672,111.74603174603176 126.98412698412699,112.3809523809524 126.77248677248679,113.01587301587303 126.77248677248679,113.65079365079366 126.56084656084657,114.28571428571429 126.56084656084657,114.92063492063492 126.34920634920636,115.55555555555557 126.34920634920636,116.1904761904762 126.13756613756615,116.82539682539684 126.13756613756615,117.46031746031747 125.92592592592594,118.0952380952381 125.71428571428572,118.73015873015873 125.71428571428572,119.36507936507937 125.5026455026455,120.00000000000001 125.71428571428572,120.63492063492065 125.5026455026455,121.26984126984128 125.07936507936509,121.6931216931217 125.07936507936509,122.32804232804234 124.86772486772487,122.96296296296298 124.86772486772487,123.59788359788361 124.65608465608466,124.23280423280424 124.65608465608466,124.86772486772487 124.44444444444446,125.5026455026455 124.23280423280424,126.13756613756615 124.23280423280424,126.77248677248679 124.02116402116403,127.40740740740742 123.80952380952382,128.04232804232805 123.80952380952382,128.67724867724868 123.59788359788361,129.31216931216932 123.3862433862434,129.94708994708995 123.3862433862434,130.58201058201058 123.17460317460318,131.21693121693121 123.17460317460318,131.85185185185185 122.96296296296298,132.4867724867725 122.96296296296298,133.12169312169314 122.75132275132276,133.75661375661377 122.53968253968254,134.3915343915344 122.53968253968254,135.02645502645504 122.32804232804234,135.66137566137567 122.11640211640213,136.2962962962963 122.11640211640213,136.93121693121694 121.90476190476191,137.56613756613757 121.90476190476191,138.2010582010582 121.6931216931217,138.83597883597884 121.6931216931217,139.47089947089947 121.4814814814815,140.10582010582013 121.4814814814815,140.74074074074076 121.26984126984128,141.3756613756614 121.26984126984128,142.01058201058203 121.05820105820106,142.64550264550266 121.05820105820106,143.2804232804233 120.84656084656086,143.91534391534393 120.84656084656086,144.55026455026456 120.84656084656086,145.1851851851852 120.63492063492065,145.82010582010582 120.21164021164022,148.78306878306879" style="fill:none; stroke:#999900; stroke-width:1.0"  /><polyline points="120.21164021164022,148.78306878306879 116.82539682539684,148.57142857142858 116.1904761904762,148.57142857142858 115.55555555555557,148.35978835978838 114.92063492063492,148.35978835978838 114.28571428571429,148.35978835978838 113.65079365079366,148.35978835978838 113.01587301587303,148.14814814814815 112.3809523809524,148.14814814814815 111.74603174603176,148.14814814814815 111.11111111111111,148.14814814814815 110.47619047619048,148.14814814814815 109.84126984126985,147.93650793650795 109.20634920634922,147.93650793650795 108.57142857142858,147.93650793650795 107.93650793650795,147.93650793650795 107.3015873015873,147.72486772486775 106.66666666666667,147.72486772486775 106.03174603174604,147.93650793650795 105.3968253968254,147.93650793650795 104.76190476190477,147.72486772486775 104.12698412698414,147.72486772486775 103.4920634920635,147.72486772486775 102.85714285714286,147.72486772486775 102.22222222222223,147.72486772486775 101.5873015873016,147.72486772486775 100.95238095238096,147.72486772486775 100.31746031746033,147.51322751322752 99.68253968253968,147.51322751322752 99.04761904761905,147.51322751322752 98.41269841269842,147.51322751322752 97.77777777777779,147.51322751322752 97.14285714285715,147.51322751322752 96.50793650793652,147.51322751322752 95.87301587301587,147.51322751322752 95.23809523809524,147.30158730158732 94.60317460317461,147.30158730158732 93.96825396825398,147.30158730158732 93.33333333333334,147.30158730158732 92.69841269841271,147.30158730158732 92.06349206349208,147.30158730158732 91.42857142857143,147.30158730158732 90.7936507936508,147.30158730158732 90.15873015873017,147.30158730158732 89.52380952380953,147.30158730158732 88.8888888888889,147.30158730158732 88.25396825396827,147.30158730158732 87.61904761904762,147.30158730158732 86.98412698412699,147.30158730158732 86.34920634920636,147.30158730158732 85.71428571428572,147.30158730158732 85.07936507936509,147.30158730158732 84.44444444444446,147.30158730158732 83.80952380952381,147.30158730158732 83.17460317460318,147.30158730158732 82.53968253968254,147.0899470899471 81.90476190476191,147.30158730158732 81.26984126984128,147.30158730158732 80.63492063492065,147.30158730158732 80.0,147.30158730158732 79.36507936507937,147.30158730158732 78.73015873015873,147.30158730158732 78.0952380952381,147.51322751322752 77.46031746031747,147.51322751322752 76.82539682539684,147.72486772486775 76.19047619047619,147.72486772486775 75.55555555555556,148.14814814814815 74.92063492063492,148.35978835978838 74.28571428571429,148.78306878306879 73.65079365079366,149.20634920634922 73.01587301587303,149.62962962962965 72.5925925925926,150.05291005291005 72.16931216931218,150.47619047619048 71.74603174603175,150.8994708994709 71.32275132275133,151.53439153439155 71.11111111111111,152.16931216931218 70.6878306878307,152.8042328042328 70.47619047619048,153.43915343915344 70.26455026455027,154.07407407407408 70.05291005291006,154.7089947089947 70.05291005291006,155.34391534391534 70.05291005291006,155.978835978836 70.05291005291006,156.61375661375664 70.05291005291006,157.24867724867727 70.05291005291006,157.8835978835979 70.26455026455027,158.51851851851853 70.47619047619048,159.15343915343917 70.6878306878307,159.7883597883598 70.8994708994709,160.42328042328043 71.32275132275133,160.84656084656086 71.53439153439155,161.4814814814815 71.95767195767196,162.11640211640213 72.38095238095238,162.75132275132276 72.5925925925926,163.3862433862434 73.01587301587303,164.02116402116403 73.22751322751323,164.65608465608466 73.65079365079366,165.2910052910053 73.86243386243387,165.92592592592595 74.28571428571429,166.56084656084658 74.49735449735451,167.19576719576722 74.70899470899471,167.83068783068785 74.92063492063492,168.46560846560848 74.92063492063492,169.10052910052912 75.13227513227514,169.73544973544975 75.13227513227514,170.37037037037038 75.34391534391536,171.005291005291 75.34391534391536,171.64021164021165 75.55555555555556,172.27513227513228 75.55555555555556,172.9100529100529 75.55555555555556,173.54497354497354 75.76719576719577,174.1798941798942 75.76719576719577,174.81481481481484 75.76719576719577,175.44973544973547 75.76719576719577,176.0846560846561 75.76719576719577,176.71957671957674 75.76719576719577,177.35449735449737 75.55555555555556,177.989417989418 75.55555555555556,178.62433862433863 75.34391534391536,179.25925925925927 75.13227513227514,179.8941798941799 74.92063492063492,180.52910052910053 74.49735449735451,181.16402116402116 74.07407407407408,181.79894179894183 73.65079365079366,182.22222222222223 73.22751322751323,182.64550264550266 72.80423280423281,183.0687830687831 72.16931216931218,183.4920634920635 71.74603174603175,183.91534391534393 71.11111111111111,184.33862433862436 70.6878306878307,184.7619047619048 70.05291005291006,185.1851851851852 69.41798941798942,185.39682539682542 68.78306878306879,185.82010582010582 68.14814814814815,186.03174603174605 67.51322751322752,186.45502645502646 66.87830687830689,186.66666666666669 66.24338624338625,186.8783068783069 65.60846560846561,187.30158730158732 64.97354497354497,187.51322751322752 64.33862433862434,187.72486772486775 63.70370370370371,187.93650793650795 63.06878306878308,188.14814814814815 62.43386243386244,188.35978835978838 61.798941798941804,188.57142857142858 61.16402116402117,188.78306878306879 60.52910052910053,188.99470899470901 59.8941798941799,188.99470899470901 59.25925925925927,189.20634920634922 58.62433862433863,189.20634920634922 57.989417989417994,189.20634920634922 57.35449735449736,189.20634920634922 56.71957671957672,189.20634920634922 56.08465608465609,188.99470899470901 55.449735449735456,188.99470899470901 54.81481481481482,188.78306878306879 54.179894179894184,188.57142857142858 53.54497354497355,188.35978835978838 52.91005291005291,187.93650793650795 52.27513227513228,187.72486772486775 51.640211640211646,187.30158730158732 51.00529100529101,186.8783068783069 50.58201058201058,186.45502645502646 49.94708994708995,186.03174603174605 49.523809523809526,185.39682539682542 49.1005291005291,184.973544973545 48.677248677248684,184.33862433862436 48.25396825396826,183.70370370370372 47.830687830687836,183.0687830687831 47.61904761904762,182.43386243386246 47.40740740740741,181.79894179894183 47.195767195767196,181.16402116402116 46.98412698412699,180.52910052910053 46.77248677248678,179.8941798941799 46.77248677248678,179.25925925925927 46.77248677248678,178.62433862433863 46.560846560846564,177.989417989418 46.560846560846564,177.35449735449737 46.560846560846564,176.71957671957674 46.560846560846564,176.0846560846561 46.560846560846564,175.44973544973547 46.560846560846564,174.81481481481484 46.349206349206355,174.1798941798942 46.349206349206355,173.54497354497354 46.13756613756614,172.9100529100529 46.13756613756614,172.27513227513228 45.92592592592593,171.64021164021165 45.92592592592593,171.005291005291 45.92592592592593,170.37037037037038 45.714285714285715,169.73544973544975 45.714285714285715,169.10052910052912 45.50264550264551,168.46560846560848 45.29100529100529,167.83068783068785 45.29100529100529,167.19576719576722 44.867724867724874,166.56084656084658 44.867724867724874,165.92592592592595 44.65608465608466,165.2910052910053 44.44444444444445,164.65608465608466 44.232804232804234,164.02116402116403 44.232804232804234,163.3862433862434 44.021164021164026,162.75132275132276 43.80952380952381,162.11640211640213 43.5978835978836,161.4814814814815 43.386243386243386,160.84656084656086 43.17460317460318,160.21164021164023 42.75132275132275,159.5767195767196 42.539682539682545,158.94179894179896 42.32804232804233,158.30687830687833 41.904761904761905,157.67195767195767 41.48148148148149,157.03703703703704 41.058201058201064,156.4021164021164 40.63492063492064,155.978835978836 40.0,155.55555555555557 39.57671957671958,155.13227513227514 39.15343915343916,154.7089947089947 38.51851851851852,154.2857142857143 37.883597883597886,154.07407407407408 37.248677248677254,153.86243386243387 36.613756613756614,153.65079365079367 35.97883597883598,153.86243386243387 35.34391534391535,153.86243386243387 34.70899470899471,153.86243386243387 34.074074074074076,153.86243386243387 33.43915343915344,154.07407407407408 32.804232804232804,154.2857142857143 32.16931216931217,154.7089947089947 31.53439153439154,154.92063492063494 31.111111111111114,155.34391534391534 30.476190476190478,155.76719576719577 30.052910052910054,156.1904761904762 29.629629629629633,156.82539682539684 29.20634920634921,157.24867724867727 28.783068783068785,157.67195767195767 28.35978835978836,158.0952380952381 27.93650793650794,158.51851851851853 27.513227513227516,158.94179894179896 27.089947089947092,159.36507936507937 26.666666666666668,159.7883597883598 26.243386243386244,160.21164021164023 25.820105820105823,160.63492063492066 25.3968253968254,161.05820105820106 24.973544973544975,161.4814814814815 24.55026455026455,161.90476190476193 23.915343915343918,162.32804232804233 23.492063492063494,162.75132275132276 23.06878306878307,163.1746031746032 22.645502645502646,163.59788359788362 22.010582010582013,164.02116402116403 21.58730158730159,164.44444444444446 20.952380952380953,164.8677248677249 20.31746031746032,165.2910052910053 19.894179894179896,165.71428571428572 19.25925925925926,166.13756613756615 18.83597883597884,166.56084656084658 18.201058201058203,166.984126984127 17.566137566137566,167.40740740740742 16.931216931216934,167.83068783068785 16.296296296296298,168.25396825396825 15.661375661375663,168.67724867724868 15.026455026455027,169.10052910052912 14.391534391534393,169.52380952380955 13.756613756613758,169.94708994708995 13.121693121693122,170.15873015873018 12.6984126984127,170.58201058201058 12.063492063492065,170.7936507936508 11.640211640211641,171.21693121693124 11.005291005291006,171.64021164021165 10.370370370370372,172.06349206349208 9.735449735449736,172.4867724867725 5.714285714285714,175.02645502645504" style="fill:none; stroke:#00aa99; stroke-width:1.0"  /><polyline points="5.714285714285714,175.02645502645504 5.9259259259259265,170.37037037037038 5.9259259259259265,169.73544973544975 5.9259259259259265,169.10052910052912 5.9259259259259265,168.46560846560848 5.9259259259259265,167.83068783068785 5.9259259259259265,167.19576719576722 5.9259259259259265,166.56084656084658 5.9259259259259265,165.92592592592595 6.137566137566138,165.2910052910053 6.137566137566138,164.65608465608466 6.137566137566138,164.02116402116403 6.137566137566138,163.3862433862434 6.137566137566138,162.75132275132276 6.137566137566138,162.11640211640213 6.137566137566138,161.4814814814815 6.137566137566138,160.84656084656086 6.137566137566138,160.21164021164023 6.137566137566138,159.5767195767196 5.9259259259259265,158.94179894179896 5.9259259259259265,158.30687830687833 5.9259259259259265,157.67195767195767 5.9259259259259265,157.03703703703704 5.714285714285714,156.4021164021164 5.502645502645503,155.76719576719577 5.502645502645503,155.13227513227514 5.502645502645503,154.4973544973545 5.291005291005291,153.86243386243387 5.291005291005291,153.22751322751324 5.291005291005291,152.5925925925926 5.07936507936508,151.95767195767198 5.07936507936508,151.32275132275134 4.867724867724868,150.6878306878307 4.867724867724868,150.05291005291005 4.656084656084657,149.41798941798942 4.656084656084657,148.78306878306879 4.444444444444445,148.14814814814815 4.2328042328042335,147.51322751322752 4.2328042328042335,146.8783068783069 4.2328042328042335,146.24338624338625 4.021164021164021,145.60846560846562 3.8095238095238098,144.973544973545 3.8095238095238098,144.33862433862436 3.597883597883598,143.70370370370372 3.597883597883598,143.0687830687831 3.3862433862433865,142.43386243386246 3.3862433862433865,141.7989417989418 3.174603174603175,141.16402116402116 3.174603174603175,140.52910052910053 2.9629629629629632,139.8941798941799 2.9629629629629632,139.25925925925927 2.7513227513227516,138.62433862433863 2.53968253968254,137.989417989418 2.53968253968254,137.35449735449737 2.53968253968254,136.71957671957674 2.3280423280423284,136.0846560846561 2.3280423280423284,135.44973544973547 2.1164021164021167,134.81481481481484 2.1164021164021167,134.17989417989418 1.9047619047619049,133.54497354497354 1.9047619047619049,132.9100529100529 1.6931216931216932,132.27513227513228 1.6931216931216932,131.64021164021165 1.4814814814814816,131.005291005291 1.4814814814814816,130.37037037037038 1.4814814814814816,129.73544973544975 1.26984126984127,129.10052910052912 1.0582010582010584,128.46560846560848 1.0582010582010584,127.83068783068784 1.0582010582010584,127.1957671957672 0.8465608465608466,126.56084656084657 0.8465608465608466,125.92592592592594 0.8465608465608466,125.2910052910053 0.634920634920635,124.65608465608466 0.634920634920635,124.02116402116403 0.634920634920635,123.3862433862434 0.4232804232804233,122.75132275132276 0.4232804232804233,122.11640211640213 0.4232804232804233,121.4814814814815 0.21164021164021166,120.84656084656086 0.21164021164021166,120.21164021164022 0.21164021164021166,119.57671957671958 0.21164021164021166,118.94179894179895 0.21164021164021166,118.30687830687832 0.21164021164021166,117.67195767195768 0.4232804232804233,117.03703703703705 0.634920634920635,116.4021164021164 0.634920634920635,115.76719576719577 0.634920634920635,115.13227513227514 0.8465608465608466,114.49735449735451 1.0582010582010584,113.86243386243387 1.26984126984127,113.22751322751324 1.26984126984127,112.5925925925926 1.6931216931216932,111.95767195767196 1.9047619047619049,111.32275132275133 2.1164021164021167,110.6878306878307 2.3280423280423284,110.05291005291006 2.53968253968254,109.41798941798943 2.7513227513227516,108.78306878306879 3.174603174603175,108.35978835978837 3.3862433862433865,107.72486772486774 3.8095238095238098,107.3015873015873 4.2328042328042335,106.66666666666667 4.656084656084657,106.24338624338625 5.291005291005291,105.82010582010582 5.714285714285714,105.3968253968254 6.34920634920635,105.3968253968254 6.984126984126985,105.18518518518519 7.6190476190476195,105.18518518518519 8.253968253968255,105.18518518518519 8.88888888888889,104.97354497354497 9.523809523809524,105.3968253968254 10.15873015873016,105.60846560846562 10.793650793650794,105.82010582010582 11.216931216931219,106.24338624338625 11.851851851851853,106.66666666666667 12.275132275132275,107.0899470899471 12.6984126984127,107.51322751322752 13.121693121693122,107.93650793650795 13.544973544973546,108.35978835978837 13.96825396825397,108.78306878306879 14.391534391534393,109.20634920634922 14.814814814814817,109.62962962962963 15.238095238095239,110.05291005291006 15.661375661375663,110.47619047619048 16.084656084656086,111.11111111111111 16.50793650793651,111.53439153439155 16.931216931216934,111.95767195767196 17.354497354497354,112.3809523809524 17.77777777777778,113.01587301587303 18.201058201058203,113.43915343915344 18.624338624338627,113.86243386243387 19.047619047619047,114.28571428571429 19.47089947089947,114.70899470899472 19.894179894179896,115.13227513227514 20.31746031746032,115.55555555555557 20.740740740740744,115.97883597883599 21.375661375661377,116.4021164021164 21.7989417989418,116.82539682539684 22.433862433862437,117.24867724867725 23.06878306878307,117.67195767195768 23.703703703703706,117.88359788359789 24.338624338624342,118.0952380952381 24.973544973544975,118.51851851851853 25.60846560846561,118.73015873015873 26.243386243386244,118.73015873015873 26.87830687830688,118.73015873015873 27.513227513227516,118.73015873015873 28.14814814814815,118.51851851851853 28.783068783068785,118.51851851851853 29.41798941798942,118.0952380952381 30.052910052910054,117.88359788359789 30.68783068783069,117.67195767195768 31.111111111111114,117.24867724867725 31.53439153439154,116.82539682539684 31.95767195767196,116.4021164021164 32.38095238095239,115.97883597883599 33.01587301587302,115.55555555555557 33.43915343915344,114.92063492063492 33.86243386243387,114.49735449735451 34.28571428571429,113.86243386243387 34.70899470899471,113.43915343915344 35.13227513227513,112.80423280423281 35.55555555555556,112.3809523809524 35.97883597883598,111.74603174603176 36.19047619047619,111.11111111111111 36.613756613756614,110.6878306878307 36.82539682539683,110.05291005291006 37.248677248677254,109.62962962962963 37.46031746031746,108.994708994709 37.883597883597886,108.57142857142858 38.095238095238095,107.93650793650795 38.30687830687831,107.3015873015873 38.51851851851852,106.66666666666667 38.730158730158735,106.03174603174604 39.15343915343916,105.3968253968254 39.15343915343916,104.76190476190477 39.36507936507937,104.12698412698414 39.57671957671958,103.4920634920635 39.78835978835979,102.85714285714286 39.78835978835979,102.22222222222223 40.0,101.5873015873016 40.0,100.95238095238096 40.211640211640216,100.31746031746033 40.211640211640216,99.68253968253968 40.423280423280424,99.04761904761905 40.423280423280424,98.41269841269842 40.423280423280424,97.77777777777779 40.63492063492064,97.14285714285715 40.63492063492064,96.50793650793652 40.63492063492064,95.87301587301587 40.63492063492064,95.23809523809524 40.63492063492064,94.60317460317461 40.63492063492064,93.96825396825398 40.63492063492064,93.33333333333334 40.63492063492064,92.69841269841271 40.63492063492064,92.06349206349208 40.63492063492064,91.42857142857143 40.423280423280424,90.7936507936508 40.423280423280424,90.15873015873017 40.211640211640216,89.52380952380953 40.211640211640216,88.8888888888889 40.0,88.25396825396827 40.0,87.61904761904762 39.78835978835979,86.98412698412699 39.78835978835979,86.34920634920636 39.36507936507937,85.71428571428572 39.15343915343916,85.07936507936509 39.15343915343916,84.44444444444446 38.94179894179894,83.80952380952381 38.730158730158735,83.17460317460318 38.51851851851852,82.53968253968254 38.30687830687831,81.90476190476191 38.095238095238095,81.26984126984128 37.883597883597886,80.63492063492065 37.67195767195768,80.0 37.248677248677254,79.36507936507937 37.03703703703704,78.73015873015873 36.613756613756614,78.0952380952381 36.19047619047619,77.46031746031747 35.76719576719577,77.03703703703704 35.13227513227513,76.61375661375662 34.70899470899471,76.19047619047619 34.074074074074076,75.76719576719577 33.43915343915344,75.55555555555556 32.804232804232804,75.34391534391536 32.16931216931217,75.13227513227514 31.53439153439154,74.92063492063492 30.899470899470902,74.92063492063492 30.264550264550266,74.92063492063492 29.629629629629633,74.92063492063492 28.994708994708997,74.92063492063492 28.35978835978836,74.92063492063492 27.724867724867728,75.13227513227514 27.089947089947092,75.13227513227514 26.455026455026456,75.34391534391536 25.820105820105823,75.55555555555556 25.185185185185187,75.76719576719577 24.55026455026455,75.97883597883599 23.915343915343918,76.19047619047619 23.280423280423282,76.61375661375662 22.645502645502646,76.82539682539684 22.010582010582013,77.24867724867725 21.375661375661377,77.46031746031747 20.740740740740744,77.88359788359789 20.105820105820108,78.0952380952381 19.47089947089947,78.51851851851852 18.83597883597884,78.94179894179895 18.201058201058203,79.15343915343917 17.566137566137566,79.36507936507937 16.931216931216934,79.57671957671958 16.296296296296298,79.7883597883598 15.661375661375663,79.7883597883598 15.026455026455027,80.0 14.391534391534393,80.21164021164022 13.756613756613758,80.21164021164022 13.121693121693122,80.21164021164022 12.486772486772487,80.42328042328043 11.851851851851853,80.42328042328043 11.216931216931219,80.42328042328043 10.582010582010582,80.21164021164022 9.947089947089948,80.21164021164022 9.312169312169313,80.0 8.677248677248677,79.7883597883598 8.253968253968255,79.36507936507937 7.6190476190476195,78.94179894179895 7.195767195767196,78.51851851851852 6.772486772486773,78.0952380952381 6.560846560846561,77.46031746031747 6.137566137566138,77.03703703703704 6.137566137566138,76.4021164021164 5.714285714285714,75.76719576719577 5.714285714285714,75.13227513227514 5.502645502645503,74.49735449735451 5.291005291005291,73.86243386243387 5.291005291005291,73.22751322751323 5.07936507936508,72.5925925925926 5.07936507936508,71.95767195767196 4.867724867724868,71.32275132275133 4.656084656084657,70.6878306878307 4.656084656084657,70.05291005291006 4.656084656084657,69.41798941798942 4.656084656084657,68.78306878306879 4.656084656084657,68.14814814814815 4.444444444444445,67.51322751322752 4.444444444444445,66.87830687830689 4.444444444444445,66.24338624338625 4.444444444444445,65.60846560846561 4.656084656084657,64.97354497354497 4.656084656084657,64.33862433862434 4.656084656084657,63.70370370370371 4.656084656084657,63.06878306878308 4.656084656084657,62.43386243386244 4.867724867724868,61.798941798941804 4.867724867724868,61.16402116402117 5.07936507936508,60.52910052910053 5.07936507936508,59.8941798941799 5.291005291005291,59.25925925925927 5.291005291005291,58.62433862433863 5.291005291005291,57.989417989417994 5.502645502645503,57.35449735449736 5.714285714285714,56.71957671957672 5.714285714285714,56.08465608465609 5.714285714285714,55.449735449735456 5.714285714285714,54.81481481481482 5.9259259259259265,54.179894179894184 6.137566137566138,53.54497354497355 6.137566137566138,52.91005291005291 6.34920634920635,52.27513227513228 6.34920634920635,51.640211640211646 6.34920634920635,51.00529100529101 6.560846560846561,50.370370370370374 6.560846560846561,49.73544973544974 6.984126984126985,49.1005291005291 7.195767195767196,48.46560846560847 7.195767195767196,47.830687830687836 7.195767195767196,47.195767195767196 7.6190476190476195,46.77248677248678 7.6190476190476195,46.13756613756614 7.830687830687832,45.50264550264551 7.830687830687832,44.867724867724874 8.042328042328043,44.232804232804234 8.253968253968255,43.5978835978836 8.465608465608467,42.96296296296297 8.677248677248677,42.32804232804233 8.88888888888889,41.6931216931217 8.88888888888889,41.058201058201064 9.100529100529101,40.423280423280424 9.312169312169313,39.78835978835979 9.523809523809524,39.15343915343916 9.523809523809524,38.51851851851852 9.735449735449736,37.883597883597886 9.947089947089948,37.248677248677254 10.15873015873016,36.613756613756614 10.582010582010582,35.97883597883598 10.582010582010582,35.34391534391535 10.793650793650794,34.70899470899471 11.005291005291006,34.074074074074076 11.216931216931219,33.43915343915344 11.428571428571429,32.804232804232804 11.640211640211641,32.16931216931217 11.851851851851853,31.53439153439154 12.063492063492065,30.899470899470902 12.275132275132275,30.264550264550266 12.486772486772487,29.629629629629633 12.6984126984127,28.994708994708997 12.910052910052912,28.35978835978836 13.121693121693122,27.724867724867728 13.333333333333334,27.089947089947092 13.544973544973546,26.455026455026456 13.756613756613758,25.820105820105823 13.96825396825397,25.185185185185187 14.17989417989418,24.55026455026455 15.238095238095239,21.375661375661377" style="fill:none; stroke:#3300bb; stroke-width:1.0"  /><circle cx="15.238095238095239" cy="21.375661375661377" r="2.0" style="fill:none; stroke:#000000aa; stroke-width:0.25" /><circle cx="142.64550264550266" cy="0.21164021164021166" r="2.0" style="fill:none; stroke:#000000aa; stroke-width:0.25" /><circle cx="120.21164021164022" cy="148.78306878306879" r="2.0" style="fill:none; stroke:#000000aa; stroke-width:0.25" /><circle cx="5.714285714285714" cy="175.02645502645504" r="2.0" style="fill:none; stroke:#000000aa; stroke-width:0.25" /><circle cx="15.449735449735451" cy="21.58730158730159" r="2.0" style="fill:none; stroke:#ff3366aa; stroke-width:0.25" /><circle cx="142.43386243386246" cy="0.8465608465608466" r="2.0" style="fill:none; stroke:#ff3366aa; stroke-width:0.25" /><circle cx="120.00000000000001" cy="148.78306878306879" r="2.0" style="fill:none; stroke:#ff3366aa; stroke-width:0.25" /><circle cx="6.34920634920635" cy="173.54497354497354" r="2.0" style="fill:none; stroke:#ff3366aa; stroke-width:0.25" /><polyline points="26.87830687830688,19.047619047619047 26.243386243386244,19.25925925925926 25.60846560846561,19.25925925925926 24.973544973544975,19.47089947089947 24.338624338624342,19.682539682539684 23.703703703703706,19.682539682539684 23.06878306878307,19.894179894179896 22.433862433862437,20.105820105820108 21.7989417989418,20.105820105820108 21.164021164021165,20.105820105820108 20.529100529100532,20.31746031746032 19.894179894179896,20.31746031746032 19.25925925925926,20.529100529100532 18.624338624338627,20.740740740740744" style="fill:none; stroke:#001100; stroke-width:1.0" /><polyline points="11.428571428571429,32.804232804232804 11.640211640211641,32.16931216931217 11.851851851851853,31.53439153439154 12.063492063492065,30.899470899470902 12.275132275132275,30.264550264550266 12.486772486772487,29.629629629629633 12.6984126984127,28.994708994708997 12.910052910052912,28.35978835978836 13.121693121693122,27.724867724867728 13.333333333333334,27.089947089947092 13.544973544973546,26.455026455026456 13.756613756613758,25.820105820105823 13.96825396825397,25.185185185185187 14.17989417989418,24.55026455026455" style="fill:none; stroke:#000011; stroke-width:1.0" /><polyline points="141.3756613756614,12.275132275132275 141.5873015873016,11.640211640211641 141.5873015873016,11.005291005291006 141.5873015873016,10.370370370370372 141.5873015873016,9.735449735449736 141.5873015873016,9.100529100529101 141.7989417989418,8.465608465608467 141.7989417989418,7.830687830687832 141.7989417989418,7.195767195767196 142.01058201058203,6.560846560846561 142.01058201058203,5.9259259259259265 142.01058201058203,5.291005291005291 142.22222222222223,4.656084656084657 142.22222222222223,4.021164021164021" style="fill:none; stroke:#001100; stroke-width:1.0" /><polyline points="130.58201058201058,0.21164021164021166 131.21693121693121,0.21164021164021166 131.85185185185185,0.21164021164021166 132.4867724867725,0.21164021164021166 133.12169312169314,0.21164021164021166 133.75661375661377,0.21164021164021166 134.3915343915344,0.21164021164021166 135.02645502645504,0.21164021164021166 135.66137566137567,0.21164021164021166 136.2962962962963,0.21164021164021166 136.93121693121694,0.21164021164021166 137.56613756613757,0.21164021164021166 138.2010582010582,0.21164021164021166 138.83597883597884,0.21164021164021166 139.47089947089947,0.21164021164021166" style="fill:none; stroke:#000011; stroke-width:1.0" /><polyline points="108.57142857142858,147.93650793650795 109.20634920634922,147.93650793650795 109.84126984126985,147.93650793650795 110.47619047619048,148.14814814814815 111.11111111111111,148.14814814814815 111.74603174603176,148.14814814814815 112.3809523809524,148.14814814814815 113.01587301587303,148.14814814814815 113.65079365079366,148.35978835978838 114.28571428571429,148.35978835978838 114.92063492063492,148.35978835978838 115.55555555555557,148.35978835978838 116.1904761904762,148.57142857142858 116.82539682539684,148.57142857142858" style="fill:none; stroke:#001100; stroke-width:1.0" /><polyline points="122.11640211640213,136.93121693121694 121.90476190476191,137.56613756613757 121.90476190476191,138.2010582010582 121.6931216931217,138.83597883597884 121.6931216931217,139.47089947089947 121.4814814814815,140.10582010582013 121.4814814814815,140.74074074074076 121.26984126984128,141.3756613756614 121.26984126984128,142.01058201058203 121.05820105820106,142.64550264550266 121.05820105820106,143.2804232804233 120.84656084656086,143.91534391534393 120.84656084656086,144.55026455026456 120.84656084656086,145.1851851851852 120.63492063492065,145.82010582010582" style="fill:none; stroke:#000011; stroke-width:1.0" /><polyline points="6.137566137566138,162.11640211640213 6.137566137566138,162.75132275132276 6.137566137566138,163.3862433862434 6.137566137566138,164.02116402116403 6.137566137566138,164.65608465608466 6.137566137566138,165.2910052910053 5.9259259259259265,165.92592592592595 5.9259259259259265,166.56084656084658 5.9259259259259265,167.19576719576722 5.9259259259259265,167.83068783068785 5.9259259259259265,168.46560846560848 5.9259259259259265,169.10052910052912 5.9259259259259265,169.73544973544975 5.9259259259259265,170.37037037037038" style="fill:none; stroke:#001100; stroke-width:1.0" /><polyline points="16.931216931216934,167.83068783068785 16.296296296296298,168.25396825396825 15.661375661375663,168.67724867724868 15.026455026455027,169.10052910052912 14.391534391534393,169.52380952380955 13.756613756613758,169.94708994708995 13.121693121693122,170.15873015873018 12.6984126984127,170.58201058201058 12.063492063492065,170.7936507936508 11.640211640211641,171.21693121693124 11.005291005291006,171.64021164021165 10.370370370370372,172.06349206349208 9.735449735449736,172.4867724867725" style="fill:none; stroke:#000011; stroke-width:1.0" /><polyline points="18.624338624338627,20.740740740740744 -2.1164021164021167,24.973544973544975" style="fill:none; stroke:#ffaa00; stroke-width:0.4" /><polyline points="14.17989417989418,24.55026455026455 20.952380952380953,4.444444444444445" style="fill:none; stroke:#aaff00; stroke-width:0.4" /><polyline points="142.22222222222223,4.021164021164021 144.33862433862436,-16.931216931216934" style="fill:none; stroke:#ffaa00; stroke-width:0.4" /><polyline points="139.47089947089947,0.21164021164021166 160.63492063492066,0.21164021164021166" style="fill:none; stroke:#aaff00; stroke-width:0.4" /><polyline points="116.82539682539684,148.57142857142858 137.989417989418,150.26455026455028" style="fill:none; stroke:#ffaa00; stroke-width:0.4" /><polyline points="120.63492063492065,145.82010582010582 117.24867724867725,166.7724867724868" style="fill:none; stroke:#aaff00; stroke-width:0.4" /><polyline points="5.9259259259259265,170.37037037037038 5.291005291005291,191.53439153439155" style="fill:none; stroke:#ffaa00; stroke-width:0.4" /><polyline points="9.735449735449736,172.4867724867725 -8.042328042328043,183.91534391534393" style="fill:none; stroke:#aaff00; stroke-width:0.4" /><circle cx="70.8994708994709" cy="90.15873015873017" r="1.0" style="fill:#444444; stroke-width:0" /><circle cx="77.67195767195767" cy="108.57142857142858" r="10.582010582010582" style="fill:#ff770022; stroke-width:0" /><circle cx="77.67195767195767" cy="108.57142857142858" r="1.0" style="fill:#ff7700; stroke-width:0" /></svg>