<?xml version="1.0" encoding="UTF-8" standalone="no"?><svg width="568.8888888888889" height="508.5714285714286" viewBox="-10 -10 209.62962962962965 189.52380952380955" xmlns="http://www.w3.org/2000/svg" xmlns:xlink="http://www.w3.org/1999/xlink"><polyline points="1.26984126984127,49.1005291005291 4.444444444444445,48.042328042328045 5.07936507936508,47.830687830687836 5.714285714285714,47.61904761904762 6.34920634920635,47.40740740740741 6.984126984126985,47.195767195767196 7.6190476190476195,46.98412698412699 8.253968253968255,46.77248677248678 8.88888888888889,46.560846560846564 9.523809523809524,46.349206349206355 10.15873015873016,46.13756613756614 10.793650793650794,45.92592592592593 11.428571428571429,45.50264550264551 12.063492063492065,45.50264550264551 12.6984126984127,45.07936507936508 13.333333333333334,44.867724867724874 13.96825396825397,44.65608465608466 14.603174603174605,44.65608465608466 15.026455026455027,44.232804232804234 15.661375661375663,44.232804232804234 16.296296296296298,44.021164021164026 16.931216931216934,43.80952380952381 17.566137566137566,43.5978835978836 18.201058201058203,43.386243386243386 18.83597883597884,42.96296296296297 19.47089947089947,42.96296296296297 20.105820105820108,42.539682539682545 20.740740740740744,42.539682539682545 21.375661375661377,42.32804232804233 22.010582010582013,42.11640211640212 22.645502645502646,41.904761904761905 23.280423280423282,41.6931216931217 23.915343915343918,41.48148148148149 24.55026455026455,41.48148148148149 25.185185185185187,41.26984126984127 25.820105820105823,41.058201058201064 26.455026455026456,40.84656084656085 27.089947089947092,40.63492063492064 27.724867724867728,40.63492063492064 28.35978835978836,40.423280423280424 28.994708994708997,40.211640211640216 29.629629629629633,40.0 30.264550264550266,39.78835978835979 30.899470899470902,39.78835978835979 31.53439153439154,39.78835978835979 32.16931216931217,39.36507936507937 32.804232804232804,39.15343915343916 33.43915343915344,38.94179894179894 34.074074074074076,38.94179894179894 34.70899470899471,38.730158730158735 35.34391534391535,38.51851851851852 35.97883597883598,38.30687830687831 36.613756613756614,38.30687830687831 37.248677248677254,38.095238095238095 37.883597883597886,38.095238095238095 38.51851851851852,37.883597883597886 39.15343915343916,37.883597883597886 39.78835978835979,37.67195767195768 40.423280423280424,37.67195767195768 41.058201058201064,37.46031746031746 41.6931216931217,37.248677248677254 42.32804232804233,37.248677248677254 42.96296296296297,37.03703703703704 43.5978835978836,37.03703703703704 44.232804232804234,36.82539682539683 44.867724867724874,36.82539682539683 45.50264550264551,36.613756613756614 46.13756613756614,36.402116402116405 46.77248677248678,36.402116402116405 47.40740740740741,36.19047619047619 48.042328042328045,35.97883597883598 48.677248677248684,35.76719576719577 49.31216931216932,35.55555555555556 49.94708994708995,35.13227513227513 50.58201058201058,34.70899470899471 51.21693121693122,34.28571428571429 51.640211640211646,33.86243386243387 52.06349206349207,33.43915343915344 52.48677248677249,32.804232804232804 52.6984126984127,32.16931216931217 52.91005291005291,31.53439153439154 52.91005291005291,30.899470899470902 53.12169312169313,30.264550264550266 53.12169312169313,29.629629629629633 53.12169312169313,28.994708994708997 53.12169312169313,28.35978835978836 52.91005291005291,27.724867724867728 52.91005291005291,27.089947089947092 52.48677248677249,26.455026455026456 52.27513227513228,25.820105820105823 51.851851851851855,25.185185185185187 51.42857142857143,24.55026455026455 51.00529100529101,23.915343915343918 50.58201058201058,23.492063492063494 50.158730158730165,23.06878306878307 49.523809523809526,22.645502645502646 49.1005291005291,22.222222222222225 48.677248677248684,21.7989417989418 48.042328042328045,21.375661375661377 47.61904761904762,20.952380952380953 47.195767195767196,20.529100529100532 46.560846560846564,20.105820105820108 46.13756613756614,19.682539682539684 45.50264550264551,19.25925925925926 45.07936507936508,18.83597883597884 44.44444444444445,18.412698412698415 43.80952380952381,17.98941798941799 43.17460317460318,17.566137566137566 42.75132275132275,17.142857142857146 42.32804232804233,16.71957671957672 41.6931216931217,16.296296296296298 41.26984126984127,15.661375661375663 40.84656084656085,15.026455026455027 40.63492063492064,14.391534391534393 40.423280423280424,13.756613756613758 40.211640211640216,13.121693121693122 40.0,12.486772486772487 40.0,11.851851851851853 40.0,11.216931216931219 40.211640211640216,10.582010582010582 40.423280423280424,9.947089947089948 40.84656084656085,9.312169312169313 41.26984126984127,8.677248677248677 41.6931216931217,8.253968253968255 42.11640211640212,7.830687830687832 42.539682539682545,7.407407407407408 42.96296296296297,6.984126984126985 43.5978835978836,6.560846560846561 44.021164021164026,6.137566137566138 44.65608465608466,5.714285714285714 45.29100529100529,5.291005291005291 45.92592592592593,5.07936507936508 46.349206349206355,4.656084656084657 46.98412698412699,4.444444444444445 47.40740740740741,4.021164021164021 48.042328042328045,3.8095238095238098 48.677248677248684,3.3862433862433865 49.31216931216932,3.174603174603175 49.94708994708995,2.9629629629629632 50.58201058201058,2.7513227513227516 51.21693121693122,2.53968253968254 51.851851851851855,2.3280423280423284 52.48677248677249,2.1164021164021167 53.12169312169313,1.9047619047619049 53.75661375661376,1.6931216931216932 54.39153439153439,1.4814814814814816 55.02645502645503,1.26984126984127 55.661375661375665,1.0582010582010584 56.2962962962963,1.0582010582010584 56.93121693121694,0.8465608465608466 57.56613756613757,0.8465608465608466 58.2010582010582,0.634920634920635 58.83597883597884,0.634920634920635 59.470899470899475,0.4232804232804233 60.10582010582011,0.4232804232804233 60.74074074074075,0.634920634920635 61.37566137566138,0.4232804232804233 62.01058201058201,0.4232804232804233 62.64550264550265,0.4232804232804233 63.280423280423285,0.4232804232804233 63.91534391534392,0.4232804232804233 64.55026455026456,0.4232804232804233 65.18518518518519,0.4232804232804233 65.82010582010582,0.4232804232804233 66.45502645502646,0.4232804232804233 67.08994708994709,0.21164021164021166 67.72486772486774,0.4232804232804233 68.35978835978837,0.634920634920635 68.994708994709,0.634920634920635 69.62962962962963,0.8465608465608466 70.26455026455027,0.634920634920635 70.6878306878307,1.0582010582010584 71.32275132275133,1.0582010582010584 71.95767195767196,1.0582010582010584 72.38095238095238,1.4814814814814816 73.01587301587303,1.6931216931216932 73.65079365079366,1.9047619047619049 74.28571428571429,2.3280423280423284 74.92063492063492,2.7513227513227516 75.34391534391536,3.174603174603175 75.76719576719577,3.8095238095238098 76.19047619047619,4.444444444444445 76.19047619047619,5.07936507936508 76.4021164021164,5.714285714285714 76.4021164021164,6.34920634920635 76.61375661375662,6.984126984126985 76.61375661375662,7.6190476190476195 76.4021164021164,8.253968253968255 76.4021164021164,8.88888888888889 76.4021164021164,9.523809523809524 76.19047619047619,10.15873015873016 76.19047619047619,10.793650793650794 75.97883597883599,11.428571428571429 75.76719576719577,12.063492063492065 75.55555555555556,12.6984126984127 75.55555555555556,13.333333333333334 75.34391534391536,13.96825396825397 75.13227513227514,14.603174603174605 74.92063492063492,15.238095238095239 74.70899470899471,15.873015873015873 74.49735449735451,16.50793650793651 74.49735449735451,17.142857142857146 74.28571428571429,17.77777777777778 74.07407407407408,18.412698412698415 74.07407407407408,19.047619047619047 74.07407407407408,19.682539682539684 74.07407407407408,20.31746031746032 74.07407407407408,20.952380952380953 74.07407407407408,21.58730158730159 74.07407407407408,22.222222222222225 74.07407407407408,22.857142857142858 74.28571428571429,23.492063492063494 74.49735449735451,24.12698412698413 74.70899470899471,24.761904761904763 75.13227513227514,25.3968253968254 75.55555555555556,26.031746031746035 75.97883597883599,26.666666666666668 76.4021164021164,27.089947089947092 77.03703703703704,27.513227513227516 77.46031746031747,27.93650793650794 78.0952380952381,28.14814814814815 78.51851851851852,28.571428571428573 79.15343915343917,28.783068783068785 79.7883597883598,28.994708994708997 80.42328042328043,29.20634920634921 81.05820105820106,29.20634920634921 81.6931216931217,29.41798941798942 82.32804232804233,29.41798941798942 82.96296296296298,29.41798941798942 83.59788359788361,29.629629629629633 84.23280423280424,29.629629629629633 84.86772486772487,29.629629629629633 85.5026455026455,29.629629629629633 86.13756613756614,29.629629629629633 86.77248677248677,29.629629629629633 87.40740740740742,29.629629629629633 88.04232804232805,29.41798941798942 88.67724867724868,29.41798941798942 89.31216931216932,29.41798941798942 89.94708994708995,29.41798941798942 90.58201058201058,29.20634920634921 91.21693121693123,28.994708994708997 91.85185185185186,28.783068783068785 92.4867724867725,28.571428571428573 93.12169312169313,28.35978835978836 93.75661375661376,28.14814814814815 94.39153439153439,27.93650793650794 95.02645502645504,27.724867724867728 95.66137566137567,27.513227513227516 96.2962962962963,27.089947089947092 96.93121693121694,26.87830687830688 97.56613756613757,26.666666666666668 98.2010582010582,26.455026455026456 98.83597883597885,26.031746031746035 99.47089947089948,25.820105820105823 100.10582010582011,25.3968253968254 100.74074074074075,25.185185185185187 101.37566137566138,24.761904761904763 102.01058201058201,24.338624338624342 102.64550264550266,24.12698412698413 103.28042328042329,23.703703703703706 103.91534391534393,23.492063492063494 104.55026455026456,23.06878306878307 105.18518518518519,22.857142857142858 105.82010582010582,22.433862433862437 106.45502645502647,22.222222222222225 107.0899470899471,22.010582010582013 107.51322751322752,21.58730158730159 108.14814814814815,21.375661375661377 108.78306878306879,21.164021164021165 109.41798941798943,20.952380952380953 110.05291005291006,20.740740740740744 110.6878306878307,20.31746031746032 111.32275132275133,20.105820105820108 111.95767195767196,19.682539682539684 112.5925925925926,19.47089947089947 113.22751322751324,19.25925925925926 113.86243386243387,19.047619047619047 114.49735449735451,18.83597883597884 115.13227513227514,18.412698412698415 115.76719576719577,18.201058201058203 116.4021164021164,17.77777777777778 117.03703703703705,17.566137566137566 117.67195767195768,17.354497354497354 118.0952380952381,16.931216931216934 118.73015873015873,16.931216931216934 119.15343915343917,16.50793650793651 119.7883597883598,16.296296296296298 121.05820105820106,15.238095238095239 120.63492063492065,15.661375661375663 121.26984126984128,15.873015873015873 121.6931216931217,15.449735449735451 122.32804232804234,15.238095238095239 122.96296296296298,15.026455026455027 123.59788359788361,14.814814814814817 124.23280423280424,14.391534391534393 124.86772486772487,14.17989417989418 125.5026455026455,13.96825396825397 126.13756613756615,13.544973544973546 126.77248677248679,13.333333333333334 127.40740740740742,13.121693121693122 128.04232804232805,12.910052910052912 128.67724867724868,12.6984126984127 129.31216931216932,12.275132275132275 129.94708994708995,12.063492063492065 130.58201058201058,11.851851851851853 131.21693121693121,11.640211640211641 131.85185185185185,11.216931216931219 132.4867724867725,11.005291005291006 133.12169312169314,10.793650793650794 133.75661375661377,10.582010582010582 134.3915343915344,10.370370370370372 137.14285714285717,9.312169312169313" style="fill:none; stroke:#cc0000; stroke-width:1.0"  /><polyline points="137.14285714285717,9.312169312169313 137.35449735449737,12.275132275132275 137.35449735449737,12.910052910052912 137.35449735449737,13.544973544973546 137.35449735449737,14.17989417989418 137.35449735449737,14.814814814814817 137.56613756613757,15.449735449735451 137.56613756613757,16.084656084656086 137.56613756613757,16.71957671957672 137.56613756613757,17.354497354497354 137.56613756613757,17.98941798941799 137.7777777777778,18.624338624338627 137.7777777777778,19.25925925925926 137.989417989418,19.894179894179896 137.989417989418,20.529100529100532 138.2010582010582,21.164021164021165 138.41269841269843,21.7989417989418 138.41269841269843,22.433862433862437 138.83597883597884,23.06878306878307 138.83597883597884,23.703703703703706 139.04761904761907,24.338624338624342 139.25925925925927,24.973544973544975 139.47089947089947,25.60846560846561 139.8941798941799,26.243386243386244 140.10582010582013,26.87830687830688 140.31746031746033,27.513227513227516 140.52910052910053,28.14814814814815 140.95238095238096,28.783068783068785 141.3756613756614,29.41798941798942 141.5873015873016,30.052910052910054 142.01058201058203,30.68783068783069 142.43386243386246,31.111111111111114 142.85714285714286,31.746031746031747 143.2804232804233,32.38095238095239 143.70370370370372,33.01587301587302 144.12698412698413,33.65079365079365 144.55026455026456,34.074074074074076 144.973544973545,34.70899470899471 145.39682539682542,35.34391534391535 145.82010582010582,35.76719576719577 146.24338624338625,36.19047619047619 146.66666666666669,36.613756613756614 147.0899470899471,37.248677248677254 147.72486772486775,37.67195767195768 148.35978835978838,38.095238095238095 148.99470899470901,38.30687830687831 149.62962962962965,38.730158730158735 150.26455026455028,38.94179894179894 150.8994708994709,38.94179894179894 151.53439153439155,38.94179894179894 152.16931216931218,39.15343915343916 152.8042328042328,38.94179894179894 153.43915343915344,39.15343915343916 154.07407407407408,39.15343915343916 154.4973544973545,38.730158730158735 155.13227513227514,38.730158730158735 155.76719576719577,38.51851851851852 156.4021164021164,38.30687830687831 157.03703703703704,37.883597883597886 157.67195767195767,37.46031746031746 158.0952380952381,37.03703703703704 158.51851851851853,36.613756613756614 158.94179894179896,36.19047619047619 159.36507936507937,35.76719576719577 159.7883597883598,35.13227513227513 160.21164021164023,34.70899470899471 160.63492063492066,34.074074074074076 161.05820105820106,33.43915343915344 161.4814814814815,32.804232804232804 161.90476190476193,32.16931216931217 162.32804232804233,31.746031746031747 162.75132275132276,31.111111111111114 162.75132275132276,30.476190476190478 163.1746031746032,30.052910052910054 163.59788359788362,29.629629629629633 164.02116402116403,29.20634920634921 164.44444444444446,28.571428571428573 164.8677248677249,28.14814814814815 165.2910052910053,27.513227513227516 165.71428571428572,27.089947089947092 166.34920634920636,26.666666666666668 166.7724867724868,26.243386243386244 167.40740740740742,25.820105820105823 168.04232804232805,25.3968253968254 168.67724867724868,25.185185185185187 169.10052910052912,24.761904761904763 169.73544973544975,24.761904761904763 170.37037037037038,24.55026455026455 171.005291005291,24.55026455026455 171.42857142857144,24.12698412698413 172.06349206349208,24.12698412698413 172.6984126984127,24.12698412698413 173.33333333333334,24.338624338624342 173.96825396825398,24.338624338624342 174.3915343915344,24.761904761904763 175.02645502645504,24.973544973544975 175.66137566137567,25.3968253968254 176.2962962962963,25.820105820105823 176.93121693121694,26.031746031746035 177.35449735449737,26.455026455026456 177.989417989418,26.87830687830688 178.41269841269843,27.301587301587304 178.83597883597884,27.724867724867728 179.4708994708995,28.14814814814815 179.8941798941799,28.571428571428573 180.31746031746033,29.20634920634921 180.74074074074076,29.629629629629633 181.16402116402116,30.052910052910054 181.5873015873016,30.476190476190478 182.01058201058203,30.899470899470902 182.43386243386246,31.322751322751326 182.85714285714286,31.95767195767196 183.0687830687831,32.592592592592595 183.4920634920635,33.01587301587302 183.91534391534393,33.65079365079365 184.12698412698415,34.28571428571429 184.55026455026456,34.920634920634924 184.7619047619048,35.55555555555556 184.973544973545,36.19047619047619 185.39682539682542,36.82539682539683 185.60846560846562,37.46031746031746 185.82010582010582,38.095238095238095 186.03174603174605,38.730158730158735 186.45502645502646,39.36507936507937 186.66666666666669,40.0 186.8783068783069,40.63492063492064 187.08994708994712,41.26984126984127 187.30158730158732,41.904761904761905 187.51322751322752,42.539682539682545 187.72486772486775,43.17460317460318 187.93650793650795,43.80952380952381 188.14814814814815,44.44444444444445 188.14814814814815,45.07936507936508 188.35978835978838,45.714285714285715 188.57142857142858,46.349206349206355 188.57142857142858,46.98412698412699 188.78306878306879,47.61904761904762 188.78306878306879,48.25396825396826 188.99470899470901,48.88888888888889 188.99470899470901,49.523809523809526 189.20634920634922,50.158730158730165 189.20634920634922,50.7936507936508 189.20634920634922,51.42857142857143 189.20634920634922,52.06349206349207 189.20634920634922,52.6984126984127 189.20634920634922,53.333333333333336 189.20634920634922,53.968253968253975 189.20634920634922,54.60317460317461 189.20634920634922,55.23809523809524 189.20634920634922,55.87301587301588 189.20634920634922,56.50793650793651 189.20634920634922,57.142857142857146 189.20634920634922,57.777777777777786 189.20634920634922,58.41269841269842 188.99470899470901,59.04761904761905 188.99470899470901,59.682539682539684 188.78306878306879,60.31746031746032 188.35978835978838,60.952380952380956 188.14814814814815,61.58730158730159 187.93650793650795,62.22222222222223 187.51322751322752,62.85714285714286 187.08994708994712,63.492063492063494 186.66666666666669,63.91534391534392 186.24338624338625,64.33862433862434 185.82010582010582,64.76190476190477 185.39682539682542,65.18518518518519 184.973544973545,65.60846560846561 184.33862433862436,65.82010582010582 183.70370370370372,66.24338624338625 183.0687830687831,66.45502645502646 182.43386243386246,66.66666666666667 181.79894179894183,66.87830687830689 181.16402116402116,67.08994708994709 180.52910052910053,67.3015873015873 179.8941798941799,67.3015873015873 179.25925925925927,67.3015873015873 178.62433862433863,67.51322751322752 177.989417989418,67.3015873015873 177.35449735449737,67.3015873015873 176.71957671957674,67.08994708994709 176.0846560846561,66.87830687830689 175.44973544973547,66.87830687830689 174.81481481481484,66.66666666666667 174.1798941798942,66.45502645502646 173.54497354497354,66.24338624338625 172.9100529100529,66.03174603174604 172.27513227513228,65.82010582010582 171.64021164021165,65.82010582010582 171.005291005291,65.60846560846561 170.37037037037038,65.60846560846561 169.73544973544975,65.3968253968254 169.10052910052912,65.18518518518519 168.46560846560848,64.97354497354497 167.83068783068785,64.97354497354497 167.19576719576722,64.76190476190477 166.56084656084658,64.76190476190477 165.92592592592595,64.55026455026456 165.2910052910053,64.55026455026456 164.65608465608466,64.55026455026456 164.02116402116403,64.55026455026456 163.3862433862434,64.76190476190477 162.75132275132276,64.97354497354497 162.11640211640213,64.97354497354497 161.4814814814815,65.18518518518519 160.84656084656086,65.3968253968254 160.42328042328043,65.82010582010582 159.7883597883598,66.03174603174604 159.15343915343917,66.45502645502646 158.73015873015873,66.87830687830689 158.30687830687833,67.3015873015873 157.8835978835979,67.93650793650794 157.67195767195767,68.57142857142858 157.24867724867727,68.994708994709 157.03703703703704,69.62962962962963 156.82539682539684,70.26455026455027 156.61375661375664,70.8994708994709 156.4021164021164,71.53439153439155 156.4021164021164,72.16931216931218 156.4021164021164,72.80423280423281 156.4021164021164,73.43915343915344 156.4021164021164,74.07407407407408 156.4021164021164,74.70899470899471 156.4021164021164,75.34391534391536 156.61375661375664,75.97883597883599 156.61375661375664,76.61375661375662 156.82539682539684,77.24867724867725 157.03703703703704,77.88359788359789 157.24867724867727,78.51851851851852 157.46031746031747,79.15343915343917 157.8835978835979,79.7883597883598 158.0952380952381,80.42328042328043 158.51851851851853,81.05820105820106 158.73015873015873,81.6931216931217 158.94179894179896,82.32804232804233 159.15343915343917,82.96296296296298 159.36507936507937,83.59788359788361 159.5767195767196,84.23280423280424 160.0,84.86772486772487 160.21164021164023,85.5026455026455 160.42328042328043,86.13756613756614 160.63492063492066,86.77248677248677 160.84656084656086,87.40740740740742 161.05820105820106,88.04232804232805 161.2698412698413,88.67724867724868 161.4814814814815,89.31216931216932 161.6931216931217,89.94708994708995 161.90476190476193,90.58201058201058 162.11640211640213,91.21693121693123 162.32804232804233,91.85185185185186 162.53968253968256,92.4867724867725 162.53968253968256,93.12169312169313 162.75132275132276,93.75661375661376 162.96296296296296,94.39153439153439 163.1746031746032,95.02645502645504 163.3862433862434,95.66137566137567 163.59788359788362,96.2962962962963 163.59788359788362,96.93121693121694 163.80952380952382,97.56613756613757 164.02116402116403,98.2010582010582 164.23280423280426,98.83597883597885 164.23280423280426,99.47089947089948 165.0793650793651,102.64550264550266" style="fill:none; stroke:#999900; stroke-width:1.0"  /><polyline points="165.0793650793651,102.64550264550266 161.90476190476193,104.12698412698414 161.2698412698413,104.33862433862434 160.63492063492066,104.55026455026456 160.0,104.97354497354497 159.36507936507937,105.18518518518519 158.73015873015873,105.3968253968254 158.0952380952381,105.82010582010582 157.46031746031747,106.03174603174604 156.82539682539684,106.24338624338625 156.1904761904762,106.66666666666667 155.55555555555557,106.87830687830689 154.92063492063494,107.3015873015873 154.2857142857143,107.51322751322752 153.65079365079367,107.93650793650795 153.01587301587304,108.14814814814815 152.38095238095238,108.57142857142858 151.74603174603175,108.78306878306879 151.11111111111111,109.20634920634922 150.47619047619048,109.41798941798943 149.84126984126985,109.62962962962963 149.20634920634922,110.05291005291006 148.57142857142858,110.26455026455027 147.93650793650795,110.6878306878307 147.30158730158732,111.11111111111111 146.66666666666669,111.53439153439155 146.03174603174605,111.95767195767196 145.39682539682542,112.16931216931218 144.76190476190476,112.5925925925926 144.12698412698413,113.01587301587303 143.4920634920635,113.22751322751324 143.0687830687831,113.65079365079366 142.43386243386246,114.07407407407408 141.7989417989418,114.28571428571429 141.16402116402116,114.70899470899472 140.52910052910053,115.13227513227514 139.8941798941799,115.55555555555557 139.25925925925927,115.76719576719577 138.83597883597884,116.1904761904762 138.2010582010582,116.4021164021164 137.7777777777778,116.82539682539684 137.14285714285717,117.24867724867725 136.71957671957674,117.67195767195768 136.0846560846561,117.88359788359789 135.44973544973547,118.30687830687832 134.81481481481484,118.73015873015873 134.17989417989418,119.15343915343917 133.54497354497354,119.36507936507937 132.9100529100529,119.7883597883598 132.27513227513228,120.21164021164022 131.64021164021165,120.63492063492065 131.005291005291,121.05820105820106 130.37037037037038,121.26984126984128 129.73544973544975,121.6931216931217 129.10052910052912,122.11640211640213 128.46560846560848,122.32804232804234 127.83068783068784,122.75132275132276 127.1957671957672,123.17460317460318 126.56084656084657,123.3862433862434 126.13756613756615,123.80952380952382 125.5026455026455,124.02116402116403 124.86772486772487,124.44444444444446 124.23280423280424,124.65608465608466 123.80952380952382,125.07936507936509 123.17460317460318,125.5026455026455 122.53968253968254,125.71428571428572 121.90476190476191,126.13756613756615 121.26984126984128,126.34920634920636 120.84656084656086,126.77248677248679 120.21164021164022,126.98412698412699 119.7883597883598,127.40740740740742 119.15343915343917,127.61904761904763 118.51851851851853,128.04232804232805 117.88359788359789,128.25396825396825 117.46031746031747,128.67724867724868 116.82539682539684,128.88888888888889 116.1904761904762,129.31216931216932 115.55555555555557,129.52380952380955 114.92063492063492,129.94708994708995 114.28571428571429,130.15873015873018 113.65079365079366,130.37037037037038 113.65079365079366,131.005291005291 113.01587301587303,131.005291005291 112.3809523809524,131.005291005291 111.74603174603176,131.21693121693121 111.11111111111111,131.42857142857144 110.47619047619048,131.64021164021165 109.84126984126985,131.64021164021165 109.20634920634922,131.64021164021165 108.57142857142858,131.64021164021165 107.93650793650795,131.64021164021165 107.3015873015873,131.64021164021165 106.66666666666667,131.42857142857144 106.03174603174604,131.21693121693121 105.3968253968254,130.7936507936508 104.76190476190477,130.37037037037038 104.33862433862434,129.94708994708995 103.91534391534393,129.52380952380955 103.70370370370371,128.88888888888889 103.4920634920635,128.25396825396825 103.28042328042329,127.61904761904763 103.06878306878308,126.98412698412699 103.06878306878308,126.34920634920636 102.85714285714286,125.71428571428572 102.85714285714286,125.07936507936509 102.85714285714286,124.44444444444446 102.85714285714286,123.80952380952382 102.85714285714286,123.17460317460318 102.85714285714286,122.53968253968254 102.85714285714286,121.90476190476191 102.85714285714286,121.26984126984128 102.85714285714286,120.63492063492065 102.85714285714286,120.00000000000001 102.85714285714286,119.36507936507937 102.85714285714286,118.73015873015873 102.85714285714286,118.0952380952381 102.85714285714286,117.46031746031747 102.85714285714286,116.82539682539684 102.85714285714286,116.1904761904762 102.64550264550266,115.55555555555557 102.64550264550266,114.92063492063492 102.43386243386244,114.28571428571429 102.43386243386244,113.65079365079366 102.43386243386244,113.01587301587303 102.22222222222223,112.3809523809524 102.01058201058201,111.74603174603176 101.5873015873016,111.11111111111111 101.37566137566138,110.47619047619048 101.16402116402116,109.84126984126985 100.74074074074075,109.20634920634922 100.31746031746033,108.57142857142858 99.8941798941799,107.93650793650795 99.47089947089948,107.51322751322752 99.04761904761905,106.87830687830689 98.62433862433863,106.45502645502647 98.2010582010582,106.03174603174604 97.56613756613757,105.60846560846562 96.93121693121694,105.3968253968254 96.2962962962963,104.97354497354497 95.66137566137567,104.76190476190477 95.02645502645504,104.76190476190477 94.39153439153439,104.55026455026456 93.75661375661376,104.55026455026456 93.12169312169313,104.55026455026456 92.4867724867725,104.55026455026456 91.85185185185186,104.55026455026456 91.21693121693123,104.55026455026456 90.58201058201058,104.76190476190477 89.94708994708995,104.76190476190477 89.31216931216932,104.97354497354497 88.67724867724868,104.97354497354497 88.04232804232805,105.18518518518519 87.40740740740742,105.18518518518519 86.77248677248677,105.3968253968254 86.13756613756614,105.60846560846562 85.5026455026455,105.60846560846562 84.86772486772487,105.82010582010582 84.23280423280424,106.03174603174604 83.59788359788361,106.03174603174604 82.96296296296298,106.45502645502647 82.32804232804233,106.66666666666667 81.6931216931217,106.87830687830689 81.05820105820106,107.0899470899471 80.42328042328043,107.3015873015873 79.7883597883598,107.51322751322752 79.15343915343917,107.72486772486774 78.51851851851852,108.14814814814815 77.88359788359789,108.35978835978837 77.24867724867725,108.57142857142858 76.61375661375662,108.994708994709 75.97883597883599,109.20634920634922 75.34391534391536,109.62962962962963 74.70899470899471,109.84126984126985 74.07407407407408,110.05291005291006 73.43915343915344,110.47619047619048 72.80423280423281,110.6878306878307 72.16931216931218,111.11111111111111 71.53439153439155,111.53439153439155 70.8994708994709,111.95767195767196 70.26455026455027,112.16931216931218 69.62962962962963,112.5925925925926 68.994708994709,112.80423280423281 68.57142857142858,113.22751322751324 67.93650793650794,113.43915343915344 67.51322751322752,113.86243386243387 67.08994708994709,114.28571428571429 66.66666666666667,114.70899470899472 66.03174603174604,115.13227513227514 65.3968253968254,115.55555555555557 64.76190476190477,115.97883597883599 64.33862433862434,116.4021164021164 63.70370370370371,116.82539682539684 63.06878306878308,117.24867724867725 62.64550264550265,117.67195767195768 62.22222222222223,118.0952380952381 61.798941798941804,118.51851851851853 61.16402116402117,118.94179894179895 60.74074074074075,119.36507936507937 60.31746031746032,119.7883597883598 59.8941798941799,120.21164021164022 59.470899470899475,120.63492063492065 59.04761904761905,121.05820105820106 58.62433862433863,121.4814814814815 58.2010582010582,122.11640211640213 57.777777777777786,122.53968253968254 57.35449735449736,123.17460317460318 56.93121693121694,123.59788359788361 56.50793650793651,124.23280423280424 56.08465608465609,124.86772486772487 55.87301587301588,125.5026455026455 55.449735449735456,126.13756613756615 55.23809523809524,126.77248677248679 55.02645502645503,127.40740740740742 54.81481481481482,128.04232804232805 54.60317460317461,128.67724867724868 54.39153439153439,129.31216931216932 54.39153439153439,129.94708994708995 54.39153439153439,130.58201058201058 54.39153439153439,131.21693121693121 54.39153439153439,131.85185185185185 54.39153439153439,132.4867724867725 54.60317460317461,133.12169312169314 54.60317460317461,133.75661375661377 54.81481481481482,134.3915343915344 55.23809523809524,135.02645502645504 55.449735449735456,135.66137566137567 55.87301587301588,136.0846560846561 56.2962962962963,136.71957671957674 56.71957671957672,137.35449735449737 57.142857142857146,137.7777777777778 57.56613756613757,138.41269841269843 57.989417989417994,138.83597883597884 58.41269841269842,139.25925925925927 58.83597883597884,139.6825396825397 59.470899470899475,140.10582010582013 60.10582010582011,140.52910052910053 60.74074074074075,140.95238095238096 61.16402116402117,141.3756613756614 61.798941798941804,141.5873015873016 62.43386243386244,142.01058201058203 63.06878306878308,142.22222222222223 63.70370370370371,142.64550264550266 64.33862433862434,142.85714285714286 64.97354497354497,143.0687830687831 65.60846560846561,143.2804232804233 66.24338624338625,143.70370370370372 66.87830687830689,143.91534391534393 67.51322751322752,143.91534391534393 68.14814814814815,144.33862433862436 68.78306878306879,144.55026455026456 69.41798941798942,144.973544973545 70.05291005291006,145.1851851851852 70.6878306878307,145.39682539682542 71.11111111111111,145.82010582010582 71.53439153439155,146.24338624338625 71.95767195767196,146.66666666666669 72.38095238095238,147.0899470899471 72.80423280423281,147.51322751322752 73.22751322751323,147.93650793650795 73.65079365079366,148.35978835978838 74.07407407407408,148.99470899470901 74.28571428571429,149.62962962962965 74.49735449735451,150.26455026455028 74.70899470899471,150.8994708994709 74.92063492063492,151.53439153439155 74.92063492063492,152.16931216931218 74.92063492063492,152.8042328042328 74.70899470899471,153.43915343915344 74.49735449735451,154.07407407407408 74.28571428571429,154.7089947089947 73.86243386243387,155.13227513227514 73.43915343915344,155.55555555555557 73.01587301587303,155.978835978836 72.5925925925926,156.4021164021164 71.95767195767196,156.61375661375664 71.32275132275133,157.03703703703704 70.6878306878307,157.46031746031747 70.05291005291006,157.67195767195767 69.41798941798942,157.8835978835979 68.78306878306879,158.0952380952381 68.14814814814815,158.51851851851853 67.51322751322752,158.73015873015873 67.08994708994709,159.15343915343917 66.45502645502646,159.15343915343917 65.82010582010582,159.36507936507937 65.18518518518519,159.5767195767196 64.55026455026456,159.7883597883598 63.91534391534392,160.0 63.280423280423285,160.21164021164023 62.64550264550265,160.21164021164023 62.01058201058201,160.42328042328043 61.37566137566138,160.63492063492066 60.74074074074075,160.84656084656086 60.10582010582011,160.84656084656086 59.470899470899475,161.05820105820106 58.83597883597884,161.2698412698413 58.2010582010582,161.2698412698413 57.56613756613757,161.4814814814815 56.93121693121694,161.6931216931217 56.2962962962963,161.90476190476193 55.661375661375665,161.90476190476193 55.02645502645503,162.11640211640213 54.39153439153439,162.32804232804233 53.75661375661376,162.32804232804233 53.12169312169313,162.53968253968256 52.48677248677249,162.75132275132276 51.851851851851855,162.75132275132276 51.21693121693122,162.96296296296296 50.58201058201058,163.1746031746032 49.94708994708995,163.1746031746032 49.31216931216932,163.3862433862434 48.677248677248684,163.59788359788362 48.042328042328045,163.80952380952382 47.40740740740741,163.80952380952382 46.77248677248678,164.02116402116403 46.13756613756614,164.23280423280426 45.50264550264551,164.23280423280426 44.867724867724874,164.44444444444446 44.232804232804234,164.65608465608466 43.5978835978836,164.65608465608466 42.96296296296297,164.8677248677249 42.32804232804233,165.0793650793651 41.6931216931217,165.0793650793651 41.058201058201064,165.2910052910053 40.423280423280424,165.50264550264552 39.78835978835979,165.50264550264552 39.15343915343916,165.71428571428572 38.51851851851852,165.92592592592595 37.883597883597886,166.13756613756615 37.248677248677254,166.13756613756615 36.613756613756614,166.34920634920636 35.97883597883598,166.56084656084658 35.34391534391535,166.7724867724868 34.70899470899471,166.7724867724868 34.074074074074076,166.984126984127 33.43915343915344,167.19576719576722 32.804232804232804,167.19576719576722 32.16931216931217,167.61904761904762 31.53439153439154,167.83068783068785 30.899470899470902,168.04232804232805 30.264550264550266,168.25396825396825 29.629629629629633,168.25396825396825 28.994708994708997,168.46560846560848 28.35978835978836,168.67724867724868 24.973544973544975,169.52380952380955" style="fill:none; stroke:#00aa99; stroke-width:1.0"  /><polyline points="24.973544973544975,169.52380952380955 23.492063492063494,166.34920634920636 23.280423280423282,165.71428571428572 22.857142857142858,165.2910052910053 22.645502645502646,164.65608465608466 22.433862433862437,164.02116402116403 22.010582010582013,163.3862433862434 21.7989417989418,162.75132275132276 21.375661375661377,162.11640211640213 21.164021164021165,161.4814814814815 20.952380952380953,160.84656084656086 20.529100529100532,160.21164021164023 20.31746031746032,159.5767195767196 20.105820105820108,158.94179894179896 19.682539682539684,158.30687830687833 19.47089947089947,157.67195767195767 19.25925925925926,157.03703703703704 19.047619047619047,156.4021164021164 18.83597883597884,155.76719576719577 18.624338624338627,155.13227513227514 18.201058201058203,154.4973544973545 18.201058201058203,153.86243386243387 17.77777777777778,153.22751322751324 17.566137566137566,152.5925925925926 17.354497354497354,151.95767195767198 17.142857142857146,151.32275132275134 17.142857142857146,150.6878306878307 16.71957671957672,150.05291005291005 16.50793650793651,149.41798941798942 16.50793650793651,148.78306878306879 16.296296296296298,148.14814814814815 16.084656084656086,147.51322751322752 15.873015873015873,146.8783068783069 15.661375661375663,146.24338624338625 15.661375661375663,145.60846560846562 15.449735449735451,144.973544973545 15.238095238095239,144.33862433862436 15.238095238095239,143.70370370370372 15.026455026455027,143.0687830687831 15.026455026455027,142.43386243386246 14.814814814814817,141.7989417989418 14.603174603174605,141.16402116402116 14.603174603174605,140.52910052910053 14.391534391534393,139.8941798941799 14.391534391534393,139.25925925925927 14.17989417989418,138.62433862433863 14.17989417989418,137.989417989418 14.17989417989418,137.35449735449737 13.96825396825397,136.71957671957674 13.96825396825397,136.0846560846561 13.544973544973546,135.66137566137567 13.544973544973546,135.02645502645504 13.544973544973546,134.3915343915344 13.544973544973546,133.75661375661377 13.333333333333334,133.12169312169314 13.333333333333334,132.4867724867725 13.333333333333334,131.85185185185185 13.333333333333334,131.21693121693121 13.121693121693122,130.58201058201058 13.121693121693122,129.94708994708995 13.121693121693122,129.31216931216932 13.121693121693122,128.67724867724868 13.121693121693122,128.04232804232805 13.121693121693122,127.40740740740742 13.121693121693122,126.77248677248679 13.121693121693122,126.13756613756615 13.121693121693122,125.5026455026455 13.121693121693122,124.86772486772487 13.121693121693122,124.23280423280424 13.121693121693122,123.59788359788361 13.333333333333334,122.96296296296298 13.333333333333334,122.32804232804234 13.544973544973546,121.6931216931217 13.544973544973546,121.05820105820106 13.756613756613758,120.42328042328043 13.96825396825397,119.7883597883598 14.17989417989418,119.15343915343917 14.603174603174605,118.73015873015873 15.026455026455027,118.0952380952381 15.449735449735451,117.67195767195768 15.873015873015873,117.24867724867725 16.296296296296298,116.82539682539684 16.931216931216934,116.61375661375662 17.566137566137566,116.4021164021164 18.201058201058203,115.97883597883599 18.83597883597884,115.76719576719577 19.47089947089947,115.55555555555557 20.105820105820108,115.55555555555557 20.740740740740744,115.55555555555557 21.375661375661377,115.55555555555557 22.010582010582013,115.55555555555557 22.645502645502646,115.55555555555557 23.280423280423282,115.55555555555557 23.915343915343918,115.55555555555557 24.55026455026455,115.55555555555557 25.185185185185187,115.76719576719577 25.820105820105823,115.76719576719577 26.455026455026456,115.97883597883599 27.089947089947092,115.76719576719577 27.724867724867728,115.97883597883599 28.35978835978836,115.97883597883599 28.994708994708997,115.97883597883599 29.41798941798942,116.4021164021164 30.052910052910054,116.4021164021164 30.68783068783069,116.1904761904762 31.322751322751326,116.1904761904762 31.95767195767196,116.1904761904762 32.592592592592595,115.97883597883599 33.22751322751323,115.76719576719577 33.86243386243387,115.55555555555557 34.4973544973545,115.34391534391536 35.13227513227513,115.13227513227514 35.76719576719577,114.70899470899472 36.402116402116405,114.49735449735451 37.03703703703704,114.07407407407408 37.67195767195768,113.65079365079366 38.30687830687831,113.22751322751324 38.730158730158735,112.80423280423281 39.15343915343916,112.3809523809524 39.78835978835979,111.95767195767196 40.211640211640216,111.32275132275133 40.63492063492064,110.89947089947091 41.058201058201064,110.26455026455027 41.48148148148149,109.62962962962963 41.48148148148149,108.994708994709 41.904761904761905,108.57142857142858 42.11640211640212,107.93650793650795 42.32804232804233,107.3015873015873 42.539682539682545,106.66666666666667 42.75132275132275,106.03174603174604 42.96296296296297,105.3968253968254 42.96296296296297,104.76190476190477 43.17460317460318,104.12698412698414 43.17460317460318,103.4920634920635 43.17460317460318,102.85714285714286 43.17460317460318,102.22222222222223 43.17460317460318,101.5873015873016 42.96296296296297,100.95238095238096 42.96296296296297,100.31746031746033 42.75132275132275,99.68253968253968 42.75132275132275,99.04761904761905 42.75132275132275,98.41269841269842 42.75132275132275,97.77777777777779 42.75132275132275,97.14285714285715 42.539682539682545,96.50793650793652 42.539682539682545,95.87301587301587 42.32804232804233,95.23809523809524 42.32804232804233,94.60317460317461 42.11640211640212,93.96825396825398 42.11640211640212,93.33333333333334 42.11640211640212,92.69841269841271 41.904761904761905,92.06349206349208 41.6931216931217,91.42857142857143 41.48148148148149,90.7936507936508 41.058201058201064,90.15873015873017 40.84656084656085,89.52380952380953 40.63492063492064,88.8888888888889 40.211640211640216,88.25396825396827 40.0,87.61904761904762 39.57671957671958,86.98412698412699 39.36507936507937,86.34920634920636 38.94179894179894,85.71428571428572 38.730158730158735,85.07936507936509 38.30687830687831,84.44444444444446 38.095238095238095,83.80952380952381 37.883597883597886,83.17460317460318 37.67195767195768,82.53968253968254 37.248677248677254,81.90476190476191 37.03703703703704,81.26984126984128 36.613756613756614,80.63492063492065 36.402116402116405,80.0 35.97883597883598,79.57671957671958 35.76719576719577,78.94179894179895 35.34391534391535,78.30687830687832 34.920634920634924,77.67195767195767 34.4973544973545,77.03703703703704 34.074074074074076,76.4021164021164 33.65079365079365,75.76719576719577 33.22751322751323,75.13227513227514 32.804232804232804,74.49735449735451 32.38095238095239,74.07407407407408 31.95767195767196,73.65079365079366 31.322751322751326,73.22751322751323 30.899470899470902,72.5925925925926 30.476190476190478,72.16931216931218 30.052910052910054,71.74603174603175 29.629629629629633,71.32275132275133 28.994708994708997,70.8994708994709 28.571428571428573,70.47619047619048 28.14814814814815,70.05291005291006 27.513227513227516,69.84126984126985 26.87830687830688,69.62962962962963 26.243386243386244,69.62962962962963 25.60846560846561,69.41798941798942 24.973544973544975,69.41798941798942 24.338624338624342,69.41798941798942 23.703703703703706,69.41798941798942 23.06878306878307,69.62962962962963 22.433862433862437,70.05291005291006 21.7989417989418,70.26455026455027 21.164021164021165,70.6878306878307 20.529100529100532,70.8994708994709 19.894179894179896,71.11111111111111 19.47089947089947,71.53439153439155 18.83597883597884,71.95767195767196 18.412698412698415,72.38095238095238 17.98941798941799,72.80423280423281 17.566137566137566,73.22751322751323 17.142857142857146,73.65079365079366 16.71957671957672,74.07407407407408 16.296296296296298,74.70899470899471 15.873015873015873,75.34391534391536 15.449735449735451,75.97883597883599 15.026455026455027,76.61375661375662 14.814814814814817,77.24867724867725 14.603174603174605,77.88359788359789 14.17989417989418,78.30687830687832 13.756613756613758,78.94179894179895 13.544973544973546,79.57671957671958 13.121693121693122,80.0 12.910052910052912,80.63492063492065 12.486772486772487,81.26984126984128 12.275132275132275,81.90476190476191 11.851851851851853,82.53968253968254 11.428571428571429,82.96296296296298 11.216931216931219,83.59788359788361 10.793650793650794,84.02116402116403 10.370370370370372,84.65608465608466 9.947089947089948,85.07936507936509 9.523809523809524,85.5026455026455 8.88888888888889,85.71428571428572 8.253968253968255,86.13756613756614 7.6190476190476195,86.34920634920636 6.984126984126985,86.56084656084657 6.34920634920635,86.56084656084657 5.714285714285714,86.56084656084657 5.07936507936508,86.56084656084657 4.444444444444445,86.56084656084657 3.8095238095238098,86.34920634920636 3.174603174603175,86.13756613756614 2.7513227513227516,85.71428571428572 2.1164021164021167,85.29100529100529 1.6931216931216932,84.65608465608466 1.4814814814814816,84.02116402116403 1.26984126984127,83.3862433862434 0.8465608465608466,82.75132275132276 0.8465608465608466,82.11640211640213 0.634920634920635,81.48148148148148 0.634920634920635,80.84656084656085 0.634920634920635,80.21164021164022 0.634920634920635,79.57671957671958 0.4232804232804233,78.94179894179895 0.4232804232804233,78.30687830687832 0.4232804232804233,77.67195767195767 0.4232804232804233,77.03703703703704 0.4232804232804233,76.4021164021164 0.4232804232804233,75.76719576719577 0.4232804232804233,75.13227513227514 0.4232804232804233,74.49735449735451 0.4232804232804233,73.86243386243387 0.4232804232804233,73.22751322751323 0.4232804232804233,72.5925925925926 0.4232804232804233,71.95767195767196 0.4232804232804233,71.32275132275133 0.4232804232804233,70.6878306878307 0.4232804232804233,70.05291005291006 0.4232804232804233,69.41798941798942 0.4232804232804233,68.78306878306879 0.4232804232804233,68.14814814814815 0.4232804232804233,67.51322751322752 0.4232804232804233,66.87830687830689 0.4232804232804233,66.24338624338625 0.21164021164021166,65.60846560846561 0.21164021164021166,64.97354497354497 0.21164021164021166,64.33862433862434 0.21164021164021166,63.70370370370371 0.21164021164021166,63.06878306878308 0.4232804232804233,62.43386243386244 0.4232804232804233,61.798941798941804 0.4232804232804233,61.16402116402117 0.4232804232804233,60.52910052910053 0.634920634920635,59.8941798941799 0.634920634920635,59.25925925925927 0.634920634920635,58.62433862433863 0.634920634920635,57.989417989417994 0.634920634920635,57.35449735449736 0.8465608465608466,56.71957671957672 0.8465608465608466,56.08465608465609 0.8465608465608466,55.449735449735456 0.8465608465608466,54.81481481481482 1.0582010582010584,54.179894179894184 1.0582010582010584,53.54497354497355 1.0582010582010584,52.91005291005291 1.26984126984127,49.1005291005291" style="fill:none; stroke:#3300bb; stroke-width:1.0"  /><circle cx="1.26984126984127" cy="49.1005291005291" r="2.0" style="fill:none; stroke:#000000aa; stroke-width:0.25" /><circle cx="137.14285714285717" cy="9.312169312169313" r="2.0" style="fill:none; stroke:#000000aa; stroke-width:0.25" /><circle cx="165.0793650793651" cy="102.64550264550266" r="2.0" style="fill:none; stroke:#000000aa; stroke-width:0.25" /><circle cx="24.973544973544975" cy="169.52380952380955" r="2.0" style="fill:none; stroke:#000000aa; stroke-width:0.25" /><circle cx="1.4814814814814816" cy="49.73544973544974" r="2.0" style="fill:none; stroke:#ff3366aa; stroke-width:0.25" /><circle cx="137.56613756613757" cy="9.312169312169313" r="2.0" style="fill:none; stroke:#ff3366aa; stroke-width:0.25" /><circle cx="165.0793650793651" cy="102.43386243386244" r="2.0" style="fill:none; stroke:#ff3366aa; stroke-width:0.25" /><circle cx="25.185185185185187" cy="169.10052910052912" r="2.0" style="fill:none; stroke:#ff3366aa; stroke-width:0.25" /><polyline points="12.063492063492065,45.50264550264551 11.428571428571429,45.50264550264551 10.793650793650794,45.92592592592593 10.15873015873016,46.13756613756614 9.523809523809524,46.349206349206355 8.88888888888889,46.560846560846564 8.253968253968255,46.77248677248678 7.6190476190476195,46.98412698412699 6.984126984126985,47.195767195767196 6.34920634920635,47.40740740740741 5.714285714285714,47.61904761904762 5.07936507936508,47.830687830687836 4.444444444444445,48.042328042328045" style="fill:none; stroke:#001100; stroke-width:1.0" /><polyline points="0.4232804232804233,61.16402116402117 0.4232804232804233,60.52910052910053 0.634920634920635,59.8941798941799 0.634920634920635,59.25925925925927 0.634920634920635,58.62433862433863 0.634920634920635,57.989417989417994 0.634920634920635,57.35449735449736 0.8465608465608466,56.71957671957672 0.8465608465608466,56.08465608465609 0.8465608465608466,55.449735449735456 0.8465608465608466,54.81481481481482 1.0582010582010584,54.179894179894184 1.0582010582010584,53.54497354497355 1.0582010582010584,52.91005291005291" style="fill:none; stroke:#000011; stroke-width:1.0" /><polyline points="138.2010582010582,21.164021164021165 137.989417989418,20.529100529100532 137.989417989418,19.894179894179896 137.7777777777778,19.25925925925926 137.7777777777778,18.624338624338627 137.56613756613757,17.98941798941799 137.56613756613757,17.354497354497354 137.56613756613757,16.71957671957672 137.56613756613757,16.084656084656086 137.56613756613757,15.449735449735451 137.35449735449737,14.814814814814817 137.35449735449737,14.17989417989418 137.35449735449737,13.544973544973546 137.35449735449737,12.910052910052912 137.35449735449737,12.275132275132275" style="fill:none; stroke:#001100; stroke-width:1.0" /><polyline points="126.77248677248679,13.333333333333334 127.40740740740742,13.121693121693122 128.04232804232805,12.910052910052912 128.67724867724868,12.6984126984127 129.31216931216932,12.275132275132275 129.94708994708995,12.063492063492065 130.58201058201058,11.851851851851853 131.21693121693121,11.640211640211641 131.85185185185185,11.216931216931219 132.4867724867725,11.005291005291006 133.12169312169314,10.793650793650794 133.75661375661377,10.582010582010582 134.3915343915344,10.370370370370372" style="fill:none; stroke:#000011; stroke-width:1.0" /><polyline points="154.2857142857143,107.51322751322752 154.92063492063494,107.3015873015873 155.55555555555557,106.87830687830689 156.1904761904762,106.66666666666667 156.82539682539684,106.24338624338625 157.46031746031747,106.03174603174604 158.0952380952381,105.82010582010582 158.73015873015873,105.3968253968254 159.36507936507937,105.18518518518519 160.0,104.97354497354497 160.63492063492066,104.55026455026456 161.2698412698413,104.33862433862434 161.90476190476193,104.12698412698414" style="fill:none; stroke:#001100; stroke-width:1.0" /><polyline points="162.11640211640213,91.21693121693123 162.32804232804233,91.85185185185186 162.53968253968256,92.4867724867725 162.53968253968256,93.12169312169313 162.75132275132276,93.75661375661376 162.96296296296296,94.39153439153439 163.1746031746032,95.02645502645504 163.3862433862434,95.66137566137567 163.59788359788362,96.2962962962963 163.59788359788362,96.93121693121694 163.80952380952382,97.56613756613757 164.02116402116403,98.2010582010582 164.23280423280426,98.83597883597885 164.23280423280426,99.47089947089948" style="fill:none; stroke:#000011; stroke-width:1.0" /><polyline points="20.105820105820108,158.94179894179896 20.31746031746032,159.5767195767196 20.529100529100532,160.21164021164023 20.952380952380953,160.84656084656086 21.164021164021165,161.4814814814815 21.375661375661377,162.11640211640213 21.7989417989418,162.75132275132276 22.010582010582013,163.3862433862434 22.433862433862437,164.02116402116403 22.645502645502646,164.65608465608466 22.857142857142858,165.2910052910053 23.280423280423282,165.71428571428572 23.492063492063494,166.34920634920636" style="fill:none; stroke:#001100; stroke-width:1.0" /><polyline points="36.613756613756614,166.34920634920636 35.97883597883598,166.56084656084658 35.34391534391535,166.7724867724868 34.70899470899471,166.7724867724868 34.074074074074076,166.984126984127 33.43915343915344,167.19576719576722 32.804232804232804,167.19576719576722 32.16931216931217,167.61904761904762 31.53439153439154,167.83068783068785 30.899470899470902,168.04232804232805 30.264550264550266,168.25396825396825 29.629629629629633,168.25396825396825 28.994708994708997,168.46560846560848 28.35978835978836,168.67724867724868" style="fill:none; stroke:#000011; stroke-width:1.0" /><polyline points="4.444444444444445,48.042328042328045 -15.661375661375663,54.81481481481482" style="fill:none; stroke:#ffaa00; stroke-width:0.4" /><polyline points="1.0582010582010584,52.91005291005291 2.7513227513227516,31.746031746031747" style="fill:none; stroke:#aaff00; stroke-width:0.4" /><polyline points="137.35449735449737,12.275132275132275 135.44973544973547,-8.88888888888889" style="fill:none; stroke:#ffaa00; stroke-width:0.4" /><polyline points="134.3915343915344,10.370370370370372 154.07407407407408,2.7513227513227516" style="fill:none; stroke:#aaff00; stroke-width:0.4" /><polyline points="161.90476190476193,104.12698412698414 181.16402116402116,95.44973544973546" style="fill:none; stroke:#ffaa00; stroke-width:0.4" /><polyline points="164.23280423280426,99.47089947089948 169.52380952380955,120.00000000000001" style="fill:none; stroke:#aaff00; stroke-width:0.4" /><polyline points="23.492063492063494,166.34920634920636 32.38095238095239,185.60846560846562" style="fill:none; stroke:#ffaa00; stroke-width:0.4" /><polyline points="28.35978835978836,168.67724867724868 8.042328042328043,174.3915343915344" style="fill:none; stroke:#aaff00; stroke-width:0.4" /><circle cx="88.25396825396827" cy="75.97883597883599" r="1.0" style="fill:#444444; stroke-width:0" /><circle cx="113.65079365079366" cy="65.82010582010582" r="10.582010582010582" style="fill:#ff770022; stroke-width:0" /><circle cx="113.65079365079366" cy="65.82010582010582" r="1.0" style="fill:#ff7700; stroke-width:0" /></svg>