<?xml version="1.0" encoding="UTF-8" standalone="no"?><svg width="488.2539682539683" height="561.2698412698413" viewBox="-10 -10 182.75132275132276 207.08994708994712" xmlns="http://www.w3.org/2000/svg" xmlns:xlink="http://www.w3.org/1999/xlink"><polyline points="0.0,39.36507936507937 3.3862433862433865,38.730158730158735 4.021164021164021,38.730158730158735 4.656084656084657,38.51851851851852 5.291005291005291,38.51851851851852 5.9259259259259265,38.51851851851852 6.560846560846561,38.30687830687831 7.195767195767196,38.30687830687831 7.830687830687832,38.095238095238095 8.465608465608467,38.095238095238095 9.100529100529101,37.883597883597886 9.735449735449736,37.883597883597886 10.370370370370372,37.67195767195768 11.005291005291006,37.67195767195768 11.428571428571429,37.248677248677254 12.063492063492065,37.248677248677254 12.6984126984127,37.248677248677254 13.333333333333334,37.03703703703704 13.96825396825397,36.82539682539683 14.603174603174605,36.82539682539683 15.238095238095239,36.613756613756614 15.873015873015873,36.402116402116405 16.50793650793651,36.402116402116405 17.142857142857146,36.19047619047619 17.77777777777778,35.97883597883598 18.412698412698415,35.97883597883598 19.047619047619047,35.76719576719577 19.682539682539684,35.55555555555556 20.31746031746032,35.55555555555556 20.952380952380953,35.34391534391535 21.58730158730159,35.34391534391535 22.222222222222225,35.13227513227513 22.857142857142858,34.920634920634924 23.492063492063494,34.920634920634924 24.12698412698413,34.70899470899471 24.761904761904763,34.4973544973545 25.3968253968254,34.28571428571429 26.031746031746035,34.074074074074076 26.666666666666668,33.86243386243387 27.301587301587304,33.65079365079365 27.93650793650794,33.43915343915344 28.571428571428573,33.22751322751323 29.20634920634921,33.01587301587302 29.841269841269842,32.804232804232804 30.476190476190478,32.592592592592595 31.111111111111114,32.38095238095239 31.746031746031747,32.16931216931217 32.38095238095239,31.95767195767196 33.01587301587302,31.746031746031747 33.65079365079365,31.53439153439154 34.28571428571429,31.322751322751326 34.920634920634924,31.111111111111114 35.55555555555556,30.899470899470902 36.19047619047619,30.476190476190478 36.82539682539683,30.264550264550266 37.46031746031746,30.264550264550266 38.095238095238095,30.052910052910054 38.730158730158735,30.052910052910054 39.36507936507937,30.052910052910054 40.0,30.052910052910054 40.63492063492064,30.052910052910054 41.26984126984127,30.264550264550266 41.904761904761905,30.264550264550266 42.539682539682545,30.476190476190478 43.17460317460318,30.899470899470902 43.80952380952381,31.111111111111114 44.44444444444445,31.53439153439154 44.867724867724874,31.95767195767196 45.29100529100529,32.592592592592595 45.714285714285715,33.22751322751323 46.13756613756614,33.86243386243387 46.560846560846564,34.4973544973545 46.77248677248678,35.13227513227513 46.98412698412699,35.76719576719577 46.98412698412699,36.402116402116405 46.98412698412699,37.03703703703704 47.195767195767196,37.67195767195768 47.195767195767196,38.30687830687831 46.98412698412699,38.94179894179894 46.98412698412699,39.57671957671958 46.77248677248678,40.211640211640216 46.560846560846564,40.84656084656085 46.560846560846564,41.48148148148149 46.349206349206355,42.11640211640212 46.13756613756614,42.75132275132275 45.714285714285715,43.386243386243386 45.50264550264551,44.021164021164026 45.50264550264551,44.65608465608466 45.29100529100529,45.29100529100529 45.29100529100529,45.92592592592593 45.29100529100529,46.560846560846564 45.29100529100529,47.195767195767196 45.07936507936508,47.830687830687836 45.07936507936508,48.46560846560847 45.07936507936508,49.1005291005291 45.29100529100529,49.73544973544974 45.29100529100529,50.370370370370374 45.29100529100529,51.00529100529101 45.50264550264551,51.640211640211646 45.714285714285715,52.27513227513228 45.714285714285715,52.91005291005291 45.92592592592593,53.54497354497355 46.13756613756614,54.179894179894184 46.349206349206355,54.81481481481482 46.560846560846564,55.449735449735456 46.98412698412699,56.08465608465609 47.40740740740741,56.71957671957672 47.830687830687836,57.35449735449736 48.25396825396826,57.989417989417994 48.88888888888889,58.41269841269842 49.31216931216932,58.83597883597884 49.94708994708995,59.04761904761905 50.58201058201058,59.470899470899475 51.21693121693122,59.682539682539684 51.851851851851855,59.8941798941799 52.48677248677249,60.10582010582011 53.12169312169313,60.31746031746032 53.75661375661376,60.31746031746032 54.39153439153439,60.52910052910053 55.02645502645503,60.52910052910053 55.661375661375665,60.52910052910053 56.2962962962963,60.74074074074075 56.93121693121694,60.74074074074075 57.56613756613757,60.74074074074075 58.2010582010582,60.74074074074075 58.83597883597884,60.74074074074075 59.470899470899475,60.74074074074075 60.10582010582011,60.74074074074075 60.74074074074075,60.74074074074075 61.37566137566138,60.74074074074075 62.01058201058201,60.74074074074075 62.64550264550265,60.52910052910053 63.280423280423285,60.52910052910053 63.91534391534392,60.31746031746032 64.55026455026456,60.31746031746032 65.18518518518519,60.10582010582011 65.82010582010582,59.8941798941799 66.45502645502646,59.8941798941799 67.08994708994709,59.8941798941799 67.72486772486774,59.682539682539684 68.35978835978837,59.470899470899475 68.994708994709,59.470899470899475 69.62962962962963,59.25925925925927 70.26455026455027,59.04761904761905 70.8994708994709,59.04761904761905 71.32275132275133,58.62433862433863 71.95767195767196,58.41269841269842 72.5925925925926,58.2010582010582 73.22751322751323,57.989417989417994 73.86243386243387,57.777777777777786 74.49735449735451,57.56613756613757 75.13227513227514,57.56613756613757 75.55555555555556,57.142857142857146 76.19047619047619,56.93121693121694 76.82539682539684,56.93121693121694 77.46031746031747,56.71957671957672 78.0952380952381,56.50793650793651 78.73015873015873,56.2962962962963 79.15343915343917,55.87301587301588 79.7883597883598,55.661375661375665 80.42328042328043,55.449735449735456 80.84656084656085,55.02645502645503 81.48148148148148,55.02645502645503 82.11640211640213,54.81481481481482 82.75132275132276,54.39153439153439 83.3862433862434,53.968253968253975 84.02116402116403,53.54497354497355 84.65608465608466,53.12169312169313 85.07936507936509,52.6984126984127 85.71428571428572,52.27513227513228 86.34920634920636,51.851851851851855 86.77248677248677,51.42857142857143 87.40740740740742,51.00529100529101 87.83068783068784,50.58201058201058 88.25396825396827,50.158730158730165 88.67724867724868,49.73544973544974 89.1005291005291,49.31216931216932 89.52380952380953,48.677248677248684 89.94708994708995,48.042328042328045 90.37037037037038,47.40740740740741 90.7936507936508,46.77248677248678 91.00529100529101,46.13756613756614 91.21693121693123,45.50264550264551 91.42857142857143,44.867724867724874 91.42857142857143,44.232804232804234 91.64021164021165,43.5978835978836 91.64021164021165,42.96296296296297 91.64021164021165,42.32804232804233 91.64021164021165,41.6931216931217 91.64021164021165,41.058201058201064 91.42857142857143,40.423280423280424 91.42857142857143,39.78835978835979 91.21693121693123,39.15343915343916 91.00529100529101,38.51851851851852 90.7936507936508,37.883597883597886 90.37037037037038,37.46031746031746 89.94708994708995,36.82539682539683 89.73544973544975,36.19047619047619 89.31216931216932,35.76719576719577 88.8888888888889,35.34391534391535 88.46560846560847,34.920634920634924 88.04232804232805,34.4973544973545 87.61904761904762,34.074074074074076 87.1957671957672,33.65079365079365 86.77248677248677,33.22751322751323 86.34920634920636,32.804232804232804 85.92592592592594,32.38095238095239 85.5026455026455,31.95767195767196 85.07936507936509,31.53439153439154 84.65608465608466,31.111111111111114 84.02116402116403,30.68783068783069 83.59788359788361,30.264550264550266 83.17460317460318,29.629629629629633 82.75132275132276,29.20634920634921 82.32804232804233,28.783068783068785 81.90476190476191,28.35978835978836 81.48148148148148,27.93650793650794 81.05820105820106,27.513227513227516 80.63492063492065,27.089947089947092 80.21164021164022,26.666666666666668 79.7883597883598,26.243386243386244 79.36507936507937,25.820105820105823 78.94179894179895,25.3968253968254 78.30687830687832,24.973544973544975 77.88359788359789,24.55026455026455 77.46031746031747,24.12698412698413 77.03703703703704,23.703703703703706 76.61375661375662,23.280423280423282 76.19047619047619,22.645502645502646 75.76719576719577,22.222222222222225 75.34391534391536,21.7989417989418 74.92063492063492,21.164021164021165 74.70899470899471,20.529100529100532 74.28571428571429,19.894179894179896 74.07407407407408,19.25925925925926 73.86243386243387,18.624338624338627 73.65079365079366,17.98941798941799 73.43915343915344,17.354497354497354 73.43915343915344,16.71957671957672 73.43915343915344,16.084656084656086 73.43915343915344,15.449735449735451 73.65079365079366,14.814814814814817 73.86243386243387,14.17989417989418 74.28571428571429,13.544973544973546 74.70899470899471,12.910052910052912 75.13227513227514,12.486772486772487 75.55555555555556,12.063492063492065 76.19047619047619,11.640211640211641 76.82539682539684,11.216931216931219 77.46031746031747,11.005291005291006 78.0952380952381,10.793650793650794 78.73015873015873,10.582010582010582 79.36507936507937,10.370370370370372 80.0,10.15873015873016 80.63492063492065,9.947089947089948 81.26984126984128,9.735449735449736 81.90476190476191,9.523809523809524 82.53968253968254,9.312169312169313 83.17460317460318,9.312169312169313 83.80952380952381,9.100529100529101 84.23280423280424,8.677248677248677 84.86772486772487,8.677248677248677 85.5026455026455,8.465608465608467 86.13756613756614,8.253968253968255 86.77248677248677,8.253968253968255 87.40740740740742,8.042328042328043 88.04232804232805,7.830687830687832 88.46560846560847,7.407407407407408 89.1005291005291,7.407407407407408 89.73544973544975,7.407407407407408 90.37037037037038,7.195767195767196 91.00529100529101,6.984126984126985 91.64021164021165,6.772486772486773 92.27513227513228,6.560846560846561 92.91005291005291,6.560846560846561 93.54497354497356,6.34920634920635 94.17989417989419,6.137566137566138 94.81481481481482,6.137566137566138 95.44973544973546,5.9259259259259265 96.08465608465609,5.714285714285714 96.71957671957672,5.502645502645503 97.35449735449737,5.502645502645503 97.989417989418,5.291005291005291 98.62433862433863,5.07936507936508 99.25925925925927,5.07936507936508 99.8941798941799,4.867724867724868 100.52910052910053,4.867724867724868 101.16402116402116,4.656084656084657 101.79894179894181,4.444444444444445 102.43386243386244,4.444444444444445 103.06878306878308,4.2328042328042335 103.70370370370371,4.021164021164021 104.33862433862434,4.021164021164021 104.97354497354497,3.8095238095238098 105.60846560846562,3.8095238095238098 106.24338624338625,3.3862433862433865 106.87830687830689,3.3862433862433865 107.51322751322752,3.174603174603175 108.14814814814815,2.9629629629629632 108.78306878306879,2.9629629629629632 109.41798941798943,2.7513227513227516 110.05291005291006,2.53968253968254 110.6878306878307,2.53968253968254 111.32275132275133,2.3280423280423284 111.95767195767196,2.53968253968254 112.3809523809524,2.1164021164021167 113.01587301587303,2.1164021164021167 113.65079365079366,2.1164021164021167 114.28571428571429,2.1164021164021167 114.92063492063492,1.9047619047619049 115.55555555555557,1.6931216931216932 116.1904761904762,1.6931216931216932 116.82539682539684,1.4814814814814816 117.46031746031747,1.4814814814814816 118.0952380952381,1.4814814814814816 118.73015873015873,1.26984126984127 119.36507936507937,1.26984126984127 120.00000000000001,1.26984126984127 120.63492063492065,1.26984126984127 121.26984126984128,1.0582010582010584 121.90476190476191,0.8465608465608466 122.53968253968254,0.8465608465608466 123.17460317460318,0.8465608465608466 123.80952380952382,1.0582010582010584 124.44444444444446,1.0582010582010584 125.07936507936509,0.8465608465608466 125.71428571428572,0.634920634920635 126.34920634920636,0.634920634920635 126.98412698412699,0.634920634920635 127.61904761904763,0.634920634920635 128.25396825396825,0.4232804232804233 128.88888888888889,0.634920634920635 129.31216931216932,0.21164021164021166 129.94708994708995,0.21164021164021166 130.58201058201058,0.21164021164021166 133.96825396825398,0.0" style="fill:none; stroke:#cc0000; stroke-width:1.0"  /><polyline points="133.96825396825398,0.0 134.3915343915344,3.8095238095238098 134.6031746031746,4.444444444444445 134.81481481481484,5.07936507936508 134.81481481481484,5.714285714285714 135.02645502645504,6.34920634920635 135.02645502645504,6.984126984126985 135.02645502645504,7.6190476190476195 135.02645502645504,8.253968253968255 135.02645502645504,8.88888888888889 135.23809523809524,9.523809523809524 135.23809523809524,10.15873015873016 135.23809523809524,10.793650793650794 135.44973544973547,11.428571428571429 135.44973544973547,12.063492063492065 135.44973544973547,12.6984126984127 135.66137566137567,13.333333333333334 135.66137566137567,13.96825396825397 135.87301587301587,14.603174603174605 135.87301587301587,15.238095238095239 135.87301587301587,15.873015873015873 136.0846560846561,16.50793650793651 136.0846560846561,17.142857142857146 136.0846560846561,17.77777777777778 136.0846560846561,18.412698412698415 136.2962962962963,19.047619047619047 136.2962962962963,19.682539682539684 136.2962962962963,20.31746031746032 136.2962962962963,20.952380952380953 136.5079365079365,21.58730158730159 136.5079365079365,22.222222222222225 136.5079365079365,22.857142857142858 136.71957671957674,23.492063492063494 136.71957671957674,24.12698412698413 136.71957671957674,24.761904761904763 137.14285714285717,25.3968253968254 137.14285714285717,26.031746031746035 137.14285714285717,26.666666666666668 137.35449735449737,27.301587301587304 137.14285714285717,27.93650793650794 137.35449735449737,28.571428571428573 137.35449735449737,29.20634920634921 137.56613756613757,29.841269841269842 137.56613756613757,30.476190476190478 137.7777777777778,31.111111111111114 137.56613756613757,31.746031746031747 137.56613756613757,32.38095238095239 137.56613756613757,33.01587301587302 137.7777777777778,33.65079365079365 137.7777777777778,34.28571428571429 137.7777777777778,34.920634920634924 137.989417989418,35.55555555555556 137.989417989418,36.19047619047619 137.989417989418,36.82539682539683 138.2010582010582,37.46031746031746 138.2010582010582,38.095238095238095 138.2010582010582,38.730158730158735 138.2010582010582,39.36507936507937 138.2010582010582,40.0 138.41269841269843,40.63492063492064 138.41269841269843,41.26984126984127 138.41269841269843,41.904761904761905 138.41269841269843,42.539682539682545 138.62433862433863,43.17460317460318 138.62433862433863,43.80952380952381 138.62433862433863,44.44444444444445 138.62433862433863,45.07936507936508 138.62433862433863,45.714285714285715 138.62433862433863,46.349206349206355 138.83597883597884,46.98412698412699 138.83597883597884,47.61904761904762 139.04761904761907,48.25396825396826 139.04761904761907,48.88888888888889 139.04761904761907,49.523809523809526 139.04761904761907,50.158730158730165 139.25925925925927,50.7936507936508 139.25925925925927,51.42857142857143 139.25925925925927,52.06349206349207 139.25925925925927,52.6984126984127 139.47089947089947,53.333333333333336 139.47089947089947,53.968253968253975 139.47089947089947,54.60317460317461 139.47089947089947,55.23809523809524 139.47089947089947,55.87301587301588 139.6825396825397,56.50793650793651 139.6825396825397,57.142857142857146 139.6825396825397,57.777777777777786 139.6825396825397,58.41269841269842 139.6825396825397,59.04761904761905 139.6825396825397,59.682539682539684 139.8941798941799,60.31746031746032 139.8941798941799,60.952380952380956 139.8941798941799,61.58730158730159 139.8941798941799,62.22222222222223 139.8941798941799,62.85714285714286 139.8941798941799,63.492063492063494 139.8941798941799,64.12698412698413 139.8941798941799,64.76190476190477 139.6825396825397,65.3968253968254 139.6825396825397,66.03174603174604 139.6825396825397,66.66666666666667 139.6825396825397,67.3015873015873 139.6825396825397,67.93650793650794 139.6825396825397,68.57142857142858 139.47089947089947,69.20634920634922 139.47089947089947,69.84126984126985 139.25925925925927,70.47619047619048 139.04761904761907,71.11111111111111 138.83597883597884,71.74603174603175 138.41269841269843,72.38095238095238 137.989417989418,73.01587301587303 137.56613756613757,73.43915343915344 136.93121693121694,73.86243386243387 136.2962962962963,74.07407407407408 135.66137566137567,74.28571428571429 135.02645502645504,74.49735449735451 134.3915343915344,74.49735449735451 133.75661375661377,74.28571428571429 133.12169312169314,74.07407407407408 132.4867724867725,74.07407407407408 131.85185185185185,73.86243386243387 131.21693121693121,73.43915343915344 130.58201058201058,73.22751322751323 129.94708994708995,72.80423280423281 129.31216931216932,72.5925925925926 128.67724867724868,72.38095238095238 128.04232804232805,71.95767195767196 127.40740740740742,71.74603174603175 126.77248677248679,71.53439153439155 126.13756613756615,71.11111111111111 125.5026455026455,70.8994708994709 124.86772486772487,70.6878306878307 124.23280423280424,70.47619047619048 123.59788359788361,70.26455026455027 122.96296296296298,70.05291005291006 122.32804232804234,69.84126984126985 121.6931216931217,69.62962962962963 121.05820105820106,69.41798941798942 120.42328042328043,69.20634920634922 119.7883597883598,69.20634920634922 119.15343915343917,69.20634920634922 118.51851851851853,69.20634920634922 117.88359788359789,69.20634920634922 117.24867724867725,69.41798941798942 116.61375661375662,69.62962962962963 115.97883597883599,70.05291005291006 115.34391534391536,70.26455026455027 114.92063492063492,70.6878306878307 114.49735449735451,71.11111111111111 114.07407407407408,71.53439153439155 113.65079365079366,71.95767195767196 113.22751322751324,72.5925925925926 112.80423280423281,73.22751322751323 112.5925925925926,73.86243386243387 112.16931216931218,74.49735449735451 111.95767195767196,75.13227513227514 111.74603174603176,75.76719576719577 111.53439153439155,76.4021164021164 111.53439153439155,77.03703703703704 111.32275132275133,77.67195767195767 111.11111111111111,78.30687830687832 110.89947089947091,78.94179894179895 110.89947089947091,79.57671957671958 110.89947089947091,80.21164021164022 110.6878306878307,80.84656084656085 110.6878306878307,81.48148148148148 110.6878306878307,82.11640211640213 110.6878306878307,82.75132275132276 110.6878306878307,83.3862433862434 110.47619047619048,84.02116402116403 110.6878306878307,84.65608465608466 110.6878306878307,85.29100529100529 110.6878306878307,85.92592592592594 110.6878306878307,86.56084656084657 110.89947089947091,87.1957671957672 110.89947089947091,87.83068783068784 110.89947089947091,88.46560846560847 111.11111111111111,89.1005291005291 111.11111111111111,89.73544973544975 111.11111111111111,90.37037037037038 111.32275132275133,91.00529100529101 111.32275132275133,91.64021164021165 111.53439153439155,92.27513227513228 111.74603174603176,92.91005291005291 111.74603174603176,93.54497354497356 111.95767195767196,94.17989417989419 112.16931216931218,94.81481481481482 112.3809523809524,95.44973544973546 112.5925925925926,96.08465608465609 112.80423280423281,96.71957671957672 112.80423280423281,97.35449735449737 113.22751322751324,97.77777777777779 113.22751322751324,98.41269841269842 113.43915343915344,99.04761904761905 113.65079365079366,99.68253968253968 114.07407407407408,100.31746031746033 114.28571428571429,100.95238095238096 114.28571428571429,101.5873015873016 114.49735449735451,102.22222222222223 114.92063492063492,102.85714285714286 115.13227513227514,103.4920634920635 115.34391534391536,104.12698412698414 115.55555555555557,104.76190476190477 115.97883597883599,105.18518518518519 116.4021164021164,105.60846560846562 116.82539682539684,106.03174603174604 117.24867724867725,106.45502645502647 117.67195767195768,107.0899470899471 118.30687830687832,107.3015873015873 118.94179894179895,107.51322751322752 119.57671957671958,107.72486772486774 120.21164021164022,107.93650793650795 120.84656084656086,107.93650793650795 121.4814814814815,107.93650793650795 122.11640211640213,107.93650793650795 122.75132275132276,107.72486772486774 123.3862433862434,107.72486772486774 124.02116402116403,107.51322751322752 124.65608465608466,107.3015873015873 125.2910052910053,107.0899470899471 125.92592592592594,106.87830687830689 126.34920634920636,106.45502645502647 126.98412698412699,106.24338624338625 127.40740740740742,105.82010582010582 128.04232804232805,105.60846560846562 128.46560846560848,105.18518518518519 129.10052910052912,104.97354497354497 129.73544973544975,104.55026455026456 130.37037037037038,104.12698412698414 131.005291005291,103.70370370370371 131.64021164021165,103.28042328042329 132.27513227513228,102.85714285714286 132.9100529100529,102.64550264550266 133.33333333333334,102.22222222222223 133.96825396825398,102.01058201058201 134.3915343915344,101.5873015873016 135.02645502645504,101.16402116402116 135.66137566137567,100.95238095238096 136.2962962962963,100.52910052910053 136.93121693121694,100.10582010582011 137.56613756613757,99.8941798941799 138.2010582010582,99.47089947089948 138.83597883597884,99.04761904761905 139.47089947089947,99.04761904761905 140.10582010582013,98.83597883597885 140.74074074074076,98.41269841269842 141.3756613756614,97.989417989418 142.01058201058203,97.77777777777779 142.64550264550266,97.56613756613757 143.2804232804233,97.56613756613757 143.91534391534393,97.35449735449737 144.55026455026456,97.14285714285715 145.1851851851852,96.93121693121694 145.82010582010582,96.93121693121694 146.45502645502646,96.71957671957672 147.0899470899471,96.71957671957672 147.72486772486775,96.50793650793652 148.35978835978838,96.50793650793652 148.99470899470901,96.50793650793652 149.62962962962965,96.50793650793652 150.26455026455028,96.50793650793652 150.8994708994709,96.50793650793652 151.53439153439155,96.50793650793652 152.16931216931218,96.50793650793652 152.8042328042328,96.50793650793652 153.43915343915344,96.50793650793652 154.07407407407408,96.50793650793652 154.7089947089947,96.50793650793652 155.34391534391534,96.71957671957672 155.978835978836,96.71957671957672 156.61375661375664,96.93121693121694 157.24867724867727,97.14285714285715 157.8835978835979,97.14285714285715 158.51851851851853,97.35449735449737 159.15343915343917,97.56613756613757 159.7883597883598,97.77777777777779 160.42328042328043,98.2010582010582 160.84656084656086,98.62433862433863 161.2698412698413,99.04761904761905 161.6931216931217,99.68253968253968 161.90476190476193,100.31746031746033 162.11640211640213,100.95238095238096 162.32804232804233,101.5873015873016 162.32804232804233,102.22222222222223 162.32804232804233,102.85714285714286 162.32804232804233,103.4920634920635 162.11640211640213,104.12698412698414 162.11640211640213,104.76190476190477 161.90476190476193,105.3968253968254 161.6931216931217,106.03174603174604 161.6931216931217,106.66666666666667 161.4814814814815,107.3015873015873 161.2698412698413,107.93650793650795 161.05820105820106,108.57142857142858 161.05820105820106,109.20634920634922 160.84656084656086,109.84126984126985 160.63492063492066,110.47619047619048 160.42328042328043,111.11111111111111 160.21164021164023,111.74603174603176 160.21164021164023,112.3809523809524 160.0,113.01587301587303 159.7883597883598,113.65079365079366 159.5767195767196,114.28571428571429 159.5767195767196,114.92063492063492 159.36507936507937,115.55555555555557 159.15343915343917,116.1904761904762 159.15343915343917,116.82539682539684 158.94179894179896,117.46031746031747 158.73015873015873,118.0952380952381 158.51851851851853,118.73015873015873 158.51851851851853,119.36507936507937 158.30687830687833,120.00000000000001 158.0952380952381,120.63492063492065 158.0952380952381,121.26984126984128 157.8835978835979,121.90476190476191 157.8835978835979,122.53968253968254 157.67195767195767,123.17460317460318 157.46031746031747,123.80952380952382 157.46031746031747,124.44444444444446 157.46031746031747,125.07936507936509 157.24867724867727,125.71428571428572 157.24867724867727,126.34920634920636 157.03703703703704,126.98412698412699 157.03703703703704,127.61904761904763 156.82539682539684,128.25396825396825 156.82539682539684,128.88888888888889 156.61375661375664,129.52380952380955 156.82539682539684,130.15873015873018 156.82539682539684,130.7936507936508 156.82539682539684,131.42857142857144 156.61375661375664,132.06349206349208 156.61375661375664,132.6984126984127 156.61375661375664,133.33333333333334 156.4021164021164,133.96825396825398 156.4021164021164,134.6031746031746 156.4021164021164,135.23809523809524 156.4021164021164,135.87301587301587 156.4021164021164,136.5079365079365 156.4021164021164,137.14285714285717 156.4021164021164,137.7777777777778 156.4021164021164,138.41269841269843 156.4021164021164,139.04761904761907 156.4021164021164,139.6825396825397 156.1904761904762,143.70370370370372" style="fill:none; stroke:#999900; stroke-width:1.0"  /><polyline points="156.1904761904762,143.70370370370372 153.43915343915344,143.4920634920635 152.8042328042328,143.4920634920635 152.16931216931218,143.4920634920635 151.53439153439155,143.4920634920635 150.8994708994709,143.4920634920635 150.26455026455028,143.4920634920635 149.62962962962965,143.4920634920635 148.99470899470901,143.4920634920635 148.35978835978838,143.4920634920635 147.72486772486775,143.2804232804233 147.0899470899471,143.2804232804233 146.45502645502646,143.2804232804233 145.82010582010582,143.2804232804233 145.1851851851852,143.0687830687831 144.55026455026456,143.0687830687831 143.91534391534393,142.85714285714286 143.2804232804233,142.85714285714286 142.64550264550266,142.64550264550266 142.01058201058203,142.64550264550266 141.3756613756614,142.64550264550266 140.74074074074076,142.43386243386246 140.10582010582013,142.22222222222223 139.47089947089947,142.22222222222223 138.83597883597884,142.22222222222223 138.2010582010582,142.01058201058203 137.56613756613757,142.01058201058203 136.93121693121694,142.01058201058203 136.2962962962963,142.01058201058203 135.66137566137567,142.01058201058203 135.02645502645504,142.01058201058203 134.3915343915344,142.01058201058203 133.75661375661377,142.01058201058203 133.12169312169314,142.01058201058203 132.4867724867725,142.22222222222223 131.85185185185185,142.22222222222223 131.21693121693121,142.43386243386246 130.58201058201058,142.43386243386246 129.94708994708995,142.64550264550266 129.31216931216932,142.64550264550266 128.67724867724868,142.64550264550266 128.04232804232805,142.85714285714286 127.40740740740742,143.2804232804233 126.77248677248679,143.2804232804233 126.13756613756615,143.70370370370372 125.5026455026455,144.12698412698413 124.86772486772487,144.55026455026456 124.23280423280424,144.973544973545 123.80952380952382,145.39682539682542 123.3862433862434,145.82010582010582 122.96296296296298,146.45502645502646 122.75132275132276,147.0899470899471 122.53968253968254,147.72486772486775 122.32804232804234,148.35978835978838 122.32804232804234,148.99470899470901 122.11640211640213,149.62962962962965 122.11640211640213,150.26455026455028 122.11640211640213,150.8994708994709 122.32804232804234,151.53439153439155 122.32804232804234,152.16931216931218 122.53968253968254,152.8042328042328 122.75132275132276,153.43915343915344 122.96296296296298,154.07407407407408 123.3862433862434,154.7089947089947 123.59788359788361,155.34391534391534 124.02116402116403,155.76719576719577 124.23280423280424,156.4021164021164 124.65608465608466,156.82539682539684 125.07936507936509,157.46031746031747 125.5026455026455,157.8835978835979 125.92592592592594,158.51851851851853 126.34920634920636,158.94179894179896 126.77248677248679,159.36507936507937 127.1957671957672,160.0 127.61904761904763,160.42328042328043 128.04232804232805,160.84656084656086 128.46560846560848,161.2698412698413 128.88888888888889,161.6931216931217 129.31216931216932,162.11640211640213 129.73544973544975,162.75132275132276 130.15873015873018,163.3862433862434 130.58201058201058,164.02116402116403 130.7936507936508,164.65608465608466 131.21693121693121,165.0793650793651 131.42857142857144,165.71428571428572 131.42857142857144,166.34920634920636 131.64021164021165,166.984126984127 131.85185185185185,167.61904761904762 131.85185185185185,168.25396825396825 131.85185185185185,168.8888888888889 131.85185185185185,169.52380952380955 131.64021164021165,170.15873015873018 131.42857142857144,170.7936507936508 131.21693121693121,171.42857142857144 131.005291005291,172.06349206349208 130.58201058201058,172.4867724867725 130.15873015873018,172.9100529100529 129.73544973544975,173.54497354497354 129.31216931216932,173.96825396825398 128.88888888888889,174.3915343915344 128.25396825396825,174.81481481481484 127.83068783068784,175.23809523809524 127.40740740740742,175.66137566137567 126.77248677248679,176.0846560846561 126.34920634920636,176.50793650793653 125.71428571428572,176.93121693121694 125.2910052910053,177.35449735449737 124.65608465608466,177.56613756613757 124.23280423280424,177.989417989418 123.59788359788361,178.41269841269843 122.96296296296298,178.62433862433863 122.53968253968254,179.04761904761907 121.90476190476191,179.25925925925927 121.4814814814815,179.6825396825397 120.84656084656086,179.8941798941799 120.21164021164022,180.31746031746033 119.57671957671958,180.52910052910053 118.94179894179895,180.95238095238096 118.30687830687832,181.16402116402116 117.67195767195768,181.5873015873016 117.03703703703705,181.79894179894183 116.4021164021164,182.01058201058203 115.76719576719577,182.22222222222223 115.13227513227514,182.43386243386246 114.49735449735451,182.64550264550266 113.86243386243387,182.85714285714286 113.22751322751324,183.0687830687831 112.5925925925926,183.0687830687831 111.95767195767196,183.2804232804233 111.32275132275133,183.4920634920635 110.6878306878307,183.70370370370372 110.05291005291006,184.12698412698415 109.41798941798943,184.12698412698415 108.78306878306879,184.33862433862436 108.14814814814815,184.55026455026456 107.51322751322752,184.55026455026456 106.87830687830689,184.7619047619048 106.24338624338625,184.973544973545 105.60846560846562,185.1851851851852 104.97354497354497,185.1851851851852 104.33862433862434,185.1851851851852 103.70370370370371,185.1851851851852 103.06878306878308,185.39682539682542 102.43386243386244,185.39682539682542 101.79894179894181,185.39682539682542 101.16402116402116,185.39682539682542 100.52910052910053,185.39682539682542 99.8941798941799,185.1851851851852 99.25925925925927,185.1851851851852 98.62433862433863,184.973544973545 97.989417989418,184.7619047619048 97.56613756613757,184.33862433862436 96.93121693121694,184.12698412698415 96.50793650793652,183.70370370370372 96.08465608465609,183.2804232804233 95.66137566137567,182.85714285714286 95.23809523809524,182.43386243386246 94.81481481481482,181.79894179894183 94.39153439153439,181.16402116402116 94.17989417989419,180.52910052910053 93.75661375661376,179.8941798941799 93.75661375661376,179.25925925925927 93.54497354497356,178.62433862433863 93.33333333333334,177.989417989418 93.12169312169313,177.35449735449737 93.12169312169313,176.71957671957674 93.12169312169313,176.0846560846561 92.91005291005291,175.44973544973547 92.91005291005291,174.81481481481484 92.91005291005291,174.1798941798942 92.91005291005291,173.54497354497354 92.69841269841271,172.9100529100529 92.4867724867725,172.27513227513228 92.27513227513228,171.64021164021165 92.06349206349208,171.005291005291 91.85185185185186,170.37037037037038 91.42857142857143,169.94708994708995 91.00529100529101,169.31216931216932 90.58201058201058,168.8888888888889 90.15873015873017,168.46560846560848 89.52380952380953,168.04232804232805 88.8888888888889,167.61904761904762 88.25396825396827,167.40740740740742 87.61904761904762,167.19576719576722 86.98412698412699,166.984126984127 86.34920634920636,166.7724867724868 85.71428571428572,166.56084656084658 85.07936507936509,166.56084656084658 84.44444444444446,166.34920634920636 83.80952380952381,166.34920634920636 83.17460317460318,166.34920634920636 82.53968253968254,166.13756613756615 81.90476190476191,166.13756613756615 81.26984126984128,166.13756613756615 80.63492063492065,166.13756613756615 80.0,166.13756613756615 79.36507936507937,166.13756613756615 78.73015873015873,166.13756613756615 78.0952380952381,166.13756613756615 77.46031746031747,166.13756613756615 76.82539682539684,166.13756613756615 76.19047619047619,166.13756613756615 75.55555555555556,166.13756613756615 74.92063492063492,166.13756613756615 74.28571428571429,166.13756613756615 73.65079365079366,166.13756613756615 73.01587301587303,166.34920634920636 72.38095238095238,166.34920634920636 71.74603174603175,166.56084656084658 71.11111111111111,166.7724867724868 70.47619047619048,166.984126984127 69.84126984126985,167.19576719576722 69.20634920634922,167.19576719576722 68.57142857142858,167.40740740740742 67.93650793650794,167.61904761904762 67.3015873015873,167.83068783068785 66.66666666666667,168.04232804232805 66.03174603174604,168.25396825396825 65.3968253968254,168.25396825396825 64.76190476190477,168.46560846560848 64.12698412698413,168.67724867724868 63.492063492063494,168.8888888888889 62.85714285714286,168.8888888888889 62.22222222222223,169.10052910052912 61.58730158730159,169.31216931216932 60.952380952380956,169.52380952380955 60.31746031746032,169.73544973544975 59.682539682539684,169.94708994708995 59.04761904761905,169.94708994708995 58.41269841269842,170.15873015873018 57.777777777777786,170.37037037037038 57.142857142857146,170.58201058201058 56.50793650793651,170.7936507936508 55.87301587301588,171.005291005291 55.23809523809524,171.21693121693124 54.60317460317461,171.42857142857144 53.968253968253975,171.64021164021165 53.333333333333336,171.85185185185188 52.6984126984127,172.06349206349208 52.06349206349207,172.27513227513228 51.42857142857143,172.4867724867725 50.7936507936508,172.6984126984127 50.158730158730165,173.12169312169314 49.523809523809526,173.33333333333334 48.88888888888889,173.54497354497354 48.25396825396826,173.75661375661377 47.61904761904762,173.96825396825398 46.98412698412699,174.3915343915344 46.349206349206355,174.6031746031746 45.714285714285715,174.81481481481484 45.07936507936508,175.02645502645504 44.44444444444445,175.23809523809524 43.80952380952381,175.66137566137567 43.17460317460318,175.87301587301587 42.539682539682545,176.0846560846561 41.904761904761905,176.50793650793653 41.26984126984127,176.71957671957674 40.63492063492064,177.14285714285717 40.0,177.35449735449737 39.36507936507937,177.56613756613757 38.730158730158735,177.989417989418 38.095238095238095,178.2010582010582 37.46031746031746,178.62433862433863 36.82539682539683,178.83597883597884 36.402116402116405,179.25925925925927 35.76719576719577,179.4708994708995 35.13227513227513,179.8941798941799 34.4973544973545,180.10582010582013 33.86243386243387,180.52910052910053 33.22751322751323,180.74074074074076 32.592592592592595,180.95238095238096 31.95767195767196,181.16402116402116 31.322751322751326,181.5873015873016 30.68783068783069,182.01058201058203 30.052910052910054,182.22222222222223 29.41798941798942,182.64550264550266 28.783068783068785,182.85714285714286 28.35978835978836,183.2804232804233 27.724867724867728,183.4920634920635 27.089947089947092,183.91534391534393 26.455026455026456,184.12698412698415 25.820105820105823,184.33862433862436 25.3968253968254,184.7619047619048 24.761904761904763,185.1851851851852 21.58730158730159,187.08994708994712" style="fill:none; stroke:#00aa99; stroke-width:1.0"  /><polyline points="21.58730158730159,187.08994708994712 20.31746031746032,183.70370370370372 20.105820105820108,183.0687830687831 19.894179894179896,182.43386243386246 19.682539682539684,181.79894179894183 19.25925925925926,181.16402116402116 19.047619047619047,180.52910052910053 19.047619047619047,179.8941798941799 18.83597883597884,179.25925925925927 18.624338624338627,178.62433862433863 18.201058201058203,177.989417989418 17.98941798941799,177.35449735449737 17.77777777777778,176.71957671957674 17.566137566137566,176.0846560846561 17.354497354497354,175.44973544973547 17.142857142857146,174.81481481481484 16.71957671957672,174.1798941798942 16.50793650793651,173.54497354497354 16.296296296296298,172.9100529100529 16.084656084656086,172.27513227513228 15.661375661375663,171.64021164021165 15.449735449735451,171.005291005291 15.238095238095239,170.37037037037038 15.026455026455027,169.73544973544975 14.603174603174605,169.10052910052912 14.391534391534393,168.46560846560848 14.17989417989418,167.83068783068785 13.96825396825397,167.19576719576722 13.756613756613758,166.56084656084658 13.333333333333334,165.92592592592595 13.121693121693122,165.2910052910053 12.6984126984127,164.8677248677249 12.486772486772487,164.23280423280426 12.275132275132275,163.59788359788362 12.063492063492065,162.96296296296296 11.640211640211641,162.32804232804233 11.428571428571429,161.6931216931217 11.216931216931219,161.05820105820106 11.005291005291006,160.42328042328043 10.582010582010582,159.7883597883598 10.370370370370372,159.15343915343917 10.15873015873016,158.51851851851853 9.947089947089948,157.8835978835979 9.735449735449736,157.24867724867727 9.523809523809524,156.61375661375664 9.100529100529101,155.978835978836 8.88888888888889,155.34391534391534 8.677248677248677,154.7089947089947 8.465608465608467,154.07407407407408 8.253968253968255,153.43915343915344 8.042328042328043,152.8042328042328 8.042328042328043,152.16931216931218 7.6190476190476195,151.53439153439155 7.6190476190476195,150.8994708994709 7.407407407407408,150.26455026455028 7.195767195767196,149.62962962962965 6.984126984126985,148.99470899470901 6.772486772486773,148.35978835978838 6.560846560846561,147.72486772486775 6.34920634920635,147.0899470899471 6.137566137566138,146.45502645502646 6.137566137566138,145.82010582010582 5.9259259259259265,145.1851851851852 5.714285714285714,144.55026455026456 5.714285714285714,143.91534391534393 5.502645502645503,143.2804232804233 5.502645502645503,142.64550264550266 5.502645502645503,142.01058201058203 5.291005291005291,141.3756613756614 5.502645502645503,140.74074074074076 5.502645502645503,140.10582010582013 5.714285714285714,139.47089947089947 5.9259259259259265,138.83597883597884 6.137566137566138,138.2010582010582 6.560846560846561,137.7777777777778 6.984126984126985,137.35449735449737 7.6190476190476195,136.93121693121694 8.253968253968255,136.71957671957674 8.88888888888889,136.2962962962963 9.523809523809524,136.0846560846561 10.15873015873016,136.0846560846561 10.793650793650794,136.0846560846561 11.428571428571429,136.0846560846561 12.063492063492065,136.0846560846561 12.6984126984127,136.0846560846561 13.333333333333334,136.2962962962963 13.96825396825397,136.5079365079365 14.603174603174605,136.71957671957674 15.238095238095239,136.93121693121694 15.873015873015873,137.14285714285717 16.50793650793651,137.35449735449737 17.142857142857146,137.56613756613757 17.77777777777778,137.7777777777778 18.412698412698415,137.989417989418 19.047619047619047,138.2010582010582 19.682539682539684,138.41269841269843 20.31746031746032,138.83597883597884 20.952380952380953,139.04761904761907 21.58730158730159,139.25925925925927 22.222222222222225,139.47089947089947 22.857142857142858,139.6825396825397 23.492063492063494,139.8941798941799 24.12698412698413,140.10582010582013 24.761904761904763,140.52910052910053 25.3968253968254,140.74074074074076 26.031746031746035,140.95238095238096 26.666666666666668,141.16402116402116 27.301587301587304,141.5873015873016 27.93650793650794,141.5873015873016 28.571428571428573,141.7989417989418 29.20634920634921,142.01058201058203 29.841269841269842,142.22222222222223 30.476190476190478,142.22222222222223 31.111111111111114,142.43386243386246 31.746031746031747,142.43386243386246 32.38095238095239,142.43386243386246 33.01587301587302,142.43386243386246 33.65079365079365,142.22222222222223 34.28571428571429,142.01058201058203 34.920634920634924,142.01058201058203 35.55555555555556,141.5873015873016 36.19047619047619,141.16402116402116 36.613756613756614,140.74074074074076 37.248677248677254,140.31746031746033 37.67195767195768,139.8941798941799 38.095238095238095,139.47089947089947 38.51851851851852,139.04761904761907 38.730158730158735,138.41269841269843 39.15343915343916,137.7777777777778 39.36507936507937,137.14285714285717 39.57671957671958,136.5079365079365 39.78835978835979,135.87301587301587 40.0,135.23809523809524 40.211640211640216,134.6031746031746 40.423280423280424,133.96825396825398 40.423280423280424,133.33333333333334 40.63492063492064,132.6984126984127 40.84656084656085,132.06349206349208 40.84656084656085,131.42857142857144 41.058201058201064,130.7936507936508 41.058201058201064,130.15873015873018 41.058201058201064,129.52380952380955 41.058201058201064,128.88888888888889 41.26984126984127,128.25396825396825 41.26984126984127,127.61904761904763 41.48148148148149,126.98412698412699 41.48148148148149,126.34920634920636 41.48148148148149,125.71428571428572 41.48148148148149,125.07936507936509 41.6931216931217,124.44444444444446 41.6931216931217,123.80952380952382 41.6931216931217,123.17460317460318 41.6931216931217,122.53968253968254 41.6931216931217,121.90476190476191 41.6931216931217,121.26984126984128 41.6931216931217,120.63492063492065 41.48148148148149,120.00000000000001 41.48148148148149,119.36507936507937 41.48148148148149,118.73015873015873 41.48148148148149,118.0952380952381 41.48148148148149,117.46031746031747 41.48148148148149,116.82539682539684 41.26984126984127,116.1904761904762 41.26984126984127,115.55555555555557 41.058201058201064,114.92063492063492 41.058201058201064,114.28571428571429 40.84656084656085,113.65079365079366 40.84656084656085,113.01587301587303 40.63492063492064,112.3809523809524 40.63492063492064,111.74603174603176 40.423280423280424,111.11111111111111 40.211640211640216,110.47619047619048 40.0,109.84126984126985 40.0,109.20634920634922 39.78835978835979,108.57142857142858 39.57671957671958,107.93650793650795 39.36507936507937,107.3015873015873 39.15343915343916,106.66666666666667 38.94179894179894,106.03174603174604 38.51851851851852,105.3968253968254 38.30687830687831,104.76190476190477 38.095238095238095,104.12698412698414 37.883597883597886,103.4920634920635 37.46031746031746,102.85714285714286 37.248677248677254,102.22222222222223 36.82539682539683,101.5873015873016 36.613756613756614,100.95238095238096 36.19047619047619,100.52910052910053 35.76719576719577,99.8941798941799 35.34391534391535,99.25925925925927 34.920634920634924,98.62433862433863 34.4973544973545,97.989417989418 34.074074074074076,97.56613756613757 33.65079365079365,97.14285714285715 33.22751322751323,96.71957671957672 32.804232804232804,96.2962962962963 32.16931216931217,96.08465608465609 31.53439153439154,95.66137566137567 30.899470899470902,95.44973544973546 30.264550264550266,95.23809523809524 29.629629629629633,95.23809523809524 28.994708994708997,95.02645502645504 28.35978835978836,95.02645502645504 27.724867724867728,95.23809523809524 27.089947089947092,95.23809523809524 26.455026455026456,95.23809523809524 25.820105820105823,95.44973544973546 25.185185185185187,95.66137566137567 24.55026455026455,95.87301587301587 23.915343915343918,96.08465608465609 23.280423280423282,96.2962962962963 22.645502645502646,96.71957671957672 22.010582010582013,96.93121693121694 21.58730158730159,97.35449735449737 20.952380952380953,97.77777777777779 20.31746031746032,98.2010582010582 19.682539682539684,98.41269841269842 19.25925925925926,98.83597883597885 18.624338624338627,99.25925925925927 17.98941798941799,99.68253968253968 17.566137566137566,100.10582010582011 16.931216931216934,100.52910052910053 16.296296296296298,100.95238095238096 15.661375661375663,101.37566137566138 15.026455026455027,101.79894179894181 14.603174603174605,102.22222222222223 13.96825396825397,102.64550264550266 13.333333333333334,103.06878306878308 12.6984126984127,103.4920634920635 12.063492063492065,103.91534391534393 11.640211640211641,104.33862433862434 11.005291005291006,104.76190476190477 10.370370370370372,105.18518518518519 9.735449735449736,105.3968253968254 9.100529100529101,105.82010582010582 8.465608465608467,106.03174603174604 7.830687830687832,106.03174603174604 7.195767195767196,106.24338624338625 6.560846560846561,106.24338624338625 5.9259259259259265,106.03174603174604 5.291005291005291,105.82010582010582 4.656084656084657,105.3968253968254 4.021164021164021,104.97354497354497 3.597883597883598,104.55026455026456 3.174603174603175,103.91534391534393 2.9629629629629632,103.28042328042329 2.53968253968254,102.85714285714286 2.53968253968254,102.22222222222223 2.3280423280423284,101.5873015873016 2.3280423280423284,100.95238095238096 2.3280423280423284,100.31746031746033 2.1164021164021167,99.68253968253968 2.1164021164021167,99.04761904761905 2.3280423280423284,98.41269841269842 2.3280423280423284,97.77777777777779 2.3280423280423284,97.14285714285715 2.53968253968254,96.50793650793652 2.53968253968254,95.87301587301587 2.3280423280423284,95.23809523809524 2.53968253968254,94.60317460317461 2.7513227513227516,93.96825396825398 2.7513227513227516,93.33333333333334 2.9629629629629632,92.69841269841271 3.174603174603175,92.06349206349208 3.174603174603175,91.42857142857143 3.3862433862433865,90.7936507936508 3.597883597883598,90.15873015873017 3.597883597883598,89.52380952380953 3.8095238095238098,88.8888888888889 3.8095238095238098,88.25396825396827 4.021164021164021,87.61904761904762 4.021164021164021,86.98412698412699 4.021164021164021,86.34920634920636 4.2328042328042335,85.71428571428572 4.2328042328042335,85.07936507936509 4.2328042328042335,84.44444444444446 4.444444444444445,83.80952380952381 4.444444444444445,83.17460317460318 4.444444444444445,82.53968253968254 4.656084656084657,81.90476190476191 4.656084656084657,81.26984126984128 4.656084656084657,80.63492063492065 4.656084656084657,80.0 4.867724867724868,79.36507936507937 4.867724867724868,78.73015873015873 4.867724867724868,78.0952380952381 4.867724867724868,77.46031746031747 4.867724867724868,76.82539682539684 4.867724867724868,76.19047619047619 4.867724867724868,75.55555555555556 5.07936507936508,74.92063492063492 5.07936507936508,74.28571428571429 5.07936507936508,73.65079365079366 5.07936507936508,73.01587301587303 5.07936507936508,72.38095238095238 5.07936507936508,71.74603174603175 5.07936507936508,71.11111111111111 5.07936507936508,70.47619047619048 4.867724867724868,69.84126984126985 4.867724867724868,69.20634920634922 4.867724867724868,68.57142857142858 4.867724867724868,67.93650793650794 4.867724867724868,67.3015873015873 4.656084656084657,66.66666666666667 4.656084656084657,66.03174603174604 4.656084656084657,65.3968253968254 4.444444444444445,64.76190476190477 4.444444444444445,64.12698412698413 4.2328042328042335,63.492063492063494 4.2328042328042335,62.85714285714286 4.021164021164021,62.22222222222223 4.021164021164021,61.58730158730159 3.8095238095238098,60.952380952380956 3.597883597883598,60.31746031746032 3.3862433862433865,59.682539682539684 3.3862433862433865,59.04761904761905 3.174603174603175,58.41269841269842 3.174603174603175,57.777777777777786 2.9629629629629632,57.142857142857146 2.7513227513227516,56.50793650793651 2.53968253968254,55.87301587301588 2.53968253968254,55.23809523809524 2.3280423280423284,54.60317460317461 2.1164021164021167,53.968253968253975 2.1164021164021167,53.333333333333336 1.9047619047619049,52.6984126984127 1.9047619047619049,52.06349206349207 1.6931216931216932,51.42857142857143 1.4814814814814816,50.7936507936508 1.4814814814814816,50.158730158730165 1.26984126984127,49.523809523809526 1.0582010582010584,48.88888888888889 0.8465608465608466,48.25396825396826 0.8465608465608466,47.61904761904762 0.634920634920635,46.98412698412699 0.634920634920635,46.349206349206355 0.4232804232804233,45.714285714285715 0.4232804232804233,45.07936507936508 0.4232804232804233,44.44444444444445 0.4232804232804233,43.80952380952381 0.4232804232804233,43.17460317460318 0.0,39.36507936507937" style="fill:none; stroke:#3300bb; stroke-width:1.0"  /><circle cx="0.0" cy="39.36507936507937" r="2.0" style="fill:none; stroke:#000000aa; stroke-width:0.25" /><circle cx="133.96825396825398" cy="0.0" r="2.0" style="fill:none; stroke:#000000aa; stroke-width:0.25" /><circle cx="156.1904761904762" cy="143.70370370370372" r="2.0" style="fill:none; stroke:#000000aa; stroke-width:0.25" /><circle cx="21.58730158730159" cy="187.08994708994712" r="2.0" style="fill:none; stroke:#000000aa; stroke-width:0.25" /><circle cx="0.4232804232804233" cy="39.57671957671958" r="2.0" style="fill:none; stroke:#ff3366aa; stroke-width:0.25" /><circle cx="133.96825396825398" cy="0.634920634920635" r="2.0" style="fill:none; stroke:#ff3366aa; stroke-width:0.25" /><circle cx="156.4021164021164" cy="143.0687830687831" r="2.0" style="fill:none; stroke:#ff3366aa; stroke-width:0.25" /><circle cx="21.58730158730159" cy="186.66666666666669" r="2.0" style="fill:none; stroke:#ff3366aa; stroke-width:0.25" /><polyline points="12.063492063492065,37.248677248677254 11.428571428571429,37.248677248677254 11.005291005291006,37.67195767195768 10.370370370370372,37.67195767195768 9.735449735449736,37.883597883597886 9.100529100529101,37.883597883597886 8.465608465608467,38.095238095238095 7.830687830687832,38.095238095238095 7.195767195767196,38.30687830687831 6.560846560846561,38.30687830687831 5.9259259259259265,38.51851851851852 5.291005291005291,38.51851851851852 4.656084656084657,38.51851851851852 4.021164021164021,38.730158730158735 3.3862433862433865,38.730158730158735" style="fill:none; stroke:#001100; stroke-width:1.0" /><polyline points="1.6931216931216932,51.42857142857143 1.4814814814814816,50.7936507936508 1.4814814814814816,50.158730158730165 1.26984126984127,49.523809523809526 1.0582010582010584,48.88888888888889 0.8465608465608466,48.25396825396826 0.8465608465608466,47.61904761904762 0.634920634920635,46.98412698412699 0.634920634920635,46.349206349206355 0.4232804232804233,45.714285714285715 0.4232804232804233,45.07936507936508 0.4232804232804233,44.44444444444445 0.4232804232804233,43.80952380952381 0.4232804232804233,43.17460317460318 0.4232804232804233,42.539682539682545" style="fill:none; stroke:#000011; stroke-width:1.0" /><polyline points="135.44973544973547,12.063492063492065 135.44973544973547,11.428571428571429 135.23809523809524,10.793650793650794 135.23809523809524,10.15873015873016 135.23809523809524,9.523809523809524 135.02645502645504,8.88888888888889 135.02645502645504,8.253968253968255 135.02645502645504,7.6190476190476195 135.02645502645504,6.984126984126985 135.02645502645504,6.34920634920635 134.81481481481484,5.714285714285714 134.81481481481484,5.07936507936508 134.6031746031746,4.444444444444445 134.3915343915344,3.8095238095238098" style="fill:none; stroke:#001100; stroke-width:1.0" /><polyline points="122.53968253968254,0.8465608465608466 123.17460317460318,0.8465608465608466 123.80952380952382,1.0582010582010584 124.44444444444446,1.0582010582010584 125.07936507936509,0.8465608465608466 125.71428571428572,0.634920634920635 126.34920634920636,0.634920634920635 126.98412698412699,0.634920634920635 127.61904761904763,0.634920634920635 128.25396825396825,0.4232804232804233 128.88888888888889,0.634920634920635 129.31216931216932,0.21164021164021166 129.94708994708995,0.21164021164021166 130.58201058201058,0.21164021164021166" style="fill:none; stroke:#000011; stroke-width:1.0" /><polyline points="144.55026455026456,143.0687830687831 145.1851851851852,143.0687830687831 145.82010582010582,143.2804232804233 146.45502645502646,143.2804232804233 147.0899470899471,143.2804232804233 147.72486772486775,143.2804232804233 148.35978835978838,143.4920634920635 148.99470899470901,143.4920634920635 149.62962962962965,143.4920634920635 150.26455026455028,143.4920634920635 150.8994708994709,143.4920634920635 151.53439153439155,143.4920634920635 152.16931216931218,143.4920634920635 152.8042328042328,143.4920634920635 153.43915343915344,143.4920634920635" style="fill:none; stroke:#001100; stroke-width:1.0" /><polyline points="156.82539682539684,131.42857142857144 156.61375661375664,132.06349206349208 156.61375661375664,132.6984126984127 156.61375661375664,133.33333333333334 156.4021164021164,133.96825396825398 156.4021164021164,134.6031746031746 156.4021164021164,135.23809523809524 156.4021164021164,135.87301587301587 156.4021164021164,136.5079365079365 156.4021164021164,137.14285714285717 156.4021164021164,137.7777777777778 156.4021164021164,138.41269841269843 156.4021164021164,139.04761904761907 156.4021164021164,139.6825396825397" style="fill:none; stroke:#000011; stroke-width:1.0" /><polyline points="17.354497354497354,175.44973544973547 17.566137566137566,176.0846560846561 17.77777777777778,176.71957671957674 17.98941798941799,177.35449735449737 18.201058201058203,177.989417989418 18.624338624338627,178.62433862433863 18.83597883597884,179.25925925925927 19.047619047619047,179.8941798941799 19.047619047619047,180.52910052910053 19.25925925925926,181.16402116402116 19.682539682539684,181.79894179894183 19.894179894179896,182.43386243386246 20.105820105820108,183.0687830687831 20.31746031746032,183.70370370370372" style="fill:none; stroke:#001100; stroke-width:1.0" /><polyline points="31.95767195767196,181.16402116402116 31.322751322751326,181.5873015873016 30.68783068783069,182.01058201058203 30.052910052910054,182.22222222222223 29.41798941798942,182.64550264550266 28.783068783068785,182.85714285714286 28.35978835978836,183.2804232804233 27.724867724867728,183.4920634920635 27.089947089947092,183.91534391534393 26.455026455026456,184.12698412698415 25.820105820105823,184.33862433862436 25.3968253968254,184.7619047619048 24.761904761904763,185.1851851851852" style="fill:none; stroke:#000011; stroke-width:1.0" /><polyline points="3.3862433862433865,38.730158730158735 -17.566137566137566,42.32804232804233" style="fill:none; stroke:#ffaa00; stroke-width:0.4" /><polyline points="0.4232804232804233,42.539682539682545 -2.53968253968254,21.58730158730159" style="fill:none; stroke:#aaff00; stroke-width:0.4" /><polyline points="134.3915343915344,3.8095238095238098 131.64021164021165,-17.142857142857146" style="fill:none; stroke:#ffaa00; stroke-width:0.4" /><polyline points="130.58201058201058,0.21164021164021166 151.74603174603175,-1.4814814814814816" style="fill:none; stroke:#aaff00; stroke-width:0.4" /><polyline points="153.43915343915344,143.4920634920635 174.6031746031746,144.55026455026456" style="fill:none; stroke:#ffaa00; stroke-width:0.4" /><polyline points="156.4021164021164,139.6825396825397 155.34391534391534,160.84656084656086" style="fill:none; stroke:#aaff00; stroke-width:0.4" /><polyline points="20.31746031746032,183.70370370370372 27.513227513227516,203.59788359788362" style="fill:none; stroke:#ffaa00; stroke-width:0.4" /><polyline points="24.761904761904763,185.1851851851852 6.34920634920635,195.55555555555557" style="fill:none; stroke:#aaff00; stroke-width:0.4" /><circle cx="80.0" cy="98.62433862433863" r="1.0" style="fill:#444444; stroke-width:0" /><circle cx="81.6931216931217" cy="125.71428571428572" r="10.582010582010582" style="fill:#ff770022; stroke-width:0" /><circle cx="81.6931216931217" cy="125.71428571428572" r="1.0" style="fill:#ff7700; stroke-width:0" /></svg>