<?xml version="1.0" encoding="UTF-8" standalone="no"?><svg width="448.8888888888889" height="652.6984126984128" viewBox="-10 -10 169.62962962962965 237.56613756613757" xmlns="http://www.w3.org/2000/svg" xmlns:xlink="http://www.w3.org/1999/xlink"><polyline points="17.77777777777778,26.455026455026456 22.010582010582013,27.513227513227516 22.645502645502646,27.513227513227516 23.280423280423282,27.724867724867728 23.915343915343918,27.93650793650794 24.55026455026455,28.14814814814815 25.185185185185187,28.35978835978836 25.820105820105823,28.571428571428573 26.455026455026456,28.783068783068785 27.089947089947092,28.783068783068785 27.724867724867728,28.994708994708997 28.35978835978836,29.20634920634921 28.994708994708997,29.20634920634921 29.629629629629633,29.629629629629633 30.264550264550266,29.629629629629633 30.899470899470902,29.841269841269842 31.53439153439154,30.052910052910054 32.16931216931217,30.052910052910054 32.804232804232804,30.264550264550266 33.43915343915344,30.476190476190478 34.074074074074076,30.476190476190478 34.70899470899471,30.68783068783069 35.34391534391535,30.899470899470902 35.97883597883598,31.111111111111114 36.613756613756614,31.322751322751326 37.248677248677254,31.111111111111114 37.883597883597886,31.322751322751326 38.51851851851852,31.53439153439154 39.15343915343916,31.746031746031747 39.78835978835979,31.95767195767196 40.423280423280424,31.95767195767196 41.058201058201064,32.16931216931217 41.6931216931217,32.38095238095239 42.32804232804233,32.592592592592595 42.96296296296297,32.804232804232804 43.5978835978836,33.01587301587302 44.232804232804234,33.01587301587302 44.867724867724874,33.22751322751323 45.50264550264551,33.43915343915344 46.13756613756614,33.65079365079365 46.77248677248678,33.65079365079365 47.40740740740741,33.86243386243387 48.042328042328045,34.074074074074076 48.677248677248684,34.074074074074076 49.31216931216932,34.28571428571429 49.94708994708995,34.4973544973545 50.58201058201058,34.4973544973545 51.21693121693122,34.4973544973545 51.851851851851855,34.70899470899471 52.48677248677249,34.70899470899471 53.12169312169313,34.70899470899471 53.75661375661376,34.70899470899471 54.39153439153439,34.4973544973545 55.02645502645503,34.4973544973545 55.661375661375665,34.4973544973545 56.2962962962963,34.28571428571429 56.93121693121694,34.28571428571429 57.56613756613757,34.074074074074076 58.2010582010582,33.86243386243387 58.83597883597884,33.65079365079365 59.470899470899475,33.22751322751323 60.10582010582011,33.01587301587302 60.74074074074075,32.592592592592595 61.16402116402117,32.16931216931217 61.798941798941804,31.746031746031747 62.22222222222223,31.322751322751326 62.64550264550265,30.899470899470902 63.06878306878308,30.264550264550266 63.492063492063494,29.629629629629633 63.70370370370371,28.994708994708997 63.91534391534392,28.35978835978836 63.91534391534392,27.724867724867728 64.12698412698413,27.089947089947092 64.12698412698413,26.455026455026456 64.12698412698413,25.820105820105823 63.91534391534392,25.185185185185187 63.70370370370371,24.55026455026455 63.492063492063494,23.915343915343918 63.280423280423285,23.280423280423282 63.06878306878308,22.645502645502646 62.64550264550265,22.010582010582013 62.43386243386244,21.375661375661377 62.01058201058201,20.740740740740744 61.58730158730159,20.105820105820108 61.37566137566138,19.47089947089947 60.952380952380956,18.83597883597884 60.74074074074075,18.201058201058203 60.31746031746032,17.566137566137566 60.10582010582011,16.931216931216934 59.8941798941799,16.296296296296298 59.682539682539684,15.661375661375663 59.25925925925927,15.026455026455027 59.04761904761905,14.391534391534393 58.83597883597884,13.756613756613758 58.62433862433863,13.121693121693122 58.62433862433863,12.486772486772487 58.62433862433863,11.851851851851853 58.62433862433863,11.216931216931219 58.62433862433863,10.582010582010582 58.62433862433863,9.947089947089948 58.83597883597884,9.312169312169313 59.04761904761905,8.677248677248677 59.25925925925927,8.042328042328043 59.470899470899475,7.407407407407408 59.8941798941799,6.772486772486773 60.31746031746032,6.137566137566138 60.74074074074075,5.502645502645503 61.16402116402117,5.07936507936508 61.58730158730159,4.656084656084657 62.01058201058201,4.2328042328042335 62.64550264550265,3.8095238095238098 63.06878306878308,3.3862433862433865 63.70370370370371,2.9629629629629632 64.33862433862434,2.7513227513227516 64.97354497354497,2.3280423280423284 65.60846560846561,2.1164021164021167 66.24338624338625,1.6931216931216932 66.87830687830689,1.6931216931216932 67.51322751322752,1.4814814814814816 68.14814814814815,1.26984126984127 68.78306878306879,1.0582010582010584 69.41798941798942,1.0582010582010584 70.05291005291006,0.8465608465608466 70.6878306878307,0.8465608465608466 71.32275132275133,0.634920634920635 71.95767195767196,0.634920634920635 72.38095238095238,0.21164021164021166 73.01587301587303,0.21164021164021166 73.65079365079366,0.21164021164021166 74.28571428571429,0.21164021164021166 74.92063492063492,0.21164021164021166 75.55555555555556,0.21164021164021166 76.19047619047619,0.4232804232804233 76.82539682539684,0.4232804232804233 77.46031746031747,0.4232804232804233 78.0952380952381,0.634920634920635 78.73015873015873,0.634920634920635 79.36507936507937,0.634920634920635 80.0,0.8465608465608466 80.63492063492065,1.0582010582010584 81.26984126984128,1.0582010582010584 81.90476190476191,1.4814814814814816 82.53968253968254,1.6931216931216932 83.17460317460318,1.9047619047619049 83.80952380952381,2.1164021164021167 84.44444444444446,2.3280423280423284 85.07936507936509,2.7513227513227516 85.71428571428572,2.9629629629629632 86.34920634920636,3.3862433862433865 86.98412698412699,3.597883597883598 87.61904761904762,4.021164021164021 88.25396825396827,4.444444444444445 88.8888888888889,4.867724867724868 89.31216931216932,5.291005291005291 89.73544973544975,5.714285714285714 90.15873015873017,6.137566137566138 90.58201058201058,6.772486772486773 90.7936507936508,7.407407407407408 91.21693121693123,8.042328042328043 91.42857142857143,8.677248677248677 91.64021164021165,9.312169312169313 91.64021164021165,9.947089947089948 91.85185185185186,10.582010582010582 91.85185185185186,11.216931216931219 91.85185185185186,11.851851851851853 91.85185185185186,12.486772486772487 91.64021164021165,13.121693121693122 91.64021164021165,13.756613756613758 91.64021164021165,14.391534391534393 91.21693121693123,15.026455026455027 91.21693121693123,15.661375661375663 90.7936507936508,16.296296296296298 90.37037037037038,16.931216931216934 89.94708994708995,17.354497354497354 89.52380952380953,17.77777777777778 89.1005291005291,18.412698412698415 88.67724867724868,18.83597883597884 88.25396825396827,19.47089947089947 87.83068783068784,19.894179894179896 87.40740740740742,20.529100529100532 86.98412698412699,21.164021164021165 86.56084656084657,21.7989417989418 86.34920634920636,22.433862433862437 85.92592592592594,23.06878306878307 85.5026455026455,23.703703703703706 85.29100529100529,24.338624338624342 85.07936507936509,24.973544973544975 84.65608465608466,25.60846560846561 84.44444444444446,26.243386243386244 84.23280423280424,26.87830687830688 84.02116402116403,27.513227513227516 83.80952380952381,28.14814814814815 83.59788359788361,28.783068783068785 83.3862433862434,29.41798941798942 83.3862433862434,30.052910052910054 83.17460317460318,30.68783068783069 82.96296296296298,31.322751322751326 82.96296296296298,31.95767195767196 82.75132275132276,32.592592592592595 82.75132275132276,33.22751322751323 82.53968253968254,33.86243386243387 82.53968253968254,34.4973544973545 82.53968253968254,35.13227513227513 82.53968253968254,35.76719576719577 82.75132275132276,36.402116402116405 82.96296296296298,37.03703703703704 83.17460317460318,37.67195767195768 83.3862433862434,38.30687830687831 83.80952380952381,38.730158730158735 84.23280423280424,39.36507936507937 84.65608465608466,39.78835978835979 85.07936507936509,40.211640211640216 85.5026455026455,40.63492063492064 86.13756613756614,40.84656084656085 86.77248677248677,41.26984126984127 87.40740740740742,41.48148148148149 88.04232804232805,41.6931216931217 88.67724867724868,41.6931216931217 89.31216931216932,41.6931216931217 89.94708994708995,41.904761904761905 90.58201058201058,41.904761904761905 91.21693121693123,41.6931216931217 91.85185185185186,41.6931216931217 92.4867724867725,41.48148148148149 93.12169312169313,41.48148148148149 93.75661375661376,41.26984126984127 94.39153439153439,41.26984126984127 95.02645502645504,41.058201058201064 95.66137566137567,41.058201058201064 96.2962962962963,40.84656084656085 96.93121693121694,40.63492063492064 97.56613756613757,40.63492063492064 98.2010582010582,40.423280423280424 98.83597883597885,40.211640211640216 99.47089947089948,40.0 100.10582010582011,39.78835978835979 100.74074074074075,39.57671957671958 101.37566137566138,39.57671957671958 102.01058201058201,39.36507936507937 102.64550264550266,38.94179894179894 103.28042328042329,38.730158730158735 103.91534391534393,38.51851851851852 104.55026455026456,38.30687830687831 105.18518518518519,38.095238095238095 105.82010582010582,37.67195767195768 106.45502645502647,37.46031746031746 107.0899470899471,37.248677248677254 107.72486772486774,36.82539682539683 108.35978835978837,36.402116402116405 108.994708994709,36.19047619047619 109.62962962962963,35.97883597883598 110.26455026455027,35.76719576719577 110.89947089947091,35.55555555555556 111.53439153439155,35.34391534391535 112.16931216931218,35.13227513227513 115.55555555555557,33.65079365079365" style="fill:none; stroke:#cc0000; stroke-width:1.0"  /><polyline points="115.55555555555557,33.65079365079365 115.34391534391536,36.82539682539683 115.34391534391536,37.46031746031746 115.34391534391536,38.095238095238095 115.13227513227514,38.730158730158735 115.13227513227514,39.36507936507937 114.92063492063492,40.0 114.92063492063492,40.63492063492064 114.70899470899472,41.26984126984127 114.70899470899472,41.904761904761905 114.70899470899472,42.539682539682545 114.70899470899472,43.17460317460318 114.49735449735451,43.80952380952381 114.49735449735451,44.44444444444445 114.49735449735451,45.07936507936508 114.49735449735451,45.714285714285715 114.49735449735451,46.349206349206355 114.28571428571429,46.98412698412699 114.28571428571429,47.61904761904762 114.28571428571429,48.25396825396826 114.28571428571429,48.88888888888889 114.28571428571429,49.523809523809526 114.28571428571429,50.158730158730165 114.28571428571429,50.7936507936508 114.28571428571429,51.42857142857143 114.07407407407408,52.06349206349207 114.07407407407408,52.6984126984127 114.07407407407408,53.333333333333336 114.07407407407408,53.968253968253975 113.86243386243387,54.60317460317461 113.86243386243387,55.23809523809524 113.86243386243387,55.87301587301588 113.86243386243387,56.50793650793651 113.86243386243387,57.142857142857146 113.86243386243387,57.777777777777786 113.65079365079366,58.41269841269842 113.65079365079366,59.04761904761905 113.65079365079366,59.682539682539684 113.65079365079366,60.31746031746032 113.65079365079366,60.952380952380956 113.65079365079366,61.58730158730159 113.43915343915344,62.22222222222223 113.43915343915344,62.85714285714286 113.43915343915344,63.492063492063494 113.43915343915344,64.12698412698413 113.43915343915344,64.76190476190477 113.43915343915344,65.3968253968254 113.43915343915344,66.03174603174604 113.43915343915344,66.66666666666667 113.43915343915344,67.3015873015873 113.22751322751324,67.93650793650794 113.22751322751324,68.57142857142858 113.22751322751324,69.20634920634922 113.22751322751324,69.84126984126985 113.22751322751324,70.47619047619048 113.22751322751324,71.11111111111111 113.22751322751324,71.74603174603175 113.22751322751324,72.38095238095238 113.22751322751324,73.01587301587303 113.22751322751324,73.65079365079366 113.22751322751324,74.28571428571429 113.22751322751324,74.92063492063492 113.22751322751324,75.55555555555556 113.22751322751324,76.19047619047619 113.22751322751324,76.82539682539684 113.22751322751324,77.46031746031747 113.22751322751324,78.0952380952381 113.22751322751324,78.73015873015873 113.22751322751324,79.36507936507937 113.22751322751324,80.0 113.22751322751324,80.63492063492065 113.22751322751324,81.26984126984128 113.22751322751324,81.90476190476191 113.22751322751324,82.53968253968254 113.22751322751324,83.17460317460318 113.43915343915344,83.80952380952381 113.43915343915344,84.44444444444446 113.43915343915344,85.07936507936509 113.43915343915344,85.71428571428572 113.43915343915344,86.34920634920636 113.43915343915344,86.98412698412699 113.43915343915344,87.61904761904762 113.43915343915344,88.25396825396827 113.43915343915344,88.8888888888889 113.43915343915344,89.52380952380953 113.43915343915344,90.15873015873017 113.43915343915344,90.7936507936508 113.43915343915344,91.42857142857143 113.43915343915344,92.06349206349208 113.43915343915344,92.69841269841271 113.43915343915344,93.33333333333334 113.43915343915344,93.96825396825398 113.43915343915344,94.60317460317461 113.43915343915344,95.23809523809524 113.43915343915344,95.87301587301587 113.43915343915344,96.50793650793652 113.43915343915344,97.14285714285715 113.43915343915344,97.77777777777779 113.43915343915344,98.41269841269842 113.43915343915344,99.04761904761905 113.43915343915344,99.68253968253968 113.43915343915344,100.31746031746033 113.43915343915344,100.95238095238096 113.43915343915344,101.5873015873016 113.65079365079366,102.22222222222223 113.65079365079366,102.85714285714286 113.65079365079366,103.4920634920635 113.65079365079366,104.12698412698414 113.86243386243387,104.76190476190477 113.86243386243387,105.3968253968254 114.07407407407408,106.03174603174604 114.07407407407408,106.66666666666667 114.28571428571429,107.3015873015873 114.28571428571429,107.93650793650795 114.49735449735451,108.57142857142858 114.70899470899472,109.20634920634922 114.92063492063492,109.84126984126985 115.13227513227514,110.47619047619048 115.34391534391536,111.11111111111111 115.76719576719577,111.74603174603176 115.97883597883599,112.3809523809524 116.4021164021164,113.01587301587303 116.82539682539684,113.65079365079366 117.24867724867725,114.07407407407408 117.67195767195768,114.49735449735451 118.0952380952381,114.92063492063492 118.51851851851853,115.34391534391536 119.15343915343917,115.55555555555557 119.7883597883598,115.97883597883599 120.42328042328043,116.1904761904762 121.05820105820106,116.4021164021164 121.6931216931217,116.61375661375662 122.32804232804234,116.61375661375662 122.96296296296298,116.61375661375662 123.59788359788361,116.61375661375662 124.23280423280424,116.4021164021164 124.86772486772487,116.4021164021164 125.5026455026455,116.1904761904762 126.13756613756615,116.1904761904762 126.77248677248679,115.97883597883599 127.40740740740742,115.76719576719577 128.04232804232805,115.55555555555557 128.67724867724868,115.55555555555557 129.31216931216932,115.34391534391536 129.94708994708995,115.13227513227514 130.58201058201058,114.92063492063492 131.21693121693121,114.70899470899472 131.85185185185185,114.49735449735451 132.4867724867725,114.49735449735451 133.12169312169314,114.28571428571429 133.75661375661377,114.07407407407408 134.3915343915344,114.07407407407408 135.02645502645504,113.86243386243387 135.66137566137567,113.86243386243387 136.2962962962963,113.65079365079366 136.93121693121694,113.65079365079366 137.56613756613757,113.65079365079366 138.2010582010582,113.65079365079366 138.83597883597884,113.65079365079366 139.47089947089947,113.65079365079366 140.10582010582013,113.65079365079366 140.74074074074076,113.65079365079366 141.3756613756614,113.86243386243387 142.01058201058203,113.86243386243387 142.64550264550266,113.86243386243387 143.2804232804233,114.28571428571429 143.91534391534393,114.70899470899472 144.33862433862436,115.13227513227514 144.973544973545,115.55555555555557 145.39682539682542,116.1904761904762 145.82010582010582,116.61375661375662 146.24338624338625,117.24867724867725 146.66666666666669,117.67195767195768 146.8783068783069,118.30687830687832 147.30158730158732,118.73015873015873 147.72486772486775,119.15343915343917 147.93650793650795,119.7883597883598 148.35978835978838,120.42328042328043 148.57142857142858,121.05820105820106 148.78306878306879,121.6931216931217 148.78306878306879,122.32804232804234 148.99470899470901,122.96296296296298 149.20634920634922,123.59788359788361 149.20634920634922,124.23280423280424 149.20634920634922,124.86772486772487 149.20634920634922,125.5026455026455 149.20634920634922,126.13756613756615 149.20634920634922,126.77248677248679 149.20634920634922,127.40740740740742 148.99470899470901,128.04232804232805 148.99470899470901,128.67724867724868 148.78306878306879,129.31216931216932 148.57142857142858,129.94708994708995 148.35978835978838,130.58201058201058 148.14814814814815,131.21693121693121 147.72486772486775,131.85185185185185 147.51322751322752,132.4867724867725 147.30158730158732,133.12169312169314 147.0899470899471,133.75661375661377 146.66666666666669,134.3915343915344 146.24338624338625,135.02645502645504 145.82010582010582,135.66137566137567 145.39682539682542,136.0846560846561 144.973544973545,136.5079365079365 144.55026455026456,136.93121693121694 143.91534391534393,137.35449735449737 143.4920634920635,137.7777777777778 142.85714285714286,138.2010582010582 142.43386243386246,138.62433862433863 141.7989417989418,138.83597883597884 141.16402116402116,139.04761904761907 140.52910052910053,139.47089947089947 139.8941798941799,139.6825396825397 139.25925925925927,139.6825396825397 138.62433862433863,139.8941798941799 137.989417989418,140.10582010582013 137.35449735449737,140.10582010582013 136.71957671957674,140.31746031746033 136.0846560846561,140.31746031746033 135.44973544973547,140.31746031746033 134.81481481481484,140.52910052910053 134.17989417989418,140.52910052910053 133.54497354497354,140.52910052910053 132.9100529100529,140.52910052910053 132.27513227513228,140.52910052910053 131.64021164021165,140.74074074074076 131.005291005291,140.74074074074076 130.37037037037038,140.74074074074076 129.73544973544975,140.52910052910053 129.10052910052912,140.52910052910053 128.46560846560848,140.52910052910053 127.83068783068784,140.31746031746033 127.1957671957672,140.10582010582013 126.56084656084657,139.8941798941799 125.92592592592594,139.6825396825397 125.2910052910053,139.47089947089947 124.65608465608466,139.25925925925927 124.02116402116403,139.04761904761907 123.3862433862434,138.83597883597884 122.75132275132276,138.83597883597884 122.11640211640213,138.83597883597884 121.4814814814815,138.62433862433863 120.84656084656086,138.62433862433863 120.21164021164022,138.62433862433863 119.57671957671958,138.83597883597884 118.94179894179895,138.83597883597884 118.30687830687832,139.04761904761907 117.67195767195768,139.25925925925927 117.03703703703705,139.47089947089947 116.4021164021164,139.8941798941799 115.76719576719577,140.31746031746033 115.34391534391536,140.74074074074076 114.92063492063492,141.16402116402116 114.49735449735451,141.7989417989418 114.07407407407408,142.43386243386246 113.86243386243387,143.0687830687831 113.65079365079366,143.70370370370372 113.43915343915344,144.33862433862436 113.22751322751324,144.973544973545 113.22751322751324,145.60846560846562 113.22751322751324,146.24338624338625 113.22751322751324,146.8783068783069 113.22751322751324,147.51322751322752 113.22751322751324,148.14814814814815 113.22751322751324,148.78306878306879 113.22751322751324,149.41798941798942 113.22751322751324,150.05291005291005 113.22751322751324,150.6878306878307 113.22751322751324,151.32275132275134 113.22751322751324,151.95767195767198 113.22751322751324,152.5925925925926 113.22751322751324,153.22751322751324 113.43915343915344,153.86243386243387 113.43915343915344,154.4973544973545 113.43915343915344,155.13227513227514 113.43915343915344,155.76719576719577 113.43915343915344,156.4021164021164 113.43915343915344,157.03703703703704 113.43915343915344,157.67195767195767 113.43915343915344,158.30687830687833 113.65079365079366,158.94179894179896 113.65079365079366,159.5767195767196 113.65079365079366,160.21164021164023 113.65079365079366,160.84656084656086 113.65079365079366,161.4814814814815 113.86243386243387,162.11640211640213 113.86243386243387,162.75132275132276 113.86243386243387,163.3862433862434 113.86243386243387,164.02116402116403 113.86243386243387,164.65608465608466 114.07407407407408,165.2910052910053 114.07407407407408,165.92592592592595 114.07407407407408,166.56084656084658 114.07407407407408,167.19576719576722 114.28571428571429,167.83068783068785 114.28571428571429,168.46560846560848 114.28571428571429,169.10052910052912 114.49735449735451,169.73544973544975 114.49735449735451,170.37037037037038 114.49735449735451,171.005291005291 114.49735449735451,171.64021164021165 114.70899470899472,172.27513227513228 114.70899470899472,172.9100529100529 114.92063492063492,173.54497354497354 114.92063492063492,174.1798941798942 115.13227513227514,174.81481481481484 114.92063492063492,175.44973544973547 115.13227513227514,176.0846560846561 115.55555555555557,178.83597883597884" style="fill:none; stroke:#999900; stroke-width:1.0"  /><polyline points="115.55555555555557,178.83597883597884 112.3809523809524,179.04761904761907 111.74603174603176,179.04761904761907 111.11111111111111,179.04761904761907 110.47619047619048,179.25925925925927 109.84126984126985,179.25925925925927 109.20634920634922,179.25925925925927 108.57142857142858,179.25925925925927 107.93650793650795,179.4708994708995 107.3015873015873,179.6825396825397 106.66666666666667,179.6825396825397 106.03174603174604,179.6825396825397 105.3968253968254,179.6825396825397 104.76190476190477,179.6825396825397 104.12698412698414,179.8941798941799 103.4920634920635,179.8941798941799 102.85714285714286,179.8941798941799 102.22222222222223,179.8941798941799 101.5873015873016,180.10582010582013 100.95238095238096,180.10582010582013 100.31746031746033,180.10582010582013 99.68253968253968,180.10582010582013 99.04761904761905,180.10582010582013 98.41269841269842,180.10582010582013 97.77777777777779,180.10582010582013 97.14285714285715,180.10582010582013 96.50793650793652,180.10582010582013 95.87301587301587,180.10582010582013 95.23809523809524,180.10582010582013 94.60317460317461,180.10582010582013 93.96825396825398,180.10582010582013 93.33333333333334,180.31746031746033 92.69841269841271,180.31746031746033 92.06349206349208,180.31746031746033 91.42857142857143,180.31746031746033 90.7936507936508,180.31746031746033 90.15873015873017,180.31746031746033 89.52380952380953,180.31746031746033 88.8888888888889,180.31746031746033 88.25396825396827,180.31746031746033 87.61904761904762,180.31746031746033 86.98412698412699,180.31746031746033 86.34920634920636,180.31746031746033 85.71428571428572,180.10582010582013 85.07936507936509,180.10582010582013 84.44444444444446,180.10582010582013 83.80952380952381,180.10582010582013 83.17460317460318,180.10582010582013 82.53968253968254,180.10582010582013 81.90476190476191,180.10582010582013 81.26984126984128,180.10582010582013 80.63492063492065,180.10582010582013 80.0,180.10582010582013 79.36507936507937,180.10582010582013 78.73015873015873,180.31746031746033 78.0952380952381,180.31746031746033 77.46031746031747,180.52910052910053 76.82539682539684,180.74074074074076 76.19047619047619,180.95238095238096 75.55555555555556,181.3756613756614 74.92063492063492,181.79894179894183 74.49735449735451,182.22222222222223 73.86243386243387,182.64550264550266 73.43915343915344,183.0687830687831 73.01587301587303,183.70370370370372 72.5925925925926,184.12698412698415 72.38095238095238,184.7619047619048 71.95767195767196,185.39682539682542 71.74603174603175,186.03174603174605 71.53439153439155,186.66666666666669 71.32275132275133,187.30158730158732 71.11111111111111,187.93650793650795 70.8994708994709,188.57142857142858 71.11111111111111,189.20634920634922 71.11111111111111,189.84126984126985 70.8994708994709,190.47619047619048 70.8994708994709,191.11111111111111 70.8994708994709,191.74603174603175 70.8994708994709,192.3809523809524 70.8994708994709,193.01587301587304 71.11111111111111,193.65079365079367 71.11111111111111,194.2857142857143 71.32275132275133,194.92063492063494 71.53439153439155,195.55555555555557 71.74603174603175,196.1904761904762 71.95767195767196,196.82539682539684 72.38095238095238,197.46031746031747 72.5925925925926,198.0952380952381 72.80423280423281,198.73015873015873 73.22751322751323,199.15343915343917 73.43915343915344,199.7883597883598 73.65079365079366,200.42328042328043 74.07407407407408,201.05820105820106 74.28571428571429,201.6931216931217 74.49735449735451,202.32804232804233 74.70899470899471,202.962962962963 75.13227513227514,203.59788359788362 75.34391534391536,204.23280423280426 75.55555555555556,204.8677248677249 75.55555555555556,205.50264550264552 75.55555555555556,206.13756613756615 75.76719576719577,206.7724867724868 75.55555555555556,207.40740740740742 75.55555555555556,208.04232804232805 75.34391534391536,208.67724867724868 75.13227513227514,209.31216931216932 74.92063492063492,209.94708994708995 74.70899470899471,210.5820105820106 74.28571428571429,211.005291005291 73.86243386243387,211.64021164021165 73.43915343915344,212.06349206349208 73.01587301587303,212.4867724867725 72.5925925925926,212.91005291005294 72.16931216931218,213.33333333333334 71.53439153439155,213.75661375661377 70.8994708994709,213.96825396825398 70.47619047619048,214.3915343915344 69.84126984126985,214.6031746031746 69.20634920634922,214.81481481481484 68.57142857142858,215.02645502645504 67.93650793650794,215.44973544973547 67.3015873015873,215.44973544973547 66.66666666666667,215.8730158730159 66.03174603174604,216.0846560846561 65.3968253968254,216.2962962962963 64.76190476190477,216.50793650793653 64.12698412698413,216.71957671957674 63.492063492063494,216.71957671957674 62.85714285714286,216.93121693121694 62.22222222222223,216.93121693121694 61.58730158730159,217.14285714285717 60.952380952380956,217.14285714285717 60.31746031746032,217.14285714285717 59.682539682539684,217.14285714285717 59.04761904761905,217.14285714285717 58.41269841269842,217.14285714285717 57.777777777777786,217.14285714285717 57.142857142857146,217.14285714285717 56.50793650793651,217.14285714285717 55.87301587301588,216.93121693121694 55.23809523809524,216.93121693121694 54.60317460317461,216.71957671957674 53.968253968253975,216.71957671957674 53.333333333333336,216.50793650793653 52.6984126984127,216.2962962962963 52.27513227513228,215.8730158730159 51.640211640211646,215.66137566137567 51.21693121693122,215.23809523809524 50.7936507936508,214.81481481481484 50.158730158730165,214.3915343915344 49.73544973544974,213.75661375661377 49.31216931216932,213.33333333333334 49.1005291005291,212.6984126984127 48.677248677248684,212.06349206349208 48.46560846560847,211.42857142857144 48.46560846560847,210.7936507936508 48.25396825396826,210.15873015873018 48.25396825396826,209.52380952380955 48.042328042328045,208.8888888888889 48.042328042328045,208.25396825396828 48.042328042328045,207.61904761904765 48.042328042328045,206.984126984127 48.042328042328045,206.34920634920636 48.042328042328045,205.71428571428572 48.042328042328045,205.0793650793651 48.25396825396826,204.44444444444446 48.25396825396826,203.80952380952382 48.46560846560847,203.1746031746032 48.46560846560847,202.53968253968256 48.677248677248684,201.90476190476193 48.88888888888889,201.2698412698413 49.1005291005291,200.63492063492066 49.31216931216932,200.00000000000003 49.523809523809526,199.36507936507937 49.94708994708995,198.73015873015873 50.370370370370374,198.0952380952381 50.58201058201058,197.46031746031747 51.00529100529101,196.82539682539684 51.42857142857143,196.1904761904762 51.851851851851855,195.55555555555557 52.06349206349207,194.92063492063494 52.48677248677249,194.4973544973545 52.6984126984127,193.86243386243387 53.12169312169313,193.22751322751324 53.333333333333336,192.5925925925926 53.54497354497355,191.95767195767198 53.75661375661376,191.32275132275134 53.968253968253975,190.6878306878307 53.968253968253975,190.05291005291008 53.968253968253975,189.41798941798945 53.75661375661376,188.78306878306879 53.75661375661376,188.14814814814815 53.75661375661376,187.51322751322752 53.75661375661376,186.8783068783069 53.54497354497355,186.24338624338625 53.12169312169313,185.60846560846562 52.91005291005291,184.973544973545 52.6984126984127,184.33862433862436 52.27513227513228,183.91534391534393 51.851851851851855,183.2804232804233 51.42857142857143,182.85714285714286 51.00529100529101,182.43386243386246 50.370370370370374,182.01058201058203 49.73544973544974,181.5873015873016 49.1005291005291,181.16402116402116 48.46560846560847,180.95238095238096 47.830687830687836,180.74074074074076 47.195767195767196,180.74074074074076 46.560846560846564,180.52910052910053 45.92592592592593,180.52910052910053 45.29100529100529,180.52910052910053 44.65608465608466,180.52910052910053 44.021164021164026,180.52910052910053 43.386243386243386,180.52910052910053 42.75132275132275,180.52910052910053 42.11640211640212,180.74074074074076 41.48148148148149,180.74074074074076 40.84656084656085,180.74074074074076 40.211640211640216,180.74074074074076 39.57671957671958,180.74074074074076 38.94179894179894,180.95238095238096 38.30687830687831,180.95238095238096 37.67195767195768,181.16402116402116 37.03703703703704,181.3756613756614 36.402116402116405,181.3756613756614 35.76719576719577,181.3756613756614 35.13227513227513,181.3756613756614 34.4973544973545,181.5873015873016 33.86243386243387,181.5873015873016 33.22751322751323,181.79894179894183 32.592592592592595,182.01058201058203 31.95767195767196,182.01058201058203 31.322751322751326,182.01058201058203 30.68783068783069,182.01058201058203 30.052910052910054,182.22222222222223 29.41798941798942,182.22222222222223 28.783068783068785,182.43386243386246 28.14814814814815,182.64550264550266 27.513227513227516,182.64550264550266 26.87830687830688,182.85714285714286 26.243386243386244,183.0687830687831 25.60846560846561,183.0687830687831 24.973544973544975,183.2804232804233 24.338624338624342,183.4920634920635 23.703703703703706,183.70370370370372 23.06878306878307,183.91534391534393 22.433862433862437,184.12698412698415 21.7989417989418,184.33862433862436 21.164021164021165,184.55026455026456 20.529100529100532,184.55026455026456 16.931216931216934,185.39682539682542" style="fill:none; stroke:#00aa99; stroke-width:1.0"  /><polyline points="16.931216931216934,185.39682539682542 17.98941798941799,182.22222222222223 18.201058201058203,181.5873015873016 18.412698412698415,180.95238095238096 18.624338624338627,180.31746031746033 18.83597883597884,179.6825396825397 19.047619047619047,179.04761904761907 19.25925925925926,178.41269841269843 19.47089947089947,177.7777777777778 19.682539682539684,177.14285714285717 19.894179894179896,176.50793650793653 20.105820105820108,175.87301587301587 20.31746031746032,175.23809523809524 20.529100529100532,174.6031746031746 20.740740740740744,173.96825396825398 20.952380952380953,173.33333333333334 21.164021164021165,172.6984126984127 21.375661375661377,172.06349206349208 21.58730158730159,171.42857142857144 21.7989417989418,170.7936507936508 22.010582010582013,170.15873015873018 22.222222222222225,169.52380952380955 22.433862433862437,168.8888888888889 22.645502645502646,168.25396825396825 22.857142857142858,167.61904761904762 23.06878306878307,166.984126984127 23.280423280423282,166.34920634920636 23.492063492063494,165.71428571428572 23.703703703703706,165.0793650793651 23.915343915343918,164.44444444444446 24.12698412698413,163.80952380952382 24.338624338624342,163.1746031746032 24.55026455026455,162.53968253968256 24.761904761904763,161.90476190476193 25.185185185185187,161.2698412698413 25.3968253968254,160.63492063492066 25.60846560846561,160.0 25.820105820105823,159.36507936507937 26.031746031746035,158.73015873015873 26.243386243386244,158.0952380952381 26.455026455026456,157.46031746031747 26.666666666666668,156.82539682539684 26.87830687830688,156.1904761904762 27.301587301587304,155.55555555555557 27.513227513227516,154.92063492063494 27.724867724867728,154.2857142857143 27.724867724867728,153.65079365079367 27.93650793650794,153.01587301587304 28.14814814814815,152.38095238095238 28.571428571428573,151.74603174603175 28.783068783068785,151.11111111111111 28.994708994708997,150.47619047619048 29.20634920634921,149.84126984126985 29.629629629629633,149.20634920634922 29.841269841269842,148.57142857142858 30.052910052910054,147.93650793650795 30.264550264550266,147.30158730158732 30.68783068783069,146.66666666666669 30.899470899470902,146.03174603174605 31.322751322751326,145.39682539682542 31.53439153439154,144.76190476190476 31.746031746031747,144.12698412698413 31.95767195767196,143.4920634920635 32.38095238095239,142.85714285714286 32.592592592592595,142.22222222222223 32.804232804232804,141.5873015873016 33.22751322751323,140.95238095238096 33.43915343915344,140.31746031746033 33.86243386243387,139.6825396825397 34.074074074074076,139.04761904761907 34.28571428571429,138.41269841269843 34.70899470899471,137.7777777777778 34.920634920634924,137.14285714285717 35.34391534391535,136.5079365079365 35.55555555555556,135.87301587301587 35.97883597883598,135.23809523809524 36.19047619047619,134.6031746031746 36.402116402116405,133.96825396825398 36.82539682539683,133.33333333333334 37.03703703703704,132.6984126984127 37.248677248677254,132.06349206349208 37.67195767195768,131.42857142857144 37.67195767195768,130.7936507936508 37.883597883597886,130.15873015873018 38.095238095238095,129.52380952380955 38.30687830687831,128.88888888888889 38.51851851851852,128.25396825396825 38.51851851851852,127.61904761904763 38.730158730158735,126.98412698412699 38.94179894179894,126.34920634920636 38.94179894179894,125.71428571428572 39.15343915343916,125.07936507936509 39.15343915343916,124.44444444444446 39.15343915343916,123.80952380952382 39.15343915343916,123.17460317460318 39.15343915343916,122.53968253968254 39.36507936507937,121.90476190476191 39.36507936507937,121.26984126984128 39.36507936507937,120.63492063492065 39.15343915343916,120.00000000000001 39.15343915343916,119.36507936507937 38.730158730158735,118.94179894179895 38.51851851851852,118.30687830687832 38.30687830687831,117.67195767195768 37.883597883597886,117.24867724867725 37.46031746031746,116.61375661375662 37.03703703703704,116.1904761904762 36.613756613756614,115.76719576719577 35.97883597883598,115.34391534391536 35.34391534391535,115.13227513227514 34.70899470899471,114.70899470899472 34.074074074074076,114.70899470899472 33.43915343915344,114.28571428571429 32.804232804232804,114.28571428571429 32.16931216931217,114.28571428571429 31.53439153439154,114.07407407407408 30.899470899470902,114.07407407407408 30.264550264550266,114.07407407407408 29.629629629629633,114.28571428571429 28.994708994708997,114.49735449735451 28.35978835978836,114.49735449735451 27.724867724867728,114.70899470899472 27.089947089947092,114.92063492063492 26.455026455026456,115.13227513227514 25.820105820105823,115.34391534391536 25.185185185185187,115.55555555555557 24.55026455026455,115.97883597883599 23.915343915343918,116.1904761904762 23.280423280423282,116.61375661375662 22.645502645502646,116.82539682539684 22.010582010582013,117.24867724867725 21.375661375661377,117.67195767195768 20.740740740740744,118.0952380952381 20.105820105820108,118.30687830687832 19.47089947089947,118.73015873015873 19.047619047619047,119.15343915343917 18.412698412698415,119.36507936507937 17.77777777777778,119.7883597883598 17.142857142857146,120.00000000000001 16.50793650793651,120.42328042328043 15.873015873015873,120.63492063492065 15.238095238095239,120.84656084656086 14.603174603174605,120.84656084656086 13.96825396825397,121.05820105820106 13.333333333333334,121.26984126984128 12.6984126984127,121.26984126984128 12.063492063492065,121.26984126984128 11.428571428571429,121.26984126984128 10.793650793650794,121.4814814814815 10.15873015873016,121.26984126984128 9.523809523809524,121.26984126984128 8.88888888888889,121.26984126984128 8.253968253968255,121.05820105820106 7.6190476190476195,120.84656084656086 6.984126984126985,120.63492063492065 6.34920634920635,120.21164021164022 5.9259259259259265,119.7883597883598 5.502645502645503,119.36507936507937 5.07936507936508,118.94179894179895 4.656084656084657,118.51851851851853 4.2328042328042335,117.88359788359789 3.8095238095238098,117.24867724867725 3.597883597883598,116.61375661375662 3.174603174603175,115.97883597883599 2.9629629629629632,115.34391534391536 2.7513227513227516,114.70899470899472 2.3280423280423284,114.28571428571429 2.1164021164021167,113.65079365079366 1.9047619047619049,113.01587301587303 1.6931216931216932,112.3809523809524 1.4814814814814816,111.74603174603176 1.26984126984127,111.11111111111111 1.26984126984127,110.47619047619048 1.0582010582010584,109.84126984126985 0.8465608465608466,109.20634920634922 0.8465608465608466,108.57142857142858 0.634920634920635,107.93650793650795 0.634920634920635,107.3015873015873 0.634920634920635,106.66666666666667 0.634920634920635,106.03174603174604 0.4232804232804233,105.3968253968254 0.4232804232804233,104.76190476190477 0.4232804232804233,104.12698412698414 0.4232804232804233,103.4920634920635 0.4232804232804233,102.85714285714286 0.4232804232804233,102.22222222222223 0.4232804232804233,101.5873015873016 0.21164021164021166,100.95238095238096 0.21164021164021166,100.31746031746033 0.4232804232804233,99.68253968253968 0.4232804232804233,99.04761904761905 0.4232804232804233,98.41269841269842 0.634920634920635,97.77777777777779 0.634920634920635,97.14285714285715 0.8465608465608466,96.50793650793652 1.0582010582010584,95.87301587301587 1.26984126984127,95.23809523809524 1.26984126984127,94.60317460317461 1.4814814814814816,93.96825396825398 1.9047619047619049,93.33333333333334 2.1164021164021167,92.69841269841271 2.3280423280423284,92.06349206349208 2.53968253968254,91.42857142857143 2.9629629629629632,90.7936507936508 3.3862433862433865,90.15873015873017 3.8095238095238098,89.52380952380953 4.2328042328042335,88.8888888888889 4.656084656084657,88.25396825396827 5.07936507936508,87.83068783068784 5.714285714285714,87.40740740740742 6.34920634920635,86.98412698412699 6.984126984126985,86.77248677248677 7.6190476190476195,86.77248677248677 8.253968253968255,86.56084656084657 8.88888888888889,86.56084656084657 9.523809523809524,86.56084656084657 10.15873015873016,86.56084656084657 10.793650793650794,86.56084656084657 11.428571428571429,86.56084656084657 12.063492063492065,86.77248677248677 12.6984126984127,86.77248677248677 13.333333333333334,86.77248677248677 13.96825396825397,86.98412698412699 14.603174603174605,86.98412698412699 15.238095238095239,87.1957671957672 15.873015873015873,87.40740740740742 16.50793650793651,87.61904761904762 17.142857142857146,87.83068783068784 17.77777777777778,88.04232804232805 18.412698412698415,88.25396825396827 19.047619047619047,88.67724867724868 19.682539682539684,88.8888888888889 20.31746031746032,89.31216931216932 20.952380952380953,89.52380952380953 21.58730158730159,89.94708994708995 22.222222222222225,90.15873015873017 22.857142857142858,90.58201058201058 23.492063492063494,91.00529100529101 24.12698412698413,91.21693121693123 24.761904761904763,91.42857142857143 25.3968253968254,91.64021164021165 26.031746031746035,91.85185185185186 26.666666666666668,92.27513227513228 27.301587301587304,92.4867724867725 27.93650793650794,92.69841269841271 28.571428571428573,92.91005291005291 29.20634920634921,92.91005291005291 29.841269841269842,93.12169312169313 30.476190476190478,93.33333333333334 31.111111111111114,93.33333333333334 31.746031746031747,93.54497354497356 32.38095238095239,93.54497354497356 33.01587301587302,93.75661375661376 33.65079365079365,93.54497354497356 34.28571428571429,93.54497354497356 34.920634920634924,93.33333333333334 35.55555555555556,93.33333333333334 36.19047619047619,93.12169312169313 36.82539682539683,92.91005291005291 37.248677248677254,92.4867724867725 37.67195767195768,92.06349206349208 38.30687830687831,91.64021164021165 38.94179894179894,91.21693121693123 39.36507936507937,90.7936507936508 39.78835978835979,90.37037037037038 40.211640211640216,89.73544973544975 40.63492063492064,89.1005291005291 40.84656084656085,88.46560846560847 41.058201058201064,87.83068783068784 41.26984126984127,87.1957671957672 41.26984126984127,86.56084656084657 41.48148148148149,85.92592592592594 41.48148148148149,85.29100529100529 41.26984126984127,84.65608465608466 41.26984126984127,84.02116402116403 40.84656084656085,83.59788359788361 40.84656084656085,82.96296296296298 40.84656084656085,82.32804232804233 40.63492063492064,81.6931216931217 40.423280423280424,81.05820105820106 40.0,80.42328042328043 39.78835978835979,79.7883597883598 39.57671957671958,79.15343915343917 39.36507936507937,78.51851851851852 38.94179894179894,77.88359788359789 38.730158730158735,77.24867724867725 38.30687830687831,76.82539682539684 38.095238095238095,76.19047619047619 37.67195767195768,75.55555555555556 37.248677248677254,75.13227513227514 36.82539682539683,74.49735449735451 36.402116402116405,73.86243386243387 36.19047619047619,73.22751322751323 35.76719576719577,72.80423280423281 35.55555555555556,72.16931216931218 35.13227513227513,71.53439153439155 34.70899470899471,70.8994708994709 34.4973544973545,70.26455026455027 34.074074074074076,69.62962962962963 33.86243386243387,68.994708994709 33.43915343915344,68.35978835978837 33.22751322751323,67.72486772486774 32.804232804232804,67.3015873015873 32.592592592592595,66.66666666666667 32.38095238095239,66.03174603174604 31.95767195767196,65.3968253968254 31.746031746031747,64.76190476190477 31.322751322751326,64.12698412698413 31.111111111111114,63.492063492063494 30.899470899470902,62.85714285714286 30.476190476190478,62.22222222222223 30.264550264550266,61.58730158730159 29.841269841269842,60.952380952380956 29.629629629629633,60.31746031746032 29.41798941798942,59.682539682539684 28.994708994708997,59.04761904761905 28.783068783068785,58.41269841269842 28.571428571428573,57.777777777777786 28.14814814814815,57.142857142857146 27.93650793650794,56.50793650793651 27.724867724867728,55.87301587301588 27.513227513227516,55.23809523809524 27.301587301587304,54.60317460317461 26.87830687830688,53.968253968253975 26.666666666666668,53.333333333333336 26.455026455026456,52.6984126984127 26.243386243386244,52.06349206349207 26.031746031746035,51.42857142857143 25.820105820105823,50.7936507936508 25.60846560846561,50.158730158730165 25.3968253968254,49.523809523809526 24.973544973544975,48.88888888888889 24.761904761904763,48.25396825396826 24.55026455026455,47.61904761904762 24.12698412698413,46.98412698412699 24.12698412698413,46.349206349206355 23.915343915343918,45.714285714285715 23.492063492063494,45.07936507936508 23.280423280423282,44.44444444444445 23.280423280423282,43.80952380952381 22.857142857142858,43.17460317460318 22.857142857142858,42.539682539682545 22.645502645502646,41.904761904761905 22.222222222222225,41.26984126984127 22.222222222222225,40.63492063492064 21.7989417989418,40.0 21.7989417989418,39.36507936507937 21.58730158730159,38.730158730158735 21.164021164021165,38.095238095238095 21.164021164021165,37.46031746031746 20.952380952380953,36.82539682539683 20.740740740740744,36.19047619047619 20.529100529100532,35.55555555555556 20.31746031746032,34.920634920634924 20.105820105820108,34.28571428571429 19.894179894179896,33.65079365079365 19.682539682539684,33.01587301587302 19.47089947089947,32.38095238095239 19.25925925925926,31.746031746031747 19.25925925925926,31.111111111111114 19.047619047619047,30.476190476190478 17.77777777777778,26.455026455026456" style="fill:none; stroke:#3300bb; stroke-width:1.0"  /><circle cx="17.77777777777778" cy="26.455026455026456" r="2.0" style="fill:none; stroke:#000000aa; stroke-width:0.25" /><circle cx="115.55555555555557" cy="33.65079365079365" r="2.0" style="fill:none; stroke:#000000aa; stroke-width:0.25" /><circle cx="115.55555555555557" cy="178.83597883597884" r="2.0" style="fill:none; stroke:#000000aa; stroke-width:0.25" /><circle cx="16.931216931216934" cy="185.39682539682542" r="2.0" style="fill:none; stroke:#000000aa; stroke-width:0.25" /><circle cx="18.83597883597884" cy="27.089947089947092" r="2.0" style="fill:none; stroke:#ff3366aa; stroke-width:0.25" /><circle cx="114.92063492063492" cy="33.86243386243387" r="2.0" style="fill:none; stroke:#ff3366aa; stroke-width:0.25" /><circle cx="115.55555555555557" cy="179.04761904761907" r="2.0" style="fill:none; stroke:#ff3366aa; stroke-width:0.25" /><circle cx="17.354497354497354" cy="185.1851851851852" r="2.0" style="fill:none; stroke:#ff3366aa; stroke-width:0.25" /><polyline points="30.264550264550266,29.629629629629633 29.629629629629633,29.629629629629633 28.994708994708997,29.20634920634921 28.35978835978836,29.20634920634921 27.724867724867728,28.994708994708997 27.089947089947092,28.783068783068785 26.455026455026456,28.783068783068785 25.820105820105823,28.571428571428573 25.185185185185187,28.35978835978836 24.55026455026455,28.14814814814815 23.915343915343918,27.93650793650794 23.280423280423282,27.724867724867728 22.645502645502646,27.513227513227516 22.010582010582013,27.513227513227516" style="fill:none; stroke:#001100; stroke-width:1.0" /><polyline points="21.58730158730159,38.730158730158735 21.164021164021165,38.095238095238095 21.164021164021165,37.46031746031746 20.952380952380953,36.82539682539683 20.740740740740744,36.19047619047619 20.529100529100532,35.55555555555556 20.31746031746032,34.920634920634924 20.105820105820108,34.28571428571429 19.894179894179896,33.65079365079365 19.682539682539684,33.01587301587302 19.47089947089947,32.38095238095239 19.25925925925926,31.746031746031747 19.25925925925926,31.111111111111114 19.047619047619047,30.476190476190478" style="fill:none; stroke:#000011; stroke-width:1.0" /><polyline points="114.49735449735451,45.714285714285715 114.49735449735451,45.07936507936508 114.49735449735451,44.44444444444445 114.49735449735451,43.80952380952381 114.70899470899472,43.17460317460318 114.70899470899472,42.539682539682545 114.70899470899472,41.904761904761905 114.70899470899472,41.26984126984127 114.92063492063492,40.63492063492064 114.92063492063492,40.0 115.13227513227514,39.36507936507937 115.13227513227514,38.730158730158735 115.34391534391536,38.095238095238095 115.34391534391536,37.46031746031746 115.34391534391536,36.82539682539683" style="fill:none; stroke:#001100; stroke-width:1.0" /><polyline points="103.91534391534393,38.51851851851852 104.55026455026456,38.30687830687831 105.18518518518519,38.095238095238095 105.82010582010582,37.67195767195768 106.45502645502647,37.46031746031746 107.0899470899471,37.248677248677254 107.72486772486774,36.82539682539683 108.35978835978837,36.402116402116405 108.994708994709,36.19047619047619 109.62962962962963,35.97883597883598 110.26455026455027,35.76719576719577 110.89947089947091,35.55555555555556 111.53439153439155,35.34391534391535 112.16931216931218,35.13227513227513" style="fill:none; stroke:#000011; stroke-width:1.0" /><polyline points="104.12698412698414,179.8941798941799 104.76190476190477,179.6825396825397 105.3968253968254,179.6825396825397 106.03174603174604,179.6825396825397 106.66666666666667,179.6825396825397 107.3015873015873,179.6825396825397 107.93650793650795,179.4708994708995 108.57142857142858,179.25925925925927 109.20634920634922,179.25925925925927 109.84126984126985,179.25925925925927 110.47619047619048,179.25925925925927 111.11111111111111,179.04761904761907 111.74603174603176,179.04761904761907 112.3809523809524,179.04761904761907" style="fill:none; stroke:#001100; stroke-width:1.0" /><polyline points="114.07407407407408,167.19576719576722 114.28571428571429,167.83068783068785 114.28571428571429,168.46560846560848 114.28571428571429,169.10052910052912 114.49735449735451,169.73544973544975 114.49735449735451,170.37037037037038 114.49735449735451,171.005291005291 114.49735449735451,171.64021164021165 114.70899470899472,172.27513227513228 114.70899470899472,172.9100529100529 114.92063492063492,173.54497354497354 114.92063492063492,174.1798941798942 115.13227513227514,174.81481481481484 114.92063492063492,175.44973544973547 115.13227513227514,176.0846560846561" style="fill:none; stroke:#000011; stroke-width:1.0" /><polyline points="20.740740740740744,173.96825396825398 20.529100529100532,174.6031746031746 20.31746031746032,175.23809523809524 20.105820105820108,175.87301587301587 19.894179894179896,176.50793650793653 19.682539682539684,177.14285714285717 19.47089947089947,177.7777777777778 19.25925925925926,178.41269841269843 19.047619047619047,179.04761904761907 18.83597883597884,179.6825396825397 18.624338624338627,180.31746031746033 18.412698412698415,180.95238095238096 18.201058201058203,181.5873015873016 17.98941798941799,182.22222222222223" style="fill:none; stroke:#001100; stroke-width:1.0" /><polyline points="28.783068783068785,182.43386243386246 28.14814814814815,182.64550264550266 27.513227513227516,182.64550264550266 26.87830687830688,182.85714285714286 26.243386243386244,183.0687830687831 25.60846560846561,183.0687830687831 24.973544973544975,183.2804232804233 24.338624338624342,183.4920634920635 23.703703703703706,183.70370370370372 23.06878306878307,183.91534391534393 22.433862433862437,184.12698412698415 21.7989417989418,184.33862433862436 21.164021164021165,184.55026455026456 20.529100529100532,184.55026455026456" style="fill:none; stroke:#000011; stroke-width:1.0" /><polyline points="22.010582010582013,27.513227513227516 1.4814814814814816,22.222222222222225" style="fill:none; stroke:#ffaa00; stroke-width:0.4" /><polyline points="19.047619047619047,30.476190476190478 12.910052910052912,10.15873015873016" style="fill:none; stroke:#aaff00; stroke-width:0.4" /><polyline points="115.34391534391536,36.82539682539683 117.24867724867725,15.661375661375663" style="fill:none; stroke:#ffaa00; stroke-width:0.4" /><polyline points="112.16931216931218,35.13227513227513 131.85185185185185,27.089947089947092" style="fill:none; stroke:#aaff00; stroke-width:0.4" /><polyline points="112.3809523809524,179.04761904761907 133.33333333333334,176.93121693121694" style="fill:none; stroke:#ffaa00; stroke-width:0.4" /><polyline points="115.13227513227514,176.0846560846561 117.67195767195768,197.03703703703704" style="fill:none; stroke:#aaff00; stroke-width:0.4" /><polyline points="17.98941798941799,182.22222222222223 11.216931216931219,202.32804232804233" style="fill:none; stroke:#ffaa00; stroke-width:0.4" /><polyline points="20.529100529100532,184.55026455026456 0.0,189.84126984126985" style="fill:none; stroke:#aaff00; stroke-width:0.4" /><circle cx="70.8994708994709" cy="108.57142857142858" r="1.0" style="fill:#444444; stroke-width:0" /><circle cx="77.67195767195767" cy="128.67724867724868" r="10.582010582010582" style="fill:#ff770022; stroke-width:0" /><circle cx="77.67195767195767" cy="128.67724867724868" r="1.0" style="fill:#ff7700; stroke-width:0" /></svg>