<?xml version="1.0" encoding="UTF-8" standalone="no"?><svg width="695.8730158730159" height="531.4285714285714" viewBox="-10 -10 251.95767195767198 197.14285714285717" xmlns="http://www.w3.org/2000/svg" xmlns:xlink="http://www.w3.org/1999/xlink"><polyline points="74.70899470899471,30.052910052910054 77.88359788359789,31.322751322751326 78.30687830687832,31.746031746031747 78.94179894179895,31.746031746031747 79.57671957671958,32.16931216931217 80.21164021164022,32.38095238095239 80.84656084656085,32.804232804232804 81.48148148148148,33.01587301587302 82.11640211640213,33.22751322751323 82.75132275132276,33.65079365079365 83.3862433862434,33.86243386243387 84.02116402116403,34.074074074074076 84.65608465608466,34.28571428571429 85.29100529100529,34.4973544973545 85.92592592592594,34.4973544973545 86.56084656084657,34.70899470899471 87.1957671957672,34.920634920634924 87.83068783068784,35.13227513227513 88.46560846560847,35.34391534391535 89.1005291005291,35.55555555555556 89.73544973544975,35.76719576719577 90.37037037037038,35.97883597883598 91.00529100529101,36.19047619047619 91.64021164021165,36.402116402116405 92.27513227513228,36.402116402116405 92.91005291005291,36.613756613756614 93.54497354497356,36.82539682539683 94.17989417989419,37.03703703703704 94.81481481481482,37.03703703703704 95.44973544973546,37.248677248677254 96.08465608465609,37.46031746031746 96.71957671957672,37.67195767195768 97.35449735449737,37.67195767195768 97.989417989418,37.67195767195768 98.62433862433863,37.883597883597886 99.25925925925927,38.095238095238095 99.8941798941799,38.095238095238095 100.52910052910053,38.30687830687831 101.16402116402116,38.30687830687831 101.79894179894181,38.51851851851852 102.43386243386244,38.51851851851852 103.06878306878308,38.51851851851852 103.70370370370371,38.51851851851852 104.33862433862434,38.730158730158735 104.97354497354497,38.94179894179894 105.60846560846562,38.94179894179894 106.24338624338625,39.15343915343916 106.87830687830689,39.15343915343916 107.51322751322752,39.15343915343916 108.14814814814815,39.15343915343916 108.78306878306879,39.15343915343916 109.41798941798943,39.36507936507937 110.05291005291006,39.36507936507937 110.6878306878307,39.57671957671958 111.32275132275133,39.57671957671958 111.95767195767196,39.57671957671958 112.5925925925926,39.57671957671958 113.22751322751324,39.36507936507937 113.86243386243387,39.57671957671958 114.49735449735451,39.57671957671958 115.13227513227514,39.57671957671958 115.76719576719577,39.57671957671958 116.4021164021164,39.57671957671958 117.03703703703705,39.78835978835979 117.67195767195768,39.57671957671958 118.30687830687832,39.57671957671958 118.94179894179895,39.36507936507937 119.57671957671958,39.36507936507937 120.21164021164022,39.15343915343916 120.84656084656086,38.730158730158735 121.4814814814815,38.30687830687831 122.11640211640213,37.883597883597886 122.75132275132276,37.46031746031746 123.17460317460318,36.82539682539683 123.59788359788361,36.402116402116405 124.02116402116403,35.76719576719577 124.23280423280424,35.13227513227513 124.65608465608466,34.4973544973545 124.65608465608466,33.86243386243387 124.86772486772487,33.22751322751323 124.86772486772487,32.592592592592595 125.07936507936509,31.95767195767196 125.07936507936509,31.322751322751326 125.07936507936509,30.68783068783069 125.07936507936509,30.052910052910054 124.86772486772487,29.41798941798942 124.86772486772487,28.783068783068785 124.65608465608466,28.14814814814815 124.65608465608466,27.513227513227516 124.65608465608466,26.87830687830688 124.44444444444446,26.243386243386244 124.23280423280424,25.60846560846561 124.23280423280424,24.973544973544975 124.02116402116403,24.338624338624342 123.59788359788361,23.915343915343918 123.59788359788361,23.280423280423282 123.3862433862434,22.645502645502646 123.17460317460318,22.010582010582013 122.96296296296298,21.375661375661377 122.75132275132276,20.740740740740744 122.53968253968254,20.105820105820108 122.32804232804234,19.47089947089947 122.11640211640213,18.83597883597884 121.90476190476191,18.201058201058203 121.90476190476191,17.566137566137566 121.6931216931217,16.931216931216934 121.4814814814815,16.296296296296298 121.26984126984128,15.661375661375663 121.05820105820106,15.026455026455027 120.84656084656086,14.391534391534393 120.84656084656086,13.756613756613758 120.84656084656086,13.121693121693122 120.84656084656086,12.486772486772487 120.84656084656086,11.851851851851853 120.84656084656086,11.216931216931219 120.84656084656086,10.582010582010582 120.84656084656086,9.947089947089948 121.05820105820106,9.312169312169313 121.05820105820106,8.677248677248677 121.26984126984128,8.042328042328043 121.4814814814815,7.407407407407408 121.6931216931217,6.772486772486773 121.90476190476191,6.137566137566138 122.11640211640213,5.502645502645503 122.32804232804234,4.867724867724868 122.75132275132276,4.444444444444445 122.96296296296298,3.8095238095238098 123.3862433862434,3.3862433862433865 123.80952380952382,2.9629629629629632 124.23280423280424,2.53968253968254 124.65608465608466,2.1164021164021167 125.07936507936509,1.6931216931216932 125.71428571428572,1.4814814814814816 126.34920634920636,1.26984126984127 126.98412698412699,0.8465608465608466 127.61904761904763,0.8465608465608466 128.25396825396825,0.634920634920635 128.88888888888889,0.4232804232804233 129.52380952380955,0.4232804232804233 130.15873015873018,0.4232804232804233 130.7936507936508,0.4232804232804233 131.42857142857144,0.4232804232804233 132.06349206349208,0.21164021164021166 132.6984126984127,0.21164021164021166 133.33333333333334,0.21164021164021166 133.96825396825398,0.21164021164021166 134.6031746031746,0.21164021164021166 135.23809523809524,0.4232804232804233 135.87301587301587,0.4232804232804233 136.5079365079365,0.4232804232804233 137.14285714285717,0.4232804232804233 137.7777777777778,0.4232804232804233 138.41269841269843,0.634920634920635 139.04761904761907,0.8465608465608466 139.6825396825397,0.8465608465608466 140.31746031746033,0.8465608465608466 140.95238095238096,1.26984126984127 141.5873015873016,1.26984126984127 142.22222222222223,1.4814814814814816 142.85714285714286,1.9047619047619049 143.4920634920635,1.9047619047619049 143.91534391534393,2.3280423280423284 144.55026455026456,2.53968253968254 145.1851851851852,2.7513227513227516 145.82010582010582,3.174603174603175 146.45502645502646,3.3862433862433865 147.0899470899471,3.8095238095238098 147.72486772486775,4.2328042328042335 148.35978835978838,4.444444444444445 148.99470899470901,4.656084656084657 149.41798941798942,5.07936507936508 150.05291005291005,5.291005291005291 150.47619047619048,5.714285714285714 151.11111111111111,6.137566137566138 151.74603174603175,6.34920634920635 152.16931216931218,6.772486772486773 152.5925925925926,7.195767195767196 153.22751322751324,7.6190476190476195 153.86243386243387,8.042328042328043 154.4973544973545,8.465608465608467 154.92063492063494,8.88888888888889 155.34391534391534,9.312169312169313 155.978835978836,9.523809523809524 156.4021164021164,9.947089947089948 156.82539682539684,10.370370370370372 157.24867724867727,10.793650793650794 157.67195767195767,11.216931216931219 158.0952380952381,11.640211640211641 158.51851851851853,12.063492063492065 158.94179894179896,12.486772486772487 159.36507936507937,13.121693121693122 159.5767195767196,13.756613756613758 160.0,14.391534391534393 160.21164021164023,15.026455026455027 160.21164021164023,15.661375661375663 160.42328042328043,16.296296296296298 160.42328042328043,16.931216931216934 160.42328042328043,17.566137566137566 160.21164021164023,18.201058201058203 160.21164021164023,18.83597883597884 160.0,19.47089947089947 159.7883597883598,20.105820105820108 159.5767195767196,20.740740740740744 159.36507936507937,21.375661375661377 159.15343915343917,22.010582010582013 158.94179894179896,22.645502645502646 158.51851851851853,23.280423280423282 158.30687830687833,23.915343915343918 158.0952380952381,24.55026455026455 157.67195767195767,25.185185185185187 157.24867724867727,25.820105820105823 156.82539682539684,26.455026455026456 156.4021164021164,26.87830687830688 155.978835978836,27.513227513227516 155.55555555555557,28.14814814814815 155.13227513227514,28.571428571428573 154.7089947089947,29.20634920634921 154.2857142857143,29.629629629629633 153.86243386243387,30.052910052910054 153.43915343915344,30.476190476190478 153.01587301587304,30.899470899470902 152.5925925925926,31.53439153439154 152.16931216931218,31.95767195767196 151.74603174603175,32.592592592592595 151.32275132275134,33.01587301587302 150.8994708994709,33.43915343915344 150.47619047619048,33.86243386243387 150.05291005291005,34.4973544973545 149.62962962962965,34.920634920634924 149.20634920634922,35.55555555555556 148.99470899470901,36.19047619047619 148.57142857142858,36.613756613756614 148.35978835978838,37.248677248677254 147.93650793650795,37.883597883597886 147.72486772486775,38.51851851851852 147.72486772486775,39.15343915343916 147.51322751322752,39.78835978835979 147.51322751322752,40.423280423280424 147.51322751322752,41.058201058201064 147.51322751322752,41.6931216931217 147.51322751322752,42.32804232804233 147.72486772486775,42.96296296296297 147.93650793650795,43.5978835978836 148.14814814814815,44.232804232804234 148.57142857142858,44.867724867724874 148.78306878306879,45.50264550264551 149.20634920634922,46.13756613756614 149.62962962962965,46.77248677248678 150.05291005291005,47.40740740740741 150.47619047619048,48.042328042328045 150.8994708994709,48.46560846560847 151.32275132275134,49.1005291005291 151.74603174603175,49.73544973544974 152.16931216931218,50.158730158730165 152.5925925925926,50.7936507936508 153.01587301587304,51.21693121693122 153.43915343915344,51.640211640211646 153.86243386243387,52.06349206349207 154.2857142857143,52.48677248677249 154.7089947089947,52.91005291005291 155.13227513227514,53.333333333333336 155.55555555555557,53.75661375661376 156.1904761904762,54.179894179894184 156.82539682539684,54.60317460317461 157.46031746031747,55.02645502645503 158.0952380952381,55.449735449735456 158.73015873015873,55.87301587301588 159.36507936507937,56.2962962962963 160.0,56.71957671957672 160.63492063492066,57.142857142857146 161.2698412698413,57.56613756613757 161.90476190476193,57.777777777777786 162.53968253968256,58.2010582010582 163.1746031746032,58.41269841269842 163.80952380952382,58.62433862433863 164.23280423280426,59.04761904761905 164.8677248677249,59.25925925925927 165.50264550264552,59.470899470899475 166.13756613756615,59.682539682539684 166.7724867724868,59.8941798941799 167.40740740740742,60.10582010582011 168.04232804232805,60.31746031746032 168.67724867724868,60.52910052910053 169.31216931216932,60.74074074074075 169.94708994708995,60.74074074074075 170.58201058201058,60.952380952380956 171.21693121693124,61.16402116402117 171.85185185185188,61.16402116402117 172.4867724867725,61.37566137566138 173.12169312169314,61.37566137566138 173.75661375661377,61.37566137566138 174.3915343915344,61.58730158730159 175.02645502645504,61.58730158730159 175.66137566137567,61.58730158730159 176.2962962962963,61.58730158730159 176.93121693121694,61.798941798941804 177.56613756613757,61.798941798941804 178.2010582010582,61.798941798941804 178.83597883597884,61.798941798941804 179.4708994708995,61.798941798941804 180.10582010582013,62.01058201058201 180.74074074074076,62.01058201058201 181.3756613756614,62.01058201058201 182.01058201058203,62.01058201058201 182.64550264550266,62.01058201058201 183.2804232804233,62.22222222222223 183.91534391534393,62.22222222222223 184.55026455026456,62.22222222222223 185.1851851851852,62.22222222222223 185.82010582010582,62.43386243386244 186.45502645502646,62.43386243386244 187.08994708994712,62.43386243386244 187.72486772486775,62.43386243386244 188.35978835978838,62.64550264550265 188.99470899470901,62.64550264550265 189.62962962962965,62.64550264550265 190.26455026455028,62.85714285714286 190.8994708994709,62.64550264550265 191.53439153439155,62.85714285714286 192.16931216931218,62.85714285714286 192.8042328042328,63.06878306878308 193.43915343915344,63.280423280423285 194.07407407407408,63.280423280423285 194.70899470899474,63.280423280423285 195.34391534391537,63.492063492063494 195.978835978836,63.70370370370371 196.61375661375664,63.70370370370371 197.24867724867727,63.91534391534392 197.8835978835979,64.12698412698413 198.51851851851853,64.12698412698413 199.15343915343917,64.33862433862434 199.7883597883598,64.55026455026456 200.42328042328043,64.76190476190477 201.05820105820106,64.76190476190477 201.6931216931217,65.18518518518519 202.32804232804233,65.18518518518519 202.962962962963,65.18518518518519 203.3862433862434,65.60846560846561 204.02116402116403,65.82010582010582 204.65608465608466,65.82010582010582 205.29100529100532,66.03174603174604 205.92592592592595,66.24338624338625 206.56084656084658,66.45502645502646 207.19576719576722,66.45502645502646 207.83068783068785,66.87830687830689 208.46560846560848,67.08994708994709 209.10052910052912,67.3015873015873 209.73544973544975,67.51322751322752 210.37037037037038,67.72486772486774 211.005291005291,68.14814814814815 211.64021164021165,68.14814814814815 212.27513227513228,68.57142857142858 212.91005291005294,68.78306878306879 213.54497354497357,68.994708994709 214.1798941798942,69.20634920634922 214.81481481481484,69.41798941798942 215.44973544973547,69.84126984126985 216.0846560846561,70.05291005291006 216.71957671957674,70.26455026455027 217.35449735449737,70.47619047619048 217.989417989418,70.6878306878307 218.62433862433863,71.11111111111111 219.25925925925927,71.32275132275133 219.8941798941799,71.53439153439155 220.31746031746033,71.95767195767196 220.95238095238096,72.16931216931218 221.5873015873016,72.5925925925926 222.22222222222223,72.80423280423281 222.85714285714286,73.01587301587303 223.49206349206352,73.43915343915344 224.12698412698415,73.65079365079366 224.7619047619048,74.07407407407408 225.39682539682542,74.28571428571429 226.03174603174605,74.49735449735451 226.66666666666669,74.70899470899471 227.30158730158732,75.13227513227514 227.93650793650795,75.34391534391536 228.57142857142858,75.55555555555556 231.74603174603178,77.03703703703704" style="fill:none; stroke:#cc0000; stroke-width:1.0"  /><polyline points="231.74603174603178,77.03703703703704 230.6878306878307,80.84656084656085 230.47619047619048,81.48148148148148 230.26455026455028,82.11640211640213 230.05291005291008,82.75132275132276 229.84126984126985,83.3862433862434 229.62962962962965,84.02116402116403 229.41798941798945,84.65608465608466 229.41798941798945,85.29100529100529 229.20634920634922,85.92592592592594 228.99470899470901,86.56084656084657 228.7830687830688,87.1957671957672 228.57142857142858,87.83068783068784 228.35978835978838,88.46560846560847 228.14814814814815,89.1005291005291 228.14814814814815,89.73544973544975 227.93650793650795,90.37037037037038 227.93650793650795,91.00529100529101 227.72486772486775,91.64021164021165 227.51322751322752,92.27513227513228 227.30158730158732,92.91005291005291 227.30158730158732,93.54497354497356 227.30158730158732,94.17989417989419 227.30158730158732,94.81481481481482 227.08994708994712,95.44973544973546 226.8783068783069,96.08465608465609 226.66666666666669,96.71957671957672 226.66666666666669,97.35449735449737 226.45502645502648,97.989417989418 226.24338624338625,98.62433862433863 226.03174603174605,99.25925925925927 225.82010582010582,99.8941798941799 225.82010582010582,100.52910052910053 225.60846560846562,101.16402116402116 225.39682539682542,101.79894179894181 225.1851851851852,102.43386243386244 224.7619047619048,103.06878306878308 224.55026455026456,103.70370370370371 224.33862433862436,104.33862433862434 223.91534391534393,104.97354497354497 223.70370370370372,105.60846560846562 223.49206349206352,106.24338624338625 223.0687830687831,106.87830687830689 222.85714285714286,107.51322751322752 222.64550264550266,108.14814814814815 222.22222222222223,108.57142857142858 222.01058201058203,109.20634920634922 221.5873015873016,109.84126984126985 221.1640211640212,110.47619047619048 220.95238095238096,111.11111111111111 220.52910052910053,111.53439153439155 220.31746031746033,112.16931216931218 219.8941798941799,112.5925925925926 219.4708994708995,113.22751322751324 219.04761904761907,113.86243386243387 218.62433862433863,114.28571428571429 218.20105820105823,114.70899470899472 217.7777777777778,115.13227513227514 217.14285714285717,115.34391534391536 216.50793650793653,115.76719576719577 215.8730158730159,115.97883597883599 215.23809523809524,115.97883597883599 214.6031746031746,115.97883597883599 213.96825396825398,115.97883597883599 213.33333333333334,115.76719576719577 212.6984126984127,115.55555555555557 212.06349206349208,115.34391534391536 211.42857142857144,115.13227513227514 211.005291005291,114.70899470899472 210.37037037037038,114.28571428571429 209.73544973544975,113.86243386243387 209.31216931216932,113.22751322751324 209.10052910052912,112.5925925925926 208.67724867724868,112.16931216931218 208.46560846560848,111.53439153439155 208.04232804232805,110.89947089947091 207.61904761904765,110.26455026455027 207.40740740740742,109.62962962962963 206.984126984127,108.994708994709 206.56084656084658,108.35978835978837 206.34920634920636,107.72486772486774 205.92592592592595,107.0899470899471 205.50264550264552,106.45502645502647 205.29100529100532,105.82010582010582 204.8677248677249,105.3968253968254 204.65608465608466,104.76190476190477 204.23280423280426,104.12698412698414 203.80952380952382,103.4920634920635 203.3862433862434,102.85714285714286 202.962962962963,102.22222222222223 202.53968253968256,101.5873015873016 202.11640211640213,100.95238095238096 201.6931216931217,100.31746031746033 201.2698412698413,99.68253968253968 200.84656084656086,99.04761904761905 200.42328042328043,98.41269841269842 200.00000000000003,97.989417989418 199.5767195767196,97.35449735449737 199.15343915343917,96.93121693121694 198.73015873015873,96.50793650793652 198.30687830687833,96.08465608465609 197.8835978835979,95.66137566137567 197.24867724867727,95.23809523809524 196.61375661375664,94.81481481481482 195.978835978836,94.39153439153439 195.34391534391537,94.17989417989419 194.70899470899474,93.96825396825398 194.07407407407408,93.75661375661376 193.43915343915344,93.54497354497356 192.8042328042328,93.33333333333334 192.16931216931218,93.33333333333334 191.53439153439155,93.33333333333334 190.8994708994709,93.54497354497356 190.26455026455028,93.54497354497356 189.62962962962965,93.54497354497356 188.99470899470901,93.54497354497356 188.35978835978838,93.54497354497356 187.72486772486775,93.75661375661376 187.08994708994712,93.96825396825398 186.45502645502646,94.17989417989419 185.82010582010582,94.60317460317461 185.1851851851852,94.81481481481482 184.7619047619048,95.23809523809524 184.12698412698415,95.66137566137567 183.70370370370372,96.08465608465609 183.2804232804233,96.50793650793652 182.85714285714286,96.93121693121694 182.43386243386246,97.35449735449737 182.01058201058203,97.989417989418 181.5873015873016,98.41269841269842 181.16402116402116,98.83597883597885 180.74074074074076,99.47089947089948 180.31746031746033,100.10582010582011 179.8941798941799,100.52910052910053 179.4708994708995,101.16402116402116 179.04761904761907,101.79894179894181 178.62433862433863,102.43386243386244 178.2010582010582,103.06878306878308 177.7777777777778,103.4920634920635 177.56613756613757,104.12698412698414 177.14285714285717,104.76190476190477 176.71957671957674,105.3968253968254 176.50793650793653,106.03174603174604 176.0846560846561,106.66666666666667 175.66137566137567,107.3015873015873 175.44973544973547,107.93650793650795 175.02645502645504,108.57142857142858 174.81481481481484,109.20634920634922 174.3915343915344,109.84126984126985 173.96825396825398,110.47619047619048 173.75661375661377,111.11111111111111 173.33333333333334,111.74603174603176 173.12169312169314,112.3809523809524 172.6984126984127,113.01587301587303 172.4867724867725,113.65079365079366 172.06349206349208,114.28571428571429 171.85185185185188,114.92063492063492 171.64021164021165,115.55555555555557 171.42857142857144,116.1904761904762 171.21693121693124,116.82539682539684 171.005291005291,117.46031746031747 170.7936507936508,118.0952380952381 170.58201058201058,118.73015873015873 170.37037037037038,119.36507936507937 170.15873015873018,120.00000000000001 169.94708994708995,120.63492063492065 169.73544973544975,121.26984126984128 169.73544973544975,121.90476190476191 169.52380952380955,122.53968253968254 169.52380952380955,123.17460317460318 169.31216931216932,123.80952380952382 169.10052910052912,124.44444444444446 169.10052910052912,125.07936507936509 168.8888888888889,125.71428571428572 168.8888888888889,126.34920634920636 168.67724867724868,126.98412698412699 168.67724867724868,127.61904761904763 168.67724867724868,128.25396825396825 168.46560846560848,128.88888888888889 168.67724867724868,129.52380952380955 168.8888888888889,130.15873015873018 168.8888888888889,130.7936507936508 169.10052910052912,131.42857142857144 169.10052910052912,132.06349206349208 169.31216931216932,132.6984126984127 169.52380952380955,133.33333333333334 169.73544973544975,133.96825396825398 170.15873015873018,134.6031746031746 170.37037037037038,135.23809523809524 170.7936507936508,135.87301587301587 171.21693121693124,136.5079365079365 171.64021164021165,136.93121693121694 172.06349206349208,137.56613756613757 172.4867724867725,137.989417989418 172.9100529100529,138.41269841269843 173.33333333333334,138.83597883597884 173.75661375661377,139.25925925925927 174.3915343915344,139.6825396825397 174.81481481481484,140.10582010582013 175.44973544973547,140.31746031746033 176.0846560846561,140.31746031746033 176.50793650793653,140.95238095238096 177.14285714285717,140.95238095238096 177.7777777777778,141.16402116402116 178.41269841269843,141.3756613756614 179.04761904761907,141.3756613756614 179.6825396825397,141.5873015873016 180.31746031746033,141.5873015873016 180.95238095238096,141.5873015873016 181.5873015873016,141.7989417989418 182.22222222222223,141.7989417989418 182.85714285714286,141.7989417989418 183.4920634920635,141.5873015873016 184.12698412698415,141.3756613756614 184.7619047619048,141.16402116402116 185.39682539682542,140.74074074074076 186.03174603174605,140.52910052910053 186.66666666666669,140.31746031746033 187.08994708994712,139.8941798941799 187.72486772486775,139.8941798941799 188.35978835978838,139.6825396825397 188.78306878306879,139.25925925925927 189.41798941798945,139.04761904761907 190.05291005291008,139.04761904761907 190.6878306878307,138.83597883597884 191.32275132275134,138.62433862433863 191.95767195767198,138.62433862433863 192.5925925925926,138.62433862433863 193.22751322751324,138.41269841269843 193.86243386243387,138.41269841269843 194.4973544973545,138.41269841269843 195.13227513227514,138.62433862433863 195.76719576719577,138.62433862433863 196.4021164021164,138.62433862433863 197.03703703703704,139.04761904761907 197.6719576719577,139.25925925925927 198.30687830687833,139.25925925925927 198.94179894179896,139.47089947089947 199.36507936507937,139.8941798941799 200.00000000000003,140.31746031746033 200.63492063492066,140.74074074074076 201.05820105820106,141.16402116402116 201.6931216931217,141.5873015873016 202.11640211640213,142.22222222222223 202.53968253968256,142.64550264550266 202.75132275132276,143.2804232804233 202.962962962963,143.91534391534393 203.1746031746032,144.55026455026456 203.3862433862434,145.1851851851852 203.3862433862434,145.82010582010582 203.59788359788362,146.45502645502646 203.59788359788362,147.0899470899471 203.80952380952382,147.72486772486775 204.02116402116403,148.35978835978838 204.02116402116403,148.99470899470901 204.02116402116403,149.62962962962965 204.23280423280426,150.26455026455028 204.23280423280426,150.8994708994709 204.23280423280426,151.53439153439155 204.44444444444446,152.16931216931218 204.44444444444446,152.8042328042328 204.44444444444446,153.43915343915344 204.44444444444446,154.07407407407408 204.44444444444446,154.7089947089947 204.65608465608466,155.34391534391534 204.65608465608466,155.978835978836 204.65608465608466,156.61375661375664 204.65608465608466,157.24867724867727 204.65608465608466,157.8835978835979 204.65608465608466,158.51851851851853 204.65608465608466,159.15343915343917 204.44444444444446,159.7883597883598 204.44444444444446,160.42328042328043 204.44444444444446,161.05820105820106 204.44444444444446,161.6931216931217 204.44444444444446,162.32804232804233 204.23280423280426,162.96296296296296 204.23280423280426,163.59788359788362 204.44444444444446,164.23280423280426 204.44444444444446,164.8677248677249 204.23280423280426,165.50264550264552 204.23280423280426,166.13756613756615 204.02116402116403,166.7724867724868 204.02116402116403,167.40740740740742 203.80952380952382,168.04232804232805 203.80952380952382,168.67724867724868 203.59788359788362,169.31216931216932 203.3862433862434,169.94708994708995 203.3862433862434,170.58201058201058 203.1746031746032,171.21693121693124 202.962962962963,171.85185185185188 202.962962962963,172.4867724867725 202.75132275132276,173.12169312169314 202.53968253968256,173.75661375661377 201.90476190476193,177.14285714285717" style="fill:none; stroke:#999900; stroke-width:1.0"  /><polyline points="201.90476190476193,177.14285714285717 198.51851851851853,175.87301587301587 197.8835978835979,175.44973544973547 197.24867724867727,175.02645502645504 196.61375661375664,175.02645502645504 195.978835978836,174.81481481481484 195.34391534391537,174.3915343915344 194.70899470899474,174.1798941798942 194.07407407407408,173.96825396825398 193.43915343915344,173.75661375661377 192.8042328042328,173.33333333333334 192.16931216931218,173.12169312169314 191.53439153439155,172.9100529100529 190.8994708994709,172.6984126984127 190.26455026455028,172.4867724867725 189.62962962962965,172.27513227513228 188.99470899470901,172.06349206349208 188.35978835978838,171.64021164021165 187.72486772486775,171.42857142857144 187.08994708994712,171.21693121693124 186.45502645502646,171.005291005291 185.82010582010582,170.58201058201058 185.1851851851852,170.37037037037038 184.55026455026456,170.15873015873018 183.91534391534393,169.73544973544975 183.2804232804233,169.52380952380955 182.64550264550266,169.31216931216932 182.01058201058203,168.8888888888889 181.3756613756614,168.67724867724868 180.74074074074076,168.46560846560848 180.10582010582013,168.04232804232805 179.4708994708995,167.83068783068785 178.83597883597884,167.61904761904762 178.2010582010582,167.19576719576722 177.56613756613757,166.984126984127 176.93121693121694,166.7724867724868 176.50793650793653,166.34920634920636 175.87301587301587,166.13756613756615 175.23809523809524,165.92592592592595 174.6031746031746,165.50264550264552 173.96825396825398,165.2910052910053 173.33333333333334,164.8677248677249 172.6984126984127,164.65608465608466 172.06349206349208,164.44444444444446 171.42857142857144,164.02116402116403 170.7936507936508,163.80952380952382 170.15873015873018,163.59788359788362 169.52380952380955,163.3862433862434 169.10052910052912,162.96296296296296 168.46560846560848,162.75132275132276 167.83068783068785,162.53968253968256 167.19576719576722,162.11640211640213 166.56084656084658,161.90476190476193 165.92592592592595,161.4814814814815 165.2910052910053,161.2698412698413 164.65608465608466,160.84656084656086 164.02116402116403,160.63492063492066 163.3862433862434,160.21164021164023 162.75132275132276,160.0 162.11640211640213,159.5767195767196 161.4814814814815,159.36507936507937 160.84656084656086,159.15343915343917 160.42328042328043,158.73015873015873 159.7883597883598,158.51851851851853 159.15343915343917,158.0952380952381 158.51851851851853,157.8835978835979 157.8835978835979,157.46031746031747 157.24867724867727,157.24867724867727 156.61375661375664,157.03703703703704 156.1904761904762,156.61375661375664 155.55555555555557,156.61375661375664 154.92063492063494,156.1904761904762 154.2857142857143,155.978835978836 153.86243386243387,155.55555555555557 153.22751322751324,155.34391534391534 152.5925925925926,154.92063492063494 151.95767195767198,154.7089947089947 151.32275132275134,154.2857142857143 150.6878306878307,154.07407407407408 150.05291005291005,153.65079365079367 149.41798941798942,153.43915343915344 148.78306878306879,153.01587301587304 148.14814814814815,152.8042328042328 147.51322751322752,152.38095238095238 146.8783068783069,152.16931216931218 146.45502645502646,151.74603174603175 145.82010582010582,151.53439153439155 145.1851851851852,151.11111111111111 144.55026455026456,150.8994708994709 143.91534391534393,150.47619047619048 143.2804232804233,150.05291005291005 142.64550264550266,149.84126984126985 142.01058201058203,149.41798941798942 141.3756613756614,148.99470899470901 140.74074074074076,148.78306878306879 140.10582010582013,148.35978835978838 139.47089947089947,148.14814814814815 139.04761904761907,147.72486772486775 138.41269841269843,147.51322751322752 137.7777777777778,147.0899470899471 137.14285714285717,146.8783068783069 136.71957671957674,146.45502645502646 136.0846560846561,146.24338624338625 135.66137566137567,145.82010582010582 135.02645502645504,145.60846560846562 134.3915343915344,145.1851851851852 133.75661375661377,144.76190476190476 133.12169312169314,144.55026455026456 132.4867724867725,144.12698412698413 131.85185185185185,143.70370370370372 131.21693121693121,143.4920634920635 130.58201058201058,143.0687830687831 129.94708994708995,142.64550264550266 129.31216931216932,142.22222222222223 128.67724867724868,142.01058201058203 128.25396825396825,141.5873015873016 127.83068783068784,141.16402116402116 127.1957671957672,140.95238095238096 126.56084656084657,140.52910052910053 125.92592592592594,140.10582010582013 125.2910052910053,139.6825396825397 124.65608465608466,139.25925925925927 124.02116402116403,138.83597883597884 123.3862433862434,138.62433862433863 122.75132275132276,138.2010582010582 122.11640211640213,137.7777777777778 121.4814814814815,137.35449735449737 120.84656084656086,137.14285714285717 120.21164021164022,136.71957671957674 119.57671957671958,136.5079365079365 119.15343915343917,136.0846560846561 118.51851851851853,135.87301587301587 118.0952380952381,135.44973544973547 117.46031746031747,135.23809523809524 116.82539682539684,134.81481481481484 116.1904761904762,134.6031746031746 115.55555555555557,134.3915343915344 114.92063492063492,134.17989417989418 114.28571428571429,133.96825396825398 113.65079365079366,133.75661375661377 113.01587301587303,133.54497354497354 112.3809523809524,133.54497354497354 111.74603174603176,133.33333333333334 111.11111111111111,133.33333333333334 110.47619047619048,133.33333333333334 109.84126984126985,133.54497354497354 109.20634920634922,133.75661375661377 108.57142857142858,133.96825396825398 107.93650793650795,134.17989417989418 107.3015873015873,134.6031746031746 106.87830687830689,135.02645502645504 106.24338624338625,135.44973544973547 105.82010582010582,135.87301587301587 105.3968253968254,136.5079365079365 104.97354497354497,137.14285714285717 104.55026455026456,137.7777777777778 104.33862433862434,138.41269841269843 103.91534391534393,138.83597883597884 103.70370370370371,139.47089947089947 103.4920634920635,140.10582010582013 103.28042328042329,140.74074074074076 103.28042328042329,141.3756613756614 103.28042328042329,142.01058201058203 103.06878306878308,142.64550264550266 103.06878306878308,143.2804232804233 103.06878306878308,143.91534391534393 103.06878306878308,144.55026455026456 103.06878306878308,145.1851851851852 103.06878306878308,145.82010582010582 103.06878306878308,146.45502645502646 103.06878306878308,147.0899470899471 103.06878306878308,147.72486772486775 102.85714285714286,148.35978835978838 102.85714285714286,148.99470899470901 102.85714285714286,149.62962962962965 102.64550264550266,150.26455026455028 102.43386243386244,150.8994708994709 102.43386243386244,151.53439153439155 102.22222222222223,152.16931216931218 102.01058201058201,152.8042328042328 101.79894179894181,153.43915343915344 101.79894179894181,154.07407407407408 101.37566137566138,154.7089947089947 101.16402116402116,155.34391534391534 100.95238095238096,155.978835978836 100.52910052910053,156.61375661375664 100.10582010582011,157.24867724867727 99.8941798941799,157.8835978835979 99.47089947089948,158.51851851851853 99.04761904761905,159.15343915343917 98.62433862433863,159.5767195767196 98.2010582010582,160.21164021164023 97.77777777777779,160.84656084656086 97.35449735449737,161.4814814814815 96.93121693121694,161.90476190476193 96.50793650793652,162.32804232804233 95.87301587301587,162.75132275132276 95.23809523809524,162.96296296296296 94.81481481481482,163.3862433862434 94.17989417989419,163.59788359788362 93.54497354497356,163.80952380952382 92.91005291005291,164.02116402116403 92.27513227513228,164.02116402116403 91.64021164021165,164.02116402116403 91.00529100529101,164.23280423280426 90.37037037037038,164.23280423280426 89.73544973544975,164.23280423280426 89.1005291005291,164.23280423280426 88.46560846560847,164.23280423280426 87.83068783068784,164.23280423280426 87.1957671957672,164.23280423280426 86.56084656084657,164.23280423280426 85.92592592592594,164.23280423280426 85.29100529100529,164.23280423280426 84.65608465608466,164.02116402116403 84.02116402116403,164.02116402116403 83.3862433862434,163.80952380952382 82.75132275132276,163.59788359788362 82.11640211640213,163.3862433862434 81.48148148148148,163.1746031746032 80.84656084656085,162.96296296296296 80.21164021164022,162.75132275132276 79.57671957671958,162.53968253968256 78.94179894179895,162.32804232804233 78.30687830687832,161.90476190476193 77.67195767195767,161.6931216931217 77.03703703703704,161.2698412698413 76.4021164021164,161.05820105820106 75.76719576719577,160.63492063492066 75.13227513227514,160.42328042328043 74.70899470899471,160.0 74.07407407407408,159.5767195767196 73.43915343915344,159.36507936507937 73.01587301587303,158.94179894179896 72.38095238095238,158.51851851851853 71.74603174603175,158.30687830687833 71.32275132275133,157.8835978835979 70.8994708994709,157.46031746031747 70.47619047619048,157.03703703703704 70.05291005291006,156.61375661375664 69.62962962962963,156.1904761904762 69.20634920634922,155.76719576719577 68.78306878306879,155.13227513227514 68.57142857142858,154.4973544973545 68.14814814814815,154.07407407407408 67.93650793650794,153.43915343915344 67.72486772486774,152.8042328042328 67.3015873015873,152.16931216931218 67.08994708994709,151.53439153439155 66.87830687830689,150.8994708994709 66.87830687830689,150.26455026455028 66.66666666666667,149.62962962962965 66.45502645502646,148.99470899470901 66.45502645502646,148.35978835978838 66.45502645502646,147.72486772486775 66.45502645502646,147.0899470899471 66.45502645502646,146.45502645502646 66.66666666666667,145.82010582010582 66.87830687830689,145.1851851851852 67.3015873015873,144.55026455026456 67.51322751322752,143.91534391534393 67.72486772486774,143.2804232804233 68.14814814814815,142.64550264550266 68.57142857142858,142.01058201058203 68.994708994709,141.3756613756614 69.41798941798942,140.95238095238096 69.84126984126985,140.31746031746033 70.26455026455027,139.8941798941799 70.8994708994709,139.47089947089947 71.32275132275133,139.04761904761907 71.74603174603175,138.62433862433863 72.16931216931218,138.2010582010582 72.5925925925926,137.7777777777778 73.22751322751323,137.35449735449737 73.65079365079366,136.93121693121694 74.07407407407408,136.5079365079365 74.70899470899471,136.0846560846561 75.13227513227514,135.66137566137567 75.55555555555556,135.23809523809524 75.97883597883599,134.81481481481484 76.4021164021164,134.3915343915344 76.82539682539684,133.75661375661377 77.24867724867725,133.33333333333334 77.67195767195767,132.6984126984127 78.0952380952381,132.06349206349208 78.51851851851852,131.42857142857144 78.94179894179895,130.7936507936508 79.15343915343917,130.15873015873018 79.57671957671958,129.52380952380955 79.36507936507937,128.88888888888889 79.57671957671958,128.25396825396825 79.57671957671958,127.61904761904763 79.57671957671958,126.98412698412699 79.57671957671958,126.34920634920636 79.57671957671958,125.71428571428572 79.57671957671958,125.07936507936509 79.36507936507937,124.44444444444446 79.15343915343917,123.80952380952382 78.73015873015873,123.17460317460318 78.30687830687832,122.53968253968254 77.88359788359789,122.11640211640213 77.46031746031747,121.6931216931217 77.03703703703704,121.05820105820106 76.4021164021164,120.63492063492065 75.76719576719577,120.21164021164022 75.13227513227514,120.00000000000001 74.49735449735451,119.57671957671958 73.86243386243387,119.57671957671958 73.22751322751323,119.36507936507937 72.5925925925926,119.15343915343917 71.95767195767196,119.15343915343917 71.32275132275133,118.94179894179895 70.6878306878307,118.94179894179895 70.05291005291006,118.94179894179895 69.41798941798942,118.94179894179895 68.78306878306879,118.73015873015873 68.14814814814815,118.73015873015873 67.51322751322752,118.73015873015873 66.87830687830689,118.73015873015873 66.24338624338625,118.73015873015873 65.60846560846561,118.73015873015873 64.97354497354497,118.73015873015873 64.33862433862434,118.73015873015873 63.70370370370371,118.73015873015873 63.06878306878308,118.73015873015873 62.43386243386244,118.73015873015873 61.798941798941804,118.73015873015873 61.16402116402117,118.73015873015873 60.52910052910053,118.73015873015873 59.8941798941799,118.73015873015873 59.25925925925927,118.73015873015873 58.62433862433863,118.73015873015873 57.989417989417994,118.73015873015873 57.35449735449736,118.73015873015873 56.71957671957672,118.73015873015873 56.08465608465609,118.73015873015873 55.449735449735456,118.73015873015873 54.81481481481482,118.73015873015873 54.179894179894184,118.51851851851853 53.54497354497355,118.73015873015873 52.91005291005291,118.73015873015873 52.27513227513228,118.73015873015873 51.640211640211646,118.73015873015873 51.00529100529101,118.94179894179895 50.370370370370374,118.73015873015873 49.73544973544974,118.73015873015873 49.1005291005291,118.73015873015873 48.46560846560847,118.73015873015873 47.830687830687836,118.73015873015873 47.195767195767196,118.73015873015873 46.560846560846564,118.73015873015873 45.92592592592593,118.73015873015873 45.29100529100529,118.73015873015873 44.65608465608466,118.73015873015873 44.021164021164026,118.73015873015873 43.386243386243386,118.73015873015873 42.75132275132275,118.73015873015873 42.11640211640212,118.73015873015873 41.48148148148149,118.73015873015873 40.84656084656085,118.73015873015873 40.211640211640216,118.73015873015873 39.57671957671958,118.73015873015873 38.94179894179894,118.73015873015873 38.30687830687831,118.73015873015873 37.67195767195768,118.73015873015873 34.70899470899471,118.73015873015873" style="fill:none; stroke:#00aa99; stroke-width:1.0"  /><polyline points="34.70899470899471,118.73015873015873 35.13227513227513,115.34391534391536 35.13227513227513,114.70899470899472 35.34391534391535,114.07407407407408 35.34391534391535,113.43915343915344 35.34391534391535,112.80423280423281 35.55555555555556,112.16931216931218 35.55555555555556,111.53439153439155 35.55555555555556,110.89947089947091 35.76719576719577,110.26455026455027 35.76719576719577,109.62962962962963 35.97883597883598,108.994708994709 35.97883597883598,108.35978835978837 35.97883597883598,107.72486772486774 35.97883597883598,107.0899470899471 35.97883597883598,106.45502645502647 36.19047619047619,105.82010582010582 36.19047619047619,105.18518518518519 36.19047619047619,104.55026455026456 36.19047619047619,103.91534391534393 36.402116402116405,103.28042328042329 36.402116402116405,102.64550264550266 36.402116402116405,102.01058201058201 36.402116402116405,101.37566137566138 36.402116402116405,100.74074074074075 36.402116402116405,100.10582010582011 36.19047619047619,99.47089947089948 35.97883597883598,98.83597883597885 35.76719576719577,98.2010582010582 35.34391534391535,97.56613756613757 35.13227513227513,96.93121693121694 34.70899470899471,96.2962962962963 34.28571428571429,95.87301587301587 33.65079365079365,95.44973544973546 33.22751322751323,95.02645502645504 32.804232804232804,94.60317460317461 32.16931216931217,94.17989417989419 31.53439153439154,93.75661375661376 30.899470899470902,93.33333333333334 30.264550264550266,92.91005291005291 29.629629629629633,92.69841269841271 28.994708994708997,92.27513227513228 28.35978835978836,92.06349206349208 27.724867724867728,91.85185185185186 27.089947089947092,91.64021164021165 26.455026455026456,91.42857142857143 25.820105820105823,91.42857142857143 25.185185185185187,91.21693121693123 24.55026455026455,91.00529100529101 23.915343915343918,91.00529100529101 23.280423280423282,91.00529100529101 22.645502645502646,91.00529100529101 22.010582010582013,91.00529100529101 21.375661375661377,91.00529100529101 20.740740740740744,91.21693121693123 20.105820105820108,91.21693121693123 19.47089947089947,91.42857142857143 18.83597883597884,91.42857142857143 18.201058201058203,91.64021164021165 17.566137566137566,91.85185185185186 16.931216931216934,92.06349206349208 16.296296296296298,92.4867724867725 15.873015873015873,92.91005291005291 15.238095238095239,93.12169312169313 14.603174603174605,93.33333333333334 13.96825396825397,93.75661375661376 13.333333333333334,93.96825396825398 12.6984126984127,93.96825396825398 12.063492063492065,94.17989417989419 11.428571428571429,94.17989417989419 10.793650793650794,94.17989417989419 10.15873015873016,94.17989417989419 9.523809523809524,93.96825396825398 8.88888888888889,93.96825396825398 8.253968253968255,93.75661375661376 7.6190476190476195,93.54497354497356 6.984126984126985,93.33333333333334 6.34920634920635,93.12169312169313 5.714285714285714,92.91005291005291 5.291005291005291,92.4867724867725 4.656084656084657,92.06349206349208 4.021164021164021,91.64021164021165 3.597883597883598,91.21693121693123 3.174603174603175,90.7936507936508 2.7513227513227516,90.37037037037038 2.3280423280423284,89.73544973544975 1.9047619047619049,89.1005291005291 1.4814814814814816,88.46560846560847 1.26984126984127,87.83068783068784 0.8465608465608466,87.1957671957672 0.8465608465608466,86.56084656084657 0.634920634920635,85.92592592592594 0.4232804232804233,85.29100529100529 0.4232804232804233,84.65608465608466 0.4232804232804233,84.02116402116403 0.21164021164021166,83.3862433862434 0.21164021164021166,82.75132275132276 0.21164021164021166,82.11640211640213 0.21164021164021166,81.48148148148148 0.21164021164021166,80.84656084656085 0.21164021164021166,80.21164021164022 0.21164021164021166,79.57671957671958 0.21164021164021166,78.94179894179895 0.21164021164021166,78.30687830687832 0.4232804232804233,77.67195767195767 0.4232804232804233,77.03703703703704 0.4232804232804233,76.4021164021164 0.4232804232804233,75.76719576719577 0.634920634920635,75.13227513227514 0.634920634920635,74.49735449735451 0.8465608465608466,73.86243386243387 1.0582010582010584,73.22751322751323 1.26984126984127,72.5925925925926 1.26984126984127,71.95767195767196 1.4814814814814816,71.32275132275133 1.6931216931216932,70.6878306878307 1.9047619047619049,70.05291005291006 2.1164021164021167,69.41798941798942 2.53968253968254,68.78306878306879 2.7513227513227516,68.14814814814815 2.9629629629629632,67.51322751322752 3.174603174603175,66.87830687830689 3.597883597883598,66.24338624338625 3.8095238095238098,65.60846560846561 4.2328042328042335,64.97354497354497 4.444444444444445,64.33862433862434 4.867724867724868,63.91534391534392 5.07936507936508,63.280423280423285 5.502645502645503,62.85714285714286 5.9259259259259265,62.22222222222223 6.34920634920635,61.58730158730159 6.772486772486773,60.952380952380956 7.195767195767196,60.31746031746032 7.6190476190476195,59.682539682539684 7.830687830687832,59.04761904761905 8.253968253968255,58.62433862433863 8.677248677248677,58.2010582010582 9.100529100529101,57.777777777777786 9.523809523809524,57.35449735449736 9.947089947089948,56.93121693121694 10.370370370370372,56.50793650793651 10.793650793650794,56.08465608465609 11.428571428571429,55.661375661375665 11.851851851851853,55.23809523809524 12.486772486772487,54.81481481481482 13.121693121693122,54.39153439153439 13.756613756613758,53.968253968253975 14.391534391534393,53.54497354497355 15.026455026455027,53.333333333333336 15.661375661375663,52.91005291005291 16.084656084656086,52.48677248677249 16.71957671957672,52.27513227513228 17.354497354497354,52.06349206349207 17.98941798941799,51.640211640211646 18.624338624338627,51.42857142857143 19.25925925925926,51.21693121693122 19.894179894179896,51.00529100529101 20.529100529100532,50.7936507936508 21.164021164021165,50.58201058201058 21.7989417989418,50.370370370370374 22.433862433862437,50.158730158730165 23.06878306878307,50.158730158730165 23.703703703703706,49.94708994708995 24.338624338624342,49.73544973544974 24.973544973544975,49.73544973544974 25.60846560846561,49.523809523809526 26.243386243386244,49.523809523809526 26.87830687830688,49.94708994708995 27.513227513227516,50.158730158730165 28.14814814814815,50.370370370370374 28.783068783068785,50.7936507936508 29.41798941798942,51.21693121693122 30.052910052910054,51.640211640211646 30.68783068783069,52.06349206349207 31.111111111111114,52.48677248677249 31.53439153439154,52.91005291005291 31.95767195767196,53.333333333333336 32.38095238095239,53.75661375661376 32.804232804232804,54.39153439153439 33.22751322751323,55.02645502645503 33.65079365079365,55.661375661375665 34.074074074074076,56.2962962962963 34.28571428571429,56.93121693121694 34.70899470899471,57.56613756613757 34.920634920634924,58.2010582010582 35.13227513227513,58.83597883597884 35.55555555555556,59.470899470899475 35.76719576719577,60.10582010582011 35.97883597883598,60.74074074074075 36.19047619047619,61.37566137566138 36.613756613756614,62.01058201058201 36.82539682539683,62.64550264550265 37.248677248677254,63.280423280423285 37.46031746031746,63.91534391534392 37.883597883597886,64.33862433862434 38.30687830687831,64.97354497354497 38.730158730158735,65.3968253968254 39.15343915343916,66.03174603174604 39.78835978835979,66.45502645502646 40.211640211640216,66.87830687830689 40.63492063492064,67.3015873015873 41.26984126984127,67.51322751322752 41.904761904761905,67.93650793650794 42.539682539682545,68.14814814814815 43.17460317460318,68.35978835978837 43.80952380952381,68.57142857142858 44.44444444444445,68.78306878306879 45.07936507936508,68.78306878306879 45.714285714285715,68.78306878306879 46.349206349206355,68.57142857142858 46.98412698412699,68.35978835978837 47.61904761904762,68.14814814814815 48.25396825396826,67.72486772486774 48.88888888888889,67.3015873015873 49.523809523809526,66.87830687830689 50.158730158730165,66.45502645502646 50.58201058201058,66.03174603174604 51.00529100529101,65.60846560846561 51.42857142857143,64.97354497354497 51.851851851851855,64.55026455026456 52.27513227513228,63.91534391534392 52.6984126984127,63.492063492063494 53.12169312169313,63.06878306878308 53.54497354497355,62.43386243386244 53.968253968253975,62.01058201058201 54.39153439153439,61.37566137566138 54.81481481481482,60.952380952380956 55.23809523809524,60.52910052910053 55.661375661375665,59.8941798941799 55.87301587301588,59.25925925925927 56.2962962962963,58.83597883597884 56.71957671957672,58.2010582010582 57.142857142857146,57.777777777777786 57.56613756613757,57.142857142857146 57.989417989417994,56.71957671957672 58.41269841269842,56.08465608465609 58.83597883597884,55.449735449735456 59.25925925925927,55.02645502645503 59.682539682539684,54.39153439153439 60.10582010582011,53.968253968253975 60.52910052910053,53.333333333333336 60.952380952380956,52.6984126984127 61.37566137566138,52.06349206349207 61.798941798941804,51.640211640211646 62.22222222222223,51.00529100529101 62.64550264550265,50.370370370370374 63.06878306878308,49.73544973544974 63.492063492063494,49.1005291005291 63.91534391534392,48.46560846560847 64.33862433862434,47.830687830687836 64.76190476190477,47.40740740740741 64.97354497354497,46.77248677248678 65.3968253968254,46.349206349206355 65.82010582010582,45.714285714285715 66.24338624338625,45.07936507936508 66.66666666666667,44.44444444444445 66.87830687830689,43.80952380952381 67.3015873015873,43.386243386243386 67.72486772486774,42.75132275132275 67.93650793650794,42.11640211640212 68.35978835978837,41.6931216931217 68.78306878306879,41.058201058201064 68.994708994709,40.423280423280424 69.41798941798942,40.0 69.84126984126985,39.36507936507937 70.05291005291006,38.730158730158735 70.47619047619048,38.095238095238095 70.8994708994709,37.46031746031746 71.11111111111111,36.82539682539683 71.53439153439155,36.19047619047619 71.74603174603175,35.55555555555556 72.16931216931218,34.920634920634924 72.38095238095238,34.28571428571429 72.80423280423281,33.86243386243387 73.01587301587303,33.22751322751323 74.70899470899471,30.052910052910054" style="fill:none; stroke:#3300bb; stroke-width:1.0"  /><circle cx="74.70899470899471" cy="30.052910052910054" r="2.0" style="fill:none; stroke:#000000aa; stroke-width:0.25" /><circle cx="231.74603174603178" cy="77.03703703703704" r="2.0" style="fill:none; stroke:#000000aa; stroke-width:0.25" /><circle cx="201.90476190476193" cy="177.14285714285717" r="2.0" style="fill:none; stroke:#000000aa; stroke-width:0.25" /><circle cx="34.70899470899471" cy="118.73015873015873" r="2.0" style="fill:none; stroke:#000000aa; stroke-width:0.25" /><circle cx="74.92063492063492" cy="30.476190476190478" r="2.0" style="fill:none; stroke:#ff3366aa; stroke-width:0.25" /><circle cx="231.53439153439155" cy="77.67195767195767" r="2.0" style="fill:none; stroke:#ff3366aa; stroke-width:0.25" /><circle cx="201.6931216931217" cy="176.71957671957674" r="2.0" style="fill:none; stroke:#ff3366aa; stroke-width:0.25" /><circle cx="34.4973544973545" cy="118.51851851851853" r="2.0" style="fill:none; stroke:#ff3366aa; stroke-width:0.25" /><polyline points="85.92592592592594,34.4973544973545 85.29100529100529,34.4973544973545 84.65608465608466,34.28571428571429 84.02116402116403,34.074074074074076 83.3862433862434,33.86243386243387 82.75132275132276,33.65079365079365 82.11640211640213,33.22751322751323 81.48148148148148,33.01587301587302 80.84656084656085,32.804232804232804 80.21164021164022,32.38095238095239 79.57671957671958,32.16931216931217 78.94179894179895,31.746031746031747 78.30687830687832,31.746031746031747 77.88359788359789,31.322751322751326" style="fill:none; stroke:#001100; stroke-width:1.0" /><polyline points="68.994708994709,40.423280423280424 69.41798941798942,40.0 69.84126984126985,39.36507936507937 70.05291005291006,38.730158730158735 70.47619047619048,38.095238095238095 70.8994708994709,37.46031746031746 71.11111111111111,36.82539682539683 71.53439153439155,36.19047619047619 71.74603174603175,35.55555555555556 72.16931216931218,34.920634920634924 72.38095238095238,34.28571428571429 72.80423280423281,33.86243386243387 73.01587301587303,33.22751322751323" style="fill:none; stroke:#000011; stroke-width:1.0" /><polyline points="228.14814814814815,89.1005291005291 228.35978835978838,88.46560846560847 228.57142857142858,87.83068783068784 228.7830687830688,87.1957671957672 228.99470899470901,86.56084656084657 229.20634920634922,85.92592592592594 229.41798941798945,85.29100529100529 229.41798941798945,84.65608465608466 229.62962962962965,84.02116402116403 229.84126984126985,83.3862433862434 230.05291005291008,82.75132275132276 230.26455026455028,82.11640211640213 230.47619047619048,81.48148148148148 230.6878306878307,80.84656084656085" style="fill:none; stroke:#001100; stroke-width:1.0" /><polyline points="220.95238095238096,72.16931216931218 221.5873015873016,72.5925925925926 222.22222222222223,72.80423280423281 222.85714285714286,73.01587301587303 223.49206349206352,73.43915343915344 224.12698412698415,73.65079365079366 224.7619047619048,74.07407407407408 225.39682539682542,74.28571428571429 226.03174603174605,74.49735449735451 226.66666666666669,74.70899470899471 227.30158730158732,75.13227513227514 227.93650793650795,75.34391534391536 228.57142857142858,75.55555555555556" style="fill:none; stroke:#000011; stroke-width:1.0" /><polyline points="190.8994708994709,172.6984126984127 191.53439153439155,172.9100529100529 192.16931216931218,173.12169312169314 192.8042328042328,173.33333333333334 193.43915343915344,173.75661375661377 194.07407407407408,173.96825396825398 194.70899470899474,174.1798941798942 195.34391534391537,174.3915343915344 195.978835978836,174.81481481481484 196.61375661375664,175.02645502645504 197.24867724867727,175.02645502645504 197.8835978835979,175.44973544973547 198.51851851851853,175.87301587301587" style="fill:none; stroke:#001100; stroke-width:1.0" /><polyline points="204.23280423280426,165.50264550264552 204.23280423280426,166.13756613756615 204.02116402116403,166.7724867724868 204.02116402116403,167.40740740740742 203.80952380952382,168.04232804232805 203.80952380952382,168.67724867724868 203.59788359788362,169.31216931216932 203.3862433862434,169.94708994708995 203.3862433862434,170.58201058201058 203.1746031746032,171.21693121693124 202.962962962963,171.85185185185188 202.962962962963,172.4867724867725 202.75132275132276,173.12169312169314 202.53968253968256,173.75661375661377" style="fill:none; stroke:#000011; stroke-width:1.0" /><polyline points="35.97883597883598,107.0899470899471 35.97883597883598,107.72486772486774 35.97883597883598,108.35978835978837 35.97883597883598,108.994708994709 35.76719576719577,109.62962962962963 35.76719576719577,110.26455026455027 35.55555555555556,110.89947089947091 35.55555555555556,111.53439153439155 35.55555555555556,112.16931216931218 35.34391534391535,112.80423280423281 35.34391534391535,113.43915343915344 35.34391534391535,114.07407407407408 35.13227513227513,114.70899470899472 35.13227513227513,115.34391534391536" style="fill:none; stroke:#001100; stroke-width:1.0" /><polyline points="45.92592592592593,118.73015873015873 45.29100529100529,118.73015873015873 44.65608465608466,118.73015873015873 44.021164021164026,118.73015873015873 43.386243386243386,118.73015873015873 42.75132275132275,118.73015873015873 42.11640211640212,118.73015873015873 41.48148148148149,118.73015873015873 40.84656084656085,118.73015873015873 40.211640211640216,118.73015873015873 39.57671957671958,118.73015873015873 38.94179894179894,118.73015873015873 38.30687830687831,118.73015873015873 37.67195767195768,118.73015873015873" style="fill:none; stroke:#000011; stroke-width:1.0" /><polyline points="77.88359788359789,31.322751322751326 58.2010582010582,23.492063492063494" style="fill:none; stroke:#ffaa00; stroke-width:0.4" /><polyline points="73.01587301587303,33.22751322751323 83.3862433862434,14.814814814814817" style="fill:none; stroke:#aaff00; stroke-width:0.4" /><polyline points="230.6878306878307,80.84656084656085 236.82539682539684,60.52910052910053" style="fill:none; stroke:#ffaa00; stroke-width:0.4" /><polyline points="228.57142857142858,75.55555555555556 247.83068783068785,84.23280423280424" style="fill:none; stroke:#aaff00; stroke-width:0.4" /><polyline points="198.51851851851853,175.87301587301587 217.989417989418,183.91534391534393" style="fill:none; stroke:#ffaa00; stroke-width:0.4" /><polyline points="202.53968253968256,173.75661375661377 198.30687830687833,194.4973544973545" style="fill:none; stroke:#aaff00; stroke-width:0.4" /><polyline points="35.13227513227513,115.34391534391536 33.01587301587302,136.2962962962963" style="fill:none; stroke:#ffaa00; stroke-width:0.4" /><polyline points="37.67195767195768,118.73015873015873 16.50793650793651,118.73015873015873" style="fill:none; stroke:#aaff00; stroke-width:0.4" /><circle cx="119.15343915343917" cy="91.00529100529101" r="1.0" style="fill:#444444; stroke-width:0" /><circle cx="122.32804232804234" cy="87.1957671957672" r="10.582010582010582" style="fill:#ff770022; stroke-width:0" /><circle cx="122.32804232804234" cy="87.1957671957672" r="1.0" style="fill:#ff7700; stroke-width:0" /></svg>