<?xml version="1.0" encoding="UTF-8" standalone="no"?><svg width="612.0634920634922" height="352.3809523809524" viewBox="-10 -10 224.02116402116403 137.46031746031747" xmlns="http://www.w3.org/2000/svg" xmlns:xlink="http://www.w3.org/1999/xlink"><polyline points="42.75132275132275,0.8465608465608466 45.92592592592593,1.0582010582010584 46.560846560846564,1.0582010582010584 47.195767195767196,1.0582010582010584 47.830687830687836,1.26984126984127 48.46560846560847,1.26984126984127 49.1005291005291,1.26984126984127 49.73544973544974,1.4814814814814816 50.370370370370374,1.4814814814814816 51.00529100529101,1.6931216931216932 51.640211640211646,1.9047619047619049 52.27513227513228,1.9047619047619049 52.91005291005291,1.9047619047619049 53.54497354497355,1.9047619047619049 54.179894179894184,1.9047619047619049 54.81481481481482,1.9047619047619049 55.449735449735456,2.1164021164021167 56.08465608465609,2.1164021164021167 56.71957671957672,2.1164021164021167 57.35449735449736,2.1164021164021167 57.989417989417994,2.1164021164021167 58.62433862433863,2.1164021164021167 59.25925925925927,2.1164021164021167 59.8941798941799,2.1164021164021167 60.52910052910053,2.1164021164021167 61.16402116402117,2.1164021164021167 61.798941798941804,1.9047619047619049 62.43386243386244,2.1164021164021167 63.06878306878308,1.9047619047619049 63.70370370370371,2.1164021164021167 64.33862433862434,1.9047619047619049 64.97354497354497,1.9047619047619049 65.60846560846561,1.9047619047619049 66.24338624338625,1.9047619047619049 66.87830687830689,1.6931216931216932 67.51322751322752,1.6931216931216932 68.14814814814815,1.6931216931216932 68.78306878306879,1.6931216931216932 69.41798941798942,1.6931216931216932 70.05291005291006,1.6931216931216932 70.6878306878307,1.4814814814814816 71.32275132275133,1.4814814814814816 71.95767195767196,1.26984126984127 72.5925925925926,1.26984126984127 73.22751322751323,1.26984126984127 73.86243386243387,1.0582010582010584 74.49735449735451,1.0582010582010584 75.13227513227514,1.0582010582010584 75.76719576719577,0.8465608465608466 76.4021164021164,0.8465608465608466 77.03703703703704,0.8465608465608466 77.67195767195767,0.634920634920635 78.30687830687832,0.634920634920635 78.94179894179895,0.4232804232804233 79.57671957671958,0.4232804232804233 80.21164021164022,0.4232804232804233 80.84656084656085,0.4232804232804233 81.48148148148148,0.21164021164021166 82.11640211640213,0.21164021164021166 82.75132275132276,0.21164021164021166 83.3862433862434,0.21164021164021166 84.02116402116403,0.21164021164021166 84.65608465608466,0.21164021164021166 85.29100529100529,0.21164021164021166 85.92592592592594,0.21164021164021166 86.56084656084657,0.21164021164021166 87.1957671957672,0.21164021164021166 87.83068783068784,0.21164021164021166 88.46560846560847,0.4232804232804233 89.1005291005291,0.4232804232804233 89.73544973544975,0.4232804232804233 90.37037037037038,0.4232804232804233 91.00529100529101,0.634920634920635 91.64021164021165,0.634920634920635 92.27513227513228,0.634920634920635 92.91005291005291,0.634920634920635 93.54497354497356,0.8465608465608466 94.17989417989419,0.8465608465608466 94.81481481481482,1.0582010582010584 95.44973544973546,1.0582010582010584 96.08465608465609,1.26984126984127 96.71957671957672,1.26984126984127 97.35449735449737,1.6931216931216932 97.989417989418,1.4814814814814816 98.62433862433863,1.9047619047619049 99.25925925925927,2.1164021164021167 99.8941798941799,2.1164021164021167 100.52910052910053,2.3280423280423284 101.16402116402116,2.53968253968254 101.79894179894181,2.7513227513227516 102.43386243386244,2.9629629629629632 103.06878306878308,3.174603174603175 103.70370370370371,3.3862433862433865 104.33862433862434,3.597883597883598 104.97354497354497,4.021164021164021 105.60846560846562,4.2328042328042335 106.03174603174604,4.656084656084657 106.66666666666667,4.867724867724868 107.3015873015873,5.291005291005291 107.93650793650795,5.714285714285714 108.35978835978837,6.137566137566138 108.994708994709,6.560846560846561 109.62962962962963,6.984126984126985 110.05291005291006,7.407407407407408 110.47619047619048,7.830687830687832 110.89947089947091,8.253968253968255 111.32275132275133,8.677248677248677 111.74603174603176,9.312169312169313 112.16931216931218,9.735449735449736 112.5925925925926,10.15873015873016 113.01587301587303,10.793650793650794 113.43915343915344,11.428571428571429 113.65079365079366,12.063492063492065 114.07407407407408,12.6984126984127 114.28571428571429,13.333333333333334 114.49735449735451,13.96825396825397 114.70899470899472,14.603174603174605 114.92063492063492,15.238095238095239 115.13227513227514,15.873015873015873 115.34391534391536,16.50793650793651 115.55555555555557,17.142857142857146 115.76719576719577,17.77777777777778 115.97883597883599,18.412698412698415 116.1904761904762,19.047619047619047 116.4021164021164,19.682539682539684 116.82539682539684,20.31746031746032 116.82539682539684,20.952380952380953 117.03703703703705,21.58730158730159 117.24867724867725,22.222222222222225 117.46031746031747,22.857142857142858 117.67195767195768,23.492063492063494 117.67195767195768,24.12698412698413 118.0952380952381,24.761904761904763 118.30687830687832,25.3968253968254 118.51851851851853,26.031746031746035 118.73015873015873,26.666666666666668 118.94179894179895,27.301587301587304 119.36507936507937,27.93650793650794 119.57671957671958,28.571428571428573 120.00000000000001,29.20634920634921 120.42328042328043,29.841269841269842 120.84656084656086,30.476190476190478 121.26984126984128,31.111111111111114 121.6931216931217,31.53439153439154 122.11640211640213,32.16931216931217 122.53968253968254,32.592592592592595 123.17460317460318,33.01587301587302 123.59788359788361,33.43915343915344 124.23280423280424,33.86243386243387 124.86772486772487,34.28571428571429 125.5026455026455,34.28571428571429 126.13756613756615,34.4973544973545 126.77248677248679,34.70899470899471 127.40740740740742,34.920634920634924 128.04232804232805,34.920634920634924 128.67724867724868,34.70899470899471 129.31216931216932,34.70899470899471 129.94708994708995,34.4973544973545 130.58201058201058,34.28571428571429 131.005291005291,33.86243386243387 131.64021164021165,33.65079365079365 132.27513227513228,33.22751322751323 132.9100529100529,32.804232804232804 133.33333333333334,32.38095238095239 133.75661375661377,31.95767195767196 134.17989417989418,31.53439153439154 134.6031746031746,31.111111111111114 135.02645502645504,30.476190476190478 135.44973544973547,30.052910052910054 135.87301587301587,29.41798941798942 136.2962962962963,28.783068783068785 136.5079365079365,28.14814814814815 136.93121693121694,27.724867724867728 137.14285714285717,27.089947089947092 137.56613756613757,26.455026455026456 137.7777777777778,25.820105820105823 138.2010582010582,25.3968253968254 138.41269841269843,24.761904761904763 138.62433862433863,24.12698412698413 139.04761904761907,23.492063492063494 139.25925925925927,22.857142857142858 139.47089947089947,22.222222222222225 139.8941798941799,21.58730158730159 140.10582010582013,20.952380952380953 140.52910052910053,20.31746031746032 140.74074074074076,19.682539682539684 140.74074074074076,19.047619047619047 141.16402116402116,18.412698412698415 141.5873015873016,17.77777777777778 141.7989417989418,17.142857142857146 142.22222222222223,16.50793650793651 142.64550264550266,15.873015873015873 143.0687830687831,15.449735449735451 143.4920634920635,14.814814814814817 143.91534391534393,14.17989417989418 144.33862433862436,13.544973544973546 144.76190476190476,13.121693121693122 145.1851851851852,12.6984126984127 145.60846560846562,12.063492063492065 146.24338624338625,11.640211640211641 146.66666666666669,11.216931216931219 147.0899470899471,10.793650793650794 147.51322751322752,10.370370370370372 147.93650793650795,9.735449735449736 148.57142857142858,9.523809523809524 148.99470899470901,9.100529100529101 149.41798941798942,8.677248677248677 150.05291005291005,8.465608465608467 150.6878306878307,8.042328042328043 151.32275132275134,8.042328042328043 151.95767195767198,7.830687830687832 152.5925925925926,7.407407407407408 153.22751322751324,6.984126984126985 153.86243386243387,6.772486772486773 154.4973544973545,6.772486772486773 155.13227513227514,6.34920634920635 155.76719576719577,6.34920634920635 156.4021164021164,6.137566137566138 157.03703703703704,5.9259259259259265 157.67195767195767,5.9259259259259265 158.30687830687833,5.9259259259259265 158.94179894179896,5.714285714285714 159.5767195767196,5.714285714285714 160.21164021164023,5.714285714285714 160.84656084656086,5.714285714285714 161.4814814814815,5.714285714285714 162.11640211640213,5.714285714285714 162.75132275132276,5.714285714285714 163.3862433862434,5.714285714285714 164.02116402116403,5.714285714285714 164.65608465608466,5.714285714285714 165.2910052910053,5.714285714285714 165.92592592592595,5.714285714285714 166.56084656084658,5.714285714285714 167.19576719576722,5.714285714285714 167.83068783068785,5.714285714285714 168.46560846560848,5.714285714285714 169.10052910052912,5.714285714285714 169.73544973544975,5.9259259259259265 170.37037037037038,5.9259259259259265 171.005291005291,5.9259259259259265 171.64021164021165,5.9259259259259265 172.27513227513228,5.9259259259259265 172.9100529100529,5.9259259259259265 173.54497354497354,5.9259259259259265 174.1798941798942,6.137566137566138 174.81481481481484,6.137566137566138 175.44973544973547,6.137566137566138 176.0846560846561,6.137566137566138 176.71957671957674,6.34920634920635 177.35449735449737,6.137566137566138 177.989417989418,6.137566137566138 178.62433862433863,6.34920634920635 179.25925925925927,6.34920634920635 179.8941798941799,6.34920634920635 180.52910052910053,6.34920634920635 181.16402116402116,6.560846560846561 181.79894179894183,6.560846560846561 182.43386243386246,6.34920634920635 183.0687830687831,6.34920634920635 183.70370370370372,6.560846560846561 184.33862433862436,6.560846560846561 184.973544973545,6.560846560846561 185.60846560846562,6.772486772486773 186.24338624338625,6.772486772486773 186.8783068783069,6.772486772486773 187.51322751322752,6.772486772486773 188.14814814814815,6.984126984126985 188.78306878306879,6.984126984126985 189.41798941798945,6.984126984126985 190.05291005291008,7.195767195767196 190.6878306878307,7.195767195767196 191.32275132275134,7.195767195767196 191.95767195767198,7.407407407407408 192.5925925925926,7.407407407407408 193.22751322751324,7.6190476190476195 193.86243386243387,7.6190476190476195 194.4973544973545,7.6190476190476195 195.13227513227514,7.6190476190476195 195.76719576719577,8.042328042328043 196.4021164021164,8.042328042328043 197.03703703703704,8.042328042328043 197.6719576719577,8.042328042328043 198.30687830687833,8.253968253968255 198.94179894179896,8.465608465608467 201.90476190476193,8.88888888888889" style="fill:none; stroke:#cc0000; stroke-width:1.0"  /><polyline points="201.90476190476193,8.88888888888889 202.32804232804233,12.486772486772487 202.32804232804233,13.121693121693122 202.32804232804233,13.756613756613758 202.32804232804233,14.391534391534393 202.53968253968256,15.026455026455027 202.53968253968256,15.661375661375663 202.53968253968256,16.296296296296298 202.75132275132276,16.931216931216934 202.75132275132276,17.566137566137566 202.75132275132276,18.201058201058203 202.962962962963,18.83597883597884 203.1746031746032,19.47089947089947 203.1746031746032,20.105820105820108 203.1746031746032,20.740740740740744 203.3862433862434,21.375661375661377 203.3862433862434,22.010582010582013 203.3862433862434,22.645502645502646 203.3862433862434,23.280423280423282 203.3862433862434,23.915343915343918 203.3862433862434,24.55026455026455 203.59788359788362,25.185185185185187 203.3862433862434,25.820105820105823 203.3862433862434,26.455026455026456 203.3862433862434,27.089947089947092 203.3862433862434,27.724867724867728 203.3862433862434,28.35978835978836 203.3862433862434,28.994708994708997 203.3862433862434,29.629629629629633 203.3862433862434,30.264550264550266 203.3862433862434,30.899470899470902 203.3862433862434,31.53439153439154 203.1746031746032,32.16931216931217 203.1746031746032,32.804232804232804 203.1746031746032,33.43915343915344 203.1746031746032,34.074074074074076 202.962962962963,34.70899470899471 202.962962962963,35.34391534391535 202.962962962963,35.97883597883598 202.75132275132276,36.613756613756614 202.53968253968256,37.248677248677254 202.32804232804233,37.883597883597886 201.90476190476193,38.51851851851852 201.4814814814815,39.15343915343916 201.05820105820106,39.57671957671958 200.42328042328043,40.0 199.7883597883598,40.423280423280424 199.15343915343917,40.63492063492064 198.51851851851853,40.84656084656085 197.8835978835979,40.84656084656085 197.24867724867727,41.058201058201064 196.61375661375664,41.058201058201064 195.978835978836,40.84656084656085 195.34391534391537,40.84656084656085 194.70899470899474,40.63492063492064 194.07407407407408,40.423280423280424 193.43915343915344,40.211640211640216 192.8042328042328,39.78835978835979 192.16931216931218,39.36507936507937 191.53439153439155,38.94179894179894 190.8994708994709,38.51851851851852 190.47619047619048,38.095238095238095 190.05291005291008,37.67195767195768 189.62962962962965,37.248677248677254 189.20634920634922,36.82539682539683 188.78306878306879,36.402116402116405 188.35978835978838,35.97883597883598 187.93650793650795,35.34391534391535 187.51322751322752,34.920634920634924 187.08994708994712,34.4973544973545 186.45502645502646,34.074074074074076 186.03174603174605,33.65079365079365 185.39682539682542,33.43915343915344 184.7619047619048,33.01587301587302 184.12698412698415,32.592592592592595 183.4920634920635,32.38095238095239 182.85714285714286,32.38095238095239 182.22222222222223,32.38095238095239 181.5873015873016,32.16931216931217 180.95238095238096,32.16931216931217 180.31746031746033,32.16931216931217 179.6825396825397,31.95767195767196 179.04761904761907,31.95767195767196 178.41269841269843,31.95767195767196 177.7777777777778,31.95767195767196 177.14285714285717,31.95767195767196 176.50793650793653,32.16931216931217 175.87301587301587,32.16931216931217 175.23809523809524,32.38095238095239 174.6031746031746,32.592592592592595 173.96825396825398,33.01587301587302 173.33333333333334,33.22751322751323 172.9100529100529,33.65079365079365 172.27513227513228,34.074074074074076 171.85185185185188,34.4973544973545 171.42857142857144,34.920634920634924 171.005291005291,35.55555555555556 170.58201058201058,35.97883597883598 170.15873015873018,36.613756613756614 169.73544973544975,37.248677248677254 169.52380952380955,37.883597883597886 169.10052910052912,38.51851851851852 168.8888888888889,39.15343915343916 168.67724867724868,39.78835978835979 168.25396825396825,40.423280423280424 168.04232804232805,41.058201058201064 167.83068783068785,41.6931216931217 167.61904761904762,42.32804232804233 167.40740740740742,42.96296296296297 167.19576719576722,43.5978835978836 166.984126984127,44.232804232804234 166.7724867724868,44.867724867724874 166.56084656084658,45.50264550264551 166.56084656084658,46.13756613756614 166.34920634920636,46.77248677248678 166.13756613756615,47.40740740740741 166.13756613756615,48.042328042328045 165.92592592592595,48.677248677248684 165.92592592592595,49.31216931216932 165.92592592592595,49.94708994708995 165.71428571428572,50.58201058201058 165.71428571428572,51.21693121693122 165.71428571428572,51.851851851851855 165.71428571428572,52.48677248677249 165.71428571428572,53.12169312169313 165.71428571428572,53.75661375661376 165.71428571428572,54.39153439153439 165.92592592592595,55.02645502645503 165.92592592592595,55.661375661375665 165.92592592592595,56.2962962962963 165.92592592592595,56.93121693121694 165.92592592592595,57.56613756613757 165.92592592592595,58.2010582010582 165.92592592592595,58.83597883597884 165.92592592592595,59.470899470899475 166.13756613756615,60.10582010582011 166.13756613756615,60.74074074074075 166.34920634920636,61.37566137566138 166.34920634920636,62.01058201058201 166.56084656084658,62.64550264550265 166.7724867724868,63.280423280423285 166.7724867724868,63.91534391534392 167.19576719576722,64.55026455026456 167.40740740740742,65.18518518518519 167.61904761904762,65.82010582010582 168.04232804232805,66.45502645502646 168.25396825396825,67.08994708994709 168.67724867724868,67.51322751322752 168.8888888888889,68.14814814814815 169.31216931216932,68.78306878306879 169.73544973544975,69.41798941798942 170.15873015873018,70.05291005291006 170.58201058201058,70.47619047619048 171.005291005291,70.8994708994709 171.64021164021165,71.32275132275133 172.06349206349208,71.74603174603175 172.6984126984127,71.95767195767196 173.33333333333334,72.16931216931218 173.96825396825398,72.38095238095238 174.6031746031746,72.5925925925926 175.23809523809524,72.5925925925926 175.87301587301587,72.80423280423281 176.50793650793653,72.80423280423281 177.14285714285717,72.5925925925926 177.7777777777778,72.5925925925926 178.41269841269843,72.5925925925926 179.04761904761907,72.5925925925926 179.6825396825397,72.5925925925926 180.31746031746033,72.38095238095238 180.95238095238096,72.38095238095238 181.5873015873016,72.16931216931218 182.22222222222223,72.16931216931218 182.64550264550266,71.74603174603175 183.2804232804233,71.53439153439155 183.91534391534393,71.53439153439155 184.55026455026456,71.32275132275133 185.1851851851852,71.32275132275133 185.60846560846562,70.8994708994709 186.24338624338625,70.6878306878307 186.8783068783069,70.6878306878307 187.51322751322752,70.26455026455027 188.14814814814815,70.47619047619048 188.78306878306879,70.05291005291006 189.41798941798945,70.05291005291006 190.05291005291008,70.26455026455027 190.6878306878307,70.05291005291006 191.32275132275134,70.47619047619048 191.95767195767198,70.47619047619048 192.5925925925926,70.6878306878307 193.22751322751324,71.11111111111111 193.86243386243387,71.32275132275133 194.4973544973545,71.74603174603175 194.92063492063494,72.16931216931218 195.34391534391537,72.5925925925926 195.76719576719577,73.01587301587303 196.1904761904762,73.65079365079366 196.61375661375664,74.28571428571429 196.82539682539684,74.92063492063492 197.03703703703704,75.55555555555556 197.24867724867727,76.19047619047619 197.24867724867727,76.82539682539684 197.24867724867727,77.46031746031747 197.24867724867727,78.0952380952381 197.24867724867727,78.73015873015873 197.03703703703704,79.36507936507937 197.03703703703704,80.0 196.82539682539684,80.63492063492065 196.61375661375664,81.26984126984128 196.4021164021164,81.90476190476191 195.978835978836,82.53968253968254 195.76719576719577,83.17460317460318 195.55555555555557,83.80952380952381 195.13227513227514,84.44444444444446 194.92063492063494,85.07936507936509 194.70899470899474,85.71428571428572 194.4973544973545,86.34920634920636 194.2857142857143,86.98412698412699 194.07407407407408,87.61904761904762 193.65079365079367,88.25396825396827 193.43915343915344,88.8888888888889 193.43915343915344,89.52380952380953 193.22751322751324,90.15873015873017 192.8042328042328,90.7936507936508 192.5925925925926,91.42857142857143 192.3809523809524,92.06349206349208 192.16931216931218,92.69841269841271 191.95767195767198,93.33333333333334 191.74603174603175,93.96825396825398 191.53439153439155,94.60317460317461 191.32275132275134,95.23809523809524 191.11111111111111,95.87301587301587 190.8994708994709,96.50793650793652 190.6878306878307,97.14285714285715 190.47619047619048,97.77777777777779 190.26455026455028,98.41269841269842 190.26455026455028,99.04761904761905 190.05291005291008,99.68253968253968 189.84126984126985,100.31746031746033 189.62962962962965,100.95238095238096 189.41798941798945,101.5873015873016 189.20634920634922,102.22222222222223 188.99470899470901,102.85714285714286 188.99470899470901,103.4920634920635 188.78306878306879,104.12698412698414 188.57142857142858,104.76190476190477 188.35978835978838,105.3968253968254 188.14814814814815,106.03174603174604 187.93650793650795,106.66666666666667 187.93650793650795,107.3015873015873 187.72486772486775,107.93650793650795 186.66666666666669,111.74603174603176" style="fill:none; stroke:#999900; stroke-width:1.0"  /><polyline points="186.66666666666669,111.74603174603176 183.70370370370372,112.5925925925926 183.0687830687831,112.80423280423281 182.64550264550266,113.22751322751324 182.01058201058203,113.22751322751324 181.3756613756614,113.43915343915344 180.74074074074076,113.65079365079366 180.10582010582013,113.86243386243387 179.4708994708995,113.86243386243387 178.83597883597884,114.07407407407408 178.2010582010582,114.28571428571429 177.56613756613757,114.28571428571429 176.93121693121694,114.49735449735451 176.2962962962963,114.70899470899472 175.66137566137567,114.92063492063492 175.02645502645504,114.92063492063492 174.3915343915344,115.13227513227514 173.75661375661377,115.13227513227514 173.12169312169314,115.34391534391536 172.4867724867725,115.34391534391536 171.85185185185188,115.55555555555557 171.21693121693124,115.55555555555557 170.58201058201058,115.76719576719577 169.94708994708995,115.76719576719577 169.31216931216932,115.97883597883599 168.67724867724868,115.97883597883599 168.04232804232805,116.1904761904762 167.40740740740742,116.1904761904762 166.7724867724868,116.1904761904762 166.13756613756615,116.4021164021164 165.50264550264552,116.4021164021164 164.8677248677249,116.4021164021164 164.23280423280426,116.4021164021164 163.59788359788362,116.61375661375662 162.96296296296296,116.61375661375662 162.32804232804233,116.61375661375662 161.6931216931217,116.82539682539684 161.05820105820106,116.82539682539684 160.42328042328043,116.82539682539684 159.7883597883598,116.82539682539684 159.15343915343917,116.82539682539684 158.51851851851853,116.82539682539684 157.8835978835979,116.82539682539684 157.24867724867727,116.82539682539684 156.61375661375664,117.03703703703705 155.978835978836,116.82539682539684 155.34391534391534,116.82539682539684 154.7089947089947,116.82539682539684 154.07407407407408,116.82539682539684 153.43915343915344,116.82539682539684 152.8042328042328,116.82539682539684 152.16931216931218,116.82539682539684 151.53439153439155,116.82539682539684 150.8994708994709,116.82539682539684 150.26455026455028,116.82539682539684 149.62962962962965,116.61375661375662 148.99470899470901,116.61375661375662 148.35978835978838,116.61375661375662 147.72486772486775,116.61375661375662 147.0899470899471,116.61375661375662 146.45502645502646,116.61375661375662 145.82010582010582,116.61375661375662 145.1851851851852,116.61375661375662 144.55026455026456,116.4021164021164 143.91534391534393,116.4021164021164 143.2804232804233,116.1904761904762 142.64550264550266,116.1904761904762 142.01058201058203,115.97883597883599 141.3756613756614,115.97883597883599 140.74074074074076,115.76719576719577 140.10582010582013,115.76719576719577 139.47089947089947,115.55555555555557 138.83597883597884,115.55555555555557 138.2010582010582,115.34391534391536 137.56613756613757,115.34391534391536 136.93121693121694,115.13227513227514 136.2962962962963,114.92063492063492 135.66137566137567,114.70899470899472 135.02645502645504,114.70899470899472 134.3915343915344,114.49735449735451 133.75661375661377,114.28571428571429 133.12169312169314,114.28571428571429 132.4867724867725,114.07407407407408 131.85185185185185,113.86243386243387 131.21693121693121,113.65079365079366 130.58201058201058,113.43915343915344 129.94708994708995,113.22751322751324 129.31216931216932,113.01587301587303 128.67724867724868,112.80423280423281 128.04232804232805,112.5925925925926 127.40740740740742,112.3809523809524 126.77248677248679,112.16931216931218 126.13756613756615,111.95767195767196 125.5026455026455,111.74603174603176 124.86772486772487,111.53439153439155 124.23280423280424,111.11111111111111 123.59788359788361,110.89947089947091 122.96296296296298,110.47619047619048 122.32804232804234,110.26455026455027 121.6931216931217,109.84126984126985 121.05820105820106,109.62962962962963 120.63492063492065,109.20634920634922 120.00000000000001,108.78306878306879 119.57671957671958,108.35978835978837 119.15343915343917,107.93650793650795 118.73015873015873,107.51322751322752 118.30687830687832,106.87830687830689 117.88359788359789,106.45502645502647 117.67195767195768,105.82010582010582 117.24867724867725,105.18518518518519 117.03703703703705,104.55026455026456 117.03703703703705,103.91534391534393 117.03703703703705,103.28042328042329 117.03703703703705,102.64550264550266 117.03703703703705,102.01058201058201 117.03703703703705,101.37566137566138 117.24867724867725,100.74074074074075 117.46031746031747,100.10582010582011 117.46031746031747,99.47089947089948 117.67195767195768,98.83597883597885 117.88359788359789,98.2010582010582 118.0952380952381,97.56613756613757 118.30687830687832,96.93121693121694 118.51851851851853,96.2962962962963 118.73015873015873,95.66137566137567 118.94179894179895,95.02645502645504 119.15343915343917,94.39153439153439 119.36507936507937,93.75661375661376 119.7883597883598,93.12169312169313 119.7883597883598,92.4867724867725 120.00000000000001,91.85185185185186 120.21164021164022,91.21693121693123 120.42328042328043,90.58201058201058 120.63492063492065,89.94708994708995 120.63492063492065,89.31216931216932 120.84656084656086,88.67724867724868 121.05820105820106,88.04232804232805 121.05820105820106,87.40740740740742 121.26984126984128,86.77248677248677 121.4814814814815,86.13756613756614 121.4814814814815,85.5026455026455 121.6931216931217,84.86772486772487 121.6931216931217,84.23280423280424 121.90476190476191,83.59788359788361 121.90476190476191,82.96296296296298 121.90476190476191,82.32804232804233 121.90476190476191,81.6931216931217 121.90476190476191,81.05820105820106 121.6931216931217,80.42328042328043 121.6931216931217,79.7883597883598 121.4814814814815,79.15343915343917 121.4814814814815,78.51851851851852 121.05820105820106,77.88359788359789 120.84656084656086,77.24867724867725 120.63492063492065,76.61375661375662 120.42328042328043,75.97883597883599 120.00000000000001,75.34391534391536 119.57671957671958,74.70899470899471 119.15343915343917,74.07407407407408 118.73015873015873,73.65079365079366 118.30687830687832,73.22751322751323 117.88359788359789,72.80423280423281 117.24867724867725,72.38095238095238 116.82539682539684,71.95767195767196 116.1904761904762,71.74603174603175 115.55555555555557,71.32275132275133 114.92063492063492,71.11111111111111 114.28571428571429,70.8994708994709 113.65079365079366,70.6878306878307 113.01587301587303,70.47619047619048 112.3809523809524,70.6878306878307 111.74603174603176,70.47619047619048 111.11111111111111,70.47619047619048 110.47619047619048,70.26455026455027 109.84126984126985,70.05291005291006 109.20634920634922,70.05291005291006 108.57142857142858,70.05291005291006 107.93650793650795,69.84126984126985 107.3015873015873,69.84126984126985 106.66666666666667,69.84126984126985 106.03174603174604,69.62962962962963 105.3968253968254,69.62962962962963 104.76190476190477,69.62962962962963 104.12698412698414,69.62962962962963 103.4920634920635,69.62962962962963 102.85714285714286,69.62962962962963 102.22222222222223,69.62962962962963 101.5873015873016,69.62962962962963 100.95238095238096,69.62962962962963 100.31746031746033,69.84126984126985 99.68253968253968,69.84126984126985 99.04761904761905,69.84126984126985 98.41269841269842,70.05291005291006 97.77777777777779,70.26455026455027 97.14285714285715,70.26455026455027 96.50793650793652,70.47619047619048 95.87301587301587,70.6878306878307 95.23809523809524,71.11111111111111 94.60317460317461,71.53439153439155 93.96825396825398,71.95767195767196 93.54497354497356,72.38095238095238 93.12169312169313,72.80423280423281 92.69841269841271,73.43915343915344 92.27513227513228,74.07407407407408 92.06349206349208,74.70899470899471 91.85185185185186,75.34391534391536 91.64021164021165,75.97883597883599 91.64021164021165,76.61375661375662 91.64021164021165,77.24867724867725 91.42857142857143,77.88359788359789 91.42857142857143,78.51851851851852 91.42857142857143,79.15343915343917 91.42857142857143,79.7883597883598 91.64021164021165,80.42328042328043 91.64021164021165,81.05820105820106 91.64021164021165,81.6931216931217 91.85185185185186,82.32804232804233 92.06349206349208,82.96296296296298 92.27513227513228,83.59788359788361 92.27513227513228,84.23280423280424 92.4867724867725,84.86772486772487 92.69841269841271,85.5026455026455 92.91005291005291,86.13756613756614 93.12169312169313,86.77248677248677 93.33333333333334,87.40740740740742 93.54497354497356,88.04232804232805 93.75661375661376,88.67724867724868 93.96825396825398,89.31216931216932 94.39153439153439,89.73544973544975 94.60317460317461,90.37037037037038 94.81481481481482,91.00529100529101 95.02645502645504,91.64021164021165 95.23809523809524,92.27513227513228 95.23809523809524,92.91005291005291 95.44973544973546,93.54497354497356 95.44973544973546,94.17989417989419 95.44973544973546,94.81481481481482 95.66137566137567,95.44973544973546 95.66137566137567,96.08465608465609 95.66137566137567,96.71957671957672 95.66137566137567,97.35449735449737 95.44973544973546,97.989417989418 95.44973544973546,98.62433862433863 95.44973544973546,99.25925925925927 95.23809523809524,99.8941798941799 95.23809523809524,100.52910052910053 95.02645502645504,101.16402116402116 94.81481481481482,101.79894179894181 94.39153439153439,102.43386243386244 94.17989417989419,103.06878306878308 93.75661375661376,103.4920634920635 93.12169312169313,103.91534391534393 92.69841269841271,104.33862433862434 92.06349206349208,104.76190476190477 91.42857142857143,104.97354497354497 90.7936507936508,105.18518518518519 90.15873015873017,105.3968253968254 89.52380952380953,105.60846560846562 88.8888888888889,105.60846560846562 88.25396825396827,105.82010582010582 87.61904761904762,105.82010582010582 86.98412698412699,105.82010582010582 86.34920634920636,105.60846560846562 85.71428571428572,105.60846560846562 85.07936507936509,105.60846560846562 84.44444444444446,105.3968253968254 83.80952380952381,105.3968253968254 83.17460317460318,105.3968253968254 82.53968253968254,105.18518518518519 81.90476190476191,105.18518518518519 81.26984126984128,104.97354497354497 80.63492063492065,104.97354497354497 80.0,104.76190476190477 79.36507936507937,104.76190476190477 78.73015873015873,104.76190476190477 78.0952380952381,104.55026455026456 77.46031746031747,104.76190476190477 76.82539682539684,104.76190476190477 76.19047619047619,104.55026455026456 75.55555555555556,104.55026455026456 74.92063492063492,104.33862433862434 74.28571428571429,104.33862433862434 73.65079365079366,104.33862433862434 73.01587301587303,104.12698412698414 72.38095238095238,104.12698412698414 71.74603174603175,104.12698412698414 71.11111111111111,103.91534391534393 70.47619047619048,103.91534391534393 69.84126984126985,103.91534391534393 69.20634920634922,103.91534391534393 68.57142857142858,103.70370370370371 67.93650793650794,103.70370370370371 67.3015873015873,103.70370370370371 66.66666666666667,103.4920634920635 66.03174603174604,103.4920634920635 65.3968253968254,103.4920634920635 64.76190476190477,103.4920634920635 64.12698412698413,103.28042328042329 63.492063492063494,103.28042328042329 62.85714285714286,103.28042328042329 62.22222222222223,103.28042328042329 61.58730158730159,103.28042328042329 60.952380952380956,103.28042328042329 60.31746031746032,103.06878306878308 59.682539682539684,103.06878306878308 59.04761904761905,103.06878306878308 58.41269841269842,103.06878306878308 57.777777777777786,103.06878306878308 57.142857142857146,103.06878306878308 56.50793650793651,103.06878306878308 55.87301587301588,103.06878306878308 55.23809523809524,103.06878306878308 54.60317460317461,102.85714285714286 53.968253968253975,102.85714285714286 53.333333333333336,102.85714285714286 52.6984126984127,102.85714285714286 52.06349206349207,102.85714285714286 51.42857142857143,102.85714285714286 50.7936507936508,102.85714285714286 50.158730158730165,103.06878306878308 49.523809523809526,103.06878306878308 48.88888888888889,103.06878306878308 48.25396825396826,103.06878306878308 47.61904761904762,103.06878306878308 46.98412698412699,103.06878306878308 46.349206349206355,103.06878306878308 43.17460317460318,103.06878306878308" style="fill:none; stroke:#00aa99; stroke-width:1.0"  /><polyline points="43.17460317460318,103.06878306878308 43.386243386243386,99.47089947089948 43.386243386243386,98.83597883597885 43.386243386243386,98.2010582010582 43.5978835978836,97.56613756613757 43.5978835978836,96.93121693121694 43.5978835978836,96.2962962962963 43.5978835978836,95.66137566137567 43.5978835978836,95.02645502645504 43.5978835978836,94.39153439153439 43.5978835978836,93.75661375661376 43.5978835978836,93.12169312169313 43.5978835978836,92.4867724867725 43.5978835978836,91.85185185185186 43.5978835978836,91.21693121693123 43.5978835978836,90.58201058201058 43.5978835978836,89.94708994708995 43.386243386243386,89.31216931216932 43.386243386243386,88.67724867724868 43.386243386243386,88.04232804232805 43.386243386243386,87.40740740740742 43.386243386243386,86.77248677248677 43.386243386243386,86.13756613756614 43.386243386243386,85.5026455026455 43.386243386243386,84.86772486772487 43.386243386243386,84.23280423280424 43.386243386243386,83.59788359788361 43.386243386243386,82.96296296296298 43.386243386243386,82.32804232804233 43.17460317460318,81.6931216931217 43.17460317460318,81.05820105820106 43.17460317460318,80.42328042328043 43.17460317460318,79.7883597883598 42.96296296296297,79.15343915343917 42.96296296296297,78.51851851851852 42.96296296296297,77.88359788359789 42.96296296296297,77.24867724867725 42.75132275132275,76.61375661375662 42.75132275132275,75.97883597883599 42.75132275132275,75.34391534391536 42.539682539682545,74.70899470899471 42.539682539682545,74.07407407407408 42.539682539682545,73.43915343915344 42.32804232804233,72.80423280423281 42.32804232804233,72.16931216931218 42.32804232804233,71.53439153439155 42.11640211640212,70.8994708994709 42.11640211640212,70.26455026455027 42.11640211640212,69.62962962962963 42.11640211640212,68.994708994709 41.904761904761905,68.35978835978837 41.904761904761905,67.72486772486774 41.904761904761905,67.08994708994709 41.904761904761905,66.45502645502646 41.6931216931217,65.82010582010582 41.48148148148149,65.18518518518519 41.48148148148149,64.55026455026456 41.48148148148149,63.91534391534392 41.26984126984127,63.280423280423285 41.058201058201064,62.64550264550265 40.63492063492064,62.01058201058201 40.423280423280424,61.37566137566138 40.0,60.74074074074075 39.57671957671958,60.31746031746032 39.15343915343916,59.8941798941799 38.730158730158735,59.25925925925927 38.30687830687831,58.83597883597884 37.67195767195768,58.41269841269842 37.03703703703704,58.2010582010582 36.402116402116405,57.777777777777786 35.76719576719577,57.777777777777786 35.13227513227513,57.56613756613757 34.4973544973545,57.35449735449736 33.86243386243387,57.35449735449736 33.22751322751323,57.35449735449736 32.592592592592595,57.35449735449736 31.95767195767196,57.56613756613757 31.322751322751326,57.56613756613757 30.68783068783069,57.56613756613757 30.052910052910054,57.777777777777786 29.41798941798942,57.777777777777786 28.783068783068785,57.989417989417994 28.14814814814815,58.2010582010582 27.513227513227516,58.41269841269842 26.87830687830688,58.41269841269842 26.243386243386244,58.62433862433863 25.60846560846561,58.83597883597884 24.973544973544975,58.83597883597884 24.338624338624342,59.04761904761905 23.703703703703706,59.25925925925927 23.06878306878307,59.470899470899475 22.433862433862437,59.470899470899475 21.7989417989418,59.682539682539684 21.164021164021165,59.8941798941799 20.529100529100532,59.8941798941799 19.894179894179896,60.10582010582011 19.25925925925926,60.10582010582011 18.624338624338627,60.10582010582011 17.98941798941799,60.10582010582011 17.354497354497354,60.31746031746032 16.71957671957672,60.10582010582011 16.084656084656086,60.10582010582011 15.449735449735451,60.10582010582011 14.814814814814817,60.10582010582011 14.17989417989418,60.10582010582011 13.544973544973546,59.8941798941799 12.910052910052912,59.682539682539684 12.275132275132275,59.682539682539684 11.640211640211641,59.470899470899475 11.005291005291006,59.25925925925927 10.370370370370372,59.04761904761905 9.735449735449736,58.83597883597884 9.100529100529101,58.62433862433863 8.465608465608467,58.41269841269842 7.830687830687832,58.2010582010582 7.195767195767196,58.2010582010582 6.560846560846561,57.777777777777786 5.9259259259259265,57.35449735449736 5.291005291005291,56.93121693121694 4.656084656084657,56.50793650793651 4.2328042328042335,56.08465608465609 3.8095238095238098,55.661375661375665 3.3862433862433865,55.23809523809524 2.9629629629629632,54.81481481481482 2.53968253968254,54.39153439153439 2.1164021164021167,53.968253968253975 1.6931216931216932,53.333333333333336 1.6931216931216932,52.6984126984127 1.26984126984127,52.06349206349207 1.0582010582010584,51.42857142857143 0.8465608465608466,50.7936507936508 0.8465608465608466,50.158730158730165 0.4232804232804233,49.523809523809526 0.4232804232804233,48.88888888888889 0.4232804232804233,48.25396825396826 0.21164021164021166,47.61904761904762 0.21164021164021166,46.98412698412699 0.21164021164021166,46.349206349206355 0.21164021164021166,45.714285714285715 0.4232804232804233,45.07936507936508 0.4232804232804233,44.44444444444445 0.4232804232804233,43.80952380952381 0.634920634920635,43.17460317460318 0.8465608465608466,42.539682539682545 1.0582010582010584,41.904761904761905 1.26984126984127,41.26984126984127 1.4814814814814816,40.63492063492064 1.6931216931216932,40.0 2.1164021164021167,39.36507936507937 2.3280423280423284,38.730158730158735 2.7513227513227516,38.30687830687831 2.9629629629629632,37.67195767195768 3.3862433862433865,37.248677248677254 3.8095238095238098,36.613756613756614 4.2328042328042335,36.19047619047619 4.656084656084657,35.76719576719577 5.07936507936508,35.34391534391535 5.502645502645503,34.920634920634924 5.9259259259259265,34.4973544973545 6.560846560846561,34.074074074074076 6.984126984126985,33.65079365079365 7.6190476190476195,33.22751322751323 8.253968253968255,32.804232804232804 8.677248677248677,32.38095238095239 9.312169312169313,32.38095238095239 9.947089947089948,32.38095238095239 10.582010582010582,32.16931216931217 11.005291005291006,31.746031746031747 11.640211640211641,31.746031746031747 12.275132275132275,31.746031746031747 12.910052910052912,31.746031746031747 13.544973544973546,31.95767195767196 14.17989417989418,31.746031746031747 14.814814814814817,31.95767195767196 15.449735449735451,31.95767195767196 16.084656084656086,32.38095238095239 16.71957671957672,32.38095238095239 17.354497354497354,32.592592592592595 17.98941798941799,32.592592592592595 18.624338624338627,32.804232804232804 19.25925925925926,33.01587301587302 19.894179894179896,33.22751322751323 20.529100529100532,33.22751322751323 21.164021164021165,33.43915343915344 21.7989417989418,33.65079365079365 22.433862433862437,33.65079365079365 23.06878306878307,33.86243386243387 23.703703703703706,34.074074074074076 24.338624338624342,34.28571428571429 24.973544973544975,34.4973544973545 25.60846560846561,34.4973544973545 26.243386243386244,34.4973544973545 26.87830687830688,34.70899470899471 27.513227513227516,34.920634920634924 28.14814814814815,34.920634920634924 28.783068783068785,35.13227513227513 29.41798941798942,35.34391534391535 30.052910052910054,35.34391534391535 30.68783068783069,35.55555555555556 31.322751322751326,35.76719576719577 31.95767195767196,35.76719576719577 32.592592592592595,35.97883597883598 33.22751322751323,36.19047619047619 33.86243386243387,36.19047619047619 34.4973544973545,36.402116402116405 35.13227513227513,36.402116402116405 35.76719576719577,36.613756613756614 36.402116402116405,36.613756613756614 37.03703703703704,36.613756613756614 37.67195767195768,36.82539682539683 38.30687830687831,36.82539682539683 38.94179894179894,36.82539682539683 39.57671957671958,36.82539682539683 40.211640211640216,36.613756613756614 40.84656084656085,36.613756613756614 41.48148148148149,36.613756613756614 42.11640211640212,36.402116402116405 42.539682539682545,35.97883597883598 42.96296296296297,35.55555555555556 43.5978835978836,35.34391534391535 44.021164021164026,34.920634920634924 44.44444444444445,34.4973544973545 44.867724867724874,34.074074074074076 45.29100529100529,33.65079365079365 45.714285714285715,33.01587301587302 45.92592592592593,32.38095238095239 46.13756613756614,31.746031746031747 46.349206349206355,31.111111111111114 46.349206349206355,30.476190476190478 46.560846560846564,29.841269841269842 46.560846560846564,29.20634920634921 46.560846560846564,28.571428571428573 46.560846560846564,27.93650793650794 46.349206349206355,27.301587301587304 46.349206349206355,26.666666666666668 46.349206349206355,26.031746031746035 46.349206349206355,25.3968253968254 46.349206349206355,24.761904761904763 46.13756613756614,24.12698412698413 46.13756613756614,23.492063492063494 45.92592592592593,22.857142857142858 45.92592592592593,22.222222222222225 45.714285714285715,21.58730158730159 45.714285714285715,20.952380952380953 45.50264550264551,20.31746031746032 45.29100529100529,19.682539682539684 45.07936507936508,19.047619047619047 45.07936507936508,18.412698412698415 44.867724867724874,17.77777777777778 44.65608465608466,17.142857142857146 44.65608465608466,16.50793650793651 44.44444444444445,15.873015873015873 44.44444444444445,15.238095238095239 44.44444444444445,14.603174603174605 44.232804232804234,13.96825396825397 44.232804232804234,13.333333333333334 44.021164021164026,12.6984126984127 44.021164021164026,12.063492063492065 44.021164021164026,11.428571428571429 44.021164021164026,10.793650793650794 43.80952380952381,10.15873015873016 43.80952380952381,9.523809523809524 43.5978835978836,8.88888888888889 43.5978835978836,8.253968253968255 43.5978835978836,7.6190476190476195 43.386243386243386,6.984126984126985 43.386243386243386,6.34920634920635 43.17460317460318,5.714285714285714 43.17460317460318,5.07936507936508 43.17460317460318,4.444444444444445 42.75132275132275,0.8465608465608466" style="fill:none; stroke:#3300bb; stroke-width:1.0"  /><circle cx="42.75132275132275" cy="0.8465608465608466" r="2.0" style="fill:none; stroke:#000000aa; stroke-width:0.25" /><circle cx="201.90476190476193" cy="8.88888888888889" r="2.0" style="fill:none; stroke:#000000aa; stroke-width:0.25" /><circle cx="186.66666666666669" cy="111.74603174603176" r="2.0" style="fill:none; stroke:#000000aa; stroke-width:0.25" /><circle cx="43.17460317460318" cy="103.06878306878308" r="2.0" style="fill:none; stroke:#000000aa; stroke-width:0.25" /><circle cx="42.75132275132275" cy="1.26984126984127" r="2.0" style="fill:none; stroke:#ff3366aa; stroke-width:0.25" /><circle cx="201.90476190476193" cy="9.312169312169313" r="2.0" style="fill:none; stroke:#ff3366aa; stroke-width:0.25" /><circle cx="186.66666666666669" cy="111.32275132275133" r="2.0" style="fill:none; stroke:#ff3366aa; stroke-width:0.25" /><circle cx="43.17460317460318" cy="102.64550264550266" r="2.0" style="fill:none; stroke:#ff3366aa; stroke-width:0.25" /><polyline points="54.179894179894184,1.9047619047619049 53.54497354497355,1.9047619047619049 52.91005291005291,1.9047619047619049 52.27513227513228,1.9047619047619049 51.640211640211646,1.9047619047619049 51.00529100529101,1.6931216931216932 50.370370370370374,1.4814814814814816 49.73544973544974,1.4814814814814816 49.1005291005291,1.26984126984127 48.46560846560847,1.26984126984127 47.830687830687836,1.26984126984127 47.195767195767196,1.0582010582010584 46.560846560846564,1.0582010582010584 45.92592592592593,1.0582010582010584" style="fill:none; stroke:#001100; stroke-width:1.0" /><polyline points="44.021164021164026,12.6984126984127 44.021164021164026,12.063492063492065 44.021164021164026,11.428571428571429 44.021164021164026,10.793650793650794 43.80952380952381,10.15873015873016 43.80952380952381,9.523809523809524 43.5978835978836,8.88888888888889 43.5978835978836,8.253968253968255 43.5978835978836,7.6190476190476195 43.386243386243386,6.984126984126985 43.386243386243386,6.34920634920635 43.17460317460318,5.714285714285714 43.17460317460318,5.07936507936508 43.17460317460318,4.444444444444445" style="fill:none; stroke:#000011; stroke-width:1.0" /><polyline points="203.1746031746032,20.740740740740744 203.1746031746032,20.105820105820108 203.1746031746032,19.47089947089947 202.962962962963,18.83597883597884 202.75132275132276,18.201058201058203 202.75132275132276,17.566137566137566 202.75132275132276,16.931216931216934 202.53968253968256,16.296296296296298 202.53968253968256,15.661375661375663 202.53968253968256,15.026455026455027 202.32804232804233,14.391534391534393 202.32804232804233,13.756613756613758 202.32804232804233,13.121693121693122 202.32804232804233,12.486772486772487" style="fill:none; stroke:#001100; stroke-width:1.0" /><polyline points="190.05291005291008,7.195767195767196 190.6878306878307,7.195767195767196 191.32275132275134,7.195767195767196 191.95767195767198,7.407407407407408 192.5925925925926,7.407407407407408 193.22751322751324,7.6190476190476195 193.86243386243387,7.6190476190476195 194.4973544973545,7.6190476190476195 195.13227513227514,7.6190476190476195 195.76719576719577,8.042328042328043 196.4021164021164,8.042328042328043 197.03703703703704,8.042328042328043 197.6719576719577,8.042328042328043 198.30687830687833,8.253968253968255 198.94179894179896,8.465608465608467" style="fill:none; stroke:#000011; stroke-width:1.0" /><polyline points="175.66137566137567,114.92063492063492 176.2962962962963,114.70899470899472 176.93121693121694,114.49735449735451 177.56613756613757,114.28571428571429 178.2010582010582,114.28571428571429 178.83597883597884,114.07407407407408 179.4708994708995,113.86243386243387 180.10582010582013,113.86243386243387 180.74074074074076,113.65079365079366 181.3756613756614,113.43915343915344 182.01058201058203,113.22751322751324 182.64550264550266,113.22751322751324 183.0687830687831,112.80423280423281 183.70370370370372,112.5925925925926" style="fill:none; stroke:#001100; stroke-width:1.0" /><polyline points="189.84126984126985,100.31746031746033 189.62962962962965,100.95238095238096 189.41798941798945,101.5873015873016 189.20634920634922,102.22222222222223 188.99470899470901,102.85714285714286 188.99470899470901,103.4920634920635 188.78306878306879,104.12698412698414 188.57142857142858,104.76190476190477 188.35978835978838,105.3968253968254 188.14814814814815,106.03174603174604 187.93650793650795,106.66666666666667 187.93650793650795,107.3015873015873 187.72486772486775,107.93650793650795" style="fill:none; stroke:#000011; stroke-width:1.0" /><polyline points="43.5978835978836,91.21693121693123 43.5978835978836,91.85185185185186 43.5978835978836,92.4867724867725 43.5978835978836,93.12169312169313 43.5978835978836,93.75661375661376 43.5978835978836,94.39153439153439 43.5978835978836,95.02645502645504 43.5978835978836,95.66137566137567 43.5978835978836,96.2962962962963 43.5978835978836,96.93121693121694 43.5978835978836,97.56613756613757 43.386243386243386,98.2010582010582 43.386243386243386,98.83597883597885 43.386243386243386,99.47089947089948" style="fill:none; stroke:#001100; stroke-width:1.0" /><polyline points="54.60317460317461,102.85714285714286 53.968253968253975,102.85714285714286 53.333333333333336,102.85714285714286 52.6984126984127,102.85714285714286 52.06349206349207,102.85714285714286 51.42857142857143,102.85714285714286 50.7936507936508,102.85714285714286 50.158730158730165,103.06878306878308 49.523809523809526,103.06878306878308 48.88888888888889,103.06878306878308 48.25396825396826,103.06878306878308 47.61904761904762,103.06878306878308 46.98412698412699,103.06878306878308 46.349206349206355,103.06878306878308" style="fill:none; stroke:#000011; stroke-width:1.0" /><polyline points="45.92592592592593,1.0582010582010584 24.973544973544975,-1.0582010582010584" style="fill:none; stroke:#ffaa00; stroke-width:0.4" /><polyline points="43.17460317460318,4.444444444444445 41.058201058201064,-16.50793650793651" style="fill:none; stroke:#aaff00; stroke-width:0.4" /><polyline points="202.32804232804233,12.486772486772487 200.21164021164023,-8.465608465608467" style="fill:none; stroke:#ffaa00; stroke-width:0.4" /><polyline points="198.94179894179896,8.465608465608467 219.8941798941799,11.428571428571429" style="fill:none; stroke:#aaff00; stroke-width:0.4" /><polyline points="183.70370370370372,112.5925925925926 204.02116402116403,106.66666666666667" style="fill:none; stroke:#ffaa00; stroke-width:0.4" /><polyline points="187.72486772486775,107.93650793650795 182.01058201058203,128.25396825396825" style="fill:none; stroke:#aaff00; stroke-width:0.4" /><polyline points="43.386243386243386,99.47089947089948 42.75132275132275,120.63492063492065" style="fill:none; stroke:#ffaa00; stroke-width:0.4" /><polyline points="46.349206349206355,103.06878306878308 25.185185185185187,103.70370370370371" style="fill:none; stroke:#aaff00; stroke-width:0.4" /><circle cx="110.47619047619048" cy="55.661375661375665" r="1.0" style="fill:#444444; stroke-width:0" /><circle cx="83.17460317460318" cy="36.82539682539683" r="10.582010582010582" style="fill:#ff770022; stroke-width:0" /><circle cx="83.17460317460318" cy="36.82539682539683" r="1.0" style="fill:#ff7700; stroke-width:0" /></svg>