<?xml version="1.0" encoding="UTF-8" standalone="no"?><svg width="569.5238095238095" height="480.63492063492066" viewBox="-10 -10 209.84126984126985 180.21164021164023" xmlns="http://www.w3.org/2000/svg" xmlns:xlink="http://www.w3.org/1999/xlink"><polyline points="26.666666666666668,44.232804232804234 30.052910052910054,44.44444444444445 30.68783068783069,44.44444444444445 31.322751322751326,44.44444444444445 31.95767195767196,44.232804232804234 32.592592592592595,44.232804232804234 33.22751322751323,44.44444444444445 33.86243386243387,44.44444444444445 34.4973544973545,44.44444444444445 35.13227513227513,44.65608465608466 35.76719576719577,44.65608465608466 36.402116402116405,44.867724867724874 37.03703703703704,44.867724867724874 37.67195767195768,44.867724867724874 38.30687830687831,44.867724867724874 38.94179894179894,44.867724867724874 39.57671957671958,45.07936507936508 40.211640211640216,45.07936507936508 40.84656084656085,45.07936507936508 41.48148148148149,45.07936507936508 42.11640211640212,45.29100529100529 42.75132275132275,45.29100529100529 43.386243386243386,45.29100529100529 44.021164021164026,45.29100529100529 44.65608465608466,45.29100529100529 45.29100529100529,45.29100529100529 45.92592592592593,45.50264550264551 46.560846560846564,45.50264550264551 47.195767195767196,45.50264550264551 47.830687830687836,45.50264550264551 48.46560846560847,45.50264550264551 49.1005291005291,45.50264550264551 49.73544973544974,45.50264550264551 50.370370370370374,45.50264550264551 51.00529100529101,45.50264550264551 51.640211640211646,45.50264550264551 52.27513227513228,45.714285714285715 52.91005291005291,45.50264550264551 53.54497354497355,45.50264550264551 54.179894179894184,45.50264550264551 54.81481481481482,45.50264550264551 55.449735449735456,45.50264550264551 56.08465608465609,45.50264550264551 56.71957671957672,45.50264550264551 57.35449735449736,45.50264550264551 57.989417989417994,45.50264550264551 58.62433862433863,45.50264550264551 59.25925925925927,45.50264550264551 59.8941798941799,45.50264550264551 60.52910052910053,45.50264550264551 61.16402116402117,45.50264550264551 61.798941798941804,45.50264550264551 62.43386243386244,45.50264550264551 63.06878306878308,45.50264550264551 63.70370370370371,45.50264550264551 64.33862433862434,45.50264550264551 64.97354497354497,45.50264550264551 65.60846560846561,45.29100529100529 66.24338624338625,45.29100529100529 66.87830687830689,45.07936507936508 67.51322751322752,45.07936507936508 68.14814814814815,45.07936507936508 68.78306878306879,45.07936507936508 69.41798941798942,45.07936507936508 70.05291005291006,45.07936507936508 70.6878306878307,45.07936507936508 71.32275132275133,44.867724867724874 71.95767195767196,44.867724867724874 72.5925925925926,44.867724867724874 73.22751322751323,44.867724867724874 73.86243386243387,44.867724867724874 74.49735449735451,44.65608465608466 75.13227513227514,44.65608465608466 75.76719576719577,44.65608465608466 76.4021164021164,44.44444444444445 77.03703703703704,44.44444444444445 77.67195767195767,44.232804232804234 78.30687830687832,44.232804232804234 78.94179894179895,44.021164021164026 79.57671957671958,43.80952380952381 80.21164021164022,43.5978835978836 80.84656084656085,43.386243386243386 81.48148148148148,43.386243386243386 82.11640211640213,42.96296296296297 82.75132275132276,42.75132275132275 83.3862433862434,42.539682539682545 84.02116402116403,42.11640211640212 84.65608465608466,41.904761904761905 85.29100529100529,41.48148148148149 85.92592592592594,41.058201058201064 86.34920634920636,40.63492063492064 86.77248677248677,40.211640211640216 87.1957671957672,39.78835978835979 87.61904761904762,39.15343915343916 88.04232804232805,38.51851851851852 88.25396825396827,37.883597883597886 88.46560846560847,37.248677248677254 88.67724867724868,36.613756613756614 88.67724867724868,35.97883597883598 88.67724867724868,35.34391534391535 88.46560846560847,34.70899470899471 88.46560846560847,34.074074074074076 88.25396825396827,33.43915343915344 87.83068783068784,32.804232804232804 87.40740740740742,32.16931216931217 86.98412698412699,31.53439153439154 86.56084656084657,30.899470899470902 86.13756613756614,30.476190476190478 85.5026455026455,30.264550264550266 85.07936507936509,29.841269841269842 84.44444444444446,29.41798941798942 84.02116402116403,28.994708994708997 83.59788359788361,28.571428571428573 82.96296296296298,28.14814814814815 82.53968253968254,27.724867724867728 82.11640211640213,27.301587301587304 81.6931216931217,26.87830687830688 81.26984126984128,26.455026455026456 80.84656084656085,26.031746031746035 80.42328042328043,25.60846560846561 80.0,25.185185185185187 79.57671957671958,24.761904761904763 79.15343915343917,24.12698412698413 78.73015873015873,23.703703703703706 78.30687830687832,23.06878306878307 77.88359788359789,22.433862433862437 77.46031746031747,22.010582010582013 77.03703703703704,21.375661375661377 76.82539682539684,20.740740740740744 76.4021164021164,20.105820105820108 76.19047619047619,19.47089947089947 75.97883597883599,18.83597883597884 75.55555555555556,18.201058201058203 75.34391534391536,17.566137566137566 75.13227513227514,16.931216931216934 74.92063492063492,16.296296296296298 74.92063492063492,15.661375661375663 74.70899470899471,15.026455026455027 74.70899470899471,14.391534391534393 74.70899470899471,13.756613756613758 74.49735449735451,13.121693121693122 74.49735449735451,12.486772486772487 74.70899470899471,11.851851851851853 74.70899470899471,11.216931216931219 74.92063492063492,10.582010582010582 75.13227513227514,9.947089947089948 75.55555555555556,9.312169312169313 75.97883597883599,8.677248677248677 76.4021164021164,8.042328042328043 77.03703703703704,7.6190476190476195 77.46031746031747,7.195767195767196 77.88359788359789,6.772486772486773 78.51851851851852,6.34920634920635 78.94179894179895,5.9259259259259265 79.57671957671958,5.502645502645503 80.21164021164022,5.291005291005291 80.63492063492065,4.867724867724868 81.26984126984128,4.656084656084657 81.90476190476191,4.2328042328042335 82.53968253968254,4.021164021164021 83.17460317460318,3.597883597883598 83.80952380952381,3.3862433862433865 84.44444444444446,3.174603174603175 84.86772486772487,2.7513227513227516 85.5026455026455,2.53968253968254 86.13756613756614,2.3280423280423284 86.77248677248677,2.1164021164021167 87.40740740740742,1.9047619047619049 88.04232804232805,1.9047619047619049 88.46560846560847,1.4814814814814816 89.1005291005291,1.26984126984127 89.73544973544975,1.0582010582010584 90.37037037037038,1.0582010582010584 91.00529100529101,1.0582010582010584 91.64021164021165,0.8465608465608466 92.27513227513228,0.8465608465608466 92.91005291005291,0.8465608465608466 93.54497354497356,0.634920634920635 94.17989417989419,0.4232804232804233 94.81481481481482,0.4232804232804233 95.44973544973546,0.4232804232804233 96.08465608465609,0.21164021164021166 96.71957671957672,0.21164021164021166 97.35449735449737,0.21164021164021166 97.989417989418,0.21164021164021166 98.62433862433863,0.21164021164021166 99.25925925925927,0.21164021164021166 99.8941798941799,0.21164021164021166 100.52910052910053,0.21164021164021166 101.16402116402116,0.4232804232804233 101.79894179894181,0.21164021164021166 102.43386243386244,0.4232804232804233 103.06878306878308,0.634920634920635 103.70370370370371,0.8465608465608466 104.33862433862434,1.0582010582010584 104.97354497354497,1.26984126984127 105.60846560846562,1.4814814814814816 106.24338624338625,1.6931216931216932 106.87830687830689,1.9047619047619049 107.51322751322752,2.3280423280423284 108.14814814814815,2.53968253968254 108.78306878306879,2.9629629629629632 109.20634920634922,3.3862433862433865 109.84126984126985,3.8095238095238098 110.26455026455027,4.444444444444445 110.6878306878307,4.867724867724868 110.89947089947091,5.502645502645503 111.11111111111111,6.137566137566138 111.32275132275133,6.772486772486773 111.53439153439155,7.407407407407408 111.74603174603176,8.042328042328043 111.74603174603176,8.677248677248677 111.74603174603176,9.312169312169313 111.74603174603176,9.947089947089948 111.74603174603176,10.582010582010582 111.74603174603176,11.216931216931219 111.74603174603176,11.851851851851853 111.53439153439155,12.486772486772487 111.53439153439155,13.121693121693122 111.53439153439155,13.756613756613758 111.32275132275133,14.391534391534393 111.32275132275133,15.026455026455027 111.11111111111111,15.661375661375663 111.11111111111111,16.296296296296298 110.89947089947091,16.931216931216934 110.89947089947091,17.566137566137566 110.6878306878307,18.201058201058203 110.6878306878307,18.83597883597884 110.47619047619048,19.47089947089947 110.26455026455027,20.105820105820108 110.05291005291006,20.740740740740744 110.05291005291006,21.375661375661377 109.84126984126985,22.010582010582013 109.62962962962963,22.645502645502646 109.62962962962963,23.280423280423282 109.41798941798943,23.915343915343918 109.41798941798943,24.55026455026455 109.41798941798943,25.185185185185187 109.20634920634922,25.820105820105823 109.20634920634922,26.455026455026456 109.20634920634922,27.089947089947092 109.20634920634922,27.724867724867728 109.20634920634922,28.35978835978836 109.20634920634922,28.994708994708997 109.20634920634922,29.629629629629633 109.20634920634922,30.264550264550266 109.62962962962963,30.899470899470902 109.62962962962963,31.53439153439154 109.84126984126985,32.16931216931217 109.84126984126985,32.804232804232804 110.05291005291006,33.43915343915344 110.26455026455027,34.074074074074076 110.6878306878307,34.70899470899471 111.11111111111111,35.34391534391535 111.53439153439155,35.97883597883598 111.95767195767196,36.402116402116405 112.3809523809524,36.82539682539683 113.01587301587303,37.248677248677254 113.65079365079366,37.46031746031746 114.28571428571429,37.883597883597886 114.92063492063492,38.095238095238095 115.55555555555557,38.30687830687831 116.1904761904762,38.51851851851852 116.82539682539684,38.51851851851852 117.46031746031747,38.51851851851852 118.0952380952381,38.51851851851852 118.73015873015873,38.51851851851852 119.36507936507937,38.51851851851852 120.00000000000001,38.51851851851852 120.63492063492065,38.51851851851852 121.26984126984128,38.51851851851852 121.90476190476191,38.30687830687831 122.53968253968254,38.095238095238095 123.17460317460318,37.883597883597886 123.80952380952382,37.67195767195768 124.44444444444446,37.67195767195768 125.07936507936509,37.248677248677254 125.71428571428572,37.248677248677254 126.34920634920636,37.03703703703704 126.98412698412699,36.82539682539683 127.61904761904763,36.613756613756614 128.25396825396825,36.402116402116405 128.88888888888889,36.402116402116405 129.52380952380955,36.19047619047619 130.15873015873018,35.97883597883598 130.7936507936508,35.76719576719577 131.42857142857144,35.55555555555556 132.06349206349208,35.34391534391535 132.6984126984127,35.34391534391535 133.33333333333334,35.13227513227513 133.96825396825398,34.920634920634924 134.6031746031746,34.70899470899471 135.23809523809524,34.70899470899471 135.87301587301587,34.4973544973545 136.5079365079365,34.28571428571429 137.14285714285717,34.074074074074076 137.7777777777778,33.86243386243387 138.41269841269843,33.86243386243387 139.04761904761907,33.65079365079365 139.6825396825397,33.43915343915344 140.31746031746033,33.43915343915344 140.95238095238096,33.22751322751323 141.5873015873016,33.01587301587302 142.22222222222223,33.01587301587302 142.85714285714286,32.804232804232804 143.4920634920635,32.592592592592595 144.12698412698413,32.592592592592595 144.76190476190476,32.38095238095239 145.39682539682542,32.16931216931217 146.03174603174605,32.16931216931217 146.66666666666669,31.95767195767196 147.30158730158732,31.95767195767196 147.93650793650795,31.746031746031747 148.57142857142858,31.746031746031747 150.8994708994709,31.322751322751326" style="fill:none; stroke:#cc0000; stroke-width:1.0"  /><polyline points="150.8994708994709,31.322751322751326 153.22751322751324,34.28571428571429 153.65079365079367,34.920634920634924 154.07407407407408,35.55555555555556 154.2857142857143,36.19047619047619 154.7089947089947,36.613756613756614 155.13227513227514,37.248677248677254 155.55555555555557,37.67195767195768 155.978835978836,38.30687830687831 156.4021164021164,38.94179894179894 156.82539682539684,39.36507936507937 157.24867724867727,39.78835978835979 157.67195767195767,40.423280423280424 158.0952380952381,40.84656084656085 158.51851851851853,41.48148148148149 158.94179894179896,41.904761904761905 159.36507936507937,42.32804232804233 159.7883597883598,42.75132275132275 160.21164021164023,43.386243386243386 160.63492063492066,43.80952380952381 161.05820105820106,44.232804232804234 161.4814814814815,44.867724867724874 162.11640211640213,45.29100529100529 162.53968253968256,45.714285714285715 162.96296296296296,46.13756613756614 163.3862433862434,46.560846560846564 163.80952380952382,46.98412698412699 164.23280423280426,47.40740740740741 164.65608465608466,47.830687830687836 165.0793650793651,48.25396825396826 165.71428571428572,48.677248677248684 166.13756613756615,49.1005291005291 166.56084656084658,49.523809523809526 167.19576719576722,49.94708994708995 167.61904761904762,50.370370370370374 168.25396825396825,50.7936507936508 168.67724867724868,51.21693121693122 169.10052910052912,51.640211640211646 169.73544973544975,52.06349206349207 170.37037037037038,52.48677248677249 171.005291005291,52.91005291005291 171.64021164021165,53.12169312169313 172.06349206349208,53.54497354497355 172.4867724867725,53.968253968253975 172.9100529100529,54.39153439153439 173.33333333333334,55.02645502645503 173.75661375661377,55.661375661375665 173.96825396825398,56.2962962962963 174.1798941798942,56.93121693121694 174.1798941798942,57.56613756613757 174.1798941798942,58.2010582010582 173.96825396825398,58.83597883597884 173.96825396825398,59.470899470899475 173.54497354497354,59.8941798941799 173.12169312169314,60.52910052910053 172.9100529100529,61.16402116402117 172.4867724867725,61.798941798941804 172.06349206349208,62.22222222222223 171.64021164021165,62.64550264550265 171.21693121693124,63.280423280423285 170.58201058201058,63.70370370370371 169.94708994708995,64.12698412698413 169.31216931216932,64.33862433862434 168.67724867724868,64.76190476190477 168.04232804232805,64.97354497354497 167.61904761904762,65.3968253968254 166.984126984127,65.60846560846561 166.34920634920636,66.03174603174604 165.71428571428572,66.24338624338625 165.0793650793651,66.45502645502646 164.44444444444446,66.66666666666667 163.80952380952382,67.08994708994709 163.1746031746032,67.3015873015873 162.53968253968256,67.51322751322752 161.90476190476193,67.72486772486774 161.2698412698413,67.93650793650794 160.63492063492066,68.14814814814815 160.0,68.35978835978837 159.36507936507937,68.57142857142858 158.73015873015873,68.78306878306879 158.0952380952381,68.78306878306879 157.46031746031747,68.994708994709 156.82539682539684,69.20634920634922 156.1904761904762,69.20634920634922 155.55555555555557,69.41798941798942 154.92063492063494,69.41798941798942 154.2857142857143,69.62962962962963 153.65079365079367,69.62962962962963 153.01587301587304,69.84126984126985 152.38095238095238,69.84126984126985 151.74603174603175,70.05291005291006 151.11111111111111,70.26455026455027 150.47619047619048,70.47619047619048 149.84126984126985,70.6878306878307 149.20634920634922,70.8994708994709 148.57142857142858,71.11111111111111 147.93650793650795,71.53439153439155 147.30158730158732,71.95767195767196 146.66666666666669,72.38095238095238 146.24338624338625,72.80423280423281 145.82010582010582,73.22751322751323 145.39682539682542,73.65079365079366 144.76190476190476,74.07407407407408 144.33862433862436,74.49735449735451 144.12698412698413,75.13227513227514 143.70370370370372,75.55555555555556 143.2804232804233,75.97883597883599 143.0687830687831,76.61375661375662 142.64550264550266,77.24867724867725 142.43386243386246,77.88359788359789 142.01058201058203,78.51851851851852 142.01058201058203,79.15343915343917 141.7989417989418,79.7883597883598 141.7989417989418,80.42328042328043 141.5873015873016,81.05820105820106 141.5873015873016,81.6931216931217 141.5873015873016,82.32804232804233 141.5873015873016,82.96296296296298 141.5873015873016,83.59788359788361 141.5873015873016,84.23280423280424 141.7989417989418,84.86772486772487 142.01058201058203,85.5026455026455 142.01058201058203,86.13756613756614 142.22222222222223,86.77248677248677 142.43386243386246,87.40740740740742 142.64550264550266,88.04232804232805 143.0687830687831,88.46560846560847 143.2804232804233,89.1005291005291 143.4920634920635,89.73544973544975 143.91534391534393,90.37037037037038 144.33862433862436,91.00529100529101 144.55026455026456,91.64021164021165 144.973544973545,92.27513227513228 145.39682539682542,92.91005291005291 145.60846560846562,93.54497354497356 146.03174603174605,94.17989417989419 146.45502645502646,94.81481481481482 146.8783068783069,95.44973544973546 147.30158730158732,96.08465608465609 147.72486772486775,96.71957671957672 148.14814814814815,97.14285714285715 148.57142857142858,97.77777777777779 148.99470899470901,98.2010582010582 149.41798941798942,98.83597883597885 149.84126984126985,99.25925925925927 150.26455026455028,99.68253968253968 150.6878306878307,100.10582010582011 151.32275132275134,100.52910052910053 151.95767195767198,100.74074074074075 152.5925925925926,101.16402116402116 153.22751322751324,101.37566137566138 153.86243386243387,101.79894179894181 154.4973544973545,101.79894179894181 155.13227513227514,102.01058201058201 155.76719576719577,102.22222222222223 156.4021164021164,102.22222222222223 157.03703703703704,102.22222222222223 157.67195767195767,102.22222222222223 158.30687830687833,102.01058201058201 158.94179894179896,102.01058201058201 159.5767195767196,101.79894179894181 160.21164021164023,101.79894179894181 160.84656084656086,101.5873015873016 161.4814814814815,101.5873015873016 162.11640211640213,101.37566137566138 162.75132275132276,101.16402116402116 163.3862433862434,100.95238095238096 164.02116402116403,100.95238095238096 164.65608465608466,100.74074074074075 165.2910052910053,100.52910052910053 165.71428571428572,100.10582010582011 166.34920634920636,99.8941798941799 166.984126984127,99.68253968253968 167.61904761904762,99.47089947089948 168.25396825396825,99.04761904761905 168.8888888888889,98.83597883597885 169.52380952380955,98.41269841269842 170.15873015873018,97.989417989418 170.7936507936508,97.56613756613757 171.42857142857144,97.35449735449737 171.85185185185188,96.71957671957672 172.4867724867725,96.50793650793652 172.9100529100529,96.08465608465609 173.33333333333334,95.66137566137567 173.96825396825398,95.44973544973546 174.3915343915344,95.02645502645504 175.02645502645504,94.81481481481482 175.66137566137567,94.60317460317461 176.2962962962963,94.39153439153439 176.93121693121694,94.17989417989419 177.56613756613757,94.17989417989419 178.2010582010582,94.17989417989419 178.83597883597884,94.17989417989419 179.4708994708995,94.17989417989419 180.10582010582013,94.39153439153439 180.74074074074076,94.39153439153439 181.3756613756614,94.60317460317461 182.01058201058203,94.81481481481482 182.43386243386246,95.23809523809524 183.0687830687831,95.66137566137567 183.70370370370372,96.08465608465609 184.12698412698415,96.50793650793652 184.55026455026456,97.14285714285715 184.973544973545,97.77777777777779 185.1851851851852,98.41269841269842 185.39682539682542,99.04761904761905 185.82010582010582,99.68253968253968 186.03174603174605,100.31746031746033 186.24338624338625,100.95238095238096 186.45502645502646,101.5873015873016 186.45502645502646,102.22222222222223 186.45502645502646,102.85714285714286 186.66666666666669,103.4920634920635 186.66666666666669,104.12698412698414 186.8783068783069,104.76190476190477 186.8783068783069,105.3968253968254 187.08994708994712,106.03174603174604 187.08994708994712,106.66666666666667 187.08994708994712,107.3015873015873 187.08994708994712,107.93650793650795 187.30158730158732,108.57142857142858 187.30158730158732,109.20634920634922 187.51322751322752,109.84126984126985 187.51322751322752,110.47619047619048 187.51322751322752,111.11111111111111 187.72486772486775,111.74603174603176 187.72486772486775,112.3809523809524 187.72486772486775,113.01587301587303 187.93650793650795,113.65079365079366 187.93650793650795,114.28571428571429 187.93650793650795,114.92063492063492 187.93650793650795,115.55555555555557 188.14814814814815,116.1904761904762 188.14814814814815,116.82539682539684 188.14814814814815,117.46031746031747 188.35978835978838,118.0952380952381 188.35978835978838,118.73015873015873 188.35978835978838,119.36507936507937 188.35978835978838,120.00000000000001 188.57142857142858,120.63492063492065 188.57142857142858,121.26984126984128 188.57142857142858,121.90476190476191 188.57142857142858,122.53968253968254 188.35978835978838,123.17460317460318 188.57142857142858,123.80952380952382 188.57142857142858,124.44444444444446 188.57142857142858,125.07936507936509 188.57142857142858,125.71428571428572 188.57142857142858,126.34920634920636 188.78306878306879,126.98412698412699 188.78306878306879,127.61904761904763 188.78306878306879,128.25396825396825 188.78306878306879,128.88888888888889 188.78306878306879,129.52380952380955 188.78306878306879,130.15873015873018 188.78306878306879,130.7936507936508 188.78306878306879,131.42857142857144 188.78306878306879,132.06349206349208 188.78306878306879,132.6984126984127 188.99470899470901,133.33333333333334 188.99470899470901,133.96825396825398 188.99470899470901,134.6031746031746 189.20634920634922,135.23809523809524 189.20634920634922,135.87301587301587 189.20634920634922,136.5079365079365 189.20634920634922,137.14285714285717 189.20634920634922,137.7777777777778 189.41798941798945,141.3756613756614" style="fill:none; stroke:#999900; stroke-width:1.0"  /><polyline points="189.41798941798945,141.3756613756614 186.24338624338625,141.16402116402116 185.60846560846562,141.16402116402116 184.973544973545,140.95238095238096 184.33862433862436,140.95238095238096 183.70370370370372,140.95238095238096 183.0687830687831,140.95238095238096 182.43386243386246,140.74074074074076 181.79894179894183,140.74074074074076 181.16402116402116,140.74074074074076 180.52910052910053,140.74074074074076 179.8941798941799,140.74074074074076 179.25925925925927,140.74074074074076 178.62433862433863,140.74074074074076 177.989417989418,140.52910052910053 177.35449735449737,140.52910052910053 176.71957671957674,140.52910052910053 176.0846560846561,140.52910052910053 175.44973544973547,140.52910052910053 174.81481481481484,140.52910052910053 174.1798941798942,140.52910052910053 173.54497354497354,140.52910052910053 172.9100529100529,140.52910052910053 172.27513227513228,140.52910052910053 171.64021164021165,140.74074074074076 171.005291005291,140.74074074074076 170.37037037037038,140.74074074074076 169.73544973544975,140.95238095238096 169.10052910052912,140.95238095238096 168.46560846560848,140.74074074074076 167.83068783068785,140.95238095238096 167.19576719576722,140.95238095238096 166.56084656084658,140.95238095238096 165.92592592592595,140.95238095238096 165.2910052910053,140.95238095238096 164.65608465608466,140.95238095238096 164.02116402116403,140.95238095238096 163.3862433862434,140.95238095238096 162.75132275132276,140.95238095238096 162.11640211640213,140.95238095238096 161.4814814814815,140.95238095238096 160.84656084656086,141.16402116402116 160.21164021164023,141.16402116402116 159.5767195767196,141.16402116402116 158.94179894179896,141.16402116402116 158.30687830687833,141.3756613756614 157.67195767195767,141.3756613756614 157.03703703703704,141.3756613756614 156.4021164021164,141.3756613756614 155.76719576719577,141.3756613756614 155.13227513227514,141.5873015873016 154.4973544973545,141.5873015873016 153.86243386243387,141.5873015873016 153.22751322751324,141.7989417989418 152.5925925925926,141.7989417989418 151.95767195767198,141.7989417989418 151.32275132275134,141.7989417989418 150.6878306878307,142.01058201058203 150.05291005291005,142.01058201058203 149.41798941798942,142.01058201058203 148.78306878306879,142.01058201058203 148.14814814814815,142.01058201058203 147.51322751322752,142.01058201058203 146.8783068783069,142.01058201058203 146.24338624338625,142.01058201058203 145.60846560846562,142.01058201058203 144.973544973545,142.01058201058203 144.33862433862436,142.01058201058203 143.70370370370372,142.01058201058203 143.0687830687831,141.7989417989418 142.43386243386246,141.7989417989418 141.7989417989418,141.7989417989418 141.16402116402116,141.7989417989418 140.52910052910053,141.7989417989418 139.8941798941799,141.5873015873016 139.25925925925927,141.5873015873016 138.62433862433863,141.5873015873016 137.989417989418,141.5873015873016 137.35449735449737,141.3756613756614 136.71957671957674,141.3756613756614 136.0846560846561,141.5873015873016 135.44973544973547,141.5873015873016 134.81481481481484,141.3756613756614 134.17989417989418,141.3756613756614 133.54497354497354,141.3756613756614 132.9100529100529,141.16402116402116 132.27513227513228,140.95238095238096 131.64021164021165,140.95238095238096 131.005291005291,140.95238095238096 130.37037037037038,140.74074074074076 129.73544973544975,140.52910052910053 129.10052910052912,140.52910052910053 128.46560846560848,140.31746031746033 127.83068783068784,140.10582010582013 127.1957671957672,140.10582010582013 126.56084656084657,139.8941798941799 125.92592592592594,139.8941798941799 125.2910052910053,139.6825396825397 124.65608465608466,139.47089947089947 124.02116402116403,139.25925925925927 123.3862433862434,139.04761904761907 122.75132275132276,138.83597883597884 122.11640211640213,138.83597883597884 121.4814814814815,138.62433862433863 120.84656084656086,138.41269841269843 120.21164021164022,137.989417989418 119.57671957671958,137.7777777777778 118.94179894179895,137.35449735449737 118.30687830687832,136.93121693121694 117.88359788359789,136.5079365079365 117.46031746031747,136.0846560846561 117.03703703703705,135.66137566137567 116.61375661375662,135.23809523809524 116.4021164021164,134.6031746031746 115.97883597883599,134.17989417989418 115.76719576719577,133.54497354497354 115.55555555555557,132.9100529100529 115.34391534391536,132.27513227513228 115.34391534391536,131.64021164021165 115.13227513227514,131.005291005291 115.13227513227514,130.37037037037038 115.13227513227514,129.73544973544975 115.13227513227514,129.10052910052912 115.13227513227514,128.46560846560848 115.13227513227514,127.83068783068784 115.13227513227514,127.1957671957672 115.13227513227514,126.56084656084657 115.13227513227514,125.92592592592594 115.13227513227514,125.2910052910053 115.13227513227514,124.65608465608466 115.34391534391536,124.02116402116403 115.34391534391536,123.3862433862434 115.34391534391536,122.75132275132276 115.55555555555557,122.11640211640213 115.55555555555557,121.4814814814815 115.55555555555557,120.84656084656086 115.55555555555557,120.21164021164022 115.76719576719577,119.57671957671958 115.76719576719577,118.94179894179895 115.76719576719577,118.30687830687832 115.76719576719577,117.67195767195768 115.76719576719577,117.03703703703705 115.97883597883599,116.4021164021164 115.97883597883599,115.76719576719577 115.97883597883599,115.13227513227514 115.97883597883599,114.49735449735451 115.97883597883599,113.86243386243387 115.97883597883599,113.22751322751324 115.97883597883599,112.5925925925926 115.97883597883599,111.95767195767196 115.97883597883599,111.32275132275133 115.76719576719577,110.6878306878307 115.76719576719577,110.05291005291006 115.55555555555557,109.41798941798943 115.55555555555557,108.78306878306879 115.34391534391536,108.14814814814815 115.13227513227514,107.51322751322752 114.92063492063492,106.87830687830689 114.70899470899472,106.24338624338625 114.28571428571429,105.60846560846562 114.07407407407408,104.97354497354497 113.65079365079366,104.33862433862434 113.43915343915344,103.70370370370371 113.01587301587303,103.28042328042329 112.5925925925926,102.64550264550266 112.16931216931218,102.22222222222223 111.74603174603176,101.79894179894181 111.32275132275133,101.37566137566138 110.6878306878307,100.95238095238096 110.26455026455027,100.52910052910053 109.62962962962963,100.31746031746033 109.20634920634922,99.8941798941799 108.57142857142858,99.68253968253968 107.93650793650795,99.47089947089948 107.3015873015873,99.25925925925927 106.66666666666667,99.04761904761905 106.03174603174604,99.04761904761905 105.3968253968254,98.83597883597885 104.76190476190477,98.62433862433863 104.12698412698414,98.62433862433863 103.4920634920635,98.62433862433863 102.85714285714286,98.62433862433863 102.22222222222223,98.41269841269842 101.5873015873016,98.62433862433863 100.95238095238096,98.62433862433863 100.31746031746033,98.62433862433863 99.68253968253968,98.83597883597885 99.04761904761905,98.83597883597885 98.41269841269842,98.83597883597885 97.77777777777779,98.83597883597885 97.14285714285715,99.04761904761905 96.50793650793652,99.04761904761905 95.87301587301587,99.25925925925927 95.23809523809524,99.47089947089948 94.60317460317461,99.68253968253968 93.96825396825398,99.8941798941799 93.33333333333334,99.8941798941799 92.69841269841271,100.10582010582011 92.06349206349208,100.31746031746033 91.42857142857143,100.74074074074075 90.7936507936508,100.95238095238096 90.15873015873017,101.16402116402116 89.52380952380953,101.5873015873016 88.8888888888889,101.79894179894181 88.25396825396827,102.01058201058201 87.83068783068784,102.43386243386244 87.1957671957672,102.64550264550266 86.56084656084657,103.06878306878308 85.92592592592594,103.28042328042329 85.5026455026455,103.70370370370371 84.86772486772487,104.12698412698414 84.23280423280424,104.55026455026456 83.59788359788361,104.97354497354497 83.17460317460318,105.3968253968254 82.53968253968254,105.82010582010582 82.11640211640213,106.24338624338625 81.6931216931217,106.87830687830689 81.26984126984128,107.51322751322752 80.84656084656085,108.14814814814815 80.63492063492065,108.78306878306879 80.42328042328043,109.41798941798943 80.21164021164022,110.05291005291006 80.0,110.6878306878307 79.7883597883598,111.32275132275133 79.7883597883598,111.95767195767196 79.7883597883598,112.5925925925926 80.0,113.22751322751324 80.0,113.86243386243387 80.0,114.49735449735451 80.21164021164022,115.13227513227514 80.21164021164022,115.76719576719577 80.42328042328043,116.4021164021164 80.63492063492065,117.03703703703705 80.84656084656085,117.67195767195768 81.05820105820106,118.30687830687832 81.26984126984128,118.94179894179895 81.48148148148148,119.57671957671958 81.90476190476191,120.21164021164022 82.11640211640213,120.84656084656086 82.53968253968254,121.4814814814815 82.75132275132276,122.11640211640213 83.17460317460318,122.53968253968254 83.59788359788361,123.17460317460318 83.80952380952381,123.80952380952382 84.23280423280424,124.23280423280424 84.44444444444446,124.86772486772487 84.86772486772487,125.5026455026455 85.29100529100529,126.13756613756615 85.5026455026455,126.77248677248679 85.92592592592594,127.1957671957672 86.34920634920636,127.83068783068784 86.56084656084657,128.46560846560848 86.98412698412699,129.10052910052912 87.40740740740742,129.73544973544975 87.83068783068784,130.37037037037038 88.25396825396827,131.005291005291 88.46560846560847,131.64021164021165 88.8888888888889,132.27513227513228 89.31216931216932,132.9100529100529 89.73544973544975,133.54497354497354 89.94708994708995,134.17989417989418 90.37037037037038,134.81481481481484 90.58201058201058,135.44973544973547 91.00529100529101,135.87301587301587 91.42857142857143,136.5079365079365 91.64021164021165,137.14285714285717 92.06349206349208,137.7777777777778 92.27513227513228,138.41269841269843 92.4867724867725,139.04761904761907 92.69841269841271,139.6825396825397 92.91005291005291,140.31746031746033 93.12169312169313,140.95238095238096 93.12169312169313,141.5873015873016 93.33333333333334,142.22222222222223 93.12169312169313,142.85714285714286 92.91005291005291,143.4920634920635 92.69841269841271,144.12698412698413 92.4867724867725,144.76190476190476 92.06349206349208,145.1851851851852 91.85185185185186,145.82010582010582 91.42857142857143,146.24338624338625 91.00529100529101,146.66666666666669 90.58201058201058,147.0899470899471 90.15873015873017,147.51322751322752 89.73544973544975,147.93650793650795 89.31216931216932,148.35978835978838 88.67724867724868,148.78306878306879 88.04232804232805,149.20634920634922 87.61904761904762,149.62962962962965 86.98412698412699,150.05291005291005 86.34920634920636,150.26455026455028 85.71428571428572,150.6878306878307 85.07936507936509,150.8994708994709 84.44444444444446,151.32275132275134 83.80952380952381,151.53439153439155 83.17460317460318,151.74603174603175 82.53968253968254,151.95767195767198 81.90476190476191,152.16931216931218 81.26984126984128,152.38095238095238 80.63492063492065,152.5925925925926 80.0,152.8042328042328 79.36507936507937,153.01587301587304 78.73015873015873,153.22751322751324 78.0952380952381,153.43915343915344 77.46031746031747,153.65079365079367 76.82539682539684,153.86243386243387 76.19047619047619,154.07407407407408 75.55555555555556,154.2857142857143 74.92063492063492,154.4973544973545 74.28571428571429,154.7089947089947 73.65079365079366,154.92063492063494 73.01587301587303,155.13227513227514 72.38095238095238,155.34391534391534 71.74603174603175,155.34391534391534 71.11111111111111,155.55555555555557 70.47619047619048,155.76719576719577 69.84126984126985,155.978835978836 69.20634920634922,155.978835978836 68.57142857142858,156.1904761904762 67.93650793650794,156.4021164021164 67.3015873015873,156.4021164021164 66.66666666666667,156.82539682539684 66.03174603174604,157.03703703703704 65.3968253968254,157.03703703703704 64.76190476190477,157.24867724867727 64.12698412698413,157.24867724867727 63.492063492063494,157.46031746031747 62.85714285714286,157.46031746031747 62.22222222222223,157.67195767195767 61.58730158730159,157.67195767195767 60.952380952380956,157.8835978835979 60.31746031746032,157.8835978835979 59.682539682539684,157.8835978835979 59.04761904761905,158.0952380952381 58.41269841269842,158.0952380952381 57.777777777777786,158.0952380952381 57.142857142857146,158.30687830687833 56.50793650793651,158.30687830687833 55.87301587301588,158.51851851851853 55.23809523809524,158.51851851851853 54.60317460317461,158.51851851851853 53.968253968253975,158.73015873015873 53.333333333333336,158.73015873015873 52.6984126984127,158.73015873015873 52.06349206349207,158.73015873015873 51.42857142857143,158.94179894179896 50.7936507936508,158.94179894179896 50.158730158730165,158.94179894179896 49.523809523809526,158.94179894179896 48.88888888888889,158.94179894179896 48.25396825396826,159.15343915343917 47.61904761904762,159.15343915343917 46.98412698412699,159.15343915343917 46.349206349206355,159.15343915343917 45.714285714285715,159.15343915343917 45.07936507936508,159.36507936507937 44.44444444444445,159.36507936507937 43.80952380952381,159.36507936507937 43.17460317460318,159.36507936507937 42.539682539682545,159.5767195767196 41.904761904761905,159.5767195767196 41.26984126984127,159.5767195767196 40.63492063492064,159.5767195767196 40.0,159.5767195767196 39.36507936507937,159.5767195767196 38.730158730158735,159.5767195767196 34.70899470899471,160.0" style="fill:none; stroke:#00aa99; stroke-width:1.0"  /><polyline points="34.70899470899471,160.0 34.920634920634924,156.82539682539684 34.920634920634924,156.1904761904762 35.13227513227513,155.55555555555557 35.13227513227513,154.92063492063494 35.13227513227513,154.2857142857143 35.34391534391535,153.65079365079367 35.34391534391535,153.01587301587304 35.34391534391535,152.38095238095238 35.34391534391535,151.74603174603175 35.55555555555556,151.11111111111111 35.55555555555556,150.47619047619048 35.55555555555556,149.84126984126985 35.76719576719577,149.20634920634922 35.76719576719577,148.57142857142858 35.76719576719577,147.93650793650795 35.97883597883598,147.30158730158732 35.97883597883598,146.66666666666669 35.97883597883598,146.03174603174605 36.19047619047619,145.39682539682542 36.19047619047619,144.76190476190476 36.19047619047619,144.12698412698413 36.402116402116405,143.4920634920635 36.402116402116405,142.85714285714286 36.613756613756614,142.22222222222223 36.613756613756614,141.5873015873016 36.613756613756614,140.95238095238096 36.82539682539683,140.31746031746033 36.82539682539683,139.6825396825397 37.03703703703704,139.04761904761907 37.03703703703704,138.41269841269843 37.03703703703704,137.7777777777778 37.248677248677254,137.14285714285717 37.248677248677254,136.5079365079365 37.46031746031746,135.87301587301587 37.46031746031746,135.23809523809524 37.46031746031746,134.6031746031746 37.67195767195768,133.96825396825398 37.67195767195768,133.33333333333334 37.67195767195768,132.6984126984127 37.883597883597886,132.06349206349208 38.095238095238095,131.42857142857144 38.095238095238095,130.7936507936508 38.30687830687831,130.15873015873018 38.30687830687831,129.52380952380955 38.51851851851852,128.88888888888889 38.730158730158735,128.25396825396825 38.730158730158735,127.61904761904763 38.94179894179894,126.98412698412699 39.15343915343916,126.34920634920636 39.36507936507937,125.71428571428572 39.36507936507937,125.07936507936509 39.57671957671958,124.44444444444446 39.78835978835979,123.80952380952382 40.0,123.17460317460318 40.211640211640216,122.53968253968254 40.211640211640216,121.90476190476191 40.423280423280424,121.26984126984128 40.63492063492064,120.63492063492065 40.84656084656085,120.00000000000001 41.058201058201064,119.36507936507937 41.26984126984127,118.73015873015873 41.26984126984127,118.0952380952381 41.48148148148149,117.46031746031747 41.48148148148149,116.82539682539684 41.48148148148149,116.1904761904762 41.48148148148149,115.55555555555557 41.48148148148149,114.92063492063492 41.48148148148149,114.28571428571429 41.26984126984127,113.65079365079366 41.26984126984127,113.01587301587303 41.058201058201064,112.3809523809524 40.63492063492064,111.74603174603176 40.423280423280424,111.11111111111111 40.0,110.47619047619048 39.36507936507937,110.05291005291006 38.94179894179894,109.62962962962963 38.51851851851852,109.20634920634922 37.883597883597886,108.78306878306879 37.248677248677254,108.57142857142858 36.613756613756614,108.14814814814815 35.97883597883598,107.93650793650795 35.34391534391535,107.93650793650795 34.70899470899471,107.72486772486774 34.074074074074076,107.72486772486774 33.43915343915344,107.72486772486774 32.804232804232804,107.72486772486774 32.16931216931217,107.72486772486774 31.53439153439154,107.93650793650795 30.899470899470902,108.14814814814815 30.264550264550266,108.14814814814815 29.629629629629633,108.35978835978837 28.994708994708997,108.78306878306879 28.35978835978836,108.994708994709 27.93650793650794,109.41798941798943 27.301587301587304,109.84126984126985 26.666666666666668,110.05291005291006 26.243386243386244,110.47619047619048 25.60846560846561,110.89947089947091 24.973544973544975,111.11111111111111 24.55026455026455,111.53439153439155 23.915343915343918,111.74603174603176 23.280423280423282,112.16931216931218 22.645502645502646,112.3809523809524 22.010582010582013,112.5925925925926 21.375661375661377,112.80423280423281 20.740740740740744,113.01587301587303 20.105820105820108,113.22751322751324 19.47089947089947,113.43915343915344 18.83597883597884,113.65079365079366 18.201058201058203,113.65079365079366 17.566137566137566,113.86243386243387 16.931216931216934,113.86243386243387 16.296296296296298,113.86243386243387 15.661375661375663,113.86243386243387 15.026455026455027,114.07407407407408 14.391534391534393,114.07407407407408 13.756613756613758,114.07407407407408 13.121693121693122,114.07407407407408 12.486772486772487,113.86243386243387 11.851851851851853,113.65079365079366 11.216931216931219,113.65079365079366 10.582010582010582,113.43915343915344 9.947089947089948,113.22751322751324 9.312169312169313,112.80423280423281 8.677248677248677,112.3809523809524 8.042328042328043,111.95767195767196 7.407407407407408,111.53439153439155 6.984126984126985,111.11111111111111 6.560846560846561,110.6878306878307 6.137566137566138,110.26455026455027 5.714285714285714,109.84126984126985 5.502645502645503,109.20634920634922 5.07936507936508,108.78306878306879 4.656084656084657,108.14814814814815 4.444444444444445,107.51322751322752 4.021164021164021,106.87830687830689 3.8095238095238098,106.24338624338625 3.3862433862433865,105.60846560846562 3.174603174603175,104.97354497354497 2.9629629629629632,104.33862433862434 2.7513227513227516,103.70370370370371 2.53968253968254,103.06878306878308 2.3280423280423284,102.43386243386244 2.1164021164021167,101.79894179894181 1.9047619047619049,101.16402116402116 1.4814814814814816,100.74074074074075 1.26984126984127,100.10582010582011 1.0582010582010584,99.47089947089948 0.8465608465608466,98.83597883597885 0.634920634920635,98.2010582010582 0.634920634920635,97.56613756613757 0.4232804232804233,96.93121693121694 0.21164021164021166,96.2962962962963 0.21164021164021166,95.66137566137567 0.21164021164021166,95.02645502645504 0.21164021164021166,94.39153439153439 0.21164021164021166,93.75661375661376 0.21164021164021166,93.12169312169313 0.21164021164021166,92.4867724867725 0.4232804232804233,91.85185185185186 0.4232804232804233,91.21693121693123 0.634920634920635,90.58201058201058 0.8465608465608466,89.94708994708995 1.0582010582010584,89.31216931216932 1.26984126984127,88.67724867724868 1.4814814814814816,88.04232804232805 1.9047619047619049,87.40740740740742 2.1164021164021167,86.77248677248677 2.53968253968254,86.34920634920636 2.9629629629629632,85.71428571428572 3.3862433862433865,85.07936507936509 3.8095238095238098,84.65608465608466 4.2328042328042335,84.02116402116403 4.656084656084657,83.59788359788361 5.07936507936508,83.17460317460318 5.714285714285714,82.75132275132276 6.34920634920635,82.32804232804233 6.984126984126985,81.90476190476191 7.6190476190476195,81.48148148148148 8.253968253968255,81.26984126984128 8.88888888888889,81.05820105820106 9.523809523809524,80.63492063492065 10.15873015873016,80.63492063492065 10.582010582010582,80.21164021164022 11.216931216931219,80.0 11.851851851851853,79.7883597883598 12.486772486772487,79.7883597883598 13.121693121693122,79.57671957671958 13.756613756613758,79.7883597883598 14.17989417989418,79.36507936507937 14.814814814814817,79.7883597883598 15.449735449735451,79.7883597883598 16.084656084656086,79.7883597883598 16.71957671957672,79.7883597883598 17.354497354497354,80.0 17.98941798941799,80.0 18.624338624338627,80.21164021164022 19.25925925925926,80.42328042328043 19.894179894179896,80.63492063492065 20.529100529100532,80.84656084656085 21.164021164021165,81.05820105820106 21.7989417989418,81.05820105820106 22.433862433862437,81.05820105820106 22.857142857142858,81.48148148148148 23.492063492063494,81.48148148148148 24.12698412698413,81.6931216931217 24.761904761904763,81.48148148148148 25.185185185185187,81.90476190476191 25.820105820105823,82.11640211640213 26.455026455026456,82.32804232804233 27.089947089947092,82.32804232804233 27.724867724867728,82.53968253968254 28.35978835978836,82.53968253968254 28.994708994708997,82.75132275132276 29.629629629629633,82.75132275132276 30.264550264550266,82.75132275132276 30.899470899470902,82.96296296296298 31.53439153439154,82.96296296296298 32.16931216931217,82.75132275132276 32.804232804232804,82.53968253968254 33.43915343915344,82.53968253968254 34.074074074074076,82.32804232804233 34.70899470899471,82.11640211640213 35.34391534391535,81.90476190476191 35.97883597883598,81.6931216931217 36.613756613756614,81.26984126984128 37.03703703703704,80.84656084656085 37.46031746031746,80.42328042328043 37.883597883597886,80.0 38.30687830687831,79.57671957671958 38.730158730158735,78.94179894179895 38.94179894179894,78.30687830687832 39.15343915343916,77.67195767195767 39.36507936507937,77.03703703703704 39.36507936507937,76.4021164021164 39.36507936507937,75.76719576719577 39.36507936507937,75.13227513227514 39.36507936507937,74.49735449735451 39.36507936507937,73.86243386243387 39.15343915343916,73.22751322751323 39.15343915343916,72.5925925925926 38.94179894179894,71.95767195767196 38.94179894179894,71.32275132275133 38.730158730158735,70.6878306878307 38.51851851851852,70.05291005291006 38.30687830687831,69.41798941798942 38.095238095238095,68.78306878306879 37.883597883597886,68.14814814814815 37.67195767195768,67.51322751322752 37.46031746031746,66.87830687830689 37.248677248677254,66.24338624338625 36.82539682539683,65.60846560846561 36.402116402116405,65.18518518518519 36.19047619047619,64.55026455026456 35.76719576719577,64.12698412698413 35.55555555555556,63.492063492063494 35.13227513227513,63.06878306878308 34.920634920634924,62.43386243386244 34.4973544973545,61.798941798941804 34.074074074074076,61.16402116402117 33.86243386243387,60.52910052910053 33.43915343915344,59.8941798941799 33.22751322751323,59.25925925925927 32.804232804232804,58.62433862433863 32.38095238095239,57.989417989417994 32.16931216931217,57.35449735449736 31.95767195767196,56.71957671957672 31.746031746031747,56.08465608465609 31.322751322751326,55.661375661375665 31.111111111111114,55.02645502645503 30.68783068783069,54.39153439153439 30.476190476190478,53.75661375661376 30.264550264550266,53.12169312169313 30.052910052910054,52.48677248677249 29.629629629629633,51.851851851851855 29.41798941798942,51.21693121693122 29.20634920634921,50.58201058201058 28.783068783068785,49.94708994708995 28.571428571428573,49.31216931216932 28.35978835978836,48.677248677248684 28.14814814814815,48.042328042328045 26.666666666666668,44.232804232804234" style="fill:none; stroke:#3300bb; stroke-width:1.0"  /><circle cx="26.666666666666668" cy="44.232804232804234" r="2.0" style="fill:none; stroke:#000000aa; stroke-width:0.25" /><circle cx="150.8994708994709" cy="31.322751322751326" r="2.0" style="fill:none; stroke:#000000aa; stroke-width:0.25" /><circle cx="189.41798941798945" cy="141.3756613756614" r="2.0" style="fill:none; stroke:#000000aa; stroke-width:0.25" /><circle cx="34.70899470899471" cy="160.0" r="2.0" style="fill:none; stroke:#000000aa; stroke-width:0.25" /><circle cx="26.87830687830688" cy="44.65608465608466" r="2.0" style="fill:none; stroke:#ff3366aa; stroke-width:0.25" /><circle cx="151.53439153439155" cy="31.322751322751326" r="2.0" style="fill:none; stroke:#ff3366aa; stroke-width:0.25" /><circle cx="189.41798941798945" cy="141.16402116402116" r="2.0" style="fill:none; stroke:#ff3366aa; stroke-width:0.25" /><circle cx="35.13227513227513" cy="159.7883597883598" r="2.0" style="fill:none; stroke:#ff3366aa; stroke-width:0.25" /><polyline points="38.30687830687831,44.867724867724874 37.67195767195768,44.867724867724874 37.03703703703704,44.867724867724874 36.402116402116405,44.867724867724874 35.76719576719577,44.65608465608466 35.13227513227513,44.65608465608466 34.4973544973545,44.44444444444445 33.86243386243387,44.44444444444445 33.22751322751323,44.44444444444445 32.592592592592595,44.232804232804234 31.95767195767196,44.232804232804234 31.322751322751326,44.44444444444445 30.68783068783069,44.44444444444445 30.052910052910054,44.44444444444445" style="fill:none; stroke:#001100; stroke-width:1.0" /><polyline points="31.322751322751326,55.661375661375665 31.111111111111114,55.02645502645503 30.68783068783069,54.39153439153439 30.476190476190478,53.75661375661376 30.264550264550266,53.12169312169313 30.052910052910054,52.48677248677249 29.629629629629633,51.851851851851855 29.41798941798942,51.21693121693122 29.20634920634921,50.58201058201058 28.783068783068785,49.94708994708995 28.571428571428573,49.31216931216932 28.35978835978836,48.677248677248684 28.14814814814815,48.042328042328045" style="fill:none; stroke:#000011; stroke-width:1.0" /><polyline points="158.0952380952381,40.84656084656085 157.67195767195767,40.423280423280424 157.24867724867727,39.78835978835979 156.82539682539684,39.36507936507937 156.4021164021164,38.94179894179894 155.978835978836,38.30687830687831 155.55555555555557,37.67195767195768 155.13227513227514,37.248677248677254 154.7089947089947,36.613756613756614 154.2857142857143,36.19047619047619 154.07407407407408,35.55555555555556 153.65079365079367,34.920634920634924 153.22751322751324,34.28571428571429" style="fill:none; stroke:#001100; stroke-width:1.0" /><polyline points="139.6825396825397,33.43915343915344 140.31746031746033,33.43915343915344 140.95238095238096,33.22751322751323 141.5873015873016,33.01587301587302 142.22222222222223,33.01587301587302 142.85714285714286,32.804232804232804 143.4920634920635,32.592592592592595 144.12698412698413,32.592592592592595 144.76190476190476,32.38095238095239 145.39682539682542,32.16931216931217 146.03174603174605,32.16931216931217 146.66666666666669,31.95767195767196 147.30158730158732,31.95767195767196 147.93650793650795,31.746031746031747 148.57142857142858,31.746031746031747" style="fill:none; stroke:#000011; stroke-width:1.0" /><polyline points="177.989417989418,140.52910052910053 178.62433862433863,140.74074074074076 179.25925925925927,140.74074074074076 179.8941798941799,140.74074074074076 180.52910052910053,140.74074074074076 181.16402116402116,140.74074074074076 181.79894179894183,140.74074074074076 182.43386243386246,140.74074074074076 183.0687830687831,140.95238095238096 183.70370370370372,140.95238095238096 184.33862433862436,140.95238095238096 184.973544973545,140.95238095238096 185.60846560846562,141.16402116402116 186.24338624338625,141.16402116402116" style="fill:none; stroke:#001100; stroke-width:1.0" /><polyline points="188.78306878306879,129.52380952380955 188.78306878306879,130.15873015873018 188.78306878306879,130.7936507936508 188.78306878306879,131.42857142857144 188.78306878306879,132.06349206349208 188.78306878306879,132.6984126984127 188.99470899470901,133.33333333333334 188.99470899470901,133.96825396825398 188.99470899470901,134.6031746031746 189.20634920634922,135.23809523809524 189.20634920634922,135.87301587301587 189.20634920634922,136.5079365079365 189.20634920634922,137.14285714285717 189.20634920634922,137.7777777777778" style="fill:none; stroke:#000011; stroke-width:1.0" /><polyline points="35.76719576719577,147.93650793650795 35.76719576719577,148.57142857142858 35.76719576719577,149.20634920634922 35.55555555555556,149.84126984126985 35.55555555555556,150.47619047619048 35.55555555555556,151.11111111111111 35.34391534391535,151.74603174603175 35.34391534391535,152.38095238095238 35.34391534391535,153.01587301587304 35.34391534391535,153.65079365079367 35.13227513227513,154.2857142857143 35.13227513227513,154.92063492063494 35.13227513227513,155.55555555555557 34.920634920634924,156.1904761904762 34.920634920634924,156.82539682539684" style="fill:none; stroke:#001100; stroke-width:1.0" /><polyline points="46.98412698412699,159.15343915343917 46.349206349206355,159.15343915343917 45.714285714285715,159.15343915343917 45.07936507936508,159.36507936507937 44.44444444444445,159.36507936507937 43.80952380952381,159.36507936507937 43.17460317460318,159.36507936507937 42.539682539682545,159.5767195767196 41.904761904761905,159.5767195767196 41.26984126984127,159.5767195767196 40.63492063492064,159.5767195767196 40.0,159.5767195767196 39.36507936507937,159.5767195767196 38.730158730158735,159.5767195767196 38.095238095238095,159.7883597883598" style="fill:none; stroke:#000011; stroke-width:1.0" /><polyline points="30.052910052910054,44.44444444444445 8.88888888888889,43.386243386243386" style="fill:none; stroke:#ffaa00; stroke-width:0.4" /><polyline points="28.14814814814815,48.042328042328045 20.105820105820108,28.571428571428573" style="fill:none; stroke:#aaff00; stroke-width:0.4" /><polyline points="153.22751322751324,34.28571428571429 140.52910052910053,17.354497354497354" style="fill:none; stroke:#ffaa00; stroke-width:0.4" /><polyline points="148.57142857142858,31.746031746031747 169.31216931216932,27.724867724867728" style="fill:none; stroke:#aaff00; stroke-width:0.4" /><polyline points="186.24338624338625,141.16402116402116 207.40740740740742,142.85714285714286" style="fill:none; stroke:#ffaa00; stroke-width:0.4" /><polyline points="189.20634920634922,137.7777777777778 190.26455026455028,158.94179894179896" style="fill:none; stroke:#aaff00; stroke-width:0.4" /><polyline points="34.920634920634924,156.82539682539684 33.01587301587302,177.989417989418" style="fill:none; stroke:#ffaa00; stroke-width:0.4" /><polyline points="38.095238095238095,159.7883597883598 16.931216931216934,161.2698412698413" style="fill:none; stroke:#aaff00; stroke-width:0.4" /><circle cx="96.93121693121694" cy="88.04232804232805" r="1.0" style="fill:#444444; stroke-width:0" /><circle cx="105.3968253968254" cy="67.72486772486774" r="10.582010582010582" style="fill:#ff770022; stroke-width:0" /><circle cx="105.3968253968254" cy="67.72486772486774" r="1.0" style="fill:#ff7700; stroke-width:0" /></svg>