<?xml version="1.0" encoding="UTF-8" standalone="no"?><svg width="570.7936507936508" height="633.6507936507937" viewBox="-10 -10 210.26455026455028 231.21693121693124" xmlns="http://www.w3.org/2000/svg" xmlns:xlink="http://www.w3.org/1999/xlink"><polyline points="-0.21164021164021166,65.60846560846561 3.174603174603175,64.76190476190477 3.8095238095238098,64.55026455026456 4.444444444444445,64.55026455026456 5.07936507936508,64.33862433862434 5.714285714285714,64.12698412698413 6.34920634920635,64.12698412698413 6.984126984126985,63.91534391534392 7.6190476190476195,63.70370370370371 8.253968253968255,63.492063492063494 8.88888888888889,63.280423280423285 9.523809523809524,63.280423280423285 10.15873015873016,63.06878306878308 10.793650793650794,62.85714285714286 11.428571428571429,62.85714285714286 12.063492063492065,62.64550264550265 12.6984126984127,62.43386243386244 13.333333333333334,62.22222222222223 13.96825396825397,62.01058201058201 14.603174603174605,62.01058201058201 15.238095238095239,61.58730158730159 15.873015873015873,61.58730158730159 16.296296296296298,61.16402116402117 16.931216931216934,60.952380952380956 17.566137566137566,60.74074074074075 18.201058201058203,60.52910052910053 18.83597883597884,60.31746031746032 19.47089947089947,60.10582010582011 20.105820105820108,60.10582010582011 20.740740740740744,59.8941798941799 21.375661375661377,59.682539682539684 22.010582010582013,59.470899470899475 22.645502645502646,59.25925925925927 23.280423280423282,59.04761904761905 23.915343915343918,59.04761904761905 24.55026455026455,58.83597883597884 25.185185185185187,58.62433862433863 25.820105820105823,58.2010582010582 26.455026455026456,58.2010582010582 27.089947089947092,57.777777777777786 27.724867724867728,57.777777777777786 28.35978835978836,57.56613756613757 28.994708994708997,57.35449735449736 29.629629629629633,57.142857142857146 30.264550264550266,56.93121693121694 30.899470899470902,56.71957671957672 31.53439153439154,56.50793650793651 32.16931216931217,56.2962962962963 32.804232804232804,55.87301587301588 33.43915343915344,55.661375661375665 34.074074074074076,55.661375661375665 34.70899470899471,55.23809523809524 35.34391534391535,55.23809523809524 35.97883597883598,55.02645502645503 36.613756613756614,54.81481481481482 37.248677248677254,54.39153439153439 37.883597883597886,54.39153439153439 38.51851851851852,54.179894179894184 39.15343915343916,53.75661375661376 39.78835978835979,53.54497354497355 40.423280423280424,53.333333333333336 41.058201058201064,53.12169312169313 41.6931216931217,52.91005291005291 42.32804232804233,52.6984126984127 42.96296296296297,52.48677248677249 43.5978835978836,52.06349206349207 44.232804232804234,52.06349206349207 44.867724867724874,51.640211640211646 45.50264550264551,51.42857142857143 46.13756613756614,51.21693121693122 46.77248677248678,51.00529100529101 47.40740740740741,50.7936507936508 48.042328042328045,50.58201058201058 48.677248677248684,50.158730158730165 49.31216931216932,50.158730158730165 49.94708994708995,49.73544973544974 50.58201058201058,49.523809523809526 51.21693121693122,49.1005291005291 51.851851851851855,48.88888888888889 52.48677248677249,48.46560846560847 53.12169312169313,48.25396825396826 53.75661375661376,48.042328042328045 54.39153439153439,47.61904761904762 54.81481481481482,47.195767195767196 55.449735449735456,46.98412698412699 55.87301587301588,46.560846560846564 56.2962962962963,46.13756613756614 56.71957671957672,45.714285714285715 57.142857142857146,45.29100529100529 57.56613756613757,44.65608465608466 57.989417989417994,44.232804232804234 58.2010582010582,43.5978835978836 58.41269841269842,42.96296296296297 58.83597883597884,42.539682539682545 59.25925925925927,41.904761904761905 59.470899470899475,41.26984126984127 59.682539682539684,40.63492063492064 59.8941798941799,40.0 60.10582010582011,39.36507936507937 60.10582010582011,38.730158730158735 60.10582010582011,38.095238095238095 60.31746031746032,37.46031746031746 60.31746031746032,36.82539682539683 60.31746031746032,36.19047619047619 60.31746031746032,35.55555555555556 60.31746031746032,34.920634920634924 60.31746031746032,34.28571428571429 60.31746031746032,33.65079365079365 60.10582010582011,33.01587301587302 60.10582010582011,32.38095238095239 59.8941798941799,31.746031746031747 59.682539682539684,31.111111111111114 59.25925925925927,30.68783068783069 59.04761904761905,30.052910052910054 58.83597883597884,29.41798941798942 58.41269841269842,28.783068783068785 58.2010582010582,28.14814814814815 57.777777777777786,27.724867724867728 57.35449735449736,27.089947089947092 56.93121693121694,26.455026455026456 56.50793650793651,25.820105820105823 56.08465608465609,25.185185185185187 55.661375661375665,24.761904761904763 55.23809523809524,24.338624338624342 54.81481481481482,23.915343915343918 54.39153439153439,23.280423280423282 53.968253968253975,22.857142857142858 53.333333333333336,22.433862433862437 53.12169312169313,21.7989417989418 52.6984126984127,21.375661375661377 52.48677248677249,20.740740740740744 52.06349206349207,20.105820105820108 51.851851851851855,19.47089947089947 51.851851851851855,18.83597883597884 51.640211640211646,18.201058201058203 51.640211640211646,17.566137566137566 51.42857142857143,16.931216931216934 51.42857142857143,16.296296296296298 51.42857142857143,15.661375661375663 51.42857142857143,15.026455026455027 51.42857142857143,14.391534391534393 51.640211640211646,13.756613756613758 51.640211640211646,13.121693121693122 51.851851851851855,12.486772486772487 52.06349206349207,11.851851851851853 52.27513227513228,11.216931216931219 52.6984126984127,10.582010582010582 52.91005291005291,9.947089947089948 53.333333333333336,9.312169312169313 53.75661375661376,8.677248677248677 54.179894179894184,8.253968253968255 54.39153439153439,7.6190476190476195 54.81481481481482,7.195767195767196 55.23809523809524,6.772486772486773 55.661375661375665,6.137566137566138 56.08465608465609,5.714285714285714 56.50793650793651,5.291005291005291 56.93121693121694,4.867724867724868 57.35449735449736,4.444444444444445 57.989417989417994,4.021164021164021 58.62433862433863,3.597883597883598 59.25925925925927,3.3862433862433865 59.682539682539684,2.9629629629629632 60.31746031746032,2.7513227513227516 60.74074074074075,2.3280423280423284 61.37566137566138,2.3280423280423284 61.798941798941804,1.9047619047619049 62.43386243386244,1.9047619047619049 62.85714285714286,1.4814814814814816 63.492063492063494,1.4814814814814816 64.12698412698413,1.26984126984127 64.76190476190477,1.0582010582010584 65.3968253968254,0.8465608465608466 66.03174603174604,0.8465608465608466 66.66666666666667,0.634920634920635 67.3015873015873,0.4232804232804233 67.93650793650794,0.4232804232804233 68.57142857142858,0.4232804232804233 69.20634920634922,0.4232804232804233 69.84126984126985,0.21164021164021166 70.47619047619048,0.4232804232804233 71.11111111111111,0.4232804232804233 71.74603174603175,0.4232804232804233 72.38095238095238,0.4232804232804233 73.01587301587303,0.4232804232804233 73.65079365079366,0.634920634920635 74.28571428571429,0.634920634920635 74.92063492063492,0.8465608465608466 75.55555555555556,1.0582010582010584 76.19047619047619,1.0582010582010584 76.82539682539684,1.26984126984127 77.46031746031747,1.6931216931216932 78.0952380952381,1.9047619047619049 78.73015873015873,2.1164021164021167 79.36507936507937,2.3280423280423284 79.7883597883598,2.7513227513227516 80.42328042328043,2.9629629629629632 81.05820105820106,3.174603174603175 81.48148148148148,3.597883597883598 82.11640211640213,4.021164021164021 82.75132275132276,4.444444444444445 83.3862433862434,4.656084656084657 83.80952380952381,5.07936507936508 84.23280423280424,5.502645502645503 84.86772486772487,5.9259259259259265 85.29100529100529,6.34920634920635 85.71428571428572,6.984126984126985 86.13756613756614,7.6190476190476195 86.34920634920636,8.253968253968255 86.56084656084657,8.88888888888889 86.77248677248677,9.523809523809524 86.98412698412699,10.15873015873016 86.98412698412699,10.793650793650794 86.98412698412699,11.428571428571429 86.98412698412699,12.063492063492065 86.98412698412699,12.6984126984127 86.77248677248677,13.333333333333334 86.77248677248677,13.96825396825397 86.77248677248677,14.603174603174605 86.56084656084657,15.238095238095239 86.56084656084657,15.873015873015873 86.13756613756614,16.296296296296298 86.13756613756614,16.931216931216934 85.92592592592594,17.566137566137566 85.5026455026455,18.201058201058203 85.29100529100529,18.83597883597884 85.07936507936509,19.47089947089947 84.86772486772487,20.105820105820108 84.44444444444446,20.740740740740744 84.23280423280424,21.375661375661377 84.02116402116403,22.010582010582013 83.80952380952381,22.645502645502646 83.3862433862434,23.06878306878307 83.17460317460318,23.703703703703706 82.96296296296298,24.338624338624342 82.75132275132276,24.973544973544975 82.53968253968254,25.60846560846561 82.11640211640213,26.243386243386244 81.90476190476191,26.87830687830688 81.6931216931217,27.513227513227516 81.48148148148148,28.14814814814815 81.26984126984128,28.783068783068785 81.26984126984128,29.41798941798942 81.26984126984128,30.052910052910054 81.26984126984128,30.68783068783069 81.26984126984128,31.322751322751326 81.26984126984128,31.95767195767196 81.48148148148148,32.592592592592595 81.48148148148148,33.22751322751323 81.6931216931217,33.86243386243387 81.6931216931217,34.4973544973545 82.11640211640213,35.13227513227513 82.32804232804233,35.76719576719577 82.53968253968254,36.402116402116405 82.96296296296298,37.03703703703704 83.3862433862434,37.67195767195768 83.80952380952381,38.095238095238095 84.23280423280424,38.51851851851852 84.65608465608466,38.94179894179894 85.29100529100529,39.36507936507937 85.92592592592594,39.78835978835979 86.56084656084657,39.78835978835979 87.1957671957672,40.0 87.83068783068784,40.0 88.46560846560847,40.0 89.1005291005291,40.211640211640216 89.73544973544975,40.211640211640216 90.37037037037038,40.211640211640216 91.00529100529101,40.211640211640216 91.64021164021165,40.0 92.27513227513228,40.0 92.91005291005291,39.78835978835979 93.54497354497356,39.78835978835979 94.17989417989419,39.78835978835979 94.81481481481482,39.57671957671958 95.44973544973546,39.36507936507937 96.08465608465609,39.36507936507937 96.71957671957672,39.15343915343916 97.35449735449737,39.15343915343916 97.989417989418,38.94179894179894 98.62433862433863,38.730158730158735 99.25925925925927,38.51851851851852 99.8941798941799,38.51851851851852 100.52910052910053,38.51851851851852 101.16402116402116,38.30687830687831 101.79894179894181,38.095238095238095 102.43386243386244,38.095238095238095 103.06878306878308,37.883597883597886 103.70370370370371,37.67195767195768 104.33862433862434,37.67195767195768 104.97354497354497,37.46031746031746 105.60846560846562,37.46031746031746 106.24338624338625,37.248677248677254 106.87830687830689,37.03703703703704 107.51322751322752,37.03703703703704 108.14814814814815,36.82539682539683 108.78306878306879,36.82539682539683 109.41798941798943,36.613756613756614 110.05291005291006,36.402116402116405 110.6878306878307,36.402116402116405 111.32275132275133,36.19047619047619 111.95767195767196,36.19047619047619 112.5925925925926,35.97883597883598 113.22751322751324,35.97883597883598 113.86243386243387,35.97883597883598 114.49735449735451,35.76719576719577 115.13227513227514,35.55555555555556 115.76719576719577,35.55555555555556 116.4021164021164,35.34391534391535 117.03703703703705,35.34391534391535 117.67195767195768,35.13227513227513 118.30687830687832,34.920634920634924 118.94179894179895,34.920634920634924 119.57671957671958,34.70899470899471 120.21164021164022,34.70899470899471 120.84656084656086,34.4973544973545 121.26984126984128,34.074074074074076 121.90476190476191,34.074074074074076 122.53968253968254,33.86243386243387 123.17460317460318,33.65079365079365 123.80952380952382,33.65079365079365 124.44444444444446,33.43915343915344 125.07936507936509,33.43915343915344 125.71428571428572,33.22751322751323 126.34920634920636,33.01587301587302 126.98412698412699,32.804232804232804 127.61904761904763,33.01587301587302 128.25396825396825,32.592592592592595 128.88888888888889,32.592592592592595 129.52380952380955,32.38095238095239 130.15873015873018,32.16931216931217 130.7936507936508,31.95767195767196 131.42857142857144,31.95767195767196 132.06349206349208,31.746031746031747 132.6984126984127,31.53439153439154 133.33333333333334,31.53439153439154 133.96825396825398,31.322751322751326 134.6031746031746,31.111111111111114 135.23809523809524,31.111111111111114 135.87301587301587,30.899470899470902 136.5079365079365,30.68783068783069 137.14285714285717,30.476190476190478 137.7777777777778,30.264550264550266 138.41269841269843,30.264550264550266 139.04761904761907,30.264550264550266 139.47089947089947,29.841269841269842 140.10582010582013,29.629629629629633 140.74074074074076,29.629629629629633 141.3756613756614,29.41798941798942 142.01058201058203,29.20634920634921 142.64550264550266,29.20634920634921 143.2804232804233,28.994708994708997 143.91534391534393,28.783068783068785 144.55026455026456,28.571428571428573 145.1851851851852,28.571428571428573 145.82010582010582,28.35978835978836 146.45502645502646,28.14814814814815 147.0899470899471,28.14814814814815 147.72486772486775,27.93650793650794 148.35978835978838,27.724867724867728 148.99470899470901,27.724867724867728 149.62962962962965,27.513227513227516 150.26455026455028,27.513227513227516 150.8994708994709,27.301587301587304 151.53439153439155,27.301587301587304 152.16931216931218,27.301587301587304 152.8042328042328,27.089947089947092 153.43915343915344,26.87830687830688 154.07407407407408,26.87830687830688 154.7089947089947,26.87830687830688 155.34391534391534,26.87830687830688 155.978835978836,26.666666666666668 156.61375661375664,26.455026455026456 157.24867724867727,26.455026455026456 157.8835978835979,26.455026455026456 158.51851851851853,26.243386243386244 159.15343915343917,26.455026455026456 159.7883597883598,26.243386243386244 160.42328042328043,26.031746031746035 161.05820105820106,26.031746031746035 161.6931216931217,26.031746031746035 162.32804232804233,26.031746031746035 162.96296296296296,25.820105820105823 163.59788359788362,25.820105820105823 164.23280423280426,25.60846560846561 164.8677248677249,25.60846560846561 165.50264550264552,25.60846560846561 166.13756613756615,25.60846560846561 166.7724867724868,25.3968253968254 169.73544973544975,25.185185185185187" style="fill:none; stroke:#cc0000; stroke-width:1.0"  /><polyline points="169.73544973544975,25.185185185185187 170.7936507936508,28.994708994708997 170.7936507936508,29.629629629629633 171.005291005291,30.264550264550266 171.21693121693124,30.899470899470902 171.42857142857144,31.53439153439154 171.64021164021165,32.16931216931217 171.85185185185188,32.804232804232804 172.06349206349208,33.43915343915344 172.27513227513228,34.074074074074076 172.27513227513228,34.70899470899471 172.4867724867725,35.34391534391535 172.6984126984127,35.97883597883598 172.6984126984127,36.613756613756614 172.9100529100529,37.248677248677254 173.12169312169314,37.883597883597886 173.12169312169314,38.51851851851852 173.33333333333334,39.15343915343916 173.54497354497354,39.78835978835979 173.54497354497354,40.423280423280424 173.75661375661377,41.058201058201064 173.96825396825398,41.6931216931217 173.96825396825398,42.32804232804233 174.1798941798942,42.96296296296297 174.3915343915344,43.5978835978836 174.3915343915344,44.232804232804234 174.3915343915344,44.867724867724874 174.3915343915344,45.50264550264551 174.6031746031746,46.13756613756614 174.81481481481484,46.77248677248678 174.81481481481484,47.40740740740741 175.02645502645504,48.042328042328045 175.23809523809524,48.677248677248684 175.23809523809524,49.31216931216932 175.44973544973547,49.94708994708995 175.44973544973547,50.58201058201058 175.66137566137567,51.21693121693122 175.66137566137567,51.851851851851855 175.87301587301587,52.48677248677249 175.87301587301587,53.12169312169313 176.0846560846561,53.75661375661376 176.0846560846561,54.39153439153439 176.2962962962963,55.02645502645503 176.2962962962963,55.661375661375665 176.50793650793653,56.2962962962963 176.50793650793653,56.93121693121694 176.71957671957674,57.56613756613757 176.71957671957674,58.2010582010582 176.71957671957674,58.83597883597884 176.93121693121694,59.470899470899475 176.93121693121694,60.10582010582011 177.14285714285717,60.74074074074075 177.14285714285717,61.37566137566138 177.14285714285717,62.01058201058201 177.35449735449737,62.64550264550265 177.35449735449737,63.280423280423285 177.56613756613757,63.91534391534392 177.56613756613757,64.55026455026456 177.7777777777778,65.18518518518519 177.989417989418,65.82010582010582 177.989417989418,66.45502645502646 177.989417989418,67.08994708994709 178.2010582010582,67.72486772486774 178.2010582010582,68.35978835978837 178.2010582010582,68.994708994709 178.2010582010582,69.62962962962963 178.41269841269843,70.26455026455027 178.41269841269843,70.8994708994709 178.41269841269843,71.53439153439155 178.62433862433863,72.16931216931218 178.62433862433863,72.80423280423281 178.83597883597884,73.43915343915344 178.62433862433863,74.07407407407408 178.62433862433863,74.70899470899471 178.83597883597884,75.34391534391536 178.83597883597884,75.97883597883599 178.83597883597884,76.61375661375662 179.04761904761907,77.24867724867725 179.04761904761907,77.88359788359789 179.04761904761907,78.51851851851852 179.04761904761907,79.15343915343917 179.04761904761907,79.7883597883598 179.04761904761907,80.42328042328043 179.04761904761907,81.05820105820106 179.04761904761907,81.6931216931217 179.04761904761907,82.32804232804233 178.83597883597884,82.96296296296298 178.83597883597884,83.59788359788361 178.62433862433863,84.23280423280424 178.41269841269843,84.86772486772487 178.2010582010582,85.5026455026455 177.989417989418,86.13756613756614 177.56613756613757,86.56084656084657 177.14285714285717,86.98412698412699 176.71957671957674,87.40740740740742 176.0846560846561,87.83068783068784 175.44973544973547,88.04232804232805 174.81481481481484,88.04232804232805 174.1798941798942,88.25396825396827 173.54497354497354,88.25396825396827 172.9100529100529,88.25396825396827 172.27513227513228,88.25396825396827 171.64021164021165,88.25396825396827 171.005291005291,88.04232804232805 170.37037037037038,87.83068783068784 169.73544973544975,87.83068783068784 169.10052910052912,87.61904761904762 168.46560846560848,87.40740740740742 167.83068783068785,87.40740740740742 167.19576719576722,87.1957671957672 166.56084656084658,86.98412698412699 165.92592592592595,86.77248677248677 165.2910052910053,86.77248677248677 164.65608465608466,86.56084656084657 164.02116402116403,86.34920634920636 163.3862433862434,86.34920634920636 162.75132275132276,86.13756613756614 162.11640211640213,85.92592592592594 161.4814814814815,85.92592592592594 160.84656084656086,85.71428571428572 160.21164021164023,85.5026455026455 159.5767195767196,85.29100529100529 158.94179894179896,85.29100529100529 158.30687830687833,85.07936507936509 157.67195767195767,85.07936507936509 157.03703703703704,84.86772486772487 156.4021164021164,84.65608465608466 155.76719576719577,84.86772486772487 155.13227513227514,84.65608465608466 154.4973544973545,84.65608465608466 153.86243386243387,84.44444444444446 153.22751322751324,84.44444444444446 152.5925925925926,84.23280423280424 151.95767195767198,84.23280423280424 151.32275132275134,84.23280423280424 150.6878306878307,84.23280423280424 150.05291005291005,84.23280423280424 149.41798941798942,84.23280423280424 148.78306878306879,84.23280423280424 148.14814814814815,84.23280423280424 147.51322751322752,84.44444444444446 146.8783068783069,84.44444444444446 146.24338624338625,84.65608465608466 145.60846560846562,84.86772486772487 144.973544973545,85.07936507936509 144.33862433862436,85.29100529100529 143.70370370370372,85.5026455026455 143.0687830687831,85.71428571428572 142.43386243386246,86.13756613756614 141.7989417989418,86.56084656084657 141.3756613756614,86.98412698412699 140.95238095238096,87.40740740740742 140.52910052910053,87.83068783068784 140.10582010582013,88.25396825396827 139.6825396825397,88.8888888888889 139.25925925925927,89.31216931216932 139.04761904761907,89.94708994708995 138.62433862433863,90.58201058201058 138.41269841269843,91.21693121693123 137.989417989418,91.85185185185186 137.7777777777778,92.4867724867725 137.35449735449737,93.12169312169313 137.14285714285717,93.75661375661376 136.93121693121694,94.39153439153439 136.93121693121694,95.02645502645504 136.71957671957674,95.66137566137567 136.5079365079365,96.2962962962963 136.2962962962963,96.93121693121694 136.2962962962963,97.56613756613757 136.0846560846561,98.2010582010582 136.0846560846561,98.83597883597885 136.0846560846561,99.47089947089948 136.0846560846561,100.10582010582011 135.87301587301587,100.74074074074075 136.0846560846561,101.37566137566138 136.0846560846561,102.01058201058201 136.0846560846561,102.64550264550266 136.2962962962963,103.28042328042329 136.2962962962963,103.91534391534393 136.5079365079365,104.55026455026456 136.5079365079365,105.18518518518519 136.71957671957674,105.82010582010582 136.71957671957674,106.45502645502647 136.93121693121694,107.0899470899471 137.14285714285717,107.72486772486774 137.35449735449737,108.35978835978837 137.56613756613757,108.994708994709 137.7777777777778,109.62962962962963 137.989417989418,110.26455026455027 138.2010582010582,110.89947089947091 138.41269841269843,111.53439153439155 138.83597883597884,112.16931216931218 139.04761904761907,112.80423280423281 139.47089947089947,113.43915343915344 139.6825396825397,114.07407407407408 140.10582010582013,114.70899470899472 140.52910052910053,115.34391534391536 140.95238095238096,115.97883597883599 141.3756613756614,116.4021164021164 141.7989417989418,117.03703703703705 142.22222222222223,117.67195767195768 142.85714285714286,118.0952380952381 143.2804232804233,118.51851851851853 143.70370370370372,118.94179894179895 144.33862433862436,119.36507936507937 144.973544973545,119.57671957671958 145.60846560846562,119.7883597883598 146.24338624338625,120.00000000000001 146.8783068783069,120.21164021164022 147.51322751322752,120.42328042328043 148.14814814814815,120.42328042328043 148.78306878306879,120.42328042328043 149.41798941798942,120.63492063492065 150.05291005291005,120.63492063492065 150.6878306878307,120.63492063492065 151.32275132275134,120.42328042328043 151.95767195767198,120.42328042328043 152.5925925925926,120.42328042328043 153.22751322751324,120.42328042328043 153.86243386243387,120.42328042328043 154.4973544973545,120.21164021164022 155.13227513227514,120.00000000000001 155.76719576719577,119.7883597883598 156.4021164021164,119.57671957671958 157.03703703703704,119.36507936507937 157.67195767195767,119.15343915343917 158.30687830687833,118.94179894179895 158.94179894179896,118.73015873015873 159.5767195767196,118.51851851851853 160.21164021164023,118.30687830687832 160.84656084656086,118.30687830687832 161.4814814814815,118.0952380952381 162.11640211640213,117.67195767195768 162.75132275132276,117.46031746031747 163.3862433862434,117.24867724867725 164.02116402116403,117.03703703703705 164.65608465608466,116.82539682539684 165.2910052910053,116.61375661375662 165.92592592592595,116.4021164021164 166.56084656084658,116.1904761904762 167.19576719576722,115.97883597883599 167.83068783068785,115.55555555555557 168.46560846560848,115.34391534391536 169.10052910052912,115.13227513227514 169.73544973544975,114.92063492063492 170.37037037037038,114.49735449735451 171.005291005291,114.28571428571429 171.64021164021165,114.07407407407408 172.27513227513228,113.86243386243387 172.9100529100529,113.65079365079366 173.54497354497354,113.22751322751324 174.1798941798942,113.01587301587303 174.81481481481484,113.01587301587303 175.23809523809524,112.5925925925926 175.87301587301587,112.5925925925926 176.50793650793653,112.16931216931218 177.14285714285717,111.95767195767196 177.7777777777778,112.16931216931218 178.41269841269843,111.95767195767196 179.04761904761907,111.95767195767196 179.6825396825397,111.95767195767196 180.31746031746033,111.95767195767196 180.95238095238096,111.95767195767196 181.5873015873016,112.16931216931218 182.22222222222223,112.3809523809524 182.85714285714286,112.5925925925926 183.4920634920635,112.80423280423281 183.91534391534393,113.22751322751324 184.33862433862436,113.65079365079366 184.7619047619048,114.28571428571429 185.1851851851852,114.92063492063492 185.39682539682542,115.55555555555557 185.60846560846562,116.1904761904762 185.82010582010582,116.82539682539684 186.03174603174605,117.46031746031747 186.03174603174605,118.0952380952381 186.24338624338625,118.73015873015873 186.24338624338625,119.36507936507937 186.24338624338625,120.00000000000001 186.45502645502646,120.63492063492065 186.45502645502646,121.26984126984128 186.45502645502646,121.90476190476191 186.66666666666669,122.53968253968254 186.66666666666669,123.17460317460318 186.66666666666669,123.80952380952382 186.66666666666669,124.44444444444446 186.66666666666669,125.07936507936509 186.66666666666669,125.71428571428572 186.8783068783069,126.34920634920636 186.8783068783069,126.98412698412699 186.8783068783069,127.61904761904763 187.08994708994712,128.25396825396825 187.08994708994712,128.88888888888889 187.08994708994712,129.52380952380955 187.08994708994712,130.15873015873018 187.08994708994712,130.7936507936508 187.08994708994712,131.42857142857144 187.30158730158732,132.06349206349208 187.30158730158732,132.6984126984127 187.30158730158732,133.33333333333334 187.30158730158732,133.96825396825398 187.30158730158732,134.6031746031746 187.51322751322752,135.23809523809524 187.72486772486775,135.87301587301587 187.72486772486775,136.5079365079365 187.72486772486775,137.14285714285717 187.93650793650795,137.7777777777778 187.93650793650795,138.41269841269843 187.93650793650795,139.04761904761907 187.93650793650795,139.6825396825397 187.93650793650795,140.31746031746033 187.93650793650795,140.95238095238096 188.14814814814815,141.5873015873016 188.14814814814815,142.22222222222223 188.14814814814815,142.85714285714286 188.14814814814815,143.4920634920635 188.14814814814815,144.12698412698413 188.35978835978838,144.76190476190476 188.35978835978838,145.39682539682542 188.35978835978838,146.03174603174605 188.35978835978838,146.66666666666669 188.35978835978838,147.30158730158732 188.35978835978838,147.93650793650795 188.57142857142858,148.57142857142858 188.57142857142858,149.20634920634922 188.35978835978838,149.84126984126985 188.35978835978838,150.47619047619048 188.57142857142858,151.11111111111111 188.57142857142858,151.74603174603175 188.57142857142858,152.38095238095238 188.57142857142858,153.01587301587304 188.57142857142858,153.65079365079367 188.78306878306879,154.2857142857143 188.78306878306879,154.92063492063494 188.78306878306879,155.55555555555557 188.78306878306879,156.1904761904762 188.99470899470901,156.82539682539684 188.99470899470901,157.46031746031747 188.99470899470901,158.0952380952381 188.99470899470901,158.73015873015873 189.20634920634922,159.36507936507937 189.20634920634922,160.0 189.20634920634922,160.63492063492066 189.20634920634922,161.2698412698413 189.20634920634922,161.90476190476193 189.41798941798945,162.53968253968256 189.41798941798945,163.1746031746032 189.62962962962965,163.80952380952382 189.62962962962965,164.44444444444446 189.62962962962965,165.0793650793651 189.62962962962965,165.71428571428572 189.84126984126985,166.34920634920636 189.84126984126985,166.984126984127 190.26455026455028,170.7936507936508" style="fill:none; stroke:#999900; stroke-width:1.0"  /><polyline points="190.26455026455028,170.7936507936508 186.66666666666669,170.7936507936508 186.03174603174605,170.7936507936508 185.39682539682542,170.7936507936508 184.7619047619048,170.58201058201058 184.12698412698415,170.7936507936508 183.4920634920635,170.7936507936508 182.85714285714286,170.7936507936508 182.22222222222223,170.7936507936508 181.5873015873016,170.7936507936508 180.95238095238096,170.7936507936508 180.31746031746033,170.7936507936508 179.6825396825397,170.7936507936508 179.04761904761907,170.7936507936508 178.41269841269843,170.7936507936508 177.7777777777778,171.005291005291 177.14285714285717,171.005291005291 176.50793650793653,171.005291005291 175.87301587301587,171.005291005291 175.23809523809524,170.7936507936508 174.6031746031746,170.7936507936508 173.96825396825398,170.7936507936508 173.33333333333334,170.7936507936508 172.6984126984127,170.7936507936508 172.06349206349208,170.7936507936508 171.42857142857144,171.005291005291 170.7936507936508,170.7936507936508 170.15873015873018,171.005291005291 169.52380952380955,171.005291005291 168.8888888888889,171.005291005291 168.25396825396825,171.005291005291 167.61904761904762,171.005291005291 166.984126984127,171.005291005291 166.34920634920636,171.005291005291 165.71428571428572,171.005291005291 165.0793650793651,171.005291005291 164.44444444444446,171.005291005291 163.80952380952382,171.005291005291 163.1746031746032,171.005291005291 162.53968253968256,171.005291005291 161.90476190476193,171.005291005291 161.2698412698413,171.005291005291 160.63492063492066,171.005291005291 160.0,171.005291005291 159.36507936507937,171.005291005291 158.73015873015873,171.005291005291 158.0952380952381,171.005291005291 157.46031746031747,171.005291005291 156.82539682539684,171.005291005291 156.1904761904762,171.21693121693124 155.55555555555557,171.21693121693124 154.92063492063494,171.21693121693124 154.2857142857143,171.21693121693124 153.65079365079367,171.21693121693124 153.01587301587304,171.005291005291 152.38095238095238,171.005291005291 151.74603174603175,171.005291005291 151.11111111111111,171.005291005291 150.47619047619048,171.005291005291 149.84126984126985,171.005291005291 149.20634920634922,170.7936507936508 148.57142857142858,170.7936507936508 147.93650793650795,170.7936507936508 147.30158730158732,170.7936507936508 146.66666666666669,170.7936507936508 146.03174603174605,170.58201058201058 145.39682539682542,170.58201058201058 144.76190476190476,170.58201058201058 144.12698412698413,170.37037037037038 143.4920634920635,170.37037037037038 142.85714285714286,170.37037037037038 142.22222222222223,170.15873015873018 141.5873015873016,170.15873015873018 140.95238095238096,169.94708994708995 140.31746031746033,169.94708994708995 139.6825396825397,169.73544973544975 139.04761904761907,169.73544973544975 138.41269841269843,169.73544973544975 137.7777777777778,169.52380952380955 137.14285714285717,169.52380952380955 136.5079365079365,169.31216931216932 135.87301587301587,169.31216931216932 135.23809523809524,169.31216931216932 134.6031746031746,169.10052910052912 133.96825396825398,169.10052910052912 133.33333333333334,169.10052910052912 132.6984126984127,169.10052910052912 132.06349206349208,169.10052910052912 131.42857142857144,169.10052910052912 130.7936507936508,169.31216931216932 130.15873015873018,169.31216931216932 129.52380952380955,169.52380952380955 128.88888888888889,169.73544973544975 128.25396825396825,169.94708994708995 127.61904761904763,170.37037037037038 126.98412698412699,170.58201058201058 126.56084656084657,171.21693121693124 126.13756613756615,171.64021164021165 125.71428571428572,172.06349206349208 125.2910052910053,172.4867724867725 124.86772486772487,173.12169312169314 124.44444444444446,173.75661375661377 124.23280423280424,174.3915343915344 124.02116402116403,175.02645502645504 124.02116402116403,175.66137566137567 123.80952380952382,176.2962962962963 123.80952380952382,176.93121693121694 123.80952380952382,177.56613756613757 123.80952380952382,178.2010582010582 123.80952380952382,178.83597883597884 124.02116402116403,179.4708994708995 124.02116402116403,180.10582010582013 124.23280423280424,180.74074074074076 124.65608465608466,181.3756613756614 124.86772486772487,182.01058201058203 125.2910052910053,182.64550264550266 125.71428571428572,183.2804232804233 126.13756613756615,183.70370370370372 126.56084656084657,184.33862433862436 126.98412698412699,184.7619047619048 127.40740740740742,185.39682539682542 127.83068783068784,186.03174603174605 128.25396825396825,186.66666666666669 128.46560846560848,187.30158730158732 128.88888888888889,187.93650793650795 129.10052910052912,188.57142857142858 129.31216931216932,189.20634920634922 129.52380952380955,189.84126984126985 129.52380952380955,190.47619047619048 129.73544973544975,191.11111111111111 129.94708994708995,191.74603174603175 130.15873015873018,192.3809523809524 130.15873015873018,193.01587301587304 130.37037037037038,193.65079365079367 130.37037037037038,194.2857142857143 130.37037037037038,194.92063492063494 130.37037037037038,195.55555555555557 130.37037037037038,196.1904761904762 130.37037037037038,196.82539682539684 130.37037037037038,197.46031746031747 130.37037037037038,198.0952380952381 130.37037037037038,198.73015873015873 130.15873015873018,199.36507936507937 129.94708994708995,200.00000000000003 129.73544973544975,200.63492063492066 129.52380952380955,201.2698412698413 129.31216931216932,201.90476190476193 128.88888888888889,202.53968253968256 128.46560846560848,203.1746031746032 128.04232804232805,203.80952380952382 127.61904761904763,204.44444444444446 127.1957671957672,204.8677248677249 126.77248677248679,205.29100529100532 126.13756613756615,205.71428571428572 125.71428571428572,206.13756613756615 125.2910052910053,206.56084656084658 124.65608465608466,206.984126984127 124.02116402116403,207.40740740740742 123.3862433862434,207.83068783068785 122.75132275132276,208.04232804232805 122.11640211640213,208.25396825396828 121.4814814814815,208.67724867724868 120.84656084656086,209.10052910052912 120.21164021164022,209.31216931216932 119.57671957671958,209.52380952380955 118.94179894179895,209.73544973544975 118.30687830687832,209.94708994708995 117.67195767195768,209.94708994708995 117.03703703703705,210.15873015873018 116.4021164021164,210.37037037037038 115.76719576719577,210.37037037037038 115.13227513227514,210.5820105820106 114.49735449735451,210.5820105820106 113.86243386243387,210.5820105820106 113.22751322751324,210.5820105820106 112.5925925925926,210.5820105820106 111.95767195767196,210.5820105820106 111.32275132275133,210.7936507936508 110.6878306878307,210.7936507936508 110.05291005291006,210.7936507936508 109.41798941798943,210.5820105820106 108.78306878306879,210.7936507936508 108.14814814814815,210.5820105820106 107.51322751322752,210.5820105820106 106.87830687830689,210.5820105820106 106.24338624338625,210.37037037037038 105.60846560846562,210.37037037037038 104.97354497354497,210.15873015873018 104.33862433862434,210.15873015873018 103.70370370370371,209.94708994708995 103.06878306878308,209.73544973544975 102.43386243386244,209.52380952380955 101.79894179894181,209.31216931216932 101.16402116402116,209.31216931216932 100.52910052910053,209.10052910052912 99.8941798941799,208.67724867724868 99.25925925925927,208.46560846560848 98.62433862433863,208.04232804232805 97.989417989418,207.83068783068785 97.56613756613757,207.40740740740742 96.93121693121694,206.984126984127 96.2962962962963,206.56084656084658 95.66137566137567,206.13756613756615 95.23809523809524,205.71428571428572 94.60317460317461,205.29100529100532 94.17989417989419,204.65608465608466 93.75661375661376,204.23280423280426 93.54497354497356,203.59788359788362 93.12169312169313,203.1746031746032 92.69841269841271,202.53968253968256 92.4867724867725,201.90476190476193 92.27513227513228,201.2698412698413 92.27513227513228,200.63492063492066 91.85185185185186,200.00000000000003 91.85185185185186,199.36507936507937 91.85185185185186,198.73015873015873 91.64021164021165,198.0952380952381 91.64021164021165,197.46031746031747 91.64021164021165,196.82539682539684 91.64021164021165,196.1904761904762 91.64021164021165,195.55555555555557 91.64021164021165,194.92063492063494 91.85185185185186,194.2857142857143 92.06349206349208,193.65079365079367 92.27513227513228,193.01587301587304 92.69841269841271,192.3809523809524 93.12169312169313,191.74603174603175 93.54497354497356,191.11111111111111 93.54497354497356,190.47619047619048 93.96825396825398,189.84126984126985 94.39153439153439,189.20634920634922 94.60317460317461,188.57142857142858 95.02645502645504,187.93650793650795 95.23809523809524,187.30158730158732 95.44973544973546,186.66666666666669 95.66137566137567,186.03174603174605 95.87301587301587,185.39682539682542 96.08465608465609,184.7619047619048 96.08465608465609,184.12698412698415 96.2962962962963,183.4920634920635 96.2962962962963,182.85714285714286 96.08465608465609,182.22222222222223 96.08465608465609,181.5873015873016 96.08465608465609,180.95238095238096 96.08465608465609,180.31746031746033 95.87301587301587,179.6825396825397 95.66137566137567,179.04761904761907 95.44973544973546,178.41269841269843 95.02645502645504,177.7777777777778 94.81481481481482,177.14285714285717 94.39153439153439,176.50793650793653 93.96825396825398,176.0846560846561 93.54497354497356,175.66137566137567 93.12169312169313,175.23809523809524 92.4867724867725,174.81481481481484 91.85185185185186,174.6031746031746 91.21693121693123,174.3915343915344 90.58201058201058,174.1798941798942 89.94708994708995,173.96825396825398 89.31216931216932,173.96825396825398 88.67724867724868,173.96825396825398 88.04232804232805,173.96825396825398 87.40740740740742,173.96825396825398 86.77248677248677,173.96825396825398 86.13756613756614,174.3915343915344 85.5026455026455,174.3915343915344 84.86772486772487,174.3915343915344 84.23280423280424,174.6031746031746 83.59788359788361,174.6031746031746 82.96296296296298,174.6031746031746 82.32804232804233,174.6031746031746 81.6931216931217,174.81481481481484 81.05820105820106,174.81481481481484 80.42328042328043,174.81481481481484 79.7883597883598,174.81481481481484 79.15343915343917,175.02645502645504 78.51851851851852,175.02645502645504 77.88359788359789,175.02645502645504 77.24867724867725,175.02645502645504 76.61375661375662,175.23809523809524 75.97883597883599,175.23809523809524 75.34391534391536,175.23809523809524 74.70899470899471,175.44973544973547 74.07407407407408,175.44973544973547 73.43915343915344,175.66137566137567 72.80423280423281,175.66137566137567 72.16931216931218,175.66137566137567 71.53439153439155,175.87301587301587 70.8994708994709,175.87301587301587 70.26455026455027,176.0846560846561 69.62962962962963,176.0846560846561 68.994708994709,176.0846560846561 68.35978835978837,176.2962962962963 67.72486772486774,176.2962962962963 67.08994708994709,176.50793650793653 66.45502645502646,176.50793650793653 65.82010582010582,176.71957671957674 65.18518518518519,176.71957671957674 64.55026455026456,176.93121693121694 63.91534391534392,176.93121693121694 63.280423280423285,177.14285714285717 62.64550264550265,177.14285714285717 62.01058201058201,177.35449735449737 61.37566137566138,177.56613756613757 60.74074074074075,177.56613756613757 60.10582010582011,177.7777777777778 59.470899470899475,177.7777777777778 58.83597883597884,177.989417989418 58.2010582010582,178.2010582010582 57.56613756613757,178.2010582010582 56.93121693121694,178.41269841269843 56.2962962962963,178.62433862433863 55.661375661375665,178.83597883597884 55.02645502645503,178.83597883597884 54.39153439153439,179.04761904761907 53.75661375661376,179.25925925925927 53.12169312169313,179.25925925925927 52.48677248677249,179.4708994708995 51.851851851851855,179.6825396825397 51.42857142857143,180.10582010582013 50.7936507936508,180.10582010582013 50.158730158730165,180.31746031746033 49.523809523809526,180.52910052910053 48.88888888888889,180.52910052910053 48.25396825396826,180.74074074074076 47.61904761904762,180.74074074074076 46.98412698412699,180.95238095238096 46.349206349206355,181.16402116402116 45.714285714285715,181.3756613756614 45.07936507936508,181.5873015873016 44.44444444444445,181.79894179894183 43.80952380952381,182.01058201058203 43.17460317460318,182.22222222222223 42.539682539682545,182.43386243386246 41.904761904761905,182.43386243386246 41.26984126984127,182.64550264550266 40.63492063492064,182.85714285714286 40.0,183.2804232804233 39.36507936507937,183.4920634920635 38.730158730158735,183.70370370370372 38.095238095238095,183.91534391534393 37.46031746031746,184.12698412698415 36.82539682539683,184.33862433862436 36.19047619047619,184.55026455026456 35.55555555555556,184.7619047619048 34.920634920634924,185.1851851851852 34.28571428571429,185.39682539682542 33.65079365079365,185.60846560846562 33.01587301587302,186.03174603174605 29.41798941798942,187.51322751322752" style="fill:none; stroke:#00aa99; stroke-width:1.0"  /><polyline points="29.41798941798942,187.51322751322752 28.783068783068785,184.33862433862436 28.571428571428573,183.70370370370372 28.571428571428573,183.0687830687831 28.35978835978836,182.43386243386246 28.35978835978836,181.79894179894183 28.14814814814815,181.16402116402116 28.14814814814815,180.52910052910053 27.93650793650794,179.8941798941799 27.724867724867728,179.25925925925927 27.513227513227516,178.62433862433863 27.513227513227516,177.989417989418 27.301587301587304,177.35449735449737 27.301587301587304,176.71957671957674 27.089947089947092,176.0846560846561 26.87830687830688,175.44973544973547 26.87830687830688,174.81481481481484 26.666666666666668,174.1798941798942 26.455026455026456,173.54497354497354 26.243386243386244,172.9100529100529 26.243386243386244,172.27513227513228 26.031746031746035,171.64021164021165 25.60846560846561,171.005291005291 25.3968253968254,170.37037037037038 25.3968253968254,169.73544973544975 25.185185185185187,169.10052910052912 24.973544973544975,168.46560846560848 24.973544973544975,167.83068783068785 24.761904761904763,167.19576719576722 24.55026455026455,166.56084656084658 24.55026455026455,165.92592592592595 24.338624338624342,165.2910052910053 24.12698412698413,164.65608465608466 23.915343915343918,164.02116402116403 23.915343915343918,163.3862433862434 23.703703703703706,162.75132275132276 23.492063492063494,162.11640211640213 23.492063492063494,161.4814814814815 23.280423280423282,160.84656084656086 23.06878306878307,160.21164021164023 23.06878306878307,159.5767195767196 22.857142857142858,158.94179894179896 22.645502645502646,158.30687830687833 22.645502645502646,157.67195767195767 22.433862433862437,157.03703703703704 22.222222222222225,156.4021164021164 22.222222222222225,155.76719576719577 22.010582010582013,155.13227513227514 21.7989417989418,154.4973544973545 21.7989417989418,153.86243386243387 21.58730158730159,153.22751322751324 21.58730158730159,152.5925925925926 21.375661375661377,151.95767195767198 21.164021164021165,151.32275132275134 21.164021164021165,150.6878306878307 20.952380952380953,150.05291005291005 20.740740740740744,149.41798941798942 20.529100529100532,148.78306878306879 20.529100529100532,148.14814814814815 20.31746031746032,147.51322751322752 20.31746031746032,146.8783068783069 20.31746031746032,146.24338624338625 20.105820105820108,145.60846560846562 20.105820105820108,144.973544973545 20.105820105820108,144.33862433862436 20.105820105820108,143.70370370370372 20.105820105820108,143.0687830687831 20.105820105820108,142.43386243386246 20.31746031746032,141.7989417989418 20.529100529100532,141.16402116402116 20.952380952380953,140.52910052910053 21.164021164021165,139.8941798941799 21.58730158730159,139.47089947089947 22.010582010582013,139.04761904761907 22.645502645502646,138.62433862433863 23.280423280423282,138.41269841269843 23.915343915343918,138.2010582010582 24.55026455026455,137.989417989418 25.185185185185187,137.989417989418 25.820105820105823,137.989417989418 26.455026455026456,137.7777777777778 27.089947089947092,137.989417989418 27.724867724867728,137.989417989418 28.35978835978836,137.989417989418 28.994708994708997,137.989417989418 29.629629629629633,137.989417989418 30.264550264550266,138.2010582010582 30.899470899470902,138.2010582010582 31.53439153439154,138.2010582010582 31.95767195767196,138.62433862433863 32.592592592592595,138.62433862433863 33.22751322751323,138.83597883597884 33.86243386243387,138.83597883597884 34.4973544973545,139.04761904761907 35.13227513227513,139.25925925925927 35.76719576719577,139.25925925925927 36.402116402116405,139.47089947089947 37.03703703703704,139.47089947089947 37.67195767195768,139.6825396825397 38.30687830687831,139.6825396825397 38.94179894179894,139.6825396825397 39.57671957671958,139.6825396825397 40.211640211640216,139.8941798941799 40.84656084656085,139.8941798941799 41.48148148148149,139.8941798941799 42.11640211640212,140.10582010582013 42.75132275132275,139.8941798941799 43.386243386243386,139.8941798941799 44.021164021164026,139.8941798941799 44.65608465608466,139.47089947089947 45.29100529100529,139.6825396825397 45.92592592592593,139.47089947089947 46.560846560846564,139.25925925925927 47.195767195767196,139.04761904761907 47.830687830687836,138.83597883597884 48.46560846560847,138.41269841269843 49.1005291005291,138.2010582010582 49.523809523809526,137.7777777777778 49.94708994708995,137.35449735449737 50.58201058201058,136.93121693121694 51.00529100529101,136.5079365079365 51.21693121693122,135.87301587301587 51.42857142857143,135.23809523809524 51.640211640211646,134.6031746031746 51.851851851851855,133.96825396825398 52.27513227513228,133.33333333333334 52.48677248677249,132.6984126984127 52.48677248677249,132.06349206349208 52.6984126984127,131.42857142857144 52.6984126984127,130.7936507936508 52.91005291005291,130.15873015873018 52.91005291005291,129.52380952380955 53.12169312169313,128.88888888888889 53.12169312169313,128.25396825396825 53.12169312169313,127.61904761904763 53.333333333333336,126.98412698412699 53.333333333333336,126.34920634920636 53.333333333333336,125.71428571428572 53.333333333333336,125.07936507936509 53.54497354497355,124.44444444444446 53.54497354497355,123.80952380952382 53.54497354497355,123.17460317460318 53.54497354497355,122.53968253968254 53.54497354497355,121.90476190476191 53.54497354497355,121.26984126984128 53.54497354497355,120.63492063492065 53.54497354497355,120.00000000000001 53.333333333333336,119.36507936507937 53.333333333333336,118.73015873015873 53.12169312169313,118.0952380952381 53.12169312169313,117.46031746031747 52.91005291005291,116.82539682539684 52.6984126984127,116.1904761904762 52.48677248677249,115.55555555555557 52.48677248677249,114.92063492063492 52.27513227513228,114.28571428571429 52.06349206349207,113.65079365079366 51.851851851851855,113.01587301587303 51.640211640211646,112.3809523809524 51.21693121693122,111.95767195767196 51.00529100529101,111.32275132275133 50.58201058201058,110.6878306878307 50.370370370370374,110.05291005291006 49.94708994708995,109.41798941798943 49.523809523809526,108.78306878306879 49.31216931216932,108.14814814814815 48.88888888888889,107.51322751322752 48.677248677248684,106.87830687830689 48.25396825396826,106.45502645502647 47.830687830687836,105.82010582010582 47.40740740740741,105.18518518518519 46.98412698412699,104.55026455026456 46.560846560846564,104.12698412698414 46.13756613756614,103.4920634920635 45.714285714285715,103.06878306878308 45.07936507936508,102.64550264550266 44.44444444444445,102.43386243386244 43.80952380952381,102.01058201058201 43.17460317460318,101.79894179894181 42.539682539682545,101.5873015873016 41.904761904761905,101.5873015873016 41.26984126984127,101.5873015873016 40.63492063492064,101.5873015873016 40.0,101.79894179894181 39.36507936507937,101.79894179894181 38.730158730158735,102.01058201058201 38.095238095238095,102.22222222222223 37.46031746031746,102.43386243386244 36.82539682539683,102.64550264550266 36.19047619047619,103.06878306878308 35.55555555555556,103.28042328042329 35.13227513227513,103.70370370370371 34.4973544973545,103.91534391534393 33.86243386243387,104.33862433862434 33.22751322751323,104.76190476190477 32.804232804232804,105.18518518518519 32.16931216931217,105.60846560846562 31.746031746031747,106.03174603174604 31.322751322751326,106.45502645502647 30.899470899470902,106.87830687830689 30.476190476190478,107.3015873015873 29.841269841269842,107.72486772486774 29.41798941798942,108.14814814814815 28.994708994708997,108.57142857142858 28.571428571428573,108.994708994709 28.14814814814815,109.41798941798943 27.724867724867728,109.84126984126985 27.301587301587304,110.26455026455027 26.87830687830688,110.6878306878307 26.243386243386244,111.11111111111111 25.820105820105823,111.53439153439155 25.3968253968254,111.95767195767196 24.761904761904763,112.3809523809524 24.12698412698413,112.80423280423281 23.492063492063494,113.22751322751324 22.857142857142858,113.43915343915344 22.222222222222225,113.86243386243387 21.58730158730159,114.07407407407408 20.952380952380953,114.07407407407408 20.31746031746032,114.28571428571429 19.682539682539684,114.28571428571429 19.047619047619047,114.28571428571429 18.412698412698415,114.28571428571429 17.77777777777778,114.07407407407408 17.142857142857146,113.86243386243387 16.50793650793651,113.43915343915344 15.873015873015873,113.22751322751324 15.449735449735451,112.80423280423281 15.026455026455027,112.16931216931218 14.603174603174605,111.53439153439155 14.17989417989418,110.89947089947091 13.96825396825397,110.26455026455027 13.544973544973546,109.62962962962963 13.544973544973546,108.994708994709 13.121693121693122,108.35978835978837 12.910052910052912,107.72486772486774 12.6984126984127,107.0899470899471 12.486772486772487,106.45502645502647 12.275132275132275,105.82010582010582 11.851851851851853,105.18518518518519 11.640211640211641,104.55026455026456 11.428571428571429,103.91534391534393 11.216931216931219,103.28042328042329 11.005291005291006,102.64550264550266 10.793650793650794,102.01058201058201 10.582010582010582,101.37566137566138 10.15873015873016,100.95238095238096 9.947089947089948,100.31746031746033 9.735449735449736,99.68253968253968 9.523809523809524,99.04761904761905 9.312169312169313,98.41269841269842 9.100529100529101,97.77777777777779 8.88888888888889,97.14285714285715 8.677248677248677,96.50793650793652 8.465608465608467,95.87301587301587 8.042328042328043,95.23809523809524 8.042328042328043,94.60317460317461 7.830687830687832,93.96825396825398 7.6190476190476195,93.33333333333334 7.195767195767196,92.69841269841271 6.984126984126985,92.06349206349208 6.984126984126985,91.42857142857143 6.772486772486773,90.7936507936508 6.560846560846561,90.15873015873017 6.34920634920635,89.52380952380953 6.34920634920635,88.8888888888889 5.9259259259259265,88.25396825396827 5.714285714285714,87.61904761904762 5.714285714285714,86.98412698412699 5.291005291005291,86.34920634920636 5.291005291005291,85.71428571428572 5.07936507936508,85.07936507936509 4.867724867724868,84.44444444444446 4.656084656084657,83.80952380952381 4.656084656084657,83.17460317460318 4.444444444444445,82.53968253968254 4.2328042328042335,81.90476190476191 4.021164021164021,81.26984126984128 3.8095238095238098,80.63492063492065 3.597883597883598,80.0 3.3862433862433865,79.36507936507937 3.3862433862433865,78.73015873015873 3.174603174603175,78.0952380952381 2.9629629629629632,77.46031746031747 2.7513227513227516,76.82539682539684 2.53968253968254,76.19047619047619 2.53968253968254,75.55555555555556 2.3280423280423284,74.92063492063492 2.1164021164021167,74.28571428571429 2.1164021164021167,73.65079365079366 1.9047619047619049,73.01587301587303 1.6931216931216932,72.38095238095238 1.6931216931216932,71.74603174603175 1.4814814814814816,71.11111111111111 1.26984126984127,70.47619047619048 1.0582010582010584,69.84126984126985 0.8465608465608466,69.20634920634922 -0.21164021164021166,65.60846560846561" style="fill:none; stroke:#3300bb; stroke-width:1.0"  /><circle cx="-0.21164021164021166" cy="65.60846560846561" r="2.0" style="fill:none; stroke:#000000aa; stroke-width:0.25" /><circle cx="169.73544973544975" cy="25.185185185185187" r="2.0" style="fill:none; stroke:#000000aa; stroke-width:0.25" /><circle cx="190.26455026455028" cy="170.7936507936508" r="2.0" style="fill:none; stroke:#000000aa; stroke-width:0.25" /><circle cx="29.41798941798942" cy="187.51322751322752" r="2.0" style="fill:none; stroke:#000000aa; stroke-width:0.25" /><circle cx="0.21164021164021166" cy="66.03174603174604" r="2.0" style="fill:none; stroke:#ff3366aa; stroke-width:0.25" /><circle cx="169.94708994708995" cy="25.820105820105823" r="2.0" style="fill:none; stroke:#ff3366aa; stroke-width:0.25" /><circle cx="189.62962962962965" cy="170.37037037037038" r="2.0" style="fill:none; stroke:#ff3366aa; stroke-width:0.25" /><circle cx="29.629629629629633" cy="187.30158730158732" r="2.0" style="fill:none; stroke:#ff3366aa; stroke-width:0.25" /><polyline points="11.428571428571429,62.85714285714286 10.793650793650794,62.85714285714286 10.15873015873016,63.06878306878308 9.523809523809524,63.280423280423285 8.88888888888889,63.280423280423285 8.253968253968255,63.492063492063494 7.6190476190476195,63.70370370370371 6.984126984126985,63.91534391534392 6.34920634920635,64.12698412698413 5.714285714285714,64.12698412698413 5.07936507936508,64.33862433862434 4.444444444444445,64.55026455026456 3.8095238095238098,64.55026455026456 3.174603174603175,64.76190476190477" style="fill:none; stroke:#001100; stroke-width:1.0" /><polyline points="2.9629629629629632,77.46031746031747 2.7513227513227516,76.82539682539684 2.53968253968254,76.19047619047619 2.53968253968254,75.55555555555556 2.3280423280423284,74.92063492063492 2.1164021164021167,74.28571428571429 2.1164021164021167,73.65079365079366 1.9047619047619049,73.01587301587303 1.6931216931216932,72.38095238095238 1.6931216931216932,71.74603174603175 1.4814814814814816,71.11111111111111 1.26984126984127,70.47619047619048 1.0582010582010584,69.84126984126985 0.8465608465608466,69.20634920634922" style="fill:none; stroke:#000011; stroke-width:1.0" /><polyline points="172.9100529100529,37.248677248677254 172.6984126984127,36.613756613756614 172.6984126984127,35.97883597883598 172.4867724867725,35.34391534391535 172.27513227513228,34.70899470899471 172.27513227513228,34.074074074074076 172.06349206349208,33.43915343915344 171.85185185185188,32.804232804232804 171.64021164021165,32.16931216931217 171.42857142857144,31.53439153439154 171.21693121693124,30.899470899470902 171.005291005291,30.264550264550266 170.7936507936508,29.629629629629633 170.7936507936508,28.994708994708997" style="fill:none; stroke:#001100; stroke-width:1.0" /><polyline points="158.51851851851853,26.243386243386244 159.15343915343917,26.455026455026456 159.7883597883598,26.243386243386244 160.42328042328043,26.031746031746035 161.05820105820106,26.031746031746035 161.6931216931217,26.031746031746035 162.32804232804233,26.031746031746035 162.96296296296296,25.820105820105823 163.59788359788362,25.820105820105823 164.23280423280426,25.60846560846561 164.8677248677249,25.60846560846561 165.50264550264552,25.60846560846561 166.13756613756615,25.60846560846561 166.7724867724868,25.3968253968254" style="fill:none; stroke:#000011; stroke-width:1.0" /><polyline points="177.7777777777778,171.005291005291 178.41269841269843,170.7936507936508 179.04761904761907,170.7936507936508 179.6825396825397,170.7936507936508 180.31746031746033,170.7936507936508 180.95238095238096,170.7936507936508 181.5873015873016,170.7936507936508 182.22222222222223,170.7936507936508 182.85714285714286,170.7936507936508 183.4920634920635,170.7936507936508 184.12698412698415,170.7936507936508 184.7619047619048,170.58201058201058 185.39682539682542,170.7936507936508 186.03174603174605,170.7936507936508 186.66666666666669,170.7936507936508" style="fill:none; stroke:#001100; stroke-width:1.0" /><polyline points="188.99470899470901,158.73015873015873 189.20634920634922,159.36507936507937 189.20634920634922,160.0 189.20634920634922,160.63492063492066 189.20634920634922,161.2698412698413 189.20634920634922,161.90476190476193 189.41798941798945,162.53968253968256 189.41798941798945,163.1746031746032 189.62962962962965,163.80952380952382 189.62962962962965,164.44444444444446 189.62962962962965,165.0793650793651 189.62962962962965,165.71428571428572 189.84126984126985,166.34920634920636 189.84126984126985,166.984126984127" style="fill:none; stroke:#000011; stroke-width:1.0" /><polyline points="27.089947089947092,176.0846560846561 27.301587301587304,176.71957671957674 27.301587301587304,177.35449735449737 27.513227513227516,177.989417989418 27.513227513227516,178.62433862433863 27.724867724867728,179.25925925925927 27.93650793650794,179.8941798941799 28.14814814814815,180.52910052910053 28.14814814814815,181.16402116402116 28.35978835978836,181.79894179894183 28.35978835978836,182.43386243386246 28.571428571428573,183.0687830687831 28.571428571428573,183.70370370370372 28.783068783068785,184.33862433862436" style="fill:none; stroke:#001100; stroke-width:1.0" /><polyline points="40.63492063492064,182.85714285714286 40.0,183.2804232804233 39.36507936507937,183.4920634920635 38.730158730158735,183.70370370370372 38.095238095238095,183.91534391534393 37.46031746031746,184.12698412698415 36.82539682539683,184.33862433862436 36.19047619047619,184.55026455026456 35.55555555555556,184.7619047619048 34.920634920634924,185.1851851851852 34.28571428571429,185.39682539682542 33.65079365079365,185.60846560846562 33.01587301587302,186.03174603174605" style="fill:none; stroke:#000011; stroke-width:1.0" /><polyline points="3.174603174603175,64.76190476190477 -17.354497354497354,69.41798941798942" style="fill:none; stroke:#ffaa00; stroke-width:0.4" /><polyline points="0.8465608465608466,69.20634920634922 -4.444444444444445,48.677248677248684" style="fill:none; stroke:#aaff00; stroke-width:0.4" /><polyline points="170.7936507936508,28.994708994708997 165.50264550264552,8.465608465608467" style="fill:none; stroke:#ffaa00; stroke-width:0.4" /><polyline points="166.7724867724868,25.3968253968254 187.72486772486775,23.280423280423282" style="fill:none; stroke:#aaff00; stroke-width:0.4" /><polyline points="186.66666666666669,170.7936507936508 207.83068783068785,170.37037037037038" style="fill:none; stroke:#ffaa00; stroke-width:0.4" /><polyline points="189.84126984126985,166.984126984127 191.95767195767198,187.93650793650795" style="fill:none; stroke:#aaff00; stroke-width:0.4" /><polyline points="28.783068783068785,184.33862433862436 33.01587301587302,205.0793650793651" style="fill:none; stroke:#ffaa00; stroke-width:0.4" /><polyline points="33.01587301587302,186.03174603174605 13.544973544973546,194.07407407407408" style="fill:none; stroke:#aaff00; stroke-width:0.4" /><circle cx="99.25925925925927" cy="106.66666666666667" r="1.0" style="fill:#444444; stroke-width:0" /><circle cx="90.58201058201058" cy="86.34920634920636" r="10.582010582010582" style="fill:#ff770022; stroke-width:0" /><circle cx="90.58201058201058" cy="86.34920634920636" r="1.0" style="fill:#ff7700; stroke-width:0" /></svg>