<?xml version="1.0" encoding="UTF-8" standalone="no"?><svg width="579.6825396825398" height="515.5555555555555" viewBox="-10 -10 213.22751322751324 191.85185185185188" xmlns="http://www.w3.org/2000/svg" xmlns:xlink="http://www.w3.org/1999/xlink"><polyline points="-0.21164021164021166,71.95767195767196 2.1164021164021167,69.20634920634922 2.53968253968254,68.57142857142858 2.9629629629629632,68.14814814814815 3.3862433862433865,67.51322751322752 3.8095238095238098,66.87830687830689 4.2328042328042335,66.45502645502646 4.656084656084657,66.03174603174604 5.07936507936508,65.3968253968254 5.502645502645503,64.97354497354497 5.9259259259259265,64.55026455026456 6.34920634920635,64.12698412698413 6.772486772486773,63.70370370370371 7.195767195767196,63.280423280423285 7.6190476190476195,62.85714285714286 8.042328042328043,62.43386243386244 8.465608465608467,62.01058201058201 8.88888888888889,61.58730158730159 9.312169312169313,61.16402116402117 9.947089947089948,60.74074074074075 10.370370370370372,60.31746031746032 10.793650793650794,59.8941798941799 11.216931216931219,59.470899470899475 11.851851851851853,59.04761904761905 12.486772486772487,58.62433862433863 13.121693121693122,58.41269841269842 13.544973544973546,57.989417989417994 13.96825396825397,57.56613756613757 14.603174603174605,57.142857142857146 15.026455026455027,56.71957671957672 15.661375661375663,56.50793650793651 16.084656084656086,56.08465608465609 16.71957671957672,55.661375661375665 17.354497354497354,55.449735449735456 17.98941798941799,55.02645502645503 18.624338624338627,54.60317460317461 19.25925925925926,54.39153439153439 19.894179894179896,53.968253968253975 20.529100529100532,53.75661375661376 21.164021164021165,53.333333333333336 21.7989417989418,53.12169312169313 22.433862433862437,52.6984126984127 23.06878306878307,52.48677248677249 23.703703703703706,52.27513227513228 24.338624338624342,51.851851851851855 24.973544973544975,51.851851851851855 25.60846560846561,51.640211640211646 26.243386243386244,51.640211640211646 26.87830687830688,51.851851851851855 27.513227513227516,51.851851851851855 28.14814814814815,52.06349206349207 28.783068783068785,52.27513227513228 29.41798941798942,52.6984126984127 30.052910052910054,53.12169312169313 30.476190476190478,53.75661375661376 30.68783068783069,54.39153439153439 31.111111111111114,55.02645502645503 31.322751322751326,55.661375661375665 31.53439153439154,56.2962962962963 31.53439153439154,56.93121693121694 31.53439153439154,57.56613756613757 31.746031746031747,58.2010582010582 31.746031746031747,58.83597883597884 31.95767195767196,59.470899470899475 31.95767195767196,60.10582010582011 31.95767195767196,60.74074074074075 31.95767195767196,61.37566137566138 31.95767195767196,62.01058201058201 31.746031746031747,62.64550264550265 31.746031746031747,63.280423280423285 31.746031746031747,63.91534391534392 31.746031746031747,64.55026455026456 31.746031746031747,65.18518518518519 31.746031746031747,65.82010582010582 31.746031746031747,66.45502645502646 31.746031746031747,67.08994708994709 31.746031746031747,67.72486772486774 31.746031746031747,68.35978835978837 31.746031746031747,68.994708994709 31.95767195767196,69.62962962962963 31.95767195767196,70.26455026455027 32.16931216931217,70.8994708994709 32.38095238095239,71.53439153439155 32.592592592592595,72.16931216931218 32.804232804232804,72.80423280423281 33.22751322751323,73.43915343915344 33.43915343915344,74.07407407407408 33.86243386243387,74.70899470899471 34.28571428571429,75.34391534391536 34.70899470899471,75.76719576719577 35.13227513227513,76.4021164021164 35.55555555555556,76.82539682539684 36.19047619047619,77.24867724867725 36.613756613756614,77.67195767195767 37.248677248677254,78.0952380952381 37.883597883597886,78.30687830687832 38.51851851851852,78.73015873015873 39.15343915343916,78.94179894179895 39.78835978835979,79.15343915343917 40.423280423280424,79.15343915343917 41.058201058201064,79.36507936507937 41.6931216931217,79.57671957671958 42.32804232804233,79.57671957671958 42.96296296296297,79.57671957671958 43.5978835978836,79.57671957671958 44.232804232804234,79.57671957671958 44.867724867724874,79.57671957671958 45.50264550264551,79.57671957671958 46.13756613756614,79.57671957671958 46.77248677248678,79.57671957671958 47.40740740740741,79.36507936507937 48.042328042328045,79.15343915343917 48.677248677248684,79.15343915343917 49.31216931216932,78.94179894179895 49.94708994708995,78.73015873015873 50.58201058201058,78.73015873015873 51.21693121693122,78.51851851851852 51.851851851851855,78.30687830687832 52.48677248677249,78.0952380952381 53.12169312169313,77.88359788359789 53.75661375661376,77.67195767195767 54.39153439153439,77.24867724867725 55.02645502645503,77.03703703703704 55.661375661375665,76.82539682539684 56.2962962962963,76.61375661375662 56.93121693121694,76.19047619047619 57.56613756613757,75.97883597883599 58.2010582010582,75.55555555555556 58.83597883597884,75.13227513227514 59.470899470899475,74.70899470899471 60.10582010582011,74.28571428571429 60.74074074074075,73.86243386243387 61.37566137566138,73.43915343915344 62.01058201058201,73.01587301587303 62.43386243386244,72.5925925925926 63.06878306878308,72.16931216931218 63.492063492063494,71.74603174603175 63.91534391534392,71.32275132275133 64.33862433862434,70.8994708994709 64.76190476190477,70.47619047619048 65.18518518518519,70.05291005291006 65.60846560846561,69.62962962962963 66.03174603174604,69.20634920634922 66.45502645502646,68.78306878306879 66.87830687830689,68.35978835978837 67.3015873015873,67.72486772486774 67.72486772486774,67.08994708994709 67.93650793650794,66.45502645502646 68.14814814814815,65.82010582010582 68.35978835978837,65.18518518518519 68.57142857142858,64.55026455026456 68.57142857142858,63.91534391534392 68.57142857142858,63.280423280423285 68.35978835978837,62.64550264550265 68.35978835978837,62.01058201058201 68.14814814814815,61.37566137566138 67.93650793650794,60.74074074074075 67.72486772486774,60.10582010582011 67.51322751322752,59.470899470899475 67.3015873015873,58.83597883597884 66.87830687830689,58.2010582010582 66.45502645502646,57.777777777777786 66.24338624338625,57.142857142857146 65.82010582010582,56.71957671957672 65.60846560846561,56.08465608465609 65.18518518518519,55.661375661375665 64.76190476190477,55.02645502645503 64.33862433862434,54.39153439153439 63.91534391534392,53.968253968253975 63.492063492063494,53.54497354497355 63.06878306878308,53.12169312169313 62.64550264550265,52.48677248677249 62.22222222222223,52.06349206349207 61.58730158730159,51.640211640211646 61.16402116402117,51.21693121693122 60.74074074074075,50.7936507936508 60.31746031746032,50.370370370370374 59.8941798941799,49.94708994708995 59.470899470899475,49.523809523809526 59.04761904761905,49.1005291005291 58.41269841269842,48.677248677248684 57.777777777777786,48.25396825396826 57.35449735449736,47.830687830687836 56.93121693121694,47.40740740740741 56.50793650793651,46.98412698412699 56.08465608465609,46.560846560846564 55.661375661375665,46.13756613756614 55.23809523809524,45.714285714285715 54.81481481481482,45.07936507936508 54.39153439153439,44.65608465608466 53.968253968253975,44.232804232804234 53.75661375661376,43.5978835978836 53.333333333333336,43.17460317460318 53.12169312169313,42.539682539682545 52.91005291005291,41.904761904761905 52.6984126984127,41.26984126984127 52.6984126984127,40.63492063492064 52.6984126984127,40.0 52.91005291005291,39.36507936507937 52.91005291005291,38.730158730158735 53.333333333333336,38.095238095238095 53.75661375661376,37.46031746031746 54.179894179894184,37.03703703703704 54.60317460317461,36.613756613756614 55.02645502645503,36.19047619047619 55.661375661375665,35.76719576719577 56.2962962962963,35.55555555555556 56.93121693121694,35.34391534391535 57.56613756613757,34.920634920634924 58.2010582010582,34.920634920634924 58.83597883597884,34.4973544973545 59.470899470899475,34.28571428571429 60.10582010582011,34.28571428571429 60.74074074074075,34.074074074074076 61.37566137566138,34.074074074074076 62.01058201058201,33.86243386243387 62.64550264550265,33.86243386243387 63.280423280423285,33.86243386243387 63.91534391534392,33.86243386243387 64.55026455026456,33.65079365079365 65.18518518518519,33.65079365079365 65.82010582010582,33.65079365079365 66.45502645502646,33.43915343915344 67.08994708994709,33.43915343915344 67.72486772486774,33.43915343915344 68.35978835978837,33.01587301587302 68.994708994709,33.01587301587302 69.62962962962963,33.01587301587302 70.26455026455027,33.01587301587302 70.8994708994709,32.804232804232804 71.32275132275133,32.38095238095239 71.95767195767196,32.38095238095239 73.22751322751323,32.16931216931217 73.86243386243387,32.16931216931217 74.49735449735451,32.16931216931217 75.13227513227514,31.95767195767196 75.55555555555556,31.53439153439154 76.19047619047619,31.746031746031747 76.82539682539684,31.53439153439154 77.46031746031747,31.322751322751326 78.0952380952381,31.111111111111114 78.73015873015873,30.899470899470902 79.36507936507937,30.899470899470902 80.0,30.899470899470902 80.42328042328043,30.476190476190478 81.05820105820106,30.264550264550266 81.6931216931217,30.052910052910054 82.32804232804233,30.052910052910054 82.96296296296298,30.052910052910054 83.3862433862434,29.629629629629633 84.02116402116403,29.41798941798942 84.65608465608466,29.41798941798942 85.29100529100529,29.20634920634921 85.92592592592594,29.20634920634921 86.34920634920636,28.783068783068785 86.98412698412699,28.571428571428573 87.61904761904762,28.35978835978836 88.25396825396827,28.35978835978836 88.67724867724868,27.93650793650794 89.31216931216932,27.93650793650794 89.94708994708995,27.724867724867728 90.58201058201058,27.301587301587304 91.21693121693123,27.089947089947092 91.85185185185186,26.87830687830688 92.4867724867725,26.455026455026456 93.12169312169313,26.455026455026456 93.75661375661376,26.243386243386244 94.17989417989419,25.820105820105823 94.81481481481482,25.60846560846561 95.44973544973546,25.3968253968254 96.08465608465609,25.185185185185187 96.71957671957672,24.761904761904763 97.35449735449737,24.55026455026455 97.989417989418,24.338624338624342 98.62433862433863,23.915343915343918 99.25925925925927,23.703703703703706 99.8941798941799,23.492063492063494 100.52910052910053,23.06878306878307 101.16402116402116,22.645502645502646 101.79894179894181,22.433862433862437 102.43386243386244,22.010582010582013 103.06878306878308,21.7989417989418 103.4920634920635,21.375661375661377 104.12698412698414,21.164021164021165 104.76190476190477,20.952380952380953 105.18518518518519,20.529100529100532 105.82010582010582,20.105820105820108 106.45502645502647,20.105820105820108 106.87830687830689,19.682539682539684 107.51322751322752,19.47089947089947 108.14814814814815,19.047619047619047 108.78306878306879,18.624338624338627 109.41798941798943,18.201058201058203 110.05291005291006,17.77777777777778 110.6878306878307,17.566137566137566 111.11111111111111,17.142857142857146 111.74603174603176,16.71957671957672 112.3809523809524,16.296296296296298 113.01587301587303,15.873015873015873 113.65079365079366,15.449735449735451 114.07407407407408,15.026455026455027 114.70899470899472,14.814814814814817 115.13227513227514,14.391534391534393 115.55555555555557,13.96825396825397 116.1904761904762,13.544973544973546 116.82539682539684,13.121693121693122 117.24867724867725,12.6984126984127 117.67195767195768,12.275132275132275 118.30687830687832,11.851851851851853 118.73015873015873,11.428571428571429 119.15343915343917,11.005291005291006 119.7883597883598,10.582010582010582 120.21164021164022,10.15873015873016 120.63492063492065,9.735449735449736 121.05820105820106,9.312169312169313 121.4814814814815,8.88888888888889 121.90476190476191,8.465608465608467 122.53968253968254,8.042328042328043 122.96296296296298,7.6190476190476195 123.3862433862434,7.195767195767196 123.80952380952382,6.772486772486773 124.23280423280424,6.34920634920635 124.65608465608466,5.9259259259259265 125.07936507936509,5.291005291005291 125.5026455026455,4.867724867724868 125.92592592592594,4.444444444444445 126.34920634920636,4.021164021164021 126.77248677248679,3.597883597883598 127.1957671957672,2.9629629629629632 127.61904761904763,2.53968253968254 129.94708994708995,0.21164021164021166" style="fill:none; stroke:#cc0000; stroke-width:1.0"  /><polyline points="129.94708994708995,0.21164021164021166 132.06349206349208,2.53968253968254 132.4867724867725,2.9629629629629632 132.9100529100529,3.3862433862433865 133.12169312169314,4.021164021164021 133.54497354497354,4.444444444444445 133.96825396825398,4.867724867724868 134.3915343915344,5.291005291005291 134.81481481481484,5.714285714285714 135.23809523809524,6.137566137566138 135.66137566137567,6.560846560846561 136.0846560846561,7.195767195767196 136.5079365079365,7.6190476190476195 136.93121693121694,8.042328042328043 137.35449735449737,8.465608465608467 137.7777777777778,8.88888888888889 138.2010582010582,9.312169312169313 138.62433862433863,9.735449735449736 139.04761904761907,10.15873015873016 139.47089947089947,10.582010582010582 139.8941798941799,11.005291005291006 140.31746031746033,11.428571428571429 140.74074074074076,12.063492063492065 141.16402116402116,12.486772486772487 141.5873015873016,12.910052910052912 142.01058201058203,13.333333333333334 142.43386243386246,13.756613756613758 142.85714285714286,14.17989417989418 143.2804232804233,14.603174603174605 143.70370370370372,15.026455026455027 144.12698412698413,15.449735449735451 144.55026455026456,15.873015873015873 144.973544973545,16.296296296296298 145.39682539682542,16.71957671957672 145.82010582010582,17.142857142857146 146.24338624338625,17.566137566137566 146.66666666666669,17.98941798941799 147.0899470899471,18.412698412698415 147.51322751322752,18.83597883597884 148.14814814814815,19.25925925925926 148.57142857142858,19.682539682539684 148.99470899470901,20.105820105820108 149.41798941798942,20.529100529100532 150.05291005291005,20.952380952380953 150.47619047619048,21.375661375661377 151.11111111111111,21.7989417989418 151.53439153439155,22.222222222222225 151.95767195767198,22.645502645502646 152.5925925925926,22.857142857142858 153.01587301587304,23.280423280423282 153.43915343915344,23.703703703703706 154.07407407407408,24.12698412698413 154.4973544973545,24.55026455026455 154.92063492063494,24.973544973544975 155.34391534391534,25.3968253968254 155.76719576719577,25.820105820105823 156.4021164021164,26.243386243386244 156.82539682539684,26.87830687830688 157.24867724867727,27.301587301587304 157.67195767195767,27.724867724867728 158.0952380952381,28.35978835978836 158.51851851851853,28.994708994708997 158.73015873015873,29.629629629629633 159.15343915343917,30.052910052910054 159.5767195767196,30.68783068783069 160.0,31.322751322751326 160.21164021164023,31.95767195767196 160.63492063492066,32.592592592592595 160.84656084656086,33.22751322751323 161.2698412698413,33.86243386243387 161.4814814814815,34.4973544973545 161.6931216931217,35.13227513227513 161.6931216931217,35.76719576719577 161.90476190476193,36.402116402116405 161.90476190476193,37.03703703703704 161.90476190476193,37.67195767195768 161.6931216931217,38.30687830687831 161.4814814814815,38.94179894179894 161.05820105820106,39.57671957671958 160.63492063492066,40.0 160.21164021164023,40.423280423280424 159.5767195767196,40.84656084656085 158.94179894179896,41.26984126984127 158.30687830687833,41.48148148148149 157.67195767195767,41.6931216931217 157.03703703703704,41.6931216931217 156.4021164021164,41.904761904761905 155.76719576719577,42.11640211640212 155.13227513227514,42.11640211640212 154.4973544973545,42.32804232804233 153.86243386243387,42.32804232804233 153.22751322751324,42.539682539682545 152.5925925925926,42.539682539682545 151.95767195767198,42.75132275132275 151.32275132275134,42.75132275132275 150.6878306878307,42.96296296296297 150.05291005291005,42.96296296296297 149.41798941798942,43.17460317460318 148.78306878306879,43.17460317460318 148.14814814814815,43.386243386243386 147.51322751322752,43.5978835978836 146.8783068783069,43.80952380952381 146.24338624338625,44.021164021164026 145.60846560846562,44.44444444444445 144.973544973545,44.65608465608466 144.33862433862436,44.867724867724874 143.70370370370372,45.29100529100529 143.0687830687831,45.50264550264551 142.43386243386246,45.92592592592593 141.7989417989418,46.349206349206355 141.16402116402116,46.77248677248678 140.74074074074076,47.195767195767196 140.10582010582013,47.61904761904762 139.6825396825397,48.042328042328045 139.25925925925927,48.46560846560847 138.83597883597884,48.88888888888889 138.41269841269843,49.31216931216932 137.989417989418,49.73544973544974 137.56613756613757,50.158730158730165 137.35449735449737,50.7936507936508 136.93121693121694,51.42857142857143 136.71957671957674,52.06349206349207 136.5079365079365,52.6984126984127 136.5079365079365,53.333333333333336 136.2962962962963,53.968253968253975 136.2962962962963,54.60317460317461 136.5079365079365,55.23809523809524 136.5079365079365,55.87301587301588 136.71957671957674,56.50793650793651 136.93121693121694,57.142857142857146 137.14285714285717,57.777777777777786 137.56613756613757,58.41269841269842 137.7777777777778,59.04761904761905 137.989417989418,59.682539682539684 138.2010582010582,60.31746031746032 138.62433862433863,60.952380952380956 138.83597883597884,61.58730158730159 139.04761904761907,62.22222222222223 139.47089947089947,62.85714285714286 139.6825396825397,63.492063492063494 140.10582010582013,64.12698412698413 140.52910052910053,64.76190476190477 140.95238095238096,65.3968253968254 141.16402116402116,66.03174603174604 141.5873015873016,66.45502645502646 141.7989417989418,67.08994708994709 142.22222222222223,67.51322751322752 142.64550264550266,68.14814814814815 143.0687830687831,68.78306878306879 143.4920634920635,69.41798941798942 143.91534391534393,69.84126984126985 144.33862433862436,70.47619047619048 144.76190476190476,70.8994708994709 145.1851851851852,71.53439153439155 145.60846560846562,71.95767195767196 146.03174603174605,72.38095238095238 146.45502645502646,72.80423280423281 146.8783068783069,73.22751322751323 147.30158730158732,73.65079365079366 147.72486772486775,74.07407407407408 148.35978835978838,74.49735449735451 148.78306878306879,74.92063492063492 149.41798941798942,75.34391534391536 149.84126984126985,75.76719576719577 150.26455026455028,76.19047619047619 150.8994708994709,76.61375661375662 151.53439153439155,77.03703703703704 152.16931216931218,77.46031746031747 152.8042328042328,77.88359788359789 153.43915343915344,78.0952380952381 154.07407407407408,78.51851851851852 154.7089947089947,78.73015873015873 155.13227513227514,79.15343915343917 155.76719576719577,79.57671957671958 156.4021164021164,79.57671957671958 157.03703703703704,79.57671957671958 157.46031746031747,80.0 158.0952380952381,80.0 158.73015873015873,80.0 159.36507936507937,80.0 160.0,80.0 160.63492063492066,79.7883597883598 161.2698412698413,79.7883597883598 161.90476190476193,79.57671957671958 162.53968253968256,79.36507936507937 163.1746031746032,79.36507936507937 163.80952380952382,78.94179894179895 164.44444444444446,78.51851851851852 165.0793650793651,78.30687830687832 165.71428571428572,77.88359788359789 166.34920634920636,77.67195767195767 166.7724867724868,77.24867724867725 167.19576719576722,76.82539682539684 167.83068783068785,76.4021164021164 168.25396825396825,75.97883597883599 168.67724867724868,75.55555555555556 169.10052910052912,75.13227513227514 169.52380952380955,74.70899470899471 169.94708994708995,74.07407407407408 170.15873015873018,73.43915343915344 170.37037037037038,72.80423280423281 170.7936507936508,72.16931216931218 171.005291005291,71.53439153439155 171.42857142857144,70.8994708994709 171.64021164021165,70.26455026455027 172.06349206349208,69.62962962962963 172.27513227513228,68.994708994709 172.6984126984127,68.57142857142858 173.12169312169314,68.14814814814815 173.54497354497354,67.51322751322752 173.96825396825398,67.08994708994709 174.3915343915344,66.66666666666667 174.81481481481484,66.24338624338625 175.44973544973547,65.82010582010582 176.0846560846561,65.3968253968254 176.71957671957674,65.18518518518519 177.35449735449737,64.97354497354497 177.989417989418,64.97354497354497 178.62433862433863,64.97354497354497 179.25925925925927,64.97354497354497 179.8941798941799,64.97354497354497 180.52910052910053,65.18518518518519 180.95238095238096,65.60846560846561 181.5873015873016,65.82010582010582 182.01058201058203,66.24338624338625 182.43386243386246,66.66666666666667 182.85714285714286,67.08994708994709 183.2804232804233,67.72486772486774 183.70370370370372,68.35978835978837 184.12698412698415,68.994708994709 184.33862433862436,69.62962962962963 184.7619047619048,70.26455026455027 184.973544973545,70.8994708994709 185.1851851851852,71.53439153439155 185.60846560846562,71.95767195767196 185.82010582010582,72.5925925925926 186.03174603174605,73.22751322751323 186.24338624338625,73.86243386243387 186.66666666666669,74.49735449735451 186.8783068783069,75.13227513227514 187.08994708994712,75.76719576719577 187.51322751322752,76.19047619047619 187.51322751322752,76.82539682539684 187.93650793650795,77.46031746031747 188.14814814814815,78.0952380952381 188.57142857142858,78.73015873015873 188.78306878306879,79.36507936507937 188.99470899470901,80.0 189.20634920634922,80.63492063492065 189.41798941798945,81.26984126984128 189.84126984126985,81.90476190476191 190.05291005291008,82.53968253968254 190.26455026455028,83.17460317460318 190.6878306878307,83.80952380952381 190.8994708994709,84.44444444444446 191.11111111111111,85.07936507936509 191.32275132275134,85.71428571428572 191.53439153439155,86.34920634920636 192.8042328042328,89.73544973544975" style="fill:none; stroke:#999900; stroke-width:1.0"  /><polyline points="192.8042328042328,89.73544973544975 190.05291005291008,91.64021164021165 189.41798941798945,92.06349206349208 188.78306878306879,92.4867724867725 188.35978835978838,92.91005291005291 187.72486772486775,93.33333333333334 187.08994708994712,93.54497354497356 186.66666666666669,93.96825396825398 186.03174603174605,94.39153439153439 185.39682539682542,94.81481481481482 184.7619047619048,95.23809523809524 184.12698412698415,95.66137566137567 183.4920634920635,96.08465608465609 182.85714285714286,96.2962962962963 182.43386243386246,96.71957671957672 181.79894179894183,97.14285714285715 181.16402116402116,97.56613756613757 180.52910052910053,97.989417989418 179.8941798941799,98.2010582010582 179.4708994708995,98.62433862433863 178.83597883597884,99.04761904761905 178.2010582010582,99.47089947089948 177.56613756613757,99.8941798941799 176.93121693121694,100.10582010582011 176.50793650793653,100.52910052910053 175.87301587301587,100.95238095238096 175.23809523809524,101.16402116402116 174.81481481481484,101.5873015873016 174.1798941798942,102.01058201058201 173.54497354497354,102.22222222222223 173.12169312169314,102.64550264550266 172.4867724867725,103.06878306878308 171.85185185185188,103.28042328042329 171.42857142857144,103.70370370370371 170.7936507936508,103.91534391534393 170.37037037037038,104.33862433862434 169.73544973544975,104.55026455026456 169.31216931216932,104.97354497354497 168.67724867724868,105.3968253968254 168.04232804232805,105.82010582010582 167.40740740740742,106.03174603174604 166.984126984127,106.45502645502647 166.34920634920636,106.87830687830689 165.71428571428572,107.0899470899471 165.0793650793651,107.51322751322752 164.44444444444446,107.93650793650795 163.80952380952382,108.35978835978837 163.3862433862434,108.78306878306879 162.75132275132276,109.20634920634922 162.11640211640213,109.20634920634922 161.6931216931217,109.62962962962963 161.05820105820106,109.84126984126985 160.63492063492066,110.26455026455027 160.0,110.6878306878307 159.36507936507937,110.89947089947091 158.73015873015873,111.32275132275133 158.0952380952381,111.74603174603176 157.46031746031747,112.16931216931218 156.82539682539684,112.5925925925926 156.1904761904762,112.80423280423281 155.55555555555557,113.22751322751324 154.92063492063494,113.65079365079366 154.2857142857143,114.07407407407408 153.65079365079367,114.28571428571429 153.01587301587304,114.70899470899472 152.38095238095238,115.13227513227514 151.74603174603175,115.34391534391536 151.32275132275134,115.76719576719577 150.6878306878307,115.97883597883599 150.26455026455028,116.4021164021164 149.62962962962965,116.61375661375662 148.99470899470901,117.03703703703705 148.35978835978838,117.24867724867725 147.72486772486775,117.67195767195768 147.0899470899471,117.88359788359789 146.45502645502646,118.0952380952381 145.82010582010582,118.30687830687832 145.1851851851852,118.51851851851853 144.55026455026456,118.51851851851853 143.91534391534393,118.51851851851853 143.2804232804233,118.73015873015873 142.64550264550266,118.51851851851853 142.01058201058203,118.51851851851853 141.3756613756614,118.30687830687832 140.74074074074076,118.0952380952381 140.10582010582013,117.67195767195768 139.47089947089947,117.24867724867725 139.04761904761907,116.82539682539684 138.62433862433863,116.1904761904762 138.2010582010582,115.76719576719577 137.989417989418,115.13227513227514 137.7777777777778,114.49735449735451 137.56613756613757,113.86243386243387 137.35449735449737,113.22751322751324 137.14285714285717,112.5925925925926 136.93121693121694,111.95767195767196 136.71957671957674,111.32275132275133 136.71957671957674,110.6878306878307 136.5079365079365,110.05291005291006 136.5079365079365,109.41798941798943 136.2962962962963,108.78306878306879 136.0846560846561,108.14814814814815 136.0846560846561,107.51322751322752 135.87301587301587,106.87830687830689 135.66137566137567,106.24338624338625 135.44973544973547,105.60846560846562 135.44973544973547,104.97354497354497 135.23809523809524,104.33862433862434 135.02645502645504,103.70370370370371 134.81481481481484,103.06878306878308 134.6031746031746,102.43386243386244 134.3915343915344,101.79894179894181 134.17989417989418,101.16402116402116 133.75661375661377,100.52910052910053 133.54497354497354,99.8941798941799 133.12169312169314,99.25925925925927 132.6984126984127,98.62433862433863 132.4867724867725,97.989417989418 132.06349206349208,97.56613756613757 131.64021164021165,97.14285714285715 131.21693121693121,96.50793650793652 130.7936507936508,96.08465608465609 130.37037037037038,95.66137566137567 129.94708994708995,95.23809523809524 129.31216931216932,94.81481481481482 128.67724867724868,94.60317460317461 128.04232804232805,94.17989417989419 127.40740740740742,93.96825396825398 126.77248677248679,93.75661375661376 126.13756613756615,93.54497354497356 125.5026455026455,93.33333333333334 124.86772486772487,93.12169312169313 124.23280423280424,92.91005291005291 123.59788359788361,92.91005291005291 122.96296296296298,92.69841269841271 122.32804232804234,92.69841269841271 121.6931216931217,92.69841269841271 121.05820105820106,92.69841269841271 120.42328042328043,92.69841269841271 119.7883597883598,92.69841269841271 119.15343915343917,92.69841269841271 118.51851851851853,92.69841269841271 117.88359788359789,92.69841269841271 117.24867724867725,92.69841269841271 116.61375661375662,92.69841269841271 115.97883597883599,92.69841269841271 115.34391534391536,92.91005291005291 114.70899470899472,93.12169312169313 114.07407407407408,93.33333333333334 113.43915343915344,93.33333333333334 112.80423280423281,93.54497354497356 112.16931216931218,93.75661375661376 111.53439153439155,93.96825396825398 110.89947089947091,94.17989417989419 110.26455026455027,94.60317460317461 109.62962962962963,94.81481481481482 108.994708994709,95.02645502645504 108.35978835978837,95.44973544973546 107.72486772486774,95.87301587301587 107.0899470899471,96.08465608465609 106.45502645502647,96.50793650793652 105.82010582010582,96.93121693121694 105.18518518518519,97.35449735449737 104.55026455026456,97.77777777777779 103.91534391534393,98.2010582010582 103.4920634920635,98.62433862433863 103.06878306878308,99.04761904761905 102.43386243386244,99.47089947089948 102.01058201058201,99.8941798941799 101.5873015873016,100.31746031746033 101.16402116402116,100.74074074074075 100.74074074074075,101.16402116402116 100.31746031746033,101.5873015873016 99.8941798941799,102.01058201058201 99.47089947089948,102.64550264550266 99.04761904761905,103.06878306878308 98.62433862433863,103.70370370370371 98.2010582010582,104.33862433862434 97.989417989418,104.97354497354497 97.56613756613757,105.60846560846562 97.35449735449737,106.24338624338625 97.14285714285715,106.87830687830689 96.71957671957672,107.51322751322752 96.50793650793652,108.14814814814815 96.50793650793652,108.78306878306879 96.2962962962963,109.41798941798943 96.08465608465609,110.05291005291006 95.87301587301587,110.6878306878307 95.87301587301587,111.32275132275133 95.87301587301587,111.95767195767196 95.66137566137567,112.5925925925926 95.66137566137567,113.22751322751324 95.44973544973546,113.86243386243387 95.44973544973546,114.49735449735451 95.44973544973546,115.13227513227514 95.44973544973546,115.76719576719577 95.66137566137567,116.4021164021164 95.66137566137567,117.03703703703705 95.87301587301587,117.67195767195768 95.87301587301587,118.30687830687832 96.08465608465609,118.94179894179895 96.2962962962963,119.57671957671958 96.71957671957672,120.21164021164022 96.93121693121694,120.84656084656086 97.35449735449737,121.4814814814815 97.77777777777779,122.11640211640213 98.2010582010582,122.75132275132276 98.62433862433863,123.17460317460318 99.04761904761905,123.59788359788361 99.47089947089948,124.02116402116403 99.8941798941799,124.44444444444446 100.52910052910053,124.86772486772487 101.16402116402116,125.2910052910053 101.79894179894181,125.71428571428572 102.43386243386244,126.13756613756615 102.85714285714286,126.56084656084657 103.4920634920635,126.77248677248679 104.12698412698414,127.1957671957672 104.76190476190477,127.61904761904763 105.3968253968254,127.83068783068784 106.03174603174604,128.25396825396825 106.66666666666667,128.46560846560848 107.3015873015873,128.67724867724868 107.72486772486774,129.10052910052912 108.35978835978837,129.31216931216932 108.994708994709,129.73544973544975 109.62962962962963,130.15873015873018 110.26455026455027,130.58201058201058 110.89947089947091,130.7936507936508 111.53439153439155,131.21693121693121 112.16931216931218,131.64021164021165 112.80423280423281,132.06349206349208 113.43915343915344,132.27513227513228 113.86243386243387,132.6984126984127 114.49735449735451,133.12169312169314 115.13227513227514,133.54497354497354 115.76719576719577,133.96825396825398 116.1904761904762,134.3915343915344 116.61375661375662,134.81481481481484 117.03703703703705,135.23809523809524 117.46031746031747,135.66137566137567 117.88359788359789,136.2962962962963 118.0952380952381,136.93121693121694 118.30687830687832,137.56613756613757 118.51851851851853,138.2010582010582 118.73015873015873,138.83597883597884 118.73015873015873,139.47089947089947 118.73015873015873,140.10582010582013 118.51851851851853,140.74074074074076 118.30687830687832,141.3756613756614 117.88359788359789,142.01058201058203 117.46031746031747,142.64550264550266 117.03703703703705,143.0687830687831 116.61375661375662,143.4920634920635 116.1904761904762,143.91534391534393 115.55555555555557,144.33862433862436 114.92063492063492,144.55026455026456 114.28571428571429,144.973544973545 113.65079365079366,145.39682539682542 113.01587301587303,145.60846560846562 112.5925925925926,146.03174603174605 111.95767195767196,146.24338624338625 111.32275132275133,146.45502645502646 110.6878306878307,146.66666666666669 110.05291005291006,147.0899470899471 109.41798941798943,147.30158730158732 108.78306878306879,147.72486772486775 108.14814814814815,147.93650793650795 107.51322751322752,148.35978835978838 106.87830687830689,148.57142857142858 106.24338624338625,148.99470899470901 105.60846560846562,149.20634920634922 105.18518518518519,149.62962962962965 104.55026455026456,149.84126984126985 103.91534391534393,150.05291005291005 103.28042328042329,150.47619047619048 102.64550264550266,150.6878306878307 102.01058201058201,151.11111111111111 101.37566137566138,151.32275132275134 100.74074074074075,151.74603174603175 100.10582010582011,152.16931216931218 99.47089947089948,152.38095238095238 98.83597883597885,152.8042328042328 98.2010582010582,153.01587301587304 97.56613756613757,153.43915343915344 96.93121693121694,153.65079365079367 96.2962962962963,154.07407407407408 95.66137566137567,154.2857142857143 95.02645502645504,154.7089947089947 94.39153439153439,154.92063492063494 93.96825396825398,155.34391534391534 93.33333333333334,155.55555555555557 92.69841269841271,155.978835978836 92.06349206349208,156.1904761904762 91.42857142857143,156.61375661375664 90.7936507936508,156.82539682539684 90.15873015873017,157.24867724867727 89.52380952380953,157.46031746031747 88.8888888888889,157.67195767195767 88.25396825396827,158.0952380952381 87.61904761904762,158.30687830687833 86.98412698412699,158.73015873015873 86.34920634920636,158.94179894179896 85.71428571428572,159.36507936507937 85.07936507936509,159.5767195767196 84.44444444444446,160.0 83.80952380952381,160.21164021164023 83.17460317460318,160.63492063492066 82.53968253968254,160.84656084656086 81.90476190476191,161.05820105820106 81.26984126984128,161.4814814814815 80.63492063492065,161.6931216931217 80.0,162.11640211640213 79.36507936507937,162.32804232804233 78.73015873015873,162.53968253968256 78.30687830687832,162.96296296296296 77.67195767195767,163.1746031746032 77.03703703703704,163.3862433862434 76.4021164021164,163.80952380952382 75.76719576719577,164.02116402116403 75.13227513227514,164.23280423280426 74.49735449735451,164.44444444444446 73.86243386243387,164.65608465608466 73.22751322751323,164.8677248677249 72.5925925925926,165.0793650793651 71.95767195767196,165.2910052910053 71.32275132275133,165.50264550264552 70.6878306878307,165.71428571428572 70.05291005291006,165.92592592592595 69.41798941798942,166.13756613756615 68.78306878306879,166.34920634920636 68.14814814814815,166.56084656084658 67.51322751322752,166.7724867724868 66.87830687830689,167.19576719576722 66.24338624338625,167.40740740740742 65.60846560846561,167.61904761904762 64.97354497354497,167.83068783068785 64.33862433862434,168.04232804232805 63.70370370370371,168.46560846560848 63.06878306878308,168.67724867724868 62.43386243386244,168.8888888888889 61.798941798941804,169.31216931216932 61.16402116402117,169.52380952380955 60.52910052910053,169.94708994708995 57.35449735449736,171.42857142857144" style="fill:none; stroke:#00aa99; stroke-width:1.0"  /><polyline points="57.35449735449736,171.42857142857144 56.71957671957672,168.46560846560848 56.50793650793651,167.83068783068785 56.2962962962963,167.19576719576722 56.08465608465609,166.56084656084658 55.87301587301588,165.92592592592595 55.87301587301588,165.2910052910053 55.661375661375665,164.65608465608466 55.661375661375665,164.02116402116403 55.449735449735456,163.3862433862434 55.23809523809524,162.75132275132276 55.23809523809524,162.11640211640213 55.02645502645503,161.4814814814815 55.02645502645503,160.84656084656086 55.02645502645503,160.21164021164023 55.23809523809524,159.5767195767196 55.449735449735456,158.94179894179896 55.661375661375665,158.30687830687833 56.08465608465609,157.67195767195767 56.2962962962963,157.03703703703704 56.71957671957672,156.61375661375664 57.142857142857146,156.1904761904762 57.56613756613757,155.76719576719577 58.2010582010582,155.34391534391534 58.83597883597884,154.92063492063494 59.25925925925927,154.4973544973545 59.682539682539684,154.07407407407408 60.31746031746032,153.86243386243387 60.952380952380956,153.43915343915344 61.58730158730159,153.22751322751324 62.22222222222223,153.01587301587304 62.85714285714286,152.8042328042328 63.492063492063494,152.5925925925926 64.12698412698413,152.38095238095238 64.76190476190477,152.16931216931218 65.3968253968254,151.95767195767198 66.03174603174604,151.74603174603175 66.66666666666667,151.53439153439155 67.3015873015873,151.32275132275134 67.93650793650794,151.11111111111111 68.57142857142858,150.8994708994709 69.20634920634922,150.6878306878307 69.84126984126985,150.47619047619048 70.47619047619048,150.26455026455028 71.11111111111111,150.05291005291005 71.74603174603175,149.62962962962965 72.38095238095238,149.20634920634922 73.01587301587303,148.99470899470901 73.43915343915344,148.57142857142858 74.07407407407408,148.14814814814815 74.49735449735451,147.72486772486775 74.92063492063492,147.30158730158732 75.34391534391536,146.66666666666669 75.55555555555556,146.03174603174605 75.76719576719577,145.39682539682542 75.97883597883599,144.76190476190476 75.97883597883599,144.12698412698413 75.97883597883599,143.4920634920635 75.97883597883599,142.85714285714286 75.97883597883599,142.22222222222223 75.76719576719577,141.5873015873016 75.55555555555556,140.95238095238096 75.13227513227514,140.31746031746033 74.92063492063492,139.6825396825397 74.49735449735451,139.04761904761907 74.28571428571429,138.41269841269843 73.86243386243387,137.989417989418 73.43915343915344,137.35449735449737 73.01587301587303,136.71957671957674 72.5925925925926,136.0846560846561 72.16931216931218,135.44973544973547 71.74603174603175,135.02645502645504 71.32275132275133,134.3915343915344 70.8994708994709,133.75661375661377 70.47619047619048,133.12169312169314 70.05291005291006,132.4867724867725 69.62962962962963,131.85185185185185 69.20634920634922,131.42857142857144 68.78306878306879,130.7936507936508 68.35978835978837,130.37037037037038 68.14814814814815,129.73544973544975 67.72486772486774,129.31216931216932 67.3015873015873,128.88888888888889 66.87830687830689,128.25396825396825 66.45502645502646,127.83068783068784 66.03174603174604,127.40740740740742 65.60846560846561,126.77248677248679 65.18518518518519,126.13756613756615 64.76190476190477,125.5026455026455 64.33862433862434,124.86772486772487 63.91534391534392,124.44444444444446 63.492063492063494,123.80952380952382 63.06878306878308,123.17460317460318 62.64550264550265,122.75132275132276 62.22222222222223,122.11640211640213 61.58730158730159,121.6931216931217 61.16402116402117,121.05820105820106 60.52910052910053,120.84656084656086 59.8941798941799,120.42328042328043 59.25925925925927,120.21164021164022 58.62433862433863,120.21164021164022 57.989417989417994,120.21164021164022 57.35449735449736,120.21164021164022 56.71957671957672,120.21164021164022 56.08465608465609,120.42328042328043 55.449735449735456,120.42328042328043 54.81481481481482,120.63492063492065 54.179894179894184,120.84656084656086 53.54497354497355,121.26984126984128 52.91005291005291,121.4814814814815 52.27513227513228,121.90476190476191 51.640211640211646,122.32804232804234 51.00529100529101,122.75132275132276 50.370370370370374,123.17460317460318 49.73544973544974,123.59788359788361 49.31216931216932,124.02116402116403 48.677248677248684,124.44444444444446 48.042328042328045,124.65608465608466 47.61904761904762,125.07936507936509 46.98412698412699,125.5026455026455 46.349206349206355,125.92592592592594 45.92592592592593,126.34920634920636 45.29100529100529,126.56084656084657 44.65608465608466,126.98412698412699 44.021164021164026,127.1957671957672 43.386243386243386,127.40740740740742 42.75132275132275,127.40740740740742 42.11640211640212,127.61904761904763 41.48148148148149,127.61904761904763 40.84656084656085,127.61904761904763 40.211640211640216,127.61904761904763 39.57671957671958,127.61904761904763 38.94179894179894,127.40740740740742 38.30687830687831,127.1957671957672 37.67195767195768,126.98412698412699 37.03703703703704,126.56084656084657 36.402116402116405,126.13756613756615 35.97883597883598,125.71428571428572 35.55555555555556,125.2910052910053 35.13227513227513,124.86772486772487 34.70899470899471,124.44444444444446 34.28571428571429,124.02116402116403 33.86243386243387,123.3862433862434 33.43915343915344,122.75132275132276 33.01587301587302,122.11640211640213 32.592592592592595,121.6931216931217 32.16931216931217,121.05820105820106 31.746031746031747,120.42328042328043 31.322751322751326,120.00000000000001 30.899470899470902,119.36507936507937 30.476190476190478,118.94179894179895 30.052910052910054,118.51851851851853 29.629629629629633,117.88359788359789 29.41798941798942,117.24867724867725 28.994708994708997,116.82539682539684 28.571428571428573,116.1904761904762 28.14814814814815,115.55555555555557 27.724867724867728,114.92063492063492 27.301587301587304,114.28571428571429 26.87830687830688,113.65079365079366 26.455026455026456,113.01587301587303 26.031746031746035,112.5925925925926 25.60846560846561,111.95767195767196 25.185185185185187,111.32275132275133 24.761904761904763,110.6878306878307 24.338624338624342,110.05291005291006 23.915343915343918,109.62962962962963 23.492063492063494,108.994708994709 23.06878306878307,108.35978835978837 22.645502645502646,107.93650793650795 22.222222222222225,107.3015873015873 21.7989417989418,106.66666666666667 21.375661375661377,106.03174603174604 20.952380952380953,105.3968253968254 20.529100529100532,104.76190476190477 20.105820105820108,104.12698412698414 19.682539682539684,103.4920634920635 19.47089947089947,102.85714285714286 19.047619047619047,102.22222222222223 18.624338624338627,101.5873015873016 18.201058201058203,100.95238095238096 17.77777777777778,100.31746031746033 17.354497354497354,99.68253968253968 16.931216931216934,99.04761904761905 16.71957671957672,98.41269841269842 16.296296296296298,97.989417989418 15.873015873015873,97.35449735449737 15.449735449735451,96.71957671957672 15.026455026455027,96.08465608465609 14.603174603174605,95.44973544973546 14.17989417989418,94.81481481481482 13.756613756613758,94.17989417989419 13.544973544973546,93.54497354497356 13.121693121693122,93.12169312169313 12.6984126984127,92.69841269841271 12.275132275132275,92.06349206349208 11.851851851851853,91.42857142857143 11.428571428571429,90.7936507936508 11.005291005291006,90.15873015873017 10.582010582010582,89.52380952380953 10.370370370370372,88.8888888888889 9.947089947089948,88.46560846560847 9.523809523809524,87.83068783068784 9.312169312169313,87.1957671957672 8.88888888888889,86.77248677248677 8.465608465608467,86.13756613756614 8.042328042328043,85.5026455026455 7.830687830687832,84.86772486772487 7.407407407407408,84.44444444444446 6.984126984126985,83.80952380952381 6.560846560846561,83.17460317460318 6.34920634920635,82.53968253968254 5.9259259259259265,82.11640211640213 5.714285714285714,81.48148148148148 5.291005291005291,81.05820105820106 4.867724867724868,80.42328042328043 4.656084656084657,79.7883597883598 4.2328042328042335,79.36507936507937 3.8095238095238098,78.73015873015873 3.597883597883598,78.0952380952381 3.174603174603175,77.67195767195767 2.9629629629629632,77.03703703703704 2.53968253968254,76.61375661375662 2.1164021164021167,75.97883597883599 1.9047619047619049,75.34391534391536 -0.21164021164021166,71.95767195767196" style="fill:none; stroke:#3300bb; stroke-width:1.0"  /><circle cx="-0.21164021164021166" cy="71.95767195767196" r="2.0" style="fill:none; stroke:#000000aa; stroke-width:0.25" /><circle cx="129.94708994708995" cy="0.21164021164021166" r="2.0" style="fill:none; stroke:#000000aa; stroke-width:0.25" /><circle cx="192.8042328042328" cy="89.73544973544975" r="2.0" style="fill:none; stroke:#000000aa; stroke-width:0.25" /><circle cx="57.35449735449736" cy="171.42857142857144" r="2.0" style="fill:none; stroke:#000000aa; stroke-width:0.25" /><circle cx="0.21164021164021166" cy="72.38095238095238" r="2.0" style="fill:none; stroke:#ff3366aa; stroke-width:0.25" /><circle cx="129.94708994708995" cy="0.21164021164021166" r="2.0" style="fill:none; stroke:#ff3366aa; stroke-width:0.25" /><circle cx="192.8042328042328" cy="89.31216931216932" r="2.0" style="fill:none; stroke:#ff3366aa; stroke-width:0.25" /><circle cx="57.56613756613757" cy="171.42857142857144" r="2.0" style="fill:none; stroke:#ff3366aa; stroke-width:0.25" /><polyline points="7.195767195767196,63.280423280423285 6.772486772486773,63.70370370370371 6.34920634920635,64.12698412698413 5.9259259259259265,64.55026455026456 5.502645502645503,64.97354497354497 5.07936507936508,65.3968253968254 4.656084656084657,66.03174603174604 4.2328042328042335,66.45502645502646 3.8095238095238098,66.87830687830689 3.3862433862433865,67.51322751322752 2.9629629629629632,68.14814814814815 2.53968253968254,68.57142857142858 2.1164021164021167,69.20634920634922" style="fill:none; stroke:#001100; stroke-width:1.0" /><polyline points="6.34920634920635,82.53968253968254 5.9259259259259265,82.11640211640213 5.714285714285714,81.48148148148148 5.291005291005291,81.05820105820106 4.867724867724868,80.42328042328043 4.656084656084657,79.7883597883598 4.2328042328042335,79.36507936507937 3.8095238095238098,78.73015873015873 3.597883597883598,78.0952380952381 3.174603174603175,77.67195767195767 2.9629629629629632,77.03703703703704 2.53968253968254,76.61375661375662 2.1164021164021167,75.97883597883599 1.9047619047619049,75.34391534391536" style="fill:none; stroke:#000011; stroke-width:1.0" /><polyline points="137.7777777777778,8.88888888888889 137.35449735449737,8.465608465608467 136.93121693121694,8.042328042328043 136.5079365079365,7.6190476190476195 136.0846560846561,7.195767195767196 135.66137566137567,6.560846560846561 135.23809523809524,6.137566137566138 134.81481481481484,5.714285714285714 134.3915343915344,5.291005291005291 133.96825396825398,4.867724867724868 133.54497354497354,4.444444444444445 133.12169312169314,4.021164021164021 132.9100529100529,3.3862433862433865 132.4867724867725,2.9629629629629632 132.06349206349208,2.53968253968254" style="fill:none; stroke:#001100; stroke-width:1.0" /><polyline points="121.90476190476191,8.465608465608467 122.53968253968254,8.042328042328043 122.96296296296298,7.6190476190476195 123.3862433862434,7.195767195767196 123.80952380952382,6.772486772486773 124.23280423280424,6.34920634920635 124.65608465608466,5.9259259259259265 125.07936507936509,5.291005291005291 125.5026455026455,4.867724867724868 125.92592592592594,4.444444444444445 126.34920634920636,4.021164021164021 126.77248677248679,3.597883597883598 127.1957671957672,2.9629629629629632 127.61904761904763,2.53968253968254" style="fill:none; stroke:#000011; stroke-width:1.0" /><polyline points="183.4920634920635,96.08465608465609 184.12698412698415,95.66137566137567 184.7619047619048,95.23809523809524 185.39682539682542,94.81481481481482 186.03174603174605,94.39153439153439 186.66666666666669,93.96825396825398 187.08994708994712,93.54497354497356 187.72486772486775,93.33333333333334 188.35978835978838,92.91005291005291 188.78306878306879,92.4867724867725 189.41798941798945,92.06349206349208 190.05291005291008,91.64021164021165" style="fill:none; stroke:#001100; stroke-width:1.0" /><polyline points="188.57142857142858,78.73015873015873 188.78306878306879,79.36507936507937 188.99470899470901,80.0 189.20634920634922,80.63492063492065 189.41798941798945,81.26984126984128 189.84126984126985,81.90476190476191 190.05291005291008,82.53968253968254 190.26455026455028,83.17460317460318 190.6878306878307,83.80952380952381 190.8994708994709,84.44444444444446 191.11111111111111,85.07936507936509 191.32275132275134,85.71428571428572 191.53439153439155,86.34920634920636" style="fill:none; stroke:#000011; stroke-width:1.0" /><polyline points="55.02645502645503,160.21164021164023 55.02645502645503,160.84656084656086 55.02645502645503,161.4814814814815 55.23809523809524,162.11640211640213 55.23809523809524,162.75132275132276 55.449735449735456,163.3862433862434 55.661375661375665,164.02116402116403 55.661375661375665,164.65608465608466 55.87301587301588,165.2910052910053 55.87301587301588,165.92592592592595 56.08465608465609,166.56084656084658 56.2962962962963,167.19576719576722 56.50793650793651,167.83068783068785 56.71957671957672,168.46560846560848" style="fill:none; stroke:#001100; stroke-width:1.0" /><polyline points="68.14814814814815,166.56084656084658 67.51322751322752,166.7724867724868 66.87830687830689,167.19576719576722 66.24338624338625,167.40740740740742 65.60846560846561,167.61904761904762 64.97354497354497,167.83068783068785 64.33862433862434,168.04232804232805 63.70370370370371,168.46560846560848 63.06878306878308,168.67724867724868 62.43386243386244,168.8888888888889 61.798941798941804,169.31216931216932 61.16402116402117,169.52380952380955 60.52910052910053,169.94708994708995" style="fill:none; stroke:#000011; stroke-width:1.0" /><polyline points="2.1164021164021167,69.20634920634922 -11.640211640211641,85.29100529100529" style="fill:none; stroke:#ffaa00; stroke-width:0.4" /><polyline points="1.9047619047619049,75.34391534391536 -9.312169312169313,57.35449735449736" style="fill:none; stroke:#aaff00; stroke-width:0.4" /><polyline points="132.06349206349208,2.53968253968254 117.88359788359789,-13.121693121693122" style="fill:none; stroke:#ffaa00; stroke-width:0.4" /><polyline points="127.61904761904763,2.53968253968254 142.22222222222223,-12.6984126984127" style="fill:none; stroke:#aaff00; stroke-width:0.4" /><polyline points="190.05291005291008,91.64021164021165 207.61904761904765,79.7883597883598" style="fill:none; stroke:#ffaa00; stroke-width:0.4" /><polyline points="191.53439153439155,86.34920634920636 199.15343915343917,106.03174603174604" style="fill:none; stroke:#aaff00; stroke-width:0.4" /><polyline points="56.71957671957672,168.46560846560848 60.952380952380956,189.20634920634922" style="fill:none; stroke:#ffaa00; stroke-width:0.4" /><polyline points="60.52910052910053,169.94708994708995 41.26984126984127,178.62433862433863" style="fill:none; stroke:#aaff00; stroke-width:0.4" /><circle cx="95.23809523809524" cy="81.48148148148148" r="1.0" style="fill:#444444; stroke-width:0" /><circle cx="102.85714285714286" cy="60.31746031746032" r="10.582010582010582" style="fill:#ff770022; stroke-width:0" /><circle cx="102.85714285714286" cy="60.31746031746032" r="1.0" style="fill:#ff7700; stroke-width:0" /></svg>