<?xml version="1.0" encoding="UTF-8" standalone="no"?><svg width="582.2222222222223" height="556.8253968253969" viewBox="-10 -10 214.07407407407408 205.60846560846562" xmlns="http://www.w3.org/2000/svg" xmlns:xlink="http://www.w3.org/1999/xlink"><polyline points="30.476190476190478,6.560846560846561 33.43915343915344,6.984126984126985 34.074074074074076,7.195767195767196 34.70899470899471,7.6190476190476195 35.34391534391535,7.6190476190476195 35.97883597883598,8.042328042328043 36.613756613756614,8.042328042328043 37.248677248677254,8.253968253968255 37.883597883597886,8.253968253968255 38.51851851851852,8.465608465608467 39.15343915343916,8.465608465608467 39.78835978835979,8.465608465608467 40.423280423280424,8.677248677248677 41.058201058201064,8.677248677248677 41.6931216931217,8.253968253968255 42.32804232804233,8.253968253968255 42.96296296296297,8.253968253968255 43.5978835978836,8.253968253968255 44.232804232804234,8.042328042328043 44.867724867724874,8.042328042328043 45.50264550264551,7.830687830687832 46.13756613756614,7.830687830687832 46.77248677248678,7.6190476190476195 47.40740740740741,7.6190476190476195 48.042328042328045,7.407407407407408 48.677248677248684,7.407407407407408 49.31216931216932,7.195767195767196 49.94708994708995,6.984126984126985 50.58201058201058,6.984126984126985 51.21693121693122,6.772486772486773 51.851851851851855,6.772486772486773 52.48677248677249,6.560846560846561 53.12169312169313,6.34920634920635 53.75661375661376,6.137566137566138 54.39153439153439,6.137566137566138 55.02645502645503,5.9259259259259265 55.661375661375665,5.9259259259259265 56.2962962962963,5.714285714285714 56.93121693121694,5.714285714285714 57.56613756613757,5.502645502645503 58.2010582010582,5.291005291005291 58.83597883597884,5.291005291005291 59.470899470899475,4.867724867724868 60.10582010582011,4.867724867724868 60.74074074074075,4.867724867724868 61.37566137566138,4.656084656084657 62.01058201058201,4.444444444444445 62.64550264550265,4.444444444444445 63.280423280423285,4.2328042328042335 63.91534391534392,4.2328042328042335 64.55026455026456,4.021164021164021 65.18518518518519,4.021164021164021 65.82010582010582,3.8095238095238098 66.45502645502646,3.8095238095238098 67.08994708994709,3.597883597883598 67.72486772486774,3.3862433862433865 68.35978835978837,3.3862433862433865 68.994708994709,3.174603174603175 69.62962962962963,2.9629629629629632 70.26455026455027,2.9629629629629632 70.8994708994709,2.7513227513227516 71.53439153439155,2.7513227513227516 72.16931216931218,2.53968253968254 72.80423280423281,2.3280423280423284 73.43915343915344,2.3280423280423284 74.07407407407408,2.3280423280423284 74.70899470899471,2.1164021164021167 75.34391534391536,1.9047619047619049 75.97883597883599,1.9047619047619049 76.61375661375662,1.4814814814814816 77.24867724867725,1.4814814814814816 77.88359788359789,1.26984126984127 78.51851851851852,1.0582010582010584 79.15343915343917,1.0582010582010584 79.7883597883598,1.0582010582010584 80.42328042328043,0.8465608465608466 81.05820105820106,0.634920634920635 81.6931216931217,0.634920634920635 82.32804232804233,0.4232804232804233 82.96296296296298,0.4232804232804233 83.59788359788361,0.21164021164021166 84.23280423280424,0.4232804232804233 84.86772486772487,0.4232804232804233 85.5026455026455,0.634920634920635 86.13756613756614,0.634920634920635 86.77248677248677,0.8465608465608466 87.40740740740742,0.8465608465608466 88.04232804232805,1.26984126984127 88.67724867724868,1.4814814814814816 89.31216931216932,1.9047619047619049 89.73544973544975,2.3280423280423284 90.15873015873017,2.7513227513227516 90.58201058201058,3.174603174603175 90.7936507936508,3.8095238095238098 91.00529100529101,4.444444444444445 91.21693121693123,5.07936507936508 91.21693121693123,5.714285714285714 91.21693121693123,6.34920634920635 91.00529100529101,6.984126984126985 90.7936507936508,7.6190476190476195 90.58201058201058,8.253968253968255 90.37037037037038,8.88888888888889 90.15873015873017,9.523809523809524 89.73544973544975,9.947089947089948 89.73544973544975,10.582010582010582 89.31216931216932,11.005291005291006 88.8888888888889,11.640211640211641 88.67724867724868,12.275132275132275 88.25396825396827,12.6984126984127 87.83068783068784,13.333333333333334 87.40740740740742,13.96825396825397 86.98412698412699,14.391534391534393 86.56084656084657,15.026455026455027 86.13756613756614,15.661375661375663 85.71428571428572,16.296296296296298 85.29100529100529,16.931216931216934 84.86772486772487,17.354497354497354 84.65608465608466,17.98941798941799 84.23280423280424,18.412698412698415 83.80952380952381,19.047619047619047 83.59788359788361,19.682539682539684 83.17460317460318,20.105820105820108 82.96296296296298,20.740740740740744 82.53968253968254,21.375661375661377 82.32804232804233,22.010582010582013 82.11640211640213,22.645502645502646 81.90476190476191,23.280423280423282 81.48148148148148,23.915343915343918 81.26984126984128,24.55026455026455 81.26984126984128,25.185185185185187 81.05820105820106,25.820105820105823 80.84656084656085,26.455026455026456 80.84656084656085,27.089947089947092 80.63492063492065,27.724867724867728 80.63492063492065,28.35978835978836 80.63492063492065,28.994708994708997 80.63492063492065,29.629629629629633 80.84656084656085,30.264550264550266 80.84656084656085,30.899470899470902 81.05820105820106,31.53439153439154 81.26984126984128,32.16931216931217 81.6931216931217,32.592592592592595 81.90476190476191,33.22751322751323 82.32804232804233,33.86243386243387 82.75132275132276,34.28571428571429 82.96296296296298,34.920634920634924 83.3862433862434,35.34391534391535 83.80952380952381,35.76719576719577 84.23280423280424,36.19047619047619 84.65608465608466,36.613756613756614 85.07936507936509,37.03703703703704 85.71428571428572,37.46031746031746 86.34920634920636,37.883597883597886 86.77248677248677,38.30687830687831 87.40740740740742,38.51851851851852 88.04232804232805,38.94179894179894 88.67724867724868,39.36507936507937 89.31216931216932,39.78835978835979 89.94708994708995,40.0 90.58201058201058,40.211640211640216 91.00529100529101,40.63492063492064 91.64021164021165,40.84656084656085 92.27513227513228,41.058201058201064 92.91005291005291,41.26984126984127 93.54497354497356,41.48148148148149 94.17989417989419,41.6931216931217 94.81481481481482,41.904761904761905 95.44973544973546,42.11640211640212 96.08465608465609,42.11640211640212 96.71957671957672,42.11640211640212 97.35449735449737,42.32804232804233 97.989417989418,42.539682539682545 98.62433862433863,42.539682539682545 99.25925925925927,42.539682539682545 99.8941798941799,42.96296296296297 100.52910052910053,42.96296296296297 101.16402116402116,42.96296296296297 101.79894179894181,42.96296296296297 102.43386243386244,42.96296296296297 103.06878306878308,43.17460317460318 103.70370370370371,43.17460317460318 104.33862433862434,43.17460317460318 104.97354497354497,43.17460317460318 105.60846560846562,43.386243386243386 106.24338624338625,43.386243386243386 106.87830687830689,43.386243386243386 107.51322751322752,43.386243386243386 108.14814814814815,43.386243386243386 108.78306878306879,43.386243386243386 109.41798941798943,43.386243386243386 110.05291005291006,43.386243386243386 110.6878306878307,43.386243386243386 111.32275132275133,43.386243386243386 111.95767195767196,43.17460317460318 112.5925925925926,43.17460317460318 113.22751322751324,43.17460317460318 113.86243386243387,42.96296296296297 114.49735449735451,42.539682539682545 115.13227513227514,42.32804232804233 115.76719576719577,41.904761904761905 116.1904761904762,41.48148148148149 116.61375661375662,41.058201058201064 117.03703703703705,40.63492063492064 117.46031746031747,40.211640211640216 117.88359788359789,39.57671957671958 118.0952380952381,38.94179894179894 118.51851851851853,38.51851851851852 118.73015873015873,37.883597883597886 118.94179894179895,37.248677248677254 119.15343915343917,36.613756613756614 119.57671957671958,35.97883597883598 119.57671957671958,35.34391534391535 119.7883597883598,34.70899470899471 120.00000000000001,34.074074074074076 120.21164021164022,33.43915343915344 120.21164021164022,32.804232804232804 120.42328042328043,32.16931216931217 120.42328042328043,31.53439153439154 120.42328042328043,30.899470899470902 120.42328042328043,30.264550264550266 120.42328042328043,29.629629629629633 120.42328042328043,28.994708994708997 120.42328042328043,28.35978835978836 120.21164021164022,27.724867724867728 120.21164021164022,27.089947089947092 120.21164021164022,26.455026455026456 120.00000000000001,25.820105820105823 120.00000000000001,25.185185185185187 120.00000000000001,24.55026455026455 119.7883597883598,23.915343915343918 119.7883597883598,23.280423280423282 119.7883597883598,22.645502645502646 119.57671957671958,22.010582010582013 119.57671957671958,21.375661375661377 119.57671957671958,20.740740740740744 119.36507936507937,20.105820105820108 119.36507936507937,19.47089947089947 119.36507936507937,18.83597883597884 119.36507936507937,18.201058201058203 119.36507936507937,17.566137566137566 119.36507936507937,16.931216931216934 119.36507936507937,16.296296296296298 119.36507936507937,15.661375661375663 119.36507936507937,15.026455026455027 119.36507936507937,14.391534391534393 119.57671957671958,13.756613756613758 119.57671957671958,13.121693121693122 119.7883597883598,12.486772486772487 120.00000000000001,11.851851851851853 120.21164021164022,11.216931216931219 120.42328042328043,10.582010582010582 120.42328042328043,9.947089947089948 120.84656084656086,9.523809523809524 121.26984126984128,8.88888888888889 121.90476190476191,8.465608465608467 122.53968253968254,7.830687830687832 123.17460317460318,7.830687830687832 123.59788359788361,7.407407407407408 124.23280423280424,7.195767195767196 124.86772486772487,7.195767195767196 125.2910052910053,7.6190476190476195 125.92592592592594,7.830687830687832 126.56084656084657,7.830687830687832 127.1957671957672,8.042328042328043 127.83068783068784,8.253968253968255 128.46560846560848,8.465608465608467 129.10052910052912,8.677248677248677 129.73544973544975,8.88888888888889 130.37037037037038,9.100529100529101 131.005291005291,9.523809523809524 131.64021164021165,9.735449735449736 132.27513227513228,9.947089947089948 132.9100529100529,10.15873015873016 133.54497354497354,10.582010582010582 134.17989417989418,10.793650793650794 134.81481481481484,11.005291005291006 135.44973544973547,11.428571428571429 136.0846560846561,11.640211640211641 136.71957671957674,11.851851851851853 137.35449735449737,12.063492063492065 137.989417989418,12.275132275132275 138.41269841269843,12.6984126984127 139.04761904761907,12.910052910052912 139.6825396825397,13.121693121693122 140.31746031746033,13.544973544973546 140.95238095238096,13.756613756613758 141.5873015873016,13.96825396825397 142.22222222222223,14.17989417989418 142.64550264550266,14.603174603174605 143.2804232804233,14.814814814814817 143.91534391534393,15.026455026455027 144.55026455026456,15.238095238095239 145.1851851851852,15.449735449735451 145.82010582010582,15.661375661375663 146.45502645502646,15.873015873015873 147.0899470899471,16.084656084656086 147.72486772486775,16.296296296296298 148.35978835978838,16.50793650793651 148.99470899470901,16.71957671957672 149.62962962962965,16.931216931216934 150.26455026455028,17.142857142857146 150.8994708994709,17.354497354497354 151.53439153439155,17.566137566137566 152.16931216931218,17.77777777777778 152.8042328042328,17.98941798941799 153.43915343915344,18.201058201058203 154.07407407407408,18.412698412698415 154.7089947089947,18.83597883597884 155.34391534391534,19.047619047619047 155.978835978836,19.25925925925926 156.61375661375664,19.47089947089947 157.24867724867727,19.47089947089947 157.8835978835979,19.682539682539684 158.51851851851853,19.894179894179896 159.15343915343917,20.31746031746032 159.7883597883598,20.31746031746032 160.42328042328043,20.529100529100532 161.05820105820106,20.740740740740744 161.6931216931217,20.952380952380953 162.32804232804233,21.164021164021165 162.96296296296296,21.375661375661377 163.59788359788362,21.58730158730159 164.23280423280426,21.7989417989418 164.8677248677249,21.7989417989418 165.50264550264552,22.010582010582013 166.13756613756615,22.222222222222225 166.7724867724868,22.433862433862437 167.40740740740742,22.433862433862437 168.04232804232805,22.645502645502646 168.67724867724868,22.857142857142858 169.31216931216932,22.857142857142858 169.94708994708995,23.280423280423282 170.58201058201058,23.280423280423282 171.21693121693124,23.492063492063494 171.85185185185188,23.703703703703706 172.4867724867725,23.703703703703706 173.12169312169314,23.915343915343918 173.75661375661377,24.12698412698413 174.3915343915344,24.12698412698413 175.02645502645504,24.338624338624342 175.66137566137567,24.55026455026455 176.2962962962963,24.55026455026455 176.93121693121694,24.55026455026455 177.56613756613757,24.761904761904763 178.2010582010582,24.973544973544975 178.83597883597884,25.185185185185187 179.4708994708995,25.185185185185187 180.10582010582013,25.3968253968254 180.74074074074076,25.3968253968254 181.3756613756614,25.60846560846561 182.01058201058203,25.3968253968254 182.64550264550266,25.60846560846561 183.2804232804233,25.60846560846561 183.91534391534393,25.820105820105823 184.55026455026456,25.820105820105823 185.1851851851852,25.820105820105823 185.82010582010582,25.820105820105823 186.45502645502646,26.031746031746035 187.08994708994712,26.031746031746035 187.72486772486775,26.031746031746035 188.35978835978838,26.031746031746035 188.99470899470901,26.243386243386244 189.62962962962965,26.455026455026456 190.26455026455028,26.455026455026456 194.2857142857143,27.089947089947092" style="fill:none; stroke:#cc0000; stroke-width:1.0"  /><polyline points="194.2857142857143,27.089947089947092 192.8042328042328,30.68783068783069 192.5925925925926,31.322751322751326 192.3809523809524,31.95767195767196 192.16931216931218,32.592592592592595 191.95767195767198,33.22751322751323 191.53439153439155,33.86243386243387 191.32275132275134,34.4973544973545 191.11111111111111,35.13227513227513 190.6878306878307,35.76719576719577 190.47619047619048,36.402116402116405 190.26455026455028,37.03703703703704 190.05291005291008,37.67195767195768 189.62962962962965,38.30687830687831 189.41798941798945,38.94179894179894 189.20634920634922,39.57671957671958 188.78306878306879,40.211640211640216 188.57142857142858,40.84656084656085 188.35978835978838,41.48148148148149 188.14814814814815,42.11640211640212 187.72486772486775,42.75132275132275 187.51322751322752,43.386243386243386 187.08994708994712,43.80952380952381 186.8783068783069,44.44444444444445 186.66666666666669,45.07936507936508 186.45502645502646,45.714285714285715 186.03174603174605,46.13756613756614 185.82010582010582,46.77248677248678 185.39682539682542,47.40740740740741 185.1851851851852,48.042328042328045 184.7619047619048,48.46560846560847 184.33862433862436,49.1005291005291 184.12698412698415,49.73544973544974 183.70370370370372,50.158730158730165 183.2804232804233,50.7936507936508 182.85714285714286,51.42857142857143 182.64550264550266,52.06349206349207 182.22222222222223,52.48677248677249 181.79894179894183,53.12169312169313 181.3756613756614,53.75661375661376 181.16402116402116,54.39153439153439 180.74074074074076,54.81481481481482 180.31746031746033,55.449735449735456 179.8941798941799,56.08465608465609 179.4708994708995,56.50793650793651 179.04761904761907,56.93121693121694 178.62433862433863,57.35449735449736 178.2010582010582,57.989417989417994 177.7777777777778,58.41269841269842 177.35449735449737,58.83597883597884 176.93121693121694,59.470899470899475 176.50793650793653,59.8941798941799 176.0846560846561,60.31746031746032 175.66137566137567,60.74074074074075 175.23809523809524,61.16402116402117 174.81481481481484,61.58730158730159 174.3915343915344,62.01058201058201 173.96825396825398,62.43386243386244 173.54497354497354,63.06878306878308 173.12169312169314,63.492063492063494 172.6984126984127,63.91534391534392 172.27513227513228,64.33862433862434 171.85185185185188,64.76190476190477 171.42857142857144,65.18518518518519 171.005291005291,65.82010582010582 170.58201058201058,66.24338624338625 170.15873015873018,66.66666666666667 169.73544973544975,67.08994708994709 169.31216931216932,67.51322751322752 168.8888888888889,67.93650793650794 168.46560846560848,68.35978835978837 168.04232804232805,68.994708994709 167.61904761904762,69.41798941798942 167.19576719576722,69.84126984126985 166.7724867724868,70.26455026455027 166.34920634920636,70.8994708994709 165.92592592592595,71.32275132275133 165.50264550264552,71.74603174603175 165.0793650793651,72.16931216931218 164.65608465608466,72.80423280423281 164.23280423280426,73.22751322751323 163.80952380952382,73.86243386243387 163.3862433862434,74.28571428571429 162.96296296296296,74.92063492063492 162.53968253968256,75.34391534391536 162.11640211640213,75.76719576719577 161.6931216931217,76.4021164021164 161.2698412698413,76.82539682539684 160.84656084656086,77.24867724867725 160.42328042328043,77.88359788359789 160.0,78.51851851851852 159.5767195767196,78.94179894179895 159.15343915343917,79.36507936507937 158.94179894179896,80.0 158.51851851851853,80.42328042328043 158.0952380952381,81.05820105820106 157.67195767195767,81.48148148148148 157.24867724867727,82.11640211640213 156.82539682539684,82.75132275132276 156.4021164021164,83.17460317460318 155.978835978836,83.80952380952381 155.55555555555557,84.44444444444446 155.13227513227514,85.07936507936509 154.7089947089947,85.71428571428572 154.2857142857143,86.34920634920636 154.07407407407408,86.98412698412699 153.65079365079367,87.61904761904762 153.43915343915344,88.25396825396827 153.22751322751324,88.8888888888889 153.01587301587304,89.52380952380953 152.8042328042328,90.15873015873017 152.5925925925926,90.7936507936508 152.5925925925926,91.42857142857143 152.38095238095238,92.06349206349208 152.16931216931218,92.69841269841271 151.95767195767198,93.33333333333334 151.74603174603175,93.96825396825398 151.74603174603175,94.60317460317461 151.53439153439155,95.23809523809524 151.53439153439155,95.87301587301587 151.53439153439155,96.50793650793652 151.53439153439155,97.14285714285715 151.32275132275134,97.77777777777779 151.32275132275134,98.41269841269842 151.32275132275134,99.04761904761905 151.32275132275134,99.68253968253968 151.32275132275134,100.31746031746033 151.32275132275134,100.95238095238096 151.53439153439155,101.5873015873016 151.74603174603175,102.22222222222223 151.74603174603175,102.85714285714286 152.16931216931218,103.4920634920635 152.5925925925926,104.12698412698414 153.01587301587304,104.76190476190477 153.43915343915344,105.18518518518519 153.86243386243387,105.60846560846562 154.4973544973545,106.03174603174604 155.13227513227514,106.24338624338625 155.76719576719577,106.45502645502647 156.4021164021164,106.66666666666667 157.03703703703704,106.66666666666667 157.67195767195767,106.87830687830689 158.30687830687833,106.87830687830689 158.94179894179896,106.87830687830689 159.5767195767196,106.66666666666667 160.21164021164023,106.66666666666667 160.84656084656086,106.45502645502647 161.4814814814815,106.45502645502647 162.11640211640213,106.24338624338625 162.75132275132276,106.24338624338625 163.1746031746032,105.82010582010582 163.80952380952382,105.60846560846562 164.44444444444446,105.3968253968254 164.8677248677249,104.97354497354497 165.50264550264552,104.76190476190477 166.13756613756615,104.55026455026456 166.7724867724868,104.12698412698414 167.40740740740742,103.91534391534393 168.04232804232805,103.70370370370371 168.67724867724868,103.28042328042329 169.31216931216932,103.06878306878308 169.94708994708995,102.85714285714286 170.58201058201058,102.64550264550266 171.21693121693124,102.22222222222223 171.85185185185188,102.22222222222223 172.27513227513228,101.79894179894181 172.9100529100529,101.37566137566138 173.54497354497354,101.16402116402116 174.1798941798942,101.16402116402116 174.81481481481484,100.74074074074075 175.44973544973547,100.95238095238096 176.0846560846561,100.95238095238096 176.71957671957674,100.74074074074075 177.35449735449737,100.74074074074075 177.989417989418,100.95238095238096 178.62433862433863,100.95238095238096 179.25925925925927,101.16402116402116 179.8941798941799,101.37566137566138 180.31746031746033,101.79894179894181 180.95238095238096,102.22222222222223 181.3756613756614,102.64550264550266 181.79894179894183,103.06878306878308 182.22222222222223,103.4920634920635 182.43386243386246,104.12698412698414 182.85714285714286,104.55026455026456 183.0687830687831,105.18518518518519 183.4920634920635,105.82010582010582 183.70370370370372,106.45502645502647 183.91534391534393,107.0899470899471 184.33862433862436,107.72486772486774 184.55026455026456,108.35978835978837 184.7619047619048,108.994708994709 184.973544973545,109.62962962962963 185.1851851851852,110.26455026455027 185.39682539682542,110.89947089947091 185.60846560846562,111.53439153439155 185.82010582010582,112.16931216931218 186.03174603174605,112.80423280423281 186.24338624338625,113.43915343915344 186.45502645502646,114.07407407407408 186.66666666666669,114.70899470899472 186.8783068783069,115.34391534391536 187.08994708994712,115.97883597883599 187.08994708994712,116.61375661375662 187.30158730158732,117.24867724867725 187.30158730158732,117.88359788359789 187.51322751322752,118.51851851851853 187.51322751322752,119.15343915343917 187.51322751322752,119.7883597883598 187.72486772486775,120.42328042328043 187.72486772486775,121.05820105820106 187.72486772486775,121.6931216931217 187.93650793650795,122.32804232804234 187.93650793650795,122.96296296296298 187.93650793650795,123.59788359788361 187.93650793650795,124.23280423280424 187.93650793650795,124.86772486772487 188.14814814814815,125.5026455026455 188.14814814814815,126.13756613756615 187.93650793650795,126.77248677248679 187.93650793650795,127.40740740740742 187.93650793650795,128.04232804232805 187.93650793650795,128.67724867724868 187.93650793650795,129.31216931216932 187.93650793650795,129.94708994708995 187.93650793650795,130.58201058201058 187.72486772486775,131.21693121693121 187.72486772486775,131.85185185185185 187.51322751322752,132.4867724867725 187.51322751322752,133.12169312169314 187.08994708994712,133.75661375661377 186.8783068783069,134.3915343915344 186.45502645502646,135.02645502645504 186.03174603174605,135.66137566137567 185.60846560846562,136.0846560846561 185.1851851851852,136.5079365079365 184.55026455026456,136.71957671957674 183.91534391534393,137.14285714285717 183.2804232804233,137.35449735449737 182.64550264550266,137.35449735449737 182.01058201058203,137.35449735449737 181.5873015873016,137.7777777777778 180.95238095238096,137.7777777777778 180.31746031746033,137.7777777777778 179.6825396825397,137.7777777777778 179.04761904761907,137.56613756613757 178.41269841269843,137.56613756613757 177.7777777777778,137.56613756613757 177.14285714285717,137.35449735449737 176.50793650793653,137.14285714285717 175.87301587301587,137.14285714285717 175.23809523809524,136.93121693121694 174.6031746031746,136.93121693121694 173.96825396825398,136.71957671957674 173.33333333333334,136.5079365079365 172.6984126984127,136.5079365079365 172.06349206349208,136.2962962962963 171.42857142857144,136.0846560846561 170.7936507936508,136.0846560846561 170.15873015873018,135.66137566137567 169.52380952380955,135.44973544973547 168.8888888888889,135.23809523809524 168.25396825396825,135.02645502645504 167.61904761904762,134.81481481481484 166.984126984127,134.6031746031746 166.34920634920636,134.6031746031746 165.71428571428572,134.3915343915344 165.0793650793651,134.3915343915344 164.44444444444446,134.3915343915344 163.80952380952382,134.3915343915344 163.1746031746032,134.6031746031746 162.53968253968256,134.81481481481484 161.90476190476193,134.81481481481484 161.2698412698413,135.23809523809524 160.63492063492066,135.44973544973547 160.0,135.87301587301587 159.36507936507937,136.0846560846561 158.94179894179896,136.5079365079365 158.30687830687833,136.93121693121694 157.8835978835979,137.35449735449737 157.46031746031747,137.7777777777778 157.03703703703704,138.2010582010582 156.61375661375664,138.62433862433863 156.1904761904762,139.25925925925927 155.76719576719577,139.8941798941799 155.55555555555557,140.52910052910053 155.13227513227514,141.16402116402116 154.92063492063494,141.7989417989418 154.7089947089947,142.43386243386246 154.7089947089947,143.0687830687831 154.4973544973545,143.70370370370372 154.2857142857143,144.33862433862436 154.2857142857143,144.973544973545 154.2857142857143,145.60846560846562 154.07407407407408,146.24338624338625 154.07407407407408,146.8783068783069 154.07407407407408,147.51322751322752 154.07407407407408,148.14814814814815 154.07407407407408,148.78306878306879 153.86243386243387,149.41798941798942 154.07407407407408,150.05291005291005 154.07407407407408,150.6878306878307 154.07407407407408,151.32275132275134 154.07407407407408,151.95767195767198 154.07407407407408,152.5925925925926 154.07407407407408,153.22751322751324 154.07407407407408,153.86243386243387 153.86243386243387,154.4973544973545 154.07407407407408,155.13227513227514 153.86243386243387,155.76719576719577 153.86243386243387,156.4021164021164 153.86243386243387,157.03703703703704 153.86243386243387,157.67195767195767 153.86243386243387,158.30687830687833 153.86243386243387,158.94179894179896 153.86243386243387,159.5767195767196 153.86243386243387,160.21164021164023 153.86243386243387,160.84656084656086 153.86243386243387,161.4814814814815 153.86243386243387,162.11640211640213 153.86243386243387,162.75132275132276 153.65079365079367,163.3862433862434 153.65079365079367,164.02116402116403 153.86243386243387,164.65608465608466 153.86243386243387,165.2910052910053 153.86243386243387,165.92592592592595 153.86243386243387,166.56084656084658 153.86243386243387,167.19576719576722 153.86243386243387,167.83068783068785 153.86243386243387,168.46560846560848 153.86243386243387,169.10052910052912 153.86243386243387,169.73544973544975 153.86243386243387,170.37037037037038 153.86243386243387,171.005291005291 153.86243386243387,171.64021164021165 153.86243386243387,172.27513227513228 153.86243386243387,172.9100529100529 153.86243386243387,173.54497354497354 153.86243386243387,174.1798941798942 154.07407407407408,174.81481481481484 154.07407407407408,175.44973544973547 154.07407407407408,176.0846560846561 154.2857142857143,176.71957671957674 154.07407407407408,177.35449735449737 154.2857142857143,177.989417989418 154.2857142857143,178.62433862433863 154.4973544973545,179.25925925925927 154.4973544973545,179.8941798941799 154.7089947089947,180.52910052910053 154.7089947089947,181.16402116402116 155.13227513227514,184.7619047619048" style="fill:none; stroke:#999900; stroke-width:1.0"  /><polyline points="155.13227513227514,184.7619047619048 151.74603174603175,184.7619047619048 151.11111111111111,184.7619047619048 150.47619047619048,184.7619047619048 149.84126984126985,184.973544973545 149.20634920634922,184.973544973545 148.57142857142858,184.973544973545 147.93650793650795,184.973544973545 147.30158730158732,184.973544973545 146.66666666666669,185.1851851851852 146.03174603174605,185.1851851851852 145.39682539682542,185.1851851851852 144.76190476190476,185.1851851851852 144.12698412698413,185.1851851851852 143.4920634920635,184.973544973545 142.85714285714286,184.973544973545 142.22222222222223,184.973544973545 141.5873015873016,184.973544973545 140.95238095238096,184.973544973545 140.31746031746033,184.7619047619048 139.6825396825397,184.7619047619048 139.04761904761907,184.7619047619048 138.41269841269843,184.7619047619048 137.7777777777778,184.55026455026456 137.14285714285717,184.55026455026456 136.5079365079365,184.33862433862436 135.87301587301587,184.33862433862436 135.23809523809524,184.33862433862436 134.6031746031746,184.12698412698415 133.96825396825398,184.12698412698415 133.33333333333334,183.91534391534393 132.6984126984127,183.91534391534393 132.06349206349208,183.70370370370372 131.42857142857144,183.70370370370372 130.7936507936508,183.4920634920635 130.15873015873018,183.2804232804233 129.52380952380955,183.2804232804233 128.88888888888889,183.0687830687831 128.25396825396825,183.0687830687831 127.61904761904763,182.85714285714286 126.98412698412699,182.64550264550266 126.34920634920636,182.64550264550266 125.71428571428572,182.43386243386246 125.07936507936509,182.22222222222223 124.44444444444446,182.22222222222223 123.80952380952382,182.01058201058203 123.17460317460318,181.79894179894183 122.53968253968254,181.79894179894183 121.90476190476191,181.5873015873016 121.26984126984128,181.3756613756614 120.63492063492065,181.3756613756614 120.00000000000001,180.95238095238096 119.36507936507937,180.95238095238096 118.73015873015873,180.74074074074076 118.0952380952381,180.52910052910053 117.46031746031747,180.52910052910053 116.82539682539684,180.31746031746033 116.1904761904762,180.10582010582013 115.55555555555557,179.8941798941799 114.92063492063492,179.6825396825397 114.28571428571429,179.4708994708995 113.65079365079366,179.25925925925927 113.01587301587303,179.04761904761907 112.3809523809524,178.83597883597884 111.74603174603176,178.83597883597884 111.11111111111111,178.62433862433863 110.47619047619048,178.41269841269843 109.84126984126985,178.2010582010582 109.20634920634922,177.989417989418 108.57142857142858,177.7777777777778 107.93650793650795,177.56613756613757 107.3015873015873,177.35449735449737 106.66666666666667,177.14285714285717 106.03174603174604,176.93121693121694 105.3968253968254,176.71957671957674 104.76190476190477,176.50793650793653 104.12698412698414,176.0846560846561 103.4920634920635,175.87301587301587 102.85714285714286,175.66137566137567 102.22222222222223,175.44973544973547 101.5873015873016,175.02645502645504 100.95238095238096,174.81481481481484 100.31746031746033,174.6031746031746 99.68253968253968,174.3915343915344 99.04761904761905,173.96825396825398 98.41269841269842,173.75661375661377 97.77777777777779,173.33333333333334 97.14285714285715,173.12169312169314 96.50793650793652,172.9100529100529 95.87301587301587,172.6984126984127 95.23809523809524,172.27513227513228 94.60317460317461,172.06349206349208 94.17989417989419,171.64021164021165 93.54497354497356,171.42857142857144 92.91005291005291,171.21693121693124 92.27513227513228,170.7936507936508 91.64021164021165,170.58201058201058 91.00529100529101,170.37037037037038 90.58201058201058,169.94708994708995 89.94708994708995,169.73544973544975 89.52380952380953,169.31216931216932 88.8888888888889,169.10052910052912 88.25396825396827,168.67724867724868 87.83068783068784,168.25396825396825 87.1957671957672,167.83068783068785 86.77248677248677,167.40740740740742 86.34920634920636,166.984126984127 85.92592592592594,166.56084656084658 85.5026455026455,166.13756613756615 85.07936507936509,165.71428571428572 84.65608465608466,165.0793650793651 84.44444444444446,164.44444444444446 84.23280423280424,163.80952380952382 84.23280423280424,163.1746031746032 84.23280423280424,162.53968253968256 84.23280423280424,161.90476190476193 84.23280423280424,161.2698412698413 84.44444444444446,160.63492063492066 84.65608465608466,160.0 84.86772486772487,159.36507936507937 85.29100529100529,158.73015873015873 85.71428571428572,158.0952380952381 86.13756613756614,157.67195767195767 86.56084656084657,157.03703703703704 86.98412698412699,156.61375661375664 87.40740740740742,156.1904761904762 87.83068783068784,155.76719576719577 88.25396825396827,155.34391534391534 88.67724867724868,154.92063492063494 89.31216931216932,154.7089947089947 89.73544973544975,154.2857142857143 90.15873015873017,153.86243386243387 90.58201058201058,153.43915343915344 91.21693121693123,153.01587301587304 91.85185185185186,152.5925925925926 92.27513227513228,152.16931216931218 92.69841269841271,151.74603174603175 93.12169312169313,151.32275132275134 93.75661375661376,150.8994708994709 94.17989417989419,150.47619047619048 94.60317460317461,150.05291005291005 95.02645502645504,149.41798941798942 95.44973544973546,148.99470899470901 95.87301587301587,148.57142857142858 96.2962962962963,147.93650793650795 96.50793650793652,147.30158730158732 96.93121693121694,146.8783068783069 97.14285714285715,146.24338624338625 97.35449735449737,145.60846560846562 97.56613756613757,144.973544973545 97.77777777777779,144.33862433862436 97.77777777777779,143.70370370370372 97.989417989418,143.0687830687831 97.989417989418,142.43386243386246 97.989417989418,141.7989417989418 97.989417989418,141.16402116402116 97.989417989418,140.52910052910053 97.989417989418,139.8941798941799 97.77777777777779,139.25925925925927 97.56613756613757,138.62433862433863 97.35449735449737,137.989417989418 97.14285714285715,137.35449735449737 96.71957671957672,136.71957671957674 96.50793650793652,136.0846560846561 96.08465608465609,135.66137566137567 95.66137566137567,135.02645502645504 95.23809523809524,134.6031746031746 94.81481481481482,134.17989417989418 94.39153439153439,133.54497354497354 93.96825396825398,133.12169312169314 93.54497354497356,132.6984126984127 93.12169312169313,132.27513227513228 92.69841269841271,131.85185185185185 92.27513227513228,131.42857142857144 91.85185185185186,131.005291005291 91.21693121693123,130.58201058201058 90.7936507936508,130.15873015873018 90.15873015873017,129.73544973544975 89.52380952380953,129.31216931216932 89.1005291005291,128.88888888888889 88.46560846560847,128.46560846560848 87.83068783068784,128.25396825396825 87.1957671957672,127.83068783068784 86.56084656084657,127.40740740740742 85.92592592592594,127.1957671957672 85.29100529100529,126.98412698412699 84.65608465608466,126.77248677248679 84.02116402116403,126.56084656084657 83.3862433862434,126.34920634920636 82.75132275132276,126.13756613756615 82.11640211640213,125.92592592592594 81.48148148148148,125.5026455026455 80.84656084656085,125.2910052910053 80.21164021164022,125.2910052910053 79.57671957671958,124.86772486772487 78.94179894179895,124.65608465608466 78.30687830687832,124.44444444444446 77.67195767195767,124.23280423280424 77.03703703703704,124.02116402116403 76.4021164021164,124.02116402116403 75.76719576719577,123.80952380952382 75.13227513227514,123.59788359788361 74.49735449735451,123.3862433862434 73.86243386243387,123.17460317460318 73.22751322751323,123.17460317460318 72.5925925925926,122.96296296296298 71.95767195767196,122.96296296296298 71.32275132275133,122.75132275132276 70.6878306878307,122.75132275132276 70.05291005291006,122.53968253968254 69.41798941798942,122.53968253968254 68.78306878306879,122.53968253968254 68.14814814814815,122.53968253968254 67.51322751322752,122.53968253968254 66.87830687830689,122.53968253968254 66.24338624338625,122.75132275132276 65.60846560846561,122.75132275132276 64.97354497354497,122.75132275132276 64.33862433862434,122.96296296296298 63.70370370370371,122.96296296296298 63.06878306878308,123.17460317460318 62.43386243386244,123.3862433862434 61.798941798941804,123.59788359788361 61.16402116402117,124.02116402116403 60.52910052910053,124.44444444444446 59.8941798941799,124.86772486772487 59.470899470899475,125.2910052910053 59.04761904761905,125.71428571428572 58.62433862433863,126.13756613756615 58.2010582010582,126.56084656084657 57.989417989417994,127.1957671957672 57.56613756613757,127.61904761904763 57.35449735449736,128.25396825396825 56.93121693121694,128.88888888888889 56.71957671957672,129.52380952380955 56.50793650793651,130.15873015873018 56.2962962962963,130.7936507936508 56.08465608465609,131.42857142857144 56.08465608465609,132.06349206349208 55.87301587301588,132.6984126984127 55.87301587301588,133.33333333333334 55.87301587301588,133.96825396825398 55.661375661375665,134.6031746031746 55.661375661375665,135.23809523809524 55.661375661375665,135.87301587301587 55.661375661375665,136.5079365079365 55.661375661375665,137.14285714285717 55.661375661375665,137.7777777777778 55.87301587301588,138.41269841269843 55.87301587301588,139.04761904761907 56.08465608465609,139.6825396825397 56.08465608465609,140.31746031746033 56.2962962962963,140.95238095238096 56.2962962962963,141.5873015873016 56.50793650793651,142.22222222222223 56.71957671957672,142.85714285714286 56.71957671957672,143.4920634920635 56.93121693121694,144.12698412698413 57.142857142857146,144.76190476190476 57.142857142857146,145.39682539682542 57.142857142857146,146.03174603174605 57.142857142857146,146.66666666666669 57.142857142857146,147.30158730158732 56.93121693121694,147.93650793650795 56.71957671957672,148.57142857142858 56.50793650793651,149.20634920634922 56.2962962962963,149.84126984126985 56.08465608465609,150.47619047619048 55.661375661375665,150.8994708994709 55.23809523809524,151.32275132275134 54.81481481481482,151.74603174603175 54.179894179894184,152.16931216931218 53.54497354497355,152.38095238095238 52.91005291005291,152.5925925925926 52.27513227513228,152.8042328042328 51.640211640211646,153.01587301587304 51.00529100529101,153.01587301587304 50.370370370370374,153.22751322751324 49.73544973544974,153.22751322751324 49.1005291005291,153.43915343915344 48.46560846560847,153.43915343915344 47.830687830687836,153.43915343915344 47.195767195767196,153.43915343915344 46.560846560846564,153.43915343915344 45.92592592592593,153.65079365079367 45.29100529100529,153.43915343915344 44.65608465608466,153.43915343915344 44.021164021164026,153.43915343915344 43.386243386243386,153.43915343915344 42.75132275132275,153.43915343915344 42.11640211640212,153.43915343915344 41.48148148148149,153.43915343915344 40.84656084656085,153.43915343915344 40.211640211640216,153.22751322751324 39.57671957671958,153.22751322751324 38.94179894179894,153.22751322751324 38.30687830687831,153.22751322751324 37.67195767195768,153.01587301587304 37.03703703703704,153.01587301587304 36.402116402116405,152.8042328042328 35.76719576719577,152.8042328042328 35.13227513227513,152.8042328042328 34.4973544973545,152.5925925925926 33.86243386243387,152.5925925925926 33.22751322751323,152.38095238095238 32.592592592592595,152.16931216931218 31.95767195767196,152.16931216931218 31.322751322751326,151.95767195767198 30.68783068783069,151.74603174603175 30.052910052910054,151.74603174603175 29.41798941798942,151.53439153439155 28.783068783068785,151.32275132275134 28.14814814814815,151.32275132275134 27.513227513227516,151.11111111111111 26.87830687830688,150.8994708994709 26.243386243386244,150.6878306878307 25.60846560846561,150.47619047619048 24.973544973544975,150.26455026455028 24.338624338624342,150.05291005291005 23.703703703703706,150.05291005291005 23.06878306878307,149.84126984126985 22.433862433862437,149.62962962962965 21.7989417989418,149.41798941798942 21.164021164021165,149.20634920634922 20.529100529100532,148.99470899470901 19.894179894179896,148.78306878306879 19.25925925925926,148.57142857142858 18.624338624338627,148.57142857142858 17.98941798941799,148.14814814814815 17.354497354497354,148.14814814814815 16.71957671957672,147.93650793650795 16.084656084656086,147.72486772486775 15.449735449735451,147.51322751322752 14.814814814814817,147.30158730158732 14.17989417989418,147.0899470899471 13.544973544973546,146.8783068783069 12.910052910052912,146.66666666666669 12.275132275132275,146.45502645502646 11.640211640211641,146.24338624338625 11.005291005291006,146.24338624338625 10.370370370370372,146.03174603174605 9.735449735449736,145.82010582010582 9.100529100529101,145.82010582010582 8.465608465608467,145.60846560846562 7.830687830687832,145.39682539682542 7.195767195767196,145.39682539682542 6.560846560846561,145.39682539682542 5.9259259259259265,145.39682539682542 5.291005291005291,145.1851851851852 4.656084656084657,145.1851851851852 4.021164021164021,144.973544973545 3.3862433862433865,144.973544973545 0.0,144.55026455026456" style="fill:none; stroke:#00aa99; stroke-width:1.0"  /><polyline points="0.0,144.55026455026456 0.21164021164021166,140.95238095238096 0.4232804232804233,140.31746031746033 0.4232804232804233,139.6825396825397 0.4232804232804233,139.04761904761907 0.4232804232804233,138.41269841269843 0.4232804232804233,137.7777777777778 0.4232804232804233,137.14285714285717 0.4232804232804233,136.5079365079365 0.4232804232804233,135.87301587301587 0.4232804232804233,135.23809523809524 0.4232804232804233,134.6031746031746 0.4232804232804233,133.96825396825398 0.634920634920635,133.33333333333334 0.634920634920635,132.6984126984127 0.634920634920635,132.06349206349208 0.634920634920635,131.42857142857144 0.634920634920635,130.7936507936508 0.634920634920635,130.15873015873018 0.634920634920635,129.52380952380955 0.8465608465608466,128.88888888888889 0.8465608465608466,128.25396825396825 0.8465608465608466,127.61904761904763 0.8465608465608466,126.98412698412699 1.0582010582010584,126.34920634920636 1.0582010582010584,125.71428571428572 1.0582010582010584,125.07936507936509 1.0582010582010584,124.44444444444446 1.26984126984127,123.80952380952382 1.26984126984127,123.17460317460318 1.4814814814814816,122.53968253968254 1.4814814814814816,121.90476190476191 1.4814814814814816,121.26984126984128 1.4814814814814816,120.63492063492065 1.6931216931216932,120.00000000000001 1.6931216931216932,119.36507936507937 1.9047619047619049,118.73015873015873 1.9047619047619049,118.0952380952381 1.9047619047619049,117.46031746031747 2.1164021164021167,116.82539682539684 2.1164021164021167,116.1904761904762 2.3280423280423284,115.55555555555557 2.1164021164021167,114.92063492063492 2.3280423280423284,114.28571428571429 2.3280423280423284,113.65079365079366 2.53968253968254,113.01587301587303 2.53968253968254,112.3809523809524 2.7513227513227516,111.74603174603176 2.7513227513227516,111.11111111111111 2.9629629629629632,110.47619047619048 2.9629629629629632,109.84126984126985 3.174603174603175,109.20634920634922 3.3862433862433865,108.57142857142858 3.3862433862433865,107.93650793650795 3.597883597883598,107.3015873015873 3.597883597883598,106.66666666666667 3.8095238095238098,106.03174603174604 4.021164021164021,105.3968253968254 4.2328042328042335,104.76190476190477 4.2328042328042335,104.12698412698414 4.444444444444445,103.4920634920635 4.656084656084657,102.85714285714286 4.867724867724868,102.22222222222223 4.867724867724868,101.5873015873016 5.07936507936508,100.95238095238096 5.291005291005291,100.31746031746033 5.502645502645503,99.68253968253968 5.502645502645503,99.04761904761905 5.714285714285714,98.41269841269842 5.9259259259259265,97.77777777777779 6.137566137566138,97.14285714285715 6.34920634920635,96.50793650793652 6.560846560846561,95.87301587301587 6.560846560846561,95.23809523809524 6.772486772486773,94.60317460317461 6.984126984126985,93.96825396825398 7.195767195767196,93.33333333333334 7.407407407407408,92.69841269841271 7.6190476190476195,92.06349206349208 7.830687830687832,91.42857142857143 8.042328042328043,90.7936507936508 8.253968253968255,90.15873015873017 8.677248677248677,89.52380952380953 8.88888888888889,88.8888888888889 9.100529100529101,88.25396825396827 9.523809523809524,87.61904761904762 9.947089947089948,86.98412698412699 10.15873015873016,86.34920634920636 10.582010582010582,85.71428571428572 11.005291005291006,85.07936507936509 11.428571428571429,84.44444444444446 11.851851851851853,83.80952380952381 12.275132275132275,83.17460317460318 12.6984126984127,82.53968253968254 13.121693121693122,81.90476190476191 13.544973544973546,81.26984126984128 13.96825396825397,80.84656084656085 14.17989417989418,80.21164021164022 14.603174603174605,79.57671957671958 15.026455026455027,79.15343915343917 15.449735449735451,78.73015873015873 16.084656084656086,78.30687830687832 16.71957671957672,77.88359788359789 17.354497354497354,77.67195767195767 17.77777777777778,77.24867724867725 18.412698412698415,77.03703703703704 19.047619047619047,76.82539682539684 19.682539682539684,76.82539682539684 20.31746031746032,76.61375661375662 20.952380952380953,76.61375661375662 21.58730158730159,76.61375661375662 22.222222222222225,76.82539682539684 22.857142857142858,77.03703703703704 23.492063492063494,77.46031746031747 24.12698412698413,77.67195767195767 24.761904761904763,77.88359788359789 25.3968253968254,78.0952380952381 25.820105820105823,78.51851851851852 26.455026455026456,78.51851851851852 27.089947089947092,78.94179894179895 27.724867724867728,79.15343915343917 28.35978835978836,79.36507936507937 28.994708994708997,79.36507936507937 29.629629629629633,79.36507936507937 30.264550264550266,79.57671957671958 30.899470899470902,79.57671957671958 31.53439153439154,79.57671957671958 32.16931216931217,79.57671957671958 32.804232804232804,79.57671957671958 33.43915343915344,79.36507936507937 34.074074074074076,79.36507936507937 34.70899470899471,79.15343915343917 35.34391534391535,78.94179894179895 35.97883597883598,78.51851851851852 36.613756613756614,78.30687830687832 37.03703703703704,77.88359788359789 37.46031746031746,77.46031746031747 37.883597883597886,77.03703703703704 38.30687830687831,76.61375661375662 38.730158730158735,76.19047619047619 38.94179894179894,75.55555555555556 39.36507936507937,74.92063492063492 39.78835978835979,74.28571428571429 40.0,73.65079365079366 40.211640211640216,73.01587301587303 40.63492063492064,72.38095238095238 40.84656084656085,71.74603174603175 41.058201058201064,71.11111111111111 41.26984126984127,70.47619047619048 41.6931216931217,69.84126984126985 41.6931216931217,69.20634920634922 41.904761904761905,68.57142857142858 42.32804232804233,67.93650793650794 42.539682539682545,67.3015873015873 42.539682539682545,66.66666666666667 42.75132275132275,66.03174603174604 42.96296296296297,65.3968253968254 43.17460317460318,64.76190476190477 43.386243386243386,64.12698412698413 43.386243386243386,63.492063492063494 43.5978835978836,62.85714285714286 43.80952380952381,62.22222222222223 43.80952380952381,61.58730158730159 44.021164021164026,60.952380952380956 44.021164021164026,60.31746031746032 44.232804232804234,59.682539682539684 44.44444444444445,59.04761904761905 44.44444444444445,58.41269841269842 44.65608465608466,57.777777777777786 44.65608465608466,57.142857142857146 44.65608465608466,56.50793650793651 44.65608465608466,55.87301587301588 44.867724867724874,55.23809523809524 44.867724867724874,54.60317460317461 44.867724867724874,53.968253968253975 44.867724867724874,53.333333333333336 44.867724867724874,52.6984126984127 44.867724867724874,52.06349206349207 44.65608465608466,51.42857142857143 44.65608465608466,50.7936507936508 44.65608465608466,50.158730158730165 44.65608465608466,49.523809523809526 44.44444444444445,48.88888888888889 44.44444444444445,48.25396825396826 44.44444444444445,47.61904761904762 44.232804232804234,46.98412698412699 44.232804232804234,46.349206349206355 44.021164021164026,45.714285714285715 43.80952380952381,45.07936507936508 43.5978835978836,44.44444444444445 43.386243386243386,43.80952380952381 43.386243386243386,43.17460317460318 43.17460317460318,42.539682539682545 42.96296296296297,41.904761904761905 42.75132275132275,41.26984126984127 42.32804232804233,40.63492063492064 41.904761904761905,40.0 41.48148148148149,39.57671957671958 41.058201058201064,39.15343915343916 40.63492063492064,38.730158730158735 40.0,38.30687830687831 39.36507936507937,37.883597883597886 38.730158730158735,37.67195767195768 38.095238095238095,37.46031746031746 37.46031746031746,37.248677248677254 36.82539682539683,37.03703703703704 36.19047619047619,36.82539682539683 35.55555555555556,36.613756613756614 34.920634920634924,36.613756613756614 34.28571428571429,36.613756613756614 33.65079365079365,36.613756613756614 33.01587301587302,36.613756613756614 32.38095238095239,36.613756613756614 31.746031746031747,36.82539682539683 31.111111111111114,36.82539682539683 30.476190476190478,37.03703703703704 29.841269841269842,37.248677248677254 29.20634920634921,37.248677248677254 28.571428571428573,37.46031746031746 27.93650793650794,37.67195767195768 27.301587301587304,37.67195767195768 26.666666666666668,37.883597883597886 26.031746031746035,37.883597883597886 25.3968253968254,38.095238095238095 24.761904761904763,38.095238095238095 24.12698412698413,38.30687830687831 23.492063492063494,38.30687830687831 22.857142857142858,38.095238095238095 22.222222222222225,38.095238095238095 21.58730158730159,37.883597883597886 20.952380952380953,37.883597883597886 20.31746031746032,37.67195767195768 19.682539682539684,37.46031746031746 19.25925925925926,37.03703703703704 18.624338624338627,36.613756613756614 17.98941798941799,36.19047619047619 17.566137566137566,35.76719576719577 17.142857142857146,35.34391534391535 16.71957671957672,34.70899470899471 16.296296296296298,34.074074074074076 16.296296296296298,33.43915343915344 16.084656084656086,32.804232804232804 16.084656084656086,32.16931216931217 16.084656084656086,31.53439153439154 16.296296296296298,30.899470899470902 16.296296296296298,30.264550264550266 16.50793650793651,29.629629629629633 16.71957671957672,28.994708994708997 16.931216931216934,28.35978835978836 17.142857142857146,27.724867724867728 17.354497354497354,27.089947089947092 17.566137566137566,26.455026455026456 17.77777777777778,25.820105820105823 18.201058201058203,25.185185185185187 18.412698412698415,24.55026455026455 18.624338624338627,23.915343915343918 19.047619047619047,23.280423280423282 19.25925925925926,22.645502645502646 19.682539682539684,22.222222222222225 20.105820105820108,21.58730158730159 20.529100529100532,20.952380952380953 20.952380952380953,20.529100529100532 21.375661375661377,19.894179894179896 21.7989417989418,19.47089947089947 22.222222222222225,19.047619047619047 22.645502645502646,18.412698412698415 23.06878306878307,17.98941798941799 23.492063492063494,17.354497354497354 23.915343915343918,16.931216931216934 24.338624338624342,16.50793650793651 24.761904761904763,15.873015873015873 25.185185185185187,15.449735449735451 25.60846560846561,14.814814814814817 26.031746031746035,14.17989417989418 26.455026455026456,13.756613756613758 26.87830687830688,13.121693121693122 27.301587301587304,12.486772486772487 27.513227513227516,11.851851851851853 27.93650793650794,11.216931216931219 28.35978835978836,10.582010582010582 28.571428571428573,9.947089947089948 28.783068783068785,9.312169312169313 30.476190476190478,6.560846560846561" style="fill:none; stroke:#3300bb; stroke-width:1.0"  /><circle cx="30.476190476190478" cy="6.560846560846561" r="2.0" style="fill:none; stroke:#000000aa; stroke-width:0.25" /><circle cx="194.2857142857143" cy="27.089947089947092" r="2.0" style="fill:none; stroke:#000000aa; stroke-width:0.25" /><circle cx="155.13227513227514" cy="184.7619047619048" r="2.0" style="fill:none; stroke:#000000aa; stroke-width:0.25" /><circle cx="0.0" cy="144.55026455026456" r="2.0" style="fill:none; stroke:#000000aa; stroke-width:0.25" /><circle cx="30.476190476190478" cy="6.137566137566138" r="2.0" style="fill:none; stroke:#ff3366aa; stroke-width:0.25" /><circle cx="193.65079365079367" cy="27.513227513227516" r="2.0" style="fill:none; stroke:#ff3366aa; stroke-width:0.25" /><circle cx="154.92063492063494" cy="184.55026455026456" r="2.0" style="fill:none; stroke:#ff3366aa; stroke-width:0.25" /><circle cx="0.21164021164021166" cy="144.12698412698413" r="2.0" style="fill:none; stroke:#ff3366aa; stroke-width:0.25" /><polyline points="42.32804232804233,8.253968253968255 41.6931216931217,8.253968253968255 41.058201058201064,8.677248677248677 40.423280423280424,8.677248677248677 39.78835978835979,8.465608465608467 39.15343915343916,8.465608465608467 38.51851851851852,8.465608465608467 37.883597883597886,8.253968253968255 37.248677248677254,8.253968253968255 36.613756613756614,8.042328042328043 35.97883597883598,8.042328042328043 35.34391534391535,7.6190476190476195 34.70899470899471,7.6190476190476195 34.074074074074076,7.195767195767196 33.43915343915344,6.984126984126985" style="fill:none; stroke:#001100; stroke-width:1.0" /><polyline points="24.338624338624342,16.50793650793651 24.761904761904763,15.873015873015873 25.185185185185187,15.449735449735451 25.60846560846561,14.814814814814817 26.031746031746035,14.17989417989418 26.455026455026456,13.756613756613758 26.87830687830688,13.121693121693122 27.301587301587304,12.486772486772487 27.513227513227516,11.851851851851853 27.93650793650794,11.216931216931219 28.35978835978836,10.582010582010582 28.571428571428573,9.947089947089948 28.783068783068785,9.312169312169313" style="fill:none; stroke:#000011; stroke-width:1.0" /><polyline points="189.62962962962965,38.30687830687831 190.05291005291008,37.67195767195768 190.26455026455028,37.03703703703704 190.47619047619048,36.402116402116405 190.6878306878307,35.76719576719577 191.11111111111111,35.13227513227513 191.32275132275134,34.4973544973545 191.53439153439155,33.86243386243387 191.95767195767198,33.22751322751323 192.16931216931218,32.592592592592595 192.3809523809524,31.95767195767196 192.5925925925926,31.322751322751326 192.8042328042328,30.68783068783069" style="fill:none; stroke:#001100; stroke-width:1.0" /><polyline points="182.01058201058203,25.3968253968254 182.64550264550266,25.60846560846561 183.2804232804233,25.60846560846561 183.91534391534393,25.820105820105823 184.55026455026456,25.820105820105823 185.1851851851852,25.820105820105823 185.82010582010582,25.820105820105823 186.45502645502646,26.031746031746035 187.08994708994712,26.031746031746035 187.72486772486775,26.031746031746035 188.35978835978838,26.031746031746035 188.99470899470901,26.243386243386244 189.62962962962965,26.455026455026456 190.26455026455028,26.455026455026456" style="fill:none; stroke:#000011; stroke-width:1.0" /><polyline points="143.4920634920635,184.973544973545 144.12698412698413,185.1851851851852 144.76190476190476,185.1851851851852 145.39682539682542,185.1851851851852 146.03174603174605,185.1851851851852 146.66666666666669,185.1851851851852 147.30158730158732,184.973544973545 147.93650793650795,184.973544973545 148.57142857142858,184.973544973545 149.20634920634922,184.973544973545 149.84126984126985,184.973544973545 150.47619047619048,184.7619047619048 151.11111111111111,184.7619047619048 151.74603174603175,184.7619047619048" style="fill:none; stroke:#001100; stroke-width:1.0" /><polyline points="153.86243386243387,172.9100529100529 153.86243386243387,173.54497354497354 153.86243386243387,174.1798941798942 154.07407407407408,174.81481481481484 154.07407407407408,175.44973544973547 154.07407407407408,176.0846560846561 154.2857142857143,176.71957671957674 154.07407407407408,177.35449735449737 154.2857142857143,177.989417989418 154.2857142857143,178.62433862433863 154.4973544973545,179.25925925925927 154.4973544973545,179.8941798941799 154.7089947089947,180.52910052910053 154.7089947089947,181.16402116402116" style="fill:none; stroke:#000011; stroke-width:1.0" /><polyline points="0.634920634920635,132.6984126984127 0.634920634920635,133.33333333333334 0.4232804232804233,133.96825396825398 0.4232804232804233,134.6031746031746 0.4232804232804233,135.23809523809524 0.4232804232804233,135.87301587301587 0.4232804232804233,136.5079365079365 0.4232804232804233,137.14285714285717 0.4232804232804233,137.7777777777778 0.4232804232804233,138.41269841269843 0.4232804232804233,139.04761904761907 0.4232804232804233,139.6825396825397 0.4232804232804233,140.31746031746033 0.21164021164021166,140.95238095238096" style="fill:none; stroke:#001100; stroke-width:1.0" /><polyline points="11.640211640211641,146.24338624338625 11.005291005291006,146.24338624338625 10.370370370370372,146.03174603174605 9.735449735449736,145.82010582010582 9.100529100529101,145.82010582010582 8.465608465608467,145.60846560846562 7.830687830687832,145.39682539682542 7.195767195767196,145.39682539682542 6.560846560846561,145.39682539682542 5.9259259259259265,145.39682539682542 5.291005291005291,145.1851851851852 4.656084656084657,145.1851851851852 4.021164021164021,144.973544973545 3.3862433862433865,144.973544973545" style="fill:none; stroke:#000011; stroke-width:1.0" /><polyline points="33.43915343915344,6.984126984126985 12.486772486772487,4.021164021164021" style="fill:none; stroke:#ffaa00; stroke-width:0.4" /><polyline points="28.783068783068785,9.312169312169313 40.0,-8.677248677248677" style="fill:none; stroke:#aaff00; stroke-width:0.4" /><polyline points="192.8042328042328,30.68783068783069 200.84656084656086,11.216931216931219" style="fill:none; stroke:#ffaa00; stroke-width:0.4" /><polyline points="190.26455026455028,26.455026455026456 211.21693121693124,29.20634920634921" style="fill:none; stroke:#aaff00; stroke-width:0.4" /><polyline points="151.74603174603175,184.7619047619048 172.9100529100529,184.12698412698415" style="fill:none; stroke:#ffaa00; stroke-width:0.4" /><polyline points="154.7089947089947,181.16402116402116 156.82539682539684,202.11640211640213" style="fill:none; stroke:#aaff00; stroke-width:0.4" /><polyline points="0.21164021164021166,140.95238095238096 -0.8465608465608466,162.11640211640213" style="fill:none; stroke:#ffaa00; stroke-width:0.4" /><polyline points="3.3862433862433865,144.973544973545 -17.566137566137566,141.7989417989418" style="fill:none; stroke:#aaff00; stroke-width:0.4" /><circle cx="97.77777777777779" cy="89.94708994708995" r="1.0" style="fill:#444444; stroke-width:0" /><circle cx="105.18518518518519" cy="87.1957671957672" r="10.582010582010582" style="fill:#ff770022; stroke-width:0" /><circle cx="105.18518518518519" cy="87.1957671957672" r="1.0" style="fill:#ff7700; stroke-width:0" /></svg>