<?xml version="1.0" encoding="UTF-8" standalone="no"?><svg width="507.30158730158735" height="519.3650793650794" viewBox="-10 -10 189.10052910052912 193.12169312169314" xmlns="http://www.w3.org/2000/svg" xmlns:xlink="http://www.w3.org/1999/xlink"><polyline points="12.6984126984127,4.021164021164021 16.296296296296298,4.867724867724868 16.931216931216934,5.07936507936508 17.566137566137566,5.291005291005291 18.201058201058203,5.502645502645503 18.83597883597884,5.714285714285714 19.47089947089947,5.714285714285714 20.105820105820108,5.9259259259259265 20.740740740740744,5.9259259259259265 21.375661375661377,6.137566137566138 22.010582010582013,6.34920634920635 22.645502645502646,6.560846560846561 23.280423280423282,6.560846560846561 23.915343915343918,6.772486772486773 24.55026455026455,6.984126984126985 25.185185185185187,7.195767195767196 25.820105820105823,7.195767195767196 26.455026455026456,7.6190476190476195 27.089947089947092,7.6190476190476195 27.724867724867728,7.6190476190476195 28.35978835978836,8.042328042328043 28.994708994708997,8.042328042328043 29.629629629629633,8.253968253968255 30.264550264550266,8.677248677248677 30.899470899470902,8.88888888888889 31.53439153439154,8.88888888888889 31.95767195767196,9.312169312169313 32.592592592592595,9.100529100529101 33.01587301587302,9.523809523809524 33.65079365079365,9.735449735449736 34.28571428571429,9.947089947089948 34.920634920634924,10.15873015873016 35.55555555555556,10.582010582010582 36.19047619047619,10.793650793650794 36.82539682539683,11.005291005291006 37.46031746031746,11.216931216931219 38.095238095238095,11.640211640211641 38.730158730158735,12.063492063492065 39.36507936507937,12.275132275132275 39.78835978835979,12.6984126984127 40.211640211640216,13.121693121693122 40.63492063492064,13.756613756613758 40.84656084656085,14.391534391534393 41.058201058201064,15.026455026455027 41.26984126984127,15.661375661375663 41.26984126984127,16.296296296296298 41.26984126984127,16.931216931216934 41.26984126984127,17.566137566137566 41.058201058201064,18.201058201058203 41.058201058201064,18.83597883597884 40.84656084656085,19.47089947089947 40.63492063492064,20.105820105820108 40.423280423280424,20.740740740740744 40.211640211640216,21.375661375661377 40.0,22.010582010582013 39.78835978835979,22.645502645502646 39.57671957671958,23.280423280423282 39.36507936507937,23.915343915343918 39.15343915343916,24.55026455026455 39.15343915343916,25.185185185185187 38.94179894179894,25.820105820105823 38.94179894179894,26.455026455026456 38.730158730158735,27.089947089947092 38.51851851851852,27.724867724867728 38.51851851851852,28.35978835978836 38.30687830687831,28.994708994708997 38.30687830687831,29.629629629629633 38.30687830687831,30.264550264550266 38.30687830687831,30.899470899470902 38.30687830687831,31.53439153439154 38.30687830687831,32.16931216931217 38.51851851851852,32.804232804232804 38.51851851851852,33.43915343915344 38.730158730158735,34.074074074074076 39.15343915343916,34.70899470899471 39.36507936507937,35.34391534391535 39.78835978835979,35.97883597883598 40.211640211640216,36.613756613756614 40.63492063492064,37.248677248677254 41.058201058201064,37.883597883597886 41.48148148148149,38.30687830687831 41.904761904761905,38.730158730158735 42.32804232804233,39.15343915343916 42.75132275132275,39.57671957671958 43.17460317460318,40.0 43.80952380952381,40.423280423280424 44.44444444444445,40.84656084656085 45.07936507936508,41.26984126984127 45.714285714285715,41.48148148148149 46.349206349206355,41.904761904761905 46.98412698412699,42.11640211640212 47.61904761904762,42.539682539682545 48.25396825396826,42.75132275132275 48.88888888888889,42.96296296296297 49.523809523809526,43.17460317460318 50.158730158730165,43.386243386243386 50.7936507936508,43.386243386243386 51.42857142857143,43.386243386243386 51.851851851851855,43.80952380952381 52.48677248677249,43.80952380952381 53.12169312169313,43.80952380952381 53.75661375661376,44.021164021164026 54.39153439153439,44.021164021164026 55.02645502645503,44.021164021164026 55.661375661375665,44.232804232804234 56.2962962962963,44.232804232804234 56.93121693121694,44.232804232804234 57.56613756613757,44.232804232804234 58.2010582010582,44.232804232804234 58.83597883597884,44.232804232804234 59.470899470899475,44.021164021164026 60.10582010582011,44.232804232804234 60.74074074074075,44.021164021164026 61.37566137566138,44.021164021164026 62.01058201058201,43.80952380952381 62.64550264550265,43.5978835978836 63.280423280423285,43.386243386243386 63.91534391534392,43.17460317460318 64.55026455026456,42.75132275132275 65.18518518518519,42.539682539682545 65.60846560846561,42.11640211640212 66.03174603174604,41.6931216931217 66.66666666666667,41.26984126984127 67.3015873015873,40.84656084656085 67.72486772486774,40.423280423280424 68.14814814814815,40.0 68.57142857142858,39.57671957671958 68.994708994709,38.94179894179894 69.41798941798942,38.30687830687831 69.84126984126985,37.67195767195768 70.05291005291006,37.03703703703704 70.26455026455027,36.402116402116405 70.47619047619048,35.76719576719577 70.6878306878307,35.13227513227513 70.8994708994709,34.4973544973545 70.8994708994709,33.86243386243387 70.8994708994709,33.22751322751323 70.8994708994709,32.592592592592595 70.8994708994709,31.95767195767196 70.8994708994709,31.322751322751326 70.8994708994709,30.68783068783069 70.6878306878307,30.052910052910054 70.6878306878307,29.41798941798942 70.6878306878307,28.783068783068785 70.47619047619048,28.14814814814815 70.26455026455027,27.513227513227516 69.84126984126985,26.87830687830688 69.62962962962963,26.243386243386244 69.41798941798942,25.60846560846561 68.994708994709,24.973544973544975 68.57142857142858,24.55026455026455 68.14814814814815,23.915343915343918 67.72486772486774,23.280423280423282 67.51322751322752,22.645502645502646 67.08994708994709,22.010582010582013 66.87830687830689,21.375661375661377 66.45502645502646,20.740740740740744 66.24338624338625,20.105820105820108 66.03174603174604,19.47089947089947 65.82010582010582,18.83597883597884 65.60846560846561,18.201058201058203 65.3968253968254,17.566137566137566 65.18518518518519,16.931216931216934 64.97354497354497,16.296296296296298 64.76190476190477,15.661375661375663 64.76190476190477,15.026455026455027 64.76190476190477,14.391534391534393 64.55026455026456,13.756613756613758 64.55026455026456,13.121693121693122 64.55026455026456,12.486772486772487 64.76190476190477,11.851851851851853 64.97354497354497,11.216931216931219 65.18518518518519,10.582010582010582 65.3968253968254,9.947089947089948 65.60846560846561,9.312169312169313 66.03174603174604,8.88888888888889 66.45502645502646,8.253968253968255 66.87830687830689,7.830687830687832 67.3015873015873,7.195767195767196 67.72486772486774,6.772486772486773 68.14814814814815,6.34920634920635 68.57142857142858,5.9259259259259265 69.20634920634922,5.502645502645503 69.62962962962963,5.07936507936508 70.05291005291006,4.656084656084657 70.6878306878307,4.2328042328042335 71.32275132275133,3.8095238095238098 71.74603174603175,3.3862433862433865 72.16931216931218,2.9629629629629632 72.80423280423281,2.7513227513227516 73.01587301587303,2.1164021164021167 73.65079365079366,1.9047619047619049 74.28571428571429,2.1164021164021167 74.92063492063492,1.6931216931216932 75.55555555555556,1.4814814814814816 76.19047619047619,1.0582010582010584 76.82539682539684,1.0582010582010584 77.46031746031747,0.8465608465608466 78.0952380952381,0.634920634920635 78.73015873015873,0.634920634920635 79.15343915343917,0.21164021164021166 79.7883597883598,0.21164021164021166 80.42328042328043,0.21164021164021166 81.05820105820106,0.4232804232804233 81.6931216931217,0.4232804232804233 82.32804232804233,0.21164021164021166 82.96296296296298,0.4232804232804233 83.59788359788361,0.21164021164021166 84.23280423280424,0.21164021164021166 84.86772486772487,0.21164021164021166 85.5026455026455,0.21164021164021166 85.92592592592594,0.634920634920635 86.56084656084657,0.634920634920635 87.1957671957672,0.634920634920635 87.83068783068784,0.8465608465608466 88.46560846560847,0.8465608465608466 88.67724867724868,1.4814814814814816 89.31216931216932,1.26984126984127 89.94708994708995,1.6931216931216932 90.58201058201058,1.9047619047619049 91.21693121693123,2.1164021164021167 91.85185185185186,2.53968253968254 92.4867724867725,2.7513227513227516 93.12169312169313,3.174603174603175 93.75661375661376,3.3862433862433865 94.39153439153439,3.8095238095238098 94.81481481481482,4.2328042328042335 95.44973544973546,4.444444444444445 95.87301587301587,4.867724867724868 96.2962962962963,5.291005291005291 96.71957671957672,5.714285714285714 97.14285714285715,6.137566137566138 97.56613756613757,6.560846560846561 97.989417989418,7.195767195767196 98.41269841269842,7.830687830687832 98.62433862433863,8.465608465608467 99.04761904761905,8.88888888888889 99.04761904761905,9.523809523809524 99.25925925925927,10.15873015873016 99.25925925925927,10.793650793650794 99.25925925925927,11.428571428571429 99.47089947089948,12.063492063492065 99.25925925925927,12.6984126984127 99.25925925925927,13.333333333333334 99.04761904761905,13.96825396825397 99.04761904761905,14.603174603174605 98.83597883597885,15.238095238095239 98.62433862433863,15.873015873015873 98.62433862433863,16.50793650793651 98.41269841269842,17.142857142857146 98.2010582010582,17.77777777777778 97.989417989418,18.412698412698415 97.77777777777779,19.047619047619047 97.56613756613757,19.682539682539684 97.14285714285715,20.31746031746032 96.93121693121694,20.952380952380953 96.71957671957672,21.58730158730159 96.2962962962963,22.222222222222225 96.08465608465609,22.857142857142858 95.66137566137567,23.492063492063494 95.23809523809524,24.12698412698413 95.23809523809524,24.761904761904763 95.23809523809524,25.3968253968254 95.02645502645504,26.031746031746035 94.81481481481482,26.666666666666668 94.60317460317461,27.301587301587304 94.39153439153439,27.93650793650794 94.17989417989419,28.571428571428573 93.96825396825398,29.20634920634921 93.96825396825398,29.841269841269842 93.75661375661376,30.476190476190478 93.54497354497356,31.111111111111114 93.54497354497356,31.746031746031747 93.54497354497356,32.38095238095239 93.54497354497356,33.01587301587302 93.54497354497356,33.65079365079365 93.54497354497356,34.28571428571429 93.75661375661376,34.920634920634924 93.96825396825398,35.55555555555556 94.17989417989419,36.19047619047619 94.39153439153439,36.82539682539683 94.81481481481482,37.46031746031746 95.02645502645504,38.095238095238095 95.44973544973546,38.730158730158735 95.87301587301587,39.15343915343916 96.2962962962963,39.78835978835979 96.71957671957672,40.423280423280424 97.14285714285715,40.84656084656085 97.56613756613757,41.48148148148149 97.989417989418,42.11640211640212 98.41269841269842,42.539682539682545 98.83597883597885,42.96296296296297 99.25925925925927,43.386243386243386 99.8941798941799,43.80952380952381 100.31746031746033,44.232804232804234 100.95238095238096,44.65608465608466 101.5873015873016,44.867724867724874 102.01058201058201,45.29100529100529 102.64550264550266,45.714285714285715 103.28042328042329,45.92592592592593 103.91534391534393,46.13756613756614 104.55026455026456,46.349206349206355 105.18518518518519,46.560846560846564 105.82010582010582,46.98412698412699 106.45502645502647,47.195767195767196 107.0899470899471,47.195767195767196 107.72486772486774,47.40740740740741 108.35978835978837,47.61904761904762 108.994708994709,47.830687830687836 109.62962962962963,47.830687830687836 110.26455026455027,48.042328042328045 110.89947089947091,48.042328042328045 111.53439153439155,48.042328042328045 112.16931216931218,48.25396825396826 112.80423280423281,48.25396825396826 113.43915343915344,48.25396825396826 114.07407407407408,48.25396825396826 114.49735449735451,47.830687830687836 115.13227513227514,47.830687830687836 115.76719576719577,47.830687830687836 116.4021164021164,47.61904761904762 117.03703703703705,47.61904761904762 117.67195767195768,47.40740740740741 118.30687830687832,47.40740740740741 118.94179894179895,47.195767195767196 119.57671957671958,46.98412698412699 120.21164021164022,46.77248677248678 120.84656084656086,46.349206349206355 121.4814814814815,46.13756613756614 122.11640211640213,45.714285714285715 122.75132275132276,45.29100529100529 123.3862433862434,45.07936507936508 123.80952380952382,44.65608465608466 124.44444444444446,44.44444444444445 125.07936507936509,44.021164021164026 125.71428571428572,43.5978835978836 126.34920634920636,43.17460317460318 126.98412698412699,42.75132275132275 127.61904761904763,42.32804232804233 128.25396825396825,41.904761904761905 128.67724867724868,41.48148148148149 129.31216931216932,41.058201058201064 129.73544973544975,40.63492063492064 130.15873015873018,40.211640211640216 130.58201058201058,39.78835978835979 131.005291005291,39.15343915343916 131.42857142857144,38.730158730158735 131.85185185185185,38.095238095238095 132.27513227513228,37.46031746031746 132.6984126984127,36.82539682539683 132.9100529100529,36.19047619047619 133.12169312169314,35.55555555555556 133.33333333333334,34.920634920634924 133.33333333333334,34.28571428571429 133.54497354497354,33.65079365079365 133.54497354497354,33.01587301587302 133.54497354497354,32.38095238095239 133.54497354497354,31.746031746031747 133.54497354497354,31.111111111111114 133.54497354497354,30.476190476190478 133.33333333333334,29.841269841269842 133.33333333333334,29.20634920634921 133.12169312169314,28.571428571428573 132.9100529100529,27.93650793650794 132.9100529100529,27.301587301587304 132.6984126984127,26.666666666666668 132.27513227513228,26.031746031746035 132.06349206349208,25.3968253968254 131.85185185185185,24.761904761904763 131.42857142857144,24.338624338624342 131.21693121693121,23.703703703703706 130.7936507936508,23.280423280423282 130.37037037037038,22.645502645502646 129.94708994708995,22.222222222222225 129.52380952380955,21.58730158730159 129.10052910052912,21.164021164021165 128.67724867724868,20.529100529100532 128.25396825396825,20.105820105820108 127.83068783068784,19.682539682539684 127.40740740740742,19.047619047619047 126.98412698412699,18.412698412698415 126.56084656084657,17.77777777777778 126.34920634920636,17.142857142857146 125.92592592592594,16.50793650793651 125.71428571428572,15.873015873015873 125.2910052910053,15.238095238095239 125.07936507936509,14.603174603174605 124.86772486772487,13.96825396825397 124.65608465608466,13.333333333333334 124.44444444444446,12.6984126984127 124.44444444444446,12.063492063492065 124.23280423280424,11.428571428571429 124.23280423280424,10.793650793650794 124.23280423280424,10.15873015873016 124.02116402116403,9.523809523809524 124.23280423280424,8.88888888888889 124.44444444444446,8.253968253968255 124.65608465608466,7.6190476190476195 125.07936507936509,6.984126984126985 125.5026455026455,6.560846560846561 125.92592592592594,6.137566137566138 126.56084656084657,5.714285714285714 127.1957671957672,5.502645502645503 128.25396825396825,5.07936507936508 128.88888888888889,4.867724867724868 129.52380952380955,4.656084656084657 130.15873015873018,4.444444444444445 130.7936507936508,4.444444444444445 131.42857142857144,4.2328042328042335 132.06349206349208,4.2328042328042335 132.6984126984127,4.2328042328042335 133.33333333333334,4.444444444444445 133.96825396825398,4.656084656084657 134.6031746031746,4.444444444444445 135.23809523809524,4.656084656084657 135.87301587301587,4.656084656084657 136.2962962962963,5.07936507936508 136.93121693121694,5.07936507936508 137.56613756613757,5.291005291005291 138.2010582010582,5.502645502645503 138.83597883597884,5.714285714285714 139.47089947089947,5.9259259259259265 140.10582010582013,5.714285714285714 140.74074074074076,5.9259259259259265 141.3756613756614,6.137566137566138 142.01058201058203,6.34920634920635 142.64550264550266,6.560846560846561 143.2804232804233,6.772486772486773 143.91534391534393,6.772486772486773 144.55026455026456,6.772486772486773 145.1851851851852,6.984126984126985 145.82010582010582,6.984126984126985 146.45502645502646,7.195767195767196 147.0899470899471,7.195767195767196 147.72486772486775,7.195767195767196 148.35978835978838,7.195767195767196 148.99470899470901,7.195767195767196 149.62962962962965,7.195767195767196 150.26455026455028,7.195767195767196 150.8994708994709,7.407407407407408 151.53439153439155,7.407407407407408 152.16931216931218,7.407407407407408 152.8042328042328,7.407407407407408 153.43915343915344,7.407407407407408 154.07407407407408,7.407407407407408 154.7089947089947,7.407407407407408 155.34391534391534,7.407407407407408 155.978835978836,7.407407407407408 156.61375661375664,7.407407407407408 157.24867724867727,7.407407407407408 157.8835978835979,7.407407407407408 158.51851851851853,7.195767195767196 159.15343915343917,7.195767195767196 159.7883597883598,7.195767195767196 160.42328042328043,6.984126984126985 161.05820105820106,6.772486772486773 161.6931216931217,6.772486772486773 162.32804232804233,6.772486772486773 162.96296296296296,6.560846560846561 163.59788359788362,6.560846560846561 164.23280423280426,6.560846560846561 164.8677248677249,6.560846560846561 167.83068783068785,6.34920634920635" style="fill:none; stroke:#cc0000; stroke-width:1.0"  /><polyline points="167.83068783068785,6.34920634920635 167.83068783068785,9.523809523809524 167.83068783068785,10.15873015873016 167.83068783068785,10.793650793650794 167.83068783068785,11.428571428571429 167.83068783068785,12.063492063492065 167.83068783068785,12.6984126984127 167.61904761904762,13.333333333333334 167.61904761904762,13.96825396825397 167.61904761904762,14.603174603174605 167.61904761904762,15.238095238095239 167.61904761904762,15.873015873015873 167.61904761904762,16.50793650793651 167.83068783068785,17.142857142857146 167.83068783068785,17.77777777777778 167.83068783068785,18.412698412698415 167.83068783068785,19.047619047619047 167.83068783068785,19.682539682539684 167.83068783068785,20.31746031746032 167.83068783068785,20.952380952380953 167.83068783068785,21.58730158730159 167.83068783068785,22.222222222222225 167.83068783068785,22.857142857142858 167.83068783068785,23.492063492063494 167.83068783068785,24.12698412698413 168.04232804232805,24.761904761904763 168.25396825396825,25.3968253968254 168.25396825396825,26.031746031746035 168.25396825396825,26.666666666666668 168.25396825396825,27.301587301587304 168.25396825396825,27.93650793650794 168.25396825396825,28.571428571428573 168.25396825396825,29.20634920634921 168.25396825396825,29.841269841269842 168.25396825396825,30.476190476190478 168.25396825396825,31.111111111111114 168.25396825396825,31.746031746031747 168.25396825396825,32.38095238095239 168.25396825396825,33.01587301587302 168.25396825396825,33.65079365079365 168.46560846560848,34.28571428571429 168.46560846560848,34.920634920634924 168.46560846560848,35.55555555555556 168.46560846560848,36.19047619047619 168.46560846560848,36.82539682539683 168.46560846560848,37.46031746031746 168.46560846560848,38.095238095238095 168.46560846560848,38.730158730158735 168.46560846560848,39.36507936507937 168.46560846560848,40.0 168.46560846560848,40.63492063492064 168.46560846560848,41.26984126984127 168.46560846560848,41.904761904761905 168.46560846560848,42.539682539682545 168.46560846560848,43.17460317460318 168.46560846560848,43.80952380952381 168.46560846560848,44.44444444444445 168.46560846560848,45.07936507936508 168.46560846560848,45.714285714285715 168.46560846560848,46.349206349206355 168.46560846560848,46.98412698412699 168.46560846560848,47.61904761904762 168.46560846560848,48.25396825396826 168.46560846560848,48.88888888888889 168.46560846560848,49.523809523809526 168.46560846560848,50.158730158730165 168.46560846560848,50.7936507936508 168.46560846560848,51.42857142857143 168.67724867724868,52.06349206349207 168.46560846560848,52.6984126984127 168.46560846560848,53.333333333333336 168.46560846560848,53.968253968253975 168.46560846560848,54.60317460317461 168.46560846560848,55.23809523809524 168.46560846560848,55.87301587301588 168.46560846560848,56.50793650793651 168.46560846560848,57.142857142857146 168.25396825396825,57.777777777777786 168.25396825396825,58.41269841269842 168.04232804232805,59.04761904761905 168.25396825396825,59.682539682539684 168.25396825396825,60.31746031746032 168.04232804232805,60.952380952380956 168.04232804232805,61.58730158730159 167.83068783068785,62.22222222222223 167.61904761904762,62.85714285714286 167.40740740740742,63.492063492063494 167.19576719576722,64.12698412698413 166.7724867724868,64.55026455026456 166.34920634920636,65.18518518518519 165.92592592592595,65.82010582010582 165.50264550264552,66.24338624338625 164.8677248677249,66.45502645502646 164.23280423280426,66.66666666666667 163.59788359788362,66.66666666666667 162.96296296296296,66.66666666666667 162.32804232804233,66.66666666666667 161.6931216931217,66.45502645502646 161.05820105820106,66.24338624338625 160.42328042328043,65.82010582010582 159.7883597883598,65.60846560846561 159.15343915343917,65.18518518518519 158.51851851851853,64.76190476190477 157.8835978835979,64.33862433862434 157.24867724867727,63.91534391534392 156.61375661375664,63.492063492063494 156.1904761904762,63.06878306878308 155.76719576719577,62.64550264550265 155.13227513227514,62.22222222222223 154.4973544973545,61.798941798941804 154.07407407407408,61.37566137566138 153.65079365079367,60.952380952380956 153.01587301587304,60.52910052910053 152.5925925925926,60.10582010582011 151.95767195767198,59.682539682539684 151.32275132275134,59.470899470899475 150.8994708994709,59.04761904761905 150.26455026455028,58.83597883597884 149.62962962962965,58.41269841269842 148.99470899470901,58.41269841269842 148.35978835978838,58.2010582010582 147.72486772486775,57.989417989417994 147.0899470899471,57.989417989417994 146.45502645502646,57.777777777777786 145.82010582010582,57.777777777777786 145.1851851851852,57.56613756613757 144.55026455026456,57.56613756613757 143.91534391534393,57.56613756613757 143.2804232804233,57.56613756613757 142.64550264550266,57.777777777777786 142.01058201058203,57.777777777777786 141.3756613756614,57.989417989417994 140.74074074074076,58.2010582010582 140.10582010582013,58.41269841269842 139.47089947089947,58.62433862433863 138.83597883597884,58.83597883597884 138.2010582010582,59.25925925925927 137.56613756613757,59.470899470899475 137.14285714285717,60.10582010582011 136.5079365079365,60.52910052910053 136.0846560846561,60.952380952380956 135.44973544973547,61.16402116402117 135.02645502645504,61.58730158730159 134.6031746031746,62.01058201058201 134.17989417989418,62.43386243386244 133.75661375661377,63.06878306878308 133.33333333333334,63.492063492063494 132.9100529100529,64.12698412698413 132.4867724867725,64.76190476190477 132.27513227513228,65.3968253968254 131.85185185185185,66.03174603174604 131.64021164021165,66.66666666666667 131.21693121693121,67.3015873015873 131.21693121693121,67.93650793650794 130.7936507936508,68.57142857142858 130.7936507936508,69.20634920634922 130.58201058201058,69.84126984126985 130.37037037037038,70.47619047619048 130.15873015873018,71.11111111111111 130.15873015873018,71.74603174603175 129.94708994708995,72.38095238095238 129.73544973544975,73.01587301587303 129.73544973544975,73.65079365079366 129.52380952380955,74.28571428571429 129.52380952380955,74.92063492063492 129.52380952380955,75.55555555555556 129.31216931216932,76.19047619047619 129.31216931216932,76.82539682539684 129.31216931216932,77.46031746031747 129.31216931216932,78.0952380952381 129.31216931216932,78.73015873015873 129.31216931216932,79.36507936507937 129.52380952380955,80.0 129.52380952380955,80.63492063492065 129.52380952380955,81.26984126984128 129.73544973544975,81.90476190476191 129.73544973544975,82.53968253968254 129.73544973544975,83.17460317460318 129.94708994708995,83.80952380952381 129.94708994708995,84.44444444444446 130.15873015873018,85.07936507936509 130.37037037037038,85.71428571428572 130.58201058201058,86.34920634920636 130.58201058201058,86.98412698412699 130.7936507936508,87.61904761904762 131.005291005291,88.25396825396827 131.21693121693121,88.8888888888889 131.42857142857144,89.52380952380953 131.85185185185185,90.15873015873017 132.06349206349208,90.7936507936508 132.4867724867725,91.21693121693123 132.9100529100529,91.85185185185186 133.33333333333334,92.4867724867725 133.75661375661377,92.91005291005291 134.17989417989418,93.33333333333334 134.6031746031746,93.75661375661376 135.02645502645504,94.17989417989419 135.44973544973547,94.60317460317461 136.0846560846561,95.02645502645504 136.71957671957674,95.44973544973546 137.35449735449737,95.87301587301587 137.989417989418,96.2962962962963 138.62433862433863,96.71957671957672 139.25925925925927,96.93121693121694 139.6825396825397,97.35449735449737 140.31746031746033,97.56613756613757 140.95238095238096,97.989417989418 141.5873015873016,98.2010582010582 142.22222222222223,98.2010582010582 142.85714285714286,98.41269841269842 143.4920634920635,98.62433862433863 144.12698412698413,98.62433862433863 144.76190476190476,98.41269841269842 145.39682539682542,98.41269841269842 146.03174603174605,98.41269841269842 146.45502645502646,97.989417989418 147.0899470899471,97.989417989418 147.72486772486775,97.989417989418 148.14814814814815,97.56613756613757 148.78306878306879,97.35449735449737 149.20634920634922,96.93121693121694 149.62962962962965,96.50793650793652 150.26455026455028,96.2962962962963 150.8994708994709,95.87301587301587 151.53439153439155,95.44973544973546 152.16931216931218,95.02645502645504 152.5925925925926,94.39153439153439 153.01587301587304,93.96825396825398 153.65079365079367,93.54497354497356 154.2857142857143,93.12169312169313 154.92063492063494,92.91005291005291 155.55555555555557,92.4867724867725 156.1904761904762,92.27513227513228 156.82539682539684,92.06349206349208 157.46031746031747,91.85185185185186 158.0952380952381,91.64021164021165 158.73015873015873,91.85185185185186 159.36507936507937,91.85185185185186 160.0,92.06349206349208 160.63492063492066,92.27513227513228 161.05820105820106,92.69841269841271 161.4814814814815,93.33333333333334 161.90476190476193,93.75661375661376 162.11640211640213,94.39153439153439 162.53968253968256,94.81481481481482 162.75132275132276,95.44973544973546 162.75132275132276,96.08465608465609 162.75132275132276,96.71957671957672 162.75132275132276,97.35449735449737 162.53968253968256,97.989417989418 162.32804232804233,98.62433862433863 162.32804232804233,99.25925925925927 162.11640211640213,99.8941798941799 161.6931216931217,100.52910052910053 161.4814814814815,101.16402116402116 161.2698412698413,101.79894179894181 160.84656084656086,102.22222222222223 160.63492063492066,102.85714285714286 160.21164021164023,103.4920634920635 160.0,104.12698412698414 159.7883597883598,104.76190476190477 159.36507936507937,105.18518518518519 159.15343915343917,105.82010582010582 158.94179894179896,106.45502645502647 158.73015873015873,107.0899470899471 158.30687830687833,107.72486772486774 158.0952380952381,108.35978835978837 157.67195767195767,108.994708994709 157.67195767195767,109.62962962962963 157.24867724867727,110.26455026455027 157.03703703703704,110.89947089947091 156.82539682539684,111.53439153439155 156.61375661375664,112.16931216931218 156.1904761904762,112.80423280423281 155.978835978836,113.43915343915344 155.55555555555557,114.07407407407408 155.34391534391534,114.70899470899472 155.13227513227514,115.34391534391536 154.92063492063494,115.97883597883599 154.7089947089947,116.61375661375662 154.2857142857143,117.24867724867725 154.07407407407408,117.88359788359789 153.86243386243387,118.51851851851853 153.65079365079367,119.15343915343917 153.43915343915344,119.7883597883598 153.22751322751324,120.42328042328043 153.01587301587304,121.05820105820106 152.8042328042328,121.6931216931217 152.38095238095238,122.32804232804234 152.16931216931218,122.96296296296298 151.95767195767198,123.59788359788361 151.74603174603175,124.23280423280424 151.53439153439155,124.86772486772487 151.32275132275134,125.5026455026455 151.11111111111111,126.13756613756615 150.8994708994709,126.77248677248679 150.47619047619048,127.40740740740742 150.26455026455028,128.04232804232805 150.05291005291005,128.67724867724868 149.84126984126985,129.31216931216932 149.84126984126985,129.94708994708995 149.62962962962965,130.58201058201058 149.41798941798942,131.21693121693121 149.41798941798942,131.85185185185185 149.20634920634922,132.4867724867725 148.99470899470901,133.12169312169314 148.78306878306879,133.75661375661377 148.57142857142858,134.3915343915344 148.35978835978838,135.02645502645504 148.14814814814815,135.66137566137567 147.93650793650795,136.2962962962963 147.93650793650795,136.93121693121694 147.72486772486775,137.56613756613757 147.51322751322752,138.2010582010582 147.30158730158732,138.83597883597884 147.0899470899471,139.47089947089947 146.8783068783069,140.10582010582013 146.66666666666669,140.74074074074076 146.45502645502646,141.3756613756614 146.45502645502646,142.01058201058203 146.24338624338625,142.64550264550266 146.03174603174605,143.2804232804233 145.82010582010582,143.91534391534393 145.60846560846562,144.55026455026456 145.39682539682542,145.1851851851852 145.39682539682542,145.82010582010582 145.1851851851852,146.45502645502646 144.973544973545,147.0899470899471 144.973544973545,147.72486772486775 144.76190476190476,148.35978835978838 144.55026455026456,148.99470899470901 144.33862433862436,149.62962962962965 144.12698412698413,150.26455026455028 143.91534391534393,150.8994708994709 143.91534391534393,151.53439153439155 143.70370370370372,152.16931216931218 143.4920634920635,152.8042328042328 143.4920634920635,153.43915343915344 143.2804232804233,154.07407407407408 142.43386243386246,157.46031746031747" style="fill:none; stroke:#999900; stroke-width:1.0"  /><polyline points="142.43386243386246,157.46031746031747 139.04761904761907,157.67195767195767 138.41269841269843,157.67195767195767 137.7777777777778,157.67195767195767 137.14285714285717,157.8835978835979 136.5079365079365,157.8835978835979 135.87301587301587,158.0952380952381 135.23809523809524,158.0952380952381 134.6031746031746,158.0952380952381 133.96825396825398,158.0952380952381 133.33333333333334,158.0952380952381 132.6984126984127,158.30687830687833 132.06349206349208,158.30687830687833 131.42857142857144,158.30687830687833 130.7936507936508,158.30687830687833 130.15873015873018,158.30687830687833 129.52380952380955,158.51851851851853 128.88888888888889,158.51851851851853 128.25396825396825,158.51851851851853 127.61904761904763,158.51851851851853 126.98412698412699,158.51851851851853 126.34920634920636,158.51851851851853 125.71428571428572,158.73015873015873 125.07936507936509,158.73015873015873 124.44444444444446,158.73015873015873 123.80952380952382,158.73015873015873 123.17460317460318,158.73015873015873 122.53968253968254,158.73015873015873 121.90476190476191,158.73015873015873 121.26984126984128,158.73015873015873 120.63492063492065,158.73015873015873 120.00000000000001,158.73015873015873 119.36507936507937,158.73015873015873 118.73015873015873,158.73015873015873 118.0952380952381,158.73015873015873 117.46031746031747,158.73015873015873 116.82539682539684,158.94179894179896 116.1904761904762,158.94179894179896 115.55555555555557,158.94179894179896 114.92063492063492,158.73015873015873 114.28571428571429,158.94179894179896 113.65079365079366,158.94179894179896 113.01587301587303,158.94179894179896 112.3809523809524,158.94179894179896 111.74603174603176,158.94179894179896 111.11111111111111,158.94179894179896 110.47619047619048,158.94179894179896 109.84126984126985,158.94179894179896 109.20634920634922,158.94179894179896 108.57142857142858,158.94179894179896 107.93650793650795,158.94179894179896 107.3015873015873,158.94179894179896 106.66666666666667,158.73015873015873 106.03174603174604,158.73015873015873 105.3968253968254,158.73015873015873 104.76190476190477,158.73015873015873 104.12698412698414,158.73015873015873 103.4920634920635,158.73015873015873 102.85714285714286,158.51851851851853 102.22222222222223,158.51851851851853 101.5873015873016,158.51851851851853 100.95238095238096,158.51851851851853 100.31746031746033,158.51851851851853 99.68253968253968,158.30687830687833 99.04761904761905,158.30687830687833 98.41269841269842,158.30687830687833 97.77777777777779,158.30687830687833 97.14285714285715,158.30687830687833 96.50793650793652,158.0952380952381 95.87301587301587,158.0952380952381 95.23809523809524,158.0952380952381 94.60317460317461,157.8835978835979 93.96825396825398,157.8835978835979 93.33333333333334,157.67195767195767 92.69841269841271,157.67195767195767 92.06349206349208,157.46031746031747 91.42857142857143,157.24867724867727 90.7936507936508,157.03703703703704 90.15873015873017,157.03703703703704 89.52380952380953,156.82539682539684 88.8888888888889,156.4021164021164 88.25396825396827,156.1904761904762 87.61904761904762,155.76719576719577 86.98412698412699,155.55555555555557 86.56084656084657,155.13227513227514 86.13756613756614,154.7089947089947 85.5026455026455,154.2857142857143 85.29100529100529,153.65079365079367 85.07936507936509,153.01587301587304 84.86772486772487,152.38095238095238 84.86772486772487,151.74603174603175 84.86772486772487,151.11111111111111 84.86772486772487,150.47619047619048 85.07936507936509,149.84126984126985 85.29100529100529,149.20634920634922 85.5026455026455,148.57142857142858 85.71428571428572,147.93650793650795 85.92592592592594,147.30158730158732 86.13756613756614,146.66666666666669 86.34920634920636,146.03174603174605 86.56084656084657,145.39682539682542 86.98412698412699,144.76190476190476 87.1957671957672,144.12698412698413 87.40740740740742,143.4920634920635 87.61904761904762,142.85714285714286 87.83068783068784,142.22222222222223 88.04232804232805,141.5873015873016 88.25396825396827,140.95238095238096 88.67724867724868,140.31746031746033 88.8888888888889,139.6825396825397 89.1005291005291,139.04761904761907 89.31216931216932,138.41269841269843 89.52380952380953,137.7777777777778 89.94708994708995,137.14285714285717 90.15873015873017,136.5079365079365 90.37037037037038,135.87301587301587 90.58201058201058,135.23809523809524 90.7936507936508,134.6031746031746 91.00529100529101,133.96825396825398 91.21693121693123,133.33333333333334 91.21693121693123,132.6984126984127 91.42857142857143,132.06349206349208 91.64021164021165,131.42857142857144 91.64021164021165,130.7936507936508 91.64021164021165,130.15873015873018 91.42857142857143,129.52380952380955 91.42857142857143,128.88888888888889 91.42857142857143,128.25396825396825 91.42857142857143,127.61904761904763 91.42857142857143,126.98412698412699 91.21693121693123,126.34920634920636 91.21693121693123,125.71428571428572 91.00529100529101,125.07936507936509 91.00529100529101,124.44444444444446 90.7936507936508,123.80952380952382 90.58201058201058,123.17460317460318 90.37037037037038,122.53968253968254 89.94708994708995,121.90476190476191 89.52380952380953,121.26984126984128 89.1005291005291,120.63492063492065 88.67724867724868,120.21164021164022 88.25396825396827,119.7883597883598 87.83068783068784,119.36507936507937 87.1957671957672,119.15343915343917 86.56084656084657,118.73015873015873 85.92592592592594,118.51851851851853 85.29100529100529,118.0952380952381 84.65608465608466,117.88359788359789 84.02116402116403,117.67195767195768 83.3862433862434,117.46031746031747 82.75132275132276,117.46031746031747 82.11640211640213,117.24867724867725 81.48148148148148,117.03703703703705 80.84656084656085,116.82539682539684 80.21164021164022,116.82539682539684 79.57671957671958,116.82539682539684 78.94179894179895,116.82539682539684 78.30687830687832,116.82539682539684 77.67195767195767,116.61375661375662 77.03703703703704,116.61375661375662 76.4021164021164,116.4021164021164 75.76719576719577,116.4021164021164 75.13227513227514,116.4021164021164 74.49735449735451,116.4021164021164 73.86243386243387,116.61375661375662 73.22751322751323,116.61375661375662 72.5925925925926,116.61375661375662 71.95767195767196,116.82539682539684 71.32275132275133,116.82539682539684 70.6878306878307,116.82539682539684 70.05291005291006,117.03703703703705 69.41798941798942,117.03703703703705 68.78306878306879,117.24867724867725 68.14814814814815,117.46031746031747 67.51322751322752,117.46031746031747 66.87830687830689,117.67195767195768 66.24338624338625,117.88359788359789 65.60846560846561,118.0952380952381 64.97354497354497,118.30687830687832 64.33862433862434,118.30687830687832 63.70370370370371,118.51851851851853 63.06878306878308,118.73015873015873 62.43386243386244,118.94179894179895 61.798941798941804,119.15343915343917 61.16402116402117,119.57671957671958 60.52910052910053,119.7883597883598 59.8941798941799,120.21164021164022 59.25925925925927,120.63492063492065 58.62433862433863,121.05820105820106 58.2010582010582,121.4814814814815 57.56613756613757,121.90476190476191 57.142857142857146,122.32804232804234 56.71957671957672,122.75132275132276 56.2962962962963,123.17460317460318 55.87301587301588,123.59788359788361 55.449735449735456,124.02116402116403 55.02645502645503,124.65608465608466 54.60317460317461,125.07936507936509 54.179894179894184,125.5026455026455 53.75661375661376,125.92592592592594 53.333333333333336,126.56084656084657 52.91005291005291,127.1957671957672 52.48677248677249,127.83068783068784 52.06349206349207,128.25396825396825 51.851851851851855,128.88888888888889 51.42857142857143,129.31216931216932 51.21693121693122,129.94708994708995 51.00529100529101,130.58201058201058 50.58201058201058,131.21693121693121 50.158730158730165,131.85185185185185 49.94708994708995,132.4867724867725 49.73544973544974,133.12169312169314 49.31216931216932,133.75661375661377 49.1005291005291,134.3915343915344 48.88888888888889,135.02645502645504 48.677248677248684,135.66137566137567 48.677248677248684,136.2962962962963 48.46560846560847,136.93121693121694 48.46560846560847,137.56613756613757 48.46560846560847,138.2010582010582 48.677248677248684,138.83597883597884 48.677248677248684,139.47089947089947 48.88888888888889,140.10582010582013 48.88888888888889,140.74074074074076 49.1005291005291,141.3756613756614 49.523809523809526,142.01058201058203 49.73544973544974,142.64550264550266 50.158730158730165,143.2804232804233 50.370370370370374,143.91534391534393 50.7936507936508,144.55026455026456 51.00529100529101,145.1851851851852 51.42857142857143,145.82010582010582 51.851851851851855,146.45502645502646 52.27513227513228,147.0899470899471 52.6984126984127,147.51322751322752 53.12169312169313,148.14814814814815 53.54497354497355,148.57142857142858 53.968253968253975,149.20634920634922 54.39153439153439,149.62962962962965 54.81481481481482,150.26455026455028 55.23809523809524,150.6878306878307 55.661375661375665,151.11111111111111 56.08465608465609,151.53439153439155 56.50793650793651,151.95767195767198 56.93121693121694,152.38095238095238 57.35449735449736,152.8042328042328 57.777777777777786,153.43915343915344 58.41269841269842,153.86243386243387 59.04761904761905,154.2857142857143 59.470899470899475,154.7089947089947 59.8941798941799,155.13227513227514 60.31746031746032,155.55555555555557 60.74074074074075,155.978835978836 61.16402116402117,156.4021164021164 61.58730158730159,156.82539682539684 62.01058201058201,157.46031746031747 62.43386243386244,158.0952380952381 62.85714285714286,158.73015873015873 63.06878306878308,159.36507936507937 63.280423280423285,160.0 63.280423280423285,160.63492063492066 63.492063492063494,161.2698412698413 63.492063492063494,161.90476190476193 63.70370370370371,162.53968253968256 63.492063492063494,163.1746031746032 63.280423280423285,163.80952380952382 63.06878306878308,164.44444444444446 63.06878306878308,165.0793650793651 62.64550264550265,165.50264550264552 62.22222222222223,166.13756613756615 61.798941798941804,166.56084656084658 61.16402116402117,166.984126984127 60.74074074074075,167.40740740740742 60.31746031746032,167.83068783068785 59.682539682539684,168.25396825396825 59.04761904761905,168.67724867724868 58.41269841269842,169.10052910052912 57.777777777777786,169.52380952380955 57.142857142857146,169.94708994708995 56.50793650793651,170.15873015873018 55.87301587301588,170.37037037037038 55.23809523809524,170.7936507936508 54.60317460317461,171.005291005291 53.968253968253975,171.21693121693124 53.333333333333336,171.42857142857144 52.6984126984127,171.64021164021165 52.06349206349207,171.64021164021165 51.42857142857143,171.85185185185188 50.7936507936508,172.06349206349208 50.158730158730165,172.06349206349208 49.523809523809526,172.27513227513228 48.88888888888889,172.27513227513228 48.25396825396826,172.27513227513228 47.61904761904762,172.27513227513228 46.98412698412699,172.4867724867725 46.349206349206355,172.4867724867725 45.714285714285715,172.4867724867725 45.07936507936508,172.4867724867725 44.44444444444445,172.6984126984127 43.80952380952381,172.6984126984127 43.17460317460318,172.6984126984127 42.539682539682545,172.6984126984127 41.904761904761905,172.6984126984127 41.26984126984127,172.6984126984127 40.63492063492064,172.6984126984127 40.0,172.6984126984127 39.36507936507937,172.6984126984127 38.730158730158735,172.4867724867725 38.095238095238095,172.4867724867725 37.46031746031746,172.4867724867725 36.82539682539683,172.27513227513228 36.19047619047619,172.27513227513228 35.55555555555556,172.27513227513228 34.920634920634924,172.06349206349208 34.28571428571429,172.06349206349208 33.65079365079365,171.85185185185188 33.01587301587302,171.64021164021165 32.38095238095239,171.64021164021165 31.746031746031747,171.42857142857144 31.111111111111114,171.21693121693124 30.476190476190478,171.005291005291 29.841269841269842,171.005291005291 29.20634920634921,170.7936507936508 28.571428571428573,170.58201058201058 27.93650793650794,170.37037037037038 27.301587301587304,170.15873015873018 26.666666666666668,169.94708994708995 26.031746031746035,169.73544973544975 25.3968253968254,169.73544973544975 24.761904761904763,169.31216931216932 24.12698412698413,169.10052910052912 23.492063492063494,168.8888888888889 22.857142857142858,168.67724867724868 22.222222222222225,168.46560846560848 21.58730158730159,168.46560846560848 20.952380952380953,168.04232804232805 20.31746031746032,167.83068783068785 19.682539682539684,167.61904761904762 16.296296296296298,166.56084656084658" style="fill:none; stroke:#00aa99; stroke-width:1.0"  /><polyline points="16.296296296296298,166.56084656084658 15.873015873015873,163.1746031746032 15.661375661375663,162.53968253968256 15.661375661375663,161.90476190476193 15.449735449735451,161.2698412698413 15.449735449735451,160.63492063492066 15.449735449735451,160.0 15.238095238095239,159.36507936507937 15.238095238095239,158.73015873015873 15.026455026455027,158.0952380952381 15.026455026455027,157.46031746031747 14.814814814814817,156.82539682539684 14.814814814814817,156.1904761904762 14.603174603174605,155.55555555555557 14.603174603174605,154.92063492063494 14.603174603174605,154.2857142857143 14.391534391534393,153.65079365079367 14.17989417989418,153.01587301587304 14.17989417989418,152.38095238095238 14.17989417989418,151.74603174603175 13.96825396825397,151.11111111111111 13.96825396825397,150.47619047619048 13.756613756613758,149.84126984126985 13.756613756613758,149.20634920634922 13.756613756613758,148.57142857142858 13.544973544973546,147.93650793650795 13.544973544973546,147.30158730158732 13.333333333333334,146.66666666666669 13.333333333333334,146.03174603174605 13.121693121693122,145.39682539682542 13.121693121693122,144.76190476190476 12.910052910052912,144.12698412698413 12.910052910052912,143.4920634920635 12.6984126984127,142.85714285714286 12.6984126984127,142.22222222222223 12.486772486772487,141.5873015873016 12.486772486772487,140.95238095238096 12.486772486772487,140.31746031746033 12.275132275132275,139.6825396825397 12.275132275132275,139.04761904761907 12.063492063492065,138.41269841269843 12.063492063492065,137.7777777777778 12.063492063492065,137.14285714285717 11.851851851851853,136.5079365079365 11.640211640211641,135.87301587301587 11.640211640211641,135.23809523809524 11.428571428571429,134.6031746031746 11.428571428571429,133.96825396825398 11.216931216931219,133.33333333333334 11.216931216931219,132.6984126984127 11.005291005291006,132.06349206349208 11.005291005291006,131.42857142857144 10.793650793650794,130.7936507936508 10.582010582010582,130.15873015873018 10.370370370370372,129.52380952380955 10.15873015873016,128.88888888888889 10.15873015873016,128.25396825396825 9.947089947089948,127.61904761904763 9.947089947089948,126.98412698412699 9.735449735449736,126.34920634920636 9.735449735449736,125.71428571428572 9.523809523809524,125.07936507936509 9.312169312169313,124.44444444444446 9.312169312169313,123.80952380952382 9.100529100529101,123.17460317460318 9.100529100529101,122.53968253968254 8.88888888888889,121.90476190476191 8.677248677248677,121.26984126984128 8.677248677248677,120.63492063492065 8.465608465608467,120.00000000000001 8.253968253968255,119.36507936507937 8.253968253968255,118.73015873015873 8.042328042328043,118.0952380952381 8.042328042328043,117.46031746031747 7.830687830687832,116.82539682539684 7.6190476190476195,116.1904761904762 7.407407407407408,115.55555555555557 7.407407407407408,114.92063492063492 7.195767195767196,114.28571428571429 6.984126984126985,113.65079365079366 6.772486772486773,113.01587301587303 6.560846560846561,112.3809523809524 6.34920634920635,111.74603174603176 6.137566137566138,111.11111111111111 6.137566137566138,110.47619047619048 5.9259259259259265,109.84126984126985 5.714285714285714,109.20634920634922 5.502645502645503,108.57142857142858 5.291005291005291,107.93650793650795 5.07936507936508,107.3015873015873 5.07936507936508,106.66666666666667 4.867724867724868,106.03174603174604 4.867724867724868,105.3968253968254 4.656084656084657,104.76190476190477 4.656084656084657,104.12698412698414 4.656084656084657,103.4920634920635 4.656084656084657,102.85714285714286 4.656084656084657,102.22222222222223 4.867724867724868,101.5873015873016 4.867724867724868,100.95238095238096 5.07936507936508,100.31746031746033 5.502645502645503,99.68253968253968 5.714285714285714,99.04761904761905 6.137566137566138,98.62433862433863 6.560846560846561,98.2010582010582 6.984126984126985,97.77777777777779 7.407407407407408,97.35449735449737 8.042328042328043,97.14285714285715 8.677248677248677,96.71957671957672 9.312169312169313,96.50793650793652 9.947089947089948,96.2962962962963 10.582010582010582,96.08465608465609 11.216931216931219,95.87301587301587 11.851851851851853,95.87301587301587 12.486772486772487,95.87301587301587 13.121693121693122,95.87301587301587 13.756613756613758,95.87301587301587 14.391534391534393,96.08465608465609 15.026455026455027,96.2962962962963 15.661375661375663,96.50793650793652 16.296296296296298,96.50793650793652 16.71957671957672,96.93121693121694 17.354497354497354,97.14285714285715 17.98941798941799,97.35449735449737 18.624338624338627,97.77777777777779 19.25925925925926,98.2010582010582 19.894179894179896,98.41269841269842 20.529100529100532,98.41269841269842 21.164021164021165,98.62433862433863 21.7989417989418,98.83597883597885 22.433862433862437,98.83597883597885 23.06878306878307,98.62433862433863 23.703703703703706,98.83597883597885 24.338624338624342,98.83597883597885 24.973544973544975,98.83597883597885 25.60846560846561,98.83597883597885 26.243386243386244,98.83597883597885 26.87830687830688,99.04761904761905 27.513227513227516,98.83597883597885 28.14814814814815,98.83597883597885 28.783068783068785,98.83597883597885 29.41798941798942,98.41269841269842 30.052910052910054,98.62433862433863 30.68783068783069,98.41269841269842 31.322751322751326,98.2010582010582 31.95767195767196,97.989417989418 32.38095238095239,97.56613756613757 33.01587301587302,97.35449735449737 33.43915343915344,96.93121693121694 34.074074074074076,96.50793650793652 34.4973544973545,95.87301587301587 34.920634920634924,95.44973544973546 35.13227513227513,94.81481481481482 35.55555555555556,94.39153439153439 35.97883597883598,93.75661375661376 36.19047619047619,93.12169312169313 36.613756613756614,92.69841269841271 36.82539682539683,92.06349206349208 37.248677248677254,91.42857142857143 37.46031746031746,90.7936507936508 37.67195767195768,90.15873015873017 38.095238095238095,89.52380952380953 38.30687830687831,88.8888888888889 38.51851851851852,88.25396825396827 38.730158730158735,87.61904761904762 38.94179894179894,86.98412698412699 39.15343915343916,86.34920634920636 39.15343915343916,85.71428571428572 39.36507936507937,85.07936507936509 39.36507936507937,84.44444444444446 39.36507936507937,83.80952380952381 39.57671957671958,83.17460317460318 39.57671957671958,82.53968253968254 39.57671957671958,81.90476190476191 39.57671957671958,81.26984126984128 39.57671957671958,80.63492063492065 39.36507936507937,80.0 39.36507936507937,79.36507936507937 39.36507936507937,78.73015873015873 39.15343915343916,78.0952380952381 39.15343915343916,77.46031746031747 38.94179894179894,76.82539682539684 38.94179894179894,76.19047619047619 38.730158730158735,75.55555555555556 38.51851851851852,74.92063492063492 38.30687830687831,74.28571428571429 38.095238095238095,73.65079365079366 37.883597883597886,73.01587301587303 37.67195767195768,72.38095238095238 37.46031746031746,71.74603174603175 37.03703703703704,71.11111111111111 36.82539682539683,70.47619047619048 36.613756613756614,69.84126984126985 36.19047619047619,69.20634920634922 35.76719576719577,68.57142857142858 35.55555555555556,67.93650793650794 35.13227513227513,67.51322751322752 34.70899470899471,66.87830687830689 34.28571428571429,66.45502645502646 33.86243386243387,65.82010582010582 33.43915343915344,65.3968253968254 33.01587301587302,64.97354497354497 32.38095238095239,64.55026455026456 31.95767195767196,64.12698412698413 31.322751322751326,63.70370370370371 30.68783068783069,63.280423280423285 30.052910052910054,62.85714285714286 29.41798941798942,62.64550264550265 28.783068783068785,62.43386243386244 28.14814814814815,62.01058201058201 27.513227513227516,61.798941798941804 26.87830687830688,61.58730158730159 26.243386243386244,61.58730158730159 25.60846560846561,61.37566137566138 24.973544973544975,61.37566137566138 24.338624338624342,61.16402116402117 23.703703703703706,61.16402116402117 23.06878306878307,61.16402116402117 22.433862433862437,61.16402116402117 21.7989417989418,61.16402116402117 21.164021164021165,61.16402116402117 20.529100529100532,61.37566137566138 19.894179894179896,61.58730158730159 19.25925925925926,61.58730158730159 18.624338624338627,61.798941798941804 17.98941798941799,62.01058201058201 17.354497354497354,62.22222222222223 16.71957671957672,62.64550264550265 16.084656084656086,63.06878306878308 15.449735449735451,63.280423280423285 15.026455026455027,63.70370370370371 14.391534391534393,64.12698412698413 13.96825396825397,64.55026455026456 13.544973544973546,64.97354497354497 12.910052910052912,65.3968253968254 12.486772486772487,65.82010582010582 12.063492063492065,66.24338624338625 11.428571428571429,66.66666666666667 10.793650793650794,66.87830687830689 10.15873015873016,67.3015873015873 9.523809523809524,67.72486772486774 8.88888888888889,67.93650793650794 8.253968253968255,68.14814814814815 7.6190476190476195,68.14814814814815 6.984126984126985,68.35978835978837 6.34920634920635,68.35978835978837 5.714285714285714,68.35978835978837 5.07936507936508,68.35978835978837 4.444444444444445,68.14814814814815 3.8095238095238098,67.93650793650794 3.174603174603175,67.72486772486774 2.53968253968254,67.3015873015873 1.9047619047619049,66.87830687830689 1.4814814814814816,66.45502645502646 1.0582010582010584,65.82010582010582 0.634920634920635,65.3968253968254 0.4232804232804233,64.76190476190477 0.4232804232804233,64.12698412698413 0.21164021164021166,63.492063492063494 0.21164021164021166,62.85714285714286 0.4232804232804233,62.22222222222223 0.4232804232804233,61.58730158730159 0.634920634920635,60.952380952380956 0.8465608465608466,60.31746031746032 0.8465608465608466,59.682539682539684 1.0582010582010584,59.04761904761905 1.4814814814814816,58.41269841269842 1.6931216931216932,57.777777777777786 1.9047619047619049,57.142857142857146 2.1164021164021167,56.50793650793651 2.3280423280423284,55.87301587301588 2.53968253968254,55.23809523809524 2.7513227513227516,54.60317460317461 2.9629629629629632,53.968253968253975 3.174603174603175,53.333333333333336 3.3862433862433865,52.6984126984127 3.597883597883598,52.06349206349207 4.021164021164021,51.42857142857143 4.2328042328042335,50.7936507936508 4.444444444444445,50.158730158730165 4.656084656084657,49.523809523809526 4.867724867724868,48.88888888888889 5.07936507936508,48.25396825396826 5.291005291005291,47.61904761904762 5.502645502645503,46.98412698412699 5.714285714285714,46.349206349206355 5.9259259259259265,45.714285714285715 6.137566137566138,45.07936507936508 6.137566137566138,44.44444444444445 6.34920634920635,43.80952380952381 6.560846560846561,43.17460317460318 6.772486772486773,42.539682539682545 6.984126984126985,41.904761904761905 7.195767195767196,41.26984126984127 7.407407407407408,40.63492063492064 7.407407407407408,40.0 7.6190476190476195,39.36507936507937 7.830687830687832,38.730158730158735 8.042328042328043,38.095238095238095 8.253968253968255,37.46031746031746 8.253968253968255,36.82539682539683 8.465608465608467,36.19047619047619 8.677248677248677,35.55555555555556 8.88888888888889,34.920634920634924 8.88888888888889,34.28571428571429 9.100529100529101,33.65079365079365 9.100529100529101,33.01587301587302 9.312169312169313,32.38095238095239 9.312169312169313,31.746031746031747 9.523809523809524,31.111111111111114 9.735449735449736,30.476190476190478 9.735449735449736,29.841269841269842 9.947089947089948,29.20634920634921 10.15873015873016,28.571428571428573 10.15873015873016,27.93650793650794 10.370370370370372,27.301587301587304 10.582010582010582,26.666666666666668 10.582010582010582,26.031746031746035 10.582010582010582,25.3968253968254 10.582010582010582,24.761904761904763 10.793650793650794,24.12698412698413 10.793650793650794,23.492063492063494 11.005291005291006,22.857142857142858 11.005291005291006,22.222222222222225 11.005291005291006,21.58730158730159 11.216931216931219,20.952380952380953 11.216931216931219,20.31746031746032 11.428571428571429,19.682539682539684 11.428571428571429,19.047619047619047 11.428571428571429,18.412698412698415 11.640211640211641,17.77777777777778 11.640211640211641,17.142857142857146 11.640211640211641,16.50793650793651 11.851851851851853,15.873015873015873 11.851851851851853,15.238095238095239 12.063492063492065,14.603174603174605 12.063492063492065,13.96825396825397 12.063492063492065,13.333333333333334 12.063492063492065,12.6984126984127 12.275132275132275,12.063492063492065 12.275132275132275,11.428571428571429 12.275132275132275,10.793650793650794 12.275132275132275,10.15873015873016 12.275132275132275,9.523809523809524 12.486772486772487,8.88888888888889 12.486772486772487,8.253968253968255 12.486772486772487,7.6190476190476195 12.486772486772487,6.984126984126985 12.6984126984127,4.021164021164021" style="fill:none; stroke:#3300bb; stroke-width:1.0"  /><circle cx="12.6984126984127" cy="4.021164021164021" r="2.0" style="fill:none; stroke:#000000aa; stroke-width:0.25" /><circle cx="167.83068783068785" cy="6.34920634920635" r="2.0" style="fill:none; stroke:#000000aa; stroke-width:0.25" /><circle cx="142.43386243386246" cy="157.46031746031747" r="2.0" style="fill:none; stroke:#000000aa; stroke-width:0.25" /><circle cx="16.296296296296298" cy="166.56084656084658" r="2.0" style="fill:none; stroke:#000000aa; stroke-width:0.25" /><circle cx="13.121693121693122" cy="4.021164021164021" r="2.0" style="fill:none; stroke:#ff3366aa; stroke-width:0.25" /><circle cx="167.83068783068785" cy="6.34920634920635" r="2.0" style="fill:none; stroke:#ff3366aa; stroke-width:0.25" /><circle cx="142.22222222222223" cy="157.03703703703704" r="2.0" style="fill:none; stroke:#ff3366aa; stroke-width:0.25" /><circle cx="16.296296296296298" cy="166.34920634920636" r="2.0" style="fill:none; stroke:#ff3366aa; stroke-width:0.25" /><polyline points="24.55026455026455,6.984126984126985 23.915343915343918,6.772486772486773 23.280423280423282,6.560846560846561 22.645502645502646,6.560846560846561 22.010582010582013,6.34920634920635 21.375661375661377,6.137566137566138 20.740740740740744,5.9259259259259265 20.105820105820108,5.9259259259259265 19.47089947089947,5.714285714285714 18.83597883597884,5.714285714285714 18.201058201058203,5.502645502645503 17.566137566137566,5.291005291005291 16.931216931216934,5.07936507936508 16.296296296296298,4.867724867724868" style="fill:none; stroke:#001100; stroke-width:1.0" /><polyline points="11.851851851851853,15.873015873015873 11.851851851851853,15.238095238095239 12.063492063492065,14.603174603174605 12.063492063492065,13.96825396825397 12.063492063492065,13.333333333333334 12.063492063492065,12.6984126984127 12.275132275132275,12.063492063492065 12.275132275132275,11.428571428571429 12.275132275132275,10.793650793650794 12.275132275132275,10.15873015873016 12.275132275132275,9.523809523809524 12.486772486772487,8.88888888888889 12.486772486772487,8.253968253968255 12.486772486772487,7.6190476190476195 12.486772486772487,6.984126984126985" style="fill:none; stroke:#000011; stroke-width:1.0" /><polyline points="167.83068783068785,18.412698412698415 167.83068783068785,17.77777777777778 167.83068783068785,17.142857142857146 167.61904761904762,16.50793650793651 167.61904761904762,15.873015873015873 167.61904761904762,15.238095238095239 167.61904761904762,14.603174603174605 167.61904761904762,13.96825396825397 167.61904761904762,13.333333333333334 167.83068783068785,12.6984126984127 167.83068783068785,12.063492063492065 167.83068783068785,11.428571428571429 167.83068783068785,10.793650793650794 167.83068783068785,10.15873015873016 167.83068783068785,9.523809523809524" style="fill:none; stroke:#001100; stroke-width:1.0" /><polyline points="155.978835978836,7.407407407407408 156.61375661375664,7.407407407407408 157.24867724867727,7.407407407407408 157.8835978835979,7.407407407407408 158.51851851851853,7.195767195767196 159.15343915343917,7.195767195767196 159.7883597883598,7.195767195767196 160.42328042328043,6.984126984126985 161.05820105820106,6.772486772486773 161.6931216931217,6.772486772486773 162.32804232804233,6.772486772486773 162.96296296296296,6.560846560846561 163.59788359788362,6.560846560846561 164.23280423280426,6.560846560846561 164.8677248677249,6.560846560846561" style="fill:none; stroke:#000011; stroke-width:1.0" /><polyline points="130.7936507936508,158.30687830687833 131.42857142857144,158.30687830687833 132.06349206349208,158.30687830687833 132.6984126984127,158.30687830687833 133.33333333333334,158.0952380952381 133.96825396825398,158.0952380952381 134.6031746031746,158.0952380952381 135.23809523809524,158.0952380952381 135.87301587301587,158.0952380952381 136.5079365079365,157.8835978835979 137.14285714285717,157.8835978835979 137.7777777777778,157.67195767195767 138.41269841269843,157.67195767195767 139.04761904761907,157.67195767195767" style="fill:none; stroke:#001100; stroke-width:1.0" /><polyline points="145.39682539682542,145.82010582010582 145.1851851851852,146.45502645502646 144.973544973545,147.0899470899471 144.973544973545,147.72486772486775 144.76190476190476,148.35978835978838 144.55026455026456,148.99470899470901 144.33862433862436,149.62962962962965 144.12698412698413,150.26455026455028 143.91534391534393,150.8994708994709 143.91534391534393,151.53439153439155 143.70370370370372,152.16931216931218 143.4920634920635,152.8042328042328 143.4920634920635,153.43915343915344 143.2804232804233,154.07407407407408" style="fill:none; stroke:#000011; stroke-width:1.0" /><polyline points="14.603174603174605,154.92063492063494 14.603174603174605,155.55555555555557 14.814814814814817,156.1904761904762 14.814814814814817,156.82539682539684 15.026455026455027,157.46031746031747 15.026455026455027,158.0952380952381 15.238095238095239,158.73015873015873 15.238095238095239,159.36507936507937 15.449735449735451,160.0 15.449735449735451,160.63492063492066 15.449735449735451,161.2698412698413 15.661375661375663,161.90476190476193 15.661375661375663,162.53968253968256 15.873015873015873,163.1746031746032" style="fill:none; stroke:#001100; stroke-width:1.0" /><polyline points="27.301587301587304,170.15873015873018 26.666666666666668,169.94708994708995 26.031746031746035,169.73544973544975 25.3968253968254,169.73544973544975 24.761904761904763,169.31216931216932 24.12698412698413,169.10052910052912 23.492063492063494,168.8888888888889 22.857142857142858,168.67724867724868 22.222222222222225,168.46560846560848 21.58730158730159,168.46560846560848 20.952380952380953,168.04232804232805 20.31746031746032,167.83068783068785 19.682539682539684,167.61904761904762" style="fill:none; stroke:#000011; stroke-width:1.0" /><polyline points="16.296296296296298,4.867724867724868 -4.2328042328042335,-0.4232804232804233" style="fill:none; stroke:#ffaa00; stroke-width:0.4" /><polyline points="12.486772486772487,6.984126984126985 13.96825396825397,-14.17989417989418" style="fill:none; stroke:#aaff00; stroke-width:0.4" /><polyline points="167.83068783068785,9.523809523809524 167.83068783068785,-11.640211640211641" style="fill:none; stroke:#ffaa00; stroke-width:0.4" /><polyline points="164.8677248677249,6.560846560846561 186.03174603174605,4.656084656084657" style="fill:none; stroke:#aaff00; stroke-width:0.4" /><polyline points="139.04761904761907,157.67195767195767 160.21164021164023,155.978835978836" style="fill:none; stroke:#ffaa00; stroke-width:0.4" /><polyline points="143.2804232804233,154.07407407407408 137.989417989418,174.6031746031746" style="fill:none; stroke:#aaff00; stroke-width:0.4" /><polyline points="15.873015873015873,163.1746031746032 19.047619047619047,184.12698412698415" style="fill:none; stroke:#ffaa00; stroke-width:0.4" /><polyline points="19.682539682539684,167.61904761904762 -0.4232804232804233,160.84656084656086" style="fill:none; stroke:#aaff00; stroke-width:0.4" /><circle cx="83.59788359788361" cy="84.44444444444446" r="1.0" style="fill:#444444; stroke-width:0" /><circle cx="80.42328042328043" cy="77.88359788359789" r="10.582010582010582" style="fill:#ff770022; stroke-width:0" /><circle cx="80.42328042328043" cy="77.88359788359789" r="1.0" style="fill:#ff7700; stroke-width:0" /></svg>