<?xml version="1.0" encoding="UTF-8" standalone="no"?><svg width="570.1587301587302" height="648.8888888888889" viewBox="-10 -10 210.05291005291008 236.2962962962963" xmlns="http://www.w3.org/2000/svg" xmlns:xlink="http://www.w3.org/1999/xlink"><polyline points="-0.21164021164021166,60.31746031746032 3.174603174603175,60.10582010582011 3.8095238095238098,60.10582010582011 4.444444444444445,60.10582010582011 5.07936507936508,60.10582010582011 5.714285714285714,59.8941798941799 6.34920634920635,59.8941798941799 6.984126984126985,59.8941798941799 7.6190476190476195,59.8941798941799 8.253968253968255,59.682539682539684 8.88888888888889,59.682539682539684 9.523809523809524,59.470899470899475 10.15873015873016,59.470899470899475 10.793650793650794,59.25925925925927 11.428571428571429,59.25925925925927 12.063492063492065,59.25925925925927 12.6984126984127,59.04761904761905 13.333333333333334,59.04761904761905 13.96825396825397,58.83597883597884 14.603174603174605,58.83597883597884 15.238095238095239,58.62433862433863 15.873015873015873,58.41269841269842 16.50793650793651,58.2010582010582 17.142857142857146,57.989417989417994 17.77777777777778,57.989417989417994 18.412698412698415,57.777777777777786 19.047619047619047,57.56613756613757 19.682539682539684,57.56613756613757 20.31746031746032,57.35449735449736 20.952380952380953,57.142857142857146 21.58730158730159,56.93121693121694 22.222222222222225,56.71957671957672 22.857142857142858,56.50793650793651 23.492063492063494,56.2962962962963 24.12698412698413,56.2962962962963 24.761904761904763,56.08465608465609 25.3968253968254,55.87301587301588 26.031746031746035,55.661375661375665 26.666666666666668,55.449735449735456 27.301587301587304,55.23809523809524 27.93650793650794,55.02645502645503 28.571428571428573,54.81481481481482 29.20634920634921,54.60317460317461 29.841269841269842,54.179894179894184 30.476190476190478,53.968253968253975 31.111111111111114,53.75661375661376 31.746031746031747,53.54497354497355 32.38095238095239,53.333333333333336 33.01587301587302,53.12169312169313 33.65079365079365,52.91005291005291 34.28571428571429,52.48677248677249 34.920634920634924,52.27513227513228 35.55555555555556,52.06349206349207 36.19047619047619,51.851851851851855 36.82539682539683,51.42857142857143 37.46031746031746,51.21693121693122 38.095238095238095,51.00529100529101 38.730158730158735,50.58201058201058 39.36507936507937,50.370370370370374 40.0,49.94708994708995 40.63492063492064,49.73544973544974 41.26984126984127,49.31216931216932 41.904761904761905,49.1005291005291 42.539682539682545,48.677248677248684 43.17460317460318,48.46560846560847 43.80952380952381,48.042328042328045 44.44444444444445,47.61904761904762 45.07936507936508,47.195767195767196 45.714285714285715,46.77248677248678 46.13756613756614,46.349206349206355 46.560846560846564,45.92592592592593 46.98412698412699,45.50264550264551 47.40740740740741,44.867724867724874 47.830687830687836,44.44444444444445 48.25396825396826,43.80952380952381 48.46560846560847,43.17460317460318 48.677248677248684,42.539682539682545 48.88888888888889,41.904761904761905 49.1005291005291,41.26984126984127 49.31216931216932,40.63492063492064 49.523809523809526,40.0 49.73544973544974,39.36507936507937 49.73544973544974,38.730158730158735 49.94708994708995,38.095238095238095 50.158730158730165,37.46031746031746 50.158730158730165,36.82539682539683 50.158730158730165,36.19047619047619 50.158730158730165,35.55555555555556 50.158730158730165,34.920634920634924 50.158730158730165,34.28571428571429 49.94708994708995,33.65079365079365 49.73544973544974,33.01587301587302 49.31216931216932,32.38095238095239 49.1005291005291,31.746031746031747 48.677248677248684,31.111111111111114 48.25396825396826,30.68783068783069 47.830687830687836,30.052910052910054 47.61904761904762,29.41798941798942 47.195767195767196,28.994708994708997 46.77248677248678,28.571428571428573 46.349206349206355,28.14814814814815 45.92592592592593,27.724867724867728 45.50264550264551,27.301587301587304 45.07936507936508,26.87830687830688 44.65608465608466,26.455026455026456 44.232804232804234,26.031746031746035 43.80952380952381,25.60846560846561 43.17460317460318,25.185185185185187 42.539682539682545,24.761904761904763 41.904761904761905,24.338624338624342 41.26984126984127,23.915343915343918 40.63492063492064,23.492063492063494 40.211640211640216,23.06878306878307 39.57671957671958,22.645502645502646 39.15343915343916,22.222222222222225 38.730158730158735,21.7989417989418 38.095238095238095,21.375661375661377 37.67195767195768,20.740740740740744 37.248677248677254,20.31746031746032 36.82539682539683,19.682539682539684 36.402116402116405,19.047619047619047 36.19047619047619,18.412698412698415 36.19047619047619,17.77777777777778 35.97883597883598,17.142857142857146 35.97883597883598,16.50793650793651 35.97883597883598,15.873015873015873 36.19047619047619,15.238095238095239 36.19047619047619,14.603174603174605 36.402116402116405,13.96825396825397 36.613756613756614,13.333333333333334 36.82539682539683,12.6984126984127 37.03703703703704,12.063492063492065 37.248677248677254,11.428571428571429 37.67195767195768,10.793650793650794 38.095238095238095,10.15873015873016 38.51851851851852,9.523809523809524 38.94179894179894,8.88888888888889 39.36507936507937,8.465608465608467 39.78835978835979,8.042328042328043 40.211640211640216,7.6190476190476195 40.63492063492064,6.984126984126985 41.058201058201064,6.560846560846561 41.48148148148149,6.137566137566138 42.11640211640212,5.714285714285714 42.75132275132275,5.291005291005291 43.386243386243386,4.867724867724868 44.021164021164026,4.444444444444445 44.65608465608466,4.021164021164021 45.29100529100529,3.8095238095238098 45.92592592592593,3.3862433862433865 46.560846560846564,3.174603174603175 47.195767195767196,2.9629629629629632 47.830687830687836,2.7513227513227516 48.46560846560847,2.53968253968254 49.1005291005291,2.3280423280423284 49.73544973544974,2.1164021164021167 50.370370370370374,1.9047619047619049 51.00529100529101,1.6931216931216932 51.42857142857143,1.26984126984127 52.06349206349207,1.26984126984127 52.6984126984127,0.8465608465608466 53.333333333333336,0.8465608465608466 53.968253968253975,0.8465608465608466 54.60317460317461,0.634920634920635 55.23809523809524,0.634920634920635 55.87301587301588,0.634920634920635 56.50793650793651,0.634920634920635 57.142857142857146,0.4232804232804233 57.777777777777786,0.4232804232804233 58.41269841269842,0.4232804232804233 59.04761904761905,0.4232804232804233 59.682539682539684,0.4232804232804233 60.31746031746032,0.4232804232804233 60.952380952380956,0.4232804232804233 61.58730158730159,0.4232804232804233 62.22222222222223,0.634920634920635 62.85714285714286,0.8465608465608466 63.492063492063494,1.0582010582010584 64.12698412698413,1.26984126984127 64.76190476190477,1.4814814814814816 65.3968253968254,1.9047619047619049 66.03174603174604,2.1164021164021167 66.66666666666667,2.53968253968254 67.3015873015873,2.7513227513227516 67.72486772486774,3.174603174603175 68.35978835978837,3.597883597883598 68.994708994709,4.021164021164021 69.41798941798942,4.444444444444445 69.84126984126985,4.867724867724868 70.26455026455027,5.291005291005291 70.6878306878307,5.714285714285714 71.11111111111111,6.34920634920635 71.53439153439155,6.984126984126985 71.95767195767196,7.407407407407408 72.16931216931218,8.042328042328043 72.38095238095238,8.677248677248677 72.38095238095238,9.312169312169313 72.38095238095238,9.947089947089948 72.38095238095238,10.582010582010582 72.5925925925926,11.216931216931219 72.38095238095238,11.851851851851853 72.38095238095238,12.486772486772487 72.38095238095238,13.121693121693122 72.38095238095238,13.756613756613758 72.16931216931218,14.391534391534393 72.16931216931218,15.026455026455027 71.95767195767196,15.661375661375663 71.74603174603175,16.296296296296298 71.53439153439155,16.931216931216934 71.32275132275133,17.566137566137566 71.11111111111111,18.201058201058203 70.8994708994709,18.83597883597884 70.6878306878307,19.47089947089947 70.6878306878307,20.105820105820108 70.47619047619048,20.740740740740744 70.05291005291006,21.375661375661377 70.05291005291006,22.010582010582013 69.62962962962963,22.645502645502646 69.41798941798942,23.280423280423282 69.20634920634922,23.915343915343918 68.994708994709,24.55026455026455 68.78306878306879,25.185185185185187 68.78306878306879,25.820105820105823 68.57142857142858,26.455026455026456 68.57142857142858,27.089947089947092 68.35978835978837,27.724867724867728 68.35978835978837,28.35978835978836 68.35978835978837,28.994708994708997 68.35978835978837,29.629629629629633 68.35978835978837,30.264550264550266 68.57142857142858,30.899470899470902 68.78306878306879,31.53439153439154 68.994708994709,32.16931216931217 69.20634920634922,32.804232804232804 69.62962962962963,33.43915343915344 69.84126984126985,34.074074074074076 70.26455026455027,34.70899470899471 70.6878306878307,35.13227513227513 71.11111111111111,35.55555555555556 71.53439153439155,36.19047619047619 72.16931216931218,36.613756613756614 72.5925925925926,37.03703703703704 73.22751322751323,37.46031746031746 73.86243386243387,37.67195767195768 74.49735449735451,37.883597883597886 75.13227513227514,38.095238095238095 75.76719576719577,38.30687830687831 76.4021164021164,38.30687830687831 77.03703703703704,38.30687830687831 77.67195767195767,38.30687830687831 78.30687830687832,38.095238095238095 78.94179894179895,38.095238095238095 79.57671957671958,37.883597883597886 80.21164021164022,37.67195767195768 80.84656084656085,37.67195767195768 81.48148148148148,37.46031746031746 82.11640211640213,37.248677248677254 82.75132275132276,37.03703703703704 83.3862433862434,36.82539682539683 84.02116402116403,36.613756613756614 84.65608465608466,36.402116402116405 85.29100529100529,36.19047619047619 85.92592592592594,35.97883597883598 86.34920634920636,35.55555555555556 86.98412698412699,35.34391534391535 87.61904761904762,35.13227513227513 88.25396825396827,34.920634920634924 88.8888888888889,34.920634920634924 89.52380952380953,34.4973544973545 90.15873015873017,34.28571428571429 90.7936507936508,34.074074074074076 91.42857142857143,33.86243386243387 92.06349206349208,33.65079365079365 92.69841269841271,33.65079365079365 93.33333333333334,33.22751322751323 93.96825396825398,33.01587301587302 94.60317460317461,32.804232804232804 95.23809523809524,32.592592592592595 95.87301587301587,32.38095238095239 96.50793650793652,32.16931216931217 97.14285714285715,31.95767195767196 97.77777777777779,31.53439153439154 98.41269841269842,31.322751322751326 99.04761904761905,31.111111111111114 99.68253968253968,30.899470899470902 100.31746031746033,30.68783068783069 100.95238095238096,30.264550264550266 101.5873015873016,30.052910052910054 102.22222222222223,29.841269841269842 102.85714285714286,29.629629629629633 103.4920634920635,29.41798941798942 104.12698412698414,28.994708994708997 104.76190476190477,28.783068783068785 105.3968253968254,28.571428571428573 106.03174603174604,28.14814814814815 106.66666666666667,27.93650793650794 107.3015873015873,27.724867724867728 107.93650793650795,27.513227513227516 108.57142857142858,27.089947089947092 109.20634920634922,26.87830687830688 109.84126984126985,26.455026455026456 110.47619047619048,26.243386243386244 111.11111111111111,26.031746031746035 111.74603174603176,25.820105820105823 112.3809523809524,25.3968253968254 113.01587301587303,25.185185185185187 113.65079365079366,24.761904761904763 114.28571428571429,24.55026455026455 114.92063492063492,24.12698412698413 115.55555555555557,23.915343915343918 116.1904761904762,23.703703703703706 116.82539682539684,23.280423280423282 117.46031746031747,23.06878306878307 118.0952380952381,22.645502645502646 118.73015873015873,22.433862433862437 119.36507936507937,22.222222222222225 119.7883597883598,21.7989417989418 120.42328042328043,21.58730158730159 121.05820105820106,21.164021164021165 121.4814814814815,20.740740740740744 122.11640211640213,20.529100529100532 122.75132275132276,20.105820105820108 123.3862433862434,19.894179894179896 124.02116402116403,19.47089947089947 124.65608465608466,19.25925925925926 125.2910052910053,18.83597883597884 125.92592592592594,18.624338624338627 126.56084656084657,18.201058201058203 127.1957671957672,17.98941798941799 127.83068783068784,17.566137566137566 128.46560846560848,17.354497354497354 129.10052910052912,16.931216931216934 129.73544973544975,16.71957671957672 130.37037037037038,16.296296296296298 131.005291005291,16.084656084656086 131.42857142857144,15.661375661375663 132.06349206349208,15.449735449735451 132.4867724867725,15.026455026455027 133.12169312169314,14.814814814814817 133.75661375661377,14.391534391534393 134.3915343915344,13.96825396825397 137.989417989418,12.063492063492065" style="fill:none; stroke:#cc0000; stroke-width:1.0"  /><polyline points="137.989417989418,12.063492063492065 137.7777777777778,15.873015873015873 137.7777777777778,16.50793650793651 137.7777777777778,17.142857142857146 137.7777777777778,17.77777777777778 137.7777777777778,18.412698412698415 137.7777777777778,19.047619047619047 137.7777777777778,19.682539682539684 137.56613756613757,20.31746031746032 137.56613756613757,20.952380952380953 137.56613756613757,21.58730158730159 137.56613756613757,22.222222222222225 137.56613756613757,22.857142857142858 137.7777777777778,23.492063492063494 137.56613756613757,24.12698412698413 137.56613756613757,24.761904761904763 137.56613756613757,25.3968253968254 137.56613756613757,26.031746031746035 137.56613756613757,26.666666666666668 137.56613756613757,27.301587301587304 137.56613756613757,27.93650793650794 137.56613756613757,28.571428571428573 137.56613756613757,29.20634920634921 137.56613756613757,29.841269841269842 137.56613756613757,30.476190476190478 137.56613756613757,31.111111111111114 137.56613756613757,31.746031746031747 137.56613756613757,32.38095238095239 137.56613756613757,33.01587301587302 137.56613756613757,33.65079365079365 137.35449735449737,34.28571428571429 137.35449735449737,34.920634920634924 137.35449735449737,35.55555555555556 137.35449735449737,36.19047619047619 137.35449735449737,36.82539682539683 137.35449735449737,37.46031746031746 137.14285714285717,38.095238095238095 137.14285714285717,38.730158730158735 137.14285714285717,39.36507936507937 137.14285714285717,40.0 136.93121693121694,40.63492063492064 136.93121693121694,41.26984126984127 137.14285714285717,41.904761904761905 137.14285714285717,42.539682539682545 137.14285714285717,43.17460317460318 136.93121693121694,43.80952380952381 136.93121693121694,44.44444444444445 136.93121693121694,45.07936507936508 136.93121693121694,45.714285714285715 136.93121693121694,46.349206349206355 136.93121693121694,46.98412698412699 136.93121693121694,47.61904761904762 136.93121693121694,48.25396825396826 137.14285714285717,48.88888888888889 137.14285714285717,49.523809523809526 137.14285714285717,50.158730158730165 137.35449735449737,50.7936507936508 137.35449735449737,51.42857142857143 137.56613756613757,52.06349206349207 137.7777777777778,52.6984126984127 137.7777777777778,53.333333333333336 137.989417989418,53.968253968253975 138.2010582010582,54.60317460317461 138.41269841269843,55.23809523809524 138.83597883597884,55.87301587301588 139.25925925925927,56.50793650793651 139.6825396825397,57.142857142857146 140.10582010582013,57.777777777777786 140.52910052910053,58.2010582010582 140.95238095238096,58.62433862433863 141.3756613756614,59.04761904761905 142.01058201058203,59.25925925925927 142.43386243386246,59.682539682539684 143.0687830687831,59.8941798941799 143.70370370370372,60.10582010582011 144.33862433862436,60.10582010582011 144.973544973545,60.31746031746032 145.60846560846562,60.10582010582011 146.24338624338625,60.10582010582011 146.8783068783069,60.10582010582011 147.51322751322752,59.682539682539684 148.14814814814815,59.470899470899475 148.78306878306879,59.25925925925927 149.41798941798942,58.83597883597884 150.05291005291005,58.41269841269842 150.47619047619048,57.989417989417994 151.11111111111111,57.56613756613757 151.53439153439155,57.142857142857146 151.95767195767198,56.71957671957672 152.38095238095238,56.08465608465609 152.8042328042328,55.661375661375665 153.22751322751324,55.23809523809524 153.65079365079367,54.60317460317461 154.07407407407408,53.968253968253975 154.4973544973545,53.54497354497355 154.7089947089947,52.91005291005291 155.13227513227514,52.48677248677249 155.55555555555557,51.851851851851855 155.76719576719577,51.21693121693122 156.1904761904762,50.7936507936508 156.61375661375664,50.158730158730165 157.03703703703704,49.523809523809526 157.46031746031747,48.88888888888889 157.8835978835979,48.25396825396826 158.30687830687833,47.61904761904762 158.73015873015873,47.195767195767196 159.15343915343917,46.560846560846564 159.5767195767196,45.92592592592593 160.0,45.50264550264551 160.42328042328043,45.07936507936508 160.84656084656086,44.65608465608466 161.2698412698413,44.232804232804234 161.90476190476193,43.80952380952381 162.53968253968256,43.5978835978836 162.96296296296296,43.17460317460318 163.59788359788362,42.75132275132275 164.23280423280426,42.539682539682545 164.8677248677249,42.11640211640212 165.50264550264552,41.904761904761905 166.13756613756615,41.6931216931217 166.7724867724868,41.48148148148149 167.40740740740742,41.48148148148149 168.04232804232805,41.26984126984127 168.67724867724868,41.058201058201064 169.31216931216932,41.058201058201064 169.94708994708995,41.26984126984127 170.37037037037038,41.904761904761905 171.005291005291,42.11640211640212 171.64021164021165,42.539682539682545 172.27513227513228,42.96296296296297 172.6984126984127,43.386243386243386 173.12169312169314,43.80952380952381 173.54497354497354,44.44444444444445 173.96825396825398,44.867724867724874 174.3915343915344,45.29100529100529 174.81481481481484,45.714285714285715 175.23809523809524,46.13756613756614 175.66137566137567,46.77248677248678 176.0846560846561,47.40740740740741 176.50793650793653,47.830687830687836 176.93121693121694,48.46560846560847 177.35449735449737,49.1005291005291 177.7777777777778,49.523809523809526 178.2010582010582,50.158730158730165 178.62433862433863,50.7936507936508 179.04761904761907,51.42857142857143 179.25925925925927,52.06349206349207 179.6825396825397,52.48677248677249 180.10582010582013,53.12169312169313 180.31746031746033,53.75661375661376 180.74074074074076,54.39153439153439 181.16402116402116,55.02645502645503 181.3756613756614,55.661375661375665 181.5873015873016,56.2962962962963 182.01058201058203,56.71957671957672 182.22222222222223,57.35449735449736 182.64550264550266,57.989417989417994 182.85714285714286,58.62433862433863 183.0687830687831,59.25925925925927 183.4920634920635,59.8941798941799 183.70370370370372,60.52910052910053 183.91534391534393,61.16402116402117 183.91534391534393,61.798941798941804 184.33862433862436,62.43386243386244 184.55026455026456,63.06878306878308 184.7619047619048,63.70370370370371 184.973544973545,64.33862433862434 185.39682539682542,64.97354497354497 185.60846560846562,65.60846560846561 185.82010582010582,66.24338624338625 186.03174603174605,66.87830687830689 186.24338624338625,67.51322751322752 186.45502645502646,68.14814814814815 186.66666666666669,68.78306878306879 186.8783068783069,69.41798941798942 187.08994708994712,70.05291005291006 187.08994708994712,70.6878306878307 187.51322751322752,71.32275132275133 187.51322751322752,71.95767195767196 187.72486772486775,72.5925925925926 187.93650793650795,73.22751322751323 188.14814814814815,73.86243386243387 188.14814814814815,74.49735449735451 188.35978835978838,75.13227513227514 188.35978835978838,75.76719576719577 188.57142857142858,76.4021164021164 188.99470899470901,76.82539682539684 188.99470899470901,77.46031746031747 189.20634920634922,78.0952380952381 189.20634920634922,78.73015873015873 189.41798941798945,79.36507936507937 189.41798941798945,80.0 189.62962962962965,80.63492063492065 189.62962962962965,81.26984126984128 189.62962962962965,81.90476190476191 189.62962962962965,82.53968253968254 189.62962962962965,83.17460317460318 189.62962962962965,83.80952380952381 189.62962962962965,84.44444444444446 189.62962962962965,85.07936507936509 189.41798941798945,85.71428571428572 189.41798941798945,86.34920634920636 189.20634920634922,86.98412698412699 189.20634920634922,87.61904761904762 188.99470899470901,88.25396825396827 188.78306878306879,88.8888888888889 188.35978835978838,89.52380952380953 188.14814814814815,90.15873015873017 187.72486772486775,90.58201058201058 187.30158730158732,91.00529100529101 186.8783068783069,91.42857142857143 186.24338624338625,91.64021164021165 185.60846560846562,92.06349206349208 184.973544973545,92.06349206349208 184.33862433862436,92.27513227513228 183.70370370370372,92.27513227513228 183.0687830687831,92.4867724867725 182.43386243386246,92.4867724867725 181.79894179894183,92.4867724867725 181.16402116402116,92.4867724867725 180.52910052910053,92.27513227513228 179.8941798941799,92.27513227513228 179.25925925925927,92.06349206349208 178.62433862433863,92.06349206349208 177.989417989418,91.85185185185186 177.35449735449737,91.64021164021165 176.71957671957674,91.42857142857143 176.0846560846561,91.21693121693123 175.44973544973547,91.00529100529101 174.81481481481484,90.7936507936508 174.1798941798942,90.58201058201058 173.54497354497354,90.15873015873017 172.9100529100529,89.94708994708995 172.27513227513228,89.52380952380953 171.64021164021165,89.1005291005291 171.005291005291,88.67724867724868 170.37037037037038,88.46560846560847 169.73544973544975,88.04232804232805 169.10052910052912,87.61904761904762 168.46560846560848,87.40740740740742 168.04232804232805,86.98412698412699 167.40740740740742,86.77248677248677 166.7724867724868,86.34920634920636 166.13756613756615,86.13756613756614 165.50264550264552,85.71428571428572 164.8677248677249,85.5026455026455 164.23280423280426,85.29100529100529 163.59788359788362,85.07936507936509 162.96296296296296,84.86772486772487 162.32804232804233,84.65608465608466 161.6931216931217,84.65608465608466 161.05820105820106,84.44444444444446 160.42328042328043,84.44444444444446 159.7883597883598,84.65608465608466 159.15343915343917,84.86772486772487 158.51851851851853,85.07936507936509 157.8835978835979,85.29100529100529 157.24867724867727,85.71428571428572 156.61375661375664,86.13756613756614 156.1904761904762,86.56084656084657 155.978835978836,87.1957671957672 155.55555555555557,87.61904761904762 155.13227513227514,88.04232804232805 154.92063492063494,88.67724867724868 154.7089947089947,89.31216931216932 154.4973544973545,89.94708994708995 154.2857142857143,90.58201058201058 154.2857142857143,91.21693121693123 154.2857142857143,91.85185185185186 154.2857142857143,92.4867724867725 154.2857142857143,93.12169312169313 154.2857142857143,93.75661375661376 154.4973544973545,94.39153439153439 154.4973544973545,95.02645502645504 154.7089947089947,95.66137566137567 154.92063492063494,96.2962962962963 154.92063492063494,96.93121693121694 155.13227513227514,97.56613756613757 155.34391534391534,98.2010582010582 155.34391534391534,98.83597883597885 155.55555555555557,99.47089947089948 155.76719576719577,100.10582010582011 155.76719576719577,100.74074074074075 155.978835978836,101.37566137566138 156.1904761904762,102.01058201058201 156.1904761904762,102.64550264550266 156.4021164021164,103.28042328042329 156.61375661375664,103.91534391534393 156.82539682539684,104.55026455026456 156.82539682539684,105.18518518518519 157.03703703703704,105.82010582010582 157.24867724867727,106.45502645502647 157.46031746031747,107.0899470899471 157.67195767195767,107.72486772486774 157.67195767195767,108.35978835978837 157.8835978835979,108.994708994709 158.0952380952381,109.62962962962963 158.30687830687833,110.26455026455027 158.30687830687833,110.89947089947091 158.51851851851853,111.53439153439155 158.94179894179896,111.95767195767196 158.94179894179896,112.5925925925926 159.15343915343917,113.22751322751324 159.36507936507937,113.86243386243387 159.5767195767196,114.49735449735451 159.5767195767196,115.13227513227514 159.7883597883598,115.76719576719577 160.0,116.4021164021164 160.21164021164023,117.03703703703705 160.42328042328043,117.67195767195768 160.63492063492066,118.30687830687832 160.63492063492066,118.94179894179895 160.84656084656086,119.57671957671958 161.05820105820106,120.21164021164022 161.2698412698413,120.84656084656086 161.4814814814815,121.4814814814815 161.6931216931217,122.11640211640213 161.90476190476193,122.75132275132276 161.90476190476193,123.3862433862434 162.11640211640213,124.02116402116403 162.32804232804233,124.65608465608466 162.53968253968256,125.2910052910053 162.75132275132276,125.92592592592594 162.96296296296296,126.56084656084657 163.1746031746032,127.1957671957672 163.3862433862434,127.83068783068784 163.59788359788362,128.46560846560848 163.80952380952382,129.10052910052912 164.02116402116403,129.73544973544975 164.02116402116403,130.37037037037038 164.44444444444446,131.005291005291 164.65608465608466,131.64021164021165 164.8677248677249,132.27513227513228 165.0793650793651,132.9100529100529 165.2910052910053,133.54497354497354 166.13756613756615,136.2962962962963" style="fill:none; stroke:#999900; stroke-width:1.0"  /><polyline points="166.13756613756615,136.2962962962963 163.1746031746032,137.14285714285717 162.53968253968256,137.14285714285717 161.90476190476193,137.14285714285717 161.2698412698413,137.35449735449737 160.63492063492066,137.56613756613757 160.0,137.56613756613757 159.36507936507937,137.7777777777778 158.73015873015873,137.989417989418 158.0952380952381,138.2010582010582 157.46031746031747,138.41269841269843 156.82539682539684,138.62433862433863 156.1904761904762,138.83597883597884 155.55555555555557,139.25925925925927 154.92063492063494,139.47089947089947 154.2857142857143,139.6825396825397 153.65079365079367,139.8941798941799 153.01587301587304,140.10582010582013 152.38095238095238,140.31746031746033 151.74603174603175,140.52910052910053 151.11111111111111,140.95238095238096 150.47619047619048,140.95238095238096 149.84126984126985,141.3756613756614 149.20634920634922,141.5873015873016 148.57142857142858,142.01058201058203 147.93650793650795,142.22222222222223 147.30158730158732,142.64550264550266 146.66666666666669,142.85714285714286 146.03174603174605,143.2804232804233 145.39682539682542,143.70370370370372 144.76190476190476,143.91534391534393 144.12698412698413,144.33862433862436 143.4920634920635,144.55026455026456 142.85714285714286,144.973544973545 142.22222222222223,145.39682539682542 141.5873015873016,145.82010582010582 140.95238095238096,146.24338624338625 140.31746031746033,146.66666666666669 139.8941798941799,147.0899470899471 139.25925925925927,147.51322751322752 138.62433862433863,147.93650793650795 137.989417989418,148.35978835978838 137.35449735449737,148.78306878306879 136.93121693121694,149.20634920634922 136.5079365079365,149.62962962962965 135.87301587301587,150.05291005291005 135.44973544973547,150.47619047619048 134.81481481481484,150.8994708994709 134.3915343915344,151.32275132275134 133.96825396825398,151.74603174603175 133.33333333333334,152.16931216931218 132.9100529100529,152.5925925925926 132.4867724867725,153.01587301587304 132.06349206349208,153.43915343915344 131.64021164021165,153.86243386243387 131.21693121693121,154.2857142857143 130.58201058201058,154.7089947089947 130.15873015873018,155.34391534391534 129.73544973544975,155.76719576719577 129.31216931216932,156.1904761904762 128.88888888888889,156.82539682539684 128.46560846560848,157.46031746031747 128.04232804232805,157.8835978835979 127.61904761904763,158.51851851851853 127.1957671957672,158.94179894179896 126.77248677248679,159.5767195767196 126.34920634920636,160.0 125.92592592592594,160.63492063492066 125.5026455026455,161.2698412698413 125.07936507936509,161.6931216931217 124.65608465608466,162.32804232804233 124.23280423280424,162.75132275132276 123.80952380952382,163.3862433862434 123.3862433862434,164.02116402116403 122.96296296296298,164.65608465608466 122.75132275132276,165.2910052910053 122.53968253968254,165.92592592592595 122.32804232804234,166.56084656084658 122.11640211640213,167.19576719576722 122.11640211640213,167.83068783068785 122.32804232804234,168.46560846560848 122.32804232804234,169.10052910052912 122.53968253968254,169.73544973544975 122.96296296296298,170.37037037037038 123.17460317460318,171.005291005291 123.59788359788361,171.42857142857144 124.02116402116403,172.06349206349208 124.44444444444446,172.4867724867725 125.07936507936509,172.9100529100529 125.71428571428572,173.33333333333334 126.34920634920636,173.54497354497354 126.98412698412699,173.75661375661377 127.61904761904763,173.96825396825398 128.25396825396825,174.1798941798942 128.88888888888889,174.3915343915344 129.52380952380955,174.3915343915344 130.15873015873018,174.81481481481484 130.7936507936508,174.81481481481484 131.42857142857144,174.81481481481484 132.06349206349208,174.81481481481484 132.6984126984127,175.23809523809524 133.33333333333334,175.23809523809524 133.96825396825398,175.23809523809524 134.6031746031746,175.23809523809524 135.23809523809524,175.23809523809524 135.87301587301587,175.23809523809524 136.5079365079365,175.44973544973547 137.14285714285717,175.44973544973547 137.7777777777778,175.44973544973547 138.41269841269843,175.66137566137567 139.04761904761907,175.66137566137567 139.6825396825397,175.66137566137567 140.31746031746033,175.87301587301587 140.95238095238096,176.0846560846561 141.5873015873016,176.2962962962963 142.22222222222223,176.50793650793653 142.85714285714286,176.71957671957674 143.4920634920635,176.93121693121694 143.91534391534393,177.35449735449737 144.55026455026456,177.56613756613757 145.1851851851852,177.989417989418 145.82010582010582,178.41269841269843 146.45502645502646,178.83597883597884 146.8783068783069,179.25925925925927 147.30158730158732,179.6825396825397 147.72486772486775,180.10582010582013 148.14814814814815,180.52910052910053 148.57142857142858,181.16402116402116 148.99470899470901,181.5873015873016 149.41798941798942,182.01058201058203 149.84126984126985,182.64550264550266 150.26455026455028,183.2804232804233 150.47619047619048,183.91534391534393 150.6878306878307,184.55026455026456 150.8994708994709,185.1851851851852 151.11111111111111,185.82010582010582 151.32275132275134,186.45502645502646 151.53439153439155,187.08994708994712 151.53439153439155,187.72486772486775 151.53439153439155,188.35978835978838 151.74603174603175,188.99470899470901 151.53439153439155,189.62962962962965 151.53439153439155,190.26455026455028 151.53439153439155,190.8994708994709 151.32275132275134,191.53439153439155 151.32275132275134,192.16931216931218 151.11111111111111,192.8042328042328 150.8994708994709,193.43915343915344 150.6878306878307,194.07407407407408 150.47619047619048,194.70899470899474 150.26455026455028,195.34391534391537 149.84126984126985,195.978835978836 149.62962962962965,196.61375661375664 149.20634920634922,197.24867724867727 148.78306878306879,197.8835978835979 148.35978835978838,198.51851851851853 147.93650793650795,199.15343915343917 147.72486772486775,199.7883597883598 147.30158730158732,200.21164021164023 146.8783068783069,200.63492063492066 146.45502645502646,201.2698412698413 146.03174603174605,201.90476190476193 145.60846560846562,202.32804232804233 145.1851851851852,202.75132275132276 144.76190476190476,203.1746031746032 144.33862433862436,203.59788359788362 143.91534391534393,204.02116402116403 143.4920634920635,204.44444444444446 143.0687830687831,204.8677248677249 142.64550264550266,205.29100529100532 142.22222222222223,205.71428571428572 141.5873015873016,206.13756613756615 141.16402116402116,206.56084656084658 140.52910052910053,206.984126984127 140.10582010582013,207.40740740740742 139.47089947089947,207.83068783068785 138.83597883597884,208.25396825396828 138.2010582010582,208.67724867724868 137.56613756613757,209.10052910052912 136.93121693121694,209.52380952380955 136.2962962962963,209.94708994708995 135.66137566137567,210.15873015873018 135.23809523809524,210.5820105820106 134.6031746031746,210.7936507936508 133.96825396825398,211.21693121693124 133.33333333333334,211.64021164021165 132.6984126984127,211.85185185185188 132.06349206349208,212.27513227513228 131.42857142857144,212.4867724867725 130.7936507936508,212.6984126984127 130.15873015873018,212.91005291005294 129.52380952380955,213.12169312169314 128.88888888888889,213.54497354497357 128.25396825396825,213.75661375661377 127.61904761904763,213.75661375661377 126.98412698412699,213.96825396825398 126.34920634920636,214.1798941798942 125.71428571428572,214.3915343915344 125.07936507936509,214.3915343915344 124.44444444444446,214.6031746031746 123.80952380952382,214.6031746031746 123.17460317460318,214.81481481481484 122.53968253968254,214.81481481481484 121.90476190476191,215.02645502645504 121.26984126984128,215.23809523809524 120.63492063492065,215.44973544973547 120.00000000000001,215.44973544973547 119.36507936507937,215.44973544973547 118.73015873015873,215.66137566137567 118.0952380952381,215.66137566137567 117.46031746031747,215.66137566137567 116.82539682539684,215.8730158730159 116.1904761904762,215.8730158730159 115.55555555555557,215.66137566137567 114.92063492063492,215.66137566137567 114.28571428571429,215.66137566137567 113.65079365079366,215.44973544973547 113.01587301587303,215.44973544973547 112.3809523809524,215.23809523809524 111.74603174603176,215.02645502645504 111.11111111111111,214.81481481481484 110.47619047619048,214.3915343915344 109.84126984126985,213.96825396825398 109.20634920634922,213.54497354497357 108.57142857142858,213.12169312169314 107.93650793650795,212.6984126984127 107.51322751322752,212.27513227513228 107.0899470899471,211.85185185185188 106.66666666666667,211.42857142857144 106.24338624338625,210.7936507936508 105.82010582010582,210.37037037037038 105.3968253968254,209.73544973544975 105.18518518518519,209.10052910052912 104.76190476190477,208.46560846560848 104.55026455026456,207.83068783068785 104.33862433862434,207.19576719576722 104.12698412698414,206.56084656084658 103.91534391534393,205.92592592592595 103.91534391534393,205.29100529100532 103.70370370370371,204.65608465608466 103.70370370370371,204.02116402116403 103.70370370370371,203.3862433862434 103.70370370370371,202.75132275132276 103.91534391534393,202.11640211640213 103.91534391534393,201.4814814814815 104.12698412698414,200.84656084656086 104.12698412698414,200.21164021164023 104.12698412698414,199.5767195767196 104.33862433862434,198.94179894179896 104.55026455026456,198.30687830687833 104.55026455026456,197.6719576719577 104.55026455026456,197.03703703703704 104.76190476190477,196.4021164021164 104.76190476190477,195.76719576719577 104.97354497354497,195.13227513227514 104.97354497354497,194.4973544973545 104.97354497354497,193.86243386243387 104.97354497354497,193.22751322751324 104.97354497354497,192.5925925925926 104.97354497354497,191.95767195767198 104.97354497354497,191.32275132275134 104.76190476190477,190.6878306878307 104.76190476190477,190.05291005291008 104.55026455026456,189.41798941798945 104.33862433862434,188.78306878306879 104.12698412698414,188.14814814814815 103.91534391534393,187.51322751322752 103.4920634920635,186.8783068783069 103.28042328042329,186.24338624338625 102.85714285714286,185.82010582010582 102.43386243386244,185.39682539682542 102.01058201058201,184.7619047619048 101.5873015873016,184.33862433862436 100.95238095238096,184.12698412698415 100.52910052910053,183.70370370370372 99.8941798941799,183.4920634920635 99.25925925925927,183.2804232804233 98.62433862433863,183.0687830687831 97.989417989418,183.0687830687831 97.35449735449737,182.85714285714286 96.71957671957672,182.85714285714286 96.08465608465609,183.0687830687831 95.44973544973546,183.0687830687831 94.81481481481482,183.2804232804233 94.17989417989419,183.70370370370372 93.54497354497356,183.91534391534393 92.91005291005291,184.33862433862436 92.4867724867725,184.7619047619048 91.85185185185186,185.1851851851852 91.42857142857143,185.60846560846562 91.00529100529101,186.03174603174605 90.58201058201058,186.45502645502646 90.15873015873017,186.8783068783069 89.73544973544975,187.30158730158732 89.31216931216932,187.72486772486775 88.8888888888889,188.14814814814815 88.25396825396827,188.57142857142858 87.83068783068784,188.99470899470901 87.40740740740742,189.41798941798945 86.98412698412699,189.84126984126985 86.56084656084657,190.26455026455028 86.13756613756614,190.8994708994709 85.5026455026455,191.32275132275134 85.07936507936509,191.74603174603175 84.65608465608466,192.16931216931218 84.23280423280424,192.5925925925926 83.80952380952381,193.01587301587304 83.17460317460318,193.43915343915344 82.75132275132276,193.86243386243387 82.32804232804233,194.2857142857143 81.6931216931217,194.70899470899474 81.26984126984128,195.13227513227514 80.63492063492065,195.55555555555557 80.21164021164022,195.978835978836 79.57671957671958,196.4021164021164 79.15343915343917,196.82539682539684 78.51851851851852,197.24867724867727 77.88359788359789,197.6719576719577 77.46031746031747,198.0952380952381 76.82539682539684,198.51851851851853 76.19047619047619,198.94179894179896 75.76719576719577,199.36507936507937 75.13227513227514,199.7883597883598 74.49735449735451,200.21164021164023 73.86243386243387,200.63492063492066 73.22751322751323,201.05820105820106 72.80423280423281,201.4814814814815 72.16931216931218,201.90476190476193 71.53439153439155,202.32804232804233 70.8994708994709,202.75132275132276 70.26455026455027,203.1746031746032 69.62962962962963,203.3862433862434 69.20634920634922,203.80952380952382 68.57142857142858,204.23280423280426 67.93650793650794,204.65608465608466 67.3015873015873,205.0793650793651 66.66666666666667,205.29100529100532 66.03174603174604,205.71428571428572 65.3968253968254,206.13756613756615 64.76190476190477,206.56084656084658 64.12698412698413,206.7724867724868 63.70370370370371,207.19576719576722 63.06878306878308,207.40740740740742 62.43386243386244,207.83068783068785 59.25925925925927,209.73544973544975" style="fill:none; stroke:#00aa99; stroke-width:1.0"  /><polyline points="59.25925925925927,209.73544973544975 58.2010582010582,206.34920634920636 57.777777777777786,205.71428571428572 57.777777777777786,205.0793650793651 57.56613756613757,204.44444444444446 57.35449735449736,203.80952380952382 57.142857142857146,203.1746031746032 56.93121693121694,202.53968253968256 56.71957671957672,201.90476190476193 56.50793650793651,201.2698412698413 56.50793650793651,200.63492063492066 56.2962962962963,200.00000000000003 55.87301587301588,199.36507936507937 55.661375661375665,198.73015873015873 55.449735449735456,198.0952380952381 55.23809523809524,197.46031746031747 55.02645502645503,196.82539682539684 54.81481481481482,196.1904761904762 54.60317460317461,195.55555555555557 54.39153439153439,194.92063492063494 53.968253968253975,194.2857142857143 53.75661375661376,193.65079365079367 53.54497354497355,193.01587301587304 53.333333333333336,192.3809523809524 52.91005291005291,191.74603174603175 52.6984126984127,191.11111111111111 52.48677248677249,190.47619047619048 52.06349206349207,189.84126984126985 51.851851851851855,189.20634920634922 51.42857142857143,188.78306878306879 51.21693121693122,188.14814814814815 51.00529100529101,187.51322751322752 50.58201058201058,186.8783068783069 50.370370370370374,186.24338624338625 49.94708994708995,185.60846560846562 49.523809523809526,184.973544973545 49.31216931216932,184.33862433862436 48.88888888888889,183.70370370370372 48.677248677248684,183.0687830687831 48.46560846560847,182.43386243386246 48.042328042328045,182.01058201058203 47.61904761904762,181.3756613756614 47.40740740740741,180.74074074074076 46.98412698412699,180.31746031746033 46.560846560846564,179.6825396825397 46.349206349206355,179.04761904761907 45.92592592592593,178.62433862433863 45.714285714285715,177.989417989418 45.29100529100529,177.56613756613757 45.07936507936508,176.93121693121694 44.65608465608466,176.50793650793653 44.44444444444445,175.87301587301587 44.021164021164026,175.44973544973547 43.5978835978836,174.81481481481484 43.17460317460318,174.1798941798942 42.75132275132275,173.54497354497354 42.32804232804233,172.9100529100529 41.904761904761905,172.27513227513228 41.48148148148149,171.64021164021165 41.058201058201064,171.005291005291 40.63492063492064,170.37037037037038 40.211640211640216,169.73544973544975 39.78835978835979,169.10052910052912 39.36507936507937,168.46560846560848 38.94179894179894,167.83068783068785 38.51851851851852,167.19576719576722 38.095238095238095,166.7724867724868 37.67195767195768,166.13756613756615 37.248677248677254,165.50264550264552 36.82539682539683,165.0793650793651 36.402116402116405,164.44444444444446 35.97883597883598,163.80952380952382 35.55555555555556,163.3862433862434 35.13227513227513,162.75132275132276 34.70899470899471,162.32804232804233 34.28571428571429,161.6931216931217 33.86243386243387,161.2698412698413 33.43915343915344,160.63492063492066 33.01587301587302,160.21164021164023 32.592592592592595,159.5767195767196 32.16931216931217,159.15343915343917 31.746031746031747,158.51851851851853 31.322751322751326,158.0952380952381 30.899470899470902,157.46031746031747 30.476190476190478,157.03703703703704 30.052910052910054,156.4021164021164 29.629629629629633,155.978835978836 29.20634920634921,155.55555555555557 28.783068783068785,154.92063492063494 28.35978835978836,154.4973544973545 27.93650793650794,154.07407407407408 27.513227513227516,153.43915343915344 27.089947089947092,153.01587301587304 26.666666666666668,152.5925925925926 26.243386243386244,152.16931216931218 25.820105820105823,151.53439153439155 25.3968253968254,151.11111111111111 24.973544973544975,150.6878306878307 24.55026455026455,150.05291005291005 24.12698412698413,149.62962962962965 23.703703703703706,149.20634920634922 23.280423280423282,148.78306878306879 22.857142857142858,148.35978835978838 22.433862433862437,147.93650793650795 22.010582010582013,147.51322751322752 21.58730158730159,147.0899470899471 21.164021164021165,146.66666666666669 20.740740740740744,146.24338624338625 20.31746031746032,145.82010582010582 19.894179894179896,145.39682539682542 19.47089947089947,144.973544973545 19.047619047619047,144.55026455026456 18.624338624338627,144.12698412698413 18.201058201058203,143.4920634920635 17.77777777777778,143.0687830687831 17.354497354497354,142.64550264550266 16.931216931216934,142.01058201058203 16.296296296296298,141.5873015873016 15.873015873015873,140.95238095238096 15.449735449735451,140.31746031746033 15.238095238095239,139.6825396825397 15.026455026455027,139.04761904761907 14.814814814814817,138.41269841269843 14.603174603174605,137.7777777777778 14.391534391534393,137.14285714285717 14.391534391534393,136.5079365079365 14.391534391534393,135.87301587301587 14.391534391534393,135.23809523809524 14.603174603174605,134.6031746031746 14.814814814814817,133.96825396825398 15.026455026455027,133.33333333333334 15.449735449735451,132.6984126984127 15.873015873015873,132.27513227513228 16.296296296296298,131.85185185185185 16.71957671957672,131.42857142857144 17.354497354497354,131.21693121693121 17.98941798941799,131.005291005291 18.624338624338627,130.7936507936508 19.25925925925926,130.37037037037038 19.682539682539684,130.7936507936508 20.31746031746032,130.7936507936508 20.952380952380953,130.7936507936508 21.375661375661377,130.37037037037038 22.010582010582013,130.58201058201058 22.645502645502646,130.7936507936508 23.280423280423282,130.7936507936508 23.703703703703706,131.21693121693121 24.338624338624342,131.21693121693121 24.973544973544975,131.21693121693121 25.60846560846561,131.64021164021165 26.243386243386244,131.64021164021165 26.87830687830688,131.85185185185185 27.513227513227516,132.06349206349208 28.14814814814815,132.06349206349208 28.783068783068785,132.27513227513228 29.41798941798942,132.6984126984127 30.052910052910054,132.6984126984127 30.68783068783069,132.6984126984127 31.322751322751326,132.9100529100529 31.95767195767196,133.12169312169314 32.592592592592595,133.12169312169314 33.22751322751323,133.33333333333334 33.86243386243387,133.33333333333334 34.4973544973545,133.33333333333334 35.13227513227513,133.54497354497354 35.76719576719577,133.75661375661377 36.402116402116405,133.75661375661377 37.03703703703704,133.75661375661377 37.67195767195768,133.75661375661377 38.30687830687831,133.75661375661377 38.94179894179894,133.54497354497354 39.57671957671958,133.33333333333334 40.211640211640216,133.33333333333334 40.84656084656085,132.9100529100529 41.48148148148149,132.6984126984127 42.11640211640212,132.27513227513228 42.75132275132275,131.85185185185185 43.17460317460318,131.42857142857144 43.5978835978836,130.7936507936508 44.021164021164026,130.37037037037038 44.44444444444445,129.73544973544975 44.65608465608466,129.10052910052912 45.07936507936508,128.46560846560848 45.29100529100529,127.83068783068784 45.714285714285715,127.1957671957672 45.92592592592593,126.56084656084657 46.13756613756614,125.92592592592594 46.349206349206355,125.2910052910053 46.560846560846564,124.65608465608466 46.77248677248678,124.02116402116403 46.77248677248678,123.3862433862434 46.98412698412699,122.75132275132276 46.98412698412699,122.11640211640213 47.195767195767196,121.4814814814815 47.195767195767196,120.84656084656086 47.40740740740741,120.21164021164022 47.40740740740741,119.57671957671958 47.40740740740741,118.94179894179895 47.40740740740741,118.30687830687832 47.40740740740741,117.67195767195768 47.40740740740741,117.03703703703705 47.40740740740741,116.4021164021164 47.195767195767196,115.76719576719577 47.195767195767196,115.13227513227514 47.195767195767196,114.49735449735451 47.195767195767196,113.86243386243387 46.98412698412699,113.22751322751324 46.98412698412699,112.5925925925926 46.560846560846564,111.95767195767196 46.349206349206355,111.32275132275133 46.349206349206355,110.6878306878307 46.13756613756614,110.05291005291006 45.92592592592593,109.41798941798943 45.714285714285715,108.78306878306879 45.50264550264551,108.14814814814815 45.29100529100529,107.51322751322752 44.867724867724874,106.87830687830689 44.65608465608466,106.24338624338625 44.44444444444445,105.60846560846562 44.021164021164026,104.97354497354497 43.80952380952381,104.33862433862434 43.386243386243386,103.70370370370371 42.96296296296297,103.06878306878308 42.75132275132275,102.43386243386244 42.32804232804233,101.79894179894181 41.904761904761905,101.16402116402116 41.48148148148149,100.52910052910053 41.058201058201064,100.10582010582011 40.63492063492064,99.47089947089948 40.211640211640216,98.83597883597885 39.78835978835979,98.41269841269842 39.36507936507937,97.77777777777779 38.94179894179894,97.35449735449737 38.30687830687831,96.93121693121694 37.67195767195768,96.50793650793652 37.03703703703704,96.08465608465609 36.402116402116405,95.87301587301587 35.76719576719577,95.66137566137567 35.13227513227513,95.44973544973546 34.4973544973545,95.23809523809524 33.86243386243387,95.23809523809524 33.22751322751323,95.23809523809524 32.592592592592595,95.02645502645504 31.95767195767196,95.02645502645504 31.322751322751326,95.02645502645504 30.68783068783069,95.23809523809524 30.052910052910054,95.23809523809524 29.41798941798942,95.23809523809524 28.783068783068785,95.23809523809524 28.14814814814815,95.23809523809524 27.513227513227516,95.44973544973546 26.87830687830688,95.44973544973546 26.243386243386244,95.66137566137567 25.60846560846561,95.87301587301587 24.973544973544975,96.08465608465609 24.338624338624342,96.2962962962963 23.703703703703706,96.71957671957672 23.06878306878307,96.93121693121694 22.645502645502646,97.35449735449737 22.010582010582013,97.77777777777779 21.375661375661377,98.2010582010582 20.740740740740744,98.62433862433863 20.31746031746032,99.04761904761905 19.894179894179896,99.47089947089948 19.25925925925926,99.8941798941799 18.83597883597884,100.31746031746033 18.412698412698415,100.74074074074075 17.77777777777778,101.16402116402116 17.354497354497354,101.5873015873016 16.71957671957672,102.01058201058201 16.296296296296298,102.43386243386244 15.661375661375663,102.85714285714286 15.026455026455027,103.28042328042329 14.391534391534393,103.4920634920635 13.756613756613758,103.91534391534393 13.121693121693122,104.12698412698414 12.486772486772487,104.33862433862434 11.851851851851853,104.33862433862434 11.216931216931219,104.33862433862434 10.582010582010582,104.33862433862434 9.947089947089948,104.33862433862434 9.312169312169313,104.33862433862434 8.677248677248677,104.12698412698414 8.042328042328043,103.91534391534393 7.6190476190476195,103.4920634920635 6.984126984126985,103.06878306878308 6.560846560846561,102.64550264550266 6.137566137566138,102.01058201058201 5.9259259259259265,101.37566137566138 5.714285714285714,100.74074074074075 5.502645502645503,100.10582010582011 5.291005291005291,99.47089947089948 5.07936507936508,98.83597883597885 5.07936507936508,98.2010582010582 4.867724867724868,97.56613756613757 4.867724867724868,96.93121693121694 4.656084656084657,96.2962962962963 4.656084656084657,95.66137566137567 4.656084656084657,95.02645502645504 4.444444444444445,94.39153439153439 4.444444444444445,93.75661375661376 4.2328042328042335,93.12169312169313 4.2328042328042335,92.4867724867725 4.021164021164021,91.85185185185186 4.021164021164021,91.21693121693123 4.021164021164021,90.58201058201058 4.021164021164021,89.94708994708995 3.8095238095238098,89.31216931216932 3.8095238095238098,88.67724867724868 3.597883597883598,88.04232804232805 3.597883597883598,87.40740740740742 3.597883597883598,86.77248677248677 3.3862433862433865,86.13756613756614 3.3862433862433865,85.5026455026455 3.3862433862433865,84.86772486772487 3.3862433862433865,84.23280423280424 3.174603174603175,83.59788359788361 3.174603174603175,82.96296296296298 2.9629629629629632,82.32804232804233 2.9629629629629632,81.6931216931217 2.9629629629629632,81.05820105820106 2.7513227513227516,80.42328042328043 2.7513227513227516,79.7883597883598 2.7513227513227516,79.15343915343917 2.53968253968254,78.51851851851852 2.53968253968254,77.88359788359789 2.3280423280423284,77.24867724867725 2.1164021164021167,76.61375661375662 2.1164021164021167,75.97883597883599 2.1164021164021167,75.34391534391536 1.9047619047619049,74.70899470899471 1.9047619047619049,74.07407407407408 1.9047619047619049,73.43915343915344 1.6931216931216932,72.80423280423281 1.6931216931216932,72.16931216931218 1.4814814814814816,71.53439153439155 1.4814814814814816,70.8994708994709 1.4814814814814816,70.26455026455027 1.26984126984127,69.62962962962963 1.26984126984127,68.994708994709 1.26984126984127,68.35978835978837 1.0582010582010584,67.72486772486774 1.0582010582010584,67.08994708994709 0.8465608465608466,66.45502645502646 0.8465608465608466,65.82010582010582 0.634920634920635,65.18518518518519 0.634920634920635,64.55026455026456 0.4232804232804233,63.91534391534392 -0.21164021164021166,60.31746031746032" style="fill:none; stroke:#3300bb; stroke-width:1.0"  /><circle cx="-0.21164021164021166" cy="60.31746031746032" r="2.0" style="fill:none; stroke:#000000aa; stroke-width:0.25" /><circle cx="137.989417989418" cy="12.063492063492065" r="2.0" style="fill:none; stroke:#000000aa; stroke-width:0.25" /><circle cx="166.13756613756615" cy="136.2962962962963" r="2.0" style="fill:none; stroke:#000000aa; stroke-width:0.25" /><circle cx="59.25925925925927" cy="209.73544973544975" r="2.0" style="fill:none; stroke:#000000aa; stroke-width:0.25" /><circle cx="0.21164021164021166" cy="60.74074074074075" r="2.0" style="fill:none; stroke:#ff3366aa; stroke-width:0.25" /><circle cx="137.35449735449737" cy="12.6984126984127" r="2.0" style="fill:none; stroke:#ff3366aa; stroke-width:0.25" /><circle cx="166.34920634920636" cy="136.5079365079365" r="2.0" style="fill:none; stroke:#ff3366aa; stroke-width:0.25" /><circle cx="59.682539682539684" cy="209.31216931216932" r="2.0" style="fill:none; stroke:#ff3366aa; stroke-width:0.25" /><polyline points="12.063492063492065,59.25925925925927 11.428571428571429,59.25925925925927 10.793650793650794,59.25925925925927 10.15873015873016,59.470899470899475 9.523809523809524,59.470899470899475 8.88888888888889,59.682539682539684 8.253968253968255,59.682539682539684 7.6190476190476195,59.8941798941799 6.984126984126985,59.8941798941799 6.34920634920635,59.8941798941799 5.714285714285714,59.8941798941799 5.07936507936508,60.10582010582011 4.444444444444445,60.10582010582011 3.8095238095238098,60.10582010582011 3.174603174603175,60.10582010582011" style="fill:none; stroke:#001100; stroke-width:1.0" /><polyline points="1.6931216931216932,72.16931216931218 1.4814814814814816,71.53439153439155 1.4814814814814816,70.8994708994709 1.4814814814814816,70.26455026455027 1.26984126984127,69.62962962962963 1.26984126984127,68.994708994709 1.26984126984127,68.35978835978837 1.0582010582010584,67.72486772486774 1.0582010582010584,67.08994708994709 0.8465608465608466,66.45502645502646 0.8465608465608466,65.82010582010582 0.634920634920635,65.18518518518519 0.634920634920635,64.55026455026456 0.4232804232804233,63.91534391534392" style="fill:none; stroke:#000011; stroke-width:1.0" /><polyline points="137.56613756613757,24.12698412698413 137.7777777777778,23.492063492063494 137.56613756613757,22.857142857142858 137.56613756613757,22.222222222222225 137.56613756613757,21.58730158730159 137.56613756613757,20.952380952380953 137.56613756613757,20.31746031746032 137.7777777777778,19.682539682539684 137.7777777777778,19.047619047619047 137.7777777777778,18.412698412698415 137.7777777777778,17.77777777777778 137.7777777777778,17.142857142857146 137.7777777777778,16.50793650793651 137.7777777777778,15.873015873015873" style="fill:none; stroke:#001100; stroke-width:1.0" /><polyline points="127.1957671957672,17.98941798941799 127.83068783068784,17.566137566137566 128.46560846560848,17.354497354497354 129.10052910052912,16.931216931216934 129.73544973544975,16.71957671957672 130.37037037037038,16.296296296296298 131.005291005291,16.084656084656086 131.42857142857144,15.661375661375663 132.06349206349208,15.449735449735451 132.4867724867725,15.026455026455027 133.12169312169314,14.814814814814817 133.75661375661377,14.391534391534393 134.3915343915344,13.96825396825397" style="fill:none; stroke:#000011; stroke-width:1.0" /><polyline points="154.92063492063494,139.47089947089947 155.55555555555557,139.25925925925927 156.1904761904762,138.83597883597884 156.82539682539684,138.62433862433863 157.46031746031747,138.41269841269843 158.0952380952381,138.2010582010582 158.73015873015873,137.989417989418 159.36507936507937,137.7777777777778 160.0,137.56613756613757 160.63492063492066,137.56613756613757 161.2698412698413,137.35449735449737 161.90476190476193,137.14285714285717 162.53968253968256,137.14285714285717 163.1746031746032,137.14285714285717" style="fill:none; stroke:#001100; stroke-width:1.0" /><polyline points="162.53968253968256,125.2910052910053 162.75132275132276,125.92592592592594 162.96296296296296,126.56084656084657 163.1746031746032,127.1957671957672 163.3862433862434,127.83068783068784 163.59788359788362,128.46560846560848 163.80952380952382,129.10052910052912 164.02116402116403,129.73544973544975 164.02116402116403,130.37037037037038 164.44444444444446,131.005291005291 164.65608465608466,131.64021164021165 164.8677248677249,132.27513227513228 165.0793650793651,132.9100529100529 165.2910052910053,133.54497354497354" style="fill:none; stroke:#000011; stroke-width:1.0" /><polyline points="55.449735449735456,198.0952380952381 55.661375661375665,198.73015873015873 55.87301587301588,199.36507936507937 56.2962962962963,200.00000000000003 56.50793650793651,200.63492063492066 56.50793650793651,201.2698412698413 56.71957671957672,201.90476190476193 56.93121693121694,202.53968253968256 57.142857142857146,203.1746031746032 57.35449735449736,203.80952380952382 57.56613756613757,204.44444444444446 57.777777777777786,205.0793650793651 57.777777777777786,205.71428571428572 58.2010582010582,206.34920634920636" style="fill:none; stroke:#001100; stroke-width:1.0" /><polyline points="69.62962962962963,203.3862433862434 69.20634920634922,203.80952380952382 68.57142857142858,204.23280423280426 67.93650793650794,204.65608465608466 67.3015873015873,205.0793650793651 66.66666666666667,205.29100529100532 66.03174603174604,205.71428571428572 65.3968253968254,206.13756613756615 64.76190476190477,206.56084656084658 64.12698412698413,206.7724867724868 63.70370370370371,207.19576719576722 63.06878306878308,207.40740740740742 62.43386243386244,207.83068783068785" style="fill:none; stroke:#000011; stroke-width:1.0" /><polyline points="3.174603174603175,60.10582010582011 -17.98941798941799,62.01058201058201" style="fill:none; stroke:#ffaa00; stroke-width:0.4" /><polyline points="0.4232804232804233,63.91534391534392 -2.7513227513227516,42.96296296296297" style="fill:none; stroke:#aaff00; stroke-width:0.4" /><polyline points="137.7777777777778,15.873015873015873 138.41269841269843,-5.291005291005291" style="fill:none; stroke:#ffaa00; stroke-width:0.4" /><polyline points="134.3915343915344,13.96825396825397 152.8042328042328,3.597883597883598" style="fill:none; stroke:#aaff00; stroke-width:0.4" /><polyline points="163.1746031746032,137.14285714285717 183.4920634920635,131.42857142857144" style="fill:none; stroke:#ffaa00; stroke-width:0.4" /><polyline points="165.2910052910053,133.54497354497354 172.06349206349208,153.65079365079367" style="fill:none; stroke:#aaff00; stroke-width:0.4" /><polyline points="58.2010582010582,206.34920634920636 64.97354497354497,226.45502645502648" style="fill:none; stroke:#ffaa00; stroke-width:0.4" /><polyline points="62.43386243386244,207.83068783068785 44.44444444444445,219.04761904761907" style="fill:none; stroke:#aaff00; stroke-width:0.4" /><circle cx="93.12169312169313" cy="106.24338624338625" r="1.0" style="fill:#444444; stroke-width:0" /><circle cx="99.8941798941799" cy="97.77777777777779" r="10.582010582010582" style="fill:#ff770022; stroke-width:0" /><circle cx="99.8941798941799" cy="97.77777777777779" r="1.0" style="fill:#ff7700; stroke-width:0" /></svg>