<?xml version="1.0" encoding="UTF-8" standalone="no"?><svg width="563.1746031746032" height="612.0634920634922" viewBox="-10 -10 207.72486772486775 224.02116402116403" xmlns="http://www.w3.org/2000/svg" xmlns:xlink="http://www.w3.org/1999/xlink"><polyline points="-0.4232804232804233,68.994708994709 3.174603174603175,67.51322751322752 3.8095238095238098,67.08994708994709 4.444444444444445,66.87830687830689 5.07936507936508,66.66666666666667 5.714285714285714,66.24338624338625 6.34920634920635,66.03174603174604 6.984126984126985,65.82010582010582 7.6190476190476195,65.3968253968254 8.253968253968255,65.3968253968254 8.677248677248677,64.97354497354497 9.312169312169313,64.76190476190477 9.947089947089948,64.55026455026456 10.582010582010582,64.33862433862434 11.216931216931219,64.12698412698413 11.851851851851853,63.91534391534392 12.486772486772487,63.492063492063494 13.121693121693122,63.06878306878308 13.756613756613758,62.85714285714286 14.391534391534393,62.64550264550265 15.026455026455027,62.22222222222223 15.661375661375663,62.22222222222223 16.296296296296298,61.798941798941804 16.931216931216934,61.58730158730159 17.566137566137566,61.37566137566138 18.201058201058203,61.16402116402117 18.83597883597884,60.74074074074075 19.47089947089947,60.52910052910053 20.105820105820108,60.31746031746032 20.740740740740744,59.8941798941799 21.375661375661377,59.682539682539684 22.010582010582013,59.470899470899475 22.645502645502646,59.25925925925927 23.280423280423282,58.83597883597884 23.915343915343918,58.62433862433863 24.55026455026455,58.41269841269842 25.185185185185187,58.2010582010582 25.820105820105823,57.777777777777786 26.455026455026456,57.56613756613757 27.089947089947092,57.142857142857146 27.724867724867728,56.93121693121694 28.35978835978836,56.71957671957672 28.994708994708997,56.50793650793651 29.41798941798942,56.08465608465609 30.052910052910054,55.87301587301588 30.68783068783069,55.661375661375665 31.322751322751326,55.449735449735456 31.95767195767196,55.02645502645503 32.592592592592595,54.81481481481482 33.01587301587302,54.39153439153439 33.65079365079365,53.968253968253975 34.28571428571429,53.54497354497355 34.70899470899471,53.12169312169313 35.13227513227513,52.6984126984127 35.55555555555556,52.27513227513228 35.97883597883598,51.851851851851855 36.402116402116405,51.21693121693122 36.613756613756614,50.58201058201058 36.82539682539683,49.94708994708995 37.03703703703704,49.31216931216932 37.03703703703704,48.677248677248684 37.03703703703704,48.042328042328045 37.03703703703704,47.40740740740741 37.03703703703704,46.77248677248678 37.03703703703704,46.13756613756614 36.613756613756614,45.50264550264551 36.402116402116405,44.867724867724874 36.19047619047619,44.232804232804234 35.76719576719577,43.5978835978836 35.34391534391535,43.17460317460318 34.920634920634924,42.539682539682545 34.4973544973545,41.904761904761905 34.074074074074076,41.48148148148149 33.65079365079365,41.058201058201064 33.22751322751323,40.63492063492064 32.592592592592595,40.211640211640216 31.95767195767196,39.78835978835979 31.53439153439154,39.36507936507937 30.899470899470902,39.15343915343916 30.264550264550266,38.730158730158735 29.629629629629633,38.51851851851852 28.994708994708997,38.30687830687831 28.35978835978836,37.883597883597886 27.724867724867728,37.67195767195768 27.089947089947092,37.248677248677254 26.666666666666668,36.82539682539683 26.243386243386244,36.402116402116405 25.820105820105823,35.97883597883598 25.3968253968254,35.34391534391535 24.973544973544975,34.70899470899471 24.55026455026455,34.074074074074076 24.338624338624342,33.43915343915344 23.915343915343918,32.804232804232804 23.703703703703706,32.16931216931217 23.280423280423282,31.53439153439154 23.280423280423282,30.899470899470902 23.06878306878307,30.264550264550266 22.857142857142858,29.629629629629633 22.857142857142858,28.994708994708997 22.645502645502646,28.35978835978836 22.645502645502646,27.724867724867728 22.645502645502646,27.089947089947092 22.645502645502646,26.455026455026456 22.857142857142858,25.820105820105823 22.857142857142858,25.185185185185187 23.06878306878307,24.55026455026455 23.280423280423282,23.915343915343918 23.280423280423282,23.280423280423282 23.703703703703706,22.645502645502646 23.703703703703706,22.010582010582013 24.12698412698413,21.375661375661377 24.55026455026455,20.740740740740744 24.973544973544975,20.105820105820108 25.3968253968254,19.47089947089947 25.820105820105823,19.047619047619047 26.243386243386244,18.412698412698415 26.666666666666668,17.98941798941799 27.301587301587304,17.566137566137566 27.724867724867728,17.142857142857146 28.14814814814815,16.71957671957672 28.571428571428573,16.296296296296298 29.20634920634921,15.873015873015873 29.841269841269842,15.449735449735451 30.476190476190478,15.026455026455027 31.111111111111114,14.814814814814817 31.746031746031747,14.603174603174605 32.38095238095239,14.17989417989418 33.01587301587302,13.96825396825397 33.65079365079365,13.756613756613758 34.28571428571429,13.544973544973546 34.920634920634924,13.333333333333334 35.55555555555556,13.333333333333334 36.19047619047619,13.121693121693122 36.82539682539683,13.121693121693122 37.46031746031746,13.121693121693122 38.095238095238095,13.121693121693122 38.730158730158735,13.333333333333334 39.36507936507937,13.333333333333334 40.0,13.544973544973546 40.63492063492064,13.756613756613758 41.26984126984127,13.96825396825397 41.904761904761905,13.96825396825397 42.539682539682545,14.17989417989418 42.96296296296297,14.814814814814817 43.5978835978836,15.238095238095239 44.232804232804234,15.661375661375663 44.867724867724874,16.084656084656086 45.29100529100529,16.50793650793651 45.714285714285715,17.142857142857146 46.13756613756614,17.566137566137566 46.560846560846564,17.98941798941799 46.98412698412699,18.624338624338627 47.40740740740741,19.047619047619047 47.830687830687836,19.682539682539684 48.042328042328045,20.31746031746032 48.46560846560847,20.952380952380953 48.677248677248684,21.58730158730159 48.88888888888889,22.222222222222225 49.1005291005291,22.857142857142858 49.31216931216932,23.492063492063494 49.523809523809526,24.12698412698413 49.73544973544974,24.761904761904763 50.158730158730165,25.3968253968254 50.370370370370374,26.031746031746035 50.7936507936508,26.666666666666668 51.00529100529101,27.301587301587304 51.42857142857143,27.724867724867728 51.851851851851855,28.14814814814815 52.27513227513228,28.571428571428573 52.6984126984127,28.994708994708997 53.12169312169313,29.41798941798942 53.75661375661376,29.629629629629633 54.39153439153439,29.841269841269842 55.02645502645503,30.052910052910054 55.661375661375665,30.264550264550266 56.2962962962963,30.476190476190478 56.93121693121694,30.264550264550266 57.56613756613757,30.476190476190478 58.2010582010582,30.264550264550266 58.83597883597884,30.052910052910054 59.470899470899475,29.841269841269842 60.10582010582011,29.41798941798942 60.74074074074075,28.994708994708997 61.16402116402117,28.571428571428573 61.58730158730159,28.14814814814815 62.01058201058201,27.724867724867728 62.43386243386244,27.301587301587304 62.85714285714286,26.666666666666668 63.280423280423285,26.243386243386244 63.70370370370371,25.60846560846561 64.12698412698413,25.185185185185187 64.55026455026456,24.55026455026455 64.76190476190477,23.915343915343918 65.18518518518519,23.492063492063494 65.60846560846561,22.857142857142858 66.03174603174604,22.222222222222225 66.45502645502646,21.58730158730159 66.87830687830689,20.952380952380953 67.3015873015873,20.31746031746032 67.72486772486774,19.894179894179896 68.14814814814815,19.25925925925926 68.57142857142858,18.83597883597884 68.994708994709,18.412698412698415 69.41798941798942,17.98941798941799 69.84126984126985,17.566137566137566 70.26455026455027,17.142857142857146 70.6878306878307,16.71957671957672 71.11111111111111,16.296296296296298 71.53439153439155,15.873015873015873 71.95767195767196,15.449735449735451 72.38095238095238,15.026455026455027 73.01587301587303,14.603174603174605 73.43915343915344,14.17989417989418 74.07407407407408,13.756613756613758 74.49735449735451,13.121693121693122 75.13227513227514,12.6984126984127 75.55555555555556,12.275132275132275 76.19047619047619,11.851851851851853 76.82539682539684,11.428571428571429 77.46031746031747,11.005291005291006 78.0952380952381,10.582010582010582 78.73015873015873,10.15873015873016 79.15343915343917,9.735449735449736 79.7883597883598,9.523809523809524 80.21164021164022,9.100529100529101 80.84656084656085,8.88888888888889 81.26984126984128,8.465608465608467 81.90476190476191,8.253968253968255 82.32804232804233,7.830687830687832 82.75132275132276,7.407407407407408 83.3862433862434,7.195767195767196 84.02116402116403,6.772486772486773 84.65608465608466,6.560846560846561 85.29100529100529,6.137566137566138 85.92592592592594,5.714285714285714 86.56084656084657,5.502645502645503 87.1957671957672,5.291005291005291 87.83068783068784,4.867724867724868 88.46560846560847,4.656084656084657 89.1005291005291,4.444444444444445 89.73544973544975,4.021164021164021 90.37037037037038,3.8095238095238098 91.00529100529101,3.597883597883598 91.64021164021165,3.3862433862433865 92.27513227513228,3.174603174603175 92.91005291005291,2.9629629629629632 93.54497354497356,2.53968253968254 94.17989417989419,2.3280423280423284 94.81481481481482,2.1164021164021167 95.44973544973546,1.9047619047619049 96.08465608465609,1.6931216931216932 96.71957671957672,1.4814814814814816 97.35449735449737,1.26984126984127 101.37566137566138,-0.21164021164021166" style="fill:none; stroke:#cc0000; stroke-width:1.0"  /><polyline points="101.37566137566138,-0.21164021164021166 103.06878306878308,2.3280423280423284 103.4920634920635,2.9629629629629632 103.91534391534393,3.3862433862433865 104.33862433862434,4.021164021164021 104.76190476190477,4.444444444444445 105.18518518518519,5.07936507936508 105.60846560846562,5.714285714285714 106.03174603174604,6.137566137566138 106.45502645502647,6.772486772486773 106.66666666666667,7.407407407407408 107.0899470899471,8.042328042328043 107.51322751322752,8.465608465608467 107.93650793650795,9.100529100529101 108.35978835978837,9.735449735449736 108.57142857142858,10.370370370370372 108.994708994709,10.793650793650794 109.41798941798943,11.428571428571429 109.84126984126985,12.063492063492065 110.26455026455027,12.6984126984127 110.6878306878307,13.333333333333334 111.11111111111111,13.756613756613758 111.53439153439155,14.391534391534393 111.95767195767196,15.026455026455027 112.3809523809524,15.661375661375663 112.5925925925926,16.296296296296298 113.01587301587303,16.71957671957672 113.43915343915344,17.354497354497354 113.86243386243387,17.98941798941799 114.28571428571429,18.624338624338627 114.49735449735451,19.25925925925926 114.92063492063492,19.894179894179896 115.34391534391536,20.529100529100532 115.55555555555557,21.164021164021165 115.97883597883599,21.7989417989418 116.4021164021164,22.433862433862437 116.82539682539684,23.06878306878307 117.03703703703705,23.703703703703706 117.46031746031747,24.12698412698413 117.67195767195768,24.761904761904763 118.0952380952381,25.3968253968254 118.51851851851853,26.031746031746035 118.94179894179895,26.666666666666668 119.15343915343917,27.301587301587304 119.36507936507937,27.93650793650794 119.7883597883598,28.35978835978836 120.00000000000001,28.994708994708997 120.21164021164022,29.629629629629633 120.63492063492065,30.264550264550266 120.84656084656086,30.899470899470902 121.05820105820106,31.53439153439154 121.4814814814815,32.16931216931217 121.6931216931217,32.804232804232804 121.90476190476191,33.43915343915344 122.32804232804234,34.074074074074076 122.53968253968254,34.70899470899471 122.75132275132276,35.34391534391535 122.96296296296298,35.97883597883598 123.17460317460318,36.613756613756614 123.3862433862434,37.248677248677254 123.59788359788361,37.883597883597886 123.80952380952382,38.51851851851852 123.80952380952382,39.15343915343916 124.02116402116403,39.78835978835979 124.23280423280424,40.423280423280424 124.23280423280424,41.058201058201064 124.23280423280424,41.6931216931217 124.23280423280424,42.32804232804233 124.02116402116403,42.96296296296297 124.02116402116403,43.5978835978836 123.80952380952382,44.232804232804234 123.3862433862434,44.867724867724874 122.96296296296298,45.50264550264551 122.53968253968254,45.92592592592593 122.11640211640213,46.349206349206355 121.4814814814815,46.77248677248678 120.84656084656086,46.98412698412699 120.21164021164022,47.195767195767196 119.57671957671958,47.195767195767196 118.94179894179895,47.40740740740741 118.30687830687832,47.40740740740741 117.67195767195768,47.40740740740741 117.03703703703705,47.61904761904762 116.4021164021164,47.40740740740741 115.76719576719577,47.40740740740741 115.13227513227514,47.40740740740741 114.49735449735451,47.40740740740741 113.86243386243387,47.195767195767196 113.22751322751324,47.195767195767196 112.5925925925926,46.98412698412699 111.95767195767196,46.98412698412699 111.32275132275133,46.98412698412699 110.6878306878307,46.77248677248678 110.05291005291006,46.77248677248678 109.41798941798943,46.77248677248678 108.78306878306879,46.560846560846564 108.14814814814815,46.560846560846564 107.51322751322752,46.560846560846564 106.87830687830689,46.560846560846564 106.24338624338625,46.560846560846564 105.60846560846562,46.560846560846564 104.97354497354497,46.560846560846564 104.33862433862434,46.77248677248678 103.70370370370371,46.77248677248678 103.06878306878308,46.98412698412699 102.43386243386244,47.195767195767196 101.79894179894181,47.195767195767196 101.16402116402116,47.40740740740741 100.52910052910053,47.61904761904762 99.8941798941799,48.042328042328045 99.25925925925927,48.25396825396826 98.62433862433863,48.677248677248684 97.989417989418,48.88888888888889 97.56613756613757,49.31216931216932 97.14285714285715,49.73544973544974 96.71957671957672,50.158730158730165 96.2962962962963,50.58201058201058 95.87301587301587,51.00529100529101 95.66137566137567,51.640211640211646 95.23809523809524,52.06349206349207 95.02645502645504,52.6984126984127 94.81481481481482,53.333333333333336 94.60317460317461,53.968253968253975 94.39153439153439,54.60317460317461 94.17989417989419,55.23809523809524 94.17989417989419,55.87301587301588 93.96825396825398,56.50793650793651 93.96825396825398,57.142857142857146 93.96825396825398,57.777777777777786 93.96825396825398,58.41269841269842 93.75661375661376,59.04761904761905 93.75661375661376,59.682539682539684 93.75661375661376,60.31746031746032 93.75661375661376,60.952380952380956 93.75661375661376,61.58730158730159 93.96825396825398,62.22222222222223 93.96825396825398,62.85714285714286 93.96825396825398,63.492063492063494 94.17989417989419,64.12698412698413 94.39153439153439,64.76190476190477 94.39153439153439,65.3968253968254 94.60317460317461,66.03174603174604 94.60317460317461,66.66666666666667 94.60317460317461,67.3015873015873 94.81481481481482,67.93650793650794 95.02645502645504,68.57142857142858 95.23809523809524,69.20634920634922 95.44973544973546,69.84126984126985 95.66137566137567,70.47619047619048 95.87301587301587,71.11111111111111 96.08465608465609,71.74603174603175 96.08465608465609,72.38095238095238 96.50793650793652,73.01587301587303 96.71957671957672,73.65079365079366 96.93121693121694,74.28571428571429 97.14285714285715,74.92063492063492 97.35449735449737,75.55555555555556 97.56613756613757,76.19047619047619 97.989417989418,76.82539682539684 98.2010582010582,77.46031746031747 98.2010582010582,78.0952380952381 98.62433862433863,78.51851851851852 98.83597883597885,79.15343915343917 99.25925925925927,79.7883597883598 99.47089947089948,80.42328042328043 99.68253968253968,81.05820105820106 100.10582010582011,81.6931216931217 100.31746031746033,82.32804232804233 100.74074074074075,82.96296296296298 101.16402116402116,83.59788359788361 101.5873015873016,84.02116402116403 101.79894179894181,84.65608465608466 102.22222222222223,85.29100529100529 102.64550264550266,85.92592592592594 102.85714285714286,86.56084656084657 103.28042328042329,87.1957671957672 103.70370370370371,87.61904761904762 103.91534391534393,88.25396825396827 104.33862433862434,88.8888888888889 104.76190476190477,89.52380952380953 105.18518518518519,89.94708994708995 105.60846560846562,90.37037037037038 106.03174603174604,91.00529100529101 106.45502645502647,91.42857142857143 106.87830687830689,91.85185185185186 107.3015873015873,92.27513227513228 107.72486772486774,92.69841269841271 108.14814814814815,93.12169312169313 108.57142857142858,93.54497354497356 109.20634920634922,93.96825396825398 109.62962962962963,94.39153439153439 110.26455026455027,94.81481481481482 110.6878306878307,95.23809523809524 111.32275132275133,95.66137566137567 111.95767195767196,95.87301587301587 112.3809523809524,96.2962962962963 113.01587301587303,96.71957671957672 113.65079365079366,96.71957671957672 114.07407407407408,97.14285714285715 114.70899470899472,97.35449735449737 115.34391534391536,97.35449735449737 115.76719576719577,97.77777777777779 116.4021164021164,97.989417989418 117.03703703703705,98.2010582010582 117.67195767195768,98.2010582010582 118.30687830687832,98.41269841269842 118.94179894179895,98.62433862433863 119.57671957671958,98.62433862433863 120.21164021164022,98.83597883597885 120.84656084656086,98.83597883597885 121.4814814814815,98.83597883597885 122.11640211640213,98.83597883597885 122.75132275132276,99.04761904761905 123.3862433862434,98.83597883597885 124.02116402116403,98.83597883597885 124.65608465608466,98.83597883597885 125.2910052910053,98.62433862433863 125.92592592592594,98.41269841269842 126.56084656084657,97.989417989418 127.1957671957672,97.77777777777779 127.83068783068784,97.56613756613757 128.46560846560848,97.14285714285715 129.10052910052912,96.93121693121694 129.73544973544975,96.50793650793652 130.37037037037038,96.08465608465609 131.005291005291,95.87301587301587 131.42857142857144,95.44973544973546 132.06349206349208,95.02645502645504 132.6984126984127,94.60317460317461 133.33333333333334,94.17989417989419 133.75661375661377,93.75661375661376 134.17989417989418,93.33333333333334 134.81481481481484,92.91005291005291 135.23809523809524,92.4867724867725 135.66137566137567,92.06349206349208 136.0846560846561,91.64021164021165 136.5079365079365,91.00529100529101 136.93121693121694,90.58201058201058 137.35449735449737,90.15873015873017 137.7777777777778,89.52380952380953 138.2010582010582,89.1005291005291 138.62433862433863,88.46560846560847 139.04761904761907,87.83068783068784 139.47089947089947,87.1957671957672 139.6825396825397,86.56084656084657 140.10582010582013,85.92592592592594 140.52910052910053,85.29100529100529 140.74074074074076,84.65608465608466 141.16402116402116,84.02116402116403 141.16402116402116,83.3862433862434 141.5873015873016,82.96296296296298 141.7989417989418,82.32804232804233 142.22222222222223,81.6931216931217 142.43386243386246,81.05820105820106 142.85714285714286,80.42328042328043 143.0687830687831,79.7883597883598 143.4920634920635,79.36507936507937 143.91534391534393,78.73015873015873 144.33862433862436,78.0952380952381 144.76190476190476,77.46031746031747 145.1851851851852,77.03703703703704 145.60846560846562,76.61375661375662 146.03174603174605,76.19047619047619 146.66666666666669,75.76719576719577 147.30158730158732,75.55555555555556 147.93650793650795,75.34391534391536 148.57142857142858,75.34391534391536 149.20634920634922,75.34391534391536 149.84126984126985,75.55555555555556 150.47619047619048,75.76719576719577 151.11111111111111,75.97883597883599 151.74603174603175,76.19047619047619 152.38095238095238,76.4021164021164 153.01587301587304,76.61375661375662 153.43915343915344,77.03703703703704 154.07407407407408,77.46031746031747 154.7089947089947,77.88359788359789 155.13227513227514,78.30687830687832 155.76719576719577,78.73015873015873 156.1904761904762,79.15343915343917 156.61375661375664,79.57671957671958 157.03703703703704,80.0 157.46031746031747,80.42328042328043 157.8835978835979,80.84656084656085 158.30687830687833,81.26984126984128 158.73015873015873,81.6931216931217 159.15343915343917,82.11640211640213 159.5767195767196,82.75132275132276 160.0,83.17460317460318 160.42328042328043,83.59788359788361 160.84656084656086,84.02116402116403 161.2698412698413,84.65608465608466 161.6931216931217,85.29100529100529 162.11640211640213,85.92592592592594 162.53968253968256,86.34920634920636 162.96296296296296,86.98412698412699 163.3862433862434,87.61904761904762 163.80952380952382,88.25396825396827 164.23280423280426,88.8888888888889 164.65608465608466,89.52380952380953 165.0793650793651,90.15873015873017 165.2910052910053,90.7936507936508 165.71428571428572,91.21693121693123 165.92592592592595,91.85185185185186 166.34920634920636,92.27513227513228 166.7724867724868,92.91005291005291 166.984126984127,93.54497354497356 167.40740740740742,93.96825396825398 167.83068783068785,94.60317460317461 168.04232804232805,95.23809523809524 168.46560846560848,95.66137566137567 168.8888888888889,96.2962962962963 169.10052910052912,96.93121693121694 169.52380952380955,97.35449735449737 169.94708994708995,97.989417989418 170.37037037037038,98.62433862433863 170.58201058201058,99.25925925925927 171.005291005291,99.8941798941799 171.42857142857144,100.52910052910053 171.64021164021165,101.16402116402116 171.85185185185188,101.79894179894181 172.27513227513228,102.22222222222223 172.4867724867725,102.85714285714286 172.9100529100529,103.28042328042329 173.12169312169314,103.91534391534393 173.54497354497354,104.33862433862434 173.75661375661377,104.97354497354497 174.1798941798942,105.60846560846562 174.6031746031746,106.03174603174604 175.02645502645504,106.66666666666667 175.23809523809524,107.3015873015873 175.66137566137567,107.72486772486774 175.87301587301587,108.35978835978837 176.2962962962963,108.994708994709 176.71957671957674,109.62962962962963 177.14285714285717,110.26455026455027 177.56613756613757,110.89947089947091 177.989417989418,111.53439153439155 178.41269841269843,112.16931216931218 178.62433862433863,112.80423280423281 179.04761904761907,113.22751322751324 179.4708994708995,113.86243386243387 179.6825396825397,114.49735449735451 180.10582010582013,114.92063492063492 180.52910052910053,115.55555555555557 180.95238095238096,116.1904761904762 181.3756613756614,116.61375661375662 181.5873015873016,117.24867724867725 182.01058201058203,117.67195767195768 183.70370370370372,120.21164021164022" style="fill:none; stroke:#999900; stroke-width:1.0"  /><polyline points="183.70370370370372,120.21164021164022 180.74074074074076,122.53968253968254 180.10582010582013,122.96296296296298 179.4708994708995,123.3862433862434 178.83597883597884,123.80952380952382 178.2010582010582,124.23280423280424 177.7777777777778,124.65608465608466 177.14285714285717,125.07936507936509 176.71957671957674,125.5026455026455 176.2962962962963,125.92592592592594 175.66137566137567,126.34920634920636 175.23809523809524,126.77248677248679 174.81481481481484,127.1957671957672 174.1798941798942,127.61904761904763 173.75661375661377,128.04232804232805 173.33333333333334,128.46560846560848 172.9100529100529,128.88888888888889 172.4867724867725,129.31216931216932 172.06349206349208,129.73544973544975 171.64021164021165,130.15873015873018 171.21693121693124,130.58201058201058 170.58201058201058,131.005291005291 170.15873015873018,131.42857142857144 169.73544973544975,132.06349206349208 169.31216931216932,132.4867724867725 168.8888888888889,132.9100529100529 168.46560846560848,133.33333333333334 168.04232804232805,133.75661375661377 167.40740740740742,134.17989417989418 166.984126984127,134.6031746031746 166.56084656084658,135.23809523809524 166.13756613756615,135.66137566137567 165.71428571428572,136.0846560846561 165.2910052910053,136.5079365079365 164.8677248677249,136.93121693121694 164.44444444444446,137.35449735449737 164.02116402116403,137.7777777777778 163.59788359788362,138.41269841269843 163.1746031746032,138.83597883597884 162.75132275132276,139.25925925925927 162.32804232804233,139.6825396825397 161.90476190476193,140.31746031746033 161.4814814814815,140.95238095238096 161.05820105820106,141.5873015873016 160.84656084656086,142.22222222222223 160.42328042328043,142.85714285714286 160.21164021164023,143.4920634920635 160.0,144.12698412698413 159.7883597883598,144.76190476190476 159.5767195767196,145.39682539682542 159.36507936507937,146.03174603174605 159.36507936507937,146.66666666666669 159.15343915343917,147.30158730158732 158.94179894179896,147.93650793650795 158.94179894179896,148.57142857142858 158.94179894179896,149.20634920634922 158.94179894179896,149.84126984126985 158.73015873015873,150.47619047619048 158.73015873015873,151.11111111111111 158.94179894179896,151.74603174603175 158.94179894179896,152.38095238095238 158.94179894179896,153.01587301587304 159.36507936507937,153.65079365079367 159.36507936507937,154.2857142857143 159.5767195767196,154.92063492063494 159.7883597883598,155.55555555555557 159.7883597883598,156.1904761904762 160.21164021164023,156.82539682539684 160.21164021164023,157.46031746031747 160.63492063492066,158.0952380952381 161.05820105820106,158.73015873015873 161.2698412698413,159.36507936507937 161.6931216931217,160.0 161.90476190476193,160.63492063492066 162.32804232804233,161.05820105820106 162.75132275132276,161.6931216931217 163.1746031746032,162.32804232804233 163.59788359788362,162.75132275132276 164.02116402116403,163.1746031746032 164.44444444444446,163.80952380952382 164.8677248677249,164.23280423280426 165.2910052910053,164.65608465608466 165.92592592592595,165.0793650793651 166.34920634920636,165.50264550264552 166.7724867724868,165.92592592592595 167.40740740740742,166.34920634920636 167.83068783068785,166.7724867724868 168.46560846560848,166.984126984127 168.8888888888889,167.40740740740742 169.52380952380955,167.61904761904762 170.15873015873018,167.83068783068785 170.7936507936508,168.25396825396825 171.42857142857144,168.46560846560848 172.06349206349208,168.67724867724868 172.6984126984127,168.67724867724868 173.12169312169314,169.10052910052912 173.75661375661377,169.10052910052912 174.3915343915344,169.31216931216932 175.02645502645504,169.31216931216932 175.44973544973547,169.73544973544975 176.0846560846561,169.94708994708995 176.71957671957674,170.15873015873018 177.35449735449737,170.37037037037038 177.989417989418,170.37037037037038 178.41269841269843,170.7936507936508 179.04761904761907,170.7936507936508 179.4708994708995,171.21693121693124 180.10582010582013,171.42857142857144 180.74074074074076,171.85185185185188 181.3756613756614,172.06349206349208 182.01058201058203,172.4867724867725 182.64550264550266,172.9100529100529 183.2804232804233,173.33333333333334 183.70370370370372,173.75661375661377 184.33862433862436,174.1798941798942 184.7619047619048,174.6031746031746 185.1851851851852,175.02645502645504 185.60846560846562,175.66137566137567 186.03174603174605,176.2962962962963 186.45502645502646,176.71957671957674 186.66666666666669,177.35449735449737 186.8783068783069,177.989417989418 187.08994708994712,178.62433862433863 187.30158730158732,179.25925925925927 187.30158730158732,179.8941798941799 187.30158730158732,180.52910052910053 187.08994708994712,181.16402116402116 187.08994708994712,181.79894179894183 186.8783068783069,182.43386243386246 186.8783068783069,183.0687830687831 186.66666666666669,183.70370370370372 186.45502645502646,184.33862433862436 186.24338624338625,184.973544973545 186.03174603174605,185.60846560846562 185.60846560846562,186.24338624338625 185.39682539682542,186.8783068783069 185.1851851851852,187.51322751322752 184.973544973545,188.14814814814815 184.7619047619048,188.78306878306879 184.33862433862436,189.41798941798945 183.91534391534393,190.05291005291008 183.70370370370372,190.6878306878307 183.2804232804233,191.11111111111111 182.85714285714286,191.74603174603175 182.43386243386246,192.3809523809524 182.01058201058203,193.01587301587304 181.5873015873016,193.43915343915344 181.16402116402116,194.07407407407408 180.74074074074076,194.4973544973545 180.31746031746033,194.92063492063494 179.8941798941799,195.34391534391537 179.4708994708995,195.978835978836 179.04761904761907,196.4021164021164 178.62433862433863,196.82539682539684 178.2010582010582,197.24867724867727 177.56613756613757,197.6719576719577 177.14285714285717,198.0952380952381 176.71957671957674,198.51851851851853 176.2962962962963,198.94179894179896 175.87301587301587,199.36507936507937 175.23809523809524,199.7883597883598 174.6031746031746,200.21164021164023 173.96825396825398,200.63492063492066 173.33333333333334,201.05820105820106 172.6984126984127,201.4814814814815 172.06349206349208,201.6931216931217 171.42857142857144,201.90476190476193 170.7936507936508,202.32804232804233 170.15873015873018,202.53968253968256 169.52380952380955,202.75132275132276 168.8888888888889,202.962962962963 168.25396825396825,202.962962962963 167.61904761904762,203.1746031746032 166.984126984127,203.3862433862434 166.34920634920636,203.3862433862434 165.71428571428572,203.59788359788362 165.0793650793651,203.59788359788362 164.44444444444446,203.3862433862434 163.80952380952382,203.3862433862434 163.1746031746032,203.3862433862434 162.53968253968256,203.3862433862434 161.90476190476193,203.1746031746032 161.2698412698413,203.1746031746032 160.63492063492066,202.962962962963 160.0,202.75132275132276 159.36507936507937,202.53968253968256 158.73015873015873,202.32804232804233 158.0952380952381,202.11640211640213 157.46031746031747,201.90476190476193 156.82539682539684,201.4814814814815 156.1904761904762,201.2698412698413 155.55555555555557,200.84656084656086 154.92063492063494,200.42328042328043 154.2857142857143,200.21164021164023 153.86243386243387,199.7883597883598 153.43915343915344,199.36507936507937 152.8042328042328,199.36507936507937 152.38095238095238,198.94179894179896 151.74603174603175,198.51851851851853 151.32275132275134,198.0952380952381 150.8994708994709,197.6719576719577 150.47619047619048,197.03703703703704 150.26455026455028,196.4021164021164 150.05291005291005,195.76719576719577 149.84126984126985,195.13227513227514 149.41798941798942,194.4973544973545 149.41798941798942,193.86243386243387 149.20634920634922,193.22751322751324 148.99470899470901,192.5925925925926 148.78306878306879,191.95767195767198 148.57142857142858,191.32275132275134 148.14814814814815,190.6878306878307 147.93650793650795,190.05291005291008 147.51322751322752,189.41798941798945 147.0899470899471,188.78306878306879 146.66666666666669,188.14814814814815 146.24338624338625,187.72486772486775 145.82010582010582,187.30158730158732 145.39682539682542,186.66666666666669 144.973544973545,186.24338624338625 144.55026455026456,185.82010582010582 144.12698412698413,185.39682539682542 143.70370370370372,184.973544973545 143.2804232804233,184.55026455026456 142.64550264550266,184.12698412698415 142.22222222222223,183.70370370370372 141.5873015873016,183.2804232804233 141.16402116402116,182.85714285714286 140.52910052910053,182.64550264550266 139.8941798941799,182.22222222222223 139.25925925925927,182.01058201058203 138.62433862433863,181.79894179894183 137.989417989418,181.5873015873016 137.35449735449737,181.3756613756614 136.71957671957674,181.16402116402116 136.0846560846561,180.95238095238096 135.44973544973547,180.95238095238096 134.81481481481484,180.74074074074076 134.17989417989418,180.74074074074076 133.54497354497354,180.74074074074076 132.9100529100529,180.74074074074076 132.27513227513228,180.74074074074076 131.64021164021165,180.74074074074076 131.005291005291,180.74074074074076 130.37037037037038,180.74074074074076 129.73544973544975,180.95238095238096 129.10052910052912,181.16402116402116 128.46560846560848,181.16402116402116 127.83068783068784,181.3756613756614 127.1957671957672,181.5873015873016 126.56084656084657,181.79894179894183 125.92592592592594,182.22222222222223 125.2910052910053,182.43386243386246 124.65608465608466,182.64550264550266 124.02116402116403,183.0687830687831 123.3862433862434,183.4920634920635 122.75132275132276,183.91534391534393 122.11640211640213,184.33862433862436 121.6931216931217,184.7619047619048 121.05820105820106,185.1851851851852 120.63492063492065,185.60846560846562 120.21164021164022,186.03174603174605 119.7883597883598,186.45502645502646 119.36507936507937,186.8783068783069 118.94179894179895,187.30158730158732 118.51851851851853,187.72486772486775 118.0952380952381,188.14814814814815 117.67195767195768,188.78306878306879 117.24867724867725,189.41798941798945 116.82539682539684,189.84126984126985 116.4021164021164,190.26455026455028 115.97883597883599,190.6878306878307 115.55555555555557,191.32275132275134 114.92063492063492,191.74603174603175 114.49735449735451,192.16931216931218 114.07407407407408,192.5925925925926 113.65079365079366,193.22751322751324 113.22751322751324,193.65079365079367 112.80423280423281,194.07407407407408 112.3809523809524,194.70899470899474 111.95767195767196,195.13227513227514 111.53439153439155,195.76719576719577 111.11111111111111,196.1904761904762 110.6878306878307,196.82539682539684 110.26455026455027,197.24867724867727 109.84126984126985,197.6719576719577 109.41798941798943,198.30687830687833 108.994708994709,198.94179894179896 108.57142857142858,199.5767195767196 108.14814814814815,200.00000000000003 106.03174603174604,202.75132275132276" style="fill:none; stroke:#00aa99; stroke-width:1.0"  /><polyline points="106.03174603174604,202.75132275132276 104.97354497354497,199.15343915343917 104.76190476190477,198.51851851851853 104.76190476190477,197.8835978835979 104.55026455026456,197.24867724867727 104.33862433862434,196.61375661375664 104.12698412698414,195.978835978836 104.12698412698414,195.34391534391537 103.91534391534393,194.70899470899474 103.70370370370371,194.07407407407408 103.4920634920635,193.43915343915344 103.28042328042329,192.8042328042328 103.06878306878308,192.16931216931218 102.85714285714286,191.53439153439155 102.64550264550266,190.8994708994709 102.64550264550266,190.26455026455028 102.43386243386244,189.62962962962965 102.01058201058201,188.99470899470901 101.5873015873016,188.35978835978838 101.37566137566138,187.72486772486775 101.16402116402116,187.08994708994712 100.74074074074075,186.45502645502646 100.31746031746033,185.82010582010582 100.10582010582011,185.1851851851852 99.8941798941799,184.55026455026456 99.47089947089948,183.91534391534393 99.04761904761905,183.2804232804233 98.83597883597885,182.64550264550266 98.41269841269842,182.01058201058203 98.2010582010582,181.3756613756614 97.77777777777779,180.74074074074076 97.35449735449737,180.10582010582013 96.93121693121694,179.4708994708995 96.50793650793652,178.83597883597884 96.2962962962963,178.2010582010582 95.87301587301587,177.7777777777778 95.66137566137567,177.14285714285717 95.23809523809524,176.71957671957674 94.81481481481482,176.0846560846561 94.39153439153439,175.44973544973547 93.96825396825398,174.81481481481484 93.54497354497356,174.3915343915344 93.12169312169313,173.75661375661377 92.69841269841271,173.12169312169314 92.27513227513228,172.4867724867725 91.85185185185186,172.06349206349208 91.42857142857143,171.64021164021165 91.00529100529101,171.005291005291 90.58201058201058,170.58201058201058 90.15873015873017,169.94708994708995 89.73544973544975,169.52380952380955 89.31216931216932,169.10052910052912 88.8888888888889,168.67724867724868 88.46560846560847,168.25396825396825 88.04232804232805,167.83068783068785 87.61904761904762,167.40740740740742 87.1957671957672,166.984126984127 86.77248677248677,166.34920634920636 86.13756613756614,165.92592592592595 85.71428571428572,165.50264550264552 85.29100529100529,165.0793650793651 84.86772486772487,164.65608465608466 84.44444444444446,164.23280423280426 84.02116402116403,163.80952380952382 83.59788359788361,163.3862433862434 83.17460317460318,162.96296296296296 82.53968253968254,162.75132275132276 82.11640211640213,162.32804232804233 81.6931216931217,161.90476190476193 81.26984126984128,161.4814814814815 80.63492063492065,161.05820105820106 80.21164021164022,160.63492063492066 79.57671957671958,160.21164021164023 79.15343915343917,159.7883597883598 78.73015873015873,159.36507936507937 78.0952380952381,158.94179894179896 77.46031746031747,158.51851851851853 76.82539682539684,158.0952380952381 76.19047619047619,157.67195767195767 75.55555555555556,157.46031746031747 74.92063492063492,157.24867724867727 74.49735449735451,156.82539682539684 73.86243386243387,156.61375661375664 73.22751322751323,156.4021164021164 72.5925925925926,156.1904761904762 71.95767195767196,155.978835978836 71.32275132275133,155.76719576719577 70.6878306878307,155.76719576719577 70.05291005291006,155.55555555555557 69.41798941798942,155.34391534391534 68.78306878306879,155.34391534391534 68.14814814814815,155.13227513227514 67.51322751322752,155.13227513227514 66.87830687830689,155.13227513227514 66.24338624338625,155.13227513227514 65.60846560846561,155.13227513227514 64.97354497354497,155.13227513227514 64.33862433862434,155.34391534391534 63.70370370370371,155.55555555555557 63.06878306878308,155.76719576719577 62.43386243386244,156.1904761904762 61.798941798941804,156.61375661375664 61.16402116402117,157.03703703703704 60.74074074074075,157.46031746031747 60.31746031746032,157.8835978835979 59.8941798941799,158.30687830687833 59.470899470899475,158.94179894179896 59.04761904761905,159.5767195767196 58.62433862433863,160.21164021164023 58.41269841269842,160.84656084656086 57.989417989417994,161.4814814814815 57.777777777777786,162.11640211640213 57.35449735449736,162.75132275132276 57.142857142857146,163.3862433862434 56.71957671957672,164.02116402116403 56.50793650793651,164.65608465608466 56.08465608465609,165.2910052910053 55.87301587301588,165.92592592592595 55.449735449735456,166.34920634920636 55.02645502645503,166.984126984127 54.81481481481482,167.61904761904762 54.39153439153439,168.25396825396825 53.968253968253975,168.8888888888889 53.75661375661376,169.52380952380955 53.333333333333336,169.94708994708995 52.91005291005291,170.58201058201058 52.48677248677249,171.21693121693124 52.06349206349207,171.64021164021165 51.640211640211646,172.27513227513228 51.21693121693122,172.6984126984127 50.7936507936508,173.33333333333334 50.370370370370374,173.75661375661377 49.94708994708995,174.1798941798942 49.31216931216932,174.6031746031746 48.88888888888889,175.02645502645504 48.25396825396826,175.44973544973547 47.830687830687836,175.87301587301587 47.195767195767196,176.2962962962963 46.560846560846564,176.50793650793653 45.92592592592593,176.93121693121694 45.29100529100529,177.14285714285717 44.65608465608466,177.35449735449737 44.021164021164026,177.56613756613757 43.386243386243386,177.7777777777778 42.75132275132275,177.989417989418 42.11640211640212,177.989417989418 41.48148148148149,178.2010582010582 40.84656084656085,177.989417989418 40.211640211640216,177.989417989418 39.57671957671958,177.989417989418 38.94179894179894,177.56613756613757 38.30687830687831,177.14285714285717 37.67195767195768,176.93121693121694 37.03703703703704,176.50793650793653 36.402116402116405,176.0846560846561 35.97883597883598,175.66137566137567 35.34391534391535,175.23809523809524 34.920634920634924,174.81481481481484 34.28571428571429,174.3915343915344 33.86243386243387,173.96825396825398 33.22751322751323,173.54497354497354 32.804232804232804,173.12169312169314 32.38095238095239,172.6984126984127 31.95767195767196,172.27513227513228 31.53439153439154,171.85185185185188 31.111111111111114,171.42857142857144 30.68783068783069,171.005291005291 30.264550264550266,170.58201058201058 29.841269841269842,170.15873015873018 29.41798941798942,169.73544973544975 28.994708994708997,169.10052910052912 28.571428571428573,168.67724867724868 28.14814814814815,168.25396825396825 27.724867724867728,167.61904761904762 27.301587301587304,167.19576719576722 26.87830687830688,166.56084656084658 26.455026455026456,165.92592592592595 26.031746031746035,165.50264550264552 25.60846560846561,164.8677248677249 25.185185185185187,164.23280423280426 24.761904761904763,163.80952380952382 24.338624338624342,163.1746031746032 23.915343915343918,162.53968253968256 23.492063492063494,161.90476190476193 23.06878306878307,161.2698412698413 22.645502645502646,160.63492063492066 22.222222222222225,160.0 21.7989417989418,159.36507936507937 21.375661375661377,158.73015873015873 21.164021164021165,158.0952380952381 20.740740740740744,157.67195767195767 20.529100529100532,157.03703703703704 20.31746031746032,156.4021164021164 19.894179894179896,155.76719576719577 19.47089947089947,155.13227513227514 19.25925925925926,154.4973544973545 18.83597883597884,153.86243386243387 18.412698412698415,153.22751322751324 18.201058201058203,152.5925925925926 17.98941798941799,151.95767195767198 17.77777777777778,151.32275132275134 17.566137566137566,150.6878306878307 17.354497354497354,150.05291005291005 17.142857142857146,149.41798941798942 16.931216931216934,148.78306878306879 16.71957671957672,148.14814814814815 16.50793650793651,147.51322751322752 16.50793650793651,146.8783068783069 16.296296296296298,146.24338624338625 16.296296296296298,145.60846560846562 16.084656084656086,144.973544973545 15.873015873015873,144.33862433862436 15.873015873015873,143.70370370370372 15.661375661375663,143.0687830687831 15.661375661375663,142.43386243386246 15.449735449735451,141.7989417989418 15.449735449735451,141.16402116402116 15.449735449735451,140.52910052910053 15.449735449735451,139.8941798941799 15.449735449735451,139.25925925925927 15.449735449735451,138.62433862433863 15.661375661375663,137.989417989418 15.873015873015873,137.35449735449737 16.296296296296298,136.71957671957674 16.71957671957672,136.0846560846561 17.142857142857146,135.66137566137567 17.566137566137566,135.23809523809524 18.201058201058203,134.81481481481484 18.83597883597884,134.6031746031746 19.47089947089947,134.3915343915344 20.105820105820108,134.17989417989418 20.740740740740744,133.96825396825398 21.375661375661377,133.96825396825398 22.010582010582013,133.75661375661377 22.645502645502646,133.75661375661377 23.280423280423282,133.75661375661377 23.703703703703706,133.33333333333334 24.338624338624342,133.54497354497354 24.973544973544975,133.54497354497354 25.60846560846561,133.75661375661377 26.243386243386244,133.54497354497354 26.87830687830688,133.54497354497354 27.513227513227516,133.33333333333334 27.93650793650794,133.75661375661377 28.571428571428573,133.96825396825398 29.20634920634921,133.96825396825398 29.841269841269842,133.96825396825398 30.476190476190478,133.96825396825398 31.111111111111114,133.96825396825398 31.746031746031747,133.96825396825398 32.38095238095239,133.96825396825398 33.01587301587302,133.96825396825398 33.65079365079365,133.96825396825398 34.28571428571429,134.17989417989418 34.920634920634924,134.17989417989418 35.55555555555556,134.17989417989418 36.19047619047619,134.17989417989418 36.82539682539683,133.96825396825398 37.46031746031746,133.96825396825398 38.095238095238095,133.96825396825398 38.730158730158735,133.75661375661377 39.36507936507937,133.54497354497354 40.0,133.12169312169314 40.63492063492064,132.9100529100529 41.058201058201064,132.4867724867725 41.48148148148149,132.06349206349208 41.904761904761905,131.64021164021165 42.32804232804233,131.005291005291 42.75132275132275,130.58201058201058 42.96296296296297,129.94708994708995 43.17460317460318,129.31216931216932 43.386243386243386,128.67724867724868 43.386243386243386,128.04232804232805 43.386243386243386,127.40740740740742 43.386243386243386,126.77248677248679 43.386243386243386,126.13756613756615 43.17460317460318,125.5026455026455 42.96296296296297,124.86772486772487 42.75132275132275,124.23280423280424 42.539682539682545,123.59788359788361 42.11640211640212,122.96296296296298 41.904761904761905,122.32804232804234 41.6931216931217,121.6931216931217 41.26984126984127,121.05820105820106 41.058201058201064,120.42328042328043 40.63492063492064,119.7883597883598 40.211640211640216,119.15343915343917 39.78835978835979,118.51851851851853 39.36507936507937,117.88359788359789 39.15343915343916,117.24867724867725 38.730158730158735,116.61375661375662 38.30687830687831,115.97883597883599 38.095238095238095,115.34391534391536 37.67195767195768,114.92063492063492 37.46031746031746,114.28571428571429 37.03703703703704,113.65079365079366 36.613756613756614,113.01587301587303 36.402116402116405,112.3809523809524 35.97883597883598,111.74603174603176 35.55555555555556,111.11111111111111 35.34391534391535,110.47619047619048 34.920634920634924,109.84126984126985 34.4973544973545,109.20634920634922 34.074074074074076,108.57142857142858 33.65079365079365,107.93650793650795 33.22751322751323,107.3015873015873 33.01587301587302,106.66666666666667 32.592592592592595,106.03174603174604 32.16931216931217,105.3968253968254 31.746031746031747,104.76190476190477 31.53439153439154,104.12698412698414 31.111111111111114,103.70370370370371 30.68783068783069,103.06878306878308 30.264550264550266,102.43386243386244 29.841269841269842,101.79894179894181 29.629629629629633,101.16402116402116 29.20634920634921,100.74074074074075 28.783068783068785,100.10582010582011 28.35978835978836,99.47089947089948 27.93650793650794,98.83597883597885 27.513227513227516,98.2010582010582 27.089947089947092,97.56613756613757 26.666666666666668,96.93121693121694 26.243386243386244,96.2962962962963 25.820105820105823,95.66137566137567 25.3968253968254,95.23809523809524 24.973544973544975,94.60317460317461 24.55026455026455,94.17989417989419 24.12698412698413,93.75661375661376 23.703703703703706,93.12169312169313 23.492063492063494,92.4867724867725 23.06878306878307,92.06349206349208 22.645502645502646,91.42857142857143 22.222222222222225,91.00529100529101 21.7989417989418,90.37037037037038 21.375661375661377,89.73544973544975 20.952380952380953,89.31216931216932 20.529100529100532,88.67724867724868 20.105820105820108,88.25396825396827 19.682539682539684,87.61904761904762 19.25925925925926,87.1957671957672 18.83597883597884,86.56084656084657 18.412698412698415,86.13756613756614 17.98941798941799,85.71428571428572 17.566137566137566,85.07936507936509 17.142857142857146,84.65608465608466 16.71957671957672,84.02116402116403 16.296296296296298,83.59788359788361 15.661375661375663,83.17460317460318 15.238095238095239,82.53968253968254 14.814814814814817,82.11640211640213 14.391534391534393,81.6931216931217 13.96825396825397,81.26984126984128 13.544973544973546,80.84656084656085 13.121693121693122,80.42328042328043 12.6984126984127,79.7883597883598 12.063492063492065,79.36507936507937 11.640211640211641,78.94179894179895 11.216931216931219,78.51851851851852 10.793650793650794,78.0952380952381 10.370370370370372,77.67195767195767 9.735449735449736,77.24867724867725 9.312169312169313,76.82539682539684 8.88888888888889,76.4021164021164 8.465608465608467,75.97883597883599 8.042328042328043,75.55555555555556 7.6190476190476195,75.13227513227514 6.984126984126985,74.70899470899471 6.560846560846561,74.28571428571429 6.137566137566138,73.86243386243387 5.502645502645503,73.43915343915344 4.867724867724868,73.01587301587303 4.2328042328042335,72.5925925925926 3.597883597883598,72.16931216931218 2.9629629629629632,71.74603174603175 -0.4232804232804233,68.994708994709" style="fill:none; stroke:#3300bb; stroke-width:1.0"  /><circle cx="-0.4232804232804233" cy="68.994708994709" r="2.0" style="fill:none; stroke:#000000aa; stroke-width:0.25" /><circle cx="101.37566137566138" cy="-0.21164021164021166" r="2.0" style="fill:none; stroke:#000000aa; stroke-width:0.25" /><circle cx="183.70370370370372" cy="120.21164021164022" r="2.0" style="fill:none; stroke:#000000aa; stroke-width:0.25" /><circle cx="106.03174603174604" cy="202.75132275132276" r="2.0" style="fill:none; stroke:#000000aa; stroke-width:0.25" /><circle cx="0.21164021164021166" cy="69.41798941798942" r="2.0" style="fill:none; stroke:#ff3366aa; stroke-width:0.25" /><circle cx="100.74074074074075" cy="0.21164021164021166" r="2.0" style="fill:none; stroke:#ff3366aa; stroke-width:0.25" /><circle cx="183.4920634920635" cy="120.42328042328043" r="2.0" style="fill:none; stroke:#ff3366aa; stroke-width:0.25" /><circle cx="105.82010582010582" cy="202.11640211640213" r="2.0" style="fill:none; stroke:#ff3366aa; stroke-width:0.25" /><polyline points="10.582010582010582,64.33862433862434 9.947089947089948,64.55026455026456 9.312169312169313,64.76190476190477 8.677248677248677,64.97354497354497 8.253968253968255,65.3968253968254 7.6190476190476195,65.3968253968254 6.984126984126985,65.82010582010582 6.34920634920635,66.03174603174604 5.714285714285714,66.24338624338625 5.07936507936508,66.66666666666667 4.444444444444445,66.87830687830689 3.8095238095238098,67.08994708994709 3.174603174603175,67.51322751322752" style="fill:none; stroke:#001100; stroke-width:1.0" /><polyline points="9.312169312169313,76.82539682539684 8.88888888888889,76.4021164021164 8.465608465608467,75.97883597883599 8.042328042328043,75.55555555555556 7.6190476190476195,75.13227513227514 6.984126984126985,74.70899470899471 6.560846560846561,74.28571428571429 6.137566137566138,73.86243386243387 5.502645502645503,73.43915343915344 4.867724867724868,73.01587301587303 4.2328042328042335,72.5925925925926 3.597883597883598,72.16931216931218 2.9629629629629632,71.74603174603175" style="fill:none; stroke:#000011; stroke-width:1.0" /><polyline points="107.93650793650795,9.100529100529101 107.51322751322752,8.465608465608467 107.0899470899471,8.042328042328043 106.66666666666667,7.407407407407408 106.45502645502647,6.772486772486773 106.03174603174604,6.137566137566138 105.60846560846562,5.714285714285714 105.18518518518519,5.07936507936508 104.76190476190477,4.444444444444445 104.33862433862434,4.021164021164021 103.91534391534393,3.3862433862433865 103.4920634920635,2.9629629629629632 103.06878306878308,2.3280423280423284" style="fill:none; stroke:#001100; stroke-width:1.0" /><polyline points="89.73544973544975,4.021164021164021 90.37037037037038,3.8095238095238098 91.00529100529101,3.597883597883598 91.64021164021165,3.3862433862433865 92.27513227513228,3.174603174603175 92.91005291005291,2.9629629629629632 93.54497354497356,2.53968253968254 94.17989417989419,2.3280423280423284 94.81481481481482,2.1164021164021167 95.44973544973546,1.9047619047619049 96.08465608465609,1.6931216931216932 96.71957671957672,1.4814814814814816 97.35449735449737,1.26984126984127" style="fill:none; stroke:#000011; stroke-width:1.0" /><polyline points="174.1798941798942,127.61904761904763 174.81481481481484,127.1957671957672 175.23809523809524,126.77248677248679 175.66137566137567,126.34920634920636 176.2962962962963,125.92592592592594 176.71957671957674,125.5026455026455 177.14285714285717,125.07936507936509 177.7777777777778,124.65608465608466 178.2010582010582,124.23280423280424 178.83597883597884,123.80952380952382 179.4708994708995,123.3862433862434 180.10582010582013,122.96296296296298 180.74074074074076,122.53968253968254" style="fill:none; stroke:#001100; stroke-width:1.0" /><polyline points="177.14285714285717,110.26455026455027 177.56613756613757,110.89947089947091 177.989417989418,111.53439153439155 178.41269841269843,112.16931216931218 178.62433862433863,112.80423280423281 179.04761904761907,113.22751322751324 179.4708994708995,113.86243386243387 179.6825396825397,114.49735449735451 180.10582010582013,114.92063492063492 180.52910052910053,115.55555555555557 180.95238095238096,116.1904761904762 181.3756613756614,116.61375661375662 181.5873015873016,117.24867724867725 182.01058201058203,117.67195767195768" style="fill:none; stroke:#000011; stroke-width:1.0" /><polyline points="102.64550264550266,190.8994708994709 102.85714285714286,191.53439153439155 103.06878306878308,192.16931216931218 103.28042328042329,192.8042328042328 103.4920634920635,193.43915343915344 103.70370370370371,194.07407407407408 103.91534391534393,194.70899470899474 104.12698412698414,195.34391534391537 104.12698412698414,195.978835978836 104.33862433862434,196.61375661375664 104.55026455026456,197.24867724867727 104.76190476190477,197.8835978835979 104.76190476190477,198.51851851851853 104.97354497354497,199.15343915343917" style="fill:none; stroke:#001100; stroke-width:1.0" /><polyline points="113.65079365079366,193.22751322751324 113.22751322751324,193.65079365079367 112.80423280423281,194.07407407407408 112.3809523809524,194.70899470899474 111.95767195767196,195.13227513227514 111.53439153439155,195.76719576719577 111.11111111111111,196.1904761904762 110.6878306878307,196.82539682539684 110.26455026455027,197.24867724867727 109.84126984126985,197.6719576719577 109.41798941798943,198.30687830687833 108.994708994709,198.94179894179896 108.57142857142858,199.5767195767196 108.14814814814815,200.00000000000003" style="fill:none; stroke:#000011; stroke-width:1.0" /><polyline points="3.174603174603175,67.51322751322752 -16.296296296296298,75.76719576719577" style="fill:none; stroke:#ffaa00; stroke-width:0.4" /><polyline points="2.9629629629629632,71.74603174603175 -13.544973544973546,58.62433862433863" style="fill:none; stroke:#aaff00; stroke-width:0.4" /><polyline points="103.06878306878308,2.3280423280423284 90.7936507936508,-14.814814814814817" style="fill:none; stroke:#ffaa00; stroke-width:0.4" /><polyline points="97.35449735449737,1.26984126984127 117.24867724867725,-5.9259259259259265" style="fill:none; stroke:#aaff00; stroke-width:0.4" /><polyline points="180.74074074074076,122.53968253968254 197.46031746031747,109.62962962962963" style="fill:none; stroke:#ffaa00; stroke-width:0.4" /><polyline points="182.01058201058203,117.67195767195768 193.65079365079367,135.44973544973547" style="fill:none; stroke:#aaff00; stroke-width:0.4" /><polyline points="104.97354497354497,199.15343915343917 110.6878306878307,219.4708994708995" style="fill:none; stroke:#ffaa00; stroke-width:0.4" /><polyline points="108.14814814814815,200.00000000000003 94.81481481481482,216.50793650793653" style="fill:none; stroke:#aaff00; stroke-width:0.4" /><circle cx="93.12169312169313" cy="108.57142857142858" r="1.0" style="fill:#444444; stroke-width:0" /><circle cx="117.46031746031747" cy="139.47089947089947" r="10.582010582010582" style="fill:#ff770022; stroke-width:0" /><circle cx="117.46031746031747" cy="139.47089947089947" r="1.0" style="fill:#ff7700; stroke-width:0" /></svg>