<?xml version="1.0" encoding="UTF-8" standalone="no"?><svg width="485.0793650793651" height="535.8730158730159" viewBox="-10 -10 181.6931216931217 198.62433862433863" xmlns="http://www.w3.org/2000/svg" xmlns:xlink="http://www.w3.org/1999/xlink"><polyline points="1.6931216931216932,37.46031746031746 5.07936507936508,37.248677248677254 5.714285714285714,37.248677248677254 6.34920634920635,37.03703703703704 6.984126984126985,36.82539682539683 7.6190476190476195,36.82539682539683 8.253968253968255,36.82539682539683 8.88888888888889,36.82539682539683 9.523809523809524,36.82539682539683 10.15873015873016,36.82539682539683 10.793650793650794,36.82539682539683 11.428571428571429,36.82539682539683 12.063492063492065,36.82539682539683 12.6984126984127,36.613756613756614 13.333333333333334,36.613756613756614 13.96825396825397,36.613756613756614 14.603174603174605,36.613756613756614 15.238095238095239,36.613756613756614 15.873015873015873,36.402116402116405 16.50793650793651,36.402116402116405 17.142857142857146,36.402116402116405 17.77777777777778,36.402116402116405 18.412698412698415,36.402116402116405 19.047619047619047,36.402116402116405 19.682539682539684,36.402116402116405 20.31746031746032,36.402116402116405 20.952380952380953,36.402116402116405 21.58730158730159,36.402116402116405 22.222222222222225,36.402116402116405 22.857142857142858,36.402116402116405 23.492063492063494,36.402116402116405 24.12698412698413,36.402116402116405 24.761904761904763,36.402116402116405 25.3968253968254,36.402116402116405 26.031746031746035,36.402116402116405 26.666666666666668,36.402116402116405 27.301587301587304,36.402116402116405 27.93650793650794,36.402116402116405 28.571428571428573,36.402116402116405 29.20634920634921,36.402116402116405 29.841269841269842,36.402116402116405 30.476190476190478,36.613756613756614 31.111111111111114,36.402116402116405 31.746031746031747,36.402116402116405 32.38095238095239,36.613756613756614 33.01587301587302,36.613756613756614 33.65079365079365,36.613756613756614 34.28571428571429,36.82539682539683 34.920634920634924,36.82539682539683 35.55555555555556,36.82539682539683 36.19047619047619,36.613756613756614 36.82539682539683,36.402116402116405 37.46031746031746,36.402116402116405 38.095238095238095,36.402116402116405 38.730158730158735,36.19047619047619 39.15343915343916,35.76719576719577 39.78835978835979,35.55555555555556 40.423280423280424,35.13227513227513 40.84656084656085,34.70899470899471 41.26984126984127,34.28571428571429 41.6931216931217,33.65079365079365 42.11640211640212,33.01587301587302 42.539682539682545,32.592592592592595 42.75132275132275,31.95767195767196 42.96296296296297,31.322751322751326 43.17460317460318,30.68783068783069 43.17460317460318,30.052910052910054 43.386243386243386,29.41798941798942 43.386243386243386,28.783068783068785 43.386243386243386,28.14814814814815 43.386243386243386,27.513227513227516 43.386243386243386,26.87830687830688 43.386243386243386,26.243386243386244 43.17460317460318,25.60846560846561 43.17460317460318,24.973544973544975 42.96296296296297,24.338624338624342 42.75132275132275,23.703703703703706 42.32804232804233,23.06878306878307 41.904761904761905,22.433862433862437 41.6931216931217,21.7989417989418 41.26984126984127,21.164021164021165 41.058201058201064,20.529100529100532 40.84656084656085,19.894179894179896 40.84656084656085,19.25925925925926 40.63492063492064,18.624338624338627 40.423280423280424,17.98941798941799 40.211640211640216,17.354497354497354 40.211640211640216,16.71957671957672 40.211640211640216,16.084656084656086 40.211640211640216,15.449735449735451 40.211640211640216,14.814814814814817 40.211640211640216,14.17989417989418 40.211640211640216,13.544973544973546 40.423280423280424,12.910052910052912 40.63492063492064,12.275132275132275 40.63492063492064,11.640211640211641 41.058201058201064,11.005291005291006 41.26984126984127,10.370370370370372 41.48148148148149,9.735449735449736 41.904761904761905,9.312169312169313 42.32804232804233,8.677248677248677 42.75132275132275,8.042328042328043 43.17460317460318,7.6190476190476195 43.5978835978836,7.195767195767196 44.021164021164026,6.772486772486773 44.65608465608466,6.34920634920635 45.29100529100529,6.137566137566138 45.714285714285715,5.714285714285714 46.13756613756614,5.291005291005291 46.77248677248678,4.867724867724868 47.40740740740741,4.656084656084657 48.042328042328045,4.2328042328042335 48.677248677248684,3.8095238095238098 49.31216931216932,3.597883597883598 49.94708994708995,3.174603174603175 50.58201058201058,2.9629629629629632 51.00529100529101,2.53968253968254 51.640211640211646,2.3280423280423284 52.27513227513228,2.1164021164021167 52.91005291005291,1.9047619047619049 53.54497354497355,1.6931216931216932 54.179894179894184,1.4814814814814816 54.81481481481482,1.26984126984127 55.449735449735456,1.26984126984127 56.08465608465609,1.0582010582010584 56.71957671957672,0.8465608465608466 57.35449735449736,0.8465608465608466 57.989417989417994,0.8465608465608466 58.62433862433863,0.8465608465608466 59.04761904761905,0.4232804232804233 59.682539682539684,0.4232804232804233 60.31746031746032,0.4232804232804233 60.952380952380956,0.4232804232804233 61.58730158730159,0.21164021164021166 62.22222222222223,0.21164021164021166 62.85714285714286,0.21164021164021166 63.492063492063494,0.21164021164021166 64.12698412698413,0.4232804232804233 64.76190476190477,0.4232804232804233 65.3968253968254,0.4232804232804233 66.03174603174604,0.4232804232804233 66.66666666666667,0.4232804232804233 67.3015873015873,0.4232804232804233 67.93650793650794,0.634920634920635 68.57142857142858,0.634920634920635 69.20634920634922,0.8465608465608466 69.84126984126985,1.0582010582010584 70.47619047619048,1.26984126984127 71.11111111111111,1.6931216931216932 71.53439153439155,2.1164021164021167 71.95767195767196,2.53968253968254 72.16931216931218,3.174603174603175 72.38095238095238,3.8095238095238098 72.38095238095238,4.444444444444445 72.38095238095238,5.07936507936508 72.5925925925926,5.714285714285714 72.80423280423281,6.34920634920635 72.80423280423281,6.984126984126985 72.38095238095238,7.6190476190476195 72.38095238095238,8.253968253968255 72.16931216931218,8.88888888888889 72.16931216931218,9.523809523809524 71.95767195767196,10.15873015873016 71.74603174603175,10.793650793650794 71.53439153439155,11.428571428571429 71.32275132275133,12.063492063492065 70.8994708994709,12.6984126984127 70.6878306878307,13.333333333333334 70.47619047619048,13.96825396825397 70.26455026455027,14.603174603174605 69.84126984126985,15.238095238095239 69.62962962962963,15.873015873015873 69.41798941798942,16.50793650793651 69.20634920634922,17.142857142857146 68.994708994709,17.77777777777778 68.78306878306879,18.412698412698415 68.35978835978837,19.047619047619047 68.14814814814815,19.682539682539684 67.93650793650794,20.31746031746032 67.72486772486774,20.952380952380953 67.72486772486774,21.58730158730159 67.51322751322752,22.222222222222225 67.3015873015873,22.857142857142858 67.51322751322752,23.492063492063494 67.72486772486774,24.12698412698413 67.72486772486774,24.761904761904763 67.72486772486774,25.3968253968254 67.93650793650794,26.031746031746035 67.93650793650794,26.666666666666668 68.35978835978837,27.301587301587304 68.57142857142858,27.93650793650794 68.994708994709,28.571428571428573 69.41798941798942,28.994708994708997 69.84126984126985,29.629629629629633 70.47619047619048,30.052910052910054 70.8994708994709,30.476190476190478 71.53439153439155,30.899470899470902 72.16931216931218,31.322751322751326 72.80423280423281,31.53439153439154 73.43915343915344,31.95767195767196 74.07407407407408,32.16931216931217 74.70899470899471,32.38095238095239 75.34391534391536,32.592592592592595 75.97883597883599,32.804232804232804 76.61375661375662,33.01587301587302 77.24867724867725,33.22751322751323 77.88359788359789,33.43915343915344 78.51851851851852,33.86243386243387 79.15343915343917,33.86243386243387 79.7883597883598,34.28571428571429 80.42328042328043,34.4973544973545 81.05820105820106,34.70899470899471 81.6931216931217,34.920634920634924 82.32804232804233,35.13227513227513 82.96296296296298,35.34391534391535 83.59788359788361,35.55555555555556 84.23280423280424,35.55555555555556 84.86772486772487,35.76719576719577 85.5026455026455,35.97883597883598 86.13756613756614,36.19047619047619 86.77248677248677,36.402116402116405 87.40740740740742,36.613756613756614 88.04232804232805,36.82539682539683 88.67724867724868,36.82539682539683 89.31216931216932,37.03703703703704 89.94708994708995,37.248677248677254 90.58201058201058,37.248677248677254 91.21693121693123,37.46031746031746 91.85185185185186,37.67195767195768 92.4867724867725,37.67195767195768 93.12169312169313,37.883597883597886 93.75661375661376,37.883597883597886 94.39153439153439,38.095238095238095 95.02645502645504,38.095238095238095 95.66137566137567,38.30687830687831 96.2962962962963,38.30687830687831 96.93121693121694,38.30687830687831 97.56613756613757,38.30687830687831 98.2010582010582,38.51851851851852 98.83597883597885,38.51851851851852 99.47089947089948,38.51851851851852 100.10582010582011,38.730158730158735 100.74074074074075,38.730158730158735 101.37566137566138,38.94179894179894 102.01058201058201,38.730158730158735 102.43386243386244,39.15343915343916 103.06878306878308,38.94179894179894 103.70370370370371,38.94179894179894 104.33862433862434,38.94179894179894 104.97354497354497,38.94179894179894 105.60846560846562,38.94179894179894 106.24338624338625,38.94179894179894 106.87830687830689,38.94179894179894 107.51322751322752,39.15343915343916 108.14814814814815,39.15343915343916 108.78306878306879,39.15343915343916 109.41798941798943,39.15343915343916 110.05291005291006,39.15343915343916 110.6878306878307,38.94179894179894 111.32275132275133,38.730158730158735 111.95767195767196,38.730158730158735 112.5925925925926,38.51851851851852 113.22751322751324,38.30687830687831 113.86243386243387,38.30687830687831 114.49735449735451,38.30687830687831 115.13227513227514,38.30687830687831 118.30687830687832,38.095238095238095" style="fill:none; stroke:#cc0000; stroke-width:1.0"  /><polyline points="118.30687830687832,38.095238095238095 118.0952380952381,41.058201058201064 118.0952380952381,41.6931216931217 118.0952380952381,42.32804232804233 117.88359788359789,42.96296296296297 117.88359788359789,43.5978835978836 117.67195767195768,44.232804232804234 117.67195767195768,44.867724867724874 117.67195767195768,45.50264550264551 117.67195767195768,46.13756613756614 117.67195767195768,46.77248677248678 117.67195767195768,47.40740740740741 117.46031746031747,48.042328042328045 117.46031746031747,48.677248677248684 117.24867724867725,49.31216931216932 117.24867724867725,49.94708994708995 117.24867724867725,50.58201058201058 117.24867724867725,51.21693121693122 117.03703703703705,51.851851851851855 117.03703703703705,52.48677248677249 117.03703703703705,53.12169312169313 117.03703703703705,53.75661375661376 116.82539682539684,54.39153439153439 116.61375661375662,55.02645502645503 116.61375661375662,55.661375661375665 116.61375661375662,56.2962962962963 116.4021164021164,56.93121693121694 116.4021164021164,57.56613756613757 116.61375661375662,58.2010582010582 116.4021164021164,58.83597883597884 116.4021164021164,59.470899470899475 116.4021164021164,60.10582010582011 116.4021164021164,60.74074074074075 116.4021164021164,61.37566137566138 116.1904761904762,62.01058201058201 116.1904761904762,62.64550264550265 116.1904761904762,63.280423280423285 115.97883597883599,63.91534391534392 115.97883597883599,64.55026455026456 115.97883597883599,65.18518518518519 115.97883597883599,65.82010582010582 115.97883597883599,66.45502645502646 115.76719576719577,67.08994708994709 115.76719576719577,67.72486772486774 115.55555555555557,68.35978835978837 115.55555555555557,68.994708994709 115.55555555555557,69.62962962962963 115.55555555555557,70.26455026455027 115.34391534391536,70.8994708994709 115.34391534391536,71.53439153439155 115.34391534391536,72.16931216931218 115.13227513227514,72.80423280423281 115.13227513227514,73.43915343915344 115.13227513227514,74.07407407407408 114.92063492063492,74.70899470899471 114.92063492063492,75.34391534391536 114.92063492063492,75.97883597883599 114.70899470899472,76.61375661375662 114.70899470899472,77.24867724867725 114.70899470899472,77.88359788359789 114.49735449735451,78.51851851851852 114.49735449735451,79.15343915343917 114.49735449735451,79.7883597883598 114.49735449735451,80.42328042328043 114.28571428571429,81.05820105820106 114.28571428571429,81.6931216931217 114.28571428571429,82.32804232804233 114.28571428571429,82.96296296296298 114.49735449735451,83.59788359788361 114.49735449735451,84.23280423280424 114.92063492063492,84.86772486772487 115.13227513227514,85.5026455026455 115.34391534391536,86.13756613756614 115.76719576719577,86.56084656084657 116.1904761904762,86.98412698412699 116.61375661375662,87.40740740740742 117.03703703703705,87.83068783068784 117.67195767195768,88.25396825396827 118.30687830687832,88.46560846560847 118.94179894179895,88.8888888888889 119.57671957671958,88.8888888888889 120.21164021164022,89.1005291005291 120.84656084656086,89.1005291005291 121.4814814814815,89.1005291005291 122.11640211640213,89.1005291005291 122.75132275132276,89.1005291005291 123.3862433862434,88.67724867724868 124.02116402116403,88.46560846560847 124.65608465608466,88.25396825396827 125.2910052910053,88.25396825396827 125.71428571428572,87.83068783068784 126.34920634920636,87.61904761904762 126.98412698412699,87.1957671957672 127.61904761904763,86.77248677248677 128.04232804232805,86.34920634920636 128.67724867724868,85.92592592592594 129.10052910052912,85.5026455026455 129.52380952380955,85.07936507936509 129.94708994708995,84.65608465608466 130.58201058201058,84.23280423280424 131.005291005291,83.80952380952381 131.42857142857144,83.3862433862434 132.06349206349208,82.96296296296298 132.6984126984127,82.75132275132276 133.33333333333334,82.32804232804233 133.96825396825398,82.11640211640213 134.6031746031746,81.90476190476191 135.23809523809524,81.6931216931217 135.87301587301587,81.48148148148148 136.5079365079365,81.26984126984128 137.14285714285717,81.05820105820106 137.7777777777778,81.05820105820106 138.41269841269843,80.84656084656085 139.04761904761907,80.63492063492065 139.6825396825397,80.63492063492065 140.31746031746033,80.63492063492065 140.95238095238096,80.63492063492065 141.5873015873016,80.63492063492065 142.22222222222223,80.63492063492065 142.85714285714286,80.63492063492065 143.4920634920635,80.84656084656085 144.12698412698413,80.84656084656085 144.76190476190476,80.84656084656085 145.39682539682542,81.05820105820106 146.03174603174605,81.26984126984128 146.66666666666669,81.26984126984128 147.30158730158732,81.48148148148148 147.93650793650795,81.6931216931217 148.57142857142858,82.11640211640213 149.20634920634922,82.32804232804233 149.84126984126985,82.75132275132276 150.47619047619048,83.17460317460318 151.11111111111111,83.59788359788361 151.74603174603175,84.02116402116403 152.38095238095238,84.44444444444446 152.8042328042328,84.86772486772487 153.43915343915344,85.29100529100529 153.86243386243387,85.71428571428572 154.2857142857143,86.13756613756614 154.7089947089947,86.56084656084657 155.13227513227514,86.98412698412699 155.55555555555557,87.40740740740742 155.978835978836,88.04232804232805 156.1904761904762,88.67724867724868 156.61375661375664,89.31216931216932 157.03703703703704,89.94708994708995 157.46031746031747,90.58201058201058 157.67195767195767,91.21693121693123 157.8835978835979,91.85185185185186 158.0952380952381,92.4867724867725 158.51851851851853,92.91005291005291 158.94179894179896,93.54497354497356 159.15343915343917,94.17989417989419 159.36507936507937,94.81481481481482 159.5767195767196,95.44973544973546 160.0,96.08465608465609 160.0,96.71957671957672 160.21164021164023,97.35449735449737 160.42328042328043,97.989417989418 160.42328042328043,98.62433862433863 160.63492063492066,99.25925925925927 160.84656084656086,99.8941798941799 161.05820105820106,100.52910052910053 161.05820105820106,101.16402116402116 161.05820105820106,101.79894179894181 161.2698412698413,102.43386243386244 161.2698412698413,103.06878306878308 161.2698412698413,103.70370370370371 161.2698412698413,104.33862433862434 161.2698412698413,104.97354497354497 161.2698412698413,105.60846560846562 161.2698412698413,106.24338624338625 161.2698412698413,106.87830687830689 161.2698412698413,107.51322751322752 161.05820105820106,108.14814814814815 161.05820105820106,108.78306878306879 161.05820105820106,109.41798941798943 160.84656084656086,110.05291005291006 160.63492063492066,110.6878306878307 160.63492063492066,111.32275132275133 160.42328042328043,111.95767195767196 160.42328042328043,112.5925925925926 160.21164021164023,113.22751322751324 160.0,113.86243386243387 159.7883597883598,114.49735449735451 159.7883597883598,115.13227513227514 159.36507936507937,115.55555555555557 158.94179894179896,115.97883597883599 158.73015873015873,116.61375661375662 158.73015873015873,117.24867724867725 158.51851851851853,117.88359788359789 158.0952380952381,118.30687830687832 157.67195767195767,118.94179894179895 157.46031746031747,119.57671957671958 157.24867724867727,120.21164021164022 156.82539682539684,120.63492063492065 156.4021164021164,121.26984126984128 155.978835978836,121.90476190476191 155.55555555555557,122.32804232804234 155.13227513227514,122.75132275132276 154.7089947089947,123.17460317460318 154.07407407407408,123.59788359788361 153.65079365079367,124.02116402116403 153.22751322751324,124.44444444444446 152.5925925925926,124.86772486772487 152.16931216931218,125.2910052910053 151.53439153439155,125.71428571428572 151.11111111111111,126.13756613756615 150.47619047619048,126.56084656084657 149.84126984126985,126.98412698412699 149.20634920634922,127.40740740740742 148.57142857142858,127.83068783068784 147.93650793650795,128.25396825396825 147.30158730158732,128.46560846560848 146.66666666666669,128.67724867724868 146.24338624338625,129.10052910052912 145.60846560846562,129.31216931216932 144.973544973545,129.52380952380955 144.33862433862436,129.52380952380955 143.70370370370372,129.52380952380955 143.0687830687831,129.52380952380955 142.43386243386246,129.31216931216932 141.7989417989418,129.31216931216932 141.16402116402116,129.10052910052912 140.52910052910053,128.88888888888889 139.8941798941799,128.88888888888889 139.25925925925927,128.67724867724868 138.62433862433863,128.46560846560848 137.989417989418,128.04232804232805 137.35449735449737,127.83068783068784 136.71957671957674,127.61904761904763 136.0846560846561,127.40740740740742 135.44973544973547,126.98412698412699 134.81481481481484,126.77248677248679 134.17989417989418,126.34920634920636 133.54497354497354,126.13756613756615 133.12169312169314,125.71428571428572 132.4867724867725,125.5026455026455 131.85185185185185,125.07936507936509 131.21693121693121,124.86772486772487 130.7936507936508,124.44444444444446 130.15873015873018,124.23280423280424 129.52380952380955,123.80952380952382 128.88888888888889,123.3862433862434 128.25396825396825,123.17460317460318 127.61904761904763,122.96296296296298 126.98412698412699,122.75132275132276 126.34920634920636,122.32804232804234 125.71428571428572,122.32804232804234 125.07936507936509,122.32804232804234 124.44444444444446,122.11640211640213 123.80952380952382,122.11640211640213 123.17460317460318,122.32804232804234 122.53968253968254,122.53968253968254 121.90476190476191,122.75132275132276 121.26984126984128,122.96296296296298 120.63492063492065,123.3862433862434 120.21164021164022,123.80952380952382 119.7883597883598,124.23280423280424 119.36507936507937,124.65608465608466 118.94179894179895,125.07936507936509 118.51851851851853,125.71428571428572 118.30687830687832,126.34920634920636 117.88359788359789,126.98412698412699 117.88359788359789,127.61904761904763 117.88359788359789,128.25396825396825 117.67195767195768,128.88888888888889 117.67195767195768,129.52380952380955 117.46031746031747,130.15873015873018 117.46031746031747,130.7936507936508 117.46031746031747,131.42857142857144 117.46031746031747,132.06349206349208 117.46031746031747,132.6984126984127 117.67195767195768,133.33333333333334 117.67195767195768,133.96825396825398 117.67195767195768,134.6031746031746 117.88359788359789,135.23809523809524 117.88359788359789,135.87301587301587 117.88359788359789,136.5079365079365 118.0952380952381,137.14285714285717 118.0952380952381,137.7777777777778 118.30687830687832,138.41269841269843 118.30687830687832,139.04761904761907 118.30687830687832,139.6825396825397 118.51851851851853,140.31746031746033 118.51851851851853,140.95238095238096 118.51851851851853,141.5873015873016 118.51851851851853,142.22222222222223 118.73015873015873,142.85714285714286 118.73015873015873,143.4920634920635 118.73015873015873,144.12698412698413 118.73015873015873,144.76190476190476 118.73015873015873,145.39682539682542 118.73015873015873,146.03174603174605 118.73015873015873,146.66666666666669 118.73015873015873,147.30158730158732 118.73015873015873,147.93650793650795 118.73015873015873,148.57142857142858 118.94179894179895,149.20634920634922 118.73015873015873,149.84126984126985 118.94179894179895,150.47619047619048 118.73015873015873,151.11111111111111 118.94179894179895,151.74603174603175 118.73015873015873,152.38095238095238 118.73015873015873,153.01587301587304 118.73015873015873,153.65079365079367 118.73015873015873,154.2857142857143 118.73015873015873,154.92063492063494 118.73015873015873,155.55555555555557 118.73015873015873,156.1904761904762 118.73015873015873,156.82539682539684 118.73015873015873,157.46031746031747 118.73015873015873,158.0952380952381 118.73015873015873,158.73015873015873 118.73015873015873,159.36507936507937 118.51851851851853,160.0 118.51851851851853,160.63492063492066 118.51851851851853,161.2698412698413 118.51851851851853,161.90476190476193 118.51851851851853,162.53968253968256 118.73015873015873,163.1746031746032 118.51851851851853,163.80952380952382 118.51851851851853,164.44444444444446 118.51851851851853,165.0793650793651 118.30687830687832,165.71428571428572 118.30687830687832,166.34920634920636 118.30687830687832,166.984126984127 118.30687830687832,167.61904761904762 118.0952380952381,168.25396825396825 118.0952380952381,168.8888888888889 118.0952380952381,169.52380952380955 117.88359788359789,170.15873015873018 117.88359788359789,170.7936507936508 117.67195767195768,171.42857142857144 117.67195767195768,172.06349206349208 117.46031746031747,172.6984126984127 117.46031746031747,173.33333333333334 117.46031746031747,173.96825396825398 117.24867724867725,174.6031746031746 116.82539682539684,177.989417989418" style="fill:none; stroke:#999900; stroke-width:1.0"  /><polyline points="116.82539682539684,177.989417989418 113.43915343915344,177.56613756613757 112.80423280423281,177.35449735449737 112.16931216931218,177.35449735449737 111.53439153439155,177.14285714285717 110.89947089947091,177.14285714285717 110.26455026455027,177.14285714285717 109.62962962962963,177.14285714285717 108.994708994709,176.93121693121694 108.35978835978837,176.93121693121694 107.72486772486774,176.93121693121694 107.0899470899471,176.71957671957674 106.45502645502647,176.71957671957674 105.82010582010582,176.50793650793653 105.18518518518519,176.2962962962963 104.55026455026456,176.2962962962963 103.91534391534393,176.2962962962963 103.28042328042329,176.2962962962963 102.64550264550266,176.0846560846561 102.01058201058201,175.87301587301587 101.37566137566138,175.87301587301587 100.74074074074075,175.87301587301587 100.10582010582011,175.87301587301587 99.47089947089948,175.87301587301587 98.83597883597885,175.87301587301587 98.2010582010582,175.66137566137567 97.56613756613757,175.66137566137567 96.93121693121694,175.66137566137567 96.2962962962963,175.66137566137567 95.66137566137567,175.66137566137567 95.02645502645504,175.44973544973547 94.39153439153439,175.44973544973547 93.75661375661376,175.44973544973547 93.12169312169313,175.23809523809524 92.4867724867725,175.23809523809524 91.85185185185186,175.23809523809524 91.21693121693123,175.02645502645504 90.58201058201058,174.81481481481484 89.94708994708995,174.6031746031746 89.31216931216932,174.3915343915344 88.67724867724868,174.1798941798942 88.04232804232805,173.75661375661377 87.40740740740742,173.33333333333334 86.98412698412699,172.9100529100529 86.56084656084657,172.4867724867725 86.13756613756614,171.85185185185188 85.92592592592594,171.21693121693124 85.71428571428572,170.58201058201058 85.5026455026455,169.94708994708995 85.5026455026455,169.31216931216932 85.29100529100529,168.67724867724868 85.29100529100529,168.04232804232805 85.5026455026455,167.40740740740742 85.5026455026455,166.7724867724868 85.71428571428572,166.13756613756615 85.92592592592594,165.50264550264552 86.13756613756614,164.8677248677249 86.34920634920636,164.23280423280426 86.77248677248677,163.80952380952382 86.98412698412699,163.1746031746032 87.1957671957672,162.53968253968256 87.61904761904762,161.90476190476193 88.04232804232805,161.2698412698413 88.46560846560847,160.84656084656086 88.8888888888889,160.21164021164023 89.31216931216932,159.7883597883598 89.52380952380953,159.15343915343917 89.94708994708995,158.73015873015873 90.37037037037038,158.0952380952381 90.7936507936508,157.67195767195767 91.00529100529101,157.03703703703704 91.42857142857143,156.4021164021164 91.64021164021165,155.76719576719577 91.85185185185186,155.13227513227514 92.06349206349208,154.4973544973545 92.27513227513228,153.86243386243387 92.27513227513228,153.22751322751324 92.27513227513228,152.5925925925926 92.27513227513228,151.95767195767198 92.06349206349208,151.32275132275134 91.85185185185186,150.6878306878307 91.42857142857143,150.05291005291005 91.00529100529101,149.41798941798942 90.58201058201058,148.78306878306879 90.15873015873017,148.35978835978838 89.73544973544975,147.93650793650795 89.1005291005291,147.72486772486775 88.67724867724868,147.30158730158732 88.04232804232805,147.0899470899471 87.40740740740742,146.66666666666669 86.77248677248677,146.24338624338625 86.13756613756614,146.03174603174605 85.5026455026455,145.60846560846562 84.86772486772487,145.39682539682542 84.23280423280424,144.973544973545 83.59788359788361,144.76190476190476 82.96296296296298,144.55026455026456 82.32804232804233,144.12698412698413 81.6931216931217,143.91534391534393 81.05820105820106,143.70370370370372 80.42328042328043,143.4920634920635 79.7883597883598,143.2804232804233 79.15343915343917,142.85714285714286 78.51851851851852,142.64550264550266 77.88359788359789,142.64550264550266 77.24867724867725,142.43386243386246 76.61375661375662,142.22222222222223 75.97883597883599,142.43386243386246 75.34391534391536,142.22222222222223 74.70899470899471,142.01058201058203 74.07407407407408,142.01058201058203 73.43915343915344,141.7989417989418 72.80423280423281,141.7989417989418 72.16931216931218,141.5873015873016 71.53439153439155,141.5873015873016 70.8994708994709,141.5873015873016 70.26455026455027,141.3756613756614 69.62962962962963,141.3756613756614 68.994708994709,141.3756613756614 68.35978835978837,141.3756613756614 67.72486772486774,141.3756613756614 67.08994708994709,141.3756613756614 66.45502645502646,141.3756613756614 65.82010582010582,141.3756613756614 65.18518518518519,141.3756613756614 64.55026455026456,141.3756613756614 63.91534391534392,141.3756613756614 63.280423280423285,141.16402116402116 62.64550264550265,141.16402116402116 62.01058201058201,141.16402116402116 61.37566137566138,141.3756613756614 60.74074074074075,141.3756613756614 60.10582010582011,141.3756613756614 59.470899470899475,141.5873015873016 58.83597883597884,141.5873015873016 58.2010582010582,141.5873015873016 57.56613756613757,141.7989417989418 56.93121693121694,142.01058201058203 56.2962962962963,142.01058201058203 55.661375661375665,142.22222222222223 55.02645502645503,142.22222222222223 54.39153439153439,142.43386243386246 53.75661375661376,142.43386243386246 53.12169312169313,142.64550264550266 52.48677248677249,142.85714285714286 51.851851851851855,143.0687830687831 51.21693121693122,143.2804232804233 50.58201058201058,143.70370370370372 49.94708994708995,143.91534391534393 49.31216931216932,144.12698412698413 48.677248677248684,144.55026455026456 48.042328042328045,144.76190476190476 47.40740740740741,144.973544973545 46.77248677248678,145.39682539682542 46.13756613756614,145.82010582010582 45.50264550264551,146.03174603174605 44.867724867724874,146.45502645502646 44.232804232804234,146.8783068783069 43.5978835978836,147.30158730158732 43.17460317460318,147.72486772486775 42.539682539682545,148.14814814814815 42.11640211640212,148.57142857142858 41.6931216931217,149.20634920634922 41.48148148148149,149.84126984126985 41.26984126984127,150.47619047619048 40.84656084656085,151.11111111111111 40.84656084656085,151.74603174603175 40.63492063492064,152.38095238095238 40.63492063492064,153.01587301587304 40.63492063492064,153.65079365079367 40.63492063492064,154.2857142857143 40.423280423280424,154.92063492063494 40.84656084656085,155.55555555555557 40.84656084656085,156.1904761904762 40.84656084656085,156.82539682539684 41.26984126984127,157.46031746031747 41.6931216931217,157.8835978835979 42.11640211640212,158.51851851851853 42.539682539682545,158.94179894179896 42.96296296296297,159.5767195767196 43.386243386243386,160.0 43.80952380952381,160.42328042328043 44.232804232804234,160.84656084656086 44.65608465608466,161.2698412698413 45.07936507936508,161.6931216931217 45.50264550264551,162.32804232804233 45.92592592592593,162.96296296296296 46.349206349206355,163.3862433862434 46.77248677248678,163.80952380952382 46.98412698412699,164.44444444444446 46.98412698412699,165.0793650793651 47.195767195767196,165.71428571428572 47.40740740740741,166.34920634920636 47.61904761904762,166.984126984127 47.40740740740741,167.61904761904762 47.61904761904762,168.25396825396825 47.61904761904762,168.8888888888889 47.195767195767196,169.52380952380955 46.98412698412699,170.15873015873018 46.77248677248678,170.7936507936508 46.349206349206355,171.21693121693124 45.92592592592593,171.64021164021165 45.29100529100529,171.85185185185188 44.65608465608466,172.27513227513228 44.021164021164026,172.4867724867725 43.386243386243386,172.6984126984127 42.75132275132275,172.6984126984127 42.11640211640212,172.6984126984127 41.48148148148149,172.6984126984127 41.058201058201064,173.12169312169314 40.423280423280424,173.12169312169314 39.78835978835979,173.12169312169314 39.15343915343916,173.12169312169314 38.51851851851852,173.12169312169314 37.883597883597886,172.9100529100529 37.248677248677254,172.9100529100529 36.613756613756614,172.9100529100529 35.97883597883598,172.9100529100529 35.34391534391535,172.9100529100529 34.70899470899471,172.9100529100529 34.074074074074076,172.9100529100529 33.43915343915344,172.9100529100529 32.804232804232804,172.9100529100529 32.16931216931217,172.9100529100529 31.53439153439154,172.6984126984127 30.899470899470902,172.6984126984127 30.264550264550266,172.6984126984127 29.629629629629633,172.6984126984127 28.994708994708997,172.6984126984127 28.35978835978836,172.6984126984127 27.724867724867728,172.6984126984127 27.089947089947092,172.4867724867725 26.455026455026456,172.4867724867725 25.820105820105823,172.4867724867725 25.185185185185187,172.4867724867725 24.55026455026455,172.4867724867725 23.915343915343918,172.4867724867725 23.280423280423282,172.4867724867725 22.645502645502646,172.4867724867725 22.010582010582013,172.4867724867725 21.375661375661377,172.27513227513228 20.740740740740744,172.27513227513228 20.105820105820108,172.27513227513228 19.47089947089947,172.27513227513228 18.83597883597884,172.27513227513228 18.201058201058203,172.4867724867725 17.566137566137566,172.27513227513228 14.391534391534393,172.27513227513228" style="fill:none; stroke:#00aa99; stroke-width:1.0"  /><polyline points="14.391534391534393,172.27513227513228 14.17989417989418,169.10052910052912 13.96825396825397,168.46560846560848 13.96825396825397,167.83068783068785 13.96825396825397,167.19576719576722 13.96825396825397,166.56084656084658 13.96825396825397,165.92592592592595 13.96825396825397,165.2910052910053 13.96825396825397,164.65608465608466 13.756613756613758,164.02116402116403 13.756613756613758,163.3862433862434 13.333333333333334,162.75132275132276 13.333333333333334,162.11640211640213 13.333333333333334,161.4814814814815 13.333333333333334,160.84656084656086 13.121693121693122,160.21164021164023 12.910052910052912,159.5767195767196 12.910052910052912,158.94179894179896 12.910052910052912,158.30687830687833 12.6984126984127,157.67195767195767 12.6984126984127,157.03703703703704 12.486772486772487,156.4021164021164 12.486772486772487,155.76719576719577 12.275132275132275,155.13227513227514 12.275132275132275,154.4973544973545 12.063492063492065,153.86243386243387 11.851851851851853,153.22751322751324 11.851851851851853,152.5925925925926 11.640211640211641,151.95767195767198 11.640211640211641,151.32275132275134 11.428571428571429,150.6878306878307 11.216931216931219,150.05291005291005 11.005291005291006,149.41798941798942 11.005291005291006,148.78306878306879 10.793650793650794,148.14814814814815 10.582010582010582,147.51322751322752 10.370370370370372,146.8783068783069 10.15873015873016,146.24338624338625 10.15873015873016,145.60846560846562 9.947089947089948,144.973544973545 9.735449735449736,144.33862433862436 9.523809523809524,143.70370370370372 9.312169312169313,143.0687830687831 9.312169312169313,142.43386243386246 9.100529100529101,141.7989417989418 8.677248677248677,141.16402116402116 8.677248677248677,140.52910052910053 8.465608465608467,139.8941798941799 8.253968253968255,139.25925925925927 8.042328042328043,138.62433862433863 7.830687830687832,137.989417989418 7.407407407407408,137.35449735449737 7.195767195767196,136.71957671957674 6.984126984126985,136.0846560846561 6.772486772486773,135.44973544973547 6.560846560846561,134.81481481481484 6.137566137566138,134.3915343915344 5.9259259259259265,133.75661375661377 5.714285714285714,133.12169312169314 5.291005291005291,132.4867724867725 5.07936507936508,131.85185185185185 4.867724867724868,131.21693121693121 4.656084656084657,130.58201058201058 4.2328042328042335,129.94708994708995 4.021164021164021,129.31216931216932 3.8095238095238098,128.67724867724868 3.597883597883598,128.04232804232805 3.174603174603175,127.61904761904763 2.9629629629629632,126.98412698412699 2.7513227513227516,126.34920634920636 2.53968253968254,125.71428571428572 2.3280423280423284,125.07936507936509 2.1164021164021167,124.44444444444446 1.9047619047619049,123.80952380952382 1.6931216931216932,123.17460317460318 1.4814814814814816,122.53968253968254 1.4814814814814816,121.90476190476191 1.26984126984127,121.26984126984128 1.0582010582010584,120.63492063492065 0.8465608465608466,120.00000000000001 0.8465608465608466,119.36507936507937 0.634920634920635,118.73015873015873 0.634920634920635,118.0952380952381 0.634920634920635,117.46031746031747 0.4232804232804233,116.82539682539684 0.4232804232804233,116.1904761904762 0.4232804232804233,115.55555555555557 0.21164021164021166,114.92063492063492 0.21164021164021166,114.28571428571429 0.21164021164021166,113.65079365079366 0.21164021164021166,113.01587301587303 0.21164021164021166,112.3809523809524 0.21164021164021166,111.74603174603176 0.21164021164021166,111.11111111111111 0.21164021164021166,110.47619047619048 0.21164021164021166,109.84126984126985 0.21164021164021166,109.20634920634922 0.4232804232804233,108.57142857142858 0.4232804232804233,107.93650793650795 0.4232804232804233,107.3015873015873 0.634920634920635,106.66666666666667 0.634920634920635,106.03174603174604 0.634920634920635,105.3968253968254 0.8465608465608466,104.76190476190477 0.8465608465608466,104.12698412698414 1.0582010582010584,103.4920634920635 1.0582010582010584,102.85714285714286 1.26984126984127,102.22222222222223 1.4814814814814816,101.5873015873016 1.6931216931216932,100.95238095238096 1.9047619047619049,100.31746031746033 2.1164021164021167,99.68253968253968 2.53968253968254,99.25925925925927 2.9629629629629632,98.62433862433863 3.3862433862433865,98.2010582010582 3.8095238095238098,97.77777777777779 4.444444444444445,97.35449735449737 4.867724867724868,96.93121693121694 5.502645502645503,96.71957671957672 6.137566137566138,96.71957671957672 6.560846560846561,96.2962962962963 7.195767195767196,96.2962962962963 7.830687830687832,96.2962962962963 8.465608465608467,96.2962962962963 9.100529100529101,96.50793650793652 9.735449735449736,96.71957671957672 10.370370370370372,96.93121693121694 11.005291005291006,97.14285714285715 11.640211640211641,97.35449735449737 12.275132275132275,97.56613756613757 12.6984126984127,97.989417989418 13.333333333333334,97.989417989418 13.756613756613758,98.41269841269842 14.391534391534393,98.62433862433863 15.026455026455027,99.04761904761905 15.661375661375663,99.25925925925927 16.296296296296298,99.68253968253968 16.931216931216934,99.8941798941799 17.354497354497354,100.31746031746033 17.98941798941799,100.52910052910053 18.412698412698415,100.95238095238096 19.047619047619047,101.37566137566138 19.682539682539684,101.5873015873016 20.31746031746032,102.01058201058201 20.952380952380953,102.22222222222223 21.58730158730159,102.64550264550266 22.222222222222225,102.85714285714286 22.857142857142858,103.28042328042329 23.492063492063494,103.4920634920635 24.12698412698413,103.91534391534393 24.761904761904763,103.91534391534393 25.3968253968254,104.33862433862434 26.031746031746035,104.33862433862434 26.666666666666668,104.76190476190477 27.301587301587304,104.76190476190477 27.93650793650794,104.97354497354497 28.571428571428573,105.18518518518519 29.20634920634921,105.18518518518519 29.841269841269842,105.3968253968254 30.476190476190478,105.60846560846562 31.111111111111114,105.60846560846562 31.746031746031747,105.82010582010582 32.38095238095239,105.82010582010582 33.01587301587302,106.03174603174604 33.65079365079365,106.03174603174604 34.28571428571429,105.82010582010582 34.920634920634924,106.03174603174604 35.55555555555556,106.03174603174604 36.19047619047619,105.82010582010582 36.82539682539683,105.82010582010582 37.46031746031746,105.60846560846562 38.095238095238095,105.18518518518519 38.730158730158735,104.97354497354497 39.36507936507937,104.55026455026456 39.78835978835979,104.12698412698414 40.211640211640216,103.70370370370371 40.84656084656085,103.28042328042329 41.26984126984127,102.85714285714286 41.6931216931217,102.22222222222223 42.11640211640212,101.79894179894181 42.539682539682545,101.16402116402116 42.96296296296297,100.74074074074075 43.386243386243386,100.31746031746033 43.80952380952381,99.68253968253968 44.232804232804234,99.25925925925927 44.65608465608466,98.62433862433863 45.07936507936508,98.2010582010582 45.50264550264551,97.56613756613757 45.92592592592593,96.93121693121694 46.349206349206355,96.2962962962963 46.77248677248678,95.87301587301587 46.98412698412699,95.23809523809524 47.40740740740741,94.81481481481482 47.830687830687836,94.17989417989419 48.042328042328045,93.54497354497356 48.25396825396826,92.91005291005291 48.46560846560847,92.27513227513228 48.88888888888889,91.64021164021165 49.1005291005291,91.00529100529101 49.31216931216932,90.37037037037038 49.523809523809526,89.73544973544975 49.73544973544974,89.1005291005291 50.158730158730165,88.46560846560847 50.370370370370374,87.83068783068784 50.58201058201058,87.1957671957672 50.58201058201058,86.56084656084657 50.7936507936508,85.92592592592594 51.00529100529101,85.29100529100529 51.00529100529101,84.65608465608466 51.00529100529101,84.02116402116403 51.21693121693122,83.3862433862434 51.21693121693122,82.75132275132276 51.42857142857143,82.11640211640213 51.42857142857143,81.48148148148148 51.42857142857143,80.84656084656085 51.42857142857143,80.21164021164022 51.42857142857143,79.57671957671958 51.42857142857143,78.94179894179895 51.42857142857143,78.30687830687832 51.42857142857143,77.67195767195767 51.42857142857143,77.03703703703704 51.42857142857143,76.4021164021164 51.21693121693122,75.76719576719577 51.21693121693122,75.13227513227514 51.21693121693122,74.49735449735451 51.21693121693122,73.86243386243387 51.00529100529101,73.22751322751323 51.00529100529101,72.5925925925926 50.7936507936508,71.95767195767196 50.7936507936508,71.32275132275133 50.58201058201058,70.6878306878307 50.58201058201058,70.05291005291006 50.370370370370374,69.41798941798942 50.158730158730165,68.78306878306879 49.94708994708995,68.14814814814815 49.73544973544974,67.51322751322752 49.523809523809526,66.87830687830689 49.31216931216932,66.24338624338625 48.88888888888889,65.60846560846561 48.46560846560847,64.97354497354497 48.042328042328045,64.33862433862434 47.61904761904762,63.91534391534392 47.195767195767196,63.492063492063494 46.77248677248678,63.06878306878308 46.349206349206355,62.64550264550265 45.714285714285715,62.43386243386244 45.29100529100529,62.01058201058201 44.65608465608466,61.798941798941804 44.021164021164026,61.58730158730159 43.386243386243386,61.37566137566138 42.75132275132275,61.16402116402117 42.11640211640212,60.952380952380956 41.48148148148149,60.952380952380956 40.84656084656085,60.952380952380956 40.211640211640216,60.952380952380956 39.57671957671958,60.74074074074075 38.94179894179894,60.74074074074075 38.30687830687831,60.74074074074075 37.67195767195768,60.952380952380956 37.03703703703704,60.952380952380956 36.402116402116405,60.952380952380956 35.76719576719577,60.952380952380956 35.13227513227513,61.16402116402117 34.4973544973545,61.16402116402117 33.86243386243387,61.16402116402117 33.22751322751323,61.37566137566138 32.592592592592595,61.58730158730159 31.95767195767196,61.58730158730159 31.322751322751326,61.798941798941804 30.68783068783069,61.798941798941804 30.052910052910054,62.01058201058201 29.41798941798942,62.22222222222223 28.783068783068785,62.43386243386244 28.14814814814815,62.64550264550265 27.513227513227516,63.06878306878308 26.87830687830688,63.280423280423285 26.243386243386244,63.492063492063494 25.60846560846561,63.70370370370371 24.973544973544975,64.12698412698413 24.338624338624342,64.33862433862434 23.703703703703706,64.55026455026456 23.06878306878307,64.76190476190477 22.645502645502646,65.18518518518519 22.010582010582013,65.3968253968254 21.375661375661377,65.60846560846561 20.740740740740744,65.82010582010582 20.105820105820108,66.03174603174604 19.47089947089947,66.45502645502646 18.83597883597884,66.45502645502646 18.201058201058203,66.66666666666667 17.566137566137566,66.87830687830689 16.931216931216934,67.08994708994709 16.296296296296298,67.3015873015873 15.661375661375663,67.3015873015873 15.026455026455027,67.51322751322752 14.391534391534393,67.72486772486774 13.756613756613758,67.72486772486774 13.121693121693122,67.72486772486774 12.486772486772487,67.72486772486774 11.851851851851853,67.51322751322752 11.216931216931219,67.3015873015873 10.582010582010582,67.08994708994709 9.947089947089948,66.66666666666667 9.523809523809524,66.24338624338625 9.100529100529101,65.60846560846561 8.677248677248677,65.18518518518519 8.253968253968255,64.55026455026456 8.042328042328043,63.91534391534392 7.830687830687832,63.280423280423285 7.6190476190476195,62.64550264550265 7.407407407407408,62.01058201058201 7.195767195767196,61.37566137566138 6.984126984126985,60.74074074074075 6.984126984126985,60.10582010582011 6.772486772486773,59.470899470899475 6.560846560846561,58.83597883597884 6.34920634920635,58.2010582010582 6.137566137566138,57.56613756613757 5.9259259259259265,56.93121693121694 5.714285714285714,56.2962962962963 5.714285714285714,55.661375661375665 5.502645502645503,55.02645502645503 5.291005291005291,54.39153439153439 5.291005291005291,53.75661375661376 5.07936507936508,53.12169312169313 5.07936507936508,52.48677248677249 4.867724867724868,51.851851851851855 4.656084656084657,51.21693121693122 4.656084656084657,50.58201058201058 4.444444444444445,49.94708994708995 4.444444444444445,49.31216931216932 4.2328042328042335,48.677248677248684 4.021164021164021,48.042328042328045 3.8095238095238098,47.40740740740741 3.8095238095238098,46.77248677248678 3.597883597883598,46.13756613756614 3.3862433862433865,45.50264550264551 3.3862433862433865,44.867724867724874 3.174603174603175,44.232804232804234 3.174603174603175,43.5978835978836 2.9629629629629632,42.96296296296297 2.7513227513227516,42.32804232804233 2.53968253968254,41.6931216931217 2.53968253968254,41.058201058201064 1.6931216931216932,37.46031746031746" style="fill:none; stroke:#3300bb; stroke-width:1.0"  /><circle cx="1.6931216931216932" cy="37.46031746031746" r="2.0" style="fill:none; stroke:#000000aa; stroke-width:0.25" /><circle cx="118.30687830687832" cy="38.095238095238095" r="2.0" style="fill:none; stroke:#000000aa; stroke-width:0.25" /><circle cx="116.82539682539684" cy="177.989417989418" r="2.0" style="fill:none; stroke:#000000aa; stroke-width:0.25" /><circle cx="14.391534391534393" cy="172.27513227513228" r="2.0" style="fill:none; stroke:#000000aa; stroke-width:0.25" /><circle cx="1.9047619047619049" cy="37.883597883597886" r="2.0" style="fill:none; stroke:#ff3366aa; stroke-width:0.25" /><circle cx="118.51851851851853" cy="37.883597883597886" r="2.0" style="fill:none; stroke:#ff3366aa; stroke-width:0.25" /><circle cx="116.61375661375662" cy="177.989417989418" r="2.0" style="fill:none; stroke:#ff3366aa; stroke-width:0.25" /><circle cx="14.391534391534393" cy="172.27513227513228" r="2.0" style="fill:none; stroke:#ff3366aa; stroke-width:0.25" /><polyline points="13.333333333333334,36.613756613756614 12.6984126984127,36.613756613756614 12.063492063492065,36.82539682539683 11.428571428571429,36.82539682539683 10.793650793650794,36.82539682539683 10.15873015873016,36.82539682539683 9.523809523809524,36.82539682539683 8.88888888888889,36.82539682539683 8.253968253968255,36.82539682539683 7.6190476190476195,36.82539682539683 6.984126984126985,36.82539682539683 6.34920634920635,37.03703703703704 5.714285714285714,37.248677248677254 5.07936507936508,37.248677248677254" style="fill:none; stroke:#001100; stroke-width:1.0" /><polyline points="4.444444444444445,49.31216931216932 4.2328042328042335,48.677248677248684 4.021164021164021,48.042328042328045 3.8095238095238098,47.40740740740741 3.8095238095238098,46.77248677248678 3.597883597883598,46.13756613756614 3.3862433862433865,45.50264550264551 3.3862433862433865,44.867724867724874 3.174603174603175,44.232804232804234 3.174603174603175,43.5978835978836 2.9629629629629632,42.96296296296297 2.7513227513227516,42.32804232804233 2.53968253968254,41.6931216931217 2.53968253968254,41.058201058201064" style="fill:none; stroke:#000011; stroke-width:1.0" /><polyline points="117.24867724867725,49.31216931216932 117.46031746031747,48.677248677248684 117.46031746031747,48.042328042328045 117.67195767195768,47.40740740740741 117.67195767195768,46.77248677248678 117.67195767195768,46.13756613756614 117.67195767195768,45.50264550264551 117.67195767195768,44.867724867724874 117.67195767195768,44.232804232804234 117.88359788359789,43.5978835978836 117.88359788359789,42.96296296296297 118.0952380952381,42.32804232804233 118.0952380952381,41.6931216931217 118.0952380952381,41.058201058201064" style="fill:none; stroke:#001100; stroke-width:1.0" /><polyline points="106.87830687830689,38.94179894179894 107.51322751322752,39.15343915343916 108.14814814814815,39.15343915343916 108.78306878306879,39.15343915343916 109.41798941798943,39.15343915343916 110.05291005291006,39.15343915343916 110.6878306878307,38.94179894179894 111.32275132275133,38.730158730158735 111.95767195767196,38.730158730158735 112.5925925925926,38.51851851851852 113.22751322751324,38.30687830687831 113.86243386243387,38.30687830687831 114.49735449735451,38.30687830687831 115.13227513227514,38.30687830687831" style="fill:none; stroke:#000011; stroke-width:1.0" /><polyline points="105.18518518518519,176.2962962962963 105.82010582010582,176.50793650793653 106.45502645502647,176.71957671957674 107.0899470899471,176.71957671957674 107.72486772486774,176.93121693121694 108.35978835978837,176.93121693121694 108.994708994709,176.93121693121694 109.62962962962963,177.14285714285717 110.26455026455027,177.14285714285717 110.89947089947091,177.14285714285717 111.53439153439155,177.14285714285717 112.16931216931218,177.35449735449737 112.80423280423281,177.35449735449737 113.43915343915344,177.56613756613757" style="fill:none; stroke:#001100; stroke-width:1.0" /><polyline points="118.30687830687832,166.34920634920636 118.30687830687832,166.984126984127 118.30687830687832,167.61904761904762 118.0952380952381,168.25396825396825 118.0952380952381,168.8888888888889 118.0952380952381,169.52380952380955 117.88359788359789,170.15873015873018 117.88359788359789,170.7936507936508 117.67195767195768,171.42857142857144 117.67195767195768,172.06349206349208 117.46031746031747,172.6984126984127 117.46031746031747,173.33333333333334 117.46031746031747,173.96825396825398 117.24867724867725,174.6031746031746" style="fill:none; stroke:#000011; stroke-width:1.0" /><polyline points="13.333333333333334,160.84656084656086 13.333333333333334,161.4814814814815 13.333333333333334,162.11640211640213 13.333333333333334,162.75132275132276 13.756613756613758,163.3862433862434 13.756613756613758,164.02116402116403 13.96825396825397,164.65608465608466 13.96825396825397,165.2910052910053 13.96825396825397,165.92592592592595 13.96825396825397,166.56084656084658 13.96825396825397,167.19576719576722 13.96825396825397,167.83068783068785 13.96825396825397,168.46560846560848 14.17989417989418,169.10052910052912" style="fill:none; stroke:#001100; stroke-width:1.0" /><polyline points="25.820105820105823,172.4867724867725 25.185185185185187,172.4867724867725 24.55026455026455,172.4867724867725 23.915343915343918,172.4867724867725 23.280423280423282,172.4867724867725 22.645502645502646,172.4867724867725 22.010582010582013,172.4867724867725 21.375661375661377,172.27513227513228 20.740740740740744,172.27513227513228 20.105820105820108,172.27513227513228 19.47089947089947,172.27513227513228 18.83597883597884,172.27513227513228 18.201058201058203,172.4867724867725 17.566137566137566,172.27513227513228" style="fill:none; stroke:#000011; stroke-width:1.0" /><polyline points="5.07936507936508,37.248677248677254 -16.084656084656086,38.94179894179894" style="fill:none; stroke:#ffaa00; stroke-width:0.4" /><polyline points="2.53968253968254,41.058201058201064 -2.1164021164021167,20.529100529100532" style="fill:none; stroke:#aaff00; stroke-width:0.4" /><polyline points="118.0952380952381,41.058201058201064 120.21164021164022,20.105820105820108" style="fill:none; stroke:#ffaa00; stroke-width:0.4" /><polyline points="115.13227513227514,38.30687830687831 136.2962962962963,36.613756613756614" style="fill:none; stroke:#aaff00; stroke-width:0.4" /><polyline points="113.43915343915344,177.56613756613757 134.3915343915344,180.74074074074076" style="fill:none; stroke:#ffaa00; stroke-width:0.4" /><polyline points="117.24867724867725,174.6031746031746 114.49735449735451,195.55555555555557" style="fill:none; stroke:#aaff00; stroke-width:0.4" /><polyline points="14.17989417989418,169.10052910052912 16.296296296296298,190.05291005291008" style="fill:none; stroke:#ffaa00; stroke-width:0.4" /><polyline points="17.566137566137566,172.27513227513228 -3.597883597883598,171.64021164021165" style="fill:none; stroke:#aaff00; stroke-width:0.4" /><circle cx="73.65079365079366" cy="96.71957671957672" r="1.0" style="fill:#444444; stroke-width:0" /><circle cx="84.02116402116403" cy="105.60846560846562" r="10.582010582010582" style="fill:#ff770022; stroke-width:0" /><circle cx="84.02116402116403" cy="105.60846560846562" r="1.0" style="fill:#ff7700; stroke-width:0" /></svg>