<?xml version="1.0" encoding="UTF-8" standalone="no"?><svg width="627.936507936508" height="539.047619047619" viewBox="-10 -10 229.31216931216932 199.6825396825397" xmlns="http://www.w3.org/2000/svg" xmlns:xlink="http://www.w3.org/1999/xlink"><polyline points="14.391534391534393,69.84126984126985 17.566137566137566,67.93650793650794 17.98941798941799,67.51322751322752 18.624338624338627,67.08994708994709 19.047619047619047,66.66666666666667 19.682539682539684,66.45502645502646 20.105820105820108,66.03174603174604 20.740740740740744,65.82010582010582 21.375661375661377,65.3968253968254 22.010582010582013,65.18518518518519 22.645502645502646,64.76190476190477 23.280423280423282,64.55026455026456 23.915343915343918,64.12698412698413 24.55026455026455,63.70370370370371 25.185185185185187,63.280423280423285 25.820105820105823,63.06878306878308 26.455026455026456,62.64550264550265 27.089947089947092,62.43386243386244 27.724867724867728,62.01058201058201 28.35978835978836,61.58730158730159 28.994708994708997,61.37566137566138 29.629629629629633,60.952380952380956 30.264550264550266,60.74074074074075 30.899470899470902,60.31746031746032 31.53439153439154,60.10582010582011 32.16931216931217,59.682539682539684 32.804232804232804,59.682539682539684 33.22751322751323,59.25925925925927 33.86243386243387,59.04761904761905 34.4973544973545,58.62433862433863 35.13227513227513,58.41269841269842 35.76719576719577,57.989417989417994 36.402116402116405,57.777777777777786 37.03703703703704,57.35449735449736 37.67195767195768,57.142857142857146 38.30687830687831,56.71957671957672 38.94179894179894,56.50793650793651 39.57671957671958,56.2962962962963 40.211640211640216,55.87301587301588 40.84656084656085,55.661375661375665 41.48148148148149,55.449735449735456 41.904761904761905,55.02645502645503 42.32804232804233,54.60317460317461 42.96296296296297,54.60317460317461 43.386243386243386,54.179894179894184 44.021164021164026,53.968253968253975 44.65608465608466,53.75661375661376 45.29100529100529,53.333333333333336 45.92592592592593,53.12169312169313 46.560846560846564,52.91005291005291 46.98412698412699,52.48677248677249 47.61904761904762,52.27513227513228 48.25396825396826,52.06349206349207 48.88888888888889,51.851851851851855 49.31216931216932,51.42857142857143 49.94708994708995,51.21693121693122 50.58201058201058,51.00529100529101 51.21693121693122,50.7936507936508 51.851851851851855,50.370370370370374 52.48677248677249,50.158730158730165 52.91005291005291,49.73544973544974 53.54497354497355,49.523809523809526 54.179894179894184,49.31216931216932 54.81481481481482,48.88888888888889 55.449735449735456,48.677248677248684 56.08465608465609,48.25396825396826 56.71957671957672,48.25396825396826 57.142857142857146,47.830687830687836 57.777777777777786,47.830687830687836 58.41269841269842,47.40740740740741 59.04761904761905,47.195767195767196 59.470899470899475,46.77248677248678 60.10582010582011,46.560846560846564 60.74074074074075,46.13756613756614 61.37566137566138,45.92592592592593 62.01058201058201,45.92592592592593 62.64550264550265,45.714285714285715 63.280423280423285,45.50264550264551 63.70370370370371,45.07936507936508 64.33862433862434,44.867724867724874 64.97354497354497,44.65608465608466 65.60846560846561,44.232804232804234 66.24338624338625,44.232804232804234 66.66666666666667,43.80952380952381 67.3015873015873,43.80952380952381 67.93650793650794,43.5978835978836 68.57142857142858,43.386243386243386 69.20634920634922,43.386243386243386 69.84126984126985,43.17460317460318 70.47619047619048,43.17460317460318 71.11111111111111,43.17460317460318 71.74603174603175,43.17460317460318 72.38095238095238,43.386243386243386 73.01587301587303,43.386243386243386 73.65079365079366,43.80952380952381 74.28571428571429,44.232804232804234 74.70899470899471,44.65608465608466 75.13227513227514,45.07936507936508 75.34391534391536,45.714285714285715 75.76719576719577,46.349206349206355 75.97883597883599,46.98412698412699 76.19047619047619,47.61904761904762 76.19047619047619,48.25396825396826 76.4021164021164,48.88888888888889 76.4021164021164,49.523809523809526 76.4021164021164,50.158730158730165 76.4021164021164,50.7936507936508 76.19047619047619,51.42857142857143 76.19047619047619,52.06349206349207 75.97883597883599,52.6984126984127 75.76719576719577,53.333333333333336 75.76719576719577,53.968253968253975 75.55555555555556,54.60317460317461 75.34391534391536,55.23809523809524 75.13227513227514,55.87301587301588 74.92063492063492,56.50793650793651 74.92063492063492,57.142857142857146 74.70899470899471,57.777777777777786 74.49735449735451,58.41269841269842 74.28571428571429,59.04761904761905 74.28571428571429,59.682539682539684 74.07407407407408,60.31746031746032 74.07407407407408,60.952380952380956 73.86243386243387,61.58730158730159 73.86243386243387,62.22222222222223 73.86243386243387,62.85714285714286 73.86243386243387,63.492063492063494 73.86243386243387,64.12698412698413 73.86243386243387,64.76190476190477 74.07407407407408,65.3968253968254 74.07407407407408,66.03174603174604 74.28571428571429,66.66666666666667 74.28571428571429,67.3015873015873 74.70899470899471,67.72486772486774 74.92063492063492,68.35978835978837 74.92063492063492,68.994708994709 75.13227513227514,69.62962962962963 75.55555555555556,70.26455026455027 75.76719576719577,70.8994708994709 76.19047619047619,71.32275132275133 76.61375661375662,71.95767195767196 77.03703703703704,72.38095238095238 77.67195767195767,72.80423280423281 78.0952380952381,73.22751322751323 78.73015873015873,73.65079365079366 79.36507936507937,73.86243386243387 80.0,74.07407407407408 80.63492063492065,74.28571428571429 81.26984126984128,74.49735449735451 81.90476190476191,74.49735449735451 82.53968253968254,74.70899470899471 83.17460317460318,74.92063492063492 83.80952380952381,75.13227513227514 84.44444444444446,75.13227513227514 85.07936507936509,74.92063492063492 85.71428571428572,75.13227513227514 86.34920634920636,75.13227513227514 86.98412698412699,75.13227513227514 87.61904761904762,75.13227513227514 88.25396825396827,75.13227513227514 88.8888888888889,74.92063492063492 89.52380952380953,74.70899470899471 90.15873015873017,74.70899470899471 90.7936507936508,74.70899470899471 91.42857142857143,74.70899470899471 91.85185185185186,74.28571428571429 92.4867724867725,74.28571428571429 93.12169312169313,74.07407407407408 93.75661375661376,73.86243386243387 94.39153439153439,73.65079365079366 94.81481481481482,73.22751322751323 95.44973544973546,73.22751322751323 96.08465608465609,73.01587301587303 96.71957671957672,72.5925925925926 97.35449735449737,72.16931216931218 97.989417989418,72.16931216931218 98.62433862433863,71.74603174603175 99.25925925925927,71.53439153439155 99.68253968253968,71.11111111111111 100.31746031746033,70.8994708994709 100.95238095238096,70.47619047619048 101.37566137566138,70.05291005291006 102.01058201058201,69.84126984126985 102.64550264550266,69.41798941798942 103.28042328042329,69.20634920634922 103.70370370370371,68.78306878306879 104.33862433862434,68.35978835978837 104.97354497354497,67.93650793650794 105.60846560846562,67.51322751322752 106.03174603174604,66.87830687830689 106.66666666666667,66.66666666666667 107.0899470899471,66.24338624338625 107.72486772486774,65.82010582010582 108.14814814814815,65.3968253968254 108.57142857142858,64.97354497354497 109.20634920634922,64.55026455026456 109.62962962962963,64.12698412698413 110.05291005291006,63.70370370370371 110.47619047619048,63.280423280423285 110.89947089947091,62.85714285714286 111.32275132275133,62.43386243386244 111.74603174603176,62.01058201058201 112.16931216931218,61.58730158730159 112.5925925925926,61.16402116402117 113.01587301587303,60.74074074074075 113.43915343915344,60.31746031746032 113.65079365079366,59.682539682539684 114.07407407407408,59.25925925925927 114.49735449735451,58.83597883597884 114.92063492063492,58.2010582010582 115.13227513227514,57.56613756613757 115.55555555555557,57.142857142857146 115.97883597883599,56.71957671957672 116.4021164021164,56.08465608465609 116.82539682539684,55.449735449735456 117.24867724867725,54.81481481481482 117.46031746031747,54.179894179894184 117.67195767195768,53.54497354497355 117.88359788359789,52.91005291005291 118.30687830687832,52.48677248677249 118.51851851851853,51.851851851851855 118.94179894179895,51.21693121693122 118.94179894179895,50.58201058201058 119.15343915343917,49.94708994708995 119.36507936507937,49.31216931216932 119.36507936507937,48.677248677248684 119.36507936507937,48.042328042328045 119.57671957671958,47.40740740740741 119.36507936507937,46.77248677248678 119.36507936507937,46.13756613756614 119.15343915343917,45.50264550264551 118.94179894179895,44.867724867724874 118.51851851851853,44.232804232804234 118.0952380952381,43.5978835978836 117.67195767195768,42.96296296296297 117.24867724867725,42.539682539682545 116.82539682539684,42.11640211640212 116.4021164021164,41.6931216931217 115.97883597883599,41.058201058201064 115.55555555555557,40.63492063492064 114.92063492063492,40.423280423280424 114.49735449735451,40.0 113.86243386243387,39.57671957671958 113.22751322751324,39.36507936507937 112.5925925925926,38.94179894179894 111.95767195767196,38.51851851851852 111.32275132275133,38.30687830687831 110.6878306878307,38.095238095238095 110.05291005291006,37.67195767195768 109.41798941798943,37.67195767195768 108.78306878306879,37.46031746031746 108.14814814814815,37.248677248677254 107.51322751322752,37.03703703703704 106.87830687830689,36.82539682539683 106.24338624338625,36.82539682539683 105.60846560846562,36.613756613756614 104.97354497354497,36.402116402116405 104.33862433862434,36.402116402116405 103.70370370370371,36.19047619047619 103.06878306878308,35.97883597883598 102.43386243386244,35.97883597883598 101.79894179894181,35.76719576719577 101.16402116402116,35.55555555555556 100.52910052910053,35.34391534391535 99.8941798941799,35.13227513227513 99.25925925925927,34.920634920634924 98.62433862433863,34.70899470899471 97.989417989418,34.28571428571429 97.35449735449737,33.86243386243387 96.93121693121694,33.43915343915344 96.2962962962963,33.01587301587302 95.87301587301587,32.592592592592595 95.44973544973546,32.16931216931217 95.02645502645504,31.53439153439154 94.81481481481482,30.899470899470902 94.60317460317461,30.264550264550266 94.60317460317461,29.629629629629633 94.60317460317461,28.994708994708997 94.60317460317461,28.35978835978836 94.81481481481482,27.724867724867728 94.81481481481482,27.089947089947092 95.23809523809524,26.455026455026456 95.66137566137567,25.820105820105823 96.08465608465609,25.185185185185187 96.50793650793652,24.55026455026455 96.93121693121694,23.915343915343918 97.35449735449737,23.492063492063494 97.77777777777779,22.857142857142858 98.2010582010582,22.222222222222225 98.62433862433863,21.7989417989418 99.04761904761905,21.375661375661377 99.47089947089948,20.952380952380953 99.8941798941799,20.529100529100532 100.31746031746033,20.105820105820108 100.74074074074075,19.47089947089947 101.16402116402116,19.047619047619047 101.5873015873016,18.624338624338627 102.01058201058201,18.201058201058203 102.43386243386244,17.77777777777778 102.85714285714286,17.354497354497354 103.28042328042329,16.931216931216934 103.70370370370371,16.50793650793651 104.33862433862434,16.084656084656086 104.76190476190477,15.661375661375663 105.18518518518519,15.238095238095239 105.60846560846562,14.603174603174605 106.24338624338625,14.17989417989418 106.66666666666667,13.756613756613758 107.3015873015873,13.544973544973546 107.72486772486774,13.121693121693122 108.35978835978837,12.6984126984127 108.78306878306879,12.275132275132275 109.41798941798943,11.851851851851853 110.05291005291006,11.640211640211641 110.47619047619048,11.216931216931219 110.89947089947091,10.793650793650794 111.53439153439155,10.582010582010582 112.16931216931218,10.370370370370372 112.5925925925926,9.947089947089948 113.22751322751324,9.523809523809524 113.86243386243387,9.100529100529101 114.49735449735451,8.677248677248677 115.13227513227514,8.465608465608467 115.76719576719577,8.253968253968255 116.1904761904762,7.830687830687832 116.82539682539684,7.6190476190476195 117.46031746031747,7.407407407407408 117.88359788359789,6.984126984126985 118.51851851851853,6.772486772486773 119.15343915343917,6.560846560846561 119.57671957671958,6.137566137566138 120.21164021164022,5.9259259259259265 120.84656084656086,5.714285714285714 121.4814814814815,5.502645502645503 122.11640211640213,5.291005291005291 122.53968253968254,4.867724867724868 123.17460317460318,4.656084656084657 123.80952380952382,4.444444444444445 124.44444444444446,4.2328042328042335 125.07936507936509,4.021164021164021 125.71428571428572,3.8095238095238098 126.34920634920636,3.597883597883598 126.98412698412699,3.597883597883598 127.61904761904763,3.174603174603175 128.25396825396825,3.174603174603175 128.88888888888889,2.9629629629629632 129.52380952380955,2.53968253968254 130.15873015873018,2.3280423280423284 130.7936507936508,2.3280423280423284 131.42857142857144,2.3280423280423284 132.06349206349208,1.9047619047619049 132.6984126984127,1.9047619047619049 133.33333333333334,1.9047619047619049 133.96825396825398,1.6931216931216932 134.6031746031746,1.6931216931216932 135.23809523809524,1.4814814814814816 135.87301587301587,1.26984126984127 136.5079365079365,1.0582010582010584 137.14285714285717,1.0582010582010584 137.7777777777778,1.0582010582010584 138.41269841269843,1.0582010582010584 139.04761904761907,0.8465608465608466 139.6825396825397,0.8465608465608466 140.31746031746033,0.634920634920635 140.95238095238096,0.634920634920635 144.55026455026456,0.0" style="fill:none; stroke:#cc0000; stroke-width:1.0"  /><polyline points="144.55026455026456,0.0 145.1851851851852,3.597883597883598 145.1851851851852,4.2328042328042335 145.39682539682542,4.867724867724868 145.39682539682542,5.502645502645503 145.60846560846562,6.137566137566138 145.60846560846562,6.772486772486773 145.82010582010582,7.407407407407408 145.82010582010582,8.042328042328043 146.03174603174605,8.677248677248677 146.24338624338625,9.312169312169313 146.24338624338625,9.947089947089948 146.24338624338625,10.582010582010582 146.45502645502646,11.216931216931219 146.66666666666669,11.851851851851853 146.8783068783069,12.486772486772487 146.8783068783069,13.121693121693122 147.30158730158732,13.756613756613758 147.51322751322752,14.391534391534393 147.72486772486775,15.026455026455027 147.93650793650795,15.661375661375663 148.14814814814815,16.296296296296298 148.35978835978838,16.931216931216934 148.57142857142858,17.566137566137566 148.99470899470901,18.201058201058203 149.20634920634922,18.83597883597884 149.41798941798942,19.47089947089947 149.62962962962965,20.105820105820108 150.05291005291005,20.740740740740744 150.26455026455028,21.375661375661377 150.47619047619048,22.010582010582013 150.8994708994709,22.645502645502646 151.11111111111111,23.280423280423282 151.53439153439155,23.915343915343918 151.74603174603175,24.55026455026455 152.16931216931218,24.973544973544975 152.38095238095238,25.60846560846561 152.8042328042328,26.031746031746035 153.01587301587304,26.666666666666668 153.43915343915344,27.301587301587304 153.86243386243387,27.93650793650794 154.2857142857143,28.571428571428573 154.7089947089947,29.20634920634921 155.13227513227514,29.841269841269842 155.55555555555557,30.476190476190478 155.978835978836,31.111111111111114 156.4021164021164,31.746031746031747 156.82539682539684,32.16931216931217 157.24867724867727,32.592592592592595 157.67195767195767,33.22751322751323 158.0952380952381,33.65079365079365 158.51851851851853,34.074074074074076 158.94179894179896,34.70899470899471 159.36507936507937,35.13227513227513 159.7883597883598,35.55555555555556 160.21164021164023,35.97883597883598 160.63492063492066,36.402116402116405 161.05820105820106,36.82539682539683 161.6931216931217,37.248677248677254 162.32804232804233,37.67195767195768 162.96296296296296,37.883597883597886 163.59788359788362,38.30687830687831 164.23280423280426,38.30687830687831 164.8677248677249,38.30687830687831 165.50264550264552,38.30687830687831 166.13756613756615,38.095238095238095 166.7724867724868,38.095238095238095 167.40740740740742,38.095238095238095 168.04232804232805,37.883597883597886 168.67724867724868,37.46031746031746 169.31216931216932,37.248677248677254 169.73544973544975,36.82539682539683 170.37037037037038,36.613756613756614 170.7936507936508,36.19047619047619 171.21693121693124,35.76719576719577 171.64021164021165,35.34391534391535 172.06349206349208,34.920634920634924 172.4867724867725,34.28571428571429 172.9100529100529,33.86243386243387 173.33333333333334,33.22751322751323 173.75661375661377,32.592592592592595 173.75661375661377,31.95767195767196 174.1798941798942,31.53439153439154 174.3915343915344,30.899470899470902 174.81481481481484,30.476190476190478 175.02645502645504,29.841269841269842 175.44973544973547,29.20634920634921 175.87301587301587,28.571428571428573 176.2962962962963,27.93650793650794 176.71957671957674,27.301587301587304 177.14285714285717,26.666666666666668 177.56613756613757,26.031746031746035 177.989417989418,25.60846560846561 178.41269841269843,25.185185185185187 178.83597883597884,24.761904761904763 179.25925925925927,24.12698412698413 179.6825396825397,23.703703703703706 180.31746031746033,23.280423280423282 180.74074074074076,22.857142857142858 181.3756613756614,22.433862433862437 182.01058201058203,22.010582010582013 182.43386243386246,21.58730158730159 183.0687830687831,21.164021164021165 183.70370370370372,20.952380952380953 184.33862433862436,20.529100529100532 184.973544973545,20.31746031746032 185.60846560846562,20.105820105820108 186.03174603174605,19.682539682539684 186.66666666666669,19.682539682539684 187.08994708994712,19.25925925925926 187.72486772486775,19.25925925925926 188.35978835978838,19.047619047619047 188.99470899470901,19.047619047619047 189.62962962962965,18.83597883597884 190.26455026455028,18.83597883597884 190.8994708994709,19.047619047619047 191.53439153439155,19.047619047619047 192.16931216931218,19.25925925925926 192.8042328042328,19.25925925925926 193.43915343915344,19.47089947089947 194.07407407407408,19.682539682539684 194.70899470899474,19.894179894179896 195.34391534391537,20.31746031746032 195.978835978836,20.529100529100532 196.4021164021164,20.952380952380953 197.03703703703704,21.164021164021165 197.46031746031747,21.58730158730159 198.0952380952381,22.010582010582013 198.73015873015873,22.433862433862437 199.15343915343917,22.857142857142858 199.7883597883598,23.06878306878307 200.21164021164023,23.492063492063494 200.63492063492066,23.915343915343918 201.05820105820106,24.338624338624342 201.4814814814815,24.973544973544975 201.90476190476193,25.3968253968254 202.32804232804233,25.820105820105823 202.75132275132276,26.455026455026456 203.1746031746032,27.089947089947092 203.59788359788362,27.513227513227516 204.02116402116403,28.14814814814815 204.44444444444446,28.783068783068785 204.65608465608466,29.41798941798942 205.0793650793651,30.052910052910054 205.50264550264552,30.68783068783069 205.71428571428572,31.322751322751326 206.13756613756615,31.95767195767196 206.56084656084658,32.592592592592595 206.7724867724868,33.22751322751323 206.984126984127,33.86243386243387 207.19576719576722,34.4973544973545 207.40740740740742,35.13227513227513 207.61904761904765,35.76719576719577 207.61904761904765,36.402116402116405 207.83068783068785,37.03703703703704 208.04232804232805,37.67195767195768 208.25396825396828,38.30687830687831 208.46560846560848,38.94179894179894 208.46560846560848,39.57671957671958 208.67724867724868,40.211640211640216 208.67724867724868,40.84656084656085 208.67724867724868,41.48148148148149 208.67724867724868,42.11640211640212 208.67724867724868,42.75132275132275 208.67724867724868,43.386243386243386 208.67724867724868,44.021164021164026 208.67724867724868,44.65608465608466 208.46560846560848,45.29100529100529 208.25396825396828,45.92592592592593 208.04232804232805,46.560846560846564 207.83068783068785,47.195767195767196 207.61904761904765,47.830687830687836 207.40740740740742,48.46560846560847 206.984126984127,49.1005291005291 206.7724867724868,49.73544973544974 206.34920634920636,50.158730158730165 205.92592592592595,50.7936507936508 205.50264550264552,51.42857142857143 205.0793650793651,51.851851851851855 204.65608465608466,52.27513227513228 204.23280423280426,52.6984126984127 203.80952380952382,53.12169312169313 203.3862433862434,53.54497354497355 202.962962962963,53.968253968253975 202.53968253968256,54.39153439153439 201.90476190476193,54.81481481481482 201.2698412698413,55.23809523809524 200.63492063492066,55.661375661375665 200.00000000000003,56.08465608465609 199.36507936507937,56.2962962962963 198.94179894179896,56.71957671957672 198.30687830687833,56.93121693121694 197.6719576719577,57.142857142857146 197.03703703703704,57.35449735449736 196.4021164021164,57.35449735449736 195.76719576719577,57.56613756613757 195.13227513227514,57.56613756613757 194.4973544973545,57.777777777777786 193.86243386243387,57.777777777777786 193.22751322751324,57.989417989417994 192.5925925925926,57.989417989417994 191.95767195767198,57.989417989417994 191.32275132275134,58.2010582010582 190.6878306878307,58.2010582010582 190.05291005291008,58.41269841269842 189.41798941798945,58.41269841269842 188.78306878306879,58.41269841269842 188.14814814814815,58.62433862433863 187.51322751322752,58.83597883597884 186.8783068783069,59.04761904761905 186.24338624338625,59.25925925925927 185.60846560846562,59.470899470899475 184.973544973545,59.682539682539684 184.33862433862436,60.10582010582011 183.70370370370372,60.52910052910053 183.0687830687831,60.952380952380956 182.43386243386246,61.37566137566138 182.01058201058203,61.798941798941804 181.5873015873016,62.22222222222223 181.16402116402116,62.64550264550265 180.74074074074076,63.06878306878308 180.31746031746033,63.70370370370371 180.10582010582013,64.33862433862434 179.6825396825397,64.97354497354497 179.6825396825397,65.60846560846561 179.4708994708995,66.24338624338625 179.25925925925927,66.87830687830689 179.4708994708995,67.51322751322752 179.4708994708995,68.14814814814815 179.4708994708995,68.78306878306879 179.6825396825397,69.41798941798942 179.6825396825397,70.05291005291006 179.8941798941799,70.6878306878307 180.31746031746033,71.32275132275133 180.52910052910053,71.95767195767196 180.95238095238096,72.5925925925926 181.3756613756614,73.22751322751323 181.79894179894183,73.86243386243387 182.22222222222223,74.49735449735451 182.64550264550266,75.13227513227514 183.0687830687831,75.55555555555556 183.4920634920635,76.19047619047619 183.91534391534393,76.61375661375662 184.33862433862436,77.03703703703704 184.7619047619048,77.67195767195767 185.1851851851852,78.0952380952381 185.60846560846562,78.73015873015873 186.03174603174605,79.36507936507937 186.45502645502646,79.7883597883598 186.8783068783069,80.42328042328043 187.30158730158732,80.84656084656085 187.72486772486775,81.48148148148148 188.14814814814815,82.11640211640213 188.57142857142858,82.53968253968254 188.99470899470901,83.17460317460318 189.41798941798945,83.80952380952381 189.84126984126985,84.44444444444446 190.26455026455028,85.07936507936509 190.6878306878307,85.71428571428572 191.11111111111111,86.34920634920636 191.32275132275134,86.98412698412699 191.74603174603175,87.40740740740742 191.95767195767198,88.04232804232805 192.3809523809524,88.46560846560847 192.8042328042328,89.1005291005291 193.22751322751324,89.73544973544975 193.43915343915344,90.37037037037038 193.86243386243387,90.7936507936508 194.07407407407408,91.42857142857143 194.4973544973545,92.06349206349208 194.92063492063494,92.69841269841271 196.82539682539684,95.87301587301587" style="fill:none; stroke:#999900; stroke-width:1.0"  /><polyline points="196.82539682539684,95.87301587301587 194.07407407407408,97.989417989418 193.65079365079367,98.41269841269842 193.22751322751324,98.83597883597885 192.5925925925926,99.25925925925927 192.16931216931218,99.68253968253968 191.53439153439155,100.10582010582011 191.11111111111111,100.52910052910053 190.6878306878307,100.95238095238096 190.05291005291008,101.37566137566138 189.62962962962965,101.79894179894181 189.20634920634922,102.22222222222223 188.57142857142858,102.64550264550266 187.93650793650795,103.06878306878308 187.30158730158732,103.4920634920635 186.66666666666669,103.91534391534393 186.03174603174605,104.33862433862434 185.39682539682542,104.76190476190477 184.7619047619048,105.18518518518519 184.12698412698415,105.60846560846562 183.70370370370372,106.03174603174604 183.0687830687831,106.24338624338625 182.43386243386246,106.66666666666667 181.79894179894183,107.0899470899471 181.16402116402116,107.3015873015873 180.52910052910053,107.72486772486774 179.8941798941799,107.93650793650795 179.25925925925927,108.35978835978837 178.62433862433863,108.57142857142858 177.989417989418,108.994708994709 177.35449735449737,109.20634920634922 176.71957671957674,109.41798941798943 176.0846560846561,109.84126984126985 175.44973544973547,110.05291005291006 174.81481481481484,110.26455026455027 174.1798941798942,110.6878306878307 173.54497354497354,110.89947089947091 172.9100529100529,111.11111111111111 172.27513227513228,111.32275132275133 171.64021164021165,111.53439153439155 171.005291005291,111.95767195767196 170.37037037037038,112.16931216931218 169.73544973544975,112.3809523809524 169.10052910052912,112.5925925925926 168.46560846560848,113.01587301587303 167.83068783068785,113.22751322751324 167.19576719576722,113.43915343915344 166.56084656084658,113.65079365079366 165.92592592592595,114.07407407407408 165.2910052910053,114.28571428571429 164.65608465608466,114.49735449735451 164.23280423280426,114.92063492063492 163.59788359788362,115.13227513227514 162.96296296296296,115.34391534391536 162.32804232804233,115.55555555555557 161.6931216931217,115.76719576719577 161.05820105820106,116.1904761904762 160.42328042328043,116.4021164021164 159.7883597883598,116.61375661375662 159.15343915343917,116.82539682539684 158.51851851851853,117.24867724867725 157.8835978835979,117.24867724867725 157.24867724867727,117.67195767195768 156.61375661375664,117.88359788359789 155.978835978836,118.0952380952381 155.34391534391534,118.30687830687832 154.7089947089947,118.51851851851853 154.07407407407408,118.73015873015873 153.43915343915344,118.94179894179895 152.8042328042328,119.36507936507937 152.16931216931218,119.57671957671958 151.53439153439155,119.7883597883598 150.8994708994709,120.00000000000001 150.26455026455028,120.21164021164022 149.62962962962965,120.42328042328043 148.99470899470901,120.63492063492065 148.35978835978838,120.84656084656086 147.72486772486775,121.05820105820106 147.0899470899471,121.26984126984128 146.45502645502646,121.4814814814815 145.82010582010582,121.6931216931217 145.1851851851852,121.90476190476191 144.55026455026456,122.11640211640213 143.91534391534393,122.32804232804234 143.2804232804233,122.53968253968254 142.64550264550266,122.75132275132276 142.01058201058203,122.96296296296298 141.3756613756614,123.17460317460318 140.74074074074076,123.3862433862434 140.10582010582013,123.80952380952382 139.47089947089947,124.02116402116403 138.83597883597884,124.23280423280424 138.2010582010582,124.65608465608466 137.56613756613757,125.07936507936509 137.14285714285717,125.5026455026455 136.5079365079365,125.92592592592594 135.87301587301587,126.34920634920636 135.44973544973547,126.77248677248679 135.02645502645504,127.1957671957672 134.6031746031746,127.83068783068784 134.17989417989418,128.25396825396825 133.96825396825398,128.88888888888889 133.54497354497354,129.31216931216932 133.33333333333334,129.94708994708995 133.12169312169314,130.58201058201058 133.12169312169314,131.21693121693121 132.9100529100529,131.85185185185185 132.9100529100529,132.4867724867725 133.12169312169314,133.12169312169314 133.12169312169314,133.75661375661377 133.33333333333334,134.3915343915344 133.75661375661377,135.02645502645504 133.96825396825398,135.66137566137567 134.3915343915344,136.2962962962963 134.81481481481484,136.93121693121694 135.44973544973547,137.35449735449737 135.87301587301587,137.989417989418 136.2962962962963,138.41269841269843 136.71957671957674,138.83597883597884 137.14285714285717,139.25925925925927 137.7777777777778,139.6825396825397 138.2010582010582,140.10582010582013 138.83597883597884,140.31746031746033 139.25925925925927,140.74074074074076 139.8941798941799,140.95238095238096 140.52910052910053,141.3756613756614 141.16402116402116,141.7989417989418 141.7989417989418,142.22222222222223 142.43386243386246,142.43386243386246 142.85714285714286,142.85714285714286 143.4920634920635,143.0687830687831 144.12698412698413,143.4920634920635 144.76190476190476,143.91534391534393 145.39682539682542,144.33862433862436 146.03174603174605,144.76190476190476 146.66666666666669,144.973544973545 147.0899470899471,145.39682539682542 147.72486772486775,145.82010582010582 148.35978835978838,146.24338624338625 148.78306878306879,146.8783068783069 149.41798941798942,147.30158730158732 149.84126984126985,147.72486772486775 150.47619047619048,148.14814814814815 150.8994708994709,148.57142857142858 151.32275132275134,148.99470899470901 151.74603174603175,149.62962962962965 152.16931216931218,150.05291005291005 152.5925925925926,150.47619047619048 153.01587301587304,151.11111111111111 153.43915343915344,151.74603174603175 153.86243386243387,152.38095238095238 154.07407407407408,153.01587301587304 154.4973544973545,153.65079365079367 154.7089947089947,154.2857142857143 155.13227513227514,154.92063492063494 155.34391534391534,155.55555555555557 155.55555555555557,156.1904761904762 155.76719576719577,156.82539682539684 155.978835978836,157.46031746031747 155.978835978836,158.0952380952381 155.978835978836,158.73015873015873 155.978835978836,159.36507936507937 155.978835978836,160.0 155.978835978836,160.63492063492066 155.76719576719577,161.2698412698413 155.55555555555557,161.90476190476193 155.34391534391534,162.53968253968256 154.92063492063494,163.1746031746032 154.4973544973545,163.80952380952382 154.07407407407408,164.44444444444446 153.65079365079367,164.8677248677249 153.22751322751324,165.2910052910053 152.8042328042328,165.71428571428572 152.38095238095238,166.13756613756615 151.95767195767198,166.56084656084658 151.53439153439155,166.984126984127 150.8994708994709,167.40740740740742 150.26455026455028,167.83068783068785 149.62962962962965,168.25396825396825 148.99470899470901,168.67724867724868 148.35978835978838,169.10052910052912 147.72486772486775,169.52380952380955 147.0899470899471,169.73544973544975 146.45502645502646,170.15873015873018 145.82010582010582,170.37037037037038 145.1851851851852,170.7936507936508 144.55026455026456,171.005291005291 143.91534391534393,171.42857142857144 143.2804232804233,171.85185185185188 142.64550264550266,172.06349206349208 142.01058201058203,172.4867724867725 141.3756613756614,172.6984126984127 140.95238095238096,173.12169312169314 140.31746031746033,173.33333333333334 139.6825396825397,173.54497354497354 139.04761904761907,173.75661375661377 138.41269841269843,174.1798941798942 137.7777777777778,174.3915343915344 137.14285714285717,174.81481481481484 136.5079365079365,175.02645502645504 135.87301587301587,175.23809523809524 135.23809523809524,175.44973544973547 134.6031746031746,175.66137566137567 133.96825396825398,175.87301587301587 133.33333333333334,176.0846560846561 132.6984126984127,176.2962962962963 132.06349206349208,176.50793650793653 131.42857142857144,176.71957671957674 130.7936507936508,176.93121693121694 130.15873015873018,177.14285714285717 129.52380952380955,177.35449735449737 128.88888888888889,177.56613756613757 128.25396825396825,177.7777777777778 127.61904761904763,177.7777777777778 126.98412698412699,177.989417989418 126.34920634920636,178.2010582010582 125.71428571428572,178.2010582010582 125.07936507936509,178.41269841269843 124.44444444444446,178.41269841269843 123.80952380952382,178.62433862433863 123.17460317460318,178.83597883597884 122.53968253968254,178.83597883597884 121.90476190476191,179.04761904761907 121.26984126984128,179.04761904761907 120.63492063492065,179.04761904761907 120.00000000000001,179.25925925925927 119.36507936507937,179.25925925925927 118.73015873015873,179.25925925925927 118.0952380952381,179.25925925925927 117.46031746031747,179.25925925925927 116.82539682539684,179.25925925925927 116.1904761904762,179.25925925925927 115.55555555555557,179.25925925925927 114.92063492063492,179.25925925925927 114.28571428571429,179.04761904761907 113.65079365079366,179.04761904761907 113.01587301587303,178.83597883597884 112.3809523809524,178.62433862433863 111.74603174603176,178.41269841269843 111.11111111111111,177.989417989418 110.47619047619048,177.7777777777778 110.05291005291006,177.35449735449737 109.62962962962963,176.93121693121694 109.20634920634922,176.50793650793653 108.78306878306879,176.0846560846561 108.35978835978837,175.66137566137567 107.93650793650795,175.23809523809524 107.51322751322752,174.6031746031746 107.0899470899471,174.1798941798942 106.66666666666667,173.54497354497354 106.24338624338625,172.9100529100529 105.82010582010582,172.27513227513228 105.3968253968254,171.85185185185188 105.18518518518519,171.21693121693124 104.76190476190477,170.58201058201058 104.55026455026456,169.94708994708995 104.33862433862434,169.31216931216932 104.12698412698414,168.67724867724868 103.91534391534393,168.04232804232805 103.70370370370371,167.40740740740742 103.4920634920635,166.7724867724868 103.4920634920635,166.13756613756615 103.28042328042329,165.50264550264552 103.28042328042329,164.8677248677249 103.06878306878308,164.23280423280426 103.06878306878308,163.59788359788362 103.28042328042329,162.96296296296296 103.28042328042329,162.32804232804233 103.28042328042329,161.6931216931217 103.28042328042329,161.05820105820106 103.4920634920635,160.42328042328043 103.4920634920635,159.7883597883598 103.70370370370371,159.15343915343917 103.70370370370371,158.51851851851853 103.91534391534393,157.8835978835979 104.12698412698414,157.24867724867727 104.12698412698414,156.61375661375664 104.33862433862434,155.978835978836 104.33862433862434,155.34391534391534 104.33862433862434,154.7089947089947 104.33862433862434,154.07407407407408 104.12698412698414,153.43915343915344 104.12698412698414,152.8042328042328 103.91534391534393,152.16931216931218 103.91534391534393,151.53439153439155 103.70370370370371,150.8994708994709 103.28042328042329,150.26455026455028 103.06878306878308,149.62962962962965 102.64550264550266,148.99470899470901 102.22222222222223,148.35978835978838 101.79894179894181,147.93650793650795 101.37566137566138,147.51322751322752 100.95238095238096,147.0899470899471 100.31746031746033,146.66666666666669 99.68253968253968,146.24338624338625 99.04761904761905,146.03174603174605 98.41269841269842,145.82010582010582 97.77777777777779,145.82010582010582 97.14285714285715,145.82010582010582 96.50793650793652,145.82010582010582 95.87301587301587,145.82010582010582 95.23809523809524,146.03174603174605 94.60317460317461,146.24338624338625 93.96825396825398,146.66666666666669 93.33333333333334,146.8783068783069 92.69841269841271,147.0899470899471 92.06349206349208,147.30158730158732 91.42857142857143,147.72486772486775 90.7936507936508,147.93650793650795 90.15873015873017,148.35978835978838 89.52380952380953,148.57142857142858 88.8888888888889,148.99470899470901 88.25396825396827,149.20634920634922 87.61904761904762,149.62962962962965 86.98412698412699,150.05291005291005 86.34920634920636,150.26455026455028 85.71428571428572,150.6878306878307 85.07936507936509,150.8994708994709 84.65608465608466,151.32275132275134 84.02116402116403,151.53439153439155 83.3862433862434,151.95767195767198 82.75132275132276,152.38095238095238 82.11640211640213,152.5925925925926 81.6931216931217,153.01587301587304 81.05820105820106,153.22751322751324 80.63492063492065,153.65079365079367 80.0,153.86243386243387 79.57671957671958,154.2857142857143 78.94179894179895,154.7089947089947 78.30687830687832,155.13227513227514 77.67195767195767,155.34391534391534 77.24867724867725,155.76719576719577 76.61375661375662,155.978835978836 76.19047619047619,156.4021164021164 75.55555555555556,156.82539682539684 74.92063492063492,157.24867724867727 74.28571428571429,157.67195767195767 73.65079365079366,158.0952380952381 73.01587301587303,158.51851851851853 72.38095238095238,158.94179894179896 71.74603174603175,159.36507936507937 71.11111111111111,159.7883597883598 70.6878306878307,160.21164021164023 70.05291005291006,160.42328042328043 69.41798941798942,160.84656084656086 68.994708994709,161.2698412698413 68.35978835978837,161.6931216931217 67.93650793650794,162.11640211640213 67.3015873015873,162.53968253968256 66.87830687830689,162.96296296296296 66.45502645502646,163.3862433862434 65.82010582010582,163.80952380952382 65.3968253968254,164.23280423280426 64.76190476190477,164.65608465608466 64.33862433862434,165.0793650793651 63.91534391534392,165.50264550264552 63.492063492063494,165.92592592592595 63.06878306878308,166.34920634920636 62.43386243386244,166.7724867724868 62.01058201058201,167.19576719576722 61.58730158730159,167.61904761904762 59.04761904761905,169.73544973544975" style="fill:none; stroke:#00aa99; stroke-width:1.0"  /><polyline points="59.04761904761905,169.73544973544975 57.989417989417994,166.13756613756615 57.777777777777786,165.50264550264552 57.56613756613757,164.8677248677249 57.35449735449736,164.23280423280426 57.142857142857146,163.59788359788362 56.93121693121694,162.96296296296296 56.71957671957672,162.32804232804233 56.50793650793651,161.6931216931217 56.2962962962963,161.05820105820106 56.2962962962963,160.42328042328043 56.08465608465609,159.7883597883598 55.87301587301588,159.15343915343917 55.661375661375665,158.51851851851853 55.449735449735456,157.8835978835979 55.23809523809524,157.24867724867727 55.02645502645503,156.61375661375664 54.81481481481482,155.978835978836 54.60317460317461,155.34391534391534 54.39153439153439,154.7089947089947 54.179894179894184,154.07407407407408 53.75661375661376,153.43915343915344 53.54497354497355,152.8042328042328 53.333333333333336,152.16931216931218 52.91005291005291,151.53439153439155 52.6984126984127,150.8994708994709 52.48677248677249,150.26455026455028 52.27513227513228,149.62962962962965 51.851851851851855,148.99470899470901 51.640211640211646,148.35978835978838 51.42857142857143,147.72486772486775 51.21693121693122,147.0899470899471 50.7936507936508,146.45502645502646 50.58201058201058,145.82010582010582 50.370370370370374,145.1851851851852 50.158730158730165,144.55026455026456 49.73544973544974,144.12698412698413 49.523809523809526,143.4920634920635 49.31216931216932,142.85714285714286 49.1005291005291,142.22222222222223 48.677248677248684,141.5873015873016 48.46560846560847,140.95238095238096 48.042328042328045,140.31746031746033 47.830687830687836,139.6825396825397 47.40740740740741,139.04761904761907 47.195767195767196,138.41269841269843 46.77248677248678,137.7777777777778 46.349206349206355,137.35449735449737 46.13756613756614,136.71957671957674 45.714285714285715,136.0846560846561 45.29100529100529,135.44973544973547 45.07936507936508,134.81481481481484 44.65608465608466,134.3915343915344 44.232804232804234,133.75661375661377 43.80952380952381,133.12169312169314 43.386243386243386,132.6984126984127 42.75132275132275,132.27513227513228 42.11640211640212,131.85185185185185 41.48148148148149,131.64021164021165 40.84656084656085,131.42857142857144 40.211640211640216,131.21693121693121 39.57671957671958,131.005291005291 38.94179894179894,131.005291005291 38.30687830687831,131.005291005291 37.67195767195768,131.005291005291 37.03703703703704,131.21693121693121 36.402116402116405,131.21693121693121 35.76719576719577,131.42857142857144 35.13227513227513,131.64021164021165 34.4973544973545,131.85185185185185 33.86243386243387,132.27513227513228 33.22751322751323,132.4867724867725 32.592592592592595,132.9100529100529 31.95767195767196,133.33333333333334 31.322751322751326,133.75661375661377 30.899470899470902,134.17989417989418 30.264550264550266,134.6031746031746 29.841269841269842,135.02645502645504 29.41798941798942,135.44973544973547 28.994708994708997,135.87301587301587 28.571428571428573,136.2962962962963 28.14814814814815,136.71957671957674 27.724867724867728,137.14285714285717 27.513227513227516,137.7777777777778 27.089947089947092,138.2010582010582 26.666666666666668,138.62433862433863 26.031746031746035,139.04761904761907 25.60846560846561,139.47089947089947 25.185185185185187,139.8941798941799 24.761904761904763,140.31746031746033 24.338624338624342,140.74074074074076 23.915343915343918,141.16402116402116 23.280423280423282,141.3756613756614 22.645502645502646,141.5873015873016 22.010582010582013,141.7989417989418 21.375661375661377,142.01058201058203 20.740740740740744,142.22222222222223 20.105820105820108,142.22222222222223 19.47089947089947,142.43386243386246 18.83597883597884,142.64550264550266 18.201058201058203,142.64550264550266 17.566137566137566,142.64550264550266 16.931216931216934,142.64550264550266 16.296296296296298,142.64550264550266 15.661375661375663,142.64550264550266 15.026455026455027,142.64550264550266 14.391534391534393,142.43386243386246 13.756613756613758,142.43386243386246 13.121693121693122,142.22222222222223 12.486772486772487,142.22222222222223 11.851851851851853,142.01058201058203 11.216931216931219,141.7989417989418 10.582010582010582,141.5873015873016 9.947089947089948,141.16402116402116 9.312169312169313,140.95238095238096 8.677248677248677,140.52910052910053 8.042328042328043,140.10582010582013 7.6190476190476195,139.6825396825397 6.984126984126985,139.25925925925927 6.560846560846561,138.83597883597884 6.137566137566138,138.41269841269843 5.714285714285714,137.989417989418 5.291005291005291,137.56613756613757 4.656084656084657,137.14285714285717 4.2328042328042335,136.5079365079365 3.8095238095238098,136.0846560846561 3.3862433862433865,135.44973544973547 2.9629629629629632,134.81481481481484 2.53968253968254,134.17989417989418 2.3280423280423284,133.54497354497354 1.9047619047619049,132.9100529100529 1.6931216931216932,132.27513227513228 1.4814814814814816,131.64021164021165 1.26984126984127,131.005291005291 1.0582010582010584,130.37037037037038 0.8465608465608466,129.73544973544975 0.634920634920635,129.10052910052912 0.634920634920635,128.46560846560848 0.4232804232804233,127.83068783068784 0.4232804232804233,127.1957671957672 0.4232804232804233,126.56084656084657 0.4232804232804233,125.92592592592594 0.21164021164021166,125.2910052910053 0.21164021164021166,124.65608465608466 0.4232804232804233,124.02116402116403 0.4232804232804233,123.3862433862434 0.634920634920635,122.75132275132276 0.8465608465608466,122.11640211640213 0.8465608465608466,121.4814814814815 1.0582010582010584,120.84656084656086 1.26984126984127,120.21164021164022 1.6931216931216932,119.57671957671958 1.9047619047619049,118.94179894179895 2.1164021164021167,118.30687830687832 2.53968253968254,117.88359788359789 2.7513227513227516,117.24867724867725 3.174603174603175,116.61375661375662 3.597883597883598,116.1904761904762 3.8095238095238098,115.55555555555557 4.2328042328042335,115.13227513227514 4.656084656084657,114.70899470899472 5.291005291005291,114.28571428571429 5.9259259259259265,113.86243386243387 6.34920634920635,113.22751322751324 6.984126984126985,112.80423280423281 7.6190476190476195,112.3809523809524 8.253968253968255,111.95767195767196 8.88888888888889,111.74603174603176 9.523809523809524,111.53439153439155 10.15873015873016,111.11111111111111 10.793650793650794,110.89947089947091 11.428571428571429,110.6878306878307 12.063492063492065,110.47619047619048 12.6984126984127,110.26455026455027 13.333333333333334,110.05291005291006 13.96825396825397,109.84126984126985 14.603174603174605,109.62962962962963 15.238095238095239,109.62962962962963 15.873015873015873,109.41798941798943 16.50793650793651,109.41798941798943 17.142857142857146,109.41798941798943 17.77777777777778,109.20634920634922 18.412698412698415,109.20634920634922 19.047619047619047,109.20634920634922 19.682539682539684,109.20634920634922 20.31746031746032,109.20634920634922 20.952380952380953,109.20634920634922 21.58730158730159,109.20634920634922 22.222222222222225,109.20634920634922 22.857142857142858,109.20634920634922 23.492063492063494,109.20634920634922 24.12698412698413,109.20634920634922 24.55026455026455,108.78306878306879 25.185185185185187,108.57142857142858 25.820105820105823,108.35978835978837 26.455026455026456,108.14814814814815 27.089947089947092,107.72486772486774 27.724867724867728,107.3015873015873 28.14814814814815,106.87830687830689 28.783068783068785,106.45502645502647 29.20634920634921,106.03174603174604 29.629629629629633,105.60846560846562 30.052910052910054,105.18518518518519 30.476190476190478,104.55026455026456 30.899470899470902,103.91534391534393 31.111111111111114,103.28042328042329 31.322751322751326,102.64550264550266 31.111111111111114,102.01058201058201 31.322751322751326,101.37566137566138 31.322751322751326,100.74074074074075 31.322751322751326,100.10582010582011 31.111111111111114,99.47089947089948 31.111111111111114,98.83597883597885 30.899470899470902,98.2010582010582 30.68783068783069,97.56613756613757 30.476190476190478,96.93121693121694 30.264550264550266,96.2962962962963 30.052910052910054,95.66137566137567 29.629629629629633,95.23809523809524 29.41798941798942,94.60317460317461 28.994708994708997,94.17989417989419 28.571428571428573,93.54497354497356 28.14814814814815,92.91005291005291 27.724867724867728,92.4867724867725 27.301587301587304,91.85185185185186 26.87830687830688,91.42857142857143 26.455026455026456,90.7936507936508 26.031746031746035,90.37037037037038 25.60846560846561,89.73544973544975 25.185185185185187,89.31216931216932 24.761904761904763,88.67724867724868 24.338624338624342,88.25396825396827 23.915343915343918,87.83068783068784 23.492063492063494,87.1957671957672 23.06878306878307,86.56084656084657 22.645502645502646,85.92592592592594 22.222222222222225,85.29100529100529 21.7989417989418,84.65608465608466 21.375661375661377,84.02116402116403 21.164021164021165,83.3862433862434 20.740740740740744,82.96296296296298 20.31746031746032,82.32804232804233 20.105820105820108,81.6931216931217 19.682539682539684,81.05820105820106 19.25925925925926,80.42328042328043 19.047619047619047,79.7883597883598 18.624338624338627,79.15343915343917 18.412698412698415,78.51851851851852 17.98941798941799,77.88359788359789 17.77777777777778,77.24867724867725 17.566137566137566,76.61375661375662 17.142857142857146,76.19047619047619 16.931216931216934,75.55555555555556 16.71957671957672,74.92063492063492 16.296296296296298,74.49735449735451 16.084656084656086,73.86243386243387 15.873015873015873,73.22751322751323 14.391534391534393,69.84126984126985" style="fill:none; stroke:#3300bb; stroke-width:1.0"  /><circle cx="14.391534391534393" cy="69.84126984126985" r="2.0" style="fill:none; stroke:#000000aa; stroke-width:0.25" /><circle cx="144.55026455026456" cy="0.0" r="2.0" style="fill:none; stroke:#000000aa; stroke-width:0.25" /><circle cx="196.82539682539684" cy="95.87301587301587" r="2.0" style="fill:none; stroke:#000000aa; stroke-width:0.25" /><circle cx="59.04761904761905" cy="169.73544973544975" r="2.0" style="fill:none; stroke:#000000aa; stroke-width:0.25" /><circle cx="14.603174603174605" cy="69.84126984126985" r="2.0" style="fill:none; stroke:#ff3366aa; stroke-width:0.25" /><circle cx="144.12698412698413" cy="0.21164021164021166" r="2.0" style="fill:none; stroke:#ff3366aa; stroke-width:0.25" /><circle cx="196.4021164021164" cy="95.87301587301587" r="2.0" style="fill:none; stroke:#ff3366aa; stroke-width:0.25" /><circle cx="59.04761904761905" cy="169.31216931216932" r="2.0" style="fill:none; stroke:#ff3366aa; stroke-width:0.25" /><polyline points="24.55026455026455,63.70370370370371 23.915343915343918,64.12698412698413 23.280423280423282,64.55026455026456 22.645502645502646,64.76190476190477 22.010582010582013,65.18518518518519 21.375661375661377,65.3968253968254 20.740740740740744,65.82010582010582 20.105820105820108,66.03174603174604 19.682539682539684,66.45502645502646 19.047619047619047,66.66666666666667 18.624338624338627,67.08994708994709 17.98941798941799,67.51322751322752 17.566137566137566,67.93650793650794" style="fill:none; stroke:#001100; stroke-width:1.0" /><polyline points="19.25925925925926,80.42328042328043 19.047619047619047,79.7883597883598 18.624338624338627,79.15343915343917 18.412698412698415,78.51851851851852 17.98941798941799,77.88359788359789 17.77777777777778,77.24867724867725 17.566137566137566,76.61375661375662 17.142857142857146,76.19047619047619 16.931216931216934,75.55555555555556 16.71957671957672,74.92063492063492 16.296296296296298,74.49735449735451 16.084656084656086,73.86243386243387 15.873015873015873,73.22751322751323" style="fill:none; stroke:#000011; stroke-width:1.0" /><polyline points="146.66666666666669,11.851851851851853 146.45502645502646,11.216931216931219 146.24338624338625,10.582010582010582 146.24338624338625,9.947089947089948 146.24338624338625,9.312169312169313 146.03174603174605,8.677248677248677 145.82010582010582,8.042328042328043 145.82010582010582,7.407407407407408 145.60846560846562,6.772486772486773 145.60846560846562,6.137566137566138 145.39682539682542,5.502645502645503 145.39682539682542,4.867724867724868 145.1851851851852,4.2328042328042335 145.1851851851852,3.597883597883598" style="fill:none; stroke:#001100; stroke-width:1.0" /><polyline points="132.6984126984127,1.9047619047619049 133.33333333333334,1.9047619047619049 133.96825396825398,1.6931216931216932 134.6031746031746,1.6931216931216932 135.23809523809524,1.4814814814814816 135.87301587301587,1.26984126984127 136.5079365079365,1.0582010582010584 137.14285714285717,1.0582010582010584 137.7777777777778,1.0582010582010584 138.41269841269843,1.0582010582010584 139.04761904761907,0.8465608465608466 139.6825396825397,0.8465608465608466 140.31746031746033,0.634920634920635 140.95238095238096,0.634920634920635" style="fill:none; stroke:#000011; stroke-width:1.0" /><polyline points="187.30158730158732,103.4920634920635 187.93650793650795,103.06878306878308 188.57142857142858,102.64550264550266 189.20634920634922,102.22222222222223 189.62962962962965,101.79894179894181 190.05291005291008,101.37566137566138 190.6878306878307,100.95238095238096 191.11111111111111,100.52910052910053 191.53439153439155,100.10582010582011 192.16931216931218,99.68253968253968 192.5925925925926,99.25925925925927 193.22751322751324,98.83597883597885 193.65079365079367,98.41269841269842 194.07407407407408,97.989417989418" style="fill:none; stroke:#001100; stroke-width:1.0" /><polyline points="190.6878306878307,85.71428571428572 191.11111111111111,86.34920634920636 191.32275132275134,86.98412698412699 191.74603174603175,87.40740740740742 191.95767195767198,88.04232804232805 192.3809523809524,88.46560846560847 192.8042328042328,89.1005291005291 193.22751322751324,89.73544973544975 193.43915343915344,90.37037037037038 193.86243386243387,90.7936507936508 194.07407407407408,91.42857142857143 194.4973544973545,92.06349206349208 194.92063492063494,92.69841269841271" style="fill:none; stroke:#000011; stroke-width:1.0" /><polyline points="55.449735449735456,157.8835978835979 55.661375661375665,158.51851851851853 55.87301587301588,159.15343915343917 56.08465608465609,159.7883597883598 56.2962962962963,160.42328042328043 56.2962962962963,161.05820105820106 56.50793650793651,161.6931216931217 56.71957671957672,162.32804232804233 56.93121693121694,162.96296296296296 57.142857142857146,163.59788359788362 57.35449735449736,164.23280423280426 57.56613756613757,164.8677248677249 57.777777777777786,165.50264550264552 57.989417989417994,166.13756613756615" style="fill:none; stroke:#001100; stroke-width:1.0" /><polyline points="68.35978835978837,161.6931216931217 67.93650793650794,162.11640211640213 67.3015873015873,162.53968253968256 66.87830687830689,162.96296296296296 66.45502645502646,163.3862433862434 65.82010582010582,163.80952380952382 65.3968253968254,164.23280423280426 64.76190476190477,164.65608465608466 64.33862433862434,165.0793650793651 63.91534391534392,165.50264550264552 63.492063492063494,165.92592592592595 63.06878306878308,166.34920634920636 62.43386243386244,166.7724867724868 62.01058201058201,167.19576719576722 61.58730158730159,167.61904761904762" style="fill:none; stroke:#000011; stroke-width:1.0" /><polyline points="17.566137566137566,67.93650793650794 -0.634920634920635,78.94179894179895" style="fill:none; stroke:#ffaa00; stroke-width:0.4" /><polyline points="15.873015873015873,73.22751322751323 6.772486772486773,54.179894179894184" style="fill:none; stroke:#aaff00; stroke-width:0.4" /><polyline points="145.1851851851852,3.597883597883598 141.3756613756614,-17.142857142857146" style="fill:none; stroke:#ffaa00; stroke-width:0.4" /><polyline points="140.95238095238096,0.634920634920635 161.90476190476193,-2.53968253968254" style="fill:none; stroke:#aaff00; stroke-width:0.4" /><polyline points="194.07407407407408,97.989417989418 210.5820105820106,84.65608465608466" style="fill:none; stroke:#ffaa00; stroke-width:0.4" /><polyline points="194.92063492063494,92.69841269841271 205.92592592592595,110.89947089947091" style="fill:none; stroke:#aaff00; stroke-width:0.4" /><polyline points="57.989417989417994,166.13756613756615 64.12698412698413,186.45502645502646" style="fill:none; stroke:#ffaa00; stroke-width:0.4" /><polyline points="61.58730158730159,167.61904761904762 45.714285714285715,181.5873015873016" style="fill:none; stroke:#aaff00; stroke-width:0.4" /><circle cx="108.35978835978837" cy="92.06349206349208" r="1.0" style="fill:#444444; stroke-width:0" /><circle cx="76.4021164021164" cy="112.5925925925926" r="10.582010582010582" style="fill:#ff770022; stroke-width:0" /><circle cx="76.4021164021164" cy="112.5925925925926" r="1.0" style="fill:#ff7700; stroke-width:0" /></svg>