<?xml version="1.0" encoding="UTF-8" standalone="no"?><svg width="571.4285714285714" height="445.7142857142857" viewBox="-10 -10 210.47619047619048 168.57142857142858" xmlns="http://www.w3.org/2000/svg" xmlns:xlink="http://www.w3.org/1999/xlink"><polyline points="10.15873015873016,8.042328042328043 13.756613756613758,7.407407407407408 14.391534391534393,7.407407407407408 15.026455026455027,7.195767195767196 15.661375661375663,6.984126984126985 16.296296296296298,6.984126984126985 16.931216931216934,6.984126984126985 17.566137566137566,6.772486772486773 18.201058201058203,6.560846560846561 18.83597883597884,6.560846560846561 19.47089947089947,6.34920634920635 20.105820105820108,6.34920634920635 20.740740740740744,6.34920634920635 21.375661375661377,6.34920634920635 22.010582010582013,6.137566137566138 22.645502645502646,6.137566137566138 23.280423280423282,5.9259259259259265 23.915343915343918,5.714285714285714 24.55026455026455,5.9259259259259265 25.185185185185187,5.714285714285714 25.820105820105823,5.502645502645503 26.455026455026456,5.502645502645503 27.089947089947092,5.502645502645503 27.724867724867728,5.291005291005291 28.35978835978836,5.07936507936508 28.994708994708997,5.07936507936508 29.629629629629633,4.867724867724868 30.264550264550266,4.867724867724868 30.899470899470902,4.867724867724868 31.53439153439154,4.867724867724868 32.16931216931217,4.656084656084657 32.804232804232804,4.444444444444445 33.43915343915344,4.444444444444445 34.074074074074076,4.2328042328042335 34.70899470899471,4.2328042328042335 35.34391534391535,4.021164021164021 35.97883597883598,4.021164021164021 36.613756613756614,3.8095238095238098 37.248677248677254,3.8095238095238098 37.883597883597886,3.8095238095238098 38.51851851851852,3.597883597883598 39.15343915343916,3.597883597883598 39.78835978835979,3.3862433862433865 40.423280423280424,3.3862433862433865 41.058201058201064,3.174603174603175 41.6931216931217,3.174603174603175 42.32804232804233,2.9629629629629632 42.96296296296297,2.9629629629629632 43.5978835978836,2.7513227513227516 44.232804232804234,2.7513227513227516 44.867724867724874,2.7513227513227516 45.50264550264551,2.53968253968254 46.13756613756614,2.53968253968254 46.77248677248678,2.3280423280423284 47.40740740740741,2.3280423280423284 48.042328042328045,2.3280423280423284 48.677248677248684,2.1164021164021167 49.31216931216932,2.1164021164021167 49.94708994708995,1.9047619047619049 50.58201058201058,1.9047619047619049 51.21693121693122,1.9047619047619049 51.851851851851855,1.9047619047619049 52.27513227513228,1.4814814814814816 52.91005291005291,1.26984126984127 53.54497354497355,1.26984126984127 54.179894179894184,1.26984126984127 54.81481481481482,1.26984126984127 55.449735449735456,1.4814814814814816 56.08465608465609,1.6931216931216932 56.71957671957672,1.6931216931216932 57.35449735449736,1.9047619047619049 57.989417989417994,2.3280423280423284 58.62433862433863,2.53968253968254 59.25925925925927,2.9629629629629632 59.682539682539684,3.3862433862433865 60.10582010582011,4.021164021164021 60.31746031746032,4.656084656084657 60.52910052910053,5.291005291005291 60.74074074074075,5.9259259259259265 60.74074074074075,6.560846560846561 60.74074074074075,7.195767195767196 60.74074074074075,7.830687830687832 60.52910052910053,8.465608465608467 60.52910052910053,9.100529100529101 60.31746031746032,9.735449735449736 60.10582010582011,10.370370370370372 59.8941798941799,11.005291005291006 59.682539682539684,11.640211640211641 59.25925925925927,12.275132275132275 59.04761904761905,12.910052910052912 58.62433862433863,13.333333333333334 58.41269841269842,13.96825396825397 57.989417989417994,14.391534391534393 57.56613756613757,15.026455026455027 57.142857142857146,15.661375661375663 56.71957671957672,16.296296296296298 56.2962962962963,16.931216931216934 55.87301587301588,17.566137566137566 55.449735449735456,18.201058201058203 55.23809523809524,18.83597883597884 54.81481481481482,19.25925925925926 54.60317460317461,19.894179894179896 54.39153439153439,20.529100529100532 53.968253968253975,21.164021164021165 53.75661375661376,21.7989417989418 53.54497354497355,22.433862433862437 53.333333333333336,23.06878306878307 53.12169312169313,23.703703703703706 52.91005291005291,24.338624338624342 52.6984126984127,24.973544973544975 52.48677248677249,25.60846560846561 52.48677248677249,26.243386243386244 52.27513227513228,26.87830687830688 52.27513227513228,27.513227513227516 52.06349206349207,28.14814814814815 52.06349206349207,28.783068783068785 52.06349206349207,29.41798941798942 52.06349206349207,30.052910052910054 52.06349206349207,30.68783068783069 52.06349206349207,31.322751322751326 52.06349206349207,31.95767195767196 52.06349206349207,32.592592592592595 52.06349206349207,33.22751322751323 52.27513227513228,33.86243386243387 52.27513227513228,34.4973544973545 52.48677248677249,35.13227513227513 52.6984126984127,35.76719576719577 52.91005291005291,36.402116402116405 53.12169312169313,37.03703703703704 53.54497354497355,37.67195767195768 53.75661375661376,38.30687830687831 54.179894179894184,38.94179894179894 54.60317460317461,39.57671957671958 55.02645502645503,40.211640211640216 55.449735449735456,40.84656084656085 55.87301587301588,41.26984126984127 56.2962962962963,41.904761904761905 56.71957671957672,42.32804232804233 57.142857142857146,42.75132275132275 57.56613756613757,43.17460317460318 58.2010582010582,43.5978835978836 58.62433862433863,44.021164021164026 59.25925925925927,44.44444444444445 59.8941798941799,44.867724867724874 60.52910052910053,45.29100529100529 60.952380952380956,45.714285714285715 61.58730158730159,45.92592592592593 62.22222222222223,46.349206349206355 62.85714285714286,46.77248677248678 63.492063492063494,47.195767195767196 64.12698412698413,47.40740740740741 64.76190476190477,47.40740740740741 65.3968253968254,47.830687830687836 66.03174603174604,48.042328042328045 66.66666666666667,48.25396825396826 67.3015873015873,48.46560846560847 67.93650793650794,48.46560846560847 68.57142857142858,48.677248677248684 69.20634920634922,49.1005291005291 69.84126984126985,48.88888888888889 70.47619047619048,49.1005291005291 71.11111111111111,49.1005291005291 71.74603174603175,49.1005291005291 72.38095238095238,49.31216931216932 73.01587301587303,49.31216931216932 73.65079365079366,49.31216931216932 74.28571428571429,49.31216931216932 74.92063492063492,49.31216931216932 75.55555555555556,49.31216931216932 76.19047619047619,49.31216931216932 76.82539682539684,49.523809523809526 77.46031746031747,49.523809523809526 78.0952380952381,49.523809523809526 78.73015873015873,49.31216931216932 79.36507936507937,49.31216931216932 80.0,49.31216931216932 80.63492063492065,49.31216931216932 81.26984126984128,49.31216931216932 81.90476190476191,49.31216931216932 82.53968253968254,49.31216931216932 83.17460317460318,49.31216931216932 83.80952380952381,49.1005291005291 84.44444444444446,49.1005291005291 85.07936507936509,48.88888888888889 85.71428571428572,49.1005291005291 86.34920634920636,48.88888888888889 86.98412698412699,48.88888888888889 87.40740740740742,48.46560846560847 88.04232804232805,48.25396825396826 88.67724867724868,48.042328042328045 89.31216931216932,48.042328042328045 89.94708994708995,47.830687830687836 90.58201058201058,47.830687830687836 91.21693121693123,47.61904761904762 91.85185185185186,47.195767195767196 92.4867724867725,46.98412698412699 93.12169312169313,46.77248677248678 93.75661375661376,46.349206349206355 94.39153439153439,45.92592592592593 95.02645502645504,45.714285714285715 95.66137566137567,45.29100529100529 96.2962962962963,45.07936507936508 96.71957671957672,44.65608465608466 97.35449735449737,44.232804232804234 97.989417989418,43.80952380952381 98.41269841269842,43.386243386243386 99.04761904761905,42.96296296296297 99.68253968253968,42.539682539682545 100.10582010582011,42.11640211640212 100.52910052910053,41.6931216931217 100.95238095238096,41.26984126984127 101.37566137566138,40.84656084656085 101.79894179894181,40.423280423280424 102.22222222222223,40.0 102.64550264550266,39.57671957671958 103.06878306878308,38.94179894179894 103.4920634920635,38.51851851851852 103.70370370370371,37.883597883597886 104.12698412698414,37.248677248677254 104.33862433862434,36.613756613756614 104.55026455026456,35.97883597883598 104.76190476190477,35.34391534391535 104.76190476190477,34.70899470899471 104.76190476190477,34.074074074074076 104.76190476190477,33.43915343915344 104.76190476190477,32.804232804232804 104.76190476190477,32.16931216931217 104.55026455026456,31.53439153439154 104.55026455026456,30.899470899470902 104.33862433862434,30.264550264550266 104.12698412698414,29.629629629629633 103.91534391534393,28.994708994708997 103.70370370370371,28.35978835978836 103.4920634920635,27.724867724867728 103.28042328042329,27.089947089947092 103.06878306878308,26.455026455026456 102.64550264550266,25.820105820105823 102.43386243386244,25.185185185185187 102.01058201058201,24.55026455026455 101.5873015873016,23.915343915343918 101.16402116402116,23.280423280423282 100.95238095238096,22.645502645502646 100.52910052910053,22.222222222222225 100.10582010582011,21.58730158730159 99.8941798941799,20.952380952380953 99.47089947089948,20.529100529100532 99.04761904761905,19.894179894179896 98.83597883597885,19.25925925925926 98.41269841269842,18.83597883597884 97.989417989418,18.201058201058203 97.989417989418,17.566137566137566 97.77777777777779,16.931216931216934 97.56613756613757,16.296296296296298 97.56613756613757,15.661375661375663 97.56613756613757,15.026455026455027 97.56613756613757,14.391534391534393 97.77777777777779,13.756613756613758 97.989417989418,13.121693121693122 98.41269841269842,12.486772486772487 98.83597883597885,11.851851851851853 99.25925925925927,11.428571428571429 99.8941798941799,11.005291005291006 100.31746031746033,10.582010582010582 100.95238095238096,10.370370370370372 101.5873015873016,9.947089947089948 102.01058201058201,9.523809523809524 102.64550264550266,9.312169312169313 103.28042328042329,8.88888888888889 103.91534391534393,8.88888888888889 104.55026455026456,8.677248677248677 105.18518518518519,8.677248677248677 105.82010582010582,8.677248677248677 106.45502645502647,8.465608465608467 107.0899470899471,8.465608465608467 107.72486772486774,8.465608465608467 108.35978835978837,8.465608465608467 108.994708994709,8.465608465608467 109.62962962962963,8.677248677248677 110.26455026455027,8.677248677248677 110.89947089947091,8.465608465608467 111.53439153439155,8.465608465608467 112.16931216931218,8.677248677248677 112.80423280423281,8.677248677248677 113.43915343915344,8.677248677248677 114.07407407407408,8.677248677248677 114.70899470899472,8.677248677248677 115.34391534391536,8.677248677248677 115.97883597883599,8.677248677248677 116.61375661375662,8.677248677248677 117.24867724867725,8.677248677248677 117.88359788359789,8.677248677248677 118.51851851851853,8.677248677248677 119.15343915343917,8.465608465608467 119.7883597883598,8.465608465608467 120.42328042328043,8.465608465608467 121.05820105820106,8.465608465608467 121.6931216931217,8.465608465608467 122.32804232804234,8.253968253968255 122.96296296296298,8.042328042328043 123.59788359788361,8.042328042328043 124.23280423280424,8.042328042328043 124.86772486772487,8.042328042328043 125.5026455026455,8.042328042328043 126.13756613756615,7.830687830687832 126.77248677248679,7.830687830687832 127.40740740740742,7.830687830687832 128.04232804232805,7.830687830687832 128.67724867724868,7.6190476190476195 129.31216931216932,7.6190476190476195 129.94708994708995,7.6190476190476195 130.58201058201058,7.6190476190476195 131.21693121693121,7.6190476190476195 131.85185185185185,7.407407407407408 132.4867724867725,7.407407407407408 133.12169312169314,7.407407407407408 133.75661375661377,7.195767195767196 134.3915343915344,6.984126984126985 135.02645502645504,6.984126984126985 135.66137566137567,6.984126984126985 136.2962962962963,6.772486772486773 136.93121693121694,6.560846560846561 137.56613756613757,6.34920634920635 138.2010582010582,6.34920634920635 138.83597883597884,6.34920634920635 139.47089947089947,6.137566137566138 140.10582010582013,6.137566137566138 140.74074074074076,5.9259259259259265 141.3756613756614,5.714285714285714 142.01058201058203,5.502645502645503 142.64550264550266,5.502645502645503 143.2804232804233,5.291005291005291 143.91534391534393,5.291005291005291 144.55026455026456,5.07936507936508 145.1851851851852,4.867724867724868 145.82010582010582,4.656084656084657 146.45502645502646,4.444444444444445 147.0899470899471,4.444444444444445 147.72486772486775,4.2328042328042335 148.35978835978838,4.021164021164021 148.99470899470901,4.021164021164021 149.62962962962965,3.8095238095238098 150.26455026455028,3.597883597883598 150.8994708994709,3.597883597883598 151.53439153439155,3.174603174603175 152.16931216931218,3.174603174603175 152.8042328042328,2.9629629629629632 153.43915343915344,2.7513227513227516 154.07407407407408,2.53968253968254 154.7089947089947,2.53968253968254 155.34391534391534,2.3280423280423284 155.978835978836,2.1164021164021167 156.61375661375664,1.9047619047619049 157.03703703703704,1.4814814814814816 157.67195767195767,1.26984126984127 158.30687830687833,1.0582010582010584 158.94179894179896,0.8465608465608466 159.5767195767196,0.634920634920635 161.90476190476193,-0.21164021164021166" style="fill:none; stroke:#cc0000; stroke-width:1.0"  /><polyline points="161.90476190476193,-0.21164021164021166 163.59788359788362,3.597883597883598 163.80952380952382,4.2328042328042335 164.02116402116403,4.867724867724868 164.23280423280426,5.502645502645503 164.65608465608466,6.137566137566138 164.8677248677249,6.772486772486773 165.0793650793651,7.407407407407408 165.50264550264552,8.042328042328043 165.71428571428572,8.677248677248677 165.92592592592595,9.312169312169313 166.34920634920636,9.947089947089948 166.56084656084658,10.582010582010582 166.984126984127,11.216931216931219 167.19576719576722,11.851851851851853 167.61904761904762,12.486772486772487 167.83068783068785,13.121693121693122 168.04232804232805,13.756613756613758 168.46560846560848,14.391534391534393 168.67724867724868,15.026455026455027 169.10052910052912,15.661375661375663 169.31216931216932,16.296296296296298 169.52380952380955,16.931216931216934 169.94708994708995,17.566137566137566 170.15873015873018,18.201058201058203 170.58201058201058,18.83597883597884 171.005291005291,19.47089947089947 171.21693121693124,20.105820105820108 171.64021164021165,20.740740740740744 171.85185185185188,21.375661375661377 172.06349206349208,22.010582010582013 172.4867724867725,22.645502645502646 172.6984126984127,23.280423280423282 172.9100529100529,23.915343915343918 173.33333333333334,24.55026455026455 173.54497354497354,25.185185185185187 173.96825396825398,25.820105820105823 174.1798941798942,26.455026455026456 174.3915343915344,27.089947089947092 174.81481481481484,27.724867724867728 175.02645502645504,28.35978835978836 175.23809523809524,28.994708994708997 175.44973544973547,29.629629629629633 175.66137566137567,30.264550264550266 175.87301587301587,30.899470899470902 176.0846560846561,31.53439153439154 176.2962962962963,32.16931216931217 176.2962962962963,32.804232804232804 176.50793650793653,33.43915343915344 176.50793650793653,34.074074074074076 176.2962962962963,34.70899470899471 176.2962962962963,35.34391534391535 176.0846560846561,35.97883597883598 175.87301587301587,36.613756613756614 175.66137566137567,37.248677248677254 175.23809523809524,37.67195767195768 174.81481481481484,38.095238095238095 174.3915343915344,38.51851851851852 173.96825396825398,38.94179894179894 173.33333333333334,39.36507936507937 172.6984126984127,39.57671957671958 172.06349206349208,40.0 171.42857142857144,40.211640211640216 170.7936507936508,40.423280423280424 170.15873015873018,40.423280423280424 169.52380952380955,40.63492063492064 168.8888888888889,40.63492063492064 168.25396825396825,40.63492063492064 167.61904761904762,40.423280423280424 166.984126984127,40.211640211640216 166.34920634920636,40.211640211640216 165.71428571428572,40.0 165.0793650793651,39.78835978835979 164.44444444444446,39.57671957671958 163.80952380952382,39.57671957671958 163.1746031746032,39.57671957671958 162.53968253968256,39.57671957671958 161.90476190476193,39.57671957671958 161.2698412698413,39.57671957671958 160.63492063492066,39.57671957671958 160.0,39.57671957671958 159.36507936507937,39.57671957671958 158.73015873015873,39.78835978835979 158.0952380952381,39.78835978835979 157.46031746031747,40.0 156.82539682539684,40.211640211640216 156.1904761904762,40.423280423280424 155.55555555555557,40.63492063492064 154.92063492063494,40.84656084656085 154.2857142857143,41.058201058201064 153.65079365079367,41.26984126984127 153.01587301587304,41.6931216931217 152.38095238095238,41.904761904761905 151.74603174603175,42.32804232804233 151.11111111111111,42.75132275132275 150.47619047619048,43.17460317460318 150.05291005291005,43.5978835978836 149.62962962962965,44.232804232804234 149.20634920634922,44.65608465608466 148.78306878306879,45.29100529100529 148.57142857142858,45.92592592592593 148.35978835978838,46.560846560846564 148.14814814814815,47.195767195767196 147.93650793650795,47.830687830687836 147.72486772486775,48.46560846560847 147.72486772486775,49.1005291005291 147.51322751322752,49.73544973544974 147.30158730158732,50.370370370370374 147.30158730158732,51.00529100529101 147.0899470899471,51.640211640211646 147.0899470899471,52.27513227513228 147.0899470899471,52.91005291005291 146.8783068783069,53.54497354497355 147.0899470899471,54.179894179894184 147.0899470899471,54.81481481481482 147.0899470899471,55.449735449735456 146.8783068783069,56.08465608465609 147.0899470899471,56.71957671957672 146.8783068783069,57.35449735449736 147.0899470899471,57.989417989417994 147.0899470899471,58.62433862433863 147.0899470899471,59.25925925925927 147.0899470899471,59.8941798941799 147.30158730158732,60.52910052910053 147.30158730158732,61.16402116402117 147.30158730158732,61.798941798941804 147.51322751322752,62.43386243386244 147.51322751322752,63.06878306878308 147.72486772486775,63.70370370370371 147.93650793650795,64.33862433862434 148.14814814814815,64.97354497354497 148.14814814814815,65.60846560846561 148.35978835978838,66.24338624338625 148.78306878306879,66.87830687830689 148.78306878306879,67.51322751322752 149.20634920634922,68.14814814814815 149.41798941798942,68.78306878306879 149.62962962962965,69.41798941798942 150.05291005291005,70.05291005291006 150.26455026455028,70.6878306878307 150.6878306878307,71.32275132275133 150.8994708994709,71.95767195767196 151.32275132275134,72.38095238095238 151.53439153439155,73.01587301587303 151.95767195767198,73.43915343915344 152.16931216931218,74.07407407407408 152.5925925925926,74.49735449735451 153.01587301587304,75.13227513227514 153.43915343915344,75.76719576719577 153.86243386243387,76.4021164021164 154.2857142857143,76.82539682539684 154.7089947089947,77.46031746031747 155.13227513227514,77.88359788359789 155.55555555555557,78.30687830687832 155.978835978836,78.73015873015873 156.61375661375664,79.15343915343917 157.03703703703704,79.57671957671958 157.67195767195767,79.7883597883598 158.30687830687833,80.21164021164022 158.94179894179896,80.42328042328043 159.5767195767196,80.63492063492065 160.21164021164023,80.84656084656085 160.84656084656086,80.84656084656085 161.4814814814815,81.05820105820106 162.11640211640213,81.26984126984128 162.75132275132276,81.26984126984128 163.3862433862434,81.48148148148148 164.02116402116403,81.48148148148148 164.65608465608466,81.48148148148148 165.2910052910053,81.48148148148148 165.92592592592595,81.48148148148148 166.56084656084658,81.48148148148148 167.19576719576722,81.26984126984128 167.83068783068785,81.26984126984128 168.46560846560848,81.05820105820106 169.10052910052912,80.84656084656085 169.73544973544975,80.42328042328043 170.15873015873018,80.0 170.7936507936508,79.57671957671958 171.42857142857144,79.36507936507937 172.06349206349208,78.94179894179895 172.6984126984127,78.51851851851852 173.33333333333334,78.0952380952381 173.96825396825398,77.67195767195767 174.6031746031746,77.24867724867725 175.23809523809524,77.03703703703704 175.87301587301587,76.82539682539684 176.50793650793653,76.61375661375662 177.14285714285717,76.4021164021164 177.7777777777778,76.4021164021164 178.41269841269843,76.19047619047619 179.04761904761907,76.19047619047619 179.6825396825397,76.19047619047619 180.31746031746033,76.19047619047619 180.95238095238096,76.4021164021164 181.5873015873016,76.4021164021164 182.22222222222223,76.82539682539684 182.85714285714286,77.03703703703704 183.4920634920635,77.03703703703704 184.12698412698415,77.46031746031747 184.7619047619048,77.67195767195767 185.1851851851852,78.0952380952381 185.60846560846562,78.51851851851852 186.03174603174605,78.94179894179895 186.45502645502646,79.36507936507937 186.66666666666669,80.0 187.08994708994712,80.63492063492065 187.30158730158732,81.26984126984128 187.51322751322752,81.90476190476191 187.72486772486775,82.53968253968254 187.93650793650795,83.17460317460318 188.14814814814815,83.80952380952381 188.35978835978838,84.44444444444446 188.57142857142858,85.07936507936509 188.78306878306879,85.71428571428572 188.78306878306879,86.34920634920636 188.99470899470901,86.98412698412699 189.20634920634922,87.61904761904762 189.20634920634922,88.25396825396827 189.62962962962965,88.8888888888889 189.62962962962965,89.52380952380953 190.47619047619048,92.69841269841271" style="fill:none; stroke:#999900; stroke-width:1.0"  /><polyline points="190.47619047619048,92.69841269841271 187.08994708994712,93.75661375661376 186.45502645502646,93.96825396825398 185.82010582010582,93.96825396825398 185.1851851851852,94.39153439153439 184.55026455026456,94.39153439153439 183.91534391534393,94.60317460317461 183.2804232804233,94.81481481481482 182.64550264550266,94.81481481481482 182.01058201058203,95.23809523809524 181.3756613756614,95.44973544973546 180.74074074074076,95.44973544973546 180.10582010582013,95.87301587301587 179.4708994708995,95.87301587301587 178.83597883597884,96.08465608465609 178.2010582010582,96.2962962962963 177.56613756613757,96.50793650793652 176.93121693121694,96.71957671957672 176.2962962962963,96.93121693121694 175.66137566137567,96.93121693121694 175.02645502645504,97.14285714285715 174.3915343915344,97.35449735449737 173.75661375661377,97.56613756613757 173.12169312169314,97.56613756613757 172.4867724867725,97.77777777777779 171.85185185185188,97.989417989418 171.21693121693124,98.2010582010582 170.58201058201058,98.2010582010582 169.94708994708995,98.41269841269842 169.31216931216932,98.62433862433863 168.67724867724868,98.62433862433863 168.04232804232805,98.83597883597885 167.40740740740742,99.04761904761905 166.7724867724868,99.25925925925927 166.13756613756615,99.25925925925927 165.50264550264552,99.47089947089948 164.8677248677249,99.47089947089948 164.23280423280426,99.68253968253968 163.59788359788362,99.8941798941799 162.96296296296296,99.8941798941799 162.32804232804233,99.8941798941799 161.6931216931217,100.10582010582011 161.05820105820106,100.31746031746033 160.42328042328043,100.31746031746033 159.7883597883598,100.31746031746033 159.15343915343917,100.52910052910053 158.51851851851853,100.52910052910053 157.8835978835979,100.74074074074075 157.24867724867727,100.74074074074075 156.61375661375664,101.16402116402116 155.978835978836,101.16402116402116 155.34391534391534,101.16402116402116 154.7089947089947,101.16402116402116 154.07407407407408,101.37566137566138 153.43915343915344,101.37566137566138 152.8042328042328,101.37566137566138 152.16931216931218,101.5873015873016 151.53439153439155,101.5873015873016 150.8994708994709,101.5873015873016 150.26455026455028,101.5873015873016 149.62962962962965,101.5873015873016 148.99470899470901,101.79894179894181 148.35978835978838,101.79894179894181 147.72486772486775,101.79894179894181 147.0899470899471,101.79894179894181 146.45502645502646,101.79894179894181 145.82010582010582,101.79894179894181 145.1851851851852,101.79894179894181 144.55026455026456,101.79894179894181 143.91534391534393,101.79894179894181 143.2804232804233,101.79894179894181 142.64550264550266,101.79894179894181 142.01058201058203,101.79894179894181 141.3756613756614,101.79894179894181 140.74074074074076,101.79894179894181 140.10582010582013,101.79894179894181 139.47089947089947,101.79894179894181 138.83597883597884,101.79894179894181 138.2010582010582,101.79894179894181 137.56613756613757,101.5873015873016 136.93121693121694,101.5873015873016 136.2962962962963,101.5873015873016 135.66137566137567,101.5873015873016 135.02645502645504,101.5873015873016 134.3915343915344,101.5873015873016 133.75661375661377,101.79894179894181 133.12169312169314,101.79894179894181 132.4867724867725,101.79894179894181 131.85185185185185,102.01058201058201 131.21693121693121,102.01058201058201 130.58201058201058,102.22222222222223 129.94708994708995,102.64550264550266 129.31216931216932,102.85714285714286 128.67724867724868,103.06878306878308 128.04232804232805,103.4920634920635 127.40740740740742,103.91534391534393 126.98412698412699,104.33862433862434 126.56084656084657,104.76190476190477 126.13756613756615,105.3968253968254 125.71428571428572,106.03174603174604 125.5026455026455,106.66666666666667 125.2910052910053,107.3015873015873 125.07936507936509,107.93650793650795 125.07936507936509,108.57142857142858 125.07936507936509,109.20634920634922 125.07936507936509,109.84126984126985 125.07936507936509,110.47619047619048 125.07936507936509,111.11111111111111 125.07936507936509,111.74603174603176 125.2910052910053,112.3809523809524 125.5026455026455,113.01587301587303 125.92592592592594,113.65079365079366 126.13756613756615,114.28571428571429 126.56084656084657,114.92063492063492 126.77248677248679,115.55555555555557 127.1957671957672,115.97883597883599 127.61904761904763,116.61375661375662 128.04232804232805,117.24867724867725 128.46560846560848,117.88359788359789 128.88888888888889,118.51851851851853 129.31216931216932,119.15343915343917 129.52380952380955,119.7883597883598 129.94708994708995,120.21164021164022 130.37037037037038,120.84656084656086 130.58201058201058,121.4814814814815 131.005291005291,121.90476190476191 131.21693121693121,122.53968253968254 131.42857142857144,123.17460317460318 131.85185185185185,123.80952380952382 132.27513227513228,124.23280423280424 132.4867724867725,124.86772486772487 132.6984126984127,125.5026455026455 132.9100529100529,126.13756613756615 133.12169312169314,126.77248677248679 133.33333333333334,127.40740740740742 133.54497354497354,128.04232804232805 133.75661375661377,128.67724867724868 133.75661375661377,129.31216931216932 133.96825396825398,129.94708994708995 134.17989417989418,130.58201058201058 134.17989417989418,131.21693121693121 134.3915343915344,131.85185185185185 134.3915343915344,132.4867724867725 134.3915343915344,133.12169312169314 134.3915343915344,133.75661375661377 134.3915343915344,134.3915343915344 134.3915343915344,135.02645502645504 134.3915343915344,135.66137566137567 134.17989417989418,136.2962962962963 133.96825396825398,136.93121693121694 133.75661375661377,137.56613756613757 133.33333333333334,138.2010582010582 132.9100529100529,138.83597883597884 132.4867724867725,139.47089947089947 132.06349206349208,139.8941798941799 131.64021164021165,140.52910052910053 131.21693121693121,140.95238095238096 130.7936507936508,141.3756613756614 130.37037037037038,141.7989417989418 129.94708994708995,142.43386243386246 129.31216931216932,142.85714285714286 128.88888888888889,143.2804232804233 128.46560846560848,143.70370370370372 127.83068783068784,144.12698412698413 127.40740740740742,144.55026455026456 126.77248677248679,144.973544973545 126.13756613756615,145.39682539682542 125.5026455026455,145.60846560846562 124.86772486772487,145.82010582010582 124.23280423280424,146.24338624338625 123.59788359788361,146.45502645502646 122.96296296296298,146.66666666666669 122.32804232804234,147.0899470899471 121.6931216931217,147.30158730158732 121.05820105820106,147.51322751322752 120.42328042328043,147.72486772486775 119.7883597883598,147.72486772486775 119.15343915343917,147.93650793650795 118.51851851851853,147.93650793650795 117.88359788359789,148.14814814814815 117.24867724867725,148.14814814814815 116.61375661375662,148.14814814814815 115.97883597883599,148.14814814814815 115.34391534391536,148.14814814814815 114.70899470899472,148.14814814814815 114.07407407407408,148.14814814814815 113.43915343915344,147.93650793650795 112.80423280423281,147.93650793650795 112.16931216931218,147.93650793650795 111.53439153439155,147.72486772486775 110.89947089947091,147.72486772486775 110.26455026455027,147.51322751322752 109.62962962962963,147.30158730158732 108.994708994709,147.30158730158732 108.35978835978837,147.0899470899471 107.72486772486774,146.8783068783069 107.0899470899471,146.66666666666669 106.45502645502647,146.66666666666669 105.82010582010582,146.45502645502646 105.18518518518519,146.45502645502646 104.76190476190477,146.03174603174605 104.12698412698414,145.60846560846562 103.4920634920635,145.39682539682542 102.85714285714286,145.1851851851852 102.22222222222223,144.76190476190476 101.5873015873016,144.33862433862436 100.95238095238096,143.91534391534393 100.31746031746033,143.4920634920635 99.68253968253968,143.0687830687831 99.25925925925927,142.64550264550266 98.62433862433863,142.22222222222223 98.2010582010582,141.7989417989418 97.77777777777779,141.3756613756614 97.35449735449737,140.74074074074076 96.93121693121694,140.31746031746033 96.50793650793652,139.6825396825397 96.08465608465609,139.25925925925927 95.87301587301587,138.62433862433863 95.44973544973546,137.989417989418 95.44973544973546,137.35449735449737 95.23809523809524,136.71957671957674 95.02645502645504,136.0846560846561 95.02645502645504,135.44973544973547 95.02645502645504,134.81481481481484 95.02645502645504,134.17989417989418 94.81481481481482,133.54497354497354 95.02645502645504,132.9100529100529 95.02645502645504,132.27513227513228 95.02645502645504,131.64021164021165 95.23809523809524,131.005291005291 95.23809523809524,130.37037037037038 95.44973544973546,129.73544973544975 95.66137566137567,129.10052910052912 95.87301587301587,128.46560846560848 96.08465608465609,127.83068783068784 96.2962962962963,127.1957671957672 96.71957671957672,126.56084656084657 96.93121693121694,125.92592592592594 97.35449735449737,125.2910052910053 97.56613756613757,124.65608465608466 97.77777777777779,124.02116402116403 97.989417989418,123.3862433862434 98.41269841269842,122.96296296296298 98.62433862433863,122.32804232804234 99.04761904761905,121.6931216931217 99.25925925925927,121.05820105820106 99.68253968253968,120.63492063492065 99.8941798941799,120.00000000000001 100.31746031746033,119.36507936507937 100.52910052910053,118.73015873015873 100.95238095238096,118.0952380952381 101.16402116402116,117.46031746031747 101.5873015873016,117.03703703703705 101.79894179894181,116.4021164021164 102.22222222222223,115.76719576719577 102.43386243386244,115.13227513227514 102.64550264550266,114.49735449735451 102.85714285714286,113.86243386243387 103.06878306878308,113.22751322751324 103.28042328042329,112.5925925925926 103.4920634920635,111.95767195767196 103.4920634920635,111.32275132275133 103.4920634920635,110.6878306878307 103.28042328042329,110.05291005291006 103.28042328042329,109.41798941798943 103.06878306878308,108.78306878306879 102.85714285714286,108.14814814814815 102.43386243386244,107.51322751322752 102.01058201058201,106.87830687830689 101.5873015873016,106.45502645502647 101.16402116402116,106.03174603174604 100.74074074074075,105.60846560846562 100.10582010582011,105.18518518518519 99.47089947089948,104.76190476190477 98.83597883597885,104.55026455026456 98.2010582010582,104.12698412698414 97.56613756613757,104.12698412698414 96.93121693121694,103.91534391534393 96.2962962962963,103.91534391534393 95.66137566137567,103.91534391534393 95.02645502645504,103.91534391534393 94.39153439153439,103.91534391534393 93.75661375661376,103.91534391534393 93.12169312169313,103.91534391534393 92.4867724867725,104.12698412698414 91.85185185185186,104.12698412698414 91.21693121693123,104.33862433862434 90.58201058201058,104.33862433862434 89.94708994708995,104.55026455026456 89.31216931216932,104.55026455026456 88.67724867724868,104.55026455026456 88.04232804232805,104.76190476190477 87.40740740740742,104.97354497354497 86.77248677248677,105.18518518518519 86.13756613756614,105.3968253968254 85.5026455026455,105.60846560846562 84.86772486772487,105.82010582010582 84.23280423280424,105.82010582010582 83.59788359788361,106.03174603174604 82.96296296296298,106.24338624338625 82.32804232804233,106.45502645502647 81.6931216931217,106.45502645502647 81.05820105820106,106.66666666666667 80.42328042328043,106.87830687830689 79.7883597883598,107.0899470899471 79.15343915343917,107.3015873015873 78.51851851851852,107.3015873015873 77.88359788359789,107.51322751322752 77.24867724867725,107.72486772486774 76.61375661375662,107.93650793650795 75.97883597883599,108.14814814814815 75.34391534391536,108.35978835978837 74.70899470899471,108.57142857142858 74.07407407407408,108.78306878306879 73.43915343915344,109.20634920634922 72.80423280423281,109.41798941798943 72.16931216931218,109.62962962962963 71.53439153439155,109.84126984126985 70.8994708994709,110.05291005291006 70.26455026455027,110.47619047619048 69.62962962962963,110.6878306878307 68.994708994709,110.89947089947091 68.35978835978837,111.32275132275133 67.72486772486774,111.53439153439155 67.08994708994709,111.95767195767196 66.45502645502646,112.16931216931218 65.82010582010582,112.3809523809524 65.18518518518519,112.80423280423281 64.55026455026456,113.01587301587303 63.91534391534392,113.43915343915344 63.280423280423285,113.86243386243387 62.64550264550265,114.28571428571429 62.01058201058201,114.49735449735451 61.58730158730159,114.92063492063492 60.952380952380956,115.13227513227514 60.52910052910053,115.55555555555557 59.8941798941799,115.97883597883599 59.25925925925927,116.1904761904762 58.83597883597884,116.61375661375662 56.08465608465609,118.30687830687832" style="fill:none; stroke:#00aa99; stroke-width:1.0"  /><polyline points="56.08465608465609,118.30687830687832 54.81481481481482,114.70899470899472 54.39153439153439,114.07407407407408 54.179894179894184,113.43915343915344 53.968253968253975,112.80423280423281 53.75661375661376,112.16931216931218 53.54497354497355,111.53439153439155 53.333333333333336,110.89947089947091 53.12169312169313,110.26455026455027 52.91005291005291,109.62962962962963 52.6984126984127,108.994708994709 52.48677248677249,108.35978835978837 52.27513227513228,107.72486772486774 52.06349206349207,107.0899470899471 51.851851851851855,106.45502645502647 51.640211640211646,105.82010582010582 51.42857142857143,105.18518518518519 51.21693121693122,104.55026455026456 51.00529100529101,103.91534391534393 50.7936507936508,103.28042328042329 50.58201058201058,102.64550264550266 50.370370370370374,102.01058201058201 50.158730158730165,101.37566137566138 49.94708994708995,100.74074074074075 49.73544973544974,100.10582010582011 49.523809523809526,99.47089947089948 49.31216931216932,98.83597883597885 49.31216931216932,98.2010582010582 49.1005291005291,97.56613756613757 48.88888888888889,96.93121693121694 48.677248677248684,96.2962962962963 48.46560846560847,95.66137566137567 48.25396825396826,95.02645502645504 48.042328042328045,94.39153439153439 47.830687830687836,93.75661375661376 47.61904761904762,93.12169312169313 47.61904761904762,92.4867724867725 47.40740740740741,91.85185185185186 47.195767195767196,91.21693121693123 46.98412698412699,90.58201058201058 46.98412698412699,89.94708994708995 46.560846560846564,89.31216931216932 46.349206349206355,88.67724867724868 46.13756613756614,88.04232804232805 45.92592592592593,87.40740740740742 45.714285714285715,86.77248677248677 45.50264550264551,86.13756613756614 45.29100529100529,85.5026455026455 45.07936507936508,84.86772486772487 45.07936507936508,84.23280423280424 44.867724867724874,83.59788359788361 44.44444444444445,82.96296296296298 44.232804232804234,82.32804232804233 44.021164021164026,81.6931216931217 43.5978835978836,81.26984126984128 43.17460317460318,80.84656084656085 42.75132275132275,80.42328042328043 42.11640211640212,80.0 41.6931216931217,79.57671957671958 41.058201058201064,79.36507936507937 40.423280423280424,78.94179894179895 39.78835978835979,78.94179894179895 39.15343915343916,78.73015873015873 38.51851851851852,78.73015873015873 37.883597883597886,78.73015873015873 37.248677248677254,78.94179894179895 36.613756613756614,78.94179894179895 35.97883597883598,79.15343915343917 35.55555555555556,79.57671957671958 34.920634920634924,79.57671957671958 34.4973544973545,80.0 34.074074074074076,80.42328042328043 33.43915343915344,80.84656084656085 33.01587301587302,81.26984126984128 32.592592592592595,81.6931216931217 32.16931216931217,82.32804232804233 31.746031746031747,82.75132275132276 31.322751322751326,83.3862433862434 30.899470899470902,84.02116402116403 30.476190476190478,84.65608465608466 30.052910052910054,85.29100529100529 29.629629629629633,85.92592592592594 29.20634920634921,86.56084656084657 28.783068783068785,87.1957671957672 28.35978835978836,87.83068783068784 27.93650793650794,88.25396825396827 27.513227513227516,88.8888888888889 27.089947089947092,89.31216931216932 26.666666666666668,89.94708994708995 26.243386243386244,90.37037037037038 25.60846560846561,90.58201058201058 25.185185185185187,91.00529100529101 24.55026455026455,91.21693121693123 23.915343915343918,91.42857142857143 23.280423280423282,91.64021164021165 22.645502645502646,91.85185185185186 22.010582010582013,91.85185185185186 21.375661375661377,91.85185185185186 20.740740740740744,91.85185185185186 20.105820105820108,91.85185185185186 19.47089947089947,91.85185185185186 18.83597883597884,91.85185185185186 18.201058201058203,91.64021164021165 17.566137566137566,91.64021164021165 16.931216931216934,91.64021164021165 16.296296296296298,91.64021164021165 15.661375661375663,91.64021164021165 15.026455026455027,91.42857142857143 14.391534391534393,91.21693121693123 13.756613756613758,90.7936507936508 13.121693121693122,90.58201058201058 12.486772486772487,90.37037037037038 12.063492063492065,89.94708994708995 11.428571428571429,89.52380952380953 10.793650793650794,89.31216931216932 10.15873015873016,88.8888888888889 9.735449735449736,88.46560846560847 9.100529100529101,88.04232804232805 8.677248677248677,87.61904761904762 8.253968253968255,87.1957671957672 7.830687830687832,86.77248677248677 7.407407407407408,86.34920634920636 6.984126984126985,85.92592592592594 6.560846560846561,85.29100529100529 6.137566137566138,84.86772486772487 5.714285714285714,84.44444444444446 5.291005291005291,83.80952380952381 4.867724867724868,83.17460317460318 4.444444444444445,82.53968253968254 4.021164021164021,82.11640211640213 3.8095238095238098,81.48148148148148 3.3862433862433865,80.84656084656085 2.9629629629629632,80.21164021164022 2.7513227513227516,79.57671957671958 2.3280423280423284,78.94179894179895 2.1164021164021167,78.30687830687832 1.9047619047619049,77.67195767195767 1.6931216931216932,77.03703703703704 1.4814814814814816,76.4021164021164 1.26984126984127,75.76719576719577 1.0582010582010584,75.13227513227514 0.8465608465608466,74.49735449735451 0.634920634920635,73.86243386243387 0.4232804232804233,73.22751322751323 0.4232804232804233,72.5925925925926 0.4232804232804233,71.95767195767196 0.21164021164021166,71.32275132275133 0.21164021164021166,70.6878306878307 0.21164021164021166,70.05291005291006 0.21164021164021166,69.41798941798942 0.21164021164021166,68.78306878306879 0.21164021164021166,68.14814814814815 0.21164021164021166,67.51322751322752 0.4232804232804233,66.87830687830689 0.4232804232804233,66.24338624338625 0.4232804232804233,65.60846560846561 0.634920634920635,64.97354497354497 0.8465608465608466,64.33862433862434 1.0582010582010584,63.70370370370371 1.0582010582010584,63.06878306878308 1.26984126984127,62.43386243386244 1.4814814814814816,61.798941798941804 1.6931216931216932,61.16402116402117 1.6931216931216932,60.52910052910053 1.9047619047619049,59.8941798941799 2.1164021164021167,59.25925925925927 2.3280423280423284,58.62433862433863 2.7513227513227516,57.989417989417994 2.9629629629629632,57.35449735449736 3.174603174603175,56.71957671957672 3.597883597883598,56.08465608465609 3.8095238095238098,55.449735449735456 4.2328042328042335,55.02645502645503 4.444444444444445,54.39153439153439 4.867724867724868,53.968253968253975 5.502645502645503,53.54497354497355 5.9259259259259265,53.12169312169313 6.560846560846561,52.91005291005291 6.984126984126985,52.48677248677249 7.6190476190476195,52.27513227513228 8.253968253968255,51.851851851851855 8.88888888888889,51.851851851851855 9.312169312169313,51.42857142857143 9.947089947089948,51.42857142857143 10.582010582010582,51.00529100529101 11.005291005291006,51.42857142857143 11.640211640211641,51.00529100529101 12.275132275132275,50.7936507936508 12.910052910052912,50.7936507936508 13.544973544973546,50.7936507936508 14.17989417989418,50.7936507936508 14.814814814814817,50.7936507936508 15.449735449735451,51.21693121693122 16.084656084656086,51.00529100529101 16.71957671957672,51.00529100529101 17.354497354497354,50.7936507936508 17.98941798941799,50.7936507936508 18.624338624338627,51.21693121693122 19.25925925925926,51.42857142857143 19.894179894179896,51.42857142857143 20.529100529100532,51.851851851851855 21.164021164021165,51.640211640211646 21.7989417989418,51.851851851851855 22.433862433862437,51.640211640211646 23.06878306878307,51.640211640211646 23.703703703703706,51.851851851851855 24.338624338624342,51.42857142857143 24.973544973544975,51.00529100529101 25.60846560846561,50.7936507936508 26.243386243386244,50.370370370370374 26.666666666666668,49.94708994708995 27.089947089947092,49.523809523809526 27.513227513227516,48.88888888888889 27.93650793650794,48.46560846560847 28.14814814814815,47.830687830687836 28.35978835978836,47.195767195767196 28.571428571428573,46.560846560846564 28.783068783068785,45.92592592592593 28.783068783068785,45.29100529100529 28.783068783068785,44.65608465608466 28.783068783068785,44.021164021164026 28.571428571428573,43.386243386243386 28.35978835978836,42.75132275132275 28.14814814814815,42.11640211640212 27.93650793650794,41.48148148148149 27.724867724867728,40.84656084656085 27.301587301587304,40.211640211640216 27.089947089947092,39.57671957671958 26.666666666666668,38.94179894179894 26.455026455026456,38.30687830687831 26.031746031746035,37.67195767195768 25.820105820105823,37.03703703703704 25.60846560846561,36.402116402116405 25.185185185185187,35.76719576719577 24.973544973544975,35.13227513227513 24.55026455026455,34.4973544973545 24.338624338624342,33.86243386243387 23.915343915343918,33.22751322751323 23.492063492063494,32.592592592592595 23.280423280423282,31.95767195767196 22.857142857142858,31.322751322751326 22.645502645502646,30.68783068783069 22.433862433862437,30.052910052910054 22.010582010582013,29.41798941798942 21.7989417989418,28.783068783068785 21.375661375661377,28.14814814814815 21.164021164021165,27.513227513227516 20.740740740740744,26.87830687830688 20.529100529100532,26.243386243386244 20.31746031746032,25.60846560846561 19.894179894179896,24.973544973544975 19.682539682539684,24.338624338624342 19.25925925925926,23.703703703703706 19.047619047619047,23.06878306878307 18.624338624338627,22.645502645502646 18.412698412698415,22.010582010582013 17.98941798941799,21.375661375661377 17.77777777777778,20.740740740740744 17.354497354497354,20.105820105820108 16.931216931216934,19.47089947089947 16.50793650793651,19.047619047619047 16.084656084656086,18.412698412698415 15.873015873015873,17.77777777777778 15.449735449735451,17.142857142857146 15.238095238095239,16.50793650793651 14.814814814814817,16.084656084656086 14.603174603174605,15.449735449735451 14.17989417989418,14.814814814814817 13.756613756613758,14.17989417989418 13.333333333333334,13.544973544973546 13.121693121693122,12.910052910052912 12.6984126984127,12.486772486772487 12.486772486772487,11.851851851851853 12.063492063492065,11.428571428571429 10.15873015873016,8.042328042328043" style="fill:none; stroke:#3300bb; stroke-width:1.0"  /><circle cx="10.15873015873016" cy="8.042328042328043" r="2.0" style="fill:none; stroke:#000000aa; stroke-width:0.25" /><circle cx="161.90476190476193" cy="-0.21164021164021166" r="2.0" style="fill:none; stroke:#000000aa; stroke-width:0.25" /><circle cx="190.47619047619048" cy="92.69841269841271" r="2.0" style="fill:none; stroke:#000000aa; stroke-width:0.25" /><circle cx="56.08465608465609" cy="118.30687830687832" r="2.0" style="fill:none; stroke:#000000aa; stroke-width:0.25" /><circle cx="10.582010582010582" cy="8.253968253968255" r="2.0" style="fill:none; stroke:#ff3366aa; stroke-width:0.25" /><circle cx="162.53968253968256" cy="0.4232804232804233" r="2.0" style="fill:none; stroke:#ff3366aa; stroke-width:0.25" /><circle cx="190.05291005291008" cy="92.4867724867725" r="2.0" style="fill:none; stroke:#ff3366aa; stroke-width:0.25" /><circle cx="56.08465608465609" cy="117.88359788359789" r="2.0" style="fill:none; stroke:#ff3366aa; stroke-width:0.25" /><polyline points="22.010582010582013,6.137566137566138 21.375661375661377,6.34920634920635 20.740740740740744,6.34920634920635 20.105820105820108,6.34920634920635 19.47089947089947,6.34920634920635 18.83597883597884,6.560846560846561 18.201058201058203,6.560846560846561 17.566137566137566,6.772486772486773 16.931216931216934,6.984126984126985 16.296296296296298,6.984126984126985 15.661375661375663,6.984126984126985 15.026455026455027,7.195767195767196 14.391534391534393,7.407407407407408 13.756613756613758,7.407407407407408" style="fill:none; stroke:#001100; stroke-width:1.0" /><polyline points="16.084656084656086,18.412698412698415 15.873015873015873,17.77777777777778 15.449735449735451,17.142857142857146 15.238095238095239,16.50793650793651 14.814814814814817,16.084656084656086 14.603174603174605,15.449735449735451 14.17989417989418,14.814814814814817 13.756613756613758,14.17989417989418 13.333333333333334,13.544973544973546 13.121693121693122,12.910052910052912 12.6984126984127,12.486772486772487 12.486772486772487,11.851851851851853 12.063492063492065,11.428571428571429" style="fill:none; stroke:#000011; stroke-width:1.0" /><polyline points="166.984126984127,11.216931216931219 166.56084656084658,10.582010582010582 166.34920634920636,9.947089947089948 165.92592592592595,9.312169312169313 165.71428571428572,8.677248677248677 165.50264550264552,8.042328042328043 165.0793650793651,7.407407407407408 164.8677248677249,6.772486772486773 164.65608465608466,6.137566137566138 164.23280423280426,5.502645502645503 164.02116402116403,4.867724867724868 163.80952380952382,4.2328042328042335 163.59788359788362,3.597883597883598" style="fill:none; stroke:#001100; stroke-width:1.0" /><polyline points="151.53439153439155,3.174603174603175 152.16931216931218,3.174603174603175 152.8042328042328,2.9629629629629632 153.43915343915344,2.7513227513227516 154.07407407407408,2.53968253968254 154.7089947089947,2.53968253968254 155.34391534391534,2.3280423280423284 155.978835978836,2.1164021164021167 156.61375661375664,1.9047619047619049 157.03703703703704,1.4814814814814816 157.67195767195767,1.26984126984127 158.30687830687833,1.0582010582010584 158.94179894179896,0.8465608465608466 159.5767195767196,0.634920634920635" style="fill:none; stroke:#000011; stroke-width:1.0" /><polyline points="178.83597883597884,96.08465608465609 179.4708994708995,95.87301587301587 180.10582010582013,95.87301587301587 180.74074074074076,95.44973544973546 181.3756613756614,95.44973544973546 182.01058201058203,95.23809523809524 182.64550264550266,94.81481481481482 183.2804232804233,94.81481481481482 183.91534391534393,94.60317460317461 184.55026455026456,94.39153439153439 185.1851851851852,94.39153439153439 185.82010582010582,93.96825396825398 186.45502645502646,93.96825396825398 187.08994708994712,93.75661375661376" style="fill:none; stroke:#001100; stroke-width:1.0" /><polyline points="187.30158730158732,81.26984126984128 187.51322751322752,81.90476190476191 187.72486772486775,82.53968253968254 187.93650793650795,83.17460317460318 188.14814814814815,83.80952380952381 188.35978835978838,84.44444444444446 188.57142857142858,85.07936507936509 188.78306878306879,85.71428571428572 188.78306878306879,86.34920634920636 188.99470899470901,86.98412698412699 189.20634920634922,87.61904761904762 189.20634920634922,88.25396825396827 189.62962962962965,88.8888888888889 189.62962962962965,89.52380952380953" style="fill:none; stroke:#000011; stroke-width:1.0" /><polyline points="52.06349206349207,107.0899470899471 52.27513227513228,107.72486772486774 52.48677248677249,108.35978835978837 52.6984126984127,108.994708994709 52.91005291005291,109.62962962962963 53.12169312169313,110.26455026455027 53.333333333333336,110.89947089947091 53.54497354497355,111.53439153439155 53.75661375661376,112.16931216931218 53.968253968253975,112.80423280423281 54.179894179894184,113.43915343915344 54.39153439153439,114.07407407407408 54.81481481481482,114.70899470899472" style="fill:none; stroke:#001100; stroke-width:1.0" /><polyline points="66.45502645502646,112.16931216931218 65.82010582010582,112.3809523809524 65.18518518518519,112.80423280423281 64.55026455026456,113.01587301587303 63.91534391534392,113.43915343915344 63.280423280423285,113.86243386243387 62.64550264550265,114.28571428571429 62.01058201058201,114.49735449735451 61.58730158730159,114.92063492063492 60.952380952380956,115.13227513227514 60.52910052910053,115.55555555555557 59.8941798941799,115.97883597883599 59.25925925925927,116.1904761904762 58.83597883597884,116.61375661375662" style="fill:none; stroke:#000011; stroke-width:1.0" /><polyline points="13.756613756613758,7.407407407407408 -7.195767195767196,10.582010582010582" style="fill:none; stroke:#ffaa00; stroke-width:0.4" /><polyline points="12.063492063492065,11.428571428571429 1.4814814814814816,-6.984126984126985" style="fill:none; stroke:#aaff00; stroke-width:0.4" /><polyline points="163.59788359788362,3.597883597883598 154.92063492063494,-15.661375661375663" style="fill:none; stroke:#ffaa00; stroke-width:0.4" /><polyline points="159.5767195767196,0.634920634920635 179.6825396825397,-5.714285714285714" style="fill:none; stroke:#aaff00; stroke-width:0.4" /><polyline points="187.08994708994712,93.75661375661376 207.40740740740742,88.04232804232805" style="fill:none; stroke:#ffaa00; stroke-width:0.4" /><polyline points="189.62962962962965,89.52380952380953 195.34391534391537,109.84126984126985" style="fill:none; stroke:#aaff00; stroke-width:0.4" /><polyline points="54.81481481481482,114.70899470899472 62.01058201058201,134.6031746031746" style="fill:none; stroke:#ffaa00; stroke-width:0.4" /><polyline points="58.83597883597884,116.61375661375662 40.63492063492064,127.1957671957672" style="fill:none; stroke:#aaff00; stroke-width:0.4" /><circle cx="95.02645502645504" cy="65.3968253968254" r="1.0" style="fill:#444444; stroke-width:0" /><circle cx="113.65079365079366" cy="73.65079365079366" r="10.582010582010582" style="fill:#ff770022; stroke-width:0" /><circle cx="113.65079365079366" cy="73.65079365079366" r="1.0" style="fill:#ff7700; stroke-width:0" /></svg>