<?xml version="1.0" encoding="UTF-8" standalone="no"?><svg width="514.2857142857143" height="610.1587301587302" viewBox="-10 -10 191.42857142857144 223.3862433862434" xmlns="http://www.w3.org/2000/svg" xmlns:xlink="http://www.w3.org/1999/xlink"><polyline points="12.063492063492065,30.68783068783069 15.873015873015873,30.476190476190478 16.50793650793651,30.476190476190478 17.142857142857146,30.476190476190478 17.77777777777778,30.476190476190478 18.412698412698415,30.476190476190478 19.047619047619047,30.264550264550266 19.682539682539684,30.264550264550266 20.31746031746032,30.264550264550266 20.952380952380953,30.264550264550266 21.58730158730159,30.264550264550266 22.222222222222225,30.264550264550266 22.857142857142858,30.264550264550266 23.492063492063494,30.264550264550266 24.12698412698413,30.052910052910054 24.761904761904763,30.052910052910054 25.3968253968254,30.052910052910054 26.031746031746035,30.264550264550266 26.666666666666668,30.264550264550266 27.301587301587304,30.052910052910054 27.93650793650794,29.841269841269842 28.571428571428573,30.052910052910054 29.20634920634921,30.052910052910054 29.841269841269842,30.052910052910054 30.476190476190478,30.052910052910054 31.111111111111114,30.052910052910054 31.746031746031747,30.052910052910054 32.38095238095239,30.052910052910054 33.01587301587302,30.052910052910054 33.65079365079365,30.052910052910054 34.28571428571429,30.264550264550266 34.920634920634924,30.264550264550266 35.55555555555556,30.264550264550266 36.19047619047619,30.476190476190478 36.82539682539683,30.476190476190478 37.46031746031746,30.476190476190478 38.095238095238095,30.476190476190478 38.730158730158735,30.68783068783069 39.36507936507937,30.68783068783069 40.0,30.68783068783069 40.63492063492064,30.899470899470902 41.26984126984127,30.899470899470902 41.904761904761905,31.111111111111114 42.539682539682545,31.111111111111114 43.17460317460318,31.111111111111114 43.80952380952381,31.53439153439154 44.44444444444445,31.53439153439154 45.07936507936508,31.53439153439154 45.714285714285715,31.746031746031747 46.349206349206355,31.746031746031747 46.98412698412699,31.95767195767196 47.61904761904762,32.16931216931217 48.25396825396826,32.38095238095239 48.88888888888889,32.38095238095239 49.523809523809526,32.592592592592595 50.158730158730165,32.592592592592595 50.7936507936508,32.804232804232804 51.42857142857143,33.01587301587302 52.06349206349207,33.22751322751323 52.6984126984127,33.22751322751323 53.333333333333336,33.43915343915344 53.968253968253975,33.65079365079365 54.60317460317461,33.65079365079365 55.23809523809524,33.86243386243387 55.87301587301588,34.074074074074076 56.50793650793651,34.074074074074076 57.142857142857146,34.28571428571429 57.777777777777786,34.4973544973545 58.41269841269842,34.70899470899471 59.04761904761905,34.70899470899471 59.682539682539684,34.920634920634924 60.31746031746032,35.13227513227513 60.952380952380956,35.34391534391535 61.58730158730159,35.34391534391535 62.22222222222223,35.34391534391535 62.85714285714286,35.55555555555556 63.492063492063494,35.76719576719577 64.12698412698413,35.76719576719577 64.76190476190477,35.97883597883598 65.3968253968254,36.19047619047619 66.03174603174604,36.402116402116405 66.66666666666667,36.402116402116405 67.3015873015873,36.613756613756614 67.93650793650794,36.82539682539683 68.57142857142858,36.82539682539683 69.20634920634922,37.03703703703704 69.84126984126985,37.248677248677254 70.47619047619048,37.46031746031746 71.11111111111111,37.67195767195768 71.74603174603175,37.883597883597886 72.38095238095238,38.095238095238095 73.01587301587303,38.30687830687831 73.65079365079366,38.30687830687831 74.28571428571429,38.51851851851852 74.92063492063492,38.51851851851852 75.55555555555556,38.51851851851852 76.19047619047619,38.51851851851852 76.82539682539684,38.730158730158735 77.46031746031747,38.730158730158735 78.0952380952381,38.51851851851852 78.73015873015873,38.51851851851852 79.36507936507937,38.30687830687831 80.0,38.095238095238095 80.63492063492065,37.67195767195768 81.26984126984128,37.248677248677254 81.90476190476191,36.82539682539683 82.32804232804233,36.19047619047619 82.75132275132276,35.76719576719577 83.17460317460318,35.13227513227513 83.17460317460318,34.4973544973545 83.3862433862434,33.86243386243387 83.59788359788361,33.22751322751323 83.59788359788361,32.592592592592595 83.80952380952381,31.95767195767196 83.80952380952381,31.322751322751326 83.80952380952381,30.68783068783069 83.59788359788361,30.052910052910054 83.59788359788361,29.41798941798942 83.3862433862434,28.783068783068785 83.3862433862434,28.14814814814815 83.3862433862434,27.513227513227516 83.17460317460318,26.87830687830688 82.96296296296298,26.243386243386244 82.96296296296298,25.60846560846561 82.75132275132276,24.973544973544975 82.53968253968254,24.338624338624342 82.32804232804233,23.703703703703706 82.32804232804233,23.06878306878307 82.11640211640213,22.433862433862437 81.90476190476191,21.7989417989418 81.90476190476191,21.164021164021165 81.6931216931217,20.529100529100532 81.48148148148148,19.894179894179896 81.26984126984128,19.25925925925926 81.26984126984128,18.624338624338627 81.26984126984128,17.98941798941799 81.05820105820106,17.354497354497354 81.05820105820106,16.71957671957672 81.05820105820106,16.084656084656086 80.84656084656085,15.449735449735451 80.84656084656085,14.814814814814817 80.84656084656085,14.17989417989418 81.05820105820106,13.544973544973546 81.05820105820106,12.910052910052912 81.05820105820106,12.275132275132275 81.05820105820106,11.640211640211641 81.26984126984128,11.005291005291006 81.26984126984128,10.370370370370372 81.26984126984128,9.735449735449736 81.48148148148148,9.100529100529101 81.6931216931217,8.465608465608467 81.90476190476191,7.830687830687832 82.11640211640213,7.195767195767196 82.32804232804233,6.560846560846561 82.53968253968254,5.9259259259259265 82.75132275132276,5.291005291005291 82.96296296296298,4.656084656084657 83.3862433862434,4.021164021164021 83.80952380952381,3.3862433862433865 84.23280423280424,2.9629629629629632 84.65608465608466,2.53968253968254 85.07936507936509,2.1164021164021167 85.71428571428572,1.6931216931216932 86.34920634920636,1.4814814814814816 86.98412698412699,1.26984126984127 87.40740740740742,0.8465608465608466 88.04232804232805,0.634920634920635 88.67724867724868,0.634920634920635 89.31216931216932,0.4232804232804233 89.94708994708995,0.4232804232804233 90.58201058201058,0.21164021164021166 91.21693121693123,0.21164021164021166 91.85185185185186,0.4232804232804233 92.4867724867725,0.4232804232804233 93.12169312169313,0.4232804232804233 93.75661375661376,0.4232804232804233 94.39153439153439,0.634920634920635 95.02645502645504,0.634920634920635 95.66137566137567,0.8465608465608466 96.2962962962963,0.8465608465608466 96.93121693121694,0.8465608465608466 97.56613756613757,0.8465608465608466 98.2010582010582,1.0582010582010584 98.83597883597885,1.26984126984127 99.47089947089948,1.4814814814814816 100.10582010582011,1.6931216931216932 100.74074074074075,1.9047619047619049 101.37566137566138,1.9047619047619049 102.01058201058201,2.3280423280423284 102.64550264550266,2.53968253968254 103.28042328042329,2.7513227513227516 103.91534391534393,2.9629629629629632 104.55026455026456,3.3862433862433865 105.18518518518519,3.597883597883598 105.82010582010582,3.8095238095238098 106.24338624338625,4.2328042328042335 106.87830687830689,4.444444444444445 107.51322751322752,4.867724867724868 108.14814814814815,5.291005291005291 108.78306878306879,5.502645502645503 109.20634920634922,5.9259259259259265 109.84126984126985,6.34920634920635 110.47619047619048,6.772486772486773 111.11111111111111,7.195767195767196 111.74603174603176,7.6190476190476195 112.16931216931218,8.042328042328043 112.5925925925926,8.465608465608467 113.01587301587303,8.88888888888889 113.43915343915344,9.312169312169313 113.86243386243387,9.735449735449736 114.28571428571429,10.15873015873016 114.70899470899472,10.582010582010582 115.13227513227514,11.216931216931219 115.55555555555557,11.851851851851853 115.76719576719577,12.486772486772487 116.1904761904762,12.910052910052912 116.4021164021164,13.544973544973546 116.82539682539684,14.17989417989418 117.24867724867725,14.814814814814817 117.46031746031747,15.449735449735451 117.67195767195768,16.084656084656086 117.88359788359789,16.71957671957672 118.0952380952381,17.354497354497354 118.30687830687832,17.98941798941799 118.30687830687832,18.624338624338627 118.30687830687832,19.25925925925926 118.30687830687832,19.894179894179896 118.30687830687832,20.529100529100532 118.30687830687832,21.164021164021165 118.0952380952381,21.7989417989418 118.0952380952381,22.433862433862437 117.88359788359789,23.06878306878307 117.67195767195768,23.703703703703706 117.24867724867725,24.338624338624342 117.03703703703705,24.973544973544975 116.61375661375662,25.60846560846561 116.4021164021164,26.243386243386244 116.1904761904762,26.87830687830688 115.76719576719577,27.513227513227516 115.55555555555557,28.14814814814815 115.13227513227514,28.571428571428573 114.70899470899472,29.20634920634921 114.49735449735451,29.841269841269842 114.28571428571429,30.476190476190478 113.86243386243387,30.899470899470902 113.65079365079366,31.53439153439154 113.22751322751324,31.95767195767196 113.01587301587303,32.592592592592595 112.5925925925926,33.01587301587302 112.3809523809524,33.65079365079365 111.95767195767196,34.074074074074076 111.53439153439155,34.4973544973545 111.11111111111111,34.920634920634924 110.89947089947091,35.55555555555556 110.47619047619048,35.97883597883598 110.05291005291006,36.402116402116405 109.62962962962963,36.82539682539683 109.20634920634922,37.248677248677254 108.78306878306879,37.67195767195768 108.35978835978837,38.095238095238095 107.93650793650795,38.51851851851852 107.51322751322752,38.94179894179894 107.0899470899471,39.57671957671958 106.66666666666667,40.0 106.24338624338625,40.423280423280424 105.82010582010582,41.058201058201064 105.3968253968254,41.6931216931217 104.97354497354497,42.32804232804233 104.55026455026456,42.96296296296297 104.33862433862434,43.5978835978836 104.12698412698414,44.232804232804234 103.91534391534393,44.867724867724874 103.70370370370371,45.50264550264551 103.70370370370371,46.13756613756614 103.70370370370371,46.77248677248678 103.70370370370371,47.40740740740741 103.70370370370371,48.042328042328045 103.91534391534393,48.677248677248684 104.33862433862434,49.31216931216932 104.55026455026456,49.94708994708995 104.97354497354497,50.58201058201058 105.3968253968254,51.00529100529101 105.82010582010582,51.42857142857143 106.24338624338625,51.851851851851855 106.87830687830689,52.27513227513228 107.51322751322752,52.6984126984127 108.14814814814815,52.91005291005291 108.78306878306879,53.12169312169313 109.41798941798943,53.54497354497355 110.05291005291006,53.54497354497355 110.6878306878307,53.75661375661376 111.32275132275133,53.75661375661376 111.95767195767196,53.968253968253975 112.5925925925926,53.968253968253975 113.22751322751324,54.179894179894184 113.86243386243387,54.179894179894184 114.49735449735451,54.39153439153439 115.13227513227514,54.39153439153439 115.76719576719577,54.39153439153439 116.4021164021164,54.39153439153439 117.03703703703705,54.60317460317461 117.67195767195768,54.60317460317461 118.30687830687832,54.60317460317461 118.94179894179895,54.81481481481482 119.57671957671958,54.81481481481482 120.21164021164022,54.81481481481482 120.84656084656086,54.81481481481482 121.4814814814815,54.81481481481482 122.11640211640213,54.81481481481482 122.75132275132276,55.02645502645503 123.3862433862434,55.02645502645503 124.02116402116403,55.23809523809524 124.65608465608466,55.02645502645503 125.2910052910053,55.23809523809524 125.92592592592594,55.23809523809524 126.56084656084657,55.23809523809524 127.1957671957672,55.449735449735456 127.83068783068784,55.449735449735456 128.46560846560848,55.449735449735456 129.10052910052912,55.449735449735456 129.73544973544975,55.449735449735456 130.37037037037038,55.661375661375665 131.005291005291,55.661375661375665 131.64021164021165,55.661375661375665 132.27513227513228,55.449735449735456 132.9100529100529,55.449735449735456 133.54497354497354,55.449735449735456 134.17989417989418,55.449735449735456 134.81481481481484,55.449735449735456 135.44973544973547,55.449735449735456 136.0846560846561,55.449735449735456 136.71957671957674,55.661375661375665 137.35449735449737,55.661375661375665 137.989417989418,55.661375661375665 138.62433862433863,55.661375661375665 139.25925925925927,55.661375661375665 139.8941798941799,55.661375661375665 140.52910052910053,55.661375661375665 141.16402116402116,55.661375661375665 141.7989417989418,55.661375661375665 142.43386243386246,55.661375661375665 143.0687830687831,55.661375661375665 143.70370370370372,55.661375661375665 144.33862433862436,55.661375661375665 144.973544973545,55.661375661375665 145.60846560846562,55.661375661375665 146.24338624338625,55.661375661375665 146.8783068783069,55.661375661375665 147.51322751322752,55.661375661375665 148.14814814814815,55.661375661375665 148.78306878306879,55.661375661375665 149.41798941798942,55.661375661375665 150.05291005291005,55.661375661375665 150.6878306878307,55.661375661375665 151.32275132275134,55.661375661375665 151.95767195767198,55.661375661375665 152.5925925925926,55.449735449735456 153.22751322751324,55.661375661375665 153.86243386243387,55.449735449735456 154.4973544973545,55.449735449735456 155.13227513227514,55.449735449735456 155.76719576719577,55.449735449735456 156.4021164021164,55.449735449735456 157.03703703703704,55.23809523809524 157.67195767195767,55.23809523809524 158.30687830687833,55.02645502645503 158.94179894179896,55.02645502645503 159.5767195767196,55.02645502645503 160.21164021164023,55.02645502645503 160.84656084656086,55.02645502645503 161.4814814814815,54.81481481481482 162.11640211640213,54.81481481481482 162.75132275132276,54.60317460317461 163.3862433862434,54.60317460317461 164.02116402116403,54.60317460317461 164.65608465608466,54.60317460317461 165.2910052910053,54.39153439153439 165.92592592592595,54.39153439153439 166.56084656084658,54.179894179894184 167.19576719576722,53.968253968253975 167.83068783068785,53.968253968253975 171.21693121693124,53.54497354497355" style="fill:none; stroke:#cc0000; stroke-width:1.0"  /><polyline points="171.21693121693124,53.54497354497355 170.15873015873018,57.142857142857146 169.94708994708995,57.777777777777786 169.73544973544975,58.41269841269842 169.52380952380955,59.04761904761905 169.31216931216932,59.682539682539684 169.10052910052912,60.31746031746032 168.8888888888889,60.952380952380956 168.8888888888889,61.58730158730159 168.67724867724868,62.22222222222223 168.46560846560848,62.85714285714286 168.25396825396825,63.492063492063494 168.04232804232805,64.12698412698413 167.83068783068785,64.76190476190477 167.61904761904762,65.3968253968254 167.40740740740742,66.03174603174604 167.19576719576722,66.66666666666667 166.984126984127,67.3015873015873 166.7724867724868,67.93650793650794 166.56084656084658,68.57142857142858 166.34920634920636,69.20634920634922 166.34920634920636,69.84126984126985 166.13756613756615,70.47619047619048 165.92592592592595,71.11111111111111 165.71428571428572,71.74603174603175 165.2910052910053,72.38095238095238 165.0793650793651,73.01587301587303 164.8677248677249,73.65079365079366 164.65608465608466,74.28571428571429 164.23280423280426,74.92063492063492 164.02116402116403,75.55555555555556 163.80952380952382,76.19047619047619 163.59788359788362,76.82539682539684 163.1746031746032,77.46031746031747 162.96296296296296,78.0952380952381 162.75132275132276,78.73015873015873 162.53968253968256,79.36507936507937 162.32804232804233,80.0 161.90476190476193,80.63492063492065 161.6931216931217,81.26984126984128 161.4814814814815,81.90476190476191 161.2698412698413,82.53968253968254 161.05820105820106,83.17460317460318 160.84656084656086,83.80952380952381 160.84656084656086,84.44444444444446 160.63492063492066,85.07936507936509 160.42328042328043,85.71428571428572 160.21164021164023,86.34920634920636 160.0,86.98412698412699 160.0,87.61904761904762 159.7883597883598,88.25396825396827 159.5767195767196,88.8888888888889 159.5767195767196,89.52380952380953 159.36507936507937,90.15873015873017 159.36507936507937,90.7936507936508 159.15343915343917,91.42857142857143 158.94179894179896,92.06349206349208 158.94179894179896,92.69841269841271 158.94179894179896,93.33333333333334 158.73015873015873,93.96825396825398 158.73015873015873,94.60317460317461 158.51851851851853,95.23809523809524 158.51851851851853,95.87301587301587 158.51851851851853,96.50793650793652 158.30687830687833,97.14285714285715 158.30687830687833,97.77777777777779 158.0952380952381,98.41269841269842 158.0952380952381,99.04761904761905 158.0952380952381,99.68253968253968 157.8835978835979,100.31746031746033 157.67195767195767,100.95238095238096 157.46031746031747,101.5873015873016 157.24867724867727,102.22222222222223 157.03703703703704,102.85714285714286 156.61375661375664,103.28042328042329 156.4021164021164,103.91534391534393 156.1904761904762,104.55026455026456 156.1904761904762,105.18518518518519 155.76719576719577,105.60846560846562 155.34391534391534,106.24338624338625 155.13227513227514,106.87830687830689 154.7089947089947,107.3015873015873 154.2857142857143,107.93650793650795 153.86243386243387,108.57142857142858 153.43915343915344,108.994708994709 153.01587301587304,109.41798941798943 152.5925925925926,110.05291005291006 152.16931216931218,110.47619047619048 151.74603174603175,110.89947089947091 151.11111111111111,111.32275132275133 150.6878306878307,111.74603174603176 150.26455026455028,112.16931216931218 149.84126984126985,112.5925925925926 149.20634920634922,113.01587301587303 148.57142857142858,113.43915343915344 147.93650793650795,113.86243386243387 147.30158730158732,114.28571428571429 146.66666666666669,114.49735449735451 146.03174603174605,114.92063492063492 145.39682539682542,115.13227513227514 144.76190476190476,115.55555555555557 144.12698412698413,115.76719576719577 143.4920634920635,115.97883597883599 142.85714285714286,116.1904761904762 142.22222222222223,116.4021164021164 141.5873015873016,116.61375661375662 140.95238095238096,116.82539682539684 140.31746031746033,117.24867724867725 139.6825396825397,117.46031746031747 139.04761904761907,117.67195767195768 138.41269841269843,118.0952380952381 137.7777777777778,118.30687830687832 137.14285714285717,118.51851851851853 136.5079365079365,118.94179894179895 135.87301587301587,119.15343915343917 135.44973544973547,119.57671957671958 134.81481481481484,119.7883597883598 134.17989417989418,120.21164021164022 133.54497354497354,120.63492063492065 132.9100529100529,121.05820105820106 132.4867724867725,121.4814814814815 132.06349206349208,121.90476190476191 131.64021164021165,122.32804232804234 131.21693121693121,122.75132275132276 130.7936507936508,123.17460317460318 130.37037037037038,123.80952380952382 129.94708994708995,124.23280423280424 129.73544973544975,124.86772486772487 129.31216931216932,125.5026455026455 129.10052910052912,126.13756613756615 128.88888888888889,126.77248677248679 128.67724867724868,127.40740740740742 128.46560846560848,128.04232804232805 128.46560846560848,128.67724867724868 128.25396825396825,129.31216931216932 128.25396825396825,129.94708994708995 128.25396825396825,130.58201058201058 128.46560846560848,131.21693121693121 128.46560846560848,131.85185185185185 128.46560846560848,132.4867724867725 128.67724867724868,133.12169312169314 128.88888888888889,133.75661375661377 128.88888888888889,134.3915343915344 129.31216931216932,135.02645502645504 129.52380952380955,135.66137566137567 129.73544973544975,136.2962962962963 130.15873015873018,136.71957671957674 130.37037037037038,137.35449735449737 130.7936507936508,137.7777777777778 131.21693121693121,138.2010582010582 131.64021164021165,138.62433862433863 132.06349206349208,139.04761904761907 132.6984126984127,139.25925925925927 133.12169312169314,139.6825396825397 133.75661375661377,139.8941798941799 134.3915343915344,140.10582010582013 135.02645502645504,140.31746031746033 135.66137566137567,140.52910052910053 136.2962962962963,140.74074074074076 136.93121693121694,140.74074074074076 137.56613756613757,140.74074074074076 138.2010582010582,140.95238095238096 138.83597883597884,140.74074074074076 139.47089947089947,140.95238095238096 140.10582010582013,140.95238095238096 140.74074074074076,140.74074074074076 141.3756613756614,140.74074074074076 142.01058201058203,140.74074074074076 142.64550264550266,140.74074074074076 143.2804232804233,140.74074074074076 143.91534391534393,140.52910052910053 144.55026455026456,140.52910052910053 145.1851851851852,140.52910052910053 145.82010582010582,140.31746031746033 146.45502645502646,140.52910052910053 147.0899470899471,140.31746031746033 147.72486772486775,140.10582010582013 148.35978835978838,140.10582010582013 148.99470899470901,140.10582010582013 149.62962962962965,140.10582010582013 150.26455026455028,140.10582010582013 150.8994708994709,140.10582010582013 151.53439153439155,140.10582010582013 152.16931216931218,140.10582010582013 152.8042328042328,140.10582010582013 153.43915343915344,140.31746031746033 154.07407407407408,140.31746031746033 154.7089947089947,140.52910052910053 155.34391534391534,140.74074074074076 155.978835978836,140.95238095238096 156.61375661375664,141.16402116402116 157.24867724867727,141.5873015873016 157.8835978835979,142.01058201058203 158.30687830687833,142.43386243386246 158.73015873015873,142.85714285714286 159.15343915343917,143.2804232804233 159.5767195767196,143.91534391534393 160.0,144.55026455026456 160.21164021164023,145.1851851851852 160.42328042328043,145.82010582010582 160.63492063492066,146.45502645502646 160.63492063492066,147.0899470899471 160.84656084656086,147.72486772486775 161.05820105820106,148.35978835978838 161.05820105820106,148.99470899470901 161.05820105820106,149.62962962962965 161.2698412698413,150.26455026455028 161.2698412698413,150.8994708994709 161.2698412698413,151.53439153439155 161.2698412698413,152.16931216931218 161.4814814814815,152.8042328042328 161.4814814814815,153.43915343915344 161.4814814814815,154.07407407407408 161.4814814814815,154.7089947089947 161.4814814814815,155.34391534391534 161.4814814814815,155.978835978836 161.2698412698413,156.61375661375664 161.2698412698413,157.24867724867727 161.2698412698413,157.8835978835979 161.05820105820106,158.51851851851853 161.05820105820106,159.15343915343917 160.84656084656086,159.7883597883598 160.63492063492066,160.42328042328043 160.63492063492066,161.05820105820106 160.21164021164023,161.6931216931217 160.21164021164023,162.32804232804233 159.7883597883598,162.96296296296296 159.5767195767196,163.59788359788362 159.36507936507937,164.23280423280426 159.15343915343917,164.8677248677249 158.73015873015873,165.50264550264552 158.51851851851853,166.13756613756615 158.0952380952381,166.7724867724868 157.8835978835979,167.40740740740742 157.46031746031747,168.04232804232805 157.03703703703704,168.67724867724868 156.82539682539684,169.31216931216932 156.4021164021164,169.94708994708995 155.978835978836,170.37037037037038 155.76719576719577,171.005291005291 155.34391534391534,171.64021164021165 155.13227513227514,172.27513227513228 154.7089947089947,172.9100529100529 154.4973544973545,173.54497354497354 154.2857142857143,174.1798941798942 153.86243386243387,174.81481481481484 153.86243386243387,175.44973544973547 153.65079365079367,176.0846560846561 153.43915343915344,176.71957671957674 153.22751322751324,177.35449735449737 153.01587301587304,177.989417989418 152.8042328042328,178.62433862433863 152.5925925925926,179.25925925925927 152.38095238095238,179.8941798941799 152.16931216931218,180.52910052910053 151.95767195767198,181.16402116402116 151.74603174603175,181.79894179894183 151.53439153439155,182.43386243386246 151.32275132275134,183.0687830687831 151.11111111111111,183.70370370370372 150.8994708994709,184.33862433862436 150.8994708994709,184.973544973545 150.6878306878307,185.60846560846562 150.47619047619048,186.24338624338625 150.26455026455028,186.8783068783069 150.26455026455028,187.51322751322752 150.05291005291005,188.14814814814815 150.05291005291005,188.78306878306879 149.84126984126985,189.41798941798945 149.84126984126985,190.05291005291008 149.41798941798942,190.47619047619048 149.41798941798942,191.11111111111111 149.20634920634922,191.74603174603175 149.20634920634922,192.3809523809524 149.20634920634922,193.01587301587304 148.99470899470901,193.65079365079367 148.99470899470901,194.2857142857143 148.35978835978838,198.0952380952381" style="fill:none; stroke:#999900; stroke-width:1.0"  /><polyline points="148.35978835978838,198.0952380952381 145.1851851851852,198.30687830687833 144.55026455026456,198.30687830687833 143.91534391534393,198.30687830687833 143.2804232804233,198.30687830687833 142.64550264550266,198.30687830687833 142.01058201058203,198.51851851851853 141.3756613756614,198.73015873015873 140.74074074074076,198.73015873015873 140.10582010582013,198.73015873015873 139.47089947089947,198.73015873015873 138.83597883597884,198.94179894179896 138.2010582010582,199.15343915343917 137.56613756613757,199.15343915343917 136.93121693121694,199.15343915343917 136.2962962962963,199.36507936507937 135.66137566137567,199.36507936507937 135.02645502645504,199.5767195767196 134.3915343915344,199.5767195767196 133.75661375661377,199.7883597883598 133.12169312169314,200.00000000000003 132.4867724867725,200.21164021164023 131.85185185185185,200.21164021164023 131.21693121693121,200.42328042328043 130.58201058201058,200.42328042328043 129.94708994708995,200.63492063492066 129.31216931216932,200.63492063492066 128.67724867724868,200.84656084656086 128.04232804232805,200.84656084656086 127.40740740740742,200.84656084656086 126.77248677248679,200.84656084656086 126.13756613756615,201.05820105820106 125.5026455026455,201.05820105820106 124.86772486772487,201.05820105820106 124.23280423280424,201.2698412698413 123.59788359788361,201.2698412698413 122.96296296296298,201.2698412698413 122.32804232804234,201.4814814814815 121.6931216931217,201.4814814814815 121.05820105820106,201.4814814814815 120.42328042328043,201.6931216931217 119.7883597883598,201.6931216931217 119.15343915343917,201.6931216931217 118.51851851851853,201.6931216931217 117.88359788359789,201.90476190476193 117.24867724867725,201.90476190476193 116.61375661375662,201.90476190476193 115.97883597883599,202.11640211640213 115.34391534391536,202.11640211640213 114.70899470899472,202.11640211640213 114.07407407407408,202.11640211640213 113.43915343915344,202.32804232804233 112.80423280423281,202.32804232804233 112.16931216931218,202.32804232804233 111.53439153439155,202.32804232804233 110.89947089947091,202.32804232804233 110.26455026455027,202.32804232804233 109.62962962962963,202.32804232804233 108.994708994709,202.53968253968256 108.35978835978837,202.53968253968256 107.72486772486774,202.53968253968256 107.0899470899471,202.53968253968256 106.45502645502647,202.53968253968256 105.82010582010582,202.53968253968256 105.18518518518519,202.53968253968256 104.55026455026456,202.53968253968256 103.91534391534393,202.75132275132276 103.28042328042329,202.75132275132276 102.64550264550266,202.75132275132276 102.01058201058201,202.53968253968256 101.37566137566138,202.75132275132276 100.74074074074075,202.75132275132276 100.10582010582011,202.75132275132276 99.47089947089948,202.75132275132276 98.83597883597885,202.53968253968256 98.2010582010582,202.53968253968256 97.56613756613757,202.75132275132276 96.93121693121694,202.962962962963 96.2962962962963,202.962962962963 95.66137566137567,202.75132275132276 95.02645502645504,202.75132275132276 94.39153439153439,202.75132275132276 93.75661375661376,202.75132275132276 93.12169312169313,202.75132275132276 92.4867724867725,202.75132275132276 91.85185185185186,202.75132275132276 91.21693121693123,202.75132275132276 90.58201058201058,202.75132275132276 89.94708994708995,202.53968253968256 89.31216931216932,202.53968253968256 88.67724867724868,202.53968253968256 88.04232804232805,202.53968253968256 87.40740740740742,202.53968253968256 86.77248677248677,202.32804232804233 86.13756613756614,202.32804232804233 85.5026455026455,202.11640211640213 84.86772486772487,202.11640211640213 84.23280423280424,201.90476190476193 83.59788359788361,201.6931216931217 82.96296296296298,201.2698412698413 82.32804232804233,201.05820105820106 81.90476190476191,200.42328042328043 81.48148148148148,200.00000000000003 81.26984126984128,199.36507936507937 81.05820105820106,198.73015873015873 80.63492063492065,198.0952380952381 80.63492063492065,197.46031746031747 80.63492063492065,196.82539682539684 80.63492063492065,196.1904761904762 80.84656084656085,195.55555555555557 81.05820105820106,194.92063492063494 81.26984126984128,194.2857142857143 81.6931216931217,193.65079365079367 81.90476190476191,193.01587301587304 82.32804232804233,192.5925925925926 82.75132275132276,191.95767195767198 83.17460317460318,191.53439153439155 83.59788359788361,191.11111111111111 84.02116402116403,190.47619047619048 84.44444444444446,190.05291005291008 84.86772486772487,189.62962962962965 85.29100529100529,188.99470899470901 85.71428571428572,188.57142857142858 86.13756613756614,188.14814814814815 86.56084656084657,187.72486772486775 86.98412698412699,187.08994708994712 87.40740740740742,186.66666666666669 87.83068783068784,186.24338624338625 88.25396825396827,185.60846560846562 88.67724867724868,185.1851851851852 89.1005291005291,184.7619047619048 89.52380952380953,184.12698412698415 89.94708994708995,183.70370370370372 90.37037037037038,183.0687830687831 90.7936507936508,182.43386243386246 91.21693121693123,181.79894179894183 91.42857142857143,181.16402116402116 91.85185185185186,180.74074074074076 92.06349206349208,180.10582010582013 92.27513227513228,179.4708994708995 92.4867724867725,178.83597883597884 92.91005291005291,178.2010582010582 93.12169312169313,177.56613756613757 93.33333333333334,176.93121693121694 93.54497354497356,176.2962962962963 93.54497354497356,175.66137566137567 93.54497354497356,175.02645502645504 93.33333333333334,174.3915343915344 93.33333333333334,173.75661375661377 93.33333333333334,173.12169312169314 93.12169312169313,172.4867724867725 92.91005291005291,171.85185185185188 92.4867724867725,171.21693121693124 92.06349206349208,170.58201058201058 91.64021164021165,169.94708994708995 91.21693121693123,169.52380952380955 90.7936507936508,168.8888888888889 90.15873015873017,168.46560846560848 89.73544973544975,168.04232804232805 89.31216931216932,167.61904761904762 88.8888888888889,167.19576719576722 88.25396825396827,166.7724867724868 87.61904761904762,166.56084656084658 87.1957671957672,166.13756613756615 86.56084656084657,165.71428571428572 85.92592592592594,165.2910052910053 85.29100529100529,164.8677248677249 84.65608465608466,164.44444444444446 84.02116402116403,164.23280423280426 83.59788359788361,163.80952380952382 82.96296296296298,163.59788359788362 82.32804232804233,163.3862433862434 81.6931216931217,163.1746031746032 81.05820105820106,162.75132275132276 80.42328042328043,162.53968253968256 79.7883597883598,162.53968253968256 79.15343915343917,162.32804232804233 78.51851851851852,162.11640211640213 77.88359788359789,161.90476190476193 77.24867724867725,161.90476190476193 76.61375661375662,161.6931216931217 75.97883597883599,161.6931216931217 75.34391534391536,161.4814814814815 74.70899470899471,161.4814814814815 74.07407407407408,161.2698412698413 73.43915343915344,161.05820105820106 72.80423280423281,160.84656084656086 72.16931216931218,161.05820105820106 71.53439153439155,160.84656084656086 70.8994708994709,160.84656084656086 70.26455026455027,160.84656084656086 69.62962962962963,161.05820105820106 68.994708994709,161.05820105820106 68.35978835978837,161.05820105820106 67.72486772486774,161.05820105820106 67.08994708994709,161.05820105820106 66.45502645502646,161.2698412698413 65.82010582010582,161.2698412698413 65.18518518518519,161.4814814814815 64.55026455026456,161.4814814814815 63.91534391534392,161.6931216931217 63.280423280423285,161.90476190476193 62.64550264550265,162.11640211640213 62.22222222222223,162.53968253968256 61.58730158730159,162.75132275132276 60.952380952380956,163.1746031746032 60.31746031746032,163.3862433862434 59.682539682539684,163.80952380952382 59.04761904761905,164.23280423280426 58.41269841269842,164.65608465608466 57.777777777777786,165.0793650793651 57.35449735449736,165.50264550264552 56.93121693121694,165.92592592592595 56.50793650793651,166.56084656084658 56.08465608465609,166.984126984127 55.661375661375665,167.61904761904762 55.23809523809524,168.25396825396825 55.02645502645503,168.8888888888889 54.60317460317461,169.52380952380955 54.39153439153439,170.15873015873018 54.179894179894184,170.7936507936508 53.968253968253975,171.42857142857144 53.75661375661376,172.06349206349208 53.54497354497355,172.6984126984127 53.54497354497355,173.33333333333334 53.333333333333336,173.96825396825398 53.12169312169313,174.6031746031746 53.12169312169313,175.23809523809524 53.12169312169313,175.87301587301587 53.12169312169313,176.50793650793653 53.12169312169313,177.14285714285717 53.12169312169313,177.7777777777778 53.12169312169313,178.41269841269843 52.91005291005291,179.04761904761907 53.12169312169313,179.6825396825397 53.12169312169313,180.31746031746033 53.12169312169313,180.95238095238096 53.12169312169313,181.5873015873016 53.333333333333336,182.22222222222223 53.333333333333336,182.85714285714286 53.54497354497355,183.4920634920635 53.54497354497355,184.12698412698415 53.54497354497355,184.7619047619048 53.75661375661376,185.39682539682542 53.968253968253975,186.03174603174605 53.968253968253975,186.66666666666669 54.179894179894184,187.30158730158732 54.179894179894184,187.93650793650795 54.179894179894184,188.57142857142858 54.39153439153439,189.20634920634922 54.39153439153439,189.84126984126985 54.39153439153439,190.47619047619048 54.39153439153439,191.11111111111111 54.179894179894184,191.74603174603175 53.968253968253975,192.3809523809524 53.54497354497355,193.01587301587304 53.12169312169313,193.65079365079367 52.6984126984127,194.07407407407408 52.27513227513228,194.4973544973545 51.640211640211646,194.70899470899474 51.00529100529101,195.13227513227514 50.370370370370374,195.13227513227514 49.73544973544974,195.34391534391537 49.1005291005291,195.34391534391537 48.46560846560847,195.55555555555557 47.830687830687836,195.55555555555557 47.195767195767196,195.55555555555557 46.560846560846564,195.55555555555557 45.92592592592593,195.55555555555557 45.29100529100529,195.34391534391537 44.65608465608466,195.34391534391537 44.021164021164026,195.34391534391537 43.386243386243386,195.34391534391537 42.75132275132275,195.34391534391537 42.11640211640212,195.13227513227514 41.48148148148149,195.13227513227514 40.84656084656085,195.13227513227514 40.211640211640216,194.92063492063494 39.57671957671958,194.92063492063494 38.94179894179894,194.70899470899474 38.30687830687831,194.70899470899474 37.67195767195768,194.4973544973545 37.03703703703704,194.4973544973545 36.402116402116405,194.4973544973545 35.76719576719577,194.2857142857143 35.13227513227513,194.07407407407408 34.4973544973545,194.07407407407408 33.86243386243387,193.86243386243387 33.22751322751323,193.65079365079367 32.592592592592595,193.65079365079367 31.95767195767196,193.43915343915344 31.322751322751326,193.22751322751324 30.68783068783069,193.22751322751324 30.052910052910054,193.22751322751324 29.41798941798942,193.01587301587304 28.783068783068785,192.8042328042328 28.14814814814815,192.5925925925926 27.513227513227516,192.8042328042328 26.87830687830688,192.5925925925926 26.243386243386244,192.5925925925926 25.60846560846561,192.3809523809524 24.973544973544975,192.16931216931218 24.338624338624342,192.16931216931218 23.703703703703706,191.95767195767198 23.06878306878307,191.74603174603175 22.433862433862437,191.74603174603175 21.7989417989418,191.53439153439155 21.164021164021165,191.53439153439155 20.529100529100532,191.32275132275134 19.894179894179896,191.11111111111111 19.25925925925926,191.11111111111111 18.624338624338627,190.8994708994709 17.98941798941799,190.6878306878307 17.354497354497354,190.6878306878307 16.71957671957672,190.47619047619048 16.084656084656086,190.47619047619048 15.449735449735451,190.26455026455028 14.814814814814817,190.05291005291008 14.17989417989418,190.05291005291008 13.544973544973546,189.84126984126985 12.910052910052912,189.84126984126985 12.275132275132275,189.62962962962965 11.640211640211641,189.41798941798945 11.005291005291006,189.41798941798945 10.370370370370372,189.41798941798945 7.195767195767196,188.78306878306879" style="fill:none; stroke:#00aa99; stroke-width:1.0"  /><polyline points="7.195767195767196,188.78306878306879 7.407407407407408,184.973544973545 7.407407407407408,184.33862433862436 7.6190476190476195,183.70370370370372 7.6190476190476195,183.0687830687831 7.6190476190476195,182.43386243386246 7.830687830687832,181.79894179894183 7.830687830687832,181.16402116402116 7.830687830687832,180.52910052910053 7.830687830687832,179.8941798941799 7.830687830687832,179.25925925925927 7.830687830687832,178.62433862433863 8.042328042328043,177.989417989418 8.042328042328043,177.35449735449737 8.042328042328043,176.71957671957674 8.042328042328043,176.0846560846561 8.042328042328043,175.44973544973547 7.830687830687832,174.81481481481484 7.830687830687832,174.1798941798942 8.042328042328043,173.54497354497354 8.042328042328043,172.9100529100529 8.042328042328043,172.27513227513228 8.042328042328043,171.64021164021165 7.830687830687832,171.005291005291 7.830687830687832,170.37037037037038 7.830687830687832,169.73544973544975 7.830687830687832,169.10052910052912 7.830687830687832,168.46560846560848 7.830687830687832,167.83068783068785 7.830687830687832,167.19576719576722 7.830687830687832,166.56084656084658 7.830687830687832,165.92592592592595 7.830687830687832,165.2910052910053 7.830687830687832,164.65608465608466 7.830687830687832,164.02116402116403 7.6190476190476195,163.3862433862434 7.6190476190476195,162.75132275132276 7.6190476190476195,162.11640211640213 7.6190476190476195,161.4814814814815 7.6190476190476195,160.84656084656086 7.6190476190476195,160.21164021164023 7.6190476190476195,159.5767195767196 7.407407407407408,158.94179894179896 7.407407407407408,158.30687830687833 7.407407407407408,157.67195767195767 7.407407407407408,157.03703703703704 7.195767195767196,156.4021164021164 7.195767195767196,155.76719576719577 7.195767195767196,155.13227513227514 7.195767195767196,154.4973544973545 7.195767195767196,153.86243386243387 6.984126984126985,153.22751322751324 6.984126984126985,152.5925925925926 6.984126984126985,151.95767195767198 6.772486772486773,151.32275132275134 6.772486772486773,150.6878306878307 6.772486772486773,150.05291005291005 6.772486772486773,149.41798941798942 6.560846560846561,148.78306878306879 6.560846560846561,148.14814814814815 6.34920634920635,147.51322751322752 6.34920634920635,146.8783068783069 6.34920634920635,146.24338624338625 6.137566137566138,145.60846560846562 6.137566137566138,144.973544973545 6.137566137566138,144.33862433862436 5.9259259259259265,143.70370370370372 5.9259259259259265,143.0687830687831 5.714285714285714,142.43386243386246 5.714285714285714,141.7989417989418 5.714285714285714,141.16402116402116 5.502645502645503,140.52910052910053 5.291005291005291,139.8941798941799 5.291005291005291,139.25925925925927 5.291005291005291,138.62433862433863 5.07936507936508,137.989417989418 5.07936507936508,137.35449735449737 5.07936507936508,136.71957671957674 4.867724867724868,136.0846560846561 4.867724867724868,135.44973544973547 4.867724867724868,134.81481481481484 4.867724867724868,134.17989417989418 4.867724867724868,133.54497354497354 4.867724867724868,132.9100529100529 5.07936507936508,132.27513227513228 5.07936507936508,131.64021164021165 5.07936507936508,131.005291005291 5.07936507936508,130.37037037037038 5.07936507936508,129.73544973544975 5.07936507936508,129.10052910052912 5.291005291005291,128.46560846560848 5.291005291005291,127.83068783068784 5.502645502645503,127.1957671957672 5.714285714285714,126.56084656084657 5.9259259259259265,125.92592592592594 6.137566137566138,125.2910052910053 6.560846560846561,124.86772486772487 6.984126984126985,124.44444444444446 7.407407407407408,124.02116402116403 7.830687830687832,123.59788359788361 8.465608465608467,123.3862433862434 9.100529100529101,123.17460317460318 9.735449735449736,123.17460317460318 10.370370370370372,122.96296296296298 11.005291005291006,122.96296296296298 11.640211640211641,122.96296296296298 12.275132275132275,123.3862433862434 12.910052910052912,123.59788359788361 13.544973544973546,123.80952380952382 13.96825396825397,124.23280423280424 14.603174603174605,124.44444444444446 15.026455026455027,124.86772486772487 15.449735449735451,125.2910052910053 15.873015873015873,125.71428571428572 16.296296296296298,126.13756613756615 16.71957671957672,126.56084656084657 16.931216931216934,127.1957671957672 17.354497354497354,127.61904761904763 17.566137566137566,128.25396825396825 18.201058201058203,128.67724867724868 18.624338624338627,129.31216931216932 19.047619047619047,129.73544973544975 19.47089947089947,130.15873015873018 19.894179894179896,130.58201058201058 20.31746031746032,131.005291005291 20.740740740740744,131.42857142857144 21.164021164021165,131.85185185185185 21.7989417989418,132.27513227513228 22.433862433862437,132.6984126984127 23.06878306878307,133.12169312169314 23.703703703703706,133.33333333333334 24.338624338624342,133.54497354497354 24.761904761904763,133.96825396825398 25.3968253968254,133.96825396825398 26.031746031746035,134.3915343915344 26.666666666666668,134.3915343915344 27.301587301587304,134.6031746031746 27.93650793650794,134.6031746031746 28.571428571428573,134.6031746031746 29.20634920634921,134.6031746031746 29.841269841269842,134.6031746031746 30.476190476190478,134.6031746031746 31.111111111111114,134.81481481481484 31.746031746031747,134.6031746031746 32.38095238095239,134.6031746031746 33.01587301587302,134.3915343915344 33.65079365079365,134.3915343915344 34.28571428571429,134.17989417989418 34.920634920634924,133.96825396825398 35.55555555555556,133.75661375661377 36.19047619047619,133.54497354497354 36.82539682539683,133.12169312169314 37.46031746031746,132.6984126984127 38.095238095238095,132.27513227513228 38.730158730158735,131.85185185185185 39.36507936507937,131.42857142857144 40.0,131.005291005291 40.423280423280424,130.58201058201058 40.84656084656085,130.15873015873018 41.26984126984127,129.73544973544975 41.6931216931217,129.31216931216932 42.11640211640212,128.67724867724868 42.539682539682545,128.25396825396825 42.96296296296297,127.61904761904763 43.17460317460318,126.98412698412699 43.5978835978836,126.34920634920636 43.80952380952381,125.71428571428572 44.232804232804234,125.07936507936509 44.44444444444445,124.44444444444446 44.65608465608466,123.80952380952382 44.867724867724874,123.17460317460318 45.07936507936508,122.53968253968254 45.29100529100529,121.90476190476191 45.50264550264551,121.26984126984128 45.714285714285715,120.63492063492065 45.92592592592593,120.00000000000001 46.13756613756614,119.36507936507937 46.13756613756614,118.73015873015873 46.349206349206355,118.0952380952381 46.349206349206355,117.46031746031747 46.560846560846564,116.82539682539684 46.560846560846564,116.1904761904762 46.560846560846564,115.55555555555557 46.77248677248678,114.92063492063492 46.77248677248678,114.28571428571429 46.77248677248678,113.65079365079366 46.77248677248678,113.01587301587303 46.77248677248678,112.3809523809524 46.77248677248678,111.74603174603176 46.77248677248678,111.11111111111111 46.77248677248678,110.47619047619048 46.77248677248678,109.84126984126985 46.77248677248678,109.20634920634922 46.560846560846564,108.57142857142858 46.560846560846564,107.93650793650795 46.349206349206355,107.3015873015873 46.349206349206355,106.66666666666667 46.13756613756614,106.03174603174604 46.13756613756614,105.3968253968254 45.714285714285715,104.76190476190477 45.714285714285715,104.12698412698414 45.50264550264551,103.4920634920635 45.29100529100529,102.85714285714286 45.07936507936508,102.22222222222223 44.867724867724874,101.5873015873016 44.65608465608466,100.95238095238096 44.232804232804234,100.31746031746033 44.021164021164026,99.68253968253968 43.80952380952381,99.04761904761905 43.5978835978836,98.41269841269842 43.17460317460318,97.77777777777779 42.75132275132275,97.14285714285715 42.539682539682545,96.50793650793652 42.11640211640212,95.87301587301587 41.6931216931217,95.23809523809524 41.26984126984127,94.60317460317461 40.84656084656085,94.17989417989419 40.423280423280424,93.54497354497356 40.0,93.12169312169313 39.57671957671958,92.69841269841271 39.15343915343916,92.06349206349208 38.51851851851852,91.64021164021165 38.095238095238095,91.21693121693123 37.46031746031746,90.7936507936508 36.82539682539683,90.37037037037038 36.19047619047619,89.94708994708995 35.55555555555556,89.52380952380953 34.920634920634924,89.1005291005291 34.28571428571429,88.8888888888889 33.86243386243387,88.46560846560847 33.22751322751323,88.25396825396827 32.592592592592595,87.83068783068784 31.95767195767196,87.61904761904762 31.322751322751326,87.40740740740742 30.68783068783069,87.1957671957672 30.052910052910054,87.1957671957672 29.41798941798942,86.98412698412699 28.783068783068785,86.98412698412699 28.14814814814815,86.98412698412699 27.513227513227516,86.98412698412699 26.87830687830688,87.40740740740742 26.243386243386244,87.40740740740742 25.60846560846561,87.61904761904762 24.973544973544975,87.83068783068784 24.338624338624342,88.04232804232805 23.703703703703706,88.46560846560847 23.06878306878307,88.67724867724868 22.645502645502646,89.1005291005291 22.010582010582013,89.52380952380953 21.58730158730159,89.94708994708995 21.164021164021165,90.37037037037038 20.529100529100532,90.7936507936508 20.105820105820108,91.42857142857143 19.682539682539684,91.85185185185186 19.25925925925926,92.4867724867725 18.83597883597884,92.91005291005291 18.412698412698415,93.54497354497356 17.98941798941799,93.96825396825398 17.566137566137566,94.39153439153439 17.142857142857146,95.02645502645504 16.71957671957672,95.66137566137567 16.296296296296298,96.08465608465609 15.873015873015873,96.50793650793652 15.449735449735451,96.93121693121694 15.026455026455027,97.56613756613757 14.391534391534393,97.989417989418 13.96825396825397,98.41269841269842 13.333333333333334,98.83597883597885 12.6984126984127,99.25925925925927 12.063492063492065,99.68253968253968 11.428571428571429,99.8941798941799 10.793650793650794,100.10582010582011 10.15873015873016,100.31746031746033 9.523809523809524,100.31746031746033 8.88888888888889,100.52910052910053 8.253968253968255,100.31746031746033 7.6190476190476195,100.31746031746033 6.984126984126985,100.10582010582011 6.34920634920635,99.8941798941799 5.9259259259259265,99.47089947089948 5.502645502645503,99.04761904761905 5.07936507936508,98.62433862433863 4.656084656084657,98.2010582010582 4.2328042328042335,97.77777777777779 4.021164021164021,97.14285714285715 3.597883597883598,96.50793650793652 3.3862433862433865,95.87301587301587 3.174603174603175,95.23809523809524 3.174603174603175,94.60317460317461 2.9629629629629632,93.96825396825398 2.9629629629629632,93.33333333333334 2.7513227513227516,92.69841269841271 2.53968253968254,92.06349206349208 2.53968253968254,91.42857142857143 2.3280423280423284,90.7936507936508 2.1164021164021167,90.15873015873017 2.1164021164021167,89.52380952380953 1.9047619047619049,88.8888888888889 1.9047619047619049,88.25396825396827 1.6931216931216932,87.61904761904762 1.6931216931216932,86.98412698412699 1.4814814814814816,86.34920634920636 1.4814814814814816,85.71428571428572 1.26984126984127,85.07936507936509 1.26984126984127,84.44444444444446 1.26984126984127,83.80952380952381 1.0582010582010584,83.17460317460318 1.0582010582010584,82.53968253968254 1.0582010582010584,81.90476190476191 0.8465608465608466,81.26984126984128 0.8465608465608466,80.63492063492065 0.8465608465608466,80.0 0.8465608465608466,79.36507936507937 0.634920634920635,78.73015873015873 0.634920634920635,78.0952380952381 0.634920634920635,77.46031746031747 0.634920634920635,76.82539682539684 0.634920634920635,76.19047619047619 0.4232804232804233,75.55555555555556 0.4232804232804233,74.92063492063492 0.4232804232804233,74.28571428571429 0.4232804232804233,73.65079365079366 0.4232804232804233,73.01587301587303 0.4232804232804233,72.38095238095238 0.4232804232804233,71.74603174603175 0.4232804232804233,71.11111111111111 0.4232804232804233,70.47619047619048 0.21164021164021166,69.84126984126985 0.21164021164021166,69.20634920634922 0.4232804232804233,68.57142857142858 0.4232804232804233,67.93650793650794 0.4232804232804233,67.3015873015873 0.4232804232804233,66.66666666666667 0.4232804232804233,66.03174603174604 0.634920634920635,65.3968253968254 0.634920634920635,64.76190476190477 0.634920634920635,64.12698412698413 0.8465608465608466,63.492063492063494 0.8465608465608466,62.85714285714286 1.0582010582010584,62.22222222222223 1.0582010582010584,61.58730158730159 1.0582010582010584,60.952380952380956 1.26984126984127,60.31746031746032 1.26984126984127,59.682539682539684 1.4814814814814816,59.04761904761905 1.4814814814814816,58.41269841269842 1.6931216931216932,57.777777777777786 1.9047619047619049,57.142857142857146 1.9047619047619049,56.50793650793651 2.1164021164021167,55.87301587301588 2.1164021164021167,55.23809523809524 2.3280423280423284,54.60317460317461 2.53968253968254,53.968253968253975 2.7513227513227516,53.333333333333336 2.7513227513227516,52.6984126984127 2.9629629629629632,52.06349206349207 3.174603174603175,51.42857142857143 3.3862433862433865,50.7936507936508 3.597883597883598,50.158730158730165 3.597883597883598,49.523809523809526 3.8095238095238098,48.88888888888889 4.021164021164021,48.25396825396826 4.2328042328042335,47.61904761904762 4.444444444444445,46.98412698412699 4.656084656084657,46.349206349206355 5.07936507936508,45.714285714285715 5.07936507936508,45.07936507936508 5.502645502645503,44.44444444444445 5.714285714285714,43.80952380952381 5.9259259259259265,43.17460317460318 6.137566137566138,42.539682539682545 6.560846560846561,41.904761904761905 6.772486772486773,41.26984126984127 7.195767195767196,40.63492063492064 7.407407407407408,40.0 7.6190476190476195,39.36507936507937 8.042328042328043,38.730158730158735 8.253968253968255,38.095238095238095 8.677248677248677,37.46031746031746 8.88888888888889,36.82539682539683 9.312169312169313,36.19047619047619 9.523809523809524,35.55555555555556 9.735449735449736,34.920634920634924 10.15873015873016,34.28571428571429 10.582010582010582,33.65079365079365 12.063492063492065,30.68783068783069" style="fill:none; stroke:#3300bb; stroke-width:1.0"  /><circle cx="12.063492063492065" cy="30.68783068783069" r="2.0" style="fill:none; stroke:#000000aa; stroke-width:0.25" /><circle cx="171.21693121693124" cy="53.54497354497355" r="2.0" style="fill:none; stroke:#000000aa; stroke-width:0.25" /><circle cx="148.35978835978838" cy="198.0952380952381" r="2.0" style="fill:none; stroke:#000000aa; stroke-width:0.25" /><circle cx="7.195767195767196" cy="188.78306878306879" r="2.0" style="fill:none; stroke:#000000aa; stroke-width:0.25" /><circle cx="12.6984126984127" cy="30.899470899470902" r="2.0" style="fill:none; stroke:#ff3366aa; stroke-width:0.25" /><circle cx="171.005291005291" cy="53.968253968253975" r="2.0" style="fill:none; stroke:#ff3366aa; stroke-width:0.25" /><circle cx="148.35978835978838" cy="197.46031746031747" r="2.0" style="fill:none; stroke:#ff3366aa; stroke-width:0.25" /><circle cx="6.984126984126985" cy="188.14814814814815" r="2.0" style="fill:none; stroke:#ff3366aa; stroke-width:0.25" /><polyline points="24.12698412698413,30.052910052910054 23.492063492063494,30.264550264550266 22.857142857142858,30.264550264550266 22.222222222222225,30.264550264550266 21.58730158730159,30.264550264550266 20.952380952380953,30.264550264550266 20.31746031746032,30.264550264550266 19.682539682539684,30.264550264550266 19.047619047619047,30.264550264550266 18.412698412698415,30.476190476190478 17.77777777777778,30.476190476190478 17.142857142857146,30.476190476190478 16.50793650793651,30.476190476190478 15.873015873015873,30.476190476190478" style="fill:none; stroke:#001100; stroke-width:1.0" /><polyline points="6.772486772486773,41.26984126984127 7.195767195767196,40.63492063492064 7.407407407407408,40.0 7.6190476190476195,39.36507936507937 8.042328042328043,38.730158730158735 8.253968253968255,38.095238095238095 8.677248677248677,37.46031746031746 8.88888888888889,36.82539682539683 9.312169312169313,36.19047619047619 9.523809523809524,35.55555555555556 9.735449735449736,34.920634920634924 10.15873015873016,34.28571428571429 10.582010582010582,33.65079365079365" style="fill:none; stroke:#000011; stroke-width:1.0" /><polyline points="167.61904761904762,65.3968253968254 167.83068783068785,64.76190476190477 168.04232804232805,64.12698412698413 168.25396825396825,63.492063492063494 168.46560846560848,62.85714285714286 168.67724867724868,62.22222222222223 168.8888888888889,61.58730158730159 168.8888888888889,60.952380952380956 169.10052910052912,60.31746031746032 169.31216931216932,59.682539682539684 169.52380952380955,59.04761904761905 169.73544973544975,58.41269841269842 169.94708994708995,57.777777777777786 170.15873015873018,57.142857142857146" style="fill:none; stroke:#001100; stroke-width:1.0" /><polyline points="159.5767195767196,55.02645502645503 160.21164021164023,55.02645502645503 160.84656084656086,55.02645502645503 161.4814814814815,54.81481481481482 162.11640211640213,54.81481481481482 162.75132275132276,54.60317460317461 163.3862433862434,54.60317460317461 164.02116402116403,54.60317460317461 164.65608465608466,54.60317460317461 165.2910052910053,54.39153439153439 165.92592592592595,54.39153439153439 166.56084656084658,54.179894179894184 167.19576719576722,53.968253968253975 167.83068783068785,53.968253968253975" style="fill:none; stroke:#000011; stroke-width:1.0" /><polyline points="136.93121693121694,199.15343915343917 137.56613756613757,199.15343915343917 138.2010582010582,199.15343915343917 138.83597883597884,198.94179894179896 139.47089947089947,198.73015873015873 140.10582010582013,198.73015873015873 140.74074074074076,198.73015873015873 141.3756613756614,198.73015873015873 142.01058201058203,198.51851851851853 142.64550264550266,198.30687830687833 143.2804232804233,198.30687830687833 143.91534391534393,198.30687830687833 144.55026455026456,198.30687830687833 145.1851851851852,198.30687830687833" style="fill:none; stroke:#001100; stroke-width:1.0" /><polyline points="150.47619047619048,186.24338624338625 150.26455026455028,186.8783068783069 150.26455026455028,187.51322751322752 150.05291005291005,188.14814814814815 150.05291005291005,188.78306878306879 149.84126984126985,189.41798941798945 149.84126984126985,190.05291005291008 149.41798941798942,190.47619047619048 149.41798941798942,191.11111111111111 149.20634920634922,191.74603174603175 149.20634920634922,192.3809523809524 149.20634920634922,193.01587301587304 148.99470899470901,193.65079365079367 148.99470899470901,194.2857142857143" style="fill:none; stroke:#000011; stroke-width:1.0" /><polyline points="8.042328042328043,176.71957671957674 8.042328042328043,177.35449735449737 8.042328042328043,177.989417989418 7.830687830687832,178.62433862433863 7.830687830687832,179.25925925925927 7.830687830687832,179.8941798941799 7.830687830687832,180.52910052910053 7.830687830687832,181.16402116402116 7.830687830687832,181.79894179894183 7.6190476190476195,182.43386243386246 7.6190476190476195,183.0687830687831 7.6190476190476195,183.70370370370372 7.407407407407408,184.33862433862436 7.407407407407408,184.973544973545" style="fill:none; stroke:#001100; stroke-width:1.0" /><polyline points="18.624338624338627,190.8994708994709 17.98941798941799,190.6878306878307 17.354497354497354,190.6878306878307 16.71957671957672,190.47619047619048 16.084656084656086,190.47619047619048 15.449735449735451,190.26455026455028 14.814814814814817,190.05291005291008 14.17989417989418,190.05291005291008 13.544973544973546,189.84126984126985 12.910052910052912,189.84126984126985 12.275132275132275,189.62962962962965 11.640211640211641,189.41798941798945 11.005291005291006,189.41798941798945 10.370370370370372,189.41798941798945" style="fill:none; stroke:#000011; stroke-width:1.0" /><polyline points="15.873015873015873,30.476190476190478 -5.291005291005291,31.53439153439154" style="fill:none; stroke:#ffaa00; stroke-width:0.4" /><polyline points="10.582010582010582,33.65079365079365 20.105820105820108,14.814814814814817" style="fill:none; stroke:#aaff00; stroke-width:0.4" /><polyline points="170.15873015873018,57.142857142857146 176.2962962962963,36.82539682539683" style="fill:none; stroke:#ffaa00; stroke-width:0.4" /><polyline points="167.83068783068785,53.968253968253975 188.78306878306879,51.21693121693122" style="fill:none; stroke:#aaff00; stroke-width:0.4" /><polyline points="145.1851851851852,198.30687830687833 166.13756613756615,196.1904761904762" style="fill:none; stroke:#ffaa00; stroke-width:0.4" /><polyline points="148.99470899470901,194.2857142857143 145.1851851851852,215.02645502645504" style="fill:none; stroke:#aaff00; stroke-width:0.4" /><polyline points="7.407407407407408,184.973544973545 5.714285714285714,206.13756613756615" style="fill:none; stroke:#ffaa00; stroke-width:0.4" /><polyline points="10.370370370370372,189.41798941798945 -10.370370370370372,185.60846560846562" style="fill:none; stroke:#aaff00; stroke-width:0.4" /><circle cx="82.96296296296298" cy="109.41798941798943" r="1.0" style="fill:#444444; stroke-width:0" /><circle cx="92.69841269841271" cy="97.14285714285715" r="10.582010582010582" style="fill:#ff770022; stroke-width:0" /><circle cx="92.69841269841271" cy="97.14285714285715" r="1.0" style="fill:#ff7700; stroke-width:0" /></svg>