<?xml version="1.0" encoding="UTF-8" standalone="no"?><svg width="512.3809523809524" height="478.7301587301588" viewBox="-10 -10 190.7936507936508 179.5767195767196" xmlns="http://www.w3.org/2000/svg" xmlns:xlink="http://www.w3.org/1999/xlink"><polyline points="3.3862433862433865,-0.4232804232804233 7.195767195767196,1.0582010582010584 7.830687830687832,1.26984126984127 8.465608465608467,1.4814814814814816 9.100529100529101,1.6931216931216932 9.735449735449736,2.1164021164021167 10.370370370370372,2.3280423280423284 11.005291005291006,2.53968253968254 11.640211640211641,2.7513227513227516 12.275132275132275,2.9629629629629632 12.910052910052912,3.174603174603175 13.544973544973546,3.3862433862433865 14.17989417989418,3.597883597883598 14.814814814814817,4.021164021164021 15.449735449735451,4.2328042328042335 16.084656084656086,4.444444444444445 16.71957671957672,4.444444444444445 17.354497354497354,4.656084656084657 17.98941798941799,4.867724867724868 18.624338624338627,5.07936507936508 19.25925925925926,5.291005291005291 19.894179894179896,5.291005291005291 20.529100529100532,5.502645502645503 21.164021164021165,5.714285714285714 21.7989417989418,5.9259259259259265 22.433862433862437,5.9259259259259265 23.06878306878307,6.137566137566138 23.703703703703706,6.34920634920635 24.338624338624342,6.560846560846561 24.973544973544975,6.560846560846561 25.60846560846561,6.772486772486773 26.243386243386244,6.984126984126985 26.87830687830688,6.984126984126985 27.513227513227516,7.195767195767196 28.14814814814815,7.195767195767196 28.783068783068785,7.407407407407408 29.41798941798942,7.407407407407408 30.052910052910054,7.6190476190476195 30.68783068783069,7.6190476190476195 31.322751322751326,7.830687830687832 31.95767195767196,8.042328042328043 32.592592592592595,8.042328042328043 33.22751322751323,8.253968253968255 33.86243386243387,8.042328042328043 34.4973544973545,8.042328042328043 35.13227513227513,8.042328042328043 35.76719576719577,8.253968253968255 36.402116402116405,8.253968253968255 37.03703703703704,8.253968253968255 37.67195767195768,8.253968253968255 38.30687830687831,8.253968253968255 38.94179894179894,8.465608465608467 39.57671957671958,8.465608465608467 40.211640211640216,8.465608465608467 40.84656084656085,8.677248677248677 41.48148148148149,8.677248677248677 42.11640211640212,8.677248677248677 42.75132275132275,8.677248677248677 43.386243386243386,8.677248677248677 44.021164021164026,8.677248677248677 44.65608465608466,8.88888888888889 45.29100529100529,8.88888888888889 45.92592592592593,8.88888888888889 46.560846560846564,8.88888888888889 47.195767195767196,8.88888888888889 47.830687830687836,8.88888888888889 48.46560846560847,9.100529100529101 49.1005291005291,9.100529100529101 49.73544973544974,9.100529100529101 50.370370370370374,9.100529100529101 51.00529100529101,9.100529100529101 51.640211640211646,9.312169312169313 52.27513227513228,9.312169312169313 52.91005291005291,9.312169312169313 53.54497354497355,9.312169312169313 54.179894179894184,9.312169312169313 54.81481481481482,9.523809523809524 55.449735449735456,9.523809523809524 56.08465608465609,9.523809523809524 56.71957671957672,9.523809523809524 57.35449735449736,9.523809523809524 57.989417989417994,9.523809523809524 58.62433862433863,9.523809523809524 59.25925925925927,9.947089947089948 59.8941798941799,10.15873015873016 60.52910052910053,10.15873015873016 61.16402116402117,10.15873015873016 61.798941798941804,10.15873015873016 62.43386243386244,10.15873015873016 63.06878306878308,10.370370370370372 63.70370370370371,10.370370370370372 64.33862433862434,10.582010582010582 64.97354497354497,10.582010582010582 65.60846560846561,10.582010582010582 66.24338624338625,10.582010582010582 66.87830687830689,10.793650793650794 67.51322751322752,11.005291005291006 68.14814814814815,11.005291005291006 68.78306878306879,11.005291005291006 69.41798941798942,11.005291005291006 70.05291005291006,11.005291005291006 70.6878306878307,11.216931216931219 71.32275132275133,11.216931216931219 71.95767195767196,11.216931216931219 72.5925925925926,11.428571428571429 73.22751322751323,11.428571428571429 73.86243386243387,11.640211640211641 74.49735449735451,11.851851851851853 75.13227513227514,11.851851851851853 75.76719576719577,12.063492063492065 76.4021164021164,12.275132275132275 77.03703703703704,12.275132275132275 77.67195767195767,12.486772486772487 78.30687830687832,12.486772486772487 78.94179894179895,12.6984126984127 79.7883597883598,13.121693121693122 80.42328042328043,13.121693121693122 81.05820105820106,13.121693121693122 81.26984126984128,13.756613756613758 81.90476190476191,13.756613756613758 82.53968253968254,13.756613756613758 82.96296296296298,14.17989417989418 83.59788359788361,14.603174603174605 84.23280423280424,14.814814814814817 84.86772486772487,15.026455026455027 85.5026455026455,15.449735449735451 86.13756613756614,15.661375661375663 86.56084656084657,16.084656084656086 87.1957671957672,16.296296296296298 87.83068783068784,16.71957671957672 88.25396825396827,17.142857142857146 88.67724867724868,17.566137566137566 89.1005291005291,17.98941798941799 89.52380952380953,18.624338624338627 89.73544973544975,19.25925925925926 89.94708994708995,19.894179894179896 89.94708994708995,20.529100529100532 90.15873015873017,21.164021164021165 89.94708994708995,21.7989417989418 89.94708994708995,22.433862433862437 89.52380952380953,23.06878306878307 89.31216931216932,23.703703703703706 88.8888888888889,24.12698412698413 88.46560846560847,24.761904761904763 88.04232804232805,25.185185185185187 87.61904761904762,25.60846560846561 87.1957671957672,26.031746031746035 86.56084656084657,26.455026455026456 86.13756613756614,26.87830687830688 85.71428571428572,27.301587301587304 85.07936507936509,27.724867724867728 84.65608465608466,28.14814814814815 84.02116402116403,28.571428571428573 83.3862433862434,28.994708994708997 82.96296296296298,29.41798941798942 82.32804232804233,29.841269841269842 81.90476190476191,30.264550264550266 81.26984126984128,30.68783068783069 80.84656084656085,31.111111111111114 80.42328042328043,31.53439153439154 80.0,32.16931216931217 79.57671957671958,32.592592592592595 79.15343915343917,33.01587301587302 78.73015873015873,33.43915343915344 78.30687830687832,34.074074074074076 77.88359788359789,34.4973544973545 77.46031746031747,35.13227513227513 77.03703703703704,35.76719576719577 76.61375661375662,36.402116402116405 76.19047619047619,37.03703703703704 75.97883597883599,37.67195767195768 75.55555555555556,38.30687830687831 75.34391534391536,38.94179894179894 75.13227513227514,39.57671957671958 74.70899470899471,40.211640211640216 74.70899470899471,40.84656084656085 74.70899470899471,41.48148148148149 74.49735449735451,42.11640211640212 74.49735449735451,42.75132275132275 74.49735449735451,43.386243386243386 74.70899470899471,44.021164021164026 74.92063492063492,44.65608465608466 75.13227513227514,45.29100529100529 75.34391534391536,45.92592592592593 75.76719576719577,46.560846560846564 75.97883597883599,47.195767195767196 76.4021164021164,47.830687830687836 76.61375661375662,48.46560846560847 77.03703703703704,48.88888888888889 77.46031746031747,49.523809523809526 77.88359788359789,50.158730158730165 78.30687830687832,50.7936507936508 78.73015873015873,51.42857142857143 79.15343915343917,51.851851851851855 79.57671957671958,52.27513227513228 80.0,52.91005291005291 80.42328042328043,53.333333333333336 80.84656084656085,53.75661375661376 81.26984126984128,54.179894179894184 81.6931216931217,54.60317460317461 82.11640211640213,55.02645502645503 82.75132275132276,55.449735449735456 83.17460317460318,55.87301587301588 83.80952380952381,56.2962962962963 84.44444444444446,56.50793650793651 84.86772486772487,56.93121693121694 85.5026455026455,57.35449735449736 85.92592592592594,57.777777777777786 86.56084656084657,57.989417989417994 87.1957671957672,58.2010582010582 87.83068783068784,58.62433862433863 88.46560846560847,58.83597883597884 89.1005291005291,59.04761904761905 89.73544973544975,59.470899470899475 90.37037037037038,59.682539682539684 91.00529100529101,59.8941798941799 91.42857142857143,60.31746031746032 92.06349206349208,60.31746031746032 92.69841269841271,60.52910052910053 93.33333333333334,60.74074074074075 93.96825396825398,60.74074074074075 94.60317460317461,61.16402116402117 95.23809523809524,61.16402116402117 95.87301587301587,61.37566137566138 96.50793650793652,61.16402116402117 97.14285714285715,61.37566137566138 97.77777777777779,61.37566137566138 98.41269841269842,61.58730158730159 99.04761904761905,61.58730158730159 99.68253968253968,61.58730158730159 100.31746031746033,61.798941798941804 100.95238095238096,61.58730158730159 101.5873015873016,61.58730158730159 102.22222222222223,61.798941798941804 102.85714285714286,62.01058201058201 103.4920634920635,62.01058201058201 104.12698412698414,62.01058201058201 104.55026455026456,61.58730158730159 105.18518518518519,61.798941798941804 105.82010582010582,61.58730158730159 106.45502645502647,61.58730158730159 107.0899470899471,61.58730158730159 107.72486772486774,61.37566137566138 108.35978835978837,61.37566137566138 108.994708994709,61.37566137566138 109.62962962962963,61.16402116402117 110.26455026455027,60.952380952380956 110.89947089947091,60.74074074074075 111.53439153439155,60.52910052910053 111.95767195767196,60.10582010582011 112.5925925925926,59.682539682539684 113.01587301587303,59.25925925925927 113.43915343915344,58.83597883597884 113.86243386243387,58.41269841269842 114.28571428571429,57.989417989417994 114.49735449735451,57.35449735449736 114.92063492063492,56.93121693121694 115.34391534391536,56.2962962962963 115.55555555555557,55.661375661375665 115.97883597883599,55.02645502645503 116.1904761904762,54.39153439153439 116.4021164021164,53.75661375661376 116.61375661375662,53.12169312169313 116.82539682539684,52.48677248677249 116.82539682539684,51.851851851851855 117.03703703703705,51.21693121693122 116.82539682539684,50.58201058201058 116.82539682539684,49.94708994708995 117.03703703703705,49.31216931216932 117.03703703703705,48.677248677248684 117.03703703703705,48.042328042328045 117.03703703703705,47.40740740740741 117.03703703703705,46.77248677248678 116.82539682539684,46.13756613756614 116.82539682539684,45.50264550264551 116.61375661375662,44.867724867724874 116.61375661375662,44.232804232804234 116.4021164021164,43.5978835978836 116.1904761904762,42.96296296296297 115.97883597883599,42.32804232804233 115.76719576719577,41.6931216931217 115.55555555555557,41.058201058201064 115.55555555555557,40.423280423280424 115.34391534391536,39.78835978835979 115.13227513227514,39.15343915343916 114.92063492063492,38.51851851851852 114.70899470899472,37.883597883597886 114.49735449735451,37.248677248677254 114.28571428571429,36.613756613756614 114.28571428571429,35.97883597883598 114.07407407407408,35.34391534391535 113.86243386243387,34.70899470899471 113.65079365079366,34.074074074074076 113.65079365079366,33.43915343915344 113.43915343915344,32.804232804232804 113.22751322751324,32.16931216931217 113.22751322751324,31.53439153439154 113.22751322751324,30.899470899470902 113.22751322751324,30.264550264550266 113.43915343915344,29.629629629629633 113.43915343915344,28.994708994708997 113.65079365079366,28.35978835978836 113.86243386243387,27.724867724867728 114.28571428571429,27.089947089947092 114.70899470899472,26.455026455026456 115.13227513227514,26.031746031746035 115.55555555555557,25.60846560846561 116.1904761904762,25.185185185185187 116.82539682539684,24.973544973544975 117.24867724867725,24.55026455026455 117.88359788359789,24.338624338624342 118.51851851851853,24.338624338624342 119.15343915343917,24.338624338624342 119.7883597883598,24.338624338624342 120.42328042328043,24.12698412698413 121.05820105820106,24.12698412698413 121.6931216931217,24.338624338624342 122.32804232804234,24.55026455026455 122.96296296296298,24.338624338624342 123.59788359788361,24.55026455026455 124.23280423280424,24.55026455026455 124.86772486772487,24.55026455026455 125.5026455026455,24.55026455026455 125.92592592592594,24.973544973544975 126.56084656084657,25.185185185185187 127.1957671957672,25.185185185185187 127.83068783068784,25.185185185185187 128.46560846560848,25.185185185185187 129.10052910052912,25.3968253968254 129.73544973544975,25.3968253968254 130.37037037037038,25.60846560846561 131.005291005291,25.60846560846561 131.64021164021165,25.820105820105823 132.27513227513228,25.820105820105823 132.6984126984127,26.243386243386244 133.33333333333334,26.031746031746035 133.96825396825398,26.243386243386244 134.6031746031746,26.243386243386244 135.23809523809524,26.666666666666668 135.87301587301587,26.666666666666668 136.5079365079365,26.87830687830688 137.14285714285717,26.87830687830688 137.7777777777778,27.301587301587304 138.41269841269843,27.301587301587304 139.04761904761907,27.513227513227516 139.47089947089947,27.089947089947092 140.10582010582013,27.301587301587304 140.74074074074076,27.513227513227516 141.3756613756614,27.724867724867728 142.01058201058203,27.724867724867728 142.64550264550266,27.93650793650794 143.2804232804233,28.14814814814815 143.91534391534393,28.35978835978836 144.55026455026456,28.35978835978836 145.1851851851852,28.571428571428573 145.82010582010582,28.571428571428573 146.45502645502646,28.783068783068785 147.0899470899471,28.994708994708997 147.72486772486775,29.20634920634921 148.35978835978838,29.41798941798942 148.99470899470901,29.41798941798942 149.62962962962965,29.629629629629633 150.26455026455028,29.841269841269842 150.8994708994709,29.841269841269842 151.53439153439155,30.264550264550266 152.16931216931218,30.264550264550266 152.8042328042328,30.264550264550266 153.22751322751324,30.68783068783069 153.86243386243387,30.68783068783069 154.4973544973545,30.899470899470902 155.13227513227514,31.111111111111114 155.76719576719577,31.322751322751326 156.4021164021164,31.53439153439154 157.03703703703704,31.53439153439154 157.67195767195767,31.746031746031747 158.30687830687833,31.95767195767196 158.94179894179896,32.16931216931217 159.5767195767196,32.16931216931217 160.21164021164023,32.38095238095239 160.84656084656086,32.804232804232804 161.4814814814815,32.804232804232804 162.11640211640213,33.22751322751323 162.75132275132276,33.22751322751323 163.3862433862434,33.65079365079365 164.02116402116403,33.65079365079365 166.984126984127,34.4973544973545" style="fill:none; stroke:#cc0000; stroke-width:1.0"  /><polyline points="166.984126984127,34.4973544973545 167.61904761904762,38.095238095238095 167.83068783068785,38.730158730158735 167.83068783068785,39.36507936507937 168.04232804232805,40.0 168.04232804232805,40.63492063492064 168.04232804232805,41.26984126984127 168.25396825396825,41.904761904761905 168.25396825396825,42.539682539682545 168.46560846560848,43.17460317460318 168.46560846560848,43.80952380952381 168.67724867724868,44.44444444444445 168.8888888888889,45.07936507936508 168.8888888888889,45.714285714285715 168.8888888888889,46.349206349206355 169.10052910052912,46.98412698412699 169.31216931216932,47.61904761904762 169.31216931216932,48.25396825396826 169.52380952380955,48.88888888888889 169.73544973544975,49.523809523809526 169.73544973544975,50.158730158730165 169.94708994708995,50.7936507936508 170.15873015873018,51.42857142857143 170.37037037037038,52.06349206349207 170.37037037037038,52.6984126984127 170.37037037037038,53.333333333333336 170.37037037037038,53.968253968253975 170.37037037037038,54.60317460317461 170.37037037037038,55.23809523809524 170.15873015873018,55.87301587301588 170.15873015873018,56.50793650793651 169.94708994708995,57.142857142857146 169.94708994708995,57.777777777777786 169.52380952380955,58.41269841269842 169.31216931216932,59.04761904761905 168.8888888888889,59.682539682539684 168.46560846560848,60.10582010582011 167.83068783068785,60.52910052910053 167.19576719576722,60.74074074074075 166.56084656084658,61.16402116402117 165.92592592592595,61.37566137566138 165.2910052910053,61.58730158730159 164.65608465608466,61.798941798941804 164.02116402116403,62.01058201058201 163.3862433862434,62.01058201058201 162.75132275132276,62.22222222222223 162.11640211640213,62.43386243386244 161.4814814814815,62.43386243386244 160.84656084656086,62.64550264550265 160.21164021164023,62.85714285714286 159.5767195767196,62.85714285714286 158.94179894179896,62.85714285714286 158.30687830687833,62.85714285714286 157.67195767195767,63.06878306878308 157.03703703703704,62.85714285714286 156.4021164021164,62.85714285714286 155.76719576719577,62.85714285714286 155.13227513227514,62.85714285714286 154.4973544973545,62.64550264550265 153.86243386243387,62.64550264550265 153.22751322751324,62.43386243386244 152.5925925925926,62.43386243386244 151.95767195767198,62.22222222222223 151.32275132275134,62.01058201058201 150.6878306878307,61.798941798941804 150.05291005291005,61.58730158730159 149.41798941798942,61.58730158730159 148.78306878306879,61.37566137566138 148.14814814814815,61.16402116402117 147.51322751322752,61.16402116402117 146.8783068783069,60.952380952380956 146.24338624338625,60.952380952380956 145.60846560846562,60.952380952380956 144.973544973545,60.952380952380956 144.33862433862436,61.16402116402117 143.70370370370372,61.16402116402117 143.0687830687831,61.37566137566138 142.43386243386246,61.58730158730159 141.7989417989418,61.798941798941804 141.16402116402116,62.01058201058201 140.52910052910053,62.22222222222223 139.8941798941799,62.43386243386244 139.25925925925927,62.85714285714286 138.83597883597884,63.280423280423285 138.2010582010582,63.70370370370371 137.56613756613757,64.12698412698413 137.14285714285717,64.55026455026456 136.71957671957674,64.97354497354497 136.2962962962963,65.60846560846561 135.87301587301587,66.03174603174604 135.44973544973547,66.66666666666667 135.02645502645504,67.08994708994709 134.6031746031746,67.72486772486774 134.17989417989418,68.35978835978837 133.75661375661377,68.994708994709 133.54497354497354,69.62962962962963 133.12169312169314,70.05291005291006 132.9100529100529,70.6878306878307 132.4867724867725,71.11111111111111 132.27513227513228,71.74603174603175 131.85185185185185,72.38095238095238 131.64021164021165,73.01587301587303 131.42857142857144,73.65079365079366 131.21693121693121,74.28571428571429 131.005291005291,74.92063492063492 130.7936507936508,75.55555555555556 130.58201058201058,76.19047619047619 130.58201058201058,76.82539682539684 130.37037037037038,77.46031746031747 130.37037037037038,78.0952380952381 130.15873015873018,78.73015873015873 130.15873015873018,79.36507936507937 130.15873015873018,80.0 129.94708994708995,80.63492063492065 129.94708994708995,81.26984126984128 129.94708994708995,81.90476190476191 129.94708994708995,82.53968253968254 129.94708994708995,83.17460317460318 130.15873015873018,83.80952380952381 130.15873015873018,84.44444444444446 130.15873015873018,85.07936507936509 130.37037037037038,85.71428571428572 130.7936507936508,86.34920634920636 130.7936507936508,86.98412698412699 131.005291005291,87.61904761904762 131.21693121693121,88.25396825396827 131.42857142857144,88.8888888888889 131.64021164021165,89.52380952380953 132.06349206349208,89.94708994708995 132.27513227513228,90.58201058201058 132.4867724867725,91.21693121693123 132.9100529100529,91.85185185185186 133.33333333333334,92.4867724867725 133.54497354497354,93.12169312169313 133.96825396825398,93.54497354497356 134.3915343915344,93.96825396825398 134.81481481481484,94.60317460317461 135.23809523809524,95.02645502645504 135.66137566137567,95.44973544973546 136.0846560846561,95.87301587301587 136.5079365079365,96.2962962962963 137.14285714285717,96.71957671957672 137.7777777777778,97.14285714285715 138.41269841269843,97.56613756613757 139.04761904761907,97.77777777777779 139.6825396825397,97.989417989418 140.31746031746033,98.2010582010582 140.95238095238096,98.41269841269842 141.5873015873016,98.83597883597885 142.22222222222223,99.04761904761905 142.85714285714286,99.25925925925927 143.4920634920635,99.47089947089948 144.12698412698413,99.47089947089948 144.76190476190476,99.47089947089948 145.39682539682542,99.68253968253968 146.03174603174605,99.47089947089948 146.66666666666669,99.68253968253968 147.30158730158732,99.8941798941799 147.93650793650795,99.8941798941799 148.57142857142858,99.68253968253968 149.20634920634922,99.68253968253968 149.84126984126985,99.68253968253968 150.47619047619048,99.68253968253968 151.11111111111111,99.68253968253968 151.74603174603175,99.68253968253968 152.38095238095238,99.8941798941799 153.01587301587304,99.8941798941799 153.65079365079367,100.10582010582011 154.2857142857143,100.31746031746033 154.92063492063494,100.52910052910053 155.55555555555557,100.74074074074075 156.1904761904762,100.95238095238096 156.82539682539684,101.16402116402116 157.46031746031747,101.5873015873016 158.0952380952381,102.01058201058201 158.51851851851853,102.43386243386244 158.94179894179896,102.85714285714286 159.36507936507937,103.28042328042329 159.7883597883598,103.91534391534393 160.0,104.55026455026456 160.42328042328043,105.18518518518519 160.42328042328043,105.82010582010582 160.63492063492066,106.45502645502647 160.63492063492066,107.0899470899471 160.63492063492066,107.72486772486774 160.63492063492066,108.35978835978837 160.42328042328043,108.994708994709 160.42328042328043,109.62962962962963 160.21164021164023,110.26455026455027 160.0,110.89947089947091 159.7883597883598,111.53439153439155 159.36507936507937,112.16931216931218 159.15343915343917,112.80423280423281 158.94179894179896,113.43915343915344 158.73015873015873,114.07407407407408 158.30687830687833,114.70899470899472 158.0952380952381,115.34391534391536 157.67195767195767,115.97883597883599 157.24867724867727,116.61375661375662 157.03703703703704,117.24867724867725 156.61375661375664,117.88359788359789 156.4021164021164,118.51851851851853 155.978835978836,119.15343915343917 155.76719576719577,119.7883597883598 155.34391534391534,120.42328042328043 155.34391534391534,121.05820105820106 155.13227513227514,121.6931216931217 154.7089947089947,122.32804232804234 154.2857142857143,122.96296296296298 154.07407407407408,123.59788359788361 153.86243386243387,124.23280423280424 153.43915343915344,124.86772486772487 153.22751322751324,125.5026455026455 153.01587301587304,126.13756613756615 152.5925925925926,126.77248677248679 152.38095238095238,127.40740740740742 152.16931216931218,128.04232804232805 151.95767195767198,128.67724867724868 151.74603174603175,129.31216931216932 151.32275132275134,129.94708994708995 151.11111111111111,130.58201058201058 150.8994708994709,131.21693121693121 150.6878306878307,131.85185185185185 150.47619047619048,132.4867724867725 150.26455026455028,133.12169312169314 149.84126984126985,133.75661375661377 149.62962962962965,134.3915343915344 149.41798941798942,135.02645502645504 149.20634920634922,135.66137566137567 148.99470899470901,136.2962962962963 148.78306878306879,136.93121693121694 148.57142857142858,137.56613756613757 148.35978835978838,138.2010582010582 148.14814814814815,138.83597883597884 147.72486772486775,139.47089947089947 147.72486772486775,140.10582010582013 147.51322751322752,140.74074074074076 147.0899470899471,141.3756613756614 146.8783068783069,142.01058201058203 146.66666666666669,142.64550264550266 146.45502645502646,143.2804232804233 146.24338624338625,143.91534391534393 146.03174603174605,144.55026455026456 145.82010582010582,145.1851851851852 145.82010582010582,145.82010582010582 145.60846560846562,146.45502645502646 144.55026455026456,149.41798941798942" style="fill:none; stroke:#999900; stroke-width:1.0"  /><polyline points="144.55026455026456,149.41798941798942 141.5873015873016,149.41798941798942 140.95238095238096,149.41798941798942 140.31746031746033,149.41798941798942 139.6825396825397,149.41798941798942 139.04761904761907,149.41798941798942 138.41269841269843,149.41798941798942 137.7777777777778,149.41798941798942 137.14285714285717,149.41798941798942 136.5079365079365,149.41798941798942 135.87301587301587,149.41798941798942 135.23809523809524,149.41798941798942 134.6031746031746,149.41798941798942 133.96825396825398,149.41798941798942 133.33333333333334,149.41798941798942 132.6984126984127,149.62962962962965 132.06349206349208,149.62962962962965 131.42857142857144,149.62962962962965 130.7936507936508,149.62962962962965 130.15873015873018,149.62962962962965 129.52380952380955,149.62962962962965 128.88888888888889,149.62962962962965 128.25396825396825,149.62962962962965 127.61904761904763,149.84126984126985 126.98412698412699,149.84126984126985 126.34920634920636,149.84126984126985 125.71428571428572,149.84126984126985 125.07936507936509,149.84126984126985 124.44444444444446,149.84126984126985 123.80952380952382,150.05291005291005 123.17460317460318,150.05291005291005 122.53968253968254,150.05291005291005 121.90476190476191,150.26455026455028 121.26984126984128,150.26455026455028 120.63492063492065,150.47619047619048 120.00000000000001,150.47619047619048 119.36507936507937,150.47619047619048 118.73015873015873,150.6878306878307 118.0952380952381,150.6878306878307 117.46031746031747,150.8994708994709 116.82539682539684,150.8994708994709 116.1904761904762,151.11111111111111 115.55555555555557,151.11111111111111 114.92063492063492,151.32275132275134 114.28571428571429,151.32275132275134 113.65079365079366,151.53439153439155 113.01587301587303,151.74603174603175 112.3809523809524,151.74603174603175 111.74603174603176,151.95767195767198 111.11111111111111,151.95767195767198 110.47619047619048,152.16931216931218 109.84126984126985,152.38095238095238 109.20634920634922,152.38095238095238 108.57142857142858,152.38095238095238 107.93650793650795,152.5925925925926 107.3015873015873,152.8042328042328 106.66666666666667,153.01587301587304 106.03174603174604,153.01587301587304 105.3968253968254,153.22751322751324 104.76190476190477,153.43915343915344 104.12698412698414,153.65079365079367 103.4920634920635,153.86243386243387 102.85714285714286,154.07407407407408 102.22222222222223,154.07407407407408 101.5873015873016,154.2857142857143 100.95238095238096,154.4973544973545 100.31746031746033,154.7089947089947 99.68253968253968,154.92063492063494 99.04761904761905,155.13227513227514 98.41269841269842,155.13227513227514 97.77777777777779,155.34391534391534 97.14285714285715,155.55555555555557 96.50793650793652,155.55555555555557 95.87301587301587,155.76719576719577 95.23809523809524,155.978835978836 94.60317460317461,156.1904761904762 93.96825396825398,156.4021164021164 93.33333333333334,156.61375661375664 92.69841269841271,156.82539682539684 92.06349206349208,157.03703703703704 91.42857142857143,157.24867724867727 90.7936507936508,157.46031746031747 90.15873015873017,157.67195767195767 89.52380952380953,157.8835978835979 88.8888888888889,158.0952380952381 88.25396825396827,158.30687830687833 87.61904761904762,158.51851851851853 86.98412698412699,158.73015873015873 86.34920634920636,158.94179894179896 85.71428571428572,158.94179894179896 85.07936507936509,159.15343915343917 84.44444444444446,159.15343915343917 83.80952380952381,159.15343915343917 83.17460317460318,159.15343915343917 82.53968253968254,158.94179894179896 81.90476190476191,158.94179894179896 81.26984126984128,158.73015873015873 80.63492063492065,158.51851851851853 80.0,158.30687830687833 79.36507936507937,157.8835978835979 78.73015873015873,157.67195767195767 78.30687830687832,157.24867724867727 77.88359788359789,156.82539682539684 77.46031746031747,156.1904761904762 77.03703703703704,155.76719576719577 76.82539682539684,155.13227513227514 76.61375661375662,154.4973544973545 76.61375661375662,153.86243386243387 76.61375661375662,153.22751322751324 76.61375661375662,152.5925925925926 76.61375661375662,151.95767195767198 76.82539682539684,151.32275132275134 76.82539682539684,150.6878306878307 77.03703703703704,150.05291005291005 77.24867724867725,149.41798941798942 77.46031746031747,148.78306878306879 77.67195767195767,148.14814814814815 78.0952380952381,147.51322751322752 78.51851851851852,146.8783068783069 78.73015873015873,146.24338624338625 79.15343915343917,145.82010582010582 79.57671957671958,145.1851851851852 80.0,144.76190476190476 80.42328042328043,144.33862433862436 80.84656084656085,143.91534391534393 81.26984126984128,143.2804232804233 81.90476190476191,142.85714285714286 82.32804232804233,142.43386243386246 82.75132275132276,142.01058201058203 83.17460317460318,141.5873015873016 83.80952380952381,141.16402116402116 84.23280423280424,140.74074074074076 84.86772486772487,140.31746031746033 85.29100529100529,139.6825396825397 85.71428571428572,139.25925925925927 86.13756613756614,138.83597883597884 86.56084656084657,138.41269841269843 86.98412698412699,137.7777777777778 87.40740740740742,137.14285714285717 87.83068783068784,136.5079365079365 88.04232804232805,135.87301587301587 88.46560846560847,135.44973544973547 88.67724867724868,134.81481481481484 88.8888888888889,134.17989417989418 89.31216931216932,133.54497354497354 89.52380952380953,132.9100529100529 89.73544973544975,132.27513227513228 89.94708994708995,131.64021164021165 90.15873015873017,131.005291005291 90.37037037037038,130.37037037037038 90.37037037037038,129.73544973544975 90.37037037037038,129.10052910052912 90.58201058201058,128.46560846560848 90.58201058201058,127.83068783068784 90.58201058201058,127.1957671957672 90.58201058201058,126.56084656084657 90.58201058201058,125.92592592592594 90.37037037037038,125.2910052910053 90.15873015873017,124.65608465608466 89.94708994708995,124.02116402116403 89.73544973544975,123.3862433862434 89.31216931216932,122.75132275132276 88.8888888888889,122.11640211640213 88.67724867724868,121.4814814814815 88.25396825396827,121.05820105820106 87.83068783068784,120.63492063492065 87.40740740740742,120.21164021164022 86.98412698412699,119.57671957671958 86.56084656084657,119.15343915343917 86.13756613756614,118.51851851851853 85.71428571428572,118.0952380952381 85.29100529100529,117.67195767195768 84.86772486772487,117.24867724867725 84.44444444444446,116.82539682539684 84.02116402116403,116.4021164021164 83.3862433862434,115.97883597883599 82.96296296296298,115.55555555555557 82.53968253968254,115.13227513227514 81.90476190476191,114.70899470899472 81.26984126984128,114.28571428571429 80.63492063492065,113.86243386243387 80.0,113.43915343915344 79.36507936507937,113.22751322751324 78.73015873015873,112.80423280423281 78.0952380952381,112.3809523809524 77.46031746031747,112.16931216931218 76.82539682539684,111.95767195767196 76.19047619047619,111.74603174603176 75.55555555555556,111.53439153439155 74.92063492063492,111.32275132275133 74.28571428571429,111.11111111111111 73.65079365079366,110.89947089947091 73.01587301587303,110.6878306878307 72.38095238095238,110.6878306878307 71.74603174603175,110.6878306878307 71.11111111111111,110.47619047619048 70.47619047619048,110.26455026455027 69.84126984126985,110.26455026455027 69.20634920634922,110.47619047619048 68.57142857142858,110.26455026455027 67.93650793650794,110.26455026455027 67.3015873015873,110.26455026455027 66.66666666666667,110.26455026455027 66.03174603174604,110.26455026455027 65.3968253968254,110.26455026455027 64.76190476190477,110.47619047619048 64.12698412698413,110.47619047619048 63.492063492063494,110.47619047619048 62.85714285714286,110.47619047619048 62.22222222222223,110.6878306878307 61.58730158730159,110.6878306878307 60.952380952380956,110.89947089947091 60.31746031746032,111.11111111111111 59.682539682539684,111.11111111111111 59.04761904761905,111.32275132275133 58.41269841269842,111.53439153439155 57.777777777777786,111.74603174603176 57.142857142857146,111.95767195767196 56.50793650793651,112.16931216931218 55.87301587301588,112.5925925925926 55.23809523809524,112.80423280423281 54.60317460317461,113.22751322751324 53.968253968253975,113.43915343915344 53.333333333333336,113.86243386243387 52.6984126984127,114.28571428571429 52.06349206349207,114.70899470899472 51.42857142857143,115.13227513227514 50.7936507936508,115.55555555555557 50.158730158730165,115.97883597883599 49.73544973544974,116.4021164021164 49.31216931216932,116.82539682539684 48.88888888888889,117.24867724867725 48.46560846560847,117.67195767195768 48.042328042328045,118.0952380952381 47.61904761904762,118.51851851851853 47.195767195767196,118.94179894179895 46.77248677248678,119.57671957671958 46.349206349206355,120.21164021164022 46.13756613756614,120.84656084656086 46.13756613756614,121.4814814814815 45.92592592592593,122.11640211640213 45.714285714285715,122.75132275132276 45.714285714285715,123.3862433862434 45.714285714285715,124.02116402116403 45.50264550264551,124.65608465608466 45.50264550264551,125.2910052910053 45.50264550264551,125.92592592592594 45.50264550264551,126.56084656084657 45.50264550264551,127.1957671957672 45.50264550264551,127.83068783068784 45.714285714285715,128.46560846560848 45.714285714285715,129.10052910052912 45.714285714285715,129.73544973544975 45.92592592592593,130.37037037037038 45.92592592592593,131.005291005291 46.13756613756614,131.64021164021165 46.349206349206355,132.27513227513228 46.560846560846564,132.9100529100529 46.77248677248678,133.54497354497354 47.195767195767196,133.96825396825398 47.195767195767196,134.6031746031746 47.40740740740741,135.23809523809524 47.830687830687836,135.87301587301587 48.042328042328045,136.5079365079365 48.25396825396826,137.14285714285717 48.677248677248684,137.7777777777778 48.88888888888889,138.41269841269843 49.1005291005291,139.04761904761907 49.1005291005291,139.6825396825397 49.31216931216932,140.31746031746033 49.31216931216932,140.95238095238096 49.31216931216932,141.5873015873016 49.31216931216932,142.22222222222223 49.31216931216932,142.85714285714286 49.31216931216932,143.4920634920635 49.1005291005291,144.12698412698413 49.1005291005291,144.76190476190476 49.1005291005291,145.39682539682542 48.88888888888889,146.03174603174605 48.677248677248684,146.66666666666669 48.46560846560847,147.30158730158732 48.042328042328045,147.93650793650795 47.830687830687836,148.57142857142858 47.40740740740741,149.20634920634922 46.98412698412699,149.84126984126985 46.560846560846564,150.47619047619048 46.13756613756614,150.8994708994709 45.50264550264551,151.32275132275134 44.867724867724874,151.74603174603175 44.232804232804234,152.16931216931218 43.5978835978836,152.38095238095238 42.96296296296297,152.8042328042328 42.32804232804233,153.01587301587304 41.6931216931217,153.22751322751324 41.058201058201064,153.43915343915344 40.423280423280424,153.65079365079367 39.78835978835979,153.65079365079367 39.15343915343916,153.86243386243387 38.51851851851852,153.86243386243387 37.883597883597886,154.07407407407408 37.248677248677254,154.07407407407408 36.613756613756614,154.07407407407408 35.97883597883598,154.07407407407408 35.34391534391535,154.2857142857143 34.70899470899471,154.2857142857143 34.074074074074076,154.4973544973545 33.43915343915344,154.4973544973545 32.804232804232804,154.4973544973545 32.16931216931217,154.4973544973545 31.53439153439154,154.4973544973545 30.899470899470902,154.4973544973545 30.264550264550266,154.4973544973545 29.629629629629633,154.2857142857143 28.994708994708997,154.2857142857143 28.35978835978836,154.07407407407408 27.724867724867728,154.07407407407408 27.089947089947092,154.07407407407408 26.455026455026456,153.86243386243387 25.820105820105823,153.65079365079367 25.185185185185187,153.65079365079367 24.55026455026455,153.43915343915344 23.915343915343918,153.22751322751324 23.280423280423282,153.22751322751324 22.645502645502646,153.01587301587304 22.010582010582013,152.8042328042328 21.375661375661377,152.8042328042328 20.740740740740744,152.5925925925926 20.105820105820108,152.38095238095238 19.47089947089947,152.16931216931218 18.83597883597884,151.95767195767198 18.201058201058203,151.74603174603175 17.566137566137566,151.53439153439155 16.931216931216934,151.32275132275134 16.296296296296298,151.11111111111111 15.661375661375663,150.8994708994709 15.026455026455027,150.8994708994709 14.391534391534393,150.6878306878307 13.756613756613758,150.47619047619048 13.121693121693122,150.05291005291005 12.486772486772487,149.84126984126985 11.851851851851853,149.62962962962965 11.216931216931219,149.41798941798942 10.582010582010582,149.20634920634922 9.947089947089948,148.78306878306879 9.312169312169313,148.57142857142858 8.677248677248677,148.35978835978838 8.042328042328043,148.14814814814815 7.407407407407408,147.93650793650795 4.444444444444445,146.8783068783069" style="fill:none; stroke:#00aa99; stroke-width:1.0"  /><polyline points="4.444444444444445,146.8783068783069 4.656084656084657,143.2804232804233 4.656084656084657,142.64550264550266 4.656084656084657,142.01058201058203 4.656084656084657,141.3756613756614 4.867724867724868,140.74074074074076 4.867724867724868,140.10582010582013 4.867724867724868,139.47089947089947 5.07936507936508,138.83597883597884 5.07936507936508,138.2010582010582 5.07936507936508,137.56613756613757 5.07936507936508,136.93121693121694 5.291005291005291,136.2962962962963 5.291005291005291,135.66137566137567 5.291005291005291,135.02645502645504 5.291005291005291,134.3915343915344 5.502645502645503,133.75661375661377 5.502645502645503,133.12169312169314 5.502645502645503,132.4867724867725 5.502645502645503,131.85185185185185 5.502645502645503,131.21693121693121 5.502645502645503,130.58201058201058 5.714285714285714,129.94708994708995 5.714285714285714,129.31216931216932 5.714285714285714,128.67724867724868 5.714285714285714,128.04232804232805 5.9259259259259265,127.40740740740742 5.9259259259259265,126.77248677248679 5.9259259259259265,126.13756613756615 5.9259259259259265,125.5026455026455 5.9259259259259265,124.86772486772487 5.9259259259259265,124.23280423280424 5.9259259259259265,123.59788359788361 6.137566137566138,122.96296296296298 6.137566137566138,122.32804232804234 6.137566137566138,121.6931216931217 5.9259259259259265,121.05820105820106 5.9259259259259265,120.42328042328043 5.9259259259259265,119.7883597883598 5.9259259259259265,119.15343915343917 6.137566137566138,118.51851851851853 6.137566137566138,117.88359788359789 6.137566137566138,117.24867724867725 6.137566137566138,116.61375661375662 6.137566137566138,115.97883597883599 6.137566137566138,115.34391534391536 6.137566137566138,114.70899470899472 6.137566137566138,114.07407407407408 6.137566137566138,113.43915343915344 6.34920634920635,112.80423280423281 6.34920634920635,112.16931216931218 6.34920634920635,111.53439153439155 6.34920634920635,110.89947089947091 6.34920634920635,110.26455026455027 6.34920634920635,109.62962962962963 6.560846560846561,108.994708994709 6.560846560846561,108.35978835978837 6.560846560846561,107.72486772486774 6.560846560846561,107.0899470899471 6.560846560846561,106.45502645502647 6.560846560846561,105.82010582010582 6.560846560846561,105.18518518518519 6.560846560846561,104.55026455026456 6.772486772486773,103.91534391534393 6.772486772486773,103.28042328042329 6.772486772486773,102.64550264550266 6.772486772486773,102.01058201058201 6.772486772486773,101.37566137566138 6.772486772486773,100.74074074074075 6.772486772486773,100.10582010582011 6.772486772486773,99.47089947089948 6.772486772486773,98.83597883597885 6.772486772486773,98.2010582010582 6.772486772486773,97.56613756613757 6.772486772486773,96.93121693121694 6.772486772486773,96.2962962962963 6.984126984126985,95.66137566137567 6.984126984126985,95.02645502645504 6.984126984126985,94.39153439153439 6.984126984126985,93.75661375661376 6.984126984126985,93.12169312169313 6.984126984126985,92.4867724867725 6.984126984126985,91.85185185185186 6.984126984126985,91.21693121693123 6.984126984126985,90.58201058201058 6.984126984126985,89.94708994708995 6.984126984126985,89.31216931216932 6.984126984126985,88.67724867724868 6.984126984126985,88.04232804232805 6.984126984126985,87.40740740740742 6.984126984126985,86.77248677248677 6.772486772486773,86.13756613756614 6.772486772486773,85.5026455026455 6.772486772486773,84.86772486772487 6.772486772486773,84.23280423280424 6.772486772486773,83.59788359788361 6.772486772486773,82.96296296296298 6.772486772486773,82.32804232804233 6.772486772486773,81.6931216931217 6.772486772486773,81.05820105820106 6.772486772486773,80.42328042328043 6.772486772486773,79.7883597883598 6.772486772486773,79.15343915343917 6.772486772486773,78.51851851851852 6.772486772486773,77.88359788359789 6.772486772486773,77.24867724867725 6.984126984126985,76.61375661375662 6.984126984126985,75.97883597883599 7.195767195767196,75.34391534391536 7.407407407407408,74.70899470899471 7.6190476190476195,74.07407407407408 8.042328042328043,73.43915343915344 8.465608465608467,73.01587301587303 8.88888888888889,72.38095238095238 9.523809523809524,71.95767195767196 10.15873015873016,71.74603174603175 10.793650793650794,71.53439153439155 11.428571428571429,71.32275132275133 12.063492063492065,71.32275132275133 12.6984126984127,71.32275132275133 13.333333333333334,71.32275132275133 13.96825396825397,71.32275132275133 14.603174603174605,71.32275132275133 15.238095238095239,71.53439153439155 15.873015873015873,71.53439153439155 16.50793650793651,71.74603174603175 17.142857142857146,71.74603174603175 17.77777777777778,72.16931216931218 18.412698412698415,72.16931216931218 19.047619047619047,72.5925925925926 19.682539682539684,72.5925925925926 20.105820105820108,73.01587301587303 20.740740740740744,73.22751322751323 21.164021164021165,73.65079365079366 21.7989417989418,73.86243386243387 22.222222222222225,74.28571428571429 22.857142857142858,74.49735449735451 23.280423280423282,74.92063492063492 23.915343915343918,75.13227513227514 24.55026455026455,75.55555555555556 25.185185185185187,75.76719576719577 25.820105820105823,76.19047619047619 26.455026455026456,76.19047619047619 27.089947089947092,76.4021164021164 27.513227513227516,76.82539682539684 28.14814814814815,76.82539682539684 28.783068783068785,76.82539682539684 29.41798941798942,76.82539682539684 30.052910052910054,76.82539682539684 30.476190476190478,77.24867724867725 31.111111111111114,77.24867724867725 31.746031746031747,77.24867724867725 32.38095238095239,77.03703703703704 33.01587301587302,77.03703703703704 33.65079365079365,77.03703703703704 34.28571428571429,76.82539682539684 34.920634920634924,76.4021164021164 35.55555555555556,76.4021164021164 36.19047619047619,76.19047619047619 36.82539682539683,75.97883597883599 37.46031746031746,75.76719576719577 38.095238095238095,75.34391534391536 38.730158730158735,74.92063492063492 39.36507936507937,74.70899470899471 39.78835978835979,74.28571428571429 40.423280423280424,73.86243386243387 40.84656084656085,73.43915343915344 41.48148148148149,73.01587301587303 41.904761904761905,72.38095238095238 42.32804232804233,71.95767195767196 42.75132275132275,71.32275132275133 43.17460317460318,70.6878306878307 43.5978835978836,70.05291005291006 43.80952380952381,69.41798941798942 44.232804232804234,68.994708994709 44.44444444444445,68.35978835978837 44.867724867724874,67.72486772486774 45.07936507936508,67.08994708994709 45.29100529100529,66.45502645502646 45.50264550264551,65.82010582010582 45.714285714285715,65.18518518518519 45.92592592592593,64.55026455026456 45.92592592592593,63.91534391534392 46.13756613756614,63.280423280423285 46.13756613756614,62.64550264550265 46.349206349206355,62.01058201058201 46.349206349206355,61.37566137566138 46.560846560846564,60.74074074074075 46.560846560846564,60.10582010582011 46.560846560846564,59.470899470899475 46.560846560846564,58.83597883597884 46.560846560846564,58.2010582010582 46.560846560846564,57.56613756613757 46.560846560846564,56.93121693121694 46.560846560846564,56.2962962962963 46.560846560846564,55.661375661375665 46.560846560846564,55.02645502645503 46.560846560846564,54.39153439153439 46.560846560846564,53.75661375661376 46.560846560846564,53.12169312169313 46.560846560846564,52.48677248677249 46.560846560846564,51.851851851851855 46.349206349206355,51.21693121693122 46.13756613756614,50.58201058201058 45.92592592592593,49.94708994708995 45.714285714285715,49.31216931216932 45.50264550264551,48.677248677248684 45.29100529100529,48.042328042328045 45.07936507936508,47.40740740740741 44.867724867724874,46.77248677248678 44.65608465608466,46.13756613756614 44.232804232804234,45.50264550264551 44.021164021164026,44.867724867724874 43.5978835978836,44.44444444444445 43.17460317460318,43.80952380952381 42.75132275132275,43.17460317460318 42.32804232804233,42.75132275132275 41.6931216931217,42.32804232804233 41.26984126984127,41.904761904761905 40.84656084656085,41.48148148148149 40.423280423280424,41.058201058201064 39.78835978835979,40.63492063492064 39.15343915343916,40.423280423280424 38.730158730158735,40.0 38.095238095238095,39.78835978835979 37.46031746031746,39.36507936507937 36.82539682539683,39.15343915343916 36.19047619047619,38.94179894179894 35.55555555555556,38.51851851851852 34.920634920634924,38.51851851851852 34.28571428571429,38.095238095238095 33.65079365079365,38.30687830687831 33.01587301587302,38.095238095238095 32.38095238095239,38.095238095238095 31.746031746031747,38.095238095238095 31.111111111111114,38.095238095238095 30.476190476190478,38.095238095238095 29.841269841269842,38.095238095238095 29.20634920634921,38.30687830687831 28.571428571428573,38.51851851851852 27.93650793650794,38.51851851851852 27.301587301587304,38.94179894179894 26.666666666666668,39.15343915343916 26.031746031746035,39.57671957671958 25.3968253968254,39.78835978835979 24.973544973544975,40.211640211640216 24.338624338624342,40.63492063492064 23.703703703703706,41.058201058201064 23.06878306878307,41.26984126984127 22.645502645502646,41.6931216931217 22.010582010582013,42.11640211640212 21.375661375661377,42.32804232804233 20.952380952380953,42.75132275132275 20.31746031746032,43.17460317460318 19.682539682539684,43.5978835978836 19.047619047619047,44.021164021164026 18.412698412698415,44.232804232804234 17.77777777777778,44.65608465608466 17.142857142857146,45.07936507936508 16.50793650793651,45.50264550264551 15.873015873015873,45.92592592592593 15.238095238095239,46.13756613756614 14.814814814814817,46.560846560846564 14.17989417989418,46.98412698412699 13.544973544973546,47.195767195767196 12.910052910052912,47.61904761904762 12.275132275132275,47.830687830687836 11.640211640211641,48.25396825396826 11.005291005291006,48.46560846560847 10.370370370370372,48.677248677248684 9.735449735449736,48.88888888888889 9.100529100529101,48.88888888888889 8.465608465608467,48.88888888888889 7.830687830687832,49.1005291005291 7.195767195767196,48.88888888888889 6.560846560846561,48.88888888888889 5.9259259259259265,48.677248677248684 5.291005291005291,48.46560846560847 4.656084656084657,48.042328042328045 4.021164021164021,47.61904761904762 3.597883597883598,47.195767195767196 3.174603174603175,46.77248677248678 2.7513227513227516,46.13756613756614 2.3280423280423284,45.50264550264551 2.1164021164021167,44.867724867724874 1.9047619047619049,44.232804232804234 1.6931216931216932,43.5978835978836 1.6931216931216932,42.96296296296297 1.4814814814814816,42.32804232804233 1.4814814814814816,41.6931216931217 1.4814814814814816,41.058201058201064 1.26984126984127,40.423280423280424 1.26984126984127,39.78835978835979 1.0582010582010584,39.15343915343916 1.0582010582010584,38.51851851851852 0.8465608465608466,37.883597883597886 0.8465608465608466,37.248677248677254 0.8465608465608466,36.613756613756614 0.8465608465608466,35.97883597883598 0.634920634920635,35.34391534391535 0.634920634920635,34.70899470899471 0.634920634920635,34.074074074074076 0.634920634920635,33.43915343915344 0.4232804232804233,32.804232804232804 0.4232804232804233,32.16931216931217 0.4232804232804233,31.53439153439154 0.4232804232804233,30.899470899470902 0.4232804232804233,30.264550264550266 0.4232804232804233,29.629629629629633 0.4232804232804233,28.994708994708997 0.4232804232804233,28.35978835978836 0.21164021164021166,27.724867724867728 0.21164021164021166,27.089947089947092 0.21164021164021166,26.455026455026456 0.4232804232804233,25.820105820105823 0.4232804232804233,25.185185185185187 0.4232804232804233,24.55026455026455 0.4232804232804233,23.915343915343918 0.4232804232804233,23.280423280423282 0.4232804232804233,22.645502645502646 0.4232804232804233,22.010582010582013 0.4232804232804233,21.375661375661377 0.4232804232804233,20.740740740740744 0.4232804232804233,20.105820105820108 0.634920634920635,19.47089947089947 0.634920634920635,18.83597883597884 0.634920634920635,18.201058201058203 0.634920634920635,17.566137566137566 0.8465608465608466,16.931216931216934 0.634920634920635,16.296296296296298 0.634920634920635,15.661375661375663 0.634920634920635,15.026455026455027 0.8465608465608466,14.391534391534393 0.8465608465608466,13.756613756613758 0.8465608465608466,13.121693121693122 1.0582010582010584,12.486772486772487 1.0582010582010584,11.851851851851853 1.26984126984127,11.216931216931219 1.26984126984127,10.582010582010582 1.4814814814814816,9.947089947089948 1.4814814814814816,9.312169312169313 1.6931216931216932,8.677248677248677 1.6931216931216932,8.042328042328043 1.9047619047619049,7.407407407407408 2.1164021164021167,6.772486772486773 2.1164021164021167,6.137566137566138 2.3280423280423284,5.502645502645503 2.3280423280423284,4.867724867724868 2.53968253968254,4.2328042328042335 2.7513227513227516,3.597883597883598 2.7513227513227516,2.9629629629629632 3.3862433862433865,-0.4232804232804233" style="fill:none; stroke:#3300bb; stroke-width:1.0"  /><circle cx="3.3862433862433865" cy="-0.4232804232804233" r="2.0" style="fill:none; stroke:#000000aa; stroke-width:0.25" /><circle cx="166.984126984127" cy="34.4973544973545" r="2.0" style="fill:none; stroke:#000000aa; stroke-width:0.25" /><circle cx="144.55026455026456" cy="149.41798941798942" r="2.0" style="fill:none; stroke:#000000aa; stroke-width:0.25" /><circle cx="4.444444444444445" cy="146.8783068783069" r="2.0" style="fill:none; stroke:#000000aa; stroke-width:0.25" /><circle cx="4.021164021164021" cy="0.21164021164021166" r="2.0" style="fill:none; stroke:#ff3366aa; stroke-width:0.25" /><circle cx="167.19576719576722" cy="34.920634920634924" r="2.0" style="fill:none; stroke:#ff3366aa; stroke-width:0.25" /><circle cx="144.76190476190476" cy="149.41798941798942" r="2.0" style="fill:none; stroke:#ff3366aa; stroke-width:0.25" /><circle cx="4.656084656084657" cy="146.45502645502646" r="2.0" style="fill:none; stroke:#ff3366aa; stroke-width:0.25" /><polyline points="14.814814814814817,4.021164021164021 14.17989417989418,3.597883597883598 13.544973544973546,3.3862433862433865 12.910052910052912,3.174603174603175 12.275132275132275,2.9629629629629632 11.640211640211641,2.7513227513227516 11.005291005291006,2.53968253968254 10.370370370370372,2.3280423280423284 9.735449735449736,2.1164021164021167 9.100529100529101,1.6931216931216932 8.465608465608467,1.4814814814814816 7.830687830687832,1.26984126984127 7.195767195767196,1.0582010582010584" style="fill:none; stroke:#001100; stroke-width:1.0" /><polyline points="1.0582010582010584,11.851851851851853 1.26984126984127,11.216931216931219 1.26984126984127,10.582010582010582 1.4814814814814816,9.947089947089948 1.4814814814814816,9.312169312169313 1.6931216931216932,8.677248677248677 1.6931216931216932,8.042328042328043 1.9047619047619049,7.407407407407408 2.1164021164021167,6.772486772486773 2.1164021164021167,6.137566137566138 2.3280423280423284,5.502645502645503 2.3280423280423284,4.867724867724868 2.53968253968254,4.2328042328042335 2.7513227513227516,3.597883597883598 2.7513227513227516,2.9629629629629632" style="fill:none; stroke:#000011; stroke-width:1.0" /><polyline points="168.8888888888889,46.349206349206355 168.8888888888889,45.714285714285715 168.8888888888889,45.07936507936508 168.67724867724868,44.44444444444445 168.46560846560848,43.80952380952381 168.46560846560848,43.17460317460318 168.25396825396825,42.539682539682545 168.25396825396825,41.904761904761905 168.04232804232805,41.26984126984127 168.04232804232805,40.63492063492064 168.04232804232805,40.0 167.83068783068785,39.36507936507937 167.83068783068785,38.730158730158735 167.61904761904762,38.095238095238095" style="fill:none; stroke:#001100; stroke-width:1.0" /><polyline points="155.76719576719577,31.322751322751326 156.4021164021164,31.53439153439154 157.03703703703704,31.53439153439154 157.67195767195767,31.746031746031747 158.30687830687833,31.95767195767196 158.94179894179896,32.16931216931217 159.5767195767196,32.16931216931217 160.21164021164023,32.38095238095239 160.84656084656086,32.804232804232804 161.4814814814815,32.804232804232804 162.11640211640213,33.22751322751323 162.75132275132276,33.22751322751323 163.3862433862434,33.65079365079365 164.02116402116403,33.65079365079365" style="fill:none; stroke:#000011; stroke-width:1.0" /><polyline points="133.33333333333334,149.41798941798942 133.96825396825398,149.41798941798942 134.6031746031746,149.41798941798942 135.23809523809524,149.41798941798942 135.87301587301587,149.41798941798942 136.5079365079365,149.41798941798942 137.14285714285717,149.41798941798942 137.7777777777778,149.41798941798942 138.41269841269843,149.41798941798942 139.04761904761907,149.41798941798942 139.6825396825397,149.41798941798942 140.31746031746033,149.41798941798942 140.95238095238096,149.41798941798942 141.5873015873016,149.41798941798942" style="fill:none; stroke:#001100; stroke-width:1.0" /><polyline points="148.35978835978838,138.2010582010582 148.14814814814815,138.83597883597884 147.72486772486775,139.47089947089947 147.72486772486775,140.10582010582013 147.51322751322752,140.74074074074076 147.0899470899471,141.3756613756614 146.8783068783069,142.01058201058203 146.66666666666669,142.64550264550266 146.45502645502646,143.2804232804233 146.24338624338625,143.91534391534393 146.03174603174605,144.55026455026456 145.82010582010582,145.1851851851852 145.82010582010582,145.82010582010582 145.60846560846562,146.45502645502646" style="fill:none; stroke:#000011; stroke-width:1.0" /><polyline points="5.291005291005291,135.02645502645504 5.291005291005291,135.66137566137567 5.291005291005291,136.2962962962963 5.07936507936508,136.93121693121694 5.07936507936508,137.56613756613757 5.07936507936508,138.2010582010582 5.07936507936508,138.83597883597884 4.867724867724868,139.47089947089947 4.867724867724868,140.10582010582013 4.867724867724868,140.74074074074076 4.656084656084657,141.3756613756614 4.656084656084657,142.01058201058203 4.656084656084657,142.64550264550266 4.656084656084657,143.2804232804233" style="fill:none; stroke:#001100; stroke-width:1.0" /><polyline points="15.661375661375663,150.8994708994709 15.026455026455027,150.8994708994709 14.391534391534393,150.6878306878307 13.756613756613758,150.47619047619048 13.121693121693122,150.05291005291005 12.486772486772487,149.84126984126985 11.851851851851853,149.62962962962965 11.216931216931219,149.41798941798942 10.582010582010582,149.20634920634922 9.947089947089948,148.78306878306879 9.312169312169313,148.57142857142858 8.677248677248677,148.35978835978838 8.042328042328043,148.14814814814815 7.407407407407408,147.93650793650795" style="fill:none; stroke:#000011; stroke-width:1.0" /><polyline points="7.195767195767196,1.0582010582010584 -12.486772486772487,-6.560846560846561" style="fill:none; stroke:#ffaa00; stroke-width:0.4" /><polyline points="2.7513227513227516,2.9629629629629632 6.772486772486773,-17.77777777777778" style="fill:none; stroke:#aaff00; stroke-width:0.4" /><polyline points="167.61904761904762,38.095238095238095 164.44444444444446,17.142857142857146" style="fill:none; stroke:#ffaa00; stroke-width:0.4" /><polyline points="164.02116402116403,33.65079365079365 184.33862433862436,39.36507936507937" style="fill:none; stroke:#aaff00; stroke-width:0.4" /><polyline points="141.5873015873016,149.41798941798942 162.75132275132276,149.41798941798942" style="fill:none; stroke:#ffaa00; stroke-width:0.4" /><polyline points="145.60846560846562,146.45502645502646 138.83597883597884,166.56084656084658" style="fill:none; stroke:#aaff00; stroke-width:0.4" /><polyline points="4.656084656084657,143.2804232804233 2.9629629629629632,164.44444444444446" style="fill:none; stroke:#ffaa00; stroke-width:0.4" /><polyline points="7.407407407407408,147.93650793650795 -12.486772486772487,140.74074074074076" style="fill:none; stroke:#aaff00; stroke-width:0.4" /><circle cx="78.30687830687832" cy="82.96296296296298" r="1.0" style="fill:#444444; stroke-width:0" /><circle cx="101.79894179894181" cy="92.91005291005291" r="10.582010582010582" style="fill:#ff770022; stroke-width:0" /><circle cx="101.79894179894181" cy="92.91005291005291" r="1.0" style="fill:#ff7700; stroke-width:0" /></svg>