<?xml version="1.0" encoding="UTF-8" standalone="no"?><svg width="567.6190476190477" height="520.6349206349207" viewBox="-10 -10 209.20634920634922 193.54497354497354" xmlns="http://www.w3.org/2000/svg" xmlns:xlink="http://www.w3.org/1999/xlink"><polyline points="-0.4232804232804233,64.97354497354497 3.174603174603175,64.12698412698413 3.8095238095238098,63.91534391534392 4.444444444444445,63.70370370370371 5.07936507936508,63.492063492063494 5.714285714285714,63.280423280423285 6.34920634920635,63.280423280423285 6.984126984126985,63.280423280423285 7.6190476190476195,63.06878306878308 8.253968253968255,62.64550264550265 8.88888888888889,62.85714285714286 9.523809523809524,62.64550264550265 10.15873015873016,62.43386243386244 10.793650793650794,62.43386243386244 11.428571428571429,62.22222222222223 12.063492063492065,62.22222222222223 12.6984126984127,62.22222222222223 13.333333333333334,62.01058201058201 13.96825396825397,61.798941798941804 14.603174603174605,61.798941798941804 15.238095238095239,61.798941798941804 15.873015873015873,61.58730158730159 16.50793650793651,61.58730158730159 17.142857142857146,61.58730158730159 17.77777777777778,61.37566137566138 18.412698412698415,61.37566137566138 19.047619047619047,61.37566137566138 19.682539682539684,61.16402116402117 20.31746031746032,61.16402116402117 20.952380952380953,61.16402116402117 21.58730158730159,61.16402116402117 22.222222222222225,60.952380952380956 22.857142857142858,60.952380952380956 23.492063492063494,61.16402116402117 24.12698412698413,60.952380952380956 24.761904761904763,60.952380952380956 25.3968253968254,60.952380952380956 26.031746031746035,60.952380952380956 26.666666666666668,60.952380952380956 27.301587301587304,60.952380952380956 27.93650793650794,60.952380952380956 28.571428571428573,60.74074074074075 29.20634920634921,60.74074074074075 29.841269841269842,60.74074074074075 30.476190476190478,60.952380952380956 31.111111111111114,60.74074074074075 31.746031746031747,60.74074074074075 32.38095238095239,60.74074074074075 33.01587301587302,60.74074074074075 33.65079365079365,60.74074074074075 34.28571428571429,60.52910052910053 34.920634920634924,60.52910052910053 35.55555555555556,60.52910052910053 36.19047619047619,60.31746031746032 36.82539682539683,60.31746031746032 37.46031746031746,60.10582010582011 38.095238095238095,60.10582010582011 38.730158730158735,60.10582010582011 39.36507936507937,59.8941798941799 40.0,59.8941798941799 40.63492063492064,59.470899470899475 41.26984126984127,59.25925925925927 41.904761904761905,59.25925925925927 42.539682539682545,59.04761904761905 43.17460317460318,58.83597883597884 43.80952380952381,58.62433862433863 44.44444444444445,58.41269841269842 45.07936507936508,58.2010582010582 45.714285714285715,57.989417989417994 46.349206349206355,57.777777777777786 46.98412698412699,57.35449735449736 47.61904761904762,57.142857142857146 48.25396825396826,56.93121693121694 48.88888888888889,56.71957671957672 49.523809523809526,56.2962962962963 50.158730158730165,55.87301587301588 50.7936507936508,55.661375661375665 51.42857142857143,55.449735449735456 52.06349206349207,55.02645502645503 52.6984126984127,54.60317460317461 53.333333333333336,54.60317460317461 53.75661375661376,54.179894179894184 54.179894179894184,53.75661375661376 54.81481481481482,53.333333333333336 55.23809523809524,52.91005291005291 55.661375661375665,52.48677248677249 56.08465608465609,52.06349206349207 56.50793650793651,51.640211640211646 56.93121693121694,51.21693121693122 57.35449735449736,50.7936507936508 57.777777777777786,50.370370370370374 58.2010582010582,49.73544973544974 58.41269841269842,49.1005291005291 58.62433862433863,48.46560846560847 59.04761904761905,47.830687830687836 59.04761904761905,47.195767195767196 59.25925925925927,46.560846560846564 59.25925925925927,45.92592592592593 59.25925925925927,45.29100529100529 59.25925925925927,44.65608465608466 59.25925925925927,44.021164021164026 59.04761904761905,43.386243386243386 58.62433862433863,42.75132275132275 58.41269841269842,42.11640211640212 57.989417989417994,41.6931216931217 57.777777777777786,41.058201058201064 57.56613756613757,40.423280423280424 57.142857142857146,40.0 56.50793650793651,39.57671957671958 56.08465608465609,39.15343915343916 55.661375661375665,38.730158730158735 55.02645502645503,38.30687830687831 54.39153439153439,37.883597883597886 53.968253968253975,37.46031746031746 53.333333333333336,37.03703703703704 52.6984126984127,36.613756613756614 52.27513227513228,36.19047619047619 51.640211640211646,35.97883597883598 51.21693121693122,35.55555555555556 50.58201058201058,35.34391534391535 50.158730158730165,34.920634920634924 49.523809523809526,34.4973544973545 49.1005291005291,34.074074074074076 48.677248677248684,33.65079365079365 48.042328042328045,33.22751322751323 47.40740740740741,32.804232804232804 46.77248677248678,32.38095238095239 46.13756613756614,31.95767195767196 45.50264550264551,31.53439153439154 44.867724867724874,31.111111111111114 44.232804232804234,30.68783068783069 43.80952380952381,30.264550264550266 43.17460317460318,29.841269841269842 42.75132275132275,29.41798941798942 42.32804232804233,28.994708994708997 41.904761904761905,28.571428571428573 41.26984126984127,28.14814814814815 40.84656084656085,27.724867724867728 40.423280423280424,27.089947089947092 40.0,26.666666666666668 39.57671957671958,26.243386243386244 39.15343915343916,25.60846560846561 38.730158730158735,24.973544973544975 38.30687830687831,24.338624338624342 37.883597883597886,23.703703703703706 37.67195767195768,23.06878306878307 37.248677248677254,22.433862433862437 37.03703703703704,21.7989417989418 37.03703703703704,21.164021164021165 36.82539682539683,20.529100529100532 36.82539682539683,19.894179894179896 36.613756613756614,19.25925925925926 36.613756613756614,18.624338624338627 36.613756613756614,17.98941798941799 36.82539682539683,17.354497354497354 36.82539682539683,16.71957671957672 37.03703703703704,16.084656084656086 37.248677248677254,15.449735449735451 37.46031746031746,14.814814814814817 37.67195767195768,14.17989417989418 37.883597883597886,13.544973544973546 38.30687830687831,12.910052910052912 38.730158730158735,12.275132275132275 38.94179894179894,11.640211640211641 39.36507936507937,11.216931216931219 39.78835978835979,10.582010582010582 40.0,9.947089947089948 40.423280423280424,9.523809523809524 40.84656084656085,8.88888888888889 41.26984126984127,8.465608465608467 41.6931216931217,8.042328042328043 42.11640211640212,7.407407407407408 42.539682539682545,6.984126984126985 43.17460317460318,6.560846560846561 43.5978835978836,6.137566137566138 44.021164021164026,5.714285714285714 44.44444444444445,5.291005291005291 44.867724867724874,4.867724867724868 45.50264550264551,4.444444444444445 46.13756613756614,4.021164021164021 46.560846560846564,3.597883597883598 47.195767195767196,3.174603174603175 47.830687830687836,3.174603174603175 48.46560846560847,2.7513227513227516 49.1005291005291,2.53968253968254 49.73544973544974,2.3280423280423284 50.370370370370374,1.9047619047619049 51.00529100529101,1.6931216931216932 51.640211640211646,1.4814814814814816 52.27513227513228,1.26984126984127 52.91005291005291,1.0582010582010584 53.54497354497355,0.8465608465608466 54.179894179894184,0.8465608465608466 54.81481481481482,0.634920634920635 55.449735449735456,0.634920634920635 56.08465608465609,0.634920634920635 56.71957671957672,0.634920634920635 57.35449735449736,0.4232804232804233 57.989417989417994,0.4232804232804233 58.62433862433863,0.4232804232804233 59.25925925925927,0.4232804232804233 59.8941798941799,0.4232804232804233 60.52910052910053,0.21164021164021166 61.16402116402117,0.634920634920635 61.798941798941804,0.634920634920635 62.43386243386244,0.634920634920635 63.06878306878308,0.634920634920635 63.70370370370371,0.4232804232804233 64.33862433862434,0.634920634920635 64.97354497354497,0.634920634920635 65.60846560846561,0.8465608465608466 66.24338624338625,0.8465608465608466 66.87830687830689,1.0582010582010584 67.51322751322752,1.26984126984127 68.14814814814815,1.4814814814814816 68.78306878306879,1.4814814814814816 69.41798941798942,1.6931216931216932 70.05291005291006,1.9047619047619049 70.6878306878307,2.3280423280423284 71.32275132275133,2.53968253968254 71.95767195767196,2.7513227513227516 72.5925925925926,3.174603174603175 73.22751322751323,3.597883597883598 73.86243386243387,4.021164021164021 74.49735449735451,4.444444444444445 74.92063492063492,4.867724867724868 75.34391534391536,5.291005291005291 75.76719576719577,5.9259259259259265 76.19047619047619,6.34920634920635 76.61375661375662,6.984126984126985 76.82539682539684,7.6190476190476195 77.03703703703704,8.253968253968255 77.24867724867725,8.88888888888889 77.46031746031747,9.523809523809524 77.67195767195767,10.15873015873016 77.67195767195767,10.793650793650794 77.67195767195767,11.428571428571429 77.88359788359789,12.063492063492065 77.88359788359789,12.6984126984127 77.88359788359789,13.333333333333334 77.88359788359789,13.96825396825397 77.88359788359789,14.603174603174605 77.88359788359789,15.238095238095239 77.67195767195767,15.873015873015873 77.67195767195767,16.50793650793651 77.46031746031747,17.142857142857146 77.24867724867725,17.77777777777778 76.82539682539684,18.412698412698415 76.61375661375662,19.047619047619047 76.4021164021164,19.682539682539684 76.19047619047619,20.31746031746032 75.97883597883599,20.952380952380953 75.55555555555556,21.58730158730159 75.34391534391536,22.222222222222225 75.13227513227514,22.857142857142858 74.92063492063492,23.492063492063494 74.70899470899471,24.12698412698413 74.49735449735451,24.761904761904763 74.28571428571429,25.3968253968254 74.07407407407408,26.031746031746035 73.86243386243387,26.666666666666668 73.65079365079366,27.301587301587304 73.43915343915344,27.93650793650794 73.22751322751323,28.571428571428573 73.22751322751323,29.20634920634921 73.01587301587303,29.841269841269842 73.01587301587303,30.476190476190478 73.01587301587303,31.111111111111114 72.80423280423281,31.746031746031747 72.80423280423281,32.38095238095239 72.80423280423281,33.01587301587302 72.80423280423281,33.65079365079365 73.01587301587303,34.28571428571429 73.22751322751323,34.920634920634924 73.43915343915344,35.55555555555556 73.65079365079366,36.19047619047619 74.07407407407408,36.82539682539683 74.49735449735451,37.248677248677254 74.92063492063492,37.67195767195768 75.34391534391536,38.095238095238095 75.76719576719577,38.51851851851852 76.4021164021164,38.94179894179894 77.03703703703704,39.15343915343916 77.67195767195767,39.36507936507937 78.30687830687832,39.57671957671958 78.94179894179895,39.78835978835979 79.57671957671958,39.78835978835979 80.21164021164022,39.78835978835979 80.84656084656085,39.57671957671958 81.48148148148148,39.57671957671958 82.11640211640213,39.36507936507937 82.75132275132276,39.15343915343916 83.3862433862434,38.730158730158735 84.02116402116403,38.51851851851852 84.65608465608466,38.095238095238095 85.29100529100529,37.883597883597886 85.71428571428572,37.46031746031746 86.34920634920636,37.248677248677254 86.98412698412699,36.82539682539683 87.40740740740742,36.402116402116405 88.04232804232805,35.97883597883598 88.67724867724868,35.76719576719577 89.31216931216932,35.34391534391535 89.94708994708995,34.920634920634924 90.58201058201058,34.920634920634924 91.00529100529101,34.4973544973545 91.64021164021165,34.074074074074076 92.27513227513228,33.86243386243387 92.91005291005291,33.43915343915344 93.54497354497356,33.01587301587302 94.17989417989419,32.804232804232804 94.81481481481482,32.38095238095239 95.44973544973546,31.95767195767196 96.08465608465609,31.746031746031747 96.71957671957672,31.322751322751326 97.35449735449737,30.899470899470902 97.989417989418,30.68783068783069 98.41269841269842,30.264550264550266 99.04761904761905,30.052910052910054 99.68253968253968,29.841269841269842 100.10582010582011,29.41798941798942 100.74074074074075,29.20634920634921 101.37566137566138,28.994708994708997 102.01058201058201,28.571428571428573 102.43386243386244,28.14814814814815 103.06878306878308,27.93650793650794 103.70370370370371,27.513227513227516 104.33862433862434,27.301587301587304 104.97354497354497,26.87830687830688 105.60846560846562,26.455026455026456 106.24338624338625,26.243386243386244 106.87830687830689,25.820105820105823 107.51322751322752,25.60846560846561 108.14814814814815,25.185185185185187 108.78306878306879,24.973544973544975 109.20634920634922,24.55026455026455 109.84126984126985,24.338624338624342 110.47619047619048,23.915343915343918 111.11111111111111,23.703703703703706 111.74603174603176,23.492063492063494 112.3809523809524,23.280423280423282 113.01587301587303,22.857142857142858 113.43915343915344,22.433862433862437 114.07407407407408,22.222222222222225 114.70899470899472,22.010582010582013 115.13227513227514,21.58730158730159 115.76719576719577,21.375661375661377 116.1904761904762,20.952380952380953 116.82539682539684,20.740740740740744 117.46031746031747,20.31746031746032 118.0952380952381,20.105820105820108 118.73015873015873,19.682539682539684 119.36507936507937,19.47089947089947 119.7883597883598,19.047619047619047 120.42328042328043,18.83597883597884 121.05820105820106,18.412698412698415 121.6931216931217,18.201058201058203 122.11640211640213,17.77777777777778 122.75132275132276,17.566137566137566 123.17460317460318,17.142857142857146 123.80952380952382,16.931216931216934 124.44444444444446,16.50793650793651 125.07936507936509,16.296296296296298 125.71428571428572,16.084656084656086 128.88888888888889,14.391534391534393" style="fill:none; stroke:#cc0000; stroke-width:1.0"  /><polyline points="128.88888888888889,14.391534391534393 131.21693121693121,17.98941798941799 131.64021164021165,18.624338624338627 132.06349206349208,19.25925925925926 132.4867724867725,19.894179894179896 132.9100529100529,20.529100529100532 133.33333333333334,20.952380952380953 133.75661375661377,21.58730158730159 134.17989417989418,22.222222222222225 134.3915343915344,22.857142857142858 134.81481481481484,23.492063492063494 135.23809523809524,24.12698412698413 135.44973544973547,24.761904761904763 135.66137566137567,25.3968253968254 136.0846560846561,26.031746031746035 136.2962962962963,26.666666666666668 136.5079365079365,27.301587301587304 136.93121693121694,27.93650793650794 137.14285714285717,28.571428571428573 137.35449735449737,29.20634920634921 137.56613756613757,29.841269841269842 137.7777777777778,30.476190476190478 137.989417989418,31.111111111111114 138.2010582010582,31.746031746031747 138.2010582010582,32.38095238095239 138.41269841269843,33.01587301587302 138.62433862433863,33.65079365079365 138.83597883597884,34.28571428571429 138.83597883597884,34.920634920634924 139.04761904761907,35.55555555555556 139.04761904761907,36.19047619047619 139.47089947089947,36.82539682539683 139.6825396825397,37.46031746031746 139.6825396825397,38.095238095238095 139.8941798941799,38.730158730158735 140.10582010582013,39.36507936507937 140.52910052910053,40.0 140.74074074074076,40.63492063492064 141.16402116402116,41.26984126984127 141.3756613756614,41.904761904761905 141.7989417989418,42.539682539682545 142.22222222222223,42.96296296296297 142.64550264550266,43.386243386243386 143.0687830687831,43.80952380952381 143.4920634920635,44.232804232804234 143.91534391534393,44.65608465608466 144.33862433862436,45.07936507936508 144.973544973545,45.50264550264551 145.60846560846562,45.92592592592593 146.24338624338625,46.349206349206355 146.8783068783069,46.560846560846564 147.51322751322752,46.77248677248678 148.14814814814815,46.77248677248678 148.78306878306879,46.98412698412699 149.41798941798942,46.98412698412699 149.84126984126985,46.560846560846564 150.47619047619048,46.349206349206355 151.11111111111111,46.349206349206355 151.74603174603175,45.92592592592593 152.38095238095238,45.50264550264551 152.8042328042328,45.07936507936508 153.43915343915344,44.65608465608466 153.86243386243387,44.232804232804234 154.2857142857143,43.80952380952381 154.7089947089947,43.386243386243386 155.13227513227514,42.96296296296297 155.55555555555557,42.539682539682545 155.978835978836,41.904761904761905 156.4021164021164,41.26984126984127 156.82539682539684,40.63492063492064 157.24867724867727,40.211640211640216 157.46031746031747,39.57671957671958 157.8835978835979,39.15343915343916 158.0952380952381,38.51851851851852 158.30687830687833,37.883597883597886 158.51851851851853,37.248677248677254 158.73015873015873,36.613756613756614 158.73015873015873,35.97883597883598 158.94179894179896,35.34391534391535 158.94179894179896,34.70899470899471 159.15343915343917,34.074074074074076 159.36507936507937,33.43915343915344 159.5767195767196,32.804232804232804 159.7883597883598,32.16931216931217 160.0,31.53439153439154 160.42328042328043,31.111111111111114 160.84656084656086,30.476190476190478 161.2698412698413,30.052910052910054 161.6931216931217,29.41798941798942 162.32804232804233,28.994708994708997 162.75132275132276,28.571428571428573 163.1746031746032,28.14814814814815 163.80952380952382,27.93650793650794 164.44444444444446,27.513227513227516 165.0793650793651,27.301587301587304 165.71428571428572,27.089947089947092 166.34920634920636,26.87830687830688 166.984126984127,26.666666666666668 167.61904761904762,26.455026455026456 168.25396825396825,26.243386243386244 168.8888888888889,26.031746031746035 169.52380952380955,26.243386243386244 170.15873015873018,26.243386243386244 170.7936507936508,26.243386243386244 171.42857142857144,26.243386243386244 172.06349206349208,26.666666666666668 172.6984126984127,26.87830687830688 173.33333333333334,27.089947089947092 173.96825396825398,27.301587301587304 174.6031746031746,27.513227513227516 175.23809523809524,27.93650793650794 175.87301587301587,28.14814814814815 176.50793650793653,28.571428571428573 177.14285714285717,28.994708994708997 177.56613756613757,29.41798941798942 178.2010582010582,29.841269841269842 178.83597883597884,30.264550264550266 179.25925925925927,30.68783068783069 179.6825396825397,31.111111111111114 180.10582010582013,31.53439153439154 180.52910052910053,31.95767195767196 180.95238095238096,32.38095238095239 181.3756613756614,32.804232804232804 181.79894179894183,33.22751322751323 182.22222222222223,33.86243386243387 182.64550264550266,34.4973544973545 183.0687830687831,34.920634920634924 183.4920634920635,35.55555555555556 183.91534391534393,36.19047619047619 184.33862433862436,36.613756613756614 184.7619047619048,37.248677248677254 184.973544973545,37.883597883597886 185.39682539682542,38.51851851851852 185.60846560846562,39.15343915343916 186.03174603174605,39.57671957671958 186.24338624338625,40.211640211640216 186.45502645502646,40.84656084656085 186.66666666666669,41.48148148148149 186.8783068783069,42.11640211640212 187.08994708994712,42.75132275132275 187.30158730158732,43.386243386243386 187.51322751322752,44.021164021164026 187.72486772486775,44.65608465608466 187.72486772486775,45.29100529100529 187.93650793650795,45.92592592592593 188.14814814814815,46.560846560846564 188.35978835978838,47.195767195767196 188.35978835978838,47.830687830687836 188.57142857142858,48.46560846560847 188.57142857142858,49.1005291005291 188.78306878306879,49.73544973544974 188.78306878306879,50.370370370370374 188.78306878306879,51.00529100529101 188.78306878306879,51.640211640211646 188.78306878306879,52.27513227513228 188.57142857142858,52.91005291005291 188.57142857142858,53.54497354497355 188.35978835978838,54.179894179894184 188.14814814814815,54.81481481481482 187.93650793650795,55.449735449735456 187.72486772486775,56.08465608465609 187.30158730158732,56.71957671957672 186.8783068783069,57.35449735449736 186.45502645502646,57.989417989417994 186.03174603174605,58.62433862433863 185.60846560846562,59.04761904761905 185.1851851851852,59.470899470899475 184.7619047619048,59.8941798941799 184.33862433862436,60.31746031746032 183.70370370370372,60.74074074074075 183.2804232804233,61.16402116402117 182.64550264550266,61.37566137566138 182.01058201058203,61.798941798941804 181.3756613756614,62.22222222222223 180.74074074074076,62.43386243386244 180.10582010582013,62.64550264550265 179.6825396825397,63.06878306878308 179.04761904761907,63.280423280423285 178.41269841269843,63.492063492063494 177.7777777777778,63.492063492063494 177.14285714285717,63.70370370370371 176.50793650793653,63.91534391534392 175.87301587301587,64.12698412698413 175.23809523809524,64.12698412698413 174.6031746031746,64.12698412698413 173.96825396825398,64.33862433862434 173.33333333333334,64.33862433862434 172.6984126984127,64.33862433862434 172.06349206349208,64.33862433862434 171.42857142857144,64.55026455026456 170.7936507936508,64.55026455026456 170.15873015873018,64.55026455026456 169.52380952380955,64.55026455026456 168.8888888888889,64.76190476190477 168.25396825396825,64.97354497354497 167.61904761904762,64.97354497354497 166.984126984127,64.97354497354497 166.34920634920636,64.97354497354497 165.71428571428572,65.18518518518519 165.0793650793651,65.18518518518519 164.44444444444446,65.3968253968254 163.80952380952382,65.3968253968254 163.1746031746032,65.60846560846561 162.53968253968256,65.60846560846561 161.90476190476193,65.82010582010582 161.2698412698413,65.82010582010582 160.63492063492066,66.03174603174604 160.0,66.24338624338625 159.36507936507937,66.66666666666667 158.73015873015873,66.66666666666667 158.30687830687833,67.08994708994709 157.67195767195767,67.51322751322752 157.03703703703704,67.93650793650794 156.61375661375664,68.35978835978837 156.1904761904762,68.78306878306879 155.76719576719577,69.20634920634922 155.34391534391534,69.62962962962963 155.13227513227514,70.26455026455027 154.92063492063494,70.8994708994709 154.4973544973545,71.53439153439155 154.4973544973545,72.16931216931218 154.4973544973545,72.80423280423281 154.2857142857143,73.43915343915344 154.2857142857143,74.07407407407408 154.4973544973545,74.70899470899471 154.4973544973545,75.34391534391536 154.4973544973545,75.97883597883599 154.7089947089947,76.61375661375662 154.92063492063494,77.24867724867725 155.13227513227514,77.88359788359789 155.34391534391534,78.51851851851852 155.55555555555557,79.15343915343917 155.978835978836,79.7883597883598 156.1904761904762,80.42328042328043 156.61375661375664,80.84656084656085 157.03703703703704,81.48148148148148 157.46031746031747,82.11640211640213 157.8835978835979,82.53968253968254 158.30687830687833,83.17460317460318 158.73015873015873,83.59788359788361 159.15343915343917,84.02116402116403 159.5767195767196,84.44444444444446 160.0,84.86772486772487 160.42328042328043,85.29100529100529 160.84656084656086,85.71428571428572 161.2698412698413,86.34920634920636 161.6931216931217,86.77248677248677 162.11640211640213,87.1957671957672 162.53968253968256,87.61904761904762 162.96296296296296,88.04232804232805 163.3862433862434,88.46560846560847 163.80952380952382,88.8888888888889 164.23280423280426,89.31216931216932 164.65608465608466,89.94708994708995 165.2910052910053,90.37037037037038 165.71428571428572,90.7936507936508 166.13756613756615,91.21693121693123 166.56084656084658,91.64021164021165 166.984126984127,92.06349206349208 167.40740740740742,92.4867724867725 167.83068783068785,92.91005291005291 168.46560846560848,93.33333333333334 169.10052910052912,93.75661375661376 169.73544973544975,94.17989417989419 170.15873015873018,94.60317460317461 170.58201058201058,95.02645502645504 171.21693121693124,95.44973544973546 171.64021164021165,95.87301587301587 172.06349206349208,96.2962962962963 172.6984126984127,96.71957671957672 173.12169312169314,97.14285714285715 173.75661375661377,97.56613756613757 174.3915343915344,97.989417989418 174.81481481481484,98.41269841269842 175.44973544973547,98.83597883597885 176.0846560846561,99.25925925925927 176.50793650793653,99.68253968253968 177.14285714285717,100.10582010582011 177.7777777777778,100.52910052910053 178.41269841269843,100.95238095238096 179.04761904761907,101.37566137566138 179.6825396825397,101.5873015873016 180.10582010582013,102.01058201058201 183.4920634920635,104.33862433862434" style="fill:none; stroke:#999900; stroke-width:1.0"  /><polyline points="183.4920634920635,104.33862433862434 181.16402116402116,106.66666666666667 180.74074074074076,107.0899470899471 180.31746031746033,107.51322751322752 179.6825396825397,107.93650793650795 179.25925925925927,108.35978835978837 178.83597883597884,108.78306878306879 178.41269841269843,109.20634920634922 177.989417989418,109.84126984126985 177.56613756613757,110.26455026455027 177.14285714285717,110.6878306878307 176.71957671957674,111.11111111111111 176.2962962962963,111.74603174603176 175.87301587301587,112.16931216931218 175.44973544973547,112.5925925925926 175.02645502645504,113.22751322751324 174.6031746031746,113.86243386243387 174.1798941798942,114.49735449735451 173.75661375661377,115.13227513227514 173.33333333333334,115.76719576719577 172.9100529100529,116.4021164021164 172.4867724867725,117.03703703703705 172.06349206349208,117.46031746031747 171.64021164021165,118.0952380952381 171.21693121693124,118.73015873015873 170.7936507936508,119.36507936507937 170.37037037037038,120.00000000000001 169.94708994708995,120.42328042328043 169.52380952380955,121.05820105820106 169.10052910052912,121.6931216931217 168.67724867724868,122.11640211640213 168.46560846560848,122.75132275132276 168.04232804232805,123.17460317460318 167.61904761904762,123.59788359788361 167.19576719576722,124.02116402116403 166.7724867724868,124.44444444444446 166.34920634920636,125.07936507936509 165.92592592592595,125.5026455026455 165.50264550264552,125.92592592592594 165.0793650793651,126.56084656084657 164.65608465608466,126.98412698412699 164.23280423280426,127.61904761904763 163.80952380952382,128.04232804232805 163.3862433862434,128.46560846560848 162.96296296296296,128.88888888888889 162.53968253968256,129.31216931216932 162.11640211640213,129.94708994708995 161.6931216931217,130.37037037037038 161.2698412698413,130.7936507936508 160.84656084656086,131.21693121693121 160.42328042328043,131.85185185185185 160.0,132.27513227513228 159.5767195767196,132.6984126984127 159.15343915343917,133.12169312169314 158.73015873015873,133.54497354497354 158.30687830687833,133.96825396825398 157.8835978835979,134.3915343915344 157.46031746031747,134.81481481481484 157.03703703703704,135.23809523809524 156.61375661375664,135.66137566137567 156.1904761904762,136.0846560846561 155.76719576719577,136.5079365079365 155.34391534391534,136.93121693121694 154.92063492063494,137.35449735449737 154.4973544973545,137.7777777777778 154.07407407407408,138.2010582010582 153.65079365079367,138.62433862433863 153.22751322751324,139.04761904761907 152.8042328042328,139.47089947089947 152.38095238095238,139.8941798941799 151.95767195767198,140.31746031746033 151.32275132275134,140.74074074074076 150.6878306878307,141.16402116402116 150.26455026455028,141.5873015873016 149.62962962962965,142.01058201058203 148.99470899470901,142.22222222222223 148.35978835978838,142.43386243386246 147.72486772486775,142.43386243386246 147.0899470899471,142.43386243386246 146.45502645502646,142.43386243386246 145.82010582010582,142.22222222222223 145.1851851851852,141.7989417989418 144.55026455026456,141.5873015873016 143.91534391534393,141.3756613756614 143.4920634920635,140.95238095238096 143.0687830687831,140.52910052910053 142.64550264550266,140.10582010582013 142.22222222222223,139.6825396825397 141.7989417989418,139.04761904761907 141.3756613756614,138.41269841269843 141.16402116402116,137.7777777777778 140.95238095238096,137.14285714285717 140.74074074074076,136.5079365079365 140.52910052910053,135.87301587301587 140.31746031746033,135.23809523809524 140.10582010582013,134.6031746031746 140.10582010582013,133.96825396825398 139.8941798941799,133.33333333333334 139.8941798941799,132.6984126984127 139.8941798941799,132.06349206349208 139.8941798941799,131.42857142857144 139.6825396825397,130.7936507936508 139.47089947089947,130.15873015873018 139.47089947089947,129.52380952380955 139.25925925925927,128.88888888888889 138.83597883597884,128.25396825396825 138.62433862433863,127.61904761904763 138.2010582010582,126.98412698412699 137.989417989418,126.34920634920636 137.56613756613757,125.71428571428572 137.14285714285717,125.07936507936509 136.71957671957674,124.44444444444446 136.2962962962963,124.02116402116403 135.87301587301587,123.59788359788361 135.44973544973547,123.17460317460318 134.81481481481484,122.75132275132276 134.17989417989418,122.32804232804234 133.54497354497354,122.11640211640213 132.9100529100529,121.90476190476191 132.27513227513228,121.90476190476191 131.64021164021165,121.6931216931217 131.005291005291,121.6931216931217 130.37037037037038,121.6931216931217 129.73544973544975,121.6931216931217 129.10052910052912,121.90476190476191 128.46560846560848,121.90476190476191 127.83068783068784,121.90476190476191 127.1957671957672,122.11640211640213 126.56084656084657,122.32804232804234 125.92592592592594,122.32804232804234 125.2910052910053,122.53968253968254 124.65608465608466,122.96296296296298 124.02116402116403,122.96296296296298 123.3862433862434,123.17460317460318 122.75132275132276,123.3862433862434 122.11640211640213,123.59788359788361 121.4814814814815,124.02116402116403 120.84656084656086,124.23280423280424 120.21164021164022,124.65608465608466 119.57671957671958,124.86772486772487 118.94179894179895,125.2910052910053 118.30687830687832,125.71428571428572 117.67195767195768,126.13756613756615 117.03703703703705,126.56084656084657 116.4021164021164,126.98412698412699 115.76719576719577,127.40740740740742 115.34391534391536,127.83068783068784 114.70899470899472,128.25396825396825 114.28571428571429,128.67724867724868 113.86243386243387,129.10052910052912 113.43915343915344,129.52380952380955 113.01587301587303,129.94708994708995 112.5925925925926,130.37037037037038 112.16931216931218,130.7936507936508 111.74603174603176,131.21693121693121 111.32275132275133,131.85185185185185 110.89947089947091,132.4867724867725 110.47619047619048,133.12169312169314 110.05291005291006,133.75661375661377 109.62962962962963,134.3915343915344 109.20634920634922,135.02645502645504 109.20634920634922,135.66137566137567 108.78306878306879,136.2962962962963 108.57142857142858,136.93121693121694 108.35978835978837,137.56613756613757 108.14814814814815,138.2010582010582 108.14814814814815,138.83597883597884 108.14814814814815,139.47089947089947 108.14814814814815,140.10582010582013 108.14814814814815,140.74074074074076 108.35978835978837,141.3756613756614 108.78306878306879,142.01058201058203 108.994708994709,142.64550264550266 109.20634920634922,143.2804232804233 109.62962962962963,143.91534391534393 110.05291005291006,144.55026455026456 110.26455026455027,145.1851851851852 110.6878306878307,145.60846560846562 111.11111111111111,146.03174603174605 111.53439153439155,146.45502645502646 111.95767195767196,147.0899470899471 112.3809523809524,147.51322751322752 113.01587301587303,147.93650793650795 113.43915343915344,148.35978835978838 113.86243386243387,148.78306878306879 114.28571428571429,149.20634920634922 114.92063492063492,149.62962962962965 115.34391534391536,150.05291005291005 115.97883597883599,150.47619047619048 116.61375661375662,150.8994708994709 117.24867724867725,151.32275132275134 117.88359788359789,151.53439153439155 118.30687830687832,151.95767195767198 118.94179894179895,152.38095238095238 119.57671957671958,152.8042328042328 120.00000000000001,153.22751322751324 120.42328042328043,153.65079365079367 120.84656084656086,154.07407407407408 121.26984126984128,154.7089947089947 121.4814814814815,155.34391534391534 121.90476190476191,155.76719576719577 122.11640211640213,156.4021164021164 122.32804232804234,157.03703703703704 122.53968253968254,157.67195767195767 122.53968253968254,158.30687830687833 122.53968253968254,158.94179894179896 122.32804232804234,159.5767195767196 122.32804232804234,160.21164021164023 122.11640211640213,160.84656084656086 121.6931216931217,161.4814814814815 121.26984126984128,162.11640211640213 120.84656084656086,162.75132275132276 120.42328042328043,163.1746031746032 120.00000000000001,163.59788359788362 119.57671957671958,164.02116402116403 118.94179894179895,164.44444444444446 118.51851851851853,164.8677248677249 117.88359788359789,165.2910052910053 117.24867724867725,165.50264550264552 116.82539682539684,165.92592592592595 116.1904761904762,166.13756613756615 115.76719576719577,166.56084656084658 115.13227513227514,166.7724867724868 114.49735449735451,166.984126984127 114.07407407407408,167.40740740740742 113.43915343915344,167.83068783068785 112.80423280423281,168.04232804232805 112.16931216931218,168.46560846560848 111.53439153439155,168.8888888888889 110.89947089947091,169.10052910052912 110.47619047619048,169.52380952380955 109.84126984126985,169.73544973544975 109.20634920634922,170.15873015873018 108.57142857142858,170.58201058201058 107.93650793650795,170.7936507936508 107.3015873015873,171.21693121693124 106.66666666666667,171.64021164021165 103.4920634920635,173.33333333333334" style="fill:none; stroke:#00aa99; stroke-width:1.0"  /><polyline points="103.4920634920635,173.33333333333334 101.37566137566138,171.21693121693124 100.95238095238096,170.7936507936508 100.52910052910053,170.37037037037038 100.10582010582011,169.94708994708995 99.68253968253968,169.31216931216932 99.25925925925927,168.8888888888889 98.83597883597885,168.46560846560848 98.2010582010582,168.04232804232805 97.77777777777779,167.61904761904762 97.35449735449737,167.19576719576722 96.93121693121694,166.7724867724868 96.50793650793652,166.34920634920636 96.08465608465609,165.92592592592595 95.66137566137567,165.50264550264552 95.23809523809524,165.0793650793651 94.81481481481482,164.65608465608466 94.17989417989419,164.23280423280426 93.75661375661376,163.80952380952382 93.33333333333334,163.3862433862434 92.91005291005291,162.96296296296296 92.4867724867725,162.53968253968256 91.85185185185186,162.11640211640213 91.42857142857143,161.6931216931217 91.00529100529101,161.2698412698413 90.58201058201058,160.84656084656086 89.94708994708995,160.42328042328043 89.52380952380953,160.0 88.8888888888889,159.5767195767196 88.46560846560847,159.15343915343917 88.04232804232805,158.73015873015873 87.61904761904762,158.30687830687833 87.1957671957672,157.8835978835979 86.77248677248677,157.46031746031747 86.13756613756614,157.03703703703704 85.71428571428572,156.61375661375664 85.29100529100529,155.978835978836 84.65608465608466,155.55555555555557 84.23280423280424,155.13227513227514 83.80952380952381,154.7089947089947 83.3862433862434,154.2857142857143 82.96296296296298,153.86243386243387 82.53968253968254,153.43915343915344 82.11640211640213,153.01587301587304 81.6931216931217,152.5925925925926 81.26984126984128,152.16931216931218 80.84656084656085,151.74603174603175 80.42328042328043,151.11111111111111 80.0,150.6878306878307 79.57671957671958,150.26455026455028 79.15343915343917,149.84126984126985 78.73015873015873,149.20634920634922 78.30687830687832,148.78306878306879 77.88359788359789,148.35978835978838 77.46031746031747,147.93650793650795 77.03703703703704,147.51322751322752 76.61375661375662,147.0899470899471 76.19047619047619,146.45502645502646 75.76719576719577,146.03174603174605 75.34391534391536,145.60846560846562 74.92063492063492,145.1851851851852 74.49735449735451,144.76190476190476 74.07407407407408,144.33862433862436 73.65079365079366,143.70370370370372 73.22751322751323,143.2804232804233 72.80423280423281,142.85714285714286 72.38095238095238,142.22222222222223 71.95767195767196,141.5873015873016 71.32275132275133,141.16402116402116 70.8994708994709,140.74074074074076 70.47619047619048,140.10582010582013 70.05291005291006,139.6825396825397 69.62962962962963,139.04761904761907 69.20634920634922,138.62433862433863 68.78306878306879,137.989417989418 68.35978835978837,137.35449735449737 67.93650793650794,136.93121693121694 67.51322751322752,136.5079365079365 67.08994708994709,135.87301587301587 66.66666666666667,135.44973544973547 66.24338624338625,135.02645502645504 65.82010582010582,134.3915343915344 65.3968253968254,133.75661375661377 64.97354497354497,133.33333333333334 64.55026455026456,132.9100529100529 64.12698412698413,132.27513227513228 63.70370370370371,131.64021164021165 63.280423280423285,131.21693121693121 62.85714285714286,130.7936507936508 62.64550264550265,130.15873015873018 62.22222222222223,129.73544973544975 61.798941798941804,129.10052910052912 61.58730158730159,128.46560846560848 61.16402116402117,127.83068783068784 60.952380952380956,127.1957671957672 60.952380952380956,126.56084656084657 60.74074074074075,125.92592592592594 60.74074074074075,125.2910052910053 60.74074074074075,124.65608465608466 60.74074074074075,124.02116402116403 60.952380952380956,123.3862433862434 61.37566137566138,122.75132275132276 61.58730158730159,122.11640211640213 62.01058201058201,121.4814814814815 62.43386243386244,121.05820105820106 62.85714285714286,120.42328042328043 63.492063492063494,120.00000000000001 63.91534391534392,119.36507936507937 64.33862433862434,118.73015873015873 64.97354497354497,118.73015873015873 65.60846560846561,118.51851851851853 66.24338624338625,118.30687830687832 66.87830687830689,118.0952380952381 67.51322751322752,117.88359788359789 68.14814814814815,117.88359788359789 68.78306878306879,117.67195767195768 69.41798941798942,117.67195767195768 70.05291005291006,117.67195767195768 70.6878306878307,117.67195767195768 71.32275132275133,117.88359788359789 71.95767195767196,117.88359788359789 72.5925925925926,117.67195767195768 73.22751322751323,117.46031746031747 73.86243386243387,117.03703703703705 74.49735449735451,117.03703703703705 75.13227513227514,116.61375661375662 75.76719576719577,116.4021164021164 76.19047619047619,115.97883597883599 76.82539682539684,115.76719576719577 77.46031746031747,115.34391534391536 77.88359788359789,114.92063492063492 78.30687830687832,114.49735449735451 78.94179894179895,114.07407407407408 79.36507936507937,113.65079365079366 79.7883597883598,113.01587301587303 80.21164021164022,112.5925925925926 80.21164021164022,111.95767195767196 80.63492063492065,111.32275132275133 80.84656084656085,110.6878306878307 80.84656084656085,110.05291005291006 80.84656084656085,109.41798941798943 80.84656084656085,108.78306878306879 80.84656084656085,108.14814814814815 80.63492063492065,107.51322751322752 80.42328042328043,106.87830687830689 80.0,106.24338624338625 79.7883597883598,105.60846560846562 79.7883597883598,104.97354497354497 79.57671957671958,104.33862433862434 79.36507936507937,103.70370370370371 79.15343915343917,103.06878306878308 78.73015873015873,102.43386243386244 78.51851851851852,101.79894179894181 78.30687830687832,101.16402116402116 77.88359788359789,100.52910052910053 77.67195767195767,99.8941798941799 77.24867724867725,99.25925925925927 77.03703703703704,98.62433862433863 76.61375661375662,97.989417989418 76.4021164021164,97.35449735449737 75.97883597883599,96.93121693121694 75.76719576719577,96.2962962962963 75.34391534391536,95.87301587301587 74.92063492063492,95.23809523809524 74.49735449735451,94.81481481481482 74.07407407407408,94.17989417989419 73.65079365079366,93.54497354497356 73.22751322751323,93.12169312169313 72.80423280423281,92.4867724867725 72.38095238095238,92.06349206349208 71.95767195767196,91.42857142857143 71.53439153439155,91.00529100529101 71.11111111111111,90.58201058201058 70.6878306878307,90.15873015873017 70.26455026455027,89.73544973544975 69.84126984126985,89.31216931216932 69.41798941798942,88.8888888888889 68.994708994709,88.46560846560847 68.57142857142858,88.04232804232805 68.14814814814815,87.61904761904762 67.51322751322752,87.1957671957672 67.08994708994709,86.77248677248677 66.45502645502646,86.34920634920636 66.03174603174604,85.92592592592594 65.3968253968254,85.5026455026455 64.76190476190477,85.07936507936509 64.33862433862434,84.65608465608466 63.70370370370371,84.23280423280424 63.06878306878308,84.02116402116403 62.43386243386244,83.59788359788361 61.798941798941804,83.17460317460318 61.16402116402117,82.75132275132276 60.52910052910053,82.53968253968254 59.8941798941799,82.11640211640213 59.25925925925927,81.90476190476191 58.62433862433863,81.48148148148148 57.989417989417994,81.26984126984128 57.35449735449736,81.05820105820106 56.71957671957672,80.63492063492065 56.08465608465609,80.42328042328043 55.449735449735456,80.21164021164022 54.81481481481482,80.21164021164022 54.179894179894184,80.0 53.54497354497355,79.7883597883598 52.91005291005291,79.57671957671958 52.27513227513228,79.36507936507937 51.640211640211646,79.15343915343917 51.00529100529101,78.94179894179895 50.370370370370374,78.94179894179895 49.73544973544974,78.94179894179895 49.1005291005291,78.94179894179895 48.46560846560847,78.94179894179895 47.830687830687836,79.15343915343917 47.195767195767196,79.36507936507937 46.560846560846564,79.7883597883598 45.92592592592593,80.21164021164022 45.50264550264551,80.63492063492065 45.07936507936508,81.05820105820106 44.65608465608466,81.6931216931217 44.232804232804234,82.32804232804233 44.021164021164026,82.96296296296298 43.5978835978836,83.59788359788361 43.386243386243386,84.23280423280424 43.17460317460318,84.86772486772487 43.17460317460318,85.5026455026455 42.96296296296297,86.13756613756614 42.96296296296297,86.77248677248677 42.75132275132275,87.40740740740742 42.539682539682545,88.04232804232805 42.539682539682545,88.67724867724868 42.539682539682545,89.31216931216932 42.32804232804233,89.94708994708995 42.32804232804233,90.58201058201058 42.11640211640212,91.21693121693123 42.11640211640212,91.85185185185186 41.904761904761905,92.4867724867725 41.6931216931217,93.12169312169313 41.6931216931217,93.75661375661376 41.48148148148149,94.39153439153439 41.48148148148149,95.02645502645504 41.26984126984127,95.66137566137567 41.058201058201064,96.2962962962963 40.84656084656085,96.93121693121694 40.63492063492064,97.56613756613757 40.423280423280424,98.2010582010582 40.0,98.83597883597885 39.57671957671958,99.47089947089948 39.15343915343916,100.10582010582011 38.730158730158735,100.52910052910053 38.30687830687831,100.95238095238096 37.67195767195768,101.37566137566138 37.03703703703704,101.5873015873016 36.402116402116405,101.79894179894181 35.76719576719577,102.01058201058201 35.13227513227513,102.01058201058201 34.4973544973545,102.01058201058201 33.86243386243387,102.01058201058201 33.22751322751323,101.79894179894181 32.592592592592595,101.5873015873016 31.95767195767196,101.16402116402116 31.322751322751326,100.74074074074075 30.68783068783069,100.31746031746033 30.052910052910054,99.8941798941799 29.41798941798942,99.47089947089948 28.994708994708997,99.04761904761905 28.35978835978836,98.83597883597885 27.724867724867728,98.41269841269842 27.301587301587304,97.989417989418 26.87830687830688,97.56613756613757 26.243386243386244,97.14285714285715 25.820105820105823,96.71957671957672 25.3968253968254,96.2962962962963 24.973544973544975,95.87301587301587 24.338624338624342,95.66137566137567 23.915343915343918,95.23809523809524 23.492063492063494,94.60317460317461 23.06878306878307,94.17989417989419 22.645502645502646,93.75661375661376 22.222222222222225,93.33333333333334 21.58730158730159,92.91005291005291 21.164021164021165,92.4867724867725 20.740740740740744,91.85185185185186 20.31746031746032,91.42857142857143 19.894179894179896,91.00529100529101 19.47089947089947,90.58201058201058 19.047619047619047,90.15873015873017 18.624338624338627,89.52380952380953 18.201058201058203,89.1005291005291 17.77777777777778,88.46560846560847 17.354497354497354,87.83068783068784 16.931216931216934,87.40740740740742 16.50793650793651,86.77248677248677 16.084656084656086,86.13756613756614 15.661375661375663,85.71428571428572 15.238095238095239,85.29100529100529 14.814814814814817,84.65608465608466 14.391534391534393,84.02116402116403 13.96825396825397,83.3862433862434 13.756613756613758,82.75132275132276 13.333333333333334,82.32804232804233 12.910052910052912,81.6931216931217 12.486772486772487,81.26984126984128 12.063492063492065,80.63492063492065 11.640211640211641,80.0 11.216931216931219,79.36507936507937 10.793650793650794,78.94179894179895 10.370370370370372,78.30687830687832 9.947089947089948,77.88359788359789 9.523809523809524,77.46031746031747 9.312169312169313,76.82539682539684 8.88888888888889,76.4021164021164 8.465608465608467,75.76719576719577 8.042328042328043,75.34391534391536 7.6190476190476195,74.92063492063492 7.195767195767196,74.28571428571429 6.772486772486773,73.86243386243387 6.34920634920635,73.22751322751323 5.9259259259259265,72.5925925925926 5.502645502645503,72.16931216931218 5.07936507936508,71.74603174603175 4.656084656084657,71.32275132275133 4.2328042328042335,70.8994708994709 3.8095238095238098,70.26455026455027 3.3862433862433865,69.62962962962963 2.9629629629629632,69.20634920634922 2.53968253968254,68.57142857142858 2.1164021164021167,68.14814814814815 -0.4232804232804233,64.97354497354497" style="fill:none; stroke:#3300bb; stroke-width:1.0"  /><circle cx="-0.4232804232804233" cy="64.97354497354497" r="2.0" style="fill:none; stroke:#000000aa; stroke-width:0.25" /><circle cx="128.88888888888889" cy="14.391534391534393" r="2.0" style="fill:none; stroke:#000000aa; stroke-width:0.25" /><circle cx="183.4920634920635" cy="104.33862433862434" r="2.0" style="fill:none; stroke:#000000aa; stroke-width:0.25" /><circle cx="103.4920634920635" cy="173.33333333333334" r="2.0" style="fill:none; stroke:#000000aa; stroke-width:0.25" /><circle cx="0.21164021164021166" cy="65.3968253968254" r="2.0" style="fill:none; stroke:#ff3366aa; stroke-width:0.25" /><circle cx="129.10052910052912" cy="15.026455026455027" r="2.0" style="fill:none; stroke:#ff3366aa; stroke-width:0.25" /><circle cx="182.64550264550266" cy="103.70370370370371" r="2.0" style="fill:none; stroke:#ff3366aa; stroke-width:0.25" /><circle cx="103.70370370370371" cy="173.12169312169314" r="2.0" style="fill:none; stroke:#ff3366aa; stroke-width:0.25" /><polyline points="11.428571428571429,62.22222222222223 10.793650793650794,62.43386243386244 10.15873015873016,62.43386243386244 9.523809523809524,62.64550264550265 8.88888888888889,62.85714285714286 8.253968253968255,62.64550264550265 7.6190476190476195,63.06878306878308 6.984126984126985,63.280423280423285 6.34920634920635,63.280423280423285 5.714285714285714,63.280423280423285 5.07936507936508,63.492063492063494 4.444444444444445,63.70370370370371 3.8095238095238098,63.91534391534392 3.174603174603175,64.12698412698413" style="fill:none; stroke:#001100; stroke-width:1.0" /><polyline points="7.195767195767196,74.28571428571429 6.772486772486773,73.86243386243387 6.34920634920635,73.22751322751323 5.9259259259259265,72.5925925925926 5.502645502645503,72.16931216931218 5.07936507936508,71.74603174603175 4.656084656084657,71.32275132275133 4.2328042328042335,70.8994708994709 3.8095238095238098,70.26455026455027 3.3862433862433865,69.62962962962963 2.9629629629629632,69.20634920634922 2.53968253968254,68.57142857142858 2.1164021164021167,68.14814814814815" style="fill:none; stroke:#000011; stroke-width:1.0" /><polyline points="135.44973544973547,24.761904761904763 135.23809523809524,24.12698412698413 134.81481481481484,23.492063492063494 134.3915343915344,22.857142857142858 134.17989417989418,22.222222222222225 133.75661375661377,21.58730158730159 133.33333333333334,20.952380952380953 132.9100529100529,20.529100529100532 132.4867724867725,19.894179894179896 132.06349206349208,19.25925925925926 131.64021164021165,18.624338624338627 131.21693121693121,17.98941798941799" style="fill:none; stroke:#001100; stroke-width:1.0" /><polyline points="118.73015873015873,19.682539682539684 119.36507936507937,19.47089947089947 119.7883597883598,19.047619047619047 120.42328042328043,18.83597883597884 121.05820105820106,18.412698412698415 121.6931216931217,18.201058201058203 122.11640211640213,17.77777777777778 122.75132275132276,17.566137566137566 123.17460317460318,17.142857142857146 123.80952380952382,16.931216931216934 124.44444444444446,16.50793650793651 125.07936507936509,16.296296296296298 125.71428571428572,16.084656084656086" style="fill:none; stroke:#000011; stroke-width:1.0" /><polyline points="175.44973544973547,112.5925925925926 175.87301587301587,112.16931216931218 176.2962962962963,111.74603174603176 176.71957671957674,111.11111111111111 177.14285714285717,110.6878306878307 177.56613756613757,110.26455026455027 177.989417989418,109.84126984126985 178.41269841269843,109.20634920634922 178.83597883597884,108.78306878306879 179.25925925925927,108.35978835978837 179.6825396825397,107.93650793650795 180.31746031746033,107.51322751322752 180.74074074074076,107.0899470899471 181.16402116402116,106.66666666666667" style="fill:none; stroke:#001100; stroke-width:1.0" /><polyline points="173.12169312169314,97.14285714285715 173.75661375661377,97.56613756613757 174.3915343915344,97.989417989418 174.81481481481484,98.41269841269842 175.44973544973547,98.83597883597885 176.0846560846561,99.25925925925927 176.50793650793653,99.68253968253968 177.14285714285717,100.10582010582011 177.7777777777778,100.52910052910053 178.41269841269843,100.95238095238096 179.04761904761907,101.37566137566138 179.6825396825397,101.5873015873016 180.10582010582013,102.01058201058201" style="fill:none; stroke:#000011; stroke-width:1.0" /><polyline points="95.23809523809524,165.0793650793651 95.66137566137567,165.50264550264552 96.08465608465609,165.92592592592595 96.50793650793652,166.34920634920636 96.93121693121694,166.7724867724868 97.35449735449737,167.19576719576722 97.77777777777779,167.61904761904762 98.2010582010582,168.04232804232805 98.83597883597885,168.46560846560848 99.25925925925927,168.8888888888889 99.68253968253968,169.31216931216932 100.10582010582011,169.94708994708995 100.52910052910053,170.37037037037038 100.95238095238096,170.7936507936508 101.37566137566138,171.21693121693124" style="fill:none; stroke:#001100; stroke-width:1.0" /><polyline points="114.07407407407408,167.40740740740742 113.43915343915344,167.83068783068785 112.80423280423281,168.04232804232805 112.16931216931218,168.46560846560848 111.53439153439155,168.8888888888889 110.89947089947091,169.10052910052912 110.47619047619048,169.52380952380955 109.84126984126985,169.73544973544975 109.20634920634922,170.15873015873018 108.57142857142858,170.58201058201058 107.93650793650795,170.7936507936508 107.3015873015873,171.21693121693124 106.66666666666667,171.64021164021165" style="fill:none; stroke:#000011; stroke-width:1.0" /><polyline points="3.174603174603175,64.12698412698413 -17.354497354497354,68.78306878306879" style="fill:none; stroke:#ffaa00; stroke-width:0.4" /><polyline points="2.1164021164021167,68.14814814814815 -11.428571428571429,51.851851851851855" style="fill:none; stroke:#aaff00; stroke-width:0.4" /><polyline points="131.21693121693121,17.98941798941799 120.00000000000001,0.0" style="fill:none; stroke:#ffaa00; stroke-width:0.4" /><polyline points="125.71428571428572,16.084656084656086 144.55026455026456,6.34920634920635" style="fill:none; stroke:#aaff00; stroke-width:0.4" /><polyline points="181.16402116402116,106.66666666666667 195.76719576719577,91.42857142857143" style="fill:none; stroke:#ffaa00; stroke-width:0.4" /><polyline points="180.10582010582013,102.01058201058201 197.46031746031747,114.07407407407408" style="fill:none; stroke:#aaff00; stroke-width:0.4" /><polyline points="101.37566137566138,171.21693121693124 116.4021164021164,186.24338624338625" style="fill:none; stroke:#ffaa00; stroke-width:0.4" /><polyline points="106.66666666666667,171.64021164021165 88.25396825396827,182.22222222222223" style="fill:none; stroke:#aaff00; stroke-width:0.4" /><circle cx="103.91534391534393" cy="79.36507936507937" r="1.0" style="fill:#444444; stroke-width:0" /><circle cx="110.6878306878307" cy="72.80423280423281" r="10.582010582010582" style="fill:#ff770022; stroke-width:0" /><circle cx="110.6878306878307" cy="72.80423280423281" r="1.0" style="fill:#ff7700; stroke-width:0" /></svg>