<?xml version="1.0" encoding="UTF-8" standalone="no"?><svg width="563.1746031746032" height="479.3650793650794" viewBox="-10 -10 207.72486772486775 179.7883597883598" xmlns="http://www.w3.org/2000/svg" xmlns:xlink="http://www.w3.org/1999/xlink"><polyline points="35.13227513227513,23.280423280423282 38.51851851851852,24.338624338624342 39.15343915343916,24.55026455026455 39.78835978835979,24.55026455026455 40.423280423280424,24.973544973544975 41.058201058201064,24.973544973544975 41.6931216931217,25.185185185185187 42.11640211640212,25.60846560846561 42.75132275132275,25.820105820105823 43.386243386243386,26.031746031746035 44.021164021164026,26.243386243386244 44.65608465608466,26.455026455026456 45.29100529100529,26.666666666666668 45.92592592592593,26.87830687830688 46.560846560846564,27.089947089947092 46.98412698412699,27.513227513227516 47.61904761904762,27.724867724867728 48.25396825396826,27.93650793650794 48.88888888888889,28.14814814814815 49.31216931216932,28.571428571428573 49.94708994708995,28.783068783068785 50.58201058201058,28.994708994708997 51.21693121693122,29.20634920634921 51.851851851851855,29.629629629629633 52.48677248677249,29.841269841269842 53.12169312169313,30.052910052910054 53.75661375661376,30.476190476190478 54.39153439153439,30.68783068783069 55.02645502645503,30.899470899470902 55.661375661375665,31.322751322751326 56.2962962962963,31.53439153439154 56.93121693121694,31.746031746031747 57.56613756613757,31.95767195767196 57.989417989417994,32.38095238095239 58.62433862433863,32.592592592592595 59.25925925925927,32.592592592592595 59.8941798941799,33.01587301587302 60.52910052910053,33.22751322751323 61.16402116402117,33.43915343915344 61.798941798941804,33.43915343915344 62.43386243386244,33.86243386243387 63.06878306878308,33.86243386243387 63.70370370370371,34.28571428571429 64.33862433862434,34.4973544973545 64.97354497354497,34.4973544973545 65.60846560846561,34.70899470899471 66.24338624338625,34.920634920634924 66.66666666666667,35.34391534391535 67.3015873015873,35.55555555555556 67.93650793650794,35.55555555555556 68.57142857142858,35.76719576719577 69.20634920634922,36.19047619047619 69.84126984126985,36.402116402116405 70.47619047619048,36.402116402116405 71.11111111111111,36.613756613756614 71.74603174603175,36.82539682539683 72.38095238095238,37.03703703703704 73.01587301587303,37.248677248677254 73.43915343915344,37.67195767195768 74.07407407407408,37.67195767195768 74.70899470899471,37.67195767195768 75.34391534391536,38.095238095238095 75.97883597883599,38.30687830687831 76.61375661375662,38.51851851851852 77.24867724867725,38.51851851851852 77.88359788359789,38.730158730158735 78.51851851851852,39.15343915343916 79.15343915343917,39.15343915343916 79.7883597883598,39.36507936507937 80.42328042328043,39.57671957671958 81.05820105820106,39.78835978835979 81.6931216931217,40.0 82.32804232804233,40.0 82.96296296296298,40.423280423280424 83.59788359788361,40.423280423280424 84.23280423280424,40.63492063492064 84.86772486772487,40.84656084656085 85.5026455026455,40.84656084656085 86.13756613756614,41.058201058201064 86.77248677248677,41.058201058201064 87.40740740740742,41.058201058201064 88.04232804232805,41.26984126984127 88.67724867724868,41.26984126984127 89.31216931216932,41.26984126984127 89.94708994708995,41.48148148148149 90.58201058201058,41.48148148148149 91.21693121693123,41.6931216931217 91.85185185185186,41.6931216931217 92.4867724867725,41.6931216931217 93.12169312169313,41.6931216931217 93.75661375661376,41.6931216931217 94.39153439153439,41.6931216931217 95.02645502645504,41.6931216931217 95.66137566137567,41.48148148148149 96.2962962962963,41.48148148148149 96.71957671957672,41.058201058201064 97.35449735449737,41.058201058201064 97.989417989418,40.63492063492064 98.62433862433863,40.211640211640216 99.04761904761905,39.78835978835979 99.47089947089948,39.36507936507937 99.8941798941799,38.730158730158735 100.31746031746033,38.095238095238095 100.52910052910053,37.46031746031746 100.52910052910053,36.82539682539683 100.74074074074075,36.19047619047619 100.74074074074075,35.55555555555556 100.95238095238096,34.920634920634924 100.95238095238096,34.28571428571429 100.95238095238096,33.65079365079365 100.95238095238096,33.01587301587302 100.74074074074075,32.38095238095239 100.74074074074075,31.746031746031747 100.52910052910053,31.111111111111114 100.31746031746033,30.476190476190478 100.10582010582011,29.841269841269842 99.8941798941799,29.20634920634921 99.68253968253968,28.571428571428573 99.25925925925927,27.93650793650794 99.04761904761905,27.301587301587304 98.83597883597885,26.666666666666668 98.62433862433863,26.031746031746035 98.2010582010582,25.3968253968254 97.989417989418,24.761904761904763 97.77777777777779,24.12698412698413 97.56613756613757,23.492063492063494 97.14285714285715,22.857142857142858 96.93121693121694,22.222222222222225 96.50793650793652,21.58730158730159 96.2962962962963,20.952380952380953 96.08465608465609,20.31746031746032 95.87301587301587,19.682539682539684 95.66137566137567,19.047619047619047 95.44973544973546,18.412698412698415 95.23809523809524,17.77777777777778 95.02645502645504,17.142857142857146 94.81481481481482,16.50793650793651 94.60317460317461,15.873015873015873 94.39153439153439,15.238095238095239 94.39153439153439,14.603174603174605 94.17989417989419,13.96825396825397 94.17989417989419,13.333333333333334 94.17989417989419,12.6984126984127 94.17989417989419,12.063492063492065 94.17989417989419,11.428571428571429 94.17989417989419,10.793650793650794 94.17989417989419,10.15873015873016 94.17989417989419,9.523809523809524 94.39153439153439,8.88888888888889 94.39153439153439,8.253968253968255 94.60317460317461,7.6190476190476195 94.81481481481482,6.984126984126985 95.23809523809524,6.34920634920635 95.66137566137567,5.714285714285714 96.08465608465609,5.291005291005291 96.50793650793652,4.867724867724868 96.93121693121694,4.444444444444445 97.35449735449737,4.021164021164021 97.989417989418,3.597883597883598 98.62433862433863,3.174603174603175 99.25925925925927,2.9629629629629632 99.8941798941799,2.7513227513227516 100.52910052910053,2.3280423280423284 101.16402116402116,2.1164021164021167 101.5873015873016,1.6931216931216932 102.22222222222223,1.6931216931216932 102.85714285714286,1.6931216931216932 103.4920634920635,1.4814814814814816 103.91534391534393,1.0582010582010584 104.55026455026456,1.26984126984127 105.18518518518519,1.0582010582010584 105.82010582010582,1.0582010582010584 106.45502645502647,0.8465608465608466 107.0899470899471,0.8465608465608466 107.72486772486774,0.634920634920635 108.35978835978837,0.634920634920635 108.994708994709,0.634920634920635 109.62962962962963,0.634920634920635 110.05291005291006,0.21164021164021166 110.6878306878307,0.21164021164021166 111.32275132275133,0.21164021164021166 111.95767195767196,0.21164021164021166 112.5925925925926,0.21164021164021166 113.22751322751324,0.21164021164021166 113.86243386243387,0.21164021164021166 114.28571428571429,0.634920634920635 114.70899470899472,0.21164021164021166 115.34391534391536,0.4232804232804233 115.97883597883599,0.634920634920635 116.61375661375662,0.634920634920635 117.24867724867725,0.634920634920635 117.88359788359789,0.8465608465608466 118.51851851851853,1.0582010582010584 119.15343915343917,1.26984126984127 119.7883597883598,1.4814814814814816 120.42328042328043,1.6931216931216932 121.05820105820106,1.9047619047619049 121.6931216931217,2.3280423280423284 122.32804232804234,2.53968253968254 122.96296296296298,2.9629629629629632 123.59788359788361,3.174603174603175 124.02116402116403,3.597883597883598 124.65608465608466,4.021164021164021 125.07936507936509,4.444444444444445 125.5026455026455,4.867724867724868 125.92592592592594,5.291005291005291 126.56084656084657,5.714285714285714 126.98412698412699,6.34920634920635 127.40740740740742,6.772486772486773 127.83068783068784,7.195767195767196 128.04232804232805,7.830687830687832 128.25396825396825,8.465608465608467 128.25396825396825,9.100529100529101 128.46560846560848,9.735449735449736 128.46560846560848,10.370370370370372 128.46560846560848,11.005291005291006 128.46560846560848,11.640211640211641 128.46560846560848,12.275132275132275 128.25396825396825,12.910052910052912 128.04232804232805,13.544973544973546 128.04232804232805,14.17989417989418 127.83068783068784,14.814814814814817 127.40740740740742,15.449735449735451 127.1957671957672,16.084656084656086 126.77248677248679,16.71957671957672 126.56084656084657,17.354497354497354 126.13756613756615,17.98941798941799 125.92592592592594,18.624338624338627 125.5026455026455,19.25925925925926 125.2910052910053,19.894179894179896 124.86772486772487,20.529100529100532 124.44444444444446,21.164021164021165 124.02116402116403,21.7989417989418 123.59788359788361,22.433862433862437 123.3862433862434,23.06878306878307 123.17460317460318,23.703703703703706 122.75132275132276,24.338624338624342 122.53968253968254,24.973544973544975 122.11640211640213,25.60846560846561 121.90476190476191,26.243386243386244 121.6931216931217,26.87830687830688 121.26984126984128,27.513227513227516 121.05820105820106,28.14814814814815 120.84656084656086,28.783068783068785 120.84656084656086,29.41798941798942 120.63492063492065,30.052910052910054 120.63492063492065,30.68783068783069 120.63492063492065,31.322751322751326 120.63492063492065,31.95767195767196 120.63492063492065,32.592592592592595 120.63492063492065,33.22751322751323 120.84656084656086,33.86243386243387 121.05820105820106,34.4973544973545 121.4814814814815,35.13227513227513 121.90476190476191,35.76719576719577 122.32804232804234,36.19047619047619 122.75132275132276,36.82539682539683 123.3862433862434,37.03703703703704 123.80952380952382,37.46031746031746 124.23280423280424,37.883597883597886 124.65608465608466,38.30687830687831 125.2910052910053,38.730158730158735 125.92592592592594,39.15343915343916 126.34920634920636,39.57671957671958 126.98412698412699,40.0 127.61904761904763,40.211640211640216 128.25396825396825,40.423280423280424 128.88888888888889,40.63492063492064 129.52380952380955,40.84656084656085 130.15873015873018,41.058201058201064 130.7936507936508,41.26984126984127 131.42857142857144,41.26984126984127 132.06349206349208,41.058201058201064 132.6984126984127,41.058201058201064 133.33333333333334,41.058201058201064 133.96825396825398,40.63492063492064 134.6031746031746,40.63492063492064 135.23809523809524,40.63492063492064 135.87301587301587,40.211640211640216 136.5079365079365,40.0 137.14285714285717,39.78835978835979 137.7777777777778,39.36507936507937 138.41269841269843,39.15343915343916 139.04761904761907,38.94179894179894 139.6825396825397,38.51851851851852 140.31746031746033,38.095238095238095 140.95238095238096,37.883597883597886 141.5873015873016,37.46031746031746 142.22222222222223,37.248677248677254 142.64550264550266,36.82539682539683 143.2804232804233,36.402116402116405 143.91534391534393,36.19047619047619 144.55026455026456,35.97883597883598 145.1851851851852,35.55555555555556 145.82010582010582,35.34391534391535 146.45502645502646,34.920634920634924 147.0899470899471,34.70899470899471 147.72486772486775,34.28571428571429 148.35978835978838,34.074074074074076 148.99470899470901,33.86243386243387 149.41798941798942,33.43915343915344 150.05291005291005,33.22751322751323 150.6878306878307,33.01587301587302 151.32275132275134,32.592592592592595 151.95767195767198,32.16931216931217 152.5925925925926,31.95767195767196 153.22751322751324,31.746031746031747 153.86243386243387,31.322751322751326 154.4973544973545,31.111111111111114 155.13227513227514,30.899470899470902 155.55555555555557,30.476190476190478 156.1904761904762,30.476190476190478 156.61375661375664,30.052910052910054 157.24867724867727,30.052910052910054 157.67195767195767,29.629629629629633 158.30687830687833,29.41798941798942 158.94179894179896,28.994708994708997 159.5767195767196,28.783068783068785 160.21164021164023,28.571428571428573 160.84656084656086,28.14814814814815 161.4814814814815,27.93650793650794 162.11640211640213,27.724867724867728 162.75132275132276,27.513227513227516 163.3862433862434,27.089947089947092 164.02116402116403,27.089947089947092 167.40740740740742,25.60846560846561" style="fill:none; stroke:#cc0000; stroke-width:1.0"  /><polyline points="167.40740740740742,25.60846560846561 166.34920634920636,28.994708994708997 166.13756613756615,29.629629629629633 165.92592592592595,30.264550264550266 165.71428571428572,30.899470899470902 165.50264550264552,31.53439153439154 165.2910052910053,32.16931216931217 165.0793650793651,32.804232804232804 164.8677248677249,33.43915343915344 164.65608465608466,34.074074074074076 164.44444444444446,34.70899470899471 164.23280423280426,35.34391534391535 163.80952380952382,35.97883597883598 163.59788359788362,36.613756613756614 163.59788359788362,37.248677248677254 163.1746031746032,37.883597883597886 162.96296296296296,38.51851851851852 162.75132275132276,39.15343915343916 162.53968253968256,39.78835978835979 162.32804232804233,40.423280423280424 161.90476190476193,41.058201058201064 161.6931216931217,41.6931216931217 161.2698412698413,42.32804232804233 161.05820105820106,42.96296296296297 160.84656084656086,43.5978835978836 160.63492063492066,44.232804232804234 160.42328042328043,44.867724867724874 160.42328042328043,45.50264550264551 160.21164021164023,46.13756613756614 160.21164021164023,46.77248677248678 160.0,47.40740740740741 160.0,48.042328042328045 160.0,48.677248677248684 160.0,49.31216931216932 160.0,49.94708994708995 160.0,50.58201058201058 160.0,51.21693121693122 159.7883597883598,51.851851851851855 159.7883597883598,52.48677248677249 159.7883597883598,53.12169312169313 160.0,53.75661375661376 160.21164021164023,54.39153439153439 160.21164021164023,55.02645502645503 160.42328042328043,55.661375661375665 160.84656084656086,56.08465608465609 161.05820105820106,56.71957671957672 161.4814814814815,57.35449735449736 161.90476190476193,57.989417989417994 162.32804232804233,58.41269841269842 162.96296296296296,58.83597883597884 163.3862433862434,59.25925925925927 164.02116402116403,59.682539682539684 164.65608465608466,59.8941798941799 165.2910052910053,59.8941798941799 165.92592592592595,60.10582010582011 166.56084656084658,60.31746031746032 167.19576719576722,60.10582010582011 167.83068783068785,59.8941798941799 168.46560846560848,59.8941798941799 169.10052910052912,59.8941798941799 169.73544973544975,59.8941798941799 170.37037037037038,59.682539682539684 171.005291005291,59.682539682539684 171.64021164021165,59.470899470899475 172.27513227513228,59.470899470899475 172.9100529100529,59.25925925925927 173.54497354497354,59.04761904761905 174.1798941798942,59.04761904761905 174.81481481481484,58.83597883597884 175.44973544973547,58.62433862433863 176.0846560846561,58.62433862433863 176.71957671957674,58.62433862433863 177.35449735449737,58.62433862433863 177.989417989418,58.62433862433863 178.62433862433863,58.62433862433863 179.25925925925927,58.62433862433863 179.8941798941799,58.83597883597884 180.52910052910053,58.83597883597884 181.16402116402116,59.25925925925927 181.79894179894183,59.470899470899475 182.43386243386246,59.8941798941799 182.85714285714286,60.31746031746032 183.2804232804233,60.74074074074075 183.70370370370372,61.16402116402117 184.12698412698415,61.58730158730159 184.55026455026456,62.01058201058201 184.973544973545,62.64550264550265 185.1851851851852,63.280423280423285 185.60846560846562,63.91534391534392 185.82010582010582,64.55026455026456 186.03174603174605,65.18518518518519 186.24338624338625,65.82010582010582 186.45502645502646,66.45502645502646 186.45502645502646,67.08994708994709 186.66666666666669,67.72486772486774 186.8783068783069,68.35978835978837 187.08994708994712,68.994708994709 187.08994708994712,69.62962962962963 186.8783068783069,70.26455026455027 187.08994708994712,70.8994708994709 187.08994708994712,71.53439153439155 187.30158730158732,72.16931216931218 187.30158730158732,72.80423280423281 187.30158730158732,73.43915343915344 187.30158730158732,74.07407407407408 187.30158730158732,74.70899470899471 187.08994708994712,75.34391534391536 187.08994708994712,75.97883597883599 186.8783068783069,76.61375661375662 186.66666666666669,77.24867724867725 186.66666666666669,77.88359788359789 186.45502645502646,78.51851851851852 186.24338624338625,79.15343915343917 186.03174603174605,79.7883597883598 185.82010582010582,80.42328042328043 185.39682539682542,81.05820105820106 184.973544973545,81.6931216931217 184.55026455026456,82.11640211640213 183.91534391534393,82.53968253968254 183.4920634920635,82.96296296296298 182.85714285714286,83.17460317460318 182.22222222222223,83.3862433862434 181.5873015873016,83.59788359788361 180.95238095238096,83.80952380952381 180.31746031746033,84.02116402116403 179.6825396825397,84.23280423280424 179.04761904761907,84.23280423280424 178.41269841269843,84.23280423280424 177.7777777777778,84.23280423280424 177.14285714285717,84.23280423280424 176.50793650793653,84.23280423280424 175.87301587301587,84.23280423280424 175.23809523809524,84.23280423280424 174.6031746031746,84.02116402116403 173.96825396825398,84.02116402116403 173.33333333333334,83.80952380952381 172.6984126984127,83.59788359788361 172.06349206349208,83.3862433862434 171.42857142857144,83.17460317460318 170.7936507936508,82.96296296296298 170.15873015873018,82.96296296296298 169.73544973544975,82.53968253968254 169.10052910052912,82.53968253968254 168.46560846560848,82.53968253968254 167.83068783068785,82.53968253968254 167.19576719576722,82.53968253968254 166.56084656084658,82.75132275132276 165.92592592592595,82.96296296296298 165.2910052910053,82.96296296296298 164.65608465608466,83.17460317460318 164.02116402116403,83.3862433862434 163.3862433862434,83.80952380952381 162.75132275132276,84.02116402116403 162.32804232804233,84.44444444444446 161.90476190476193,84.86772486772487 161.4814814814815,85.29100529100529 161.05820105820106,85.71428571428572 160.63492063492066,86.13756613756614 160.21164021164023,86.77248677248677 159.7883597883598,87.40740740740742 159.5767195767196,88.04232804232805 159.15343915343917,88.67724867724868 159.15343915343917,89.31216931216932 158.94179894179896,89.94708994708995 158.73015873015873,90.58201058201058 158.51851851851853,91.21693121693123 158.51851851851853,91.85185185185186 158.51851851851853,92.4867724867725 158.30687830687833,93.12169312169313 158.30687830687833,93.75661375661376 158.30687830687833,94.39153439153439 158.0952380952381,95.02645502645504 158.0952380952381,95.66137566137567 158.0952380952381,96.2962962962963 158.0952380952381,96.93121693121694 158.0952380952381,97.56613756613757 157.8835978835979,98.2010582010582 157.8835978835979,98.83597883597885 157.8835978835979,99.47089947089948 157.67195767195767,100.10582010582011 157.67195767195767,100.74074074074075 157.67195767195767,101.37566137566138 157.67195767195767,102.01058201058201 157.67195767195767,102.64550264550266 157.46031746031747,103.28042328042329 157.46031746031747,103.91534391534393 157.46031746031747,104.55026455026456 157.46031746031747,105.18518518518519 157.24867724867727,105.82010582010582 157.24867724867727,106.45502645502647 157.46031746031747,107.0899470899471 157.24867724867727,107.72486772486774 157.24867724867727,108.35978835978837 157.24867724867727,108.994708994709 157.03703703703704,109.62962962962963 157.03703703703704,110.26455026455027 157.03703703703704,110.89947089947091 157.03703703703704,111.53439153439155 157.03703703703704,112.16931216931218 157.03703703703704,112.80423280423281 156.82539682539684,113.43915343915344 156.82539682539684,114.07407407407408 156.82539682539684,114.70899470899472 156.82539682539684,115.34391534391536 156.82539682539684,115.97883597883599 156.61375661375664,116.61375661375662 156.61375661375664,117.24867724867725 156.61375661375664,117.88359788359789 156.61375661375664,118.51851851851853 156.61375661375664,119.15343915343917 156.4021164021164,119.7883597883598 156.4021164021164,120.42328042328043 156.4021164021164,121.05820105820106 156.4021164021164,121.6931216931217 156.4021164021164,122.32804232804234 156.1904761904762,122.96296296296298 156.1904761904762,123.59788359788361 156.1904761904762,124.23280423280424 156.1904761904762,124.86772486772487 156.1904761904762,125.5026455026455 155.978835978836,128.67724867724868" style="fill:none; stroke:#999900; stroke-width:1.0"  /><polyline points="155.978835978836,128.67724867724868 152.8042328042328,127.40740740740742 152.16931216931218,127.1957671957672 151.53439153439155,126.98412698412699 150.8994708994709,126.56084656084657 150.26455026455028,126.34920634920636 149.62962962962965,126.13756613756615 148.99470899470901,125.92592592592594 148.35978835978838,125.71428571428572 147.72486772486775,125.2910052910053 147.0899470899471,125.07936507936509 146.45502645502646,124.86772486772487 145.82010582010582,124.65608465608466 145.1851851851852,124.23280423280424 144.55026455026456,124.23280423280424 144.12698412698413,123.80952380952382 143.4920634920635,123.59788359788361 142.85714285714286,123.3862433862434 142.22222222222223,122.96296296296298 141.5873015873016,122.75132275132276 140.95238095238096,122.53968253968254 140.31746031746033,122.32804232804234 139.6825396825397,121.90476190476191 139.04761904761907,121.6931216931217 138.41269841269843,121.4814814814815 137.7777777777778,121.26984126984128 137.14285714285717,121.05820105820106 136.5079365079365,120.84656084656086 135.87301587301587,120.63492063492065 135.23809523809524,120.42328042328043 134.6031746031746,120.00000000000001 133.96825396825398,120.00000000000001 133.33333333333334,119.7883597883598 132.6984126984127,119.7883597883598 132.06349206349208,119.57671957671958 131.42857142857144,119.7883597883598 130.7936507936508,119.7883597883598 130.15873015873018,119.7883597883598 129.52380952380955,119.7883597883598 128.88888888888889,119.57671957671958 128.25396825396825,119.57671957671958 127.61904761904763,119.7883597883598 126.98412698412699,119.7883597883598 126.34920634920636,120.00000000000001 125.71428571428572,120.00000000000001 125.07936507936509,120.21164021164022 124.44444444444446,120.21164021164022 123.80952380952382,120.63492063492065 123.17460317460318,120.63492063492065 122.53968253968254,120.84656084656086 121.90476190476191,121.26984126984128 121.26984126984128,121.6931216931217 120.84656084656086,122.11640211640213 120.42328042328043,122.53968253968254 120.00000000000001,122.96296296296298 119.57671957671958,123.3862433862434 119.15343915343917,124.02116402116403 118.73015873015873,124.65608465608466 118.51851851851853,125.2910052910053 118.30687830687832,125.92592592592594 118.0952380952381,126.56084656084657 118.0952380952381,127.1957671957672 118.0952380952381,127.83068783068784 118.0952380952381,128.46560846560848 118.0952380952381,129.10052910052912 118.0952380952381,129.73544973544975 118.30687830687832,130.37037037037038 118.30687830687832,131.005291005291 118.51851851851853,131.64021164021165 118.73015873015873,132.27513227513228 118.94179894179895,132.9100529100529 119.36507936507937,133.54497354497354 119.57671957671958,134.17989417989418 120.00000000000001,134.6031746031746 120.21164021164022,135.23809523809524 120.63492063492065,135.66137566137567 121.05820105820106,136.2962962962963 121.4814814814815,136.93121693121694 121.90476190476191,137.56613756613757 122.32804232804234,137.989417989418 122.75132275132276,138.62433862433863 123.17460317460318,139.25925925925927 123.59788359788361,139.6825396825397 124.02116402116403,140.31746031746033 124.44444444444446,140.95238095238096 124.86772486772487,141.3756613756614 125.2910052910053,142.01058201058203 125.92592592592594,142.43386243386246 126.34920634920636,143.0687830687831 126.77248677248679,143.70370370370372 126.98412698412699,144.33862433862436 127.40740740740742,144.973544973545 127.83068783068784,145.60846560846562 128.04232804232805,146.24338624338625 128.25396825396825,146.8783068783069 128.25396825396825,147.51322751322752 128.46560846560848,148.14814814814815 128.46560846560848,148.78306878306879 128.25396825396825,149.41798941798942 128.04232804232805,150.05291005291005 127.83068783068784,150.6878306878307 127.40740740740742,151.11111111111111 126.98412698412699,151.74603174603175 126.56084656084657,152.16931216931218 126.13756613756615,152.5925925925926 125.71428571428572,153.01587301587304 125.07936507936509,153.43915343915344 124.65608465608466,153.86243386243387 124.02116402116403,154.2857142857143 123.3862433862434,154.7089947089947 122.75132275132276,155.13227513227514 122.11640211640213,155.55555555555557 121.4814814814815,155.76719576719577 121.05820105820106,156.1904761904762 120.42328042328043,156.4021164021164 119.7883597883598,156.4021164021164 119.15343915343917,156.61375661375664 118.73015873015873,157.03703703703704 118.0952380952381,157.24867724867727 117.46031746031747,157.46031746031747 116.82539682539684,157.67195767195767 116.1904761904762,157.8835978835979 115.55555555555557,158.0952380952381 114.92063492063492,158.0952380952381 114.28571428571429,158.30687830687833 113.65079365079366,158.51851851851853 113.01587301587303,158.51851851851853 112.3809523809524,158.73015873015873 111.74603174603176,158.73015873015873 111.11111111111111,158.94179894179896 110.47619047619048,158.94179894179896 109.84126984126985,158.94179894179896 109.20634920634922,159.15343915343917 108.57142857142858,159.15343915343917 107.93650793650795,159.15343915343917 107.3015873015873,159.15343915343917 106.66666666666667,159.36507936507937 106.03174603174604,159.15343915343917 105.3968253968254,159.15343915343917 104.76190476190477,159.15343915343917 104.12698412698414,159.15343915343917 103.4920634920635,158.94179894179896 102.85714285714286,158.73015873015873 102.22222222222223,158.73015873015873 101.5873015873016,158.51851851851853 100.95238095238096,158.30687830687833 100.31746031746033,158.30687830687833 99.68253968253968,158.0952380952381 99.04761904761905,157.67195767195767 98.41269841269842,157.46031746031747 97.77777777777779,157.24867724867727 97.14285714285715,157.03703703703704 96.50793650793652,156.82539682539684 95.87301587301587,156.4021164021164 95.23809523809524,156.1904761904762 94.60317460317461,155.76719576719577 93.96825396825398,155.34391534391534 93.54497354497356,154.92063492063494 93.12169312169313,154.4973544973545 92.69841269841271,154.07407407407408 92.27513227513228,153.65079365079367 91.85185185185186,153.01587301587304 91.64021164021165,152.38095238095238 91.21693121693123,151.74603174603175 91.00529100529101,151.11111111111111 90.7936507936508,150.47619047619048 90.58201058201058,149.84126984126985 90.37037037037038,149.20634920634922 90.37037037037038,148.57142857142858 90.15873015873017,147.93650793650795 90.15873015873017,147.30158730158732 90.15873015873017,146.66666666666669 89.94708994708995,146.03174603174605 89.94708994708995,145.39682539682542 90.15873015873017,144.76190476190476 90.15873015873017,144.12698412698413 90.15873015873017,143.4920634920635 90.37037037037038,142.85714285714286 90.37037037037038,142.22222222222223 90.37037037037038,141.5873015873016 90.58201058201058,140.95238095238096 90.58201058201058,140.31746031746033 90.7936507936508,139.6825396825397 90.7936507936508,139.04761904761907 91.00529100529101,138.41269841269843 91.00529100529101,137.7777777777778 91.21693121693123,137.14285714285717 91.21693121693123,136.5079365079365 91.21693121693123,135.87301587301587 91.42857142857143,135.23809523809524 91.42857142857143,134.6031746031746 91.42857142857143,133.96825396825398 91.42857142857143,133.33333333333334 91.42857142857143,132.6984126984127 91.42857142857143,132.06349206349208 91.21693121693123,131.42857142857144 91.21693121693123,130.7936507936508 91.00529100529101,130.15873015873018 90.7936507936508,129.52380952380955 90.58201058201058,128.88888888888889 90.37037037037038,128.25396825396825 89.94708994708995,127.61904761904763 89.52380952380953,126.98412698412699 89.1005291005291,126.56084656084657 88.46560846560847,126.13756613756615 88.04232804232805,125.71428571428572 87.40740740740742,125.2910052910053 86.77248677248677,125.07936507936509 86.13756613756614,124.86772486772487 85.5026455026455,124.65608465608466 84.86772486772487,124.65608465608466 84.23280423280424,124.65608465608466 83.59788359788361,124.65608465608466 82.96296296296298,124.65608465608466 82.32804232804233,124.65608465608466 81.6931216931217,124.86772486772487 81.05820105820106,124.86772486772487 80.42328042328043,125.07936507936509 79.7883597883598,125.2910052910053 79.15343915343917,125.2910052910053 78.51851851851852,125.5026455026455 77.88359788359789,125.71428571428572 77.24867724867725,125.92592592592594 76.61375661375662,126.34920634920636 75.97883597883599,126.56084656084657 75.34391534391536,126.77248677248679 74.70899470899471,126.98412698412699 74.07407407407408,127.40740740740742 73.43915343915344,127.61904761904763 72.80423280423281,128.04232804232805 72.16931216931218,128.25396825396825 71.53439153439155,128.67724867724868 70.8994708994709,128.88888888888889 70.26455026455027,129.31216931216932 69.62962962962963,129.73544973544975 68.994708994709,130.15873015873018 68.35978835978837,130.37037037037038 67.93650793650794,130.7936507936508 67.3015873015873,131.21693121693121 66.66666666666667,131.42857142857144 66.03174603174604,131.64021164021165 65.60846560846561,132.06349206349208 64.97354497354497,132.27513227513228 64.33862433862434,132.6984126984127 63.70370370370371,133.12169312169314 63.06878306878308,133.33333333333334 62.64550264550265,133.75661375661377 62.01058201058201,133.96825396825398 61.58730158730159,134.3915343915344 60.952380952380956,134.6031746031746 60.31746031746032,135.02645502645504 59.682539682539684,135.23809523809524 59.25925925925927,135.66137566137567 58.62433862433863,136.0846560846561 57.989417989417994,136.2962962962963 57.35449735449736,136.71957671957674 56.71957671957672,137.14285714285717 56.08465608465609,137.56613756613757 55.449735449735456,137.7777777777778 54.81481481481482,137.989417989418 54.179894179894184,138.41269841269843 53.54497354497355,138.62433862433863 52.91005291005291,139.04761904761907 52.27513227513228,139.25925925925927 51.640211640211646,139.6825396825397 51.00529100529101,139.8941798941799 50.370370370370374,140.10582010582013 49.73544973544974,140.52910052910053 49.1005291005291,140.74074074074076 48.46560846560847,140.95238095238096 47.830687830687836,141.16402116402116 47.195767195767196,141.5873015873016 46.560846560846564,141.7989417989418 45.92592592592593,142.01058201058203 45.29100529100529,142.22222222222223 44.65608465608466,142.64550264550266 44.021164021164026,142.85714285714286 43.386243386243386,143.0687830687831 42.75132275132275,143.2804232804233 42.11640211640212,143.70370370370372 41.48148148148149,143.70370370370372 40.84656084656085,143.91534391534393 40.211640211640216,144.12698412698413 39.57671957671958,144.33862433862436 38.94179894179894,144.55026455026456 38.30687830687831,144.76190476190476 37.67195767195768,144.973544973545 37.03703703703704,145.1851851851852 36.402116402116405,145.1851851851852 35.76719576719577,145.39682539682542 35.13227513227513,145.60846560846562 34.4973544973545,145.82010582010582 33.86243386243387,145.82010582010582 33.22751322751323,146.03174603174605 32.592592592592595,146.24338624338625 31.95767195767196,146.45502645502646 31.322751322751326,146.45502645502646 30.68783068783069,146.66666666666669 30.052910052910054,146.66666666666669 29.41798941798942,146.8783068783069 28.783068783068785,147.0899470899471 28.14814814814815,147.0899470899471 27.513227513227516,147.30158730158732 26.87830687830688,147.51322751322752 26.243386243386244,147.72486772486775 25.60846560846561,147.93650793650795 24.973544973544975,147.93650793650795 24.338624338624342,148.14814814814815 23.703703703703706,148.14814814814815 23.06878306878307,148.35978835978838 22.433862433862437,148.35978835978838 21.7989417989418,148.35978835978838 21.164021164021165,148.57142857142858 20.529100529100532,148.57142857142858 19.894179894179896,148.57142857142858 19.25925925925926,148.57142857142858 18.624338624338627,148.78306878306879 17.98941798941799,148.78306878306879 17.354497354497354,148.99470899470901 16.71957671957672,148.99470899470901 16.084656084656086,148.99470899470901 15.449735449735451,148.99470899470901 14.814814814814817,148.99470899470901 14.17989417989418,148.99470899470901 13.544973544973546,148.99470899470901 12.910052910052912,148.99470899470901 12.275132275132275,148.99470899470901 11.640211640211641,149.20634920634922 11.005291005291006,149.20634920634922 10.370370370370372,149.20634920634922 9.735449735449736,149.20634920634922 9.100529100529101,149.20634920634922 8.465608465608467,149.20634920634922 7.830687830687832,149.41798941798942 7.195767195767196,149.41798941798942 6.560846560846561,149.41798941798942 5.9259259259259265,149.41798941798942 5.291005291005291,149.41798941798942 4.656084656084657,149.20634920634922 1.0582010582010584,149.20634920634922" style="fill:none; stroke:#00aa99; stroke-width:1.0"  /><polyline points="1.0582010582010584,149.20634920634922 0.8465608465608466,145.60846560846562 0.8465608465608466,144.973544973545 0.634920634920635,144.33862433862436 0.634920634920635,143.70370370370372 0.634920634920635,143.0687830687831 0.634920634920635,142.43386243386246 0.21164021164021166,141.7989417989418 0.21164021164021166,141.16402116402116 0.21164021164021166,140.52910052910053 0.21164021164021166,139.8941798941799 0.21164021164021166,139.25925925925927 0.21164021164021166,138.62433862433863 0.21164021164021166,137.989417989418 0.21164021164021166,137.35449735449737 0.21164021164021166,136.71957671957674 0.21164021164021166,136.0846560846561 0.21164021164021166,135.44973544973547 0.21164021164021166,134.81481481481484 0.21164021164021166,134.17989417989418 0.21164021164021166,133.54497354497354 0.21164021164021166,132.9100529100529 0.4232804232804233,132.27513227513228 0.4232804232804233,131.64021164021165 0.4232804232804233,131.005291005291 0.4232804232804233,130.37037037037038 0.634920634920635,129.73544973544975 0.634920634920635,129.10052910052912 0.634920634920635,128.46560846560848 0.8465608465608466,127.83068783068784 0.8465608465608466,127.1957671957672 1.0582010582010584,126.56084656084657 1.0582010582010584,125.92592592592594 1.26984126984127,125.2910052910053 1.26984126984127,124.65608465608466 1.4814814814814816,124.02116402116403 1.4814814814814816,123.3862433862434 1.6931216931216932,122.75132275132276 1.9047619047619049,122.11640211640213 1.9047619047619049,121.4814814814815 2.1164021164021167,120.84656084656086 2.3280423280423284,120.21164021164022 2.53968253968254,119.57671957671958 2.53968253968254,118.94179894179895 2.7513227513227516,118.30687830687832 2.9629629629629632,117.67195767195768 3.174603174603175,117.03703703703705 3.3862433862433865,116.4021164021164 3.597883597883598,115.76719576719577 3.8095238095238098,115.13227513227514 4.021164021164021,114.49735449735451 4.2328042328042335,113.86243386243387 4.444444444444445,113.22751322751324 4.656084656084657,112.5925925925926 5.07936507936508,111.95767195767196 5.291005291005291,111.32275132275133 5.502645502645503,110.6878306878307 5.714285714285714,110.05291005291006 6.137566137566138,109.41798941798943 6.34920634920635,108.78306878306879 6.560846560846561,108.14814814814815 6.984126984126985,107.51322751322752 6.984126984126985,106.87830687830689 7.407407407407408,106.24338624338625 7.6190476190476195,105.60846560846562 8.042328042328043,105.18518518518519 8.253968253968255,104.55026455026456 8.677248677248677,103.91534391534393 9.100529100529101,103.28042328042329 9.523809523809524,102.64550264550266 9.735449735449736,102.01058201058201 10.15873015873016,101.5873015873016 10.370370370370372,100.95238095238096 10.793650793650794,100.31746031746033 11.216931216931219,99.68253968253968 11.640211640211641,99.04761904761905 12.063492063492065,98.62433862433863 12.486772486772487,97.989417989418 12.910052910052912,97.56613756613757 13.333333333333334,97.14285714285715 13.756613756613758,96.71957671957672 14.391534391534393,96.2962962962963 15.026455026455027,95.87301587301587 15.661375661375663,95.66137566137567 16.296296296296298,95.44973544973546 16.931216931216934,95.23809523809524 17.566137566137566,95.23809523809524 18.201058201058203,95.23809523809524 18.83597883597884,95.23809523809524 19.47089947089947,95.44973544973546 20.105820105820108,95.66137566137567 20.740740740740744,95.87301587301587 21.375661375661377,96.08465608465609 22.010582010582013,96.2962962962963 22.645502645502646,96.71957671957672 23.280423280423282,96.93121693121694 23.915343915343918,97.14285714285715 24.55026455026455,97.56613756613757 25.185185185185187,97.989417989418 25.820105820105823,98.2010582010582 26.455026455026456,98.41269841269842 27.089947089947092,98.41269841269842 27.724867724867728,98.62433862433863 28.14814814814815,99.04761904761905 28.783068783068785,99.25925925925927 29.41798941798942,99.47089947089948 30.052910052910054,99.68253968253968 30.68783068783069,99.68253968253968 31.322751322751326,99.8941798941799 31.95767195767196,100.10582010582011 32.592592592592595,100.10582010582011 33.22751322751323,100.10582010582011 33.86243386243387,100.10582010582011 34.4973544973545,100.10582010582011 35.13227513227513,100.10582010582011 35.76719576719577,100.10582010582011 36.402116402116405,99.8941798941799 37.03703703703704,99.8941798941799 37.67195767195768,99.68253968253968 38.30687830687831,99.47089947089948 38.94179894179894,99.04761904761905 39.57671957671958,98.83597883597885 40.0,98.41269841269842 40.63492063492064,97.989417989418 41.058201058201064,97.56613756613757 41.6931216931217,97.14285714285715 42.11640211640212,96.71957671957672 42.539682539682545,96.08465608465609 42.96296296296297,95.66137566137567 43.17460317460318,95.02645502645504 43.5978835978836,94.60317460317461 43.80952380952381,93.96825396825398 44.232804232804234,93.33333333333334 44.44444444444445,92.69841269841271 44.65608465608466,92.06349206349208 44.867724867724874,91.42857142857143 45.07936507936508,90.7936507936508 45.29100529100529,90.15873015873017 45.50264550264551,89.52380952380953 45.50264550264551,88.8888888888889 45.714285714285715,88.25396825396827 45.714285714285715,87.61904761904762 45.92592592592593,86.98412698412699 45.92592592592593,86.34920634920636 45.92592592592593,85.71428571428572 45.92592592592593,85.07936507936509 45.92592592592593,84.44444444444446 45.92592592592593,83.80952380952381 45.714285714285715,83.17460317460318 45.714285714285715,82.53968253968254 45.714285714285715,81.90476190476191 45.50264550264551,81.26984126984128 45.50264550264551,80.63492063492065 45.29100529100529,80.0 45.29100529100529,79.36507936507937 45.07936507936508,78.73015873015873 44.867724867724874,78.0952380952381 44.65608465608466,77.46031746031747 44.44444444444445,76.82539682539684 44.021164021164026,76.19047619047619 43.80952380952381,75.55555555555556 43.386243386243386,75.13227513227514 42.96296296296297,74.49735449735451 42.539682539682545,74.07407407407408 42.11640211640212,73.65079365079366 41.6931216931217,73.22751322751323 41.26984126984127,72.80423280423281 40.63492063492064,72.5925925925926 40.211640211640216,72.16931216931218 39.57671957671958,71.95767195767196 38.94179894179894,71.74603174603175 38.30687830687831,71.74603174603175 37.67195767195768,71.53439153439155 37.03703703703704,71.53439153439155 36.402116402116405,71.53439153439155 35.76719576719577,71.53439153439155 35.13227513227513,71.53439153439155 34.4973544973545,71.74603174603175 33.86243386243387,71.74603174603175 33.22751322751323,71.95767195767196 32.592592592592595,72.16931216931218 31.95767195767196,72.38095238095238 31.322751322751326,72.5925925925926 30.68783068783069,72.80423280423281 30.052910052910054,73.01587301587303 29.41798941798942,73.22751322751323 28.783068783068785,73.22751322751323 28.14814814814815,73.43915343915344 27.513227513227516,73.65079365079366 26.87830687830688,73.86243386243387 26.243386243386244,74.07407407407408 25.60846560846561,74.07407407407408 24.973544973544975,74.07407407407408 24.338624338624342,74.07407407407408 23.703703703703706,74.07407407407408 23.06878306878307,74.07407407407408 22.433862433862437,73.86243386243387 21.7989417989418,73.65079365079366 21.164021164021165,73.43915343915344 20.740740740740744,73.01587301587303 20.105820105820108,72.5925925925926 19.682539682539684,72.16931216931218 19.047619047619047,71.74603174603175 18.624338624338627,71.11111111111111 18.412698412698415,70.47619047619048 18.201058201058203,69.84126984126985 18.201058201058203,69.20634920634922 18.201058201058203,68.57142857142858 18.201058201058203,67.93650793650794 18.412698412698415,67.3015873015873 18.624338624338627,66.66666666666667 19.047619047619047,66.03174603174604 19.25925925925926,65.3968253968254 19.682539682539684,64.76190476190477 19.894179894179896,64.12698412698413 20.31746031746032,63.70370370370371 20.529100529100532,63.06878306878308 20.952380952380953,62.43386243386244 21.375661375661377,61.798941798941804 21.7989417989418,61.16402116402117 22.010582010582013,60.52910052910053 22.433862433862437,59.8941798941799 22.645502645502646,59.25925925925927 23.06878306878307,58.62433862433863 23.280423280423282,57.989417989417994 23.492063492063494,57.35449735449736 23.915343915343918,56.71957671957672 24.338624338624342,56.08465608465609 24.55026455026455,55.449735449735456 24.973544973544975,54.81481481481482 25.185185185185187,54.179894179894184 25.60846560846561,53.54497354497355 25.820105820105823,52.91005291005291 26.031746031746035,52.27513227513228 26.455026455026456,51.640211640211646 26.666666666666668,51.00529100529101 26.87830687830688,50.370370370370374 27.089947089947092,49.73544973544974 27.513227513227516,49.1005291005291 27.724867724867728,48.46560846560847 28.14814814814815,47.830687830687836 28.35978835978836,47.195767195767196 28.571428571428573,46.560846560846564 28.783068783068785,45.92592592592593 28.994708994708997,45.29100529100529 29.41798941798942,44.65608465608466 29.629629629629633,44.021164021164026 29.841269841269842,43.386243386243386 30.052910052910054,42.75132275132275 30.264550264550266,42.11640211640212 30.476190476190478,41.48148148148149 30.68783068783069,40.84656084656085 30.899470899470902,40.211640211640216 31.322751322751326,39.57671957671958 31.53439153439154,38.94179894179894 31.746031746031747,38.30687830687831 31.95767195767196,37.67195767195768 31.95767195767196,37.03703703703704 32.16931216931217,36.402116402116405 32.16931216931217,35.76719576719577 32.38095238095239,35.13227513227513 32.592592592592595,34.4973544973545 32.804232804232804,33.86243386243387 33.01587301587302,33.22751322751323 33.22751322751323,32.592592592592595 33.22751322751323,31.95767195767196 33.43915343915344,31.322751322751326 33.65079365079365,30.68783068783069 33.86243386243387,30.052910052910054 33.86243386243387,29.41798941798942 34.074074074074076,28.783068783068785 34.074074074074076,28.14814814814815 34.28571428571429,27.513227513227516 34.28571428571429,26.87830687830688 35.13227513227513,23.280423280423282" style="fill:none; stroke:#3300bb; stroke-width:1.0"  /><circle cx="35.13227513227513" cy="23.280423280423282" r="2.0" style="fill:none; stroke:#000000aa; stroke-width:0.25" /><circle cx="167.40740740740742" cy="25.60846560846561" r="2.0" style="fill:none; stroke:#000000aa; stroke-width:0.25" /><circle cx="155.978835978836" cy="128.67724867724868" r="2.0" style="fill:none; stroke:#000000aa; stroke-width:0.25" /><circle cx="1.0582010582010584" cy="149.20634920634922" r="2.0" style="fill:none; stroke:#000000aa; stroke-width:0.25" /><circle cx="35.34391534391535" cy="23.915343915343918" r="2.0" style="fill:none; stroke:#ff3366aa; stroke-width:0.25" /><circle cx="167.19576719576722" cy="25.820105820105823" r="2.0" style="fill:none; stroke:#ff3366aa; stroke-width:0.25" /><circle cx="155.978835978836" cy="128.67724867724868" r="2.0" style="fill:none; stroke:#ff3366aa; stroke-width:0.25" /><circle cx="1.4814814814814816" cy="148.78306878306879" r="2.0" style="fill:none; stroke:#ff3366aa; stroke-width:0.25" /><polyline points="46.560846560846564,27.089947089947092 45.92592592592593,26.87830687830688 45.29100529100529,26.666666666666668 44.65608465608466,26.455026455026456 44.021164021164026,26.243386243386244 43.386243386243386,26.031746031746035 42.75132275132275,25.820105820105823 42.11640211640212,25.60846560846561 41.6931216931217,25.185185185185187 41.058201058201064,24.973544973544975 40.423280423280424,24.973544973544975 39.78835978835979,24.55026455026455 39.15343915343916,24.55026455026455 38.51851851851852,24.338624338624342" style="fill:none; stroke:#001100; stroke-width:1.0" /><polyline points="32.38095238095239,35.13227513227513 32.592592592592595,34.4973544973545 32.804232804232804,33.86243386243387 33.01587301587302,33.22751322751323 33.22751322751323,32.592592592592595 33.22751322751323,31.95767195767196 33.43915343915344,31.322751322751326 33.65079365079365,30.68783068783069 33.86243386243387,30.052910052910054 33.86243386243387,29.41798941798942 34.074074074074076,28.783068783068785 34.074074074074076,28.14814814814815 34.28571428571429,27.513227513227516 34.28571428571429,26.87830687830688" style="fill:none; stroke:#000011; stroke-width:1.0" /><polyline points="163.59788359788362,37.248677248677254 163.59788359788362,36.613756613756614 163.80952380952382,35.97883597883598 164.23280423280426,35.34391534391535 164.44444444444446,34.70899470899471 164.65608465608466,34.074074074074076 164.8677248677249,33.43915343915344 165.0793650793651,32.804232804232804 165.2910052910053,32.16931216931217 165.50264550264552,31.53439153439154 165.71428571428572,30.899470899470902 165.92592592592595,30.264550264550266 166.13756613756615,29.629629629629633 166.34920634920636,28.994708994708997" style="fill:none; stroke:#001100; stroke-width:1.0" /><polyline points="156.1904761904762,30.476190476190478 156.61375661375664,30.052910052910054 157.24867724867727,30.052910052910054 157.67195767195767,29.629629629629633 158.30687830687833,29.41798941798942 158.94179894179896,28.994708994708997 159.5767195767196,28.783068783068785 160.21164021164023,28.571428571428573 160.84656084656086,28.14814814814815 161.4814814814815,27.93650793650794 162.11640211640213,27.724867724867728 162.75132275132276,27.513227513227516 163.3862433862434,27.089947089947092 164.02116402116403,27.089947089947092" style="fill:none; stroke:#000011; stroke-width:1.0" /><polyline points="145.1851851851852,124.23280423280424 145.82010582010582,124.65608465608466 146.45502645502646,124.86772486772487 147.0899470899471,125.07936507936509 147.72486772486775,125.2910052910053 148.35978835978838,125.71428571428572 148.99470899470901,125.92592592592594 149.62962962962965,126.13756613756615 150.26455026455028,126.34920634920636 150.8994708994709,126.56084656084657 151.53439153439155,126.98412698412699 152.16931216931218,127.1957671957672 152.8042328042328,127.40740740740742" style="fill:none; stroke:#001100; stroke-width:1.0" /><polyline points="156.61375661375664,117.24867724867725 156.61375661375664,117.88359788359789 156.61375661375664,118.51851851851853 156.61375661375664,119.15343915343917 156.4021164021164,119.7883597883598 156.4021164021164,120.42328042328043 156.4021164021164,121.05820105820106 156.4021164021164,121.6931216931217 156.4021164021164,122.32804232804234 156.1904761904762,122.96296296296298 156.1904761904762,123.59788359788361 156.1904761904762,124.23280423280424 156.1904761904762,124.86772486772487 156.1904761904762,125.5026455026455" style="fill:none; stroke:#000011; stroke-width:1.0" /><polyline points="0.21164021164021166,137.35449735449737 0.21164021164021166,137.989417989418 0.21164021164021166,138.62433862433863 0.21164021164021166,139.25925925925927 0.21164021164021166,139.8941798941799 0.21164021164021166,140.52910052910053 0.21164021164021166,141.16402116402116 0.21164021164021166,141.7989417989418 0.634920634920635,142.43386243386246 0.634920634920635,143.0687830687831 0.634920634920635,143.70370370370372 0.634920634920635,144.33862433862436 0.8465608465608466,144.973544973545 0.8465608465608466,145.60846560846562" style="fill:none; stroke:#001100; stroke-width:1.0" /><polyline points="12.910052910052912,148.99470899470901 12.275132275132275,148.99470899470901 11.640211640211641,149.20634920634922 11.005291005291006,149.20634920634922 10.370370370370372,149.20634920634922 9.735449735449736,149.20634920634922 9.100529100529101,149.20634920634922 8.465608465608467,149.20634920634922 7.830687830687832,149.41798941798942 7.195767195767196,149.41798941798942 6.560846560846561,149.41798941798942 5.9259259259259265,149.41798941798942 5.291005291005291,149.41798941798942 4.656084656084657,149.20634920634922" style="fill:none; stroke:#000011; stroke-width:1.0" /><polyline points="38.51851851851852,24.338624338624342 18.412698412698415,17.566137566137566" style="fill:none; stroke:#ffaa00; stroke-width:0.4" /><polyline points="34.28571428571429,26.87830687830688 38.94179894179894,6.34920634920635" style="fill:none; stroke:#aaff00; stroke-width:0.4" /><polyline points="166.34920634920636,28.994708994708997 173.12169312169314,8.88888888888889" style="fill:none; stroke:#ffaa00; stroke-width:0.4" /><polyline points="164.02116402116403,27.089947089947092 183.4920634920635,18.624338624338627" style="fill:none; stroke:#aaff00; stroke-width:0.4" /><polyline points="152.8042328042328,127.40740740740742 172.27513227513228,135.44973544973547" style="fill:none; stroke:#ffaa00; stroke-width:0.4" /><polyline points="156.1904761904762,125.5026455026455 155.13227513227514,146.66666666666669" style="fill:none; stroke:#aaff00; stroke-width:0.4" /><polyline points="0.8465608465608466,145.60846560846562 2.53968253968254,166.7724867724868" style="fill:none; stroke:#ffaa00; stroke-width:0.4" /><polyline points="4.656084656084657,149.20634920634922 -16.50793650793651,149.84126984126985" style="fill:none; stroke:#aaff00; stroke-width:0.4" /><circle cx="91.00529100529101" cy="84.86772486772487" r="1.0" style="fill:#444444; stroke-width:0" /><circle cx="101.5873015873016" cy="83.80952380952381" r="10.582010582010582" style="fill:#ff770022; stroke-width:0" /><circle cx="101.5873015873016" cy="83.80952380952381" r="1.0" style="fill:#ff7700; stroke-width:0" /></svg>