<?xml version="1.0" encoding="UTF-8" standalone="no"?><svg width="552.3809523809524" height="521.2698412698413" viewBox="-10 -10 204.12698412698415 193.75661375661377" xmlns="http://www.w3.org/2000/svg" xmlns:xlink="http://www.w3.org/1999/xlink"><polyline points="102.43386243386244,-1.0582010582010584 105.60846560846562,2.3280423280423284 106.03174603174604,2.7513227513227516 106.45502645502647,3.174603174603175 106.87830687830689,3.8095238095238098 107.3015873015873,4.2328042328042335 107.72486772486774,4.656084656084657 108.14814814814815,5.07936507936508 108.57142857142858,5.714285714285714 108.994708994709,6.137566137566138 109.41798941798943,6.560846560846561 109.84126984126985,6.984126984126985 110.26455026455027,7.407407407407408 110.6878306878307,7.830687830687832 111.11111111111111,8.253968253968255 111.74603174603176,8.677248677248677 112.16931216931218,9.100529100529101 112.5925925925926,9.523809523809524 113.01587301587303,9.947089947089948 113.43915343915344,10.370370370370372 113.86243386243387,10.793650793650794 114.49735449735451,11.216931216931219 114.92063492063492,11.640211640211641 115.34391534391536,12.063492063492065 115.76719576719577,12.486772486772487 116.1904761904762,12.910052910052912 116.82539682539684,13.333333333333334 117.46031746031747,13.544973544973546 118.0952380952381,13.96825396825397 118.51851851851853,14.391534391534393 118.94179894179895,14.814814814814817 119.57671957671958,15.238095238095239 120.00000000000001,15.661375661375663 120.63492063492065,16.084656084656086 121.05820105820106,16.50793650793651 121.6931216931217,16.931216931216934 122.11640211640213,17.354497354497354 122.75132275132276,17.77777777777778 123.3862433862434,18.201058201058203 123.80952380952382,18.624338624338627 124.23280423280424,19.047619047619047 124.86772486772487,19.47089947089947 125.5026455026455,19.894179894179896 125.92592592592594,20.31746031746032 126.34920634920636,20.740740740740744 126.77248677248679,21.164021164021165 127.40740740740742,21.58730158730159 127.83068783068784,22.010582010582013 128.25396825396825,22.433862433862437 128.67724867724868,22.857142857142858 129.31216931216932,23.280423280423282 129.73544973544975,23.703703703703706 130.15873015873018,24.12698412698413 130.58201058201058,24.55026455026455 131.005291005291,24.973544973544975 131.42857142857144,25.3968253968254 131.85185185185185,25.820105820105823 132.27513227513228,26.243386243386244 132.6984126984127,26.666666666666668 133.12169312169314,27.089947089947092 133.54497354497354,27.513227513227516 133.96825396825398,27.93650793650794 134.3915343915344,28.35978835978836 134.81481481481484,28.783068783068785 135.23809523809524,29.20634920634921 135.66137566137567,29.629629629629633 136.0846560846561,30.052910052910054 136.5079365079365,30.68783068783069 136.93121693121694,31.111111111111114 137.35449735449737,31.53439153439154 137.7777777777778,31.95767195767196 138.2010582010582,32.38095238095239 138.62433862433863,32.804232804232804 139.04761904761907,33.43915343915344 139.47089947089947,33.86243386243387 139.8941798941799,34.28571428571429 140.31746031746033,34.920634920634924 140.74074074074076,35.55555555555556 141.16402116402116,36.19047619047619 141.5873015873016,36.82539682539683 141.7989417989418,37.46031746031746 142.01058201058203,38.095238095238095 142.01058201058203,38.730158730158735 142.22222222222223,39.36507936507937 142.01058201058203,40.0 142.01058201058203,40.63492063492064 141.7989417989418,41.26984126984127 141.3756613756614,41.904761904761905 140.74074074074076,42.32804232804233 140.31746031746033,42.75132275132275 139.6825396825397,43.17460317460318 139.04761904761907,43.5978835978836 138.41269841269843,43.80952380952381 137.989417989418,44.232804232804234 137.35449735449737,44.44444444444445 136.71957671957674,44.65608465608466 136.0846560846561,44.867724867724874 135.44973544973547,45.29100529100529 134.81481481481484,45.29100529100529 134.17989417989418,45.50264550264551 133.54497354497354,45.714285714285715 132.9100529100529,45.92592592592593 132.27513227513228,46.13756613756614 131.64021164021165,46.349206349206355 131.005291005291,46.77248677248678 130.37037037037038,46.98412698412699 129.73544973544975,47.195767195767196 129.10052910052912,47.61904761904762 128.46560846560848,48.042328042328045 128.04232804232805,48.46560846560847 127.40740740740742,48.88888888888889 126.98412698412699,49.31216931216932 126.34920634920636,49.73544973544974 125.92592592592594,50.158730158730165 125.5026455026455,50.58201058201058 125.07936507936509,51.00529100529101 124.65608465608466,51.42857142857143 124.23280423280424,52.06349206349207 123.80952380952382,52.6984126984127 123.59788359788361,53.333333333333336 123.3862433862434,53.968253968253975 123.17460317460318,54.60317460317461 122.96296296296298,55.23809523809524 122.96296296296298,55.87301587301588 122.96296296296298,56.50793650793651 122.96296296296298,57.142857142857146 122.96296296296298,57.777777777777786 122.96296296296298,58.41269841269842 123.17460317460318,59.04761904761905 123.3862433862434,59.682539682539684 123.59788359788361,60.31746031746032 124.02116402116403,60.952380952380956 124.23280423280424,61.58730158730159 124.44444444444446,62.22222222222223 124.86772486772487,62.85714285714286 125.07936507936509,63.492063492063494 125.5026455026455,64.12698412698413 125.92592592592594,64.76190476190477 126.13756613756615,65.3968253968254 126.56084656084657,66.03174603174604 126.98412698412699,66.66666666666667 127.40740740740742,67.3015873015873 127.83068783068784,67.93650793650794 128.25396825396825,68.57142857142858 128.67724867724868,68.994708994709 129.10052910052912,69.62962962962963 129.52380952380955,70.05291005291006 129.94708994708995,70.6878306878307 130.37037037037038,71.11111111111111 130.7936507936508,71.74603174603175 131.21693121693121,72.16931216931218 131.64021164021165,72.5925925925926 132.06349206349208,73.01587301587303 132.4867724867725,73.43915343915344 132.9100529100529,73.86243386243387 133.33333333333334,74.28571428571429 133.96825396825398,74.70899470899471 134.3915343915344,75.13227513227514 134.81481481481484,75.55555555555556 135.44973544973547,75.97883597883599 136.0846560846561,76.4021164021164 136.5079365079365,76.82539682539684 137.14285714285717,77.24867724867725 137.7777777777778,77.67195767195767 138.2010582010582,78.0952380952381 138.83597883597884,78.30687830687832 139.25925925925927,78.73015873015873 139.8941798941799,78.94179894179895 140.52910052910053,79.15343915343917 141.16402116402116,79.36507936507937 141.7989417989418,79.57671957671958 142.43386243386246,79.7883597883598 143.0687830687831,79.7883597883598 143.70370370370372,79.7883597883598 144.33862433862436,79.7883597883598 144.973544973545,79.57671957671958 145.60846560846562,79.57671957671958 146.24338624338625,79.36507936507937 146.8783068783069,79.15343915343917 147.51322751322752,78.73015873015873 148.14814814814815,78.30687830687832 148.78306878306879,77.88359788359789 149.20634920634922,77.46031746031747 149.84126984126985,77.03703703703704 150.26455026455028,76.4021164021164 150.6878306878307,75.97883597883599 151.11111111111111,75.34391534391536 151.53439153439155,74.92063492063492 151.95767195767198,74.49735449735451 152.38095238095238,74.07407407407408 152.5925925925926,73.43915343915344 153.01587301587304,72.80423280423281 153.43915343915344,72.16931216931218 153.86243386243387,71.74603174603175 154.07407407407408,71.11111111111111 154.4973544973545,70.47619047619048 154.7089947089947,69.84126984126985 154.7089947089947,69.20634920634922 154.92063492063494,68.57142857142858 155.13227513227514,67.93650793650794 155.34391534391534,67.3015873015873 155.55555555555557,66.66666666666667 155.76719576719577,66.03174603174604 155.978835978836,65.3968253968254 155.978835978836,64.76190476190477 156.4021164021164,64.33862433862434 156.4021164021164,63.70370370370371 156.61375661375664,63.06878306878308 157.03703703703704,62.64550264550265 157.24867724867727,62.01058201058201 157.46031746031747,61.37566137566138 157.8835978835979,60.74074074074075 158.30687830687833,60.10582010582011 158.73015873015873,59.470899470899475 159.15343915343917,59.04761904761905 159.5767195767196,58.62433862433863 160.21164021164023,58.2010582010582 160.84656084656086,57.989417989417994 161.4814814814815,57.989417989417994 162.11640211640213,57.777777777777786 162.75132275132276,57.989417989417994 163.3862433862434,57.989417989417994 164.02116402116403,57.989417989417994 164.65608465608466,58.2010582010582 165.2910052910053,58.41269841269842 165.92592592592595,58.62433862433863 166.34920634920636,59.04761904761905 166.7724867724868,59.470899470899475 167.19576719576722,59.8941798941799 167.61904761904762,60.31746031746032 168.04232804232805,60.952380952380956 168.46560846560848,61.37566137566138 168.8888888888889,61.798941798941804 169.31216931216932,62.43386243386244 169.73544973544975,62.85714285714286 170.15873015873018,63.492063492063494 170.58201058201058,64.12698412698413 171.005291005291,64.55026455026456 171.21693121693124,65.18518518518519 171.64021164021165,65.60846560846561 172.06349206349208,66.24338624338625 172.4867724867725,66.87830687830689 172.9100529100529,67.51322751322752 173.33333333333334,68.14814814814815 173.75661375661377,68.78306878306879 174.1798941798942,69.41798941798942 174.6031746031746,70.05291005291006 175.02645502645504,70.6878306878307 175.44973544973547,71.32275132275133 175.66137566137567,71.95767195767196 176.0846560846561,72.38095238095238 176.2962962962963,73.01587301587303 176.71957671957674,73.65079365079366 177.14285714285717,74.28571428571429 177.56613756613757,74.92063492063492 177.989417989418,75.55555555555556 178.2010582010582,76.19047619047619 178.62433862433863,76.82539682539684 179.04761904761907,77.46031746031747 179.4708994708995,78.0952380952381 179.6825396825397,78.73015873015873 180.10582010582013,79.36507936507937 180.52910052910053,80.0 180.74074074074076,80.63492063492065 181.16402116402116,81.26984126984128 181.3756613756614,81.90476190476191 181.79894179894183,82.32804232804233 182.01058201058203,82.96296296296298 182.43386243386246,83.59788359788361 184.33862433862436,86.98412698412699" style="fill:none; stroke:#cc0000; stroke-width:1.0"  /><polyline points="184.33862433862436,86.98412698412699 180.95238095238096,88.67724867724868 180.31746031746033,88.8888888888889 179.6825396825397,89.31216931216932 179.04761904761907,89.52380952380953 178.41269841269843,89.94708994708995 177.7777777777778,90.15873015873017 177.14285714285717,90.58201058201058 176.50793650793653,90.7936507936508 175.87301587301587,91.00529100529101 175.23809523809524,91.21693121693123 174.6031746031746,91.64021164021165 173.96825396825398,91.85185185185186 173.33333333333334,92.27513227513228 172.6984126984127,92.4867724867725 172.27513227513228,92.91005291005291 171.64021164021165,93.12169312169313 171.21693121693124,93.54497354497356 170.58201058201058,93.75661375661376 170.15873015873018,94.17989417989419 169.52380952380955,94.60317460317461 168.8888888888889,95.02645502645504 168.25396825396825,95.44973544973546 167.83068783068785,95.87301587301587 167.19576719576722,96.2962962962963 166.7724867724868,96.71957671957672 166.13756613756615,97.14285714285715 165.71428571428572,97.56613756613757 165.2910052910053,97.989417989418 164.8677248677249,98.41269841269842 164.44444444444446,98.83597883597885 164.02116402116403,99.47089947089948 163.59788359788362,99.8941798941799 163.1746031746032,100.31746031746033 162.75132275132276,100.74074074074075 162.32804232804233,101.37566137566138 161.90476190476193,101.79894179894181 161.4814814814815,102.43386243386244 161.05820105820106,102.85714285714286 160.63492063492066,103.4920634920635 160.21164021164023,104.12698412698414 159.7883597883598,104.76190476190477 159.5767195767196,105.3968253968254 159.15343915343917,106.03174603174604 158.94179894179896,106.66666666666667 158.73015873015873,107.3015873015873 158.30687830687833,107.93650793650795 158.0952380952381,108.57142857142858 157.8835978835979,109.20634920634922 157.67195767195767,109.84126984126985 157.46031746031747,110.47619047619048 157.24867724867727,111.11111111111111 157.03703703703704,111.74603174603176 156.82539682539684,112.3809523809524 156.61375661375664,113.01587301587303 156.61375661375664,113.65079365079366 156.4021164021164,114.28571428571429 156.4021164021164,114.92063492063492 156.4021164021164,115.55555555555557 156.1904761904762,116.1904761904762 156.1904761904762,116.82539682539684 156.1904761904762,117.46031746031747 156.1904761904762,118.0952380952381 156.4021164021164,118.73015873015873 156.4021164021164,119.36507936507937 156.4021164021164,120.00000000000001 156.61375661375664,120.63492063492065 156.61375661375664,121.26984126984128 156.82539682539684,121.90476190476191 156.82539682539684,122.53968253968254 157.03703703703704,123.17460317460318 157.24867724867727,123.80952380952382 157.46031746031747,124.44444444444446 157.46031746031747,125.07936507936509 157.67195767195767,125.71428571428572 158.0952380952381,126.34920634920636 158.30687830687833,126.98412698412699 158.73015873015873,127.61904761904763 158.94179894179896,128.25396825396825 159.36507936507937,128.88888888888889 159.7883597883598,129.31216931216932 160.0,129.94708994708995 160.42328042328043,130.37037037037038 160.84656084656086,131.005291005291 161.2698412698413,131.42857142857144 161.6931216931217,132.06349206349208 162.11640211640213,132.4867724867725 162.53968253968256,132.9100529100529 162.96296296296296,133.54497354497354 163.3862433862434,133.96825396825398 163.80952380952382,134.3915343915344 164.23280423280426,134.81481481481484 164.65608465608466,135.23809523809524 165.0793650793651,135.87301587301587 165.50264550264552,136.2962962962963 165.92592592592595,136.71957671957674 166.34920634920636,137.35449735449737 166.7724867724868,137.989417989418 167.19576719576722,138.41269841269843 167.40740740740742,139.04761904761907 167.83068783068785,139.47089947089947 168.04232804232805,140.10582010582013 168.46560846560848,140.52910052910053 168.67724867724868,141.16402116402116 169.10052910052912,141.7989417989418 169.31216931216932,142.43386243386246 169.52380952380955,143.0687830687831 169.73544973544975,143.70370370370372 169.94708994708995,144.33862433862436 170.15873015873018,144.973544973545 170.37037037037038,145.60846560846562 170.58201058201058,146.24338624338625 170.58201058201058,146.8783068783069 170.58201058201058,147.51322751322752 170.7936507936508,148.14814814814815 170.7936507936508,148.78306878306879 170.58201058201058,149.41798941798942 170.58201058201058,150.05291005291005 170.37037037037038,150.6878306878307 170.15873015873018,151.32275132275134 169.94708994708995,151.95767195767198 169.52380952380955,152.5925925925926 169.31216931216932,153.22751322751324 168.8888888888889,153.86243386243387 168.46560846560848,154.4973544973545 168.04232804232805,155.13227513227514 167.61904761904762,155.55555555555557 167.19576719576722,155.978835978836 166.7724867724868,156.4021164021164 166.34920634920636,156.82539682539684 165.71428571428572,157.24867724867727 165.0793650793651,157.67195767195767 164.44444444444446,158.0952380952381 163.80952380952382,158.30687830687833 163.1746031746032,158.73015873015873 162.53968253968256,158.94179894179896 161.90476190476193,158.94179894179896 161.2698412698413,159.15343915343917 160.63492063492066,159.15343915343917 160.0,159.15343915343917 159.36507936507937,159.15343915343917 158.73015873015873,159.15343915343917 158.0952380952381,158.94179894179896 157.46031746031747,158.73015873015873 156.82539682539684,158.51851851851853 156.1904761904762,158.0952380952381 155.76719576719577,157.67195767195767 155.13227513227514,157.24867724867727 154.7089947089947,156.82539682539684 154.2857142857143,156.4021164021164 153.86243386243387,155.76719576719577 153.43915343915344,155.34391534391534 153.01587301587304,154.7089947089947 152.5925925925926,154.2857142857143 152.16931216931218,153.65079365079367 151.74603174603175,153.01587301587304 151.32275132275134,152.5925925925926 151.11111111111111,151.95767195767198 150.6878306878307,151.32275132275134 150.47619047619048,150.6878306878307 150.26455026455028,150.05291005291005 149.84126984126985,149.41798941798942 149.62962962962965,148.78306878306879 149.41798941798942,148.14814814814815 149.20634920634922,147.51322751322752 148.99470899470901,146.8783068783069 148.78306878306879,146.24338624338625 148.35978835978838,145.60846560846562 147.93650793650795,144.973544973545 147.72486772486775,144.33862433862436 147.30158730158732,143.70370370370372 147.0899470899471,143.0687830687831 146.66666666666669,142.64550264550266 146.45502645502646,142.01058201058203 146.03174603174605,141.5873015873016 145.60846560846562,140.95238095238096 145.1851851851852,140.52910052910053 144.76190476190476,140.10582010582013 144.33862433862436,139.6825396825397 143.91534391534393,139.25925925925927 143.4920634920635,138.83597883597884 142.85714285714286,138.41269841269843 142.22222222222223,137.989417989418 141.5873015873016,137.7777777777778 140.95238095238096,137.56613756613757 140.31746031746033,137.35449735449737 139.6825396825397,137.35449735449737 139.04761904761907,137.14285714285717 138.41269841269843,137.14285714285717 137.7777777777778,137.14285714285717 137.14285714285717,137.35449735449737 136.5079365079365,137.35449735449737 135.87301587301587,137.35449735449737 135.23809523809524,137.56613756613757 134.6031746031746,137.7777777777778 133.96825396825398,137.989417989418 133.33333333333334,138.2010582010582 132.6984126984127,138.62433862433863 132.06349206349208,138.83597883597884 131.64021164021165,139.25925925925927 131.005291005291,139.47089947089947 130.58201058201058,139.8941798941799 129.94708994708995,140.10582010582013 129.52380952380955,140.52910052910053 129.10052910052912,140.95238095238096 128.46560846560848,141.3756613756614 127.83068783068784,141.7989417989418 127.40740740740742,142.22222222222223 126.77248677248679,142.64550264550266 126.34920634920636,143.0687830687831 125.71428571428572,143.4920634920635 125.2910052910053,143.91534391534393 124.65608465608466,144.33862433862436 124.02116402116403,144.76190476190476 123.59788359788361,145.1851851851852 122.96296296296298,145.60846560846562 122.53968253968254,146.03174603174605 121.90476190476191,146.45502645502646 121.4814814814815,146.8783068783069 120.84656084656086,147.30158730158732 120.42328042328043,147.72486772486775 119.7883597883598,148.14814814814815 119.36507936507937,148.57142857142858 118.73015873015873,148.99470899470901 118.30687830687832,149.41798941798942 117.67195767195768,149.84126984126985 117.24867724867725,150.47619047619048 116.61375661375662,150.8994708994709 116.1904761904762,151.32275132275134 115.55555555555557,151.74603174603175 115.13227513227514,152.16931216931218 114.70899470899472,152.5925925925926 114.07407407407408,153.01587301587304 113.65079365079366,153.65079365079367 113.01587301587303,154.07407407407408 112.5925925925926,154.4973544973545 112.16931216931218,154.92063492063494 111.53439153439155,155.34391534391534 111.11111111111111,155.76719576719577 110.47619047619048,156.1904761904762 110.05291005291006,156.61375661375664 109.62962962962963,157.03703703703704 108.994708994709,157.46031746031747 108.57142857142858,157.8835978835979 107.93650793650795,158.30687830687833 107.51322751322752,158.73015873015873 107.0899470899471,159.15343915343917 106.45502645502647,159.5767195767196 106.03174603174604,160.0 105.3968253968254,160.42328042328043 104.97354497354497,160.84656084656086 104.33862433862434,161.2698412698413 103.91534391534393,161.6931216931217 103.28042328042329,162.11640211640213 102.85714285714286,162.53968253968256 102.43386243386244,162.96296296296296 101.79894179894181,163.3862433862434 101.37566137566138,163.80952380952382 100.95238095238096,164.23280423280426 100.31746031746033,164.65608465608466 99.8941798941799,165.0793650793651 99.47089947089948,165.50264550264552 98.83597883597885,165.92592592592595 98.41269841269842,166.34920634920636 97.77777777777779,166.7724867724868 97.35449735449737,167.19576719576722 96.93121693121694,167.61904761904762 96.50793650793652,168.04232804232805 95.87301587301587,168.46560846560848 95.44973544973546,168.8888888888889 95.02645502645504,169.31216931216932 94.60317460317461,169.94708994708995 94.17989417989419,170.37037037037038 93.54497354497356,170.7936507936508 93.12169312169313,171.21693121693124 92.69841269841271,171.64021164021165 90.58201058201058,173.54497354497354" style="fill:none; stroke:#999900; stroke-width:1.0"  /><polyline points="90.58201058201058,173.54497354497354 87.83068783068784,171.005291005291 87.40740740740742,170.58201058201058 86.98412698412699,170.15873015873018 86.56084656084657,169.73544973544975 86.13756613756614,169.10052910052912 85.71428571428572,168.67724867724868 85.29100529100529,168.25396825396825 84.86772486772487,167.83068783068785 84.44444444444446,167.40740740740742 84.02116402116403,166.984126984127 83.59788359788361,166.56084656084658 83.17460317460318,166.13756613756615 82.75132275132276,165.71428571428572 82.11640211640213,165.50264550264552 81.6931216931217,165.0793650793651 81.26984126984128,164.65608465608466 80.84656084656085,164.23280423280426 80.42328042328043,163.80952380952382 79.7883597883598,163.3862433862434 79.36507936507937,162.96296296296296 78.73015873015873,162.53968253968256 78.0952380952381,162.11640211640213 77.46031746031747,161.6931216931217 77.03703703703704,161.2698412698413 76.4021164021164,160.84656084656086 75.76719576719577,160.42328042328043 75.13227513227514,160.0 74.49735449735451,159.5767195767196 73.86243386243387,159.15343915343917 73.22751322751323,158.94179894179896 72.80423280423281,158.51851851851853 72.16931216931218,158.30687830687833 71.74603174603175,157.8835978835979 71.11111111111111,157.67195767195767 70.47619047619048,157.24867724867727 69.84126984126985,157.03703703703704 69.20634920634922,156.82539682539684 68.78306878306879,156.4021164021164 68.14814814814815,156.1904761904762 67.51322751322752,155.978835978836 66.87830687830689,155.55555555555557 66.24338624338625,155.34391534391534 65.60846560846561,155.13227513227514 65.18518518518519,154.7089947089947 64.55026455026456,154.4973544973545 63.91534391534392,154.07407407407408 63.280423280423285,153.65079365079367 62.64550264550265,153.22751322751324 62.01058201058201,152.8042328042328 61.58730158730159,152.16931216931218 61.16402116402117,151.74603174603175 60.74074074074075,151.11111111111111 60.31746031746032,150.47619047619048 60.10582010582011,149.84126984126985 59.8941798941799,149.20634920634922 59.682539682539684,148.57142857142858 59.682539682539684,147.93650793650795 59.682539682539684,147.30158730158732 59.682539682539684,146.66666666666669 59.682539682539684,146.03174603174605 59.8941798941799,145.39682539682542 60.10582010582011,144.76190476190476 60.31746031746032,144.12698412698413 60.74074074074075,143.4920634920635 60.952380952380956,142.85714285714286 61.37566137566138,142.43386243386246 61.798941798941804,141.7989417989418 62.22222222222223,141.3756613756614 62.64550264550265,140.95238095238096 63.06878306878308,140.52910052910053 63.492063492063494,140.10582010582013 63.91534391534392,139.6825396825397 64.55026455026456,139.25925925925927 65.18518518518519,138.83597883597884 65.82010582010582,138.41269841269843 66.45502645502646,137.989417989418 67.08994708994709,137.7777777777778 67.72486772486774,137.56613756613757 68.35978835978837,137.35449735449737 68.994708994709,136.93121693121694 69.62962962962963,136.71957671957674 70.26455026455027,136.5079365079365 70.8994708994709,136.5079365079365 71.53439153439155,136.2962962962963 72.16931216931218,136.0846560846561 72.80423280423281,136.0846560846561 73.43915343915344,135.87301587301587 74.07407407407408,135.87301587301587 74.70899470899471,135.66137566137567 75.34391534391536,135.66137566137567 75.97883597883599,135.44973544973547 76.61375661375662,135.44973544973547 77.03703703703704,135.02645502645504 77.67195767195767,135.02645502645504 78.30687830687832,134.81481481481484 78.94179894179895,134.6031746031746 79.57671957671958,134.3915343915344 80.21164021164022,133.96825396825398 80.84656084656085,133.75661375661377 81.48148148148148,133.54497354497354 82.11640211640213,133.12169312169314 82.53968253968254,132.6984126984127 82.96296296296298,132.27513227513228 83.59788359788361,131.85185185185185 84.02116402116403,131.42857142857144 84.65608465608466,131.005291005291 85.07936507936509,130.58201058201058 85.5026455026455,130.15873015873018 85.92592592592594,129.73544973544975 86.34920634920636,129.10052910052912 86.77248677248677,128.46560846560848 87.1957671957672,127.83068783068784 87.40740740740742,127.1957671957672 87.61904761904762,126.56084656084657 87.83068783068784,125.92592592592594 88.04232804232805,125.2910052910053 88.25396825396827,124.65608465608466 88.25396825396827,124.02116402116403 88.25396825396827,123.3862433862434 88.04232804232805,122.75132275132276 88.04232804232805,122.11640211640213 87.83068783068784,121.4814814814815 87.61904761904762,120.84656084656086 87.1957671957672,120.21164021164022 86.77248677248677,119.57671957671958 86.34920634920636,118.94179894179895 85.92592592592594,118.51851851851853 85.29100529100529,118.0952380952381 84.86772486772487,117.67195767195768 84.44444444444446,117.24867724867725 84.02116402116403,116.82539682539684 83.3862433862434,116.4021164021164 82.96296296296298,115.97883597883599 82.32804232804233,115.76719576719577 81.90476190476191,115.34391534391536 81.26984126984128,114.92063492063492 80.84656084656085,114.49735449735451 80.21164021164022,114.07407407407408 79.57671957671958,113.65079365079366 78.94179894179895,113.22751322751324 78.30687830687832,112.80423280423281 77.67195767195767,112.3809523809524 77.03703703703704,111.95767195767196 76.4021164021164,111.53439153439155 75.76719576719577,111.11111111111111 75.13227513227514,110.6878306878307 74.49735449735451,110.47619047619048 74.07407407407408,110.05291005291006 73.43915343915344,109.62962962962963 72.80423280423281,109.41798941798943 72.38095238095238,108.994708994709 71.74603174603175,108.78306878306879 71.32275132275133,108.35978835978837 70.6878306878307,108.14814814814815 70.26455026455027,107.72486772486774 69.62962962962963,107.51322751322752 68.994708994709,107.0899470899471 68.35978835978837,106.87830687830689 67.93650793650794,106.45502645502647 67.3015873015873,106.24338624338625 66.66666666666667,105.82010582010582 66.03174603174604,105.60846560846562 65.3968253968254,105.3968253968254 64.76190476190477,104.97354497354497 64.12698412698413,104.76190476190477 63.492063492063494,104.55026455026456 62.85714285714286,104.33862433862434 62.22222222222223,104.12698412698414 61.58730158730159,103.70370370370371 60.952380952380956,103.4920634920635 60.31746031746032,103.4920634920635 59.682539682539684,103.28042328042329 59.04761904761905,103.06878306878308 58.41269841269842,102.85714285714286 57.777777777777786,102.85714285714286 57.142857142857146,102.64550264550266 56.50793650793651,102.43386243386244 55.87301587301588,102.43386243386244 55.23809523809524,102.22222222222223 54.60317460317461,102.22222222222223 53.968253968253975,102.01058201058201 53.333333333333336,102.01058201058201 52.6984126984127,102.01058201058201 52.06349206349207,101.79894179894181 51.42857142857143,101.79894179894181 50.7936507936508,101.79894179894181 50.158730158730165,101.79894179894181 49.523809523809526,102.01058201058201 48.88888888888889,102.01058201058201 48.25396825396826,102.22222222222223 47.61904761904762,102.64550264550266 47.195767195767196,103.06878306878308 46.560846560846564,103.28042328042329 46.13756613756614,103.70370370370371 45.714285714285715,104.12698412698414 45.29100529100529,104.76190476190477 44.867724867724874,105.3968253968254 44.44444444444445,106.03174603174604 44.232804232804234,106.66666666666667 44.021164021164026,107.3015873015873 43.5978835978836,107.93650793650795 43.386243386243386,108.57142857142858 43.386243386243386,109.20634920634922 43.17460317460318,109.84126984126985 43.17460317460318,110.47619047619048 42.96296296296297,111.11111111111111 42.96296296296297,111.74603174603176 42.96296296296297,112.3809523809524 42.96296296296297,113.01587301587303 42.96296296296297,113.65079365079366 42.96296296296297,114.28571428571429 43.17460317460318,114.92063492063492 43.17460317460318,115.55555555555557 43.17460317460318,116.1904761904762 43.386243386243386,116.82539682539684 43.386243386243386,117.46031746031747 43.386243386243386,118.0952380952381 43.5978835978836,118.73015873015873 43.5978835978836,119.36507936507937 43.5978835978836,120.00000000000001 43.5978835978836,120.63492063492065 43.386243386243386,121.26984126984128 43.17460317460318,121.90476190476191 42.96296296296297,122.53968253968254 42.539682539682545,123.17460317460318 42.32804232804233,123.80952380952382 41.904761904761905,124.23280423280424 41.48148148148149,124.86772486772487 41.058201058201064,125.2910052910053 40.63492063492064,125.92592592592594 40.211640211640216,126.34920634920636 39.78835978835979,126.77248677248679 39.15343915343916,127.1957671957672 38.51851851851852,127.61904761904763 37.883597883597886,127.83068783068784 37.248677248677254,128.04232804232805 36.613756613756614,128.25396825396825 35.97883597883598,128.25396825396825 35.34391534391535,128.25396825396825 34.70899470899471,128.25396825396825 34.074074074074076,128.25396825396825 33.43915343915344,128.04232804232805 32.804232804232804,127.83068783068784 32.16931216931217,127.61904761904763 31.53439153439154,127.1957671957672 30.899470899470902,126.98412698412699 30.264550264550266,126.56084656084657 29.629629629629633,126.34920634920636 28.994708994708997,125.92592592592594 28.35978835978836,125.71428571428572 27.93650793650794,125.2910052910053 27.513227513227516,124.86772486772487 26.87830687830688,124.65608465608466 26.243386243386244,124.44444444444446 25.820105820105823,124.02116402116403 25.3968253968254,123.59788359788361 24.761904761904763,123.17460317460318 24.12698412698413,122.96296296296298 23.492063492063494,122.53968253968254 23.06878306878307,122.11640211640213 22.433862433862437,121.6931216931217 21.7989417989418,121.26984126984128 21.375661375661377,120.84656084656086 20.952380952380953,120.42328042328043 20.31746031746032,120.00000000000001 19.894179894179896,119.57671957671958 19.47089947089947,119.15343915343917 19.047619047619047,118.73015873015873 18.412698412698415,118.30687830687832 17.98941798941799,117.67195767195768 17.566137566137566,117.24867724867725 17.142857142857146,116.82539682539684 16.71957671957672,116.1904761904762 16.296296296296298,115.76719576719577 15.873015873015873,115.34391534391536 15.449735449735451,114.70899470899472 15.026455026455027,114.28571428571429 14.603174603174605,113.65079365079366 14.17989417989418,113.22751322751324 13.756613756613758,112.5925925925926 13.333333333333334,112.16931216931218 12.910052910052912,111.74603174603176 12.486772486772487,111.32275132275133 12.063492063492065,110.89947089947091 11.640211640211641,110.26455026455027 11.216931216931219,109.84126984126985 10.793650793650794,109.20634920634922 10.370370370370372,108.78306878306879 9.947089947089948,108.14814814814815 9.523809523809524,107.72486772486774 9.100529100529101,107.0899470899471 8.677248677248677,106.66666666666667 8.253968253968255,106.24338624338625 7.830687830687832,105.60846560846562 7.407407407407408,105.18518518518519 6.984126984126985,104.76190476190477 6.560846560846561,104.33862433862434 6.137566137566138,103.91534391534393 5.714285714285714,103.28042328042329 5.291005291005291,102.85714285714286 4.867724867724868,102.43386243386244 4.444444444444445,102.01058201058201 4.021164021164021,101.5873015873016 3.597883597883598,100.95238095238096 3.174603174603175,100.52910052910053 2.7513227513227516,100.10582010582011 2.3280423280423284,99.68253968253968 1.9047619047619049,99.25925925925927 -0.634920634920635,96.50793650793652" style="fill:none; stroke:#00aa99; stroke-width:1.0"  /><polyline points="-0.634920634920635,96.50793650793652 3.174603174603175,95.23809523809524 3.8095238095238098,95.02645502645504 4.444444444444445,94.81481481481482 5.07936507936508,94.60317460317461 5.714285714285714,94.39153439153439 6.34920634920635,94.17989417989419 6.984126984126985,93.75661375661376 7.6190476190476195,93.75661375661376 8.042328042328043,93.33333333333334 8.677248677248677,93.12169312169313 9.312169312169313,93.12169312169313 9.947089947089948,93.12169312169313 10.370370370370372,92.4867724867725 11.005291005291006,92.4867724867725 11.640211640211641,92.06349206349208 12.275132275132275,91.85185185185186 12.6984126984127,91.42857142857143 13.333333333333334,91.21693121693123 13.96825396825397,91.00529100529101 14.603174603174605,90.7936507936508 15.238095238095239,90.58201058201058 15.873015873015873,90.37037037037038 16.296296296296298,89.94708994708995 16.931216931216934,89.94708994708995 17.566137566137566,89.52380952380953 18.201058201058203,89.31216931216932 18.83597883597884,89.1005291005291 19.47089947089947,88.67724867724868 20.105820105820108,88.46560846560847 20.740740740740744,88.25396825396827 21.164021164021165,87.83068783068784 21.7989417989418,87.83068783068784 22.433862433862437,87.40740740740742 23.06878306878307,87.1957671957672 23.703703703703706,86.77248677248677 24.338624338624342,86.56084656084657 24.973544973544975,86.34920634920636 25.60846560846561,86.13756613756614 26.243386243386244,85.71428571428572 26.666666666666668,85.29100529100529 27.301587301587304,84.86772486772487 27.93650793650794,84.65608465608466 28.571428571428573,84.44444444444446 28.994708994708997,84.02116402116403 29.629629629629633,83.59788359788361 30.264550264550266,83.17460317460318 30.899470899470902,82.96296296296298 31.53439153439154,82.96296296296298 31.95767195767196,82.53968253968254 32.592592592592595,82.32804232804233 33.22751322751323,81.90476190476191 33.86243386243387,81.6931216931217 34.28571428571429,81.26984126984128 34.920634920634924,80.84656084656085 35.55555555555556,80.42328042328043 36.19047619047619,80.21164021164022 36.82539682539683,79.7883597883598 37.46031746031746,79.57671957671958 37.883597883597886,79.15343915343917 38.51851851851852,78.73015873015873 38.94179894179894,78.30687830687832 39.57671957671958,78.0952380952381 40.0,77.67195767195767 40.63492063492064,77.24867724867725 41.26984126984127,77.03703703703704 41.6931216931217,76.61375661375662 42.32804232804233,76.19047619047619 42.96296296296297,75.76719576719577 43.386243386243386,75.34391534391536 44.021164021164026,74.92063492063492 44.65608465608466,74.49735449735451 45.07936507936508,74.07407407407408 45.714285714285715,73.65079365079366 46.13756613756614,73.22751322751323 46.560846560846564,72.80423280423281 46.98412698412699,72.16931216931218 47.40740740740741,71.74603174603175 47.61904761904762,71.11111111111111 48.042328042328045,70.6878306878307 48.25396825396826,70.05291005291006 48.46560846560847,69.41798941798942 48.46560846560847,68.78306878306879 48.46560846560847,68.14814814814815 48.46560846560847,67.51322751322752 48.46560846560847,66.87830687830689 48.25396825396826,66.24338624338625 48.25396825396826,65.60846560846561 48.042328042328045,64.97354497354497 47.61904761904762,64.33862433862434 47.195767195767196,63.70370370370371 46.77248677248678,63.06878306878308 46.349206349206355,62.43386243386244 45.92592592592593,61.798941798941804 45.50264550264551,61.37566137566138 45.07936507936508,60.952380952380956 44.65608465608466,60.52910052910053 44.232804232804234,60.10582010582011 43.5978835978836,59.682539682539684 42.96296296296297,59.25925925925927 42.32804232804233,58.83597883597884 41.904761904761905,58.41269841269842 41.26984126984127,58.2010582010582 40.63492063492064,57.777777777777786 40.0,57.35449735449736 39.36507936507937,57.142857142857146 38.730158730158735,56.71957671957672 38.095238095238095,56.2962962962963 37.46031746031746,56.08465608465609 36.82539682539683,55.661375661375665 36.19047619047619,55.449735449735456 35.55555555555556,55.02645502645503 35.13227513227513,54.60317460317461 34.4973544973545,54.179894179894184 33.86243386243387,53.75661375661376 33.43915343915344,53.333333333333336 33.01587301587302,52.91005291005291 32.38095238095239,52.48677248677249 31.95767195767196,52.06349206349207 31.53439153439154,51.42857142857143 31.111111111111114,51.00529100529101 30.68783068783069,50.58201058201058 30.264550264550266,50.158730158730165 29.841269841269842,49.523809523809526 29.41798941798942,48.88888888888889 28.994708994708997,48.46560846560847 28.571428571428573,47.830687830687836 28.35978835978836,47.195767195767196 27.93650793650794,46.560846560846564 27.724867724867728,45.92592592592593 27.513227513227516,45.29100529100529 27.301587301587304,44.65608465608466 27.089947089947092,44.021164021164026 26.87830687830688,43.386243386243386 26.666666666666668,42.75132275132275 26.666666666666668,42.11640211640212 26.666666666666668,41.48148148148149 26.666666666666668,40.84656084656085 26.666666666666668,40.211640211640216 26.666666666666668,39.57671957671958 26.666666666666668,38.94179894179894 26.666666666666668,38.30687830687831 26.87830687830688,37.67195767195768 27.089947089947092,37.03703703703704 27.089947089947092,36.402116402116405 27.301587301587304,35.76719576719577 27.513227513227516,35.13227513227513 27.93650793650794,34.70899470899471 28.14814814814815,34.074074074074076 28.571428571428573,33.65079365079365 28.783068783068785,33.01587301587302 28.994708994708997,32.38095238095239 29.41798941798942,31.95767195767196 29.841269841269842,31.53439153439154 30.264550264550266,31.111111111111114 30.68783068783069,30.476190476190478 31.111111111111114,30.052910052910054 31.53439153439154,29.629629629629633 31.95767195767196,29.20634920634921 32.38095238095239,28.783068783068785 33.01587301587302,28.35978835978836 33.43915343915344,27.93650793650794 33.86243386243387,27.513227513227516 34.4973544973545,27.089947089947092 34.920634920634924,26.666666666666668 35.55555555555556,26.455026455026456 36.19047619047619,26.031746031746035 36.613756613756614,25.3968253968254 37.248677248677254,25.185185185185187 37.883597883597886,24.761904761904763 38.51851851851852,24.55026455026455 39.15343915343916,24.55026455026455 39.57671957671958,24.12698412698413 40.211640211640216,23.703703703703706 40.84656084656085,23.492063492063494 41.48148148148149,23.280423280423282 42.11640211640212,23.280423280423282 42.75132275132275,23.280423280423282 43.386243386243386,23.06878306878307 44.021164021164026,22.857142857142858 44.65608465608466,22.857142857142858 45.29100529100529,22.857142857142858 45.92592592592593,22.857142857142858 46.560846560846564,22.857142857142858 47.195767195767196,22.857142857142858 47.830687830687836,22.645502645502646 48.46560846560847,22.645502645502646 49.1005291005291,22.645502645502646 49.73544973544974,22.645502645502646 50.370370370370374,22.645502645502646 50.7936507936508,23.06878306878307 51.42857142857143,23.280423280423282 52.06349206349207,23.492063492063494 52.6984126984127,23.915343915343918 53.12169312169313,24.338624338624342 53.75661375661376,24.761904761904763 54.179894179894184,25.185185185185187 54.60317460317461,25.60846560846561 55.02645502645503,26.031746031746035 55.449735449735456,26.455026455026456 55.87301587301588,27.089947089947092 56.2962962962963,27.513227513227516 56.71957671957672,28.14814814814815 57.142857142857146,28.571428571428573 57.56613756613757,29.20634920634921 57.989417989417994,29.841269841269842 58.41269841269842,30.476190476190478 58.83597883597884,31.111111111111114 59.25925925925927,31.746031746031747 59.682539682539684,32.38095238095239 59.8941798941799,33.01587301587302 60.31746031746032,33.65079365079365 60.52910052910053,34.28571428571429 60.952380952380956,34.920634920634924 61.16402116402117,35.55555555555556 61.58730158730159,36.19047619047619 61.798941798941804,36.82539682539683 62.01058201058201,37.46031746031746 62.22222222222223,38.095238095238095 62.43386243386244,38.730158730158735 62.64550264550265,39.36507936507937 63.06878306878308,40.0 63.280423280423285,40.63492063492064 63.70370370370371,41.26984126984127 63.91534391534392,41.904761904761905 64.12698412698413,42.539682539682545 64.55026455026456,42.96296296296297 64.97354497354497,43.5978835978836 65.3968253968254,44.021164021164026 65.82010582010582,44.44444444444445 66.24338624338625,44.867724867724874 66.87830687830689,45.29100529100529 67.51322751322752,45.714285714285715 68.14814814814815,45.714285714285715 68.78306878306879,46.13756613756614 69.41798941798942,46.13756613756614 70.05291005291006,46.13756613756614 70.6878306878307,46.13756613756614 71.32275132275133,45.92592592592593 71.95767195767196,45.714285714285715 72.5925925925926,45.714285714285715 73.22751322751323,45.29100529100529 73.86243386243387,45.07936507936508 74.49735449735451,44.65608465608466 75.13227513227514,44.232804232804234 75.55555555555556,43.80952380952381 76.19047619047619,43.386243386243386 76.61375661375662,42.96296296296297 77.24867724867725,42.539682539682545 77.67195767195767,42.11640211640212 78.0952380952381,41.6931216931217 78.51851851851852,41.058201058201064 78.94179894179895,40.63492063492064 79.36507936507937,40.0 79.7883597883598,39.57671957671958 80.21164021164022,39.15343915343916 80.63492063492065,38.730158730158735 81.05820105820106,38.095238095238095 81.48148148148148,37.67195767195768 81.90476190476191,37.248677248677254 82.32804232804233,36.613756613756614 82.75132275132276,35.97883597883598 82.96296296296298,35.34391534391535 83.3862433862434,34.920634920634924 83.80952380952381,34.28571428571429 84.23280423280424,33.86243386243387 84.65608465608466,33.22751322751323 85.07936507936509,32.804232804232804 85.5026455026455,32.16931216931217 85.92592592592594,31.53439153439154 86.34920634920636,30.899470899470902 86.77248677248677,30.264550264550266 87.1957671957672,29.841269841269842 87.61904761904762,29.20634920634921 88.04232804232805,28.571428571428573 88.25396825396827,27.93650793650794 88.67724867724868,27.301587301587304 89.1005291005291,26.87830687830688 89.52380952380953,26.243386243386244 89.94708994708995,25.60846560846561 90.37037037037038,24.973544973544975 90.7936507936508,24.338624338624342 91.21693121693123,23.703703703703706 91.42857142857143,23.06878306878307 91.85185185185186,22.433862433862437 92.27513227513228,21.7989417989418 92.69841269841271,21.164021164021165 92.91005291005291,20.529100529100532 93.33333333333334,19.894179894179896 93.75661375661376,19.25925925925926 93.96825396825398,18.624338624338627 94.39153439153439,17.98941798941799 94.81481481481482,17.354497354497354 95.02645502645504,16.71957671957672 95.44973544973546,16.084656084656086 95.66137566137567,15.449735449735451 95.87301587301587,14.814814814814817 96.2962962962963,14.391534391534393 96.71957671957672,13.756613756613758 96.71957671957672,13.121693121693122 97.14285714285715,12.486772486772487 97.35449735449737,11.851851851851853 97.56613756613757,11.216931216931219 97.989417989418,10.582010582010582 98.2010582010582,9.947089947089948 98.62433862433863,9.312169312169313 98.83597883597885,8.677248677248677 99.04761904761905,8.042328042328043 99.25925925925927,7.407407407407408 99.47089947089948,6.772486772486773 99.8941798941799,6.137566137566138 100.10582010582011,5.502645502645503 100.31746031746033,4.867724867724868 100.52910052910053,4.2328042328042335 100.74074074074075,3.597883597883598 100.95238095238096,2.9629629629629632 102.43386243386244,-1.0582010582010584" style="fill:none; stroke:#3300bb; stroke-width:1.0"  /><circle cx="102.43386243386244" cy="-1.0582010582010584" r="2.0" style="fill:none; stroke:#000000aa; stroke-width:0.25" /><circle cx="184.33862433862436" cy="86.98412698412699" r="2.0" style="fill:none; stroke:#000000aa; stroke-width:0.25" /><circle cx="90.58201058201058" cy="173.54497354497354" r="2.0" style="fill:none; stroke:#000000aa; stroke-width:0.25" /><circle cx="-0.634920634920635" cy="96.50793650793652" r="2.0" style="fill:none; stroke:#000000aa; stroke-width:0.25" /><circle cx="102.85714285714286" cy="0.21164021164021166" r="2.0" style="fill:none; stroke:#ff3366aa; stroke-width:0.25" /><circle cx="183.70370370370372" cy="86.77248677248677" r="2.0" style="fill:none; stroke:#ff3366aa; stroke-width:0.25" /><circle cx="90.15873015873017" cy="173.33333333333334" r="2.0" style="fill:none; stroke:#ff3366aa; stroke-width:0.25" /><circle cx="0.21164021164021166" cy="96.71957671957672" r="2.0" style="fill:none; stroke:#ff3366aa; stroke-width:0.25" /><polyline points="111.11111111111111,8.253968253968255 110.6878306878307,7.830687830687832 110.26455026455027,7.407407407407408 109.84126984126985,6.984126984126985 109.41798941798943,6.560846560846561 108.994708994709,6.137566137566138 108.57142857142858,5.714285714285714 108.14814814814815,5.07936507936508 107.72486772486774,4.656084656084657 107.3015873015873,4.2328042328042335 106.87830687830689,3.8095238095238098 106.45502645502647,3.174603174603175 106.03174603174604,2.7513227513227516 105.60846560846562,2.3280423280423284" style="fill:none; stroke:#001100; stroke-width:1.0" /><polyline points="97.989417989418,10.582010582010582 98.2010582010582,9.947089947089948 98.62433862433863,9.312169312169313 98.83597883597885,8.677248677248677 99.04761904761905,8.042328042328043 99.25925925925927,7.407407407407408 99.47089947089948,6.772486772486773 99.8941798941799,6.137566137566138 100.10582010582011,5.502645502645503 100.31746031746033,4.867724867724868 100.52910052910053,4.2328042328042335 100.74074074074075,3.597883597883598 100.95238095238096,2.9629629629629632" style="fill:none; stroke:#000011; stroke-width:1.0" /><polyline points="173.33333333333334,92.27513227513228 173.96825396825398,91.85185185185186 174.6031746031746,91.64021164021165 175.23809523809524,91.21693121693123 175.87301587301587,91.00529100529101 176.50793650793653,90.7936507936508 177.14285714285717,90.58201058201058 177.7777777777778,90.15873015873017 178.41269841269843,89.94708994708995 179.04761904761907,89.52380952380953 179.6825396825397,89.31216931216932 180.31746031746033,88.8888888888889 180.95238095238096,88.67724867724868" style="fill:none; stroke:#001100; stroke-width:1.0" /><polyline points="178.2010582010582,76.19047619047619 178.62433862433863,76.82539682539684 179.04761904761907,77.46031746031747 179.4708994708995,78.0952380952381 179.6825396825397,78.73015873015873 180.10582010582013,79.36507936507937 180.52910052910053,80.0 180.74074074074076,80.63492063492065 181.16402116402116,81.26984126984128 181.3756613756614,81.90476190476191 181.79894179894183,82.32804232804233 182.01058201058203,82.96296296296298 182.43386243386246,83.59788359788361" style="fill:none; stroke:#000011; stroke-width:1.0" /><polyline points="81.6931216931217,165.0793650793651 82.11640211640213,165.50264550264552 82.75132275132276,165.71428571428572 83.17460317460318,166.13756613756615 83.59788359788361,166.56084656084658 84.02116402116403,166.984126984127 84.44444444444446,167.40740740740742 84.86772486772487,167.83068783068785 85.29100529100529,168.25396825396825 85.71428571428572,168.67724867724868 86.13756613756614,169.10052910052912 86.56084656084657,169.73544973544975 86.98412698412699,170.15873015873018 87.40740740740742,170.58201058201058 87.83068783068784,171.005291005291" style="fill:none; stroke:#001100; stroke-width:1.0" /><polyline points="98.83597883597885,165.92592592592595 98.41269841269842,166.34920634920636 97.77777777777779,166.7724867724868 97.35449735449737,167.19576719576722 96.93121693121694,167.61904761904762 96.50793650793652,168.04232804232805 95.87301587301587,168.46560846560848 95.44973544973546,168.8888888888889 95.02645502645504,169.31216931216932 94.60317460317461,169.94708994708995 94.17989417989419,170.37037037037038 93.54497354497356,170.7936507936508 93.12169312169313,171.21693121693124 92.69841269841271,171.64021164021165" style="fill:none; stroke:#000011; stroke-width:1.0" /><polyline points="11.005291005291006,92.4867724867725 10.370370370370372,92.4867724867725 9.947089947089948,93.12169312169313 9.312169312169313,93.12169312169313 8.677248677248677,93.12169312169313 8.042328042328043,93.33333333333334 7.6190476190476195,93.75661375661376 6.984126984126985,93.75661375661376 6.34920634920635,94.17989417989419 5.714285714285714,94.39153439153439 5.07936507936508,94.60317460317461 4.444444444444445,94.81481481481482 3.8095238095238098,95.02645502645504 3.174603174603175,95.23809523809524" style="fill:none; stroke:#001100; stroke-width:1.0" /><polyline points="7.830687830687832,105.60846560846562 7.407407407407408,105.18518518518519 6.984126984126985,104.76190476190477 6.560846560846561,104.33862433862434 6.137566137566138,103.91534391534393 5.714285714285714,103.28042328042329 5.291005291005291,102.85714285714286 4.867724867724868,102.43386243386244 4.444444444444445,102.01058201058201 4.021164021164021,101.5873015873016 3.597883597883598,100.95238095238096 3.174603174603175,100.52910052910053 2.7513227513227516,100.10582010582011 2.3280423280423284,99.68253968253968 1.9047619047619049,99.25925925925927" style="fill:none; stroke:#000011; stroke-width:1.0" /><polyline points="105.60846560846562,2.3280423280423284 91.21693121693123,-13.121693121693122" style="fill:none; stroke:#ffaa00; stroke-width:0.4" /><polyline points="100.95238095238096,2.9629629629629632 108.57142857142858,-16.71957671957672" style="fill:none; stroke:#aaff00; stroke-width:0.4" /><polyline points="180.95238095238096,88.67724867724868 200.00000000000003,79.57671957671958" style="fill:none; stroke:#ffaa00; stroke-width:0.4" /><polyline points="182.43386243386246,83.59788359788361 193.01587301587304,102.01058201058201" style="fill:none; stroke:#aaff00; stroke-width:0.4" /><polyline points="87.83068783068784,171.005291005291 103.06878306878308,185.60846560846562" style="fill:none; stroke:#ffaa00; stroke-width:0.4" /><polyline points="92.69841269841271,171.64021164021165 77.24867724867725,186.03174603174605" style="fill:none; stroke:#aaff00; stroke-width:0.4" /><polyline points="3.174603174603175,95.23809523809524 -16.71957671957672,102.22222222222223" style="fill:none; stroke:#ffaa00; stroke-width:0.4" /><polyline points="1.9047619047619049,99.25925925925927 -12.486772486772487,83.80952380952381" style="fill:none; stroke:#aaff00; stroke-width:0.4" /><circle cx="96.93121693121694" cy="89.1005291005291" r="1.0" style="fill:#444444; stroke-width:0" /><circle cx="91.64021164021165" cy="77.03703703703704" r="10.582010582010582" style="fill:#ff770022; stroke-width:0" /><circle cx="91.64021164021165" cy="77.03703703703704" r="1.0" style="fill:#ff7700; stroke-width:0" /></svg>