<?xml version="1.0" encoding="UTF-8" standalone="no"?><svg width="559.3650793650794" height="450.1587301587302" viewBox="-10 -10 206.45502645502646 170.05291005291005" xmlns="http://www.w3.org/2000/svg" xmlns:xlink="http://www.w3.org/1999/xlink"><polyline points="57.35449735449736,0.0 60.952380952380956,0.8465608465608466 61.58730158730159,0.8465608465608466 62.22222222222223,1.0582010582010584 62.85714285714286,1.26984126984127 63.492063492063494,1.26984126984127 64.12698412698413,1.4814814814814816 64.76190476190477,1.6931216931216932 65.3968253968254,1.9047619047619049 66.03174603174604,1.9047619047619049 66.66666666666667,2.1164021164021167 67.3015873015873,2.3280423280423284 67.93650793650794,2.53968253968254 68.57142857142858,2.7513227513227516 69.20634920634922,2.9629629629629632 69.84126984126985,3.174603174603175 70.47619047619048,3.3862433862433865 71.11111111111111,3.597883597883598 71.74603174603175,3.8095238095238098 72.38095238095238,4.021164021164021 73.01587301587303,4.2328042328042335 73.65079365079366,4.444444444444445 74.28571428571429,4.867724867724868 74.92063492063492,5.07936507936508 75.55555555555556,5.291005291005291 76.19047619047619,5.502645502645503 76.82539682539684,5.714285714285714 77.46031746031747,6.137566137566138 78.0952380952381,6.34920634920635 78.73015873015873,6.560846560846561 79.36507936507937,6.772486772486773 79.7883597883598,7.195767195767196 80.42328042328043,7.407407407407408 80.84656084656085,7.830687830687832 81.48148148148148,7.830687830687832 81.90476190476191,8.253968253968255 82.53968253968254,8.465608465608467 83.17460317460318,8.88888888888889 83.80952380952381,9.100529100529101 84.44444444444446,9.523809523809524 85.07936507936509,9.735449735449736 85.5026455026455,10.15873015873016 86.13756613756614,10.370370370370372 86.77248677248677,10.793650793650794 87.40740740740742,11.216931216931219 88.04232804232805,11.640211640211641 88.67724867724868,11.851851851851853 89.1005291005291,12.275132275132275 89.73544973544975,12.6984126984127 90.15873015873017,13.121693121693122 90.58201058201058,13.544973544973546 91.00529100529101,14.17989417989418 91.21693121693123,14.814814814814817 91.42857142857143,15.449735449735451 91.42857142857143,16.084656084656086 91.42857142857143,16.71957671957672 91.42857142857143,17.354497354497354 91.21693121693123,17.98941798941799 91.00529100529101,18.624338624338627 90.58201058201058,19.25925925925926 90.37037037037038,19.894179894179896 89.94708994708995,20.31746031746032 89.52380952380953,20.952380952380953 89.1005291005291,21.58730158730159 88.67724867724868,22.010582010582013 88.04232804232805,22.433862433862437 87.61904761904762,22.857142857142858 87.1957671957672,23.280423280423282 86.56084656084657,23.703703703703706 86.13756613756614,24.12698412698413 85.5026455026455,24.55026455026455 84.86772486772487,24.973544973544975 84.44444444444446,25.3968253968254 83.80952380952381,25.820105820105823 83.3862433862434,26.243386243386244 82.75132275132276,26.666666666666668 82.11640211640213,27.089947089947092 81.6931216931217,27.513227513227516 81.05820105820106,27.93650793650794 80.42328042328043,28.35978835978836 80.0,28.783068783068785 79.36507936507937,29.20634920634921 78.94179894179895,29.629629629629633 78.73015873015873,30.264550264550266 78.30687830687832,30.68783068783069 77.88359788359789,31.322751322751326 77.67195767195767,31.95767195767196 77.46031746031747,32.592592592592595 77.24867724867725,33.22751322751323 77.03703703703704,33.86243386243387 77.03703703703704,34.4973544973545 76.82539682539684,35.13227513227513 76.82539682539684,35.76719576719577 76.82539682539684,36.402116402116405 76.82539682539684,37.03703703703704 77.03703703703704,37.67195767195768 77.03703703703704,38.30687830687831 77.24867724867725,38.94179894179894 77.46031746031747,39.57671957671958 77.67195767195767,40.211640211640216 77.88359788359789,40.84656084656085 78.30687830687832,41.48148148148149 78.73015873015873,42.11640211640212 79.15343915343917,42.75132275132275 79.57671957671958,43.386243386243386 80.0,43.80952380952381 80.42328042328043,44.44444444444445 80.84656084656085,44.867724867724874 81.26984126984128,45.29100529100529 81.6931216931217,45.92592592592593 82.11640211640213,46.349206349206355 82.53968253968254,46.77248677248678 83.17460317460318,47.195767195767196 83.59788359788361,47.61904761904762 84.23280423280424,48.042328042328045 84.86772486772487,48.46560846560847 85.5026455026455,48.88888888888889 86.13756613756614,49.31216931216932 86.77248677248677,49.523809523809526 87.40740740740742,49.94708994708995 88.04232804232805,50.158730158730165 88.67724867724868,50.58201058201058 89.31216931216932,50.7936507936508 89.94708994708995,50.7936507936508 90.58201058201058,51.21693121693122 91.21693121693123,51.42857142857143 91.85185185185186,51.640211640211646 92.4867724867725,51.851851851851855 93.12169312169313,52.06349206349207 93.75661375661376,52.27513227513228 94.39153439153439,52.48677248677249 95.02645502645504,52.6984126984127 95.66137566137567,52.91005291005291 96.2962962962963,53.12169312169313 96.93121693121694,53.333333333333336 97.56613756613757,53.333333333333336 98.2010582010582,53.54497354497355 98.83597883597885,53.54497354497355 99.47089947089948,53.75661375661376 100.10582010582011,53.75661375661376 100.74074074074075,53.968253968253975 101.37566137566138,53.968253968253975 102.01058201058201,54.179894179894184 102.64550264550266,54.179894179894184 103.28042328042329,54.39153439153439 103.91534391534393,54.39153439153439 104.55026455026456,54.39153439153439 105.18518518518519,54.39153439153439 105.82010582010582,54.60317460317461 106.45502645502647,54.60317460317461 107.0899470899471,54.60317460317461 107.72486772486774,54.81481481481482 108.35978835978837,54.81481481481482 108.994708994709,54.81481481481482 109.62962962962963,54.81481481481482 110.26455026455027,54.81481481481482 110.89947089947091,54.81481481481482 111.53439153439155,54.81481481481482 112.16931216931218,54.60317460317461 112.80423280423281,54.60317460317461 113.43915343915344,54.60317460317461 114.07407407407408,54.60317460317461 114.70899470899472,54.39153439153439 115.34391534391536,54.179894179894184 115.97883597883599,53.968253968253975 116.61375661375662,53.75661375661376 117.24867724867725,53.75661375661376 117.88359788359789,53.54497354497355 118.51851851851853,53.333333333333336 119.15343915343917,53.333333333333336 119.7883597883598,53.12169312169313 120.42328042328043,52.6984126984127 121.05820105820106,52.6984126984127 121.6931216931217,52.27513227513228 122.32804232804234,52.06349206349207 122.96296296296298,52.06349206349207 123.59788359788361,51.640211640211646 124.23280423280424,51.42857142857143 124.86772486772487,51.00529100529101 125.5026455026455,50.58201058201058 126.13756613756615,50.370370370370374 126.77248677248679,50.158730158730165 127.40740740740742,49.73544973544974 128.04232804232805,49.523809523809526 128.67724867724868,49.1005291005291 129.31216931216932,48.677248677248684 129.94708994708995,48.46560846560847 130.37037037037038,48.042328042328045 130.7936507936508,47.61904761904762 131.21693121693121,47.195767195767196 131.64021164021165,46.77248677248678 132.06349206349208,46.349206349206355 132.27513227513228,45.714285714285715 132.4867724867725,45.07936507936508 132.9100529100529,44.44444444444445 132.9100529100529,43.80952380952381 132.9100529100529,43.17460317460318 132.9100529100529,42.539682539682545 132.9100529100529,41.904761904761905 132.6984126984127,41.26984126984127 132.6984126984127,40.63492063492064 132.4867724867725,40.0 132.06349206349208,39.36507936507937 131.85185185185185,38.730158730158735 131.64021164021165,38.095238095238095 131.21693121693121,37.67195767195768 130.7936507936508,37.03703703703704 130.37037037037038,36.402116402116405 129.94708994708995,35.97883597883598 129.52380952380955,35.55555555555556 129.10052910052912,35.13227513227513 128.67724867724868,34.4973544973545 128.25396825396825,34.074074074074076 127.83068783068784,33.65079365079365 127.40740740740742,33.22751322751323 126.98412698412699,32.804232804232804 126.56084656084657,32.38095238095239 126.13756613756615,31.95767195767196 125.71428571428572,31.322751322751326 125.2910052910053,30.899470899470902 124.86772486772487,30.476190476190478 124.23280423280424,30.052910052910054 123.80952380952382,29.629629629629633 123.17460317460318,29.20634920634921 122.75132275132276,28.571428571428573 122.32804232804234,28.14814814814815 121.90476190476191,27.724867724867728 121.4814814814815,27.089947089947092 121.05820105820106,26.666666666666668 120.63492063492065,26.243386243386244 120.21164021164022,25.60846560846561 119.7883597883598,24.973544973544975 119.36507936507937,24.338624338624342 118.94179894179895,23.703703703703706 118.73015873015873,23.06878306878307 118.30687830687832,22.433862433862437 118.0952380952381,21.7989417989418 118.0952380952381,21.164021164021165 118.0952380952381,20.529100529100532 118.30687830687832,19.894179894179896 118.51851851851853,19.25925925925926 118.94179894179895,18.624338624338627 119.36507936507937,17.98941798941799 120.00000000000001,17.566137566137566 120.63492063492065,17.354497354497354 121.26984126984128,16.931216931216934 121.90476190476191,16.931216931216934 122.53968253968254,16.71957671957672 123.17460317460318,16.50793650793651 123.80952380952382,16.50793650793651 124.44444444444446,16.50793650793651 125.07936507936509,16.296296296296298 125.71428571428572,16.296296296296298 126.34920634920636,16.50793650793651 126.98412698412699,16.50793650793651 127.61904761904763,16.50793650793651 128.25396825396825,16.71957671957672 128.88888888888889,16.71957671957672 129.52380952380955,16.931216931216934 130.15873015873018,16.931216931216934 130.7936507936508,17.142857142857146 131.42857142857144,17.142857142857146 132.06349206349208,17.354497354497354 132.6984126984127,17.566137566137566 133.33333333333334,17.566137566137566 133.96825396825398,17.77777777777778 134.6031746031746,17.98941798941799 135.23809523809524,17.98941798941799 135.87301587301587,18.201058201058203 136.5079365079365,18.412698412698415 137.14285714285717,18.624338624338627 137.7777777777778,18.624338624338627 138.41269841269843,18.83597883597884 139.04761904761907,19.047619047619047 139.6825396825397,19.25925925925926 140.31746031746033,19.47089947089947 140.95238095238096,19.682539682539684 141.5873015873016,19.894179894179896 142.22222222222223,20.105820105820108 142.85714285714286,20.529100529100532 143.4920634920635,20.740740740740744 144.12698412698413,20.952380952380953 144.76190476190476,21.164021164021165 145.39682539682542,21.375661375661377 146.03174603174605,21.7989417989418 146.66666666666669,22.010582010582013 147.30158730158732,22.222222222222225 147.93650793650795,22.645502645502646 148.57142857142858,22.857142857142858 149.20634920634922,23.280423280423282 149.84126984126985,23.492063492063494 150.47619047619048,23.915343915343918 151.11111111111111,24.12698412698413 151.74603174603175,24.55026455026455 152.38095238095238,24.761904761904763 153.01587301587304,25.185185185185187 153.65079365079367,25.60846560846561 154.2857142857143,25.820105820105823 154.7089947089947,26.243386243386244 155.34391534391534,26.666666666666668 155.978835978836,26.87830687830688 156.61375661375664,27.301587301587304 157.24867724867727,27.724867724867728 157.8835978835979,28.14814814814815 158.51851851851853,28.571428571428573 159.15343915343917,28.994708994708997 159.7883597883598,29.20634920634921 160.42328042328043,29.629629629629633 161.05820105820106,29.841269841269842 161.6931216931217,30.264550264550266 162.32804232804233,30.68783068783069 162.96296296296296,31.111111111111114 163.59788359788362,31.53439153439154 164.23280423280426,31.95767195767196 164.8677248677249,32.38095238095239 165.50264550264552,32.592592592592595 168.8888888888889,34.4973544973545" style="fill:none; stroke:#cc0000; stroke-width:1.0"  /><polyline points="168.8888888888889,34.4973544973545 168.25396825396825,37.46031746031746 168.04232804232805,38.095238095238095 167.83068783068785,38.730158730158735 167.61904761904762,39.36507936507937 167.61904761904762,40.0 167.40740740740742,40.63492063492064 167.40740740740742,41.26984126984127 167.19576719576722,41.904761904761905 166.984126984127,42.539682539682545 166.7724867724868,43.17460317460318 166.56084656084658,43.80952380952381 166.34920634920636,44.44444444444445 166.34920634920636,45.07936507936508 166.13756613756615,45.714285714285715 165.92592592592595,46.349206349206355 165.50264550264552,46.98412698412699 165.2910052910053,47.61904761904762 165.0793650793651,48.25396825396826 164.8677248677249,48.88888888888889 164.65608465608466,49.523809523809526 164.44444444444446,50.158730158730165 164.23280423280426,50.7936507936508 164.02116402116403,51.42857142857143 163.59788359788362,52.06349206349207 163.3862433862434,52.6984126984127 163.1746031746032,53.333333333333336 162.75132275132276,53.968253968253975 162.53968253968256,54.60317460317461 162.32804232804233,55.23809523809524 161.90476190476193,55.87301587301588 161.6931216931217,56.50793650793651 161.4814814814815,57.142857142857146 161.05820105820106,57.777777777777786 160.84656084656086,58.41269841269842 160.42328042328043,59.04761904761905 160.21164021164023,59.682539682539684 160.0,60.31746031746032 159.5767195767196,60.952380952380956 159.36507936507937,61.58730158730159 159.15343915343917,62.22222222222223 158.73015873015873,62.85714285714286 158.51851851851853,63.492063492063494 158.0952380952381,64.12698412698413 158.0952380952381,64.76190476190477 157.67195767195767,65.18518518518519 157.46031746031747,65.82010582010582 157.24867724867727,66.45502645502646 156.82539682539684,67.08994708994709 156.61375661375664,67.72486772486774 156.1904761904762,68.14814814814815 155.978835978836,68.78306878306879 155.55555555555557,69.41798941798942 155.13227513227514,70.05291005291006 154.92063492063494,70.6878306878307 154.7089947089947,71.32275132275133 154.2857142857143,71.95767195767196 154.07407407407408,72.5925925925926 153.65079365079367,73.01587301587303 153.43915343915344,73.65079365079366 153.01587301587304,74.07407407407408 152.8042328042328,74.70899470899471 152.38095238095238,75.34391534391536 151.95767195767198,75.97883597883599 151.74603174603175,76.61375661375662 151.32275132275134,77.03703703703704 151.11111111111111,77.67195767195767 150.6878306878307,78.30687830687832 150.26455026455028,78.94179894179895 150.05291005291005,79.57671957671958 149.62962962962965,80.21164021164022 149.20634920634922,80.84656084656085 148.99470899470901,81.48148148148148 148.57142857142858,82.11640211640213 148.35978835978838,82.75132275132276 148.14814814814815,83.3862433862434 147.93650793650795,84.02116402116403 147.93650793650795,84.65608465608466 147.72486772486775,85.29100529100529 147.72486772486775,85.92592592592594 147.72486772486775,86.56084656084657 147.72486772486775,87.1957671957672 147.93650793650795,87.83068783068784 148.14814814814815,88.46560846560847 148.35978835978838,89.1005291005291 148.78306878306879,89.73544973544975 149.20634920634922,90.15873015873017 149.62962962962965,90.7936507936508 150.05291005291005,91.21693121693123 150.6878306878307,91.64021164021165 151.32275132275134,92.06349206349208 151.95767195767198,92.27513227513228 152.5925925925926,92.69841269841271 153.22751322751324,92.91005291005291 153.86243386243387,92.91005291005291 154.4973544973545,93.12169312169313 155.13227513227514,93.33333333333334 155.76719576719577,93.54497354497356 156.4021164021164,93.54497354497356 157.03703703703704,93.54497354497356 157.67195767195767,93.54497354497356 158.30687830687833,93.54497354497356 158.94179894179896,93.54497354497356 159.5767195767196,93.54497354497356 160.21164021164023,93.33333333333334 160.84656084656086,93.12169312169313 161.4814814814815,93.12169312169313 162.11640211640213,93.12169312169313 162.75132275132276,93.12169312169313 163.3862433862434,93.12169312169313 164.02116402116403,93.12169312169313 164.65608465608466,93.12169312169313 165.2910052910053,93.12169312169313 165.92592592592595,93.33333333333334 166.56084656084658,93.33333333333334 167.19576719576722,93.33333333333334 167.83068783068785,93.33333333333334 168.46560846560848,93.54497354497356 169.10052910052912,93.54497354497356 169.73544973544975,93.75661375661376 170.37037037037038,93.75661375661376 171.005291005291,93.96825396825398 171.64021164021165,93.96825396825398 172.27513227513228,94.17989417989419 172.9100529100529,94.17989417989419 173.54497354497354,94.39153439153439 174.1798941798942,94.60317460317461 174.81481481481484,94.60317460317461 175.44973544973547,94.81481481481482 176.0846560846561,95.02645502645504 176.71957671957674,95.23809523809524 177.35449735449737,95.44973544973546 177.989417989418,95.66137566137567 178.62433862433863,95.87301587301587 179.25925925925927,96.2962962962963 179.8941798941799,96.50793650793652 180.31746031746033,96.93121693121694 180.95238095238096,97.35449735449737 181.5873015873016,97.77777777777779 182.22222222222223,98.2010582010582 182.64550264550266,98.62433862433863 183.0687830687831,99.04761904761905 183.4920634920635,99.47089947089948 183.91534391534393,99.8941798941799 184.33862433862436,100.31746031746033 184.7619047619048,100.95238095238096 184.973544973545,101.5873015873016 185.1851851851852,102.22222222222223 185.39682539682542,102.85714285714286 185.60846560846562,103.4920634920635 185.82010582010582,104.12698412698414 185.82010582010582,104.76190476190477 186.03174603174605,105.3968253968254 186.03174603174605,106.03174603174604 186.03174603174605,106.66666666666667 186.03174603174605,107.3015873015873 186.03174603174605,107.93650793650795 186.03174603174605,108.57142857142858 186.03174603174605,109.20634920634922 186.03174603174605,109.84126984126985 185.82010582010582,110.47619047619048 185.60846560846562,111.11111111111111 185.39682539682542,111.74603174603176 185.39682539682542,112.3809523809524 185.1851851851852,113.01587301587303 185.1851851851852,113.65079365079366 184.7619047619048,114.28571428571429 184.55026455026456,114.92063492063492 184.33862433862436,115.55555555555557 184.12698412698415,116.1904761904762 183.70370370370372,116.82539682539684 183.2804232804233,117.46031746031747 183.0687830687831,118.0952380952381 182.64550264550266,118.51851851851853 182.22222222222223,119.15343915343917 181.79894179894183,119.7883597883598 181.3756613756614,120.42328042328043 180.74074074074076,120.84656084656086 180.52910052910053,121.4814814814815 180.10582010582013,121.90476190476191 179.4708994708995,122.32804232804234 179.04761904761907,122.75132275132276 178.62433862433863,123.17460317460318 177.989417989418,123.59788359788361 177.35449735449737,124.02116402116403 176.71957671957674,124.44444444444446 176.0846560846561,124.65608465608466 175.44973544973547,124.86772486772487 175.02645502645504,125.2910052910053 174.3915343915344,125.5026455026455 173.75661375661377,125.71428571428572 173.12169312169314,125.92592592592594 172.4867724867725,126.13756613756615 171.85185185185188,126.34920634920636 171.21693121693124,126.56084656084657 170.58201058201058,126.56084656084657 169.94708994708995,126.77248677248679 169.31216931216932,126.77248677248679 168.67724867724868,126.77248677248679 168.04232804232805,126.98412698412699 167.40740740740742,126.98412698412699 166.7724867724868,126.98412698412699 166.13756613756615,126.98412698412699 165.50264550264552,126.98412698412699 164.8677248677249,126.77248677248679 164.23280423280426,126.77248677248679 163.59788359788362,126.77248677248679 162.96296296296296,126.56084656084657 162.32804232804233,126.56084656084657 161.6931216931217,126.34920634920636 161.05820105820106,126.13756613756615 160.42328042328043,125.92592592592594 159.7883597883598,125.92592592592594 159.15343915343917,125.71428571428572 158.51851851851853,125.5026455026455 157.8835978835979,125.2910052910053 157.24867724867727,125.07936507936509 156.61375661375664,124.86772486772487 155.978835978836,124.44444444444446 155.34391534391534,124.23280423280424 154.7089947089947,124.02116402116403 154.07407407407408,123.59788359788361 153.43915343915344,123.3862433862434 152.8042328042328,122.96296296296298 152.16931216931218,122.53968253968254 151.53439153439155,122.32804232804234 151.11111111111111,121.90476190476191 150.47619047619048,121.4814814814815 149.84126984126985,121.26984126984128 149.41798941798942,120.84656084656086 148.78306878306879,120.42328042328043 148.14814814814815,120.21164021164022 147.72486772486775,119.7883597883598 147.0899470899471,119.36507936507937 146.45502645502646,118.94179894179895 146.03174603174605,118.51851851851853 145.39682539682542,118.0952380952381 144.76190476190476,117.67195767195768 144.33862433862436,117.24867724867725 143.91534391534393,116.82539682539684 143.2804232804233,116.61375661375662 142.64550264550266,116.1904761904762 142.01058201058203,115.76719576719577 141.3756613756614,115.55555555555557 140.74074074074076,115.13227513227514 140.10582010582013,114.92063492063492 139.47089947089947,114.92063492063492 138.83597883597884,114.92063492063492 138.2010582010582,114.92063492063492 137.56613756613757,114.92063492063492 136.93121693121694,114.92063492063492 136.2962962962963,115.13227513227514 135.66137566137567,115.34391534391536 135.02645502645504,115.76719576719577 134.3915343915344,116.1904761904762 133.96825396825398,116.61375661375662 133.33333333333334,117.03703703703705 132.9100529100529,117.67195767195768 132.4867724867725,118.0952380952381 132.06349206349208,118.73015873015873 131.64021164021165,119.36507936507937 131.42857142857144,120.00000000000001 131.005291005291,120.63492063492065 130.7936507936508,121.26984126984128 130.58201058201058,121.90476190476191 130.37037037037038,122.53968253968254 130.15873015873018,123.17460317460318 130.15873015873018,123.80952380952382 129.94708994708995,124.44444444444446 129.73544973544975,125.07936507936509 129.73544973544975,125.71428571428572 129.52380952380955,126.34920634920636 129.31216931216932,126.98412698412699 129.10052910052912,127.61904761904763 129.10052910052912,128.25396825396825 128.88888888888889,128.88888888888889 128.88888888888889,129.52380952380955 128.67724867724868,130.15873015873018 128.46560846560848,130.7936507936508 128.46560846560848,131.42857142857144 128.25396825396825,132.06349206349208 128.04232804232805,132.6984126984127 128.04232804232805,133.33333333333334 127.83068783068784,133.96825396825398 127.61904761904763,134.6031746031746 127.83068783068784,135.23809523809524 127.61904761904763,135.87301587301587 127.40740740740742,136.5079365079365 127.40740740740742,137.14285714285717 127.1957671957672,137.7777777777778 126.98412698412699,138.41269841269843 126.98412698412699,139.04761904761907 126.77248677248679,139.6825396825397 126.56084656084657,140.31746031746033 126.56084656084657,140.95238095238096 126.34920634920636,141.5873015873016 126.34920634920636,142.22222222222223 126.13756613756615,142.85714285714286 125.92592592592594,143.4920634920635 125.71428571428572,144.12698412698413 125.71428571428572,144.76190476190476 125.5026455026455,145.39682539682542 125.5026455026455,146.03174603174605 124.65608465608466,149.84126984126985" style="fill:none; stroke:#999900; stroke-width:1.0"  /><polyline points="124.65608465608466,149.84126984126985 121.26984126984128,149.41798941798942 120.63492063492065,149.41798941798942 120.00000000000001,149.20634920634922 119.36507936507937,149.20634920634922 118.73015873015873,148.99470899470901 118.0952380952381,148.99470899470901 117.46031746031747,148.78306878306879 116.82539682539684,148.78306878306879 116.1904761904762,148.78306878306879 115.55555555555557,148.57142857142858 114.92063492063492,148.57142857142858 114.28571428571429,148.35978835978838 113.65079365079366,148.35978835978838 113.01587301587303,148.14814814814815 112.3809523809524,148.14814814814815 111.74603174603176,147.93650793650795 111.11111111111111,147.93650793650795 110.47619047619048,147.72486772486775 109.84126984126985,147.72486772486775 109.20634920634922,147.51322751322752 108.57142857142858,147.51322751322752 107.93650793650795,147.51322751322752 107.3015873015873,147.30158730158732 106.66666666666667,147.0899470899471 106.03174603174604,147.0899470899471 105.3968253968254,146.8783068783069 104.76190476190477,146.8783068783069 104.12698412698414,146.66666666666669 103.4920634920635,146.66666666666669 102.85714285714286,146.45502645502646 102.22222222222223,146.45502645502646 101.5873015873016,146.45502645502646 100.95238095238096,146.24338624338625 100.31746031746033,146.24338624338625 99.68253968253968,146.03174603174605 99.04761904761905,146.03174603174605 98.41269841269842,145.82010582010582 97.77777777777779,145.82010582010582 97.14285714285715,145.60846560846562 96.50793650793652,145.60846560846562 95.87301587301587,145.39682539682542 95.23809523809524,145.39682539682542 94.60317460317461,145.1851851851852 93.96825396825398,145.1851851851852 93.33333333333334,144.973544973545 92.69841269841271,144.973544973545 92.06349206349208,144.76190476190476 91.42857142857143,144.76190476190476 90.7936507936508,144.55026455026456 90.15873015873017,144.33862433862436 89.52380952380953,144.55026455026456 88.8888888888889,144.33862433862436 88.25396825396827,144.12698412698413 87.61904761904762,143.91534391534393 86.98412698412699,143.70370370370372 86.34920634920636,143.4920634920635 85.71428571428572,143.2804232804233 85.07936507936509,143.0687830687831 84.44444444444446,142.85714285714286 83.80952380952381,142.43386243386246 83.17460317460318,142.22222222222223 82.53968253968254,141.7989417989418 82.11640211640213,141.3756613756614 81.48148148148148,140.95238095238096 81.05820105820106,140.31746031746033 80.84656084656085,139.6825396825397 80.63492063492065,139.04761904761907 80.42328042328043,138.41269841269843 80.42328042328043,137.7777777777778 80.42328042328043,137.14285714285717 80.42328042328043,136.5079365079365 80.63492063492065,135.87301587301587 80.84656084656085,135.23809523809524 81.05820105820106,134.6031746031746 81.48148148148148,133.96825396825398 82.11640211640213,133.54497354497354 82.75132275132276,133.12169312169314 83.3862433862434,132.6984126984127 84.02116402116403,132.4867724867725 84.44444444444446,132.06349206349208 85.07936507936509,131.85185185185185 85.71428571428572,131.42857142857144 86.34920634920636,131.005291005291 86.98412698412699,130.58201058201058 87.40740740740742,130.15873015873018 88.04232804232805,129.94708994708995 88.67724867724868,129.52380952380955 89.1005291005291,129.10052910052912 89.52380952380953,128.67724867724868 89.94708994708995,128.25396825396825 90.37037037037038,127.61904761904763 91.00529100529101,127.40740740740742 91.42857142857143,126.98412698412699 91.85185185185186,126.34920634920636 92.27513227513228,125.92592592592594 92.69841269841271,125.5026455026455 93.12169312169313,124.86772486772487 93.54497354497356,124.44444444444446 93.96825396825398,124.02116402116403 94.39153439153439,123.3862433862434 94.81481481481482,122.75132275132276 95.02645502645504,122.11640211640213 95.44973544973546,121.6931216931217 95.66137566137567,121.05820105820106 95.87301587301587,120.42328042328043 96.08465608465609,119.7883597883598 96.2962962962963,119.15343915343917 96.2962962962963,118.51851851851853 96.2962962962963,117.88359788359789 96.2962962962963,117.24867724867725 96.08465608465609,116.61375661375662 95.87301587301587,115.97883597883599 95.66137566137567,115.34391534391536 95.23809523809524,114.92063492063492 95.02645502645504,114.28571428571429 94.60317460317461,113.65079365079366 94.17989417989419,113.01587301587303 93.75661375661376,112.3809523809524 93.33333333333334,111.74603174603176 92.91005291005291,111.11111111111111 92.4867724867725,110.6878306878307 92.06349206349208,110.05291005291006 91.64021164021165,109.62962962962963 91.21693121693123,109.20634920634922 90.7936507936508,108.57142857142858 90.37037037037038,108.14814814814815 89.94708994708995,107.72486772486774 89.31216931216932,107.3015873015873 88.8888888888889,106.87830687830689 88.25396825396827,106.45502645502647 87.83068783068784,106.03174603174604 87.1957671957672,105.60846560846562 86.56084656084657,105.3968253968254 86.13756613756614,104.97354497354497 85.5026455026455,104.76190476190477 84.86772486772487,104.33862433862434 84.23280423280424,104.12698412698414 83.80952380952381,103.70370370370371 83.17460317460318,103.4920634920635 82.53968253968254,103.06878306878308 81.90476190476191,102.85714285714286 81.26984126984128,102.43386243386244 80.63492063492065,102.22222222222223 80.0,102.01058201058201 79.36507936507937,101.5873015873016 78.73015873015873,101.37566137566138 78.0952380952381,101.16402116402116 77.46031746031747,100.95238095238096 76.82539682539684,100.74074074074075 76.19047619047619,100.52910052910053 75.55555555555556,100.10582010582011 74.92063492063492,100.10582010582011 74.28571428571429,99.8941798941799 73.65079365079366,99.8941798941799 73.01587301587303,99.68253968253968 72.38095238095238,99.47089947089948 71.74603174603175,99.47089947089948 71.11111111111111,99.25925925925927 70.47619047619048,99.25925925925927 69.84126984126985,99.25925925925927 69.20634920634922,98.83597883597885 68.57142857142858,98.83597883597885 67.93650793650794,98.83597883597885 67.3015873015873,98.83597883597885 66.66666666666667,98.62433862433863 66.03174603174604,98.62433862433863 65.3968253968254,98.62433862433863 64.76190476190477,98.62433862433863 64.12698412698413,98.83597883597885 63.492063492063494,98.83597883597885 62.85714285714286,98.83597883597885 62.22222222222223,98.83597883597885 61.58730158730159,98.83597883597885 60.952380952380956,99.04761904761905 60.31746031746032,99.25925925925927 59.682539682539684,99.47089947089948 59.04761904761905,99.68253968253968 58.41269841269842,100.10582010582011 57.777777777777786,100.52910052910053 57.142857142857146,100.95238095238096 56.50793650793651,101.37566137566138 56.08465608465609,101.79894179894181 55.661375661375665,102.22222222222223 55.23809523809524,102.64550264550266 54.81481481481482,103.06878306878308 54.39153439153439,103.70370370370371 54.179894179894184,104.33862433862434 53.75661375661376,104.97354497354497 53.333333333333336,105.60846560846562 53.12169312169313,106.24338624338625 52.91005291005291,106.87830687830689 52.6984126984127,107.51322751322752 52.48677248677249,108.14814814814815 52.27513227513228,108.78306878306879 52.27513227513228,109.41798941798943 52.06349206349207,110.05291005291006 52.06349206349207,110.6878306878307 52.06349206349207,111.32275132275133 52.06349206349207,111.95767195767196 52.06349206349207,112.5925925925926 52.06349206349207,113.22751322751324 52.27513227513228,113.86243386243387 52.27513227513228,114.49735449735451 52.48677248677249,115.13227513227514 52.6984126984127,115.76719576719577 52.91005291005291,116.4021164021164 53.12169312169313,117.03703703703705 53.333333333333336,117.67195767195768 53.54497354497355,118.30687830687832 53.75661375661376,118.94179894179895 53.968253968253975,119.57671957671958 54.179894179894184,120.21164021164022 54.39153439153439,120.84656084656086 54.60317460317461,121.4814814814815 54.81481481481482,122.11640211640213 55.02645502645503,122.75132275132276 55.02645502645503,123.3862433862434 55.23809523809524,124.02116402116403 55.23809523809524,124.65608465608466 55.02645502645503,125.2910052910053 55.02645502645503,125.92592592592594 54.81481481481482,126.56084656084657 54.81481481481482,127.1957671957672 54.39153439153439,127.83068783068784 53.968253968253975,128.46560846560848 53.54497354497355,128.88888888888889 53.12169312169313,129.31216931216932 52.6984126984127,129.73544973544975 52.06349206349207,129.94708994708995 51.42857142857143,129.94708994708995 50.7936507936508,130.15873015873018 50.158730158730165,130.15873015873018 49.523809523809526,130.15873015873018 48.88888888888889,130.15873015873018 48.25396825396826,130.15873015873018 47.61904761904762,130.15873015873018 46.98412698412699,129.94708994708995 46.349206349206355,129.94708994708995 45.714285714285715,129.94708994708995 45.07936507936508,129.73544973544975 44.44444444444445,129.73544973544975 43.80952380952381,129.52380952380955 43.17460317460318,129.52380952380955 42.539682539682545,129.31216931216932 41.904761904761905,129.31216931216932 41.26984126984127,129.10052910052912 40.63492063492064,128.88888888888889 40.0,128.67724867724868 39.36507936507937,128.46560846560848 38.730158730158735,128.25396825396825 38.095238095238095,128.04232804232805 37.46031746031746,127.83068783068784 36.82539682539683,127.61904761904763 36.19047619047619,127.40740740740742 35.55555555555556,127.1957671957672 34.920634920634924,126.77248677248679 34.28571428571429,126.56084656084657 33.86243386243387,126.13756613756615 33.22751322751323,125.92592592592594 32.592592592592595,125.5026455026455 31.95767195767196,125.2910052910053 31.322751322751326,124.86772486772487 30.68783068783069,124.44444444444446 30.052910052910054,124.23280423280424 29.629629629629633,123.80952380952382 28.994708994708997,123.59788359788361 28.571428571428573,123.17460317460318 27.93650793650794,122.75132275132276 27.301587301587304,122.53968253968254 26.87830687830688,122.11640211640213 26.243386243386244,121.6931216931217 25.60846560846561,121.26984126984128 24.973544973544975,121.05820105820106 24.55026455026455,120.63492063492065 23.915343915343918,120.21164021164022 23.280423280423282,119.7883597883598 22.645502645502646,119.36507936507937 22.010582010582013,118.94179894179895 21.375661375661377,118.51851851851853 20.740740740740744,118.0952380952381 20.31746031746032,117.67195767195768 19.682539682539684,117.46031746031747 19.25925925925926,117.03703703703705 18.624338624338627,116.61375661375662 17.98941798941799,116.1904761904762 17.354497354497354,115.76719576719577 16.71957671957672,115.34391534391536 16.084656084656086,114.92063492063492 15.661375661375663,114.49735449735451 15.026455026455027,114.07407407407408 14.603174603174605,113.65079365079366 13.96825396825397,113.22751322751324 13.333333333333334,112.80423280423281 12.6984126984127,112.3809523809524 12.275132275132275,111.95767195767196 11.640211640211641,111.53439153439155 11.005291005291006,111.11111111111111 10.370370370370372,110.6878306878307 9.947089947089948,110.26455026455027 6.772486772486773,107.93650793650795" style="fill:none; stroke:#00aa99; stroke-width:1.0"  /><polyline points="6.772486772486773,107.93650793650795 8.253968253968255,104.97354497354497 8.465608465608467,104.33862433862434 8.88888888888889,103.70370370370371 9.100529100529101,103.06878306878308 9.523809523809524,102.43386243386244 9.947089947089948,101.79894179894181 10.15873015873016,101.16402116402116 10.582010582010582,100.52910052910053 10.582010582010582,99.8941798941799 11.005291005291006,99.25925925925927 11.216931216931219,98.62433862433863 11.640211640211641,97.989417989418 11.851851851851853,97.35449735449737 12.275132275132275,96.71957671957672 12.6984126984127,96.08465608465609 12.910052910052912,95.44973544973546 13.333333333333334,94.81481481481482 13.756613756613758,94.17989417989419 13.96825396825397,93.54497354497356 14.391534391534393,92.91005291005291 14.814814814814817,92.27513227513228 15.026455026455027,91.64021164021165 15.449735449735451,91.21693121693123 15.661375661375663,90.58201058201058 16.084656084656086,89.94708994708995 16.50793650793651,89.31216931216932 16.931216931216934,88.67724867724868 17.142857142857146,88.04232804232805 17.566137566137566,87.61904761904762 17.98941798941799,86.98412698412699 18.201058201058203,86.34920634920636 18.624338624338627,85.71428571428572 19.047619047619047,85.07936507936509 19.47089947089947,84.44444444444446 19.894179894179896,83.80952380952381 20.105820105820108,83.17460317460318 20.529100529100532,82.53968253968254 20.952380952380953,81.90476190476191 21.375661375661377,81.26984126984128 21.58730158730159,80.63492063492065 22.010582010582013,80.0 22.433862433862437,79.57671957671958 22.857142857142858,78.94179894179895 23.280423280423282,78.30687830687832 23.703703703703706,77.88359788359789 24.12698412698413,77.24867724867725 24.55026455026455,76.61375661375662 24.973544973544975,76.19047619047619 25.3968253968254,75.55555555555556 25.820105820105823,74.92063492063492 26.243386243386244,74.28571428571429 26.666666666666668,73.86243386243387 27.089947089947092,73.22751322751323 27.513227513227516,72.80423280423281 27.93650793650794,72.38095238095238 28.35978835978836,71.74603174603175 28.571428571428573,71.11111111111111 28.994708994708997,70.6878306878307 29.41798941798942,70.26455026455027 29.841269841269842,69.62962962962963 30.264550264550266,68.994708994709 30.476190476190478,68.35978835978837 30.899470899470902,67.72486772486774 31.111111111111114,67.08994708994709 31.322751322751326,66.45502645502646 31.53439153439154,65.82010582010582 31.746031746031747,65.18518518518519 31.53439153439154,64.55026455026456 31.746031746031747,63.91534391534392 31.746031746031747,63.280423280423285 31.746031746031747,62.64550264550265 31.53439153439154,62.01058201058201 31.322751322751326,61.37566137566138 31.111111111111114,60.74074074074075 30.899470899470902,60.10582010582011 30.476190476190478,59.470899470899475 30.052910052910054,59.04761904761905 29.629629629629633,58.62433862433863 29.20634920634921,58.2010582010582 28.571428571428573,57.777777777777786 27.93650793650794,57.35449735449736 27.301587301587304,57.142857142857146 26.666666666666668,56.71957671957672 26.031746031746035,56.50793650793651 25.3968253968254,56.50793650793651 24.761904761904763,56.2962962962963 24.12698412698413,56.2962962962963 23.492063492063494,56.08465608465609 22.857142857142858,56.08465608465609 22.222222222222225,56.08465608465609 21.58730158730159,56.08465608465609 20.952380952380953,56.08465608465609 20.31746031746032,56.08465608465609 19.682539682539684,56.08465608465609 19.047619047619047,56.2962962962963 18.412698412698415,56.2962962962963 17.77777777777778,56.2962962962963 17.142857142857146,56.2962962962963 16.50793650793651,56.2962962962963 15.873015873015873,56.2962962962963 15.238095238095239,56.2962962962963 14.603174603174605,56.08465608465609 13.96825396825397,56.08465608465609 13.333333333333334,55.87301587301588 12.6984126984127,55.87301587301588 12.063492063492065,55.661375661375665 11.428571428571429,55.449735449735456 10.793650793650794,55.449735449735456 10.15873015873016,55.23809523809524 9.523809523809524,55.02645502645503 8.88888888888889,54.81481481481482 8.253968253968255,54.60317460317461 7.6190476190476195,54.179894179894184 6.984126984126985,53.968253968253975 6.34920634920635,53.75661375661376 5.714285714285714,53.333333333333336 5.07936507936508,53.12169312169313 4.444444444444445,52.6984126984127 3.8095238095238098,52.27513227513228 3.3862433862433865,51.851851851851855 2.9629629629629632,51.42857142857143 2.53968253968254,51.00529100529101 2.1164021164021167,50.370370370370374 1.6931216931216932,49.73544973544974 1.4814814814814816,49.1005291005291 1.26984126984127,48.46560846560847 0.8465608465608466,47.830687830687836 0.634920634920635,47.195767195767196 0.634920634920635,46.560846560846564 0.4232804232804233,45.92592592592593 0.21164021164021166,45.29100529100529 0.21164021164021166,44.65608465608466 0.21164021164021166,44.021164021164026 0.21164021164021166,43.386243386243386 0.21164021164021166,42.75132275132275 0.21164021164021166,42.11640211640212 0.21164021164021166,41.48148148148149 0.21164021164021166,40.84656084656085 0.4232804232804233,40.211640211640216 0.4232804232804233,39.57671957671958 0.4232804232804233,38.94179894179894 0.634920634920635,38.30687830687831 0.634920634920635,37.67195767195768 0.8465608465608466,37.03703703703704 1.0582010582010584,36.402116402116405 1.26984126984127,35.76719576719577 1.4814814814814816,35.13227513227513 1.6931216931216932,34.4973544973545 1.9047619047619049,33.86243386243387 2.1164021164021167,33.22751322751323 2.3280423280423284,32.592592592592595 2.53968253968254,31.95767195767196 2.9629629629629632,31.322751322751326 3.174603174603175,30.68783068783069 3.3862433862433865,30.052910052910054 3.8095238095238098,29.41798941798942 4.2328042328042335,28.783068783068785 4.444444444444445,28.14814814814815 4.867724867724868,27.724867724867728 5.291005291005291,27.301587301587304 5.714285714285714,26.87830687830688 6.137566137566138,26.455026455026456 6.560846560846561,26.031746031746035 7.195767195767196,25.60846560846561 7.830687830687832,25.185185185185187 8.253968253968255,24.761904761904763 8.88888888888889,24.55026455026455 9.312169312169313,24.12698412698413 9.947089947089948,23.915343915343918 10.582010582010582,23.492063492063494 11.216931216931219,23.280423280423282 11.428571428571429,22.645502645502646 11.851851851851853,23.06878306878307 12.486772486772487,22.857142857142858 13.121693121693122,22.857142857142858 13.756613756613758,22.645502645502646 14.391534391534393,22.645502645502646 15.026455026455027,22.645502645502646 15.661375661375663,22.857142857142858 16.296296296296298,22.857142857142858 16.931216931216934,23.06878306878307 17.566137566137566,23.280423280423282 18.201058201058203,23.280423280423282 18.83597883597884,23.703703703703706 19.47089947089947,23.915343915343918 20.105820105820108,23.915343915343918 20.740740740740744,24.12698412698413 21.375661375661377,24.338624338624342 22.010582010582013,24.761904761904763 22.645502645502646,25.185185185185187 23.280423280423282,25.60846560846561 23.915343915343918,26.031746031746035 24.55026455026455,26.455026455026456 24.973544973544975,26.87830687830688 25.3968253968254,27.301587301587304 25.820105820105823,27.724867724867728 26.243386243386244,28.14814814814815 26.666666666666668,28.571428571428573 27.301587301587304,28.994708994708997 27.724867724867728,29.41798941798942 28.14814814814815,29.841269841269842 28.571428571428573,30.264550264550266 29.20634920634921,30.476190476190478 29.629629629629633,30.899470899470902 30.052910052910054,31.322751322751326 30.476190476190478,31.746031746031747 31.111111111111114,32.16931216931217 31.746031746031747,32.592592592592595 32.38095238095239,33.01587301587302 33.01587301587302,33.22751322751323 33.65079365079365,33.43915343915344 34.28571428571429,33.65079365079365 34.920634920634924,33.86243386243387 35.55555555555556,34.074074074074076 36.19047619047619,34.074074074074076 36.82539682539683,34.074074074074076 37.46031746031746,33.86243386243387 38.095238095238095,33.86243386243387 38.730158730158735,33.65079365079365 39.36507936507937,33.22751322751323 40.0,32.804232804232804 40.63492063492064,32.38095238095239 41.058201058201064,31.95767195767196 41.48148148148149,31.53439153439154 41.904761904761905,31.111111111111114 42.32804232804233,30.68783068783069 42.75132275132275,30.052910052910054 42.96296296296297,29.41798941798942 43.386243386243386,28.783068783068785 43.5978835978836,28.14814814814815 44.021164021164026,27.513227513227516 44.232804232804234,26.87830687830688 44.65608465608466,26.243386243386244 44.867724867724874,25.60846560846561 45.29100529100529,24.973544973544975 45.50264550264551,24.338624338624342 45.714285714285715,23.703703703703706 46.13756613756614,23.06878306878307 46.349206349206355,22.433862433862437 46.77248677248678,21.7989417989418 46.98412698412699,21.164021164021165 47.40740740740741,20.529100529100532 47.61904761904762,19.894179894179896 48.042328042328045,19.25925925925926 48.25396825396826,18.624338624338627 48.46560846560847,17.98941798941799 48.88888888888889,17.354497354497354 49.1005291005291,16.71957671957672 49.523809523809526,16.084656084656086 49.73544973544974,15.449735449735451 50.158730158730165,14.814814814814817 50.370370370370374,14.17989417989418 50.58201058201058,13.544973544973546 51.00529100529101,12.910052910052912 51.21693121693122,12.275132275132275 51.640211640211646,11.640211640211641 52.06349206349207,11.005291005291006 52.27513227513228,10.370370370370372 52.48677248677249,9.735449735449736 52.91005291005291,9.100529100529101 53.12169312169313,8.465608465608467 53.54497354497355,7.830687830687832 53.968253968253975,7.195767195767196 54.179894179894184,6.560846560846561 54.60317460317461,5.9259259259259265 54.81481481481482,5.291005291005291 55.02645502645503,4.656084656084657 55.449735449735456,4.2328042328042335 55.661375661375665,3.597883597883598 55.87301587301588,2.9629629629629632 57.35449735449736,0.0" style="fill:none; stroke:#3300bb; stroke-width:1.0"  /><circle cx="57.35449735449736" cy="0.0" r="2.0" style="fill:none; stroke:#000000aa; stroke-width:0.25" /><circle cx="168.8888888888889" cy="34.4973544973545" r="2.0" style="fill:none; stroke:#000000aa; stroke-width:0.25" /><circle cx="124.65608465608466" cy="149.84126984126985" r="2.0" style="fill:none; stroke:#000000aa; stroke-width:0.25" /><circle cx="6.772486772486773" cy="107.93650793650795" r="2.0" style="fill:none; stroke:#000000aa; stroke-width:0.25" /><circle cx="57.777777777777786" cy="0.21164021164021166" r="2.0" style="fill:none; stroke:#ff3366aa; stroke-width:0.25" /><circle cx="168.46560846560848" cy="34.28571428571429" r="2.0" style="fill:none; stroke:#ff3366aa; stroke-width:0.25" /><circle cx="124.44444444444446" cy="149.41798941798942" r="2.0" style="fill:none; stroke:#ff3366aa; stroke-width:0.25" /><circle cx="6.984126984126985" cy="108.14814814814815" r="2.0" style="fill:none; stroke:#ff3366aa; stroke-width:0.25" /><polyline points="69.20634920634922,2.9629629629629632 68.57142857142858,2.7513227513227516 67.93650793650794,2.53968253968254 67.3015873015873,2.3280423280423284 66.66666666666667,2.1164021164021167 66.03174603174604,1.9047619047619049 65.3968253968254,1.9047619047619049 64.76190476190477,1.6931216931216932 64.12698412698413,1.4814814814814816 63.492063492063494,1.26984126984127 62.85714285714286,1.26984126984127 62.22222222222223,1.0582010582010584 61.58730158730159,0.8465608465608466 60.952380952380956,0.8465608465608466" style="fill:none; stroke:#001100; stroke-width:1.0" /><polyline points="52.27513227513228,10.370370370370372 52.48677248677249,9.735449735449736 52.91005291005291,9.100529100529101 53.12169312169313,8.465608465608467 53.54497354497355,7.830687830687832 53.968253968253975,7.195767195767196 54.179894179894184,6.560846560846561 54.60317460317461,5.9259259259259265 54.81481481481482,5.291005291005291 55.02645502645503,4.656084656084657 55.449735449735456,4.2328042328042335 55.661375661375665,3.597883597883598 55.87301587301588,2.9629629629629632" style="fill:none; stroke:#000011; stroke-width:1.0" /><polyline points="166.13756613756615,45.714285714285715 166.34920634920636,45.07936507936508 166.34920634920636,44.44444444444445 166.56084656084658,43.80952380952381 166.7724867724868,43.17460317460318 166.984126984127,42.539682539682545 167.19576719576722,41.904761904761905 167.40740740740742,41.26984126984127 167.40740740740742,40.63492063492064 167.61904761904762,40.0 167.61904761904762,39.36507936507937 167.83068783068785,38.730158730158735 168.04232804232805,38.095238095238095 168.25396825396825,37.46031746031746" style="fill:none; stroke:#001100; stroke-width:1.0" /><polyline points="158.51851851851853,28.571428571428573 159.15343915343917,28.994708994708997 159.7883597883598,29.20634920634921 160.42328042328043,29.629629629629633 161.05820105820106,29.841269841269842 161.6931216931217,30.264550264550266 162.32804232804233,30.68783068783069 162.96296296296296,31.111111111111114 163.59788359788362,31.53439153439154 164.23280423280426,31.95767195767196 164.8677248677249,32.38095238095239 165.50264550264552,32.592592592592595" style="fill:none; stroke:#000011; stroke-width:1.0" /><polyline points="113.01587301587303,148.14814814814815 113.65079365079366,148.35978835978838 114.28571428571429,148.35978835978838 114.92063492063492,148.57142857142858 115.55555555555557,148.57142857142858 116.1904761904762,148.78306878306879 116.82539682539684,148.78306878306879 117.46031746031747,148.78306878306879 118.0952380952381,148.99470899470901 118.73015873015873,148.99470899470901 119.36507936507937,149.20634920634922 120.00000000000001,149.20634920634922 120.63492063492065,149.41798941798942 121.26984126984128,149.41798941798942" style="fill:none; stroke:#001100; stroke-width:1.0" /><polyline points="127.1957671957672,137.7777777777778 126.98412698412699,138.41269841269843 126.98412698412699,139.04761904761907 126.77248677248679,139.6825396825397 126.56084656084657,140.31746031746033 126.56084656084657,140.95238095238096 126.34920634920636,141.5873015873016 126.34920634920636,142.22222222222223 126.13756613756615,142.85714285714286 125.92592592592594,143.4920634920635 125.71428571428572,144.12698412698413 125.71428571428572,144.76190476190476 125.5026455026455,145.39682539682542 125.5026455026455,146.03174603174605" style="fill:none; stroke:#000011; stroke-width:1.0" /><polyline points="11.851851851851853,97.35449735449737 11.640211640211641,97.989417989418 11.216931216931219,98.62433862433863 11.005291005291006,99.25925925925927 10.582010582010582,99.8941798941799 10.582010582010582,100.52910052910053 10.15873015873016,101.16402116402116 9.947089947089948,101.79894179894181 9.523809523809524,102.43386243386244 9.100529100529101,103.06878306878308 8.88888888888889,103.70370370370371 8.465608465608467,104.33862433862434 8.253968253968255,104.97354497354497" style="fill:none; stroke:#001100; stroke-width:1.0" /><polyline points="16.084656084656086,114.92063492063492 15.661375661375663,114.49735449735451 15.026455026455027,114.07407407407408 14.603174603174605,113.65079365079366 13.96825396825397,113.22751322751324 13.333333333333334,112.80423280423281 12.6984126984127,112.3809523809524 12.275132275132275,111.95767195767196 11.640211640211641,111.53439153439155 11.005291005291006,111.11111111111111 10.370370370370372,110.6878306878307 9.947089947089948,110.26455026455027" style="fill:none; stroke:#000011; stroke-width:1.0" /><polyline points="60.952380952380956,0.8465608465608466 40.423280423280424,-4.444444444444445" style="fill:none; stroke:#ffaa00; stroke-width:0.4" /><polyline points="55.87301587301588,2.9629629629629632 65.18518518518519,-16.084656084656086" style="fill:none; stroke:#aaff00; stroke-width:0.4" /><polyline points="168.25396825396825,37.46031746031746 173.54497354497354,16.931216931216934" style="fill:none; stroke:#ffaa00; stroke-width:0.4" /><polyline points="165.50264550264552,32.592592592592595 183.91534391534393,43.17460317460318" style="fill:none; stroke:#aaff00; stroke-width:0.4" /><polyline points="121.26984126984128,149.41798941798942 142.22222222222223,152.5925925925926" style="fill:none; stroke:#ffaa00; stroke-width:0.4" /><polyline points="125.5026455026455,146.03174603174605 121.26984126984128,166.7724867724868" style="fill:none; stroke:#aaff00; stroke-width:0.4" /><polyline points="8.253968253968255,104.97354497354497 -0.8465608465608466,124.02116402116403" style="fill:none; stroke:#ffaa00; stroke-width:0.4" /><polyline points="9.947089947089948,110.26455026455027 -6.984126984126985,97.56613756613757" style="fill:none; stroke:#aaff00; stroke-width:0.4" /><circle cx="90.58201058201058" cy="76.4021164021164" r="1.0" style="fill:#444444; stroke-width:0" /><circle cx="115.13227513227514" cy="87.40740740740742" r="10.582010582010582" style="fill:#ff770022; stroke-width:0" /><circle cx="115.13227513227514" cy="87.40740740740742" r="1.0" style="fill:#ff7700; stroke-width:0" /></svg>