<?xml version="1.0" encoding="UTF-8" standalone="no"?><svg width="467.30158730158735" height="599.3650793650794" viewBox="-10 -10 175.76719576719577 219.7883597883598" xmlns="http://www.w3.org/2000/svg" xmlns:xlink="http://www.w3.org/1999/xlink"><polyline points="42.11640211640212,5.714285714285714 45.29100529100529,5.07936507936508 45.92592592592593,5.07936507936508 46.560846560846564,5.07936507936508 47.195767195767196,4.867724867724868 47.830687830687836,4.656084656084657 48.46560846560847,4.656084656084657 49.1005291005291,4.444444444444445 49.73544973544974,4.444444444444445 50.370370370370374,4.2328042328042335 51.00529100529101,4.2328042328042335 51.640211640211646,4.021164021164021 52.27513227513228,3.8095238095238098 52.91005291005291,3.597883597883598 53.54497354497355,3.597883597883598 54.179894179894184,3.3862433862433865 54.81481481481482,3.174603174603175 55.449735449735456,2.9629629629629632 56.08465608465609,2.9629629629629632 56.71957671957672,2.7513227513227516 57.35449735449736,2.53968253968254 57.989417989417994,2.3280423280423284 58.62433862433863,2.1164021164021167 59.25925925925927,1.9047619047619049 59.8941798941799,1.9047619047619049 60.52910052910053,1.6931216931216932 61.16402116402117,1.4814814814814816 61.798941798941804,1.26984126984127 62.43386243386244,1.0582010582010584 63.06878306878308,0.8465608465608466 63.70370370370371,0.4232804232804233 64.33862433862434,0.21164021164021166 64.97354497354497,0.21164021164021166 65.60846560846561,0.21164021164021166 66.24338624338625,0.4232804232804233 66.87830687830689,0.634920634920635 67.51322751322752,0.634920634920635 67.93650793650794,1.0582010582010584 68.57142857142858,1.26984126984127 69.20634920634922,1.4814814814814816 69.62962962962963,1.9047619047619049 70.26455026455027,2.3280423280423284 70.6878306878307,2.7513227513227516 71.11111111111111,3.174603174603175 71.32275132275133,3.8095238095238098 71.74603174603175,4.2328042328042335 71.74603174603175,4.867724867724868 71.95767195767196,5.502645502645503 72.16931216931218,6.137566137566138 72.16931216931218,6.772486772486773 72.16931216931218,7.407407407407408 72.16931216931218,8.042328042328043 71.95767195767196,8.677248677248677 71.95767195767196,9.312169312169313 71.74603174603175,9.947089947089948 71.53439153439155,10.582010582010582 71.32275132275133,11.216931216931219 71.11111111111111,11.851851851851853 70.6878306878307,12.486772486772487 70.47619047619048,13.121693121693122 70.05291005291006,13.756613756613758 69.84126984126985,14.391534391534393 69.41798941798942,15.026455026455027 69.20634920634922,15.661375661375663 68.78306878306879,16.296296296296298 68.35978835978837,16.931216931216934 68.14814814814815,17.566137566137566 67.72486772486774,18.201058201058203 67.51322751322752,18.83597883597884 67.08994708994709,19.25925925925926 66.87830687830689,19.894179894179896 66.45502645502646,20.529100529100532 66.03174603174604,21.164021164021165 65.82010582010582,21.7989417989418 65.3968253968254,22.222222222222225 65.18518518518519,22.857142857142858 64.76190476190477,23.492063492063494 64.55026455026456,24.12698412698413 64.12698412698413,24.55026455026455 63.91534391534392,25.185185185185187 63.492063492063494,25.60846560846561 63.280423280423285,26.243386243386244 63.06878306878308,26.87830687830688 62.64550264550265,27.513227513227516 62.43386243386244,28.14814814814815 62.22222222222223,28.783068783068785 62.01058201058201,29.41798941798942 61.798941798941804,30.052910052910054 61.58730158730159,30.68783068783069 61.37566137566138,31.322751322751326 61.37566137566138,31.95767195767196 61.16402116402117,32.592592592592595 61.16402116402117,33.22751322751323 61.16402116402117,33.86243386243387 61.16402116402117,34.4973544973545 61.16402116402117,35.13227513227513 61.16402116402117,35.76719576719577 61.37566137566138,36.402116402116405 61.37566137566138,37.03703703703704 61.37566137566138,37.67195767195768 61.37566137566138,38.30687830687831 61.58730158730159,38.94179894179894 61.58730158730159,39.57671957671958 61.798941798941804,40.211640211640216 62.01058201058201,40.84656084656085 62.22222222222223,41.48148148148149 62.43386243386244,42.11640211640212 62.64550264550265,42.75132275132275 62.85714285714286,43.386243386243386 63.06878306878308,44.021164021164026 63.492063492063494,44.65608465608466 63.91534391534392,45.29100529100529 64.12698412698413,45.92592592592593 64.55026455026456,46.349206349206355 64.97354497354497,46.98412698412699 65.3968253968254,47.61904761904762 65.82010582010582,48.25396825396826 66.24338624338625,48.88888888888889 66.87830687830689,49.31216931216932 67.3015873015873,49.73544973544974 67.72486772486774,50.158730158730165 68.14814814814815,50.58201058201058 68.57142857142858,51.00529100529101 68.994708994709,51.42857142857143 69.62962962962963,51.851851851851855 70.05291005291006,52.27513227513228 70.6878306878307,52.6984126984127 71.32275132275133,53.12169312169313 71.95767195767196,53.54497354497355 72.5925925925926,53.75661375661376 73.22751322751323,53.968253968253975 73.65079365079366,54.39153439153439 74.28571428571429,54.60317460317461 74.92063492063492,54.81481481481482 75.55555555555556,55.02645502645503 76.19047619047619,55.02645502645503 76.82539682539684,55.23809523809524 77.46031746031747,55.23809523809524 78.0952380952381,55.661375661375665 78.73015873015873,55.449735449735456 79.36507936507937,55.661375661375665 80.0,55.87301587301588 80.63492063492065,55.87301587301588 81.26984126984128,55.87301587301588 81.90476190476191,55.87301587301588 82.53968253968254,55.87301587301588 83.17460317460318,55.87301587301588 83.80952380952381,55.87301587301588 84.44444444444446,55.87301587301588 85.07936507936509,55.87301587301588 85.71428571428572,55.87301587301588 86.34920634920636,55.87301587301588 86.98412698412699,55.87301587301588 87.61904761904762,55.661375661375665 88.25396825396827,55.661375661375665 88.8888888888889,55.449735449735456 89.52380952380953,55.449735449735456 90.15873015873017,55.449735449735456 90.7936507936508,55.449735449735456 91.42857142857143,55.23809523809524 92.06349206349208,55.02645502645503 92.69841269841271,54.81481481481482 93.33333333333334,54.60317460317461 93.96825396825398,54.60317460317461 94.60317460317461,54.179894179894184 95.23809523809524,54.179894179894184 95.87301587301587,53.968253968253975 96.50793650793652,53.54497354497355 97.14285714285715,53.333333333333336 97.77777777777779,53.12169312169313 98.41269841269842,52.91005291005291 98.83597883597885,52.48677248677249 99.47089947089948,52.06349206349207 100.10582010582011,51.640211640211646 100.74074074074075,51.21693121693122 101.37566137566138,50.7936507936508 102.01058201058201,50.370370370370374 102.43386243386244,49.94708994708995 103.06878306878308,49.523809523809526 103.4920634920635,49.1005291005291 103.91534391534393,48.677248677248684 104.33862433862434,48.25396825396826 104.76190476190477,47.830687830687836 105.18518518518519,47.40740740740741 105.60846560846562,46.98412698412699 106.03174603174604,46.560846560846564 106.45502645502647,45.92592592592593 106.87830687830689,45.50264550264551 107.3015873015873,44.867724867724874 107.72486772486774,44.44444444444445 108.14814814814815,43.80952380952381 108.57142857142858,43.17460317460318 108.78306878306879,42.539682539682545 109.20634920634922,42.11640211640212 109.62962962962963,41.6931216931217 109.84126984126985,41.058201058201064 110.26455026455027,40.423280423280424 110.47619047619048,39.78835978835979 110.6878306878307,39.15343915343916 110.89947089947091,38.51851851851852 111.11111111111111,37.883597883597886 111.32275132275133,37.248677248677254 111.32275132275133,36.613756613756614 111.11111111111111,35.97883597883598 111.11111111111111,35.34391534391535 111.11111111111111,34.70899470899471 111.11111111111111,34.074074074074076 110.89947089947091,33.43915343915344 110.89947089947091,32.804232804232804 110.6878306878307,32.16931216931217 110.6878306878307,31.53439153439154 110.47619047619048,30.899470899470902 110.26455026455027,30.264550264550266 110.05291005291006,29.629629629629633 109.84126984126985,28.994708994708997 109.62962962962963,28.35978835978836 109.41798941798943,27.724867724867728 109.20634920634922,27.089947089947092 108.78306878306879,26.455026455026456 108.57142857142858,25.820105820105823 108.14814814814815,25.185185185185187 107.72486772486774,24.761904761904763 107.51322751322752,24.12698412698413 107.0899470899471,23.492063492063494 106.66666666666667,23.06878306878307 106.24338624338625,22.433862433862437 105.82010582010582,21.7989417989418 105.3968253968254,21.164021164021165 104.97354497354497,20.529100529100532 104.55026455026456,19.894179894179896 104.33862433862434,19.25925925925926 103.91534391534393,18.83597883597884 103.70370370370371,18.201058201058203 103.28042328042329,17.566137566137566 103.06878306878308,16.931216931216934 102.85714285714286,16.296296296296298 102.64550264550266,15.661375661375663 102.43386243386244,15.026455026455027 102.22222222222223,14.391534391534393 102.01058201058201,13.756613756613758 102.01058201058201,13.121693121693122 102.01058201058201,12.486772486772487 102.22222222222223,11.851851851851853 102.43386243386244,11.216931216931219 102.64550264550266,10.582010582010582 103.06878306878308,9.947089947089948 103.4920634920635,9.523809523809524 103.91534391534393,8.88888888888889 104.55026455026456,8.465608465608467 105.18518518518519,8.042328042328043 105.82010582010582,7.830687830687832 106.45502645502647,7.407407407407408 107.0899470899471,7.195767195767196 107.72486772486774,7.195767195767196 108.35978835978837,6.984126984126985 108.994708994709,7.195767195767196 109.62962962962963,7.195767195767196 110.26455026455027,7.195767195767196 110.89947089947091,7.195767195767196 111.53439153439155,7.195767195767196 112.16931216931218,7.195767195767196 112.80423280423281,7.407407407407408 113.43915343915344,7.407407407407408 114.07407407407408,7.6190476190476195 114.70899470899472,7.6190476190476195 115.34391534391536,7.6190476190476195 115.97883597883599,7.830687830687832 116.61375661375662,7.830687830687832 117.24867724867725,8.042328042328043 117.88359788359789,8.042328042328043 118.51851851851853,8.042328042328043 119.15343915343917,8.253968253968255 119.7883597883598,8.253968253968255 120.42328042328043,8.253968253968255 121.05820105820106,8.465608465608467 121.6931216931217,8.465608465608467 122.32804232804234,8.677248677248677 122.96296296296298,8.677248677248677 123.59788359788361,8.677248677248677 124.23280423280424,8.677248677248677 124.86772486772487,8.88888888888889 125.5026455026455,8.88888888888889 126.13756613756615,8.88888888888889 126.77248677248679,9.100529100529101 127.1957671957672,8.042328042328043 126.56084656084657,8.253968253968255 126.56084656084657,7.6190476190476195 127.1957671957672,8.042328042328043 127.61904761904763,8.465608465608467 128.04232804232805,8.88888888888889 128.67724867724868,8.88888888888889 129.31216931216932,8.88888888888889 129.94708994708995,9.100529100529101 130.58201058201058,9.100529100529101 131.21693121693121,9.100529100529101 131.85185185185185,9.100529100529101 132.4867724867725,9.100529100529101 133.12169312169314,9.100529100529101 133.75661375661377,8.88888888888889 134.3915343915344,8.88888888888889 137.7777777777778,8.88888888888889" style="fill:none; stroke:#cc0000; stroke-width:1.0"  /><polyline points="137.7777777777778,8.88888888888889 138.41269841269843,11.851851851851853 138.62433862433863,12.486772486772487 138.62433862433863,13.121693121693122 138.83597883597884,13.756613756613758 138.83597883597884,14.391534391534393 139.04761904761907,15.026455026455027 139.04761904761907,15.661375661375663 139.25925925925927,16.296296296296298 139.47089947089947,16.931216931216934 139.47089947089947,17.566137566137566 139.6825396825397,18.201058201058203 139.8941798941799,18.83597883597884 139.8941798941799,19.47089947089947 140.10582010582013,20.105820105820108 140.31746031746033,20.740740740740744 140.31746031746033,21.375661375661377 140.52910052910053,22.010582010582013 140.74074074074076,22.645502645502646 140.74074074074076,23.280423280423282 140.95238095238096,23.915343915343918 141.16402116402116,24.55026455026455 141.16402116402116,25.185185185185187 141.3756613756614,25.820105820105823 141.5873015873016,26.455026455026456 141.5873015873016,27.089947089947092 141.7989417989418,27.724867724867728 142.01058201058203,28.35978835978836 142.22222222222223,28.994708994708997 142.22222222222223,29.629629629629633 142.43386243386246,30.264550264550266 142.64550264550266,30.899470899470902 142.64550264550266,31.53439153439154 142.85714285714286,32.16931216931217 143.0687830687831,32.804232804232804 143.2804232804233,33.43915343915344 143.2804232804233,34.074074074074076 143.4920634920635,34.70899470899471 143.70370370370372,35.34391534391535 143.91534391534393,35.97883597883598 144.33862433862436,36.613756613756614 144.33862433862436,37.248677248677254 144.55026455026456,37.883597883597886 144.76190476190476,38.51851851851852 144.973544973545,39.15343915343916 145.1851851851852,39.78835978835979 145.1851851851852,40.423280423280424 145.39682539682542,41.058201058201064 145.60846560846562,41.6931216931217 145.82010582010582,42.32804232804233 146.03174603174605,42.96296296296297 146.03174603174605,43.5978835978836 146.24338624338625,44.232804232804234 146.45502645502646,44.867724867724874 146.66666666666669,45.50264550264551 146.8783068783069,46.13756613756614 147.0899470899471,46.77248677248678 147.30158730158732,47.40740740740741 147.51322751322752,48.042328042328045 147.51322751322752,48.677248677248684 147.72486772486775,49.31216931216932 147.93650793650795,49.94708994708995 148.14814814814815,50.58201058201058 148.35978835978838,51.21693121693122 148.35978835978838,51.851851851851855 148.57142857142858,52.48677248677249 148.78306878306879,53.12169312169313 148.99470899470901,53.75661375661376 149.20634920634922,54.39153439153439 149.20634920634922,55.02645502645503 149.41798941798942,55.661375661375665 149.62962962962965,56.2962962962963 149.62962962962965,56.93121693121694 149.84126984126985,57.56613756613757 149.84126984126985,58.2010582010582 149.84126984126985,58.83597883597884 149.84126984126985,59.470899470899475 149.84126984126985,60.10582010582011 149.62962962962965,60.74074074074075 149.41798941798942,61.37566137566138 149.20634920634922,62.01058201058201 148.78306878306879,62.64550264550265 148.35978835978838,63.280423280423285 147.72486772486775,63.70370370370371 147.0899470899471,64.12698412698413 146.45502645502646,64.33862433862434 145.82010582010582,64.55026455026456 145.1851851851852,64.76190476190477 144.55026455026456,64.97354497354497 143.91534391534393,64.97354497354497 143.2804232804233,65.18518518518519 142.64550264550266,65.18518518518519 142.01058201058203,65.18518518518519 141.3756613756614,65.18518518518519 140.74074074074076,64.97354497354497 140.10582010582013,64.97354497354497 139.47089947089947,64.97354497354497 138.83597883597884,64.76190476190477 138.2010582010582,64.76190476190477 137.56613756613757,64.55026455026456 136.93121693121694,64.55026455026456 136.2962962962963,64.33862433862434 135.66137566137567,64.33862433862434 135.02645502645504,64.12698412698413 134.3915343915344,64.12698412698413 133.75661375661377,63.91534391534392 133.12169312169314,64.12698412698413 132.4867724867725,63.91534391534392 131.85185185185185,63.91534391534392 131.21693121693121,63.91534391534392 130.58201058201058,63.70370370370371 129.94708994708995,63.70370370370371 129.31216931216932,63.70370370370371 128.67724867724868,63.70370370370371 128.04232804232805,63.91534391534392 127.40740740740742,63.91534391534392 126.77248677248679,64.12698412698413 126.13756613756615,64.12698412698413 125.5026455026455,64.55026455026456 124.86772486772487,64.76190476190477 124.44444444444446,65.18518518518519 123.80952380952382,65.60846560846561 123.3862433862434,66.03174603174604 122.96296296296298,66.45502645502646 122.53968253968254,66.87830687830689 122.32804232804234,67.51322751322752 121.90476190476191,67.93650793650794 121.6931216931217,68.57142857142858 121.4814814814815,69.20634920634922 121.26984126984128,69.84126984126985 121.05820105820106,70.47619047619048 120.84656084656086,71.11111111111111 121.05820105820106,71.74603174603175 120.84656084656086,72.38095238095238 120.63492063492065,73.01587301587303 120.42328042328043,73.65079365079366 120.42328042328043,74.28571428571429 120.21164021164022,74.92063492063492 120.21164021164022,75.55555555555556 120.00000000000001,76.19047619047619 120.00000000000001,76.82539682539684 119.7883597883598,77.46031746031747 119.7883597883598,78.0952380952381 119.7883597883598,78.73015873015873 119.57671957671958,79.36507936507937 119.57671957671958,80.0 119.57671957671958,80.63492063492065 119.57671957671958,81.26984126984128 119.57671957671958,81.90476190476191 119.57671957671958,82.53968253968254 119.57671957671958,83.17460317460318 119.7883597883598,83.80952380952381 119.7883597883598,84.44444444444446 119.7883597883598,85.07936507936509 119.7883597883598,85.71428571428572 120.00000000000001,86.34920634920636 120.21164021164022,86.98412698412699 120.21164021164022,87.61904761904762 120.42328042328043,88.25396825396827 120.42328042328043,88.8888888888889 120.63492063492065,89.52380952380953 120.63492063492065,90.15873015873017 120.84656084656086,90.7936507936508 121.05820105820106,91.42857142857143 121.4814814814815,92.06349206349208 121.6931216931217,92.69841269841271 122.11640211640213,93.33333333333334 122.53968253968254,93.96825396825398 122.96296296296298,94.39153439153439 123.3862433862434,94.81481481481482 123.80952380952382,95.23809523809524 124.44444444444446,95.66137566137567 125.07936507936509,96.08465608465609 125.71428571428572,96.2962962962963 126.34920634920636,96.50793650793652 126.98412698412699,96.50793650793652 127.61904761904763,96.71957671957672 128.25396825396825,96.71957671957672 128.88888888888889,96.71957671957672 129.52380952380955,96.71957671957672 130.15873015873018,96.50793650793652 130.7936507936508,96.50793650793652 131.42857142857144,96.50793650793652 132.06349206349208,96.2962962962963 132.6984126984127,96.08465608465609 133.33333333333334,96.08465608465609 133.75661375661377,95.66137566137567 134.3915343915344,95.44973544973546 135.02645502645504,95.23809523809524 135.66137566137567,95.02645502645504 136.2962962962963,94.81481481481482 136.93121693121694,94.81481481481482 137.56613756613757,94.60317460317461 138.2010582010582,94.60317460317461 138.83597883597884,94.60317460317461 139.47089947089947,94.60317460317461 140.10582010582013,94.60317460317461 140.74074074074076,94.60317460317461 141.3756613756614,94.60317460317461 142.01058201058203,94.60317460317461 142.64550264550266,94.60317460317461 143.2804232804233,94.81481481481482 143.91534391534393,94.81481481481482 144.55026455026456,94.81481481481482 145.1851851851852,94.81481481481482 145.82010582010582,94.81481481481482 146.45502645502646,95.02645502645504 147.0899470899471,95.02645502645504 147.72486772486775,95.02645502645504 148.35978835978838,95.02645502645504 148.99470899470901,95.23809523809524 149.62962962962965,95.44973544973546 150.26455026455028,95.44973544973546 150.6878306878307,95.87301587301587 151.32275132275134,96.08465608465609 151.95767195767198,96.2962962962963 152.5925925925926,96.71957671957672 153.22751322751324,97.14285714285715 153.86243386243387,97.56613756613757 154.2857142857143,98.2010582010582 154.7089947089947,98.62433862433863 154.92063492063494,99.25925925925927 155.13227513227514,99.8941798941799 155.34391534391534,100.52910052910053 155.34391534391534,101.16402116402116 155.34391534391534,101.79894179894181 155.34391534391534,102.43386243386244 155.13227513227514,103.06878306878308 155.13227513227514,103.70370370370371 154.92063492063494,104.33862433862434 154.7089947089947,104.97354497354497 154.4973544973545,105.60846560846562 154.2857142857143,106.24338624338625 154.07407407407408,106.87830687830689 153.86243386243387,107.51322751322752 153.43915343915344,108.14814814814815 153.22751322751324,108.78306878306879 152.8042328042328,109.41798941798943 152.38095238095238,110.05291005291006 151.95767195767198,110.6878306878307 151.74603174603175,111.32275132275133 151.32275132275134,111.95767195767196 150.8994708994709,112.5925925925926 150.6878306878307,113.22751322751324 150.26455026455028,113.86243386243387 149.84126984126985,114.49735449735451 149.62962962962965,115.13227513227514 149.20634920634922,115.55555555555557 148.99470899470901,116.1904761904762 148.57142857142858,116.82539682539684 148.35978835978838,117.46031746031747 147.93650793650795,118.0952380952381 147.72486772486775,118.73015873015873 147.30158730158732,119.36507936507937 147.0899470899471,120.00000000000001 146.8783068783069,120.63492063492065 146.45502645502646,121.26984126984128 146.24338624338625,121.90476190476191 145.82010582010582,122.53968253968254 145.60846560846562,123.17460317460318 145.39682539682542,123.80952380952382 144.973544973545,124.44444444444446 144.76190476190476,125.07936507936509 144.55026455026456,125.71428571428572 144.33862433862436,126.34920634920636 144.12698412698413,126.98412698412699 143.91534391534393,127.61904761904763 143.4920634920635,128.25396825396825 143.2804232804233,128.88888888888889 143.0687830687831,129.52380952380955 142.85714285714286,130.15873015873018 142.64550264550266,130.7936507936508 142.43386243386246,131.42857142857144 142.22222222222223,132.06349206349208 142.01058201058203,132.6984126984127 141.7989417989418,133.33333333333334 141.5873015873016,133.96825396825398 141.3756613756614,134.6031746031746 141.16402116402116,135.23809523809524 140.95238095238096,135.87301587301587 140.74074074074076,136.5079365079365 140.52910052910053,137.14285714285717 140.31746031746033,137.7777777777778 140.31746031746033,138.41269841269843 140.10582010582013,139.04761904761907 139.8941798941799,139.6825396825397 139.6825396825397,140.31746031746033 139.6825396825397,140.95238095238096 139.6825396825397,141.5873015873016 139.47089947089947,142.22222222222223 139.47089947089947,142.85714285714286 139.25925925925927,143.4920634920635 139.04761904761907,144.12698412698413 139.04761904761907,144.76190476190476 138.83597883597884,145.39682539682542 138.83597883597884,146.03174603174605 138.83597883597884,146.66666666666669 138.62433862433863,147.30158730158732 137.989417989418,150.26455026455028" style="fill:none; stroke:#999900; stroke-width:1.0"  /><polyline points="137.989417989418,150.26455026455028 134.81481481481484,151.11111111111111 134.17989417989418,151.11111111111111 133.75661375661377,151.53439153439155 133.12169312169314,151.53439153439155 132.4867724867725,151.74603174603175 131.85185185185185,151.74603174603175 131.21693121693121,151.95767195767198 130.58201058201058,151.95767195767198 129.94708994708995,152.16931216931218 129.31216931216932,152.38095238095238 128.67724867724868,152.5925925925926 128.04232804232805,152.8042328042328 127.40740740740742,152.8042328042328 126.77248677248679,153.01587301587304 126.13756613756615,153.22751322751324 125.5026455026455,153.22751322751324 124.86772486772487,153.43915343915344 124.23280423280424,153.65079365079367 123.59788359788361,153.86243386243387 122.96296296296298,154.07407407407408 122.32804232804234,154.07407407407408 121.6931216931217,154.2857142857143 121.05820105820106,154.4973544973545 120.42328042328043,154.7089947089947 119.7883597883598,154.7089947089947 119.15343915343917,154.92063492063494 118.51851851851853,155.13227513227514 117.88359788359789,155.13227513227514 117.24867724867725,155.34391534391534 116.61375661375662,155.55555555555557 115.97883597883599,155.55555555555557 115.34391534391536,155.76719576719577 114.70899470899472,155.978835978836 114.07407407407408,155.978835978836 113.43915343915344,155.978835978836 112.80423280423281,156.1904761904762 112.16931216931218,156.4021164021164 111.53439153439155,156.4021164021164 110.89947089947091,156.61375661375664 110.26455026455027,156.61375661375664 109.62962962962963,156.82539682539684 108.994708994709,156.82539682539684 108.35978835978837,157.03703703703704 107.72486772486774,157.03703703703704 107.0899470899471,157.03703703703704 106.45502645502647,157.24867724867727 105.82010582010582,157.24867724867727 105.18518518518519,157.24867724867727 104.55026455026456,157.24867724867727 103.91534391534393,157.46031746031747 103.28042328042329,157.46031746031747 102.64550264550266,157.46031746031747 102.01058201058201,157.46031746031747 101.37566137566138,157.46031746031747 100.74074074074075,157.67195767195767 100.10582010582011,157.67195767195767 99.47089947089948,157.67195767195767 98.83597883597885,157.8835978835979 98.2010582010582,157.8835978835979 97.56613756613757,157.8835978835979 96.93121693121694,157.8835978835979 96.2962962962963,157.8835978835979 95.66137566137567,157.8835978835979 95.02645502645504,158.0952380952381 94.39153439153439,158.0952380952381 93.75661375661376,158.0952380952381 93.12169312169313,158.30687830687833 92.4867724867725,158.30687830687833 91.85185185185186,158.30687830687833 91.21693121693123,158.30687830687833 90.58201058201058,158.30687830687833 89.94708994708995,158.51851851851853 89.31216931216932,158.51851851851853 88.67724867724868,158.51851851851853 88.04232804232805,158.73015873015873 87.40740740740742,158.73015873015873 86.77248677248677,158.94179894179896 86.13756613756614,159.15343915343917 85.5026455026455,159.36507936507937 84.86772486772487,159.5767195767196 84.23280423280424,159.7883597883598 83.59788359788361,160.21164021164023 82.96296296296298,160.63492063492066 82.32804232804233,161.05820105820106 81.90476190476191,161.4814814814815 81.48148148148148,161.90476190476193 81.05820105820106,162.32804232804233 80.63492063492065,162.75132275132276 80.21164021164022,163.3862433862434 79.7883597883598,164.02116402116403 79.57671957671958,164.65608465608466 79.15343915343917,165.2910052910053 79.15343915343917,165.92592592592595 78.94179894179895,166.56084656084658 78.73015873015873,167.19576719576722 78.73015873015873,167.83068783068785 78.73015873015873,168.46560846560848 78.73015873015873,169.10052910052912 78.73015873015873,169.73544973544975 78.94179894179895,170.37037037037038 78.94179894179895,171.005291005291 79.15343915343917,171.64021164021165 79.36507936507937,172.27513227513228 79.57671957671958,172.9100529100529 79.7883597883598,173.54497354497354 80.0,174.1798941798942 80.21164021164022,174.81481481481484 80.42328042328043,175.44973544973547 80.63492063492065,176.0846560846561 80.84656084656085,176.71957671957674 81.05820105820106,177.35449735449737 81.26984126984128,177.989417989418 81.48148148148148,178.62433862433863 81.48148148148148,179.25925925925927 81.6931216931217,179.8941798941799 81.90476190476191,180.52910052910053 81.90476190476191,181.16402116402116 82.11640211640213,181.79894179894183 82.11640211640213,182.43386243386246 82.32804232804233,183.0687830687831 82.32804232804233,183.70370370370372 82.32804232804233,184.33862433862436 82.53968253968254,184.973544973545 82.53968253968254,185.60846560846562 82.75132275132276,186.24338624338625 82.75132275132276,186.8783068783069 82.75132275132276,187.51322751322752 82.96296296296298,188.14814814814815 82.96296296296298,188.78306878306879 82.96296296296298,189.41798941798945 82.96296296296298,190.05291005291008 82.75132275132276,190.6878306878307 82.75132275132276,191.32275132275134 82.53968253968254,191.95767195767198 82.32804232804233,192.5925925925926 82.11640211640213,193.22751322751324 81.6931216931217,193.86243386243387 81.26984126984128,194.4973544973545 80.84656084656085,195.13227513227514 80.42328042328043,195.55555555555557 80.0,195.978835978836 79.57671957671958,196.61375661375664 78.94179894179895,197.03703703703704 78.30687830687832,197.46031746031747 77.67195767195767,197.6719576719577 77.03703703703704,198.0952380952381 76.4021164021164,198.30687830687833 75.76719576719577,198.30687830687833 75.13227513227514,198.73015873015873 74.49735449735451,198.73015873015873 73.86243386243387,198.94179894179896 73.22751322751323,198.94179894179896 72.5925925925926,199.15343915343917 71.95767195767196,199.15343915343917 71.32275132275133,199.15343915343917 70.6878306878307,199.36507936507937 70.05291005291006,199.36507936507937 69.41798941798942,199.36507936507937 68.78306878306879,199.36507936507937 68.14814814814815,199.36507936507937 67.51322751322752,199.36507936507937 66.87830687830689,199.36507936507937 66.24338624338625,199.15343915343917 65.60846560846561,199.15343915343917 64.97354497354497,199.15343915343917 64.33862433862434,198.94179894179896 63.70370370370371,198.94179894179896 63.06878306878308,198.73015873015873 62.43386243386244,198.51851851851853 61.798941798941804,198.30687830687833 61.16402116402117,197.8835978835979 60.52910052910053,197.6719576719577 60.10582010582011,197.24867724867727 59.470899470899475,196.82539682539684 59.04761904761905,196.4021164021164 58.41269841269842,195.978835978836 57.989417989417994,195.34391534391537 57.56613756613757,194.92063492063494 57.142857142857146,194.4973544973545 56.71957671957672,193.86243386243387 56.2962962962963,193.22751322751324 56.08465608465609,192.5925925925926 55.661375661375665,191.95767195767198 55.449735449735456,191.32275132275134 55.23809523809524,190.6878306878307 55.02645502645503,190.05291005291008 54.81481481481482,189.41798941798945 54.60317460317461,188.78306878306879 54.60317460317461,188.14814814814815 54.39153439153439,187.51322751322752 54.39153439153439,186.8783068783069 54.179894179894184,186.24338624338625 54.179894179894184,185.60846560846562 54.179894179894184,184.973544973545 54.179894179894184,184.33862433862436 54.39153439153439,183.70370370370372 54.39153439153439,183.0687830687831 54.60317460317461,182.43386243386246 54.81481481481482,181.79894179894183 55.02645502645503,181.16402116402116 55.23809523809524,180.52910052910053 55.449735449735456,179.8941798941799 55.661375661375665,179.25925925925927 55.87301587301588,178.62433862433863 56.08465608465609,177.989417989418 56.2962962962963,177.35449735449737 56.50793650793651,176.71957671957674 56.50793650793651,176.0846560846561 56.71957671957672,175.44973544973547 56.93121693121694,174.81481481481484 57.142857142857146,174.1798941798942 57.35449735449736,173.54497354497354 57.56613756613757,172.9100529100529 57.777777777777786,172.27513227513228 57.989417989417994,171.64021164021165 58.2010582010582,171.005291005291 58.41269841269842,170.37037037037038 58.41269841269842,169.73544973544975 58.62433862433863,169.10052910052912 58.83597883597884,168.46560846560848 59.04761904761905,167.83068783068785 59.04761904761905,167.19576719576722 59.04761904761905,166.56084656084658 59.04761904761905,165.92592592592595 59.04761904761905,165.2910052910053 58.83597883597884,164.65608465608466 58.83597883597884,164.02116402116403 58.62433862433863,163.3862433862434 58.2010582010582,162.75132275132276 57.777777777777786,162.11640211640213 57.35449735449736,161.4814814814815 56.93121693121694,161.05820105820106 56.50793650793651,160.63492063492066 56.08465608465609,160.21164021164023 55.449735449735456,159.7883597883598 54.81481481481482,159.5767195767196 54.179894179894184,159.15343915343917 53.54497354497355,158.94179894179896 52.91005291005291,158.94179894179896 52.27513227513228,158.73015873015873 51.640211640211646,158.73015873015873 51.00529100529101,158.73015873015873 50.370370370370374,158.73015873015873 49.73544973544974,158.73015873015873 49.1005291005291,158.73015873015873 48.46560846560847,158.73015873015873 47.830687830687836,158.73015873015873 47.195767195767196,158.73015873015873 46.560846560846564,158.73015873015873 45.92592592592593,158.73015873015873 45.29100529100529,158.73015873015873 44.65608465608466,158.73015873015873 44.021164021164026,158.94179894179896 43.386243386243386,158.94179894179896 42.75132275132275,158.94179894179896 39.57671957671958,158.94179894179896" style="fill:none; stroke:#00aa99; stroke-width:1.0"  /><polyline points="39.57671957671958,158.94179894179896 40.423280423280424,155.55555555555557 40.423280423280424,154.92063492063494 40.63492063492064,154.2857142857143 40.63492063492064,153.65079365079367 40.84656084656085,153.01587301587304 41.058201058201064,152.38095238095238 41.26984126984127,151.74603174603175 41.48148148148149,151.11111111111111 41.6931216931217,150.47619047619048 41.6931216931217,149.84126984126985 41.904761904761905,149.20634920634922 42.11640211640212,148.57142857142858 42.32804232804233,147.93650793650795 42.32804232804233,147.30158730158732 42.539682539682545,146.66666666666669 42.539682539682545,146.03174603174605 42.75132275132275,145.39682539682542 42.96296296296297,144.76190476190476 42.96296296296297,144.12698412698413 43.17460317460318,143.4920634920635 43.17460317460318,142.85714285714286 43.386243386243386,142.22222222222223 43.5978835978836,141.5873015873016 43.386243386243386,140.95238095238096 43.5978835978836,140.31746031746033 43.5978835978836,139.6825396825397 43.80952380952381,139.04761904761907 43.80952380952381,138.41269841269843 44.021164021164026,137.7777777777778 44.021164021164026,137.14285714285717 44.232804232804234,136.5079365079365 44.44444444444445,135.87301587301587 44.44444444444445,135.23809523809524 44.65608465608466,134.6031746031746 44.65608465608466,133.96825396825398 44.867724867724874,133.33333333333334 44.867724867724874,132.6984126984127 45.07936507936508,132.06349206349208 45.07936507936508,131.42857142857144 45.29100529100529,130.7936507936508 45.29100529100529,130.15873015873018 45.29100529100529,129.52380952380955 45.50264550264551,128.88888888888889 45.50264550264551,128.25396825396825 45.50264550264551,127.61904761904763 45.714285714285715,126.98412698412699 45.714285714285715,126.34920634920636 45.92592592592593,125.71428571428572 45.92592592592593,125.07936507936509 45.92592592592593,124.44444444444446 45.92592592592593,123.80952380952382 46.13756613756614,123.17460317460318 46.13756613756614,122.53968253968254 46.13756613756614,121.90476190476191 46.13756613756614,121.26984126984128 46.349206349206355,120.63492063492065 46.349206349206355,120.00000000000001 46.560846560846564,119.36507936507937 46.560846560846564,118.73015873015873 46.560846560846564,118.0952380952381 46.560846560846564,117.46031746031747 46.560846560846564,116.82539682539684 46.77248677248678,116.1904761904762 46.77248677248678,115.55555555555557 46.77248677248678,114.92063492063492 46.98412698412699,114.28571428571429 46.98412698412699,113.65079365079366 46.98412698412699,113.01587301587303 46.98412698412699,112.3809523809524 47.195767195767196,111.74603174603176 47.195767195767196,111.11111111111111 47.195767195767196,110.47619047619048 47.195767195767196,109.84126984126985 47.195767195767196,109.20634920634922 47.195767195767196,108.57142857142858 47.40740740740741,107.93650793650795 47.40740740740741,107.3015873015873 47.40740740740741,106.66666666666667 47.195767195767196,106.03174603174604 47.195767195767196,105.3968253968254 47.195767195767196,104.76190476190477 47.195767195767196,104.12698412698414 47.195767195767196,103.4920634920635 47.195767195767196,102.85714285714286 47.195767195767196,102.22222222222223 47.40740740740741,101.5873015873016 47.40740740740741,100.95238095238096 47.40740740740741,100.31746031746033 47.40740740740741,99.68253968253968 47.40740740740741,99.04761904761905 47.40740740740741,98.41269841269842 47.40740740740741,97.77777777777779 47.61904761904762,97.14285714285715 47.61904761904762,96.50793650793652 47.61904761904762,95.87301587301587 47.61904761904762,95.23809523809524 47.61904761904762,94.60317460317461 47.61904761904762,93.96825396825398 47.61904761904762,93.33333333333334 47.61904761904762,92.69841269841271 47.40740740740741,92.06349206349208 47.40740740740741,91.42857142857143 47.195767195767196,90.7936507936508 47.195767195767196,90.15873015873017 46.98412698412699,89.52380952380953 46.77248677248678,88.8888888888889 46.560846560846564,88.25396825396827 46.13756613756614,87.83068783068784 45.714285714285715,87.1957671957672 45.29100529100529,86.56084656084657 44.867724867724874,86.13756613756614 44.232804232804234,85.71428571428572 43.80952380952381,85.29100529100529 43.17460317460318,85.07936507936509 42.539682539682545,84.86772486772487 41.904761904761905,84.44444444444446 41.26984126984127,84.23280423280424 40.63492063492064,84.23280423280424 40.0,84.23280423280424 39.36507936507937,84.02116402116403 38.730158730158735,84.02116402116403 38.095238095238095,84.02116402116403 37.46031746031746,84.02116402116403 36.82539682539683,84.02116402116403 36.19047619047619,84.02116402116403 35.55555555555556,84.23280423280424 34.920634920634924,84.23280423280424 34.28571428571429,84.44444444444446 33.65079365079365,84.65608465608466 33.01587301587302,84.65608465608466 32.38095238095239,85.07936507936509 31.746031746031747,85.29100529100529 31.111111111111114,85.29100529100529 30.476190476190478,85.71428571428572 29.841269841269842,85.92592592592594 29.20634920634921,86.13756613756614 28.571428571428573,86.34920634920636 27.93650793650794,86.77248677248677 27.301587301587304,86.98412698412699 26.666666666666668,87.1957671957672 26.031746031746035,87.40740740740742 25.3968253968254,87.61904761904762 24.761904761904763,87.83068783068784 24.12698412698413,88.04232804232805 23.492063492063494,88.25396825396827 22.857142857142858,88.46560846560847 22.222222222222225,88.67724867724868 21.58730158730159,88.8888888888889 20.952380952380953,89.1005291005291 20.31746031746032,89.31216931216932 19.682539682539684,89.31216931216932 19.047619047619047,89.52380952380953 18.412698412698415,89.73544973544975 17.77777777777778,89.73544973544975 17.142857142857146,89.73544973544975 16.50793650793651,89.94708994708995 15.873015873015873,89.94708994708995 15.238095238095239,89.94708994708995 14.603174603174605,89.94708994708995 13.96825396825397,89.94708994708995 13.333333333333334,89.94708994708995 12.6984126984127,89.73544973544975 12.063492063492065,89.73544973544975 11.428571428571429,89.52380952380953 10.793650793650794,89.1005291005291 10.15873015873016,88.8888888888889 9.735449735449736,88.46560846560847 9.100529100529101,88.04232804232805 8.677248677248677,87.61904761904762 8.042328042328043,87.1957671957672 7.6190476190476195,86.77248677248677 7.195767195767196,86.34920634920636 6.772486772486773,85.92592592592594 6.34920634920635,85.5026455026455 5.9259259259259265,85.07936507936509 5.502645502645503,84.65608465608466 5.07936507936508,84.23280423280424 4.656084656084657,83.59788359788361 4.2328042328042335,82.96296296296298 4.021164021164021,82.32804232804233 3.597883597883598,81.90476190476191 3.3862433862433865,81.26984126984128 2.9629629629629632,80.84656084656085 2.7513227513227516,80.21164021164022 2.53968253968254,79.57671957671958 2.1164021164021167,78.94179894179895 1.9047619047619049,78.30687830687832 1.6931216931216932,77.67195767195767 1.4814814814814816,77.03703703703704 1.26984126984127,76.4021164021164 1.0582010582010584,75.76719576719577 0.8465608465608466,75.13227513227514 0.8465608465608466,74.49735449735451 0.634920634920635,73.86243386243387 0.4232804232804233,73.22751322751323 0.4232804232804233,72.5925925925926 0.4232804232804233,71.95767195767196 0.21164021164021166,71.32275132275133 0.21164021164021166,70.6878306878307 0.21164021164021166,70.05291005291006 0.4232804232804233,69.41798941798942 0.4232804232804233,68.78306878306879 0.4232804232804233,68.14814814814815 0.634920634920635,67.51322751322752 0.8465608465608466,66.87830687830689 1.0582010582010584,66.24338624338625 1.26984126984127,65.60846560846561 1.4814814814814816,64.97354497354497 1.6931216931216932,64.33862433862434 1.9047619047619049,63.70370370370371 2.3280423280423284,63.06878306878308 2.53968253968254,62.43386243386244 2.9629629629629632,61.798941798941804 3.3862433862433865,61.16402116402117 3.597883597883598,60.52910052910053 4.021164021164021,60.10582010582011 4.444444444444445,59.470899470899475 4.867724867724868,58.83597883597884 5.291005291005291,58.41269841269842 5.714285714285714,57.777777777777786 6.137566137566138,57.35449735449736 6.560846560846561,56.93121693121694 6.984126984126985,56.50793650793651 7.407407407407408,56.08465608465609 8.042328042328043,55.661375661375665 8.465608465608467,55.23809523809524 9.100529100529101,54.81481481481482 9.735449735449736,54.39153439153439 10.370370370370372,54.179894179894184 11.005291005291006,53.75661375661376 11.640211640211641,53.54497354497355 12.275132275132275,53.12169312169313 12.910052910052912,53.12169312169313 13.544973544973546,52.91005291005291 13.96825396825397,52.48677248677249 14.603174603174605,52.27513227513228 15.238095238095239,52.27513227513228 15.661375661375663,52.6984126984127 16.296296296296298,52.6984126984127 16.931216931216934,52.6984126984127 17.354497354497354,52.27513227513228 17.98941798941799,52.48677248677249 18.624338624338627,52.48677248677249 19.25925925925926,52.48677248677249 19.682539682539684,52.91005291005291 20.31746031746032,52.91005291005291 20.952380952380953,53.12169312169313 21.58730158730159,53.333333333333336 22.222222222222225,53.333333333333336 22.857142857142858,53.54497354497355 23.492063492063494,53.75661375661376 24.12698412698413,53.968253968253975 24.761904761904763,54.39153439153439 25.3968253968254,54.60317460317461 26.031746031746035,54.81481481481482 26.666666666666668,55.23809523809524 27.301587301587304,55.449735449735456 27.93650793650794,55.87301587301588 28.571428571428573,56.08465608465609 29.20634920634921,56.2962962962963 29.841269841269842,56.50793650793651 30.476190476190478,56.93121693121694 31.111111111111114,57.35449735449736 31.746031746031747,57.56613756613757 32.16931216931217,57.989417989417994 32.804232804232804,58.2010582010582 33.22751322751323,58.62433862433863 33.86243386243387,58.83597883597884 34.28571428571429,59.25925925925927 34.920634920634924,59.470899470899475 35.55555555555556,59.8941798941799 36.19047619047619,60.31746031746032 36.82539682539683,60.52910052910053 37.46031746031746,60.952380952380956 38.095238095238095,61.16402116402117 38.730158730158735,61.37566137566138 39.36507936507937,61.58730158730159 40.0,61.798941798941804 40.63492063492064,61.798941798941804 41.26984126984127,61.798941798941804 41.904761904761905,62.01058201058201 42.539682539682545,62.01058201058201 43.17460317460318,61.798941798941804 43.80952380952381,61.798941798941804 44.44444444444445,61.58730158730159 45.07936507936508,61.37566137566138 45.50264550264551,60.952380952380956 46.13756613756614,60.52910052910053 46.560846560846564,60.10582010582011 46.98412698412699,59.682539682539684 47.40740740740741,59.04761904761905 47.830687830687836,58.41269841269842 48.25396825396826,57.777777777777786 48.25396825396826,57.142857142857146 48.677248677248684,56.50793650793651 48.677248677248684,55.87301587301588 48.677248677248684,55.23809523809524 48.677248677248684,54.60317460317461 48.677248677248684,53.968253968253975 48.677248677248684,53.333333333333336 48.677248677248684,52.6984126984127 48.46560846560847,52.06349206349207 48.46560846560847,51.42857142857143 48.25396825396826,50.7936507936508 48.25396825396826,50.158730158730165 48.042328042328045,49.523809523809526 47.830687830687836,48.88888888888889 47.830687830687836,48.25396825396826 47.61904761904762,47.61904761904762 47.40740740740741,46.98412698412699 47.40740740740741,46.349206349206355 47.195767195767196,45.714285714285715 47.195767195767196,45.07936507936508 46.98412698412699,44.44444444444445 46.98412698412699,43.80952380952381 46.77248677248678,43.17460317460318 46.77248677248678,42.539682539682545 46.560846560846564,41.904761904761905 46.349206349206355,41.26984126984127 46.349206349206355,40.63492063492064 46.13756613756614,40.0 46.13756613756614,39.36507936507937 45.92592592592593,38.730158730158735 45.92592592592593,38.095238095238095 45.714285714285715,37.46031746031746 45.714285714285715,36.82539682539683 45.50264550264551,36.19047619047619 45.07936507936508,35.55555555555556 45.07936507936508,34.920634920634924 45.07936507936508,34.28571428571429 44.867724867724874,33.65079365079365 44.867724867724874,33.01587301587302 44.65608465608466,32.38095238095239 44.65608465608466,31.746031746031747 44.44444444444445,31.111111111111114 44.44444444444445,30.476190476190478 44.44444444444445,29.841269841269842 44.232804232804234,29.20634920634921 44.232804232804234,28.571428571428573 44.021164021164026,27.93650793650794 44.021164021164026,27.301587301587304 44.021164021164026,26.666666666666668 43.80952380952381,26.031746031746035 43.80952380952381,25.3968253968254 43.5978835978836,24.761904761904763 43.5978835978836,24.12698412698413 43.5978835978836,23.492063492063494 43.386243386243386,22.857142857142858 43.386243386243386,22.222222222222225 43.386243386243386,21.58730158730159 43.17460317460318,20.952380952380953 43.17460317460318,20.31746031746032 43.17460317460318,19.682539682539684 43.17460317460318,19.047619047619047 42.96296296296297,18.412698412698415 42.96296296296297,17.77777777777778 42.96296296296297,17.142857142857146 42.96296296296297,16.50793650793651 42.75132275132275,15.873015873015873 42.75132275132275,15.238095238095239 42.75132275132275,14.603174603174605 42.75132275132275,13.96825396825397 42.75132275132275,13.333333333333334 42.75132275132275,12.6984126984127 42.539682539682545,12.063492063492065 42.539682539682545,11.428571428571429 42.539682539682545,10.793650793650794 42.539682539682545,10.15873015873016 42.32804232804233,9.523809523809524 42.11640211640212,5.714285714285714" style="fill:none; stroke:#3300bb; stroke-width:1.0"  /><circle cx="42.11640211640212" cy="5.714285714285714" r="2.0" style="fill:none; stroke:#000000aa; stroke-width:0.25" /><circle cx="137.7777777777778" cy="8.88888888888889" r="2.0" style="fill:none; stroke:#000000aa; stroke-width:0.25" /><circle cx="137.989417989418" cy="150.26455026455028" r="2.0" style="fill:none; stroke:#000000aa; stroke-width:0.25" /><circle cx="39.57671957671958" cy="158.94179894179896" r="2.0" style="fill:none; stroke:#000000aa; stroke-width:0.25" /><circle cx="42.32804232804233" cy="6.137566137566138" r="2.0" style="fill:none; stroke:#ff3366aa; stroke-width:0.25" /><circle cx="137.56613756613757" cy="8.88888888888889" r="2.0" style="fill:none; stroke:#ff3366aa; stroke-width:0.25" /><circle cx="137.989417989418" cy="150.47619047619048" r="2.0" style="fill:none; stroke:#ff3366aa; stroke-width:0.25" /><circle cx="39.78835978835979" cy="158.73015873015873" r="2.0" style="fill:none; stroke:#ff3366aa; stroke-width:0.25" /><polyline points="53.54497354497355,3.597883597883598 52.91005291005291,3.597883597883598 52.27513227513228,3.8095238095238098 51.640211640211646,4.021164021164021 51.00529100529101,4.2328042328042335 50.370370370370374,4.2328042328042335 49.73544973544974,4.444444444444445 49.1005291005291,4.444444444444445 48.46560846560847,4.656084656084657 47.830687830687836,4.656084656084657 47.195767195767196,4.867724867724868 46.560846560846564,5.07936507936508 45.92592592592593,5.07936507936508 45.29100529100529,5.07936507936508" style="fill:none; stroke:#001100; stroke-width:1.0" /><polyline points="42.96296296296297,17.77777777777778 42.96296296296297,17.142857142857146 42.96296296296297,16.50793650793651 42.75132275132275,15.873015873015873 42.75132275132275,15.238095238095239 42.75132275132275,14.603174603174605 42.75132275132275,13.96825396825397 42.75132275132275,13.333333333333334 42.75132275132275,12.6984126984127 42.539682539682545,12.063492063492065 42.539682539682545,11.428571428571429 42.539682539682545,10.793650793650794 42.539682539682545,10.15873015873016 42.32804232804233,9.523809523809524" style="fill:none; stroke:#000011; stroke-width:1.0" /><polyline points="140.10582010582013,20.105820105820108 139.8941798941799,19.47089947089947 139.8941798941799,18.83597883597884 139.6825396825397,18.201058201058203 139.47089947089947,17.566137566137566 139.47089947089947,16.931216931216934 139.25925925925927,16.296296296296298 139.04761904761907,15.661375661375663 139.04761904761907,15.026455026455027 138.83597883597884,14.391534391534393 138.83597883597884,13.756613756613758 138.62433862433863,13.121693121693122 138.62433862433863,12.486772486772487 138.41269841269843,11.851851851851853" style="fill:none; stroke:#001100; stroke-width:1.0" /><polyline points="125.5026455026455,8.88888888888889 126.13756613756615,8.88888888888889 126.77248677248679,9.100529100529101 127.1957671957672,8.042328042328043 126.56084656084657,8.253968253968255 126.56084656084657,7.6190476190476195 127.1957671957672,8.042328042328043 127.61904761904763,8.465608465608467 128.04232804232805,8.88888888888889 128.67724867724868,8.88888888888889 129.31216931216932,8.88888888888889 129.94708994708995,9.100529100529101 130.58201058201058,9.100529100529101 131.21693121693121,9.100529100529101 131.85185185185185,9.100529100529101 132.4867724867725,9.100529100529101 133.12169312169314,9.100529100529101 133.75661375661377,8.88888888888889 134.3915343915344,8.88888888888889" style="fill:none; stroke:#000011; stroke-width:1.0" /><polyline points="126.77248677248679,153.01587301587304 127.40740740740742,152.8042328042328 128.04232804232805,152.8042328042328 128.67724867724868,152.5925925925926 129.31216931216932,152.38095238095238 129.94708994708995,152.16931216931218 130.58201058201058,151.95767195767198 131.21693121693121,151.95767195767198 131.85185185185185,151.74603174603175 132.4867724867725,151.74603174603175 133.12169312169314,151.53439153439155 133.75661375661377,151.53439153439155 134.17989417989418,151.11111111111111 134.81481481481484,151.11111111111111" style="fill:none; stroke:#001100; stroke-width:1.0" /><polyline points="140.10582010582013,139.04761904761907 139.8941798941799,139.6825396825397 139.6825396825397,140.31746031746033 139.6825396825397,140.95238095238096 139.6825396825397,141.5873015873016 139.47089947089947,142.22222222222223 139.47089947089947,142.85714285714286 139.25925925925927,143.4920634920635 139.04761904761907,144.12698412698413 139.04761904761907,144.76190476190476 138.83597883597884,145.39682539682542 138.83597883597884,146.03174603174605 138.83597883597884,146.66666666666669 138.62433862433863,147.30158730158732" style="fill:none; stroke:#000011; stroke-width:1.0" /><polyline points="42.32804232804233,147.30158730158732 42.32804232804233,147.93650793650795 42.11640211640212,148.57142857142858 41.904761904761905,149.20634920634922 41.6931216931217,149.84126984126985 41.6931216931217,150.47619047619048 41.48148148148149,151.11111111111111 41.26984126984127,151.74603174603175 41.058201058201064,152.38095238095238 40.84656084656085,153.01587301587304 40.63492063492064,153.65079365079367 40.63492063492064,154.2857142857143 40.423280423280424,154.92063492063494 40.423280423280424,155.55555555555557" style="fill:none; stroke:#001100; stroke-width:1.0" /><polyline points="51.640211640211646,158.73015873015873 51.00529100529101,158.73015873015873 50.370370370370374,158.73015873015873 49.73544973544974,158.73015873015873 49.1005291005291,158.73015873015873 48.46560846560847,158.73015873015873 47.830687830687836,158.73015873015873 47.195767195767196,158.73015873015873 46.560846560846564,158.73015873015873 45.92592592592593,158.73015873015873 45.29100529100529,158.73015873015873 44.65608465608466,158.73015873015873 44.021164021164026,158.94179894179896 43.386243386243386,158.94179894179896 42.75132275132275,158.94179894179896" style="fill:none; stroke:#000011; stroke-width:1.0" /><polyline points="45.29100529100529,5.07936507936508 24.55026455026455,8.88888888888889" style="fill:none; stroke:#ffaa00; stroke-width:0.4" /><polyline points="42.32804232804233,9.523809523809524 40.63492063492064,-11.640211640211641" style="fill:none; stroke:#aaff00; stroke-width:0.4" /><polyline points="138.41269841269843,11.851851851851853 134.17989417989418,-8.88888888888889" style="fill:none; stroke:#ffaa00; stroke-width:0.4" /><polyline points="134.3915343915344,8.88888888888889 155.55555555555557,8.88888888888889" style="fill:none; stroke:#aaff00; stroke-width:0.4" /><polyline points="134.81481481481484,151.11111111111111 155.34391534391534,146.24338624338625" style="fill:none; stroke:#ffaa00; stroke-width:0.4" /><polyline points="138.62433862433863,147.30158730158732 134.81481481481484,168.04232804232805" style="fill:none; stroke:#aaff00; stroke-width:0.4" /><polyline points="40.423280423280424,155.55555555555557 35.76719576719577,176.0846560846561" style="fill:none; stroke:#ffaa00; stroke-width:0.4" /><polyline points="42.75132275132275,158.94179894179896 21.58730158730159,159.36507936507937" style="fill:none; stroke:#aaff00; stroke-width:0.4" /><circle cx="85.5026455026455" cy="94.17989417989419" r="1.0" style="fill:#444444; stroke-width:0" /><circle cx="88.8888888888889" cy="117.88359788359789" r="10.582010582010582" style="fill:#ff770022; stroke-width:0" /><circle cx="88.8888888888889" cy="117.88359788359789" r="1.0" style="fill:#ff7700; stroke-width:0" /></svg>