<?xml version="1.0" encoding="UTF-8" standalone="no"?><svg width="497.14285714285717" height="558.7301587301588" viewBox="-10 -10 185.71428571428572 206.24338624338625" xmlns="http://www.w3.org/2000/svg" xmlns:xlink="http://www.w3.org/1999/xlink"><polyline points="5.9259259259259265,36.19047619047619 8.88888888888889,36.19047619047619 9.523809523809524,36.19047619047619 10.15873015873016,36.402116402116405 10.793650793650794,36.402116402116405 11.428571428571429,36.402116402116405 12.063492063492065,36.402116402116405 12.6984126984127,36.402116402116405 13.333333333333334,36.402116402116405 13.96825396825397,36.402116402116405 14.603174603174605,36.402116402116405 15.238095238095239,36.402116402116405 15.873015873015873,36.402116402116405 16.50793650793651,36.402116402116405 17.142857142857146,36.402116402116405 17.77777777777778,36.402116402116405 18.412698412698415,36.402116402116405 19.047619047619047,36.402116402116405 19.682539682539684,36.19047619047619 20.31746031746032,36.402116402116405 20.952380952380953,36.402116402116405 21.58730158730159,36.402116402116405 22.222222222222225,36.402116402116405 22.857142857142858,36.402116402116405 23.492063492063494,36.402116402116405 24.12698412698413,36.402116402116405 24.761904761904763,36.402116402116405 25.3968253968254,36.402116402116405 26.031746031746035,36.402116402116405 26.666666666666668,36.402116402116405 27.301587301587304,36.402116402116405 27.93650793650794,36.402116402116405 28.571428571428573,36.402116402116405 29.20634920634921,36.402116402116405 29.841269841269842,36.402116402116405 30.476190476190478,36.613756613756614 31.111111111111114,36.613756613756614 31.746031746031747,36.613756613756614 32.38095238095239,36.613756613756614 33.01587301587302,36.613756613756614 33.65079365079365,36.613756613756614 34.28571428571429,36.613756613756614 34.920634920634924,36.613756613756614 35.55555555555556,36.613756613756614 36.19047619047619,36.613756613756614 36.82539682539683,36.613756613756614 37.46031746031746,36.613756613756614 38.095238095238095,36.402116402116405 38.730158730158735,36.402116402116405 39.36507936507937,36.402116402116405 40.0,36.402116402116405 40.63492063492064,36.402116402116405 41.26984126984127,36.19047619047619 41.904761904761905,36.19047619047619 42.539682539682545,36.19047619047619 43.17460317460318,36.19047619047619 43.80952380952381,35.97883597883598 44.44444444444445,35.97883597883598 45.07936507936508,35.97883597883598 45.714285714285715,35.97883597883598 46.349206349206355,35.97883597883598 46.98412698412699,35.76719576719577 47.61904761904762,35.55555555555556 48.25396825396826,35.76719576719577 48.88888888888889,35.55555555555556 49.523809523809526,35.55555555555556 50.158730158730165,35.55555555555556 50.7936507936508,35.34391534391535 51.42857142857143,35.34391534391535 52.06349206349207,35.34391534391535 52.6984126984127,35.13227513227513 53.333333333333336,35.13227513227513 53.968253968253975,35.13227513227513 54.60317460317461,34.920634920634924 55.23809523809524,34.920634920634924 55.87301587301588,34.70899470899471 56.50793650793651,34.70899470899471 57.142857142857146,34.4973544973545 57.777777777777786,34.28571428571429 58.41269841269842,34.074074074074076 59.04761904761905,33.86243386243387 59.682539682539684,33.65079365079365 60.31746031746032,33.22751322751323 60.952380952380956,32.804232804232804 61.58730158730159,32.38095238095239 62.01058201058201,31.95767195767196 62.43386243386244,31.322751322751326 62.85714285714286,30.68783068783069 63.06878306878308,30.052910052910054 63.280423280423285,29.41798941798942 63.492063492063494,28.783068783068785 63.492063492063494,28.14814814814815 63.492063492063494,27.513227513227516 63.492063492063494,26.87830687830688 63.280423280423285,26.243386243386244 63.06878306878308,25.60846560846561 63.06878306878308,24.973544973544975 62.85714285714286,24.338624338624342 62.64550264550265,23.703703703703706 62.43386243386244,23.06878306878307 62.22222222222223,22.433862433862437 62.22222222222223,21.7989417989418 62.01058201058201,21.164021164021165 61.798941798941804,20.529100529100532 61.58730158730159,19.894179894179896 61.37566137566138,19.25925925925926 61.16402116402117,18.624338624338627 60.952380952380956,17.98941798941799 60.74074074074075,17.354497354497354 60.52910052910053,16.71957671957672 60.31746031746032,16.084656084656086 60.10582010582011,15.449735449735451 60.10582010582011,14.814814814814817 59.8941798941799,14.17989417989418 59.682539682539684,13.544973544973546 59.470899470899475,12.910052910052912 59.470899470899475,12.275132275132275 59.25925925925927,11.640211640211641 59.25925925925927,11.005291005291006 59.25925925925927,10.370370370370372 59.25925925925927,9.735449735449736 59.25925925925927,9.100529100529101 59.470899470899475,8.465608465608467 59.682539682539684,7.830687830687832 59.682539682539684,7.195767195767196 59.8941798941799,6.560846560846561 59.8941798941799,5.9259259259259265 60.31746031746032,5.291005291005291 60.52910052910053,4.656084656084657 60.952380952380956,4.021164021164021 61.37566137566138,3.597883597883598 61.798941798941804,3.174603174603175 62.43386243386244,2.7513227513227516 63.06878306878308,2.3280423280423284 63.70370370370371,2.1164021164021167 64.33862433862434,1.9047619047619049 64.97354497354497,1.4814814814814816 65.60846560846561,1.26984126984127 66.24338624338625,1.26984126984127 66.87830687830689,1.0582010582010584 67.51322751322752,0.8465608465608466 68.14814814814815,0.8465608465608466 68.78306878306879,0.634920634920635 69.41798941798942,0.634920634920635 70.05291005291006,0.4232804232804233 70.6878306878307,0.4232804232804233 71.32275132275133,0.4232804232804233 71.95767195767196,0.4232804232804233 72.5925925925926,0.4232804232804233 73.22751322751323,0.21164021164021166 73.86243386243387,0.21164021164021166 74.49735449735451,0.21164021164021166 75.13227513227514,0.21164021164021166 75.76719576719577,0.4232804232804233 76.4021164021164,0.4232804232804233 77.03703703703704,0.634920634920635 77.67195767195767,0.634920634920635 78.30687830687832,0.634920634920635 78.94179894179895,0.8465608465608466 79.57671957671958,1.0582010582010584 80.21164021164022,1.26984126984127 80.84656084656085,1.4814814814814816 81.48148148148148,1.6931216931216932 82.11640211640213,1.9047619047619049 82.75132275132276,2.1164021164021167 83.3862433862434,2.3280423280423284 84.02116402116403,2.53968253968254 84.65608465608466,2.7513227513227516 85.29100529100529,3.174603174603175 85.92592592592594,3.597883597883598 86.56084656084657,3.8095238095238098 86.98412698412699,4.2328042328042335 87.61904761904762,4.444444444444445 88.04232804232805,4.867724867724868 88.67724867724868,5.07936507936508 89.1005291005291,5.714285714285714 89.52380952380953,6.137566137566138 90.15873015873017,6.560846560846561 90.58201058201058,7.195767195767196 91.00529100529101,7.6190476190476195 91.42857142857143,8.042328042328043 91.85185185185186,8.465608465608467 92.27513227513228,8.88888888888889 92.69841269841271,9.523809523809524 92.91005291005291,10.15873015873016 93.12169312169313,10.793650793650794 93.33333333333334,11.428571428571429 93.54497354497356,12.063492063492065 93.54497354497356,12.6984126984127 93.54497354497356,13.333333333333334 93.54497354497356,13.96825396825397 93.33333333333334,14.603174603174605 93.33333333333334,15.238095238095239 93.12169312169313,15.873015873015873 93.12169312169313,16.50793650793651 92.91005291005291,17.142857142857146 92.69841269841271,17.77777777777778 92.4867724867725,18.412698412698415 92.27513227513228,19.047619047619047 91.85185185185186,19.682539682539684 91.64021164021165,20.31746031746032 91.21693121693123,20.952380952380953 91.00529100529101,21.58730158730159 90.58201058201058,22.222222222222225 90.15873015873017,22.857142857142858 89.73544973544975,23.492063492063494 89.31216931216932,24.12698412698413 88.8888888888889,24.761904761904763 88.46560846560847,25.3968253968254 88.04232804232805,26.031746031746035 88.04232804232805,26.666666666666668 87.83068783068784,27.301587301587304 87.61904761904762,27.93650793650794 87.40740740740742,28.571428571428573 87.40740740740742,29.20634920634921 87.1957671957672,29.841269841269842 87.1957671957672,30.476190476190478 87.1957671957672,31.111111111111114 87.40740740740742,31.746031746031747 87.40740740740742,32.38095238095239 87.83068783068784,33.01587301587302 88.04232804232805,33.65079365079365 88.25396825396827,34.28571428571429 88.67724867724868,34.920634920634924 89.1005291005291,35.55555555555556 89.31216931216932,36.19047619047619 89.73544973544975,36.613756613756614 90.15873015873017,37.248677248677254 90.58201058201058,37.883597883597886 91.00529100529101,38.51851851851852 91.42857142857143,39.15343915343916 91.85185185185186,39.57671957671958 92.27513227513228,40.0 92.69841269841271,40.63492063492064 93.12169312169313,41.058201058201064 93.54497354497356,41.48148148148149 93.96825396825398,41.904761904761905 94.39153439153439,42.32804232804233 95.02645502645504,42.75132275132275 95.44973544973546,43.17460317460318 95.87301587301587,43.5978835978836 96.50793650793652,44.021164021164026 96.93121693121694,44.44444444444445 97.56613756613757,44.867724867724874 98.2010582010582,45.29100529100529 98.83597883597885,45.714285714285715 99.47089947089948,46.13756613756614 100.10582010582011,46.349206349206355 100.74074074074075,46.77248677248678 101.37566137566138,46.98412698412699 101.79894179894181,47.40740740740741 102.43386243386244,47.61904761904762 103.06878306878308,47.830687830687836 103.70370370370371,48.042328042328045 104.33862433862434,48.46560846560847 104.97354497354497,48.46560846560847 105.60846560846562,48.677248677248684 106.24338624338625,48.88888888888889 106.87830687830689,48.88888888888889 107.51322751322752,49.31216931216932 108.14814814814815,49.31216931216932 108.78306878306879,49.523809523809526 109.41798941798943,49.523809523809526 110.05291005291006,49.73544973544974 110.6878306878307,49.94708994708995 111.32275132275133,49.94708994708995 111.95767195767196,50.158730158730165 112.5925925925926,50.158730158730165 113.22751322751324,50.370370370370374 113.86243386243387,50.370370370370374 114.49735449735451,50.7936507936508 115.13227513227514,50.7936507936508 115.76719576719577,50.7936507936508 116.4021164021164,51.00529100529101 117.03703703703705,51.21693121693122 117.67195767195768,51.21693121693122 118.30687830687832,51.21693121693122 118.94179894179895,51.42857142857143 119.57671957671958,51.640211640211646 120.21164021164022,51.640211640211646 120.84656084656086,51.640211640211646 121.4814814814815,51.851851851851855 122.11640211640213,51.851851851851855 122.75132275132276,52.06349206349207 123.3862433862434,52.06349206349207 124.02116402116403,52.27513227513228 124.65608465608466,52.27513227513228 125.2910052910053,52.27513227513228 125.92592592592594,52.48677248677249 126.56084656084657,52.48677248677249 127.1957671957672,52.48677248677249 127.83068783068784,52.27513227513228 128.46560846560848,52.27513227513228 129.10052910052912,52.27513227513228 129.73544973544975,52.48677248677249 130.37037037037038,52.48677248677249 131.005291005291,52.48677248677249 131.64021164021165,52.48677248677249 132.27513227513228,52.48677248677249 132.9100529100529,52.27513227513228 133.54497354497354,52.48677248677249 134.17989417989418,52.48677248677249 134.81481481481484,52.48677248677249 135.44973544973547,52.48677248677249 136.0846560846561,52.48677248677249 136.71957671957674,52.48677248677249 137.35449735449737,52.6984126984127 137.989417989418,52.6984126984127 138.62433862433863,52.6984126984127 139.25925925925927,52.6984126984127 139.8941798941799,52.48677248677249 140.52910052910053,52.48677248677249 141.16402116402116,52.48677248677249 141.7989417989418,52.48677248677249 142.43386243386246,52.48677248677249 143.0687830687831,52.06349206349207 143.70370370370372,52.27513227513228 144.33862433862436,52.06349206349207 144.973544973545,52.06349206349207 145.60846560846562,52.06349206349207 146.24338624338625,52.06349206349207 146.8783068783069,52.27513227513228 147.51322751322752,52.06349206349207 148.14814814814815,51.851851851851855 148.78306878306879,51.851851851851855 149.41798941798942,51.851851851851855 150.05291005291005,51.851851851851855 150.6878306878307,51.851851851851855 151.32275132275134,51.851851851851855 151.95767195767198,51.851851851851855 152.5925925925926,51.851851851851855 153.22751322751324,51.851851851851855 153.86243386243387,51.851851851851855 154.4973544973545,51.640211640211646 155.13227513227514,51.640211640211646 155.76719576719577,51.640211640211646 156.4021164021164,51.640211640211646 157.03703703703704,51.42857142857143 157.67195767195767,51.42857142857143 158.30687830687833,51.42857142857143 158.94179894179896,51.42857142857143 161.4814814814815,51.21693121693122" style="fill:none; stroke:#cc0000; stroke-width:1.0"  /><polyline points="161.4814814814815,51.21693121693122 161.2698412698413,54.81481481481482 161.05820105820106,55.449735449735456 160.84656084656086,56.08465608465609 160.84656084656086,56.71957671957672 160.63492063492066,57.35449735449736 160.63492063492066,57.989417989417994 160.63492063492066,58.62433862433863 160.63492063492066,59.25925925925927 160.42328042328043,59.8941798941799 160.42328042328043,60.52910052910053 160.63492063492066,61.16402116402117 160.63492063492066,61.798941798941804 160.63492063492066,62.43386243386244 160.63492063492066,63.06878306878308 160.63492063492066,63.70370370370371 160.63492063492066,64.33862433862434 160.84656084656086,64.97354497354497 160.84656084656086,65.60846560846561 160.84656084656086,66.24338624338625 161.05820105820106,66.87830687830689 161.2698412698413,67.51322751322752 161.2698412698413,68.14814814814815 161.4814814814815,68.78306878306879 161.4814814814815,69.41798941798942 161.6931216931217,70.05291005291006 161.6931216931217,70.6878306878307 161.90476190476193,71.32275132275133 161.90476190476193,71.95767195767196 162.11640211640213,72.5925925925926 162.32804232804233,73.22751322751323 162.53968253968256,73.86243386243387 162.75132275132276,74.49735449735451 162.75132275132276,75.13227513227514 163.1746031746032,75.76719576719577 163.3862433862434,76.4021164021164 163.59788359788362,77.03703703703704 163.80952380952382,77.67195767195767 163.80952380952382,78.30687830687832 164.02116402116403,78.94179894179895 164.23280423280426,79.57671957671958 164.44444444444446,80.21164021164022 164.65608465608466,80.84656084656085 164.65608465608466,81.48148148148148 164.8677248677249,82.11640211640213 165.0793650793651,82.75132275132276 165.0793650793651,83.3862433862434 165.2910052910053,84.02116402116403 165.2910052910053,84.65608465608466 165.2910052910053,85.29100529100529 165.2910052910053,85.92592592592594 165.2910052910053,86.56084656084657 165.2910052910053,87.1957671957672 165.2910052910053,87.83068783068784 165.2910052910053,88.46560846560847 165.2910052910053,89.1005291005291 165.0793650793651,89.73544973544975 165.0793650793651,90.37037037037038 164.8677248677249,91.00529100529101 164.65608465608466,91.64021164021165 164.65608465608466,92.27513227513228 164.44444444444446,92.91005291005291 164.23280423280426,93.54497354497356 163.80952380952382,94.17989417989419 163.59788359788362,94.81481481481482 163.3862433862434,95.44973544973546 163.1746031746032,96.08465608465609 162.96296296296296,96.71957671957672 162.53968253968256,97.14285714285715 162.11640211640213,97.77777777777779 161.6931216931217,98.41269841269842 161.2698412698413,98.83597883597885 160.63492063492066,99.04761904761905 160.21164021164023,99.47089947089948 159.5767195767196,99.68253968253968 158.94179894179896,99.8941798941799 158.30687830687833,100.10582010582011 157.67195767195767,100.10582010582011 157.03703703703704,100.10582010582011 156.4021164021164,100.10582010582011 155.76719576719577,100.10582010582011 155.13227513227514,100.10582010582011 154.4973544973545,99.68253968253968 153.86243386243387,99.68253968253968 153.22751322751324,99.47089947089948 152.5925925925926,99.04761904761905 151.95767195767198,98.83597883597885 151.53439153439155,98.41269841269842 151.11111111111111,97.989417989418 150.6878306878307,97.56613756613757 150.26455026455028,97.14285714285715 149.84126984126985,96.71957671957672 149.41798941798942,96.2962962962963 148.99470899470901,95.87301587301587 148.35978835978838,95.44973544973546 147.93650793650795,95.02645502645504 147.51322751322752,94.60317460317461 146.8783068783069,94.17989417989419 146.24338624338625,93.75661375661376 145.60846560846562,93.33333333333334 144.973544973545,92.91005291005291 144.33862433862436,92.4867724867725 143.70370370370372,92.27513227513228 143.0687830687831,91.85185185185186 142.43386243386246,91.85185185185186 141.7989417989418,91.64021164021165 141.16402116402116,91.42857142857143 140.52910052910053,91.42857142857143 139.8941798941799,91.21693121693123 139.25925925925927,91.00529100529101 138.62433862433863,91.00529100529101 137.989417989418,91.00529100529101 137.35449735449737,91.00529100529101 136.71957671957674,91.00529100529101 136.0846560846561,91.00529100529101 135.44973544973547,91.21693121693123 134.81481481481484,91.21693121693123 134.17989417989418,91.64021164021165 133.54497354497354,91.85185185185186 132.9100529100529,92.06349206349208 132.4867724867725,92.4867724867725 132.06349206349208,92.91005291005291 131.42857142857144,93.33333333333334 131.005291005291,93.75661375661376 130.58201058201058,94.17989417989419 130.15873015873018,94.60317460317461 129.73544973544975,95.02645502645504 129.31216931216932,95.66137566137567 128.88888888888889,96.08465608465609 128.67724867724868,96.71957671957672 128.25396825396825,97.35449735449737 127.83068783068784,97.989417989418 127.40740740740742,98.62433862433863 127.1957671957672,99.25925925925927 126.77248677248679,99.8941798941799 126.56084656084657,100.52910052910053 126.13756613756615,101.16402116402116 125.92592592592594,101.79894179894181 125.71428571428572,102.43386243386244 125.5026455026455,103.06878306878308 125.07936507936509,103.70370370370371 124.86772486772487,104.33862433862434 124.65608465608466,104.97354497354497 124.44444444444446,105.60846560846562 124.44444444444446,106.24338624338625 124.02116402116403,106.87830687830689 124.02116402116403,107.51322751322752 123.80952380952382,108.14814814814815 123.80952380952382,108.78306878306879 123.80952380952382,109.41798941798943 123.59788359788361,110.05291005291006 123.59788359788361,110.6878306878307 123.59788359788361,111.32275132275133 123.59788359788361,111.95767195767196 123.59788359788361,112.5925925925926 123.59788359788361,113.22751322751324 123.80952380952382,113.86243386243387 123.80952380952382,114.49735449735451 124.02116402116403,115.13227513227514 124.02116402116403,115.76719576719577 124.23280423280424,116.4021164021164 124.44444444444446,117.03703703703705 124.65608465608466,117.67195767195768 124.86772486772487,118.30687830687832 125.07936507936509,118.94179894179895 125.5026455026455,119.57671957671958 125.71428571428572,120.21164021164022 126.13756613756615,120.63492063492065 126.56084656084657,121.26984126984128 126.98412698412699,121.6931216931217 127.40740740740742,122.32804232804234 127.83068783068784,122.75132275132276 128.25396825396825,123.17460317460318 128.67724867724868,123.59788359788361 129.10052910052912,124.02116402116403 129.52380952380955,124.44444444444446 129.94708994708995,124.86772486772487 130.58201058201058,125.2910052910053 131.005291005291,125.71428571428572 131.64021164021165,126.13756613756615 132.27513227513228,126.56084656084657 132.9100529100529,126.77248677248679 133.54497354497354,126.98412698412699 134.17989417989418,127.1957671957672 134.81481481481484,127.40740740740742 135.44973544973547,127.40740740740742 136.0846560846561,127.61904761904763 136.71957671957674,127.61904761904763 137.35449735449737,127.40740740740742 137.989417989418,127.40740740740742 138.62433862433863,127.1957671957672 139.25925925925927,126.98412698412699 139.8941798941799,126.77248677248679 140.52910052910053,126.56084656084657 141.16402116402116,126.34920634920636 141.7989417989418,126.13756613756615 142.43386243386246,125.92592592592594 143.0687830687831,125.92592592592594 143.4920634920635,125.5026455026455 144.12698412698413,125.5026455026455 144.76190476190476,125.2910052910053 145.39682539682542,125.2910052910053 146.03174603174605,125.2910052910053 146.66666666666669,125.2910052910053 147.30158730158732,125.5026455026455 147.93650793650795,125.5026455026455 148.57142857142858,125.71428571428572 149.20634920634922,125.92592592592594 149.84126984126985,126.13756613756615 150.47619047619048,126.34920634920636 151.11111111111111,126.56084656084657 151.53439153439155,126.98412698412699 152.16931216931218,127.40740740740742 152.5925925925926,127.83068783068784 153.01587301587304,128.25396825396825 153.43915343915344,128.88888888888889 153.65079365079367,129.52380952380955 153.86243386243387,130.15873015873018 154.2857142857143,130.7936507936508 154.7089947089947,131.42857142857144 154.92063492063494,132.06349206349208 155.13227513227514,132.6984126984127 155.34391534391534,133.33333333333334 155.34391534391534,133.96825396825398 155.55555555555557,134.6031746031746 155.76719576719577,135.23809523809524 155.978835978836,135.87301587301587 155.978835978836,136.5079365079365 156.1904761904762,137.14285714285717 156.1904761904762,137.7777777777778 156.1904761904762,138.41269841269843 156.1904761904762,139.04761904761907 156.4021164021164,139.6825396825397 156.4021164021164,140.31746031746033 156.61375661375664,140.95238095238096 156.61375661375664,141.5873015873016 156.61375661375664,142.22222222222223 156.61375661375664,142.85714285714286 156.61375661375664,143.4920634920635 156.61375661375664,144.12698412698413 156.61375661375664,144.76190476190476 156.61375661375664,145.39682539682542 156.4021164021164,146.03174603174605 156.4021164021164,146.66666666666669 156.4021164021164,147.30158730158732 156.1904761904762,147.93650793650795 156.1904761904762,148.57142857142858 155.978835978836,149.20634920634922 155.76719576719577,149.84126984126985 155.76719576719577,150.47619047619048 155.55555555555557,151.11111111111111 155.34391534391534,151.74603174603175 155.13227513227514,152.38095238095238 154.92063492063494,153.01587301587304 154.7089947089947,153.65079365079367 154.7089947089947,154.2857142857143 154.4973544973545,154.92063492063494 154.2857142857143,155.55555555555557 154.07407407407408,156.1904761904762 153.86243386243387,156.82539682539684 153.65079365079367,157.46031746031747 153.22751322751324,158.0952380952381 153.01587301587304,158.73015873015873 152.8042328042328,159.36507936507937 152.38095238095238,160.0 152.16931216931218,160.63492063492066 151.74603174603175,161.2698412698413 151.53439153439155,161.90476190476193 151.32275132275134,162.53968253968256 150.8994708994709,163.1746031746032 150.47619047619048,163.80952380952382 150.26455026455028,164.44444444444446 149.84126984126985,165.0793650793651 149.41798941798942,165.71428571428572 149.20634920634922,166.34920634920636 148.78306878306879,166.984126984127 148.57142857142858,167.61904761904762 148.14814814814815,168.25396825396825 146.45502645502646,171.42857142857144" style="fill:none; stroke:#999900; stroke-width:1.0"  /><polyline points="146.45502645502646,171.42857142857144 143.2804232804233,169.94708994708995 142.64550264550266,169.73544973544975 142.01058201058203,169.52380952380955 141.3756613756614,169.31216931216932 140.74074074074076,168.8888888888889 140.10582010582013,168.67724867724868 139.47089947089947,168.25396825396825 138.83597883597884,168.04232804232805 138.2010582010582,167.83068783068785 137.56613756613757,167.61904761904762 136.93121693121694,167.19576719576722 136.2962962962963,166.984126984127 135.66137566137567,166.56084656084658 135.02645502645504,166.34920634920636 134.3915343915344,166.13756613756615 133.75661375661377,165.92592592592595 133.12169312169314,165.50264550264552 132.4867724867725,165.2910052910053 131.85185185185185,164.8677248677249 131.21693121693121,164.65608465608466 130.58201058201058,164.44444444444446 129.94708994708995,164.02116402116403 129.31216931216932,163.80952380952382 128.67724867724868,163.3862433862434 128.04232804232805,163.1746031746032 127.40740740740742,162.75132275132276 126.77248677248679,162.53968253968256 126.13756613756615,162.11640211640213 125.5026455026455,161.90476190476193 124.86772486772487,161.6931216931217 124.44444444444446,161.2698412698413 123.80952380952382,161.05820105820106 123.17460317460318,160.63492063492066 122.53968253968254,160.42328042328043 121.90476190476191,160.0 121.26984126984128,159.7883597883598 120.63492063492065,159.36507936507937 120.00000000000001,159.15343915343917 119.36507936507937,158.73015873015873 118.73015873015873,158.51851851851853 118.0952380952381,158.0952380952381 117.46031746031747,157.8835978835979 117.03703703703705,157.46031746031747 116.4021164021164,157.24867724867727 115.76719576719577,156.82539682539684 115.13227513227514,156.61375661375664 114.49735449735451,156.1904761904762 113.86243386243387,155.978835978836 113.22751322751324,155.55555555555557 112.5925925925926,155.34391534391534 111.95767195767196,154.92063492063494 111.32275132275133,154.4973544973545 110.6878306878307,154.2857142857143 110.05291005291006,153.86243386243387 109.41798941798943,153.65079365079367 108.78306878306879,153.22751322751324 108.14814814814815,153.01587301587304 107.51322751322752,152.8042328042328 106.87830687830689,152.38095238095238 106.24338624338625,152.16931216931218 105.60846560846562,151.74603174603175 104.97354497354497,151.53439153439155 104.33862433862434,151.11111111111111 103.70370370370371,150.8994708994709 103.06878306878308,150.6878306878307 102.43386243386244,150.47619047619048 102.01058201058201,150.05291005291005 101.37566137566138,149.84126984126985 100.74074074074075,149.84126984126985 100.10582010582011,149.62962962962965 99.47089947089948,149.41798941798942 98.83597883597885,149.20634920634922 98.2010582010582,148.99470899470901 97.56613756613757,148.99470899470901 96.93121693121694,148.78306878306879 96.2962962962963,148.78306878306879 95.66137566137567,148.57142857142858 95.02645502645504,148.57142857142858 94.39153439153439,148.57142857142858 93.75661375661376,148.35978835978838 93.12169312169313,148.35978835978838 92.4867724867725,148.35978835978838 91.85185185185186,148.35978835978838 91.21693121693123,148.35978835978838 90.58201058201058,148.35978835978838 89.94708994708995,148.35978835978838 89.31216931216932,148.57142857142858 88.67724867724868,148.57142857142858 88.04232804232805,148.78306878306879 87.40740740740742,148.78306878306879 86.77248677248677,148.99470899470901 86.13756613756614,149.41798941798942 85.5026455026455,149.84126984126985 84.86772486772487,150.26455026455028 84.44444444444446,150.6878306878307 84.02116402116403,151.11111111111111 83.59788359788361,151.74603174603175 83.17460317460318,152.38095238095238 82.96296296296298,153.01587301587304 82.75132275132276,153.65079365079367 82.53968253968254,154.2857142857143 82.53968253968254,154.92063492063494 82.53968253968254,155.55555555555557 82.53968253968254,156.1904761904762 82.53968253968254,156.82539682539684 82.53968253968254,157.46031746031747 82.53968253968254,158.0952380952381 82.75132275132276,158.73015873015873 82.96296296296298,159.36507936507937 82.96296296296298,160.0 83.17460317460318,160.63492063492066 83.17460317460318,161.2698412698413 83.3862433862434,161.90476190476193 83.3862433862434,162.53968253968256 83.59788359788361,163.1746031746032 83.80952380952381,163.80952380952382 83.80952380952381,164.44444444444446 84.02116402116403,165.0793650793651 84.23280423280424,165.71428571428572 84.44444444444446,166.34920634920636 84.65608465608466,166.984126984127 84.86772486772487,167.61904761904762 84.86772486772487,168.25396825396825 84.86772486772487,168.8888888888889 85.07936507936509,169.52380952380955 85.07936507936509,170.15873015873018 85.07936507936509,170.7936507936508 85.07936507936509,171.42857142857144 85.07936507936509,172.06349206349208 85.07936507936509,172.6984126984127 85.07936507936509,173.33333333333334 85.07936507936509,173.96825396825398 84.86772486772487,174.6031746031746 84.86772486772487,175.23809523809524 84.65608465608466,175.87301587301587 84.44444444444446,176.50793650793653 84.44444444444446,177.14285714285717 84.23280423280424,177.7777777777778 84.23280423280424,178.41269841269843 84.02116402116403,179.04761904761907 83.80952380952381,179.6825396825397 83.59788359788361,180.31746031746033 83.3862433862434,180.95238095238096 82.96296296296298,181.5873015873016 82.75132275132276,182.22222222222223 82.32804232804233,182.64550264550266 81.6931216931217,183.0687830687831 81.26984126984128,183.4920634920635 80.63492063492065,183.91534391534393 80.0,184.12698412698415 79.57671957671958,184.55026455026456 78.94179894179895,184.55026455026456 78.30687830687832,184.973544973545 77.67195767195767,185.1851851851852 77.03703703703704,185.1851851851852 76.4021164021164,185.39682539682542 75.76719576719577,185.39682539682542 75.13227513227514,185.60846560846562 74.49735449735451,185.60846560846562 73.86243386243387,185.60846560846562 73.22751322751323,185.82010582010582 72.5925925925926,185.82010582010582 71.95767195767196,185.82010582010582 71.32275132275133,185.82010582010582 70.6878306878307,185.60846560846562 70.05291005291006,185.60846560846562 69.41798941798942,185.39682539682542 68.78306878306879,185.39682539682542 68.14814814814815,185.1851851851852 67.51322751322752,185.1851851851852 66.87830687830689,184.973544973545 66.24338624338625,184.7619047619048 65.60846560846561,184.55026455026456 64.97354497354497,184.33862433862436 64.33862433862434,184.12698412698415 63.70370370370371,183.70370370370372 63.06878306878308,183.4920634920635 62.43386243386244,183.2804232804233 61.798941798941804,182.85714285714286 61.16402116402117,182.43386243386246 60.52910052910053,182.01058201058203 59.8941798941799,181.5873015873016 59.25925925925927,181.16402116402116 58.62433862433863,180.74074074074076 58.2010582010582,180.31746031746033 57.56613756613757,179.8941798941799 57.142857142857146,179.4708994708995 56.71957671957672,179.04761904761907 56.2962962962963,178.62433862433863 55.87301587301588,178.2010582010582 55.449735449735456,177.7777777777778 55.02645502645503,177.35449735449737 54.60317460317461,176.93121693121694 54.179894179894184,176.50793650793653 53.75661375661376,176.0846560846561 53.333333333333336,175.66137566137567 52.91005291005291,175.23809523809524 52.48677248677249,174.6031746031746 52.06349206349207,173.96825396825398 51.640211640211646,173.54497354497354 51.21693121693122,172.9100529100529 50.7936507936508,172.27513227513228 50.58201058201058,171.64021164021165 50.370370370370374,171.005291005291 49.94708994708995,170.37037037037038 49.94708994708995,169.73544973544975 49.73544973544974,169.10052910052912 49.73544973544974,168.46560846560848 49.94708994708995,167.83068783068785 49.94708994708995,167.19576719576722 50.158730158730165,166.56084656084658 50.158730158730165,165.92592592592595 50.370370370370374,165.2910052910053 50.58201058201058,164.65608465608466 51.00529100529101,164.02116402116403 51.21693121693122,163.3862433862434 51.640211640211646,162.75132275132276 52.06349206349207,162.11640211640213 52.48677248677249,161.4814814814815 52.91005291005291,160.84656084656086 53.333333333333336,160.42328042328043 53.75661375661376,160.0 54.179894179894184,159.5767195767196 54.60317460317461,159.15343915343917 55.23809523809524,158.73015873015873 55.661375661375665,158.30687830687833 56.2962962962963,158.0952380952381 56.71957671957672,157.67195767195767 57.35449735449736,157.24867724867727 57.989417989417994,156.82539682539684 58.41269841269842,156.4021164021164 59.04761904761905,155.978835978836 59.470899470899475,155.55555555555557 60.10582010582011,155.13227513227514 60.52910052910053,154.7089947089947 61.16402116402117,154.2857142857143 61.798941798941804,153.86243386243387 62.22222222222223,153.43915343915344 62.85714285714286,153.01587301587304 63.280423280423285,152.5925925925926 63.70370370370371,152.16931216931218 64.12698412698413,151.74603174603175 64.55026455026456,151.32275132275134 64.97354497354497,150.8994708994709 65.3968253968254,150.47619047619048 65.82010582010582,149.84126984126985 66.03174603174604,149.20634920634922 66.45502645502646,148.57142857142858 66.45502645502646,147.93650793650795 66.66666666666667,147.30158730158732 66.87830687830689,146.66666666666669 66.87830687830689,146.03174603174605 66.66666666666667,145.39682539682542 66.45502645502646,144.76190476190476 66.24338624338625,144.12698412698413 66.03174603174604,143.4920634920635 65.60846560846561,142.85714285714286 65.18518518518519,142.43386243386246 64.76190476190477,142.01058201058203 64.33862433862434,141.5873015873016 63.91534391534392,141.16402116402116 63.280423280423285,140.74074074074076 62.85714285714286,140.31746031746033 62.22222222222223,140.10582010582013 61.58730158730159,139.6825396825397 60.952380952380956,139.47089947089947 60.31746031746032,139.25925925925927 59.682539682539684,139.04761904761907 59.04761904761905,138.83597883597884 58.41269841269842,138.62433862433863 57.777777777777786,138.62433862433863 57.142857142857146,138.41269841269843 56.50793650793651,138.2010582010582 55.87301587301588,138.2010582010582 55.23809523809524,137.989417989418 54.60317460317461,137.989417989418 53.968253968253975,137.989417989418 53.333333333333336,137.7777777777778 52.6984126984127,137.7777777777778 52.06349206349207,137.7777777777778 51.42857142857143,137.7777777777778 50.7936507936508,137.7777777777778 50.158730158730165,137.56613756613757 49.523809523809526,137.56613756613757 48.88888888888889,137.7777777777778 48.25396825396826,137.7777777777778 47.61904761904762,137.7777777777778 46.98412698412699,137.7777777777778 46.349206349206355,137.7777777777778 45.714285714285715,137.7777777777778 45.07936507936508,137.989417989418 44.44444444444445,137.989417989418 43.80952380952381,137.989417989418 43.17460317460318,138.2010582010582 42.539682539682545,138.2010582010582 41.904761904761905,138.41269841269843 41.26984126984127,138.41269841269843 40.63492063492064,138.62433862433863 40.0,138.83597883597884 39.36507936507937,139.04761904761907 38.730158730158735,139.04761904761907 38.095238095238095,139.47089947089947 37.46031746031746,139.6825396825397 36.82539682539683,139.6825396825397 36.19047619047619,139.8941798941799 35.55555555555556,140.10582010582013 34.920634920634924,140.31746031746033 34.28571428571429,140.52910052910053 33.65079365079365,140.74074074074076 33.01587301587302,140.95238095238096 32.38095238095239,141.3756613756614 31.746031746031747,141.5873015873016 31.111111111111114,141.7989417989418 30.476190476190478,142.22222222222223 29.841269841269842,142.43386243386246 29.20634920634921,142.64550264550266 28.571428571428573,143.0687830687831 27.93650793650794,143.2804232804233 27.301587301587304,143.70370370370372 26.666666666666668,143.91534391534393 26.031746031746035,144.12698412698413 25.3968253968254,144.55026455026456 24.761904761904763,144.76190476190476 24.12698412698413,145.1851851851852 23.492063492063494,145.39682539682542 22.857142857142858,145.82010582010582 22.222222222222225,146.03174603174605 21.58730158730159,146.45502645502646 20.952380952380953,146.66666666666669 20.31746031746032,147.0899470899471 19.682539682539684,147.30158730158732 19.047619047619047,147.72486772486775 18.412698412698415,147.93650793650795 17.77777777777778,148.14814814814815 17.142857142857146,148.57142857142858 16.50793650793651,148.78306878306879 15.873015873015873,149.20634920634922 15.238095238095239,149.62962962962965 14.603174603174605,149.84126984126985 13.96825396825397,150.26455026455028 13.333333333333334,150.47619047619048 12.6984126984127,150.8994708994709 12.063492063492065,151.11111111111111 11.428571428571429,151.53439153439155 10.793650793650794,151.74603174603175 10.370370370370372,152.16931216931218 9.735449735449736,152.38095238095238 9.100529100529101,152.8042328042328 8.465608465608467,153.22751322751324 8.042328042328043,153.65079365079367 7.407407407407408,153.86243386243387 6.772486772486773,154.07407407407408 6.34920634920635,154.4973544973545 5.714285714285714,154.7089947089947 1.9047619047619049,156.82539682539684" style="fill:none; stroke:#00aa99; stroke-width:1.0"  /><polyline points="1.9047619047619049,156.82539682539684 1.4814814814814816,153.01587301587304 1.4814814814814816,152.38095238095238 1.26984126984127,151.74603174603175 1.26984126984127,151.11111111111111 1.0582010582010584,150.47619047619048 0.8465608465608466,149.84126984126985 0.8465608465608466,149.20634920634922 0.8465608465608466,148.57142857142858 0.634920634920635,147.93650793650795 0.634920634920635,147.30158730158732 0.4232804232804233,146.66666666666669 0.4232804232804233,146.03174603174605 0.4232804232804233,145.39682539682542 0.4232804232804233,144.76190476190476 0.21164021164021166,144.12698412698413 0.21164021164021166,143.4920634920635 0.21164021164021166,142.85714285714286 0.21164021164021166,142.22222222222223 0.21164021164021166,141.5873015873016 0.21164021164021166,140.95238095238096 0.21164021164021166,140.31746031746033 0.21164021164021166,139.6825396825397 0.21164021164021166,139.04761904761907 0.21164021164021166,138.41269841269843 0.21164021164021166,137.7777777777778 0.21164021164021166,137.14285714285717 0.4232804232804233,136.5079365079365 0.4232804232804233,135.87301587301587 0.4232804232804233,135.23809523809524 0.4232804232804233,134.6031746031746 0.634920634920635,133.96825396825398 0.634920634920635,133.33333333333334 0.634920634920635,132.6984126984127 0.8465608465608466,132.06349206349208 0.634920634920635,131.42857142857144 0.8465608465608466,130.7936507936508 0.8465608465608466,130.15873015873018 0.8465608465608466,129.52380952380955 1.0582010582010584,128.88888888888889 1.0582010582010584,128.25396825396825 1.26984126984127,127.61904761904763 1.4814814814814816,126.98412698412699 1.4814814814814816,126.34920634920636 1.6931216931216932,125.71428571428572 1.6931216931216932,125.07936507936509 1.9047619047619049,124.44444444444446 2.1164021164021167,123.80952380952382 2.3280423280423284,123.17460317460318 2.53968253968254,122.53968253968254 2.7513227513227516,121.90476190476191 2.7513227513227516,121.26984126984128 2.9629629629629632,120.63492063492065 3.174603174603175,120.00000000000001 3.3862433862433865,119.36507936507937 3.3862433862433865,118.73015873015873 3.597883597883598,118.0952380952381 3.8095238095238098,117.46031746031747 4.021164021164021,116.82539682539684 4.444444444444445,116.1904761904762 4.656084656084657,115.55555555555557 4.867724867724868,114.92063492063492 5.07936507936508,114.28571428571429 5.291005291005291,113.65079365079366 5.714285714285714,113.01587301587303 6.137566137566138,112.3809523809524 6.772486772486773,111.95767195767196 7.407407407407408,111.53439153439155 8.042328042328043,111.32275132275133 8.677248677248677,111.11111111111111 9.312169312169313,110.89947089947091 9.947089947089948,110.89947089947091 10.582010582010582,110.89947089947091 11.216931216931219,110.89947089947091 11.851851851851853,110.89947089947091 12.486772486772487,111.11111111111111 13.121693121693122,111.32275132275133 13.756613756613758,111.32275132275133 14.391534391534393,111.74603174603176 15.026455026455027,111.95767195767196 15.661375661375663,112.3809523809524 16.296296296296298,112.80423280423281 16.71957671957672,113.22751322751324 17.142857142857146,113.65079365079366 17.566137566137566,114.07407407407408 17.98941798941799,114.49735449735451 18.412698412698415,114.92063492063492 18.83597883597884,115.34391534391536 19.25925925925926,115.76719576719577 19.682539682539684,116.4021164021164 20.105820105820108,116.82539682539684 20.740740740740744,117.24867724867725 21.164021164021165,117.67195767195768 21.58730158730159,118.0952380952381 22.010582010582013,118.51851851851853 22.433862433862437,118.94179894179895 23.06878306878307,119.36507936507937 23.703703703703706,119.7883597883598 24.12698412698413,120.21164021164022 24.761904761904763,120.42328042328043 25.185185185185187,120.84656084656086 25.820105820105823,121.05820105820106 26.455026455026456,121.26984126984128 27.089947089947092,121.4814814814815 27.724867724867728,121.6931216931217 28.35978835978836,121.90476190476191 28.994708994708997,122.11640211640213 29.629629629629633,122.11640211640213 30.264550264550266,122.32804232804234 30.899470899470902,122.32804232804234 31.53439153439154,122.32804232804234 32.16931216931217,122.32804232804234 32.804232804232804,122.32804232804234 33.43915343915344,122.11640211640213 34.074074074074076,122.11640211640213 34.70899470899471,121.90476190476191 35.34391534391535,121.90476190476191 35.97883597883598,121.6931216931217 36.613756613756614,121.4814814814815 37.248677248677254,121.26984126984128 37.883597883597886,121.05820105820106 38.30687830687831,120.63492063492065 38.94179894179894,120.21164021164022 39.57671957671958,119.7883597883598 40.211640211640216,119.36507936507937 40.84656084656085,118.94179894179895 41.26984126984127,118.51851851851853 41.6931216931217,118.0952380952381 42.11640211640212,117.67195767195768 42.75132275132275,117.24867724867725 43.17460317460318,116.82539682539684 43.5978835978836,116.4021164021164 44.021164021164026,115.97883597883599 44.44444444444445,115.55555555555557 44.867724867724874,115.13227513227514 45.29100529100529,114.49735449735451 45.714285714285715,114.07407407407408 46.13756613756614,113.65079365079366 46.349206349206355,113.01587301587303 46.77248677248678,112.5925925925926 47.195767195767196,111.95767195767196 47.61904761904762,111.32275132275133 47.830687830687836,110.6878306878307 48.25396825396826,110.05291005291006 48.46560846560847,109.41798941798943 48.88888888888889,108.78306878306879 49.1005291005291,108.14814814814815 49.31216931216932,107.51322751322752 49.523809523809526,106.87830687830689 49.73544973544974,106.24338624338625 49.94708994708995,105.60846560846562 49.94708994708995,104.97354497354497 50.158730158730165,104.33862433862434 50.370370370370374,103.70370370370371 50.370370370370374,103.06878306878308 50.58201058201058,102.43386243386244 50.58201058201058,101.79894179894181 50.58201058201058,101.16402116402116 50.7936507936508,100.52910052910053 50.7936507936508,99.8941798941799 50.7936507936508,99.25925925925927 50.7936507936508,98.62433862433863 50.7936507936508,97.989417989418 50.7936507936508,97.35449735449737 50.7936507936508,96.71957671957672 50.370370370370374,96.2962962962963 50.370370370370374,95.66137566137567 50.370370370370374,95.02645502645504 50.158730158730165,94.39153439153439 50.158730158730165,93.75661375661376 49.94708994708995,93.12169312169313 49.73544973544974,92.4867724867725 49.523809523809526,91.85185185185186 49.31216931216932,91.21693121693123 49.1005291005291,90.58201058201058 48.88888888888889,89.94708994708995 48.46560846560847,89.31216931216932 48.25396825396826,88.67724867724868 47.830687830687836,88.25396825396827 47.40740740740741,87.61904761904762 46.98412698412699,86.98412698412699 46.560846560846564,86.56084656084657 46.13756613756614,86.13756613756614 45.714285714285715,85.71428571428572 45.29100529100529,85.29100529100529 44.867724867724874,84.86772486772487 44.44444444444445,84.44444444444446 44.021164021164026,84.02116402116403 43.5978835978836,83.59788359788361 42.96296296296297,83.17460317460318 42.539682539682545,82.75132275132276 41.904761904761905,82.53968253968254 41.48148148148149,82.11640211640213 40.84656084656085,81.90476190476191 40.211640211640216,81.48148148148148 39.57671957671958,81.48148148148148 38.94179894179894,81.26984126984128 38.30687830687831,81.05820105820106 37.67195767195768,81.26984126984128 37.03703703703704,81.05820105820106 36.402116402116405,81.05820105820106 35.76719576719577,81.05820105820106 35.13227513227513,81.05820105820106 34.4973544973545,81.05820105820106 33.86243386243387,81.05820105820106 33.22751322751323,81.05820105820106 32.592592592592595,81.26984126984128 31.95767195767196,81.26984126984128 31.322751322751326,81.48148148148148 30.68783068783069,81.6931216931217 30.052910052910054,81.6931216931217 29.41798941798942,81.90476190476191 28.783068783068785,82.11640211640213 28.14814814814815,82.32804232804233 27.513227513227516,82.53968253968254 26.87830687830688,82.75132275132276 26.243386243386244,82.96296296296298 25.60846560846561,83.17460317460318 24.973544973544975,83.59788359788361 24.338624338624342,83.80952380952381 23.703703703703706,84.02116402116403 23.06878306878307,84.23280423280424 22.433862433862437,84.44444444444446 21.7989417989418,84.86772486772487 21.164021164021165,85.07936507936509 20.529100529100532,85.29100529100529 19.894179894179896,85.71428571428572 19.25925925925926,85.92592592592594 18.624338624338627,86.13756613756614 17.98941798941799,86.34920634920636 17.354497354497354,86.34920634920636 16.71957671957672,86.34920634920636 16.084656084656086,86.34920634920636 15.449735449735451,86.13756613756614 14.814814814814817,85.92592592592594 14.17989417989418,85.71428571428572 13.544973544973546,85.29100529100529 12.910052910052912,84.86772486772487 12.275132275132275,84.44444444444446 11.851851851851853,83.80952380952381 11.428571428571429,83.3862433862434 11.005291005291006,82.75132275132276 10.793650793650794,82.11640211640213 10.582010582010582,81.48148148148148 10.370370370370372,80.84656084656085 10.15873015873016,80.21164021164022 9.947089947089948,79.57671957671958 9.947089947089948,78.94179894179895 9.735449735449736,78.30687830687832 9.523809523809524,77.67195767195767 9.523809523809524,77.03703703703704 9.523809523809524,76.4021164021164 9.312169312169313,75.76719576719577 9.312169312169313,75.13227513227514 9.312169312169313,74.49735449735451 9.100529100529101,73.86243386243387 9.100529100529101,73.22751322751323 9.100529100529101,72.5925925925926 8.88888888888889,71.95767195767196 8.88888888888889,71.32275132275133 8.88888888888889,70.6878306878307 8.677248677248677,70.05291005291006 8.677248677248677,69.41798941798942 8.465608465608467,68.78306878306879 8.465608465608467,68.14814814814815 8.465608465608467,67.51322751322752 8.253968253968255,66.87830687830689 8.253968253968255,66.24338624338625 8.042328042328043,65.60846560846561 8.042328042328043,64.97354497354497 8.042328042328043,64.33862433862434 8.042328042328043,63.70370370370371 7.830687830687832,63.06878306878308 7.830687830687832,62.43386243386244 7.830687830687832,61.798941798941804 7.6190476190476195,61.16402116402117 7.407407407407408,60.52910052910053 7.407407407407408,59.8941798941799 7.407407407407408,59.25925925925927 7.195767195767196,58.62433862433863 7.195767195767196,57.989417989417994 7.195767195767196,57.35449735449736 7.195767195767196,56.71957671957672 7.195767195767196,56.08465608465609 6.984126984126985,55.449735449735456 6.984126984126985,54.81481481481482 6.984126984126985,54.179894179894184 6.984126984126985,53.54497354497355 6.772486772486773,52.91005291005291 6.772486772486773,52.27513227513228 6.772486772486773,51.640211640211646 6.772486772486773,51.00529100529101 6.772486772486773,50.370370370370374 6.772486772486773,49.73544973544974 6.560846560846561,49.1005291005291 6.560846560846561,48.46560846560847 6.560846560846561,47.830687830687836 6.560846560846561,47.195767195767196 6.560846560846561,46.560846560846564 6.34920634920635,45.92592592592593 6.34920634920635,45.29100529100529 6.34920634920635,44.65608465608466 6.34920634920635,44.021164021164026 6.34920634920635,43.386243386243386 6.34920634920635,42.75132275132275 6.137566137566138,42.11640211640212 6.137566137566138,41.48148148148149 6.137566137566138,40.84656084656085 6.137566137566138,40.211640211640216 5.9259259259259265,36.19047619047619" style="fill:none; stroke:#3300bb; stroke-width:1.0"  /><circle cx="5.9259259259259265" cy="36.19047619047619" r="2.0" style="fill:none; stroke:#000000aa; stroke-width:0.25" /><circle cx="161.4814814814815" cy="51.21693121693122" r="2.0" style="fill:none; stroke:#000000aa; stroke-width:0.25" /><circle cx="146.45502645502646" cy="171.42857142857144" r="2.0" style="fill:none; stroke:#000000aa; stroke-width:0.25" /><circle cx="1.9047619047619049" cy="156.82539682539684" r="2.0" style="fill:none; stroke:#000000aa; stroke-width:0.25" /><circle cx="5.9259259259259265" cy="36.82539682539683" r="2.0" style="fill:none; stroke:#ff3366aa; stroke-width:0.25" /><circle cx="161.90476190476193" cy="51.640211640211646" r="2.0" style="fill:none; stroke:#ff3366aa; stroke-width:0.25" /><circle cx="146.45502645502646" cy="170.7936507936508" r="2.0" style="fill:none; stroke:#ff3366aa; stroke-width:0.25" /><circle cx="2.53968253968254" cy="156.1904761904762" r="2.0" style="fill:none; stroke:#ff3366aa; stroke-width:0.25" /><polyline points="17.77777777777778,36.402116402116405 17.142857142857146,36.402116402116405 16.50793650793651,36.402116402116405 15.873015873015873,36.402116402116405 15.238095238095239,36.402116402116405 14.603174603174605,36.402116402116405 13.96825396825397,36.402116402116405 13.333333333333334,36.402116402116405 12.6984126984127,36.402116402116405 12.063492063492065,36.402116402116405 11.428571428571429,36.402116402116405 10.793650793650794,36.402116402116405 10.15873015873016,36.402116402116405 9.523809523809524,36.19047619047619 8.88888888888889,36.19047619047619" style="fill:none; stroke:#001100; stroke-width:1.0" /><polyline points="6.560846560846561,48.46560846560847 6.560846560846561,47.830687830687836 6.560846560846561,47.195767195767196 6.560846560846561,46.560846560846564 6.34920634920635,45.92592592592593 6.34920634920635,45.29100529100529 6.34920634920635,44.65608465608466 6.34920634920635,44.021164021164026 6.34920634920635,43.386243386243386 6.34920634920635,42.75132275132275 6.137566137566138,42.11640211640212 6.137566137566138,41.48148148148149 6.137566137566138,40.84656084656085 6.137566137566138,40.211640211640216" style="fill:none; stroke:#000011; stroke-width:1.0" /><polyline points="160.63492063492066,63.06878306878308 160.63492063492066,62.43386243386244 160.63492063492066,61.798941798941804 160.63492063492066,61.16402116402117 160.42328042328043,60.52910052910053 160.42328042328043,59.8941798941799 160.63492063492066,59.25925925925927 160.63492063492066,58.62433862433863 160.63492063492066,57.989417989417994 160.63492063492066,57.35449735449736 160.84656084656086,56.71957671957672 160.84656084656086,56.08465608465609 161.05820105820106,55.449735449735456 161.2698412698413,54.81481481481482" style="fill:none; stroke:#001100; stroke-width:1.0" /><polyline points="150.05291005291005,51.851851851851855 150.6878306878307,51.851851851851855 151.32275132275134,51.851851851851855 151.95767195767198,51.851851851851855 152.5925925925926,51.851851851851855 153.22751322751324,51.851851851851855 153.86243386243387,51.851851851851855 154.4973544973545,51.640211640211646 155.13227513227514,51.640211640211646 155.76719576719577,51.640211640211646 156.4021164021164,51.640211640211646 157.03703703703704,51.42857142857143 157.67195767195767,51.42857142857143 158.30687830687833,51.42857142857143 158.94179894179896,51.42857142857143" style="fill:none; stroke:#000011; stroke-width:1.0" /><polyline points="135.66137566137567,166.56084656084658 136.2962962962963,166.984126984127 136.93121693121694,167.19576719576722 137.56613756613757,167.61904761904762 138.2010582010582,167.83068783068785 138.83597883597884,168.04232804232805 139.47089947089947,168.25396825396825 140.10582010582013,168.67724867724868 140.74074074074076,168.8888888888889 141.3756613756614,169.31216931216932 142.01058201058203,169.52380952380955 142.64550264550266,169.73544973544975 143.2804232804233,169.94708994708995" style="fill:none; stroke:#001100; stroke-width:1.0" /><polyline points="152.16931216931218,160.63492063492066 151.74603174603175,161.2698412698413 151.53439153439155,161.90476190476193 151.32275132275134,162.53968253968256 150.8994708994709,163.1746031746032 150.47619047619048,163.80952380952382 150.26455026455028,164.44444444444446 149.84126984126985,165.0793650793651 149.41798941798942,165.71428571428572 149.20634920634922,166.34920634920636 148.78306878306879,166.984126984127 148.57142857142858,167.61904761904762 148.14814814814815,168.25396825396825" style="fill:none; stroke:#000011; stroke-width:1.0" /><polyline points="0.4232804232804233,144.76190476190476 0.4232804232804233,145.39682539682542 0.4232804232804233,146.03174603174605 0.4232804232804233,146.66666666666669 0.634920634920635,147.30158730158732 0.634920634920635,147.93650793650795 0.8465608465608466,148.57142857142858 0.8465608465608466,149.20634920634922 0.8465608465608466,149.84126984126985 1.0582010582010584,150.47619047619048 1.26984126984127,151.11111111111111 1.26984126984127,151.74603174603175 1.4814814814814816,152.38095238095238 1.4814814814814816,153.01587301587304" style="fill:none; stroke:#001100; stroke-width:1.0" /><polyline points="12.6984126984127,150.8994708994709 12.063492063492065,151.11111111111111 11.428571428571429,151.53439153439155 10.793650793650794,151.74603174603175 10.370370370370372,152.16931216931218 9.735449735449736,152.38095238095238 9.100529100529101,152.8042328042328 8.465608465608467,153.22751322751324 8.042328042328043,153.65079365079367 7.407407407407408,153.86243386243387 6.772486772486773,154.07407407407408 6.34920634920635,154.4973544973545 5.714285714285714,154.7089947089947" style="fill:none; stroke:#000011; stroke-width:1.0" /><polyline points="8.88888888888889,36.19047619047619 -12.275132275132275,35.76719576719577" style="fill:none; stroke:#ffaa00; stroke-width:0.4" /><polyline points="6.137566137566138,40.211640211640216 5.07936507936508,19.047619047619047" style="fill:none; stroke:#aaff00; stroke-width:0.4" /><polyline points="161.2698412698413,54.81481481481482 162.96296296296296,33.65079365079365" style="fill:none; stroke:#ffaa00; stroke-width:0.4" /><polyline points="158.94179894179896,51.42857142857143 180.10582010582013,50.370370370370374" style="fill:none; stroke:#aaff00; stroke-width:0.4" /><polyline points="143.2804232804233,169.94708994708995 162.53968253968256,178.62433862433863" style="fill:none; stroke:#ffaa00; stroke-width:0.4" /><polyline points="148.14814814814815,168.25396825396825 138.2010582010582,186.8783068783069" style="fill:none; stroke:#aaff00; stroke-width:0.4" /><polyline points="1.4814814814814816,153.01587301587304 4.2328042328042335,173.96825396825398" style="fill:none; stroke:#ffaa00; stroke-width:0.4" /><polyline points="5.714285714285714,154.7089947089947 -12.910052910052912,164.8677248677249" style="fill:none; stroke:#aaff00; stroke-width:0.4" /><circle cx="82.32804232804233" cy="95.23809523809524" r="1.0" style="fill:#444444; stroke-width:0" /><circle cx="88.46560846560847" cy="84.44444444444446" r="10.582010582010582" style="fill:#ff770022; stroke-width:0" /><circle cx="88.46560846560847" cy="84.44444444444446" r="1.0" style="fill:#ff7700; stroke-width:0" /></svg>