<?xml version="1.0" encoding="UTF-8" standalone="no"?><svg width="683.8095238095239" height="571.4285714285714" viewBox="-10 -10 247.93650793650795 210.47619047619048" xmlns="http://www.w3.org/2000/svg" xmlns:xlink="http://www.w3.org/1999/xlink"><polyline points="0.0,67.93650793650794 3.174603174603175,66.66666666666667 3.597883597883598,66.24338624338625 4.2328042328042335,66.03174603174604 4.867724867724868,65.82010582010582 5.502645502645503,65.60846560846561 6.137566137566138,65.18518518518519 6.772486772486773,64.97354497354497 7.407407407407408,64.76190476190477 8.042328042328043,64.55026455026456 8.677248677248677,64.12698412698413 9.312169312169313,64.12698412698413 9.735449735449736,63.70370370370371 10.370370370370372,63.492063492063494 11.005291005291006,63.280423280423285 11.640211640211641,62.85714285714286 12.275132275132275,62.64550264550265 12.910052910052912,62.43386243386244 13.544973544973546,62.01058201058201 14.17989417989418,61.798941798941804 14.814814814814817,61.58730158730159 15.449735449735451,61.16402116402117 16.084656084656086,60.952380952380956 16.71957671957672,60.74074074074075 17.354497354497354,60.31746031746032 17.98941798941799,60.10582010582011 18.624338624338627,59.682539682539684 19.25925925925926,59.470899470899475 19.894179894179896,59.04761904761905 20.529100529100532,58.83597883597884 21.164021164021165,58.62433862433863 21.58730158730159,58.2010582010582 22.222222222222225,58.2010582010582 22.645502645502646,57.777777777777786 23.280423280423282,57.56613756613757 23.915343915343918,57.142857142857146 24.55026455026455,56.93121693121694 25.185185185185187,56.50793650793651 25.820105820105823,56.2962962962963 26.455026455026456,55.87301587301588 27.089947089947092,55.87301587301588 27.513227513227516,55.449735449735456 28.14814814814815,55.23809523809524 28.783068783068785,54.81481481481482 29.41798941798942,54.60317460317461 30.052910052910054,54.39153439153439 30.68783068783069,54.179894179894184 31.322751322751326,53.968253968253975 31.746031746031747,53.54497354497355 32.38095238095239,53.333333333333336 33.01587301587302,53.12169312169313 33.65079365079365,52.91005291005291 34.074074074074076,52.48677248677249 34.70899470899471,52.48677248677249 35.34391534391535,52.48677248677249 35.76719576719577,52.06349206349207 36.402116402116405,52.06349206349207 37.03703703703704,51.851851851851855 37.67195767195768,51.851851851851855 38.30687830687831,51.851851851851855 38.94179894179894,52.06349206349207 39.57671957671958,52.06349206349207 40.211640211640216,52.48677248677249 40.84656084656085,52.91005291005291 41.26984126984127,53.333333333333336 41.6931216931217,53.968253968253975 41.904761904761905,54.60317460317461 42.11640211640212,55.23809523809524 42.539682539682545,55.661375661375665 42.539682539682545,56.2962962962963 42.75132275132275,56.93121693121694 42.75132275132275,57.56613756613757 42.75132275132275,58.2010582010582 42.75132275132275,58.83597883597884 42.539682539682545,59.470899470899475 42.539682539682545,60.10582010582011 42.539682539682545,60.74074074074075 42.32804232804233,61.37566137566138 42.11640211640212,62.01058201058201 42.11640211640212,62.64550264550265 42.11640211640212,63.280423280423285 41.904761904761905,63.91534391534392 41.904761904761905,64.55026455026456 41.904761904761905,65.18518518518519 41.904761904761905,65.82010582010582 41.904761904761905,66.45502645502646 42.11640211640212,67.08994708994709 42.32804232804233,67.72486772486774 42.32804232804233,68.35978835978837 42.539682539682545,68.994708994709 42.75132275132275,69.62962962962963 42.96296296296297,70.26455026455027 43.17460317460318,70.8994708994709 43.386243386243386,71.53439153439155 43.80952380952381,72.16931216931218 44.021164021164026,72.80423280423281 44.44444444444445,73.43915343915344 44.867724867724874,74.07407407407408 45.29100529100529,74.70899470899471 45.714285714285715,75.34391534391536 46.13756613756614,75.76719576719577 46.560846560846564,76.19047619047619 47.195767195767196,76.61375661375662 47.61904761904762,77.03703703703704 48.042328042328045,77.46031746031747 48.46560846560847,77.88359788359789 48.88888888888889,78.30687830687832 49.523809523809526,78.73015873015873 50.158730158730165,78.94179894179895 50.7936507936508,79.36507936507937 51.42857142857143,79.57671957671958 52.06349206349207,79.57671957671958 52.6984126984127,79.7883597883598 53.333333333333336,80.0 53.968253968253975,80.0 54.60317460317461,80.0 55.23809523809524,80.0 55.87301587301588,80.0 56.50793650793651,80.0 57.142857142857146,79.7883597883598 57.777777777777786,79.7883597883598 58.41269841269842,79.57671957671958 59.04761904761905,79.57671957671958 59.682539682539684,79.36507936507937 60.31746031746032,79.15343915343917 60.952380952380956,78.94179894179895 61.58730158730159,78.73015873015873 62.22222222222223,78.73015873015873 62.64550264550265,78.30687830687832 63.280423280423285,78.30687830687832 63.91534391534392,77.88359788359789 64.55026455026456,77.67195767195767 65.18518518518519,77.46031746031747 65.82010582010582,77.24867724867725 66.45502645502646,77.03703703703704 67.08994708994709,76.61375661375662 67.72486772486774,76.4021164021164 68.35978835978837,75.97883597883599 68.994708994709,75.76719576719577 69.62962962962963,75.34391534391536 70.05291005291006,74.92063492063492 70.6878306878307,74.70899470899471 71.11111111111111,74.28571428571429 71.74603174603175,74.07407407407408 72.16931216931218,73.65079365079366 72.80423280423281,73.22751322751323 73.22751322751323,72.80423280423281 73.86243386243387,72.38095238095238 74.28571428571429,71.95767195767196 74.70899470899471,71.53439153439155 75.34391534391536,71.32275132275133 75.97883597883599,70.8994708994709 76.4021164021164,70.47619047619048 76.82539682539684,70.05291005291006 77.24867724867725,69.62962962962963 77.67195767195767,69.20634920634922 78.0952380952381,68.57142857142858 78.51851851851852,68.14814814814815 78.94179894179895,67.72486772486774 79.36507936507937,67.08994708994709 79.57671957671958,66.45502645502646 79.7883597883598,65.82010582010582 80.0,65.18518518518519 80.21164021164022,64.55026455026456 80.21164021164022,63.91534391534392 80.21164021164022,63.280423280423285 80.21164021164022,62.64550264550265 80.21164021164022,62.01058201058201 80.0,61.37566137566138 80.0,60.74074074074075 79.7883597883598,60.10582010582011 79.57671957671958,59.470899470899475 79.57671957671958,58.83597883597884 79.15343915343917,58.2010582010582 78.94179894179895,57.56613756613757 78.73015873015873,56.93121693121694 78.51851851851852,56.2962962962963 78.0952380952381,55.661375661375665 77.88359788359789,55.02645502645503 77.46031746031747,54.60317460317461 77.03703703703704,53.968253968253975 76.82539682539684,53.333333333333336 76.4021164021164,52.91005291005291 75.97883597883599,52.27513227513228 75.55555555555556,51.640211640211646 75.13227513227514,51.21693121693122 74.70899470899471,50.7936507936508 74.28571428571429,50.158730158730165 73.86243386243387,49.73544973544974 73.43915343915344,49.31216931216932 72.80423280423281,48.88888888888889 72.38095238095238,48.46560846560847 71.95767195767196,48.042328042328045 71.53439153439155,47.61904761904762 70.8994708994709,47.195767195767196 70.47619047619048,46.77248677248678 70.05291005291006,46.349206349206355 69.62962962962963,45.92592592592593 69.20634920634922,45.50264550264551 68.78306878306879,45.07936507936508 68.35978835978837,44.44444444444445 67.93650793650794,43.80952380952381 67.51322751322752,43.17460317460318 67.3015873015873,42.539682539682545 67.08994708994709,41.904761904761905 66.87830687830689,41.26984126984127 66.87830687830689,40.63492063492064 66.87830687830689,40.0 66.87830687830689,39.36507936507937 67.08994708994709,38.730158730158735 67.51322751322752,38.095238095238095 67.93650793650794,37.67195767195768 68.35978835978837,37.248677248677254 68.78306878306879,36.82539682539683 69.41798941798942,36.613756613756614 69.84126984126985,36.19047619047619 70.47619047619048,35.76719576719577 71.11111111111111,35.55555555555556 71.74603174603175,35.34391534391535 72.38095238095238,35.13227513227513 73.01587301587303,35.13227513227513 73.43915343915344,34.70899470899471 74.07407407407408,34.70899470899471 74.70899470899471,34.4973544973545 75.34391534391536,34.28571428571429 75.97883597883599,33.86243386243387 76.61375661375662,33.65079365079365 77.24867724867725,33.65079365079365 77.88359788359789,33.43915343915344 78.51851851851852,33.43915343915344 79.15343915343917,33.43915343915344 79.7883597883598,33.22751322751323 80.42328042328043,33.01587301587302 81.05820105820106,32.804232804232804 81.6931216931217,32.592592592592595 82.32804232804233,32.592592592592595 82.96296296296298,32.804232804232804 83.3862433862434,32.38095238095239 84.02116402116403,32.16931216931217 84.65608465608466,31.95767195767196 85.29100529100529,31.746031746031747 85.92592592592594,31.746031746031747 86.56084656084657,31.53439153439154 87.1957671957672,31.322751322751326 87.83068783068784,31.322751322751326 88.46560846560847,31.111111111111114 89.1005291005291,31.322751322751326 89.73544973544975,31.111111111111114 90.37037037037038,30.899470899470902 90.7936507936508,30.476190476190478 91.42857142857143,30.476190476190478 91.85185185185186,30.052910052910054 92.4867724867725,30.052910052910054 93.12169312169313,29.841269841269842 93.75661375661376,29.629629629629633 94.39153439153439,29.629629629629633 95.02645502645504,29.41798941798942 95.66137566137567,29.20634920634921 96.2962962962963,28.994708994708997 96.93121693121694,28.783068783068785 97.56613756613757,28.783068783068785 98.2010582010582,28.571428571428573 98.83597883597885,28.35978835978836 99.47089947089948,28.35978835978836 100.31746031746033,27.93650793650794 100.95238095238096,27.724867724867728 101.5873015873016,27.513227513227516 102.22222222222223,27.301587301587304 102.85714285714286,27.089947089947092 103.4920634920635,26.87830687830688 104.12698412698414,26.666666666666668 104.76190476190477,26.666666666666668 105.3968253968254,26.455026455026456 106.03174603174604,26.243386243386244 106.66666666666667,25.820105820105823 107.3015873015873,25.820105820105823 107.93650793650795,25.60846560846561 108.35978835978837,25.185185185185187 108.994708994709,24.973544973544975 109.62962962962963,24.761904761904763 110.26455026455027,24.55026455026455 110.89947089947091,24.338624338624342 111.53439153439155,24.12698412698413 112.16931216931218,23.915343915343918 112.80423280423281,23.915343915343918 113.22751322751324,23.492063492063494 113.86243386243387,23.280423280423282 114.49735449735451,23.06878306878307 115.13227513227514,22.857142857142858 115.76719576719577,22.433862433862437 116.4021164021164,22.433862433862437 117.03703703703705,22.222222222222225 117.67195767195768,22.010582010582013 118.30687830687832,21.7989417989418 118.94179894179895,21.7989417989418 119.36507936507937,21.375661375661377 120.00000000000001,21.164021164021165 120.63492063492065,21.164021164021165 121.26984126984128,20.740740740740744 121.6931216931217,20.31746031746032 122.32804232804234,20.529100529100532 122.75132275132276,20.105820105820108 123.3862433862434,20.105820105820108 124.02116402116403,19.894179894179896 124.44444444444446,19.25925925925926 125.07936507936509,19.047619047619047 125.71428571428572,18.83597883597884 126.34920634920636,18.624338624338627 126.98412698412699,18.412698412698415 127.61904761904763,17.98941798941799 128.25396825396825,17.77777777777778 128.88888888888889,17.566137566137566 129.52380952380955,17.142857142857146 130.15873015873018,17.142857142857146 130.7936507936508,16.931216931216934 131.42857142857144,16.50793650793651 132.06349206349208,16.084656084656086 132.4867724867725,15.661375661375663 133.12169312169314,15.449735449735451 133.75661375661377,15.026455026455027 134.3915343915344,14.814814814814817 135.02645502645504,14.391534391534393 135.66137566137567,14.391534391534393 136.2962962962963,14.17989417989418 136.71957671957674,13.544973544973546 137.35449735449737,13.121693121693122 137.989417989418,12.6984126984127 138.62433862433863,12.486772486772487 139.25925925925927,12.275132275132275 139.8941798941799,11.851851851851853 140.52910052910053,11.640211640211641 140.95238095238096,11.216931216931219 141.5873015873016,10.793650793650794 142.22222222222223,10.582010582010582 142.85714285714286,10.370370370370372 143.2804232804233,9.947089947089948 143.91534391534393,9.523809523809524 144.55026455026456,9.100529100529101 145.1851851851852,8.677248677248677 145.82010582010582,8.253968253968255 146.45502645502646,7.830687830687832 147.0899470899471,7.407407407407408 147.72486772486775,6.984126984126985 148.14814814814815,6.560846560846561 148.78306878306879,6.34920634920635 149.41798941798942,6.137566137566138 149.84126984126985,5.714285714285714 150.26455026455028,5.291005291005291 150.8994708994709,5.07936507936508 151.32275132275134,4.444444444444445 151.95767195767198,4.021164021164021 152.5925925925926,3.597883597883598 153.22751322751324,3.174603174603175 153.86243386243387,2.7513227513227516 154.4973544973545,2.53968253968254 155.13227513227514,2.1164021164021167 155.55555555555557,1.6931216931216932 156.1904761904762,1.26984126984127 156.82539682539684,0.8465608465608466 159.15343915343917,-0.8465608465608466" style="fill:none; stroke:#cc0000; stroke-width:1.0"  /><polyline points="159.15343915343917,-0.8465608465608466 161.05820105820106,2.9629629629629632 161.4814814814815,3.597883597883598 161.6931216931217,4.2328042328042335 162.11640211640213,4.867724867724868 162.53968253968256,5.291005291005291 162.75132275132276,5.9259259259259265 163.1746031746032,6.560846560846561 163.59788359788362,7.195767195767196 163.80952380952382,7.830687830687832 164.02116402116403,8.465608465608467 164.44444444444446,9.100529100529101 164.65608465608466,9.735449735449736 164.8677248677249,10.370370370370372 165.2910052910053,11.005291005291006 165.71428571428572,11.640211640211641 165.92592592592595,12.275132275132275 166.13756613756615,12.910052910052912 166.34920634920636,13.544973544973546 166.7724867724868,14.17989417989418 166.984126984127,14.814814814814817 167.19576719576722,15.449735449735451 167.40740740740742,16.084656084656086 167.61904761904762,16.71957671957672 167.83068783068785,17.354497354497354 168.04232804232805,17.98941798941799 168.25396825396825,18.624338624338627 168.46560846560848,19.25925925925926 168.67724867724868,19.894179894179896 168.8888888888889,20.529100529100532 169.10052910052912,21.164021164021165 169.31216931216932,21.7989417989418 169.52380952380955,22.433862433862437 169.73544973544975,23.06878306878307 169.94708994708995,23.703703703703706 169.94708994708995,24.338624338624342 170.15873015873018,24.973544973544975 170.37037037037038,25.60846560846561 170.58201058201058,26.243386243386244 170.58201058201058,26.87830687830688 170.7936507936508,27.513227513227516 171.005291005291,28.14814814814815 171.005291005291,28.783068783068785 171.21693121693124,29.41798941798942 171.21693121693124,30.052910052910054 171.21693121693124,30.68783068783069 171.42857142857144,31.322751322751326 171.42857142857144,31.95767195767196 171.64021164021165,32.592592592592595 171.64021164021165,33.22751322751323 171.85185185185188,33.86243386243387 171.85185185185188,34.4973544973545 171.85185185185188,35.13227513227513 172.06349206349208,35.76719576719577 172.06349206349208,36.402116402116405 172.06349206349208,37.03703703703704 172.06349206349208,37.67195767195768 172.06349206349208,38.30687830687831 172.06349206349208,38.94179894179894 172.06349206349208,39.57671957671958 172.27513227513228,40.211640211640216 172.27513227513228,40.84656084656085 172.27513227513228,41.48148148148149 172.06349206349208,42.11640211640212 172.06349206349208,42.75132275132275 171.85185185185188,43.386243386243386 171.85185185185188,44.021164021164026 171.42857142857144,44.44444444444445 171.42857142857144,45.07936507936508 171.42857142857144,45.714285714285715 171.21693121693124,46.349206349206355 171.21693121693124,46.98412698412699 171.21693121693124,47.61904761904762 171.21693121693124,48.25396825396826 171.21693121693124,48.88888888888889 171.21693121693124,49.523809523809526 171.42857142857144,50.158730158730165 171.42857142857144,50.7936507936508 171.64021164021165,51.42857142857143 171.85185185185188,52.06349206349207 172.06349206349208,52.6984126984127 172.27513227513228,53.333333333333336 172.4867724867725,53.968253968253975 172.6984126984127,54.60317460317461 173.12169312169314,55.23809523809524 173.33333333333334,55.87301587301588 173.75661375661377,56.2962962962963 174.1798941798942,56.93121693121694 174.6031746031746,57.56613756613757 175.02645502645504,57.989417989417994 175.44973544973547,58.41269841269842 175.87301587301587,58.83597883597884 176.2962962962963,59.25925925925927 176.71957671957674,59.682539682539684 177.35449735449737,60.10582010582011 177.989417989418,60.52910052910053 178.62433862433863,60.74074074074075 179.25925925925927,61.16402116402117 179.8941798941799,61.37566137566138 180.52910052910053,61.58730158730159 181.16402116402116,61.798941798941804 181.79894179894183,62.22222222222223 182.43386243386246,62.43386243386244 183.0687830687831,62.43386243386244 183.70370370370372,62.64550264550265 184.33862433862436,62.64550264550265 184.973544973545,62.85714285714286 185.60846560846562,62.85714285714286 186.24338624338625,63.06878306878308 186.8783068783069,62.85714285714286 187.51322751322752,62.85714285714286 188.14814814814815,62.85714285714286 188.78306878306879,62.85714285714286 189.41798941798945,62.85714285714286 190.05291005291008,62.64550264550265 190.6878306878307,62.43386243386244 191.32275132275134,62.22222222222223 191.95767195767198,62.22222222222223 192.5925925925926,61.798941798941804 193.22751322751324,61.58730158730159 193.86243386243387,61.37566137566138 194.4973544973545,61.16402116402117 195.13227513227514,60.952380952380956 195.76719576719577,60.74074074074075 196.4021164021164,60.52910052910053 197.03703703703704,60.31746031746032 197.6719576719577,60.10582010582011 198.0952380952381,59.682539682539684 198.73015873015873,59.25925925925927 199.36507936507937,58.83597883597884 200.00000000000003,58.41269841269842 200.63492063492066,57.989417989417994 201.2698412698413,57.56613756613757 201.6931216931217,57.142857142857146 202.11640211640213,56.71957671957672 202.75132275132276,56.50793650793651 203.1746031746032,56.08465608465609 203.80952380952382,55.661375661375665 204.44444444444446,55.449735449735456 204.8677248677249,55.02645502645503 205.50264550264552,54.60317460317461 206.13756613756615,54.39153439153439 206.7724867724868,54.179894179894184 207.19576719576722,53.75661375661376 207.83068783068785,53.968253968253975 208.25396825396828,53.54497354497355 208.8888888888889,53.54497354497355 209.52380952380955,53.54497354497355 210.15873015873018,53.333333333333336 210.7936507936508,53.333333333333336 211.42857142857144,53.54497354497355 212.06349206349208,53.54497354497355 212.6984126984127,53.54497354497355 213.33333333333334,53.54497354497355 213.96825396825398,53.54497354497355 214.6031746031746,53.75661375661376 215.23809523809524,53.968253968253975 215.8730158730159,54.179894179894184 216.50793650793653,54.60317460317461 217.14285714285717,54.81481481481482 217.56613756613757,55.23809523809524 218.20105820105823,55.661375661375665 218.62433862433863,56.08465608465609 219.04761904761907,56.50793650793651 219.4708994708995,56.93121693121694 219.8941798941799,57.35449735449736 220.31746031746033,57.777777777777786 220.74074074074076,58.41269841269842 221.1640211640212,59.04761904761905 221.5873015873016,59.470899470899475 222.01058201058203,60.10582010582011 222.43386243386246,60.74074074074075 222.85714285714286,61.37566137566138 223.0687830687831,62.01058201058201 223.49206349206352,62.64550264550265 223.91534391534393,63.280423280423285 224.12698412698415,63.91534391534392 224.55026455026456,64.55026455026456 224.7619047619048,65.18518518518519 224.973544973545,65.82010582010582 225.1851851851852,66.45502645502646 225.60846560846562,67.08994708994709 225.82010582010582,67.72486772486774 226.03174603174605,68.35978835978837 226.24338624338625,68.994708994709 226.24338624338625,69.62962962962963 226.45502645502648,70.26455026455027 226.66666666666669,70.8994708994709 226.66666666666669,71.53439153439155 226.8783068783069,72.16931216931218 226.8783068783069,72.80423280423281 227.08994708994712,73.43915343915344 227.08994708994712,74.07407407407408 227.30158730158732,74.70899470899471 227.51322751322752,75.34391534391536 227.51322751322752,75.97883597883599 227.51322751322752,76.61375661375662 227.51322751322752,77.24867724867725 227.51322751322752,77.88359788359789 227.51322751322752,78.51851851851852 227.30158730158732,79.15343915343917 227.30158730158732,79.7883597883598 227.30158730158732,80.42328042328043 227.30158730158732,81.05820105820106 227.08994708994712,81.6931216931217 226.8783068783069,82.32804232804233 226.8783068783069,82.96296296296298 226.66666666666669,83.59788359788361 226.45502645502648,84.23280423280424 226.24338624338625,84.86772486772487 226.03174603174605,85.5026455026455 225.82010582010582,86.13756613756614 225.60846560846562,86.77248677248677 225.1851851851852,87.40740740740742 224.973544973545,88.04232804232805 224.55026455026456,88.46560846560847 224.12698412698415,89.1005291005291 223.70370370370372,89.73544973544975 223.2804232804233,90.37037037037038 222.85714285714286,90.7936507936508 222.43386243386246,91.21693121693123 222.01058201058203,91.64021164021165 221.5873015873016,92.06349206349208 220.95238095238096,92.4867724867725 220.31746031746033,92.91005291005291 219.6825396825397,93.33333333333334 219.04761904761907,93.75661375661376 218.41269841269843,93.96825396825398 217.7777777777778,94.17989417989419 217.14285714285717,94.60317460317461 216.50793650793653,94.81481481481482 215.8730158730159,95.02645502645504 215.23809523809524,95.23809523809524 214.6031746031746,95.23809523809524 213.96825396825398,95.44973544973546 213.33333333333334,95.44973544973546 212.6984126984127,95.66137566137567 212.06349206349208,95.44973544973546 211.42857142857144,95.44973544973546 210.7936507936508,95.23809523809524 210.15873015873018,95.02645502645504 209.52380952380955,94.81481481481482 208.8888888888889,94.60317460317461 208.25396825396828,94.60317460317461 207.61904761904765,94.17989417989419 206.984126984127,94.17989417989419 206.34920634920636,94.17989417989419 205.71428571428572,94.17989417989419 205.0793650793651,94.17989417989419 204.44444444444446,93.96825396825398 203.80952380952382,94.17989417989419 203.1746031746032,94.17989417989419 202.53968253968256,94.17989417989419 201.90476190476193,94.39153439153439 201.2698412698413,94.60317460317461 200.63492063492066,94.81481481481482 200.00000000000003,95.02645502645504 199.36507936507937,95.44973544973546 198.73015873015873,95.87301587301587 198.0952380952381,96.2962962962963 197.6719576719577,96.71957671957672 197.03703703703704,97.14285714285715 196.61375661375664,97.77777777777779 196.1904761904762,98.41269841269842 195.978835978836,99.04761904761905 195.76719576719577,99.68253968253968 195.55555555555557,100.31746031746033 195.55555555555557,100.95238095238096 195.55555555555557,101.5873015873016 195.55555555555557,102.22222222222223 195.55555555555557,102.85714285714286 195.76719576719577,103.4920634920635 195.978835978836,104.12698412698414 195.978835978836,104.76190476190477 196.1904761904762,105.3968253968254 196.4021164021164,106.03174603174604 196.4021164021164,106.66666666666667 196.61375661375664,107.3015873015873 196.82539682539684,107.93650793650795 197.03703703703704,108.57142857142858 197.03703703703704,109.20634920634922 197.46031746031747,109.84126984126985 197.6719576719577,110.47619047619048 197.8835978835979,111.11111111111111 198.0952380952381,111.74603174603176 198.30687830687833,112.3809523809524 198.51851851851853,113.01587301587303 198.73015873015873,113.65079365079366 198.94179894179896,114.28571428571429 199.15343915343917,114.92063492063492 199.36507936507937,115.55555555555557 199.5767195767196,116.1904761904762 199.7883597883598,116.82539682539684 200.00000000000003,117.46031746031747 200.21164021164023,118.0952380952381 200.63492063492066,118.73015873015873 200.84656084656086,119.36507936507937 201.05820105820106,120.00000000000001 201.2698412698413,120.63492063492065 201.6931216931217,121.26984126984128 201.90476190476193,121.90476190476191 202.11640211640213,122.53968253968254 202.53968253968256,123.17460317460318 202.75132275132276,123.80952380952382 203.1746031746032,124.44444444444446 203.3862433862434,125.07936507936509 203.80952380952382,125.71428571428572 204.23280423280426,126.34920634920636 204.44444444444446,126.98412698412699 204.8677248677249,127.61904761904763 205.0793650793651,128.25396825396825 205.50264550264552,128.67724867724868 205.92592592592595,129.31216931216932 206.13756613756615,129.94708994708995 206.56084656084658,130.37037037037038 206.984126984127,131.005291005291 209.10052910052912,134.3915343915344" style="fill:none; stroke:#999900; stroke-width:1.0"  /><polyline points="209.10052910052912,134.3915343915344 205.92592592592595,135.66137566137567 205.29100529100532,135.87301587301587 204.65608465608466,136.0846560846561 204.02116402116403,136.5079365079365 203.3862433862434,136.71957671957674 202.75132275132276,136.93121693121694 202.11640211640213,137.14285714285717 201.4814814814815,137.56613756613757 200.84656084656086,137.7777777777778 200.21164021164023,137.989417989418 199.5767195767196,138.2010582010582 198.94179894179896,138.41269841269843 198.30687830687833,138.62433862433863 197.6719576719577,138.83597883597884 197.03703703703704,139.04761904761907 196.4021164021164,139.25925925925927 195.76719576719577,139.47089947089947 195.13227513227514,139.6825396825397 194.4973544973545,139.8941798941799 193.86243386243387,140.10582010582013 193.22751322751324,140.31746031746033 192.5925925925926,140.52910052910053 191.95767195767198,140.74074074074076 191.32275132275134,140.95238095238096 190.6878306878307,141.16402116402116 190.05291005291008,141.3756613756614 189.41798941798945,141.5873015873016 188.78306878306879,141.7989417989418 188.14814814814815,142.01058201058203 187.51322751322752,142.22222222222223 186.8783068783069,142.22222222222223 186.24338624338625,142.43386243386246 185.60846560846562,142.64550264550266 184.973544973545,142.64550264550266 184.33862433862436,142.85714285714286 183.70370370370372,143.0687830687831 183.0687830687831,143.2804232804233 182.43386243386246,143.2804232804233 181.79894179894183,143.4920634920635 181.16402116402116,143.70370370370372 180.52910052910053,143.70370370370372 179.8941798941799,143.91534391534393 179.25925925925927,144.12698412698413 178.62433862433863,144.12698412698413 178.2010582010582,144.55026455026456 177.56613756613757,144.55026455026456 176.93121693121694,144.76190476190476 176.2962962962963,144.76190476190476 175.66137566137567,144.76190476190476 175.02645502645504,144.973544973545 174.3915343915344,144.973544973545 173.75661375661377,145.1851851851852 173.12169312169314,145.1851851851852 172.4867724867725,145.1851851851852 171.85185185185188,145.39682539682542 171.21693121693124,145.39682539682542 170.58201058201058,145.39682539682542 169.94708994708995,145.60846560846562 169.31216931216932,145.60846560846562 168.67724867724868,145.60846560846562 168.04232804232805,145.60846560846562 167.40740740740742,145.60846560846562 166.7724867724868,145.60846560846562 166.13756613756615,145.82010582010582 165.50264550264552,145.82010582010582 164.8677248677249,145.82010582010582 164.23280423280426,145.82010582010582 163.59788359788362,145.82010582010582 162.96296296296296,145.82010582010582 162.32804232804233,146.03174603174605 161.6931216931217,146.03174603174605 161.05820105820106,146.03174603174605 160.42328042328043,146.03174603174605 159.7883597883598,146.03174603174605 159.15343915343917,146.24338624338625 158.51851851851853,146.24338624338625 157.8835978835979,146.24338624338625 157.24867724867727,146.24338624338625 156.61375661375664,146.45502645502646 155.978835978836,146.45502645502646 155.34391534391534,146.66666666666669 154.7089947089947,146.8783068783069 154.07407407407408,147.0899470899471 153.43915343915344,147.51322751322752 152.8042328042328,147.72486772486775 152.16931216931218,148.14814814814815 151.53439153439155,148.57142857142858 150.8994708994709,148.78306878306879 150.47619047619048,149.20634920634922 150.05291005291005,149.62962962962965 149.62962962962965,150.05291005291005 149.20634920634922,150.47619047619048 148.78306878306879,151.11111111111111 148.57142857142858,151.74603174603175 148.35978835978838,152.38095238095238 148.14814814814815,153.01587301587304 147.93650793650795,153.65079365079367 147.93650793650795,154.2857142857143 147.93650793650795,154.92063492063494 147.93650793650795,155.55555555555557 148.14814814814815,156.1904761904762 148.14814814814815,156.82539682539684 148.35978835978838,157.46031746031747 148.57142857142858,158.0952380952381 148.78306878306879,158.73015873015873 149.20634920634922,159.36507936507937 149.41798941798942,160.0 149.84126984126985,160.42328042328043 150.26455026455028,161.05820105820106 150.6878306878307,161.6931216931217 151.11111111111111,162.11640211640213 151.53439153439155,162.75132275132276 151.95767195767198,163.1746031746032 152.38095238095238,163.59788359788362 152.8042328042328,164.02116402116403 153.22751322751324,164.44444444444446 153.43915343915344,165.0793650793651 153.86243386243387,165.50264550264552 154.2857142857143,166.13756613756615 154.7089947089947,166.56084656084658 155.13227513227514,167.19576719576722 155.34391534391534,167.83068783068785 155.76719576719577,168.46560846560848 156.1904761904762,169.10052910052912 156.4021164021164,169.73544973544975 156.82539682539684,170.37037037037038 157.03703703703704,171.005291005291 157.24867724867727,171.64021164021165 157.46031746031747,172.27513227513228 157.67195767195767,172.9100529100529 157.8835978835979,173.54497354497354 157.8835978835979,174.1798941798942 157.8835978835979,174.81481481481484 158.0952380952381,175.44973544973547 158.0952380952381,176.0846560846561 158.0952380952381,176.71957671957674 158.30687830687833,177.35449735449737 158.30687830687833,177.989417989418 158.0952380952381,178.62433862433863 158.0952380952381,179.25925925925927 158.0952380952381,179.8941798941799 157.8835978835979,180.52910052910053 157.46031746031747,181.16402116402116 157.03703703703704,181.5873015873016 156.61375661375664,182.01058201058203 156.1904761904762,182.43386243386246 155.55555555555557,182.85714285714286 154.92063492063494,183.2804232804233 154.2857142857143,183.70370370370372 153.65079365079367,183.91534391534393 153.01587301587304,184.33862433862436 152.38095238095238,184.55026455026456 151.74603174603175,184.7619047619048 151.32275132275134,185.1851851851852 150.6878306878307,185.39682539682542 150.05291005291005,185.60846560846562 149.41798941798942,186.03174603174605 148.78306878306879,186.24338624338625 148.14814814814815,186.45502645502646 147.51322751322752,186.66666666666669 146.8783068783069,186.8783068783069 146.24338624338625,187.08994708994712 145.60846560846562,187.51322751322752 144.973544973545,187.51322751322752 144.33862433862436,187.72486772486775 143.70370370370372,187.93650793650795 143.2804232804233,188.35978835978838 142.64550264550266,188.57142857142858 142.01058201058203,188.78306878306879 141.3756613756614,188.78306878306879 140.74074074074076,188.99470899470901 140.10582010582013,188.99470899470901 139.47089947089947,189.20634920634922 138.83597883597884,189.20634920634922 138.2010582010582,189.41798941798945 137.56613756613757,189.41798941798945 136.93121693121694,189.62962962962965 136.2962962962963,189.62962962962965 135.66137566137567,189.62962962962965 135.02645502645504,189.84126984126985 134.3915343915344,189.84126984126985 133.75661375661377,189.84126984126985 133.12169312169314,189.84126984126985 132.4867724867725,189.84126984126985 131.85185185185185,190.05291005291008 131.21693121693121,190.05291005291008 130.58201058201058,190.05291005291008 129.94708994708995,190.05291005291008 129.31216931216932,189.84126984126985 128.67724867724868,189.84126984126985 128.04232804232805,189.84126984126985 127.40740740740742,189.84126984126985 126.77248677248679,189.62962962962965 126.13756613756615,189.62962962962965 125.5026455026455,189.41798941798945 124.86772486772487,189.20634920634922 124.23280423280424,188.99470899470901 123.59788359788361,188.78306878306879 122.96296296296298,188.57142857142858 122.32804232804234,188.14814814814815 121.6931216931217,187.93650793650795 121.26984126984128,187.30158730158732 120.84656084656086,186.8783068783069 120.42328042328043,186.45502645502646 120.00000000000001,186.03174603174605 119.7883597883598,185.39682539682542 119.36507936507937,184.973544973545 119.15343915343917,184.33862433862436 118.94179894179895,183.70370370370372 118.73015873015873,183.0687830687831 118.51851851851853,182.43386243386246 118.30687830687832,181.79894179894183 118.30687830687832,181.16402116402116 118.0952380952381,180.52910052910053 117.88359788359789,179.8941798941799 117.88359788359789,179.25925925925927 117.67195767195768,178.62433862433863 117.67195767195768,177.989417989418 117.88359788359789,177.35449735449737 117.88359788359789,176.71957671957674 117.88359788359789,176.0846560846561 117.88359788359789,175.44973544973547 118.0952380952381,174.81481481481484 118.0952380952381,174.1798941798942 118.51851851851853,173.54497354497354 118.51851851851853,172.9100529100529 118.73015873015873,172.27513227513228 118.94179894179895,171.64021164021165 119.15343915343917,171.005291005291 119.36507936507937,170.37037037037038 119.7883597883598,169.73544973544975 120.00000000000001,169.10052910052912 120.42328042328043,168.46560846560848 120.63492063492065,167.83068783068785 121.05820105820106,167.40740740740742 121.05820105820106,166.7724867724868 121.4814814814815,166.34920634920636 121.6931216931217,165.71428571428572 121.90476190476191,165.0793650793651 122.32804232804234,164.44444444444446 122.53968253968254,163.80952380952382 122.75132275132276,163.1746031746032 122.75132275132276,162.53968253968256 122.96296296296298,161.90476190476193 123.17460317460318,161.2698412698413 123.17460317460318,160.63492063492066 123.17460317460318,160.0 123.17460317460318,159.36507936507937 123.17460317460318,158.73015873015873 122.96296296296298,158.0952380952381 122.75132275132276,157.46031746031747 122.53968253968254,156.82539682539684 122.32804232804234,156.1904761904762 121.90476190476191,155.55555555555557 121.4814814814815,155.13227513227514 121.05820105820106,154.7089947089947 120.63492063492065,154.2857142857143 120.21164021164022,153.86243386243387 119.57671957671958,153.65079365079367 118.94179894179895,153.43915343915344 118.30687830687832,153.22751322751324 117.67195767195768,153.01587301587304 117.03703703703705,153.01587301587304 116.4021164021164,153.01587301587304 115.76719576719577,153.01587301587304 115.13227513227514,153.01587301587304 114.49735449735451,153.22751322751324 113.86243386243387,153.43915343915344 113.22751322751324,153.65079365079367 112.5925925925926,153.86243386243387 111.95767195767196,154.2857142857143 111.32275132275133,154.4973544973545 110.89947089947091,154.92063492063494 110.26455026455027,155.13227513227514 109.84126984126985,155.55555555555557 109.20634920634922,155.978835978836 108.57142857142858,156.1904761904762 108.14814814814815,156.61375661375664 107.51322751322752,157.03703703703704 107.0899470899471,157.46031746031747 106.45502645502647,157.8835978835979 105.82010582010582,158.30687830687833 105.18518518518519,158.73015873015873 104.55026455026456,159.15343915343917 103.91534391534393,159.5767195767196 103.28042328042329,160.0 102.64550264550266,160.42328042328043 102.01058201058201,160.84656084656086 101.37566137566138,161.2698412698413 100.74074074074075,161.6931216931217 100.10582010582011,161.90476190476193 99.68253968253968,162.32804232804233 99.04761904761905,162.75132275132276 98.41269841269842,163.1746031746032 97.77777777777779,163.59788359788362 97.14285714285715,164.02116402116403 96.50793650793652,164.44444444444446 95.87301587301587,164.8677248677249 95.23809523809524,165.2910052910053 94.60317460317461,165.50264550264552 94.17989417989419,165.92592592592595 93.54497354497356,166.34920634920636 92.91005291005291,166.7724867724868 92.27513227513228,167.19576719576722 91.64021164021165,167.61904761904762 91.00529100529101,168.04232804232805 90.37037037037038,168.25396825396825 89.94708994708995,168.67724867724868 89.31216931216932,169.10052910052912 88.67724867724868,169.52380952380955 88.04232804232805,169.94708994708995 87.40740740740742,170.37037037037038 86.77248677248677,170.7936507936508 86.13756613756614,171.21693121693124 85.5026455026455,171.42857142857144 85.07936507936509,171.85185185185188 84.44444444444446,172.27513227513228 83.80952380952381,172.6984126984127 83.17460317460318,173.12169312169314 82.53968253968254,173.54497354497354 81.90476190476191,173.75661375661377 81.48148148148148,174.1798941798942 80.84656084656085,174.6031746031746 80.21164021164022,174.81481481481484 79.7883597883598,175.23809523809524 79.36507936507937,175.66137566137567 78.73015873015873,176.0846560846561 78.0952380952381,176.50793650793653 77.46031746031747,176.93121693121694 76.82539682539684,177.14285714285717 76.4021164021164,177.56613756613757 75.76719576719577,177.989417989418 75.13227513227514,178.41269841269843 74.49735449735451,178.83597883597884 73.86243386243387,179.25925925925927 73.43915343915344,179.6825396825397 72.80423280423281,180.10582010582013 72.38095238095238,180.52910052910053 71.74603174603175,180.95238095238096 71.11111111111111,181.3756613756614 70.47619047619048,181.79894179894183 69.84126984126985,182.22222222222223 69.20634920634922,182.64550264550266 68.57142857142858,183.0687830687831 67.93650793650794,183.4920634920635 67.3015873015873,183.91534391534393 66.66666666666667,184.33862433862436 66.03174603174604,184.7619047619048 65.3968253968254,185.1851851851852 64.76190476190477,185.60846560846562 64.12698412698413,186.03174603174605 63.492063492063494,186.45502645502646 63.06878306878308,186.8783068783069 62.43386243386244,187.30158730158732 61.798941798941804,187.72486772486775 61.37566137566138,188.14814814814815 58.2010582010582,190.47619047619048" style="fill:none; stroke:#00aa99; stroke-width:1.0"  /><polyline points="58.2010582010582,190.47619047619048 55.87301587301588,187.72486772486775 55.449735449735456,187.30158730158732 55.02645502645503,186.66666666666669 54.60317460317461,186.24338624338625 54.179894179894184,185.82010582010582 53.75661375661376,185.39682539682542 53.333333333333336,184.7619047619048 52.91005291005291,184.12698412698415 52.48677248677249,183.4920634920635 52.06349206349207,183.0687830687831 51.640211640211646,182.64550264550266 51.21693121693122,182.01058201058203 50.7936507936508,181.5873015873016 50.370370370370374,180.95238095238096 49.94708994708995,180.52910052910053 49.523809523809526,180.10582010582013 49.1005291005291,179.6825396825397 48.677248677248684,179.25925925925927 48.25396825396826,178.62433862433863 47.830687830687836,178.2010582010582 47.40740740740741,177.7777777777778 46.98412698412699,177.35449735449737 46.560846560846564,176.71957671957674 46.13756613756614,176.2962962962963 45.714285714285715,175.87301587301587 45.29100529100529,175.44973544973547 44.867724867724874,175.02645502645504 44.44444444444445,174.6031746031746 44.021164021164026,174.1798941798942 43.5978835978836,173.75661375661377 43.17460317460318,173.33333333333334 42.75132275132275,172.9100529100529 42.32804232804233,172.4867724867725 41.904761904761905,172.06349206349208 41.48148148148149,171.64021164021165 40.84656084656085,171.21693121693124 40.423280423280424,170.7936507936508 40.0,170.37037037037038 39.36507936507937,169.94708994708995 38.94179894179894,169.52380952380955 38.30687830687831,169.10052910052912 37.67195767195768,168.67724867724868 37.248677248677254,168.25396825396825 36.613756613756614,167.83068783068785 35.97883597883598,167.40740740740742 35.55555555555556,166.984126984127 35.13227513227513,166.56084656084658 34.4973544973545,166.13756613756615 33.86243386243387,165.71428571428572 33.22751322751323,165.2910052910053 32.804232804232804,164.8677248677249 32.16931216931217,164.65608465608466 31.746031746031747,164.23280423280426 31.111111111111114,163.80952380952382 30.476190476190478,163.3862433862434 30.052910052910054,162.96296296296296 29.41798941798942,162.53968253968256 28.994708994708997,162.11640211640213 28.35978835978836,161.6931216931217 27.93650793650794,161.2698412698413 27.513227513227516,160.63492063492066 27.089947089947092,160.0 26.666666666666668,159.36507936507937 26.455026455026456,158.73015873015873 26.243386243386244,158.0952380952381 26.031746031746035,157.46031746031747 25.820105820105823,156.82539682539684 25.60846560846561,156.1904761904762 25.60846560846561,155.55555555555557 25.3968253968254,154.92063492063494 25.3968253968254,154.2857142857143 25.3968253968254,153.65079365079367 25.3968253968254,153.01587301587304 25.3968253968254,152.38095238095238 25.60846560846561,151.74603174603175 25.60846560846561,151.11111111111111 25.60846560846561,150.47619047619048 26.031746031746035,149.84126984126985 26.243386243386244,149.20634920634922 26.666666666666668,148.57142857142858 26.87830687830688,147.93650793650795 27.301587301587304,147.51322751322752 27.724867724867728,146.8783068783069 28.35978835978836,146.45502645502646 28.783068783068785,146.03174603174605 29.41798941798942,145.60846560846562 29.841269841269842,145.1851851851852 30.476190476190478,144.76190476190476 31.111111111111114,144.33862433862436 31.746031746031747,144.12698412698413 32.38095238095239,143.91534391534393 33.01587301587302,143.4920634920635 33.65079365079365,143.2804232804233 34.28571428571429,143.0687830687831 34.920634920634924,142.85714285714286 35.55555555555556,142.64550264550266 36.19047619047619,142.43386243386246 36.82539682539683,142.43386243386246 37.46031746031746,142.22222222222223 38.095238095238095,142.01058201058203 38.730158730158735,141.7989417989418 39.36507936507937,141.7989417989418 40.0,141.5873015873016 40.63492063492064,141.5873015873016 41.26984126984127,141.5873015873016 41.904761904761905,141.5873015873016 42.539682539682545,141.5873015873016 43.17460317460318,141.5873015873016 43.80952380952381,141.7989417989418 44.44444444444445,141.7989417989418 45.07936507936508,142.01058201058203 45.714285714285715,142.01058201058203 46.349206349206355,142.01058201058203 46.98412698412699,142.01058201058203 47.40740740740741,142.43386243386246 48.042328042328045,142.43386243386246 48.677248677248684,142.43386243386246 49.31216931216932,142.22222222222223 49.94708994708995,142.01058201058203 50.58201058201058,142.01058201058203 51.21693121693122,141.5873015873016 51.851851851851855,141.5873015873016 52.27513227513228,141.16402116402116 52.91005291005291,140.74074074074076 53.54497354497355,140.52910052910053 54.179894179894184,140.10582010582013 54.60317460317461,139.6825396825397 55.23809523809524,139.25925925925927 55.661375661375665,138.83597883597884 56.08465608465609,138.41269841269843 56.50793650793651,137.7777777777778 56.93121693121694,137.35449735449737 57.142857142857146,136.71957671957674 57.35449735449736,136.0846560846561 57.56613756613757,135.44973544973547 57.777777777777786,134.81481481481484 57.989417989417994,134.17989417989418 57.989417989417994,133.54497354497354 57.989417989417994,132.9100529100529 57.777777777777786,132.27513227513228 57.777777777777786,131.64021164021165 57.56613756613757,131.005291005291 57.35449735449736,130.37037037037038 57.35449735449736,129.73544973544975 57.142857142857146,129.10052910052912 56.93121693121694,128.46560846560848 56.71957671957672,127.83068783068784 56.2962962962963,127.1957671957672 56.08465608465609,126.56084656084657 55.87301587301588,125.92592592592594 55.661375661375665,125.2910052910053 55.23809523809524,124.65608465608466 55.02645502645503,124.02116402116403 54.60317460317461,123.3862433862434 54.39153439153439,122.75132275132276 53.968253968253975,122.11640211640213 53.75661375661376,121.4814814814815 53.333333333333336,121.05820105820106 52.91005291005291,120.42328042328043 52.48677248677249,119.7883597883598 52.06349206349207,119.36507936507937 51.640211640211646,118.94179894179895 51.21693121693122,118.30687830687832 50.7936507936508,117.88359788359789 50.370370370370374,117.46031746031747 49.94708994708995,117.03703703703705 49.523809523809526,116.61375661375662 48.88888888888889,116.1904761904762 48.46560846560847,115.76719576719577 47.830687830687836,115.34391534391536 47.195767195767196,114.92063492063492 46.77248677248678,114.49735449735451 46.13756613756614,114.28571428571429 45.714285714285715,113.86243386243387 45.07936507936508,113.65079365079366 44.44444444444445,113.22751322751324 43.80952380952381,112.80423280423281 43.17460317460318,112.80423280423281 42.75132275132275,112.3809523809524 42.11640211640212,112.16931216931218 41.48148148148149,111.95767195767196 40.84656084656085,111.74603174603176 40.211640211640216,111.53439153439155 39.57671957671958,111.32275132275133 38.94179894179894,111.32275132275133 38.30687830687831,111.32275132275133 37.67195767195768,111.11111111111111 37.03703703703704,111.11111111111111 36.402116402116405,110.89947089947091 35.76719576719577,110.89947089947091 35.13227513227513,110.89947089947091 34.4973544973545,110.89947089947091 33.86243386243387,111.11111111111111 33.22751322751323,111.11111111111111 32.592592592592595,111.11111111111111 31.95767195767196,111.32275132275133 31.322751322751326,111.53439153439155 30.68783068783069,111.74603174603176 30.052910052910054,111.95767195767196 29.41798941798942,112.16931216931218 28.783068783068785,112.3809523809524 28.14814814814815,112.5925925925926 27.513227513227516,112.80423280423281 26.87830687830688,113.01587301587303 26.243386243386244,113.43915343915344 25.60846560846561,113.86243386243387 25.185185185185187,114.28571428571429 24.761904761904763,114.70899470899472 24.12698412698413,115.13227513227514 23.703703703703706,115.55555555555557 23.280423280423282,115.97883597883599 22.857142857142858,116.61375661375662 22.433862433862437,117.03703703703705 22.010582010582013,117.46031746031747 21.58730158730159,118.0952380952381 21.164021164021165,118.73015873015873 20.740740740740744,119.36507936507937 20.31746031746032,120.00000000000001 19.894179894179896,120.42328042328043 19.682539682539684,121.05820105820106 19.25925925925926,121.6931216931217 18.83597883597884,122.11640211640213 18.412698412698415,122.53968253968254 17.98941798941799,122.96296296296298 17.566137566137566,123.3862433862434 16.931216931216934,123.59788359788361 16.296296296296298,123.80952380952382 15.661375661375663,124.02116402116403 15.026455026455027,124.23280423280424 14.391534391534393,124.23280423280424 13.756613756613758,124.23280423280424 13.121693121693122,124.23280423280424 12.486772486772487,124.23280423280424 11.851851851851853,123.80952380952382 11.216931216931219,123.59788359788361 10.582010582010582,123.17460317460318 10.15873015873016,122.75132275132276 9.735449735449736,122.32804232804234 9.312169312169313,121.90476190476191 8.88888888888889,121.26984126984128 8.677248677248677,120.63492063492065 8.253968253968255,120.00000000000001 8.042328042328043,119.36507936507937 8.042328042328043,118.73015873015873 7.6190476190476195,118.0952380952381 7.6190476190476195,117.46031746031747 7.407407407407408,116.82539682539684 7.407407407407408,116.1904761904762 7.407407407407408,115.55555555555557 7.195767195767196,114.92063492063492 7.195767195767196,114.28571428571429 6.984126984126985,113.65079365079366 6.984126984126985,113.01587301587303 6.772486772486773,112.3809523809524 6.772486772486773,111.74603174603176 6.772486772486773,111.11111111111111 6.772486772486773,110.47619047619048 6.34920634920635,109.84126984126985 6.34920634920635,109.20634920634922 6.137566137566138,108.57142857142858 6.137566137566138,107.93650793650795 6.137566137566138,107.3015873015873 5.9259259259259265,106.66666666666667 5.9259259259259265,106.03174603174604 5.9259259259259265,105.3968253968254 5.714285714285714,104.76190476190477 5.714285714285714,104.12698412698414 5.714285714285714,103.4920634920635 5.714285714285714,102.85714285714286 5.502645502645503,102.22222222222223 5.502645502645503,101.5873015873016 5.502645502645503,100.95238095238096 5.291005291005291,100.31746031746033 5.291005291005291,99.68253968253968 5.291005291005291,99.04761904761905 5.291005291005291,98.41269841269842 5.291005291005291,97.77777777777779 5.291005291005291,97.14285714285715 5.07936507936508,96.50793650793652 5.07936507936508,95.87301587301587 5.07936507936508,95.23809523809524 5.07936507936508,94.60317460317461 4.867724867724868,93.96825396825398 4.867724867724868,93.33333333333334 4.867724867724868,92.69841269841271 4.867724867724868,92.06349206349208 4.656084656084657,91.42857142857143 4.656084656084657,90.7936507936508 4.444444444444445,90.15873015873017 4.444444444444445,89.52380952380953 4.2328042328042335,88.8888888888889 4.2328042328042335,88.25396825396827 4.2328042328042335,87.61904761904762 4.021164021164021,86.98412698412699 4.021164021164021,86.34920634920636 4.021164021164021,85.71428571428572 3.8095238095238098,85.07936507936509 3.8095238095238098,84.44444444444446 3.597883597883598,83.80952380952381 3.597883597883598,83.17460317460318 3.3862433862433865,82.53968253968254 3.174603174603175,81.90476190476191 3.174603174603175,81.26984126984128 3.174603174603175,80.63492063492065 2.9629629629629632,80.0 2.7513227513227516,79.36507936507937 2.7513227513227516,78.73015873015873 2.53968253968254,78.0952380952381 2.3280423280423284,77.46031746031747 2.3280423280423284,76.82539682539684 2.1164021164021167,76.19047619047619 2.1164021164021167,75.55555555555556 1.6931216931216932,75.13227513227514 1.6931216931216932,74.49735449735451 1.4814814814814816,73.86243386243387 1.26984126984127,73.22751322751323 1.0582010582010584,72.5925925925926 1.0582010582010584,71.95767195767196 0.8465608465608466,71.32275132275133 0.0,67.93650793650794" style="fill:none; stroke:#3300bb; stroke-width:1.0"  /><circle cx="0.0" cy="67.93650793650794" r="2.0" style="fill:none; stroke:#000000aa; stroke-width:0.25" /><circle cx="159.15343915343917" cy="-0.8465608465608466" r="2.0" style="fill:none; stroke:#000000aa; stroke-width:0.25" /><circle cx="209.10052910052912" cy="134.3915343915344" r="2.0" style="fill:none; stroke:#000000aa; stroke-width:0.25" /><circle cx="58.2010582010582" cy="190.47619047619048" r="2.0" style="fill:none; stroke:#000000aa; stroke-width:0.25" /><circle cx="0.21164021164021166" cy="68.14814814814815" r="2.0" style="fill:none; stroke:#ff3366aa; stroke-width:0.25" /><circle cx="159.7883597883598" cy="0.21164021164021166" r="2.0" style="fill:none; stroke:#ff3366aa; stroke-width:0.25" /><circle cx="208.8888888888889" cy="133.75661375661377" r="2.0" style="fill:none; stroke:#ff3366aa; stroke-width:0.25" /><circle cx="58.62433862433863" cy="189.84126984126985" r="2.0" style="fill:none; stroke:#ff3366aa; stroke-width:0.25" /><polyline points="11.005291005291006,63.280423280423285 10.370370370370372,63.492063492063494 9.735449735449736,63.70370370370371 9.312169312169313,64.12698412698413 8.677248677248677,64.12698412698413 8.042328042328043,64.55026455026456 7.407407407407408,64.76190476190477 6.772486772486773,64.97354497354497 6.137566137566138,65.18518518518519 5.502645502645503,65.60846560846561 4.867724867724868,65.82010582010582 4.2328042328042335,66.03174603174604 3.597883597883598,66.24338624338625 3.174603174603175,66.66666666666667" style="fill:none; stroke:#001100; stroke-width:1.0" /><polyline points="2.7513227513227516,79.36507936507937 2.7513227513227516,78.73015873015873 2.53968253968254,78.0952380952381 2.3280423280423284,77.46031746031747 2.3280423280423284,76.82539682539684 2.1164021164021167,76.19047619047619 2.1164021164021167,75.55555555555556 1.6931216931216932,75.13227513227514 1.6931216931216932,74.49735449735451 1.4814814814814816,73.86243386243387 1.26984126984127,73.22751322751323 1.0582010582010584,72.5925925925926 1.0582010582010584,71.95767195767196 0.8465608465608466,71.32275132275133" style="fill:none; stroke:#000011; stroke-width:1.0" /><polyline points="164.8677248677249,10.370370370370372 164.65608465608466,9.735449735449736 164.44444444444446,9.100529100529101 164.02116402116403,8.465608465608467 163.80952380952382,7.830687830687832 163.59788359788362,7.195767195767196 163.1746031746032,6.560846560846561 162.75132275132276,5.9259259259259265 162.53968253968256,5.291005291005291 162.11640211640213,4.867724867724868 161.6931216931217,4.2328042328042335 161.4814814814815,3.597883597883598 161.05820105820106,2.9629629629629632" style="fill:none; stroke:#001100; stroke-width:1.0" /><polyline points="149.41798941798942,6.137566137566138 149.84126984126985,5.714285714285714 150.26455026455028,5.291005291005291 150.8994708994709,5.07936507936508 151.32275132275134,4.444444444444445 151.95767195767198,4.021164021164021 152.5925925925926,3.597883597883598 153.22751322751324,3.174603174603175 153.86243386243387,2.7513227513227516 154.4973544973545,2.53968253968254 155.13227513227514,2.1164021164021167 155.55555555555557,1.6931216931216932 156.1904761904762,1.26984126984127 156.82539682539684,0.8465608465608466" style="fill:none; stroke:#000011; stroke-width:1.0" /><polyline points="198.30687830687833,138.62433862433863 198.94179894179896,138.41269841269843 199.5767195767196,138.2010582010582 200.21164021164023,137.989417989418 200.84656084656086,137.7777777777778 201.4814814814815,137.56613756613757 202.11640211640213,137.14285714285717 202.75132275132276,136.93121693121694 203.3862433862434,136.71957671957674 204.02116402116403,136.5079365079365 204.65608465608466,136.0846560846561 205.29100529100532,135.87301587301587 205.92592592592595,135.66137566137567" style="fill:none; stroke:#001100; stroke-width:1.0" /><polyline points="202.75132275132276,123.80952380952382 203.1746031746032,124.44444444444446 203.3862433862434,125.07936507936509 203.80952380952382,125.71428571428572 204.23280423280426,126.34920634920636 204.44444444444446,126.98412698412699 204.8677248677249,127.61904761904763 205.0793650793651,128.25396825396825 205.50264550264552,128.67724867724868 205.92592592592595,129.31216931216932 206.13756613756615,129.94708994708995 206.56084656084658,130.37037037037038 206.984126984127,131.005291005291" style="fill:none; stroke:#000011; stroke-width:1.0" /><polyline points="50.7936507936508,181.5873015873016 51.21693121693122,182.01058201058203 51.640211640211646,182.64550264550266 52.06349206349207,183.0687830687831 52.48677248677249,183.4920634920635 52.91005291005291,184.12698412698415 53.333333333333336,184.7619047619048 53.75661375661376,185.39682539682542 54.179894179894184,185.82010582010582 54.60317460317461,186.24338624338625 55.02645502645503,186.66666666666669 55.449735449735456,187.30158730158732 55.87301587301588,187.72486772486775" style="fill:none; stroke:#001100; stroke-width:1.0" /><polyline points="68.57142857142858,183.0687830687831 67.93650793650794,183.4920634920635 67.3015873015873,183.91534391534393 66.66666666666667,184.33862433862436 66.03174603174604,184.7619047619048 65.3968253968254,185.1851851851852 64.76190476190477,185.60846560846562 64.12698412698413,186.03174603174605 63.492063492063494,186.45502645502646 63.06878306878308,186.8783068783069 62.43386243386244,187.30158730158732 61.798941798941804,187.72486772486775 61.37566137566138,188.14814814814815" style="fill:none; stroke:#000011; stroke-width:1.0" /><polyline points="3.174603174603175,66.66666666666667 -16.296296296296298,75.13227513227514" style="fill:none; stroke:#ffaa00; stroke-width:0.4" /><polyline points="0.8465608465608466,71.32275132275133 -4.021164021164021,50.7936507936508" style="fill:none; stroke:#aaff00; stroke-width:0.4" /><polyline points="161.05820105820106,2.9629629629629632 151.32275132275134,-15.873015873015873" style="fill:none; stroke:#ffaa00; stroke-width:0.4" /><polyline points="156.82539682539684,0.8465608465608466 173.96825396825398,-11.428571428571429" style="fill:none; stroke:#aaff00; stroke-width:0.4" /><polyline points="205.92592592592595,135.66137566137567 225.60846560846562,128.04232804232805" style="fill:none; stroke:#ffaa00; stroke-width:0.4" /><polyline points="206.984126984127,131.005291005291 217.7777777777778,149.20634920634922" style="fill:none; stroke:#aaff00; stroke-width:0.4" /><polyline points="55.87301587301588,187.72486772486775 69.41798941798942,204.02116402116403" style="fill:none; stroke:#ffaa00; stroke-width:0.4" /><polyline points="61.37566137566138,188.14814814814815 44.021164021164026,200.42328042328043" style="fill:none; stroke:#aaff00; stroke-width:0.4" /><circle cx="114.70899470899472" cy="99.47089947089948" r="1.0" style="fill:#444444; stroke-width:0" /><circle cx="130.58201058201058" cy="95.02645502645504" r="10.582010582010582" style="fill:#ff770022; stroke-width:0" /><circle cx="130.58201058201058" cy="95.02645502645504" r="1.0" style="fill:#ff7700; stroke-width:0" /></svg>