<?xml version="1.0" encoding="UTF-8" standalone="no"?><svg width="436.1904761904762" height="568.8888888888889" viewBox="-10 -10 165.39682539682542 209.62962962962965" xmlns="http://www.w3.org/2000/svg" xmlns:xlink="http://www.w3.org/1999/xlink"><polyline points="46.98412698412699,0.21164021164021166 51.42857142857143,0.634920634920635 52.06349206349207,0.634920634920635 52.6984126984127,0.634920634920635 53.333333333333336,0.8465608465608466 53.968253968253975,0.8465608465608466 54.60317460317461,0.8465608465608466 55.23809523809524,1.0582010582010584 55.87301587301588,1.0582010582010584 56.50793650793651,1.0582010582010584 57.142857142857146,1.0582010582010584 57.777777777777786,1.4814814814814816 58.41269841269842,1.26984126984127 59.04761904761905,1.4814814814814816 59.682539682539684,1.26984126984127 60.31746031746032,1.4814814814814816 60.952380952380956,1.4814814814814816 61.58730158730159,1.6931216931216932 62.22222222222223,1.6931216931216932 62.85714285714286,1.6931216931216932 63.492063492063494,1.6931216931216932 64.12698412698413,1.9047619047619049 64.76190476190477,1.9047619047619049 65.3968253968254,1.9047619047619049 66.03174603174604,2.1164021164021167 66.66666666666667,2.1164021164021167 67.3015873015873,2.1164021164021167 67.93650793650794,2.3280423280423284 68.57142857142858,2.3280423280423284 69.20634920634922,2.3280423280423284 69.84126984126985,2.53968253968254 70.47619047619048,2.53968253968254 71.11111111111111,2.7513227513227516 71.74603174603175,2.7513227513227516 72.38095238095238,2.7513227513227516 73.01587301587303,2.7513227513227516 73.65079365079366,2.53968253968254 74.28571428571429,2.53968253968254 74.92063492063492,2.7513227513227516 75.55555555555556,2.7513227513227516 76.19047619047619,2.9629629629629632 76.82539682539684,2.9629629629629632 77.46031746031747,3.174603174603175 78.0952380952381,3.3862433862433865 78.73015873015873,3.174603174603175 79.36507936507937,3.3862433862433865 80.0,3.3862433862433865 80.63492063492065,3.3862433862433865 81.26984126984128,3.3862433862433865 81.6931216931217,3.8095238095238098 82.32804232804233,3.597883597883598 82.96296296296298,3.8095238095238098 83.59788359788361,3.8095238095238098 84.23280423280424,3.8095238095238098 84.86772486772487,3.8095238095238098 85.5026455026455,4.021164021164021 86.13756613756614,4.2328042328042335 86.77248677248677,4.2328042328042335 87.40740740740742,4.021164021164021 88.04232804232805,4.2328042328042335 88.67724867724868,4.2328042328042335 89.31216931216932,4.2328042328042335 89.94708994708995,4.444444444444445 90.58201058201058,4.444444444444445 91.21693121693123,4.444444444444445 91.85185185185186,4.656084656084657 92.4867724867725,4.656084656084657 93.12169312169313,4.656084656084657 93.75661375661376,4.867724867724868 94.39153439153439,4.867724867724868 95.02645502645504,4.867724867724868 95.66137566137567,5.07936507936508 96.2962962962963,5.291005291005291 96.93121693121694,5.07936507936508 97.56613756613757,5.291005291005291 98.2010582010582,5.291005291005291 98.83597883597885,5.502645502645503 99.47089947089948,5.502645502645503 100.10582010582011,5.502645502645503 100.74074074074075,5.502645502645503 101.37566137566138,5.714285714285714 102.01058201058201,5.714285714285714 102.64550264550266,5.714285714285714 103.28042328042329,5.714285714285714 103.91534391534393,5.9259259259259265 104.55026455026456,6.137566137566138 105.18518518518519,6.137566137566138 105.82010582010582,6.137566137566138 106.45502645502647,6.137566137566138 107.0899470899471,6.137566137566138 107.72486772486774,6.34920634920635 108.35978835978837,6.137566137566138 108.994708994709,6.137566137566138 109.62962962962963,6.34920634920635 110.26455026455027,6.560846560846561 110.89947089947091,6.560846560846561 111.53439153439155,6.560846560846561 112.16931216931218,6.560846560846561 112.80423280423281,6.560846560846561 113.43915343915344,6.560846560846561 114.07407407407408,6.772486772486773 114.70899470899472,6.772486772486773 115.34391534391536,6.984126984126985 115.97883597883599,6.984126984126985 116.61375661375662,6.984126984126985 117.24867724867725,6.984126984126985 117.88359788359789,6.984126984126985 118.51851851851853,7.195767195767196 119.15343915343917,7.195767195767196 119.7883597883598,7.407407407407408 120.42328042328043,7.407407407407408 121.05820105820106,7.407407407407408 121.6931216931217,7.6190476190476195 122.32804232804234,7.6190476190476195 122.96296296296298,7.6190476190476195 123.59788359788361,7.830687830687832 124.23280423280424,7.830687830687832 124.86772486772487,7.830687830687832 125.5026455026455,8.042328042328043 126.13756613756615,8.042328042328043 126.77248677248679,8.042328042328043 127.40740740740742,8.042328042328043 128.04232804232805,8.253968253968255 128.67724867724868,8.253968253968255 129.31216931216932,8.465608465608467 129.94708994708995,8.253968253968255 130.58201058201058,8.465608465608467 131.21693121693121,8.465608465608467 131.85185185185185,8.88888888888889 132.4867724867725,8.88888888888889 133.12169312169314,8.677248677248677 133.75661375661377,8.677248677248677 134.3915343915344,8.677248677248677 135.02645502645504,8.88888888888889 135.66137566137567,8.88888888888889 136.2962962962963,8.88888888888889 136.93121693121694,9.100529100529101 137.56613756613757,9.100529100529101 138.2010582010582,9.312169312169313 138.83597883597884,9.312169312169313 139.47089947089947,9.312169312169313 140.10582010582013,9.523809523809524 140.74074074074076,9.523809523809524 141.3756613756614,9.523809523809524 144.33862433862436,9.735449735449736" style="fill:none; stroke:#cc0000; stroke-width:3.0" stroke-dasharray="6,3" /><polyline points="144.33862433862436,9.735449735449736 144.55026455026456,13.333333333333334 144.76190476190476,13.96825396825397 144.76190476190476,14.603174603174605 144.76190476190476,15.238095238095239 144.76190476190476,15.873015873015873 144.76190476190476,16.50793650793651 144.76190476190476,17.142857142857146 144.76190476190476,17.77777777777778 144.76190476190476,18.412698412698415 144.76190476190476,19.047619047619047 144.76190476190476,19.682539682539684 144.76190476190476,20.31746031746032 144.76190476190476,20.952380952380953 144.973544973545,21.58730158730159 144.973544973545,22.222222222222225 144.973544973545,22.857142857142858 144.973544973545,23.492063492063494 144.973544973545,24.12698412698413 144.973544973545,24.761904761904763 144.973544973545,25.3968253968254 144.973544973545,26.031746031746035 144.973544973545,26.666666666666668 144.973544973545,27.301587301587304 144.973544973545,27.93650793650794 144.76190476190476,28.571428571428573 144.76190476190476,29.20634920634921 144.973544973545,29.841269841269842 144.76190476190476,30.476190476190478 144.76190476190476,31.111111111111114 144.76190476190476,31.746031746031747 144.76190476190476,32.38095238095239 144.973544973545,33.01587301587302 144.973544973545,33.65079365079365 144.973544973545,34.28571428571429 144.973544973545,34.920634920634924 144.973544973545,35.55555555555556 144.973544973545,36.19047619047619 144.973544973545,36.82539682539683 144.76190476190476,37.46031746031746 144.76190476190476,38.095238095238095 144.76190476190476,38.730158730158735 144.76190476190476,39.36507936507937 144.76190476190476,40.0 144.55026455026456,40.63492063492064 144.55026455026456,41.26984126984127 144.55026455026456,41.904761904761905 144.33862433862436,42.539682539682545 144.33862433862436,43.17460317460318 144.12698412698413,43.80952380952381 144.12698412698413,44.44444444444445 143.91534391534393,45.07936507936508 143.70370370370372,45.714285714285715 143.70370370370372,46.349206349206355 143.70370370370372,46.98412698412699 143.4920634920635,47.61904761904762 143.4920634920635,48.25396825396826 143.2804232804233,48.88888888888889 143.2804232804233,49.523809523809526 143.0687830687831,50.158730158730165 142.85714285714286,50.7936507936508 142.85714285714286,51.42857142857143 142.85714285714286,52.06349206349207 142.64550264550266,52.6984126984127 142.43386243386246,53.333333333333336 142.22222222222223,53.968253968253975 142.01058201058203,54.60317460317461 141.5873015873016,55.23809523809524 141.3756613756614,55.87301587301588 140.95238095238096,56.2962962962963 140.52910052910053,56.93121693121694 140.10582010582013,57.56613756613757 139.6825396825397,57.989417989417994 139.25925925925927,58.41269841269842 138.62433862433863,58.83597883597884 137.989417989418,59.04761904761905 137.56613756613757,59.470899470899475 136.93121693121694,59.682539682539684 136.2962962962963,59.8941798941799 135.66137566137567,59.8941798941799 135.02645502645504,60.10582010582011 134.3915343915344,60.10582010582011 133.75661375661377,59.8941798941799 133.12169312169314,59.8941798941799 132.4867724867725,59.682539682539684 131.85185185185185,59.470899470899475 131.21693121693121,59.25925925925927 130.58201058201058,58.83597883597884 129.94708994708995,58.62433862433863 129.31216931216932,58.41269841269842 128.67724867724868,57.989417989417994 128.04232804232805,57.777777777777786 127.40740740740742,57.35449735449736 126.77248677248679,56.93121693121694 126.13756613756615,56.50793650793651 125.5026455026455,56.08465608465609 124.86772486772487,55.87301587301588 124.23280423280424,55.449735449735456 123.59788359788361,55.02645502645503 122.96296296296298,54.81481481481482 122.32804232804234,54.39153439153439 121.6931216931217,54.179894179894184 121.05820105820106,53.968253968253975 120.42328042328043,53.75661375661376 119.7883597883598,53.333333333333336 119.15343915343917,53.12169312169313 118.51851851851853,52.91005291005291 117.88359788359789,52.6984126984127 117.24867724867725,52.48677248677249 116.61375661375662,52.27513227513228 115.97883597883599,52.06349206349207 115.34391534391536,51.851851851851855 114.70899470899472,51.851851851851855 114.07407407407408,51.640211640211646 113.43915343915344,51.42857142857143 112.80423280423281,51.42857142857143 112.16931216931218,51.21693121693122 111.53439153439155,51.21693121693122 110.89947089947091,51.21693121693122 110.26455026455027,51.42857142857143 109.62962962962963,51.640211640211646 108.994708994709,51.640211640211646 108.35978835978837,51.640211640211646 107.93650793650795,52.06349206349207 107.51322751322752,52.48677248677249 106.87830687830689,52.6984126984127 106.24338624338625,52.91005291005291 105.82010582010582,53.333333333333336 105.18518518518519,53.75661375661376 104.76190476190477,54.179894179894184 104.33862433862434,54.60317460317461 103.91534391534393,55.02645502645503 103.4920634920635,55.449735449735456 103.06878306878308,55.87301587301588 102.64550264550266,56.2962962962963 102.22222222222223,56.93121693121694 101.79894179894181,57.56613756613757 101.37566137566138,58.2010582010582 101.16402116402116,58.83597883597884 100.74074074074075,59.470899470899475 100.52910052910053,60.10582010582011 100.10582010582011,60.74074074074075 99.8941798941799,61.37566137566138 99.68253968253968,62.01058201058201 99.47089947089948,62.64550264550265 99.25925925925927,63.280423280423285 99.04761904761905,63.91534391534392 98.83597883597885,64.55026455026456 98.62433862433863,65.18518518518519 98.41269841269842,65.82010582010582 98.2010582010582,66.45502645502646 98.2010582010582,67.08994708994709 97.989417989418,67.72486772486774 97.989417989418,68.35978835978837 97.989417989418,68.994708994709 97.77777777777779,69.62962962962963 97.77777777777779,70.26455026455027 97.77777777777779,70.8994708994709 97.77777777777779,71.53439153439155 97.77777777777779,72.16931216931218 97.77777777777779,72.80423280423281 97.77777777777779,73.43915343915344 97.77777777777779,74.07407407407408 97.77777777777779,74.70899470899471 97.989417989418,75.34391534391536 97.989417989418,75.97883597883599 98.2010582010582,76.61375661375662 98.2010582010582,77.24867724867725 98.41269841269842,77.88359788359789 98.62433862433863,78.51851851851852 98.62433862433863,79.15343915343917 98.83597883597885,79.7883597883598 99.04761904761905,80.42328042328043 99.25925925925927,81.05820105820106 99.47089947089948,81.6931216931217 99.68253968253968,82.32804232804233 100.10582010582011,82.96296296296298 100.52910052910053,83.3862433862434 100.95238095238096,84.02116402116403 101.37566137566138,84.44444444444446 101.79894179894181,84.86772486772487 102.22222222222223,85.29100529100529 102.85714285714286,85.71428571428572 103.28042328042329,86.13756613756614 103.91534391534393,86.34920634920636 104.55026455026456,86.77248677248677 105.18518518518519,86.98412698412699 105.82010582010582,87.1957671957672 106.45502645502647,87.40740740740742 107.0899470899471,87.40740740740742 107.72486772486774,87.61904761904762 108.35978835978837,87.61904761904762 108.994708994709,87.61904761904762 109.62962962962963,87.83068783068784 110.26455026455027,87.61904761904762 110.89947089947091,87.83068783068784 111.53439153439155,87.83068783068784 112.16931216931218,88.04232804232805 112.80423280423281,87.83068783068784 113.43915343915344,87.83068783068784 114.07407407407408,87.83068783068784 114.70899470899472,87.61904761904762 115.34391534391536,87.40740740740742 115.97883597883599,87.1957671957672 116.61375661375662,86.98412698412699 117.24867724867725,86.77248677248677 117.88359788359789,86.56084656084657 118.51851851851853,86.34920634920636 119.15343915343917,86.34920634920636 119.7883597883598,86.13756613756614 120.42328042328043,85.92592592592594 121.05820105820106,85.71428571428572 121.6931216931217,85.5026455026455 122.32804232804234,85.5026455026455 122.75132275132276,85.07936507936509 123.3862433862434,85.07936507936509 124.02116402116403,85.07936507936509 124.65608465608466,85.07936507936509 125.2910052910053,85.07936507936509 125.92592592592594,85.07936507936509 126.56084656084657,84.86772486772487 127.1957671957672,85.07936507936509 127.83068783068784,85.07936507936509 128.46560846560848,85.07936507936509 129.10052910052912,85.29100529100529 129.73544973544975,85.5026455026455 130.37037037037038,85.92592592592594 131.005291005291,86.34920634920636 131.64021164021165,86.56084656084657 132.06349206349208,86.98412698412699 132.4867724867725,87.61904761904762 132.6984126984127,88.25396825396827 132.9100529100529,88.8888888888889 133.12169312169314,89.52380952380953 133.12169312169314,90.15873015873017 133.12169312169314,90.7936507936508 133.12169312169314,91.42857142857143 133.12169312169314,92.06349206349208 132.9100529100529,92.69841269841271 132.6984126984127,93.33333333333334 132.4867724867725,93.96825396825398 132.27513227513228,94.60317460317461 132.06349206349208,95.23809523809524 131.85185185185185,95.87301587301587 131.42857142857144,96.50793650793652 131.21693121693121,97.14285714285715 130.7936507936508,97.77777777777779 130.58201058201058,98.41269841269842 130.15873015873018,98.83597883597885 129.94708994708995,99.47089947089948 129.52380952380955,100.10582010582011 129.31216931216932,100.74074074074075 128.88888888888889,101.16402116402116 128.67724867724868,101.79894179894181 128.25396825396825,102.43386243386244 128.04232804232805,103.06878306878308 127.61904761904763,103.70370370370371 127.1957671957672,104.33862433862434 126.98412698412699,104.97354497354497 126.56084656084657,105.60846560846562 126.34920634920636,106.24338624338625 125.92592592592594,106.66666666666667 125.5026455026455,107.3015873015873 125.07936507936509,107.93650793650795 124.65608465608466,108.57142857142858 124.23280423280424,109.20634920634922 123.80952380952382,109.62962962962963 123.3862433862434,110.26455026455027 122.96296296296298,110.89947089947091 122.53968253968254,111.53439153439155 122.11640211640213,112.16931216931218 121.6931216931217,112.5925925925926 121.26984126984128,113.22751322751324 120.84656084656086,113.86243386243387 120.42328042328043,114.49735449735451 120.00000000000001,115.13227513227514 119.57671957671958,115.55555555555557 119.15343915343917,116.1904761904762 118.73015873015873,116.82539682539684 118.30687830687832,117.46031746031747 117.88359788359789,118.0952380952381 117.46031746031747,118.51851851851853 117.03703703703705,119.15343915343917 116.61375661375662,119.7883597883598 116.1904761904762,120.42328042328043 115.76719576719577,121.05820105820106 115.34391534391536,121.6931216931217 114.92063492063492,122.32804232804234 114.49735449735451,122.96296296296298 114.07407407407408,123.59788359788361 113.65079365079366,124.23280423280424 113.22751322751324,124.86772486772487 112.80423280423281,125.5026455026455 112.3809523809524,126.13756613756615 112.16931216931218,126.77248677248679 111.74603174603176,127.1957671957672 111.53439153439155,127.83068783068784 111.11111111111111,128.25396825396825 110.89947089947091,128.88888888888889 110.47619047619048,129.52380952380955 110.05291005291006,130.15873015873018 109.62962962962963,130.7936507936508 109.41798941798943,131.42857142857144 108.994708994709,131.85185185185185 108.78306878306879,132.4867724867725 108.35978835978837,133.12169312169314 108.14814814814815,133.75661375661377 107.72486772486774,134.3915343915344 107.3015873015873,135.02645502645504 107.0899470899471,135.66137566137567 106.66666666666667,136.2962962962963 106.45502645502647,136.93121693121694 106.03174603174604,137.56613756613757 106.03174603174604,138.2010582010582 105.60846560846562,138.83597883597884 105.3968253968254,139.47089947089947 104.97354497354497,140.10582010582013 104.76190476190477,140.74074074074076 104.33862433862434,141.3756613756614 104.12698412698414,142.01058201058203 103.70370370370371,142.64550264550266 103.4920634920635,143.2804232804233 103.28042328042329,143.91534391534393 103.06878306878308,144.55026455026456 102.85714285714286,145.1851851851852 102.64550264550266,145.82010582010582 102.22222222222223,146.45502645502646 102.01058201058201,147.0899470899471 101.79894179894181,147.72486772486775 101.5873015873016,148.35978835978838 101.37566137566138,148.99470899470901 101.16402116402116,149.62962962962965 100.95238095238096,150.26455026455028 100.74074074074075,150.8994708994709 100.74074074074075,151.53439153439155 100.52910052910053,152.16931216931218 99.47089947089948,154.92063492063494" style="fill:none; stroke:#999900; stroke-width:1.0"  /><polyline points="99.47089947089948,154.92063492063494 96.08465608465609,153.65079365079367 95.44973544973546,153.43915343915344 94.81481481481482,153.22751322751324 94.17989417989419,152.8042328042328 93.54497354497356,152.5925925925926 92.91005291005291,152.38095238095238 92.27513227513228,151.95767195767198 91.64021164021165,151.74603174603175 91.00529100529101,151.32275132275134 90.37037037037038,151.11111111111111 89.73544973544975,150.8994708994709 89.1005291005291,150.6878306878307 88.46560846560847,150.6878306878307 87.83068783068784,150.47619047619048 87.1957671957672,150.47619047619048 86.56084656084657,150.47619047619048 85.92592592592594,150.47619047619048 85.29100529100529,150.47619047619048 84.65608465608466,150.47619047619048 84.02116402116403,150.47619047619048 83.3862433862434,150.47619047619048 82.75132275132276,150.47619047619048 82.11640211640213,150.47619047619048 81.48148148148148,150.6878306878307 80.84656084656085,150.6878306878307 80.21164021164022,150.6878306878307 79.57671957671958,150.6878306878307 78.94179894179895,150.6878306878307 78.30687830687832,150.8994708994709 77.67195767195767,150.8994708994709 77.03703703703704,151.11111111111111 76.4021164021164,151.11111111111111 75.76719576719577,151.32275132275134 75.13227513227514,151.53439153439155 74.49735449735451,151.53439153439155 73.86243386243387,151.95767195767198 73.22751322751323,152.16931216931218 72.5925925925926,152.5925925925926 71.95767195767196,152.8042328042328 71.32275132275133,153.22751322751324 70.8994708994709,153.86243386243387 70.47619047619048,154.2857142857143 70.05291005291006,154.92063492063494 69.84126984126985,155.55555555555557 69.41798941798942,155.978835978836 69.20634920634922,156.61375661375664 68.994708994709,157.24867724867727 68.994708994709,157.8835978835979 68.994708994709,158.51851851851853 68.994708994709,159.15343915343917 69.20634920634922,159.7883597883598 69.41798941798942,160.42328042328043 69.62962962962963,161.05820105820106 69.84126984126985,161.6931216931217 70.05291005291006,162.32804232804233 70.47619047619048,162.75132275132276 70.6878306878307,163.3862433862434 71.11111111111111,164.02116402116403 71.53439153439155,164.65608465608466 71.95767195767196,165.2910052910053 72.38095238095238,165.92592592592595 72.80423280423281,166.56084656084658 73.22751322751323,166.984126984127 73.65079365079366,167.40740740740742 74.07407407407408,168.04232804232805 74.28571428571429,168.67724867724868 74.70899470899471,169.10052910052912 75.13227513227514,169.73544973544975 75.55555555555556,170.37037037037038 75.97883597883599,171.005291005291 76.4021164021164,171.64021164021165 76.82539682539684,172.27513227513228 77.03703703703704,172.9100529100529 77.46031746031747,173.33333333333334 77.67195767195767,173.96825396825398 77.67195767195767,174.6031746031746 77.88359788359789,175.23809523809524 77.88359788359789,175.87301587301587 77.88359788359789,176.50793650793653 77.67195767195767,177.14285714285717 77.67195767195767,177.7777777777778 77.67195767195767,178.41269841269843 77.46031746031747,179.04761904761907 77.46031746031747,179.6825396825397 77.24867724867725,180.31746031746033 77.03703703703704,180.95238095238096 76.61375661375662,181.5873015873016 76.19047619047619,182.22222222222223 75.76719576719577,182.85714285714286 75.34391534391536,183.4920634920635 74.92063492063492,184.12698412698415 74.49735449735451,184.55026455026456 74.07407407407408,184.973544973545 73.43915343915344,185.39682539682542 73.01587301587303,185.82010582010582 72.5925925925926,186.24338624338625 71.95767195767196,186.66666666666669 71.32275132275133,186.8783068783069 70.6878306878307,187.30158730158732 70.05291005291006,187.72486772486775 69.41798941798942,187.93650793650795 68.78306878306879,188.14814814814815 68.14814814814815,188.35978835978838 67.51322751322752,188.57142857142858 66.87830687830689,188.78306878306879 66.24338624338625,188.99470899470901 65.60846560846561,188.99470899470901 64.97354497354497,188.99470899470901 64.33862433862434,188.99470899470901 63.70370370370371,189.20634920634922 63.06878306878308,189.20634920634922 62.43386243386244,189.20634920634922 61.798941798941804,188.99470899470901 61.16402116402117,188.99470899470901 60.52910052910053,188.99470899470901 59.8941798941799,188.78306878306879 59.25925925925927,188.78306878306879 58.62433862433863,188.78306878306879 57.989417989417994,188.57142857142858 57.35449735449736,188.35978835978838 56.71957671957672,188.14814814814815 56.08465608465609,187.93650793650795 55.449735449735456,187.72486772486775 54.81481481481482,187.30158730158732 54.179894179894184,187.08994708994712 53.54497354497355,186.8783068783069 52.91005291005291,186.45502645502646 52.27513227513228,186.03174603174605 51.640211640211646,185.82010582010582 51.21693121693122,185.39682539682542 50.58201058201058,184.973544973545 50.158730158730165,184.55026455026456 49.73544973544974,184.12698412698415 49.31216931216932,183.70370370370372 48.88888888888889,183.0687830687831 48.46560846560847,182.64550264550266 48.25396825396826,182.01058201058203 47.830687830687836,181.5873015873016 47.40740740740741,180.95238095238096 47.195767195767196,180.31746031746033 46.98412698412699,179.6825396825397 46.77248677248678,179.04761904761907 46.560846560846564,178.41269841269843 46.349206349206355,177.7777777777778 46.349206349206355,177.14285714285717 46.349206349206355,176.50793650793653 46.13756613756614,175.87301587301587 46.13756613756614,175.23809523809524 46.13756613756614,174.6031746031746 46.349206349206355,173.96825396825398 46.349206349206355,173.33333333333334 46.560846560846564,172.6984126984127 46.560846560846564,172.06349206349208 46.77248677248678,171.42857142857144 47.195767195767196,170.7936507936508 47.40740740740741,170.15873015873018 47.830687830687836,169.52380952380955 48.25396825396826,169.10052910052912 48.46560846560847,168.46560846560848 48.88888888888889,167.83068783068785 49.31216931216932,167.19576719576722 49.73544973544974,166.56084656084658 50.158730158730165,166.13756613756615 50.58201058201058,165.50264550264552 50.58201058201058,164.8677248677249 51.00529100529101,164.23280423280426 51.21693121693122,163.59788359788362 51.42857142857143,162.96296296296296 51.640211640211646,162.32804232804233 51.640211640211646,161.6931216931217 51.851851851851855,161.05820105820106 51.640211640211646,160.42328042328043 51.640211640211646,159.7883597883598 51.640211640211646,159.15343915343917 51.42857142857143,158.51851851851853 51.21693121693122,157.8835978835979 50.7936507936508,157.24867724867727 50.370370370370374,156.61375661375664 49.94708994708995,156.1904761904762 49.523809523809526,155.76719576719577 49.1005291005291,155.34391534391534 48.46560846560847,154.92063492063494 47.830687830687836,154.7089947089947 47.195767195767196,154.4973544973545 46.560846560846564,154.2857142857143 45.92592592592593,154.07407407407408 45.29100529100529,154.07407407407408 44.65608465608466,153.86243386243387 44.021164021164026,153.86243386243387 43.386243386243386,153.86243386243387 42.75132275132275,153.65079365079367 42.11640211640212,153.65079365079367 41.48148148148149,153.65079365079367 40.84656084656085,153.65079365079367 40.211640211640216,153.43915343915344 39.57671957671958,153.43915343915344 38.94179894179894,153.22751322751324 38.30687830687831,153.43915343915344 37.67195767195768,153.43915343915344 37.03703703703704,153.43915343915344 36.402116402116405,153.22751322751324 35.76719576719577,153.22751322751324 35.13227513227513,153.22751322751324 34.4973544973545,153.22751322751324 33.86243386243387,153.01587301587304 33.22751322751323,153.01587301587304 32.592592592592595,153.01587301587304 31.95767195767196,153.01587301587304 31.322751322751326,152.8042328042328 30.68783068783069,152.8042328042328 30.052910052910054,152.8042328042328 29.41798941798942,152.8042328042328 28.783068783068785,152.5925925925926 28.14814814814815,152.5925925925926 27.513227513227516,152.5925925925926 26.87830687830688,152.38095238095238 26.243386243386244,152.38095238095238 25.60846560846561,152.38095238095238 24.973544973544975,152.16931216931218 24.338624338624342,152.16931216931218 23.703703703703706,151.95767195767198 23.06878306878307,151.95767195767198 19.47089947089947,151.53439153439155" style="fill:none; stroke:#00aa99; stroke-width:1.0"  /><polyline points="19.47089947089947,151.53439153439155 20.740740740740744,148.57142857142858 20.952380952380953,147.93650793650795 21.164021164021165,147.30158730158732 21.58730158730159,146.66666666666669 21.7989417989418,146.03174603174605 22.010582010582013,145.39682539682542 22.433862433862437,144.76190476190476 22.645502645502646,144.12698412698413 22.857142857142858,143.4920634920635 23.280423280423282,142.85714285714286 23.492063492063494,142.22222222222223 23.915343915343918,141.5873015873016 24.12698412698413,140.95238095238096 24.55026455026455,140.31746031746033 24.761904761904763,139.6825396825397 24.973544973544975,139.04761904761907 25.3968253968254,138.41269841269843 25.3968253968254,137.7777777777778 25.60846560846561,137.14285714285717 26.031746031746035,136.5079365079365 26.243386243386244,135.87301587301587 26.666666666666668,135.23809523809524 26.87830687830688,134.6031746031746 27.089947089947092,133.96825396825398 27.513227513227516,133.33333333333334 27.724867724867728,132.6984126984127 27.93650793650794,132.06349206349208 28.35978835978836,131.42857142857144 28.571428571428573,130.7936507936508 28.994708994708997,130.15873015873018 29.20634920634921,129.52380952380955 29.41798941798942,128.88888888888889 29.841269841269842,128.46560846560848 30.052910052910054,127.83068783068784 30.264550264550266,127.1957671957672 30.68783068783069,126.56084656084657 31.111111111111114,125.92592592592594 31.322751322751326,125.2910052910053 31.53439153439154,124.65608465608466 31.95767195767196,124.02116402116403 32.16931216931217,123.3862433862434 32.38095238095239,122.75132275132276 32.804232804232804,122.11640211640213 33.01587301587302,121.4814814814815 33.43915343915344,120.84656084656086 33.65079365079365,120.21164021164022 33.86243386243387,119.57671957671958 34.28571428571429,119.15343915343917 34.4973544973545,118.51851851851853 34.70899470899471,117.88359788359789 35.13227513227513,117.24867724867725 35.34391534391535,116.61375661375662 35.76719576719577,115.97883597883599 35.97883597883598,115.34391534391536 36.402116402116405,114.70899470899472 36.613756613756614,114.07407407407408 36.82539682539683,113.43915343915344 37.248677248677254,112.80423280423281 37.46031746031746,112.16931216931218 37.883597883597886,111.53439153439155 38.095238095238095,110.89947089947091 38.51851851851852,110.26455026455027 38.730158730158735,109.62962962962963 38.94179894179894,108.994708994709 39.36507936507937,108.35978835978837 39.57671957671958,107.72486772486774 39.78835978835979,107.0899470899471 40.211640211640216,106.45502645502647 40.423280423280424,105.82010582010582 40.84656084656085,105.18518518518519 41.058201058201064,104.55026455026456 41.26984126984127,103.91534391534393 41.48148148148149,103.28042328042329 41.48148148148149,102.64550264550266 41.6931216931217,102.01058201058201 41.6931216931217,101.37566137566138 41.6931216931217,100.74074074074075 41.6931216931217,100.10582010582011 41.6931216931217,99.47089947089948 41.6931216931217,98.83597883597885 41.6931216931217,98.2010582010582 41.48148148148149,97.56613756613757 41.058201058201064,96.93121693121694 40.84656084656085,96.2962962962963 40.63492063492064,95.66137566137567 40.211640211640216,95.02645502645504 40.0,94.39153439153439 39.57671957671958,93.96825396825398 39.15343915343916,93.54497354497356 38.730158730158735,92.91005291005291 38.095238095238095,92.4867724867725 37.46031746031746,92.06349206349208 36.82539682539683,91.64021164021165 36.19047619047619,91.42857142857143 35.55555555555556,91.21693121693123 34.920634920634924,90.7936507936508 34.28571428571429,90.7936507936508 33.65079365079365,90.58201058201058 33.01587301587302,90.58201058201058 32.38095238095239,90.58201058201058 31.746031746031747,90.58201058201058 31.111111111111114,90.7936507936508 30.476190476190478,90.7936507936508 29.841269841269842,90.7936507936508 29.20634920634921,91.00529100529101 28.571428571428573,91.21693121693123 27.93650793650794,91.21693121693123 27.301587301587304,91.42857142857143 26.666666666666668,91.64021164021165 26.031746031746035,91.85185185185186 25.3968253968254,92.06349206349208 24.761904761904763,92.27513227513228 24.12698412698413,92.69841269841271 23.492063492063494,92.69841269841271 22.857142857142858,93.12169312169313 22.222222222222225,93.33333333333334 21.58730158730159,93.75661375661376 20.952380952380953,93.96825396825398 20.31746031746032,94.39153439153439 19.682539682539684,94.81481481481482 19.047619047619047,95.02645502645504 18.412698412698415,95.44973544973546 17.77777777777778,95.66137566137567 17.142857142857146,96.08465608465609 16.50793650793651,96.2962962962963 15.873015873015873,96.50793650793652 15.238095238095239,96.71957671957672 14.603174603174605,96.71957671957672 13.96825396825397,96.93121693121694 13.333333333333334,96.93121693121694 12.6984126984127,97.14285714285715 12.063492063492065,97.14285714285715 11.428571428571429,97.35449735449737 10.793650793650794,97.35449735449737 10.15873015873016,97.35449735449737 9.523809523809524,97.56613756613757 8.88888888888889,97.56613756613757 8.253968253968255,97.35449735449737 7.6190476190476195,97.35449735449737 6.984126984126985,96.93121693121694 6.34920634920635,96.71957671957672 5.714285714285714,96.2962962962963 5.291005291005291,95.87301587301587 4.867724867724868,95.44973544973546 4.444444444444445,95.02645502645504 4.021164021164021,94.60317460317461 3.8095238095238098,93.96825396825398 3.3862433862433865,93.33333333333334 3.174603174603175,92.69841269841271 2.7513227513227516,92.06349206349208 2.53968253968254,91.42857142857143 2.3280423280423284,90.7936507936508 2.1164021164021167,90.15873015873017 1.9047619047619049,89.52380952380953 1.6931216931216932,88.8888888888889 1.4814814814814816,88.25396825396827 1.4814814814814816,87.61904761904762 1.26984126984127,86.98412698412699 1.26984126984127,86.34920634920636 1.0582010582010584,85.71428571428572 0.8465608465608466,85.07936507936509 0.8465608465608466,84.44444444444446 0.634920634920635,83.80952380952381 0.634920634920635,83.17460317460318 0.634920634920635,82.53968253968254 0.4232804232804233,81.90476190476191 0.4232804232804233,81.26984126984128 0.4232804232804233,80.63492063492065 0.21164021164021166,80.0 0.21164021164021166,79.36507936507937 0.21164021164021166,78.73015873015873 0.21164021164021166,78.0952380952381 0.21164021164021166,77.46031746031747 0.21164021164021166,76.82539682539684 0.21164021164021166,76.19047619047619 0.4232804232804233,75.55555555555556 0.4232804232804233,74.92063492063492 0.4232804232804233,74.28571428571429 0.4232804232804233,73.65079365079366 0.634920634920635,73.01587301587303 0.634920634920635,72.38095238095238 0.8465608465608466,71.74603174603175 0.8465608465608466,71.11111111111111 1.0582010582010584,70.47619047619048 1.26984126984127,69.84126984126985 1.26984126984127,69.20634920634922 1.4814814814814816,68.57142857142858 1.4814814814814816,67.93650793650794 1.6931216931216932,67.3015873015873 1.9047619047619049,66.66666666666667 2.1164021164021167,66.03174603174604 2.3280423280423284,65.3968253968254 2.53968253968254,64.76190476190477 2.7513227513227516,64.12698412698413 3.174603174603175,63.492063492063494 3.597883597883598,62.85714285714286 3.8095238095238098,62.22222222222223 4.2328042328042335,61.58730158730159 4.656084656084657,61.16402116402117 5.07936507936508,60.74074074074075 5.502645502645503,60.31746031746032 5.9259259259259265,59.8941798941799 6.34920634920635,59.470899470899475 6.772486772486773,59.04761904761905 7.195767195767196,58.41269841269842 7.830687830687832,57.989417989417994 8.253968253968255,57.56613756613757 8.677248677248677,57.142857142857146 9.312169312169313,56.71957671957672 9.947089947089948,56.2962962962963 10.582010582010582,56.08465608465609 11.216931216931219,55.87301587301588 11.851851851851853,55.661375661375665 12.486772486772487,55.449735449735456 13.121693121693122,55.23809523809524 13.756613756613758,55.23809523809524 14.391534391534393,55.449735449735456 15.026455026455027,55.449735449735456 15.661375661375663,55.449735449735456 16.296296296296298,55.661375661375665 16.931216931216934,55.87301587301588 17.566137566137566,56.08465608465609 18.201058201058203,56.08465608465609 18.624338624338627,56.50793650793651 19.25925925925926,56.50793650793651 19.894179894179896,56.93121693121694 20.529100529100532,57.142857142857146 21.164021164021165,57.56613756613757 21.7989417989418,57.777777777777786 22.433862433862437,58.2010582010582 22.857142857142858,58.62433862433863 23.492063492063494,58.83597883597884 24.12698412698413,59.25925925925927 24.55026455026455,59.682539682539684 24.973544973544975,60.10582010582011 25.3968253968254,60.52910052910053 26.031746031746035,60.952380952380956 26.455026455026456,61.37566137566138 27.089947089947092,61.798941798941804 27.513227513227516,62.22222222222223 27.93650793650794,62.64550264550265 28.571428571428573,63.06878306878308 29.20634920634921,63.492063492063494 29.629629629629633,63.91534391534392 30.052910052910054,64.33862433862434 30.476190476190478,64.76190476190477 30.899470899470902,65.18518518518519 31.53439153439154,65.60846560846561 31.95767195767196,66.03174603174604 32.592592592592595,66.45502645502646 33.22751322751323,66.87830687830689 33.86243386243387,67.08994708994709 34.4973544973545,67.51322751322752 35.13227513227513,67.51322751322752 35.55555555555556,67.93650793650794 36.19047619047619,67.93650793650794 36.82539682539683,67.93650793650794 37.46031746031746,67.93650793650794 38.095238095238095,67.93650793650794 38.730158730158735,67.72486772486774 39.36507936507937,67.51322751322752 40.0,67.3015873015873 40.63492063492064,67.08994708994709 41.26984126984127,66.66666666666667 41.6931216931217,66.24338624338625 42.32804232804233,65.82010582010582 42.75132275132275,65.3968253968254 43.17460317460318,64.76190476190477 43.5978835978836,64.33862433862434 43.80952380952381,63.70370370370371 44.232804232804234,63.280423280423285 44.44444444444445,62.64550264550265 44.867724867724874,62.01058201058201 45.07936507936508,61.37566137566138 45.29100529100529,60.74074074074075 45.50264550264551,60.10582010582011 45.50264550264551,59.470899470899475 45.714285714285715,58.83597883597884 45.92592592592593,58.2010582010582 45.92592592592593,57.56613756613757 46.13756613756614,56.93121693121694 46.349206349206355,56.2962962962963 46.560846560846564,55.661375661375665 46.560846560846564,55.02645502645503 46.77248677248678,54.39153439153439 46.98412698412699,53.75661375661376 46.98412698412699,53.12169312169313 47.195767195767196,52.48677248677249 47.40740740740741,51.851851851851855 47.40740740740741,51.21693121693122 47.40740740740741,50.58201058201058 47.61904761904762,49.94708994708995 47.830687830687836,49.31216931216932 47.830687830687836,48.677248677248684 48.042328042328045,48.042328042328045 48.042328042328045,47.40740740740741 48.25396825396826,46.77248677248678 48.25396825396826,46.13756613756614 48.46560846560847,45.50264550264551 48.46560846560847,44.867724867724874 48.677248677248684,44.232804232804234 48.677248677248684,43.5978835978836 48.88888888888889,42.96296296296297 48.88888888888889,42.32804232804233 48.88888888888889,41.6931216931217 49.1005291005291,41.058201058201064 49.1005291005291,40.423280423280424 49.1005291005291,39.78835978835979 49.31216931216932,39.15343915343916 49.31216931216932,38.51851851851852 49.31216931216932,37.883597883597886 49.523809523809526,37.248677248677254 49.523809523809526,36.613756613756614 49.523809523809526,35.97883597883598 49.73544973544974,35.34391534391535 49.73544973544974,34.70899470899471 49.73544973544974,34.074074074074076 49.73544973544974,33.43915343915344 49.523809523809526,32.804232804232804 49.73544973544974,32.16931216931217 49.73544973544974,31.53439153439154 49.73544973544974,30.899470899470902 49.73544973544974,30.264550264550266 49.73544973544974,29.629629629629633 49.73544973544974,28.994708994708997 49.73544973544974,28.35978835978836 49.94708994708995,27.724867724867728 49.94708994708995,27.089947089947092 49.94708994708995,26.455026455026456 49.94708994708995,25.820105820105823 49.94708994708995,25.185185185185187 49.94708994708995,24.55026455026455 49.94708994708995,23.915343915343918 49.94708994708995,23.280423280423282 49.94708994708995,22.645502645502646 49.94708994708995,22.010582010582013 49.94708994708995,21.375661375661377 49.73544973544974,20.740740740740744 49.94708994708995,20.105820105820108 49.73544973544974,19.47089947089947 49.73544973544974,18.83597883597884 49.73544973544974,18.201058201058203 49.73544973544974,17.566137566137566 49.73544973544974,16.931216931216934 49.523809523809526,16.296296296296298 49.523809523809526,15.661375661375663 49.523809523809526,15.026455026455027 49.523809523809526,14.391534391534393 49.31216931216932,13.756613756613758 49.31216931216932,13.121693121693122 49.31216931216932,12.486772486772487 49.1005291005291,11.851851851851853 49.1005291005291,11.216931216931219 49.1005291005291,10.582010582010582 48.88888888888889,9.947089947089948 48.88888888888889,9.312169312169313 48.88888888888889,8.677248677248677 48.677248677248684,8.042328042328043 48.46560846560847,7.407407407407408 48.25396825396826,6.772486772486773 48.25396825396826,6.137566137566138 48.042328042328045,5.502645502645503 48.042328042328045,4.867724867724868 47.830687830687836,4.2328042328042335 47.61904761904762,3.597883597883598 46.98412698412699,0.21164021164021166" style="fill:none; stroke:#3300bb; stroke-width:1.0"  /><circle cx="46.98412698412699" cy="0.21164021164021166" r="2.0" style="fill:none; stroke:#000000aa; stroke-width:0.25" /><circle cx="144.33862433862436" cy="9.735449735449736" r="2.0" style="fill:none; stroke:#000000aa; stroke-width:0.25" /><circle cx="99.47089947089948" cy="154.92063492063494" r="2.0" style="fill:none; stroke:#000000aa; stroke-width:0.25" /><circle cx="19.47089947089947" cy="151.53439153439155" r="2.0" style="fill:none; stroke:#000000aa; stroke-width:0.25" /><circle cx="48.25396825396826" cy="0.21164021164021166" r="2.0" style="fill:none; stroke:#ff3366aa; stroke-width:0.25" /><circle cx="144.55026455026456" cy="10.15873015873016" r="2.0" style="fill:none; stroke:#ff3366aa; stroke-width:0.25" /><circle cx="99.47089947089948" cy="155.13227513227514" r="2.0" style="fill:none; stroke:#ff3366aa; stroke-width:0.25" /><circle cx="19.894179894179896" cy="151.74603174603175" r="2.0" style="fill:none; stroke:#ff3366aa; stroke-width:0.25" /><polyline points="59.682539682539684,1.26984126984127 59.04761904761905,1.4814814814814816 58.41269841269842,1.26984126984127 57.777777777777786,1.4814814814814816 57.142857142857146,1.0582010582010584 56.50793650793651,1.0582010582010584 55.87301587301588,1.0582010582010584 55.23809523809524,1.0582010582010584 54.60317460317461,0.8465608465608466 53.968253968253975,0.8465608465608466 53.333333333333336,0.8465608465608466 52.6984126984127,0.634920634920635 52.06349206349207,0.634920634920635 51.42857142857143,0.634920634920635" style="fill:none; stroke:#001100; stroke-width:1.0" /><polyline points="49.1005291005291,11.851851851851853 49.1005291005291,11.216931216931219 49.1005291005291,10.582010582010582 48.88888888888889,9.947089947089948 48.88888888888889,9.312169312169313 48.88888888888889,8.677248677248677 48.677248677248684,8.042328042328043 48.46560846560847,7.407407407407408 48.25396825396826,6.772486772486773 48.25396825396826,6.137566137566138 48.042328042328045,5.502645502645503 48.042328042328045,4.867724867724868 47.830687830687836,4.2328042328042335 47.61904761904762,3.597883597883598" style="fill:none; stroke:#000011; stroke-width:1.0" /><polyline points="144.973544973545,21.58730158730159 144.76190476190476,20.952380952380953 144.76190476190476,20.31746031746032 144.76190476190476,19.682539682539684 144.76190476190476,19.047619047619047 144.76190476190476,18.412698412698415 144.76190476190476,17.77777777777778 144.76190476190476,17.142857142857146 144.76190476190476,16.50793650793651 144.76190476190476,15.873015873015873 144.76190476190476,15.238095238095239 144.76190476190476,14.603174603174605 144.76190476190476,13.96825396825397 144.55026455026456,13.333333333333334" style="fill:none; stroke:#001100; stroke-width:1.0" /><polyline points="133.12169312169314,8.677248677248677 133.75661375661377,8.677248677248677 134.3915343915344,8.677248677248677 135.02645502645504,8.88888888888889 135.66137566137567,8.88888888888889 136.2962962962963,8.88888888888889 136.93121693121694,9.100529100529101 137.56613756613757,9.100529100529101 138.2010582010582,9.312169312169313 138.83597883597884,9.312169312169313 139.47089947089947,9.312169312169313 140.10582010582013,9.523809523809524 140.74074074074076,9.523809523809524 141.3756613756614,9.523809523809524" style="fill:none; stroke:#000011; stroke-width:1.0" /><polyline points="88.46560846560847,150.6878306878307 89.1005291005291,150.6878306878307 89.73544973544975,150.8994708994709 90.37037037037038,151.11111111111111 91.00529100529101,151.32275132275134 91.64021164021165,151.74603174603175 92.27513227513228,151.95767195767198 92.91005291005291,152.38095238095238 93.54497354497356,152.5925925925926 94.17989417989419,152.8042328042328 94.81481481481482,153.22751322751324 95.44973544973546,153.43915343915344 96.08465608465609,153.65079365079367" style="fill:none; stroke:#001100; stroke-width:1.0" /><polyline points="103.28042328042329,143.91534391534393 103.06878306878308,144.55026455026456 102.85714285714286,145.1851851851852 102.64550264550266,145.82010582010582 102.22222222222223,146.45502645502646 102.01058201058201,147.0899470899471 101.79894179894181,147.72486772486775 101.5873015873016,148.35978835978838 101.37566137566138,148.99470899470901 101.16402116402116,149.62962962962965 100.95238095238096,150.26455026455028 100.74074074074075,150.8994708994709 100.74074074074075,151.53439153439155 100.52910052910053,152.16931216931218" style="fill:none; stroke:#000011; stroke-width:1.0" /><polyline points="24.12698412698413,140.95238095238096 23.915343915343918,141.5873015873016 23.492063492063494,142.22222222222223 23.280423280423282,142.85714285714286 22.857142857142858,143.4920634920635 22.645502645502646,144.12698412698413 22.433862433862437,144.76190476190476 22.010582010582013,145.39682539682542 21.7989417989418,146.03174603174605 21.58730158730159,146.66666666666669 21.164021164021165,147.30158730158732 20.952380952380953,147.93650793650795 20.740740740740744,148.57142857142858" style="fill:none; stroke:#001100; stroke-width:1.0" /><polyline points="31.322751322751326,152.8042328042328 30.68783068783069,152.8042328042328 30.052910052910054,152.8042328042328 29.41798941798942,152.8042328042328 28.783068783068785,152.5925925925926 28.14814814814815,152.5925925925926 27.513227513227516,152.5925925925926 26.87830687830688,152.38095238095238 26.243386243386244,152.38095238095238 25.60846560846561,152.38095238095238 24.973544973544975,152.16931216931218 24.338624338624342,152.16931216931218 23.703703703703706,151.95767195767198 23.06878306878307,151.95767195767198" style="fill:none; stroke:#000011; stroke-width:1.0" /><polyline points="51.42857142857143,0.634920634920635 30.264550264550266,-1.0582010582010584" style="fill:none; stroke:#ffaa00; stroke-width:0.4" /><polyline points="47.61904761904762,3.597883597883598 43.80952380952381,-17.142857142857146" style="fill:none; stroke:#aaff00; stroke-width:0.4" /><polyline points="144.55026455026456,13.333333333333334 143.4920634920635,-7.830687830687832" style="fill:none; stroke:#ffaa00; stroke-width:0.4" /><polyline points="141.3756613756614,9.523809523809524 162.32804232804233,11.640211640211641" style="fill:none; stroke:#aaff00; stroke-width:0.4" /><polyline points="96.08465608465609,153.65079365079367 115.76719576719577,161.2698412698413" style="fill:none; stroke:#ffaa00; stroke-width:0.4" /><polyline points="100.52910052910053,152.16931216931218 93.75661375661376,172.27513227513228" style="fill:none; stroke:#aaff00; stroke-width:0.4" /><polyline points="20.740740740740744,148.57142857142858 12.063492063492065,167.83068783068785" style="fill:none; stroke:#ffaa00; stroke-width:0.4" /><polyline points="23.06878306878307,151.95767195767198 2.1164021164021167,149.84126984126985" style="fill:none; stroke:#aaff00; stroke-width:0.4" /><circle cx="75.55555555555556" cy="82.53968253968254" r="1.0" style="fill:#444444; stroke-width:0" /><circle cx="76.61375661375662" cy="114.07407407407408" r="10.582010582010582" style="fill:#ff770022; stroke-width:0" /><circle cx="76.61375661375662" cy="114.07407407407408" r="1.0" style="fill:#ff7700; stroke-width:0" /></svg>