<?xml version="1.0" encoding="UTF-8" standalone="no"?><svg width="584.7619047619048" height="560.6349206349207" viewBox="-10 -10 214.92063492063494 206.8783068783069" xmlns="http://www.w3.org/2000/svg" xmlns:xlink="http://www.w3.org/1999/xlink"><polyline points="60.31746031746032,-0.21164021164021166 63.280423280423285,0.634920634920635 63.91534391534392,0.8465608465608466 64.55026455026456,1.0582010582010584 65.18518518518519,1.26984126984127 65.82010582010582,1.4814814814814816 66.45502645502646,1.6931216931216932 67.08994708994709,1.9047619047619049 67.72486772486774,2.1164021164021167 68.35978835978837,2.3280423280423284 68.994708994709,2.53968253968254 69.62962962962963,2.7513227513227516 70.26455026455027,2.7513227513227516 70.8994708994709,2.9629629629629632 71.53439153439155,3.174603174603175 72.16931216931218,3.174603174603175 72.80423280423281,3.3862433862433865 73.43915343915344,3.3862433862433865 74.07407407407408,3.597883597883598 74.70899470899471,3.597883597883598 75.34391534391536,3.597883597883598 75.97883597883599,3.8095238095238098 76.61375661375662,3.8095238095238098 77.24867724867725,3.8095238095238098 77.88359788359789,4.021164021164021 78.51851851851852,4.021164021164021 79.15343915343917,4.021164021164021 79.7883597883598,4.2328042328042335 80.42328042328043,4.2328042328042335 81.05820105820106,4.2328042328042335 81.6931216931217,4.2328042328042335 82.32804232804233,4.2328042328042335 82.96296296296298,4.2328042328042335 83.59788359788361,4.2328042328042335 84.23280423280424,4.444444444444445 84.86772486772487,4.444444444444445 85.5026455026455,4.444444444444445 86.13756613756614,4.656084656084657 86.77248677248677,4.656084656084657 87.40740740740742,4.444444444444445 88.04232804232805,4.444444444444445 88.67724867724868,4.444444444444445 89.31216931216932,4.444444444444445 89.94708994708995,4.656084656084657 90.58201058201058,4.656084656084657 91.21693121693123,4.867724867724868 91.85185185185186,4.867724867724868 92.4867724867725,4.867724867724868 93.12169312169313,5.07936507936508 93.75661375661376,5.07936507936508 94.39153439153439,5.07936507936508 95.02645502645504,5.07936507936508 95.66137566137567,5.291005291005291 96.2962962962963,5.291005291005291 96.93121693121694,5.502645502645503 97.56613756613757,5.502645502645503 98.2010582010582,5.502645502645503 98.83597883597885,5.714285714285714 99.47089947089948,5.714285714285714 100.10582010582011,5.9259259259259265 100.74074074074075,5.9259259259259265 101.37566137566138,5.9259259259259265 102.01058201058201,5.9259259259259265 102.64550264550266,6.137566137566138 103.28042328042329,6.34920634920635 103.91534391534393,6.34920634920635 104.55026455026456,6.34920634920635 105.18518518518519,6.560846560846561 105.82010582010582,6.560846560846561 106.45502645502647,6.772486772486773 107.0899470899471,6.772486772486773 107.72486772486774,6.772486772486773 108.35978835978837,6.772486772486773 108.994708994709,6.984126984126985 109.62962962962963,6.984126984126985 110.26455026455027,7.195767195767196 110.89947089947091,7.195767195767196 111.53439153439155,7.407407407407408 112.16931216931218,7.407407407407408 112.80423280423281,7.407407407407408 113.43915343915344,7.6190476190476195 114.07407407407408,7.6190476190476195 114.70899470899472,7.830687830687832 115.34391534391536,7.830687830687832 115.97883597883599,8.042328042328043 116.61375661375662,8.042328042328043 117.24867724867725,8.253968253968255 117.88359788359789,8.465608465608467 118.51851851851853,8.465608465608467 119.15343915343917,8.677248677248677 119.7883597883598,8.88888888888889 120.42328042328043,9.100529100529101 121.05820105820106,9.312169312169313 121.6931216931217,9.523809523809524 122.32804232804234,9.312169312169313 122.96296296296298,9.735449735449736 123.59788359788361,9.947089947089948 124.23280423280424,10.15873015873016 124.86772486772487,10.370370370370372 125.5026455026455,10.582010582010582 126.13756613756615,11.005291005291006 126.77248677248679,11.428571428571429 127.40740740740742,11.851851851851853 128.04232804232805,12.275132275132275 128.46560846560848,12.6984126984127 128.88888888888889,13.121693121693122 129.31216931216932,13.544973544973546 129.73544973544975,13.96825396825397 130.15873015873018,14.391534391534393 130.58201058201058,15.026455026455027 131.005291005291,15.661375661375663 131.42857142857144,16.296296296296298 131.85185185185185,16.71957671957672 132.06349206349208,17.354497354497354 132.4867724867725,17.98941798941799 132.6984126984127,18.624338624338627 132.9100529100529,19.25925925925926 132.9100529100529,19.894179894179896 133.12169312169314,20.529100529100532 133.12169312169314,21.164021164021165 133.33333333333334,21.7989417989418 133.33333333333334,22.433862433862437 133.33333333333334,23.06878306878307 133.12169312169314,23.703703703703706 133.12169312169314,24.338624338624342 133.12169312169314,24.973544973544975 132.9100529100529,25.60846560846561 132.9100529100529,26.243386243386244 132.4867724867725,26.87830687830688 132.06349206349208,27.513227513227516 131.85185185185185,28.14814814814815 131.42857142857144,28.783068783068785 131.21693121693121,29.41798941798942 130.7936507936508,30.052910052910054 130.37037037037038,30.68783068783069 129.94708994708995,31.111111111111114 129.52380952380955,31.746031746031747 129.10052910052912,32.38095238095239 128.67724867724868,32.804232804232804 128.25396825396825,33.22751322751323 127.83068783068784,33.65079365079365 127.1957671957672,34.074074074074076 126.56084656084657,34.4973544973545 125.92592592592594,34.920634920634924 125.2910052910053,35.34391534391535 124.65608465608466,35.76719576719577 124.23280423280424,36.19047619047619 123.59788359788361,36.613756613756614 122.96296296296298,37.03703703703704 122.53968253968254,37.46031746031746 122.11640211640213,37.883597883597886 121.6931216931217,38.30687830687831 121.26984126984128,38.730158730158735 120.84656084656086,39.15343915343916 120.42328042328043,39.57671957671958 120.00000000000001,40.0 119.57671957671958,40.423280423280424 119.15343915343917,40.84656084656085 118.73015873015873,41.26984126984127 118.30687830687832,41.6931216931217 117.88359788359789,42.32804232804233 117.46031746031747,42.75132275132275 117.03703703703705,43.386243386243386 116.61375661375662,44.021164021164026 116.1904761904762,44.65608465608466 115.97883597883599,45.29100529100529 115.55555555555557,45.92592592592593 115.34391534391536,46.560846560846564 115.13227513227514,47.195767195767196 115.13227513227514,47.830687830687836 114.92063492063492,48.46560846560847 114.92063492063492,49.1005291005291 114.92063492063492,49.73544973544974 114.92063492063492,50.370370370370374 115.13227513227514,51.00529100529101 115.34391534391536,51.640211640211646 115.55555555555557,52.27513227513228 115.55555555555557,52.91005291005291 115.76719576719577,53.54497354497355 115.97883597883599,54.179894179894184 116.4021164021164,54.81481481481482 116.61375661375662,55.449735449735456 117.03703703703705,56.08465608465609 117.46031746031747,56.71957671957672 117.88359788359789,57.35449735449736 118.30687830687832,57.989417989417994 118.73015873015873,58.41269841269842 119.15343915343917,59.04761904761905 119.57671957671958,59.470899470899475 120.00000000000001,59.8941798941799 120.42328042328043,60.52910052910053 120.84656084656086,60.952380952380956 121.26984126984128,61.37566137566138 121.90476190476191,61.798941798941804 122.32804232804234,62.22222222222223 122.96296296296298,62.43386243386244 123.3862433862434,62.85714285714286 124.02116402116403,63.280423280423285 124.65608465608466,63.70370370370371 125.2910052910053,64.12698412698413 125.92592592592594,64.55026455026456 126.56084656084657,64.76190476190477 127.1957671957672,65.18518518518519 127.83068783068784,65.3968253968254 128.46560846560848,65.60846560846561 129.10052910052912,65.60846560846561 129.73544973544975,65.82010582010582 130.37037037037038,66.24338624338625 131.005291005291,66.24338624338625 131.64021164021165,66.24338624338625 132.27513227513228,66.24338624338625 132.9100529100529,66.24338624338625 133.54497354497354,66.24338624338625 134.17989417989418,66.24338624338625 134.81481481481484,66.24338624338625 135.44973544973547,66.24338624338625 136.0846560846561,66.24338624338625 136.71957671957674,66.03174603174604 137.35449735449737,65.82010582010582 137.989417989418,65.82010582010582 138.62433862433863,65.3968253968254 139.25925925925927,65.3968253968254 139.6825396825397,64.97354497354497 140.31746031746033,64.76190476190477 140.95238095238096,64.33862433862434 141.5873015873016,63.91534391534392 142.22222222222223,63.492063492063494 142.85714285714286,63.06878306878308 143.2804232804233,62.64550264550265 143.70370370370372,62.22222222222223 144.12698412698413,61.798941798941804 144.55026455026456,61.37566137566138 144.973544973545,60.952380952380956 145.39682539682542,60.52910052910053 145.82010582010582,60.10582010582011 146.24338624338625,59.470899470899475 146.66666666666669,58.83597883597884 147.0899470899471,58.41269841269842 147.51322751322752,57.777777777777786 147.72486772486775,57.142857142857146 148.14814814814815,56.50793650793651 148.35978835978838,55.87301587301588 148.78306878306879,55.23809523809524 148.78306878306879,54.60317460317461 148.99470899470901,53.968253968253975 149.20634920634922,53.333333333333336 149.20634920634922,52.6984126984127 149.41798941798942,52.06349206349207 149.62962962962965,51.42857142857143 149.41798941798942,50.7936507936508 149.62962962962965,50.158730158730165 149.84126984126985,49.523809523809526 150.05291005291005,48.88888888888889 150.47619047619048,48.25396825396826 150.6878306878307,47.61904761904762 151.11111111111111,46.98412698412699 151.53439153439155,46.349206349206355 151.95767195767198,45.92592592592593 152.38095238095238,45.50264550264551 152.8042328042328,44.867724867724874 153.43915343915344,44.65608465608466 153.86243386243387,44.232804232804234 154.4973544973545,44.021164021164026 155.13227513227514,43.80952380952381 155.76719576719577,43.80952380952381 156.4021164021164,43.80952380952381 157.03703703703704,43.80952380952381 157.67195767195767,43.80952380952381 158.30687830687833,44.021164021164026 158.94179894179896,44.232804232804234 159.5767195767196,44.65608465608466 160.21164021164023,44.867724867724874 160.63492063492066,45.29100529100529 161.2698412698413,45.714285714285715 161.90476190476193,46.13756613756614 162.53968253968256,46.349206349206355 162.96296296296296,46.77248677248678 163.59788359788362,47.195767195767196 164.23280423280426,47.61904761904762 164.8677248677249,48.042328042328045 165.50264550264552,48.46560846560847 166.13756613756615,48.88888888888889 166.7724867724868,49.31216931216932 167.40740740740742,49.73544973544974 168.04232804232805,50.158730158730165 168.67724867724868,50.58201058201058 169.31216931216932,51.00529100529101 169.94708994708995,51.42857142857143 170.58201058201058,51.851851851851855 171.21693121693124,52.27513227513228 171.64021164021165,52.6984126984127 172.27513227513228,53.12169312169313 172.9100529100529,53.54497354497355 173.54497354497354,53.968253968253975 174.1798941798942,54.39153439153439 174.6031746031746,54.81481481481482 175.23809523809524,55.23809523809524 175.87301587301587,55.661375661375665 176.50793650793653,56.08465608465609 176.93121693121694,56.50793650793651 177.56613756613757,56.93121693121694 180.31746031746033,58.83597883597884" style="fill:none; stroke:#cc0000; stroke-width:1.0"  /><polyline points="180.31746031746033,58.83597883597884 177.989417989418,62.22222222222223 177.56613756613757,62.85714285714286 177.14285714285717,63.492063492063494 176.71957671957674,64.12698412698413 176.2962962962963,64.76190476190477 175.87301587301587,65.3968253968254 175.44973544973547,66.03174603174604 175.02645502645504,66.66666666666667 174.6031746031746,67.3015873015873 174.1798941798942,67.93650793650794 173.75661375661377,68.57142857142858 173.33333333333334,69.20634920634922 172.9100529100529,69.84126984126985 172.4867724867725,70.47619047619048 172.06349206349208,71.11111111111111 171.64021164021165,71.74603174603175 171.21693121693124,72.38095238095238 170.7936507936508,73.01587301587303 170.37037037037038,73.65079365079366 169.94708994708995,74.28571428571429 169.52380952380955,74.70899470899471 169.10052910052912,75.34391534391536 168.67724867724868,75.97883597883599 168.25396825396825,76.61375661375662 167.83068783068785,77.24867724867725 167.40740740740742,77.88359788359789 166.984126984127,78.30687830687832 166.56084656084658,78.94179894179895 166.13756613756615,79.57671957671958 165.71428571428572,80.0 165.2910052910053,80.63492063492065 164.8677248677249,81.05820105820106 164.44444444444446,81.6931216931217 164.02116402116403,82.32804232804233 163.59788359788362,82.75132275132276 163.1746031746032,83.3862433862434 162.75132275132276,83.80952380952381 162.32804232804233,84.44444444444446 161.90476190476193,84.86772486772487 161.4814814814815,85.5026455026455 161.2698412698413,86.13756613756614 160.84656084656086,86.77248677248677 160.63492063492066,87.40740740740742 160.42328042328043,88.04232804232805 160.0,88.67724867724868 160.0,89.31216931216932 159.7883597883598,89.94708994708995 159.7883597883598,90.58201058201058 159.7883597883598,91.21693121693123 159.7883597883598,91.85185185185186 159.7883597883598,92.4867724867725 160.0,93.12169312169313 160.21164021164023,93.75661375661376 160.42328042328043,94.39153439153439 160.84656084656086,95.02645502645504 161.2698412698413,95.66137566137567 161.6931216931217,96.2962962962963 162.11640211640213,96.71957671957672 162.53968253968256,97.14285714285715 162.96296296296296,97.56613756613757 163.59788359788362,97.989417989418 164.23280423280426,98.41269841269842 164.65608465608466,98.83597883597885 165.2910052910053,99.04761904761905 165.92592592592595,99.47089947089948 166.56084656084658,99.68253968253968 167.19576719576722,99.8941798941799 167.83068783068785,100.10582010582011 168.46560846560848,100.31746031746033 169.10052910052912,100.31746031746033 169.73544973544975,100.52910052910053 170.37037037037038,100.74074074074075 171.005291005291,100.74074074074075 171.64021164021165,100.74074074074075 172.27513227513228,100.74074074074075 172.9100529100529,100.52910052910053 173.54497354497354,100.74074074074075 174.1798941798942,100.74074074074075 174.81481481481484,100.52910052910053 175.44973544973547,100.52910052910053 176.0846560846561,100.31746031746033 176.71957671957674,100.31746031746033 177.35449735449737,100.10582010582011 177.989417989418,100.10582010582011 178.62433862433863,99.8941798941799 179.25925925925927,99.8941798941799 179.8941798941799,99.68253968253968 180.52910052910053,99.68253968253968 181.16402116402116,99.68253968253968 181.79894179894183,99.68253968253968 182.43386243386246,99.68253968253968 183.0687830687831,99.8941798941799 183.70370370370372,100.10582010582011 184.33862433862436,100.31746031746033 184.973544973545,100.52910052910053 185.60846560846562,100.95238095238096 186.24338624338625,101.16402116402116 186.8783068783069,101.5873015873016 187.51322751322752,102.01058201058201 187.93650793650795,102.43386243386244 188.57142857142858,102.85714285714286 188.99470899470901,103.28042328042329 189.41798941798945,103.70370370370371 189.84126984126985,104.12698412698414 190.26455026455028,104.55026455026456 190.6878306878307,105.18518518518519 191.11111111111111,105.82010582010582 191.53439153439155,106.24338624338625 191.95767195767198,106.87830687830689 192.16931216931218,107.51322751322752 192.5925925925926,107.93650793650795 192.8042328042328,108.57142857142858 193.22751322751324,108.994708994709 193.43915343915344,109.62962962962963 193.65079365079367,110.26455026455027 193.86243386243387,110.89947089947091 194.07407407407408,111.53439153439155 194.2857142857143,112.16931216931218 194.2857142857143,112.80423280423281 194.2857142857143,113.43915343915344 194.4973544973545,114.07407407407408 194.4973544973545,114.70899470899472 194.4973544973545,115.34391534391536 194.4973544973545,115.97883597883599 194.4973544973545,116.61375661375662 194.2857142857143,117.24867724867725 194.2857142857143,117.88359788359789 194.2857142857143,118.51851851851853 194.07407407407408,119.15343915343917 194.07407407407408,119.7883597883598 194.07407407407408,120.42328042328043 193.86243386243387,121.05820105820106 193.65079365079367,121.6931216931217 193.65079365079367,122.32804232804234 193.65079365079367,122.96296296296298 193.43915343915344,123.59788359788361 193.22751322751324,124.23280423280424 193.01587301587304,124.86772486772487 192.8042328042328,125.5026455026455 192.5925925925926,126.13756613756615 192.5925925925926,126.77248677248679 192.3809523809524,127.40740740740742 191.95767195767198,128.04232804232805 191.74603174603175,128.67724867724868 191.32275132275134,129.31216931216932 190.8994708994709,129.94708994708995 190.47619047619048,130.58201058201058 190.05291005291008,131.005291005291 189.62962962962965,131.64021164021165 189.20634920634922,132.06349206349208 188.78306878306879,132.4867724867725 188.14814814814815,132.9100529100529 187.72486772486775,133.33333333333334 187.08994708994712,133.75661375661377 186.45502645502646,134.17989417989418 185.82010582010582,134.3915343915344 185.1851851851852,134.81481481481484 184.55026455026456,135.02645502645504 183.91534391534393,135.23809523809524 183.2804232804233,135.44973544973547 182.64550264550266,135.66137566137567 182.01058201058203,135.66137566137567 181.3756613756614,135.87301587301587 180.74074074074076,135.87301587301587 180.10582010582013,136.0846560846561 179.4708994708995,136.0846560846561 178.83597883597884,135.87301587301587 178.2010582010582,135.87301587301587 177.56613756613757,135.87301587301587 176.93121693121694,135.87301587301587 176.2962962962963,135.66137566137567 175.66137566137567,135.44973544973547 175.02645502645504,135.23809523809524 174.3915343915344,135.02645502645504 173.75661375661377,134.81481481481484 173.12169312169314,134.6031746031746 172.4867724867725,134.17989417989418 171.85185185185188,133.96825396825398 171.21693121693124,133.54497354497354 170.58201058201058,133.33333333333334 169.94708994708995,132.9100529100529 169.31216931216932,132.6984126984127 168.8888888888889,132.27513227513228 168.25396825396825,132.06349206349208 167.83068783068785,131.64021164021165 167.19576719576722,131.21693121693121 166.56084656084658,130.7936507936508 166.13756613756615,130.37037037037038 165.50264550264552,129.94708994708995 165.0793650793651,129.52380952380955 164.44444444444446,129.10052910052912 164.02116402116403,128.67724867724868 163.59788359788362,128.25396825396825 163.1746031746032,127.61904761904763 162.75132275132276,127.1957671957672 162.32804232804233,126.56084656084657 161.90476190476193,125.92592592592594 161.6931216931217,125.2910052910053 161.2698412698413,124.65608465608466 160.84656084656086,124.02116402116403 160.84656084656086,123.3862433862434 160.42328042328043,122.75132275132276 160.21164021164023,122.11640211640213 159.7883597883598,121.4814814814815 159.36507936507937,121.05820105820106 158.94179894179896,120.63492063492065 158.51851851851853,120.00000000000001 158.0952380952381,119.57671957671958 157.67195767195767,119.15343915343917 157.03703703703704,118.73015873015873 156.4021164021164,118.30687830687832 155.76719576719577,117.88359788359789 155.13227513227514,117.46031746031747 154.4973544973545,117.24867724867725 153.86243386243387,117.03703703703705 153.22751322751324,116.61375661375662 152.5925925925926,116.4021164021164 151.95767195767198,116.1904761904762 151.32275132275134,115.97883597883599 150.6878306878307,115.76719576719577 150.05291005291005,115.55555555555557 149.41798941798942,115.34391534391536 148.78306878306879,115.34391534391536 148.14814814814815,115.13227513227514 147.51322751322752,115.13227513227514 146.8783068783069,115.13227513227514 146.24338624338625,115.13227513227514 145.60846560846562,115.34391534391536 144.973544973545,115.34391534391536 144.33862433862436,115.55555555555557 143.70370370370372,115.76719576719577 143.0687830687831,115.97883597883599 142.43386243386246,116.4021164021164 141.7989417989418,116.82539682539684 141.16402116402116,117.24867724867725 140.52910052910053,117.67195767195768 140.10582010582013,118.0952380952381 139.6825396825397,118.51851851851853 139.25925925925927,119.15343915343917 138.83597883597884,119.57671957671958 138.41269841269843,120.21164021164022 137.989417989418,120.84656084656086 137.7777777777778,121.4814814814815 137.35449735449737,121.90476190476191 136.93121693121694,122.53968253968254 136.5079365079365,123.17460317460318 136.0846560846561,123.80952380952382 135.66137566137567,124.44444444444446 135.23809523809524,125.07936507936509 134.81481481481484,125.71428571428572 134.3915343915344,126.34920634920636 134.17989417989418,126.98412698412699 133.75661375661377,127.40740740740742 133.54497354497354,128.04232804232805 133.12169312169314,128.46560846560848 132.9100529100529,129.10052910052912 132.4867724867725,129.52380952380955 132.27513227513228,130.15873015873018 131.85185185185185,130.58201058201058 131.42857142857144,131.005291005291 131.21693121693121,131.64021164021165 130.7936507936508,132.27513227513228 130.58201058201058,132.9100529100529 130.15873015873018,133.54497354497354 129.94708994708995,134.17989417989418 129.52380952380955,134.81481481481484 129.31216931216932,135.44973544973547 128.88888888888889,136.0846560846561 128.67724867724868,136.71957671957674 128.25396825396825,137.14285714285717 128.04232804232805,137.7777777777778 127.83068783068784,138.41269841269843 127.40740740740742,139.04761904761907 127.1957671957672,139.6825396825397 126.77248677248679,140.31746031746033 126.56084656084657,140.95238095238096 126.34920634920636,141.5873015873016 125.92592592592594,142.22222222222223 125.71428571428572,142.85714285714286 125.2910052910053,143.4920634920635 125.07936507936509,144.12698412698413 124.65608465608466,144.76190476190476 124.44444444444446,145.39682539682542 124.02116402116403,146.03174603174605 123.80952380952382,146.66666666666669 123.59788359788361,147.30158730158732 123.3862433862434,147.93650793650795 122.96296296296298,148.57142857142858 122.75132275132276,149.20634920634922 122.53968253968254,149.84126984126985 122.32804232804234,150.47619047619048 121.90476190476191,151.11111111111111 121.6931216931217,151.74603174603175 121.26984126984128,152.38095238095238 121.05820105820106,153.01587301587304 120.84656084656086,153.65079365079367 120.63492063492065,154.2857142857143 120.42328042328043,154.92063492063494 120.00000000000001,155.55555555555557 119.7883597883598,156.1904761904762 119.7883597883598,156.82539682539684 119.57671957671958,157.46031746031747 119.36507936507937,158.0952380952381 118.94179894179895,158.73015873015873 118.73015873015873,159.36507936507937 118.51851851851853,160.0 118.30687830687832,160.63492063492066 118.0952380952381,161.2698412698413 117.88359788359789,161.90476190476193 117.67195767195768,162.53968253968256 117.46031746031747,163.1746031746032 117.24867724867725,163.80952380952382 117.03703703703705,164.44444444444446 116.82539682539684,165.0793650793651 115.55555555555557,168.8888888888889" style="fill:none; stroke:#999900; stroke-width:1.0"  /><polyline points="115.55555555555557,168.8888888888889 112.3809523809524,168.25396825396825 111.74603174603176,168.04232804232805 111.11111111111111,168.04232804232805 110.47619047619048,168.04232804232805 109.84126984126985,167.83068783068785 109.20634920634922,167.61904761904762 108.57142857142858,167.61904761904762 107.93650793650795,167.40740740740742 107.3015873015873,167.19576719576722 106.66666666666667,167.19576719576722 106.03174603174604,166.984126984127 105.3968253968254,166.7724867724868 104.76190476190477,166.7724867724868 104.12698412698414,166.7724867724868 103.4920634920635,166.56084656084658 102.85714285714286,166.34920634920636 102.22222222222223,166.34920634920636 101.5873015873016,166.13756613756615 100.95238095238096,166.13756613756615 100.31746031746033,165.92592592592595 99.68253968253968,165.71428571428572 99.04761904761905,165.71428571428572 98.41269841269842,165.50264550264552 97.77777777777779,165.50264550264552 97.14285714285715,165.2910052910053 96.50793650793652,165.2910052910053 95.87301587301587,165.0793650793651 95.23809523809524,164.8677248677249 94.60317460317461,164.8677248677249 93.96825396825398,164.65608465608466 93.33333333333334,164.65608465608466 92.69841269841271,164.44444444444446 92.06349206349208,164.23280423280426 91.42857142857143,164.23280423280426 90.7936507936508,164.02116402116403 90.15873015873017,164.02116402116403 89.52380952380953,163.80952380952382 88.8888888888889,163.59788359788362 88.25396825396827,163.59788359788362 87.61904761904762,163.59788359788362 86.98412698412699,163.3862433862434 86.34920634920636,163.3862433862434 85.71428571428572,163.1746031746032 85.07936507936509,162.96296296296296 84.44444444444446,162.75132275132276 83.80952380952381,162.53968253968256 83.17460317460318,162.53968253968256 82.53968253968254,162.32804232804233 81.90476190476191,162.11640211640213 81.26984126984128,161.90476190476193 80.63492063492065,161.6931216931217 80.0,161.4814814814815 79.36507936507937,161.2698412698413 78.73015873015873,161.05820105820106 78.0952380952381,160.84656084656086 77.46031746031747,160.84656084656086 76.82539682539684,160.63492063492066 76.19047619047619,160.21164021164023 75.55555555555556,160.0 74.92063492063492,159.7883597883598 74.28571428571429,159.5767195767196 73.65079365079366,159.36507936507937 73.01587301587303,159.15343915343917 72.38095238095238,158.94179894179896 71.74603174603175,158.73015873015873 71.11111111111111,158.51851851851853 70.47619047619048,158.30687830687833 69.84126984126985,158.0952380952381 69.20634920634922,157.8835978835979 68.57142857142858,157.67195767195767 67.93650793650794,157.46031746031747 67.3015873015873,157.24867724867727 66.66666666666667,157.03703703703704 66.03174603174604,157.03703703703704 65.3968253968254,157.03703703703704 64.76190476190477,157.03703703703704 64.12698412698413,157.03703703703704 63.492063492063494,157.24867724867727 62.85714285714286,157.46031746031747 62.22222222222223,157.67195767195767 61.58730158730159,158.0952380952381 60.952380952380956,158.51851851851853 60.52910052910053,158.94179894179896 60.10582010582011,159.36507936507937 59.682539682539684,159.7883597883598 59.470899470899475,160.42328042328043 59.04761904761905,161.05820105820106 58.83597883597884,161.6931216931217 58.62433862433863,162.32804232804233 58.41269841269842,162.96296296296296 58.2010582010582,163.59788359788362 58.2010582010582,164.23280423280426 57.989417989417994,164.8677248677249 57.989417989417994,165.50264550264552 57.777777777777786,166.13756613756615 57.777777777777786,166.7724867724868 57.777777777777786,167.40740740740742 57.777777777777786,168.04232804232805 57.777777777777786,168.67724867724868 57.777777777777786,169.31216931216932 57.777777777777786,169.94708994708995 57.777777777777786,170.58201058201058 57.777777777777786,171.21693121693124 57.777777777777786,171.85185185185188 57.777777777777786,172.4867724867725 57.777777777777786,173.12169312169314 57.777777777777786,173.75661375661377 57.777777777777786,174.3915343915344 57.56613756613757,175.02645502645504 57.56613756613757,175.66137566137567 57.35449735449736,176.2962962962963 57.142857142857146,176.93121693121694 56.93121693121694,177.56613756613757 56.50793650793651,178.2010582010582 56.2962962962963,178.83597883597884 55.87301587301588,179.4708994708995 55.661375661375665,180.10582010582013 55.23809523809524,180.74074074074076 54.81481481481482,181.3756613756614 54.39153439153439,181.79894179894183 53.968253968253975,182.22222222222223 53.54497354497355,182.85714285714286 52.91005291005291,183.2804232804233 52.48677248677249,183.91534391534393 52.06349206349207,184.33862433862436 51.42857142857143,184.7619047619048 50.7936507936508,185.1851851851852 50.158730158730165,185.39682539682542 49.523809523809526,185.82010582010582 48.88888888888889,186.03174603174605 48.25396825396826,186.24338624338625 47.61904761904762,186.24338624338625 46.98412698412699,186.24338624338625 46.349206349206355,186.45502645502646 45.714285714285715,186.45502645502646 45.07936507936508,186.45502645502646 44.44444444444445,186.24338624338625 43.80952380952381,186.03174603174605 43.17460317460318,186.03174603174605 42.539682539682545,185.82010582010582 41.904761904761905,185.60846560846562 41.26984126984127,185.39682539682542 40.63492063492064,184.973544973545 40.0,184.7619047619048 39.36507936507937,184.55026455026456 38.730158730158735,184.12698412698415 38.095238095238095,183.70370370370372 37.46031746031746,183.4920634920635 36.82539682539683,183.0687830687831 36.19047619047619,182.64550264550266 35.55555555555556,182.22222222222223 34.920634920634924,181.79894179894183 34.4973544973545,181.3756613756614 33.86243386243387,180.95238095238096 33.43915343915344,180.52910052910053 33.01587301587302,180.10582010582013 32.38095238095239,179.6825396825397 31.95767195767196,179.25925925925927 31.53439153439154,178.83597883597884 31.111111111111114,178.41269841269843 30.68783068783069,177.989417989418 30.264550264550266,177.35449735449737 29.841269841269842,176.93121693121694 29.41798941798942,176.50793650793653 28.994708994708997,175.87301587301587 28.571428571428573,175.44973544973547 28.14814814814815,174.81481481481484 27.724867724867728,174.1798941798942 27.301587301587304,173.54497354497354 26.87830687830688,172.9100529100529 26.666666666666668,172.27513227513228 26.243386243386244,171.64021164021165 26.031746031746035,171.005291005291 25.820105820105823,170.37037037037038 25.3968253968254,169.73544973544975 25.3968253968254,169.10052910052912 25.185185185185187,168.46560846560848 25.185185185185187,167.83068783068785 25.185185185185187,167.19576719576722 25.3968253968254,166.56084656084658 25.60846560846561,165.92592592592595 25.820105820105823,165.2910052910053 26.031746031746035,164.65608465608466 26.455026455026456,164.02116402116403 26.666666666666668,163.3862433862434 27.089947089947092,162.75132275132276 27.513227513227516,162.11640211640213 27.93650793650794,161.6931216931217 28.35978835978836,161.05820105820106 28.783068783068785,160.63492063492066 29.20634920634921,160.21164021164023 29.629629629629633,159.7883597883598 30.264550264550266,159.36507936507937 30.68783068783069,158.94179894179896 31.322751322751326,158.51851851851853 31.95767195767196,158.0952380952381 32.592592592592595,157.67195767195767 33.01587301587302,157.24867724867727 33.65079365079365,156.82539682539684 34.074074074074076,156.4021164021164 34.4973544973545,155.978835978836 34.920634920634924,155.55555555555557 35.55555555555556,155.55555555555557 35.97883597883598,155.13227513227514 36.402116402116405,154.7089947089947 37.03703703703704,154.2857142857143 37.46031746031746,153.86243386243387 37.883597883597886,153.22751322751324 38.30687830687831,152.8042328042328 38.730158730158735,152.16931216931218 39.15343915343916,151.74603174603175 39.57671957671958,151.11111111111111 40.0,150.47619047619048 40.211640211640216,149.84126984126985 40.423280423280424,149.20634920634922 40.63492063492064,148.57142857142858 40.63492063492064,147.93650793650795 40.63492063492064,147.30158730158732 40.63492063492064,146.66666666666669 40.423280423280424,146.03174603174605 40.211640211640216,145.39682539682542 40.0,144.76190476190476 39.57671957671958,144.12698412698413 39.15343915343916,143.4920634920635 38.730158730158735,143.0687830687831 38.30687830687831,142.43386243386246 37.883597883597886,142.01058201058203 37.46031746031746,141.5873015873016 36.82539682539683,141.16402116402116 36.19047619047619,140.74074074074076 35.76719576719577,140.31746031746033 35.13227513227513,139.8941798941799 34.4973544973545,139.6825396825397 34.074074074074076,139.25925925925927 33.43915343915344,139.04761904761907 32.804232804232804,138.62433862433863 32.16931216931217,138.41269841269843 31.53439153439154,137.989417989418 30.899470899470902,137.7777777777778 30.264550264550266,137.35449735449737 29.629629629629633,137.14285714285717 28.994708994708997,136.71957671957674 28.35978835978836,136.5079365079365 27.724867724867728,136.2962962962963 27.089947089947092,136.0846560846561 26.455026455026456,135.66137566137567 25.820105820105823,135.44973544973547 25.185185185185187,135.23809523809524 24.55026455026455,134.81481481481484 23.915343915343918,134.6031746031746 23.280423280423282,134.3915343915344 22.645502645502646,134.17989417989418 22.010582010582013,133.96825396825398 21.375661375661377,133.75661375661377 20.740740740740744,133.54497354497354 20.105820105820108,133.12169312169314 19.47089947089947,132.9100529100529 18.83597883597884,132.6984126984127 18.201058201058203,132.4867724867725 17.566137566137566,132.4867724867725 16.931216931216934,132.4867724867725 16.296296296296298,132.27513227513228 15.661375661375663,132.06349206349208 15.026455026455027,131.64021164021165 14.391534391534393,131.42857142857144 13.756613756613758,131.21693121693121 13.121693121693122,131.005291005291 12.486772486772487,130.7936507936508 9.735449735449736,129.94708994708995" style="fill:none; stroke:#00aa99; stroke-width:1.0"  /><polyline points="9.735449735449736,129.94708994708995 11.428571428571429,126.34920634920636 11.851851851851853,125.71428571428572 12.063492063492065,125.07936507936509 12.486772486772487,124.65608465608466 12.6984126984127,124.02116402116403 13.121693121693122,123.59788359788361 13.333333333333334,122.96296296296298 13.544973544973546,122.32804232804234 13.96825396825397,121.6931216931217 14.17989417989418,121.05820105820106 14.603174603174605,120.42328042328043 15.026455026455027,119.7883597883598 15.026455026455027,119.15343915343917 15.449735449735451,118.73015873015873 15.873015873015873,118.0952380952381 16.296296296296298,117.46031746031747 16.71957671957672,116.82539682539684 17.142857142857146,116.1904761904762 17.566137566137566,115.55555555555557 17.77777777777778,114.92063492063492 18.201058201058203,114.28571428571429 18.624338624338627,113.65079365079366 19.047619047619047,113.01587301587303 19.47089947089947,112.5925925925926 19.894179894179896,111.95767195767196 20.105820105820108,111.32275132275133 20.529100529100532,110.89947089947091 20.952380952380953,110.47619047619048 21.375661375661377,109.84126984126985 21.7989417989418,109.41798941798943 22.222222222222225,108.994708994709 22.645502645502646,108.57142857142858 23.06878306878307,107.93650793650795 23.492063492063494,107.51322751322752 23.915343915343918,107.0899470899471 24.338624338624342,106.45502645502647 24.761904761904763,106.03174603174604 25.185185185185187,105.3968253968254 25.60846560846561,104.76190476190477 26.031746031746035,104.12698412698414 26.455026455026456,103.70370370370371 26.87830687830688,103.06878306878308 27.301587301587304,102.43386243386244 27.724867724867728,101.79894179894181 28.14814814814815,101.37566137566138 28.571428571428573,100.74074074074075 28.994708994708997,100.10582010582011 29.41798941798942,99.68253968253968 29.841269841269842,99.04761904761905 30.264550264550266,98.41269841269842 30.68783068783069,97.77777777777779 31.111111111111114,97.14285714285715 31.322751322751326,96.50793650793652 31.746031746031747,95.87301587301587 31.95767195767196,95.23809523809524 32.16931216931217,94.60317460317461 32.38095238095239,93.96825396825398 32.592592592592595,93.33333333333334 32.804232804232804,92.69841269841271 32.804232804232804,92.06349206349208 33.01587301587302,91.42857142857143 33.01587301587302,90.7936507936508 33.01587301587302,90.15873015873017 33.01587301587302,89.52380952380953 32.804232804232804,88.8888888888889 32.592592592592595,88.25396825396827 32.38095238095239,87.61904761904762 32.16931216931217,86.98412698412699 31.746031746031747,86.34920634920636 31.322751322751326,85.92592592592594 30.899470899470902,85.5026455026455 30.476190476190478,85.07936507936509 30.052910052910054,84.65608465608466 29.41798941798942,84.23280423280424 28.783068783068785,84.02116402116403 28.14814814814815,83.80952380952381 27.513227513227516,83.59788359788361 26.87830687830688,83.59788359788361 26.243386243386244,83.59788359788361 25.60846560846561,83.59788359788361 24.973544973544975,83.59788359788361 24.338624338624342,83.59788359788361 23.703703703703706,83.80952380952381 23.06878306878307,84.02116402116403 22.433862433862437,84.02116402116403 21.7989417989418,84.23280423280424 21.164021164021165,84.44444444444446 20.529100529100532,84.65608465608466 19.894179894179896,84.86772486772487 19.25925925925926,85.07936507936509 18.624338624338627,85.07936507936509 17.98941798941799,85.29100529100529 17.354497354497354,85.71428571428572 16.71957671957672,85.71428571428572 16.084656084656086,86.13756613756614 15.449735449735451,86.13756613756614 14.814814814814817,86.34920634920636 14.17989417989418,86.34920634920636 13.544973544973546,86.56084656084657 12.910052910052912,86.77248677248677 12.275132275132275,86.77248677248677 11.640211640211641,86.77248677248677 11.005291005291006,86.77248677248677 10.370370370370372,86.77248677248677 9.735449735449736,86.77248677248677 9.100529100529101,86.77248677248677 8.465608465608467,86.56084656084657 7.830687830687832,86.56084656084657 7.195767195767196,86.56084656084657 6.560846560846561,86.34920634920636 5.9259259259259265,86.13756613756614 5.291005291005291,85.92592592592594 4.656084656084657,85.5026455026455 4.021164021164021,85.29100529100529 3.3862433862433865,84.86772486772487 2.7513227513227516,84.44444444444446 2.3280423280423284,84.02116402116403 1.9047619047619049,83.59788359788361 1.4814814814814816,82.96296296296298 1.0582010582010584,82.32804232804233 0.8465608465608466,81.6931216931217 0.634920634920635,81.05820105820106 0.634920634920635,80.42328042328043 0.4232804232804233,79.7883597883598 0.4232804232804233,79.15343915343917 0.21164021164021166,78.51851851851852 0.21164021164021166,77.88359788359789 0.21164021164021166,77.24867724867725 0.21164021164021166,76.61375661375662 0.21164021164021166,75.97883597883599 0.21164021164021166,75.34391534391536 0.21164021164021166,74.70899470899471 0.21164021164021166,74.07407407407408 0.21164021164021166,73.43915343915344 0.21164021164021166,72.80423280423281 0.21164021164021166,72.16931216931218 0.21164021164021166,71.53439153439155 0.4232804232804233,70.8994708994709 0.4232804232804233,70.26455026455027 0.634920634920635,69.62962962962963 0.634920634920635,68.994708994709 0.8465608465608466,68.35978835978837 0.8465608465608466,67.72486772486774 1.0582010582010584,67.08994708994709 1.26984126984127,66.45502645502646 1.4814814814814816,65.82010582010582 1.6931216931216932,65.18518518518519 1.9047619047619049,64.55026455026456 1.9047619047619049,63.91534391534392 2.3280423280423284,63.280423280423285 2.53968253968254,62.64550264550265 2.7513227513227516,62.01058201058201 2.9629629629629632,61.37566137566138 3.3862433862433865,60.74074074074075 3.597883597883598,60.10582010582011 3.8095238095238098,59.470899470899475 4.2328042328042335,58.83597883597884 4.444444444444445,58.2010582010582 4.867724867724868,57.56613756613757 5.291005291005291,56.93121693121694 5.714285714285714,56.2962962962963 6.137566137566138,55.661375661375665 6.560846560846561,55.02645502645503 6.984126984126985,54.39153439153439 7.407407407407408,53.968253968253975 7.6190476190476195,53.333333333333336 8.042328042328043,52.91005291005291 8.465608465608467,52.27513227513228 8.88888888888889,51.851851851851855 9.100529100529101,51.21693121693122 9.523809523809524,50.7936507936508 9.947089947089948,50.370370370370374 10.370370370370372,49.94708994708995 10.793650793650794,49.523809523809526 11.428571428571429,49.1005291005291 12.063492063492065,48.677248677248684 12.6984126984127,48.25396825396826 13.333333333333334,48.042328042328045 13.756613756613758,47.61904761904762 14.391534391534393,47.61904761904762 15.026455026455027,47.195767195767196 15.661375661375663,47.195767195767196 16.296296296296298,47.195767195767196 16.931216931216934,47.195767195767196 17.566137566137566,46.98412698412699 18.201058201058203,46.98412698412699 18.83597883597884,46.98412698412699 19.47089947089947,46.98412698412699 20.105820105820108,46.98412698412699 20.740740740740744,47.195767195767196 21.375661375661377,47.40740740740741 22.010582010582013,47.61904761904762 22.645502645502646,47.830687830687836 23.280423280423282,48.042328042328045 23.915343915343918,48.46560846560847 24.55026455026455,48.88888888888889 25.185185185185187,49.31216931216932 25.820105820105823,49.73544973544974 26.243386243386244,50.158730158730165 26.666666666666668,50.58201058201058 27.089947089947092,51.21693121693122 27.513227513227516,51.640211640211646 27.93650793650794,52.06349206349207 28.35978835978836,52.48677248677249 28.783068783068785,52.91005291005291 29.20634920634921,53.54497354497355 29.629629629629633,53.968253968253975 30.052910052910054,54.39153439153439 30.476190476190478,54.81481481481482 30.899470899470902,55.449735449735456 31.322751322751326,55.87301587301588 31.746031746031747,56.2962962962963 32.16931216931217,56.71957671957672 32.592592592592595,57.142857142857146 33.01587301587302,57.56613756613757 33.65079365079365,57.989417989417994 34.28571428571429,58.2010582010582 34.920634920634924,58.41269841269842 35.55555555555556,58.83597883597884 36.19047619047619,58.83597883597884 36.82539682539683,59.04761904761905 37.46031746031746,59.04761904761905 38.095238095238095,59.04761904761905 38.730158730158735,59.04761904761905 39.36507936507937,58.83597883597884 40.0,58.62433862433863 40.63492063492064,58.41269841269842 41.058201058201064,57.989417989417994 41.48148148148149,57.56613756613757 41.904761904761905,57.142857142857146 42.32804232804233,56.71957671957672 42.75132275132275,56.2962962962963 43.17460317460318,55.661375661375665 43.386243386243386,55.02645502645503 43.80952380952381,54.39153439153439 44.021164021164026,53.75661375661376 44.232804232804234,53.12169312169313 44.44444444444445,52.48677248677249 44.44444444444445,51.851851851851855 44.44444444444445,51.21693121693122 44.65608465608466,50.58201058201058 44.867724867724874,49.94708994708995 45.07936507936508,49.31216931216932 45.07936507936508,48.677248677248684 45.29100529100529,48.042328042328045 45.50264550264551,47.40740740740741 45.50264550264551,46.77248677248678 45.714285714285715,46.13756613756614 45.714285714285715,45.50264550264551 45.92592592592593,44.867724867724874 45.92592592592593,44.232804232804234 45.92592592592593,43.5978835978836 46.13756613756614,42.96296296296297 46.349206349206355,42.32804232804233 46.349206349206355,41.6931216931217 46.349206349206355,41.058201058201064 46.560846560846564,40.423280423280424 46.560846560846564,39.78835978835979 46.77248677248678,39.15343915343916 46.77248677248678,38.51851851851852 46.77248677248678,37.883597883597886 46.77248677248678,37.248677248677254 46.98412698412699,36.613756613756614 46.98412698412699,35.97883597883598 46.98412698412699,35.34391534391535 46.98412698412699,34.70899470899471 46.98412698412699,34.074074074074076 46.98412698412699,33.43915343915344 46.98412698412699,32.804232804232804 46.77248677248678,32.16931216931217 46.77248677248678,31.53439153439154 46.77248677248678,30.899470899470902 46.77248677248678,30.264550264550266 46.77248677248678,29.629629629629633 46.77248677248678,28.994708994708997 46.560846560846564,28.35978835978836 46.560846560846564,27.724867724867728 46.560846560846564,27.089947089947092 46.560846560846564,26.455026455026456 46.560846560846564,25.820105820105823 46.560846560846564,25.185185185185187 46.77248677248678,24.55026455026455 46.77248677248678,23.915343915343918 46.77248677248678,23.280423280423282 46.98412698412699,22.645502645502646 47.195767195767196,22.010582010582013 47.195767195767196,21.375661375661377 47.40740740740741,20.740740740740744 47.61904761904762,20.105820105820108 47.830687830687836,19.47089947089947 48.042328042328045,18.83597883597884 48.25396825396826,18.201058201058203 48.25396825396826,17.566137566137566 48.677248677248684,16.931216931216934 48.677248677248684,16.296296296296298 49.1005291005291,15.661375661375663 49.31216931216932,15.026455026455027 49.523809523809526,14.391534391534393 49.73544973544974,13.756613756613758 50.158730158730165,13.333333333333334 50.58201058201058,12.910052910052912 50.7936507936508,12.275132275132275 51.21693121693122,11.640211640211641 51.640211640211646,11.005291005291006 52.06349206349207,10.582010582010582 52.27513227513228,9.947089947089948 52.6984126984127,9.312169312169313 52.91005291005291,8.677248677248677 53.333333333333336,8.042328042328043 53.75661375661376,7.407407407407408 54.179894179894184,6.772486772486773 54.81481481481482,6.34920634920635 55.23809523809524,5.714285714285714 55.661375661375665,5.291005291005291 56.08465608465609,4.867724867724868 56.50793650793651,4.444444444444445 56.93121693121694,3.8095238095238098 57.35449735449736,3.3862433862433865 57.777777777777786,2.9629629629629632 60.31746031746032,-0.21164021164021166" style="fill:none; stroke:#3300bb; stroke-width:1.0"  /><circle cx="60.31746031746032" cy="-0.21164021164021166" r="2.0" style="fill:none; stroke:#000000aa; stroke-width:0.25" /><circle cx="180.31746031746033" cy="58.83597883597884" r="2.0" style="fill:none; stroke:#000000aa; stroke-width:0.25" /><circle cx="115.55555555555557" cy="168.8888888888889" r="2.0" style="fill:none; stroke:#000000aa; stroke-width:0.25" /><circle cx="9.735449735449736" cy="129.94708994708995" r="2.0" style="fill:none; stroke:#000000aa; stroke-width:0.25" /><circle cx="60.10582010582011" cy="0.21164021164021166" r="2.0" style="fill:none; stroke:#ff3366aa; stroke-width:0.25" /><circle cx="179.6825396825397" cy="59.04761904761905" r="2.0" style="fill:none; stroke:#ff3366aa; stroke-width:0.25" /><circle cx="115.55555555555557" cy="168.46560846560848" r="2.0" style="fill:none; stroke:#ff3366aa; stroke-width:0.25" /><circle cx="9.735449735449736" cy="129.52380952380955" r="2.0" style="fill:none; stroke:#ff3366aa; stroke-width:0.25" /><polyline points="71.53439153439155,3.174603174603175 70.8994708994709,2.9629629629629632 70.26455026455027,2.7513227513227516 69.62962962962963,2.7513227513227516 68.994708994709,2.53968253968254 68.35978835978837,2.3280423280423284 67.72486772486774,2.1164021164021167 67.08994708994709,1.9047619047619049 66.45502645502646,1.6931216931216932 65.82010582010582,1.4814814814814816 65.18518518518519,1.26984126984127 64.55026455026456,1.0582010582010584 63.91534391534392,0.8465608465608466 63.280423280423285,0.634920634920635" style="fill:none; stroke:#001100; stroke-width:1.0" /><polyline points="52.6984126984127,9.312169312169313 52.91005291005291,8.677248677248677 53.333333333333336,8.042328042328043 53.75661375661376,7.407407407407408 54.179894179894184,6.772486772486773 54.81481481481482,6.34920634920635 55.23809523809524,5.714285714285714 55.661375661375665,5.291005291005291 56.08465608465609,4.867724867724868 56.50793650793651,4.444444444444445 56.93121693121694,3.8095238095238098 57.35449735449736,3.3862433862433865 57.777777777777786,2.9629629629629632" style="fill:none; stroke:#000011; stroke-width:1.0" /><polyline points="173.33333333333334,69.20634920634922 173.75661375661377,68.57142857142858 174.1798941798942,67.93650793650794 174.6031746031746,67.3015873015873 175.02645502645504,66.66666666666667 175.44973544973547,66.03174603174604 175.87301587301587,65.3968253968254 176.2962962962963,64.76190476190477 176.71957671957674,64.12698412698413 177.14285714285717,63.492063492063494 177.56613756613757,62.85714285714286 177.989417989418,62.22222222222223" style="fill:none; stroke:#001100; stroke-width:1.0" /><polyline points="170.58201058201058,51.851851851851855 171.21693121693124,52.27513227513228 171.64021164021165,52.6984126984127 172.27513227513228,53.12169312169313 172.9100529100529,53.54497354497355 173.54497354497354,53.968253968253975 174.1798941798942,54.39153439153439 174.6031746031746,54.81481481481482 175.23809523809524,55.23809523809524 175.87301587301587,55.661375661375665 176.50793650793653,56.08465608465609 176.93121693121694,56.50793650793651 177.56613756613757,56.93121693121694" style="fill:none; stroke:#000011; stroke-width:1.0" /><polyline points="104.12698412698414,166.7724867724868 104.76190476190477,166.7724867724868 105.3968253968254,166.7724867724868 106.03174603174604,166.984126984127 106.66666666666667,167.19576719576722 107.3015873015873,167.19576719576722 107.93650793650795,167.40740740740742 108.57142857142858,167.61904761904762 109.20634920634922,167.61904761904762 109.84126984126985,167.83068783068785 110.47619047619048,168.04232804232805 111.11111111111111,168.04232804232805 111.74603174603176,168.04232804232805 112.3809523809524,168.25396825396825" style="fill:none; stroke:#001100; stroke-width:1.0" /><polyline points="119.57671957671958,157.46031746031747 119.36507936507937,158.0952380952381 118.94179894179895,158.73015873015873 118.73015873015873,159.36507936507937 118.51851851851853,160.0 118.30687830687832,160.63492063492066 118.0952380952381,161.2698412698413 117.88359788359789,161.90476190476193 117.67195767195768,162.53968253968256 117.46031746031747,163.1746031746032 117.24867724867725,163.80952380952382 117.03703703703705,164.44444444444446 116.82539682539684,165.0793650793651" style="fill:none; stroke:#000011; stroke-width:1.0" /><polyline points="15.026455026455027,119.15343915343917 15.026455026455027,119.7883597883598 14.603174603174605,120.42328042328043 14.17989417989418,121.05820105820106 13.96825396825397,121.6931216931217 13.544973544973546,122.32804232804234 13.333333333333334,122.96296296296298 13.121693121693122,123.59788359788361 12.6984126984127,124.02116402116403 12.486772486772487,124.65608465608466 12.063492063492065,125.07936507936509 11.851851851851853,125.71428571428572 11.428571428571429,126.34920634920636" style="fill:none; stroke:#001100; stroke-width:1.0" /><polyline points="20.740740740740744,133.54497354497354 20.105820105820108,133.12169312169314 19.47089947089947,132.9100529100529 18.83597883597884,132.6984126984127 18.201058201058203,132.4867724867725 17.566137566137566,132.4867724867725 16.931216931216934,132.4867724867725 16.296296296296298,132.27513227513228 15.661375661375663,132.06349206349208 15.026455026455027,131.64021164021165 14.391534391534393,131.42857142857144 13.756613756613758,131.21693121693121 13.121693121693122,131.005291005291 12.486772486772487,130.7936507936508" style="fill:none; stroke:#000011; stroke-width:1.0" /><polyline points="63.280423280423285,0.634920634920635 42.96296296296297,-5.502645502645503" style="fill:none; stroke:#ffaa00; stroke-width:0.4" /><polyline points="57.777777777777786,2.9629629629629632 70.8994708994709,-13.544973544973546" style="fill:none; stroke:#aaff00; stroke-width:0.4" /><polyline points="177.989417989418,62.22222222222223 189.62962962962965,44.65608465608466" style="fill:none; stroke:#ffaa00; stroke-width:0.4" /><polyline points="177.56613756613757,56.93121693121694 194.70899470899474,69.41798941798942" style="fill:none; stroke:#aaff00; stroke-width:0.4" /><polyline points="112.3809523809524,168.25396825396825 133.12169312169314,172.06349206349208" style="fill:none; stroke:#ffaa00; stroke-width:0.4" /><polyline points="116.82539682539684,165.0793650793651 109.62962962962963,184.973544973545" style="fill:none; stroke:#aaff00; stroke-width:0.4" /><polyline points="11.428571428571429,126.34920634920636 1.9047619047619049,145.1851851851852" style="fill:none; stroke:#ffaa00; stroke-width:0.4" /><polyline points="12.486772486772487,130.7936507936508 -7.6190476190476195,124.02116402116403" style="fill:none; stroke:#aaff00; stroke-width:0.4" /><circle cx="89.1005291005291" cy="90.58201058201058" r="1.0" style="fill:#444444; stroke-width:0" /><circle cx="86.13756613756614" cy="102.85714285714286" r="10.582010582010582" style="fill:#ff770022; stroke-width:0" /><circle cx="86.13756613756614" cy="102.85714285714286" r="1.0" style="fill:#ff7700; stroke-width:0" /></svg>