<?xml version="1.0" encoding="UTF-8" standalone="no"?><svg width="535.2380952380953" height="511.11111111111114" viewBox="-10 -10 198.41269841269843 190.37037037037038" xmlns="http://www.w3.org/2000/svg" xmlns:xlink="http://www.w3.org/1999/xlink"><polyline points="40.84656084656085,18.412698412698415 43.80952380952381,17.142857142857146 44.44444444444445,17.142857142857146 45.07936507936508,16.71957671957672 45.714285714285715,16.50793650793651 46.349206349206355,16.296296296296298 46.98412698412699,16.084656084656086 47.61904761904762,15.661375661375663 48.25396825396826,15.449735449735451 48.88888888888889,15.238095238095239 49.523809523809526,15.026455026455027 49.94708994708995,14.603174603174605 50.370370370370374,14.17989417989418 51.00529100529101,13.96825396825397 51.640211640211646,13.756613756613758 52.27513227513228,13.333333333333334 52.91005291005291,13.121693121693122 53.54497354497355,12.6984126984127 54.179894179894184,12.486772486772487 54.81481481481482,12.063492063492065 55.449735449735456,11.851851851851853 56.08465608465609,11.428571428571429 56.71957671957672,11.005291005291006 57.35449735449736,10.793650793650794 57.989417989417994,10.370370370370372 58.62433862433863,9.947089947089948 59.25925925925927,9.523809523809524 59.8941798941799,9.312169312169313 60.31746031746032,8.88888888888889 60.952380952380956,8.677248677248677 61.58730158730159,8.253968253968255 62.22222222222223,7.830687830687832 62.85714285714286,7.407407407407408 63.492063492063494,6.984126984126985 64.12698412698413,6.560846560846561 64.76190476190477,6.34920634920635 65.18518518518519,5.9259259259259265 65.82010582010582,5.714285714285714 66.24338624338625,5.291005291005291 66.87830687830689,4.867724867724868 67.51322751322752,4.656084656084657 68.14814814814815,4.2328042328042335 68.78306878306879,4.021164021164021 69.41798941798942,3.597883597883598 70.05291005291006,3.597883597883598 70.6878306878307,3.3862433862433865 71.32275132275133,3.3862433862433865 71.95767195767196,3.3862433862433865 72.5925925925926,3.597883597883598 73.22751322751323,3.8095238095238098 73.86243386243387,4.021164021164021 74.49735449735451,4.444444444444445 74.92063492063492,4.867724867724868 75.34391534391536,5.291005291005291 75.76719576719577,5.714285714285714 76.19047619047619,6.137566137566138 76.61375661375662,6.772486772486773 76.82539682539684,7.407407407407408 77.03703703703704,8.042328042328043 77.24867724867725,8.677248677248677 77.46031746031747,9.312169312169313 77.67195767195767,9.947089947089948 77.67195767195767,10.582010582010582 77.67195767195767,11.216931216931219 77.67195767195767,11.851851851851853 77.67195767195767,12.486772486772487 77.46031746031747,13.121693121693122 77.46031746031747,13.756613756613758 77.24867724867725,14.391534391534393 77.03703703703704,15.026455026455027 76.82539682539684,15.661375661375663 76.82539682539684,16.296296296296298 76.61375661375662,16.931216931216934 76.4021164021164,17.566137566137566 76.19047619047619,18.201058201058203 75.97883597883599,18.83597883597884 75.76719576719577,19.47089947089947 75.55555555555556,20.105820105820108 75.34391534391536,20.740740740740744 75.13227513227514,21.375661375661377 74.92063492063492,22.010582010582013 74.92063492063492,22.645502645502646 74.70899470899471,23.280423280423282 74.70899470899471,23.915343915343918 74.49735449735451,24.55026455026455 74.49735449735451,25.185185185185187 74.49735449735451,25.820105820105823 74.49735449735451,26.455026455026456 74.49735449735451,27.089947089947092 74.70899470899471,27.724867724867728 74.92063492063492,28.35978835978836 75.13227513227514,28.994708994708997 75.34391534391536,29.629629629629633 75.55555555555556,30.264550264550266 75.76719576719577,30.899470899470902 76.19047619047619,31.53439153439154 76.61375661375662,32.16931216931217 77.03703703703704,32.804232804232804 77.46031746031747,33.22751322751323 77.88359788359789,33.65079365079365 78.51851851851852,34.074074074074076 79.15343915343917,34.4973544973545 79.7883597883598,34.70899470899471 80.21164021164022,35.13227513227513 80.84656084656085,35.13227513227513 81.48148148148148,35.34391534391535 82.11640211640213,35.55555555555556 82.75132275132276,35.76719576719577 83.3862433862434,35.76719576719577 84.02116402116403,35.76719576719577 84.44444444444446,36.19047619047619 85.07936507936509,36.19047619047619 85.71428571428572,35.97883597883598 86.34920634920636,35.97883597883598 86.98412698412699,35.97883597883598 87.61904761904762,35.97883597883598 88.25396825396827,35.97883597883598 88.8888888888889,35.97883597883598 89.52380952380953,35.97883597883598 90.15873015873017,36.19047619047619 90.7936507936508,35.97883597883598 91.42857142857143,35.97883597883598 92.06349206349208,35.97883597883598 92.69841269841271,35.97883597883598 93.33333333333334,35.97883597883598 93.96825396825398,35.76719576719577 94.60317460317461,35.76719576719577 95.23809523809524,35.55555555555556 95.87301587301587,35.34391534391535 96.50793650793652,35.34391534391535 97.14285714285715,35.34391534391535 97.77777777777779,35.13227513227513 98.41269841269842,35.13227513227513 99.04761904761905,34.920634920634924 99.68253968253968,34.70899470899471 100.31746031746033,34.28571428571429 100.95238095238096,34.074074074074076 101.37566137566138,33.65079365079365 102.01058201058201,33.43915343915344 102.43386243386244,33.01587301587302 102.85714285714286,32.592592592592595 103.28042328042329,32.16931216931217 103.70370370370371,31.746031746031747 104.12698412698414,31.322751322751326 104.55026455026456,30.899470899470902 104.97354497354497,30.264550264550266 105.3968253968254,29.841269841269842 105.82010582010582,29.20634920634921 106.03174603174604,28.571428571428573 106.45502645502647,27.93650793650794 106.45502645502647,27.301587301587304 106.87830687830689,26.666666666666668 107.0899470899471,26.031746031746035 107.3015873015873,25.3968253968254 107.72486772486774,24.761904761904763 107.72486772486774,24.12698412698413 107.93650793650795,23.492063492063494 107.93650793650795,22.857142857142858 107.93650793650795,22.222222222222225 107.93650793650795,21.58730158730159 107.93650793650795,20.952380952380953 107.72486772486774,20.31746031746032 107.72486772486774,19.682539682539684 107.51322751322752,19.047619047619047 107.3015873015873,18.412698412698415 107.3015873015873,17.77777777777778 107.0899470899471,17.142857142857146 106.87830687830689,16.50793650793651 106.66666666666667,15.873015873015873 106.45502645502647,15.238095238095239 106.03174603174604,14.603174603174605 105.82010582010582,13.96825396825397 105.60846560846562,13.333333333333334 105.3968253968254,12.6984126984127 105.18518518518519,12.063492063492065 104.97354497354497,11.428571428571429 104.55026455026456,10.793650793650794 104.33862433862434,10.15873015873016 103.91534391534393,9.523809523809524 103.70370370370371,8.88888888888889 103.4920634920635,8.253968253968255 103.28042328042329,7.6190476190476195 103.28042328042329,6.984126984126985 103.06878306878308,6.34920634920635 103.06878306878308,5.714285714285714 103.28042328042329,5.07936507936508 103.4920634920635,4.444444444444445 103.70370370370371,3.8095238095238098 103.91534391534393,3.174603174603175 104.33862433862434,2.53968253968254 104.76190476190477,2.1164021164021167 105.18518518518519,1.6931216931216932 105.60846560846562,1.26984126984127 106.24338624338625,1.0582010582010584 106.87830687830689,1.0582010582010584 107.3015873015873,0.634920634920635 107.93650793650795,0.4232804232804233 108.57142857142858,0.21164021164021166 109.20634920634922,0.21164021164021166 109.84126984126985,0.21164021164021166 110.47619047619048,0.21164021164021166 111.11111111111111,0.21164021164021166 111.74603174603176,0.21164021164021166 112.3809523809524,0.21164021164021166 113.01587301587303,0.21164021164021166 113.65079365079366,0.21164021164021166 114.28571428571429,0.21164021164021166 114.92063492063492,0.21164021164021166 115.55555555555557,0.21164021164021166 116.1904761904762,0.4232804232804233 116.82539682539684,0.4232804232804233 117.46031746031747,0.634920634920635 118.0952380952381,0.634920634920635 118.73015873015873,0.634920634920635 119.36507936507937,0.8465608465608466 120.00000000000001,1.0582010582010584 120.63492063492065,1.0582010582010584 121.26984126984128,1.0582010582010584 121.90476190476191,1.26984126984127 122.53968253968254,1.4814814814814816 123.17460317460318,1.6931216931216932 123.80952380952382,1.6931216931216932 124.44444444444446,1.9047619047619049 125.07936507936509,2.1164021164021167 125.71428571428572,2.3280423280423284 126.34920634920636,2.3280423280423284 126.98412698412699,2.53968253968254 127.61904761904763,2.7513227513227516 128.25396825396825,2.9629629629629632 128.88888888888889,2.9629629629629632 129.52380952380955,3.174603174603175 130.15873015873018,3.174603174603175 130.7936507936508,3.3862433862433865 131.21693121693121,3.8095238095238098 131.85185185185185,3.8095238095238098 132.4867724867725,4.021164021164021 133.12169312169314,4.2328042328042335 133.75661375661377,4.444444444444445 134.3915343915344,4.656084656084657 135.02645502645504,4.867724867724868 135.66137566137567,4.867724867724868 136.2962962962963,5.07936507936508 136.93121693121694,5.291005291005291 137.56613756613757,5.502645502645503 138.2010582010582,5.714285714285714 138.83597883597884,5.714285714285714 139.47089947089947,6.137566137566138 140.10582010582013,6.137566137566138 140.74074074074076,6.34920634920635 141.3756613756614,6.560846560846561 142.01058201058203,6.772486772486773 142.64550264550266,6.984126984126985 143.2804232804233,7.195767195767196 143.91534391534393,7.195767195767196 144.55026455026456,7.407407407407408 145.1851851851852,7.830687830687832 145.82010582010582,7.830687830687832 149.62962962962965,8.88888888888889" style="fill:none; stroke:#cc0000; stroke-width:1.0"  /><polyline points="149.62962962962965,8.88888888888889 148.14814814814815,12.486772486772487 147.72486772486775,13.121693121693122 147.51322751322752,13.756613756613758 147.30158730158732,14.391534391534393 147.0899470899471,15.026455026455027 146.8783068783069,15.661375661375663 146.66666666666669,16.296296296296298 146.24338624338625,16.931216931216934 146.03174603174605,17.566137566137566 145.82010582010582,18.201058201058203 145.60846560846562,18.83597883597884 145.39682539682542,19.47089947089947 145.1851851851852,20.105820105820108 144.973544973545,20.740740740740744 144.76190476190476,21.375661375661377 144.55026455026456,22.010582010582013 144.33862433862436,22.645502645502646 144.12698412698413,23.280423280423282 143.91534391534393,23.915343915343918 143.70370370370372,24.55026455026455 143.4920634920635,25.185185185185187 143.2804232804233,25.820105820105823 143.2804232804233,26.455026455026456 143.0687830687831,27.089947089947092 143.0687830687831,27.724867724867728 142.85714285714286,28.35978835978836 142.64550264550266,28.994708994708997 142.43386243386246,29.629629629629633 142.22222222222223,30.264550264550266 142.22222222222223,30.899470899470902 142.01058201058203,31.53439153439154 141.7989417989418,32.16931216931217 141.5873015873016,32.804232804232804 141.3756613756614,33.43915343915344 141.16402116402116,34.074074074074076 140.95238095238096,34.70899470899471 140.74074074074076,35.34391534391535 140.52910052910053,35.97883597883598 140.52910052910053,36.613756613756614 140.31746031746033,37.248677248677254 140.10582010582013,37.883597883597886 139.8941798941799,38.51851851851852 139.6825396825397,39.15343915343916 139.47089947089947,39.78835978835979 139.25925925925927,40.423280423280424 139.25925925925927,41.058201058201064 139.04761904761907,41.6931216931217 138.83597883597884,42.32804232804233 138.83597883597884,42.96296296296297 138.62433862433863,43.5978835978836 138.41269841269843,44.232804232804234 138.41269841269843,44.867724867724874 138.2010582010582,45.50264550264551 138.2010582010582,46.13756613756614 137.989417989418,46.77248677248678 137.989417989418,47.40740740740741 137.7777777777778,48.042328042328045 137.7777777777778,48.677248677248684 137.56613756613757,49.31216931216932 137.56613756613757,49.94708994708995 137.56613756613757,50.58201058201058 137.35449735449737,51.21693121693122 137.35449735449737,51.851851851851855 137.35449735449737,52.48677248677249 137.35449735449737,53.12169312169313 137.14285714285717,53.75661375661376 137.14285714285717,54.39153439153439 137.14285714285717,55.02645502645503 137.14285714285717,55.661375661375665 137.14285714285717,56.2962962962963 137.14285714285717,56.93121693121694 137.14285714285717,57.56613756613757 137.14285714285717,58.2010582010582 137.14285714285717,58.83597883597884 137.35449735449737,59.470899470899475 137.35449735449737,60.10582010582011 137.56613756613757,60.74074074074075 137.7777777777778,61.37566137566138 137.989417989418,62.01058201058201 138.41269841269843,62.43386243386244 138.83597883597884,62.85714285714286 139.25925925925927,63.280423280423285 139.6825396825397,63.70370370370371 140.31746031746033,64.12698412698413 140.74074074074076,64.55026455026456 141.3756613756614,64.76190476190477 142.01058201058203,65.18518518518519 142.64550264550266,65.3968253968254 143.2804232804233,65.60846560846561 143.91534391534393,65.60846560846561 144.55026455026456,65.82010582010582 145.1851851851852,65.82010582010582 145.82010582010582,66.03174603174604 146.45502645502646,66.03174603174604 147.0899470899471,66.03174603174604 147.72486772486775,66.03174603174604 148.14814814814815,65.60846560846561 148.78306878306879,65.82010582010582 149.41798941798942,65.60846560846561 150.05291005291005,65.3968253968254 150.6878306878307,65.18518518518519 151.32275132275134,64.97354497354497 151.95767195767198,64.55026455026456 152.5925925925926,64.55026455026456 153.22751322751324,64.12698412698413 153.86243386243387,63.91534391534392 154.4973544973545,63.492063492063494 155.13227513227514,63.280423280423285 155.76719576719577,62.85714285714286 156.4021164021164,62.64550264550265 156.82539682539684,62.22222222222223 157.46031746031747,62.01058201058201 158.0952380952381,61.798941798941804 158.73015873015873,61.58730158730159 159.36507936507937,61.16402116402117 160.0,61.16402116402117 160.63492063492066,61.16402116402117 161.2698412698413,60.952380952380956 161.90476190476193,60.952380952380956 162.53968253968256,60.74074074074075 163.1746031746032,60.74074074074075 163.80952380952382,60.74074074074075 164.44444444444446,60.952380952380956 165.0793650793651,60.952380952380956 165.71428571428572,60.952380952380956 166.34920634920636,60.952380952380956 166.984126984127,61.16402116402117 167.61904761904762,61.16402116402117 168.25396825396825,61.37566137566138 168.8888888888889,61.58730158730159 169.52380952380955,61.798941798941804 170.15873015873018,62.22222222222223 170.7936507936508,62.43386243386244 171.42857142857144,62.64550264550265 172.06349206349208,63.06878306878308 172.4867724867725,63.492063492063494 173.12169312169314,63.91534391534392 173.54497354497354,64.33862433862434 174.1798941798942,64.76190476190477 174.6031746031746,65.3968253968254 175.02645502645504,65.82010582010582 175.44973544973547,66.45502645502646 175.87301587301587,67.08994708994709 176.0846560846561,67.72486772486774 176.50793650793653,68.35978835978837 176.71957671957674,68.994708994709 177.14285714285717,69.41798941798942 177.14285714285717,70.05291005291006 177.56613756613757,70.6878306878307 177.56613756613757,71.32275132275133 177.7777777777778,71.95767195767196 177.7777777777778,72.5925925925926 177.7777777777778,73.22751322751323 177.7777777777778,73.86243386243387 177.7777777777778,74.49735449735451 177.7777777777778,75.13227513227514 177.7777777777778,75.76719576719577 177.7777777777778,76.4021164021164 177.7777777777778,77.03703703703704 177.7777777777778,77.67195767195767 177.56613756613757,78.30687830687832 177.56613756613757,78.94179894179895 177.56613756613757,79.57671957671958 177.35449735449737,80.21164021164022 177.35449735449737,80.84656084656085 177.14285714285717,81.48148148148148 176.93121693121694,82.11640211640213 176.93121693121694,82.75132275132276 176.71957671957674,83.3862433862434 176.50793650793653,84.02116402116403 176.2962962962963,84.65608465608466 176.0846560846561,85.29100529100529 175.66137566137567,85.92592592592594 175.44973544973547,86.56084656084657 175.23809523809524,87.1957671957672 175.02645502645504,87.83068783068784 174.6031746031746,88.46560846560847 174.3915343915344,89.1005291005291 173.96825396825398,89.73544973544975 173.75661375661377,90.37037037037038 173.33333333333334,90.7936507936508 173.12169312169314,91.42857142857143 172.6984126984127,91.85185185185186 172.27513227513228,92.27513227513228 171.85185185185188,92.91005291005291 171.42857142857144,93.54497354497356 171.005291005291,93.96825396825398 170.58201058201058,94.39153439153439 170.15873015873018,94.81481481481482 169.73544973544975,95.23809523809524 169.10052910052912,95.66137566137567 168.67724867724868,96.08465608465609 168.04232804232805,96.2962962962963 167.40740740740742,96.71957671957672 166.7724867724868,96.93121693121694 166.13756613756615,97.14285714285715 165.50264550264552,97.14285714285715 164.8677248677249,97.14285714285715 164.23280423280426,97.14285714285715 163.59788359788362,97.14285714285715 162.96296296296296,97.14285714285715 162.32804232804233,97.14285714285715 161.6931216931217,97.14285714285715 161.05820105820106,97.14285714285715 160.42328042328043,96.93121693121694 159.7883597883598,96.71957671957672 159.15343915343917,96.71957671957672 158.51851851851853,96.50793650793652 157.8835978835979,96.2962962962963 157.24867724867727,96.08465608465609 156.61375661375664,95.87301587301587 155.978835978836,95.66137566137567 155.34391534391534,95.66137566137567 154.7089947089947,95.44973544973546 154.07407407407408,95.02645502645504 153.43915343915344,94.81481481481482 152.8042328042328,94.39153439153439 152.16931216931218,94.17989417989419 151.53439153439155,93.96825396825398 150.8994708994709,93.54497354497356 150.26455026455028,93.33333333333334 149.62962962962965,92.91005291005291 148.99470899470901,92.69841269841271 148.35978835978838,92.27513227513228 147.72486772486775,92.06349206349208 147.0899470899471,92.06349206349208 146.45502645502646,91.85185185185186 145.82010582010582,91.64021164021165 145.1851851851852,91.64021164021165 144.55026455026456,91.64021164021165 143.91534391534393,91.85185185185186 143.2804232804233,92.06349206349208 142.64550264550266,92.27513227513228 142.01058201058203,92.4867724867725 141.5873015873016,92.91005291005291 141.16402116402116,93.33333333333334 140.74074074074076,93.75661375661376 140.31746031746033,94.17989417989419 139.8941798941799,94.81481481481482 139.47089947089947,95.44973544973546 139.25925925925927,96.08465608465609 139.04761904761907,96.71957671957672 138.62433862433863,97.35449735449737 138.83597883597884,97.989417989418 138.62433862433863,98.62433862433863 138.41269841269843,99.25925925925927 138.41269841269843,99.8941798941799 138.41269841269843,100.52910052910053 138.41269841269843,101.16402116402116 138.41269841269843,101.79894179894181 138.41269841269843,102.43386243386244 138.41269841269843,103.06878306878308 138.41269841269843,103.70370370370371 138.41269841269843,104.33862433862434 138.41269841269843,104.97354497354497 138.41269841269843,105.60846560846562 138.41269841269843,106.24338624338625 138.41269841269843,106.87830687830689 138.41269841269843,107.51322751322752 138.41269841269843,108.14814814814815 138.41269841269843,108.78306878306879 138.62433862433863,109.41798941798943 138.41269841269843,110.05291005291006 138.41269841269843,110.6878306878307 138.41269841269843,111.32275132275133 138.62433862433863,111.95767195767196 138.62433862433863,112.5925925925926 138.62433862433863,113.22751322751324 138.62433862433863,113.86243386243387 138.62433862433863,114.49735449735451 138.62433862433863,115.13227513227514 138.83597883597884,115.76719576719577 138.83597883597884,116.4021164021164 138.83597883597884,117.03703703703705 138.83597883597884,117.67195767195768 138.83597883597884,118.30687830687832 138.83597883597884,118.94179894179895 138.83597883597884,119.57671957671958 138.83597883597884,120.21164021164022 139.04761904761907,120.84656084656086 139.04761904761907,121.4814814814815 139.04761904761907,122.11640211640213 139.04761904761907,122.75132275132276 139.04761904761907,123.3862433862434 139.25925925925927,124.02116402116403 139.25925925925927,124.65608465608466 139.25925925925927,125.2910052910053 139.25925925925927,125.92592592592594 139.25925925925927,126.56084656084657 139.47089947089947,127.1957671957672 139.47089947089947,127.83068783068784 139.47089947089947,128.46560846560848 139.6825396825397,129.10052910052912 139.6825396825397,129.73544973544975 139.6825396825397,130.37037037037038 139.8941798941799,131.005291005291 139.8941798941799,131.64021164021165 139.8941798941799,132.27513227513228 140.10582010582013,132.9100529100529 140.10582010582013,133.54497354497354 140.31746031746033,134.17989417989418 140.31746031746033,134.81481481481484 140.52910052910053,135.44973544973547 140.52910052910053,136.0846560846561 140.52910052910053,136.71957671957674 140.52910052910053,137.35449735449737 140.74074074074076,137.989417989418 140.74074074074076,138.62433862433863 140.95238095238096,139.25925925925927 140.95238095238096,139.8941798941799 140.95238095238096,140.52910052910053 141.16402116402116,141.16402116402116 141.16402116402116,141.7989417989418 141.3756613756614,142.43386243386246 141.3756613756614,143.0687830687831 141.3756613756614,143.70370370370372 141.5873015873016,144.33862433862436 141.5873015873016,144.973544973545 141.7989417989418,145.60846560846562 142.01058201058203,146.24338624338625 142.01058201058203,146.8783068783069 142.22222222222223,147.51322751322752 142.22222222222223,148.14814814814815 142.43386243386246,148.78306878306879 142.43386243386246,149.41798941798942 142.64550264550266,150.05291005291005 142.85714285714286,150.6878306878307 142.85714285714286,151.32275132275134 143.0687830687831,151.95767195767198 143.2804232804233,152.5925925925926 143.4920634920635,153.22751322751324 143.70370370370372,153.86243386243387 143.91534391534393,154.4973544973545 143.91534391534393,155.13227513227514 144.12698412698413,155.76719576719577 144.12698412698413,156.4021164021164 144.33862433862436,157.03703703703704 144.55026455026456,157.67195767195767 145.39682539682542,160.63492063492066" style="fill:none; stroke:#999900; stroke-width:1.0"  /><polyline points="145.39682539682542,160.63492063492066 142.01058201058203,161.90476190476193 141.3756613756614,162.32804232804233 140.74074074074076,162.53968253968256 140.10582010582013,162.75132275132276 139.47089947089947,162.96296296296296 138.83597883597884,163.3862433862434 138.2010582010582,163.59788359788362 137.56613756613757,163.80952380952382 136.93121693121694,164.02116402116403 136.2962962962963,164.23280423280426 135.66137566137567,164.44444444444446 135.02645502645504,164.8677248677249 134.3915343915344,165.0793650793651 133.75661375661377,165.0793650793651 133.12169312169314,165.50264550264552 132.4867724867725,165.71428571428572 131.85185185185185,165.71428571428572 131.42857142857144,166.13756613756615 130.7936507936508,166.34920634920636 130.15873015873018,166.34920634920636 129.52380952380955,166.56084656084658 128.88888888888889,166.7724867724868 128.25396825396825,166.984126984127 127.61904761904763,167.19576719576722 126.98412698412699,167.40740740740742 126.34920634920636,167.61904761904762 125.71428571428572,167.61904761904762 125.07936507936509,167.83068783068785 124.44444444444446,168.04232804232805 123.80952380952382,168.04232804232805 123.17460317460318,168.25396825396825 122.53968253968254,168.46560846560848 121.90476190476191,168.46560846560848 121.26984126984128,168.67724867724868 120.63492063492065,168.67724867724868 120.00000000000001,169.10052910052912 119.36507936507937,169.10052910052912 118.73015873015873,169.31216931216932 118.0952380952381,169.31216931216932 117.46031746031747,169.52380952380955 116.82539682539684,169.52380952380955 116.1904761904762,169.52380952380955 115.55555555555557,169.52380952380955 114.92063492063492,169.52380952380955 114.28571428571429,169.73544973544975 113.65079365079366,169.73544973544975 113.01587301587303,169.94708994708995 112.3809523809524,169.94708994708995 111.74603174603176,169.94708994708995 111.11111111111111,169.94708994708995 110.47619047619048,169.94708994708995 109.84126984126985,169.73544973544975 109.20634920634922,169.73544973544975 108.57142857142858,169.52380952380955 107.93650793650795,169.31216931216932 107.3015873015873,169.10052910052912 106.66666666666667,168.8888888888889 106.03174603174604,168.46560846560848 105.3968253968254,168.04232804232805 104.97354497354497,167.61904761904762 104.33862433862434,167.40740740740742 103.91534391534393,166.7724867724868 103.4920634920635,166.34920634920636 103.28042328042329,165.71428571428572 102.85714285714286,165.0793650793651 102.64550264550266,164.44444444444446 102.43386243386244,163.80952380952382 102.43386243386244,163.1746031746032 102.43386243386244,162.53968253968256 102.43386243386244,161.90476190476193 102.43386243386244,161.2698412698413 102.64550264550266,160.63492063492066 102.64550264550266,160.0 102.85714285714286,159.36507936507937 103.06878306878308,158.73015873015873 103.28042328042329,158.0952380952381 103.70370370370371,157.46031746031747 103.91534391534393,156.82539682539684 104.33862433862434,156.1904761904762 104.55026455026456,155.55555555555557 104.76190476190477,154.92063492063494 105.18518518518519,154.2857142857143 105.3968253968254,153.65079365079367 105.82010582010582,153.01587301587304 106.24338624338625,152.38095238095238 106.45502645502647,151.74603174603175 106.87830687830689,151.11111111111111 107.3015873015873,150.47619047619048 107.51322751322752,149.84126984126985 107.93650793650795,149.20634920634922 108.14814814814815,148.57142857142858 108.57142857142858,147.93650793650795 108.78306878306879,147.30158730158732 109.20634920634922,146.66666666666669 109.41798941798943,146.03174603174605 109.62962962962963,145.39682539682542 109.84126984126985,144.76190476190476 110.05291005291006,144.12698412698413 110.26455026455027,143.4920634920635 110.47619047619048,142.85714285714286 110.47619047619048,142.22222222222223 110.6878306878307,141.5873015873016 110.6878306878307,140.95238095238096 110.89947089947091,140.31746031746033 110.89947089947091,139.6825396825397 110.89947089947091,139.04761904761907 110.89947089947091,138.41269841269843 110.89947089947091,137.7777777777778 110.89947089947091,137.14285714285717 110.89947089947091,136.5079365079365 110.6878306878307,135.87301587301587 110.6878306878307,135.23809523809524 110.47619047619048,134.6031746031746 110.26455026455027,133.96825396825398 110.05291005291006,133.33333333333334 109.84126984126985,132.6984126984127 109.41798941798943,132.27513227513228 108.994708994709,131.64021164021165 108.78306878306879,131.005291005291 108.35978835978837,130.37037037037038 107.93650793650795,129.73544973544975 107.51322751322752,129.10052910052912 107.0899470899471,128.67724867724868 106.66666666666667,128.25396825396825 106.24338624338625,127.83068783068784 105.60846560846562,127.40740740740742 105.18518518518519,126.98412698412699 104.55026455026456,126.56084656084657 103.91534391534393,126.34920634920636 103.4920634920635,125.92592592592594 102.85714285714286,125.71428571428572 102.22222222222223,125.5026455026455 101.5873015873016,125.2910052910053 100.95238095238096,124.86772486772487 100.31746031746033,124.65608465608466 99.68253968253968,124.44444444444446 99.04761904761905,124.23280423280424 98.41269841269842,124.02116402116403 97.77777777777779,123.80952380952382 97.14285714285715,123.59788359788361 96.50793650793652,123.3862433862434 95.87301587301587,123.3862433862434 95.23809523809524,123.17460317460318 94.60317460317461,122.96296296296298 93.96825396825398,122.75132275132276 93.33333333333334,122.75132275132276 92.69841269841271,122.53968253968254 92.06349206349208,122.53968253968254 91.42857142857143,122.32804232804234 90.7936507936508,122.32804232804234 90.15873015873017,122.32804232804234 89.52380952380953,122.32804232804234 88.8888888888889,122.11640211640213 88.25396825396827,122.11640211640213 87.61904761904762,122.11640211640213 86.98412698412699,122.11640211640213 86.34920634920636,122.11640211640213 85.71428571428572,122.32804232804234 85.07936507936509,122.53968253968254 84.44444444444446,122.75132275132276 83.80952380952381,122.75132275132276 83.17460317460318,122.96296296296298 82.53968253968254,123.17460317460318 81.90476190476191,123.3862433862434 81.26984126984128,123.3862433862434 80.63492063492065,123.59788359788361 80.0,123.80952380952382 79.36507936507937,124.02116402116403 78.73015873015873,124.23280423280424 78.0952380952381,124.44444444444446 77.46031746031747,124.65608465608466 76.82539682539684,125.07936507936509 76.19047619047619,125.2910052910053 75.55555555555556,125.71428571428572 74.92063492063492,126.13756613756615 74.28571428571429,126.56084656084657 73.65079365079366,126.98412698412699 73.22751322751323,127.40740740740742 72.80423280423281,127.83068783068784 72.38095238095238,128.25396825396825 71.95767195767196,128.67724867724868 71.53439153439155,129.31216931216932 71.11111111111111,129.73544973544975 70.8994708994709,130.37037037037038 70.47619047619048,130.7936507936508 70.26455026455027,131.42857142857144 70.05291005291006,132.06349206349208 69.84126984126985,132.6984126984127 69.62962962962963,133.33333333333334 69.62962962962963,133.96825396825398 69.41798941798942,134.6031746031746 69.41798941798942,135.23809523809524 69.41798941798942,135.87301587301587 69.41798941798942,136.5079365079365 69.41798941798942,137.14285714285717 69.41798941798942,137.7777777777778 69.62962962962963,138.41269841269843 69.62962962962963,139.04761904761907 69.84126984126985,139.6825396825397 69.84126984126985,140.31746031746033 70.05291005291006,140.95238095238096 70.26455026455027,141.5873015873016 70.6878306878307,142.22222222222223 71.11111111111111,142.85714285714286 71.53439153439155,143.4920634920635 71.95767195767196,144.12698412698413 72.38095238095238,144.76190476190476 72.80423280423281,145.1851851851852 73.22751322751323,145.60846560846562 73.65079365079366,146.03174603174605 74.07407407407408,146.45502645502646 74.49735449735451,146.8783068783069 74.92063492063492,147.51322751322752 75.34391534391536,148.14814814814815 75.76719576719577,148.78306878306879 76.19047619047619,149.41798941798942 76.4021164021164,150.05291005291005 76.61375661375662,150.6878306878307 76.82539682539684,151.32275132275134 77.03703703703704,151.95767195767198 77.24867724867725,152.5925925925926 77.24867724867725,153.22751322751324 77.46031746031747,153.86243386243387 77.46031746031747,154.4973544973545 77.46031746031747,155.13227513227514 77.46031746031747,155.76719576719577 77.46031746031747,156.4021164021164 77.24867724867725,157.03703703703704 77.03703703703704,157.67195767195767 76.82539682539684,158.30687830687833 76.4021164021164,158.73015873015873 75.97883597883599,159.15343915343917 75.55555555555556,159.5767195767196 74.92063492063492,159.7883597883598 74.28571428571429,160.21164021164023 73.65079365079366,160.42328042328043 73.01587301587303,160.63492063492066 72.38095238095238,160.84656084656086 71.74603174603175,161.05820105820106 71.11111111111111,161.05820105820106 70.47619047619048,161.05820105820106 69.84126984126985,161.05820105820106 69.20634920634922,161.2698412698413 68.57142857142858,161.05820105820106 67.93650793650794,161.05820105820106 67.3015873015873,160.84656084656086 66.66666666666667,160.84656084656086 66.03174603174604,160.42328042328043 65.3968253968254,160.21164021164023 64.76190476190477,160.0 64.12698412698413,159.7883597883598 63.492063492063494,159.5767195767196 62.85714285714286,159.36507936507937 62.22222222222223,159.15343915343917 61.58730158730159,158.94179894179896 60.952380952380956,158.73015873015873 60.31746031746032,158.51851851851853 59.682539682539684,158.30687830687833 59.04761904761905,158.0952380952381 58.41269841269842,158.0952380952381 57.777777777777786,157.8835978835979 57.142857142857146,157.67195767195767 56.50793650793651,157.46031746031747 55.87301587301588,157.46031746031747 55.23809523809524,157.24867724867727 54.60317460317461,157.24867724867727 53.968253968253975,157.03703703703704 53.333333333333336,157.03703703703704 52.6984126984127,156.82539682539684 52.06349206349207,156.82539682539684 51.42857142857143,156.82539682539684 50.7936507936508,156.61375661375664 50.158730158730165,156.82539682539684 49.523809523809526,156.82539682539684 48.88888888888889,156.82539682539684 48.25396825396826,156.82539682539684 47.61904761904762,156.82539682539684 46.98412698412699,156.82539682539684 46.349206349206355,156.82539682539684 45.714285714285715,156.82539682539684 45.07936507936508,156.82539682539684 44.44444444444445,156.82539682539684 43.80952380952381,157.03703703703704 40.0,157.24867724867727" style="fill:none; stroke:#00aa99; stroke-width:1.0"  /><polyline points="40.0,157.24867724867727 40.423280423280424,154.07407407407408 40.63492063492064,153.43915343915344 40.63492063492064,152.8042328042328 40.84656084656085,152.16931216931218 40.84656084656085,151.53439153439155 40.84656084656085,150.8994708994709 41.058201058201064,150.26455026455028 41.26984126984127,149.62962962962965 41.26984126984127,148.99470899470901 41.26984126984127,148.35978835978838 41.48148148148149,147.72486772486775 41.6931216931217,147.0899470899471 41.6931216931217,146.45502645502646 41.6931216931217,145.82010582010582 41.904761904761905,145.1851851851852 42.11640211640212,144.55026455026456 42.11640211640212,143.91534391534393 42.32804232804233,143.2804232804233 42.32804232804233,142.64550264550266 42.539682539682545,142.01058201058203 42.539682539682545,141.3756613756614 42.75132275132275,140.74074074074076 42.75132275132275,140.10582010582013 42.96296296296297,139.47089947089947 42.96296296296297,138.83597883597884 43.17460317460318,138.2010582010582 43.17460317460318,137.56613756613757 43.386243386243386,136.93121693121694 43.386243386243386,136.2962962962963 43.5978835978836,135.66137566137567 43.5978835978836,135.02645502645504 43.80952380952381,134.3915343915344 43.80952380952381,133.75661375661377 44.021164021164026,133.12169312169314 43.80952380952381,132.4867724867725 44.021164021164026,131.85185185185185 44.021164021164026,131.21693121693121 44.232804232804234,130.58201058201058 44.232804232804234,129.94708994708995 44.44444444444445,129.31216931216932 44.44444444444445,128.67724867724868 44.65608465608466,128.04232804232805 44.867724867724874,127.40740740740742 44.867724867724874,126.77248677248679 44.867724867724874,126.13756613756615 45.07936507936508,125.5026455026455 45.29100529100529,124.86772486772487 45.29100529100529,124.23280423280424 45.50264550264551,123.59788359788361 45.50264550264551,122.96296296296298 45.714285714285715,122.32804232804234 45.92592592592593,121.6931216931217 45.92592592592593,121.05820105820106 46.13756613756614,120.42328042328043 46.349206349206355,119.7883597883598 46.349206349206355,119.15343915343917 46.560846560846564,118.51851851851853 46.77248677248678,117.88359788359789 46.98412698412699,117.24867724867725 47.195767195767196,116.61375661375662 47.40740740740741,115.97883597883599 47.61904761904762,115.34391534391536 47.830687830687836,114.70899470899472 48.042328042328045,114.07407407407408 48.042328042328045,113.43915343915344 48.042328042328045,112.80423280423281 48.25396825396826,112.16931216931218 48.25396825396826,111.53439153439155 48.46560846560847,110.89947089947091 48.46560846560847,110.26455026455027 48.25396825396826,109.62962962962963 48.25396825396826,108.994708994709 48.25396825396826,108.35978835978837 48.042328042328045,107.72486772486774 47.830687830687836,107.0899470899471 47.61904761904762,106.45502645502647 47.195767195767196,105.82010582010582 46.98412698412699,105.18518518518519 46.560846560846564,104.76190476190477 46.13756613756614,104.33862433862434 45.714285714285715,103.91534391534393 45.29100529100529,103.4920634920635 44.65608465608466,103.06878306878308 44.021164021164026,102.85714285714286 43.386243386243386,102.64550264550266 42.75132275132275,102.43386243386244 42.11640211640212,102.22222222222223 41.48148148148149,102.22222222222223 40.84656084656085,102.22222222222223 40.211640211640216,102.43386243386244 39.57671957671958,102.64550264550266 38.94179894179894,102.85714285714286 38.30687830687831,103.06878306878308 37.883597883597886,103.4920634920635 37.248677248677254,103.70370370370371 36.613756613756614,104.12698412698414 36.19047619047619,104.55026455026456 35.55555555555556,104.97354497354497 35.13227513227513,105.3968253968254 34.70899470899471,105.82010582010582 34.074074074074076,106.24338624338625 33.65079365079365,106.87830687830689 33.22751322751323,107.3015873015873 32.804232804232804,107.93650793650795 32.38095238095239,108.35978835978837 31.95767195767196,108.994708994709 31.53439153439154,109.62962962962963 31.111111111111114,110.26455026455027 30.68783068783069,110.6878306878307 30.264550264550266,111.32275132275133 29.841269841269842,111.74603174603176 29.41798941798942,112.3809523809524 28.994708994708997,112.80423280423281 28.571428571428573,113.43915343915344 28.14814814814815,113.86243386243387 27.724867724867728,114.28571428571429 27.301587301587304,114.70899470899472 26.87830687830688,115.13227513227514 26.455026455026456,115.55555555555557 26.031746031746035,115.97883597883599 25.60846560846561,116.4021164021164 25.185185185185187,116.82539682539684 24.761904761904763,117.24867724867725 24.12698412698413,117.67195767195768 23.703703703703706,118.0952380952381 23.280423280423282,118.51851851851853 22.645502645502646,118.94179894179895 22.222222222222225,119.36507936507937 21.58730158730159,119.57671957671958 20.952380952380953,120.00000000000001 20.31746031746032,120.21164021164022 19.682539682539684,120.42328042328043 19.047619047619047,120.63492063492065 18.412698412698415,120.84656084656086 17.77777777777778,121.05820105820106 17.142857142857146,121.05820105820106 16.50793650793651,121.05820105820106 15.873015873015873,121.05820105820106 15.238095238095239,121.26984126984128 14.603174603174605,120.84656084656086 13.96825396825397,120.63492063492065 13.544973544973546,120.21164021164022 12.910052910052912,119.7883597883598 12.486772486772487,119.36507936507937 12.063492063492065,118.94179894179895 11.640211640211641,118.51851851851853 11.216931216931219,118.0952380952381 10.793650793650794,117.67195767195768 10.370370370370372,117.24867724867725 9.947089947089948,116.61375661375662 9.523809523809524,115.97883597883599 9.100529100529101,115.55555555555557 8.677248677248677,114.92063492063492 8.253968253968255,114.28571428571429 7.830687830687832,113.65079365079366 7.6190476190476195,113.01587301587303 7.195767195767196,112.5925925925926 6.772486772486773,111.95767195767196 6.560846560846561,111.32275132275133 6.137566137566138,110.89947089947091 5.714285714285714,110.26455026455027 5.502645502645503,109.62962962962963 5.291005291005291,108.994708994709 4.867724867724868,108.35978835978837 4.656084656084657,107.72486772486774 4.444444444444445,107.0899470899471 4.021164021164021,106.45502645502647 3.8095238095238098,105.82010582010582 3.597883597883598,105.18518518518519 3.3862433862433865,104.55026455026456 3.174603174603175,103.91534391534393 2.9629629629629632,103.28042328042329 2.7513227513227516,102.64550264550266 2.53968253968254,102.01058201058201 2.3280423280423284,101.37566137566138 2.3280423280423284,100.74074074074075 2.1164021164021167,100.10582010582011 1.9047619047619049,99.47089947089948 1.9047619047619049,98.83597883597885 1.6931216931216932,98.2010582010582 1.26984126984127,97.56613756613757 1.26984126984127,96.93121693121694 1.0582010582010584,96.2962962962963 1.0582010582010584,95.66137566137567 0.8465608465608466,95.02645502645504 0.8465608465608466,94.39153439153439 0.634920634920635,93.75661375661376 0.634920634920635,93.12169312169313 0.634920634920635,92.4867724867725 0.634920634920635,91.85185185185186 0.4232804232804233,91.21693121693123 0.4232804232804233,90.58201058201058 0.4232804232804233,89.94708994708995 0.21164021164021166,89.31216931216932 0.21164021164021166,88.67724867724868 0.21164021164021166,88.04232804232805 0.21164021164021166,87.40740740740742 0.21164021164021166,86.77248677248677 0.21164021164021166,86.13756613756614 0.21164021164021166,85.5026455026455 0.21164021164021166,84.86772486772487 0.21164021164021166,84.23280423280424 0.21164021164021166,83.59788359788361 0.21164021164021166,82.96296296296298 0.21164021164021166,82.32804232804233 0.21164021164021166,81.6931216931217 0.4232804232804233,81.05820105820106 0.4232804232804233,80.42328042328043 0.4232804232804233,79.7883597883598 0.4232804232804233,79.15343915343917 0.634920634920635,78.51851851851852 0.634920634920635,77.88359788359789 0.8465608465608466,77.24867724867725 0.8465608465608466,76.61375661375662 1.0582010582010584,75.97883597883599 1.0582010582010584,75.34391534391536 1.26984126984127,74.70899470899471 1.4814814814814816,74.07407407407408 1.6931216931216932,73.43915343915344 1.9047619047619049,72.80423280423281 2.1164021164021167,72.16931216931218 2.53968253968254,71.53439153439155 2.7513227513227516,70.8994708994709 3.174603174603175,70.26455026455027 3.597883597883598,69.62962962962963 4.021164021164021,69.20634920634922 4.656084656084657,68.78306878306879 5.291005291005291,68.57142857142858 5.9259259259259265,68.35978835978837 6.560846560846561,68.35978835978837 7.195767195767196,68.14814814814815 7.830687830687832,68.14814814814815 8.465608465608467,68.14814814814815 9.100529100529101,68.14814814814815 9.735449735449736,68.14814814814815 10.370370370370372,68.14814814814815 11.005291005291006,68.35978835978837 11.640211640211641,68.35978835978837 12.275132275132275,68.57142857142858 12.910052910052912,68.57142857142858 13.544973544973546,68.78306878306879 14.17989417989418,68.994708994709 14.814814814814817,69.20634920634922 15.449735449735451,69.20634920634922 16.084656084656086,69.62962962962963 16.71957671957672,69.84126984126985 17.354497354497354,70.26455026455027 17.98941798941799,70.47619047619048 18.412698412698415,70.8994708994709 19.047619047619047,71.32275132275133 19.682539682539684,71.74603174603175 20.31746031746032,71.95767195767196 20.740740740740744,72.38095238095238 21.375661375661377,72.80423280423281 22.010582010582013,73.01587301587303 22.645502645502646,73.43915343915344 23.06878306878307,73.86243386243387 23.703703703703706,74.07407407407408 24.12698412698413,74.49735449735451 24.761904761904763,74.70899470899471 25.185185185185187,75.13227513227514 25.820105820105823,75.34391534391536 26.243386243386244,75.76719576719577 26.666666666666668,76.19047619047619 27.301587301587304,76.4021164021164 27.93650793650794,76.61375661375662 28.571428571428573,77.03703703703704 29.20634920634921,77.24867724867725 29.841269841269842,77.46031746031747 30.476190476190478,77.67195767195767 31.111111111111114,77.67195767195767 31.746031746031747,77.67195767195767 32.38095238095239,77.88359788359789 33.01587301587302,77.88359788359789 33.65079365079365,77.67195767195767 34.28571428571429,77.46031746031747 34.920634920634924,77.03703703703704 35.55555555555556,76.82539682539684 35.97883597883598,76.4021164021164 36.613756613756614,75.97883597883599 37.03703703703704,75.55555555555556 37.46031746031746,75.13227513227514 37.883597883597886,74.49735449735451 38.095238095238095,73.86243386243387 38.51851851851852,73.22751322751323 38.730158730158735,72.5925925925926 38.730158730158735,71.95767195767196 38.94179894179894,71.32275132275133 39.15343915343916,70.6878306878307 39.36507936507937,70.05291005291006 39.36507936507937,69.41798941798942 39.57671957671958,68.78306878306879 39.78835978835979,68.14814814814815 39.78835978835979,67.51322751322752 40.0,66.87830687830689 40.211640211640216,66.24338624338625 40.423280423280424,65.60846560846561 40.423280423280424,64.97354497354497 40.63492063492064,64.33862433862434 40.63492063492064,63.70370370370371 40.84656084656085,63.06878306878308 40.63492063492064,62.43386243386244 40.84656084656085,61.798941798941804 41.058201058201064,61.16402116402117 41.058201058201064,60.52910052910053 41.058201058201064,59.8941798941799 41.26984126984127,59.25925925925927 41.26984126984127,58.62433862433863 41.48148148148149,57.989417989417994 41.48148148148149,57.35449735449736 41.6931216931217,56.71957671957672 41.6931216931217,56.08465608465609 41.904761904761905,55.449735449735456 41.904761904761905,54.81481481481482 41.904761904761905,54.179894179894184 42.11640211640212,53.54497354497355 42.11640211640212,52.91005291005291 42.11640211640212,52.27513227513228 42.32804232804233,51.640211640211646 42.32804232804233,51.00529100529101 42.32804232804233,50.370370370370374 42.539682539682545,49.73544973544974 42.539682539682545,49.1005291005291 42.539682539682545,48.46560846560847 42.539682539682545,47.830687830687836 42.539682539682545,47.195767195767196 42.539682539682545,46.560846560846564 42.539682539682545,45.92592592592593 42.539682539682545,45.29100529100529 42.75132275132275,44.65608465608466 42.75132275132275,44.021164021164026 42.75132275132275,43.386243386243386 42.75132275132275,42.75132275132275 42.75132275132275,42.11640211640212 42.75132275132275,41.48148148148149 42.75132275132275,40.84656084656085 42.75132275132275,40.211640211640216 42.75132275132275,39.57671957671958 42.75132275132275,38.94179894179894 42.75132275132275,38.30687830687831 42.75132275132275,37.67195767195768 42.75132275132275,37.03703703703704 42.75132275132275,36.402116402116405 42.75132275132275,35.76719576719577 42.75132275132275,35.13227513227513 42.75132275132275,34.4973544973545 42.75132275132275,33.86243386243387 42.75132275132275,33.22751322751323 42.75132275132275,32.592592592592595 42.539682539682545,31.95767195767196 42.539682539682545,31.322751322751326 42.539682539682545,30.68783068783069 42.539682539682545,30.052910052910054 42.539682539682545,29.41798941798942 42.32804232804233,28.783068783068785 42.32804232804233,28.14814814814815 41.904761904761905,27.513227513227516 41.904761904761905,26.87830687830688 41.904761904761905,26.243386243386244 41.6931216931217,25.60846560846561 41.6931216931217,24.973544973544975 41.6931216931217,24.338624338624342 41.48148148148149,23.703703703703706 41.48148148148149,23.06878306878307 41.48148148148149,22.433862433862437 41.26984126984127,21.7989417989418 40.84656084656085,18.412698412698415" style="fill:none; stroke:#3300bb; stroke-width:1.0"  /><circle cx="40.84656084656085" cy="18.412698412698415" r="2.0" style="fill:none; stroke:#000000aa; stroke-width:0.25" /><circle cx="149.62962962962965" cy="8.88888888888889" r="2.0" style="fill:none; stroke:#000000aa; stroke-width:0.25" /><circle cx="145.39682539682542" cy="160.63492063492066" r="2.0" style="fill:none; stroke:#000000aa; stroke-width:0.25" /><circle cx="40.0" cy="157.24867724867727" r="2.0" style="fill:none; stroke:#000000aa; stroke-width:0.25" /><circle cx="40.84656084656085" cy="18.624338624338627" r="2.0" style="fill:none; stroke:#ff3366aa; stroke-width:0.25" /><circle cx="149.20634920634922" cy="9.312169312169313" r="2.0" style="fill:none; stroke:#ff3366aa; stroke-width:0.25" /><circle cx="145.1851851851852" cy="160.84656084656086" r="2.0" style="fill:none; stroke:#ff3366aa; stroke-width:0.25" /><circle cx="40.63492063492064" cy="157.24867724867727" r="2.0" style="fill:none; stroke:#ff3366aa; stroke-width:0.25" /><polyline points="51.640211640211646,13.756613756613758 51.00529100529101,13.96825396825397 50.370370370370374,14.17989417989418 49.94708994708995,14.603174603174605 49.523809523809526,15.026455026455027 48.88888888888889,15.238095238095239 48.25396825396826,15.449735449735451 47.61904761904762,15.661375661375663 46.98412698412699,16.084656084656086 46.349206349206355,16.296296296296298 45.714285714285715,16.50793650793651 45.07936507936508,16.71957671957672 44.44444444444445,17.142857142857146 43.80952380952381,17.142857142857146" style="fill:none; stroke:#001100; stroke-width:1.0" /><polyline points="42.539682539682545,30.052910052910054 42.539682539682545,29.41798941798942 42.32804232804233,28.783068783068785 42.32804232804233,28.14814814814815 41.904761904761905,27.513227513227516 41.904761904761905,26.87830687830688 41.904761904761905,26.243386243386244 41.6931216931217,25.60846560846561 41.6931216931217,24.973544973544975 41.6931216931217,24.338624338624342 41.48148148148149,23.703703703703706 41.48148148148149,23.06878306878307 41.48148148148149,22.433862433862437 41.26984126984127,21.7989417989418" style="fill:none; stroke:#000011; stroke-width:1.0" /><polyline points="145.1851851851852,20.105820105820108 145.39682539682542,19.47089947089947 145.60846560846562,18.83597883597884 145.82010582010582,18.201058201058203 146.03174603174605,17.566137566137566 146.24338624338625,16.931216931216934 146.66666666666669,16.296296296296298 146.8783068783069,15.661375661375663 147.0899470899471,15.026455026455027 147.30158730158732,14.391534391534393 147.51322751322752,13.756613756613758 147.72486772486775,13.121693121693122 148.14814814814815,12.486772486772487" style="fill:none; stroke:#001100; stroke-width:1.0" /><polyline points="138.2010582010582,5.714285714285714 138.83597883597884,5.714285714285714 139.47089947089947,6.137566137566138 140.10582010582013,6.137566137566138 140.74074074074076,6.34920634920635 141.3756613756614,6.560846560846561 142.01058201058203,6.772486772486773 142.64550264550266,6.984126984126985 143.2804232804233,7.195767195767196 143.91534391534393,7.195767195767196 144.55026455026456,7.407407407407408 145.1851851851852,7.830687830687832 145.82010582010582,7.830687830687832" style="fill:none; stroke:#000011; stroke-width:1.0" /><polyline points="134.3915343915344,165.0793650793651 135.02645502645504,164.8677248677249 135.66137566137567,164.44444444444446 136.2962962962963,164.23280423280426 136.93121693121694,164.02116402116403 137.56613756613757,163.80952380952382 138.2010582010582,163.59788359788362 138.83597883597884,163.3862433862434 139.47089947089947,162.96296296296296 140.10582010582013,162.75132275132276 140.74074074074076,162.53968253968256 141.3756613756614,162.32804232804233 142.01058201058203,161.90476190476193" style="fill:none; stroke:#001100; stroke-width:1.0" /><polyline points="142.43386243386246,149.41798941798942 142.64550264550266,150.05291005291005 142.85714285714286,150.6878306878307 142.85714285714286,151.32275132275134 143.0687830687831,151.95767195767198 143.2804232804233,152.5925925925926 143.4920634920635,153.22751322751324 143.70370370370372,153.86243386243387 143.91534391534393,154.4973544973545 143.91534391534393,155.13227513227514 144.12698412698413,155.76719576719577 144.12698412698413,156.4021164021164 144.33862433862436,157.03703703703704 144.55026455026456,157.67195767195767" style="fill:none; stroke:#000011; stroke-width:1.0" /><polyline points="41.6931216931217,145.82010582010582 41.6931216931217,146.45502645502646 41.6931216931217,147.0899470899471 41.48148148148149,147.72486772486775 41.26984126984127,148.35978835978838 41.26984126984127,148.99470899470901 41.26984126984127,149.62962962962965 41.058201058201064,150.26455026455028 40.84656084656085,150.8994708994709 40.84656084656085,151.53439153439155 40.84656084656085,152.16931216931218 40.63492063492064,152.8042328042328 40.63492063492064,153.43915343915344 40.423280423280424,154.07407407407408" style="fill:none; stroke:#001100; stroke-width:1.0" /><polyline points="52.06349206349207,156.82539682539684 51.42857142857143,156.82539682539684 50.7936507936508,156.61375661375664 50.158730158730165,156.82539682539684 49.523809523809526,156.82539682539684 48.88888888888889,156.82539682539684 48.25396825396826,156.82539682539684 47.61904761904762,156.82539682539684 46.98412698412699,156.82539682539684 46.349206349206355,156.82539682539684 45.714285714285715,156.82539682539684 45.07936507936508,156.82539682539684 44.44444444444445,156.82539682539684 43.80952380952381,157.03703703703704" style="fill:none; stroke:#000011; stroke-width:1.0" /><polyline points="43.80952380952381,17.142857142857146 24.338624338624342,25.60846560846561" style="fill:none; stroke:#ffaa00; stroke-width:0.4" /><polyline points="41.26984126984127,21.7989417989418 38.095238095238095,0.8465608465608466" style="fill:none; stroke:#aaff00; stroke-width:0.4" /><polyline points="148.14814814814815,12.486772486772487 155.76719576719577,-7.195767195767196" style="fill:none; stroke:#ffaa00; stroke-width:0.4" /><polyline points="145.82010582010582,7.830687830687832 166.13756613756615,13.544973544973546" style="fill:none; stroke:#aaff00; stroke-width:0.4" /><polyline points="142.01058201058203,161.90476190476193 161.4814814814815,153.86243386243387" style="fill:none; stroke:#ffaa00; stroke-width:0.4" /><polyline points="144.55026455026456,157.67195767195767 149.84126984126985,178.2010582010582" style="fill:none; stroke:#aaff00; stroke-width:0.4" /><polyline points="40.423280423280424,154.07407407407408 37.248677248677254,175.02645502645504" style="fill:none; stroke:#ffaa00; stroke-width:0.4" /><polyline points="43.80952380952381,157.03703703703704 22.645502645502646,157.67195767195767" style="fill:none; stroke:#aaff00; stroke-width:0.4" /><circle cx="90.58201058201058" cy="83.17460317460318" r="1.0" style="fill:#444444; stroke-width:0" /><circle cx="96.71957671957672" cy="79.15343915343917" r="10.582010582010582" style="fill:#ff770022; stroke-width:0" /><circle cx="96.71957671957672" cy="79.15343915343917" r="1.0" style="fill:#ff7700; stroke-width:0" /></svg>