<?xml version="1.0" encoding="UTF-8" standalone="no"?><svg width="492.0634920634921" height="491.42857142857144" viewBox="-10 -10 184.02116402116403 183.80952380952382" xmlns="http://www.w3.org/2000/svg" xmlns:xlink="http://www.w3.org/1999/xlink"><polyline points="25.60846560846561,30.68783068783069 28.571428571428573,31.322751322751326 29.20634920634921,31.322751322751326 29.841269841269842,31.53439153439154 30.476190476190478,31.53439153439154 31.111111111111114,31.746031746031747 31.746031746031747,31.746031746031747 32.38095238095239,31.95767195767196 33.01587301587302,32.16931216931217 33.65079365079365,32.16931216931217 34.28571428571429,32.38095238095239 34.920634920634924,32.38095238095239 35.55555555555556,32.592592592592595 36.19047619047619,32.592592592592595 36.82539682539683,32.804232804232804 37.46031746031746,32.804232804232804 38.095238095238095,33.01587301587302 38.730158730158735,33.01587301587302 39.36507936507937,33.01587301587302 40.0,33.22751322751323 40.63492063492064,33.22751322751323 41.26984126984127,33.22751322751323 41.904761904761905,33.22751322751323 42.539682539682545,33.43915343915344 43.17460317460318,33.22751322751323 43.80952380952381,33.22751322751323 44.44444444444445,33.22751322751323 45.07936507936508,33.43915343915344 45.714285714285715,33.43915343915344 46.349206349206355,33.43915343915344 46.98412698412699,33.43915343915344 47.61904761904762,33.43915343915344 48.25396825396826,33.65079365079365 48.88888888888889,33.65079365079365 49.523809523809526,33.65079365079365 50.158730158730165,33.65079365079365 50.7936507936508,33.65079365079365 51.42857142857143,33.65079365079365 52.06349206349207,33.86243386243387 52.6984126984127,33.86243386243387 53.333333333333336,33.86243386243387 53.968253968253975,33.86243386243387 54.60317460317461,33.86243386243387 55.23809523809524,34.074074074074076 55.87301587301588,34.074074074074076 56.50793650793651,34.074074074074076 57.142857142857146,34.074074074074076 57.777777777777786,34.074074074074076 58.41269841269842,34.074074074074076 59.04761904761905,34.074074074074076 59.682539682539684,34.074074074074076 60.31746031746032,34.074074074074076 60.952380952380956,34.074074074074076 61.58730158730159,34.074074074074076 62.22222222222223,34.074074074074076 62.85714285714286,34.28571428571429 63.492063492063494,34.28571428571429 64.12698412698413,34.28571428571429 64.76190476190477,34.28571428571429 65.3968253968254,34.28571428571429 66.03174603174604,34.28571428571429 66.66666666666667,34.28571428571429 67.3015873015873,34.074074074074076 67.93650793650794,34.074074074074076 68.57142857142858,33.86243386243387 69.20634920634922,33.65079365079365 69.84126984126985,33.22751322751323 70.47619047619048,32.804232804232804 70.8994708994709,32.38095238095239 71.32275132275133,31.95767195767196 71.74603174603175,31.53439153439154 72.16931216931218,30.899470899470902 72.38095238095238,30.264550264550266 72.5925925925926,29.629629629629633 72.80423280423281,28.994708994708997 73.01587301587303,28.35978835978836 73.01587301587303,27.724867724867728 73.22751322751323,27.089947089947092 73.22751322751323,26.455026455026456 73.22751322751323,25.820105820105823 73.01587301587303,25.185185185185187 73.01587301587303,24.55026455026455 72.80423280423281,23.915343915343918 72.80423280423281,23.280423280423282 72.5925925925926,22.645502645502646 72.38095238095238,22.010582010582013 72.16931216931218,21.375661375661377 72.16931216931218,20.740740740740744 71.95767195767196,20.105820105820108 71.74603174603175,19.47089947089947 71.53439153439155,18.83597883597884 71.32275132275133,18.201058201058203 70.8994708994709,17.566137566137566 70.6878306878307,16.931216931216934 70.6878306878307,16.296296296296298 70.47619047619048,15.661375661375663 70.26455026455027,15.026455026455027 70.05291005291006,14.391534391534393 69.84126984126985,13.756613756613758 69.84126984126985,13.121693121693122 69.62962962962963,12.486772486772487 69.62962962962963,11.851851851851853 69.62962962962963,11.216931216931219 69.62962962962963,10.582010582010582 69.62962962962963,9.947089947089948 69.62962962962963,9.312169312169313 69.62962962962963,8.677248677248677 69.84126984126985,8.042328042328043 69.84126984126985,7.407407407407408 70.05291005291006,6.772486772486773 70.26455026455027,6.137566137566138 70.47619047619048,5.502645502645503 70.6878306878307,4.867724867724868 71.11111111111111,4.2328042328042335 71.53439153439155,3.597883597883598 71.95767195767196,2.9629629629629632 72.38095238095238,2.53968253968254 73.01587301587303,2.1164021164021167 73.65079365079366,1.6931216931216932 74.28571428571429,1.4814814814814816 74.92063492063492,1.26984126984127 75.55555555555556,1.0582010582010584 76.19047619047619,0.8465608465608466 76.82539682539684,0.8465608465608466 77.46031746031747,0.634920634920635 78.0952380952381,0.4232804232804233 78.73015873015873,0.21164021164021166 79.36507936507937,0.21164021164021166 80.0,0.21164021164021166 80.63492063492065,0.21164021164021166 81.26984126984128,0.21164021164021166 81.90476190476191,0.21164021164021166 82.53968253968254,0.21164021164021166 83.17460317460318,0.21164021164021166 83.80952380952381,0.21164021164021166 84.44444444444446,0.21164021164021166 85.07936507936509,0.4232804232804233 85.71428571428572,0.4232804232804233 86.34920634920636,0.4232804232804233 86.98412698412699,0.634920634920635 87.61904761904762,0.634920634920635 88.25396825396827,1.0582010582010584 88.8888888888889,1.0582010582010584 89.52380952380953,1.26984126984127 90.15873015873017,1.4814814814814816 90.7936507936508,1.6931216931216932 91.42857142857143,1.9047619047619049 92.06349206349208,2.1164021164021167 92.69841269841271,2.53968253968254 93.33333333333334,2.7513227513227516 93.96825396825398,3.174603174603175 94.60317460317461,3.3862433862433865 95.02645502645504,3.8095238095238098 95.66137566137567,4.2328042328042335 96.2962962962963,4.656084656084657 96.93121693121694,5.07936507936508 97.35449735449737,5.502645502645503 97.989417989418,5.9259259259259265 98.41269841269842,6.34920634920635 98.83597883597885,6.772486772486773 99.25925925925927,7.195767195767196 99.68253968253968,7.6190476190476195 100.10582010582011,8.042328042328043 100.52910052910053,8.677248677248677 100.95238095238096,9.100529100529101 101.37566137566138,9.523809523809524 101.79894179894181,10.15873015873016 102.22222222222223,10.793650793650794 102.64550264550266,11.428571428571429 103.06878306878308,12.063492063492065 103.4920634920635,12.6984126984127 103.91534391534393,13.333333333333334 104.12698412698414,13.96825396825397 104.33862433862434,14.603174603174605 104.55026455026456,15.238095238095239 104.55026455026456,15.873015873015873 104.76190476190477,16.50793650793651 104.76190476190477,17.142857142857146 104.76190476190477,17.77777777777778 104.76190476190477,18.412698412698415 104.55026455026456,19.047619047619047 104.33862433862434,19.682539682539684 104.12698412698414,20.31746031746032 103.91534391534393,20.952380952380953 103.4920634920635,21.58730158730159 103.28042328042329,22.222222222222225 102.85714285714286,22.857142857142858 102.43386243386244,23.492063492063494 102.01058201058201,24.12698412698413 101.5873015873016,24.761904761904763 101.16402116402116,25.185185185185187 100.74074074074075,25.820105820105823 100.31746031746033,26.243386243386244 99.8941798941799,26.666666666666668 99.47089947089948,27.089947089947092 99.04761904761905,27.513227513227516 98.62433862433863,27.93650793650794 98.2010582010582,28.35978835978836 97.77777777777779,28.783068783068785 97.35449735449737,29.20634920634921 96.71957671957672,29.629629629629633 96.2962962962963,30.052910052910054 95.87301587301587,30.68783068783069 95.44973544973546,31.111111111111114 95.02645502645504,31.746031746031747 94.60317460317461,32.38095238095239 94.39153439153439,33.01587301587302 93.96825396825398,33.65079365079365 93.75661375661376,34.28571428571429 93.75661375661376,34.920634920634924 93.54497354497356,35.55555555555556 93.54497354497356,36.19047619047619 93.54497354497356,36.82539682539683 93.54497354497356,37.46031746031746 93.54497354497356,38.095238095238095 93.75661375661376,38.730158730158735 93.96825396825398,39.36507936507937 94.39153439153439,39.78835978835979 94.60317460317461,40.423280423280424 95.02645502645504,40.84656084656085 95.44973544973546,41.26984126984127 95.87301587301587,41.904761904761905 96.2962962962963,42.32804232804233 96.93121693121694,42.75132275132275 97.56613756613757,43.17460317460318 98.2010582010582,43.5978835978836 98.83597883597885,44.021164021164026 99.47089947089948,44.232804232804234 100.10582010582011,44.44444444444445 100.74074074074075,44.867724867724874 101.37566137566138,45.07936507936508 102.01058201058201,45.29100529100529 102.64550264550266,45.29100529100529 103.28042328042329,45.50264550264551 103.91534391534393,45.714285714285715 104.55026455026456,45.714285714285715 105.18518518518519,45.92592592592593 105.82010582010582,46.13756613756614 106.45502645502647,46.349206349206355 107.0899470899471,46.349206349206355 107.72486772486774,46.560846560846564 108.35978835978837,46.560846560846564 108.994708994709,46.77248677248678 109.62962962962963,46.98412698412699 110.26455026455027,47.195767195767196 110.89947089947091,47.195767195767196 111.53439153439155,47.40740740740741 112.16931216931218,47.40740740740741 112.80423280423281,47.40740740740741 113.43915343915344,47.61904761904762 114.07407407407408,47.61904761904762 114.70899470899472,47.830687830687836 115.34391534391536,47.830687830687836 115.97883597883599,48.042328042328045 116.61375661375662,48.042328042328045 117.24867724867725,48.25396825396826 117.88359788359789,48.25396825396826 118.51851851851853,48.46560846560847 119.15343915343917,48.46560846560847 119.7883597883598,48.677248677248684 120.42328042328043,48.88888888888889 121.05820105820106,48.88888888888889 121.6931216931217,49.1005291005291 122.32804232804234,49.1005291005291 122.96296296296298,49.31216931216932 123.59788359788361,49.31216931216932 124.23280423280424,49.523809523809526 124.86772486772487,49.523809523809526 125.5026455026455,49.523809523809526 126.13756613756615,49.73544973544974 126.77248677248679,49.73544973544974 127.40740740740742,49.73544973544974 128.04232804232805,49.94708994708995 128.67724867724868,49.94708994708995 129.31216931216932,50.158730158730165 129.94708994708995,50.158730158730165 130.58201058201058,50.158730158730165 131.21693121693121,50.370370370370374 131.85185185185185,50.370370370370374 132.4867724867725,50.58201058201058 133.12169312169314,50.58201058201058 133.75661375661377,50.58201058201058 134.3915343915344,50.58201058201058 135.02645502645504,50.7936507936508 135.66137566137567,50.7936507936508 136.2962962962963,50.7936507936508 136.93121693121694,50.7936507936508 137.56613756613757,51.00529100529101 138.2010582010582,51.00529100529101 138.83597883597884,51.00529100529101 139.47089947089947,51.21693121693122 140.10582010582013,51.21693121693122 140.74074074074076,51.21693121693122 141.3756613756614,51.21693121693122 142.01058201058203,51.42857142857143 142.64550264550266,51.42857142857143 143.2804232804233,51.42857142857143 143.91534391534393,51.42857142857143 144.55026455026456,51.42857142857143 145.1851851851852,51.42857142857143 145.82010582010582,51.42857142857143 146.45502645502646,51.640211640211646 147.0899470899471,51.640211640211646 147.72486772486775,51.42857142857143 148.35978835978838,51.42857142857143 148.99470899470901,51.42857142857143 149.62962962962965,51.42857142857143 150.26455026455028,51.42857142857143 150.8994708994709,51.42857142857143 151.53439153439155,51.42857142857143 152.16931216931218,51.42857142857143 152.8042328042328,51.640211640211646 153.43915343915344,51.640211640211646 154.07407407407408,51.640211640211646 154.7089947089947,51.640211640211646 155.34391534391534,51.640211640211646 155.978835978836,51.640211640211646 156.61375661375664,51.640211640211646 157.24867724867727,51.640211640211646 157.8835978835979,51.640211640211646 158.51851851851853,51.640211640211646 159.15343915343917,51.42857142857143 159.7883597883598,51.42857142857143 160.42328042328043,51.42857142857143 163.59788359788362,51.42857142857143" style="fill:none; stroke:#cc0000; stroke-width:1.0"  /><polyline points="163.59788359788362,51.42857142857143 163.3862433862434,55.02645502645503 163.3862433862434,55.661375661375665 163.3862433862434,56.2962962962963 163.3862433862434,56.93121693121694 163.3862433862434,57.56613756613757 163.3862433862434,58.2010582010582 163.1746031746032,58.83597883597884 163.1746031746032,59.470899470899475 163.1746031746032,60.10582010582011 163.1746031746032,60.74074074074075 163.1746031746032,61.37566137566138 163.1746031746032,62.01058201058201 163.1746031746032,62.64550264550265 163.1746031746032,63.280423280423285 162.96296296296296,63.91534391534392 162.96296296296296,64.55026455026456 162.96296296296296,65.18518518518519 162.96296296296296,65.82010582010582 162.96296296296296,66.45502645502646 162.75132275132276,67.08994708994709 162.75132275132276,67.72486772486774 162.75132275132276,68.35978835978837 162.75132275132276,68.994708994709 162.53968253968256,69.62962962962963 162.53968253968256,70.26455026455027 162.53968253968256,70.8994708994709 162.53968253968256,71.53439153439155 162.32804232804233,72.16931216931218 162.32804232804233,72.80423280423281 162.32804232804233,73.43915343915344 162.11640211640213,74.07407407407408 162.11640211640213,74.70899470899471 162.11640211640213,75.34391534391536 162.11640211640213,75.97883597883599 161.90476190476193,76.61375661375662 161.90476190476193,77.24867724867725 161.6931216931217,77.88359788359789 161.6931216931217,78.51851851851852 161.6931216931217,79.15343915343917 161.4814814814815,79.7883597883598 161.2698412698413,80.42328042328043 161.2698412698413,81.05820105820106 161.05820105820106,81.6931216931217 161.05820105820106,82.32804232804233 160.84656084656086,82.96296296296298 160.63492063492066,83.59788359788361 160.21164021164023,84.23280423280424 160.0,84.86772486772487 159.5767195767196,85.29100529100529 159.15343915343917,85.71428571428572 158.73015873015873,86.13756613756614 158.0952380952381,86.56084656084657 157.46031746031747,86.77248677248677 156.82539682539684,86.98412698412699 156.1904761904762,86.98412698412699 155.55555555555557,87.1957671957672 154.92063492063494,87.1957671957672 154.2857142857143,87.1957671957672 153.65079365079367,86.98412698412699 153.01587301587304,86.98412698412699 152.38095238095238,86.77248677248677 151.74603174603175,86.77248677248677 151.11111111111111,86.56084656084657 150.47619047619048,86.56084656084657 149.84126984126985,86.34920634920636 149.20634920634922,86.13756613756614 148.57142857142858,85.92592592592594 147.93650793650795,85.71428571428572 147.30158730158732,85.71428571428572 146.66666666666669,85.5026455026455 146.03174603174605,85.07936507936509 145.39682539682542,84.86772486772487 144.76190476190476,84.44444444444446 144.12698412698413,84.02116402116403 143.4920634920635,83.80952380952381 142.85714285714286,83.3862433862434 142.22222222222223,83.17460317460318 141.5873015873016,82.75132275132276 140.95238095238096,82.53968253968254 140.31746031746033,82.32804232804233 139.6825396825397,82.11640211640213 139.04761904761907,81.90476190476191 138.41269841269843,81.90476190476191 137.7777777777778,81.90476190476191 137.14285714285717,81.6931216931217 136.5079365079365,81.6931216931217 135.87301587301587,81.6931216931217 135.23809523809524,81.6931216931217 134.6031746031746,81.6931216931217 133.96825396825398,81.6931216931217 133.33333333333334,81.6931216931217 132.6984126984127,81.90476190476191 132.06349206349208,82.11640211640213 131.42857142857144,82.53968253968254 130.7936507936508,82.75132275132276 130.15873015873018,83.17460317460318 129.73544973544975,83.59788359788361 129.31216931216932,84.23280423280424 128.88888888888889,84.65608465608466 128.25396825396825,85.07936507936509 128.04232804232805,85.71428571428572 127.83068783068784,86.34920634920636 127.40740740740742,86.98412698412699 127.1957671957672,87.61904761904762 127.1957671957672,88.25396825396827 126.98412698412699,88.8888888888889 126.56084656084657,89.52380952380953 126.56084656084657,90.15873015873017 126.34920634920636,90.7936507936508 126.13756613756615,91.42857142857143 125.92592592592594,92.06349206349208 125.71428571428572,92.69841269841271 125.71428571428572,93.33333333333334 125.5026455026455,93.96825396825398 125.5026455026455,94.60317460317461 125.2910052910053,95.23809523809524 125.2910052910053,95.87301587301587 125.2910052910053,96.50793650793652 125.2910052910053,97.14285714285715 125.2910052910053,97.77777777777779 125.2910052910053,98.41269841269842 125.2910052910053,99.04761904761905 125.2910052910053,99.68253968253968 125.2910052910053,100.31746031746033 125.2910052910053,100.95238095238096 125.5026455026455,101.5873015873016 125.5026455026455,102.22222222222223 125.5026455026455,102.85714285714286 125.71428571428572,103.4920634920635 125.71428571428572,104.12698412698414 125.92592592592594,104.76190476190477 125.92592592592594,105.3968253968254 126.13756613756615,106.03174603174604 126.56084656084657,106.66666666666667 126.77248677248679,107.3015873015873 126.98412698412699,107.93650793650795 127.40740740740742,108.57142857142858 127.61904761904763,109.20634920634922 128.04232804232805,109.62962962962963 128.46560846560848,110.26455026455027 128.88888888888889,110.6878306878307 129.31216931216932,111.11111111111111 129.73544973544975,111.53439153439155 130.15873015873018,111.95767195767196 130.58201058201058,112.3809523809524 131.005291005291,112.80423280423281 131.64021164021165,113.01587301587303 132.06349206349208,113.43915343915344 132.6984126984127,113.86243386243387 133.33333333333334,114.07407407407408 133.96825396825398,114.28571428571429 134.6031746031746,114.70899470899472 135.23809523809524,114.92063492063492 135.87301587301587,115.13227513227514 136.5079365079365,115.13227513227514 137.14285714285717,115.34391534391536 137.7777777777778,115.55555555555557 138.41269841269843,115.55555555555557 139.04761904761907,115.34391534391536 139.6825396825397,115.34391534391536 140.31746031746033,115.34391534391536 140.95238095238096,115.13227513227514 141.5873015873016,115.13227513227514 142.22222222222223,114.92063492063492 142.85714285714286,114.92063492063492 143.4920634920635,114.70899470899472 144.12698412698413,114.49735449735451 144.76190476190476,114.49735449735451 145.39682539682542,114.49735449735451 146.03174603174605,114.49735449735451 146.66666666666669,114.49735449735451 147.30158730158732,114.49735449735451 147.93650793650795,114.49735449735451 148.57142857142858,114.49735449735451 149.20634920634922,114.70899470899472 149.84126984126985,114.92063492063492 150.47619047619048,115.34391534391536 151.11111111111111,115.76719576719577 151.53439153439155,116.1904761904762 151.95767195767198,116.61375661375662 152.38095238095238,117.24867724867725 152.5925925925926,117.88359788359789 152.8042328042328,118.51851851851853 153.01587301587304,119.15343915343917 153.01587301587304,119.7883597883598 153.01587301587304,120.42328042328043 153.01587301587304,121.05820105820106 152.8042328042328,121.6931216931217 152.5925925925926,122.32804232804234 152.38095238095238,122.96296296296298 151.95767195767198,123.59788359788361 151.53439153439155,124.23280423280424 151.32275132275134,124.86772486772487 150.8994708994709,125.2910052910053 150.47619047619048,125.92592592592594 150.05291005291005,126.56084656084657 149.62962962962965,127.1957671957672 149.20634920634922,127.83068783068784 148.78306878306879,128.46560846560848 148.35978835978838,128.88888888888889 148.14814814814815,129.52380952380955 147.72486772486775,130.15873015873018 147.30158730158732,130.7936507936508 146.8783068783069,131.42857142857144 146.66666666666669,132.06349206349208 146.24338624338625,132.4867724867725 145.82010582010582,133.12169312169314 145.39682539682542,133.75661375661377 144.973544973545,134.3915343915344 144.55026455026456,135.02645502645504 144.12698412698413,135.66137566137567 143.91534391534393,136.2962962962963 143.4920634920635,136.71957671957674 143.0687830687831,137.35449735449737 142.64550264550266,137.989417989418 142.43386243386246,138.62433862433863 142.01058201058203,139.04761904761907 141.5873015873016,139.6825396825397 141.3756613756614,140.31746031746033 140.95238095238096,140.74074074074076 140.74074074074076,141.3756613756614 140.31746031746033,141.7989417989418 139.8941798941799,142.43386243386246 139.47089947089947,143.0687830687831 139.25925925925927,143.70370370370372 138.83597883597884,144.33862433862436 138.41269841269843,144.973544973545 138.2010582010582,145.60846560846562 137.7777777777778,146.03174603174605 137.35449735449737,146.66666666666669 137.14285714285717,147.30158730158732 136.71957671957674,147.72486772486775 136.5079365079365,148.35978835978838 136.0846560846561,148.78306878306879 134.17989417989418,151.95767195767198" style="fill:none; stroke:#999900; stroke-width:1.0"  /><polyline points="134.17989417989418,151.95767195767198 131.21693121693121,151.74603174603175 130.58201058201058,151.53439153439155 129.94708994708995,151.53439153439155 129.31216931216932,151.53439153439155 128.67724867724868,151.53439153439155 128.04232804232805,151.53439153439155 127.40740740740742,151.53439153439155 126.77248677248679,151.53439153439155 126.13756613756615,151.53439153439155 125.5026455026455,151.53439153439155 124.86772486772487,151.53439153439155 124.23280423280424,151.53439153439155 123.59788359788361,151.32275132275134 122.96296296296298,151.32275132275134 122.32804232804234,151.32275132275134 121.6931216931217,151.32275132275134 121.05820105820106,151.32275132275134 120.42328042328043,151.32275132275134 119.7883597883598,151.53439153439155 119.15343915343917,151.53439153439155 118.51851851851853,151.53439153439155 117.88359788359789,151.53439153439155 117.24867724867725,151.53439153439155 116.61375661375662,151.53439153439155 115.97883597883599,151.53439153439155 115.34391534391536,151.53439153439155 114.70899470899472,151.53439153439155 114.07407407407408,151.53439153439155 113.43915343915344,151.74603174603175 112.80423280423281,151.95767195767198 112.16931216931218,151.95767195767198 111.53439153439155,151.95767195767198 110.89947089947091,151.95767195767198 110.26455026455027,152.16931216931218 109.62962962962963,152.16931216931218 108.994708994709,152.16931216931218 108.35978835978837,152.16931216931218 107.72486772486774,152.38095238095238 107.0899470899471,152.38095238095238 106.45502645502647,152.38095238095238 105.82010582010582,152.38095238095238 105.18518518518519,152.38095238095238 104.55026455026456,152.5925925925926 103.91534391534393,152.5925925925926 103.28042328042329,152.5925925925926 102.64550264550266,152.8042328042328 102.01058201058201,152.8042328042328 101.37566137566138,152.8042328042328 100.74074074074075,153.01587301587304 100.10582010582011,153.01587301587304 99.47089947089948,153.01587301587304 98.83597883597885,153.22751322751324 98.2010582010582,153.22751322751324 97.56613756613757,153.22751322751324 96.93121693121694,153.43915343915344 96.2962962962963,153.43915343915344 95.66137566137567,153.65079365079367 95.02645502645504,153.65079365079367 94.39153439153439,153.86243386243387 93.75661375661376,153.86243386243387 93.12169312169313,154.07407407407408 92.4867724867725,154.07407407407408 91.85185185185186,154.2857142857143 91.21693121693123,154.4973544973545 90.58201058201058,154.4973544973545 89.94708994708995,154.7089947089947 89.31216931216932,154.7089947089947 88.67724867724868,154.92063492063494 88.04232804232805,154.92063492063494 87.40740740740742,155.13227513227514 86.77248677248677,155.13227513227514 86.13756613756614,155.34391534391534 85.5026455026455,155.34391534391534 84.86772486772487,155.55555555555557 84.23280423280424,155.55555555555557 83.59788359788361,155.55555555555557 82.96296296296298,155.55555555555557 82.32804232804233,155.55555555555557 81.6931216931217,155.55555555555557 81.05820105820106,155.34391534391534 80.42328042328043,155.13227513227514 79.7883597883598,154.92063492063494 79.15343915343917,154.7089947089947 78.51851851851852,154.2857142857143 77.88359788359789,154.07407407407408 77.46031746031747,153.65079365079367 77.03703703703704,153.22751322751324 76.82539682539684,152.5925925925926 76.61375661375662,151.95767195767198 76.4021164021164,151.32275132275134 76.19047619047619,150.6878306878307 76.19047619047619,150.05291005291005 76.19047619047619,149.41798941798942 76.19047619047619,148.78306878306879 76.19047619047619,148.14814814814815 76.4021164021164,147.51322751322752 76.4021164021164,146.8783068783069 76.4021164021164,146.24338624338625 76.61375661375662,145.60846560846562 76.61375661375662,144.973544973545 76.82539682539684,144.33862433862436 77.03703703703704,143.70370370370372 77.03703703703704,143.0687830687831 77.03703703703704,142.43386243386246 77.24867724867725,141.7989417989418 77.24867724867725,141.16402116402116 77.24867724867725,140.52910052910053 77.24867724867725,139.8941798941799 77.24867724867725,139.25925925925927 77.24867724867725,138.62433862433863 77.24867724867725,137.989417989418 77.24867724867725,137.35449735449737 77.24867724867725,136.71957671957674 77.03703703703704,136.0846560846561 77.03703703703704,135.44973544973547 76.82539682539684,134.81481481481484 76.61375661375662,134.17989417989418 76.4021164021164,133.54497354497354 76.19047619047619,132.9100529100529 75.76719576719577,132.27513227513228 75.34391534391536,131.64021164021165 74.92063492063492,131.005291005291 74.49735449735451,130.37037037037038 74.07407407407408,129.94708994708995 73.65079365079366,129.52380952380955 73.22751322751323,128.88888888888889 72.5925925925926,128.46560846560848 72.16931216931218,128.04232804232805 71.74603174603175,127.61904761904763 71.11111111111111,127.1957671957672 70.6878306878307,126.77248677248679 70.05291005291006,126.34920634920636 69.41798941798942,125.92592592592594 68.78306878306879,125.5026455026455 68.14814814814815,125.2910052910053 67.72486772486774,124.86772486772487 67.08994708994709,124.44444444444446 66.45502645502646,124.23280423280424 66.03174603174604,123.80952380952382 65.3968253968254,123.59788359788361 64.76190476190477,123.3862433862434 64.12698412698413,123.17460317460318 63.492063492063494,122.96296296296298 62.85714285714286,122.75132275132276 62.22222222222223,122.53968253968254 61.58730158730159,122.53968253968254 60.952380952380956,122.32804232804234 60.31746031746032,122.11640211640213 59.682539682539684,122.11640211640213 59.04761904761905,121.90476190476191 58.41269841269842,121.90476190476191 57.777777777777786,121.90476190476191 57.142857142857146,121.6931216931217 56.50793650793651,121.6931216931217 55.87301587301588,121.6931216931217 55.23809523809524,121.6931216931217 54.60317460317461,121.6931216931217 53.968253968253975,121.6931216931217 53.333333333333336,121.6931216931217 52.6984126984127,121.90476190476191 52.06349206349207,121.90476190476191 51.42857142857143,121.90476190476191 50.7936507936508,122.11640211640213 50.158730158730165,122.11640211640213 49.523809523809526,122.32804232804234 48.88888888888889,122.32804232804234 48.25396825396826,122.53968253968254 47.61904761904762,122.53968253968254 46.98412698412699,122.75132275132276 46.349206349206355,122.96296296296298 45.714285714285715,123.17460317460318 45.07936507936508,123.3862433862434 44.44444444444445,123.80952380952382 43.80952380952381,124.02116402116403 43.17460317460318,124.23280423280424 42.539682539682545,124.65608465608466 41.904761904761905,124.86772486772487 41.26984126984127,125.2910052910053 40.63492063492064,125.5026455026455 40.0,125.92592592592594 39.36507936507937,126.34920634920636 38.730158730158735,126.77248677248679 38.095238095238095,127.1957671957672 37.67195767195768,127.61904761904763 37.248677248677254,128.04232804232805 36.82539682539683,128.46560846560848 36.402116402116405,129.10052910052912 36.19047619047619,129.73544973544975 35.97883597883598,130.37037037037038 35.76719576719577,131.005291005291 35.55555555555556,131.64021164021165 35.34391534391535,132.27513227513228 35.34391534391535,132.9100529100529 35.34391534391535,133.54497354497354 35.34391534391535,134.17989417989418 35.34391534391535,134.81481481481484 35.34391534391535,135.44973544973547 35.55555555555556,136.0846560846561 35.55555555555556,136.71957671957674 35.76719576719577,137.35449735449737 35.97883597883598,137.989417989418 36.19047619047619,138.62433862433863 36.402116402116405,139.25925925925927 36.613756613756614,139.8941798941799 36.82539682539683,140.52910052910053 37.03703703703704,141.16402116402116 37.46031746031746,141.7989417989418 37.883597883597886,142.43386243386246 38.095238095238095,143.0687830687831 38.51851851851852,143.4920634920635 38.730158730158735,144.12698412698413 39.15343915343916,144.55026455026456 39.36507936507937,145.1851851851852 39.78835978835979,145.82010582010582 40.0,146.45502645502646 40.423280423280424,146.8783068783069 40.84656084656085,147.51322751322752 41.058201058201064,148.14814814814815 41.48148148148149,148.78306878306879 41.904761904761905,149.41798941798942 42.11640211640212,150.05291005291005 42.539682539682545,150.47619047619048 42.96296296296297,151.11111111111111 43.386243386243386,151.74603174603175 43.5978835978836,152.38095238095238 44.021164021164026,153.01587301587304 44.232804232804234,153.65079365079367 44.44444444444445,154.2857142857143 44.65608465608466,154.92063492063494 44.65608465608466,155.55555555555557 44.867724867724874,156.1904761904762 44.867724867724874,156.82539682539684 45.07936507936508,157.46031746031747 45.07936507936508,158.0952380952381 45.07936507936508,158.73015873015873 44.867724867724874,159.36507936507937 44.65608465608466,160.0 44.232804232804234,160.63492063492066 43.80952380952381,161.05820105820106 43.386243386243386,161.4814814814815 42.96296296296297,161.90476190476193 42.32804232804233,162.32804232804233 41.6931216931217,162.53968253968256 41.058201058201064,162.75132275132276 40.423280423280424,162.75132275132276 39.78835978835979,162.96296296296296 39.15343915343916,163.1746031746032 38.51851851851852,163.1746031746032 37.883597883597886,163.1746031746032 37.248677248677254,163.3862433862434 36.613756613756614,163.3862433862434 35.97883597883598,163.3862433862434 35.34391534391535,163.3862433862434 34.70899470899471,163.3862433862434 34.074074074074076,163.3862433862434 33.43915343915344,163.3862433862434 32.804232804232804,163.3862433862434 32.16931216931217,163.3862433862434 31.53439153439154,163.3862433862434 30.899470899470902,163.1746031746032 30.264550264550266,163.1746031746032 29.629629629629633,163.1746031746032 28.994708994708997,162.96296296296296 28.35978835978836,162.96296296296296 27.724867724867728,162.96296296296296 27.089947089947092,162.75132275132276 26.455026455026456,162.75132275132276 25.820105820105823,162.75132275132276 25.185185185185187,162.53968253968256 24.55026455026455,162.53968253968256 23.915343915343918,162.32804232804233 23.280423280423282,162.32804232804233 22.645502645502646,162.32804232804233 22.010582010582013,162.11640211640213 21.375661375661377,162.11640211640213 20.740740740740744,161.90476190476193 20.105820105820108,161.90476190476193 19.47089947089947,161.90476190476193 18.83597883597884,161.6931216931217 18.201058201058203,161.6931216931217 17.566137566137566,161.6931216931217 16.931216931216934,161.4814814814815 16.296296296296298,161.4814814814815 15.661375661375663,161.4814814814815 15.026455026455027,161.2698412698413 14.391534391534393,161.2698412698413 13.756613756613758,161.2698412698413 13.121693121693122,161.2698412698413 12.486772486772487,161.05820105820106 11.851851851851853,161.05820105820106 11.216931216931219,160.84656084656086 10.582010582010582,160.84656084656086 9.947089947089948,160.84656084656086 9.312169312169313,160.84656084656086 8.677248677248677,160.84656084656086 8.042328042328043,161.05820105820106 7.407407407407408,160.84656084656086 6.772486772486773,160.84656084656086 6.137566137566138,160.84656084656086 5.502645502645503,160.84656084656086 4.867724867724868,160.63492063492066 4.2328042328042335,160.63492063492066 3.597883597883598,160.63492063492066 0.21164021164021166,160.42328042328043" style="fill:none; stroke:#00aa99; stroke-width:1.0"  /><polyline points="0.21164021164021166,160.42328042328043 0.4232804232804233,157.67195767195767 0.4232804232804233,157.03703703703704 0.4232804232804233,156.4021164021164 0.634920634920635,155.76719576719577 0.634920634920635,155.13227513227514 0.8465608465608466,154.4973544973545 0.8465608465608466,153.86243386243387 0.8465608465608466,153.22751322751324 1.0582010582010584,152.5925925925926 1.0582010582010584,151.95767195767198 1.0582010582010584,151.32275132275134 1.26984126984127,150.6878306878307 1.26984126984127,150.05291005291005 1.26984126984127,149.41798941798942 1.4814814814814816,148.78306878306879 1.4814814814814816,148.14814814814815 1.4814814814814816,147.51322751322752 1.4814814814814816,146.8783068783069 1.6931216931216932,146.24338624338625 1.6931216931216932,145.60846560846562 1.6931216931216932,144.973544973545 1.6931216931216932,144.33862433862436 1.6931216931216932,143.70370370370372 1.6931216931216932,143.0687830687831 1.6931216931216932,142.43386243386246 1.6931216931216932,141.7989417989418 1.9047619047619049,141.16402116402116 1.9047619047619049,140.52910052910053 1.9047619047619049,139.8941798941799 1.9047619047619049,139.25925925925927 1.9047619047619049,138.62433862433863 1.9047619047619049,137.989417989418 1.9047619047619049,137.35449735449737 1.9047619047619049,136.71957671957674 1.9047619047619049,136.0846560846561 1.9047619047619049,135.44973544973547 2.1164021164021167,134.81481481481484 2.1164021164021167,134.17989417989418 2.1164021164021167,133.54497354497354 2.1164021164021167,132.9100529100529 2.1164021164021167,132.27513227513228 2.1164021164021167,131.64021164021165 2.1164021164021167,131.005291005291 2.1164021164021167,130.37037037037038 2.1164021164021167,129.73544973544975 2.1164021164021167,129.10052910052912 2.1164021164021167,128.46560846560848 2.1164021164021167,127.83068783068784 2.1164021164021167,127.1957671957672 2.1164021164021167,126.56084656084657 2.1164021164021167,125.92592592592594 2.1164021164021167,125.2910052910053 2.1164021164021167,124.65608465608466 2.1164021164021167,124.02116402116403 2.1164021164021167,123.3862433862434 1.9047619047619049,122.75132275132276 1.9047619047619049,122.11640211640213 1.9047619047619049,121.4814814814815 1.9047619047619049,120.84656084656086 1.9047619047619049,120.21164021164022 1.9047619047619049,119.57671957671958 1.9047619047619049,118.94179894179895 1.9047619047619049,118.30687830687832 1.9047619047619049,117.67195767195768 1.9047619047619049,117.03703703703705 1.9047619047619049,116.4021164021164 1.9047619047619049,115.76719576719577 2.1164021164021167,115.13227513227514 2.1164021164021167,114.49735449735451 2.1164021164021167,113.86243386243387 2.1164021164021167,113.22751322751324 2.1164021164021167,112.5925925925926 2.1164021164021167,111.95767195767196 2.3280423280423284,111.32275132275133 2.3280423280423284,110.6878306878307 2.53968253968254,110.05291005291006 2.53968253968254,109.41798941798943 2.7513227513227516,108.78306878306879 2.9629629629629632,108.14814814814815 2.9629629629629632,107.51322751322752 3.174603174603175,106.87830687830689 3.3862433862433865,106.24338624338625 3.597883597883598,105.60846560846562 3.8095238095238098,104.97354497354497 4.021164021164021,104.33862433862434 4.444444444444445,103.91534391534393 4.656084656084657,103.28042328042329 4.867724867724868,102.64550264550266 5.291005291005291,102.01058201058201 5.502645502645503,101.37566137566138 5.9259259259259265,100.74074074074075 6.137566137566138,100.10582010582011 6.560846560846561,99.68253968253968 6.984126984126985,99.04761904761905 7.407407407407408,98.41269841269842 7.830687830687832,97.989417989418 8.253968253968255,97.56613756613757 8.88888888888889,97.14285714285715 9.523809523809524,96.93121693121694 10.15873015873016,96.71957671957672 10.793650793650794,96.50793650793652 11.428571428571429,96.2962962962963 12.063492063492065,96.2962962962963 12.6984126984127,96.2962962962963 13.333333333333334,96.2962962962963 13.96825396825397,96.2962962962963 14.603174603174605,96.2962962962963 15.238095238095239,96.50793650793652 15.873015873015873,96.71957671957672 16.50793650793651,96.71957671957672 17.142857142857146,97.14285714285715 17.77777777777778,97.35449735449737 18.412698412698415,97.56613756613757 19.047619047619047,97.989417989418 19.47089947089947,98.41269841269842 20.105820105820108,98.83597883597885 20.529100529100532,99.25925925925927 20.952380952380953,99.68253968253968 21.375661375661377,100.10582010582011 21.7989417989418,100.52910052910053 22.222222222222225,100.95238095238096 22.433862433862437,101.5873015873016 22.857142857142858,102.01058201058201 23.280423280423282,102.64550264550266 23.492063492063494,103.28042328042329 23.915343915343918,103.91534391534393 24.338624338624342,104.55026455026456 24.55026455026455,105.18518518518519 24.973544973544975,105.60846560846562 25.3968253968254,106.24338624338625 25.820105820105823,106.66666666666667 26.243386243386244,107.0899470899471 26.666666666666668,107.72486772486774 27.089947089947092,108.14814814814815 27.724867724867728,108.57142857142858 28.35978835978836,108.994708994709 28.994708994708997,109.41798941798943 29.629629629629633,109.62962962962963 30.264550264550266,110.05291005291006 30.899470899470902,110.26455026455027 31.53439153439154,110.26455026455027 32.16931216931217,110.26455026455027 32.804232804232804,110.6878306878307 33.43915343915344,110.6878306878307 34.074074074074076,110.6878306878307 34.70899470899471,110.6878306878307 35.34391534391535,110.6878306878307 35.97883597883598,110.47619047619048 36.613756613756614,110.26455026455027 37.248677248677254,110.26455026455027 37.883597883597886,110.05291005291006 38.51851851851852,109.62962962962963 39.15343915343916,109.41798941798943 39.78835978835979,109.20634920634922 40.423280423280424,108.78306878306879 41.058201058201064,108.35978835978837 41.6931216931217,107.93650793650795 42.32804232804233,107.51322751322752 42.96296296296297,107.0899470899471 43.386243386243386,106.45502645502647 44.021164021164026,106.03174603174604 44.44444444444445,105.60846560846562 45.07936507936508,105.18518518518519 45.50264550264551,104.76190476190477 45.92592592592593,104.33862433862434 46.349206349206355,103.91534391534393 46.77248677248678,103.4920634920635 47.195767195767196,103.06878306878308 47.61904761904762,102.64550264550266 48.042328042328045,102.01058201058201 48.46560846560847,101.37566137566138 48.88888888888889,100.74074074074075 49.1005291005291,100.10582010582011 49.523809523809526,99.47089947089948 49.73544973544974,98.83597883597885 50.158730158730165,98.2010582010582 50.370370370370374,97.56613756613757 50.58201058201058,96.93121693121694 50.7936507936508,96.2962962962963 51.21693121693122,95.66137566137567 51.21693121693122,95.02645502645504 51.42857142857143,94.39153439153439 51.851851851851855,93.75661375661376 51.851851851851855,93.12169312169313 52.06349206349207,92.4867724867725 52.27513227513228,91.85185185185186 52.27513227513228,91.21693121693123 52.48677248677249,90.58201058201058 52.6984126984127,89.94708994708995 52.6984126984127,89.31216931216932 52.91005291005291,88.67724867724868 52.91005291005291,88.04232804232805 52.6984126984127,87.40740740740742 52.91005291005291,86.77248677248677 52.91005291005291,86.13756613756614 52.91005291005291,85.5026455026455 53.12169312169313,84.86772486772487 53.12169312169313,84.23280423280424 53.12169312169313,83.59788359788361 53.12169312169313,82.96296296296298 53.12169312169313,82.32804232804233 53.12169312169313,81.6931216931217 53.12169312169313,81.05820105820106 53.12169312169313,80.42328042328043 52.91005291005291,79.7883597883598 52.91005291005291,79.15343915343917 52.91005291005291,78.51851851851852 52.91005291005291,77.88359788359789 52.48677248677249,77.24867724867725 52.48677248677249,76.61375661375662 52.27513227513228,75.97883597883599 52.06349206349207,75.34391534391536 51.851851851851855,74.70899470899471 51.640211640211646,74.07407407407408 51.42857142857143,73.43915343915344 51.00529100529101,72.80423280423281 51.00529100529101,72.16931216931218 50.58201058201058,71.74603174603175 50.158730158730165,71.11111111111111 49.94708994708995,70.47619047619048 49.523809523809526,70.05291005291006 49.1005291005291,69.41798941798942 48.677248677248684,68.78306878306879 48.25396825396826,68.35978835978837 47.830687830687836,67.72486772486774 47.40740740740741,67.08994708994709 46.98412698412699,66.66666666666667 46.349206349206355,66.24338624338625 45.92592592592593,65.82010582010582 45.29100529100529,65.3968253968254 44.65608465608466,65.18518518518519 44.021164021164026,64.97354497354497 43.386243386243386,64.76190476190477 42.75132275132275,64.97354497354497 42.11640211640212,64.97354497354497 41.48148148148149,64.76190476190477 40.84656084656085,64.76190476190477 40.211640211640216,64.97354497354497 39.57671957671958,64.97354497354497 38.94179894179894,65.18518518518519 38.30687830687831,65.18518518518519 37.67195767195768,65.3968253968254 37.03703703703704,65.60846560846561 36.402116402116405,65.82010582010582 35.76719576719577,66.24338624338625 35.13227513227513,66.45502645502646 34.4973544973545,66.66666666666667 34.074074074074076,67.08994708994709 33.43915343915344,67.3015873015873 33.01587301587302,67.72486772486774 32.38095238095239,68.14814814814815 31.746031746031747,68.57142857142858 31.111111111111114,68.994708994709 30.476190476190478,69.41798941798942 29.841269841269842,69.84126984126985 29.20634920634921,70.26455026455027 28.571428571428573,70.47619047619048 27.93650793650794,70.8994708994709 27.301587301587304,71.11111111111111 26.666666666666668,71.53439153439155 26.031746031746035,71.74603174603175 25.3968253968254,71.95767195767196 24.761904761904763,72.16931216931218 24.12698412698413,72.38095238095238 23.492063492063494,72.38095238095238 22.857142857142858,72.5925925925926 22.222222222222225,72.5925925925926 21.58730158730159,72.5925925925926 20.952380952380953,72.38095238095238 20.31746031746032,72.16931216931218 19.682539682539684,71.74603174603175 19.047619047619047,71.53439153439155 18.624338624338627,71.11111111111111 18.201058201058203,70.6878306878307 17.566137566137566,70.26455026455027 17.142857142857146,69.62962962962963 16.931216931216934,68.994708994709 16.50793650793651,68.35978835978837 16.296296296296298,67.72486772486774 16.084656084656086,67.08994708994709 16.084656084656086,66.45502645502646 15.873015873015873,65.82010582010582 15.873015873015873,65.18518518518519 15.661375661375663,64.55026455026456 15.661375661375663,63.91534391534392 15.449735449735451,63.280423280423285 15.449735449735451,62.64550264550265 15.238095238095239,62.01058201058201 15.238095238095239,61.37566137566138 15.238095238095239,60.74074074074075 15.238095238095239,60.10582010582011 15.238095238095239,59.470899470899475 15.238095238095239,58.83597883597884 15.238095238095239,58.2010582010582 15.238095238095239,57.56613756613757 15.238095238095239,56.93121693121694 15.238095238095239,56.2962962962963 15.238095238095239,55.661375661375665 15.449735449735451,55.02645502645503 15.449735449735451,54.39153439153439 15.661375661375663,53.75661375661376 15.661375661375663,53.12169312169313 15.449735449735451,52.48677248677249 15.661375661375663,51.851851851851855 15.661375661375663,51.21693121693122 15.873015873015873,50.58201058201058 16.084656084656086,49.94708994708995 16.296296296296298,49.31216931216932 16.50793650793651,48.677248677248684 16.50793650793651,48.042328042328045 16.71957671957672,47.40740740740741 17.142857142857146,46.77248677248678 17.142857142857146,46.13756613756614 17.566137566137566,45.50264550264551 17.77777777777778,44.867724867724874 17.98941798941799,44.232804232804234 18.412698412698415,43.5978835978836 18.624338624338627,42.96296296296297 18.83597883597884,42.32804232804233 19.25925925925926,41.904761904761905 19.47089947089947,41.26984126984127 19.894179894179896,40.63492063492064 20.31746031746032,40.0 20.529100529100532,39.36507936507937 20.952380952380953,38.94179894179894 21.164021164021165,38.30687830687831 21.58730158730159,37.883597883597886 21.7989417989418,37.248677248677254 22.222222222222225,36.613756613756614 22.645502645502646,35.97883597883598 22.857142857142858,35.34391534391535 23.280423280423282,34.70899470899471 23.492063492063494,34.074074074074076 23.915343915343918,33.65079365079365 25.60846560846561,30.68783068783069" style="fill:none; stroke:#3300bb; stroke-width:1.0"  /><circle cx="25.60846560846561" cy="30.68783068783069" r="2.0" style="fill:none; stroke:#000000aa; stroke-width:0.25" /><circle cx="163.59788359788362" cy="51.42857142857143" r="2.0" style="fill:none; stroke:#000000aa; stroke-width:0.25" /><circle cx="134.17989417989418" cy="151.95767195767198" r="2.0" style="fill:none; stroke:#000000aa; stroke-width:0.25" /><circle cx="0.21164021164021166" cy="160.42328042328043" r="2.0" style="fill:none; stroke:#000000aa; stroke-width:0.25" /><circle cx="25.3968253968254" cy="30.899470899470902" r="2.0" style="fill:none; stroke:#ff3366aa; stroke-width:0.25" /><circle cx="163.3862433862434" cy="51.851851851851855" r="2.0" style="fill:none; stroke:#ff3366aa; stroke-width:0.25" /><circle cx="134.3915343915344" cy="151.53439153439155" r="2.0" style="fill:none; stroke:#ff3366aa; stroke-width:0.25" /><circle cx="0.21164021164021166" cy="160.84656084656086" r="2.0" style="fill:none; stroke:#ff3366aa; stroke-width:0.25" /><polyline points="36.82539682539683,32.804232804232804 36.19047619047619,32.592592592592595 35.55555555555556,32.592592592592595 34.920634920634924,32.38095238095239 34.28571428571429,32.38095238095239 33.65079365079365,32.16931216931217 33.01587301587302,32.16931216931217 32.38095238095239,31.95767195767196 31.746031746031747,31.746031746031747 31.111111111111114,31.746031746031747 30.476190476190478,31.53439153439154 29.841269841269842,31.53439153439154 29.20634920634921,31.322751322751326 28.571428571428573,31.322751322751326" style="fill:none; stroke:#001100; stroke-width:1.0" /><polyline points="19.47089947089947,41.26984126984127 19.894179894179896,40.63492063492064 20.31746031746032,40.0 20.529100529100532,39.36507936507937 20.952380952380953,38.94179894179894 21.164021164021165,38.30687830687831 21.58730158730159,37.883597883597886 21.7989417989418,37.248677248677254 22.222222222222225,36.613756613756614 22.645502645502646,35.97883597883598 22.857142857142858,35.34391534391535 23.280423280423282,34.70899470899471 23.492063492063494,34.074074074074076 23.915343915343918,33.65079365079365" style="fill:none; stroke:#000011; stroke-width:1.0" /><polyline points="163.1746031746032,63.280423280423285 163.1746031746032,62.64550264550265 163.1746031746032,62.01058201058201 163.1746031746032,61.37566137566138 163.1746031746032,60.74074074074075 163.1746031746032,60.10582010582011 163.1746031746032,59.470899470899475 163.1746031746032,58.83597883597884 163.3862433862434,58.2010582010582 163.3862433862434,57.56613756613757 163.3862433862434,56.93121693121694 163.3862433862434,56.2962962962963 163.3862433862434,55.661375661375665 163.3862433862434,55.02645502645503" style="fill:none; stroke:#001100; stroke-width:1.0" /><polyline points="151.53439153439155,51.42857142857143 152.16931216931218,51.42857142857143 152.8042328042328,51.640211640211646 153.43915343915344,51.640211640211646 154.07407407407408,51.640211640211646 154.7089947089947,51.640211640211646 155.34391534391534,51.640211640211646 155.978835978836,51.640211640211646 156.61375661375664,51.640211640211646 157.24867724867727,51.640211640211646 157.8835978835979,51.640211640211646 158.51851851851853,51.640211640211646 159.15343915343917,51.42857142857143 159.7883597883598,51.42857142857143 160.42328042328043,51.42857142857143" style="fill:none; stroke:#000011; stroke-width:1.0" /><polyline points="122.96296296296298,151.32275132275134 123.59788359788361,151.32275132275134 124.23280423280424,151.53439153439155 124.86772486772487,151.53439153439155 125.5026455026455,151.53439153439155 126.13756613756615,151.53439153439155 126.77248677248679,151.53439153439155 127.40740740740742,151.53439153439155 128.04232804232805,151.53439153439155 128.67724867724868,151.53439153439155 129.31216931216932,151.53439153439155 129.94708994708995,151.53439153439155 130.58201058201058,151.53439153439155 131.21693121693121,151.74603174603175" style="fill:none; stroke:#001100; stroke-width:1.0" /><polyline points="140.74074074074076,141.3756613756614 140.31746031746033,141.7989417989418 139.8941798941799,142.43386243386246 139.47089947089947,143.0687830687831 139.25925925925927,143.70370370370372 138.83597883597884,144.33862433862436 138.41269841269843,144.973544973545 138.2010582010582,145.60846560846562 137.7777777777778,146.03174603174605 137.35449735449737,146.66666666666669 137.14285714285717,147.30158730158732 136.71957671957674,147.72486772486775 136.5079365079365,148.35978835978838 136.0846560846561,148.78306878306879" style="fill:none; stroke:#000011; stroke-width:1.0" /><polyline points="1.26984126984127,149.41798941798942 1.26984126984127,150.05291005291005 1.26984126984127,150.6878306878307 1.0582010582010584,151.32275132275134 1.0582010582010584,151.95767195767198 1.0582010582010584,152.5925925925926 0.8465608465608466,153.22751322751324 0.8465608465608466,153.86243386243387 0.8465608465608466,154.4973544973545 0.634920634920635,155.13227513227514 0.634920634920635,155.76719576719577 0.4232804232804233,156.4021164021164 0.4232804232804233,157.03703703703704 0.4232804232804233,157.67195767195767" style="fill:none; stroke:#001100; stroke-width:1.0" /><polyline points="11.851851851851853,161.05820105820106 11.216931216931219,160.84656084656086 10.582010582010582,160.84656084656086 9.947089947089948,160.84656084656086 9.312169312169313,160.84656084656086 8.677248677248677,160.84656084656086 8.042328042328043,161.05820105820106 7.407407407407408,160.84656084656086 6.772486772486773,160.84656084656086 6.137566137566138,160.84656084656086 5.502645502645503,160.84656084656086 4.867724867724868,160.63492063492066 4.2328042328042335,160.63492063492066 3.597883597883598,160.63492063492066" style="fill:none; stroke:#000011; stroke-width:1.0" /><polyline points="28.571428571428573,31.322751322751326 7.830687830687832,27.513227513227516" style="fill:none; stroke:#ffaa00; stroke-width:0.4" /><polyline points="23.915343915343918,33.65079365079365 34.4973544973545,15.449735449735451" style="fill:none; stroke:#aaff00; stroke-width:0.4" /><polyline points="163.3862433862434,55.02645502645503 164.02116402116403,33.86243386243387" style="fill:none; stroke:#ffaa00; stroke-width:0.4" /><polyline points="160.42328042328043,51.42857142857143 181.5873015873016,51.42857142857143" style="fill:none; stroke:#aaff00; stroke-width:0.4" /><polyline points="131.21693121693121,151.74603174603175 152.38095238095238,152.8042328042328" style="fill:none; stroke:#ffaa00; stroke-width:0.4" /><polyline points="136.0846560846561,148.78306878306879 124.86772486772487,166.7724867724868" style="fill:none; stroke:#aaff00; stroke-width:0.4" /><polyline points="0.4232804232804233,157.67195767195767 -1.6931216931216932,178.62433862433863" style="fill:none; stroke:#ffaa00; stroke-width:0.4" /><polyline points="3.597883597883598,160.63492063492066 -17.566137566137566,159.5767195767196" style="fill:none; stroke:#aaff00; stroke-width:0.4" /><circle cx="80.42328042328043" cy="90.37037037037038" r="1.0" style="fill:#444444; stroke-width:0" /><circle cx="90.15873015873017" cy="81.48148148148148" r="10.582010582010582" style="fill:#ff770022; stroke-width:0" /><circle cx="90.15873015873017" cy="81.48148148148148" r="1.0" style="fill:#ff7700; stroke-width:0" /></svg>