<?xml version="1.0" encoding="UTF-8" standalone="no"?><svg width="551.7460317460318" height="608.8888888888889" viewBox="-10 -10 203.91534391534393 222.962962962963" xmlns="http://www.w3.org/2000/svg" xmlns:xlink="http://www.w3.org/1999/xlink"><polyline points="62.64550264550265,20.105820105820108 66.24338624338625,21.7989417989418 66.87830687830689,22.222222222222225 67.51322751322752,22.433862433862437 68.14814814814815,22.645502645502646 68.78306878306879,23.06878306878307 69.41798941798942,23.280423280423282 70.05291005291006,23.492063492063494 70.47619047619048,23.915343915343918 71.11111111111111,24.12698412698413 71.74603174603175,24.338624338624342 72.38095238095238,24.55026455026455 73.01587301587303,24.973544973544975 73.65079365079366,25.185185185185187 74.28571428571429,25.3968253968254 74.92063492063492,25.60846560846561 75.55555555555556,25.820105820105823 76.19047619047619,26.243386243386244 76.82539682539684,26.455026455026456 77.46031746031747,26.666666666666668 78.0952380952381,26.87830687830688 78.73015873015873,27.301587301587304 79.36507936507937,27.513227513227516 80.0,27.724867724867728 80.63492063492065,27.93650793650794 81.26984126984128,28.35978835978836 81.90476190476191,28.571428571428573 82.53968253968254,28.783068783068785 83.17460317460318,28.994708994708997 83.80952380952381,29.20634920634921 84.44444444444446,29.41798941798942 84.86772486772487,29.841269841269842 85.5026455026455,30.052910052910054 86.13756613756614,30.052910052910054 86.77248677248677,30.264550264550266 87.40740740740742,30.476190476190478 88.04232804232805,30.68783068783069 88.67724867724868,30.899470899470902 89.31216931216932,31.322751322751326 89.94708994708995,31.53439153439154 90.58201058201058,31.746031746031747 91.21693121693123,31.95767195767196 91.85185185185186,32.38095238095239 92.4867724867725,32.592592592592595 93.12169312169313,32.804232804232804 93.75661375661376,33.01587301587302 94.39153439153439,33.22751322751323 95.02645502645504,33.65079365079365 95.66137566137567,33.86243386243387 96.2962962962963,34.074074074074076 96.93121693121694,34.4973544973545 97.56613756613757,34.70899470899471 98.2010582010582,34.920634920634924 98.83597883597885,35.13227513227513 99.47089947089948,35.34391534391535 100.10582010582011,35.55555555555556 100.74074074074075,35.97883597883598 101.37566137566138,36.19047619047619 102.01058201058201,36.402116402116405 102.64550264550266,36.613756613756614 103.28042328042329,36.82539682539683 103.91534391534393,37.03703703703704 104.55026455026456,37.46031746031746 105.18518518518519,37.67195767195768 105.82010582010582,37.883597883597886 106.45502645502647,38.095238095238095 107.0899470899471,38.30687830687831 107.72486772486774,38.730158730158735 108.35978835978837,38.94179894179894 108.994708994709,39.15343915343916 109.62962962962963,39.36507936507937 110.26455026455027,39.57671957671958 110.89947089947091,39.78835978835979 111.53439153439155,40.0 112.16931216931218,40.211640211640216 112.80423280423281,40.423280423280424 113.43915343915344,40.423280423280424 114.07407407407408,40.63492063492064 114.70899470899472,40.63492063492064 115.34391534391536,40.63492063492064 115.97883597883599,40.423280423280424 116.61375661375662,40.423280423280424 117.24867724867725,40.211640211640216 117.88359788359789,40.211640211640216 118.51851851851853,40.0 119.15343915343917,39.57671957671958 119.7883597883598,39.36507936507937 120.21164021164022,38.94179894179894 120.63492063492065,38.51851851851852 121.05820105820106,38.095238095238095 121.4814814814815,37.67195767195768 121.90476190476191,37.03703703703704 122.32804232804234,36.613756613756614 122.75132275132276,35.97883597883598 123.17460317460318,35.34391534391535 123.3862433862434,34.70899470899471 123.59788359788361,34.074074074074076 123.80952380952382,33.43915343915344 124.02116402116403,32.804232804232804 124.02116402116403,32.16931216931217 124.02116402116403,31.53439153439154 124.02116402116403,30.899470899470902 124.02116402116403,30.264550264550266 123.80952380952382,29.629629629629633 123.59788359788361,28.994708994708997 123.3862433862434,28.35978835978836 123.3862433862434,27.724867724867728 123.17460317460318,27.089947089947092 122.96296296296298,26.455026455026456 122.75132275132276,25.820105820105823 122.53968253968254,25.185185185185187 122.53968253968254,24.55026455026455 122.32804232804234,23.915343915343918 122.32804232804234,23.280423280423282 122.32804232804234,22.645502645502646 122.11640211640213,22.010582010582013 122.11640211640213,21.375661375661377 122.11640211640213,20.740740740740744 122.11640211640213,20.105820105820108 122.32804232804234,19.47089947089947 122.32804232804234,18.83597883597884 122.32804232804234,18.201058201058203 122.53968253968254,17.566137566137566 122.53968253968254,16.931216931216934 122.53968253968254,16.296296296296298 122.75132275132276,15.661375661375663 122.96296296296298,15.026455026455027 123.17460317460318,14.391534391534393 123.17460317460318,13.756613756613758 123.3862433862434,13.121693121693122 123.59788359788361,12.486772486772487 123.80952380952382,11.851851851851853 124.02116402116403,11.216931216931219 124.23280423280424,10.582010582010582 124.44444444444446,9.947089947089948 124.65608465608466,9.312169312169313 124.86772486772487,8.677248677248677 125.07936507936509,8.042328042328043 125.2910052910053,7.407407407407408 125.71428571428572,6.984126984126985 125.92592592592594,6.34920634920635 126.34920634920636,5.9259259259259265 126.77248677248679,5.291005291005291 127.1957671957672,4.867724867724868 127.61904761904763,4.2328042328042335 128.04232804232805,3.8095238095238098 128.46560846560848,3.3862433862433865 128.88888888888889,2.9629629629629632 129.52380952380955,2.53968253968254 130.15873015873018,2.3280423280423284 130.58201058201058,1.9047619047619049 131.21693121693121,1.6931216931216932 131.85185185185185,1.4814814814814816 132.4867724867725,1.26984126984127 133.12169312169314,1.0582010582010584 133.75661375661377,0.8465608465608466 134.3915343915344,0.8465608465608466 135.02645502645504,0.634920634920635 135.66137566137567,0.4232804232804233 136.2962962962963,0.4232804232804233 136.93121693121694,0.4232804232804233 137.56613756613757,0.21164021164021166 138.2010582010582,0.21164021164021166 138.83597883597884,0.4232804232804233 139.47089947089947,0.21164021164021166 140.10582010582013,0.21164021164021166 140.74074074074076,0.21164021164021166 141.3756613756614,0.4232804232804233 142.01058201058203,0.4232804232804233 142.64550264550266,0.4232804232804233 143.2804232804233,0.634920634920635 143.91534391534393,0.634920634920635 144.55026455026456,0.634920634920635 145.1851851851852,0.8465608465608466 145.82010582010582,0.8465608465608466 146.45502645502646,1.0582010582010584 147.0899470899471,1.0582010582010584 147.72486772486775,1.26984126984127 148.35978835978838,1.26984126984127 148.99470899470901,1.4814814814814816 149.62962962962965,1.4814814814814816 150.26455026455028,1.9047619047619049 150.8994708994709,1.9047619047619049 151.53439153439155,2.3280423280423284 152.16931216931218,2.53968253968254 152.8042328042328,2.7513227513227516 153.43915343915344,3.174603174603175 154.07407407407408,3.3862433862433865 154.7089947089947,3.8095238095238098 155.34391534391534,4.021164021164021 155.978835978836,4.444444444444445 156.61375661375664,4.867724867724868 157.24867724867727,5.07936507936508 157.67195767195767,5.502645502645503 158.30687830687833,5.9259259259259265 158.73015873015873,6.34920634920635 159.36507936507937,6.560846560846561 159.7883597883598,6.984126984126985 160.42328042328043,7.407407407407408 161.05820105820106,7.830687830687832 161.4814814814815,8.253968253968255 162.11640211640213,8.677248677248677 162.53968253968256,9.100529100529101 162.96296296296296,9.523809523809524 163.3862433862434,10.15873015873016 163.80952380952382,10.582010582010582 164.02116402116403,11.216931216931219 164.44444444444446,11.851851851851853 164.65608465608466,12.486772486772487 164.65608465608466,13.121693121693122 164.65608465608466,13.756613756613758 164.65608465608466,14.391534391534393 164.44444444444446,15.026455026455027 164.44444444444446,15.661375661375663 164.44444444444446,16.296296296296298 164.02116402116403,16.71957671957672 164.23280423280426,17.354497354497354 164.02116402116403,17.98941798941799 163.80952380952382,18.624338624338627 163.3862433862434,18.201058201058203 163.1746031746032,18.83597883597884 162.96296296296296,19.47089947089947 162.75132275132276,20.105820105820108 162.32804232804233,20.740740740740744 161.90476190476193,21.375661375661377 161.6931216931217,22.010582010582013 161.2698412698413,22.433862433862437 160.84656084656086,22.857142857142858 160.42328042328043,23.280423280423282 160.0,23.915343915343918 159.36507936507937,24.338624338624342 158.73015873015873,24.761904761904763 158.30687830687833,25.185185185185187 157.8835978835979,25.60846560846561 157.46031746031747,26.031746031746035 157.03703703703704,26.455026455026456 156.4021164021164,26.87830687830688 155.978835978836,27.301587301587304 155.55555555555557,27.724867724867728 155.13227513227514,28.14814814814815 154.7089947089947,28.571428571428573 154.2857142857143,28.994708994708997 153.86243386243387,29.41798941798942 153.43915343915344,30.052910052910054 153.01587301587304,30.476190476190478 152.5925925925926,31.111111111111114 152.16931216931218,31.53439153439154 151.74603174603175,31.95767195767196 151.32275132275134,32.592592592592595 150.8994708994709,33.01587301587302 150.47619047619048,33.65079365079365 150.05291005291005,34.28571428571429 149.62962962962965,34.920634920634924 149.41798941798942,35.55555555555556 148.99470899470901,36.19047619047619 148.57142857142858,36.82539682539683 148.35978835978838,37.46031746031746 147.93650793650795,37.883597883597886 147.72486772486775,38.51851851851852 147.30158730158732,39.15343915343916 146.8783068783069,39.78835978835979 146.66666666666669,40.423280423280424 146.24338624338625,40.84656084656085 146.03174603174605,41.48148148148149 145.82010582010582,42.11640211640212 145.39682539682542,42.75132275132275 145.1851851851852,43.386243386243386 145.1851851851852,44.021164021164026 144.973544973545,44.65608465608466 144.973544973545,45.29100529100529 144.76190476190476,45.92592592592593 144.76190476190476,46.560846560846564 144.76190476190476,47.195767195767196 144.76190476190476,47.830687830687836 144.76190476190476,48.46560846560847 144.76190476190476,49.1005291005291 144.973544973545,49.73544973544974 145.1851851851852,50.370370370370374 145.1851851851852,51.00529100529101 145.39682539682542,51.640211640211646 145.60846560846562,52.27513227513228 146.03174603174605,52.91005291005291 146.24338624338625,53.54497354497355 146.66666666666669,54.179894179894184 147.0899470899471,54.81481481481482 147.51322751322752,55.449735449735456 147.93650793650795,56.08465608465609 148.35978835978838,56.50793650793651 148.78306878306879,57.142857142857146 149.20634920634922,57.56613756613757 149.84126984126985,57.989417989417994 150.26455026455028,58.41269841269842 150.8994708994709,58.83597883597884 151.53439153439155,59.25925925925927 152.16931216931218,59.470899470899475 152.5925925925926,59.8941798941799 153.22751322751324,60.10582010582011 153.86243386243387,60.31746031746032 154.4973544973545,60.74074074074075 155.13227513227514,60.952380952380956 155.76719576719577,60.952380952380956 156.4021164021164,61.37566137566138 157.03703703703704,61.58730158730159 157.67195767195767,61.798941798941804 158.30687830687833,62.01058201058201 158.94179894179896,62.43386243386244 159.5767195767196,62.64550264550265 160.21164021164023,62.85714285714286 160.84656084656086,63.280423280423285 161.4814814814815,63.492063492063494 162.11640211640213,63.70370370370371 162.75132275132276,63.91534391534392 163.3862433862434,64.12698412698413 164.02116402116403,64.33862433862434 164.65608465608466,64.55026455026456 165.2910052910053,64.76190476190477 165.92592592592595,64.76190476190477 166.56084656084658,65.18518518518519 167.19576719576722,65.18518518518519 167.83068783068785,65.60846560846561 168.46560846560848,65.60846560846561 169.10052910052912,66.03174603174604 169.73544973544975,66.03174603174604 170.37037037037038,66.24338624338625 171.005291005291,66.45502645502646 171.64021164021165,66.66666666666667 172.27513227513228,66.87830687830689 172.9100529100529,66.87830687830689 173.54497354497354,67.08994708994709 174.1798941798942,67.08994708994709 174.81481481481484,67.3015873015873 175.44973544973547,67.51322751322752 176.0846560846561,67.51322751322752 176.71957671957674,67.51322751322752 177.35449735449737,67.72486772486774 177.989417989418,67.72486772486774 178.62433862433863,67.72486772486774 179.25925925925927,67.72486772486774 179.8941798941799,67.93650793650794 180.52910052910053,68.14814814814815 184.7619047619048,68.78306878306879" style="fill:none; stroke:#cc0000; stroke-width:1.0"  /><polyline points="184.7619047619048,68.78306878306879 182.22222222222223,71.95767195767196 181.79894179894183,72.38095238095238 181.3756613756614,73.01587301587303 180.95238095238096,73.43915343915344 180.52910052910053,73.86243386243387 180.10582010582013,74.49735449735451 179.6825396825397,74.92063492063492 179.25925925925927,75.34391534391536 178.83597883597884,75.97883597883599 178.41269841269843,76.4021164021164 177.989417989418,77.03703703703704 177.56613756613757,77.46031746031747 177.14285714285717,78.0952380952381 176.71957671957674,78.73015873015873 176.2962962962963,79.15343915343917 175.87301587301587,79.7883597883598 175.44973544973547,80.42328042328043 175.02645502645504,81.05820105820106 174.6031746031746,81.6931216931217 174.1798941798942,82.32804232804233 173.75661375661377,82.75132275132276 173.33333333333334,83.3862433862434 172.9100529100529,83.80952380952381 172.4867724867725,84.44444444444446 172.06349206349208,85.07936507936509 171.64021164021165,85.5026455026455 171.21693121693124,86.13756613756614 170.7936507936508,86.77248677248677 170.37037037037038,87.1957671957672 169.94708994708995,87.83068783068784 169.52380952380955,88.46560846560847 169.10052910052912,88.8888888888889 168.67724867724868,89.52380952380953 168.25396825396825,90.15873015873017 167.83068783068785,90.58201058201058 167.40740740740742,91.21693121693123 166.984126984127,91.64021164021165 166.56084656084658,92.27513227513228 166.13756613756615,92.91005291005291 165.71428571428572,93.33333333333334 165.2910052910053,93.96825396825398 164.8677248677249,94.60317460317461 164.44444444444446,95.02645502645504 164.02116402116403,95.66137566137567 163.59788359788362,96.08465608465609 163.1746031746032,96.71957671957672 162.75132275132276,97.35449735449737 162.32804232804233,97.989417989418 161.90476190476193,98.41269841269842 161.4814814814815,98.83597883597885 161.05820105820106,99.47089947089948 160.84656084656086,100.10582010582011 160.42328042328043,100.74074074074075 160.0,101.16402116402116 159.5767195767196,101.79894179894181 159.15343915343917,102.22222222222223 158.73015873015873,102.85714285714286 158.30687830687833,103.4920634920635 157.8835978835979,104.12698412698414 157.46031746031747,104.55026455026456 157.03703703703704,105.18518518518519 156.61375661375664,105.60846560846562 156.1904761904762,106.24338624338625 155.76719576719577,106.66666666666667 155.55555555555557,107.3015873015873 155.13227513227514,107.72486772486774 154.7089947089947,108.14814814814815 154.2857142857143,108.57142857142858 153.86243386243387,109.20634920634922 153.43915343915344,109.62962962962963 153.01587301587304,110.26455026455027 152.5925925925926,110.6878306878307 152.16931216931218,111.32275132275133 151.74603174603175,111.95767195767196 151.32275132275134,112.3809523809524 150.8994708994709,113.01587301587303 150.47619047619048,113.65079365079366 150.05291005291005,114.07407407407408 149.62962962962965,114.70899470899472 149.20634920634922,115.13227513227514 148.78306878306879,115.76719576719577 148.35978835978838,116.1904761904762 147.93650793650795,116.82539682539684 147.51322751322752,117.24867724867725 147.0899470899471,117.88359788359789 146.66666666666669,118.30687830687832 146.24338624338625,118.94179894179895 145.82010582010582,119.36507936507937 145.39682539682542,120.00000000000001 144.973544973545,120.42328042328043 144.55026455026456,121.05820105820106 144.12698412698413,121.4814814814815 143.70370370370372,122.11640211640213 143.2804232804233,122.53968253968254 142.85714285714286,122.96296296296298 142.43386243386246,123.59788359788361 142.01058201058203,124.02116402116403 141.5873015873016,124.65608465608466 141.16402116402116,125.07936507936509 140.74074074074076,125.71428571428572 140.31746031746033,126.13756613756615 139.8941798941799,126.56084656084657 139.47089947089947,127.1957671957672 139.04761904761907,127.61904761904763 138.62433862433863,128.25396825396825 138.2010582010582,128.67724867724868 137.7777777777778,129.31216931216932 137.35449735449737,129.73544973544975 136.93121693121694,130.15873015873018 136.5079365079365,130.58201058201058 136.0846560846561,131.005291005291 135.87301587301587,131.64021164021165 135.44973544973547,132.06349206349208 135.02645502645504,132.4867724867725 134.6031746031746,133.12169312169314 134.17989417989418,133.54497354497354 133.75661375661377,133.96825396825398 133.33333333333334,134.6031746031746 133.12169312169314,135.23809523809524 132.6984126984127,135.66137566137567 132.27513227513228,136.2962962962963 131.85185185185185,136.71957671957674 131.64021164021165,137.35449735449737 131.21693121693121,137.7777777777778 130.7936507936508,138.41269841269843 130.58201058201058,139.04761904761907 130.37037037037038,139.6825396825397 129.94708994708995,140.31746031746033 129.73544973544975,140.95238095238096 129.52380952380955,141.5873015873016 129.52380952380955,142.22222222222223 129.52380952380955,142.85714285714286 129.52380952380955,143.4920634920635 129.52380952380955,144.12698412698413 129.52380952380955,144.76190476190476 129.73544973544975,145.39682539682542 129.94708994708995,146.03174603174605 130.15873015873018,146.66666666666669 130.58201058201058,147.0899470899471 131.005291005291,147.72486772486775 131.42857142857144,148.14814814814815 131.85185185185185,148.57142857142858 132.4867724867725,148.99470899470901 133.12169312169314,149.41798941798942 133.75661375661377,149.62962962962965 134.3915343915344,150.05291005291005 135.02645502645504,150.26455026455028 135.66137566137567,150.47619047619048 136.2962962962963,150.6878306878307 136.93121693121694,150.8994708994709 137.56613756613757,151.11111111111111 138.2010582010582,151.11111111111111 138.83597883597884,151.32275132275134 139.47089947089947,151.32275132275134 140.10582010582013,151.53439153439155 140.74074074074076,151.53439153439155 141.3756613756614,151.74603174603175 142.01058201058203,151.74603174603175 142.64550264550266,151.95767195767198 143.2804232804233,151.95767195767198 143.91534391534393,152.16931216931218 144.55026455026456,152.16931216931218 145.1851851851852,152.16931216931218 145.82010582010582,152.16931216931218 146.45502645502646,152.16931216931218 147.0899470899471,152.16931216931218 147.72486772486775,152.38095238095238 148.35978835978838,152.38095238095238 148.99470899470901,152.16931216931218 149.62962962962965,152.38095238095238 150.26455026455028,152.38095238095238 150.8994708994709,152.38095238095238 151.53439153439155,152.5925925925926 152.16931216931218,152.5925925925926 152.8042328042328,152.8042328042328 153.43915343915344,152.8042328042328 154.07407407407408,152.8042328042328 154.7089947089947,153.01587301587304 155.34391534391534,153.22751322751324 155.978835978836,153.22751322751324 156.61375661375664,153.43915343915344 157.24867724867727,153.65079365079367 157.8835978835979,153.86243386243387 158.51851851851853,154.07407407407408 159.15343915343917,154.4973544973545 159.7883597883598,154.7089947089947 160.42328042328043,155.13227513227514 161.05820105820106,155.55555555555557 161.6931216931217,155.978835978836 162.11640211640213,156.4021164021164 162.75132275132276,156.82539682539684 163.1746031746032,157.24867724867727 163.59788359788362,157.67195767195767 164.02116402116403,158.0952380952381 164.44444444444446,158.51851851851853 164.65608465608466,159.15343915343917 165.0793650793651,159.7883597883598 165.50264550264552,160.42328042328043 165.50264550264552,161.05820105820106 165.50264550264552,161.6931216931217 165.71428571428572,162.32804232804233 165.71428571428572,162.96296296296296 165.71428571428572,163.59788359788362 165.71428571428572,164.23280423280426 165.50264550264552,164.8677248677249 165.50264550264552,165.50264550264552 165.50264550264552,166.13756613756615 165.2910052910053,166.7724867724868 165.0793650793651,167.40740740740742 164.8677248677249,168.04232804232805 164.8677248677249,168.67724867724868 164.65608465608466,169.31216931216932 164.44444444444446,169.94708994708995 164.23280423280426,170.58201058201058 164.02116402116403,171.21693121693124 163.80952380952382,171.85185185185188 163.59788359788362,172.4867724867725 163.3862433862434,173.12169312169314 163.1746031746032,173.75661375661377 162.75132275132276,174.3915343915344 162.53968253968256,175.02645502645504 162.11640211640213,175.44973544973547 161.90476190476193,176.0846560846561 161.4814814814815,176.50793650793653 161.05820105820106,177.14285714285717 160.63492063492066,177.7777777777778 160.21164021164023,178.2010582010582 159.7883597883598,178.83597883597884 159.36507936507937,179.25925925925927 158.94179894179896,179.8941798941799 158.51851851851853,180.31746031746033 158.0952380952381,180.74074074074076 157.67195767195767,181.3756613756614 157.24867724867727,181.79894179894183 156.82539682539684,182.22222222222223 156.4021164021164,182.64550264550266 155.978835978836,183.0687830687831 155.55555555555557,183.70370370370372 155.13227513227514,184.12698412698415 154.7089947089947,184.55026455026456 154.2857142857143,184.973544973545 153.86243386243387,185.39682539682542 153.22751322751324,185.82010582010582 152.8042328042328,186.24338624338625 152.16931216931218,186.66666666666669 151.74603174603175,187.08994708994712 151.11111111111111,187.51322751322752 150.47619047619048,187.72486772486775 150.05291005291005,188.14814814814815 149.41798941798942,188.57142857142858 148.78306878306879,188.99470899470901 148.14814814814815,189.41798941798945 147.51322751322752,189.62962962962965 146.8783068783069,189.84126984126985 146.24338624338625,190.26455026455028 145.60846560846562,190.47619047619048 144.973544973545,190.47619047619048 144.33862433862436,190.6878306878307 143.70370370370372,190.6878306878307 143.0687830687831,190.6878306878307 142.43386243386246,190.6878306878307 141.7989417989418,190.47619047619048 141.16402116402116,190.26455026455028 140.52910052910053,190.05291005291008 139.8941798941799,189.84126984126985 139.47089947089947,189.41798941798945 138.83597883597884,189.20634920634922 138.2010582010582,188.78306878306879 137.56613756613757,188.35978835978838 136.93121693121694,187.93650793650795 136.5079365079365,187.51322751322752 135.87301587301587,187.08994708994712 135.44973544973547,186.66666666666669 135.02645502645504,186.24338624338625 134.6031746031746,185.60846560846562 134.17989417989418,185.1851851851852 133.75661375661377,184.55026455026456 133.33333333333334,184.12698412698415 132.9100529100529,183.4920634920635 132.4867724867725,182.85714285714286 132.06349206349208,182.43386243386246 131.64021164021165,181.79894179894183 131.21693121693121,181.16402116402116 130.7936507936508,180.52910052910053 130.37037037037038,180.10582010582013 129.94708994708995,179.4708994708995 129.52380952380955,178.83597883597884 129.10052910052912,178.2010582010582 128.67724867724868,177.7777777777778 128.25396825396825,177.35449735449737 127.83068783068784,176.93121693121694 127.40740740740742,176.50793650793653 126.98412698412699,176.0846560846561 126.34920634920636,175.66137566137567 125.71428571428572,175.23809523809524 125.07936507936509,174.81481481481484 124.44444444444446,174.6031746031746 123.80952380952382,174.1798941798942 123.17460317460318,174.1798941798942 122.53968253968254,174.1798941798942 121.90476190476191,174.1798941798942 121.26984126984128,174.1798941798942 120.63492063492065,174.3915343915344 120.00000000000001,174.81481481481484 119.36507936507937,175.02645502645504 118.73015873015873,175.44973544973547 118.0952380952381,175.87301587301587 117.67195767195768,176.2962962962963 117.24867724867725,176.71957671957674 116.82539682539684,177.14285714285717 116.4021164021164,177.56613756613757 115.97883597883599,178.2010582010582 115.76719576719577,178.83597883597884 115.34391534391536,179.4708994708995 115.13227513227514,180.10582010582013 114.92063492063492,180.74074074074076 114.70899470899472,181.3756613756614 114.28571428571429,182.01058201058203 114.07407407407408,182.64550264550266 113.86243386243387,183.2804232804233 113.65079365079366,183.91534391534393 113.43915343915344,184.55026455026456 113.22751322751324,185.1851851851852 113.01587301587303,185.82010582010582 112.80423280423281,186.45502645502646 112.5925925925926,187.08994708994712 112.3809523809524,187.72486772486775 112.16931216931218,188.35978835978838 111.95767195767196,188.99470899470901 111.74603174603176,189.62962962962965 111.53439153439155,190.26455026455028 111.32275132275133,190.8994708994709 111.11111111111111,191.53439153439155 110.6878306878307,192.16931216931218 110.47619047619048,192.8042328042328 110.26455026455027,193.43915343915344 110.05291005291006,194.07407407407408 109.84126984126985,194.70899470899474 109.62962962962963,195.34391534391537 109.41798941798943,195.978835978836 109.20634920634922,196.61375661375664 108.994708994709,197.24867724867727 108.78306878306879,197.8835978835979 108.57142857142858,198.51851851851853 108.35978835978837,199.15343915343917 107.93650793650795,199.7883597883598 106.66666666666667,203.3862433862434" style="fill:none; stroke:#999900; stroke-width:1.0"  /><polyline points="106.66666666666667,203.3862433862434 103.28042328042329,201.2698412698413 102.85714285714286,200.84656084656086 102.22222222222223,200.63492063492066 101.5873015873016,200.21164021164023 100.95238095238096,199.7883597883598 100.31746031746033,199.5767195767196 99.68253968253968,199.15343915343917 99.04761904761905,198.73015873015873 98.41269841269842,198.30687830687833 97.77777777777779,198.0952380952381 97.14285714285715,197.6719576719577 96.71957671957672,197.24867724867727 96.08465608465609,196.82539682539684 95.44973544973546,196.4021164021164 95.02645502645504,195.978835978836 94.39153439153439,195.76719576719577 93.96825396825398,195.34391534391537 93.33333333333334,194.92063492063494 92.91005291005291,194.4973544973545 92.27513227513228,194.07407407407408 91.64021164021165,193.65079365079367 91.21693121693123,193.22751322751324 90.58201058201058,192.8042328042328 90.15873015873017,192.3809523809524 89.52380952380953,191.95767195767198 89.1005291005291,191.53439153439155 88.46560846560847,191.11111111111111 88.04232804232805,190.6878306878307 87.61904761904762,190.26455026455028 87.1957671957672,189.62962962962965 86.98412698412699,188.99470899470901 86.56084656084657,188.57142857142858 86.56084656084657,187.93650793650795 86.13756613756614,187.51322751322752 85.92592592592594,186.8783068783069 85.92592592592594,186.24338624338625 85.92592592592594,185.60846560846562 85.92592592592594,184.973544973545 86.13756613756614,184.33862433862436 86.34920634920636,183.70370370370372 86.56084656084657,183.0687830687831 86.98412698412699,182.43386243386246 87.40740740740742,181.79894179894183 87.83068783068784,181.3756613756614 88.25396825396827,180.95238095238096 88.8888888888889,180.74074074074076 89.31216931216932,180.31746031746033 89.94708994708995,179.8941798941799 90.58201058201058,179.4708994708995 91.21693121693123,179.25925925925927 91.85185185185186,179.04761904761907 92.27513227513228,178.62433862433863 92.91005291005291,178.62433862433863 93.54497354497356,178.41269841269843 94.17989417989419,178.41269841269843 94.81481481481482,177.989417989418 95.44973544973546,177.989417989418 96.08465608465609,177.7777777777778 96.71957671957672,177.7777777777778 97.35449735449737,177.7777777777778 97.989417989418,177.35449735449737 98.62433862433863,177.14285714285717 99.25925925925927,176.93121693121694 99.8941798941799,176.50793650793653 100.52910052910053,176.0846560846561 101.16402116402116,175.66137566137567 101.5873015873016,175.23809523809524 102.01058201058201,174.81481481481484 102.43386243386244,174.3915343915344 102.85714285714286,173.96825396825398 103.28042328042329,173.33333333333334 103.70370370370371,172.9100529100529 103.91534391534393,172.27513227513228 104.33862433862434,171.64021164021165 104.76190476190477,171.005291005291 104.97354497354497,170.37037037037038 104.97354497354497,169.73544973544975 105.18518518518519,169.10052910052912 105.3968253968254,168.46560846560848 105.3968253968254,167.83068783068785 105.60846560846562,167.19576719576722 105.60846560846562,166.56084656084658 105.60846560846562,165.92592592592595 105.60846560846562,165.2910052910053 105.60846560846562,164.65608465608466 105.3968253968254,164.02116402116403 105.3968253968254,163.3862433862434 105.3968253968254,162.75132275132276 105.18518518518519,162.11640211640213 104.97354497354497,161.4814814814815 104.97354497354497,160.84656084656086 104.76190476190477,160.21164021164023 104.55026455026456,159.5767195767196 104.55026455026456,158.94179894179896 104.33862433862434,158.30687830687833 104.12698412698414,157.67195767195767 103.70370370370371,157.03703703703704 103.4920634920635,156.4021164021164 103.28042328042329,155.76719576719577 102.85714285714286,155.13227513227514 102.43386243386244,154.4973544973545 102.01058201058201,153.86243386243387 101.5873015873016,153.22751322751324 101.16402116402116,152.8042328042328 100.74074074074075,152.16931216931218 100.31746031746033,151.53439153439155 99.8941798941799,151.11111111111111 99.47089947089948,150.6878306878307 99.04761904761905,150.26455026455028 98.62433862433863,149.84126984126985 98.2010582010582,149.41798941798942 97.56613756613757,148.99470899470901 97.14285714285715,148.57142857142858 96.71957671957672,148.14814814814815 96.08465608465609,147.72486772486775 95.66137566137567,147.30158730158732 95.23809523809524,146.8783068783069 94.60317460317461,146.45502645502646 93.96825396825398,146.03174603174605 93.54497354497356,145.60846560846562 92.91005291005291,145.39682539682542 92.4867724867725,144.973544973545 91.85185185185186,144.76190476190476 91.42857142857143,144.33862433862436 90.7936507936508,144.12698412698413 90.37037037037038,143.70370370370372 89.73544973544975,143.4920634920635 89.1005291005291,143.2804232804233 88.46560846560847,142.85714285714286 87.83068783068784,142.64550264550266 87.1957671957672,142.43386243386246 86.56084656084657,142.01058201058203 85.92592592592594,141.7989417989418 85.29100529100529,141.7989417989418 84.65608465608466,141.7989417989418 84.02116402116403,141.5873015873016 83.3862433862434,141.3756613756614 82.75132275132276,141.16402116402116 82.11640211640213,140.95238095238096 81.48148148148148,140.95238095238096 80.84656084656085,140.74074074074076 80.21164021164022,140.74074074074076 79.57671957671958,140.52910052910053 78.94179894179895,140.52910052910053 78.30687830687832,140.52910052910053 77.67195767195767,140.52910052910053 77.03703703703704,140.52910052910053 76.4021164021164,140.52910052910053 75.76719576719577,140.52910052910053 75.13227513227514,140.52910052910053 74.49735449735451,140.52910052910053 73.86243386243387,140.52910052910053 73.22751322751323,140.52910052910053 72.5925925925926,140.74074074074076 71.95767195767196,140.74074074074076 71.32275132275133,140.95238095238096 70.6878306878307,140.95238095238096 70.05291005291006,141.16402116402116 69.41798941798942,141.3756613756614 68.78306878306879,141.3756613756614 68.14814814814815,141.5873015873016 67.51322751322752,141.7989417989418 66.87830687830689,142.01058201058203 66.24338624338625,142.22222222222223 65.60846560846561,142.64550264550266 64.97354497354497,142.85714285714286 64.33862433862434,143.0687830687831 63.91534391534392,143.4920634920635 63.280423280423285,143.70370370370372 62.85714285714286,144.12698412698413 62.43386243386244,144.55026455026456 61.798941798941804,144.973544973545 61.37566137566138,145.39682539682542 60.952380952380956,145.82010582010582 60.52910052910053,146.24338624338625 60.10582010582011,146.66666666666669 59.8941798941799,147.30158730158732 59.682539682539684,147.93650793650795 59.25925925925927,148.35978835978838 59.04761904761905,148.99470899470901 58.83597883597884,149.62962962962965 58.62433862433863,150.26455026455028 58.41269841269842,150.8994708994709 58.41269841269842,151.53439153439155 58.41269841269842,152.16931216931218 58.41269841269842,152.8042328042328 58.2010582010582,153.43915343915344 58.2010582010582,154.07407407407408 58.2010582010582,154.7089947089947 58.41269841269842,155.34391534391534 58.41269841269842,155.978835978836 58.62433862433863,156.61375661375664 58.83597883597884,157.24867724867727 58.83597883597884,157.8835978835979 59.25925925925927,158.51851851851853 59.470899470899475,159.15343915343917 59.682539682539684,159.7883597883598 60.10582010582011,160.42328042328043 60.31746031746032,161.05820105820106 60.74074074074075,161.6931216931217 61.16402116402117,162.32804232804233 61.37566137566138,162.96296296296296 61.58730158730159,163.59788359788362 61.798941798941804,164.23280423280426 61.798941798941804,164.8677248677249 62.01058201058201,165.50264550264552 61.798941798941804,166.13756613756615 61.798941798941804,166.7724867724868 61.58730158730159,167.40740740740742 61.37566137566138,168.04232804232805 61.16402116402117,168.67724867724868 60.952380952380956,169.31216931216932 60.52910052910053,169.73544973544975 60.10582010582011,170.37037037037038 59.682539682539684,170.7936507936508 59.04761904761905,171.21693121693124 58.62433862433863,171.64021164021165 57.989417989417994,171.85185185185188 57.35449735449736,172.27513227513228 56.71957671957672,172.4867724867725 56.08465608465609,172.4867724867725 55.449735449735456,172.6984126984127 54.81481481481482,172.6984126984127 54.179894179894184,172.6984126984127 53.54497354497355,172.6984126984127 52.91005291005291,172.6984126984127 52.27513227513228,172.6984126984127 51.640211640211646,172.4867724867725 51.00529100529101,172.6984126984127 50.370370370370374,172.4867724867725 49.73544973544974,172.4867724867725 49.1005291005291,172.27513227513228 48.46560846560847,172.06349206349208 47.830687830687836,171.85185185185188 47.195767195767196,171.85185185185188 46.560846560846564,171.64021164021165 45.92592592592593,171.64021164021165 45.29100529100529,171.42857142857144 44.65608465608466,171.21693121693124 44.021164021164026,171.005291005291 43.386243386243386,171.005291005291 42.75132275132275,170.7936507936508 42.11640211640212,170.58201058201058 41.48148148148149,170.37037037037038 40.84656084656085,170.37037037037038 40.211640211640216,170.15873015873018 39.57671957671958,169.94708994708995 38.94179894179894,169.94708994708995 38.30687830687831,169.73544973544975 37.67195767195768,169.52380952380955 37.03703703703704,169.31216931216932 36.402116402116405,169.10052910052912 35.76719576719577,168.8888888888889 35.13227513227513,168.67724867724868 34.4973544973545,168.67724867724868 33.86243386243387,168.25396825396825 33.22751322751323,168.04232804232805 32.592592592592595,168.04232804232805 31.95767195767196,167.83068783068785 31.322751322751326,167.40740740740742 30.68783068783069,167.19576719576722 30.052910052910054,166.984126984127 29.41798941798942,166.7724867724868 28.783068783068785,166.56084656084658 28.14814814814815,166.34920634920636 27.513227513227516,166.13756613756615 26.87830687830688,165.92592592592595 26.243386243386244,165.50264550264552 25.60846560846561,165.2910052910053 24.973544973544975,165.0793650793651 24.338624338624342,164.8677248677249 23.703703703703706,164.44444444444446 23.06878306878307,164.23280423280426 22.433862433862437,164.02116402116403 21.7989417989418,163.80952380952382 21.164021164021165,163.3862433862434 20.529100529100532,163.1746031746032 19.894179894179896,162.96296296296296 19.25925925925926,162.53968253968256 18.624338624338627,162.32804232804233 14.814814814814817,160.84656084656086" style="fill:none; stroke:#00aa99; stroke-width:1.0"  /><polyline points="14.814814814814817,160.84656084656086 16.931216931216934,158.0952380952381 17.354497354497354,157.46031746031747 17.77777777777778,157.03703703703704 18.201058201058203,156.4021164021164 18.624338624338627,155.978835978836 19.047619047619047,155.34391534391534 19.47089947089947,154.92063492063494 19.894179894179896,154.2857142857143 20.31746031746032,153.86243386243387 20.740740740740744,153.22751322751324 21.164021164021165,152.5925925925926 21.58730158730159,151.95767195767198 22.010582010582013,151.32275132275134 22.433862433862437,150.8994708994709 22.645502645502646,150.26455026455028 23.06878306878307,149.84126984126985 23.492063492063494,149.20634920634922 23.703703703703706,148.57142857142858 24.12698412698413,148.14814814814815 24.55026455026455,147.51322751322752 24.761904761904763,146.8783068783069 25.185185185185187,146.45502645502646 25.60846560846561,145.82010582010582 26.031746031746035,145.1851851851852 26.243386243386244,144.55026455026456 26.666666666666668,144.12698412698413 26.87830687830688,143.4920634920635 27.301587301587304,143.0687830687831 27.513227513227516,142.43386243386246 27.93650793650794,141.7989417989418 28.35978835978836,141.16402116402116 28.571428571428573,140.52910052910053 28.994708994708997,139.8941798941799 29.20634920634921,139.25925925925927 29.629629629629633,138.83597883597884 29.841269841269842,138.2010582010582 30.264550264550266,137.56613756613757 30.476190476190478,136.93121693121694 30.899470899470902,136.2962962962963 31.111111111111114,135.66137566137567 31.53439153439154,135.23809523809524 31.53439153439154,134.6031746031746 31.746031746031747,133.96825396825398 31.95767195767196,133.33333333333334 32.16931216931217,132.6984126984127 32.38095238095239,132.06349206349208 32.592592592592595,131.42857142857144 32.592592592592595,130.7936507936508 32.592592592592595,130.15873015873018 32.592592592592595,129.52380952380955 32.592592592592595,128.88888888888889 32.592592592592595,128.25396825396825 32.38095238095239,127.61904761904763 31.95767195767196,127.1957671957672 31.746031746031747,126.56084656084657 31.322751322751326,126.13756613756615 31.111111111111114,125.5026455026455 30.476190476190478,125.07936507936509 30.052910052910054,124.65608465608466 29.41798941798942,124.23280423280424 28.783068783068785,123.80952380952382 28.14814814814815,123.59788359788361 27.513227513227516,123.3862433862434 26.87830687830688,123.17460317460318 26.243386243386244,122.96296296296298 25.60846560846561,122.75132275132276 24.973544973544975,122.75132275132276 24.338624338624342,122.75132275132276 23.703703703703706,122.75132275132276 23.06878306878307,122.75132275132276 22.433862433862437,122.75132275132276 21.7989417989418,122.75132275132276 21.164021164021165,122.75132275132276 20.529100529100532,122.75132275132276 19.894179894179896,122.75132275132276 19.25925925925926,122.75132275132276 18.624338624338627,122.96296296296298 17.98941798941799,122.96296296296298 17.354497354497354,122.96296296296298 16.71957671957672,122.96296296296298 16.084656084656086,122.96296296296298 15.449735449735451,123.17460317460318 14.814814814814817,123.17460317460318 14.17989417989418,123.17460317460318 13.544973544973546,123.17460317460318 12.910052910052912,122.96296296296298 12.275132275132275,122.96296296296298 11.640211640211641,122.96296296296298 11.005291005291006,122.96296296296298 10.370370370370372,122.75132275132276 9.735449735449736,122.75132275132276 9.100529100529101,122.53968253968254 8.465608465608467,122.32804232804234 7.830687830687832,122.32804232804234 7.195767195767196,121.90476190476191 6.560846560846561,121.6931216931217 5.9259259259259265,121.4814814814815 5.291005291005291,121.05820105820106 4.656084656084657,120.63492063492065 4.021164021164021,120.21164021164022 3.597883597883598,119.7883597883598 3.174603174603175,119.36507936507937 2.7513227513227516,118.94179894179895 2.3280423280423284,118.30687830687832 2.1164021164021167,117.67195767195768 1.9047619047619049,117.03703703703705 1.4814814814814816,116.4021164021164 1.26984126984127,115.76719576719577 1.0582010582010584,115.13227513227514 0.8465608465608466,114.49735449735451 0.8465608465608466,113.86243386243387 0.634920634920635,113.22751322751324 0.634920634920635,112.5925925925926 0.4232804232804233,111.95767195767196 0.4232804232804233,111.32275132275133 0.4232804232804233,110.6878306878307 0.21164021164021166,110.05291005291006 0.21164021164021166,109.41798941798943 0.21164021164021166,108.78306878306879 0.21164021164021166,108.14814814814815 0.4232804232804233,107.51322751322752 0.4232804232804233,106.87830687830689 0.634920634920635,106.24338624338625 0.634920634920635,105.60846560846562 0.8465608465608466,104.97354497354497 0.8465608465608466,104.33862433862434 1.0582010582010584,103.70370370370371 1.26984126984127,103.06878306878308 1.4814814814814816,102.43386243386244 1.6931216931216932,101.79894179894181 1.9047619047619049,101.16402116402116 2.3280423280423284,100.52910052910053 2.3280423280423284,99.8941798941799 2.7513227513227516,99.25925925925927 2.9629629629629632,98.62433862433863 3.3862433862433865,97.989417989418 3.597883597883598,97.35449735449737 4.021164021164021,96.93121693121694 4.2328042328042335,96.2962962962963 4.656084656084657,95.87301587301587 5.07936507936508,95.23809523809524 5.502645502645503,94.81481481481482 5.9259259259259265,94.39153439153439 6.34920634920635,93.96825396825398 6.772486772486773,93.54497354497356 7.195767195767196,93.12169312169313 7.6190476190476195,92.69841269841271 8.253968253968255,92.27513227513228 8.88888888888889,91.85185185185186 9.523809523809524,91.42857142857143 10.15873015873016,91.00529100529101 10.793650793650794,90.58201058201058 11.428571428571429,90.15873015873017 12.063492063492065,90.15873015873017 12.6984126984127,90.15873015873017 13.333333333333334,90.15873015873017 13.96825396825397,89.94708994708995 14.603174603174605,90.15873015873017 15.026455026455027,90.58201058201058 15.661375661375663,90.58201058201058 16.296296296296298,90.37037037037038 16.931216931216934,90.58201058201058 17.566137566137566,90.7936507936508 17.98941798941799,91.21693121693123 18.624338624338627,91.42857142857143 19.25925925925926,91.64021164021165 19.894179894179896,92.06349206349208 20.529100529100532,92.4867724867725 21.164021164021165,92.69841269841271 21.7989417989418,93.12169312169313 22.433862433862437,93.54497354497356 23.06878306878307,93.75661375661376 23.492063492063494,94.17989417989419 23.915343915343918,94.60317460317461 24.55026455026455,95.02645502645504 24.973544973544975,95.44973544973546 25.3968253968254,95.87301587301587 25.820105820105823,96.2962962962963 26.243386243386244,96.71957671957672 26.666666666666668,97.14285714285715 27.089947089947092,97.56613756613757 27.513227513227516,97.989417989418 27.93650793650794,98.41269841269842 28.35978835978836,98.83597883597885 28.783068783068785,99.47089947089948 29.20634920634921,99.8941798941799 29.841269841269842,100.31746031746033 30.264550264550266,100.95238095238096 30.68783068783069,101.37566137566138 31.111111111111114,101.79894179894181 31.53439153439154,102.22222222222223 31.95767195767196,102.64550264550266 32.38095238095239,103.28042328042329 32.804232804232804,103.70370370370371 33.43915343915344,104.12698412698414 33.86243386243387,104.55026455026456 34.4973544973545,104.97354497354497 34.920634920634924,105.3968253968254 35.55555555555556,105.82010582010582 36.19047619047619,106.24338624338625 36.82539682539683,106.45502645502647 37.46031746031746,106.66666666666667 38.095238095238095,106.87830687830689 38.730158730158735,107.0899470899471 39.36507936507937,107.0899470899471 40.0,107.0899470899471 40.63492063492064,106.87830687830689 41.26984126984127,106.87830687830689 41.6931216931217,106.45502645502647 42.32804232804233,106.24338624338625 42.96296296296297,105.82010582010582 43.5978835978836,105.3968253968254 44.021164021164026,104.97354497354497 44.44444444444445,104.55026455026456 44.867724867724874,104.12698412698414 45.29100529100529,103.4920634920635 45.714285714285715,102.85714285714286 46.13756613756614,102.22222222222223 46.349206349206355,101.5873015873016 46.560846560846564,100.95238095238096 46.98412698412699,100.31746031746033 46.98412698412699,99.68253968253968 47.195767195767196,99.04761904761905 47.40740740740741,98.41269841269842 47.61904761904762,97.77777777777779 47.830687830687836,97.14285714285715 47.830687830687836,96.50793650793652 48.042328042328045,95.87301587301587 48.25396825396826,95.23809523809524 48.46560846560847,94.60317460317461 48.677248677248684,93.96825396825398 48.88888888888889,93.33333333333334 49.1005291005291,92.69841269841271 49.31216931216932,92.06349206349208 49.523809523809526,91.42857142857143 49.73544973544974,90.7936507936508 49.73544973544974,90.15873015873017 49.94708994708995,89.52380952380953 50.158730158730165,88.8888888888889 50.370370370370374,88.25396825396827 50.7936507936508,87.83068783068784 50.7936507936508,87.1957671957672 51.00529100529101,86.56084656084657 51.21693121693122,85.92592592592594 51.42857142857143,85.29100529100529 51.640211640211646,84.65608465608466 51.851851851851855,84.02116402116403 52.06349206349207,83.3862433862434 52.06349206349207,82.75132275132276 52.27513227513228,82.11640211640213 52.48677248677249,81.48148148148148 52.6984126984127,80.84656084656085 52.91005291005291,80.21164021164022 53.12169312169313,79.57671957671958 53.333333333333336,78.94179894179895 53.333333333333336,78.30687830687832 53.54497354497355,77.67195767195767 53.75661375661376,77.03703703703704 53.968253968253975,76.4021164021164 54.179894179894184,75.76719576719577 54.179894179894184,75.13227513227514 54.39153439153439,74.49735449735451 54.60317460317461,73.86243386243387 54.81481481481482,73.22751322751323 54.81481481481482,72.5925925925926 55.02645502645503,71.95767195767196 55.23809523809524,71.32275132275133 55.449735449735456,70.6878306878307 55.449735449735456,70.05291005291006 55.661375661375665,69.41798941798942 55.87301587301588,68.78306878306879 56.08465608465609,68.14814814814815 56.08465608465609,67.51322751322752 56.2962962962963,66.87830687830689 56.50793650793651,66.24338624338625 56.71957671957672,65.60846560846561 56.93121693121694,64.97354497354497 56.71957671957672,64.33862433862434 56.93121693121694,63.70370370370371 57.142857142857146,63.06878306878308 57.35449735449736,62.43386243386244 57.35449735449736,61.798941798941804 57.56613756613757,61.16402116402117 57.56613756613757,60.52910052910053 57.777777777777786,59.8941798941799 57.989417989417994,59.25925925925927 57.989417989417994,58.62433862433863 58.2010582010582,57.989417989417994 58.2010582010582,57.35449735449736 58.41269841269842,56.71957671957672 58.62433862433863,56.08465608465609 58.83597883597884,55.449735449735456 58.83597883597884,54.81481481481482 59.04761904761905,54.179894179894184 59.04761904761905,53.54497354497355 59.25925925925927,52.91005291005291 59.25925925925927,52.27513227513228 59.470899470899475,51.640211640211646 59.470899470899475,51.00529100529101 59.682539682539684,50.370370370370374 59.682539682539684,49.73544973544974 59.8941798941799,49.1005291005291 60.10582010582011,48.46560846560847 60.10582010582011,47.830687830687836 60.31746031746032,47.195767195767196 60.31746031746032,46.560846560846564 60.52910052910053,45.92592592592593 60.52910052910053,45.29100529100529 60.74074074074075,44.65608465608466 60.74074074074075,44.021164021164026 60.952380952380956,43.386243386243386 60.952380952380956,42.75132275132275 61.16402116402117,42.11640211640212 61.16402116402117,41.48148148148149 61.37566137566138,40.84656084656085 61.37566137566138,40.211640211640216 61.37566137566138,39.57671957671958 61.37566137566138,38.94179894179894 61.58730158730159,38.30687830687831 61.58730158730159,37.67195767195768 61.798941798941804,37.03703703703704 61.798941798941804,36.402116402116405 61.798941798941804,35.76719576719577 62.01058201058201,35.13227513227513 62.01058201058201,34.4973544973545 62.01058201058201,33.86243386243387 62.01058201058201,33.22751322751323 62.01058201058201,32.592592592592595 62.22222222222223,31.95767195767196 62.22222222222223,31.322751322751326 62.22222222222223,30.68783068783069 62.22222222222223,30.052910052910054 62.01058201058201,29.41798941798942 62.01058201058201,28.783068783068785 62.22222222222223,28.14814814814815 62.22222222222223,27.513227513227516 62.22222222222223,26.87830687830688 62.43386243386244,26.243386243386244 62.43386243386244,25.60846560846561 62.43386243386244,24.973544973544975 62.43386243386244,24.338624338624342 62.43386243386244,23.703703703703706 62.64550264550265,20.105820105820108" style="fill:none; stroke:#3300bb; stroke-width:1.0"  /><circle cx="62.64550264550265" cy="20.105820105820108" r="2.0" style="fill:none; stroke:#000000aa; stroke-width:0.25" /><circle cx="184.7619047619048" cy="68.78306878306879" r="2.0" style="fill:none; stroke:#000000aa; stroke-width:0.25" /><circle cx="106.66666666666667" cy="203.3862433862434" r="2.0" style="fill:none; stroke:#000000aa; stroke-width:0.25" /><circle cx="14.814814814814817" cy="160.84656084656086" r="2.0" style="fill:none; stroke:#000000aa; stroke-width:0.25" /><circle cx="63.280423280423285" cy="20.740740740740744" r="2.0" style="fill:none; stroke:#ff3366aa; stroke-width:0.25" /><circle cx="183.4920634920635" cy="68.78306878306879" r="2.0" style="fill:none; stroke:#ff3366aa; stroke-width:0.25" /><circle cx="106.45502645502647" cy="202.53968253968256" r="2.0" style="fill:none; stroke:#ff3366aa; stroke-width:0.25" /><circle cx="15.449735449735451" cy="160.84656084656086" r="2.0" style="fill:none; stroke:#ff3366aa; stroke-width:0.25" /><polyline points="74.28571428571429,25.3968253968254 73.65079365079366,25.185185185185187 73.01587301587303,24.973544973544975 72.38095238095238,24.55026455026455 71.74603174603175,24.338624338624342 71.11111111111111,24.12698412698413 70.47619047619048,23.915343915343918 70.05291005291006,23.492063492063494 69.41798941798942,23.280423280423282 68.78306878306879,23.06878306878307 68.14814814814815,22.645502645502646 67.51322751322752,22.433862433862437 66.87830687830689,22.222222222222225 66.24338624338625,21.7989417989418" style="fill:none; stroke:#001100; stroke-width:1.0" /><polyline points="62.01058201058201,32.592592592592595 62.22222222222223,31.95767195767196 62.22222222222223,31.322751322751326 62.22222222222223,30.68783068783069 62.22222222222223,30.052910052910054 62.01058201058201,29.41798941798942 62.01058201058201,28.783068783068785 62.22222222222223,28.14814814814815 62.22222222222223,27.513227513227516 62.22222222222223,26.87830687830688 62.43386243386244,26.243386243386244 62.43386243386244,25.60846560846561 62.43386243386244,24.973544973544975 62.43386243386244,24.338624338624342 62.43386243386244,23.703703703703706" style="fill:none; stroke:#000011; stroke-width:1.0" /><polyline points="176.71957671957674,78.73015873015873 177.14285714285717,78.0952380952381 177.56613756613757,77.46031746031747 177.989417989418,77.03703703703704 178.41269841269843,76.4021164021164 178.83597883597884,75.97883597883599 179.25925925925927,75.34391534391536 179.6825396825397,74.92063492063492 180.10582010582013,74.49735449735451 180.52910052910053,73.86243386243387 180.95238095238096,73.43915343915344 181.3756613756614,73.01587301587303 181.79894179894183,72.38095238095238 182.22222222222223,71.95767195767196" style="fill:none; stroke:#001100; stroke-width:1.0" /><polyline points="171.64021164021165,66.66666666666667 172.27513227513228,66.87830687830689 172.9100529100529,66.87830687830689 173.54497354497354,67.08994708994709 174.1798941798942,67.08994708994709 174.81481481481484,67.3015873015873 175.44973544973547,67.51322751322752 176.0846560846561,67.51322751322752 176.71957671957674,67.51322751322752 177.35449735449737,67.72486772486774 177.989417989418,67.72486772486774 178.62433862433863,67.72486772486774 179.25925925925927,67.72486772486774 179.8941798941799,67.93650793650794 180.52910052910053,68.14814814814815" style="fill:none; stroke:#000011; stroke-width:1.0" /><polyline points="96.08465608465609,196.82539682539684 96.71957671957672,197.24867724867727 97.14285714285715,197.6719576719577 97.77777777777779,198.0952380952381 98.41269841269842,198.30687830687833 99.04761904761905,198.73015873015873 99.68253968253968,199.15343915343917 100.31746031746033,199.5767195767196 100.95238095238096,199.7883597883598 101.5873015873016,200.21164021164023 102.22222222222223,200.63492063492066 102.85714285714286,200.84656084656086 103.28042328042329,201.2698412698413" style="fill:none; stroke:#001100; stroke-width:1.0" /><polyline points="111.11111111111111,191.53439153439155 110.6878306878307,192.16931216931218 110.47619047619048,192.8042328042328 110.26455026455027,193.43915343915344 110.05291005291006,194.07407407407408 109.84126984126985,194.70899470899474 109.62962962962963,195.34391534391537 109.41798941798943,195.978835978836 109.20634920634922,196.61375661375664 108.994708994709,197.24867724867727 108.78306878306879,197.8835978835979 108.57142857142858,198.51851851851853 108.35978835978837,199.15343915343917 107.93650793650795,199.7883597883598" style="fill:none; stroke:#000011; stroke-width:1.0" /><polyline points="22.010582010582013,151.32275132275134 21.58730158730159,151.95767195767198 21.164021164021165,152.5925925925926 20.740740740740744,153.22751322751324 20.31746031746032,153.86243386243387 19.894179894179896,154.2857142857143 19.47089947089947,154.92063492063494 19.047619047619047,155.34391534391534 18.624338624338627,155.978835978836 18.201058201058203,156.4021164021164 17.77777777777778,157.03703703703704 17.354497354497354,157.46031746031747 16.931216931216934,158.0952380952381" style="fill:none; stroke:#001100; stroke-width:1.0" /><polyline points="26.243386243386244,165.50264550264552 25.60846560846561,165.2910052910053 24.973544973544975,165.0793650793651 24.338624338624342,164.8677248677249 23.703703703703706,164.44444444444446 23.06878306878307,164.23280423280426 22.433862433862437,164.02116402116403 21.7989417989418,163.80952380952382 21.164021164021165,163.3862433862434 20.529100529100532,163.1746031746032 19.894179894179896,162.96296296296296 19.25925925925926,162.53968253968256 18.624338624338627,162.32804232804233" style="fill:none; stroke:#000011; stroke-width:1.0" /><polyline points="66.24338624338625,21.7989417989418 46.98412698412699,13.121693121693122" style="fill:none; stroke:#ffaa00; stroke-width:0.4" /><polyline points="62.43386243386244,23.703703703703706 63.492063492063494,2.53968253968254" style="fill:none; stroke:#aaff00; stroke-width:0.4" /><polyline points="182.22222222222223,71.95767195767196 195.55555555555557,55.449735449735456" style="fill:none; stroke:#ffaa00; stroke-width:0.4" /><polyline points="180.52910052910053,68.14814814814815 201.4814814814815,71.53439153439155" style="fill:none; stroke:#aaff00; stroke-width:0.4" /><polyline points="103.28042328042329,201.2698412698413 121.26984126984128,212.4867724867725" style="fill:none; stroke:#ffaa00; stroke-width:0.4" /><polyline points="107.93650793650795,199.7883597883598 100.31746031746033,219.4708994708995" style="fill:none; stroke:#aaff00; stroke-width:0.4" /><polyline points="16.931216931216934,158.0952380952381 4.2328042328042335,175.02645502645504" style="fill:none; stroke:#ffaa00; stroke-width:0.4" /><polyline points="18.624338624338627,162.32804232804233 -0.8465608465608466,154.2857142857143" style="fill:none; stroke:#aaff00; stroke-width:0.4" /><circle cx="99.47089947089948" cy="101.37566137566138" r="1.0" style="fill:#444444; stroke-width:0" /><circle cx="102.64550264550266" cy="91.00529100529101" r="10.582010582010582" style="fill:#ff770022; stroke-width:0" /><circle cx="102.64550264550266" cy="91.00529100529101" r="1.0" style="fill:#ff7700; stroke-width:0" /></svg>