<?xml version="1.0" encoding="UTF-8" standalone="no"?><svg width="519.3650793650794" height="481.2698412698413" viewBox="-10 -10 193.12169312169314 180.42328042328043" xmlns="http://www.w3.org/2000/svg" xmlns:xlink="http://www.w3.org/1999/xlink"><polyline points="1.26984126984127,51.42857142857143 3.597883597883598,51.851851851851855 4.2328042328042335,52.06349206349207 4.867724867724868,52.27513227513228 5.502645502645503,52.48677248677249 6.137566137566138,52.6984126984127 6.772486772486773,52.91005291005291 7.407407407407408,52.91005291005291 8.042328042328043,53.12169312169313 8.677248677248677,53.333333333333336 9.312169312169313,53.333333333333336 9.947089947089948,53.333333333333336 10.582010582010582,53.54497354497355 11.216931216931219,53.75661375661376 11.851851851851853,53.75661375661376 12.486772486772487,53.968253968253975 13.121693121693122,54.179894179894184 13.756613756613758,54.179894179894184 14.391534391534393,54.39153439153439 15.026455026455027,54.39153439153439 15.661375661375663,54.39153439153439 16.296296296296298,54.60317460317461 16.931216931216934,54.60317460317461 17.566137566137566,54.60317460317461 18.201058201058203,54.81481481481482 18.83597883597884,54.81481481481482 19.47089947089947,54.60317460317461 20.105820105820108,54.81481481481482 20.740740740740744,54.81481481481482 21.375661375661377,54.81481481481482 22.010582010582013,55.02645502645503 22.645502645502646,55.02645502645503 23.280423280423282,55.02645502645503 23.915343915343918,55.02645502645503 24.55026455026455,55.02645502645503 25.185185185185187,55.23809523809524 25.820105820105823,55.23809523809524 26.455026455026456,55.23809523809524 27.089947089947092,55.23809523809524 27.724867724867728,55.23809523809524 28.35978835978836,55.23809523809524 28.994708994708997,55.23809523809524 29.629629629629633,55.23809523809524 30.264550264550266,55.23809523809524 30.899470899470902,55.23809523809524 31.53439153439154,55.23809523809524 32.16931216931217,55.23809523809524 32.804232804232804,55.23809523809524 33.43915343915344,55.02645502645503 34.074074074074076,55.02645502645503 34.70899470899471,55.02645502645503 35.34391534391535,54.81481481481482 35.97883597883598,54.81481481481482 36.613756613756614,54.81481481481482 37.248677248677254,54.60317460317461 37.883597883597886,54.60317460317461 38.51851851851852,54.60317460317461 39.15343915343916,54.39153439153439 39.78835978835979,54.39153439153439 40.423280423280424,54.179894179894184 41.058201058201064,53.968253968253975 41.6931216931217,53.968253968253975 42.32804232804233,53.75661375661376 42.96296296296297,53.54497354497355 43.5978835978836,53.54497354497355 44.232804232804234,53.333333333333336 44.867724867724874,53.12169312169313 45.50264550264551,52.91005291005291 46.13756613756614,52.6984126984127 46.77248677248678,52.48677248677249 47.40740740740741,52.27513227513228 48.042328042328045,52.06349206349207 48.677248677248684,51.851851851851855 49.31216931216932,51.640211640211646 49.94708994708995,51.42857142857143 50.58201058201058,51.21693121693122 51.21693121693122,51.00529100529101 51.851851851851855,50.58201058201058 52.48677248677249,50.370370370370374 53.12169312169313,50.158730158730165 53.54497354497355,49.73544973544974 54.179894179894184,49.31216931216932 54.60317460317461,48.88888888888889 55.23809523809524,48.46560846560847 55.87301587301588,48.042328042328045 56.2962962962963,47.61904761904762 56.93121693121694,47.195767195767196 57.35449735449736,46.77248677248678 57.777777777777786,46.349206349206355 58.2010582010582,45.714285714285715 58.62433862433863,45.29100529100529 59.04761904761905,44.867724867724874 59.470899470899475,44.232804232804234 59.682539682539684,43.5978835978836 60.10582010582011,42.96296296296297 60.31746031746032,42.32804232804233 60.52910052910053,41.6931216931217 60.52910052910053,41.058201058201064 60.74074074074075,40.423280423280424 60.74074074074075,39.78835978835979 60.74074074074075,39.15343915343916 60.52910052910053,38.51851851851852 60.52910052910053,37.883597883597886 60.31746031746032,37.248677248677254 60.10582010582011,36.613756613756614 59.8941798941799,35.97883597883598 59.682539682539684,35.34391534391535 59.25925925925927,34.70899470899471 59.04761904761905,34.074074074074076 58.62433862433863,33.43915343915344 58.2010582010582,32.804232804232804 57.777777777777786,32.38095238095239 57.35449735449736,31.746031746031747 56.93121693121694,31.322751322751326 56.50793650793651,30.68783068783069 56.08465608465609,30.264550264550266 55.661375661375665,29.841269841269842 55.23809523809524,29.41798941798942 54.81481481481482,28.994708994708997 54.39153439153439,28.571428571428573 53.75661375661376,28.14814814814815 53.333333333333336,27.724867724867728 52.91005291005291,27.089947089947092 52.48677248677249,26.666666666666668 52.06349206349207,26.243386243386244 51.640211640211646,25.60846560846561 51.21693121693122,24.973544973544975 50.7936507936508,24.338624338624342 50.370370370370374,23.703703703703706 49.94708994708995,23.06878306878307 49.523809523809526,22.433862433862437 49.1005291005291,21.7989417989418 48.677248677248684,21.164021164021165 48.46560846560847,20.529100529100532 48.25396825396826,19.894179894179896 48.042328042328045,19.25925925925926 47.830687830687836,18.624338624338627 47.61904761904762,17.98941798941799 47.40740740740741,17.354497354497354 47.195767195767196,16.71957671957672 47.195767195767196,16.084656084656086 46.98412698412699,15.449735449735451 46.77248677248678,14.814814814814817 46.77248677248678,14.17989417989418 46.77248677248678,13.544973544973546 46.77248677248678,12.910052910052912 46.98412698412699,12.275132275132275 47.195767195767196,11.640211640211641 47.195767195767196,11.005291005291006 47.40740740740741,10.370370370370372 47.830687830687836,9.735449735449736 48.042328042328045,9.100529100529101 48.46560846560847,8.677248677248677 48.88888888888889,8.042328042328043 49.31216931216932,7.6190476190476195 49.73544973544974,6.984126984126985 50.158730158730165,6.560846560846561 50.7936507936508,6.137566137566138 51.21693121693122,5.714285714285714 51.851851851851855,5.291005291005291 52.48677248677249,4.867724867724868 53.12169312169313,4.444444444444445 53.75661375661376,4.021164021164021 54.179894179894184,3.597883597883598 54.81481481481482,3.174603174603175 55.449735449735456,2.9629629629629632 56.08465608465609,2.53968253968254 56.71957671957672,2.3280423280423284 57.35449735449736,2.1164021164021167 57.989417989417994,1.9047619047619049 58.62433862433863,1.6931216931216932 59.25925925925927,1.4814814814814816 59.8941798941799,1.26984126984127 60.52910052910053,1.0582010582010584 61.16402116402117,1.0582010582010584 61.798941798941804,0.8465608465608466 62.43386243386244,0.634920634920635 63.06878306878308,0.4232804232804233 63.70370370370371,0.21164021164021166 64.33862433862434,0.21164021164021166 64.97354497354497,0.21164021164021166 65.60846560846561,0.21164021164021166 66.24338624338625,0.21164021164021166 66.87830687830689,0.4232804232804233 67.51322751322752,0.4232804232804233 68.14814814814815,0.634920634920635 68.78306878306879,0.634920634920635 69.41798941798942,0.634920634920635 70.05291005291006,0.8465608465608466 70.6878306878307,1.0582010582010584 71.32275132275133,1.26984126984127 71.95767195767196,1.4814814814814816 72.5925925925926,1.6931216931216932 73.22751322751323,1.9047619047619049 73.86243386243387,2.3280423280423284 74.49735449735451,2.7513227513227516 75.13227513227514,3.174603174603175 75.76719576719577,3.597883597883598 76.4021164021164,4.021164021164021 76.82539682539684,4.444444444444445 77.24867724867725,5.07936507936508 77.67195767195767,5.502645502645503 77.88359788359789,6.137566137566138 78.30687830687832,6.772486772486773 78.51851851851852,7.407407407407408 78.73015873015873,8.042328042328043 78.94179894179895,8.677248677248677 78.94179894179895,9.312169312169313 78.94179894179895,9.947089947089948 78.94179894179895,10.582010582010582 78.94179894179895,11.216931216931219 78.94179894179895,11.851851851851853 78.94179894179895,12.486772486772487 78.94179894179895,13.121693121693122 78.94179894179895,13.756613756613758 78.73015873015873,14.391534391534393 78.73015873015873,15.026455026455027 78.51851851851852,15.661375661375663 78.51851851851852,16.296296296296298 78.30687830687832,16.931216931216934 78.30687830687832,17.566137566137566 78.0952380952381,18.201058201058203 78.0952380952381,18.83597883597884 77.88359788359789,19.47089947089947 77.88359788359789,20.105820105820108 77.67195767195767,20.740740740740744 77.67195767195767,21.375661375661377 77.46031746031747,22.010582010582013 77.46031746031747,22.645502645502646 77.24867724867725,23.280423280423282 77.24867724867725,23.915343915343918 77.03703703703704,24.55026455026455 77.03703703703704,25.185185185185187 76.82539682539684,25.820105820105823 76.61375661375662,26.455026455026456 76.61375661375662,27.089947089947092 76.61375661375662,27.724867724867728 76.4021164021164,28.35978835978836 76.4021164021164,28.994708994708997 76.19047619047619,29.629629629629633 76.4021164021164,30.264550264550266 76.4021164021164,30.899470899470902 76.4021164021164,31.53439153439154 76.4021164021164,32.16931216931217 76.61375661375662,32.804232804232804 76.82539682539684,33.43915343915344 77.03703703703704,34.074074074074076 77.46031746031747,34.70899470899471 77.67195767195767,35.34391534391535 78.0952380952381,35.76719576719577 78.51851851851852,36.19047619047619 79.15343915343917,36.613756613756614 79.7883597883598,37.03703703703704 80.42328042328043,37.46031746031746 81.05820105820106,37.67195767195768 81.6931216931217,37.883597883597886 82.32804232804233,38.095238095238095 82.96296296296298,38.095238095238095 83.59788359788361,38.30687830687831 84.23280423280424,38.30687830687831 84.86772486772487,38.30687830687831 85.5026455026455,38.30687830687831 86.13756613756614,38.30687830687831 86.77248677248677,38.095238095238095 87.40740740740742,38.095238095238095 88.04232804232805,38.095238095238095 88.67724867724868,37.883597883597886 89.1005291005291,37.46031746031746 89.73544973544975,37.46031746031746 90.37037037037038,37.46031746031746 91.00529100529101,37.248677248677254 91.64021164021165,37.03703703703704 92.27513227513228,36.82539682539683 92.91005291005291,36.613756613756614 93.54497354497356,36.613756613756614 94.17989417989419,36.402116402116405 94.81481481481482,36.402116402116405 95.44973544973546,36.19047619047619 96.08465608465609,35.97883597883598 96.71957671957672,35.76719576719577 97.35449735449737,35.55555555555556 97.989417989418,35.34391534391535 98.62433862433863,35.13227513227513 99.25925925925927,34.920634920634924 99.8941798941799,34.4973544973545 100.52910052910053,34.28571428571429 101.16402116402116,33.86243386243387 101.79894179894181,33.65079365079365 102.43386243386244,33.22751322751323 103.06878306878308,33.01587301587302 103.70370370370371,32.592592592592595 104.33862433862434,32.16931216931217 104.97354497354497,31.746031746031747 105.60846560846562,31.322751322751326 106.24338624338625,30.899470899470902 106.87830687830689,30.476190476190478 107.3015873015873,30.052910052910054 107.93650793650795,29.629629629629633 108.57142857142858,29.20634920634921 108.994708994709,28.783068783068785 109.62962962962963,28.35978835978836 110.05291005291006,27.93650793650794 110.6878306878307,27.513227513227516 111.11111111111111,27.089947089947092 111.74603174603176,26.666666666666668 112.16931216931218,26.243386243386244 112.5925925925926,25.820105820105823 113.22751322751324,25.3968253968254 113.65079365079366,24.761904761904763 114.07407407407408,24.338624338624342 114.70899470899472,23.915343915343918 115.13227513227514,23.492063492063494 115.55555555555557,23.06878306878307 115.97883597883599,22.433862433862437 116.4021164021164,22.010582010582013 116.82539682539684,21.58730158730159 117.24867724867725,21.164021164021165 117.67195767195768,20.740740740740744 118.0952380952381,20.31746031746032 118.51851851851853,19.894179894179896 118.94179894179895,19.25925925925926 119.36507936507937,18.83597883597884 119.7883597883598,18.412698412698415 120.21164021164022,17.98941798941799 120.63492063492065,17.354497354497354 121.05820105820106,16.931216931216934 121.4814814814815,16.296296296296298 121.90476190476191,15.661375661375663 122.32804232804234,15.238095238095239 122.75132275132276,14.603174603174605 123.17460317460318,13.96825396825397 123.59788359788361,13.333333333333334 125.5026455026455,10.793650793650794" style="fill:none; stroke:#cc0000; stroke-width:1.0"  /><polyline points="125.5026455026455,10.793650793650794 127.40740740740742,13.756613756613758 127.83068783068784,14.17989417989418 128.25396825396825,14.814814814814817 128.46560846560848,15.449735449735451 128.88888888888889,15.873015873015873 129.31216931216932,16.50793650793651 129.73544973544975,17.142857142857146 130.15873015873018,17.77777777777778 130.58201058201058,18.412698412698415 131.005291005291,19.047619047619047 131.42857142857144,19.682539682539684 131.85185185185185,20.31746031746032 132.27513227513228,20.952380952380953 132.6984126984127,21.375661375661377 133.12169312169314,22.010582010582013 133.54497354497354,22.433862433862437 133.96825396825398,22.857142857142858 134.6031746031746,23.280423280423282 135.23809523809524,23.492063492063494 135.66137566137567,23.915343915343918 136.2962962962963,23.915343915343918 136.93121693121694,24.338624338624342 137.56613756613757,24.12698412698413 138.2010582010582,24.12698412698413 138.83597883597884,24.338624338624342 139.47089947089947,23.915343915343918 140.10582010582013,23.915343915343918 140.74074074074076,23.915343915343918 141.3756613756614,23.703703703703706 142.01058201058203,23.280423280423282 142.64550264550266,23.06878306878307 143.2804232804233,22.857142857142858 143.91534391534393,22.433862433862437 144.55026455026456,22.010582010582013 145.1851851851852,21.7989417989418 145.60846560846562,21.375661375661377 146.03174603174605,20.952380952380953 146.66666666666669,20.529100529100532 147.30158730158732,20.105820105820108 147.72486772486775,19.682539682539684 148.35978835978838,19.25925925925926 148.78306878306879,18.83597883597884 149.41798941798942,18.412698412698415 150.05291005291005,17.98941798941799 150.6878306878307,17.566137566137566 151.32275132275134,17.142857142857146 151.95767195767198,16.931216931216934 152.5925925925926,16.50793650793651 153.22751322751324,16.296296296296298 153.86243386243387,15.873015873015873 154.2857142857143,15.449735449735451 154.92063492063494,15.449735449735451 155.55555555555557,15.238095238095239 156.1904761904762,14.814814814814817 156.82539682539684,14.814814814814817 157.46031746031747,14.603174603174605 158.0952380952381,14.603174603174605 158.73015873015873,14.603174603174605 159.36507936507937,14.391534391534393 160.0,14.391534391534393 160.63492063492066,14.603174603174605 161.2698412698413,14.814814814814817 161.90476190476193,15.026455026455027 162.53968253968256,15.449735449735451 163.1746031746032,15.661375661375663 163.59788359788362,16.084656084656086 164.23280423280426,16.296296296296298 164.65608465608466,16.71957671957672 165.0793650793651,17.142857142857146 165.50264550264552,17.77777777777778 165.92592592592595,18.201058201058203 166.34920634920636,18.624338624338627 166.7724867724868,19.25925925925926 167.19576719576722,19.682539682539684 167.61904761904762,20.31746031746032 168.04232804232805,20.952380952380953 168.46560846560848,21.58730158730159 168.8888888888889,22.222222222222225 169.31216931216932,22.857142857142858 169.73544973544975,23.492063492063494 169.94708994708995,24.12698412698413 170.37037037037038,24.761904761904763 170.58201058201058,25.3968253968254 171.005291005291,26.031746031746035 171.005291005291,26.666666666666668 171.21693121693124,27.301587301587304 171.42857142857144,27.93650793650794 171.64021164021165,28.571428571428573 171.85185185185188,29.20634920634921 172.06349206349208,29.841269841269842 172.27513227513228,30.476190476190478 172.4867724867725,31.111111111111114 172.4867724867725,31.746031746031747 172.4867724867725,32.38095238095239 172.4867724867725,33.01587301587302 172.6984126984127,33.65079365079365 172.6984126984127,34.28571428571429 172.6984126984127,34.920634920634924 172.6984126984127,35.55555555555556 172.6984126984127,36.19047619047619 172.6984126984127,36.82539682539683 172.4867724867725,37.46031746031746 172.4867724867725,38.095238095238095 172.27513227513228,38.730158730158735 172.06349206349208,39.36507936507937 171.85185185185188,40.0 171.64021164021165,40.63492063492064 171.42857142857144,41.26984126984127 171.005291005291,41.904761904761905 170.58201058201058,42.539682539682545 170.15873015873018,42.96296296296297 169.73544973544975,43.5978835978836 169.31216931216932,44.021164021164026 168.67724867724868,44.44444444444445 168.04232804232805,44.867724867724874 167.40740740740742,45.07936507936508 166.7724867724868,45.29100529100529 166.13756613756615,45.50264550264551 165.50264550264552,45.714285714285715 164.8677248677249,45.92592592592593 164.23280423280426,46.13756613756614 163.59788359788362,46.13756613756614 162.96296296296296,46.13756613756614 162.32804232804233,46.349206349206355 161.6931216931217,46.349206349206355 161.05820105820106,46.349206349206355 160.42328042328043,46.349206349206355 159.7883597883598,46.349206349206355 159.15343915343917,46.13756613756614 158.51851851851853,46.349206349206355 157.8835978835979,46.349206349206355 157.24867724867727,46.349206349206355 156.61375661375664,46.13756613756614 155.978835978836,46.13756613756614 155.34391534391534,45.92592592592593 154.7089947089947,45.92592592592593 154.07407407407408,45.92592592592593 153.43915343915344,45.92592592592593 152.8042328042328,45.92592592592593 152.16931216931218,45.92592592592593 151.53439153439155,45.92592592592593 150.8994708994709,45.92592592592593 150.26455026455028,45.92592592592593 149.62962962962965,45.92592592592593 148.99470899470901,46.13756613756614 148.35978835978838,46.349206349206355 147.72486772486775,46.560846560846564 147.0899470899471,46.98412698412699 146.45502645502646,47.195767195767196 146.03174603174605,47.61904761904762 145.39682539682542,48.042328042328045 144.973544973545,48.46560846560847 144.55026455026456,49.1005291005291 144.12698412698413,49.523809523809526 143.91534391534393,50.158730158730165 143.4920634920635,50.7936507936508 143.2804232804233,51.42857142857143 143.2804232804233,52.06349206349207 143.0687830687831,52.6984126984127 143.0687830687831,53.333333333333336 143.0687830687831,53.968253968253975 142.85714285714286,54.60317460317461 142.85714285714286,55.23809523809524 142.85714285714286,55.87301587301588 143.0687830687831,56.50793650793651 143.0687830687831,57.142857142857146 143.0687830687831,57.777777777777786 143.0687830687831,58.41269841269842 143.2804232804233,59.04761904761905 143.2804232804233,59.682539682539684 143.2804232804233,60.31746031746032 143.4920634920635,60.952380952380956 143.4920634920635,61.58730158730159 143.70370370370372,62.22222222222223 143.91534391534393,62.85714285714286 144.12698412698413,63.492063492063494 144.33862433862436,64.12698412698413 144.55026455026456,64.76190476190477 144.973544973545,65.3968253968254 144.973544973545,66.03174603174604 145.39682539682542,66.66666666666667 145.60846560846562,67.3015873015873 145.82010582010582,67.93650793650794 146.03174603174605,68.57142857142858 146.24338624338625,69.20634920634922 146.45502645502646,69.84126984126985 146.66666666666669,70.47619047619048 146.8783068783069,71.11111111111111 147.0899470899471,71.74603174603175 147.51322751322752,72.38095238095238 147.72486772486775,73.01587301587303 147.72486772486775,73.65079365079366 148.14814814814815,74.28571428571429 148.35978835978838,74.92063492063492 148.57142857142858,75.55555555555556 148.78306878306879,76.19047619047619 148.99470899470901,76.82539682539684 149.41798941798942,77.46031746031747 149.62962962962965,78.0952380952381 149.84126984126985,78.73015873015873 150.05291005291005,79.36507936507937 150.26455026455028,80.0 150.6878306878307,80.63492063492065 150.8994708994709,81.26984126984128 151.11111111111111,81.90476190476191 151.53439153439155,82.53968253968254 151.74603174603175,83.17460317460318 151.95767195767198,83.80952380952381 152.16931216931218,84.44444444444446 152.5925925925926,84.86772486772487 152.5925925925926,85.5026455026455 153.01587301587304,85.92592592592594 153.22751322751324,86.56084656084657 153.43915343915344,87.1957671957672 153.86243386243387,87.83068783068784 154.07407407407408,88.46560846560847 154.4973544973545,89.1005291005291 154.7089947089947,89.73544973544975 155.13227513227514,90.37037037037038 155.55555555555557,91.00529100529101 155.76719576719577,91.64021164021165 156.1904761904762,92.27513227513228 156.4021164021164,92.91005291005291 156.82539682539684,93.54497354497356 157.24867724867727,94.17989417989419 157.46031746031747,94.81481481481482 157.8835978835979,95.44973544973546 158.0952380952381,96.08465608465609 158.51851851851853,96.71957671957672 158.73015873015873,97.35449735449737 159.15343915343917,97.77777777777779 159.5767195767196,98.41269841269842 159.7883597883598,99.04761904761905 160.21164021164023,99.68253968253968 160.63492063492066,100.10582010582011 160.84656084656086,100.74074074074075 161.2698412698413,101.37566137566138 161.4814814814815,102.01058201058201 161.90476190476193,102.64550264550266 162.11640211640213,103.28042328042329 162.32804232804233,103.91534391534393 162.75132275132276,104.55026455026456 162.96296296296296,105.18518518518519 163.3862433862434,105.60846560846562 163.59788359788362,106.24338624338625 163.80952380952382,106.87830687830689 165.2910052910053,110.05291005291006" style="fill:none; stroke:#999900; stroke-width:1.0"  /><polyline points="165.2910052910053,110.05291005291006 162.32804232804233,111.53439153439155 161.6931216931217,111.74603174603176 161.05820105820106,111.95767195767196 160.42328042328043,112.3809523809524 159.7883597883598,112.5925925925926 159.15343915343917,113.01587301587303 158.51851851851853,113.43915343915344 157.8835978835979,113.65079365079366 157.24867724867727,114.07407407407408 156.61375661375664,114.28571428571429 155.978835978836,114.70899470899472 155.34391534391534,114.92063492063492 154.92063492063494,115.34391534391536 154.2857142857143,115.55555555555557 153.65079365079367,115.97883597883599 153.01587301587304,116.1904761904762 152.38095238095238,116.61375661375662 151.74603174603175,117.03703703703705 151.11111111111111,117.24867724867725 150.47619047619048,117.67195767195768 149.84126984126985,117.88359788359789 149.20634920634922,118.30687830687832 148.57142857142858,118.51851851851853 148.14814814814815,118.94179894179895 147.51322751322752,119.15343915343917 146.8783068783069,119.57671957671958 146.24338624338625,119.7883597883598 145.82010582010582,120.21164021164022 145.1851851851852,120.42328042328043 144.76190476190476,120.84656084656086 144.12698412698413,121.05820105820106 143.4920634920635,121.4814814814815 142.85714285714286,121.6931216931217 142.22222222222223,122.11640211640213 141.5873015873016,122.53968253968254 140.95238095238096,122.75132275132276 140.52910052910053,123.17460317460318 139.8941798941799,123.17460317460318 139.25925925925927,123.59788359788361 138.62433862433863,124.02116402116403 137.989417989418,124.23280423280424 137.35449735449737,124.65608465608466 136.71957671957674,124.86772486772487 136.2962962962963,125.2910052910053 135.66137566137567,125.5026455026455 135.23809523809524,125.92592592592594 134.6031746031746,126.13756613756615 133.96825396825398,126.56084656084657 133.33333333333334,126.77248677248679 132.6984126984127,126.98412698412699 132.06349206349208,127.40740740740742 131.42857142857144,127.40740740740742 130.7936507936508,127.61904761904763 130.15873015873018,127.61904761904763 129.52380952380955,127.61904761904763 128.88888888888889,127.61904761904763 128.25396825396825,127.40740740740742 127.61904761904763,127.1957671957672 126.98412698412699,126.98412698412699 126.34920634920636,126.56084656084657 125.92592592592594,126.13756613756615 125.5026455026455,125.71428571428572 125.07936507936509,125.2910052910053 124.86772486772487,124.65608465608466 124.65608465608466,124.02116402116403 124.44444444444446,123.3862433862434 124.23280423280424,122.75132275132276 124.23280423280424,122.11640211640213 124.23280423280424,121.4814814814815 124.23280423280424,120.84656084656086 124.23280423280424,120.21164021164022 124.23280423280424,119.57671957671958 124.23280423280424,118.94179894179895 124.23280423280424,118.30687830687832 124.23280423280424,117.67195767195768 124.44444444444446,117.03703703703705 124.44444444444446,116.4021164021164 124.44444444444446,115.76719576719577 124.44444444444446,115.13227513227514 124.44444444444446,114.49735449735451 124.65608465608466,113.86243386243387 124.65608465608466,113.22751322751324 124.65608465608466,112.5925925925926 124.86772486772487,111.95767195767196 124.86772486772487,111.32275132275133 124.86772486772487,110.6878306878307 124.86772486772487,110.05291005291006 124.86772486772487,109.41798941798943 124.86772486772487,108.78306878306879 124.65608465608466,108.14814814814815 124.65608465608466,107.51322751322752 124.65608465608466,106.87830687830689 124.44444444444446,106.24338624338625 124.23280423280424,105.60846560846562 124.02116402116403,104.97354497354497 123.80952380952382,104.33862433862434 123.59788359788361,103.70370370370371 123.3862433862434,103.06878306878308 122.96296296296298,102.43386243386244 122.75132275132276,101.79894179894181 122.32804232804234,101.16402116402116 121.90476190476191,100.52910052910053 121.4814814814815,99.8941798941799 120.84656084656086,99.68253968253968 120.42328042328043,99.25925925925927 120.00000000000001,98.83597883597885 119.36507936507937,98.41269841269842 118.73015873015873,97.989417989418 118.0952380952381,97.77777777777779 117.46031746031747,97.56613756613757 116.82539682539684,97.35449735449737 116.1904761904762,97.35449735449737 115.55555555555557,97.14285714285715 114.92063492063492,97.14285714285715 114.28571428571429,97.14285714285715 113.65079365079366,96.93121693121694 113.01587301587303,96.93121693121694 112.3809523809524,96.93121693121694 111.74603174603176,97.14285714285715 111.11111111111111,97.14285714285715 110.47619047619048,97.14285714285715 109.84126984126985,97.14285714285715 109.20634920634922,97.35449735449737 108.57142857142858,97.56613756613757 107.93650793650795,97.77777777777779 107.3015873015873,97.77777777777779 106.66666666666667,98.2010582010582 106.03174603174604,98.2010582010582 105.3968253968254,98.62433862433863 104.76190476190477,98.83597883597885 104.12698412698414,99.04761904761905 103.4920634920635,99.25925925925927 102.85714285714286,99.68253968253968 102.22222222222223,100.10582010582011 101.5873015873016,100.52910052910053 100.95238095238096,100.95238095238096 100.31746031746033,101.16402116402116 99.8941798941799,101.5873015873016 99.25925925925927,102.01058201058201 98.62433862433863,102.43386243386244 97.989417989418,102.85714285714286 97.56613756613757,103.28042328042329 96.93121693121694,103.70370370370371 96.50793650793652,104.12698412698414 95.87301587301587,104.55026455026456 95.23809523809524,104.97354497354497 94.81481481481482,105.3968253968254 94.17989417989419,105.60846560846562 93.75661375661376,106.03174603174604 93.33333333333334,106.45502645502647 92.91005291005291,106.87830687830689 92.4867724867725,107.3015873015873 92.06349206349208,107.72486772486774 91.42857142857143,108.14814814814815 91.00529100529101,108.57142857142858 90.58201058201058,108.994708994709 90.15873015873017,109.62962962962963 89.73544973544975,110.05291005291006 89.31216931216932,110.47619047619048 88.8888888888889,111.11111111111111 88.46560846560847,111.53439153439155 88.04232804232805,111.95767195767196 87.61904761904762,112.5925925925926 87.1957671957672,113.01587301587303 86.77248677248677,113.65079365079366 86.34920634920636,114.28571428571429 85.92592592592594,114.92063492063492 85.71428571428572,115.55555555555557 85.5026455026455,116.1904761904762 85.5026455026455,116.82539682539684 85.29100529100529,117.46031746031747 85.29100529100529,118.0952380952381 85.29100529100529,118.73015873015873 85.29100529100529,119.36507936507937 85.29100529100529,120.00000000000001 85.5026455026455,120.63492063492065 85.71428571428572,121.26984126984128 85.92592592592594,121.90476190476191 86.34920634920636,122.53968253968254 86.56084656084657,123.17460317460318 86.98412698412699,123.80952380952382 87.1957671957672,124.44444444444446 87.61904761904762,125.07936507936509 88.04232804232805,125.71428571428572 88.46560846560847,126.34920634920636 88.8888888888889,126.77248677248679 89.31216931216932,127.40740740740742 89.94708994708995,127.61904761904763 90.37037037037038,128.04232804232805 91.00529100529101,128.46560846560848 91.42857142857143,129.10052910052912 92.06349206349208,129.52380952380955 92.69841269841271,129.94708994708995 93.33333333333334,130.37037037037038 93.96825396825398,130.7936507936508 94.60317460317461,131.005291005291 95.23809523809524,131.42857142857144 95.87301587301587,131.85185185185185 96.50793650793652,132.27513227513228 97.14285714285715,132.4867724867725 97.56613756613757,132.9100529100529 98.2010582010582,133.12169312169314 98.62433862433863,133.54497354497354 99.25925925925927,133.96825396825398 99.8941798941799,134.3915343915344 100.52910052910053,134.81481481481484 101.16402116402116,135.23809523809524 101.79894179894181,135.66137566137567 102.22222222222223,136.0846560846561 102.64550264550266,136.71957671957674 102.64550264550266,137.35449735449737 102.85714285714286,137.989417989418 103.06878306878308,138.62433862433863 103.06878306878308,139.25925925925927 103.06878306878308,139.8941798941799 102.85714285714286,140.52910052910053 102.64550264550266,141.16402116402116 102.22222222222223,141.5873015873016 101.79894179894181,142.22222222222223 101.37566137566138,142.64550264550266 100.95238095238096,143.2804232804233 100.52910052910053,143.70370370370372 99.8941798941799,144.12698412698413 99.25925925925927,144.55026455026456 98.62433862433863,144.973544973545 97.989417989418,145.39682539682542 97.35449735449737,145.60846560846562 96.71957671957672,146.03174603174605 96.08465608465609,146.24338624338625 95.44973544973546,146.66666666666669 94.81481481481482,146.8783068783069 94.17989417989419,147.0899470899471 93.54497354497356,147.51322751322752 92.91005291005291,147.72486772486775 92.27513227513228,147.93650793650795 91.64021164021165,148.14814814814815 91.00529100529101,148.35978835978838 90.37037037037038,148.57142857142858 89.73544973544975,148.57142857142858 89.31216931216932,148.99470899470901 88.67724867724868,148.99470899470901 88.04232804232805,149.20634920634922 87.40740740740742,149.41798941798942 86.77248677248677,149.62962962962965 86.13756613756614,149.62962962962965 85.5026455026455,149.84126984126985 84.86772486772487,149.84126984126985 84.23280423280424,150.05291005291005 83.59788359788361,150.26455026455028 82.96296296296298,150.26455026455028 82.32804232804233,150.47619047619048 81.6931216931217,150.47619047619048 81.05820105820106,150.6878306878307 80.42328042328043,150.6878306878307 79.7883597883598,150.8994708994709 79.15343915343917,150.8994708994709 78.51851851851852,150.8994708994709 77.88359788359789,150.8994708994709 77.24867724867725,151.11111111111111 76.61375661375662,151.11111111111111 75.97883597883599,151.11111111111111 75.34391534391536,151.32275132275134 74.70899470899471,151.32275132275134 74.07407407407408,151.32275132275134 73.43915343915344,151.32275132275134 72.80423280423281,151.32275132275134 72.16931216931218,151.32275132275134 71.53439153439155,151.32275132275134 70.8994708994709,151.32275132275134 70.26455026455027,151.32275132275134 69.62962962962963,151.32275132275134 68.994708994709,151.32275132275134 68.35978835978837,151.32275132275134 67.72486772486774,151.32275132275134 67.08994708994709,151.32275132275134 66.45502645502646,151.32275132275134 65.82010582010582,151.32275132275134 65.18518518518519,151.32275132275134 64.55026455026456,151.11111111111111 63.91534391534392,151.11111111111111 63.280423280423285,150.8994708994709 62.64550264550265,150.8994708994709 62.01058201058201,150.8994708994709 61.37566137566138,150.8994708994709 60.74074074074075,150.8994708994709 60.10582010582011,150.8994708994709 59.470899470899475,150.8994708994709 58.83597883597884,150.6878306878307 58.2010582010582,150.6878306878307 57.56613756613757,150.6878306878307 56.93121693121694,150.6878306878307 56.2962962962963,150.6878306878307 55.661375661375665,150.6878306878307 55.02645502645503,150.6878306878307 54.39153439153439,150.8994708994709 53.75661375661376,150.8994708994709 53.12169312169313,150.8994708994709 52.48677248677249,150.8994708994709 51.851851851851855,150.8994708994709 51.21693121693122,150.8994708994709 50.58201058201058,150.8994708994709 49.94708994708995,150.8994708994709 49.31216931216932,150.8994708994709 48.677248677248684,150.8994708994709 48.042328042328045,150.8994708994709 47.40740740740741,150.8994708994709 46.77248677248678,150.8994708994709 46.13756613756614,151.11111111111111 45.50264550264551,151.11111111111111 44.867724867724874,151.11111111111111 44.232804232804234,151.11111111111111 43.5978835978836,151.11111111111111 42.96296296296297,151.11111111111111 42.32804232804233,151.32275132275134 41.6931216931217,151.32275132275134 41.058201058201064,151.32275132275134 40.423280423280424,151.32275132275134 39.78835978835979,151.53439153439155 39.15343915343916,151.53439153439155 38.51851851851852,151.53439153439155 37.883597883597886,151.74603174603175 37.248677248677254,151.74603174603175 36.613756613756614,151.74603174603175 35.97883597883598,151.95767195767198 35.34391534391535,151.95767195767198 34.70899470899471,151.95767195767198 34.074074074074076,152.16931216931218 33.43915343915344,152.16931216931218 32.804232804232804,152.38095238095238 32.16931216931217,152.38095238095238 31.53439153439154,152.5925925925926 30.899470899470902,152.5925925925926 30.264550264550266,152.8042328042328 29.629629629629633,152.8042328042328 28.994708994708997,153.01587301587304 28.35978835978836,153.22751322751324 27.724867724867728,153.22751322751324 27.089947089947092,153.43915343915344 26.455026455026456,153.65079365079367 25.820105820105823,153.86243386243387 25.185185185185187,154.07407407407408 24.55026455026455,154.07407407407408 23.915343915343918,154.2857142857143 23.280423280423282,154.4973544973545 22.645502645502646,154.7089947089947 22.010582010582013,154.92063492063494 21.375661375661377,155.34391534391534 20.740740740740744,155.55555555555557 20.105820105820108,155.978835978836 19.47089947089947,156.4021164021164 19.047619047619047,156.82539682539684 18.412698412698415,157.03703703703704 17.98941798941799,157.46031746031747 17.354497354497354,157.8835978835979 16.71957671957672,158.0952380952381 16.296296296296298,158.51851851851853 15.661375661375663,158.73015873015873 12.063492063492065,160.84656084656086" style="fill:none; stroke:#00aa99; stroke-width:1.0"  /><polyline points="12.063492063492065,160.84656084656086 11.005291005291006,157.03703703703704 10.793650793650794,156.4021164021164 10.582010582010582,155.76719576719577 10.370370370370372,155.13227513227514 10.15873015873016,154.4973544973545 9.947089947089948,153.86243386243387 9.735449735449736,153.22751322751324 9.523809523809524,152.5925925925926 9.312169312169313,151.95767195767198 9.312169312169313,151.32275132275134 9.100529100529101,150.6878306878307 8.88888888888889,150.05291005291005 8.88888888888889,149.41798941798942 8.677248677248677,148.78306878306879 8.677248677248677,148.14814814814815 8.677248677248677,147.51322751322752 8.465608465608467,146.8783068783069 8.465608465608467,146.24338624338625 8.465608465608467,145.60846560846562 8.465608465608467,144.973544973545 8.465608465608467,144.33862433862436 8.253968253968255,143.70370370370372 8.253968253968255,143.0687830687831 8.465608465608467,142.43386243386246 8.465608465608467,141.7989417989418 8.465608465608467,141.16402116402116 8.465608465608467,140.52910052910053 8.465608465608467,139.8941798941799 8.677248677248677,139.25925925925927 8.677248677248677,138.62433862433863 8.677248677248677,137.989417989418 8.677248677248677,137.35449735449737 8.88888888888889,136.71957671957674 8.88888888888889,136.0846560846561 9.100529100529101,135.44973544973547 8.88888888888889,134.81481481481484 8.88888888888889,134.17989417989418 9.100529100529101,133.54497354497354 9.100529100529101,132.9100529100529 9.312169312169313,132.27513227513228 9.312169312169313,131.64021164021165 9.523809523809524,131.005291005291 9.735449735449736,130.37037037037038 9.735449735449736,129.73544973544975 9.947089947089948,129.10052910052912 10.15873015873016,128.46560846560848 10.370370370370372,127.83068783068784 10.582010582010582,127.1957671957672 10.793650793650794,126.56084656084657 11.216931216931219,126.13756613756615 11.428571428571429,125.5026455026455 11.851851851851853,125.07936507936509 12.275132275132275,124.65608465608466 12.6984126984127,124.23280423280424 13.121693121693122,123.80952380952382 13.756613756613758,123.3862433862434 14.391534391534393,123.17460317460318 15.026455026455027,123.17460317460318 15.661375661375663,123.17460317460318 16.296296296296298,123.3862433862434 16.931216931216934,123.3862433862434 17.566137566137566,123.59788359788361 18.201058201058203,123.80952380952382 18.83597883597884,124.02116402116403 19.47089947089947,123.80952380952382 20.105820105820108,124.02116402116403 20.740740740740744,124.23280423280424 21.375661375661377,124.44444444444446 22.010582010582013,124.44444444444446 22.645502645502646,124.65608465608466 23.280423280423282,124.86772486772487 23.915343915343918,124.86772486772487 24.55026455026455,125.07936507936509 25.185185185185187,125.2910052910053 25.820105820105823,125.2910052910053 26.455026455026456,125.5026455026455 27.089947089947092,125.71428571428572 27.724867724867728,125.71428571428572 28.35978835978836,125.92592592592594 28.994708994708997,126.13756613756615 29.629629629629633,126.13756613756615 30.264550264550266,126.34920634920636 30.899470899470902,126.34920634920636 31.53439153439154,126.56084656084657 32.16931216931217,126.56084656084657 32.804232804232804,126.56084656084657 33.43915343915344,126.56084656084657 34.074074074074076,126.56084656084657 34.70899470899471,126.56084656084657 35.34391534391535,126.56084656084657 35.97883597883598,126.56084656084657 36.613756613756614,126.34920634920636 37.248677248677254,126.34920634920636 37.883597883597886,126.13756613756615 38.51851851851852,126.13756613756615 39.15343915343916,125.92592592592594 39.78835978835979,125.71428571428572 40.423280423280424,125.2910052910053 41.058201058201064,125.07936507936509 41.6931216931217,124.86772486772487 42.32804232804233,124.44444444444446 42.96296296296297,124.23280423280424 43.386243386243386,123.80952380952382 44.021164021164026,123.3862433862434 44.44444444444445,122.96296296296298 44.867724867724874,122.53968253968254 45.29100529100529,122.11640211640213 45.714285714285715,121.6931216931217 46.13756613756614,121.26984126984128 46.560846560846564,120.63492063492065 46.77248677248678,120.00000000000001 47.195767195767196,119.36507936507937 47.40740740740741,118.73015873015873 47.61904761904762,118.0952380952381 48.042328042328045,117.46031746031747 48.042328042328045,116.82539682539684 48.25396825396826,116.1904761904762 48.46560846560847,115.55555555555557 48.677248677248684,114.92063492063492 48.677248677248684,114.28571428571429 48.88888888888889,113.65079365079366 48.88888888888889,113.01587301587303 49.1005291005291,112.3809523809524 49.1005291005291,111.74603174603176 49.1005291005291,111.11111111111111 49.1005291005291,110.47619047619048 49.31216931216932,109.84126984126985 49.31216931216932,109.20634920634922 49.1005291005291,108.57142857142858 49.1005291005291,107.93650793650795 49.1005291005291,107.3015873015873 49.1005291005291,106.66666666666667 49.1005291005291,106.03174603174604 49.1005291005291,105.3968253968254 48.88888888888889,104.76190476190477 48.88888888888889,104.12698412698414 48.677248677248684,103.4920634920635 48.46560846560847,102.85714285714286 48.46560846560847,102.22222222222223 48.25396825396826,101.5873015873016 48.042328042328045,100.95238095238096 47.830687830687836,100.31746031746033 47.40740740740741,99.8941798941799 47.195767195767196,99.25925925925927 46.98412698412699,98.62433862433863 46.77248677248678,97.989417989418 46.560846560846564,97.35449735449737 46.349206349206355,96.71957671957672 45.92592592592593,96.08465608465609 45.50264550264551,95.44973544973546 45.29100529100529,94.81481481481482 44.867724867724874,94.17989417989419 44.44444444444445,93.54497354497356 44.021164021164026,92.91005291005291 43.5978835978836,92.27513227513228 43.17460317460318,91.64021164021165 42.75132275132275,91.21693121693123 42.32804232804233,90.7936507936508 41.904761904761905,90.37037037037038 41.48148148148149,89.94708994708995 41.058201058201064,89.52380952380953 40.63492063492064,89.1005291005291 40.211640211640216,88.67724867724868 39.57671957671958,88.25396825396827 38.94179894179894,87.83068783068784 38.30687830687831,87.40740740740742 37.67195767195768,86.98412698412699 37.03703703703704,86.77248677248677 36.402116402116405,86.34920634920636 35.76719576719577,86.13756613756614 35.13227513227513,85.92592592592594 34.4973544973545,85.71428571428572 33.86243386243387,85.5026455026455 33.22751322751323,85.07936507936509 32.592592592592595,85.07936507936509 31.95767195767196,84.86772486772487 31.322751322751326,84.86772486772487 30.68783068783069,84.86772486772487 30.052910052910054,84.86772486772487 29.41798941798942,84.86772486772487 28.783068783068785,84.86772486772487 28.14814814814815,85.29100529100529 27.513227513227516,85.5026455026455 26.87830687830688,85.71428571428572 26.243386243386244,85.92592592592594 25.60846560846561,86.34920634920636 24.973544973544975,86.77248677248677 24.338624338624342,87.1957671957672 23.703703703703706,87.61904761904762 23.280423280423282,88.04232804232805 22.645502645502646,88.46560846560847 22.010582010582013,88.8888888888889 21.375661375661377,89.31216931216932 20.740740740740744,89.73544973544975 20.105820105820108,90.15873015873017 19.47089947089947,90.58201058201058 19.047619047619047,91.00529100529101 18.624338624338627,91.42857142857143 17.98941798941799,91.85185185185186 17.354497354497354,92.27513227513228 16.71957671957672,92.69841269841271 16.084656084656086,93.12169312169313 15.449735449735451,93.54497354497356 14.814814814814817,93.96825396825398 14.391534391534393,94.39153439153439 13.756613756613758,94.60317460317461 13.121693121693122,95.02645502645504 12.486772486772487,95.44973544973546 11.851851851851853,95.66137566137567 11.216931216931219,95.87301587301587 10.582010582010582,96.08465608465609 9.947089947089948,96.2962962962963 9.312169312169313,96.50793650793652 8.677248677248677,96.50793650793652 8.042328042328043,96.50793650793652 7.407407407407408,96.2962962962963 6.772486772486773,96.08465608465609 6.137566137566138,95.66137566137567 5.502645502645503,95.23809523809524 5.07936507936508,94.81481481481482 4.656084656084657,94.39153439153439 4.2328042328042335,93.96825396825398 4.021164021164021,93.33333333333334 3.597883597883598,92.91005291005291 3.174603174603175,92.27513227513228 2.9629629629629632,91.64021164021165 2.53968253968254,91.00529100529101 2.3280423280423284,90.37037037037038 2.1164021164021167,89.73544973544975 1.6931216931216932,89.1005291005291 1.4814814814814816,88.46560846560847 1.26984126984127,87.83068783068784 1.0582010582010584,87.1957671957672 1.0582010582010584,86.56084656084657 0.8465608465608466,85.92592592592594 0.634920634920635,85.29100529100529 0.634920634920635,84.65608465608466 0.4232804232804233,84.02116402116403 0.4232804232804233,83.3862433862434 0.4232804232804233,82.75132275132276 0.21164021164021166,82.11640211640213 0.21164021164021166,81.48148148148148 0.21164021164021166,80.84656084656085 0.21164021164021166,80.21164021164022 0.21164021164021166,79.57671957671958 0.21164021164021166,78.94179894179895 0.21164021164021166,78.30687830687832 0.21164021164021166,77.67195767195767 0.4232804232804233,77.03703703703704 0.4232804232804233,76.4021164021164 0.634920634920635,75.76719576719577 0.8465608465608466,75.13227513227514 0.8465608465608466,74.49735449735451 1.0582010582010584,73.86243386243387 1.26984126984127,73.22751322751323 1.4814814814814816,72.5925925925926 1.4814814814814816,71.95767195767196 1.6931216931216932,71.32275132275133 1.9047619047619049,70.6878306878307 1.9047619047619049,70.05291005291006 2.1164021164021167,69.41798941798942 2.3280423280423284,68.78306878306879 2.3280423280423284,68.14814814814815 2.3280423280423284,67.51322751322752 2.3280423280423284,66.87830687830689 2.3280423280423284,66.24338624338625 2.53968253968254,65.60846560846561 2.3280423280423284,64.97354497354497 2.3280423280423284,64.33862433862434 2.53968253968254,63.70370370370371 2.53968253968254,63.06878306878308 2.53968253968254,62.43386243386244 2.53968253968254,61.798941798941804 2.53968253968254,61.16402116402117 2.53968253968254,60.52910052910053 2.53968253968254,59.8941798941799 2.3280423280423284,59.25925925925927 2.3280423280423284,58.62433862433863 2.3280423280423284,57.989417989417994 2.1164021164021167,57.35449735449736 2.1164021164021167,56.71957671957672 1.9047619047619049,56.08465608465609 1.6931216931216932,55.449735449735456 1.6931216931216932,54.81481481481482 1.26984126984127,51.42857142857143" style="fill:none; stroke:#3300bb; stroke-width:1.0"  /><circle cx="1.26984126984127" cy="51.42857142857143" r="2.0" style="fill:none; stroke:#000000aa; stroke-width:0.25" /><circle cx="125.5026455026455" cy="10.793650793650794" r="2.0" style="fill:none; stroke:#000000aa; stroke-width:0.25" /><circle cx="165.2910052910053" cy="110.05291005291006" r="2.0" style="fill:none; stroke:#000000aa; stroke-width:0.25" /><circle cx="12.063492063492065" cy="160.84656084656086" r="2.0" style="fill:none; stroke:#000000aa; stroke-width:0.25" /><circle cx="0.4232804232804233" cy="51.640211640211646" r="2.0" style="fill:none; stroke:#ff3366aa; stroke-width:0.25" /><circle cx="125.71428571428572" cy="10.793650793650794" r="2.0" style="fill:none; stroke:#ff3366aa; stroke-width:0.25" /><circle cx="165.2910052910053" cy="110.05291005291006" r="2.0" style="fill:none; stroke:#ff3366aa; stroke-width:0.25" /><circle cx="12.6984126984127" cy="160.0" r="2.0" style="fill:none; stroke:#ff3366aa; stroke-width:0.25" /><polyline points="11.851851851851853,53.75661375661376 11.216931216931219,53.75661375661376 10.582010582010582,53.54497354497355 9.947089947089948,53.333333333333336 9.312169312169313,53.333333333333336 8.677248677248677,53.333333333333336 8.042328042328043,53.12169312169313 7.407407407407408,52.91005291005291 6.772486772486773,52.91005291005291 6.137566137566138,52.6984126984127 5.502645502645503,52.48677248677249 4.867724867724868,52.27513227513228 4.2328042328042335,52.06349206349207 3.597883597883598,51.851851851851855" style="fill:none; stroke:#001100; stroke-width:1.0" /><polyline points="2.53968253968254,63.06878306878308 2.53968253968254,62.43386243386244 2.53968253968254,61.798941798941804 2.53968253968254,61.16402116402117 2.53968253968254,60.52910052910053 2.53968253968254,59.8941798941799 2.3280423280423284,59.25925925925927 2.3280423280423284,58.62433862433863 2.3280423280423284,57.989417989417994 2.1164021164021167,57.35449735449736 2.1164021164021167,56.71957671957672 1.9047619047619049,56.08465608465609 1.6931216931216932,55.449735449735456 1.6931216931216932,54.81481481481482" style="fill:none; stroke:#000011; stroke-width:1.0" /><polyline points="131.85185185185185,20.31746031746032 131.42857142857144,19.682539682539684 131.005291005291,19.047619047619047 130.58201058201058,18.412698412698415 130.15873015873018,17.77777777777778 129.73544973544975,17.142857142857146 129.31216931216932,16.50793650793651 128.88888888888889,15.873015873015873 128.46560846560848,15.449735449735451 128.25396825396825,14.814814814814817 127.83068783068784,14.17989417989418 127.40740740740742,13.756613756613758" style="fill:none; stroke:#001100; stroke-width:1.0" /><polyline points="118.51851851851853,19.894179894179896 118.94179894179895,19.25925925925926 119.36507936507937,18.83597883597884 119.7883597883598,18.412698412698415 120.21164021164022,17.98941798941799 120.63492063492065,17.354497354497354 121.05820105820106,16.931216931216934 121.4814814814815,16.296296296296298 121.90476190476191,15.661375661375663 122.32804232804234,15.238095238095239 122.75132275132276,14.603174603174605 123.17460317460318,13.96825396825397 123.59788359788361,13.333333333333334" style="fill:none; stroke:#000011; stroke-width:1.0" /><polyline points="154.92063492063494,115.34391534391536 155.34391534391534,114.92063492063492 155.978835978836,114.70899470899472 156.61375661375664,114.28571428571429 157.24867724867727,114.07407407407408 157.8835978835979,113.65079365079366 158.51851851851853,113.43915343915344 159.15343915343917,113.01587301587303 159.7883597883598,112.5925925925926 160.42328042328043,112.3809523809524 161.05820105820106,111.95767195767196 161.6931216931217,111.74603174603176 162.32804232804233,111.53439153439155" style="fill:none; stroke:#001100; stroke-width:1.0" /><polyline points="160.21164021164023,99.68253968253968 160.63492063492066,100.10582010582011 160.84656084656086,100.74074074074075 161.2698412698413,101.37566137566138 161.4814814814815,102.01058201058201 161.90476190476193,102.64550264550266 162.11640211640213,103.28042328042329 162.32804232804233,103.91534391534393 162.75132275132276,104.55026455026456 162.96296296296296,105.18518518518519 163.3862433862434,105.60846560846562 163.59788359788362,106.24338624338625 163.80952380952382,106.87830687830689" style="fill:none; stroke:#000011; stroke-width:1.0" /><polyline points="8.677248677248677,148.78306878306879 8.88888888888889,149.41798941798942 8.88888888888889,150.05291005291005 9.100529100529101,150.6878306878307 9.312169312169313,151.32275132275134 9.312169312169313,151.95767195767198 9.523809523809524,152.5925925925926 9.735449735449736,153.22751322751324 9.947089947089948,153.86243386243387 10.15873015873016,154.4973544973545 10.370370370370372,155.13227513227514 10.582010582010582,155.76719576719577 10.793650793650794,156.4021164021164 11.005291005291006,157.03703703703704" style="fill:none; stroke:#001100; stroke-width:1.0" /><polyline points="23.280423280423282,154.4973544973545 22.645502645502646,154.7089947089947 22.010582010582013,154.92063492063494 21.375661375661377,155.34391534391534 20.740740740740744,155.55555555555557 20.105820105820108,155.978835978836 19.47089947089947,156.4021164021164 19.047619047619047,156.82539682539684 18.412698412698415,157.03703703703704 17.98941798941799,157.46031746031747 17.354497354497354,157.8835978835979 16.71957671957672,158.0952380952381 16.296296296296298,158.51851851851853 15.661375661375663,158.73015873015873" style="fill:none; stroke:#000011; stroke-width:1.0" /><polyline points="3.597883597883598,51.851851851851855 -16.931216931216934,47.195767195767196" style="fill:none; stroke:#ffaa00; stroke-width:0.4" /><polyline points="1.6931216931216932,54.81481481481482 -0.4232804232804233,33.86243386243387" style="fill:none; stroke:#aaff00; stroke-width:0.4" /><polyline points="127.40740740740742,13.756613756613758 115.55555555555557,-3.8095238095238098" style="fill:none; stroke:#ffaa00; stroke-width:0.4" /><polyline points="123.59788359788361,13.333333333333334 136.5079365079365,-3.3862433862433865" style="fill:none; stroke:#aaff00; stroke-width:0.4" /><polyline points="162.32804232804233,111.53439153439155 181.16402116402116,101.79894179894181" style="fill:none; stroke:#ffaa00; stroke-width:0.4" /><polyline points="163.80952380952382,106.87830687830689 173.33333333333334,125.71428571428572" style="fill:none; stroke:#aaff00; stroke-width:0.4" /><polyline points="11.005291005291006,157.03703703703704 16.71957671957672,177.35449735449737" style="fill:none; stroke:#ffaa00; stroke-width:0.4" /><polyline points="15.661375661375663,158.73015873015873 -2.7513227513227516,169.10052910052912" style="fill:none; stroke:#aaff00; stroke-width:0.4" /><circle cx="84.44444444444446" cy="79.7883597883598" r="1.0" style="fill:#444444; stroke-width:0" /><circle cx="76.82539682539684" cy="75.55555555555556" r="10.582010582010582" style="fill:#ff770022; stroke-width:0" /><circle cx="76.82539682539684" cy="75.55555555555556" r="1.0" style="fill:#ff7700; stroke-width:0" /></svg>