<?xml version="1.0" encoding="UTF-8" standalone="no"?><svg width="485.0793650793651" height="448.2539682539683" viewBox="-10 -10 181.6931216931217 169.41798941798942" xmlns="http://www.w3.org/2000/svg" xmlns:xlink="http://www.w3.org/1999/xlink"><polyline points="15.873015873015873,-0.21164021164021166 19.682539682539684,0.4232804232804233 20.31746031746032,0.4232804232804233 20.952380952380953,0.4232804232804233 21.58730158730159,0.634920634920635 22.222222222222225,0.8465608465608466 22.857142857142858,0.8465608465608466 23.492063492063494,1.0582010582010584 24.12698412698413,1.0582010582010584 24.761904761904763,1.0582010582010584 25.3968253968254,1.26984126984127 26.031746031746035,1.26984126984127 26.666666666666668,1.4814814814814816 27.301587301587304,1.4814814814814816 27.93650793650794,1.6931216931216932 28.571428571428573,1.6931216931216932 29.20634920634921,1.6931216931216932 29.841269841269842,1.6931216931216932 30.476190476190478,1.9047619047619049 31.111111111111114,1.9047619047619049 31.746031746031747,1.9047619047619049 32.38095238095239,1.9047619047619049 33.01587301587302,1.9047619047619049 33.65079365079365,1.9047619047619049 34.28571428571429,2.1164021164021167 34.920634920634924,2.1164021164021167 35.55555555555556,2.1164021164021167 36.19047619047619,2.1164021164021167 36.82539682539683,2.1164021164021167 37.46031746031746,2.1164021164021167 38.095238095238095,1.9047619047619049 38.730158730158735,1.9047619047619049 39.36507936507937,1.9047619047619049 40.0,1.9047619047619049 40.63492063492064,1.9047619047619049 41.26984126984127,1.9047619047619049 41.904761904761905,1.9047619047619049 42.539682539682545,1.9047619047619049 43.17460317460318,1.9047619047619049 43.80952380952381,1.9047619047619049 44.44444444444445,1.9047619047619049 45.07936507936508,1.6931216931216932 45.714285714285715,1.6931216931216932 46.349206349206355,1.6931216931216932 46.98412698412699,1.6931216931216932 47.61904761904762,1.6931216931216932 48.25396825396826,1.6931216931216932 48.88888888888889,1.6931216931216932 49.523809523809526,1.6931216931216932 50.158730158730165,1.6931216931216932 50.7936507936508,1.6931216931216932 51.42857142857143,1.4814814814814816 52.06349206349207,1.4814814814814816 52.6984126984127,1.4814814814814816 53.333333333333336,1.26984126984127 53.968253968253975,1.26984126984127 54.60317460317461,1.26984126984127 55.23809523809524,1.26984126984127 55.87301587301588,1.26984126984127 56.50793650793651,1.26984126984127 57.142857142857146,1.26984126984127 57.777777777777786,1.0582010582010584 58.41269841269842,1.0582010582010584 59.04761904761905,1.0582010582010584 59.682539682539684,1.0582010582010584 60.31746031746032,1.0582010582010584 60.952380952380956,0.8465608465608466 61.58730158730159,0.8465608465608466 62.22222222222223,0.8465608465608466 62.85714285714286,1.0582010582010584 63.492063492063494,1.0582010582010584 64.12698412698413,1.0582010582010584 64.76190476190477,1.0582010582010584 65.3968253968254,1.0582010582010584 66.03174603174604,1.0582010582010584 66.66666666666667,1.26984126984127 67.3015873015873,1.26984126984127 67.93650793650794,1.26984126984127 68.57142857142858,1.4814814814814816 69.20634920634922,1.4814814814814816 69.84126984126985,1.6931216931216932 70.47619047619048,1.9047619047619049 71.11111111111111,1.9047619047619049 71.74603174603175,2.1164021164021167 72.38095238095238,2.53968253968254 73.01587301587303,2.7513227513227516 73.65079365079366,3.174603174603175 74.07407407407408,3.8095238095238098 74.49735449735451,4.444444444444445 74.49735449735451,5.07936507936508 74.70899470899471,5.714285714285714 74.92063492063492,6.34920634920635 74.92063492063492,6.984126984126985 74.92063492063492,7.6190476190476195 74.92063492063492,8.253968253968255 74.70899470899471,8.88888888888889 74.70899470899471,9.523809523809524 74.70899470899471,10.15873015873016 74.49735449735451,10.793650793650794 74.28571428571429,11.428571428571429 74.07407407407408,12.063492063492065 73.86243386243387,12.6984126984127 73.65079365079366,13.333333333333334 73.22751322751323,13.96825396825397 73.01587301587303,14.603174603174605 72.80423280423281,15.238095238095239 72.5925925925926,15.873015873015873 72.38095238095238,16.50793650793651 72.16931216931218,17.142857142857146 71.95767195767196,17.77777777777778 71.74603174603175,18.412698412698415 71.53439153439155,19.047619047619047 71.32275132275133,19.682539682539684 71.11111111111111,20.31746031746032 70.8994708994709,20.952380952380953 70.8994708994709,21.58730158730159 70.6878306878307,22.222222222222225 70.47619047619048,22.857142857142858 70.26455026455027,23.492063492063494 70.26455026455027,24.12698412698413 70.26455026455027,24.761904761904763 70.05291005291006,25.3968253968254 70.05291005291006,26.031746031746035 69.84126984126985,26.666666666666668 69.84126984126985,27.301587301587304 69.84126984126985,27.93650793650794 69.62962962962963,28.571428571428573 69.62962962962963,29.20634920634921 69.62962962962963,29.841269841269842 69.62962962962963,30.476190476190478 69.62962962962963,31.111111111111114 69.62962962962963,31.746031746031747 69.62962962962963,32.38095238095239 69.62962962962963,33.01587301587302 69.84126984126985,33.65079365079365 70.26455026455027,34.28571428571429 70.47619047619048,34.920634920634924 70.6878306878307,35.55555555555556 71.11111111111111,36.19047619047619 71.53439153439155,36.613756613756614 71.95767195767196,37.248677248677254 72.38095238095238,37.67195767195768 73.01587301587303,38.095238095238095 73.65079365079366,38.51851851851852 74.28571428571429,38.94179894179894 74.70899470899471,39.36507936507937 75.34391534391536,39.78835978835979 75.97883597883599,40.211640211640216 76.61375661375662,40.423280423280424 77.03703703703704,40.84656084656085 77.67195767195767,41.058201058201064 78.30687830687832,41.26984126984127 78.94179894179895,41.48148148148149 79.57671957671958,41.6931216931217 80.21164021164022,41.904761904761905 80.84656084656085,42.11640211640212 81.48148148148148,42.32804232804233 82.11640211640213,42.539682539682545 82.75132275132276,42.539682539682545 83.3862433862434,42.75132275132275 84.02116402116403,42.96296296296297 84.65608465608466,42.96296296296297 85.29100529100529,42.96296296296297 85.92592592592594,42.96296296296297 86.56084656084657,42.96296296296297 87.1957671957672,42.96296296296297 87.83068783068784,42.96296296296297 88.46560846560847,42.96296296296297 89.1005291005291,42.96296296296297 89.73544973544975,42.96296296296297 90.37037037037038,42.75132275132275 91.00529100529101,42.539682539682545 91.64021164021165,42.539682539682545 92.27513227513228,42.539682539682545 92.91005291005291,42.32804232804233 93.54497354497356,42.11640211640212 94.17989417989419,41.904761904761905 94.81481481481482,41.6931216931217 95.44973544973546,41.48148148148149 96.08465608465609,41.26984126984127 96.71957671957672,41.058201058201064 97.35449735449737,40.63492063492064 97.989417989418,40.423280423280424 98.41269841269842,40.0 99.04761904761905,39.57671957671958 99.68253968253968,39.15343915343916 100.10582010582011,38.730158730158735 100.52910052910053,38.30687830687831 100.95238095238096,37.883597883597886 101.37566137566138,37.46031746031746 101.5873015873016,36.82539682539683 102.01058201058201,36.402116402116405 102.22222222222223,35.76719576719577 102.43386243386244,35.13227513227513 102.64550264550266,34.4973544973545 102.85714285714286,33.86243386243387 102.85714285714286,33.22751322751323 103.06878306878308,32.592592592592595 103.06878306878308,31.95767195767196 103.28042328042329,31.322751322751326 103.28042328042329,30.68783068783069 103.4920634920635,30.052910052910054 103.4920634920635,29.41798941798942 103.70370370370371,28.783068783068785 103.70370370370371,28.14814814814815 103.70370370370371,27.513227513227516 103.70370370370371,26.87830687830688 103.70370370370371,26.243386243386244 103.70370370370371,25.60846560846561 103.70370370370371,24.973544973544975 103.70370370370371,24.338624338624342 103.91534391534393,23.703703703703706 103.91534391534393,23.06878306878307 103.70370370370371,22.433862433862437 103.70370370370371,21.7989417989418 103.70370370370371,21.164021164021165 103.70370370370371,20.529100529100532 103.70370370370371,19.894179894179896 103.70370370370371,19.25925925925926 103.70370370370371,18.624338624338627 103.91534391534393,17.98941798941799 103.70370370370371,17.354497354497354 103.70370370370371,16.71957671957672 103.70370370370371,16.084656084656086 103.70370370370371,15.449735449735451 103.70370370370371,14.814814814814817 103.70370370370371,14.17989417989418 103.70370370370371,13.544973544973546 103.70370370370371,12.910052910052912 103.91534391534393,12.275132275132275 103.91534391534393,11.640211640211641 103.91534391534393,11.005291005291006 104.12698412698414,10.370370370370372 104.33862433862434,9.735449735449736 104.55026455026456,9.100529100529101 104.76190476190477,8.465608465608467 104.97354497354497,7.830687830687832 105.3968253968254,7.407407407407408 105.82010582010582,6.772486772486773 106.24338624338625,6.34920634920635 106.66666666666667,5.9259259259259265 107.3015873015873,5.502645502645503 107.72486772486774,5.07936507936508 108.35978835978837,4.867724867724868 108.994708994709,4.656084656084657 109.62962962962963,4.656084656084657 110.26455026455027,4.444444444444445 110.89947089947091,4.444444444444445 111.53439153439155,4.444444444444445 112.16931216931218,4.444444444444445 112.80423280423281,4.444444444444445 113.43915343915344,4.2328042328042335 114.07407407407408,4.444444444444445 114.70899470899472,4.2328042328042335 115.34391534391536,4.2328042328042335 115.97883597883599,4.444444444444445 116.61375661375662,4.444444444444445 117.24867724867725,4.444444444444445 117.88359788359789,4.444444444444445 118.51851851851853,4.444444444444445 119.15343915343917,4.656084656084657 119.7883597883598,4.656084656084657 120.42328042328043,4.656084656084657 121.05820105820106,4.867724867724868 121.6931216931217,4.867724867724868 122.32804232804234,5.07936507936508 122.96296296296298,5.291005291005291 123.59788359788361,5.291005291005291 124.23280423280424,5.502645502645503 124.86772486772487,5.714285714285714 125.5026455026455,5.714285714285714 126.13756613756615,5.9259259259259265 126.77248677248679,6.137566137566138 127.40740740740742,6.137566137566138 128.04232804232805,6.560846560846561 128.67724867724868,6.772486772486773 129.31216931216932,6.772486772486773 129.94708994708995,6.984126984126985 130.58201058201058,7.195767195767196 131.21693121693121,7.407407407407408 131.85185185185185,7.407407407407408 132.4867724867725,7.6190476190476195 133.12169312169314,7.6190476190476195 133.75661375661377,7.830687830687832 134.3915343915344,8.042328042328043 135.02645502645504,8.253968253968255 135.66137566137567,8.465608465608467 136.2962962962963,8.465608465608467 136.93121693121694,8.677248677248677 137.56613756613757,8.88888888888889 138.2010582010582,8.88888888888889 138.83597883597884,9.100529100529101 139.47089947089947,9.312169312169313 140.10582010582013,9.312169312169313 140.74074074074076,9.523809523809524 141.3756613756614,9.735449735449736 142.01058201058203,9.735449735449736 142.64550264550266,9.947089947089948 143.2804232804233,9.947089947089948 143.91534391534393,9.947089947089948 144.55026455026456,9.947089947089948 145.1851851851852,9.947089947089948 145.82010582010582,10.15873015873016 148.57142857142858,10.582010582010582" style="fill:none; stroke:#cc0000; stroke-width:1.0"  /><polyline points="148.57142857142858,10.582010582010582 148.78306878306879,14.17989417989418 148.78306878306879,14.814814814814817 148.57142857142858,15.449735449735451 148.57142857142858,16.084656084656086 148.57142857142858,16.71957671957672 148.57142857142858,17.354497354497354 148.57142857142858,17.98941798941799 148.78306878306879,18.624338624338627 148.78306878306879,19.25925925925926 148.78306878306879,19.894179894179896 148.78306878306879,20.529100529100532 148.78306878306879,21.164021164021165 148.99470899470901,21.7989417989418 148.99470899470901,22.433862433862437 149.20634920634922,23.06878306878307 149.20634920634922,23.703703703703706 149.41798941798942,24.338624338624342 149.41798941798942,24.973544973544975 149.62962962962965,25.60846560846561 149.62962962962965,26.243386243386244 149.84126984126985,26.87830687830688 149.84126984126985,27.513227513227516 150.05291005291005,28.14814814814815 150.26455026455028,28.783068783068785 150.26455026455028,29.41798941798942 150.47619047619048,30.052910052910054 150.6878306878307,30.68783068783069 150.8994708994709,31.322751322751326 151.11111111111111,31.95767195767196 151.32275132275134,32.592592592592595 151.32275132275134,33.22751322751323 151.74603174603175,33.65079365079365 151.95767195767198,34.28571428571429 152.16931216931218,34.920634920634924 152.38095238095238,35.55555555555556 152.5925925925926,36.19047619047619 152.8042328042328,36.82539682539683 153.01587301587304,37.46031746031746 153.22751322751324,38.095238095238095 153.43915343915344,38.730158730158735 153.65079365079367,39.36507936507937 153.86243386243387,40.0 154.2857142857143,40.63492063492064 154.4973544973545,41.26984126984127 154.7089947089947,41.904761904761905 155.13227513227514,42.539682539682545 155.34391534391534,43.17460317460318 155.55555555555557,43.80952380952381 155.978835978836,44.44444444444445 156.1904761904762,45.07936507936508 156.61375661375664,45.714285714285715 157.03703703703704,46.349206349206355 157.24867724867727,46.98412698412699 157.67195767195767,47.61904761904762 158.0952380952381,48.25396825396826 158.30687830687833,48.88888888888889 158.73015873015873,49.523809523809526 158.94179894179896,50.158730158730165 159.36507936507937,50.58201058201058 159.5767195767196,51.21693121693122 160.0,51.640211640211646 160.21164021164023,52.27513227513228 160.63492063492066,52.91005291005291 160.84656084656086,53.54497354497355 161.05820105820106,54.179894179894184 161.05820105820106,54.81481481481482 161.2698412698413,55.449735449735456 161.2698412698413,56.08465608465609 161.2698412698413,56.71957671957672 161.2698412698413,57.35449735449736 161.05820105820106,57.989417989417994 160.84656084656086,58.62433862433863 160.63492063492066,59.25925925925927 160.42328042328043,59.8941798941799 160.0,60.31746031746032 159.5767195767196,60.952380952380956 159.15343915343917,61.37566137566138 158.51851851851853,61.798941798941804 157.8835978835979,62.22222222222223 157.24867724867727,62.43386243386244 156.82539682539684,62.85714285714286 156.1904761904762,63.06878306878308 155.55555555555557,63.06878306878308 154.92063492063494,63.280423280423285 154.2857142857143,63.492063492063494 153.65079365079367,63.492063492063494 153.01587301587304,63.70370370370371 152.38095238095238,63.70370370370371 151.74603174603175,63.70370370370371 151.11111111111111,63.70370370370371 150.47619047619048,63.70370370370371 149.84126984126985,63.492063492063494 149.20634920634922,63.492063492063494 148.57142857142858,63.280423280423285 147.93650793650795,63.06878306878308 147.30158730158732,62.85714285714286 146.66666666666669,62.64550264550265 146.03174603174605,62.43386243386244 145.39682539682542,62.01058201058201 144.76190476190476,61.798941798941804 144.12698412698413,61.37566137566138 143.4920634920635,60.952380952380956 142.85714285714286,60.74074074074075 142.22222222222223,60.52910052910053 141.5873015873016,60.10582010582011 140.95238095238096,59.8941798941799 140.31746031746033,59.682539682539684 139.6825396825397,59.470899470899475 139.04761904761907,59.25925925925927 138.41269841269843,59.25925925925927 137.7777777777778,59.04761904761905 137.14285714285717,59.04761904761905 136.5079365079365,59.04761904761905 135.87301587301587,59.04761904761905 135.23809523809524,59.04761904761905 134.6031746031746,59.25925925925927 133.96825396825398,59.25925925925927 133.33333333333334,59.470899470899475 132.6984126984127,59.470899470899475 132.06349206349208,59.682539682539684 131.42857142857144,59.8941798941799 130.7936507936508,60.10582010582011 130.15873015873018,60.31746031746032 129.52380952380955,60.52910052910053 128.88888888888889,60.952380952380956 128.25396825396825,61.16402116402117 127.61904761904763,61.58730158730159 127.1957671957672,62.01058201058201 126.56084656084657,62.43386243386244 126.13756613756615,62.85714285714286 125.71428571428572,63.280423280423285 125.2910052910053,63.70370370370371 124.86772486772487,64.12698412698413 124.44444444444446,64.76190476190477 124.02116402116403,65.18518518518519 123.59788359788361,65.82010582010582 123.17460317460318,66.45502645502646 122.96296296296298,67.08994708994709 122.53968253968254,67.72486772486774 122.32804232804234,68.35978835978837 122.32804232804234,68.994708994709 122.11640211640213,69.62962962962963 121.90476190476191,70.26455026455027 121.6931216931217,70.8994708994709 121.6931216931217,71.53439153439155 121.4814814814815,72.16931216931218 121.4814814814815,72.80423280423281 121.26984126984128,73.43915343915344 121.26984126984128,74.07407407407408 121.26984126984128,74.70899470899471 121.26984126984128,75.34391534391536 121.26984126984128,75.97883597883599 121.26984126984128,76.61375661375662 121.26984126984128,77.24867724867725 121.26984126984128,77.88359788359789 121.4814814814815,78.51851851851852 121.4814814814815,79.15343915343917 121.4814814814815,79.7883597883598 121.4814814814815,80.42328042328043 121.6931216931217,81.05820105820106 121.6931216931217,81.6931216931217 121.90476190476191,82.32804232804233 121.90476190476191,82.96296296296298 122.11640211640213,83.59788359788361 122.32804232804234,84.23280423280424 122.32804232804234,84.86772486772487 122.53968253968254,85.5026455026455 122.75132275132276,86.13756613756614 122.96296296296298,86.77248677248677 123.3862433862434,87.40740740740742 123.59788359788361,88.04232804232805 124.02116402116403,88.46560846560847 124.44444444444446,89.1005291005291 124.86772486772487,89.52380952380953 125.2910052910053,89.94708994708995 125.71428571428572,90.37037037037038 126.34920634920636,90.58201058201058 126.77248677248679,91.00529100529101 127.40740740740742,91.21693121693123 128.04232804232805,91.42857142857143 128.67724867724868,91.64021164021165 129.31216931216932,91.85185185185186 129.94708994708995,92.06349206349208 130.58201058201058,92.06349206349208 131.21693121693121,92.06349206349208 131.85185185185185,92.27513227513228 132.4867724867725,92.27513227513228 133.12169312169314,92.27513227513228 133.75661375661377,92.27513227513228 134.3915343915344,92.27513227513228 135.02645502645504,92.27513227513228 135.66137566137567,92.27513227513228 136.2962962962963,92.27513227513228 136.93121693121694,92.06349206349208 137.56613756613757,92.06349206349208 138.2010582010582,92.06349206349208 138.83597883597884,92.06349206349208 139.47089947089947,92.06349206349208 139.8941798941799,91.64021164021165 140.52910052910053,91.85185185185186 141.16402116402116,91.85185185185186 141.7989417989418,91.64021164021165 142.43386243386246,91.64021164021165 143.0687830687831,91.21693121693123 143.70370370370372,91.21693121693123 144.33862433862436,91.00529100529101 144.973544973545,91.00529100529101 145.60846560846562,90.7936507936508 146.24338624338625,90.58201058201058 146.8783068783069,90.58201058201058 147.51322751322752,90.37037037037038 148.14814814814815,90.37037037037038 148.78306878306879,90.37037037037038 149.41798941798942,90.37037037037038 150.05291005291005,90.37037037037038 150.6878306878307,90.37037037037038 151.32275132275134,90.58201058201058 151.95767195767198,90.7936507936508 152.5925925925926,91.00529100529101 153.22751322751324,91.42857142857143 153.86243386243387,91.85185185185186 154.4973544973545,92.27513227513228 154.92063492063494,92.69841269841271 155.34391534391534,93.33333333333334 155.55555555555557,93.96825396825398 155.76719576719577,94.60317460317461 156.1904761904762,95.23809523809524 156.1904761904762,95.87301587301587 156.1904761904762,96.50793650793652 156.1904761904762,97.14285714285715 156.1904761904762,97.77777777777779 156.1904761904762,98.41269841269842 156.1904761904762,99.04761904761905 156.1904761904762,99.68253968253968 156.1904761904762,100.31746031746033 156.1904761904762,100.95238095238096 156.1904761904762,101.5873015873016 156.1904761904762,102.22222222222223 156.1904761904762,102.85714285714286 156.4021164021164,103.4920634920635 156.4021164021164,104.12698412698414 156.4021164021164,104.76190476190477 156.4021164021164,105.3968253968254 156.4021164021164,106.03174603174604 156.4021164021164,106.66666666666667 156.4021164021164,107.3015873015873 156.1904761904762,107.93650793650795 156.1904761904762,108.57142857142858 156.1904761904762,109.20634920634922 156.1904761904762,109.84126984126985 155.978835978836,110.47619047619048 155.978835978836,111.11111111111111 155.76719576719577,111.74603174603176 155.76719576719577,112.3809523809524 155.55555555555557,113.01587301587303 155.55555555555557,113.65079365079366 155.34391534391534,114.28571428571429 155.34391534391534,114.92063492063492 155.13227513227514,115.55555555555557 154.92063492063494,116.1904761904762 154.92063492063494,116.82539682539684 154.7089947089947,117.46031746031747 154.7089947089947,118.0952380952381 154.4973544973545,118.73015873015873 154.2857142857143,119.36507936507937 154.07407407407408,120.00000000000001 153.86243386243387,120.63492063492065 153.86243386243387,121.26984126984128 153.65079365079367,121.90476190476191 153.43915343915344,122.53968253968254 153.22751322751324,123.17460317460318 153.01587301587304,123.80952380952382 152.8042328042328,124.44444444444446 152.5925925925926,125.07936507936509 152.38095238095238,125.71428571428572 152.16931216931218,126.34920634920636 151.95767195767198,126.98412698412699 151.74603174603175,127.61904761904763 151.53439153439155,128.25396825396825 151.53439153439155,128.88888888888889 151.32275132275134,129.52380952380955 151.11111111111111,130.15873015873018 150.8994708994709,130.7936507936508 150.6878306878307,131.42857142857144 150.26455026455028,132.06349206349208 148.78306878306879,136.2962962962963" style="fill:none; stroke:#999900; stroke-width:1.0"  /><polyline points="148.78306878306879,136.2962962962963 145.1851851851852,135.23809523809524 144.55026455026456,135.02645502645504 143.91534391534393,134.81481481481484 143.2804232804233,134.6031746031746 142.64550264550266,134.6031746031746 142.01058201058203,134.3915343915344 141.3756613756614,134.17989417989418 140.74074074074076,133.96825396825398 140.10582010582013,133.75661375661377 139.47089947089947,133.54497354497354 138.83597883597884,133.33333333333334 138.2010582010582,133.12169312169314 137.56613756613757,132.9100529100529 136.93121693121694,132.6984126984127 136.2962962962963,132.4867724867725 135.66137566137567,132.27513227513228 135.02645502645504,132.06349206349208 134.3915343915344,131.85185185185185 133.75661375661377,131.64021164021165 133.12169312169314,131.42857142857144 132.4867724867725,131.21693121693121 131.85185185185185,130.7936507936508 131.21693121693121,130.58201058201058 130.58201058201058,130.37037037037038 129.94708994708995,130.15873015873018 129.31216931216932,129.94708994708995 128.67724867724868,129.52380952380955 128.04232804232805,129.31216931216932 127.40740740740742,129.10052910052912 126.77248677248679,128.67724867724868 126.13756613756615,128.46560846560848 125.5026455026455,128.04232804232805 124.86772486772487,127.83068783068784 124.23280423280424,127.61904761904763 123.59788359788361,127.1957671957672 122.96296296296298,126.77248677248679 122.32804232804234,126.56084656084657 121.6931216931217,126.13756613756615 121.05820105820106,125.92592592592594 120.42328042328043,125.5026455026455 119.7883597883598,125.07936507936509 119.15343915343917,124.86772486772487 118.73015873015873,124.44444444444446 118.0952380952381,124.23280423280424 117.46031746031747,123.80952380952382 116.82539682539684,123.3862433862434 116.1904761904762,122.96296296296298 115.55555555555557,122.75132275132276 114.92063492063492,122.32804232804234 114.28571428571429,121.90476190476191 113.65079365079366,121.6931216931217 113.01587301587303,121.26984126984128 112.3809523809524,121.05820105820106 111.95767195767196,120.63492063492065 111.32275132275133,120.42328042328043 110.6878306878307,120.21164021164022 110.26455026455027,119.7883597883598 109.62962962962963,119.57671957671958 108.994708994709,119.15343915343917 108.35978835978837,118.94179894179895 107.72486772486774,118.73015873015873 107.0899470899471,118.51851851851853 106.45502645502647,118.0952380952381 105.82010582010582,117.88359788359789 105.18518518518519,117.67195767195768 104.55026455026456,117.24867724867725 103.91534391534393,117.03703703703705 103.28042328042329,116.61375661375662 102.64550264550266,116.4021164021164 102.01058201058201,116.1904761904762 101.37566137566138,115.76719576719577 100.74074074074075,115.55555555555557 100.10582010582011,115.13227513227514 99.47089947089948,114.92063492063492 98.83597883597885,114.70899470899472 98.2010582010582,114.49735449735451 97.56613756613757,114.28571428571429 96.93121693121694,113.86243386243387 96.2962962962963,113.65079365079366 95.66137566137567,113.43915343915344 95.02645502645504,113.22751322751324 94.60317460317461,112.80423280423281 93.96825396825398,112.5925925925926 93.33333333333334,112.3809523809524 92.69841269841271,112.3809523809524 92.06349206349208,111.95767195767196 91.42857142857143,111.95767195767196 90.7936507936508,111.74603174603176 90.15873015873017,111.74603174603176 89.52380952380953,111.74603174603176 88.8888888888889,111.74603174603176 88.25396825396827,111.74603174603176 87.61904761904762,111.95767195767196 86.98412698412699,112.16931216931218 86.34920634920636,112.3809523809524 85.71428571428572,112.80423280423281 85.07936507936509,113.22751322751324 84.65608465608466,113.65079365079366 84.23280423280424,114.07407407407408 83.80952380952381,114.70899470899472 83.3862433862434,115.34391534391536 83.17460317460318,115.97883597883599 82.96296296296298,116.61375661375662 82.53968253968254,117.24867724867725 82.53968253968254,117.88359788359789 82.32804232804233,118.51851851851853 82.32804232804233,119.15343915343917 82.32804232804233,119.7883597883598 82.32804232804233,120.42328042328043 82.32804232804233,121.05820105820106 82.32804232804233,121.6931216931217 82.32804232804233,122.32804232804234 82.53968253968254,122.96296296296298 82.75132275132276,123.59788359788361 82.75132275132276,124.23280423280424 82.96296296296298,124.86772486772487 83.17460317460318,125.5026455026455 83.3862433862434,126.13756613756615 83.59788359788361,126.77248677248679 83.80952380952381,127.40740740740742 84.02116402116403,128.04232804232805 84.23280423280424,128.67724867724868 84.44444444444446,129.31216931216932 84.65608465608466,129.94708994708995 84.86772486772487,130.58201058201058 85.07936507936509,131.21693121693121 85.07936507936509,131.85185185185185 85.29100529100529,132.4867724867725 85.5026455026455,133.12169312169314 85.5026455026455,133.75661375661377 85.5026455026455,134.3915343915344 85.5026455026455,135.02645502645504 85.5026455026455,135.66137566137567 85.5026455026455,136.2962962962963 85.5026455026455,136.93121693121694 85.29100529100529,137.56613756613757 85.29100529100529,138.2010582010582 85.29100529100529,138.83597883597884 85.29100529100529,139.47089947089947 85.07936507936509,140.10582010582013 84.86772486772487,140.74074074074076 84.65608465608466,141.3756613756614 84.44444444444446,142.01058201058203 84.23280423280424,142.64550264550266 83.80952380952381,143.0687830687831 83.3862433862434,143.70370370370372 82.96296296296298,144.33862433862436 82.53968253968254,144.973544973545 82.11640211640213,145.39682539682542 81.48148148148148,145.82010582010582 80.84656084656085,146.24338624338625 80.21164021164022,146.45502645502646 79.57671957671958,146.8783068783069 78.94179894179895,147.0899470899471 78.30687830687832,147.30158730158732 77.67195767195767,147.51322751322752 77.03703703703704,147.72486772486775 76.4021164021164,147.93650793650795 75.76719576719577,148.14814814814815 75.13227513227514,148.14814814814815 74.49735449735451,148.35978835978838 73.86243386243387,148.57142857142858 73.22751322751323,148.57142857142858 72.5925925925926,148.78306878306879 71.95767195767196,148.78306878306879 71.32275132275133,148.78306878306879 70.6878306878307,148.99470899470901 70.05291005291006,148.99470899470901 69.41798941798942,148.99470899470901 68.78306878306879,148.99470899470901 68.14814814814815,148.99470899470901 67.51322751322752,148.99470899470901 66.87830687830689,148.78306878306879 66.24338624338625,148.78306878306879 65.60846560846561,148.78306878306879 64.97354497354497,148.57142857142858 64.33862433862434,148.57142857142858 63.70370370370371,148.35978835978838 63.06878306878308,148.14814814814815 62.43386243386244,147.93650793650795 61.798941798941804,147.72486772486775 61.16402116402117,147.72486772486775 60.52910052910053,147.51322751322752 59.8941798941799,147.30158730158732 59.25925925925927,147.0899470899471 58.62433862433863,146.8783068783069 57.989417989417994,146.45502645502646 57.35449735449736,146.24338624338625 56.71957671957672,146.03174603174605 56.08465608465609,145.82010582010582 55.449735449735456,145.60846560846562 54.81481481481482,145.1851851851852 54.179894179894184,144.76190476190476 53.54497354497355,144.33862433862436 52.91005291005291,144.12698412698413 52.48677248677249,143.70370370370372 51.851851851851855,143.2804232804233 51.42857142857143,142.85714285714286 51.00529100529101,142.43386243386246 50.58201058201058,142.01058201058203 50.158730158730165,141.5873015873016 49.73544973544974,141.16402116402116 49.31216931216932,140.52910052910053 48.88888888888889,140.10582010582013 48.46560846560847,139.47089947089947 48.25396825396826,138.83597883597884 47.830687830687836,138.41269841269843 47.40740740740741,137.7777777777778 47.40740740740741,137.14285714285717 47.40740740740741,136.5079365079365 47.40740740740741,135.87301587301587 47.40740740740741,135.23809523809524 47.61904761904762,134.6031746031746 47.61904761904762,133.96825396825398 47.830687830687836,133.33333333333334 48.042328042328045,132.6984126984127 48.042328042328045,132.06349206349208 48.25396825396826,131.42857142857144 48.46560846560847,130.7936507936508 48.46560846560847,130.15873015873018 48.677248677248684,129.52380952380955 48.88888888888889,128.88888888888889 49.1005291005291,128.25396825396825 49.31216931216932,127.61904761904763 49.31216931216932,126.98412698412699 49.73544973544974,126.56084656084657 49.94708994708995,125.92592592592594 50.158730158730165,125.2910052910053 50.370370370370374,124.65608465608466 50.7936507936508,124.02116402116403 51.00529100529101,123.3862433862434 51.21693121693122,122.75132275132276 51.640211640211646,122.11640211640213 51.851851851851855,121.4814814814815 52.27513227513228,120.84656084656086 52.48677248677249,120.21164021164022 52.91005291005291,119.57671957671958 53.333333333333336,118.94179894179895 53.54497354497355,118.30687830687832 53.75661375661376,117.67195767195768 54.179894179894184,117.03703703703705 54.39153439153439,116.4021164021164 54.60317460317461,115.76719576719577 54.60317460317461,115.13227513227514 54.60317460317461,114.49735449735451 54.60317460317461,113.86243386243387 54.60317460317461,113.22751322751324 54.39153439153439,112.5925925925926 54.179894179894184,111.95767195767196 53.75661375661376,111.32275132275133 53.333333333333336,110.6878306878307 52.91005291005291,110.05291005291006 52.48677248677249,109.62962962962963 51.851851851851855,109.20634920634922 51.42857142857143,108.78306878306879 50.7936507936508,108.57142857142858 50.158730158730165,108.35978835978837 49.523809523809526,107.93650793650795 48.88888888888889,107.72486772486774 48.25396825396826,107.72486772486774 47.61904761904762,107.51322751322752 46.98412698412699,107.51322751322752 46.349206349206355,107.51322751322752 45.714285714285715,107.51322751322752 45.07936507936508,107.3015873015873 44.44444444444445,107.3015873015873 43.80952380952381,107.51322751322752 43.17460317460318,107.51322751322752 42.539682539682545,107.51322751322752 41.904761904761905,107.51322751322752 41.26984126984127,107.72486772486774 40.63492063492064,107.72486772486774 40.0,107.72486772486774 39.36507936507937,107.93650793650795 38.730158730158735,107.93650793650795 38.095238095238095,108.14814814814815 37.46031746031746,108.35978835978837 36.82539682539683,108.57142857142858 36.19047619047619,108.57142857142858 35.55555555555556,108.78306878306879 34.920634920634924,108.78306878306879 34.28571428571429,108.994708994709 33.65079365079365,109.20634920634922 33.01587301587302,109.20634920634922 32.38095238095239,109.41798941798943 31.746031746031747,109.62962962962963 31.111111111111114,109.62962962962963 30.476190476190478,109.84126984126985 29.841269841269842,110.05291005291006 29.20634920634921,110.05291005291006 28.571428571428573,110.26455026455027 27.93650793650794,110.47619047619048 27.301587301587304,110.47619047619048 26.666666666666668,110.6878306878307 26.031746031746035,110.89947089947091 25.3968253968254,111.11111111111111 24.761904761904763,111.11111111111111 24.12698412698413,111.32275132275133 23.492063492063494,111.53439153439155 22.857142857142858,111.74603174603176 22.222222222222225,111.95767195767196 21.58730158730159,111.95767195767196 20.952380952380953,112.16931216931218 20.31746031746032,112.3809523809524 19.682539682539684,112.5925925925926 19.047619047619047,112.80423280423281 18.412698412698415,112.80423280423281 17.77777777777778,113.01587301587303 17.142857142857146,113.22751322751324 16.50793650793651,113.43915343915344 15.873015873015873,113.65079365079366 15.238095238095239,113.86243386243387 14.603174603174605,114.07407407407408 11.640211640211641,114.92063492063492" style="fill:none; stroke:#00aa99; stroke-width:1.0"  /><polyline points="11.640211640211641,114.92063492063492 10.15873015873016,111.74603174603176 9.947089947089948,111.11111111111111 9.735449735449736,110.47619047619048 9.312169312169313,109.84126984126985 9.100529100529101,109.20634920634922 8.88888888888889,108.57142857142858 8.677248677248677,107.93650793650795 8.465608465608467,107.3015873015873 8.042328042328043,106.66666666666667 7.830687830687832,106.03174603174604 7.6190476190476195,105.3968253968254 7.195767195767196,104.76190476190477 6.984126984126985,104.12698412698414 6.560846560846561,103.70370370370371 6.34920634920635,103.06878306878308 5.9259259259259265,102.43386243386244 5.714285714285714,101.79894179894181 5.502645502645503,101.16402116402116 5.07936507936508,100.52910052910053 4.867724867724868,99.8941798941799 4.656084656084657,99.25925925925927 4.2328042328042335,98.62433862433863 4.021164021164021,97.989417989418 3.8095238095238098,97.35449735449737 3.3862433862433865,96.71957671957672 3.174603174603175,96.08465608465609 2.9629629629629632,95.44973544973546 2.7513227513227516,94.81481481481482 2.53968253968254,94.17989417989419 2.3280423280423284,93.54497354497356 2.1164021164021167,92.91005291005291 1.9047619047619049,92.27513227513228 1.6931216931216932,91.64021164021165 1.4814814814814816,91.00529100529101 1.4814814814814816,90.37037037037038 1.26984126984127,89.73544973544975 1.0582010582010584,89.1005291005291 1.0582010582010584,88.46560846560847 0.8465608465608466,87.83068783068784 0.8465608465608466,87.1957671957672 0.634920634920635,86.56084656084657 0.634920634920635,85.92592592592594 0.634920634920635,85.29100529100529 0.4232804232804233,84.65608465608466 0.4232804232804233,84.02116402116403 0.4232804232804233,83.3862433862434 0.4232804232804233,82.75132275132276 0.21164021164021166,82.11640211640213 0.21164021164021166,81.48148148148148 0.21164021164021166,80.84656084656085 0.21164021164021166,80.21164021164022 0.21164021164021166,79.57671957671958 0.21164021164021166,78.94179894179895 0.21164021164021166,78.30687830687832 0.21164021164021166,77.67195767195767 0.21164021164021166,77.03703703703704 0.21164021164021166,76.4021164021164 0.21164021164021166,75.76719576719577 0.4232804232804233,75.13227513227514 0.634920634920635,74.49735449735451 0.634920634920635,73.86243386243387 0.8465608465608466,73.22751322751323 1.26984126984127,72.5925925925926 1.4814814814814816,71.95767195767196 1.9047619047619049,71.53439153439155 2.3280423280423284,70.8994708994709 2.7513227513227516,70.47619047619048 3.174603174603175,69.84126984126985 3.8095238095238098,69.41798941798942 4.444444444444445,69.20634920634922 5.07936507936508,68.994708994709 5.714285714285714,68.78306878306879 6.34920634920635,68.78306878306879 6.984126984126985,68.57142857142858 7.6190476190476195,68.57142857142858 8.253968253968255,68.78306878306879 8.88888888888889,68.78306878306879 9.523809523809524,68.994708994709 10.15873015873016,68.994708994709 10.793650793650794,69.41798941798942 11.428571428571429,69.62962962962963 12.063492063492065,69.84126984126985 12.6984126984127,70.05291005291006 13.333333333333334,70.26455026455027 13.96825396825397,70.6878306878307 14.603174603174605,70.8994708994709 15.238095238095239,71.11111111111111 15.873015873015873,71.32275132275133 16.50793650793651,71.53439153439155 17.142857142857146,71.74603174603175 17.77777777777778,71.95767195767196 18.412698412698415,72.16931216931218 19.047619047619047,72.38095238095238 19.682539682539684,72.38095238095238 20.31746031746032,72.5925925925926 20.952380952380953,72.5925925925926 21.58730158730159,72.80423280423281 22.222222222222225,73.01587301587303 22.857142857142858,73.01587301587303 23.492063492063494,73.01587301587303 24.12698412698413,73.22751322751323 24.761904761904763,73.22751322751323 25.3968253968254,73.22751322751323 26.031746031746035,73.22751322751323 26.666666666666668,73.22751322751323 27.301587301587304,73.22751322751323 27.93650793650794,73.22751322751323 28.571428571428573,73.22751322751323 29.20634920634921,73.01587301587303 29.841269841269842,73.01587301587303 30.476190476190478,73.01587301587303 31.111111111111114,72.80423280423281 31.746031746031747,72.80423280423281 32.38095238095239,72.5925925925926 33.01587301587302,72.5925925925926 33.65079365079365,72.38095238095238 34.28571428571429,72.16931216931218 34.920634920634924,71.95767195767196 35.55555555555556,71.74603174603175 36.19047619047619,71.53439153439155 36.82539682539683,71.11111111111111 37.46031746031746,70.8994708994709 38.095238095238095,70.47619047619048 38.51851851851852,70.05291005291006 39.15343915343916,69.62962962962963 39.78835978835979,69.20634920634922 40.211640211640216,68.57142857142858 40.63492063492064,68.14814814814815 41.26984126984127,67.72486772486774 41.6931216931217,67.3015873015873 42.11640211640212,66.87830687830689 42.539682539682545,66.24338624338625 42.96296296296297,65.82010582010582 43.386243386243386,65.18518518518519 43.5978835978836,64.55026455026456 44.021164021164026,64.12698412698413 44.44444444444445,63.70370370370371 44.65608465608466,63.06878306878308 45.07936507936508,62.43386243386244 45.29100529100529,61.798941798941804 45.50264550264551,61.16402116402117 45.714285714285715,60.52910052910053 45.92592592592593,59.8941798941799 46.13756613756614,59.25925925925927 46.349206349206355,58.62433862433863 46.560846560846564,57.989417989417994 46.560846560846564,57.35449735449736 46.77248677248678,56.71957671957672 46.77248677248678,56.08465608465609 46.77248677248678,55.449735449735456 46.98412698412699,54.81481481481482 46.98412698412699,54.179894179894184 46.98412698412699,53.54497354497355 46.98412698412699,52.91005291005291 46.98412698412699,52.27513227513228 46.77248677248678,51.640211640211646 46.77248677248678,51.00529100529101 46.560846560846564,50.370370370370374 46.560846560846564,49.73544973544974 46.13756613756614,49.1005291005291 46.13756613756614,48.46560846560847 45.92592592592593,47.830687830687836 45.714285714285715,47.195767195767196 45.50264550264551,46.560846560846564 45.07936507936508,45.92592592592593 44.867724867724874,45.29100529100529 44.65608465608466,44.65608465608466 44.232804232804234,44.021164021164026 44.021164021164026,43.386243386243386 43.5978835978836,42.96296296296297 43.17460317460318,42.32804232804233 42.75132275132275,41.6931216931217 42.32804232804233,41.26984126984127 41.904761904761905,40.84656084656085 41.48148148148149,40.211640211640216 41.058201058201064,39.78835978835979 40.63492063492064,39.36507936507937 40.0,38.94179894179894 39.57671957671958,38.51851851851852 39.15343915343916,38.095238095238095 38.51851851851852,37.67195767195768 38.095238095238095,37.248677248677254 37.46031746031746,37.03703703703704 36.82539682539683,36.82539682539683 36.19047619047619,36.402116402116405 35.55555555555556,35.97883597883598 34.920634920634924,35.76719576719577 34.28571428571429,35.34391534391535 33.65079365079365,35.13227513227513 33.01587301587302,34.920634920634924 32.38095238095239,34.70899470899471 31.746031746031747,34.4973544973545 31.111111111111114,34.28571428571429 30.476190476190478,34.28571428571429 29.841269841269842,34.074074074074076 29.20634920634921,33.86243386243387 28.571428571428573,33.86243386243387 27.93650793650794,33.65079365079365 27.301587301587304,33.65079365079365 26.666666666666668,33.43915343915344 26.031746031746035,33.43915343915344 25.3968253968254,33.43915343915344 24.761904761904763,33.43915343915344 24.12698412698413,33.43915343915344 23.492063492063494,33.65079365079365 22.857142857142858,33.86243386243387 22.222222222222225,34.074074074074076 21.58730158730159,34.28571428571429 20.952380952380953,34.28571428571429 20.31746031746032,34.4973544973545 19.682539682539684,34.70899470899471 19.047619047619047,34.920634920634924 18.412698412698415,35.13227513227513 17.77777777777778,35.13227513227513 17.142857142857146,35.13227513227513 16.50793650793651,35.13227513227513 15.873015873015873,35.13227513227513 15.238095238095239,34.920634920634924 14.603174603174605,34.70899470899471 13.96825396825397,34.4973544973545 13.333333333333334,34.28571428571429 12.6984126984127,33.86243386243387 12.063492063492065,33.65079365079365 11.640211640211641,33.22751322751323 11.216931216931219,32.804232804232804 10.793650793650794,32.38095238095239 10.582010582010582,31.746031746031747 10.370370370370372,31.111111111111114 10.15873015873016,30.476190476190478 10.15873015873016,29.841269841269842 10.15873015873016,29.20634920634921 10.15873015873016,28.571428571428573 10.15873015873016,27.93650793650794 10.15873015873016,27.301587301587304 10.15873015873016,26.666666666666668 10.15873015873016,26.031746031746035 10.15873015873016,25.3968253968254 10.15873015873016,24.761904761904763 10.15873015873016,24.12698412698413 10.15873015873016,23.492063492063494 10.370370370370372,22.857142857142858 10.370370370370372,22.222222222222225 10.582010582010582,21.58730158730159 10.582010582010582,20.952380952380953 10.582010582010582,20.31746031746032 10.793650793650794,19.682539682539684 10.582010582010582,19.047619047619047 10.793650793650794,18.412698412698415 11.005291005291006,17.77777777777778 11.005291005291006,17.142857142857146 11.216931216931219,16.50793650793651 11.216931216931219,15.873015873015873 11.428571428571429,15.238095238095239 11.640211640211641,14.603174603174605 11.640211640211641,13.96825396825397 11.851851851851853,13.333333333333334 12.063492063492065,12.6984126984127 12.275132275132275,12.063492063492065 12.275132275132275,11.428571428571429 12.486772486772487,10.793650793650794 12.6984126984127,10.15873015873016 12.6984126984127,9.523809523809524 13.121693121693122,8.88888888888889 13.121693121693122,8.253968253968255 13.333333333333334,7.6190476190476195 13.544973544973546,6.984126984126985 13.756613756613758,6.34920634920635 13.96825396825397,5.714285714285714 14.17989417989418,5.07936507936508 14.391534391534393,4.444444444444445 14.603174603174605,3.8095238095238098 14.814814814814817,3.174603174603175 15.873015873015873,-0.21164021164021166" style="fill:none; stroke:#3300bb; stroke-width:1.0"  /><circle cx="15.873015873015873" cy="-0.21164021164021166" r="2.0" style="fill:none; stroke:#000000aa; stroke-width:0.25" /><circle cx="148.57142857142858" cy="10.582010582010582" r="2.0" style="fill:none; stroke:#000000aa; stroke-width:0.25" /><circle cx="148.78306878306879" cy="136.2962962962963" r="2.0" style="fill:none; stroke:#000000aa; stroke-width:0.25" /><circle cx="11.640211640211641" cy="114.92063492063492" r="2.0" style="fill:none; stroke:#000000aa; stroke-width:0.25" /><circle cx="16.50793650793651" cy="0.4232804232804233" r="2.0" style="fill:none; stroke:#ff3366aa; stroke-width:0.25" /><circle cx="148.78306878306879" cy="11.005291005291006" r="2.0" style="fill:none; stroke:#ff3366aa; stroke-width:0.25" /><circle cx="148.35978835978838" cy="134.81481481481484" r="2.0" style="fill:none; stroke:#ff3366aa; stroke-width:0.25" /><circle cx="11.428571428571429" cy="114.70899470899472" r="2.0" style="fill:none; stroke:#ff3366aa; stroke-width:0.25" /><polyline points="27.93650793650794,1.6931216931216932 27.301587301587304,1.4814814814814816 26.666666666666668,1.4814814814814816 26.031746031746035,1.26984126984127 25.3968253968254,1.26984126984127 24.761904761904763,1.0582010582010584 24.12698412698413,1.0582010582010584 23.492063492063494,1.0582010582010584 22.857142857142858,0.8465608465608466 22.222222222222225,0.8465608465608466 21.58730158730159,0.634920634920635 20.952380952380953,0.4232804232804233 20.31746031746032,0.4232804232804233 19.682539682539684,0.4232804232804233" style="fill:none; stroke:#001100; stroke-width:1.0" /><polyline points="12.275132275132275,11.428571428571429 12.486772486772487,10.793650793650794 12.6984126984127,10.15873015873016 12.6984126984127,9.523809523809524 13.121693121693122,8.88888888888889 13.121693121693122,8.253968253968255 13.333333333333334,7.6190476190476195 13.544973544973546,6.984126984126985 13.756613756613758,6.34920634920635 13.96825396825397,5.714285714285714 14.17989417989418,5.07936507936508 14.391534391534393,4.444444444444445 14.603174603174605,3.8095238095238098 14.814814814814817,3.174603174603175" style="fill:none; stroke:#000011; stroke-width:1.0" /><polyline points="148.99470899470901,22.433862433862437 148.99470899470901,21.7989417989418 148.78306878306879,21.164021164021165 148.78306878306879,20.529100529100532 148.78306878306879,19.894179894179896 148.78306878306879,19.25925925925926 148.78306878306879,18.624338624338627 148.57142857142858,17.98941798941799 148.57142857142858,17.354497354497354 148.57142857142858,16.71957671957672 148.57142857142858,16.084656084656086 148.57142857142858,15.449735449735451 148.78306878306879,14.814814814814817 148.78306878306879,14.17989417989418" style="fill:none; stroke:#001100; stroke-width:1.0" /><polyline points="137.56613756613757,8.88888888888889 138.2010582010582,8.88888888888889 138.83597883597884,9.100529100529101 139.47089947089947,9.312169312169313 140.10582010582013,9.312169312169313 140.74074074074076,9.523809523809524 141.3756613756614,9.735449735449736 142.01058201058203,9.735449735449736 142.64550264550266,9.947089947089948 143.2804232804233,9.947089947089948 143.91534391534393,9.947089947089948 144.55026455026456,9.947089947089948 145.1851851851852,9.947089947089948 145.82010582010582,10.15873015873016" style="fill:none; stroke:#000011; stroke-width:1.0" /><polyline points="136.93121693121694,132.6984126984127 137.56613756613757,132.9100529100529 138.2010582010582,133.12169312169314 138.83597883597884,133.33333333333334 139.47089947089947,133.54497354497354 140.10582010582013,133.75661375661377 140.74074074074076,133.96825396825398 141.3756613756614,134.17989417989418 142.01058201058203,134.3915343915344 142.64550264550266,134.6031746031746 143.2804232804233,134.6031746031746 143.91534391534393,134.81481481481484 144.55026455026456,135.02645502645504 145.1851851851852,135.23809523809524" style="fill:none; stroke:#001100; stroke-width:1.0" /><polyline points="153.01587301587304,123.80952380952382 152.8042328042328,124.44444444444446 152.5925925925926,125.07936507936509 152.38095238095238,125.71428571428572 152.16931216931218,126.34920634920636 151.95767195767198,126.98412698412699 151.74603174603175,127.61904761904763 151.53439153439155,128.25396825396825 151.53439153439155,128.88888888888889 151.32275132275134,129.52380952380955 151.11111111111111,130.15873015873018 150.8994708994709,130.7936507936508 150.6878306878307,131.42857142857144 150.26455026455028,132.06349206349208" style="fill:none; stroke:#000011; stroke-width:1.0" /><polyline points="6.560846560846561,103.70370370370371 6.984126984126985,104.12698412698414 7.195767195767196,104.76190476190477 7.6190476190476195,105.3968253968254 7.830687830687832,106.03174603174604 8.042328042328043,106.66666666666667 8.465608465608467,107.3015873015873 8.677248677248677,107.93650793650795 8.88888888888889,108.57142857142858 9.100529100529101,109.20634920634922 9.312169312169313,109.84126984126985 9.735449735449736,110.47619047619048 9.947089947089948,111.11111111111111 10.15873015873016,111.74603174603176" style="fill:none; stroke:#001100; stroke-width:1.0" /><polyline points="22.857142857142858,111.74603174603176 22.222222222222225,111.95767195767196 21.58730158730159,111.95767195767196 20.952380952380953,112.16931216931218 20.31746031746032,112.3809523809524 19.682539682539684,112.5925925925926 19.047619047619047,112.80423280423281 18.412698412698415,112.80423280423281 17.77777777777778,113.01587301587303 17.142857142857146,113.22751322751324 16.50793650793651,113.43915343915344 15.873015873015873,113.65079365079366 15.238095238095239,113.86243386243387 14.603174603174605,114.07407407407408" style="fill:none; stroke:#000011; stroke-width:1.0" /><polyline points="19.682539682539684,0.4232804232804233 -1.26984126984127,-2.7513227513227516" style="fill:none; stroke:#ffaa00; stroke-width:0.4" /><polyline points="14.814814814814817,3.174603174603175 20.952380952380953,-17.142857142857146" style="fill:none; stroke:#aaff00; stroke-width:0.4" /><polyline points="148.78306878306879,14.17989417989418 148.14814814814815,-6.984126984126985" style="fill:none; stroke:#ffaa00; stroke-width:0.4" /><polyline points="145.82010582010582,10.15873015873016 166.7724867724868,13.333333333333334" style="fill:none; stroke:#aaff00; stroke-width:0.4" /><polyline points="145.1851851851852,135.23809523809524 165.50264550264552,141.3756613756614" style="fill:none; stroke:#ffaa00; stroke-width:0.4" /><polyline points="150.26455026455028,132.06349206349208 143.4920634920635,152.16931216931218" style="fill:none; stroke:#aaff00; stroke-width:0.4" /><polyline points="10.15873015873016,111.74603174603176 18.83597883597884,131.005291005291" style="fill:none; stroke:#ffaa00; stroke-width:0.4" /><polyline points="14.603174603174605,114.07407407407408 -5.714285714285714,119.7883597883598" style="fill:none; stroke:#aaff00; stroke-width:0.4" /><circle cx="82.32804232804233" cy="70.47619047619048" r="1.0" style="fill:#444444; stroke-width:0" /><circle cx="77.67195767195767" cy="77.46031746031747" r="10.582010582010582" style="fill:#ff770022; stroke-width:0" /><circle cx="77.67195767195767" cy="77.46031746031747" r="1.0" style="fill:#ff7700; stroke-width:0" /></svg>