<?xml version="1.0" encoding="UTF-8" standalone="no"?><svg width="578.4126984126984" height="633.015873015873" viewBox="-10 -10 212.8042328042328 231.005291005291" xmlns="http://www.w3.org/2000/svg" xmlns:xlink="http://www.w3.org/1999/xlink"><polyline points="90.58201058201058,-0.21164021164021166 92.27513227513228,3.174603174603175 92.69841269841271,3.8095238095238098 92.91005291005291,4.444444444444445 93.33333333333334,5.07936507936508 93.54497354497356,5.714285714285714 93.75661375661376,6.34920634920635 94.17989417989419,6.772486772486773 94.39153439153439,7.407407407407408 94.81481481481482,8.042328042328043 95.02645502645504,8.677248677248677 95.44973544973546,9.312169312169313 95.66137566137567,9.947089947089948 96.08465608465609,10.582010582010582 96.50793650793652,11.216931216931219 96.71957671957672,11.851851851851853 97.14285714285715,12.275132275132275 97.35449735449737,12.910052910052912 97.77777777777779,13.333333333333334 97.989417989418,13.96825396825397 98.41269841269842,14.391534391534393 98.83597883597885,15.026455026455027 99.25925925925927,15.661375661375663 99.47089947089948,16.296296296296298 99.8941798941799,16.71957671957672 100.31746031746033,17.354497354497354 100.74074074074075,17.77777777777778 101.16402116402116,18.412698412698415 101.5873015873016,19.047619047619047 102.01058201058201,19.682539682539684 102.43386243386244,20.31746031746032 102.85714285714286,20.740740740740744 103.28042328042329,21.375661375661377 103.70370370370371,22.010582010582013 104.12698412698414,22.645502645502646 104.76190476190477,23.06878306878307 105.18518518518519,23.492063492063494 105.60846560846562,23.915343915343918 106.03174603174604,24.338624338624342 106.45502645502647,24.761904761904763 106.87830687830689,25.3968253968254 107.3015873015873,25.820105820105823 107.72486772486774,26.243386243386244 108.14814814814815,26.87830687830688 108.57142857142858,27.301587301587304 108.994708994709,27.724867724867728 109.41798941798943,28.14814814814815 109.84126984126985,28.783068783068785 110.26455026455027,29.20634920634921 110.6878306878307,29.629629629629633 111.11111111111111,30.052910052910054 111.53439153439155,30.476190476190478 111.95767195767196,31.111111111111114 112.3809523809524,31.53439153439154 112.80423280423281,31.95767195767196 113.22751322751324,32.38095238095239 113.65079365079366,33.01587301587302 114.07407407407408,33.43915343915344 114.49735449735451,33.86243386243387 114.92063492063492,34.4973544973545 115.34391534391536,34.920634920634924 115.76719576719577,35.34391534391535 116.1904761904762,35.76719576719577 116.61375661375662,36.19047619047619 117.03703703703705,36.613756613756614 117.46031746031747,37.03703703703704 117.88359788359789,37.46031746031746 118.30687830687832,37.883597883597886 118.73015873015873,38.30687830687831 119.15343915343917,38.730158730158735 119.57671957671958,39.15343915343916 120.00000000000001,39.57671957671958 120.42328042328043,40.0 120.84656084656086,40.423280423280424 121.26984126984128,40.84656084656085 121.6931216931217,41.26984126984127 122.11640211640213,41.6931216931217 122.53968253968254,42.11640211640212 123.17460317460318,42.539682539682545 123.59788359788361,42.96296296296297 124.02116402116403,43.386243386243386 124.44444444444446,43.80952380952381 125.07936507936509,44.232804232804234 125.5026455026455,44.65608465608466 125.92592592592594,45.07936507936508 126.34920634920636,45.50264550264551 126.98412698412699,45.92592592592593 127.40740740740742,46.349206349206355 127.83068783068784,46.77248677248678 128.46560846560848,47.195767195767196 128.88888888888889,47.61904761904762 129.52380952380955,48.042328042328045 129.94708994708995,48.46560846560847 130.37037037037038,48.88888888888889 131.005291005291,49.31216931216932 131.64021164021165,49.73544973544974 132.27513227513228,50.158730158730165 132.6984126984127,50.58201058201058 133.12169312169314,51.00529100529101 133.75661375661377,51.42857142857143 134.17989417989418,51.851851851851855 134.6031746031746,52.27513227513228 135.23809523809524,52.6984126984127 135.66137566137567,53.12169312169313 136.2962962962963,53.54497354497355 136.71957671957674,53.968253968253975 137.35449735449737,54.39153439153439 137.989417989418,54.81481481481482 138.62433862433863,55.23809523809524 139.25925925925927,55.661375661375665 139.8941798941799,55.87301587301588 140.52910052910053,56.08465608465609 141.16402116402116,56.2962962962963 141.7989417989418,56.71957671957672 142.43386243386246,56.93121693121694 143.0687830687831,57.142857142857146 143.70370370370372,57.35449735449736 144.33862433862436,57.56613756613757 144.973544973545,57.56613756613757 145.60846560846562,57.777777777777786 146.24338624338625,57.777777777777786 146.8783068783069,57.777777777777786 147.51322751322752,57.777777777777786 148.14814814814815,57.777777777777786 148.78306878306879,57.56613756613757 149.41798941798942,57.35449735449736 150.05291005291005,57.142857142857146 150.6878306878307,56.93121693121694 151.11111111111111,56.50793650793651 151.53439153439155,56.08465608465609 151.95767195767198,55.661375661375665 152.38095238095238,55.02645502645503 152.8042328042328,54.39153439153439 153.01587301587304,53.75661375661376 153.22751322751324,53.12169312169313 153.43915343915344,52.48677248677249 153.65079365079367,51.851851851851855 153.86243386243387,51.21693121693122 154.07407407407408,50.58201058201058 154.2857142857143,49.94708994708995 154.2857142857143,49.31216931216932 154.2857142857143,48.677248677248684 154.4973544973545,48.042328042328045 154.4973544973545,47.40740740740741 154.4973544973545,46.77248677248678 154.7089947089947,46.13756613756614 154.92063492063494,45.50264550264551 154.92063492063494,44.867724867724874 154.92063492063494,44.232804232804234 155.13227513227514,43.5978835978836 155.34391534391534,42.96296296296297 155.34391534391534,42.32804232804233 155.55555555555557,41.6931216931217 155.76719576719577,41.058201058201064 155.978835978836,40.423280423280424 156.4021164021164,39.78835978835979 156.4021164021164,39.15343915343916 156.61375661375664,38.51851851851852 157.03703703703704,37.883597883597886 157.24867724867727,37.248677248677254 157.67195767195767,36.613756613756614 158.0952380952381,35.97883597883598 158.51851851851853,35.34391534391535 158.94179894179896,34.70899470899471 159.36507936507937,34.074074074074076 159.7883597883598,33.65079365079365 160.21164021164023,33.01587301587302 160.63492063492066,32.38095238095239 161.05820105820106,31.95767195767196 161.4814814814815,31.53439153439154 161.90476190476193,31.111111111111114 162.32804232804233,30.68783068783069 162.96296296296296,30.264550264550266 163.59788359788362,29.841269841269842 164.23280423280426,29.41798941798942 164.8677248677249,29.20634920634921 165.50264550264552,28.994708994708997 166.13756613756615,28.783068783068785 166.7724867724868,28.783068783068785 167.40740740740742,28.783068783068785 168.04232804232805,28.994708994708997 168.67724867724868,28.994708994708997 169.31216931216932,29.20634920634921 169.94708994708995,29.20634920634921 170.58201058201058,29.41798941798942 171.21693121693124,29.629629629629633 171.85185185185188,29.841269841269842 172.4867724867725,29.841269841269842 173.12169312169314,30.264550264550266 173.75661375661377,30.264550264550266 174.3915343915344,30.476190476190478 174.81481481481484,30.899470899470902 175.44973544973547,31.111111111111114 176.0846560846561,31.111111111111114 176.71957671957674,31.53439153439154 177.14285714285717,31.95767195767196 177.7777777777778,32.16931216931217 178.41269841269843,32.38095238095239 179.04761904761907,32.804232804232804 179.6825396825397,33.22751322751323 180.31746031746033,33.65079365079365 180.95238095238096,34.074074074074076 181.5873015873016,34.4973544973545 182.22222222222223,34.920634920634924 182.64550264550266,35.34391534391535 183.2804232804233,35.76719576719577 183.70370370370372,36.19047619047619 184.12698412698415,36.613756613756614 184.55026455026456,37.03703703703704 184.973544973545,37.46031746031746 185.60846560846562,37.883597883597886 186.03174603174605,38.51851851851852 186.45502645502646,38.94179894179894 186.8783068783069,39.36507936507937 187.30158730158732,39.78835978835979 187.72486772486775,40.423280423280424 188.14814814814815,41.058201058201064 188.57142857142858,41.6931216931217 188.99470899470901,42.32804232804233 189.41798941798945,42.96296296296297 189.84126984126985,43.5978835978836 190.05291005291008,44.232804232804234 190.26455026455028,44.867724867724874 190.6878306878307,45.50264550264551 190.8994708994709,46.13756613756614 191.11111111111111,46.77248677248678 191.32275132275134,47.40740740740741 191.74603174603175,48.042328042328045 191.95767195767198,48.677248677248684 191.95767195767198,49.31216931216932 192.16931216931218,49.94708994708995 192.3809523809524,50.58201058201058 192.3809523809524,51.21693121693122 192.3809523809524,51.851851851851855 192.3809523809524,52.48677248677249 192.3809523809524,53.12169312169313 192.16931216931218,53.75661375661376 191.95767195767198,54.39153439153439 191.95767195767198,55.02645502645503 191.53439153439155,55.661375661375665 191.32275132275134,56.2962962962963 190.8994708994709,56.93121693121694 190.6878306878307,57.56613756613757 190.26455026455028,58.2010582010582 189.84126984126985,58.83597883597884 189.41798941798945,59.25925925925927 188.99470899470901,59.682539682539684 188.35978835978838,60.10582010582011 187.72486772486775,60.52910052910053 187.30158730158732,60.952380952380956 186.66666666666669,61.16402116402117 186.24338624338625,61.58730158730159 185.60846560846562,61.798941798941804 184.973544973545,62.22222222222223 184.33862433862436,62.43386243386244 183.70370370370372,62.64550264550265 183.0687830687831,62.85714285714286 182.43386243386246,63.280423280423285 181.79894179894183,63.492063492063494 181.16402116402116,63.70370370370371 180.52910052910053,63.91534391534392 179.8941798941799,64.12698412698413 179.25925925925927,64.33862433862434 178.62433862433863,64.55026455026456 177.989417989418,64.76190476190477 177.35449735449737,64.97354497354497 176.71957671957674,65.18518518518519 176.0846560846561,65.3968253968254 175.66137566137567,65.82010582010582 175.02645502645504,66.03174603174604 174.3915343915344,66.24338624338625 173.75661375661377,66.45502645502646 173.12169312169314,66.66666666666667 172.6984126984127,67.08994708994709 172.06349206349208,67.3015873015873 171.42857142857144,67.72486772486774 170.7936507936508,68.14814814814815 170.15873015873018,68.57142857142858 169.52380952380955,68.994708994709 169.10052910052912,69.41798941798942 168.67724867724868,69.84126984126985 168.25396825396825,70.26455026455027 167.61904761904762,70.6878306878307 167.19576719576722,71.11111111111111 166.7724867724868,71.53439153439155 166.34920634920636,71.95767195767196 165.92592592592595,72.5925925925926 165.50264550264552,73.01587301587303 165.0793650793651,73.65079365079366 164.65608465608466,74.28571428571429 164.23280423280426,74.92063492063492 164.02116402116403,75.55555555555556 163.80952380952382,76.19047619047619 163.3862433862434,76.82539682539684 163.1746031746032,77.46031746031747 162.96296296296296,78.0952380952381 162.96296296296296,78.73015873015873 162.75132275132276,79.36507936507937 162.75132275132276,80.0 162.75132275132276,80.63492063492065 162.75132275132276,81.26984126984128 162.75132275132276,81.90476190476191 162.75132275132276,82.53968253968254 162.96296296296296,83.17460317460318 162.96296296296296,83.80952380952381 163.1746031746032,84.44444444444446 163.1746031746032,85.07936507936509 163.3862433862434,85.71428571428572 163.59788359788362,86.34920634920636 163.59788359788362,86.98412698412699 163.80952380952382,87.61904761904762 164.23280423280426,88.25396825396827 164.44444444444446,88.8888888888889 164.65608465608466,89.52380952380953 164.8677248677249,90.15873015873017 165.2910052910053,90.58201058201058 165.50264550264552,91.21693121693123 165.92592592592595,91.64021164021165 166.13756613756615,92.27513227513228 166.7724867724868,92.69841269841271 166.984126984127,93.33333333333334 167.40740740740742,93.75661375661376 167.83068783068785,94.17989417989419 168.25396825396825,94.81481481481482 168.67724867724868,95.44973544973546 169.10052910052912,96.08465608465609 169.52380952380955,96.50793650793652 169.94708994708995,97.14285714285715 170.37037037037038,97.77777777777779 170.7936507936508,98.41269841269842 171.21693121693124,98.83597883597885 171.64021164021165,99.47089947089948 172.06349206349208,99.8941798941799 172.4867724867725,100.52910052910053 172.9100529100529,101.16402116402116 173.33333333333334,101.5873015873016 173.75661375661377,102.22222222222223 174.1798941798942,102.85714285714286 174.6031746031746,103.4920634920635 175.02645502645504,104.12698412698414 175.44973544973547,104.55026455026456 175.87301587301587,104.97354497354497 176.2962962962963,105.3968253968254 176.71957671957674,105.82010582010582 177.14285714285717,106.24338624338625 177.56613756613757,106.66666666666667 177.989417989418,107.0899470899471 178.41269841269843,107.72486772486774 178.83597883597884,108.14814814814815 181.3756613756614,111.11111111111111" style="fill:none; stroke:#cc0000; stroke-width:1.0"  /><polyline points="181.3756613756614,111.11111111111111 178.41269841269843,113.43915343915344 177.989417989418,113.86243386243387 177.56613756613757,114.28571428571429 176.93121693121694,114.70899470899472 176.50793650793653,115.13227513227514 176.0846560846561,115.55555555555557 175.66137566137567,115.97883597883599 175.23809523809524,116.4021164021164 174.6031746031746,116.82539682539684 174.1798941798942,117.24867724867725 173.54497354497354,117.67195767195768 172.9100529100529,118.0952380952381 172.4867724867725,118.51851851851853 171.85185185185188,118.94179894179895 171.42857142857144,119.36507936507937 170.7936507936508,119.7883597883598 170.15873015873018,120.21164021164022 169.52380952380955,120.63492063492065 169.10052910052912,121.05820105820106 168.46560846560848,121.4814814814815 168.04232804232805,121.90476190476191 167.40740740740742,122.32804232804234 166.7724867724868,122.75132275132276 166.13756613756615,123.17460317460318 165.50264550264552,123.59788359788361 164.8677248677249,124.02116402116403 164.44444444444446,124.44444444444446 163.80952380952382,124.65608465608466 163.3862433862434,125.07936507936509 162.75132275132276,125.5026455026455 162.11640211640213,125.92592592592594 161.4814814814815,126.34920634920636 160.84656084656086,126.77248677248679 160.21164021164023,127.1957671957672 159.7883597883598,127.61904761904763 159.15343915343917,127.83068783068784 158.51851851851853,128.25396825396825 157.8835978835979,128.67724867724868 157.24867724867727,129.10052910052912 156.61375661375664,129.52380952380955 155.978835978836,129.73544973544975 155.34391534391534,129.94708994708995 154.7089947089947,130.37037037037038 154.07407407407408,130.7936507936508 153.43915343915344,131.21693121693121 152.8042328042328,131.64021164021165 152.16931216931218,132.06349206349208 151.53439153439155,132.4867724867725 150.8994708994709,132.6984126984127 150.47619047619048,133.12169312169314 149.84126984126985,133.54497354497354 149.20634920634922,133.96825396825398 148.57142857142858,134.3915343915344 147.93650793650795,134.81481481481484 147.30158730158732,135.23809523809524 146.8783068783069,135.66137566137567 146.24338624338625,136.0846560846561 145.60846560846562,136.5079365079365 144.973544973545,136.93121693121694 144.55026455026456,137.35449735449737 143.91534391534393,137.7777777777778 143.4920634920635,138.2010582010582 142.85714285714286,138.62433862433863 142.22222222222223,139.04761904761907 141.5873015873016,139.47089947089947 141.16402116402116,139.8941798941799 140.74074074074076,140.31746031746033 140.31746031746033,140.74074074074076 139.6825396825397,141.16402116402116 139.25925925925927,141.5873015873016 138.83597883597884,142.01058201058203 138.2010582010582,142.43386243386246 137.7777777777778,142.85714285714286 137.14285714285717,143.2804232804233 136.71957671957674,143.70370370370372 136.0846560846561,144.12698412698413 135.66137566137567,144.55026455026456 135.23809523809524,144.973544973545 134.6031746031746,145.39682539682542 134.17989417989418,145.82010582010582 133.54497354497354,146.24338624338625 133.12169312169314,146.66666666666669 132.6984126984127,147.0899470899471 132.06349206349208,147.51322751322752 131.64021164021165,147.93650793650795 131.21693121693121,148.35978835978838 130.7936507936508,148.78306878306879 130.15873015873018,149.20634920634922 129.73544973544975,149.62962962962965 129.31216931216932,150.05291005291005 128.88888888888889,150.6878306878307 128.46560846560848,151.11111111111111 128.04232804232805,151.74603174603175 127.61904761904763,152.38095238095238 127.40740740740742,153.01587301587304 127.1957671957672,153.65079365079367 126.98412698412699,154.2857142857143 126.98412698412699,154.92063492063494 126.77248677248679,155.55555555555557 126.77248677248679,156.1904761904762 126.98412698412699,156.82539682539684 127.1957671957672,157.46031746031747 127.1957671957672,158.0952380952381 127.61904761904763,158.51851851851853 127.83068783068784,159.15343915343917 128.25396825396825,159.5767195767196 128.67724867724868,160.21164021164023 129.10052910052912,160.63492063492066 129.52380952380955,161.05820105820106 129.94708994708995,161.4814814814815 130.58201058201058,161.90476190476193 131.21693121693121,162.32804232804233 131.85185185185185,162.75132275132276 132.4867724867725,162.96296296296296 133.12169312169314,163.1746031746032 133.75661375661377,163.3862433862434 134.3915343915344,163.80952380952382 135.02645502645504,163.80952380952382 135.66137566137567,164.02116402116403 136.2962962962963,164.23280423280426 136.93121693121694,164.23280423280426 137.56613756613757,164.23280423280426 138.2010582010582,164.44444444444446 138.83597883597884,164.44444444444446 139.47089947089947,164.44444444444446 140.10582010582013,164.65608465608466 140.74074074074076,164.65608465608466 141.3756613756614,164.44444444444446 142.01058201058203,164.44444444444446 142.64550264550266,164.44444444444446 143.2804232804233,164.65608465608466 143.91534391534393,164.65608465608466 144.55026455026456,164.65608465608466 145.1851851851852,164.65608465608466 145.82010582010582,164.8677248677249 146.45502645502646,164.8677248677249 147.0899470899471,164.8677248677249 147.72486772486775,165.0793650793651 148.35978835978838,165.2910052910053 148.99470899470901,165.50264550264552 149.62962962962965,165.71428571428572 150.26455026455028,165.92592592592595 150.8994708994709,166.34920634920636 151.53439153439155,166.7724867724868 152.16931216931218,166.984126984127 152.5925925925926,167.40740740740742 153.22751322751324,167.83068783068785 153.65079365079367,168.25396825396825 154.07407407407408,168.67724867724868 154.4973544973545,169.10052910052912 154.92063492063494,169.52380952380955 155.34391534391534,169.94708994708995 155.76719576719577,170.58201058201058 156.1904761904762,171.005291005291 156.61375661375664,171.64021164021165 157.03703703703704,172.27513227513228 157.46031746031747,172.9100529100529 157.67195767195767,173.54497354497354 157.8835978835979,174.1798941798942 158.0952380952381,174.81481481481484 158.30687830687833,175.44973544973547 158.51851851851853,176.0846560846561 158.73015873015873,176.71957671957674 158.73015873015873,177.35449735449737 158.94179894179896,177.989417989418 158.94179894179896,178.62433862433863 158.94179894179896,179.25925925925927 158.94179894179896,179.8941798941799 158.94179894179896,180.52910052910053 158.94179894179896,181.16402116402116 158.73015873015873,181.79894179894183 158.73015873015873,182.43386243386246 158.73015873015873,183.0687830687831 158.51851851851853,183.70370370370372 158.0952380952381,184.33862433862436 157.67195767195767,184.973544973545 157.8835978835979,185.60846560846562 157.67195767195767,186.24338624338625 157.46031746031747,186.8783068783069 157.03703703703704,187.30158730158732 156.82539682539684,187.93650793650795 156.4021164021164,188.57142857142858 155.978835978836,189.20634920634922 155.55555555555557,189.84126984126985 155.13227513227514,190.47619047619048 154.7089947089947,191.11111111111111 154.2857142857143,191.53439153439155 153.86243386243387,192.16931216931218 153.43915343915344,192.5925925925926 153.01587301587304,193.22751322751324 152.5925925925926,193.65079365079367 152.16931216931218,194.2857142857143 151.74603174603175,194.70899470899474 151.32275132275134,195.13227513227514 150.8994708994709,195.55555555555557 150.47619047619048,195.978835978836 150.05291005291005,196.4021164021164 149.62962962962965,196.82539682539684 149.20634920634922,197.24867724867727 148.78306878306879,197.8835978835979 148.14814814814815,198.30687830687833 147.72486772486775,198.73015873015873 147.0899470899471,199.15343915343917 146.66666666666669,199.5767195767196 146.03174603174605,200.00000000000003 145.39682539682542,200.42328042328043 144.973544973545,200.84656084656086 144.33862433862436,201.05820105820106 143.91534391534393,201.4814814814815 143.2804232804233,201.6931216931217 142.64550264550266,202.11640211640213 142.01058201058203,202.32804232804233 141.3756613756614,202.75132275132276 140.74074074074076,202.962962962963 140.10582010582013,203.1746031746032 139.47089947089947,203.3862433862434 138.83597883597884,203.3862433862434 138.2010582010582,203.59788359788362 137.56613756613757,203.59788359788362 136.93121693121694,203.59788359788362 136.2962962962963,203.59788359788362 135.66137566137567,203.80952380952382 135.02645502645504,203.80952380952382 134.3915343915344,203.80952380952382 133.75661375661377,203.59788359788362 133.12169312169314,203.59788359788362 132.4867724867725,203.59788359788362 131.85185185185185,203.3862433862434 131.21693121693121,203.3862433862434 130.7936507936508,202.962962962963 130.15873015873018,202.962962962963 129.52380952380955,202.53968253968256 128.88888888888889,202.11640211640213 128.25396825396825,201.6931216931217 127.61904761904763,201.2698412698413 127.1957671957672,200.84656084656086 126.77248677248679,200.42328042328043 126.34920634920636,199.7883597883598 125.92592592592594,199.36507936507937 125.5026455026455,198.73015873015873 125.07936507936509,198.0952380952381 124.65608465608466,197.46031746031747 124.23280423280424,196.82539682539684 124.02116402116403,196.1904761904762 123.59788359788361,195.55555555555557 123.59788359788361,194.92063492063494 123.3862433862434,194.2857142857143 123.17460317460318,193.65079365079367 122.96296296296298,193.01587301587304 122.96296296296298,192.3809523809524 122.75132275132276,191.74603174603175 122.75132275132276,191.11111111111111 122.53968253968254,190.47619047619048 122.32804232804234,189.84126984126985 122.11640211640213,189.20634920634922 121.90476190476191,188.57142857142858 121.6931216931217,187.93650793650795 121.26984126984128,187.30158730158732 121.05820105820106,186.66666666666669 120.63492063492065,186.03174603174605 120.42328042328043,185.39682539682542 120.00000000000001,184.973544973545 119.57671957671958,184.33862433862436 119.15343915343917,183.70370370370372 118.73015873015873,183.0687830687831 118.30687830687832,182.64550264550266 117.88359788359789,182.01058201058203 117.46031746031747,181.5873015873016 117.03703703703705,181.16402116402116 116.61375661375662,180.74074074074076 115.97883597883599,180.31746031746033 115.55555555555557,179.8941798941799 114.92063492063492,179.6825396825397 114.28571428571429,179.25925925925927 113.65079365079366,179.04761904761907 113.01587301587303,178.83597883597884 112.3809523809524,178.62433862433863 111.74603174603176,178.62433862433863 111.11111111111111,178.62433862433863 110.47619047619048,178.62433862433863 109.84126984126985,178.62433862433863 109.20634920634922,178.83597883597884 108.57142857142858,179.04761904761907 107.93650793650795,179.4708994708995 107.3015873015873,179.6825396825397 106.87830687830689,180.10582010582013 106.24338624338625,180.52910052910053 105.82010582010582,180.95238095238096 105.3968253968254,181.3756613756614 104.97354497354497,181.79894179894183 104.55026455026456,182.22222222222223 104.12698412698414,182.85714285714286 103.70370370370371,183.2804232804233 103.4920634920635,183.91534391534393 103.06878306878308,184.33862433862436 102.85714285714286,184.973544973545 102.43386243386244,185.60846560846562 102.22222222222223,186.24338624338625 101.79894179894181,186.66666666666669 101.5873015873016,187.30158730158732 101.37566137566138,187.93650793650795 100.95238095238096,188.57142857142858 100.74074074074075,189.20634920634922 100.52910052910053,189.84126984126985 100.31746031746033,190.47619047619048 99.8941798941799,191.11111111111111 99.68253968253968,191.74603174603175 99.47089947089948,192.3809523809524 99.04761904761905,193.01587301587304 98.83597883597885,193.65079365079367 98.41269841269842,194.2857142857143 98.2010582010582,194.92063492063494 97.77777777777779,195.34391534391537 97.35449735449737,195.978835978836 97.14285714285715,196.61375661375664 96.71957671957672,197.03703703703704 96.50793650793652,197.6719576719577 96.08465608465609,198.30687830687833 95.66137566137567,198.94179894179896 95.23809523809524,199.5767195767196 95.02645502645504,200.21164021164023 94.60317460317461,200.63492063492066 94.17989417989419,201.2698412698413 93.75661375661376,201.90476190476193 93.33333333333334,202.53968253968256 92.91005291005291,203.1746031746032 92.4867724867725,203.80952380952382 92.06349206349208,204.44444444444446 91.64021164021165,205.0793650793651 91.21693121693123,205.71428571428572 90.7936507936508,206.34920634920636 90.37037037037038,206.984126984127 89.94708994708995,207.61904761904765 87.61904761904762,211.005291005291" style="fill:none; stroke:#999900; stroke-width:1.0"  /><polyline points="87.61904761904762,211.005291005291 85.07936507936509,208.8888888888889 84.44444444444446,208.46560846560848 84.02116402116403,208.04232804232805 83.59788359788361,207.61904761904765 82.96296296296298,207.19576719576722 82.32804232804233,206.7724867724868 81.90476190476191,206.34920634920636 81.26984126984128,205.92592592592595 80.84656084656085,205.50264550264552 80.42328042328043,205.0793650793651 79.7883597883598,204.65608465608466 79.36507936507937,204.23280423280426 78.94179894179895,203.80952380952382 78.30687830687832,203.3862433862434 77.88359788359789,202.962962962963 77.24867724867725,202.53968253968256 76.82539682539684,202.11640211640213 76.4021164021164,201.6931216931217 75.76719576719577,201.2698412698413 75.34391534391536,200.84656084656086 74.70899470899471,200.42328042328043 74.28571428571429,200.00000000000003 73.65079365079366,199.5767195767196 73.22751322751323,199.15343915343917 72.5925925925926,198.73015873015873 72.16931216931218,198.30687830687833 71.74603174603175,197.8835978835979 71.11111111111111,197.6719576719577 70.47619047619048,197.24867724867727 70.05291005291006,196.61375661375664 69.41798941798942,196.1904761904762 68.994708994709,195.76719576719577 68.57142857142858,195.34391534391537 68.14814814814815,194.92063492063494 67.72486772486774,194.4973544973545 67.3015873015873,194.07407407407408 66.87830687830689,193.65079365079367 66.45502645502646,193.22751322751324 66.03174603174604,192.8042328042328 65.60846560846561,192.3809523809524 65.18518518518519,191.95767195767198 64.76190476190477,191.53439153439155 64.33862433862434,191.11111111111111 63.91534391534392,190.47619047619048 63.492063492063494,190.05291005291008 63.06878306878308,189.62962962962965 62.64550264550265,189.20634920634922 62.22222222222223,188.78306878306879 61.798941798941804,188.35978835978838 61.37566137566138,187.93650793650795 60.952380952380956,187.51322751322752 60.52910052910053,186.8783068783069 60.10582010582011,186.45502645502646 59.682539682539684,186.03174603174605 59.25925925925927,185.60846560846562 58.83597883597884,185.1851851851852 58.41269841269842,184.55026455026456 57.989417989417994,184.12698412698415 57.56613756613757,183.70370370370372 57.142857142857146,183.2804232804233 56.71957671957672,182.85714285714286 56.2962962962963,182.43386243386246 55.87301587301588,182.01058201058203 55.449735449735456,181.5873015873016 55.02645502645503,181.16402116402116 54.60317460317461,180.74074074074076 54.179894179894184,180.31746031746033 53.75661375661376,179.8941798941799 53.333333333333336,179.4708994708995 52.91005291005291,179.04761904761907 52.48677248677249,178.62433862433863 52.06349206349207,178.2010582010582 51.42857142857143,177.7777777777778 51.00529100529101,177.35449735449737 50.58201058201058,176.93121693121694 49.94708994708995,176.50793650793653 49.523809523809526,176.0846560846561 48.88888888888889,175.66137566137567 48.46560846560847,175.23809523809524 47.830687830687836,174.81481481481484 47.195767195767196,174.3915343915344 46.77248677248678,173.96825396825398 46.13756613756614,173.54497354497354 45.714285714285715,173.12169312169314 45.29100529100529,172.6984126984127 44.867724867724874,172.27513227513228 44.44444444444445,171.64021164021165 44.232804232804234,171.005291005291 44.021164021164026,170.37037037037038 43.80952380952381,169.73544973544975 43.80952380952381,169.10052910052912 43.80952380952381,168.46560846560848 44.021164021164026,167.83068783068785 44.232804232804234,167.19576719576722 44.44444444444445,166.56084656084658 44.867724867724874,165.92592592592595 45.29100529100529,165.50264550264552 45.714285714285715,165.0793650793651 46.13756613756614,164.65608465608466 46.77248677248678,164.23280423280426 47.40740740740741,164.02116402116403 48.042328042328045,163.59788359788362 48.677248677248684,163.3862433862434 49.31216931216932,162.96296296296296 49.94708994708995,162.75132275132276 50.58201058201058,162.32804232804233 51.21693121693122,162.11640211640213 51.851851851851855,161.6931216931217 52.48677248677249,161.4814814814815 53.12169312169313,161.05820105820106 53.75661375661376,160.63492063492066 54.179894179894184,160.21164021164023 54.81481481481482,159.7883597883598 55.23809523809524,159.36507936507937 55.661375661375665,158.94179894179896 56.2962962962963,158.51851851851853 56.71957671957672,157.8835978835979 57.142857142857146,157.46031746031747 57.56613756613757,157.03703703703704 57.989417989417994,156.4021164021164 58.41269841269842,155.978835978836 58.83597883597884,155.34391534391534 59.25925925925927,154.7089947089947 59.470899470899475,154.07407407407408 59.8941798941799,153.43915343915344 60.10582010582011,152.8042328042328 60.31746031746032,152.16931216931218 60.74074074074075,151.53439153439155 60.74074074074075,150.8994708994709 60.952380952380956,150.26455026455028 61.16402116402117,149.62962962962965 61.16402116402117,148.99470899470901 61.16402116402117,148.35978835978838 60.952380952380956,147.72486772486775 60.952380952380956,147.0899470899471 60.74074074074075,146.45502645502646 60.52910052910053,145.82010582010582 60.31746031746032,145.1851851851852 60.10582010582011,144.55026455026456 59.682539682539684,143.91534391534393 59.470899470899475,143.2804232804233 59.04761904761905,142.85714285714286 58.62433862433863,142.22222222222223 58.2010582010582,141.5873015873016 57.777777777777786,140.95238095238096 57.35449735449736,140.52910052910053 56.93121693121694,140.10582010582013 56.50793650793651,139.47089947089947 56.08465608465609,139.04761904761907 55.661375661375665,138.62433862433863 55.23809523809524,138.2010582010582 54.81481481481482,137.7777777777778 54.179894179894184,137.35449735449737 53.75661375661376,136.93121693121694 53.12169312169313,136.5079365079365 52.6984126984127,136.0846560846561 52.06349206349207,135.66137566137567 51.42857142857143,135.23809523809524 50.7936507936508,134.81481481481484 50.158730158730165,134.3915343915344 49.523809523809526,133.96825396825398 48.88888888888889,133.54497354497354 48.25396825396826,133.33333333333334 47.830687830687836,132.9100529100529 47.195767195767196,132.6984126984127 46.560846560846564,132.27513227513228 45.92592592592593,132.06349206349208 45.29100529100529,131.64021164021165 44.65608465608466,131.42857142857144 44.021164021164026,131.21693121693121 43.386243386243386,131.005291005291 42.75132275132275,130.7936507936508 42.11640211640212,130.58201058201058 41.48148148148149,130.37037037037038 40.84656084656085,130.37037037037038 40.211640211640216,130.15873015873018 39.57671957671958,130.15873015873018 38.94179894179894,130.15873015873018 38.30687830687831,130.37037037037038 37.67195767195768,130.37037037037038 37.03703703703704,130.58201058201058 36.402116402116405,130.7936507936508 35.97883597883598,131.21693121693121 35.34391534391535,131.42857142857144 34.70899470899471,131.85185185185185 34.074074074074076,132.27513227513228 33.43915343915344,132.6984126984127 33.01587301587302,133.12169312169314 32.592592592592595,133.54497354497354 32.16931216931217,133.96825396825398 31.746031746031747,134.3915343915344 31.322751322751326,134.81481481481484 30.899470899470902,135.44973544973547 30.476190476190478,136.0846560846561 30.052910052910054,136.71957671957674 29.629629629629633,137.35449735449737 29.41798941798942,137.989417989418 28.994708994708997,138.41269841269843 28.571428571428573,139.04761904761907 28.35978835978836,139.6825396825397 27.93650793650794,140.31746031746033 27.724867724867728,140.95238095238096 27.301587301587304,141.5873015873016 27.089947089947092,142.22222222222223 26.87830687830688,142.85714285714286 26.455026455026456,143.4920634920635 26.031746031746035,144.12698412698413 25.60846560846561,144.76190476190476 25.185185185185187,145.1851851851852 24.761904761904763,145.60846560846562 24.338624338624342,146.03174603174605 23.703703703703706,146.24338624338625 23.280423280423282,146.66666666666669 22.645502645502646,147.0899470899471 22.010582010582013,147.30158730158732 21.375661375661377,147.72486772486775 20.740740740740744,147.93650793650795 20.105820105820108,148.14814814814815 19.47089947089947,148.14814814814815 18.83597883597884,148.35978835978838 18.201058201058203,148.35978835978838 17.566137566137566,148.35978835978838 16.931216931216934,147.93650793650795 16.296296296296298,147.72486772486775 15.661375661375663,147.30158730158732 15.238095238095239,146.8783068783069 14.603174603174605,146.45502645502646 14.17989417989418,146.03174603174605 13.756613756613758,145.39682539682542 13.333333333333334,144.973544973545 12.910052910052912,144.33862433862436 12.486772486772487,143.70370370370372 12.275132275132275,143.0687830687831 12.063492063492065,142.43386243386246 11.851851851851853,141.7989417989418 11.428571428571429,141.16402116402116 11.216931216931219,140.52910052910053 11.005291005291006,139.8941798941799 10.793650793650794,139.25925925925927 10.582010582010582,138.62433862433863 10.370370370370372,137.989417989418 10.15873015873016,137.35449735449737 9.947089947089948,136.71957671957674 9.735449735449736,136.0846560846561 9.523809523809524,135.44973544973547 9.312169312169313,134.81481481481484 9.100529100529101,134.17989417989418 8.88888888888889,133.54497354497354 8.677248677248677,132.9100529100529 8.465608465608467,132.27513227513228 8.042328042328043,131.64021164021165 7.830687830687832,131.005291005291 7.830687830687832,130.37037037037038 7.407407407407408,129.73544973544975 7.195767195767196,129.10052910052912 7.195767195767196,128.46560846560848 6.772486772486773,127.83068783068784 6.560846560846561,127.1957671957672 6.34920634920635,126.56084656084657 5.9259259259259265,125.92592592592594 5.9259259259259265,125.2910052910053 5.714285714285714,124.65608465608466 5.502645502645503,124.02116402116403 5.291005291005291,123.3862433862434 5.07936507936508,122.75132275132276 4.867724867724868,122.11640211640213 4.656084656084657,121.4814814814815 4.444444444444445,120.84656084656086 4.2328042328042335,120.21164021164022 4.021164021164021,119.57671957671958 3.8095238095238098,118.94179894179895 3.597883597883598,118.30687830687832 3.3862433862433865,117.67195767195768 3.174603174603175,117.03703703703705 3.174603174603175,116.4021164021164 2.7513227513227516,115.76719576719577 2.53968253968254,115.13227513227514 2.53968253968254,114.49735449735451 2.3280423280423284,113.86243386243387 1.9047619047619049,113.22751322751324 1.9047619047619049,112.5925925925926 1.6931216931216932,111.95767195767196 1.26984126984127,111.32275132275133 1.0582010582010584,110.6878306878307 0.0,107.51322751322752" style="fill:none; stroke:#00aa99; stroke-width:1.0"  /><polyline points="0.0,107.51322751322752 2.3280423280423284,104.97354497354497 2.7513227513227516,104.55026455026456 3.174603174603175,104.12698412698414 3.597883597883598,103.70370370370371 4.021164021164021,103.28042328042329 4.444444444444445,102.85714285714286 4.867724867724868,102.43386243386244 5.291005291005291,102.01058201058201 5.714285714285714,101.5873015873016 6.137566137566138,101.16402116402116 6.560846560846561,100.74074074074075 6.984126984126985,100.31746031746033 7.407407407407408,99.8941798941799 7.830687830687832,99.25925925925927 8.253968253968255,98.83597883597885 8.677248677248677,98.2010582010582 9.100529100529101,97.56613756613757 9.523809523809524,97.14285714285715 9.947089947089948,96.71957671957672 10.370370370370372,96.08465608465609 10.793650793650794,95.66137566137567 11.216931216931219,95.23809523809524 11.640211640211641,94.81481481481482 12.063492063492065,94.17989417989419 12.486772486772487,93.54497354497356 12.910052910052912,93.12169312169313 13.121693121693122,92.4867724867725 13.544973544973546,91.85185185185186 13.96825396825397,91.21693121693123 14.391534391534393,90.58201058201058 14.814814814814817,89.94708994708995 15.238095238095239,89.31216931216932 15.661375661375663,88.67724867724868 16.084656084656086,88.04232804232805 16.50793650793651,87.40740740740742 16.931216931216934,86.77248677248677 17.354497354497354,86.13756613756614 17.566137566137566,85.5026455026455 17.98941798941799,84.86772486772487 18.412698412698415,84.23280423280424 18.624338624338627,83.59788359788361 18.83597883597884,82.96296296296298 19.25925925925926,82.32804232804233 19.47089947089947,81.6931216931217 19.894179894179896,81.05820105820106 20.105820105820108,80.42328042328043 20.529100529100532,79.7883597883598 20.740740740740744,79.15343915343917 21.164021164021165,78.51851851851852 21.58730158730159,77.88359788359789 21.7989417989418,77.24867724867725 22.010582010582013,76.61375661375662 22.433862433862437,76.19047619047619 22.857142857142858,75.55555555555556 23.06878306878307,74.92063492063492 23.492063492063494,74.28571428571429 23.915343915343918,73.65079365079366 24.338624338624342,73.01587301587303 24.761904761904763,72.38095238095238 24.973544973544975,71.74603174603175 25.3968253968254,71.32275132275133 25.820105820105823,70.6878306878307 26.031746031746035,70.05291005291006 26.455026455026456,69.62962962962963 26.87830687830688,68.994708994709 27.089947089947092,68.35978835978837 27.513227513227516,67.93650793650794 27.93650793650794,67.3015873015873 28.35978835978836,66.66666666666667 28.783068783068785,66.24338624338625 29.20634920634921,65.82010582010582 29.629629629629633,65.18518518518519 30.264550264550266,64.76190476190477 30.68783068783069,64.33862433862434 31.111111111111114,63.91534391534392 31.746031746031747,63.492063492063494 32.38095238095239,63.06878306878308 33.01587301587302,62.85714285714286 33.65079365079365,62.64550264550265 34.28571428571429,62.43386243386244 34.920634920634924,62.22222222222223 35.55555555555556,62.43386243386244 36.19047619047619,62.22222222222223 36.82539682539683,62.22222222222223 37.46031746031746,62.22222222222223 38.095238095238095,62.43386243386244 38.730158730158735,62.64550264550265 39.36507936507937,62.85714285714286 40.0,63.06878306878308 40.63492063492064,63.280423280423285 41.058201058201064,63.70370370370371 41.6931216931217,64.12698412698413 42.11640211640212,64.55026455026456 42.539682539682545,64.97354497354497 42.96296296296297,65.3968253968254 43.386243386243386,66.03174603174604 43.80952380952381,66.66666666666667 44.232804232804234,67.3015873015873 44.65608465608466,67.72486772486774 45.07936507936508,68.35978835978837 45.50264550264551,68.994708994709 45.92592592592593,69.41798941798942 46.349206349206355,70.05291005291006 46.77248677248678,70.47619047619048 47.195767195767196,71.11111111111111 47.61904761904762,71.74603174603175 48.042328042328045,72.16931216931218 48.46560846560847,72.5925925925926 48.88888888888889,73.01587301587303 49.31216931216932,73.43915343915344 49.73544973544974,73.86243386243387 50.158730158730165,74.28571428571429 50.7936507936508,74.70899470899471 51.21693121693122,75.13227513227514 51.640211640211646,75.55555555555556 52.06349206349207,75.97883597883599 52.6984126984127,76.4021164021164 53.333333333333336,76.82539682539684 53.968253968253975,77.24867724867725 54.39153439153439,77.67195767195767 55.02645502645503,77.88359788359789 55.449735449735456,78.30687830687832 56.08465608465609,78.73015873015873 56.71957671957672,79.15343915343917 57.35449735449736,79.36507936507937 57.777777777777786,79.7883597883598 58.41269841269842,80.0 59.04761904761905,80.42328042328043 59.682539682539684,80.63492063492065 60.31746031746032,80.84656084656085 60.952380952380956,81.05820105820106 61.58730158730159,81.26984126984128 62.22222222222223,81.26984126984128 62.85714285714286,81.48148148148148 63.492063492063494,81.26984126984128 64.12698412698413,81.26984126984128 64.76190476190477,81.48148148148148 65.3968253968254,81.26984126984128 66.03174603174604,81.26984126984128 66.66666666666667,81.05820105820106 67.3015873015873,81.05820105820106 67.93650793650794,80.84656084656085 68.57142857142858,80.63492063492065 69.20634920634922,80.21164021164022 69.84126984126985,80.0 70.47619047619048,79.7883597883598 71.11111111111111,79.36507936507937 71.53439153439155,78.94179894179895 72.16931216931218,78.51851851851852 72.80423280423281,78.0952380952381 73.22751322751323,77.67195767195767 73.65079365079366,77.24867724867725 74.07407407407408,76.82539682539684 74.49735449735451,76.4021164021164 74.92063492063492,75.76719576719577 75.34391534391536,75.13227513227514 75.55555555555556,74.49735449735451 75.97883597883599,74.07407407407408 76.19047619047619,73.43915343915344 76.4021164021164,72.80423280423281 76.61375661375662,72.16931216931218 76.82539682539684,71.53439153439155 77.24867724867725,70.8994708994709 77.24867724867725,70.26455026455027 77.46031746031747,69.62962962962963 77.46031746031747,68.994708994709 77.67195767195767,68.35978835978837 77.67195767195767,67.72486772486774 77.67195767195767,67.08994708994709 77.67195767195767,66.45502645502646 77.67195767195767,65.82010582010582 77.67195767195767,65.18518518518519 77.67195767195767,64.55026455026456 77.46031746031747,63.91534391534392 77.46031746031747,63.280423280423285 77.24867724867725,62.64550264550265 77.03703703703704,62.01058201058201 76.82539682539684,61.37566137566138 76.61375661375662,60.74074074074075 76.4021164021164,60.10582010582011 75.97883597883599,59.470899470899475 75.76719576719577,58.83597883597884 75.34391534391536,58.2010582010582 74.92063492063492,57.56613756613757 74.49735449735451,57.142857142857146 74.28571428571429,56.50793650793651 73.86243386243387,56.08465608465609 73.43915343915344,55.661375661375665 73.01587301587303,55.02645502645503 72.5925925925926,54.60317460317461 72.16931216931218,54.179894179894184 71.74603174603175,53.75661375661376 71.32275132275133,53.333333333333336 70.6878306878307,53.12169312169313 70.05291005291006,52.6984126984127 69.41798941798942,52.27513227513228 68.78306878306879,51.851851851851855 68.14814814814815,51.42857142857143 67.51322751322752,51.21693121693122 66.87830687830689,50.7936507936508 66.24338624338625,50.58201058201058 65.60846560846561,50.370370370370374 64.97354497354497,49.94708994708995 64.33862433862434,49.73544973544974 63.70370370370371,49.523809523809526 63.06878306878308,49.31216931216932 62.43386243386244,49.1005291005291 61.798941798941804,48.88888888888889 61.16402116402117,48.677248677248684 60.52910052910053,48.46560846560847 59.8941798941799,48.042328042328045 59.25925925925927,47.830687830687836 58.83597883597884,47.40740740740741 58.2010582010582,46.98412698412699 57.777777777777786,46.560846560846564 57.35449735449736,46.13756613756614 56.93121693121694,45.714285714285715 56.50793650793651,45.29100529100529 56.08465608465609,44.867724867724874 55.661375661375665,44.232804232804234 55.449735449735456,43.5978835978836 55.02645502645503,42.96296296296297 54.81481481481482,42.32804232804233 54.60317460317461,41.6931216931217 54.39153439153439,41.058201058201064 54.39153439153439,40.423280423280424 54.39153439153439,39.78835978835979 54.39153439153439,39.15343915343916 54.39153439153439,38.51851851851852 54.60317460317461,37.883597883597886 54.81481481481482,37.248677248677254 55.02645502645503,36.613756613756614 55.23809523809524,35.97883597883598 55.449735449735456,35.34391534391535 55.661375661375665,34.70899470899471 55.87301587301588,34.074074074074076 56.08465608465609,33.43915343915344 56.2962962962963,32.804232804232804 56.71957671957672,32.38095238095239 56.93121693121694,31.746031746031747 57.35449735449736,31.111111111111114 57.777777777777786,30.476190476190478 58.2010582010582,29.841269841269842 58.62433862433863,29.20634920634921 59.04761904761905,28.571428571428573 59.470899470899475,27.93650793650794 59.8941798941799,27.513227513227516 60.31746031746032,26.87830687830688 60.74074074074075,26.455026455026456 61.16402116402117,25.820105820105823 61.58730158730159,25.3968253968254 62.01058201058201,24.761904761904763 62.64550264550265,24.338624338624342 63.06878306878308,23.915343915343918 63.492063492063494,23.492063492063494 63.91534391534392,22.857142857142858 64.33862433862434,22.222222222222225 64.76190476190477,21.58730158730159 65.18518518518519,21.164021164021165 65.60846560846561,20.740740740740744 66.03174603174604,20.31746031746032 66.45502645502646,19.894179894179896 66.87830687830689,19.47089947089947 67.3015873015873,18.83597883597884 67.72486772486774,18.412698412698415 68.14814814814815,17.98941798941799 68.57142857142858,17.566137566137566 69.20634920634922,17.142857142857146 69.62962962962963,16.71957671957672 70.05291005291006,16.296296296296298 70.47619047619048,15.873015873015873 70.8994708994709,15.449735449735451 71.32275132275133,14.814814814814817 71.74603174603175,14.391534391534393 72.16931216931218,13.96825396825397 72.80423280423281,13.544973544973546 73.22751322751323,13.121693121693122 73.65079365079366,12.6984126984127 74.07407407407408,12.275132275132275 74.49735449735451,11.851851851851853 75.13227513227514,11.428571428571429 75.55555555555556,11.005291005291006 75.97883597883599,10.582010582010582 76.61375661375662,10.15873015873016 77.03703703703704,9.735449735449736 77.67195767195767,9.312169312169313 78.0952380952381,8.88888888888889 78.73015873015873,8.465608465608467 79.36507936507937,8.042328042328043 79.7883597883598,7.6190476190476195 80.42328042328043,7.195767195767196 80.84656084656085,6.772486772486773 81.26984126984128,6.34920634920635 81.90476190476191,5.9259259259259265 82.53968253968254,5.502645502645503 82.96296296296298,5.07936507936508 83.59788359788361,4.656084656084657 84.23280423280424,4.2328042328042335 84.86772486772487,3.8095238095238098 85.5026455026455,3.3862433862433865 86.13756613756614,2.9629629629629632 86.56084656084657,2.53968253968254 87.1957671957672,2.1164021164021167 87.83068783068784,1.6931216931216932 90.58201058201058,-0.21164021164021166" style="fill:none; stroke:#3300bb; stroke-width:1.0"  /><circle cx="90.58201058201058" cy="-0.21164021164021166" r="2.0" style="fill:none; stroke:#000000aa; stroke-width:0.25" /><circle cx="181.3756613756614" cy="111.11111111111111" r="2.0" style="fill:none; stroke:#000000aa; stroke-width:0.25" /><circle cx="87.61904761904762" cy="211.005291005291" r="2.0" style="fill:none; stroke:#000000aa; stroke-width:0.25" /><circle cx="0.0" cy="107.51322751322752" r="2.0" style="fill:none; stroke:#000000aa; stroke-width:0.25" /><circle cx="90.58201058201058" cy="0.21164021164021166" r="2.0" style="fill:none; stroke:#ff3366aa; stroke-width:0.25" /><circle cx="180.74074074074076" cy="111.11111111111111" r="2.0" style="fill:none; stroke:#ff3366aa; stroke-width:0.25" /><circle cx="88.04232804232805" cy="210.5820105820106" r="2.0" style="fill:none; stroke:#ff3366aa; stroke-width:0.25" /><circle cx="0.21164021164021166" cy="107.51322751322752" r="2.0" style="fill:none; stroke:#ff3366aa; stroke-width:0.25" /><polyline points="96.08465608465609,10.582010582010582 95.66137566137567,9.947089947089948 95.44973544973546,9.312169312169313 95.02645502645504,8.677248677248677 94.81481481481482,8.042328042328043 94.39153439153439,7.407407407407408 94.17989417989419,6.772486772486773 93.75661375661376,6.34920634920635 93.54497354497356,5.714285714285714 93.33333333333334,5.07936507936508 92.91005291005291,4.444444444444445 92.69841269841271,3.8095238095238098 92.27513227513228,3.174603174603175" style="fill:none; stroke:#001100; stroke-width:1.0" /><polyline points="80.84656084656085,6.772486772486773 81.26984126984128,6.34920634920635 81.90476190476191,5.9259259259259265 82.53968253968254,5.502645502645503 82.96296296296298,5.07936507936508 83.59788359788361,4.656084656084657 84.23280423280424,4.2328042328042335 84.86772486772487,3.8095238095238098 85.5026455026455,3.3862433862433865 86.13756613756614,2.9629629629629632 86.56084656084657,2.53968253968254 87.1957671957672,2.1164021164021167 87.83068783068784,1.6931216931216932" style="fill:none; stroke:#000011; stroke-width:1.0" /><polyline points="171.85185185185188,118.94179894179895 172.4867724867725,118.51851851851853 172.9100529100529,118.0952380952381 173.54497354497354,117.67195767195768 174.1798941798942,117.24867724867725 174.6031746031746,116.82539682539684 175.23809523809524,116.4021164021164 175.66137566137567,115.97883597883599 176.0846560846561,115.55555555555557 176.50793650793653,115.13227513227514 176.93121693121694,114.70899470899472 177.56613756613757,114.28571428571429 177.989417989418,113.86243386243387 178.41269841269843,113.43915343915344" style="fill:none; stroke:#001100; stroke-width:1.0" /><polyline points="173.75661375661377,102.22222222222223 174.1798941798942,102.85714285714286 174.6031746031746,103.4920634920635 175.02645502645504,104.12698412698414 175.44973544973547,104.55026455026456 175.87301587301587,104.97354497354497 176.2962962962963,105.3968253968254 176.71957671957674,105.82010582010582 177.14285714285717,106.24338624338625 177.56613756613757,106.66666666666667 177.989417989418,107.0899470899471 178.41269841269843,107.72486772486774 178.83597883597884,108.14814814814815" style="fill:none; stroke:#000011; stroke-width:1.0" /><polyline points="78.94179894179895,203.80952380952382 79.36507936507937,204.23280423280426 79.7883597883598,204.65608465608466 80.42328042328043,205.0793650793651 80.84656084656085,205.50264550264552 81.26984126984128,205.92592592592595 81.90476190476191,206.34920634920636 82.32804232804233,206.7724867724868 82.96296296296298,207.19576719576722 83.59788359788361,207.61904761904765 84.02116402116403,208.04232804232805 84.44444444444446,208.46560846560848 85.07936507936509,208.8888888888889" style="fill:none; stroke:#001100; stroke-width:1.0" /><polyline points="94.60317460317461,200.63492063492066 94.17989417989419,201.2698412698413 93.75661375661376,201.90476190476193 93.33333333333334,202.53968253968256 92.91005291005291,203.1746031746032 92.4867724867725,203.80952380952382 92.06349206349208,204.44444444444446 91.64021164021165,205.0793650793651 91.21693121693123,205.71428571428572 90.7936507936508,206.34920634920636 90.37037037037038,206.984126984127 89.94708994708995,207.61904761904765" style="fill:none; stroke:#000011; stroke-width:1.0" /><polyline points="8.253968253968255,98.83597883597885 7.830687830687832,99.25925925925927 7.407407407407408,99.8941798941799 6.984126984126985,100.31746031746033 6.560846560846561,100.74074074074075 6.137566137566138,101.16402116402116 5.714285714285714,101.5873015873016 5.291005291005291,102.01058201058201 4.867724867724868,102.43386243386244 4.444444444444445,102.85714285714286 4.021164021164021,103.28042328042329 3.597883597883598,103.70370370370371 3.174603174603175,104.12698412698414 2.7513227513227516,104.55026455026456 2.3280423280423284,104.97354497354497" style="fill:none; stroke:#001100; stroke-width:1.0" /><polyline points="3.8095238095238098,118.94179894179895 3.597883597883598,118.30687830687832 3.3862433862433865,117.67195767195768 3.174603174603175,117.03703703703705 3.174603174603175,116.4021164021164 2.7513227513227516,115.76719576719577 2.53968253968254,115.13227513227514 2.53968253968254,114.49735449735451 2.3280423280423284,113.86243386243387 1.9047619047619049,113.22751322751324 1.9047619047619049,112.5925925925926 1.6931216931216932,111.95767195767196 1.26984126984127,111.32275132275133 1.0582010582010584,110.6878306878307" style="fill:none; stroke:#000011; stroke-width:1.0" /><polyline points="92.27513227513228,3.174603174603175 82.53968253968254,-15.661375661375663" style="fill:none; stroke:#ffaa00; stroke-width:0.4" /><polyline points="87.83068783068784,1.6931216931216932 104.97354497354497,-10.793650793650794" style="fill:none; stroke:#aaff00; stroke-width:0.4" /><polyline points="178.41269841269843,113.43915343915344 194.70899470899474,99.8941798941799" style="fill:none; stroke:#ffaa00; stroke-width:0.4" /><polyline points="178.83597883597884,108.14814814814815 192.5925925925926,124.23280423280424" style="fill:none; stroke:#aaff00; stroke-width:0.4" /><polyline points="85.07936507936509,208.8888888888889 101.37566137566138,222.43386243386246" style="fill:none; stroke:#ffaa00; stroke-width:0.4" /><polyline points="89.94708994708995,207.61904761904765 78.30687830687832,225.1851851851852" style="fill:none; stroke:#aaff00; stroke-width:0.4" /><polyline points="2.3280423280423284,104.97354497354497 -12.275132275132275,120.21164021164022" style="fill:none; stroke:#ffaa00; stroke-width:0.4" /><polyline points="1.0582010582010584,110.6878306878307 -5.714285714285714,90.58201058201058" style="fill:none; stroke:#aaff00; stroke-width:0.4" /><circle cx="97.77777777777779" cy="107.51322751322752" r="1.0" style="fill:#444444; stroke-width:0" /><circle cx="117.46031746031747" cy="98.41269841269842" r="10.582010582010582" style="fill:#ff770022; stroke-width:0" /><circle cx="117.46031746031747" cy="98.41269841269842" r="1.0" style="fill:#ff7700; stroke-width:0" /></svg>