<?xml version="1.0" encoding="UTF-8" standalone="no"?><svg width="586.6666666666667" height="606.984126984127" viewBox="-10 -10 215.55555555555557 222.32804232804233" xmlns="http://www.w3.org/2000/svg" xmlns:xlink="http://www.w3.org/1999/xlink"><polyline points="2.9629629629629632,84.44444444444446 5.502645502645503,83.17460317460318 6.137566137566138,82.96296296296298 6.560846560846561,82.53968253968254 7.195767195767196,82.32804232804233 7.830687830687832,82.11640211640213 8.465608465608467,81.90476190476191 9.100529100529101,81.6931216931217 9.735449735449736,81.26984126984128 10.370370370370372,81.05820105820106 11.005291005291006,80.63492063492065 11.640211640211641,80.21164021164022 12.275132275132275,80.0 12.910052910052912,79.7883597883598 13.544973544973546,79.57671957671958 14.17989417989418,79.15343915343917 14.814814814814817,78.94179894179895 15.238095238095239,78.51851851851852 15.873015873015873,78.30687830687832 16.50793650793651,78.0952380952381 17.142857142857146,77.88359788359789 17.566137566137566,77.46031746031747 18.201058201058203,77.24867724867725 18.83597883597884,76.82539682539684 19.47089947089947,76.61375661375662 20.105820105820108,76.19047619047619 20.740740740740744,75.97883597883599 21.164021164021165,75.55555555555556 21.7989417989418,75.13227513227514 22.433862433862437,74.92063492063492 23.06878306878307,74.49735449735451 23.703703703703706,74.07407407407408 24.338624338624342,73.86243386243387 24.973544973544975,73.43915343915344 25.60846560846561,73.01587301587303 26.243386243386244,72.5925925925926 26.87830687830688,72.38095238095238 27.513227513227516,71.95767195767196 28.14814814814815,71.53439153439155 28.783068783068785,71.32275132275133 29.20634920634921,70.8994708994709 29.841269841269842,70.47619047619048 30.476190476190478,70.26455026455027 30.899470899470902,69.84126984126985 31.53439153439154,69.41798941798942 32.16931216931217,69.20634920634922 32.592592592592595,68.78306878306879 33.22751322751323,68.35978835978837 33.86243386243387,67.93650793650794 34.4973544973545,67.72486772486774 35.13227513227513,67.3015873015873 35.76719576719577,66.87830687830689 36.19047619047619,66.45502645502646 36.613756613756614,66.03174603174604 37.248677248677254,65.60846560846561 37.883597883597886,65.18518518518519 38.51851851851852,64.76190476190477 39.15343915343916,64.55026455026456 39.57671957671958,64.12698412698413 40.211640211640216,63.70370370370371 40.63492063492064,63.280423280423285 41.26984126984127,62.85714285714286 41.6931216931217,62.43386243386244 42.11640211640212,62.01058201058201 42.75132275132275,61.58730158730159 43.386243386243386,61.37566137566138 43.80952380952381,60.952380952380956 44.232804232804234,60.52910052910053 44.867724867724874,60.10582010582011 45.29100529100529,59.682539682539684 45.92592592592593,59.25925925925927 46.560846560846564,58.83597883597884 47.195767195767196,58.62433862433863 47.830687830687836,58.2010582010582 48.25396825396826,57.777777777777786 48.88888888888889,57.35449735449736 49.523809523809526,56.93121693121694 50.158730158730165,56.50793650793651 50.7936507936508,56.08465608465609 51.42857142857143,55.87301587301588 52.06349206349207,55.449735449735456 52.6984126984127,55.02645502645503 53.333333333333336,54.81481481481482 53.75661375661376,54.39153439153439 54.39153439153439,54.179894179894184 54.81481481481482,53.75661375661376 55.449735449735456,53.54497354497355 56.08465608465609,53.54497354497355 56.71957671957672,53.333333333333336 57.142857142857146,52.91005291005291 57.777777777777786,53.12169312169313 58.41269841269842,53.12169312169313 59.04761904761905,53.12169312169313 59.682539682539684,53.333333333333336 60.31746031746032,53.75661375661376 60.952380952380956,53.968253968253975 61.37566137566138,54.39153439153439 61.798941798941804,54.81481481481482 62.22222222222223,55.449735449735456 62.43386243386244,56.08465608465609 62.64550264550265,56.71957671957672 62.85714285714286,57.35449735449736 62.85714285714286,57.989417989417994 63.06878306878308,58.62433862433863 63.06878306878308,59.25925925925927 63.280423280423285,59.8941798941799 63.280423280423285,60.52910052910053 63.280423280423285,61.16402116402117 63.280423280423285,61.798941798941804 63.492063492063494,62.43386243386244 63.492063492063494,63.06878306878308 63.492063492063494,63.70370370370371 63.492063492063494,64.33862433862434 63.70370370370371,64.97354497354497 63.70370370370371,65.60846560846561 64.12698412698413,66.24338624338625 64.12698412698413,66.87830687830689 64.33862433862434,67.51322751322752 64.55026455026456,68.14814814814815 64.76190476190477,68.78306878306879 64.97354497354497,69.41798941798942 65.18518518518519,70.05291005291006 65.60846560846561,70.6878306878307 65.82010582010582,71.32275132275133 66.03174603174604,71.95767195767196 66.45502645502646,72.5925925925926 66.87830687830689,73.22751322751323 67.3015873015873,73.86243386243387 67.72486772486774,74.49735449735451 68.14814814814815,75.13227513227514 68.57142857142858,75.55555555555556 68.994708994709,75.97883597883599 69.41798941798942,76.4021164021164 69.84126984126985,76.82539682539684 70.26455026455027,77.24867724867725 70.8994708994709,77.46031746031747 71.32275132275133,77.88359788359789 71.95767195767196,78.0952380952381 72.5925925925926,78.30687830687832 73.22751322751323,78.30687830687832 73.86243386243387,78.51851851851852 74.49735449735451,78.51851851851852 75.13227513227514,78.30687830687832 75.76719576719577,78.30687830687832 76.4021164021164,78.0952380952381 77.03703703703704,77.88359788359789 77.67195767195767,77.67195767195767 78.30687830687832,77.24867724867725 78.94179894179895,77.03703703703704 79.57671957671958,76.82539682539684 80.21164021164022,76.82539682539684 80.63492063492065,76.4021164021164 81.26984126984128,76.19047619047619 81.90476190476191,75.97883597883599 82.53968253968254,75.55555555555556 83.17460317460318,75.34391534391536 83.59788359788361,74.92063492063492 84.23280423280424,74.70899470899471 84.86772486772487,74.49735449735451 85.29100529100529,74.07407407407408 85.71428571428572,73.65079365079366 86.34920634920636,73.43915343915344 86.77248677248677,73.01587301587303 87.40740740740742,72.5925925925926 88.04232804232805,72.16931216931218 88.67724867724868,71.74603174603175 89.31216931216932,71.32275132275133 89.94708994708995,70.8994708994709 90.37037037037038,70.47619047619048 91.00529100529101,70.26455026455027 91.42857142857143,69.84126984126985 91.85185185185186,69.41798941798942 92.4867724867725,68.994708994709 92.91005291005291,68.57142857142858 93.33333333333334,68.14814814814815 93.75661375661376,67.72486772486774 94.17989417989419,67.3015873015873 94.60317460317461,66.87830687830689 95.02645502645504,66.24338624338625 95.23809523809524,65.60846560846561 95.66137566137567,64.97354497354497 95.87301587301587,64.33862433862434 96.08465608465609,63.70370370370371 96.2962962962963,63.06878306878308 96.2962962962963,62.43386243386244 96.2962962962963,61.798941798941804 96.50793650793652,61.16402116402117 96.2962962962963,60.52910052910053 96.08465608465609,59.8941798941799 96.2962962962963,59.25925925925927 96.08465608465609,58.62433862433863 95.87301587301587,57.989417989417994 95.44973544973546,57.35449735449736 95.23809523809524,56.71957671957672 94.81481481481482,56.08465608465609 94.60317460317461,55.449735449735456 94.17989417989419,55.02645502645503 93.96825396825398,54.39153439153439 93.54497354497356,53.968253968253975 93.12169312169313,53.54497354497355 92.69841269841271,53.12169312169313 92.27513227513228,52.6984126984127 91.85185185185186,52.27513227513228 91.42857142857143,51.851851851851855 91.00529100529101,51.42857142857143 90.58201058201058,51.00529100529101 90.15873015873017,50.58201058201058 89.52380952380953,50.158730158730165 89.1005291005291,49.73544973544974 88.46560846560847,49.31216931216932 88.04232804232805,48.88888888888889 87.61904761904762,48.46560846560847 87.1957671957672,48.042328042328045 86.56084656084657,47.61904761904762 86.13756613756614,47.195767195767196 85.71428571428572,46.77248677248678 85.07936507936509,46.560846560846564 84.65608465608466,45.92592592592593 84.23280423280424,45.50264550264551 83.59788359788361,45.07936507936508 83.17460317460318,44.65608465608466 82.75132275132276,44.232804232804234 82.32804232804233,43.80952380952381 81.90476190476191,43.386243386243386 81.48148148148148,42.96296296296297 81.05820105820106,42.32804232804233 80.84656084656085,41.6931216931217 80.42328042328043,41.26984126984127 80.21164021164022,40.63492063492064 80.21164021164022,40.0 80.0,39.36507936507937 80.0,38.730158730158735 80.21164021164022,38.095238095238095 80.21164021164022,37.46031746031746 80.42328042328043,36.82539682539683 80.84656084656085,36.19047619047619 81.26984126984128,35.55555555555556 81.6931216931217,34.920634920634924 82.11640211640213,34.28571428571429 82.53968253968254,33.86243386243387 82.96296296296298,33.43915343915344 83.3862433862434,32.804232804232804 83.80952380952381,32.38095238095239 84.23280423280424,31.95767195767196 84.65608465608466,31.322751322751326 85.07936507936509,30.68783068783069 85.5026455026455,30.264550264550266 86.13756613756614,29.841269841269842 86.56084656084657,29.41798941798942 86.98412698412699,28.994708994708997 87.40740740740742,28.571428571428573 87.83068783068784,28.14814814814815 88.46560846560847,27.724867724867728 88.8888888888889,27.301587301587304 89.31216931216932,26.87830687830688 89.94708994708995,26.455026455026456 90.37037037037038,26.031746031746035 90.7936507936508,25.60846560846561 91.21693121693123,25.185185185185187 91.85185185185186,24.761904761904763 92.27513227513228,24.338624338624342 92.91005291005291,23.915343915343918 93.33333333333334,23.492063492063494 93.96825396825398,23.06878306878307 94.39153439153439,22.645502645502646 94.81481481481482,22.222222222222225 95.44973544973546,21.7989417989418 95.87301587301587,21.375661375661377 96.50793650793652,20.952380952380953 96.93121693121694,20.529100529100532 97.35449735449737,20.105820105820108 97.989417989418,19.682539682539684 98.62433862433863,19.25925925925926 99.04761904761905,18.83597883597884 99.68253968253968,18.412698412698415 100.31746031746033,17.98941798941799 100.74074074074075,17.566137566137566 101.16402116402116,17.142857142857146 101.5873015873016,16.71957671957672 102.22222222222223,16.296296296296298 102.85714285714286,15.873015873015873 103.4920634920635,15.449735449735451 104.12698412698414,15.026455026455027 104.76190476190477,14.603174603174605 105.3968253968254,14.17989417989418 105.82010582010582,13.756613756613758 106.45502645502647,13.333333333333334 107.0899470899471,12.910052910052912 107.72486772486774,12.486772486772487 108.35978835978837,12.063492063492065 108.78306878306879,11.640211640211641 109.41798941798943,11.216931216931219 110.05291005291006,10.793650793650794 110.6878306878307,10.370370370370372 111.11111111111111,9.947089947089948 111.53439153439155,9.523809523809524 112.16931216931218,9.100529100529101 112.80423280423281,8.677248677248677 113.43915343915344,8.253968253968255 114.07407407407408,7.830687830687832 114.49735449735451,7.407407407407408 115.13227513227514,7.195767195767196 115.55555555555557,6.772486772486773 116.1904761904762,6.34920634920635 116.82539682539684,5.9259259259259265 117.46031746031747,5.714285714285714 117.88359788359789,5.291005291005291 118.51851851851853,4.867724867724868 119.15343915343917,4.444444444444445 119.7883597883598,4.2328042328042335 120.21164021164022,3.8095238095238098 120.84656084656086,3.3862433862433865 121.4814814814815,2.9629629629629632 122.11640211640213,2.7513227513227516 122.75132275132276,2.3280423280423284 123.3862433862434,1.9047619047619049 124.02116402116403,1.4814814814814816 127.1957671957672,-0.4232804232804233" style="fill:none; stroke:#cc0000; stroke-width:1.0"  /><polyline points="127.1957671957672,-0.4232804232804233 129.31216931216932,2.9629629629629632 129.73544973544975,3.597883597883598 130.15873015873018,4.2328042328042335 130.58201058201058,4.867724867724868 131.005291005291,5.502645502645503 131.42857142857144,6.137566137566138 131.64021164021165,6.772486772486773 132.06349206349208,7.407407407407408 132.4867724867725,8.042328042328043 132.9100529100529,8.677248677248677 133.12169312169314,9.312169312169313 133.54497354497354,9.947089947089948 133.75661375661377,10.582010582010582 134.17989417989418,11.216931216931219 134.3915343915344,11.851851851851853 134.81481481481484,12.486772486772487 135.02645502645504,13.121693121693122 135.44973544973547,13.756613756613758 135.66137566137567,14.391534391534393 135.87301587301587,15.026455026455027 136.2962962962963,15.661375661375663 136.5079365079365,16.296296296296298 136.71957671957674,16.931216931216934 136.93121693121694,17.566137566137566 137.35449735449737,18.201058201058203 137.56613756613757,18.83597883597884 137.7777777777778,19.47089947089947 137.989417989418,20.105820105820108 138.2010582010582,20.740740740740744 138.41269841269843,21.375661375661377 138.41269841269843,22.010582010582013 138.62433862433863,22.645502645502646 138.83597883597884,23.280423280423282 139.04761904761907,23.915343915343918 139.04761904761907,24.55026455026455 139.25925925925927,25.185185185185187 139.47089947089947,25.820105820105823 139.6825396825397,26.455026455026456 139.6825396825397,27.089947089947092 139.8941798941799,27.724867724867728 140.10582010582013,28.35978835978836 140.10582010582013,28.994708994708997 140.31746031746033,29.629629629629633 140.31746031746033,30.264550264550266 140.52910052910053,30.899470899470902 140.74074074074076,31.53439153439154 140.74074074074076,32.16931216931217 140.95238095238096,32.804232804232804 140.95238095238096,33.43915343915344 140.95238095238096,34.074074074074076 140.95238095238096,34.70899470899471 140.95238095238096,35.34391534391535 141.16402116402116,35.97883597883598 141.16402116402116,36.613756613756614 141.16402116402116,37.248677248677254 141.16402116402116,37.883597883597886 141.16402116402116,38.51851851851852 141.16402116402116,39.15343915343916 141.16402116402116,39.78835978835979 141.16402116402116,40.423280423280424 141.16402116402116,41.058201058201064 140.95238095238096,41.6931216931217 140.95238095238096,42.32804232804233 140.95238095238096,42.96296296296297 140.95238095238096,43.5978835978836 140.74074074074076,44.232804232804234 140.74074074074076,44.867724867724874 140.74074074074076,45.50264550264551 140.52910052910053,46.13756613756614 140.52910052910053,46.77248677248678 140.31746031746033,47.40740740740741 140.31746031746033,48.042328042328045 140.10582010582013,48.677248677248684 139.8941798941799,49.31216931216932 139.8941798941799,49.94708994708995 139.6825396825397,50.58201058201058 139.47089947089947,51.21693121693122 139.47089947089947,51.851851851851855 139.04761904761907,52.48677248677249 139.04761904761907,53.12169312169313 138.83597883597884,53.75661375661376 138.62433862433863,54.39153439153439 138.41269841269843,55.02645502645503 138.2010582010582,55.661375661375665 137.989417989418,56.2962962962963 137.7777777777778,56.93121693121694 137.56613756613757,57.56613756613757 137.14285714285717,58.2010582010582 136.93121693121694,58.83597883597884 136.71957671957674,59.470899470899475 136.2962962962963,60.10582010582011 136.0846560846561,60.74074074074075 135.87301587301587,61.37566137566138 135.44973544973547,61.798941798941804 135.23809523809524,62.43386243386244 134.81481481481484,62.85714285714286 134.3915343915344,63.492063492063494 134.17989417989418,64.12698412698413 133.75661375661377,64.55026455026456 133.33333333333334,65.18518518518519 132.9100529100529,65.60846560846561 132.6984126984127,66.24338624338625 132.27513227513228,66.66666666666667 131.85185185185185,67.08994708994709 131.21693121693121,67.51322751322752 130.7936507936508,67.93650793650794 130.37037037037038,68.35978835978837 129.73544973544975,68.78306878306879 129.10052910052912,69.20634920634922 128.46560846560848,69.62962962962963 127.83068783068784,70.05291005291006 127.1957671957672,70.26455026455027 126.56084656084657,70.47619047619048 125.92592592592594,70.8994708994709 125.2910052910053,71.11111111111111 124.65608465608466,71.53439153439155 124.02116402116403,71.74603174603175 123.3862433862434,72.16931216931218 122.75132275132276,72.38095238095238 122.11640211640213,72.5925925925926 121.6931216931217,73.01587301587303 121.05820105820106,73.43915343915344 120.63492063492065,73.86243386243387 120.00000000000001,74.28571428571429 119.57671957671958,74.70899470899471 119.15343915343917,75.13227513227514 118.73015873015873,75.76719576719577 118.30687830687832,76.19047619047619 118.0952380952381,76.82539682539684 117.67195767195768,77.24867724867725 117.46031746031747,77.88359788359789 117.03703703703705,78.51851851851852 116.82539682539684,79.15343915343917 116.61375661375662,79.7883597883598 116.1904761904762,80.42328042328043 115.97883597883599,81.05820105820106 115.97883597883599,81.6931216931217 115.76719576719577,82.32804232804233 115.76719576719577,82.96296296296298 115.76719576719577,83.59788359788361 115.76719576719577,84.23280423280424 115.76719576719577,84.86772486772487 115.76719576719577,85.5026455026455 115.76719576719577,86.13756613756614 115.97883597883599,86.77248677248677 115.97883597883599,87.40740740740742 116.1904761904762,88.04232804232805 116.1904761904762,88.67724867724868 116.4021164021164,89.31216931216932 116.4021164021164,89.94708994708995 116.61375661375662,90.58201058201058 116.82539682539684,91.21693121693123 117.03703703703705,91.85185185185186 117.03703703703705,92.4867724867725 117.24867724867725,93.12169312169313 117.46031746031747,93.75661375661376 117.67195767195768,94.39153439153439 118.0952380952381,94.81481481481482 118.0952380952381,95.44973544973546 118.51851851851853,96.08465608465609 118.94179894179895,96.71957671957672 119.15343915343917,97.35449735449737 119.57671957671958,97.989417989418 120.00000000000001,98.62433862433863 120.42328042328043,99.25925925925927 120.84656084656086,99.68253968253968 121.05820105820106,100.31746031746033 121.4814814814815,100.74074074074075 121.90476190476191,101.16402116402116 122.32804232804234,101.5873015873016 122.75132275132276,102.22222222222223 123.17460317460318,102.64550264550266 123.59788359788361,103.06878306878308 124.02116402116403,103.4920634920635 124.44444444444446,103.91534391534393 124.86772486772487,104.33862433862434 125.5026455026455,104.76190476190477 125.92592592592594,105.18518518518519 126.34920634920636,105.60846560846562 126.98412698412699,106.03174603174604 127.61904761904763,106.45502645502647 128.25396825396825,106.87830687830689 128.88888888888889,107.3015873015873 129.52380952380955,107.51322751322752 129.94708994708995,107.93650793650795 130.58201058201058,108.14814814814815 131.21693121693121,108.35978835978837 131.85185185185185,108.57142857142858 132.4867724867725,108.78306878306879 133.12169312169314,108.78306878306879 133.75661375661377,108.994708994709 134.3915343915344,108.994708994709 135.02645502645504,108.994708994709 135.66137566137567,108.994708994709 136.2962962962963,108.994708994709 136.93121693121694,108.78306878306879 137.56613756613757,108.57142857142858 138.2010582010582,108.35978835978837 138.83597883597884,108.14814814814815 139.47089947089947,107.93650793650795 140.10582010582013,107.51322751322752 140.74074074074076,107.0899470899471 141.3756613756614,106.66666666666667 141.7989417989418,106.24338624338625 142.43386243386246,105.82010582010582 143.0687830687831,105.3968253968254 143.4920634920635,104.97354497354497 143.91534391534393,104.55026455026456 144.33862433862436,103.91534391534393 144.76190476190476,103.4920634920635 145.1851851851852,103.06878306878308 145.60846560846562,102.43386243386244 146.03174603174605,102.01058201058201 146.24338624338625,101.37566137566138 146.66666666666669,100.95238095238096 146.66666666666669,100.31746031746033 147.0899470899471,99.8941798941799 147.30158730158732,99.25925925925927 147.72486772486775,98.83597883597885 147.93650793650795,98.2010582010582 148.35978835978838,97.56613756613757 148.57142857142858,96.93121693121694 148.99470899470901,96.2962962962963 149.41798941798942,95.66137566137567 149.62962962962965,95.02645502645504 150.05291005291005,94.60317460317461 150.47619047619048,93.96825396825398 150.8994708994709,93.54497354497356 151.32275132275134,93.12169312169313 151.74603174603175,92.4867724867725 152.38095238095238,92.06349206349208 152.8042328042328,91.64021164021165 153.43915343915344,91.42857142857143 154.07407407407408,91.21693121693123 154.7089947089947,91.00529100529101 155.34391534391534,91.00529100529101 155.978835978836,91.00529100529101 156.61375661375664,91.00529100529101 157.24867724867727,91.21693121693123 157.8835978835979,91.42857142857143 158.51851851851853,91.85185185185186 159.15343915343917,92.06349206349208 159.7883597883598,92.4867724867725 160.21164021164023,92.91005291005291 160.84656084656086,93.33333333333334 161.2698412698413,93.75661375661376 161.90476190476193,94.17989417989419 162.32804232804233,94.60317460317461 162.75132275132276,95.02645502645504 163.1746031746032,95.44973544973546 163.59788359788362,95.87301587301587 164.23280423280426,96.2962962962963 164.65608465608466,96.71957671957672 165.0793650793651,97.14285714285715 165.50264550264552,97.56613756613757 165.92592592592595,97.989417989418 166.34920634920636,98.41269841269842 166.7724867724868,98.83597883597885 167.19576719576722,99.25925925925927 167.61904761904762,99.68253968253968 168.04232804232805,100.10582010582011 168.46560846560848,100.52910052910053 169.10052910052912,100.95238095238096 169.52380952380955,101.37566137566138 169.94708994708995,101.79894179894181 170.37037037037038,102.43386243386244 170.7936507936508,102.85714285714286 171.21693121693124,103.28042328042329 171.64021164021165,103.70370370370371 172.06349206349208,104.12698412698414 172.4867724867725,104.76190476190477 172.9100529100529,105.18518518518519 173.33333333333334,105.60846560846562 173.75661375661377,106.24338624338625 174.3915343915344,106.66666666666667 174.81481481481484,107.3015873015873 175.23809523809524,107.72486772486774 175.66137566137567,108.35978835978837 176.0846560846561,108.78306878306879 176.50793650793653,109.41798941798943 176.93121693121694,109.84126984126985 177.35449735449737,110.47619047619048 177.7777777777778,111.11111111111111 178.2010582010582,111.53439153439155 178.62433862433863,112.16931216931218 179.04761904761907,112.80423280423281 179.4708994708995,113.43915343915344 179.8941798941799,114.07407407407408 180.31746031746033,114.70899470899472 180.74074074074076,115.13227513227514 181.16402116402116,115.76719576719577 181.5873015873016,116.1904761904762 182.01058201058203,116.82539682539684 182.22222222222223,117.46031746031747 182.64550264550266,117.88359788359789 182.85714285714286,118.51851851851853 183.2804232804233,118.94179894179895 183.4920634920635,119.57671957671958 183.91534391534393,120.00000000000001 184.12698412698415,120.63492063492065 184.55026455026456,121.05820105820106 184.7619047619048,121.6931216931217 185.1851851851852,122.32804232804234 185.39682539682542,122.96296296296298 185.82010582010582,123.3862433862434 186.03174603174605,124.02116402116403 186.45502645502646,124.65608465608466 186.66666666666669,125.2910052910053 187.08994708994712,125.71428571428572 187.30158730158732,126.34920634920636 187.51322751322752,126.98412698412699 187.93650793650795,127.61904761904763 188.14814814814815,128.25396825396825 188.57142857142858,128.88888888888889 188.78306878306879,129.52380952380955 189.20634920634922,130.15873015873018 189.20634920634922,130.7936507936508 189.41798941798945,131.42857142857144 189.84126984126985,132.06349206349208 190.05291005291008,132.6984126984127 190.26455026455028,133.33333333333334 190.47619047619048,133.96825396825398 190.8994708994709,134.6031746031746 191.11111111111111,135.23809523809524 191.53439153439155,135.66137566137567 191.74603174603175,136.2962962962963 191.95767195767198,136.93121693121694 192.16931216931218,137.56613756613757 192.5925925925926,138.2010582010582 192.8042328042328,138.83597883597884 193.01587301587304,139.47089947089947 193.22751322751324,140.10582010582013 193.43915343915344,140.74074074074076 193.65079365079367,141.3756613756614 193.86243386243387,142.01058201058203 194.07407407407408,142.64550264550266 194.2857142857143,143.2804232804233 195.55555555555557,146.45502645502646" style="fill:none; stroke:#999900; stroke-width:1.0"  /><polyline points="195.55555555555557,146.45502645502646 191.95767195767198,147.51322751322752 191.32275132275134,147.72486772486775 190.6878306878307,147.93650793650795 190.05291005291008,147.93650793650795 189.41798941798945,148.14814814814815 188.78306878306879,148.35978835978838 188.14814814814815,148.57142857142858 187.51322751322752,148.78306878306879 186.8783068783069,148.99470899470901 186.24338624338625,148.99470899470901 185.60846560846562,149.20634920634922 184.973544973545,149.41798941798942 184.33862433862436,149.62962962962965 183.70370370370372,149.84126984126985 183.0687830687831,150.05291005291005 182.43386243386246,150.26455026455028 181.79894179894183,150.47619047619048 181.16402116402116,150.8994708994709 180.52910052910053,151.11111111111111 179.8941798941799,151.32275132275134 179.25925925925927,151.53439153439155 178.62433862433863,151.74603174603175 177.989417989418,151.95767195767198 177.35449735449737,152.16931216931218 176.71957671957674,152.38095238095238 176.0846560846561,152.5925925925926 175.44973544973547,152.8042328042328 174.81481481481484,152.8042328042328 174.1798941798942,153.01587301587304 173.54497354497354,153.22751322751324 172.9100529100529,153.43915343915344 172.27513227513228,153.65079365079367 171.64021164021165,153.86243386243387 171.005291005291,154.07407407407408 170.37037037037038,154.2857142857143 169.73544973544975,154.4973544973545 169.10052910052912,154.7089947089947 168.46560846560848,154.92063492063494 167.83068783068785,155.13227513227514 167.19576719576722,155.34391534391534 166.56084656084658,155.55555555555557 165.92592592592595,155.76719576719577 165.2910052910053,155.978835978836 164.65608465608466,156.1904761904762 164.02116402116403,156.4021164021164 163.3862433862434,156.61375661375664 162.75132275132276,156.82539682539684 162.11640211640213,157.03703703703704 161.4814814814815,157.24867724867727 160.84656084656086,157.46031746031747 160.21164021164023,157.67195767195767 159.5767195767196,157.8835978835979 158.94179894179896,157.8835978835979 158.30687830687833,158.30687830687833 157.67195767195767,158.30687830687833 157.03703703703704,158.73015873015873 156.4021164021164,158.73015873015873 155.76719576719577,158.94179894179896 155.13227513227514,159.15343915343917 154.4973544973545,159.36507936507937 153.86243386243387,159.5767195767196 153.22751322751324,159.7883597883598 152.5925925925926,160.0 151.95767195767198,160.21164021164023 151.32275132275134,160.42328042328043 150.6878306878307,160.63492063492066 150.05291005291005,160.84656084656086 149.41798941798942,161.05820105820106 148.78306878306879,161.2698412698413 148.14814814814815,161.4814814814815 147.51322751322752,161.6931216931217 146.8783068783069,161.90476190476193 146.24338624338625,162.32804232804233 145.60846560846562,162.53968253968256 144.973544973545,162.75132275132276 144.33862433862436,162.96296296296296 143.70370370370372,163.1746031746032 143.0687830687831,163.3862433862434 142.43386243386246,163.59788359788362 141.7989417989418,163.59788359788362 141.16402116402116,163.80952380952382 140.52910052910053,164.02116402116403 139.8941798941799,164.23280423280426 139.25925925925927,164.44444444444446 138.62433862433863,164.65608465608466 137.989417989418,164.8677248677249 137.35449735449737,165.0793650793651 136.71957671957674,165.2910052910053 136.0846560846561,165.50264550264552 135.44973544973547,165.71428571428572 134.81481481481484,165.92592592592595 134.17989417989418,166.13756613756615 133.54497354497354,166.34920634920636 132.9100529100529,166.56084656084658 132.27513227513228,166.56084656084658 131.64021164021165,166.7724867724868 131.005291005291,167.19576719576722 130.37037037037038,167.40740740740742 129.73544973544975,167.61904761904762 129.10052910052912,167.83068783068785 128.46560846560848,168.04232804232805 127.83068783068784,168.25396825396825 127.1957671957672,168.46560846560848 126.56084656084657,168.67724867724868 125.92592592592594,168.8888888888889 125.2910052910053,169.10052910052912 124.65608465608466,169.31216931216932 124.02116402116403,169.52380952380955 123.3862433862434,169.52380952380955 122.75132275132276,169.73544973544975 122.11640211640213,169.94708994708995 121.4814814814815,170.15873015873018 120.84656084656086,170.37037037037038 120.21164021164022,170.58201058201058 119.57671957671958,171.005291005291 118.94179894179895,171.005291005291 118.30687830687832,171.42857142857144 117.67195767195768,171.42857142857144 117.03703703703705,171.64021164021165 116.4021164021164,171.85185185185188 115.76719576719577,172.06349206349208 115.13227513227514,172.27513227513228 114.49735449735451,172.4867724867725 113.86243386243387,172.6984126984127 113.22751322751324,172.9100529100529 112.5925925925926,173.12169312169314 111.95767195767196,173.33333333333334 111.32275132275133,173.75661375661377 110.6878306878307,173.96825396825398 110.05291005291006,174.1798941798942 109.41798941798943,174.3915343915344 108.78306878306879,174.6031746031746 108.14814814814815,174.81481481481484 107.51322751322752,175.02645502645504 106.87830687830689,175.23809523809524 106.24338624338625,175.44973544973547 105.60846560846562,175.66137566137567 104.97354497354497,175.87301587301587 104.33862433862434,176.0846560846561 103.70370370370371,176.2962962962963 103.06878306878308,176.50793650793653 102.43386243386244,176.71957671957674 101.79894179894181,176.71957671957674 101.16402116402116,176.93121693121694 100.52910052910053,177.14285714285717 99.8941798941799,177.35449735449737 99.25925925925927,177.35449735449737 98.62433862433863,177.7777777777778 97.989417989418,177.7777777777778 97.35449735449737,178.2010582010582 96.71957671957672,178.2010582010582 96.08465608465609,178.41269841269843 95.44973544973546,178.83597883597884 94.81481481481482,178.83597883597884 94.17989417989419,179.25925925925927 93.54497354497356,179.25925925925927 92.91005291005291,179.4708994708995 92.27513227513228,179.6825396825397 91.64021164021165,179.8941798941799 91.00529100529101,180.10582010582013 90.37037037037038,180.31746031746033 89.73544973544975,180.52910052910053 89.1005291005291,180.74074074074076 88.46560846560847,180.95238095238096 87.83068783068784,181.16402116402116 87.1957671957672,181.3756613756614 86.56084656084657,181.5873015873016 85.92592592592594,181.79894179894183 85.29100529100529,182.01058201058203 84.65608465608466,182.22222222222223 84.02116402116403,182.43386243386246 83.3862433862434,182.64550264550266 82.75132275132276,183.0687830687831 82.11640211640213,183.0687830687831 81.48148148148148,183.2804232804233 80.84656084656085,183.4920634920635 80.21164021164022,183.70370370370372 79.57671957671958,183.91534391534393 78.94179894179895,184.12698412698415 78.30687830687832,184.33862433862436 77.67195767195767,184.55026455026456 77.03703703703704,184.7619047619048 76.4021164021164,184.973544973545 75.76719576719577,185.39682539682542 75.13227513227514,185.60846560846562 74.49735449735451,185.82010582010582 73.86243386243387,186.03174603174605 73.22751322751323,186.24338624338625 72.5925925925926,186.24338624338625 71.95767195767196,186.66666666666669 71.32275132275133,186.66666666666669 70.6878306878307,186.8783068783069 70.05291005291006,187.30158730158732 69.41798941798942,187.30158730158732 68.78306878306879,187.51322751322752 68.14814814814815,187.72486772486775 67.51322751322752,187.93650793650795 66.87830687830689,188.14814814814815 66.24338624338625,188.35978835978838 65.60846560846561,188.78306878306879 64.97354497354497,188.78306878306879 64.33862433862434,188.99470899470901 63.70370370370371,189.20634920634922 63.06878306878308,189.41798941798945 62.43386243386244,189.62962962962965 61.798941798941804,189.84126984126985 61.16402116402117,190.05291005291008 60.52910052910053,190.26455026455028 59.8941798941799,190.47619047619048 59.25925925925927,190.6878306878307 58.62433862433863,190.8994708994709 57.989417989417994,191.11111111111111 57.35449735449736,191.32275132275134 56.71957671957672,191.53439153439155 56.08465608465609,191.74603174603175 55.449735449735456,191.95767195767198 54.81481481481482,192.16931216931218 54.179894179894184,192.3809523809524 53.54497354497355,192.5925925925926 52.91005291005291,192.8042328042328 52.27513227513228,193.01587301587304 51.640211640211646,193.22751322751324 51.00529100529101,193.43915343915344 50.370370370370374,193.65079365079367 49.73544973544974,193.86243386243387 49.1005291005291,193.86243386243387 48.46560846560847,194.2857142857143 47.830687830687836,194.4973544973545 47.195767195767196,194.70899470899474 46.560846560846564,194.70899470899474 45.92592592592593,195.13227513227514 45.29100529100529,195.13227513227514 44.65608465608466,195.55555555555557 44.021164021164026,195.76719576719577 43.386243386243386,195.978835978836 42.75132275132275,195.978835978836 42.11640211640212,196.1904761904762 41.48148148148149,196.61375661375664 40.84656084656085,196.82539682539684 40.211640211640216,197.03703703703704 39.57671957671958,197.24867724867727 38.94179894179894,197.46031746031747 38.30687830687831,197.6719576719577 37.67195767195768,197.8835978835979 37.03703703703704,198.0952380952381 36.402116402116405,198.30687830687833 35.76719576719577,198.51851851851853 35.13227513227513,198.73015873015873 34.4973544973545,198.94179894179896 33.86243386243387,199.15343915343917 33.22751322751323,199.36507936507937 32.592592592592595,199.5767195767196 31.95767195767196,199.7883597883598 31.322751322751326,200.00000000000003 30.68783068783069,200.42328042328043 30.052910052910054,200.63492063492066 26.455026455026456,201.90476190476193" style="fill:none; stroke:#00aa99; stroke-width:3.0" stroke-dasharray="6,3" /><polyline points="26.455026455026456,201.90476190476193 25.185185185185187,198.94179894179896 24.973544973544975,198.30687830687833 24.761904761904763,197.6719576719577 24.55026455026455,197.03703703703704 24.338624338624342,196.4021164021164 24.12698412698413,195.76719576719577 23.703703703703706,195.13227513227514 23.492063492063494,194.4973544973545 23.280423280423282,193.86243386243387 23.06878306878307,193.22751322751324 22.645502645502646,192.5925925925926 22.433862433862437,191.95767195767198 22.222222222222225,191.32275132275134 22.010582010582013,190.6878306878307 21.7989417989418,190.05291005291008 21.375661375661377,189.41798941798945 21.164021164021165,188.78306878306879 20.952380952380953,188.14814814814815 20.529100529100532,187.51322751322752 20.31746031746032,186.8783068783069 20.105820105820108,186.24338624338625 19.894179894179896,185.60846560846562 19.682539682539684,184.973544973545 19.25925925925926,184.33862433862436 19.047619047619047,183.70370370370372 18.83597883597884,183.0687830687831 18.624338624338627,182.43386243386246 18.201058201058203,181.79894179894183 17.98941798941799,181.16402116402116 17.77777777777778,180.52910052910053 17.354497354497354,179.8941798941799 17.142857142857146,179.25925925925927 16.931216931216934,178.62433862433863 16.50793650793651,177.989417989418 16.296296296296298,177.35449735449737 16.084656084656086,176.71957671957674 15.661375661375663,176.0846560846561 15.449735449735451,175.44973544973547 15.026455026455027,174.81481481481484 14.814814814814817,174.1798941798942 14.603174603174605,173.54497354497354 14.391534391534393,172.9100529100529 13.96825396825397,172.27513227513228 13.756613756613758,171.64021164021165 13.333333333333334,171.005291005291 12.910052910052912,170.37037037037038 12.6984126984127,169.73544973544975 12.486772486772487,169.10052910052912 12.063492063492065,168.46560846560848 12.063492063492065,167.83068783068785 11.640211640211641,167.19576719576722 11.428571428571429,166.56084656084658 11.428571428571429,165.92592592592595 11.216931216931219,165.2910052910053 11.005291005291006,164.65608465608466 10.793650793650794,164.02116402116403 10.793650793650794,163.3862433862434 10.582010582010582,162.75132275132276 10.582010582010582,162.11640211640213 10.582010582010582,161.4814814814815 10.370370370370372,160.84656084656086 10.370370370370372,160.21164021164023 10.370370370370372,159.5767195767196 10.370370370370372,158.94179894179896 10.15873015873016,158.30687830687833 10.15873015873016,157.67195767195767 10.15873015873016,157.03703703703704 10.15873015873016,156.4021164021164 10.15873015873016,155.76719576719577 10.15873015873016,155.13227513227514 10.370370370370372,154.4973544973545 10.370370370370372,153.86243386243387 10.582010582010582,153.22751322751324 11.005291005291006,152.5925925925926 11.216931216931219,151.95767195767198 11.640211640211641,151.53439153439155 12.063492063492065,151.11111111111111 12.6984126984127,150.8994708994709 13.333333333333334,150.47619047619048 13.96825396825397,150.26455026455028 14.603174603174605,150.05291005291005 15.238095238095239,150.05291005291005 15.873015873015873,149.84126984126985 16.50793650793651,149.84126984126985 17.142857142857146,150.05291005291005 17.77777777777778,150.05291005291005 18.412698412698415,150.26455026455028 19.047619047619047,150.6878306878307 19.682539682539684,150.8994708994709 20.31746031746032,151.11111111111111 20.952380952380953,151.32275132275134 21.375661375661377,151.74603174603175 22.010582010582013,151.95767195767198 22.645502645502646,152.16931216931218 23.06878306878307,152.5925925925926 23.703703703703706,152.8042328042328 24.338624338624342,153.01587301587304 24.973544973544975,153.43915343915344 25.60846560846561,153.43915343915344 26.243386243386244,153.65079365079367 26.87830687830688,153.65079365079367 27.513227513227516,153.86243386243387 28.14814814814815,153.86243386243387 28.783068783068785,153.86243386243387 29.41798941798942,154.07407407407408 30.052910052910054,154.07407407407408 30.68783068783069,154.07407407407408 31.322751322751326,154.07407407407408 31.95767195767196,153.86243386243387 32.592592592592595,153.86243386243387 33.22751322751323,153.86243386243387 33.86243386243387,153.86243386243387 34.4973544973545,153.86243386243387 35.13227513227513,153.43915343915344 35.76719576719577,153.43915343915344 36.402116402116405,153.22751322751324 37.03703703703704,152.8042328042328 37.67195767195768,152.5925925925926 38.30687830687831,152.38095238095238 38.94179894179894,152.16931216931218 39.57671957671958,151.95767195767198 40.211640211640216,151.53439153439155 40.84656084656085,151.11111111111111 41.48148148148149,150.6878306878307 41.904761904761905,150.26455026455028 42.32804232804233,149.84126984126985 42.96296296296297,149.41798941798942 43.386243386243386,148.99470899470901 43.80952380952381,148.57142857142858 44.232804232804234,148.14814814814815 44.65608465608466,147.72486772486775 45.07936507936508,147.30158730158732 45.50264550264551,146.8783068783069 45.92592592592593,146.24338624338625 46.349206349206355,145.82010582010582 46.77248677248678,145.1851851851852 46.98412698412699,144.55026455026456 47.195767195767196,143.91534391534393 47.61904761904762,143.2804232804233 47.61904761904762,142.64550264550266 47.830687830687836,142.01058201058203 48.042328042328045,141.3756613756614 48.042328042328045,140.74074074074076 48.042328042328045,140.10582010582013 48.042328042328045,139.47089947089947 48.25396825396826,138.83597883597884 48.042328042328045,138.2010582010582 48.042328042328045,137.56613756613757 48.042328042328045,136.93121693121694 48.042328042328045,136.2962962962963 47.830687830687836,135.66137566137567 47.61904761904762,135.02645502645504 47.40740740740741,134.3915343915344 47.40740740740741,133.75661375661377 47.195767195767196,133.12169312169314 47.195767195767196,132.4867724867725 46.98412698412699,131.85185185185185 46.77248677248678,131.21693121693121 46.77248677248678,130.58201058201058 46.560846560846564,129.94708994708995 46.349206349206355,129.31216931216932 46.13756613756614,128.67724867724868 45.92592592592593,128.04232804232805 45.714285714285715,127.40740740740742 45.50264550264551,126.77248677248679 45.29100529100529,126.13756613756615 45.07936507936508,125.5026455026455 44.65608465608466,124.86772486772487 44.44444444444445,124.23280423280424 44.021164021164026,123.59788359788361 43.80952380952381,122.96296296296298 43.386243386243386,122.32804232804234 42.96296296296297,121.6931216931217 42.75132275132275,121.05820105820106 42.32804232804233,120.42328042328043 41.904761904761905,119.7883597883598 41.48148148148149,119.15343915343917 41.058201058201064,118.51851851851853 40.63492063492064,118.0952380952381 40.423280423280424,117.46031746031747 40.0,116.82539682539684 39.57671957671958,116.1904761904762 39.15343915343916,115.76719576719577 38.730158730158735,115.34391534391536 38.30687830687831,114.70899470899472 37.883597883597886,114.28571428571429 37.46031746031746,113.86243386243387 37.03703703703704,113.43915343915344 36.613756613756614,113.01587301587303 35.97883597883598,112.5925925925926 35.34391534391535,112.16931216931218 34.70899470899471,111.95767195767196 34.074074074074076,111.74603174603176 33.65079365079365,111.32275132275133 33.01587301587302,111.32275132275133 32.38095238095239,111.11111111111111 31.746031746031747,110.89947089947091 31.111111111111114,110.6878306878307 30.476190476190478,110.6878306878307 29.841269841269842,110.47619047619048 29.20634920634921,110.47619047619048 28.571428571428573,110.47619047619048 27.93650793650794,110.47619047619048 27.301587301587304,110.6878306878307 26.666666666666668,110.6878306878307 26.031746031746035,110.89947089947091 25.3968253968254,111.11111111111111 24.761904761904763,111.32275132275133 24.12698412698413,111.53439153439155 23.492063492063494,111.74603174603176 22.857142857142858,111.95767195767196 22.222222222222225,112.3809523809524 21.58730158730159,112.80423280423281 20.952380952380953,113.22751322751324 20.31746031746032,113.65079365079366 19.894179894179896,114.07407407407408 19.47089947089947,114.49735449735451 19.047619047619047,114.92063492063492 18.624338624338627,115.55555555555557 18.201058201058203,115.97883597883599 17.77777777777778,116.4021164021164 17.354497354497354,117.03703703703705 16.931216931216934,117.46031746031747 16.50793650793651,118.0952380952381 16.084656084656086,118.51851851851853 15.661375661375663,118.94179894179895 15.238095238095239,119.57671957671958 14.814814814814817,120.00000000000001 14.391534391534393,120.42328042328043 13.756613756613758,120.84656084656086 13.333333333333334,121.26984126984128 12.6984126984127,121.6931216931217 12.063492063492065,122.11640211640213 11.428571428571429,122.53968253968254 10.793650793650794,122.96296296296298 10.15873015873016,123.17460317460318 9.523809523809524,123.3862433862434 8.88888888888889,123.3862433862434 8.253968253968255,123.59788359788361 7.6190476190476195,123.59788359788361 6.984126984126985,123.59788359788361 6.34920634920635,123.3862433862434 5.714285714285714,123.59788359788361 5.07936507936508,123.3862433862434 4.444444444444445,122.96296296296298 3.8095238095238098,122.53968253968254 3.3862433862433865,122.11640211640213 2.9629629629629632,121.6931216931217 2.53968253968254,121.05820105820106 2.1164021164021167,120.42328042328043 1.9047619047619049,119.7883597883598 1.6931216931216932,119.15343915343917 1.4814814814814816,118.51851851851853 1.26984126984127,117.88359788359789 1.0582010582010584,117.24867724867725 0.8465608465608466,116.61375661375662 0.8465608465608466,115.97883597883599 0.634920634920635,115.34391534391536 0.634920634920635,114.70899470899472 0.4232804232804233,114.07407407407408 0.4232804232804233,113.43915343915344 0.4232804232804233,112.80423280423281 0.21164021164021166,112.16931216931218 0.21164021164021166,111.53439153439155 0.21164021164021166,110.89947089947091 0.21164021164021166,110.26455026455027 0.21164021164021166,109.62962962962963 0.21164021164021166,108.994708994709 0.21164021164021166,108.35978835978837 0.21164021164021166,107.72486772486774 0.21164021164021166,107.0899470899471 0.21164021164021166,106.45502645502647 0.4232804232804233,105.82010582010582 0.4232804232804233,105.18518518518519 0.4232804232804233,104.55026455026456 0.634920634920635,103.91534391534393 0.634920634920635,103.28042328042329 0.8465608465608466,102.64550264550266 0.8465608465608466,102.01058201058201 1.0582010582010584,101.37566137566138 0.8465608465608466,100.74074074074075 1.0582010582010584,100.10582010582011 1.0582010582010584,99.47089947089948 1.26984126984127,98.83597883597885 1.26984126984127,98.2010582010582 1.4814814814814816,97.56613756613757 1.4814814814814816,96.93121693121694 1.6931216931216932,96.2962962962963 1.6931216931216932,95.66137566137567 1.9047619047619049,95.02645502645504 1.9047619047619049,94.39153439153439 1.9047619047619049,93.75661375661376 2.1164021164021167,93.12169312169313 2.1164021164021167,92.4867724867725 2.1164021164021167,91.85185185185186 2.1164021164021167,91.21693121693123 2.3280423280423284,90.58201058201058 2.3280423280423284,89.94708994708995 2.3280423280423284,89.31216931216932 2.53968253968254,88.67724867724868 2.53968253968254,88.04232804232805 2.9629629629629632,84.44444444444446" style="fill:none; stroke:#3300bb; stroke-width:1.0"  /><circle cx="2.9629629629629632" cy="84.44444444444446" r="2.0" style="fill:none; stroke:#000000aa; stroke-width:0.25" /><circle cx="127.1957671957672" cy="-0.4232804232804233" r="2.0" style="fill:none; stroke:#000000aa; stroke-width:0.25" /><circle cx="195.55555555555557" cy="146.45502645502646" r="2.0" style="fill:none; stroke:#000000aa; stroke-width:0.25" /><circle cx="26.455026455026456" cy="201.90476190476193" r="2.0" style="fill:none; stroke:#000000aa; stroke-width:0.25" /><circle cx="2.53968253968254" cy="84.86772486772487" r="2.0" style="fill:none; stroke:#ff3366aa; stroke-width:0.25" /><circle cx="127.1957671957672" cy="0.21164021164021166" r="2.0" style="fill:none; stroke:#ff3366aa; stroke-width:0.25" /><circle cx="195.13227513227514" cy="146.45502645502646" r="2.0" style="fill:none; stroke:#ff3366aa; stroke-width:0.25" /><circle cx="26.666666666666668" cy="201.90476190476193" r="2.0" style="fill:none; stroke:#ff3366aa; stroke-width:0.25" /><polyline points="12.910052910052912,79.7883597883598 12.275132275132275,80.0 11.640211640211641,80.21164021164022 11.005291005291006,80.63492063492065 10.370370370370372,81.05820105820106 9.735449735449736,81.26984126984128 9.100529100529101,81.6931216931217 8.465608465608467,81.90476190476191 7.830687830687832,82.11640211640213 7.195767195767196,82.32804232804233 6.560846560846561,82.53968253968254 6.137566137566138,82.96296296296298 5.502645502645503,83.17460317460318" style="fill:none; stroke:#001100; stroke-width:1.0" /><polyline points="1.6931216931216932,96.2962962962963 1.6931216931216932,95.66137566137567 1.9047619047619049,95.02645502645504 1.9047619047619049,94.39153439153439 1.9047619047619049,93.75661375661376 2.1164021164021167,93.12169312169313 2.1164021164021167,92.4867724867725 2.1164021164021167,91.85185185185186 2.1164021164021167,91.21693121693123 2.3280423280423284,90.58201058201058 2.3280423280423284,89.94708994708995 2.3280423280423284,89.31216931216932 2.53968253968254,88.67724867724868 2.53968253968254,88.04232804232805" style="fill:none; stroke:#000011; stroke-width:1.0" /><polyline points="133.54497354497354,9.947089947089948 133.12169312169314,9.312169312169313 132.9100529100529,8.677248677248677 132.4867724867725,8.042328042328043 132.06349206349208,7.407407407407408 131.64021164021165,6.772486772486773 131.42857142857144,6.137566137566138 131.005291005291,5.502645502645503 130.58201058201058,4.867724867724868 130.15873015873018,4.2328042328042335 129.73544973544975,3.597883597883598 129.31216931216932,2.9629629629629632" style="fill:none; stroke:#001100; stroke-width:1.0" /><polyline points="116.82539682539684,5.9259259259259265 117.46031746031747,5.714285714285714 117.88359788359789,5.291005291005291 118.51851851851853,4.867724867724868 119.15343915343917,4.444444444444445 119.7883597883598,4.2328042328042335 120.21164021164022,3.8095238095238098 120.84656084656086,3.3862433862433865 121.4814814814815,2.9629629629629632 122.11640211640213,2.7513227513227516 122.75132275132276,2.3280423280423284 123.3862433862434,1.9047619047619049 124.02116402116403,1.4814814814814816" style="fill:none; stroke:#000011; stroke-width:1.0" /><polyline points="183.70370370370372,149.84126984126985 184.33862433862436,149.62962962962965 184.973544973545,149.41798941798942 185.60846560846562,149.20634920634922 186.24338624338625,148.99470899470901 186.8783068783069,148.99470899470901 187.51322751322752,148.78306878306879 188.14814814814815,148.57142857142858 188.78306878306879,148.35978835978838 189.41798941798945,148.14814814814815 190.05291005291008,147.93650793650795 190.6878306878307,147.93650793650795 191.32275132275134,147.72486772486775 191.95767195767198,147.51322751322752" style="fill:none; stroke:#001100; stroke-width:1.0" /><polyline points="191.11111111111111,135.23809523809524 191.53439153439155,135.66137566137567 191.74603174603175,136.2962962962963 191.95767195767198,136.93121693121694 192.16931216931218,137.56613756613757 192.5925925925926,138.2010582010582 192.8042328042328,138.83597883597884 193.01587301587304,139.47089947089947 193.22751322751324,140.10582010582013 193.43915343915344,140.74074074074076 193.65079365079367,141.3756613756614 193.86243386243387,142.01058201058203 194.07407407407408,142.64550264550266 194.2857142857143,143.2804232804233" style="fill:none; stroke:#000011; stroke-width:1.0" /><polyline points="22.222222222222225,191.32275132275134 22.433862433862437,191.95767195767198 22.645502645502646,192.5925925925926 23.06878306878307,193.22751322751324 23.280423280423282,193.86243386243387 23.492063492063494,194.4973544973545 23.703703703703706,195.13227513227514 24.12698412698413,195.76719576719577 24.338624338624342,196.4021164021164 24.55026455026455,197.03703703703704 24.761904761904763,197.6719576719577 24.973544973544975,198.30687830687833 25.185185185185187,198.94179894179896" style="fill:none; stroke:#001100; stroke-width:1.0" /><polyline points="37.67195767195768,197.8835978835979 37.03703703703704,198.0952380952381 36.402116402116405,198.30687830687833 35.76719576719577,198.51851851851853 35.13227513227513,198.73015873015873 34.4973544973545,198.94179894179896 33.86243386243387,199.15343915343917 33.22751322751323,199.36507936507937 32.592592592592595,199.5767195767196 31.95767195767196,199.7883597883598 31.322751322751326,200.00000000000003 30.68783068783069,200.42328042328043 30.052910052910054,200.63492063492066" style="fill:none; stroke:#000011; stroke-width:1.0" /><polyline points="5.502645502645503,83.17460317460318 -13.756613756613758,92.06349206349208" style="fill:none; stroke:#ffaa00; stroke-width:0.4" /><polyline points="2.53968253968254,88.04232804232805 4.656084656084657,67.08994708994709" style="fill:none; stroke:#aaff00; stroke-width:0.4" /><polyline points="129.31216931216932,2.9629629629629632 118.30687830687832,-15.238095238095239" style="fill:none; stroke:#ffaa00; stroke-width:0.4" /><polyline points="124.02116402116403,1.4814814814814816 142.01058201058203,-9.735449735449736" style="fill:none; stroke:#aaff00; stroke-width:0.4" /><polyline points="191.95767195767198,147.51322751322752 212.27513227513228,141.7989417989418" style="fill:none; stroke:#ffaa00; stroke-width:0.4" /><polyline points="194.2857142857143,143.2804232804233 202.11640211640213,162.96296296296296" style="fill:none; stroke:#aaff00; stroke-width:0.4" /><polyline points="25.185185185185187,198.94179894179896 32.804232804232804,218.62433862433863" style="fill:none; stroke:#ffaa00; stroke-width:0.4" /><polyline points="30.052910052910054,200.63492063492066 10.15873015873016,207.83068783068785" style="fill:none; stroke:#aaff00; stroke-width:0.4" /><circle cx="91.21693121693123" cy="113.86243386243387" r="1.0" style="fill:#444444; stroke-width:0" /><circle cx="91.42857142857143" cy="132.6984126984127" r="10.582010582010582" style="fill:#ff770022; stroke-width:0" /><circle cx="91.42857142857143" cy="132.6984126984127" r="1.0" style="fill:#ff7700; stroke-width:0" /></svg>