<?xml version="1.0" encoding="UTF-8" standalone="no"?><svg width="506.6666666666667" height="539.047619047619" viewBox="-10 -10 188.8888888888889 199.6825396825397" xmlns="http://www.w3.org/2000/svg" xmlns:xlink="http://www.w3.org/1999/xlink"><polyline points="23.915343915343918,21.375661375661377 27.513227513227516,19.682539682539684 28.14814814814815,19.47089947089947 28.783068783068785,19.25925925925926 29.41798941798942,18.83597883597884 30.052910052910054,18.83597883597884 30.476190476190478,18.412698412698415 31.111111111111114,18.201058201058203 31.746031746031747,17.77777777777778 32.38095238095239,17.566137566137566 33.01587301587302,17.142857142857146 33.65079365079365,16.931216931216934 34.28571428571429,16.50793650793651 34.920634920634924,16.296296296296298 35.34391534391535,15.873015873015873 35.97883597883598,15.449735449735451 36.613756613756614,15.238095238095239 37.248677248677254,14.814814814814817 37.883597883597886,14.603174603174605 38.51851851851852,14.17989417989418 39.15343915343916,13.96825396825397 39.78835978835979,13.544973544973546 40.423280423280424,13.121693121693122 41.058201058201064,12.910052910052912 41.6931216931217,12.6984126984127 42.32804232804233,12.275132275132275 42.96296296296297,12.063492063492065 43.5978835978836,11.640211640211641 44.232804232804234,11.428571428571429 44.867724867724874,11.216931216931219 45.29100529100529,10.793650793650794 45.92592592592593,10.582010582010582 46.560846560846564,10.15873015873016 47.195767195767196,9.947089947089948 47.830687830687836,9.735449735449736 48.46560846560847,9.523809523809524 49.1005291005291,9.312169312169313 49.73544973544974,8.88888888888889 50.370370370370374,8.677248677248677 51.00529100529101,8.465608465608467 51.640211640211646,8.253968253968255 52.27513227513228,8.042328042328043 52.91005291005291,7.830687830687832 53.54497354497355,7.6190476190476195 54.179894179894184,7.195767195767196 54.81481481481482,7.195767195767196 55.449735449735456,6.984126984126985 56.08465608465609,6.984126984126985 56.71957671957672,6.772486772486773 57.35449735449736,6.772486772486773 57.989417989417994,6.772486772486773 58.62433862433863,6.772486772486773 59.25925925925927,6.772486772486773 59.8941798941799,6.772486772486773 60.52910052910053,6.984126984126985 61.16402116402117,7.195767195767196 61.798941798941804,7.6190476190476195 62.43386243386244,8.042328042328043 62.85714285714286,8.465608465608467 63.280423280423285,8.88888888888889 63.70370370370371,9.523809523809524 63.91534391534392,10.15873015873016 64.12698412698413,10.793650793650794 64.12698412698413,11.428571428571429 64.12698412698413,12.063492063492065 64.12698412698413,12.6984126984127 64.12698412698413,13.333333333333334 63.91534391534392,13.96825396825397 63.91534391534392,14.603174603174605 63.70370370370371,15.238095238095239 63.70370370370371,15.873015873015873 63.492063492063494,16.50793650793651 63.280423280423285,17.142857142857146 63.280423280423285,17.77777777777778 63.06878306878308,18.412698412698415 63.06878306878308,19.047619047619047 62.85714285714286,19.682539682539684 62.85714285714286,20.31746031746032 62.64550264550265,20.952380952380953 62.64550264550265,21.58730158730159 62.64550264550265,22.222222222222225 62.43386243386244,22.857142857142858 62.43386243386244,23.492063492063494 62.43386243386244,24.12698412698413 62.43386243386244,24.761904761904763 62.22222222222223,25.3968253968254 62.22222222222223,26.031746031746035 62.22222222222223,26.666666666666668 62.22222222222223,27.301587301587304 62.22222222222223,27.93650793650794 62.22222222222223,28.571428571428573 62.22222222222223,29.20634920634921 62.22222222222223,29.841269841269842 62.22222222222223,30.476190476190478 62.43386243386244,31.111111111111114 62.64550264550265,31.746031746031747 62.64550264550265,32.38095238095239 62.85714285714286,33.01587301587302 62.85714285714286,33.65079365079365 63.280423280423285,34.28571428571429 63.492063492063494,34.920634920634924 63.91534391534392,35.55555555555556 64.12698412698413,36.19047619047619 64.55026455026456,36.613756613756614 64.97354497354497,37.03703703703704 65.3968253968254,37.46031746031746 65.82010582010582,37.883597883597886 66.45502645502646,38.30687830687831 67.08994708994709,38.730158730158735 67.72486772486774,39.15343915343916 68.35978835978837,39.57671957671958 68.994708994709,39.78835978835979 69.62962962962963,40.211640211640216 70.26455026455027,40.423280423280424 70.8994708994709,40.63492063492064 71.53439153439155,40.84656084656085 72.16931216931218,41.058201058201064 72.80423280423281,41.058201058201064 73.43915343915344,41.26984126984127 74.07407407407408,41.26984126984127 74.70899470899471,41.48148148148149 75.34391534391536,41.6931216931217 75.97883597883599,41.6931216931217 76.61375661375662,41.904761904761905 77.24867724867725,41.904761904761905 77.88359788359789,41.904761904761905 78.51851851851852,42.11640211640212 79.15343915343917,42.11640211640212 79.7883597883598,42.11640211640212 80.42328042328043,42.11640211640212 81.05820105820106,42.32804232804233 81.6931216931217,42.32804232804233 82.32804232804233,42.32804232804233 82.96296296296298,42.11640211640212 83.59788359788361,42.11640211640212 84.23280423280424,42.11640211640212 84.86772486772487,42.11640211640212 85.5026455026455,42.11640211640212 86.13756613756614,41.904761904761905 86.77248677248677,41.904761904761905 87.40740740740742,41.6931216931217 88.04232804232805,41.6931216931217 88.67724867724868,41.48148148148149 89.31216931216932,41.058201058201064 89.94708994708995,40.84656084656085 90.58201058201058,40.84656084656085 91.21693121693123,40.63492063492064 91.85185185185186,40.423280423280424 92.4867724867725,40.211640211640216 92.91005291005291,39.78835978835979 93.54497354497356,39.57671957671958 94.17989417989419,39.15343915343916 94.81481481481482,38.94179894179894 95.44973544973546,38.51851851851852 96.08465608465609,38.095238095238095 96.71957671957672,37.883597883597886 97.35449735449737,37.46031746031746 97.989417989418,37.03703703703704 98.62433862433863,36.613756613756614 99.25925925925927,36.19047619047619 99.68253968253968,35.76719576719577 100.10582010582011,35.34391534391535 100.52910052910053,34.920634920634924 100.95238095238096,34.4973544973545 101.37566137566138,33.86243386243387 101.5873015873016,33.22751322751323 102.01058201058201,32.804232804232804 102.22222222222223,32.16931216931217 102.43386243386244,31.53439153439154 102.64550264550266,30.899470899470902 102.64550264550266,30.264550264550266 102.64550264550266,29.629629629629633 102.85714285714286,28.994708994708997 102.85714285714286,28.35978835978836 102.85714285714286,27.724867724867728 102.85714285714286,27.089947089947092 102.85714285714286,26.455026455026456 102.85714285714286,25.820105820105823 102.85714285714286,25.185185185185187 102.85714285714286,24.55026455026455 102.64550264550266,23.915343915343918 102.43386243386244,23.280423280423282 102.43386243386244,22.645502645502646 102.22222222222223,22.010582010582013 102.01058201058201,21.375661375661377 102.01058201058201,20.740740740740744 101.5873015873016,20.31746031746032 101.5873015873016,19.682539682539684 101.16402116402116,19.047619047619047 100.74074074074075,18.412698412698415 100.52910052910053,17.77777777777778 100.10582010582011,17.354497354497354 99.8941798941799,16.71957671957672 99.47089947089948,16.296296296296298 99.04761904761905,15.661375661375663 98.83597883597885,15.026455026455027 98.41269841269842,14.603174603174605 98.2010582010582,13.96825396825397 97.77777777777779,13.544973544973546 97.35449735449737,12.910052910052912 96.93121693121694,12.275132275132275 96.50793650793652,11.640211640211641 96.2962962962963,11.005291005291006 96.08465608465609,10.370370370370372 95.87301587301587,9.735449735449736 95.66137566137567,9.100529100529101 95.44973544973546,8.465608465608467 95.23809523809524,7.830687830687832 95.23809523809524,7.195767195767196 95.02645502645504,6.560846560846561 95.23809523809524,5.9259259259259265 95.02645502645504,5.291005291005291 95.23809523809524,4.656084656084657 95.23809523809524,4.021164021164021 95.44973544973546,3.3862433862433865 95.87301587301587,2.9629629629629632 96.2962962962963,2.3280423280423284 96.71957671957672,1.6931216931216932 97.14285714285715,1.26984126984127 97.77777777777779,0.8465608465608466 98.41269841269842,0.634920634920635 99.04761904761905,0.4232804232804233 99.68253968253968,0.4232804232804233 100.31746031746033,0.21164021164021166 100.95238095238096,0.21164021164021166 101.5873015873016,0.21164021164021166 102.22222222222223,0.21164021164021166 102.85714285714286,0.21164021164021166 103.4920634920635,0.21164021164021166 104.12698412698414,0.21164021164021166 104.76190476190477,0.21164021164021166 105.3968253968254,0.21164021164021166 106.03174603174604,0.21164021164021166 106.66666666666667,0.21164021164021166 107.3015873015873,0.21164021164021166 107.93650793650795,0.4232804232804233 108.57142857142858,0.634920634920635 109.20634920634922,0.634920634920635 109.84126984126985,0.634920634920635 110.47619047619048,0.8465608465608466 111.11111111111111,0.8465608465608466 111.74603174603176,1.0582010582010584 112.3809523809524,1.0582010582010584 113.01587301587303,1.26984126984127 113.65079365079366,1.26984126984127 114.28571428571429,1.26984126984127 114.92063492063492,1.26984126984127 115.55555555555557,1.4814814814814816 116.1904761904762,1.4814814814814816 116.82539682539684,1.6931216931216932 117.46031746031747,1.9047619047619049 118.0952380952381,1.9047619047619049 118.73015873015873,2.1164021164021167 119.36507936507937,2.3280423280423284 120.00000000000001,2.3280423280423284 120.63492063492065,2.53968253968254 121.26984126984128,2.7513227513227516 121.90476190476191,2.7513227513227516 122.53968253968254,2.9629629629629632 123.17460317460318,3.174603174603175 123.80952380952382,3.174603174603175 124.44444444444446,3.3862433862433865 125.07936507936509,3.597883597883598 125.71428571428572,3.597883597883598 126.34920634920636,3.8095238095238098 126.98412698412699,4.021164021164021 127.61904761904763,4.021164021164021 128.25396825396825,4.2328042328042335 128.88888888888889,4.444444444444445 129.52380952380955,4.656084656084657 130.15873015873018,4.867724867724868 130.7936507936508,4.867724867724868 131.42857142857144,5.07936507936508 132.06349206349208,5.291005291005291 132.6984126984127,5.291005291005291 133.33333333333334,5.502645502645503 133.96825396825398,5.714285714285714 134.6031746031746,5.714285714285714 135.23809523809524,5.9259259259259265 135.87301587301587,6.137566137566138 136.5079365079365,6.137566137566138 137.14285714285717,6.34920634920635 137.7777777777778,6.34920634920635 138.41269841269843,6.560846560846561 139.04761904761907,6.560846560846561 139.6825396825397,6.772486772486773 140.31746031746033,6.772486772486773 140.95238095238096,6.772486772486773 141.5873015873016,6.772486772486773 142.22222222222223,6.984126984126985 142.85714285714286,6.984126984126985 143.4920634920635,6.984126984126985 144.12698412698413,7.195767195767196 144.76190476190476,7.195767195767196 145.39682539682542,7.407407407407408 146.03174603174605,7.407407407407408 146.66666666666669,7.407407407407408 147.30158730158732,7.407407407407408 147.93650793650795,7.6190476190476195 148.57142857142858,7.6190476190476195 149.20634920634922,7.6190476190476195 149.84126984126985,7.6190476190476195 150.47619047619048,7.6190476190476195 151.11111111111111,7.6190476190476195 151.74603174603175,7.6190476190476195 152.38095238095238,7.6190476190476195 153.01587301587304,7.6190476190476195 153.65079365079367,7.6190476190476195 154.2857142857143,7.6190476190476195 154.92063492063494,7.6190476190476195 155.55555555555557,7.6190476190476195 156.1904761904762,7.6190476190476195 156.82539682539684,7.6190476190476195 157.46031746031747,7.407407407407408 158.0952380952381,7.407407407407408 158.73015873015873,7.407407407407408 159.36507936507937,7.407407407407408 160.0,7.195767195767196 162.96296296296296,6.984126984126985" style="fill:none; stroke:#cc0000; stroke-width:1.0"  /><polyline points="162.96296296296296,6.984126984126985 163.1746031746032,10.582010582010582 163.1746031746032,11.216931216931219 162.96296296296296,11.851851851851853 162.96296296296296,12.486772486772487 162.96296296296296,13.121693121693122 162.96296296296296,13.756613756613758 162.96296296296296,14.391534391534393 162.96296296296296,15.026455026455027 162.96296296296296,15.661375661375663 163.1746031746032,16.296296296296298 163.1746031746032,16.931216931216934 163.1746031746032,17.566137566137566 163.1746031746032,18.201058201058203 163.3862433862434,18.83597883597884 163.3862433862434,19.47089947089947 163.59788359788362,20.105820105820108 163.59788359788362,20.740740740740744 163.80952380952382,21.375661375661377 164.02116402116403,22.010582010582013 164.02116402116403,22.645502645502646 164.23280423280426,23.280423280423282 164.44444444444446,23.915343915343918 164.65608465608466,24.55026455026455 164.65608465608466,25.185185185185187 164.8677248677249,25.820105820105823 165.0793650793651,26.455026455026456 165.2910052910053,27.089947089947092 165.50264550264552,27.724867724867728 165.71428571428572,28.35978835978836 165.92592592592595,28.994708994708997 166.34920634920636,29.629629629629633 166.56084656084658,30.264550264550266 166.984126984127,30.899470899470902 166.984126984127,31.53439153439154 167.19576719576722,32.16931216931217 167.40740740740742,32.804232804232804 167.40740740740742,33.43915343915344 167.40740740740742,34.074074074074076 167.61904761904762,34.70899470899471 167.61904761904762,35.34391534391535 167.61904761904762,35.97883597883598 167.61904761904762,36.613756613756614 167.61904761904762,37.248677248677254 167.61904761904762,37.883597883597886 167.61904761904762,38.51851851851852 167.40740740740742,39.15343915343916 167.19576719576722,39.78835978835979 166.984126984127,40.423280423280424 166.56084656084658,41.058201058201064 166.13756613756615,41.48148148148149 165.71428571428572,42.11640211640212 165.0793650793651,42.539682539682545 164.44444444444446,42.75132275132275 163.80952380952382,43.17460317460318 163.1746031746032,43.386243386243386 162.53968253968256,43.5978835978836 161.90476190476193,43.5978835978836 161.2698412698413,43.5978835978836 160.63492063492066,43.5978835978836 160.0,43.5978835978836 159.36507936507937,43.386243386243386 158.73015873015873,43.17460317460318 158.0952380952381,42.96296296296297 157.46031746031747,42.75132275132275 156.82539682539684,42.75132275132275 156.1904761904762,42.32804232804233 155.55555555555557,42.11640211640212 154.92063492063494,41.904761904761905 154.2857142857143,41.6931216931217 153.65079365079367,41.48148148148149 153.01587301587304,41.48148148148149 152.38095238095238,41.26984126984127 151.74603174603175,41.058201058201064 151.11111111111111,40.84656084656085 150.47619047619048,40.63492063492064 149.84126984126985,40.423280423280424 149.20634920634922,40.423280423280424 148.57142857142858,40.211640211640216 147.93650793650795,40.211640211640216 147.30158730158732,40.0 146.66666666666669,40.0 146.03174603174605,40.0 145.39682539682542,39.78835978835979 144.76190476190476,39.78835978835979 144.12698412698413,39.78835978835979 143.4920634920635,39.78835978835979 142.85714285714286,39.78835978835979 142.22222222222223,39.57671957671958 141.5873015873016,39.57671957671958 140.95238095238096,39.78835978835979 140.31746031746033,39.78835978835979 139.6825396825397,40.0 139.04761904761907,40.211640211640216 138.41269841269843,40.211640211640216 137.7777777777778,40.423280423280424 137.14285714285717,40.63492063492064 136.5079365079365,40.84656084656085 135.87301587301587,41.26984126984127 135.23809523809524,41.48148148148149 134.6031746031746,41.904761904761905 133.96825396825398,42.32804232804233 133.54497354497354,42.75132275132275 133.12169312169314,43.17460317460318 132.6984126984127,43.5978835978836 132.27513227513228,44.021164021164026 131.85185185185185,44.65608465608466 131.42857142857144,45.29100529100529 131.21693121693121,45.92592592592593 130.7936507936508,46.560846560846564 130.58201058201058,47.195767195767196 130.37037037037038,47.830687830687836 130.15873015873018,48.46560846560847 129.94708994708995,49.1005291005291 129.94708994708995,49.73544973544974 129.73544973544975,50.370370370370374 129.52380952380955,51.00529100529101 129.52380952380955,51.640211640211646 129.31216931216932,52.27513227513228 129.31216931216932,52.91005291005291 129.10052910052912,53.54497354497355 129.10052910052912,54.179894179894184 129.10052910052912,54.81481481481482 128.88888888888889,55.449735449735456 128.88888888888889,56.08465608465609 128.88888888888889,56.71957671957672 128.67724867724868,57.35449735449736 128.67724867724868,57.989417989417994 128.67724867724868,58.62433862433863 128.88888888888889,59.25925925925927 128.88888888888889,59.8941798941799 128.88888888888889,60.52910052910053 128.88888888888889,61.16402116402117 128.88888888888889,61.798941798941804 129.10052910052912,62.43386243386244 129.10052910052912,63.06878306878308 129.10052910052912,63.70370370370371 129.31216931216932,64.33862433862434 129.31216931216932,64.97354497354497 129.73544973544975,65.3968253968254 129.73544973544975,66.03174603174604 129.94708994708995,66.66666666666667 130.15873015873018,67.3015873015873 130.37037037037038,67.93650793650794 130.58201058201058,68.57142857142858 130.7936507936508,69.20634920634922 131.005291005291,69.84126984126985 131.005291005291,70.47619047619048 131.21693121693121,71.11111111111111 131.64021164021165,71.74603174603175 132.06349206349208,72.38095238095238 132.27513227513228,73.01587301587303 132.6984126984127,73.65079365079366 133.12169312169314,74.07407407407408 133.54497354497354,74.70899470899471 133.96825396825398,75.13227513227514 134.3915343915344,75.55555555555556 135.02645502645504,75.97883597883599 135.66137566137567,76.4021164021164 136.2962962962963,76.61375661375662 136.93121693121694,76.82539682539684 137.56613756613757,77.03703703703704 138.2010582010582,77.24867724867725 138.83597883597884,77.24867724867725 139.47089947089947,77.46031746031747 140.10582010582013,77.46031746031747 140.74074074074076,77.24867724867725 141.3756613756614,77.24867724867725 142.01058201058203,77.03703703703704 142.64550264550266,77.03703703703704 143.2804232804233,77.03703703703704 143.91534391534393,76.82539682539684 144.55026455026456,76.82539682539684 145.1851851851852,76.61375661375662 145.82010582010582,76.4021164021164 146.45502645502646,76.19047619047619 147.0899470899471,75.97883597883599 147.72486772486775,75.76719576719577 148.35978835978838,75.55555555555556 148.99470899470901,75.34391534391536 149.62962962962965,75.13227513227514 150.26455026455028,74.92063492063492 150.8994708994709,74.49735449735451 151.53439153439155,74.28571428571429 152.16931216931218,74.07407407407408 152.8042328042328,73.86243386243387 153.43915343915344,73.65079365079366 154.07407407407408,73.22751322751323 154.7089947089947,73.01587301587303 155.34391534391534,72.80423280423281 155.978835978836,72.5925925925926 156.61375661375664,72.38095238095238 157.24867724867727,71.95767195767196 157.8835978835979,71.74603174603175 158.51851851851853,71.53439153439155 159.15343915343917,71.32275132275133 159.7883597883598,71.11111111111111 160.42328042328043,70.8994708994709 161.05820105820106,70.8994708994709 161.6931216931217,70.6878306878307 162.32804232804233,70.8994708994709 162.96296296296296,70.8994708994709 163.59788359788362,71.11111111111111 164.23280423280426,71.32275132275133 164.8677248677249,71.53439153439155 165.50264550264552,71.95767195767196 165.92592592592595,72.38095238095238 166.34920634920636,72.80423280423281 166.7724867724868,73.22751322751323 167.19576719576722,73.86243386243387 167.61904761904762,74.49735449735451 167.83068783068785,75.13227513227514 168.04232804232805,75.76719576719577 168.04232804232805,76.4021164021164 168.25396825396825,77.03703703703704 168.46560846560848,77.67195767195767 168.46560846560848,78.30687830687832 168.46560846560848,78.94179894179895 168.46560846560848,79.57671957671958 168.46560846560848,80.21164021164022 168.46560846560848,80.84656084656085 168.46560846560848,81.48148148148148 168.46560846560848,82.11640211640213 168.46560846560848,82.75132275132276 168.46560846560848,83.3862433862434 168.46560846560848,84.02116402116403 168.46560846560848,84.65608465608466 168.46560846560848,85.29100529100529 168.46560846560848,85.92592592592594 168.46560846560848,86.56084656084657 168.46560846560848,87.1957671957672 168.46560846560848,87.83068783068784 168.46560846560848,88.46560846560847 168.25396825396825,89.1005291005291 168.25396825396825,89.73544973544975 168.25396825396825,90.37037037037038 168.25396825396825,91.00529100529101 168.25396825396825,91.64021164021165 168.25396825396825,92.27513227513228 168.25396825396825,92.91005291005291 168.25396825396825,93.54497354497356 168.25396825396825,94.17989417989419 168.25396825396825,94.81481481481482 168.25396825396825,95.44973544973546 168.25396825396825,96.08465608465609 168.25396825396825,96.71957671957672 168.04232804232805,97.35449735449737 168.04232804232805,97.989417989418 168.04232804232805,98.62433862433863 168.04232804232805,99.25925925925927 168.04232804232805,99.8941798941799 168.25396825396825,100.52910052910053 168.25396825396825,101.16402116402116 168.25396825396825,101.79894179894181 168.25396825396825,102.43386243386244 168.25396825396825,103.06878306878308 168.25396825396825,103.70370370370371 168.04232804232805,104.33862433862434 168.04232804232805,104.97354497354497 168.04232804232805,105.60846560846562 168.04232804232805,106.24338624338625 168.04232804232805,106.87830687830689 168.04232804232805,107.51322751322752 168.04232804232805,108.14814814814815 168.04232804232805,108.78306878306879 168.04232804232805,109.41798941798943 168.04232804232805,110.05291005291006 167.83068783068785,110.6878306878307 167.83068783068785,111.32275132275133 167.83068783068785,111.95767195767196 167.83068783068785,112.5925925925926 167.83068783068785,113.22751322751324 167.83068783068785,113.86243386243387 167.83068783068785,114.49735449735451 167.83068783068785,115.13227513227514 167.83068783068785,115.76719576719577 167.83068783068785,116.4021164021164 167.83068783068785,117.03703703703705 167.83068783068785,117.67195767195768 167.61904761904762,121.6931216931217" style="fill:none; stroke:#999900; stroke-width:1.0"  /><polyline points="167.61904761904762,121.6931216931217 164.8677248677249,121.05820105820106 164.23280423280426,120.84656084656086 163.59788359788362,120.84656084656086 162.96296296296296,120.63492063492065 162.32804232804233,120.63492063492065 161.6931216931217,120.42328042328043 161.05820105820106,120.21164021164022 160.42328042328043,120.00000000000001 159.7883597883598,120.00000000000001 159.15343915343917,119.7883597883598 158.51851851851853,119.57671957671958 157.8835978835979,119.57671957671958 157.24867724867727,119.36507936507937 156.61375661375664,119.36507936507937 155.978835978836,119.15343915343917 155.34391534391534,119.15343915343917 154.7089947089947,118.94179894179895 154.07407407407408,118.73015873015873 153.43915343915344,118.73015873015873 152.8042328042328,118.51851851851853 152.16931216931218,118.51851851851853 151.53439153439155,118.30687830687832 150.8994708994709,118.0952380952381 150.26455026455028,118.0952380952381 149.62962962962965,117.88359788359789 148.99470899470901,117.88359788359789 148.35978835978838,117.67195767195768 147.72486772486775,117.46031746031747 147.0899470899471,117.46031746031747 146.45502645502646,117.24867724867725 145.82010582010582,117.03703703703705 145.1851851851852,117.03703703703705 144.55026455026456,116.82539682539684 143.91534391534393,116.82539682539684 143.2804232804233,116.61375661375662 142.64550264550266,116.4021164021164 142.01058201058203,116.4021164021164 141.3756613756614,116.1904761904762 140.74074074074076,116.1904761904762 140.10582010582013,116.4021164021164 139.47089947089947,116.1904761904762 138.83597883597884,116.1904761904762 138.2010582010582,115.97883597883599 137.56613756613757,115.97883597883599 136.93121693121694,115.76719576719577 136.2962962962963,115.76719576719577 135.66137566137567,115.76719576719577 135.02645502645504,115.76719576719577 134.3915343915344,115.76719576719577 133.75661375661377,115.76719576719577 133.12169312169314,115.55555555555557 132.4867724867725,115.55555555555557 131.85185185185185,115.55555555555557 131.21693121693121,115.55555555555557 130.58201058201058,115.55555555555557 129.94708994708995,115.76719576719577 129.31216931216932,115.76719576719577 128.67724867724868,115.76719576719577 128.04232804232805,115.76719576719577 127.40740740740742,115.76719576719577 126.77248677248679,115.76719576719577 126.13756613756615,115.76719576719577 125.5026455026455,115.76719576719577 124.86772486772487,115.76719576719577 124.23280423280424,115.76719576719577 123.59788359788361,115.76719576719577 122.96296296296298,115.97883597883599 122.32804232804234,115.97883597883599 121.6931216931217,116.1904761904762 121.05820105820106,116.1904761904762 120.42328042328043,116.1904761904762 119.7883597883598,116.4021164021164 119.15343915343917,116.61375661375662 118.51851851851853,116.4021164021164 117.88359788359789,116.4021164021164 117.24867724867725,116.61375661375662 116.61375661375662,116.61375661375662 115.97883597883599,116.82539682539684 115.34391534391536,116.82539682539684 114.70899470899472,117.03703703703705 114.07407407407408,117.24867724867725 113.43915343915344,117.24867724867725 112.80423280423281,117.46031746031747 112.16931216931218,117.67195767195768 111.53439153439155,117.67195767195768 110.89947089947091,117.88359788359789 110.26455026455027,118.0952380952381 109.62962962962963,118.30687830687832 108.994708994709,118.51851851851853 108.35978835978837,118.73015873015873 107.72486772486774,118.94179894179895 107.0899470899471,119.15343915343917 106.45502645502647,119.36507936507937 105.82010582010582,119.57671957671958 105.3968253968254,120.00000000000001 104.76190476190477,120.21164021164022 104.12698412698414,120.42328042328043 103.4920634920635,120.63492063492065 102.85714285714286,121.05820105820106 102.22222222222223,121.26984126984128 101.5873015873016,121.4814814814815 100.95238095238096,121.90476190476191 100.31746031746033,122.32804232804234 99.68253968253968,122.75132275132276 99.25925925925927,123.17460317460318 98.83597883597885,123.80952380952382 98.41269841269842,124.44444444444446 98.2010582010582,125.07936507936509 97.989417989418,125.71428571428572 97.77777777777779,126.34920634920636 97.77777777777779,126.98412698412699 97.77777777777779,127.61904761904763 97.77777777777779,128.25396825396825 97.77777777777779,128.88888888888889 97.989417989418,129.52380952380955 98.2010582010582,130.15873015873018 98.41269841269842,130.7936507936508 98.83597883597885,131.42857142857144 99.04761904761905,132.06349206349208 99.47089947089948,132.6984126984127 99.8941798941799,133.33333333333334 100.10582010582011,133.96825396825398 100.52910052910053,134.3915343915344 100.95238095238096,134.81481481481484 101.37566137566138,135.44973544973547 102.01058201058201,135.87301587301587 102.43386243386244,136.5079365079365 103.06878306878308,136.93121693121694 103.4920634920635,137.35449735449737 103.91534391534393,137.7777777777778 104.33862433862434,138.2010582010582 104.97354497354497,138.62433862433863 105.3968253968254,139.04761904761907 106.03174603174604,139.25925925925927 106.66666666666667,139.6825396825397 107.3015873015873,140.10582010582013 107.93650793650795,140.52910052910053 108.57142857142858,140.74074074074076 108.994708994709,141.16402116402116 109.62962962962963,141.5873015873016 110.26455026455027,142.01058201058203 110.6878306878307,142.43386243386246 111.11111111111111,142.85714285714286 111.53439153439155,143.2804232804233 111.95767195767196,143.70370370370372 112.3809523809524,144.12698412698413 112.80423280423281,144.55026455026456 113.22751322751324,145.1851851851852 113.65079365079366,145.60846560846562 114.07407407407408,146.24338624338625 114.49735449735451,146.8783068783069 114.92063492063492,147.51322751322752 115.34391534391536,148.14814814814815 115.55555555555557,148.78306878306879 115.97883597883599,149.20634920634922 116.1904761904762,149.84126984126985 116.61375661375662,150.47619047619048 116.82539682539684,151.11111111111111 117.03703703703705,151.74603174603175 117.24867724867725,152.38095238095238 117.46031746031747,153.01587301587304 117.67195767195768,153.65079365079367 117.88359788359789,154.2857142857143 118.0952380952381,154.92063492063494 118.0952380952381,155.55555555555557 118.30687830687832,156.1904761904762 118.30687830687832,156.82539682539684 118.30687830687832,157.46031746031747 118.0952380952381,158.0952380952381 118.0952380952381,158.73015873015873 118.0952380952381,159.36507936507937 117.88359788359789,160.0 117.67195767195768,160.63492063492066 117.67195767195768,161.2698412698413 117.46031746031747,161.90476190476193 117.24867724867725,162.53968253968256 117.03703703703705,163.1746031746032 116.82539682539684,163.80952380952382 116.61375661375662,164.44444444444446 116.4021164021164,165.0793650793651 115.97883597883599,165.71428571428572 115.76719576719577,166.34920634920636 115.34391534391536,166.984126984127 115.13227513227514,167.61904761904762 114.70899470899472,168.25396825396825 114.28571428571429,168.8888888888889 113.86243386243387,169.52380952380955 113.43915343915344,170.15873015873018 113.22751322751324,170.7936507936508 112.80423280423281,171.21693121693124 112.3809523809524,171.85185185185188 111.95767195767196,172.27513227513228 111.53439153439155,172.6984126984127 111.11111111111111,173.12169312169314 110.6878306878307,173.54497354497354 110.26455026455027,173.96825396825398 109.62962962962963,174.3915343915344 109.20634920634922,174.81481481481484 108.57142857142858,175.23809523809524 107.93650793650795,175.66137566137567 107.3015873015873,175.87301587301587 106.87830687830689,176.2962962962963 106.24338624338625,176.50793650793653 105.60846560846562,176.93121693121694 105.18518518518519,177.35449735449737 104.55026455026456,177.7777777777778 103.91534391534393,177.989417989418 103.28042328042329,178.2010582010582 102.64550264550266,178.2010582010582 102.01058201058201,178.41269841269843 101.37566137566138,178.62433862433863 100.74074074074075,178.83597883597884 100.10582010582011,178.83597883597884 99.47089947089948,179.04761904761907 98.83597883597885,179.04761904761907 98.2010582010582,179.25925925925927 97.56613756613757,179.25925925925927 96.93121693121694,179.25925925925927 96.2962962962963,179.25925925925927 95.66137566137567,179.25925925925927 95.02645502645504,179.25925925925927 94.39153439153439,179.25925925925927 93.75661375661376,179.25925925925927 93.12169312169313,179.25925925925927 92.4867724867725,178.83597883597884 91.85185185185186,178.83597883597884 91.21693121693123,178.62433862433863 90.58201058201058,178.2010582010582 89.94708994708995,177.989417989418 89.31216931216932,177.7777777777778 88.67724867724868,177.35449735449737 88.04232804232805,177.14285714285717 87.40740740740742,176.71957671957674 86.77248677248677,176.2962962962963 86.13756613756614,175.87301587301587 85.5026455026455,175.66137566137567 85.07936507936509,175.23809523809524 84.65608465608466,174.81481481481484 84.23280423280424,174.3915343915344 83.80952380952381,173.96825396825398 83.3862433862434,173.33333333333334 82.96296296296298,172.6984126984127 82.75132275132276,172.06349206349208 82.53968253968254,171.42857142857144 82.11640211640213,170.7936507936508 81.6931216931217,170.37037037037038 81.6931216931217,169.73544973544975 81.48148148148148,169.10052910052912 81.05820105820106,168.46560846560848 80.84656084656085,167.83068783068785 80.84656084656085,167.19576719576722 80.63492063492065,166.56084656084658 80.42328042328043,165.92592592592595 80.21164021164022,165.2910052910053 80.21164021164022,164.65608465608466 80.0,164.02116402116403 80.0,163.3862433862434 80.0,162.75132275132276 79.7883597883598,162.11640211640213 79.7883597883598,161.4814814814815 79.7883597883598,160.84656084656086 79.7883597883598,160.21164021164023 79.7883597883598,159.5767195767196 79.7883597883598,158.94179894179896 79.7883597883598,158.30687830687833 79.7883597883598,157.67195767195767 79.7883597883598,157.03703703703704 80.0,156.4021164021164 80.0,155.76719576719577 80.0,155.13227513227514 80.21164021164022,154.4973544973545 80.21164021164022,153.86243386243387 80.21164021164022,153.22751322751324 80.21164021164022,152.5925925925926 80.21164021164022,151.95767195767198 80.21164021164022,151.32275132275134 80.21164021164022,150.6878306878307 80.21164021164022,150.05291005291005 80.42328042328043,149.41798941798942 80.42328042328043,148.78306878306879 80.42328042328043,148.14814814814815 80.21164021164022,147.51322751322752 80.21164021164022,146.8783068783069 80.21164021164022,146.24338624338625 80.0,145.60846560846562 79.7883597883598,144.973544973545 79.57671957671958,144.33862433862436 79.15343915343917,143.70370370370372 78.94179894179895,143.0687830687831 78.51851851851852,142.64550264550266 78.0952380952381,142.22222222222223 77.67195767195767,141.7989417989418 77.24867724867725,141.3756613756614 76.82539682539684,140.95238095238096 76.19047619047619,140.74074074074076 75.55555555555556,140.52910052910053 74.92063492063492,140.10582010582013 74.28571428571429,139.8941798941799 73.65079365079366,139.6825396825397 73.01587301587303,139.47089947089947 72.38095238095238,139.25925925925927 71.74603174603175,139.04761904761907 71.11111111111111,139.04761904761907 70.47619047619048,139.04761904761907 69.84126984126985,139.04761904761907 69.20634920634922,139.04761904761907 68.57142857142858,138.83597883597884 67.93650793650794,138.83597883597884 67.3015873015873,138.83597883597884 66.66666666666667,138.83597883597884 66.03174603174604,138.83597883597884 65.3968253968254,138.83597883597884 64.76190476190477,138.83597883597884 64.12698412698413,139.04761904761907 63.492063492063494,139.04761904761907 62.85714285714286,139.25925925925927 62.22222222222223,139.25925925925927 61.58730158730159,139.47089947089947 60.952380952380956,139.47089947089947 60.31746031746032,139.47089947089947 59.682539682539684,139.6825396825397 59.04761904761905,139.6825396825397 58.41269841269842,139.6825396825397 57.777777777777786,139.8941798941799 57.142857142857146,139.8941798941799 56.50793650793651,139.8941798941799 55.87301587301588,140.10582010582013 55.23809523809524,140.10582010582013 54.60317460317461,140.10582010582013 53.968253968253975,140.31746031746033 53.333333333333336,140.31746031746033 52.6984126984127,140.52910052910053 52.06349206349207,140.52910052910053 51.42857142857143,140.74074074074076 50.7936507936508,140.74074074074076 50.158730158730165,140.95238095238096 49.523809523809526,140.95238095238096 48.88888888888889,141.16402116402116 48.25396825396826,141.16402116402116 47.61904761904762,141.3756613756614 46.98412698412699,141.5873015873016 46.349206349206355,141.5873015873016 45.714285714285715,141.5873015873016 45.07936507936508,141.7989417989418 44.44444444444445,142.01058201058203 43.80952380952381,142.01058201058203 43.17460317460318,142.22222222222223 42.539682539682545,142.22222222222223 41.904761904761905,142.43386243386246 41.26984126984127,142.43386243386246 40.63492063492064,142.64550264550266 40.0,142.64550264550266 39.36507936507937,142.85714285714286 38.730158730158735,143.0687830687831 38.095238095238095,143.0687830687831 37.46031746031746,143.2804232804233 36.82539682539683,143.4920634920635 36.19047619047619,143.4920634920635 35.55555555555556,143.91534391534393 34.920634920634924,143.91534391534393 34.28571428571429,144.12698412698413 33.65079365079365,144.33862433862436 33.01587301587302,144.33862433862436 32.38095238095239,144.76190476190476 31.746031746031747,144.973544973545 31.111111111111114,145.1851851851852 30.476190476190478,145.1851851851852 29.841269841269842,145.60846560846562 29.20634920634921,145.82010582010582 28.571428571428573,145.82010582010582 27.93650793650794,146.03174603174605 27.301587301587304,146.24338624338625 26.666666666666668,146.45502645502646 26.243386243386244,146.8783068783069 25.60846560846561,146.8783068783069 24.973544973544975,147.0899470899471 20.740740740740744,148.57142857142858" style="fill:none; stroke:#00aa99; stroke-width:1.0"  /><polyline points="20.740740740740744,148.57142857142858 21.58730158730159,145.1851851851852 21.7989417989418,144.55026455026456 21.7989417989418,143.91534391534393 22.010582010582013,143.2804232804233 22.010582010582013,142.64550264550266 22.222222222222225,142.01058201058203 22.433862433862437,141.3756613756614 22.645502645502646,140.74074074074076 22.857142857142858,140.10582010582013 22.857142857142858,139.47089947089947 23.06878306878307,138.83597883597884 23.280423280423282,138.2010582010582 23.280423280423282,137.56613756613757 23.492063492063494,136.93121693121694 23.703703703703706,136.2962962962963 23.703703703703706,135.66137566137567 23.703703703703706,135.02645502645504 23.915343915343918,134.3915343915344 24.12698412698413,133.75661375661377 24.12698412698413,133.12169312169314 24.12698412698413,132.4867724867725 24.338624338624342,131.85185185185185 24.55026455026455,131.21693121693121 24.761904761904763,130.58201058201058 24.973544973544975,129.94708994708995 25.185185185185187,129.31216931216932 25.3968253968254,128.67724867724868 25.60846560846561,128.04232804232805 25.60846560846561,127.40740740740742 26.031746031746035,126.77248677248679 26.031746031746035,126.13756613756615 26.243386243386244,125.5026455026455 26.455026455026456,124.86772486772487 26.666666666666668,124.23280423280424 26.87830687830688,123.59788359788361 27.089947089947092,122.96296296296298 27.301587301587304,122.32804232804234 27.513227513227516,121.6931216931217 27.724867724867728,121.05820105820106 27.93650793650794,120.42328042328043 28.14814814814815,119.7883597883598 28.35978835978836,119.15343915343917 28.571428571428573,118.51851851851853 28.994708994708997,117.88359788359789 29.20634920634921,117.24867724867725 29.41798941798942,116.61375661375662 29.841269841269842,115.97883597883599 30.052910052910054,115.34391534391536 30.264550264550266,114.70899470899472 30.68783068783069,114.28571428571429 30.899470899470902,113.65079365079366 31.111111111111114,113.01587301587303 31.53439153439154,112.3809523809524 31.746031746031747,111.74603174603176 31.95767195767196,111.11111111111111 32.38095238095239,110.47619047619048 32.592592592592595,109.84126984126985 32.804232804232804,109.20634920634922 33.22751322751323,108.57142857142858 33.43915343915344,107.93650793650795 33.43915343915344,107.3015873015873 33.65079365079365,106.66666666666667 33.86243386243387,106.03174603174604 34.074074074074076,105.3968253968254 34.28571428571429,104.76190476190477 34.28571428571429,104.12698412698414 34.4973544973545,103.4920634920635 34.4973544973545,102.85714285714286 34.70899470899471,102.22222222222223 34.70899470899471,101.5873015873016 34.70899470899471,100.95238095238096 34.4973544973545,100.31746031746033 34.4973544973545,99.68253968253968 34.4973544973545,99.04761904761905 34.28571428571429,98.41269841269842 34.28571428571429,97.77777777777779 34.074074074074076,97.14285714285715 33.86243386243387,96.50793650793652 33.65079365079365,95.87301587301587 33.43915343915344,95.23809523809524 33.01587301587302,94.60317460317461 32.592592592592595,93.96825396825398 32.16931216931217,93.33333333333334 31.746031746031747,92.69841269841271 31.322751322751326,92.27513227513228 30.899470899470902,91.85185185185186 30.476190476190478,91.42857142857143 30.052910052910054,91.00529100529101 29.629629629629633,90.58201058201058 28.994708994708997,90.15873015873017 28.35978835978836,89.73544973544975 27.724867724867728,89.31216931216932 27.089947089947092,89.1005291005291 26.455026455026456,88.8888888888889 25.820105820105823,88.67724867724868 25.185185185185187,88.46560846560847 24.55026455026455,88.25396825396827 23.915343915343918,88.04232804232805 23.280423280423282,88.04232804232805 22.645502645502646,87.83068783068784 22.010582010582013,87.83068783068784 21.375661375661377,87.61904761904762 20.740740740740744,87.61904761904762 20.105820105820108,87.40740740740742 19.47089947089947,87.40740740740742 18.83597883597884,87.40740740740742 18.201058201058203,87.1957671957672 17.566137566137566,87.1957671957672 16.931216931216934,86.98412698412699 16.296296296296298,86.98412698412699 15.661375661375663,86.77248677248677 15.026455026455027,86.77248677248677 14.391534391534393,86.56084656084657 13.756613756613758,86.56084656084657 13.121693121693122,86.34920634920636 12.486772486772487,86.13756613756614 11.851851851851853,85.92592592592594 11.216931216931219,85.92592592592594 10.582010582010582,85.71428571428572 9.947089947089948,85.29100529100529 9.312169312169313,85.07936507936509 8.677248677248677,84.86772486772487 8.042328042328043,84.44444444444446 7.407407407407408,84.02116402116403 6.772486772486773,83.80952380952381 6.137566137566138,83.3862433862434 5.714285714285714,82.96296296296298 5.07936507936508,82.53968253968254 4.444444444444445,82.11640211640213 4.021164021164021,81.6931216931217 3.597883597883598,81.26984126984128 3.174603174603175,80.84656084656085 2.7513227513227516,80.42328042328043 2.3280423280423284,79.7883597883598 1.9047619047619049,79.15343915343917 1.4814814814814816,78.51851851851852 1.26984126984127,77.88359788359789 1.0582010582010584,77.24867724867725 0.8465608465608466,76.61375661375662 0.634920634920635,75.97883597883599 0.4232804232804233,75.34391534391536 0.4232804232804233,74.70899470899471 0.21164021164021166,74.07407407407408 0.21164021164021166,73.43915343915344 0.21164021164021166,72.80423280423281 0.21164021164021166,72.16931216931218 0.21164021164021166,71.53439153439155 0.21164021164021166,70.8994708994709 0.21164021164021166,70.26455026455027 0.4232804232804233,69.62962962962963 0.4232804232804233,68.994708994709 0.634920634920635,68.35978835978837 0.8465608465608466,67.72486772486774 0.8465608465608466,67.08994708994709 1.0582010582010584,66.45502645502646 1.4814814814814816,65.82010582010582 1.4814814814814816,65.18518518518519 1.6931216931216932,64.55026455026456 2.1164021164021167,63.91534391534392 2.53968253968254,63.280423280423285 2.9629629629629632,62.64550264550265 3.3862433862433865,62.22222222222223 3.8095238095238098,61.798941798941804 4.2328042328042335,61.37566137566138 4.656084656084657,60.952380952380956 5.291005291005291,60.52910052910053 5.9259259259259265,60.31746031746032 6.560846560846561,59.8941798941799 7.195767195767196,59.682539682539684 7.830687830687832,59.682539682539684 8.465608465608467,59.470899470899475 9.100529100529101,59.25925925925927 9.735449735449736,59.25925925925927 10.370370370370372,59.04761904761905 11.005291005291006,59.04761904761905 11.640211640211641,58.83597883597884 12.275132275132275,58.62433862433863 12.910052910052912,58.62433862433863 13.544973544973546,58.62433862433863 14.17989417989418,58.62433862433863 14.814814814814817,58.62433862433863 15.449735449735451,58.62433862433863 16.084656084656086,58.62433862433863 16.71957671957672,58.62433862433863 17.354497354497354,58.62433862433863 17.98941798941799,58.62433862433863 18.624338624338627,58.62433862433863 19.25925925925926,58.62433862433863 19.894179894179896,58.83597883597884 20.529100529100532,58.83597883597884 21.164021164021165,58.83597883597884 21.7989417989418,58.83597883597884 22.433862433862437,59.04761904761905 23.06878306878307,59.04761904761905 23.703703703703706,59.04761904761905 24.338624338624342,59.25925925925927 24.973544973544975,59.25925925925927 25.60846560846561,59.25925925925927 26.243386243386244,59.25925925925927 26.87830687830688,59.470899470899475 27.513227513227516,59.470899470899475 28.14814814814815,59.470899470899475 28.783068783068785,59.25925925925927 29.41798941798942,59.04761904761905 30.052910052910054,58.83597883597884 30.68783068783069,58.62433862433863 31.322751322751326,58.41269841269842 31.95767195767196,57.989417989417994 32.592592592592595,57.56613756613757 33.01587301587302,57.142857142857146 33.43915343915344,56.71957671957672 33.86243386243387,56.08465608465609 34.28571428571429,55.661375661375665 34.4973544973545,55.02645502645503 34.920634920634924,54.39153439153439 35.13227513227513,53.75661375661376 35.34391534391535,53.12169312169313 35.55555555555556,52.48677248677249 35.55555555555556,51.851851851851855 35.76719576719577,51.21693121693122 35.76719576719577,50.58201058201058 35.76719576719577,49.94708994708995 35.97883597883598,49.31216931216932 35.97883597883598,48.677248677248684 35.97883597883598,48.042328042328045 35.97883597883598,47.40740740740741 35.97883597883598,46.77248677248678 35.97883597883598,46.13756613756614 35.97883597883598,45.50264550264551 35.97883597883598,44.867724867724874 35.97883597883598,44.232804232804234 35.76719576719577,43.5978835978836 35.76719576719577,42.96296296296297 35.55555555555556,42.32804232804233 35.34391534391535,41.6931216931217 35.34391534391535,41.058201058201064 35.13227513227513,40.423280423280424 34.920634920634924,39.78835978835979 34.70899470899471,39.15343915343916 34.4973544973545,38.51851851851852 34.28571428571429,37.883597883597886 34.074074074074076,37.248677248677254 33.65079365079365,36.613756613756614 33.43915343915344,35.97883597883598 33.01587301587302,35.34391534391535 32.804232804232804,34.70899470899471 32.38095238095239,34.28571428571429 32.16931216931217,33.65079365079365 31.95767195767196,33.01587301587302 31.53439153439154,32.592592592592595 31.322751322751326,31.95767195767196 30.899470899470902,31.322751322751326 30.68783068783069,30.68783068783069 30.052910052910054,30.264550264550266 29.629629629629633,29.629629629629633 29.20634920634921,28.994708994708997 28.783068783068785,28.35978835978836 28.35978835978836,27.724867724867728 27.93650793650794,27.089947089947092 27.513227513227516,26.455026455026456 27.089947089947092,26.031746031746035 26.666666666666668,25.3968253968254 26.243386243386244,24.761904761904763 23.915343915343918,21.375661375661377" style="fill:none; stroke:#3300bb; stroke-width:1.0"  /><circle cx="23.915343915343918" cy="21.375661375661377" r="2.0" style="fill:none; stroke:#000000aa; stroke-width:0.25" /><circle cx="162.96296296296296" cy="6.984126984126985" r="2.0" style="fill:none; stroke:#000000aa; stroke-width:0.25" /><circle cx="167.61904761904762" cy="121.6931216931217" r="2.0" style="fill:none; stroke:#000000aa; stroke-width:0.25" /><circle cx="20.740740740740744" cy="148.57142857142858" r="2.0" style="fill:none; stroke:#000000aa; stroke-width:0.25" /><circle cx="24.338624338624342" cy="21.58730158730159" r="2.0" style="fill:none; stroke:#ff3366aa; stroke-width:0.25" /><circle cx="162.96296296296296" cy="7.407407407407408" r="2.0" style="fill:none; stroke:#ff3366aa; stroke-width:0.25" /><circle cx="167.83068783068785" cy="120.84656084656086" r="2.0" style="fill:none; stroke:#ff3366aa; stroke-width:0.25" /><circle cx="21.7989417989418" cy="148.14814814814815" r="2.0" style="fill:none; stroke:#ff3366aa; stroke-width:0.25" /><polyline points="34.920634920634924,16.296296296296298 34.28571428571429,16.50793650793651 33.65079365079365,16.931216931216934 33.01587301587302,17.142857142857146 32.38095238095239,17.566137566137566 31.746031746031747,17.77777777777778 31.111111111111114,18.201058201058203 30.476190476190478,18.412698412698415 30.052910052910054,18.83597883597884 29.41798941798942,18.83597883597884 28.783068783068785,19.25925925925926 28.14814814814815,19.47089947089947 27.513227513227516,19.682539682539684" style="fill:none; stroke:#001100; stroke-width:1.0" /><polyline points="30.899470899470902,31.322751322751326 30.68783068783069,30.68783068783069 30.052910052910054,30.264550264550266 29.629629629629633,29.629629629629633 29.20634920634921,28.994708994708997 28.783068783068785,28.35978835978836 28.35978835978836,27.724867724867728 27.93650793650794,27.089947089947092 27.513227513227516,26.455026455026456 27.089947089947092,26.031746031746035 26.666666666666668,25.3968253968254 26.243386243386244,24.761904761904763" style="fill:none; stroke:#000011; stroke-width:1.0" /><polyline points="163.3862433862434,18.83597883597884 163.1746031746032,18.201058201058203 163.1746031746032,17.566137566137566 163.1746031746032,16.931216931216934 163.1746031746032,16.296296296296298 162.96296296296296,15.661375661375663 162.96296296296296,15.026455026455027 162.96296296296296,14.391534391534393 162.96296296296296,13.756613756613758 162.96296296296296,13.121693121693122 162.96296296296296,12.486772486772487 162.96296296296296,11.851851851851853 163.1746031746032,11.216931216931219 163.1746031746032,10.582010582010582" style="fill:none; stroke:#001100; stroke-width:1.0" /><polyline points="151.11111111111111,7.6190476190476195 151.74603174603175,7.6190476190476195 152.38095238095238,7.6190476190476195 153.01587301587304,7.6190476190476195 153.65079365079367,7.6190476190476195 154.2857142857143,7.6190476190476195 154.92063492063494,7.6190476190476195 155.55555555555557,7.6190476190476195 156.1904761904762,7.6190476190476195 156.82539682539684,7.6190476190476195 157.46031746031747,7.407407407407408 158.0952380952381,7.407407407407408 158.73015873015873,7.407407407407408 159.36507936507937,7.407407407407408 160.0,7.195767195767196" style="fill:none; stroke:#000011; stroke-width:1.0" /><polyline points="155.978835978836,119.15343915343917 156.61375661375664,119.36507936507937 157.24867724867727,119.36507936507937 157.8835978835979,119.57671957671958 158.51851851851853,119.57671957671958 159.15343915343917,119.7883597883598 159.7883597883598,120.00000000000001 160.42328042328043,120.00000000000001 161.05820105820106,120.21164021164022 161.6931216931217,120.42328042328043 162.32804232804233,120.63492063492065 162.96296296296296,120.63492063492065 163.59788359788362,120.84656084656086 164.23280423280426,120.84656084656086 164.8677248677249,121.05820105820106" style="fill:none; stroke:#001100; stroke-width:1.0" /><polyline points="168.04232804232805,109.41798941798943 168.04232804232805,110.05291005291006 167.83068783068785,110.6878306878307 167.83068783068785,111.32275132275133 167.83068783068785,111.95767195767196 167.83068783068785,112.5925925925926 167.83068783068785,113.22751322751324 167.83068783068785,113.86243386243387 167.83068783068785,114.49735449735451 167.83068783068785,115.13227513227514 167.83068783068785,115.76719576719577 167.83068783068785,116.4021164021164 167.83068783068785,117.03703703703705 167.83068783068785,117.67195767195768" style="fill:none; stroke:#000011; stroke-width:1.0" /><polyline points="23.703703703703706,136.2962962962963 23.492063492063494,136.93121693121694 23.280423280423282,137.56613756613757 23.280423280423282,138.2010582010582 23.06878306878307,138.83597883597884 22.857142857142858,139.47089947089947 22.857142857142858,140.10582010582013 22.645502645502646,140.74074074074076 22.433862433862437,141.3756613756614 22.222222222222225,142.01058201058203 22.010582010582013,142.64550264550266 22.010582010582013,143.2804232804233 21.7989417989418,143.91534391534393 21.7989417989418,144.55026455026456 21.58730158730159,145.1851851851852" style="fill:none; stroke:#001100; stroke-width:1.0" /><polyline points="33.01587301587302,144.33862433862436 32.38095238095239,144.76190476190476 31.746031746031747,144.973544973545 31.111111111111114,145.1851851851852 30.476190476190478,145.1851851851852 29.841269841269842,145.60846560846562 29.20634920634921,145.82010582010582 28.571428571428573,145.82010582010582 27.93650793650794,146.03174603174605 27.301587301587304,146.24338624338625 26.666666666666668,146.45502645502646 26.243386243386244,146.8783068783069 25.60846560846561,146.8783068783069 24.973544973544975,147.0899470899471" style="fill:none; stroke:#000011; stroke-width:1.0" /><polyline points="27.513227513227516,19.682539682539684 8.253968253968255,28.571428571428573" style="fill:none; stroke:#ffaa00; stroke-width:0.4" /><polyline points="26.243386243386244,24.761904761904763 13.96825396825397,7.407407407407408" style="fill:none; stroke:#aaff00; stroke-width:0.4" /><polyline points="163.1746031746032,10.582010582010582 162.53968253968256,-10.582010582010582" style="fill:none; stroke:#ffaa00; stroke-width:0.4" /><polyline points="160.0,7.195767195767196 181.16402116402116,6.137566137566138" style="fill:none; stroke:#aaff00; stroke-width:0.4" /><polyline points="164.8677248677249,121.05820105820106 185.60846560846562,125.5026455026455" style="fill:none; stroke:#ffaa00; stroke-width:0.4" /><polyline points="167.83068783068785,117.67195767195768 167.19576719576722,138.83597883597884" style="fill:none; stroke:#aaff00; stroke-width:0.4" /><polyline points="21.58730158730159,145.1851851851852 16.71957671957672,165.71428571428572" style="fill:none; stroke:#ffaa00; stroke-width:0.4" /><polyline points="24.973544973544975,147.0899470899471 4.867724867724868,153.86243386243387" style="fill:none; stroke:#aaff00; stroke-width:0.4" /><circle cx="89.52380952380953" cy="80.84656084656085" r="1.0" style="fill:#444444; stroke-width:0" /><circle cx="75.97883597883599" cy="85.92592592592594" r="10.582010582010582" style="fill:#ff770022; stroke-width:0" /><circle cx="75.97883597883599" cy="85.92592592592594" r="1.0" style="fill:#ff7700; stroke-width:0" /></svg>