<?xml version="1.0" encoding="UTF-8" standalone="no"?><svg width="672.3809523809524" height="493.33333333333337" viewBox="-10 -10 244.12698412698415 184.44444444444446" xmlns="http://www.w3.org/2000/svg" xmlns:xlink="http://www.w3.org/1999/xlink"><polyline points="27.301587301587304,26.243386243386244 30.899470899470902,25.60846560846561 31.53439153439154,25.3968253968254 32.16931216931217,25.3968253968254 32.804232804232804,25.185185185185187 33.43915343915344,25.185185185185187 34.074074074074076,24.973544973544975 34.70899470899471,24.973544973544975 35.34391534391535,24.761904761904763 35.97883597883598,24.761904761904763 36.613756613756614,24.55026455026455 37.248677248677254,24.338624338624342 37.883597883597886,24.338624338624342 38.51851851851852,24.338624338624342 39.15343915343916,24.338624338624342 39.57671957671958,23.915343915343918 40.211640211640216,23.915343915343918 40.84656084656085,23.703703703703706 41.48148148148149,23.703703703703706 42.11640211640212,23.703703703703706 42.75132275132275,23.703703703703706 43.386243386243386,23.492063492063494 44.021164021164026,23.492063492063494 44.65608465608466,23.280423280423282 45.29100529100529,23.280423280423282 45.92592592592593,23.280423280423282 46.560846560846564,23.280423280423282 47.195767195767196,23.280423280423282 47.830687830687836,23.280423280423282 48.46560846560847,23.06878306878307 49.1005291005291,23.06878306878307 49.73544973544974,23.06878306878307 50.370370370370374,22.857142857142858 51.00529100529101,22.857142857142858 51.640211640211646,22.857142857142858 52.27513227513228,22.857142857142858 52.91005291005291,22.857142857142858 53.54497354497355,22.857142857142858 54.179894179894184,22.857142857142858 54.81481481481482,22.857142857142858 55.449735449735456,22.857142857142858 56.08465608465609,23.06878306878307 56.71957671957672,23.06878306878307 57.35449735449736,23.06878306878307 57.989417989417994,23.06878306878307 58.62433862433863,22.857142857142858 59.25925925925927,23.06878306878307 59.8941798941799,23.06878306878307 60.52910052910053,23.06878306878307 61.16402116402117,23.280423280423282 61.798941798941804,23.280423280423282 62.43386243386244,23.280423280423282 63.06878306878308,23.280423280423282 63.70370370370371,23.280423280423282 64.33862433862434,23.280423280423282 64.97354497354497,23.280423280423282 65.60846560846561,23.492063492063494 66.24338624338625,23.492063492063494 66.87830687830689,23.703703703703706 67.51322751322752,23.703703703703706 68.14814814814815,23.915343915343918 68.78306878306879,23.915343915343918 69.41798941798942,24.12698412698413 70.05291005291006,24.12698412698413 70.6878306878307,24.338624338624342 71.32275132275133,24.338624338624342 71.95767195767196,24.55026455026455 72.5925925925926,24.761904761904763 73.22751322751323,24.761904761904763 73.86243386243387,24.973544973544975 74.49735449735451,24.973544973544975 74.92063492063492,25.3968253968254 75.55555555555556,25.820105820105823 76.19047619047619,26.243386243386244 76.61375661375662,26.87830687830688 77.03703703703704,27.513227513227516 77.24867724867725,28.14814814814815 77.24867724867725,28.783068783068785 77.46031746031747,29.41798941798942 77.46031746031747,30.052910052910054 77.46031746031747,30.68783068783069 77.46031746031747,31.322751322751326 77.24867724867725,31.95767195767196 77.24867724867725,32.592592592592595 77.03703703703704,33.22751322751323 77.03703703703704,33.86243386243387 76.82539682539684,34.4973544973545 76.82539682539684,35.13227513227513 76.61375661375662,35.76719576719577 76.4021164021164,36.402116402116405 76.19047619047619,37.03703703703704 76.19047619047619,37.67195767195768 75.97883597883599,38.30687830687831 75.76719576719577,38.94179894179894 75.55555555555556,39.57671957671958 75.55555555555556,40.211640211640216 75.34391534391536,40.84656084656085 75.13227513227514,41.48148148148149 75.13227513227514,42.11640211640212 74.92063492063492,42.75132275132275 75.13227513227514,43.386243386243386 75.13227513227514,44.021164021164026 74.92063492063492,44.65608465608466 74.92063492063492,45.29100529100529 74.92063492063492,45.92592592592593 74.92063492063492,46.560846560846564 74.92063492063492,47.195767195767196 74.92063492063492,47.830687830687836 75.13227513227514,48.46560846560847 75.13227513227514,49.1005291005291 75.34391534391536,49.73544973544974 75.34391534391536,50.370370370370374 75.76719576719577,51.00529100529101 75.97883597883599,51.640211640211646 76.19047619047619,52.27513227513228 76.61375661375662,52.91005291005291 77.03703703703704,53.54497354497355 77.46031746031747,54.179894179894184 77.88359788359789,54.81481481481482 78.30687830687832,55.23809523809524 78.73015873015873,55.661375661375665 79.15343915343917,56.08465608465609 79.7883597883598,56.50793650793651 80.42328042328043,56.93121693121694 81.05820105820106,57.142857142857146 81.6931216931217,57.35449735449736 82.32804232804233,57.35449735449736 82.75132275132276,57.777777777777786 83.3862433862434,57.777777777777786 84.02116402116403,57.989417989417994 84.65608465608466,57.989417989417994 85.29100529100529,58.2010582010582 85.92592592592594,58.2010582010582 86.56084656084657,58.2010582010582 87.1957671957672,58.2010582010582 87.83068783068784,58.2010582010582 88.46560846560847,58.41269841269842 88.8888888888889,57.989417989417994 89.52380952380953,58.2010582010582 90.15873015873017,58.2010582010582 90.7936507936508,58.2010582010582 91.42857142857143,58.2010582010582 92.06349206349208,57.989417989417994 92.69841269841271,57.989417989417994 93.33333333333334,57.777777777777786 93.96825396825398,57.777777777777786 94.60317460317461,57.777777777777786 95.23809523809524,57.777777777777786 95.66137566137567,57.35449735449736 96.2962962962963,57.35449735449736 96.93121693121694,57.142857142857146 97.56613756613757,56.93121693121694 98.2010582010582,56.93121693121694 98.83597883597885,56.71957671957672 99.47089947089948,56.50793650793651 99.8941798941799,56.08465608465609 100.52910052910053,56.08465608465609 101.16402116402116,55.87301587301588 101.79894179894181,55.661375661375665 102.43386243386244,55.23809523809524 103.06878306878308,55.23809523809524 103.4920634920635,54.81481481481482 104.12698412698414,54.60317460317461 104.76190476190477,54.39153439153439 105.3968253968254,53.968253968253975 106.03174603174604,53.54497354497355 106.66666666666667,53.12169312169313 107.0899470899471,52.6984126984127 107.51322751322752,52.27513227513228 107.93650793650795,51.851851851851855 108.35978835978837,51.42857142857143 108.78306878306879,50.7936507936508 108.994708994709,50.158730158730165 109.41798941798943,49.523809523809526 109.41798941798943,48.88888888888889 109.62962962962963,48.25396825396826 109.84126984126985,47.61904761904762 109.84126984126985,46.98412698412699 109.84126984126985,46.349206349206355 110.05291005291006,45.714285714285715 110.05291005291006,45.07936507936508 109.84126984126985,44.44444444444445 109.84126984126985,43.80952380952381 109.84126984126985,43.17460317460318 109.41798941798943,42.75132275132275 109.20634920634922,42.11640211640212 108.994708994709,41.48148148148149 108.78306878306879,40.84656084656085 108.57142857142858,40.211640211640216 108.35978835978837,39.57671957671958 107.93650793650795,38.94179894179894 107.72486772486774,38.30687830687831 107.3015873015873,37.67195767195768 106.87830687830689,37.03703703703704 106.45502645502647,36.402116402116405 106.24338624338625,35.76719576719577 105.82010582010582,35.13227513227513 105.3968253968254,34.4973544973545 104.97354497354497,33.86243386243387 104.55026455026456,33.22751322751323 104.12698412698414,32.592592592592595 103.70370370370371,31.95767195767196 103.4920634920635,31.322751322751326 103.06878306878308,30.899470899470902 102.64550264550266,30.264550264550266 102.22222222222223,29.629629629629633 101.79894179894181,28.994708994708997 101.5873015873016,28.35978835978836 101.16402116402116,27.93650793650794 100.74074074074075,27.301587301587304 100.52910052910053,26.666666666666668 100.31746031746033,26.031746031746035 100.10582010582011,25.3968253968254 99.8941798941799,24.761904761904763 99.68253968253968,24.12698412698413 99.68253968253968,23.492063492063494 99.68253968253968,22.857142857142858 99.68253968253968,22.222222222222225 99.68253968253968,21.58730158730159 99.8941798941799,20.952380952380953 100.31746031746033,20.31746031746032 100.74074074074075,19.682539682539684 101.16402116402116,19.25925925925926 101.5873015873016,18.83597883597884 102.01058201058201,18.412698412698415 102.43386243386244,17.98941798941799 103.06878306878308,17.98941798941799 103.4920634920635,17.566137566137566 104.12698412698414,17.566137566137566 104.76190476190477,17.142857142857146 105.3968253968254,16.931216931216934 106.03174603174604,16.71957671957672 106.66666666666667,16.50793650793651 107.3015873015873,16.296296296296298 107.93650793650795,16.084656084656086 108.57142857142858,15.873015873015873 109.20634920634922,15.661375661375663 109.62962962962963,15.238095238095239 110.26455026455027,15.026455026455027 110.89947089947091,14.814814814814817 111.53439153439155,14.814814814814817 111.95767195767196,14.391534391534393 112.5925925925926,14.391534391534393 113.22751322751324,13.96825396825397 113.86243386243387,13.756613756613758 114.49735449735451,13.756613756613758 115.13227513227514,13.544973544973546 115.76719576719577,13.333333333333334 116.4021164021164,13.121693121693122 117.03703703703705,13.121693121693122 117.46031746031747,12.6984126984127 118.0952380952381,12.486772486772487 118.73015873015873,12.486772486772487 119.36507936507937,12.275132275132275 120.00000000000001,12.063492063492065 120.63492063492065,11.851851851851853 121.26984126984128,11.640211640211641 121.90476190476191,11.428571428571429 122.53968253968254,11.216931216931219 123.17460317460318,11.005291005291006 123.80952380952382,11.005291005291006 124.44444444444446,10.793650793650794 125.07936507936509,10.582010582010582 125.71428571428572,10.582010582010582 126.34920634920636,10.370370370370372 126.98412698412699,10.15873015873016 127.61904761904763,9.947089947089948 128.25396825396825,9.947089947089948 128.88888888888889,9.735449735449736 129.52380952380955,9.312169312169313 130.15873015873018,9.100529100529101 130.7936507936508,9.100529100529101 131.42857142857144,9.100529100529101 132.06349206349208,8.88888888888889 132.6984126984127,8.677248677248677 133.33333333333334,8.465608465608467 133.96825396825398,8.253968253968255 134.6031746031746,8.042328042328043 135.23809523809524,8.042328042328043 135.87301587301587,7.830687830687832 136.5079365079365,7.6190476190476195 137.14285714285717,7.407407407407408 137.7777777777778,7.407407407407408 138.41269841269843,7.407407407407408 138.83597883597884,6.772486772486773 139.47089947089947,6.984126984126985 140.10582010582013,6.772486772486773 140.74074074074076,6.560846560846561 141.3756613756614,6.34920634920635 142.01058201058203,6.137566137566138 142.64550264550266,6.137566137566138 143.2804232804233,5.9259259259259265 143.91534391534393,5.9259259259259265 144.55026455026456,5.502645502645503 145.1851851851852,5.502645502645503 145.82010582010582,5.291005291005291 146.45502645502646,5.07936507936508 147.0899470899471,5.07936507936508 147.72486772486775,5.07936507936508 148.14814814814815,4.656084656084657 148.78306878306879,4.444444444444445 149.41798941798942,4.444444444444445 150.05291005291005,4.444444444444445 150.6878306878307,4.2328042328042335 151.32275132275134,4.2328042328042335 151.95767195767198,3.8095238095238098 152.5925925925926,3.8095238095238098 153.22751322751324,3.597883597883598 153.86243386243387,3.597883597883598 154.4973544973545,3.3862433862433865 155.13227513227514,3.3862433862433865 155.76719576719577,3.174603174603175 156.4021164021164,2.9629629629629632 157.03703703703704,2.9629629629629632 157.67195767195767,2.9629629629629632 158.30687830687833,2.9629629629629632 158.94179894179896,2.7513227513227516 159.5767195767196,2.53968253968254 160.21164021164023,2.53968253968254 160.84656084656086,2.3280423280423284 161.4814814814815,2.1164021164021167 162.11640211640213,2.1164021164021167 162.75132275132276,1.9047619047619049 163.3862433862434,1.9047619047619049 164.02116402116403,1.6931216931216932 164.65608465608466,1.4814814814814816 165.2910052910053,1.4814814814814816 165.92592592592595,1.4814814814814816 166.56084656084658,1.26984126984127 167.19576719576722,1.26984126984127 167.83068783068785,1.0582010582010584 168.46560846560848,1.0582010582010584 169.10052910052912,1.0582010582010584 169.73544973544975,0.634920634920635 170.37037037037038,0.634920634920635 171.005291005291,0.634920634920635 171.64021164021165,0.4232804232804233 175.23809523809524,-0.21164021164021166" style="fill:none; stroke:#cc0000; stroke-width:1.0"  /><polyline points="175.23809523809524,-0.21164021164021166 175.02645502645504,3.174603174603175 175.02645502645504,3.8095238095238098 175.02645502645504,4.444444444444445 175.02645502645504,5.07936507936508 175.02645502645504,5.714285714285714 174.81481481481484,6.34920634920635 174.81481481481484,6.984126984126985 174.81481481481484,7.6190476190476195 175.02645502645504,8.253968253968255 174.81481481481484,8.88888888888889 174.81481481481484,9.523809523809524 174.81481481481484,10.15873015873016 174.81481481481484,10.793650793650794 174.81481481481484,11.428571428571429 174.6031746031746,12.063492063492065 174.6031746031746,12.6984126984127 174.6031746031746,13.333333333333334 174.6031746031746,13.96825396825397 174.6031746031746,14.603174603174605 174.6031746031746,15.238095238095239 174.6031746031746,15.873015873015873 174.6031746031746,16.50793650793651 174.6031746031746,17.142857142857146 174.6031746031746,17.77777777777778 174.6031746031746,18.412698412698415 174.6031746031746,19.047619047619047 174.6031746031746,19.682539682539684 174.6031746031746,20.31746031746032 174.81481481481484,20.952380952380953 174.81481481481484,21.58730158730159 175.02645502645504,22.222222222222225 175.02645502645504,22.857142857142858 175.23809523809524,23.492063492063494 175.23809523809524,24.12698412698413 175.44973544973547,24.761904761904763 175.44973544973547,25.3968253968254 175.66137566137567,26.031746031746035 175.87301587301587,26.666666666666668 175.87301587301587,27.301587301587304 176.0846560846561,27.93650793650794 176.2962962962963,28.571428571428573 176.2962962962963,29.20634920634921 176.71957671957674,29.841269841269842 176.71957671957674,30.476190476190478 176.93121693121694,31.111111111111114 177.14285714285717,31.746031746031747 177.35449735449737,32.38095238095239 177.7777777777778,33.01587301587302 177.989417989418,33.65079365079365 178.2010582010582,34.28571428571429 178.41269841269843,34.920634920634924 178.83597883597884,35.34391534391535 179.04761904761907,35.97883597883598 179.4708994708995,36.402116402116405 179.8941798941799,36.82539682539683 180.52910052910053,37.248677248677254 180.95238095238096,37.67195767195768 181.3756613756614,38.095238095238095 182.01058201058203,38.30687830687831 182.64550264550266,38.51851851851852 183.2804232804233,38.730158730158735 183.91534391534393,38.94179894179894 184.55026455026456,38.730158730158735 185.1851851851852,38.730158730158735 185.82010582010582,38.94179894179894 186.45502645502646,38.730158730158735 187.08994708994712,38.51851851851852 187.72486772486775,38.51851851851852 188.35978835978838,38.51851851851852 188.78306878306879,38.095238095238095 189.41798941798945,38.095238095238095 190.05291005291008,37.883597883597886 190.47619047619048,37.46031746031746 191.11111111111111,37.248677248677254 191.53439153439155,36.82539682539683 192.16931216931218,36.613756613756614 192.5925925925926,36.19047619047619 193.01587301587304,35.76719576719577 193.65079365079367,35.34391534391535 194.2857142857143,34.920634920634924 194.92063492063494,34.4973544973545 195.55555555555557,34.074074074074076 196.1904761904762,33.65079365079365 196.82539682539684,33.22751322751323 197.24867724867727,32.804232804232804 197.8835978835979,32.592592592592595 198.30687830687833,32.16931216931217 198.94179894179896,31.746031746031747 199.5767195767196,31.322751322751326 200.21164021164023,30.899470899470902 200.84656084656086,30.476190476190478 201.4814814814815,30.052910052910054 202.11640211640213,29.629629629629633 202.75132275132276,29.41798941798942 203.3862433862434,29.20634920634921 204.02116402116403,28.994708994708997 204.65608465608466,28.783068783068785 205.29100529100532,28.783068783068785 205.92592592592595,28.571428571428573 206.56084656084658,28.571428571428573 207.19576719576722,28.571428571428573 207.83068783068785,28.571428571428573 208.46560846560848,28.571428571428573 209.10052910052912,28.571428571428573 209.73544973544975,28.571428571428573 210.37037037037038,28.783068783068785 211.005291005291,28.994708994708997 211.64021164021165,29.20634920634921 212.27513227513228,29.41798941798942 212.91005291005294,29.629629629629633 213.54497354497357,30.052910052910054 214.1798941798942,30.264550264550266 214.81481481481484,30.476190476190478 215.23809523809524,30.899470899470902 215.8730158730159,31.322751322751326 216.2962962962963,31.746031746031747 216.71957671957674,32.16931216931217 217.14285714285717,32.592592592592595 217.56613756613757,33.01587301587302 217.989417989418,33.43915343915344 218.41269841269843,33.86243386243387 218.83597883597886,34.28571428571429 219.25925925925927,34.920634920634924 219.6825396825397,35.34391534391535 220.10582010582013,35.97883597883598 220.31746031746033,36.613756613756614 220.74074074074076,37.248677248677254 221.1640211640212,37.883597883597886 221.3756613756614,38.51851851851852 221.5873015873016,39.15343915343916 222.01058201058203,39.78835978835979 222.22222222222223,40.423280423280424 222.43386243386246,41.058201058201064 222.43386243386246,41.6931216931217 222.64550264550266,42.32804232804233 223.0687830687831,42.75132275132275 223.0687830687831,43.386243386243386 223.2804232804233,44.021164021164026 223.2804232804233,44.65608465608466 223.49206349206352,45.29100529100529 223.49206349206352,45.92592592592593 223.70370370370372,46.560846560846564 223.70370370370372,47.195767195767196 223.70370370370372,47.830687830687836 223.70370370370372,48.46560846560847 223.70370370370372,49.1005291005291 223.70370370370372,49.73544973544974 223.70370370370372,50.370370370370374 223.70370370370372,51.00529100529101 223.49206349206352,51.640211640211646 223.49206349206352,52.27513227513228 223.2804232804233,52.91005291005291 223.0687830687831,53.54497354497355 222.85714285714286,54.179894179894184 222.64550264550266,54.81481481481482 222.43386243386246,55.449735449735456 222.01058201058203,56.08465608465609 221.79894179894183,56.71957671957672 221.3756613756614,57.35449735449736 221.1640211640212,57.989417989417994 220.74074074074076,58.41269841269842 220.31746031746033,59.04761904761905 219.8941798941799,59.682539682539684 219.4708994708995,60.10582010582011 219.04761904761907,60.52910052910053 218.62433862433863,60.952380952380956 218.20105820105823,61.37566137566138 217.56613756613757,61.798941798941804 216.93121693121694,62.22222222222223 216.2962962962963,62.43386243386244 215.66137566137567,62.85714285714286 215.02645502645504,63.06878306878308 214.3915343915344,63.280423280423285 213.96825396825398,63.70370370370371 213.33333333333334,63.91534391534392 212.6984126984127,63.91534391534392 212.06349206349208,64.12698412698413 211.42857142857144,64.33862433862434 210.7936507936508,64.55026455026456 210.15873015873018,64.55026455026456 209.52380952380955,64.55026455026456 208.8888888888889,64.76190476190477 208.25396825396828,64.76190476190477 207.61904761904765,64.97354497354497 206.984126984127,64.97354497354497 206.34920634920636,64.97354497354497 205.71428571428572,64.97354497354497 205.0793650793651,64.97354497354497 204.44444444444446,64.76190476190477 203.80952380952382,64.76190476190477 203.1746031746032,64.76190476190477 202.53968253968256,64.55026455026456 201.90476190476193,64.55026455026456 201.2698412698413,64.55026455026456 200.63492063492066,64.33862433862434 200.00000000000003,64.33862433862434 199.36507936507937,64.12698412698413 198.73015873015873,64.12698412698413 198.0952380952381,64.12698412698413 197.46031746031747,63.91534391534392 196.82539682539684,63.91534391534392 196.1904761904762,63.91534391534392 195.55555555555557,63.70370370370371 194.92063492063494,63.70370370370371 194.2857142857143,63.70370370370371 193.65079365079367,63.91534391534392 193.01587301587304,63.91534391534392 192.3809523809524,63.91534391534392 191.74603174603175,64.12698412698413 191.11111111111111,64.33862433862434 190.47619047619048,64.76190476190477 189.84126984126985,64.97354497354497 189.41798941798945,65.3968253968254 188.99470899470901,65.82010582010582 188.35978835978838,66.24338624338625 187.93650793650795,66.66666666666667 187.51322751322752,67.3015873015873 187.08994708994712,67.93650793650794 186.66666666666669,68.35978835978837 186.45502645502646,68.994708994709 186.24338624338625,69.62962962962963 186.03174603174605,70.26455026455027 186.03174603174605,70.8994708994709 186.03174603174605,71.53439153439155 186.03174603174605,72.16931216931218 186.03174603174605,72.80423280423281 186.03174603174605,73.43915343915344 186.24338624338625,74.07407407407408 186.45502645502646,74.70899470899471 186.45502645502646,75.34391534391536 186.66666666666669,75.97883597883599 186.8783068783069,76.61375661375662 187.08994708994712,77.24867724867725 187.51322751322752,77.88359788359789 187.72486772486775,78.51851851851852 187.93650793650795,79.15343915343917 188.35978835978838,79.7883597883598 188.57142857142858,80.42328042328043 188.78306878306879,81.05820105820106 188.99470899470901,81.6931216931217 189.41798941798945,82.32804232804233 189.62962962962965,82.96296296296298 189.84126984126985,83.59788359788361 190.26455026455028,84.23280423280424 190.47619047619048,84.86772486772487 190.6878306878307,85.5026455026455 191.11111111111111,86.13756613756614 191.32275132275134,86.77248677248677 191.53439153439155,87.40740740740742 191.74603174603175,88.04232804232805 191.95767195767198,88.67724867724868 192.16931216931218,89.31216931216932 192.3809523809524,89.94708994708995 192.5925925925926,90.58201058201058 192.8042328042328,91.21693121693123 192.8042328042328,91.85185185185186 193.01587301587304,92.4867724867725 193.22751322751324,93.12169312169313 193.22751322751324,93.75661375661376 193.43915343915344,94.39153439153439 193.65079365079367,95.02645502645504 193.65079365079367,95.66137566137567 193.86243386243387,96.2962962962963 194.07407407407408,96.93121693121694 194.07407407407408,97.56613756613757 194.2857142857143,98.2010582010582 194.4973544973545,98.83597883597885 194.4973544973545,99.47089947089948 194.70899470899474,100.10582010582011 194.70899470899474,100.74074074074075 194.92063492063494,101.37566137566138 194.92063492063494,102.01058201058201 195.13227513227514,102.64550264550266 195.13227513227514,103.28042328042329 195.34391534391537,103.91534391534393 195.34391534391537,104.55026455026456 195.34391534391537,105.18518518518519 195.55555555555557,105.82010582010582 196.1904761904762,109.62962962962963" style="fill:none; stroke:#999900; stroke-width:1.0"  /><polyline points="196.1904761904762,109.62962962962963 193.01587301587304,109.62962962962963 192.3809523809524,109.62962962962963 191.74603174603175,109.62962962962963 191.11111111111111,109.41798941798943 190.47619047619048,109.41798941798943 189.84126984126985,109.41798941798943 189.20634920634922,109.20634920634922 188.57142857142858,109.20634920634922 187.93650793650795,109.20634920634922 187.30158730158732,109.20634920634922 186.66666666666669,109.41798941798943 186.03174603174605,109.41798941798943 185.39682539682542,109.41798941798943 184.7619047619048,109.41798941798943 184.12698412698415,109.41798941798943 183.4920634920635,109.41798941798943 182.85714285714286,109.41798941798943 182.22222222222223,109.62962962962963 181.5873015873016,109.62962962962963 180.95238095238096,109.62962962962963 180.31746031746033,109.62962962962963 179.6825396825397,109.62962962962963 179.04761904761907,109.84126984126985 178.41269841269843,110.05291005291006 177.7777777777778,110.05291005291006 177.14285714285717,110.05291005291006 176.50793650793653,110.26455026455027 175.87301587301587,110.26455026455027 175.23809523809524,110.26455026455027 174.6031746031746,110.26455026455027 173.96825396825398,110.26455026455027 173.33333333333334,110.26455026455027 172.6984126984127,110.26455026455027 172.06349206349208,110.26455026455027 171.42857142857144,110.47619047619048 170.7936507936508,110.47619047619048 170.15873015873018,110.47619047619048 169.52380952380955,110.47619047619048 168.8888888888889,110.47619047619048 168.25396825396825,110.6878306878307 167.61904761904762,110.6878306878307 166.984126984127,110.6878306878307 166.34920634920636,110.6878306878307 165.71428571428572,110.6878306878307 165.0793650793651,110.6878306878307 164.44444444444446,110.89947089947091 163.80952380952382,110.89947089947091 163.1746031746032,110.89947089947091 162.53968253968256,110.89947089947091 161.90476190476193,111.11111111111111 161.2698412698413,111.11111111111111 160.63492063492066,111.11111111111111 160.0,111.11111111111111 159.36507936507937,111.11111111111111 158.73015873015873,111.32275132275133 158.0952380952381,111.32275132275133 157.46031746031747,111.32275132275133 156.82539682539684,111.53439153439155 156.1904761904762,111.53439153439155 155.55555555555557,111.53439153439155 154.92063492063494,111.53439153439155 154.2857142857143,111.53439153439155 153.65079365079367,111.74603174603176 153.01587301587304,111.74603174603176 152.38095238095238,111.74603174603176 151.74603174603175,111.95767195767196 151.11111111111111,111.95767195767196 150.47619047619048,111.95767195767196 149.84126984126985,111.95767195767196 149.20634920634922,111.95767195767196 148.57142857142858,112.16931216931218 147.93650793650795,112.16931216931218 147.30158730158732,112.16931216931218 146.66666666666669,112.3809523809524 146.03174603174605,112.3809523809524 145.39682539682542,112.3809523809524 144.76190476190476,112.5925925925926 144.12698412698413,112.80423280423281 143.4920634920635,112.80423280423281 142.85714285714286,113.01587301587303 142.22222222222223,113.01587301587303 141.5873015873016,113.01587301587303 140.95238095238096,113.22751322751324 140.31746031746033,113.22751322751324 139.6825396825397,113.22751322751324 139.04761904761907,113.22751322751324 138.41269841269843,113.43915343915344 137.7777777777778,113.43915343915344 137.14285714285717,113.65079365079366 136.5079365079365,113.65079365079366 135.87301587301587,113.86243386243387 135.23809523809524,113.86243386243387 134.6031746031746,114.07407407407408 133.96825396825398,114.28571428571429 133.33333333333334,114.49735449735451 132.6984126984127,114.70899470899472 132.06349206349208,115.13227513227514 131.42857142857144,115.34391534391536 131.005291005291,115.76719576719577 130.58201058201058,116.1904761904762 130.15873015873018,116.61375661375662 129.73544973544975,117.24867724867725 129.52380952380955,117.88359788359789 129.10052910052912,118.51851851851853 128.88888888888889,119.15343915343917 128.88888888888889,119.7883597883598 128.88888888888889,120.42328042328043 128.88888888888889,121.05820105820106 128.88888888888889,121.6931216931217 129.10052910052912,122.32804232804234 129.31216931216932,122.96296296296298 129.31216931216932,123.59788359788361 129.73544973544975,124.23280423280424 129.94708994708995,124.86772486772487 130.37037037037038,125.5026455026455 130.7936507936508,125.92592592592594 131.21693121693121,126.56084656084657 131.64021164021165,127.1957671957672 132.06349206349208,127.61904761904763 132.4867724867725,128.04232804232805 132.9100529100529,128.46560846560848 133.33333333333334,128.88888888888889 133.75661375661377,129.31216931216932 134.3915343915344,129.73544973544975 135.02645502645504,130.15873015873018 135.66137566137567,130.58201058201058 136.2962962962963,130.7936507936508 136.93121693121694,131.21693121693121 137.56613756613757,131.42857142857144 138.2010582010582,131.64021164021165 138.62433862433863,132.06349206349208 139.25925925925927,132.4867724867725 139.8941798941799,132.6984126984127 140.31746031746033,133.12169312169314 140.95238095238096,133.54497354497354 141.3756613756614,133.96825396825398 141.7989417989418,134.3915343915344 142.22222222222223,135.02645502645504 142.64550264550266,135.44973544973547 143.0687830687831,135.87301587301587 143.4920634920635,136.5079365079365 143.91534391534393,137.14285714285717 144.33862433862436,137.7777777777778 144.55026455026456,138.41269841269843 144.973544973545,138.83597883597884 145.1851851851852,139.47089947089947 145.39682539682542,140.10582010582013 145.60846560846562,140.74074074074076 145.82010582010582,141.3756613756614 146.03174603174605,142.01058201058203 146.03174603174605,142.64550264550266 146.24338624338625,143.2804232804233 146.45502645502646,143.91534391534393 146.45502645502646,144.55026455026456 146.45502645502646,145.1851851851852 146.45502645502646,145.82010582010582 146.45502645502646,146.45502645502646 146.45502645502646,147.0899470899471 146.24338624338625,147.72486772486775 146.24338624338625,148.35978835978838 146.03174603174605,148.99470899470901 145.82010582010582,149.62962962962965 145.39682539682542,150.26455026455028 145.1851851851852,150.8994708994709 144.76190476190476,151.32275132275134 144.55026455026456,151.95767195767198 144.12698412698413,152.5925925925926 143.70370370370372,153.22751322751324 143.2804232804233,153.86243386243387 142.85714285714286,154.4973544973545 142.43386243386246,155.13227513227514 142.01058201058203,155.55555555555557 141.5873015873016,155.978835978836 141.16402116402116,156.4021164021164 140.74074074074076,156.82539682539684 140.31746031746033,157.24867724867727 139.6825396825397,157.67195767195767 139.04761904761907,158.0952380952381 138.41269841269843,158.51851851851853 137.7777777777778,158.94179894179896 137.14285714285717,159.15343915343917 136.71957671957674,159.5767195767196 136.0846560846561,159.7883597883598 135.44973544973547,160.21164021164023 134.81481481481484,160.42328042328043 134.17989417989418,160.84656084656086 133.54497354497354,161.05820105820106 132.9100529100529,161.2698412698413 132.27513227513228,161.6931216931217 131.64021164021165,161.90476190476193 131.005291005291,162.11640211640213 130.37037037037038,162.32804232804233 129.73544973544975,162.53968253968256 129.10052910052912,162.75132275132276 128.46560846560848,162.96296296296296 127.83068783068784,163.1746031746032 127.1957671957672,163.1746031746032 126.56084656084657,163.3862433862434 125.92592592592594,163.59788359788362 125.2910052910053,163.59788359788362 124.65608465608466,163.80952380952382 124.02116402116403,163.80952380952382 123.3862433862434,163.80952380952382 122.75132275132276,164.02116402116403 122.11640211640213,164.02116402116403 121.4814814814815,164.02116402116403 120.84656084656086,164.02116402116403 120.21164021164022,164.02116402116403 119.57671957671958,164.02116402116403 118.94179894179895,164.02116402116403 118.30687830687832,164.02116402116403 117.67195767195768,163.80952380952382 117.03703703703705,163.59788359788362 116.4021164021164,163.59788359788362 115.76719576719577,163.3862433862434 115.13227513227514,163.3862433862434 114.49735449735451,163.1746031746032 113.86243386243387,162.96296296296296 113.22751322751324,162.75132275132276 112.5925925925926,162.53968253968256 111.95767195767196,162.32804232804233 111.32275132275133,161.90476190476193 110.6878306878307,161.6931216931217 110.05291005291006,161.2698412698413 109.41798941798943,160.84656084656086 108.994708994709,160.42328042328043 108.57142857142858,160.0 108.14814814814815,159.5767195767196 107.72486772486774,158.94179894179896 107.51322751322752,158.30687830687833 107.3015873015873,157.67195767195767 107.0899470899471,157.03703703703704 107.0899470899471,156.4021164021164 106.87830687830689,155.76719576719577 106.87830687830689,155.13227513227514 106.87830687830689,154.4973544973545 106.87830687830689,153.86243386243387 107.0899470899471,153.22751322751324 107.0899470899471,152.5925925925926 107.3015873015873,151.95767195767198 107.3015873015873,151.32275132275134 107.51322751322752,150.6878306878307 107.51322751322752,150.05291005291005 107.72486772486774,149.41798941798942 107.93650793650795,148.78306878306879 108.14814814814815,148.14814814814815 108.14814814814815,147.51322751322752 108.35978835978837,146.8783068783069 108.35978835978837,146.24338624338625 108.57142857142858,145.60846560846562 108.78306878306879,144.973544973545 108.994708994709,144.33862433862436 109.20634920634922,143.70370370370372 109.41798941798943,143.0687830687831 109.41798941798943,142.43386243386246 109.41798941798943,141.7989417989418 109.41798941798943,141.16402116402116 109.41798941798943,140.52910052910053 109.41798941798943,139.8941798941799 109.41798941798943,139.25925925925927 109.20634920634922,138.62433862433863 108.994708994709,137.989417989418 108.78306878306879,137.35449735449737 108.35978835978837,136.93121693121694 107.93650793650795,136.2962962962963 107.51322751322752,135.87301587301587 107.0899470899471,135.44973544973547 106.66666666666667,135.02645502645504 106.03174603174604,134.6031746031746 105.3968253968254,134.17989417989418 104.76190476190477,133.96825396825398 104.12698412698414,133.75661375661377 103.4920634920635,133.75661375661377 102.85714285714286,133.54497354497354 102.22222222222223,133.54497354497354 101.5873015873016,133.54497354497354 100.95238095238096,133.54497354497354 100.31746031746033,133.54497354497354 99.68253968253968,133.33333333333334 99.04761904761905,133.33333333333334 98.41269841269842,133.33333333333334 97.77777777777779,133.33333333333334 97.14285714285715,133.33333333333334 96.50793650793652,133.33333333333334 95.87301587301587,133.33333333333334 95.23809523809524,133.33333333333334 94.60317460317461,133.33333333333334 93.96825396825398,133.33333333333334 93.33333333333334,133.33333333333334 92.69841269841271,133.54497354497354 92.06349206349208,133.54497354497354 91.42857142857143,133.54497354497354 90.7936507936508,133.54497354497354 90.15873015873017,133.75661375661377 89.52380952380953,133.75661375661377 88.8888888888889,133.75661375661377 88.25396825396827,133.75661375661377 87.61904761904762,133.96825396825398 86.98412698412699,133.96825396825398 86.34920634920636,134.17989417989418 85.71428571428572,134.17989417989418 85.07936507936509,134.17989417989418 84.44444444444446,134.3915343915344 83.80952380952381,134.3915343915344 83.17460317460318,134.6031746031746 82.53968253968254,134.6031746031746 81.90476190476191,134.81481481481484 81.26984126984128,134.81481481481484 80.63492063492065,135.02645502645504 80.0,135.02645502645504 79.36507936507937,135.23809523809524 78.73015873015873,135.23809523809524 78.0952380952381,135.44973544973547 77.46031746031747,135.44973544973547 76.82539682539684,135.66137566137567 76.19047619047619,135.66137566137567 75.55555555555556,135.66137566137567 74.92063492063492,135.87301587301587 74.28571428571429,136.0846560846561 73.65079365079366,136.2962962962963 73.01587301587303,136.2962962962963 72.38095238095238,136.5079365079365 71.74603174603175,136.5079365079365 71.11111111111111,136.71957671957674 70.47619047619048,136.71957671957674 69.84126984126985,136.93121693121694 69.20634920634922,136.93121693121694 68.57142857142858,136.93121693121694 67.93650793650794,137.14285714285717 67.3015873015873,137.35449735449737 66.66666666666667,137.35449735449737 66.03174603174604,137.56613756613757 65.3968253968254,137.56613756613757 64.76190476190477,137.7777777777778 64.12698412698413,137.7777777777778 63.492063492063494,137.989417989418 62.85714285714286,137.989417989418 62.22222222222223,138.2010582010582 61.58730158730159,138.2010582010582 60.952380952380956,138.41269841269843 60.31746031746032,138.41269841269843 59.682539682539684,138.62433862433863 59.04761904761905,138.62433862433863 58.41269841269842,138.83597883597884 57.777777777777786,138.83597883597884 57.142857142857146,139.04761904761907 56.50793650793651,139.04761904761907 55.87301587301588,139.04761904761907 55.23809523809524,139.25925925925927 54.60317460317461,139.47089947089947 53.968253968253975,139.47089947089947 53.333333333333336,139.6825396825397 52.6984126984127,139.8941798941799 52.06349206349207,139.8941798941799 51.42857142857143,140.10582010582013 50.7936507936508,140.10582010582013 50.158730158730165,140.31746031746033 49.523809523809526,140.52910052910053 48.88888888888889,140.74074074074076 48.25396825396826,140.74074074074076 47.61904761904762,140.95238095238096 46.98412698412699,141.16402116402116 46.349206349206355,141.16402116402116 45.714285714285715,141.3756613756614 45.07936507936508,141.5873015873016 44.44444444444445,141.5873015873016 43.80952380952381,141.7989417989418 43.17460317460318,142.01058201058203 42.539682539682545,142.01058201058203 41.904761904761905,142.22222222222223 41.26984126984127,142.43386243386246 40.63492063492064,142.64550264550266 40.0,142.85714285714286 39.57671957671958,143.2804232804233 36.402116402116405,144.12698412698413" style="fill:none; stroke:#00aa99; stroke-width:1.0"  /><polyline points="36.402116402116405,144.12698412698413 36.19047619047619,140.52910052910053 36.19047619047619,139.8941798941799 36.19047619047619,139.25925925925927 36.19047619047619,138.62433862433863 35.97883597883598,137.989417989418 35.97883597883598,137.35449735449737 35.97883597883598,136.71957671957674 35.97883597883598,136.0846560846561 35.97883597883598,135.44973544973547 35.76719576719577,134.81481481481484 35.76719576719577,134.17989417989418 35.76719576719577,133.54497354497354 35.76719576719577,132.9100529100529 35.76719576719577,132.27513227513228 35.76719576719577,131.64021164021165 35.76719576719577,131.005291005291 35.55555555555556,130.37037037037038 35.55555555555556,129.73544973544975 35.55555555555556,129.10052910052912 35.55555555555556,128.46560846560848 35.55555555555556,127.83068783068784 35.55555555555556,127.1957671957672 35.55555555555556,126.56084656084657 35.55555555555556,125.92592592592594 35.55555555555556,125.2910052910053 35.55555555555556,124.65608465608466 35.55555555555556,124.02116402116403 35.55555555555556,123.3862433862434 35.55555555555556,122.75132275132276 35.55555555555556,122.11640211640213 35.55555555555556,121.4814814814815 35.55555555555556,120.84656084656086 35.55555555555556,120.21164021164022 35.55555555555556,119.57671957671958 35.55555555555556,118.94179894179895 35.55555555555556,118.30687830687832 35.76719576719577,117.67195767195768 35.76719576719577,117.03703703703705 35.76719576719577,116.4021164021164 35.76719576719577,115.76719576719577 35.76719576719577,115.13227513227514 35.76719576719577,114.49735449735451 35.76719576719577,113.86243386243387 35.76719576719577,113.22751322751324 35.55555555555556,112.5925925925926 35.55555555555556,111.95767195767196 35.76719576719577,111.32275132275133 35.76719576719577,110.6878306878307 35.97883597883598,110.05291005291006 35.97883597883598,109.41798941798943 35.97883597883598,108.78306878306879 36.19047619047619,108.14814814814815 36.19047619047619,107.51322751322752 36.402116402116405,106.87830687830689 36.402116402116405,106.24338624338625 36.402116402116405,105.60846560846562 36.613756613756614,104.97354497354497 36.82539682539683,104.33862433862434 36.82539682539683,103.70370370370371 37.03703703703704,103.06878306878308 37.03703703703704,102.43386243386244 37.03703703703704,101.79894179894181 37.248677248677254,101.16402116402116 37.248677248677254,100.52910052910053 37.248677248677254,99.8941798941799 37.248677248677254,99.25925925925927 37.248677248677254,98.62433862433863 37.248677248677254,97.989417989418 37.248677248677254,97.35449735449737 37.03703703703704,96.71957671957672 37.03703703703704,96.08465608465609 37.03703703703704,95.44973544973546 36.613756613756614,94.81481481481482 36.613756613756614,94.17989417989419 36.19047619047619,93.54497354497356 35.97883597883598,92.91005291005291 35.76719576719577,92.27513227513228 35.34391534391535,91.64021164021165 34.920634920634924,91.21693121693123 34.4973544973545,90.58201058201058 34.074074074074076,90.15873015873017 33.65079365079365,89.73544973544975 33.01587301587302,89.31216931216932 32.38095238095239,89.1005291005291 31.746031746031747,88.8888888888889 31.111111111111114,88.67724867724868 30.476190476190478,88.46560846560847 29.841269841269842,88.46560846560847 29.20634920634921,88.46560846560847 28.571428571428573,88.67724867724868 27.93650793650794,88.67724867724868 27.301587301587304,88.8888888888889 26.666666666666668,89.1005291005291 26.031746031746035,89.31216931216932 25.3968253968254,89.31216931216932 24.761904761904763,89.73544973544975 24.12698412698413,89.94708994708995 23.492063492063494,90.15873015873017 22.857142857142858,90.37037037037038 22.222222222222225,90.7936507936508 21.58730158730159,90.7936507936508 20.952380952380953,91.21693121693123 20.31746031746032,91.42857142857143 19.682539682539684,91.64021164021165 19.047619047619047,91.85185185185186 18.412698412698415,92.06349206349208 17.77777777777778,92.27513227513228 17.142857142857146,92.4867724867725 16.50793650793651,92.69841269841271 15.873015873015873,93.12169312169313 15.238095238095239,93.33333333333334 14.603174603174605,93.54497354497356 13.96825396825397,93.75661375661376 13.333333333333334,93.96825396825398 12.6984126984127,93.96825396825398 12.063492063492065,94.17989417989419 11.428571428571429,94.39153439153439 10.793650793650794,94.39153439153439 10.15873015873016,94.39153439153439 9.523809523809524,94.60317460317461 8.88888888888889,94.60317460317461 8.253968253968255,94.60317460317461 7.6190476190476195,94.60317460317461 6.984126984126985,94.60317460317461 6.34920634920635,94.39153439153439 5.714285714285714,94.17989417989419 5.07936507936508,93.96825396825398 4.444444444444445,93.96825396825398 4.021164021164021,93.54497354497356 3.3862433862433865,93.12169312169313 2.9629629629629632,92.4867724867725 2.53968253968254,91.85185185185186 2.1164021164021167,91.21693121693123 1.9047619047619049,90.58201058201058 1.4814814814814816,89.94708994708995 1.4814814814814816,89.31216931216932 1.26984126984127,88.67724867724868 1.0582010582010584,88.04232804232805 0.8465608465608466,87.40740740740742 0.8465608465608466,86.77248677248677 0.634920634920635,86.13756613756614 0.634920634920635,85.5026455026455 0.634920634920635,84.86772486772487 0.4232804232804233,84.23280423280424 0.4232804232804233,83.59788359788361 0.4232804232804233,82.96296296296298 0.21164021164021166,82.32804232804233 0.21164021164021166,81.6931216931217 0.21164021164021166,81.05820105820106 0.21164021164021166,80.42328042328043 0.21164021164021166,79.7883597883598 0.21164021164021166,79.15343915343917 0.4232804232804233,78.51851851851852 0.21164021164021166,77.88359788359789 0.21164021164021166,77.24867724867725 0.21164021164021166,76.61375661375662 0.4232804232804233,75.97883597883599 0.4232804232804233,75.34391534391536 0.4232804232804233,74.70899470899471 0.634920634920635,74.07407407407408 0.634920634920635,73.43915343915344 0.8465608465608466,72.80423280423281 1.0582010582010584,72.16931216931218 1.26984126984127,71.53439153439155 1.26984126984127,70.8994708994709 1.4814814814814816,70.26455026455027 1.6931216931216932,69.62962962962963 1.9047619047619049,68.994708994709 2.1164021164021167,68.35978835978837 2.53968253968254,67.72486772486774 2.53968253968254,67.08994708994709 2.9629629629629632,66.45502645502646 3.174603174603175,65.82010582010582 3.3862433862433865,65.18518518518519 3.597883597883598,64.55026455026456 4.021164021164021,64.12698412698413 4.2328042328042335,63.492063492063494 4.444444444444445,62.85714285714286 4.867724867724868,62.43386243386244 5.291005291005291,61.798941798941804 5.714285714285714,61.37566137566138 6.137566137566138,60.952380952380956 6.772486772486773,60.52910052910053 7.407407407407408,60.31746031746032 8.042328042328043,60.10582010582011 8.677248677248677,60.10582010582011 9.312169312169313,60.10582010582011 9.947089947089948,60.10582010582011 10.582010582010582,60.10582010582011 11.216931216931219,60.10582010582011 11.851851851851853,60.10582010582011 12.486772486772487,60.31746031746032 13.121693121693122,60.52910052910053 13.756613756613758,60.52910052910053 14.391534391534393,60.74074074074075 15.026455026455027,60.952380952380956 15.661375661375663,60.952380952380956 16.296296296296298,61.16402116402117 16.931216931216934,61.37566137566138 17.566137566137566,61.58730158730159 18.201058201058203,61.798941798941804 18.83597883597884,62.01058201058201 19.47089947089947,62.22222222222223 20.105820105820108,62.43386243386244 20.740740740740744,62.64550264550265 21.375661375661377,62.85714285714286 22.010582010582013,63.06878306878308 22.645502645502646,63.280423280423285 23.280423280423282,63.492063492063494 23.915343915343918,63.492063492063494 24.55026455026455,63.70370370370371 25.185185185185187,63.91534391534392 25.820105820105823,64.12698412698413 26.455026455026456,64.12698412698413 27.089947089947092,64.12698412698413 27.724867724867728,64.12698412698413 28.35978835978836,64.12698412698413 28.994708994708997,63.91534391534392 29.629629629629633,63.70370370370371 30.264550264550266,63.492063492063494 30.899470899470902,63.06878306878308 31.322751322751326,62.64550264550265 31.95767195767196,62.22222222222223 32.38095238095239,61.798941798941804 32.804232804232804,61.16402116402117 33.01587301587302,60.52910052910053 33.22751322751323,59.8941798941799 33.43915343915344,59.25925925925927 33.65079365079365,58.62433862433863 33.86243386243387,57.989417989417994 33.86243386243387,57.35449735449736 34.074074074074076,56.71957671957672 34.074074074074076,56.08465608465609 34.28571428571429,55.449735449735456 34.28571428571429,54.81481481481482 34.28571428571429,54.179894179894184 34.28571428571429,53.54497354497355 34.28571428571429,52.91005291005291 34.28571428571429,52.27513227513228 34.28571428571429,51.640211640211646 34.28571428571429,51.00529100529101 34.28571428571429,50.370370370370374 34.074074074074076,49.73544973544974 34.074074074074076,49.1005291005291 33.86243386243387,48.46560846560847 33.65079365079365,47.830687830687836 33.65079365079365,47.195767195767196 33.43915343915344,46.560846560846564 33.22751322751323,45.92592592592593 33.01587301587302,45.29100529100529 32.804232804232804,44.65608465608466 32.804232804232804,44.021164021164026 32.592592592592595,43.386243386243386 32.16931216931217,42.96296296296297 31.95767195767196,42.32804232804233 31.746031746031747,41.6931216931217 31.53439153439154,41.058201058201064 31.53439153439154,40.423280423280424 31.322751322751326,39.78835978835979 31.111111111111114,39.15343915343916 30.899470899470902,38.51851851851852 30.68783068783069,37.883597883597886 30.476190476190478,37.248677248677254 30.264550264550266,36.613756613756614 30.264550264550266,35.97883597883598 30.052910052910054,35.34391534391535 29.841269841269842,34.70899470899471 29.629629629629633,34.074074074074076 29.629629629629633,33.43915343915344 29.41798941798942,32.804232804232804 29.20634920634921,32.16931216931217 28.994708994708997,31.53439153439154 28.783068783068785,30.899470899470902 28.571428571428573,30.264550264550266 28.35978835978836,29.629629629629633 27.301587301587304,26.243386243386244" style="fill:none; stroke:#3300bb; stroke-width:1.0"  /><circle cx="27.301587301587304" cy="26.243386243386244" r="2.0" style="fill:none; stroke:#000000aa; stroke-width:0.25" /><circle cx="175.23809523809524" cy="-0.21164021164021166" r="2.0" style="fill:none; stroke:#000000aa; stroke-width:0.25" /><circle cx="196.1904761904762" cy="109.62962962962963" r="2.0" style="fill:none; stroke:#000000aa; stroke-width:0.25" /><circle cx="36.402116402116405" cy="144.12698412698413" r="2.0" style="fill:none; stroke:#000000aa; stroke-width:0.25" /><circle cx="27.724867724867728" cy="26.455026455026456" r="2.0" style="fill:none; stroke:#ff3366aa; stroke-width:0.25" /><circle cx="174.6031746031746" cy="0.21164021164021166" r="2.0" style="fill:none; stroke:#ff3366aa; stroke-width:0.25" /><circle cx="195.978835978836" cy="109.20634920634922" r="2.0" style="fill:none; stroke:#ff3366aa; stroke-width:0.25" /><circle cx="36.613756613756614" cy="143.70370370370372" r="2.0" style="fill:none; stroke:#ff3366aa; stroke-width:0.25" /><polyline points="39.15343915343916,24.338624338624342 38.51851851851852,24.338624338624342 37.883597883597886,24.338624338624342 37.248677248677254,24.338624338624342 36.613756613756614,24.55026455026455 35.97883597883598,24.761904761904763 35.34391534391535,24.761904761904763 34.70899470899471,24.973544973544975 34.074074074074076,24.973544973544975 33.43915343915344,25.185185185185187 32.804232804232804,25.185185185185187 32.16931216931217,25.3968253968254 31.53439153439154,25.3968253968254 30.899470899470902,25.60846560846561" style="fill:none; stroke:#001100; stroke-width:1.0" /><polyline points="30.68783068783069,37.883597883597886 30.476190476190478,37.248677248677254 30.264550264550266,36.613756613756614 30.264550264550266,35.97883597883598 30.052910052910054,35.34391534391535 29.841269841269842,34.70899470899471 29.629629629629633,34.074074074074076 29.629629629629633,33.43915343915344 29.41798941798942,32.804232804232804 29.20634920634921,32.16931216931217 28.994708994708997,31.53439153439154 28.783068783068785,30.899470899470902 28.571428571428573,30.264550264550266 28.35978835978836,29.629629629629633" style="fill:none; stroke:#000011; stroke-width:1.0" /><polyline points="174.6031746031746,12.063492063492065 174.81481481481484,11.428571428571429 174.81481481481484,10.793650793650794 174.81481481481484,10.15873015873016 174.81481481481484,9.523809523809524 174.81481481481484,8.88888888888889 175.02645502645504,8.253968253968255 174.81481481481484,7.6190476190476195 174.81481481481484,6.984126984126985 174.81481481481484,6.34920634920635 175.02645502645504,5.714285714285714 175.02645502645504,5.07936507936508 175.02645502645504,4.444444444444445 175.02645502645504,3.8095238095238098 175.02645502645504,3.174603174603175" style="fill:none; stroke:#001100; stroke-width:1.0" /><polyline points="162.75132275132276,1.9047619047619049 163.3862433862434,1.9047619047619049 164.02116402116403,1.6931216931216932 164.65608465608466,1.4814814814814816 165.2910052910053,1.4814814814814816 165.92592592592595,1.4814814814814816 166.56084656084658,1.26984126984127 167.19576719576722,1.26984126984127 167.83068783068785,1.0582010582010584 168.46560846560848,1.0582010582010584 169.10052910052912,1.0582010582010584 169.73544973544975,0.634920634920635 170.37037037037038,0.634920634920635 171.005291005291,0.634920634920635 171.64021164021165,0.4232804232804233" style="fill:none; stroke:#000011; stroke-width:1.0" /><polyline points="184.12698412698415,109.41798941798943 184.7619047619048,109.41798941798943 185.39682539682542,109.41798941798943 186.03174603174605,109.41798941798943 186.66666666666669,109.41798941798943 187.30158730158732,109.20634920634922 187.93650793650795,109.20634920634922 188.57142857142858,109.20634920634922 189.20634920634922,109.20634920634922 189.84126984126985,109.41798941798943 190.47619047619048,109.41798941798943 191.11111111111111,109.41798941798943 191.74603174603175,109.62962962962963 192.3809523809524,109.62962962962963 193.01587301587304,109.62962962962963" style="fill:none; stroke:#001100; stroke-width:1.0" /><polyline points="194.07407407407408,97.56613756613757 194.2857142857143,98.2010582010582 194.4973544973545,98.83597883597885 194.4973544973545,99.47089947089948 194.70899470899474,100.10582010582011 194.70899470899474,100.74074074074075 194.92063492063494,101.37566137566138 194.92063492063494,102.01058201058201 195.13227513227514,102.64550264550266 195.13227513227514,103.28042328042329 195.34391534391537,103.91534391534393 195.34391534391537,104.55026455026456 195.34391534391537,105.18518518518519 195.55555555555557,105.82010582010582" style="fill:none; stroke:#000011; stroke-width:1.0" /><polyline points="35.76719576719577,132.27513227513228 35.76719576719577,132.9100529100529 35.76719576719577,133.54497354497354 35.76719576719577,134.17989417989418 35.76719576719577,134.81481481481484 35.97883597883598,135.44973544973547 35.97883597883598,136.0846560846561 35.97883597883598,136.71957671957674 35.97883597883598,137.35449735449737 35.97883597883598,137.989417989418 36.19047619047619,138.62433862433863 36.19047619047619,139.25925925925927 36.19047619047619,139.8941798941799 36.19047619047619,140.52910052910053" style="fill:none; stroke:#001100; stroke-width:1.0" /><polyline points="48.25396825396826,140.74074074074076 47.61904761904762,140.95238095238096 46.98412698412699,141.16402116402116 46.349206349206355,141.16402116402116 45.714285714285715,141.3756613756614 45.07936507936508,141.5873015873016 44.44444444444445,141.5873015873016 43.80952380952381,141.7989417989418 43.17460317460318,142.01058201058203 42.539682539682545,142.01058201058203 41.904761904761905,142.22222222222223 41.26984126984127,142.43386243386246 40.63492063492064,142.64550264550266 40.0,142.85714285714286 39.57671957671958,143.2804232804233" style="fill:none; stroke:#000011; stroke-width:1.0" /><polyline points="30.899470899470902,25.60846560846561 9.947089947089948,28.783068783068785" style="fill:none; stroke:#ffaa00; stroke-width:0.4" /><polyline points="28.35978835978836,29.629629629629633 22.645502645502646,9.312169312169313" style="fill:none; stroke:#aaff00; stroke-width:0.4" /><polyline points="175.02645502645504,3.174603174603175 176.0846560846561,-17.98941798941799" style="fill:none; stroke:#ffaa00; stroke-width:0.4" /><polyline points="171.64021164021165,0.4232804232804233 192.5925925925926,-2.9629629629629632" style="fill:none; stroke:#aaff00; stroke-width:0.4" /><polyline points="193.01587301587304,109.62962962962963 214.1798941798942,110.05291005291006" style="fill:none; stroke:#ffaa00; stroke-width:0.4" /><polyline points="195.55555555555557,105.82010582010582 199.36507936507937,126.56084656084657" style="fill:none; stroke:#aaff00; stroke-width:0.4" /><polyline points="36.19047619047619,140.52910052910053 37.248677248677254,161.6931216931217" style="fill:none; stroke:#ffaa00; stroke-width:0.4" /><polyline points="39.57671957671958,143.2804232804233 19.25925925925926,149.20634920634922" style="fill:none; stroke:#aaff00; stroke-width:0.4" /><circle cx="111.53439153439155" cy="76.61375661375662" r="1.0" style="fill:#444444; stroke-width:0" /><circle cx="145.1851851851852" cy="69.84126984126985" r="10.582010582010582" style="fill:#ff770022; stroke-width:0" /><circle cx="145.1851851851852" cy="69.84126984126985" r="1.0" style="fill:#ff7700; stroke-width:0" /></svg>