<?xml version="1.0" encoding="UTF-8" standalone="no"?><svg width="548.5714285714287" height="511.7460317460318" viewBox="-10 -10 202.85714285714286 190.58201058201058" xmlns="http://www.w3.org/2000/svg" xmlns:xlink="http://www.w3.org/1999/xlink"><polyline points="6.772486772486773,6.34920634920635 9.523809523809524,5.714285714285714 10.15873015873016,5.502645502645503 10.793650793650794,5.291005291005291 11.428571428571429,5.291005291005291 12.063492063492065,5.07936507936508 12.6984126984127,4.867724867724868 13.333333333333334,4.867724867724868 13.96825396825397,4.656084656084657 14.603174603174605,4.444444444444445 15.238095238095239,4.444444444444445 15.873015873015873,4.2328042328042335 16.50793650793651,4.021164021164021 17.142857142857146,3.8095238095238098 17.77777777777778,3.597883597883598 18.412698412698415,3.597883597883598 19.047619047619047,3.3862433862433865 19.682539682539684,3.174603174603175 20.31746031746032,3.174603174603175 20.952380952380953,2.9629629629629632 21.58730158730159,2.7513227513227516 22.222222222222225,2.53968253968254 22.857142857142858,2.53968253968254 23.492063492063494,2.3280423280423284 24.12698412698413,2.1164021164021167 24.761904761904763,2.1164021164021167 25.3968253968254,1.9047619047619049 26.031746031746035,1.6931216931216932 26.666666666666668,1.6931216931216932 27.301587301587304,1.4814814814814816 27.93650793650794,1.26984126984127 28.571428571428573,1.26984126984127 29.20634920634921,1.26984126984127 29.841269841269842,1.0582010582010584 30.476190476190478,1.0582010582010584 31.111111111111114,1.0582010582010584 31.746031746031747,0.8465608465608466 32.38095238095239,0.8465608465608466 33.01587301587302,0.8465608465608466 33.65079365079365,0.634920634920635 34.28571428571429,0.634920634920635 34.920634920634924,0.634920634920635 35.55555555555556,0.634920634920635 36.19047619047619,0.634920634920635 36.82539682539683,0.634920634920635 37.46031746031746,0.634920634920635 38.095238095238095,0.634920634920635 38.730158730158735,0.4232804232804233 39.36507936507937,0.4232804232804233 40.0,0.4232804232804233 40.63492063492064,0.4232804232804233 41.26984126984127,0.4232804232804233 41.904761904761905,0.4232804232804233 42.539682539682545,0.4232804232804233 43.17460317460318,0.4232804232804233 43.80952380952381,0.21164021164021166 44.44444444444445,0.21164021164021166 45.07936507936508,0.21164021164021166 45.714285714285715,0.21164021164021166 46.349206349206355,0.21164021164021166 46.98412698412699,0.21164021164021166 47.61904761904762,0.4232804232804233 48.25396825396826,0.4232804232804233 48.88888888888889,0.4232804232804233 49.523809523809526,0.4232804232804233 50.158730158730165,0.634920634920635 50.7936507936508,0.634920634920635 51.42857142857143,0.8465608465608466 52.06349206349207,0.8465608465608466 52.6984126984127,0.8465608465608466 53.333333333333336,0.8465608465608466 53.968253968253975,1.0582010582010584 54.60317460317461,1.0582010582010584 55.23809523809524,1.0582010582010584 55.87301587301588,1.26984126984127 56.50793650793651,1.4814814814814816 57.142857142857146,1.4814814814814816 57.777777777777786,1.6931216931216932 58.41269841269842,1.6931216931216932 59.04761904761905,1.9047619047619049 59.682539682539684,1.9047619047619049 60.31746031746032,2.1164021164021167 60.952380952380956,2.3280423280423284 61.58730158730159,2.3280423280423284 62.22222222222223,2.53968253968254 62.85714285714286,2.7513227513227516 63.492063492063494,2.9629629629629632 64.12698412698413,3.174603174603175 64.76190476190477,3.3862433862433865 65.3968253968254,3.8095238095238098 66.03174603174604,4.021164021164021 66.45502645502646,4.444444444444445 67.08994708994709,4.867724867724868 67.72486772486774,5.291005291005291 68.14814814814815,5.714285714285714 68.57142857142858,6.34920634920635 68.994708994709,6.772486772486773 69.41798941798942,7.407407407407408 69.62962962962963,8.042328042328043 69.84126984126985,8.677248677248677 69.84126984126985,9.312169312169313 69.84126984126985,9.947089947089948 69.84126984126985,10.582010582010582 69.62962962962963,11.216931216931219 69.62962962962963,11.851851851851853 69.62962962962963,12.486772486772487 69.41798941798942,13.121693121693122 69.20634920634922,13.756613756613758 68.994708994709,14.391534391534393 68.78306878306879,15.026455026455027 68.78306878306879,15.661375661375663 68.57142857142858,16.296296296296298 68.35978835978837,16.931216931216934 68.14814814814815,17.566137566137566 67.93650793650794,18.201058201058203 67.72486772486774,18.83597883597884 67.51322751322752,19.47089947089947 67.3015873015873,20.105820105820108 67.08994708994709,20.740740740740744 66.66666666666667,21.375661375661377 66.45502645502646,22.010582010582013 66.24338624338625,22.645502645502646 66.03174603174604,23.280423280423282 65.82010582010582,23.915343915343918 65.60846560846561,24.55026455026455 65.3968253968254,25.185185185185187 65.18518518518519,25.820105820105823 64.97354497354497,26.455026455026456 64.76190476190477,27.089947089947092 64.55026455026456,27.724867724867728 64.55026455026456,28.35978835978836 64.33862433862434,28.994708994708997 64.12698412698413,29.629629629629633 64.12698412698413,30.264550264550266 63.91534391534392,30.899470899470902 63.91534391534392,31.53439153439154 63.91534391534392,32.16931216931217 63.91534391534392,32.804232804232804 63.91534391534392,33.43915343915344 63.91534391534392,34.074074074074076 63.91534391534392,34.70899470899471 63.91534391534392,35.34391534391535 64.12698412698413,35.97883597883598 64.12698412698413,36.613756613756614 64.12698412698413,37.248677248677254 64.33862433862434,37.883597883597886 64.55026455026456,38.51851851851852 64.76190476190477,39.15343915343916 65.18518518518519,39.78835978835979 65.60846560846561,40.423280423280424 66.03174603174604,41.058201058201064 66.45502645502646,41.48148148148149 66.87830687830689,41.904761904761905 67.3015873015873,42.32804232804233 67.93650793650794,42.75132275132275 68.35978835978837,43.17460317460318 68.994708994709,43.5978835978836 69.62962962962963,44.021164021164026 70.26455026455027,44.232804232804234 70.8994708994709,44.44444444444445 71.53439153439155,44.867724867724874 72.16931216931218,45.07936507936508 72.80423280423281,45.29100529100529 73.43915343915344,45.50264550264551 74.07407407407408,45.714285714285715 74.70899470899471,45.714285714285715 75.34391534391536,45.92592592592593 75.97883597883599,45.92592592592593 76.61375661375662,46.13756613756614 77.24867724867725,46.349206349206355 77.88359788359789,46.13756613756614 78.51851851851852,46.349206349206355 79.15343915343917,46.13756613756614 79.7883597883598,46.349206349206355 80.42328042328043,46.349206349206355 81.05820105820106,46.13756613756614 81.6931216931217,46.13756613756614 82.32804232804233,46.13756613756614 82.96296296296298,46.13756613756614 83.59788359788361,46.13756613756614 84.23280423280424,45.92592592592593 84.86772486772487,45.92592592592593 85.5026455026455,45.714285714285715 86.13756613756614,45.50264550264551 86.77248677248677,45.29100529100529 87.40740740740742,45.07936507936508 88.04232804232805,44.867724867724874 88.67724867724868,44.65608465608466 89.31216931216932,44.44444444444445 89.94708994708995,44.021164021164026 90.58201058201058,43.80952380952381 91.21693121693123,43.5978835978836 91.85185185185186,43.17460317460318 92.4867724867725,42.75132275132275 93.12169312169313,42.539682539682545 93.75661375661376,42.11640211640212 94.39153439153439,41.904761904761905 94.81481481481482,41.48148148148149 95.44973544973546,41.26984126984127 95.87301587301587,40.84656084656085 96.50793650793652,40.423280423280424 97.14285714285715,40.0 97.77777777777779,39.57671957671958 98.2010582010582,39.15343915343916 98.62433862433863,38.51851851851852 99.04761904761905,38.095238095238095 99.47089947089948,37.46031746031746 99.8941798941799,36.82539682539683 100.10582010582011,36.19047619047619 100.31746031746033,35.55555555555556 100.52910052910053,34.920634920634924 100.74074074074075,34.28571428571429 100.74074074074075,33.65079365079365 100.95238095238096,33.01587301587302 101.16402116402116,32.38095238095239 101.37566137566138,31.746031746031747 101.37566137566138,31.111111111111114 101.37566137566138,30.476190476190478 101.37566137566138,29.841269841269842 101.37566137566138,29.20634920634921 101.37566137566138,28.571428571428573 101.16402116402116,27.93650793650794 101.16402116402116,27.301587301587304 101.16402116402116,26.666666666666668 100.95238095238096,26.031746031746035 100.74074074074075,25.3968253968254 100.74074074074075,24.761904761904763 100.52910052910053,24.12698412698413 100.31746031746033,23.492063492063494 99.8941798941799,23.06878306878307 99.68253968253968,22.433862433862437 99.25925925925927,21.7989417989418 99.04761904761905,21.164021164021165 98.62433862433863,20.740740740740744 98.2010582010582,20.105820105820108 97.77777777777779,19.47089947089947 97.35449735449737,18.83597883597884 96.93121693121694,18.201058201058203 96.50793650793652,17.566137566137566 96.08465608465609,16.931216931216934 95.87301587301587,16.296296296296298 95.44973544973546,15.661375661375663 95.44973544973546,15.026455026455027 95.23809523809524,14.391534391534393 95.02645502645504,13.756613756613758 94.81481481481482,13.121693121693122 94.81481481481482,12.486772486772487 94.60317460317461,11.851851851851853 94.60317460317461,11.216931216931219 94.81481481481482,10.582010582010582 94.81481481481482,9.947089947089948 94.81481481481482,9.312169312169313 95.02645502645504,8.677248677248677 95.23809523809524,8.042328042328043 95.66137566137567,7.407407407407408 96.08465608465609,6.772486772486773 96.50793650793652,6.34920634920635 96.93121693121694,5.9259259259259265 97.35449735449737,5.502645502645503 97.77777777777779,5.07936507936508 98.41269841269842,5.07936507936508 99.04761904761905,4.867724867724868 99.68253968253968,4.867724867724868 100.31746031746033,4.656084656084657 100.95238095238096,4.656084656084657 101.5873015873016,4.867724867724868 102.22222222222223,4.867724867724868 102.85714285714286,4.867724867724868 103.4920634920635,5.07936507936508 104.12698412698414,5.07936507936508 104.76190476190477,5.291005291005291 105.3968253968254,5.291005291005291 106.03174603174604,5.291005291005291 106.66666666666667,5.714285714285714 107.3015873015873,5.714285714285714 107.93650793650795,5.714285714285714 108.57142857142858,5.714285714285714 109.20634920634922,5.9259259259259265 109.84126984126985,5.9259259259259265 110.47619047619048,6.137566137566138 111.11111111111111,6.34920634920635 111.74603174603176,6.34920634920635 112.3809523809524,6.560846560846561 113.01587301587303,6.560846560846561 113.65079365079366,6.560846560846561 114.28571428571429,6.560846560846561 114.92063492063492,6.772486772486773 115.55555555555557,6.772486772486773 116.1904761904762,6.772486772486773 116.82539682539684,6.984126984126985 117.46031746031747,6.984126984126985 118.0952380952381,7.195767195767196 118.73015873015873,7.195767195767196 119.36507936507937,7.407407407407408 120.00000000000001,7.6190476190476195 120.63492063492065,7.6190476190476195 121.26984126984128,7.6190476190476195 121.90476190476191,7.830687830687832 122.53968253968254,7.830687830687832 123.17460317460318,8.042328042328043 123.80952380952382,8.042328042328043 124.44444444444446,8.253968253968255 125.07936507936509,8.253968253968255 125.71428571428572,8.253968253968255 126.34920634920636,8.465608465608467 126.98412698412699,8.465608465608467 127.61904761904763,8.677248677248677 128.25396825396825,8.677248677248677 128.88888888888889,8.677248677248677 129.52380952380955,8.88888888888889 130.15873015873018,8.88888888888889 130.7936507936508,8.88888888888889 131.42857142857144,8.88888888888889 132.06349206349208,9.100529100529101 132.6984126984127,9.312169312169313 133.33333333333334,9.312169312169313 133.96825396825398,9.312169312169313 134.6031746031746,9.523809523809524 135.23809523809524,9.523809523809524 135.87301587301587,9.523809523809524 136.5079365079365,9.735449735449736 137.14285714285717,9.735449735449736 137.7777777777778,9.735449735449736 138.41269841269843,9.735449735449736 139.04761904761907,9.735449735449736 139.6825396825397,9.947089947089948 140.31746031746033,10.15873015873016 140.95238095238096,10.15873015873016 144.33862433862436,10.582010582010582" style="fill:none; stroke:#cc0000; stroke-width:1.0"  /><polyline points="144.33862433862436,10.582010582010582 143.70370370370372,13.756613756613758 143.4920634920635,14.391534391534393 143.2804232804233,15.026455026455027 143.2804232804233,15.661375661375663 143.0687830687831,16.296296296296298 142.85714285714286,16.931216931216934 142.85714285714286,17.566137566137566 142.64550264550266,18.201058201058203 142.64550264550266,18.83597883597884 142.43386243386246,19.47089947089947 142.22222222222223,20.105820105820108 142.22222222222223,20.740740740740744 142.01058201058203,21.375661375661377 142.01058201058203,22.010582010582013 141.7989417989418,22.645502645502646 142.01058201058203,23.280423280423282 141.7989417989418,23.915343915343918 141.7989417989418,24.55026455026455 141.5873015873016,25.185185185185187 141.3756613756614,25.820105820105823 141.3756613756614,26.455026455026456 141.3756613756614,27.089947089947092 141.16402116402116,27.724867724867728 141.16402116402116,28.35978835978836 140.95238095238096,28.994708994708997 140.74074074074076,29.629629629629633 140.74074074074076,30.264550264550266 140.74074074074076,30.899470899470902 140.52910052910053,31.53439153439154 140.52910052910053,32.16931216931217 140.31746031746033,32.804232804232804 140.31746031746033,33.43915343915344 140.10582010582013,34.074074074074076 140.10582010582013,34.70899470899471 139.8941798941799,35.34391534391535 139.8941798941799,35.97883597883598 139.6825396825397,36.613756613756614 139.47089947089947,37.248677248677254 139.47089947089947,37.883597883597886 139.47089947089947,38.51851851851852 139.25925925925927,39.15343915343916 139.25925925925927,39.78835978835979 139.04761904761907,40.423280423280424 139.04761904761907,41.058201058201064 139.04761904761907,41.6931216931217 138.83597883597884,42.32804232804233 138.62433862433863,42.96296296296297 138.62433862433863,43.5978835978836 138.41269841269843,44.232804232804234 138.41269841269843,44.867724867724874 138.2010582010582,45.50264550264551 138.2010582010582,46.13756613756614 137.989417989418,46.77248677248678 137.989417989418,47.40740740740741 137.7777777777778,48.042328042328045 137.7777777777778,48.677248677248684 137.56613756613757,49.31216931216932 137.56613756613757,49.94708994708995 137.56613756613757,50.58201058201058 137.35449735449737,51.21693121693122 137.14285714285717,51.851851851851855 137.14285714285717,52.48677248677249 137.14285714285717,53.12169312169313 136.93121693121694,53.75661375661376 136.93121693121694,54.39153439153439 136.71957671957674,55.02645502645503 136.71957671957674,55.661375661375665 136.71957671957674,56.2962962962963 136.71957671957674,56.93121693121694 136.71957671957674,57.56613756613757 136.93121693121694,58.2010582010582 136.93121693121694,58.83597883597884 136.93121693121694,59.470899470899475 137.14285714285717,60.10582010582011 137.35449735449737,60.74074074074075 137.56613756613757,61.37566137566138 137.56613756613757,62.01058201058201 137.989417989418,62.64550264550265 138.41269841269843,63.280423280423285 138.62433862433863,63.91534391534392 139.04761904761907,64.55026455026456 139.47089947089947,64.97354497354497 139.8941798941799,65.60846560846561 140.31746031746033,66.24338624338625 140.74074074074076,66.66666666666667 141.16402116402116,67.08994708994709 141.5873015873016,67.51322751322752 142.22222222222223,67.93650793650794 142.64550264550266,68.35978835978837 143.0687830687831,68.78306878306879 143.70370370370372,69.20634920634922 144.33862433862436,69.62962962962963 144.973544973545,70.05291005291006 145.60846560846562,70.26455026455027 146.24338624338625,70.6878306878307 146.8783068783069,70.8994708994709 147.51322751322752,71.32275132275133 148.14814814814815,71.53439153439155 148.78306878306879,71.53439153439155 149.41798941798942,71.53439153439155 150.05291005291005,71.74603174603175 150.6878306878307,71.95767195767196 151.32275132275134,71.95767195767196 151.95767195767198,71.95767195767196 152.5925925925926,72.16931216931218 153.22751322751324,72.16931216931218 153.86243386243387,72.16931216931218 154.4973544973545,72.16931216931218 155.13227513227514,72.16931216931218 155.76719576719577,72.16931216931218 156.4021164021164,71.95767195767196 157.03703703703704,71.95767195767196 157.67195767195767,71.95767195767196 158.30687830687833,71.74603174603175 158.94179894179896,71.53439153439155 159.5767195767196,71.53439153439155 160.21164021164023,71.53439153439155 160.63492063492066,71.11111111111111 161.2698412698413,70.8994708994709 161.90476190476193,70.6878306878307 162.53968253968256,70.47619047619048 163.1746031746032,70.26455026455027 163.80952380952382,70.05291005291006 164.44444444444446,69.84126984126985 165.0793650793651,69.62962962962963 165.71428571428572,69.41798941798942 166.34920634920636,68.994708994709 166.984126984127,68.994708994709 167.61904761904762,68.78306878306879 168.25396825396825,68.57142857142858 168.8888888888889,68.35978835978837 169.52380952380955,68.35978835978837 170.15873015873018,68.35978835978837 170.7936507936508,68.35978835978837 171.42857142857144,68.35978835978837 171.85185185185188,68.78306878306879 172.4867724867725,68.994708994709 173.12169312169314,68.994708994709 173.75661375661377,68.994708994709 174.3915343915344,69.41798941798942 175.02645502645504,69.84126984126985 175.66137566137567,70.05291005291006 176.2962962962963,70.47619047619048 176.93121693121694,70.8994708994709 177.35449735449737,71.32275132275133 177.7777777777778,71.74603174603175 178.2010582010582,72.16931216931218 178.62433862433863,72.5925925925926 179.04761904761907,73.22751322751323 179.4708994708995,73.86243386243387 179.8941798941799,74.49735449735451 180.10582010582013,75.13227513227514 180.31746031746033,75.76719576719577 180.74074074074076,76.4021164021164 180.95238095238096,77.03703703703704 181.16402116402116,77.67195767195767 181.3756613756614,78.30687830687832 181.5873015873016,78.94179894179895 181.79894179894183,79.57671957671958 182.01058201058203,80.21164021164022 182.22222222222223,80.84656084656085 182.22222222222223,81.48148148148148 182.43386243386246,82.11640211640213 182.22222222222223,82.75132275132276 182.43386243386246,83.3862433862434 182.43386243386246,84.02116402116403 182.43386243386246,84.65608465608466 182.43386243386246,85.29100529100529 182.43386243386246,85.92592592592594 182.43386243386246,86.56084656084657 182.43386243386246,87.1957671957672 182.43386243386246,87.83068783068784 182.22222222222223,88.46560846560847 182.22222222222223,89.1005291005291 182.01058201058203,89.73544973544975 182.01058201058203,90.37037037037038 182.01058201058203,91.00529100529101 181.79894179894183,91.64021164021165 181.79894179894183,92.27513227513228 181.5873015873016,92.91005291005291 181.5873015873016,93.54497354497356 181.5873015873016,94.17989417989419 181.3756613756614,94.81481481481482 181.16402116402116,95.44973544973546 180.95238095238096,96.08465608465609 180.52910052910053,96.71957671957672 180.31746031746033,97.35449735449737 180.10582010582013,97.989417989418 179.8941798941799,98.62433862433863 179.4708994708995,99.25925925925927 179.25925925925927,99.8941798941799 178.83597883597884,100.52910052910053 178.62433862433863,101.16402116402116 178.2010582010582,101.79894179894181 177.7777777777778,102.43386243386244 177.35449735449737,103.06878306878308 176.93121693121694,103.4920634920635 176.50793650793653,104.12698412698414 176.0846560846561,104.76190476190477 175.66137566137567,105.18518518518519 175.23809523809524,105.60846560846562 174.81481481481484,106.03174603174604 174.3915343915344,106.45502645502647 173.96825396825398,106.87830687830689 173.33333333333334,107.3015873015873 172.6984126984127,107.72486772486774 172.06349206349208,108.14814814814815 171.42857142857144,108.57142857142858 170.7936507936508,108.78306878306879 170.15873015873018,108.994708994709 169.52380952380955,109.20634920634922 168.8888888888889,109.41798941798943 168.25396825396825,109.62962962962963 167.61904761904762,109.84126984126985 166.984126984127,109.84126984126985 166.34920634920636,109.84126984126985 165.71428571428572,110.05291005291006 165.0793650793651,110.05291005291006 164.44444444444446,110.05291005291006 163.80952380952382,110.05291005291006 163.1746031746032,109.84126984126985 162.53968253968256,109.84126984126985 161.90476190476193,109.62962962962963 161.2698412698413,109.62962962962963 160.63492063492066,109.41798941798943 160.0,109.20634920634922 159.36507936507937,108.78306878306879 158.73015873015873,108.57142857142858 158.0952380952381,108.35978835978837 157.46031746031747,107.93650793650795 156.82539682539684,107.72486772486774 156.1904761904762,107.3015873015873 155.55555555555557,107.0899470899471 154.92063492063494,107.0899470899471 154.2857142857143,106.87830687830689 153.65079365079367,106.66666666666667 153.01587301587304,106.66666666666667 152.38095238095238,106.66666666666667 151.74603174603175,106.66666666666667 151.11111111111111,106.66666666666667 150.47619047619048,106.87830687830689 149.84126984126985,106.87830687830689 149.20634920634922,107.0899470899471 148.57142857142858,107.51322751322752 147.93650793650795,107.72486772486774 147.51322751322752,108.14814814814815 146.8783068783069,108.35978835978837 146.24338624338625,108.78306878306879 145.82010582010582,109.20634920634922 145.39682539682542,109.62962962962963 144.973544973545,110.05291005291006 144.55026455026456,110.6878306878307 144.12698412698413,111.32275132275133 143.91534391534393,111.95767195767196 143.70370370370372,112.5925925925926 143.4920634920635,113.22751322751324 143.4920634920635,113.86243386243387 143.2804232804233,114.49735449735451 143.2804232804233,115.13227513227514 143.2804232804233,115.76719576719577 143.2804232804233,116.4021164021164 143.4920634920635,117.03703703703705 143.4920634920635,117.67195767195768 143.70370370370372,118.30687830687832 143.70370370370372,118.94179894179895 143.91534391534393,119.57671957671958 143.91534391534393,120.21164021164022 144.12698412698413,120.84656084656086 144.33862433862436,121.4814814814815 144.55026455026456,122.11640211640213 144.55026455026456,122.75132275132276 144.76190476190476,123.3862433862434 144.973544973545,124.02116402116403 145.1851851851852,124.65608465608466 145.39682539682542,125.2910052910053 145.39682539682542,125.92592592592594 145.60846560846562,126.56084656084657 145.82010582010582,127.1957671957672 145.82010582010582,127.83068783068784 146.24338624338625,128.25396825396825 146.24338624338625,128.88888888888889 146.45502645502646,129.52380952380955 146.45502645502646,130.15873015873018 146.66666666666669,130.7936507936508 146.66666666666669,131.42857142857144 146.66666666666669,132.06349206349208 146.8783068783069,132.6984126984127 146.8783068783069,133.33333333333334 146.8783068783069,133.96825396825398 147.0899470899471,134.6031746031746 147.0899470899471,135.23809523809524 147.0899470899471,135.87301587301587 147.30158730158732,136.5079365079365 147.30158730158732,137.14285714285717 147.30158730158732,137.7777777777778 147.51322751322752,138.41269841269843 147.51322751322752,139.04761904761907 147.51322751322752,139.6825396825397 147.51322751322752,140.31746031746033 147.51322751322752,140.95238095238096 147.51322751322752,141.5873015873016 147.72486772486775,142.22222222222223 147.72486772486775,142.85714285714286 147.72486772486775,143.4920634920635 147.72486772486775,144.12698412698413 147.72486772486775,144.76190476190476 147.93650793650795,145.39682539682542 147.93650793650795,146.03174603174605 147.93650793650795,146.66666666666669 147.93650793650795,147.30158730158732 147.93650793650795,147.93650793650795 147.93650793650795,148.57142857142858 147.93650793650795,149.20634920634922 147.93650793650795,149.84126984126985 148.14814814814815,153.86243386243387" style="fill:none; stroke:#999900; stroke-width:1.0"  /><polyline points="148.14814814814815,153.86243386243387 144.76190476190476,155.13227513227514 144.12698412698413,155.34391534391534 143.4920634920635,155.55555555555557 142.85714285714286,155.978835978836 142.22222222222223,156.1904761904762 141.5873015873016,156.4021164021164 140.95238095238096,156.61375661375664 140.31746031746033,156.82539682539684 139.6825396825397,157.03703703703704 139.04761904761907,157.46031746031747 138.41269841269843,157.67195767195767 137.7777777777778,157.8835978835979 137.14285714285717,158.0952380952381 136.5079365079365,158.51851851851853 135.87301587301587,158.51851851851853 135.23809523809524,158.94179894179896 134.6031746031746,159.15343915343917 133.96825396825398,159.36507936507937 133.33333333333334,159.5767195767196 132.6984126984127,159.7883597883598 132.06349206349208,160.0 131.42857142857144,160.21164021164023 130.7936507936508,160.42328042328043 130.15873015873018,160.63492063492066 129.52380952380955,160.84656084656086 128.88888888888889,161.05820105820106 128.25396825396825,161.2698412698413 127.61904761904763,161.4814814814815 126.98412698412699,161.6931216931217 126.34920634920636,161.90476190476193 125.71428571428572,162.11640211640213 125.07936507936509,162.32804232804233 124.44444444444446,162.32804232804233 123.80952380952382,162.53968253968256 123.17460317460318,162.75132275132276 122.53968253968254,162.96296296296296 121.90476190476191,163.1746031746032 121.26984126984128,163.3862433862434 120.63492063492065,163.59788359788362 120.00000000000001,163.80952380952382 119.36507936507937,164.02116402116403 118.73015873015873,164.02116402116403 118.0952380952381,164.23280423280426 117.46031746031747,164.44444444444446 116.82539682539684,164.44444444444446 116.1904761904762,164.65608465608466 115.55555555555557,164.65608465608466 114.92063492063492,164.8677248677249 114.28571428571429,164.8677248677249 113.86243386243387,165.2910052910053 113.22751322751324,165.2910052910053 112.5925925925926,165.2910052910053 111.95767195767196,165.50264550264552 111.32275132275133,165.50264550264552 110.6878306878307,165.50264550264552 110.05291005291006,165.50264550264552 109.41798941798943,165.50264550264552 108.78306878306879,165.50264550264552 108.14814814814815,165.2910052910053 107.51322751322752,165.2910052910053 106.87830687830689,165.0793650793651 106.24338624338625,164.65608465608466 105.60846560846562,164.23280423280426 104.97354497354497,163.80952380952382 104.55026455026456,163.3862433862434 104.12698412698414,162.96296296296296 103.91534391534393,162.32804232804233 103.4920634920635,161.6931216931217 103.4920634920635,161.05820105820106 103.28042328042329,160.42328042328043 103.28042328042329,159.7883597883598 103.28042328042329,159.15343915343917 103.4920634920635,158.51851851851853 103.4920634920635,157.8835978835979 103.70370370370371,157.24867724867727 103.91534391534393,156.61375661375664 104.12698412698414,155.978835978836 104.33862433862434,155.34391534391534 104.76190476190477,154.7089947089947 104.97354497354497,154.07407407407408 105.3968253968254,153.43915343915344 105.60846560846562,152.8042328042328 106.03174603174604,152.38095238095238 106.45502645502647,151.74603174603175 106.66666666666667,151.11111111111111 107.0899470899471,150.47619047619048 107.51322751322752,149.84126984126985 107.93650793650795,149.20634920634922 108.35978835978837,148.57142857142858 108.57142857142858,147.93650793650795 108.994708994709,147.30158730158732 109.41798941798943,146.66666666666669 109.62962962962963,146.03174603174605 109.84126984126985,145.39682539682542 110.05291005291006,144.76190476190476 110.26455026455027,144.12698412698413 110.26455026455027,143.4920634920635 110.47619047619048,142.85714285714286 110.47619047619048,142.22222222222223 110.6878306878307,141.5873015873016 110.6878306878307,140.95238095238096 110.6878306878307,140.31746031746033 110.6878306878307,139.6825396825397 110.6878306878307,139.04761904761907 110.47619047619048,138.41269841269843 110.26455026455027,137.7777777777778 110.26455026455027,137.14285714285717 109.84126984126985,136.5079365079365 109.62962962962963,135.87301587301587 109.20634920634922,135.44973544973547 108.78306878306879,134.81481481481484 108.35978835978837,134.17989417989418 107.93650793650795,133.75661375661377 107.51322751322752,133.12169312169314 107.0899470899471,132.6984126984127 106.66666666666667,132.27513227513228 106.24338624338625,131.85185185185185 105.60846560846562,131.42857142857144 105.18518518518519,131.005291005291 104.55026455026456,130.58201058201058 103.91534391534393,130.15873015873018 103.4920634920635,129.73544973544975 102.85714285714286,129.52380952380955 102.43386243386244,129.10052910052912 101.79894179894181,128.88888888888889 101.16402116402116,128.67724867724868 100.52910052910053,128.25396825396825 99.8941798941799,128.04232804232805 99.25925925925927,128.04232804232805 98.62433862433863,127.83068783068784 97.989417989418,127.61904761904763 97.35449735449737,127.61904761904763 96.71957671957672,127.61904761904763 96.08465608465609,127.61904761904763 95.44973544973546,127.61904761904763 94.81481481481482,127.61904761904763 94.17989417989419,127.61904761904763 93.54497354497356,127.61904761904763 92.91005291005291,127.83068783068784 92.27513227513228,127.83068783068784 91.64021164021165,127.83068783068784 91.00529100529101,128.25396825396825 90.37037037037038,128.25396825396825 89.73544973544975,128.46560846560848 89.1005291005291,128.67724867724868 88.46560846560847,128.88888888888889 87.83068783068784,129.10052910052912 87.1957671957672,129.31216931216932 86.56084656084657,129.52380952380955 85.92592592592594,129.73544973544975 85.29100529100529,129.94708994708995 84.65608465608466,130.37037037037038 84.02116402116403,130.58201058201058 83.3862433862434,131.005291005291 82.75132275132276,131.42857142857144 82.11640211640213,131.85185185185185 81.6931216931217,132.27513227513228 81.05820105820106,132.6984126984127 80.63492063492065,133.12169312169314 80.21164021164022,133.54497354497354 80.0,134.17989417989418 79.57671957671958,134.81481481481484 79.15343915343917,135.44973544973547 78.73015873015873,136.0846560846561 78.73015873015873,136.71957671957674 78.51851851851852,137.35449735449737 78.30687830687832,137.989417989418 78.0952380952381,138.62433862433863 78.0952380952381,139.25925925925927 78.0952380952381,139.8941798941799 78.0952380952381,140.52910052910053 78.0952380952381,141.16402116402116 78.0952380952381,141.7989417989418 78.0952380952381,142.43386243386246 78.30687830687832,143.0687830687831 78.30687830687832,143.70370370370372 78.51851851851852,144.33862433862436 78.51851851851852,144.973544973545 78.51851851851852,145.60846560846562 78.73015873015873,146.24338624338625 79.15343915343917,146.8783068783069 79.15343915343917,147.51322751322752 79.57671957671958,148.14814814814815 79.7883597883598,148.78306878306879 80.0,149.41798941798942 80.21164021164022,150.05291005291005 80.42328042328043,150.6878306878307 80.84656084656085,151.32275132275134 81.05820105820106,151.95767195767198 81.26984126984128,152.5925925925926 81.6931216931217,153.22751322751324 81.90476190476191,153.86243386243387 82.11640211640213,154.4973544973545 82.32804232804233,155.13227513227514 82.53968253968254,155.76719576719577 82.75132275132276,156.4021164021164 82.96296296296298,157.03703703703704 82.96296296296298,157.67195767195767 82.96296296296298,158.30687830687833 82.96296296296298,158.94179894179896 82.75132275132276,159.5767195767196 82.53968253968254,160.21164021164023 82.32804232804233,160.84656084656086 81.90476190476191,161.2698412698413 81.48148148148148,161.6931216931217 81.05820105820106,162.11640211640213 80.42328042328043,162.53968253968256 79.7883597883598,162.96296296296296 79.15343915343917,163.1746031746032 78.73015873015873,163.59788359788362 78.0952380952381,163.80952380952382 77.46031746031747,164.02116402116403 76.82539682539684,164.02116402116403 76.19047619047619,164.23280423280426 75.55555555555556,164.44444444444446 74.92063492063492,164.44444444444446 74.28571428571429,164.65608465608466 73.65079365079366,164.8677248677249 73.01587301587303,164.8677248677249 72.38095238095238,165.0793650793651 71.74603174603175,165.0793650793651 71.11111111111111,165.2910052910053 70.47619047619048,165.2910052910053 69.84126984126985,165.50264550264552 69.20634920634922,165.50264550264552 68.57142857142858,165.71428571428572 67.93650793650794,165.71428571428572 67.3015873015873,165.92592592592595 66.66666666666667,165.92592592592595 66.03174603174604,165.92592592592595 65.3968253968254,166.13756613756615 64.76190476190477,166.13756613756615 64.12698412698413,166.34920634920636 63.492063492063494,166.34920634920636 62.85714285714286,166.34920634920636 62.22222222222223,166.34920634920636 61.58730158730159,166.56084656084658 60.952380952380956,166.56084656084658 60.31746031746032,166.56084656084658 59.682539682539684,166.7724867724868 59.04761904761905,166.7724867724868 58.41269841269842,166.7724867724868 57.777777777777786,166.7724867724868 57.142857142857146,166.984126984127 56.50793650793651,166.984126984127 55.87301587301588,166.984126984127 55.23809523809524,166.984126984127 54.60317460317461,167.19576719576722 53.968253968253975,167.19576719576722 53.333333333333336,167.19576719576722 52.6984126984127,167.19576719576722 52.06349206349207,167.40740740740742 51.42857142857143,167.40740740740742 50.7936507936508,167.40740740740742 50.158730158730165,167.40740740740742 49.523809523809526,167.40740740740742 48.88888888888889,167.40740740740742 48.25396825396826,167.61904761904762 47.61904761904762,167.61904761904762 46.98412698412699,167.61904761904762 46.349206349206355,167.61904761904762 45.714285714285715,167.83068783068785 45.07936507936508,167.83068783068785 44.44444444444445,167.83068783068785 43.80952380952381,168.04232804232805 43.17460317460318,168.25396825396825 42.539682539682545,168.25396825396825 41.904761904761905,168.25396825396825 41.26984126984127,168.46560846560848 40.63492063492064,168.46560846560848 40.0,168.46560846560848 39.36507936507937,168.67724867724868 38.730158730158735,168.67724867724868 38.095238095238095,168.67724867724868 37.46031746031746,168.67724867724868 36.82539682539683,168.8888888888889 36.19047619047619,168.8888888888889 35.55555555555556,168.8888888888889 34.920634920634924,168.8888888888889 34.28571428571429,169.10052910052912 33.65079365079365,169.10052910052912 33.01587301587302,169.31216931216932 32.38095238095239,169.31216931216932 31.746031746031747,169.31216931216932 31.111111111111114,169.52380952380955 30.476190476190478,169.52380952380955 29.841269841269842,169.52380952380955 29.20634920634921,169.73544973544975 28.571428571428573,169.73544973544975 27.93650793650794,169.73544973544975 27.301587301587304,169.73544973544975 26.666666666666668,169.73544973544975 23.280423280423282,170.15873015873018" style="fill:none; stroke:#00aa99; stroke-width:1.0"  /><polyline points="23.280423280423282,170.15873015873018 22.433862433862437,166.984126984127 22.433862433862437,166.34920634920636 22.222222222222225,165.71428571428572 22.222222222222225,165.0793650793651 22.010582010582013,164.44444444444446 21.7989417989418,163.80952380952382 21.375661375661377,163.1746031746032 21.164021164021165,162.53968253968256 20.952380952380953,161.90476190476193 20.740740740740744,161.2698412698413 20.529100529100532,160.63492063492066 20.31746031746032,160.0 20.105820105820108,159.36507936507937 19.894179894179896,158.73015873015873 19.682539682539684,158.0952380952381 19.25925925925926,157.46031746031747 19.047619047619047,156.82539682539684 18.83597883597884,156.1904761904762 18.624338624338627,155.55555555555557 18.412698412698415,154.92063492063494 18.201058201058203,154.2857142857143 17.77777777777778,153.65079365079367 17.566137566137566,153.01587301587304 17.354497354497354,152.38095238095238 17.354497354497354,151.74603174603175 16.931216931216934,151.32275132275134 16.71957671957672,150.6878306878307 16.50793650793651,150.05291005291005 16.296296296296298,149.41798941798942 15.873015873015873,148.78306878306879 15.661375661375663,148.14814814814815 15.238095238095239,147.51322751322752 15.026455026455027,146.8783068783069 14.814814814814817,146.24338624338625 14.603174603174605,145.60846560846562 14.17989417989418,144.973544973545 13.96825396825397,144.33862433862436 13.756613756613758,143.70370370370372 13.333333333333334,143.0687830687831 13.121693121693122,142.43386243386246 12.6984126984127,142.01058201058203 12.486772486772487,141.3756613756614 12.063492063492065,140.74074074074076 11.851851851851853,140.10582010582013 11.428571428571429,139.47089947089947 11.005291005291006,138.83597883597884 10.793650793650794,138.2010582010582 10.370370370370372,137.56613756613757 10.15873015873016,136.93121693121694 9.735449735449736,136.2962962962963 9.312169312169313,135.66137566137567 8.88888888888889,135.02645502645504 8.677248677248677,134.3915343915344 8.253968253968255,133.75661375661377 8.042328042328043,133.12169312169314 7.6190476190476195,132.4867724867725 7.407407407407408,131.85185185185185 6.984126984126985,131.21693121693121 6.772486772486773,130.58201058201058 6.560846560846561,129.94708994708995 6.137566137566138,129.31216931216932 5.9259259259259265,128.67724867724868 5.502645502645503,128.25396825396825 5.291005291005291,127.61904761904763 5.07936507936508,126.98412698412699 4.656084656084657,126.34920634920636 4.444444444444445,125.71428571428572 4.2328042328042335,125.07936507936509 4.021164021164021,124.44444444444446 3.8095238095238098,123.80952380952382 3.597883597883598,123.17460317460318 3.174603174603175,122.53968253968254 2.9629629629629632,121.90476190476191 2.7513227513227516,121.26984126984128 2.53968253968254,120.63492063492065 2.3280423280423284,120.00000000000001 2.1164021164021167,119.36507936507937 1.9047619047619049,118.73015873015873 1.6931216931216932,118.0952380952381 1.4814814814814816,117.46031746031747 1.26984126984127,116.82539682539684 1.0582010582010584,116.1904761904762 1.0582010582010584,115.55555555555557 0.8465608465608466,114.92063492063492 0.634920634920635,114.28571428571429 0.634920634920635,113.65079365079366 0.4232804232804233,113.01587301587303 0.4232804232804233,112.3809523809524 0.21164021164021166,111.74603174603176 0.21164021164021166,111.11111111111111 0.21164021164021166,110.47619047619048 0.21164021164021166,109.84126984126985 0.21164021164021166,109.20634920634922 0.21164021164021166,108.57142857142858 0.21164021164021166,107.93650793650795 0.21164021164021166,107.3015873015873 0.4232804232804233,106.66666666666667 0.4232804232804233,106.03174603174604 0.634920634920635,105.3968253968254 0.634920634920635,104.76190476190477 0.8465608465608466,104.12698412698414 1.0582010582010584,103.4920634920635 1.26984126984127,102.85714285714286 1.4814814814814816,102.22222222222223 1.9047619047619049,101.5873015873016 2.1164021164021167,100.95238095238096 2.3280423280423284,100.31746031746033 2.7513227513227516,99.68253968253968 3.174603174603175,99.04761904761905 3.597883597883598,98.41269841269842 4.021164021164021,97.989417989418 4.444444444444445,97.56613756613757 4.867724867724868,97.14285714285715 5.502645502645503,96.71957671957672 6.137566137566138,96.2962962962963 6.772486772486773,96.08465608465609 7.407407407407408,95.87301587301587 8.042328042328043,95.66137566137567 8.677248677248677,95.66137566137567 8.465608465608467,95.02645502645504 9.100529100529101,95.23809523809524 9.735449735449736,95.23809523809524 10.370370370370372,95.44973544973546 11.005291005291006,95.44973544973546 11.640211640211641,95.44973544973546 12.275132275132275,95.66137566137567 12.910052910052912,95.66137566137567 13.544973544973546,95.87301587301587 14.17989417989418,96.08465608465609 14.814814814814817,96.2962962962963 15.449735449735451,96.50793650793652 16.084656084656086,96.93121693121694 16.50793650793651,97.35449735449737 17.142857142857146,97.77777777777779 17.77777777777778,97.989417989418 18.201058201058203,98.41269841269842 18.83597883597884,98.83597883597885 19.47089947089947,99.25925925925927 19.894179894179896,99.68253968253968 20.529100529100532,100.10582010582011 21.164021164021165,100.52910052910053 21.7989417989418,100.95238095238096 22.222222222222225,101.37566137566138 22.857142857142858,101.79894179894181 23.492063492063494,102.22222222222223 24.12698412698413,102.64550264550266 24.761904761904763,102.85714285714286 25.3968253968254,103.28042328042329 26.031746031746035,103.28042328042329 26.666666666666668,103.70370370370371 27.301587301587304,103.70370370370371 27.93650793650794,103.91534391534393 28.571428571428573,104.12698412698414 29.20634920634921,104.33862433862434 29.841269841269842,104.33862433862434 30.476190476190478,104.33862433862434 31.111111111111114,104.55026455026456 31.746031746031747,104.55026455026456 32.38095238095239,104.55026455026456 33.01587301587302,104.55026455026456 33.65079365079365,104.55026455026456 34.28571428571429,104.33862433862434 34.920634920634924,104.33862433862434 35.55555555555556,104.12698412698414 36.19047619047619,103.91534391534393 36.82539682539683,103.70370370370371 37.46031746031746,103.28042328042329 38.095238095238095,103.06878306878308 38.51851851851852,102.64550264550266 38.94179894179894,102.22222222222223 39.57671957671958,101.79894179894181 40.0,101.37566137566138 40.423280423280424,100.95238095238096 40.84656084656085,100.31746031746033 41.26984126984127,99.8941798941799 41.6931216931217,99.25925925925927 42.11640211640212,98.83597883597885 42.539682539682545,98.2010582010582 42.96296296296297,97.56613756613757 43.386243386243386,96.93121693121694 43.80952380952381,96.2962962962963 44.021164021164026,95.66137566137567 44.232804232804234,95.02645502645504 44.65608465608466,94.39153439153439 44.867724867724874,93.75661375661376 45.07936507936508,93.12169312169313 45.29100529100529,92.4867724867725 45.50264550264551,91.85185185185186 45.714285714285715,91.21693121693123 45.92592592592593,90.58201058201058 46.13756613756614,89.94708994708995 46.13756613756614,89.31216931216932 46.349206349206355,88.67724867724868 46.560846560846564,88.04232804232805 46.77248677248678,87.40740740740742 46.77248677248678,86.77248677248677 46.98412698412699,86.13756613756614 46.98412698412699,85.5026455026455 46.98412698412699,84.86772486772487 47.195767195767196,84.23280423280424 47.195767195767196,83.59788359788361 47.195767195767196,82.96296296296298 47.195767195767196,82.32804232804233 47.195767195767196,81.6931216931217 47.195767195767196,81.05820105820106 47.195767195767196,80.42328042328043 47.195767195767196,79.7883597883598 47.195767195767196,79.15343915343917 47.195767195767196,78.51851851851852 47.195767195767196,77.88359788359789 46.98412698412699,77.24867724867725 46.98412698412699,76.61375661375662 46.98412698412699,75.97883597883599 46.77248677248678,75.34391534391536 46.77248677248678,74.70899470899471 46.560846560846564,74.07407407407408 46.349206349206355,73.43915343915344 46.13756613756614,72.80423280423281 46.13756613756614,72.16931216931218 45.92592592592593,71.53439153439155 45.50264550264551,70.8994708994709 45.29100529100529,70.26455026455027 45.07936507936508,69.62962962962963 44.65608465608466,68.994708994709 44.44444444444445,68.35978835978837 44.021164021164026,67.93650793650794 43.5978835978836,67.3015873015873 43.17460317460318,66.66666666666667 42.75132275132275,66.03174603174604 42.32804232804233,65.60846560846561 41.904761904761905,65.18518518518519 41.48148148148149,64.55026455026456 41.058201058201064,64.12698412698413 40.63492063492064,63.70370370370371 40.211640211640216,63.280423280423285 39.78835978835979,62.85714285714286 39.36507936507937,62.43386243386244 38.94179894179894,62.01058201058201 38.30687830687831,61.58730158730159 37.67195767195768,61.16402116402117 37.248677248677254,60.74074074074075 36.613756613756614,60.31746031746032 35.97883597883598,59.8941798941799 35.34391534391535,59.470899470899475 34.70899470899471,59.04761904761905 34.074074074074076,58.83597883597884 33.43915343915344,58.62433862433863 32.804232804232804,58.41269841269842 32.16931216931217,58.2010582010582 31.53439153439154,57.989417989417994 30.899470899470902,57.989417989417994 30.264550264550266,57.777777777777786 29.629629629629633,57.777777777777786 28.994708994708997,57.777777777777786 28.35978835978836,57.777777777777786 27.724867724867728,57.777777777777786 27.089947089947092,57.989417989417994 26.455026455026456,57.989417989417994 25.820105820105823,58.2010582010582 25.185185185185187,58.41269841269842 24.55026455026455,58.62433862433863 23.915343915343918,58.83597883597884 23.280423280423282,59.04761904761905 22.645502645502646,59.25925925925927 22.222222222222225,59.682539682539684 21.7989417989418,60.10582010582011 21.375661375661377,60.52910052910053 20.740740740740744,60.952380952380956 20.31746031746032,61.37566137566138 19.894179894179896,61.798941798941804 19.47089947089947,62.22222222222223 19.047619047619047,62.64550264550265 18.624338624338627,63.06878306878308 18.201058201058203,63.70370370370371 17.77777777777778,64.12698412698413 17.354497354497354,64.76190476190477 16.931216931216934,65.18518518518519 16.50793650793651,65.82010582010582 16.084656084656086,66.24338624338625 15.661375661375663,66.66666666666667 15.238095238095239,67.08994708994709 14.814814814814817,67.51322751322752 14.391534391534393,67.93650793650794 13.756613756613758,68.14814814814815 13.333333333333334,68.57142857142858 12.6984126984127,68.78306878306879 12.063492063492065,68.78306878306879 11.428571428571429,68.994708994709 10.793650793650794,68.994708994709 10.15873015873016,68.994708994709 9.523809523809524,68.78306878306879 8.88888888888889,68.57142857142858 8.253968253968255,68.57142857142858 7.6190476190476195,68.14814814814815 6.984126984126985,67.72486772486774 6.560846560846561,67.3015873015873 6.34920634920635,66.66666666666667 6.137566137566138,66.03174603174604 5.9259259259259265,65.3968253968254 5.9259259259259265,64.76190476190477 5.714285714285714,64.12698412698413 5.714285714285714,63.492063492063494 5.714285714285714,62.85714285714286 5.714285714285714,62.22222222222223 5.714285714285714,61.58730158730159 5.714285714285714,60.952380952380956 5.714285714285714,60.31746031746032 5.714285714285714,59.682539682539684 5.714285714285714,59.04761904761905 5.502645502645503,58.41269841269842 5.502645502645503,57.777777777777786 5.502645502645503,57.142857142857146 5.502645502645503,56.50793650793651 5.502645502645503,55.87301587301588 5.502645502645503,55.23809523809524 5.502645502645503,54.60317460317461 5.714285714285714,53.968253968253975 5.714285714285714,53.333333333333336 5.714285714285714,52.6984126984127 5.714285714285714,52.06349206349207 5.714285714285714,51.42857142857143 5.9259259259259265,50.7936507936508 5.9259259259259265,50.158730158730165 5.9259259259259265,49.523809523809526 5.9259259259259265,48.88888888888889 5.9259259259259265,48.25396825396826 5.9259259259259265,47.61904761904762 6.137566137566138,46.98412698412699 6.137566137566138,46.349206349206355 6.137566137566138,45.714285714285715 6.34920634920635,45.07936507936508 6.34920634920635,44.44444444444445 6.34920634920635,43.80952380952381 6.34920634920635,43.17460317460318 6.34920634920635,42.539682539682545 6.560846560846561,41.904761904761905 6.560846560846561,41.26984126984127 6.560846560846561,40.63492063492064 6.560846560846561,40.0 6.772486772486773,39.36507936507937 6.772486772486773,38.730158730158735 6.772486772486773,38.095238095238095 6.772486772486773,37.46031746031746 6.984126984126985,36.82539682539683 6.984126984126985,36.19047619047619 6.984126984126985,35.55555555555556 6.984126984126985,34.920634920634924 7.195767195767196,34.28571428571429 7.195767195767196,33.65079365079365 7.407407407407408,33.01587301587302 7.407407407407408,32.38095238095239 7.407407407407408,31.746031746031747 7.407407407407408,31.111111111111114 7.6190476190476195,30.476190476190478 7.6190476190476195,29.841269841269842 7.6190476190476195,29.20634920634921 7.6190476190476195,28.571428571428573 7.6190476190476195,27.93650793650794 7.830687830687832,27.301587301587304 7.830687830687832,26.666666666666668 8.042328042328043,26.031746031746035 8.042328042328043,25.3968253968254 8.042328042328043,24.761904761904763 8.042328042328043,24.12698412698413 7.830687830687832,23.492063492063494 8.042328042328043,22.857142857142858 8.042328042328043,22.222222222222225 8.042328042328043,21.58730158730159 8.042328042328043,20.952380952380953 8.042328042328043,20.31746031746032 8.042328042328043,19.682539682539684 8.042328042328043,19.047619047619047 8.042328042328043,18.412698412698415 8.042328042328043,17.77777777777778 8.042328042328043,17.142857142857146 8.042328042328043,16.50793650793651 8.042328042328043,15.873015873015873 8.042328042328043,15.238095238095239 7.830687830687832,14.603174603174605 7.830687830687832,13.96825396825397 7.830687830687832,13.333333333333334 7.6190476190476195,12.6984126984127 7.6190476190476195,12.063492063492065 7.407407407407408,11.428571428571429 7.407407407407408,10.793650793650794 7.195767195767196,10.15873015873016 6.772486772486773,6.34920634920635" style="fill:none; stroke:#3300bb; stroke-width:1.0"  /><circle cx="6.772486772486773" cy="6.34920634920635" r="2.0" style="fill:none; stroke:#000000aa; stroke-width:0.25" /><circle cx="144.33862433862436" cy="10.582010582010582" r="2.0" style="fill:none; stroke:#000000aa; stroke-width:0.25" /><circle cx="148.14814814814815" cy="153.86243386243387" r="2.0" style="fill:none; stroke:#000000aa; stroke-width:0.25" /><circle cx="23.280423280423282" cy="170.15873015873018" r="2.0" style="fill:none; stroke:#000000aa; stroke-width:0.25" /><circle cx="6.560846560846561" cy="7.195767195767196" r="2.0" style="fill:none; stroke:#ff3366aa; stroke-width:0.25" /><circle cx="144.33862433862436" cy="10.582010582010582" r="2.0" style="fill:none; stroke:#ff3366aa; stroke-width:0.25" /><circle cx="147.93650793650795" cy="153.43915343915344" r="2.0" style="fill:none; stroke:#ff3366aa; stroke-width:0.25" /><circle cx="23.492063492063494" cy="169.94708994708995" r="2.0" style="fill:none; stroke:#ff3366aa; stroke-width:0.25" /><polyline points="17.77777777777778,3.597883597883598 17.142857142857146,3.8095238095238098 16.50793650793651,4.021164021164021 15.873015873015873,4.2328042328042335 15.238095238095239,4.444444444444445 14.603174603174605,4.444444444444445 13.96825396825397,4.656084656084657 13.333333333333334,4.867724867724868 12.6984126984127,4.867724867724868 12.063492063492065,5.07936507936508 11.428571428571429,5.291005291005291 10.793650793650794,5.291005291005291 10.15873015873016,5.502645502645503 9.523809523809524,5.714285714285714" style="fill:none; stroke:#001100; stroke-width:1.0" /><polyline points="8.042328042328043,19.047619047619047 8.042328042328043,18.412698412698415 8.042328042328043,17.77777777777778 8.042328042328043,17.142857142857146 8.042328042328043,16.50793650793651 8.042328042328043,15.873015873015873 8.042328042328043,15.238095238095239 7.830687830687832,14.603174603174605 7.830687830687832,13.96825396825397 7.830687830687832,13.333333333333334 7.6190476190476195,12.6984126984127 7.6190476190476195,12.063492063492065 7.407407407407408,11.428571428571429 7.407407407407408,10.793650793650794 7.195767195767196,10.15873015873016" style="fill:none; stroke:#000011; stroke-width:1.0" /><polyline points="142.01058201058203,22.010582010582013 142.01058201058203,21.375661375661377 142.22222222222223,20.740740740740744 142.22222222222223,20.105820105820108 142.43386243386246,19.47089947089947 142.64550264550266,18.83597883597884 142.64550264550266,18.201058201058203 142.85714285714286,17.566137566137566 142.85714285714286,16.931216931216934 143.0687830687831,16.296296296296298 143.2804232804233,15.661375661375663 143.2804232804233,15.026455026455027 143.4920634920635,14.391534391534393 143.70370370370372,13.756613756613758" style="fill:none; stroke:#001100; stroke-width:1.0" /><polyline points="132.6984126984127,9.312169312169313 133.33333333333334,9.312169312169313 133.96825396825398,9.312169312169313 134.6031746031746,9.523809523809524 135.23809523809524,9.523809523809524 135.87301587301587,9.523809523809524 136.5079365079365,9.735449735449736 137.14285714285717,9.735449735449736 137.7777777777778,9.735449735449736 138.41269841269843,9.735449735449736 139.04761904761907,9.735449735449736 139.6825396825397,9.947089947089948 140.31746031746033,10.15873015873016 140.95238095238096,10.15873015873016" style="fill:none; stroke:#000011; stroke-width:1.0" /><polyline points="137.14285714285717,158.0952380952381 137.7777777777778,157.8835978835979 138.41269841269843,157.67195767195767 139.04761904761907,157.46031746031747 139.6825396825397,157.03703703703704 140.31746031746033,156.82539682539684 140.95238095238096,156.61375661375664 141.5873015873016,156.4021164021164 142.22222222222223,156.1904761904762 142.85714285714286,155.978835978836 143.4920634920635,155.55555555555557 144.12698412698413,155.34391534391534 144.76190476190476,155.13227513227514" style="fill:none; stroke:#001100; stroke-width:1.0" /><polyline points="147.51322751322752,141.5873015873016 147.72486772486775,142.22222222222223 147.72486772486775,142.85714285714286 147.72486772486775,143.4920634920635 147.72486772486775,144.12698412698413 147.72486772486775,144.76190476190476 147.93650793650795,145.39682539682542 147.93650793650795,146.03174603174605 147.93650793650795,146.66666666666669 147.93650793650795,147.30158730158732 147.93650793650795,147.93650793650795 147.93650793650795,148.57142857142858 147.93650793650795,149.20634920634922 147.93650793650795,149.84126984126985 147.93650793650795,150.47619047619048" style="fill:none; stroke:#000011; stroke-width:1.0" /><polyline points="19.894179894179896,158.73015873015873 20.105820105820108,159.36507936507937 20.31746031746032,160.0 20.529100529100532,160.63492063492066 20.740740740740744,161.2698412698413 20.952380952380953,161.90476190476193 21.164021164021165,162.53968253968256 21.375661375661377,163.1746031746032 21.7989417989418,163.80952380952382 22.010582010582013,164.44444444444446 22.222222222222225,165.0793650793651 22.222222222222225,165.71428571428572 22.433862433862437,166.34920634920636 22.433862433862437,166.984126984127" style="fill:none; stroke:#001100; stroke-width:1.0" /><polyline points="34.920634920634924,168.8888888888889 34.28571428571429,169.10052910052912 33.65079365079365,169.10052910052912 33.01587301587302,169.31216931216932 32.38095238095239,169.31216931216932 31.746031746031747,169.31216931216932 31.111111111111114,169.52380952380955 30.476190476190478,169.52380952380955 29.841269841269842,169.52380952380955 29.20634920634921,169.73544973544975 28.571428571428573,169.73544973544975 27.93650793650794,169.73544973544975 27.301587301587304,169.73544973544975 26.666666666666668,169.73544973544975" style="fill:none; stroke:#000011; stroke-width:1.0" /><polyline points="9.523809523809524,5.714285714285714 -11.005291005291006,11.005291005291006" style="fill:none; stroke:#ffaa00; stroke-width:0.4" /><polyline points="7.195767195767196,10.15873015873016 5.291005291005291,-11.005291005291006" style="fill:none; stroke:#aaff00; stroke-width:0.4" /><polyline points="143.70370370370372,13.756613756613758 147.93650793650795,-6.984126984126985" style="fill:none; stroke:#ffaa00; stroke-width:0.4" /><polyline points="140.95238095238096,10.15873015873016 161.90476190476193,12.275132275132275" style="fill:none; stroke:#aaff00; stroke-width:0.4" /><polyline points="144.76190476190476,155.13227513227514 164.44444444444446,147.51322751322752" style="fill:none; stroke:#ffaa00; stroke-width:0.4" /><polyline points="147.93650793650795,150.47619047619048 148.99470899470901,171.64021164021165" style="fill:none; stroke:#aaff00; stroke-width:0.4" /><polyline points="22.433862433862437,166.984126984127 28.571428571428573,187.30158730158732" style="fill:none; stroke:#ffaa00; stroke-width:0.4" /><polyline points="26.666666666666668,169.73544973544975 5.714285714285714,171.85185185185188" style="fill:none; stroke:#aaff00; stroke-width:0.4" /><circle cx="82.32804232804233" cy="86.13756613756614" r="1.0" style="fill:#444444; stroke-width:0" /><circle cx="102.85714285714286" cy="86.13756613756614" r="10.582010582010582" style="fill:#ff770022; stroke-width:0" /><circle cx="102.85714285714286" cy="86.13756613756614" r="1.0" style="fill:#ff7700; stroke-width:0" /></svg>