<?xml version="1.0" encoding="UTF-8" standalone="no"?><svg width="567.6190476190477" height="579.6825396825398" viewBox="-10 -10 209.20634920634922 213.22751322751324" xmlns="http://www.w3.org/2000/svg" xmlns:xlink="http://www.w3.org/1999/xlink"><polyline points="0.21164021164021166,88.67724867724868 2.3280423280423284,86.77248677248677 2.9629629629629632,86.34920634920636 3.597883597883598,85.92592592592594 4.021164021164021,85.5026455026455 4.656084656084657,85.07936507936509 5.07936507936508,84.65608465608466 5.502645502645503,84.23280423280424 5.9259259259259265,83.80952380952381 6.560846560846561,83.3862433862434 7.195767195767196,82.96296296296298 7.6190476190476195,82.53968253968254 8.042328042328043,82.11640211640213 8.465608465608467,81.6931216931217 8.88888888888889,81.26984126984128 9.312169312169313,80.84656084656085 9.735449735449736,80.42328042328043 10.15873015873016,80.0 10.582010582010582,79.57671957671958 11.005291005291006,79.15343915343917 11.428571428571429,78.73015873015873 11.851851851851853,78.30687830687832 12.275132275132275,77.67195767195767 12.6984126984127,77.24867724867725 13.121693121693122,76.82539682539684 13.544973544973546,76.4021164021164 13.96825396825397,75.97883597883599 14.391534391534393,75.34391534391536 14.814814814814817,74.92063492063492 15.238095238095239,74.49735449735451 15.661375661375663,74.07407407407408 16.084656084656086,73.43915343915344 16.50793650793651,73.01587301587303 16.931216931216934,72.5925925925926 17.354497354497354,72.16931216931218 17.77777777777778,71.53439153439155 18.201058201058203,70.8994708994709 18.624338624338627,70.26455026455027 19.047619047619047,69.62962962962963 19.47089947089947,68.994708994709 19.682539682539684,68.35978835978837 20.105820105820108,67.72486772486774 20.529100529100532,67.08994708994709 20.740740740740744,66.45502645502646 21.164021164021165,65.82010582010582 21.375661375661377,65.18518518518519 21.7989417989418,64.55026455026456 22.222222222222225,63.91534391534392 22.645502645502646,63.280423280423285 23.06878306878307,62.85714285714286 23.492063492063494,62.22222222222223 23.915343915343918,61.798941798941804 24.338624338624342,61.37566137566138 24.761904761904763,60.952380952380956 25.185185185185187,60.52910052910053 25.60846560846561,60.10582010582011 26.031746031746035,59.682539682539684 26.455026455026456,59.25925925925927 26.87830687830688,58.83597883597884 27.513227513227516,58.41269841269842 27.93650793650794,57.989417989417994 28.571428571428573,57.56613756613757 28.994708994708997,57.142857142857146 29.41798941798942,56.71957671957672 30.052910052910054,56.50793650793651 30.68783068783069,56.08465608465609 31.322751322751326,55.661375661375665 31.95767195767196,55.23809523809524 32.592592592592595,55.02645502645503 33.22751322751323,55.02645502645503 33.86243386243387,55.02645502645503 34.4973544973545,54.81481481481482 34.920634920634924,55.23809523809524 35.55555555555556,55.23809523809524 36.19047619047619,55.23809523809524 36.82539682539683,55.449735449735456 37.46031746031746,55.661375661375665 38.095238095238095,55.87301587301588 38.730158730158735,56.2962962962963 39.36507936507937,56.71957671957672 39.78835978835979,57.142857142857146 40.423280423280424,57.56613756613757 40.84656084656085,58.2010582010582 41.26984126984127,58.62433862433863 41.6931216931217,59.04761904761905 42.11640211640212,59.470899470899475 42.539682539682545,59.8941798941799 42.96296296296297,60.31746031746032 43.386243386243386,60.952380952380956 43.80952380952381,61.37566137566138 44.232804232804234,61.798941798941804 44.65608465608466,62.22222222222223 45.07936507936508,62.64550264550265 45.714285714285715,63.06878306878308 46.13756613756614,63.492063492063494 46.560846560846564,63.91534391534392 46.98412698412699,64.33862433862434 47.61904761904762,64.76190476190477 48.25396825396826,65.18518518518519 48.88888888888889,65.3968253968254 49.523809523809526,65.82010582010582 50.158730158730165,66.03174603174604 50.7936507936508,66.03174603174604 51.42857142857143,66.03174603174604 52.06349206349207,66.24338624338625 52.6984126984127,66.24338624338625 53.333333333333336,66.03174603174604 53.968253968253975,65.82010582010582 54.60317460317461,65.60846560846561 55.23809523809524,65.60846560846561 55.661375661375665,65.18518518518519 56.08465608465609,64.76190476190477 56.50793650793651,64.33862433862434 57.142857142857146,63.91534391534392 57.777777777777786,63.492063492063494 58.2010582010582,63.06878306878308 58.62433862433863,62.64550264550265 59.04761904761905,62.22222222222223 59.470899470899475,61.798941798941804 59.8941798941799,61.16402116402117 60.31746031746032,60.74074074074075 60.74074074074075,60.31746031746032 61.16402116402117,59.682539682539684 61.58730158730159,59.25925925925927 62.01058201058201,58.62433862433863 62.43386243386244,57.989417989417994 62.85714285714286,57.56613756613757 63.280423280423285,56.93121693121694 63.70370370370371,56.2962962962963 64.12698412698413,55.661375661375665 64.33862433862434,55.02645502645503 64.76190476190477,54.39153439153439 64.97354497354497,53.75661375661376 65.18518518518519,53.12169312169313 65.3968253968254,52.48677248677249 65.60846560846561,51.851851851851855 65.60846560846561,51.21693121693122 65.60846560846561,50.58201058201058 65.60846560846561,49.94708994708995 65.18518518518519,49.31216931216932 64.97354497354497,48.677248677248684 64.76190476190477,48.042328042328045 64.33862433862434,47.40740740740741 63.91534391534392,46.77248677248678 63.492063492063494,46.349206349206355 63.06878306878308,45.714285714285715 62.64550264550265,45.29100529100529 62.22222222222223,44.867724867724874 61.798941798941804,44.44444444444445 61.37566137566138,44.021164021164026 60.952380952380956,43.5978835978836 60.31746031746032,43.17460317460318 59.8941798941799,42.75132275132275 59.470899470899475,42.32804232804233 58.83597883597884,41.904761904761905 58.41269841269842,41.48148148148149 57.989417989417994,41.058201058201064 57.56613756613757,40.63492063492064 56.93121693121694,40.211640211640216 56.50793650793651,39.78835978835979 56.08465608465609,39.36507936507937 55.661375661375665,38.94179894179894 55.02645502645503,38.51851851851852 54.60317460317461,38.095238095238095 54.179894179894184,37.67195767195768 53.75661375661376,37.248677248677254 53.333333333333336,36.613756613756614 52.91005291005291,35.97883597883598 52.6984126984127,35.34391534391535 52.48677248677249,34.70899470899471 52.27513227513228,34.074074074074076 52.06349206349207,33.43915343915344 52.06349206349207,32.804232804232804 51.851851851851855,32.16931216931217 52.06349206349207,31.53439153439154 52.06349206349207,30.899470899470902 52.06349206349207,30.264550264550266 52.27513227513228,29.629629629629633 52.48677248677249,28.994708994708997 52.48677248677249,28.35978835978836 52.6984126984127,27.724867724867728 53.12169312169313,27.089947089947092 53.333333333333336,26.455026455026456 53.54497354497355,25.820105820105823 53.968253968253975,25.185185185185187 54.179894179894184,24.55026455026455 54.60317460317461,23.915343915343918 54.81481481481482,23.280423280423282 55.23809523809524,22.645502645502646 55.449735449735456,22.010582010582013 55.87301587301588,21.58730158730159 56.2962962962963,20.952380952380953 56.71957671957672,20.529100529100532 57.142857142857146,19.894179894179896 57.56613756613757,19.47089947089947 57.989417989417994,19.047619047619047 58.41269841269842,18.624338624338627 58.83597883597884,17.98941798941799 59.25925925925927,17.566137566137566 59.682539682539684,16.931216931216934 60.10582010582011,16.50793650793651 60.52910052910053,15.873015873015873 60.952380952380956,15.449735449735451 61.37566137566138,15.026455026455027 61.798941798941804,14.391534391534393 62.22222222222223,13.756613756613758 62.64550264550265,13.333333333333334 63.06878306878308,12.910052910052912 63.492063492063494,12.486772486772487 63.91534391534392,12.063492063492065 64.33862433862434,11.428571428571429 64.76190476190477,11.005291005291006 65.18518518518519,10.582010582010582 65.60846560846561,10.15873015873016 66.03174603174604,9.735449735449736 66.45502645502646,9.312169312169313 66.87830687830689,8.88888888888889 67.3015873015873,8.465608465608467 67.72486772486774,8.042328042328043 68.14814814814815,7.6190476190476195 68.57142857142858,6.984126984126985 68.994708994709,6.560846560846561 69.41798941798942,6.137566137566138 69.84126984126985,5.714285714285714 70.26455026455027,5.291005291005291 70.6878306878307,4.867724867724868 71.11111111111111,4.444444444444445 71.53439153439155,4.021164021164021 71.95767195767196,3.597883597883598 72.38095238095238,3.174603174603175 72.80423280423281,2.7513227513227516 73.22751322751323,2.3280423280423284 75.76719576719577,-0.4232804232804233" style="fill:none; stroke:#cc0000; stroke-width:1.0"  /><polyline points="75.76719576719577,-0.4232804232804233 77.88359788359789,2.7513227513227516 78.30687830687832,3.3862433862433865 78.73015873015873,4.021164021164021 79.15343915343917,4.444444444444445 79.57671957671958,5.07936507936508 79.7883597883598,5.714285714285714 80.21164021164022,6.137566137566138 80.63492063492065,6.772486772486773 81.05820105820106,7.407407407407408 81.48148148148148,8.042328042328043 81.90476190476191,8.677248677248677 82.32804232804233,9.312169312169313 82.75132275132276,9.947089947089948 83.17460317460318,10.582010582010582 83.59788359788361,11.216931216931219 84.02116402116403,11.851851851851853 84.44444444444446,12.275132275132275 84.86772486772487,12.910052910052912 85.29100529100529,13.544973544973546 85.71428571428572,14.17989417989418 86.13756613756614,14.814814814814817 86.77248677248677,15.238095238095239 87.1957671957672,15.873015873015873 87.61904761904762,16.50793650793651 88.04232804232805,16.931216931216934 88.46560846560847,17.566137566137566 88.8888888888889,18.201058201058203 89.31216931216932,18.624338624338627 89.73544973544975,19.25925925925926 90.15873015873017,19.894179894179896 90.58201058201058,20.31746031746032 91.00529100529101,20.740740740740744 91.42857142857143,21.375661375661377 91.85185185185186,22.010582010582013 92.27513227513228,22.433862433862437 92.69841269841271,23.06878306878307 93.12169312169313,23.492063492063494 93.54497354497356,24.12698412698413 93.96825396825398,24.761904761904763 94.39153439153439,25.3968253968254 94.81481481481482,26.031746031746035 95.23809523809524,26.455026455026456 95.66137566137567,27.089947089947092 96.08465608465609,27.513227513227516 96.50793650793652,28.14814814814815 96.93121693121694,28.783068783068785 97.35449735449737,29.20634920634921 97.77777777777779,29.841269841269842 98.2010582010582,30.476190476190478 98.62433862433863,30.899470899470902 99.04761904761905,31.53439153439154 99.47089947089948,32.16931216931217 99.8941798941799,32.804232804232804 100.31746031746033,33.43915343915344 100.74074074074075,33.86243386243387 101.16402116402116,34.4973544973545 101.5873015873016,35.13227513227513 102.01058201058201,35.76719576719577 102.43386243386244,36.19047619047619 102.85714285714286,36.82539682539683 103.28042328042329,37.248677248677254 103.70370370370371,37.883597883597886 104.12698412698414,38.51851851851852 104.55026455026456,39.15343915343916 104.97354497354497,39.78835978835979 105.3968253968254,40.423280423280424 105.82010582010582,41.058201058201064 106.24338624338625,41.48148148148149 106.66666666666667,42.11640211640212 107.0899470899471,42.539682539682545 107.51322751322752,43.17460317460318 107.93650793650795,43.80952380952381 108.35978835978837,44.232804232804234 108.78306878306879,44.867724867724874 109.20634920634922,45.50264550264551 109.62962962962963,46.13756613756614 110.05291005291006,46.77248677248678 110.47619047619048,47.40740740740741 110.89947089947091,48.042328042328045 111.32275132275133,48.677248677248684 111.74603174603176,49.31216931216932 112.16931216931218,49.73544973544974 112.5925925925926,50.158730158730165 113.01587301587303,50.7936507936508 113.43915343915344,51.42857142857143 113.86243386243387,52.06349206349207 114.28571428571429,52.6984126984127 114.49735449735451,53.333333333333336 114.92063492063492,53.968253968253975 115.13227513227514,54.60317460317461 115.55555555555557,55.02645502645503 115.76719576719577,55.661375661375665 116.1904761904762,56.2962962962963 116.4021164021164,56.93121693121694 116.61375661375662,57.56613756613757 117.03703703703705,58.2010582010582 117.24867724867725,58.83597883597884 117.46031746031747,59.470899470899475 117.67195767195768,60.10582010582011 118.0952380952381,60.74074074074075 118.30687830687832,61.37566137566138 118.51851851851853,62.01058201058201 118.73015873015873,62.64550264550265 118.94179894179895,63.280423280423285 119.15343915343917,63.91534391534392 119.36507936507937,64.55026455026456 119.36507936507937,65.18518518518519 119.57671957671958,65.82010582010582 119.57671957671958,66.45502645502646 119.7883597883598,67.08994708994709 119.7883597883598,67.72486772486774 119.57671957671958,68.35978835978837 119.7883597883598,68.994708994709 119.57671957671958,69.62962962962963 119.15343915343917,70.26455026455027 118.73015873015873,70.8994708994709 118.30687830687832,71.53439153439155 117.88359788359789,71.95767195767196 117.46031746031747,72.38095238095238 116.82539682539684,72.80423280423281 116.1904761904762,73.01587301587303 115.55555555555557,73.43915343915344 114.92063492063492,73.65079365079366 114.28571428571429,74.07407407407408 113.65079365079366,74.28571428571429 113.01587301587303,74.49735449735451 112.3809523809524,74.70899470899471 111.74603174603176,74.92063492063492 111.11111111111111,75.13227513227514 110.47619047619048,75.34391534391536 109.84126984126985,75.34391534391536 109.20634920634922,75.55555555555556 108.57142857142858,75.76719576719577 107.93650793650795,75.97883597883599 107.3015873015873,76.19047619047619 106.66666666666667,76.4021164021164 106.03174603174604,76.61375661375662 105.3968253968254,76.82539682539684 104.76190476190477,77.03703703703704 104.12698412698414,77.24867724867725 103.4920634920635,77.67195767195767 102.85714285714286,77.88359788359789 102.22222222222223,78.0952380952381 101.79894179894181,78.51851851851852 101.16402116402116,78.73015873015873 100.74074074074075,79.15343915343917 100.10582010582011,79.57671957671958 99.47089947089948,80.0 99.04761904761905,80.42328042328043 98.41269841269842,80.84656084656085 97.989417989418,81.26984126984128 97.56613756613757,81.6931216931217 97.14285714285715,82.11640211640213 96.71957671957672,82.53968253968254 96.2962962962963,83.17460317460318 96.08465608465609,83.80952380952381 95.66137566137567,84.44444444444446 95.66137566137567,85.07936507936509 95.44973544973546,85.71428571428572 95.44973544973546,86.34920634920636 95.44973544973546,86.98412698412699 95.44973544973546,87.61904761904762 95.44973544973546,88.25396825396827 95.66137566137567,88.8888888888889 95.87301587301587,89.52380952380953 95.87301587301587,90.15873015873017 96.08465608465609,90.7936507936508 96.2962962962963,91.42857142857143 96.71957671957672,92.06349206349208 96.93121693121694,92.69841269841271 97.14285714285715,93.33333333333334 97.56613756613757,93.96825396825398 97.77777777777779,94.60317460317461 98.2010582010582,95.02645502645504 98.41269841269842,95.66137566137567 98.83597883597885,96.2962962962963 99.04761904761905,96.93121693121694 99.47089947089948,97.56613756613757 99.8941798941799,98.2010582010582 100.10582010582011,98.83597883597885 100.74074074074075,99.25925925925927 101.16402116402116,99.8941798941799 101.5873015873016,100.52910052910053 102.01058201058201,101.16402116402116 102.43386243386244,101.5873015873016 102.85714285714286,102.01058201058201 103.28042328042329,102.43386243386244 103.70370370370371,102.85714285714286 104.12698412698414,103.28042328042329 104.55026455026456,103.91534391534393 104.97354497354497,104.33862433862434 105.3968253968254,104.76190476190477 105.82010582010582,105.18518518518519 106.45502645502647,105.60846560846562 106.87830687830689,106.03174603174604 107.3015873015873,106.45502645502647 107.93650793650795,106.87830687830689 108.35978835978837,107.3015873015873 108.994708994709,107.72486772486774 109.62962962962963,108.14814814814815 110.26455026455027,108.35978835978837 110.89947089947091,108.78306878306879 111.53439153439155,108.994708994709 112.16931216931218,109.20634920634922 112.80423280423281,109.41798941798943 113.43915343915344,109.41798941798943 114.07407407407408,109.20634920634922 114.70899470899472,109.20634920634922 115.34391534391536,109.20634920634922 115.97883597883599,108.994708994709 116.61375661375662,108.78306878306879 117.24867724867725,108.57142857142858 117.88359788359789,108.57142857142858 118.30687830687832,108.14814814814815 118.94179894179895,107.93650793650795 119.36507936507937,107.51322751322752 119.7883597883598,107.0899470899471 120.21164021164022,106.66666666666667 120.63492063492065,106.24338624338625 121.05820105820106,105.82010582010582 121.4814814814815,105.3968253968254 121.6931216931217,104.76190476190477 122.11640211640213,104.33862433862434 122.53968253968254,103.91534391534393 122.96296296296298,103.4920634920635 123.17460317460318,102.85714285714286 123.3862433862434,102.22222222222223 123.80952380952382,101.5873015873016 124.23280423280424,100.95238095238096 124.44444444444446,100.31746031746033 124.86772486772487,99.68253968253968 125.2910052910053,99.25925925925927 125.5026455026455,98.62433862433863 125.92592592592594,97.989417989418 126.13756613756615,97.35449735449737 126.56084656084657,96.71957671957672 126.77248677248679,96.08465608465609 127.1957671957672,95.66137566137567 127.61904761904763,95.02645502645504 128.04232804232805,94.39153439153439 128.46560846560848,93.96825396825398 128.88888888888889,93.33333333333334 129.31216931216932,92.91005291005291 129.73544973544975,92.27513227513228 130.15873015873018,91.85185185185186 130.58201058201058,91.42857142857143 131.005291005291,91.00529100529101 131.42857142857144,90.58201058201058 132.06349206349208,90.37037037037038 132.6984126984127,90.15873015873017 133.33333333333334,89.94708994708995 133.96825396825398,89.73544973544975 134.6031746031746,89.52380952380953 134.6031746031746,88.8888888888889 135.23809523809524,88.8888888888889 135.87301587301587,89.1005291005291 136.2962962962963,89.73544973544975 136.93121693121694,90.15873015873017 137.56613756613757,90.37037037037038 137.989417989418,90.7936507936508 138.62433862433863,91.21693121693123 139.04761904761907,91.64021164021165 139.47089947089947,92.06349206349208 139.8941798941799,92.4867724867725 140.31746031746033,92.91005291005291 140.74074074074076,93.33333333333334 141.16402116402116,93.75661375661376 141.5873015873016,94.17989417989419 142.01058201058203,94.81481481481482 142.43386243386246,95.23809523809524 142.85714285714286,95.66137566137567 143.2804232804233,96.08465608465609 143.70370370370372,96.50793650793652 144.12698412698413,97.14285714285715 144.55026455026456,97.56613756613757 144.973544973545,97.989417989418 145.39682539682542,98.62433862433863 145.82010582010582,99.04761904761905 146.24338624338625,99.47089947089948 146.66666666666669,99.8941798941799 147.0899470899471,100.31746031746033 147.51322751322752,100.74074074074075 147.93650793650795,101.16402116402116 148.35978835978838,101.5873015873016 148.78306878306879,102.01058201058201 149.20634920634922,102.43386243386244 149.62962962962965,102.85714285714286 150.05291005291005,103.28042328042329 150.6878306878307,103.70370370370371 151.32275132275134,104.12698412698414 151.74603174603175,104.55026455026456 152.38095238095238,104.97354497354497 152.8042328042328,105.3968253968254 153.43915343915344,105.82010582010582 154.07407407407408,106.24338624338625 154.4973544973545,106.66666666666667 155.13227513227514,107.0899470899471 155.76719576719577,107.51322751322752 156.4021164021164,107.93650793650795 157.03703703703704,108.35978835978837 157.67195767195767,108.78306878306879 158.30687830687833,108.994708994709 158.73015873015873,109.41798941798943 159.36507936507937,109.84126984126985 160.0,110.05291005291006 160.63492063492066,110.26455026455027 161.2698412698413,110.47619047619048 161.90476190476193,110.89947089947091 162.53968253968256,111.11111111111111 163.1746031746032,111.53439153439155 163.80952380952382,111.74603174603176 164.44444444444446,112.16931216931218 165.0793650793651,112.3809523809524 165.71428571428572,112.5925925925926 166.34920634920636,113.01587301587303 166.984126984127,113.22751322751324 167.61904761904762,113.43915343915344 168.25396825396825,113.65079365079366 168.8888888888889,113.86243386243387 169.52380952380955,114.07407407407408 170.15873015873018,114.28571428571429 170.7936507936508,114.49735449735451 171.42857142857144,114.92063492063492 172.06349206349208,114.92063492063492 172.6984126984127,115.13227513227514 173.33333333333334,115.34391534391536 173.96825396825398,115.76719576719577 174.6031746031746,115.97883597883599 175.23809523809524,116.1904761904762 175.87301587301587,116.4021164021164 176.50793650793653,116.61375661375662 177.14285714285717,116.82539682539684 177.7777777777778,117.03703703703705 178.41269841269843,117.24867724867725 179.04761904761907,117.46031746031747 179.6825396825397,117.88359788359789 180.31746031746033,118.0952380952381 180.95238095238096,118.30687830687832 181.5873015873016,118.51851851851853 182.22222222222223,118.73015873015873 182.85714285714286,118.94179894179895 183.4920634920635,119.36507936507937 184.12698412698415,119.57671957671958 184.7619047619048,119.7883597883598 185.39682539682542,120.00000000000001 186.03174603174605,120.42328042328043 188.78306878306879,121.4814814814815" style="fill:none; stroke:#999900; stroke-width:1.0"  /><polyline points="188.78306878306879,121.4814814814815 186.45502645502646,124.23280423280424 186.03174603174605,124.65608465608466 185.60846560846562,125.07936507936509 185.1851851851852,125.5026455026455 184.7619047619048,126.13756613756615 184.33862433862436,126.56084656084657 183.91534391534393,126.98412698412699 183.4920634920635,127.40740740740742 183.0687830687831,128.04232804232805 182.64550264550266,128.46560846560848 182.22222222222223,129.10052910052912 181.79894179894183,129.52380952380955 181.3756613756614,130.15873015873018 180.95238095238096,130.58201058201058 180.52910052910053,131.21693121693121 180.10582010582013,131.85185185185185 179.6825396825397,132.27513227513228 179.25925925925927,132.9100529100529 178.83597883597884,133.54497354497354 178.41269841269843,133.96825396825398 177.989417989418,134.6031746031746 177.56613756613757,135.23809523809524 177.14285714285717,135.66137566137567 176.71957671957674,136.2962962962963 176.2962962962963,136.93121693121694 175.87301587301587,137.56613756613757 175.44973544973547,137.989417989418 175.02645502645504,138.62433862433863 174.6031746031746,139.25925925925927 174.1798941798942,139.8941798941799 173.75661375661377,140.52910052910053 173.33333333333334,140.95238095238096 172.9100529100529,141.3756613756614 172.4867724867725,142.01058201058203 172.06349206349208,142.64550264550266 171.85185185185188,143.2804232804233 171.42857142857144,143.70370370370372 171.005291005291,144.33862433862436 170.58201058201058,144.973544973545 170.37037037037038,145.60846560846562 169.94708994708995,146.03174603174605 169.73544973544975,146.66666666666669 169.31216931216932,147.30158730158732 168.8888888888889,147.93650793650795 168.67724867724868,148.57142857142858 168.46560846560848,149.20634920634922 168.04232804232805,149.62962962962965 168.04232804232805,150.26455026455028 168.04232804232805,150.8994708994709 168.04232804232805,151.53439153439155 168.04232804232805,152.16931216931218 168.04232804232805,152.8042328042328 168.04232804232805,153.43915343915344 168.25396825396825,154.07407407407408 168.67724867724868,154.4973544973545 168.8888888888889,155.13227513227514 169.31216931216932,155.76719576719577 169.73544973544975,156.4021164021164 170.15873015873018,156.82539682539684 170.58201058201058,157.24867724867727 171.21693121693124,157.67195767195767 171.64021164021165,158.0952380952381 172.27513227513228,158.51851851851853 172.9100529100529,158.94179894179896 173.54497354497354,159.36507936507937 174.1798941798942,159.5767195767196 174.81481481481484,159.7883597883598 175.44973544973547,160.21164021164023 176.0846560846561,160.42328042328043 176.71957671957674,160.84656084656086 177.35449735449737,161.05820105820106 177.989417989418,161.2698412698413 178.62433862433863,161.6931216931217 179.25925925925927,161.90476190476193 179.8941798941799,162.32804232804233 180.52910052910053,162.53968253968256 180.95238095238096,162.96296296296296 181.5873015873016,163.1746031746032 182.22222222222223,163.59788359788362 182.85714285714286,164.02116402116403 183.4920634920635,164.44444444444446 183.91534391534393,164.8677248677249 184.33862433862436,165.2910052910053 184.7619047619048,165.92592592592595 185.1851851851852,166.56084656084658 185.39682539682542,167.19576719576722 185.82010582010582,167.83068783068785 186.03174603174605,168.46560846560848 186.24338624338625,169.10052910052912 186.45502645502646,169.73544973544975 186.45502645502646,170.37037037037038 186.45502645502646,171.005291005291 186.66666666666669,171.64021164021165 186.66666666666669,172.27513227513228 186.45502645502646,172.9100529100529 186.45502645502646,173.54497354497354 186.45502645502646,174.1798941798942 186.03174603174605,174.81481481481484 185.39682539682542,175.02645502645504 185.39682539682542,175.66137566137567 185.39682539682542,176.2962962962963 185.1851851851852,176.93121693121694 184.7619047619048,177.56613756613757 184.33862433862436,177.989417989418 183.91534391534393,178.41269841269843 183.91534391534393,179.04761904761907 183.4920634920635,179.6825396825397 183.0687830687831,180.10582010582013 182.64550264550266,180.74074074074076 182.22222222222223,181.3756613756614 181.79894179894183,181.79894179894183 181.3756613756614,182.43386243386246 180.95238095238096,182.85714285714286 180.52910052910053,183.2804232804233 180.10582010582013,183.70370370370372 179.6825396825397,184.12698412698415 179.25925925925927,184.55026455026456 178.62433862433863,184.973544973545 178.2010582010582,185.39682539682542 177.56613756613757,185.82010582010582 176.93121693121694,186.24338624338625 176.2962962962963,186.66666666666669 175.66137566137567,186.8783068783069 175.02645502645504,187.30158730158732 174.3915343915344,187.72486772486775 173.75661375661377,187.93650793650795 173.12169312169314,188.14814814814815 172.4867724867725,188.35978835978838 171.85185185185188,188.78306878306879 171.21693121693124,188.99470899470901 170.58201058201058,189.20634920634922 169.94708994708995,189.41798941798945 169.31216931216932,189.41798941798945 168.67724867724868,189.41798941798945 168.04232804232805,189.41798941798945 167.40740740740742,189.41798941798945 166.7724867724868,189.41798941798945 166.13756613756615,189.20634920634922 165.50264550264552,188.99470899470901 164.8677248677249,188.99470899470901 164.23280423280426,188.57142857142858 163.59788359788362,188.35978835978838 162.96296296296296,187.93650793650795 162.32804232804233,187.51322751322752 161.6931216931217,187.08994708994712 161.05820105820106,186.66666666666669 160.63492063492066,186.24338624338625 160.0,185.82010582010582 159.5767195767196,185.39682539682542 159.15343915343917,184.7619047619048 158.73015873015873,184.12698412698415 158.30687830687833,183.4920634920635 158.0952380952381,182.85714285714286 157.8835978835979,182.22222222222223 157.67195767195767,181.5873015873016 157.24867724867727,180.95238095238096 157.03703703703704,180.31746031746033 156.82539682539684,179.6825396825397 156.61375661375664,179.04761904761907 156.1904761904762,178.41269841269843 155.978835978836,177.7777777777778 155.76719576719577,177.14285714285717 155.55555555555557,176.50793650793653 155.13227513227514,175.87301587301587 154.92063492063494,175.23809523809524 154.7089947089947,174.6031746031746 154.2857142857143,173.96825396825398 153.86243386243387,173.33333333333334 153.65079365079367,172.6984126984127 153.22751322751324,172.06349206349208 152.8042328042328,171.42857142857144 152.38095238095238,171.005291005291 151.95767195767198,170.58201058201058 151.53439153439155,170.15873015873018 150.8994708994709,169.73544973544975 150.26455026455028,169.52380952380955 149.84126984126985,169.10052910052912 149.20634920634922,168.8888888888889 148.57142857142858,168.8888888888889 147.93650793650795,168.8888888888889 147.30158730158732,168.8888888888889 146.66666666666669,168.8888888888889 146.03174603174605,168.8888888888889 145.39682539682542,169.10052910052912 144.76190476190476,169.31216931216932 144.12698412698413,169.52380952380955 143.4920634920635,169.73544973544975 142.85714285714286,170.15873015873018 142.22222222222223,170.37037037037038 141.5873015873016,170.58201058201058 140.95238095238096,171.005291005291 140.31746031746033,171.21693121693124 139.6825396825397,171.42857142857144 139.04761904761907,171.64021164021165 138.41269841269843,172.06349206349208 137.7777777777778,172.27513227513228 137.14285714285717,172.4867724867725 136.5079365079365,172.6984126984127 135.87301587301587,172.9100529100529 135.23809523809524,173.33333333333334 134.6031746031746,173.54497354497354 133.96825396825398,173.75661375661377 133.33333333333334,174.1798941798942 132.6984126984127,174.3915343915344 132.06349206349208,174.81481481481484 131.42857142857144,175.02645502645504 131.005291005291,175.44973544973547 130.37037037037038,175.66137566137567 129.73544973544975,175.87301587301587 129.10052910052912,176.2962962962963 128.46560846560848,176.50793650793653 127.83068783068784,176.93121693121694 127.1957671957672,177.14285714285717 126.56084656084657,177.56613756613757 125.92592592592594,177.7777777777778 125.5026455026455,178.2010582010582 124.86772486772487,178.62433862433863 124.23280423280424,179.04761904761907 123.59788359788361,179.25925925925927 122.96296296296298,179.6825396825397 122.32804232804234,180.10582010582013 121.6931216931217,180.31746031746033 121.05820105820106,180.74074074074076 120.42328042328043,181.16402116402116 119.7883597883598,181.5873015873016 119.15343915343917,181.79894179894183 118.73015873015873,182.22222222222223 118.0952380952381,182.43386243386246 117.46031746031747,182.85714285714286 116.82539682539684,183.2804232804233 116.1904761904762,183.70370370370372 115.55555555555557,184.12698412698415 114.92063492063492,184.55026455026456 114.28571428571429,184.973544973545 113.65079365079366,185.39682539682542 113.01587301587303,185.82010582010582 112.3809523809524,186.24338624338625 111.95767195767196,186.66666666666669 111.32275132275133,187.08994708994712 110.6878306878307,187.51322751322752 110.05291005291006,187.93650793650795 109.62962962962963,188.35978835978838 108.994708994709,188.78306878306879 108.57142857142858,189.20634920634922 108.14814814814815,189.62962962962965 107.72486772486774,190.05291005291008 107.3015873015873,190.47619047619048 106.87830687830689,190.8994708994709 104.12698412698414,193.01587301587304" style="fill:none; stroke:#00aa99; stroke-width:1.0"  /><polyline points="104.12698412698414,193.01587301587304 101.37566137566138,191.11111111111111 100.95238095238096,190.6878306878307 100.52910052910053,190.26455026455028 99.8941798941799,189.84126984126985 99.25925925925927,189.41798941798945 98.62433862433863,188.99470899470901 97.989417989418,188.57142857142858 97.35449735449737,188.14814814814815 96.71957671957672,187.72486772486775 96.2962962962963,187.30158730158732 95.66137566137567,186.8783068783069 95.02645502645504,186.45502645502646 94.39153439153439,186.03174603174605 93.75661375661376,185.60846560846562 93.12169312169313,185.1851851851852 92.4867724867725,184.7619047619048 91.85185185185186,184.33862433862436 91.42857142857143,183.91534391534393 90.7936507936508,183.4920634920635 90.15873015873017,183.0687830687831 89.52380952380953,182.64550264550266 88.8888888888889,182.22222222222223 88.25396825396827,181.79894179894183 87.61904761904762,181.3756613756614 87.1957671957672,180.95238095238096 86.77248677248677,180.52910052910053 86.13756613756614,180.10582010582013 85.5026455026455,179.6825396825397 85.07936507936509,179.25925925925927 84.44444444444446,178.83597883597884 83.80952380952381,178.41269841269843 83.3862433862434,177.989417989418 82.75132275132276,177.56613756613757 82.11640211640213,177.35449735449737 81.6931216931217,176.71957671957674 81.05820105820106,176.2962962962963 80.63492063492065,175.87301587301587 80.0,175.44973544973547 79.57671957671958,175.02645502645504 79.15343915343917,174.6031746031746 78.51851851851852,174.1798941798942 78.0952380952381,173.75661375661377 77.46031746031747,173.33333333333334 77.03703703703704,172.9100529100529 76.4021164021164,172.4867724867725 75.97883597883599,172.06349206349208 75.34391534391536,171.64021164021165 74.92063492063492,171.21693121693124 74.28571428571429,170.7936507936508 73.86243386243387,170.37037037037038 73.43915343915344,169.94708994708995 72.80423280423281,169.52380952380955 72.38095238095238,169.10052910052912 71.95767195767196,168.67724867724868 71.53439153439155,168.25396825396825 71.11111111111111,167.83068783068785 70.47619047619048,167.40740740740742 70.05291005291006,166.984126984127 69.41798941798942,166.56084656084658 68.994708994709,166.13756613756615 68.57142857142858,165.71428571428572 68.14814814814815,165.2910052910053 67.72486772486774,164.8677248677249 67.3015873015873,164.44444444444446 66.87830687830689,163.80952380952382 66.66666666666667,163.1746031746032 66.24338624338625,162.53968253968256 66.03174603174604,161.90476190476193 66.03174603174604,161.2698412698413 66.03174603174604,160.63492063492066 66.03174603174604,160.0 66.03174603174604,159.36507936507937 66.24338624338625,158.73015873015873 66.45502645502646,158.0952380952381 66.87830687830689,157.46031746031747 67.3015873015873,156.82539682539684 67.72486772486774,156.4021164021164 68.35978835978837,155.978835978836 68.78306878306879,155.55555555555557 69.41798941798942,155.34391534391534 69.84126984126985,154.92063492063494 70.47619047619048,154.92063492063494 71.11111111111111,154.4973544973545 71.74603174603175,154.2857142857143 72.16931216931218,153.86243386243387 72.80423280423281,153.65079365079367 73.43915343915344,153.65079365079367 74.07407407407408,153.43915343915344 74.70899470899471,153.43915343915344 75.34391534391536,153.01587301587304 75.97883597883599,153.01587301587304 76.61375661375662,152.8042328042328 77.03703703703704,152.38095238095238 77.67195767195767,152.16931216931218 78.30687830687832,152.16931216931218 78.94179894179895,151.74603174603175 79.57671957671958,151.53439153439155 80.21164021164022,151.32275132275134 80.84656084656085,151.11111111111111 81.48148148148148,150.8994708994709 82.11640211640213,150.6878306878307 82.75132275132276,150.26455026455028 83.3862433862434,149.84126984126985 84.02116402116403,149.41798941798942 84.65608465608466,148.99470899470901 85.29100529100529,148.57142857142858 85.71428571428572,148.14814814814815 86.13756613756614,147.72486772486775 86.56084656084657,147.30158730158732 87.1957671957672,146.8783068783069 87.61904761904762,146.24338624338625 88.04232804232805,145.60846560846562 88.25396825396827,144.973544973545 88.46560846560847,144.33862433862436 88.67724867724868,143.70370370370372 88.8888888888889,143.0687830687831 88.8888888888889,142.43386243386246 88.8888888888889,141.7989417989418 88.67724867724868,141.16402116402116 88.67724867724868,140.52910052910053 88.46560846560847,139.8941798941799 88.25396825396827,139.25925925925927 88.25396825396827,138.62433862433863 87.83068783068784,137.989417989418 87.61904761904762,137.35449735449737 87.40740740740742,136.71957671957674 86.98412698412699,136.0846560846561 86.77248677248677,135.44973544973547 86.34920634920636,134.81481481481484 86.13756613756614,134.17989417989418 85.71428571428572,133.54497354497354 85.29100529100529,132.9100529100529 84.86772486772487,132.27513227513228 84.44444444444446,131.64021164021165 84.23280423280424,131.005291005291 83.80952380952381,130.58201058201058 83.59788359788361,129.94708994708995 83.17460317460318,129.52380952380955 82.75132275132276,128.88888888888889 82.32804232804233,128.46560846560848 81.90476190476191,127.83068783068784 81.48148148148148,127.1957671957672 81.05820105820106,126.77248677248679 80.63492063492065,126.13756613756615 80.21164021164022,125.71428571428572 79.7883597883598,125.2910052910053 79.36507936507937,124.86772486772487 78.94179894179895,124.44444444444446 78.51851851851852,124.02116402116403 78.0952380952381,123.59788359788361 77.67195767195767,123.17460317460318 77.24867724867725,122.75132275132276 76.82539682539684,122.32804232804234 76.4021164021164,121.90476190476191 75.76719576719577,121.4814814814815 75.34391534391536,121.05820105820106 74.92063492063492,120.63492063492065 74.28571428571429,120.21164021164022 73.86243386243387,119.7883597883598 73.22751322751323,119.36507936507937 72.5925925925926,118.94179894179895 71.95767195767196,118.51851851851853 71.53439153439155,118.0952380952381 70.8994708994709,117.67195767195768 70.26455026455027,117.24867724867725 69.84126984126985,116.82539682539684 69.20634920634922,116.61375661375662 68.78306878306879,116.1904761904762 68.14814814814815,115.97883597883599 67.72486772486774,115.55555555555557 67.08994708994709,115.13227513227514 66.45502645502646,114.92063492063492 65.82010582010582,114.49735449735451 65.18518518518519,114.07407407407408 64.55026455026456,113.86243386243387 64.12698412698413,113.43915343915344 63.492063492063494,113.22751322751324 62.85714285714286,113.01587301587303 62.22222222222223,112.5925925925926 61.58730158730159,112.3809523809524 60.952380952380956,112.3809523809524 60.31746031746032,112.16931216931218 59.682539682539684,112.3809523809524 59.04761904761905,112.3809523809524 58.41269841269842,112.3809523809524 57.777777777777786,112.5925925925926 57.142857142857146,112.80423280423281 56.50793650793651,113.01587301587303 55.87301587301588,113.43915343915344 55.449735449735456,113.86243386243387 54.81481481481482,114.28571428571429 54.179894179894184,114.70899470899472 53.54497354497355,115.13227513227514 53.12169312169313,115.55555555555557 52.6984126984127,115.97883597883599 52.27513227513228,116.4021164021164 51.851851851851855,116.82539682539684 51.42857142857143,117.46031746031747 51.00529100529101,118.0952380952381 50.58201058201058,118.73015873015873 50.158730158730165,119.36507936507937 50.158730158730165,120.00000000000001 49.73544973544974,120.42328042328043 49.523809523809526,121.05820105820106 49.31216931216932,121.6931216931217 49.1005291005291,122.32804232804234 48.88888888888889,122.96296296296298 48.677248677248684,123.59788359788361 48.46560846560847,124.23280423280424 48.25396825396826,124.86772486772487 48.25396825396826,125.5026455026455 48.042328042328045,126.13756613756615 47.830687830687836,126.77248677248679 47.61904761904762,127.40740740740742 47.40740740740741,128.04232804232805 47.195767195767196,128.67724867724868 46.98412698412699,129.31216931216932 46.77248677248678,129.94708994708995 46.560846560846564,130.58201058201058 46.349206349206355,131.21693121693121 45.92592592592593,131.64021164021165 45.50264550264551,132.06349206349208 45.07936507936508,132.4867724867725 44.65608465608466,132.9100529100529 44.021164021164026,133.33333333333334 43.386243386243386,133.33333333333334 42.75132275132275,133.54497354497354 42.11640211640212,133.54497354497354 41.48148148148149,133.54497354497354 40.84656084656085,133.54497354497354 40.211640211640216,133.33333333333334 39.57671957671958,133.12169312169314 38.94179894179894,132.6984126984127 38.30687830687831,132.27513227513228 37.67195767195768,131.85185185185185 37.248677248677254,131.42857142857144 36.613756613756614,131.005291005291 36.19047619047619,130.58201058201058 35.55555555555556,130.15873015873018 35.13227513227513,129.73544973544975 34.4973544973545,129.31216931216932 33.86243386243387,128.88888888888889 33.43915343915344,128.46560846560848 32.804232804232804,128.04232804232805 32.38095238095239,127.61904761904763 31.95767195767196,127.1957671957672 31.322751322751326,126.77248677248679 30.899470899470902,126.34920634920636 30.476190476190478,125.92592592592594 30.052910052910054,125.5026455026455 29.629629629629633,125.07936507936509 29.20634920634921,124.65608465608466 28.571428571428573,124.23280423280424 28.14814814814815,123.80952380952382 27.724867724867728,123.3862433862434 27.301587301587304,122.96296296296298 26.87830687830688,122.32804232804234 26.455026455026456,121.90476190476191 26.031746031746035,121.4814814814815 25.60846560846561,121.05820105820106 25.185185185185187,120.42328042328043 24.761904761904763,120.00000000000001 24.12698412698413,119.57671957671958 23.703703703703706,118.94179894179895 23.280423280423282,118.51851851851853 22.857142857142858,117.88359788359789 22.433862433862437,117.46031746031747 22.010582010582013,117.03703703703705 21.7989417989418,116.4021164021164 21.375661375661377,115.97883597883599 20.952380952380953,115.34391534391536 20.529100529100532,114.70899470899472 20.105820105820108,114.28571428571429 19.682539682539684,113.86243386243387 19.25925925925926,113.22751322751324 18.83597883597884,112.5925925925926 18.412698412698415,111.95767195767196 17.98941798941799,111.32275132275133 17.566137566137566,110.89947089947091 17.142857142857146,110.26455026455027 16.71957671957672,109.62962962962963 16.296296296296298,109.20634920634922 15.873015873015873,108.57142857142858 15.449735449735451,107.93650793650795 15.026455026455027,107.3015873015873 14.603174603174605,106.66666666666667 14.17989417989418,106.24338624338625 13.756613756613758,105.60846560846562 13.333333333333334,104.97354497354497 12.910052910052912,104.33862433862434 12.486772486772487,103.91534391534393 12.063492063492065,103.28042328042329 11.640211640211641,102.85714285714286 11.216931216931219,102.22222222222223 10.793650793650794,101.5873015873016 10.370370370370372,100.95238095238096 9.947089947089948,100.52910052910053 9.523809523809524,99.8941798941799 9.100529100529101,99.47089947089948 8.677248677248677,98.83597883597885 8.253968253968255,98.41269841269842 7.830687830687832,97.77777777777779 7.407407407407408,97.35449735449737 6.984126984126985,96.71957671957672 6.560846560846561,96.08465608465609 6.137566137566138,95.66137566137567 5.714285714285714,95.02645502645504 5.291005291005291,94.60317460317461 4.867724867724868,93.96825396825398 4.444444444444445,93.54497354497356 4.021164021164021,92.91005291005291 3.597883597883598,92.4867724867725 3.174603174603175,92.06349206349208 2.7513227513227516,91.64021164021165 2.3280423280423284,91.21693121693123 0.21164021164021166,88.67724867724868" style="fill:none; stroke:#3300bb; stroke-width:1.0"  /><circle cx="0.21164021164021166" cy="88.67724867724868" r="2.0" style="fill:none; stroke:#000000aa; stroke-width:0.25" /><circle cx="75.76719576719577" cy="-0.4232804232804233" r="2.0" style="fill:none; stroke:#000000aa; stroke-width:0.25" /><circle cx="188.78306878306879" cy="121.4814814814815" r="2.0" style="fill:none; stroke:#000000aa; stroke-width:0.25" /><circle cx="104.12698412698414" cy="193.01587301587304" r="2.0" style="fill:none; stroke:#000000aa; stroke-width:0.25" /><circle cx="0.21164021164021166" cy="89.1005291005291" r="2.0" style="fill:none; stroke:#ff3366aa; stroke-width:0.25" /><circle cx="75.55555555555556" cy="0.21164021164021166" r="2.0" style="fill:none; stroke:#ff3366aa; stroke-width:0.25" /><circle cx="188.78306878306879" cy="122.11640211640213" r="2.0" style="fill:none; stroke:#ff3366aa; stroke-width:0.25" /><circle cx="104.55026455026456" cy="192.8042328042328" r="2.0" style="fill:none; stroke:#ff3366aa; stroke-width:0.25" /><polyline points="8.88888888888889,81.26984126984128 8.465608465608467,81.6931216931217 8.042328042328043,82.11640211640213 7.6190476190476195,82.53968253968254 7.195767195767196,82.96296296296298 6.560846560846561,83.3862433862434 5.9259259259259265,83.80952380952381 5.502645502645503,84.23280423280424 5.07936507936508,84.65608465608466 4.656084656084657,85.07936507936509 4.021164021164021,85.5026455026455 3.597883597883598,85.92592592592594 2.9629629629629632,86.34920634920636 2.3280423280423284,86.77248677248677" style="fill:none; stroke:#001100; stroke-width:1.0" /><polyline points="7.830687830687832,97.77777777777779 7.407407407407408,97.35449735449737 6.984126984126985,96.71957671957672 6.560846560846561,96.08465608465609 6.137566137566138,95.66137566137567 5.714285714285714,95.02645502645504 5.291005291005291,94.60317460317461 4.867724867724868,93.96825396825398 4.444444444444445,93.54497354497356 4.021164021164021,92.91005291005291 3.597883597883598,92.4867724867725 3.174603174603175,92.06349206349208 2.7513227513227516,91.64021164021165 2.3280423280423284,91.21693121693123" style="fill:none; stroke:#000011; stroke-width:1.0" /><polyline points="82.32804232804233,9.312169312169313 81.90476190476191,8.677248677248677 81.48148148148148,8.042328042328043 81.05820105820106,7.407407407407408 80.63492063492065,6.772486772486773 80.21164021164022,6.137566137566138 79.7883597883598,5.714285714285714 79.57671957671958,5.07936507936508 79.15343915343917,4.444444444444445 78.73015873015873,4.021164021164021 78.30687830687832,3.3862433862433865 77.88359788359789,2.7513227513227516" style="fill:none; stroke:#001100; stroke-width:1.0" /><polyline points="67.3015873015873,8.465608465608467 67.72486772486774,8.042328042328043 68.14814814814815,7.6190476190476195 68.57142857142858,6.984126984126985 68.994708994709,6.560846560846561 69.41798941798942,6.137566137566138 69.84126984126985,5.714285714285714 70.26455026455027,5.291005291005291 70.6878306878307,4.867724867724868 71.11111111111111,4.444444444444445 71.53439153439155,4.021164021164021 71.95767195767196,3.597883597883598 72.38095238095238,3.174603174603175 72.80423280423281,2.7513227513227516 73.22751322751323,2.3280423280423284" style="fill:none; stroke:#000011; stroke-width:1.0" /><polyline points="180.95238095238096,130.58201058201058 181.3756613756614,130.15873015873018 181.79894179894183,129.52380952380955 182.22222222222223,129.10052910052912 182.64550264550266,128.46560846560848 183.0687830687831,128.04232804232805 183.4920634920635,127.40740740740742 183.91534391534393,126.98412698412699 184.33862433862436,126.56084656084657 184.7619047619048,126.13756613756615 185.1851851851852,125.5026455026455 185.60846560846562,125.07936507936509 186.03174603174605,124.65608465608466 186.45502645502646,124.23280423280424" style="fill:none; stroke:#001100; stroke-width:1.0" /><polyline points="178.41269841269843,117.24867724867725 179.04761904761907,117.46031746031747 179.6825396825397,117.88359788359789 180.31746031746033,118.0952380952381 180.95238095238096,118.30687830687832 181.5873015873016,118.51851851851853 182.22222222222223,118.73015873015873 182.85714285714286,118.94179894179895 183.4920634920635,119.36507936507937 184.12698412698415,119.57671957671958 184.7619047619048,119.7883597883598 185.39682539682542,120.00000000000001 186.03174603174605,120.42328042328043" style="fill:none; stroke:#000011; stroke-width:1.0" /><polyline points="95.02645502645504,186.45502645502646 95.66137566137567,186.8783068783069 96.2962962962963,187.30158730158732 96.71957671957672,187.72486772486775 97.35449735449737,188.14814814814815 97.989417989418,188.57142857142858 98.62433862433863,188.99470899470901 99.25925925925927,189.41798941798945 99.8941798941799,189.84126984126985 100.52910052910053,190.26455026455028 100.95238095238096,190.6878306878307 101.37566137566138,191.11111111111111" style="fill:none; stroke:#001100; stroke-width:1.0" /><polyline points="113.65079365079366,185.39682539682542 113.01587301587303,185.82010582010582 112.3809523809524,186.24338624338625 111.95767195767196,186.66666666666669 111.32275132275133,187.08994708994712 110.6878306878307,187.51322751322752 110.05291005291006,187.93650793650795 109.62962962962963,188.35978835978838 108.994708994709,188.78306878306879 108.57142857142858,189.20634920634922 108.14814814814815,189.62962962962965 107.72486772486774,190.05291005291008 107.3015873015873,190.47619047619048 106.87830687830689,190.8994708994709" style="fill:none; stroke:#000011; stroke-width:1.0" /><polyline points="2.3280423280423284,86.77248677248677 -13.96825396825397,100.31746031746033" style="fill:none; stroke:#ffaa00; stroke-width:0.4" /><polyline points="2.3280423280423284,91.21693121693123 -11.216931216931219,74.92063492063492" style="fill:none; stroke:#aaff00; stroke-width:0.4" /><polyline points="77.88359788359789,2.7513227513227516 66.03174603174604,-14.814814814814817" style="fill:none; stroke:#ffaa00; stroke-width:0.4" /><polyline points="73.22751322751323,2.3280423280423284 87.83068783068784,-12.910052910052912" style="fill:none; stroke:#aaff00; stroke-width:0.4" /><polyline points="186.45502645502646,124.23280423280424 200.21164021164023,108.14814814814815" style="fill:none; stroke:#ffaa00; stroke-width:0.4" /><polyline points="186.03174603174605,120.42328042328043 205.50264550264552,128.46560846560848" style="fill:none; stroke:#aaff00; stroke-width:0.4" /><polyline points="101.37566137566138,191.11111111111111 118.51851851851853,203.59788359788362" style="fill:none; stroke:#ffaa00; stroke-width:0.4" /><polyline points="106.87830687830689,190.8994708994709 90.37037037037038,204.23280423280426" style="fill:none; stroke:#aaff00; stroke-width:0.4" /><circle cx="96.2962962962963" cy="108.994708994709" r="1.0" style="fill:#444444; stroke-width:0" /><circle cx="137.14285714285717" cy="136.2962962962963" r="10.582010582010582" style="fill:#ff770022; stroke-width:0" /><circle cx="137.14285714285717" cy="136.2962962962963" r="1.0" style="fill:#ff7700; stroke-width:0" /></svg>