<?xml version="1.0" encoding="UTF-8" standalone="no"?><svg width="447.61904761904765" height="598.7301587301588" viewBox="-10 -10 169.20634920634922 219.5767195767196" xmlns="http://www.w3.org/2000/svg" xmlns:xlink="http://www.w3.org/1999/xlink"><polyline points="0.21164021164021166,60.10582010582011 2.9629629629629632,59.25925925925927 3.597883597883598,59.04761904761905 4.2328042328042335,58.83597883597884 4.867724867724868,58.83597883597884 5.502645502645503,58.62433862433863 6.137566137566138,58.41269841269842 6.772486772486773,58.2010582010582 7.407407407407408,57.989417989417994 8.042328042328043,57.777777777777786 8.677248677248677,57.56613756613757 9.312169312169313,57.35449735449736 9.947089947089948,57.142857142857146 10.582010582010582,56.93121693121694 11.216931216931219,56.71957671957672 11.851851851851853,56.2962962962963 12.486772486772487,56.08465608465609 12.910052910052912,55.661375661375665 13.544973544973546,55.449735449735456 14.17989417989418,55.02645502645503 14.814814814814817,54.81481481481482 15.449735449735451,54.39153439153439 16.084656084656086,53.968253968253975 16.71957671957672,53.54497354497355 17.354497354497354,53.12169312169313 17.98941798941799,52.6984126984127 18.624338624338627,52.27513227513228 19.25925925925926,52.06349206349207 19.894179894179896,51.640211640211646 20.529100529100532,51.21693121693122 20.952380952380953,50.7936507936508 21.58730158730159,50.370370370370374 22.010582010582013,49.94708994708995 22.433862433862437,49.31216931216932 22.857142857142858,48.88888888888889 23.280423280423282,48.25396825396826 23.492063492063494,47.61904761904762 23.703703703703706,46.98412698412699 23.915343915343918,46.349206349206355 24.12698412698413,45.714285714285715 24.12698412698413,45.07936507936508 24.12698412698413,44.44444444444445 23.915343915343918,43.80952380952381 23.915343915343918,43.17460317460318 23.703703703703706,42.539682539682545 23.492063492063494,41.904761904761905 23.280423280423282,41.26984126984127 23.06878306878307,40.63492063492064 22.645502645502646,40.0 22.433862433862437,39.36507936507937 22.222222222222225,38.730158730158735 21.7989417989418,38.30687830687831 21.375661375661377,37.67195767195768 20.952380952380953,37.03703703703704 20.529100529100532,36.613756613756614 20.105820105820108,36.19047619047619 19.682539682539684,35.55555555555556 19.25925925925926,34.920634920634924 18.83597883597884,34.4973544973545 18.412698412698415,34.074074074074076 17.98941798941799,33.65079365079365 17.566137566137566,33.01587301587302 17.142857142857146,32.592592592592595 16.71957671957672,31.95767195767196 16.084656084656086,31.53439153439154 15.661375661375663,31.111111111111114 15.238095238095239,30.68783068783069 14.814814814814817,30.052910052910054 14.391534391534393,29.629629629629633 13.96825396825397,29.20634920634921 13.544973544973546,28.783068783068785 13.121693121693122,28.35978835978836 12.6984126984127,27.724867724867728 12.275132275132275,27.301587301587304 11.851851851851853,26.87830687830688 11.428571428571429,26.455026455026456 11.005291005291006,26.031746031746035 10.582010582010582,25.60846560846561 10.15873015873016,25.185185185185187 9.735449735449736,24.761904761904763 9.312169312169313,24.12698412698413 9.100529100529101,23.492063492063494 8.88888888888889,22.857142857142858 8.677248677248677,22.222222222222225 8.677248677248677,21.58730158730159 8.465608465608467,20.952380952380953 8.253968253968255,20.31746031746032 8.253968253968255,19.682539682539684 8.253968253968255,19.047619047619047 8.253968253968255,18.412698412698415 8.253968253968255,17.77777777777778 8.253968253968255,17.142857142857146 8.253968253968255,16.50793650793651 8.253968253968255,15.873015873015873 8.253968253968255,15.238095238095239 8.465608465608467,14.603174603174605 8.465608465608467,13.96825396825397 8.677248677248677,13.333333333333334 8.677248677248677,12.6984126984127 9.100529100529101,12.063492063492065 9.100529100529101,11.428571428571429 9.523809523809524,10.793650793650794 9.947089947089948,10.15873015873016 10.15873015873016,9.523809523809524 10.582010582010582,9.100529100529101 11.005291005291006,8.465608465608467 11.428571428571429,8.042328042328043 11.851851851851853,7.407407407407408 12.275132275132275,6.984126984126985 12.6984126984127,6.560846560846561 13.121693121693122,6.137566137566138 13.756613756613758,5.714285714285714 14.17989417989418,5.291005291005291 14.814814814814817,4.867724867724868 15.238095238095239,4.444444444444445 15.873015873015873,4.021164021164021 16.296296296296298,3.597883597883598 16.931216931216934,3.174603174603175 17.566137566137566,2.7513227513227516 18.201058201058203,2.53968253968254 18.83597883597884,2.3280423280423284 19.47089947089947,1.9047619047619049 20.105820105820108,1.6931216931216932 20.740740740740744,1.4814814814814816 21.375661375661377,1.4814814814814816 22.010582010582013,1.26984126984127 22.645502645502646,1.0582010582010584 23.280423280423282,0.8465608465608466 23.915343915343918,0.634920634920635 24.55026455026455,0.634920634920635 25.185185185185187,0.634920634920635 25.820105820105823,0.4232804232804233 26.455026455026456,0.4232804232804233 27.089947089947092,0.4232804232804233 27.724867724867728,0.21164021164021166 28.35978835978836,0.21164021164021166 28.994708994708997,0.21164021164021166 29.629629629629633,0.21164021164021166 30.264550264550266,0.21164021164021166 30.899470899470902,0.21164021164021166 31.53439153439154,0.21164021164021166 32.16931216931217,0.21164021164021166 32.804232804232804,0.21164021164021166 33.43915343915344,0.21164021164021166 34.074074074074076,0.21164021164021166 34.70899470899471,0.4232804232804233 35.34391534391535,0.4232804232804233 35.97883597883598,0.4232804232804233 36.613756613756614,0.8465608465608466 37.248677248677254,0.8465608465608466 37.883597883597886,0.8465608465608466 38.51851851851852,1.0582010582010584 39.15343915343916,1.26984126984127 39.78835978835979,1.4814814814814816 40.423280423280424,1.4814814814814816 41.058201058201064,1.6931216931216932 41.6931216931217,1.9047619047619049 42.32804232804233,2.1164021164021167 42.96296296296297,2.53968253968254 43.5978835978836,2.9629629629629632 44.232804232804234,3.3862433862433865 44.65608465608466,3.8095238095238098 45.07936507936508,4.2328042328042335 45.50264550264551,4.656084656084657 45.92592592592593,5.291005291005291 46.349206349206355,5.9259259259259265 46.560846560846564,6.560846560846561 46.77248677248678,7.195767195767196 47.195767195767196,7.830687830687832 47.195767195767196,8.465608465608467 47.40740740740741,9.100529100529101 47.61904761904762,9.735449735449736 47.61904761904762,10.370370370370372 47.830687830687836,11.005291005291006 47.830687830687836,11.640211640211641 47.830687830687836,12.275132275132275 47.830687830687836,12.910052910052912 47.830687830687836,13.544973544973546 47.830687830687836,14.17989417989418 48.042328042328045,14.814814814814817 48.042328042328045,15.449735449735451 48.042328042328045,16.084656084656086 48.25396825396826,16.71957671957672 48.25396825396826,17.354497354497354 48.25396825396826,17.98941798941799 48.25396825396826,18.624338624338627 48.25396825396826,19.25925925925926 48.25396825396826,19.894179894179896 48.46560846560847,20.529100529100532 48.677248677248684,21.164021164021165 48.677248677248684,21.7989417989418 48.677248677248684,22.433862433862437 48.88888888888889,23.06878306878307 48.88888888888889,23.703703703703706 49.1005291005291,24.338624338624342 49.1005291005291,24.973544973544975 49.31216931216932,25.60846560846561 49.523809523809526,26.243386243386244 49.94708994708995,26.87830687830688 50.158730158730165,27.513227513227516 50.370370370370374,28.14814814814815 50.7936507936508,28.571428571428573 51.21693121693122,29.20634920634921 51.640211640211646,29.629629629629633 52.06349206349207,30.052910052910054 52.48677248677249,30.476190476190478 52.91005291005291,30.899470899470902 53.54497354497355,31.322751322751326 53.968253968253975,31.746031746031747 54.60317460317461,32.16931216931217 55.23809523809524,32.38095238095239 55.87301587301588,32.804232804232804 56.50793650793651,32.804232804232804 57.142857142857146,33.01587301587302 57.777777777777786,33.22751322751323 58.41269841269842,33.22751322751323 59.04761904761905,33.22751322751323 59.682539682539684,33.22751322751323 60.31746031746032,33.22751322751323 60.952380952380956,33.01587301587302 61.58730158730159,33.01587301587302 62.22222222222223,33.01587301587302 62.85714285714286,32.804232804232804 63.492063492063494,32.592592592592595 64.12698412698413,32.38095238095239 64.76190476190477,32.16931216931217 65.3968253968254,31.746031746031747 66.03174603174604,31.53439153439154 66.66666666666667,31.111111111111114 67.3015873015873,30.68783068783069 67.93650793650794,30.264550264550266 68.35978835978837,29.841269841269842 68.994708994709,29.629629629629633 69.62962962962963,29.20634920634921 70.05291005291006,28.783068783068785 70.6878306878307,28.571428571428573 71.11111111111111,28.14814814814815 71.74603174603175,27.724867724867728 72.38095238095238,27.513227513227516 73.01587301587303,27.301587301587304 73.65079365079366,26.87830687830688 74.28571428571429,26.666666666666668 74.92063492063492,26.243386243386244 75.55555555555556,26.031746031746035 76.19047619047619,25.820105820105823 76.82539682539684,25.3968253968254 77.46031746031747,25.185185185185187 78.0952380952381,24.973544973544975 78.73015873015873,24.55026455026455 79.36507936507937,24.12698412698413 80.0,23.915343915343918 80.63492063492065,23.492063492063494 81.26984126984128,23.06878306878307 81.90476190476191,22.645502645502646 82.53968253968254,22.433862433862437 82.96296296296298,22.010582010582013 83.59788359788361,21.58730158730159 84.23280423280424,21.375661375661377 84.86772486772487,20.952380952380953 85.5026455026455,20.529100529100532 86.13756613756614,20.105820105820108 86.56084656084657,19.47089947089947 87.1957671957672,19.25925925925926 87.83068783068784,18.83597883597884 88.46560846560847,18.624338624338627 88.8888888888889,18.201058201058203 89.52380952380953,17.98941798941799 90.15873015873017,17.566137566137566 90.7936507936508,17.142857142857146 91.42857142857143,16.931216931216934 91.85185185185186,16.50793650793651 92.27513227513228,16.084656084656086 92.91005291005291,15.873015873015873 93.33333333333334,15.449735449735451 93.96825396825398,15.026455026455027 94.60317460317461,14.603174603174605 95.23809523809524,14.17989417989418 95.66137566137567,13.756613756613758 96.2962962962963,13.544973544973546 96.71957671957672,13.121693121693122 97.35449735449737,12.6984126984127 97.989417989418,12.275132275132275 98.41269841269842,11.851851851851853 99.04761904761905,11.428571428571429 99.47089947089948,11.005291005291006 102.43386243386244,8.88888888888889" style="fill:none; stroke:#cc0000; stroke-width:1.0"  /><polyline points="102.43386243386244,8.88888888888889 104.55026455026456,11.005291005291006 104.97354497354497,11.428571428571429 105.3968253968254,11.851851851851853 105.82010582010582,12.275132275132275 106.24338624338625,12.910052910052912 106.66666666666667,13.333333333333334 107.0899470899471,13.756613756613758 107.51322751322752,14.17989417989418 107.93650793650795,14.603174603174605 108.35978835978837,15.026455026455027 108.78306878306879,15.449735449735451 109.20634920634922,15.873015873015873 109.62962962962963,16.296296296296298 110.05291005291006,16.71957671957672 110.47619047619048,17.142857142857146 110.89947089947091,17.566137566137566 111.32275132275133,17.98941798941799 111.74603174603176,18.412698412698415 112.16931216931218,18.83597883597884 112.5925925925926,19.47089947089947 113.01587301587303,19.894179894179896 113.43915343915344,20.529100529100532 114.07407407407408,20.952380952380953 114.49735449735451,21.375661375661377 114.92063492063492,22.010582010582013 115.34391534391536,22.433862433862437 115.76719576719577,23.06878306878307 116.1904761904762,23.703703703703706 116.61375661375662,24.338624338624342 117.03703703703705,24.761904761904763 117.46031746031747,25.3968253968254 117.88359788359789,26.031746031746035 118.0952380952381,26.666666666666668 118.51851851851853,27.089947089947092 118.73015873015873,27.724867724867728 119.15343915343917,28.14814814814815 119.36507936507937,28.783068783068785 119.7883597883598,29.20634920634921 120.00000000000001,29.841269841269842 120.42328042328043,30.476190476190478 120.63492063492065,31.111111111111114 121.05820105820106,31.746031746031747 121.4814814814815,32.38095238095239 121.6931216931217,33.01587301587302 122.11640211640213,33.65079365079365 122.32804232804234,34.28571428571429 122.53968253968254,34.920634920634924 122.75132275132276,35.55555555555556 123.17460317460318,36.19047619047619 123.3862433862434,36.82539682539683 123.59788359788361,37.46031746031746 123.80952380952382,38.095238095238095 124.02116402116403,38.730158730158735 124.23280423280424,39.36507936507937 124.44444444444446,40.0 124.44444444444446,40.63492063492064 124.65608465608466,41.26984126984127 124.86772486772487,41.904761904761905 125.07936507936509,42.539682539682545 125.2910052910053,43.17460317460318 125.2910052910053,43.80952380952381 125.5026455026455,44.44444444444445 125.71428571428572,45.07936507936508 125.71428571428572,45.714285714285715 125.92592592592594,46.349206349206355 125.92592592592594,46.98412698412699 126.13756613756615,47.61904761904762 126.13756613756615,48.25396825396826 126.34920634920636,48.88888888888889 126.34920634920636,49.523809523809526 126.34920634920636,50.158730158730165 126.56084656084657,50.7936507936508 126.56084656084657,51.42857142857143 126.56084656084657,52.06349206349207 126.56084656084657,52.6984126984127 126.77248677248679,53.333333333333336 126.77248677248679,53.968253968253975 126.77248677248679,54.60317460317461 126.77248677248679,55.23809523809524 126.98412698412699,55.87301587301588 126.98412698412699,56.50793650793651 126.98412698412699,57.142857142857146 126.77248677248679,57.777777777777786 126.77248677248679,58.41269841269842 126.56084656084657,59.04761904761905 126.34920634920636,59.682539682539684 125.92592592592594,60.31746031746032 125.5026455026455,60.952380952380956 125.07936507936509,61.37566137566138 124.65608465608466,61.798941798941804 124.02116402116403,62.01058201058201 123.3862433862434,62.22222222222223 122.75132275132276,62.43386243386244 122.11640211640213,62.43386243386244 121.4814814814815,62.43386243386244 120.84656084656086,62.64550264550265 120.21164021164022,62.43386243386244 119.57671957671958,62.22222222222223 118.94179894179895,62.01058201058201 118.30687830687832,61.798941798941804 117.67195767195768,61.58730158730159 117.24867724867725,61.16402116402117 116.61375661375662,60.952380952380956 116.1904761904762,60.52910052910053 115.55555555555557,60.31746031746032 114.92063492063492,59.8941798941799 114.28571428571429,59.470899470899475 113.65079365079366,59.04761904761905 113.01587301587303,58.83597883597884 112.3809523809524,58.41269841269842 111.74603174603176,58.2010582010582 111.11111111111111,57.777777777777786 110.47619047619048,57.35449735449736 109.84126984126985,57.142857142857146 109.20634920634922,56.93121693121694 108.78306878306879,56.50793650793651 108.14814814814815,56.2962962962963 107.51322751322752,56.08465608465609 106.87830687830689,56.08465608465609 106.24338624338625,55.87301587301588 105.60846560846562,55.87301587301588 104.97354497354497,55.661375661375665 104.33862433862434,55.661375661375665 103.70370370370371,55.661375661375665 103.06878306878308,55.87301587301588 102.43386243386244,55.87301587301588 101.79894179894181,55.87301587301588 101.16402116402116,56.08465608465609 100.52910052910053,56.08465608465609 99.8941798941799,56.2962962962963 99.25925925925927,56.50793650793651 98.62433862433863,56.71957671957672 97.989417989418,56.93121693121694 97.35449735449737,57.142857142857146 96.93121693121694,57.56613756613757 96.2962962962963,57.989417989417994 95.87301587301587,58.41269841269842 95.44973544973546,58.83597883597884 95.02645502645504,59.25925925925927 94.60317460317461,59.682539682539684 94.39153439153439,60.31746031746032 93.96825396825398,60.952380952380956 93.75661375661376,61.58730158730159 93.54497354497356,62.22222222222223 93.33333333333334,62.85714285714286 93.12169312169313,63.492063492063494 92.91005291005291,64.12698412698413 92.91005291005291,64.76190476190477 92.69841269841271,65.3968253968254 92.69841269841271,66.03174603174604 92.4867724867725,66.66666666666667 92.4867724867725,67.3015873015873 92.4867724867725,67.93650793650794 92.4867724867725,68.57142857142858 92.27513227513228,69.20634920634922 92.27513227513228,69.84126984126985 92.27513227513228,70.47619047619048 92.27513227513228,71.11111111111111 92.27513227513228,71.74603174603175 92.27513227513228,72.38095238095238 92.27513227513228,73.01587301587303 92.27513227513228,73.65079365079366 92.27513227513228,74.28571428571429 92.27513227513228,74.92063492063492 92.27513227513228,75.55555555555556 92.27513227513228,76.19047619047619 92.27513227513228,76.82539682539684 92.4867724867725,77.46031746031747 92.4867724867725,78.0952380952381 92.4867724867725,78.73015873015873 92.69841269841271,79.36507936507937 92.69841269841271,80.0 92.91005291005291,80.63492063492065 92.91005291005291,81.26984126984128 93.12169312169313,81.90476190476191 93.12169312169313,82.53968253968254 93.33333333333334,83.17460317460318 93.54497354497356,83.80952380952381 93.54497354497356,84.44444444444446 93.75661375661376,85.07936507936509 93.96825396825398,85.71428571428572 94.17989417989419,86.34920634920636 94.39153439153439,86.98412698412699 94.60317460317461,87.61904761904762 94.81481481481482,88.25396825396827 95.23809523809524,88.8888888888889 95.44973544973546,89.52380952380953 95.66137566137567,90.15873015873017 96.08465608465609,90.58201058201058 96.50793650793652,91.21693121693123 96.71957671957672,91.85185185185186 97.14285714285715,92.4867724867725 97.56613756613757,93.12169312169313 97.77777777777779,93.75661375661376 98.2010582010582,94.17989417989419 98.41269841269842,94.81481481481482 98.83597883597885,95.23809523809524 99.25925925925927,95.87301587301587 99.68253968253968,96.2962962962963 100.10582010582011,96.93121693121694 100.52910052910053,97.35449735449737 100.95238095238096,97.77777777777779 101.5873015873016,98.2010582010582 102.01058201058201,98.62433862433863 102.64550264550266,99.04761904761905 103.28042328042329,99.47089947089948 103.91534391534393,99.68253968253968 104.55026455026456,99.8941798941799 105.18518518518519,100.10582010582011 105.82010582010582,100.31746031746033 106.45502645502647,100.52910052910053 107.0899470899471,100.74074074074075 107.72486772486774,100.74074074074075 108.35978835978837,100.95238095238096 108.994708994709,100.95238095238096 109.62962962962963,100.95238095238096 110.26455026455027,100.95238095238096 110.89947089947091,100.95238095238096 111.53439153439155,100.95238095238096 112.16931216931218,100.74074074074075 112.80423280423281,100.52910052910053 113.43915343915344,100.52910052910053 114.07407407407408,100.52910052910053 114.70899470899472,100.10582010582011 115.34391534391536,100.10582010582011 115.97883597883599,99.8941798941799 116.61375661375662,99.68253968253968 117.24867724867725,99.47089947089948 117.88359788359789,99.04761904761905 118.51851851851853,98.83597883597885 119.15343915343917,98.41269841269842 119.7883597883598,98.2010582010582 120.21164021164022,97.77777777777779 120.84656084656086,97.35449735449737 121.4814814814815,96.93121693121694 121.90476190476191,96.50793650793652 122.53968253968254,96.08465608465609 123.17460317460318,95.66137566137567 123.80952380952382,95.23809523809524 124.23280423280424,94.81481481481482 124.86772486772487,94.39153439153439 125.2910052910053,93.96825396825398 125.71428571428572,93.54497354497356 126.13756613756615,93.12169312169313 126.56084656084657,92.69841269841271 126.98412698412699,92.27513227513228 127.40740740740742,91.85185185185186 127.83068783068784,91.42857142857143 128.46560846560848,91.00529100529101 128.88888888888889,90.58201058201058 129.31216931216932,89.94708994708995 129.73544973544975,89.52380952380953 130.15873015873018,89.1005291005291 130.58201058201058,88.67724867724868 131.005291005291,88.25396825396827 131.42857142857144,87.83068783068784 131.85185185185185,87.40740740740742 132.27513227513228,86.98412698412699 132.6984126984127,86.56084656084657 133.12169312169314,86.13756613756614 133.54497354497354,85.71428571428572 134.17989417989418,85.29100529100529 134.6031746031746,84.86772486772487 135.23809523809524,84.44444444444446 135.87301587301587,84.23280423280424 136.5079365079365,84.02116402116403 137.14285714285717,84.02116402116403 137.7777777777778,84.02116402116403 138.41269841269843,84.02116402116403 138.83597883597884,84.44444444444446 139.47089947089947,84.65608465608466 140.10582010582013,84.86772486772487 140.52910052910053,85.29100529100529 141.16402116402116,85.71428571428572 141.5873015873016,86.13756613756614 142.01058201058203,86.56084656084657 142.43386243386246,86.98412698412699 142.85714285714286,87.61904761904762 143.0687830687831,88.25396825396827 143.4920634920635,88.67724867724868 143.70370370370372,89.31216931216932 144.12698412698413,89.94708994708995 144.55026455026456,90.58201058201058 144.76190476190476,91.21693121693123 144.973544973545,91.85185185185186 145.1851851851852,92.4867724867725 145.39682539682542,93.12169312169313 145.39682539682542,93.75661375661376 145.60846560846562,94.39153439153439 145.60846560846562,95.02645502645504 145.82010582010582,95.66137566137567 145.82010582010582,96.2962962962963 146.03174603174605,96.93121693121694 146.24338624338625,97.56613756613757 146.24338624338625,98.2010582010582 146.24338624338625,98.83597883597885 146.45502645502646,99.47089947089948 146.45502645502646,100.10582010582011 146.45502645502646,100.74074074074075 146.66666666666669,101.37566137566138 146.66666666666669,102.01058201058201 146.66666666666669,102.64550264550266 146.66666666666669,103.28042328042329 146.8783068783069,103.91534391534393 146.66666666666669,104.55026455026456 146.66666666666669,105.18518518518519 146.66666666666669,105.82010582010582 146.66666666666669,106.45502645502647 146.66666666666669,107.0899470899471 146.66666666666669,107.72486772486774 146.66666666666669,108.35978835978837 146.66666666666669,108.994708994709 146.66666666666669,109.62962962962963 146.66666666666669,110.26455026455027 146.66666666666669,110.89947089947091 146.66666666666669,111.53439153439155 146.66666666666669,112.16931216931218 146.66666666666669,112.80423280423281 146.8783068783069,113.43915343915344 146.8783068783069,114.07407407407408 146.8783068783069,114.70899470899472 146.8783068783069,115.34391534391536 146.8783068783069,115.97883597883599 147.0899470899471,116.61375661375662 147.0899470899471,117.24867724867725 147.0899470899471,117.88359788359789 147.0899470899471,118.51851851851853 147.30158730158732,119.15343915343917 147.30158730158732,119.7883597883598 147.51322751322752,120.42328042328043 147.51322751322752,121.05820105820106 147.51322751322752,121.6931216931217 147.72486772486775,122.32804232804234 147.72486772486775,122.96296296296298 147.93650793650795,123.59788359788361 148.14814814814815,124.23280423280424 148.35978835978838,124.86772486772487 148.57142857142858,125.5026455026455 148.57142857142858,126.13756613756615 148.57142857142858,126.77248677248679 148.99470899470901,129.52380952380955" style="fill:none; stroke:#999900; stroke-width:1.0"  /><polyline points="148.99470899470901,129.52380952380955 145.60846560846562,131.21693121693121 144.973544973545,131.64021164021165 144.33862433862436,131.85185185185185 143.70370370370372,132.27513227513228 143.0687830687831,132.4867724867725 142.43386243386246,132.6984126984127 141.7989417989418,132.9100529100529 141.16402116402116,133.33333333333334 140.52910052910053,133.75661375661377 139.8941798941799,133.96825396825398 139.25925925925927,134.17989417989418 138.62433862433863,134.3915343915344 137.989417989418,134.81481481481484 137.35449735449737,135.02645502645504 136.71957671957674,135.23809523809524 136.0846560846561,135.66137566137567 135.44973544973547,135.87301587301587 134.81481481481484,136.0846560846561 134.17989417989418,136.2962962962963 133.54497354497354,136.71957671957674 132.9100529100529,136.93121693121694 132.27513227513228,137.14285714285717 131.64021164021165,137.35449735449737 131.005291005291,137.7777777777778 130.37037037037038,137.989417989418 129.73544973544975,138.2010582010582 129.10052910052912,138.41269841269843 128.46560846560848,138.62433862433863 127.83068783068784,138.83597883597884 127.1957671957672,139.04761904761907 126.56084656084657,139.25925925925927 125.92592592592594,139.6825396825397 125.2910052910053,139.8941798941799 124.65608465608466,140.10582010582013 124.02116402116403,140.10582010582013 123.3862433862434,140.31746031746033 122.75132275132276,140.52910052910053 122.11640211640213,140.74074074074076 121.4814814814815,140.95238095238096 120.84656084656086,141.3756613756614 120.21164021164022,141.3756613756614 119.57671957671958,141.5873015873016 118.94179894179895,141.7989417989418 118.30687830687832,142.01058201058203 117.67195767195768,142.22222222222223 117.03703703703705,142.43386243386246 116.4021164021164,142.43386243386246 115.76719576719577,142.64550264550266 115.13227513227514,143.0687830687831 114.49735449735451,143.2804232804233 113.86243386243387,143.4920634920635 113.22751322751324,143.70370370370372 112.5925925925926,143.91534391534393 112.16931216931218,144.33862433862436 111.53439153439155,144.76190476190476 110.89947089947091,145.1851851851852 110.47619047619048,145.60846560846562 110.05291005291006,146.03174603174605 109.62962962962963,146.45502645502646 109.20634920634922,146.8783068783069 108.78306878306879,147.51322751322752 108.57142857142858,148.14814814814815 108.35978835978837,148.78306878306879 108.14814814814815,149.41798941798942 108.14814814814815,150.05291005291005 107.93650793650795,150.6878306878307 107.93650793650795,151.32275132275134 108.14814814814815,151.95767195767198 108.14814814814815,152.5925925925926 108.57142857142858,153.22751322751324 108.78306878306879,153.86243386243387 108.994708994709,154.4973544973545 109.41798941798943,154.92063492063494 109.84126984126985,155.55555555555557 110.26455026455027,155.978835978836 110.6878306878307,156.4021164021164 111.11111111111111,156.82539682539684 111.74603174603176,157.24867724867727 112.3809523809524,157.67195767195767 113.01587301587303,157.8835978835979 113.65079365079366,158.0952380952381 114.28571428571429,158.51851851851853 114.92063492063492,158.51851851851853 115.55555555555557,158.73015873015873 116.1904761904762,158.94179894179896 116.82539682539684,158.94179894179896 117.46031746031747,159.36507936507937 118.0952380952381,159.36507936507937 118.73015873015873,159.7883597883598 119.36507936507937,160.0 120.00000000000001,160.21164021164023 120.63492063492065,160.42328042328043 121.26984126984128,160.63492063492066 121.90476190476191,160.63492063492066 122.32804232804234,161.05820105820106 122.96296296296298,161.2698412698413 123.59788359788361,161.6931216931217 124.23280423280424,162.11640211640213 124.65608465608466,162.53968253968256 125.2910052910053,162.96296296296296 125.71428571428572,163.59788359788362 126.13756613756615,164.23280423280426 126.56084656084657,164.65608465608466 126.98412698412699,165.2910052910053 127.40740740740742,165.92592592592595 127.61904761904763,166.56084656084658 127.83068783068784,167.19576719576722 127.83068783068784,167.83068783068785 127.83068783068784,168.46560846560848 127.83068783068784,169.10052910052912 127.83068783068784,169.73544973544975 127.61904761904763,170.37037037037038 127.40740740740742,171.005291005291 126.98412698412699,171.64021164021165 126.56084656084657,172.27513227513228 126.13756613756615,172.9100529100529 125.71428571428572,173.54497354497354 125.2910052910053,174.1798941798942 124.86772486772487,174.81481481481484 124.44444444444446,175.23809523809524 124.02116402116403,175.66137566137567 123.59788359788361,176.0846560846561 123.17460317460318,176.50793650793653 122.75132275132276,176.93121693121694 122.32804232804234,177.56613756613757 121.6931216931217,177.989417989418 121.26984126984128,178.62433862433863 120.84656084656086,179.04761904761907 120.21164021164022,179.4708994708995 119.57671957671958,179.8941798941799 119.15343915343917,180.31746031746033 118.51851851851853,180.74074074074076 118.0952380952381,181.16402116402116 117.46031746031747,181.5873015873016 116.82539682539684,182.01058201058203 116.4021164021164,182.43386243386246 115.76719576719577,182.85714285714286 115.34391534391536,183.2804232804233 114.70899470899472,183.70370370370372 114.28571428571429,184.12698412698415 113.65079365079366,184.55026455026456 113.22751322751324,184.973544973545 112.5925925925926,185.39682539682542 111.95767195767196,185.60846560846562 111.53439153439155,186.03174603174605 110.89947089947091,186.45502645502646 110.26455026455027,186.8783068783069 109.62962962962963,187.30158730158732 108.994708994709,187.72486772486775 108.35978835978837,188.14814814814815 107.72486772486774,188.57142857142858 107.0899470899471,188.99470899470901 106.45502645502647,189.20634920634922 106.03174603174604,189.62962962962965 105.3968253968254,190.05291005291008 104.76190476190477,190.26455026455028 104.12698412698414,190.6878306878307 103.4920634920635,191.11111111111111 102.85714285714286,191.32275132275134 102.22222222222223,191.74603174603175 101.5873015873016,191.95767195767198 100.95238095238096,192.3809523809524 100.31746031746033,192.5925925925926 99.68253968253968,192.8042328042328 99.04761904761905,193.22751322751324 98.41269841269842,193.43915343915344 97.77777777777779,193.86243386243387 97.14285714285715,194.07407407407408 96.50793650793652,194.2857142857143 95.87301587301587,194.70899470899474 95.23809523809524,194.92063492063494 94.60317460317461,195.13227513227514 93.96825396825398,195.34391534391537 93.33333333333334,195.55555555555557 92.69841269841271,195.76719576719577 92.06349206349208,195.978835978836 91.42857142857143,196.1904761904762 90.7936507936508,196.4021164021164 90.15873015873017,196.61375661375664 89.52380952380953,196.82539682539684 88.8888888888889,197.03703703703704 88.25396825396827,197.24867724867727 87.61904761904762,197.46031746031747 86.98412698412699,197.46031746031747 86.56084656084657,197.8835978835979 85.92592592592594,198.0952380952381 85.29100529100529,198.0952380952381 84.65608465608466,198.30687830687833 84.02116402116403,198.51851851851853 83.3862433862434,198.51851851851853 82.75132275132276,198.73015873015873 82.11640211640213,198.73015873015873 81.48148148148148,198.94179894179896 80.84656084656085,198.94179894179896 80.21164021164022,198.94179894179896 79.57671957671958,199.15343915343917 78.94179894179895,199.15343915343917 78.30687830687832,199.15343915343917 77.67195767195767,199.15343915343917 77.03703703703704,199.15343915343917 76.4021164021164,198.94179894179896 75.76719576719577,198.94179894179896 75.13227513227514,198.73015873015873 74.49735449735451,198.51851851851853 73.86243386243387,198.30687830687833 73.22751322751323,198.0952380952381 72.5925925925926,197.8835978835979 71.95767195767196,197.6719576719577 71.32275132275133,197.24867724867727 70.6878306878307,196.82539682539684 70.05291005291006,196.4021164021164 69.62962962962963,195.978835978836 69.20634920634922,195.55555555555557 68.78306878306879,195.13227513227514 68.35978835978837,194.70899470899474 67.93650793650794,194.07407407407408 67.51322751322752,193.43915343915344 67.3015873015873,192.8042328042328 67.08994708994709,192.16931216931218 66.87830687830689,191.53439153439155 66.87830687830689,190.8994708994709 66.66666666666667,190.26455026455028 66.66666666666667,189.62962962962965 66.66666666666667,188.99470899470901 66.66666666666667,188.35978835978838 66.87830687830689,187.72486772486775 67.08994708994709,187.08994708994712 67.08994708994709,186.45502645502646 67.3015873015873,185.82010582010582 67.51322751322752,185.1851851851852 67.51322751322752,184.55026455026456 67.72486772486774,183.91534391534393 67.93650793650794,183.2804232804233 68.14814814814815,182.64550264550266 68.57142857142858,182.01058201058203 68.57142857142858,181.3756613756614 68.994708994709,180.95238095238096 69.20634920634922,180.31746031746033 69.62962962962963,179.8941798941799 70.05291005291006,179.25925925925927 70.47619047619048,178.62433862433863 70.6878306878307,177.989417989418 71.11111111111111,177.56613756613757 71.53439153439155,177.14285714285717 71.74603174603175,176.50793650793653 72.16931216931218,176.0846560846561 72.5925925925926,175.44973544973547 73.01587301587303,174.81481481481484 73.43915343915344,174.1798941798942 73.65079365079366,173.54497354497354 74.07407407407408,173.12169312169314 74.28571428571429,172.4867724867725 74.49735449735451,171.85185185185188 74.70899470899471,171.21693121693124 74.70899470899471,170.58201058201058 74.92063492063492,169.94708994708995 74.70899470899471,169.31216931216932 74.92063492063492,168.67724867724868 74.70899470899471,168.04232804232805 74.70899470899471,167.40740740740742 74.49735449735451,166.7724867724868 74.28571428571429,166.13756613756615 73.86243386243387,165.50264550264552 73.65079365079366,164.8677248677249 73.22751322751323,164.44444444444446 72.5925925925926,164.02116402116403 71.95767195767196,163.80952380952382 71.32275132275133,163.80952380952382 70.6878306878307,163.3862433862434 70.05291005291006,162.96296296296296 69.41798941798942,162.96296296296296 68.78306878306879,162.96296296296296 68.14814814814815,163.1746031746032 67.51322751322752,163.3862433862434 66.87830687830689,163.59788359788362 66.24338624338625,164.02116402116403 65.60846560846561,164.23280423280426 65.18518518518519,164.65608465608466 64.55026455026456,164.8677248677249 64.12698412698413,165.2910052910053 63.492063492063494,165.71428571428572 62.85714285714286,166.13756613756615 62.22222222222223,166.56084656084658 61.798941798941804,166.984126984127 61.16402116402117,167.40740740740742 60.74074074074075,167.83068783068785 60.31746031746032,168.25396825396825 59.8941798941799,168.67724867724868 59.470899470899475,169.10052910052912 59.04761904761905,169.52380952380955 58.62433862433863,169.94708994708995 58.2010582010582,170.37037037037038 57.777777777777786,170.7936507936508 57.35449735449736,171.21693121693124 56.93121693121694,171.64021164021165 56.50793650793651,172.27513227513228 56.08465608465609,172.6984126984127 55.661375661375665,173.12169312169314 55.23809523809524,173.54497354497354 54.81481481481482,174.1798941798942 54.39153439153439,174.6031746031746 53.968253968253975,175.02645502645504 53.54497354497355,175.44973544973547 53.12169312169313,175.87301587301587 52.6984126984127,176.2962962962963 52.27513227513228,176.71957671957674 51.851851851851855,177.14285714285717 51.42857142857143,177.7777777777778 51.00529100529101,178.41269841269843 50.58201058201058,178.83597883597884 50.158730158730165,179.25925925925927 49.73544973544974,179.6825396825397 49.31216931216932,180.10582010582013 48.88888888888889,180.74074074074076 48.46560846560847,181.16402116402116 48.042328042328045,181.5873015873016 47.61904761904762,182.01058201058203 47.195767195767196,182.43386243386246 46.77248677248678,182.85714285714286 46.349206349206355,183.2804232804233 45.92592592592593,183.70370370370372 45.50264550264551,184.33862433862436 45.07936507936508,184.7619047619048 44.44444444444445,185.1851851851852 44.021164021164026,185.60846560846562 43.5978835978836,186.24338624338625 43.17460317460318,186.66666666666669 42.75132275132275,187.08994708994712 42.32804232804233,187.51322751322752 41.904761904761905,188.14814814814815 41.48148148148149,188.57142857142858 41.058201058201064,188.99470899470901 40.63492063492064,189.41798941798945 40.211640211640216,190.05291005291008 39.78835978835979,190.47619047619048 37.46031746031746,193.01587301587304" style="fill:none; stroke:#00aa99; stroke-width:1.0"  /><polyline points="37.46031746031746,193.01587301587304 35.13227513227513,190.6878306878307 34.4973544973545,190.26455026455028 34.074074074074076,189.62962962962965 33.43915343915344,189.20634920634922 33.01587301587302,188.57142857142858 32.592592592592595,188.14814814814815 32.16931216931217,187.72486772486775 31.746031746031747,187.30158730158732 31.322751322751326,186.8783068783069 30.899470899470902,186.45502645502646 30.476190476190478,186.03174603174605 30.052910052910054,185.60846560846562 29.629629629629633,185.1851851851852 29.20634920634921,184.7619047619048 28.783068783068785,184.33862433862436 28.35978835978836,183.91534391534393 27.93650793650794,183.2804232804233 27.513227513227516,182.85714285714286 27.089947089947092,182.43386243386246 26.666666666666668,182.01058201058203 26.243386243386244,181.5873015873016 25.820105820105823,181.16402116402116 25.3968253968254,180.52910052910053 24.973544973544975,180.10582010582013 24.55026455026455,179.6825396825397 24.12698412698413,179.25925925925927 23.703703703703706,178.62433862433863 23.280423280423282,178.2010582010582 22.857142857142858,177.7777777777778 22.433862433862437,177.35449735449737 22.010582010582013,176.93121693121694 21.58730158730159,176.2962962962963 21.164021164021165,175.66137566137567 20.740740740740744,175.23809523809524 20.31746031746032,174.81481481481484 19.894179894179896,174.3915343915344 19.47089947089947,173.75661375661377 19.047619047619047,173.33333333333334 18.624338624338627,172.6984126984127 18.201058201058203,172.27513227513228 17.77777777777778,171.64021164021165 17.354497354497354,171.21693121693124 16.931216931216934,170.58201058201058 16.50793650793651,170.15873015873018 16.084656084656086,169.52380952380955 15.661375661375663,168.8888888888889 15.238095238095239,168.25396825396825 14.814814814814817,167.61904761904762 14.391534391534393,166.984126984127 13.96825396825397,166.34920634920636 13.756613756613758,165.71428571428572 13.544973544973546,165.0793650793651 13.333333333333334,164.44444444444446 12.910052910052912,163.80952380952382 12.6984126984127,163.1746031746032 12.275132275132275,162.53968253968256 12.063492063492065,161.90476190476193 11.851851851851853,161.2698412698413 11.428571428571429,160.63492063492066 11.216931216931219,160.0 11.005291005291006,159.36507936507937 10.793650793650794,158.73015873015873 10.582010582010582,158.0952380952381 10.582010582010582,157.46031746031747 10.370370370370372,156.82539682539684 10.370370370370372,156.1904761904762 10.15873015873016,155.55555555555557 10.15873015873016,154.92063492063494 9.947089947089948,154.2857142857143 9.947089947089948,153.65079365079367 9.947089947089948,153.01587301587304 9.947089947089948,152.38095238095238 10.15873015873016,151.74603174603175 10.15873015873016,151.11111111111111 10.370370370370372,150.47619047619048 10.582010582010582,149.84126984126985 10.793650793650794,149.20634920634922 11.216931216931219,148.57142857142858 11.640211640211641,147.93650793650795 12.063492063492065,147.51322751322752 12.275132275132275,146.8783068783069 12.910052910052912,146.45502645502646 13.333333333333334,146.03174603174605 13.756613756613758,145.60846560846562 14.391534391534393,145.1851851851852 15.026455026455027,144.76190476190476 15.661375661375663,144.55026455026456 16.296296296296298,144.33862433862436 16.71957671957672,143.91534391534393 17.354497354497354,143.70370370370372 17.98941798941799,143.4920634920635 18.624338624338627,143.0687830687831 19.25925925925926,142.85714285714286 19.894179894179896,142.64550264550266 20.529100529100532,142.43386243386246 21.164021164021165,142.22222222222223 21.7989417989418,142.22222222222223 22.433862433862437,142.01058201058203 23.06878306878307,141.7989417989418 23.703703703703706,141.7989417989418 24.338624338624342,141.5873015873016 24.973544973544975,141.5873015873016 25.60846560846561,141.3756613756614 26.243386243386244,141.3756613756614 26.87830687830688,141.16402116402116 27.513227513227516,141.16402116402116 28.14814814814815,141.16402116402116 28.783068783068785,140.95238095238096 29.41798941798942,140.95238095238096 30.052910052910054,140.74074074074076 30.68783068783069,140.74074074074076 31.322751322751326,140.74074074074076 31.95767195767196,140.52910052910053 32.592592592592595,140.52910052910053 33.22751322751323,140.52910052910053 33.86243386243387,140.31746031746033 34.4973544973545,140.52910052910053 35.13227513227513,140.31746031746033 35.76719576719577,140.10582010582013 36.402116402116405,140.10582010582013 37.03703703703704,139.8941798941799 37.67195767195768,139.8941798941799 38.30687830687831,139.8941798941799 38.94179894179894,139.6825396825397 39.57671957671958,139.6825396825397 40.211640211640216,139.47089947089947 40.84656084656085,139.47089947089947 41.48148148148149,139.47089947089947 42.11640211640212,139.47089947089947 42.75132275132275,139.25925925925927 43.386243386243386,139.25925925925927 44.021164021164026,139.25925925925927 44.65608465608466,139.04761904761907 45.29100529100529,138.83597883597884 45.92592592592593,138.83597883597884 46.560846560846564,138.83597883597884 47.195767195767196,138.62433862433863 47.830687830687836,138.62433862433863 48.46560846560847,138.41269841269843 49.1005291005291,138.41269841269843 49.73544973544974,138.41269841269843 50.370370370370374,138.2010582010582 51.00529100529101,137.989417989418 51.640211640211646,137.7777777777778 52.27513227513228,137.56613756613757 52.91005291005291,137.35449735449737 53.54497354497355,136.93121693121694 54.179894179894184,136.71957671957674 54.81481481481482,136.5079365079365 55.449735449735456,136.0846560846561 56.08465608465609,135.66137566137567 56.71957671957672,135.23809523809524 57.35449735449736,134.81481481481484 57.777777777777786,134.3915343915344 58.2010582010582,133.96825396825398 58.62433862433863,133.33333333333334 59.04761904761905,132.9100529100529 59.25925925925927,132.27513227513228 59.470899470899475,131.64021164021165 59.682539682539684,131.005291005291 59.8941798941799,130.37037037037038 59.8941798941799,129.73544973544975 59.8941798941799,129.10052910052912 59.8941798941799,128.46560846560848 59.682539682539684,127.83068783068784 59.682539682539684,127.1957671957672 59.682539682539684,126.56084656084657 59.470899470899475,125.92592592592594 59.25925925925927,125.2910052910053 59.04761904761905,124.65608465608466 58.83597883597884,124.02116402116403 58.83597883597884,123.3862433862434 58.41269841269842,122.75132275132276 58.2010582010582,122.11640211640213 57.989417989417994,121.4814814814815 57.989417989417994,120.84656084656086 57.777777777777786,120.21164021164022 57.56613756613757,119.57671957671958 57.35449735449736,118.94179894179895 57.142857142857146,118.30687830687832 56.93121693121694,117.67195767195768 56.71957671957672,117.03703703703705 56.50793650793651,116.4021164021164 56.2962962962963,115.76719576719577 56.08465608465609,115.13227513227514 55.87301587301588,114.49735449735451 55.661375661375665,113.86243386243387 55.23809523809524,113.22751322751324 55.23809523809524,112.5925925925926 54.81481481481482,111.95767195767196 54.60317460317461,111.32275132275133 54.39153439153439,110.6878306878307 54.179894179894184,110.05291005291006 53.75661375661376,109.62962962962963 53.54497354497355,108.994708994709 53.54497354497355,108.35978835978837 53.12169312169313,107.93650793650795 52.91005291005291,107.3015873015873 52.48677248677249,106.66666666666667 52.27513227513228,106.03174603174604 52.06349206349207,105.3968253968254 51.640211640211646,104.97354497354497 51.42857142857143,104.33862433862434 51.00529100529101,103.91534391534393 50.7936507936508,103.28042328042329 50.370370370370374,102.85714285714286 50.158730158730165,102.22222222222223 49.73544973544974,101.79894179894181 49.31216931216932,101.16402116402116 49.1005291005291,100.52910052910053 48.677248677248684,99.8941798941799 48.25396825396826,99.25925925925927 47.830687830687836,98.62433862433863 47.40740740740741,98.2010582010582 47.195767195767196,97.56613756613757 46.77248677248678,97.14285714285715 46.349206349206355,96.71957671957672 45.92592592592593,96.08465608465609 45.50264550264551,95.44973544973546 45.07936507936508,94.81481481481482 44.65608465608466,94.17989417989419 44.232804232804234,93.75661375661376 43.80952380952381,93.12169312169313 43.386243386243386,92.4867724867725 42.96296296296297,91.85185185185186 42.539682539682545,91.21693121693123 42.11640211640212,90.58201058201058 41.48148148148149,90.15873015873017 41.058201058201064,89.73544973544975 40.423280423280424,89.31216931216932 40.0,88.8888888888889 39.36507936507937,88.67724867724868 38.730158730158735,88.25396825396827 38.095238095238095,88.04232804232805 37.46031746031746,88.04232804232805 36.82539682539683,87.83068783068784 36.19047619047619,87.83068783068784 35.55555555555556,88.04232804232805 34.920634920634924,88.04232804232805 34.28571428571429,88.25396825396827 33.65079365079365,88.25396825396827 33.01587301587302,88.46560846560847 32.38095238095239,88.67724867724868 31.746031746031747,88.8888888888889 31.111111111111114,89.31216931216932 30.476190476190478,89.73544973544975 29.841269841269842,89.94708994708995 29.41798941798942,90.37037037037038 28.994708994708997,90.7936507936508 28.571428571428573,91.21693121693123 28.14814814814815,91.64021164021165 27.724867724867728,92.06349206349208 27.301587301587304,92.4867724867725 26.87830687830688,92.91005291005291 26.455026455026456,93.54497354497356 26.031746031746035,94.17989417989419 25.60846560846561,94.60317460317461 25.185185185185187,95.23809523809524 24.761904761904763,95.87301587301587 24.338624338624342,96.50793650793652 23.915343915343918,96.93121693121694 23.703703703703706,97.56613756613757 23.280423280423282,97.989417989418 22.857142857142858,98.62433862433863 22.433862433862437,99.25925925925927 22.010582010582013,99.8941798941799 21.58730158730159,100.31746031746033 21.164021164021165,100.95238095238096 20.740740740740744,101.37566137566138 20.31746031746032,101.79894179894181 19.894179894179896,102.22222222222223 19.47089947089947,102.64550264550266 19.047619047619047,103.06878306878308 18.624338624338627,103.4920634920635 17.98941798941799,103.91534391534393 17.354497354497354,104.33862433862434 16.71957671957672,104.55026455026456 16.296296296296298,104.97354497354497 15.661375661375663,105.18518518518519 15.026455026455027,105.3968253968254 14.391534391534393,105.60846560846562 13.756613756613758,105.60846560846562 13.121693121693122,105.60846560846562 12.486772486772487,105.3968253968254 11.851851851851853,105.3968253968254 11.216931216931219,104.97354497354497 10.582010582010582,104.76190476190477 10.15873015873016,104.33862433862434 9.735449735449736,103.91534391534393 9.312169312169313,103.4920634920635 8.88888888888889,102.85714285714286 8.465608465608467,102.22222222222223 8.253968253968255,101.5873015873016 8.042328042328043,100.95238095238096 7.6190476190476195,100.31746031746033 7.407407407407408,99.68253968253968 7.195767195767196,99.04761904761905 6.984126984126985,98.41269841269842 6.772486772486773,97.77777777777779 6.560846560846561,97.14285714285715 6.34920634920635,96.50793650793652 6.137566137566138,95.87301587301587 6.137566137566138,95.23809523809524 5.9259259259259265,94.60317460317461 5.9259259259259265,93.96825396825398 5.714285714285714,93.33333333333334 5.714285714285714,92.69841269841271 5.502645502645503,92.06349206349208 5.502645502645503,91.42857142857143 5.291005291005291,90.7936507936508 5.07936507936508,90.15873015873017 5.07936507936508,89.52380952380953 5.07936507936508,88.8888888888889 4.867724867724868,88.25396825396827 4.867724867724868,87.61904761904762 4.867724867724868,86.98412698412699 4.656084656084657,86.34920634920636 4.656084656084657,85.71428571428572 4.656084656084657,85.07936507936509 4.656084656084657,84.44444444444446 4.444444444444445,83.80952380952381 4.444444444444445,83.17460317460318 4.2328042328042335,82.53968253968254 4.2328042328042335,81.90476190476191 4.2328042328042335,81.26984126984128 4.2328042328042335,80.63492063492065 4.2328042328042335,80.0 4.021164021164021,79.36507936507937 4.021164021164021,78.73015873015873 3.8095238095238098,78.0952380952381 3.8095238095238098,77.46031746031747 3.8095238095238098,76.82539682539684 3.597883597883598,76.19047619047619 3.597883597883598,75.55555555555556 3.3862433862433865,74.92063492063492 3.3862433862433865,74.28571428571429 3.3862433862433865,73.65079365079366 3.174603174603175,73.01587301587303 3.174603174603175,72.38095238095238 2.9629629629629632,71.74603174603175 2.9629629629629632,71.11111111111111 2.7513227513227516,70.47619047619048 2.7513227513227516,69.84126984126985 2.53968253968254,69.20634920634922 2.3280423280423284,68.57142857142858 2.3280423280423284,67.93650793650794 1.9047619047619049,67.3015873015873 1.9047619047619049,66.66666666666667 1.6931216931216932,66.03174603174604 1.4814814814814816,65.3968253968254 1.4814814814814816,64.76190476190477 1.26984126984127,64.12698412698413 1.0582010582010584,63.492063492063494 0.21164021164021166,60.10582010582011" style="fill:none; stroke:#3300bb; stroke-width:1.0"  /><circle cx="0.21164021164021166" cy="60.10582010582011" r="2.0" style="fill:none; stroke:#000000aa; stroke-width:0.25" /><circle cx="102.43386243386244" cy="8.88888888888889" r="2.0" style="fill:none; stroke:#000000aa; stroke-width:0.25" /><circle cx="148.99470899470901" cy="129.52380952380955" r="2.0" style="fill:none; stroke:#000000aa; stroke-width:0.25" /><circle cx="37.46031746031746" cy="193.01587301587304" r="2.0" style="fill:none; stroke:#000000aa; stroke-width:0.25" /><circle cx="0.21164021164021166" cy="60.52910052910053" r="2.0" style="fill:none; stroke:#ff3366aa; stroke-width:0.25" /><circle cx="102.22222222222223" cy="9.100529100529101" r="2.0" style="fill:none; stroke:#ff3366aa; stroke-width:0.25" /><circle cx="148.78306878306879" cy="129.73544973544975" r="2.0" style="fill:none; stroke:#ff3366aa; stroke-width:0.25" /><circle cx="37.67195767195768" cy="192.5925925925926" r="2.0" style="fill:none; stroke:#ff3366aa; stroke-width:0.25" /><polyline points="11.216931216931219,56.71957671957672 10.582010582010582,56.93121693121694 9.947089947089948,57.142857142857146 9.312169312169313,57.35449735449736 8.677248677248677,57.56613756613757 8.042328042328043,57.777777777777786 7.407407407407408,57.989417989417994 6.772486772486773,58.2010582010582 6.137566137566138,58.41269841269842 5.502645502645503,58.62433862433863 4.867724867724868,58.83597883597884 4.2328042328042335,58.83597883597884 3.597883597883598,59.04761904761905 2.9629629629629632,59.25925925925927" style="fill:none; stroke:#001100; stroke-width:1.0" /><polyline points="2.9629629629629632,71.74603174603175 2.9629629629629632,71.11111111111111 2.7513227513227516,70.47619047619048 2.7513227513227516,69.84126984126985 2.53968253968254,69.20634920634922 2.3280423280423284,68.57142857142858 2.3280423280423284,67.93650793650794 1.9047619047619049,67.3015873015873 1.9047619047619049,66.66666666666667 1.6931216931216932,66.03174603174604 1.4814814814814816,65.3968253968254 1.4814814814814816,64.76190476190477 1.26984126984127,64.12698412698413 1.0582010582010584,63.492063492063494" style="fill:none; stroke:#000011; stroke-width:1.0" /><polyline points="110.47619047619048,17.142857142857146 110.05291005291006,16.71957671957672 109.62962962962963,16.296296296296298 109.20634920634922,15.873015873015873 108.78306878306879,15.449735449735451 108.35978835978837,15.026455026455027 107.93650793650795,14.603174603174605 107.51322751322752,14.17989417989418 107.0899470899471,13.756613756613758 106.66666666666667,13.333333333333334 106.24338624338625,12.910052910052912 105.82010582010582,12.275132275132275 105.3968253968254,11.851851851851853 104.97354497354497,11.428571428571429 104.55026455026456,11.005291005291006" style="fill:none; stroke:#001100; stroke-width:1.0" /><polyline points="92.91005291005291,15.873015873015873 93.33333333333334,15.449735449735451 93.96825396825398,15.026455026455027 94.60317460317461,14.603174603174605 95.23809523809524,14.17989417989418 95.66137566137567,13.756613756613758 96.2962962962963,13.544973544973546 96.71957671957672,13.121693121693122 97.35449735449737,12.6984126984127 97.989417989418,12.275132275132275 98.41269841269842,11.851851851851853 99.04761904761905,11.428571428571429 99.47089947089948,11.005291005291006" style="fill:none; stroke:#000011; stroke-width:1.0" /><polyline points="137.989417989418,134.81481481481484 138.62433862433863,134.3915343915344 139.25925925925927,134.17989417989418 139.8941798941799,133.96825396825398 140.52910052910053,133.75661375661377 141.16402116402116,133.33333333333334 141.7989417989418,132.9100529100529 142.43386243386246,132.6984126984127 143.0687830687831,132.4867724867725 143.70370370370372,132.27513227513228 144.33862433862436,131.85185185185185 144.973544973545,131.64021164021165 145.60846560846562,131.21693121693121" style="fill:none; stroke:#001100; stroke-width:1.0" /><polyline points="147.0899470899471,117.88359788359789 147.0899470899471,118.51851851851853 147.30158730158732,119.15343915343917 147.30158730158732,119.7883597883598 147.51322751322752,120.42328042328043 147.51322751322752,121.05820105820106 147.51322751322752,121.6931216931217 147.72486772486775,122.32804232804234 147.72486772486775,122.96296296296298 147.93650793650795,123.59788359788361 148.14814814814815,124.23280423280424 148.35978835978838,124.86772486772487 148.57142857142858,125.5026455026455 148.57142857142858,126.13756613756615 148.57142857142858,126.77248677248679" style="fill:none; stroke:#000011; stroke-width:1.0" /><polyline points="29.20634920634921,184.7619047619048 29.629629629629633,185.1851851851852 30.052910052910054,185.60846560846562 30.476190476190478,186.03174603174605 30.899470899470902,186.45502645502646 31.322751322751326,186.8783068783069 31.746031746031747,187.30158730158732 32.16931216931217,187.72486772486775 32.592592592592595,188.14814814814815 33.01587301587302,188.57142857142858 33.43915343915344,189.20634920634922 34.074074074074076,189.62962962962965 34.4973544973545,190.26455026455028 35.13227513227513,190.6878306878307" style="fill:none; stroke:#001100; stroke-width:1.0" /><polyline points="45.50264550264551,184.33862433862436 45.07936507936508,184.7619047619048 44.44444444444445,185.1851851851852 44.021164021164026,185.60846560846562 43.5978835978836,186.24338624338625 43.17460317460318,186.66666666666669 42.75132275132275,187.08994708994712 42.32804232804233,187.51322751322752 41.904761904761905,188.14814814814815 41.48148148148149,188.57142857142858 41.058201058201064,188.99470899470901 40.63492063492064,189.41798941798945 40.211640211640216,190.05291005291008 39.78835978835979,190.47619047619048" style="fill:none; stroke:#000011; stroke-width:1.0" /><polyline points="2.9629629629629632,59.25925925925927 -17.354497354497354,65.3968253968254" style="fill:none; stroke:#ffaa00; stroke-width:0.4" /><polyline points="1.0582010582010584,63.492063492063494 -3.597883597883598,42.96296296296297" style="fill:none; stroke:#aaff00; stroke-width:0.4" /><polyline points="104.55026455026456,11.005291005291006 89.94708994708995,-4.2328042328042335" style="fill:none; stroke:#ffaa00; stroke-width:0.4" /><polyline points="99.47089947089948,11.005291005291006 116.4021164021164,-1.6931216931216932" style="fill:none; stroke:#aaff00; stroke-width:0.4" /><polyline points="145.60846560846562,131.21693121693121 164.65608465608466,122.11640211640213" style="fill:none; stroke:#ffaa00; stroke-width:0.4" /><polyline points="148.57142857142858,126.77248677248679 151.95767195767198,147.72486772486775" style="fill:none; stroke:#aaff00; stroke-width:0.4" /><polyline points="35.13227513227513,190.6878306878307 50.158730158730165,205.71428571428572" style="fill:none; stroke:#ffaa00; stroke-width:0.4" /><polyline points="39.78835978835979,190.47619047619048 25.3968253968254,205.92592592592595" style="fill:none; stroke:#aaff00; stroke-width:0.4" /><circle cx="71.53439153439155" cy="99.8941798941799" r="1.0" style="fill:#444444; stroke-width:0" /><circle cx="61.37566137566138" cy="64.33862433862434" r="10.582010582010582" style="fill:#ff770022; stroke-width:0" /><circle cx="61.37566137566138" cy="64.33862433862434" r="1.0" style="fill:#ff7700; stroke-width:0" /></svg>