<?xml version="1.0" encoding="UTF-8" standalone="no"?><svg width="422.22222222222223" height="702.2222222222223" viewBox="-10 -10 160.74074074074076 254.0740740740741" xmlns="http://www.w3.org/2000/svg" xmlns:xlink="http://www.w3.org/1999/xlink"><polyline points="55.23809523809524,40.0 58.62433862433863,40.0 59.25925925925927,40.0 59.8941798941799,40.211640211640216 60.52910052910053,40.211640211640216 61.16402116402117,40.211640211640216 61.798941798941804,40.423280423280424 62.22222222222223,40.0 62.85714285714286,40.0 63.492063492063494,40.0 64.12698412698413,40.211640211640216 64.76190476190477,40.211640211640216 65.3968253968254,40.0 66.03174603174604,40.211640211640216 66.66666666666667,40.211640211640216 67.3015873015873,40.0 67.93650793650794,40.0 68.57142857142858,40.211640211640216 69.20634920634922,40.0 69.84126984126985,40.0 70.47619047619048,40.0 71.11111111111111,40.0 71.74603174603175,39.78835978835979 72.38095238095238,40.0 73.01587301587303,39.78835978835979 73.65079365079366,39.78835978835979 74.28571428571429,39.78835978835979 74.92063492063492,39.57671957671958 75.55555555555556,39.57671957671958 76.19047619047619,39.36507936507937 76.82539682539684,39.36507936507937 77.46031746031747,39.36507936507937 78.0952380952381,39.15343915343916 78.73015873015873,39.15343915343916 79.36507936507937,38.94179894179894 80.0,38.94179894179894 80.63492063492065,38.94179894179894 81.26984126984128,38.94179894179894 81.90476190476191,38.730158730158735 82.53968253968254,38.51851851851852 83.17460317460318,38.30687830687831 83.80952380952381,38.30687830687831 84.44444444444446,38.095238095238095 84.86772486772487,37.67195767195768 85.5026455026455,37.248677248677254 86.13756613756614,37.03703703703704 86.56084656084657,36.613756613756614 86.98412698412699,36.19047619047619 87.40740740740742,35.55555555555556 87.83068783068784,34.920634920634924 88.25396825396827,34.4973544973545 88.46560846560847,33.86243386243387 88.67724867724868,33.22751322751323 88.8888888888889,32.592592592592595 89.31216931216932,31.95767195767196 89.52380952380953,31.322751322751326 89.52380952380953,30.68783068783069 89.73544973544975,30.052910052910054 89.73544973544975,29.41798941798942 89.73544973544975,28.783068783068785 89.94708994708995,28.14814814814815 89.94708994708995,27.513227513227516 89.73544973544975,26.87830687830688 89.73544973544975,26.243386243386244 89.73544973544975,25.60846560846561 89.52380952380953,24.973544973544975 89.52380952380953,24.338624338624342 89.31216931216932,23.703703703703706 89.31216931216932,23.06878306878307 89.1005291005291,22.433862433862437 88.8888888888889,21.7989417989418 88.67724867724868,21.164021164021165 88.46560846560847,20.529100529100532 88.25396825396827,19.894179894179896 88.25396825396827,19.25925925925926 88.04232804232805,18.624338624338627 87.83068783068784,17.98941798941799 87.61904761904762,17.354497354497354 87.40740740740742,16.71957671957672 87.1957671957672,16.084656084656086 87.40740740740742,15.449735449735451 87.40740740740742,14.814814814814817 87.1957671957672,14.17989417989418 87.40740740740742,13.544973544973546 87.40740740740742,12.910052910052912 87.61904761904762,12.275132275132275 87.61904761904762,11.640211640211641 87.83068783068784,11.005291005291006 87.83068783068784,10.370370370370372 88.04232804232805,9.735449735449736 88.25396825396827,9.100529100529101 88.46560846560847,8.465608465608467 88.8888888888889,7.830687830687832 89.1005291005291,7.195767195767196 89.31216931216932,6.560846560846561 89.73544973544975,5.9259259259259265 90.15873015873017,5.291005291005291 90.58201058201058,4.656084656084657 91.00529100529101,4.2328042328042335 91.42857142857143,3.8095238095238098 91.85185185185186,3.174603174603175 92.4867724867725,2.7513227513227516 93.12169312169313,2.3280423280423284 93.75661375661376,2.1164021164021167 94.17989417989419,1.6931216931216932 94.60317460317461,1.26984126984127 95.23809523809524,1.0582010582010584 95.87301587301587,0.8465608465608466 96.50793650793652,0.634920634920635 97.14285714285715,0.4232804232804233 97.77777777777779,0.4232804232804233 98.41269841269842,0.21164021164021166 99.04761904761905,0.4232804232804233 99.68253968253968,0.4232804232804233 100.31746031746033,0.4232804232804233 100.95238095238096,0.8465608465608466 101.5873015873016,0.634920634920635 102.22222222222223,0.634920634920635 102.64550264550266,1.0582010582010584 103.28042328042329,1.0582010582010584 103.91534391534393,1.0582010582010584 104.55026455026456,1.26984126984127 105.18518518518519,1.6931216931216932 105.82010582010582,1.9047619047619049 106.45502645502647,1.9047619047619049 107.0899470899471,2.3280423280423284 107.72486772486774,2.3280423280423284 108.35978835978837,2.53968253968254 108.994708994709,2.7513227513227516 109.62962962962963,2.9629629629629632 110.05291005291006,3.3862433862433865 110.6878306878307,3.597883597883598 111.32275132275133,3.8095238095238098 111.95767195767196,4.2328042328042335 112.5925925925926,4.444444444444445 113.22751322751324,4.867724867724868 113.86243386243387,5.07936507936508 114.49735449735451,5.502645502645503 115.13227513227514,5.9259259259259265 115.76719576719577,6.34920634920635 116.4021164021164,6.772486772486773 117.03703703703705,7.195767195767196 117.46031746031747,7.6190476190476195 117.88359788359789,8.042328042328043 118.51851851851853,8.465608465608467 118.94179894179895,8.88888888888889 119.36507936507937,9.312169312169313 119.7883597883598,9.947089947089948 120.21164021164022,10.370370370370372 120.63492063492065,11.005291005291006 121.05820105820106,11.640211640211641 121.4814814814815,12.275132275132275 121.6931216931217,12.910052910052912 122.11640211640213,13.544973544973546 122.32804232804234,14.17989417989418 122.53968253968254,14.814814814814817 122.53968253968254,15.449735449735451 122.75132275132276,16.084656084656086 122.75132275132276,16.71957671957672 122.75132275132276,17.354497354497354 122.53968253968254,17.98941798941799 122.53968253968254,18.624338624338627 122.32804232804234,19.25925925925926 122.11640211640213,19.894179894179896 121.90476190476191,20.529100529100532 121.6931216931217,21.164021164021165 121.4814814814815,21.7989417989418 121.26984126984128,22.433862433862437 120.84656084656086,23.06878306878307 120.42328042328043,23.703703703703706 120.21164021164022,24.338624338624342 120.00000000000001,24.973544973544975 119.57671957671958,25.3968253968254 119.15343915343917,26.031746031746035 118.73015873015873,26.666666666666668 118.30687830687832,27.089947089947092 117.88359788359789,27.724867724867728 117.46031746031747,28.14814814814815 117.03703703703705,28.571428571428573 116.61375661375662,28.994708994708997 116.1904761904762,29.41798941798942 115.55555555555557,29.841269841269842 114.92063492063492,30.264550264550266 114.28571428571429,30.68783068783069 113.65079365079366,31.111111111111114 113.01587301587303,31.53439153439154 112.3809523809524,31.746031746031747 111.95767195767196,32.16931216931217 111.53439153439155,32.592592592592595 110.89947089947091,33.01587301587302 110.26455026455027,33.43915343915344 109.62962962962963,33.86243386243387 109.20634920634922,34.28571428571429 108.78306878306879,34.70899470899471 108.35978835978837,35.13227513227513 107.93650793650795,35.55555555555556 107.51322751322752,36.19047619047619 107.0899470899471,36.613756613756614 106.66666666666667,37.248677248677254 106.24338624338625,37.67195767195768 105.82010582010582,38.30687830687831 105.60846560846562,38.94179894179894 105.3968253968254,39.57671957671958 105.18518518518519,40.211640211640216 105.3968253968254,40.84656084656085 105.18518518518519,41.48148148148149 105.18518518518519,42.11640211640212 105.3968253968254,42.75132275132275 105.60846560846562,43.386243386243386 105.82010582010582,44.021164021164026 106.24338624338625,44.65608465608466 106.66666666666667,45.07936507936508 107.0899470899471,45.714285714285715 107.51322751322752,46.13756613756614 107.93650793650795,46.560846560846564 108.57142857142858,46.98412698412699 109.20634920634922,47.40740740740741 109.84126984126985,47.61904761904762 110.47619047619048,48.042328042328045 111.11111111111111,48.25396825396826 111.74603174603176,48.25396825396826 112.3809523809524,48.46560846560847 113.01587301587303,48.46560846560847 113.65079365079366,48.677248677248684 114.28571428571429,48.88888888888889 114.92063492063492,48.88888888888889 115.55555555555557,49.1005291005291 116.1904761904762,49.31216931216932 116.82539682539684,49.523809523809526 117.46031746031747,49.73544973544974 118.0952380952381,49.73544973544974 118.73015873015873,49.73544973544974 119.36507936507937,49.94708994708995 120.00000000000001,50.158730158730165 120.63492063492065,50.370370370370374 121.26984126984128,50.58201058201058 121.90476190476191,50.7936507936508 122.53968253968254,51.21693121693122 123.17460317460318,51.21693121693122 123.59788359788361,51.640211640211646 124.23280423280424,51.851851851851855 124.65608465608466,52.27513227513228 125.2910052910053,52.48677248677249 125.92592592592594,52.48677248677249 126.34920634920636,52.91005291005291 126.98412698412699,53.333333333333336 127.61904761904763,53.54497354497355 128.25396825396825,53.968253968253975 128.88888888888889,54.179894179894184 129.52380952380955,54.179894179894184 129.94708994708995,54.60317460317461 130.58201058201058,55.02645502645503 131.21693121693121,55.23809523809524 131.64021164021165,55.661375661375665 132.27513227513228,55.449735449735456 132.6984126984127,55.87301587301588 133.33333333333334,56.2962962962963 133.96825396825398,56.50793650793651 134.6031746031746,56.93121693121694 135.23809523809524,57.142857142857146 135.66137566137567,57.56613756613757 136.2962962962963,57.777777777777786 136.71957671957674,58.2010582010582 137.35449735449737,58.62433862433863 140.52910052910053,60.31746031746032" style="fill:none; stroke:#cc0000; stroke-width:1.0"  /><polyline points="140.52910052910053,60.31746031746032 139.6825396825397,63.91534391534392 139.47089947089947,64.55026455026456 139.25925925925927,65.18518518518519 139.04761904761907,65.82010582010582 138.83597883597884,66.45502645502646 138.83597883597884,67.08994708994709 138.62433862433863,67.72486772486774 138.41269841269843,68.35978835978837 138.2010582010582,68.994708994709 137.989417989418,69.62962962962963 137.989417989418,70.26455026455027 137.7777777777778,70.8994708994709 137.56613756613757,71.53439153439155 137.56613756613757,72.16931216931218 137.35449735449737,72.80423280423281 137.14285714285717,73.43915343915344 137.35449735449737,74.07407407407408 137.14285714285717,74.70899470899471 137.14285714285717,75.34391534391536 136.93121693121694,75.97883597883599 136.93121693121694,76.61375661375662 136.71957671957674,77.24867724867725 136.71957671957674,77.88359788359789 136.5079365079365,78.51851851851852 136.5079365079365,79.15343915343917 136.2962962962963,79.7883597883598 136.2962962962963,80.42328042328043 136.2962962962963,81.05820105820106 136.0846560846561,81.6931216931217 136.0846560846561,82.32804232804233 135.87301587301587,82.96296296296298 135.87301587301587,83.59788359788361 135.87301587301587,84.23280423280424 135.87301587301587,84.86772486772487 135.66137566137567,85.5026455026455 135.66137566137567,86.13756613756614 135.66137566137567,86.77248677248677 135.66137566137567,87.40740740740742 135.66137566137567,88.04232804232805 135.44973544973547,88.67724867724868 135.44973544973547,89.31216931216932 135.44973544973547,89.94708994708995 135.44973544973547,90.58201058201058 135.44973544973547,91.21693121693123 135.44973544973547,91.85185185185186 135.44973544973547,92.4867724867725 135.44973544973547,93.12169312169313 135.23809523809524,93.75661375661376 135.23809523809524,94.39153439153439 135.23809523809524,95.02645502645504 135.23809523809524,95.66137566137567 135.44973544973547,96.2962962962963 135.44973544973547,96.93121693121694 135.44973544973547,97.56613756613757 135.44973544973547,98.2010582010582 135.44973544973547,98.83597883597885 135.44973544973547,99.47089947089948 135.44973544973547,100.10582010582011 135.44973544973547,100.74074074074075 135.44973544973547,101.37566137566138 135.44973544973547,102.01058201058201 135.66137566137567,102.64550264550266 135.66137566137567,103.28042328042329 135.66137566137567,103.91534391534393 135.66137566137567,104.55026455026456 135.66137566137567,105.18518518518519 135.66137566137567,105.82010582010582 135.66137566137567,106.45502645502647 135.87301587301587,107.0899470899471 135.87301587301587,107.72486772486774 135.87301587301587,108.35978835978837 136.2962962962963,108.994708994709 136.2962962962963,109.62962962962963 136.2962962962963,110.26455026455027 136.2962962962963,110.89947089947091 136.2962962962963,111.53439153439155 136.5079365079365,112.16931216931218 136.5079365079365,112.80423280423281 136.71957671957674,113.43915343915344 136.71957671957674,114.07407407407408 136.71957671957674,114.70899470899472 136.93121693121694,115.34391534391536 136.93121693121694,115.97883597883599 136.93121693121694,116.61375661375662 137.14285714285717,117.24867724867725 137.14285714285717,117.88359788359789 137.14285714285717,118.51851851851853 137.35449735449737,119.15343915343917 137.35449735449737,119.7883597883598 137.56613756613757,120.42328042328043 137.56613756613757,121.05820105820106 137.7777777777778,121.6931216931217 137.7777777777778,122.32804232804234 137.989417989418,122.96296296296298 137.989417989418,123.59788359788361 138.2010582010582,124.23280423280424 138.2010582010582,124.86772486772487 138.41269841269843,125.5026455026455 138.62433862433863,126.13756613756615 138.62433862433863,126.77248677248679 138.62433862433863,127.40740740740742 138.83597883597884,128.04232804232805 139.04761904761907,128.67724867724868 139.04761904761907,129.31216931216932 139.25925925925927,129.94708994708995 139.25925925925927,130.58201058201058 139.47089947089947,131.21693121693121 139.6825396825397,131.85185185185185 139.6825396825397,132.4867724867725 139.6825396825397,133.12169312169314 139.8941798941799,133.75661375661377 140.10582010582013,134.3915343915344 140.10582010582013,135.02645502645504 140.10582010582013,135.66137566137567 140.10582010582013,136.2962962962963 140.10582010582013,136.93121693121694 139.8941798941799,137.56613756613757 139.6825396825397,138.2010582010582 139.6825396825397,138.83597883597884 139.25925925925927,139.25925925925927 139.04761904761907,139.8941798941799 138.83597883597884,140.52910052910053 138.41269841269843,141.16402116402116 137.989417989418,141.5873015873016 137.35449735449737,142.01058201058203 136.71957671957674,142.22222222222223 136.0846560846561,142.43386243386246 135.44973544973547,142.43386243386246 134.81481481481484,142.43386243386246 134.17989417989418,142.22222222222223 133.54497354497354,142.22222222222223 132.9100529100529,142.01058201058203 132.27513227513228,142.01058201058203 131.64021164021165,141.7989417989418 131.005291005291,141.7989417989418 130.37037037037038,141.3756613756614 129.73544973544975,141.16402116402116 129.10052910052912,140.95238095238096 128.46560846560848,140.74074074074076 127.83068783068784,140.52910052910053 127.1957671957672,140.10582010582013 126.56084656084657,139.8941798941799 125.92592592592594,139.6825396825397 125.2910052910053,139.25925925925927 124.65608465608466,139.04761904761907 124.02116402116403,138.62433862433863 123.3862433862434,138.41269841269843 122.75132275132276,138.2010582010582 122.11640211640213,137.7777777777778 121.4814814814815,137.56613756613757 120.84656084656086,137.35449735449737 120.21164021164022,137.14285714285717 119.57671957671958,136.93121693121694 118.94179894179895,136.71957671957674 118.30687830687832,136.5079365079365 117.67195767195768,136.2962962962963 117.03703703703705,136.2962962962963 116.4021164021164,136.0846560846561 115.76719576719577,136.0846560846561 115.13227513227514,136.2962962962963 114.49735449735451,136.2962962962963 113.86243386243387,136.5079365079365 113.22751322751324,136.71957671957674 112.5925925925926,136.93121693121694 111.95767195767196,137.14285714285717 111.32275132275133,137.56613756613757 110.6878306878307,137.989417989418 110.26455026455027,138.41269841269843 109.62962962962963,138.83597883597884 109.20634920634922,139.25925925925927 108.78306878306879,139.6825396825397 108.35978835978837,140.31746031746033 107.93650793650795,140.74074074074076 107.51322751322752,141.16402116402116 107.0899470899471,141.7989417989418 106.66666666666667,142.43386243386246 106.45502645502647,143.0687830687831 106.24338624338625,143.70370370370372 106.03174603174604,144.33862433862436 105.60846560846562,144.973544973545 105.18518518518519,145.60846560846562 104.97354497354497,146.24338624338625 104.55026455026456,146.8783068783069 104.33862433862434,147.51322751322752 104.12698412698414,148.14814814814815 103.70370370370371,148.78306878306879 103.4920634920635,149.41798941798942 103.28042328042329,150.05291005291005 103.06878306878308,150.6878306878307 102.85714285714286,151.32275132275134 102.43386243386244,151.95767195767198 102.22222222222223,152.5925925925926 102.01058201058201,153.22751322751324 101.79894179894181,153.86243386243387 101.79894179894181,154.4973544973545 101.5873015873016,155.13227513227514 101.37566137566138,155.76719576719577 101.37566137566138,156.4021164021164 101.16402116402116,157.03703703703704 100.95238095238096,157.67195767195767 100.95238095238096,158.30687830687833 100.74074074074075,158.94179894179896 100.74074074074075,159.5767195767196 100.52910052910053,160.21164021164023 100.52910052910053,160.84656084656086 100.31746031746033,161.4814814814815 100.31746031746033,162.11640211640213 100.31746031746033,162.75132275132276 100.31746031746033,163.3862433862434 100.31746031746033,164.02116402116403 100.31746031746033,164.65608465608466 100.52910052910053,165.2910052910053 100.52910052910053,165.92592592592595 100.95238095238096,166.56084656084658 101.16402116402116,167.19576719576722 101.37566137566138,167.83068783068785 101.79894179894181,168.46560846560848 102.22222222222223,168.8888888888889 102.64550264550266,169.52380952380955 103.06878306878308,169.94708994708995 103.4920634920635,170.37037037037038 103.91534391534393,170.7936507936508 104.33862433862434,171.21693121693124 104.97354497354497,171.64021164021165 105.3968253968254,172.06349206349208 106.03174603174604,172.4867724867725 106.66666666666667,172.9100529100529 107.3015873015873,173.12169312169314 107.93650793650795,173.54497354497354 108.57142857142858,173.54497354497354 109.20634920634922,173.75661375661377 109.84126984126985,173.96825396825398 110.47619047619048,174.1798941798942 111.11111111111111,174.1798941798942 111.74603174603176,174.1798941798942 112.3809523809524,174.1798941798942 113.01587301587303,174.1798941798942 113.65079365079366,174.1798941798942 114.28571428571429,173.96825396825398 114.92063492063492,173.96825396825398 115.55555555555557,173.96825396825398 116.1904761904762,173.75661375661377 116.82539682539684,173.33333333333334 117.46031746031747,173.33333333333334 118.0952380952381,173.12169312169314 118.73015873015873,172.9100529100529 119.36507936507937,172.9100529100529 120.00000000000001,172.6984126984127 120.63492063492065,172.27513227513228 121.26984126984128,172.06349206349208 121.90476190476191,171.85185185185188 122.53968253968254,171.64021164021165 123.17460317460318,171.21693121693124 123.80952380952382,171.21693121693124 124.44444444444446,171.005291005291 125.07936507936509,170.7936507936508 125.71428571428572,170.58201058201058 126.34920634920636,170.37037037037038 126.98412698412699,170.15873015873018 127.61904761904763,169.94708994708995 128.25396825396825,169.94708994708995 128.88888888888889,169.73544973544975 129.52380952380955,169.73544973544975 130.15873015873018,169.73544973544975 130.7936507936508,169.73544973544975 131.42857142857144,169.73544973544975 132.06349206349208,169.73544973544975 132.6984126984127,169.52380952380955 133.33333333333334,169.73544973544975 133.96825396825398,170.15873015873018 134.6031746031746,170.37037037037038 135.02645502645504,170.7936507936508 135.44973544973547,171.21693121693124 135.87301587301587,171.85185185185188 136.2962962962963,172.4867724867725 136.5079365079365,173.12169312169314 136.71957671957674,173.75661375661377 136.93121693121694,174.3915343915344 137.14285714285717,175.02645502645504 137.35449735449737,175.66137566137567 137.56613756613757,176.2962962962963 137.56613756613757,176.93121693121694 137.7777777777778,177.56613756613757 137.989417989418,178.2010582010582 138.2010582010582,178.83597883597884 138.2010582010582,179.4708994708995 138.41269841269843,180.10582010582013 138.41269841269843,180.74074074074076 138.41269841269843,181.3756613756614 138.41269841269843,182.01058201058203 138.41269841269843,182.64550264550266 138.41269841269843,183.2804232804233 138.2010582010582,183.91534391534393 138.2010582010582,184.55026455026456 138.2010582010582,185.1851851851852 137.989417989418,185.82010582010582 137.989417989418,186.45502645502646 137.7777777777778,187.08994708994712 137.7777777777778,187.72486772486775 137.56613756613757,188.35978835978838 137.56613756613757,188.99470899470901 137.35449735449737,189.62962962962965 137.14285714285717,190.26455026455028 136.93121693121694,190.8994708994709 136.71957671957674,191.53439153439155 136.71957671957674,192.16931216931218 136.5079365079365,192.8042328042328 136.2962962962963,193.43915343915344 136.0846560846561,194.07407407407408 135.87301587301587,194.70899470899474 135.66137566137567,195.34391534391537 135.66137566137567,195.978835978836 135.44973544973547,196.61375661375664 135.23809523809524,197.24867724867727 135.02645502645504,197.8835978835979 134.81481481481484,198.51851851851853 134.81481481481484,199.15343915343917 134.6031746031746,199.7883597883598 134.3915343915344,200.42328042328043 134.17989417989418,201.05820105820106 134.17989417989418,201.6931216931217 133.96825396825398,202.32804232804233 133.75661375661377,202.962962962963 133.54497354497354,203.59788359788362 133.33333333333334,204.23280423280426 133.33333333333334,204.8677248677249 133.12169312169314,205.50264550264552 132.9100529100529,206.13756613756615 132.6984126984127,206.7724867724868 132.4867724867725,207.40740740740742 132.27513227513228,208.04232804232805 132.27513227513228,208.67724867724868 132.06349206349208,209.31216931216932 131.85185185185185,209.94708994708995 131.64021164021165,210.5820105820106 131.42857142857144,211.21693121693124 131.21693121693121,211.85185185185188 131.005291005291,212.4867724867725 130.7936507936508,213.12169312169314 130.7936507936508,213.75661375661377 130.58201058201058,214.3915343915344 130.37037037037038,215.02645502645504 130.15873015873018,215.66137566137567 129.94708994708995,216.2962962962963 129.73544973544975,216.93121693121694 129.73544973544975,217.56613756613757 129.52380952380955,218.20105820105823 129.31216931216932,218.83597883597886 129.10052910052912,219.4708994708995 128.88888888888889,220.10582010582013 128.46560846560848,220.74074074074076 128.46560846560848,221.3756613756614 128.04232804232805,222.01058201058203 128.04232804232805,222.64550264550266 127.83068783068784,223.2804232804233 127.61904761904763,223.91534391534393 127.40740740740742,224.55026455026456 127.1957671957672,225.1851851851852 126.98412698412699,225.82010582010582 126.77248677248679,226.45502645502648 126.56084656084657,227.08994708994712 126.34920634920636,227.72486772486775 126.13756613756615,228.35978835978838 125.92592592592594,228.99470899470901 125.71428571428572,229.62962962962965 125.2910052910053,230.26455026455028 124.02116402116403,233.86243386243387" style="fill:none; stroke:#999900; stroke-width:1.0"  /><polyline points="124.02116402116403,233.86243386243387 121.05820105820106,233.22751322751324 120.42328042328043,233.01587301587304 119.7883597883598,233.01587301587304 119.15343915343917,232.8042328042328 118.51851851851853,232.5925925925926 117.88359788359789,232.5925925925926 117.24867724867725,232.3809523809524 116.61375661375662,232.16931216931218 115.97883597883599,231.95767195767198 115.34391534391536,231.95767195767198 114.70899470899472,231.74603174603178 114.07407407407408,231.74603174603178 113.43915343915344,231.53439153439155 112.80423280423281,231.53439153439155 112.16931216931218,231.32275132275134 111.53439153439155,231.11111111111114 110.89947089947091,231.11111111111114 110.26455026455027,230.8994708994709 109.62962962962963,230.6878306878307 108.994708994709,230.6878306878307 108.35978835978837,230.47619047619048 107.72486772486774,230.26455026455028 107.0899470899471,230.26455026455028 106.45502645502647,230.05291005291008 105.82010582010582,229.84126984126985 105.18518518518519,229.84126984126985 104.55026455026456,229.62962962962965 103.91534391534393,229.62962962962965 103.28042328042329,229.41798941798945 102.64550264550266,229.20634920634922 102.01058201058201,229.20634920634922 101.37566137566138,228.99470899470901 100.74074074074075,228.99470899470901 100.10582010582011,228.7830687830688 99.47089947089948,228.57142857142858 98.83597883597885,228.57142857142858 98.2010582010582,228.35978835978838 97.56613756613757,228.14814814814815 96.93121693121694,228.35978835978838 96.2962962962963,228.14814814814815 95.66137566137567,227.93650793650795 95.02645502645504,227.93650793650795 94.39153439153439,227.72486772486775 93.75661375661376,227.51322751322752 93.12169312169313,227.30158730158732 92.4867724867725,227.30158730158732 91.85185185185186,227.30158730158732 91.21693121693123,227.08994708994712 90.58201058201058,226.8783068783069 89.94708994708995,226.8783068783069 89.31216931216932,226.66666666666669 88.67724867724868,226.45502645502648 88.04232804232805,226.45502645502648 87.40740740740742,226.24338624338625 86.77248677248677,226.03174603174605 86.13756613756614,226.03174603174605 85.5026455026455,225.82010582010582 84.86772486772487,225.60846560846562 84.23280423280424,225.60846560846562 83.59788359788361,225.39682539682542 82.96296296296298,225.39682539682542 82.32804232804233,225.1851851851852 81.6931216931217,225.1851851851852 81.05820105820106,224.973544973545 80.42328042328043,224.7619047619048 79.7883597883598,224.7619047619048 79.15343915343917,224.55026455026456 78.51851851851852,224.33862433862436 77.88359788359789,224.33862433862436 77.24867724867725,224.12698412698415 76.61375661375662,223.91534391534393 75.97883597883599,223.91534391534393 75.34391534391536,223.70370370370372 74.70899470899471,223.70370370370372 74.07407407407408,223.49206349206352 73.43915343915344,223.2804232804233 72.80423280423281,223.2804232804233 72.16931216931218,223.0687830687831 71.53439153439155,223.0687830687831 70.8994708994709,222.85714285714286 70.26455026455027,222.64550264550266 69.62962962962963,222.64550264550266 68.994708994709,222.43386243386246 68.35978835978837,222.22222222222223 67.72486772486774,222.22222222222223 67.08994708994709,222.01058201058203 66.45502645502646,221.79894179894183 65.82010582010582,221.79894179894183 65.18518518518519,221.5873015873016 64.55026455026456,221.3756613756614 63.91534391534392,221.3756613756614 63.280423280423285,221.1640211640212 62.64550264550265,220.95238095238096 62.01058201058201,221.1640211640212 61.37566137566138,220.95238095238096 60.74074074074075,220.74074074074076 60.10582010582011,220.74074074074076 59.470899470899475,220.52910052910053 58.83597883597884,220.52910052910053 58.2010582010582,220.31746031746033 57.56613756613757,220.10582010582013 56.93121693121694,220.10582010582013 56.2962962962963,219.8941798941799 55.661375661375665,219.6825396825397 55.02645502645503,219.6825396825397 54.39153439153439,219.4708994708995 53.75661375661376,219.4708994708995 53.12169312169313,219.25925925925927 52.48677248677249,219.04761904761907 51.851851851851855,219.04761904761907 51.21693121693122,218.83597883597886 50.58201058201058,218.62433862433863 49.94708994708995,218.62433862433863 49.31216931216932,218.41269841269843 48.677248677248684,218.41269841269843 48.042328042328045,218.20105820105823 47.40740740740741,218.20105820105823 46.77248677248678,217.989417989418 46.13756613756614,217.7777777777778 45.50264550264551,217.7777777777778 44.867724867724874,217.56613756613757 44.232804232804234,217.56613756613757 43.5978835978836,217.35449735449737 42.96296296296297,217.35449735449737 42.32804232804233,217.14285714285717 41.6931216931217,216.93121693121694 41.058201058201064,216.93121693121694 40.423280423280424,216.93121693121694 39.78835978835979,216.71957671957674 39.15343915343916,216.71957671957674 38.51851851851852,216.50793650793653 37.883597883597886,216.2962962962963 37.248677248677254,216.2962962962963 36.613756613756614,216.0846560846561 35.97883597883598,216.0846560846561 35.34391534391535,215.8730158730159 34.70899470899471,215.8730158730159 34.074074074074076,215.66137566137567 33.43915343915344,215.44973544973547 32.804232804232804,215.23809523809524 32.16931216931217,215.23809523809524 31.53439153439154,215.02645502645504 30.899470899470902,215.02645502645504 30.264550264550266,214.6031746031746 29.629629629629633,214.6031746031746 28.994708994708997,214.6031746031746 28.35978835978836,214.6031746031746 27.724867724867728,214.3915343915344 27.089947089947092,214.3915343915344 26.455026455026456,214.1798941798942 25.820105820105823,213.96825396825398 25.185185185185187,213.75661375661377 24.55026455026455,213.75661375661377 23.915343915343918,213.54497354497357 23.280423280423282,213.33333333333334 22.645502645502646,213.12169312169314 22.010582010582013,213.12169312169314 21.375661375661377,212.91005291005294 20.740740740740744,212.91005291005294 20.105820105820108,212.6984126984127 19.47089947089947,212.4867724867725 18.83597883597884,212.4867724867725 18.201058201058203,212.4867724867725 17.566137566137566,212.27513227513228 16.931216931216934,212.06349206349208 16.296296296296298,212.06349206349208 15.661375661375663,211.85185185185188 15.026455026455027,211.85185185185188 14.391534391534393,211.64021164021165 13.756613756613758,211.42857142857144 13.121693121693122,211.21693121693124 12.486772486772487,211.005291005291 11.851851851851853,211.005291005291 11.216931216931219,210.7936507936508 10.582010582010582,210.5820105820106 9.947089947089948,210.37037037037038 9.312169312169313,210.15873015873018 8.677248677248677,209.94708994708995 8.042328042328043,209.94708994708995 7.407407407407408,209.73544973544975 6.772486772486773,209.52380952380955 6.137566137566138,209.52380952380955 5.502645502645503,209.31216931216932 4.867724867724868,209.10052910052912 4.2328042328042335,209.10052910052912 3.597883597883598,209.10052910052912 0.21164021164021166,208.25396825396828" style="fill:none; stroke:#00aa99; stroke-width:3.0" stroke-dasharray="6,3" /><polyline points="0.21164021164021166,208.25396825396828 0.4232804232804233,205.0793650793651 0.4232804232804233,204.44444444444446 0.4232804232804233,203.80952380952382 0.634920634920635,203.1746031746032 0.634920634920635,202.53968253968256 0.634920634920635,201.90476190476193 0.8465608465608466,201.2698412698413 0.8465608465608466,200.63492063492066 0.8465608465608466,200.00000000000003 0.8465608465608466,199.36507936507937 0.8465608465608466,198.73015873015873 1.0582010582010584,198.0952380952381 1.0582010582010584,197.46031746031747 1.0582010582010584,196.82539682539684 1.0582010582010584,196.1904761904762 1.26984126984127,195.55555555555557 1.26984126984127,194.92063492063494 1.26984126984127,194.2857142857143 1.26984126984127,193.65079365079367 1.26984126984127,193.01587301587304 1.26984126984127,192.3809523809524 1.4814814814814816,191.74603174603175 1.4814814814814816,191.11111111111111 1.4814814814814816,190.47619047619048 1.6931216931216932,189.84126984126985 1.6931216931216932,189.20634920634922 1.6931216931216932,188.57142857142858 1.6931216931216932,187.93650793650795 1.6931216931216932,187.30158730158732 1.9047619047619049,186.66666666666669 1.9047619047619049,186.03174603174605 1.9047619047619049,185.39682539682542 2.1164021164021167,184.7619047619048 2.1164021164021167,184.12698412698415 2.1164021164021167,183.4920634920635 2.1164021164021167,182.85714285714286 2.3280423280423284,182.22222222222223 2.3280423280423284,181.5873015873016 2.3280423280423284,180.95238095238096 2.3280423280423284,180.31746031746033 2.53968253968254,179.6825396825397 2.53968253968254,179.04761904761907 2.3280423280423284,178.41269841269843 2.53968253968254,177.7777777777778 2.53968253968254,177.14285714285717 2.53968253968254,176.50793650793653 2.7513227513227516,175.87301587301587 2.7513227513227516,175.23809523809524 2.7513227513227516,174.6031746031746 2.9629629629629632,173.96825396825398 2.9629629629629632,173.33333333333334 2.9629629629629632,172.6984126984127 3.174603174603175,172.06349206349208 3.174603174603175,171.42857142857144 3.174603174603175,170.7936507936508 3.3862433862433865,170.15873015873018 3.3862433862433865,169.52380952380955 3.597883597883598,168.8888888888889 3.597883597883598,168.25396825396825 3.597883597883598,167.61904761904762 3.8095238095238098,166.984126984127 3.8095238095238098,166.34920634920636 3.8095238095238098,165.71428571428572 4.021164021164021,165.0793650793651 4.021164021164021,164.44444444444446 4.2328042328042335,163.80952380952382 4.2328042328042335,163.1746031746032 4.2328042328042335,162.53968253968256 4.444444444444445,161.90476190476193 4.444444444444445,161.2698412698413 4.656084656084657,160.63492063492066 4.656084656084657,160.0 4.867724867724868,159.36507936507937 4.867724867724868,158.73015873015873 4.867724867724868,158.0952380952381 5.07936507936508,157.46031746031747 5.07936507936508,156.82539682539684 5.291005291005291,156.1904761904762 5.291005291005291,155.55555555555557 5.502645502645503,154.92063492063494 5.502645502645503,154.2857142857143 5.714285714285714,153.65079365079367 5.9259259259259265,153.01587301587304 5.9259259259259265,152.38095238095238 6.137566137566138,151.74603174603175 6.34920634920635,151.11111111111111 6.560846560846561,150.47619047619048 6.772486772486773,149.84126984126985 6.984126984126985,149.20634920634922 7.195767195767196,148.57142857142858 7.407407407407408,147.93650793650795 7.830687830687832,147.30158730158732 8.042328042328043,146.66666666666669 8.465608465608467,146.24338624338625 8.677248677248677,145.60846560846562 9.100529100529101,144.973544973545 9.523809523809524,144.55026455026456 9.947089947089948,143.91534391534393 10.15873015873016,143.2804232804233 10.582010582010582,142.85714285714286 11.005291005291006,142.22222222222223 11.428571428571429,141.7989417989418 11.851851851851853,141.3756613756614 12.275132275132275,140.95238095238096 12.6984126984127,140.52910052910053 13.121693121693122,140.10582010582013 13.756613756613758,139.6825396825397 14.17989417989418,139.25925925925927 14.814814814814817,139.04761904761907 15.449735449735451,138.83597883597884 16.084656084656086,138.62433862433863 16.71957671957672,138.41269841269843 17.354497354497354,138.62433862433863 17.98941798941799,138.62433862433863 18.624338624338627,138.62433862433863 19.25925925925926,138.83597883597884 19.894179894179896,139.25925925925927 20.529100529100532,139.47089947089947 21.164021164021165,139.8941798941799 21.7989417989418,140.31746031746033 22.433862433862437,140.74074074074076 23.06878306878307,141.16402116402116 23.703703703703706,141.5873015873016 24.12698412698413,142.01058201058203 24.761904761904763,142.43386243386246 25.185185185185187,142.85714285714286 25.60846560846561,143.2804232804233 26.031746031746035,143.70370370370372 26.455026455026456,144.12698412698413 26.87830687830688,144.55026455026456 27.513227513227516,144.973544973545 27.93650793650794,145.39682539682542 28.35978835978836,145.82010582010582 28.783068783068785,146.24338624338625 29.20634920634921,146.66666666666669 29.629629629629633,147.0899470899471 30.264550264550266,147.51322751322752 30.68783068783069,147.93650793650795 31.111111111111114,148.35978835978838 31.746031746031747,148.78306878306879 32.16931216931217,149.20634920634922 32.804232804232804,149.62962962962965 33.43915343915344,149.84126984126985 34.074074074074076,150.05291005291005 34.70899470899471,150.47619047619048 35.34391534391535,150.6878306878307 35.97883597883598,150.8994708994709 36.613756613756614,150.8994708994709 37.248677248677254,151.11111111111111 37.883597883597886,151.11111111111111 38.51851851851852,151.11111111111111 39.15343915343916,151.11111111111111 39.78835978835979,151.11111111111111 40.423280423280424,150.8994708994709 41.058201058201064,150.8994708994709 41.6931216931217,150.6878306878307 42.32804232804233,150.47619047619048 42.96296296296297,150.26455026455028 43.5978835978836,150.05291005291005 44.232804232804234,149.84126984126985 44.867724867724874,149.41798941798942 45.50264550264551,149.20634920634922 46.13756613756614,148.78306878306879 46.560846560846564,148.35978835978838 47.195767195767196,147.93650793650795 47.830687830687836,147.51322751322752 48.25396825396826,147.0899470899471 48.88888888888889,146.66666666666669 49.31216931216932,146.24338624338625 49.73544973544974,145.82010582010582 50.158730158730165,145.39682539682542 50.58201058201058,144.973544973545 51.00529100529101,144.33862433862436 51.42857142857143,143.70370370370372 51.851851851851855,143.0687830687831 52.06349206349207,142.43386243386246 52.48677248677249,142.01058201058203 52.91005291005291,141.3756613756614 53.12169312169313,140.74074074074076 53.54497354497355,140.10582010582013 53.75661375661376,139.47089947089947 54.179894179894184,138.83597883597884 54.39153439153439,138.2010582010582 54.60317460317461,137.56613756613757 54.81481481481482,136.93121693121694 55.02645502645503,136.2962962962963 55.23809523809524,135.66137566137567 55.449735449735456,135.02645502645504 55.449735449735456,134.3915343915344 55.449735449735456,133.75661375661377 55.661375661375665,133.12169312169314 55.87301587301588,132.4867724867725 55.87301587301588,131.85185185185185 55.87301587301588,131.21693121693121 55.87301587301588,130.58201058201058 56.08465608465609,129.94708994708995 56.08465608465609,129.31216931216932 56.08465608465609,128.67724867724868 56.08465608465609,128.04232804232805 55.87301587301588,127.40740740740742 55.87301587301588,126.77248677248679 55.87301587301588,126.13756613756615 55.661375661375665,125.5026455026455 55.661375661375665,124.86772486772487 55.449735449735456,124.23280423280424 55.449735449735456,123.59788359788361 55.23809523809524,122.96296296296298 55.02645502645503,122.32804232804234 54.81481481481482,121.6931216931217 54.81481481481482,121.05820105820106 54.39153439153439,120.42328042328043 54.179894179894184,119.7883597883598 53.968253968253975,119.15343915343917 53.54497354497355,118.51851851851853 53.333333333333336,117.88359788359789 52.91005291005291,117.24867724867725 52.48677248677249,116.82539682539684 52.06349206349207,116.4021164021164 51.640211640211646,115.97883597883599 51.21693121693122,115.55555555555557 50.58201058201058,115.13227513227514 49.94708994708995,114.70899470899472 49.31216931216932,114.49735449735451 48.677248677248684,114.28571428571429 48.042328042328045,114.07407407407408 47.40740740740741,113.86243386243387 46.77248677248678,113.65079365079366 46.13756613756614,113.65079365079366 45.50264550264551,113.43915343915344 44.867724867724874,113.43915343915344 44.232804232804234,113.43915343915344 43.5978835978836,113.43915343915344 42.96296296296297,113.43915343915344 42.32804232804233,113.43915343915344 41.6931216931217,113.43915343915344 41.058201058201064,113.43915343915344 40.423280423280424,113.65079365079366 39.78835978835979,113.65079365079366 39.15343915343916,113.65079365079366 38.51851851851852,113.65079365079366 37.883597883597886,113.65079365079366 37.248677248677254,113.65079365079366 36.613756613756614,113.86243386243387 35.97883597883598,113.86243386243387 35.34391534391535,113.86243386243387 34.70899470899471,113.86243386243387 34.074074074074076,113.86243386243387 33.43915343915344,113.86243386243387 32.804232804232804,113.86243386243387 32.16931216931217,113.86243386243387 31.53439153439154,113.86243386243387 30.899470899470902,113.86243386243387 30.264550264550266,113.86243386243387 29.629629629629633,113.86243386243387 28.994708994708997,113.86243386243387 28.35978835978836,113.86243386243387 27.724867724867728,113.65079365079366 27.089947089947092,113.65079365079366 26.455026455026456,113.43915343915344 25.820105820105823,113.22751322751324 25.185185185185187,112.80423280423281 24.55026455026455,112.3809523809524 24.12698412698413,111.95767195767196 23.703703703703706,111.53439153439155 23.492063492063494,110.89947089947091 23.280423280423282,110.26455026455027 23.06878306878307,109.62962962962963 22.857142857142858,108.994708994709 22.645502645502646,108.35978835978837 22.645502645502646,107.72486772486774 22.857142857142858,107.0899470899471 23.06878306878307,106.45502645502647 23.06878306878307,105.82010582010582 23.492063492063494,105.18518518518519 23.703703703703706,104.55026455026456 23.915343915343918,103.91534391534393 24.338624338624342,103.4920634920635 24.55026455026455,102.85714285714286 24.973544973544975,102.22222222222223 25.3968253968254,101.5873015873016 25.60846560846561,100.95238095238096 26.031746031746035,100.52910052910053 26.455026455026456,99.8941798941799 26.87830687830688,99.47089947089948 27.301587301587304,98.83597883597885 27.724867724867728,98.2010582010582 28.14814814814815,97.77777777777779 28.571428571428573,97.14285714285715 28.994708994708997,96.71957671957672 29.41798941798942,96.2962962962963 29.841269841269842,95.87301587301587 30.264550264550266,95.44973544973546 30.68783068783069,94.81481481481482 31.111111111111114,94.39153439153439 31.53439153439154,93.96825396825398 31.95767195767196,93.54497354497356 32.38095238095239,93.12169312169313 32.804232804232804,92.4867724867725 33.22751322751323,92.06349206349208 33.65079365079365,91.64021164021165 34.074074074074076,91.21693121693123 34.4973544973545,90.7936507936508 34.920634920634924,90.37037037037038 35.34391534391535,89.73544973544975 35.76719576719577,89.31216931216932 36.19047619047619,88.67724867724868 36.613756613756614,88.25396825396827 37.03703703703704,87.83068783068784 37.46031746031746,87.1957671957672 37.883597883597886,86.56084656084657 38.30687830687831,86.13756613756614 38.730158730158735,85.5026455026455 39.15343915343916,84.86772486772487 39.57671957671958,84.23280423280424 40.0,83.59788359788361 40.423280423280424,82.96296296296298 40.63492063492064,82.32804232804233 41.058201058201064,81.90476190476191 41.26984126984127,81.26984126984128 41.6931216931217,80.84656084656085 41.904761904761905,80.21164021164022 42.32804232804233,79.57671957671958 42.539682539682545,78.94179894179895 42.75132275132275,78.30687830687832 43.17460317460318,77.67195767195767 43.386243386243386,77.03703703703704 43.5978835978836,76.4021164021164 43.80952380952381,75.76719576719577 44.232804232804234,75.13227513227514 44.44444444444445,74.49735449735451 44.65608465608466,73.86243386243387 44.867724867724874,73.22751322751323 45.07936507936508,72.5925925925926 45.29100529100529,71.95767195767196 45.714285714285715,71.32275132275133 45.92592592592593,70.6878306878307 46.13756613756614,70.05291005291006 46.349206349206355,69.41798941798942 46.560846560846564,68.78306878306879 46.98412698412699,68.14814814814815 47.195767195767196,67.51322751322752 47.40740740740741,66.87830687830689 47.61904761904762,66.24338624338625 47.830687830687836,65.60846560846561 48.042328042328045,64.97354497354497 48.25396825396826,64.33862433862434 48.46560846560847,63.70370370370371 48.677248677248684,63.06878306878308 49.1005291005291,62.43386243386244 49.31216931216932,61.798941798941804 49.523809523809526,61.16402116402117 49.73544973544974,60.52910052910053 49.94708994708995,59.8941798941799 50.158730158730165,59.25925925925927 50.370370370370374,58.62433862433863 50.58201058201058,57.989417989417994 50.7936507936508,57.35449735449736 50.7936507936508,56.71957671957672 51.00529100529101,56.08465608465609 51.21693121693122,55.449735449735456 51.640211640211646,54.81481481481482 51.640211640211646,54.179894179894184 51.851851851851855,53.54497354497355 52.06349206349207,52.91005291005291 52.27513227513228,52.27513227513228 52.48677248677249,51.640211640211646 52.6984126984127,51.00529100529101 52.91005291005291,50.370370370370374 53.12169312169313,49.73544973544974 53.333333333333336,49.1005291005291 53.54497354497355,48.46560846560847 53.54497354497355,47.830687830687836 53.75661375661376,47.195767195767196 53.75661375661376,46.560846560846564 53.968253968253975,45.92592592592593 54.179894179894184,45.29100529100529 54.179894179894184,44.65608465608466 54.39153439153439,44.021164021164026 54.39153439153439,43.386243386243386 55.23809523809524,40.0" style="fill:none; stroke:#3300bb; stroke-width:1.0"  /><circle cx="55.23809523809524" cy="40.0" r="2.0" style="fill:none; stroke:#000000aa; stroke-width:0.25" /><circle cx="140.52910052910053" cy="60.31746031746032" r="2.0" style="fill:none; stroke:#000000aa; stroke-width:0.25" /><circle cx="124.02116402116403" cy="233.86243386243387" r="2.0" style="fill:none; stroke:#000000aa; stroke-width:0.25" /><circle cx="0.21164021164021166" cy="208.25396825396828" r="2.0" style="fill:none; stroke:#000000aa; stroke-width:0.25" /><circle cx="55.449735449735456" cy="40.0" r="2.0" style="fill:none; stroke:#ff3366aa; stroke-width:0.25" /><circle cx="140.31746031746033" cy="60.74074074074075" r="2.0" style="fill:none; stroke:#ff3366aa; stroke-width:0.25" /><circle cx="124.23280423280424" cy="233.65079365079367" r="2.0" style="fill:none; stroke:#ff3366aa; stroke-width:0.25" /><circle cx="0.4232804232804233" cy="208.25396825396828" r="2.0" style="fill:none; stroke:#ff3366aa; stroke-width:0.25" /><polyline points="67.3015873015873,40.0 66.66666666666667,40.211640211640216 66.03174603174604,40.211640211640216 65.3968253968254,40.0 64.76190476190477,40.211640211640216 64.12698412698413,40.211640211640216 63.492063492063494,40.0 62.85714285714286,40.0 62.22222222222223,40.0 61.798941798941804,40.423280423280424 61.16402116402117,40.211640211640216 60.52910052910053,40.211640211640216 59.8941798941799,40.211640211640216 59.25925925925927,40.0 58.62433862433863,40.0" style="fill:none; stroke:#001100; stroke-width:1.0" /><polyline points="52.48677248677249,51.640211640211646 52.6984126984127,51.00529100529101 52.91005291005291,50.370370370370374 53.12169312169313,49.73544973544974 53.333333333333336,49.1005291005291 53.54497354497355,48.46560846560847 53.54497354497355,47.830687830687836 53.75661375661376,47.195767195767196 53.75661375661376,46.560846560846564 53.968253968253975,45.92592592592593 54.179894179894184,45.29100529100529 54.179894179894184,44.65608465608466 54.39153439153439,44.021164021164026 54.39153439153439,43.386243386243386" style="fill:none; stroke:#000011; stroke-width:1.0" /><polyline points="137.56613756613757,72.16931216931218 137.56613756613757,71.53439153439155 137.7777777777778,70.8994708994709 137.989417989418,70.26455026455027 137.989417989418,69.62962962962963 138.2010582010582,68.994708994709 138.41269841269843,68.35978835978837 138.62433862433863,67.72486772486774 138.83597883597884,67.08994708994709 138.83597883597884,66.45502645502646 139.04761904761907,65.82010582010582 139.25925925925927,65.18518518518519 139.47089947089947,64.55026455026456 139.6825396825397,63.91534391534392" style="fill:none; stroke:#001100; stroke-width:1.0" /><polyline points="129.94708994708995,54.60317460317461 130.58201058201058,55.02645502645503 131.21693121693121,55.23809523809524 131.64021164021165,55.661375661375665 132.27513227513228,55.449735449735456 132.6984126984127,55.87301587301588 133.33333333333334,56.2962962962963 133.96825396825398,56.50793650793651 134.6031746031746,56.93121693121694 135.23809523809524,57.142857142857146 135.66137566137567,57.56613756613757 136.2962962962963,57.777777777777786 136.71957671957674,58.2010582010582 137.35449735449737,58.62433862433863" style="fill:none; stroke:#000011; stroke-width:1.0" /><polyline points="112.80423280423281,231.53439153439155 113.43915343915344,231.53439153439155 114.07407407407408,231.74603174603178 114.70899470899472,231.74603174603178 115.34391534391536,231.95767195767198 115.97883597883599,231.95767195767198 116.61375661375662,232.16931216931218 117.24867724867725,232.3809523809524 117.88359788359789,232.5925925925926 118.51851851851853,232.5925925925926 119.15343915343917,232.8042328042328 119.7883597883598,233.01587301587304 120.42328042328043,233.01587301587304 121.05820105820106,233.22751322751324" style="fill:none; stroke:#001100; stroke-width:1.0" /><polyline points="128.04232804232805,222.64550264550266 127.83068783068784,223.2804232804233 127.61904761904763,223.91534391534393 127.40740740740742,224.55026455026456 127.1957671957672,225.1851851851852 126.98412698412699,225.82010582010582 126.77248677248679,226.45502645502648 126.56084656084657,227.08994708994712 126.34920634920636,227.72486772486775 126.13756613756615,228.35978835978838 125.92592592592594,228.99470899470901 125.71428571428572,229.62962962962965 125.2910052910053,230.26455026455028" style="fill:none; stroke:#000011; stroke-width:1.0" /><polyline points="1.0582010582010584,196.82539682539684 1.0582010582010584,197.46031746031747 1.0582010582010584,198.0952380952381 0.8465608465608466,198.73015873015873 0.8465608465608466,199.36507936507937 0.8465608465608466,200.00000000000003 0.8465608465608466,200.63492063492066 0.8465608465608466,201.2698412698413 0.634920634920635,201.90476190476193 0.634920634920635,202.53968253968256 0.634920634920635,203.1746031746032 0.4232804232804233,203.80952380952382 0.4232804232804233,204.44444444444446 0.4232804232804233,205.0793650793651" style="fill:none; stroke:#001100; stroke-width:1.0" /><polyline points="11.851851851851853,211.005291005291 11.216931216931219,210.7936507936508 10.582010582010582,210.5820105820106 9.947089947089948,210.37037037037038 9.312169312169313,210.15873015873018 8.677248677248677,209.94708994708995 8.042328042328043,209.94708994708995 7.407407407407408,209.73544973544975 6.772486772486773,209.52380952380955 6.137566137566138,209.52380952380955 5.502645502645503,209.31216931216932 4.867724867724868,209.10052910052912 4.2328042328042335,209.10052910052912 3.597883597883598,209.10052910052912" style="fill:none; stroke:#000011; stroke-width:1.0" /><polyline points="58.62433862433863,40.0 37.46031746031746,40.0" style="fill:none; stroke:#ffaa00; stroke-width:0.4" /><polyline points="54.39153439153439,43.386243386243386 59.04761904761905,22.857142857142858" style="fill:none; stroke:#aaff00; stroke-width:0.4" /><polyline points="139.6825396825397,63.91534391534392 144.973544973545,43.386243386243386" style="fill:none; stroke:#ffaa00; stroke-width:0.4" /><polyline points="137.35449735449737,58.62433862433863 155.978835978836,68.78306878306879" style="fill:none; stroke:#aaff00; stroke-width:0.4" /><polyline points="121.05820105820106,233.22751322751324 141.7989417989418,237.46031746031747" style="fill:none; stroke:#ffaa00; stroke-width:0.4" /><polyline points="125.2910052910053,230.26455026455028 118.0952380952381,250.15873015873018" style="fill:none; stroke:#aaff00; stroke-width:0.4" /><polyline points="0.4232804232804233,205.0793650793651 -1.26984126984127,226.24338624338625" style="fill:none; stroke:#ffaa00; stroke-width:0.4" /><polyline points="3.597883597883598,209.10052910052912 -16.931216931216934,204.44444444444446" style="fill:none; stroke:#aaff00; stroke-width:0.4" /><circle cx="79.36507936507937" cy="133.12169312169314" r="1.0" style="fill:#444444; stroke-width:0" /><circle cx="91.64021164021165" cy="97.989417989418" r="10.582010582010582" style="fill:#ff770022; stroke-width:0" /><circle cx="91.64021164021165" cy="97.989417989418" r="1.0" style="fill:#ff7700; stroke-width:0" /></svg>