<?xml version="1.0" encoding="UTF-8" standalone="no"?><svg width="542.2222222222223" height="382.22222222222223" viewBox="-10 -10 200.74074074074076 147.40740740740742" xmlns="http://www.w3.org/2000/svg" xmlns:xlink="http://www.w3.org/1999/xlink"><polyline points="0.4232804232804233,16.931216931216934 3.174603174603175,16.50793650793651 3.8095238095238098,16.50793650793651 4.444444444444445,16.50793650793651 5.07936507936508,16.296296296296298 5.714285714285714,16.084656084656086 6.34920634920635,16.084656084656086 6.984126984126985,15.873015873015873 7.6190476190476195,15.873015873015873 8.253968253968255,15.873015873015873 8.88888888888889,15.873015873015873 9.312169312169313,15.449735449735451 9.947089947089948,15.449735449735451 10.582010582010582,15.238095238095239 11.216931216931219,15.238095238095239 11.851851851851853,15.026455026455027 12.486772486772487,15.026455026455027 13.121693121693122,14.814814814814817 13.756613756613758,14.603174603174605 14.391534391534393,14.603174603174605 15.026455026455027,14.391534391534393 15.661375661375663,14.391534391534393 16.296296296296298,14.17989417989418 16.931216931216934,14.17989417989418 17.566137566137566,13.96825396825397 18.201058201058203,13.96825396825397 18.83597883597884,13.756613756613758 19.47089947089947,13.544973544973546 20.105820105820108,13.333333333333334 20.740740740740744,13.333333333333334 21.375661375661377,13.121693121693122 22.010582010582013,13.121693121693122 22.645502645502646,12.910052910052912 23.280423280423282,12.910052910052912 23.915343915343918,12.6984126984127 24.55026455026455,12.6984126984127 25.185185185185187,12.486772486772487 25.820105820105823,12.486772486772487 26.455026455026456,12.275132275132275 27.089947089947092,12.063492063492065 27.724867724867728,12.063492063492065 28.35978835978836,11.851851851851853 28.994708994708997,11.851851851851853 29.629629629629633,11.640211640211641 30.264550264550266,11.640211640211641 30.899470899470902,11.428571428571429 31.53439153439154,11.428571428571429 32.16931216931217,11.428571428571429 32.804232804232804,11.216931216931219 33.43915343915344,11.005291005291006 34.074074074074076,11.005291005291006 34.70899470899471,10.793650793650794 35.34391534391535,10.582010582010582 35.97883597883598,10.582010582010582 36.613756613756614,10.370370370370372 37.248677248677254,10.370370370370372 37.883597883597886,10.15873015873016 38.51851851851852,9.947089947089948 39.15343915343916,9.947089947089948 39.78835978835979,9.735449735449736 40.423280423280424,9.735449735449736 41.058201058201064,9.947089947089948 41.6931216931217,9.947089947089948 42.11640211640212,9.523809523809524 42.75132275132275,9.735449735449736 43.386243386243386,9.735449735449736 44.021164021164026,9.735449735449736 44.65608465608466,9.947089947089948 45.29100529100529,10.15873015873016 45.92592592592593,10.15873015873016 46.560846560846564,10.582010582010582 47.195767195767196,10.793650793650794 47.61904761904762,11.216931216931219 48.042328042328045,11.640211640211641 48.46560846560847,12.063492063492065 48.88888888888889,12.6984126984127 49.31216931216932,13.333333333333334 49.523809523809526,13.96825396825397 49.523809523809526,14.603174603174605 49.73544973544974,15.238095238095239 49.73544973544974,15.873015873015873 49.73544973544974,16.50793650793651 49.73544973544974,17.142857142857146 49.73544973544974,17.77777777777778 49.73544973544974,18.412698412698415 49.73544973544974,19.047619047619047 49.523809523809526,19.682539682539684 49.523809523809526,20.31746031746032 49.523809523809526,20.952380952380953 49.523809523809526,21.58730158730159 49.31216931216932,22.222222222222225 49.31216931216932,22.857142857142858 49.1005291005291,23.492063492063494 49.1005291005291,24.12698412698413 49.1005291005291,24.761904761904763 48.88888888888889,25.3968253968254 48.88888888888889,26.031746031746035 48.88888888888889,26.666666666666668 48.677248677248684,27.301587301587304 48.677248677248684,27.93650793650794 48.46560846560847,28.571428571428573 48.46560846560847,29.20634920634921 48.46560846560847,29.841269841269842 48.46560846560847,30.476190476190478 48.46560846560847,31.111111111111114 48.25396825396826,31.746031746031747 48.25396825396826,32.38095238095239 48.25396825396826,33.01587301587302 48.042328042328045,33.65079365079365 48.042328042328045,34.28571428571429 48.042328042328045,34.920634920634924 47.830687830687836,35.55555555555556 47.830687830687836,36.19047619047619 47.830687830687836,36.82539682539683 47.61904761904762,37.46031746031746 47.61904761904762,38.095238095238095 47.40740740740741,38.730158730158735 47.40740740740741,39.36507936507937 47.40740740740741,40.0 47.40740740740741,40.63492063492064 47.40740740740741,41.26984126984127 47.61904761904762,41.904761904761905 47.61904761904762,42.539682539682545 47.830687830687836,43.17460317460318 48.042328042328045,43.80952380952381 48.25396825396826,44.44444444444445 48.46560846560847,45.07936507936508 48.677248677248684,45.714285714285715 49.1005291005291,46.349206349206355 49.523809523809526,46.98412698412699 49.94708994708995,47.61904761904762 50.370370370370374,48.042328042328045 50.7936507936508,48.46560846560847 51.42857142857143,48.88888888888889 52.06349206349207,49.31216931216932 52.6984126984127,49.523809523809526 53.333333333333336,49.94708994708995 53.968253968253975,50.370370370370374 54.60317460317461,50.58201058201058 55.23809523809524,50.7936507936508 55.87301587301588,50.7936507936508 56.50793650793651,51.00529100529101 57.142857142857146,51.21693121693122 57.777777777777786,51.42857142857143 58.41269841269842,51.42857142857143 59.04761904761905,51.42857142857143 59.682539682539684,51.640211640211646 60.31746031746032,51.640211640211646 60.952380952380956,51.851851851851855 61.58730158730159,51.851851851851855 62.22222222222223,51.851851851851855 62.85714285714286,51.851851851851855 63.492063492063494,51.851851851851855 64.12698412698413,51.851851851851855 64.76190476190477,51.851851851851855 65.3968253968254,51.640211640211646 66.03174603174604,51.640211640211646 66.66666666666667,51.640211640211646 67.3015873015873,51.42857142857143 67.93650793650794,51.42857142857143 68.57142857142858,51.21693121693122 69.20634920634922,51.00529100529101 69.84126984126985,50.7936507936508 70.47619047619048,50.58201058201058 71.11111111111111,50.370370370370374 71.74603174603175,50.158730158730165 72.38095238095238,50.158730158730165 73.01587301587303,49.73544973544974 73.43915343915344,49.31216931216932 74.07407407407408,49.1005291005291 74.70899470899471,48.88888888888889 75.13227513227514,48.46560846560847 75.76719576719577,48.46560846560847 76.19047619047619,48.042328042328045 76.82539682539684,47.61904761904762 77.46031746031747,47.40740740740741 78.0952380952381,46.98412698412699 78.73015873015873,46.77248677248678 79.15343915343917,46.349206349206355 79.7883597883598,45.92592592592593 80.42328042328043,45.714285714285715 80.84656084656085,45.29100529100529 81.48148148148148,44.867724867724874 81.90476190476191,44.44444444444445 82.53968253968254,44.021164021164026 83.17460317460318,43.5978835978836 83.59788359788361,42.96296296296297 84.02116402116403,42.539682539682545 84.44444444444446,42.11640211640212 84.86772486772487,41.48148148148149 85.07936507936509,40.84656084656085 85.5026455026455,40.423280423280424 85.71428571428572,39.78835978835979 85.92592592592594,39.15343915343916 85.92592592592594,38.51851851851852 85.92592592592594,37.883597883597886 86.13756613756614,37.248677248677254 86.13756613756614,36.613756613756614 85.92592592592594,35.97883597883598 85.92592592592594,35.34391534391535 85.92592592592594,34.70899470899471 85.71428571428572,34.074074074074076 85.5026455026455,33.43915343915344 85.29100529100529,32.804232804232804 85.07936507936509,32.16931216931217 84.86772486772487,31.53439153439154 84.65608465608466,30.899470899470902 84.44444444444446,30.264550264550266 84.02116402116403,29.841269841269842 83.59788359788361,29.20634920634921 83.3862433862434,28.571428571428573 82.96296296296298,27.93650793650794 82.75132275132276,27.301587301587304 82.32804232804233,26.666666666666668 81.90476190476191,26.031746031746035 81.6931216931217,25.3968253968254 81.26984126984128,24.761904761904763 81.05820105820106,24.12698412698413 80.63492063492065,23.492063492063494 80.42328042328043,22.857142857142858 80.0,22.433862433862437 79.7883597883598,21.7989417989418 79.36507936507937,21.164021164021165 79.15343915343917,20.529100529100532 78.73015873015873,19.894179894179896 78.51851851851852,19.25925925925926 78.0952380952381,18.624338624338627 77.88359788359789,17.98941798941799 77.46031746031747,17.354497354497354 77.24867724867725,16.71957671957672 76.82539682539684,16.084656084656086 76.61375661375662,15.449735449735451 76.19047619047619,14.814814814814817 75.97883597883599,14.17989417989418 75.55555555555556,13.544973544973546 75.34391534391536,12.910052910052912 75.13227513227514,12.275132275132275 74.92063492063492,11.640211640211641 74.49735449735451,11.005291005291006 74.28571428571429,10.370370370370372 74.07407407407408,9.735449735449736 73.86243386243387,9.100529100529101 73.65079365079366,8.465608465608467 73.65079365079366,7.830687830687832 73.65079365079366,7.195767195767196 73.43915343915344,6.560846560846561 73.65079365079366,5.9259259259259265 73.65079365079366,5.291005291005291 74.07407407407408,4.656084656084657 74.28571428571429,4.021164021164021 74.70899470899471,3.3862433862433865 75.13227513227514,2.7513227513227516 75.55555555555556,2.3280423280423284 76.19047619047619,1.9047619047619049 76.82539682539684,1.6931216931216932 77.46031746031747,1.26984126984127 78.0952380952381,1.26984126984127 78.73015873015873,1.0582010582010584 79.36507936507937,1.0582010582010584 80.0,0.8465608465608466 80.63492063492065,0.8465608465608466 81.26984126984128,0.634920634920635 81.90476190476191,0.634920634920635 82.53968253968254,0.634920634920635 83.17460317460318,0.634920634920635 83.80952380952381,0.634920634920635 84.44444444444446,0.4232804232804233 85.07936507936509,0.634920634920635 85.71428571428572,0.634920634920635 86.34920634920636,0.4232804232804233 86.98412698412699,0.4232804232804233 87.61904761904762,0.4232804232804233 88.25396825396827,0.4232804232804233 88.8888888888889,0.4232804232804233 89.52380952380953,0.4232804232804233 90.15873015873017,0.4232804232804233 90.7936507936508,0.4232804232804233 91.42857142857143,0.4232804232804233 92.06349206349208,0.21164021164021166 92.69841269841271,0.21164021164021166 93.33333333333334,0.21164021164021166 93.96825396825398,0.4232804232804233 94.60317460317461,0.4232804232804233 95.23809523809524,0.4232804232804233 95.87301587301587,0.4232804232804233 96.50793650793652,0.4232804232804233 97.14285714285715,0.4232804232804233 97.77777777777779,0.4232804232804233 98.41269841269842,0.4232804232804233 99.04761904761905,0.4232804232804233 99.68253968253968,0.4232804232804233 100.31746031746033,0.4232804232804233 100.95238095238096,0.4232804232804233 101.5873015873016,0.4232804232804233 102.22222222222223,0.4232804232804233 102.85714285714286,0.4232804232804233 103.4920634920635,0.4232804232804233 104.12698412698414,0.4232804232804233 104.76190476190477,0.4232804232804233 105.3968253968254,0.4232804232804233 106.03174603174604,0.4232804232804233 106.66666666666667,0.4232804232804233 107.3015873015873,0.4232804232804233 107.93650793650795,0.21164021164021166 108.57142857142858,0.21164021164021166 109.20634920634922,0.21164021164021166 109.84126984126985,0.21164021164021166 110.47619047619048,0.21164021164021166 111.11111111111111,0.21164021164021166 111.74603174603176,0.21164021164021166 112.3809523809524,0.21164021164021166 113.01587301587303,0.21164021164021166 113.65079365079366,0.21164021164021166 114.28571428571429,0.21164021164021166 114.92063492063492,0.21164021164021166 115.55555555555557,0.21164021164021166 116.1904761904762,0.4232804232804233 116.82539682539684,0.21164021164021166 117.46031746031747,0.4232804232804233 118.0952380952381,0.4232804232804233 118.73015873015873,0.4232804232804233 119.36507936507937,0.4232804232804233 120.00000000000001,0.4232804232804233 120.63492063492065,0.4232804232804233 121.26984126984128,0.4232804232804233 121.90476190476191,0.4232804232804233 122.53968253968254,0.634920634920635 123.17460317460318,0.634920634920635 123.80952380952382,0.4232804232804233 124.44444444444446,0.634920634920635 125.07936507936509,0.634920634920635 125.71428571428572,0.634920634920635 126.34920634920636,0.634920634920635 126.98412698412699,0.634920634920635 127.61904761904763,0.634920634920635 128.25396825396825,0.634920634920635 128.88888888888889,0.634920634920635 129.52380952380955,0.634920634920635 130.15873015873018,0.634920634920635 130.7936507936508,0.8465608465608466 131.42857142857144,0.8465608465608466 132.06349206349208,0.8465608465608466 132.6984126984127,0.8465608465608466 133.33333333333334,0.8465608465608466 133.96825396825398,0.8465608465608466 134.6031746031746,0.8465608465608466 135.23809523809524,0.8465608465608466 135.87301587301587,1.0582010582010584 136.5079365079365,0.8465608465608466 137.14285714285717,0.8465608465608466 137.7777777777778,0.8465608465608466 138.41269841269843,0.8465608465608466 139.04761904761907,1.0582010582010584 139.6825396825397,1.0582010582010584 140.31746031746033,1.26984126984127 140.95238095238096,1.0582010582010584 141.5873015873016,1.0582010582010584 142.22222222222223,1.0582010582010584 142.85714285714286,0.8465608465608466 143.4920634920635,1.0582010582010584 144.12698412698413,1.0582010582010584 144.76190476190476,1.0582010582010584 145.39682539682542,1.26984126984127 146.03174603174605,1.26984126984127 146.66666666666669,1.26984126984127 147.30158730158732,1.0582010582010584 147.93650793650795,1.0582010582010584 148.57142857142858,1.0582010582010584 149.20634920634922,1.0582010582010584 149.84126984126985,1.26984126984127 150.47619047619048,1.26984126984127 151.11111111111111,1.0582010582010584 151.74603174603175,1.0582010582010584 152.38095238095238,1.0582010582010584 153.01587301587304,1.0582010582010584 153.65079365079367,1.0582010582010584 154.2857142857143,1.26984126984127 154.92063492063494,1.26984126984127 155.55555555555557,1.26984126984127 156.1904761904762,1.26984126984127 156.82539682539684,1.26984126984127 157.46031746031747,1.26984126984127 158.0952380952381,1.26984126984127 158.73015873015873,1.26984126984127 159.36507936507937,1.26984126984127 160.0,1.26984126984127 160.63492063492066,1.26984126984127 161.2698412698413,1.4814814814814816 161.90476190476193,1.26984126984127 162.53968253968256,1.4814814814814816 163.1746031746032,1.26984126984127 163.80952380952382,1.26984126984127 164.44444444444446,1.26984126984127 165.0793650793651,1.26984126984127 165.71428571428572,1.26984126984127 166.34920634920636,1.26984126984127 166.984126984127,1.4814814814814816 170.15873015873018,1.4814814814814816" style="fill:none; stroke:#cc0000; stroke-width:1.0"  /><polyline points="170.15873015873018,1.4814814814814816 170.37037037037038,5.07936507936508 170.37037037037038,5.714285714285714 170.37037037037038,6.34920634920635 170.37037037037038,6.984126984126985 170.37037037037038,7.6190476190476195 170.37037037037038,8.253968253968255 170.37037037037038,8.88888888888889 170.37037037037038,9.523809523809524 170.58201058201058,10.15873015873016 170.58201058201058,10.793650793650794 170.58201058201058,11.428571428571429 170.58201058201058,12.063492063492065 170.7936507936508,12.6984126984127 170.7936507936508,13.333333333333334 170.7936507936508,13.96825396825397 170.7936507936508,14.603174603174605 171.005291005291,15.238095238095239 171.005291005291,15.873015873015873 171.005291005291,16.50793650793651 171.21693121693124,17.142857142857146 171.21693121693124,17.77777777777778 171.21693121693124,18.412698412698415 171.21693121693124,19.047619047619047 171.21693121693124,19.682539682539684 171.42857142857144,20.31746031746032 171.42857142857144,20.952380952380953 171.42857142857144,21.58730158730159 171.42857142857144,22.222222222222225 171.64021164021165,22.857142857142858 171.64021164021165,23.492063492063494 171.64021164021165,24.12698412698413 171.85185185185188,24.761904761904763 171.85185185185188,25.3968253968254 171.85185185185188,26.031746031746035 172.06349206349208,26.666666666666668 172.06349206349208,27.301587301587304 172.06349206349208,27.93650793650794 172.27513227513228,28.571428571428573 172.27513227513228,29.20634920634921 172.4867724867725,29.841269841269842 172.6984126984127,30.476190476190478 172.9100529100529,31.111111111111114 172.9100529100529,31.746031746031747 173.12169312169314,32.38095238095239 173.12169312169314,33.01587301587302 173.33333333333334,33.65079365079365 173.33333333333334,34.28571428571429 173.54497354497354,34.920634920634924 173.54497354497354,35.55555555555556 173.75661375661377,36.19047619047619 173.75661375661377,36.82539682539683 173.96825396825398,37.46031746031746 173.96825396825398,38.095238095238095 174.1798941798942,38.730158730158735 174.1798941798942,39.36507936507937 174.3915343915344,40.0 174.3915343915344,40.63492063492064 174.3915343915344,41.26984126984127 174.6031746031746,41.904761904761905 174.6031746031746,42.539682539682545 174.6031746031746,43.17460317460318 174.6031746031746,43.80952380952381 174.3915343915344,44.44444444444445 174.3915343915344,45.07936507936508 174.1798941798942,45.714285714285715 173.96825396825398,46.349206349206355 173.75661375661377,46.98412698412699 173.54497354497354,47.61904761904762 173.12169312169314,48.25396825396826 172.6984126984127,48.88888888888889 172.27513227513228,49.31216931216932 171.85185185185188,49.73544973544974 171.21693121693124,49.94708994708995 170.58201058201058,50.370370370370374 169.94708994708995,50.58201058201058 169.31216931216932,50.7936507936508 168.67724867724868,51.00529100529101 168.04232804232805,51.00529100529101 167.40740740740742,51.00529100529101 166.7724867724868,51.00529100529101 166.13756613756615,51.00529100529101 165.50264550264552,50.7936507936508 164.8677248677249,50.58201058201058 164.23280423280426,50.58201058201058 163.59788359788362,50.158730158730165 162.96296296296296,49.94708994708995 162.32804232804233,49.523809523809526 161.6931216931217,49.1005291005291 161.2698412698413,48.677248677248684 160.84656084656086,48.25396825396826 160.42328042328043,47.830687830687836 160.0,47.40740740740741 159.5767195767196,46.98412698412699 159.15343915343917,46.560846560846564 158.73015873015873,46.13756613756614 158.30687830687833,45.50264550264551 157.67195767195767,45.07936507936508 157.24867724867727,44.65608465608466 156.82539682539684,44.232804232804234 156.1904761904762,43.80952380952381 155.76719576719577,43.386243386243386 155.13227513227514,43.17460317460318 154.4973544973545,42.75132275132275 153.86243386243387,42.539682539682545 153.22751322751324,42.11640211640212 152.5925925925926,41.904761904761905 151.95767195767198,41.6931216931217 151.32275132275134,41.48148148148149 150.6878306878307,41.26984126984127 150.05291005291005,41.058201058201064 149.41798941798942,41.058201058201064 148.78306878306879,40.84656084656085 148.14814814814815,40.84656084656085 147.51322751322752,40.84656084656085 146.8783068783069,40.84656084656085 146.24338624338625,40.84656084656085 145.60846560846562,41.058201058201064 144.973544973545,41.058201058201064 144.33862433862436,41.26984126984127 143.70370370370372,41.48148148148149 143.0687830687831,41.904761904761905 142.64550264550266,42.32804232804233 142.01058201058203,42.539682539682545 141.3756613756614,42.75132275132275 140.95238095238096,43.17460317460318 140.31746031746033,43.5978835978836 139.8941798941799,44.021164021164026 139.47089947089947,44.44444444444445 139.04761904761907,44.867724867724874 138.62433862433863,45.29100529100529 138.2010582010582,45.714285714285715 137.7777777777778,46.349206349206355 137.56613756613757,46.98412698412699 137.14285714285717,47.40740740740741 136.93121693121694,48.042328042328045 136.71957671957674,48.677248677248684 136.2962962962963,49.31216931216932 136.2962962962963,49.94708994708995 136.0846560846561,50.58201058201058 135.87301587301587,51.21693121693122 135.66137566137567,51.851851851851855 135.66137566137567,52.48677248677249 135.44973544973547,53.12169312169313 135.44973544973547,53.75661375661376 135.44973544973547,54.39153439153439 135.23809523809524,55.02645502645503 135.23809523809524,55.661375661375665 135.23809523809524,56.2962962962963 135.23809523809524,56.93121693121694 135.23809523809524,57.56613756613757 135.23809523809524,58.2010582010582 135.23809523809524,58.83597883597884 135.23809523809524,59.470899470899475 135.23809523809524,60.10582010582011 135.44973544973547,60.74074074074075 135.44973544973547,61.37566137566138 135.44973544973547,62.01058201058201 135.44973544973547,62.64550264550265 135.44973544973547,63.280423280423285 135.66137566137567,63.91534391534392 135.66137566137567,64.55026455026456 135.87301587301587,65.18518518518519 136.0846560846561,65.82010582010582 136.0846560846561,66.45502645502646 136.2962962962963,67.08994708994709 136.2962962962963,67.72486772486774 136.5079365079365,68.35978835978837 136.5079365079365,68.994708994709 136.5079365079365,69.62962962962963 136.71957671957674,70.26455026455027 136.71957671957674,70.8994708994709 136.93121693121694,71.53439153439155 137.14285714285717,72.16931216931218 137.35449735449737,72.80423280423281 137.56613756613757,73.43915343915344 137.7777777777778,74.07407407407408 137.989417989418,74.70899470899471 138.2010582010582,75.34391534391536 138.41269841269843,75.97883597883599 138.83597883597884,76.61375661375662 139.04761904761907,77.24867724867725 139.25925925925927,77.88359788359789 139.6825396825397,78.51851851851852 139.8941798941799,79.15343915343917 140.31746031746033,79.57671957671958 140.52910052910053,80.21164021164022 140.95238095238096,80.84656084656085 141.3756613756614,81.48148148148148 141.7989417989418,82.11640211640213 142.22222222222223,82.75132275132276 142.64550264550266,83.3862433862434 143.0687830687831,83.80952380952381 143.4920634920635,84.23280423280424 143.91534391534393,84.86772486772487 144.33862433862436,85.29100529100529 144.76190476190476,85.92592592592594 145.1851851851852,86.34920634920636 145.60846560846562,86.77248677248677 146.03174603174605,87.1957671957672 146.66666666666669,87.61904761904762 147.30158730158732,88.04232804232805 147.93650793650795,88.46560846560847 148.57142857142858,88.8888888888889 149.20634920634922,89.1005291005291 149.84126984126985,89.31216931216932 150.47619047619048,89.52380952380953 151.11111111111111,89.52380952380953 151.74603174603175,89.52380952380953 152.38095238095238,89.73544973544975 153.01587301587304,89.52380952380953 153.65079365079367,89.52380952380953 154.2857142857143,89.52380952380953 154.7089947089947,89.1005291005291 155.34391534391534,88.8888888888889 155.978835978836,88.8888888888889 156.61375661375664,88.46560846560847 157.24867724867727,88.46560846560847 157.67195767195767,88.04232804232805 158.30687830687833,87.83068783068784 158.73015873015873,87.40740740740742 159.36507936507937,86.98412698412699 159.7883597883598,86.56084656084657 160.21164021164023,86.13756613756614 160.63492063492066,85.71428571428572 161.05820105820106,85.29100529100529 161.4814814814815,84.86772486772487 161.90476190476193,84.23280423280424 162.32804232804233,83.80952380952381 162.75132275132276,83.17460317460318 163.1746031746032,82.53968253968254 163.59788359788362,81.90476190476191 164.02116402116403,81.48148148148148 164.44444444444446,80.84656084656085 164.8677248677249,80.42328042328043 165.2910052910053,80.0 165.71428571428572,79.36507936507937 166.34920634920636,78.94179894179895 166.984126984127,78.51851851851852 167.40740740740742,78.0952380952381 168.04232804232805,77.88359788359789 168.67724867724868,77.46031746031747 169.31216931216932,77.24867724867725 169.94708994708995,77.24867724867725 170.58201058201058,77.03703703703704 171.21693121693124,77.03703703703704 171.85185185185188,77.03703703703704 172.4867724867725,77.03703703703704 173.12169312169314,77.03703703703704 173.75661375661377,77.24867724867725 174.3915343915344,77.46031746031747 175.02645502645504,77.88359788359789 175.66137566137567,78.30687830687832 176.0846560846561,78.73015873015873 176.50793650793653,79.36507936507937 176.71957671957674,80.0 176.93121693121694,80.63492063492065 177.14285714285717,81.26984126984128 177.14285714285717,81.90476190476191 177.35449735449737,82.53968253968254 177.56613756613757,83.17460317460318 177.7777777777778,83.80952380952381 177.989417989418,84.44444444444446 177.989417989418,85.07936507936509 177.989417989418,85.71428571428572 178.2010582010582,86.34920634920636 178.2010582010582,86.98412698412699 178.41269841269843,87.61904761904762 178.62433862433863,88.25396825396827 178.62433862433863,88.8888888888889 178.62433862433863,89.52380952380953 178.83597883597884,90.15873015873017 178.83597883597884,90.7936507936508 179.04761904761907,91.42857142857143 179.04761904761907,92.06349206349208 179.25925925925927,92.69841269841271 179.25925925925927,93.33333333333334 179.25925925925927,93.96825396825398 179.25925925925927,94.60317460317461 179.4708994708995,95.23809523809524 179.4708994708995,95.87301587301587 179.4708994708995,96.50793650793652 179.4708994708995,97.14285714285715 179.6825396825397,97.77777777777779 179.6825396825397,98.41269841269842 179.6825396825397,99.04761904761905 179.8941798941799,99.68253968253968 180.10582010582013,100.31746031746033 180.10582010582013,100.95238095238096 180.10582010582013,101.5873015873016 180.10582010582013,102.22222222222223 180.10582010582013,102.85714285714286 180.10582010582013,103.4920634920635 180.10582010582013,104.12698412698414 180.10582010582013,104.76190476190477 180.31746031746033,105.3968253968254 180.31746031746033,106.03174603174604 180.31746031746033,106.66666666666667 180.31746031746033,107.3015873015873 180.31746031746033,107.93650793650795 180.31746031746033,108.57142857142858 180.31746031746033,109.20634920634922 180.52910052910053,113.01587301587303" style="fill:none; stroke:#999900; stroke-width:1.0"  /><polyline points="180.52910052910053,113.01587301587303 176.93121693121694,114.28571428571429 176.2962962962963,114.49735449735451 175.66137566137567,114.49735449735451 175.02645502645504,114.70899470899472 174.3915343915344,115.13227513227514 173.75661375661377,115.34391534391536 173.12169312169314,115.55555555555557 172.4867724867725,115.76719576719577 171.85185185185188,115.97883597883599 171.21693121693124,116.4021164021164 170.58201058201058,116.61375661375662 169.94708994708995,116.82539682539684 169.31216931216932,117.03703703703705 168.67724867724868,117.24867724867725 168.04232804232805,117.46031746031747 167.40740740740742,117.67195767195768 166.7724867724868,118.0952380952381 166.13756613756615,118.30687830687832 165.50264550264552,118.51851851851853 164.8677248677249,118.73015873015873 164.23280423280426,118.94179894179895 163.59788359788362,119.15343915343917 162.96296296296296,119.36507936507937 162.32804232804233,119.57671957671958 161.6931216931217,119.7883597883598 161.05820105820106,120.00000000000001 160.42328042328043,120.21164021164022 159.7883597883598,120.42328042328043 159.15343915343917,120.63492063492065 158.51851851851853,120.84656084656086 157.8835978835979,121.05820105820106 157.24867724867727,121.26984126984128 156.61375661375664,121.4814814814815 155.978835978836,121.6931216931217 155.34391534391534,121.90476190476191 154.7089947089947,122.11640211640213 154.07407407407408,122.11640211640213 153.43915343915344,122.32804232804234 152.8042328042328,122.53968253968254 152.16931216931218,122.75132275132276 151.53439153439155,122.96296296296298 150.8994708994709,123.17460317460318 150.26455026455028,123.17460317460318 149.62962962962965,123.3862433862434 148.99470899470901,123.59788359788361 148.35978835978838,123.80952380952382 147.72486772486775,123.80952380952382 147.0899470899471,124.02116402116403 146.45502645502646,124.23280423280424 145.82010582010582,124.23280423280424 145.1851851851852,124.44444444444446 144.55026455026456,124.65608465608466 143.91534391534393,124.65608465608466 143.2804232804233,124.86772486772487 142.64550264550266,125.07936507936509 142.01058201058203,125.2910052910053 141.3756613756614,125.5026455026455 140.74074074074076,125.5026455026455 140.10582010582013,125.71428571428572 139.47089947089947,125.92592592592594 138.83597883597884,125.92592592592594 138.2010582010582,125.71428571428572 137.56613756613757,125.92592592592594 136.93121693121694,125.92592592592594 136.2962962962963,126.13756613756615 135.66137566137567,126.34920634920636 135.02645502645504,126.34920634920636 134.3915343915344,126.34920634920636 133.75661375661377,126.56084656084657 133.12169312169314,126.56084656084657 132.4867724867725,126.56084656084657 131.85185185185185,126.56084656084657 131.21693121693121,126.77248677248679 130.58201058201058,126.77248677248679 129.94708994708995,126.77248677248679 129.31216931216932,126.77248677248679 128.67724867724868,126.77248677248679 128.04232804232805,126.77248677248679 127.40740740740742,126.98412698412699 126.77248677248679,126.77248677248679 126.13756613756615,126.77248677248679 125.5026455026455,126.77248677248679 124.86772486772487,126.77248677248679 124.23280423280424,126.77248677248679 123.59788359788361,126.77248677248679 122.96296296296298,126.77248677248679 122.32804232804234,126.77248677248679 121.6931216931217,126.56084656084657 121.05820105820106,126.77248677248679 120.42328042328043,126.56084656084657 119.7883597883598,126.56084656084657 119.15343915343917,126.56084656084657 118.51851851851853,126.56084656084657 117.88359788359789,126.34920634920636 117.24867724867725,126.34920634920636 116.61375661375662,126.13756613756615 115.97883597883599,126.13756613756615 115.34391534391536,126.13756613756615 114.70899470899472,126.13756613756615 114.07407407407408,125.92592592592594 113.43915343915344,125.71428571428572 112.80423280423281,125.71428571428572 112.16931216931218,125.5026455026455 111.53439153439155,125.2910052910053 110.89947089947091,125.2910052910053 110.26455026455027,125.07936507936509 109.62962962962963,124.86772486772487 108.994708994709,124.65608465608466 108.35978835978837,124.23280423280424 107.72486772486774,124.23280423280424 107.0899470899471,123.80952380952382 106.45502645502647,123.59788359788361 106.03174603174604,123.17460317460318 105.3968253968254,122.75132275132276 104.76190476190477,122.32804232804234 104.33862433862434,121.90476190476191 103.70370370370371,121.4814814814815 103.28042328042329,121.05820105820106 102.85714285714286,120.63492063492065 102.43386243386244,120.21164021164022 102.01058201058201,119.7883597883598 101.5873015873016,119.15343915343917 101.16402116402116,118.51851851851853 100.95238095238096,117.88359788359789 100.74074074074075,117.24867724867725 100.52910052910053,116.61375661375662 100.31746031746033,115.97883597883599 100.10582010582011,115.34391534391536 100.10582010582011,114.70899470899472 100.10582010582011,114.07407407407408 100.31746031746033,113.43915343915344 100.31746031746033,112.80423280423281 100.52910052910053,112.16931216931218 100.74074074074075,111.53439153439155 100.74074074074075,110.89947089947091 101.16402116402116,110.26455026455027 101.37566137566138,109.62962962962963 101.5873015873016,108.994708994709 102.01058201058201,108.35978835978837 102.22222222222223,107.72486772486774 102.64550264550266,107.0899470899471 103.06878306878308,106.66666666666667 103.28042328042329,106.03174603174604 103.70370370370371,105.3968253968254 103.91534391534393,104.76190476190477 104.33862433862434,104.12698412698414 104.55026455026456,103.4920634920635 104.97354497354497,102.85714285714286 105.18518518518519,102.22222222222223 105.60846560846562,101.5873015873016 105.82010582010582,100.95238095238096 106.03174603174604,100.31746031746033 106.24338624338625,99.68253968253968 106.45502645502647,99.04761904761905 106.66666666666667,98.41269841269842 106.87830687830689,97.77777777777779 107.0899470899471,97.14285714285715 107.3015873015873,96.50793650793652 107.3015873015873,95.87301587301587 107.3015873015873,95.23809523809524 107.3015873015873,94.60317460317461 107.3015873015873,93.96825396825398 107.3015873015873,93.33333333333334 107.0899470899471,92.69841269841271 106.87830687830689,92.06349206349208 106.45502645502647,91.42857142857143 106.24338624338625,90.7936507936508 105.82010582010582,90.15873015873017 105.18518518518519,89.73544973544975 104.55026455026456,89.31216931216932 104.12698412698414,88.8888888888889 103.4920634920635,88.46560846560847 102.85714285714286,88.25396825396827 102.22222222222223,87.83068783068784 101.5873015873016,87.61904761904762 100.95238095238096,87.1957671957672 100.31746031746033,86.98412698412699 99.68253968253968,86.77248677248677 99.04761904761905,86.56084656084657 98.41269841269842,86.34920634920636 97.77777777777779,86.13756613756614 97.14285714285715,86.13756613756614 96.50793650793652,85.92592592592594 95.87301587301587,85.71428571428572 95.23809523809524,85.71428571428572 94.60317460317461,85.5026455026455 93.96825396825398,85.5026455026455 93.33333333333334,85.5026455026455 92.69841269841271,85.29100529100529 92.06349206349208,85.29100529100529 91.42857142857143,85.29100529100529 90.7936507936508,85.29100529100529 90.15873015873017,85.29100529100529 89.52380952380953,85.29100529100529 88.8888888888889,85.29100529100529 88.25396825396827,85.29100529100529 87.61904761904762,85.29100529100529 86.98412698412699,85.29100529100529 86.34920634920636,85.5026455026455 85.71428571428572,85.5026455026455 85.07936507936509,85.5026455026455 84.44444444444446,85.5026455026455 83.80952380952381,85.5026455026455 83.17460317460318,85.5026455026455 82.53968253968254,85.71428571428572 81.90476190476191,85.71428571428572 81.26984126984128,85.92592592592594 80.63492063492065,85.92592592592594 80.0,86.13756613756614 79.36507936507937,86.34920634920636 78.73015873015873,86.56084656084657 78.0952380952381,86.77248677248677 77.46031746031747,86.98412698412699 76.82539682539684,87.40740740740742 76.19047619047619,87.83068783068784 75.55555555555556,88.25396825396827 75.13227513227514,88.67724867724868 74.70899470899471,89.1005291005291 74.28571428571429,89.52380952380953 73.86243386243387,89.94708994708995 73.43915343915344,90.58201058201058 73.22751322751323,91.21693121693123 73.01587301587303,91.85185185185186 72.80423280423281,92.4867724867725 72.5925925925926,93.12169312169313 72.5925925925926,93.75661375661376 72.38095238095238,94.39153439153439 72.38095238095238,95.02645502645504 72.16931216931218,95.66137566137567 72.16931216931218,96.2962962962963 71.95767195767196,96.93121693121694 71.95767195767196,97.56613756613757 71.95767195767196,98.2010582010582 71.95767195767196,98.83597883597885 72.16931216931218,99.47089947089948 72.38095238095238,100.10582010582011 72.5925925925926,100.74074074074075 72.80423280423281,101.37566137566138 73.01587301587303,102.01058201058201 73.22751322751323,102.64550264550266 73.43915343915344,103.28042328042329 73.86243386243387,103.91534391534393 74.07407407407408,104.55026455026456 74.49735449735451,105.18518518518519 74.70899470899471,105.82010582010582 75.13227513227514,106.45502645502647 75.34391534391536,107.0899470899471 75.55555555555556,107.72486772486774 75.97883597883599,108.35978835978837 76.19047619047619,108.994708994709 76.61375661375662,109.62962962962963 76.82539682539684,110.26455026455027 77.24867724867725,110.89947089947091 77.46031746031747,111.53439153439155 77.88359788359789,112.16931216931218 78.0952380952381,112.80423280423281 78.30687830687832,113.43915343915344 78.51851851851852,114.07407407407408 78.73015873015873,114.70899470899472 78.73015873015873,115.34391534391536 78.94179894179895,115.97883597883599 78.94179894179895,116.61375661375662 78.94179894179895,117.24867724867725 78.94179894179895,117.88359788359789 78.94179894179895,118.51851851851853 78.73015873015873,119.15343915343917 78.51851851851852,119.7883597883598 78.30687830687832,120.42328042328043 77.88359788359789,120.84656084656086 77.46031746031747,121.4814814814815 77.03703703703704,121.90476190476191 76.61375661375662,122.32804232804234 75.97883597883599,122.53968253968254 75.34391534391536,122.75132275132276 74.70899470899471,122.96296296296298 74.07407407407408,123.17460317460318 73.43915343915344,123.17460317460318 73.01587301587303,123.59788359788361 72.38095238095238,123.59788359788361 71.74603174603175,123.59788359788361 71.11111111111111,123.80952380952382 70.47619047619048,123.80952380952382 69.84126984126985,123.80952380952382 69.20634920634922,123.80952380952382 68.57142857142858,123.80952380952382 67.93650793650794,124.02116402116403 67.3015873015873,124.02116402116403 66.66666666666667,124.02116402116403 66.03174603174604,124.02116402116403 65.3968253968254,124.02116402116403 64.76190476190477,124.02116402116403 64.12698412698413,124.02116402116403 63.492063492063494,124.02116402116403 62.85714285714286,124.02116402116403 62.22222222222223,123.80952380952382 61.58730158730159,123.80952380952382 60.952380952380956,123.80952380952382 60.31746031746032,123.80952380952382 59.682539682539684,123.80952380952382 59.04761904761905,123.80952380952382 58.41269841269842,123.59788359788361 57.777777777777786,123.59788359788361 57.142857142857146,123.59788359788361 56.50793650793651,123.3862433862434 55.87301587301588,123.3862433862434 55.23809523809524,123.3862433862434 54.60317460317461,123.17460317460318 53.968253968253975,123.17460317460318 53.333333333333336,122.96296296296298 52.6984126984127,122.96296296296298 52.06349206349207,122.96296296296298 51.42857142857143,122.75132275132276 50.7936507936508,122.53968253968254 50.158730158730165,122.53968253968254 49.523809523809526,122.32804232804234 48.88888888888889,122.11640211640213 48.25396825396826,122.11640211640213 47.61904761904762,121.90476190476191 46.98412698412699,121.6931216931217 46.349206349206355,121.6931216931217 45.714285714285715,121.4814814814815 45.07936507936508,121.26984126984128 44.44444444444445,121.05820105820106 43.80952380952381,121.05820105820106 43.17460317460318,120.84656084656086 42.539682539682545,120.63492063492065 41.904761904761905,120.42328042328043 41.26984126984127,120.21164021164022 40.63492063492064,120.00000000000001 40.0,119.7883597883598 39.36507936507937,119.57671957671958 38.730158730158735,119.36507936507937 38.095238095238095,119.57671957671958 37.46031746031746,119.36507936507937 36.82539682539683,119.15343915343917 36.19047619047619,118.94179894179895 35.55555555555556,118.73015873015873 34.920634920634924,118.51851851851853 34.28571428571429,118.51851851851853 33.65079365079365,118.30687830687832 33.01587301587302,118.0952380952381 32.38095238095239,117.88359788359789 31.746031746031747,117.67195767195768 31.111111111111114,117.46031746031747 30.476190476190478,117.24867724867725 29.841269841269842,117.24867724867725 29.20634920634921,117.03703703703705 28.571428571428573,116.82539682539684 27.93650793650794,116.61375661375662 27.301587301587304,116.4021164021164 26.666666666666668,116.4021164021164 26.031746031746035,116.1904761904762 25.3968253968254,115.97883597883599 24.761904761904763,115.76719576719577 24.12698412698413,115.76719576719577 23.492063492063494,115.55555555555557 22.857142857142858,115.34391534391536 22.222222222222225,115.13227513227514 21.58730158730159,115.13227513227514 20.952380952380953,114.92063492063492 20.31746031746032,114.70899470899472 19.682539682539684,114.49735449735451 19.047619047619047,114.28571428571429 18.412698412698415,114.28571428571429 17.77777777777778,114.07407407407408 17.142857142857146,114.07407407407408 16.50793650793651,113.86243386243387 15.873015873015873,113.65079365079366 15.238095238095239,113.65079365079366 14.603174603174605,113.43915343915344 13.96825396825397,113.43915343915344 13.333333333333334,113.22751322751324 12.6984126984127,113.22751322751324 12.063492063492065,113.01587301587303 11.428571428571429,113.01587301587303 10.793650793650794,112.80423280423281 10.15873015873016,112.80423280423281 7.407407407407408,112.3809523809524" style="fill:none; stroke:#00aa99; stroke-width:1.0"  /><polyline points="7.407407407407408,112.3809523809524 6.34920634920635,108.57142857142858 6.137566137566138,107.93650793650795 5.9259259259259265,107.3015873015873 5.714285714285714,106.66666666666667 5.502645502645503,106.03174603174604 5.291005291005291,105.3968253968254 5.291005291005291,104.76190476190477 5.07936507936508,104.12698412698414 4.867724867724868,103.4920634920635 4.656084656084657,102.85714285714286 4.444444444444445,102.22222222222223 4.444444444444445,101.5873015873016 4.021164021164021,100.95238095238096 4.021164021164021,100.31746031746033 3.597883597883598,99.8941798941799 3.597883597883598,99.25925925925927 3.3862433862433865,98.62433862433863 3.174603174603175,97.989417989418 2.9629629629629632,97.35449735449737 2.7513227513227516,96.71957671957672 2.7513227513227516,96.08465608465609 2.53968253968254,95.44973544973546 2.3280423280423284,94.81481481481482 2.3280423280423284,94.17989417989419 2.1164021164021167,93.54497354497356 1.9047619047619049,92.91005291005291 1.6931216931216932,92.27513227513228 1.6931216931216932,91.64021164021165 1.4814814814814816,91.00529100529101 1.4814814814814816,90.37037037037038 1.26984126984127,89.73544973544975 1.26984126984127,89.1005291005291 1.0582010582010584,88.46560846560847 1.0582010582010584,87.83068783068784 1.0582010582010584,87.1957671957672 1.0582010582010584,86.56084656084657 1.26984126984127,85.92592592592594 1.4814814814814816,85.29100529100529 1.9047619047619049,84.65608465608466 2.3280423280423284,84.02116402116403 2.7513227513227516,83.59788359788361 3.174603174603175,83.17460317460318 3.8095238095238098,82.96296296296298 4.444444444444445,82.75132275132276 5.07936507936508,82.75132275132276 5.714285714285714,82.53968253968254 6.34920634920635,82.53968253968254 6.984126984126985,82.53968253968254 7.6190476190476195,82.75132275132276 8.253968253968255,82.96296296296298 8.88888888888889,83.17460317460318 9.523809523809524,83.3862433862434 10.15873015873016,83.80952380952381 10.793650793650794,84.02116402116403 11.428571428571429,84.44444444444446 12.063492063492065,84.65608465608466 12.486772486772487,85.07936507936509 13.121693121693122,85.29100529100529 13.756613756613758,85.71428571428572 14.391534391534393,85.92592592592594 15.026455026455027,86.34920634920636 15.661375661375663,86.56084656084657 16.296296296296298,86.98412698412699 16.931216931216934,87.1957671957672 17.566137566137566,87.40740740740742 18.201058201058203,87.40740740740742 18.83597883597884,87.40740740740742 19.47089947089947,87.40740740740742 20.105820105820108,87.40740740740742 20.740740740740744,87.40740740740742 21.375661375661377,87.40740740740742 22.010582010582013,87.1957671957672 22.433862433862437,86.77248677248677 23.06878306878307,86.34920634920636 23.703703703703706,86.13756613756614 24.338624338624342,85.71428571428572 24.761904761904763,85.07936507936509 25.185185185185187,84.65608465608466 25.60846560846561,84.02116402116403 26.031746031746035,83.3862433862434 26.243386243386244,82.75132275132276 26.666666666666668,82.32804232804233 26.87830687830688,81.6931216931217 27.301587301587304,81.05820105820106 27.513227513227516,80.42328042328043 27.724867724867728,79.7883597883598 28.14814814814815,79.36507936507937 28.35978835978836,78.73015873015873 28.571428571428573,78.0952380952381 28.994708994708997,77.46031746031747 29.20634920634921,76.82539682539684 29.41798941798942,76.19047619047619 29.629629629629633,75.55555555555556 30.052910052910054,74.92063492063492 30.264550264550266,74.28571428571429 30.476190476190478,73.65079365079366 30.476190476190478,73.01587301587303 30.68783068783069,72.38095238095238 30.899470899470902,71.74603174603175 30.899470899470902,71.11111111111111 31.111111111111114,70.47619047619048 31.111111111111114,69.84126984126985 31.322751322751326,69.20634920634922 31.322751322751326,68.57142857142858 31.53439153439154,67.93650793650794 31.53439153439154,67.3015873015873 31.53439153439154,66.66666666666667 31.53439153439154,66.03174603174604 31.53439153439154,65.3968253968254 31.322751322751326,64.76190476190477 31.322751322751326,64.12698412698413 31.53439153439154,63.492063492063494 31.53439153439154,62.85714285714286 31.322751322751326,62.22222222222223 31.322751322751326,61.58730158730159 31.322751322751326,60.952380952380956 31.111111111111114,60.31746031746032 31.111111111111114,59.682539682539684 31.111111111111114,59.04761904761905 30.899470899470902,58.41269841269842 30.899470899470902,57.777777777777786 30.68783068783069,57.142857142857146 30.68783068783069,56.50793650793651 30.68783068783069,55.87301587301588 30.476190476190478,55.23809523809524 30.264550264550266,54.60317460317461 30.052910052910054,53.968253968253975 30.052910052910054,53.333333333333336 29.841269841269842,52.6984126984127 29.841269841269842,52.06349206349207 29.629629629629633,51.42857142857143 29.41798941798942,50.7936507936508 29.20634920634921,50.158730158730165 28.994708994708997,49.523809523809526 28.783068783068785,48.88888888888889 28.571428571428573,48.25396825396826 28.35978835978836,47.61904761904762 28.14814814814815,46.98412698412699 27.93650793650794,46.349206349206355 27.513227513227516,45.92592592592593 27.301587301587304,45.29100529100529 26.87830687830688,44.65608465608466 26.455026455026456,44.021164021164026 25.820105820105823,43.5978835978836 25.185185185185187,43.386243386243386 24.55026455026455,42.96296296296297 23.915343915343918,42.75132275132275 23.280423280423282,42.539682539682545 22.645502645502646,42.539682539682545 22.010582010582013,42.539682539682545 21.375661375661377,42.539682539682545 20.740740740740744,42.539682539682545 20.105820105820108,42.539682539682545 19.47089947089947,42.75132275132275 18.83597883597884,42.75132275132275 18.201058201058203,42.96296296296297 17.566137566137566,43.17460317460318 16.931216931216934,43.386243386243386 16.296296296296298,43.5978835978836 15.661375661375663,44.021164021164026 15.026455026455027,44.232804232804234 14.391534391534393,44.65608465608466 13.756613756613758,45.07936507936508 13.121693121693122,45.29100529100529 12.486772486772487,45.714285714285715 11.851851851851853,46.13756613756614 11.216931216931219,46.349206349206355 10.582010582010582,46.77248677248678 9.947089947089948,46.98412698412699 9.312169312169313,47.195767195767196 8.677248677248677,47.195767195767196 8.042328042328043,47.40740740740741 7.407407407407408,47.40740740740741 6.772486772486773,47.40740740740741 6.137566137566138,47.40740740740741 5.502645502645503,47.195767195767196 4.867724867724868,46.98412698412699 4.2328042328042335,46.77248677248678 3.597883597883598,46.349206349206355 3.174603174603175,45.92592592592593 2.53968253968254,45.50264550264551 2.1164021164021167,45.07936507936508 1.6931216931216932,44.44444444444445 1.4814814814814816,43.80952380952381 1.26984126984127,43.17460317460318 1.0582010582010584,42.539682539682545 0.8465608465608466,41.904761904761905 0.8465608465608466,41.26984126984127 0.634920634920635,40.63492063492064 0.634920634920635,40.0 0.634920634920635,39.36507936507937 0.634920634920635,38.730158730158735 0.634920634920635,38.095238095238095 0.4232804232804233,37.46031746031746 0.4232804232804233,36.82539682539683 0.634920634920635,36.19047619047619 0.634920634920635,35.55555555555556 0.4232804232804233,34.920634920634924 0.4232804232804233,34.28571428571429 0.4232804232804233,33.65079365079365 0.4232804232804233,33.01587301587302 0.4232804232804233,32.38095238095239 0.634920634920635,31.746031746031747 0.634920634920635,31.111111111111114 0.634920634920635,30.476190476190478 0.4232804232804233,29.841269841269842 0.4232804232804233,29.20634920634921 0.4232804232804233,28.571428571428573 0.4232804232804233,27.93650793650794 0.4232804232804233,27.301587301587304 0.634920634920635,26.666666666666668 0.634920634920635,26.031746031746035 0.634920634920635,25.3968253968254 0.634920634920635,24.761904761904763 0.4232804232804233,24.12698412698413 0.4232804232804233,23.492063492063494 0.4232804232804233,22.857142857142858 0.4232804232804233,22.222222222222225 0.4232804232804233,21.58730158730159 0.4232804232804233,16.931216931216934" style="fill:none; stroke:#3300bb; stroke-width:1.0"  /><circle cx="0.4232804232804233" cy="16.931216931216934" r="2.0" style="fill:none; stroke:#000000aa; stroke-width:0.25" /><circle cx="170.15873015873018" cy="1.4814814814814816" r="2.0" style="fill:none; stroke:#000000aa; stroke-width:0.25" /><circle cx="180.52910052910053" cy="113.01587301587303" r="2.0" style="fill:none; stroke:#000000aa; stroke-width:0.25" /><circle cx="7.407407407407408" cy="112.3809523809524" r="2.0" style="fill:none; stroke:#000000aa; stroke-width:0.25" /><circle cx="0.4232804232804233" cy="17.98941798941799" r="2.0" style="fill:none; stroke:#ff3366aa; stroke-width:0.25" /><circle cx="170.37037037037038" cy="1.9047619047619049" r="2.0" style="fill:none; stroke:#ff3366aa; stroke-width:0.25" /><circle cx="180.10582010582013" cy="112.5925925925926" r="2.0" style="fill:none; stroke:#ff3366aa; stroke-width:0.25" /><circle cx="7.195767195767196" cy="111.74603174603176" r="2.0" style="fill:none; stroke:#ff3366aa; stroke-width:0.25" /><polyline points="11.851851851851853,15.026455026455027 11.216931216931219,15.238095238095239 10.582010582010582,15.238095238095239 9.947089947089948,15.449735449735451 9.312169312169313,15.449735449735451 8.88888888888889,15.873015873015873 8.253968253968255,15.873015873015873 7.6190476190476195,15.873015873015873 6.984126984126985,15.873015873015873 6.34920634920635,16.084656084656086 5.714285714285714,16.084656084656086 5.07936507936508,16.296296296296298 4.444444444444445,16.50793650793651 3.8095238095238098,16.50793650793651 3.174603174603175,16.50793650793651" style="fill:none; stroke:#001100; stroke-width:1.0" /><polyline points="0.4232804232804233,29.841269841269842 0.4232804232804233,29.20634920634921 0.4232804232804233,28.571428571428573 0.4232804232804233,27.93650793650794 0.4232804232804233,27.301587301587304 0.634920634920635,26.666666666666668 0.634920634920635,26.031746031746035 0.634920634920635,25.3968253968254 0.634920634920635,24.761904761904763 0.4232804232804233,24.12698412698413 0.4232804232804233,23.492063492063494 0.4232804232804233,22.857142857142858 0.4232804232804233,22.222222222222225 0.4232804232804233,21.58730158730159 0.4232804232804233,20.952380952380953" style="fill:none; stroke:#000011; stroke-width:1.0" /><polyline points="170.7936507936508,13.333333333333334 170.7936507936508,12.6984126984127 170.58201058201058,12.063492063492065 170.58201058201058,11.428571428571429 170.58201058201058,10.793650793650794 170.58201058201058,10.15873015873016 170.37037037037038,9.523809523809524 170.37037037037038,8.88888888888889 170.37037037037038,8.253968253968255 170.37037037037038,7.6190476190476195 170.37037037037038,6.984126984126985 170.37037037037038,6.34920634920635 170.37037037037038,5.714285714285714 170.37037037037038,5.07936507936508" style="fill:none; stroke:#001100; stroke-width:1.0" /><polyline points="158.73015873015873,1.26984126984127 159.36507936507937,1.26984126984127 160.0,1.26984126984127 160.63492063492066,1.26984126984127 161.2698412698413,1.4814814814814816 161.90476190476193,1.26984126984127 162.53968253968256,1.4814814814814816 163.1746031746032,1.26984126984127 163.80952380952382,1.26984126984127 164.44444444444446,1.26984126984127 165.0793650793651,1.26984126984127 165.71428571428572,1.26984126984127 166.34920634920636,1.26984126984127 166.984126984127,1.4814814814814816" style="fill:none; stroke:#000011; stroke-width:1.0" /><polyline points="169.31216931216932,117.03703703703705 169.94708994708995,116.82539682539684 170.58201058201058,116.61375661375662 171.21693121693124,116.4021164021164 171.85185185185188,115.97883597883599 172.4867724867725,115.76719576719577 173.12169312169314,115.55555555555557 173.75661375661377,115.34391534391536 174.3915343915344,115.13227513227514 175.02645502645504,114.70899470899472 175.66137566137567,114.49735449735451 176.2962962962963,114.49735449735451 176.93121693121694,114.28571428571429" style="fill:none; stroke:#001100; stroke-width:1.0" /><polyline points="180.10582010582013,100.95238095238096 180.10582010582013,101.5873015873016 180.10582010582013,102.22222222222223 180.10582010582013,102.85714285714286 180.10582010582013,103.4920634920635 180.10582010582013,104.12698412698414 180.10582010582013,104.76190476190477 180.31746031746033,105.3968253968254 180.31746031746033,106.03174603174604 180.31746031746033,106.66666666666667 180.31746031746033,107.3015873015873 180.31746031746033,107.93650793650795 180.31746031746033,108.57142857142858 180.31746031746033,109.20634920634922" style="fill:none; stroke:#000011; stroke-width:1.0" /><polyline points="4.021164021164021,100.31746031746033 4.021164021164021,100.95238095238096 4.444444444444445,101.5873015873016 4.444444444444445,102.22222222222223 4.656084656084657,102.85714285714286 4.867724867724868,103.4920634920635 5.07936507936508,104.12698412698414 5.291005291005291,104.76190476190477 5.291005291005291,105.3968253968254 5.502645502645503,106.03174603174604 5.714285714285714,106.66666666666667 5.9259259259259265,107.3015873015873 6.137566137566138,107.93650793650795 6.34920634920635,108.57142857142858" style="fill:none; stroke:#001100; stroke-width:1.0" /><polyline points="18.412698412698415,114.28571428571429 17.77777777777778,114.07407407407408 17.142857142857146,114.07407407407408 16.50793650793651,113.86243386243387 15.873015873015873,113.65079365079366 15.238095238095239,113.65079365079366 14.603174603174605,113.43915343915344 13.96825396825397,113.43915343915344 13.333333333333334,113.22751322751324 12.6984126984127,113.22751322751324 12.063492063492065,113.01587301587303 11.428571428571429,113.01587301587303 10.793650793650794,112.80423280423281 10.15873015873016,112.80423280423281" style="fill:none; stroke:#000011; stroke-width:1.0" /><polyline points="3.174603174603175,16.50793650793651 -17.77777777777778,20.105820105820108" style="fill:none; stroke:#ffaa00; stroke-width:0.4" /><polyline points="0.4232804232804233,20.952380952380953 0.4232804232804233,-0.21164021164021166" style="fill:none; stroke:#aaff00; stroke-width:0.4" /><polyline points="170.37037037037038,5.07936507936508 169.31216931216932,-16.084656084656086" style="fill:none; stroke:#ffaa00; stroke-width:0.4" /><polyline points="166.984126984127,1.4814814814814816 188.14814814814815,2.1164021164021167" style="fill:none; stroke:#aaff00; stroke-width:0.4" /><polyline points="176.93121693121694,114.28571428571429 196.82539682539684,107.0899470899471" style="fill:none; stroke:#ffaa00; stroke-width:0.4" /><polyline points="180.31746031746033,109.20634920634922 180.95238095238096,130.37037037037038" style="fill:none; stroke:#aaff00; stroke-width:0.4" /><polyline points="6.34920634920635,108.57142857142858 12.063492063492065,128.88888888888889" style="fill:none; stroke:#ffaa00; stroke-width:0.4" /><polyline points="10.15873015873016,112.80423280423281 -10.582010582010582,108.994708994709" style="fill:none; stroke:#aaff00; stroke-width:0.4" /><circle cx="93.54497354497356" cy="63.70370370370371" r="1.0" style="fill:#444444; stroke-width:0" /><circle cx="114.49735449735451" cy="28.783068783068785" r="10.582010582010582" style="fill:#ff770022; stroke-width:0" /><circle cx="114.49735449735451" cy="28.783068783068785" r="1.0" style="fill:#ff7700; stroke-width:0" /></svg>