<?xml version="1.0" encoding="UTF-8" standalone="no"?><svg width="562.5396825396825" height="557.4603174603175" viewBox="-10 -10 207.51322751322752 205.82010582010582" xmlns="http://www.w3.org/2000/svg" xmlns:xlink="http://www.w3.org/1999/xlink"><polyline points="112.3809523809524,-0.4232804232804233 114.70899470899472,2.9629629629629632 115.13227513227514,3.597883597883598 115.55555555555557,4.2328042328042335 115.97883597883599,4.656084656084657 116.4021164021164,5.291005291005291 116.82539682539684,5.9259259259259265 117.24867724867725,6.34920634920635 117.67195767195768,6.984126984126985 118.0952380952381,7.6190476190476195 118.51851851851853,8.042328042328043 118.94179894179895,8.677248677248677 119.36507936507937,9.312169312169313 119.7883597883598,9.947089947089948 120.21164021164022,10.582010582010582 120.63492063492065,11.005291005291006 121.05820105820106,11.640211640211641 121.4814814814815,12.275132275132275 121.90476190476191,12.910052910052912 122.32804232804234,13.333333333333334 122.75132275132276,13.96825396825397 123.17460317460318,14.603174603174605 123.59788359788361,15.238095238095239 124.02116402116403,15.661375661375663 124.44444444444446,16.084656084656086 124.86772486772487,16.71957671957672 125.2910052910053,17.354497354497354 125.71428571428572,17.98941798941799 126.13756613756615,18.624338624338627 126.56084656084657,19.25925925925926 126.98412698412699,19.894179894179896 127.40740740740742,20.529100529100532 127.61904761904763,21.164021164021165 128.04232804232805,21.58730158730159 128.46560846560848,22.222222222222225 128.88888888888889,22.857142857142858 129.31216931216932,23.492063492063494 129.52380952380955,24.12698412698413 129.94708994708995,24.55026455026455 130.15873015873018,25.185185185185187 130.58201058201058,25.820105820105823 130.7936507936508,26.455026455026456 131.21693121693121,26.87830687830688 131.42857142857144,27.513227513227516 131.85185185185185,28.14814814814815 132.06349206349208,28.783068783068785 132.4867724867725,29.20634920634921 132.9100529100529,29.841269841269842 133.12169312169314,30.476190476190478 133.54497354497354,31.111111111111114 133.96825396825398,31.746031746031747 134.17989417989418,32.38095238095239 134.6031746031746,33.01587301587302 134.81481481481484,33.65079365079365 135.02645502645504,34.28571428571429 135.23809523809524,34.920634920634924 135.44973544973547,35.55555555555556 135.66137566137567,36.19047619047619 135.87301587301587,36.82539682539683 136.0846560846561,37.46031746031746 136.0846560846561,38.095238095238095 136.0846560846561,38.730158730158735 136.2962962962963,39.36507936507937 136.2962962962963,40.0 136.0846560846561,40.63492063492064 135.66137566137567,41.26984126984127 135.23809523809524,41.6931216931217 134.81481481481484,42.11640211640212 134.17989417989418,42.32804232804233 133.75661375661377,42.75132275132275 133.12169312169314,42.96296296296297 132.4867724867725,43.17460317460318 131.85185185185185,43.17460317460318 131.21693121693121,43.386243386243386 130.58201058201058,43.386243386243386 129.94708994708995,43.386243386243386 129.31216931216932,43.386243386243386 128.67724867724868,43.17460317460318 128.04232804232805,43.17460317460318 127.40740740740742,43.17460317460318 126.77248677248679,42.96296296296297 126.13756613756615,42.75132275132275 125.5026455026455,42.75132275132275 124.86772486772487,42.539682539682545 124.23280423280424,42.539682539682545 123.59788359788361,42.32804232804233 122.96296296296298,42.11640211640212 122.32804232804234,41.904761904761905 121.6931216931217,41.904761904761905 121.05820105820106,41.6931216931217 120.42328042328043,41.6931216931217 119.7883597883598,41.6931216931217 119.15343915343917,41.6931216931217 118.51851851851853,41.6931216931217 117.88359788359789,41.6931216931217 117.24867724867725,41.6931216931217 116.61375661375662,41.6931216931217 115.97883597883599,41.904761904761905 115.34391534391536,41.904761904761905 114.70899470899472,42.11640211640212 114.07407407407408,42.11640211640212 113.43915343915344,42.32804232804233 112.80423280423281,42.539682539682545 112.16931216931218,42.539682539682545 111.53439153439155,42.75132275132275 110.89947089947091,42.96296296296297 110.26455026455027,43.386243386243386 109.62962962962963,43.80952380952381 108.994708994709,44.232804232804234 108.35978835978837,44.44444444444445 107.93650793650795,44.867724867724874 107.51322751322752,45.29100529100529 107.0899470899471,45.714285714285715 106.87830687830689,46.349206349206355 106.45502645502647,46.77248677248678 106.03174603174604,47.40740740740741 105.82010582010582,48.042328042328045 105.60846560846562,48.677248677248684 105.3968253968254,49.31216931216932 105.3968253968254,49.94708994708995 105.18518518518519,50.58201058201058 105.3968253968254,51.21693121693122 105.18518518518519,51.851851851851855 105.18518518518519,52.48677248677249 105.18518518518519,53.12169312169313 105.18518518518519,53.75661375661376 105.18518518518519,54.39153439153439 105.18518518518519,55.02645502645503 105.18518518518519,55.661375661375665 105.3968253968254,56.2962962962963 105.3968253968254,56.93121693121694 105.60846560846562,57.56613756613757 105.82010582010582,58.2010582010582 105.82010582010582,58.83597883597884 106.03174603174604,59.470899470899475 106.24338624338625,60.10582010582011 106.45502645502647,60.74074074074075 106.66666666666667,61.37566137566138 106.87830687830689,62.01058201058201 107.0899470899471,62.64550264550265 107.3015873015873,63.280423280423285 107.51322751322752,63.91534391534392 107.93650793650795,64.55026455026456 108.14814814814815,65.18518518518519 108.35978835978837,65.82010582010582 108.78306878306879,66.24338624338625 108.994708994709,66.87830687830689 109.41798941798943,67.3015873015873 109.62962962962963,67.93650793650794 110.05291005291006,68.57142857142858 110.26455026455027,69.20634920634922 110.6878306878307,69.62962962962963 110.89947089947091,70.26455026455027 111.32275132275133,70.6878306878307 111.53439153439155,71.32275132275133 111.95767195767196,71.74603174603175 112.3809523809524,72.38095238095238 112.80423280423281,73.01587301587303 113.22751322751324,73.65079365079366 113.65079365079366,74.28571428571429 114.07407407407408,74.92063492063492 114.49735449735451,75.34391534391536 114.92063492063492,75.97883597883599 115.34391534391536,76.4021164021164 115.76719576719577,77.03703703703704 116.1904761904762,77.46031746031747 116.61375661375662,78.0952380952381 117.03703703703705,78.73015873015873 117.46031746031747,79.36507936507937 117.88359788359789,80.0 118.30687830687832,80.42328042328043 118.73015873015873,81.05820105820106 119.15343915343917,81.48148148148148 119.57671957671958,81.90476190476191 120.00000000000001,82.32804232804233 120.42328042328043,82.75132275132276 120.84656084656086,83.17460317460318 121.26984126984128,83.59788359788361 121.6931216931217,84.02116402116403 122.11640211640213,84.44444444444446 122.53968253968254,84.86772486772487 123.17460317460318,85.29100529100529 123.80952380952382,85.71428571428572 124.44444444444446,85.92592592592594 125.07936507936509,86.34920634920636 125.71428571428572,86.77248677248677 126.34920634920636,86.98412698412699 126.98412698412699,87.1957671957672 127.61904761904763,87.40740740740742 128.25396825396825,87.61904761904762 128.88888888888889,88.04232804232805 129.52380952380955,88.04232804232805 130.15873015873018,88.04232804232805 130.7936507936508,88.04232804232805 131.42857142857144,88.04232804232805 132.06349206349208,88.04232804232805 132.6984126984127,88.04232804232805 133.33333333333334,87.83068783068784 133.96825396825398,87.83068783068784 134.6031746031746,87.61904761904762 135.23809523809524,87.40740740740742 135.87301587301587,87.1957671957672 136.5079365079365,86.98412698412699 137.14285714285717,86.77248677248677 137.56613756613757,86.34920634920636 138.2010582010582,86.13756613756614 138.62433862433863,85.71428571428572 139.04761904761907,85.29100529100529 139.6825396825397,84.86772486772487 140.10582010582013,84.44444444444446 140.52910052910053,84.02116402116403 141.16402116402116,83.59788359788361 141.5873015873016,83.17460317460318 142.01058201058203,82.75132275132276 142.43386243386246,82.32804232804233 142.64550264550266,81.6931216931217 143.0687830687831,81.26984126984128 143.4920634920635,80.63492063492065 143.91534391534393,80.0 144.33862433862436,79.36507936507937 144.76190476190476,78.73015873015873 144.973544973545,78.0952380952381 145.39682539682542,77.46031746031747 145.60846560846562,76.82539682539684 145.82010582010582,76.19047619047619 146.24338624338625,75.55555555555556 146.45502645502646,74.92063492063492 146.66666666666669,74.28571428571429 147.0899470899471,73.65079365079366 147.51322751322752,73.01587301587303 147.93650793650795,72.5925925925926 148.35978835978838,72.16931216931218 148.99470899470901,71.74603174603175 149.62962962962965,71.32275132275133 150.26455026455028,71.11111111111111 150.8994708994709,71.11111111111111 151.53439153439155,71.11111111111111 152.16931216931218,71.11111111111111 152.8042328042328,71.11111111111111 153.43915343915344,71.11111111111111 154.07407407407408,71.32275132275133 154.7089947089947,71.53439153439155 155.13227513227514,71.95767195767196 155.76719576719577,72.38095238095238 156.1904761904762,72.80423280423281 156.61375661375664,73.43915343915344 157.03703703703704,74.07407407407408 157.24867724867727,74.70899470899471 157.67195767195767,75.34391534391536 157.8835978835979,75.97883597883599 158.30687830687833,76.61375661375662 158.51851851851853,77.24867724867725 158.73015873015873,77.88359788359789 158.94179894179896,78.51851851851852 159.36507936507937,79.15343915343917 159.5767195767196,79.7883597883598 160.0,80.42328042328043 160.21164021164023,81.05820105820106 160.42328042328043,81.6931216931217 160.84656084656086,82.32804232804233 161.05820105820106,82.96296296296298 161.2698412698413,83.59788359788361 161.6931216931217,84.02116402116403 161.90476190476193,84.65608465608466 162.32804232804233,85.29100529100529 162.75132275132276,85.71428571428572 162.96296296296296,86.34920634920636 163.3862433862434,86.77248677248677 163.80952380952382,87.40740740740742 164.02116402116403,88.04232804232805 164.44444444444446,88.46560846560847 164.65608465608466,89.1005291005291 165.0793650793651,89.52380952380953 165.50264550264552,90.15873015873017 165.71428571428572,90.7936507936508 166.13756613756615,91.42857142857143 166.56084656084658,92.06349206349208 166.984126984127,92.69841269841271 167.40740740740742,93.33333333333334 167.61904761904762,93.96825396825398 168.04232804232805,94.60317460317461 168.46560846560848,95.23809523809524 168.8888888888889,95.87301587301587 169.31216931216932,96.2962962962963 169.73544973544975,96.93121693121694 170.15873015873018,97.56613756613757 170.58201058201058,98.2010582010582 171.005291005291,98.83597883597885 171.42857142857144,99.47089947089948 171.85185185185188,100.10582010582011 172.27513227513228,100.74074074074075 172.6984126984127,101.37566137566138 173.12169312169314,102.01058201058201 173.54497354497354,102.43386243386244 173.96825396825398,102.85714285714286 174.3915343915344,103.4920634920635 174.81481481481484,103.91534391534393 175.23809523809524,104.55026455026456 175.66137566137567,105.18518518518519 176.0846560846561,105.82010582010582 176.50793650793653,106.24338624338625 176.93121693121694,106.87830687830689 177.56613756613757,107.3015873015873 177.989417989418,107.93650793650795 178.41269841269843,108.57142857142858 178.83597883597884,108.994708994709 179.25925925925927,109.62962962962963 179.6825396825397,110.26455026455027 180.10582010582013,110.89947089947091 180.52910052910053,111.32275132275133 180.95238095238096,111.95767195767196 181.3756613756614,112.5925925925926 181.79894179894183,113.01587301587303 182.22222222222223,113.65079365079366 182.64550264550266,114.28571428571429 183.0687830687831,114.92063492063492 183.4920634920635,115.55555555555557 183.91534391534393,116.1904761904762 184.33862433862436,116.82539682539684 184.55026455026456,117.46031746031747 184.973544973545,117.88359788359789 185.39682539682542,118.51851851851853 187.30158730158732,121.26984126984128" style="fill:none; stroke:#cc0000; stroke-width:1.0"  /><polyline points="187.30158730158732,121.26984126984128 184.55026455026456,123.17460317460318 183.91534391534393,123.59788359788361 183.2804232804233,124.02116402116403 182.64550264550266,124.44444444444446 182.01058201058203,124.86772486772487 181.3756613756614,125.2910052910053 180.74074074074076,125.71428571428572 180.10582010582013,126.13756613756615 179.4708994708995,126.56084656084657 179.04761904761907,126.98412698412699 178.41269841269843,127.40740740740742 177.7777777777778,127.83068783068784 177.35449735449737,128.25396825396825 176.93121693121694,128.67724867724868 176.2962962962963,129.10052910052912 175.87301587301587,129.52380952380955 175.23809523809524,129.94708994708995 174.6031746031746,130.37037037037038 173.96825396825398,130.7936507936508 173.33333333333334,131.21693121693121 172.6984126984127,131.64021164021165 172.06349206349208,131.85185185185185 171.64021164021165,132.27513227513228 171.005291005291,132.6984126984127 170.37037037037038,133.12169312169314 169.73544973544975,133.54497354497354 169.10052910052912,133.96825396825398 168.46560846560848,134.3915343915344 168.04232804232805,134.81481481481484 167.61904761904762,135.23809523809524 167.19576719576722,135.66137566137567 166.7724867724868,136.2962962962963 166.56084656084658,136.93121693121694 166.34920634920636,137.56613756613757 166.13756613756615,138.2010582010582 165.92592592592595,138.83597883597884 165.92592592592595,139.47089947089947 165.92592592592595,140.10582010582013 165.92592592592595,140.74074074074076 166.13756613756615,141.3756613756614 166.34920634920636,142.01058201058203 166.56084656084658,142.64550264550266 166.56084656084658,143.2804232804233 166.984126984127,143.91534391534393 167.40740740740742,144.55026455026456 167.61904761904762,145.1851851851852 168.04232804232805,145.82010582010582 168.46560846560848,146.45502645502646 168.8888888888889,147.0899470899471 169.31216931216932,147.72486772486775 169.73544973544975,148.14814814814815 170.15873015873018,148.57142857142858 170.58201058201058,148.99470899470901 171.005291005291,149.41798941798942 171.42857142857144,149.84126984126985 171.85185185185188,150.26455026455028 172.27513227513228,150.8994708994709 172.6984126984127,151.32275132275134 173.12169312169314,151.74603174603175 173.54497354497354,152.16931216931218 173.96825396825398,152.8042328042328 174.3915343915344,153.22751322751324 174.81481481481484,153.86243386243387 175.02645502645504,154.4973544973545 175.44973544973547,155.13227513227514 175.87301587301587,155.55555555555557 175.87301587301587,156.1904761904762 175.87301587301587,156.82539682539684 175.87301587301587,157.46031746031747 175.87301587301587,158.0952380952381 175.66137566137567,158.73015873015873 175.66137566137567,159.36507936507937 175.66137566137567,160.0 175.23809523809524,160.63492063492066 175.02645502645504,161.2698412698413 174.81481481481484,161.90476190476193 174.3915343915344,162.53968253968256 173.96825396825398,162.96296296296296 173.54497354497354,163.59788359788362 173.12169312169314,164.23280423280426 172.6984126984127,164.8677248677249 172.06349206349208,165.2910052910053 171.64021164021165,165.71428571428572 171.005291005291,166.13756613756615 170.37037037037038,166.56084656084658 169.73544973544975,166.984126984127 169.10052910052912,167.19576719576722 168.46560846560848,167.61904761904762 167.83068783068785,167.83068783068785 167.19576719576722,168.25396825396825 166.56084656084658,168.46560846560848 165.92592592592595,168.67724867724868 165.2910052910053,168.8888888888889 164.65608465608466,169.10052910052912 164.02116402116403,169.31216931216932 163.3862433862434,169.31216931216932 162.75132275132276,169.52380952380955 162.11640211640213,169.52380952380955 161.4814814814815,169.73544973544975 160.84656084656086,169.73544973544975 160.21164021164023,169.73544973544975 159.5767195767196,169.73544973544975 158.94179894179896,169.73544973544975 158.30687830687833,169.73544973544975 157.67195767195767,169.52380952380955 157.03703703703704,169.52380952380955 156.4021164021164,169.31216931216932 155.76719576719577,169.10052910052912 155.13227513227514,168.8888888888889 154.4973544973545,168.46560846560848 153.86243386243387,168.04232804232805 153.22751322751324,167.61904761904762 152.8042328042328,167.19576719576722 152.38095238095238,166.7724867724868 151.95767195767198,166.34920634920636 151.53439153439155,165.71428571428572 151.11111111111111,165.2910052910053 150.6878306878307,164.65608465608466 150.26455026455028,164.02116402116403 149.84126984126985,163.3862433862434 149.62962962962965,162.75132275132276 149.20634920634922,162.11640211640213 148.99470899470901,161.4814814814815 148.57142857142858,161.05820105820106 148.35978835978838,160.42328042328043 148.14814814814815,159.7883597883598 147.72486772486775,159.15343915343917 147.51322751322752,158.51851851851853 147.30158730158732,157.8835978835979 146.8783068783069,157.24867724867727 146.66666666666669,156.61375661375664 146.45502645502646,155.978835978836 146.03174603174605,155.34391534391534 145.60846560846562,154.7089947089947 145.39682539682542,154.07407407407408 145.1851851851852,153.43915343915344 144.973544973545,152.8042328042328 144.55026455026456,152.16931216931218 144.33862433862436,151.53439153439155 143.91534391534393,150.8994708994709 143.70370370370372,150.26455026455028 143.4920634920635,149.62962962962965 143.2804232804233,148.99470899470901 142.85714285714286,148.35978835978838 142.43386243386246,147.72486772486775 142.22222222222223,147.0899470899471 142.01058201058203,146.45502645502646 141.5873015873016,145.82010582010582 141.16402116402116,145.1851851851852 140.74074074074076,144.55026455026456 140.31746031746033,143.91534391534393 139.8941798941799,143.2804232804233 139.47089947089947,142.85714285714286 139.04761904761907,142.43386243386246 138.41269841269843,142.01058201058203 137.989417989418,141.5873015873016 137.35449735449737,141.16402116402116 136.71957671957674,140.95238095238096 136.0846560846561,140.52910052910053 135.44973544973547,140.31746031746033 134.81481481481484,140.10582010582013 134.17989417989418,139.8941798941799 133.54497354497354,139.8941798941799 132.9100529100529,139.8941798941799 132.27513227513228,139.8941798941799 131.64021164021165,139.8941798941799 131.005291005291,139.8941798941799 130.37037037037038,140.10582010582013 129.73544973544975,140.10582010582013 129.10052910052912,140.31746031746033 128.46560846560848,140.52910052910053 127.83068783068784,140.74074074074076 127.1957671957672,140.95238095238096 126.77248677248679,141.3756613756614 126.13756613756615,141.5873015873016 125.5026455026455,141.7989417989418 124.86772486772487,142.22222222222223 124.23280423280424,142.64550264550266 123.59788359788361,143.0687830687831 123.17460317460318,143.4920634920635 122.53968253968254,143.91534391534393 122.11640211640213,144.33862433862436 121.4814814814815,144.76190476190476 120.84656084656086,145.1851851851852 120.42328042328043,145.60846560846562 120.00000000000001,146.03174603174605 119.57671957671958,146.45502645502646 119.15343915343917,146.8783068783069 118.73015873015873,147.30158730158732 118.30687830687832,147.72486772486775 117.88359788359789,148.14814814814815 117.46031746031747,148.57142857142858 117.03703703703705,148.99470899470901 116.61375661375662,149.41798941798942 116.1904761904762,149.84126984126985 115.76719576719577,150.47619047619048 115.34391534391536,150.8994708994709 114.92063492063492,151.32275132275134 114.49735449735451,151.95767195767198 114.07407407407408,152.38095238095238 113.65079365079366,152.8042328042328 113.22751322751324,153.43915343915344 112.80423280423281,153.86243386243387 112.3809523809524,154.4973544973545 111.95767195767196,154.92063492063494 111.53439153439155,155.55555555555557 111.11111111111111,156.1904761904762 110.6878306878307,156.82539682539684 110.26455026455027,157.24867724867727 109.84126984126985,157.67195767195767 109.41798941798943,158.0952380952381 108.994708994709,158.51851851851853 108.57142857142858,159.15343915343917 108.14814814814815,159.5767195767196 107.72486772486774,160.0 107.3015873015873,160.63492063492066 106.87830687830689,161.2698412698413 106.45502645502647,161.6931216931217 106.03174603174604,162.11640211640213 105.60846560846562,162.53968253968256 105.18518518518519,162.96296296296296 104.76190476190477,163.3862433862434 104.33862433862434,163.80952380952382 103.91534391534393,164.23280423280426 103.4920634920635,164.8677248677249 103.06878306878308,165.2910052910053 102.64550264550266,165.92592592592595 102.22222222222223,166.34920634920636 101.79894179894181,166.7724867724868 101.37566137566138,167.19576719576722 100.74074074074075,167.61904761904762 100.31746031746033,168.04232804232805 99.8941798941799,168.46560846560848 99.47089947089948,168.8888888888889 99.04761904761905,169.31216931216932 98.62433862433863,169.73544973544975 98.2010582010582,170.15873015873018 97.77777777777779,170.58201058201058 97.35449735449737,171.005291005291 96.71957671957672,171.42857142857144 96.2962962962963,171.85185185185188 95.87301587301587,172.27513227513228 95.44973544973546,172.6984126984127 94.81481481481482,173.12169312169314 94.39153439153439,173.54497354497354 93.96825396825398,173.96825396825398 93.33333333333334,174.3915343915344 92.91005291005291,174.81481481481484 92.4867724867725,175.23809523809524 91.85185185185186,175.66137566137567 91.42857142857143,176.0846560846561 90.7936507936508,176.2962962962963 90.37037037037038,176.71957671957674 89.94708994708995,177.14285714285717 89.31216931216932,177.56613756613757 88.8888888888889,177.989417989418 88.25396825396827,178.41269841269843 87.61904761904762,178.83597883597884 87.1957671957672,179.25925925925927 86.56084656084657,179.6825396825397 86.13756613756614,180.10582010582013 85.5026455026455,180.52910052910053 84.86772486772487,180.95238095238096 84.23280423280424,181.3756613756614 83.59788359788361,181.79894179894183 82.96296296296298,182.22222222222223 82.32804232804233,182.64550264550266 81.6931216931217,183.0687830687831 81.05820105820106,183.4920634920635 80.42328042328043,183.91534391534393 79.7883597883598,184.12698412698415 77.24867724867725,185.82010582010582" style="fill:none; stroke:#999900; stroke-width:1.0"  /><polyline points="77.24867724867725,185.82010582010582 74.92063492063492,183.2804232804233 74.49735449735451,182.85714285714286 74.07407407407408,182.43386243386246 73.65079365079366,181.79894179894183 73.22751322751323,181.3756613756614 72.80423280423281,180.95238095238096 72.16931216931218,180.52910052910053 71.74603174603175,180.10582010582013 71.32275132275133,179.6825396825397 70.8994708994709,179.25925925925927 70.47619047619048,178.62433862433863 70.05291005291006,178.2010582010582 69.62962962962963,177.7777777777778 69.20634920634922,177.35449735449737 68.78306878306879,176.71957671957674 68.35978835978837,176.2962962962963 67.93650793650794,175.87301587301587 67.51322751322752,175.23809523809524 67.08994708994709,174.81481481481484 66.66666666666667,174.3915343915344 66.24338624338625,173.96825396825398 65.82010582010582,173.54497354497354 65.3968253968254,172.9100529100529 64.97354497354497,172.4867724867725 64.55026455026456,172.06349206349208 64.12698412698413,171.64021164021165 63.70370370370371,171.005291005291 63.280423280423285,170.58201058201058 62.85714285714286,170.15873015873018 62.43386243386244,169.52380952380955 62.01058201058201,168.8888888888889 61.58730158730159,168.46560846560848 61.16402116402117,167.83068783068785 60.74074074074075,167.40740740740742 60.31746031746032,166.7724867724868 59.8941798941799,166.34920634920636 59.470899470899475,165.71428571428572 59.04761904761905,165.2910052910053 58.62433862433863,164.65608465608466 58.2010582010582,164.02116402116403 57.777777777777786,163.59788359788362 57.35449735449736,162.96296296296296 56.93121693121694,162.32804232804233 56.50793650793651,161.90476190476193 56.08465608465609,161.2698412698413 55.661375661375665,160.84656084656086 55.23809523809524,160.42328042328043 54.81481481481482,159.7883597883598 54.39153439153439,159.36507936507937 53.968253968253975,158.94179894179896 53.54497354497355,158.51851851851853 53.12169312169313,158.0952380952381 52.6984126984127,157.67195767195767 52.27513227513228,157.24867724867727 51.851851851851855,156.82539682539684 51.21693121693122,156.4021164021164 50.7936507936508,155.978835978836 50.158730158730165,155.55555555555557 49.73544973544974,155.13227513227514 49.31216931216932,154.7089947089947 48.88888888888889,154.2857142857143 48.25396825396826,153.86243386243387 47.61904761904762,153.43915343915344 46.98412698412699,153.01587301587304 46.349206349206355,152.5925925925926 45.714285714285715,152.38095238095238 45.07936507936508,152.16931216931218 44.44444444444445,151.95767195767198 43.80952380952381,151.95767195767198 43.17460317460318,151.74603174603175 42.539682539682545,151.74603174603175 41.904761904761905,151.95767195767198 41.26984126984127,151.95767195767198 40.63492063492064,152.16931216931218 40.0,152.5925925925926 39.36507936507937,153.01587301587304 38.730158730158735,153.43915343915344 38.30687830687831,153.86243386243387 37.67195767195768,154.2857142857143 37.248677248677254,154.7089947089947 36.82539682539683,155.34391534391534 36.613756613756614,155.978835978836 35.97883597883598,156.4021164021164 36.19047619047619,157.03703703703704 35.76719576719577,157.67195767195767 35.55555555555556,158.30687830687833 35.55555555555556,158.94179894179896 35.34391534391535,159.5767195767196 35.34391534391535,160.21164021164023 35.34391534391535,160.84656084656086 35.34391534391535,161.4814814814815 35.13227513227513,162.11640211640213 35.13227513227513,162.75132275132276 34.920634920634924,163.3862433862434 34.920634920634924,164.02116402116403 34.70899470899471,164.65608465608466 34.4973544973545,165.2910052910053 34.074074074074076,165.92592592592595 33.86243386243387,166.56084656084658 33.43915343915344,167.19576719576722 33.22751322751323,167.83068783068785 32.804232804232804,168.25396825396825 32.38095238095239,168.8888888888889 31.95767195767196,169.31216931216932 31.53439153439154,169.73544973544975 31.111111111111114,170.37037037037038 30.68783068783069,170.7936507936508 30.264550264550266,171.21693121693124 29.841269841269842,171.64021164021165 29.41798941798942,172.06349206349208 28.783068783068785,172.4867724867725 28.14814814814815,172.9100529100529 27.513227513227516,173.33333333333334 26.87830687830688,173.54497354497354 26.243386243386244,173.75661375661377 25.60846560846561,173.96825396825398 24.973544973544975,173.96825396825398 24.338624338624342,173.96825396825398 23.703703703703706,174.1798941798942 23.06878306878307,173.96825396825398 22.433862433862437,173.96825396825398 21.7989417989418,173.96825396825398 21.164021164021165,173.75661375661377 20.529100529100532,173.54497354497354 19.894179894179896,173.33333333333334 19.25925925925926,173.12169312169314 18.624338624338627,172.9100529100529 17.98941798941799,172.9100529100529 17.354497354497354,172.4867724867725 16.71957671957672,172.27513227513228 16.084656084656086,172.06349206349208 15.661375661375663,171.64021164021165 15.026455026455027,171.42857142857144 14.391534391534393,171.005291005291 13.756613756613758,170.58201058201058 13.121693121693122,170.15873015873018 12.486772486772487,169.73544973544975 11.851851851851853,169.31216931216932 11.428571428571429,168.8888888888889 11.005291005291006,168.46560846560848 10.582010582010582,168.04232804232805 10.15873015873016,167.61904761904762 9.735449735449736,167.19576719576722 9.312169312169313,166.7724867724868 8.88888888888889,166.34920634920636 8.465608465608467,165.71428571428572 8.042328042328043,165.0793650793651 7.6190476190476195,164.44444444444446 7.195767195767196,164.02116402116403 6.984126984126985,163.3862433862434 6.560846560846561,162.75132275132276 6.137566137566138,162.11640211640213 5.9259259259259265,161.4814814814815 5.714285714285714,160.84656084656086 5.291005291005291,160.21164021164023 5.07936507936508,159.5767195767196 4.867724867724868,158.94179894179896 4.656084656084657,158.30687830687833 4.656084656084657,157.67195767195767 4.444444444444445,157.03703703703704 4.2328042328042335,156.4021164021164 4.021164021164021,155.76719576719577 3.8095238095238098,155.13227513227514 3.8095238095238098,154.4973544973545 3.597883597883598,153.86243386243387 3.597883597883598,153.22751322751324 3.597883597883598,152.5925925925926 3.597883597883598,151.95767195767198 3.3862433862433865,151.32275132275134 3.3862433862433865,150.6878306878307 3.597883597883598,150.05291005291005 3.597883597883598,149.41798941798942 3.8095238095238098,148.78306878306879 4.021164021164021,148.14814814814815 4.2328042328042335,147.51322751322752 4.444444444444445,146.8783068783069 4.867724867724868,146.24338624338625 5.291005291005291,145.60846560846562 5.714285714285714,145.1851851851852 6.137566137566138,144.55026455026456 6.560846560846561,144.12698412698413 6.984126984126985,143.70370370370372 7.6190476190476195,143.2804232804233 8.042328042328043,142.85714285714286 8.677248677248677,142.64550264550266 9.100529100529101,142.22222222222223 9.735449735449736,142.01058201058203 10.370370370370372,141.5873015873016 11.005291005291006,141.3756613756614 11.640211640211641,141.16402116402116 12.275132275132275,140.95238095238096 12.910052910052912,140.74074074074076 13.544973544973546,140.74074074074076 14.17989417989418,140.74074074074076 14.814814814814817,140.52910052910053 15.449735449735451,140.52910052910053 16.084656084656086,140.74074074074076 16.71957671957672,140.52910052910053 17.354497354497354,140.52910052910053 17.98941798941799,140.52910052910053 18.624338624338627,140.52910052910053 19.25925925925926,140.52910052910053 19.894179894179896,140.52910052910053 20.529100529100532,140.52910052910053 21.164021164021165,140.52910052910053 21.7989417989418,140.52910052910053 22.433862433862437,140.31746031746033 23.06878306878307,140.10582010582013 23.703703703703706,140.10582010582013 24.338624338624342,140.10582010582013 24.973544973544975,139.8941798941799 25.60846560846561,139.6825396825397 26.243386243386244,139.47089947089947 26.87830687830688,139.04761904761907 27.513227513227516,138.83597883597884 28.14814814814815,138.41269841269843 28.571428571428573,137.989417989418 28.994708994708997,137.56613756613757 29.629629629629633,137.14285714285717 30.052910052910054,136.71957671957674 30.264550264550266,136.0846560846561 30.68783068783069,135.66137566137567 30.68783068783069,135.02645502645504 30.899470899470902,134.3915343915344 31.322751322751326,133.75661375661377 31.322751322751326,133.12169312169314 31.111111111111114,132.4867724867725 31.111111111111114,131.85185185185185 31.111111111111114,131.21693121693121 30.68783068783069,130.58201058201058 30.264550264550266,129.94708994708995 30.052910052910054,129.31216931216932 29.841269841269842,128.67724867724868 29.41798941798942,128.25396825396825 28.994708994708997,127.83068783068784 28.571428571428573,127.1957671957672 28.14814814814815,126.77248677248679 27.724867724867728,126.34920634920636 27.301587301587304,125.92592592592594 26.87830687830688,125.5026455026455 26.455026455026456,125.07936507936509 26.031746031746035,124.65608465608466 25.60846560846561,124.23280423280424 24.973544973544975,123.80952380952382 24.55026455026455,123.3862433862434 23.915343915343918,122.96296296296298 23.492063492063494,122.53968253968254 22.857142857142858,122.11640211640213 22.222222222222225,121.6931216931217 21.58730158730159,121.26984126984128 20.952380952380953,120.84656084656086 20.31746031746032,120.63492063492065 19.682539682539684,120.42328042328043 19.047619047619047,120.00000000000001 18.412698412698415,119.57671957671958 17.77777777777778,119.36507936507937 17.142857142857146,118.94179894179895 16.50793650793651,118.73015873015873 15.873015873015873,118.30687830687832 15.238095238095239,117.88359788359789 14.603174603174605,117.67195767195768 13.96825396825397,117.24867724867725 13.333333333333334,117.03703703703705 12.910052910052912,116.61375661375662 12.275132275132275,116.4021164021164 11.640211640211641,115.97883597883599 11.005291005291006,115.55555555555557 10.370370370370372,115.13227513227514 9.735449735449736,114.70899470899472 9.100529100529101,114.28571428571429 8.465608465608467,113.86243386243387 7.830687830687832,113.43915343915344 7.195767195767196,113.22751322751324 6.772486772486773,112.80423280423281 6.137566137566138,112.3809523809524 5.502645502645503,111.95767195767196 4.867724867724868,111.74603174603176 4.444444444444445,111.32275132275133 3.8095238095238098,110.89947089947091 3.174603174603175,110.47619047619048 -0.21164021164021166,108.35978835978837" style="fill:none; stroke:#00aa99; stroke-width:1.0"  /><polyline points="-0.21164021164021166,108.35978835978837 2.3280423280423284,106.45502645502647 2.7513227513227516,105.82010582010582 3.3862433862433865,105.3968253968254 3.8095238095238098,104.97354497354497 4.444444444444445,104.55026455026456 5.07936507936508,104.12698412698414 5.714285714285714,103.70370370370371 6.137566137566138,103.28042328042329 6.772486772486773,102.85714285714286 7.407407407407408,102.43386243386244 8.042328042328043,102.01058201058201 8.677248677248677,101.5873015873016 9.312169312169313,101.16402116402116 9.947089947089948,100.74074074074075 10.582010582010582,100.31746031746033 11.216931216931219,99.8941798941799 11.851851851851853,99.47089947089948 12.486772486772487,99.04761904761905 13.121693121693122,98.62433862433863 13.544973544973546,98.2010582010582 14.17989417989418,97.989417989418 14.603174603174605,97.56613756613757 15.238095238095239,97.14285714285715 15.873015873015873,96.71957671957672 16.50793650793651,96.2962962962963 17.142857142857146,96.08465608465609 17.566137566137566,95.66137566137567 18.201058201058203,95.23809523809524 18.83597883597884,95.02645502645504 19.25925925925926,94.60317460317461 19.894179894179896,94.17989417989419 20.529100529100532,93.96825396825398 20.952380952380953,93.54497354497356 21.58730158730159,93.12169312169313 22.222222222222225,92.91005291005291 22.645502645502646,92.4867724867725 23.280423280423282,92.27513227513228 23.703703703703706,91.85185185185186 24.338624338624342,91.64021164021165 24.973544973544975,91.21693121693123 25.60846560846561,90.7936507936508 26.243386243386244,90.7936507936508 26.87830687830688,90.37037037037038 27.513227513227516,89.94708994708995 28.14814814814815,89.73544973544975 28.783068783068785,89.31216931216932 29.41798941798942,89.1005291005291 29.841269841269842,88.67724867724868 30.476190476190478,88.46560846560847 31.111111111111114,88.04232804232805 31.746031746031747,87.83068783068784 32.38095238095239,87.40740740740742 33.01587301587302,87.1957671957672 33.65079365079365,86.77248677248677 34.28571428571429,86.56084656084657 34.920634920634924,86.13756613756614 35.55555555555556,85.92592592592594 35.97883597883598,85.5026455026455 36.613756613756614,85.29100529100529 37.248677248677254,84.86772486772487 37.883597883597886,84.44444444444446 38.51851851851852,84.23280423280424 39.15343915343916,84.02116402116403 39.78835978835979,83.80952380952381 40.423280423280424,83.3862433862434 41.058201058201064,83.17460317460318 41.6931216931217,82.75132275132276 42.32804232804233,82.53968253968254 42.96296296296297,82.32804232804233 43.5978835978836,81.90476190476191 44.232804232804234,81.6931216931217 44.867724867724874,81.26984126984128 45.50264550264551,81.05820105820106 46.13756613756614,80.63492063492065 46.77248677248678,80.42328042328043 47.195767195767196,80.0 47.830687830687836,79.7883597883598 48.46560846560847,79.36507936507937 49.1005291005291,78.94179894179895 49.523809523809526,78.51851851851852 50.158730158730165,78.0952380952381 50.7936507936508,77.67195767195767 51.42857142857143,77.24867724867725 52.06349206349207,76.82539682539684 52.6984126984127,76.4021164021164 53.333333333333336,75.97883597883599 53.75661375661376,75.55555555555556 54.39153439153439,75.13227513227514 55.02645502645503,74.70899470899471 55.449735449735456,74.28571428571429 56.08465608465609,73.86243386243387 56.50793650793651,73.43915343915344 56.93121693121694,73.01587301587303 57.35449735449736,72.5925925925926 57.777777777777786,72.16931216931218 58.2010582010582,71.74603174603175 58.62433862433863,71.32275132275133 59.04761904761905,70.8994708994709 59.470899470899475,70.47619047619048 59.8941798941799,70.05291005291006 60.31746031746032,69.62962962962963 60.74074074074075,69.20634920634922 61.16402116402117,68.57142857142858 61.58730158730159,68.14814814814815 62.01058201058201,67.51322751322752 62.43386243386244,67.08994708994709 62.85714285714286,66.45502645502646 63.280423280423285,65.82010582010582 63.70370370370371,65.18518518518519 64.12698412698413,64.55026455026456 64.55026455026456,63.91534391534392 64.97354497354497,63.280423280423285 65.3968253968254,62.64550264550265 65.82010582010582,62.01058201058201 66.03174603174604,61.37566137566138 66.45502645502646,60.74074074074075 66.87830687830689,60.10582010582011 67.08994708994709,59.470899470899475 67.51322751322752,58.83597883597884 67.72486772486774,58.2010582010582 68.14814814814815,57.777777777777786 68.35978835978837,57.142857142857146 68.78306878306879,56.50793650793651 68.994708994709,55.87301587301588 69.41798941798942,55.23809523809524 69.62962962962963,54.60317460317461 69.84126984126985,53.968253968253975 70.26455026455027,53.333333333333336 70.47619047619048,52.6984126984127 70.6878306878307,52.06349206349207 70.6878306878307,51.42857142857143 70.47619047619048,50.7936507936508 70.47619047619048,50.158730158730165 70.47619047619048,49.523809523809526 70.47619047619048,48.88888888888889 70.26455026455027,48.25396825396826 70.05291005291006,47.61904761904762 69.62962962962963,46.98412698412699 69.20634920634922,46.349206349206355 68.78306878306879,45.714285714285715 68.35978835978837,45.29100529100529 67.72486772486774,44.867724867724874 67.08994708994709,44.44444444444445 66.66666666666667,44.021164021164026 66.03174603174604,43.80952380952381 65.3968253968254,43.5978835978836 64.76190476190477,43.386243386243386 64.12698412698413,43.17460317460318 63.492063492063494,42.96296296296297 62.85714285714286,42.96296296296297 62.22222222222223,42.96296296296297 61.58730158730159,42.96296296296297 60.952380952380956,42.96296296296297 60.31746031746032,42.96296296296297 59.682539682539684,42.96296296296297 59.04761904761905,42.96296296296297 58.41269841269842,42.96296296296297 57.777777777777786,42.96296296296297 57.142857142857146,42.75132275132275 56.50793650793651,42.75132275132275 55.87301587301588,42.75132275132275 55.23809523809524,42.75132275132275 54.60317460317461,42.75132275132275 53.968253968253975,42.75132275132275 53.333333333333336,42.539682539682545 52.6984126984127,42.539682539682545 52.06349206349207,42.32804232804233 51.42857142857143,42.32804232804233 50.7936507936508,42.11640211640212 50.158730158730165,41.904761904761905 49.523809523809526,41.6931216931217 48.88888888888889,41.6931216931217 48.25396825396826,41.48148148148149 47.61904761904762,41.26984126984127 46.98412698412699,41.058201058201064 46.349206349206355,40.84656084656085 45.714285714285715,40.423280423280424 45.07936507936508,40.211640211640216 44.44444444444445,40.0 43.80952380952381,39.57671957671958 43.17460317460318,39.36507936507937 42.539682539682545,38.94179894179894 41.904761904761905,38.730158730158735 41.26984126984127,38.30687830687831 40.63492063492064,37.883597883597886 40.0,37.46031746031746 39.36507936507937,37.03703703703704 38.94179894179894,36.613756613756614 38.51851851851852,36.19047619047619 38.095238095238095,35.55555555555556 37.67195767195768,34.920634920634924 37.46031746031746,34.28571428571429 37.03703703703704,33.65079365079365 36.82539682539683,33.01587301587302 36.613756613756614,32.38095238095239 36.402116402116405,31.746031746031747 36.402116402116405,31.111111111111114 36.19047619047619,30.476190476190478 35.97883597883598,29.841269841269842 35.97883597883598,29.20634920634921 35.76719576719577,28.571428571428573 35.76719576719577,27.93650793650794 35.55555555555556,27.301587301587304 35.55555555555556,26.666666666666668 35.55555555555556,26.031746031746035 35.34391534391535,25.3968253968254 35.34391534391535,24.761904761904763 35.34391534391535,24.12698412698413 35.34391534391535,23.492063492063494 35.34391534391535,22.857142857142858 35.34391534391535,22.222222222222225 35.55555555555556,21.58730158730159 35.55555555555556,20.952380952380953 35.55555555555556,20.31746031746032 35.76719576719577,19.682539682539684 35.76719576719577,19.047619047619047 35.97883597883598,18.412698412698415 35.97883597883598,17.77777777777778 36.19047619047619,17.142857142857146 36.402116402116405,16.50793650793651 36.402116402116405,15.873015873015873 36.613756613756614,15.238095238095239 36.82539682539683,14.603174603174605 37.248677248677254,13.96825396825397 37.46031746031746,13.333333333333334 37.67195767195768,12.6984126984127 38.095238095238095,12.063492063492065 38.51851851851852,11.428571428571429 38.94179894179894,10.793650793650794 39.36507936507937,10.15873015873016 39.78835978835979,9.735449735449736 40.211640211640216,9.100529100529101 40.63492063492064,8.677248677248677 41.058201058201064,8.253968253968255 41.48148148148149,7.6190476190476195 41.904761904761905,7.195767195767196 42.32804232804233,6.772486772486773 42.96296296296297,6.560846560846561 43.386243386243386,6.137566137566138 43.80952380952381,5.714285714285714 44.44444444444445,5.291005291005291 44.867724867724874,4.867724867724868 45.50264550264551,4.444444444444445 46.13756613756614,4.021164021164021 46.77248677248678,3.8095238095238098 47.40740740740741,3.3862433862433865 48.042328042328045,2.9629629629629632 48.677248677248684,2.7513227513227516 49.31216931216932,2.53968253968254 49.94708994708995,2.3280423280423284 50.58201058201058,1.9047619047619049 51.21693121693122,1.6931216931216932 51.851851851851855,1.4814814814814816 52.48677248677249,1.26984126984127 52.91005291005291,0.8465608465608466 53.54497354497355,0.8465608465608466 54.179894179894184,0.634920634920635 54.60317460317461,1.0582010582010584 55.23809523809524,0.8465608465608466 55.87301587301588,0.8465608465608466 56.50793650793651,0.634920634920635 57.142857142857146,0.634920634920635 57.56613756613757,1.0582010582010584 58.2010582010582,1.26984126984127 58.83597883597884,1.26984126984127 59.470899470899475,1.4814814814814816 60.10582010582011,1.9047619047619049 60.74074074074075,1.9047619047619049 61.37566137566138,2.3280423280423284 62.01058201058201,2.53968253968254 62.43386243386244,2.9629629629629632 63.06878306878308,3.174603174603175 63.70370370370371,3.597883597883598 64.33862433862434,4.021164021164021 64.97354497354497,4.444444444444445 65.60846560846561,4.867724867724868 66.03174603174604,5.291005291005291 66.45502645502646,5.714285714285714 66.87830687830689,6.137566137566138 67.51322751322752,6.560846560846561 67.93650793650794,7.195767195767196 68.35978835978837,7.6190476190476195 68.78306878306879,8.042328042328043 69.20634920634922,8.677248677248677 69.62962962962963,9.312169312169313 70.05291005291006,9.947089947089948 70.26455026455027,10.582010582010582 70.47619047619048,11.216931216931219 70.8994708994709,11.851851851851853 71.11111111111111,12.486772486772487 71.32275132275133,13.121693121693122 71.53439153439155,13.756613756613758 71.74603174603175,14.391534391534393 72.16931216931218,15.026455026455027 72.5925925925926,15.661375661375663 73.01587301587303,16.084656084656086 73.43915343915344,16.71957671957672 73.86243386243387,17.354497354497354 74.28571428571429,17.77777777777778 74.70899470899471,18.201058201058203 75.13227513227514,18.624338624338627 75.76719576719577,19.047619047619047 76.19047619047619,19.47089947089947 76.82539682539684,19.894179894179896 77.46031746031747,20.105820105820108 78.0952380952381,20.31746031746032 78.73015873015873,20.529100529100532 79.36507936507937,20.529100529100532 80.0,20.529100529100532 80.63492063492065,20.529100529100532 81.26984126984128,20.31746031746032 81.90476190476191,20.31746031746032 82.53968253968254,19.894179894179896 83.17460317460318,19.682539682539684 83.80952380952381,19.47089947089947 84.23280423280424,19.047619047619047 84.86772486772487,18.83597883597884 85.29100529100529,18.412698412698415 85.92592592592594,17.98941798941799 86.34920634920636,17.566137566137566 86.98412698412699,17.142857142857146 87.61904761904762,16.71957671957672 88.25396825396827,16.296296296296298 88.8888888888889,15.873015873015873 89.31216931216932,15.449735449735451 89.94708994708995,15.238095238095239 90.37037037037038,14.814814814814817 91.00529100529101,14.391534391534393 91.64021164021165,13.96825396825397 92.27513227513228,13.544973544973546 92.91005291005291,13.121693121693122 93.33333333333334,12.6984126984127 93.96825396825398,12.486772486772487 94.39153439153439,12.063492063492065 95.02645502645504,11.640211640211641 95.66137566137567,11.216931216931219 96.2962962962963,10.793650793650794 96.71957671957672,10.370370370370372 97.35449735449737,10.15873015873016 97.77777777777779,9.735449735449736 98.41269841269842,9.312169312169313 99.04761904761905,8.88888888888889 99.68253968253968,8.465608465608467 100.31746031746033,8.042328042328043 100.95238095238096,7.6190476190476195 101.5873015873016,7.195767195767196 102.22222222222223,6.772486772486773 102.85714285714286,6.34920634920635 103.4920634920635,5.9259259259259265 104.12698412698414,5.502645502645503 104.76190476190477,5.07936507936508 105.3968253968254,4.656084656084657 106.03174603174604,4.2328042328042335 106.66666666666667,3.8095238095238098 107.0899470899471,3.3862433862433865 107.51322751322752,2.9629629629629632 108.14814814814815,2.53968253968254 108.78306878306879,2.1164021164021167 109.41798941798943,1.6931216931216932 112.3809523809524,-0.4232804232804233" style="fill:none; stroke:#3300bb; stroke-width:1.0"  /><circle cx="112.3809523809524" cy="-0.4232804232804233" r="2.0" style="fill:none; stroke:#000000aa; stroke-width:0.25" /><circle cx="187.30158730158732" cy="121.26984126984128" r="2.0" style="fill:none; stroke:#000000aa; stroke-width:0.25" /><circle cx="77.24867724867725" cy="185.82010582010582" r="2.0" style="fill:none; stroke:#000000aa; stroke-width:0.25" /><circle cx="-0.21164021164021166" cy="108.35978835978837" r="2.0" style="fill:none; stroke:#000000aa; stroke-width:0.25" /><circle cx="112.5925925925926" cy="0.21164021164021166" r="2.0" style="fill:none; stroke:#ff3366aa; stroke-width:0.25" /><circle cx="187.08994708994712" cy="121.05820105820106" r="2.0" style="fill:none; stroke:#ff3366aa; stroke-width:0.25" /><circle cx="77.03703703703704" cy="185.39682539682542" r="2.0" style="fill:none; stroke:#ff3366aa; stroke-width:0.25" /><circle cx="0.21164021164021166" cy="108.994708994709" r="2.0" style="fill:none; stroke:#ff3366aa; stroke-width:0.25" /><polyline points="119.36507936507937,9.312169312169313 118.94179894179895,8.677248677248677 118.51851851851853,8.042328042328043 118.0952380952381,7.6190476190476195 117.67195767195768,6.984126984126985 117.24867724867725,6.34920634920635 116.82539682539684,5.9259259259259265 116.4021164021164,5.291005291005291 115.97883597883599,4.656084656084657 115.55555555555557,4.2328042328042335 115.13227513227514,3.597883597883598 114.70899470899472,2.9629629629629632" style="fill:none; stroke:#001100; stroke-width:1.0" /><polyline points="102.85714285714286,6.34920634920635 103.4920634920635,5.9259259259259265 104.12698412698414,5.502645502645503 104.76190476190477,5.07936507936508 105.3968253968254,4.656084656084657 106.03174603174604,4.2328042328042335 106.66666666666667,3.8095238095238098 107.0899470899471,3.3862433862433865 107.51322751322752,2.9629629629629632 108.14814814814815,2.53968253968254 108.78306878306879,2.1164021164021167 109.41798941798943,1.6931216931216932" style="fill:none; stroke:#000011; stroke-width:1.0" /><polyline points="177.7777777777778,127.83068783068784 178.41269841269843,127.40740740740742 179.04761904761907,126.98412698412699 179.4708994708995,126.56084656084657 180.10582010582013,126.13756613756615 180.74074074074076,125.71428571428572 181.3756613756614,125.2910052910053 182.01058201058203,124.86772486772487 182.64550264550266,124.44444444444446 183.2804232804233,124.02116402116403 183.91534391534393,123.59788359788361 184.55026455026456,123.17460317460318" style="fill:none; stroke:#001100; stroke-width:1.0" /><polyline points="180.52910052910053,111.32275132275133 180.95238095238096,111.95767195767196 181.3756613756614,112.5925925925926 181.79894179894183,113.01587301587303 182.22222222222223,113.65079365079366 182.64550264550266,114.28571428571429 183.0687830687831,114.92063492063492 183.4920634920635,115.55555555555557 183.91534391534393,116.1904761904762 184.33862433862436,116.82539682539684 184.55026455026456,117.46031746031747 184.973544973545,117.88359788359789 185.39682539682542,118.51851851851853" style="fill:none; stroke:#000011; stroke-width:1.0" /><polyline points="68.78306878306879,176.71957671957674 69.20634920634922,177.35449735449737 69.62962962962963,177.7777777777778 70.05291005291006,178.2010582010582 70.47619047619048,178.62433862433863 70.8994708994709,179.25925925925927 71.32275132275133,179.6825396825397 71.74603174603175,180.10582010582013 72.16931216931218,180.52910052910053 72.80423280423281,180.95238095238096 73.22751322751323,181.3756613756614 73.65079365079366,181.79894179894183 74.07407407407408,182.43386243386246 74.49735449735451,182.85714285714286 74.92063492063492,183.2804232804233" style="fill:none; stroke:#001100; stroke-width:1.0" /><polyline points="87.1957671957672,179.25925925925927 86.56084656084657,179.6825396825397 86.13756613756614,180.10582010582013 85.5026455026455,180.52910052910053 84.86772486772487,180.95238095238096 84.23280423280424,181.3756613756614 83.59788359788361,181.79894179894183 82.96296296296298,182.22222222222223 82.32804232804233,182.64550264550266 81.6931216931217,183.0687830687831 81.05820105820106,183.4920634920635 80.42328042328043,183.91534391534393 79.7883597883598,184.12698412698415" style="fill:none; stroke:#000011; stroke-width:1.0" /><polyline points="9.312169312169313,101.16402116402116 8.677248677248677,101.5873015873016 8.042328042328043,102.01058201058201 7.407407407407408,102.43386243386244 6.772486772486773,102.85714285714286 6.137566137566138,103.28042328042329 5.714285714285714,103.70370370370371 5.07936507936508,104.12698412698414 4.444444444444445,104.55026455026456 3.8095238095238098,104.97354497354497 3.3862433862433865,105.3968253968254 2.7513227513227516,105.82010582010582 2.3280423280423284,106.45502645502647" style="fill:none; stroke:#001100; stroke-width:1.0" /><polyline points="10.370370370370372,115.13227513227514 9.735449735449736,114.70899470899472 9.100529100529101,114.28571428571429 8.465608465608467,113.86243386243387 7.830687830687832,113.43915343915344 7.195767195767196,113.22751322751324 6.772486772486773,112.80423280423281 6.137566137566138,112.3809523809524 5.502645502645503,111.95767195767196 4.867724867724868,111.74603174603176 4.444444444444445,111.32275132275133 3.8095238095238098,110.89947089947091 3.174603174603175,110.47619047619048" style="fill:none; stroke:#000011; stroke-width:1.0" /><polyline points="114.70899470899472,2.9629629629629632 102.22222222222223,-14.17989417989418" style="fill:none; stroke:#ffaa00; stroke-width:0.4" /><polyline points="109.41798941798943,1.6931216931216932 126.77248677248679,-10.582010582010582" style="fill:none; stroke:#aaff00; stroke-width:0.4" /><polyline points="184.55026455026456,123.17460317460318 201.90476190476193,111.11111111111111" style="fill:none; stroke:#ffaa00; stroke-width:0.4" /><polyline points="185.39682539682542,118.51851851851853 197.24867724867727,136.0846560846561" style="fill:none; stroke:#aaff00; stroke-width:0.4" /><polyline points="74.92063492063492,183.2804232804233 89.31216931216932,198.73015873015873" style="fill:none; stroke:#ffaa00; stroke-width:0.4" /><polyline points="79.7883597883598,184.12698412698415 62.01058201058201,195.76719576719577" style="fill:none; stroke:#aaff00; stroke-width:0.4" /><polyline points="2.3280423280423284,106.45502645502647 -14.603174603174605,119.15343915343917" style="fill:none; stroke:#ffaa00; stroke-width:0.4" /><polyline points="3.174603174603175,110.47619047619048 -14.603174603174605,99.04761904761905" style="fill:none; stroke:#aaff00; stroke-width:0.4" /><circle cx="90.15873015873017" cy="100.95238095238096" r="1.0" style="fill:#444444; stroke-width:0" /><circle cx="80.42328042328043" cy="116.82539682539684" r="10.582010582010582" style="fill:#ff770022; stroke-width:0" /><circle cx="80.42328042328043" cy="116.82539682539684" r="1.0" style="fill:#ff7700; stroke-width:0" /></svg>