<?xml version="1.0" encoding="UTF-8" standalone="no"?><svg width="534.6031746031747" height="435.5555555555556" viewBox="-10 -10 198.2010582010582 165.1851851851852" xmlns="http://www.w3.org/2000/svg" xmlns:xlink="http://www.w3.org/1999/xlink"><polyline points="25.185185185185187,4.444444444444445 28.35978835978836,4.2328042328042335 28.994708994708997,4.2328042328042335 29.629629629629633,4.021164021164021 30.264550264550266,4.021164021164021 30.899470899470902,4.021164021164021 31.53439153439154,4.021164021164021 32.16931216931217,4.021164021164021 32.804232804232804,4.021164021164021 33.43915343915344,4.021164021164021 34.074074074074076,4.021164021164021 34.70899470899471,3.8095238095238098 35.34391534391535,3.597883597883598 35.97883597883598,3.597883597883598 36.613756613756614,3.3862433862433865 37.248677248677254,3.597883597883598 37.883597883597886,3.3862433862433865 38.51851851851852,3.3862433862433865 39.15343915343916,3.3862433862433865 39.57671957671958,2.9629629629629632 40.211640211640216,2.9629629629629632 40.84656084656085,2.9629629629629632 41.48148148148149,2.9629629629629632 42.11640211640212,2.9629629629629632 42.75132275132275,2.9629629629629632 43.386243386243386,2.7513227513227516 44.021164021164026,2.53968253968254 44.65608465608466,2.53968253968254 45.29100529100529,2.3280423280423284 45.92592592592593,2.53968253968254 46.560846560846564,2.53968253968254 47.195767195767196,2.53968253968254 47.830687830687836,2.53968253968254 48.46560846560847,2.3280423280423284 49.1005291005291,2.3280423280423284 49.73544973544974,2.1164021164021167 50.370370370370374,2.1164021164021167 51.00529100529101,2.3280423280423284 51.640211640211646,2.1164021164021167 52.27513227513228,2.1164021164021167 52.91005291005291,2.1164021164021167 53.54497354497355,2.1164021164021167 54.179894179894184,1.9047619047619049 54.81481481481482,1.9047619047619049 55.449735449735456,1.6931216931216932 56.08465608465609,1.6931216931216932 56.71957671957672,1.6931216931216932 57.35449735449736,1.6931216931216932 57.989417989417994,1.6931216931216932 58.62433862433863,1.4814814814814816 59.25925925925927,1.26984126984127 59.8941798941799,1.26984126984127 60.52910052910053,1.26984126984127 61.16402116402117,1.26984126984127 61.798941798941804,1.26984126984127 62.43386243386244,1.26984126984127 63.06878306878308,1.0582010582010584 63.70370370370371,1.26984126984127 64.33862433862434,1.26984126984127 64.76190476190477,0.8465608465608466 65.3968253968254,1.0582010582010584 66.03174603174604,1.0582010582010584 66.66666666666667,1.0582010582010584 67.3015873015873,1.0582010582010584 67.93650793650794,0.8465608465608466 68.57142857142858,0.8465608465608466 69.20634920634922,0.8465608465608466 69.84126984126985,0.8465608465608466 70.47619047619048,0.8465608465608466 71.11111111111111,0.8465608465608466 71.74603174603175,0.8465608465608466 72.38095238095238,0.634920634920635 73.01587301587303,0.4232804232804233 73.65079365079366,0.4232804232804233 74.28571428571429,0.4232804232804233 74.92063492063492,0.21164021164021166 75.55555555555556,0.21164021164021166 76.19047619047619,0.21164021164021166 76.82539682539684,0.21164021164021166 77.46031746031747,0.21164021164021166 78.0952380952381,0.4232804232804233 78.73015873015873,0.4232804232804233 79.36507936507937,0.4232804232804233 80.0,0.21164021164021166 80.63492063492065,0.21164021164021166 81.26984126984128,0.21164021164021166 81.90476190476191,0.4232804232804233 82.53968253968254,0.4232804232804233 83.17460317460318,0.4232804232804233 83.80952380952381,0.4232804232804233 84.44444444444446,0.21164021164021166 85.07936507936509,0.4232804232804233 85.71428571428572,0.4232804232804233 86.34920634920636,0.4232804232804233 86.98412698412699,0.4232804232804233 87.61904761904762,0.4232804232804233 88.25396825396827,0.4232804232804233 88.8888888888889,0.4232804232804233 89.52380952380953,0.634920634920635 90.15873015873017,0.634920634920635 90.7936507936508,0.8465608465608466 91.42857142857143,0.8465608465608466 92.06349206349208,0.8465608465608466 92.69841269841271,1.0582010582010584 93.33333333333334,1.0582010582010584 93.96825396825398,1.26984126984127 94.60317460317461,1.26984126984127 95.23809523809524,1.4814814814814816 95.87301587301587,1.6931216931216932 96.50793650793652,1.6931216931216932 97.14285714285715,2.1164021164021167 97.77777777777779,2.1164021164021167 98.41269841269842,2.3280423280423284 99.04761904761905,2.3280423280423284 99.68253968253968,2.53968253968254 100.31746031746033,2.7513227513227516 100.95238095238096,2.9629629629629632 101.37566137566138,3.3862433862433865 102.01058201058201,3.597883597883598 102.43386243386244,4.021164021164021 103.06878306878308,4.444444444444445 103.4920634920635,5.07936507936508 103.91534391534393,5.502645502645503 104.33862433862434,6.137566137566138 104.55026455026456,6.772486772486773 104.55026455026456,7.407407407407408 104.55026455026456,8.042328042328043 104.55026455026456,8.677248677248677 104.33862433862434,9.312169312169313 104.12698412698414,9.947089947089948 103.91534391534393,10.582010582010582 103.4920634920635,11.005291005291006 103.28042328042329,11.640211640211641 102.85714285714286,12.275132275132275 102.64550264550266,12.910052910052912 102.22222222222223,13.544973544973546 102.01058201058201,14.17989417989418 101.5873015873016,14.814814814814817 101.16402116402116,15.449735449735451 100.95238095238096,16.084656084656086 100.52910052910053,16.71957671957672 100.31746031746033,17.354497354497354 99.8941798941799,17.98941798941799 99.68253968253968,18.624338624338627 99.47089947089948,19.25925925925926 99.25925925925927,19.894179894179896 99.25925925925927,20.529100529100532 99.04761904761905,21.164021164021165 99.04761904761905,21.7989417989418 99.04761904761905,22.433862433862437 99.04761904761905,23.06878306878307 99.25925925925927,23.703703703703706 99.25925925925927,24.338624338624342 99.68253968253968,24.761904761904763 99.8941798941799,25.3968253968254 100.31746031746033,26.031746031746035 100.74074074074075,26.666666666666668 101.37566137566138,27.089947089947092 101.79894179894181,27.513227513227516 102.22222222222223,27.93650793650794 102.85714285714286,28.35978835978836 103.28042328042329,28.783068783068785 103.91534391534393,28.994708994708997 104.33862433862434,29.41798941798942 104.97354497354497,29.629629629629633 105.60846560846562,30.052910052910054 106.24338624338625,30.264550264550266 106.87830687830689,30.68783068783069 107.51322751322752,30.899470899470902 108.14814814814815,30.899470899470902 108.78306878306879,31.111111111111114 109.41798941798943,31.322751322751326 110.05291005291006,31.53439153439154 110.6878306878307,31.53439153439154 111.32275132275133,31.746031746031747 111.95767195767196,31.95767195767196 112.5925925925926,31.95767195767196 113.22751322751324,31.95767195767196 113.86243386243387,31.95767195767196 114.49735449735451,31.95767195767196 115.13227513227514,32.16931216931217 115.76719576719577,32.16931216931217 116.4021164021164,32.16931216931217 117.03703703703705,31.95767195767196 117.67195767195768,31.95767195767196 118.30687830687832,31.95767195767196 118.94179894179895,31.95767195767196 119.57671957671958,31.746031746031747 120.21164021164022,31.746031746031747 120.84656084656086,31.746031746031747 121.4814814814815,31.53439153439154 122.11640211640213,31.322751322751326 122.75132275132276,31.322751322751326 123.3862433862434,31.111111111111114 124.02116402116403,30.899470899470902 124.65608465608466,30.68783068783069 125.2910052910053,30.476190476190478 125.92592592592594,30.052910052910054 126.56084656084657,29.629629629629633 127.1957671957672,29.41798941798942 127.61904761904763,28.994708994708997 128.25396825396825,28.571428571428573 128.67724867724868,28.14814814814815 129.10052910052912,27.724867724867728 129.52380952380955,27.089947089947092 129.94708994708995,26.455026455026456 130.15873015873018,25.820105820105823 130.37037037037038,25.185185185185187 130.58201058201058,24.55026455026455 130.7936507936508,23.915343915343918 130.7936507936508,23.280423280423282 131.005291005291,22.645502645502646 131.21693121693121,22.010582010582013 131.21693121693121,21.375661375661377 131.21693121693121,20.740740740740744 131.21693121693121,20.105820105820108 131.21693121693121,19.47089947089947 131.005291005291,18.83597883597884 131.005291005291,18.201058201058203 130.7936507936508,17.566137566137566 130.7936507936508,16.931216931216934 130.7936507936508,16.296296296296298 130.58201058201058,15.661375661375663 130.37037037037038,15.026455026455027 130.15873015873018,14.391534391534393 130.15873015873018,13.756613756613758 129.94708994708995,13.121693121693122 129.94708994708995,12.486772486772487 129.73544973544975,11.851851851851853 129.73544973544975,11.216931216931219 129.73544973544975,10.582010582010582 129.52380952380955,9.947089947089948 129.52380952380955,9.312169312169313 129.52380952380955,8.677248677248677 129.52380952380955,8.042328042328043 129.52380952380955,7.407407407407408 129.52380952380955,6.772486772486773 129.73544973544975,6.137566137566138 129.94708994708995,5.502645502645503 130.15873015873018,4.867724867724868 130.37037037037038,4.2328042328042335 130.7936507936508,3.597883597883598 131.21693121693121,2.9629629629629632 131.64021164021165,2.3280423280423284 132.06349206349208,1.9047619047619049 132.6984126984127,1.4814814814814816 133.33333333333334,1.26984126984127 133.96825396825398,1.0582010582010584 134.6031746031746,1.0582010582010584 135.23809523809524,1.0582010582010584 135.87301587301587,1.0582010582010584 136.5079365079365,1.0582010582010584 137.14285714285717,1.0582010582010584 137.7777777777778,1.0582010582010584 138.41269841269843,1.26984126984127 139.04761904761907,1.26984126984127 139.6825396825397,1.4814814814814816 140.31746031746033,1.4814814814814816 140.95238095238096,1.9047619047619049 141.5873015873016,1.9047619047619049 142.22222222222223,1.9047619047619049 142.85714285714286,1.9047619047619049 143.4920634920635,2.1164021164021167 144.12698412698413,2.1164021164021167 144.76190476190476,2.3280423280423284 145.39682539682542,2.53968253968254 146.03174603174605,2.53968253968254 146.66666666666669,2.9629629629629632 147.30158730158732,2.9629629629629632 147.93650793650795,3.174603174603175 148.57142857142858,3.3862433862433865 149.20634920634922,3.597883597883598 149.84126984126985,3.8095238095238098 150.47619047619048,4.021164021164021 151.11111111111111,4.2328042328042335 151.74603174603175,4.656084656084657 152.38095238095238,4.867724867724868 153.01587301587304,5.07936507936508 153.65079365079367,5.502645502645503 154.2857142857143,5.502645502645503 154.7089947089947,5.9259259259259265 155.34391534391534,6.137566137566138 155.978835978836,6.560846560846561 156.61375661375664,6.772486772486773 157.24867724867727,6.984126984126985 157.8835978835979,7.407407407407408 158.51851851851853,7.830687830687832 159.15343915343917,8.042328042328043 159.7883597883598,8.253968253968255 160.42328042328043,8.465608465608467 160.84656084656086,8.88888888888889 163.80952380952382,10.370370370370372" style="fill:none; stroke:#cc0000; stroke-width:1.0"  /><polyline points="163.80952380952382,10.370370370370372 164.8677248677249,13.96825396825397 164.8677248677249,14.603174603174605 165.0793650793651,15.238095238095239 165.2910052910053,15.873015873015873 165.50264550264552,16.50793650793651 165.71428571428572,17.142857142857146 165.92592592592595,17.77777777777778 166.13756613756615,18.412698412698415 166.34920634920636,19.047619047619047 166.56084656084658,19.682539682539684 166.7724867724868,20.31746031746032 166.984126984127,20.952380952380953 167.19576719576722,21.58730158730159 167.40740740740742,22.222222222222225 167.61904761904762,22.857142857142858 167.83068783068785,23.492063492063494 168.04232804232805,24.12698412698413 168.46560846560848,24.761904761904763 168.67724867724868,25.3968253968254 168.8888888888889,26.031746031746035 169.10052910052912,26.666666666666668 169.31216931216932,27.301587301587304 169.73544973544975,27.93650793650794 169.94708994708995,28.571428571428573 170.15873015873018,29.20634920634921 170.37037037037038,29.841269841269842 170.58201058201058,30.476190476190478 170.7936507936508,31.111111111111114 171.21693121693124,31.746031746031747 171.42857142857144,32.38095238095239 171.64021164021165,33.01587301587302 171.85185185185188,33.65079365079365 172.06349206349208,34.28571428571429 172.4867724867725,34.920634920634924 172.6984126984127,35.55555555555556 172.9100529100529,36.19047619047619 173.12169312169314,36.82539682539683 173.54497354497354,37.46031746031746 173.54497354497354,38.095238095238095 173.54497354497354,38.730158730158735 173.54497354497354,39.36507936507937 173.54497354497354,40.0 173.33333333333334,40.63492063492064 173.12169312169314,41.26984126984127 172.9100529100529,41.904761904761905 172.4867724867725,42.539682539682545 172.27513227513228,43.17460317460318 171.85185185185188,43.5978835978836 171.42857142857144,44.021164021164026 171.005291005291,44.44444444444445 170.37037037037038,44.867724867724874 169.73544973544975,45.07936507936508 169.10052910052912,45.29100529100529 168.46560846560848,45.50264550264551 167.83068783068785,45.714285714285715 167.19576719576722,45.714285714285715 166.56084656084658,45.714285714285715 165.92592592592595,45.714285714285715 165.2910052910053,45.714285714285715 164.65608465608466,45.50264550264551 164.02116402116403,45.29100529100529 163.3862433862434,45.07936507936508 162.75132275132276,44.867724867724874 162.11640211640213,44.44444444444445 161.4814814814815,44.232804232804234 160.84656084656086,44.021164021164026 160.21164021164023,43.5978835978836 159.5767195767196,43.17460317460318 158.94179894179896,42.96296296296297 158.30687830687833,42.539682539682545 157.67195767195767,42.32804232804233 157.24867724867727,41.904761904761905 156.61375661375664,41.6931216931217 155.978835978836,41.26984126984127 155.34391534391534,41.058201058201064 154.7089947089947,40.84656084656085 154.07407407407408,40.63492063492064 153.43915343915344,40.423280423280424 152.8042328042328,40.211640211640216 152.16931216931218,40.211640211640216 151.53439153439155,40.0 150.8994708994709,40.0 150.26455026455028,40.0 149.62962962962965,40.0 148.99470899470901,40.0 148.35978835978838,40.211640211640216 147.72486772486775,40.211640211640216 147.0899470899471,40.423280423280424 146.45502645502646,40.423280423280424 145.82010582010582,40.84656084656085 145.1851851851852,41.058201058201064 144.55026455026456,41.26984126984127 143.91534391534393,41.48148148148149 143.2804232804233,41.6931216931217 142.85714285714286,42.11640211640212 142.43386243386246,42.539682539682545 141.7989417989418,42.75132275132275 141.16402116402116,43.17460317460318 140.52910052910053,43.5978835978836 139.8941798941799,44.021164021164026 139.25925925925927,44.232804232804234 138.83597883597884,44.65608465608466 138.41269841269843,45.07936507936508 137.7777777777778,45.50264550264551 137.14285714285717,45.92592592592593 136.71957671957674,46.349206349206355 136.0846560846561,46.77248677248678 135.66137566137567,47.40740740740741 135.23809523809524,47.830687830687836 134.81481481481484,48.46560846560847 134.3915343915344,49.1005291005291 133.96825396825398,49.73544973544974 133.75661375661377,50.370370370370374 133.33333333333334,51.00529100529101 133.12169312169314,51.640211640211646 132.9100529100529,52.27513227513228 132.6984126984127,52.91005291005291 132.4867724867725,53.54497354497355 132.27513227513228,54.179894179894184 132.06349206349208,54.81481481481482 132.06349206349208,55.449735449735456 131.85185185185185,56.08465608465609 131.85185185185185,56.71957671957672 131.85185185185185,57.35449735449736 131.85185185185185,57.989417989417994 131.85185185185185,58.62433862433863 131.85185185185185,59.25925925925927 131.85185185185185,59.8941798941799 131.85185185185185,60.52910052910053 132.06349206349208,61.16402116402117 132.06349206349208,61.798941798941804 132.27513227513228,62.43386243386244 132.4867724867725,63.06878306878308 132.6984126984127,63.70370370370371 132.6984126984127,64.33862433862434 133.12169312169314,64.76190476190477 133.33333333333334,65.3968253968254 133.54497354497354,66.03174603174604 133.96825396825398,66.66666666666667 134.3915343915344,67.3015873015873 134.6031746031746,67.93650793650794 135.02645502645504,68.57142857142858 135.23809523809524,69.20634920634922 135.66137566137567,69.62962962962963 135.87301587301587,70.26455026455027 136.2962962962963,70.6878306878307 136.5079365079365,71.32275132275133 136.93121693121694,71.74603174603175 137.35449735449737,72.16931216931218 137.7777777777778,72.5925925925926 138.2010582010582,73.22751322751323 138.62433862433863,73.86243386243387 139.04761904761907,74.28571428571429 139.47089947089947,74.70899470899471 139.8941798941799,75.13227513227514 140.31746031746033,75.55555555555556 140.74074074074076,75.97883597883599 141.3756613756614,76.4021164021164 142.01058201058203,76.82539682539684 142.43386243386246,77.24867724867725 143.0687830687831,77.46031746031747 143.70370370370372,77.67195767195767 144.33862433862436,77.88359788359789 144.973544973545,78.30687830687832 145.60846560846562,78.51851851851852 146.24338624338625,78.51851851851852 146.8783068783069,78.73015873015873 147.51322751322752,78.94179894179895 148.14814814814815,79.15343915343917 148.78306878306879,79.15343915343917 149.41798941798942,79.36507936507937 150.05291005291005,79.36507936507937 150.6878306878307,79.36507936507937 151.32275132275134,79.36507936507937 151.95767195767198,79.15343915343917 152.5925925925926,78.94179894179895 153.22751322751324,78.94179894179895 153.86243386243387,78.73015873015873 154.4973544973545,78.51851851851852 155.13227513227514,78.30687830687832 155.76719576719577,77.88359788359789 156.4021164021164,77.46031746031747 156.82539682539684,77.03703703703704 157.46031746031747,76.82539682539684 158.0952380952381,76.61375661375662 158.51851851851853,76.19047619047619 158.94179894179896,75.76719576719577 159.5767195767196,75.34391534391536 160.21164021164023,74.92063492063492 160.63492063492066,74.49735449735451 161.2698412698413,74.07407407407408 161.6931216931217,73.65079365079366 162.11640211640213,73.22751322751323 162.75132275132276,72.80423280423281 163.1746031746032,72.38095238095238 163.59788359788362,71.95767195767196 164.02116402116403,71.53439153439155 164.65608465608466,71.11111111111111 165.0793650793651,70.6878306878307 165.50264550264552,70.26455026455027 166.13756613756615,69.84126984126985 166.56084656084658,69.41798941798942 167.19576719576722,69.20634920634922 167.61904761904762,68.78306878306879 168.25396825396825,68.57142857142858 168.8888888888889,68.14814814814815 169.52380952380955,67.93650793650794 170.15873015873018,67.72486772486774 170.7936507936508,67.72486772486774 171.42857142857144,67.51322751322752 172.06349206349208,67.51322751322752 172.6984126984127,67.72486772486774 173.33333333333334,67.93650793650794 173.96825396825398,68.14814814814815 174.6031746031746,68.35978835978837 175.23809523809524,68.78306878306879 175.87301587301587,69.20634920634922 176.2962962962963,69.84126984126985 176.71957671957674,70.47619047619048 177.14285714285717,71.11111111111111 177.14285714285717,71.74603174603175 177.35449735449737,72.38095238095238 177.7777777777778,73.01587301587303 177.7777777777778,73.65079365079366 177.56613756613757,74.28571428571429 177.56613756613757,74.92063492063492 177.56613756613757,75.55555555555556 177.56613756613757,76.19047619047619 177.35449735449737,76.82539682539684 177.14285714285717,77.46031746031747 176.93121693121694,78.0952380952381 176.71957671957674,78.73015873015873 176.50793650793653,79.36507936507937 176.50793650793653,80.0 176.0846560846561,80.63492063492065 176.0846560846561,81.26984126984128 175.87301587301587,81.90476190476191 175.66137566137567,82.53968253968254 175.44973544973547,83.17460317460318 175.23809523809524,83.80952380952381 175.02645502645504,84.44444444444446 174.81481481481484,85.07936507936509 174.6031746031746,85.71428571428572 174.3915343915344,86.34920634920636 174.1798941798942,86.98412698412699 173.96825396825398,87.61904761904762 173.75661375661377,88.25396825396827 173.75661375661377,88.8888888888889 173.54497354497354,89.52380952380953 173.33333333333334,90.15873015873017 173.33333333333334,90.7936507936508 173.12169312169314,91.42857142857143 172.9100529100529,92.06349206349208 172.9100529100529,92.69841269841271 172.6984126984127,93.33333333333334 172.4867724867725,93.96825396825398 172.4867724867725,94.60317460317461 172.27513227513228,95.23809523809524 172.27513227513228,95.87301587301587 172.06349206349208,96.50793650793652 172.06349206349208,97.14285714285715 171.85185185185188,97.77777777777779 171.85185185185188,98.41269841269842 171.64021164021165,99.04761904761905 171.42857142857144,99.68253968253968 171.42857142857144,100.31746031746033 171.21693121693124,100.95238095238096 171.21693121693124,101.5873015873016 171.005291005291,102.22222222222223 171.005291005291,102.85714285714286 170.7936507936508,103.4920634920635 170.7936507936508,104.12698412698414 170.58201058201058,104.76190476190477 170.15873015873018,107.51322751322752" style="fill:none; stroke:#999900; stroke-width:1.0"  /><polyline points="170.15873015873018,107.51322751322752 167.19576719576722,107.3015873015873 166.56084656084658,107.3015873015873 165.92592592592595,107.0899470899471 165.2910052910053,107.0899470899471 164.65608465608466,107.0899470899471 164.02116402116403,106.87830687830689 163.3862433862434,106.87830687830689 162.75132275132276,106.66666666666667 162.11640211640213,106.66666666666667 161.4814814814815,106.66666666666667 160.84656084656086,106.87830687830689 160.21164021164023,106.87830687830689 159.5767195767196,106.87830687830689 158.94179894179896,106.66666666666667 158.30687830687833,106.87830687830689 157.67195767195767,106.87830687830689 157.03703703703704,106.87830687830689 156.4021164021164,107.0899470899471 155.76719576719577,107.3015873015873 155.13227513227514,107.51322751322752 154.4973544973545,107.51322751322752 153.86243386243387,107.72486772486774 153.22751322751324,107.93650793650795 152.5925925925926,108.14814814814815 151.95767195767198,108.35978835978837 151.32275132275134,108.57142857142858 150.6878306878307,108.78306878306879 150.05291005291005,108.994708994709 149.41798941798942,109.20634920634922 148.78306878306879,109.41798941798943 148.14814814814815,109.84126984126985 147.51322751322752,110.05291005291006 146.8783068783069,110.26455026455027 146.45502645502646,110.6878306878307 145.82010582010582,110.89947089947091 145.1851851851852,111.32275132275133 144.55026455026456,111.74603174603176 143.91534391534393,112.16931216931218 143.2804232804233,112.3809523809524 142.85714285714286,113.01587301587303 142.22222222222223,113.43915343915344 141.5873015873016,113.65079365079366 140.95238095238096,114.07407407407408 140.31746031746033,114.49735449735451 139.6825396825397,114.92063492063492 139.04761904761907,115.34391534391536 138.41269841269843,115.76719576719577 137.7777777777778,115.97883597883599 137.14285714285717,116.4021164021164 136.5079365079365,116.61375661375662 135.87301587301587,117.03703703703705 135.23809523809524,117.46031746031747 134.6031746031746,117.67195767195768 133.96825396825398,117.88359788359789 133.33333333333334,118.0952380952381 132.6984126984127,118.51851851851853 132.06349206349208,118.73015873015873 131.42857142857144,118.94179894179895 130.7936507936508,119.15343915343917 130.15873015873018,119.36507936507937 129.52380952380955,119.7883597883598 128.88888888888889,120.00000000000001 128.25396825396825,120.21164021164022 127.61904761904763,120.42328042328043 126.98412698412699,120.63492063492065 126.34920634920636,120.63492063492065 125.71428571428572,120.84656084656086 125.07936507936509,121.05820105820106 124.44444444444446,121.05820105820106 123.80952380952382,121.26984126984128 123.17460317460318,121.4814814814815 122.53968253968254,121.4814814814815 121.90476190476191,121.6931216931217 121.26984126984128,121.6931216931217 120.63492063492065,121.90476190476191 120.00000000000001,121.90476190476191 119.36507936507937,122.11640211640213 118.73015873015873,122.11640211640213 118.0952380952381,122.11640211640213 117.46031746031747,122.32804232804234 116.82539682539684,122.32804232804234 116.1904761904762,122.32804232804234 115.55555555555557,122.32804232804234 114.92063492063492,122.32804232804234 114.28571428571429,122.11640211640213 113.65079365079366,121.90476190476191 113.01587301587303,121.6931216931217 112.3809523809524,121.4814814814815 111.74603174603176,121.26984126984128 111.32275132275133,120.84656084656086 110.89947089947091,120.42328042328043 110.47619047619048,120.00000000000001 110.05291005291006,119.36507936507937 109.84126984126985,118.73015873015873 109.62962962962963,118.0952380952381 109.41798941798943,117.46031746031747 109.41798941798943,116.82539682539684 109.20634920634922,116.1904761904762 109.20634920634922,115.55555555555557 109.20634920634922,114.92063492063492 109.20634920634922,114.28571428571429 109.20634920634922,113.65079365079366 109.41798941798943,113.01587301587303 109.41798941798943,112.3809523809524 109.41798941798943,111.74603174603176 109.62962962962963,111.11111111111111 109.62962962962963,110.47619047619048 109.84126984126985,109.84126984126985 110.05291005291006,109.20634920634922 110.05291005291006,108.57142857142858 110.26455026455027,107.93650793650795 110.05291005291006,107.3015873015873 110.26455026455027,106.66666666666667 110.26455026455027,106.03174603174604 110.47619047619048,105.3968253968254 110.47619047619048,104.76190476190477 110.6878306878307,104.12698412698414 110.89947089947091,103.4920634920635 110.89947089947091,102.85714285714286 111.11111111111111,102.22222222222223 111.32275132275133,101.5873015873016 111.32275132275133,100.95238095238096 111.32275132275133,100.31746031746033 111.53439153439155,99.68253968253968 111.53439153439155,99.04761904761905 111.74603174603176,98.41269841269842 111.74603174603176,97.77777777777779 111.74603174603176,97.14285714285715 111.74603174603176,96.50793650793652 111.74603174603176,95.87301587301587 111.74603174603176,95.23809523809524 111.74603174603176,94.60317460317461 111.53439153439155,93.96825396825398 111.53439153439155,93.33333333333334 111.32275132275133,92.69841269841271 111.32275132275133,92.06349206349208 111.11111111111111,91.42857142857143 110.89947089947091,90.7936507936508 110.89947089947091,90.15873015873017 110.6878306878307,89.52380952380953 110.47619047619048,88.8888888888889 110.05291005291006,88.25396825396827 109.62962962962963,87.61904761904762 109.41798941798943,86.98412698412699 108.994708994709,86.56084656084657 108.57142857142858,85.92592592592594 108.14814814814815,85.5026455026455 107.51322751322752,85.07936507936509 107.0899470899471,84.65608465608466 106.45502645502647,84.23280423280424 105.82010582010582,83.80952380952381 105.18518518518519,83.59788359788361 104.55026455026456,83.17460317460318 103.91534391534393,82.96296296296298 103.28042328042329,82.53968253968254 102.64550264550266,82.32804232804233 102.01058201058201,82.11640211640213 101.37566137566138,82.11640211640213 100.74074074074075,81.90476190476191 100.10582010582011,81.90476190476191 99.47089947089948,81.6931216931217 98.83597883597885,81.6931216931217 98.2010582010582,81.6931216931217 97.56613756613757,81.48148148148148 96.93121693121694,81.48148148148148 96.2962962962963,81.6931216931217 95.66137566137567,81.6931216931217 95.02645502645504,81.6931216931217 94.39153439153439,81.6931216931217 93.75661375661376,81.6931216931217 93.12169312169313,81.90476190476191 92.4867724867725,81.90476190476191 91.85185185185186,82.11640211640213 91.21693121693123,82.11640211640213 90.58201058201058,82.32804232804233 89.94708994708995,82.53968253968254 89.31216931216932,82.53968253968254 88.67724867724868,82.75132275132276 88.04232804232805,82.96296296296298 87.40740740740742,83.17460317460318 86.77248677248677,83.3862433862434 86.13756613756614,83.59788359788361 85.5026455026455,83.80952380952381 84.86772486772487,84.23280423280424 84.23280423280424,84.44444444444446 83.59788359788361,84.65608465608466 82.96296296296298,85.07936507936509 82.32804232804233,85.29100529100529 81.6931216931217,85.5026455026455 81.05820105820106,85.92592592592594 80.42328042328043,86.34920634920636 79.7883597883598,86.77248677248677 79.36507936507937,87.1957671957672 78.73015873015873,87.61904761904762 78.30687830687832,88.04232804232805 77.88359788359789,88.46560846560847 77.46031746031747,88.8888888888889 76.82539682539684,89.31216931216932 76.4021164021164,89.94708994708995 75.97883597883599,90.37037037037038 75.55555555555556,91.00529100529101 75.13227513227514,91.42857142857143 74.92063492063492,92.06349206349208 74.49735449735451,92.4867724867725 74.28571428571429,93.12169312169313 73.86243386243387,93.75661375661376 73.65079365079366,94.39153439153439 73.22751322751323,95.02645502645504 73.01587301587303,95.66137566137567 72.80423280423281,96.2962962962963 72.5925925925926,96.93121693121694 72.38095238095238,97.56613756613757 72.38095238095238,98.2010582010582 72.38095238095238,98.83597883597885 72.16931216931218,99.47089947089948 72.16931216931218,100.10582010582011 72.16931216931218,100.74074074074075 72.38095238095238,101.37566137566138 72.38095238095238,102.01058201058201 72.5925925925926,102.64550264550266 72.5925925925926,103.28042328042329 72.80423280423281,103.91534391534393 73.01587301587303,104.55026455026456 73.22751322751323,105.18518518518519 73.43915343915344,105.82010582010582 73.65079365079366,106.45502645502647 73.86243386243387,107.0899470899471 74.28571428571429,107.72486772486774 74.70899470899471,108.35978835978837 74.92063492063492,108.994708994709 75.34391534391536,109.62962962962963 75.55555555555556,110.26455026455027 75.97883597883599,110.6878306878307 76.19047619047619,111.32275132275133 76.61375661375662,111.95767195767196 77.03703703703704,112.5925925925926 77.46031746031747,113.22751322751324 77.88359788359789,113.86243386243387 78.30687830687832,114.28571428571429 78.73015873015873,114.92063492063492 79.15343915343917,115.34391534391536 79.57671957671958,115.76719576719577 80.0,116.1904761904762 80.42328042328043,116.61375661375662 80.84656084656085,117.03703703703705 81.26984126984128,117.46031746031747 81.6931216931217,117.88359788359789 82.11640211640213,118.30687830687832 82.53968253968254,118.73015873015873 82.96296296296298,119.15343915343917 83.59788359788361,119.57671957671958 84.02116402116403,120.00000000000001 84.44444444444446,120.63492063492065 84.86772486772487,121.05820105820106 85.5026455026455,121.4814814814815 85.92592592592594,121.90476190476191 86.34920634920636,122.53968253968254 86.77248677248677,122.96296296296298 87.1957671957672,123.3862433862434 87.61904761904762,123.80952380952382 88.04232804232805,124.23280423280424 88.46560846560847,124.65608465608466 88.8888888888889,125.07936507936509 89.31216931216932,125.71428571428572 89.73544973544975,126.13756613756615 90.15873015873017,126.77248677248679 90.58201058201058,127.40740740740742 91.00529100529101,128.04232804232805 91.21693121693123,128.67724867724868 91.64021164021165,129.10052910052912 91.85185185185186,129.73544973544975 92.27513227513228,130.37037037037038 92.4867724867725,131.005291005291 92.69841269841271,131.64021164021165 93.12169312169313,132.06349206349208 93.33333333333334,132.6984126984127 93.54497354497356,133.33333333333334 93.75661375661376,133.96825396825398 93.96825396825398,134.6031746031746 93.96825396825398,135.23809523809524 94.39153439153439,135.87301587301587 94.39153439153439,136.5079365079365 94.60317460317461,137.14285714285717 94.60317460317461,137.7777777777778 94.60317460317461,138.41269841269843 94.60317460317461,139.04761904761907 94.39153439153439,139.6825396825397 94.17989417989419,140.31746031746033 93.96825396825398,140.95238095238096 93.54497354497356,141.5873015873016 93.12169312169313,142.01058201058203 92.69841269841271,142.43386243386246 92.27513227513228,142.85714285714286 91.64021164021165,143.2804232804233 91.00529100529101,143.4920634920635 90.37037037037038,143.70370370370372 89.73544973544975,143.91534391534393 89.1005291005291,144.12698412698413 88.46560846560847,144.12698412698413 87.83068783068784,144.33862433862436 87.1957671957672,144.33862433862436 86.56084656084657,144.55026455026456 85.92592592592594,144.55026455026456 85.29100529100529,144.55026455026456 84.65608465608466,144.76190476190476 84.02116402116403,144.76190476190476 83.3862433862434,144.76190476190476 82.75132275132276,144.76190476190476 82.11640211640213,144.76190476190476 81.48148148148148,144.76190476190476 80.84656084656085,144.76190476190476 80.21164021164022,144.76190476190476 79.57671957671958,144.76190476190476 78.94179894179895,144.76190476190476 78.30687830687832,144.76190476190476 77.67195767195767,144.76190476190476 77.03703703703704,144.55026455026456 76.4021164021164,144.55026455026456 75.76719576719577,144.55026455026456 75.13227513227514,144.33862433862436 74.49735449735451,144.33862433862436 73.86243386243387,144.12698412698413 73.22751322751323,144.33862433862436 72.5925925925926,144.12698412698413 71.95767195767196,144.12698412698413 71.32275132275133,143.91534391534393 70.6878306878307,143.91534391534393 70.05291005291006,143.70370370370372 69.41798941798942,143.70370370370372 68.78306878306879,143.4920634920635 68.14814814814815,143.4920634920635 67.51322751322752,143.2804232804233 66.87830687830689,143.2804232804233 66.24338624338625,143.0687830687831 65.60846560846561,143.0687830687831 64.97354497354497,142.85714285714286 64.33862433862434,142.85714285714286 63.70370370370371,142.64550264550266 63.06878306878308,142.64550264550266 62.43386243386244,142.64550264550266 61.798941798941804,142.43386243386246 61.16402116402117,142.43386243386246 60.52910052910053,142.43386243386246 59.8941798941799,142.22222222222223 59.25925925925927,142.01058201058203 58.62433862433863,142.01058201058203 57.989417989417994,142.01058201058203 57.35449735449736,142.01058201058203 56.71957671957672,141.7989417989418 56.08465608465609,141.7989417989418 55.449735449735456,141.5873015873016 54.81481481481482,141.5873015873016 54.179894179894184,141.3756613756614 53.54497354497355,141.3756613756614 52.91005291005291,141.3756613756614 52.27513227513228,141.16402116402116 51.640211640211646,141.16402116402116 51.00529100529101,141.16402116402116 50.370370370370374,140.95238095238096 49.73544973544974,140.95238095238096 49.1005291005291,140.95238095238096 48.46560846560847,140.74074074074076 47.830687830687836,140.74074074074076 47.195767195767196,140.74074074074076 46.560846560846564,140.74074074074076 45.92592592592593,140.52910052910053 45.29100529100529,140.52910052910053 44.65608465608466,140.52910052910053 44.021164021164026,140.52910052910053 43.386243386243386,140.31746031746033 42.75132275132275,140.31746031746033 42.11640211640212,140.31746031746033 41.48148148148149,140.10582010582013 40.84656084656085,140.10582010582013 40.211640211640216,140.10582010582013 39.57671957671958,140.10582010582013 38.94179894179894,139.8941798941799 38.30687830687831,140.10582010582013 37.67195767195768,140.10582010582013 37.03703703703704,140.10582010582013 36.402116402116405,140.10582010582013 35.76719576719577,140.10582010582013 35.13227513227513,140.10582010582013 34.4973544973545,140.10582010582013 33.86243386243387,140.10582010582013 33.22751322751323,140.10582010582013 32.592592592592595,140.10582010582013 31.95767195767196,140.10582010582013 31.322751322751326,140.10582010582013 30.68783068783069,140.10582010582013 30.052910052910054,140.10582010582013 26.455026455026456,140.10582010582013" style="fill:none; stroke:#00aa99; stroke-width:1.0"  /><polyline points="26.455026455026456,140.10582010582013 27.089947089947092,136.5079365079365 27.089947089947092,135.87301587301587 27.301587301587304,135.23809523809524 27.513227513227516,134.6031746031746 27.513227513227516,133.96825396825398 27.724867724867728,133.33333333333334 27.724867724867728,132.6984126984127 27.93650793650794,132.06349206349208 28.14814814814815,131.42857142857144 28.35978835978836,130.7936507936508 28.35978835978836,130.15873015873018 28.571428571428573,129.52380952380955 28.783068783068785,128.88888888888889 28.783068783068785,128.25396825396825 28.994708994708997,127.61904761904763 29.20634920634921,126.98412698412699 29.41798941798942,126.34920634920636 29.629629629629633,125.71428571428572 29.629629629629633,125.07936507936509 29.841269841269842,124.44444444444446 30.052910052910054,123.80952380952382 30.264550264550266,123.17460317460318 30.264550264550266,122.53968253968254 30.68783068783069,121.90476190476191 30.68783068783069,121.26984126984128 30.899470899470902,120.63492063492065 31.111111111111114,120.00000000000001 31.322751322751326,119.36507936507937 31.322751322751326,118.73015873015873 31.746031746031747,118.0952380952381 31.95767195767196,117.46031746031747 32.16931216931217,116.82539682539684 32.16931216931217,116.1904761904762 32.38095238095239,115.55555555555557 32.592592592592595,114.92063492063492 32.804232804232804,114.28571428571429 33.22751322751323,113.65079365079366 33.43915343915344,113.01587301587303 33.65079365079365,112.3809523809524 33.86243386243387,111.74603174603176 34.074074074074076,111.11111111111111 34.28571428571429,110.47619047619048 34.70899470899471,109.84126984126985 34.920634920634924,109.20634920634922 35.13227513227513,108.57142857142858 35.34391534391535,107.93650793650795 35.34391534391535,107.3015873015873 35.55555555555556,106.66666666666667 35.76719576719577,106.03174603174604 35.97883597883598,105.3968253968254 36.19047619047619,104.76190476190477 36.402116402116405,104.12698412698414 36.613756613756614,103.4920634920635 36.82539682539683,102.85714285714286 37.03703703703704,102.22222222222223 37.248677248677254,101.5873015873016 37.67195767195768,100.95238095238096 37.67195767195768,100.31746031746033 37.883597883597886,99.68253968253968 38.095238095238095,99.04761904761905 38.30687830687831,98.41269841269842 38.51851851851852,97.77777777777779 38.730158730158735,97.14285714285715 38.94179894179894,96.50793650793652 39.15343915343916,95.87301587301587 39.36507936507937,95.23809523809524 39.57671957671958,94.60317460317461 39.78835978835979,93.96825396825398 40.0,93.33333333333334 40.211640211640216,92.69841269841271 40.423280423280424,92.06349206349208 40.423280423280424,91.42857142857143 40.63492063492064,90.7936507936508 40.84656084656085,90.15873015873017 40.84656084656085,89.52380952380953 41.058201058201064,88.8888888888889 41.058201058201064,88.25396825396827 41.058201058201064,87.61904761904762 41.058201058201064,86.98412698412699 40.84656084656085,86.34920634920636 40.63492063492064,85.71428571428572 40.63492063492064,85.07936507936509 40.211640211640216,84.44444444444446 40.0,83.80952380952381 39.57671957671958,83.17460317460318 39.15343915343916,82.53968253968254 38.730158730158735,81.90476190476191 38.30687830687831,81.48148148148148 37.67195767195768,81.48148148148148 37.248677248677254,81.05820105820106 36.613756613756614,80.84656084656085 35.97883597883598,80.63492063492065 35.34391534391535,80.42328042328043 34.70899470899471,80.42328042328043 34.074074074074076,80.42328042328043 33.43915343915344,80.42328042328043 32.804232804232804,80.21164021164022 32.16931216931217,80.42328042328043 31.53439153439154,80.63492063492065 30.899470899470902,80.63492063492065 30.264550264550266,81.05820105820106 29.629629629629633,81.26984126984128 28.994708994708997,81.48148148148148 28.571428571428573,81.90476190476191 27.93650793650794,82.32804232804233 27.513227513227516,82.75132275132276 26.87830687830688,83.17460317460318 26.243386243386244,83.59788359788361 25.60846560846561,84.02116402116403 24.973544973544975,84.23280423280424 24.55026455026455,84.65608465608466 23.915343915343918,84.86772486772487 23.280423280423282,85.07936507936509 22.645502645502646,85.5026455026455 22.010582010582013,85.71428571428572 21.375661375661377,85.71428571428572 20.740740740740744,85.92592592592594 20.105820105820108,85.92592592592594 19.47089947089947,86.13756613756614 18.83597883597884,86.13756613756614 18.201058201058203,86.13756613756614 17.566137566137566,86.13756613756614 16.931216931216934,85.92592592592594 16.296296296296298,85.92592592592594 15.661375661375663,85.92592592592594 15.026455026455027,85.71428571428572 14.391534391534393,85.5026455026455 13.756613756613758,85.5026455026455 13.121693121693122,85.29100529100529 12.486772486772487,85.07936507936509 11.851851851851853,84.65608465608466 11.216931216931219,84.44444444444446 10.582010582010582,84.02116402116403 9.947089947089948,83.59788359788361 9.312169312169313,83.17460317460318 8.677248677248677,82.75132275132276 8.253968253968255,82.32804232804233 7.830687830687832,81.90476190476191 7.407407407407408,81.48148148148148 6.772486772486773,81.05820105820106 6.34920634920635,80.63492063492065 5.9259259259259265,80.0 5.502645502645503,79.57671957671958 5.07936507936508,79.15343915343917 4.656084656084657,78.51851851851852 4.2328042328042335,78.0952380952381 3.8095238095238098,77.46031746031747 3.3862433862433865,76.82539682539684 2.9629629629629632,76.4021164021164 2.7513227513227516,75.76719576719577 2.3280423280423284,75.13227513227514 2.1164021164021167,74.49735449735451 1.6931216931216932,73.86243386243387 1.4814814814814816,73.22751322751323 1.0582010582010584,72.5925925925926 0.8465608465608466,71.95767195767196 0.634920634920635,71.32275132275133 0.634920634920635,70.6878306878307 0.4232804232804233,70.05291005291006 0.4232804232804233,69.41798941798942 0.21164021164021166,68.78306878306879 0.21164021164021166,68.14814814814815 0.21164021164021166,67.51322751322752 0.21164021164021166,66.87830687830689 0.21164021164021166,66.24338624338625 0.21164021164021166,65.60846560846561 0.21164021164021166,64.97354497354497 0.21164021164021166,64.33862433862434 0.21164021164021166,63.70370370370371 0.21164021164021166,63.06878306878308 0.21164021164021166,62.43386243386244 0.21164021164021166,61.798941798941804 0.21164021164021166,61.16402116402117 0.4232804232804233,60.52910052910053 0.4232804232804233,59.8941798941799 0.634920634920635,59.25925925925927 0.8465608465608466,58.62433862433863 0.8465608465608466,57.989417989417994 1.26984126984127,57.35449735449736 1.4814814814814816,56.71957671957672 1.9047619047619049,56.08465608465609 2.3280423280423284,55.661375661375665 2.7513227513227516,55.02645502645503 3.174603174603175,54.60317460317461 3.8095238095238098,54.179894179894184 4.444444444444445,53.968253968253975 5.07936507936508,53.54497354497355 5.714285714285714,53.333333333333336 6.34920634920635,53.333333333333336 6.984126984126985,53.12169312169313 7.6190476190476195,53.12169312169313 8.253968253968255,53.12169312169313 8.88888888888889,52.91005291005291 9.523809523809524,53.12169312169313 10.15873015873016,53.12169312169313 10.793650793650794,53.333333333333336 11.428571428571429,53.333333333333336 12.063492063492065,53.75661375661376 12.6984126984127,53.968253968253975 13.333333333333334,54.39153439153439 13.96825396825397,54.60317460317461 14.391534391534393,55.02645502645503 15.026455026455027,55.449735449735456 15.449735449735451,55.87301587301588 16.084656084656086,56.08465608465609 16.71957671957672,56.50793650793651 17.354497354497354,56.93121693121694 17.98941798941799,57.142857142857146 18.624338624338627,57.35449735449736 19.25925925925926,57.56613756613757 19.894179894179896,57.989417989417994 20.529100529100532,58.2010582010582 21.164021164021165,58.2010582010582 21.7989417989418,58.41269841269842 22.433862433862437,58.41269841269842 23.06878306878307,58.62433862433863 23.703703703703706,58.83597883597884 24.338624338624342,58.83597883597884 24.973544973544975,58.83597883597884 25.60846560846561,58.83597883597884 26.243386243386244,58.83597883597884 26.87830687830688,58.83597883597884 27.513227513227516,59.04761904761905 28.14814814814815,59.04761904761905 28.783068783068785,59.04761904761905 29.41798941798942,59.04761904761905 30.052910052910054,58.83597883597884 30.68783068783069,58.83597883597884 31.322751322751326,58.83597883597884 31.95767195767196,58.62433862433863 32.592592592592595,58.41269841269842 33.22751322751323,58.2010582010582 33.86243386243387,57.777777777777786 34.4973544973545,57.56613756613757 35.13227513227513,57.142857142857146 35.76719576719577,56.71957671957672 36.19047619047619,56.2962962962963 36.613756613756614,55.87301587301588 37.03703703703704,55.449735449735456 37.46031746031746,55.02645502645503 37.883597883597886,54.60317460317461 38.30687830687831,53.968253968253975 38.51851851851852,53.333333333333336 38.94179894179894,52.91005291005291 39.15343915343916,52.27513227513228 39.36507936507937,51.640211640211646 39.57671957671958,51.00529100529101 39.78835978835979,50.370370370370374 40.211640211640216,49.73544973544974 40.211640211640216,49.1005291005291 40.211640211640216,48.46560846560847 40.211640211640216,47.830687830687836 40.423280423280424,47.195767195767196 40.423280423280424,46.560846560846564 40.423280423280424,45.92592592592593 40.423280423280424,45.29100529100529 40.211640211640216,44.65608465608466 40.211640211640216,44.021164021164026 40.0,43.386243386243386 39.78835978835979,42.75132275132275 39.57671957671958,42.11640211640212 39.36507936507937,41.48148148148149 38.94179894179894,41.058201058201064 38.730158730158735,40.423280423280424 38.30687830687831,39.78835978835979 37.883597883597886,39.36507936507937 37.67195767195768,38.730158730158735 37.248677248677254,38.30687830687831 36.82539682539683,37.67195767195768 36.402116402116405,37.248677248677254 36.19047619047619,36.613756613756614 35.76719576719577,35.97883597883598 35.34391534391535,35.34391534391535 35.13227513227513,34.70899470899471 34.70899470899471,34.074074074074076 34.28571428571429,33.43915343915344 34.074074074074076,32.804232804232804 33.65079365079365,32.16931216931217 33.43915343915344,31.53439153439154 33.01587301587302,30.899470899470902 32.804232804232804,30.264550264550266 32.38095238095239,29.629629629629633 32.16931216931217,28.994708994708997 31.95767195767196,28.35978835978836 31.746031746031747,27.724867724867728 31.53439153439154,27.089947089947092 31.111111111111114,26.455026455026456 30.899470899470902,25.820105820105823 30.68783068783069,25.185185185185187 30.476190476190478,24.55026455026455 30.052910052910054,23.915343915343918 30.052910052910054,23.280423280423282 30.052910052910054,22.645502645502646 29.629629629629633,22.222222222222225 29.629629629629633,21.58730158730159 29.41798941798942,20.952380952380953 29.20634920634921,20.31746031746032 28.994708994708997,19.682539682539684 28.783068783068785,19.047619047619047 28.571428571428573,18.412698412698415 28.35978835978836,17.77777777777778 28.14814814814815,17.142857142857146 27.93650793650794,16.50793650793651 27.724867724867728,15.873015873015873 27.724867724867728,15.238095238095239 27.513227513227516,14.603174603174605 27.301587301587304,13.96825396825397 27.089947089947092,13.333333333333334 27.089947089947092,12.6984126984127 26.87830687830688,12.063492063492065 26.666666666666668,11.428571428571429 26.455026455026456,10.793650793650794 26.455026455026456,10.15873015873016 26.243386243386244,9.523809523809524 26.031746031746035,8.88888888888889 26.031746031746035,8.253968253968255 25.185185185185187,4.444444444444445" style="fill:none; stroke:#3300bb; stroke-width:1.0"  /><circle cx="25.185185185185187" cy="4.444444444444445" r="2.0" style="fill:none; stroke:#000000aa; stroke-width:0.25" /><circle cx="163.80952380952382" cy="10.370370370370372" r="2.0" style="fill:none; stroke:#000000aa; stroke-width:0.25" /><circle cx="170.15873015873018" cy="107.51322751322752" r="2.0" style="fill:none; stroke:#000000aa; stroke-width:0.25" /><circle cx="26.455026455026456" cy="140.10582010582013" r="2.0" style="fill:none; stroke:#000000aa; stroke-width:0.25" /><circle cx="25.3968253968254" cy="5.07936507936508" r="2.0" style="fill:none; stroke:#ff3366aa; stroke-width:0.25" /><circle cx="163.80952380952382" cy="10.793650793650794" r="2.0" style="fill:none; stroke:#ff3366aa; stroke-width:0.25" /><circle cx="170.15873015873018" cy="107.93650793650795" r="2.0" style="fill:none; stroke:#ff3366aa; stroke-width:0.25" /><circle cx="26.666666666666668" cy="139.6825396825397" r="2.0" style="fill:none; stroke:#ff3366aa; stroke-width:0.25" /><polyline points="37.248677248677254,3.597883597883598 36.613756613756614,3.3862433862433865 35.97883597883598,3.597883597883598 35.34391534391535,3.597883597883598 34.70899470899471,3.8095238095238098 34.074074074074076,4.021164021164021 33.43915343915344,4.021164021164021 32.804232804232804,4.021164021164021 32.16931216931217,4.021164021164021 31.53439153439154,4.021164021164021 30.899470899470902,4.021164021164021 30.264550264550266,4.021164021164021 29.629629629629633,4.021164021164021 28.994708994708997,4.2328042328042335 28.35978835978836,4.2328042328042335" style="fill:none; stroke:#001100; stroke-width:1.0" /><polyline points="27.93650793650794,16.50793650793651 27.724867724867728,15.873015873015873 27.724867724867728,15.238095238095239 27.513227513227516,14.603174603174605 27.301587301587304,13.96825396825397 27.089947089947092,13.333333333333334 27.089947089947092,12.6984126984127 26.87830687830688,12.063492063492065 26.666666666666668,11.428571428571429 26.455026455026456,10.793650793650794 26.455026455026456,10.15873015873016 26.243386243386244,9.523809523809524 26.031746031746035,8.88888888888889 26.031746031746035,8.253968253968255" style="fill:none; stroke:#000011; stroke-width:1.0" /><polyline points="167.40740740740742,22.222222222222225 167.19576719576722,21.58730158730159 166.984126984127,20.952380952380953 166.7724867724868,20.31746031746032 166.56084656084658,19.682539682539684 166.34920634920636,19.047619047619047 166.13756613756615,18.412698412698415 165.92592592592595,17.77777777777778 165.71428571428572,17.142857142857146 165.50264550264552,16.50793650793651 165.2910052910053,15.873015873015873 165.0793650793651,15.238095238095239 164.8677248677249,14.603174603174605 164.8677248677249,13.96825396825397" style="fill:none; stroke:#001100; stroke-width:1.0" /><polyline points="153.65079365079367,5.502645502645503 154.2857142857143,5.502645502645503 154.7089947089947,5.9259259259259265 155.34391534391534,6.137566137566138 155.978835978836,6.560846560846561 156.61375661375664,6.772486772486773 157.24867724867727,6.984126984126985 157.8835978835979,7.407407407407408 158.51851851851853,7.830687830687832 159.15343915343917,8.042328042328043 159.7883597883598,8.253968253968255 160.42328042328043,8.465608465608467 160.84656084656086,8.88888888888889" style="fill:none; stroke:#000011; stroke-width:1.0" /><polyline points="158.30687830687833,106.87830687830689 158.94179894179896,106.66666666666667 159.5767195767196,106.87830687830689 160.21164021164023,106.87830687830689 160.84656084656086,106.87830687830689 161.4814814814815,106.66666666666667 162.11640211640213,106.66666666666667 162.75132275132276,106.66666666666667 163.3862433862434,106.87830687830689 164.02116402116403,106.87830687830689 164.65608465608466,107.0899470899471 165.2910052910053,107.0899470899471 165.92592592592595,107.0899470899471 166.56084656084658,107.3015873015873 167.19576719576722,107.3015873015873" style="fill:none; stroke:#001100; stroke-width:1.0" /><polyline points="172.06349206349208,96.50793650793652 172.06349206349208,97.14285714285715 171.85185185185188,97.77777777777779 171.85185185185188,98.41269841269842 171.64021164021165,99.04761904761905 171.42857142857144,99.68253968253968 171.42857142857144,100.31746031746033 171.21693121693124,100.95238095238096 171.21693121693124,101.5873015873016 171.005291005291,102.22222222222223 171.005291005291,102.85714285714286 170.7936507936508,103.4920634920635 170.7936507936508,104.12698412698414 170.58201058201058,104.76190476190477" style="fill:none; stroke:#000011; stroke-width:1.0" /><polyline points="28.783068783068785,128.25396825396825 28.783068783068785,128.88888888888889 28.571428571428573,129.52380952380955 28.35978835978836,130.15873015873018 28.35978835978836,130.7936507936508 28.14814814814815,131.42857142857144 27.93650793650794,132.06349206349208 27.724867724867728,132.6984126984127 27.724867724867728,133.33333333333334 27.513227513227516,133.96825396825398 27.513227513227516,134.6031746031746 27.301587301587304,135.23809523809524 27.089947089947092,135.87301587301587 27.089947089947092,136.5079365079365" style="fill:none; stroke:#001100; stroke-width:1.0" /><polyline points="38.30687830687831,140.10582010582013 37.67195767195768,140.10582010582013 37.03703703703704,140.10582010582013 36.402116402116405,140.10582010582013 35.76719576719577,140.10582010582013 35.13227513227513,140.10582010582013 34.4973544973545,140.10582010582013 33.86243386243387,140.10582010582013 33.22751322751323,140.10582010582013 32.592592592592595,140.10582010582013 31.95767195767196,140.10582010582013 31.322751322751326,140.10582010582013 30.68783068783069,140.10582010582013 30.052910052910054,140.10582010582013" style="fill:none; stroke:#000011; stroke-width:1.0" /><polyline points="28.35978835978836,4.2328042328042335 7.195767195767196,5.714285714285714" style="fill:none; stroke:#ffaa00; stroke-width:0.4" /><polyline points="26.031746031746035,8.253968253968255 21.375661375661377,-12.275132275132275" style="fill:none; stroke:#aaff00; stroke-width:0.4" /><polyline points="164.8677248677249,13.96825396825397 158.73015873015873,-6.34920634920635" style="fill:none; stroke:#ffaa00; stroke-width:0.4" /><polyline points="160.84656084656086,8.88888888888889 179.8941798941799,17.98941798941799" style="fill:none; stroke:#aaff00; stroke-width:0.4" /><polyline points="167.19576719576722,107.3015873015873 188.35978835978838,108.35978835978837" style="fill:none; stroke:#ffaa00; stroke-width:0.4" /><polyline points="170.58201058201058,104.76190476190477 166.7724867724868,125.5026455026455" style="fill:none; stroke:#aaff00; stroke-width:0.4" /><polyline points="27.089947089947092,136.5079365079365 22.857142857142858,157.24867724867727" style="fill:none; stroke:#ffaa00; stroke-width:0.4" /><polyline points="30.052910052910054,140.10582010582013 8.88888888888889,140.10582010582013" style="fill:none; stroke:#aaff00; stroke-width:0.4" /><circle cx="88.25396825396827" cy="66.24338624338625" r="1.0" style="fill:#444444; stroke-width:0" /><circle cx="75.97883597883599" cy="50.58201058201058" r="10.582010582010582" style="fill:#ff770022; stroke-width:0" /><circle cx="75.97883597883599" cy="50.58201058201058" r="1.0" style="fill:#ff7700; stroke-width:0" /></svg>