<?xml version="1.0" encoding="UTF-8" standalone="no"?><svg width="619.6825396825398" height="623.4920634920635" viewBox="-10 -10 226.56084656084658 227.83068783068785" xmlns="http://www.w3.org/2000/svg" xmlns:xlink="http://www.w3.org/1999/xlink"><polyline points="-0.21164021164021166,66.45502645502646 1.4814814814814816,63.70370370370371 1.9047619047619049,63.06878306878308 2.3280423280423284,62.43386243386244 2.7513227513227516,61.798941798941804 3.174603174603175,61.16402116402117 3.597883597883598,60.52910052910053 4.021164021164021,59.8941798941799 4.2328042328042335,59.25925925925927 4.656084656084657,58.83597883597884 5.07936507936508,58.2010582010582 5.07936507936508,57.56613756613757 5.502645502645503,56.93121693121694 5.9259259259259265,56.2962962962963 6.34920634920635,55.661375661375665 6.772486772486773,55.02645502645503 7.195767195767196,54.39153439153439 7.407407407407408,53.75661375661376 7.830687830687832,53.12169312169313 8.253968253968255,52.48677248677249 8.465608465608467,51.851851851851855 8.88888888888889,51.21693121693122 9.312169312169313,50.58201058201058 9.523809523809524,49.94708994708995 9.947089947089948,49.31216931216932 10.15873015873016,48.677248677248684 10.582010582010582,48.042328042328045 10.793650793650794,47.40740740740741 11.216931216931219,46.77248677248678 11.428571428571429,46.13756613756614 11.851851851851853,45.50264550264551 12.063492063492065,44.867724867724874 12.275132275132275,44.232804232804234 12.6984126984127,43.5978835978836 12.910052910052912,42.96296296296297 13.333333333333334,42.32804232804233 13.544973544973546,41.6931216931217 13.756613756613758,41.058201058201064 14.17989417989418,40.63492063492064 14.603174603174605,40.0 15.026455026455027,39.57671957671958 15.449735449735451,38.94179894179894 16.084656084656086,38.51851851851852 16.50793650793651,38.095238095238095 17.142857142857146,37.883597883597886 17.77777777777778,37.67195767195768 18.412698412698415,37.46031746031746 19.047619047619047,37.248677248677254 19.682539682539684,37.248677248677254 20.31746031746032,37.46031746031746 20.952380952380953,37.46031746031746 21.58730158730159,37.67195767195768 22.222222222222225,37.883597883597886 22.857142857142858,38.30687830687831 23.492063492063494,38.730158730158735 23.915343915343918,39.36507936507937 24.338624338624342,40.0 24.761904761904763,40.63492063492064 24.973544973544975,41.26984126984127 25.185185185185187,41.904761904761905 25.3968253968254,42.539682539682545 25.820105820105823,43.17460317460318 26.031746031746035,43.80952380952381 26.455026455026456,44.44444444444445 26.666666666666668,45.07936507936508 27.089947089947092,45.714285714285715 27.513227513227516,46.349206349206355 27.724867724867728,46.98412698412699 28.14814814814815,47.40740740740741 28.35978835978836,48.042328042328045 28.783068783068785,48.46560846560847 29.20634920634921,48.88888888888889 29.629629629629633,49.523809523809526 30.052910052910054,49.94708994708995 30.476190476190478,50.370370370370374 30.899470899470902,50.7936507936508 31.322751322751326,51.21693121693122 31.746031746031747,51.640211640211646 32.16931216931217,52.06349206349207 32.592592592592595,52.48677248677249 33.01587301587302,52.91005291005291 33.43915343915344,53.333333333333336 33.86243386243387,53.75661375661376 34.28571428571429,54.179894179894184 34.920634920634924,54.39153439153439 35.34391534391535,54.81481481481482 35.97883597883598,55.02645502645503 36.613756613756614,55.449735449735456 37.248677248677254,55.449735449735456 37.883597883597886,55.661375661375665 38.51851851851852,55.661375661375665 39.15343915343916,55.661375661375665 39.78835978835979,55.87301587301588 40.423280423280424,55.87301587301588 41.058201058201064,55.661375661375665 41.6931216931217,55.449735449735456 42.32804232804233,55.23809523809524 42.96296296296297,55.02645502645503 43.5978835978836,54.60317460317461 44.232804232804234,54.39153439153439 44.867724867724874,53.968253968253975 45.50264550264551,53.75661375661376 45.92592592592593,53.333333333333336 46.560846560846564,53.12169312169313 47.195767195767196,52.6984126984127 47.830687830687836,52.27513227513228 48.46560846560847,51.851851851851855 49.1005291005291,51.42857142857143 49.73544973544974,51.00529100529101 50.370370370370374,50.58201058201058 51.00529100529101,50.158730158730165 51.640211640211646,49.73544973544974 52.27513227513228,49.31216931216932 52.6984126984127,48.88888888888889 53.333333333333336,48.46560846560847 53.75661375661376,48.042328042328045 54.179894179894184,47.61904761904762 54.81481481481482,47.195767195767196 55.23809523809524,46.77248677248678 55.661375661375665,46.349206349206355 56.08465608465609,45.92592592592593 56.50793650793651,45.50264550264551 56.93121693121694,45.07936507936508 57.35449735449736,44.65608465608466 57.777777777777786,44.021164021164026 58.2010582010582,43.5978835978836 58.62433862433863,42.96296296296297 59.04761904761905,42.539682539682545 59.470899470899475,41.904761904761905 59.8941798941799,41.48148148148149 60.31746031746032,40.84656084656085 60.74074074074075,40.423280423280424 60.952380952380956,39.78835978835979 61.16402116402117,39.15343915343916 61.58730158730159,38.51851851851852 61.58730158730159,37.883597883597886 61.798941798941804,37.248677248677254 61.798941798941804,36.613756613756614 61.798941798941804,35.97883597883598 61.798941798941804,35.34391534391535 61.58730158730159,34.70899470899471 61.58730158730159,34.074074074074076 61.37566137566138,33.43915343915344 60.952380952380956,32.804232804232804 60.74074074074075,32.16931216931217 60.52910052910053,31.53439153439154 60.10582010582011,31.111111111111114 59.682539682539684,30.476190476190478 59.25925925925927,29.841269841269842 58.83597883597884,29.41798941798942 58.41269841269842,28.783068783068785 57.989417989417994,28.35978835978836 57.35449735449736,27.93650793650794 56.71957671957672,27.513227513227516 56.08465608465609,27.089947089947092 55.449735449735456,26.666666666666668 54.81481481481482,26.455026455026456 54.179894179894184,26.031746031746035 53.54497354497355,25.820105820105823 52.91005291005291,25.60846560846561 52.27513227513228,25.3968253968254 51.640211640211646,25.185185185185187 51.00529100529101,24.973544973544975 50.370370370370374,24.55026455026455 49.73544973544974,24.338624338624342 49.1005291005291,24.12698412698413 48.677248677248684,23.703703703703706 48.042328042328045,23.492063492063494 47.61904761904762,23.06878306878307 46.98412698412699,22.645502645502646 46.349206349206355,22.222222222222225 45.92592592592593,21.58730158730159 45.50264550264551,20.952380952380953 45.29100529100529,20.31746031746032 45.07936507936508,19.682539682539684 44.867724867724874,19.047619047619047 45.07936507936508,18.412698412698415 45.07936507936508,17.77777777777778 45.29100529100529,17.142857142857146 45.714285714285715,16.50793650793651 46.13756613756614,15.873015873015873 46.560846560846564,15.449735449735451 46.98412698412699,15.026455026455027 47.40740740740741,14.603174603174605 47.830687830687836,14.17989417989418 48.25396825396826,13.756613756613758 48.88888888888889,13.333333333333334 49.31216931216932,12.910052910052912 49.94708994708995,12.486772486772487 50.370370370370374,12.063492063492065 51.00529100529101,11.640211640211641 51.42857142857143,11.216931216931219 52.06349206349207,10.793650793650794 52.48677248677249,10.370370370370372 53.12169312169313,9.947089947089948 53.75661375661376,9.523809523809524 54.179894179894184,9.100529100529101 54.81481481481482,8.677248677248677 55.23809523809524,8.253968253968255 55.87301587301588,7.830687830687832 56.2962962962963,7.407407407407408 56.71957671957672,6.984126984126985 57.35449735449736,6.560846560846561 57.777777777777786,6.137566137566138 58.2010582010582,5.502645502645503 58.62433862433863,5.07936507936508 59.04761904761905,4.656084656084657 59.682539682539684,4.2328042328042335 60.10582010582011,3.8095238095238098 60.52910052910053,3.3862433862433865 60.952380952380956,2.9629629629629632 61.37566137566138,2.53968253968254 64.33862433862434,-0.21164021164021166" style="fill:none; stroke:#cc0000; stroke-width:1.0"  /><polyline points="64.33862433862434,-0.21164021164021166 66.45502645502646,2.7513227513227516 66.87830687830689,3.3862433862433865 67.3015873015873,3.8095238095238098 67.72486772486774,4.2328042328042335 67.93650793650794,4.867724867724868 68.35978835978837,5.291005291005291 68.78306878306879,5.714285714285714 69.20634920634922,6.34920634920635 69.62962962962963,6.984126984126985 70.05291005291006,7.6190476190476195 70.47619047619048,8.253968253968255 70.8994708994709,8.88888888888889 71.32275132275133,9.312169312169313 71.74603174603175,9.947089947089948 72.16931216931218,10.370370370370372 72.5925925925926,10.793650793650794 73.01587301587303,11.216931216931219 73.43915343915344,11.851851851851853 73.86243386243387,12.275132275132275 74.28571428571429,12.910052910052912 74.70899470899471,13.544973544973546 75.13227513227514,13.96825396825397 75.55555555555556,14.603174603174605 75.97883597883599,15.026455026455027 76.4021164021164,15.449735449735451 76.82539682539684,16.084656084656086 77.24867724867725,16.50793650793651 77.67195767195767,16.931216931216934 78.0952380952381,17.354497354497354 78.51851851851852,17.98941798941799 78.94179894179895,18.624338624338627 79.36507936507937,19.047619047619047 79.7883597883598,19.682539682539684 80.21164021164022,20.105820105820108 80.63492063492065,20.740740740740744 81.05820105820106,21.164021164021165 81.48148148148148,21.58730158730159 81.90476190476191,22.222222222222225 82.32804232804233,22.645502645502646 82.75132275132276,23.06878306878307 83.17460317460318,23.492063492063494 83.59788359788361,23.915343915343918 84.02116402116403,24.338624338624342 84.44444444444446,24.973544973544975 84.86772486772487,25.3968253968254 85.29100529100529,25.820105820105823 85.71428571428572,26.455026455026456 86.13756613756614,26.87830687830688 86.56084656084657,27.301587301587304 86.98412698412699,27.93650793650794 87.40740740740742,28.35978835978836 87.83068783068784,28.994708994708997 88.25396825396827,29.41798941798942 88.67724867724868,29.841269841269842 89.1005291005291,30.264550264550266 89.52380952380953,30.68783068783069 89.94708994708995,31.322751322751326 90.37037037037038,31.746031746031747 90.7936507936508,32.16931216931217 91.21693121693123,32.804232804232804 91.64021164021165,33.22751322751323 92.06349206349208,33.86243386243387 92.4867724867725,34.28571428571429 92.91005291005291,34.70899470899471 93.54497354497356,35.13227513227513 93.96825396825398,35.76719576719577 94.39153439153439,36.19047619047619 94.81481481481482,36.613756613756614 95.23809523809524,37.248677248677254 95.66137566137567,37.67195767195768 96.08465608465609,38.30687830687831 96.50793650793652,38.730158730158735 96.93121693121694,39.36507936507937 97.35449735449737,39.78835978835979 97.77777777777779,40.211640211640216 98.2010582010582,40.84656084656085 98.62433862433863,41.48148148148149 99.04761904761905,42.11640211640212 99.47089947089948,42.539682539682545 99.8941798941799,42.96296296296297 100.31746031746033,43.386243386243386 100.74074074074075,44.021164021164026 101.16402116402116,44.44444444444445 101.5873015873016,44.867724867724874 102.01058201058201,45.29100529100529 102.43386243386244,45.714285714285715 102.85714285714286,46.13756613756614 103.4920634920635,46.560846560846564 103.91534391534393,46.98412698412699 104.55026455026456,47.40740740740741 105.18518518518519,47.61904761904762 105.82010582010582,47.830687830687836 106.45502645502647,48.042328042328045 107.0899470899471,48.042328042328045 107.72486772486774,48.042328042328045 108.35978835978837,48.25396825396826 108.994708994709,48.042328042328045 109.62962962962963,47.830687830687836 110.26455026455027,47.61904761904762 110.89947089947091,47.195767195767196 111.53439153439155,46.77248677248678 112.16931216931218,46.349206349206355 112.5925925925926,45.92592592592593 113.01587301587303,45.50264550264551 113.43915343915344,45.07936507936508 113.86243386243387,44.44444444444445 114.28571428571429,44.021164021164026 114.70899470899472,43.386243386243386 115.13227513227514,42.75132275132275 115.55555555555557,42.11640211640212 115.76719576719577,41.48148148148149 115.97883597883599,40.84656084656085 116.1904761904762,40.211640211640216 116.61375661375662,39.57671957671958 116.61375661375662,38.94179894179894 116.82539682539684,38.30687830687831 117.03703703703705,37.67195767195768 117.24867724867725,37.03703703703704 117.46031746031747,36.402116402116405 117.46031746031747,35.76719576719577 117.67195767195768,35.13227513227513 118.0952380952381,34.4973544973545 118.30687830687832,33.86243386243387 118.51851851851853,33.22751322751323 118.94179894179895,32.592592592592595 119.36507936507937,31.95767195767196 119.57671957671958,31.322751322751326 120.00000000000001,30.899470899470902 120.42328042328043,30.264550264550266 120.84656084656086,29.841269841269842 121.26984126984128,29.41798941798942 121.6931216931217,28.994708994708997 122.32804232804234,28.783068783068785 122.96296296296298,28.35978835978836 123.59788359788361,28.14814814814815 124.23280423280424,27.93650793650794 124.86772486772487,27.93650793650794 125.5026455026455,27.93650793650794 126.13756613756615,27.93650793650794 126.77248677248679,28.14814814814815 127.40740740740742,28.35978835978836 128.04232804232805,28.14814814814815 128.67724867724868,28.35978835978836 129.31216931216932,28.783068783068785 129.94708994708995,28.994708994708997 130.58201058201058,29.41798941798942 131.21693121693121,29.629629629629633 131.64021164021165,30.052910052910054 132.27513227513228,30.476190476190478 132.9100529100529,30.68783068783069 133.33333333333334,31.111111111111114 133.96825396825398,31.53439153439154 134.6031746031746,31.95767195767196 135.02645502645504,32.38095238095239 135.44973544973547,32.804232804232804 135.87301587301587,33.22751322751323 136.2962962962963,33.65079365079365 136.71957671957674,34.074074074074076 137.14285714285717,34.4973544973545 137.56613756613757,34.920634920634924 137.989417989418,35.34391534391535 138.41269841269843,35.97883597883598 138.83597883597884,36.402116402116405 139.25925925925927,37.03703703703704 139.47089947089947,37.67195767195768 139.8941798941799,38.30687830687831 140.10582010582013,38.94179894179894 140.31746031746033,39.57671957671958 140.74074074074076,40.211640211640216 140.95238095238096,40.84656084656085 141.3756613756614,41.48148148148149 141.5873015873016,42.11640211640212 141.7989417989418,42.75132275132275 142.01058201058203,43.386243386243386 142.22222222222223,44.021164021164026 142.43386243386246,44.65608465608466 142.43386243386246,45.29100529100529 142.64550264550266,45.92592592592593 142.43386243386246,46.560846560846564 142.43386243386246,47.195767195767196 142.43386243386246,47.830687830687836 142.22222222222223,48.46560846560847 142.01058201058203,49.1005291005291 141.5873015873016,49.73544973544974 141.16402116402116,50.158730158730165 140.74074074074076,50.7936507936508 140.31746031746033,51.21693121693122 139.6825396825397,51.640211640211646 139.04761904761907,52.06349206349207 138.62433862433863,52.48677248677249 137.989417989418,52.6984126984127 137.56613756613757,53.12169312169313 136.93121693121694,53.54497354497355 136.2962962962963,53.968253968253975 135.66137566137567,54.179894179894184 135.23809523809524,54.60317460317461 134.6031746031746,55.02645502645503 133.96825396825398,55.449735449735456 133.33333333333334,55.87301587301588 132.6984126984127,56.2962962962963 132.06349206349208,56.71957671957672 131.42857142857144,57.142857142857146 131.005291005291,57.777777777777786 130.37037037037038,58.2010582010582 129.94708994708995,58.62433862433863 129.52380952380955,59.25925925925927 129.10052910052912,59.8941798941799 128.67724867724868,60.52910052910053 128.46560846560848,61.16402116402117 128.25396825396825,61.798941798941804 128.04232804232805,62.43386243386244 128.04232804232805,63.06878306878308 128.04232804232805,63.70370370370371 128.25396825396825,64.33862433862434 128.25396825396825,64.97354497354497 128.46560846560848,65.60846560846561 128.88888888888889,66.24338624338625 129.31216931216932,66.87830687830689 129.73544973544975,67.51322751322752 130.15873015873018,67.93650793650794 130.58201058201058,68.35978835978837 131.005291005291,68.78306878306879 131.42857142857144,69.20634920634922 132.06349206349208,69.62962962962963 132.6984126984127,70.05291005291006 133.33333333333334,70.47619047619048 133.96825396825398,70.8994708994709 134.3915343915344,71.32275132275133 135.02645502645504,71.74603174603175 135.44973544973547,72.16931216931218 136.0846560846561,72.5925925925926 136.71957671957674,73.01587301587303 137.35449735449737,73.22751322751323 137.7777777777778,73.65079365079366 138.2010582010582,74.07407407407408 138.62433862433863,74.49735449735451 139.25925925925927,74.92063492063492 139.6825396825397,75.34391534391536 140.31746031746033,75.76719576719577 140.74074074074076,76.19047619047619 141.3756613756614,76.61375661375662 141.7989417989418,77.03703703703704 142.22222222222223,77.46031746031747 142.85714285714286,77.67195767195767 143.2804232804233,78.0952380952381 143.91534391534393,78.51851851851852 144.33862433862436,78.94179894179895 144.973544973545,79.36507936507937 145.60846560846562,79.7883597883598 146.03174603174605,80.21164021164022 146.66666666666669,80.63492063492065 147.0899470899471,81.05820105820106 147.72486772486775,81.48148148148148 148.14814814814815,81.90476190476191 148.78306878306879,82.32804232804233 149.41798941798942,82.53968253968254 149.84126984126985,82.96296296296298 150.26455026455028,83.3862433862434 150.6878306878307,83.80952380952381 151.32275132275134,84.23280423280424 151.95767195767198,84.65608465608466 152.38095238095238,85.07936507936509 153.01587301587304,85.5026455026455 153.65079365079367,85.92592592592594 154.07407407407408,86.34920634920636 154.7089947089947,86.77248677248677 155.34391534391534,87.1957671957672 155.76719576719577,87.61904761904762 156.4021164021164,88.04232804232805 156.82539682539684,88.46560846560847 157.24867724867727,88.8888888888889 157.8835978835979,89.31216931216932 158.51851851851853,89.73544973544975 158.94179894179896,90.15873015873017 159.5767195767196,90.37037037037038 160.0,90.7936507936508 160.42328042328043,91.21693121693123 161.05820105820106,91.64021164021165 161.6931216931217,92.06349206349208 162.11640211640213,92.4867724867725 162.53968253968256,92.91005291005291 163.1746031746032,93.12169312169313 163.80952380952382,93.54497354497356 164.23280423280426,93.96825396825398 164.8677248677249,94.39153439153439 165.2910052910053,94.81481481481482 165.92592592592595,95.23809523809524 166.34920634920636,95.66137566137567 166.984126984127,96.08465608465609 167.61904761904762,96.50793650793652 168.04232804232805,96.93121693121694 168.67724867724868,97.35449735449737 169.31216931216932,97.77777777777779 169.73544973544975,98.2010582010582 170.15873015873018,98.62433862433863 170.7936507936508,99.04761904761905 171.42857142857144,99.47089947089948 171.85185185185188,99.8941798941799 172.4867724867725,100.10582010582011 172.9100529100529,100.74074074074075 173.54497354497354,101.16402116402116 174.1798941798942,101.5873015873016 174.81481481481484,102.01058201058201 175.23809523809524,102.43386243386244 175.87301587301587,102.85714285714286 176.2962962962963,103.28042328042329 176.93121693121694,103.70370370370371 177.56613756613757,104.12698412698414 177.989417989418,104.55026455026456 178.62433862433863,104.97354497354497 179.04761904761907,105.3968253968254 179.6825396825397,105.82010582010582 180.31746031746033,106.24338624338625 180.95238095238096,106.66666666666667 181.3756613756614,107.0899470899471 181.79894179894183,107.51322751322752 182.43386243386246,107.93650793650795 183.0687830687831,108.35978835978837 183.4920634920635,108.78306878306879 184.12698412698415,109.20634920634922 184.55026455026456,109.62962962962963 185.1851851851852,110.05291005291006 185.60846560846562,110.47619047619048 186.24338624338625,110.89947089947091 186.8783068783069,111.11111111111111 187.30158730158732,111.53439153439155 187.72486772486775,111.95767195767196 188.14814814814815,112.3809523809524 188.78306878306879,112.80423280423281 189.41798941798945,113.22751322751324 190.05291005291008,113.43915343915344 190.47619047619048,113.86243386243387 190.8994708994709,114.28571428571429 191.53439153439155,114.49735449735451 191.95767195767198,114.92063492063492 192.3809523809524,115.34391534391536 192.8042328042328,115.76719576719577 195.34391534391537,117.67195767195768" style="fill:none; stroke:#999900; stroke-width:1.0"  /><polyline points="195.34391534391537,117.67195767195768 193.01587301587304,120.42328042328043 192.5925925925926,121.05820105820106 192.16931216931218,121.4814814814815 191.74603174603175,122.11640211640213 191.32275132275134,122.53968253968254 190.8994708994709,122.96296296296298 190.47619047619048,123.59788359788361 190.05291005291008,124.02116402116403 189.62962962962965,124.44444444444446 189.20634920634922,124.86772486772487 188.78306878306879,125.5026455026455 188.35978835978838,125.92592592592594 187.93650793650795,126.34920634920636 187.51322751322752,126.77248677248679 187.08994708994712,127.1957671957672 186.8783068783069,127.83068783068784 186.45502645502646,128.25396825396825 186.03174603174605,128.67724867724868 185.60846560846562,129.10052910052912 185.1851851851852,129.52380952380955 184.7619047619048,129.94708994708995 184.33862433862436,130.37037037037038 183.91534391534393,130.7936507936508 183.4920634920635,131.21693121693121 183.0687830687831,131.64021164021165 182.64550264550266,132.06349206349208 182.22222222222223,132.4867724867725 181.79894179894183,132.9100529100529 181.3756613756614,133.33333333333334 180.95238095238096,133.75661375661377 180.52910052910053,134.17989417989418 180.10582010582013,134.81481481481484 179.6825396825397,135.23809523809524 179.25925925925927,135.87301587301587 178.83597883597884,136.5079365079365 178.41269841269843,137.14285714285717 177.989417989418,137.7777777777778 177.7777777777778,138.41269841269843 177.35449735449737,138.83597883597884 177.14285714285717,139.47089947089947 176.71957671957674,139.8941798941799 176.50793650793653,140.52910052910053 176.0846560846561,141.16402116402116 175.87301587301587,141.7989417989418 175.44973544973547,142.43386243386246 175.23809523809524,143.0687830687831 174.81481481481484,143.70370370370372 174.6031746031746,144.33862433862436 174.3915343915344,144.973544973545 174.1798941798942,145.60846560846562 173.75661375661377,146.24338624338625 173.54497354497354,146.8783068783069 173.33333333333334,147.51322751322752 173.33333333333334,148.14814814814815 173.33333333333334,148.78306878306879 173.33333333333334,149.41798941798942 173.54497354497354,150.05291005291005 173.75661375661377,150.6878306878307 173.96825396825398,151.32275132275134 174.1798941798942,151.95767195767198 174.6031746031746,152.38095238095238 175.02645502645504,152.8042328042328 175.44973544973547,153.22751322751324 176.0846560846561,153.65079365079367 176.71957671957674,153.86243386243387 177.35449735449737,154.2857142857143 177.989417989418,154.7089947089947 178.62433862433863,154.7089947089947 179.25925925925927,155.13227513227514 179.8941798941799,155.34391534391534 180.52910052910053,155.34391534391534 181.16402116402116,155.34391534391534 181.79894179894183,155.55555555555557 182.43386243386246,155.55555555555557 183.0687830687831,155.34391534391534 183.70370370370372,155.34391534391534 184.33862433862436,155.34391534391534 184.973544973545,155.34391534391534 185.60846560846562,155.34391534391534 186.24338624338625,155.34391534391534 186.8783068783069,155.34391534391534 187.51322751322752,155.34391534391534 188.14814814814815,155.13227513227514 188.78306878306879,155.13227513227514 189.41798941798945,155.13227513227514 190.05291005291008,155.34391534391534 190.6878306878307,155.34391534391534 191.32275132275134,155.13227513227514 191.95767195767198,155.13227513227514 192.5925925925926,155.13227513227514 193.22751322751324,155.13227513227514 193.86243386243387,155.13227513227514 194.4973544973545,155.13227513227514 195.13227513227514,155.13227513227514 195.76719576719577,155.13227513227514 196.4021164021164,155.13227513227514 197.03703703703704,155.34391534391534 197.6719576719577,155.34391534391534 198.30687830687833,155.13227513227514 198.94179894179896,155.34391534391534 199.5767195767196,155.55555555555557 200.21164021164023,155.76719576719577 200.84656084656086,156.1904761904762 201.4814814814815,156.4021164021164 202.11640211640213,156.82539682539684 202.53968253968256,157.24867724867727 202.962962962963,157.67195767195767 203.59788359788362,158.0952380952381 204.02116402116403,158.73015873015873 204.44444444444446,159.15343915343917 204.8677248677249,159.7883597883598 205.29100529100532,160.42328042328043 205.50264550264552,161.05820105820106 205.71428571428572,161.6931216931217 205.92592592592595,162.32804232804233 206.13756613756615,162.96296296296296 206.13756613756615,163.59788359788362 205.92592592592595,164.23280423280426 205.92592592592595,164.8677248677249 205.71428571428572,165.50264550264552 205.50264550264552,166.13756613756615 205.50264550264552,166.7724867724868 205.29100529100532,167.40740740740742 205.0793650793651,168.04232804232805 204.8677248677249,168.67724867724868 204.65608465608466,169.31216931216932 204.44444444444446,169.94708994708995 204.23280423280426,170.58201058201058 204.02116402116403,171.21693121693124 203.80952380952382,171.85185185185188 203.59788359788362,172.4867724867725 203.1746031746032,173.12169312169314 202.962962962963,173.75661375661377 202.53968253968256,174.3915343915344 202.32804232804233,175.02645502645504 201.90476190476193,175.44973544973547 201.6931216931217,176.0846560846561 201.2698412698413,176.50793650793653 200.84656084656086,177.14285714285717 200.42328042328043,177.7777777777778 200.00000000000003,178.41269841269843 199.5767195767196,179.04761904761907 199.15343915343917,179.6825396825397 198.94179894179896,180.31746031746033 198.51851851851853,180.74074074074076 198.30687830687833,181.3756613756614 197.8835978835979,181.79894179894183 197.6719576719577,182.43386243386246 197.24867724867727,182.85714285714286 196.82539682539684,183.4920634920635 196.4021164021164,184.12698412698415 195.978835978836,184.7619047619048 195.55555555555557,185.39682539682542 195.13227513227514,186.03174603174605 194.70899470899474,186.45502645502646 194.4973544973545,187.08994708994712 194.07407407407408,187.51322751322752 193.65079365079367,188.14814814814815 193.22751322751324,188.57142857142858 192.8042328042328,189.20634920634922 192.3809523809524,189.62962962962965 191.95767195767198,190.26455026455028 191.53439153439155,190.6878306878307 191.11111111111111,191.32275132275134 190.6878306878307,191.74603174603175 190.26455026455028,192.16931216931218 189.84126984126985,192.8042328042328 189.41798941798945,193.22751322751324 188.99470899470901,193.65079365079367 188.57142857142858,194.07407407407408 188.14814814814815,194.4973544973545 187.72486772486775,194.92063492063494 187.30158730158732,195.34391534391537 186.8783068783069,195.76719576719577 186.45502645502646,196.1904761904762 186.03174603174605,196.61375661375664 185.60846560846562,197.03703703703704 185.1851851851852,197.46031746031747 184.7619047619048,197.8835978835979 184.33862433862436,198.30687830687833 183.91534391534393,198.73015873015873 183.4920634920635,199.15343915343917 182.85714285714286,199.5767195767196 182.43386243386246,200.00000000000003 181.79894179894183,200.42328042328043 181.3756613756614,200.84656084656086 180.74074074074076,201.2698412698413 180.31746031746033,201.6931216931217 179.6825396825397,202.11640211640213 179.04761904761907,202.53968253968256 178.62433862433863,202.962962962963 177.989417989418,203.3862433862434 177.35449735449737,203.80952380952382 176.71957671957674,204.23280423280426 176.0846560846561,204.44444444444446 175.66137566137567,204.8677248677249 175.02645502645504,205.0793650793651 174.3915343915344,205.29100529100532 173.75661375661377,205.50264550264552 173.12169312169314,205.50264550264552 172.4867724867725,205.50264550264552 171.85185185185188,205.71428571428572 171.21693121693124,205.71428571428572 170.58201058201058,205.71428571428572 169.94708994708995,205.71428571428572 169.31216931216932,205.50264550264552 168.67724867724868,205.50264550264552 168.04232804232805,205.29100529100532 167.40740740740742,205.0793650793651 166.7724867724868,204.8677248677249 166.13756613756615,204.65608465608466 165.50264550264552,204.44444444444446 164.8677248677249,204.02116402116403 164.23280423280426,203.80952380952382 163.59788359788362,203.59788359788362 162.96296296296296,203.3862433862434 162.32804232804233,203.1746031746032 161.90476190476193,202.75132275132276 161.2698412698413,202.53968253968256 160.84656084656086,202.11640211640213 160.21164021164023,201.6931216931217 159.5767195767196,201.4814814814815 159.15343915343917,201.05820105820106 158.51851851851853,200.63492063492066 158.0952380952381,200.21164021164023 157.67195767195767,199.7883597883598 157.24867724867727,199.36507936507937 156.82539682539684,198.94179894179896 156.4021164021164,198.30687830687833 156.1904761904762,197.6719576719577 155.76719576719577,197.24867724867727 155.55555555555557,196.61375661375664 155.34391534391534,195.978835978836 155.13227513227514,195.34391534391537 154.92063492063494,194.70899470899474 154.92063492063494,194.07407407407408 154.7089947089947,193.43915343915344 154.7089947089947,192.8042328042328 154.4973544973545,192.16931216931218 154.4973544973545,191.53439153439155 154.4973544973545,190.8994708994709 154.2857142857143,190.26455026455028 154.2857142857143,189.62962962962965 154.2857142857143,188.99470899470901 154.4973544973545,188.35978835978838 154.4973544973545,187.72486772486775 154.4973544973545,187.08994708994712 154.4973544973545,186.45502645502646 154.7089947089947,185.82010582010582 154.92063492063494,185.1851851851852 154.92063492063494,184.55026455026456 155.13227513227514,183.91534391534393 155.13227513227514,183.2804232804233 155.34391534391534,182.64550264550266 155.34391534391534,182.01058201058203 155.55555555555557,181.3756613756614 155.55555555555557,180.74074074074076 155.55555555555557,180.10582010582013 155.55555555555557,179.4708994708995 155.34391534391534,178.83597883597884 155.34391534391534,178.2010582010582 155.34391534391534,177.56613756613757 155.13227513227514,176.93121693121694 154.92063492063494,176.2962962962963 154.7089947089947,175.66137566137567 154.4973544973545,175.02645502645504 154.2857142857143,174.3915343915344 153.86243386243387,173.75661375661377 153.65079365079367,173.12169312169314 153.22751322751324,172.6984126984127 152.8042328042328,172.27513227513228 152.38095238095238,171.85185185185188 151.95767195767198,171.42857142857144 151.53439153439155,171.005291005291 150.8994708994709,170.58201058201058 150.26455026455028,170.37037037037038 149.62962962962965,170.15873015873018 148.99470899470901,169.94708994708995 148.35978835978838,169.94708994708995 147.72486772486775,169.94708994708995 147.0899470899471,169.94708994708995 146.45502645502646,169.94708994708995 145.82010582010582,170.15873015873018 145.1851851851852,170.58201058201058 144.55026455026456,170.7936507936508 144.12698412698413,171.21693121693124 143.4920634920635,171.64021164021165 142.85714285714286,172.06349206349208 142.22222222222223,172.4867724867725 141.5873015873016,172.9100529100529 140.95238095238096,173.33333333333334 140.52910052910053,173.75661375661377 139.8941798941799,174.1798941798942 139.47089947089947,174.6031746031746 139.04761904761907,175.02645502645504 138.62433862433863,175.44973544973547 138.2010582010582,175.87301587301587 137.7777777777778,176.2962962962963 137.35449735449737,176.71957671957674 136.93121693121694,177.14285714285717 136.5079365079365,177.56613756613757 136.0846560846561,177.989417989418 135.66137566137567,178.41269841269843 135.23809523809524,179.04761904761907 134.81481481481484,179.6825396825397 134.3915343915344,180.10582010582013 133.96825396825398,180.74074074074076 133.54497354497354,181.16402116402116 133.12169312169314,181.79894179894183 132.9100529100529,182.43386243386246 132.4867724867725,182.85714285714286 132.06349206349208,183.4920634920635 131.64021164021165,184.12698412698415 131.21693121693121,184.7619047619048 130.7936507936508,185.39682539682542 130.37037037037038,186.03174603174605 129.94708994708995,186.66666666666669 129.52380952380955,187.30158730158732 129.10052910052912,187.93650793650795 128.67724867724868,188.35978835978838 128.25396825396825,188.99470899470901 127.83068783068784,189.62962962962965 127.61904761904763,190.26455026455028 127.1957671957672,190.6878306878307 126.77248677248679,191.32275132275134 126.34920634920636,191.95767195767198 126.13756613756615,192.5925925925926 125.71428571428572,193.01587301587304 125.2910052910053,193.65079365079367 124.86772486772487,194.2857142857143 124.44444444444446,194.92063492063494 124.02116402116403,195.55555555555557 123.59788359788361,196.1904761904762 123.17460317460318,196.82539682539684 122.96296296296298,197.46031746031747 122.75132275132276,198.0952380952381 122.32804232804234,198.51851851851853 122.11640211640213,199.15343915343917 121.6931216931217,199.5767195767196 121.26984126984128,200.21164021164023 120.84656084656086,200.84656084656086 120.63492063492065,201.4814814814815 120.21164021164022,201.90476190476193 119.7883597883598,202.53968253968256 119.57671957671958,203.1746031746032 119.15343915343917,203.59788359788362 118.73015873015873,204.23280423280426 118.30687830687832,204.8677248677249 116.1904761904762,208.25396825396828" style="fill:none; stroke:#00aa99; stroke-width:1.0"  /><polyline points="116.1904761904762,208.25396825396828 113.43915343915344,205.71428571428572 113.01587301587303,205.0793650793651 112.3809523809524,204.65608465608466 111.95767195767196,204.23280423280426 111.32275132275133,203.80952380952382 110.89947089947091,203.3862433862434 110.47619047619048,202.962962962963 110.05291005291006,202.53968253968256 109.41798941798943,202.11640211640213 108.994708994709,201.6931216931217 108.57142857142858,201.2698412698413 107.93650793650795,200.84656084656086 107.51322751322752,200.42328042328043 107.0899470899471,200.00000000000003 106.66666666666667,199.5767195767196 106.03174603174604,199.15343915343917 105.60846560846562,198.73015873015873 105.18518518518519,198.30687830687833 104.55026455026456,197.8835978835979 104.12698412698414,197.46031746031747 103.4920634920635,197.03703703703704 102.85714285714286,196.61375661375664 102.43386243386244,196.1904761904762 102.01058201058201,195.76719576719577 101.37566137566138,195.34391534391537 100.95238095238096,194.92063492063494 100.52910052910053,194.4973544973545 100.10582010582011,194.07407407407408 99.47089947089948,193.65079365079367 99.04761904761905,193.22751322751324 98.62433862433863,192.8042328042328 98.2010582010582,192.3809523809524 97.56613756613757,191.95767195767198 97.14285714285715,191.53439153439155 96.71957671957672,191.11111111111111 96.2962962962963,190.6878306878307 95.87301587301587,190.26455026455028 95.23809523809524,189.84126984126985 94.81481481481482,189.41798941798945 94.39153439153439,188.99470899470901 93.75661375661376,188.57142857142858 93.12169312169313,188.14814814814815 92.69841269841271,187.72486772486775 92.27513227513228,187.30158730158732 91.85185185185186,186.8783068783069 91.21693121693123,186.45502645502646 90.7936507936508,186.03174603174605 90.37037037037038,185.60846560846562 89.94708994708995,185.1851851851852 89.52380952380953,184.7619047619048 88.8888888888889,184.33862433862436 88.46560846560847,183.91534391534393 88.04232804232805,183.4920634920635 87.61904761904762,183.0687830687831 86.98412698412699,182.64550264550266 86.56084656084657,182.22222222222223 86.13756613756614,181.79894179894183 85.71428571428572,181.3756613756614 85.29100529100529,180.95238095238096 84.86772486772487,180.52910052910053 84.23280423280424,180.10582010582013 83.80952380952381,179.6825396825397 83.3862433862434,179.25925925925927 82.96296296296298,178.83597883597884 82.53968253968254,178.41269841269843 82.11640211640213,177.989417989418 81.6931216931217,177.56613756613757 81.05820105820106,177.14285714285717 80.63492063492065,176.71957671957674 80.21164021164022,176.2962962962963 79.7883597883598,175.87301587301587 79.36507936507937,175.23809523809524 78.94179894179895,174.81481481481484 78.51851851851852,174.3915343915344 78.0952380952381,173.96825396825398 77.67195767195767,173.54497354497354 77.03703703703704,173.12169312169314 76.61375661375662,172.6984126984127 76.19047619047619,172.27513227513228 75.76719576719577,171.85185185185188 75.34391534391536,171.42857142857144 74.92063492063492,171.005291005291 74.49735449735451,170.58201058201058 74.07407407407408,170.15873015873018 73.43915343915344,169.73544973544975 73.01587301587303,169.31216931216932 72.5925925925926,168.8888888888889 72.16931216931218,168.46560846560848 71.74603174603175,168.04232804232805 71.32275132275133,167.61904761904762 70.8994708994709,167.19576719576722 70.26455026455027,166.7724867724868 69.62962962962963,166.34920634920636 69.20634920634922,165.92592592592595 68.78306878306879,165.50264550264552 68.35978835978837,165.0793650793651 67.93650793650794,164.65608465608466 67.51322751322752,164.23280423280426 67.08994708994709,163.80952380952382 66.66666666666667,163.3862433862434 66.24338624338625,162.96296296296296 65.82010582010582,162.53968253968256 65.18518518518519,162.11640211640213 64.76190476190477,161.6931216931217 64.33862433862434,161.2698412698413 63.91534391534392,160.84656084656086 63.492063492063494,160.42328042328043 63.06878306878308,160.0 62.64550264550265,159.5767195767196 62.22222222222223,159.15343915343917 61.798941798941804,158.73015873015873 61.37566137566138,158.30687830687833 60.952380952380956,157.8835978835979 60.52910052910053,157.46031746031747 60.10582010582011,157.03703703703704 59.682539682539684,156.61375661375664 59.25925925925927,155.978835978836 58.83597883597884,155.55555555555557 58.41269841269842,155.13227513227514 57.777777777777786,154.7089947089947 57.35449735449736,154.2857142857143 56.71957671957672,153.86243386243387 56.2962962962963,153.22751322751324 55.661375661375665,152.8042328042328 55.23809523809524,152.38095238095238 54.60317460317461,151.95767195767198 53.968253968253975,151.53439153439155 53.333333333333336,151.11111111111111 52.6984126984127,150.8994708994709 52.06349206349207,150.8994708994709 51.42857142857143,150.6878306878307 50.7936507936508,150.6878306878307 50.158730158730165,150.6878306878307 49.523809523809526,150.6878306878307 48.88888888888889,150.8994708994709 48.25396825396826,151.11111111111111 47.61904761904762,151.32275132275134 46.98412698412699,151.74603174603175 46.349206349206355,152.16931216931218 45.92592592592593,152.5925925925926 45.29100529100529,153.01587301587304 44.867724867724874,153.43915343915344 44.44444444444445,154.07407407407408 44.021164021164026,154.4973544973545 43.5978835978836,155.13227513227514 43.17460317460318,155.76719576719577 42.75132275132275,156.4021164021164 42.32804232804233,157.03703703703704 41.904761904761905,157.46031746031747 41.48148148148149,158.0952380952381 41.058201058201064,158.73015873015873 40.63492063492064,159.36507936507937 40.211640211640216,160.0 39.78835978835979,160.42328042328043 39.36507936507937,161.05820105820106 38.94179894179894,161.4814814814815 38.51851851851852,161.90476190476193 37.883597883597886,162.32804232804233 37.248677248677254,162.53968253968256 36.613756613756614,162.75132275132276 35.97883597883598,162.96296296296296 35.34391534391535,163.1746031746032 34.70899470899471,163.3862433862434 34.074074074074076,163.3862433862434 33.43915343915344,163.1746031746032 32.804232804232804,163.1746031746032 32.16931216931217,162.96296296296296 31.53439153439154,162.75132275132276 30.899470899470902,162.53968253968256 30.264550264550266,162.11640211640213 29.629629629629633,161.90476190476193 28.994708994708997,161.4814814814815 28.35978835978836,161.05820105820106 27.93650793650794,160.63492063492066 27.301587301587304,160.21164021164023 26.666666666666668,159.7883597883598 26.243386243386244,159.36507936507937 25.820105820105823,158.94179894179896 25.185185185185187,158.51851851851853 24.761904761904763,158.0952380952381 24.338624338624342,157.46031746031747 23.915343915343918,157.03703703703704 23.492063492063494,156.61375661375664 23.06878306878307,156.1904761904762 22.645502645502646,155.76719576719577 22.222222222222225,155.13227513227514 22.010582010582013,154.4973544973545 21.58730158730159,154.07407407407408 21.375661375661377,153.43915343915344 20.952380952380953,152.8042328042328 20.740740740740744,152.16931216931218 20.31746031746032,151.53439153439155 20.105820105820108,150.8994708994709 19.682539682539684,150.26455026455028 19.47089947089947,149.62962962962965 19.25925925925926,148.99470899470901 19.047619047619047,148.35978835978838 18.83597883597884,147.72486772486775 18.83597883597884,147.0899470899471 18.624338624338627,146.45502645502646 18.412698412698415,145.82010582010582 18.412698412698415,145.1851851851852 18.412698412698415,144.55026455026456 18.412698412698415,143.91534391534393 18.412698412698415,143.2804232804233 18.624338624338627,142.64550264550266 18.83597883597884,142.01058201058203 19.25925925925926,141.3756613756614 19.682539682539684,140.74074074074076 20.105820105820108,140.31746031746033 20.529100529100532,139.8941798941799 21.164021164021165,139.47089947089947 21.7989417989418,139.25925925925927 22.433862433862437,138.83597883597884 23.06878306878307,138.62433862433863 23.703703703703706,138.2010582010582 24.338624338624342,137.989417989418 24.973544973544975,137.7777777777778 25.60846560846561,137.7777777777778 26.243386243386244,137.56613756613757 26.87830687830688,137.56613756613757 27.513227513227516,137.35449735449737 28.14814814814815,137.35449735449737 28.783068783068785,137.35449735449737 29.41798941798942,137.14285714285717 30.052910052910054,137.14285714285717 30.68783068783069,136.93121693121694 31.322751322751326,136.71957671957674 31.95767195767196,136.71957671957674 32.592592592592595,136.71957671957674 33.22751322751323,136.5079365079365 33.86243386243387,136.2962962962963 34.4973544973545,136.0846560846561 35.13227513227513,135.87301587301587 35.55555555555556,135.44973544973547 36.19047619047619,135.02645502645504 36.613756613756614,134.6031746031746 37.03703703703704,134.17989417989418 37.46031746031746,133.75661375661377 37.67195767195768,133.12169312169314 38.095238095238095,132.4867724867725 38.30687830687831,131.85185185185185 38.51851851851852,131.21693121693121 38.51851851851852,130.58201058201058 38.51851851851852,129.94708994708995 38.51851851851852,129.31216931216932 38.51851851851852,128.67724867724868 38.30687830687831,128.04232804232805 38.095238095238095,127.40740740740742 37.883597883597886,126.77248677248679 37.46031746031746,126.13756613756615 37.248677248677254,125.5026455026455 37.03703703703704,124.86772486772487 36.82539682539683,124.23280423280424 36.613756613756614,123.59788359788361 36.19047619047619,122.96296296296298 35.97883597883598,122.32804232804234 35.55555555555556,121.6931216931217 35.34391534391535,121.05820105820106 35.13227513227513,120.42328042328043 34.70899470899471,119.7883597883598 34.4973544973545,119.15343915343917 34.074074074074076,118.51851851851853 33.86243386243387,117.88359788359789 33.43915343915344,117.24867724867725 33.22751322751323,116.61375661375662 32.804232804232804,115.97883597883599 32.592592592592595,115.34391534391536 32.38095238095239,114.70899470899472 31.95767195767196,114.07407407407408 31.746031746031747,113.43915343915344 31.322751322751326,112.80423280423281 31.111111111111114,112.16931216931218 30.68783068783069,111.53439153439155 30.476190476190478,110.89947089947091 30.264550264550266,110.26455026455027 30.052910052910054,109.62962962962963 29.629629629629633,108.994708994709 29.41798941798942,108.35978835978837 29.20634920634921,107.72486772486774 28.783068783068785,107.3015873015873 28.571428571428573,106.66666666666667 28.14814814814815,106.03174603174604 27.93650793650794,105.3968253968254 27.513227513227516,104.76190476190477 27.301587301587304,104.12698412698414 26.87830687830688,103.70370370370371 26.666666666666668,103.06878306878308 26.243386243386244,102.43386243386244 26.031746031746035,101.79894179894181 25.60846560846561,101.37566137566138 25.3968253968254,100.74074074074075 24.973544973544975,100.10582010582011 24.55026455026455,99.47089947089948 24.12698412698413,98.83597883597885 23.915343915343918,98.2010582010582 23.492063492063494,97.77777777777779 23.06878306878307,97.14285714285715 22.857142857142858,96.50793650793652 22.433862433862437,96.08465608465609 22.010582010582013,95.44973544973546 21.58730158730159,94.81481481481482 21.164021164021165,94.17989417989419 20.952380952380953,93.54497354497356 20.529100529100532,92.91005291005291 20.105820105820108,92.4867724867725 19.682539682539684,91.85185185185186 19.25925925925926,91.21693121693123 18.83597883597884,90.58201058201058 18.412698412698415,89.94708994708995 17.98941798941799,89.31216931216932 17.566137566137566,88.67724867724868 17.354497354497354,88.04232804232805 16.931216931216934,87.61904761904762 16.50793650793651,86.98412698412699 16.084656084656086,86.34920634920636 15.661375661375663,85.71428571428572 15.238095238095239,85.07936507936509 14.814814814814817,84.65608465608466 14.391534391534393,84.02116402116403 13.96825396825397,83.3862433862434 13.544973544973546,82.75132275132276 13.121693121693122,82.32804232804233 12.6984126984127,81.6931216931217 12.275132275132275,81.05820105820106 11.851851851851853,80.42328042328043 11.428571428571429,80.0 11.005291005291006,79.36507936507937 10.582010582010582,78.73015873015873 10.15873015873016,78.30687830687832 9.735449735449736,77.67195767195767 9.312169312169313,77.03703703703704 8.88888888888889,76.61375661375662 8.465608465608467,75.97883597883599 8.042328042328043,75.55555555555556 7.6190476190476195,74.92063492063492 7.195767195767196,74.49735449735451 6.772486772486773,74.07407407407408 6.34920634920635,73.43915343915344 5.9259259259259265,73.01587301587303 5.502645502645503,72.5925925925926 5.07936507936508,71.95767195767196 4.656084656084657,71.53439153439155 4.2328042328042335,71.11111111111111 3.8095238095238098,70.6878306878307 3.3862433862433865,70.26455026455027 2.9629629629629632,69.84126984126985 2.53968253968254,69.41798941798942 -0.21164021164021166,66.45502645502646" style="fill:none; stroke:#3300bb; stroke-width:1.0"  /><circle cx="-0.21164021164021166" cy="66.45502645502646" r="2.0" style="fill:none; stroke:#000000aa; stroke-width:0.25" /><circle cx="64.33862433862434" cy="-0.21164021164021166" r="2.0" style="fill:none; stroke:#000000aa; stroke-width:0.25" /><circle cx="195.34391534391537" cy="117.67195767195768" r="2.0" style="fill:none; stroke:#000000aa; stroke-width:0.25" /><circle cx="116.1904761904762" cy="208.25396825396828" r="2.0" style="fill:none; stroke:#000000aa; stroke-width:0.25" /><circle cx="0.21164021164021166" cy="66.87830687830689" r="2.0" style="fill:none; stroke:#ff3366aa; stroke-width:0.25" /><circle cx="63.91534391534392" cy="0.21164021164021166" r="2.0" style="fill:none; stroke:#ff3366aa; stroke-width:0.25" /><circle cx="195.13227513227514" cy="117.67195767195768" r="2.0" style="fill:none; stroke:#ff3366aa; stroke-width:0.25" /><circle cx="116.1904761904762" cy="207.40740740740742" r="2.0" style="fill:none; stroke:#ff3366aa; stroke-width:0.25" /><polyline points="5.9259259259259265,56.2962962962963 5.502645502645503,56.93121693121694 5.07936507936508,57.56613756613757 5.07936507936508,58.2010582010582 4.656084656084657,58.83597883597884 4.2328042328042335,59.25925925925927 4.021164021164021,59.8941798941799 3.597883597883598,60.52910052910053 3.174603174603175,61.16402116402117 2.7513227513227516,61.798941798941804 2.3280423280423284,62.43386243386244 1.9047619047619049,63.06878306878308 1.4814814814814816,63.70370370370371" style="fill:none; stroke:#001100; stroke-width:1.0" /><polyline points="8.042328042328043,75.55555555555556 7.6190476190476195,74.92063492063492 7.195767195767196,74.49735449735451 6.772486772486773,74.07407407407408 6.34920634920635,73.43915343915344 5.9259259259259265,73.01587301587303 5.502645502645503,72.5925925925926 5.07936507936508,71.95767195767196 4.656084656084657,71.53439153439155 4.2328042328042335,71.11111111111111 3.8095238095238098,70.6878306878307 3.3862433862433865,70.26455026455027 2.9629629629629632,69.84126984126985 2.53968253968254,69.41798941798942" style="fill:none; stroke:#000011; stroke-width:1.0" /><polyline points="71.32275132275133,9.312169312169313 70.8994708994709,8.88888888888889 70.47619047619048,8.253968253968255 70.05291005291006,7.6190476190476195 69.62962962962963,6.984126984126985 69.20634920634922,6.34920634920635 68.78306878306879,5.714285714285714 68.35978835978837,5.291005291005291 67.93650793650794,4.867724867724868 67.72486772486774,4.2328042328042335 67.3015873015873,3.8095238095238098 66.87830687830689,3.3862433862433865 66.45502645502646,2.7513227513227516" style="fill:none; stroke:#001100; stroke-width:1.0" /><polyline points="55.23809523809524,8.253968253968255 55.87301587301588,7.830687830687832 56.2962962962963,7.407407407407408 56.71957671957672,6.984126984126985 57.35449735449736,6.560846560846561 57.777777777777786,6.137566137566138 58.2010582010582,5.502645502645503 58.62433862433863,5.07936507936508 59.04761904761905,4.656084656084657 59.682539682539684,4.2328042328042335 60.10582010582011,3.8095238095238098 60.52910052910053,3.3862433862433865 60.952380952380956,2.9629629629629632 61.37566137566138,2.53968253968254" style="fill:none; stroke:#000011; stroke-width:1.0" /><polyline points="187.51322751322752,126.77248677248679 187.93650793650795,126.34920634920636 188.35978835978838,125.92592592592594 188.78306878306879,125.5026455026455 189.20634920634922,124.86772486772487 189.62962962962965,124.44444444444446 190.05291005291008,124.02116402116403 190.47619047619048,123.59788359788361 190.8994708994709,122.96296296296298 191.32275132275134,122.53968253968254 191.74603174603175,122.11640211640213 192.16931216931218,121.4814814814815 192.5925925925926,121.05820105820106 193.01587301587304,120.42328042328043" style="fill:none; stroke:#001100; stroke-width:1.0" /><polyline points="185.60846560846562,110.47619047619048 186.24338624338625,110.89947089947091 186.8783068783069,111.11111111111111 187.30158730158732,111.53439153439155 187.72486772486775,111.95767195767196 188.14814814814815,112.3809523809524 188.78306878306879,112.80423280423281 189.41798941798945,113.22751322751324 190.05291005291008,113.43915343915344 190.47619047619048,113.86243386243387 190.8994708994709,114.28571428571429 191.53439153439155,114.49735449735451 191.95767195767198,114.92063492063492 192.3809523809524,115.34391534391536 192.8042328042328,115.76719576719577" style="fill:none; stroke:#000011; stroke-width:1.0" /><polyline points="107.0899470899471,200.00000000000003 107.51322751322752,200.42328042328043 107.93650793650795,200.84656084656086 108.57142857142858,201.2698412698413 108.994708994709,201.6931216931217 109.41798941798943,202.11640211640213 110.05291005291006,202.53968253968256 110.47619047619048,202.962962962963 110.89947089947091,203.3862433862434 111.32275132275133,203.80952380952382 111.95767195767196,204.23280423280426 112.3809523809524,204.65608465608466 113.01587301587303,205.0793650793651 113.43915343915344,205.71428571428572" style="fill:none; stroke:#001100; stroke-width:1.0" /><polyline points="122.96296296296298,197.46031746031747 122.75132275132276,198.0952380952381 122.32804232804234,198.51851851851853 122.11640211640213,199.15343915343917 121.6931216931217,199.5767195767196 121.26984126984128,200.21164021164023 120.84656084656086,200.84656084656086 120.63492063492065,201.4814814814815 120.21164021164022,201.90476190476193 119.7883597883598,202.53968253968256 119.57671957671958,203.1746031746032 119.15343915343917,203.59788359788362 118.73015873015873,204.23280423280426 118.30687830687832,204.8677248677249" style="fill:none; stroke:#000011; stroke-width:1.0" /><polyline points="1.4814814814814816,63.70370370370371 -9.312169312169313,81.90476190476191" style="fill:none; stroke:#ffaa00; stroke-width:0.4" /><polyline points="2.53968253968254,69.41798941798942 -11.640211640211641,53.75661375661376" style="fill:none; stroke:#aaff00; stroke-width:0.4" /><polyline points="66.45502645502646,2.7513227513227516 53.75661375661376,-14.17989417989418" style="fill:none; stroke:#ffaa00; stroke-width:0.4" /><polyline points="61.37566137566138,2.53968253968254 76.82539682539684,-11.851851851851853" style="fill:none; stroke:#aaff00; stroke-width:0.4" /><polyline points="193.01587301587304,120.42328042328043 206.7724867724868,104.33862433862434" style="fill:none; stroke:#ffaa00; stroke-width:0.4" /><polyline points="192.8042328042328,115.76719576719577 209.94708994708995,128.25396825396825" style="fill:none; stroke:#aaff00; stroke-width:0.4" /><polyline points="113.43915343915344,205.71428571428572 129.10052910052912,219.8941798941799" style="fill:none; stroke:#ffaa00; stroke-width:0.4" /><polyline points="118.30687830687832,204.8677248677249 107.0899470899471,222.85714285714286" style="fill:none; stroke:#aaff00; stroke-width:0.4" /><circle cx="101.79894179894181" cy="113.01587301587303" r="1.0" style="fill:#444444; stroke-width:0" /><circle cx="102.64550264550266" cy="118.94179894179895" r="10.582010582010582" style="fill:#ff770022; stroke-width:0" /><circle cx="102.64550264550266" cy="118.94179894179895" r="1.0" style="fill:#ff7700; stroke-width:0" /></svg>