<?xml version="1.0" encoding="UTF-8" standalone="no"?><svg width="589.8412698412699" height="587.3015873015873" viewBox="-10 -10 216.61375661375664 215.76719576719577" xmlns="http://www.w3.org/2000/svg" xmlns:xlink="http://www.w3.org/1999/xlink"><polyline points="-0.21164021164021166,91.85185185185186 2.7513227513227516,89.52380952380953 3.174603174603175,89.1005291005291 3.597883597883598,88.67724867724868 4.2328042328042335,88.25396825396827 4.656084656084657,87.83068783068784 5.07936507936508,87.40740740740742 5.714285714285714,87.1957671957672 6.137566137566138,86.77248677248677 6.772486772486773,86.34920634920636 7.407407407407408,85.92592592592594 7.830687830687832,85.5026455026455 8.465608465608467,85.07936507936509 9.100529100529101,84.65608465608466 9.523809523809524,84.23280423280424 10.15873015873016,83.80952380952381 10.582010582010582,83.3862433862434 11.216931216931219,82.96296296296298 11.640211640211641,82.53968253968254 12.275132275132275,82.11640211640213 12.910052910052912,81.6931216931217 13.333333333333334,81.26984126984128 13.756613756613758,80.84656084656085 14.391534391534393,80.42328042328043 15.026455026455027,80.0 15.661375661375663,79.57671957671958 16.296296296296298,79.15343915343917 16.931216931216934,78.73015873015873 17.354497354497354,78.30687830687832 17.98941798941799,78.0952380952381 18.412698412698415,77.67195767195767 19.047619047619047,77.46031746031747 19.47089947089947,77.03703703703704 19.894179894179896,76.61375661375662 20.529100529100532,76.4021164021164 21.164021164021165,75.97883597883599 21.7989417989418,75.55555555555556 22.433862433862437,75.34391534391536 22.857142857142858,74.92063492063492 23.492063492063494,74.70899470899471 24.12698412698413,74.28571428571429 24.761904761904763,74.07407407407408 25.3968253968254,73.65079365079366 26.031746031746035,73.43915343915344 26.666666666666668,73.22751322751323 27.301587301587304,73.01587301587303 27.93650793650794,72.5925925925926 28.571428571428573,72.38095238095238 29.20634920634921,72.16931216931218 29.841269841269842,71.95767195767196 30.476190476190478,71.74603174603175 31.111111111111114,71.53439153439155 31.746031746031747,71.32275132275133 32.38095238095239,71.32275132275133 33.01587301587302,71.11111111111111 33.65079365079365,71.11111111111111 34.28571428571429,71.11111111111111 34.920634920634924,70.8994708994709 35.55555555555556,70.8994708994709 36.19047619047619,70.8994708994709 36.82539682539683,70.8994708994709 37.46031746031746,70.8994708994709 38.095238095238095,70.8994708994709 38.730158730158735,71.11111111111111 39.36507936507937,71.11111111111111 40.0,71.32275132275133 40.63492063492064,71.32275132275133 41.26984126984127,71.74603174603175 41.904761904761905,71.95767195767196 42.539682539682545,72.16931216931218 43.17460317460318,72.38095238095238 43.80952380952381,72.80423280423281 44.44444444444445,73.22751322751323 45.07936507936508,73.65079365079366 45.714285714285715,74.07407407407408 46.13756613756614,74.49735449735451 46.77248677248678,74.92063492063492 47.195767195767196,75.34391534391536 47.830687830687836,75.76719576719577 48.25396825396826,76.19047619047619 48.677248677248684,76.61375661375662 49.1005291005291,77.03703703703704 49.523809523809526,77.46031746031747 49.94708994708995,77.88359788359789 50.158730158730165,78.51851851851852 50.58201058201058,78.94179894179895 50.7936507936508,79.57671957671958 51.21693121693122,80.21164021164022 51.42857142857143,80.84656084656085 51.640211640211646,81.48148148148148 51.851851851851855,82.11640211640213 52.06349206349207,82.75132275132276 52.27513227513228,83.3862433862434 52.48677248677249,84.02116402116403 52.48677248677249,84.65608465608466 52.6984126984127,85.29100529100529 52.91005291005291,85.92592592592594 52.91005291005291,86.56084656084657 53.12169312169313,87.1957671957672 53.12169312169313,87.83068783068784 53.333333333333336,88.46560846560847 53.333333333333336,89.1005291005291 53.333333333333336,89.73544973544975 53.333333333333336,90.37037037037038 53.54497354497355,91.00529100529101 53.54497354497355,91.64021164021165 53.54497354497355,92.27513227513228 53.54497354497355,92.91005291005291 53.75661375661376,93.54497354497356 53.968253968253975,94.17989417989419 53.968253968253975,94.81481481481482 54.179894179894184,95.44973544973546 54.39153439153439,96.08465608465609 54.60317460317461,96.71957671957672 54.81481481481482,97.35449735449737 55.02645502645503,97.989417989418 55.449735449735456,98.62433862433863 55.87301587301588,99.25925925925927 56.2962962962963,99.8941798941799 56.71957671957672,100.52910052910053 57.142857142857146,100.95238095238096 57.56613756613757,101.37566137566138 57.989417989417994,101.79894179894181 58.62433862433863,102.01058201058201 59.04761904761905,102.43386243386244 59.682539682539684,102.64550264550266 60.31746031746032,103.06878306878308 60.952380952380956,103.28042328042329 61.58730158730159,103.4920634920635 62.22222222222223,103.70370370370371 62.85714285714286,103.91534391534393 63.492063492063494,104.12698412698414 64.12698412698413,104.12698412698414 64.76190476190477,104.12698412698414 65.3968253968254,104.33862433862434 66.03174603174604,104.33862433862434 66.66666666666667,104.33862433862434 67.3015873015873,104.33862433862434 67.93650793650794,104.33862433862434 68.57142857142858,104.12698412698414 69.20634920634922,104.12698412698414 69.84126984126985,103.91534391534393 70.47619047619048,103.70370370370371 71.11111111111111,103.4920634920635 71.74603174603175,103.28042328042329 72.38095238095238,103.06878306878308 73.01587301587303,102.85714285714286 73.65079365079366,102.64550264550266 74.28571428571429,102.22222222222223 74.92063492063492,102.01058201058201 75.55555555555556,101.79894179894181 76.19047619047619,101.37566137566138 76.82539682539684,100.95238095238096 77.46031746031747,100.74074074074075 78.0952380952381,100.31746031746033 78.73015873015873,99.8941798941799 79.36507936507937,99.68253968253968 79.7883597883598,99.25925925925927 80.42328042328043,99.04761904761905 80.84656084656085,98.62433862433863 81.48148148148148,98.2010582010582 82.11640211640213,97.77777777777779 82.75132275132276,97.35449735449737 83.3862433862434,96.93121693121694 83.80952380952381,96.50793650793652 84.23280423280424,96.08465608465609 84.65608465608466,95.66137566137567 85.29100529100529,95.23809523809524 85.71428571428572,94.81481481481482 86.13756613756614,94.39153439153439 86.56084656084657,93.96825396825398 86.98412698412699,93.54497354497356 87.40740740740742,93.12169312169313 87.83068783068784,92.69841269841271 88.25396825396827,92.27513227513228 88.67724867724868,91.64021164021165 89.1005291005291,91.21693121693123 89.52380952380953,90.7936507936508 89.94708994708995,90.37037037037038 90.37037037037038,89.73544973544975 90.7936507936508,89.31216931216932 91.21693121693123,88.8888888888889 91.64021164021165,88.25396825396827 91.85185185185186,87.61904761904762 92.27513227513228,86.98412698412699 92.4867724867725,86.34920634920636 92.69841269841271,85.71428571428572 92.91005291005291,85.07936507936509 93.12169312169313,84.44444444444446 92.91005291005291,83.80952380952381 92.91005291005291,83.17460317460318 92.91005291005291,82.53968253968254 92.69841269841271,81.90476190476191 92.4867724867725,81.26984126984128 92.27513227513228,80.63492063492065 92.06349206349208,80.0 91.64021164021165,79.36507936507937 91.21693121693123,78.73015873015873 91.00529100529101,78.0952380952381 90.58201058201058,77.46031746031747 90.15873015873017,76.82539682539684 89.73544973544975,76.4021164021164 89.31216931216932,75.97883597883599 88.8888888888889,75.34391534391536 88.46560846560847,74.70899470899471 88.04232804232805,74.28571428571429 87.61904761904762,73.65079365079366 87.1957671957672,73.22751322751323 86.77248677248677,72.80423280423281 86.34920634920636,72.38095238095238 85.92592592592594,71.95767195767196 85.29100529100529,71.53439153439155 84.65608465608466,71.11111111111111 84.23280423280424,70.6878306878307 83.59788359788361,70.26455026455027 82.96296296296298,69.84126984126985 82.32804232804233,69.62962962962963 81.6931216931217,69.41798941798942 81.26984126984128,68.994708994709 80.63492063492065,68.78306878306879 80.0,68.35978835978837 79.36507936507937,68.14814814814815 78.73015873015873,67.72486772486774 78.0952380952381,67.51322751322752 77.46031746031747,67.08994708994709 76.82539682539684,66.87830687830689 76.19047619047619,66.45502645502646 75.55555555555556,66.03174603174604 74.92063492063492,65.60846560846561 74.49735449735451,65.18518518518519 74.07407407407408,64.76190476190477 73.43915343915344,64.33862433862434 73.01587301587303,63.91534391534392 72.5925925925926,63.492063492063494 72.16931216931218,63.06878306878308 71.74603174603175,62.64550264550265 71.32275132275133,62.22222222222223 70.8994708994709,61.798941798941804 70.47619047619048,61.16402116402117 70.05291005291006,60.52910052910053 69.62962962962963,59.8941798941799 69.41798941798942,59.25925925925927 69.20634920634922,58.62433862433863 68.78306878306879,57.989417989417994 68.57142857142858,57.35449735449736 68.57142857142858,56.71957671957672 68.35978835978837,56.08465608465609 68.14814814814815,55.449735449735456 67.93650793650794,54.81481481481482 67.93650793650794,54.179894179894184 67.93650793650794,53.54497354497355 67.93650793650794,52.91005291005291 67.72486772486774,52.27513227513228 67.72486772486774,51.640211640211646 67.93650793650794,51.00529100529101 67.93650793650794,50.370370370370374 67.93650793650794,49.73544973544974 67.93650793650794,49.1005291005291 68.14814814814815,48.46560846560847 68.35978835978837,47.830687830687836 68.35978835978837,47.195767195767196 68.57142857142858,46.560846560846564 68.78306878306879,45.92592592592593 68.994708994709,45.29100529100529 69.20634920634922,44.65608465608466 69.62962962962963,44.021164021164026 69.84126984126985,43.386243386243386 70.26455026455027,42.75132275132275 70.47619047619048,42.11640211640212 70.6878306878307,41.48148148148149 71.11111111111111,40.84656084656085 71.53439153439155,40.423280423280424 71.95767195767196,39.78835978835979 72.38095238095238,39.15343915343916 72.80423280423281,38.730158730158735 73.22751322751323,38.095238095238095 73.65079365079366,37.67195767195768 74.07407407407408,37.248677248677254 74.49735449735451,36.82539682539683 74.92063492063492,36.402116402116405 75.34391534391536,35.97883597883598 75.76719576719577,35.55555555555556 76.19047619047619,35.13227513227513 76.61375661375662,34.70899470899471 77.03703703703704,34.28571428571429 77.46031746031747,33.86243386243387 78.0952380952381,33.43915343915344 78.51851851851852,33.01587301587302 78.94179894179895,32.592592592592595 79.57671957671958,32.38095238095239 80.0,31.95767195767196 80.63492063492065,31.53439153439154 81.26984126984128,31.111111111111114 81.6931216931217,30.68783068783069 82.32804232804233,30.264550264550266 82.96296296296298,29.841269841269842 83.3862433862434,29.41798941798942 84.02116402116403,28.994708994708997 84.65608465608466,28.571428571428573 85.29100529100529,28.14814814814815 85.92592592592594,27.93650793650794 86.34920634920636,27.513227513227516 86.98412698412699,27.301587301587304 87.40740740740742,26.87830687830688 88.04232804232805,26.666666666666668 88.67724867724868,26.243386243386244 89.31216931216932,26.031746031746035 89.73544973544975,25.60846560846561 90.37037037037038,25.3968253968254 91.00529100529101,24.973544973544975 91.64021164021165,24.761904761904763 92.27513227513228,24.338624338624342 92.91005291005291,24.12698412698413 93.54497354497356,23.703703703703706 94.17989417989419,23.280423280423282 94.81481481481482,23.06878306878307 95.44973544973546,22.857142857142858 96.08465608465609,22.433862433862437 96.71957671957672,22.222222222222225 97.35449735449737,22.010582010582013 97.77777777777779,21.58730158730159 98.41269841269842,21.58730158730159 98.83597883597885,21.164021164021165 99.47089947089948,20.952380952380953 100.10582010582011,20.740740740740744 100.74074074074075,20.529100529100532 101.37566137566138,20.105820105820108 102.01058201058201,19.894179894179896 102.64550264550266,19.682539682539684 103.28042328042329,19.47089947089947 103.91534391534393,19.25925925925926 104.55026455026456,19.047619047619047 105.18518518518519,18.624338624338627 105.82010582010582,18.412698412698415 106.45502645502647,18.201058201058203 107.0899470899471,17.98941798941799 107.72486772486774,17.77777777777778 108.35978835978837,17.354497354497354 108.994708994709,17.142857142857146 109.62962962962963,16.931216931216934 110.26455026455027,16.50793650793651 110.89947089947091,16.296296296296298 111.53439153439155,16.084656084656086 112.16931216931218,15.873015873015873 112.80423280423281,15.449735449735451 113.43915343915344,15.238095238095239 114.07407407407408,14.814814814814817 114.70899470899472,14.603174603174605 115.34391534391536,14.17989417989418 115.97883597883599,13.96825396825397 116.61375661375662,13.544973544973546 117.24867724867725,13.121693121693122 117.88359788359789,12.6984126984127 118.30687830687832,12.275132275132275 118.94179894179895,11.851851851851853 119.36507936507937,11.428571428571429 120.00000000000001,11.216931216931219 120.63492063492065,10.793650793650794 121.26984126984128,10.370370370370372 121.90476190476191,9.947089947089948 122.32804232804234,9.523809523809524 122.75132275132276,9.100529100529101 123.17460317460318,8.677248677248677 123.59788359788361,8.253968253968255 124.02116402116403,7.830687830687832 124.44444444444446,7.407407407407408 124.86772486772487,6.984126984126985 125.2910052910053,6.34920634920635 125.71428571428572,5.9259259259259265 126.13756613756615,5.502645502645503 126.56084656084657,5.07936507936508 126.98412698412699,4.656084656084657 127.40740740740742,4.2328042328042335 127.83068783068784,3.597883597883598 128.25396825396825,2.9629629629629632 128.67724867724868,2.53968253968254 131.005291005291,0.0" style="fill:none; stroke:#cc0000; stroke-width:1.0"  /><polyline points="131.005291005291,0.0 133.33333333333334,2.3280423280423284 133.75661375661377,2.7513227513227516 134.17989417989418,3.174603174603175 134.6031746031746,3.597883597883598 135.02645502645504,4.021164021164021 135.44973544973547,4.444444444444445 135.87301587301587,4.867724867724868 136.2962962962963,5.291005291005291 136.71957671957674,5.714285714285714 137.14285714285717,6.137566137566138 137.56613756613757,6.560846560846561 137.989417989418,6.984126984126985 138.41269841269843,7.407407407407408 138.83597883597884,7.830687830687832 139.25925925925927,8.253968253968255 139.6825396825397,8.88888888888889 140.10582010582013,9.312169312169313 140.52910052910053,9.947089947089948 140.95238095238096,10.370370370370372 141.3756613756614,11.005291005291006 141.7989417989418,11.428571428571429 142.22222222222223,12.063492063492065 142.64550264550266,12.6984126984127 143.0687830687831,13.333333333333334 143.4920634920635,13.756613756613758 143.91534391534393,14.391534391534393 144.33862433862436,15.026455026455027 144.76190476190476,15.449735449735451 144.973544973545,16.084656084656086 145.39682539682542,16.50793650793651 145.82010582010582,17.142857142857146 146.24338624338625,17.77777777777778 146.66666666666669,18.412698412698415 147.0899470899471,19.047619047619047 147.30158730158732,19.682539682539684 147.72486772486775,20.31746031746032 148.14814814814815,20.952380952380953 148.57142857142858,21.58730158730159 148.78306878306879,22.222222222222225 149.20634920634922,22.857142857142858 149.41798941798942,23.492063492063494 149.84126984126985,24.12698412698413 150.05291005291005,24.761904761904763 150.26455026455028,25.3968253968254 150.6878306878307,26.031746031746035 150.8994708994709,26.666666666666668 151.11111111111111,27.301587301587304 151.53439153439155,27.93650793650794 151.74603174603175,28.571428571428573 152.16931216931218,29.20634920634921 152.38095238095238,29.841269841269842 152.5925925925926,30.476190476190478 152.8042328042328,31.111111111111114 153.22751322751324,31.746031746031747 153.43915343915344,32.38095238095239 153.43915343915344,33.01587301587302 153.65079365079367,33.65079365079365 153.65079365079367,34.28571428571429 153.65079365079367,34.920634920634924 153.43915343915344,35.55555555555556 153.22751322751324,36.19047619047619 153.01587301587304,36.82539682539683 152.5925925925926,37.46031746031746 152.16931216931218,38.095238095238095 151.74603174603175,38.51851851851852 151.32275132275134,38.94179894179894 150.6878306878307,39.15343915343916 150.05291005291005,39.36507936507937 149.41798941798942,39.57671957671958 148.78306878306879,39.57671957671958 148.14814814814815,39.78835978835979 147.51322751322752,40.0 146.8783068783069,40.0 146.24338624338625,40.211640211640216 145.60846560846562,40.423280423280424 144.973544973545,40.63492063492064 144.33862433862436,40.84656084656085 143.70370370370372,41.058201058201064 143.0687830687831,41.26984126984127 142.43386243386246,41.48148148148149 142.01058201058203,41.904761904761905 141.3756613756614,42.11640211640212 140.74074074074076,42.539682539682545 140.10582010582013,42.96296296296297 139.47089947089947,43.386243386243386 138.83597883597884,43.80952380952381 138.2010582010582,44.232804232804234 137.7777777777778,44.867724867724874 137.35449735449737,45.29100529100529 136.93121693121694,45.714285714285715 136.5079365079365,46.13756613756614 136.0846560846561,46.77248677248678 135.87301587301587,47.40740740740741 135.44973544973547,48.042328042328045 135.23809523809524,48.677248677248684 135.02645502645504,49.31216931216932 134.81481481481484,49.94708994708995 134.81481481481484,50.58201058201058 134.6031746031746,51.21693121693122 134.6031746031746,51.851851851851855 134.3915343915344,52.48677248677249 134.3915343915344,53.12169312169313 134.3915343915344,53.75661375661376 134.6031746031746,54.39153439153439 134.6031746031746,55.02645502645503 134.81481481481484,55.661375661375665 134.81481481481484,56.2962962962963 135.02645502645504,56.93121693121694 135.23809523809524,57.56613756613757 135.44973544973547,58.2010582010582 135.66137566137567,58.83597883597884 135.87301587301587,59.470899470899475 136.0846560846561,60.10582010582011 136.5079365079365,60.74074074074075 136.93121693121694,61.37566137566138 137.14285714285717,62.01058201058201 137.56613756613757,62.64550264550265 137.7777777777778,63.280423280423285 138.2010582010582,63.91534391534392 138.62433862433863,64.55026455026456 139.04761904761907,65.18518518518519 139.25925925925927,65.82010582010582 139.6825396825397,66.24338624338625 140.10582010582013,66.87830687830689 140.52910052910053,67.3015873015873 140.95238095238096,67.72486772486774 141.3756613756614,68.14814814814815 141.7989417989418,68.78306878306879 142.22222222222223,69.20634920634922 142.64550264550266,69.62962962962963 143.0687830687831,70.05291005291006 143.4920634920635,70.47619047619048 143.91534391534393,70.8994708994709 144.55026455026456,71.32275132275133 144.973544973545,71.74603174603175 145.60846560846562,72.16931216931218 146.24338624338625,72.38095238095238 146.66666666666669,72.80423280423281 147.30158730158732,73.01587301587303 147.93650793650795,73.22751322751323 148.57142857142858,73.43915343915344 149.20634920634922,73.65079365079366 149.84126984126985,73.65079365079366 150.47619047619048,73.86243386243387 151.11111111111111,73.86243386243387 151.74603174603175,73.86243386243387 152.38095238095238,73.65079365079366 153.01587301587304,73.65079365079366 153.43915343915344,73.22751322751323 154.07407407407408,73.22751322751323 154.7089947089947,73.01587301587303 155.34391534391534,72.5925925925926 155.978835978836,72.38095238095238 156.61375661375664,72.16931216931218 157.24867724867727,72.16931216931218 157.8835978835979,71.74603174603175 158.51851851851853,71.53439153439155 159.15343915343917,71.11111111111111 159.7883597883598,70.6878306878307 160.42328042328043,70.47619047619048 160.84656084656086,70.05291005291006 161.4814814814815,69.84126984126985 161.90476190476193,69.41798941798942 162.53968253968256,68.994708994709 163.1746031746032,68.57142857142858 163.80952380952382,68.35978835978837 164.44444444444446,67.93650793650794 165.0793650793651,67.51322751322752 165.71428571428572,67.3015873015873 166.34920634920636,66.87830687830689 166.984126984127,66.66666666666667 167.40740740740742,66.24338624338625 168.04232804232805,66.03174603174604 168.67724867724868,65.60846560846561 169.31216931216932,65.3968253968254 169.94708994708995,65.18518518518519 170.58201058201058,64.97354497354497 171.21693121693124,64.76190476190477 171.85185185185188,64.76190476190477 172.4867724867725,64.76190476190477 173.12169312169314,64.76190476190477 173.75661375661377,64.76190476190477 174.3915343915344,64.97354497354497 175.02645502645504,65.18518518518519 175.66137566137567,65.3968253968254 176.0846560846561,65.82010582010582 176.71957671957674,66.24338624338625 177.14285714285717,66.66666666666667 177.56613756613757,67.3015873015873 177.989417989418,67.93650793650794 178.2010582010582,68.57142857142858 178.41269841269843,69.20634920634922 178.62433862433863,69.84126984126985 178.62433862433863,70.47619047619048 178.83597883597884,71.11111111111111 178.83597883597884,71.74603174603175 179.04761904761907,72.38095238095238 179.25925925925927,73.01587301587303 179.25925925925927,73.65079365079366 179.4708994708995,74.28571428571429 179.6825396825397,74.92063492063492 179.6825396825397,75.55555555555556 179.8941798941799,76.19047619047619 180.10582010582013,76.82539682539684 180.31746031746033,77.46031746031747 180.52910052910053,78.0952380952381 180.74074074074076,78.73015873015873 180.74074074074076,79.36507936507937 180.95238095238096,80.0 181.16402116402116,80.63492063492065 181.16402116402116,81.26984126984128 181.3756613756614,81.90476190476191 181.5873015873016,82.53968253968254 181.5873015873016,83.17460317460318 181.79894179894183,83.80952380952381 182.01058201058203,84.44444444444446 182.22222222222223,85.07936507936509 182.43386243386246,85.71428571428572 182.64550264550266,86.34920634920636 182.85714285714286,86.98412698412699 183.0687830687831,87.61904761904762 183.0687830687831,88.25396825396827 183.2804232804233,88.8888888888889 183.4920634920635,89.52380952380953 183.70370370370372,90.15873015873017 183.91534391534393,90.7936507936508 184.12698412698415,91.42857142857143 184.33862433862436,92.06349206349208 184.55026455026456,92.69841269841271 184.7619047619048,93.33333333333334 184.973544973545,93.96825396825398 185.1851851851852,94.60317460317461 185.39682539682542,95.23809523809524 185.60846560846562,95.87301587301587 185.82010582010582,96.50793650793652 186.24338624338625,97.14285714285715 186.45502645502646,97.77777777777779 186.66666666666669,98.41269841269842 186.8783068783069,99.04761904761905 187.08994708994712,99.68253968253968 187.30158730158732,100.31746031746033 187.51322751322752,100.95238095238096 187.93650793650795,101.5873015873016 188.14814814814815,102.22222222222223 188.57142857142858,102.85714285714286 188.78306878306879,103.4920634920635 188.99470899470901,104.12698412698414 189.41798941798945,104.76190476190477 189.62962962962965,105.3968253968254 189.84126984126985,106.03174603174604 190.26455026455028,106.66666666666667 190.47619047619048,107.3015873015873 190.6878306878307,107.93650793650795 191.11111111111111,108.57142857142858 191.32275132275134,109.20634920634922 191.74603174603175,109.84126984126985 191.95767195767198,110.47619047619048 192.3809523809524,111.11111111111111 192.8042328042328,111.74603174603176 193.22751322751324,112.3809523809524 193.65079365079367,113.01587301587303 193.86243386243387,113.65079365079366 194.07407407407408,114.28571428571429 194.4973544973545,114.70899470899472 194.70899470899474,115.34391534391536 196.1904761904762,117.88359788359789" style="fill:none; stroke:#999900; stroke-width:1.0"  /><polyline points="196.1904761904762,117.88359788359789 193.43915343915344,119.7883597883598 192.8042328042328,120.21164021164022 192.16931216931218,120.63492063492065 191.74603174603175,121.05820105820106 191.11111111111111,121.26984126984128 190.6878306878307,121.6931216931217 190.05291005291008,122.11640211640213 189.41798941798945,122.53968253968254 188.78306878306879,122.96296296296298 188.14814814814815,123.3862433862434 187.72486772486775,123.80952380952382 187.30158730158732,124.23280423280424 186.66666666666669,124.65608465608466 186.24338624338625,125.07936507936509 185.60846560846562,125.5026455026455 184.973544973545,125.92592592592594 184.33862433862436,126.34920634920636 183.91534391534393,126.77248677248679 183.2804232804233,127.1957671957672 182.64550264550266,127.61904761904763 182.01058201058203,128.04232804232805 181.5873015873016,128.46560846560848 180.95238095238096,128.88888888888889 180.31746031746033,129.31216931216932 179.8941798941799,129.73544973544975 179.25925925925927,130.15873015873018 178.62433862433863,130.58201058201058 178.2010582010582,131.005291005291 177.56613756613757,131.42857142857144 176.93121693121694,131.85185185185185 176.50793650793653,132.27513227513228 175.87301587301587,132.6984126984127 175.23809523809524,133.12169312169314 174.6031746031746,133.54497354497354 174.1798941798942,133.96825396825398 173.54497354497354,134.3915343915344 172.9100529100529,134.81481481481484 172.4867724867725,135.23809523809524 171.85185185185188,135.66137566137567 171.21693121693124,136.0846560846561 170.58201058201058,136.5079365079365 170.15873015873018,136.93121693121694 169.52380952380955,137.35449735449737 168.8888888888889,137.7777777777778 168.25396825396825,138.2010582010582 167.83068783068785,138.62433862433863 167.40740740740742,139.04761904761907 166.7724867724868,139.25925925925927 166.34920634920636,139.6825396825397 165.92592592592595,140.10582010582013 165.2910052910053,140.52910052910053 164.8677248677249,140.95238095238096 164.23280423280426,141.3756613756614 163.59788359788362,141.7989417989418 163.1746031746032,142.22222222222223 162.53968253968256,142.64550264550266 161.90476190476193,143.0687830687831 161.2698412698413,143.4920634920635 160.84656084656086,143.91534391534393 160.21164021164023,144.33862433862436 159.5767195767196,144.76190476190476 158.94179894179896,145.1851851851852 158.51851851851853,145.60846560846562 157.8835978835979,146.03174603174605 157.24867724867727,146.45502645502646 156.82539682539684,146.8783068783069 156.4021164021164,147.30158730158732 155.76719576719577,147.72486772486775 155.13227513227514,148.14814814814815 154.7089947089947,148.57142857142858 154.07407407407408,148.99470899470901 153.43915343915344,149.41798941798942 153.01587301587304,149.84126984126985 152.5925925925926,150.26455026455028 151.95767195767198,150.6878306878307 151.32275132275134,151.11111111111111 150.8994708994709,151.53439153439155 150.26455026455028,151.95767195767198 149.62962962962965,152.38095238095238 148.99470899470901,152.8042328042328 148.35978835978838,153.22751322751324 147.93650793650795,153.65079365079367 147.30158730158732,154.07407407407408 146.66666666666669,154.4973544973545 146.24338624338625,154.92063492063494 145.60846560846562,155.34391534391534 145.1851851851852,155.76719576719577 144.55026455026456,156.1904761904762 143.91534391534393,156.61375661375664 143.2804232804233,157.03703703703704 142.64550264550266,157.46031746031747 142.22222222222223,157.8835978835979 141.5873015873016,158.30687830687833 141.16402116402116,158.73015873015873 140.52910052910053,159.15343915343917 139.8941798941799,159.5767195767196 139.25925925925927,160.0 138.62433862433863,160.42328042328043 138.2010582010582,160.84656084656086 137.56613756613757,161.2698412698413 136.93121693121694,161.6931216931217 136.2962962962963,162.11640211640213 135.87301587301587,162.53968253968256 135.23809523809524,162.75132275132276 134.6031746031746,163.1746031746032 134.17989417989418,163.59788359788362 133.54497354497354,164.02116402116403 132.9100529100529,164.44444444444446 132.27513227513228,164.8677248677249 131.85185185185185,165.2910052910053 131.21693121693121,165.71428571428572 130.7936507936508,166.13756613756615 130.15873015873018,166.56084656084658 129.52380952380955,166.984126984127 129.10052910052912,167.40740740740742 128.46560846560848,167.83068783068785 127.83068783068784,168.25396825396825 127.40740740740742,168.67724867724868 126.77248677248679,169.10052910052912 126.13756613756615,169.52380952380955 125.5026455026455,169.94708994708995 125.07936507936509,170.37037037037038 124.44444444444446,170.7936507936508 123.80952380952382,171.21693121693124 123.17460317460318,171.64021164021165 122.75132275132276,172.06349206349208 122.11640211640213,172.4867724867725 121.4814814814815,172.9100529100529 121.05820105820106,173.33333333333334 120.42328042328043,173.75661375661377 120.00000000000001,174.1798941798942 119.36507936507937,174.6031746031746 118.94179894179895,175.02645502645504 118.30687830687832,175.44973544973547 117.88359788359789,176.0846560846561 117.24867724867725,176.50793650793653 116.61375661375662,176.93121693121694 115.97883597883599,177.35449735449737 115.34391534391536,177.7777777777778 114.70899470899472,178.2010582010582 114.07407407407408,178.62433862433863 113.65079365079366,179.04761904761907 113.01587301587303,179.4708994708995 112.5925925925926,179.8941798941799 111.95767195767196,180.31746031746033 111.32275132275133,180.74074074074076 110.6878306878307,181.16402116402116 110.05291005291006,181.5873015873016 109.62962962962963,182.01058201058203 109.20634920634922,182.43386243386246 108.57142857142858,182.85714285714286 107.93650793650795,183.2804232804233 107.3015873015873,183.70370370370372 106.66666666666667,184.12698412698415 106.24338624338625,184.55026455026456 105.60846560846562,184.973544973545 104.97354497354497,185.39682539682542 104.55026455026456,185.82010582010582 103.91534391534393,186.24338624338625 103.28042328042329,186.66666666666669 102.64550264550266,187.08994708994712 102.22222222222223,187.51322751322752 101.5873015873016,187.93650793650795 101.16402116402116,188.35978835978838 100.52910052910053,188.78306878306879 99.8941798941799,189.20634920634922 99.25925925925927,189.62962962962965 98.62433862433863,190.05291005291008 98.2010582010582,190.47619047619048 97.56613756613757,190.8994708994709 97.14285714285715,191.32275132275134 96.50793650793652,191.74603174603175 96.08465608465609,192.16931216931218 95.44973544973546,192.5925925925926 94.81481481481482,193.01587301587304 94.17989417989419,193.43915343915344 91.64021164021165,195.34391534391537" style="fill:none; stroke:#00aa99; stroke-width:3.0" stroke-dasharray="6,3" /><polyline points="91.64021164021165,195.34391534391537 89.52380952380953,192.8042328042328 89.1005291005291,192.3809523809524 88.67724867724868,191.95767195767198 88.25396825396827,191.32275132275134 87.83068783068784,190.8994708994709 87.40740740740742,190.47619047619048 86.98412698412699,189.84126984126985 86.56084656084657,189.41798941798945 86.13756613756614,188.78306878306879 85.71428571428572,188.35978835978838 85.29100529100529,187.93650793650795 84.86772486772487,187.51322751322752 84.44444444444446,186.8783068783069 84.02116402116403,186.45502645502646 83.59788359788361,186.03174603174605 82.96296296296298,185.60846560846562 82.53968253968254,184.973544973545 82.11640211640213,184.55026455026456 81.6931216931217,183.91534391534393 81.26984126984128,183.4920634920635 80.84656084656085,183.0687830687831 80.42328042328043,182.64550264550266 80.0,182.22222222222223 79.57671957671958,181.79894179894183 79.15343915343917,181.3756613756614 78.73015873015873,180.95238095238096 78.30687830687832,180.52910052910053 77.88359788359789,180.10582010582013 77.46031746031747,179.6825396825397 77.03703703703704,179.25925925925927 76.61375661375662,178.62433862433863 76.19047619047619,178.2010582010582 75.76719576719577,177.7777777777778 75.34391534391536,177.35449735449737 74.92063492063492,176.93121693121694 74.49735449735451,176.50793650793653 74.07407407407408,175.87301587301587 73.65079365079366,175.44973544973547 73.22751322751323,175.02645502645504 72.80423280423281,174.6031746031746 72.38095238095238,174.1798941798942 71.95767195767196,173.75661375661377 71.53439153439155,173.33333333333334 71.11111111111111,172.9100529100529 70.6878306878307,172.4867724867725 70.26455026455027,172.06349206349208 69.84126984126985,171.42857142857144 69.41798941798942,171.005291005291 68.994708994709,170.58201058201058 68.57142857142858,170.15873015873018 68.14814814814815,169.73544973544975 67.72486772486774,169.31216931216932 67.3015873015873,168.8888888888889 66.87830687830689,168.46560846560848 66.45502645502646,168.04232804232805 66.03174603174604,167.40740740740742 65.60846560846561,166.984126984127 65.18518518518519,166.56084656084658 64.76190476190477,166.13756613756615 64.33862433862434,165.71428571428572 63.91534391534392,165.2910052910053 63.492063492063494,164.8677248677249 63.06878306878308,164.44444444444446 62.64550264550265,164.02116402116403 62.22222222222223,163.59788359788362 61.798941798941804,163.1746031746032 61.37566137566138,162.75132275132276 60.952380952380956,162.32804232804233 60.52910052910053,161.90476190476193 59.8941798941799,161.4814814814815 59.470899470899475,161.05820105820106 58.83597883597884,160.63492063492066 58.2010582010582,160.21164021164023 57.56613756613757,159.7883597883598 56.93121693121694,159.5767195767196 56.2962962962963,159.36507936507937 55.661375661375665,159.15343915343917 55.02645502645503,158.94179894179896 54.39153439153439,158.94179894179896 53.75661375661376,158.94179894179896 53.12169312169313,158.94179894179896 52.48677248677249,158.73015873015873 51.851851851851855,159.15343915343917 51.21693121693122,159.15343915343917 50.58201058201058,159.5767195767196 49.94708994708995,159.7883597883598 49.31216931216932,160.21164021164023 48.88888888888889,160.63492063492066 48.46560846560847,161.05820105820106 48.042328042328045,161.4814814814815 47.61904761904762,162.11640211640213 47.195767195767196,162.75132275132276 46.98412698412699,163.3862433862434 46.77248677248678,164.02116402116403 46.560846560846564,164.65608465608466 46.349206349206355,165.2910052910053 46.13756613756614,165.92592592592595 45.92592592592593,166.56084656084658 45.714285714285715,167.19576719576722 45.50264550264551,167.83068783068785 45.50264550264551,168.46560846560848 45.29100529100529,169.10052910052912 45.07936507936508,169.73544973544975 44.867724867724874,170.37037037037038 44.867724867724874,171.005291005291 44.867724867724874,171.64021164021165 44.867724867724874,172.27513227513228 44.65608465608466,172.9100529100529 44.65608465608466,173.54497354497354 44.44444444444445,174.1798941798942 44.232804232804234,174.81481481481484 44.021164021164026,175.44973544973547 43.5978835978836,175.87301587301587 43.17460317460318,176.50793650793653 42.75132275132275,177.14285714285717 42.32804232804233,177.56613756613757 41.904761904761905,177.989417989418 41.48148148148149,178.41269841269843 40.84656084656085,178.83597883597884 40.211640211640216,179.25925925925927 39.57671957671958,179.6825396825397 38.94179894179894,179.8941798941799 38.30687830687831,180.31746031746033 37.67195767195768,180.52910052910053 37.03703703703704,180.74074074074076 36.402116402116405,180.74074074074076 35.76719576719577,180.95238095238096 35.13227513227513,180.95238095238096 34.4973544973545,180.95238095238096 33.86243386243387,180.95238095238096 33.22751322751323,180.95238095238096 32.592592592592595,180.74074074074076 31.95767195767196,180.52910052910053 31.322751322751326,180.52910052910053 30.68783068783069,180.31746031746033 30.052910052910054,179.8941798941799 29.41798941798942,179.6825396825397 28.783068783068785,179.25925925925927 28.14814814814815,178.83597883597884 27.513227513227516,178.41269841269843 27.089947089947092,177.989417989418 26.455026455026456,177.56613756613757 26.031746031746035,177.14285714285717 25.3968253968254,176.71957671957674 24.973544973544975,176.2962962962963 24.55026455026455,175.87301587301587 23.915343915343918,175.44973544973547 23.492063492063494,175.02645502645504 23.06878306878307,174.6031746031746 22.645502645502646,174.1798941798942 22.222222222222225,173.75661375661377 21.7989417989418,173.33333333333334 21.375661375661377,172.9100529100529 20.740740740740744,172.4867724867725 20.31746031746032,171.85185185185188 19.894179894179896,171.42857142857144 19.47089947089947,171.005291005291 19.047619047619047,170.37037037037038 18.624338624338627,169.94708994708995 18.201058201058203,169.31216931216932 17.77777777777778,168.67724867724868 17.354497354497354,168.04232804232805 16.931216931216934,167.40740740740742 16.50793650793651,166.7724867724868 16.084656084656086,166.13756613756615 15.661375661375663,165.50264550264552 15.238095238095239,164.8677248677249 14.814814814814817,164.23280423280426 14.603174603174605,163.59788359788362 14.17989417989418,163.1746031746032 13.96825396825397,162.53968253968256 13.544973544973546,161.90476190476193 13.121693121693122,161.4814814814815 12.910052910052912,160.84656084656086 12.486772486772487,160.21164021164023 12.063492063492065,159.5767195767196 11.851851851851853,158.94179894179896 11.640211640211641,158.30687830687833 11.216931216931219,157.67195767195767 11.005291005291006,157.03703703703704 10.793650793650794,156.4021164021164 10.582010582010582,155.76719576719577 10.370370370370372,155.13227513227514 10.15873015873016,154.4973544973545 9.947089947089948,153.86243386243387 9.735449735449736,153.22751322751324 9.523809523809524,152.5925925925926 9.312169312169313,151.95767195767198 9.100529100529101,151.32275132275134 9.100529100529101,150.6878306878307 8.88888888888889,150.05291005291005 8.88888888888889,149.41798941798942 8.88888888888889,148.78306878306879 8.88888888888889,148.14814814814815 9.100529100529101,147.51322751322752 8.88888888888889,146.8783068783069 9.312169312169313,146.24338624338625 9.735449735449736,145.60846560846562 10.15873015873016,144.973544973545 10.582010582010582,144.55026455026456 11.216931216931219,144.12698412698413 11.640211640211641,143.70370370370372 12.275132275132275,143.4920634920635 12.910052910052912,143.2804232804233 13.544973544973546,142.85714285714286 14.17989417989418,142.64550264550266 14.814814814814817,142.22222222222223 15.449735449735451,142.01058201058203 16.084656084656086,141.7989417989418 16.71957671957672,141.5873015873016 17.354497354497354,141.3756613756614 17.98941798941799,141.3756613756614 18.624338624338627,141.16402116402116 19.25925925925926,140.95238095238096 19.894179894179896,140.74074074074076 20.529100529100532,140.52910052910053 21.164021164021165,140.52910052910053 21.7989417989418,140.31746031746033 22.433862433862437,140.10582010582013 23.06878306878307,140.10582010582013 23.703703703703706,139.8941798941799 24.338624338624342,139.8941798941799 24.973544973544975,139.8941798941799 25.60846560846561,139.8941798941799 26.243386243386244,139.8941798941799 26.87830687830688,139.6825396825397 27.513227513227516,139.6825396825397 28.14814814814815,139.6825396825397 28.783068783068785,139.6825396825397 29.41798941798942,139.47089947089947 30.052910052910054,139.25925925925927 30.68783068783069,139.25925925925927 31.322751322751326,139.04761904761907 31.95767195767196,138.62433862433863 32.592592592592595,138.2010582010582 33.22751322751323,137.7777777777778 33.86243386243387,137.35449735449737 34.28571428571429,136.93121693121694 34.70899470899471,136.5079365079365 35.13227513227513,136.0846560846561 35.55555555555556,135.44973544973547 35.97883597883598,135.02645502645504 36.19047619047619,134.3915343915344 36.613756613756614,133.75661375661377 36.82539682539683,133.12169312169314 36.82539682539683,132.4867724867725 36.82539682539683,131.85185185185185 36.82539682539683,131.21693121693121 36.82539682539683,130.58201058201058 36.82539682539683,129.94708994708995 36.613756613756614,129.31216931216932 36.402116402116405,128.67724867724868 36.19047619047619,128.04232804232805 35.97883597883598,127.40740740740742 35.76719576719577,126.77248677248679 35.55555555555556,126.13756613756615 35.34391534391535,125.5026455026455 34.920634920634924,124.86772486772487 34.70899470899471,124.23280423280424 34.28571428571429,123.59788359788361 34.074074074074076,122.96296296296298 33.65079365079365,122.53968253968254 33.43915343915344,121.90476190476191 33.01587301587302,121.4814814814815 32.804232804232804,120.84656084656086 32.38095238095239,120.42328042328043 31.95767195767196,119.7883597883598 31.53439153439154,119.36507936507937 31.111111111111114,118.73015873015873 30.68783068783069,118.0952380952381 30.264550264550266,117.46031746031747 29.841269841269842,116.82539682539684 29.41798941798942,116.1904761904762 28.994708994708997,115.76719576719577 28.571428571428573,115.13227513227514 28.14814814814815,114.49735449735451 27.724867724867728,114.07407407407408 27.301587301587304,113.43915343915344 26.87830687830688,113.01587301587303 26.455026455026456,112.5925925925926 26.031746031746035,112.16931216931218 25.3968253968254,111.74603174603176 24.973544973544975,111.11111111111111 24.55026455026455,110.6878306878307 24.12698412698413,110.26455026455027 23.703703703703706,109.84126984126985 23.280423280423282,109.20634920634922 22.857142857142858,108.78306878306879 22.433862433862437,108.35978835978837 22.010582010582013,107.93650793650795 21.58730158730159,107.51322751322752 21.164021164021165,106.87830687830689 20.740740740740744,106.45502645502647 20.105820105820108,106.03174603174604 19.682539682539684,105.60846560846562 19.25925925925926,105.18518518518519 18.83597883597884,104.76190476190477 18.412698412698415,104.33862433862434 17.98941798941799,103.91534391534393 17.566137566137566,103.4920634920635 17.142857142857146,103.06878306878308 16.50793650793651,102.64550264550266 16.084656084656086,102.22222222222223 15.661375661375663,101.79894179894181 15.026455026455027,101.37566137566138 14.603174603174605,100.95238095238096 14.17989417989418,100.52910052910053 13.544973544973546,100.10582010582011 12.910052910052912,99.8941798941799 12.486772486772487,99.47089947089948 11.851851851851853,99.04761904761905 11.216931216931219,98.62433862433863 10.582010582010582,98.2010582010582 9.947089947089948,97.77777777777779 9.312169312169313,97.35449735449737 8.677248677248677,96.93121693121694 8.042328042328043,96.50793650793652 7.407407407407408,96.08465608465609 6.772486772486773,95.87301587301587 6.137566137566138,95.44973544973546 5.502645502645503,95.23809523809524 5.07936507936508,94.81481481481482 4.444444444444445,94.60317460317461 4.021164021164021,94.17989417989419 3.3862433862433865,93.75661375661376 2.7513227513227516,93.54497354497356 -0.21164021164021166,91.85185185185186" style="fill:none; stroke:#3300bb; stroke-width:1.0"  /><circle cx="-0.21164021164021166" cy="91.85185185185186" r="2.0" style="fill:none; stroke:#000000aa; stroke-width:0.25" /><circle cx="131.005291005291" cy="0.0" r="2.0" style="fill:none; stroke:#000000aa; stroke-width:0.25" /><circle cx="196.1904761904762" cy="117.88359788359789" r="2.0" style="fill:none; stroke:#000000aa; stroke-width:0.25" /><circle cx="91.64021164021165" cy="195.34391534391537" r="2.0" style="fill:none; stroke:#000000aa; stroke-width:0.25" /><circle cx="0.21164021164021166" cy="91.64021164021165" r="2.0" style="fill:none; stroke:#ff3366aa; stroke-width:0.25" /><circle cx="130.7936507936508" cy="0.21164021164021166" r="2.0" style="fill:none; stroke:#ff3366aa; stroke-width:0.25" /><circle cx="196.1904761904762" cy="118.0952380952381" r="2.0" style="fill:none; stroke:#ff3366aa; stroke-width:0.25" /><circle cx="91.64021164021165" cy="195.34391534391537" r="2.0" style="fill:none; stroke:#ff3366aa; stroke-width:0.25" /><polyline points="9.523809523809524,84.23280423280424 9.100529100529101,84.65608465608466 8.465608465608467,85.07936507936509 7.830687830687832,85.5026455026455 7.407407407407408,85.92592592592594 6.772486772486773,86.34920634920636 6.137566137566138,86.77248677248677 5.714285714285714,87.1957671957672 5.07936507936508,87.40740740740742 4.656084656084657,87.83068783068784 4.2328042328042335,88.25396825396827 3.597883597883598,88.67724867724868 3.174603174603175,89.1005291005291 2.7513227513227516,89.52380952380953" style="fill:none; stroke:#001100; stroke-width:1.0" /><polyline points="9.947089947089948,97.77777777777779 9.312169312169313,97.35449735449737 8.677248677248677,96.93121693121694 8.042328042328043,96.50793650793652 7.407407407407408,96.08465608465609 6.772486772486773,95.87301587301587 6.137566137566138,95.44973544973546 5.502645502645503,95.23809523809524 5.07936507936508,94.81481481481482 4.444444444444445,94.60317460317461 4.021164021164021,94.17989417989419 3.3862433862433865,93.75661375661376 2.7513227513227516,93.54497354497356" style="fill:none; stroke:#000011; stroke-width:1.0" /><polyline points="139.25925925925927,8.253968253968255 138.83597883597884,7.830687830687832 138.41269841269843,7.407407407407408 137.989417989418,6.984126984126985 137.56613756613757,6.560846560846561 137.14285714285717,6.137566137566138 136.71957671957674,5.714285714285714 136.2962962962963,5.291005291005291 135.87301587301587,4.867724867724868 135.44973544973547,4.444444444444445 135.02645502645504,4.021164021164021 134.6031746031746,3.597883597883598 134.17989417989418,3.174603174603175 133.75661375661377,2.7513227513227516 133.33333333333334,2.3280423280423284" style="fill:none; stroke:#001100; stroke-width:1.0" /><polyline points="122.75132275132276,9.100529100529101 123.17460317460318,8.677248677248677 123.59788359788361,8.253968253968255 124.02116402116403,7.830687830687832 124.44444444444446,7.407407407407408 124.86772486772487,6.984126984126985 125.2910052910053,6.34920634920635 125.71428571428572,5.9259259259259265 126.13756613756615,5.502645502645503 126.56084656084657,5.07936507936508 126.98412698412699,4.656084656084657 127.40740740740742,4.2328042328042335 127.83068783068784,3.597883597883598 128.25396825396825,2.9629629629629632 128.67724867724868,2.53968253968254" style="fill:none; stroke:#000011; stroke-width:1.0" /><polyline points="186.66666666666669,124.65608465608466 187.30158730158732,124.23280423280424 187.72486772486775,123.80952380952382 188.14814814814815,123.3862433862434 188.78306878306879,122.96296296296298 189.41798941798945,122.53968253968254 190.05291005291008,122.11640211640213 190.6878306878307,121.6931216931217 191.11111111111111,121.26984126984128 191.74603174603175,121.05820105820106 192.16931216931218,120.63492063492065 192.8042328042328,120.21164021164022 193.43915343915344,119.7883597883598" style="fill:none; stroke:#001100; stroke-width:1.0" /><polyline points="190.6878306878307,107.93650793650795 191.11111111111111,108.57142857142858 191.32275132275134,109.20634920634922 191.74603174603175,109.84126984126985 191.95767195767198,110.47619047619048 192.3809523809524,111.11111111111111 192.8042328042328,111.74603174603176 193.22751322751324,112.3809523809524 193.65079365079367,113.01587301587303 193.86243386243387,113.65079365079366 194.07407407407408,114.28571428571429 194.4973544973545,114.70899470899472 194.70899470899474,115.34391534391536" style="fill:none; stroke:#000011; stroke-width:1.0" /><polyline points="84.02116402116403,186.45502645502646 84.44444444444446,186.8783068783069 84.86772486772487,187.51322751322752 85.29100529100529,187.93650793650795 85.71428571428572,188.35978835978838 86.13756613756614,188.78306878306879 86.56084656084657,189.41798941798945 86.98412698412699,189.84126984126985 87.40740740740742,190.47619047619048 87.83068783068784,190.8994708994709 88.25396825396827,191.32275132275134 88.67724867724868,191.95767195767198 89.1005291005291,192.3809523809524 89.52380952380953,192.8042328042328" style="fill:none; stroke:#001100; stroke-width:1.0" /><polyline points="101.16402116402116,188.35978835978838 100.52910052910053,188.78306878306879 99.8941798941799,189.20634920634922 99.25925925925927,189.62962962962965 98.62433862433863,190.05291005291008 98.2010582010582,190.47619047619048 97.56613756613757,190.8994708994709 97.14285714285715,191.32275132275134 96.50793650793652,191.74603174603175 96.08465608465609,192.16931216931218 95.44973544973546,192.5925925925926 94.81481481481482,193.01587301587304 94.17989417989419,193.43915343915344" style="fill:none; stroke:#000011; stroke-width:1.0" /><polyline points="2.7513227513227516,89.52380952380953 -13.96825396825397,102.64550264550266" style="fill:none; stroke:#ffaa00; stroke-width:0.4" /><polyline points="2.7513227513227516,93.54497354497356 -15.449735449735451,82.75132275132276" style="fill:none; stroke:#aaff00; stroke-width:0.4" /><polyline points="133.33333333333334,2.3280423280423284 118.30687830687832,-12.6984126984127" style="fill:none; stroke:#ffaa00; stroke-width:0.4" /><polyline points="128.67724867724868,2.53968253968254 142.85714285714286,-13.121693121693122" style="fill:none; stroke:#aaff00; stroke-width:0.4" /><polyline points="193.43915343915344,119.7883597883598 210.5820105820106,107.51322751322752" style="fill:none; stroke:#ffaa00; stroke-width:0.4" /><polyline points="194.70899470899474,115.34391534391536 204.8677248677249,133.96825396825398" style="fill:none; stroke:#aaff00; stroke-width:0.4" /><polyline points="89.52380952380953,192.8042328042328 103.28042328042329,208.8888888888889" style="fill:none; stroke:#ffaa00; stroke-width:0.4" /><polyline points="94.17989417989419,193.43915343915344 77.03703703703704,205.92592592592595" style="fill:none; stroke:#aaff00; stroke-width:0.4" /><circle cx="101.37566137566138" cy="106.45502645502647" r="1.0" style="fill:#444444; stroke-width:0" /><circle cx="128.46560846560848" cy="113.22751322751324" r="10.582010582010582" style="fill:#ff770022; stroke-width:0" /><circle cx="128.46560846560848" cy="113.22751322751324" r="1.0" style="fill:#ff7700; stroke-width:0" /></svg>