<?xml version="1.0" encoding="UTF-8" standalone="no"?><svg width="598.7301587301588" height="578.4126984126984" viewBox="-10 -10 219.5767195767196 212.8042328042328" xmlns="http://www.w3.org/2000/svg" xmlns:xlink="http://www.w3.org/1999/xlink"><polyline points="74.07407407407408,-0.4232804232804233 77.24867724867725,1.4814814814814816 77.88359788359789,1.9047619047619049 78.51851851851852,2.3280423280423284 79.15343915343917,2.7513227513227516 79.7883597883598,2.9629629629629632 80.21164021164022,3.3862433862433865 80.84656084656085,3.597883597883598 81.48148148148148,4.021164021164021 82.11640211640213,4.444444444444445 82.53968253968254,4.867724867724868 83.17460317460318,5.07936507936508 83.80952380952381,5.502645502645503 84.44444444444446,5.714285714285714 84.86772486772487,6.137566137566138 85.5026455026455,6.560846560846561 86.13756613756614,6.772486772486773 86.56084656084657,7.195767195767196 87.1957671957672,7.407407407407408 87.83068783068784,7.6190476190476195 88.25396825396827,8.042328042328043 88.67724867724868,8.465608465608467 89.31216931216932,8.677248677248677 89.73544973544975,9.100529100529101 90.37037037037038,9.523809523809524 91.00529100529101,9.735449735449736 91.42857142857143,10.15873015873016 92.06349206349208,10.582010582010582 92.4867724867725,11.005291005291006 93.12169312169313,11.428571428571429 93.75661375661376,11.851851851851853 94.39153439153439,12.275132275132275 94.81481481481482,12.6984126984127 95.23809523809524,13.121693121693122 95.66137566137567,13.544973544973546 96.08465608465609,13.96825396825397 96.50793650793652,14.391534391534393 97.14285714285715,14.814814814814817 97.56613756613757,15.238095238095239 97.989417989418,15.661375661375663 98.41269841269842,16.084656084656086 98.83597883597885,16.50793650793651 99.25925925925927,16.931216931216934 99.68253968253968,17.566137566137566 100.10582010582011,17.98941798941799 100.52910052910053,18.412698412698415 100.95238095238096,19.047619047619047 101.37566137566138,19.47089947089947 101.79894179894181,20.105820105820108 102.22222222222223,20.529100529100532 102.64550264550266,21.164021164021165 102.85714285714286,21.7989417989418 103.28042328042329,22.433862433862437 103.4920634920635,23.06878306878307 103.70370370370371,23.703703703703706 103.70370370370371,24.338624338624342 103.70370370370371,24.973544973544975 103.91534391534393,25.60846560846561 103.70370370370371,26.243386243386244 103.70370370370371,26.87830687830688 103.28042328042329,27.513227513227516 102.85714285714286,28.14814814814815 102.43386243386244,28.571428571428573 102.01058201058201,28.994708994708997 101.5873015873016,29.41798941798942 101.16402116402116,29.841269841269842 100.52910052910053,30.264550264550266 99.8941798941799,30.476190476190478 99.25925925925927,30.899470899470902 98.62433862433863,31.111111111111114 97.989417989418,31.53439153439154 97.35449735449737,31.53439153439154 96.71957671957672,31.95767195767196 96.08465608465609,31.95767195767196 95.44973544973546,32.16931216931217 94.81481481481482,32.38095238095239 94.17989417989419,32.592592592592595 93.54497354497356,32.804232804232804 92.91005291005291,33.01587301587302 92.27513227513228,33.43915343915344 91.64021164021165,33.65079365079365 91.00529100529101,33.86243386243387 90.37037037037038,34.28571428571429 89.73544973544975,34.70899470899471 89.1005291005291,35.13227513227513 88.46560846560847,35.34391534391535 88.04232804232805,35.76719576719577 87.40740740740742,36.19047619047619 86.77248677248677,36.613756613756614 86.13756613756614,37.03703703703704 85.5026455026455,37.46031746031746 85.07936507936509,37.883597883597886 84.44444444444446,38.30687830687831 84.02116402116403,38.730158730158735 83.59788359788361,39.15343915343916 83.17460317460318,39.57671957671958 82.75132275132276,40.0 82.32804232804233,40.423280423280424 81.90476190476191,40.84656084656085 81.48148148148148,41.48148148148149 81.05820105820106,42.11640211640212 80.84656084656085,42.75132275132275 80.63492063492065,43.386243386243386 80.21164021164022,44.021164021164026 80.21164021164022,44.65608465608466 80.0,45.29100529100529 80.0,45.92592592592593 80.0,46.560846560846564 80.0,47.195767195767196 80.21164021164022,47.830687830687836 80.21164021164022,48.46560846560847 80.42328042328043,49.1005291005291 80.63492063492065,49.73544973544974 80.84656084656085,50.370370370370374 81.05820105820106,51.00529100529101 81.26984126984128,51.640211640211646 81.48148148148148,52.27513227513228 81.90476190476191,52.91005291005291 82.11640211640213,53.54497354497355 82.53968253968254,54.179894179894184 82.96296296296298,54.81481481481482 83.17460317460318,55.449735449735456 83.59788359788361,55.87301587301588 84.02116402116403,56.50793650793651 84.44444444444446,57.142857142857146 84.86772486772487,57.777777777777786 85.07936507936509,58.41269841269842 85.5026455026455,58.83597883597884 85.92592592592594,59.25925925925927 86.34920634920636,59.682539682539684 86.77248677248677,60.10582010582011 87.40740740740742,60.52910052910053 87.83068783068784,60.952380952380956 88.25396825396827,61.37566137566138 88.67724867724868,61.798941798941804 89.31216931216932,62.22222222222223 89.73544973544975,62.64550264550265 90.37037037037038,62.85714285714286 90.7936507936508,63.280423280423285 91.21693121693123,63.70370370370371 91.85185185185186,64.12698412698413 92.4867724867725,64.33862433862434 92.91005291005291,64.97354497354497 93.54497354497356,65.18518518518519 94.17989417989419,65.60846560846561 94.81481481481482,65.82010582010582 95.23809523809524,66.24338624338625 95.87301587301587,66.45502645502646 96.50793650793652,66.66666666666667 96.93121693121694,67.08994708994709 97.56613756613757,67.3015873015873 98.2010582010582,67.72486772486774 98.83597883597885,67.93650793650794 99.47089947089948,68.14814814814815 100.10582010582011,68.57142857142858 100.74074074074075,68.78306878306879 101.37566137566138,68.78306878306879 102.01058201058201,69.20634920634922 102.64550264550266,69.20634920634922 103.28042328042329,69.41798941798942 103.91534391534393,69.62962962962963 104.55026455026456,69.62962962962963 105.18518518518519,69.62962962962963 105.82010582010582,69.62962962962963 106.45502645502647,69.62962962962963 107.0899470899471,69.62962962962963 107.72486772486774,69.84126984126985 108.35978835978837,69.62962962962963 108.994708994709,69.62962962962963 109.62962962962963,69.62962962962963 110.26455026455027,69.62962962962963 111.32275132275133,69.20634920634922 111.95767195767196,68.994708994709 112.5925925925926,68.78306878306879 113.22751322751324,68.57142857142858 113.86243386243387,68.35978835978837 114.49735449735451,68.14814814814815 114.92063492063492,67.72486772486774 115.55555555555557,67.51322751322752 115.97883597883599,67.08994708994709 116.61375661375662,66.66666666666667 117.03703703703705,66.24338624338625 117.46031746031747,65.82010582010582 117.88359788359789,65.3968253968254 118.51851851851853,64.97354497354497 118.94179894179895,64.55026455026456 119.36507936507937,63.91534391534392 119.7883597883598,63.492063492063494 120.21164021164022,63.06878306878308 120.63492063492065,62.64550264550265 121.05820105820106,62.22222222222223 121.4814814814815,61.58730158730159 121.90476190476191,60.952380952380956 122.11640211640213,60.31746031746032 122.32804232804234,59.682539682539684 122.53968253968254,59.04761904761905 122.75132275132276,58.41269841269842 122.96296296296298,57.777777777777786 122.96296296296298,57.142857142857146 122.96296296296298,56.50793650793651 122.96296296296298,55.87301587301588 122.96296296296298,55.23809523809524 122.96296296296298,54.60317460317461 122.96296296296298,53.968253968253975 122.96296296296298,53.333333333333336 122.75132275132276,52.6984126984127 122.75132275132276,52.06349206349207 122.53968253968254,51.42857142857143 122.53968253968254,50.7936507936508 122.53968253968254,50.158730158730165 122.53968253968254,49.523809523809526 122.53968253968254,48.88888888888889 122.75132275132276,48.25396825396826 122.75132275132276,47.61904761904762 122.75132275132276,46.98412698412699 122.75132275132276,46.349206349206355 122.96296296296298,45.714285714285715 122.96296296296298,45.07936507936508 123.17460317460318,44.44444444444445 123.3862433862434,43.80952380952381 123.3862433862434,43.17460317460318 123.80952380952382,42.539682539682545 124.02116402116403,41.904761904761905 124.23280423280424,41.26984126984127 124.65608465608466,40.63492063492064 125.07936507936509,40.0 125.5026455026455,39.57671957671958 126.13756613756615,39.15343915343916 126.56084656084657,38.730158730158735 127.1957671957672,38.730158730158735 127.40740740740742,38.095238095238095 128.04232804232805,38.095238095238095 128.67724867724868,37.883597883597886 129.31216931216932,38.30687830687831 129.94708994708995,38.30687830687831 130.58201058201058,38.30687830687831 131.21693121693121,38.51851851851852 131.85185185185185,38.30687830687831 132.4867724867725,38.51851851851852 132.9100529100529,38.94179894179894 133.54497354497354,38.94179894179894 134.17989417989418,39.15343915343916 134.6031746031746,39.57671957671958 135.23809523809524,39.57671957671958 135.87301587301587,39.78835978835979 136.5079365079365,40.211640211640216 137.14285714285717,40.211640211640216 137.56613756613757,40.63492063492064 138.2010582010582,40.84656084656085 138.83597883597884,40.84656084656085 139.47089947089947,41.058201058201064 140.10582010582013,41.26984126984127 140.74074074074076,41.48148148148149 141.3756613756614,41.904761904761905 142.01058201058203,42.32804232804233 142.64550264550266,42.539682539682545 143.2804232804233,42.75132275132275 143.91534391534393,43.17460317460318 144.55026455026456,43.5978835978836 145.1851851851852,43.5978835978836 145.60846560846562,44.021164021164026 146.24338624338625,43.80952380952381 146.66666666666669,44.232804232804234 147.30158730158732,44.44444444444445 147.72486772486775,44.867724867724874 148.35978835978838,45.07936507936508 148.99470899470901,45.07936507936508 149.62962962962965,45.29100529100529 150.05291005291005,45.92592592592593 150.6878306878307,46.13756613756614 151.32275132275134,46.13756613756614 151.74603174603175,46.560846560846564 152.16931216931218,47.195767195767196 152.8042328042328,47.40740740740741 153.43915343915344,47.61904761904762 154.07407407407408,47.61904761904762 154.4973544973545,48.042328042328045 154.92063492063494,48.46560846560847 155.55555555555557,48.677248677248684 156.1904761904762,49.1005291005291 156.82539682539684,49.31216931216932 157.46031746031747,49.73544973544974 158.0952380952381,50.158730158730165 158.73015873015873,50.370370370370374 159.36507936507937,50.7936507936508 160.0,51.00529100529101 160.63492063492066,51.42857142857143 161.2698412698413,51.640211640211646 161.6931216931217,52.06349206349207 162.32804232804233,52.48677248677249 162.96296296296296,52.6984126984127 163.59788359788362,53.12169312169313 164.23280423280426,53.54497354497355 164.8677248677249,53.968253968253975 165.50264550264552,53.968253968253975 165.92592592592595,54.39153439153439 166.56084656084658,54.60317460317461 166.984126984127,55.02645502645503 167.61904761904762,55.23809523809524 168.25396825396825,55.449735449735456 168.8888888888889,55.661375661375665 169.31216931216932,56.2962962962963 169.94708994708995,56.50793650793651 170.37037037037038,56.93121693121694 171.005291005291,57.142857142857146 171.64021164021165,57.35449735449736 172.06349206349208,57.777777777777786 172.6984126984127,58.2010582010582 173.33333333333334,58.62433862433863 173.96825396825398,58.62433862433863 174.3915343915344,59.04761904761905 174.81481481481484,59.470899470899475 175.44973544973547,59.470899470899475 175.87301587301587,59.8941798941799 176.50793650793653,60.31746031746032 177.14285714285717,60.52910052910053 177.56613756613757,60.952380952380956 178.2010582010582,61.16402116402117 178.83597883597884,61.37566137566138 179.4708994708995,61.58730158730159 179.8941798941799,62.01058201058201 180.52910052910053,62.43386243386244 181.16402116402116,62.64550264550265 181.5873015873016,63.06878306878308 182.22222222222223,63.492063492063494 182.85714285714286,63.70370370370371 183.4920634920635,64.12698412698413 184.12698412698415,64.55026455026456 184.7619047619048,64.97354497354497 185.39682539682542,64.97354497354497 185.82010582010582,65.3968253968254 186.45502645502646,65.60846560846561 186.8783068783069,66.03174603174604 187.51322751322752,66.45502645502646 188.14814814814815,66.87830687830689 188.78306878306879,67.3015873015873 189.41798941798945,67.51322751322752 189.84126984126985,67.93650793650794 190.47619047619048,68.14814814814815 191.11111111111111,68.57142857142858 191.74603174603175,68.78306878306879 192.3809523809524,69.20634920634922 193.01587301587304,69.41798941798942 193.43915343915344,69.84126984126985 194.07407407407408,70.05291005291006 194.4973544973545,70.47619047619048 195.13227513227514,70.6878306878307 195.76719576719577,71.11111111111111 196.4021164021164,71.32275132275133 197.03703703703704,71.74603174603175 199.36507936507937,73.01587301587303" style="fill:none; stroke:#cc0000; stroke-width:1.0"  /><polyline points="199.36507936507937,73.01587301587303 197.24867724867727,76.82539682539684 196.82539682539684,77.46031746031747 196.61375661375664,78.0952380952381 196.1904761904762,78.51851851851852 195.978835978836,79.15343915343917 195.55555555555557,79.7883597883598 195.13227513227514,80.21164021164022 194.92063492063494,80.84656084656085 194.4973544973545,81.26984126984128 194.2857142857143,81.90476190476191 193.86243386243387,82.32804232804233 193.65079365079367,82.96296296296298 193.22751322751324,83.3862433862434 193.01587301587304,84.02116402116403 192.5925925925926,84.65608465608466 192.16931216931218,85.29100529100529 191.95767195767198,85.92592592592594 191.53439153439155,86.56084656084657 191.11111111111111,87.1957671957672 190.8994708994709,87.83068783068784 190.47619047619048,88.25396825396827 190.26455026455028,88.8888888888889 189.84126984126985,89.52380952380953 189.41798941798945,90.15873015873017 189.20634920634922,90.7936507936508 188.78306878306879,91.21693121693123 188.57142857142858,91.85185185185186 188.14814814814815,92.27513227513228 187.93650793650795,92.91005291005291 187.51322751322752,93.33333333333334 187.30158730158732,93.96825396825398 186.8783068783069,94.60317460317461 186.66666666666669,95.23809523809524 186.24338624338625,95.87301587301587 186.03174603174605,96.50793650793652 185.60846560846562,96.93121693121694 185.1851851851852,97.56613756613757 184.973544973545,98.2010582010582 184.55026455026456,98.62433862433863 184.33862433862436,99.25925925925927 183.91534391534393,99.68253968253968 183.4920634920635,100.31746031746033 183.2804232804233,100.95238095238096 182.85714285714286,101.5873015873016 182.43386243386246,102.22222222222223 182.01058201058203,102.85714285714286 181.79894179894183,103.4920634920635 181.3756613756614,103.91534391534393 180.95238095238096,104.55026455026456 180.74074074074076,105.18518518518519 180.52910052910053,105.82010582010582 180.10582010582013,106.24338624338625 179.8941798941799,106.87830687830689 179.4708994708995,107.51322751322752 179.25925925925927,108.14814814814815 178.83597883597884,108.57142857142858 178.41269841269843,109.20634920634922 178.2010582010582,109.84126984126985 177.7777777777778,110.26455026455027 177.56613756613757,110.89947089947091 177.14285714285717,111.32275132275133 176.93121693121694,111.95767195767196 176.50793650793653,112.3809523809524 176.2962962962963,113.01587301587303 175.87301587301587,113.43915343915344 175.66137566137567,114.07407407407408 175.23809523809524,114.49735449735451 175.02645502645504,115.13227513227514 174.6031746031746,115.55555555555557 174.3915343915344,116.1904761904762 173.96825396825398,116.82539682539684 173.54497354497354,117.46031746031747 173.12169312169314,118.0952380952381 172.9100529100529,118.73015873015873 172.4867724867725,119.36507936507937 172.06349206349208,120.00000000000001 171.85185185185188,120.63492063492065 171.42857142857144,121.26984126984128 171.005291005291,121.6931216931217 170.58201058201058,122.32804232804234 170.15873015873018,122.96296296296298 169.94708994708995,123.59788359788361 169.52380952380955,124.23280423280424 169.10052910052912,124.86772486772487 168.67724867724868,125.5026455026455 168.46560846560848,126.13756613756615 168.04232804232805,126.56084656084657 167.83068783068785,127.1957671957672 167.40740740740742,127.83068783068784 166.984126984127,128.46560846560848 166.7724867724868,129.10052910052912 166.34920634920636,129.52380952380955 166.13756613756615,130.15873015873018 165.71428571428572,130.7936507936508 165.50264550264552,131.42857142857144 165.0793650793651,132.06349206349208 164.65608465608466,132.6984126984127 164.44444444444446,133.33333333333334 164.02116402116403,133.96825396825398 163.59788359788362,134.6031746031746 163.1746031746032,135.23809523809524 162.75132275132276,135.87301587301587 162.53968253968256,136.5079365079365 162.11640211640213,136.93121693121694 161.90476190476193,137.56613756613757 161.4814814814815,137.989417989418 161.2698412698413,138.62433862433863 160.84656084656086,139.25925925925927 160.42328042328043,139.8941798941799 160.0,140.52910052910053 159.7883597883598,141.16402116402116 159.36507936507937,141.5873015873016 159.15343915343917,142.22222222222223 158.73015873015873,142.64550264550266 158.51851851851853,143.2804232804233 158.0952380952381,143.70370370370372 157.67195767195767,144.33862433862436 157.46031746031747,144.973544973545 157.03703703703704,145.60846560846562 156.61375661375664,146.24338624338625 156.4021164021164,146.8783068783069 155.978835978836,147.30158730158732 155.76719576719577,147.93650793650795 155.34391534391534,148.35978835978838 155.13227513227514,148.99470899470901 154.7089947089947,149.41798941798942 154.2857142857143,150.05291005291005 154.07407407407408,150.6878306878307 153.65079365079367,151.32275132275134 153.22751322751324,151.95767195767198 153.01587301587304,152.5925925925926 152.5925925925926,153.01587301587304 152.38095238095238,153.65079365079367 151.95767195767198,154.07407407407408 151.74603174603175,154.7089947089947 151.32275132275134,155.34391534391534 150.8994708994709,155.978835978836 150.6878306878307,156.61375661375664 150.26455026455028,157.24867724867727 149.84126984126985,157.8835978835979 149.62962962962965,158.51851851851853 149.20634920634922,158.94179894179896 148.78306878306879,159.5767195767196 148.57142857142858,160.21164021164023 148.14814814814815,160.84656084656086 147.72486772486775,161.4814814814815 147.30158730158732,162.11640211640213 146.8783068783069,162.75132275132276 146.66666666666669,163.3862433862434 146.24338624338625,163.80952380952382 146.03174603174605,164.44444444444446 146.03174603174605,165.0793650793651 145.60846560846562,165.50264550264552 145.39682539682542,166.13756613756615 144.973544973545,166.56084656084658 144.55026455026456,167.19576719576722 144.33862433862436,167.83068783068785 143.91534391534393,168.25396825396825 143.70370370370372,168.8888888888889 143.2804232804233,169.31216931216932 143.0687830687831,169.94708994708995 142.64550264550266,170.37037037037038 142.43386243386246,171.005291005291 142.01058201058203,171.64021164021165 141.5873015873016,172.27513227513228 141.16402116402116,172.9100529100529 140.74074074074076,173.54497354497354 140.52910052910053,174.1798941798942 140.10582010582013,174.6031746031746 139.6825396825397,175.23809523809524 139.47089947089947,175.87301587301587 139.04761904761907,176.2962962962963 138.83597883597884,176.93121693121694 138.41269841269843,177.56613756613757 137.989417989418,178.2010582010582 137.56613756613757,178.83597883597884 137.14285714285717,179.4708994708995 136.93121693121694,180.10582010582013 135.02645502645504,183.2804232804233" style="fill:none; stroke:#999900; stroke-width:3.0" stroke-dasharray="6,3" /><polyline points="135.02645502645504,183.2804232804233 132.27513227513228,180.95238095238096 131.64021164021165,180.52910052910053 131.005291005291,180.10582010582013 130.58201058201058,179.6825396825397 129.94708994708995,179.25925925925927 129.52380952380955,178.83597883597884 129.10052910052912,178.41269841269843 128.46560846560848,177.989417989418 128.04232804232805,177.56613756613757 127.61904761904763,177.14285714285717 126.98412698412699,176.71957671957674 126.34920634920636,176.2962962962963 125.92592592592594,175.87301587301587 125.2910052910053,175.44973544973547 124.86772486772487,175.02645502645504 124.23280423280424,174.6031746031746 123.59788359788361,174.1798941798942 123.17460317460318,173.75661375661377 122.53968253968254,173.33333333333334 121.90476190476191,172.9100529100529 121.4814814814815,172.4867724867725 120.84656084656086,172.06349206349208 120.21164021164022,171.85185185185188 119.7883597883598,171.42857142857144 119.15343915343917,171.005291005291 118.73015873015873,170.58201058201058 118.0952380952381,170.15873015873018 117.67195767195768,169.73544973544975 117.03703703703705,169.31216931216932 116.4021164021164,168.8888888888889 115.97883597883599,168.46560846560848 115.55555555555557,168.04232804232805 114.92063492063492,167.61904761904762 114.28571428571429,167.19576719576722 113.65079365079366,166.7724867724868 113.22751322751324,166.34920634920636 112.5925925925926,165.92592592592595 112.16931216931218,165.50264550264552 111.53439153439155,165.0793650793651 110.89947089947091,164.8677248677249 110.26455026455027,164.65608465608466 109.84126984126985,164.23280423280426 109.20634920634922,163.80952380952382 108.78306878306879,163.3862433862434 108.14814814814815,163.1746031746032 107.72486772486774,162.75132275132276 107.0899470899471,162.32804232804233 106.45502645502647,162.11640211640213 106.03174603174604,161.6931216931217 105.3968253968254,161.4814814814815 104.76190476190477,161.05820105820106 104.12698412698414,160.84656084656086 103.70370370370371,160.42328042328043 103.06878306878308,160.21164021164023 102.43386243386244,160.0 101.79894179894181,159.7883597883598 101.16402116402116,159.5767195767196 100.52910052910053,159.36507936507937 99.8941798941799,159.15343915343917 99.25925925925927,158.94179894179896 98.62433862433863,158.73015873015873 97.989417989418,158.73015873015873 97.35449735449737,158.51851851851853 96.71957671957672,158.51851851851853 96.08465608465609,158.30687830687833 95.44973544973546,158.30687830687833 94.81481481481482,158.30687830687833 94.17989417989419,158.30687830687833 93.54497354497356,158.30687830687833 92.91005291005291,158.30687830687833 92.27513227513228,158.51851851851853 91.64021164021165,158.73015873015873 91.00529100529101,158.94179894179896 90.37037037037038,159.15343915343917 89.94708994708995,159.5767195767196 89.31216931216932,160.0 88.8888888888889,160.63492063492066 88.46560846560847,161.05820105820106 88.04232804232805,161.4814814814815 87.83068783068784,162.11640211640213 87.61904761904762,162.75132275132276 87.1957671957672,163.3862433862434 87.1957671957672,164.02116402116403 86.98412698412699,164.65608465608466 87.1957671957672,165.2910052910053 87.1957671957672,165.92592592592595 87.1957671957672,166.56084656084658 87.1957671957672,167.19576719576722 87.1957671957672,167.83068783068785 87.1957671957672,168.46560846560848 87.40740740740742,169.10052910052912 87.40740740740742,169.73544973544975 87.61904761904762,170.37037037037038 87.61904761904762,171.005291005291 87.61904761904762,171.64021164021165 87.83068783068784,172.27513227513228 88.04232804232805,172.9100529100529 88.04232804232805,173.54497354497354 88.25396825396827,174.1798941798942 88.46560846560847,174.81481481481484 88.67724867724868,175.44973544973547 88.8888888888889,176.0846560846561 89.1005291005291,176.71957671957674 89.1005291005291,177.35449735449737 89.1005291005291,177.989417989418 89.1005291005291,178.62433862433863 89.31216931216932,179.25925925925927 89.31216931216932,179.8941798941799 89.31216931216932,180.52910052910053 89.1005291005291,181.16402116402116 89.1005291005291,181.79894179894183 89.1005291005291,182.43386243386246 88.8888888888889,183.0687830687831 88.8888888888889,183.70370370370372 88.67724867724868,184.33862433862436 88.46560846560847,184.973544973545 88.25396825396827,185.60846560846562 88.04232804232805,186.24338624338625 87.61904761904762,186.8783068783069 87.40740740740742,187.51322751322752 86.98412698412699,188.14814814814815 86.56084656084657,188.78306878306879 86.13756613756614,189.41798941798945 85.71428571428572,189.84126984126985 85.29100529100529,190.26455026455028 84.86772486772487,190.6878306878307 84.44444444444446,191.11111111111111 83.80952380952381,191.32275132275134 83.17460317460318,191.53439153439155 82.53968253968254,191.74603174603175 81.90476190476191,191.95767195767198 81.26984126984128,192.16931216931218 80.63492063492065,192.16931216931218 80.0,192.3809523809524 79.36507936507937,192.3809523809524 78.73015873015873,192.3809523809524 78.0952380952381,192.3809523809524 77.46031746031747,192.3809523809524 76.82539682539684,192.3809523809524 76.19047619047619,192.3809523809524 75.55555555555556,192.3809523809524 74.92063492063492,192.3809523809524 74.28571428571429,192.16931216931218 73.65079365079366,192.16931216931218 73.01587301587303,191.95767195767198 72.38095238095238,191.74603174603175 71.74603174603175,191.74603174603175 71.11111111111111,191.53439153439155 70.47619047619048,191.53439153439155 69.84126984126985,191.32275132275134 69.20634920634922,191.11111111111111 68.57142857142858,191.11111111111111 67.93650793650794,190.8994708994709 67.3015873015873,190.6878306878307 66.66666666666667,190.47619047619048 66.03174603174604,190.26455026455028 65.3968253968254,190.05291005291008 64.76190476190477,189.84126984126985 64.12698412698413,189.62962962962965 63.492063492063494,189.41798941798945 62.85714285714286,188.99470899470901 62.22222222222223,188.78306878306879 61.58730158730159,188.57142857142858 60.952380952380956,188.14814814814815 60.31746031746032,187.93650793650795 59.682539682539684,187.51322751322752 59.04761904761905,187.08994708994712 58.41269841269842,186.66666666666669 57.777777777777786,186.24338624338625 57.35449735449736,185.82010582010582 56.93121693121694,185.39682539682542 56.2962962962963,184.973544973545 55.87301587301588,184.55026455026456 55.449735449735456,184.12698412698415 55.02645502645503,183.4920634920635 54.60317460317461,182.85714285714286 54.39153439153439,182.22222222222223 54.179894179894184,181.5873015873016 53.968253968253975,180.95238095238096 53.75661375661376,180.31746031746033 53.54497354497355,179.6825396825397 53.54497354497355,179.04761904761907 53.333333333333336,178.41269841269843 53.333333333333336,177.7777777777778 53.333333333333336,177.14285714285717 53.333333333333336,176.50793650793653 53.333333333333336,175.87301587301587 53.333333333333336,175.23809523809524 53.333333333333336,174.6031746031746 53.54497354497355,173.96825396825398 53.54497354497355,173.33333333333334 53.75661375661376,172.6984126984127 53.75661375661376,172.06349206349208 53.968253968253975,171.42857142857144 54.179894179894184,170.7936507936508 54.39153439153439,170.15873015873018 54.39153439153439,169.52380952380955 54.81481481481482,168.8888888888889 55.02645502645503,168.25396825396825 55.23809523809524,167.61904761904762 55.449735449735456,166.984126984127 55.661375661375665,166.34920634920636 55.87301587301588,165.71428571428572 56.08465608465609,165.0793650793651 56.2962962962963,164.44444444444446 56.50793650793651,163.80952380952382 56.93121693121694,163.1746031746032 57.142857142857146,162.53968253968256 57.35449735449736,161.90476190476193 57.56613756613757,161.2698412698413 57.777777777777786,160.63492063492066 58.2010582010582,160.0 58.41269841269842,159.36507936507937 58.83597883597884,158.73015873015873 58.83597883597884,158.0952380952381 59.04761904761905,157.46031746031747 59.25925925925927,156.82539682539684 59.470899470899475,156.1904761904762 59.682539682539684,155.55555555555557 59.8941798941799,154.92063492063494 59.8941798941799,154.2857142857143 59.8941798941799,153.65079365079367 59.8941798941799,153.01587301587304 59.8941798941799,152.38095238095238 59.8941798941799,151.74603174603175 59.682539682539684,151.11111111111111 59.470899470899475,150.47619047619048 59.25925925925927,149.84126984126985 59.04761904761905,149.20634920634922 58.62433862433863,148.78306878306879 58.41269841269842,148.14814814814815 57.989417989417994,147.51322751322752 57.56613756613757,146.8783068783069 57.142857142857146,146.24338624338625 56.71957671957672,145.60846560846562 56.2962962962963,144.973544973545 55.87301587301588,144.55026455026456 55.449735449735456,143.91534391534393 55.02645502645503,143.4920634920635 54.60317460317461,143.0687830687831 54.179894179894184,142.64550264550266 53.75661375661376,142.22222222222223 53.333333333333336,141.7989417989418 52.91005291005291,141.3756613756614 52.27513227513228,140.95238095238096 51.640211640211646,140.52910052910053 51.00529100529101,140.10582010582013 50.370370370370374,139.6825396825397 49.73544973544974,139.25925925925927 49.1005291005291,139.04761904761907 48.46560846560847,138.62433862433863 47.830687830687836,138.41269841269843 47.195767195767196,137.989417989418 46.560846560846564,137.7777777777778 45.92592592592593,137.35449735449737 45.29100529100529,137.14285714285717 44.65608465608466,136.93121693121694 44.021164021164026,136.71957671957674 43.386243386243386,136.5079365079365 42.75132275132275,136.2962962962963 42.11640211640212,136.0846560846561 41.48148148148149,135.66137566137567 40.84656084656085,135.66137566137567 40.211640211640216,135.44973544973547 39.57671957671958,135.23809523809524 38.94179894179894,134.81481481481484 38.30687830687831,134.6031746031746 37.67195767195768,134.3915343915344 37.03703703703704,134.17989417989418 36.402116402116405,133.96825396825398 35.76719576719577,133.75661375661377 35.34391534391535,133.33333333333334 34.70899470899471,133.12169312169314 34.074074074074076,132.9100529100529 33.43915343915344,132.6984126984127 32.804232804232804,132.4867724867725 32.16931216931217,132.06349206349208 31.53439153439154,131.85185185185185 30.899470899470902,131.64021164021165 30.264550264550266,131.42857142857144 29.629629629629633,131.005291005291 28.994708994708997,130.7936507936508 28.35978835978836,130.58201058201058 27.724867724867728,130.37037037037038 27.089947089947092,130.15873015873018 26.455026455026456,129.94708994708995 25.820105820105823,129.52380952380955 25.185185185185187,129.31216931216932 24.55026455026455,129.10052910052912 23.915343915343918,128.88888888888889 23.280423280423282,128.46560846560848 22.645502645502646,128.25396825396825 22.010582010582013,128.04232804232805 21.375661375661377,127.83068783068784 20.740740740740744,127.40740740740742 20.105820105820108,127.1957671957672 19.47089947089947,126.98412698412699 18.83597883597884,126.77248677248679 18.201058201058203,126.34920634920636 17.566137566137566,126.13756613756615 16.931216931216934,125.92592592592594 16.296296296296298,125.71428571428572 15.661375661375663,125.2910052910053 15.026455026455027,125.07936507936509 14.391534391534393,124.86772486772487 13.756613756613758,124.44444444444446 13.121693121693122,124.23280423280424 12.486772486772487,124.02116402116403 11.851851851851853,123.80952380952382 11.216931216931219,123.3862433862434 10.582010582010582,123.17460317460318 9.947089947089948,122.96296296296298 9.312169312169313,122.75132275132276 8.677248677248677,122.32804232804234 8.042328042328043,122.11640211640213 7.407407407407408,121.90476190476191 6.772486772486773,121.6931216931217 6.137566137566138,121.6931216931217 5.502645502645503,121.4814814814815 4.867724867724868,121.26984126984128 4.2328042328042335,121.05820105820106 3.597883597883598,120.84656084656086 2.9629629629629632,120.42328042328043 -0.21164021164021166,119.15343915343917" style="fill:none; stroke:#00aa99; stroke-width:1.0"  /><polyline points="-0.21164021164021166,119.15343915343917 1.6931216931216932,116.1904761904762 2.1164021164021167,115.55555555555557 2.53968253968254,114.92063492063492 2.9629629629629632,114.28571428571429 3.3862433862433865,113.65079365079366 3.8095238095238098,113.01587301587303 4.2328042328042335,112.3809523809524 4.656084656084657,111.74603174603176 4.867724867724868,111.11111111111111 5.291005291005291,110.6878306878307 5.714285714285714,110.26455026455027 6.137566137566138,109.62962962962963 6.34920634920635,108.994708994709 6.772486772486773,108.57142857142858 7.195767195767196,107.93650793650795 7.6190476190476195,107.3015873015873 8.042328042328043,106.66666666666667 8.465608465608467,106.24338624338625 8.88888888888889,105.60846560846562 9.312169312169313,105.18518518518519 9.735449735449736,104.55026455026456 10.15873015873016,103.91534391534393 10.582010582010582,103.4920634920635 11.005291005291006,103.06878306878308 11.428571428571429,102.43386243386244 11.851851851851853,101.79894179894181 12.275132275132275,101.37566137566138 12.6984126984127,100.95238095238096 13.121693121693122,100.31746031746033 13.544973544973546,99.68253968253968 13.96825396825397,99.25925925925927 14.391534391534393,98.83597883597885 14.814814814814817,98.2010582010582 15.238095238095239,97.77777777777779 15.661375661375663,97.35449735449737 15.873015873015873,96.71957671957672 16.296296296296298,96.2962962962963 16.71957671957672,95.87301587301587 17.142857142857146,95.44973544973546 17.354497354497354,94.81481481481482 17.77777777777778,94.39153439153439 18.201058201058203,93.96825396825398 18.624338624338627,93.54497354497356 19.047619047619047,93.12169312169313 19.47089947089947,92.69841269841271 19.894179894179896,92.27513227513228 20.31746031746032,91.85185185185186 20.740740740740744,91.42857142857143 21.164021164021165,91.00529100529101 21.58730158730159,90.58201058201058 22.010582010582013,90.15873015873017 22.645502645502646,89.73544973544975 23.06878306878307,89.31216931216932 23.492063492063494,88.8888888888889 23.915343915343918,88.46560846560847 24.55026455026455,88.04232804232805 24.973544973544975,87.61904761904762 25.3968253968254,87.1957671957672 26.031746031746035,86.77248677248677 26.455026455026456,86.34920634920636 26.87830687830688,85.92592592592594 27.301587301587304,85.5026455026455 27.724867724867728,85.07936507936509 28.14814814814815,84.65608465608466 28.571428571428573,84.23280423280424 28.994708994708997,83.80952380952381 29.41798941798942,83.3862433862434 29.841269841269842,82.96296296296298 30.264550264550266,82.32804232804233 30.68783068783069,81.6931216931217 30.899470899470902,81.05820105820106 31.322751322751326,80.42328042328043 31.53439153439154,79.7883597883598 31.746031746031747,79.15343915343917 31.95767195767196,78.51851851851852 31.95767195767196,77.88359788359789 32.16931216931217,77.24867724867725 32.16931216931217,76.61375661375662 32.16931216931217,75.97883597883599 32.16931216931217,75.34391534391536 31.95767195767196,74.70899470899471 31.746031746031747,74.07407407407408 31.322751322751326,73.43915343915344 31.111111111111114,72.80423280423281 30.68783068783069,72.38095238095238 30.264550264550266,71.95767195767196 29.841269841269842,71.32275132275133 29.41798941798942,70.8994708994709 28.994708994708997,70.47619047619048 28.35978835978836,70.05291005291006 27.724867724867728,69.62962962962963 27.089947089947092,69.20634920634922 26.455026455026456,68.994708994709 25.820105820105823,68.78306878306879 25.185185185185187,68.57142857142858 24.55026455026455,68.57142857142858 23.915343915343918,68.35978835978837 23.280423280423282,68.35978835978837 22.645502645502646,68.14814814814815 22.010582010582013,68.14814814814815 21.375661375661377,68.14814814814815 20.740740740740744,68.14814814814815 20.105820105820108,68.14814814814815 19.47089947089947,68.14814814814815 18.83597883597884,67.93650793650794 18.201058201058203,67.93650793650794 17.566137566137566,67.72486772486774 16.931216931216934,67.51322751322752 16.296296296296298,67.3015873015873 15.661375661375663,67.08994708994709 15.026455026455027,66.87830687830689 14.391534391534393,66.66666666666667 13.756613756613758,66.24338624338625 13.121693121693122,66.03174603174604 12.486772486772487,65.60846560846561 11.851851851851853,65.18518518518519 11.216931216931219,64.76190476190477 10.582010582010582,64.55026455026456 10.15873015873016,64.12698412698413 9.523809523809524,63.70370370370371 9.100529100529101,63.280423280423285 8.677248677248677,62.85714285714286 8.253968253968255,62.22222222222223 7.830687830687832,61.58730158730159 7.407407407407408,60.952380952380956 7.195767195767196,60.31746031746032 6.772486772486773,59.8941798941799 6.560846560846561,59.25925925925927 6.560846560846561,58.62433862433863 6.34920634920635,57.989417989417994 6.34920634920635,57.35449735449736 6.34920634920635,56.71957671957672 6.34920634920635,56.08465608465609 6.34920634920635,55.449735449735456 6.34920634920635,54.81481481481482 6.34920634920635,54.179894179894184 6.560846560846561,53.54497354497355 6.560846560846561,52.91005291005291 6.560846560846561,52.27513227513228 6.772486772486773,51.640211640211646 6.984126984126985,51.00529100529101 6.984126984126985,50.370370370370374 7.195767195767196,49.73544973544974 7.407407407407408,49.1005291005291 7.6190476190476195,48.46560846560847 7.830687830687832,47.830687830687836 7.830687830687832,47.195767195767196 8.253968253968255,46.560846560846564 8.465608465608467,45.92592592592593 8.677248677248677,45.29100529100529 8.88888888888889,44.65608465608466 9.312169312169313,44.021164021164026 9.523809523809524,43.386243386243386 9.947089947089948,42.75132275132275 10.370370370370372,42.11640211640212 10.793650793650794,41.48148148148149 11.005291005291006,40.84656084656085 11.428571428571429,40.211640211640216 11.851851851851853,39.57671957671958 12.275132275132275,38.94179894179894 12.6984126984127,38.30687830687831 13.121693121693122,37.883597883597886 13.544973544973546,37.46031746031746 13.96825396825397,37.03703703703704 14.391534391534393,36.613756613756614 14.814814814814817,35.97883597883598 15.238095238095239,35.55555555555556 15.873015873015873,35.13227513227513 16.296296296296298,34.70899470899471 16.71957671957672,34.28571428571429 17.354497354497354,34.074074074074076 17.98941798941799,33.65079365079365 18.624338624338627,33.65079365079365 19.25925925925926,33.43915343915344 19.682539682539684,33.01587301587302 20.31746031746032,32.804232804232804 20.952380952380953,33.01587301587302 21.58730158730159,33.01587301587302 22.222222222222225,33.01587301587302 22.857142857142858,32.804232804232804 23.492063492063494,33.01587301587302 24.12698412698413,33.01587301587302 24.761904761904763,33.22751322751323 25.3968253968254,33.22751322751323 26.031746031746035,33.22751322751323 26.455026455026456,33.65079365079365 26.87830687830688,34.074074074074076 27.513227513227516,34.28571428571429 28.14814814814815,34.4973544973545 28.783068783068785,34.920634920634924 29.41798941798942,35.34391534391535 30.052910052910054,35.76719576719577 30.68783068783069,36.19047619047619 31.111111111111114,36.613756613756614 31.746031746031747,37.03703703703704 32.16931216931217,37.46031746031746 32.804232804232804,37.883597883597886 33.43915343915344,38.30687830687831 33.86243386243387,38.730158730158735 34.28571428571429,39.36507936507937 34.70899470899471,39.78835978835979 35.13227513227513,40.211640211640216 35.55555555555556,40.63492063492064 35.97883597883598,41.26984126984127 36.402116402116405,41.6931216931217 36.82539682539683,42.11640211640212 37.248677248677254,42.539682539682545 37.67195767195768,43.17460317460318 38.095238095238095,43.5978835978836 38.51851851851852,44.021164021164026 38.94179894179894,44.44444444444445 39.36507936507937,44.867724867724874 39.78835978835979,45.29100529100529 40.211640211640216,45.714285714285715 40.84656084656085,46.13756613756614 41.48148148148149,46.349206349206355 42.11640211640212,46.560846560846564 42.539682539682545,47.195767195767196 43.17460317460318,47.195767195767196 43.80952380952381,47.40740740740741 44.44444444444445,47.61904761904762 45.07936507936508,47.61904761904762 45.714285714285715,47.61904761904762 46.349206349206355,47.61904761904762 46.98412698412699,47.61904761904762 47.61904761904762,47.40740740740741 48.25396825396826,47.195767195767196 48.88888888888889,46.98412698412699 49.523809523809526,46.560846560846564 49.94708994708995,46.13756613756614 50.370370370370374,45.714285714285715 50.7936507936508,45.29100529100529 51.21693121693122,44.867724867724874 51.640211640211646,44.232804232804234 52.06349206349207,43.5978835978836 52.27513227513228,42.96296296296297 52.6984126984127,42.32804232804233 52.91005291005291,41.6931216931217 53.12169312169313,41.058201058201064 53.12169312169313,40.423280423280424 53.333333333333336,39.78835978835979 53.54497354497355,39.15343915343916 53.75661375661376,38.51851851851852 53.968253968253975,37.883597883597886 54.179894179894184,37.248677248677254 54.39153439153439,36.613756613756614 54.60317460317461,35.97883597883598 54.81481481481482,35.34391534391535 55.02645502645503,34.70899470899471 55.23809523809524,34.074074074074076 55.449735449735456,33.43915343915344 55.661375661375665,32.804232804232804 55.87301587301588,32.16931216931217 56.08465608465609,31.53439153439154 56.2962962962963,30.899470899470902 56.50793650793651,30.264550264550266 56.71957671957672,29.629629629629633 57.142857142857146,28.994708994708997 57.35449735449736,28.35978835978836 57.56613756613757,27.724867724867728 57.989417989417994,27.089947089947092 58.2010582010582,26.455026455026456 58.41269841269842,25.820105820105823 58.83597883597884,25.185185185185187 58.83597883597884,24.55026455026455 59.04761904761905,23.915343915343918 59.470899470899475,23.280423280423282 59.682539682539684,22.645502645502646 60.10582010582011,22.010582010582013 60.31746031746032,21.375661375661377 60.74074074074075,20.740740740740744 60.952380952380956,20.105820105820108 61.37566137566138,19.47089947089947 61.58730158730159,18.83597883597884 62.01058201058201,18.412698412698415 62.22222222222223,17.77777777777778 62.64550264550265,17.142857142857146 62.85714285714286,16.50793650793651 63.280423280423285,16.084656084656086 63.492063492063494,15.449735449735451 63.91534391534392,14.814814814814817 64.33862433862434,14.17989417989418 64.76190476190477,13.544973544973546 65.18518518518519,12.910052910052912 65.3968253968254,12.275132275132275 65.82010582010582,11.640211640211641 66.24338624338625,11.005291005291006 66.66666666666667,10.582010582010582 66.87830687830689,9.947089947089948 67.3015873015873,9.523809523809524 67.72486772486774,8.88888888888889 68.14814814814815,8.253968253968255 68.57142857142858,7.6190476190476195 68.994708994709,6.984126984126985 69.41798941798942,6.34920634920635 69.84126984126985,5.714285714285714 70.26455026455027,5.291005291005291 70.6878306878307,4.656084656084657 71.11111111111111,4.021164021164021 71.53439153439155,3.3862433862433865 71.95767195767196,2.7513227513227516 74.07407407407408,-0.4232804232804233" style="fill:none; stroke:#3300bb; stroke-width:1.0"  /><circle cx="74.07407407407408" cy="-0.4232804232804233" r="2.0" style="fill:none; stroke:#000000aa; stroke-width:0.25" /><circle cx="199.36507936507937" cy="73.01587301587303" r="2.0" style="fill:none; stroke:#000000aa; stroke-width:0.25" /><circle cx="135.02645502645504" cy="183.2804232804233" r="2.0" style="fill:none; stroke:#000000aa; stroke-width:0.25" /><circle cx="-0.21164021164021166" cy="119.15343915343917" r="2.0" style="fill:none; stroke:#000000aa; stroke-width:0.25" /><circle cx="74.07407407407408" cy="0.21164021164021166" r="2.0" style="fill:none; stroke:#ff3366aa; stroke-width:0.25" /><circle cx="199.15343915343917" cy="73.86243386243387" r="2.0" style="fill:none; stroke:#ff3366aa; stroke-width:0.25" /><circle cx="135.23809523809524" cy="182.85714285714286" r="2.0" style="fill:none; stroke:#ff3366aa; stroke-width:0.25" /><circle cx="0.21164021164021166" cy="119.15343915343917" r="2.0" style="fill:none; stroke:#ff3366aa; stroke-width:0.25" /><polyline points="84.44444444444446,5.714285714285714 83.80952380952381,5.502645502645503 83.17460317460318,5.07936507936508 82.53968253968254,4.867724867724868 82.11640211640213,4.444444444444445 81.48148148148148,4.021164021164021 80.84656084656085,3.597883597883598 80.21164021164022,3.3862433862433865 79.7883597883598,2.9629629629629632 79.15343915343917,2.7513227513227516 78.51851851851852,2.3280423280423284 77.88359788359789,1.9047619047619049 77.24867724867725,1.4814814814814816" style="fill:none; stroke:#001100; stroke-width:1.0" /><polyline points="67.3015873015873,9.523809523809524 67.72486772486774,8.88888888888889 68.14814814814815,8.253968253968255 68.57142857142858,7.6190476190476195 68.994708994709,6.984126984126985 69.41798941798942,6.34920634920635 69.84126984126985,5.714285714285714 70.26455026455027,5.291005291005291 70.6878306878307,4.656084656084657 71.11111111111111,4.021164021164021 71.53439153439155,3.3862433862433865 71.95767195767196,2.7513227513227516" style="fill:none; stroke:#000011; stroke-width:1.0" /><polyline points="193.01587301587304,84.02116402116403 193.22751322751324,83.3862433862434 193.65079365079367,82.96296296296298 193.86243386243387,82.32804232804233 194.2857142857143,81.90476190476191 194.4973544973545,81.26984126984128 194.92063492063494,80.84656084656085 195.13227513227514,80.21164021164022 195.55555555555557,79.7883597883598 195.978835978836,79.15343915343917 196.1904761904762,78.51851851851852 196.61375661375664,78.0952380952381 196.82539682539684,77.46031746031747 197.24867724867727,76.82539682539684" style="fill:none; stroke:#001100; stroke-width:1.0" /><polyline points="189.41798941798945,67.51322751322752 189.84126984126985,67.93650793650794 190.47619047619048,68.14814814814815 191.11111111111111,68.57142857142858 191.74603174603175,68.78306878306879 192.3809523809524,69.20634920634922 193.01587301587304,69.41798941798942 193.43915343915344,69.84126984126985 194.07407407407408,70.05291005291006 194.4973544973545,70.47619047619048 195.13227513227514,70.6878306878307 195.76719576719577,71.11111111111111 196.4021164021164,71.32275132275133 197.03703703703704,71.74603174603175" style="fill:none; stroke:#000011; stroke-width:1.0" /><polyline points="125.92592592592594,175.87301587301587 126.34920634920636,176.2962962962963 126.98412698412699,176.71957671957674 127.61904761904763,177.14285714285717 128.04232804232805,177.56613756613757 128.46560846560848,177.989417989418 129.10052910052912,178.41269841269843 129.52380952380955,178.83597883597884 129.94708994708995,179.25925925925927 130.58201058201058,179.6825396825397 131.005291005291,180.10582010582013 131.64021164021165,180.52910052910053 132.27513227513228,180.95238095238096" style="fill:none; stroke:#001100; stroke-width:1.0" /><polyline points="141.16402116402116,172.9100529100529 140.74074074074076,173.54497354497354 140.52910052910053,174.1798941798942 140.10582010582013,174.6031746031746 139.6825396825397,175.23809523809524 139.47089947089947,175.87301587301587 139.04761904761907,176.2962962962963 138.83597883597884,176.93121693121694 138.41269841269843,177.56613756613757 137.989417989418,178.2010582010582 137.56613756613757,178.83597883597884 137.14285714285717,179.4708994708995 136.93121693121694,180.10582010582013" style="fill:none; stroke:#000011; stroke-width:1.0" /><polyline points="6.34920634920635,108.994708994709 6.137566137566138,109.62962962962963 5.714285714285714,110.26455026455027 5.291005291005291,110.6878306878307 4.867724867724868,111.11111111111111 4.656084656084657,111.74603174603176 4.2328042328042335,112.3809523809524 3.8095238095238098,113.01587301587303 3.3862433862433865,113.65079365079366 2.9629629629629632,114.28571428571429 2.53968253968254,114.92063492063492 2.1164021164021167,115.55555555555557 1.6931216931216932,116.1904761904762" style="fill:none; stroke:#001100; stroke-width:1.0" /><polyline points="11.216931216931219,123.3862433862434 10.582010582010582,123.17460317460318 9.947089947089948,122.96296296296298 9.312169312169313,122.75132275132276 8.677248677248677,122.32804232804234 8.042328042328043,122.11640211640213 7.407407407407408,121.90476190476191 6.772486772486773,121.6931216931217 6.137566137566138,121.6931216931217 5.502645502645503,121.4814814814815 4.867724867724868,121.26984126984128 4.2328042328042335,121.05820105820106 3.597883597883598,120.84656084656086 2.9629629629629632,120.42328042328043" style="fill:none; stroke:#000011; stroke-width:1.0" /><polyline points="77.24867724867725,1.4814814814814816 59.04761904761905,-9.312169312169313" style="fill:none; stroke:#ffaa00; stroke-width:0.4" /><polyline points="71.95767195767196,2.7513227513227516 84.02116402116403,-14.603174603174605" style="fill:none; stroke:#aaff00; stroke-width:0.4" /><polyline points="197.24867724867727,76.82539682539684 208.04232804232805,58.62433862433863" style="fill:none; stroke:#ffaa00; stroke-width:0.4" /><polyline points="197.03703703703704,71.74603174603175 215.44973544973547,82.11640211640213" style="fill:none; stroke:#aaff00; stroke-width:0.4" /><polyline points="132.27513227513228,180.95238095238096 148.78306878306879,194.07407407407408" style="fill:none; stroke:#ffaa00; stroke-width:0.4" /><polyline points="136.93121693121694,180.10582010582013 126.13756613756615,198.30687830687833" style="fill:none; stroke:#aaff00; stroke-width:0.4" /><polyline points="1.6931216931216932,116.1904761904762 -9.735449735449736,133.96825396825398" style="fill:none; stroke:#ffaa00; stroke-width:0.4" /><polyline points="2.9629629629629632,120.42328042328043 -16.931216931216934,113.22751322751324" style="fill:none; stroke:#aaff00; stroke-width:0.4" /><circle cx="95.87301587301587" cy="99.47089947089948" r="1.0" style="fill:#444444; stroke-width:0" /><circle cx="118.73015873015873" cy="115.76719576719577" r="10.582010582010582" style="fill:#ff770022; stroke-width:0" /><circle cx="118.73015873015873" cy="115.76719576719577" r="1.0" style="fill:#ff7700; stroke-width:0" /></svg>