<?xml version="1.0" encoding="UTF-8" standalone="no"?><svg width="429.8412698412699" height="580.3174603174604" viewBox="-10 -10 163.2804232804233 213.43915343915344" xmlns="http://www.w3.org/2000/svg" xmlns:xlink="http://www.w3.org/1999/xlink"><polyline points="52.91005291005291,9.312169312169313 56.2962962962963,11.216931216931219 56.93121693121694,11.428571428571429 57.56613756613757,11.851851851851853 58.2010582010582,12.063492063492065 58.62433862433863,12.486772486772487 59.25925925925927,12.6984126984127 59.8941798941799,13.121693121693122 60.52910052910053,13.544973544973546 61.16402116402117,13.756613756613758 61.798941798941804,13.96825396825397 62.22222222222223,14.391534391534393 62.85714285714286,14.814814814814817 63.492063492063494,15.238095238095239 63.91534391534392,15.661375661375663 64.55026455026456,16.084656084656086 65.18518518518519,16.50793650793651 65.82010582010582,16.71957671957672 66.24338624338625,17.142857142857146 66.87830687830689,17.566137566137566 67.51322751322752,17.98941798941799 67.93650793650794,18.412698412698415 68.35978835978837,18.83597883597884 68.78306878306879,19.25925925925926 69.20634920634922,19.682539682539684 69.62962962962963,20.31746031746032 70.05291005291006,20.740740740740744 70.47619047619048,21.375661375661377 70.8994708994709,21.7989417989418 71.32275132275133,22.433862433862437 71.74603174603175,23.06878306878307 72.16931216931218,23.492063492063494 72.5925925925926,23.915343915343918 73.01587301587303,24.55026455026455 73.43915343915344,25.185185185185187 73.86243386243387,25.60846560846561 74.49735449735451,26.031746031746035 74.92063492063492,26.455026455026456 75.34391534391536,26.87830687830688 75.97883597883599,27.301587301587304 76.4021164021164,27.724867724867728 77.03703703703704,28.14814814814815 77.67195767195767,28.35978835978836 78.30687830687832,28.783068783068785 78.94179894179895,28.994708994708997 79.57671957671958,29.41798941798942 80.21164021164022,29.629629629629633 80.84656084656085,29.841269841269842 81.48148148148148,30.052910052910054 82.11640211640213,30.264550264550266 82.75132275132276,30.476190476190478 83.3862433862434,30.68783068783069 84.02116402116403,30.68783068783069 84.65608465608466,30.899470899470902 85.29100529100529,30.899470899470902 85.92592592592594,31.111111111111114 86.56084656084657,31.111111111111114 87.1957671957672,31.111111111111114 87.83068783068784,31.111111111111114 88.46560846560847,31.111111111111114 89.1005291005291,31.111111111111114 89.73544973544975,30.899470899470902 90.37037037037038,30.899470899470902 91.00529100529101,30.68783068783069 91.64021164021165,30.68783068783069 92.27513227513228,30.476190476190478 92.91005291005291,30.264550264550266 93.54497354497356,30.052910052910054 94.17989417989419,29.841269841269842 94.81481481481482,29.629629629629633 95.23809523809524,29.20634920634921 95.66137566137567,28.783068783068785 96.2962962962963,28.571428571428573 96.71957671957672,28.14814814814815 97.14285714285715,27.724867724867728 97.56613756613757,27.301587301587304 97.989417989418,26.87830687830688 98.62433862433863,26.455026455026456 99.04761904761905,26.031746031746035 99.47089947089948,25.3968253968254 99.8941798941799,24.761904761904763 100.10582010582011,24.12698412698413 100.52910052910053,23.703703703703706 100.74074074074075,23.06878306878307 100.95238095238096,22.433862433862437 101.16402116402116,21.7989417989418 101.37566137566138,21.164021164021165 101.5873015873016,20.529100529100532 101.5873015873016,19.894179894179896 101.79894179894181,19.25925925925926 101.79894179894181,18.624338624338627 101.79894179894181,17.98941798941799 102.01058201058201,17.354497354497354 101.79894179894181,16.71957671957672 101.79894179894181,16.084656084656086 101.79894179894181,15.449735449735451 102.01058201058201,14.814814814814817 102.01058201058201,14.17989417989418 102.01058201058201,13.544973544973546 102.01058201058201,12.910052910052912 102.22222222222223,12.275132275132275 102.22222222222223,11.640211640211641 102.43386243386244,11.005291005291006 102.43386243386244,10.370370370370372 102.64550264550266,9.735449735449736 102.85714285714286,9.100529100529101 102.85714285714286,8.465608465608467 103.06878306878308,7.830687830687832 103.28042328042329,7.195767195767196 103.70370370370371,6.560846560846561 103.91534391534393,5.9259259259259265 104.33862433862434,5.291005291005291 104.76190476190477,4.656084656084657 105.18518518518519,4.021164021164021 105.60846560846562,3.597883597883598 106.03174603174604,3.174603174603175 106.45502645502647,2.7513227513227516 107.0899470899471,2.3280423280423284 107.72486772486774,1.9047619047619049 108.14814814814815,1.4814814814814816 108.78306878306879,1.4814814814814816 109.41798941798943,1.0582010582010584 110.05291005291006,0.8465608465608466 110.6878306878307,0.634920634920635 111.32275132275133,0.4232804232804233 111.95767195767196,0.21164021164021166 112.5925925925926,0.21164021164021166 113.22751322751324,0.21164021164021166 113.86243386243387,0.21164021164021166 114.49735449735451,0.4232804232804233 115.13227513227514,0.4232804232804233 115.76719576719577,0.4232804232804233 116.4021164021164,0.634920634920635 117.03703703703705,0.634920634920635 117.67195767195768,0.8465608465608466 118.30687830687832,1.0582010582010584 118.94179894179895,1.0582010582010584 119.57671957671958,1.4814814814814816 120.21164021164022,1.6931216931216932 120.84656084656086,1.9047619047619049 121.4814814814815,2.1164021164021167 122.11640211640213,2.3280423280423284 122.53968253968254,2.7513227513227516 123.17460317460318,2.9629629629629632 123.80952380952382,3.3862433862433865 124.44444444444446,3.8095238095238098 125.07936507936509,4.2328042328042335 125.71428571428572,4.444444444444445 126.13756613756615,4.867724867724868 126.56084656084657,5.291005291005291 127.1957671957672,5.714285714285714 127.61904761904763,6.137566137566138 128.04232804232805,6.560846560846561 128.46560846560848,6.984126984126985 128.88888888888889,7.6190476190476195 129.31216931216932,8.042328042328043 129.73544973544975,8.677248677248677 129.94708994708995,9.312169312169313 130.37037037037038,9.947089947089948 130.58201058201058,10.582010582010582 130.7936507936508,11.216931216931219 131.005291005291,11.851851851851853 131.005291005291,12.486772486772487 131.005291005291,13.121693121693122 131.005291005291,13.756613756613758 131.005291005291,14.391534391534393 131.005291005291,15.026455026455027 131.005291005291,15.661375661375663 130.7936507936508,16.296296296296298 130.7936507936508,16.931216931216934 130.58201058201058,17.566137566137566 130.58201058201058,18.201058201058203 130.15873015873018,18.83597883597884 129.94708994708995,19.47089947089947 129.52380952380955,20.105820105820108 128.88888888888889,20.105820105820108 128.46560846560848,20.529100529100532 128.67724867724868,21.164021164021165 128.25396825396825,21.58730158730159 127.61904761904763,21.58730158730159 127.1957671957672,22.010582010582013 126.98412698412699,22.645502645502646 126.56084656084657,23.06878306878307 125.92592592592594,23.492063492063494 125.5026455026455,23.915343915343918 125.07936507936509,24.338624338624342 124.65608465608466,24.761904761904763 124.65608465608466,25.3968253968254 124.23280423280424,26.031746031746035 123.59788359788361,26.455026455026456 122.96296296296298,26.87830687830688 122.32804232804234,27.301587301587304 121.6931216931217,27.724867724867728 121.26984126984128,28.14814814814815 120.84656084656086,28.571428571428573 120.21164021164022,28.994708994708997 119.7883597883598,29.41798941798942 119.36507936507937,29.841269841269842 118.94179894179895,30.264550264550266 118.51851851851853,30.899470899470902 118.30687830687832,31.53439153439154 117.88359788359789,32.16931216931217 117.46031746031747,32.592592592592595 117.24867724867725,33.22751322751323 117.03703703703705,33.86243386243387 116.61375661375662,34.4973544973545 116.4021164021164,35.13227513227513 116.1904761904762,35.76719576719577 115.97883597883599,36.402116402116405 115.97883597883599,37.03703703703704 115.97883597883599,37.67195767195768 115.76719576719577,38.30687830687831 115.76719576719577,38.94179894179894 115.76719576719577,39.57671957671958 115.76719576719577,40.211640211640216 115.76719576719577,40.84656084656085 115.97883597883599,41.48148148148149 115.97883597883599,42.11640211640212 116.1904761904762,42.75132275132275 116.4021164021164,43.386243386243386 116.82539682539684,44.021164021164026 117.03703703703705,44.65608465608466 117.46031746031747,45.29100529100529 117.88359788359789,45.92592592592593 118.30687830687832,46.349206349206355 118.73015873015873,46.77248677248678 119.15343915343917,47.195767195767196 119.57671957671958,47.61904761904762 120.00000000000001,48.042328042328045 120.63492063492065,48.46560846560847 121.05820105820106,48.88888888888889 121.6931216931217,49.31216931216932 122.32804232804234,49.73544973544974 122.96296296296298,50.158730158730165 123.59788359788361,50.370370370370374 124.02116402116403,50.7936507936508 124.65608465608466,51.00529100529101 125.2910052910053,51.42857142857143 125.92592592592594,51.640211640211646 126.56084656084657,52.06349206349207 127.1957671957672,52.27513227513228 127.83068783068784,52.48677248677249 128.46560846560848,52.6984126984127 129.10052910052912,53.12169312169313 129.73544973544975,53.333333333333336 130.37037037037038,53.54497354497355 131.005291005291,53.54497354497355 131.64021164021165,53.968253968253975 132.27513227513228,54.179894179894184 132.9100529100529,54.39153439153439 133.54497354497354,54.60317460317461 134.17989417989418,54.81481481481482 134.81481481481484,55.02645502645503 135.44973544973547,55.02645502645503 136.0846560846561,55.23809523809524 136.71957671957674,55.449735449735456 137.35449735449737,55.661375661375665 137.989417989418,55.661375661375665 138.62433862433863,55.87301587301588 139.25925925925927,56.08465608465609 139.8941798941799,56.2962962962963 142.85714285714286,57.142857142857146" style="fill:none; stroke:#cc0000; stroke-width:1.0"  /><polyline points="142.85714285714286,57.142857142857146 141.16402116402116,59.682539682539684 140.74074074074076,60.31746031746032 140.52910052910053,60.952380952380956 140.10582010582013,61.37566137566138 139.6825396825397,61.798941798941804 139.47089947089947,62.43386243386244 139.04761904761907,63.06878306878308 138.62433862433863,63.70370370370371 138.2010582010582,64.12698412698413 137.7777777777778,64.76190476190477 137.35449735449737,65.3968253968254 137.14285714285717,66.03174603174604 136.71957671957674,66.66666666666667 136.2962962962963,67.3015873015873 135.87301587301587,67.93650793650794 135.44973544973547,68.57142857142858 135.23809523809524,69.20634920634922 134.81481481481484,69.84126984126985 134.3915343915344,70.47619047619048 133.96825396825398,71.11111111111111 133.75661375661377,71.74603174603175 133.33333333333334,72.38095238095238 132.9100529100529,73.01587301587303 132.4867724867725,73.65079365079366 132.06349206349208,74.28571428571429 131.85185185185185,74.92063492063492 131.42857142857144,75.34391534391536 131.21693121693121,75.97883597883599 130.7936507936508,76.4021164021164 130.58201058201058,77.03703703703704 130.15873015873018,77.67195767195767 129.94708994708995,78.30687830687832 129.52380952380955,78.73015873015873 129.31216931216932,79.36507936507937 128.88888888888889,79.7883597883598 128.67724867724868,80.42328042328043 128.25396825396825,81.05820105820106 127.83068783068784,81.6931216931217 127.40740740740742,82.32804232804233 126.98412698412699,82.96296296296298 126.56084656084657,83.59788359788361 126.13756613756615,84.23280423280424 125.92592592592594,84.86772486772487 125.5026455026455,85.5026455026455 125.07936507936509,86.13756613756614 124.65608465608466,86.56084656084657 124.65608465608466,87.1957671957672 124.23280423280424,87.83068783068784 123.80952380952382,88.25396825396827 123.3862433862434,88.8888888888889 122.96296296296298,89.52380952380953 122.75132275132276,90.15873015873017 122.32804232804234,90.58201058201058 121.90476190476191,91.21693121693123 121.4814814814815,91.85185185185186 121.05820105820106,92.4867724867725 120.63492063492065,93.12169312169313 120.21164021164022,93.75661375661376 119.7883597883598,94.39153439153439 119.36507936507937,94.81481481481482 118.94179894179895,95.44973544973546 118.51851851851853,95.87301587301587 118.0952380952381,96.2962962962963 117.67195767195768,96.71957671957672 117.24867724867725,97.14285714285715 116.82539682539684,97.56613756613757 116.4021164021164,97.989417989418 115.76719576719577,98.2010582010582 115.13227513227514,98.62433862433863 114.49735449735451,98.83597883597885 113.86243386243387,99.04761904761905 113.22751322751324,99.04761904761905 112.5925925925926,99.04761904761905 111.95767195767196,99.04761904761905 111.32275132275133,98.83597883597885 110.89947089947091,98.41269841269842 110.26455026455027,97.989417989418 109.84126984126985,97.56613756613757 109.41798941798943,97.14285714285715 108.994708994709,96.71957671957672 108.78306878306879,96.08465608465609 108.35978835978837,95.66137566137567 108.14814814814815,95.02645502645504 107.93650793650795,94.39153439153439 107.51322751322752,93.75661375661376 107.3015873015873,93.12169312169313 107.0899470899471,92.4867724867725 106.87830687830689,91.85185185185186 106.66666666666667,91.21693121693123 106.45502645502647,90.58201058201058 106.24338624338625,89.94708994708995 106.03174603174604,89.31216931216932 105.82010582010582,88.67724867724868 105.60846560846562,88.04232804232805 105.3968253968254,87.40740740740742 104.97354497354497,86.77248677248677 104.76190476190477,86.13756613756614 104.55026455026456,85.5026455026455 104.33862433862434,84.86772486772487 104.12698412698414,84.23280423280424 103.70370370370371,83.59788359788361 103.4920634920635,82.96296296296298 103.06878306878308,82.32804232804233 102.85714285714286,81.6931216931217 102.43386243386244,81.26984126984128 102.01058201058201,80.63492063492065 101.5873015873016,80.21164021164022 101.16402116402116,79.57671957671958 100.74074074074075,78.94179894179895 100.31746031746033,78.51851851851852 99.8941798941799,78.0952380952381 99.47089947089948,77.67195767195767 99.04761904761905,77.24867724867725 98.62433862433863,76.82539682539684 97.989417989418,76.4021164021164 97.35449735449737,75.97883597883599 96.71957671957672,75.55555555555556 96.08465608465609,75.34391534391536 95.44973544973546,75.34391534391536 94.81481481481482,75.13227513227514 94.17989417989419,75.13227513227514 93.54497354497356,75.13227513227514 92.91005291005291,75.13227513227514 92.27513227513228,75.13227513227514 91.64021164021165,75.34391534391536 91.00529100529101,75.55555555555556 90.37037037037038,75.97883597883599 89.73544973544975,76.19047619047619 89.1005291005291,76.61375661375662 88.67724867724868,77.03703703703704 88.04232804232805,77.46031746031747 87.61904761904762,77.88359788359789 86.98412698412699,78.0952380952381 86.56084656084657,78.51851851851852 86.13756613756614,78.94179894179895 85.71428571428572,79.36507936507937 85.29100529100529,79.7883597883598 84.65608465608466,80.21164021164022 84.23280423280424,80.63492063492065 83.80952380952381,81.26984126984128 83.59788359788361,81.90476190476191 83.17460317460318,82.53968253968254 82.75132275132276,82.96296296296298 82.32804232804233,83.3862433862434 81.90476190476191,83.80952380952381 81.48148148148148,84.23280423280424 81.05820105820106,84.65608465608466 80.63492063492065,85.07936507936509 80.21164021164022,85.5026455026455 79.7883597883598,85.92592592592594 79.36507936507937,86.34920634920636 78.94179894179895,86.98412698412699 78.51851851851852,87.61904761904762 78.0952380952381,88.25396825396827 77.67195767195767,88.8888888888889 77.24867724867725,89.52380952380953 76.82539682539684,90.15873015873017 76.61375661375662,90.7936507936508 76.19047619047619,91.42857142857143 75.76719576719577,92.06349206349208 75.55555555555556,92.69841269841271 75.13227513227514,93.12169312169313 74.92063492063492,93.75661375661376 74.49735449735451,94.39153439153439 74.28571428571429,95.02645502645504 73.86243386243387,95.66137566137567 73.65079365079366,96.2962962962963 73.43915343915344,96.93121693121694 73.01587301587303,97.56613756613757 72.80423280423281,98.2010582010582 72.5925925925926,98.83597883597885 72.38095238095238,99.47089947089948 72.16931216931218,100.10582010582011 71.74603174603175,100.74074074074075 71.74603174603175,101.37566137566138 71.53439153439155,102.01058201058201 71.11111111111111,102.64550264550266 71.11111111111111,103.28042328042329 70.6878306878307,103.91534391534393 70.6878306878307,104.55026455026456 70.47619047619048,105.18518518518519 70.26455026455027,105.82010582010582 70.05291005291006,106.45502645502647 70.05291005291006,107.0899470899471 69.84126984126985,107.72486772486774 69.84126984126985,108.35978835978837 69.62962962962963,108.994708994709 69.62962962962963,109.62962962962963 69.41798941798942,110.26455026455027 69.41798941798942,110.89947089947091 69.41798941798942,111.53439153439155 69.41798941798942,112.16931216931218 69.41798941798942,112.80423280423281 69.41798941798942,113.43915343915344 69.41798941798942,114.07407407407408 69.41798941798942,114.70899470899472 69.62962962962963,115.34391534391536 69.62962962962963,115.97883597883599 69.84126984126985,116.61375661375662 69.84126984126985,117.24867724867725 70.05291005291006,117.88359788359789 70.26455026455027,118.51851851851853 70.47619047619048,119.15343915343917 70.6878306878307,119.7883597883598 71.11111111111111,120.42328042328043 71.53439153439155,121.05820105820106 71.95767195767196,121.4814814814815 72.38095238095238,122.11640211640213 73.01587301587303,122.32804232804234 73.43915343915344,122.75132275132276 73.86243386243387,123.17460317460318 74.49735449735451,123.59788359788361 75.13227513227514,123.80952380952382 75.76719576719577,124.23280423280424 76.4021164021164,124.44444444444446 77.03703703703704,124.65608465608466 77.67195767195767,124.86772486772487 78.30687830687832,124.86772486772487 78.94179894179895,125.07936507936509 79.57671957671958,125.07936507936509 80.21164021164022,125.07936507936509 80.84656084656085,125.07936507936509 81.48148148148148,125.07936507936509 82.11640211640213,125.07936507936509 82.75132275132276,125.07936507936509 83.3862433862434,124.86772486772487 84.02116402116403,124.86772486772487 84.65608465608466,124.65608465608466 85.29100529100529,124.44444444444446 85.92592592592594,124.23280423280424 86.56084656084657,124.02116402116403 87.1957671957672,123.80952380952382 87.83068783068784,123.3862433862434 88.46560846560847,122.96296296296298 89.1005291005291,122.75132275132276 89.73544973544975,122.53968253968254 90.15873015873017,122.11640211640213 90.7936507936508,121.90476190476191 91.42857142857143,121.4814814814815 92.06349206349208,121.4814814814815 92.69841269841271,121.05820105820106 93.33333333333334,120.84656084656086 93.96825396825398,120.63492063492065 94.60317460317461,120.42328042328043 95.23809523809524,120.21164021164022 95.87301587301587,120.21164021164022 96.2962962962963,119.7883597883598 96.93121693121694,119.7883597883598 97.56613756613757,119.57671957671958 98.2010582010582,119.36507936507937 98.83597883597885,119.36507936507937 99.47089947089948,119.15343915343917 100.10582010582011,119.15343915343917 100.74074074074075,119.15343915343917 101.37566137566138,119.36507936507937 102.01058201058201,119.36507936507937 102.64550264550266,119.57671957671958 103.28042328042329,119.7883597883598 103.91534391534393,120.00000000000001 104.55026455026456,120.42328042328043 105.18518518518519,120.84656084656086 105.60846560846562,121.4814814814815 106.03174603174604,122.11640211640213 106.45502645502647,122.75132275132276 106.66666666666667,123.3862433862434 106.66666666666667,124.02116402116403 106.87830687830689,124.65608465608466 106.87830687830689,125.2910052910053 106.87830687830689,125.92592592592594 107.0899470899471,126.56084656084657 107.0899470899471,127.1957671957672 107.0899470899471,127.83068783068784 107.0899470899471,128.46560846560848 107.0899470899471,129.10052910052912 107.0899470899471,129.73544973544975 107.0899470899471,130.37037037037038 107.0899470899471,131.005291005291 107.0899470899471,131.64021164021165 107.0899470899471,132.27513227513228 107.0899470899471,132.9100529100529 107.0899470899471,133.54497354497354 107.0899470899471,134.17989417989418 106.87830687830689,134.81481481481484 106.87830687830689,135.44973544973547 106.87830687830689,136.0846560846561 106.87830687830689,136.71957671957674 106.87830687830689,137.35449735449737 106.45502645502647,137.989417989418 106.45502645502647,138.62433862433863 106.45502645502647,139.25925925925927 106.45502645502647,139.8941798941799 106.24338624338625,140.52910052910053 106.24338624338625,141.16402116402116 106.24338624338625,141.7989417989418 106.03174603174604,142.43386243386246 106.03174603174604,143.0687830687831 105.82010582010582,143.70370370370372 105.60846560846562,144.33862433862436 105.60846560846562,144.973544973545 105.3968253968254,145.60846560846562 105.18518518518519,146.24338624338625 105.18518518518519,146.8783068783069 104.97354497354497,147.51322751322752 104.76190476190477,148.14814814814815 104.76190476190477,148.78306878306879 104.55026455026456,149.41798941798942 104.33862433862434,150.05291005291005 104.12698412698414,150.6878306878307 103.91534391534393,151.32275132275134 103.91534391534393,151.95767195767198 103.70370370370371,152.5925925925926 103.4920634920635,153.22751322751324 103.28042328042329,153.86243386243387 103.06878306878308,154.4973544973545 102.85714285714286,155.13227513227514 102.64550264550266,155.76719576719577 102.43386243386244,156.4021164021164 102.43386243386244,157.03703703703704 102.22222222222223,157.67195767195767 101.79894179894181,158.30687830687833 101.5873015873016,158.94179894179896 101.37566137566138,159.5767195767196 101.16402116402116,160.21164021164023 100.95238095238096,160.84656084656086 100.52910052910053,161.4814814814815 100.31746031746033,162.11640211640213 100.10582010582011,162.75132275132276 99.68253968253968,163.3862433862434 99.47089947089948,164.02116402116403 99.25925925925927,164.65608465608466 98.83597883597885,165.2910052910053 98.62433862433863,165.92592592592595 98.2010582010582,166.56084656084658 97.989417989418,167.19576719576722 97.77777777777779,167.83068783068785 97.35449735449737,168.46560846560848 97.14285714285715,169.10052910052912 96.71957671957672,169.73544973544975 96.50793650793652,170.37037037037038 96.08465608465609,171.005291005291 95.87301587301587,171.64021164021165 95.66137566137567,172.27513227513228 95.44973544973546,172.9100529100529 95.02645502645504,173.54497354497354 94.81481481481482,174.1798941798942 94.39153439153439,174.81481481481484 94.17989417989419,175.44973544973547 93.96825396825398,176.0846560846561 93.54497354497356,176.71957671957674 93.33333333333334,177.35449735449737 93.12169312169313,177.989417989418 92.91005291005291,178.62433862433863 92.69841269841271,179.25925925925927 92.4867724867725,179.8941798941799 92.06349206349208,180.52910052910053 91.85185185185186,181.16402116402116 90.58201058201058,184.33862433862436" style="fill:none; stroke:#999900; stroke-width:1.0"  /><polyline points="90.58201058201058,184.33862433862436 87.40740740740742,182.22222222222223 86.77248677248677,181.79894179894183 86.34920634920636,181.3756613756614 85.71428571428572,180.95238095238096 85.07936507936509,180.52910052910053 84.44444444444446,180.10582010582013 83.80952380952381,179.6825396825397 83.3862433862434,179.25925925925927 82.75132275132276,178.83597883597884 82.11640211640213,178.41269841269843 81.48148148148148,177.989417989418 80.84656084656085,177.56613756613757 80.21164021164022,177.14285714285717 79.57671957671958,176.71957671957674 79.15343915343917,176.2962962962963 78.51851851851852,175.87301587301587 77.88359788359789,175.44973544973547 77.24867724867725,175.02645502645504 76.61375661375662,174.6031746031746 76.19047619047619,174.1798941798942 75.55555555555556,173.75661375661377 75.13227513227514,173.33333333333334 74.49735449735451,172.9100529100529 74.07407407407408,172.4867724867725 73.43915343915344,172.06349206349208 73.01587301587303,171.64021164021165 72.38095238095238,171.21693121693124 71.74603174603175,170.7936507936508 71.32275132275133,170.37037037037038 70.8994708994709,169.94708994708995 70.26455026455027,169.52380952380955 69.84126984126985,169.10052910052912 69.20634920634922,168.67724867724868 68.57142857142858,168.25396825396825 68.14814814814815,167.83068783068785 67.72486772486774,167.40740740740742 67.3015873015873,166.984126984127 66.66666666666667,166.56084656084658 66.03174603174604,166.13756613756615 65.60846560846561,165.71428571428572 65.18518518518519,165.2910052910053 64.76190476190477,164.8677248677249 64.33862433862434,164.44444444444446 63.70370370370371,164.02116402116403 63.06878306878308,163.59788359788362 62.64550264550265,163.1746031746032 62.01058201058201,162.75132275132276 61.58730158730159,162.32804232804233 60.952380952380956,162.11640211640213 60.31746031746032,161.6931216931217 59.682539682539684,161.2698412698413 59.04761904761905,160.84656084656086 58.62433862433863,160.42328042328043 57.989417989417994,160.21164021164023 57.35449735449736,160.0 56.93121693121694,159.5767195767196 56.2962962962963,159.36507936507937 55.661375661375665,159.15343915343917 55.02645502645503,159.15343915343917 54.39153439153439,158.94179894179896 53.968253968253975,158.51851851851853 53.333333333333336,158.73015873015873 52.6984126984127,158.94179894179896 52.06349206349207,159.15343915343917 51.42857142857143,159.15343915343917 50.7936507936508,159.36507936507937 50.158730158730165,159.5767195767196 49.73544973544974,160.0 49.1005291005291,160.42328042328043 48.46560846560847,160.84656084656086 48.042328042328045,161.2698412698413 47.61904761904762,161.6931216931217 47.195767195767196,162.32804232804233 47.195767195767196,162.96296296296296 46.560846560846564,164.02116402116403 46.349206349206355,164.65608465608466 46.13756613756614,165.2910052910053 45.92592592592593,165.92592592592595 45.92592592592593,166.56084656084658 45.714285714285715,167.19576719576722 45.714285714285715,167.83068783068785 45.50264550264551,168.46560846560848 45.29100529100529,169.10052910052912 45.07936507936508,169.73544973544975 45.07936507936508,170.37037037037038 44.867724867724874,171.005291005291 44.867724867724874,171.64021164021165 44.65608465608466,172.27513227513228 44.65608465608466,172.9100529100529 44.65608465608466,173.54497354497354 44.44444444444445,174.1798941798942 44.44444444444445,174.81481481481484 44.44444444444445,175.44973544973547 44.232804232804234,176.0846560846561 44.232804232804234,176.71957671957674 44.232804232804234,177.35449735449737 44.021164021164026,177.989417989418 44.021164021164026,178.62433862433863 43.80952380952381,179.25925925925927 43.5978835978836,179.8941798941799 43.5978835978836,180.52910052910053 43.5978835978836,181.16402116402116 43.386243386243386,181.79894179894183 43.17460317460318,182.43386243386246 42.96296296296297,183.0687830687831 42.75132275132275,183.70370370370372 42.539682539682545,184.33862433862436 42.32804232804233,184.973544973545 41.904761904761905,185.60846560846562 41.48148148148149,186.24338624338625 41.058201058201064,186.8783068783069 40.63492063492064,187.30158730158732 40.0,187.51322751322752 39.78835978835979,188.14814814814815 39.36507936507937,188.57142857142858 38.730158730158735,188.99470899470901 38.30687830687831,189.41798941798945 37.883597883597886,190.05291005291008 37.46031746031746,190.6878306878307 36.82539682539683,191.11111111111111 36.402116402116405,191.53439153439155 35.76719576719577,191.74603174603175 35.13227513227513,192.16931216931218 34.4973544973545,192.3809523809524 33.86243386243387,192.5925925925926 33.22751322751323,192.8042328042328 32.592592592592595,192.8042328042328 31.95767195767196,192.8042328042328 31.322751322751326,193.01587301587304 30.68783068783069,193.01587301587304 30.052910052910054,193.01587301587304 29.41798941798942,193.01587301587304 28.783068783068785,193.01587301587304 28.14814814814815,192.8042328042328 27.513227513227516,192.8042328042328 26.87830687830688,192.5925925925926 26.243386243386244,192.5925925925926 25.60846560846561,192.5925925925926 24.973544973544975,192.3809523809524 24.338624338624342,192.3809523809524 23.703703703703706,192.16931216931218 23.06878306878307,191.95767195767198 22.433862433862437,191.74603174603175 21.7989417989418,191.53439153439155 21.164021164021165,191.11111111111111 20.529100529100532,190.8994708994709 19.894179894179896,190.47619047619048 19.25925925925926,190.26455026455028 18.624338624338627,189.84126984126985 17.98941798941799,189.62962962962965 17.566137566137566,189.20634920634922 17.142857142857146,188.78306878306879 16.50793650793651,188.35978835978838 16.084656084656086,187.93650793650795 15.449735449735451,187.51322751322752 15.026455026455027,187.08994708994712 14.603174603174605,186.45502645502646 14.17989417989418,186.03174603174605 13.756613756613758,185.39682539682542 13.333333333333334,184.7619047619048 13.121693121693122,184.12698412698415 12.910052910052912,183.4920634920635 12.6984126984127,182.85714285714286 12.6984126984127,182.22222222222223 12.486772486772487,181.5873015873016 12.486772486772487,180.95238095238096 12.6984126984127,180.31746031746033 12.6984126984127,179.6825396825397 12.910052910052912,179.04761904761907 12.910052910052912,178.41269841269843 13.121693121693122,177.7777777777778 13.121693121693122,177.14285714285717 13.333333333333334,176.50793650793653 13.756613756613758,175.87301587301587 13.96825396825397,175.23809523809524 14.17989417989418,174.6031746031746 14.391534391534393,173.96825396825398 14.814814814814817,173.33333333333334 15.026455026455027,172.6984126984127 15.449735449735451,172.06349206349208 15.661375661375663,171.42857142857144 16.084656084656086,170.7936507936508 16.50793650793651,170.15873015873018 16.931216931216934,169.52380952380955 17.354497354497354,168.8888888888889 17.77777777777778,168.25396825396825 18.201058201058203,167.61904761904762 18.624338624338627,167.19576719576722 19.047619047619047,166.56084656084658 19.47089947089947,166.13756613756615 19.894179894179896,165.71428571428572 20.31746031746032,165.0793650793651 20.740740740740744,164.65608465608466 21.164021164021165,164.23280423280426 21.58730158730159,163.80952380952382 22.222222222222225,163.3862433862434 22.645502645502646,162.96296296296296 23.06878306878307,162.53968253968256 23.703703703703706,162.11640211640213 24.338624338624342,161.6931216931217 24.973544973544975,161.2698412698413 25.60846560846561,160.84656084656086 26.243386243386244,160.42328042328043 26.666666666666668,160.0 27.089947089947092,159.5767195767196 27.724867724867728,159.15343915343917 28.14814814814815,158.73015873015873 28.571428571428573,158.0952380952381 29.20634920634921,157.67195767195767 29.41798941798942,157.03703703703704 29.841269841269842,156.4021164021164 30.052910052910054,155.76719576719577 30.476190476190478,155.34391534391534 30.68783068783069,154.7089947089947 30.899470899470902,154.07407407407408 31.111111111111114,153.43915343915344 31.322751322751326,152.8042328042328 31.53439153439154,152.16931216931218 31.53439153439154,151.53439153439155 31.53439153439154,150.8994708994709 31.53439153439154,150.26455026455028 31.53439153439154,149.62962962962965 31.53439153439154,148.99470899470901 31.322751322751326,148.35978835978838 31.111111111111114,147.72486772486775 30.899470899470902,147.0899470899471 30.476190476190478,146.45502645502646 30.264550264550266,145.82010582010582 29.841269841269842,145.1851851851852 29.41798941798942,144.55026455026456 28.994708994708997,144.12698412698413 28.571428571428573,143.70370370370372 28.14814814814815,143.0687830687831 27.724867724867728,142.64550264550266 27.089947089947092,142.22222222222223 26.455026455026456,141.7989417989418 26.031746031746035,141.3756613756614 25.3968253968254,141.3756613756614 24.761904761904763,140.95238095238096 24.12698412698413,140.74074074074076 23.492063492063494,140.31746031746033 22.857142857142858,140.10582010582013 22.222222222222225,139.8941798941799 21.58730158730159,139.47089947089947 20.952380952380953,139.25925925925927 20.31746031746032,138.83597883597884 19.682539682539684,138.62433862433863 19.047619047619047,138.41269841269843 18.412698412698415,138.2010582010582 17.77777777777778,137.989417989418 17.142857142857146,137.56613756613757 16.50793650793651,137.35449735449737 15.873015873015873,137.14285714285717 15.238095238095239,136.93121693121694 14.603174603174605,136.71957671957674 13.96825396825397,136.2962962962963 13.333333333333334,136.0846560846561 12.6984126984127,135.87301587301587 12.063492063492065,135.66137566137567 11.428571428571429,135.44973544973547 10.793650793650794,135.23809523809524 10.15873015873016,135.02645502645504 9.523809523809524,134.81481481481484 8.88888888888889,134.6031746031746 8.253968253968255,134.6031746031746 7.6190476190476195,134.3915343915344 6.984126984126985,134.17989417989418 6.34920634920635,133.96825396825398 2.7513227513227516,132.9100529100529" style="fill:none; stroke:#00aa99; stroke-width:1.0"  /><polyline points="2.7513227513227516,132.9100529100529 4.656084656084657,130.58201058201058 5.07936507936508,130.15873015873018 5.502645502645503,129.73544973544975 5.9259259259259265,129.10052910052912 6.34920634920635,128.67724867724868 6.772486772486773,128.25396825396825 7.195767195767196,127.83068783068784 7.6190476190476195,127.40740740740742 8.042328042328043,126.77248677248679 8.465608465608467,126.34920634920636 8.88888888888889,125.71428571428572 9.312169312169313,125.2910052910053 9.735449735449736,124.86772486772487 10.15873015873016,124.44444444444446 10.582010582010582,123.80952380952382 11.005291005291006,123.3862433862434 11.428571428571429,122.75132275132276 11.851851851851853,122.32804232804234 12.063492063492065,121.6931216931217 12.486772486772487,121.26984126984128 12.910052910052912,120.63492063492065 13.333333333333334,120.21164021164022 13.756613756613758,119.57671957671958 14.17989417989418,118.94179894179895 14.603174603174605,118.30687830687832 15.026455026455027,117.88359788359789 15.449735449735451,117.24867724867725 15.873015873015873,116.61375661375662 16.296296296296298,116.1904761904762 16.71957671957672,115.55555555555557 17.142857142857146,115.13227513227514 17.354497354497354,114.49735449735451 17.77777777777778,113.86243386243387 18.201058201058203,113.43915343915344 18.412698412698415,112.80423280423281 18.83597883597884,112.3809523809524 19.25925925925926,111.74603174603176 19.47089947089947,111.11111111111111 19.682539682539684,110.47619047619048 20.105820105820108,110.05291005291006 20.31746031746032,109.41798941798943 20.740740740740744,108.994708994709 21.164021164021165,108.57142857142858 21.375661375661377,107.93650793650795 21.7989417989418,107.3015873015873 22.010582010582013,106.66666666666667 22.433862433862437,106.03174603174604 22.645502645502646,105.3968253968254 22.857142857142858,104.76190476190477 23.06878306878307,104.12698412698414 23.492063492063494,103.4920634920635 23.703703703703706,102.85714285714286 23.915343915343918,102.22222222222223 24.12698412698413,101.5873015873016 24.12698412698413,100.95238095238096 24.338624338624342,100.31746031746033 24.55026455026455,99.68253968253968 24.55026455026455,99.04761904761905 24.761904761904763,98.41269841269842 24.973544973544975,97.77777777777779 24.973544973544975,97.14285714285715 24.973544973544975,96.50793650793652 25.185185185185187,95.87301587301587 25.185185185185187,95.23809523809524 25.185185185185187,94.60317460317461 25.185185185185187,93.96825396825398 25.185185185185187,93.33333333333334 24.973544973544975,92.69841269841271 24.761904761904763,92.06349206349208 24.55026455026455,91.42857142857143 24.338624338624342,90.7936507936508 23.915343915343918,90.37037037037038 23.492063492063494,89.73544973544975 23.06878306878307,89.31216931216932 22.645502645502646,88.8888888888889 22.222222222222225,88.46560846560847 21.58730158730159,88.04232804232805 20.952380952380953,87.61904761904762 20.31746031746032,87.40740740740742 19.682539682539684,87.1957671957672 19.047619047619047,86.98412698412699 18.412698412698415,86.77248677248677 17.77777777777778,86.56084656084657 17.142857142857146,86.34920634920636 16.50793650793651,86.34920634920636 15.873015873015873,86.13756613756614 15.238095238095239,86.13756613756614 14.603174603174605,86.13756613756614 13.96825396825397,86.13756613756614 13.333333333333334,86.13756613756614 12.6984126984127,86.34920634920636 12.063492063492065,86.34920634920636 11.428571428571429,86.34920634920636 10.793650793650794,86.56084656084657 10.15873015873016,86.56084656084657 9.523809523809524,86.56084656084657 8.88888888888889,86.77248677248677 8.253968253968255,86.77248677248677 7.6190476190476195,86.77248677248677 6.984126984126985,86.77248677248677 6.34920634920635,86.56084656084657 5.714285714285714,86.34920634920636 5.07936507936508,86.13756613756614 4.444444444444445,85.71428571428572 3.8095238095238098,85.5026455026455 3.3862433862433865,85.07936507936509 2.7513227513227516,84.65608465608466 2.3280423280423284,84.23280423280424 1.9047619047619049,83.80952380952381 1.4814814814814816,83.17460317460318 1.0582010582010584,82.53968253968254 0.8465608465608466,81.90476190476191 0.634920634920635,81.26984126984128 0.634920634920635,80.63492063492065 0.4232804232804233,80.0 0.4232804232804233,79.36507936507937 0.4232804232804233,78.73015873015873 0.21164021164021166,78.0952380952381 0.21164021164021166,77.46031746031747 0.21164021164021166,76.82539682539684 0.21164021164021166,76.19047619047619 0.21164021164021166,75.55555555555556 0.21164021164021166,74.92063492063492 0.21164021164021166,74.28571428571429 0.21164021164021166,73.65079365079366 0.4232804232804233,73.01587301587303 0.4232804232804233,72.38095238095238 0.4232804232804233,71.74603174603175 0.634920634920635,71.11111111111111 0.634920634920635,70.47619047619048 0.8465608465608466,69.84126984126985 0.8465608465608466,69.20634920634922 1.0582010582010584,68.57142857142858 1.26984126984127,67.93650793650794 1.4814814814814816,67.3015873015873 1.4814814814814816,66.66666666666667 1.6931216931216932,66.03174603174604 1.9047619047619049,65.3968253968254 2.1164021164021167,64.76190476190477 2.53968253968254,64.12698412698413 2.7513227513227516,63.492063492063494 2.9629629629629632,62.85714285714286 3.3862433862433865,62.22222222222223 3.597883597883598,61.58730158730159 4.021164021164021,61.16402116402117 4.444444444444445,60.52910052910053 4.867724867724868,59.8941798941799 5.291005291005291,59.25925925925927 5.714285714285714,58.62433862433863 6.137566137566138,57.989417989417994 6.560846560846561,57.56613756613757 6.984126984126985,56.93121693121694 7.407407407407408,56.50793650793651 7.830687830687832,56.08465608465609 8.253968253968255,55.661375661375665 8.677248677248677,55.23809523809524 9.312169312169313,54.81481481481482 9.947089947089948,54.60317460317461 10.582010582010582,54.39153439153439 11.216931216931219,54.179894179894184 11.851851851851853,54.179894179894184 12.486772486772487,54.179894179894184 13.121693121693122,54.179894179894184 13.756613756613758,54.39153439153439 14.391534391534393,54.39153439153439 15.026455026455027,54.60317460317461 15.661375661375663,54.81481481481482 16.296296296296298,55.02645502645503 16.931216931216934,55.23809523809524 17.566137566137566,55.449735449735456 18.201058201058203,55.87301587301588 18.83597883597884,56.2962962962963 19.47089947089947,56.50793650793651 19.894179894179896,56.93121693121694 20.529100529100532,57.142857142857146 20.952380952380953,57.56613756613757 21.58730158730159,57.989417989417994 22.010582010582013,58.41269841269842 22.433862433862437,58.83597883597884 22.857142857142858,59.25925925925927 23.492063492063494,59.682539682539684 24.12698412698413,60.10582010582011 24.55026455026455,60.52910052910053 25.185185185185187,60.952380952380956 25.820105820105823,61.16402116402117 26.455026455026456,61.58730158730159 27.089947089947092,61.798941798941804 27.724867724867728,62.01058201058201 28.35978835978836,62.43386243386244 28.994708994708997,62.64550264550265 29.629629629629633,62.64550264550265 30.264550264550266,62.85714285714286 30.899470899470902,62.85714285714286 31.53439153439154,62.64550264550265 32.16931216931217,62.64550264550265 32.804232804232804,62.43386243386244 33.43915343915344,62.22222222222223 34.074074074074076,62.01058201058201 34.70899470899471,61.798941798941804 35.13227513227513,61.37566137566138 35.55555555555556,60.952380952380956 36.19047619047619,60.52910052910053 36.613756613756614,60.10582010582011 37.03703703703704,59.682539682539684 37.46031746031746,59.04761904761905 37.883597883597886,58.62433862433863 38.30687830687831,57.989417989417994 38.730158730158735,57.35449735449736 38.94179894179894,56.71957671957672 39.36507936507937,56.2962962962963 39.57671957671958,55.661375661375665 39.78835978835979,55.02645502645503 40.0,54.39153439153439 40.211640211640216,53.75661375661376 40.211640211640216,53.12169312169313 40.423280423280424,52.48677248677249 40.423280423280424,51.851851851851855 40.63492063492064,51.21693121693122 40.63492063492064,50.58201058201058 40.84656084656085,49.94708994708995 41.058201058201064,49.31216931216932 41.26984126984127,48.677248677248684 41.48148148148149,48.042328042328045 41.48148148148149,47.40740740740741 41.6931216931217,46.77248677248678 41.904761904761905,46.13756613756614 41.904761904761905,45.50264550264551 42.11640211640212,44.867724867724874 42.32804232804233,44.232804232804234 42.539682539682545,43.5978835978836 42.539682539682545,42.96296296296297 42.75132275132275,42.32804232804233 42.96296296296297,41.6931216931217 43.17460317460318,41.058201058201064 43.17460317460318,40.423280423280424 43.386243386243386,39.78835978835979 43.5978835978836,39.15343915343916 43.80952380952381,38.51851851851852 44.021164021164026,37.883597883597886 44.232804232804234,37.248677248677254 44.44444444444445,36.613756613756614 44.65608465608466,35.97883597883598 44.65608465608466,35.34391534391535 44.867724867724874,34.70899470899471 45.07936507936508,34.074074074074076 45.29100529100529,33.43915343915344 45.50264550264551,32.804232804232804 45.714285714285715,32.16931216931217 45.92592592592593,31.53439153439154 46.13756613756614,30.899470899470902 46.560846560846564,30.264550264550266 46.77248677248678,29.629629629629633 46.98412698412699,28.994708994708997 47.195767195767196,28.35978835978836 47.40740740740741,27.724867724867728 47.61904761904762,27.089947089947092 47.61904761904762,26.455026455026456 48.042328042328045,25.820105820105823 48.042328042328045,25.185185185185187 48.25396825396826,24.55026455026455 48.46560846560847,23.915343915343918 48.677248677248684,23.280423280423282 48.88888888888889,22.645502645502646 49.1005291005291,22.010582010582013 49.31216931216932,21.375661375661377 49.31216931216932,20.740740740740744 49.523809523809526,20.105820105820108 49.73544973544974,19.47089947089947 49.94708994708995,18.83597883597884 50.158730158730165,18.201058201058203 50.370370370370374,17.566137566137566 50.370370370370374,16.931216931216934 50.58201058201058,16.296296296296298 50.7936507936508,15.661375661375663 51.00529100529101,15.026455026455027 51.21693121693122,14.391534391534393 51.42857142857143,13.756613756613758 51.640211640211646,13.121693121693122 51.851851851851855,12.486772486772487 52.91005291005291,9.312169312169313" style="fill:none; stroke:#3300bb; stroke-width:1.0"  /><circle cx="52.91005291005291" cy="9.312169312169313" r="2.0" style="fill:none; stroke:#000000aa; stroke-width:0.25" /><circle cx="142.85714285714286" cy="57.142857142857146" r="2.0" style="fill:none; stroke:#000000aa; stroke-width:0.25" /><circle cx="90.58201058201058" cy="184.33862433862436" r="2.0" style="fill:none; stroke:#000000aa; stroke-width:0.25" /><circle cx="2.7513227513227516" cy="132.9100529100529" r="2.0" style="fill:none; stroke:#000000aa; stroke-width:0.25" /><circle cx="53.12169312169313" cy="9.735449735449736" r="2.0" style="fill:none; stroke:#ff3366aa; stroke-width:0.25" /><circle cx="142.85714285714286" cy="56.71957671957672" r="2.0" style="fill:none; stroke:#ff3366aa; stroke-width:0.25" /><circle cx="90.37037037037038" cy="184.33862433862436" r="2.0" style="fill:none; stroke:#ff3366aa; stroke-width:0.25" /><circle cx="2.9629629629629632" cy="133.12169312169314" r="2.0" style="fill:none; stroke:#ff3366aa; stroke-width:0.25" /><polyline points="63.492063492063494,15.238095238095239 62.85714285714286,14.814814814814817 62.22222222222223,14.391534391534393 61.798941798941804,13.96825396825397 61.16402116402117,13.756613756613758 60.52910052910053,13.544973544973546 59.8941798941799,13.121693121693122 59.25925925925927,12.6984126984127 58.62433862433863,12.486772486772487 58.2010582010582,12.063492063492065 57.56613756613757,11.851851851851853 56.93121693121694,11.428571428571429 56.2962962962963,11.216931216931219" style="fill:none; stroke:#001100; stroke-width:1.0" /><polyline points="49.31216931216932,20.740740740740744 49.523809523809526,20.105820105820108 49.73544973544974,19.47089947089947 49.94708994708995,18.83597883597884 50.158730158730165,18.201058201058203 50.370370370370374,17.566137566137566 50.370370370370374,16.931216931216934 50.58201058201058,16.296296296296298 50.7936507936508,15.661375661375663 51.00529100529101,15.026455026455027 51.21693121693122,14.391534391534393 51.42857142857143,13.756613756613758 51.640211640211646,13.121693121693122 51.851851851851855,12.486772486772487" style="fill:none; stroke:#000011; stroke-width:1.0" /><polyline points="136.71957671957674,66.66666666666667 137.14285714285717,66.03174603174604 137.35449735449737,65.3968253968254 137.7777777777778,64.76190476190477 138.2010582010582,64.12698412698413 138.62433862433863,63.70370370370371 139.04761904761907,63.06878306878308 139.47089947089947,62.43386243386244 139.6825396825397,61.798941798941804 140.10582010582013,61.37566137566138 140.52910052910053,60.952380952380956 140.74074074074076,60.31746031746032 141.16402116402116,59.682539682539684" style="fill:none; stroke:#001100; stroke-width:1.0" /><polyline points="131.64021164021165,53.968253968253975 132.27513227513228,54.179894179894184 132.9100529100529,54.39153439153439 133.54497354497354,54.60317460317461 134.17989417989418,54.81481481481482 134.81481481481484,55.02645502645503 135.44973544973547,55.02645502645503 136.0846560846561,55.23809523809524 136.71957671957674,55.449735449735456 137.35449735449737,55.661375661375665 137.989417989418,55.661375661375665 138.62433862433863,55.87301587301588 139.25925925925927,56.08465608465609 139.8941798941799,56.2962962962963" style="fill:none; stroke:#000011; stroke-width:1.0" /><polyline points="80.84656084656085,177.56613756613757 81.48148148148148,177.989417989418 82.11640211640213,178.41269841269843 82.75132275132276,178.83597883597884 83.3862433862434,179.25925925925927 83.80952380952381,179.6825396825397 84.44444444444446,180.10582010582013 85.07936507936509,180.52910052910053 85.71428571428572,180.95238095238096 86.34920634920636,181.3756613756614 86.77248677248677,181.79894179894183 87.40740740740742,182.22222222222223" style="fill:none; stroke:#001100; stroke-width:1.0" /><polyline points="95.02645502645504,173.54497354497354 94.81481481481482,174.1798941798942 94.39153439153439,174.81481481481484 94.17989417989419,175.44973544973547 93.96825396825398,176.0846560846561 93.54497354497356,176.71957671957674 93.33333333333334,177.35449735449737 93.12169312169313,177.989417989418 92.91005291005291,178.62433862433863 92.69841269841271,179.25925925925927 92.4867724867725,179.8941798941799 92.06349206349208,180.52910052910053 91.85185185185186,181.16402116402116" style="fill:none; stroke:#000011; stroke-width:1.0" /><polyline points="10.582010582010582,123.80952380952382 10.15873015873016,124.44444444444446 9.735449735449736,124.86772486772487 9.312169312169313,125.2910052910053 8.88888888888889,125.71428571428572 8.465608465608467,126.34920634920636 8.042328042328043,126.77248677248679 7.6190476190476195,127.40740740740742 7.195767195767196,127.83068783068784 6.772486772486773,128.25396825396825 6.34920634920635,128.67724867724868 5.9259259259259265,129.10052910052912 5.502645502645503,129.73544973544975 5.07936507936508,130.15873015873018 4.656084656084657,130.58201058201058" style="fill:none; stroke:#001100; stroke-width:1.0" /><polyline points="13.96825396825397,136.2962962962963 13.333333333333334,136.0846560846561 12.6984126984127,135.87301587301587 12.063492063492065,135.66137566137567 11.428571428571429,135.44973544973547 10.793650793650794,135.23809523809524 10.15873015873016,135.02645502645504 9.523809523809524,134.81481481481484 8.88888888888889,134.6031746031746 8.253968253968255,134.6031746031746 7.6190476190476195,134.3915343915344 6.984126984126985,134.17989417989418 6.34920634920635,133.96825396825398" style="fill:none; stroke:#000011; stroke-width:1.0" /><polyline points="56.2962962962963,11.216931216931219 37.883597883597886,0.8465608465608466" style="fill:none; stroke:#ffaa00; stroke-width:0.4" /><polyline points="51.851851851851855,12.486772486772487 57.989417989417994,-7.830687830687832" style="fill:none; stroke:#aaff00; stroke-width:0.4" /><polyline points="141.16402116402116,59.682539682539684 152.5925925925926,41.904761904761905" style="fill:none; stroke:#ffaa00; stroke-width:0.4" /><polyline points="139.8941798941799,56.2962962962963 160.21164021164023,62.01058201058201" style="fill:none; stroke:#aaff00; stroke-width:0.4" /><polyline points="87.40740740740742,182.22222222222223 104.76190476190477,194.4973544973545" style="fill:none; stroke:#ffaa00; stroke-width:0.4" /><polyline points="91.85185185185186,181.16402116402116 83.80952380952381,200.63492063492066" style="fill:none; stroke:#aaff00; stroke-width:0.4" /><polyline points="4.656084656084657,130.58201058201058 -9.312169312169313,146.45502645502646" style="fill:none; stroke:#ffaa00; stroke-width:0.4" /><polyline points="6.34920634920635,133.96825396825398 -13.96825396825397,127.83068783068784" style="fill:none; stroke:#aaff00; stroke-width:0.4" /><circle cx="66.66666666666667" cy="94.39153439153439" r="1.0" style="fill:#444444; stroke-width:0" /><circle cx="68.14814814814815" cy="58.62433862433863" r="10.582010582010582" style="fill:#ff770022; stroke-width:0" /><circle cx="68.14814814814815" cy="58.62433862433863" r="1.0" style="fill:#ff7700; stroke-width:0" /></svg>