<?xml version="1.0" encoding="UTF-8" standalone="no"?><svg width="498.41269841269843" height="553.015873015873" viewBox="-10 -10 186.13756613756615 204.33862433862436" xmlns="http://www.w3.org/2000/svg" xmlns:xlink="http://www.w3.org/1999/xlink"><polyline points="19.047619047619047,0.4232804232804233 22.222222222222225,0.4232804232804233 22.857142857142858,0.21164021164021166 23.492063492063494,0.4232804232804233 24.12698412698413,0.21164021164021166 24.761904761904763,0.4232804232804233 25.3968253968254,0.4232804232804233 26.031746031746035,0.4232804232804233 26.666666666666668,0.4232804232804233 27.301587301587304,0.4232804232804233 27.93650793650794,0.4232804232804233 28.571428571428573,0.4232804232804233 29.20634920634921,0.4232804232804233 29.629629629629633,0.8465608465608466 30.264550264550266,0.634920634920635 30.899470899470902,0.634920634920635 31.53439153439154,0.634920634920635 32.16931216931217,0.8465608465608466 32.804232804232804,0.8465608465608466 33.43915343915344,0.8465608465608466 34.074074074074076,0.8465608465608466 34.70899470899471,0.8465608465608466 35.34391534391535,0.8465608465608466 35.97883597883598,1.0582010582010584 36.613756613756614,1.0582010582010584 37.248677248677254,1.26984126984127 37.883597883597886,1.26984126984127 38.51851851851852,1.26984126984127 39.15343915343916,1.26984126984127 39.78835978835979,1.26984126984127 40.423280423280424,1.4814814814814816 41.058201058201064,1.6931216931216932 41.6931216931217,1.6931216931216932 42.32804232804233,1.6931216931216932 42.96296296296297,1.6931216931216932 43.5978835978836,1.6931216931216932 44.232804232804234,1.6931216931216932 44.867724867724874,2.1164021164021167 45.50264550264551,2.1164021164021167 46.13756613756614,2.3280423280423284 46.349206349206355,1.6931216931216932 46.77248677248678,2.1164021164021167 47.40740740740741,2.1164021164021167 48.042328042328045,1.9047619047619049 48.677248677248684,2.1164021164021167 49.31216931216932,2.1164021164021167 49.94708994708995,2.3280423280423284 50.58201058201058,2.3280423280423284 51.21693121693122,2.3280423280423284 51.851851851851855,2.3280423280423284 52.48677248677249,2.53968253968254 53.12169312169313,2.7513227513227516 53.75661375661376,2.7513227513227516 54.39153439153439,2.9629629629629632 55.02645502645503,3.174603174603175 55.661375661375665,3.174603174603175 56.2962962962963,3.174603174603175 56.71957671957672,3.597883597883598 57.35449735449736,3.3862433862433865 57.989417989417994,3.597883597883598 58.41269841269842,4.2328042328042335 59.04761904761905,4.656084656084657 59.470899470899475,5.07936507936508 59.8941798941799,5.502645502645503 60.31746031746032,6.137566137566138 60.74074074074075,6.772486772486773 60.952380952380956,7.407407407407408 61.16402116402117,8.042328042328043 61.16402116402117,8.677248677248677 61.37566137566138,9.312169312169313 61.37566137566138,9.947089947089948 61.37566137566138,10.582010582010582 61.37566137566138,11.216931216931219 61.37566137566138,11.851851851851853 61.16402116402117,12.486772486772487 60.952380952380956,13.121693121693122 60.74074074074075,13.756613756613758 60.74074074074075,14.391534391534393 60.52910052910053,15.026455026455027 60.10582010582011,15.449735449735451 59.8941798941799,16.084656084656086 59.470899470899475,16.50793650793651 59.04761904761905,16.931216931216934 58.62433862433863,17.566137566137566 58.2010582010582,17.98941798941799 57.777777777777786,18.412698412698415 57.35449735449736,18.83597883597884 56.93121693121694,19.25925925925926 56.50793650793651,19.894179894179896 56.08465608465609,20.31746031746032 55.661375661375665,20.740740740740744 55.23809523809524,21.164021164021165 54.81481481481482,21.7989417989418 54.39153439153439,22.222222222222225 53.968253968253975,22.645502645502646 53.54497354497355,23.280423280423282 53.12169312169313,23.703703703703706 52.91005291005291,24.338624338624342 52.48677248677249,24.761904761904763 52.27513227513228,25.3968253968254 51.851851851851855,26.031746031746035 51.640211640211646,26.666666666666668 51.640211640211646,27.301587301587304 51.42857142857143,27.93650793650794 51.42857142857143,28.571428571428573 51.21693121693122,29.20634920634921 51.21693121693122,29.841269841269842 51.21693121693122,30.476190476190478 51.21693121693122,31.111111111111114 51.21693121693122,31.746031746031747 51.42857142857143,32.38095238095239 51.42857142857143,33.01587301587302 51.640211640211646,33.65079365079365 51.851851851851855,34.28571428571429 52.06349206349207,34.920634920634924 52.27513227513228,35.55555555555556 52.6984126984127,36.19047619047619 52.91005291005291,36.82539682539683 53.333333333333336,37.248677248677254 53.75661375661376,37.883597883597886 53.968253968253975,38.51851851851852 54.39153439153439,38.94179894179894 54.81481481481482,39.57671957671958 55.23809523809524,40.211640211640216 55.661375661375665,40.63492063492064 56.08465608465609,41.058201058201064 56.50793650793651,41.48148148148149 56.93121693121694,41.904761904761905 57.56613756613757,42.32804232804233 58.2010582010582,42.75132275132275 58.83597883597884,42.96296296296297 59.470899470899475,43.17460317460318 59.8941798941799,43.5978835978836 60.52910052910053,43.80952380952381 61.16402116402117,44.021164021164026 61.798941798941804,44.021164021164026 62.43386243386244,44.232804232804234 63.06878306878308,44.65608465608466 63.70370370370371,44.65608465608466 64.33862433862434,44.867724867724874 64.97354497354497,44.867724867724874 65.60846560846561,45.07936507936508 66.24338624338625,45.07936507936508 66.87830687830689,45.29100529100529 67.51322751322752,45.50264550264551 68.14814814814815,45.29100529100529 68.57142857142858,45.714285714285715 69.20634920634922,45.714285714285715 69.84126984126985,45.714285714285715 70.47619047619048,45.50264550264551 71.11111111111111,45.50264550264551 71.74603174603175,45.29100529100529 72.38095238095238,45.29100529100529 73.01587301587303,45.50264550264551 73.65079365079366,45.50264550264551 74.07407407407408,45.07936507936508 74.70899470899471,45.50264550264551 75.34391534391536,45.50264550264551 75.97883597883599,45.50264550264551 76.61375661375662,45.29100529100529 77.24867724867725,45.07936507936508 77.88359788359789,45.07936507936508 78.51851851851852,45.07936507936508 79.15343915343917,45.07936507936508 79.7883597883598,44.867724867724874 80.42328042328043,44.65608465608466 81.05820105820106,44.44444444444445 81.6931216931217,44.232804232804234 82.32804232804233,44.021164021164026 82.96296296296298,44.021164021164026 83.59788359788361,43.80952380952381 84.23280423280424,43.5978835978836 84.86772486772487,43.386243386243386 85.5026455026455,43.386243386243386 86.13756613756614,42.96296296296297 86.77248677248677,42.75132275132275 87.40740740740742,42.32804232804233 88.04232804232805,42.11640211640212 88.46560846560847,41.6931216931217 89.1005291005291,41.48148148148149 89.52380952380953,41.058201058201064 90.15873015873017,40.84656084656085 90.7936507936508,40.423280423280424 91.42857142857143,40.0 92.06349206349208,39.57671957671958 92.69841269841271,39.15343915343916 93.33333333333334,38.730158730158735 93.75661375661376,38.30687830687831 94.17989417989419,37.883597883597886 94.81481481481482,37.46031746031746 95.23809523809524,36.82539682539683 95.44973544973546,36.19047619047619 95.66137566137567,35.55555555555556 95.87301587301587,34.920634920634924 96.08465608465609,34.28571428571429 96.2962962962963,33.65079365079365 96.2962962962963,33.01587301587302 96.2962962962963,32.38095238095239 96.08465608465609,31.746031746031747 96.08465608465609,31.111111111111114 95.87301587301587,30.476190476190478 95.87301587301587,29.841269841269842 95.66137566137567,29.20634920634921 95.44973544973546,28.571428571428573 95.23809523809524,27.93650793650794 94.81481481481482,27.301587301587304 94.39153439153439,26.666666666666668 94.17989417989419,26.031746031746035 93.75661375661376,25.3968253968254 93.33333333333334,24.761904761904763 92.91005291005291,24.12698412698413 92.4867724867725,23.703703703703706 92.06349206349208,23.280423280423282 91.64021164021165,22.645502645502646 91.21693121693123,22.222222222222225 90.7936507936508,21.7989417989418 90.37037037037038,21.375661375661377 89.94708994708995,20.952380952380953 89.52380952380953,20.31746031746032 89.31216931216932,19.682539682539684 89.1005291005291,19.047619047619047 88.8888888888889,18.412698412698415 88.8888888888889,17.77777777777778 88.8888888888889,17.142857142857146 88.8888888888889,16.50793650793651 88.8888888888889,15.873015873015873 89.1005291005291,15.238095238095239 89.1005291005291,14.603174603174605 89.1005291005291,13.96825396825397 89.31216931216932,13.333333333333334 89.73544973544975,12.6984126984127 90.15873015873017,12.063492063492065 90.58201058201058,11.428571428571429 91.21693121693123,11.005291005291006 91.85185185185186,10.793650793650794 92.27513227513228,10.370370370370372 92.91005291005291,9.947089947089948 93.54497354497356,9.523809523809524 94.17989417989419,9.523809523809524 94.81481481481482,9.312169312169313 95.44973544973546,9.312169312169313 95.87301587301587,8.88888888888889 96.50793650793652,8.677248677248677 97.14285714285715,8.677248677248677 97.77777777777779,8.677248677248677 98.41269841269842,8.465608465608467 99.04761904761905,8.465608465608467 99.68253968253968,8.465608465608467 100.31746031746033,8.677248677248677 100.74074074074075,8.253968253968255 101.37566137566138,8.253968253968255 102.01058201058201,8.253968253968255 102.64550264550266,8.253968253968255 103.28042328042329,8.253968253968255 103.91534391534393,8.042328042328043 104.55026455026456,8.253968253968255 105.18518518518519,8.042328042328043 105.82010582010582,7.830687830687832 106.45502645502647,7.830687830687832 107.0899470899471,7.830687830687832 107.72486772486774,7.830687830687832 108.35978835978837,7.6190476190476195 108.994708994709,7.6190476190476195 109.62962962962963,7.6190476190476195 110.26455026455027,7.407407407407408 110.89947089947091,7.407407407407408 111.53439153439155,7.407407407407408 112.16931216931218,7.407407407407408 112.80423280423281,7.407407407407408 113.43915343915344,7.195767195767196 114.07407407407408,7.195767195767196 114.70899470899472,7.195767195767196 115.34391534391536,7.195767195767196 115.97883597883599,7.195767195767196 116.61375661375662,6.984126984126985 117.24867724867725,6.984126984126985 117.88359788359789,6.984126984126985 118.51851851851853,6.984126984126985 119.15343915343917,6.984126984126985 119.7883597883598,6.984126984126985 120.42328042328043,6.984126984126985 121.05820105820106,6.772486772486773 121.6931216931217,6.772486772486773 122.32804232804234,6.984126984126985 122.96296296296298,6.984126984126985 123.59788359788361,6.772486772486773 124.23280423280424,6.772486772486773 124.86772486772487,6.772486772486773 125.5026455026455,6.772486772486773 126.13756613756615,6.772486772486773 126.77248677248679,6.772486772486773 127.40740740740742,6.772486772486773 128.04232804232805,6.772486772486773 128.67724867724868,6.772486772486773 129.31216931216932,6.772486772486773 129.94708994708995,6.772486772486773 130.58201058201058,6.772486772486773 131.21693121693121,6.772486772486773 131.85185185185185,6.772486772486773 132.4867724867725,6.984126984126985 133.12169312169314,6.984126984126985 133.75661375661377,6.984126984126985 134.3915343915344,6.772486772486773 135.02645502645504,6.984126984126985 135.66137566137567,6.772486772486773 136.2962962962963,6.772486772486773 136.93121693121694,6.772486772486773 137.56613756613757,6.984126984126985 138.2010582010582,6.984126984126985 138.83597883597884,6.984126984126985 139.47089947089947,6.984126984126985 140.10582010582013,7.195767195767196 140.74074074074076,6.984126984126985 141.3756613756614,7.195767195767196 142.01058201058203,7.195767195767196 142.64550264550266,6.984126984126985 143.2804232804233,7.195767195767196 143.91534391534393,7.195767195767196 144.55026455026456,7.195767195767196 145.1851851851852,7.195767195767196 145.82010582010582,7.195767195767196 146.45502645502646,7.195767195767196 147.0899470899471,7.407407407407408 147.72486772486775,7.407407407407408 148.35978835978838,7.407407407407408 148.99470899470901,7.407407407407408 149.62962962962965,7.407407407407408 150.26455026455028,7.407407407407408 150.8994708994709,7.6190476190476195 151.53439153439155,7.407407407407408 152.16931216931218,7.6190476190476195 152.8042328042328,7.407407407407408 153.43915343915344,7.6190476190476195 154.07407407407408,7.6190476190476195 154.7089947089947,7.6190476190476195 155.34391534391534,7.830687830687832 155.978835978836,7.830687830687832 156.61375661375664,7.830687830687832 157.24867724867727,7.830687830687832 157.8835978835979,7.830687830687832 158.51851851851853,7.830687830687832 159.15343915343917,8.042328042328043 162.11640211640213,8.253968253968255" style="fill:none; stroke:#cc0000; stroke-width:1.0"  /><polyline points="162.11640211640213,8.253968253968255 162.96296296296296,11.851851851851853 162.96296296296296,12.486772486772487 162.96296296296296,13.121693121693122 163.1746031746032,13.756613756613758 163.3862433862434,14.391534391534393 163.59788359788362,15.026455026455027 163.80952380952382,15.661375661375663 164.02116402116403,16.296296296296298 164.02116402116403,16.931216931216934 164.23280423280426,17.566137566137566 164.44444444444446,18.201058201058203 164.44444444444446,18.83597883597884 164.65608465608466,19.47089947089947 164.8677248677249,20.105820105820108 164.8677248677249,20.740740740740744 165.0793650793651,21.375661375661377 165.0793650793651,22.010582010582013 165.2910052910053,22.645502645502646 165.2910052910053,23.280423280423282 165.2910052910053,23.915343915343918 165.2910052910053,24.55026455026455 165.50264550264552,25.185185185185187 165.50264550264552,25.820105820105823 165.50264550264552,26.455026455026456 165.50264550264552,27.089947089947092 165.71428571428572,27.724867724867728 165.71428571428572,28.35978835978836 165.71428571428572,28.994708994708997 165.71428571428572,29.629629629629633 165.50264550264552,30.264550264550266 165.50264550264552,30.899470899470902 165.50264550264552,31.53439153439154 165.50264550264552,32.16931216931217 165.2910052910053,32.804232804232804 165.2910052910053,33.43915343915344 165.0793650793651,34.074074074074076 165.0793650793651,34.70899470899471 165.0793650793651,35.34391534391535 164.8677248677249,35.97883597883598 164.65608465608466,36.613756613756614 164.44444444444446,37.248677248677254 164.23280423280426,37.883597883597886 164.02116402116403,38.51851851851852 163.80952380952382,39.15343915343916 163.59788359788362,39.78835978835979 163.3862433862434,40.423280423280424 163.1746031746032,41.058201058201064 162.96296296296296,41.6931216931217 162.75132275132276,42.32804232804233 162.53968253968256,42.96296296296297 162.11640211640213,43.5978835978836 161.90476190476193,44.232804232804234 161.4814814814815,44.867724867724874 161.05820105820106,45.50264550264551 160.84656084656086,46.13756613756614 160.42328042328043,46.77248677248678 160.0,47.40740740740741 159.5767195767196,48.042328042328045 159.15343915343917,48.677248677248684 158.94179894179896,49.31216931216932 158.51851851851853,49.94708994708995 158.0952380952381,50.370370370370374 157.67195767195767,50.7936507936508 157.24867724867727,51.21693121693122 156.61375661375664,51.640211640211646 155.978835978836,52.06349206349207 155.34391534391534,52.48677248677249 154.7089947089947,52.6984126984127 154.07407407407408,52.91005291005291 153.43915343915344,52.91005291005291 152.8042328042328,52.6984126984127 152.16931216931218,52.6984126984127 151.53439153439155,52.6984126984127 150.8994708994709,52.6984126984127 150.26455026455028,52.27513227513228 149.62962962962965,52.06349206349207 149.20634920634922,51.640211640211646 148.78306878306879,51.21693121693122 148.14814814814815,50.7936507936508 147.72486772486775,50.370370370370374 147.30158730158732,49.94708994708995 146.66666666666669,49.523809523809526 146.24338624338625,49.1005291005291 145.60846560846562,48.88888888888889 145.1851851851852,48.46560846560847 144.76190476190476,48.042328042328045 144.33862433862436,47.61904761904762 143.70370370370372,47.195767195767196 143.0687830687831,46.77248677248678 142.64550264550266,46.349206349206355 142.22222222222223,45.92592592592593 141.5873015873016,45.50264550264551 141.16402116402116,45.07936507936508 140.52910052910053,44.65608465608466 139.8941798941799,44.232804232804234 139.25925925925927,43.80952380952381 138.62433862433863,43.386243386243386 137.989417989418,43.17460317460318 137.35449735449737,42.75132275132275 136.71957671957674,42.539682539682545 136.0846560846561,42.32804232804233 135.44973544973547,41.904761904761905 134.81481481481484,41.904761904761905 134.17989417989418,41.6931216931217 133.54497354497354,41.6931216931217 132.9100529100529,41.48148148148149 132.27513227513228,41.48148148148149 131.64021164021165,41.48148148148149 131.005291005291,41.48148148148149 130.37037037037038,41.6931216931217 129.73544973544975,41.904761904761905 129.31216931216932,42.32804232804233 128.67724867724868,42.539682539682545 128.04232804232805,42.96296296296297 127.61904761904763,43.386243386243386 127.1957671957672,44.021164021164026 126.77248677248679,44.44444444444445 126.34920634920636,44.867724867724874 126.13756613756615,45.50264550264551 125.71428571428572,46.13756613756614 125.2910052910053,46.77248677248678 125.07936507936509,47.40740740740741 124.65608465608466,47.830687830687836 124.44444444444446,48.46560846560847 124.23280423280424,49.1005291005291 124.02116402116403,49.73544973544974 123.80952380952382,50.370370370370374 123.3862433862434,51.00529100529101 123.17460317460318,51.640211640211646 122.75132275132276,52.27513227513228 122.53968253968254,52.91005291005291 122.11640211640213,53.54497354497355 121.90476190476191,54.179894179894184 121.6931216931217,54.81481481481482 121.4814814814815,55.449735449735456 121.26984126984128,56.08465608465609 120.84656084656086,56.71957671957672 120.63492063492065,57.35449735449736 120.42328042328043,57.989417989417994 120.21164021164022,58.62433862433863 120.00000000000001,59.25925925925927 119.7883597883598,59.8941798941799 119.57671957671958,60.52910052910053 119.57671957671958,61.16402116402117 119.36507936507937,61.798941798941804 119.15343915343917,62.43386243386244 119.15343915343917,63.06878306878308 118.94179894179895,63.70370370370371 118.73015873015873,64.33862433862434 118.51851851851853,64.97354497354497 118.51851851851853,65.60846560846561 118.30687830687832,66.24338624338625 118.0952380952381,66.87830687830689 118.0952380952381,67.51322751322752 117.88359788359789,68.14814814814815 117.88359788359789,68.78306878306879 117.67195767195768,69.41798941798942 117.67195767195768,70.05291005291006 117.67195767195768,70.6878306878307 117.46031746031747,71.32275132275133 117.46031746031747,71.95767195767196 117.46031746031747,72.5925925925926 117.46031746031747,73.22751322751323 117.24867724867725,73.86243386243387 117.24867724867725,74.49735449735451 117.24867724867725,75.13227513227514 117.24867724867725,75.76719576719577 117.24867724867725,76.4021164021164 117.24867724867725,77.03703703703704 117.24867724867725,77.67195767195767 117.46031746031747,78.30687830687832 117.46031746031747,78.94179894179895 117.46031746031747,79.57671957671958 117.46031746031747,80.21164021164022 117.46031746031747,80.84656084656085 117.46031746031747,81.48148148148148 117.46031746031747,82.11640211640213 117.46031746031747,82.75132275132276 117.67195767195768,83.3862433862434 117.67195767195768,84.02116402116403 118.0952380952381,84.44444444444446 118.0952380952381,85.07936507936509 118.30687830687832,85.71428571428572 118.30687830687832,86.34920634920636 118.51851851851853,86.98412698412699 118.73015873015873,87.61904761904762 118.94179894179895,88.25396825396827 119.15343915343917,88.8888888888889 119.57671957671958,89.31216931216932 119.7883597883598,89.94708994708995 120.21164021164022,90.58201058201058 120.63492063492065,91.21693121693123 121.05820105820106,91.85185185185186 121.4814814814815,92.27513227513228 121.90476190476191,92.69841269841271 122.32804232804234,93.12169312169313 122.96296296296298,93.54497354497356 123.59788359788361,93.96825396825398 124.23280423280424,94.17989417989419 124.86772486772487,94.60317460317461 125.5026455026455,94.60317460317461 126.13756613756615,94.81481481481482 126.77248677248679,95.02645502645504 127.40740740740742,95.02645502645504 128.04232804232805,95.23809523809524 128.67724867724868,95.23809523809524 129.31216931216932,95.23809523809524 129.94708994708995,95.44973544973546 130.58201058201058,95.44973544973546 131.21693121693121,95.44973544973546 131.85185185185185,95.23809523809524 132.4867724867725,95.23809523809524 133.12169312169314,95.23809523809524 133.75661375661377,95.23809523809524 134.3915343915344,95.02645502645504 135.02645502645504,95.02645502645504 135.66137566137567,95.02645502645504 136.2962962962963,94.81481481481482 136.93121693121694,94.60317460317461 137.56613756613757,94.39153439153439 138.2010582010582,94.17989417989419 138.83597883597884,93.96825396825398 139.47089947089947,93.54497354497356 140.10582010582013,93.54497354497356 140.74074074074076,93.33333333333334 141.3756613756614,93.12169312169313 142.01058201058203,92.91005291005291 142.64550264550266,92.69841269841271 143.2804232804233,92.4867724867725 143.91534391534393,92.06349206349208 144.55026455026456,92.06349206349208 145.1851851851852,91.85185185185186 145.82010582010582,91.85185185185186 146.45502645502646,91.64021164021165 147.0899470899471,91.42857142857143 147.72486772486775,91.21693121693123 148.35978835978838,91.21693121693123 148.99470899470901,91.21693121693123 149.62962962962965,91.21693121693123 150.26455026455028,91.21693121693123 150.8994708994709,91.42857142857143 151.53439153439155,91.42857142857143 152.16931216931218,91.85185185185186 152.8042328042328,92.27513227513228 153.22751322751324,92.69841269841271 153.65079365079367,93.12169312169313 154.07407407407408,93.75661375661376 154.4973544973545,94.39153439153439 154.7089947089947,95.02645502645504 154.92063492063494,95.66137566137567 155.13227513227514,96.2962962962963 155.34391534391534,96.93121693121694 155.34391534391534,97.56613756613757 155.55555555555557,98.2010582010582 155.55555555555557,98.83597883597885 155.76719576719577,99.47089947089948 155.76719576719577,100.10582010582011 155.76719576719577,100.74074074074075 155.76719576719577,101.37566137566138 155.76719576719577,102.01058201058201 155.76719576719577,102.64550264550266 155.76719576719577,103.28042328042329 155.76719576719577,103.91534391534393 155.76719576719577,104.55026455026456 155.76719576719577,105.18518518518519 155.76719576719577,105.82010582010582 155.76719576719577,106.45502645502647 155.76719576719577,107.0899470899471 155.76719576719577,107.72486772486774 155.76719576719577,108.35978835978837 155.76719576719577,108.994708994709 155.55555555555557,109.62962962962963 155.55555555555557,110.26455026455027 155.55555555555557,110.89947089947091 155.55555555555557,111.53439153439155 155.55555555555557,112.16931216931218 155.55555555555557,112.80423280423281 155.34391534391534,113.43915343915344 155.34391534391534,114.07407407407408 155.34391534391534,114.70899470899472 155.34391534391534,115.34391534391536 155.13227513227514,115.97883597883599 155.13227513227514,116.61375661375662 155.13227513227514,117.24867724867725 155.13227513227514,117.88359788359789 154.92063492063494,118.51851851851853 155.13227513227514,119.15343915343917 155.13227513227514,119.7883597883598 154.92063492063494,120.42328042328043 154.92063492063494,121.05820105820106 154.7089947089947,121.6931216931217 154.7089947089947,122.32804232804234 154.4973544973545,122.96296296296298 154.4973544973545,123.59788359788361 154.2857142857143,124.23280423280424 154.2857142857143,124.86772486772487 154.07407407407408,125.5026455026455 153.86243386243387,126.13756613756615 153.86243386243387,126.77248677248679 153.65079365079367,127.40740740740742 153.65079365079367,128.04232804232805 153.43915343915344,128.67724867724868 153.22751322751324,129.31216931216932 153.22751322751324,129.94708994708995 153.01587301587304,130.58201058201058 152.8042328042328,131.21693121693121 152.5925925925926,131.85185185185185 152.5925925925926,132.4867724867725 152.38095238095238,133.12169312169314 152.16931216931218,133.75661375661377 151.95767195767198,134.3915343915344 151.74603174603175,135.02645502645504 151.53439153439155,135.66137566137567 151.53439153439155,136.2962962962963 151.32275132275134,136.93121693121694 151.11111111111111,137.56613756613757 150.8994708994709,138.2010582010582 150.6878306878307,138.83597883597884 150.47619047619048,139.47089947089947 150.26455026455028,140.10582010582013 150.05291005291005,140.74074074074076 149.84126984126985,141.3756613756614 149.62962962962965,142.01058201058203 149.41798941798942,142.64550264550266 149.20634920634922,143.2804232804233 148.99470899470901,143.91534391534393 148.78306878306879,144.55026455026456 148.57142857142858,145.1851851851852 148.35978835978838,145.82010582010582 148.14814814814815,146.45502645502646 148.14814814814815,147.0899470899471 147.72486772486775,147.51322751322752 147.72486772486775,148.14814814814815 147.51322751322752,148.78306878306879 147.30158730158732,149.41798941798942 147.0899470899471,150.05291005291005 146.8783068783069,150.6878306878307 146.66666666666669,151.32275132275134 146.45502645502646,151.95767195767198 145.39682539682542,155.13227513227514" style="fill:none; stroke:#999900; stroke-width:1.0"  /><polyline points="145.39682539682542,155.13227513227514 142.22222222222223,153.65079365079367 141.5873015873016,153.22751322751324 140.95238095238096,153.01587301587304 140.52910052910053,152.5925925925926 139.8941798941799,152.38095238095238 139.25925925925927,152.16931216931218 138.62433862433863,151.74603174603175 137.989417989418,151.53439153439155 137.35449735449737,151.32275132275134 136.71957671957674,151.11111111111111 136.0846560846561,150.6878306878307 135.44973544973547,150.47619047619048 134.81481481481484,150.26455026455028 134.17989417989418,150.05291005291005 133.54497354497354,149.84126984126985 132.9100529100529,149.62962962962965 132.27513227513228,149.41798941798942 131.64021164021165,149.20634920634922 131.005291005291,148.99470899470901 130.37037037037038,148.78306878306879 129.73544973544975,148.57142857142858 129.10052910052912,148.35978835978838 128.46560846560848,148.14814814814815 127.83068783068784,148.14814814814815 127.1957671957672,147.93650793650795 126.56084656084657,147.72486772486775 125.92592592592594,147.72486772486775 125.2910052910053,147.51322751322752 124.65608465608466,147.30158730158732 124.02116402116403,147.30158730158732 123.3862433862434,147.0899470899471 122.75132275132276,147.0899470899471 122.11640211640213,146.66666666666669 121.4814814814815,146.45502645502646 120.84656084656086,146.45502645502646 120.21164021164022,146.45502645502646 119.57671957671958,146.24338624338625 118.94179894179895,146.24338624338625 118.30687830687832,146.24338624338625 117.67195767195768,146.03174603174605 117.03703703703705,146.03174603174605 116.4021164021164,146.24338624338625 115.76719576719577,146.24338624338625 115.13227513227514,146.24338624338625 114.49735449735451,146.03174603174605 113.86243386243387,146.03174603174605 113.22751322751324,146.03174603174605 112.5925925925926,146.03174603174605 111.95767195767196,146.03174603174605 111.32275132275133,146.03174603174605 110.6878306878307,146.03174603174605 110.05291005291006,146.03174603174605 109.41798941798943,146.03174603174605 108.78306878306879,146.03174603174605 108.14814814814815,146.03174603174605 107.51322751322752,146.03174603174605 106.87830687830689,146.24338624338625 106.24338624338625,146.24338624338625 105.60846560846562,146.24338624338625 104.97354497354497,146.24338624338625 104.33862433862434,146.24338624338625 103.70370370370371,146.24338624338625 103.06878306878308,146.45502645502646 102.43386243386244,146.45502645502646 101.79894179894181,146.66666666666669 101.16402116402116,146.66666666666669 100.52910052910053,147.0899470899471 99.8941798941799,147.30158730158732 99.25925925925927,147.51322751322752 98.62433862433863,147.93650793650795 97.989417989418,148.35978835978838 97.56613756613757,148.78306878306879 97.14285714285715,149.20634920634922 96.71957671957672,149.62962962962965 96.2962962962963,150.05291005291005 95.87301587301587,150.6878306878307 95.66137566137567,151.32275132275134 95.23809523809524,151.95767195767198 95.02645502645504,152.5925925925926 94.81481481481482,153.22751322751324 94.81481481481482,153.86243386243387 94.81481481481482,154.4973544973545 94.81481481481482,155.13227513227514 94.81481481481482,155.76719576719577 94.81481481481482,156.4021164021164 95.02645502645504,157.03703703703704 95.23809523809524,157.67195767195767 95.44973544973546,158.30687830687833 95.66137566137567,158.94179894179896 95.87301587301587,159.5767195767196 96.2962962962963,160.21164021164023 96.50793650793652,160.84656084656086 96.93121693121694,161.2698412698413 97.14285714285715,161.90476190476193 97.56613756613757,162.32804232804233 97.77777777777779,162.96296296296296 98.2010582010582,163.3862433862434 98.41269841269842,164.02116402116403 98.83597883597885,164.44444444444446 99.04761904761905,165.0793650793651 99.47089947089948,165.50264550264552 99.68253968253968,166.13756613756615 99.8941798941799,166.7724867724868 100.31746031746033,167.40740740740742 100.52910052910053,168.04232804232805 100.74074074074075,168.67724867724868 100.74074074074075,169.31216931216932 100.74074074074075,169.94708994708995 100.95238095238096,170.58201058201058 100.95238095238096,171.21693121693124 100.95238095238096,171.85185185185188 100.74074074074075,172.4867724867725 100.74074074074075,173.12169312169314 100.52910052910053,173.75661375661377 100.31746031746033,174.3915343915344 100.10582010582011,175.02645502645504 99.8941798941799,175.66137566137567 99.47089947089948,176.2962962962963 99.04761904761905,176.71957671957674 98.62433862433863,177.14285714285717 98.2010582010582,177.56613756613757 97.56613756613757,177.989417989418 96.93121693121694,178.2010582010582 96.50793650793652,178.62433862433863 95.87301587301587,178.83597883597884 95.23809523809524,179.25925925925927 94.60317460317461,179.6825396825397 93.96825396825398,179.8941798941799 93.33333333333334,180.10582010582013 92.69841269841271,180.52910052910053 92.06349206349208,180.74074074074076 91.42857142857143,180.95238095238096 90.7936507936508,181.16402116402116 90.15873015873017,181.3756613756614 89.52380952380953,181.5873015873016 88.8888888888889,181.79894179894183 88.25396825396827,182.01058201058203 87.61904761904762,182.22222222222223 86.98412698412699,182.43386243386246 86.34920634920636,182.43386243386246 85.71428571428572,182.43386243386246 85.07936507936509,182.64550264550266 84.44444444444446,182.85714285714286 83.80952380952381,183.0687830687831 83.17460317460318,183.0687830687831 82.53968253968254,183.2804232804233 81.90476190476191,183.2804232804233 81.48148148148148,183.70370370370372 80.84656084656085,183.70370370370372 80.21164021164022,183.70370370370372 79.57671957671958,183.70370370370372 78.94179894179895,183.91534391534393 78.30687830687832,183.91534391534393 77.67195767195767,183.91534391534393 77.03703703703704,183.91534391534393 76.4021164021164,183.91534391534393 75.76719576719577,183.91534391534393 75.13227513227514,183.91534391534393 74.49735449735451,183.91534391534393 73.86243386243387,183.70370370370372 73.22751322751323,183.70370370370372 72.5925925925926,183.70370370370372 71.95767195767196,183.70370370370372 71.32275132275133,183.4920634920635 70.6878306878307,183.4920634920635 70.05291005291006,183.4920634920635 69.41798941798942,183.2804232804233 68.78306878306879,183.2804232804233 68.14814814814815,183.0687830687831 67.51322751322752,183.0687830687831 66.87830687830689,182.85714285714286 66.24338624338625,182.85714285714286 65.60846560846561,182.64550264550266 64.97354497354497,182.64550264550266 64.33862433862434,182.43386243386246 63.70370370370371,182.22222222222223 63.06878306878308,182.22222222222223 62.43386243386244,182.01058201058203 61.798941798941804,181.79894179894183 61.16402116402117,181.3756613756614 60.52910052910053,181.16402116402116 59.8941798941799,181.16402116402116 59.25925925925927,180.74074074074076 58.62433862433863,180.52910052910053 57.989417989417994,180.10582010582013 57.35449735449736,179.8941798941799 56.71957671957672,179.6825396825397 56.08465608465609,179.4708994708995 55.661375661375665,179.04761904761907 55.02645502645503,178.83597883597884 54.39153439153439,178.41269841269843 53.75661375661376,178.2010582010582 53.12169312169313,177.7777777777778 52.48677248677249,177.35449735449737 51.851851851851855,176.93121693121694 51.21693121693122,176.50793650793653 50.7936507936508,176.0846560846561 50.370370370370374,175.44973544973547 49.94708994708995,174.81481481481484 49.73544973544974,174.1798941798942 49.523809523809526,173.54497354497354 49.523809523809526,172.9100529100529 49.31216931216932,172.27513227513228 49.31216931216932,171.64021164021165 49.1005291005291,171.005291005291 49.31216931216932,170.37037037037038 49.31216931216932,169.73544973544975 49.523809523809526,169.10052910052912 49.94708994708995,168.46560846560848 50.158730158730165,167.83068783068785 50.58201058201058,167.19576719576722 50.7936507936508,166.56084656084658 51.21693121693122,166.13756613756615 51.42857142857143,165.50264550264552 51.851851851851855,164.8677248677249 52.27513227513228,164.23280423280426 52.48677248677249,163.59788359788362 52.91005291005291,163.1746031746032 53.12169312169313,162.53968253968256 53.54497354497355,161.90476190476193 53.75661375661376,161.2698412698413 53.968253968253975,160.63492063492066 54.179894179894184,160.0 54.39153439153439,159.36507936507937 54.60317460317461,158.73015873015873 54.60317460317461,158.0952380952381 54.60317460317461,157.46031746031747 54.60317460317461,156.82539682539684 54.60317460317461,156.1904761904762 54.60317460317461,155.55555555555557 54.60317460317461,154.92063492063494 54.39153439153439,154.2857142857143 53.968253968253975,153.65079365079367 53.75661375661376,153.01587301587304 53.333333333333336,152.38095238095238 52.91005291005291,151.74603174603175 52.48677248677249,151.11111111111111 52.06349206349207,150.6878306878307 51.640211640211646,150.26455026455028 51.00529100529101,149.84126984126985 50.370370370370374,149.41798941798942 49.73544973544974,149.20634920634922 49.1005291005291,148.99470899470901 48.46560846560847,148.99470899470901 47.830687830687836,148.78306878306879 47.195767195767196,148.57142857142858 46.560846560846564,148.78306878306879 45.92592592592593,148.78306878306879 45.29100529100529,148.78306878306879 44.65608465608466,148.78306878306879 44.021164021164026,148.78306878306879 43.386243386243386,148.78306878306879 42.75132275132275,148.78306878306879 42.11640211640212,148.78306878306879 41.48148148148149,148.78306878306879 40.84656084656085,148.78306878306879 40.211640211640216,148.78306878306879 39.57671957671958,148.78306878306879 38.94179894179894,148.99470899470901 38.30687830687831,148.99470899470901 37.67195767195768,148.78306878306879 37.03703703703704,148.78306878306879 36.402116402116405,148.99470899470901 35.76719576719577,148.78306878306879 35.13227513227513,148.78306878306879 34.4973544973545,148.78306878306879 33.86243386243387,148.78306878306879 33.22751322751323,148.78306878306879 32.592592592592595,148.78306878306879 31.95767195767196,148.78306878306879 31.322751322751326,148.57142857142858 30.68783068783069,148.57142857142858 30.052910052910054,148.57142857142858 29.41798941798942,148.57142857142858 28.783068783068785,148.57142857142858 28.14814814814815,148.35978835978838 27.513227513227516,148.35978835978838 26.87830687830688,148.35978835978838 26.243386243386244,148.35978835978838 25.60846560846561,148.35978835978838 24.973544973544975,148.14814814814815 24.338624338624342,148.14814814814815 23.703703703703706,148.14814814814815 23.06878306878307,148.14814814814815 22.433862433862437,147.93650793650795 21.7989417989418,147.93650793650795 21.164021164021165,147.93650793650795 20.529100529100532,147.93650793650795 16.50793650793651,147.51322751322752" style="fill:none; stroke:#00aa99; stroke-width:1.0"  /><polyline points="16.50793650793651,147.51322751322752 18.201058201058203,144.33862433862436 18.624338624338627,143.70370370370372 19.047619047619047,143.0687830687831 19.25925925925926,142.43386243386246 19.682539682539684,141.7989417989418 19.894179894179896,141.16402116402116 20.105820105820108,140.52910052910053 20.529100529100532,139.8941798941799 20.952380952380953,139.25925925925927 21.164021164021165,138.62433862433863 21.375661375661377,137.989417989418 21.58730158730159,137.35449735449737 22.010582010582013,136.71957671957674 22.222222222222225,136.0846560846561 22.433862433862437,135.44973544973547 22.857142857142858,134.81481481481484 23.06878306878307,134.17989417989418 23.280423280423282,133.54497354497354 23.492063492063494,132.9100529100529 23.703703703703706,132.27513227513228 23.915343915343918,131.64021164021165 24.12698412698413,131.005291005291 24.55026455026455,130.37037037037038 24.761904761904763,129.73544973544975 24.973544973544975,129.10052910052912 25.185185185185187,128.46560846560848 25.3968253968254,127.83068783068784 25.820105820105823,127.1957671957672 26.031746031746035,126.56084656084657 26.243386243386244,125.92592592592594 26.455026455026456,125.2910052910053 26.666666666666668,124.65608465608466 26.87830687830688,124.02116402116403 27.089947089947092,123.3862433862434 27.301587301587304,122.75132275132276 27.513227513227516,122.11640211640213 27.724867724867728,121.4814814814815 27.93650793650794,120.84656084656086 28.35978835978836,120.21164021164022 28.571428571428573,119.57671957671958 28.35978835978836,118.94179894179895 28.571428571428573,118.30687830687832 28.994708994708997,117.67195767195768 29.20634920634921,117.03703703703705 29.20634920634921,116.4021164021164 29.629629629629633,115.76719576719577 29.841269841269842,115.13227513227514 30.052910052910054,114.49735449735451 30.264550264550266,113.86243386243387 30.476190476190478,113.22751322751324 30.68783068783069,112.5925925925926 30.899470899470902,111.95767195767196 31.111111111111114,111.32275132275133 31.111111111111114,110.6878306878307 31.322751322751326,110.05291005291006 31.53439153439154,109.41798941798943 31.53439153439154,108.78306878306879 31.746031746031747,108.14814814814815 31.95767195767196,107.51322751322752 31.95767195767196,106.87830687830689 32.16931216931217,106.24338624338625 32.38095238095239,105.60846560846562 32.592592592592595,104.97354497354497 32.592592592592595,104.33862433862434 32.804232804232804,103.70370370370371 33.01587301587302,103.06878306878308 33.01587301587302,102.43386243386244 33.22751322751323,101.79894179894181 33.22751322751323,101.16402116402116 33.43915343915344,100.52910052910053 33.65079365079365,99.8941798941799 33.65079365079365,99.25925925925927 33.86243386243387,98.62433862433863 33.86243386243387,97.989417989418 34.074074074074076,97.35449735449737 34.28571428571429,96.71957671957672 34.28571428571429,96.08465608465609 34.28571428571429,95.44973544973546 34.4973544973545,94.81481481481482 34.70899470899471,94.17989417989419 34.70899470899471,93.54497354497356 34.920634920634924,92.91005291005291 34.920634920634924,92.27513227513228 34.920634920634924,91.64021164021165 35.13227513227513,91.00529100529101 35.13227513227513,90.37037037037038 35.13227513227513,89.73544973544975 35.13227513227513,89.1005291005291 35.13227513227513,88.46560846560847 35.13227513227513,87.83068783068784 35.13227513227513,87.1957671957672 35.13227513227513,86.56084656084657 34.920634920634924,85.92592592592594 34.920634920634924,85.29100529100529 34.920634920634924,84.65608465608466 34.4973544973545,84.23280423280424 34.28571428571429,83.59788359788361 34.074074074074076,82.96296296296298 33.86243386243387,82.32804232804233 33.65079365079365,81.6931216931217 33.22751322751323,81.05820105820106 32.804232804232804,80.42328042328043 32.38095238095239,79.7883597883598 31.95767195767196,79.36507936507937 31.322751322751326,78.94179894179895 30.68783068783069,78.73015873015873 30.052910052910054,78.30687830687832 29.41798941798942,78.0952380952381 28.783068783068785,77.88359788359789 28.14814814814815,77.88359788359789 27.513227513227516,77.88359788359789 26.87830687830688,77.88359788359789 26.243386243386244,77.88359788359789 25.60846560846561,77.88359788359789 24.973544973544975,77.88359788359789 24.338624338624342,78.0952380952381 23.703703703703706,78.30687830687832 23.06878306878307,78.51851851851852 22.433862433862437,78.73015873015873 21.7989417989418,78.94179894179895 21.164021164021165,79.15343915343917 20.529100529100532,79.57671957671958 19.894179894179896,79.7883597883598 19.25925925925926,80.0 18.624338624338627,80.21164021164022 17.98941798941799,80.63492063492065 17.354497354497354,80.84656084656085 16.71957671957672,81.05820105820106 16.084656084656086,81.05820105820106 15.449735449735451,81.26984126984128 14.814814814814817,81.48148148148148 14.17989417989418,81.48148148148148 13.544973544973546,81.48148148148148 12.910052910052912,81.6931216931217 12.275132275132275,81.6931216931217 11.640211640211641,81.6931216931217 11.005291005291006,81.6931216931217 10.370370370370372,81.6931216931217 9.735449735449736,81.48148148148148 9.100529100529101,81.26984126984128 8.465608465608467,80.84656084656085 7.830687830687832,80.42328042328043 7.195767195767196,80.0 6.772486772486773,79.57671957671958 6.34920634920635,79.15343915343917 5.9259259259259265,78.73015873015873 5.502645502645503,78.0952380952381 5.07936507936508,77.67195767195767 4.656084656084657,77.03703703703704 4.444444444444445,76.4021164021164 4.021164021164021,75.76719576719577 3.597883597883598,75.13227513227514 3.3862433862433865,74.49735449735451 3.174603174603175,73.86243386243387 2.7513227513227516,73.22751322751323 2.53968253968254,72.5925925925926 2.3280423280423284,71.95767195767196 2.1164021164021167,71.32275132275133 1.9047619047619049,70.6878306878307 1.6931216931216932,70.05291005291006 1.4814814814814816,69.41798941798942 1.26984126984127,68.78306878306879 1.0582010582010584,68.14814814814815 0.8465608465608466,67.51322751322752 0.634920634920635,66.87830687830689 0.634920634920635,66.24338624338625 0.634920634920635,65.60846560846561 0.4232804232804233,64.97354497354497 0.4232804232804233,64.33862433862434 0.4232804232804233,63.70370370370371 0.21164021164021166,63.06878306878308 0.21164021164021166,62.43386243386244 0.21164021164021166,61.798941798941804 0.21164021164021166,61.16402116402117 0.21164021164021166,60.52910052910053 0.21164021164021166,59.8941798941799 0.21164021164021166,59.25925925925927 0.21164021164021166,58.62433862433863 0.21164021164021166,57.989417989417994 0.4232804232804233,57.35449735449736 0.4232804232804233,56.71957671957672 0.4232804232804233,56.08465608465609 0.4232804232804233,55.449735449735456 0.634920634920635,54.81481481481482 0.634920634920635,54.179894179894184 0.8465608465608466,53.54497354497355 0.8465608465608466,52.91005291005291 1.0582010582010584,52.27513227513228 1.0582010582010584,51.640211640211646 1.26984126984127,51.00529100529101 1.4814814814814816,50.370370370370374 1.6931216931216932,49.73544973544974 1.6931216931216932,49.1005291005291 1.9047619047619049,48.46560846560847 1.9047619047619049,47.830687830687836 2.1164021164021167,47.195767195767196 2.3280423280423284,46.560846560846564 2.53968253968254,45.92592592592593 2.7513227513227516,45.29100529100529 2.9629629629629632,44.65608465608466 3.3862433862433865,44.021164021164026 3.8095238095238098,43.386243386243386 4.021164021164021,42.75132275132275 4.444444444444445,42.32804232804233 4.867724867724868,41.6931216931217 5.291005291005291,41.26984126984127 5.9259259259259265,40.84656084656085 6.560846560846561,40.63492063492064 7.195767195767196,40.211640211640216 7.830687830687832,40.0 8.465608465608467,40.0 9.100529100529101,39.78835978835979 9.735449735449736,39.78835978835979 10.370370370370372,39.78835978835979 11.005291005291006,39.78835978835979 11.640211640211641,39.57671957671958 12.275132275132275,39.57671957671958 12.910052910052912,39.57671957671958 13.544973544973546,39.36507936507937 13.96825396825397,39.78835978835979 14.603174603174605,39.78835978835979 15.238095238095239,39.78835978835979 15.873015873015873,39.57671957671958 16.50793650793651,39.57671957671958 17.142857142857146,39.57671957671958 17.77777777777778,39.78835978835979 18.412698412698415,39.78835978835979 19.047619047619047,39.78835978835979 19.682539682539684,39.57671957671958 20.31746031746032,39.36507936507937 20.952380952380953,39.36507936507937 21.58730158730159,39.15343915343916 22.222222222222225,38.94179894179894 22.857142857142858,38.51851851851852 23.492063492063494,38.30687830687831 23.915343915343918,37.883597883597886 24.55026455026455,37.46031746031746 24.973544973544975,36.82539682539683 25.3968253968254,36.19047619047619 25.820105820105823,35.76719576719577 26.031746031746035,35.13227513227513 26.243386243386244,34.4973544973545 26.455026455026456,33.86243386243387 26.666666666666668,33.22751322751323 26.666666666666668,32.592592592592595 26.87830687830688,31.95767195767196 26.87830687830688,31.322751322751326 26.87830687830688,30.68783068783069 26.87830687830688,30.052910052910054 26.87830687830688,29.41798941798942 26.87830687830688,28.783068783068785 26.87830687830688,28.14814814814815 26.87830687830688,27.513227513227516 26.87830687830688,26.87830687830688 26.666666666666668,26.243386243386244 26.455026455026456,25.60846560846561 26.455026455026456,24.973544973544975 26.243386243386244,24.338624338624342 26.243386243386244,23.703703703703706 26.031746031746035,23.06878306878307 25.820105820105823,22.433862433862437 25.60846560846561,21.7989417989418 25.3968253968254,21.164021164021165 25.3968253968254,20.529100529100532 25.185185185185187,19.894179894179896 24.973544973544975,19.25925925925926 24.761904761904763,18.624338624338627 24.761904761904763,17.98941798941799 24.55026455026455,17.354497354497354 24.338624338624342,16.71957671957672 24.12698412698413,16.084656084656086 23.915343915343918,15.449735449735451 23.703703703703706,14.814814814814817 23.280423280423282,14.17989417989418 23.06878306878307,13.544973544973546 23.06878306878307,12.910052910052912 22.857142857142858,12.275132275132275 22.433862433862437,11.640211640211641 22.433862433862437,11.005291005291006 22.222222222222225,10.370370370370372 22.010582010582013,9.735449735449736 21.7989417989418,9.100529100529101 21.58730158730159,8.465608465608467 21.375661375661377,7.830687830687832 21.164021164021165,7.195767195767196 20.952380952380953,6.560846560846561 20.740740740740744,5.9259259259259265 20.529100529100532,5.291005291005291 20.31746031746032,4.656084656084657 20.105820105820108,4.021164021164021 19.047619047619047,0.4232804232804233" style="fill:none; stroke:#3300bb; stroke-width:1.0"  /><circle cx="19.047619047619047" cy="0.4232804232804233" r="2.0" style="fill:none; stroke:#000000aa; stroke-width:0.25" /><circle cx="162.11640211640213" cy="8.253968253968255" r="2.0" style="fill:none; stroke:#000000aa; stroke-width:0.25" /><circle cx="145.39682539682542" cy="155.13227513227514" r="2.0" style="fill:none; stroke:#000000aa; stroke-width:0.25" /><circle cx="16.50793650793651" cy="147.51322751322752" r="2.0" style="fill:none; stroke:#000000aa; stroke-width:0.25" /><circle cx="19.047619047619047" cy="0.634920634920635" r="2.0" style="fill:none; stroke:#ff3366aa; stroke-width:0.25" /><circle cx="162.11640211640213" cy="8.677248677248677" r="2.0" style="fill:none; stroke:#ff3366aa; stroke-width:0.25" /><circle cx="145.39682539682542" cy="155.34391534391534" r="2.0" style="fill:none; stroke:#ff3366aa; stroke-width:0.25" /><circle cx="17.354497354497354" cy="147.51322751322752" r="2.0" style="fill:none; stroke:#ff3366aa; stroke-width:0.25" /><polyline points="30.899470899470902,0.634920634920635 30.264550264550266,0.634920634920635 29.629629629629633,0.8465608465608466 29.20634920634921,0.4232804232804233 28.571428571428573,0.4232804232804233 27.93650793650794,0.4232804232804233 27.301587301587304,0.4232804232804233 26.666666666666668,0.4232804232804233 26.031746031746035,0.4232804232804233 25.3968253968254,0.4232804232804233 24.761904761904763,0.4232804232804233 24.12698412698413,0.21164021164021166 23.492063492063494,0.4232804232804233 22.857142857142858,0.21164021164021166 22.222222222222225,0.4232804232804233" style="fill:none; stroke:#001100; stroke-width:1.0" /><polyline points="22.433862433862437,11.640211640211641 22.433862433862437,11.005291005291006 22.222222222222225,10.370370370370372 22.010582010582013,9.735449735449736 21.7989417989418,9.100529100529101 21.58730158730159,8.465608465608467 21.375661375661377,7.830687830687832 21.164021164021165,7.195767195767196 20.952380952380953,6.560846560846561 20.740740740740744,5.9259259259259265 20.529100529100532,5.291005291005291 20.31746031746032,4.656084656084657 20.105820105820108,4.021164021164021" style="fill:none; stroke:#000011; stroke-width:1.0" /><polyline points="164.8677248677249,20.105820105820108 164.65608465608466,19.47089947089947 164.44444444444446,18.83597883597884 164.44444444444446,18.201058201058203 164.23280423280426,17.566137566137566 164.02116402116403,16.931216931216934 164.02116402116403,16.296296296296298 163.80952380952382,15.661375661375663 163.59788359788362,15.026455026455027 163.3862433862434,14.391534391534393 163.1746031746032,13.756613756613758 162.96296296296296,13.121693121693122 162.96296296296296,12.486772486772487 162.96296296296296,11.851851851851853" style="fill:none; stroke:#001100; stroke-width:1.0" /><polyline points="150.26455026455028,7.407407407407408 150.8994708994709,7.6190476190476195 151.53439153439155,7.407407407407408 152.16931216931218,7.6190476190476195 152.8042328042328,7.407407407407408 153.43915343915344,7.6190476190476195 154.07407407407408,7.6190476190476195 154.7089947089947,7.6190476190476195 155.34391534391534,7.830687830687832 155.978835978836,7.830687830687832 156.61375661375664,7.830687830687832 157.24867724867727,7.830687830687832 157.8835978835979,7.830687830687832 158.51851851851853,7.830687830687832 159.15343915343917,8.042328042328043" style="fill:none; stroke:#000011; stroke-width:1.0" /><polyline points="134.81481481481484,150.26455026455028 135.44973544973547,150.47619047619048 136.0846560846561,150.6878306878307 136.71957671957674,151.11111111111111 137.35449735449737,151.32275132275134 137.989417989418,151.53439153439155 138.62433862433863,151.74603174603175 139.25925925925927,152.16931216931218 139.8941798941799,152.38095238095238 140.52910052910053,152.5925925925926 140.95238095238096,153.01587301587304 141.5873015873016,153.22751322751324 142.22222222222223,153.65079365079367" style="fill:none; stroke:#001100; stroke-width:1.0" /><polyline points="148.99470899470901,143.91534391534393 148.78306878306879,144.55026455026456 148.57142857142858,145.1851851851852 148.35978835978838,145.82010582010582 148.14814814814815,146.45502645502646 148.14814814814815,147.0899470899471 147.72486772486775,147.51322751322752 147.72486772486775,148.14814814814815 147.51322751322752,148.78306878306879 147.30158730158732,149.41798941798942 147.0899470899471,150.05291005291005 146.8783068783069,150.6878306878307 146.66666666666669,151.32275132275134 146.45502645502646,151.95767195767198" style="fill:none; stroke:#000011; stroke-width:1.0" /><polyline points="22.010582010582013,136.71957671957674 21.58730158730159,137.35449735449737 21.375661375661377,137.989417989418 21.164021164021165,138.62433862433863 20.952380952380953,139.25925925925927 20.529100529100532,139.8941798941799 20.105820105820108,140.52910052910053 19.894179894179896,141.16402116402116 19.682539682539684,141.7989417989418 19.25925925925926,142.43386243386246 19.047619047619047,143.0687830687831 18.624338624338627,143.70370370370372 18.201058201058203,144.33862433862436" style="fill:none; stroke:#001100; stroke-width:1.0" /><polyline points="28.783068783068785,148.57142857142858 28.14814814814815,148.35978835978838 27.513227513227516,148.35978835978838 26.87830687830688,148.35978835978838 26.243386243386244,148.35978835978838 25.60846560846561,148.35978835978838 24.973544973544975,148.14814814814815 24.338624338624342,148.14814814814815 23.703703703703706,148.14814814814815 23.06878306878307,148.14814814814815 22.433862433862437,147.93650793650795 21.7989417989418,147.93650793650795 21.164021164021165,147.93650793650795 20.529100529100532,147.93650793650795" style="fill:none; stroke:#000011; stroke-width:1.0" /><polyline points="22.222222222222225,0.4232804232804233 1.0582010582010584,0.0" style="fill:none; stroke:#ffaa00; stroke-width:0.4" /><polyline points="20.105820105820108,4.021164021164021 13.96825396825397,-16.296296296296298" style="fill:none; stroke:#aaff00; stroke-width:0.4" /><polyline points="162.96296296296296,11.851851851851853 158.30687830687833,-8.677248677248677" style="fill:none; stroke:#ffaa00; stroke-width:0.4" /><polyline points="159.15343915343917,8.042328042328043 180.31746031746033,9.523809523809524" style="fill:none; stroke:#aaff00; stroke-width:0.4" /><polyline points="142.22222222222223,153.65079365079367 161.4814814814815,162.53968253968256" style="fill:none; stroke:#ffaa00; stroke-width:0.4" /><polyline points="146.45502645502646,151.95767195767198 140.10582010582013,172.06349206349208" style="fill:none; stroke:#aaff00; stroke-width:0.4" /><polyline points="18.201058201058203,144.33862433862436 8.677248677248677,163.1746031746032" style="fill:none; stroke:#ffaa00; stroke-width:0.4" /><polyline points="20.529100529100532,147.93650793650795 -0.634920634920635,146.24338624338625" style="fill:none; stroke:#aaff00; stroke-width:0.4" /><circle cx="83.17460317460318" cy="86.56084656084657" r="1.0" style="fill:#444444; stroke-width:0" /><circle cx="78.94179894179895" cy="107.72486772486774" r="10.582010582010582" style="fill:#ff770022; stroke-width:0" /><circle cx="78.94179894179895" cy="107.72486772486774" r="1.0" style="fill:#ff7700; stroke-width:0" /></svg>