<?xml version="1.0" encoding="UTF-8" standalone="no"?><svg width="622.2222222222223" height="492.0634920634921" viewBox="-10 -10 227.40740740740742 184.02116402116403" xmlns="http://www.w3.org/2000/svg" xmlns:xlink="http://www.w3.org/1999/xlink"><polyline points="37.03703703703704,8.88888888888889 40.423280423280424,9.100529100529101 41.058201058201064,9.100529100529101 41.6931216931217,9.100529100529101 42.32804232804233,9.100529100529101 42.96296296296297,9.100529100529101 43.5978835978836,9.312169312169313 44.232804232804234,9.312169312169313 44.867724867724874,9.312169312169313 45.50264550264551,9.523809523809524 46.13756613756614,9.523809523809524 46.77248677248678,9.523809523809524 47.40740740740741,9.523809523809524 48.042328042328045,9.523809523809524 48.677248677248684,9.523809523809524 49.31216931216932,9.523809523809524 49.94708994708995,9.523809523809524 50.58201058201058,9.523809523809524 51.21693121693122,9.523809523809524 51.851851851851855,9.523809523809524 52.48677248677249,9.523809523809524 53.12169312169313,9.523809523809524 53.75661375661376,9.523809523809524 54.39153439153439,9.523809523809524 55.02645502645503,9.312169312169313 55.661375661375665,9.312169312169313 56.2962962962963,9.312169312169313 56.93121693121694,9.312169312169313 57.56613756613757,9.312169312169313 58.2010582010582,9.100529100529101 58.83597883597884,9.100529100529101 59.470899470899475,8.88888888888889 60.10582010582011,8.88888888888889 60.74074074074075,8.88888888888889 61.37566137566138,8.465608465608467 62.01058201058201,8.465608465608467 62.64550264550265,8.465608465608467 63.280423280423285,8.253968253968255 63.91534391534392,7.830687830687832 64.55026455026456,7.830687830687832 65.18518518518519,7.6190476190476195 65.82010582010582,7.407407407407408 66.45502645502646,7.407407407407408 67.08994708994709,7.195767195767196 67.72486772486774,6.984126984126985 68.35978835978837,6.772486772486773 68.994708994709,6.560846560846561 69.62962962962963,6.137566137566138 70.26455026455027,5.9259259259259265 70.8994708994709,5.714285714285714 71.53439153439155,5.502645502645503 72.16931216931218,5.291005291005291 72.80423280423281,5.07936507936508 73.43915343915344,4.867724867724868 74.07407407407408,4.444444444444445 74.70899470899471,4.2328042328042335 75.34391534391536,4.021164021164021 75.76719576719577,3.597883597883598 76.4021164021164,3.3862433862433865 77.03703703703704,3.174603174603175 77.67195767195767,2.9629629629629632 78.30687830687832,2.7513227513227516 78.73015873015873,2.3280423280423284 79.36507936507937,2.3280423280423284 80.0,2.3280423280423284 80.63492063492065,2.3280423280423284 81.26984126984128,2.3280423280423284 81.90476190476191,2.3280423280423284 82.53968253968254,2.3280423280423284 83.17460317460318,2.3280423280423284 83.80952380952381,2.3280423280423284 84.44444444444446,2.53968253968254 85.07936507936509,2.7513227513227516 85.5026455026455,3.174603174603175 86.13756613756614,3.3862433862433865 86.56084656084657,3.8095238095238098 86.98412698412699,4.2328042328042335 87.40740740740742,4.656084656084657 87.83068783068784,5.291005291005291 88.04232804232805,5.9259259259259265 88.25396825396827,6.560846560846561 88.25396825396827,7.195767195767196 88.25396825396827,7.830687830687832 88.25396825396827,8.465608465608467 88.25396825396827,9.100529100529101 88.25396825396827,9.735449735449736 88.25396825396827,10.370370370370372 88.04232804232805,11.005291005291006 87.83068783068784,11.640211640211641 87.61904761904762,12.275132275132275 87.40740740740742,12.910052910052912 87.1957671957672,13.544973544973546 86.98412698412699,14.17989417989418 86.56084656084657,14.814814814814817 86.34920634920636,15.449735449735451 86.13756613756614,16.084656084656086 85.71428571428572,16.71957671957672 85.5026455026455,17.354497354497354 85.29100529100529,17.98941798941799 84.86772486772487,18.624338624338627 84.65608465608466,19.25925925925926 84.44444444444446,19.894179894179896 84.02116402116403,20.529100529100532 83.80952380952381,21.164021164021165 83.59788359788361,21.7989417989418 83.3862433862434,22.433862433862437 82.96296296296298,23.06878306878307 82.96296296296298,23.703703703703706 82.75132275132276,24.338624338624342 82.53968253968254,24.973544973544975 82.53968253968254,25.60846560846561 82.32804232804233,26.243386243386244 82.32804232804233,26.87830687830688 82.32804232804233,27.513227513227516 82.32804232804233,28.14814814814815 82.32804232804233,28.783068783068785 82.32804232804233,29.41798941798942 82.53968253968254,30.052910052910054 82.53968253968254,30.68783068783069 82.75132275132276,31.322751322751326 82.96296296296298,31.95767195767196 83.17460317460318,32.592592592592595 83.59788359788361,33.22751322751323 84.02116402116403,33.86243386243387 84.44444444444446,34.28571428571429 84.86772486772487,34.920634920634924 85.29100529100529,35.34391534391535 85.92592592592594,35.76719576719577 86.34920634920636,36.19047619047619 86.77248677248677,36.613756613756614 87.40740740740742,37.03703703703704 87.83068783068784,37.46031746031746 88.46560846560847,37.883597883597886 89.1005291005291,38.095238095238095 89.73544973544975,38.51851851851852 90.37037037037038,38.730158730158735 91.00529100529101,39.15343915343916 91.64021164021165,39.36507936507937 92.27513227513228,39.57671957671958 92.91005291005291,39.78835978835979 93.54497354497356,40.0 94.17989417989419,40.211640211640216 94.81481481481482,40.423280423280424 95.44973544973546,40.63492063492064 96.08465608465609,40.63492063492064 96.71957671957672,40.63492063492064 97.35449735449737,40.84656084656085 97.989417989418,40.84656084656085 98.62433862433863,40.84656084656085 99.25925925925927,40.84656084656085 99.8941798941799,40.84656084656085 100.52910052910053,40.84656084656085 101.16402116402116,40.84656084656085 101.79894179894181,40.84656084656085 102.43386243386244,40.84656084656085 103.06878306878308,40.84656084656085 103.70370370370371,41.058201058201064 104.12698412698414,40.63492063492064 104.76190476190477,40.63492063492064 105.3968253968254,40.63492063492064 106.03174603174604,40.63492063492064 106.66666666666667,40.63492063492064 107.3015873015873,40.423280423280424 107.72486772486774,40.0 108.35978835978837,39.78835978835979 108.994708994709,39.57671957671958 109.62962962962963,39.15343915343916 110.26455026455027,38.94179894179894 110.6878306878307,38.51851851851852 111.11111111111111,38.095238095238095 111.74603174603176,37.883597883597886 112.3809523809524,37.67195767195768 112.80423280423281,37.248677248677254 113.22751322751324,36.82539682539683 113.65079365079366,36.402116402116405 114.07407407407408,35.97883597883598 114.49735449735451,35.55555555555556 114.92063492063492,34.920634920634924 115.13227513227514,34.28571428571429 115.34391534391536,33.65079365079365 115.76719576719577,33.01587301587302 115.76719576719577,32.38095238095239 115.97883597883599,31.746031746031747 115.97883597883599,31.111111111111114 116.1904761904762,30.476190476190478 116.1904761904762,29.841269841269842 115.97883597883599,29.20634920634921 116.1904761904762,28.571428571428573 115.97883597883599,27.93650793650794 115.97883597883599,27.301587301587304 115.97883597883599,26.666666666666668 115.97883597883599,26.031746031746035 115.97883597883599,25.3968253968254 115.76719576719577,24.761904761904763 115.55555555555557,24.12698412698413 115.34391534391536,23.492063492063494 115.13227513227514,22.857142857142858 115.13227513227514,22.222222222222225 114.70899470899472,21.58730158730159 114.49735449735451,20.952380952380953 114.28571428571429,20.31746031746032 114.07407407407408,19.682539682539684 113.86243386243387,19.047619047619047 113.43915343915344,18.412698412698415 113.22751322751324,17.77777777777778 112.80423280423281,17.354497354497354 112.5925925925926,16.71957671957672 112.16931216931218,16.084656084656086 111.95767195767196,15.449735449735451 111.53439153439155,15.026455026455027 111.32275132275133,14.391534391534393 110.89947089947091,13.756613756613758 110.47619047619048,13.333333333333334 110.26455026455027,12.6984126984127 110.05291005291006,12.063492063492065 109.84126984126985,11.428571428571429 109.41798941798943,10.793650793650794 109.41798941798943,10.15873015873016 109.20634920634922,9.523809523809524 108.994708994709,8.88888888888889 109.20634920634922,8.253968253968255 109.20634920634922,7.6190476190476195 109.20634920634922,6.984126984126985 109.20634920634922,6.34920634920635 109.41798941798943,5.714285714285714 109.41798941798943,5.07936507936508 109.62962962962963,4.444444444444445 110.05291005291006,3.8095238095238098 110.47619047619048,3.174603174603175 110.89947089947091,2.53968253968254 111.53439153439155,2.1164021164021167 112.16931216931218,1.6931216931216932 112.80423280423281,1.4814814814814816 113.43915343915344,1.26984126984127 114.07407407407408,1.0582010582010584 114.70899470899472,0.8465608465608466 115.34391534391536,0.8465608465608466 115.97883597883599,0.634920634920635 116.61375661375662,0.634920634920635 117.24867724867725,0.4232804232804233 117.88359788359789,0.4232804232804233 118.51851851851853,0.4232804232804233 119.15343915343917,0.4232804232804233 119.7883597883598,0.4232804232804233 120.42328042328043,0.4232804232804233 121.05820105820106,0.4232804232804233 121.6931216931217,0.634920634920635 122.32804232804234,0.634920634920635 122.96296296296298,0.634920634920635 123.59788359788361,0.8465608465608466 124.23280423280424,1.0582010582010584 124.86772486772487,1.0582010582010584 125.5026455026455,1.26984126984127 126.13756613756615,1.4814814814814816 126.77248677248679,1.6931216931216932 127.40740740740742,1.6931216931216932 128.04232804232805,1.9047619047619049 128.67724867724868,2.1164021164021167 129.31216931216932,2.1164021164021167 129.94708994708995,2.3280423280423284 130.58201058201058,2.3280423280423284 131.21693121693121,2.53968253968254 131.85185185185185,2.7513227513227516 132.4867724867725,2.7513227513227516 133.12169312169314,2.9629629629629632 133.75661375661377,3.174603174603175 134.3915343915344,3.174603174603175 135.02645502645504,3.174603174603175 135.66137566137567,3.3862433862433865 136.2962962962963,3.597883597883598 136.93121693121694,3.597883597883598 137.56613756613757,3.8095238095238098 138.2010582010582,3.8095238095238098 138.83597883597884,3.8095238095238098 139.47089947089947,4.021164021164021 140.10582010582013,4.021164021164021 140.74074074074076,4.021164021164021 141.3756613756614,4.2328042328042335 142.01058201058203,4.2328042328042335 142.64550264550266,4.2328042328042335 143.2804232804233,4.444444444444445 143.91534391534393,4.656084656084657 144.55026455026456,4.656084656084657 145.1851851851852,4.656084656084657 145.82010582010582,4.656084656084657 146.45502645502646,4.656084656084657 147.0899470899471,4.656084656084657 147.72486772486775,4.656084656084657 148.35978835978838,4.867724867724868 148.99470899470901,4.867724867724868 149.62962962962965,4.867724867724868 150.26455026455028,5.07936507936508 150.8994708994709,4.867724867724868 151.53439153439155,5.07936507936508 152.16931216931218,5.291005291005291 152.8042328042328,5.07936507936508 153.43915343915344,5.291005291005291 154.07407407407408,5.291005291005291 154.7089947089947,5.291005291005291 155.34391534391534,5.502645502645503 155.978835978836,5.502645502645503 156.61375661375664,5.714285714285714 157.24867724867727,5.714285714285714 157.8835978835979,5.714285714285714 158.51851851851853,5.714285714285714 159.15343915343917,5.9259259259259265 159.7883597883598,5.9259259259259265 160.42328042328043,5.9259259259259265 161.05820105820106,5.9259259259259265 161.6931216931217,5.9259259259259265 162.32804232804233,5.9259259259259265 162.96296296296296,5.9259259259259265 163.59788359788362,6.137566137566138 164.23280423280426,6.137566137566138 164.8677248677249,6.137566137566138 165.50264550264552,6.34920634920635 166.13756613756615,6.34920634920635 166.7724867724868,6.34920634920635 167.40740740740742,6.34920634920635 168.04232804232805,6.34920634920635 168.67724867724868,6.34920634920635 173.12169312169314,6.560846560846561" style="fill:none; stroke:#cc0000; stroke-width:1.0"  /><polyline points="173.12169312169314,6.560846560846561 173.54497354497354,9.735449735449736 173.75661375661377,10.370370370370372 173.75661375661377,11.005291005291006 173.96825396825398,11.640211640211641 173.96825396825398,12.275132275132275 174.1798941798942,12.910052910052912 174.1798941798942,13.544973544973546 174.3915343915344,14.17989417989418 174.3915343915344,14.814814814814817 174.6031746031746,15.449735449735451 174.6031746031746,16.084656084656086 174.81481481481484,16.71957671957672 174.81481481481484,17.354497354497354 175.02645502645504,17.98941798941799 175.02645502645504,18.624338624338627 175.23809523809524,19.25925925925926 175.02645502645504,19.894179894179896 175.02645502645504,20.529100529100532 175.02645502645504,21.164021164021165 175.23809523809524,21.7989417989418 175.23809523809524,22.433862433862437 175.23809523809524,23.06878306878307 175.44973544973547,23.703703703703706 175.44973544973547,24.338624338624342 175.44973544973547,24.973544973544975 175.44973544973547,25.60846560846561 175.66137566137567,26.243386243386244 175.66137566137567,26.87830687830688 175.66137566137567,27.513227513227516 175.66137566137567,28.14814814814815 175.66137566137567,28.783068783068785 175.66137566137567,29.41798941798942 175.66137566137567,30.052910052910054 175.66137566137567,30.68783068783069 175.87301587301587,31.322751322751326 175.87301587301587,31.95767195767196 175.87301587301587,32.592592592592595 175.66137566137567,33.22751322751323 175.66137566137567,33.86243386243387 175.66137566137567,34.4973544973545 175.66137566137567,35.13227513227513 175.66137566137567,35.76719576719577 175.66137566137567,36.402116402116405 175.66137566137567,37.03703703703704 175.66137566137567,37.67195767195768 175.66137566137567,38.30687830687831 175.66137566137567,38.94179894179894 175.44973544973547,39.57671957671958 175.44973544973547,40.211640211640216 175.44973544973547,40.84656084656085 175.44973544973547,41.48148148148149 175.23809523809524,42.11640211640212 175.23809523809524,42.75132275132275 175.23809523809524,43.386243386243386 175.23809523809524,44.021164021164026 175.23809523809524,44.65608465608466 175.23809523809524,45.29100529100529 175.23809523809524,45.92592592592593 175.02645502645504,46.560846560846564 175.02645502645504,47.195767195767196 174.81481481481484,47.830687830687836 174.81481481481484,48.46560846560847 174.81481481481484,49.1005291005291 174.6031746031746,49.73544973544974 174.6031746031746,50.370370370370374 174.3915343915344,51.00529100529101 174.3915343915344,51.640211640211646 174.1798941798942,52.27513227513228 174.1798941798942,52.91005291005291 173.96825396825398,53.54497354497355 173.96825396825398,54.179894179894184 173.75661375661377,54.81481481481482 173.54497354497354,55.449735449735456 173.33333333333334,56.08465608465609 173.33333333333334,56.71957671957672 173.12169312169314,57.35449735449736 172.9100529100529,57.989417989417994 172.6984126984127,58.62433862433863 172.4867724867725,59.25925925925927 172.27513227513228,59.8941798941799 172.06349206349208,60.52910052910053 171.85185185185188,61.16402116402117 171.85185185185188,61.798941798941804 171.64021164021165,62.43386243386244 171.42857142857144,63.06878306878308 171.21693121693124,63.70370370370371 171.005291005291,64.33862433862434 170.7936507936508,64.97354497354497 170.7936507936508,65.60846560846561 170.58201058201058,66.24338624338625 170.58201058201058,66.87830687830689 170.58201058201058,67.51322751322752 170.58201058201058,68.14814814814815 170.58201058201058,68.78306878306879 170.7936507936508,69.41798941798942 171.005291005291,70.05291005291006 171.21693121693124,70.6878306878307 171.42857142857144,71.32275132275133 171.85185185185188,71.95767195767196 172.27513227513228,72.5925925925926 172.6984126984127,73.22751322751323 173.12169312169314,73.65079365079366 173.54497354497354,74.07407407407408 174.1798941798942,74.49735449735451 174.81481481481484,74.70899470899471 175.44973544973547,75.13227513227514 176.0846560846561,75.13227513227514 176.71957671957674,75.55555555555556 177.35449735449737,75.55555555555556 177.989417989418,75.34391534391536 178.62433862433863,75.34391534391536 179.25925925925927,75.34391534391536 179.8941798941799,75.55555555555556 180.52910052910053,75.55555555555556 181.16402116402116,75.13227513227514 181.79894179894183,74.92063492063492 182.43386243386246,74.70899470899471 183.0687830687831,74.49735449735451 183.70370370370372,74.28571428571429 184.33862433862436,74.49735449735451 184.973544973545,74.28571428571429 185.60846560846562,74.07407407407408 186.24338624338625,73.86243386243387 186.8783068783069,73.65079365079366 187.51322751322752,73.43915343915344 188.14814814814815,73.22751322751323 189.20634920634922,72.80423280423281 189.84126984126985,72.5925925925926 190.47619047619048,72.38095238095238 191.11111111111111,72.16931216931218 191.74603174603175,72.16931216931218 192.3809523809524,71.95767195767196 193.01587301587304,71.95767195767196 193.65079365079367,71.74603174603175 194.2857142857143,71.74603174603175 194.92063492063494,71.74603174603175 195.55555555555557,71.74603174603175 196.1904761904762,71.74603174603175 196.82539682539684,71.74603174603175 197.46031746031747,71.74603174603175 198.0952380952381,71.74603174603175 198.73015873015873,71.95767195767196 199.36507936507937,71.95767195767196 200.00000000000003,72.16931216931218 200.63492063492066,72.38095238095238 201.2698412698413,72.5925925925926 201.90476190476193,72.80423280423281 202.53968253968256,73.22751322751323 202.962962962963,73.65079365079366 203.59788359788362,74.07407407407408 204.02116402116403,74.49735449735451 204.44444444444446,75.13227513227514 204.65608465608466,75.76719576719577 205.0793650793651,76.4021164021164 205.29100529100532,77.03703703703704 205.50264550264552,77.67195767195767 205.71428571428572,78.30687830687832 206.13756613756615,78.94179894179895 206.34920634920636,79.57671957671958 206.56084656084658,80.21164021164022 206.56084656084658,80.84656084656085 206.7724867724868,81.48148148148148 206.7724867724868,82.11640211640213 206.984126984127,82.75132275132276 206.984126984127,83.3862433862434 206.984126984127,84.02116402116403 206.984126984127,84.65608465608466 206.984126984127,85.29100529100529 206.984126984127,85.92592592592594 206.984126984127,86.56084656084657 206.984126984127,87.1957671957672 206.7724867724868,87.83068783068784 206.7724867724868,88.46560846560847 206.7724867724868,89.1005291005291 206.56084656084658,89.73544973544975 206.56084656084658,90.37037037037038 206.34920634920636,91.00529100529101 206.13756613756615,91.64021164021165 205.92592592592595,92.27513227513228 205.71428571428572,92.91005291005291 205.50264550264552,93.54497354497356 205.29100529100532,94.17989417989419 205.0793650793651,94.81481481481482 204.65608465608466,95.44973544973546 204.23280423280426,96.08465608465609 204.02116402116403,96.71957671957672 203.59788359788362,97.35449735449737 203.1746031746032,97.989417989418 202.75132275132276,98.62433862433863 202.32804232804233,99.25925925925927 201.90476190476193,99.8941798941799 201.4814814814815,100.31746031746033 201.05820105820106,100.95238095238096 200.63492063492066,101.37566137566138 200.21164021164023,101.79894179894181 199.7883597883598,102.22222222222223 199.15343915343917,102.64550264550266 198.51851851851853,103.06878306878308 197.8835978835979,103.4920634920635 197.24867724867727,103.70370370370371 196.61375661375664,103.91534391534393 195.978835978836,104.12698412698414 195.34391534391537,104.33862433862434 194.70899470899474,104.33862433862434 194.07407407407408,104.55026455026456 193.43915343915344,104.55026455026456 192.8042328042328,104.55026455026456 192.16931216931218,104.55026455026456 191.53439153439155,104.33862433862434 190.8994708994709,104.33862433862434 190.26455026455028,104.12698412698414 189.62962962962965,103.91534391534393 188.99470899470901,103.91534391534393 188.35978835978838,103.4920634920635 187.72486772486775,103.28042328042329 187.08994708994712,102.85714285714286 186.45502645502646,102.43386243386244 185.82010582010582,102.01058201058201 185.1851851851852,101.5873015873016 184.55026455026456,101.16402116402116 184.12698412698415,100.74074074074075 183.70370370370372,100.31746031746033 183.0687830687831,99.8941798941799 182.64550264550266,99.47089947089948 182.01058201058203,99.04761904761905 181.5873015873016,98.62433862433863 181.16402116402116,98.2010582010582 180.52910052910053,97.989417989418 180.10582010582013,97.56613756613757 179.4708994708995,97.14285714285715 178.83597883597884,96.71957671957672 178.41269841269843,96.2962962962963 177.7777777777778,95.87301587301587 177.14285714285717,95.44973544973546 176.50793650793653,95.23809523809524 175.87301587301587,94.81481481481482 175.23809523809524,94.60317460317461 174.6031746031746,94.60317460317461 173.96825396825398,94.39153439153439 173.33333333333334,94.39153439153439 172.6984126984127,94.39153439153439 172.06349206349208,94.39153439153439 171.42857142857144,94.60317460317461 170.7936507936508,94.81481481481482 170.15873015873018,95.02645502645504 169.73544973544975,95.44973544973546 169.10052910052912,95.87301587301587 168.46560846560848,96.2962962962963 168.25396825396825,96.93121693121694 167.83068783068785,97.56613756613757 167.61904761904762,98.2010582010582 167.19576719576722,98.62433862433863 167.19576719576722,99.25925925925927 166.984126984127,99.8941798941799 166.984126984127,100.52910052910053 166.7724867724868,101.16402116402116 166.7724867724868,101.79894179894181 166.56084656084658,102.43386243386244 166.56084656084658,103.06878306878308 166.56084656084658,103.70370370370371 166.34920634920636,104.33862433862434 166.34920634920636,104.97354497354497 166.13756613756615,105.60846560846562 166.13756613756615,106.24338624338625 166.13756613756615,106.87830687830689 166.13756613756615,107.51322751322752 165.92592592592595,108.14814814814815 165.92592592592595,108.78306878306879 165.92592592592595,109.41798941798943 165.71428571428572,110.05291005291006 165.71428571428572,110.6878306878307 165.71428571428572,111.32275132275133 165.71428571428572,111.95767195767196 165.71428571428572,112.5925925925926 165.50264550264552,113.22751322751324 165.50264550264552,113.86243386243387 165.71428571428572,114.49735449735451 165.71428571428572,115.13227513227514 165.71428571428572,115.76719576719577 165.71428571428572,116.4021164021164 165.71428571428572,117.03703703703705 165.50264550264552,117.67195767195768 165.50264550264552,118.30687830687832 165.50264550264552,118.94179894179895 165.50264550264552,119.57671957671958 165.50264550264552,120.21164021164022 165.2910052910053,120.84656084656086 165.2910052910053,121.4814814814815 165.2910052910053,122.11640211640213 165.2910052910053,122.75132275132276 165.2910052910053,123.3862433862434 165.2910052910053,124.02116402116403 165.2910052910053,124.65608465608466 165.50264550264552,125.2910052910053 165.50264550264552,125.92592592592594 165.50264550264552,126.56084656084657 165.50264550264552,127.1957671957672 165.50264550264552,127.83068783068784 165.50264550264552,128.46560846560848 165.50264550264552,129.10052910052912 165.71428571428572,129.73544973544975 165.71428571428572,130.37037037037038 165.71428571428572,131.005291005291 165.71428571428572,131.64021164021165 165.71428571428572,132.27513227513228 165.71428571428572,132.9100529100529 165.92592592592595,133.54497354497354 165.92592592592595,134.17989417989418 165.92592592592595,134.81481481481484 166.13756613756615,138.62433862433863" style="fill:none; stroke:#999900; stroke-width:1.0"  /><polyline points="166.13756613756615,138.62433862433863 162.53968253968256,137.7777777777778 161.90476190476193,137.56613756613757 161.2698412698413,137.56613756613757 160.63492063492066,137.35449735449737 160.0,137.14285714285717 159.36507936507937,137.14285714285717 158.73015873015873,136.93121693121694 158.0952380952381,136.71957671957674 157.46031746031747,136.5079365079365 156.82539682539684,136.5079365079365 156.1904761904762,136.2962962962963 155.55555555555557,136.2962962962963 154.92063492063494,136.0846560846561 154.2857142857143,135.87301587301587 153.65079365079367,135.87301587301587 153.01587301587304,135.66137566137567 152.38095238095238,135.66137566137567 151.74603174603175,135.44973544973547 151.11111111111111,135.23809523809524 150.47619047619048,135.23809523809524 149.84126984126985,135.02645502645504 149.20634920634922,135.02645502645504 148.57142857142858,134.81481481481484 147.93650793650795,134.6031746031746 147.30158730158732,134.6031746031746 146.66666666666669,134.3915343915344 146.03174603174605,134.3915343915344 145.39682539682542,134.3915343915344 144.76190476190476,134.17989417989418 144.12698412698413,134.17989417989418 143.4920634920635,133.96825396825398 142.85714285714286,133.96825396825398 142.22222222222223,133.75661375661377 141.5873015873016,133.54497354497354 140.95238095238096,133.54497354497354 140.31746031746033,133.33333333333334 139.6825396825397,133.12169312169314 139.04761904761907,133.12169312169314 138.41269841269843,132.9100529100529 137.7777777777778,132.9100529100529 137.14285714285717,132.6984126984127 136.5079365079365,132.4867724867725 135.87301587301587,132.27513227513228 135.23809523809524,132.27513227513228 134.6031746031746,132.06349206349208 133.96825396825398,132.06349206349208 133.33333333333334,131.85185185185185 132.6984126984127,131.64021164021165 132.06349206349208,131.42857142857144 131.42857142857144,131.42857142857144 130.7936507936508,131.21693121693121 130.15873015873018,131.005291005291 129.52380952380955,130.7936507936508 128.88888888888889,130.58201058201058 128.25396825396825,130.58201058201058 127.61904761904763,130.37037037037038 126.98412698412699,130.15873015873018 126.34920634920636,129.94708994708995 125.71428571428572,129.94708994708995 125.07936507936509,129.73544973544975 124.44444444444446,129.52380952380955 123.80952380952382,129.52380952380955 123.17460317460318,129.31216931216932 122.53968253968254,129.10052910052912 121.90476190476191,128.88888888888889 121.26984126984128,128.67724867724868 120.63492063492065,128.67724867724868 120.00000000000001,128.46560846560848 119.36507936507937,128.25396825396825 118.73015873015873,128.25396825396825 118.0952380952381,128.04232804232805 117.46031746031747,128.04232804232805 116.82539682539684,127.83068783068784 116.1904761904762,127.83068783068784 115.55555555555557,127.61904761904763 114.92063492063492,127.61904761904763 114.28571428571429,127.40740740740742 113.65079365079366,127.40740740740742 113.01587301587303,127.40740740740742 112.3809523809524,127.40740740740742 111.74603174603176,127.40740740740742 111.11111111111111,127.40740740740742 110.47619047619048,127.61904761904763 109.84126984126985,127.61904761904763 109.20634920634922,127.83068783068784 108.57142857142858,127.83068783068784 107.93650793650795,127.83068783068784 107.3015873015873,128.04232804232805 106.66666666666667,128.04232804232805 106.03174603174604,128.04232804232805 105.3968253968254,128.25396825396825 104.76190476190477,128.46560846560848 104.12698412698414,128.46560846560848 103.4920634920635,128.67724867724868 102.85714285714286,128.67724867724868 102.22222222222223,128.88888888888889 101.5873015873016,129.10052910052912 100.95238095238096,129.31216931216932 100.31746031746033,129.73544973544975 99.68253968253968,130.15873015873018 99.25925925925927,130.58201058201058 98.83597883597885,131.005291005291 98.41269841269842,131.42857142857144 97.989417989418,132.06349206349208 97.56613756613757,132.6984126984127 97.35449735449737,133.33333333333334 97.35449735449737,133.96825396825398 97.35449735449737,134.6031746031746 97.35449735449737,135.23809523809524 97.56613756613757,135.87301587301587 97.56613756613757,136.5079365079365 97.77777777777779,137.14285714285717 97.989417989418,137.7777777777778 98.2010582010582,138.41269841269843 98.41269841269842,139.04761904761907 98.62433862433863,139.6825396825397 98.83597883597885,140.31746031746033 99.04761904761905,140.95238095238096 99.04761904761905,141.5873015873016 99.25925925925927,142.22222222222223 99.47089947089948,142.85714285714286 99.68253968253968,143.4920634920635 99.8941798941799,144.12698412698413 100.10582010582011,144.76190476190476 100.10582010582011,145.39682539682542 100.31746031746033,146.03174603174605 100.52910052910053,146.66666666666669 100.52910052910053,147.30158730158732 100.74074074074075,147.93650793650795 100.74074074074075,148.57142857142858 101.16402116402116,149.20634920634922 101.16402116402116,149.84126984126985 101.16402116402116,150.47619047619048 101.16402116402116,151.11111111111111 101.16402116402116,151.74603174603175 100.95238095238096,152.38095238095238 100.74074074074075,153.01587301587304 100.74074074074075,153.65079365079367 100.52910052910053,154.2857142857143 100.52910052910053,154.92063492063494 100.31746031746033,155.55555555555557 100.10582010582011,156.1904761904762 100.10582010582011,156.82539682539684 99.68253968253968,157.46031746031747 99.47089947089948,158.0952380952381 99.25925925925927,158.73015873015873 98.83597883597885,159.36507936507937 98.41269841269842,160.0 97.989417989418,160.63492063492066 97.56613756613757,161.05820105820106 97.14285714285715,161.4814814814815 96.50793650793652,161.90476190476193 95.87301587301587,162.32804232804233 95.23809523809524,162.53968253968256 94.60317460317461,162.75132275132276 93.96825396825398,162.96296296296296 93.33333333333334,162.96296296296296 92.69841269841271,163.1746031746032 92.06349206349208,163.1746031746032 91.42857142857143,163.1746031746032 90.7936507936508,163.3862433862434 90.15873015873017,163.3862433862434 89.52380952380953,163.3862433862434 88.8888888888889,163.3862433862434 88.25396825396827,163.3862433862434 87.61904761904762,163.3862433862434 86.98412698412699,163.59788359788362 86.34920634920636,163.59788359788362 85.71428571428572,163.59788359788362 85.07936507936509,163.59788359788362 84.44444444444446,163.59788359788362 83.80952380952381,163.59788359788362 83.17460317460318,163.59788359788362 82.53968253968254,163.3862433862434 81.90476190476191,163.3862433862434 81.26984126984128,163.3862433862434 80.63492063492065,163.3862433862434 80.0,163.1746031746032 79.36507936507937,162.96296296296296 78.73015873015873,162.96296296296296 78.0952380952381,162.75132275132276 77.46031746031747,162.75132275132276 76.82539682539684,162.53968253968256 76.19047619047619,162.32804232804233 75.55555555555556,162.32804232804233 74.92063492063492,162.11640211640213 74.28571428571429,161.90476190476193 73.65079365079366,161.6931216931217 73.01587301587303,161.4814814814815 72.38095238095238,161.4814814814815 71.74603174603175,161.2698412698413 71.11111111111111,161.05820105820106 70.47619047619048,160.84656084656086 69.84126984126985,160.63492063492066 69.20634920634922,160.42328042328043 68.57142857142858,160.0 67.93650793650794,159.7883597883598 67.3015873015873,159.36507936507937 66.66666666666667,159.15343915343917 66.24338624338625,158.73015873015873 65.60846560846561,158.51851851851853 65.18518518518519,158.0952380952381 64.55026455026456,157.67195767195767 64.12698412698413,157.24867724867727 63.70370370370371,156.82539682539684 63.280423280423285,156.4021164021164 62.85714285714286,155.978835978836 62.43386243386244,155.55555555555557 62.01058201058201,155.13227513227514 61.58730158730159,154.4973544973545 61.37566137566138,153.86243386243387 61.16402116402117,153.22751322751324 60.952380952380956,152.5925925925926 60.74074074074075,151.95767195767198 60.74074074074075,151.32275132275134 60.74074074074075,150.6878306878307 60.74074074074075,150.05291005291005 60.952380952380956,149.41798941798942 60.952380952380956,148.78306878306879 61.16402116402117,148.14814814814815 61.37566137566138,147.51322751322752 61.58730158730159,146.8783068783069 61.798941798941804,146.24338624338625 62.01058201058201,145.60846560846562 62.22222222222223,144.973544973545 62.64550264550265,144.55026455026456 63.06878306878308,143.91534391534393 63.492063492063494,143.2804232804233 63.91534391534392,142.64550264550266 64.33862433862434,142.01058201058203 64.76190476190477,141.5873015873016 65.18518518518519,140.95238095238096 65.60846560846561,140.52910052910053 66.03174603174604,139.8941798941799 66.45502645502646,139.47089947089947 66.87830687830689,138.83597883597884 67.3015873015873,138.41269841269843 67.72486772486774,137.989417989418 68.14814814814815,137.35449735449737 68.57142857142858,136.93121693121694 68.994708994709,136.2962962962963 69.41798941798942,135.87301587301587 69.84126984126985,135.23809523809524 70.26455026455027,134.81481481481484 70.6878306878307,134.17989417989418 71.11111111111111,133.75661375661377 71.53439153439155,133.12169312169314 71.95767195767196,132.6984126984127 72.38095238095238,132.27513227513228 72.80423280423281,131.85185185185185 73.22751322751323,131.21693121693121 73.65079365079366,130.58201058201058 74.07407407407408,129.94708994708995 74.49735449735451,129.31216931216932 74.70899470899471,128.67724867724868 74.92063492063492,128.04232804232805 75.13227513227514,127.40740740740742 75.34391534391536,126.77248677248679 75.55555555555556,126.13756613756615 75.34391534391536,125.5026455026455 75.34391534391536,124.86772486772487 75.13227513227514,124.23280423280424 74.92063492063492,123.59788359788361 74.70899470899471,122.96296296296298 74.28571428571429,122.53968253968254 73.86243386243387,122.11640211640213 73.43915343915344,121.6931216931217 73.01587301587303,121.26984126984128 72.5925925925926,120.84656084656086 71.95767195767196,120.42328042328043 71.32275132275133,120.21164021164022 70.6878306878307,120.00000000000001 70.05291005291006,119.7883597883598 69.41798941798942,119.57671957671958 68.78306878306879,119.36507936507937 68.14814814814815,119.15343915343917 67.51322751322752,119.15343915343917 66.87830687830689,118.94179894179895 66.24338624338625,118.94179894179895 65.60846560846561,118.73015873015873 64.97354497354497,118.73015873015873 64.33862433862434,118.73015873015873 63.70370370370371,118.73015873015873 63.06878306878308,118.73015873015873 62.43386243386244,118.73015873015873 61.798941798941804,118.73015873015873 61.16402116402117,118.73015873015873 60.52910052910053,118.94179894179895 59.8941798941799,119.15343915343917 59.25925925925927,119.15343915343917 58.62433862433863,119.36507936507937 57.989417989417994,119.36507936507937 57.35449735449736,119.57671957671958 56.71957671957672,119.57671957671958 56.08465608465609,119.57671957671958 55.449735449735456,119.7883597883598 54.81481481481482,119.7883597883598 54.179894179894184,120.00000000000001 53.54497354497355,120.21164021164022 52.91005291005291,120.21164021164022 52.27513227513228,120.42328042328043 51.640211640211646,120.42328042328043 51.00529100529101,120.42328042328043 50.370370370370374,120.63492063492065 49.73544973544974,120.63492063492065 49.1005291005291,120.84656084656086 48.46560846560847,120.84656084656086 47.830687830687836,121.05820105820106 47.195767195767196,121.05820105820106 46.560846560846564,121.26984126984128 45.92592592592593,121.4814814814815 45.29100529100529,121.4814814814815 44.65608465608466,121.4814814814815 44.021164021164026,121.6931216931217 43.386243386243386,121.6931216931217 42.75132275132275,121.90476190476191 42.11640211640212,121.90476190476191 41.48148148148149,121.90476190476191 40.84656084656085,122.11640211640213 40.211640211640216,122.32804232804234 39.57671957671958,122.32804232804234 38.94179894179894,122.32804232804234 38.30687830687831,122.53968253968254 37.67195767195768,122.53968253968254 37.03703703703704,122.53968253968254 36.402116402116405,122.75132275132276 35.76719576719577,122.75132275132276 35.13227513227513,122.75132275132276 34.4973544973545,122.96296296296298 33.86243386243387,122.96296296296298 33.22751322751323,123.17460317460318 32.592592592592595,123.17460317460318 31.95767195767196,123.17460317460318 31.322751322751326,123.17460317460318 30.68783068783069,123.17460317460318 30.052910052910054,123.17460317460318 29.41798941798942,123.3862433862434 28.783068783068785,123.3862433862434 28.14814814814815,123.3862433862434 27.513227513227516,123.3862433862434 26.87830687830688,123.3862433862434 26.243386243386244,123.3862433862434 25.60846560846561,123.3862433862434 24.973544973544975,123.3862433862434 24.338624338624342,123.3862433862434 23.703703703703706,123.3862433862434 23.06878306878307,123.3862433862434 22.433862433862437,123.59788359788361 21.7989417989418,123.59788359788361 21.164021164021165,123.59788359788361 20.529100529100532,123.59788359788361 19.894179894179896,123.59788359788361 19.25925925925926,123.59788359788361 18.624338624338627,123.59788359788361 17.98941798941799,123.80952380952382 17.354497354497354,123.80952380952382 16.71957671957672,123.80952380952382 16.084656084656086,123.80952380952382 15.449735449735451,123.80952380952382 14.814814814814817,123.80952380952382 14.17989417989418,123.80952380952382 13.544973544973546,123.80952380952382 12.910052910052912,123.80952380952382 12.275132275132275,124.02116402116403 11.640211640211641,124.02116402116403 7.407407407407408,124.23280423280424" style="fill:none; stroke:#00aa99; stroke-width:1.0"  /><polyline points="7.407407407407408,124.23280423280424 9.100529100529101,120.42328042328043 9.312169312169313,119.7883597883598 9.523809523809524,119.15343915343917 9.947089947089948,118.51851851851853 10.15873015873016,117.88359788359789 10.370370370370372,117.24867724867725 10.582010582010582,116.61375661375662 11.005291005291006,115.97883597883599 11.216931216931219,115.34391534391536 11.640211640211641,114.70899470899472 11.640211640211641,114.07407407407408 11.851851851851853,113.43915343915344 12.275132275132275,113.01587301587303 12.486772486772487,112.3809523809524 12.6984126984127,111.74603174603176 13.121693121693122,111.11111111111111 13.544973544973546,110.47619047619048 13.756613756613758,109.84126984126985 14.17989417989418,109.41798941798943 14.391534391534393,108.78306878306879 14.814814814814817,108.14814814814815 15.238095238095239,107.72486772486774 15.449735449735451,107.0899470899471 15.873015873015873,106.45502645502647 16.296296296296298,105.82010582010582 16.71957671957672,105.3968253968254 17.142857142857146,104.76190476190477 17.566137566137566,104.12698412698414 17.98941798941799,103.4920634920635 18.412698412698415,102.85714285714286 18.83597883597884,102.43386243386244 19.25925925925926,101.79894179894181 19.682539682539684,101.37566137566138 20.105820105820108,100.95238095238096 20.529100529100532,100.31746031746033 20.952380952380953,99.8941798941799 21.375661375661377,99.25925925925927 21.7989417989418,98.62433862433863 22.222222222222225,98.2010582010582 22.645502645502646,97.56613756613757 23.06878306878307,97.14285714285715 23.492063492063494,96.71957671957672 23.915343915343918,96.2962962962963 24.338624338624342,95.66137566137567 24.761904761904763,95.23809523809524 25.185185185185187,94.60317460317461 25.60846560846561,94.17989417989419 26.031746031746035,93.54497354497356 26.455026455026456,93.12169312169313 26.87830687830688,92.69841269841271 27.301587301587304,92.27513227513228 27.724867724867728,91.64021164021165 28.14814814814815,91.21693121693123 28.571428571428573,90.7936507936508 28.783068783068785,90.15873015873017 29.20634920634921,89.73544973544975 29.629629629629633,89.31216931216932 29.841269841269842,88.67724867724868 30.052910052910054,88.04232804232805 30.264550264550266,87.40740740740742 30.476190476190478,86.77248677248677 30.476190476190478,86.13756613756614 30.476190476190478,85.5026455026455 30.68783068783069,84.86772486772487 30.68783068783069,84.23280423280424 30.476190476190478,83.59788359788361 30.052910052910054,82.96296296296298 29.841269841269842,82.32804232804233 29.41798941798942,81.90476190476191 28.994708994708997,81.26984126984128 28.571428571428573,80.84656084656085 28.14814814814815,80.42328042328043 27.513227513227516,80.0 26.87830687830688,79.57671957671958 26.243386243386244,79.57671957671958 25.60846560846561,79.36507936507937 24.973544973544975,79.15343915343917 24.338624338624342,78.94179894179895 23.703703703703706,78.94179894179895 23.06878306878307,78.94179894179895 22.433862433862437,78.94179894179895 21.7989417989418,78.94179894179895 21.164021164021165,78.94179894179895 20.529100529100532,79.15343915343917 19.894179894179896,79.15343915343917 19.25925925925926,79.15343915343917 18.624338624338627,79.36507936507937 17.98941798941799,79.57671957671958 17.354497354497354,79.57671957671958 16.71957671957672,79.7883597883598 16.084656084656086,79.7883597883598 15.449735449735451,80.0 14.814814814814817,80.0 14.17989417989418,80.21164021164022 13.544973544973546,80.21164021164022 12.910052910052912,80.42328042328043 12.275132275132275,80.42328042328043 11.640211640211641,80.42328042328043 11.005291005291006,80.63492063492065 10.370370370370372,80.63492063492065 9.735449735449736,80.63492063492065 9.100529100529101,80.63492063492065 8.465608465608467,80.63492063492065 7.830687830687832,80.42328042328043 7.195767195767196,80.42328042328043 6.560846560846561,80.0 5.9259259259259265,79.57671957671958 5.291005291005291,79.57671957671958 4.656084656084657,79.15343915343917 4.2328042328042335,78.73015873015873 3.8095238095238098,78.30687830687832 3.3862433862433865,77.88359788359789 2.9629629629629632,77.24867724867725 2.53968253968254,76.61375661375662 2.3280423280423284,75.97883597883599 2.1164021164021167,75.34391534391536 1.9047619047619049,74.70899470899471 1.9047619047619049,74.07407407407408 1.4814814814814816,73.43915343915344 1.4814814814814816,72.80423280423281 1.26984126984127,72.16931216931218 1.0582010582010584,71.53439153439155 0.8465608465608466,70.8994708994709 0.634920634920635,70.26455026455027 0.634920634920635,69.62962962962963 0.634920634920635,68.994708994709 0.4232804232804233,68.35978835978837 0.4232804232804233,67.72486772486774 0.4232804232804233,67.08994708994709 0.21164021164021166,66.45502645502646 0.21164021164021166,65.82010582010582 0.4232804232804233,65.18518518518519 0.4232804232804233,64.55026455026456 0.21164021164021166,63.91534391534392 0.21164021164021166,63.280423280423285 0.21164021164021166,62.64550264550265 0.4232804232804233,62.01058201058201 0.4232804232804233,61.37566137566138 0.4232804232804233,60.74074074074075 0.634920634920635,60.10582010582011 0.634920634920635,59.470899470899475 0.8465608465608466,58.83597883597884 0.8465608465608466,58.2010582010582 1.0582010582010584,57.56613756613757 1.26984126984127,56.93121693121694 1.4814814814814816,56.2962962962963 1.6931216931216932,55.661375661375665 1.9047619047619049,55.02645502645503 2.1164021164021167,54.39153439153439 2.3280423280423284,53.75661375661376 2.7513227513227516,53.12169312169313 3.174603174603175,52.6984126984127 3.597883597883598,52.06349206349207 4.021164021164021,51.640211640211646 4.656084656084657,51.21693121693122 5.07936507936508,50.7936507936508 5.714285714285714,50.58201058201058 6.137566137566138,50.158730158730165 6.772486772486773,50.158730158730165 7.407407407407408,49.94708994708995 8.042328042328043,49.94708994708995 8.677248677248677,49.73544973544974 9.312169312169313,49.523809523809526 9.947089947089948,49.31216931216932 10.582010582010582,49.31216931216932 11.216931216931219,49.523809523809526 11.851851851851853,49.523809523809526 12.486772486772487,49.523809523809526 13.121693121693122,49.31216931216932 13.756613756613758,49.523809523809526 14.391534391534393,49.523809523809526 15.026455026455027,49.523809523809526 15.661375661375663,49.94708994708995 16.296296296296298,49.94708994708995 16.931216931216934,50.158730158730165 17.566137566137566,50.158730158730165 18.201058201058203,50.370370370370374 18.83597883597884,50.58201058201058 19.47089947089947,50.7936507936508 20.105820105820108,51.00529100529101 20.529100529100532,51.42857142857143 21.164021164021165,51.640211640211646 21.7989417989418,51.851851851851855 22.222222222222225,52.27513227513228 22.857142857142858,52.48677248677249 23.492063492063494,52.6984126984127 24.12698412698413,52.91005291005291 24.761904761904763,52.91005291005291 25.3968253968254,53.12169312169313 26.031746031746035,53.12169312169313 26.666666666666668,52.91005291005291 27.301587301587304,52.91005291005291 27.93650793650794,52.48677248677249 28.571428571428573,52.48677248677249 28.994708994708997,52.06349206349207 29.629629629629633,51.640211640211646 30.052910052910054,51.21693121693122 30.476190476190478,50.7936507936508 30.899470899470902,50.370370370370374 31.322751322751326,49.73544973544974 31.746031746031747,49.1005291005291 31.95767195767196,48.46560846560847 32.16931216931217,47.830687830687836 32.16931216931217,47.195767195767196 32.38095238095239,46.560846560846564 32.38095238095239,45.92592592592593 32.38095238095239,45.29100529100529 32.38095238095239,44.65608465608466 32.16931216931217,44.021164021164026 31.95767195767196,43.386243386243386 31.95767195767196,42.75132275132275 31.95767195767196,42.11640211640212 31.746031746031747,41.48148148148149 31.746031746031747,40.84656084656085 31.53439153439154,40.211640211640216 31.53439153439154,39.57671957671958 31.322751322751326,38.94179894179894 31.322751322751326,38.30687830687831 31.322751322751326,37.67195767195768 31.111111111111114,37.03703703703704 31.111111111111114,36.402116402116405 31.111111111111114,35.76719576719577 31.111111111111114,35.13227513227513 31.111111111111114,34.4973544973545 31.111111111111114,33.86243386243387 31.111111111111114,33.22751322751323 31.111111111111114,32.592592592592595 31.111111111111114,31.95767195767196 31.111111111111114,31.322751322751326 31.322751322751326,30.68783068783069 31.322751322751326,30.052910052910054 31.322751322751326,29.41798941798942 31.322751322751326,28.783068783068785 31.53439153439154,28.14814814814815 31.53439153439154,27.513227513227516 31.746031746031747,26.87830687830688 31.746031746031747,26.243386243386244 31.95767195767196,25.60846560846561 31.95767195767196,24.973544973544975 32.38095238095239,24.338624338624342 32.38095238095239,23.703703703703706 32.592592592592595,23.06878306878307 32.592592592592595,22.433862433862437 32.804232804232804,21.7989417989418 33.22751322751323,21.164021164021165 33.22751322751323,20.529100529100532 33.43915343915344,19.894179894179896 33.65079365079365,19.25925925925926 33.86243386243387,18.624338624338627 34.074074074074076,17.98941798941799 34.28571428571429,17.354497354497354 34.28571428571429,16.71957671957672 34.70899470899471,16.084656084656086 34.920634920634924,15.449735449735451 35.13227513227513,14.814814814814817 35.34391534391535,14.17989417989418 35.55555555555556,13.544973544973546 35.76719576719577,12.910052910052912 35.97883597883598,12.275132275132275 37.03703703703704,8.88888888888889" style="fill:none; stroke:#3300bb; stroke-width:1.0"  /><circle cx="37.03703703703704" cy="8.88888888888889" r="2.0" style="fill:none; stroke:#000000aa; stroke-width:0.25" /><circle cx="173.12169312169314" cy="6.560846560846561" r="2.0" style="fill:none; stroke:#000000aa; stroke-width:0.25" /><circle cx="166.13756613756615" cy="138.62433862433863" r="2.0" style="fill:none; stroke:#000000aa; stroke-width:0.25" /><circle cx="7.407407407407408" cy="124.23280423280424" r="2.0" style="fill:none; stroke:#000000aa; stroke-width:0.25" /><circle cx="37.248677248677254" cy="8.88888888888889" r="2.0" style="fill:none; stroke:#ff3366aa; stroke-width:0.25" /><circle cx="172.06349206349208" cy="6.984126984126985" r="2.0" style="fill:none; stroke:#ff3366aa; stroke-width:0.25" /><circle cx="165.71428571428572" cy="137.7777777777778" r="2.0" style="fill:none; stroke:#ff3366aa; stroke-width:0.25" /><circle cx="8.677248677248677" cy="123.59788359788361" r="2.0" style="fill:none; stroke:#ff3366aa; stroke-width:0.25" /><polyline points="48.677248677248684,9.523809523809524 48.042328042328045,9.523809523809524 47.40740740740741,9.523809523809524 46.77248677248678,9.523809523809524 46.13756613756614,9.523809523809524 45.50264550264551,9.523809523809524 44.867724867724874,9.312169312169313 44.232804232804234,9.312169312169313 43.5978835978836,9.312169312169313 42.96296296296297,9.100529100529101 42.32804232804233,9.100529100529101 41.6931216931217,9.100529100529101 41.058201058201064,9.100529100529101 40.423280423280424,9.100529100529101" style="fill:none; stroke:#001100; stroke-width:1.0" /><polyline points="33.43915343915344,19.894179894179896 33.65079365079365,19.25925925925926 33.86243386243387,18.624338624338627 34.074074074074076,17.98941798941799 34.28571428571429,17.354497354497354 34.28571428571429,16.71957671957672 34.70899470899471,16.084656084656086 34.920634920634924,15.449735449735451 35.13227513227513,14.814814814814817 35.34391534391535,14.17989417989418 35.55555555555556,13.544973544973546 35.76719576719577,12.910052910052912 35.97883597883598,12.275132275132275" style="fill:none; stroke:#000011; stroke-width:1.0" /><polyline points="175.02645502645504,18.624338624338627 175.02645502645504,17.98941798941799 174.81481481481484,17.354497354497354 174.81481481481484,16.71957671957672 174.6031746031746,16.084656084656086 174.6031746031746,15.449735449735451 174.3915343915344,14.814814814814817 174.3915343915344,14.17989417989418 174.1798941798942,13.544973544973546 174.1798941798942,12.910052910052912 173.96825396825398,12.275132275132275 173.96825396825398,11.640211640211641 173.75661375661377,11.005291005291006 173.75661375661377,10.370370370370372 173.54497354497354,9.735449735449736" style="fill:none; stroke:#001100; stroke-width:1.0" /><polyline points="160.42328042328043,5.9259259259259265 161.05820105820106,5.9259259259259265 161.6931216931217,5.9259259259259265 162.32804232804233,5.9259259259259265 162.96296296296296,5.9259259259259265 163.59788359788362,6.137566137566138 164.23280423280426,6.137566137566138 164.8677248677249,6.137566137566138 165.50264550264552,6.34920634920635 166.13756613756615,6.34920634920635 166.7724867724868,6.34920634920635 167.40740740740742,6.34920634920635 168.04232804232805,6.34920634920635 168.67724867724868,6.34920634920635" style="fill:none; stroke:#000011; stroke-width:1.0" /><polyline points="154.2857142857143,135.87301587301587 154.92063492063494,136.0846560846561 155.55555555555557,136.2962962962963 156.1904761904762,136.2962962962963 156.82539682539684,136.5079365079365 157.46031746031747,136.5079365079365 158.0952380952381,136.71957671957674 158.73015873015873,136.93121693121694 159.36507936507937,137.14285714285717 160.0,137.14285714285717 160.63492063492066,137.35449735449737 161.2698412698413,137.56613756613757 161.90476190476193,137.56613756613757 162.53968253968256,137.7777777777778" style="fill:none; stroke:#001100; stroke-width:1.0" /><polyline points="165.50264550264552,125.92592592592594 165.50264550264552,126.56084656084657 165.50264550264552,127.1957671957672 165.50264550264552,127.83068783068784 165.50264550264552,128.46560846560848 165.50264550264552,129.10052910052912 165.71428571428572,129.73544973544975 165.71428571428572,130.37037037037038 165.71428571428572,131.005291005291 165.71428571428572,131.64021164021165 165.71428571428572,132.27513227513228 165.71428571428572,132.9100529100529 165.92592592592595,133.54497354497354 165.92592592592595,134.17989417989418 165.92592592592595,134.81481481481484" style="fill:none; stroke:#000011; stroke-width:1.0" /><polyline points="12.486772486772487,112.3809523809524 12.275132275132275,113.01587301587303 11.851851851851853,113.43915343915344 11.640211640211641,114.07407407407408 11.640211640211641,114.70899470899472 11.216931216931219,115.34391534391536 11.005291005291006,115.97883597883599 10.582010582010582,116.61375661375662 10.370370370370372,117.24867724867725 10.15873015873016,117.88359788359789 9.947089947089948,118.51851851851853 9.523809523809524,119.15343915343917 9.312169312169313,119.7883597883598 9.100529100529101,120.42328042328043" style="fill:none; stroke:#001100; stroke-width:1.0" /><polyline points="20.529100529100532,123.59788359788361 19.894179894179896,123.59788359788361 19.25925925925926,123.59788359788361 18.624338624338627,123.59788359788361 17.98941798941799,123.80952380952382 17.354497354497354,123.80952380952382 16.71957671957672,123.80952380952382 16.084656084656086,123.80952380952382 15.449735449735451,123.80952380952382 14.814814814814817,123.80952380952382 14.17989417989418,123.80952380952382 13.544973544973546,123.80952380952382 12.910052910052912,123.80952380952382 12.275132275132275,124.02116402116403 11.640211640211641,124.02116402116403" style="fill:none; stroke:#000011; stroke-width:1.0" /><polyline points="40.423280423280424,9.100529100529101 19.25925925925926,8.042328042328043" style="fill:none; stroke:#ffaa00; stroke-width:0.4" /><polyline points="35.97883597883598,12.275132275132275 42.75132275132275,-7.830687830687832" style="fill:none; stroke:#aaff00; stroke-width:0.4" /><polyline points="173.54497354497354,9.735449735449736 170.15873015873018,-11.216931216931219" style="fill:none; stroke:#ffaa00; stroke-width:0.4" /><polyline points="168.67724867724868,6.34920634920635 189.84126984126985,7.407407407407408" style="fill:none; stroke:#aaff00; stroke-width:0.4" /><polyline points="162.53968253968256,137.7777777777778 183.0687830687831,142.43386243386246" style="fill:none; stroke:#ffaa00; stroke-width:0.4" /><polyline points="165.92592592592595,134.81481481481484 166.984126984127,155.978835978836" style="fill:none; stroke:#aaff00; stroke-width:0.4" /><polyline points="9.100529100529101,120.42328042328043 0.8465608465608466,139.8941798941799" style="fill:none; stroke:#ffaa00; stroke-width:0.4" /><polyline points="11.640211640211641,124.02116402116403 -9.523809523809524,125.07936507936509" style="fill:none; stroke:#aaff00; stroke-width:0.4" /><circle cx="100.74074074074075" cy="74.92063492063492" r="1.0" style="fill:#444444; stroke-width:0" /><circle cx="123.59788359788361" cy="82.32804232804233" r="10.582010582010582" style="fill:#ff770022; stroke-width:0" /><circle cx="123.59788359788361" cy="82.32804232804233" r="1.0" style="fill:#ff7700; stroke-width:0" /></svg>