<?xml version="1.0" encoding="UTF-8" standalone="no"?><svg width="640.0" height="523.8095238095239" viewBox="-10 -10 233.33333333333334 194.6031746031746" xmlns="http://www.w3.org/2000/svg" xmlns:xlink="http://www.w3.org/1999/xlink"><polyline points="37.67195767195768,-0.4232804232804233 40.84656084656085,0.4232804232804233 41.48148148148149,0.634920634920635 42.11640211640212,0.8465608465608466 42.75132275132275,1.0582010582010584 43.386243386243386,1.26984126984127 44.021164021164026,1.0582010582010584 44.65608465608466,1.26984126984127 45.29100529100529,1.4814814814814816 45.92592592592593,1.6931216931216932 46.349206349206355,2.1164021164021167 46.98412698412699,2.1164021164021167 47.61904761904762,2.3280423280423284 48.25396825396826,2.53968253968254 48.88888888888889,2.7513227513227516 49.523809523809526,2.7513227513227516 50.158730158730165,2.9629629629629632 50.7936507936508,3.174603174603175 51.42857142857143,3.174603174603175 52.06349206349207,3.597883597883598 52.6984126984127,3.597883597883598 53.333333333333336,3.8095238095238098 53.968253968253975,3.8095238095238098 54.60317460317461,4.021164021164021 55.23809523809524,4.444444444444445 55.87301587301588,4.656084656084657 56.50793650793651,4.656084656084657 57.142857142857146,4.656084656084657 57.56613756613757,5.07936507936508 58.2010582010582,4.867724867724868 58.83597883597884,5.07936507936508 59.470899470899475,5.502645502645503 60.10582010582011,5.714285714285714 60.74074074074075,5.714285714285714 61.37566137566138,5.9259259259259265 62.01058201058201,6.137566137566138 62.64550264550265,6.137566137566138 63.280423280423285,6.560846560846561 63.91534391534392,6.560846560846561 64.55026455026456,6.772486772486773 65.18518518518519,6.984126984126985 65.82010582010582,7.195767195767196 66.45502645502646,7.407407407407408 67.08994708994709,7.407407407407408 67.72486772486774,7.407407407407408 68.35978835978837,7.6190476190476195 68.994708994709,8.042328042328043 69.62962962962963,8.042328042328043 70.26455026455027,8.253968253968255 70.8994708994709,8.677248677248677 71.53439153439155,8.88888888888889 72.16931216931218,8.88888888888889 72.5925925925926,9.312169312169313 73.22751322751323,9.312169312169313 73.86243386243387,9.523809523809524 74.49735449735451,9.735449735449736 75.13227513227514,9.947089947089948 75.76719576719577,10.15873015873016 76.4021164021164,10.582010582010582 77.03703703703704,10.582010582010582 77.67195767195767,10.793650793650794 78.0952380952381,11.216931216931219 78.73015873015873,11.428571428571429 79.36507936507937,11.428571428571429 80.0,11.640211640211641 80.63492063492065,12.063492063492065 81.26984126984128,12.275132275132275 81.90476190476191,12.6984126984127 82.53968253968254,12.910052910052912 83.17460317460318,13.333333333333334 83.59788359788361,13.756613756613758 84.23280423280424,13.96825396825397 84.65608465608466,14.391534391534393 85.29100529100529,14.814814814814817 85.71428571428572,15.238095238095239 86.13756613756614,15.661375661375663 86.56084656084657,16.084656084656086 86.98412698412699,16.50793650793651 87.40740740740742,16.931216931216934 87.83068783068784,17.566137566137566 88.25396825396827,17.98941798941799 88.67724867724868,18.624338624338627 89.1005291005291,19.25925925925926 89.31216931216932,19.894179894179896 89.52380952380953,20.529100529100532 89.73544973544975,21.164021164021165 89.94708994708995,21.7989417989418 89.94708994708995,22.433862433862437 89.94708994708995,23.06878306878307 89.94708994708995,23.703703703703706 89.73544973544975,24.338624338624342 89.73544973544975,24.973544973544975 89.52380952380953,25.60846560846561 89.1005291005291,26.243386243386244 88.8888888888889,26.87830687830688 88.46560846560847,27.301587301587304 88.25396825396827,27.93650793650794 87.83068783068784,28.35978835978836 87.40740740740742,28.994708994708997 86.98412698412699,29.41798941798942 86.56084656084657,29.841269841269842 86.13756613756614,30.264550264550266 85.71428571428572,30.68783068783069 85.29100529100529,31.111111111111114 84.86772486772487,31.746031746031747 84.44444444444446,32.38095238095239 84.02116402116403,32.804232804232804 83.59788359788361,33.43915343915344 83.17460317460318,33.86243386243387 82.75132275132276,34.4973544973545 82.32804232804233,34.920634920634924 81.90476190476191,35.55555555555556 81.48148148148148,35.97883597883598 81.05820105820106,36.613756613756614 80.63492063492065,37.03703703703704 80.21164021164022,37.67195767195768 79.7883597883598,38.30687830687831 79.36507936507937,38.94179894179894 78.94179894179895,39.57671957671958 78.51851851851852,40.211640211640216 78.30687830687832,40.84656084656085 78.0952380952381,41.48148148148149 77.67195767195767,42.11640211640212 77.46031746031747,42.75132275132275 77.03703703703704,43.386243386243386 76.82539682539684,44.021164021164026 76.61375661375662,44.65608465608466 76.4021164021164,45.29100529100529 76.19047619047619,45.92592592592593 75.97883597883599,46.560846560846564 75.76719576719577,47.195767195767196 75.55555555555556,47.830687830687836 75.55555555555556,48.46560846560847 75.34391534391536,49.1005291005291 75.34391534391536,49.73544973544974 75.34391534391536,50.370370370370374 75.34391534391536,51.00529100529101 75.55555555555556,51.640211640211646 75.76719576719577,52.27513227513228 75.97883597883599,52.91005291005291 76.19047619047619,53.54497354497355 76.61375661375662,54.179894179894184 76.82539682539684,54.81481481481482 77.24867724867725,55.23809523809524 77.46031746031747,55.87301587301588 77.88359788359789,56.2962962962963 78.30687830687832,56.71957671957672 78.73015873015873,57.35449735449736 79.15343915343917,57.777777777777786 79.57671957671958,58.2010582010582 80.0,58.62433862433863 80.42328042328043,59.04761904761905 80.84656084656085,59.470899470899475 81.26984126984128,59.8941798941799 81.90476190476191,60.31746031746032 82.32804232804233,60.74074074074075 82.75132275132276,61.16402116402117 83.3862433862434,61.58730158730159 84.02116402116403,62.01058201058201 84.65608465608466,62.43386243386244 85.29100529100529,62.85714285714286 85.92592592592594,63.06878306878308 86.34920634920636,63.492063492063494 86.98412698412699,63.70370370370371 87.61904761904762,63.91534391534392 88.25396825396827,64.12698412698413 88.8888888888889,64.33862433862434 89.52380952380953,64.55026455026456 90.15873015873017,64.76190476190477 90.7936507936508,64.97354497354497 91.42857142857143,65.18518518518519 92.06349206349208,65.18518518518519 92.4867724867725,65.60846560846561 93.12169312169313,65.3968253968254 93.75661375661376,65.60846560846561 94.39153439153439,65.60846560846561 95.02645502645504,65.82010582010582 95.66137566137567,66.24338624338625 96.2962962962963,66.03174603174604 96.93121693121694,66.24338624338625 97.56613756613757,66.24338624338625 98.2010582010582,66.45502645502646 98.83597883597885,66.45502645502646 99.47089947089948,66.45502645502646 100.10582010582011,66.66666666666667 100.74074074074075,66.66666666666667 101.37566137566138,66.66666666666667 102.01058201058201,66.45502645502646 102.64550264550266,66.66666666666667 103.28042328042329,66.66666666666667 103.91534391534393,66.45502645502646 104.55026455026456,66.45502645502646 105.18518518518519,66.45502645502646 105.82010582010582,66.45502645502646 106.45502645502647,66.24338624338625 107.0899470899471,66.03174603174604 107.72486772486774,65.82010582010582 108.35978835978837,65.3968253968254 108.994708994709,64.97354497354497 109.62962962962963,64.55026455026456 110.05291005291006,64.12698412698413 110.6878306878307,63.70370370370371 111.11111111111111,63.06878306878308 111.53439153439155,62.43386243386244 111.95767195767196,61.798941798941804 112.3809523809524,61.16402116402117 112.5925925925926,60.52910052910053 112.80423280423281,59.8941798941799 113.22751322751324,59.25925925925927 113.43915343915344,58.62433862433863 113.43915343915344,57.989417989417994 113.65079365079366,57.35449735449736 113.86243386243387,56.71957671957672 113.86243386243387,56.08465608465609 113.86243386243387,55.449735449735456 114.07407407407408,54.81481481481482 114.07407407407408,54.179894179894184 114.07407407407408,53.54497354497355 114.07407407407408,52.91005291005291 114.07407407407408,52.27513227513228 114.07407407407408,51.640211640211646 114.07407407407408,51.00529100529101 114.07407407407408,50.370370370370374 114.07407407407408,49.73544973544974 114.07407407407408,49.1005291005291 114.07407407407408,48.46560846560847 113.86243386243387,47.830687830687836 113.86243386243387,47.195767195767196 114.07407407407408,46.560846560846564 113.86243386243387,45.92592592592593 113.86243386243387,45.29100529100529 113.86243386243387,44.65608465608466 113.86243386243387,44.021164021164026 113.86243386243387,43.386243386243386 113.86243386243387,42.75132275132275 113.86243386243387,42.11640211640212 113.86243386243387,41.48148148148149 113.65079365079366,40.84656084656085 113.65079365079366,40.211640211640216 113.65079365079366,39.57671957671958 113.65079365079366,38.94179894179894 113.65079365079366,38.30687830687831 113.65079365079366,37.67195767195768 113.65079365079366,37.03703703703704 113.65079365079366,36.402116402116405 113.65079365079366,35.76719576719577 113.65079365079366,35.13227513227513 113.86243386243387,34.4973544973545 113.86243386243387,33.86243386243387 114.07407407407408,33.22751322751323 114.07407407407408,32.592592592592595 114.28571428571429,31.95767195767196 114.49735449735451,31.322751322751326 114.70899470899472,30.68783068783069 114.92063492063492,30.052910052910054 115.34391534391536,29.41798941798942 115.76719576719577,28.783068783068785 116.1904761904762,28.14814814814815 116.82539682539684,27.724867724867728 117.46031746031747,27.513227513227516 118.0952380952381,27.301587301587304 118.73015873015873,26.87830687830688 119.36507936507937,26.87830687830688 120.00000000000001,26.87830687830688 120.63492063492065,26.87830687830688 121.26984126984128,26.87830687830688 121.90476190476191,26.87830687830688 122.32804232804234,27.301587301587304 122.96296296296298,27.301587301587304 123.59788359788361,27.513227513227516 124.23280423280424,27.724867724867728 124.86772486772487,27.93650793650794 125.5026455026455,28.14814814814815 126.13756613756615,28.35978835978836 126.77248677248679,28.571428571428573 127.40740740740742,28.994708994708997 128.04232804232805,29.20634920634921 128.67724867724868,29.41798941798942 129.10052910052912,29.841269841269842 129.52380952380955,30.264550264550266 130.15873015873018,30.68783068783069 130.7936507936508,31.111111111111114 131.42857142857144,31.53439153439154 131.85185185185185,31.95767195767196 132.4867724867725,32.16931216931217 133.12169312169314,32.38095238095239 133.54497354497354,32.804232804232804 134.17989417989418,33.22751322751323 134.6031746031746,33.65079365079365 135.23809523809524,33.86243386243387 135.87301587301587,34.28571428571429 136.5079365079365,34.70899470899471 137.14285714285717,34.920634920634924 137.7777777777778,35.34391534391535 138.41269841269843,35.76719576719577 139.04761904761907,36.19047619047619 139.47089947089947,36.613756613756614 140.10582010582013,36.82539682539683 140.52910052910053,37.248677248677254 141.16402116402116,37.67195767195768 141.7989417989418,38.095238095238095 142.22222222222223,38.51851851851852 142.85714285714286,38.730158730158735 143.2804232804233,39.15343915343916 143.91534391534393,39.57671957671958 144.55026455026456,40.0 145.1851851851852,40.423280423280424 145.60846560846562,40.84656084656085 146.24338624338625,40.84656084656085 146.66666666666669,41.26984126984127 147.30158730158732,41.6931216931217 147.93650793650795,42.11640211640212 148.57142857142858,42.32804232804233 149.20634920634922,42.75132275132275 149.84126984126985,42.96296296296297 150.47619047619048,43.386243386243386 151.11111111111111,43.5978835978836 151.74603174603175,44.021164021164026 152.38095238095238,44.44444444444445 153.01587301587304,44.65608465608466 153.65079365079367,44.867724867724874 154.2857142857143,45.07936507936508 154.92063492063494,45.29100529100529 155.55555555555557,45.50264550264551 156.1904761904762,45.714285714285715 156.82539682539684,45.92592592592593 157.46031746031747,46.13756613756614 158.0952380952381,46.349206349206355 158.73015873015873,46.560846560846564 159.36507936507937,46.560846560846564 160.0,46.77248677248678 160.63492063492066,46.77248677248678 161.2698412698413,46.98412698412699 161.90476190476193,47.195767195767196 162.53968253968256,47.195767195767196 163.1746031746032,47.195767195767196 163.80952380952382,47.40740740740741 164.44444444444446,47.40740740740741 165.0793650793651,47.195767195767196 165.71428571428572,47.195767195767196 166.34920634920636,47.195767195767196 166.984126984127,46.98412698412699 167.61904761904762,46.77248677248678 168.25396825396825,46.560846560846564 168.8888888888889,46.349206349206355 169.52380952380955,46.13756613756614 169.94708994708995,45.714285714285715 170.58201058201058,45.29100529100529 171.21693121693124,45.07936507936508 171.85185185185188,44.65608465608466 172.27513227513228,44.021164021164026 172.9100529100529,43.5978835978836 173.54497354497354,43.17460317460318 174.1798941798942,42.96296296296297 174.6031746031746,42.539682539682545 175.23809523809524,42.11640211640212 175.87301587301587,41.6931216931217 176.50793650793653,41.26984126984127 177.14285714285717,40.84656084656085 177.56613756613757,40.423280423280424 178.2010582010582,40.0 178.83597883597884,39.78835978835979 179.4708994708995,39.36507936507937 180.10582010582013,38.94179894179894 180.74074074074076,38.51851851851852 181.3756613756614,38.095238095238095 182.01058201058203,37.883597883597886 182.43386243386246,37.46031746031746 183.0687830687831,37.03703703703704 183.70370370370372,36.613756613756614 184.33862433862436,36.402116402116405 184.973544973545,35.97883597883598 185.39682539682542,35.55555555555556 186.03174603174605,35.34391534391535 186.45502645502646,34.920634920634924 187.08994708994712,34.70899470899471 187.72486772486775,34.4973544973545 188.35978835978838,34.28571428571429 188.78306878306879,33.86243386243387 189.41798941798945,33.65079365079365 193.01587301587304,31.53439153439154" style="fill:none; stroke:#cc0000; stroke-width:1.0"  /><polyline points="193.01587301587304,31.53439153439154 192.16931216931218,36.19047619047619 192.16931216931218,36.82539682539683 191.95767195767198,37.46031746031746 191.74603174603175,38.095238095238095 191.74603174603175,38.730158730158735 191.53439153439155,39.36507936507937 191.32275132275134,40.0 191.53439153439155,40.63492063492064 191.32275132275134,41.26984126984127 191.32275132275134,41.904761904761905 191.11111111111111,42.539682539682545 190.8994708994709,43.17460317460318 190.6878306878307,43.80952380952381 190.6878306878307,44.44444444444445 190.47619047619048,45.07936507936508 190.47619047619048,45.714285714285715 190.26455026455028,46.349206349206355 190.05291005291008,46.98412698412699 190.05291005291008,47.61904761904762 189.84126984126985,48.25396825396826 189.62962962962965,48.88888888888889 189.62962962962965,49.523809523809526 189.41798941798945,50.158730158730165 189.20634920634922,50.7936507936508 189.20634920634922,51.42857142857143 188.99470899470901,52.06349206349207 188.78306878306879,52.6984126984127 188.78306878306879,53.333333333333336 188.57142857142858,53.968253968253975 188.35978835978838,54.60317460317461 188.14814814814815,55.23809523809524 188.14814814814815,55.87301587301588 187.93650793650795,56.50793650793651 187.72486772486775,57.142857142857146 187.72486772486775,57.777777777777786 187.51322751322752,58.41269841269842 187.30158730158732,59.04761904761905 187.08994708994712,59.682539682539684 186.8783068783069,60.31746031746032 186.66666666666669,60.952380952380956 186.66666666666669,61.58730158730159 186.45502645502646,62.22222222222223 186.24338624338625,62.85714285714286 186.03174603174605,63.492063492063494 185.82010582010582,64.12698412698413 185.60846560846562,64.76190476190477 185.39682539682542,65.3968253968254 185.39682539682542,66.03174603174604 185.1851851851852,66.66666666666667 184.973544973545,67.3015873015873 184.973544973545,67.93650793650794 184.7619047619048,68.57142857142858 184.55026455026456,69.20634920634922 184.33862433862436,69.84126984126985 184.12698412698415,70.47619047619048 183.91534391534393,71.11111111111111 183.70370370370372,71.74603174603175 183.4920634920635,72.38095238095238 183.2804232804233,73.01587301587303 183.0687830687831,73.65079365079366 182.85714285714286,74.28571428571429 182.64550264550266,74.92063492063492 182.43386243386246,75.55555555555556 182.43386243386246,76.19047619047619 182.22222222222223,76.82539682539684 182.01058201058203,77.46031746031747 181.79894179894183,78.0952380952381 181.5873015873016,78.73015873015873 181.16402116402116,79.36507936507937 180.95238095238096,80.0 180.74074074074076,80.63492063492065 180.52910052910053,81.26984126984128 180.31746031746033,81.90476190476191 180.10582010582013,82.53968253968254 179.8941798941799,83.17460317460318 179.4708994708995,83.80952380952381 179.25925925925927,84.44444444444446 179.04761904761907,85.07936507936509 178.83597883597884,85.71428571428572 178.62433862433863,86.34920634920636 178.41269841269843,86.98412698412699 178.2010582010582,87.61904761904762 178.2010582010582,88.25396825396827 178.2010582010582,88.8888888888889 178.2010582010582,89.52380952380953 178.41269841269843,90.15873015873017 178.41269841269843,90.7936507936508 178.62433862433863,91.42857142857143 178.83597883597884,92.06349206349208 179.25925925925927,92.69841269841271 179.6825396825397,93.33333333333334 180.10582010582013,93.75661375661376 180.52910052910053,94.39153439153439 181.16402116402116,94.81481481481482 181.5873015873016,95.23809523809524 182.22222222222223,95.66137566137567 182.85714285714286,96.08465608465609 183.4920634920635,96.2962962962963 184.12698412698415,96.50793650793652 184.7619047619048,96.71957671957672 185.39682539682542,96.93121693121694 186.03174603174605,97.14285714285715 186.66666666666669,97.14285714285715 187.30158730158732,97.35449735449737 187.93650793650795,97.14285714285715 188.57142857142858,97.35449735449737 189.20634920634922,97.35449735449737 189.84126984126985,97.35449735449737 190.47619047619048,96.93121693121694 191.11111111111111,96.93121693121694 191.74603174603175,96.93121693121694 192.3809523809524,96.71957671957672 193.01587301587304,96.50793650793652 193.65079365079367,96.50793650793652 194.2857142857143,96.50793650793652 194.92063492063494,96.08465608465609 195.55555555555557,96.08465608465609 196.1904761904762,96.08465608465609 196.82539682539684,95.87301587301587 197.46031746031747,95.66137566137567 198.0952380952381,95.66137566137567 198.73015873015873,95.44973544973546 199.36507936507937,95.44973544973546 200.00000000000003,95.23809523809524 200.63492063492066,95.23809523809524 201.2698412698413,95.23809523809524 201.90476190476193,95.23809523809524 202.53968253968256,95.23809523809524 203.1746031746032,95.44973544973546 203.80952380952382,95.66137566137567 204.44444444444446,95.66137566137567 205.0793650793651,95.87301587301587 205.71428571428572,96.08465608465609 206.34920634920636,96.50793650793652 206.984126984127,96.50793650793652 207.61904761904765,96.93121693121694 208.25396825396828,97.35449735449737 208.8888888888889,97.77777777777779 209.31216931216932,98.2010582010582 209.73544973544975,98.62433862433863 210.15873015873018,99.04761904761905 210.5820105820106,99.68253968253968 211.005291005291,100.31746031746033 211.42857142857144,100.95238095238096 211.64021164021165,101.5873015873016 211.85185185185188,102.22222222222223 212.27513227513228,102.85714285714286 212.27513227513228,103.4920634920635 212.4867724867725,104.12698412698414 212.6984126984127,104.76190476190477 212.6984126984127,105.3968253968254 212.6984126984127,106.03174603174604 212.6984126984127,106.66666666666667 212.91005291005294,107.3015873015873 212.91005291005294,107.93650793650795 212.91005291005294,108.57142857142858 212.91005291005294,109.20634920634922 212.6984126984127,109.84126984126985 212.6984126984127,110.47619047619048 212.91005291005294,111.11111111111111 212.6984126984127,111.74603174603176 212.4867724867725,112.3809523809524 212.4867724867725,113.01587301587303 212.27513227513228,113.65079365079366 212.06349206349208,114.28571428571429 211.85185185185188,114.92063492063492 211.64021164021165,115.55555555555557 211.42857142857144,116.1904761904762 211.21693121693124,116.82539682539684 211.005291005291,117.46031746031747 210.5820105820106,118.0952380952381 210.37037037037038,118.73015873015873 209.94708994708995,119.36507936507937 209.73544973544975,120.00000000000001 209.31216931216932,120.63492063492065 208.8888888888889,121.26984126984128 208.46560846560848,121.90476190476191 208.04232804232805,122.32804232804234 207.61904761904765,122.96296296296298 207.19576719576722,123.3862433862434 206.7724867724868,124.02116402116403 206.34920634920636,124.65608465608466 205.92592592592595,125.07936507936509 205.50264550264552,125.5026455026455 204.8677248677249,125.92592592592594 204.44444444444446,126.34920634920636 203.80952380952382,126.56084656084657 203.1746031746032,126.98412698412699 202.53968253968256,127.1957671957672 201.90476190476193,127.1957671957672 201.2698412698413,127.40740740740742 200.63492063492066,127.40740740740742 200.00000000000003,127.1957671957672 199.36507936507937,127.1957671957672 198.73015873015873,127.1957671957672 198.0952380952381,126.98412698412699 197.46031746031747,126.98412698412699 196.82539682539684,126.77248677248679 196.1904761904762,126.56084656084657 195.55555555555557,126.34920634920636 194.92063492063494,126.13756613756615 194.2857142857143,125.92592592592594 193.65079365079367,125.71428571428572 193.01587301587304,125.2910052910053 192.3809523809524,125.07936507936509 191.95767195767198,124.65608465608466 191.32275132275134,124.23280423280424 190.8994708994709,123.80952380952382 190.26455026455028,123.3862433862434 189.84126984126985,122.96296296296298 189.41798941798945,122.53968253968254 188.99470899470901,122.11640211640213 188.57142857142858,121.6931216931217 188.14814814814815,121.26984126984128 187.72486772486775,120.63492063492065 187.30158730158732,120.21164021164022 186.8783068783069,119.7883597883598 186.45502645502646,119.36507936507937 186.03174603174605,118.94179894179895 185.60846560846562,118.51851851851853 185.1851851851852,118.0952380952381 184.7619047619048,117.67195767195768 184.12698412698415,117.24867724867725 183.4920634920635,116.82539682539684 182.85714285714286,116.4021164021164 182.22222222222223,116.1904761904762 181.79894179894183,115.76719576719577 181.16402116402116,115.55555555555557 180.52910052910053,115.13227513227514 179.8941798941799,114.92063492063492 179.25925925925927,114.49735449735451 178.62433862433863,114.28571428571429 177.989417989418,114.07407407407408 177.56613756613757,113.65079365079366 176.93121693121694,113.65079365079366 176.2962962962963,113.43915343915344 175.66137566137567,113.22751322751324 175.02645502645504,113.01587301587303 174.3915343915344,112.80423280423281 173.75661375661377,112.80423280423281 173.12169312169314,112.80423280423281 172.4867724867725,112.80423280423281 171.85185185185188,113.01587301587303 171.21693121693124,113.01587301587303 170.58201058201058,113.01587301587303 169.94708994708995,113.01587301587303 169.31216931216932,113.22751322751324 168.67724867724868,113.43915343915344 168.04232804232805,113.65079365079366 167.40740740740742,113.86243386243387 166.7724867724868,114.07407407407408 166.13756613756615,114.49735449735451 165.50264550264552,114.70899470899472 164.8677248677249,115.13227513227514 164.23280423280426,115.55555555555557 163.80952380952382,115.97883597883599 163.1746031746032,116.4021164021164 162.75132275132276,116.82539682539684 162.32804232804233,117.24867724867725 161.90476190476193,117.67195767195768 161.4814814814815,118.0952380952381 161.05820105820106,118.51851851851853 160.63492063492066,119.15343915343917 160.42328042328043,119.7883597883598 160.0,120.42328042328043 159.7883597883598,121.05820105820106 159.36507936507937,121.6931216931217 159.36507936507937,122.32804232804234 158.94179894179896,122.96296296296298 158.73015873015873,123.59788359788361 158.51851851851853,124.23280423280424 158.30687830687833,124.86772486772487 158.0952380952381,125.5026455026455 157.8835978835979,126.13756613756615 157.67195767195767,126.77248677248679 157.46031746031747,127.40740740740742 157.24867724867727,128.04232804232805 157.03703703703704,128.67724867724868 156.82539682539684,129.31216931216932 156.61375661375664,129.94708994708995 156.4021164021164,130.58201058201058 156.1904761904762,131.21693121693121 155.978835978836,131.85185185185185 155.978835978836,132.4867724867725 155.76719576719577,133.12169312169314 155.55555555555557,133.75661375661377 155.55555555555557,134.3915343915344 155.34391534391534,135.02645502645504 155.13227513227514,135.66137566137567 154.92063492063494,136.2962962962963 154.7089947089947,136.93121693121694 154.7089947089947,137.56613756613757 154.4973544973545,138.2010582010582 154.4973544973545,138.83597883597884 154.2857142857143,139.47089947089947 154.2857142857143,140.10582010582013 154.07407407407408,140.74074074074076 154.07407407407408,141.3756613756614 153.86243386243387,142.01058201058203 153.86243386243387,142.64550264550266 153.65079365079367,143.2804232804233 153.65079365079367,143.91534391534393 153.65079365079367,144.55026455026456 153.43915343915344,145.1851851851852 153.65079365079367,145.82010582010582 153.43915343915344,146.45502645502646 153.43915343915344,147.0899470899471 153.43915343915344,147.72486772486775 153.22751322751324,148.35978835978838 153.22751322751324,148.99470899470901 153.22751322751324,149.62962962962965 153.22751322751324,150.26455026455028 153.01587301587304,150.8994708994709 153.01587301587304,151.53439153439155 153.01587301587304,152.16931216931218 153.01587301587304,152.8042328042328 153.01587301587304,153.43915343915344 153.01587301587304,154.07407407407408 152.8042328042328,154.7089947089947 152.8042328042328,155.34391534391534 152.8042328042328,155.978835978836 152.8042328042328,156.61375661375664 152.8042328042328,157.24867724867727 152.8042328042328,157.8835978835979 152.8042328042328,158.51851851851853 152.8042328042328,159.15343915343917 152.8042328042328,159.7883597883598 152.8042328042328,160.42328042328043 152.8042328042328,161.05820105820106 152.8042328042328,161.6931216931217 152.8042328042328,162.32804232804233 152.8042328042328,162.96296296296296 152.8042328042328,163.59788359788362 152.8042328042328,164.23280423280426 152.8042328042328,164.8677248677249 153.01587301587304,165.50264550264552 153.01587301587304,166.13756613756615 153.01587301587304,166.7724867724868 153.01587301587304,167.40740740740742 153.01587301587304,168.04232804232805 153.01587301587304,168.67724867724868 153.01587301587304,169.31216931216932 153.22751322751324,169.94708994708995 153.22751322751324,170.58201058201058 153.43915343915344,174.6031746031746" style="fill:none; stroke:#999900; stroke-width:1.0"  /><polyline points="153.43915343915344,174.6031746031746 150.26455026455028,173.75661375661377 149.62962962962965,173.54497354497354 148.99470899470901,173.33333333333334 148.35978835978838,173.12169312169314 147.72486772486775,172.9100529100529 147.0899470899471,172.9100529100529 146.45502645502646,172.6984126984127 145.82010582010582,172.4867724867725 145.1851851851852,172.27513227513228 144.55026455026456,172.06349206349208 143.91534391534393,172.06349206349208 143.2804232804233,171.85185185185188 142.64550264550266,171.64021164021165 142.01058201058203,171.64021164021165 141.3756613756614,171.42857142857144 140.74074074074076,171.21693121693124 140.10582010582013,171.21693121693124 139.47089947089947,171.005291005291 138.83597883597884,170.7936507936508 138.2010582010582,170.58201058201058 137.56613756613757,170.58201058201058 136.93121693121694,170.58201058201058 136.2962962962963,170.37037037037038 135.66137566137567,170.37037037037038 135.02645502645504,170.15873015873018 134.3915343915344,169.94708994708995 133.75661375661377,169.94708994708995 133.12169312169314,169.73544973544975 132.4867724867725,169.52380952380955 131.85185185185185,169.31216931216932 131.21693121693121,169.10052910052912 130.58201058201058,168.8888888888889 129.94708994708995,168.67724867724868 129.31216931216932,168.46560846560848 128.67724867724868,168.25396825396825 128.04232804232805,168.04232804232805 127.40740740740742,168.04232804232805 126.77248677248679,167.83068783068785 126.13756613756615,167.61904761904762 125.5026455026455,167.40740740740742 124.86772486772487,167.19576719576722 124.23280423280424,167.19576719576722 123.59788359788361,166.984126984127 122.96296296296298,166.7724867724868 122.32804232804234,166.56084656084658 121.6931216931217,166.34920634920636 121.05820105820106,166.13756613756615 120.42328042328043,165.92592592592595 119.7883597883598,165.71428571428572 119.15343915343917,165.71428571428572 118.51851851851853,165.50264550264552 117.88359788359789,165.2910052910053 117.24867724867725,165.0793650793651 116.61375661375662,164.8677248677249 115.97883597883599,164.65608465608466 115.34391534391536,164.44444444444446 114.70899470899472,164.23280423280426 114.07407407407408,164.02116402116403 113.43915343915344,163.80952380952382 112.80423280423281,163.59788359788362 112.16931216931218,163.3862433862434 111.53439153439155,163.1746031746032 110.89947089947091,162.96296296296296 110.26455026455027,162.75132275132276 109.62962962962963,162.53968253968256 108.994708994709,162.32804232804233 108.35978835978837,162.11640211640213 107.72486772486774,161.6931216931217 107.0899470899471,161.4814814814815 106.45502645502647,161.2698412698413 105.82010582010582,161.05820105820106 105.18518518518519,160.84656084656086 104.55026455026456,160.63492063492066 103.91534391534393,160.42328042328043 103.28042328042329,160.21164021164023 102.64550264550266,160.0 102.01058201058201,160.0 101.37566137566138,159.7883597883598 100.74074074074075,159.5767195767196 100.10582010582011,159.15343915343917 99.47089947089948,158.94179894179896 98.83597883597885,158.73015873015873 98.2010582010582,158.51851851851853 97.56613756613757,158.30687830687833 96.93121693121694,157.8835978835979 96.2962962962963,157.67195767195767 95.66137566137567,157.46031746031747 95.02645502645504,157.03703703703704 94.39153439153439,156.82539682539684 93.75661375661376,156.61375661375664 93.12169312169313,156.4021164021164 92.4867724867725,155.978835978836 91.85185185185186,155.76719576719577 91.21693121693123,155.55555555555557 90.58201058201058,155.34391534391534 89.94708994708995,154.92063492063494 89.31216931216932,154.7089947089947 88.67724867724868,154.4973544973545 88.04232804232805,154.07407407407408 87.40740740740742,153.86243386243387 86.77248677248677,153.65079365079367 86.13756613756614,153.43915343915344 85.5026455026455,153.01587301587304 84.86772486772487,152.8042328042328 84.23280423280424,152.38095238095238 83.59788359788361,152.16931216931218 82.96296296296298,151.74603174603175 82.32804232804233,151.53439153439155 81.6931216931217,151.11111111111111 81.05820105820106,150.8994708994709 80.42328042328043,150.6878306878307 79.7883597883598,150.47619047619048 79.15343915343917,150.26455026455028 78.73015873015873,149.84126984126985 78.0952380952381,149.62962962962965 77.46031746031747,149.20634920634922 76.82539682539684,148.99470899470901 76.19047619047619,148.57142857142858 75.55555555555556,148.35978835978838 74.92063492063492,147.93650793650795 74.49735449735451,147.51322751322752 73.86243386243387,147.0899470899471 73.22751322751323,146.66666666666669 72.80423280423281,146.03174603174605 72.16931216931218,145.60846560846562 71.95767195767196,144.973544973545 71.74603174603175,144.33862433862436 71.74603174603175,143.70370370370372 71.53439153439155,143.0687830687831 71.74603174603175,142.43386243386246 71.74603174603175,141.7989417989418 71.95767195767196,141.16402116402116 72.38095238095238,140.52910052910053 72.5925925925926,139.8941798941799 73.01587301587303,139.25925925925927 73.43915343915344,138.62433862433863 73.86243386243387,138.2010582010582 74.28571428571429,137.56613756613757 74.70899470899471,137.14285714285717 75.34391534391536,136.71957671957674 75.76719576719577,136.2962962962963 76.4021164021164,135.87301587301587 77.03703703703704,135.44973544973547 77.67195767195767,135.02645502645504 78.30687830687832,134.81481481481484 78.73015873015873,134.3915343915344 79.36507936507937,133.96825396825398 79.7883597883598,133.54497354497354 80.42328042328043,133.12169312169314 80.84656084656085,132.6984126984127 81.26984126984128,132.27513227513228 81.6931216931217,131.64021164021165 82.11640211640213,131.005291005291 82.53968253968254,130.58201058201058 82.96296296296298,129.94708994708995 83.17460317460318,129.31216931216932 83.59788359788361,128.67724867724868 83.80952380952381,128.04232804232805 84.02116402116403,127.40740740740742 84.44444444444446,126.77248677248679 84.65608465608466,126.13756613756615 84.86772486772487,125.5026455026455 85.07936507936509,124.86772486772487 85.07936507936509,124.23280423280424 85.29100529100529,123.59788359788361 85.29100529100529,122.96296296296298 85.29100529100529,122.32804232804234 85.07936507936509,121.6931216931217 85.07936507936509,121.05820105820106 84.86772486772487,120.42328042328043 84.65608465608466,119.7883597883598 84.44444444444446,119.15343915343917 84.23280423280424,118.51851851851853 83.80952380952381,117.88359788359789 83.59788359788361,117.24867724867725 83.17460317460318,116.82539682539684 82.75132275132276,116.1904761904762 82.32804232804233,115.55555555555557 81.90476190476191,115.13227513227514 81.48148148148148,114.49735449735451 81.05820105820106,114.07407407407408 80.42328042328043,113.65079365079366 80.0,113.22751322751324 79.57671957671958,112.80423280423281 79.15343915343917,112.3809523809524 78.51851851851852,111.95767195767196 78.0952380952381,111.53439153439155 77.46031746031747,111.11111111111111 76.82539682539684,110.89947089947091 76.19047619047619,110.47619047619048 75.55555555555556,110.26455026455027 74.92063492063492,109.84126984126985 74.28571428571429,109.62962962962963 73.65079365079366,109.20634920634922 73.01587301587303,108.994708994709 72.38095238095238,108.78306878306879 71.74603174603175,108.57142857142858 71.11111111111111,108.14814814814815 70.47619047619048,108.14814814814815 69.84126984126985,107.93650793650795 69.20634920634922,107.72486772486774 68.57142857142858,107.72486772486774 67.93650793650794,107.51322751322752 67.3015873015873,107.3015873015873 66.66666666666667,107.51322751322752 66.03174603174604,107.51322751322752 65.3968253968254,107.3015873015873 64.76190476190477,107.3015873015873 64.12698412698413,107.3015873015873 63.492063492063494,107.3015873015873 62.85714285714286,107.3015873015873 62.22222222222223,107.3015873015873 61.58730158730159,107.3015873015873 60.952380952380956,107.51322751322752 60.31746031746032,107.72486772486774 59.682539682539684,107.72486772486774 59.04761904761905,108.14814814814815 58.41269841269842,108.35978835978837 57.777777777777786,108.57142857142858 57.35449735449736,108.994708994709 56.93121693121694,109.41798941798943 56.2962962962963,109.84126984126985 55.87301587301588,110.26455026455027 55.449735449735456,110.6878306878307 55.23809523809524,111.32275132275133 54.81481481481482,111.95767195767196 54.39153439153439,112.3809523809524 54.179894179894184,113.01587301587303 53.75661375661376,113.43915343915344 53.54497354497355,114.07407407407408 53.333333333333336,114.70899470899472 53.12169312169313,115.34391534391536 52.91005291005291,115.97883597883599 52.91005291005291,116.61375661375662 52.6984126984127,117.24867724867725 52.48677248677249,117.88359788359789 52.48677248677249,118.51851851851853 52.27513227513228,119.15343915343917 52.27513227513228,119.7883597883598 52.06349206349207,120.42328042328043 52.06349206349207,121.05820105820106 52.06349206349207,121.6931216931217 52.06349206349207,122.32804232804234 52.06349206349207,122.96296296296298 51.851851851851855,123.59788359788361 51.851851851851855,124.23280423280424 51.851851851851855,124.86772486772487 51.851851851851855,125.5026455026455 51.851851851851855,126.13756613756615 51.851851851851855,126.77248677248679 51.851851851851855,127.40740740740742 51.851851851851855,128.04232804232805 51.640211640211646,128.67724867724868 51.42857142857143,129.31216931216932 51.42857142857143,129.94708994708995 51.21693121693122,130.58201058201058 50.7936507936508,131.21693121693121 50.370370370370374,131.85185185185185 49.94708994708995,132.4867724867725 49.523809523809526,132.9100529100529 49.1005291005291,133.33333333333334 48.46560846560847,133.75661375661377 47.830687830687836,133.96825396825398 47.195767195767196,134.3915343915344 46.560846560846564,134.3915343915344 45.92592592592593,134.6031746031746 45.29100529100529,134.6031746031746 44.65608465608466,134.81481481481484 44.021164021164026,134.6031746031746 43.386243386243386,134.6031746031746 42.75132275132275,134.6031746031746 42.11640211640212,134.3915343915344 41.48148148148149,134.17989417989418 40.84656084656085,133.96825396825398 40.211640211640216,133.75661375661377 39.57671957671958,133.54497354497354 38.94179894179894,133.33333333333334 38.30687830687831,132.9100529100529 37.67195767195768,132.6984126984127 37.03703703703704,132.4867724867725 36.402116402116405,132.06349206349208 35.76719576719577,131.85185185185185 35.13227513227513,131.42857142857144 34.4973544973545,131.21693121693121 33.86243386243387,131.005291005291 33.22751322751323,130.58201058201058 32.592592592592595,130.37037037037038 31.95767195767196,130.15873015873018 31.322751322751326,129.94708994708995 30.68783068783069,129.52380952380955 30.052910052910054,129.31216931216932 29.41798941798942,128.88888888888889 28.783068783068785,128.67724867724868 28.14814814814815,128.25396825396825 27.513227513227516,128.04232804232805 26.87830687830688,127.61904761904763 26.243386243386244,127.1957671957672 25.60846560846561,126.98412698412699 24.973544973544975,126.56084656084657 24.338624338624342,126.13756613756615 23.703703703703706,125.92592592592594 23.06878306878307,125.5026455026455 22.433862433862437,125.07936507936509 21.7989417989418,124.86772486772487 21.375661375661377,124.44444444444446 20.740740740740744,124.23280423280424 20.31746031746032,123.80952380952382 19.682539682539684,123.59788359788361 19.25925925925926,123.17460317460318 18.624338624338627,122.96296296296298 18.201058201058203,122.53968253968254 17.566137566137566,122.32804232804234 17.142857142857146,121.90476190476191 16.50793650793651,121.4814814814815 15.873015873015873,121.26984126984128 15.449735449735451,120.84656084656086 14.814814814814817,120.42328042328043 14.17989417989418,120.00000000000001 13.544973544973546,119.57671957671958 12.910052910052912,119.36507936507937 12.486772486772487,118.94179894179895 11.851851851851853,118.51851851851853 11.216931216931219,118.0952380952381 10.582010582010582,117.88359788359789 10.15873015873016,117.46031746031747 9.523809523809524,117.03703703703705 8.88888888888889,116.82539682539684 8.465608465608467,116.4021164021164 7.830687830687832,115.97883597883599 7.195767195767196,115.76719576719577 6.560846560846561,115.34391534391536 5.9259259259259265,114.92063492063492 5.291005291005291,114.49735449735451 4.656084656084657,114.28571428571429 4.2328042328042335,113.86243386243387 3.597883597883598,113.65079365079366 2.9629629629629632,113.22751322751324 0.0,111.32275132275133" style="fill:none; stroke:#00aa99; stroke-width:1.0"  /><polyline points="0.0,111.32275132275133 0.634920634920635,107.93650793650795 0.634920634920635,107.3015873015873 0.8465608465608466,106.66666666666667 0.8465608465608466,106.03174603174604 1.0582010582010584,105.3968253968254 1.26984126984127,104.76190476190477 1.26984126984127,104.12698412698414 1.4814814814814816,103.4920634920635 1.6931216931216932,102.85714285714286 1.6931216931216932,102.22222222222223 1.9047619047619049,101.5873015873016 1.9047619047619049,100.95238095238096 2.1164021164021167,100.31746031746033 2.3280423280423284,99.68253968253968 2.3280423280423284,99.04761904761905 2.53968253968254,98.41269841269842 2.53968253968254,97.77777777777779 2.7513227513227516,97.14285714285715 2.9629629629629632,96.50793650793652 2.9629629629629632,95.87301587301587 3.174603174603175,95.23809523809524 3.3862433862433865,94.60317460317461 3.3862433862433865,93.96825396825398 3.597883597883598,93.33333333333334 3.597883597883598,92.69841269841271 3.8095238095238098,92.06349206349208 4.021164021164021,91.42857142857143 4.2328042328042335,90.7936507936508 4.2328042328042335,90.15873015873017 4.444444444444445,89.52380952380953 4.656084656084657,88.8888888888889 4.656084656084657,88.25396825396827 4.867724867724868,87.61904761904762 4.867724867724868,86.98412698412699 5.07936507936508,86.34920634920636 5.291005291005291,85.71428571428572 5.502645502645503,85.07936507936509 5.502645502645503,84.44444444444446 5.714285714285714,83.80952380952381 5.714285714285714,83.17460317460318 5.9259259259259265,82.53968253968254 6.137566137566138,81.90476190476191 6.34920634920635,81.26984126984128 6.560846560846561,80.63492063492065 6.560846560846561,80.0 6.772486772486773,79.36507936507937 6.984126984126985,78.73015873015873 6.984126984126985,78.0952380952381 7.195767195767196,77.46031746031747 7.407407407407408,76.82539682539684 7.830687830687832,76.19047619047619 7.830687830687832,75.55555555555556 8.042328042328043,74.92063492063492 8.465608465608467,74.28571428571429 8.88888888888889,73.86243386243387 9.312169312169313,73.22751322751323 9.947089947089948,73.01587301587303 10.370370370370372,72.5925925925926 11.005291005291006,72.38095238095238 11.640211640211641,72.16931216931218 12.275132275132275,71.95767195767196 12.910052910052912,71.95767195767196 13.544973544973546,71.95767195767196 14.17989417989418,71.95767195767196 14.814814814814817,71.95767195767196 15.449735449735451,71.95767195767196 16.084656084656086,72.16931216931218 16.71957671957672,72.38095238095238 17.354497354497354,72.5925925925926 17.98941798941799,73.01587301587303 18.624338624338627,73.43915343915344 19.25925925925926,73.86243386243387 19.682539682539684,74.28571428571429 20.105820105820108,74.70899470899471 20.740740740740744,75.13227513227514 21.164021164021165,75.55555555555556 21.7989417989418,75.97883597883599 22.433862433862437,76.4021164021164 23.06878306878307,76.61375661375662 23.703703703703706,77.03703703703704 24.338624338624342,77.46031746031747 24.973544973544975,77.88359788359789 25.60846560846561,78.0952380952381 26.243386243386244,78.30687830687832 26.87830687830688,78.51851851851852 27.513227513227516,78.73015873015873 28.14814814814815,79.15343915343917 28.783068783068785,79.15343915343917 29.41798941798942,79.57671957671958 30.052910052910054,79.7883597883598 30.68783068783069,79.7883597883598 31.322751322751326,80.0 31.95767195767196,79.7883597883598 32.592592592592595,80.0 33.22751322751323,80.21164021164022 33.86243386243387,80.21164021164022 34.4973544973545,80.21164021164022 35.13227513227513,80.21164021164022 35.76719576719577,80.0 36.402116402116405,79.7883597883598 37.03703703703704,79.57671957671958 37.67195767195768,79.15343915343917 38.30687830687831,78.73015873015873 38.94179894179894,78.30687830687832 39.36507936507937,77.88359788359789 39.78835978835979,77.46031746031747 40.211640211640216,76.82539682539684 40.63492063492064,76.4021164021164 40.84656084656085,75.76719576719577 41.26984126984127,75.34391534391536 41.6931216931217,74.70899470899471 42.11640211640212,74.28571428571429 42.539682539682545,73.65079365079366 42.96296296296297,73.01587301587303 43.386243386243386,72.38095238095238 43.5978835978836,71.74603174603175 44.021164021164026,71.32275132275133 44.232804232804234,70.6878306878307 44.65608465608466,70.26455026455027 44.867724867724874,69.62962962962963 45.29100529100529,68.994708994709 45.50264550264551,68.35978835978837 45.92592592592593,67.72486772486774 46.13756613756614,67.08994708994709 46.349206349206355,66.45502645502646 46.77248677248678,65.82010582010582 46.98412698412699,65.18518518518519 47.195767195767196,64.55026455026456 47.40740740740741,63.91534391534392 47.61904761904762,63.280423280423285 47.830687830687836,62.64550264550265 47.830687830687836,62.01058201058201 48.042328042328045,61.37566137566138 48.25396825396826,60.74074074074075 48.46560846560847,60.10582010582011 48.46560846560847,59.470899470899475 48.677248677248684,58.83597883597884 48.677248677248684,58.2010582010582 48.88888888888889,57.56613756613757 48.88888888888889,56.93121693121694 48.88888888888889,56.2962962962963 49.1005291005291,55.661375661375665 49.1005291005291,55.02645502645503 49.1005291005291,54.39153439153439 49.1005291005291,53.75661375661376 49.1005291005291,53.12169312169313 49.1005291005291,52.48677248677249 49.1005291005291,51.851851851851855 49.1005291005291,51.21693121693122 49.1005291005291,50.58201058201058 49.1005291005291,49.94708994708995 49.1005291005291,49.31216931216932 49.1005291005291,48.677248677248684 48.88888888888889,48.042328042328045 48.88888888888889,47.40740740740741 48.677248677248684,46.77248677248678 48.46560846560847,46.13756613756614 48.25396825396826,45.50264550264551 47.830687830687836,44.867724867724874 47.61904761904762,44.232804232804234 47.195767195767196,43.5978835978836 46.77248677248678,43.17460317460318 46.349206349206355,42.539682539682545 45.92592592592593,42.11640211640212 45.50264550264551,41.6931216931217 45.07936507936508,41.26984126984127 44.44444444444445,40.84656084656085 43.80952380952381,40.423280423280424 43.17460317460318,40.211640211640216 42.75132275132275,39.78835978835979 42.11640211640212,39.57671957671958 41.48148148148149,39.36507936507937 41.058201058201064,38.94179894179894 40.423280423280424,38.730158730158735 39.78835978835979,38.51851851851852 39.15343915343916,38.30687830687831 38.51851851851852,38.095238095238095 37.883597883597886,38.095238095238095 37.248677248677254,38.095238095238095 36.613756613756614,37.883597883597886 35.97883597883598,37.883597883597886 35.34391534391535,38.095238095238095 34.70899470899471,38.095238095238095 34.074074074074076,38.30687830687831 33.43915343915344,38.30687830687831 32.804232804232804,38.51851851851852 32.16931216931217,38.730158730158735 31.53439153439154,38.94179894179894 30.899470899470902,38.94179894179894 30.264550264550266,38.94179894179894 29.629629629629633,38.94179894179894 28.994708994708997,38.94179894179894 28.35978835978836,38.730158730158735 27.724867724867728,38.51851851851852 27.089947089947092,38.30687830687831 26.455026455026456,38.095238095238095 25.820105820105823,37.67195767195768 25.185185185185187,37.248677248677254 24.761904761904763,36.82539682539683 24.338624338624342,36.402116402116405 23.915343915343918,35.97883597883598 23.492063492063494,35.34391534391535 23.280423280423282,34.70899470899471 23.06878306878307,34.074074074074076 23.06878306878307,33.43915343915344 23.06878306878307,32.804232804232804 23.06878306878307,32.16931216931217 23.280423280423282,31.53439153439154 23.492063492063494,30.899470899470902 23.492063492063494,30.264550264550266 23.915343915343918,29.629629629629633 24.12698412698413,28.994708994708997 24.338624338624342,28.35978835978836 24.55026455026455,27.724867724867728 24.761904761904763,27.089947089947092 24.973544973544975,26.455026455026456 25.185185185185187,25.820105820105823 25.60846560846561,25.185185185185187 25.820105820105823,24.55026455026455 26.031746031746035,23.915343915343918 26.243386243386244,23.280423280423282 26.455026455026456,22.645502645502646 26.87830687830688,22.010582010582013 27.089947089947092,21.375661375661377 27.301587301587304,20.740740740740744 27.513227513227516,20.105820105820108 27.93650793650794,19.47089947089947 28.14814814814815,18.83597883597884 28.571428571428573,18.201058201058203 28.783068783068785,17.566137566137566 28.994708994708997,16.931216931216934 29.41798941798942,16.296296296296298 29.629629629629633,15.661375661375663 30.052910052910054,15.026455026455027 30.264550264550266,14.391534391534393 30.68783068783069,13.756613756613758 31.111111111111114,13.121693121693122 31.322751322751326,12.486772486772487 31.746031746031747,11.851851851851853 31.95767195767196,11.216931216931219 32.16931216931217,10.582010582010582 32.592592592592595,9.947089947089948 32.804232804232804,9.312169312169313 33.22751322751323,8.88888888888889 33.43915343915344,8.253968253968255 33.86243386243387,7.6190476190476195 34.074074074074076,6.984126984126985 34.4973544973545,6.34920634920635 34.4973544973545,5.714285714285714 34.920634920634924,5.07936507936508 35.13227513227513,4.444444444444445 35.55555555555556,4.021164021164021 35.76719576719577,3.3862433862433865 37.67195767195768,-0.4232804232804233" style="fill:none; stroke:#3300bb; stroke-width:1.0"  /><circle cx="37.67195767195768" cy="-0.4232804232804233" r="2.0" style="fill:none; stroke:#000000aa; stroke-width:0.25" /><circle cx="193.01587301587304" cy="31.53439153439154" r="2.0" style="fill:none; stroke:#000000aa; stroke-width:0.25" /><circle cx="153.43915343915344" cy="174.6031746031746" r="2.0" style="fill:none; stroke:#000000aa; stroke-width:0.25" /><circle cx="0.0" cy="111.32275132275133" r="2.0" style="fill:none; stroke:#000000aa; stroke-width:0.25" /><circle cx="37.67195767195768" cy="0.4232804232804233" r="2.0" style="fill:none; stroke:#ff3366aa; stroke-width:0.25" /><circle cx="192.8042328042328" cy="33.01587301587302" r="2.0" style="fill:none; stroke:#ff3366aa; stroke-width:0.25" /><circle cx="153.43915343915344" cy="173.96825396825398" r="2.0" style="fill:none; stroke:#ff3366aa; stroke-width:0.25" /><circle cx="0.21164021164021166" cy="111.11111111111111" r="2.0" style="fill:none; stroke:#ff3366aa; stroke-width:0.25" /><polyline points="48.88888888888889,2.7513227513227516 48.25396825396826,2.53968253968254 47.61904761904762,2.3280423280423284 46.98412698412699,2.1164021164021167 46.349206349206355,2.1164021164021167 45.92592592592593,1.6931216931216932 45.29100529100529,1.4814814814814816 44.65608465608466,1.26984126984127 44.021164021164026,1.0582010582010584 43.386243386243386,1.26984126984127 42.75132275132275,1.0582010582010584 42.11640211640212,0.8465608465608466 41.48148148148149,0.634920634920635 40.84656084656085,0.4232804232804233" style="fill:none; stroke:#001100; stroke-width:1.0" /><polyline points="32.16931216931217,10.582010582010582 32.592592592592595,9.947089947089948 32.804232804232804,9.312169312169313 33.22751322751323,8.88888888888889 33.43915343915344,8.253968253968255 33.86243386243387,7.6190476190476195 34.074074074074076,6.984126984126985 34.4973544973545,6.34920634920635 34.4973544973545,5.714285714285714 34.920634920634924,5.07936507936508 35.13227513227513,4.444444444444445 35.55555555555556,4.021164021164021 35.76719576719577,3.3862433862433865" style="fill:none; stroke:#000011; stroke-width:1.0" /><polyline points="190.6878306878307,44.44444444444445 190.6878306878307,43.80952380952381 190.8994708994709,43.17460317460318 191.11111111111111,42.539682539682545 191.32275132275134,41.904761904761905 191.32275132275134,41.26984126984127 191.53439153439155,40.63492063492064 191.32275132275134,40.0 191.53439153439155,39.36507936507937 191.74603174603175,38.730158730158735 191.74603174603175,38.095238095238095 191.95767195767198,37.46031746031746 192.16931216931218,36.82539682539683 192.16931216931218,36.19047619047619" style="fill:none; stroke:#001100; stroke-width:1.0" /><polyline points="182.01058201058203,37.883597883597886 182.43386243386246,37.46031746031746 183.0687830687831,37.03703703703704 183.70370370370372,36.613756613756614 184.33862433862436,36.402116402116405 184.973544973545,35.97883597883598 185.39682539682542,35.55555555555556 186.03174603174605,35.34391534391535 186.45502645502646,34.920634920634924 187.08994708994712,34.70899470899471 187.72486772486775,34.4973544973545 188.35978835978838,34.28571428571429 188.78306878306879,33.86243386243387 189.41798941798945,33.65079365079365" style="fill:none; stroke:#000011; stroke-width:1.0" /><polyline points="142.01058201058203,171.64021164021165 142.64550264550266,171.64021164021165 143.2804232804233,171.85185185185188 143.91534391534393,172.06349206349208 144.55026455026456,172.06349206349208 145.1851851851852,172.27513227513228 145.82010582010582,172.4867724867725 146.45502645502646,172.6984126984127 147.0899470899471,172.9100529100529 147.72486772486775,172.9100529100529 148.35978835978838,173.12169312169314 148.99470899470901,173.33333333333334 149.62962962962965,173.54497354497354 150.26455026455028,173.75661375661377" style="fill:none; stroke:#001100; stroke-width:1.0" /><polyline points="152.8042328042328,162.32804232804233 152.8042328042328,162.96296296296296 152.8042328042328,163.59788359788362 152.8042328042328,164.23280423280426 152.8042328042328,164.8677248677249 153.01587301587304,165.50264550264552 153.01587301587304,166.13756613756615 153.01587301587304,166.7724867724868 153.01587301587304,167.40740740740742 153.01587301587304,168.04232804232805 153.01587301587304,168.67724867724868 153.01587301587304,169.31216931216932 153.22751322751324,169.94708994708995 153.22751322751324,170.58201058201058" style="fill:none; stroke:#000011; stroke-width:1.0" /><polyline points="2.3280423280423284,99.68253968253968 2.1164021164021167,100.31746031746033 1.9047619047619049,100.95238095238096 1.9047619047619049,101.5873015873016 1.6931216931216932,102.22222222222223 1.6931216931216932,102.85714285714286 1.4814814814814816,103.4920634920635 1.26984126984127,104.12698412698414 1.26984126984127,104.76190476190477 1.0582010582010584,105.3968253968254 0.8465608465608466,106.03174603174604 0.8465608465608466,106.66666666666667 0.634920634920635,107.3015873015873 0.634920634920635,107.93650793650795" style="fill:none; stroke:#001100; stroke-width:1.0" /><polyline points="10.15873015873016,117.46031746031747 9.523809523809524,117.03703703703705 8.88888888888889,116.82539682539684 8.465608465608467,116.4021164021164 7.830687830687832,115.97883597883599 7.195767195767196,115.76719576719577 6.560846560846561,115.34391534391536 5.9259259259259265,114.92063492063492 5.291005291005291,114.49735449735451 4.656084656084657,114.28571428571429 4.2328042328042335,113.86243386243387 3.597883597883598,113.65079365079366 2.9629629629629632,113.22751322751324" style="fill:none; stroke:#000011; stroke-width:1.0" /><polyline points="40.84656084656085,0.4232804232804233 20.529100529100532,-5.502645502645503" style="fill:none; stroke:#ffaa00; stroke-width:0.4" /><polyline points="35.76719576719577,3.3862433862433865 45.29100529100529,-15.449735449735451" style="fill:none; stroke:#aaff00; stroke-width:0.4" /><polyline points="192.16931216931218,36.19047619047619 195.978835978836,15.449735449735451" style="fill:none; stroke:#ffaa00; stroke-width:0.4" /><polyline points="189.41798941798945,33.65079365079365 207.83068783068785,23.06878306878307" style="fill:none; stroke:#aaff00; stroke-width:0.4" /><polyline points="150.26455026455028,173.75661375661377 170.7936507936508,179.04761904761907" style="fill:none; stroke:#ffaa00; stroke-width:0.4" /><polyline points="153.22751322751324,170.58201058201058 154.2857142857143,191.74603174603175" style="fill:none; stroke:#aaff00; stroke-width:0.4" /><polyline points="0.634920634920635,107.93650793650795 -3.597883597883598,128.67724867724868" style="fill:none; stroke:#ffaa00; stroke-width:0.4" /><polyline points="2.9629629629629632,113.22751322751324 -15.238095238095239,102.43386243386244" style="fill:none; stroke:#aaff00; stroke-width:0.4" /><circle cx="103.91534391534393" cy="89.1005291005291" r="1.0" style="fill:#444444; stroke-width:0" /><circle cx="121.90476190476191" cy="103.70370370370371" r="10.582010582010582" style="fill:#ff770022; stroke-width:0" /><circle cx="121.90476190476191" cy="103.70370370370371" r="1.0" style="fill:#ff7700; stroke-width:0" /></svg>