<?xml version="1.0" encoding="UTF-8" standalone="no"?><svg width="568.8888888888889" height="624.7619047619048" viewBox="-10 -10 209.62962962962965 228.25396825396828" xmlns="http://www.w3.org/2000/svg" xmlns:xlink="http://www.w3.org/1999/xlink"><polyline points="-0.21164021164021166,65.3968253968254 2.53968253968254,63.06878306878308 2.9629629629629632,62.64550264550265 3.3862433862433865,62.22222222222223 4.021164021164021,61.798941798941804 4.444444444444445,61.37566137566138 4.867724867724868,60.952380952380956 5.502645502645503,60.52910052910053 5.9259259259259265,60.10582010582011 6.34920634920635,59.682539682539684 6.772486772486773,59.25925925925927 7.195767195767196,58.83597883597884 7.6190476190476195,58.41269841269842 8.253968253968255,57.989417989417994 8.677248677248677,57.56613756613757 9.100529100529101,57.142857142857146 9.735449735449736,56.71957671957672 10.15873015873016,56.2962962962963 10.793650793650794,56.08465608465609 11.216931216931219,55.661375661375665 11.640211640211641,55.23809523809524 12.275132275132275,54.81481481481482 12.910052910052912,54.39153439153439 13.544973544973546,53.968253968253975 13.96825396825397,53.54497354497355 14.391534391534393,53.12169312169313 14.814814814814817,52.6984126984127 15.449735449735451,52.48677248677249 15.873015873015873,52.06349206349207 16.50793650793651,51.640211640211646 17.142857142857146,51.21693121693122 17.77777777777778,50.7936507936508 18.201058201058203,50.370370370370374 18.83597883597884,49.94708994708995 19.47089947089947,49.523809523809526 20.105820105820108,49.1005291005291 20.740740740740744,48.677248677248684 21.375661375661377,48.25396825396826 22.010582010582013,47.830687830687836 22.645502645502646,47.40740740740741 23.280423280423282,47.195767195767196 23.915343915343918,46.77248677248678 24.55026455026455,46.560846560846564 25.185185185185187,46.13756613756614 25.820105820105823,45.92592592592593 26.455026455026456,45.714285714285715 27.089947089947092,45.50264550264551 27.724867724867728,45.29100529100529 28.35978835978836,45.07936507936508 28.994708994708997,44.867724867724874 29.629629629629633,44.65608465608466 30.264550264550266,44.44444444444445 30.899470899470902,44.232804232804234 31.53439153439154,44.232804232804234 32.16931216931217,44.021164021164026 32.804232804232804,44.021164021164026 33.43915343915344,44.021164021164026 34.074074074074076,43.80952380952381 34.70899470899471,43.80952380952381 35.34391534391535,43.80952380952381 35.97883597883598,43.5978835978836 36.613756613756614,43.5978835978836 37.248677248677254,43.5978835978836 37.883597883597886,43.5978835978836 38.51851851851852,43.386243386243386 39.15343915343916,43.386243386243386 39.78835978835979,43.17460317460318 40.423280423280424,42.96296296296297 41.058201058201064,42.539682539682545 41.6931216931217,42.32804232804233 42.32804232804233,41.904761904761905 42.75132275132275,41.48148148148149 43.386243386243386,41.058201058201064 44.021164021164026,40.63492063492064 44.44444444444445,40.211640211640216 44.867724867724874,39.78835978835979 45.29100529100529,39.36507936507937 45.714285714285715,38.94179894179894 46.13756613756614,38.30687830687831 46.560846560846564,37.67195767195768 46.98412698412699,37.03703703703704 47.195767195767196,36.402116402116405 47.195767195767196,35.76719576719577 47.40740740740741,35.13227513227513 47.61904761904762,34.4973544973545 47.61904761904762,33.86243386243387 47.61904761904762,33.22751322751323 47.61904761904762,32.592592592592595 47.61904761904762,31.95767195767196 47.195767195767196,31.322751322751326 46.77248677248678,30.68783068783069 46.349206349206355,30.052910052910054 45.92592592592593,29.41798941798942 45.50264550264551,28.783068783068785 45.07936507936508,28.35978835978836 44.65608465608466,27.93650793650794 44.232804232804234,27.513227513227516 43.80952380952381,27.089947089947092 43.386243386243386,26.666666666666668 42.96296296296297,26.243386243386244 42.32804232804233,25.820105820105823 41.904761904761905,25.3968253968254 41.26984126984127,24.973544973544975 40.63492063492064,24.55026455026455 40.211640211640216,24.12698412698413 39.57671957671958,23.703703703703706 38.94179894179894,23.280423280423282 38.51851851851852,22.857142857142858 37.883597883597886,22.433862433862437 37.46031746031746,22.010582010582013 36.82539682539683,21.58730158730159 36.402116402116405,21.164021164021165 35.97883597883598,20.529100529100532 35.76719576719577,19.894179894179896 35.34391534391535,19.25925925925926 35.13227513227513,18.624338624338627 34.920634920634924,17.98941798941799 34.920634920634924,17.354497354497354 34.70899470899471,16.71957671957672 34.4973544973545,16.084656084656086 34.70899470899471,15.449735449735451 34.70899470899471,14.814814814814817 34.920634920634924,14.17989417989418 34.920634920634924,13.544973544973546 35.13227513227513,12.910052910052912 35.55555555555556,12.275132275132275 35.76719576719577,11.640211640211641 36.19047619047619,11.216931216931219 36.613756613756614,10.793650793650794 37.03703703703704,10.15873015873016 37.46031746031746,9.735449735449736 37.883597883597886,9.312169312169313 38.30687830687831,8.88888888888889 38.730158730158735,8.465608465608467 39.15343915343916,8.042328042328043 39.57671957671958,7.6190476190476195 40.0,7.195767195767196 40.423280423280424,6.772486772486773 41.058201058201064,6.34920634920635 41.48148148148149,5.9259259259259265 42.11640211640212,5.502645502645503 42.75132275132275,5.07936507936508 43.386243386243386,4.656084656084657 44.021164021164026,4.2328042328042335 44.65608465608466,3.8095238095238098 45.29100529100529,3.3862433862433865 45.92592592592593,2.9629629629629632 46.560846560846564,2.7513227513227516 46.98412698412699,2.3280423280423284 47.61904761904762,2.3280423280423284 48.25396825396826,2.1164021164021167 48.677248677248684,1.6931216931216932 49.31216931216932,1.4814814814814816 49.94708994708995,1.26984126984127 50.58201058201058,1.0582010582010584 51.21693121693122,1.0582010582010584 51.851851851851855,0.8465608465608466 52.48677248677249,0.8465608465608466 53.12169312169313,0.634920634920635 53.75661375661376,0.634920634920635 54.39153439153439,0.4232804232804233 55.02645502645503,0.4232804232804233 55.661375661375665,0.21164021164021166 56.2962962962963,0.21164021164021166 56.93121693121694,0.21164021164021166 57.56613756613757,0.21164021164021166 58.2010582010582,0.4232804232804233 58.83597883597884,0.634920634920635 59.470899470899475,1.0582010582010584 60.10582010582011,1.26984126984127 60.52910052910053,1.6931216931216932 60.952380952380956,2.1164021164021167 61.37566137566138,2.53968253968254 61.798941798941804,2.9629629629629632 62.22222222222223,3.597883597883598 62.43386243386244,4.2328042328042335 62.64550264550265,4.867724867724868 62.85714285714286,5.502645502645503 63.06878306878308,6.137566137566138 63.06878306878308,6.772486772486773 63.280423280423285,7.407407407407408 63.280423280423285,8.042328042328043 63.280423280423285,8.677248677248677 63.280423280423285,9.312169312169313 63.280423280423285,9.947089947089948 63.280423280423285,10.582010582010582 63.280423280423285,11.216931216931219 63.280423280423285,11.851851851851853 63.280423280423285,12.486772486772487 63.280423280423285,13.121693121693122 63.280423280423285,13.756613756613758 63.492063492063494,14.391534391534393 63.492063492063494,15.026455026455027 63.492063492063494,15.661375661375663 63.70370370370371,16.296296296296298 63.70370370370371,16.931216931216934 63.91534391534392,17.566137566137566 64.12698412698413,18.201058201058203 64.12698412698413,18.83597883597884 64.33862433862434,19.47089947089947 64.55026455026456,20.105820105820108 64.76190476190477,20.740740740740744 64.97354497354497,21.375661375661377 65.18518518518519,22.010582010582013 65.3968253968254,22.645502645502646 65.60846560846561,23.280423280423282 65.82010582010582,23.915343915343918 66.24338624338625,24.55026455026455 66.45502645502646,25.185185185185187 66.87830687830689,25.60846560846561 67.3015873015873,26.031746031746035 67.93650793650794,26.455026455026456 68.35978835978837,26.87830687830688 68.994708994709,27.301587301587304 69.62962962962963,27.301587301587304 70.26455026455027,27.513227513227516 70.8994708994709,27.513227513227516 71.53439153439155,27.513227513227516 72.16931216931218,27.513227513227516 72.80423280423281,27.513227513227516 73.43915343915344,27.301587301587304 74.07407407407408,27.089947089947092 74.70899470899471,27.089947089947092 75.34391534391536,27.089947089947092 75.97883597883599,26.87830687830688 76.61375661375662,26.87830687830688 77.03703703703704,26.455026455026456 77.67195767195767,26.455026455026456 78.30687830687832,26.243386243386244 78.94179894179895,26.031746031746035 79.57671957671958,25.820105820105823 80.21164021164022,25.820105820105823 80.84656084656085,25.60846560846561 81.48148148148148,25.3968253968254 82.11640211640213,25.3968253968254 82.75132275132276,25.185185185185187 83.3862433862434,24.973544973544975 84.02116402116403,24.55026455026455 84.65608465608466,24.55026455026455 85.29100529100529,24.55026455026455 85.92592592592594,24.55026455026455 86.56084656084657,24.338624338624342 87.1957671957672,24.338624338624342 87.83068783068784,24.338624338624342 88.46560846560847,24.12698412698413 89.1005291005291,24.12698412698413 89.73544973544975,24.12698412698413 90.37037037037038,23.915343915343918 91.00529100529101,23.703703703703706 91.64021164021165,23.915343915343918 92.27513227513228,23.703703703703706 92.91005291005291,23.703703703703706 93.54497354497356,23.703703703703706 94.17989417989419,23.492063492063494 94.81481481481482,23.492063492063494 95.44973544973546,23.492063492063494 96.08465608465609,23.492063492063494 96.71957671957672,23.280423280423282 97.35449735449737,23.280423280423282 97.989417989418,23.280423280423282 98.62433862433863,23.280423280423282 99.25925925925927,23.06878306878307 99.8941798941799,23.06878306878307 100.52910052910053,23.06878306878307 101.16402116402116,23.06878306878307 101.79894179894181,23.06878306878307 102.43386243386244,23.06878306878307 103.06878306878308,23.06878306878307 103.70370370370371,22.857142857142858 104.33862433862434,23.06878306878307 104.97354497354497,23.06878306878307 105.60846560846562,23.06878306878307 106.24338624338625,22.857142857142858 106.87830687830689,22.645502645502646 107.51322751322752,22.645502645502646 108.14814814814815,22.645502645502646 108.78306878306879,22.645502645502646 109.41798941798943,22.645502645502646 110.05291005291006,22.645502645502646 110.6878306878307,22.222222222222225 111.32275132275133,22.222222222222225 111.95767195767196,22.222222222222225 112.5925925925926,22.010582010582013 113.22751322751324,21.7989417989418 113.86243386243387,21.58730158730159 114.49735449735451,21.375661375661377 115.13227513227514,21.164021164021165 115.76719576719577,20.952380952380953 118.73015873015873,20.31746031746032" style="fill:none; stroke:#cc0000; stroke-width:1.0"  /><polyline points="118.73015873015873,20.31746031746032 120.42328042328043,22.857142857142858 120.84656084656086,23.492063492063494 121.05820105820106,24.12698412698413 121.4814814814815,24.761904761904763 121.6931216931217,25.3968253968254 122.11640211640213,26.031746031746035 122.53968253968254,26.666666666666668 122.96296296296298,27.301587301587304 123.3862433862434,27.724867724867728 123.80952380952382,28.35978835978836 124.23280423280424,28.994708994708997 124.65608465608466,29.41798941798942 125.07936507936509,30.052910052910054 125.5026455026455,30.476190476190478 125.92592592592594,30.899470899470902 126.34920634920636,31.322751322751326 126.98412698412699,31.746031746031747 127.40740740740742,32.16931216931217 127.83068783068784,32.592592592592595 128.25396825396825,33.01587301587302 128.67724867724868,33.43915343915344 129.10052910052912,33.86243386243387 129.52380952380955,34.28571428571429 129.94708994708995,34.70899470899471 130.58201058201058,35.13227513227513 131.005291005291,35.55555555555556 131.64021164021165,35.97883597883598 132.06349206349208,36.402116402116405 132.4867724867725,36.82539682539683 133.12169312169314,37.248677248677254 133.75661375661377,37.67195767195768 134.17989417989418,38.095238095238095 134.6031746031746,38.51851851851852 135.02645502645504,38.94179894179894 135.66137566137567,39.36507936507937 136.0846560846561,39.78835978835979 136.71957671957674,40.211640211640216 137.14285714285717,40.63492063492064 137.7777777777778,41.058201058201064 138.2010582010582,41.48148148148149 138.62433862433863,41.904761904761905 139.04761904761907,42.32804232804233 139.47089947089947,42.75132275132275 139.8941798941799,43.17460317460318 140.31746031746033,43.5978835978836 140.74074074074076,44.021164021164026 141.16402116402116,44.65608465608466 141.5873015873016,45.07936507936508 142.01058201058203,45.714285714285715 142.43386243386246,46.349206349206355 142.85714285714286,46.98412698412699 143.0687830687831,47.61904761904762 143.4920634920635,48.25396825396826 143.70370370370372,48.88888888888889 143.91534391534393,49.523809523809526 144.12698412698413,50.158730158730165 144.33862433862436,50.7936507936508 144.55026455026456,51.42857142857143 144.55026455026456,52.06349206349207 144.76190476190476,52.6984126984127 144.76190476190476,53.333333333333336 144.76190476190476,53.968253968253975 144.55026455026456,54.60317460317461 144.33862433862436,55.23809523809524 144.12698412698413,55.87301587301588 143.70370370370372,56.50793650793651 143.2804232804233,57.142857142857146 142.85714285714286,57.56613756613757 142.22222222222223,57.989417989417994 141.7989417989418,58.41269841269842 141.16402116402116,58.62433862433863 140.52910052910053,59.04761904761905 139.8941798941799,59.25925925925927 139.25925925925927,59.682539682539684 138.62433862433863,59.8941798941799 137.989417989418,60.10582010582011 137.35449735449737,60.31746031746032 136.71957671957674,60.52910052910053 136.0846560846561,60.74074074074075 135.44973544973547,60.952380952380956 134.81481481481484,61.16402116402117 134.17989417989418,61.37566137566138 133.54497354497354,61.58730158730159 132.9100529100529,61.798941798941804 132.27513227513228,62.22222222222223 131.64021164021165,62.43386243386244 131.005291005291,62.85714285714286 130.37037037037038,63.280423280423285 129.73544973544975,63.70370370370371 129.10052910052912,64.12698412698413 128.67724867724868,64.55026455026456 128.25396825396825,64.97354497354497 127.83068783068784,65.3968253968254 127.40740740740742,66.03174603174604 127.1957671957672,66.66666666666667 126.77248677248679,67.3015873015873 126.56084656084657,67.93650793650794 126.34920634920636,68.57142857142858 126.34920634920636,69.20634920634922 126.13756613756615,69.84126984126985 126.13756613756615,70.47619047619048 126.13756613756615,71.11111111111111 126.13756613756615,71.74603174603175 126.34920634920636,72.38095238095238 126.34920634920636,73.01587301587303 126.56084656084657,73.65079365079366 126.56084656084657,74.28571428571429 126.77248677248679,74.92063492063492 126.98412698412699,75.55555555555556 127.1957671957672,76.19047619047619 127.40740740740742,76.82539682539684 127.61904761904763,77.46031746031747 127.83068783068784,78.0952380952381 128.25396825396825,78.73015873015873 128.46560846560848,79.36507936507937 128.88888888888889,79.7883597883598 129.10052910052912,80.42328042328043 129.52380952380955,80.84656084656085 129.94708994708995,81.48148148148148 130.37037037037038,81.90476190476191 130.7936507936508,82.53968253968254 131.21693121693121,82.96296296296298 131.64021164021165,83.3862433862434 132.06349206349208,83.80952380952381 132.4867724867725,84.23280423280424 133.12169312169314,84.65608465608466 133.75661375661377,85.07936507936509 134.17989417989418,85.5026455026455 134.81481481481484,85.92592592592594 135.44973544973547,86.13756613756614 136.0846560846561,86.56084656084657 136.71957671957674,86.56084656084657 137.35449735449737,86.98412698412699 137.989417989418,86.98412698412699 138.62433862433863,87.1957671957672 139.25925925925927,87.1957671957672 139.8941798941799,87.1957671957672 140.52910052910053,87.1957671957672 141.16402116402116,87.1957671957672 141.7989417989418,87.1957671957672 142.43386243386246,86.77248677248677 143.0687830687831,86.77248677248677 143.70370370370372,86.56084656084657 144.33862433862436,86.34920634920636 144.973544973545,86.13756613756614 145.60846560846562,85.92592592592594 146.24338624338625,85.5026455026455 146.8783068783069,85.29100529100529 147.51322751322752,85.07936507936509 147.93650793650795,84.65608465608466 148.57142857142858,84.44444444444446 149.20634920634922,84.02116402116403 149.62962962962965,83.59788359788361 150.26455026455028,83.17460317460318 150.8994708994709,82.75132275132276 151.32275132275134,82.32804232804233 151.74603174603175,81.90476190476191 152.38095238095238,81.6931216931217 152.8042328042328,81.26984126984128 153.22751322751324,80.84656084656085 153.65079365079367,80.42328042328043 154.07407407407408,80.0 154.4973544973545,79.57671957671958 155.13227513227514,79.15343915343917 155.76719576719577,78.73015873015873 156.4021164021164,78.51851851851852 156.82539682539684,78.0952380952381 157.46031746031747,77.88359788359789 158.0952380952381,77.67195767195767 158.73015873015873,77.67195767195767 159.36507936507937,77.46031746031747 160.0,77.24867724867725 160.63492063492066,77.03703703703704 161.2698412698413,77.03703703703704 161.90476190476193,76.82539682539684 162.53968253968256,76.82539682539684 163.1746031746032,76.82539682539684 163.80952380952382,77.03703703703704 164.44444444444446,77.03703703703704 165.0793650793651,77.03703703703704 165.71428571428572,77.03703703703704 166.34920634920636,77.03703703703704 166.984126984127,77.24867724867725 167.61904761904762,77.46031746031747 168.25396825396825,77.67195767195767 168.8888888888889,77.88359788359789 169.52380952380955,78.0952380952381 170.15873015873018,78.51851851851852 170.7936507936508,78.73015873015873 171.42857142857144,79.15343915343917 172.06349206349208,79.36507936507937 172.4867724867725,79.7883597883598 173.12169312169314,80.21164021164022 173.75661375661377,80.63492063492065 174.1798941798942,81.05820105820106 174.81481481481484,81.48148148148148 175.23809523809524,81.90476190476191 175.66137566137567,82.32804232804233 176.0846560846561,82.96296296296298 176.50793650793653,83.3862433862434 176.93121693121694,84.02116402116403 177.35449735449737,84.65608465608466 177.7777777777778,85.29100529100529 178.2010582010582,85.92592592592594 178.41269841269843,86.56084656084657 178.83597883597884,87.1957671957672 179.04761904761907,87.83068783068784 179.25925925925927,88.46560846560847 179.4708994708995,89.1005291005291 179.6825396825397,89.73544973544975 179.8941798941799,90.37037037037038 180.10582010582013,91.00529100529101 180.31746031746033,91.64021164021165 180.52910052910053,92.27513227513228 180.52910052910053,92.91005291005291 180.74074074074076,93.54497354497356 180.74074074074076,94.17989417989419 180.95238095238096,94.81481481481482 181.16402116402116,95.44973544973546 181.16402116402116,96.08465608465609 181.3756613756614,96.71957671957672 181.3756613756614,97.35449735449737 181.5873015873016,97.989417989418 181.5873015873016,98.62433862433863 181.79894179894183,99.25925925925927 181.79894179894183,99.8941798941799 181.79894179894183,100.52910052910053 182.22222222222223,101.16402116402116 182.22222222222223,101.79894179894181 182.43386243386246,102.43386243386244 182.43386243386246,103.06878306878308 182.43386243386246,103.70370370370371 182.64550264550266,104.33862433862434 182.64550264550266,104.97354497354497 182.64550264550266,105.60846560846562 182.85714285714286,106.24338624338625 182.85714285714286,106.87830687830689 182.85714285714286,107.51322751322752 182.85714285714286,108.14814814814815 183.0687830687831,108.78306878306879 183.0687830687831,109.41798941798943 183.0687830687831,110.05291005291006 183.0687830687831,110.6878306878307 183.2804232804233,111.32275132275133 183.2804232804233,111.95767195767196 183.2804232804233,112.5925925925926 183.0687830687831,113.22751322751324 183.2804232804233,113.86243386243387 183.2804232804233,114.49735449735451 183.2804232804233,115.13227513227514 183.2804232804233,115.76719576719577 183.4920634920635,116.4021164021164 183.4920634920635,117.03703703703705 183.4920634920635,117.67195767195768 183.4920634920635,118.30687830687832 183.70370370370372,118.94179894179895 183.70370370370372,119.57671957671958 183.91534391534393,120.21164021164022 183.91534391534393,120.84656084656086 183.91534391534393,121.4814814814815 184.12698412698415,122.11640211640213 184.12698412698415,122.75132275132276 184.12698412698415,123.3862433862434 184.33862433862436,124.02116402116403 184.33862433862436,124.65608465608466 184.33862433862436,125.2910052910053 184.55026455026456,125.92592592592594 184.55026455026456,126.56084656084657 184.7619047619048,127.1957671957672 184.7619047619048,127.83068783068784 184.7619047619048,128.46560846560848 184.973544973545,129.10052910052912 184.973544973545,129.73544973544975 184.973544973545,130.37037037037038 185.1851851851852,131.005291005291 185.1851851851852,131.64021164021165 185.39682539682542,132.27513227513228 185.39682539682542,132.9100529100529 185.60846560846562,133.54497354497354 185.60846560846562,134.17989417989418 185.82010582010582,134.81481481481484 186.03174603174605,135.44973544973547 186.24338624338625,136.0846560846561 186.45502645502646,136.71957671957674 186.45502645502646,137.35449735449737 186.66666666666669,137.989417989418 186.8783068783069,138.62433862433863 186.8783068783069,139.25925925925927 187.08994708994712,139.8941798941799 187.30158730158732,140.52910052910053 187.30158730158732,141.16402116402116 187.51322751322752,141.7989417989418 187.72486772486775,142.43386243386246 187.93650793650795,143.0687830687831 187.93650793650795,143.70370370370372 188.14814814814815,144.33862433862436 188.35978835978838,144.973544973545 188.57142857142858,145.60846560846562 188.78306878306879,146.24338624338625 189.62962962962965,149.41798941798942" style="fill:none; stroke:#999900; stroke-width:1.0"  /><polyline points="189.62962962962965,149.41798941798942 186.8783068783069,151.53439153439155 186.45502645502646,151.95767195767198 185.82010582010582,152.38095238095238 185.39682539682542,152.8042328042328 184.7619047619048,153.22751322751324 184.33862433862436,153.65079365079367 183.70370370370372,154.07407407407408 183.2804232804233,154.4973544973545 182.64550264550266,154.92063492063494 182.22222222222223,155.34391534391534 181.5873015873016,155.76719576719577 180.95238095238096,156.1904761904762 180.52910052910053,156.61375661375664 179.8941798941799,157.03703703703704 179.25925925925927,157.46031746031747 178.83597883597884,157.8835978835979 178.2010582010582,158.30687830687833 177.56613756613757,158.73015873015873 177.14285714285717,159.15343915343917 176.50793650793653,159.5767195767196 175.87301587301587,160.0 175.23809523809524,160.42328042328043 174.81481481481484,160.84656084656086 174.1798941798942,161.2698412698413 173.54497354497354,161.6931216931217 172.9100529100529,162.11640211640213 172.27513227513228,162.53968253968256 171.85185185185188,162.96296296296296 171.21693121693124,163.3862433862434 170.58201058201058,163.80952380952382 169.94708994708995,164.23280423280426 169.52380952380955,164.65608465608466 168.8888888888889,165.0793650793651 168.25396825396825,165.50264550264552 167.61904761904762,165.92592592592595 166.984126984127,166.34920634920636 166.34920634920636,166.56084656084658 165.92592592592595,166.984126984127 165.2910052910053,167.19576719576722 164.8677248677249,167.61904761904762 164.23280423280426,168.04232804232805 163.59788359788362,168.46560846560848 162.96296296296296,168.67724867724868 162.53968253968256,169.10052910052912 161.90476190476193,169.52380952380955 161.2698412698413,169.94708994708995 160.63492063492066,170.37037037037038 160.0,170.58201058201058 159.5767195767196,171.005291005291 159.15343915343917,171.42857142857144 158.51851851851853,171.64021164021165 157.8835978835979,172.06349206349208 157.24867724867727,172.27513227513228 156.82539682539684,172.6984126984127 156.1904761904762,172.9100529100529 155.55555555555557,173.33333333333334 154.92063492063494,173.54497354497354 154.2857142857143,173.96825396825398 153.65079365079367,174.3915343915344 153.01587301587304,174.3915343915344 152.38095238095238,174.6031746031746 151.74603174603175,174.6031746031746 151.11111111111111,174.6031746031746 150.47619047619048,174.6031746031746 149.84126984126985,174.6031746031746 149.20634920634922,174.3915343915344 148.57142857142858,174.1798941798942 147.93650793650795,173.96825396825398 147.51322751322752,173.54497354497354 146.8783068783069,173.12169312169314 146.45502645502646,172.6984126984127 146.03174603174605,172.27513227513228 145.60846560846562,171.85185185185188 145.1851851851852,171.21693121693124 144.76190476190476,170.7936507936508 144.33862433862436,170.15873015873018 144.12698412698413,169.52380952380955 144.12698412698413,168.8888888888889 143.91534391534393,168.25396825396825 143.91534391534393,167.61904761904762 143.91534391534393,166.984126984127 143.91534391534393,166.34920634920636 144.12698412698413,165.71428571428572 144.12698412698413,165.0793650793651 144.33862433862436,164.44444444444446 144.33862433862436,163.80952380952382 144.55026455026456,163.1746031746032 144.55026455026456,162.53968253968256 144.55026455026456,161.90476190476193 144.76190476190476,161.2698412698413 144.76190476190476,160.63492063492066 144.973544973545,160.0 145.1851851851852,159.36507936507937 145.1851851851852,158.73015873015873 145.39682539682542,158.0952380952381 145.39682539682542,157.46031746031747 145.39682539682542,156.82539682539684 145.39682539682542,156.1904761904762 145.39682539682542,155.55555555555557 145.39682539682542,154.92063492063494 145.39682539682542,154.2857142857143 145.1851851851852,153.65079365079367 145.1851851851852,153.01587301587304 144.973544973545,152.38095238095238 144.76190476190476,151.74603174603175 144.55026455026456,151.11111111111111 144.12698412698413,150.47619047619048 143.91534391534393,149.84126984126985 143.4920634920635,149.20634920634922 143.0687830687831,148.57142857142858 142.85714285714286,147.93650793650795 142.43386243386246,147.51322751322752 142.01058201058203,146.8783068783069 141.5873015873016,146.24338624338625 141.16402116402116,145.82010582010582 140.74074074074076,145.1851851851852 140.31746031746033,144.76190476190476 139.8941798941799,144.33862433862436 139.47089947089947,143.91534391534393 139.04761904761907,143.4920634920635 138.62433862433863,143.0687830687831 137.989417989418,142.64550264550266 137.56613756613757,142.22222222222223 136.93121693121694,142.01058201058203 136.2962962962963,141.7989417989418 135.66137566137567,141.3756613756614 135.02645502645504,141.16402116402116 134.3915343915344,140.95238095238096 133.75661375661377,140.52910052910053 133.12169312169314,140.31746031746033 132.4867724867725,140.31746031746033 131.85185185185185,140.10582010582013 131.21693121693121,140.10582010582013 130.58201058201058,139.8941798941799 129.94708994708995,139.8941798941799 129.31216931216932,139.8941798941799 128.67724867724868,140.10582010582013 128.04232804232805,140.10582010582013 127.40740740740742,140.31746031746033 126.77248677248679,140.52910052910053 126.13756613756615,140.74074074074076 125.5026455026455,141.16402116402116 124.86772486772487,141.5873015873016 124.23280423280424,141.7989417989418 123.80952380952382,142.22222222222223 123.3862433862434,142.64550264550266 122.75132275132276,143.0687830687831 122.11640211640213,143.4920634920635 121.4814814814815,143.91534391534393 121.05820105820106,144.33862433862436 120.63492063492065,144.76190476190476 120.21164021164022,145.1851851851852 119.7883597883598,145.60846560846562 119.36507936507937,146.03174603174605 118.94179894179895,146.66666666666669 118.51851851851853,147.30158730158732 118.0952380952381,147.72486772486775 117.67195767195768,148.14814814814815 117.24867724867725,148.57142857142858 116.82539682539684,149.20634920634922 116.4021164021164,149.62962962962965 115.97883597883599,150.26455026455028 115.55555555555557,150.6878306878307 115.13227513227514,151.32275132275134 114.70899470899472,151.74603174603175 114.28571428571429,152.38095238095238 113.86243386243387,153.01587301587304 113.43915343915344,153.43915343915344 113.01587301587303,154.07407407407408 112.5925925925926,154.7089947089947 112.16931216931218,155.34391534391534 111.74603174603176,155.76719576719577 111.53439153439155,156.4021164021164 111.11111111111111,156.82539682539684 110.89947089947091,157.46031746031747 110.47619047619048,157.8835978835979 110.26455026455027,158.51851851851853 109.84126984126985,159.15343915343917 109.41798941798943,159.7883597883598 109.20634920634922,160.42328042328043 108.78306878306879,161.05820105820106 108.57142857142858,161.6931216931217 108.14814814814815,162.32804232804233 107.93650793650795,162.96296296296296 107.72486772486774,163.59788359788362 107.3015873015873,164.23280423280426 107.0899470899471,164.8677248677249 106.87830687830689,165.50264550264552 106.66666666666667,166.13756613756615 106.45502645502647,166.7724867724868 106.45502645502647,167.40740740740742 106.24338624338625,168.04232804232805 106.24338624338625,168.67724867724868 106.03174603174604,169.31216931216932 106.03174603174604,169.94708994708995 106.24338624338625,170.58201058201058 106.45502645502647,171.21693121693124 106.45502645502647,171.85185185185188 106.45502645502647,172.4867724867725 106.66666666666667,173.12169312169314 106.87830687830689,173.75661375661377 107.0899470899471,174.3915343915344 107.3015873015873,175.02645502645504 107.51322751322752,175.66137566137567 107.93650793650795,176.2962962962963 108.14814814814815,176.93121693121694 108.57142857142858,177.56613756613757 108.994708994709,177.989417989418 109.41798941798943,178.62433862433863 109.84126984126985,179.25925925925927 110.26455026455027,179.6825396825397 110.6878306878307,180.10582010582013 111.11111111111111,180.74074074074076 111.53439153439155,181.16402116402116 112.16931216931218,181.5873015873016 112.80423280423281,182.01058201058203 113.43915343915344,182.43386243386246 114.07407407407408,182.85714285714286 114.70899470899472,183.0687830687831 115.34391534391536,183.2804232804233 115.97883597883599,183.70370370370372 116.61375661375662,183.91534391534393 117.24867724867725,183.91534391534393 117.67195767195768,184.33862433862436 118.30687830687832,184.33862433862436 118.73015873015873,184.7619047619048 119.36507936507937,184.7619047619048 120.00000000000001,184.973544973545 120.63492063492065,185.39682539682542 121.26984126984128,185.60846560846562 121.90476190476191,186.03174603174605 122.53968253968254,186.24338624338625 123.17460317460318,186.66666666666669 123.80952380952382,186.8783068783069 124.23280423280424,187.30158730158732 124.86772486772487,187.72486772486775 125.2910052910053,188.14814814814815 125.71428571428572,188.57142857142858 126.13756613756615,188.99470899470901 126.56084656084657,189.41798941798945 126.98412698412699,190.05291005291008 127.40740740740742,190.6878306878307 127.61904761904763,191.32275132275134 127.83068783068784,191.95767195767198 128.04232804232805,192.5925925925926 128.04232804232805,193.22751322751324 128.25396825396825,193.86243386243387 128.04232804232805,194.4973544973545 128.04232804232805,195.13227513227514 127.83068783068784,195.76719576719577 127.61904761904763,196.4021164021164 127.1957671957672,197.03703703703704 126.77248677248679,197.6719576719577 126.13756613756615,198.0952380952381 125.71428571428572,198.51851851851853 125.07936507936509,198.73015873015873 124.44444444444446,199.15343915343917 123.80952380952382,199.36507936507937 123.17460317460318,199.5767195767196 122.53968253968254,199.7883597883598 121.90476190476191,200.00000000000003 121.26984126984128,200.21164021164023 120.63492063492065,200.21164021164023 120.00000000000001,200.42328042328043 119.36507936507937,200.63492063492066 118.73015873015873,200.84656084656086 118.0952380952381,201.05820105820106 117.46031746031747,201.05820105820106 116.82539682539684,201.05820105820106 116.1904761904762,201.2698412698413 115.55555555555557,201.2698412698413 114.92063492063492,201.4814814814815 114.28571428571429,201.4814814814815 113.65079365079366,201.4814814814815 113.01587301587303,201.6931216931217 112.3809523809524,201.6931216931217 111.74603174603176,201.6931216931217 111.11111111111111,201.6931216931217 110.47619047619048,201.6931216931217 109.84126984126985,201.6931216931217 109.20634920634922,201.90476190476193 108.57142857142858,201.90476190476193 107.93650793650795,202.11640211640213 107.3015873015873,202.11640211640213 106.66666666666667,202.11640211640213 106.03174603174604,202.32804232804233 105.3968253968254,202.32804232804233 104.76190476190477,202.32804232804233 104.12698412698414,202.53968253968256 103.4920634920635,202.53968253968256 102.85714285714286,202.75132275132276 102.22222222222223,202.75132275132276 101.5873015873016,202.962962962963 100.95238095238096,202.962962962963 100.31746031746033,202.962962962963 99.68253968253968,203.1746031746032 99.04761904761905,203.1746031746032 98.41269841269842,203.1746031746032 97.77777777777779,203.1746031746032 97.14285714285715,203.3862433862434 96.50793650793652,203.3862433862434 95.87301587301587,203.3862433862434 95.23809523809524,203.59788359788362 94.60317460317461,203.59788359788362 93.96825396825398,203.80952380952382 93.33333333333334,203.80952380952382 92.69841269841271,204.02116402116403 92.06349206349208,204.02116402116403 91.42857142857143,204.23280423280426 90.7936507936508,204.23280423280426 90.15873015873017,204.44444444444446 89.52380952380953,204.44444444444446 88.8888888888889,204.65608465608466 88.25396825396827,204.65608465608466 87.61904761904762,204.65608465608466 86.98412698412699,204.8677248677249 86.34920634920636,204.8677248677249 85.71428571428572,205.0793650793651 85.07936507936509,205.29100529100532 84.44444444444446,205.29100529100532 83.80952380952381,205.50264550264552 83.17460317460318,205.71428571428572 82.53968253968254,205.92592592592595 81.90476190476191,205.92592592592595 81.26984126984128,206.13756613756615 80.63492063492065,206.13756613756615 80.0,206.34920634920636 79.36507936507937,206.34920634920636 78.73015873015873,206.56084656084658 78.0952380952381,206.7724867724868 77.46031746031747,206.7724867724868 76.82539682539684,206.984126984127 72.80423280423281,207.83068783068785" style="fill:none; stroke:#00aa99; stroke-width:1.0"  /><polyline points="72.80423280423281,207.83068783068785 72.16931216931218,204.8677248677249 71.95767195767196,204.23280423280426 71.95767195767196,203.59788359788362 71.74603174603175,202.962962962963 71.74603174603175,202.32804232804233 71.53439153439155,201.6931216931217 71.53439153439155,201.05820105820106 71.32275132275133,200.42328042328043 71.11111111111111,199.7883597883598 71.11111111111111,199.15343915343917 70.8994708994709,198.51851851851853 70.6878306878307,197.8835978835979 70.6878306878307,197.24867724867727 70.47619047619048,196.61375661375664 70.26455026455027,195.978835978836 70.05291005291006,195.34391534391537 69.84126984126985,194.70899470899474 69.62962962962963,194.07407407407408 69.41798941798942,193.43915343915344 69.41798941798942,192.8042328042328 69.20634920634922,192.16931216931218 68.994708994709,191.53439153439155 68.78306878306879,190.8994708994709 68.57142857142858,190.26455026455028 68.35978835978837,189.62962962962965 68.14814814814815,188.99470899470901 67.93650793650794,188.35978835978838 67.72486772486774,187.72486772486775 67.51322751322752,187.08994708994712 67.51322751322752,186.45502645502646 67.08994708994709,185.82010582010582 67.08994708994709,185.1851851851852 66.87830687830689,184.55026455026456 66.66666666666667,183.91534391534393 66.45502645502646,183.2804232804233 66.24338624338625,182.64550264550266 66.03174603174604,182.01058201058203 65.82010582010582,181.3756613756614 65.60846560846561,180.74074074074076 65.3968253968254,180.10582010582013 65.18518518518519,179.4708994708995 64.97354497354497,178.83597883597884 64.76190476190477,178.2010582010582 64.55026455026456,177.56613756613757 64.33862433862434,176.93121693121694 64.12698412698413,176.2962962962963 63.91534391534392,175.66137566137567 63.70370370370371,175.02645502645504 63.492063492063494,174.3915343915344 63.280423280423285,173.75661375661377 63.06878306878308,173.12169312169314 62.85714285714286,172.4867724867725 62.64550264550265,171.85185185185188 62.22222222222223,171.21693121693124 62.01058201058201,170.58201058201058 61.798941798941804,169.94708994708995 61.58730158730159,169.31216931216932 61.16402116402117,168.67724867724868 61.16402116402117,168.04232804232805 60.74074074074075,167.40740740740742 60.52910052910053,166.7724867724868 60.31746031746032,166.13756613756615 60.10582010582011,165.50264550264552 59.8941798941799,164.8677248677249 59.682539682539684,164.23280423280426 59.470899470899475,163.59788359788362 59.25925925925927,162.96296296296296 58.83597883597884,162.32804232804233 58.62433862433863,161.6931216931217 58.41269841269842,161.05820105820106 58.2010582010582,160.42328042328043 57.989417989417994,159.7883597883598 57.777777777777786,159.15343915343917 57.35449735449736,158.51851851851853 57.142857142857146,157.8835978835979 56.93121693121694,157.24867724867727 56.71957671957672,156.61375661375664 56.50793650793651,155.978835978836 56.2962962962963,155.34391534391534 56.08465608465609,154.7089947089947 55.661375661375665,154.07407407407408 55.449735449735456,153.43915343915344 55.02645502645503,152.8042328042328 54.81481481481482,152.16931216931218 54.39153439153439,151.74603174603175 54.179894179894184,151.11111111111111 53.75661375661376,150.6878306878307 53.333333333333336,150.26455026455028 52.91005291005291,149.84126984126985 52.48677248677249,149.20634920634922 51.851851851851855,148.78306878306879 51.42857142857143,148.35978835978838 50.7936507936508,147.93650793650795 50.158730158730165,147.72486772486775 49.523809523809526,147.51322751322752 48.88888888888889,147.30158730158732 48.25396825396826,147.51322751322752 47.61904761904762,147.51322751322752 46.98412698412699,147.51322751322752 46.349206349206355,147.51322751322752 45.714285714285715,147.72486772486775 45.07936507936508,148.14814814814815 44.44444444444445,148.35978835978838 43.80952380952381,148.57142857142858 43.17460317460318,148.99470899470901 42.75132275132275,149.41798941798942 42.11640211640212,149.84126984126985 41.6931216931217,150.26455026455028 41.058201058201064,150.6878306878307 40.63492063492064,151.32275132275134 40.211640211640216,151.74603174603175 39.78835978835979,152.16931216931218 39.36507936507937,152.8042328042328 38.94179894179894,153.22751322751324 38.51851851851852,153.86243386243387 38.095238095238095,154.2857142857143 37.67195767195768,154.92063492063494 37.248677248677254,155.55555555555557 36.82539682539683,155.978835978836 36.402116402116405,156.61375661375664 35.97883597883598,157.03703703703704 35.55555555555556,157.67195767195767 35.13227513227513,158.0952380952381 34.70899470899471,158.51851851851853 34.28571428571429,159.15343915343917 33.86243386243387,159.5767195767196 33.43915343915344,160.0 33.01587301587302,160.42328042328043 32.592592592592595,160.84656084656086 32.16931216931217,161.2698412698413 31.746031746031747,161.6931216931217 31.111111111111114,162.11640211640213 30.68783068783069,162.53968253968256 30.052910052910054,162.96296296296296 29.41798941798942,163.3862433862434 28.783068783068785,163.80952380952382 28.14814814814815,164.02116402116403 27.724867724867728,164.44444444444446 27.089947089947092,164.65608465608466 26.455026455026456,164.8677248677249 25.820105820105823,165.0793650793651 25.185185185185187,165.0793650793651 24.55026455026455,165.0793650793651 23.915343915343918,165.0793650793651 23.280423280423282,165.0793650793651 22.645502645502646,165.0793650793651 22.010582010582013,165.0793650793651 21.375661375661377,165.0793650793651 20.740740740740744,164.8677248677249 20.105820105820108,164.8677248677249 19.47089947089947,164.65608465608466 18.83597883597884,164.65608465608466 18.201058201058203,164.44444444444446 17.566137566137566,164.23280423280426 16.931216931216934,164.02116402116403 16.296296296296298,163.59788359788362 15.661375661375663,163.3862433862434 15.026455026455027,162.96296296296296 14.391534391534393,162.75132275132276 13.96825396825397,162.32804232804233 13.333333333333334,162.11640211640213 12.6984126984127,161.6931216931217 12.275132275132275,161.2698412698413 11.640211640211641,160.84656084656086 11.216931216931219,160.21164021164023 10.793650793650794,159.7883597883598 10.370370370370372,159.36507936507937 9.947089947089948,158.73015873015873 9.523809523809524,158.0952380952381 9.312169312169313,157.46031746031747 8.88888888888889,157.03703703703704 8.677248677248677,156.4021164021164 8.253968253968255,155.978835978836 8.042328042328043,155.34391534391534 7.6190476190476195,154.7089947089947 7.407407407407408,154.07407407407408 7.195767195767196,153.43915343915344 6.984126984126985,152.8042328042328 6.772486772486773,152.16931216931218 6.560846560846561,151.53439153439155 6.560846560846561,150.8994708994709 6.34920634920635,150.26455026455028 6.34920634920635,149.62962962962965 6.137566137566138,148.99470899470901 6.137566137566138,148.35978835978838 6.137566137566138,147.72486772486775 6.137566137566138,147.0899470899471 6.137566137566138,146.45502645502646 6.34920634920635,145.82010582010582 6.34920634920635,145.1851851851852 6.34920634920635,144.55026455026456 6.560846560846561,143.91534391534393 6.560846560846561,143.2804232804233 6.772486772486773,142.64550264550266 6.984126984126985,142.01058201058203 7.195767195767196,141.3756613756614 7.407407407407408,140.74074074074076 7.6190476190476195,140.10582010582013 8.042328042328043,139.47089947089947 8.253968253968255,138.83597883597884 8.465608465608467,138.2010582010582 8.88888888888889,137.7777777777778 9.100529100529101,137.14285714285717 9.523809523809524,136.71957671957674 9.735449735449736,136.0846560846561 10.370370370370372,135.66137566137567 10.793650793650794,135.23809523809524 11.216931216931219,134.81481481481484 11.851851851851853,134.6031746031746 12.486772486772487,134.3915343915344 13.121693121693122,133.96825396825398 13.756613756613758,133.75661375661377 14.17989417989418,133.33333333333334 14.814814814814817,133.12169312169314 15.449735449735451,132.9100529100529 16.084656084656086,132.6984126984127 16.71957671957672,132.6984126984127 17.354497354497354,132.27513227513228 17.98941798941799,132.27513227513228 18.624338624338627,132.06349206349208 19.25925925925926,132.27513227513228 19.894179894179896,132.27513227513228 20.529100529100532,132.27513227513228 21.164021164021165,132.27513227513228 21.7989417989418,132.27513227513228 22.433862433862437,132.27513227513228 23.06878306878307,132.4867724867725 23.703703703703706,132.6984126984127 24.338624338624342,132.6984126984127 24.973544973544975,132.6984126984127 25.60846560846561,132.9100529100529 26.243386243386244,132.9100529100529 26.87830687830688,133.12169312169314 27.513227513227516,133.12169312169314 28.14814814814815,133.12169312169314 28.783068783068785,133.33333333333334 29.41798941798942,133.33333333333334 30.052910052910054,133.33333333333334 30.68783068783069,133.33333333333334 31.322751322751326,133.33333333333334 31.95767195767196,133.12169312169314 32.592592592592595,133.12169312169314 33.22751322751323,133.12169312169314 33.65079365079365,132.6984126984127 34.28571428571429,132.6984126984127 34.920634920634924,132.27513227513228 35.55555555555556,132.06349206349208 36.19047619047619,131.85185185185185 36.613756613756614,131.42857142857144 37.03703703703704,131.005291005291 37.46031746031746,130.58201058201058 37.883597883597886,130.15873015873018 38.30687830687831,129.73544973544975 38.730158730158735,129.10052910052912 38.94179894179894,128.46560846560848 39.15343915343916,127.83068783068784 39.36507936507937,127.1957671957672 39.36507936507937,126.56084656084657 39.57671957671958,125.92592592592594 39.57671957671958,125.2910052910053 39.57671957671958,124.65608465608466 39.36507936507937,124.02116402116403 39.36507936507937,123.3862433862434 39.36507936507937,122.75132275132276 38.94179894179894,122.11640211640213 38.730158730158735,121.4814814814815 38.51851851851852,120.84656084656086 38.30687830687831,120.21164021164022 37.883597883597886,119.57671957671958 37.67195767195768,118.94179894179895 37.46031746031746,118.30687830687832 37.03703703703704,117.67195767195768 36.82539682539683,117.03703703703705 36.402116402116405,116.4021164021164 35.97883597883598,115.76719576719577 35.76719576719577,115.13227513227514 35.34391534391535,114.49735449735451 34.920634920634924,113.86243386243387 34.4973544973545,113.22751322751324 34.28571428571429,112.5925925925926 33.86243386243387,111.95767195767196 33.43915343915344,111.32275132275133 33.22751322751323,110.6878306878307 32.804232804232804,110.26455026455027 32.38095238095239,109.62962962962963 32.16931216931217,108.994708994709 31.746031746031747,108.57142857142858 31.53439153439154,107.93650793650795 31.111111111111114,107.51322751322752 30.68783068783069,106.87830687830689 30.264550264550266,106.24338624338625 29.841269841269842,105.60846560846562 29.41798941798942,104.97354497354497 29.20634920634921,104.33862433862434 28.783068783068785,103.91534391534393 28.35978835978836,103.28042328042329 27.93650793650794,102.64550264550266 27.513227513227516,102.01058201058201 27.089947089947092,101.37566137566138 26.666666666666668,100.95238095238096 26.243386243386244,100.31746031746033 25.820105820105823,99.68253968253968 25.3968253968254,99.25925925925927 25.185185185185187,98.62433862433863 24.761904761904763,98.2010582010582 24.338624338624342,97.56613756613757 23.915343915343918,96.93121693121694 23.492063492063494,96.50793650793652 23.06878306878307,95.87301587301587 22.645502645502646,95.23809523809524 22.222222222222225,94.60317460317461 21.7989417989418,93.96825396825398 21.375661375661377,93.54497354497356 21.164021164021165,92.91005291005291 20.740740740740744,92.4867724867725 20.31746031746032,91.85185185185186 19.894179894179896,91.21693121693123 19.47089947089947,90.58201058201058 19.047619047619047,90.15873015873017 18.624338624338627,89.52380952380953 18.412698412698415,88.8888888888889 17.98941798941799,88.46560846560847 17.566137566137566,88.04232804232805 17.142857142857146,87.40740740740742 16.71957671957672,86.77248677248677 16.296296296296298,86.34920634920636 15.873015873015873,85.71428571428572 15.661375661375663,85.07936507936509 15.238095238095239,84.44444444444446 14.814814814814817,84.02116402116403 14.391534391534393,83.3862433862434 13.96825396825397,82.96296296296298 13.544973544973546,82.53968253968254 13.121693121693122,81.90476190476191 12.6984126984127,81.48148148148148 12.275132275132275,80.84656084656085 11.851851851851853,80.21164021164022 11.428571428571429,79.7883597883598 11.005291005291006,79.15343915343917 10.582010582010582,78.51851851851852 10.15873015873016,78.0952380952381 9.735449735449736,77.46031746031747 9.312169312169313,76.82539682539684 8.88888888888889,76.19047619047619 8.465608465608467,75.76719576719577 8.042328042328043,75.34391534391536 7.6190476190476195,74.70899470899471 7.195767195767196,74.07407407407408 6.772486772486773,73.65079365079366 6.34920634920635,73.01587301587303 5.9259259259259265,72.5925925925926 5.502645502645503,72.16931216931218 5.07936507936508,71.53439153439155 4.656084656084657,71.11111111111111 4.2328042328042335,70.47619047619048 3.8095238095238098,70.05291005291006 3.3862433862433865,69.62962962962963 2.9629629629629632,69.20634920634922 2.53968253968254,68.57142857142858 2.1164021164021167,68.14814814814815 -0.21164021164021166,65.3968253968254" style="fill:none; stroke:#3300bb; stroke-width:1.0"  /><circle cx="-0.21164021164021166" cy="65.3968253968254" r="2.0" style="fill:none; stroke:#000000aa; stroke-width:0.25" /><circle cx="118.73015873015873" cy="20.31746031746032" r="2.0" style="fill:none; stroke:#000000aa; stroke-width:0.25" /><circle cx="189.62962962962965" cy="149.41798941798942" r="2.0" style="fill:none; stroke:#000000aa; stroke-width:0.25" /><circle cx="72.80423280423281" cy="207.83068783068785" r="2.0" style="fill:none; stroke:#000000aa; stroke-width:0.25" /><circle cx="0.21164021164021166" cy="65.18518518518519" r="2.0" style="fill:none; stroke:#ff3366aa; stroke-width:0.25" /><circle cx="118.94179894179895" cy="19.894179894179896" r="2.0" style="fill:none; stroke:#ff3366aa; stroke-width:0.25" /><circle cx="189.20634920634922" cy="149.41798941798942" r="2.0" style="fill:none; stroke:#ff3366aa; stroke-width:0.25" /><circle cx="73.43915343915344" cy="207.83068783068785" r="2.0" style="fill:none; stroke:#ff3366aa; stroke-width:0.25" /><polyline points="9.100529100529101,57.142857142857146 8.677248677248677,57.56613756613757 8.253968253968255,57.989417989417994 7.6190476190476195,58.41269841269842 7.195767195767196,58.83597883597884 6.772486772486773,59.25925925925927 6.34920634920635,59.682539682539684 5.9259259259259265,60.10582010582011 5.502645502645503,60.52910052910053 4.867724867724868,60.952380952380956 4.444444444444445,61.37566137566138 4.021164021164021,61.798941798941804 3.3862433862433865,62.22222222222223 2.9629629629629632,62.64550264550265 2.53968253968254,63.06878306878308" style="fill:none; stroke:#001100; stroke-width:1.0" /><polyline points="7.195767195767196,74.07407407407408 6.772486772486773,73.65079365079366 6.34920634920635,73.01587301587303 5.9259259259259265,72.5925925925926 5.502645502645503,72.16931216931218 5.07936507936508,71.53439153439155 4.656084656084657,71.11111111111111 4.2328042328042335,70.47619047619048 3.8095238095238098,70.05291005291006 3.3862433862433865,69.62962962962963 2.9629629629629632,69.20634920634922 2.53968253968254,68.57142857142858 2.1164021164021167,68.14814814814815" style="fill:none; stroke:#000011; stroke-width:1.0" /><polyline points="125.07936507936509,30.052910052910054 124.65608465608466,29.41798941798942 124.23280423280424,28.994708994708997 123.80952380952382,28.35978835978836 123.3862433862434,27.724867724867728 122.96296296296298,27.301587301587304 122.53968253968254,26.666666666666668 122.11640211640213,26.031746031746035 121.6931216931217,25.3968253968254 121.4814814814815,24.761904761904763 121.05820105820106,24.12698412698413 120.84656084656086,23.492063492063494 120.42328042328043,22.857142857142858" style="fill:none; stroke:#001100; stroke-width:1.0" /><polyline points="107.51322751322752,22.645502645502646 108.14814814814815,22.645502645502646 108.78306878306879,22.645502645502646 109.41798941798943,22.645502645502646 110.05291005291006,22.645502645502646 110.6878306878307,22.222222222222225 111.32275132275133,22.222222222222225 111.95767195767196,22.222222222222225 112.5925925925926,22.010582010582013 113.22751322751324,21.7989417989418 113.86243386243387,21.58730158730159 114.49735449735451,21.375661375661377 115.13227513227514,21.164021164021165 115.76719576719577,20.952380952380953" style="fill:none; stroke:#000011; stroke-width:1.0" /><polyline points="179.8941798941799,157.03703703703704 180.52910052910053,156.61375661375664 180.95238095238096,156.1904761904762 181.5873015873016,155.76719576719577 182.22222222222223,155.34391534391534 182.64550264550266,154.92063492063494 183.2804232804233,154.4973544973545 183.70370370370372,154.07407407407408 184.33862433862436,153.65079365079367 184.7619047619048,153.22751322751324 185.39682539682542,152.8042328042328 185.82010582010582,152.38095238095238 186.45502645502646,151.95767195767198 186.8783068783069,151.53439153439155" style="fill:none; stroke:#001100; stroke-width:1.0" /><polyline points="186.66666666666669,137.989417989418 186.8783068783069,138.62433862433863 186.8783068783069,139.25925925925927 187.08994708994712,139.8941798941799 187.30158730158732,140.52910052910053 187.30158730158732,141.16402116402116 187.51322751322752,141.7989417989418 187.72486772486775,142.43386243386246 187.93650793650795,143.0687830687831 187.93650793650795,143.70370370370372 188.14814814814815,144.33862433862436 188.35978835978838,144.973544973545 188.57142857142858,145.60846560846562 188.78306878306879,146.24338624338625" style="fill:none; stroke:#000011; stroke-width:1.0" /><polyline points="70.47619047619048,196.61375661375664 70.6878306878307,197.24867724867727 70.6878306878307,197.8835978835979 70.8994708994709,198.51851851851853 71.11111111111111,199.15343915343917 71.11111111111111,199.7883597883598 71.32275132275133,200.42328042328043 71.53439153439155,201.05820105820106 71.53439153439155,201.6931216931217 71.74603174603175,202.32804232804233 71.74603174603175,202.962962962963 71.95767195767196,203.59788359788362 71.95767195767196,204.23280423280426 72.16931216931218,204.8677248677249" style="fill:none; stroke:#001100; stroke-width:1.0" /><polyline points="85.07936507936509,205.29100529100532 84.44444444444446,205.29100529100532 83.80952380952381,205.50264550264552 83.17460317460318,205.71428571428572 82.53968253968254,205.92592592592595 81.90476190476191,205.92592592592595 81.26984126984128,206.13756613756615 80.63492063492065,206.13756613756615 80.0,206.34920634920636 79.36507936507937,206.34920634920636 78.73015873015873,206.56084656084658 78.0952380952381,206.7724867724868 77.46031746031747,206.7724867724868 76.82539682539684,206.984126984127" style="fill:none; stroke:#000011; stroke-width:1.0" /><polyline points="2.53968253968254,63.06878306878308 -13.121693121693122,77.24867724867725" style="fill:none; stroke:#ffaa00; stroke-width:0.4" /><polyline points="2.1164021164021167,68.14814814814815 -11.640211640211641,52.06349206349207" style="fill:none; stroke:#aaff00; stroke-width:0.4" /><polyline points="120.42328042328043,22.857142857142858 108.994708994709,5.07936507936508" style="fill:none; stroke:#ffaa00; stroke-width:0.4" /><polyline points="115.76719576719577,20.952380952380953 136.5079365079365,16.71957671957672" style="fill:none; stroke:#aaff00; stroke-width:0.4" /><polyline points="186.8783068783069,151.53439153439155 203.59788359788362,138.41269841269843" style="fill:none; stroke:#ffaa00; stroke-width:0.4" /><polyline points="188.78306878306879,146.24338624338625 194.07407407407408,166.7724867724868" style="fill:none; stroke:#aaff00; stroke-width:0.4" /><polyline points="72.16931216931218,204.8677248677249 76.4021164021164,225.60846560846562" style="fill:none; stroke:#ffaa00; stroke-width:0.4" /><polyline points="76.82539682539684,206.984126984127 56.08465608465609,211.21693121693124" style="fill:none; stroke:#aaff00; stroke-width:0.4" /><circle cx="92.4867724867725" cy="104.97354497354497" r="1.0" style="fill:#444444; stroke-width:0" /><circle cx="75.55555555555556" cy="81.26984126984128" r="10.582010582010582" style="fill:#ff770022; stroke-width:0" /><circle cx="75.55555555555556" cy="81.26984126984128" r="1.0" style="fill:#ff7700; stroke-width:0" /></svg>