<?xml version="1.0" encoding="UTF-8" standalone="no"?><svg width="600.0" height="620.952380952381" viewBox="-10 -10 220.00000000000003 226.984126984127" xmlns="http://www.w3.org/2000/svg" xmlns:xlink="http://www.w3.org/1999/xlink"><polyline points="99.8941798941799,2.1164021164021167 102.64550264550266,3.8095238095238098 103.06878306878308,4.2328042328042335 103.70370370370371,4.444444444444445 104.33862433862434,4.867724867724868 104.97354497354497,5.291005291005291 105.60846560846562,5.502645502645503 106.03174603174604,5.9259259259259265 106.66666666666667,6.137566137566138 107.0899470899471,6.560846560846561 107.72486772486774,6.984126984126985 108.35978835978837,7.195767195767196 108.78306878306879,7.6190476190476195 109.41798941798943,7.830687830687832 109.84126984126985,8.253968253968255 110.47619047619048,8.677248677248677 111.11111111111111,8.88888888888889 111.74603174603176,9.312169312169313 112.16931216931218,9.735449735449736 112.80423280423281,10.15873015873016 113.43915343915344,10.582010582010582 114.07407407407408,11.005291005291006 114.70899470899472,11.428571428571429 115.34391534391536,11.851851851851853 115.76719576719577,12.275132275132275 116.4021164021164,12.6984126984127 117.03703703703705,13.121693121693122 117.46031746031747,13.544973544973546 117.88359788359789,13.96825396825397 118.51851851851853,14.391534391534393 119.15343915343917,14.814814814814817 119.7883597883598,15.238095238095239 120.21164021164022,15.661375661375663 120.84656084656086,16.084656084656086 121.26984126984128,16.50793650793651 121.90476190476191,16.71957671957672 122.32804232804234,17.142857142857146 122.96296296296298,17.566137566137566 123.3862433862434,17.98941798941799 124.02116402116403,18.412698412698415 124.44444444444446,18.83597883597884 124.86772486772487,19.25925925925926 125.5026455026455,19.682539682539684 125.92592592592594,20.105820105820108 126.56084656084657,20.529100529100532 126.98412698412699,20.952380952380953 127.40740740740742,21.375661375661377 127.83068783068784,21.7989417989418 128.46560846560848,22.222222222222225 129.10052910052912,22.645502645502646 129.73544973544975,23.06878306878307 130.37037037037038,23.280423280423282 131.005291005291,23.492063492063494 131.64021164021165,23.492063492063494 132.06349206349208,23.915343915343918 132.6984126984127,23.915343915343918 133.33333333333334,23.915343915343918 133.96825396825398,23.915343915343918 134.6031746031746,23.703703703703706 135.23809523809524,23.492063492063494 135.87301587301587,23.280423280423282 136.2962962962963,22.857142857142858 136.93121693121694,22.645502645502646 137.35449735449737,22.222222222222225 137.7777777777778,21.58730158730159 138.2010582010582,21.164021164021165 138.62433862433863,20.529100529100532 138.83597883597884,19.894179894179896 139.25925925925927,19.25925925925926 139.47089947089947,18.624338624338627 139.6825396825397,17.98941798941799 139.6825396825397,17.354497354497354 139.8941798941799,16.71957671957672 139.8941798941799,16.084656084656086 139.8941798941799,15.449735449735451 140.10582010582013,14.814814814814817 140.10582010582013,14.17989417989418 140.10582010582013,13.544973544973546 140.10582010582013,12.910052910052912 140.10582010582013,12.275132275132275 140.10582010582013,11.640211640211641 140.31746031746033,11.005291005291006 140.31746031746033,10.370370370370372 140.31746031746033,9.735449735449736 140.52910052910053,9.100529100529101 140.52910052910053,8.465608465608467 140.74074074074076,7.830687830687832 140.95238095238096,7.195767195767196 141.3756613756614,6.560846560846561 141.7989417989418,5.9259259259259265 142.01058201058203,5.291005291005291 142.43386243386246,4.867724867724868 142.85714285714286,4.444444444444445 143.2804232804233,4.021164021164021 143.70370370370372,3.597883597883598 144.12698412698413,3.174603174603175 144.55026455026456,2.7513227513227516 145.1851851851852,2.3280423280423284 145.82010582010582,1.9047619047619049 146.45502645502646,1.6931216931216932 147.0899470899471,1.26984126984127 147.72486772486775,1.0582010582010584 148.35978835978838,0.8465608465608466 148.99470899470901,0.634920634920635 149.62962962962965,0.4232804232804233 150.26455026455028,0.4232804232804233 150.8994708994709,0.4232804232804233 151.53439153439155,0.21164021164021166 152.16931216931218,0.21164021164021166 152.8042328042328,0.4232804232804233 153.43915343915344,0.4232804232804233 154.07407407407408,0.634920634920635 154.7089947089947,0.634920634920635 155.34391534391534,0.634920634920635 155.978835978836,0.8465608465608466 156.61375661375664,0.8465608465608466 157.24867724867727,1.0582010582010584 157.8835978835979,1.0582010582010584 158.51851851851853,1.26984126984127 159.15343915343917,1.6931216931216932 159.7883597883598,1.9047619047619049 160.42328042328043,2.1164021164021167 161.05820105820106,2.3280423280423284 161.6931216931217,2.7513227513227516 162.32804232804233,2.9629629629629632 162.96296296296296,3.3862433862433865 163.59788359788362,3.597883597883598 164.23280423280426,4.021164021164021 164.8677248677249,4.2328042328042335 165.2910052910053,4.656084656084657 165.92592592592595,5.07936507936508 166.56084656084658,5.502645502645503 166.984126984127,5.9259259259259265 167.40740740740742,6.34920634920635 168.04232804232805,6.772486772486773 168.46560846560848,7.195767195767196 168.8888888888889,7.6190476190476195 169.31216931216932,8.042328042328043 169.73544973544975,8.465608465608467 170.37037037037038,8.88888888888889 170.7936507936508,9.523809523809524 171.21693121693124,9.947089947089948 171.64021164021165,10.582010582010582 172.06349206349208,11.216931216931219 172.4867724867725,11.851851851851853 172.9100529100529,12.486772486772487 173.12169312169314,13.121693121693122 173.33333333333334,13.756613756613758 173.54497354497354,14.391534391534393 173.75661375661377,15.026455026455027 173.96825396825398,15.661375661375663 173.96825396825398,16.296296296296298 173.96825396825398,16.931216931216934 173.96825396825398,17.566137566137566 173.96825396825398,18.201058201058203 173.75661375661377,18.83597883597884 173.54497354497354,19.47089947089947 173.33333333333334,20.105820105820108 173.12169312169314,20.740740740740744 172.9100529100529,21.375661375661377 172.6984126984127,22.010582010582013 172.27513227513228,22.645502645502646 171.85185185185188,23.280423280423282 171.42857142857144,23.915343915343918 171.005291005291,24.55026455026455 170.58201058201058,24.973544973544975 170.15873015873018,25.60846560846561 169.73544973544975,26.031746031746035 169.10052910052912,26.455026455026456 168.67724867724868,26.87830687830688 168.25396825396825,27.301587301587304 167.61904761904762,27.724867724867728 167.19576719576722,28.14814814814815 166.56084656084658,28.571428571428573 166.13756613756615,28.994708994708997 165.71428571428572,29.629629629629633 165.2910052910053,30.052910052910054 164.8677248677249,30.68783068783069 164.8677248677249,31.322751322751326 164.44444444444446,31.95767195767196 164.44444444444446,32.592592592592595 164.23280423280426,33.22751322751323 164.23280423280426,33.86243386243387 164.23280423280426,34.4973544973545 164.23280423280426,35.13227513227513 164.44444444444446,35.76719576719577 164.65608465608466,36.402116402116405 165.0793650793651,37.03703703703704 165.2910052910053,37.67195767195768 165.71428571428572,38.095238095238095 166.13756613756615,38.51851851851852 166.56084656084658,38.94179894179894 166.984126984127,39.36507936507937 167.40740740740742,39.78835978835979 168.04232804232805,40.211640211640216 168.46560846560848,40.63492063492064 169.10052910052912,41.058201058201064 169.52380952380955,41.48148148148149 170.15873015873018,41.904761904761905 170.7936507936508,42.32804232804233 171.42857142857144,42.75132275132275 172.06349206349208,43.17460317460318 172.6984126984127,43.5978835978836 173.33333333333334,44.021164021164026 173.75661375661377,44.44444444444445 174.3915343915344,44.867724867724874 175.02645502645504,45.29100529100529 175.66137566137567,45.714285714285715 176.2962962962963,46.13756613756614 176.93121693121694,46.560846560846564 177.56613756613757,46.98412698412699 178.2010582010582,47.40740740740741 178.83597883597884,47.830687830687836 179.4708994708995,48.25396825396826 179.8941798941799,48.677248677248684 180.52910052910053,49.1005291005291 181.16402116402116,49.523809523809526 181.79894179894183,49.94708994708995 182.43386243386246,50.370370370370374 182.85714285714286,50.7936507936508 183.4920634920635,51.21693121693122 184.12698412698415,51.640211640211646 184.7619047619048,52.06349206349207 185.39682539682542,52.48677248677249 185.82010582010582,52.91005291005291 186.45502645502646,53.333333333333336 187.08994708994712,53.75661375661376 187.72486772486775,54.179894179894184 188.35978835978838,54.60317460317461 188.99470899470901,55.02645502645503 189.62962962962965,55.449735449735456 190.26455026455028,55.87301587301588 190.6878306878307,56.2962962962963 191.32275132275134,56.71957671957672 191.95767195767198,56.93121693121694 192.3809523809524,57.35449735449736 193.01587301587304,57.777777777777786 193.65079365079367,58.2010582010582 194.07407407407408,58.62433862433863 194.70899470899474,58.83597883597884 195.13227513227514,59.25925925925927 195.76719576719577,59.682539682539684 196.4021164021164,60.10582010582011 196.82539682539684,60.52910052910053 199.7883597883598,62.64550264550265" style="fill:none; stroke:#cc0000; stroke-width:1.0"  /><polyline points="199.7883597883598,62.64550264550265 197.46031746031747,65.3968253968254 197.24867724867727,66.03174603174604 196.61375661375664,66.45502645502646 196.1904761904762,67.08994708994709 195.76719576719577,67.51322751322752 195.34391534391537,67.93650793650794 194.92063492063494,68.57142857142858 194.4973544973545,68.994708994709 194.07407407407408,69.62962962962963 193.65079365079367,70.05291005291006 193.22751322751324,70.6878306878307 192.8042328042328,71.11111111111111 192.3809523809524,71.74603174603175 191.95767195767198,72.16931216931218 191.53439153439155,72.80423280423281 191.32275132275134,73.43915343915344 190.8994708994709,73.86243386243387 190.47619047619048,74.49735449735451 190.05291005291008,74.92063492063492 189.62962962962965,75.55555555555556 189.41798941798945,76.19047619047619 188.99470899470901,76.82539682539684 188.57142857142858,77.46031746031747 188.35978835978838,78.0952380952381 187.93650793650795,78.73015873015873 187.72486772486775,79.36507936507937 187.51322751322752,80.0 187.30158730158732,80.63492063492065 187.08994708994712,81.26984126984128 186.8783068783069,81.90476190476191 186.66666666666669,82.53968253968254 186.66666666666669,83.17460317460318 186.45502645502646,83.80952380952381 186.24338624338625,84.44444444444446 186.24338624338625,85.07936507936509 186.03174603174605,85.71428571428572 186.03174603174605,86.34920634920636 186.03174603174605,86.98412698412699 186.03174603174605,87.61904761904762 185.82010582010582,88.25396825396827 185.82010582010582,88.8888888888889 185.82010582010582,89.52380952380953 186.03174603174605,90.15873015873017 186.03174603174605,90.7936507936508 186.03174603174605,91.42857142857143 186.03174603174605,92.06349206349208 186.03174603174605,92.69841269841271 186.24338624338625,93.33333333333334 186.24338624338625,93.96825396825398 186.24338624338625,94.60317460317461 186.45502645502646,95.23809523809524 186.45502645502646,95.87301587301587 186.45502645502646,96.50793650793652 186.45502645502646,97.14285714285715 186.24338624338625,97.77777777777779 186.03174603174605,98.41269841269842 186.03174603174605,99.04761904761905 185.82010582010582,99.68253968253968 185.82010582010582,100.31746031746033 185.82010582010582,100.95238095238096 185.60846560846562,101.5873015873016 185.39682539682542,102.22222222222223 185.1851851851852,102.85714285714286 184.7619047619048,103.4920634920635 184.33862433862436,103.91534391534393 183.91534391534393,104.33862433862434 183.2804232804233,104.76190476190477 182.64550264550266,105.18518518518519 182.01058201058203,105.3968253968254 181.3756613756614,105.60846560846562 180.74074074074076,105.60846560846562 180.10582010582013,105.60846560846562 179.4708994708995,105.3968253968254 178.83597883597884,105.18518518518519 178.2010582010582,104.97354497354497 177.56613756613757,104.76190476190477 176.93121693121694,104.33862433862434 176.2962962962963,103.91534391534393 175.66137566137567,103.70370370370371 175.23809523809524,103.28042328042329 174.6031746031746,102.85714285714286 173.96825396825398,102.43386243386244 173.54497354497354,102.01058201058201 172.9100529100529,101.5873015873016 172.27513227513228,101.16402116402116 171.85185185185188,100.74074074074075 171.21693121693124,100.52910052910053 170.7936507936508,100.10582010582011 170.15873015873018,99.68253968253968 169.73544973544975,99.25925925925927 169.31216931216932,98.83597883597885 168.67724867724868,98.41269841269842 168.25396825396825,97.989417989418 167.61904761904762,97.56613756613757 167.19576719576722,97.14285714285715 166.56084656084658,96.71957671957672 166.13756613756615,96.2962962962963 165.50264550264552,95.87301587301587 165.0793650793651,95.44973544973546 164.44444444444446,95.02645502645504 163.80952380952382,94.60317460317461 163.1746031746032,94.39153439153439 162.75132275132276,93.96825396825398 162.11640211640213,93.75661375661376 161.4814814814815,93.33333333333334 160.84656084656086,93.12169312169313 160.21164021164023,92.91005291005291 159.5767195767196,92.4867724867725 158.94179894179896,92.4867724867725 158.30687830687833,92.27513227513228 157.67195767195767,92.06349206349208 157.03703703703704,91.85185185185186 156.4021164021164,91.85185185185186 155.76719576719577,91.64021164021165 155.13227513227514,91.64021164021165 154.4973544973545,91.42857142857143 153.86243386243387,91.42857142857143 153.22751322751324,91.42857142857143 152.5925925925926,91.21693121693123 151.95767195767198,91.21693121693123 151.32275132275134,91.21693121693123 150.6878306878307,91.21693121693123 150.05291005291005,91.21693121693123 149.41798941798942,91.21693121693123 148.78306878306879,91.21693121693123 148.14814814814815,91.21693121693123 147.51322751322752,91.42857142857143 146.8783068783069,91.42857142857143 146.24338624338625,91.64021164021165 145.60846560846562,91.64021164021165 144.973544973545,91.85185185185186 144.33862433862436,92.06349206349208 143.70370370370372,92.27513227513228 143.0687830687831,92.4867724867725 142.43386243386246,92.4867724867725 141.7989417989418,92.91005291005291 141.16402116402116,93.12169312169313 140.52910052910053,93.54497354497356 139.8941798941799,93.75661375661376 139.47089947089947,94.17989417989419 138.83597883597884,94.60317460317461 138.41269841269843,95.02645502645504 137.7777777777778,95.44973544973546 137.35449735449737,96.08465608465609 136.93121693121694,96.50793650793652 136.5079365079365,96.93121693121694 136.0846560846561,97.35449735449737 135.66137566137567,97.989417989418 135.23809523809524,98.41269841269842 134.81481481481484,99.04761904761905 134.3915343915344,99.68253968253968 133.96825396825398,100.31746031746033 133.75661375661377,100.95238095238096 133.54497354497354,101.5873015873016 133.12169312169314,102.22222222222223 132.9100529100529,102.85714285714286 132.6984126984127,103.4920634920635 132.4867724867725,104.12698412698414 132.27513227513228,104.76190476190477 132.06349206349208,105.3968253968254 131.85185185185185,106.03174603174604 131.64021164021165,106.66666666666667 131.42857142857144,107.3015873015873 131.21693121693121,107.93650793650795 131.21693121693121,108.57142857142858 131.005291005291,109.20634920634922 130.7936507936508,109.84126984126985 130.7936507936508,110.47619047619048 130.58201058201058,111.11111111111111 130.37037037037038,111.74603174603176 130.37037037037038,112.3809523809524 130.37037037037038,113.01587301587303 130.15873015873018,113.65079365079366 130.15873015873018,114.28571428571429 129.94708994708995,114.92063492063492 129.94708994708995,115.55555555555557 129.94708994708995,116.1904761904762 129.94708994708995,116.82539682539684 129.94708994708995,117.46031746031747 129.94708994708995,118.0952380952381 129.94708994708995,118.73015873015873 129.94708994708995,119.36507936507937 129.94708994708995,120.00000000000001 130.15873015873018,120.63492063492065 130.15873015873018,121.26984126984128 130.15873015873018,121.90476190476191 130.37037037037038,122.53968253968254 130.37037037037038,123.17460317460318 130.58201058201058,123.80952380952382 130.7936507936508,124.44444444444446 131.005291005291,125.07936507936509 131.005291005291,125.71428571428572 131.21693121693121,126.34920634920636 131.42857142857144,126.98412698412699 131.64021164021165,127.61904761904763 131.85185185185185,128.25396825396825 132.06349206349208,128.88888888888889 132.27513227513228,129.52380952380955 132.4867724867725,130.15873015873018 132.6984126984127,130.7936507936508 132.9100529100529,131.42857142857144 133.33333333333334,132.06349206349208 133.54497354497354,132.6984126984127 133.96825396825398,133.33333333333334 134.17989417989418,133.96825396825398 134.6031746031746,134.6031746031746 135.02645502645504,135.02645502645504 135.44973544973547,135.66137566137567 135.87301587301587,136.0846560846561 136.5079365079365,136.5079365079365 136.93121693121694,136.93121693121694 137.35449735449737,137.35449735449737 137.7777777777778,137.7777777777778 138.41269841269843,138.2010582010582 138.83597883597884,138.62433862433863 139.47089947089947,138.83597883597884 140.10582010582013,139.25925925925927 140.74074074074076,139.47089947089947 141.3756613756614,139.6825396825397 142.01058201058203,139.8941798941799 142.64550264550266,139.8941798941799 143.2804232804233,140.10582010582013 143.91534391534393,140.10582010582013 144.55026455026456,140.10582010582013 145.1851851851852,140.31746031746033 145.82010582010582,140.52910052910053 146.45502645502646,140.31746031746033 147.0899470899471,140.31746031746033 147.72486772486775,140.31746031746033 148.35978835978838,140.10582010582013 148.99470899470901,140.10582010582013 149.62962962962965,140.10582010582013 150.26455026455028,140.10582010582013 150.8994708994709,139.8941798941799 151.53439153439155,139.6825396825397 152.16931216931218,139.6825396825397 152.8042328042328,139.47089947089947 153.43915343915344,139.25925925925927 154.07407407407408,139.25925925925927 154.7089947089947,139.04761904761907 155.34391534391534,138.83597883597884 155.76719576719577,138.41269841269843 156.4021164021164,138.41269841269843 156.82539682539684,137.989417989418 157.46031746031747,137.7777777777778 158.0952380952381,137.56613756613757 158.73015873015873,137.35449735449737 159.36507936507937,137.14285714285717 160.0,136.71957671957674 160.63492063492066,136.5079365079365 161.2698412698413,136.5079365079365 161.90476190476193,136.0846560846561 162.53968253968256,135.87301587301587 163.1746031746032,135.66137566137567 163.80952380952382,135.44973544973547 164.44444444444446,135.23809523809524 165.0793650793651,135.02645502645504 165.71428571428572,134.81481481481484 166.34920634920636,134.6031746031746 166.984126984127,134.17989417989418 167.61904761904762,133.96825396825398 168.25396825396825,133.75661375661377 168.8888888888889,133.54497354497354 169.52380952380955,133.33333333333334 170.15873015873018,133.12169312169314 170.7936507936508,133.12169312169314 171.42857142857144,132.6984126984127 172.06349206349208,132.6984126984127 172.4867724867725,132.27513227513228 173.12169312169314,132.27513227513228 173.75661375661377,132.27513227513228 174.3915343915344,131.85185185185185 175.02645502645504,131.85185185185185 175.66137566137567,131.64021164021165 176.2962962962963,131.64021164021165 176.93121693121694,131.42857142857144 177.56613756613757,131.42857142857144 178.2010582010582,131.42857142857144 178.83597883597884,131.64021164021165 179.4708994708995,131.85185185185185 180.10582010582013,132.06349206349208 180.74074074074076,132.4867724867725 181.3756613756614,132.9100529100529 181.79894179894183,133.54497354497354 182.22222222222223,134.17989417989418 182.22222222222223,134.81481481481484 182.43386243386246,135.44973544973547 182.64550264550266,136.0846560846561 182.64550264550266,136.71957671957674 182.64550264550266,137.35449735449737 182.64550264550266,137.989417989418 182.43386243386246,138.62433862433863 182.22222222222223,139.25925925925927 182.01058201058203,139.8941798941799 181.79894179894183,140.52910052910053 181.5873015873016,141.16402116402116 181.3756613756614,141.7989417989418 181.16402116402116,142.43386243386246 180.95238095238096,143.0687830687831 180.52910052910053,143.70370370370372 180.31746031746033,144.33862433862436 179.8941798941799,144.76190476190476 179.4708994708995,145.39682539682542 179.04761904761907,146.03174603174605 178.62433862433863,146.66666666666669 178.2010582010582,147.0899470899471 177.7777777777778,147.72486772486775 177.35449735449737,148.14814814814815 176.93121693121694,148.78306878306879 176.50793650793653,149.20634920634922 176.0846560846561,149.62962962962965 175.66137566137567,150.26455026455028 175.02645502645504,150.6878306878307 174.6031746031746,151.32275132275134 174.1798941798942,151.74603174603175 173.75661375661377,152.38095238095238 173.33333333333334,152.8042328042328 172.9100529100529,153.22751322751324 172.4867724867725,153.65079365079367 172.06349206349208,154.07407407407408 171.42857142857144,154.4973544973545 171.005291005291,154.92063492063494 170.58201058201058,155.34391534391534 170.15873015873018,155.76719576719577 169.52380952380955,156.1904761904762 169.10052910052912,156.61375661375664 168.67724867724868,157.03703703703704 168.04232804232805,157.24867724867727 167.61904761904762,157.67195767195767 166.984126984127,158.0952380952381 166.34920634920636,158.51851851851853 165.71428571428572,158.94179894179896 165.2910052910053,159.36507936507937 164.65608465608466,159.7883597883598 164.23280423280426,160.21164021164023 163.59788359788362,160.63492063492066 162.96296296296296,161.05820105820106 162.32804232804233,161.4814814814815 161.90476190476193,161.90476190476193 161.2698412698413,162.32804232804233 160.63492063492066,162.53968253968256 160.21164021164023,162.96296296296296 159.5767195767196,163.3862433862434 158.94179894179896,163.80952380952382 158.51851851851853,164.23280423280426 157.8835978835979,164.65608465608466 157.24867724867727,165.0793650793651 156.82539682539684,165.50264550264552 156.4021164021164,165.92592592592595 155.978835978836,166.34920634920636 155.34391534391534,166.56084656084658 154.92063492063494,166.984126984127 154.4973544973545,167.40740740740742 153.86243386243387,167.61904761904762 153.43915343915344,168.04232804232805 152.8042328042328,168.46560846560848 152.16931216931218,168.8888888888889 151.53439153439155,169.31216931216932 150.8994708994709,169.73544973544975 150.47619047619048,170.15873015873018 149.84126984126985,170.58201058201058 149.41798941798942,171.005291005291 148.78306878306879,171.42857142857144 148.14814814814815,171.85185185185188 147.51322751322752,172.27513227513228 147.0899470899471,172.6984126984127 146.45502645502646,173.12169312169314 146.03174603174605,173.54497354497354 145.39682539682542,173.96825396825398 144.973544973545,174.3915343915344 144.33862433862436,174.81481481481484 143.91534391534393,175.23809523809524 143.4920634920635,175.66137566137567 143.0687830687831,176.0846560846561 142.43386243386246,176.50793650793653 142.01058201058203,177.14285714285717 141.3756613756614,177.56613756613757 140.95238095238096,178.2010582010582 140.52910052910053,178.62433862433863 140.10582010582013,179.04761904761907 139.6825396825397,179.4708994708995 139.25925925925927,179.8941798941799 138.83597883597884,180.52910052910053 138.41269841269843,180.95238095238096 137.989417989418,181.5873015873016 137.56613756613757,182.01058201058203 137.14285714285717,182.64550264550266 136.71957671957674,183.2804232804233 136.5079365079365,183.91534391534393 136.0846560846561,184.33862433862436 135.87301587301587,184.973544973545 135.44973544973547,185.60846560846562 135.02645502645504,186.24338624338625 134.81481481481484,186.8783068783069 132.4867724867725,190.47619047619048" style="fill:none; stroke:#999900; stroke-width:1.0"  /><polyline points="132.4867724867725,190.47619047619048 129.73544973544975,189.41798941798945 129.10052910052912,189.20634920634922 128.46560846560848,188.78306878306879 127.83068783068784,188.57142857142858 127.1957671957672,188.35978835978838 126.56084656084657,188.14814814814815 125.92592592592594,187.93650793650795 125.2910052910053,187.51322751322752 124.65608465608466,187.30158730158732 124.02116402116403,187.08994708994712 123.3862433862434,186.8783068783069 122.75132275132276,186.45502645502646 122.11640211640213,186.24338624338625 121.4814814814815,186.24338624338625 120.84656084656086,185.82010582010582 120.21164021164022,185.60846560846562 119.57671957671958,185.39682539682542 118.94179894179895,185.1851851851852 118.30687830687832,184.7619047619048 117.67195767195768,184.55026455026456 117.03703703703705,184.12698412698415 116.4021164021164,183.91534391534393 115.76719576719577,183.70370370370372 115.13227513227514,183.4920634920635 114.49735449735451,183.0687830687831 113.86243386243387,182.85714285714286 113.22751322751324,182.64550264550266 112.80423280423281,182.22222222222223 112.16931216931218,182.01058201058203 111.53439153439155,181.5873015873016 110.89947089947091,181.3756613756614 110.26455026455027,181.16402116402116 109.62962962962963,180.74074074074076 108.994708994709,180.52910052910053 108.35978835978837,180.10582010582013 107.72486772486774,179.8941798941799 107.0899470899471,179.4708994708995 106.45502645502647,179.25925925925927 105.82010582010582,178.83597883597884 105.18518518518519,178.41269841269843 104.55026455026456,178.2010582010582 104.12698412698414,177.7777777777778 103.4920634920635,177.56613756613757 102.85714285714286,177.14285714285717 102.22222222222223,176.71957671957674 101.5873015873016,176.2962962962963 100.95238095238096,175.87301587301587 100.31746031746033,175.44973544973547 99.68253968253968,175.23809523809524 99.25925925925927,174.81481481481484 98.62433862433863,174.6031746031746 98.2010582010582,174.1798941798942 97.77777777777779,173.75661375661377 97.14285714285715,173.54497354497354 96.71957671957672,173.12169312169314 96.08465608465609,172.6984126984127 95.44973544973546,172.4867724867725 94.81481481481482,172.06349206349208 94.17989417989419,171.85185185185188 93.54497354497356,171.64021164021165 92.91005291005291,171.42857142857144 92.27513227513228,171.21693121693124 91.64021164021165,171.21693121693124 91.00529100529101,171.21693121693124 90.37037037037038,171.21693121693124 89.73544973544975,171.21693121693124 89.1005291005291,171.42857142857144 88.46560846560847,171.64021164021165 87.83068783068784,171.85185185185188 87.1957671957672,172.27513227513228 86.77248677248677,172.6984126984127 86.34920634920636,173.12169312169314 85.92592592592594,173.54497354497354 85.29100529100529,173.96825396825398 84.86772486772487,174.3915343915344 84.44444444444446,175.02645502645504 84.02116402116403,175.66137566137567 83.80952380952381,176.2962962962963 83.3862433862434,176.93121693121694 83.17460317460318,177.56613756613757 82.96296296296298,178.2010582010582 82.75132275132276,178.83597883597884 82.75132275132276,179.4708994708995 82.53968253968254,180.10582010582013 82.53968253968254,180.74074074074076 82.53968253968254,181.3756613756614 82.32804232804233,182.01058201058203 82.32804232804233,182.64550264550266 82.11640211640213,183.2804232804233 82.11640211640213,183.91534391534393 82.11640211640213,184.55026455026456 82.11640211640213,185.1851851851852 81.90476190476191,185.82010582010582 81.90476190476191,186.45502645502646 81.90476190476191,187.08994708994712 81.90476190476191,187.72486772486775 81.90476190476191,188.35978835978838 81.6931216931217,188.99470899470901 81.6931216931217,189.62962962962965 81.6931216931217,190.26455026455028 81.6931216931217,190.8994708994709 81.6931216931217,191.53439153439155 81.6931216931217,192.16931216931218 81.48148148148148,192.8042328042328 81.48148148148148,193.43915343915344 81.48148148148148,194.07407407407408 81.48148148148148,194.70899470899474 81.26984126984128,195.34391534391537 81.05820105820106,195.978835978836 80.84656084656085,196.61375661375664 80.84656084656085,197.24867724867727 80.63492063492065,197.8835978835979 80.42328042328043,198.51851851851853 80.0,199.15343915343917 79.7883597883598,199.7883597883598 79.57671957671958,200.42328042328043 79.15343915343917,201.05820105820106 78.94179894179895,201.6931216931217 78.51851851851852,202.32804232804233 78.0952380952381,202.75132275132276 77.67195767195767,203.1746031746032 77.24867724867725,203.59788359788362 76.82539682539684,204.02116402116403 76.4021164021164,204.44444444444446 75.76719576719577,204.65608465608466 75.13227513227514,205.0793650793651 74.49735449735451,205.29100529100532 73.86243386243387,205.50264550264552 73.22751322751323,205.92592592592595 72.5925925925926,206.13756613756615 71.95767195767196,206.34920634920636 71.32275132275133,206.34920634920636 70.6878306878307,206.56084656084658 70.05291005291006,206.56084656084658 69.41798941798942,206.56084656084658 68.78306878306879,206.56084656084658 68.14814814814815,206.56084656084658 67.51322751322752,206.56084656084658 66.87830687830689,206.56084656084658 66.24338624338625,206.56084656084658 65.60846560846561,206.34920634920636 64.97354497354497,206.34920634920636 64.33862433862434,206.13756613756615 63.70370370370371,206.13756613756615 63.06878306878308,205.92592592592595 62.43386243386244,205.71428571428572 61.798941798941804,205.50264550264552 61.16402116402117,205.29100529100532 60.52910052910053,205.0793650793651 59.8941798941799,204.8677248677249 59.25925925925927,204.65608465608466 58.62433862433863,204.23280423280426 57.989417989417994,204.02116402116403 57.35449735449736,203.59788359788362 56.71957671957672,203.1746031746032 56.08465608465609,202.962962962963 55.661375661375665,202.53968253968256 55.02645502645503,202.11640211640213 54.39153439153439,201.6931216931217 53.75661375661376,201.2698412698413 53.12169312169313,200.84656084656086 52.6984126984127,200.42328042328043 52.27513227513228,200.00000000000003 51.640211640211646,199.7883597883598 51.21693121693122,199.36507936507937 50.7936507936508,198.94179894179896 50.370370370370374,198.30687830687833 49.94708994708995,197.8835978835979 49.523809523809526,197.46031746031747 49.1005291005291,197.03703703703704 48.677248677248684,196.61375661375664 48.25396825396826,196.1904761904762 47.830687830687836,195.55555555555557 47.40740740740741,195.13227513227514 46.98412698412699,194.70899470899474 46.560846560846564,194.07407407407408 46.13756613756614,193.43915343915344 45.92592592592593,192.8042328042328 45.50264550264551,192.16931216931218 45.29100529100529,191.53439153439155 45.07936507936508,190.8994708994709 44.867724867724874,190.26455026455028 44.867724867724874,189.62962962962965 44.65608465608466,188.99470899470901 44.65608465608466,188.35978835978838 44.65608465608466,187.72486772486775 44.65608465608466,187.08994708994712 44.65608465608466,186.45502645502646 44.65608465608466,185.82010582010582 44.867724867724874,185.1851851851852 45.07936507936508,184.55026455026456 45.07936507936508,183.91534391534393 45.50264550264551,183.4920634920635 45.714285714285715,182.85714285714286 46.13756613756614,182.22222222222223 46.349206349206355,181.5873015873016 46.77248677248678,180.95238095238096 47.195767195767196,180.52910052910053 47.61904761904762,180.10582010582013 48.042328042328045,179.6825396825397 48.46560846560847,179.25925925925927 49.1005291005291,179.04761904761907 49.523809523809526,178.62433862433863 50.158730158730165,178.2010582010582 50.7936507936508,177.7777777777778 51.42857142857143,177.35449735449737 52.06349206349207,176.93121693121694 52.48677248677249,176.50793650793653 53.12169312169313,176.0846560846561 53.75661375661376,175.66137566137567 54.39153439153439,175.23809523809524 55.02645502645503,174.81481481481484 55.661375661375665,174.3915343915344 56.2962962962963,173.96825396825398 56.93121693121694,173.54497354497354 57.35449735449736,173.12169312169314 57.777777777777786,172.6984126984127 58.2010582010582,172.27513227513228 58.62433862433863,171.85185185185188 59.04761904761905,171.42857142857144 59.470899470899475,170.7936507936508 59.682539682539684,170.15873015873018 59.8941798941799,169.52380952380955 60.10582010582011,168.8888888888889 60.31746031746032,168.25396825396825 60.52910052910053,167.61904761904762 60.52910052910053,166.984126984127 60.52910052910053,166.34920634920636 60.31746031746032,165.71428571428572 60.10582010582011,165.0793650793651 60.10582010582011,164.44444444444446 59.8941798941799,163.80952380952382 59.25925925925927,163.3862433862434 59.04761904761905,162.75132275132276 58.62433862433863,162.11640211640213 57.989417989417994,161.6931216931217 57.35449735449736,161.2698412698413 56.93121693121694,160.84656084656086 56.2962962962963,160.63492063492066 55.661375661375665,160.42328042328043 55.02645502645503,160.0 54.39153439153439,159.7883597883598 53.75661375661376,159.7883597883598 53.12169312169313,159.36507936507937 52.48677248677249,159.36507936507937 51.851851851851855,159.36507936507937 51.21693121693122,159.36507936507937 50.58201058201058,159.36507936507937 49.94708994708995,159.15343915343917 49.31216931216932,159.15343915343917 48.677248677248684,159.15343915343917 48.042328042328045,159.15343915343917 47.40740740740741,159.15343915343917 46.77248677248678,159.15343915343917 46.13756613756614,159.15343915343917 45.50264550264551,159.15343915343917 44.867724867724874,159.15343915343917 44.232804232804234,159.15343915343917 43.5978835978836,158.94179894179896 42.96296296296297,158.94179894179896 42.32804232804233,158.94179894179896 41.6931216931217,158.94179894179896 41.058201058201064,158.73015873015873 40.423280423280424,158.73015873015873 39.78835978835979,158.73015873015873 39.15343915343916,158.73015873015873 38.51851851851852,158.51851851851853 37.883597883597886,158.51851851851853 37.248677248677254,158.51851851851853 36.613756613756614,158.30687830687833 35.97883597883598,158.30687830687833 35.34391534391535,158.30687830687833 34.70899470899471,158.30687830687833 34.074074074074076,158.0952380952381 33.43915343915344,158.0952380952381 32.804232804232804,157.8835978835979 32.16931216931217,157.8835978835979 31.53439153439154,157.67195767195767 30.899470899470902,157.46031746031747 30.264550264550266,157.46031746031747 29.629629629629633,157.46031746031747 28.994708994708997,157.24867724867727 28.35978835978836,157.24867724867727 27.724867724867728,157.03703703703704 27.089947089947092,156.82539682539684 26.455026455026456,156.82539682539684 25.820105820105823,156.61375661375664 25.185185185185187,156.4021164021164 24.55026455026455,156.1904761904762 23.915343915343918,155.978835978836 23.280423280423282,155.978835978836 22.645502645502646,155.76719576719577 22.010582010582013,155.55555555555557 21.375661375661377,155.34391534391534 20.740740740740744,155.13227513227514 20.105820105820108,154.92063492063494 19.47089947089947,154.92063492063494 18.83597883597884,154.7089947089947 18.201058201058203,154.2857142857143 17.566137566137566,154.2857142857143 16.931216931216934,154.2857142857143 16.296296296296298,154.07407407407408 15.661375661375663,153.86243386243387 15.026455026455027,153.65079365079367 14.391534391534393,153.43915343915344 13.756613756613758,153.22751322751324 13.121693121693122,153.01587301587304 12.486772486772487,152.8042328042328 11.851851851851853,152.38095238095238 11.216931216931219,152.16931216931218 10.582010582010582,151.95767195767198 9.947089947089948,151.74603174603175 9.312169312169313,151.53439153439155 8.677248677248677,151.11111111111111 8.042328042328043,150.8994708994709 7.407407407407408,150.6878306878307 6.772486772486773,150.26455026455028 6.137566137566138,150.05291005291005 5.502645502645503,149.84126984126985 4.867724867724868,149.41798941798942 4.2328042328042335,149.20634920634922 3.597883597883598,148.99470899470901 2.9629629629629632,148.78306878306879 0.0,147.51322751322752" style="fill:none; stroke:#00aa99; stroke-width:1.0"  /><polyline points="0.0,147.51322751322752 1.6931216931216932,143.91534391534393 1.9047619047619049,143.2804232804233 2.3280423280423284,142.64550264550266 2.7513227513227516,142.01058201058203 2.9629629629629632,141.3756613756614 3.174603174603175,140.74074074074076 3.597883597883598,140.10582010582013 4.021164021164021,139.47089947089947 4.2328042328042335,138.83597883597884 4.656084656084657,138.2010582010582 4.867724867724868,137.56613756613757 5.291005291005291,136.93121693121694 5.291005291005291,136.2962962962963 5.714285714285714,135.66137566137567 5.9259259259259265,135.02645502645504 6.34920634920635,134.3915343915344 6.560846560846561,133.75661375661377 6.984126984126985,133.12169312169314 7.195767195767196,132.4867724867725 7.6190476190476195,131.85185185185185 7.830687830687832,131.21693121693121 8.253968253968255,130.58201058201058 8.465608465608467,129.94708994708995 8.88888888888889,129.31216931216932 9.100529100529101,128.67724867724868 9.312169312169313,128.04232804232805 9.735449735449736,127.61904761904763 9.947089947089948,126.98412698412699 10.370370370370372,126.34920634920636 10.582010582010582,125.71428571428572 10.793650793650794,125.07936507936509 11.216931216931219,124.44444444444446 11.640211640211641,123.80952380952382 11.851851851851853,123.17460317460318 12.275132275132275,122.53968253968254 12.6984126984127,121.90476190476191 13.121693121693122,121.26984126984128 13.333333333333334,120.63492063492065 13.756613756613758,120.21164021164022 13.96825396825397,119.57671957671958 14.391534391534393,118.94179894179895 14.603174603174605,118.30687830687832 15.026455026455027,117.88359788359789 15.238095238095239,117.24867724867725 15.661375661375663,116.82539682539684 16.084656084656086,116.1904761904762 16.296296296296298,115.55555555555557 16.71957671957672,114.92063492063492 16.931216931216934,114.28571428571429 17.354497354497354,113.65079365079366 17.77777777777778,113.01587301587303 18.201058201058203,112.3809523809524 18.624338624338627,111.74603174603176 18.83597883597884,111.11111111111111 19.25925925925926,110.6878306878307 19.682539682539684,110.05291005291006 20.105820105820108,109.62962962962963 20.529100529100532,108.994708994709 20.952380952380953,108.35978835978837 21.375661375661377,107.93650793650795 21.7989417989418,107.51322751322752 22.222222222222225,107.0899470899471 22.645502645502646,106.45502645502647 23.06878306878307,106.03174603174604 23.492063492063494,105.60846560846562 23.915343915343918,105.18518518518519 24.55026455026455,104.76190476190477 24.973544973544975,104.33862433862434 25.3968253968254,103.91534391534393 26.031746031746035,103.4920634920635 26.666666666666668,103.06878306878308 27.301587301587304,102.64550264550266 27.93650793650794,102.43386243386244 28.35978835978836,102.01058201058201 28.994708994708997,101.5873015873016 29.629629629629633,101.16402116402116 30.264550264550266,100.95238095238096 30.899470899470902,100.74074074074075 31.53439153439154,100.31746031746033 32.16931216931217,100.10582010582011 32.804232804232804,100.10582010582011 33.43915343915344,99.8941798941799 34.074074074074076,99.8941798941799 34.70899470899471,99.8941798941799 35.34391534391535,99.8941798941799 35.97883597883598,100.10582010582011 36.613756613756614,100.31746031746033 37.248677248677254,100.74074074074075 37.883597883597886,101.16402116402116 38.51851851851852,101.5873015873016 38.94179894179894,102.01058201058201 39.15343915343916,102.64550264550266 39.57671957671958,103.28042328042329 39.78835978835979,103.91534391534393 40.0,104.55026455026456 40.211640211640216,105.18518518518519 40.423280423280424,105.82010582010582 40.63492063492064,106.45502645502647 40.84656084656085,107.0899470899471 41.26984126984127,107.72486772486774 41.48148148148149,108.35978835978837 41.6931216931217,108.994708994709 41.904761904761905,109.62962962962963 42.32804232804233,110.26455026455027 42.539682539682545,110.89947089947091 42.96296296296297,111.53439153439155 43.17460317460318,112.16931216931218 43.386243386243386,112.80423280423281 43.80952380952381,113.22751322751324 44.021164021164026,113.86243386243387 44.44444444444445,114.49735449735451 44.867724867724874,115.13227513227514 45.07936507936508,115.76719576719577 45.50264550264551,116.1904761904762 45.92592592592593,116.61375661375662 46.349206349206355,117.03703703703705 46.77248677248678,117.46031746031747 47.40740740740741,117.88359788359789 47.830687830687836,118.30687830687832 48.46560846560847,118.73015873015873 49.1005291005291,119.15343915343917 49.73544973544974,119.36507936507937 50.370370370370374,119.57671957671958 51.00529100529101,119.7883597883598 51.640211640211646,119.7883597883598 52.27513227513228,119.57671957671958 52.91005291005291,119.57671957671958 53.54497354497355,119.36507936507937 54.179894179894184,119.36507936507937 54.81481481481482,119.15343915343917 55.449735449735456,118.94179894179895 55.87301587301588,118.51851851851853 56.50793650793651,118.0952380952381 57.142857142857146,117.67195767195768 57.777777777777786,117.24867724867725 58.41269841269842,116.82539682539684 58.83597883597884,116.4021164021164 59.470899470899475,115.97883597883599 59.8941798941799,115.55555555555557 60.52910052910053,115.13227513227514 60.952380952380956,114.70899470899472 61.58730158730159,114.28571428571429 62.01058201058201,113.86243386243387 62.64550264550265,113.43915343915344 63.06878306878308,113.01587301587303 63.492063492063494,112.5925925925926 63.91534391534392,112.16931216931218 64.33862433862434,111.74603174603176 64.76190476190477,111.32275132275133 65.18518518518519,110.89947089947091 65.60846560846561,110.26455026455027 66.03174603174604,109.84126984126985 66.45502645502646,109.41798941798943 66.87830687830689,108.994708994709 67.3015873015873,108.57142857142858 67.72486772486774,107.93650793650795 68.14814814814815,107.51322751322752 68.57142857142858,106.87830687830689 68.994708994709,106.45502645502647 69.41798941798942,106.03174603174604 69.84126984126985,105.3968253968254 70.26455026455027,104.97354497354497 70.6878306878307,104.33862433862434 71.11111111111111,103.70370370370371 71.53439153439155,103.28042328042329 71.95767195767196,102.64550264550266 72.38095238095238,102.22222222222223 72.80423280423281,101.5873015873016 73.01587301587303,100.95238095238096 73.22751322751323,100.31746031746033 73.65079365079366,99.8941798941799 74.07407407407408,99.25925925925927 74.28571428571429,98.62433862433863 74.70899470899471,97.989417989418 74.92063492063492,97.35449735449737 75.34391534391536,96.71957671957672 75.55555555555556,96.08465608465609 75.97883597883599,95.44973544973546 76.19047619047619,94.81481481481482 76.4021164021164,94.17989417989419 76.82539682539684,93.54497354497356 77.03703703703704,92.91005291005291 77.46031746031747,92.27513227513228 77.67195767195767,91.64021164021165 77.88359788359789,91.00529100529101 78.30687830687832,90.37037037037038 78.51851851851852,89.73544973544975 78.73015873015873,89.1005291005291 78.94179894179895,88.46560846560847 79.36507936507937,88.04232804232805 79.57671957671958,87.40740740740742 79.7883597883598,86.77248677248677 80.0,86.13756613756614 80.42328042328043,85.5026455026455 80.63492063492065,84.86772486772487 80.84656084656085,84.23280423280424 81.05820105820106,83.59788359788361 81.26984126984128,82.96296296296298 81.48148148148148,82.32804232804233 81.48148148148148,81.6931216931217 81.6931216931217,81.05820105820106 81.6931216931217,80.42328042328043 81.90476190476191,79.7883597883598 82.11640211640213,79.15343915343917 82.11640211640213,78.51851851851852 82.11640211640213,77.88359788359789 82.11640211640213,77.24867724867725 82.11640211640213,76.61375661375662 82.11640211640213,75.97883597883599 82.11640211640213,75.34391534391536 81.90476190476191,74.70899470899471 81.6931216931217,74.07407407407408 81.48148148148148,73.43915343915344 81.26984126984128,72.80423280423281 80.84656084656085,72.16931216931218 80.42328042328043,71.74603174603175 80.0,71.11111111111111 79.57671957671958,70.6878306878307 79.15343915343917,70.26455026455027 78.51851851851852,69.84126984126985 78.0952380952381,69.41798941798942 77.46031746031747,68.994708994709 76.82539682539684,68.78306878306879 76.19047619047619,68.35978835978837 75.55555555555556,68.14814814814815 74.92063492063492,67.93650793650794 74.28571428571429,67.72486772486774 73.65079365079366,67.72486772486774 73.01587301587303,67.51322751322752 72.38095238095238,67.51322751322752 71.74603174603175,67.51322751322752 71.11111111111111,67.51322751322752 70.47619047619048,67.51322751322752 69.84126984126985,67.51322751322752 69.20634920634922,67.51322751322752 68.57142857142858,67.51322751322752 67.93650793650794,67.51322751322752 67.3015873015873,67.51322751322752 66.66666666666667,67.51322751322752 66.03174603174604,67.51322751322752 65.3968253968254,67.51322751322752 64.76190476190477,67.51322751322752 64.12698412698413,67.51322751322752 63.492063492063494,67.51322751322752 62.85714285714286,67.51322751322752 62.22222222222223,67.51322751322752 61.58730158730159,67.51322751322752 60.952380952380956,67.51322751322752 60.31746031746032,67.3015873015873 59.682539682539684,67.3015873015873 59.04761904761905,67.08994708994709 58.41269841269842,66.87830687830689 57.777777777777786,66.66666666666667 57.35449735449736,66.24338624338625 56.71957671957672,66.03174603174604 56.2962962962963,65.60846560846561 55.87301587301588,65.18518518518519 55.449735449735456,64.55026455026456 55.23809523809524,63.91534391534392 54.81481481481482,63.280423280423285 54.81481481481482,62.64550264550265 54.81481481481482,62.01058201058201 55.02645502645503,61.37566137566138 55.02645502645503,60.74074074074075 55.449735449735456,60.10582010582011 55.661375661375665,59.470899470899475 55.87301587301588,58.83597883597884 56.2962962962963,58.41269841269842 56.50793650793651,57.777777777777786 56.93121693121694,57.35449735449736 57.35449735449736,56.71957671957672 57.777777777777786,56.08465608465609 58.2010582010582,55.449735449735456 58.62433862433863,54.81481481481482 59.04761904761905,54.179894179894184 59.470899470899475,53.75661375661376 59.8941798941799,53.12169312169313 60.31746031746032,52.48677248677249 60.74074074074075,52.06349206349207 61.16402116402117,51.42857142857143 61.58730158730159,51.00529100529101 62.01058201058201,50.370370370370374 62.43386243386244,49.73544973544974 62.85714285714286,49.31216931216932 63.280423280423285,48.677248677248684 63.70370370370371,48.042328042328045 64.12698412698413,47.40740740740741 64.55026455026456,46.98412698412699 64.97354497354497,46.349206349206355 65.3968253968254,45.714285714285715 65.82010582010582,45.29100529100529 66.24338624338625,44.65608465608466 66.66666666666667,44.232804232804234 67.08994708994709,43.5978835978836 67.51322751322752,42.96296296296297 67.93650793650794,42.539682539682545 68.35978835978837,41.904761904761905 68.78306878306879,41.26984126984127 69.20634920634922,40.63492063492064 69.62962962962963,40.211640211640216 70.05291005291006,39.57671957671958 70.47619047619048,39.15343915343916 70.8994708994709,38.51851851851852 71.32275132275133,37.883597883597886 71.74603174603175,37.46031746031746 72.16931216931218,36.82539682539683 72.5925925925926,36.402116402116405 73.01587301587303,35.76719576719577 73.43915343915344,35.13227513227513 73.86243386243387,34.4973544973545 74.28571428571429,33.86243386243387 74.70899470899471,33.43915343915344 75.13227513227514,32.804232804232804 75.55555555555556,32.16931216931217 76.19047619047619,31.746031746031747 76.4021164021164,31.111111111111114 76.82539682539684,30.476190476190478 77.24867724867725,30.052910052910054 77.67195767195767,29.41798941798942 78.0952380952381,28.783068783068785 78.51851851851852,28.35978835978836 78.94179894179895,27.724867724867728 79.36507936507937,27.301587301587304 79.7883597883598,26.666666666666668 80.21164021164022,26.031746031746035 80.63492063492065,25.60846560846561 81.05820105820106,24.973544973544975 81.48148148148148,24.55026455026455 81.90476190476191,23.915343915343918 82.32804232804233,23.280423280423282 82.75132275132276,22.645502645502646 83.17460317460318,22.222222222222225 83.59788359788361,21.58730158730159 84.02116402116403,21.164021164021165 84.44444444444446,20.529100529100532 84.86772486772487,20.105820105820108 85.29100529100529,19.47089947089947 85.71428571428572,19.047619047619047 86.13756613756614,18.624338624338627 86.56084656084657,17.98941798941799 86.98412698412699,17.354497354497354 87.40740740740742,16.931216931216934 87.83068783068784,16.296296296296298 88.25396825396827,15.873015873015873 88.67724867724868,15.449735449735451 89.1005291005291,14.814814814814817 89.52380952380953,14.391534391534393 89.94708994708995,13.756613756613758 90.37037037037038,13.333333333333334 90.7936507936508,12.6984126984127 91.21693121693123,12.275132275132275 91.64021164021165,11.851851851851853 92.06349206349208,11.428571428571429 92.4867724867725,10.793650793650794 92.91005291005291,10.370370370370372 93.33333333333334,9.947089947089948 93.75661375661376,9.312169312169313 94.17989417989419,8.88888888888889 94.60317460317461,8.253968253968255 95.02645502645504,7.830687830687832 95.44973544973546,7.407407407407408 95.87301587301587,6.772486772486773 96.2962962962963,6.137566137566138 96.71957671957672,5.714285714285714 97.14285714285715,5.291005291005291 99.8941798941799,2.1164021164021167" style="fill:none; stroke:#3300bb; stroke-width:1.0"  /><circle cx="99.8941798941799" cy="2.1164021164021167" r="2.0" style="fill:none; stroke:#000000aa; stroke-width:0.25" /><circle cx="199.7883597883598" cy="62.64550264550265" r="2.0" style="fill:none; stroke:#000000aa; stroke-width:0.25" /><circle cx="132.4867724867725" cy="190.47619047619048" r="2.0" style="fill:none; stroke:#000000aa; stroke-width:0.25" /><circle cx="0.0" cy="147.51322751322752" r="2.0" style="fill:none; stroke:#000000aa; stroke-width:0.25" /><circle cx="99.47089947089948" cy="3.174603174603175" r="2.0" style="fill:none; stroke:#ff3366aa; stroke-width:0.25" /><circle cx="199.5767195767196" cy="62.64550264550265" r="2.0" style="fill:none; stroke:#ff3366aa; stroke-width:0.25" /><circle cx="132.9100529100529" cy="189.84126984126985" r="2.0" style="fill:none; stroke:#ff3366aa; stroke-width:0.25" /><circle cx="0.21164021164021166" cy="147.0899470899471" r="2.0" style="fill:none; stroke:#ff3366aa; stroke-width:0.25" /><polyline points="109.84126984126985,8.253968253968255 109.41798941798943,7.830687830687832 108.78306878306879,7.6190476190476195 108.35978835978837,7.195767195767196 107.72486772486774,6.984126984126985 107.0899470899471,6.560846560846561 106.66666666666667,6.137566137566138 106.03174603174604,5.9259259259259265 105.60846560846562,5.502645502645503 104.97354497354497,5.291005291005291 104.33862433862434,4.867724867724868 103.70370370370371,4.444444444444445 103.06878306878308,4.2328042328042335 102.64550264550266,3.8095238095238098" style="fill:none; stroke:#001100; stroke-width:1.0" /><polyline points="91.64021164021165,11.851851851851853 92.06349206349208,11.428571428571429 92.4867724867725,10.793650793650794 92.91005291005291,10.370370370370372 93.33333333333334,9.947089947089948 93.75661375661376,9.312169312169313 94.17989417989419,8.88888888888889 94.60317460317461,8.253968253968255 95.02645502645504,7.830687830687832 95.44973544973546,7.407407407407408 95.87301587301587,6.772486772486773 96.2962962962963,6.137566137566138 96.71957671957672,5.714285714285714 97.14285714285715,5.291005291005291" style="fill:none; stroke:#000011; stroke-width:1.0" /><polyline points="192.3809523809524,71.74603174603175 192.8042328042328,71.11111111111111 193.22751322751324,70.6878306878307 193.65079365079367,70.05291005291006 194.07407407407408,69.62962962962963 194.4973544973545,68.994708994709 194.92063492063494,68.57142857142858 195.34391534391537,67.93650793650794 195.76719576719577,67.51322751322752 196.1904761904762,67.08994708994709 196.61375661375664,66.45502645502646 197.24867724867727,66.03174603174604 197.46031746031747,65.3968253968254" style="fill:none; stroke:#001100; stroke-width:1.0" /><polyline points="190.26455026455028,55.87301587301588 190.6878306878307,56.2962962962963 191.32275132275134,56.71957671957672 191.95767195767198,56.93121693121694 192.3809523809524,57.35449735449736 193.01587301587304,57.777777777777786 193.65079365079367,58.2010582010582 194.07407407407408,58.62433862433863 194.70899470899474,58.83597883597884 195.13227513227514,59.25925925925927 195.76719576719577,59.682539682539684 196.4021164021164,60.10582010582011 196.82539682539684,60.52910052910053" style="fill:none; stroke:#000011; stroke-width:1.0" /><polyline points="121.4814814814815,186.24338624338625 122.11640211640213,186.24338624338625 122.75132275132276,186.45502645502646 123.3862433862434,186.8783068783069 124.02116402116403,187.08994708994712 124.65608465608466,187.30158730158732 125.2910052910053,187.51322751322752 125.92592592592594,187.93650793650795 126.56084656084657,188.14814814814815 127.1957671957672,188.35978835978838 127.83068783068784,188.57142857142858 128.46560846560848,188.78306878306879 129.10052910052912,189.20634920634922 129.73544973544975,189.41798941798945" style="fill:none; stroke:#001100; stroke-width:1.0" /><polyline points="139.25925925925927,179.8941798941799 138.83597883597884,180.52910052910053 138.41269841269843,180.95238095238096 137.989417989418,181.5873015873016 137.56613756613757,182.01058201058203 137.14285714285717,182.64550264550266 136.71957671957674,183.2804232804233 136.5079365079365,183.91534391534393 136.0846560846561,184.33862433862436 135.87301587301587,184.973544973545 135.44973544973547,185.60846560846562 135.02645502645504,186.24338624338625 134.81481481481484,186.8783068783069" style="fill:none; stroke:#000011; stroke-width:1.0" /><polyline points="5.291005291005291,136.2962962962963 5.291005291005291,136.93121693121694 4.867724867724868,137.56613756613757 4.656084656084657,138.2010582010582 4.2328042328042335,138.83597883597884 4.021164021164021,139.47089947089947 3.597883597883598,140.10582010582013 3.174603174603175,140.74074074074076 2.9629629629629632,141.3756613756614 2.7513227513227516,142.01058201058203 2.3280423280423284,142.64550264550266 1.9047619047619049,143.2804232804233 1.6931216931216932,143.91534391534393" style="fill:none; stroke:#001100; stroke-width:1.0" /><polyline points="10.582010582010582,151.95767195767198 9.947089947089948,151.74603174603175 9.312169312169313,151.53439153439155 8.677248677248677,151.11111111111111 8.042328042328043,150.8994708994709 7.407407407407408,150.6878306878307 6.772486772486773,150.26455026455028 6.137566137566138,150.05291005291005 5.502645502645503,149.84126984126985 4.867724867724868,149.41798941798942 4.2328042328042335,149.20634920634922 3.597883597883598,148.99470899470901 2.9629629629629632,148.78306878306879" style="fill:none; stroke:#000011; stroke-width:1.0" /><polyline points="102.64550264550266,3.8095238095238098 84.65608465608466,-7.407407407407408" style="fill:none; stroke:#ffaa00; stroke-width:0.4" /><polyline points="97.14285714285715,5.291005291005291 110.6878306878307,-11.005291005291006" style="fill:none; stroke:#aaff00; stroke-width:0.4" /><polyline points="197.46031746031747,65.3968253968254 210.5820105820106,48.88888888888889" style="fill:none; stroke:#ffaa00; stroke-width:0.4" /><polyline points="196.82539682539684,60.52910052910053 214.1798941798942,72.80423280423281" style="fill:none; stroke:#aaff00; stroke-width:0.4" /><polyline points="129.73544973544975,189.41798941798945 149.41798941798942,197.03703703703704" style="fill:none; stroke:#ffaa00; stroke-width:0.4" /><polyline points="134.81481481481484,186.8783068783069 123.3862433862434,204.65608465608466" style="fill:none; stroke:#aaff00; stroke-width:0.4" /><polyline points="1.6931216931216932,143.91534391534393 -7.407407407407408,162.96296296296296" style="fill:none; stroke:#ffaa00; stroke-width:0.4" /><polyline points="2.9629629629629632,148.78306878306879 -16.50793650793651,140.74074074074076" style="fill:none; stroke:#aaff00; stroke-width:0.4" /><circle cx="106.66666666666667" cy="102.64550264550266" r="1.0" style="fill:#444444; stroke-width:0" /><circle cx="119.36507936507937" cy="61.16402116402117" r="10.582010582010582" style="fill:#ff770022; stroke-width:0" /><circle cx="119.36507936507937" cy="61.16402116402117" r="1.0" style="fill:#ff7700; stroke-width:0" /></svg>