<?xml version="1.0" encoding="UTF-8" standalone="no"?><svg width="615.2380952380953" height="566.984126984127" viewBox="-10 -10 225.0793650793651 208.99470899470901" xmlns="http://www.w3.org/2000/svg" xmlns:xlink="http://www.w3.org/1999/xlink"><polyline points="104.97354497354497,-0.634920634920635 107.72486772486774,2.3280423280423284 108.14814814814815,2.7513227513227516 108.57142857142858,3.174603174603175 108.994708994709,3.597883597883598 109.41798941798943,4.021164021164021 109.84126984126985,4.444444444444445 110.26455026455027,4.867724867724868 110.6878306878307,5.291005291005291 111.11111111111111,5.9259259259259265 111.53439153439155,6.34920634920635 111.95767195767196,6.772486772486773 112.3809523809524,7.195767195767196 112.80423280423281,7.6190476190476195 113.22751322751324,8.042328042328043 113.65079365079366,8.465608465608467 114.07407407407408,8.88888888888889 114.49735449735451,9.312169312169313 114.92063492063492,9.735449735449736 115.34391534391536,10.15873015873016 115.76719576719577,10.582010582010582 116.1904761904762,11.005291005291006 116.61375661375662,11.428571428571429 117.03703703703705,11.851851851851853 117.46031746031747,12.275132275132275 117.88359788359789,12.910052910052912 118.30687830687832,13.333333333333334 118.73015873015873,13.756613756613758 119.15343915343917,14.17989417989418 119.57671957671958,14.603174603174605 120.00000000000001,15.238095238095239 120.42328042328043,15.661375661375663 120.84656084656086,16.084656084656086 121.26984126984128,16.71957671957672 121.6931216931217,17.142857142857146 122.11640211640213,17.566137566137566 122.53968253968254,17.98941798941799 122.96296296296298,18.624338624338627 123.3862433862434,19.047619047619047 123.80952380952382,19.682539682539684 124.23280423280424,20.105820105820108 124.65608465608466,20.529100529100532 125.07936507936509,20.952380952380953 125.5026455026455,21.58730158730159 125.92592592592594,22.010582010582013 126.34920634920636,22.433862433862437 126.77248677248679,23.06878306878307 127.1957671957672,23.492063492063494 127.61904761904763,23.915343915343918 128.04232804232805,24.55026455026455 128.46560846560848,24.973544973544975 128.88888888888889,25.3968253968254 129.31216931216932,25.820105820105823 129.73544973544975,26.243386243386244 130.15873015873018,26.87830687830688 130.58201058201058,27.513227513227516 131.005291005291,27.93650793650794 131.42857142857144,28.35978835978836 131.85185185185185,28.783068783068785 132.27513227513228,29.41798941798942 132.6984126984127,29.841269841269842 133.12169312169314,30.476190476190478 133.54497354497354,31.111111111111114 133.96825396825398,31.746031746031747 134.3915343915344,32.38095238095239 134.81481481481484,32.804232804232804 135.23809523809524,33.43915343915344 135.44973544973547,34.074074074074076 135.87301587301587,34.4973544973545 136.2962962962963,35.13227513227513 136.71957671957674,35.76719576719577 137.14285714285717,36.402116402116405 137.56613756613757,37.03703703703704 137.989417989418,37.46031746031746 138.2010582010582,38.095238095238095 138.62433862433863,38.51851851851852 139.04761904761907,38.94179894179894 139.47089947089947,39.57671957671958 139.8941798941799,40.211640211640216 140.31746031746033,40.63492063492064 140.74074074074076,41.058201058201064 141.16402116402116,41.6931216931217 141.5873015873016,42.11640211640212 142.01058201058203,42.539682539682545 142.43386243386246,42.96296296296297 143.0687830687831,43.386243386243386 143.4920634920635,43.80952380952381 144.12698412698413,44.232804232804234 144.76190476190476,44.44444444444445 145.39682539682542,44.65608465608466 146.03174603174605,44.867724867724874 146.66666666666669,44.867724867724874 147.30158730158732,44.867724867724874 147.93650793650795,44.867724867724874 148.57142857142858,44.867724867724874 149.20634920634922,44.65608465608466 149.84126984126985,44.65608465608466 150.47619047619048,44.232804232804234 151.11111111111111,43.80952380952381 151.74603174603175,43.386243386243386 152.16931216931218,42.75132275132275 152.5925925925926,42.32804232804233 152.8042328042328,41.6931216931217 153.22751322751324,41.058201058201064 153.43915343915344,40.423280423280424 153.65079365079367,39.78835978835979 153.86243386243387,39.15343915343916 153.86243386243387,38.51851851851852 154.07407407407408,37.883597883597886 154.2857142857143,37.248677248677254 154.2857142857143,36.613756613756614 154.7089947089947,35.97883597883598 154.7089947089947,35.34391534391535 154.92063492063494,34.70899470899471 155.13227513227514,34.074074074074076 155.13227513227514,33.43915343915344 155.34391534391534,32.804232804232804 155.55555555555557,32.16931216931217 155.76719576719577,31.53439153439154 155.978835978836,30.899470899470902 156.1904761904762,30.264550264550266 156.4021164021164,29.629629629629633 156.61375661375664,28.994708994708997 156.82539682539684,28.35978835978836 157.24867724867727,27.724867724867728 157.46031746031747,27.089947089947092 157.8835978835979,26.666666666666668 158.30687830687833,26.031746031746035 158.73015873015873,25.3968253968254 159.15343915343917,24.973544973544975 159.36507936507937,24.338624338624342 160.0,23.915343915343918 160.42328042328043,23.280423280423282 161.05820105820106,22.857142857142858 161.6931216931217,22.433862433862437 162.11640211640213,22.010582010582013 162.75132275132276,21.7989417989418 163.3862433862434,21.58730158730159 164.02116402116403,21.375661375661377 164.65608465608466,21.164021164021165 165.2910052910053,20.952380952380953 165.92592592592595,20.952380952380953 166.56084656084658,20.740740740740744 167.19576719576722,20.740740740740744 167.83068783068785,20.740740740740744 168.46560846560848,20.952380952380953 169.10052910052912,21.164021164021165 169.73544973544975,21.164021164021165 170.37037037037038,21.375661375661377 171.005291005291,21.58730158730159 171.64021164021165,21.7989417989418 172.27513227513228,22.010582010582013 172.9100529100529,22.222222222222225 173.54497354497354,22.645502645502646 174.1798941798942,23.06878306878307 174.81481481481484,23.280423280423282 175.44973544973547,23.703703703703706 176.0846560846561,24.12698412698413 176.71957671957674,24.55026455026455 177.35449735449737,24.761904761904763 177.989417989418,25.185185185185187 178.62433862433863,25.60846560846561 179.25925925925927,26.031746031746035 179.6825396825397,26.455026455026456 180.31746031746033,26.87830687830688 180.74074074074076,27.301587301587304 181.16402116402116,27.724867724867728 181.5873015873016,28.14814814814815 182.01058201058203,28.571428571428573 182.43386243386246,28.994708994708997 182.85714285714286,29.41798941798942 183.2804232804233,29.841269841269842 183.70370370370372,30.264550264550266 184.12698412698415,30.899470899470902 184.55026455026456,31.322751322751326 184.973544973545,31.95767195767196 185.39682539682542,32.38095238095239 185.82010582010582,33.01587301587302 186.24338624338625,33.65079365079365 186.45502645502646,34.28571428571429 186.8783068783069,34.70899470899471 187.08994708994712,35.34391534391535 187.51322751322752,35.97883597883598 187.72486772486775,36.613756613756614 187.93650793650795,37.248677248677254 188.14814814814815,37.883597883597886 188.35978835978838,38.51851851851852 188.57142857142858,39.15343915343916 188.57142857142858,39.78835978835979 188.78306878306879,40.423280423280424 188.99470899470901,41.058201058201064 188.99470899470901,41.6931216931217 188.99470899470901,42.32804232804233 188.99470899470901,42.96296296296297 188.99470899470901,43.5978835978836 188.99470899470901,44.232804232804234 188.78306878306879,44.867724867724874 188.78306878306879,45.50264550264551 188.57142857142858,46.13756613756614 188.35978835978838,46.77248677248678 187.93650793650795,47.195767195767196 187.72486772486775,47.830687830687836 187.30158730158732,48.25396825396826 186.8783068783069,48.677248677248684 186.45502645502646,49.1005291005291 185.82010582010582,49.523809523809526 185.1851851851852,49.73544973544974 184.55026455026456,50.158730158730165 183.91534391534393,50.58201058201058 183.2804232804233,50.7936507936508 182.64550264550266,51.21693121693122 182.01058201058203,51.42857142857143 181.3756613756614,51.851851851851855 180.74074074074076,52.06349206349207 180.10582010582013,52.48677248677249 179.4708994708995,52.91005291005291 178.83597883597884,53.12169312169313 178.2010582010582,53.54497354497355 177.56613756613757,53.968253968253975 176.93121693121694,54.39153439153439 176.2962962962963,54.60317460317461 175.87301587301587,55.02645502645503 175.23809523809524,55.449735449735456 174.81481481481484,55.87301587301588 174.3915343915344,56.2962962962963 173.75661375661377,56.71957671957672 173.33333333333334,57.35449735449736 172.9100529100529,57.777777777777786 172.6984126984127,58.41269841269842 172.27513227513228,59.04761904761905 172.06349206349208,59.682539682539684 172.06349206349208,60.31746031746032 171.85185185185188,60.952380952380956 171.64021164021165,61.58730158730159 171.64021164021165,62.22222222222223 171.85185185185188,62.85714285714286 172.06349206349208,63.492063492063494 172.06349206349208,64.12698412698413 172.4867724867725,64.55026455026456 172.6984126984127,65.18518518518519 173.12169312169314,65.60846560846561 173.54497354497354,66.24338624338625 174.1798941798942,66.66666666666667 174.6031746031746,67.08994708994709 175.23809523809524,67.51322751322752 175.87301587301587,67.93650793650794 176.50793650793653,68.35978835978837 177.14285714285717,68.57142857142858 177.7777777777778,68.994708994709 178.41269841269843,69.20634920634922 178.83597883597884,69.62962962962963 179.4708994708995,69.84126984126985 180.10582010582013,70.26455026455027 180.74074074074076,70.47619047619048 181.3756613756614,70.8994708994709 182.01058201058203,71.11111111111111 182.64550264550266,71.53439153439155 183.2804232804233,71.74603174603175 183.91534391534393,71.95767195767196 184.55026455026456,72.16931216931218 185.1851851851852,72.38095238095238 185.82010582010582,72.80423280423281 186.45502645502646,73.01587301587303 187.08994708994712,73.22751322751323 187.72486772486775,73.43915343915344 188.35978835978838,73.86243386243387 188.99470899470901,74.07407407407408 189.62962962962965,74.28571428571429 190.26455026455028,74.49735449735451 190.8994708994709,74.70899470899471 191.53439153439155,75.13227513227514 192.16931216931218,75.34391534391536 192.8042328042328,75.55555555555556 193.43915343915344,75.76719576719577 194.07407407407408,76.19047619047619 194.70899470899474,76.4021164021164 195.34391534391537,76.82539682539684 195.978835978836,77.24867724867725 196.61375661375664,77.67195767195767 197.24867724867727,78.0952380952381 197.8835978835979,78.51851851851852 198.51851851851853,78.94179894179895 198.94179894179896,79.36507936507937 199.36507936507937,79.7883597883598 200.00000000000003,80.21164021164022 200.42328042328043,80.63492063492065 201.05820105820106,81.05820105820106 201.4814814814815,81.48148148148148 202.11640211640213,81.90476190476191 202.53968253968256,82.32804232804233 202.962962962963,82.75132275132276 205.29100529100532,84.65608465608466" style="fill:none; stroke:#cc0000; stroke-width:1.0"  /><polyline points="205.29100529100532,84.65608465608466 202.32804232804233,87.61904761904762 201.90476190476193,88.04232804232805 201.4814814814815,88.46560846560847 201.05820105820106,89.1005291005291 200.63492063492066,89.52380952380953 200.21164021164023,89.94708994708995 199.7883597883598,90.37037037037038 199.36507936507937,90.7936507936508 198.94179894179896,91.21693121693123 198.30687830687833,91.64021164021165 197.8835978835979,92.06349206349208 197.46031746031747,92.4867724867725 197.03703703703704,92.91005291005291 196.61375661375664,93.33333333333334 196.1904761904762,93.75661375661376 195.55555555555557,94.81481481481482 195.13227513227514,95.23809523809524 194.70899470899474,95.66137566137567 194.2857142857143,96.08465608465609 193.86243386243387,96.50793650793652 193.43915343915344,96.93121693121694 193.01587301587304,97.56613756613757 192.5925925925926,97.989417989418 192.16931216931218,98.41269841269842 191.74603174603175,98.83597883597885 191.32275132275134,99.25925925925927 190.8994708994709,99.8941798941799 190.47619047619048,100.31746031746033 190.05291005291008,100.74074074074075 189.62962962962965,101.37566137566138 189.20634920634922,101.79894179894181 188.78306878306879,102.22222222222223 188.35978835978838,102.64550264550266 187.93650793650795,103.28042328042329 187.51322751322752,103.70370370370371 187.08994708994712,104.12698412698414 186.66666666666669,104.55026455026456 186.24338624338625,105.18518518518519 185.82010582010582,105.60846560846562 185.39682539682542,106.24338624338625 184.973544973545,106.66666666666667 184.55026455026456,107.0899470899471 184.12698412698415,107.72486772486774 183.70370370370372,108.14814814814815 183.2804232804233,108.57142857142858 182.85714285714286,108.994708994709 182.43386243386246,109.41798941798943 182.01058201058203,110.05291005291006 181.5873015873016,110.47619047619048 181.16402116402116,111.11111111111111 180.74074074074076,111.53439153439155 180.31746031746033,112.16931216931218 179.8941798941799,112.5925925925926 179.4708994708995,113.22751322751324 179.04761904761907,113.65079365079366 178.62433862433863,114.07407407407408 178.2010582010582,114.70899470899472 177.7777777777778,115.34391534391536 177.35449735449737,115.76719576719577 176.93121693121694,116.1904761904762 176.50793650793653,116.82539682539684 176.0846560846561,117.24867724867725 175.66137566137567,117.88359788359789 175.23809523809524,118.30687830687832 174.81481481481484,118.94179894179895 174.3915343915344,119.36507936507937 173.96825396825398,120.00000000000001 173.54497354497354,120.63492063492065 173.12169312169314,121.26984126984128 172.6984126984127,121.6931216931217 172.27513227513228,122.32804232804234 171.85185185185188,122.96296296296298 171.42857142857144,123.59788359788361 171.005291005291,124.02116402116403 170.58201058201058,124.65608465608466 170.15873015873018,125.07936507936509 169.73544973544975,125.5026455026455 169.31216931216932,126.13756613756615 168.8888888888889,126.77248677248679 168.46560846560848,127.1957671957672 168.04232804232805,127.83068783068784 167.61904761904762,128.25396825396825 167.19576719576722,128.67724867724868 166.7724867724868,129.31216931216932 166.56084656084658,129.94708994708995 166.13756613756615,130.37037037037038 165.50264550264552,130.7936507936508 164.8677248677249,131.21693121693121 164.23280423280426,131.64021164021165 163.59788359788362,131.85185185185185 162.96296296296296,132.27513227513228 162.32804232804233,132.4867724867725 161.6931216931217,132.4867724867725 161.05820105820106,132.4867724867725 160.42328042328043,132.4867724867725 159.7883597883598,132.4867724867725 159.15343915343917,132.4867724867725 158.51851851851853,132.27513227513228 157.8835978835979,131.85185185185185 157.24867724867727,131.42857142857144 156.82539682539684,131.005291005291 156.4021164021164,130.58201058201058 155.978835978836,129.94708994708995 155.55555555555557,129.52380952380955 155.34391534391534,128.88888888888889 154.92063492063494,128.25396825396825 154.7089947089947,127.61904761904763 154.7089947089947,126.98412698412699 154.7089947089947,126.34920634920636 154.4973544973545,125.71428571428572 154.4973544973545,125.07936507936509 154.2857142857143,124.44444444444446 154.2857142857143,123.80952380952382 154.2857142857143,123.17460317460318 154.2857142857143,122.53968253968254 154.2857142857143,121.90476190476191 154.07407407407408,121.26984126984128 154.07407407407408,120.63492063492065 153.86243386243387,120.00000000000001 153.86243386243387,119.36507936507937 153.65079365079367,118.73015873015873 153.86243386243387,118.0952380952381 153.65079365079367,117.46031746031747 153.43915343915344,116.82539682539684 153.22751322751324,116.1904761904762 153.01587301587304,115.55555555555557 152.8042328042328,114.92063492063492 152.5925925925926,114.28571428571429 152.16931216931218,113.65079365079366 151.95767195767198,113.01587301587303 151.74603174603175,112.3809523809524 151.32275132275134,111.74603174603176 150.8994708994709,111.11111111111111 150.47619047619048,110.47619047619048 150.05291005291005,109.84126984126985 149.62962962962965,109.41798941798943 149.20634920634922,108.994708994709 148.78306878306879,108.57142857142858 148.35978835978838,108.14814814814815 147.93650793650795,107.72486772486774 147.30158730158732,107.51322751322752 146.66666666666669,107.0899470899471 146.03174603174605,106.87830687830689 145.39682539682542,106.87830687830689 144.76190476190476,106.66666666666667 144.12698412698413,106.66666666666667 143.4920634920635,106.66666666666667 142.85714285714286,106.66666666666667 142.22222222222223,106.66666666666667 141.5873015873016,106.87830687830689 140.95238095238096,106.87830687830689 140.31746031746033,107.0899470899471 139.6825396825397,107.3015873015873 139.04761904761907,107.51322751322752 138.41269841269843,107.51322751322752 137.7777777777778,107.72486772486774 137.14285714285717,107.93650793650795 136.5079365079365,108.35978835978837 135.87301587301587,108.57142857142858 135.23809523809524,108.78306878306879 134.6031746031746,109.20634920634922 133.96825396825398,109.41798941798943 133.33333333333334,109.84126984126985 132.6984126984127,110.26455026455027 132.06349206349208,110.47619047619048 131.64021164021165,110.89947089947091 131.21693121693121,111.32275132275133 130.58201058201058,111.74603174603176 129.94708994708995,111.95767195767196 129.52380952380955,112.3809523809524 128.88888888888889,112.80423280423281 128.25396825396825,113.22751322751324 127.83068783068784,113.65079365079366 127.1957671957672,114.07407407407408 126.56084656084657,114.49735449735451 126.13756613756615,114.92063492063492 125.5026455026455,115.34391534391536 125.07936507936509,115.76719576719577 124.44444444444446,116.1904761904762 124.02116402116403,116.61375661375662 123.59788359788361,117.03703703703705 123.17460317460318,117.46031746031747 122.53968253968254,117.88359788359789 122.11640211640213,118.30687830687832 121.6931216931217,118.73015873015873 121.26984126984128,119.15343915343917 120.63492063492065,119.57671957671958 120.21164021164022,120.00000000000001 119.7883597883598,120.42328042328043 119.36507936507937,120.84656084656086 118.94179894179895,121.26984126984128 118.51851851851853,121.6931216931217 118.0952380952381,122.11640211640213 117.67195767195768,122.53968253968254 117.24867724867725,122.96296296296298 116.82539682539684,123.3862433862434 116.4021164021164,124.02116402116403 115.97883597883599,124.65608465608466 115.55555555555557,125.07936507936509 115.13227513227514,125.71428571428572 114.70899470899472,126.34920634920636 114.49735449735451,126.98412698412699 114.07407407407408,127.61904761904763 113.86243386243387,128.25396825396825 113.86243386243387,128.88888888888889 113.86243386243387,129.52380952380955 114.07407407407408,130.15873015873018 114.07407407407408,130.7936507936508 114.28571428571429,131.42857142857144 114.28571428571429,132.06349206349208 114.70899470899472,132.6984126984127 114.92063492063492,133.33333333333334 115.13227513227514,133.96825396825398 115.55555555555557,134.3915343915344 115.97883597883599,135.02645502645504 116.1904761904762,135.66137566137567 116.61375661375662,136.0846560846561 117.03703703703705,136.5079365079365 117.46031746031747,137.14285714285717 117.88359788359789,137.56613756613757 118.30687830687832,137.989417989418 118.73015873015873,138.41269841269843 119.15343915343917,139.04761904761907 119.7883597883598,139.47089947089947 120.21164021164022,139.8941798941799 120.84656084656086,140.10582010582013 121.4814814814815,140.52910052910053 122.11640211640213,140.95238095238096 122.75132275132276,141.16402116402116 123.17460317460318,141.5873015873016 123.80952380952382,141.7989417989418 124.44444444444446,142.22222222222223 125.07936507936509,142.43386243386246 125.71428571428572,142.85714285714286 126.34920634920636,143.0687830687831 126.98412698412699,143.4920634920635 127.61904761904763,143.91534391534393 128.25396825396825,144.33862433862436 128.88888888888889,144.76190476190476 129.52380952380955,145.1851851851852 129.94708994708995,145.60846560846562 130.37037037037038,146.03174603174605 130.7936507936508,146.45502645502646 131.21693121693121,146.8783068783069 131.64021164021165,147.51322751322752 132.06349206349208,147.93650793650795 132.27513227513228,148.57142857142858 132.6984126984127,149.20634920634922 132.6984126984127,149.84126984126985 132.9100529100529,150.47619047619048 132.9100529100529,151.11111111111111 132.9100529100529,151.74603174603175 132.9100529100529,152.38095238095238 132.6984126984127,153.01587301587304 132.4867724867725,153.65079365079367 132.06349206349208,154.07407407407408 131.85185185185185,154.7089947089947 131.42857142857144,155.34391534391534 131.005291005291,155.76719576719577 130.58201058201058,156.1904761904762 130.15873015873018,156.61375661375664 129.73544973544975,157.03703703703704 129.10052910052912,157.46031746031747 128.67724867724868,157.8835978835979 128.04232804232805,158.30687830687833 127.61904761904763,158.73015873015873 126.98412698412699,159.15343915343917 126.34920634920636,159.5767195767196 125.92592592592594,160.0 125.2910052910053,160.42328042328043 124.65608465608466,160.84656084656086 124.02116402116403,161.2698412698413 123.59788359788361,161.6931216931217 122.96296296296298,162.11640211640213 122.32804232804234,162.53968253968256 121.90476190476191,162.96296296296296 121.26984126984128,163.3862433862434 120.63492063492065,163.80952380952382 120.21164021164022,164.23280423280426 119.57671957671958,164.65608465608466 119.15343915343917,165.0793650793651 118.73015873015873,165.50264550264552 118.0952380952381,165.92592592592595 117.46031746031747,166.34920634920636 117.03703703703705,166.7724867724868 116.4021164021164,167.19576719576722 115.76719576719577,167.61904761904762 115.34391534391536,168.04232804232805 114.70899470899472,168.46560846560848 114.28571428571429,168.8888888888889 113.65079365079366,169.31216931216932 113.01587301587303,169.73544973544975 112.5925925925926,170.15873015873018 111.95767195767196,170.58201058201058 111.32275132275133,171.005291005291 110.89947089947091,171.42857142857144 110.26455026455027,171.85185185185188 109.84126984126985,172.27513227513228 109.20634920634922,172.6984126984127 108.57142857142858,173.12169312169314 108.14814814814815,173.54497354497354 107.51322751322752,173.96825396825398 107.0899470899471,174.3915343915344 106.45502645502647,174.81481481481484 105.82010582010582,175.23809523809524 105.3968253968254,175.66137566137567 104.97354497354497,176.0846560846561 104.33862433862434,176.50793650793653 103.91534391534393,176.93121693121694 103.28042328042329,177.35449735449737 102.85714285714286,177.7777777777778 102.22222222222223,178.2010582010582 101.79894179894181,178.62433862433863 101.16402116402116,179.04761904761907 100.74074074074075,179.4708994708995 100.10582010582011,179.8941798941799 99.68253968253968,180.31746031746033 99.25925925925927,180.74074074074076 98.62433862433863,181.16402116402116 98.2010582010582,181.5873015873016 97.77777777777779,182.01058201058203 97.14285714285715,182.43386243386246 96.71957671957672,182.85714285714286 96.2962962962963,183.4920634920635 95.66137566137567,183.91534391534393 95.23809523809524,184.33862433862436 94.81481481481482,184.7619047619048 94.39153439153439,185.1851851851852 93.96825396825398,185.60846560846562 93.33333333333334,186.03174603174605 91.00529100529101,188.14814814814815" style="fill:none; stroke:#999900; stroke-width:1.0"  /><polyline points="91.00529100529101,188.14814814814815 88.04232804232805,186.45502645502646 87.40740740740742,186.24338624338625 86.77248677248677,185.82010582010582 86.13756613756614,185.39682539682542 85.5026455026455,184.973544973545 84.86772486772487,184.55026455026456 84.23280423280424,184.12698412698415 83.59788359788361,183.70370370370372 82.96296296296298,183.2804232804233 82.32804232804233,182.85714285714286 81.6931216931217,182.43386243386246 81.05820105820106,182.01058201058203 80.42328042328043,181.79894179894183 79.7883597883598,181.3756613756614 79.15343915343917,180.95238095238096 78.51851851851852,180.52910052910053 77.88359788359789,180.10582010582013 77.24867724867725,179.6825396825397 76.61375661375662,179.25925925925927 75.97883597883599,179.04761904761907 75.34391534391536,178.62433862433863 74.70899470899471,178.2010582010582 74.07407407407408,177.7777777777778 73.43915343915344,177.56613756613757 72.80423280423281,177.14285714285717 72.16931216931218,176.71957671957674 71.53439153439155,176.50793650793653 70.8994708994709,176.0846560846561 70.47619047619048,175.66137566137567 69.84126984126985,175.44973544973547 69.20634920634922,175.02645502645504 68.57142857142858,174.81481481481484 67.93650793650794,174.3915343915344 67.3015873015873,173.96825396825398 66.66666666666667,173.75661375661377 66.24338624338625,173.33333333333334 65.60846560846561,173.12169312169314 65.18518518518519,172.6984126984127 64.55026455026456,172.4867724867725 63.91534391534392,172.06349206349208 63.280423280423285,171.64021164021165 62.64550264550265,171.42857142857144 62.01058201058201,171.005291005291 61.37566137566138,170.7936507936508 60.74074074074075,170.58201058201058 60.31746031746032,170.15873015873018 59.682539682539684,169.94708994708995 59.04761904761905,169.52380952380955 58.41269841269842,169.31216931216932 57.777777777777786,168.8888888888889 57.142857142857146,168.46560846560848 56.50793650793651,168.25396825396825 55.87301587301588,168.04232804232805 55.23809523809524,167.83068783068785 54.60317460317461,167.61904761904762 53.968253968253975,167.61904761904762 53.333333333333336,167.61904761904762 52.6984126984127,167.61904761904762 52.06349206349207,167.83068783068785 51.42857142857143,168.04232804232805 50.7936507936508,168.25396825396825 50.158730158730165,168.67724867724868 49.523809523809526,169.10052910052912 49.1005291005291,169.52380952380955 48.46560846560847,169.94708994708995 48.042328042328045,170.37037037037038 47.61904761904762,171.005291005291 47.195767195767196,171.64021164021165 46.77248677248678,172.27513227513228 46.560846560846564,172.9100529100529 46.349206349206355,173.54497354497354 46.13756613756614,174.1798941798942 45.92592592592593,174.81481481481484 45.92592592592593,175.44973544973547 45.714285714285715,176.0846560846561 45.714285714285715,176.71957671957674 45.714285714285715,177.35449735449737 45.714285714285715,177.989417989418 45.714285714285715,178.62433862433863 45.50264550264551,179.25925925925927 45.50264550264551,179.8941798941799 45.50264550264551,180.52910052910053 45.50264550264551,181.16402116402116 45.29100529100529,181.79894179894183 45.29100529100529,182.43386243386246 45.07936507936508,183.0687830687831 44.65608465608466,183.70370370370372 44.232804232804234,184.33862433862436 43.80952380952381,184.973544973545 43.386243386243386,185.39682539682542 42.96296296296297,185.82010582010582 42.539682539682545,186.24338624338625 42.11640211640212,186.66666666666669 41.48148148148149,187.08994708994712 40.84656084656085,187.51322751322752 40.211640211640216,187.72486772486775 39.57671957671958,188.14814814814815 38.94179894179894,188.14814814814815 38.30687830687831,188.35978835978838 37.67195767195768,188.57142857142858 37.03703703703704,188.57142857142858 36.402116402116405,188.57142857142858 35.76719576719577,188.57142857142858 35.13227513227513,188.57142857142858 34.4973544973545,188.35978835978838 33.86243386243387,188.35978835978838 33.22751322751323,188.35978835978838 32.592592592592595,188.35978835978838 31.95767195767196,188.14814814814815 31.322751322751326,188.14814814814815 30.68783068783069,187.93650793650795 30.052910052910054,187.72486772486775 29.41798941798942,187.51322751322752 28.783068783068785,187.30158730158732 28.14814814814815,186.8783068783069 27.513227513227516,186.66666666666669 26.87830687830688,186.66666666666669 26.455026455026456,186.24338624338625 25.820105820105823,186.03174603174605 25.3968253968254,185.60846560846562 24.761904761904763,185.1851851851852 24.338624338624342,184.7619047619048 23.703703703703706,184.33862433862436 23.280423280423282,183.91534391534393 22.857142857142858,183.4920634920635 22.222222222222225,183.0687830687831 21.7989417989418,182.64550264550266 21.375661375661377,182.22222222222223 20.952380952380953,181.5873015873016 20.529100529100532,181.16402116402116 20.105820105820108,180.52910052910053 19.682539682539684,179.8941798941799 19.47089947089947,179.25925925925927 19.25925925925926,178.62433862433863 19.047619047619047,177.989417989418 19.047619047619047,177.35449735449737 18.83597883597884,176.71957671957674 18.83597883597884,176.0846560846561 18.624338624338627,175.44973544973547 18.624338624338627,174.81481481481484 18.624338624338627,174.1798941798942 18.624338624338627,173.54497354497354 18.83597883597884,172.9100529100529 18.83597883597884,172.27513227513228 19.047619047619047,171.64021164021165 19.25925925925926,171.005291005291 19.682539682539684,170.58201058201058 19.894179894179896,169.94708994708995 20.31746031746032,169.52380952380955 20.740740740740744,168.8888888888889 21.164021164021165,168.46560846560848 21.58730158730159,168.04232804232805 22.010582010582013,167.61904761904762 22.433862433862437,167.19576719576722 23.06878306878307,166.7724867724868 23.703703703703706,166.34920634920636 24.338624338624342,166.13756613756615 24.973544973544975,165.71428571428572 25.60846560846561,165.50264550264552 26.031746031746035,165.0793650793651 26.666666666666668,164.65608465608466 27.301587301587304,164.23280423280426 27.93650793650794,164.02116402116403 28.571428571428573,163.59788359788362 29.20634920634921,163.3862433862434 29.629629629629633,162.96296296296296 30.264550264550266,162.75132275132276 30.899470899470902,162.53968253968256 31.53439153439154,162.32804232804233 31.95767195767196,161.90476190476193 32.592592592592595,161.6931216931217 33.01587301587302,161.2698412698413 33.65079365079365,160.84656084656086 34.074074074074076,160.42328042328043 34.4973544973545,160.0 34.920634920634924,159.5767195767196 35.34391534391535,159.15343915343917 35.76719576719577,158.51851851851853 35.97883597883598,157.8835978835979 36.19047619047619,157.24867724867727 36.402116402116405,156.61375661375664 36.613756613756614,155.978835978836 36.613756613756614,155.34391534391534 36.613756613756614,154.7089947089947 36.402116402116405,154.07407407407408 36.402116402116405,153.43915343915344 36.19047619047619,152.8042328042328 35.97883597883598,152.16931216931218 35.55555555555556,151.53439153439155 35.13227513227513,150.8994708994709 34.70899470899471,150.47619047619048 34.28571428571429,149.84126984126985 33.86243386243387,149.41798941798942 33.22751322751323,148.99470899470901 32.804232804232804,148.57142857142858 32.16931216931217,148.14814814814815 31.53439153439154,147.93650793650795 31.111111111111114,147.51322751322752 30.476190476190478,147.30158730158732 30.052910052910054,146.8783068783069 29.41798941798942,146.66666666666669 28.994708994708997,146.24338624338625 28.35978835978836,146.03174603174605 27.93650793650794,145.60846560846562 27.301587301587304,145.1851851851852 26.666666666666668,144.973544973545 26.031746031746035,144.55026455026456 25.3968253968254,144.12698412698413 24.761904761904763,143.70370370370372 24.12698412698413,143.2804232804233 23.492063492063494,142.85714285714286 23.06878306878307,142.43386243386246 22.645502645502646,142.01058201058203 22.010582010582013,141.5873015873016 21.375661375661377,141.16402116402116 20.952380952380953,140.74074074074076 20.529100529100532,140.31746031746033 19.894179894179896,139.8941798941799 19.25925925925926,139.47089947089947 18.83597883597884,139.04761904761907 18.201058201058203,138.62433862433863 17.77777777777778,138.2010582010582 17.354497354497354,137.7777777777778 16.71957671957672,137.35449735449737 16.296296296296298,136.93121693121694 15.873015873015873,136.5079365079365 15.449735449735451,136.0846560846561 14.814814814814817,135.66137566137567 14.391534391534393,135.23809523809524 13.756613756613758,134.81481481481484 13.333333333333334,134.3915343915344 12.910052910052912,133.96825396825398 12.275132275132275,133.54497354497354 11.851851851851853,133.12169312169314 11.216931216931219,132.6984126984127 10.793650793650794,132.27513227513228 10.370370370370372,131.85185185185185 9.947089947089948,131.42857142857144 9.523809523809524,131.005291005291 8.88888888888889,130.58201058201058 8.465608465608467,130.15873015873018 7.830687830687832,129.73544973544975 7.195767195767196,129.31216931216932 6.772486772486773,128.88888888888889 3.597883597883598,126.34920634920636" style="fill:none; stroke:#00aa99; stroke-width:1.0"  /><polyline points="3.597883597883598,126.34920634920636 6.137566137566138,124.23280423280424 6.560846560846561,123.80952380952382 6.984126984126985,123.3862433862434 7.6190476190476195,122.96296296296298 8.042328042328043,122.53968253968254 8.677248677248677,122.11640211640213 9.100529100529101,121.6931216931217 9.735449735449736,121.26984126984128 10.370370370370372,120.84656084656086 10.793650793650794,120.42328042328043 11.428571428571429,120.00000000000001 11.851851851851853,119.57671957671958 12.275132275132275,119.15343915343917 12.6984126984127,118.73015873015873 13.333333333333334,118.30687830687832 13.756613756613758,117.88359788359789 14.391534391534393,117.46031746031747 14.814814814814817,117.03703703703705 15.238095238095239,116.61375661375662 15.661375661375663,116.1904761904762 16.084656084656086,115.76719576719577 16.50793650793651,115.34391534391536 16.931216931216934,114.92063492063492 17.354497354497354,114.49735449735451 17.77777777777778,114.07407407407408 18.201058201058203,113.65079365079366 18.624338624338627,113.22751322751324 19.047619047619047,112.80423280423281 19.47089947089947,112.3809523809524 19.894179894179896,111.74603174603176 20.31746031746032,111.32275132275133 20.740740740740744,110.89947089947091 21.164021164021165,110.47619047619048 21.58730158730159,110.05291005291006 22.010582010582013,109.62962962962963 22.433862433862437,108.994708994709 22.857142857142858,108.57142857142858 23.280423280423282,107.93650793650795 23.703703703703706,107.51322751322752 24.12698412698413,107.0899470899471 24.55026455026455,106.45502645502647 24.973544973544975,106.03174603174604 25.3968253968254,105.3968253968254 25.820105820105823,104.97354497354497 26.243386243386244,104.33862433862434 26.666666666666668,103.91534391534393 26.87830687830688,103.28042328042329 27.301587301587304,102.64550264550266 27.724867724867728,102.22222222222223 28.14814814814815,101.5873015873016 28.571428571428573,101.16402116402116 28.994708994708997,100.52910052910053 29.41798941798942,99.8941798941799 29.841269841269842,99.25925925925927 30.264550264550266,98.62433862433863 30.68783068783069,97.989417989418 31.111111111111114,97.35449735449737 31.53439153439154,96.71957671957672 31.95767195767196,96.08465608465609 32.38095238095239,95.44973544973546 32.38095238095239,94.81481481481482 32.804232804232804,94.39153439153439 33.01587301587302,93.75661375661376 33.43915343915344,93.12169312169313 33.86243386243387,92.69841269841271 34.074074074074076,92.06349206349208 34.4973544973545,91.42857142857143 34.920634920634924,90.7936507936508 35.13227513227513,90.15873015873017 35.55555555555556,89.73544973544975 35.76719576719577,89.1005291005291 36.19047619047619,88.67724867724868 36.402116402116405,88.04232804232805 36.82539682539683,87.40740740740742 37.03703703703704,86.77248677248677 37.46031746031746,86.13756613756614 37.67195767195768,85.5026455026455 38.095238095238095,84.86772486772487 38.30687830687831,84.23280423280424 38.51851851851852,83.59788359788361 38.730158730158735,82.96296296296298 38.94179894179894,82.32804232804233 39.15343915343916,81.6931216931217 39.36507936507937,81.05820105820106 39.36507936507937,80.42328042328043 39.57671957671958,79.7883597883598 39.57671957671958,79.15343915343917 39.57671957671958,78.51851851851852 39.57671957671958,77.88359788359789 39.57671957671958,77.24867724867725 39.57671957671958,76.61375661375662 39.57671957671958,75.97883597883599 39.36507936507937,75.34391534391536 39.15343915343916,74.70899470899471 39.15343915343916,74.07407407407408 38.730158730158735,73.65079365079366 38.51851851851852,73.01587301587303 38.095238095238095,72.5925925925926 37.67195767195768,72.16931216931218 37.248677248677254,71.53439153439155 36.613756613756614,71.11111111111111 36.19047619047619,70.6878306878307 35.55555555555556,70.47619047619048 35.13227513227513,70.05291005291006 34.4973544973545,69.84126984126985 33.86243386243387,69.62962962962963 33.22751322751323,69.41798941798942 32.592592592592595,69.20634920634922 31.95767195767196,68.994708994709 31.322751322751326,68.994708994709 30.68783068783069,68.994708994709 30.052910052910054,68.78306878306879 29.41798941798942,68.78306878306879 28.783068783068785,68.78306878306879 28.14814814814815,68.78306878306879 27.513227513227516,68.78306878306879 26.87830687830688,68.78306878306879 26.243386243386244,68.994708994709 25.60846560846561,68.994708994709 24.973544973544975,68.994708994709 24.338624338624342,68.994708994709 23.703703703703706,69.20634920634922 23.06878306878307,69.20634920634922 22.433862433862437,69.20634920634922 21.7989417989418,69.41798941798942 21.164021164021165,69.41798941798942 20.529100529100532,69.41798941798942 19.894179894179896,69.41798941798942 19.25925925925926,69.62962962962963 18.624338624338627,69.62962962962963 17.98941798941799,69.62962962962963 17.354497354497354,69.62962962962963 16.71957671957672,69.62962962962963 16.084656084656086,69.62962962962963 15.449735449735451,69.62962962962963 14.814814814814817,69.62962962962963 14.17989417989418,69.62962962962963 13.544973544973546,69.41798941798942 12.910052910052912,69.41798941798942 12.275132275132275,69.41798941798942 11.640211640211641,69.20634920634922 11.005291005291006,68.994708994709 10.370370370370372,68.78306878306879 9.735449735449736,68.57142857142858 9.100529100529101,68.35978835978837 8.465608465608467,68.14814814814815 7.830687830687832,67.72486772486774 7.195767195767196,67.51322751322752 6.560846560846561,67.08994708994709 5.9259259259259265,66.66666666666667 5.291005291005291,66.24338624338625 4.867724867724868,65.82010582010582 4.444444444444445,65.3968253968254 4.021164021164021,64.97354497354497 3.3862433862433865,64.55026455026456 2.9629629629629632,64.12698412698413 2.53968253968254,63.70370370370371 2.3280423280423284,63.06878306878308 1.9047619047619049,62.64550264550265 1.4814814814814816,62.01058201058201 1.0582010582010584,61.37566137566138 1.0582010582010584,60.74074074074075 0.8465608465608466,60.10582010582011 0.634920634920635,59.470899470899475 0.4232804232804233,58.83597883597884 0.4232804232804233,58.2010582010582 0.4232804232804233,57.56613756613757 0.21164021164021166,56.93121693121694 0.21164021164021166,56.2962962962963 0.21164021164021166,55.661375661375665 0.21164021164021166,55.02645502645503 0.4232804232804233,54.39153439153439 0.4232804232804233,53.75661375661376 0.634920634920635,53.12169312169313 0.634920634920635,52.48677248677249 0.634920634920635,51.851851851851855 0.634920634920635,51.21693121693122 0.8465608465608466,50.58201058201058 1.0582010582010584,49.94708994708995 1.0582010582010584,49.31216931216932 1.26984126984127,48.677248677248684 1.26984126984127,48.042328042328045 1.4814814814814816,47.40740740740741 1.6931216931216932,46.77248677248678 1.9047619047619049,46.13756613756614 1.9047619047619049,45.50264550264551 2.1164021164021167,44.867724867724874 2.53968253968254,44.232804232804234 2.7513227513227516,43.5978835978836 2.9629629629629632,42.96296296296297 3.174603174603175,42.32804232804233 3.597883597883598,41.6931216931217 3.8095238095238098,41.058201058201064 4.021164021164021,40.423280423280424 4.444444444444445,39.78835978835979 4.867724867724868,39.15343915343916 5.07936507936508,38.51851851851852 5.502645502645503,37.883597883597886 5.9259259259259265,37.248677248677254 6.34920634920635,36.613756613756614 6.772486772486773,35.97883597883598 6.984126984126985,35.34391534391535 7.407407407407408,34.920634920634924 7.830687830687832,34.28571428571429 8.253968253968255,33.86243386243387 8.677248677248677,33.22751322751323 9.100529100529101,32.804232804232804 9.523809523809524,32.16931216931217 9.947089947089948,31.746031746031747 10.370370370370372,31.322751322751326 10.793650793650794,30.899470899470902 11.216931216931219,30.476190476190478 11.640211640211641,30.052910052910054 12.063492063492065,29.41798941798942 12.6984126984127,28.994708994708997 13.121693121693122,28.571428571428573 13.544973544973546,28.14814814814815 13.96825396825397,27.724867724867728 14.603174603174605,27.301587301587304 15.026455026455027,26.87830687830688 15.661375661375663,26.455026455026456 16.296296296296298,26.031746031746035 16.931216931216934,25.60846560846561 17.354497354497354,25.185185185185187 17.77777777777778,24.761904761904763 18.412698412698415,24.55026455026455 18.83597883597884,24.12698412698413 19.47089947089947,23.703703703703706 19.894179894179896,23.280423280423282 20.529100529100532,23.06878306878307 21.164021164021165,22.857142857142858 21.7989417989418,22.433862433862437 22.433862433862437,22.010582010582013 23.06878306878307,21.7989417989418 23.703703703703706,21.58730158730159 24.12698412698413,21.164021164021165 24.761904761904763,21.164021164021165 25.3968253968254,20.740740740740744 26.031746031746035,20.529100529100532 26.666666666666668,20.105820105820108 27.301587301587304,19.682539682539684 27.93650793650794,19.47089947089947 28.571428571428573,19.47089947089947 29.20634920634921,19.25925925925926 29.841269841269842,19.047619047619047 30.476190476190478,18.83597883597884 31.111111111111114,18.83597883597884 31.746031746031747,18.83597883597884 32.38095238095239,19.047619047619047 33.01587301587302,19.47089947089947 33.65079365079365,19.47089947089947 34.28571428571429,19.47089947089947 34.920634920634924,19.682539682539684 35.34391534391535,20.105820105820108 35.97883597883598,20.529100529100532 36.402116402116405,20.952380952380953 36.82539682539683,21.375661375661377 37.248677248677254,21.7989417989418 37.67195767195768,22.433862433862437 38.095238095238095,22.857142857142858 38.51851851851852,23.492063492063494 38.730158730158735,24.12698412698413 39.15343915343916,24.761904761904763 39.57671957671958,25.185185185185187 39.78835978835979,25.820105820105823 40.0,26.455026455026456 40.211640211640216,27.089947089947092 40.423280423280424,27.724867724867728 40.63492063492064,28.35978835978836 40.63492063492064,28.994708994708997 40.84656084656085,29.629629629629633 41.058201058201064,30.264550264550266 41.058201058201064,30.899470899470902 41.26984126984127,31.53439153439154 41.26984126984127,32.16931216931217 41.48148148148149,32.804232804232804 41.48148148148149,33.43915343915344 41.6931216931217,34.074074074074076 41.6931216931217,34.70899470899471 41.904761904761905,35.34391534391535 41.904761904761905,35.97883597883598 41.904761904761905,36.613756613756614 42.11640211640212,37.248677248677254 42.11640211640212,37.883597883597886 42.11640211640212,38.51851851851852 42.32804232804233,39.15343915343916 42.32804232804233,39.78835978835979 42.539682539682545,40.423280423280424 42.539682539682545,41.058201058201064 42.539682539682545,41.6931216931217 42.75132275132275,42.32804232804233 42.75132275132275,42.96296296296297 42.75132275132275,43.5978835978836 42.75132275132275,44.232804232804234 42.96296296296297,44.867724867724874 42.96296296296297,45.50264550264551 43.17460317460318,46.13756613756614 43.17460317460318,46.77248677248678 43.17460317460318,47.40740740740741 43.386243386243386,48.042328042328045 43.5978835978836,48.677248677248684 43.80952380952381,49.31216931216932 44.021164021164026,49.94708994708995 44.44444444444445,50.58201058201058 44.65608465608466,51.21693121693122 45.07936507936508,51.640211640211646 45.50264550264551,52.06349206349207 45.92592592592593,52.48677248677249 46.560846560846564,52.91005291005291 46.98412698412699,53.333333333333336 47.61904761904762,53.54497354497355 48.25396825396826,53.75661375661376 48.88888888888889,53.968253968253975 49.523809523809526,53.968253968253975 50.158730158730165,53.75661375661376 50.7936507936508,53.75661375661376 51.42857142857143,53.75661375661376 52.06349206349207,53.54497354497355 52.6984126984127,53.333333333333336 53.333333333333336,53.12169312169313 53.968253968253975,52.91005291005291 54.60317460317461,52.48677248677249 55.23809523809524,52.06349206349207 55.87301587301588,51.851851851851855 56.50793650793651,51.42857142857143 56.93121693121694,51.00529100529101 57.56613756613757,50.58201058201058 58.2010582010582,50.158730158730165 58.83597883597884,49.73544973544974 59.470899470899475,49.31216931216932 59.8941798941799,48.88888888888889 60.52910052910053,48.46560846560847 60.952380952380956,48.042328042328045 61.37566137566138,47.61904761904762 61.798941798941804,46.98412698412699 62.43386243386244,46.560846560846564 62.85714285714286,46.13756613756614 63.280423280423285,45.714285714285715 63.70370370370371,45.29100529100529 64.12698412698413,44.65608465608466 64.55026455026456,44.232804232804234 64.97354497354497,43.80952380952381 65.3968253968254,43.386243386243386 65.82010582010582,42.96296296296297 66.24338624338625,42.32804232804233 66.66666666666667,41.904761904761905 67.08994708994709,41.48148148148149 67.51322751322752,40.84656084656085 67.93650793650794,40.423280423280424 68.35978835978837,40.0 68.78306878306879,39.36507936507937 69.20634920634922,38.94179894179894 69.62962962962963,38.51851851851852 70.05291005291006,38.095238095238095 70.47619047619048,37.46031746031746 70.8994708994709,37.03703703703704 71.32275132275133,36.402116402116405 71.74603174603175,35.97883597883598 72.16931216931218,35.55555555555556 72.5925925925926,35.13227513227513 73.01587301587303,34.4973544973545 73.43915343915344,34.074074074074076 73.86243386243387,33.65079365079365 74.28571428571429,33.22751322751323 74.70899470899471,32.592592592592595 75.13227513227514,32.16931216931217 75.55555555555556,31.746031746031747 75.97883597883599,31.322751322751326 76.4021164021164,30.68783068783069 76.82539682539684,30.264550264550266 77.24867724867725,29.629629629629633 77.67195767195767,29.20634920634921 78.0952380952381,28.783068783068785 78.51851851851852,28.14814814814815 78.94179894179895,27.724867724867728 79.36507936507937,27.301587301587304 79.7883597883598,26.87830687830688 80.21164021164022,26.243386243386244 80.63492063492065,25.820105820105823 81.05820105820106,25.3968253968254 81.48148148148148,24.761904761904763 81.90476190476191,24.338624338624342 82.32804232804233,23.703703703703706 82.75132275132276,23.280423280423282 83.17460317460318,22.857142857142858 83.59788359788361,22.433862433862437 84.02116402116403,22.010582010582013 84.44444444444446,21.375661375661377 84.86772486772487,20.952380952380953 85.29100529100529,20.529100529100532 85.71428571428572,20.105820105820108 86.13756613756614,19.47089947089947 86.56084656084657,19.047619047619047 86.98412698412699,18.624338624338627 87.40740740740742,18.201058201058203 87.83068783068784,17.77777777777778 88.25396825396827,17.354497354497354 88.67724867724868,16.931216931216934 89.1005291005291,16.50793650793651 89.52380952380953,16.084656084656086 89.94708994708995,15.661375661375663 90.37037037037038,15.238095238095239 90.7936507936508,14.814814814814817 91.21693121693123,14.391534391534393 91.64021164021165,13.96825396825397 92.06349206349208,13.544973544973546 92.4867724867725,13.121693121693122 92.91005291005291,12.6984126984127 93.33333333333334,12.275132275132275 93.75661375661376,11.640211640211641 94.17989417989419,11.216931216931219 94.60317460317461,10.793650793650794 95.02645502645504,10.370370370370372 95.44973544973546,9.947089947089948 95.87301587301587,9.523809523809524 96.2962962962963,8.88888888888889 96.71957671957672,8.253968253968255 97.14285714285715,7.830687830687832 97.56613756613757,7.407407407407408 97.989417989418,6.984126984126985 98.41269841269842,6.560846560846561 98.83597883597885,6.137566137566138 99.25925925925927,5.714285714285714 99.68253968253968,5.07936507936508 100.10582010582011,4.656084656084657 100.52910052910053,4.2328042328042335 100.95238095238096,3.597883597883598 101.37566137566138,3.174603174603175 101.79894179894181,2.7513227513227516 102.22222222222223,2.3280423280423284 102.64550264550266,1.9047619047619049 104.97354497354497,-0.634920634920635" style="fill:none; stroke:#3300bb; stroke-width:1.0"  /><circle cx="104.97354497354497" cy="-0.634920634920635" r="2.0" style="fill:none; stroke:#000000aa; stroke-width:0.25" /><circle cx="205.29100529100532" cy="84.65608465608466" r="2.0" style="fill:none; stroke:#000000aa; stroke-width:0.25" /><circle cx="91.00529100529101" cy="188.14814814814815" r="2.0" style="fill:none; stroke:#000000aa; stroke-width:0.25" /><circle cx="3.597883597883598" cy="126.34920634920636" r="2.0" style="fill:none; stroke:#000000aa; stroke-width:0.25" /><circle cx="105.18518518518519" cy="0.21164021164021166" r="2.0" style="fill:none; stroke:#ff3366aa; stroke-width:0.25" /><circle cx="204.65608465608466" cy="85.29100529100529" r="2.0" style="fill:none; stroke:#ff3366aa; stroke-width:0.25" /><circle cx="90.7936507936508" cy="187.93650793650795" r="2.0" style="fill:none; stroke:#ff3366aa; stroke-width:0.25" /><circle cx="4.2328042328042335" cy="126.56084656084657" r="2.0" style="fill:none; stroke:#ff3366aa; stroke-width:0.25" /><polyline points="113.65079365079366,8.465608465608467 113.22751322751324,8.042328042328043 112.80423280423281,7.6190476190476195 112.3809523809524,7.195767195767196 111.95767195767196,6.772486772486773 111.53439153439155,6.34920634920635 111.11111111111111,5.9259259259259265 110.6878306878307,5.291005291005291 110.26455026455027,4.867724867724868 109.84126984126985,4.444444444444445 109.41798941798943,4.021164021164021 108.994708994709,3.597883597883598 108.57142857142858,3.174603174603175 108.14814814814815,2.7513227513227516 107.72486772486774,2.3280423280423284" style="fill:none; stroke:#001100; stroke-width:1.0" /><polyline points="96.71957671957672,8.253968253968255 97.14285714285715,7.830687830687832 97.56613756613757,7.407407407407408 97.989417989418,6.984126984126985 98.41269841269842,6.560846560846561 98.83597883597885,6.137566137566138 99.25925925925927,5.714285714285714 99.68253968253968,5.07936507936508 100.10582010582011,4.656084656084657 100.52910052910053,4.2328042328042335 100.95238095238096,3.597883597883598 101.37566137566138,3.174603174603175 101.79894179894181,2.7513227513227516 102.22222222222223,2.3280423280423284 102.64550264550266,1.9047619047619049" style="fill:none; stroke:#000011; stroke-width:1.0" /><polyline points="196.1904761904762,93.75661375661376 196.61375661375664,93.33333333333334 197.03703703703704,92.91005291005291 197.46031746031747,92.4867724867725 197.8835978835979,92.06349206349208 198.30687830687833,91.64021164021165 198.94179894179896,91.21693121693123 199.36507936507937,90.7936507936508 199.7883597883598,90.37037037037038 200.21164021164023,89.94708994708995 200.63492063492066,89.52380952380953 201.05820105820106,89.1005291005291 201.4814814814815,88.46560846560847 201.90476190476193,88.04232804232805 202.32804232804233,87.61904761904762" style="fill:none; stroke:#001100; stroke-width:1.0" /><polyline points="195.978835978836,77.24867724867725 196.61375661375664,77.67195767195767 197.24867724867727,78.0952380952381 197.8835978835979,78.51851851851852 198.51851851851853,78.94179894179895 198.94179894179896,79.36507936507937 199.36507936507937,79.7883597883598 200.00000000000003,80.21164021164022 200.42328042328043,80.63492063492065 201.05820105820106,81.05820105820106 201.4814814814815,81.48148148148148 202.11640211640213,81.90476190476191 202.53968253968256,82.32804232804233 202.962962962963,82.75132275132276" style="fill:none; stroke:#000011; stroke-width:1.0" /><polyline points="80.42328042328043,181.79894179894183 81.05820105820106,182.01058201058203 81.6931216931217,182.43386243386246 82.32804232804233,182.85714285714286 82.96296296296298,183.2804232804233 83.59788359788361,183.70370370370372 84.23280423280424,184.12698412698415 84.86772486772487,184.55026455026456 85.5026455026455,184.973544973545 86.13756613756614,185.39682539682542 86.77248677248677,185.82010582010582 87.40740740740742,186.24338624338625 88.04232804232805,186.45502645502646" style="fill:none; stroke:#001100; stroke-width:1.0" /><polyline points="99.68253968253968,180.31746031746033 99.25925925925927,180.74074074074076 98.62433862433863,181.16402116402116 98.2010582010582,181.5873015873016 97.77777777777779,182.01058201058203 97.14285714285715,182.43386243386246 96.71957671957672,182.85714285714286 96.2962962962963,183.4920634920635 95.66137566137567,183.91534391534393 95.23809523809524,184.33862433862436 94.81481481481482,184.7619047619048 94.39153439153439,185.1851851851852 93.96825396825398,185.60846560846562 93.33333333333334,186.03174603174605" style="fill:none; stroke:#000011; stroke-width:1.0" /><polyline points="12.6984126984127,118.73015873015873 12.275132275132275,119.15343915343917 11.851851851851853,119.57671957671958 11.428571428571429,120.00000000000001 10.793650793650794,120.42328042328043 10.370370370370372,120.84656084656086 9.735449735449736,121.26984126984128 9.100529100529101,121.6931216931217 8.677248677248677,122.11640211640213 8.042328042328043,122.53968253968254 7.6190476190476195,122.96296296296298 6.984126984126985,123.3862433862434 6.560846560846561,123.80952380952382 6.137566137566138,124.23280423280424" style="fill:none; stroke:#001100; stroke-width:1.0" /><polyline points="13.333333333333334,134.3915343915344 12.910052910052912,133.96825396825398 12.275132275132275,133.54497354497354 11.851851851851853,133.12169312169314 11.216931216931219,132.6984126984127 10.793650793650794,132.27513227513228 10.370370370370372,131.85185185185185 9.947089947089948,131.42857142857144 9.523809523809524,131.005291005291 8.88888888888889,130.58201058201058 8.465608465608467,130.15873015873018 7.830687830687832,129.73544973544975 7.195767195767196,129.31216931216932 6.772486772486773,128.88888888888889" style="fill:none; stroke:#000011; stroke-width:1.0" /><polyline points="107.72486772486774,2.3280423280423284 93.12169312169313,-12.910052910052912" style="fill:none; stroke:#ffaa00; stroke-width:0.4" /><polyline points="102.64550264550266,1.9047619047619049 117.03703703703705,-13.544973544973546" style="fill:none; stroke:#aaff00; stroke-width:0.4" /><polyline points="202.32804232804233,87.61904761904762 217.35449735449737,72.5925925925926" style="fill:none; stroke:#ffaa00; stroke-width:0.4" /><polyline points="202.962962962963,82.75132275132276 219.6825396825397,95.87301587301587" style="fill:none; stroke:#aaff00; stroke-width:0.4" /><polyline points="88.04232804232805,186.45502645502646 106.03174603174604,197.46031746031747" style="fill:none; stroke:#ffaa00; stroke-width:0.4" /><polyline points="93.33333333333334,186.03174603174605 77.67195767195767,200.21164021164023" style="fill:none; stroke:#aaff00; stroke-width:0.4" /><polyline points="6.137566137566138,124.23280423280424 -10.15873015873016,137.7777777777778" style="fill:none; stroke:#ffaa00; stroke-width:0.4" /><polyline points="6.772486772486773,128.88888888888889 -9.523809523809524,115.34391534391536" style="fill:none; stroke:#aaff00; stroke-width:0.4" /><circle cx="93.96825396825398" cy="92.69841269841271" r="1.0" style="fill:#444444; stroke-width:0" /><circle cx="103.70370370370371" cy="71.95767195767196" r="10.582010582010582" style="fill:#ff770022; stroke-width:0" /><circle cx="103.70370370370371" cy="71.95767195767196" r="1.0" style="fill:#ff7700; stroke-width:0" /></svg>