<?xml version="1.0" encoding="UTF-8" standalone="no"?><svg width="513.015873015873" height="471.11111111111114" viewBox="-10 -10 191.005291005291 177.03703703703704" xmlns="http://www.w3.org/2000/svg" xmlns:xlink="http://www.w3.org/1999/xlink"><polyline points="35.13227513227513,30.264550264550266 38.51851851851852,31.53439153439154 39.15343915343916,31.746031746031747 39.78835978835979,31.95767195767196 40.423280423280424,32.38095238095239 41.058201058201064,32.592592592592595 41.6931216931217,32.804232804232804 42.32804232804233,33.01587301587302 42.96296296296297,33.22751322751323 43.5978835978836,33.43915343915344 44.232804232804234,33.65079365079365 44.867724867724874,33.86243386243387 45.50264550264551,34.074074074074076 46.13756613756614,34.28571428571429 46.77248677248678,34.4973544973545 47.40740740740741,34.70899470899471 48.042328042328045,34.70899470899471 48.677248677248684,34.920634920634924 49.31216931216932,35.13227513227513 49.94708994708995,35.34391534391535 50.58201058201058,35.34391534391535 51.21693121693122,35.55555555555556 51.851851851851855,35.55555555555556 52.48677248677249,35.55555555555556 53.12169312169313,35.76719576719577 53.75661375661376,35.76719576719577 54.39153439153439,35.76719576719577 55.02645502645503,35.76719576719577 55.661375661375665,35.76719576719577 56.2962962962963,35.55555555555556 56.93121693121694,35.55555555555556 57.56613756613757,35.55555555555556 58.2010582010582,35.55555555555556 58.83597883597884,35.34391534391535 59.470899470899475,35.34391534391535 60.10582010582011,35.34391534391535 60.74074074074075,35.13227513227513 61.37566137566138,34.920634920634924 62.01058201058201,34.920634920634924 62.64550264550265,34.70899470899471 63.280423280423285,34.4973544973545 63.91534391534392,34.4973544973545 64.55026455026456,34.28571428571429 65.18518518518519,33.86243386243387 65.82010582010582,33.86243386243387 66.45502645502646,33.65079365079365 67.08994708994709,33.22751322751323 67.72486772486774,33.01587301587302 68.35978835978837,32.592592592592595 68.994708994709,32.38095238095239 69.62962962962963,32.16931216931217 70.26455026455027,31.746031746031747 70.8994708994709,31.322751322751326 71.53439153439155,31.111111111111114 72.16931216931218,30.68783068783069 72.80423280423281,30.264550264550266 73.22751322751323,29.841269841269842 73.86243386243387,29.41798941798942 74.49735449735451,28.994708994708997 74.92063492063492,28.571428571428573 75.55555555555556,28.14814814814815 76.19047619047619,27.93650793650794 76.61375661375662,27.513227513227516 77.03703703703704,27.089947089947092 77.46031746031747,26.666666666666668 77.88359788359789,26.243386243386244 78.30687830687832,25.820105820105823 78.94179894179895,25.3968253968254 79.36507936507937,24.973544973544975 79.7883597883598,24.55026455026455 80.21164021164022,24.12698412698413 80.63492063492065,23.703703703703706 81.05820105820106,23.280423280423282 81.48148148148148,22.857142857142858 81.90476190476191,22.433862433862437 82.32804232804233,22.010582010582013 82.75132275132276,21.375661375661377 83.17460317460318,20.952380952380953 83.59788359788361,20.529100529100532 84.02116402116403,19.894179894179896 84.44444444444446,19.47089947089947 84.86772486772487,18.83597883597884 85.29100529100529,18.412698412698415 85.71428571428572,17.98941798941799 86.13756613756614,17.354497354497354 86.56084656084657,16.71957671957672 86.98412698412699,16.084656084656086 87.40740740740742,15.661375661375663 87.83068783068784,15.026455026455027 88.25396825396827,14.391534391534393 88.67724867724868,13.756613756613758 89.1005291005291,13.121693121693122 89.52380952380953,12.486772486772487 89.73544973544975,11.851851851851853 90.15873015873017,11.216931216931219 90.58201058201058,10.582010582010582 90.7936507936508,9.947089947089948 91.21693121693123,9.312169312169313 91.21693121693123,8.677248677248677 91.64021164021165,8.042328042328043 91.85185185185186,7.407407407407408 92.27513227513228,6.772486772486773 92.69841269841271,6.137566137566138 93.12169312169313,5.502645502645503 93.54497354497356,4.867724867724868 93.96825396825398,4.444444444444445 94.39153439153439,3.8095238095238098 94.81481481481482,3.3862433862433865 95.23809523809524,2.9629629629629632 95.66137566137567,2.53968253968254 96.2962962962963,2.1164021164021167 96.93121693121694,1.6931216931216932 97.56613756613757,1.26984126984127 98.2010582010582,1.0582010582010584 98.83597883597885,0.8465608465608466 99.47089947089948,0.634920634920635 100.10582010582011,0.634920634920635 100.74074074074075,0.4232804232804233 101.37566137566138,0.4232804232804233 102.01058201058201,0.21164021164021166 102.64550264550266,0.21164021164021166 103.28042328042329,0.21164021164021166 103.91534391534393,0.21164021164021166 104.55026455026456,0.21164021164021166 105.18518518518519,0.4232804232804233 105.82010582010582,0.634920634920635 106.45502645502647,0.634920634920635 107.0899470899471,0.8465608465608466 107.72486772486774,1.0582010582010584 108.35978835978837,1.26984126984127 108.78306878306879,1.6931216931216932 109.41798941798943,1.9047619047619049 110.05291005291006,2.3280423280423284 110.6878306878307,2.7513227513227516 111.11111111111111,3.174603174603175 111.53439153439155,3.597883597883598 112.16931216931218,4.021164021164021 112.5925925925926,4.444444444444445 113.01587301587303,4.867724867724868 113.43915343915344,5.502645502645503 113.86243386243387,6.137566137566138 114.28571428571429,6.772486772486773 114.70899470899472,7.407407407407408 114.92063492063492,8.042328042328043 115.34391534391536,8.465608465608467 115.55555555555557,9.100529100529101 115.97883597883599,9.523809523809524 116.1904761904762,10.15873015873016 116.4021164021164,10.793650793650794 116.4021164021164,11.428571428571429 116.61375661375662,12.063492063492065 116.82539682539684,12.6984126984127 116.82539682539684,13.333333333333334 117.03703703703705,13.96825396825397 117.24867724867725,14.603174603174605 117.46031746031747,15.238095238095239 117.67195767195768,15.873015873015873 117.88359788359789,16.50793650793651 118.0952380952381,17.142857142857146 118.30687830687832,17.77777777777778 118.51851851851853,18.412698412698415 118.94179894179895,19.047619047619047 119.36507936507937,19.682539682539684 119.57671957671958,20.31746031746032 120.00000000000001,20.740740740740744 120.42328042328043,21.375661375661377 120.84656084656086,22.010582010582013 121.26984126984128,22.433862433862437 121.6931216931217,23.06878306878307 122.32804232804234,23.492063492063494 122.75132275132276,23.915343915343918 123.17460317460318,24.338624338624342 123.59788359788361,24.761904761904763 124.23280423280424,25.185185185185187 124.65608465608466,25.60846560846561 125.2910052910053,26.031746031746035 125.92592592592594,26.031746031746035 126.34920634920636,26.455026455026456 126.98412698412699,26.666666666666668 127.61904761904763,27.089947089947092 128.25396825396825,27.513227513227516 128.88888888888889,27.724867724867728 129.52380952380955,27.93650793650794 130.15873015873018,28.35978835978836 130.7936507936508,28.571428571428573 131.42857142857144,28.783068783068785 132.06349206349208,28.783068783068785 132.6984126984127,28.994708994708997 133.33333333333334,29.20634920634921 133.96825396825398,29.20634920634921 134.6031746031746,29.41798941798942 135.23809523809524,29.41798941798942 135.87301587301587,29.629629629629633 136.5079365079365,29.629629629629633 137.14285714285717,29.629629629629633 137.7777777777778,29.629629629629633 138.41269841269843,29.841269841269842 139.04761904761907,29.841269841269842 139.6825396825397,29.841269841269842 140.31746031746033,29.629629629629633 140.95238095238096,29.629629629629633 141.5873015873016,29.629629629629633 142.22222222222223,29.629629629629633 142.85714285714286,29.629629629629633 143.4920634920635,29.41798941798942 144.12698412698413,29.41798941798942 144.76190476190476,29.20634920634921 145.39682539682542,28.994708994708997 146.03174603174605,28.783068783068785 146.66666666666669,28.571428571428573 147.30158730158732,28.35978835978836 147.93650793650795,28.14814814814815 148.57142857142858,27.93650793650794 149.20634920634922,27.724867724867728 149.84126984126985,27.513227513227516 150.47619047619048,27.089947089947092 151.11111111111111,26.87830687830688 151.74603174603175,26.666666666666668 152.38095238095238,26.455026455026456 153.01587301587304,26.243386243386244 153.65079365079367,26.031746031746035 154.2857142857143,25.820105820105823 154.92063492063494,25.820105820105823 155.55555555555557,25.60846560846561 156.1904761904762,25.3968253968254 156.82539682539684,25.185185185185187 157.46031746031747,25.185185185185187 158.0952380952381,24.973544973544975 158.73015873015873,24.973544973544975 159.36507936507937,24.761904761904763 160.0,24.761904761904763 160.63492063492066,24.55026455026455 161.2698412698413,24.338624338624342 161.90476190476193,24.338624338624342 162.53968253968256,24.12698412698413 163.1746031746032,24.12698412698413 163.80952380952382,24.12698412698413 164.44444444444446,24.12698412698413 165.0793650793651,23.915343915343918 165.71428571428572,23.915343915343918 166.34920634920636,23.915343915343918 166.984126984127,23.915343915343918 171.21693121693124,23.280423280423282" style="fill:none; stroke:#cc0000; stroke-width:1.0"  /><polyline points="171.21693121693124,23.280423280423282 170.37037037037038,26.87830687830688 170.15873015873018,27.513227513227516 170.15873015873018,28.14814814814815 170.15873015873018,28.783068783068785 169.94708994708995,29.41798941798942 169.94708994708995,30.052910052910054 169.73544973544975,30.68783068783069 169.52380952380955,31.322751322751326 169.31216931216932,31.95767195767196 169.31216931216932,32.592592592592595 169.31216931216932,33.22751322751323 169.10052910052912,33.86243386243387 168.8888888888889,34.4973544973545 168.67724867724868,35.13227513227513 168.67724867724868,35.76719576719577 168.46560846560848,36.402116402116405 168.46560846560848,37.03703703703704 168.46560846560848,37.67195767195768 168.46560846560848,38.30687830687831 168.25396825396825,38.94179894179894 168.25396825396825,39.57671957671958 168.25396825396825,40.211640211640216 168.04232804232805,40.84656084656085 168.04232804232805,41.48148148148149 168.04232804232805,42.11640211640212 168.04232804232805,42.75132275132275 168.04232804232805,43.386243386243386 168.04232804232805,44.021164021164026 168.04232804232805,44.65608465608466 167.83068783068785,45.29100529100529 167.83068783068785,45.92592592592593 167.83068783068785,46.560846560846564 167.83068783068785,47.195767195767196 167.83068783068785,47.830687830687836 167.83068783068785,48.46560846560847 167.83068783068785,49.1005291005291 167.83068783068785,49.73544973544974 167.61904761904762,50.370370370370374 167.61904761904762,51.00529100529101 167.61904761904762,51.640211640211646 167.61904761904762,52.27513227513228 167.61904761904762,52.91005291005291 167.61904761904762,53.54497354497355 167.61904761904762,54.179894179894184 167.61904761904762,54.81481481481482 167.61904761904762,55.449735449735456 167.61904761904762,56.08465608465609 167.61904761904762,56.71957671957672 167.61904761904762,57.35449735449736 167.61904761904762,57.989417989417994 167.40740740740742,58.62433862433863 167.40740740740742,59.25925925925927 167.40740740740742,59.8941798941799 167.40740740740742,60.52910052910053 167.40740740740742,61.16402116402117 167.40740740740742,61.798941798941804 167.40740740740742,62.43386243386244 167.40740740740742,63.06878306878308 167.61904761904762,63.70370370370371 167.61904761904762,64.33862433862434 167.61904761904762,64.97354497354497 167.61904761904762,65.60846560846561 167.40740740740742,66.24338624338625 167.40740740740742,66.87830687830689 167.40740740740742,67.51322751322752 167.40740740740742,68.14814814814815 167.40740740740742,68.78306878306879 167.40740740740742,69.41798941798942 167.40740740740742,70.05291005291006 167.19576719576722,70.6878306878307 166.984126984127,71.32275132275133 166.984126984127,71.95767195767196 166.984126984127,72.5925925925926 166.7724867724868,73.22751322751323 166.56084656084658,73.86243386243387 166.34920634920636,74.49735449735451 165.92592592592595,74.92063492063492 165.71428571428572,75.55555555555556 165.2910052910053,76.19047619047619 164.8677248677249,76.61375661375662 164.44444444444446,77.24867724867725 164.02116402116403,77.67195767195767 163.59788359788362,78.0952380952381 162.96296296296296,78.51851851851852 162.32804232804233,78.73015873015873 161.6931216931217,78.94179894179895 161.05820105820106,79.15343915343917 160.42328042328043,79.36507936507937 159.7883597883598,79.36507936507937 159.15343915343917,79.36507936507937 158.51851851851853,79.15343915343917 157.8835978835979,79.15343915343917 157.24867724867727,78.94179894179895 156.61375661375664,78.73015873015873 155.978835978836,78.51851851851852 155.55555555555557,78.0952380952381 154.92063492063494,77.88359788359789 154.2857142857143,77.46031746031747 153.65079365079367,77.24867724867725 153.01587301587304,76.82539682539684 152.38095238095238,76.61375661375662 151.74603174603175,76.4021164021164 151.11111111111111,76.19047619047619 150.47619047619048,75.97883597883599 149.84126984126985,75.76719576719577 149.20634920634922,75.55555555555556 148.57142857142858,75.34391534391536 147.93650793650795,75.34391534391536 147.30158730158732,75.13227513227514 146.66666666666669,75.13227513227514 146.03174603174605,75.13227513227514 145.39682539682542,74.92063492063492 144.76190476190476,74.92063492063492 144.12698412698413,74.92063492063492 143.4920634920635,74.92063492063492 142.85714285714286,74.92063492063492 142.22222222222223,75.13227513227514 141.5873015873016,75.13227513227514 140.95238095238096,75.34391534391536 140.31746031746033,75.55555555555556 139.6825396825397,75.97883597883599 139.04761904761907,76.4021164021164 138.41269841269843,76.82539682539684 137.989417989418,77.24867724867725 137.56613756613757,77.67195767195767 137.14285714285717,78.30687830687832 136.93121693121694,78.94179894179895 136.71957671957674,79.57671957671958 136.2962962962963,80.21164021164022 136.0846560846561,80.84656084656085 135.66137566137567,81.48148148148148 135.44973544973547,82.11640211640213 135.23809523809524,82.75132275132276 135.02645502645504,83.3862433862434 134.81481481481484,84.02116402116403 134.6031746031746,84.65608465608466 134.3915343915344,85.29100529100529 134.17989417989418,85.92592592592594 133.96825396825398,86.56084656084657 133.96825396825398,87.1957671957672 133.96825396825398,87.83068783068784 133.75661375661377,88.46560846560847 133.54497354497354,89.1005291005291 133.54497354497354,89.73544973544975 133.54497354497354,90.37037037037038 133.33333333333334,91.00529100529101 133.33333333333334,91.64021164021165 133.33333333333334,92.27513227513228 133.33333333333334,92.91005291005291 133.33333333333334,93.54497354497356 133.33333333333334,94.17989417989419 133.33333333333334,94.81481481481482 133.33333333333334,95.44973544973546 133.54497354497354,96.08465608465609 133.54497354497354,96.71957671957672 133.33333333333334,97.35449735449737 133.54497354497354,97.989417989418 133.54497354497354,98.62433862433863 133.54497354497354,99.25925925925927 133.75661375661377,99.8941798941799 133.96825396825398,100.52910052910053 134.17989417989418,101.16402116402116 134.3915343915344,101.79894179894181 134.3915343915344,102.43386243386244 134.6031746031746,103.06878306878308 134.81481481481484,103.70370370370371 135.02645502645504,104.33862433862434 135.23809523809524,104.97354497354497 135.44973544973547,105.60846560846562 135.66137566137567,106.24338624338625 135.87301587301587,106.87830687830689 136.2962962962963,107.51322751322752 136.71957671957674,108.14814814814815 137.14285714285717,108.57142857142858 137.56613756613757,109.20634920634922 138.2010582010582,109.62962962962963 138.62433862433863,110.05291005291006 139.25925925925927,110.26455026455027 139.8941798941799,110.6878306878307 140.52910052910053,110.89947089947091 141.16402116402116,111.11111111111111 141.7989417989418,111.32275132275133 142.43386243386246,111.53439153439155 143.0687830687831,111.53439153439155 143.70370370370372,111.53439153439155 144.33862433862436,111.53439153439155 144.973544973545,111.53439153439155 145.60846560846562,111.53439153439155 146.24338624338625,111.53439153439155 146.8783068783069,111.32275132275133 147.51322751322752,111.11111111111111 148.14814814814815,111.11111111111111 148.78306878306879,110.6878306878307 149.41798941798942,110.47619047619048 150.05291005291005,110.26455026455027 150.6878306878307,110.05291005291006 151.32275132275134,109.62962962962963 151.95767195767198,109.41798941798943 152.5925925925926,109.20634920634922 153.22751322751324,109.20634920634922 153.86243386243387,108.994708994709 154.4973544973545,108.78306878306879 155.13227513227514,108.78306878306879 155.76719576719577,108.78306878306879 156.4021164021164,108.78306878306879 157.03703703703704,108.78306878306879 157.67195767195767,108.994708994709 158.30687830687833,109.20634920634922 158.94179894179896,109.41798941798943 159.5767195767196,109.62962962962963 160.21164021164023,109.84126984126985 160.84656084656086,110.26455026455027 161.4814814814815,110.6878306878307 161.90476190476193,111.32275132275133 162.32804232804233,111.74603174603176 162.53968253968256,112.3809523809524 162.75132275132276,113.01587301587303 162.96296296296296,113.65079365079366 163.1746031746032,114.28571428571429 163.3862433862434,114.92063492063492 163.3862433862434,115.55555555555557 163.59788359788362,116.1904761904762 163.59788359788362,116.82539682539684 163.59788359788362,117.46031746031747 163.80952380952382,118.0952380952381 163.80952380952382,118.73015873015873 163.80952380952382,119.36507936507937 163.80952380952382,120.00000000000001 163.80952380952382,120.63492063492065 163.80952380952382,121.26984126984128 163.59788359788362,121.90476190476191 163.59788359788362,122.53968253968254 163.3862433862434,123.17460317460318 163.3862433862434,123.80952380952382 163.3862433862434,124.44444444444446 163.1746031746032,125.07936507936509 162.96296296296296,125.71428571428572 162.96296296296296,126.34920634920636 162.75132275132276,126.98412698412699 162.53968253968256,127.61904761904763 162.32804232804233,128.25396825396825 162.32804232804233,128.88888888888889 162.11640211640213,129.52380952380955 162.11640211640213,130.15873015873018 161.90476190476193,130.7936507936508 161.6931216931217,131.42857142857144 161.4814814814815,132.06349206349208 161.2698412698413,132.6984126984127 161.05820105820106,133.33333333333334 160.84656084656086,133.96825396825398 160.63492063492066,134.6031746031746 160.42328042328043,135.23809523809524 160.21164021164023,135.87301587301587 160.0,136.5079365079365 159.7883597883598,137.14285714285717 159.5767195767196,137.7777777777778 159.15343915343917,138.41269841269843 158.94179894179896,139.04761904761907 158.73015873015873,139.6825396825397 158.30687830687833,140.31746031746033 158.0952380952381,140.95238095238096 157.8835978835979,141.5873015873016 157.46031746031747,142.22222222222223 157.24867724867727,142.85714285714286 157.03703703703704,143.4920634920635 156.82539682539684,144.12698412698413 156.4021164021164,144.76190476190476 156.1904761904762,145.39682539682542 155.978835978836,146.03174603174605 155.55555555555557,146.66666666666669 155.34391534391534,147.30158730158732 155.13227513227514,147.93650793650795 154.92063492063494,148.57142857142858 154.92063492063494,149.20634920634922 154.4973544973545,149.84126984126985 154.2857142857143,150.47619047619048 154.07407407407408,151.11111111111111 153.86243386243387,151.74603174603175 153.65079365079367,152.38095238095238 153.22751322751324,153.01587301587304 153.01587301587304,153.65079365079367 151.95767195767198,156.61375661375664" style="fill:none; stroke:#999900; stroke-width:1.0"  /><polyline points="151.95767195767198,156.61375661375664 148.35978835978838,156.4021164021164 147.72486772486775,156.61375661375664 147.0899470899471,156.4021164021164 146.45502645502646,156.4021164021164 145.82010582010582,156.4021164021164 145.1851851851852,156.4021164021164 144.55026455026456,156.4021164021164 143.91534391534393,156.4021164021164 143.2804232804233,156.1904761904762 142.64550264550266,156.1904761904762 142.01058201058203,156.1904761904762 141.3756613756614,156.1904761904762 140.74074074074076,155.978835978836 140.10582010582013,155.978835978836 139.47089947089947,155.978835978836 138.83597883597884,155.978835978836 138.2010582010582,155.978835978836 137.56613756613757,155.76719576719577 136.93121693121694,155.76719576719577 136.2962962962963,155.76719576719577 135.66137566137567,155.76719576719577 135.02645502645504,155.55555555555557 134.3915343915344,155.55555555555557 133.75661375661377,155.55555555555557 133.12169312169314,155.34391534391534 132.4867724867725,155.34391534391534 131.85185185185185,155.34391534391534 131.21693121693121,155.34391534391534 130.58201058201058,155.13227513227514 129.94708994708995,155.13227513227514 129.31216931216932,155.13227513227514 128.67724867724868,154.92063492063494 128.04232804232805,154.92063492063494 127.40740740740742,154.92063492063494 126.77248677248679,154.7089947089947 126.13756613756615,154.7089947089947 125.5026455026455,154.92063492063494 124.86772486772487,154.7089947089947 124.23280423280424,154.7089947089947 123.59788359788361,154.7089947089947 122.96296296296298,154.4973544973545 122.32804232804234,154.4973544973545 121.6931216931217,154.2857142857143 121.05820105820106,154.2857142857143 120.42328042328043,154.07407407407408 119.7883597883598,154.07407407407408 119.15343915343917,153.86243386243387 118.51851851851853,153.65079365079367 117.88359788359789,153.65079365079367 117.24867724867725,153.43915343915344 116.61375661375662,153.22751322751324 115.97883597883599,152.8042328042328 115.55555555555557,152.38095238095238 115.13227513227514,151.95767195767198 114.70899470899472,151.53439153439155 114.28571428571429,150.8994708994709 113.86243386243387,150.26455026455028 113.65079365079366,149.62962962962965 113.43915343915344,148.99470899470901 113.22751322751324,148.35978835978838 113.22751322751324,147.72486772486775 113.22751322751324,147.0899470899471 113.22751322751324,146.45502645502646 113.22751322751324,145.82010582010582 113.43915343915344,145.1851851851852 113.65079365079366,144.55026455026456 113.86243386243387,143.91534391534393 114.07407407407408,143.2804232804233 114.49735449735451,142.64550264550266 114.92063492063492,142.01058201058203 115.34391534391536,141.3756613756614 115.76719576719577,140.74074074074076 116.1904761904762,140.10582010582013 116.61375661375662,139.6825396825397 117.03703703703705,139.04761904761907 117.24867724867725,138.41269841269843 117.67195767195768,137.989417989418 117.88359788359789,137.35449735449737 118.30687830687832,136.71957671957674 118.51851851851853,136.0846560846561 118.73015873015873,135.44973544973547 118.94179894179895,134.81481481481484 118.94179894179895,134.17989417989418 119.15343915343917,133.54497354497354 119.15343915343917,132.9100529100529 119.15343915343917,132.27513227513228 119.15343915343917,131.64021164021165 119.36507936507937,131.005291005291 119.36507936507937,130.37037037037038 119.36507936507937,129.73544973544975 119.36507936507937,129.10052910052912 119.36507936507937,128.46560846560848 119.36507936507937,127.83068783068784 119.15343915343917,127.1957671957672 119.15343915343917,126.56084656084657 119.15343915343917,125.92592592592594 119.15343915343917,125.2910052910053 119.15343915343917,124.65608465608466 118.94179894179895,124.02116402116403 118.94179894179895,123.3862433862434 118.94179894179895,122.75132275132276 118.73015873015873,122.11640211640213 118.51851851851853,121.4814814814815 118.51851851851853,120.84656084656086 118.30687830687832,120.21164021164022 118.0952380952381,119.57671957671958 117.88359788359789,118.94179894179895 117.67195767195768,118.30687830687832 117.46031746031747,117.67195767195768 117.24867724867725,117.03703703703705 116.82539682539684,116.4021164021164 116.61375661375662,115.76719576719577 116.4021164021164,115.13227513227514 116.1904761904762,114.49735449735451 115.76719576719577,113.86243386243387 115.34391534391536,113.43915343915344 114.92063492063492,112.80423280423281 114.49735449735451,112.16931216931218 114.07407407407408,111.53439153439155 113.65079365079366,111.11111111111111 113.22751322751324,110.6878306878307 112.80423280423281,110.26455026455027 112.3809523809524,109.84126984126985 111.95767195767196,109.41798941798943 111.53439153439155,108.994708994709 110.89947089947091,108.57142857142858 110.26455026455027,108.35978835978837 109.62962962962963,108.14814814814815 109.20634920634922,107.72486772486774 108.57142857142858,107.51322751322752 107.93650793650795,107.51322751322752 107.3015873015873,107.3015873015873 106.66666666666667,107.0899470899471 106.03174603174604,106.87830687830689 105.3968253968254,106.66666666666667 104.76190476190477,106.66666666666667 104.12698412698414,106.87830687830689 103.4920634920635,106.87830687830689 102.85714285714286,106.87830687830689 102.22222222222223,106.87830687830689 101.5873015873016,107.0899470899471 100.95238095238096,107.0899470899471 100.31746031746033,107.3015873015873 99.68253968253968,107.3015873015873 99.04761904761905,107.51322751322752 98.41269841269842,107.72486772486774 97.77777777777779,107.72486772486774 97.14285714285715,107.93650793650795 96.50793650793652,108.14814814814815 95.87301587301587,108.14814814814815 95.23809523809524,108.14814814814815 94.60317460317461,108.35978835978837 93.96825396825398,108.57142857142858 93.33333333333334,108.78306878306879 92.69841269841271,108.994708994709 92.06349206349208,109.20634920634922 91.42857142857143,109.41798941798943 91.00529100529101,109.84126984126985 90.37037037037038,110.05291005291006 89.73544973544975,110.26455026455027 89.1005291005291,110.6878306878307 88.46560846560847,110.89947089947091 88.04232804232805,111.32275132275133 87.40740740740742,111.74603174603176 86.77248677248677,112.16931216931218 86.34920634920636,112.5925925925926 85.92592592592594,113.01587301587303 85.29100529100529,113.43915343915344 84.86772486772487,114.07407407407408 84.65608465608466,114.70899470899472 84.23280423280424,115.13227513227514 84.02116402116403,115.76719576719577 83.59788359788361,116.1904761904762 83.3862433862434,116.82539682539684 83.17460317460318,117.46031746031747 82.96296296296298,118.0952380952381 82.96296296296298,118.73015873015873 82.75132275132276,119.36507936507937 82.75132275132276,120.00000000000001 82.75132275132276,120.63492063492065 82.53968253968254,121.26984126984128 82.53968253968254,121.90476190476191 82.53968253968254,122.53968253968254 82.53968253968254,123.17460317460318 82.53968253968254,123.80952380952382 82.53968253968254,124.44444444444446 82.75132275132276,125.07936507936509 82.75132275132276,125.71428571428572 82.96296296296298,126.34920634920636 82.96296296296298,126.98412698412699 83.17460317460318,127.61904761904763 83.3862433862434,128.25396825396825 83.80952380952381,128.88888888888889 84.02116402116403,129.52380952380955 84.23280423280424,130.15873015873018 84.65608465608466,130.7936507936508 84.86772486772487,131.42857142857144 85.29100529100529,132.06349206349208 85.71428571428572,132.6984126984127 85.92592592592594,133.33333333333334 86.13756613756614,133.96825396825398 86.13756613756614,134.6031746031746 86.34920634920636,135.23809523809524 86.34920634920636,135.87301587301587 86.34920634920636,136.5079365079365 86.34920634920636,137.14285714285717 86.34920634920636,137.7777777777778 86.13756613756614,138.41269841269843 85.71428571428572,139.04761904761907 85.5026455026455,139.6825396825397 85.07936507936509,140.10582010582013 84.65608465608466,140.74074074074076 84.23280423280424,141.16402116402116 83.80952380952381,141.5873015873016 83.17460317460318,142.01058201058203 82.53968253968254,142.01058201058203 81.90476190476191,142.22222222222223 81.26984126984128,142.43386243386246 80.63492063492065,142.64550264550266 80.0,142.64550264550266 79.36507936507937,142.43386243386246 78.73015873015873,142.43386243386246 78.0952380952381,142.22222222222223 77.46031746031747,142.01058201058203 76.82539682539684,141.7989417989418 76.19047619047619,141.3756613756614 75.55555555555556,141.16402116402116 74.92063492063492,140.74074074074076 74.28571428571429,140.31746031746033 73.65079365079366,140.10582010582013 73.22751322751323,139.6825396825397 72.5925925925926,139.47089947089947 72.16931216931218,139.04761904761907 71.53439153439155,138.62433862433863 70.8994708994709,138.2010582010582 70.26455026455027,137.7777777777778 69.62962962962963,137.35449735449737 68.994708994709,137.14285714285717 68.57142857142858,136.71957671957674 67.93650793650794,136.2962962962963 67.3015873015873,135.87301587301587 66.66666666666667,135.44973544973547 66.03174603174604,135.02645502645504 65.3968253968254,134.6031746031746 64.97354497354497,134.17989417989418 64.33862433862434,133.96825396825398 63.91534391534392,133.54497354497354 63.280423280423285,133.12169312169314 62.64550264550265,132.6984126984127 62.01058201058201,132.4867724867725 61.37566137566138,132.06349206349208 60.74074074074075,131.64021164021165 60.10582010582011,131.42857142857144 59.470899470899475,131.005291005291 58.83597883597884,130.58201058201058 58.2010582010582,130.37037037037038 57.56613756613757,129.94708994708995 56.93121693121694,129.73544973544975 56.2962962962963,129.31216931216932 55.661375661375665,129.31216931216932 55.02645502645503,128.88888888888889 54.39153439153439,128.67724867724868 53.75661375661376,128.25396825396825 53.12169312169313,128.04232804232805 52.48677248677249,127.61904761904763 51.851851851851855,127.40740740740742 51.21693121693122,127.1957671957672 50.58201058201058,126.77248677248679 49.94708994708995,126.56084656084657 49.31216931216932,126.34920634920636 48.677248677248684,125.92592592592594 48.042328042328045,125.71428571428572 47.40740740740741,125.5026455026455 46.77248677248678,125.2910052910053 46.13756613756614,125.07936507936509 45.50264550264551,124.86772486772487 44.867724867724874,124.44444444444446 44.232804232804234,124.23280423280424 43.5978835978836,124.02116402116403 42.96296296296297,123.80952380952382 42.32804232804233,123.59788359788361 41.6931216931217,123.17460317460318 41.058201058201064,122.96296296296298 40.423280423280424,122.75132275132276 39.78835978835979,122.53968253968254 39.15343915343916,122.32804232804234 38.51851851851852,122.11640211640213 37.883597883597886,121.90476190476191 37.248677248677254,121.6931216931217 36.613756613756614,121.4814814814815 35.97883597883598,121.26984126984128 35.34391534391535,121.26984126984128 34.70899470899471,121.05820105820106 34.074074074074076,120.84656084656086 33.43915343915344,120.63492063492065 32.804232804232804,120.63492063492065 29.20634920634921,119.57671957671958" style="fill:none; stroke:#00aa99; stroke-width:1.0"  /><polyline points="29.20634920634921,119.57671957671958 30.052910052910054,116.61375661375662 30.264550264550266,115.97883597883599 30.476190476190478,115.34391534391536 30.68783068783069,114.70899470899472 30.68783068783069,114.07407407407408 30.68783068783069,113.43915343915344 30.899470899470902,112.80423280423281 31.111111111111114,112.16931216931218 31.53439153439154,111.53439153439155 31.53439153439154,110.89947089947091 31.95767195767196,110.26455026455027 32.16931216931217,109.62962962962963 32.38095238095239,108.994708994709 32.592592592592595,108.35978835978837 32.804232804232804,107.72486772486774 33.01587301587302,107.0899470899471 33.22751322751323,106.45502645502647 33.43915343915344,105.82010582010582 33.65079365079365,105.18518518518519 33.65079365079365,104.55026455026456 33.86243386243387,103.91534391534393 33.86243386243387,103.28042328042329 34.074074074074076,102.64550264550266 34.074074074074076,102.01058201058201 33.86243386243387,101.37566137566138 33.86243386243387,100.74074074074075 33.65079365079365,100.10582010582011 33.43915343915344,99.47089947089948 33.22751322751323,98.83597883597885 32.804232804232804,98.2010582010582 32.38095238095239,97.77777777777779 31.95767195767196,97.14285714285715 31.53439153439154,96.71957671957672 30.899470899470902,96.2962962962963 30.264550264550266,96.08465608465609 29.629629629629633,95.66137566137567 28.994708994708997,95.66137566137567 28.35978835978836,95.44973544973546 27.724867724867728,95.44973544973546 27.089947089947092,95.44973544973546 26.455026455026456,95.23809523809524 25.820105820105823,95.23809523809524 25.185185185185187,95.23809523809524 24.55026455026455,95.44973544973546 23.915343915343918,95.44973544973546 23.280423280423282,95.66137566137567 22.645502645502646,95.87301587301587 22.010582010582013,96.08465608465609 21.375661375661377,96.2962962962963 20.952380952380953,96.71957671957672 20.31746031746032,96.93121693121694 19.682539682539684,97.35449735449737 19.047619047619047,97.77777777777779 18.412698412698415,97.989417989418 17.77777777777778,98.41269841269842 17.142857142857146,98.83597883597885 16.50793650793651,99.04761904761905 15.873015873015873,99.25925925925927 15.238095238095239,99.47089947089948 14.603174603174605,99.68253968253968 13.96825396825397,99.68253968253968 13.333333333333334,99.8941798941799 12.6984126984127,99.8941798941799 12.063492063492065,99.8941798941799 11.428571428571429,99.8941798941799 10.793650793650794,99.8941798941799 10.15873015873016,99.68253968253968 9.523809523809524,99.68253968253968 8.88888888888889,99.68253968253968 8.253968253968255,99.47089947089948 7.6190476190476195,99.25925925925927 6.984126984126985,99.04761904761905 6.560846560846561,98.62433862433863 5.9259259259259265,98.2010582010582 5.502645502645503,97.77777777777779 5.07936507936508,97.35449735449737 4.656084656084657,96.71957671957672 4.2328042328042335,96.08465608465609 4.021164021164021,95.44973544973546 3.597883597883598,95.02645502645504 3.3862433862433865,94.39153439153439 3.174603174603175,93.75661375661376 2.7513227513227516,93.12169312169313 2.53968253968254,92.4867724867725 2.3280423280423284,91.85185185185186 2.1164021164021167,91.21693121693123 1.9047619047619049,90.58201058201058 1.6931216931216932,89.94708994708995 1.4814814814814816,89.31216931216932 1.26984126984127,88.67724867724868 1.26984126984127,88.04232804232805 1.0582010582010584,87.40740740740742 0.8465608465608466,86.77248677248677 0.8465608465608466,86.13756613756614 0.8465608465608466,85.5026455026455 0.634920634920635,84.86772486772487 0.634920634920635,84.23280423280424 0.634920634920635,83.59788359788361 0.4232804232804233,82.96296296296298 0.4232804232804233,82.32804232804233 0.4232804232804233,81.6931216931217 0.4232804232804233,81.05820105820106 0.4232804232804233,80.42328042328043 0.4232804232804233,79.7883597883598 0.21164021164021166,79.15343915343917 0.21164021164021166,78.51851851851852 0.4232804232804233,77.88359788359789 0.4232804232804233,77.24867724867725 0.4232804232804233,76.61375661375662 0.4232804232804233,75.97883597883599 0.634920634920635,75.34391534391536 0.634920634920635,74.70899470899471 0.8465608465608466,74.07407407407408 1.0582010582010584,73.43915343915344 1.0582010582010584,72.80423280423281 1.26984126984127,72.16931216931218 1.4814814814814816,71.53439153439155 1.6931216931216932,70.8994708994709 1.9047619047619049,70.26455026455027 2.1164021164021167,69.62962962962963 2.3280423280423284,68.994708994709 2.53968253968254,68.35978835978837 2.7513227513227516,67.72486772486774 2.9629629629629632,67.08994708994709 3.3862433862433865,66.45502645502646 3.597883597883598,65.82010582010582 4.021164021164021,65.18518518518519 4.444444444444445,64.55026455026456 4.867724867724868,63.91534391534392 5.291005291005291,63.492063492063494 5.714285714285714,63.06878306878308 6.34920634920635,62.64550264550265 6.984126984126985,62.43386243386244 7.6190476190476195,62.22222222222223 8.253968253968255,62.01058201058201 8.88888888888889,61.798941798941804 9.523809523809524,61.58730158730159 10.15873015873016,61.58730158730159 10.793650793650794,61.58730158730159 11.428571428571429,61.37566137566138 12.063492063492065,61.37566137566138 12.6984126984127,61.37566137566138 13.333333333333334,61.37566137566138 13.96825396825397,61.37566137566138 14.603174603174605,61.37566137566138 15.238095238095239,61.58730158730159 15.873015873015873,61.58730158730159 16.50793650793651,61.798941798941804 17.142857142857146,61.798941798941804 17.77777777777778,62.01058201058201 18.412698412698415,62.22222222222223 19.047619047619047,62.43386243386244 19.682539682539684,62.43386243386244 20.31746031746032,62.64550264550265 20.952380952380953,62.64550264550265 21.58730158730159,63.06878306878308 22.222222222222225,63.280423280423285 22.857142857142858,63.492063492063494 23.492063492063494,63.70370370370371 24.12698412698413,63.91534391534392 24.761904761904763,64.12698412698413 25.3968253968254,64.12698412698413 26.031746031746035,64.33862433862434 26.666666666666668,64.33862433862434 27.301587301587304,64.12698412698413 27.93650793650794,64.12698412698413 28.571428571428573,63.91534391534392 29.20634920634921,63.492063492063494 29.841269841269842,63.280423280423285 30.264550264550266,62.85714285714286 30.899470899470902,62.43386243386244 31.322751322751326,62.01058201058201 31.746031746031747,61.58730158730159 32.16931216931217,61.16402116402117 32.592592592592595,60.52910052910053 33.01587301587302,59.8941798941799 33.43915343915344,59.25925925925927 33.65079365079365,58.62433862433863 34.074074074074076,57.989417989417994 34.28571428571429,57.35449735449736 34.4973544973545,56.71957671957672 34.4973544973545,56.08465608465609 34.70899470899471,55.449735449735456 34.920634920634924,54.81481481481482 34.920634920634924,54.179894179894184 34.920634920634924,53.54497354497355 35.13227513227513,52.91005291005291 35.13227513227513,52.27513227513228 35.13227513227513,51.640211640211646 35.13227513227513,51.00529100529101 35.13227513227513,50.370370370370374 35.13227513227513,49.73544973544974 35.13227513227513,49.1005291005291 35.13227513227513,48.46560846560847 35.13227513227513,47.830687830687836 35.13227513227513,47.195767195767196 35.13227513227513,46.560846560846564 35.34391534391535,45.92592592592593 35.34391534391535,45.29100529100529 35.13227513227513,44.65608465608466 34.920634920634924,44.021164021164026 34.920634920634924,43.386243386243386 34.920634920634924,42.75132275132275 34.920634920634924,42.11640211640212 34.920634920634924,41.48148148148149 34.920634920634924,40.84656084656085 34.920634920634924,40.211640211640216 34.920634920634924,39.57671957671958 35.13227513227513,38.94179894179894 35.13227513227513,38.30687830687831 34.920634920634924,37.67195767195768 34.920634920634924,37.03703703703704 34.920634920634924,36.402116402116405 34.920634920634924,35.76719576719577 34.920634920634924,35.13227513227513 34.920634920634924,34.4973544973545 34.920634920634924,33.86243386243387 35.13227513227513,33.22751322751323 35.13227513227513,30.264550264550266" style="fill:none; stroke:#3300bb; stroke-width:1.0"  /><circle cx="35.13227513227513" cy="30.264550264550266" r="2.0" style="fill:none; stroke:#000000aa; stroke-width:0.25" /><circle cx="171.21693121693124" cy="23.280423280423282" r="2.0" style="fill:none; stroke:#000000aa; stroke-width:0.25" /><circle cx="151.95767195767198" cy="156.61375661375664" r="2.0" style="fill:none; stroke:#000000aa; stroke-width:0.25" /><circle cx="29.20634920634921" cy="119.57671957671958" r="2.0" style="fill:none; stroke:#000000aa; stroke-width:0.25" /><circle cx="35.34391534391535" cy="30.264550264550266" r="2.0" style="fill:none; stroke:#ff3366aa; stroke-width:0.25" /><circle cx="170.58201058201058" cy="23.703703703703706" r="2.0" style="fill:none; stroke:#ff3366aa; stroke-width:0.25" /><circle cx="151.53439153439155" cy="156.61375661375664" r="2.0" style="fill:none; stroke:#ff3366aa; stroke-width:0.25" /><circle cx="29.629629629629633" cy="119.7883597883598" r="2.0" style="fill:none; stroke:#ff3366aa; stroke-width:0.25" /><polyline points="46.13756613756614,34.28571428571429 45.50264550264551,34.074074074074076 44.867724867724874,33.86243386243387 44.232804232804234,33.65079365079365 43.5978835978836,33.43915343915344 42.96296296296297,33.22751322751323 42.32804232804233,33.01587301587302 41.6931216931217,32.804232804232804 41.058201058201064,32.592592592592595 40.423280423280424,32.38095238095239 39.78835978835979,31.95767195767196 39.15343915343916,31.746031746031747 38.51851851851852,31.53439153439154" style="fill:none; stroke:#001100; stroke-width:1.0" /><polyline points="34.920634920634924,42.11640211640212 34.920634920634924,41.48148148148149 34.920634920634924,40.84656084656085 34.920634920634924,40.211640211640216 34.920634920634924,39.57671957671958 35.13227513227513,38.94179894179894 35.13227513227513,38.30687830687831 34.920634920634924,37.67195767195768 34.920634920634924,37.03703703703704 34.920634920634924,36.402116402116405 34.920634920634924,35.76719576719577 34.920634920634924,35.13227513227513 34.920634920634924,34.4973544973545 34.920634920634924,33.86243386243387 35.13227513227513,33.22751322751323" style="fill:none; stroke:#000011; stroke-width:1.0" /><polyline points="168.67724867724868,35.13227513227513 168.8888888888889,34.4973544973545 169.10052910052912,33.86243386243387 169.31216931216932,33.22751322751323 169.31216931216932,32.592592592592595 169.31216931216932,31.95767195767196 169.52380952380955,31.322751322751326 169.73544973544975,30.68783068783069 169.94708994708995,30.052910052910054 169.94708994708995,29.41798941798942 170.15873015873018,28.783068783068785 170.15873015873018,28.14814814814815 170.15873015873018,27.513227513227516 170.37037037037038,26.87830687830688" style="fill:none; stroke:#001100; stroke-width:1.0" /><polyline points="158.73015873015873,24.973544973544975 159.36507936507937,24.761904761904763 160.0,24.761904761904763 160.63492063492066,24.55026455026455 161.2698412698413,24.338624338624342 161.90476190476193,24.338624338624342 162.53968253968256,24.12698412698413 163.1746031746032,24.12698412698413 163.80952380952382,24.12698412698413 164.44444444444446,24.12698412698413 165.0793650793651,23.915343915343918 165.71428571428572,23.915343915343918 166.34920634920636,23.915343915343918 166.984126984127,23.915343915343918 167.61904761904762,23.703703703703706" style="fill:none; stroke:#000011; stroke-width:1.0" /><polyline points="140.10582010582013,155.978835978836 140.74074074074076,155.978835978836 141.3756613756614,156.1904761904762 142.01058201058203,156.1904761904762 142.64550264550266,156.1904761904762 143.2804232804233,156.1904761904762 143.91534391534393,156.4021164021164 144.55026455026456,156.4021164021164 145.1851851851852,156.4021164021164 145.82010582010582,156.4021164021164 146.45502645502646,156.4021164021164 147.0899470899471,156.4021164021164 147.72486772486775,156.61375661375664 148.35978835978838,156.4021164021164" style="fill:none; stroke:#001100; stroke-width:1.0" /><polyline points="155.978835978836,146.03174603174605 155.55555555555557,146.66666666666669 155.34391534391534,147.30158730158732 155.13227513227514,147.93650793650795 154.92063492063494,148.57142857142858 154.92063492063494,149.20634920634922 154.4973544973545,149.84126984126985 154.2857142857143,150.47619047619048 154.07407407407408,151.11111111111111 153.86243386243387,151.74603174603175 153.65079365079367,152.38095238095238 153.22751322751324,153.01587301587304 153.01587301587304,153.65079365079367" style="fill:none; stroke:#000011; stroke-width:1.0" /><polyline points="32.592592592592595,108.35978835978837 32.38095238095239,108.994708994709 32.16931216931217,109.62962962962963 31.95767195767196,110.26455026455027 31.53439153439154,110.89947089947091 31.53439153439154,111.53439153439155 31.111111111111114,112.16931216931218 30.899470899470902,112.80423280423281 30.68783068783069,113.43915343915344 30.68783068783069,114.07407407407408 30.68783068783069,114.70899470899472 30.476190476190478,115.34391534391536 30.264550264550266,115.97883597883599 30.052910052910054,116.61375661375662" style="fill:none; stroke:#001100; stroke-width:1.0" /><polyline points="41.058201058201064,122.96296296296298 40.423280423280424,122.75132275132276 39.78835978835979,122.53968253968254 39.15343915343916,122.32804232804234 38.51851851851852,122.11640211640213 37.883597883597886,121.90476190476191 37.248677248677254,121.6931216931217 36.613756613756614,121.4814814814815 35.97883597883598,121.26984126984128 35.34391534391535,121.26984126984128 34.70899470899471,121.05820105820106 34.074074074074076,120.84656084656086 33.43915343915344,120.63492063492065 32.804232804232804,120.63492063492065" style="fill:none; stroke:#000011; stroke-width:1.0" /><polyline points="38.51851851851852,31.53439153439154 18.624338624338627,24.338624338624342" style="fill:none; stroke:#ffaa00; stroke-width:0.4" /><polyline points="35.13227513227513,33.22751322751323 35.55555555555556,12.063492063492065" style="fill:none; stroke:#aaff00; stroke-width:0.4" /><polyline points="170.37037037037038,26.87830687830688 174.6031746031746,6.137566137566138" style="fill:none; stroke:#ffaa00; stroke-width:0.4" /><polyline points="167.61904761904762,23.703703703703706 188.57142857142858,20.740740740740744" style="fill:none; stroke:#aaff00; stroke-width:0.4" /><polyline points="148.35978835978838,156.4021164021164 169.52380952380955,157.46031746031747" style="fill:none; stroke:#ffaa00; stroke-width:0.4" /><polyline points="153.01587301587304,153.65079365079367 145.39682539682542,173.33333333333334" style="fill:none; stroke:#aaff00; stroke-width:0.4" /><polyline points="30.052910052910054,116.61375661375662 23.915343915343918,136.93121693121694" style="fill:none; stroke:#ffaa00; stroke-width:0.4" /><polyline points="32.804232804232804,120.63492063492065 12.486772486772487,114.92063492063492" style="fill:none; stroke:#aaff00; stroke-width:0.4" /><circle cx="93.96825396825398" cy="77.88359788359789" r="1.0" style="fill:#444444; stroke-width:0" /><circle cx="95.23809523809524" cy="65.82010582010582" r="10.582010582010582" style="fill:#ff770022; stroke-width:0" /><circle cx="95.23809523809524" cy="65.82010582010582" r="1.0" style="fill:#ff7700; stroke-width:0" /></svg>