<?xml version="1.0" encoding="UTF-8" standalone="no"?><svg width="634.9206349206349" height="445.7142857142857" viewBox="-10 -10 231.64021164021165 168.57142857142858" xmlns="http://www.w3.org/2000/svg" xmlns:xlink="http://www.w3.org/1999/xlink"><polyline points="0.634920634920635,55.87301587301588 4.021164021164021,56.2962962962963 4.656084656084657,56.2962962962963 5.291005291005291,56.50793650793651 5.9259259259259265,56.50793650793651 6.560846560846561,56.50793650793651 7.195767195767196,56.71957671957672 7.830687830687832,56.93121693121694 8.465608465608467,56.93121693121694 9.100529100529101,56.93121693121694 9.735449735449736,57.142857142857146 10.370370370370372,57.35449735449736 11.005291005291006,57.35449735449736 11.640211640211641,57.35449735449736 12.275132275132275,57.56613756613757 12.910052910052912,57.35449735449736 13.544973544973546,57.56613756613757 14.17989417989418,57.777777777777786 14.814814814814817,57.777777777777786 15.449735449735451,57.777777777777786 16.084656084656086,57.777777777777786 16.71957671957672,57.777777777777786 17.354497354497354,57.777777777777786 17.98941798941799,57.989417989417994 18.624338624338627,57.989417989417994 19.25925925925926,57.989417989417994 19.894179894179896,57.989417989417994 20.529100529100532,57.989417989417994 21.164021164021165,57.989417989417994 21.7989417989418,57.989417989417994 22.433862433862437,57.777777777777786 23.06878306878307,57.777777777777786 23.703703703703706,57.777777777777786 24.338624338624342,57.56613756613757 24.973544973544975,57.56613756613757 25.60846560846561,57.56613756613757 26.243386243386244,57.56613756613757 26.87830687830688,57.56613756613757 27.513227513227516,57.56613756613757 28.14814814814815,57.56613756613757 28.783068783068785,57.56613756613757 29.41798941798942,57.35449735449736 30.052910052910054,57.35449735449736 30.68783068783069,57.35449735449736 31.322751322751326,57.142857142857146 31.95767195767196,57.142857142857146 32.592592592592595,57.142857142857146 33.22751322751323,56.93121693121694 33.86243386243387,56.93121693121694 34.4973544973545,56.93121693121694 35.13227513227513,56.71957671957672 35.76719576719577,56.71957671957672 36.402116402116405,56.71957671957672 37.03703703703704,56.50793650793651 37.67195767195768,56.50793650793651 38.30687830687831,56.2962962962963 38.94179894179894,56.2962962962963 39.57671957671958,56.2962962962963 40.211640211640216,55.87301587301588 40.84656084656085,55.87301587301588 41.48148148148149,55.87301587301588 42.11640211640212,55.661375661375665 42.75132275132275,55.449735449735456 43.386243386243386,55.449735449735456 44.021164021164026,55.449735449735456 44.65608465608466,55.23809523809524 45.29100529100529,55.02645502645503 45.92592592592593,55.02645502645503 46.560846560846564,55.02645502645503 47.195767195767196,55.02645502645503 47.830687830687836,54.81481481481482 48.46560846560847,54.60317460317461 49.1005291005291,54.39153439153439 49.73544973544974,54.179894179894184 50.370370370370374,53.968253968253975 51.00529100529101,53.968253968253975 51.640211640211646,53.75661375661376 52.27513227513228,53.54497354497355 52.91005291005291,53.54497354497355 53.54497354497355,53.333333333333336 54.179894179894184,52.91005291005291 54.81481481481482,52.91005291005291 55.449735449735456,52.6984126984127 56.08465608465609,52.27513227513228 56.71957671957672,52.27513227513228 57.35449735449736,52.06349206349207 57.989417989417994,51.851851851851855 58.62433862433863,51.640211640211646 59.04761904761905,51.21693121693122 59.682539682539684,51.00529100529101 60.31746031746032,50.7936507936508 60.952380952380956,50.58201058201058 61.58730158730159,50.370370370370374 62.22222222222223,49.94708994708995 62.85714285714286,49.94708994708995 63.492063492063494,49.523809523809526 64.12698412698413,49.1005291005291 64.76190476190477,48.88888888888889 65.3968253968254,48.46560846560847 66.03174603174604,48.25396825396826 66.45502645502646,47.830687830687836 67.08994708994709,47.61904761904762 67.72486772486774,47.195767195767196 68.14814814814815,46.77248677248678 68.78306878306879,46.349206349206355 69.41798941798942,45.92592592592593 69.84126984126985,45.50264550264551 70.47619047619048,45.07936507936508 70.8994708994709,44.65608465608466 71.32275132275133,44.232804232804234 71.53439153439155,43.5978835978836 71.95767195767196,43.17460317460318 72.16931216931218,42.539682539682545 72.38095238095238,41.904761904761905 72.5925925925926,41.26984126984127 72.5925925925926,40.63492063492064 72.5925925925926,40.0 72.5925925925926,39.36507936507937 72.38095238095238,38.730158730158735 72.16931216931218,38.095238095238095 71.95767195767196,37.46031746031746 71.53439153439155,36.82539682539683 71.11111111111111,36.19047619047619 70.6878306878307,35.55555555555556 70.26455026455027,35.13227513227513 69.84126984126985,34.70899470899471 69.20634920634922,34.28571428571429 68.57142857142858,33.86243386243387 67.93650793650794,33.43915343915344 67.3015873015873,33.01587301587302 66.66666666666667,32.592592592592595 66.03174603174604,32.38095238095239 65.3968253968254,31.95767195767196 64.76190476190477,31.746031746031747 64.12698412698413,31.322751322751326 63.492063492063494,30.899470899470902 62.85714285714286,30.68783068783069 62.22222222222223,30.264550264550266 61.58730158730159,30.052910052910054 60.952380952380956,29.629629629629633 60.31746031746032,29.20634920634921 59.682539682539684,28.994708994708997 59.25925925925927,28.571428571428573 58.62433862433863,28.35978835978836 57.989417989417994,27.93650793650794 57.56613756613757,27.513227513227516 57.142857142857146,27.089947089947092 56.71957671957672,26.666666666666668 56.2962962962963,26.243386243386244 55.87301587301588,25.820105820105823 55.661375661375665,25.185185185185187 55.23809523809524,24.761904761904763 54.81481481481482,24.12698412698413 54.39153439153439,23.492063492063494 53.968253968253975,22.857142857142858 53.75661375661376,22.222222222222225 53.54497354497355,21.58730158730159 53.333333333333336,20.952380952380953 53.12169312169313,20.31746031746032 52.91005291005291,19.682539682539684 52.91005291005291,19.047619047619047 53.12169312169313,18.412698412698415 53.12169312169313,17.77777777777778 53.12169312169313,17.142857142857146 53.333333333333336,16.50793650793651 53.54497354497355,15.873015873015873 53.75661375661376,15.238095238095239 53.968253968253975,14.603174603174605 54.179894179894184,13.96825396825397 54.60317460317461,13.333333333333334 54.81481481481482,12.6984126984127 55.23809523809524,12.275132275132275 55.661375661375665,11.640211640211641 55.87301587301588,11.005291005291006 56.2962962962963,10.582010582010582 56.71957671957672,9.947089947089948 57.142857142857146,9.523809523809524 57.56613756613757,9.100529100529101 57.989417989417994,8.677248677248677 58.41269841269842,8.253968253968255 58.83597883597884,7.830687830687832 59.25925925925927,7.407407407407408 59.682539682539684,6.984126984126985 60.10582010582011,6.560846560846561 60.52910052910053,6.137566137566138 61.16402116402117,5.714285714285714 61.798941798941804,5.502645502645503 62.22222222222223,5.07936507936508 62.85714285714286,4.656084656084657 63.492063492063494,4.444444444444445 64.12698412698413,4.2328042328042335 64.55026455026456,3.8095238095238098 65.18518518518519,3.597883597883598 65.82010582010582,3.3862433862433865 66.24338624338625,2.9629629629629632 66.87830687830689,2.9629629629629632 67.51322751322752,2.53968253968254 68.14814814814815,2.3280423280423284 68.78306878306879,2.1164021164021167 69.41798941798942,1.9047619047619049 70.05291005291006,1.6931216931216932 70.6878306878307,1.4814814814814816 71.32275132275133,1.26984126984127 71.95767195767196,1.0582010582010584 72.5925925925926,1.0582010582010584 73.22751322751323,0.8465608465608466 73.86243386243387,0.634920634920635 74.49735449735451,0.634920634920635 75.13227513227514,0.634920634920635 75.76719576719577,0.4232804232804233 76.4021164021164,0.4232804232804233 77.03703703703704,0.4232804232804233 77.67195767195767,0.4232804232804233 78.30687830687832,0.4232804232804233 78.94179894179895,0.4232804232804233 79.57671957671958,0.4232804232804233 80.21164021164022,0.4232804232804233 80.84656084656085,0.4232804232804233 81.48148148148148,0.4232804232804233 82.11640211640213,0.4232804232804233 82.75132275132276,0.634920634920635 83.3862433862434,0.634920634920635 84.02116402116403,0.8465608465608466 84.65608465608466,1.0582010582010584 85.29100529100529,1.26984126984127 85.92592592592594,1.6931216931216932 86.56084656084657,1.9047619047619049 86.98412698412699,2.53968253968254 87.40740740740742,2.9629629629629632 87.83068783068784,3.3862433862433865 88.04232804232805,4.021164021164021 88.25396825396827,4.656084656084657 88.67724867724868,5.291005291005291 88.67724867724868,5.9259259259259265 88.8888888888889,6.560846560846561 89.1005291005291,7.195767195767196 89.31216931216932,7.830687830687832 89.31216931216932,8.465608465608467 89.52380952380953,9.100529100529101 89.52380952380953,9.735449735449736 89.52380952380953,10.370370370370372 89.73544973544975,11.005291005291006 89.73544973544975,11.640211640211641 89.73544973544975,12.275132275132275 89.73544973544975,12.910052910052912 89.73544973544975,13.544973544973546 89.52380952380953,14.17989417989418 89.52380952380953,14.814814814814817 89.52380952380953,15.449735449735451 89.52380952380953,16.084656084656086 89.52380952380953,16.71957671957672 89.52380952380953,17.354497354497354 89.52380952380953,17.98941798941799 89.52380952380953,18.624338624338627 89.52380952380953,19.25925925925926 89.52380952380953,19.894179894179896 89.52380952380953,20.529100529100532 89.52380952380953,21.164021164021165 89.52380952380953,21.7989417989418 89.73544973544975,22.433862433862437 89.73544973544975,23.06878306878307 89.73544973544975,23.703703703703706 89.73544973544975,24.338624338624342 89.94708994708995,24.973544973544975 89.94708994708995,25.60846560846561 90.15873015873017,26.243386243386244 90.15873015873017,26.87830687830688 90.15873015873017,27.513227513227516 90.37037037037038,28.14814814814815 90.7936507936508,28.571428571428573 91.00529100529101,29.20634920634921 91.21693121693123,29.841269841269842 91.42857142857143,30.476190476190478 91.85185185185186,31.111111111111114 92.27513227513228,31.746031746031747 92.69841269841271,32.16931216931217 93.12169312169313,32.592592592592595 93.54497354497356,33.01587301587302 94.17989417989419,33.22751322751323 94.81481481481482,33.65079365079365 95.44973544973546,34.074074074074076 96.08465608465609,34.28571428571429 96.71957671957672,34.4973544973545 97.35449735449737,34.4973544973545 97.989417989418,34.70899470899471 98.62433862433863,34.920634920634924 99.25925925925927,34.920634920634924 99.8941798941799,34.920634920634924 100.52910052910053,35.13227513227513 101.16402116402116,35.13227513227513 101.79894179894181,35.34391534391535 102.43386243386244,35.34391534391535 103.06878306878308,35.55555555555556 103.70370370370371,35.55555555555556 104.33862433862434,35.55555555555556 104.97354497354497,35.76719576719577 105.60846560846562,35.76719576719577 106.24338624338625,35.76719576719577 106.87830687830689,35.76719576719577 107.51322751322752,35.97883597883598 108.14814814814815,35.97883597883598 108.78306878306879,36.19047619047619 109.41798941798943,36.19047619047619 110.05291005291006,36.19047619047619 110.6878306878307,35.97883597883598 111.32275132275133,35.97883597883598 111.95767195767196,35.97883597883598 112.5925925925926,35.97883597883598 113.22751322751324,35.76719576719577 113.86243386243387,35.76719576719577 114.49735449735451,35.76719576719577 115.13227513227514,35.76719576719577 115.76719576719577,35.76719576719577 116.4021164021164,35.55555555555556 117.03703703703705,35.55555555555556 117.67195767195768,35.55555555555556 118.30687830687832,35.55555555555556 118.94179894179895,35.34391534391535 119.57671957671958,35.34391534391535 120.21164021164022,35.34391534391535 120.84656084656086,35.34391534391535 121.4814814814815,35.34391534391535 122.11640211640213,35.13227513227513 122.75132275132276,35.13227513227513 123.3862433862434,34.920634920634924 124.02116402116403,34.920634920634924 124.65608465608466,34.920634920634924 125.2910052910053,34.920634920634924 125.92592592592594,34.920634920634924 126.34920634920636,34.4973544973545 126.98412698412699,34.4973544973545 127.61904761904763,34.4973544973545 128.25396825396825,34.4973544973545 128.88888888888889,34.28571428571429 129.52380952380955,34.074074074074076 130.15873015873018,34.074074074074076 130.7936507936508,33.86243386243387 131.42857142857144,33.86243386243387 132.06349206349208,33.86243386243387 132.6984126984127,33.86243386243387 133.33333333333334,33.86243386243387 133.96825396825398,33.65079365079365 134.6031746031746,33.65079365079365 135.23809523809524,33.43915343915344 135.87301587301587,33.22751322751323 136.5079365079365,33.22751322751323 137.14285714285717,33.22751322751323 137.7777777777778,33.01587301587302 138.41269841269843,33.01587301587302 139.04761904761907,32.804232804232804 139.6825396825397,32.804232804232804 140.31746031746033,32.592592592592595 140.95238095238096,32.38095238095239 141.5873015873016,32.38095238095239 142.22222222222223,32.16931216931217 142.85714285714286,31.95767195767196 143.4920634920635,32.16931216931217 144.12698412698413,31.95767195767196 144.76190476190476,31.746031746031747 145.39682539682542,31.746031746031747 146.03174603174605,31.53439153439154 146.66666666666669,31.53439153439154 147.30158730158732,31.111111111111114 147.93650793650795,31.111111111111114 148.57142857142858,31.111111111111114 149.20634920634922,30.899470899470902 149.84126984126985,30.68783068783069 150.47619047619048,30.68783068783069 151.11111111111111,30.476190476190478 151.53439153439155,30.052910052910054 152.16931216931218,30.052910052910054 152.8042328042328,30.264550264550266 153.43915343915344,30.052910052910054 153.86243386243387,29.629629629629633 154.4973544973545,29.629629629629633 155.13227513227514,29.41798941798942 155.76719576719577,29.20634920634921 156.4021164021164,28.994708994708997 157.03703703703704,28.994708994708997 160.0,28.14814814814815" style="fill:none; stroke:#cc0000; stroke-width:1.0"  /><polyline points="160.0,28.14814814814815 161.6931216931217,31.111111111111114 161.90476190476193,31.746031746031747 162.32804232804233,32.38095238095239 162.75132275132276,33.01587301587302 162.96296296296296,33.65079365079365 163.3862433862434,34.074074074074076 163.59788359788362,34.70899470899471 164.02116402116403,35.13227513227513 164.44444444444446,35.76719576719577 164.8677248677249,36.402116402116405 165.0793650793651,37.03703703703704 165.50264550264552,37.67195767195768 165.71428571428572,38.30687830687831 166.13756613756615,38.94179894179894 166.34920634920636,39.57671957671958 166.56084656084658,40.211640211640216 166.7724867724868,40.84656084656085 166.984126984127,41.48148148148149 167.19576719576722,42.11640211640212 167.61904761904762,42.75132275132275 167.83068783068785,43.386243386243386 168.04232804232805,44.021164021164026 168.25396825396825,44.65608465608466 168.46560846560848,45.29100529100529 168.67724867724868,45.92592592592593 168.8888888888889,46.560846560846564 169.10052910052912,47.195767195767196 169.31216931216932,47.830687830687836 169.52380952380955,48.46560846560847 169.94708994708995,49.1005291005291 170.15873015873018,49.73544973544974 170.58201058201058,50.370370370370374 170.7936507936508,51.00529100529101 171.21693121693124,51.640211640211646 171.64021164021165,52.06349206349207 172.06349206349208,52.48677248677249 172.4867724867725,52.91005291005291 172.9100529100529,53.333333333333336 173.54497354497354,53.75661375661376 174.1798941798942,53.968253968253975 174.81481481481484,54.39153439153439 175.44973544973547,54.60317460317461 176.0846560846561,54.81481481481482 176.71957671957674,54.81481481481482 177.35449735449737,55.02645502645503 177.989417989418,55.02645502645503 178.62433862433863,55.02645502645503 179.25925925925927,55.02645502645503 179.8941798941799,55.02645502645503 180.52910052910053,54.60317460317461 181.16402116402116,54.60317460317461 181.79894179894183,54.39153439153439 182.43386243386246,54.179894179894184 183.0687830687831,53.75661375661376 183.70370370370372,53.54497354497355 184.12698412698415,53.12169312169313 184.55026455026456,52.6984126984127 185.1851851851852,52.27513227513228 185.60846560846562,51.640211640211646 186.03174603174605,51.21693121693122 186.45502645502646,50.7936507936508 187.08994708994712,50.370370370370374 187.51322751322752,49.94708994708995 187.93650793650795,49.523809523809526 188.57142857142858,49.31216931216932 188.99470899470901,48.88888888888889 189.62962962962965,48.677248677248684 190.26455026455028,48.46560846560847 190.6878306878307,48.042328042328045 191.32275132275134,47.61904761904762 191.95767195767198,47.61904761904762 192.5925925925926,47.195767195767196 193.22751322751324,47.195767195767196 193.65079365079367,46.77248677248678 194.2857142857143,46.77248677248678 194.92063492063494,46.560846560846564 195.55555555555557,46.560846560846564 196.1904761904762,46.560846560846564 196.82539682539684,46.560846560846564 197.46031746031747,46.560846560846564 198.0952380952381,46.560846560846564 198.73015873015873,46.77248677248678 199.36507936507937,46.77248677248678 200.00000000000003,46.98412698412699 200.63492063492066,47.40740740740741 201.2698412698413,47.61904761904762 201.6931216931217,48.042328042328045 202.32804232804233,48.46560846560847 202.962962962963,48.88888888888889 203.59788359788362,49.31216931216932 204.23280423280426,49.73544973544974 204.65608465608466,50.158730158730165 205.29100529100532,50.58201058201058 205.71428571428572,51.00529100529101 206.13756613756615,51.42857142857143 206.56084656084658,51.851851851851855 206.984126984127,52.48677248677249 207.40740740740742,52.91005291005291 207.61904761904765,53.54497354497355 208.04232804232805,54.179894179894184 208.25396825396828,54.81481481481482 208.67724867724868,55.23809523809524 208.8888888888889,55.87301587301588 209.10052910052912,56.50793650793651 209.52380952380955,57.142857142857146 209.73544973544975,57.777777777777786 209.94708994708995,58.41269841269842 210.15873015873018,59.04761904761905 210.37037037037038,59.682539682539684 210.5820105820106,60.31746031746032 210.5820105820106,60.952380952380956 210.7936507936508,61.58730158730159 210.7936507936508,62.22222222222223 210.7936507936508,62.85714285714286 211.005291005291,63.492063492063494 211.005291005291,64.12698412698413 211.005291005291,64.76190476190477 210.7936507936508,65.3968253968254 210.7936507936508,66.03174603174604 210.5820105820106,66.66666666666667 210.15873015873018,67.3015873015873 209.73544973544975,67.72486772486774 209.31216931216932,68.14814814814815 208.8888888888889,68.57142857142858 208.46560846560848,68.994708994709 207.83068783068785,69.20634920634922 207.19576719576722,69.62962962962963 206.56084656084658,69.84126984126985 205.92592592592595,70.05291005291006 205.29100529100532,70.26455026455027 204.65608465608466,70.26455026455027 204.02116402116403,70.26455026455027 203.3862433862434,70.26455026455027 202.75132275132276,70.26455026455027 202.11640211640213,70.26455026455027 201.4814814814815,70.26455026455027 200.84656084656086,70.26455026455027 200.21164021164023,70.26455026455027 199.5767195767196,70.26455026455027 198.94179894179896,70.47619047619048 198.30687830687833,70.47619047619048 197.6719576719577,70.47619047619048 197.03703703703704,70.47619047619048 196.4021164021164,70.47619047619048 195.76719576719577,70.47619047619048 195.13227513227514,70.6878306878307 194.4973544973545,70.6878306878307 193.86243386243387,70.47619047619048 193.22751322751324,70.6878306878307 192.5925925925926,70.6878306878307 191.95767195767198,70.6878306878307 191.32275132275134,70.47619047619048 190.6878306878307,70.47619047619048 190.05291005291008,70.47619047619048 189.41798941798945,70.47619047619048 188.78306878306879,70.47619047619048 188.14814814814815,70.6878306878307 187.51322751322752,70.6878306878307 186.8783068783069,70.6878306878307 186.24338624338625,70.6878306878307 185.60846560846562,70.8994708994709 184.973544973545,71.11111111111111 184.33862433862436,71.32275132275133 183.70370370370372,71.53439153439155 183.0687830687831,71.74603174603175 182.43386243386246,72.16931216931218 181.79894179894183,72.5925925925926 181.16402116402116,73.01587301587303 180.74074074074076,73.43915343915344 180.31746031746033,74.07407407407408 179.8941798941799,74.49735449735451 179.4708994708995,75.13227513227514 179.04761904761907,75.76719576719577 178.83597883597884,76.4021164021164 178.62433862433863,77.03703703703704 178.41269841269843,77.67195767195767 178.41269841269843,78.30687830687832 178.2010582010582,78.94179894179895 178.2010582010582,79.57671957671958 177.989417989418,80.21164021164022 177.989417989418,80.84656084656085 177.989417989418,81.48148148148148 177.989417989418,82.11640211640213 177.989417989418,82.75132275132276 177.989417989418,83.3862433862434 177.989417989418,84.02116402116403 178.2010582010582,84.65608465608466 178.2010582010582,85.29100529100529 178.2010582010582,85.92592592592594 178.41269841269843,86.56084656084657 178.41269841269843,87.1957671957672 178.62433862433863,87.83068783068784 178.83597883597884,88.46560846560847 179.04761904761907,89.1005291005291 179.25925925925927,89.73544973544975 179.4708994708995,90.37037037037038 179.6825396825397,91.00529100529101 179.8941798941799,91.64021164021165 180.10582010582013,92.27513227513228 180.31746031746033,92.91005291005291 180.52910052910053,93.54497354497356 180.74074074074076,94.17989417989419 180.95238095238096,94.81481481481482 181.16402116402116,95.44973544973546 181.3756613756614,96.08465608465609 181.5873015873016,96.71957671957672 181.5873015873016,97.35449735449737 182.64550264550266,100.95238095238096" style="fill:none; stroke:#999900; stroke-width:1.0"  /><polyline points="182.64550264550266,100.95238095238096 179.04761904761907,101.5873015873016 178.41269841269843,101.5873015873016 177.7777777777778,101.5873015873016 177.14285714285717,101.79894179894181 176.50793650793653,101.79894179894181 175.87301587301587,101.79894179894181 175.23809523809524,102.01058201058201 174.6031746031746,102.22222222222223 173.96825396825398,102.22222222222223 173.33333333333334,102.43386243386244 172.6984126984127,102.64550264550266 172.06349206349208,102.85714285714286 171.42857142857144,103.06878306878308 170.7936507936508,103.28042328042329 170.15873015873018,103.4920634920635 169.52380952380955,103.70370370370371 168.8888888888889,103.91534391534393 168.25396825396825,104.12698412698414 167.61904761904762,104.33862433862434 166.984126984127,104.55026455026456 166.34920634920636,104.97354497354497 165.71428571428572,105.18518518518519 165.0793650793651,105.60846560846562 164.44444444444446,105.82010582010582 164.02116402116403,106.24338624338625 163.3862433862434,106.45502645502647 162.75132275132276,106.87830687830689 162.11640211640213,107.3015873015873 161.4814814814815,107.72486772486774 160.84656084656086,108.14814814814815 160.21164021164023,108.57142857142858 159.5767195767196,108.994708994709 158.94179894179896,109.41798941798943 158.51851851851853,109.84126984126985 157.8835978835979,110.26455026455027 157.24867724867727,110.6878306878307 156.82539682539684,111.11111111111111 156.4021164021164,111.53439153439155 155.76719576719577,111.95767195767196 155.34391534391534,112.3809523809524 154.92063492063494,112.80423280423281 154.2857142857143,113.22751322751324 153.86243386243387,113.65079365079366 153.43915343915344,114.07407407407408 153.01587301587304,114.49735449735451 152.38095238095238,114.92063492063492 151.95767195767198,115.34391534391536 151.53439153439155,115.76719576719577 151.11111111111111,116.1904761904762 150.6878306878307,116.61375661375662 150.26455026455028,117.03703703703705 149.62962962962965,117.46031746031747 149.20634920634922,117.88359788359789 148.78306878306879,118.30687830687832 148.35978835978838,118.73015873015873 147.93650793650795,119.15343915343917 147.51322751322752,119.57671957671958 146.8783068783069,120.00000000000001 146.45502645502646,120.42328042328043 146.03174603174605,120.84656084656086 145.60846560846562,121.26984126984128 145.1851851851852,121.6931216931217 144.55026455026456,122.11640211640213 144.12698412698413,122.53968253968254 143.70370370370372,122.96296296296298 143.2804232804233,123.3862433862434 142.85714285714286,123.80952380952382 142.43386243386246,124.23280423280424 142.01058201058203,124.65608465608466 141.5873015873016,125.07936507936509 141.16402116402116,125.5026455026455 140.74074074074076,125.92592592592594 140.10582010582013,126.34920634920636 139.6825396825397,126.77248677248679 139.25925925925927,127.1957671957672 138.83597883597884,127.61904761904763 138.41269841269843,128.04232804232805 137.989417989418,128.46560846560848 137.35449735449737,128.88888888888889 136.93121693121694,129.31216931216932 136.5079365079365,129.73544973544975 136.0846560846561,130.15873015873018 135.66137566137567,130.58201058201058 135.23809523809524,131.005291005291 134.6031746031746,131.42857142857144 133.96825396825398,131.85185185185185 133.54497354497354,132.27513227513228 132.9100529100529,132.6984126984127 132.4867724867725,133.12169312169314 132.06349206349208,133.54497354497354 131.64021164021165,133.96825396825398 131.005291005291,134.3915343915344 130.37037037037038,134.81481481481484 129.94708994708995,135.23809523809524 129.31216931216932,135.66137566137567 128.88888888888889,136.0846560846561 128.46560846560848,136.5079365079365 128.04232804232805,136.93121693121694 127.61904761904763,137.35449735449737 126.98412698412699,137.56613756613757 126.56084656084657,137.989417989418 125.92592592592594,138.2010582010582 125.5026455026455,138.62433862433863 124.86772486772487,138.83597883597884 124.44444444444446,139.25925925925927 123.80952380952382,139.6825396825397 123.17460317460318,139.8941798941799 122.53968253968254,140.31746031746033 121.90476190476191,140.52910052910053 121.4814814814815,140.95238095238096 120.84656084656086,141.16402116402116 120.21164021164022,141.5873015873016 119.57671957671958,141.7989417989418 118.94179894179895,142.22222222222223 118.30687830687832,142.64550264550266 117.67195767195768,142.85714285714286 117.03703703703705,142.85714285714286 116.4021164021164,143.2804232804233 115.76719576719577,143.4920634920635 115.13227513227514,143.70370370370372 114.49735449735451,143.91534391534393 113.86243386243387,144.12698412698413 113.22751322751324,144.33862433862436 112.5925925925926,144.33862433862436 111.95767195767196,144.55026455026456 111.32275132275133,144.76190476190476 110.6878306878307,144.76190476190476 110.05291005291006,144.76190476190476 109.41798941798943,144.76190476190476 108.78306878306879,144.973544973545 108.14814814814815,144.973544973545 107.51322751322752,144.76190476190476 106.87830687830689,144.76190476190476 106.24338624338625,144.55026455026456 105.60846560846562,144.33862433862436 104.97354497354497,144.12698412698413 104.33862433862434,143.70370370370372 103.91534391534393,143.2804232804233 103.4920634920635,142.85714285714286 103.06878306878308,142.22222222222223 102.85714285714286,141.5873015873016 102.43386243386244,140.95238095238096 102.22222222222223,140.31746031746033 102.22222222222223,139.6825396825397 102.01058201058201,139.04761904761907 102.01058201058201,138.41269841269843 102.01058201058201,137.7777777777778 102.01058201058201,137.14285714285717 102.01058201058201,136.5079365079365 102.01058201058201,135.87301587301587 102.01058201058201,135.23809523809524 102.22222222222223,134.6031746031746 102.22222222222223,133.96825396825398 102.22222222222223,133.33333333333334 102.43386243386244,132.6984126984127 102.64550264550266,132.06349206349208 102.85714285714286,131.42857142857144 103.28042328042329,130.7936507936508 103.4920634920635,130.15873015873018 103.70370370370371,129.52380952380955 104.12698412698414,128.88888888888889 104.33862433862434,128.25396825396825 104.55026455026456,127.61904761904763 104.97354497354497,127.1957671957672 105.3968253968254,126.56084656084657 105.60846560846562,125.92592592592594 106.03174603174604,125.2910052910053 106.24338624338625,124.65608465608466 106.66666666666667,124.23280423280424 107.0899470899471,123.59788359788361 107.3015873015873,122.96296296296298 107.72486772486774,122.53968253968254 107.93650793650795,121.90476190476191 108.35978835978837,121.26984126984128 108.57142857142858,120.63492063492065 108.994708994709,120.00000000000001 109.20634920634922,119.36507936507937 109.62962962962963,118.73015873015873 109.84126984126985,118.0952380952381 110.05291005291006,117.46031746031747 110.26455026455027,116.82539682539684 110.47619047619048,116.1904761904762 110.6878306878307,115.55555555555557 110.89947089947091,114.92063492063492 110.89947089947091,114.28571428571429 111.11111111111111,113.65079365079366 111.32275132275133,113.01587301587303 111.53439153439155,112.3809523809524 111.53439153439155,111.74603174603176 111.53439153439155,111.11111111111111 111.53439153439155,110.47619047619048 111.53439153439155,109.84126984126985 111.53439153439155,109.20634920634922 111.53439153439155,108.57142857142858 111.32275132275133,107.93650793650795 111.11111111111111,107.3015873015873 110.89947089947091,106.66666666666667 110.47619047619048,106.03174603174604 110.26455026455027,105.3968253968254 109.84126984126985,104.97354497354497 109.41798941798943,104.55026455026456 108.994708994709,104.12698412698414 108.57142857142858,103.4920634920635 107.93650793650795,103.06878306878308 107.3015873015873,102.64550264550266 106.66666666666667,102.22222222222223 106.24338624338625,101.79894179894181 105.60846560846562,101.37566137566138 104.97354497354497,101.16402116402116 104.55026455026456,100.74074074074075 103.91534391534393,100.52910052910053 103.28042328042329,100.10582010582011 102.64550264550266,99.8941798941799 102.22222222222223,99.47089947089948 101.5873015873016,99.25925925925927 100.95238095238096,99.04761904761905 100.31746031746033,98.83597883597885 99.68253968253968,98.62433862433863 99.04761904761905,98.41269841269842 98.41269841269842,98.2010582010582 97.77777777777779,97.989417989418 97.14285714285715,97.77777777777779 96.50793650793652,97.77777777777779 95.87301587301587,97.56613756613757 95.23809523809524,97.56613756613757 94.60317460317461,97.35449735449737 93.96825396825398,97.56613756613757 93.33333333333334,97.56613756613757 92.69841269841271,97.35449735449737 92.06349206349208,97.35449735449737 91.42857142857143,97.35449735449737 90.7936507936508,97.14285714285715 90.15873015873017,97.14285714285715 89.52380952380953,97.14285714285715 88.8888888888889,97.14285714285715 88.25396825396827,97.14285714285715 87.61904761904762,97.14285714285715 86.98412698412699,97.14285714285715 86.34920634920636,97.14285714285715 85.71428571428572,97.35449735449737 85.07936507936509,97.35449735449737 84.44444444444446,97.35449735449737 83.80952380952381,97.56613756613757 83.17460317460318,97.56613756613757 82.53968253968254,97.77777777777779 81.90476190476191,97.77777777777779 81.26984126984128,98.2010582010582 80.63492063492065,98.2010582010582 80.0,98.62433862433863 79.36507936507937,98.83597883597885 78.73015873015873,99.04761904761905 78.0952380952381,99.25925925925927 77.46031746031747,99.68253968253968 76.82539682539684,99.8941798941799 76.19047619047619,100.10582010582011 75.55555555555556,100.52910052910053 74.92063492063492,100.74074074074075 74.49735449735451,101.16402116402116 73.86243386243387,101.5873015873016 73.22751322751323,102.01058201058201 72.5925925925926,102.43386243386244 72.16931216931218,102.85714285714286 71.74603174603175,103.28042328042329 71.32275132275133,103.91534391534393 70.8994708994709,104.33862433862434 70.47619047619048,104.97354497354497 70.26455026455027,105.60846560846562 69.84126984126985,106.03174603174604 69.62962962962963,106.66666666666667 69.41798941798942,107.3015873015873 68.994708994709,107.93650793650795 68.994708994709,108.57142857142858 68.78306878306879,109.20634920634922 68.57142857142858,109.84126984126985 68.35978835978837,110.47619047619048 68.35978835978837,111.11111111111111 68.14814814814815,111.74603174603176 68.14814814814815,112.3809523809524 68.14814814814815,113.01587301587303 68.14814814814815,113.65079365079366 68.14814814814815,114.28571428571429 68.14814814814815,114.92063492063492 68.35978835978837,115.55555555555557 68.35978835978837,116.1904761904762 68.35978835978837,116.82539682539684 68.57142857142858,117.46031746031747 68.78306878306879,118.0952380952381 68.78306878306879,118.73015873015873 68.994708994709,119.36507936507937 69.20634920634922,120.00000000000001 69.62962962962963,120.63492063492065 69.84126984126985,121.26984126984128 70.26455026455027,121.90476190476191 70.6878306878307,122.32804232804234 71.11111111111111,122.96296296296298 71.53439153439155,123.59788359788361 71.95767195767196,124.23280423280424 72.38095238095238,124.65608465608466 72.80423280423281,125.2910052910053 73.22751322751323,125.92592592592594 73.65079365079366,126.56084656084657 74.07407407407408,127.1957671957672 74.49735449735451,127.83068783068784 74.70899470899471,128.46560846560848 75.13227513227514,128.88888888888889 75.34391534391536,129.52380952380955 75.76719576719577,130.15873015873018 75.97883597883599,130.7936507936508 76.19047619047619,131.42857142857144 76.61375661375662,131.85185185185185 76.82539682539684,132.4867724867725 77.03703703703704,133.12169312169314 77.46031746031747,133.75661375661377 77.67195767195767,134.3915343915344 77.88359788359789,135.02645502645504 78.0952380952381,135.66137566137567 78.0952380952381,136.2962962962963 78.30687830687832,136.93121693121694 78.30687830687832,137.56613756613757 78.30687830687832,138.2010582010582 78.30687830687832,138.83597883597884 78.30687830687832,139.47089947089947 78.30687830687832,140.10582010582013 78.30687830687832,140.74074074074076 78.0952380952381,141.3756613756614 77.88359788359789,142.01058201058203 77.67195767195767,142.64550264550266 77.24867724867725,143.2804232804233 76.82539682539684,143.91534391534393 76.4021164021164,144.33862433862436 75.76719576719577,144.76190476190476 75.13227513227514,145.1851851851852 74.49735449735451,145.60846560846562 73.86243386243387,145.82010582010582 73.22751322751323,146.24338624338625 72.5925925925926,146.45502645502646 71.95767195767196,146.66666666666669 71.32275132275133,146.8783068783069 70.6878306878307,147.0899470899471 70.05291005291006,147.30158730158732 69.41798941798942,147.51322751322752 68.78306878306879,147.72486772486775 68.14814814814815,147.72486772486775 67.51322751322752,147.72486772486775 66.87830687830689,147.93650793650795 66.24338624338625,147.93650793650795 65.60846560846561,147.93650793650795 64.97354497354497,147.93650793650795 64.33862433862434,147.93650793650795 63.70370370370371,147.93650793650795 63.06878306878308,148.14814814814815 62.43386243386244,148.14814814814815 61.798941798941804,147.93650793650795 61.16402116402117,147.93650793650795 60.52910052910053,147.93650793650795 59.8941798941799,147.93650793650795 59.25925925925927,147.93650793650795 58.62433862433863,147.93650793650795 57.989417989417994,147.72486772486775 57.35449735449736,147.72486772486775 56.71957671957672,147.51322751322752 56.08465608465609,147.30158730158732 55.449735449735456,147.30158730158732 54.81481481481482,147.0899470899471 54.179894179894184,146.8783068783069 53.54497354497355,146.66666666666669 52.91005291005291,146.66666666666669 52.27513227513228,146.45502645502646 51.640211640211646,146.24338624338625 51.00529100529101,146.03174603174605 50.370370370370374,145.82010582010582 49.73544973544974,145.60846560846562 49.1005291005291,145.39682539682542 48.46560846560847,145.39682539682542 47.830687830687836,145.1851851851852 47.195767195767196,144.973544973545 46.560846560846564,144.76190476190476 45.92592592592593,144.76190476190476 45.29100529100529,144.55026455026456 44.65608465608466,144.33862433862436 44.021164021164026,144.12698412698413 43.386243386243386,144.12698412698413 42.75132275132275,143.91534391534393 42.11640211640212,143.70370370370372 41.48148148148149,143.70370370370372 40.84656084656085,143.4920634920635 40.211640211640216,143.2804232804233 39.57671957671958,143.2804232804233 38.94179894179894,143.0687830687831 38.30687830687831,143.0687830687831 37.67195767195768,142.85714285714286 37.03703703703704,142.85714285714286 36.402116402116405,142.64550264550266 35.76719576719577,142.64550264550266 35.13227513227513,142.43386243386246 34.4973544973545,142.43386243386246 33.86243386243387,142.22222222222223 33.22751322751323,142.22222222222223 32.592592592592595,142.22222222222223 31.95767195767196,142.22222222222223 31.322751322751326,142.01058201058203 30.68783068783069,142.01058201058203 30.052910052910054,142.01058201058203 29.41798941798942,142.01058201058203 28.783068783068785,142.01058201058203 25.185185185185187,141.5873015873016" style="fill:none; stroke:#00aa99; stroke-width:1.0"  /><polyline points="25.185185185185187,141.5873015873016 23.915343915343918,139.25925925925927 23.492063492063494,138.62433862433863 23.280423280423282,137.989417989418 23.06878306878307,137.35449735449737 22.645502645502646,136.71957671957674 22.433862433862437,136.0846560846561 22.222222222222225,135.44973544973547 21.7989417989418,134.81481481481484 21.58730158730159,134.17989417989418 21.164021164021165,133.54497354497354 20.740740740740744,133.12169312169314 20.529100529100532,132.4867724867725 20.105820105820108,131.85185185185185 19.894179894179896,131.21693121693121 19.47089947089947,130.7936507936508 19.25925925925926,130.15873015873018 19.047619047619047,129.52380952380955 18.624338624338627,128.88888888888889 18.412698412698415,128.25396825396825 18.201058201058203,127.61904761904763 17.98941798941799,126.98412698412699 17.77777777777778,126.34920634920636 17.77777777777778,125.71428571428572 17.566137566137566,125.07936507936509 17.354497354497354,124.44444444444446 17.142857142857146,123.80952380952382 17.142857142857146,123.17460317460318 17.142857142857146,122.53968253968254 17.354497354497354,121.90476190476191 17.354497354497354,121.26984126984128 17.77777777777778,120.63492063492065 18.201058201058203,120.00000000000001 18.624338624338627,119.57671957671958 19.047619047619047,119.15343915343917 19.47089947089947,118.73015873015873 20.105820105820108,118.30687830687832 20.740740740740744,118.0952380952381 21.375661375661377,117.88359788359789 22.010582010582013,117.67195767195768 22.645502645502646,117.46031746031747 23.280423280423282,117.46031746031747 23.915343915343918,117.46031746031747 24.55026455026455,117.03703703703705 25.185185185185187,117.03703703703705 25.820105820105823,117.03703703703705 26.455026455026456,117.03703703703705 27.089947089947092,117.24867724867725 27.724867724867728,117.24867724867725 28.35978835978836,117.24867724867725 28.994708994708997,117.24867724867725 29.629629629629633,117.24867724867725 30.264550264550266,117.24867724867725 30.899470899470902,117.24867724867725 31.53439153439154,117.24867724867725 32.16931216931217,117.24867724867725 32.804232804232804,117.24867724867725 33.43915343915344,117.24867724867725 34.074074074074076,117.03703703703705 34.70899470899471,117.03703703703705 35.34391534391535,116.82539682539684 35.97883597883598,116.61375661375662 36.613756613756614,116.4021164021164 37.248677248677254,116.1904761904762 37.883597883597886,115.76719576719577 38.51851851851852,115.55555555555557 39.15343915343916,115.34391534391536 39.57671957671958,114.92063492063492 40.211640211640216,114.49735449735451 40.63492063492064,114.07407407407408 41.26984126984127,113.65079365079366 41.6931216931217,113.22751322751324 42.11640211640212,112.80423280423281 42.539682539682545,112.3809523809524 42.96296296296297,111.74603174603176 43.386243386243386,111.11111111111111 43.5978835978836,110.47619047619048 44.021164021164026,110.05291005291006 44.021164021164026,109.41798941798943 44.232804232804234,108.78306878306879 44.44444444444445,108.14814814814815 44.65608465608466,107.51322751322752 44.65608465608466,106.87830687830689 44.867724867724874,106.24338624338625 44.867724867724874,105.60846560846562 44.867724867724874,104.97354497354497 44.867724867724874,104.33862433862434 45.07936507936508,103.70370370370371 45.07936507936508,103.06878306878308 45.07936507936508,102.43386243386244 45.07936507936508,101.79894179894181 45.07936507936508,101.16402116402116 45.29100529100529,100.52910052910053 45.07936507936508,99.8941798941799 45.07936507936508,99.25925925925927 44.867724867724874,98.62433862433863 44.867724867724874,97.989417989418 44.65608465608466,97.35449735449737 44.65608465608466,96.71957671957672 44.44444444444445,96.08465608465609 44.44444444444445,95.44973544973546 44.232804232804234,94.81481481481482 44.021164021164026,94.17989417989419 43.80952380952381,93.54497354497356 43.5978835978836,92.91005291005291 43.386243386243386,92.27513227513228 42.96296296296297,91.64021164021165 42.75132275132275,91.00529100529101 42.539682539682545,90.37037037037038 42.11640211640212,89.73544973544975 41.904761904761905,89.1005291005291 41.48148148148149,88.67724867724868 41.26984126984127,88.04232804232805 40.84656084656085,87.61904761904762 40.63492063492064,86.98412698412699 40.211640211640216,86.56084656084657 39.78835978835979,86.13756613756614 39.36507936507937,85.5026455026455 38.94179894179894,85.07936507936509 38.51851851851852,84.65608465608466 38.095238095238095,84.23280423280424 37.67195767195768,83.80952380952381 37.03703703703704,83.3862433862434 36.402116402116405,82.96296296296298 35.76719576719577,82.53968253968254 35.13227513227513,82.32804232804233 34.4973544973545,82.11640211640213 33.86243386243387,81.90476190476191 33.22751322751323,81.6931216931217 32.592592592592595,81.48148148148148 31.95767195767196,81.48148148148148 31.322751322751326,81.48148148148148 30.68783068783069,81.48148148148148 30.052910052910054,81.48148148148148 29.41798941798942,81.48148148148148 28.783068783068785,81.6931216931217 28.14814814814815,81.6931216931217 27.513227513227516,81.90476190476191 26.87830687830688,82.11640211640213 26.243386243386244,82.32804232804233 25.60846560846561,82.53968253968254 24.973544973544975,82.75132275132276 24.338624338624342,82.96296296296298 23.915343915343918,83.3862433862434 23.280423280423282,83.80952380952381 22.645502645502646,84.02116402116403 22.222222222222225,84.44444444444446 21.58730158730159,84.65608465608466 21.164021164021165,85.07936507936509 20.529100529100532,85.5026455026455 20.105820105820108,85.92592592592594 19.47089947089947,86.34920634920636 18.83597883597884,86.77248677248677 18.201058201058203,87.1957671957672 17.566137566137566,87.61904761904762 16.931216931216934,88.04232804232805 16.296296296296298,88.25396825396827 15.661375661375663,88.67724867724868 15.026455026455027,88.8888888888889 14.391534391534393,89.1005291005291 13.756613756613758,89.31216931216932 13.121693121693122,89.52380952380953 12.486772486772487,89.73544973544975 11.851851851851853,89.73544973544975 11.216931216931219,89.73544973544975 10.582010582010582,89.52380952380953 9.947089947089948,89.52380952380953 9.312169312169313,89.31216931216932 8.677248677248677,88.8888888888889 8.042328042328043,88.46560846560847 7.407407407407408,88.04232804232805 6.772486772486773,87.61904761904762 6.34920634920635,87.1957671957672 5.9259259259259265,86.77248677248677 5.502645502645503,86.34920634920636 5.07936507936508,85.71428571428572 4.656084656084657,85.29100529100529 4.2328042328042335,84.86772486772487 3.8095238095238098,84.23280423280424 3.3862433862433865,83.80952380952381 2.9629629629629632,83.17460317460318 2.53968253968254,82.53968253968254 2.3280423280423284,81.90476190476191 1.9047619047619049,81.48148148148148 1.6931216931216932,80.84656084656085 1.4814814814814816,80.21164021164022 1.0582010582010584,79.57671957671958 0.8465608465608466,78.94179894179895 0.8465608465608466,78.30687830687832 0.634920634920635,77.67195767195767 0.4232804232804233,77.03703703703704 0.4232804232804233,76.4021164021164 0.21164021164021166,75.76719576719577 0.21164021164021166,75.13227513227514 0.21164021164021166,74.49735449735451 0.21164021164021166,73.86243386243387 0.21164021164021166,73.22751322751323 0.21164021164021166,72.5925925925926 0.21164021164021166,71.95767195767196 0.21164021164021166,71.32275132275133 0.21164021164021166,70.6878306878307 0.21164021164021166,70.05291005291006 0.21164021164021166,69.41798941798942 0.4232804232804233,68.78306878306879 0.4232804232804233,68.14814814814815 0.4232804232804233,67.51322751322752 0.4232804232804233,66.87830687830689 0.4232804232804233,66.24338624338625 0.634920634920635,65.60846560846561 0.634920634920635,64.97354497354497 0.634920634920635,64.33862433862434 0.4232804232804233,63.70370370370371 0.4232804232804233,63.06878306878308 0.634920634920635,62.43386243386244 0.634920634920635,61.798941798941804 0.634920634920635,61.16402116402117 0.634920634920635,60.52910052910053 0.634920634920635,59.8941798941799 0.634920634920635,59.25925925925927 0.634920634920635,55.87301587301588" style="fill:none; stroke:#3300bb; stroke-width:1.0"  /><circle cx="0.634920634920635" cy="55.87301587301588" r="2.0" style="fill:none; stroke:#000000aa; stroke-width:0.25" /><circle cx="160.0" cy="28.14814814814815" r="2.0" style="fill:none; stroke:#000000aa; stroke-width:0.25" /><circle cx="182.64550264550266" cy="100.95238095238096" r="2.0" style="fill:none; stroke:#000000aa; stroke-width:0.25" /><circle cx="25.185185185185187" cy="141.5873015873016" r="2.0" style="fill:none; stroke:#000000aa; stroke-width:0.25" /><circle cx="0.8465608465608466" cy="56.2962962962963" r="2.0" style="fill:none; stroke:#ff3366aa; stroke-width:0.25" /><circle cx="160.0" cy="28.35978835978836" r="2.0" style="fill:none; stroke:#ff3366aa; stroke-width:0.25" /><circle cx="182.22222222222223" cy="100.74074074074075" r="2.0" style="fill:none; stroke:#ff3366aa; stroke-width:0.25" /><circle cx="25.3968253968254" cy="142.01058201058203" r="2.0" style="fill:none; stroke:#ff3366aa; stroke-width:0.25" /><polyline points="12.275132275132275,57.56613756613757 11.640211640211641,57.35449735449736 11.005291005291006,57.35449735449736 10.370370370370372,57.35449735449736 9.735449735449736,57.142857142857146 9.100529100529101,56.93121693121694 8.465608465608467,56.93121693121694 7.830687830687832,56.93121693121694 7.195767195767196,56.71957671957672 6.560846560846561,56.50793650793651 5.9259259259259265,56.50793650793651 5.291005291005291,56.50793650793651 4.656084656084657,56.2962962962963 4.021164021164021,56.2962962962963" style="fill:none; stroke:#001100; stroke-width:1.0" /><polyline points="0.4232804232804233,68.14814814814815 0.4232804232804233,67.51322751322752 0.4232804232804233,66.87830687830689 0.4232804232804233,66.24338624338625 0.634920634920635,65.60846560846561 0.634920634920635,64.97354497354497 0.634920634920635,64.33862433862434 0.4232804232804233,63.70370370370371 0.4232804232804233,63.06878306878308 0.634920634920635,62.43386243386244 0.634920634920635,61.798941798941804 0.634920634920635,61.16402116402117 0.634920634920635,60.52910052910053 0.634920634920635,59.8941798941799 0.634920634920635,59.25925925925927" style="fill:none; stroke:#000011; stroke-width:1.0" /><polyline points="165.71428571428572,38.30687830687831 165.50264550264552,37.67195767195768 165.0793650793651,37.03703703703704 164.8677248677249,36.402116402116405 164.44444444444446,35.76719576719577 164.02116402116403,35.13227513227513 163.59788359788362,34.70899470899471 163.3862433862434,34.074074074074076 162.96296296296296,33.65079365079365 162.75132275132276,33.01587301587302 162.32804232804233,32.38095238095239 161.90476190476193,31.746031746031747 161.6931216931217,31.111111111111114" style="fill:none; stroke:#001100; stroke-width:1.0" /><polyline points="148.57142857142858,31.111111111111114 149.20634920634922,30.899470899470902 149.84126984126985,30.68783068783069 150.47619047619048,30.68783068783069 151.11111111111111,30.476190476190478 151.53439153439155,30.052910052910054 152.16931216931218,30.052910052910054 152.8042328042328,30.264550264550266 153.43915343915344,30.052910052910054 153.86243386243387,29.629629629629633 154.4973544973545,29.629629629629633 155.13227513227514,29.41798941798942 155.76719576719577,29.20634920634921 156.4021164021164,28.994708994708997 157.03703703703704,28.994708994708997" style="fill:none; stroke:#000011; stroke-width:1.0" /><polyline points="170.7936507936508,103.28042328042329 171.42857142857144,103.06878306878308 172.06349206349208,102.85714285714286 172.6984126984127,102.64550264550266 173.33333333333334,102.43386243386244 173.96825396825398,102.22222222222223 174.6031746031746,102.22222222222223 175.23809523809524,102.01058201058201 175.87301587301587,101.79894179894181 176.50793650793653,101.79894179894181 177.14285714285717,101.79894179894181 177.7777777777778,101.5873015873016 178.41269841269843,101.5873015873016 179.04761904761907,101.5873015873016" style="fill:none; stroke:#001100; stroke-width:1.0" /><polyline points="179.25925925925927,89.73544973544975 179.4708994708995,90.37037037037038 179.6825396825397,91.00529100529101 179.8941798941799,91.64021164021165 180.10582010582013,92.27513227513228 180.31746031746033,92.91005291005291 180.52910052910053,93.54497354497356 180.74074074074076,94.17989417989419 180.95238095238096,94.81481481481482 181.16402116402116,95.44973544973546 181.3756613756614,96.08465608465609 181.5873015873016,96.71957671957672 181.5873015873016,97.35449735449737" style="fill:none; stroke:#000011; stroke-width:1.0" /><polyline points="20.105820105820108,131.85185185185185 20.529100529100532,132.4867724867725 20.740740740740744,133.12169312169314 21.164021164021165,133.54497354497354 21.58730158730159,134.17989417989418 21.7989417989418,134.81481481481484 22.222222222222225,135.44973544973547 22.433862433862437,136.0846560846561 22.645502645502646,136.71957671957674 23.06878306878307,137.35449735449737 23.280423280423282,137.989417989418 23.492063492063494,138.62433862433863 23.915343915343918,139.25925925925927" style="fill:none; stroke:#001100; stroke-width:1.0" /><polyline points="37.03703703703704,142.85714285714286 36.402116402116405,142.64550264550266 35.76719576719577,142.64550264550266 35.13227513227513,142.43386243386246 34.4973544973545,142.43386243386246 33.86243386243387,142.22222222222223 33.22751322751323,142.22222222222223 32.592592592592595,142.22222222222223 31.95767195767196,142.22222222222223 31.322751322751326,142.01058201058203 30.68783068783069,142.01058201058203 30.052910052910054,142.01058201058203 29.41798941798942,142.01058201058203 28.783068783068785,142.01058201058203" style="fill:none; stroke:#000011; stroke-width:1.0" /><polyline points="4.021164021164021,56.2962962962963 -16.931216931216934,53.12169312169313" style="fill:none; stroke:#ffaa00; stroke-width:0.4" /><polyline points="0.634920634920635,59.25925925925927 1.0582010582010584,38.095238095238095" style="fill:none; stroke:#aaff00; stroke-width:0.4" /><polyline points="161.6931216931217,31.111111111111114 151.32275132275134,12.6984126984127" style="fill:none; stroke:#ffaa00; stroke-width:0.4" /><polyline points="157.03703703703704,28.994708994708997 177.56613756613757,23.915343915343918" style="fill:none; stroke:#aaff00; stroke-width:0.4" /><polyline points="179.04761904761907,101.5873015873016 199.7883597883598,97.35449735449737" style="fill:none; stroke:#ffaa00; stroke-width:0.4" /><polyline points="181.5873015873016,97.35449735449737 187.72486772486775,117.67195767195768" style="fill:none; stroke:#aaff00; stroke-width:0.4" /><polyline points="23.915343915343918,139.25925925925927 33.65079365079365,158.0952380952381" style="fill:none; stroke:#ffaa00; stroke-width:0.4" /><polyline points="28.783068783068785,142.01058201058203 7.830687830687832,139.8941798941799" style="fill:none; stroke:#aaff00; stroke-width:0.4" /><circle cx="100.10582010582011" cy="78.30687830687832" r="1.0" style="fill:#444444; stroke-width:0" /><circle cx="136.93121693121694" cy="74.49735449735451" r="10.582010582010582" style="fill:#ff770022; stroke-width:0" /><circle cx="136.93121693121694" cy="74.49735449735451" r="1.0" style="fill:#ff7700; stroke-width:0" /></svg>