<?xml version="1.0" encoding="UTF-8" standalone="no"?><svg width="434.92063492063494" height="492.0634920634921" viewBox="-10 -10 164.973544973545 184.02116402116403" xmlns="http://www.w3.org/2000/svg" xmlns:xlink="http://www.w3.org/1999/xlink"><polyline points="49.73544973544974,2.53968253968254 53.333333333333336,2.53968253968254 53.968253968253975,2.53968253968254 54.60317460317461,2.53968253968254 55.23809523809524,2.53968253968254 55.87301587301588,2.53968253968254 56.50793650793651,2.53968253968254 57.142857142857146,2.7513227513227516 57.777777777777786,2.7513227513227516 58.41269841269842,2.7513227513227516 59.04761904761905,2.7513227513227516 59.682539682539684,2.7513227513227516 60.31746031746032,2.7513227513227516 60.952380952380956,2.7513227513227516 61.58730158730159,2.53968253968254 62.22222222222223,2.53968253968254 62.85714285714286,2.53968253968254 63.492063492063494,2.53968253968254 64.12698412698413,2.3280423280423284 64.76190476190477,2.3280423280423284 65.3968253968254,2.3280423280423284 66.03174603174604,2.3280423280423284 66.66666666666667,2.3280423280423284 67.3015873015873,2.1164021164021167 67.93650793650794,2.1164021164021167 68.57142857142858,2.1164021164021167 69.20634920634922,1.9047619047619049 69.84126984126985,1.9047619047619049 70.47619047619048,1.6931216931216932 71.11111111111111,1.6931216931216932 71.74603174603175,1.6931216931216932 72.38095238095238,1.4814814814814816 73.01587301587303,1.4814814814814816 73.65079365079366,1.4814814814814816 74.07407407407408,1.0582010582010584 74.70899470899471,1.26984126984127 75.34391534391536,1.26984126984127 75.97883597883599,1.0582010582010584 76.61375661375662,0.8465608465608466 77.24867724867725,0.8465608465608466 77.88359788359789,0.634920634920635 78.51851851851852,0.634920634920635 79.15343915343917,0.4232804232804233 79.7883597883598,0.4232804232804233 80.42328042328043,0.21164021164021166 81.05820105820106,0.21164021164021166 81.6931216931217,0.21164021164021166 82.32804232804233,0.21164021164021166 82.96296296296298,0.634920634920635 83.59788359788361,0.8465608465608466 84.02116402116403,1.26984126984127 84.65608465608466,1.6931216931216932 85.07936507936509,2.1164021164021167 85.5026455026455,2.7513227513227516 85.92592592592594,3.3862433862433865 86.13756613756614,4.021164021164021 86.34920634920636,4.656084656084657 86.34920634920636,5.291005291005291 86.34920634920636,5.9259259259259265 86.34920634920636,6.560846560846561 86.13756613756614,7.195767195767196 86.13756613756614,7.830687830687832 85.92592592592594,8.465608465608467 85.71428571428572,9.100529100529101 85.5026455026455,9.735449735449736 85.07936507936509,10.370370370370372 84.86772486772487,11.005291005291006 84.44444444444446,11.640211640211641 84.02116402116403,12.275132275132275 84.02116402116403,12.910052910052912 83.80952380952381,13.544973544973546 83.3862433862434,14.17989417989418 83.17460317460318,14.814814814814817 82.96296296296298,15.449735449735451 82.75132275132276,16.084656084656086 82.53968253968254,16.71957671957672 82.53968253968254,17.354497354497354 82.32804232804233,17.98941798941799 82.32804232804233,18.624338624338627 82.11640211640213,19.25925925925926 82.11640211640213,19.894179894179896 82.32804232804233,20.529100529100532 82.32804232804233,21.164021164021165 82.32804232804233,21.7989417989418 82.53968253968254,22.433862433862437 82.75132275132276,23.06878306878307 82.96296296296298,23.703703703703706 83.17460317460318,24.338624338624342 83.59788359788361,24.973544973544975 83.80952380952381,25.60846560846561 84.23280423280424,26.243386243386244 84.65608465608466,26.87830687830688 85.07936507936509,27.301587301587304 85.5026455026455,27.724867724867728 85.92592592592594,28.14814814814815 86.34920634920636,28.571428571428573 86.77248677248677,28.994708994708997 87.40740740740742,29.41798941798942 88.04232804232805,29.841269841269842 88.67724867724868,30.264550264550266 89.31216931216932,30.476190476190478 89.73544973544975,30.899470899470902 90.37037037037038,31.322751322751326 91.00529100529101,31.53439153439154 91.64021164021165,31.95767195767196 92.27513227513228,32.38095238095239 92.91005291005291,32.592592592592595 93.54497354497356,32.804232804232804 94.17989417989419,33.01587301587302 94.81481481481482,33.43915343915344 95.44973544973546,33.43915343915344 96.08465608465609,33.86243386243387 96.71957671957672,34.074074074074076 97.35449735449737,34.28571428571429 97.989417989418,34.28571428571429 98.62433862433863,34.28571428571429 99.25925925925927,34.4973544973545 99.8941798941799,34.70899470899471 100.52910052910053,34.70899470899471 101.16402116402116,34.920634920634924 101.79894179894181,34.920634920634924 102.43386243386244,34.920634920634924 103.06878306878308,34.920634920634924 103.70370370370371,34.920634920634924 104.33862433862434,34.920634920634924 104.97354497354497,35.13227513227513 105.60846560846562,34.920634920634924 106.24338624338625,34.920634920634924 106.87830687830689,34.920634920634924 107.51322751322752,34.70899470899471 108.14814814814815,34.28571428571429 108.78306878306879,33.86243386243387 109.20634920634922,33.43915343915344 109.62962962962963,33.01587301587302 109.84126984126985,32.38095238095239 110.26455026455027,31.95767195767196 110.47619047619048,31.322751322751326 110.89947089947091,30.899470899470902 111.11111111111111,30.264550264550266 111.32275132275133,29.629629629629633 111.53439153439155,28.994708994708997 111.74603174603176,28.35978835978836 111.95767195767196,27.724867724867728 112.16931216931218,27.089947089947092 112.16931216931218,26.455026455026456 112.3809523809524,25.820105820105823 112.3809523809524,25.185185185185187 112.3809523809524,24.55026455026455 112.3809523809524,23.915343915343918 112.3809523809524,23.280423280423282 112.3809523809524,22.645502645502646 112.3809523809524,22.010582010582013 112.16931216931218,21.375661375661377 112.16931216931218,20.740740740740744 111.95767195767196,20.105820105820108 111.74603174603176,19.47089947089947 111.53439153439155,18.83597883597884 111.32275132275133,18.201058201058203 111.11111111111111,17.566137566137566 110.89947089947091,16.931216931216934 110.6878306878307,16.296296296296298 110.47619047619048,15.661375661375663 110.26455026455027,15.026455026455027 110.05291005291006,14.391534391534393 109.84126984126985,13.756613756613758 109.84126984126985,13.121693121693122 109.84126984126985,12.486772486772487 109.84126984126985,11.851851851851853 109.84126984126985,11.216931216931219 109.84126984126985,10.582010582010582 110.05291005291006,9.947089947089948 110.26455026455027,9.312169312169313 110.6878306878307,8.88888888888889 111.11111111111111,8.253968253968255 111.53439153439155,7.830687830687832 112.16931216931218,7.407407407407408 112.5925925925926,6.984126984126985 113.01587301587303,6.560846560846561 113.65079365079366,6.772486772486773 114.28571428571429,6.560846560846561 114.92063492063492,6.34920634920635 115.55555555555557,6.34920634920635 116.1904761904762,6.34920634920635 116.82539682539684,6.560846560846561 117.46031746031747,6.984126984126985 118.0952380952381,6.984126984126985 118.51851851851853,7.407407407407408 119.15343915343917,7.407407407407408 119.7883597883598,7.6190476190476195 120.42328042328043,7.830687830687832 121.05820105820106,8.253968253968255 121.6931216931217,8.465608465608467 122.32804232804234,8.677248677248677 122.75132275132276,9.100529100529101 123.3862433862434,9.312169312169313 123.80952380952382,9.735449735449736 124.44444444444446,9.947089947089948 125.07936507936509,10.370370370370372 125.71428571428572,10.793650793650794 126.34920634920636,11.216931216931219 126.98412698412699,11.640211640211641 127.61904761904763,11.851851851851853 128.25396825396825,12.275132275132275 128.67724867724868,12.6984126984127 129.31216931216932,13.121693121693122 129.94708994708995,13.333333333333334 130.58201058201058,13.756613756613758 131.21693121693121,14.17989417989418 131.85185185185185,14.603174603174605 132.4867724867725,14.814814814814817 132.9100529100529,15.238095238095239 133.54497354497354,15.449735449735451 134.17989417989418,15.661375661375663 134.81481481481484,15.873015873015873 135.23809523809524,16.296296296296298 135.87301587301587,16.50793650793651 136.5079365079365,16.71957671957672 137.14285714285717,17.142857142857146 137.7777777777778,17.354497354497354 138.41269841269843,17.566137566137566 139.04761904761907,17.77777777777778 139.6825396825397,17.98941798941799 140.31746031746033,18.201058201058203 140.95238095238096,18.412698412698415 141.5873015873016,18.624338624338627 144.55026455026456,19.894179894179896" style="fill:none; stroke:#cc0000; stroke-width:1.0"  /><polyline points="144.55026455026456,19.894179894179896 144.12698412698413,22.857142857142858 144.12698412698413,23.492063492063494 143.91534391534393,24.12698412698413 143.91534391534393,24.761904761904763 143.70370370370372,25.3968253968254 143.70370370370372,26.031746031746035 143.70370370370372,26.666666666666668 143.4920634920635,27.301587301587304 143.2804232804233,27.93650793650794 143.2804232804233,28.571428571428573 143.2804232804233,29.20634920634921 143.2804232804233,29.841269841269842 143.0687830687831,30.476190476190478 142.85714285714286,31.111111111111114 142.85714285714286,31.746031746031747 142.85714285714286,32.38095238095239 142.85714285714286,33.01587301587302 142.85714285714286,33.65079365079365 142.85714285714286,34.28571428571429 142.85714285714286,34.920634920634924 142.64550264550266,35.55555555555556 142.64550264550266,36.19047619047619 142.64550264550266,36.82539682539683 142.43386243386246,37.46031746031746 142.43386243386246,38.095238095238095 142.43386243386246,38.730158730158735 142.43386243386246,39.36507936507937 142.22222222222223,40.0 142.22222222222223,40.63492063492064 142.22222222222223,41.26984126984127 142.22222222222223,41.904761904761905 142.22222222222223,42.539682539682545 142.01058201058203,43.17460317460318 142.01058201058203,43.80952380952381 142.01058201058203,44.44444444444445 142.01058201058203,45.07936507936508 141.7989417989418,45.714285714285715 141.7989417989418,46.349206349206355 141.7989417989418,46.98412698412699 141.7989417989418,47.61904761904762 141.7989417989418,48.25396825396826 141.7989417989418,48.88888888888889 141.5873015873016,49.523809523809526 141.5873015873016,50.158730158730165 141.5873015873016,50.7936507936508 141.5873015873016,51.42857142857143 141.3756613756614,52.06349206349207 141.3756613756614,52.6984126984127 141.3756613756614,53.333333333333336 141.3756613756614,53.968253968253975 141.16402116402116,54.60317460317461 141.16402116402116,55.23809523809524 141.16402116402116,55.87301587301588 140.95238095238096,56.50793650793651 141.16402116402116,57.142857142857146 140.95238095238096,57.777777777777786 140.74074074074076,58.41269841269842 140.74074074074076,59.04761904761905 140.52910052910053,59.682539682539684 140.10582010582013,60.31746031746032 139.8941798941799,60.952380952380956 139.6825396825397,61.58730158730159 139.25925925925927,62.01058201058201 138.83597883597884,62.43386243386244 138.2010582010582,62.85714285714286 137.56613756613757,63.06878306878308 136.93121693121694,63.280423280423285 136.2962962962963,63.492063492063494 135.66137566137567,63.492063492063494 135.02645502645504,63.70370370370371 134.3915343915344,63.70370370370371 133.75661375661377,63.492063492063494 133.12169312169314,63.492063492063494 132.4867724867725,63.280423280423285 131.85185185185185,63.280423280423285 131.21693121693121,63.06878306878308 130.58201058201058,62.85714285714286 129.94708994708995,62.43386243386244 129.31216931216932,62.22222222222223 128.67724867724868,62.01058201058201 128.25396825396825,61.58730158730159 127.61904761904763,61.37566137566138 126.98412698412699,60.952380952380956 126.34920634920636,60.74074074074075 125.92592592592594,60.31746031746032 125.2910052910053,60.10582010582011 124.65608465608466,59.8941798941799 124.02116402116403,59.470899470899475 123.3862433862434,59.25925925925927 122.75132275132276,59.04761904761905 122.11640211640213,58.83597883597884 121.4814814814815,58.62433862433863 120.84656084656086,58.41269841269842 120.21164021164022,58.2010582010582 119.57671957671958,58.2010582010582 118.94179894179895,57.989417989417994 118.30687830687832,57.989417989417994 117.67195767195768,57.989417989417994 117.03703703703705,57.989417989417994 116.4021164021164,57.989417989417994 115.76719576719577,58.2010582010582 115.13227513227514,58.2010582010582 114.49735449735451,58.41269841269842 113.86243386243387,58.83597883597884 113.22751322751324,59.04761904761905 112.5925925925926,59.470899470899475 112.16931216931218,59.8941798941799 111.53439153439155,60.31746031746032 111.11111111111111,60.74074074074075 110.6878306878307,61.37566137566138 110.26455026455027,61.798941798941804 109.84126984126985,62.22222222222223 109.41798941798943,62.85714285714286 109.20634920634922,63.492063492063494 108.78306878306879,64.12698412698413 108.57142857142858,64.76190476190477 108.14814814814815,65.3968253968254 107.93650793650795,66.03174603174604 107.72486772486774,66.66666666666667 107.51322751322752,67.3015873015873 107.51322751322752,67.93650793650794 107.3015873015873,68.57142857142858 107.0899470899471,69.20634920634922 107.0899470899471,69.84126984126985 106.87830687830689,70.47619047619048 106.87830687830689,71.11111111111111 106.87830687830689,71.74603174603175 106.87830687830689,72.38095238095238 106.87830687830689,73.01587301587303 107.0899470899471,73.65079365079366 107.0899470899471,74.28571428571429 107.3015873015873,74.92063492063492 107.51322751322752,75.55555555555556 107.72486772486774,76.19047619047619 107.93650793650795,76.82539682539684 108.35978835978837,77.24867724867725 108.78306878306879,77.67195767195767 109.20634920634922,78.30687830687832 109.84126984126985,78.73015873015873 110.26455026455027,79.36507936507937 110.6878306878307,79.7883597883598 111.11111111111111,80.21164021164022 111.53439153439155,80.63492063492065 111.95767195767196,81.05820105820106 112.5925925925926,81.48148148148148 113.01587301587303,81.90476190476191 113.43915343915344,82.32804232804233 114.07407407407408,82.75132275132276 114.70899470899472,83.17460317460318 115.34391534391536,83.3862433862434 115.97883597883599,83.80952380952381 116.61375661375662,84.23280423280424 117.24867724867725,84.44444444444446 117.88359788359789,84.86772486772487 118.51851851851853,85.29100529100529 119.15343915343917,85.71428571428572 119.7883597883598,86.13756613756614 120.42328042328043,86.34920634920636 121.05820105820106,86.56084656084657 121.4814814814815,86.98412698412699 122.11640211640213,87.1957671957672 122.53968253968254,87.61904761904762 123.17460317460318,87.83068783068784 123.80952380952382,88.04232804232805 124.23280423280424,88.46560846560847 124.65608465608466,88.8888888888889 125.2910052910053,89.1005291005291 125.71428571428572,89.52380952380953 126.34920634920636,89.94708994708995 126.98412698412699,90.37037037037038 127.61904761904763,90.58201058201058 128.04232804232805,91.00529100529101 128.46560846560848,91.42857142857143 129.10052910052912,91.85185185185186 129.73544973544975,92.27513227513228 130.15873015873018,92.69841269841271 130.7936507936508,92.91005291005291 131.21693121693121,93.33333333333334 131.85185185185185,93.75661375661376 132.27513227513228,94.17989417989419 132.9100529100529,94.60317460317461 133.33333333333334,95.02645502645504 133.96825396825398,95.44973544973546 134.3915343915344,95.87301587301587 134.81481481481484,96.2962962962963 135.23809523809524,96.71957671957672 135.66137566137567,97.14285714285715 136.0846560846561,97.56613756613757 136.5079365079365,97.989417989418 136.93121693121694,98.62433862433863 137.14285714285717,99.25925925925927 137.35449735449737,99.8941798941799 137.56613756613757,100.52910052910053 137.56613756613757,101.16402116402116 137.56613756613757,101.79894179894181 137.56613756613757,102.43386243386244 137.7777777777778,103.06878306878308 137.7777777777778,103.70370370370371 137.7777777777778,104.33862433862434 137.7777777777778,104.97354497354497 137.56613756613757,105.60846560846562 137.56613756613757,106.24338624338625 137.35449735449737,106.87830687830689 137.35449735449737,107.51322751322752 137.35449735449737,108.14814814814815 137.35449735449737,108.78306878306879 137.14285714285717,109.41798941798943 137.14285714285717,110.05291005291006 137.14285714285717,110.6878306878307 136.93121693121694,111.32275132275133 136.93121693121694,111.95767195767196 136.93121693121694,112.5925925925926 136.71957671957674,113.22751322751324 136.71957671957674,113.86243386243387 136.71957671957674,114.49735449735451 136.5079365079365,115.13227513227514 136.5079365079365,115.76719576719577 136.2962962962963,116.4021164021164 136.2962962962963,117.03703703703705 136.2962962962963,117.67195767195768 136.0846560846561,118.30687830687832 136.0846560846561,118.94179894179895 135.87301587301587,119.57671957671958 135.87301587301587,120.21164021164022 135.66137566137567,120.84656084656086 135.66137566137567,121.4814814814815 135.44973544973547,122.11640211640213 135.44973544973547,122.75132275132276 135.23809523809524,123.3862433862434 135.23809523809524,124.02116402116403 135.02645502645504,124.65608465608466 135.02645502645504,125.2910052910053 134.81481481481484,125.92592592592594 134.81481481481484,126.56084656084657 134.6031746031746,127.1957671957672 134.6031746031746,127.83068783068784 134.3915343915344,128.46560846560848 134.3915343915344,129.10052910052912 134.17989417989418,129.73544973544975 134.17989417989418,130.37037037037038 133.96825396825398,131.005291005291 133.96825396825398,131.64021164021165 133.75661375661377,132.27513227513228 133.54497354497354,132.9100529100529 133.54497354497354,133.54497354497354 133.33333333333334,134.17989417989418 133.33333333333334,134.81481481481484 133.12169312169314,135.44973544973547 132.9100529100529,136.0846560846561 132.9100529100529,136.71957671957674 132.6984126984127,137.35449735449737 132.6984126984127,137.989417989418 132.6984126984127,138.62433862433863 132.4867724867725,139.25925925925927 132.27513227513228,139.8941798941799 132.27513227513228,140.52910052910053 132.06349206349208,141.16402116402116 132.06349206349208,141.7989417989418 131.85185185185185,142.43386243386246 131.64021164021165,143.0687830687831 131.64021164021165,143.70370370370372 131.42857142857144,144.33862433862436 131.42857142857144,144.973544973545 131.21693121693121,145.60846560846562 131.005291005291,146.24338624338625 131.005291005291,146.8783068783069 130.7936507936508,147.51322751322752 130.7936507936508,148.14814814814815 130.15873015873018,151.74603174603175" style="fill:none; stroke:#999900; stroke-width:1.0"  /><polyline points="130.15873015873018,151.74603174603175 126.98412698412699,152.5925925925926 126.34920634920636,152.8042328042328 125.71428571428572,153.01587301587304 125.07936507936509,153.22751322751324 124.44444444444446,153.43915343915344 123.80952380952382,153.43915343915344 123.17460317460318,153.65079365079367 122.53968253968254,153.86243386243387 121.90476190476191,154.07407407407408 121.26984126984128,154.07407407407408 120.63492063492065,154.2857142857143 120.00000000000001,154.4973544973545 119.36507936507937,154.7089947089947 118.73015873015873,154.92063492063494 118.0952380952381,155.13227513227514 117.46031746031747,155.34391534391534 116.82539682539684,155.55555555555557 116.1904761904762,155.76719576719577 115.55555555555557,155.978835978836 114.92063492063492,156.1904761904762 114.28571428571429,156.4021164021164 113.65079365079366,156.61375661375664 113.01587301587303,157.03703703703704 112.3809523809524,157.24867724867727 111.74603174603176,157.46031746031747 111.11111111111111,157.67195767195767 110.47619047619048,157.8835978835979 109.84126984126985,158.30687830687833 109.20634920634922,158.51851851851853 108.78306878306879,158.94179894179896 108.14814814814815,159.15343915343917 107.51322751322752,159.36507936507937 106.87830687830689,159.5767195767196 106.24338624338625,159.7883597883598 105.60846560846562,160.0 104.97354497354497,160.42328042328043 104.33862433862434,160.63492063492066 103.70370370370371,160.84656084656086 103.06878306878308,161.05820105820106 102.43386243386244,161.2698412698413 101.79894179894181,161.6931216931217 101.16402116402116,161.90476190476193 100.52910052910053,161.90476190476193 99.8941798941799,162.11640211640213 99.25925925925927,162.32804232804233 98.62433862433863,162.32804232804233 97.989417989418,162.32804232804233 97.35449735449737,162.53968253968256 96.71957671957672,162.53968253968256 96.08465608465609,162.32804232804233 95.44973544973546,162.32804232804233 94.81481481481482,162.11640211640213 94.17989417989419,161.6931216931217 93.54497354497356,161.2698412698413 93.12169312169313,160.84656084656086 92.69841269841271,160.42328042328043 92.27513227513228,159.7883597883598 92.06349206349208,159.15343915343917 91.85185185185186,158.51851851851853 91.85185185185186,157.8835978835979 91.64021164021165,157.24867724867727 91.64021164021165,156.61375661375664 91.85185185185186,155.978835978836 92.06349206349208,155.34391534391534 92.27513227513228,154.7089947089947 92.4867724867725,154.07407407407408 92.69841269841271,153.43915343915344 93.12169312169313,152.8042328042328 93.33333333333334,152.16931216931218 93.54497354497356,151.53439153439155 93.75661375661376,150.8994708994709 93.96825396825398,150.26455026455028 94.39153439153439,149.62962962962965 94.81481481481482,148.99470899470901 95.02645502645504,148.35978835978838 95.23809523809524,147.72486772486775 95.44973544973546,147.0899470899471 95.66137566137567,146.45502645502646 96.08465608465609,145.82010582010582 96.2962962962963,145.1851851851852 96.50793650793652,144.55026455026456 96.71957671957672,143.91534391534393 97.14285714285715,143.2804232804233 97.35449735449737,142.64550264550266 97.56613756613757,142.01058201058203 97.77777777777779,141.3756613756614 97.989417989418,140.74074074074076 98.2010582010582,140.10582010582013 98.2010582010582,139.47089947089947 98.41269841269842,138.83597883597884 98.41269841269842,138.2010582010582 98.2010582010582,137.56613756613757 98.41269841269842,136.93121693121694 98.2010582010582,136.2962962962963 98.2010582010582,135.66137566137567 98.2010582010582,135.02645502645504 97.989417989418,134.3915343915344 97.77777777777779,133.75661375661377 97.56613756613757,133.12169312169314 97.14285714285715,132.4867724867725 96.93121693121694,131.85185185185185 96.50793650793652,131.42857142857144 96.2962962962963,130.7936507936508 95.87301587301587,130.37037037037038 95.44973544973546,129.94708994708995 95.02645502645504,129.52380952380955 94.60317460317461,129.10052910052912 93.96825396825398,128.67724867724868 93.33333333333334,128.25396825396825 92.69841269841271,127.83068783068784 92.06349206349208,127.61904761904763 91.42857142857143,127.1957671957672 90.7936507936508,126.98412698412699 90.15873015873017,126.77248677248679 89.52380952380953,126.56084656084657 88.8888888888889,126.34920634920636 88.25396825396827,126.34920634920636 87.61904761904762,126.13756613756615 86.98412698412699,125.92592592592594 86.34920634920636,125.71428571428572 85.71428571428572,125.71428571428572 85.07936507936509,125.5026455026455 84.44444444444446,125.5026455026455 83.80952380952381,125.2910052910053 83.17460317460318,125.2910052910053 82.53968253968254,125.07936507936509 81.90476190476191,125.07936507936509 81.26984126984128,125.07936507936509 80.63492063492065,125.07936507936509 80.0,125.07936507936509 79.36507936507937,124.86772486772487 78.73015873015873,124.86772486772487 78.0952380952381,124.86772486772487 77.46031746031747,124.86772486772487 76.82539682539684,124.86772486772487 76.19047619047619,124.86772486772487 75.55555555555556,125.07936507936509 74.92063492063492,125.07936507936509 74.28571428571429,125.07936507936509 73.65079365079366,125.2910052910053 73.01587301587303,125.2910052910053 72.38095238095238,125.5026455026455 71.74603174603175,125.71428571428572 71.11111111111111,125.71428571428572 70.47619047619048,125.92592592592594 69.84126984126985,126.13756613756615 69.20634920634922,126.13756613756615 68.57142857142858,126.34920634920636 67.93650793650794,126.56084656084657 67.3015873015873,126.77248677248679 66.66666666666667,126.98412698412699 66.03174603174604,127.40740740740742 65.3968253968254,127.83068783068784 64.76190476190477,128.25396825396825 64.12698412698413,128.67724867724868 63.70370370370371,129.10052910052912 63.280423280423285,129.52380952380955 62.85714285714286,129.94708994708995 62.43386243386244,130.37037037037038 62.01058201058201,130.7936507936508 61.58730158730159,131.42857142857144 61.16402116402117,132.06349206349208 60.952380952380956,132.6984126984127 60.52910052910053,133.33333333333334 60.31746031746032,133.96825396825398 60.10582010582011,134.6031746031746 59.8941798941799,135.23809523809524 59.682539682539684,135.87301587301587 59.682539682539684,136.5079365079365 59.470899470899475,137.14285714285717 59.682539682539684,137.7777777777778 59.682539682539684,138.41269841269843 59.682539682539684,139.04761904761907 59.682539682539684,139.6825396825397 59.8941798941799,140.31746031746033 59.8941798941799,140.95238095238096 60.10582010582011,141.5873015873016 60.31746031746032,142.22222222222223 60.52910052910053,142.85714285714286 60.74074074074075,143.4920634920635 60.952380952380956,144.12698412698413 61.16402116402117,144.76190476190476 61.37566137566138,145.39682539682542 61.58730158730159,146.03174603174605 61.798941798941804,146.66666666666669 62.01058201058201,147.30158730158732 62.22222222222223,147.93650793650795 62.22222222222223,148.57142857142858 62.43386243386244,149.20634920634922 62.43386243386244,149.84126984126985 62.64550264550265,150.47619047619048 62.85714285714286,151.11111111111111 63.06878306878308,151.74603174603175 63.06878306878308,152.38095238095238 63.280423280423285,153.01587301587304 63.280423280423285,153.65079365079367 63.492063492063494,154.2857142857143 63.70370370370371,154.92063492063494 63.70370370370371,155.55555555555557 63.91534391534392,156.1904761904762 63.91534391534392,156.82539682539684 63.91534391534392,157.46031746031747 63.91534391534392,158.0952380952381 63.91534391534392,158.73015873015873 63.91534391534392,159.36507936507937 63.492063492063494,160.0 63.280423280423285,160.63492063492066 62.85714285714286,161.2698412698413 62.43386243386244,161.90476190476193 62.01058201058201,162.32804232804233 61.58730158730159,162.75132275132276 60.952380952380956,163.1746031746032 60.31746031746032,163.1746031746032 59.682539682539684,163.3862433862434 59.04761904761905,163.59788359788362 58.41269841269842,163.59788359788362 57.777777777777786,163.59788359788362 57.142857142857146,163.3862433862434 56.50793650793651,163.3862433862434 55.87301587301588,163.1746031746032 55.23809523809524,162.75132275132276 54.60317460317461,162.53968253968256 53.968253968253975,162.32804232804233 53.333333333333336,162.11640211640213 52.91005291005291,161.6931216931217 52.27513227513228,161.4814814814815 51.640211640211646,161.2698412698413 51.00529100529101,160.84656084656086 50.370370370370374,160.63492063492066 49.73544973544974,160.42328042328043 49.1005291005291,160.0 48.46560846560847,159.7883597883598 47.830687830687836,159.5767195767196 47.195767195767196,159.15343915343917 46.560846560846564,158.94179894179896 45.92592592592593,158.73015873015873 45.29100529100529,158.30687830687833 44.65608465608466,158.0952380952381 44.021164021164026,157.8835978835979 43.386243386243386,157.46031746031747 42.75132275132275,157.24867724867727 42.11640211640212,157.03703703703704 41.48148148148149,156.61375661375664 40.84656084656085,156.61375661375664 40.211640211640216,156.1904761904762 39.57671957671958,155.978835978836 38.94179894179894,155.978835978836 38.30687830687831,155.76719576719577 37.67195767195768,155.34391534391534 37.03703703703704,155.13227513227514 36.402116402116405,154.92063492063494 35.76719576719577,154.7089947089947 35.13227513227513,154.4973544973545 34.4973544973545,154.2857142857143 33.86243386243387,154.07407407407408 33.22751322751323,153.86243386243387 32.592592592592595,153.65079365079367 31.95767195767196,153.43915343915344 31.322751322751326,153.22751322751324 30.68783068783069,153.01587301587304 30.052910052910054,152.8042328042328 29.41798941798942,152.5925925925926 28.783068783068785,152.38095238095238 28.14814814814815,152.16931216931218 27.513227513227516,151.95767195767198 26.87830687830688,151.95767195767198 26.243386243386244,151.74603174603175 25.60846560846561,151.53439153439155 24.973544973544975,151.32275132275134 24.338624338624342,151.11111111111111 20.31746031746032,149.84126984126985" style="fill:none; stroke:#00aa99; stroke-width:1.0"  /><polyline points="20.31746031746032,149.84126984126985 20.31746031746032,146.8783068783069 20.31746031746032,146.24338624338625 20.31746031746032,145.60846560846562 20.529100529100532,144.973544973545 20.529100529100532,144.33862433862436 20.529100529100532,143.70370370370372 20.529100529100532,143.0687830687831 20.529100529100532,142.43386243386246 20.529100529100532,141.7989417989418 20.529100529100532,141.16402116402116 20.529100529100532,140.52910052910053 20.529100529100532,139.8941798941799 20.529100529100532,139.25925925925927 20.529100529100532,138.62433862433863 20.740740740740744,137.989417989418 20.529100529100532,137.35449735449737 20.529100529100532,136.71957671957674 20.529100529100532,136.0846560846561 20.529100529100532,135.44973544973547 20.740740740740744,134.81481481481484 20.740740740740744,134.17989417989418 20.952380952380953,133.54497354497354 20.952380952380953,132.9100529100529 20.952380952380953,132.27513227513228 21.164021164021165,131.64021164021165 21.164021164021165,131.005291005291 21.375661375661377,130.37037037037038 21.375661375661377,129.73544973544975 21.58730158730159,129.10052910052912 21.58730158730159,128.46560846560848 21.7989417989418,127.83068783068784 22.010582010582013,127.1957671957672 22.010582010582013,126.56084656084657 22.222222222222225,125.92592592592594 22.433862433862437,125.2910052910053 22.433862433862437,124.65608465608466 22.645502645502646,124.02116402116403 22.857142857142858,123.3862433862434 23.06878306878307,122.75132275132276 23.280423280423282,122.11640211640213 23.280423280423282,121.4814814814815 23.492063492063494,120.84656084656086 23.703703703703706,120.21164021164022 23.915343915343918,119.57671957671958 24.12698412698413,118.94179894179895 24.338624338624342,118.30687830687832 24.55026455026455,117.67195767195768 24.761904761904763,117.03703703703705 24.973544973544975,116.4021164021164 25.185185185185187,115.76719576719577 25.3968253968254,115.13227513227514 25.820105820105823,114.49735449735451 26.031746031746035,113.86243386243387 26.243386243386244,113.22751322751324 26.455026455026456,112.5925925925926 26.666666666666668,111.95767195767196 26.87830687830688,111.32275132275133 27.089947089947092,110.6878306878307 27.301587301587304,110.05291005291006 27.724867724867728,109.41798941798943 27.724867724867728,108.78306878306879 27.93650793650794,108.14814814814815 28.14814814814815,107.51322751322752 28.571428571428573,106.87830687830689 28.571428571428573,106.24338624338625 28.783068783068785,105.60846560846562 28.994708994708997,104.97354497354497 29.20634920634921,104.33862433862434 29.41798941798942,103.70370370370371 29.629629629629633,103.06878306878308 29.629629629629633,102.43386243386244 29.841269841269842,101.79894179894181 30.052910052910054,101.16402116402116 30.264550264550266,100.52910052910053 30.476190476190478,99.8941798941799 30.68783068783069,99.25925925925927 30.899470899470902,98.62433862433863 31.111111111111114,97.989417989418 31.322751322751326,97.35449735449737 31.322751322751326,96.71957671957672 31.53439153439154,96.08465608465609 31.746031746031747,95.44973544973546 31.746031746031747,94.81481481481482 31.95767195767196,94.17989417989419 31.95767195767196,93.54497354497356 31.95767195767196,92.91005291005291 32.16931216931217,92.27513227513228 32.16931216931217,91.64021164021165 32.16931216931217,91.00529100529101 32.16931216931217,90.37037037037038 32.16931216931217,89.73544973544975 32.16931216931217,89.1005291005291 32.16931216931217,88.46560846560847 32.16931216931217,87.83068783068784 31.95767195767196,87.1957671957672 31.746031746031747,86.56084656084657 31.53439153439154,85.92592592592594 31.322751322751326,85.29100529100529 31.111111111111114,84.65608465608466 30.68783068783069,84.23280423280424 30.264550264550266,83.80952380952381 29.841269841269842,83.17460317460318 29.20634920634921,82.75132275132276 28.571428571428573,82.32804232804233 27.93650793650794,82.11640211640213 27.301587301587304,81.90476190476191 26.666666666666668,81.6931216931217 26.031746031746035,81.48148148148148 25.3968253968254,81.48148148148148 24.761904761904763,81.26984126984128 24.12698412698413,81.05820105820106 23.492063492063494,81.05820105820106 22.857142857142858,81.05820105820106 22.222222222222225,80.84656084656085 21.58730158730159,80.84656084656085 20.952380952380953,80.84656084656085 20.31746031746032,80.84656084656085 19.682539682539684,80.63492063492065 19.047619047619047,80.63492063492065 18.412698412698415,80.63492063492065 17.77777777777778,80.63492063492065 17.142857142857146,80.63492063492065 16.50793650793651,80.63492063492065 15.873015873015873,80.63492063492065 15.238095238095239,80.63492063492065 14.603174603174605,80.42328042328043 13.96825396825397,80.42328042328043 13.333333333333334,80.42328042328043 12.6984126984127,80.42328042328043 12.063492063492065,80.21164021164022 11.428571428571429,80.21164021164022 10.793650793650794,80.21164021164022 10.15873015873016,80.21164021164022 9.523809523809524,80.0 8.88888888888889,79.7883597883598 8.253968253968255,79.57671957671958 7.6190476190476195,79.36507936507937 6.984126984126985,79.15343915343917 6.34920634920635,78.94179894179895 5.714285714285714,78.73015873015873 5.07936507936508,78.30687830687832 4.444444444444445,77.88359788359789 3.8095238095238098,77.67195767195767 3.3862433862433865,77.24867724867725 2.7513227513227516,76.82539682539684 2.3280423280423284,76.19047619047619 2.1164021164021167,75.55555555555556 1.6931216931216932,75.13227513227514 1.4814814814814816,74.49735449735451 1.26984126984127,73.86243386243387 1.0582010582010584,73.22751322751323 0.8465608465608466,72.5925925925926 0.8465608465608466,71.95767195767196 0.634920634920635,71.32275132275133 0.634920634920635,70.6878306878307 0.634920634920635,70.05291005291006 0.634920634920635,69.41798941798942 0.4232804232804233,68.78306878306879 0.4232804232804233,68.14814814814815 0.21164021164021166,67.51322751322752 0.21164021164021166,66.87830687830689 0.21164021164021166,66.24338624338625 0.21164021164021166,65.60846560846561 0.21164021164021166,64.97354497354497 0.4232804232804233,64.33862433862434 0.4232804232804233,63.70370370370371 0.634920634920635,63.06878306878308 0.8465608465608466,62.43386243386244 0.8465608465608466,61.798941798941804 1.0582010582010584,61.16402116402117 1.26984126984127,60.52910052910053 1.4814814814814816,59.8941798941799 1.9047619047619049,59.25925925925927 2.1164021164021167,58.62433862433863 2.3280423280423284,57.989417989417994 2.7513227513227516,57.35449735449736 2.9629629629629632,56.71957671957672 3.3862433862433865,56.08465608465609 3.597883597883598,55.449735449735456 4.021164021164021,54.81481481481482 4.2328042328042335,54.179894179894184 4.656084656084657,53.54497354497355 5.07936507936508,52.91005291005291 5.502645502645503,52.27513227513228 5.9259259259259265,51.640211640211646 6.34920634920635,51.00529100529101 6.772486772486773,50.370370370370374 7.195767195767196,49.94708994708995 7.6190476190476195,49.31216931216932 8.042328042328043,48.88888888888889 8.465608465608467,48.46560846560847 8.88888888888889,47.830687830687836 9.312169312169313,47.195767195767196 9.735449735449736,46.77248677248678 10.15873015873016,46.349206349206355 10.582010582010582,45.714285714285715 11.005291005291006,45.29100529100529 11.428571428571429,44.867724867724874 11.851851851851853,44.44444444444445 12.275132275132275,44.021164021164026 12.910052910052912,43.5978835978836 13.333333333333334,43.17460317460318 13.756613756613758,42.75132275132275 14.391534391534393,42.32804232804233 15.026455026455027,41.904761904761905 15.661375661375663,41.48148148148149 16.296296296296298,41.26984126984127 16.931216931216934,40.84656084656085 17.566137566137566,40.84656084656085 18.201058201058203,40.63492063492064 18.83597883597884,40.63492063492064 19.47089947089947,40.63492063492064 20.105820105820108,40.63492063492064 20.740740740740744,40.63492063492064 21.375661375661377,40.84656084656085 22.010582010582013,40.84656084656085 22.645502645502646,41.058201058201064 23.06878306878307,41.48148148148149 23.703703703703706,41.6931216931217 24.761904761904763,41.904761904761905 25.3968253968254,42.11640211640212 26.031746031746035,42.32804232804233 26.666666666666668,42.539682539682545 27.301587301587304,42.75132275132275 27.724867724867728,43.17460317460318 28.35978835978836,43.5978835978836 28.994708994708997,44.021164021164026 29.41798941798942,44.44444444444445 30.052910052910054,44.867724867724874 30.476190476190478,45.29100529100529 30.899470899470902,45.714285714285715 31.322751322751326,46.13756613756614 31.746031746031747,46.560846560846564 32.16931216931217,46.98412698412699 32.592592592592595,47.61904761904762 33.01587301587302,48.25396825396826 33.43915343915344,48.88888888888889 33.86243386243387,49.523809523809526 34.074074074074076,50.158730158730165 34.4973544973545,50.58201058201058 34.920634920634924,51.21693121693122 35.34391534391535,51.851851851851855 35.76719576719577,52.48677248677249 36.19047619047619,52.91005291005291 36.613756613756614,53.333333333333336 37.03703703703704,53.75661375661376 37.46031746031746,54.179894179894184 38.095238095238095,54.60317460317461 38.51851851851852,55.02645502645503 39.15343915343916,55.23809523809524 39.78835978835979,55.449735449735456 40.211640211640216,55.87301587301588 40.84656084656085,55.87301587301588 41.48148148148149,56.08465608465609 42.11640211640212,56.2962962962963 42.75132275132275,56.2962962962963 43.386243386243386,56.50793650793651 44.021164021164026,56.2962962962963 44.65608465608466,56.2962962962963 45.29100529100529,56.08465608465609 45.92592592592593,55.661375661375665 46.560846560846564,55.23809523809524 47.195767195767196,54.81481481481482 47.61904761904762,54.179894179894184 48.042328042328045,53.75661375661376 48.46560846560847,53.12169312169313 48.88888888888889,52.48677248677249 48.88888888888889,51.851851851851855 49.1005291005291,51.21693121693122 49.31216931216932,50.58201058201058 49.31216931216932,49.94708994708995 49.31216931216932,49.31216931216932 49.523809523809526,48.677248677248684 49.523809523809526,48.042328042328045 49.31216931216932,47.40740740740741 49.31216931216932,46.77248677248678 49.31216931216932,46.13756613756614 49.31216931216932,45.50264550264551 49.1005291005291,44.867724867724874 49.1005291005291,44.232804232804234 49.1005291005291,43.5978835978836 49.1005291005291,42.96296296296297 49.1005291005291,42.32804232804233 48.88888888888889,41.6931216931217 48.88888888888889,41.058201058201064 48.88888888888889,40.423280423280424 48.88888888888889,39.78835978835979 48.88888888888889,39.15343915343916 48.88888888888889,38.51851851851852 48.677248677248684,37.883597883597886 48.677248677248684,37.248677248677254 48.677248677248684,36.613756613756614 48.677248677248684,35.97883597883598 48.677248677248684,35.34391534391535 48.677248677248684,34.70899470899471 48.677248677248684,34.074074074074076 48.677248677248684,33.43915343915344 48.677248677248684,32.804232804232804 48.46560846560847,32.16931216931217 48.25396825396826,31.53439153439154 48.25396825396826,30.899470899470902 48.25396825396826,30.264550264550266 48.25396825396826,29.629629629629633 48.25396825396826,28.994708994708997 48.25396825396826,28.35978835978836 48.25396825396826,27.724867724867728 48.25396825396826,27.089947089947092 48.25396825396826,26.455026455026456 48.25396825396826,25.820105820105823 48.25396825396826,25.185185185185187 48.25396825396826,24.55026455026455 48.25396825396826,23.915343915343918 48.25396825396826,23.280423280423282 48.25396825396826,22.645502645502646 48.25396825396826,22.010582010582013 48.25396825396826,21.375661375661377 48.25396825396826,20.740740740740744 48.25396825396826,20.105820105820108 48.46560846560847,19.47089947089947 48.46560846560847,18.83597883597884 48.46560846560847,18.201058201058203 48.46560846560847,17.566137566137566 48.677248677248684,16.931216931216934 48.677248677248684,16.296296296296298 48.677248677248684,15.661375661375663 48.88888888888889,15.026455026455027 48.88888888888889,14.391534391534393 48.88888888888889,13.756613756613758 49.1005291005291,13.121693121693122 49.1005291005291,12.486772486772487 49.1005291005291,11.851851851851853 49.31216931216932,11.216931216931219 49.31216931216932,10.582010582010582 49.31216931216932,9.947089947089948 49.31216931216932,9.312169312169313 49.31216931216932,8.677248677248677 49.31216931216932,8.042328042328043 49.31216931216932,7.407407407407408 49.31216931216932,6.772486772486773 49.523809523809526,6.137566137566138 49.73544973544974,2.53968253968254" style="fill:none; stroke:#3300bb; stroke-width:1.0"  /><circle cx="49.73544973544974" cy="2.53968253968254" r="2.0" style="fill:none; stroke:#000000aa; stroke-width:0.25" /><circle cx="144.55026455026456" cy="19.894179894179896" r="2.0" style="fill:none; stroke:#000000aa; stroke-width:0.25" /><circle cx="130.15873015873018" cy="151.74603174603175" r="2.0" style="fill:none; stroke:#000000aa; stroke-width:0.25" /><circle cx="20.31746031746032" cy="149.84126984126985" r="2.0" style="fill:none; stroke:#000000aa; stroke-width:0.25" /><circle cx="50.158730158730165" cy="2.7513227513227516" r="2.0" style="fill:none; stroke:#ff3366aa; stroke-width:0.25" /><circle cx="144.55026455026456" cy="19.682539682539684" r="2.0" style="fill:none; stroke:#ff3366aa; stroke-width:0.25" /><circle cx="129.94708994708995" cy="151.53439153439155" r="2.0" style="fill:none; stroke:#ff3366aa; stroke-width:0.25" /><circle cx="20.952380952380953" cy="150.05291005291005" r="2.0" style="fill:none; stroke:#ff3366aa; stroke-width:0.25" /><polyline points="61.58730158730159,2.53968253968254 60.952380952380956,2.7513227513227516 60.31746031746032,2.7513227513227516 59.682539682539684,2.7513227513227516 59.04761904761905,2.7513227513227516 58.41269841269842,2.7513227513227516 57.777777777777786,2.7513227513227516 57.142857142857146,2.7513227513227516 56.50793650793651,2.53968253968254 55.87301587301588,2.53968253968254 55.23809523809524,2.53968253968254 54.60317460317461,2.53968253968254 53.968253968253975,2.53968253968254 53.333333333333336,2.53968253968254" style="fill:none; stroke:#001100; stroke-width:1.0" /><polyline points="48.88888888888889,14.391534391534393 48.88888888888889,13.756613756613758 49.1005291005291,13.121693121693122 49.1005291005291,12.486772486772487 49.1005291005291,11.851851851851853 49.31216931216932,11.216931216931219 49.31216931216932,10.582010582010582 49.31216931216932,9.947089947089948 49.31216931216932,9.312169312169313 49.31216931216932,8.677248677248677 49.31216931216932,8.042328042328043 49.31216931216932,7.407407407407408 49.31216931216932,6.772486772486773 49.523809523809526,6.137566137566138" style="fill:none; stroke:#000011; stroke-width:1.0" /><polyline points="142.85714285714286,31.111111111111114 143.0687830687831,30.476190476190478 143.2804232804233,29.841269841269842 143.2804232804233,29.20634920634921 143.2804232804233,28.571428571428573 143.2804232804233,27.93650793650794 143.4920634920635,27.301587301587304 143.70370370370372,26.666666666666668 143.70370370370372,26.031746031746035 143.70370370370372,25.3968253968254 143.91534391534393,24.761904761904763 143.91534391534393,24.12698412698413 144.12698412698413,23.492063492063494 144.12698412698413,22.857142857142858" style="fill:none; stroke:#001100; stroke-width:1.0" /><polyline points="133.54497354497354,15.449735449735451 134.17989417989418,15.661375661375663 134.81481481481484,15.873015873015873 135.23809523809524,16.296296296296298 135.87301587301587,16.50793650793651 136.5079365079365,16.71957671957672 137.14285714285717,17.142857142857146 137.7777777777778,17.354497354497354 138.41269841269843,17.566137566137566 139.04761904761907,17.77777777777778 139.6825396825397,17.98941798941799 140.31746031746033,18.201058201058203 140.95238095238096,18.412698412698415 141.5873015873016,18.624338624338627" style="fill:none; stroke:#000011; stroke-width:1.0" /><polyline points="118.73015873015873,154.92063492063494 119.36507936507937,154.7089947089947 120.00000000000001,154.4973544973545 120.63492063492065,154.2857142857143 121.26984126984128,154.07407407407408 121.90476190476191,154.07407407407408 122.53968253968254,153.86243386243387 123.17460317460318,153.65079365079367 123.80952380952382,153.43915343915344 124.44444444444446,153.43915343915344 125.07936507936509,153.22751322751324 125.71428571428572,153.01587301587304 126.34920634920636,152.8042328042328 126.98412698412699,152.5925925925926" style="fill:none; stroke:#001100; stroke-width:1.0" /><polyline points="132.27513227513228,139.8941798941799 132.27513227513228,140.52910052910053 132.06349206349208,141.16402116402116 132.06349206349208,141.7989417989418 131.85185185185185,142.43386243386246 131.64021164021165,143.0687830687831 131.64021164021165,143.70370370370372 131.42857142857144,144.33862433862436 131.42857142857144,144.973544973545 131.21693121693121,145.60846560846562 131.005291005291,146.24338624338625 131.005291005291,146.8783068783069 130.7936507936508,147.51322751322752 130.7936507936508,148.14814814814815" style="fill:none; stroke:#000011; stroke-width:1.0" /><polyline points="20.529100529100532,138.62433862433863 20.529100529100532,139.25925925925927 20.529100529100532,139.8941798941799 20.529100529100532,140.52910052910053 20.529100529100532,141.16402116402116 20.529100529100532,141.7989417989418 20.529100529100532,142.43386243386246 20.529100529100532,143.0687830687831 20.529100529100532,143.70370370370372 20.529100529100532,144.33862433862436 20.529100529100532,144.973544973545 20.31746031746032,145.60846560846562 20.31746031746032,146.24338624338625 20.31746031746032,146.8783068783069" style="fill:none; stroke:#001100; stroke-width:1.0" /><polyline points="31.95767195767196,153.43915343915344 31.322751322751326,153.22751322751324 30.68783068783069,153.01587301587304 30.052910052910054,152.8042328042328 29.41798941798942,152.5925925925926 28.783068783068785,152.38095238095238 28.14814814814815,152.16931216931218 27.513227513227516,151.95767195767198 26.87830687830688,151.95767195767198 26.243386243386244,151.74603174603175 25.60846560846561,151.53439153439155 24.973544973544975,151.32275132275134 24.338624338624342,151.11111111111111" style="fill:none; stroke:#000011; stroke-width:1.0" /><polyline points="53.333333333333336,2.53968253968254 32.16931216931217,2.53968253968254" style="fill:none; stroke:#ffaa00; stroke-width:0.4" /><polyline points="49.523809523809526,6.137566137566138 51.21693121693122,-15.026455026455027" style="fill:none; stroke:#aaff00; stroke-width:0.4" /><polyline points="144.12698412698413,22.857142857142858 147.30158730158732,1.9047619047619049" style="fill:none; stroke:#ffaa00; stroke-width:0.4" /><polyline points="141.5873015873016,18.624338624338627 161.2698412698413,26.455026455026456" style="fill:none; stroke:#aaff00; stroke-width:0.4" /><polyline points="126.98412698412699,152.5925925925926 147.30158730158732,146.8783068783069" style="fill:none; stroke:#ffaa00; stroke-width:0.4" /><polyline points="130.7936507936508,148.14814814814815 126.98412698412699,168.8888888888889" style="fill:none; stroke:#aaff00; stroke-width:0.4" /><polyline points="20.31746031746032,146.8783068783069 19.682539682539684,168.04232804232805" style="fill:none; stroke:#ffaa00; stroke-width:0.4" /><polyline points="24.338624338624342,151.11111111111111 4.021164021164021,144.973544973545" style="fill:none; stroke:#aaff00; stroke-width:0.4" /><circle cx="77.24867724867725" cy="82.53968253968254" r="1.0" style="fill:#444444; stroke-width:0" /><circle cx="69.84126984126985" cy="85.29100529100529" r="10.582010582010582" style="fill:#ff770022; stroke-width:0" /><circle cx="69.84126984126985" cy="85.29100529100529" r="1.0" style="fill:#ff7700; stroke-width:0" /></svg>