<?xml version="1.0" encoding="UTF-8" standalone="no"?><svg width="534.6031746031747" height="524.4444444444445" viewBox="-10 -10 198.2010582010582 194.81481481481484" xmlns="http://www.w3.org/2000/svg" xmlns:xlink="http://www.w3.org/1999/xlink"><polyline points="48.46560846560847,31.111111111111114 51.851851851851855,32.804232804232804 52.48677248677249,33.22751322751323 53.12169312169313,33.43915343915344 53.54497354497355,33.86243386243387 54.179894179894184,34.28571428571429 54.81481481481482,34.4973544973545 55.449735449735456,34.920634920634924 56.08465608465609,35.13227513227513 56.71957671957672,35.55555555555556 57.35449735449736,35.76719576719577 57.989417989417994,36.19047619047619 58.62433862433863,36.402116402116405 59.25925925925927,36.613756613756614 59.8941798941799,36.82539682539683 60.52910052910053,37.03703703703704 61.16402116402117,37.46031746031746 61.798941798941804,37.883597883597886 62.43386243386244,37.883597883597886 63.06878306878308,38.095238095238095 63.70370370370371,38.30687830687831 64.33862433862434,38.51851851851852 64.97354497354497,38.730158730158735 65.60846560846561,38.94179894179894 66.24338624338625,39.15343915343916 66.87830687830689,39.36507936507937 67.51322751322752,39.57671957671958 68.14814814814815,39.57671957671958 68.78306878306879,39.78835978835979 69.41798941798942,40.0 70.05291005291006,40.211640211640216 70.6878306878307,40.423280423280424 71.32275132275133,40.423280423280424 71.95767195767196,40.63492063492064 72.5925925925926,40.84656084656085 73.22751322751323,40.84656084656085 73.86243386243387,41.26984126984127 74.49735449735451,41.26984126984127 75.13227513227514,41.26984126984127 75.76719576719577,41.48148148148149 76.4021164021164,41.48148148148149 77.03703703703704,41.6931216931217 77.67195767195767,41.48148148148149 78.30687830687832,41.48148148148149 78.94179894179895,41.48148148148149 79.57671957671958,41.48148148148149 80.21164021164022,41.48148148148149 80.84656084656085,41.48148148148149 81.48148148148148,41.26984126984127 82.11640211640213,41.058201058201064 82.75132275132276,41.058201058201064 83.3862433862434,40.63492063492064 84.02116402116403,40.63492063492064 84.65608465608466,40.423280423280424 85.29100529100529,40.211640211640216 85.92592592592594,40.0 86.56084656084657,39.57671957671958 87.1957671957672,39.36507936507937 87.83068783068784,39.15343915343916 88.46560846560847,38.730158730158735 89.1005291005291,38.30687830687831 89.73544973544975,37.883597883597886 90.15873015873017,37.46031746031746 90.7936507936508,37.03703703703704 91.21693121693123,36.613756613756614 91.64021164021165,36.19047619047619 92.06349206349208,35.76719576719577 92.4867724867725,35.34391534391535 92.91005291005291,34.70899470899471 93.33333333333334,34.074074074074076 93.75661375661376,33.65079365079365 94.17989417989419,33.01587301587302 94.60317460317461,32.38095238095239 95.02645502645504,31.746031746031747 95.23809523809524,31.111111111111114 95.66137566137567,30.68783068783069 95.87301587301587,30.052910052910054 96.2962962962963,29.41798941798942 96.50793650793652,28.783068783068785 96.93121693121694,28.14814814814815 97.14285714285715,27.513227513227516 97.35449735449737,26.87830687830688 97.35449735449737,26.243386243386244 97.56613756613757,25.60846560846561 97.77777777777779,24.973544973544975 97.77777777777779,24.338624338624342 97.989417989418,23.703703703703706 98.2010582010582,23.06878306878307 98.41269841269842,22.433862433862437 98.41269841269842,21.7989417989418 98.62433862433863,21.164021164021165 98.62433862433863,20.529100529100532 98.83597883597885,19.894179894179896 99.04761904761905,19.25925925925926 99.25925925925927,18.624338624338627 99.25925925925927,17.98941798941799 99.47089947089948,17.354497354497354 99.47089947089948,16.71957671957672 99.68253968253968,16.084656084656086 99.8941798941799,15.449735449735451 100.31746031746033,14.814814814814817 100.52910052910053,14.17989417989418 100.74074074074075,13.544973544973546 100.95238095238096,12.910052910052912 101.37566137566138,12.486772486772487 101.37566137566138,11.851851851851853 101.79894179894181,11.428571428571429 102.22222222222223,10.793650793650794 102.43386243386244,10.15873015873016 102.85714285714286,9.735449735449736 103.28042328042329,9.100529100529101 103.70370370370371,8.465608465608467 104.12698412698414,8.042328042328043 104.55026455026456,7.407407407407408 105.18518518518519,6.984126984126985 105.60846560846562,6.560846560846561 106.03174603174604,6.137566137566138 106.45502645502647,5.714285714285714 107.0899470899471,5.291005291005291 107.72486772486774,4.867724867724868 108.35978835978837,4.444444444444445 108.994708994709,4.2328042328042335 109.41798941798943,3.8095238095238098 110.05291005291006,3.3862433862433865 110.6878306878307,3.174603174603175 111.32275132275133,2.9629629629629632 111.95767195767196,2.53968253968254 112.5925925925926,2.1164021164021167 113.22751322751324,1.6931216931216932 113.86243386243387,1.4814814814814816 114.49735449735451,1.26984126984127 115.13227513227514,1.0582010582010584 115.76719576719577,0.8465608465608466 116.4021164021164,1.0582010582010584 117.03703703703705,0.8465608465608466 117.88359788359789,0.4232804232804233 118.51851851851853,0.634920634920635 119.15343915343917,0.634920634920635 119.7883597883598,0.634920634920635 120.42328042328043,0.634920634920635 121.05820105820106,0.634920634920635 121.6931216931217,0.8465608465608466 122.32804232804234,1.0582010582010584 122.96296296296298,1.26984126984127 123.59788359788361,1.4814814814814816 124.02116402116403,1.9047619047619049 124.65608465608466,2.1164021164021167 125.2910052910053,2.53968253968254 125.92592592592594,2.9629629629629632 126.34920634920636,3.3862433862433865 126.98412698412699,3.8095238095238098 127.40740740740742,4.2328042328042335 127.83068783068784,4.656084656084657 128.25396825396825,5.07936507936508 128.67724867724868,5.502645502645503 129.10052910052912,5.9259259259259265 129.52380952380955,6.560846560846561 129.94708994708995,6.984126984126985 130.37037037037038,7.6190476190476195 130.7936507936508,8.253968253968255 131.21693121693121,8.88888888888889 131.42857142857144,9.523809523809524 131.85185185185185,10.15873015873016 132.06349206349208,10.793650793650794 132.27513227513228,11.428571428571429 132.4867724867725,12.063492063492065 132.6984126984127,12.6984126984127 132.9100529100529,13.333333333333334 133.12169312169314,13.96825396825397 133.12169312169314,14.603174603174605 133.12169312169314,15.238095238095239 133.33333333333334,15.873015873015873 133.33333333333334,16.50793650793651 133.12169312169314,17.142857142857146 133.12169312169314,17.77777777777778 132.9100529100529,18.412698412698415 132.6984126984127,19.047619047619047 132.27513227513228,19.682539682539684 131.85185185185185,20.31746031746032 131.64021164021165,20.952380952380953 131.21693121693121,21.58730158730159 130.7936507936508,22.010582010582013 130.37037037037038,22.645502645502646 129.94708994708995,23.280423280423282 129.52380952380955,23.703703703703706 129.10052910052912,24.338624338624342 128.67724867724868,24.761904761904763 128.25396825396825,25.185185185185187 127.83068783068784,25.60846560846561 127.40740740740742,26.031746031746035 126.98412698412699,26.455026455026456 126.56084656084657,26.87830687830688 126.13756613756615,27.301587301587304 125.71428571428572,27.724867724867728 125.2910052910053,28.14814814814815 124.86772486772487,28.571428571428573 124.44444444444446,28.994708994708997 123.80952380952382,29.41798941798942 123.3862433862434,29.841269841269842 122.96296296296298,30.264550264550266 122.53968253968254,30.68783068783069 122.11640211640213,31.111111111111114 121.6931216931217,31.53439153439154 121.26984126984128,32.16931216931217 120.84656084656086,32.592592592592595 120.42328042328043,33.01587301587302 120.00000000000001,33.43915343915344 119.57671957671958,34.074074074074076 119.15343915343917,34.4973544973545 118.73015873015873,34.920634920634924 118.30687830687832,35.55555555555556 117.88359788359789,35.97883597883598 117.46031746031747,36.402116402116405 117.03703703703705,37.03703703703704 116.61375661375662,37.46031746031746 116.1904761904762,38.095238095238095 115.76719576719577,38.51851851851852 115.34391534391536,39.15343915343916 115.13227513227514,39.78835978835979 114.70899470899472,40.211640211640216 114.28571428571429,40.84656084656085 114.07407407407408,41.48148148148149 113.86243386243387,42.11640211640212 113.65079365079366,42.75132275132275 113.43915343915344,43.386243386243386 113.43915343915344,44.021164021164026 113.43915343915344,44.65608465608466 113.65079365079366,45.29100529100529 113.86243386243387,45.92592592592593 113.86243386243387,46.560846560846564 114.28571428571429,47.195767195767196 114.49735449735451,47.830687830687836 114.92063492063492,48.25396825396826 115.34391534391536,48.677248677248684 115.76719576719577,49.1005291005291 116.1904761904762,49.523809523809526 116.61375661375662,49.94708994708995 117.24867724867725,50.370370370370374 117.88359788359789,50.7936507936508 118.51851851851853,51.21693121693122 119.15343915343917,51.21693121693122 119.7883597883598,51.640211640211646 120.42328042328043,51.851851851851855 121.05820105820106,51.851851851851855 121.6931216931217,51.851851851851855 122.32804232804234,52.06349206349207 122.96296296296298,52.06349206349207 123.59788359788361,52.06349206349207 124.23280423280424,52.27513227513228 124.86772486772487,52.27513227513228 125.5026455026455,52.06349206349207 126.13756613756615,52.06349206349207 126.77248677248679,52.06349206349207 127.40740740740742,52.06349206349207 128.04232804232805,51.851851851851855 128.67724867724868,51.851851851851855 129.31216931216932,51.851851851851855 129.94708994708995,51.851851851851855 130.58201058201058,51.851851851851855 131.21693121693121,51.851851851851855 131.85185185185185,51.851851851851855 132.4867724867725,51.851851851851855 133.12169312169314,51.851851851851855 133.75661375661377,51.851851851851855 134.3915343915344,51.851851851851855 135.02645502645504,51.851851851851855 135.66137566137567,51.851851851851855 136.2962962962963,52.06349206349207 136.93121693121694,51.851851851851855 137.56613756613757,51.851851851851855 138.2010582010582,51.851851851851855 138.83597883597884,51.851851851851855 139.47089947089947,52.06349206349207 140.10582010582013,52.27513227513228 140.74074074074076,52.27513227513228 141.3756613756614,52.27513227513228 142.01058201058203,52.27513227513228 142.64550264550266,52.27513227513228 143.2804232804233,52.27513227513228 143.91534391534393,52.27513227513228 144.33862433862436,52.6984126984127 144.973544973545,52.6984126984127 145.60846560846562,52.6984126984127 146.24338624338625,52.48677248677249 146.8783068783069,52.6984126984127 147.51322751322752,52.48677248677249 148.14814814814815,52.6984126984127 148.78306878306879,52.6984126984127 149.41798941798942,52.6984126984127 150.05291005291005,52.91005291005291 150.6878306878307,52.91005291005291 151.32275132275134,52.91005291005291 151.95767195767198,53.12169312169313 152.5925925925926,53.12169312169313 153.22751322751324,53.333333333333336 153.86243386243387,53.333333333333336 154.4973544973545,53.333333333333336 155.13227513227514,53.333333333333336 155.76719576719577,53.54497354497355 156.4021164021164,53.75661375661376 157.03703703703704,53.968253968253975 157.67195767195767,53.968253968253975 158.30687830687833,54.179894179894184 158.94179894179896,54.179894179894184 159.5767195767196,54.179894179894184 160.21164021164023,54.179894179894184 160.84656084656086,54.39153439153439 161.4814814814815,54.60317460317461 162.11640211640213,54.60317460317461 165.2910052910053,55.02645502645503" style="fill:none; stroke:#cc0000; stroke-width:1.0"  /><polyline points="165.2910052910053,55.02645502645503 163.80952380952382,58.83597883597884 163.59788359788362,59.470899470899475 163.1746031746032,60.10582010582011 162.96296296296296,60.74074074074075 162.75132275132276,61.37566137566138 162.53968253968256,62.01058201058201 162.32804232804233,62.64550264550265 162.11640211640213,63.280423280423285 161.6931216931217,63.91534391534392 161.4814814814815,64.55026455026456 161.2698412698413,65.18518518518519 161.05820105820106,65.82010582010582 160.63492063492066,66.45502645502646 160.42328042328043,67.08994708994709 160.21164021164023,67.72486772486774 159.7883597883598,68.35978835978837 159.5767195767196,68.994708994709 159.36507936507937,69.62962962962963 158.94179894179896,70.26455026455027 158.73015873015873,70.8994708994709 158.51851851851853,71.53439153439155 158.0952380952381,72.16931216931218 157.8835978835979,72.80423280423281 157.67195767195767,73.43915343915344 157.46031746031747,74.07407407407408 157.24867724867727,74.70899470899471 156.82539682539684,75.34391534391536 156.61375661375664,75.97883597883599 156.4021164021164,76.61375661375662 156.1904761904762,77.24867724867725 155.978835978836,77.88359788359789 155.55555555555557,78.51851851851852 155.34391534391534,79.15343915343917 155.13227513227514,79.7883597883598 155.13227513227514,80.42328042328043 154.92063492063494,81.05820105820106 154.7089947089947,81.6931216931217 154.7089947089947,82.32804232804233 154.7089947089947,82.96296296296298 154.4973544973545,83.59788359788361 154.4973544973545,84.23280423280424 154.7089947089947,84.86772486772487 154.92063492063494,85.5026455026455 155.13227513227514,86.13756613756614 155.34391534391534,86.77248677248677 155.76719576719577,87.1957671957672 156.1904761904762,87.61904761904762 156.61375661375664,88.04232804232805 157.03703703703704,88.46560846560847 157.46031746031747,88.8888888888889 158.0952380952381,89.1005291005291 158.73015873015873,89.52380952380953 159.36507936507937,89.94708994708995 160.0,90.15873015873017 160.63492063492066,90.37037037037038 161.05820105820106,90.7936507936508 161.6931216931217,91.00529100529101 162.32804232804233,91.21693121693123 162.96296296296296,91.64021164021165 163.59788359788362,91.64021164021165 164.23280423280426,91.85185185185186 164.8677248677249,92.27513227513228 165.50264550264552,92.4867724867725 166.13756613756615,92.4867724867725 166.7724867724868,92.69841269841271 167.40740740740742,92.91005291005291 168.04232804232805,93.12169312169313 168.67724867724868,93.33333333333334 169.31216931216932,93.54497354497356 169.94708994708995,93.75661375661376 170.58201058201058,93.96825396825398 171.21693121693124,94.17989417989419 171.85185185185188,94.60317460317461 172.4867724867725,94.81481481481482 173.12169312169314,95.23809523809524 173.75661375661377,95.66137566137567 174.3915343915344,96.08465608465609 174.81481481481484,96.50793650793652 175.44973544973547,96.93121693121694 175.87301587301587,97.35449735449737 176.2962962962963,97.77777777777779 176.71957671957674,98.2010582010582 177.14285714285717,98.83597883597885 177.35449735449737,99.47089947089948 177.56613756613757,100.10582010582011 177.56613756613757,100.74074074074075 177.56613756613757,101.37566137566138 177.7777777777778,102.01058201058201 177.7777777777778,102.64550264550266 177.56613756613757,103.28042328042329 177.56613756613757,103.91534391534393 177.35449735449737,104.55026455026456 177.14285714285717,105.18518518518519 176.93121693121694,105.82010582010582 176.71957671957674,106.45502645502647 176.71957671957674,107.0899470899471 176.2962962962963,107.72486772486774 176.0846560846561,108.35978835978837 175.87301587301587,108.994708994709 175.66137566137567,109.62962962962963 175.44973544973547,110.26455026455027 175.23809523809524,110.89947089947091 175.02645502645504,111.53439153439155 174.6031746031746,112.16931216931218 174.3915343915344,112.80423280423281 173.96825396825398,113.43915343915344 173.54497354497354,114.07407407407408 173.33333333333334,114.70899470899472 172.9100529100529,115.34391534391536 172.4867724867725,115.97883597883599 172.06349206349208,116.4021164021164 171.64021164021165,117.03703703703705 171.21693121693124,117.67195767195768 171.005291005291,118.30687830687832 170.58201058201058,118.94179894179895 170.15873015873018,119.36507936507937 169.73544973544975,120.00000000000001 169.31216931216932,120.63492063492065 168.8888888888889,121.05820105820106 168.46560846560848,121.4814814814815 168.04232804232805,121.90476190476191 167.40740740740742,122.32804232804234 166.984126984127,122.75132275132276 166.34920634920636,122.96296296296298 165.71428571428572,123.3862433862434 165.0793650793651,123.3862433862434 164.44444444444446,123.3862433862434 163.80952380952382,123.59788359788361 163.1746031746032,123.59788359788361 162.53968253968256,123.59788359788361 161.90476190476193,123.3862433862434 161.2698412698413,123.17460317460318 160.63492063492066,122.96296296296298 160.0,122.75132275132276 159.5767195767196,122.32804232804234 158.94179894179896,121.90476190476191 158.30687830687833,121.4814814814815 157.67195767195767,121.05820105820106 157.24867724867727,120.63492063492065 156.61375661375664,120.21164021164022 156.1904761904762,119.7883597883598 155.55555555555557,119.36507936507937 155.13227513227514,118.94179894179895 154.4973544973545,118.51851851851853 153.86243386243387,118.0952380952381 153.43915343915344,117.67195767195768 153.01587301587304,117.24867724867725 152.38095238095238,116.82539682539684 151.74603174603175,116.4021164021164 151.32275132275134,115.97883597883599 150.8994708994709,115.55555555555557 150.26455026455028,115.13227513227514 149.84126984126985,114.70899470899472 149.20634920634922,114.28571428571429 148.57142857142858,113.86243386243387 147.93650793650795,113.43915343915344 147.30158730158732,113.22751322751324 146.66666666666669,112.80423280423281 146.03174603174605,112.5925925925926 145.39682539682542,112.16931216931218 144.76190476190476,111.95767195767196 144.12698412698413,111.74603174603176 143.4920634920635,111.53439153439155 142.85714285714286,111.32275132275133 142.22222222222223,111.32275132275133 141.5873015873016,111.32275132275133 140.95238095238096,111.11111111111111 140.31746031746033,111.11111111111111 139.6825396825397,111.11111111111111 139.04761904761907,111.11111111111111 138.41269841269843,111.11111111111111 137.7777777777778,111.32275132275133 137.14285714285717,111.32275132275133 136.5079365079365,111.53439153439155 135.87301587301587,111.74603174603176 135.23809523809524,112.16931216931218 134.6031746031746,112.3809523809524 133.96825396825398,112.80423280423281 133.33333333333334,113.22751322751324 132.6984126984127,113.65079365079366 132.06349206349208,114.07407407407408 131.42857142857144,114.49735449735451 131.005291005291,114.92063492063492 130.37037037037038,115.34391534391536 129.73544973544975,115.76719576719577 129.31216931216932,116.1904761904762 128.67724867724868,116.61375661375662 128.25396825396825,117.03703703703705 127.83068783068784,117.46031746031747 127.1957671957672,117.88359788359789 126.77248677248679,118.30687830687832 126.13756613756615,118.73015873015873 125.71428571428572,119.15343915343917 125.2910052910053,119.57671957671958 124.86772486772487,120.00000000000001 124.44444444444446,120.42328042328043 124.02116402116403,120.84656084656086 123.59788359788361,121.26984126984128 123.17460317460318,121.6931216931217 122.53968253968254,122.11640211640213 122.11640211640213,122.75132275132276 121.6931216931217,123.17460317460318 121.26984126984128,123.59788359788361 120.84656084656086,124.02116402116403 120.42328042328043,124.44444444444446 120.00000000000001,124.86772486772487 119.57671957671958,125.2910052910053 119.15343915343917,125.92592592592594 118.73015873015873,126.34920634920636 118.30687830687832,126.98412698412699 117.88359788359789,127.40740740740742 117.46031746031747,128.04232804232805 117.03703703703705,128.46560846560848 116.61375661375662,128.88888888888889 116.4021164021164,129.52380952380955 115.97883597883599,129.94708994708995 115.55555555555557,130.58201058201058 115.13227513227514,131.21693121693121 114.92063492063492,131.85185185185185 114.49735449735451,132.27513227513228 114.07407407407408,132.9100529100529 113.65079365079366,133.54497354497354 113.22751322751324,134.17989417989418 113.01587301587303,134.81481481481484 112.5925925925926,135.23809523809524 112.3809523809524,135.87301587301587 111.95767195767196,136.5079365079365 111.53439153439155,137.14285714285717 111.32275132275133,137.7777777777778 110.89947089947091,138.41269841269843 110.47619047619048,139.04761904761907 110.26455026455027,139.6825396825397 109.84126984126985,140.31746031746033 109.62962962962963,140.95238095238096 109.20634920634922,141.5873015873016 108.994708994709,142.22222222222223 108.78306878306879,142.85714285714286 108.35978835978837,143.4920634920635 108.14814814814815,144.12698412698413 107.72486772486774,144.76190476190476 107.51322751322752,145.39682539682542 107.0899470899471,146.03174603174605 106.87830687830689,146.66666666666669 106.66666666666667,147.30158730158732 106.45502645502647,147.93650793650795 106.24338624338625,148.57142857142858 106.03174603174604,149.20634920634922 105.82010582010582,149.84126984126985 105.60846560846562,150.47619047619048 105.3968253968254,151.11111111111111 105.18518518518519,151.74603174603175 104.97354497354497,152.38095238095238 104.76190476190477,153.01587301587304 104.55026455026456,153.65079365079367 104.33862433862434,154.2857142857143 104.12698412698414,154.92063492063494 103.28042328042329,157.67195767195767" style="fill:none; stroke:#999900; stroke-width:1.0"  /><polyline points="103.28042328042329,157.67195767195767 100.10582010582011,155.978835978836 99.47089947089948,155.76719576719577 99.04761904761905,155.34391534391534 98.41269841269842,155.13227513227514 97.77777777777779,154.7089947089947 97.14285714285715,154.2857142857143 96.50793650793652,153.86243386243387 95.87301587301587,153.43915343915344 95.23809523809524,153.01587301587304 94.60317460317461,152.8042328042328 93.96825396825398,152.38095238095238 93.33333333333334,152.16931216931218 92.69841269841271,151.74603174603175 92.06349206349208,151.32275132275134 91.42857142857143,150.8994708994709 90.7936507936508,150.6878306878307 90.15873015873017,150.26455026455028 89.52380952380953,149.84126984126985 88.8888888888889,149.62962962962965 88.25396825396827,149.41798941798942 87.61904761904762,148.99470899470901 86.98412698412699,148.78306878306879 86.34920634920636,148.57142857142858 85.71428571428572,148.57142857142858 85.07936507936509,148.35978835978838 84.44444444444446,148.35978835978838 83.80952380952381,148.35978835978838 83.17460317460318,148.35978835978838 82.53968253968254,148.35978835978838 81.90476190476191,148.57142857142858 81.26984126984128,148.78306878306879 80.63492063492065,148.99470899470901 80.0,149.20634920634922 79.36507936507937,149.62962962962965 78.94179894179895,150.05291005291005 78.51851851851852,150.47619047619048 78.0952380952381,151.11111111111111 77.67195767195767,151.53439153439155 77.46031746031747,152.16931216931218 77.03703703703704,152.8042328042328 76.82539682539684,153.43915343915344 76.61375661375662,154.07407407407408 76.4021164021164,154.7089947089947 76.19047619047619,155.34391534391534 75.97883597883599,155.978835978836 75.97883597883599,156.61375661375664 75.97883597883599,157.24867724867727 75.97883597883599,157.8835978835979 75.76719576719577,158.51851851851853 75.76719576719577,159.15343915343917 75.97883597883599,159.7883597883598 75.97883597883599,160.42328042328043 75.97883597883599,161.05820105820106 75.97883597883599,161.6931216931217 75.97883597883599,162.32804232804233 75.97883597883599,162.96296296296296 75.97883597883599,163.59788359788362 75.97883597883599,164.23280423280426 75.97883597883599,164.8677248677249 75.76719576719577,165.50264550264552 75.76719576719577,166.13756613756615 75.76719576719577,166.7724867724868 75.55555555555556,167.40740740740742 75.34391534391536,168.04232804232805 75.34391534391536,168.67724867724868 74.92063492063492,169.31216931216932 74.92063492063492,169.94708994708995 74.49735449735451,170.37037037037038 74.28571428571429,171.005291005291 73.86243386243387,171.42857142857144 73.43915343915344,171.85185185185188 73.01587301587303,172.27513227513228 72.38095238095238,172.6984126984127 71.74603174603175,172.9100529100529 71.11111111111111,173.33333333333334 70.47619047619048,173.54497354497354 69.84126984126985,173.75661375661377 69.20634920634922,173.96825396825398 68.57142857142858,173.96825396825398 67.93650793650794,174.1798941798942 67.3015873015873,174.1798941798942 66.66666666666667,174.1798941798942 66.03174603174604,174.1798941798942 65.3968253968254,174.3915343915344 64.76190476190477,174.1798941798942 64.12698412698413,174.1798941798942 63.492063492063494,174.1798941798942 62.85714285714286,173.96825396825398 62.22222222222223,173.96825396825398 61.58730158730159,173.75661375661377 60.952380952380956,173.75661375661377 60.31746031746032,173.54497354497354 59.682539682539684,173.33333333333334 59.04761904761905,173.33333333333334 58.41269841269842,173.12169312169314 57.777777777777786,172.9100529100529 57.142857142857146,172.6984126984127 56.50793650793651,172.27513227513228 55.87301587301588,172.06349206349208 55.23809523809524,171.85185185185188 54.81481481481482,171.42857142857144 54.179894179894184,171.21693121693124 53.54497354497355,170.7936507936508 52.91005291005291,170.37037037037038 52.27513227513228,169.94708994708995 51.640211640211646,169.73544973544975 51.21693121693122,169.31216931216932 50.7936507936508,168.8888888888889 50.158730158730165,168.46560846560848 49.73544973544974,168.04232804232805 49.31216931216932,167.61904761904762 48.88888888888889,167.19576719576722 48.25396825396826,166.7724867724868 47.61904761904762,166.34920634920636 47.195767195767196,165.71428571428572 46.77248677248678,165.2910052910053 46.349206349206355,164.65608465608466 45.92592592592593,164.02116402116403 45.714285714285715,163.3862433862434 45.714285714285715,162.75132275132276 45.50264550264551,162.11640211640213 45.50264550264551,161.4814814814815 45.50264550264551,160.84656084656086 45.714285714285715,160.21164021164023 45.714285714285715,159.5767195767196 45.92592592592593,158.94179894179896 46.13756613756614,158.30687830687833 46.349206349206355,157.67195767195767 46.560846560846564,157.03703703703704 46.98412698412699,156.4021164021164 47.195767195767196,155.76719576719577 47.61904761904762,155.13227513227514 48.042328042328045,154.4973544973545 48.677248677248684,154.07407407407408 49.1005291005291,153.65079365079367 49.73544973544974,153.22751322751324 50.158730158730165,152.8042328042328 50.58201058201058,152.38095238095238 51.00529100529101,151.95767195767198 51.42857142857143,151.53439153439155 51.851851851851855,151.11111111111111 52.27513227513228,150.6878306878307 52.6984126984127,150.05291005291005 53.12169312169313,149.62962962962965 53.54497354497355,148.99470899470901 53.968253968253975,148.35978835978838 54.179894179894184,147.72486772486775 54.60317460317461,147.0899470899471 54.81481481481482,146.45502645502646 54.81481481481482,145.82010582010582 55.02645502645503,145.1851851851852 55.23809523809524,144.55026455026456 55.23809523809524,143.91534391534393 55.23809523809524,143.2804232804233 55.23809523809524,142.64550264550266 55.23809523809524,142.01058201058203 55.23809523809524,141.3756613756614 55.02645502645503,140.74074074074076 54.60317460317461,140.10582010582013 54.179894179894184,139.47089947089947 53.75661375661376,138.83597883597884 53.333333333333336,138.2010582010582 52.6984126984127,137.7777777777778 52.06349206349207,137.35449735449737 51.42857142857143,136.93121693121694 50.7936507936508,136.71957671957674 50.158730158730165,136.5079365079365 49.523809523809526,136.2962962962963 48.88888888888889,136.0846560846561 48.25396825396826,136.0846560846561 47.61904761904762,136.0846560846561 46.98412698412699,135.87301587301587 46.349206349206355,135.87301587301587 45.714285714285715,135.66137566137567 45.07936507936508,135.66137566137567 44.44444444444445,135.66137566137567 43.80952380952381,135.44973544973547 43.17460317460318,135.44973544973547 42.539682539682545,135.44973544973547 41.904761904761905,135.44973544973547 41.26984126984127,135.23809523809524 40.63492063492064,135.23809523809524 40.0,135.23809523809524 39.36507936507937,135.02645502645504 38.730158730158735,135.02645502645504 38.095238095238095,134.81481481481484 37.46031746031746,134.81481481481484 36.82539682539683,134.81481481481484 36.19047619047619,134.6031746031746 35.55555555555556,134.6031746031746 34.920634920634924,134.6031746031746 34.28571428571429,134.3915343915344 33.65079365079365,134.3915343915344 33.01587301587302,134.3915343915344 32.38095238095239,134.3915343915344 31.746031746031747,134.17989417989418 31.111111111111114,134.17989417989418 30.476190476190478,134.17989417989418 29.841269841269842,133.96825396825398 29.20634920634921,133.96825396825398 28.571428571428573,133.96825396825398 27.93650793650794,133.96825396825398 27.301587301587304,133.75661375661377 26.666666666666668,133.75661375661377 26.031746031746035,133.75661375661377 25.3968253968254,133.75661375661377 24.761904761904763,133.75661375661377 24.12698412698413,133.75661375661377 23.492063492063494,133.54497354497354 22.857142857142858,133.54497354497354 22.222222222222225,133.54497354497354 21.58730158730159,133.54497354497354 20.952380952380953,133.75661375661377 20.31746031746032,133.54497354497354 19.682539682539684,133.75661375661377 19.047619047619047,133.75661375661377 18.412698412698415,133.75661375661377 17.77777777777778,133.75661375661377 17.142857142857146,133.75661375661377 16.50793650793651,133.75661375661377 15.873015873015873,133.75661375661377 15.238095238095239,133.75661375661377 14.603174603174605,133.75661375661377 13.96825396825397,133.75661375661377 13.333333333333334,133.96825396825398 12.6984126984127,133.96825396825398 12.063492063492065,133.96825396825398 11.428571428571429,133.75661375661377 10.793650793650794,133.75661375661377 10.15873015873016,133.75661375661377 9.523809523809524,133.75661375661377 8.88888888888889,133.75661375661377 8.253968253968255,133.75661375661377 7.6190476190476195,133.96825396825398 6.984126984126985,133.75661375661377 6.34920634920635,133.75661375661377 5.714285714285714,133.75661375661377 5.07936507936508,133.75661375661377 4.444444444444445,133.75661375661377 0.21164021164021166,133.54497354497354" style="fill:none; stroke:#00aa99; stroke-width:1.0"  /><polyline points="0.21164021164021166,133.54497354497354 0.4232804232804233,130.58201058201058 0.4232804232804233,129.94708994708995 0.4232804232804233,129.31216931216932 0.4232804232804233,128.67724867724868 0.4232804232804233,128.04232804232805 0.4232804232804233,127.40740740740742 0.4232804232804233,126.77248677248679 0.4232804232804233,126.13756613756615 0.634920634920635,125.5026455026455 0.634920634920635,124.86772486772487 0.634920634920635,124.23280423280424 0.634920634920635,123.59788359788361 0.634920634920635,122.96296296296298 0.634920634920635,122.32804232804234 0.8465608465608466,121.6931216931217 0.8465608465608466,121.05820105820106 0.8465608465608466,120.42328042328043 0.8465608465608466,119.7883597883598 1.0582010582010584,119.15343915343917 1.0582010582010584,118.51851851851853 1.0582010582010584,117.88359788359789 1.26984126984127,117.24867724867725 1.26984126984127,116.61375661375662 1.4814814814814816,115.97883597883599 1.4814814814814816,115.34391534391536 1.6931216931216932,114.70899470899472 1.6931216931216932,114.07407407407408 1.9047619047619049,113.43915343915344 2.1164021164021167,112.80423280423281 2.1164021164021167,112.16931216931218 2.3280423280423284,111.53439153439155 2.53968253968254,110.89947089947091 2.7513227513227516,110.26455026455027 2.9629629629629632,109.62962962962963 2.9629629629629632,108.994708994709 3.174603174603175,108.35978835978837 3.3862433862433865,107.72486772486774 3.597883597883598,107.0899470899471 3.8095238095238098,106.45502645502647 4.021164021164021,105.82010582010582 4.2328042328042335,105.18518518518519 4.444444444444445,104.55026455026456 4.656084656084657,103.91534391534393 5.07936507936508,103.28042328042329 5.291005291005291,102.64550264550266 5.502645502645503,102.01058201058201 5.714285714285714,101.37566137566138 6.137566137566138,100.74074074074075 6.34920634920635,100.10582010582011 6.560846560846561,99.47089947089948 6.984126984126985,98.83597883597885 7.195767195767196,98.2010582010582 7.6190476190476195,97.56613756613757 7.830687830687832,96.93121693121694 7.830687830687832,96.2962962962963 8.253968253968255,95.87301587301587 8.465608465608467,95.23809523809524 8.88888888888889,94.60317460317461 9.312169312169313,93.96825396825398 9.735449735449736,93.33333333333334 10.15873015873016,92.91005291005291 10.582010582010582,92.4867724867725 11.216931216931219,92.27513227513228 11.640211640211641,91.85185185185186 12.275132275132275,91.64021164021165 12.910052910052912,91.64021164021165 13.333333333333334,91.21693121693123 13.96825396825397,91.21693121693123 14.603174603174605,91.42857142857143 15.238095238095239,91.42857142857143 15.873015873015873,91.42857142857143 16.50793650793651,91.64021164021165 17.142857142857146,91.85185185185186 17.77777777777778,92.27513227513228 18.412698412698415,92.4867724867725 18.83597883597884,92.91005291005291 19.47089947089947,93.33333333333334 19.894179894179896,93.75661375661376 20.529100529100532,94.17989417989419 20.952380952380953,94.60317460317461 21.375661375661377,95.02645502645504 21.7989417989418,95.44973544973546 22.222222222222225,96.08465608465609 22.645502645502646,96.71957671957672 23.280423280423282,97.14285714285715 23.703703703703706,97.77777777777779 24.12698412698413,98.2010582010582 24.55026455026455,98.83597883597885 24.973544973544975,99.25925925925927 25.3968253968254,99.8941798941799 25.820105820105823,100.52910052910053 26.243386243386244,101.16402116402116 26.666666666666668,101.5873015873016 27.089947089947092,102.01058201058201 27.513227513227516,102.43386243386244 27.93650793650794,103.06878306878308 28.571428571428573,103.4920634920635 29.20634920634921,103.91534391534393 29.629629629629633,104.33862433862434 30.264550264550266,104.55026455026456 30.68783068783069,104.97354497354497 31.322751322751326,105.18518518518519 31.95767195767196,105.60846560846562 32.38095238095239,106.03174603174604 33.01587301587302,106.24338624338625 33.65079365079365,106.45502645502647 34.28571428571429,106.66666666666667 34.920634920634924,106.87830687830689 35.55555555555556,107.0899470899471 36.19047619047619,107.0899470899471 36.82539682539683,107.3015873015873 37.46031746031746,107.3015873015873 38.095238095238095,107.0899470899471 38.730158730158735,107.3015873015873 39.36507936507937,107.3015873015873 40.0,106.87830687830689 40.63492063492064,106.87830687830689 41.26984126984127,107.0899470899471 41.904761904761905,106.87830687830689 42.32804232804233,106.45502645502647 42.96296296296297,106.24338624338625 43.5978835978836,106.24338624338625 44.021164021164026,105.82010582010582 44.65608465608466,105.60846560846562 45.29100529100529,105.3968253968254 45.714285714285715,104.97354497354497 46.349206349206355,104.76190476190477 46.98412698412699,104.33862433862434 47.61904761904762,104.12698412698414 48.042328042328045,103.70370370370371 48.677248677248684,103.28042328042329 49.31216931216932,103.06878306878308 49.73544973544974,102.43386243386244 50.370370370370374,102.01058201058201 51.00529100529101,101.5873015873016 51.42857142857143,101.16402116402116 52.06349206349207,100.74074074074075 52.48677248677249,100.31746031746033 52.91005291005291,99.8941798941799 53.54497354497355,99.47089947089948 53.968253968253975,99.04761904761905 54.39153439153439,98.62433862433863 54.81481481481482,98.2010582010582 55.23809523809524,97.77777777777779 55.661375661375665,97.14285714285715 55.87301587301588,96.50793650793652 56.2962962962963,96.08465608465609 56.71957671957672,95.44973544973546 57.142857142857146,94.81481481481482 57.56613756613757,94.17989417989419 57.777777777777786,93.54497354497356 58.2010582010582,93.12169312169313 58.62433862433863,92.4867724867725 58.83597883597884,91.85185185185186 59.04761904761905,91.21693121693123 59.470899470899475,90.58201058201058 59.682539682539684,89.94708994708995 59.8941798941799,89.31216931216932 60.10582010582011,88.67724867724868 60.31746031746032,88.04232804232805 60.74074074074075,87.40740740740742 60.74074074074075,86.77248677248677 60.952380952380956,86.13756613756614 61.16402116402117,85.5026455026455 61.37566137566138,84.86772486772487 61.37566137566138,84.23280423280424 61.58730158730159,83.59788359788361 61.58730158730159,82.96296296296298 61.58730158730159,82.32804232804233 61.58730158730159,81.6931216931217 61.58730158730159,81.05820105820106 61.58730158730159,80.42328042328043 61.58730158730159,79.7883597883598 61.58730158730159,79.15343915343917 61.37566137566138,78.51851851851852 61.37566137566138,77.88359788359789 61.37566137566138,77.24867724867725 61.16402116402117,76.61375661375662 60.952380952380956,75.97883597883599 60.74074074074075,75.34391534391536 60.31746031746032,74.70899470899471 60.10582010582011,74.07407407407408 59.682539682539684,73.43915343915344 59.25925925925927,72.80423280423281 58.83597883597884,72.38095238095238 58.41269841269842,71.74603174603175 57.777777777777786,71.32275132275133 57.35449735449736,70.8994708994709 56.93121693121694,70.47619047619048 56.50793650793651,70.05291005291006 55.87301587301588,69.62962962962963 55.23809523809524,69.20634920634922 54.60317460317461,68.994708994709 54.179894179894184,68.57142857142858 53.54497354497355,68.14814814814815 52.91005291005291,67.93650793650794 52.27513227513228,67.72486772486774 51.640211640211646,67.51322751322752 51.21693121693122,67.08994708994709 50.58201058201058,66.87830687830689 49.94708994708995,66.66666666666667 49.31216931216932,66.45502645502646 48.677248677248684,66.24338624338625 48.042328042328045,66.03174603174604 47.40740740740741,65.82010582010582 46.77248677248678,65.60846560846561 46.13756613756614,65.60846560846561 45.50264550264551,65.3968253968254 44.867724867724874,65.3968253968254 44.232804232804234,65.18518518518519 43.5978835978836,65.18518518518519 42.96296296296297,64.97354497354497 42.32804232804233,65.18518518518519 41.6931216931217,65.18518518518519 41.058201058201064,65.18518518518519 40.423280423280424,65.3968253968254 39.78835978835979,65.3968253968254 39.15343915343916,65.3968253968254 38.51851851851852,65.3968253968254 37.883597883597886,65.3968253968254 37.248677248677254,65.60846560846561 36.613756613756614,65.60846560846561 35.97883597883598,65.3968253968254 35.34391534391535,65.3968253968254 34.70899470899471,65.18518518518519 34.074074074074076,64.97354497354497 33.43915343915344,64.55026455026456 32.804232804232804,64.33862433862434 32.38095238095239,63.91534391534392 31.746031746031747,63.492063492063494 31.322751322751326,63.06878306878308 30.899470899470902,62.64550264550265 30.476190476190478,62.22222222222223 30.052910052910054,61.798941798941804 29.841269841269842,61.16402116402117 29.629629629629633,60.52910052910053 29.41798941798942,59.8941798941799 29.41798941798942,59.25925925925927 29.41798941798942,58.62433862433863 29.41798941798942,57.989417989417994 29.629629629629633,57.35449735449736 29.841269841269842,56.71957671957672 30.052910052910054,56.08465608465609 30.264550264550266,55.449735449735456 30.68783068783069,54.81481481481482 30.899470899470902,54.179894179894184 31.322751322751326,53.75661375661376 31.746031746031747,53.333333333333336 32.16931216931217,52.91005291005291 32.592592592592595,52.27513227513228 33.01587301587302,51.851851851851855 33.43915343915344,51.21693121693122 33.86243386243387,50.7936507936508 34.28571428571429,50.370370370370374 34.70899470899471,49.94708994708995 35.13227513227513,49.523809523809526 35.55555555555556,48.88888888888889 35.97883597883598,48.46560846560847 36.402116402116405,48.042328042328045 36.82539682539683,47.61904761904762 37.248677248677254,46.98412698412699 37.67195767195768,46.560846560846564 38.095238095238095,46.13756613756614 38.51851851851852,45.50264550264551 38.94179894179894,45.07936507936508 39.36507936507937,44.65608465608466 39.57671957671958,44.021164021164026 40.0,43.5978835978836 40.423280423280424,43.17460317460318 40.84656084656085,42.539682539682545 41.26984126984127,41.904761904761905 41.6931216931217,41.26984126984127 42.11640211640212,40.84656084656085 42.539682539682545,40.211640211640216 42.75132275132275,39.57671957671958 43.17460317460318,39.15343915343916 43.5978835978836,38.51851851851852 44.021164021164026,38.095238095238095 44.232804232804234,37.46031746031746 44.65608465608466,36.82539682539683 45.07936507936508,36.402116402116405 45.50264550264551,35.76719576719577 45.92592592592593,35.34391534391535 46.13756613756614,34.70899470899471 46.560846560846564,34.074074074074076 48.46560846560847,31.111111111111114" style="fill:none; stroke:#3300bb; stroke-width:1.0"  /><circle cx="48.46560846560847" cy="31.111111111111114" r="2.0" style="fill:none; stroke:#000000aa; stroke-width:0.25" /><circle cx="165.2910052910053" cy="55.02645502645503" r="2.0" style="fill:none; stroke:#000000aa; stroke-width:0.25" /><circle cx="103.28042328042329" cy="157.67195767195767" r="2.0" style="fill:none; stroke:#000000aa; stroke-width:0.25" /><circle cx="0.21164021164021166" cy="133.54497354497354" r="2.0" style="fill:none; stroke:#000000aa; stroke-width:0.25" /><circle cx="48.677248677248684" cy="31.53439153439154" r="2.0" style="fill:none; stroke:#ff3366aa; stroke-width:0.25" /><circle cx="165.50264550264552" cy="55.661375661375665" r="2.0" style="fill:none; stroke:#ff3366aa; stroke-width:0.25" /><circle cx="102.85714285714286" cy="157.67195767195767" r="2.0" style="fill:none; stroke:#ff3366aa; stroke-width:0.25" /><circle cx="1.26984126984127" cy="133.54497354497354" r="2.0" style="fill:none; stroke:#ff3366aa; stroke-width:0.25" /><polyline points="59.25925925925927,36.613756613756614 58.62433862433863,36.402116402116405 57.989417989417994,36.19047619047619 57.35449735449736,35.76719576719577 56.71957671957672,35.55555555555556 56.08465608465609,35.13227513227513 55.449735449735456,34.920634920634924 54.81481481481482,34.4973544973545 54.179894179894184,34.28571428571429 53.54497354497355,33.86243386243387 53.12169312169313,33.43915343915344 52.48677248677249,33.22751322751323 51.851851851851855,32.804232804232804" style="fill:none; stroke:#001100; stroke-width:1.0" /><polyline points="41.6931216931217,41.26984126984127 42.11640211640212,40.84656084656085 42.539682539682545,40.211640211640216 42.75132275132275,39.57671957671958 43.17460317460318,39.15343915343916 43.5978835978836,38.51851851851852 44.021164021164026,38.095238095238095 44.232804232804234,37.46031746031746 44.65608465608466,36.82539682539683 45.07936507936508,36.402116402116405 45.50264550264551,35.76719576719577 45.92592592592593,35.34391534391535 46.13756613756614,34.70899470899471 46.560846560846564,34.074074074074076" style="fill:none; stroke:#000011; stroke-width:1.0" /><polyline points="160.63492063492066,66.45502645502646 161.05820105820106,65.82010582010582 161.2698412698413,65.18518518518519 161.4814814814815,64.55026455026456 161.6931216931217,63.91534391534392 162.11640211640213,63.280423280423285 162.32804232804233,62.64550264550265 162.53968253968256,62.01058201058201 162.75132275132276,61.37566137566138 162.96296296296296,60.74074074074075 163.1746031746032,60.10582010582011 163.59788359788362,59.470899470899475 163.80952380952382,58.83597883597884" style="fill:none; stroke:#001100; stroke-width:1.0" /><polyline points="153.86243386243387,53.333333333333336 154.4973544973545,53.333333333333336 155.13227513227514,53.333333333333336 155.76719576719577,53.54497354497355 156.4021164021164,53.75661375661376 157.03703703703704,53.968253968253975 157.67195767195767,53.968253968253975 158.30687830687833,54.179894179894184 158.94179894179896,54.179894179894184 159.5767195767196,54.179894179894184 160.21164021164023,54.179894179894184 160.84656084656086,54.39153439153439 161.4814814814815,54.60317460317461 162.11640211640213,54.60317460317461" style="fill:none; stroke:#000011; stroke-width:1.0" /><polyline points="92.69841269841271,151.74603174603175 93.33333333333334,152.16931216931218 93.96825396825398,152.38095238095238 94.60317460317461,152.8042328042328 95.23809523809524,153.01587301587304 95.87301587301587,153.43915343915344 96.50793650793652,153.86243386243387 97.14285714285715,154.2857142857143 97.77777777777779,154.7089947089947 98.41269841269842,155.13227513227514 99.04761904761905,155.34391534391534 99.47089947089948,155.76719576719577 100.10582010582011,155.978835978836" style="fill:none; stroke:#001100; stroke-width:1.0" /><polyline points="106.87830687830689,146.66666666666669 106.66666666666667,147.30158730158732 106.45502645502647,147.93650793650795 106.24338624338625,148.57142857142858 106.03174603174604,149.20634920634922 105.82010582010582,149.84126984126985 105.60846560846562,150.47619047619048 105.3968253968254,151.11111111111111 105.18518518518519,151.74603174603175 104.97354497354497,152.38095238095238 104.76190476190477,153.01587301587304 104.55026455026456,153.65079365079367 104.33862433862434,154.2857142857143 104.12698412698414,154.92063492063494" style="fill:none; stroke:#000011; stroke-width:1.0" /><polyline points="0.8465608465608466,121.6931216931217 0.634920634920635,122.32804232804234 0.634920634920635,122.96296296296298 0.634920634920635,123.59788359788361 0.634920634920635,124.23280423280424 0.634920634920635,124.86772486772487 0.634920634920635,125.5026455026455 0.4232804232804233,126.13756613756615 0.4232804232804233,126.77248677248679 0.4232804232804233,127.40740740740742 0.4232804232804233,128.04232804232805 0.4232804232804233,128.67724867724868 0.4232804232804233,129.31216931216932 0.4232804232804233,129.94708994708995 0.4232804232804233,130.58201058201058" style="fill:none; stroke:#001100; stroke-width:1.0" /><polyline points="12.6984126984127,133.96825396825398 12.063492063492065,133.96825396825398 11.428571428571429,133.75661375661377 10.793650793650794,133.75661375661377 10.15873015873016,133.75661375661377 9.523809523809524,133.75661375661377 8.88888888888889,133.75661375661377 8.253968253968255,133.75661375661377 7.6190476190476195,133.96825396825398 6.984126984126985,133.75661375661377 6.34920634920635,133.75661375661377 5.714285714285714,133.75661375661377 5.07936507936508,133.75661375661377 4.444444444444445,133.75661375661377" style="fill:none; stroke:#000011; stroke-width:1.0" /><polyline points="51.851851851851855,32.804232804232804 33.01587301587302,23.06878306878307" style="fill:none; stroke:#ffaa00; stroke-width:0.4" /><polyline points="46.560846560846564,34.074074074074076 58.41269841269842,16.50793650793651" style="fill:none; stroke:#aaff00; stroke-width:0.4" /><polyline points="163.80952380952382,58.83597883597884 171.85185185185188,39.36507936507937" style="fill:none; stroke:#ffaa00; stroke-width:0.4" /><polyline points="162.11640211640213,54.60317460317461 183.0687830687831,57.777777777777786" style="fill:none; stroke:#aaff00; stroke-width:0.4" /><polyline points="100.10582010582011,155.978835978836 118.51851851851853,166.56084656084658" style="fill:none; stroke:#ffaa00; stroke-width:0.4" /><polyline points="104.12698412698414,154.92063492063494 97.35449735449737,175.02645502645504" style="fill:none; stroke:#aaff00; stroke-width:0.4" /><polyline points="0.4232804232804233,130.58201058201058 -0.634920634920635,151.74603174603175" style="fill:none; stroke:#ffaa00; stroke-width:0.4" /><polyline points="4.444444444444445,133.75661375661377 -16.71957671957672,133.12169312169314" style="fill:none; stroke:#aaff00; stroke-width:0.4" /><circle cx="90.15873015873017" cy="91.42857142857143" r="1.0" style="fill:#444444; stroke-width:0" /><circle cx="101.5873015873016" cy="87.61904761904762" r="10.582010582010582" style="fill:#ff770022; stroke-width:0" /><circle cx="101.5873015873016" cy="87.61904761904762" r="1.0" style="fill:#ff7700; stroke-width:0" /></svg>