<?xml version="1.0" encoding="UTF-8" standalone="no"?><svg width="511.7460317460318" height="512.3809523809524" viewBox="-10 -10 190.58201058201058 190.7936507936508" xmlns="http://www.w3.org/2000/svg" xmlns:xlink="http://www.w3.org/1999/xlink"><polyline points="67.51322751322752,5.07936507936508 69.62962962962963,8.253968253968255 70.05291005291006,8.88888888888889 70.47619047619048,9.523809523809524 70.8994708994709,9.947089947089948 71.11111111111111,10.582010582010582 71.53439153439155,11.005291005291006 71.74603174603175,11.640211640211641 72.16931216931218,12.063492063492065 72.5925925925926,12.6984126984127 72.80423280423281,13.333333333333334 73.22751322751323,13.756613756613758 73.65079365079366,14.391534391534393 74.07407407407408,15.026455026455027 74.49735449735451,15.661375661375663 74.92063492063492,16.296296296296298 75.34391534391536,16.71957671957672 75.76719576719577,17.354497354497354 76.19047619047619,17.98941798941799 76.61375661375662,18.624338624338627 77.03703703703704,19.047619047619047 77.46031746031747,19.682539682539684 78.0952380952381,20.105820105820108 78.51851851851852,20.740740740740744 78.94179894179895,21.164021164021165 79.57671957671958,21.58730158730159 80.0,22.010582010582013 80.63492063492065,22.433862433862437 81.26984126984128,22.645502645502646 81.90476190476191,22.857142857142858 82.53968253968254,23.06878306878307 83.17460317460318,23.06878306878307 83.80952380952381,23.06878306878307 84.44444444444446,22.857142857142858 85.07936507936509,22.857142857142858 85.71428571428572,22.857142857142858 86.34920634920636,22.433862433862437 86.98412698412699,22.010582010582013 87.61904761904762,21.58730158730159 88.04232804232805,21.164021164021165 88.46560846560847,20.740740740740744 88.8888888888889,20.105820105820108 89.1005291005291,19.47089947089947 89.31216931216932,18.83597883597884 89.73544973544975,18.201058201058203 89.94708994708995,17.566137566137566 90.15873015873017,16.931216931216934 90.37037037037038,16.296296296296298 90.37037037037038,15.661375661375663 90.58201058201058,15.026455026455027 90.58201058201058,14.391534391534393 90.7936507936508,13.756613756613758 91.00529100529101,13.121693121693122 91.00529100529101,12.486772486772487 91.21693121693123,11.851851851851853 91.42857142857143,11.216931216931219 91.64021164021165,10.582010582010582 91.85185185185186,9.947089947089948 92.27513227513228,9.312169312169313 92.4867724867725,8.677248677248677 92.91005291005291,8.042328042328043 93.33333333333334,7.6190476190476195 93.75661375661376,6.984126984126985 94.17989417989419,6.34920634920635 94.60317460317461,5.9259259259259265 95.02645502645504,5.291005291005291 95.44973544973546,4.867724867724868 95.87301587301587,4.444444444444445 96.2962962962963,4.021164021164021 96.93121693121694,3.597883597883598 97.35449735449737,3.174603174603175 97.989417989418,2.7513227513227516 98.62433862433863,2.3280423280423284 99.25925925925927,2.1164021164021167 99.8941798941799,1.6931216931216932 100.52910052910053,1.4814814814814816 101.16402116402116,1.0582010582010584 101.79894179894181,0.8465608465608466 102.43386243386244,0.634920634920635 103.06878306878308,0.4232804232804233 103.70370370370371,0.4232804232804233 104.33862433862434,0.21164021164021166 104.97354497354497,0.21164021164021166 105.60846560846562,0.21164021164021166 106.24338624338625,0.21164021164021166 106.87830687830689,0.4232804232804233 107.51322751322752,0.634920634920635 108.14814814814815,0.4232804232804233 108.78306878306879,0.634920634920635 109.41798941798943,0.8465608465608466 110.05291005291006,0.8465608465608466 110.6878306878307,1.0582010582010584 111.11111111111111,1.4814814814814816 111.74603174603176,1.6931216931216932 112.3809523809524,1.6931216931216932 113.01587301587303,1.9047619047619049 113.65079365079366,2.3280423280423284 114.28571428571429,2.53968253968254 114.92063492063492,2.7513227513227516 115.55555555555557,3.174603174603175 115.97883597883599,3.597883597883598 116.61375661375662,3.8095238095238098 117.24867724867725,4.2328042328042335 117.67195767195768,4.656084656084657 118.30687830687832,5.07936507936508 118.94179894179895,5.502645502645503 119.36507936507937,5.9259259259259265 119.7883597883598,6.34920634920635 120.21164021164022,6.772486772486773 120.63492063492065,7.195767195767196 121.05820105820106,7.6190476190476195 121.6931216931217,8.042328042328043 122.11640211640213,8.465608465608467 122.53968253968254,8.88888888888889 122.96296296296298,9.312169312169313 123.3862433862434,9.947089947089948 123.80952380952382,10.370370370370372 124.44444444444446,10.793650793650794 124.86772486772487,11.216931216931219 125.2910052910053,11.851851851851853 125.71428571428572,12.275132275132275 126.13756613756615,12.6984126984127 126.56084656084657,13.121693121693122 126.98412698412699,13.756613756613758 127.40740740740742,14.17989417989418 127.83068783068784,14.814814814814817 128.25396825396825,15.238095238095239 128.67724867724868,15.873015873015873 129.10052910052912,16.50793650793651 129.52380952380955,17.142857142857146 129.94708994708995,17.566137566137566 130.37037037037038,18.201058201058203 130.7936507936508,18.83597883597884 131.21693121693121,19.47089947089947 131.64021164021165,20.105820105820108 132.06349206349208,20.740740740740744 132.27513227513228,21.375661375661377 132.4867724867725,22.010582010582013 132.6984126984127,22.645502645502646 132.9100529100529,23.280423280423282 132.9100529100529,23.915343915343918 133.12169312169314,24.55026455026455 133.12169312169314,25.185185185185187 133.33333333333334,25.820105820105823 133.33333333333334,26.455026455026456 133.33333333333334,27.089947089947092 133.33333333333334,27.724867724867728 133.33333333333334,28.35978835978836 133.33333333333334,28.994708994708997 133.33333333333334,29.629629629629633 133.12169312169314,30.264550264550266 132.9100529100529,30.899470899470902 132.6984126984127,31.53439153439154 132.4867724867725,32.16931216931217 132.06349206349208,32.592592592592595 131.64021164021165,33.22751322751323 131.21693121693121,33.65079365079365 130.7936507936508,34.074074074074076 130.37037037037038,34.4973544973545 129.73544973544975,34.920634920634924 129.10052910052912,35.34391534391535 128.46560846560848,35.76719576719577 127.83068783068784,35.97883597883598 127.1957671957672,36.402116402116405 126.56084656084657,36.613756613756614 125.92592592592594,36.82539682539683 125.2910052910053,37.03703703703704 124.65608465608466,37.46031746031746 124.02116402116403,37.67195767195768 123.3862433862434,38.095238095238095 122.75132275132276,38.30687830687831 122.11640211640213,38.30687830687831 121.4814814814815,38.730158730158735 120.84656084656086,38.94179894179894 120.21164021164022,39.15343915343916 119.57671957671958,39.36507936507937 118.94179894179895,39.57671957671958 118.30687830687832,39.78835978835979 117.67195767195768,40.0 117.03703703703705,40.423280423280424 116.4021164021164,40.84656084656085 115.76719576719577,41.26984126984127 115.13227513227514,41.6931216931217 114.70899470899472,42.11640211640212 114.28571428571429,42.539682539682545 113.86243386243387,43.17460317460318 113.43915343915344,43.80952380952381 113.22751322751324,44.44444444444445 113.01587301587303,45.07936507936508 112.80423280423281,45.714285714285715 112.5925925925926,46.349206349206355 112.5925925925926,46.98412698412699 112.5925925925926,47.61904761904762 112.5925925925926,48.25396825396826 112.80423280423281,48.88888888888889 113.01587301587303,49.523809523809526 113.22751322751324,50.158730158730165 113.65079365079366,50.7936507936508 113.86243386243387,51.42857142857143 114.28571428571429,51.851851851851855 114.70899470899472,52.48677248677249 115.13227513227514,52.91005291005291 115.55555555555557,53.333333333333336 115.97883597883599,53.75661375661376 116.4021164021164,54.179894179894184 117.03703703703705,54.60317460317461 117.46031746031747,55.02645502645503 118.0952380952381,55.449735449735456 118.73015873015873,55.87301587301588 119.36507936507937,56.08465608465609 120.00000000000001,56.2962962962963 120.63492063492065,56.71957671957672 121.26984126984128,56.93121693121694 121.90476190476191,57.142857142857146 122.53968253968254,57.35449735449736 123.17460317460318,57.56613756613757 123.80952380952382,57.777777777777786 124.44444444444446,57.777777777777786 125.07936507936509,58.2010582010582 125.71428571428572,58.2010582010582 126.34920634920636,58.41269841269842 126.98412698412699,58.62433862433863 127.61904761904763,58.62433862433863 128.25396825396825,58.83597883597884 128.88888888888889,59.04761904761905 129.52380952380955,59.25925925925927 130.15873015873018,59.25925925925927 130.7936507936508,59.470899470899475 131.42857142857144,59.682539682539684 132.06349206349208,59.682539682539684 132.6984126984127,59.682539682539684 133.33333333333334,59.8941798941799 133.96825396825398,59.8941798941799 134.6031746031746,60.10582010582011 135.23809523809524,60.10582010582011 135.87301587301587,60.31746031746032 136.5079365079365,60.31746031746032 137.14285714285717,60.52910052910053 137.7777777777778,60.74074074074075 138.41269841269843,60.952380952380956 139.04761904761907,61.16402116402117 139.6825396825397,61.16402116402117 140.31746031746033,61.58730158730159 140.95238095238096,61.58730158730159 141.5873015873016,61.58730158730159 142.22222222222223,61.798941798941804 142.85714285714286,62.01058201058201 143.4920634920635,62.43386243386244 144.12698412698413,62.43386243386244 144.76190476190476,62.85714285714286 145.39682539682542,63.06878306878308 146.03174603174605,63.06878306878308 146.45502645502646,63.492063492063494 147.0899470899471,63.70370370370371 147.72486772486775,63.70370370370371 148.14814814814815,64.12698412698413 148.78306878306879,64.33862433862434 149.41798941798942,64.55026455026456 150.05291005291005,64.76190476190477 150.6878306878307,64.97354497354497 151.11111111111111,65.3968253968254 151.74603174603175,65.60846560846561 152.38095238095238,65.82010582010582 153.01587301587304,66.24338624338625 153.65079365079367,66.66666666666667 154.2857142857143,66.87830687830689 154.92063492063494,67.3015873015873 155.55555555555557,67.51322751322752 156.1904761904762,67.93650793650794 156.82539682539684,68.14814814814815 157.24867724867727,68.57142857142858 157.8835978835979,68.78306878306879 158.51851851851853,69.20634920634922 159.15343915343917,69.41798941798942 159.7883597883598,69.62962962962963 160.42328042328043,70.05291005291006 160.84656084656086,70.47619047619048 161.4814814814815,70.8994708994709 162.11640211640213,71.11111111111111 162.53968253968256,71.53439153439155 163.1746031746032,71.95767195767196 163.80952380952382,72.16931216931218 164.23280423280426,72.5925925925926 164.8677248677249,73.01587301587303 165.50264550264552,73.43915343915344 166.13756613756615,73.86243386243387 166.56084656084658,74.28571428571429 167.19576719576722,74.70899470899471 167.61904761904762,75.13227513227514 168.04232804232805,75.55555555555556 170.7936507936508,77.46031746031747" style="fill:none; stroke:#cc0000; stroke-width:1.0"  /><polyline points="170.7936507936508,77.46031746031747 167.61904761904762,80.21164021164022 166.984126984127,80.63492063492065 166.34920634920636,81.05820105820106 165.92592592592595,81.48148148148148 165.50264550264552,81.90476190476191 165.0793650793651,82.32804232804233 164.65608465608466,82.75132275132276 164.02116402116403,83.17460317460318 163.59788359788362,83.59788359788361 163.1746031746032,84.02116402116403 162.75132275132276,84.44444444444446 162.32804232804233,84.86772486772487 161.90476190476193,85.29100529100529 161.4814814814815,85.71428571428572 161.05820105820106,86.13756613756614 160.63492063492066,86.56084656084657 160.21164021164023,86.98412698412699 159.7883597883598,87.40740740740742 159.36507936507937,87.83068783068784 158.94179894179896,88.46560846560847 158.51851851851853,88.8888888888889 158.0952380952381,89.31216931216932 157.8835978835979,89.94708994708995 157.46031746031747,90.37037037037038 157.03703703703704,90.7936507936508 156.61375661375664,91.21693121693123 156.1904761904762,91.85185185185186 155.76719576719577,92.27513227513228 155.34391534391534,92.91005291005291 154.92063492063494,93.33333333333334 154.4973544973545,93.75661375661376 154.07407407407408,94.39153439153439 153.65079365079367,94.81481481481482 153.22751322751324,95.44973544973546 152.8042328042328,96.08465608465609 152.38095238095238,96.50793650793652 151.95767195767198,97.14285714285715 151.53439153439155,97.56613756613757 151.11111111111111,98.2010582010582 150.6878306878307,98.83597883597885 150.26455026455028,99.47089947089948 149.84126984126985,100.10582010582011 149.41798941798942,100.74074074074075 148.99470899470901,101.37566137566138 148.57142857142858,101.79894179894181 148.35978835978838,102.43386243386244 147.93650793650795,102.85714285714286 147.51322751322752,103.4920634920635 147.0899470899471,104.12698412698414 146.66666666666669,104.76190476190477 146.45502645502646,105.3968253968254 146.03174603174605,106.03174603174604 145.82010582010582,106.66666666666667 145.39682539682542,107.0899470899471 144.973544973545,107.72486772486774 144.76190476190476,108.35978835978837 144.33862433862436,108.994708994709 144.12698412698413,109.62962962962963 143.70370370370372,110.05291005291006 143.4920634920635,110.6878306878307 143.0687830687831,111.32275132275133 142.85714285714286,111.95767195767196 142.43386243386246,112.5925925925926 142.01058201058203,113.22751322751324 141.7989417989418,113.86243386243387 141.5873015873016,114.49735449735451 141.16402116402116,114.92063492063492 140.95238095238096,115.55555555555557 140.52910052910053,116.1904761904762 140.10582010582013,116.82539682539684 139.8941798941799,117.46031746031747 139.6825396825397,118.0952380952381 139.47089947089947,118.73015873015873 139.25925925925927,119.36507936507937 139.04761904761907,120.00000000000001 138.83597883597884,120.63492063492065 138.62433862433863,121.26984126984128 138.41269841269843,121.90476190476191 138.41269841269843,122.53968253968254 138.2010582010582,123.17460317460318 137.989417989418,123.80952380952382 138.2010582010582,124.44444444444446 138.2010582010582,125.07936507936509 137.989417989418,125.71428571428572 137.989417989418,126.34920634920636 137.989417989418,126.98412698412699 138.2010582010582,127.61904761904763 138.2010582010582,128.25396825396825 138.2010582010582,128.88888888888889 138.2010582010582,129.52380952380955 138.41269841269843,130.15873015873018 138.62433862433863,130.7936507936508 138.83597883597884,131.42857142857144 139.04761904761907,132.06349206349208 139.47089947089947,132.4867724867725 139.6825396825397,133.12169312169314 140.10582010582013,133.75661375661377 140.52910052910053,134.17989417989418 140.95238095238096,134.6031746031746 141.3756613756614,135.02645502645504 141.7989417989418,135.66137566137567 142.43386243386246,135.87301587301587 143.0687830687831,136.2962962962963 143.70370370370372,136.5079365079365 144.33862433862436,136.71957671957674 144.973544973545,136.93121693121694 145.60846560846562,137.14285714285717 146.24338624338625,137.14285714285717 146.8783068783069,137.35449735449737 147.51322751322752,137.56613756613757 148.14814814814815,137.56613756613757 148.78306878306879,137.7777777777778 149.41798941798942,137.989417989418 150.05291005291005,137.989417989418 150.6878306878307,138.2010582010582 151.32275132275134,138.2010582010582 151.95767195767198,138.41269841269843 152.5925925925926,138.62433862433863 153.22751322751324,138.83597883597884 153.86243386243387,138.83597883597884 154.4973544973545,139.04761904761907 155.13227513227514,139.25925925925927 155.76719576719577,139.47089947089947 156.4021164021164,139.6825396825397 157.03703703703704,140.10582010582013 157.67195767195767,140.31746031746033 158.30687830687833,140.74074074074076 158.94179894179896,141.16402116402116 159.5767195767196,141.3756613756614 160.21164021164023,141.7989417989418 160.63492063492066,142.22222222222223 161.2698412698413,142.64550264550266 161.6931216931217,143.0687830687831 162.11640211640213,143.4920634920635 162.53968253968256,143.91534391534393 162.96296296296296,144.33862433862436 163.3862433862434,144.76190476190476 163.80952380952382,145.1851851851852 164.23280423280426,145.60846560846562 164.44444444444446,146.24338624338625 164.8677248677249,146.66666666666669 165.0793650793651,147.30158730158732 165.50264550264552,147.93650793650795 165.71428571428572,148.57142857142858 165.71428571428572,149.20634920634922 165.92592592592595,149.84126984126985 165.92592592592595,150.47619047619048 165.92592592592595,151.11111111111111 166.13756613756615,151.74603174603175 166.13756613756615,152.38095238095238 165.92592592592595,153.01587301587304 165.92592592592595,153.65079365079367 165.92592592592595,154.2857142857143 165.71428571428572,154.92063492063494 165.50264550264552,155.55555555555557 165.0793650793651,156.1904761904762 164.8677248677249,156.82539682539684 164.65608465608466,157.46031746031747 164.23280423280426,158.0952380952381 163.80952380952382,158.73015873015873 163.59788359788362,159.36507936507937 163.1746031746032,160.0 162.75132275132276,160.42328042328043 162.32804232804233,161.05820105820106 161.90476190476193,161.4814814814815 161.4814814814815,162.11640211640213 161.05820105820106,162.53968253968256 160.63492063492066,162.96296296296296 160.0,163.3862433862434 159.5767195767196,163.80952380952382 159.15343915343917,164.44444444444446 158.73015873015873,164.8677248677249 158.0952380952381,165.0793650793651 157.67195767195767,165.50264550264552 157.03703703703704,165.92592592592595 156.4021164021164,166.34920634920636 155.76719576719577,166.7724867724868 155.13227513227514,166.984126984127 154.4973544973545,167.40740740740742 153.86243386243387,167.61904761904762 153.22751322751324,167.83068783068785 152.5925925925926,168.04232804232805 151.95767195767198,168.25396825396825 151.32275132275134,168.67724867724868 150.6878306878307,168.67724867724868 150.05291005291005,168.8888888888889 149.41798941798942,169.10052910052912 148.78306878306879,169.31216931216932 148.14814814814815,169.52380952380955 147.51322751322752,169.52380952380955 146.8783068783069,169.52380952380955 146.24338624338625,169.73544973544975 145.60846560846562,169.73544973544975 144.973544973545,169.73544973544975 144.33862433862436,169.52380952380955 143.70370370370372,169.52380952380955 143.0687830687831,169.52380952380955 142.43386243386246,169.31216931216932 141.7989417989418,169.31216931216932 141.16402116402116,169.10052910052912 140.52910052910053,168.8888888888889 139.8941798941799,168.67724867724868 139.25925925925927,168.46560846560848 138.62433862433863,168.04232804232805 137.989417989418,167.83068783068785 137.35449735449737,167.40740740740742 136.93121693121694,166.984126984127 136.2962962962963,166.7724867724868 135.87301587301587,166.34920634920636 135.44973544973547,165.92592592592595 134.81481481481484,165.50264550264552 134.3915343915344,165.0793650793651 133.96825396825398,164.65608465608466 133.54497354497354,164.02116402116403 133.12169312169314,163.59788359788362 132.9100529100529,162.96296296296296 132.4867724867725,162.53968253968256 132.06349206349208,162.11640211640213 131.85185185185185,161.4814814814815 131.64021164021165,160.84656084656086 131.21693121693121,160.42328042328043 131.005291005291,159.7883597883598 130.58201058201058,159.15343915343917 130.37037037037038,158.51851851851853 130.37037037037038,157.8835978835979 130.15873015873018,157.24867724867727 130.15873015873018,156.61375661375664 129.73544973544975,155.978835978836 129.73544973544975,155.34391534391534 129.52380952380955,154.7089947089947 129.52380952380955,154.07407407407408 129.31216931216932,153.43915343915344 129.10052910052912,152.8042328042328 129.10052910052912,152.16931216931218 128.88888888888889,151.53439153439155 128.67724867724868,150.8994708994709 128.46560846560848,150.26455026455028 128.25396825396825,149.62962962962965 128.04232804232805,148.99470899470901 127.83068783068784,148.35978835978838 127.61904761904763,147.72486772486775 127.40740740740742,147.0899470899471 127.1957671957672,146.45502645502646 126.77248677248679,145.82010582010582 126.56084656084657,145.1851851851852 126.13756613756615,144.76190476190476 125.71428571428572,144.12698412698413 125.2910052910053,143.70370370370372 124.86772486772487,143.2804232804233 124.23280423280424,143.0687830687831 123.59788359788361,142.64550264550266 122.96296296296298,142.43386243386246 122.32804232804234,142.01058201058203 121.6931216931217,141.5873015873016 121.05820105820106,141.5873015873016 120.42328042328043,141.3756613756614 119.7883597883598,141.3756613756614 119.15343915343917,141.3756613756614 118.51851851851853,141.3756613756614 117.88359788359789,141.3756613756614 117.24867724867725,141.5873015873016 116.61375661375662,141.7989417989418 115.97883597883599,142.01058201058203 115.34391534391536,142.22222222222223 114.92063492063492,142.64550264550266 114.28571428571429,142.85714285714286 113.65079365079366,143.2804232804233 113.01587301587303,143.70370370370372 112.3809523809524,144.12698412698413 111.74603174603176,144.33862433862436 111.11111111111111,144.76190476190476 110.47619047619048,144.973544973545 110.05291005291006,145.39682539682542 109.41798941798943,145.82010582010582 108.78306878306879,146.03174603174605 108.35978835978837,146.45502645502646 107.72486772486774,146.8783068783069 107.0899470899471,147.0899470899471 106.45502645502647,147.51322751322752 105.82010582010582,147.93650793650795 105.18518518518519,148.35978835978838 104.55026455026456,148.78306878306879 103.91534391534393,148.99470899470901 103.4920634920635,149.41798941798942 102.85714285714286,149.62962962962965 102.43386243386244,150.05291005291005 101.79894179894181,150.47619047619048 101.16402116402116,150.6878306878307 100.74074074074075,151.11111111111111 100.10582010582011,151.32275132275134 99.68253968253968,151.74603174603175 99.04761904761905,152.16931216931218 98.41269841269842,152.5925925925926 97.77777777777779,152.8042328042328 97.35449735449737,153.22751322751324 96.71957671957672,153.65079365079367 96.08465608465609,153.86243386243387 95.66137566137567,154.2857142857143 95.02645502645504,154.7089947089947 94.39153439153439,155.13227513227514 93.75661375661376,155.55555555555557 93.12169312169313,155.76719576719577 92.69841269841271,156.1904761904762 92.06349206349208,156.61375661375664 91.42857142857143,157.03703703703704 90.7936507936508,157.46031746031747 90.15873015873017,157.8835978835979 89.52380952380953,158.30687830687833 89.1005291005291,158.73015873015873 88.46560846560847,159.15343915343917 88.04232804232805,159.5767195767196 87.40740740740742,160.0 86.98412698412699,160.42328042328043 86.34920634920636,160.84656084656086 85.71428571428572,161.2698412698413 85.07936507936509,161.6931216931217 84.44444444444446,162.11640211640213 83.80952380952381,162.53968253968256 83.17460317460318,162.96296296296296 82.53968253968254,163.3862433862434 82.11640211640213,163.80952380952382 81.48148148148148,164.23280423280426 80.84656084656085,164.65608465608466 80.21164021164022,165.0793650793651 79.57671957671958,165.50264550264552 78.94179894179895,165.92592592592595 78.51851851851852,166.34920634920636 77.88359788359789,166.7724867724868 77.24867724867725,167.19576719576722 76.61375661375662,167.61904761904762 76.19047619047619,168.04232804232805 75.55555555555556,168.46560846560848 72.80423280423281,170.58201058201058" style="fill:none; stroke:#999900; stroke-width:1.0"  /><polyline points="72.80423280423281,170.58201058201058 70.26455026455027,168.46560846560848 69.62962962962963,168.04232804232805 69.20634920634922,167.61904761904762 68.57142857142858,167.19576719576722 68.14814814814815,166.7724867724868 67.72486772486774,166.34920634920636 67.08994708994709,165.92592592592595 66.66666666666667,165.50264550264552 66.03174603174604,165.0793650793651 65.3968253968254,164.65608465608466 64.97354497354497,164.23280423280426 64.33862433862434,163.80952380952382 63.91534391534392,163.3862433862434 63.280423280423285,162.96296296296296 62.64550264550265,162.53968253968256 62.01058201058201,162.11640211640213 61.58730158730159,161.6931216931217 60.952380952380956,161.2698412698413 60.31746031746032,160.84656084656086 59.8941798941799,160.42328042328043 59.25925925925927,160.0 58.62433862433863,159.5767195767196 57.989417989417994,159.36507936507937 57.56613756613757,158.94179894179896 56.93121693121694,158.51851851851853 56.2962962962963,158.0952380952381 55.661375661375665,157.67195767195767 55.02645502645503,157.24867724867727 54.60317460317461,156.82539682539684 53.968253968253975,156.61375661375664 53.333333333333336,156.1904761904762 52.91005291005291,155.76719576719577 52.48677248677249,155.34391534391534 52.06349206349207,154.92063492063494 51.640211640211646,154.4973544973545 51.21693121693122,154.07407407407408 50.7936507936508,153.43915343915344 50.370370370370374,152.8042328042328 50.158730158730165,152.16931216931218 49.73544973544974,151.53439153439155 49.523809523809526,150.8994708994709 49.523809523809526,150.26455026455028 49.31216931216932,149.62962962962965 49.1005291005291,148.99470899470901 49.1005291005291,148.35978835978838 49.1005291005291,147.72486772486775 49.1005291005291,147.0899470899471 49.31216931216932,146.45502645502646 49.523809523809526,145.82010582010582 49.94708994708995,145.1851851851852 50.370370370370374,144.55026455026456 51.00529100529101,144.12698412698413 51.42857142857143,143.70370370370372 51.851851851851855,143.2804232804233 52.27513227513228,142.85714285714286 52.91005291005291,142.43386243386246 53.333333333333336,142.01058201058203 53.968253968253975,141.5873015873016 54.60317460317461,141.16402116402116 55.02645502645503,140.52910052910053 55.661375661375665,140.10582010582013 56.08465608465609,139.6825396825397 56.50793650793651,139.25925925925927 56.93121693121694,138.83597883597884 57.35449735449736,138.41269841269843 57.777777777777786,137.989417989418 58.2010582010582,137.56613756613757 58.62433862433863,137.14285714285717 59.04761904761905,136.5079365079365 59.470899470899475,135.87301587301587 59.8941798941799,135.23809523809524 60.10582010582011,134.6031746031746 60.52910052910053,133.96825396825398 60.952380952380956,133.33333333333334 61.16402116402117,132.6984126984127 61.37566137566138,132.06349206349208 61.798941798941804,131.42857142857144 61.798941798941804,130.7936507936508 62.01058201058201,130.15873015873018 62.22222222222223,129.52380952380955 62.22222222222223,128.88888888888889 62.22222222222223,128.25396825396825 62.22222222222223,127.61904761904763 62.01058201058201,126.98412698412699 62.01058201058201,126.34920634920636 61.798941798941804,125.71428571428572 61.58730158730159,125.07936507936509 61.16402116402117,124.44444444444446 60.74074074074075,124.02116402116403 60.31746031746032,123.3862433862434 59.8941798941799,122.75132275132276 59.470899470899475,122.11640211640213 59.25925925925927,121.4814814814815 58.83597883597884,121.05820105820106 58.41269841269842,120.42328042328043 57.989417989417994,120.00000000000001 57.56613756613757,119.57671957671958 57.142857142857146,118.94179894179895 56.71957671957672,118.51851851851853 56.2962962962963,118.0952380952381 55.87301587301588,117.67195767195768 55.449735449735456,117.24867724867725 55.02645502645503,116.82539682539684 54.60317460317461,116.4021164021164 53.968253968253975,115.97883597883599 53.54497354497355,115.55555555555557 53.12169312169313,115.13227513227514 52.48677248677249,114.70899470899472 51.851851851851855,114.28571428571429 51.42857142857143,113.86243386243387 50.7936507936508,113.43915343915344 50.158730158730165,113.01587301587303 49.73544973544974,112.5925925925926 49.1005291005291,112.3809523809524 48.677248677248684,111.95767195767196 48.042328042328045,111.74603174603176 47.61904761904762,111.32275132275133 46.98412698412699,111.11111111111111 46.349206349206355,110.89947089947091 45.92592592592593,110.47619047619048 45.29100529100529,110.26455026455027 44.65608465608466,110.05291005291006 44.021164021164026,109.62962962962963 43.386243386243386,109.41798941798943 42.75132275132275,109.20634920634922 42.11640211640212,108.78306878306879 41.48148148148149,108.57142857142858 40.84656084656085,108.35978835978837 40.211640211640216,108.14814814814815 39.57671957671958,108.14814814814815 38.94179894179894,107.72486772486774 38.30687830687831,107.72486772486774 37.67195767195768,107.72486772486774 37.03703703703704,107.51322751322752 36.402116402116405,107.3015873015873 35.76719576719577,107.3015873015873 35.13227513227513,107.0899470899471 34.4973544973545,107.0899470899471 33.86243386243387,107.0899470899471 33.22751322751323,107.0899470899471 32.592592592592595,107.0899470899471 31.95767195767196,107.0899470899471 31.322751322751326,107.0899470899471 30.68783068783069,107.0899470899471 30.052910052910054,107.3015873015873 29.41798941798942,107.72486772486774 28.783068783068785,107.93650793650795 28.35978835978836,108.35978835978837 27.724867724867728,108.78306878306879 27.301587301587304,109.20634920634922 26.87830687830688,109.62962962962963 26.455026455026456,110.05291005291006 26.031746031746035,110.47619047619048 25.60846560846561,111.11111111111111 25.185185185185187,111.74603174603176 24.761904761904763,112.3809523809524 24.338624338624342,113.01587301587303 24.12698412698413,113.65079365079366 23.703703703703706,114.28571428571429 23.492063492063494,114.92063492063492 23.280423280423282,115.55555555555557 23.06878306878307,116.1904761904762 23.06878306878307,116.82539682539684 22.857142857142858,117.46031746031747 22.857142857142858,118.0952380952381 22.645502645502646,118.73015873015873 22.645502645502646,119.36507936507937 22.645502645502646,120.00000000000001 22.645502645502646,120.63492063492065 22.433862433862437,121.26984126984128 22.433862433862437,121.90476190476191 22.433862433862437,122.53968253968254 22.222222222222225,123.17460317460318 22.010582010582013,123.80952380952382 21.7989417989418,124.44444444444446 21.7989417989418,125.07936507936509 21.375661375661377,125.71428571428572 21.164021164021165,126.34920634920636 20.740740740740744,126.77248677248679 20.31746031746032,127.40740740740742 19.894179894179896,128.04232804232805 19.47089947089947,128.46560846560848 19.047619047619047,128.88888888888889 18.624338624338627,129.31216931216932 17.98941798941799,129.52380952380955 17.354497354497354,129.73544973544975 16.71957671957672,129.94708994708995 16.084656084656086,129.94708994708995 15.449735449735451,129.94708994708995 14.814814814814817,129.73544973544975 14.17989417989418,129.52380952380955 13.544973544973546,129.31216931216932 12.910052910052912,129.10052910052912 12.486772486772487,128.67724867724868 12.063492063492065,128.25396825396825 11.428571428571429,127.83068783068784 11.005291005291006,127.40740740740742 10.582010582010582,126.98412698412699 10.15873015873016,126.56084656084657 9.735449735449736,126.13756613756615 9.312169312169313,125.5026455026455 8.88888888888889,125.07936507936509 8.465608465608467,124.65608465608466 7.830687830687832,124.23280423280424 7.407407407407408,123.80952380952382 6.984126984126985,123.3862433862434 6.560846560846561,122.96296296296298 6.137566137566138,122.53968253968254 5.714285714285714,122.11640211640213 5.291005291005291,121.6931216931217 4.867724867724868,121.26984126984128 4.444444444444445,120.84656084656086 4.021164021164021,120.42328042328043 3.597883597883598,120.00000000000001 3.174603174603175,119.57671957671958 2.53968253968254,119.15343915343917 0.4232804232804233,117.03703703703705" style="fill:none; stroke:#00aa99; stroke-width:1.0"  /><polyline points="0.4232804232804233,117.03703703703705 2.3280423280423284,114.92063492063492 2.7513227513227516,114.49735449735451 3.174603174603175,114.07407407407408 3.597883597883598,113.65079365079366 4.021164021164021,113.22751322751324 4.444444444444445,112.5925925925926 4.867724867724868,112.16931216931218 5.291005291005291,111.74603174603176 5.714285714285714,111.32275132275133 6.137566137566138,110.6878306878307 6.560846560846561,110.26455026455027 6.984126984126985,109.84126984126985 7.407407407407408,109.41798941798943 7.830687830687832,108.78306878306879 8.253968253968255,108.35978835978837 8.677248677248677,107.93650793650795 9.100529100529101,107.3015873015873 9.523809523809524,106.87830687830689 9.947089947089948,106.45502645502647 10.370370370370372,106.03174603174604 10.793650793650794,105.3968253968254 11.216931216931219,104.97354497354497 11.640211640211641,104.55026455026456 12.063492063492065,103.91534391534393 12.486772486772487,103.4920634920635 12.910052910052912,103.06878306878308 13.333333333333334,102.64550264550266 13.756613756613758,102.01058201058201 14.17989417989418,101.5873015873016 14.603174603174605,101.16402116402116 15.026455026455027,100.74074074074075 15.449735449735451,100.31746031746033 15.873015873015873,99.8941798941799 16.296296296296298,99.25925925925927 16.71957671957672,98.83597883597885 17.142857142857146,98.41269841269842 17.566137566137566,97.989417989418 17.98941798941799,97.56613756613757 18.412698412698415,97.14285714285715 18.83597883597884,96.71957671957672 19.25925925925926,96.2962962962963 19.47089947089947,95.66137566137567 19.894179894179896,95.23809523809524 20.31746031746032,94.81481481481482 20.740740740740744,94.39153439153439 21.164021164021165,93.96825396825398 21.58730158730159,93.33333333333334 22.010582010582013,92.91005291005291 22.433862433862437,92.4867724867725 22.857142857142858,92.06349206349208 23.280423280423282,91.64021164021165 23.703703703703706,91.21693121693123 24.12698412698413,90.7936507936508 24.55026455026455,90.37037037037038 24.973544973544975,89.94708994708995 25.3968253968254,89.31216931216932 25.820105820105823,88.8888888888889 26.243386243386244,88.46560846560847 26.666666666666668,88.04232804232805 27.089947089947092,87.61904761904762 27.513227513227516,87.1957671957672 28.14814814814815,86.77248677248677 28.571428571428573,86.34920634920636 28.994708994708997,85.92592592592594 29.629629629629633,85.5026455026455 30.052910052910054,85.07936507936509 30.476190476190478,84.65608465608466 30.899470899470902,84.23280423280424 31.322751322751326,83.59788359788361 31.746031746031747,83.17460317460318 32.16931216931217,82.53968253968254 32.592592592592595,81.90476190476191 33.01587301587302,81.26984126984128 33.22751322751323,80.63492063492065 33.65079365079365,80.0 33.86243386243387,79.36507936507937 34.28571428571429,78.73015873015873 34.4973544973545,78.0952380952381 34.70899470899471,77.46031746031747 34.920634920634924,76.82539682539684 35.13227513227513,76.19047619047619 35.34391534391535,75.55555555555556 35.34391534391535,74.92063492063492 35.34391534391535,74.28571428571429 35.34391534391535,73.65079365079366 35.13227513227513,73.01587301587303 34.920634920634924,72.38095238095238 34.70899470899471,71.74603174603175 34.28571428571429,71.11111111111111 33.86243386243387,70.47619047619048 33.43915343915344,70.05291005291006 33.01587301587302,69.62962962962963 32.592592592592595,69.20634920634922 31.95767195767196,68.994708994709 31.53439153439154,68.57142857142858 30.899470899470902,68.14814814814815 30.264550264550266,67.93650793650794 29.629629629629633,67.72486772486774 28.994708994708997,67.3015873015873 28.35978835978836,67.08994708994709 27.724867724867728,67.08994708994709 27.089947089947092,66.87830687830689 26.455026455026456,66.66666666666667 25.820105820105823,66.66666666666667 25.185185185185187,66.45502645502646 24.55026455026455,66.24338624338625 23.915343915343918,66.03174603174604 23.280423280423282,66.03174603174604 22.645502645502646,65.82010582010582 22.010582010582013,65.60846560846561 21.375661375661377,65.60846560846561 20.740740740740744,65.3968253968254 20.105820105820108,65.18518518518519 19.47089947089947,65.18518518518519 18.83597883597884,65.18518518518519 18.201058201058203,65.18518518518519 17.566137566137566,64.97354497354497 16.931216931216934,64.97354497354497 16.296296296296298,64.76190476190477 15.661375661375663,64.76190476190477 15.026455026455027,64.55026455026456 14.391534391534393,64.55026455026456 13.756613756613758,64.33862433862434 13.121693121693122,64.12698412698413 12.486772486772487,63.91534391534392 11.851851851851853,63.70370370370371 11.216931216931219,63.280423280423285 10.582010582010582,62.85714285714286 9.947089947089948,62.64550264550265 9.523809523809524,62.22222222222223 8.88888888888889,61.798941798941804 8.253968253968255,61.37566137566138 7.6190476190476195,60.952380952380956 7.195767195767196,60.52910052910053 6.772486772486773,60.10582010582011 6.34920634920635,59.682539682539684 5.9259259259259265,59.25925925925927 5.502645502645503,58.83597883597884 5.07936507936508,58.2010582010582 4.656084656084657,57.777777777777786 4.2328042328042335,57.142857142857146 4.021164021164021,56.50793650793651 3.597883597883598,55.87301587301588 3.3862433862433865,55.23809523809524 2.9629629629629632,54.81481481481482 2.7513227513227516,54.179894179894184 2.7513227513227516,53.54497354497355 2.7513227513227516,52.91005291005291 2.7513227513227516,52.27513227513228 2.7513227513227516,51.640211640211646 2.7513227513227516,51.00529100529101 2.9629629629629632,50.370370370370374 3.174603174603175,49.73544973544974 3.3862433862433865,49.1005291005291 3.8095238095238098,48.46560846560847 4.021164021164021,47.830687830687836 4.444444444444445,47.40740740740741 4.867724867724868,46.77248677248678 5.291005291005291,46.13756613756614 5.714285714285714,45.714285714285715 6.137566137566138,45.07936507936508 6.560846560846561,44.65608465608466 6.984126984126985,44.232804232804234 7.407407407407408,43.80952380952381 7.830687830687832,43.386243386243386 8.253968253968255,42.96296296296297 8.677248677248677,42.539682539682545 9.100529100529101,42.11640211640212 9.523809523809524,41.6931216931217 9.947089947089948,41.26984126984127 10.582010582010582,40.84656084656085 11.005291005291006,40.423280423280424 11.640211640211641,40.0 12.275132275132275,39.57671957671958 12.910052910052912,39.15343915343916 13.544973544973546,38.730158730158735 14.17989417989418,38.30687830687831 14.814814814814817,37.883597883597886 15.449735449735451,37.67195767195768 15.873015873015873,37.248677248677254 16.50793650793651,37.03703703703704 17.142857142857146,36.82539682539683 17.77777777777778,36.402116402116405 18.412698412698415,36.19047619047619 19.047619047619047,35.97883597883598 19.47089947089947,35.55555555555556 20.105820105820108,35.55555555555556 20.740740740740744,35.13227513227513 21.375661375661377,35.13227513227513 22.010582010582013,34.920634920634924 22.645502645502646,34.70899470899471 23.280423280423282,34.4973544973545 23.915343915343918,34.4973544973545 24.55026455026455,34.4973544973545 25.185185185185187,34.4973544973545 25.820105820105823,34.4973544973545 26.455026455026456,34.4973544973545 27.089947089947092,34.4973544973545 27.724867724867728,34.70899470899471 28.35978835978836,34.920634920634924 28.994708994708997,34.920634920634924 29.41798941798942,35.34391534391535 30.052910052910054,35.55555555555556 30.68783068783069,35.55555555555556 31.111111111111114,35.97883597883598 31.746031746031747,36.19047619047619 32.38095238095239,36.402116402116405 32.804232804232804,36.82539682539683 33.43915343915344,37.248677248677254 34.074074074074076,37.46031746031746 34.4973544973545,37.883597883597886 34.920634920634924,38.30687830687831 35.34391534391535,38.730158730158735 35.76719576719577,39.15343915343916 36.19047619047619,39.57671957671958 36.613756613756614,40.0 37.03703703703704,40.423280423280424 37.46031746031746,40.84656084656085 37.883597883597886,41.48148148148149 38.095238095238095,42.11640211640212 38.51851851851852,42.539682539682545 38.94179894179894,43.17460317460318 39.36507936507937,43.80952380952381 39.57671957671958,44.44444444444445 40.0,45.07936507936508 40.211640211640216,45.714285714285715 40.63492063492064,46.349206349206355 40.84656084656085,46.98412698412699 41.26984126984127,47.61904761904762 41.6931216931217,48.25396825396826 42.11640211640212,48.88888888888889 42.539682539682545,49.523809523809526 42.96296296296297,49.94708994708995 43.5978835978836,50.370370370370374 44.021164021164026,50.7936507936508 44.65608465608466,51.21693121693122 45.29100529100529,51.42857142857143 45.92592592592593,51.640211640211646 46.560846560846564,51.851851851851855 47.195767195767196,52.27513227513228 47.830687830687836,52.27513227513228 48.46560846560847,52.27513227513228 49.1005291005291,52.48677248677249 49.73544973544974,52.48677248677249 50.370370370370374,52.48677248677249 51.00529100529101,52.48677248677249 51.640211640211646,52.27513227513228 52.27513227513228,52.06349206349207 52.91005291005291,51.640211640211646 53.54497354497355,51.21693121693122 54.179894179894184,50.7936507936508 54.60317460317461,50.158730158730165 55.02645502645503,49.73544973544974 55.449735449735456,49.1005291005291 55.661375661375665,48.46560846560847 56.08465608465609,47.830687830687836 56.50793650793651,47.195767195767196 56.71957671957672,46.560846560846564 56.93121693121694,45.92592592592593 57.142857142857146,45.29100529100529 57.142857142857146,44.65608465608466 57.35449735449736,44.021164021164026 57.35449735449736,43.386243386243386 57.56613756613757,42.75132275132275 57.56613756613757,42.11640211640212 57.56613756613757,41.48148148148149 57.777777777777786,40.84656084656085 57.777777777777786,40.211640211640216 57.777777777777786,39.57671957671958 57.989417989417994,38.94179894179894 57.989417989417994,38.30687830687831 58.2010582010582,37.67195767195768 58.2010582010582,37.03703703703704 58.2010582010582,36.402116402116405 58.41269841269842,35.76719576719577 58.41269841269842,35.13227513227513 58.62433862433863,34.4973544973545 58.62433862433863,33.86243386243387 58.83597883597884,33.22751322751323 59.04761904761905,32.592592592592595 59.25925925925927,31.95767195767196 59.25925925925927,31.322751322751326 59.470899470899475,30.68783068783069 59.682539682539684,30.052910052910054 59.682539682539684,29.41798941798942 59.8941798941799,28.783068783068785 60.10582010582011,28.14814814814815 60.31746031746032,27.513227513227516 60.52910052910053,26.87830687830688 60.74074074074075,26.243386243386244 60.74074074074075,25.60846560846561 60.952380952380956,24.973544973544975 61.16402116402117,24.338624338624342 61.37566137566138,23.703703703703706 61.58730158730159,23.06878306878307 61.58730158730159,22.433862433862437 61.798941798941804,21.7989417989418 62.01058201058201,21.164021164021165 62.22222222222223,20.529100529100532 62.43386243386244,19.894179894179896 62.43386243386244,19.25925925925926 62.64550264550265,18.624338624338627 62.85714285714286,17.98941798941799 63.06878306878308,17.354497354497354 63.280423280423285,16.71957671957672 63.492063492063494,16.084656084656086 63.70370370370371,15.449735449735451 63.91534391534392,14.814814814814817 64.12698412698413,14.17989417989418 64.33862433862434,13.544973544973546 64.76190476190477,12.910052910052912 64.76190476190477,12.275132275132275 65.18518518518519,11.640211640211641 65.3968253968254,11.005291005291006 65.60846560846561,10.370370370370372 65.82010582010582,9.735449735449736 66.03174603174604,9.100529100529101 67.51322751322752,5.07936507936508" style="fill:none; stroke:#3300bb; stroke-width:1.0"  /><circle cx="67.51322751322752" cy="5.07936507936508" r="2.0" style="fill:none; stroke:#000000aa; stroke-width:0.25" /><circle cx="170.7936507936508" cy="77.46031746031747" r="2.0" style="fill:none; stroke:#000000aa; stroke-width:0.25" /><circle cx="72.80423280423281" cy="170.58201058201058" r="2.0" style="fill:none; stroke:#000000aa; stroke-width:0.25" /><circle cx="0.4232804232804233" cy="117.03703703703705" r="2.0" style="fill:none; stroke:#000000aa; stroke-width:0.25" /><circle cx="67.08994708994709" cy="6.137566137566138" r="2.0" style="fill:none; stroke:#ff3366aa; stroke-width:0.25" /><circle cx="170.15873015873018" cy="77.88359788359789" r="2.0" style="fill:none; stroke:#ff3366aa; stroke-width:0.25" /><circle cx="73.22751322751323" cy="170.37037037037038" r="2.0" style="fill:none; stroke:#ff3366aa; stroke-width:0.25" /><circle cx="0.21164021164021166" cy="117.03703703703705" r="2.0" style="fill:none; stroke:#ff3366aa; stroke-width:0.25" /><polyline points="74.07407407407408,15.026455026455027 73.65079365079366,14.391534391534393 73.22751322751323,13.756613756613758 72.80423280423281,13.333333333333334 72.5925925925926,12.6984126984127 72.16931216931218,12.063492063492065 71.74603174603175,11.640211640211641 71.53439153439155,11.005291005291006 71.11111111111111,10.582010582010582 70.8994708994709,9.947089947089948 70.47619047619048,9.523809523809524 70.05291005291006,8.88888888888889 69.62962962962963,8.253968253968255" style="fill:none; stroke:#001100; stroke-width:1.0" /><polyline points="63.06878306878308,17.354497354497354 63.280423280423285,16.71957671957672 63.492063492063494,16.084656084656086 63.70370370370371,15.449735449735451 63.91534391534392,14.814814814814817 64.12698412698413,14.17989417989418 64.33862433862434,13.544973544973546 64.76190476190477,12.910052910052912 64.76190476190477,12.275132275132275 65.18518518518519,11.640211640211641 65.3968253968254,11.005291005291006 65.60846560846561,10.370370370370372 65.82010582010582,9.735449735449736 66.03174603174604,9.100529100529101" style="fill:none; stroke:#000011; stroke-width:1.0" /><polyline points="161.4814814814815,85.71428571428572 161.90476190476193,85.29100529100529 162.32804232804233,84.86772486772487 162.75132275132276,84.44444444444446 163.1746031746032,84.02116402116403 163.59788359788362,83.59788359788361 164.02116402116403,83.17460317460318 164.65608465608466,82.75132275132276 165.0793650793651,82.32804232804233 165.50264550264552,81.90476190476191 165.92592592592595,81.48148148148148 166.34920634920636,81.05820105820106 166.984126984127,80.63492063492065 167.61904761904762,80.21164021164022" style="fill:none; stroke:#001100; stroke-width:1.0" /><polyline points="160.84656084656086,70.47619047619048 161.4814814814815,70.8994708994709 162.11640211640213,71.11111111111111 162.53968253968256,71.53439153439155 163.1746031746032,71.95767195767196 163.80952380952382,72.16931216931218 164.23280423280426,72.5925925925926 164.8677248677249,73.01587301587303 165.50264550264552,73.43915343915344 166.13756613756615,73.86243386243387 166.56084656084658,74.28571428571429 167.19576719576722,74.70899470899471 167.61904761904762,75.13227513227514 168.04232804232805,75.55555555555556" style="fill:none; stroke:#000011; stroke-width:1.0" /><polyline points="63.91534391534392,163.3862433862434 64.33862433862434,163.80952380952382 64.97354497354497,164.23280423280426 65.3968253968254,164.65608465608466 66.03174603174604,165.0793650793651 66.66666666666667,165.50264550264552 67.08994708994709,165.92592592592595 67.72486772486774,166.34920634920636 68.14814814814815,166.7724867724868 68.57142857142858,167.19576719576722 69.20634920634922,167.61904761904762 69.62962962962963,168.04232804232805 70.26455026455027,168.46560846560848" style="fill:none; stroke:#001100; stroke-width:1.0" /><polyline points="82.53968253968254,163.3862433862434 82.11640211640213,163.80952380952382 81.48148148148148,164.23280423280426 80.84656084656085,164.65608465608466 80.21164021164022,165.0793650793651 79.57671957671958,165.50264550264552 78.94179894179895,165.92592592592595 78.51851851851852,166.34920634920636 77.88359788359789,166.7724867724868 77.24867724867725,167.19576719576722 76.61375661375662,167.61904761904762 76.19047619047619,168.04232804232805 75.55555555555556,168.46560846560848" style="fill:none; stroke:#000011; stroke-width:1.0" /><polyline points="8.253968253968255,108.35978835978837 7.830687830687832,108.78306878306879 7.407407407407408,109.41798941798943 6.984126984126985,109.84126984126985 6.560846560846561,110.26455026455027 6.137566137566138,110.6878306878307 5.714285714285714,111.32275132275133 5.291005291005291,111.74603174603176 4.867724867724868,112.16931216931218 4.444444444444445,112.5925925925926 4.021164021164021,113.22751322751324 3.597883597883598,113.65079365079366 3.174603174603175,114.07407407407408 2.7513227513227516,114.49735449735451 2.3280423280423284,114.92063492063492" style="fill:none; stroke:#001100; stroke-width:1.0" /><polyline points="8.88888888888889,125.07936507936509 8.465608465608467,124.65608465608466 7.830687830687832,124.23280423280424 7.407407407407408,123.80952380952382 6.984126984126985,123.3862433862434 6.560846560846561,122.96296296296298 6.137566137566138,122.53968253968254 5.714285714285714,122.11640211640213 5.291005291005291,121.6931216931217 4.867724867724868,121.26984126984128 4.444444444444445,120.84656084656086 4.021164021164021,120.42328042328043 3.597883597883598,120.00000000000001 3.174603174603175,119.57671957671958 2.53968253968254,119.15343915343917" style="fill:none; stroke:#000011; stroke-width:1.0" /><polyline points="69.62962962962963,8.253968253968255 57.989417989417994,-9.523809523809524" style="fill:none; stroke:#ffaa00; stroke-width:0.4" /><polyline points="66.03174603174604,9.100529100529101 73.22751322751323,-10.793650793650794" style="fill:none; stroke:#aaff00; stroke-width:0.4" /><polyline points="167.61904761904762,80.21164021164022 183.2804232804233,66.03174603174604" style="fill:none; stroke:#ffaa00; stroke-width:0.4" /><polyline points="168.04232804232805,75.55555555555556 185.39682539682542,87.83068783068784" style="fill:none; stroke:#aaff00; stroke-width:0.4" /><polyline points="70.26455026455027,168.46560846560848 86.77248677248677,181.5873015873016" style="fill:none; stroke:#ffaa00; stroke-width:0.4" /><polyline points="75.55555555555556,168.46560846560848 58.41269841269842,180.95238095238096" style="fill:none; stroke:#aaff00; stroke-width:0.4" /><polyline points="2.3280423280423284,114.92063492063492 -11.851851851851853,130.58201058201058" style="fill:none; stroke:#ffaa00; stroke-width:0.4" /><polyline points="2.53968253968254,119.15343915343917 -12.910052910052912,104.76190476190477" style="fill:none; stroke:#aaff00; stroke-width:0.4" /><circle cx="89.31216931216932" cy="88.25396825396827" r="1.0" style="fill:#444444; stroke-width:0" /><circle cx="97.35449735449737" cy="96.50793650793652" r="10.582010582010582" style="fill:#ff770022; stroke-width:0" /><circle cx="97.35449735449737" cy="96.50793650793652" r="1.0" style="fill:#ff7700; stroke-width:0" /></svg>