<?xml version="1.0" encoding="UTF-8" standalone="no"?><svg width="459.6825396825397" height="617.1428571428572" viewBox="-10 -10 173.22751322751324 225.71428571428572" xmlns="http://www.w3.org/2000/svg" xmlns:xlink="http://www.w3.org/1999/xlink"><polyline points="0.0,-0.21164021164021166 4.021164021164021,0.21164021164021166 4.656084656084657,0.4232804232804233 5.291005291005291,0.4232804232804233 5.9259259259259265,0.634920634920635 6.560846560846561,0.634920634920635 7.195767195767196,0.634920634920635 7.830687830687832,0.634920634920635 8.465608465608467,0.634920634920635 9.100529100529101,0.8465608465608466 9.735449735449736,1.0582010582010584 10.370370370370372,0.8465608465608466 11.005291005291006,0.8465608465608466 11.640211640211641,1.0582010582010584 12.275132275132275,1.26984126984127 12.910052910052912,1.26984126984127 13.544973544973546,1.26984126984127 14.17989417989418,1.4814814814814816 14.814814814814817,1.4814814814814816 15.449735449735451,1.6931216931216932 16.084656084656086,1.6931216931216932 16.71957671957672,1.6931216931216932 17.354497354497354,1.9047619047619049 17.98941798941799,1.9047619047619049 18.624338624338627,1.6931216931216932 19.047619047619047,2.1164021164021167 19.682539682539684,1.9047619047619049 20.31746031746032,2.1164021164021167 20.952380952380953,2.3280423280423284 21.58730158730159,2.1164021164021167 22.222222222222225,2.3280423280423284 22.857142857142858,2.3280423280423284 23.492063492063494,2.3280423280423284 24.12698412698413,2.53968253968254 24.761904761904763,2.3280423280423284 25.3968253968254,2.53968253968254 26.031746031746035,2.53968253968254 26.666666666666668,2.7513227513227516 27.301587301587304,2.9629629629629632 27.93650793650794,2.9629629629629632 28.571428571428573,3.174603174603175 29.20634920634921,2.9629629629629632 29.629629629629633,3.3862433862433865 30.264550264550266,3.3862433862433865 30.899470899470902,3.3862433862433865 31.53439153439154,3.597883597883598 32.16931216931217,3.597883597883598 32.804232804232804,3.8095238095238098 33.43915343915344,3.8095238095238098 34.074074074074076,4.021164021164021 34.70899470899471,4.021164021164021 35.34391534391535,4.2328042328042335 35.97883597883598,4.444444444444445 36.613756613756614,4.444444444444445 37.248677248677254,4.656084656084657 37.883597883597886,4.444444444444445 38.51851851851852,4.656084656084657 39.15343915343916,4.867724867724868 39.78835978835979,4.867724867724868 40.423280423280424,5.07936507936508 41.058201058201064,5.07936507936508 41.6931216931217,5.291005291005291 42.32804232804233,5.502645502645503 42.96296296296297,5.502645502645503 43.5978835978836,5.502645502645503 44.232804232804234,5.714285714285714 44.867724867724874,5.9259259259259265 45.50264550264551,5.9259259259259265 46.13756613756614,6.137566137566138 46.77248677248678,6.137566137566138 47.40740740740741,6.34920634920635 48.042328042328045,6.34920634920635 48.677248677248684,6.560846560846561 49.31216931216932,6.772486772486773 49.94708994708995,6.772486772486773 50.58201058201058,6.984126984126985 51.21693121693122,7.195767195767196 51.851851851851855,7.195767195767196 52.48677248677249,7.407407407407408 53.12169312169313,7.6190476190476195 53.75661375661376,7.6190476190476195 54.39153439153439,7.6190476190476195 55.02645502645503,8.042328042328043 55.661375661375665,8.042328042328043 56.2962962962963,8.253968253968255 56.93121693121694,8.253968253968255 57.56613756613757,8.042328042328043 58.2010582010582,8.465608465608467 58.83597883597884,8.677248677248677 59.470899470899475,8.677248677248677 60.10582010582011,8.677248677248677 60.52910052910053,9.100529100529101 61.16402116402117,9.100529100529101 61.798941798941804,9.312169312169313 62.43386243386244,9.523809523809524 63.06878306878308,9.523809523809524 63.70370370370371,9.735449735449736 64.33862433862434,9.947089947089948 64.97354497354497,9.947089947089948 65.60846560846561,10.15873015873016 66.24338624338625,10.370370370370372 66.87830687830689,10.582010582010582 67.51322751322752,10.793650793650794 68.14814814814815,10.793650793650794 68.78306878306879,11.005291005291006 69.41798941798942,11.216931216931219 70.05291005291006,11.428571428571429 70.6878306878307,11.428571428571429 71.32275132275133,11.640211640211641 71.95767195767196,11.851851851851853 72.5925925925926,12.063492063492065 73.22751322751323,12.275132275132275 73.86243386243387,12.275132275132275 74.49735449735451,12.486772486772487 75.13227513227514,12.910052910052912 75.76719576719577,13.121693121693122 76.4021164021164,13.333333333333334 77.03703703703704,13.544973544973546 77.67195767195767,13.96825396825397 78.30687830687832,14.391534391534393 78.94179894179895,14.814814814814817 79.36507936507937,15.238095238095239 79.7883597883598,15.661375661375663 80.21164021164022,16.296296296296298 80.42328042328043,16.931216931216934 80.63492063492065,17.566137566137566 80.84656084656085,18.201058201058203 80.84656084656085,18.83597883597884 80.84656084656085,19.47089947089947 80.84656084656085,20.105820105820108 80.63492063492065,20.740740740740744 80.42328042328043,21.375661375661377 80.21164021164022,22.010582010582013 80.0,22.645502645502646 79.57671957671958,23.280423280423282 79.15343915343917,23.915343915343918 78.94179894179895,24.55026455026455 78.51851851851852,25.185185185185187 78.0952380952381,25.60846560846561 77.67195767195767,26.031746031746035 77.24867724867725,26.455026455026456 76.82539682539684,27.089947089947092 76.4021164021164,27.724867724867728 75.97883597883599,28.14814814814815 75.55555555555556,28.571428571428573 75.13227513227514,28.994708994708997 74.70899470899471,29.629629629629633 74.28571428571429,30.052910052910054 73.86243386243387,30.68783068783069 73.43915343915344,31.322751322751326 73.01587301587303,31.746031746031747 72.5925925925926,32.16931216931217 72.16931216931218,32.804232804232804 71.74603174603175,33.22751322751323 71.32275132275133,33.86243386243387 70.8994708994709,34.28571428571429 70.47619047619048,34.920634920634924 70.05291005291006,35.55555555555556 69.62962962962963,35.97883597883598 69.20634920634922,36.402116402116405 68.78306878306879,37.03703703703704 68.35978835978837,37.67195767195768 67.93650793650794,38.30687830687831 67.51322751322752,38.94179894179894 67.3015873015873,39.57671957671958 67.08994708994709,40.211640211640216 66.66666666666667,40.63492063492064 66.45502645502646,41.26984126984127 66.24338624338625,41.904761904761905 66.03174603174604,42.539682539682545 65.82010582010582,43.17460317460318 65.60846560846561,43.80952380952381 65.60846560846561,44.44444444444445 65.3968253968254,45.07936507936508 65.3968253968254,45.714285714285715 65.3968253968254,46.349206349206355 65.3968253968254,46.98412698412699 65.3968253968254,47.61904761904762 65.3968253968254,48.25396825396826 65.3968253968254,48.88888888888889 65.60846560846561,49.523809523809526 65.60846560846561,50.158730158730165 65.82010582010582,50.7936507936508 66.03174603174604,51.42857142857143 66.24338624338625,52.06349206349207 66.66666666666667,52.6984126984127 66.87830687830689,53.333333333333336 67.3015873015873,53.75661375661376 67.72486772486774,54.39153439153439 68.14814814814815,55.02645502645503 68.57142857142858,55.661375661375665 68.994708994709,56.08465608465609 69.41798941798942,56.50793650793651 69.84126984126985,56.93121693121694 70.26455026455027,57.35449735449736 70.8994708994709,57.777777777777786 71.32275132275133,58.2010582010582 71.95767195767196,58.62433862433863 72.38095238095238,59.04761904761905 73.01587301587303,59.25925925925927 73.65079365079366,59.470899470899475 74.28571428571429,59.8941798941799 74.92063492063492,60.10582010582011 75.34391534391536,60.52910052910053 75.97883597883599,60.74074074074075 76.61375661375662,60.952380952380956 77.24867724867725,61.16402116402117 77.88359788359789,61.58730158730159 78.51851851851852,61.798941798941804 79.15343915343917,62.22222222222223 79.7883597883598,62.43386243386244 80.42328042328043,62.64550264550265 81.05820105820106,63.06878306878308 81.6931216931217,63.280423280423285 82.32804232804233,63.492063492063494 82.96296296296298,63.70370370370371 83.59788359788361,63.91534391534392 84.23280423280424,64.12698412698413 84.86772486772487,64.12698412698413 85.29100529100529,64.55026455026456 85.92592592592594,64.55026455026456 86.56084656084657,64.76190476190477 87.1957671957672,64.76190476190477 87.83068783068784,64.55026455026456 88.46560846560847,64.76190476190477 88.8888888888889,65.18518518518519 89.52380952380953,65.18518518518519 90.15873015873017,65.18518518518519 90.7936507936508,65.18518518518519 91.42857142857143,65.18518518518519 91.85185185185186,64.76190476190477 92.4867724867725,64.55026455026456 93.12169312169313,64.76190476190477 93.75661375661376,64.55026455026456 94.39153439153439,64.33862433862434 95.02645502645504,64.12698412698413 95.66137566137567,63.91534391534392 96.2962962962963,63.70370370370371 96.93121693121694,63.492063492063494 97.56613756613757,63.280423280423285 98.2010582010582,63.06878306878308 98.83597883597885,62.64550264550265 99.47089947089948,62.22222222222223 100.10582010582011,61.798941798941804 100.74074074074075,61.37566137566138 101.37566137566138,60.952380952380956 102.01058201058201,60.52910052910053 102.43386243386244,60.10582010582011 102.85714285714286,59.682539682539684 103.28042328042329,59.04761904761905 103.70370370370371,58.62433862433863 104.12698412698414,58.2010582010582 104.55026455026456,57.777777777777786 104.97354497354497,57.142857142857146 105.3968253968254,56.71957671957672 105.82010582010582,56.2962962962963 106.24338624338625,55.661375661375665 106.45502645502647,55.02645502645503 106.66666666666667,54.39153439153439 107.0899470899471,53.75661375661376 107.3015873015873,53.12169312169313 107.3015873015873,52.48677248677249 107.51322751322752,51.851851851851855 107.72486772486774,51.21693121693122 107.72486772486774,50.58201058201058 107.72486772486774,49.94708994708995 107.72486772486774,49.31216931216932 107.72486772486774,48.677248677248684 107.72486772486774,48.042328042328045 107.51322751322752,47.40740740740741 107.3015873015873,46.77248677248678 107.0899470899471,46.13756613756614 106.87830687830689,45.50264550264551 106.45502645502647,44.867724867724874 106.24338624338625,44.232804232804234 106.03174603174604,43.5978835978836 105.82010582010582,42.96296296296297 105.3968253968254,42.32804232804233 105.18518518518519,41.6931216931217 104.97354497354497,41.058201058201064 104.55026455026456,40.423280423280424 104.33862433862434,39.78835978835979 103.91534391534393,39.15343915343916 103.70370370370371,38.51851851851852 103.4920634920635,37.883597883597886 103.28042328042329,37.248677248677254 103.06878306878308,36.613756613756614 102.85714285714286,35.97883597883598 102.64550264550266,35.34391534391535 102.22222222222223,34.70899470899471 102.22222222222223,34.074074074074076 102.01058201058201,33.43915343915344 101.79894179894181,32.804232804232804 102.01058201058201,32.16931216931217 101.79894179894181,31.53439153439154 101.79894179894181,30.899470899470902 101.79894179894181,30.264550264550266 102.01058201058201,29.629629629629633 102.01058201058201,28.994708994708997 102.22222222222223,28.35978835978836 102.43386243386244,27.724867724867728 102.85714285714286,27.089947089947092 103.28042328042329,26.455026455026456 103.70370370370371,25.820105820105823 104.12698412698414,25.3968253968254 104.55026455026456,24.973544973544975 105.18518518518519,24.55026455026455 105.82010582010582,24.338624338624342 106.45502645502647,24.12698412698413 107.0899470899471,24.12698412698413 107.72486772486774,24.12698412698413 108.35978835978837,24.12698412698413 108.994708994709,23.915343915343918 109.62962962962963,23.915343915343918 110.6878306878307,23.703703703703706 111.32275132275133,23.915343915343918 111.95767195767196,23.915343915343918 112.5925925925926,23.703703703703706 113.22751322751324,23.915343915343918 113.86243386243387,23.703703703703706 114.49735449735451,23.703703703703706 115.13227513227514,23.703703703703706 115.76719576719577,23.703703703703706 116.4021164021164,23.703703703703706 117.03703703703705,23.703703703703706 117.67195767195768,23.492063492063494 118.30687830687832,23.492063492063494 118.94179894179895,23.492063492063494 119.57671957671958,23.492063492063494 120.00000000000001,23.915343915343918 120.63492063492065,23.703703703703706 121.26984126984128,23.703703703703706 121.90476190476191,23.703703703703706 122.53968253968254,23.703703703703706 123.17460317460318,23.703703703703706 123.80952380952382,23.915343915343918 124.44444444444446,23.915343915343918 125.07936507936509,23.915343915343918 125.71428571428572,24.12698412698413 126.34920634920636,24.12698412698413 126.98412698412699,23.915343915343918 127.61904761904763,23.703703703703706 128.25396825396825,23.915343915343918 128.88888888888889,23.915343915343918 129.52380952380955,23.915343915343918 130.15873015873018,23.915343915343918 130.7936507936508,23.915343915343918 131.42857142857144,23.915343915343918 132.06349206349208,23.915343915343918 132.6984126984127,23.915343915343918 133.33333333333334,23.915343915343918 133.96825396825398,23.915343915343918 134.6031746031746,23.915343915343918 135.23809523809524,24.12698412698413 135.87301587301587,24.12698412698413 136.5079365079365,24.12698412698413 139.6825396825397,24.338624338624342" style="fill:none; stroke:#cc0000; stroke-width:1.0"  /><polyline points="139.6825396825397,24.338624338624342 139.6825396825397,27.724867724867728 139.6825396825397,28.35978835978836 139.6825396825397,28.994708994708997 139.6825396825397,29.629629629629633 139.6825396825397,30.264550264550266 139.6825396825397,30.899470899470902 139.6825396825397,31.53439153439154 139.6825396825397,32.16931216931217 139.6825396825397,32.804232804232804 139.6825396825397,33.43915343915344 139.6825396825397,34.074074074074076 139.6825396825397,34.70899470899471 139.6825396825397,35.34391534391535 139.6825396825397,35.97883597883598 139.6825396825397,36.613756613756614 139.6825396825397,37.248677248677254 139.6825396825397,37.883597883597886 139.6825396825397,38.51851851851852 139.6825396825397,39.15343915343916 139.6825396825397,39.78835978835979 139.47089947089947,40.423280423280424 139.47089947089947,41.058201058201064 139.47089947089947,41.6931216931217 139.47089947089947,42.32804232804233 139.47089947089947,42.96296296296297 139.47089947089947,43.5978835978836 139.47089947089947,44.232804232804234 139.47089947089947,44.867724867724874 139.25925925925927,45.50264550264551 139.25925925925927,46.13756613756614 139.25925925925927,46.77248677248678 139.04761904761907,47.40740740740741 139.04761904761907,48.042328042328045 139.04761904761907,48.677248677248684 139.04761904761907,49.31216931216932 138.83597883597884,49.94708994708995 138.83597883597884,50.58201058201058 138.83597883597884,51.21693121693122 138.62433862433863,51.851851851851855 138.62433862433863,52.48677248677249 138.62433862433863,53.12169312169313 138.41269841269843,53.75661375661376 138.41269841269843,54.39153439153439 138.2010582010582,55.02645502645503 138.2010582010582,55.661375661375665 138.2010582010582,56.2962962962963 137.989417989418,56.93121693121694 137.7777777777778,57.56613756613757 137.7777777777778,58.2010582010582 137.56613756613757,58.83597883597884 137.56613756613757,59.470899470899475 137.56613756613757,60.10582010582011 137.35449735449737,60.74074074074075 137.14285714285717,61.37566137566138 137.14285714285717,62.01058201058201 136.93121693121694,62.64550264550265 136.71957671957674,63.280423280423285 136.71957671957674,63.91534391534392 136.5079365079365,64.55026455026456 136.2962962962963,65.18518518518519 136.0846560846561,65.82010582010582 135.87301587301587,66.45502645502646 135.66137566137567,67.08994708994709 135.44973544973547,67.72486772486774 135.23809523809524,68.35978835978837 135.02645502645504,68.994708994709 134.81481481481484,69.62962962962963 134.6031746031746,70.26455026455027 134.6031746031746,70.8994708994709 134.17989417989418,71.53439153439155 133.96825396825398,72.16931216931218 133.75661375661377,72.80423280423281 133.54497354497354,73.43915343915344 133.33333333333334,74.07407407407408 133.12169312169314,74.70899470899471 132.9100529100529,75.34391534391536 132.6984126984127,75.97883597883599 132.4867724867725,76.61375661375662 132.27513227513228,77.24867724867725 132.06349206349208,77.88359788359789 131.85185185185185,78.51851851851852 131.64021164021165,79.15343915343917 131.42857142857144,79.7883597883598 131.005291005291,80.42328042328043 130.7936507936508,81.05820105820106 130.58201058201058,81.6931216931217 130.37037037037038,82.32804232804233 130.15873015873018,82.96296296296298 129.73544973544975,83.59788359788361 129.52380952380955,84.23280423280424 129.31216931216932,84.86772486772487 129.10052910052912,85.5026455026455 128.67724867724868,86.13756613756614 128.46560846560848,86.77248677248677 128.25396825396825,87.40740740740742 128.04232804232805,88.04232804232805 127.83068783068784,88.67724867724868 127.40740740740742,89.31216931216932 127.1957671957672,89.94708994708995 126.98412698412699,90.58201058201058 126.77248677248679,91.21693121693123 126.56084656084657,91.85185185185186 126.34920634920636,92.4867724867725 125.92592592592594,93.12169312169313 125.71428571428572,93.75661375661376 125.71428571428572,94.39153439153439 125.5026455026455,95.02645502645504 125.2910052910053,95.66137566137567 124.86772486772487,96.2962962962963 124.65608465608466,96.93121693121694 124.44444444444446,97.56613756613757 124.23280423280424,98.2010582010582 124.02116402116403,98.83597883597885 123.59788359788361,99.47089947089948 123.3862433862434,100.10582010582011 123.17460317460318,100.74074074074075 122.96296296296298,101.37566137566138 122.75132275132276,102.01058201058201 122.53968253968254,102.64550264550266 122.32804232804234,103.28042328042329 121.90476190476191,103.91534391534393 121.6931216931217,104.55026455026456 121.4814814814815,105.18518518518519 121.26984126984128,105.82010582010582 121.05820105820106,106.45502645502647 120.84656084656086,107.0899470899471 120.63492063492065,107.72486772486774 120.42328042328043,108.35978835978837 120.21164021164022,108.994708994709 120.00000000000001,109.62962962962963 119.7883597883598,110.26455026455027 119.57671957671958,110.89947089947091 119.36507936507937,111.53439153439155 119.15343915343917,112.16931216931218 119.15343915343917,112.80423280423281 118.94179894179895,113.43915343915344 118.73015873015873,114.07407407407408 118.51851851851853,114.70899470899472 118.30687830687832,115.34391534391536 118.30687830687832,115.97883597883599 118.0952380952381,116.61375661375662 117.88359788359789,117.24867724867725 117.67195767195768,117.88359788359789 117.67195767195768,118.51851851851853 117.46031746031747,119.15343915343917 117.24867724867725,119.7883597883598 117.03703703703705,120.42328042328043 117.03703703703705,121.05820105820106 116.82539682539684,121.6931216931217 116.61375661375662,122.32804232804234 116.61375661375662,122.96296296296298 116.4021164021164,123.59788359788361 116.4021164021164,124.23280423280424 116.4021164021164,124.86772486772487 116.1904761904762,125.5026455026455 116.1904761904762,126.13756613756615 116.1904761904762,126.77248677248679 116.1904761904762,127.40740740740742 116.1904761904762,128.04232804232805 116.1904761904762,128.67724867724868 116.4021164021164,129.31216931216932 116.61375661375662,129.94708994708995 116.61375661375662,130.58201058201058 116.61375661375662,131.21693121693121 116.82539682539684,131.85185185185185 117.03703703703705,132.4867724867725 117.03703703703705,133.12169312169314 117.46031746031747,133.54497354497354 117.88359788359789,134.17989417989418 118.0952380952381,134.81481481481484 118.51851851851853,135.23809523809524 118.94179894179895,135.66137566137567 119.36507936507937,136.0846560846561 120.00000000000001,136.5079365079365 120.63492063492065,136.93121693121694 121.26984126984128,137.14285714285717 121.90476190476191,137.35449735449737 122.53968253968254,137.35449735449737 123.17460317460318,137.56613756613757 123.80952380952382,137.7777777777778 124.44444444444446,137.7777777777778 125.07936507936509,137.989417989418 125.71428571428572,137.989417989418 126.34920634920636,137.989417989418 126.98412698412699,137.7777777777778 127.61904761904763,137.56613756613757 128.25396825396825,137.35449735449737 128.88888888888889,137.35449735449737 129.52380952380955,137.14285714285717 130.15873015873018,137.14285714285717 130.7936507936508,136.93121693121694 131.42857142857144,136.93121693121694 132.06349206349208,136.71957671957674 132.6984126984127,136.71957671957674 133.33333333333334,136.5079365079365 133.96825396825398,136.5079365079365 134.6031746031746,136.5079365079365 135.23809523809524,136.2962962962963 135.87301587301587,136.2962962962963 136.5079365079365,136.2962962962963 137.14285714285717,136.5079365079365 137.7777777777778,136.5079365079365 138.41269841269843,136.5079365079365 139.04761904761907,136.5079365079365 139.6825396825397,136.5079365079365 140.31746031746033,136.5079365079365 140.95238095238096,136.71957671957674 141.5873015873016,136.71957671957674 142.22222222222223,136.71957671957674 142.85714285714286,136.71957671957674 143.4920634920635,136.71957671957674 144.12698412698413,136.93121693121694 144.76190476190476,137.14285714285717 145.39682539682542,137.35449735449737 146.03174603174605,137.56613756613757 146.66666666666669,137.7777777777778 147.30158730158732,137.989417989418 147.93650793650795,138.2010582010582 148.14814814814815,138.83597883597884 148.57142857142858,139.25925925925927 149.20634920634922,139.47089947089947 149.62962962962965,139.8941798941799 150.05291005291005,140.31746031746033 150.26455026455028,140.95238095238096 150.6878306878307,141.5873015873016 151.11111111111111,142.22222222222223 151.32275132275134,142.85714285714286 151.53439153439155,143.4920634920635 151.74603174603175,144.12698412698413 151.95767195767198,144.76190476190476 152.16931216931218,145.39682539682542 152.38095238095238,146.03174603174605 152.38095238095238,146.66666666666669 152.5925925925926,147.30158730158732 152.5925925925926,147.93650793650795 152.5925925925926,148.57142857142858 152.8042328042328,149.20634920634922 152.8042328042328,149.84126984126985 152.8042328042328,150.47619047619048 152.8042328042328,151.11111111111111 152.8042328042328,151.74603174603175 152.8042328042328,152.38095238095238 152.5925925925926,153.01587301587304 152.5925925925926,153.65079365079367 152.38095238095238,154.2857142857143 152.38095238095238,154.92063492063494 152.16931216931218,155.55555555555557 152.16931216931218,156.1904761904762 151.95767195767198,156.82539682539684 151.74603174603175,157.46031746031747 151.53439153439155,158.0952380952381 151.11111111111111,158.73015873015873 150.8994708994709,159.36507936507937 150.6878306878307,160.0 150.26455026455028,160.42328042328043 149.84126984126985,161.05820105820106 149.41798941798942,161.6931216931217 148.99470899470901,162.32804232804233 148.35978835978838,162.75132275132276 147.93650793650795,163.1746031746032 147.30158730158732,163.59788359788362 146.66666666666669,163.80952380952382 146.24338624338625,164.23280423280426 145.60846560846562,164.44444444444446 144.973544973545,164.65608465608466 144.33862433862436,164.65608465608466 143.70370370370372,164.8677248677249 143.0687830687831,164.8677248677249 142.43386243386246,164.8677248677249 141.7989417989418,164.8677248677249 141.16402116402116,164.8677248677249 140.52910052910053,164.8677248677249 139.8941798941799,164.8677248677249 139.25925925925927,164.8677248677249 138.62433862433863,164.65608465608466 137.989417989418,164.44444444444446 137.35449735449737,164.44444444444446 136.71957671957674,164.23280423280426 136.0846560846561,164.02116402116403 135.44973544973547,163.80952380952382 134.81481481481484,163.59788359788362 134.17989417989418,163.1746031746032 133.54497354497354,162.96296296296296 133.12169312169314,162.53968253968256 132.4867724867725,162.32804232804233 131.85185185185185,161.90476190476193 131.21693121693121,161.6931216931217 130.58201058201058,161.2698412698413 129.94708994708995,161.05820105820106 129.31216931216932,160.63492063492066 128.67724867724868,160.42328042328043 128.04232804232805,160.21164021164023 127.40740740740742,160.21164021164023 126.77248677248679,160.0 126.13756613756615,159.7883597883598 125.5026455026455,159.5767195767196 124.86772486772487,159.5767195767196 124.23280423280424,159.36507936507937 123.59788359788361,159.36507936507937 122.96296296296298,159.36507936507937 122.32804232804234,159.5767195767196 121.6931216931217,159.5767195767196 121.05820105820106,159.7883597883598 120.42328042328043,160.0 119.7883597883598,160.21164021164023 119.36507936507937,160.63492063492066 118.94179894179895,161.05820105820106 118.30687830687832,161.4814814814815 117.88359788359789,162.11640211640213 117.46031746031747,162.75132275132276 117.24867724867725,163.3862433862434 116.82539682539684,164.02116402116403 117.03703703703705,164.65608465608466 116.82539682539684,165.2910052910053 116.61375661375662,165.92592592592595 116.61375661375662,166.56084656084658 116.61375661375662,167.19576719576722 116.61375661375662,167.83068783068785 116.82539682539684,168.46560846560848 116.82539682539684,169.10052910052912 116.82539682539684,169.73544973544975 117.03703703703705,170.37037037037038 117.03703703703705,171.005291005291 117.24867724867725,171.64021164021165 117.24867724867725,172.27513227513228 117.46031746031747,172.9100529100529 117.46031746031747,173.54497354497354 117.67195767195768,174.1798941798942 117.67195767195768,174.81481481481484 117.67195767195768,175.44973544973547 117.88359788359789,176.0846560846561 117.88359788359789,176.71957671957674 118.0952380952381,177.35449735449737 118.0952380952381,177.989417989418 118.30687830687832,178.62433862433863 118.30687830687832,179.25925925925927 118.30687830687832,179.8941798941799 118.51851851851853,180.52910052910053 118.51851851851853,181.16402116402116 118.73015873015873,181.79894179894183 118.73015873015873,182.43386243386246 118.94179894179895,183.0687830687831 118.94179894179895,183.70370370370372 119.15343915343917,184.33862433862436 119.15343915343917,184.973544973545 119.36507936507937,185.60846560846562 119.36507936507937,186.24338624338625 119.57671957671958,186.8783068783069 119.57671957671958,187.51322751322752 119.7883597883598,188.14814814814815 120.00000000000001,188.78306878306879 120.00000000000001,189.41798941798945 120.21164021164022,190.05291005291008 120.21164021164022,190.6878306878307 120.42328042328043,191.32275132275134 120.42328042328043,191.95767195767198 120.63492063492065,192.5925925925926 120.63492063492065,193.22751322751324 120.84656084656086,193.86243386243387 121.05820105820106,194.4973544973545 121.05820105820106,195.13227513227514 121.05820105820106,195.76719576719577 121.26984126984128,196.4021164021164 121.4814814814815,197.03703703703704 121.6931216931217,197.6719576719577 121.6931216931217,198.30687830687833 121.90476190476191,198.94179894179896 122.11640211640213,199.5767195767196 122.32804232804234,200.21164021164023 122.32804232804234,200.84656084656086 122.32804232804234,201.4814814814815 122.53968253968254,202.11640211640213 123.3862433862434,205.92592592592595" style="fill:none; stroke:#999900; stroke-width:1.0"  /><polyline points="123.3862433862434,205.92592592592595 119.36507936507937,204.44444444444446 118.73015873015873,204.02116402116403 118.0952380952381,203.80952380952382 117.46031746031747,203.59788359788362 116.82539682539684,203.3862433862434 116.1904761904762,203.1746031746032 115.55555555555557,202.962962962963 114.92063492063492,202.75132275132276 114.28571428571429,202.53968253968256 113.65079365079366,202.32804232804233 113.01587301587303,202.11640211640213 112.3809523809524,201.90476190476193 111.74603174603176,201.6931216931217 111.11111111111111,201.4814814814815 110.47619047619048,201.2698412698413 109.84126984126985,201.05820105820106 109.20634920634922,200.84656084656086 108.57142857142858,200.63492063492066 107.93650793650795,200.42328042328043 107.3015873015873,200.21164021164023 106.66666666666667,200.00000000000003 106.03174603174604,199.7883597883598 105.3968253968254,199.5767195767196 104.76190476190477,199.36507936507937 104.12698412698414,199.15343915343917 103.4920634920635,198.94179894179896 102.85714285714286,198.73015873015873 102.22222222222223,198.51851851851853 101.5873015873016,198.30687830687833 100.95238095238096,198.0952380952381 100.31746031746033,197.6719576719577 99.68253968253968,197.46031746031747 99.04761904761905,197.24867724867727 98.41269841269842,197.03703703703704 97.77777777777779,196.82539682539684 97.14285714285715,196.4021164021164 96.50793650793652,196.1904761904762 95.87301587301587,195.978835978836 95.23809523809524,195.76719576719577 94.60317460317461,195.34391534391537 93.96825396825398,195.13227513227514 93.33333333333334,194.92063492063494 92.69841269841271,194.70899470899474 92.06349206349208,194.4973544973545 91.42857142857143,194.2857142857143 90.7936507936508,193.86243386243387 90.15873015873017,193.65079365079367 89.73544973544975,193.22751322751324 89.1005291005291,193.01587301587304 88.46560846560847,192.5925925925926 87.83068783068784,192.3809523809524 87.1957671957672,191.95767195767198 86.56084656084657,191.53439153439155 85.92592592592594,191.32275132275134 85.29100529100529,190.8994708994709 84.65608465608466,190.6878306878307 84.02116402116403,190.26455026455028 83.3862433862434,189.84126984126985 82.75132275132276,189.41798941798945 82.11640211640213,188.99470899470901 81.48148148148148,188.78306878306879 81.05820105820106,188.35978835978838 80.42328042328043,188.14814814814815 80.0,187.72486772486775 79.36507936507937,187.51322751322752 78.73015873015873,187.08994708994712 78.30687830687832,186.66666666666669 77.67195767195767,186.24338624338625 77.24867724867725,185.82010582010582 76.61375661375662,185.39682539682542 75.97883597883599,184.973544973545 75.55555555555556,184.55026455026456 75.13227513227514,184.12698412698415 74.92063492063492,183.4920634920635 74.49735449735451,182.85714285714286 74.28571428571429,182.22222222222223 74.28571428571429,181.5873015873016 74.28571428571429,180.95238095238096 74.49735449735451,180.31746031746033 74.49735449735451,179.6825396825397 74.70899470899471,179.04761904761907 74.92063492063492,178.41269841269843 75.13227513227514,177.7777777777778 75.34391534391536,177.14285714285717 75.76719576719577,176.71957671957674 76.19047619047619,176.0846560846561 76.61375661375662,175.66137566137567 77.03703703703704,175.23809523809524 77.46031746031747,174.81481481481484 78.0952380952381,174.3915343915344 78.73015873015873,173.96825396825398 79.36507936507937,173.54497354497354 79.7883597883598,173.12169312169314 80.42328042328043,172.9100529100529 81.05820105820106,172.6984126984127 81.6931216931217,172.27513227513228 82.32804232804233,172.06349206349208 82.75132275132276,171.64021164021165 83.3862433862434,171.21693121693124 84.02116402116403,170.7936507936508 84.65608465608466,170.37037037037038 85.29100529100529,169.94708994708995 85.71428571428572,169.52380952380955 86.13756613756614,169.10052910052912 86.56084656084657,168.67724867724868 86.98412698412699,168.25396825396825 87.40740740740742,167.83068783068785 87.83068783068784,167.40740740740742 88.25396825396827,166.7724867724868 88.67724867724868,166.13756613756615 89.1005291005291,165.50264550264552 89.31216931216932,164.8677248677249 89.31216931216932,164.23280423280426 89.52380952380953,163.59788359788362 89.73544973544975,162.96296296296296 89.94708994708995,162.32804232804233 89.94708994708995,161.6931216931217 89.94708994708995,161.05820105820106 89.94708994708995,160.42328042328043 89.94708994708995,159.7883597883598 89.73544973544975,159.15343915343917 89.52380952380953,158.51851851851853 89.31216931216932,157.8835978835979 89.1005291005291,157.24867724867727 88.67724867724868,156.61375661375664 88.25396825396827,155.978835978836 87.83068783068784,155.55555555555557 87.40740740740742,155.13227513227514 86.98412698412699,154.7089947089947 86.56084656084657,154.2857142857143 85.92592592592594,153.86243386243387 85.5026455026455,153.43915343915344 84.86772486772487,153.01587301587304 84.23280423280424,152.8042328042328 83.59788359788361,152.38095238095238 82.96296296296298,152.16931216931218 82.32804232804233,151.74603174603175 81.6931216931217,151.32275132275134 81.05820105820106,151.11111111111111 80.42328042328043,150.8994708994709 79.7883597883598,150.6878306878307 79.15343915343917,150.26455026455028 78.51851851851852,150.05291005291005 77.88359788359789,149.84126984126985 77.24867724867725,149.62962962962965 76.61375661375662,149.41798941798942 75.97883597883599,149.20634920634922 75.34391534391536,148.99470899470901 74.70899470899471,148.78306878306879 74.07407407407408,148.78306878306879 73.43915343915344,148.57142857142858 72.80423280423281,148.35978835978838 72.16931216931218,148.35978835978838 71.53439153439155,148.14814814814815 70.8994708994709,147.93650793650795 70.26455026455027,147.72486772486775 69.62962962962963,147.72486772486775 68.994708994709,147.51322751322752 68.35978835978837,147.51322751322752 67.72486772486774,147.30158730158732 67.08994708994709,147.30158730158732 66.45502645502646,147.0899470899471 65.82010582010582,147.0899470899471 65.18518518518519,146.8783068783069 64.55026455026456,146.8783068783069 63.91534391534392,146.8783068783069 63.280423280423285,146.8783068783069 62.64550264550265,146.8783068783069 62.01058201058201,146.8783068783069 61.37566137566138,146.66666666666669 60.74074074074075,146.66666666666669 60.10582010582011,146.8783068783069 59.470899470899475,146.8783068783069 58.83597883597884,146.8783068783069 58.2010582010582,146.8783068783069 57.56613756613757,147.0899470899471 56.93121693121694,147.0899470899471 56.2962962962963,147.0899470899471 55.661375661375665,147.30158730158732 55.02645502645503,147.30158730158732 54.39153439153439,147.30158730158732 53.75661375661376,147.30158730158732 53.12169312169313,147.51322751322752 52.48677248677249,147.72486772486775 51.851851851851855,147.93650793650795 51.21693121693122,148.14814814814815 50.58201058201058,148.57142857142858 49.94708994708995,148.78306878306879 49.31216931216932,149.20634920634922 48.88888888888889,149.62962962962965 48.46560846560847,150.05291005291005 48.042328042328045,150.47619047619048 47.830687830687836,151.11111111111111 47.61904761904762,151.74603174603175 47.195767195767196,152.38095238095238 46.77248677248678,153.01587301587304 46.77248677248678,153.65079365079367 46.77248677248678,154.2857142857143 46.560846560846564,154.92063492063494 46.349206349206355,155.55555555555557 46.560846560846564,156.1904761904762 46.349206349206355,156.82539682539684 46.349206349206355,157.46031746031747 46.349206349206355,158.0952380952381 46.560846560846564,158.73015873015873 46.560846560846564,159.36507936507937 46.77248677248678,160.0 46.77248677248678,160.63492063492066 46.98412698412699,161.2698412698413 47.195767195767196,161.90476190476193 47.40740740740741,162.53968253968256 47.830687830687836,163.1746031746032 48.042328042328045,163.80952380952382 48.46560846560847,164.44444444444446 48.88888888888889,165.0793650793651 49.1005291005291,165.71428571428572 49.31216931216932,166.34920634920636 49.73544973544974,166.7724867724868 49.73544973544974,167.40740740740742 49.94708994708995,168.04232804232805 49.94708994708995,168.67724867724868 49.73544973544974,169.31216931216932 49.73544973544974,169.94708994708995 49.73544973544974,170.58201058201058 49.31216931216932,171.21693121693124 49.1005291005291,171.85185185185188 48.677248677248684,172.4867724867725 48.25396825396826,173.12169312169314 47.830687830687836,173.54497354497354 47.40740740740741,173.96825396825398 46.98412698412699,174.3915343915344 46.560846560846564,174.81481481481484 45.92592592592593,175.02645502645504 45.29100529100529,175.23809523809524 44.65608465608466,175.44973544973547 44.021164021164026,175.66137566137567 43.386243386243386,175.87301587301587 42.75132275132275,175.87301587301587 42.11640211640212,175.87301587301587 41.48148148148149,175.66137566137567 40.84656084656085,175.66137566137567 40.211640211640216,175.44973544973547 39.57671957671958,175.23809523809524 38.94179894179894,174.81481481481484 38.30687830687831,174.6031746031746 37.67195767195768,174.3915343915344 37.03703703703704,173.96825396825398 36.402116402116405,173.54497354497354 35.76719576719577,173.33333333333334 35.34391534391535,172.9100529100529 34.70899470899471,172.4867724867725 34.074074074074076,172.27513227513228 33.43915343915344,171.85185185185188 32.804232804232804,171.42857142857144 32.16931216931217,171.005291005291 31.53439153439154,170.58201058201058 30.899470899470902,170.37037037037038 30.476190476190478,169.94708994708995 29.841269841269842,169.52380952380955 29.20634920634921,169.31216931216932 28.783068783068785,168.8888888888889 28.14814814814815,168.67724867724868 27.724867724867728,168.25396825396825 27.089947089947092,167.83068783068785 26.455026455026456,167.40740740740742 25.820105820105823,167.19576719576722 25.185185185185187,166.7724867724868 24.55026455026455,166.56084656084658 23.915343915343918,166.13756613756615 23.280423280423282,165.71428571428572 22.645502645502646,165.71428571428572 22.010582010582013,165.2910052910053 21.375661375661377,165.0793650793651 20.740740740740744,164.65608465608466 20.105820105820108,164.44444444444446 19.47089947089947,164.23280423280426 18.83597883597884,164.02116402116403 18.201058201058203,163.59788359788362 17.566137566137566,163.1746031746032 16.931216931216934,162.96296296296296 16.296296296296298,162.75132275132276 15.661375661375663,162.32804232804233 15.026455026455027,162.11640211640213 14.391534391534393,161.6931216931217 13.756613756613758,161.4814814814815 13.121693121693122,161.2698412698413 12.486772486772487,161.05820105820106 11.851851851851853,160.63492063492066 11.216931216931219,160.42328042328043 10.582010582010582,160.21164021164023 9.947089947089948,160.0 9.312169312169313,159.5767195767196 8.677248677248677,159.36507936507937 8.042328042328043,159.15343915343917 7.407407407407408,158.94179894179896 6.772486772486773,158.51851851851853 6.137566137566138,158.30687830687833 5.502645502645503,158.0952380952381 4.867724867724868,157.8835978835979 4.2328042328042335,157.67195767195767 3.597883597883598,157.46031746031747 0.634920634920635,156.1904761904762" style="fill:none; stroke:#00aa99; stroke-width:1.0"  /><polyline points="0.634920634920635,156.1904761904762 0.8465608465608466,152.8042328042328 1.0582010582010584,152.16931216931218 1.0582010582010584,151.53439153439155 1.26984126984127,150.8994708994709 1.26984126984127,150.26455026455028 1.26984126984127,149.62962962962965 1.4814814814814816,148.99470899470901 1.4814814814814816,148.35978835978838 1.4814814814814816,147.72486772486775 1.4814814814814816,147.0899470899471 1.4814814814814816,146.45502645502646 1.4814814814814816,145.82010582010582 1.4814814814814816,145.1851851851852 1.4814814814814816,144.55026455026456 1.4814814814814816,143.91534391534393 1.4814814814814816,143.2804232804233 1.4814814814814816,142.64550264550266 1.4814814814814816,142.01058201058203 1.4814814814814816,141.3756613756614 1.4814814814814816,140.74074074074076 1.4814814814814816,140.10582010582013 1.4814814814814816,139.47089947089947 1.4814814814814816,138.83597883597884 1.26984126984127,138.2010582010582 1.26984126984127,137.56613756613757 1.26984126984127,136.93121693121694 1.26984126984127,136.2962962962963 1.26984126984127,135.66137566137567 1.26984126984127,135.02645502645504 1.0582010582010584,134.3915343915344 1.0582010582010584,133.75661375661377 1.0582010582010584,133.12169312169314 1.0582010582010584,132.4867724867725 1.0582010582010584,131.85185185185185 0.8465608465608466,131.21693121693121 0.8465608465608466,130.58201058201058 0.8465608465608466,129.94708994708995 0.634920634920635,129.31216931216932 0.4232804232804233,128.67724867724868 0.4232804232804233,128.04232804232805 0.4232804232804233,127.40740740740742 0.4232804232804233,126.77248677248679 0.21164021164021166,126.13756613756615 0.21164021164021166,125.5026455026455 0.21164021164021166,124.86772486772487 0.21164021164021166,124.23280423280424 0.21164021164021166,123.59788359788361 0.21164021164021166,122.96296296296298 0.21164021164021166,122.32804232804234 0.21164021164021166,121.6931216931217 0.21164021164021166,121.05820105820106 0.4232804232804233,120.42328042328043 0.4232804232804233,119.7883597883598 0.4232804232804233,119.15343915343917 0.634920634920635,118.51851851851853 0.8465608465608466,117.88359788359789 0.8465608465608466,117.24867724867725 0.8465608465608466,116.61375661375662 1.0582010582010584,115.97883597883599 1.26984126984127,115.34391534391536 1.4814814814814816,114.70899470899472 1.6931216931216932,114.07407407407408 1.6931216931216932,113.43915343915344 1.9047619047619049,112.80423280423281 2.1164021164021167,112.16931216931218 2.53968253968254,111.74603174603176 2.7513227513227516,111.11111111111111 2.9629629629629632,110.47619047619048 3.3862433862433865,109.84126984126985 3.8095238095238098,109.20634920634922 4.2328042328042335,108.78306878306879 4.656084656084657,108.35978835978837 5.291005291005291,107.93650793650795 5.9259259259259265,107.72486772486774 6.560846560846561,107.51322751322752 7.195767195767196,107.51322751322752 7.830687830687832,107.3015873015873 8.465608465608467,107.51322751322752 9.100529100529101,107.51322751322752 9.735449735449736,107.72486772486774 10.370370370370372,107.93650793650795 10.793650793650794,108.35978835978837 11.428571428571429,108.78306878306879 12.063492063492065,109.20634920634922 12.486772486772487,109.62962962962963 12.910052910052912,110.05291005291006 13.333333333333334,110.47619047619048 13.756613756613758,110.89947089947091 14.17989417989418,111.32275132275133 14.603174603174605,111.74603174603176 15.026455026455027,112.16931216931218 15.449735449735451,112.5925925925926 15.873015873015873,113.22751322751324 16.296296296296298,113.86243386243387 16.71957671957672,114.28571428571429 17.142857142857146,114.70899470899472 17.566137566137566,115.13227513227514 17.98941798941799,115.55555555555557 18.412698412698415,115.97883597883599 18.83597883597884,116.61375661375662 19.25925925925926,117.03703703703705 19.682539682539684,117.46031746031747 20.105820105820108,117.88359788359789 20.740740740740744,118.30687830687832 21.164021164021165,118.73015873015873 21.7989417989418,119.15343915343917 22.433862433862437,119.57671957671958 23.06878306878307,119.57671957671958 23.703703703703706,119.7883597883598 24.338624338624342,120.00000000000001 24.973544973544975,120.21164021164022 25.60846560846561,120.00000000000001 26.243386243386244,120.00000000000001 26.87830687830688,120.00000000000001 27.513227513227516,119.7883597883598 28.14814814814815,119.57671957671958 28.783068783068785,119.15343915343917 29.41798941798942,118.73015873015873 29.841269841269842,118.30687830687832 30.476190476190478,117.88359788359789 30.899470899470902,117.46031746031747 31.322751322751326,117.03703703703705 31.746031746031747,116.61375661375662 32.16931216931217,116.1904761904762 32.592592592592595,115.76719576719577 33.01587301587302,115.13227513227514 33.43915343915344,114.70899470899472 33.86243386243387,114.07407407407408 34.28571428571429,113.65079365079366 34.70899470899471,113.01587301587303 35.13227513227513,112.3809523809524 35.34391534391535,111.74603174603176 35.76719576719577,111.11111111111111 35.97883597883598,110.47619047619048 36.402116402116405,109.84126984126985 36.613756613756614,109.20634920634922 36.82539682539683,108.57142857142858 37.03703703703704,107.93650793650795 37.248677248677254,107.3015873015873 37.46031746031746,106.66666666666667 37.67195767195768,106.03174603174604 37.883597883597886,105.3968253968254 38.095238095238095,104.76190476190477 38.30687830687831,104.12698412698414 38.51851851851852,103.4920634920635 38.730158730158735,102.85714285714286 38.730158730158735,102.22222222222223 38.94179894179894,101.5873015873016 39.15343915343916,100.95238095238096 39.15343915343916,100.31746031746033 39.36507936507937,99.68253968253968 39.57671957671958,99.04761904761905 39.57671957671958,98.41269841269842 39.78835978835979,97.77777777777779 40.0,97.14285714285715 40.0,96.50793650793652 40.211640211640216,95.87301587301587 40.211640211640216,95.23809523809524 40.211640211640216,94.60317460317461 40.0,93.96825396825398 40.211640211640216,93.33333333333334 40.211640211640216,92.69841269841271 40.211640211640216,92.06349206349208 40.211640211640216,91.42857142857143 40.211640211640216,90.7936507936508 40.211640211640216,90.15873015873017 40.211640211640216,89.52380952380953 40.211640211640216,88.8888888888889 40.0,88.25396825396827 40.0,87.61904761904762 39.78835978835979,86.98412698412699 39.36507936507937,86.34920634920636 39.15343915343916,85.71428571428572 38.730158730158735,85.29100529100529 38.30687830687831,84.65608465608466 37.883597883597886,84.23280423280424 37.248677248677254,83.80952380952381 36.82539682539683,83.3862433862434 36.19047619047619,82.96296296296298 35.55555555555556,82.75132275132276 34.920634920634924,82.53968253968254 34.28571428571429,82.32804232804233 33.65079365079365,82.11640211640213 33.01587301587302,81.90476190476191 32.38095238095239,81.6931216931217 31.746031746031747,81.6931216931217 31.111111111111114,81.6931216931217 30.476190476190478,81.6931216931217 29.841269841269842,81.6931216931217 29.20634920634921,81.90476190476191 28.571428571428573,81.90476190476191 27.93650793650794,82.11640211640213 27.301587301587304,82.32804232804233 26.666666666666668,82.53968253968254 26.031746031746035,82.75132275132276 25.3968253968254,82.96296296296298 24.761904761904763,83.17460317460318 24.12698412698413,83.3862433862434 23.492063492063494,83.59788359788361 22.857142857142858,83.80952380952381 22.433862433862437,84.23280423280424 21.7989417989418,84.44444444444446 21.164021164021165,84.65608465608466 20.529100529100532,84.65608465608466 19.894179894179896,84.86772486772487 19.25925925925926,84.86772486772487 18.624338624338627,84.86772486772487 17.98941798941799,84.86772486772487 17.354497354497354,84.86772486772487 16.71957671957672,84.65608465608466 16.296296296296298,84.23280423280424 15.661375661375663,84.02116402116403 15.238095238095239,83.59788359788361 14.814814814814817,82.96296296296298 14.391534391534393,82.53968253968254 14.17989417989418,81.90476190476191 13.96825396825397,81.26984126984128 13.756613756613758,80.63492063492065 13.756613756613758,80.0 13.544973544973546,79.36507936507937 13.544973544973546,78.73015873015873 13.544973544973546,78.0952380952381 13.544973544973546,77.46031746031747 13.544973544973546,76.82539682539684 13.544973544973546,76.19047619047619 13.544973544973546,75.55555555555556 13.544973544973546,74.92063492063492 13.544973544973546,74.28571428571429 13.756613756613758,73.65079365079366 13.756613756613758,73.01587301587303 13.756613756613758,72.38095238095238 13.756613756613758,71.74603174603175 13.756613756613758,71.11111111111111 13.756613756613758,70.47619047619048 13.756613756613758,69.84126984126985 13.756613756613758,69.20634920634922 13.756613756613758,68.57142857142858 13.96825396825397,67.93650793650794 13.96825396825397,67.3015873015873 13.96825396825397,66.66666666666667 13.96825396825397,66.03174603174604 13.96825396825397,65.3968253968254 13.96825396825397,64.76190476190477 13.96825396825397,64.12698412698413 13.96825396825397,63.492063492063494 13.96825396825397,62.85714285714286 13.96825396825397,62.22222222222223 13.96825396825397,61.58730158730159 13.96825396825397,60.952380952380956 13.96825396825397,60.31746031746032 13.96825396825397,59.682539682539684 13.756613756613758,59.04761904761905 13.756613756613758,58.41269841269842 13.756613756613758,57.777777777777786 13.756613756613758,57.142857142857146 13.544973544973546,56.50793650793651 13.544973544973546,55.87301587301588 13.544973544973546,55.23809523809524 13.544973544973546,54.60317460317461 13.544973544973546,53.968253968253975 13.544973544973546,53.333333333333336 13.544973544973546,52.6984126984127 13.333333333333334,52.06349206349207 13.333333333333334,51.42857142857143 13.333333333333334,50.7936507936508 13.333333333333334,50.158730158730165 13.121693121693122,49.523809523809526 13.121693121693122,48.88888888888889 13.121693121693122,48.25396825396826 13.121693121693122,47.61904761904762 12.910052910052912,46.98412698412699 12.910052910052912,46.349206349206355 12.6984126984127,45.714285714285715 12.6984126984127,45.07936507936508 12.6984126984127,44.44444444444445 12.486772486772487,43.80952380952381 12.486772486772487,43.17460317460318 12.275132275132275,42.539682539682545 12.275132275132275,41.904761904761905 12.063492063492065,41.26984126984127 12.063492063492065,40.63492063492064 12.063492063492065,40.0 11.851851851851853,39.36507936507937 11.640211640211641,38.730158730158735 11.640211640211641,38.095238095238095 11.428571428571429,37.46031746031746 11.428571428571429,36.82539682539683 11.216931216931219,36.19047619047619 11.216931216931219,35.55555555555556 11.005291005291006,34.920634920634924 11.005291005291006,34.28571428571429 10.793650793650794,33.65079365079365 10.582010582010582,33.01587301587302 10.370370370370372,32.38095238095239 10.370370370370372,31.746031746031747 10.15873015873016,31.111111111111114 9.947089947089948,30.476190476190478 9.947089947089948,29.841269841269842 9.735449735449736,29.20634920634921 9.523809523809524,28.571428571428573 9.312169312169313,27.93650793650794 9.100529100529101,27.301587301587304 8.88888888888889,26.666666666666668 8.677248677248677,26.031746031746035 8.677248677248677,25.3968253968254 8.465608465608467,24.761904761904763 8.042328042328043,24.338624338624342 7.830687830687832,23.703703703703706 7.6190476190476195,23.06878306878307 7.407407407407408,22.433862433862437 7.195767195767196,21.7989417989418 6.984126984126985,21.164021164021165 6.984126984126985,20.529100529100532 6.772486772486773,19.894179894179896 6.560846560846561,19.25925925925926 6.34920634920635,18.624338624338627 6.137566137566138,17.98941798941799 5.9259259259259265,17.354497354497354 5.714285714285714,16.71957671957672 5.502645502645503,16.084656084656086 5.291005291005291,15.449735449735451 5.07936507936508,14.814814814814817 4.867724867724868,14.17989417989418 4.656084656084657,13.544973544973546 4.444444444444445,12.910052910052912 4.2328042328042335,12.275132275132275 4.021164021164021,11.640211640211641 3.8095238095238098,11.005291005291006 3.597883597883598,10.370370370370372 3.3862433862433865,9.735449735449736 3.174603174603175,9.100529100529101 2.9629629629629632,8.465608465608467 2.7513227513227516,7.830687830687832 2.53968253968254,7.195767195767196 2.3280423280423284,6.560846560846561 2.1164021164021167,5.9259259259259265 1.9047619047619049,5.291005291005291 1.6931216931216932,4.656084656084657 1.4814814814814816,4.021164021164021 1.26984126984127,3.3862433862433865 0.0,-0.21164021164021166" style="fill:none; stroke:#3300bb; stroke-width:1.0"  /><circle cx="0.0" cy="-0.21164021164021166" r="2.0" style="fill:none; stroke:#000000aa; stroke-width:0.25" /><circle cx="139.6825396825397" cy="24.338624338624342" r="2.0" style="fill:none; stroke:#000000aa; stroke-width:0.25" /><circle cx="123.3862433862434" cy="205.92592592592595" r="2.0" style="fill:none; stroke:#000000aa; stroke-width:0.25" /><circle cx="0.634920634920635" cy="156.1904761904762" r="2.0" style="fill:none; stroke:#000000aa; stroke-width:0.25" /><circle cx="0.8465608465608466" cy="0.4232804232804233" r="2.0" style="fill:none; stroke:#ff3366aa; stroke-width:0.25" /><circle cx="139.47089947089947" cy="24.55026455026455" r="2.0" style="fill:none; stroke:#ff3366aa; stroke-width:0.25" /><circle cx="122.53968253968254" cy="205.29100529100532" r="2.0" style="fill:none; stroke:#ff3366aa; stroke-width:0.25" /><circle cx="0.8465608465608466" cy="155.978835978836" r="2.0" style="fill:none; stroke:#ff3366aa; stroke-width:0.25" /><polyline points="12.275132275132275,1.26984126984127 11.640211640211641,1.0582010582010584 11.005291005291006,0.8465608465608466 10.370370370370372,0.8465608465608466 9.735449735449736,1.0582010582010584 9.100529100529101,0.8465608465608466 8.465608465608467,0.634920634920635 7.830687830687832,0.634920634920635 7.195767195767196,0.634920634920635 6.560846560846561,0.634920634920635 5.9259259259259265,0.634920634920635 5.291005291005291,0.4232804232804233 4.656084656084657,0.4232804232804233 4.021164021164021,0.21164021164021166" style="fill:none; stroke:#001100; stroke-width:1.0" /><polyline points="4.021164021164021,11.640211640211641 3.8095238095238098,11.005291005291006 3.597883597883598,10.370370370370372 3.3862433862433865,9.735449735449736 3.174603174603175,9.100529100529101 2.9629629629629632,8.465608465608467 2.7513227513227516,7.830687830687832 2.53968253968254,7.195767195767196 2.3280423280423284,6.560846560846561 2.1164021164021167,5.9259259259259265 1.9047619047619049,5.291005291005291 1.6931216931216932,4.656084656084657 1.4814814814814816,4.021164021164021 1.26984126984127,3.3862433862433865" style="fill:none; stroke:#000011; stroke-width:1.0" /><polyline points="139.6825396825397,35.97883597883598 139.6825396825397,35.34391534391535 139.6825396825397,34.70899470899471 139.6825396825397,34.074074074074076 139.6825396825397,33.43915343915344 139.6825396825397,32.804232804232804 139.6825396825397,32.16931216931217 139.6825396825397,31.53439153439154 139.6825396825397,30.899470899470902 139.6825396825397,30.264550264550266 139.6825396825397,29.629629629629633 139.6825396825397,28.994708994708997 139.6825396825397,28.35978835978836 139.6825396825397,27.724867724867728" style="fill:none; stroke:#001100; stroke-width:1.0" /><polyline points="127.61904761904763,23.703703703703706 128.25396825396825,23.915343915343918 128.88888888888889,23.915343915343918 129.52380952380955,23.915343915343918 130.15873015873018,23.915343915343918 130.7936507936508,23.915343915343918 131.42857142857144,23.915343915343918 132.06349206349208,23.915343915343918 132.6984126984127,23.915343915343918 133.33333333333334,23.915343915343918 133.96825396825398,23.915343915343918 134.6031746031746,23.915343915343918 135.23809523809524,24.12698412698413 135.87301587301587,24.12698412698413 136.5079365079365,24.12698412698413" style="fill:none; stroke:#000011; stroke-width:1.0" /><polyline points="111.11111111111111,201.4814814814815 111.74603174603176,201.6931216931217 112.3809523809524,201.90476190476193 113.01587301587303,202.11640211640213 113.65079365079366,202.32804232804233 114.28571428571429,202.53968253968256 114.92063492063492,202.75132275132276 115.55555555555557,202.962962962963 116.1904761904762,203.1746031746032 116.82539682539684,203.3862433862434 117.46031746031747,203.59788359788362 118.0952380952381,203.80952380952382 118.73015873015873,204.02116402116403 119.36507936507937,204.44444444444446" style="fill:none; stroke:#001100; stroke-width:1.0" /><polyline points="120.84656084656086,193.86243386243387 121.05820105820106,194.4973544973545 121.05820105820106,195.13227513227514 121.05820105820106,195.76719576719577 121.26984126984128,196.4021164021164 121.4814814814815,197.03703703703704 121.6931216931217,197.6719576719577 121.6931216931217,198.30687830687833 121.90476190476191,198.94179894179896 122.11640211640213,199.5767195767196 122.32804232804234,200.21164021164023 122.32804232804234,200.84656084656086 122.32804232804234,201.4814814814815 122.53968253968254,202.11640211640213" style="fill:none; stroke:#000011; stroke-width:1.0" /><polyline points="1.4814814814814816,144.55026455026456 1.4814814814814816,145.1851851851852 1.4814814814814816,145.82010582010582 1.4814814814814816,146.45502645502646 1.4814814814814816,147.0899470899471 1.4814814814814816,147.72486772486775 1.4814814814814816,148.35978835978838 1.4814814814814816,148.99470899470901 1.26984126984127,149.62962962962965 1.26984126984127,150.26455026455028 1.26984126984127,150.8994708994709 1.0582010582010584,151.53439153439155 1.0582010582010584,152.16931216931218 0.8465608465608466,152.8042328042328" style="fill:none; stroke:#001100; stroke-width:1.0" /><polyline points="11.851851851851853,160.63492063492066 11.216931216931219,160.42328042328043 10.582010582010582,160.21164021164023 9.947089947089948,160.0 9.312169312169313,159.5767195767196 8.677248677248677,159.36507936507937 8.042328042328043,159.15343915343917 7.407407407407408,158.94179894179896 6.772486772486773,158.51851851851853 6.137566137566138,158.30687830687833 5.502645502645503,158.0952380952381 4.867724867724868,157.8835978835979 4.2328042328042335,157.67195767195767 3.597883597883598,157.46031746031747" style="fill:none; stroke:#000011; stroke-width:1.0" /><polyline points="4.021164021164021,0.21164021164021166 -16.931216931216934,-2.53968253968254" style="fill:none; stroke:#ffaa00; stroke-width:0.4" /><polyline points="1.26984126984127,3.3862433862433865 -5.502645502645503,-16.71957671957672" style="fill:none; stroke:#aaff00; stroke-width:0.4" /><polyline points="139.6825396825397,27.724867724867728 139.6825396825397,6.560846560846561" style="fill:none; stroke:#ffaa00; stroke-width:0.4" /><polyline points="136.5079365079365,24.12698412698413 157.67195767195767,25.185185185185187" style="fill:none; stroke:#aaff00; stroke-width:0.4" /><polyline points="119.36507936507937,204.44444444444446 139.25925925925927,211.64021164021165" style="fill:none; stroke:#ffaa00; stroke-width:0.4" /><polyline points="122.53968253968254,202.11640211640213 126.77248677248679,222.85714285714286" style="fill:none; stroke:#aaff00; stroke-width:0.4" /><polyline points="0.8465608465608466,152.8042328042328 -0.8465608465608466,173.96825396825398" style="fill:none; stroke:#ffaa00; stroke-width:0.4" /><polyline points="3.597883597883598,157.46031746031747 -16.084656084656086,149.84126984126985" style="fill:none; stroke:#aaff00; stroke-width:0.4" /><circle cx="71.74603174603175" cy="97.56613756613757" r="1.0" style="fill:#444444; stroke-width:0" /><circle cx="79.15343915343917" cy="106.66666666666667" r="10.582010582010582" style="fill:#ff770022; stroke-width:0" /><circle cx="79.15343915343917" cy="106.66666666666667" r="1.0" style="fill:#ff7700; stroke-width:0" /></svg>