<?xml version="1.0" encoding="UTF-8" standalone="no"?><svg width="552.3809523809524" height="574.6031746031747" viewBox="-10 -10 204.12698412698415 211.53439153439155" xmlns="http://www.w3.org/2000/svg" xmlns:xlink="http://www.w3.org/1999/xlink"><polyline points="-0.4232804232804233,77.88359788359789 2.7513227513227516,75.55555555555556 3.3862433862433865,75.34391534391536 4.021164021164021,74.92063492063492 4.656084656084657,74.70899470899471 5.291005291005291,74.28571428571429 5.714285714285714,73.86243386243387 6.137566137566138,73.43915343915344 6.772486772486773,73.01587301587303 7.195767195767196,72.5925925925926 7.830687830687832,72.38095238095238 8.253968253968255,71.74603174603175 8.88888888888889,71.32275132275133 9.523809523809524,70.8994708994709 9.947089947089948,70.47619047619048 10.582010582010582,70.05291005291006 11.216931216931219,69.62962962962963 11.640211640211641,69.20634920634922 12.275132275132275,68.78306878306879 12.6984126984127,68.35978835978837 13.121693121693122,67.93650793650794 13.544973544973546,67.51322751322752 14.17989417989418,67.08994708994709 14.603174603174605,66.66666666666667 15.238095238095239,66.24338624338625 15.661375661375663,65.82010582010582 16.084656084656086,65.3968253968254 16.71957671957672,64.97354497354497 17.142857142857146,64.55026455026456 17.566137566137566,64.12698412698413 17.98941798941799,63.70370370370371 18.412698412698415,63.280423280423285 18.83597883597884,62.85714285714286 19.25925925925926,62.43386243386244 19.894179894179896,62.01058201058201 20.31746031746032,61.58730158730159 20.740740740740744,61.16402116402117 21.164021164021165,60.74074074074075 21.58730158730159,60.31746031746032 22.010582010582013,59.8941798941799 22.433862433862437,59.25925925925927 22.857142857142858,58.83597883597884 23.280423280423282,58.41269841269842 23.703703703703706,57.989417989417994 24.12698412698413,57.56613756613757 24.55026455026455,57.142857142857146 24.973544973544975,56.71957671957672 25.185185185185187,56.08465608465609 25.60846560846561,55.661375661375665 26.031746031746035,55.23809523809524 26.455026455026456,54.81481481481482 26.87830687830688,54.179894179894184 27.301587301587304,53.75661375661376 27.724867724867728,53.12169312169313 28.14814814814815,52.6984126984127 28.571428571428573,52.27513227513228 28.994708994708997,51.851851851851855 29.41798941798942,51.42857142857143 29.841269841269842,51.00529100529101 30.264550264550266,50.370370370370374 30.68783068783069,49.94708994708995 31.111111111111114,49.523809523809526 31.53439153439154,49.1005291005291 31.95767195767196,48.677248677248684 32.592592592592595,48.46560846560847 32.804232804232804,47.830687830687836 33.43915343915344,48.042328042328045 34.074074074074076,48.042328042328045 34.70899470899471,48.042328042328045 35.34391534391535,48.25396825396826 35.97883597883598,48.46560846560847 36.613756613756614,48.677248677248684 37.248677248677254,48.88888888888889 37.883597883597886,49.31216931216932 38.30687830687831,49.73544973544974 38.730158730158735,50.158730158730165 39.15343915343916,50.58201058201058 39.57671957671958,51.21693121693122 39.78835978835979,51.851851851851855 40.0,52.48677248677249 40.211640211640216,53.12169312169313 40.63492063492064,53.75661375661376 40.63492063492064,54.39153439153439 40.84656084656085,55.02645502645503 41.058201058201064,55.661375661375665 41.058201058201064,56.2962962962963 41.48148148148149,56.71957671957672 41.48148148148149,57.35449735449736 41.6931216931217,57.989417989417994 41.6931216931217,58.62433862433863 41.6931216931217,59.25925925925927 41.904761904761905,59.8941798941799 42.11640211640212,60.52910052910053 42.32804232804233,61.16402116402117 42.539682539682545,61.798941798941804 42.75132275132275,62.43386243386244 43.17460317460318,63.06878306878308 43.386243386243386,63.70370370370371 43.80952380952381,64.12698412698413 44.232804232804234,64.76190476190477 44.65608465608466,65.18518518518519 45.07936507936508,65.82010582010582 45.50264550264551,66.24338624338625 45.92592592592593,66.66666666666667 46.349206349206355,67.08994708994709 46.98412698412699,67.51322751322752 47.40740740740741,67.93650793650794 48.042328042328045,68.35978835978837 48.677248677248684,68.78306878306879 49.31216931216932,68.994708994709 49.94708994708995,69.20634920634922 50.58201058201058,69.41798941798942 51.21693121693122,69.62962962962963 51.851851851851855,69.84126984126985 52.48677248677249,69.84126984126985 53.12169312169313,70.05291005291006 53.75661375661376,70.05291005291006 54.39153439153439,70.05291005291006 55.02645502645503,70.05291005291006 55.661375661375665,70.05291005291006 56.2962962962963,70.05291005291006 56.93121693121694,69.84126984126985 57.56613756613757,69.84126984126985 58.2010582010582,69.84126984126985 58.83597883597884,69.62962962962963 59.470899470899475,69.62962962962963 60.10582010582011,69.41798941798942 60.74074074074075,69.20634920634922 61.37566137566138,68.994708994709 62.01058201058201,68.78306878306879 62.64550264550265,68.57142857142858 63.280423280423285,68.35978835978837 63.91534391534392,67.93650793650794 64.55026455026456,67.72486772486774 65.18518518518519,67.3015873015873 65.60846560846561,66.87830687830689 66.24338624338625,66.66666666666667 66.66666666666667,66.24338624338625 67.3015873015873,65.82010582010582 67.72486772486774,65.3968253968254 68.14814814814815,64.97354497354497 68.57142857142858,64.55026455026456 68.994708994709,64.12698412698413 69.41798941798942,63.492063492063494 69.84126984126985,63.06878306878308 70.26455026455027,62.43386243386244 70.6878306878307,62.01058201058201 71.11111111111111,61.37566137566138 71.32275132275133,60.74074074074075 71.53439153439155,60.10582010582011 71.95767195767196,59.682539682539684 72.38095238095238,59.04761904761905 72.5925925925926,58.41269841269842 72.80423280423281,57.777777777777786 73.01587301587303,57.142857142857146 73.22751322751323,56.50793650793651 73.01587301587303,55.87301587301588 73.22751322751323,55.23809523809524 73.22751322751323,54.60317460317461 73.43915343915344,53.968253968253975 73.43915343915344,53.333333333333336 73.65079365079366,52.6984126984127 73.65079365079366,52.06349206349207 73.65079365079366,51.42857142857143 73.65079365079366,50.7936507936508 73.65079365079366,50.158730158730165 73.86243386243387,49.523809523809526 73.65079365079366,48.88888888888889 73.86243386243387,48.25396825396826 73.86243386243387,47.61904761904762 73.65079365079366,46.98412698412699 73.43915343915344,46.349206349206355 73.22751322751323,45.714285714285715 73.01587301587303,45.07936507936508 72.80423280423281,44.44444444444445 72.38095238095238,44.021164021164026 71.95767195767196,43.386243386243386 71.53439153439155,42.96296296296297 71.11111111111111,42.539682539682545 70.47619047619048,42.11640211640212 69.84126984126985,41.6931216931217 69.41798941798942,41.26984126984127 68.78306878306879,41.058201058201064 68.14814814814815,40.63492063492064 67.51322751322752,40.423280423280424 66.87830687830689,40.211640211640216 66.24338624338625,40.0 65.60846560846561,39.78835978835979 64.97354497354497,39.57671957671958 64.33862433862434,39.36507936507937 63.70370370370371,39.15343915343916 63.06878306878308,38.94179894179894 62.43386243386244,38.94179894179894 61.798941798941804,38.730158730158735 61.16402116402117,38.51851851851852 60.52910052910053,38.095238095238095 59.8941798941799,37.67195767195768 59.25925925925927,37.248677248677254 58.83597883597884,36.82539682539683 58.41269841269842,36.402116402116405 57.989417989417994,35.76719576719577 57.56613756613757,35.34391534391535 57.142857142857146,34.70899470899471 56.71957671957672,34.074074074074076 56.2962962962963,33.43915343915344 56.08465608465609,32.804232804232804 55.87301587301588,32.16931216931217 55.87301587301588,31.53439153439154 55.87301587301588,30.899470899470902 55.661375661375665,30.264550264550266 55.661375661375665,29.629629629629633 55.87301587301588,28.994708994708997 56.08465608465609,28.35978835978836 56.08465608465609,27.724867724867728 56.50793650793651,27.089947089947092 56.71957671957672,26.455026455026456 57.142857142857146,26.031746031746035 57.56613756613757,25.3968253968254 57.989417989417994,24.973544973544975 58.41269841269842,24.55026455026455 58.83597883597884,23.915343915343918 59.25925925925927,23.492063492063494 59.682539682539684,23.06878306878307 60.10582010582011,22.645502645502646 60.52910052910053,22.222222222222225 60.952380952380956,21.58730158730159 61.37566137566138,20.952380952380953 61.798941798941804,20.529100529100532 62.22222222222223,20.105820105820108 62.64550264550265,19.682539682539684 63.06878306878308,19.047619047619047 63.492063492063494,18.624338624338627 63.91534391534392,18.201058201058203 64.33862433862434,17.77777777777778 64.76190476190477,17.354497354497354 65.18518518518519,16.931216931216934 65.60846560846561,16.50793650793651 66.03174603174604,16.084656084656086 66.45502645502646,15.661375661375663 66.87830687830689,15.238095238095239 67.3015873015873,14.814814814814817 67.72486772486774,14.391534391534393 68.14814814814815,13.96825396825397 68.57142857142858,13.544973544973546 68.994708994709,13.121693121693122 69.41798941798942,12.6984126984127 69.84126984126985,12.275132275132275 70.26455026455027,11.640211640211641 70.6878306878307,11.216931216931219 71.11111111111111,10.793650793650794 71.53439153439155,10.370370370370372 71.95767195767196,9.947089947089948 72.5925925925926,9.523809523809524 73.01587301587303,9.100529100529101 73.43915343915344,8.677248677248677 73.86243386243387,8.042328042328043 74.28571428571429,7.6190476190476195 74.70899470899471,7.195767195767196 75.13227513227514,6.772486772486773 75.55555555555556,6.34920634920635 75.97883597883599,5.9259259259259265 76.4021164021164,5.502645502645503 76.82539682539684,5.07936507936508 77.24867724867725,4.656084656084657 77.67195767195767,4.021164021164021 78.0952380952381,3.3862433862433865 78.51851851851852,2.9629629629629632 78.94179894179895,2.53968253968254 81.26984126984128,-0.21164021164021166" style="fill:none; stroke:#cc0000; stroke-width:1.0"  /><polyline points="81.26984126984128,-0.21164021164021166 83.59788359788361,2.1164021164021167 84.02116402116403,2.53968253968254 84.44444444444446,2.9629629629629632 84.86772486772487,3.3862433862433865 85.29100529100529,3.8095238095238098 85.71428571428572,4.2328042328042335 86.13756613756614,4.867724867724868 86.56084656084657,5.291005291005291 86.98412698412699,5.714285714285714 87.40740740740742,6.137566137566138 87.83068783068784,6.560846560846561 88.25396825396827,6.984126984126985 88.67724867724868,7.407407407407408 89.1005291005291,7.830687830687832 89.73544973544975,8.253968253968255 90.15873015873017,8.677248677248677 90.58201058201058,9.100529100529101 91.00529100529101,9.523809523809524 91.42857142857143,9.947089947089948 91.85185185185186,10.370370370370372 92.4867724867725,10.793650793650794 92.91005291005291,11.216931216931219 93.33333333333334,11.640211640211641 93.75661375661376,12.063492063492065 94.39153439153439,12.486772486772487 94.81481481481482,12.910052910052912 95.23809523809524,13.333333333333334 95.66137566137567,13.756613756613758 96.08465608465609,14.17989417989418 96.50793650793652,14.603174603174605 96.93121693121694,15.026455026455027 97.35449735449737,15.449735449735451 97.989417989418,15.873015873015873 98.41269841269842,16.296296296296298 98.83597883597885,16.71957671957672 99.25925925925927,17.142857142857146 99.68253968253968,17.566137566137566 100.10582010582011,17.98941798941799 100.52910052910053,18.412698412698415 100.95238095238096,18.83597883597884 101.37566137566138,19.25925925925926 101.79894179894181,19.682539682539684 102.22222222222223,20.105820105820108 102.64550264550266,20.529100529100532 103.06878306878308,20.952380952380953 103.4920634920635,21.375661375661377 103.91534391534393,21.7989417989418 104.33862433862434,22.222222222222225 104.76190476190477,22.645502645502646 105.18518518518519,23.06878306878307 105.60846560846562,23.492063492063494 106.03174603174604,23.915343915343918 106.45502645502647,24.338624338624342 106.87830687830689,24.761904761904763 107.3015873015873,25.3968253968254 107.72486772486774,25.820105820105823 108.14814814814815,26.243386243386244 108.57142857142858,26.87830687830688 108.994708994709,27.301587301587304 109.41798941798943,27.724867724867728 109.84126984126985,28.14814814814815 110.26455026455027,28.783068783068785 110.6878306878307,29.20634920634921 111.11111111111111,29.629629629629633 111.53439153439155,30.264550264550266 111.95767195767196,30.68783068783069 112.3809523809524,31.111111111111114 112.80423280423281,31.746031746031747 113.22751322751324,32.38095238095239 113.65079365079366,32.804232804232804 114.07407407407408,33.22751322751323 114.49735449735451,33.86243386243387 114.92063492063492,34.28571428571429 115.34391534391536,34.920634920634924 115.76719576719577,35.55555555555556 116.1904761904762,35.97883597883598 116.61375661375662,36.613756613756614 117.03703703703705,37.03703703703704 117.46031746031747,37.67195767195768 117.88359788359789,38.30687830687831 118.30687830687832,38.730158730158735 118.73015873015873,39.36507936507937 119.15343915343917,40.0 119.57671957671958,40.63492063492064 120.00000000000001,41.058201058201064 120.42328042328043,41.6931216931217 120.84656084656086,42.32804232804233 121.26984126984128,42.96296296296297 121.6931216931217,43.5978835978836 122.11640211640213,44.232804232804234 122.53968253968254,44.867724867724874 122.96296296296298,45.50264550264551 123.3862433862434,46.13756613756614 123.80952380952382,46.77248677248678 124.02116402116403,47.40740740740741 124.44444444444446,47.830687830687836 124.65608465608466,48.46560846560847 124.86772486772487,49.1005291005291 125.07936507936509,49.73544973544974 125.2910052910053,50.370370370370374 125.2910052910053,51.00529100529101 125.2910052910053,51.640211640211646 125.2910052910053,52.27513227513228 125.07936507936509,52.91005291005291 124.86772486772487,53.54497354497355 124.44444444444446,54.179894179894184 124.02116402116403,54.60317460317461 123.59788359788361,55.02645502645503 122.96296296296298,55.449735449735456 122.32804232804234,55.87301587301588 121.6931216931217,56.08465608465609 121.05820105820106,56.2962962962963 120.42328042328043,56.50793650793651 119.7883597883598,56.71957671957672 119.15343915343917,56.71957671957672 118.51851851851853,56.93121693121694 117.88359788359789,56.93121693121694 117.24867724867725,57.142857142857146 116.61375661375662,57.142857142857146 115.97883597883599,57.35449735449736 115.34391534391536,57.35449735449736 114.70899470899472,57.56613756613757 114.07407407407408,57.56613756613757 113.43915343915344,57.777777777777786 112.80423280423281,57.777777777777786 112.16931216931218,57.989417989417994 111.53439153439155,58.2010582010582 110.89947089947091,58.2010582010582 110.26455026455027,58.41269841269842 109.62962962962963,58.41269841269842 108.994708994709,58.62433862433863 108.35978835978837,58.62433862433863 107.72486772486774,58.62433862433863 107.0899470899471,58.83597883597884 106.45502645502647,59.04761904761905 105.82010582010582,59.25925925925927 105.18518518518519,59.470899470899475 104.55026455026456,59.8941798941799 103.91534391534393,60.31746031746032 103.28042328042329,60.74074074074075 102.64550264550266,61.16402116402117 102.22222222222223,61.58730158730159 101.79894179894181,62.01058201058201 101.37566137566138,62.64550264550265 101.16402116402116,63.280423280423285 100.74074074074075,63.91534391534392 100.52910052910053,64.55026455026456 100.52910052910053,65.18518518518519 100.31746031746033,65.82010582010582 100.31746031746033,66.45502645502646 100.31746031746033,67.08994708994709 100.52910052910053,67.72486772486774 100.52910052910053,68.35978835978837 100.74074074074075,68.994708994709 100.74074074074075,69.62962962962963 100.95238095238096,70.26455026455027 101.16402116402116,70.8994708994709 101.37566137566138,71.53439153439155 101.5873015873016,72.16931216931218 101.5873015873016,72.80423280423281 101.79894179894181,73.43915343915344 102.01058201058201,74.07407407407408 102.22222222222223,74.70899470899471 102.43386243386244,75.34391534391536 102.64550264550266,75.97883597883599 102.85714285714286,76.61375661375662 103.28042328042329,77.24867724867725 103.4920634920635,77.88359788359789 103.70370370370371,78.51851851851852 103.91534391534393,79.15343915343917 104.12698412698414,79.7883597883598 104.55026455026456,80.42328042328043 104.76190476190477,81.05820105820106 105.18518518518519,81.6931216931217 105.60846560846562,82.32804232804233 106.03174603174604,82.96296296296298 106.45502645502647,83.59788359788361 106.87830687830689,84.23280423280424 107.3015873015873,84.86772486772487 107.72486772486774,85.29100529100529 108.14814814814815,85.92592592592594 108.57142857142858,86.34920634920636 108.994708994709,86.77248677248677 109.41798941798943,87.40740740740742 109.84126984126985,87.83068783068784 110.26455026455027,88.25396825396827 110.6878306878307,88.67724867724868 111.11111111111111,89.1005291005291 111.53439153439155,89.52380952380953 111.95767195767196,89.94708994708995 112.3809523809524,90.37037037037038 112.80423280423281,90.7936507936508 113.43915343915344,91.21693121693123 114.07407407407408,91.64021164021165 114.49735449735451,92.06349206349208 114.92063492063492,92.4867724867725 115.34391534391536,92.91005291005291 115.97883597883599,93.33333333333334 116.4021164021164,93.75661375661376 116.82539682539684,94.17989417989419 117.46031746031747,94.60317460317461 118.0952380952381,95.02645502645504 118.73015873015873,95.44973544973546 119.36507936507937,95.87301587301587 120.00000000000001,96.2962962962963 120.63492063492065,96.50793650793652 121.26984126984128,96.93121693121694 121.90476190476191,97.14285714285715 122.53968253968254,97.56613756613757 123.17460317460318,97.77777777777779 123.80952380952382,97.989417989418 124.44444444444446,98.2010582010582 125.07936507936509,98.41269841269842 125.71428571428572,98.62433862433863 126.34920634920636,99.04761904761905 126.98412698412699,99.25925925925927 127.61904761904763,99.47089947089948 128.25396825396825,99.68253968253968 128.88888888888889,99.8941798941799 129.52380952380955,99.8941798941799 130.15873015873018,100.10582010582011 130.7936507936508,100.31746031746033 131.42857142857144,100.52910052910053 132.06349206349208,100.52910052910053 132.6984126984127,100.74074074074075 133.33333333333334,100.95238095238096 133.96825396825398,100.95238095238096 134.6031746031746,101.16402116402116 135.23809523809524,101.16402116402116 135.87301587301587,101.16402116402116 136.5079365079365,101.16402116402116 137.14285714285717,101.16402116402116 137.7777777777778,101.16402116402116 138.41269841269843,100.95238095238096 139.04761904761907,100.52910052910053 139.6825396825397,100.31746031746033 140.10582010582013,99.8941798941799 140.52910052910053,99.47089947089948 140.95238095238096,99.04761904761905 141.3756613756614,98.62433862433863 141.7989417989418,97.989417989418 142.43386243386246,97.56613756613757 142.64550264550266,96.93121693121694 143.0687830687831,96.2962962962963 143.2804232804233,95.66137566137567 143.70370370370372,95.02645502645504 143.91534391534393,94.39153439153439 144.12698412698413,93.75661375661376 144.55026455026456,93.12169312169313 144.55026455026456,92.4867724867725 144.973544973545,91.85185185185186 144.76190476190476,91.21693121693123 144.973544973545,90.58201058201058 145.1851851851852,89.94708994708995 145.1851851851852,89.31216931216932 145.39682539682542,88.67724867724868 145.39682539682542,88.04232804232805 145.39682539682542,87.40740740740742 145.60846560846562,86.77248677248677 145.60846560846562,86.13756613756614 145.60846560846562,85.5026455026455 145.82010582010582,84.86772486772487 145.82010582010582,84.23280423280424 145.82010582010582,83.59788359788361 145.82010582010582,82.96296296296298 145.82010582010582,82.32804232804233 146.03174603174605,81.6931216931217 146.03174603174605,81.05820105820106 146.03174603174605,80.42328042328043 146.03174603174605,79.7883597883598 146.24338624338625,79.15343915343917 146.24338624338625,78.51851851851852 146.45502645502646,77.88359788359789 146.45502645502646,77.24867724867725 146.66666666666669,76.61375661375662 146.8783068783069,75.97883597883599 147.30158730158732,75.34391534391536 147.51322751322752,74.70899470899471 147.93650793650795,74.28571428571429 148.35978835978838,73.65079365079366 148.78306878306879,73.22751322751323 149.41798941798942,73.01587301587303 150.05291005291005,72.80423280423281 150.6878306878307,72.5925925925926 151.32275132275134,72.5925925925926 151.95767195767198,72.5925925925926 152.5925925925926,72.80423280423281 153.22751322751324,73.01587301587303 153.86243386243387,73.01587301587303 154.4973544973545,73.22751322751323 155.13227513227514,73.43915343915344 155.76719576719577,73.86243386243387 156.4021164021164,74.07407407407408 157.03703703703704,74.49735449735451 157.67195767195767,74.70899470899471 158.30687830687833,75.13227513227514 158.94179894179896,75.55555555555556 159.5767195767196,75.97883597883599 160.21164021164023,76.4021164021164 160.84656084656086,76.82539682539684 161.4814814814815,77.24867724867725 161.90476190476193,77.67195767195767 162.32804232804233,78.0952380952381 162.75132275132276,78.51851851851852 163.1746031746032,78.94179894179895 163.59788359788362,79.36507936507937 164.02116402116403,79.7883597883598 164.44444444444446,80.21164021164022 164.8677248677249,80.63492063492065 165.2910052910053,81.26984126984128 165.71428571428572,81.90476190476191 166.13756613756615,82.32804232804233 166.56084656084658,82.75132275132276 166.984126984127,83.3862433862434 167.40740740740742,83.80952380952381 167.83068783068785,84.23280423280424 168.25396825396825,84.86772486772487 168.67724867724868,85.29100529100529 169.10052910052912,85.92592592592594 169.52380952380955,86.34920634920636 169.94708994708995,86.98412698412699 170.37037037037038,87.40740740740742 170.7936507936508,88.04232804232805 171.21693121693124,88.67724867724868 171.64021164021165,89.1005291005291 172.06349206349208,89.73544973544975 172.4867724867725,90.15873015873017 172.9100529100529,90.7936507936508 173.33333333333334,91.21693121693123 173.75661375661377,91.64021164021165 174.1798941798942,92.27513227513228 174.6031746031746,92.91005291005291 175.02645502645504,93.33333333333334 175.44973544973547,93.96825396825398 175.87301587301587,94.60317460317461 176.2962962962963,95.02645502645504 176.71957671957674,95.66137566137567 177.14285714285717,96.2962962962963 177.56613756613757,96.93121693121694 177.989417989418,97.56613756613757 178.41269841269843,98.2010582010582 178.83597883597884,98.62433862433863 179.25925925925927,99.25925925925927 179.6825396825397,99.8941798941799 180.10582010582013,100.31746031746033 180.52910052910053,100.95238095238096 180.95238095238096,101.5873015873016 181.3756613756614,102.22222222222223 181.5873015873016,102.85714285714286 182.01058201058203,103.28042328042329 183.91534391534393,105.82010582010582" style="fill:none; stroke:#999900; stroke-width:1.0"  /><polyline points="183.91534391534393,105.82010582010582 181.3756613756614,108.14814814814815 180.95238095238096,108.57142857142858 180.52910052910053,108.994708994709 179.8941798941799,109.41798941798943 179.4708994708995,109.84126984126985 179.04761904761907,110.26455026455027 178.62433862433863,110.6878306878307 178.2010582010582,111.11111111111111 177.7777777777778,111.53439153439155 177.14285714285717,111.95767195767196 176.71957671957674,112.5925925925926 176.0846560846561,113.01587301587303 175.66137566137567,113.43915343915344 175.23809523809524,113.86243386243387 174.81481481481484,114.28571428571429 174.3915343915344,114.70899470899472 173.96825396825398,115.13227513227514 173.54497354497354,115.55555555555557 173.12169312169314,115.97883597883599 172.6984126984127,116.4021164021164 172.27513227513228,116.82539682539684 171.85185185185188,117.24867724867725 171.21693121693124,117.67195767195768 170.7936507936508,118.0952380952381 170.37037037037038,118.51851851851853 169.94708994708995,118.94179894179895 169.52380952380955,119.36507936507937 169.10052910052912,119.7883597883598 168.67724867724868,120.21164021164022 168.25396825396825,120.63492063492065 167.83068783068785,121.05820105820106 167.19576719576722,121.4814814814815 166.7724867724868,121.90476190476191 166.34920634920636,122.53968253968254 165.92592592592595,122.96296296296298 165.50264550264552,123.3862433862434 165.0793650793651,123.80952380952382 164.65608465608466,124.23280423280424 164.02116402116403,124.65608465608466 163.59788359788362,125.07936507936509 163.1746031746032,125.5026455026455 162.75132275132276,125.92592592592594 162.32804232804233,126.56084656084657 161.90476190476193,126.98412698412699 161.4814814814815,127.40740740740742 161.05820105820106,127.83068783068784 160.63492063492066,128.25396825396825 160.0,128.67724867724868 159.5767195767196,129.10052910052912 159.15343915343917,129.52380952380955 158.73015873015873,129.94708994708995 158.30687830687833,130.37037037037038 157.8835978835979,130.7936507936508 157.46031746031747,131.21693121693121 157.03703703703704,131.64021164021165 156.61375661375664,132.06349206349208 156.1904761904762,132.4867724867725 155.76719576719577,132.9100529100529 155.34391534391534,133.33333333333334 154.92063492063494,133.75661375661377 154.2857142857143,134.17989417989418 153.86243386243387,134.6031746031746 153.43915343915344,135.02645502645504 153.01587301587304,135.44973544973547 152.5925925925926,135.87301587301587 152.16931216931218,136.2962962962963 151.74603174603175,136.71957671957674 151.11111111111111,137.14285714285717 150.6878306878307,137.56613756613757 150.26455026455028,137.989417989418 149.62962962962965,138.41269841269843 149.20634920634922,138.83597883597884 148.78306878306879,139.25925925925927 148.35978835978838,139.6825396825397 147.93650793650795,140.10582010582013 147.51322751322752,140.74074074074076 147.0899470899471,141.16402116402116 146.66666666666669,141.5873015873016 146.24338624338625,142.01058201058203 145.82010582010582,142.43386243386246 145.39682539682542,142.85714285714286 144.76190476190476,143.2804232804233 144.33862433862436,143.70370370370372 143.91534391534393,144.12698412698413 143.4920634920635,144.55026455026456 143.0687830687831,144.973544973545 142.64550264550266,145.39682539682542 142.22222222222223,145.82010582010582 141.7989417989418,146.24338624338625 141.3756613756614,146.66666666666669 140.95238095238096,147.0899470899471 140.52910052910053,147.51322751322752 140.10582010582013,147.93650793650795 139.6825396825397,148.35978835978838 139.04761904761907,148.78306878306879 138.62433862433863,149.20634920634922 138.2010582010582,149.62962962962965 137.7777777777778,150.05291005291005 137.35449735449737,150.47619047619048 136.93121693121694,150.8994708994709 136.5079365079365,151.32275132275134 136.0846560846561,151.74603174603175 135.66137566137567,152.16931216931218 135.23809523809524,152.5925925925926 134.81481481481484,153.01587301587304 134.3915343915344,153.43915343915344 133.96825396825398,153.86243386243387 133.33333333333334,154.2857142857143 132.9100529100529,154.7089947089947 132.4867724867725,155.13227513227514 132.06349206349208,155.55555555555557 131.64021164021165,155.978835978836 131.21693121693121,156.4021164021164 130.7936507936508,156.82539682539684 130.37037037037038,157.24867724867727 129.94708994708995,157.67195767195767 129.52380952380955,158.0952380952381 128.88888888888889,158.51851851851853 128.46560846560848,159.15343915343917 127.83068783068784,159.5767195767196 127.40740740740742,160.0 126.98412698412699,160.42328042328043 126.56084656084657,160.84656084656086 126.13756613756615,161.2698412698413 125.71428571428572,161.90476190476193 125.2910052910053,162.32804232804233 124.86772486772487,162.75132275132276 124.44444444444446,163.1746031746032 123.80952380952382,163.59788359788362 123.3862433862434,164.02116402116403 122.96296296296298,164.44444444444446 122.53968253968254,164.8677248677249 122.11640211640213,165.2910052910053 121.6931216931217,165.71428571428572 121.26984126984128,166.13756613756615 120.84656084656086,166.56084656084658 120.42328042328043,166.984126984127 120.00000000000001,167.40740740740742 119.57671957671958,167.83068783068785 119.15343915343917,168.25396825396825 118.73015873015873,168.67724867724868 118.30687830687832,169.10052910052912 117.67195767195768,169.52380952380955 117.24867724867725,169.94708994708995 116.82539682539684,170.37037037037038 116.4021164021164,170.7936507936508 115.97883597883599,171.21693121693124 115.55555555555557,171.64021164021165 115.13227513227514,172.06349206349208 114.70899470899472,172.4867724867725 114.28571428571429,172.9100529100529 113.86243386243387,173.33333333333334 113.43915343915344,173.75661375661377 113.01587301587303,174.1798941798942 112.5925925925926,174.6031746031746 112.16931216931218,175.02645502645504 111.74603174603176,175.44973544973547 111.32275132275133,175.87301587301587 110.89947089947091,176.2962962962963 110.47619047619048,176.71957671957674 110.05291005291006,177.14285714285717 109.62962962962963,177.56613756613757 109.20634920634922,177.989417989418 108.78306878306879,178.41269841269843 108.35978835978837,178.83597883597884 107.93650793650795,179.25925925925927 107.3015873015873,179.6825396825397 106.87830687830689,180.10582010582013 106.45502645502647,180.52910052910053 106.03174603174604,180.95238095238096 105.60846560846562,181.3756613756614 105.18518518518519,181.79894179894183 104.76190476190477,182.22222222222223 104.33862433862434,182.64550264550266 103.91534391534393,183.0687830687831 103.4920634920635,183.4920634920635 102.85714285714286,183.91534391534393 102.43386243386244,184.33862433862436 102.01058201058201,184.7619047619048 101.5873015873016,185.1851851851852 101.16402116402116,185.60846560846562 100.74074074074075,186.03174603174605 100.31746031746033,186.45502645502646 99.8941798941799,186.8783068783069 99.47089947089948,187.30158730158732 99.04761904761905,187.72486772486775 98.62433862433863,188.14814814814815 97.989417989418,188.57142857142858 97.56613756613757,188.99470899470901 95.23809523809524,191.11111111111111" style="fill:none; stroke:#00aa99; stroke-width:3.0" stroke-dasharray="6,3" /><polyline points="95.23809523809524,191.11111111111111 93.12169312169313,188.57142857142858 92.69841269841271,188.14814814814815 92.27513227513228,187.72486772486775 91.85185185185186,187.08994708994712 91.42857142857143,186.66666666666669 91.00529100529101,186.03174603174605 90.58201058201058,185.60846560846562 90.15873015873017,184.973544973545 89.73544973544975,184.33862433862436 89.31216931216932,183.91534391534393 88.8888888888889,183.4920634920635 88.46560846560847,182.85714285714286 88.04232804232805,182.43386243386246 87.61904761904762,182.01058201058203 87.1957671957672,181.3756613756614 86.77248677248677,180.95238095238096 86.34920634920636,180.52910052910053 85.92592592592594,179.8941798941799 85.5026455026455,179.4708994708995 85.07936507936509,178.83597883597884 84.65608465608466,178.41269841269843 84.23280423280424,177.989417989418 83.80952380952381,177.35449735449737 83.3862433862434,176.71957671957674 82.96296296296298,176.2962962962963 82.53968253968254,175.87301587301587 82.11640211640213,175.44973544973547 81.6931216931217,174.81481481481484 81.26984126984128,174.3915343915344 80.84656084656085,173.96825396825398 80.42328042328043,173.33333333333334 80.0,172.9100529100529 79.57671957671958,172.27513227513228 79.15343915343917,171.85185185185188 78.73015873015873,171.42857142857144 78.30687830687832,170.7936507936508 77.88359788359789,170.37037037037038 77.46031746031747,169.94708994708995 77.03703703703704,169.31216931216932 76.61375661375662,168.8888888888889 76.19047619047619,168.25396825396825 75.76719576719577,167.83068783068785 75.34391534391536,167.19576719576722 74.92063492063492,166.7724867724868 74.49735449735451,166.13756613756615 74.07407407407408,165.71428571428572 73.65079365079366,165.2910052910053 73.22751322751323,164.65608465608466 72.80423280423281,164.02116402116403 72.38095238095238,163.59788359788362 71.95767195767196,162.96296296296296 71.53439153439155,162.53968253968256 71.11111111111111,161.90476190476193 70.6878306878307,161.2698412698413 70.26455026455027,160.84656084656086 69.84126984126985,160.42328042328043 69.41798941798942,160.0 68.994708994709,159.36507936507937 68.57142857142858,158.73015873015873 68.14814814814815,158.30687830687833 67.72486772486774,157.67195767195767 67.3015873015873,157.03703703703704 66.87830687830689,156.4021164021164 66.45502645502646,155.76719576719577 66.03174603174604,155.34391534391534 65.60846560846561,154.7089947089947 65.18518518518519,154.07407407407408 64.76190476190477,153.43915343915344 64.33862433862434,153.01587301587304 64.12698412698413,152.38095238095238 63.70370370370371,151.95767195767198 63.280423280423285,151.53439153439155 62.85714285714286,150.8994708994709 62.64550264550265,150.26455026455028 62.22222222222223,149.62962962962965 61.798941798941804,148.99470899470901 61.37566137566138,148.57142857142858 61.16402116402117,147.93650793650795 60.74074074074075,147.51322751322752 60.31746031746032,146.8783068783069 59.8941798941799,146.24338624338625 59.470899470899475,145.82010582010582 59.04761904761905,145.1851851851852 58.62433862433863,144.55026455026456 58.41269841269842,143.91534391534393 57.989417989417994,143.4920634920635 57.56613756613757,143.0687830687831 57.142857142857146,142.43386243386246 56.71957671957672,142.01058201058203 56.2962962962963,141.3756613756614 55.87301587301588,140.74074074074076 55.449735449735456,140.10582010582013 55.02645502645503,139.47089947089947 54.60317460317461,138.83597883597884 54.179894179894184,138.2010582010582 53.968253968253975,137.56613756613757 53.54497354497355,136.93121693121694 53.333333333333336,136.2962962962963 53.12169312169313,135.66137566137567 52.91005291005291,135.02645502645504 52.91005291005291,134.3915343915344 52.91005291005291,133.75661375661377 52.91005291005291,133.12169312169314 52.91005291005291,132.4867724867725 53.12169312169313,131.85185185185185 53.333333333333336,131.21693121693121 53.75661375661376,130.58201058201058 54.179894179894184,129.94708994708995 54.60317460317461,129.52380952380955 55.02645502645503,128.88888888888889 55.449735449735456,128.46560846560848 55.87301587301588,128.04232804232805 56.2962962962963,127.61904761904763 56.93121693121694,127.40740740740742 57.35449735449736,126.98412698412699 57.989417989417994,126.77248677248679 58.62433862433863,126.34920634920636 59.25925925925927,126.13756613756615 59.8941798941799,125.71428571428572 60.52910052910053,125.5026455026455 61.16402116402117,125.07936507936509 61.798941798941804,124.86772486772487 62.43386243386244,124.44444444444446 63.06878306878308,124.02116402116403 63.70370370370371,123.80952380952382 64.12698412698413,123.3862433862434 64.76190476190477,122.96296296296298 65.3968253968254,122.53968253968254 65.82010582010582,122.11640211640213 66.45502645502646,121.6931216931217 66.87830687830689,121.26984126984128 67.3015873015873,120.63492063492065 67.72486772486774,120.21164021164022 68.14814814814815,119.7883597883598 68.57142857142858,119.15343915343917 68.994708994709,118.51851851851853 69.20634920634922,117.88359788359789 69.41798941798942,117.24867724867725 69.62962962962963,116.61375661375662 69.62962962962963,115.97883597883599 69.62962962962963,115.34391534391536 69.62962962962963,114.70899470899472 69.41798941798942,114.07407407407408 69.20634920634922,113.43915343915344 68.994708994709,112.80423280423281 68.994708994709,112.16931216931218 68.78306878306879,111.53439153439155 68.35978835978837,110.89947089947091 68.14814814814815,110.26455026455027 67.93650793650794,109.62962962962963 67.51322751322752,108.994708994709 67.3015873015873,108.35978835978837 66.87830687830689,107.72486772486774 66.45502645502646,107.0899470899471 66.03174603174604,106.45502645502647 65.60846560846561,105.82010582010582 65.18518518518519,105.18518518518519 64.76190476190477,104.76190476190477 64.33862433862434,104.12698412698414 63.91534391534392,103.70370370370371 63.492063492063494,103.28042328042329 63.06878306878308,102.85714285714286 62.64550264550265,102.43386243386244 62.22222222222223,102.01058201058201 61.798941798941804,101.5873015873016 61.16402116402117,101.16402116402116 60.74074074074075,100.74074074074075 60.10582010582011,100.31746031746033 59.470899470899475,99.8941798941799 58.83597883597884,99.47089947089948 58.2010582010582,99.04761904761905 57.56613756613757,98.62433862433863 56.93121693121694,98.41269841269842 56.50793650793651,97.989417989418 55.87301587301588,97.77777777777779 55.23809523809524,97.56613756613757 54.60317460317461,97.14285714285715 53.968253968253975,96.93121693121694 53.333333333333336,96.71957671957672 52.6984126984127,96.71957671957672 52.06349206349207,96.50793650793652 51.42857142857143,96.50793650793652 50.7936507936508,96.2962962962963 50.158730158730165,96.2962962962963 49.523809523809526,96.2962962962963 48.88888888888889,96.50793650793652 48.25396825396826,96.50793650793652 47.61904761904762,96.71957671957672 46.98412698412699,97.14285714285715 46.349206349206355,97.56613756613757 45.714285714285715,97.989417989418 45.29100529100529,98.41269841269842 44.867724867724874,98.83597883597885 44.44444444444445,99.25925925925927 44.021164021164026,99.68253968253968 43.5978835978836,100.31746031746033 43.17460317460318,100.95238095238096 42.75132275132275,101.5873015873016 42.32804232804233,102.22222222222223 41.904761904761905,102.85714285714286 41.6931216931217,103.4920634920635 41.26984126984127,104.12698412698414 40.84656084656085,104.76190476190477 40.63492063492064,105.3968253968254 40.423280423280424,106.03174603174604 40.211640211640216,106.66666666666667 40.0,107.3015873015873 39.78835978835979,107.93650793650795 39.57671957671958,108.57142857142858 39.15343915343916,109.20634920634922 38.94179894179894,109.84126984126985 38.730158730158735,110.47619047619048 38.30687830687831,111.11111111111111 38.095238095238095,111.74603174603176 37.67195767195768,112.16931216931218 37.248677248677254,112.80423280423281 36.82539682539683,113.43915343915344 36.402116402116405,113.86243386243387 35.97883597883598,114.28571428571429 35.55555555555556,114.70899470899472 35.13227513227513,115.13227513227514 34.4973544973545,115.34391534391536 34.074074074074076,115.76719576719577 33.43915343915344,115.97883597883599 32.804232804232804,116.1904761904762 32.16931216931217,116.4021164021164 31.53439153439154,116.4021164021164 30.899470899470902,116.4021164021164 30.264550264550266,116.1904761904762 29.629629629629633,115.97883597883599 28.994708994708997,115.55555555555557 28.35978835978836,115.13227513227514 27.724867724867728,114.70899470899472 27.301587301587304,114.28571428571429 26.87830687830688,113.86243386243387 26.455026455026456,113.43915343915344 26.031746031746035,113.01587301587303 25.60846560846561,112.5925925925926 25.185185185185187,112.16931216931218 24.761904761904763,111.74603174603176 24.338624338624342,111.32275132275133 23.915343915343918,110.6878306878307 23.492063492063494,110.26455026455027 23.06878306878307,109.84126984126985 22.645502645502646,109.41798941798943 22.222222222222225,108.78306878306879 21.7989417989418,108.35978835978837 21.375661375661377,107.93650793650795 20.952380952380953,107.51322751322752 20.529100529100532,106.87830687830689 20.105820105820108,106.45502645502647 19.682539682539684,106.03174603174604 19.25925925925926,105.60846560846562 18.83597883597884,104.97354497354497 18.412698412698415,104.55026455026456 17.98941798941799,103.91534391534393 17.566137566137566,103.4920634920635 17.142857142857146,102.85714285714286 16.71957671957672,102.43386243386244 16.296296296296298,101.79894179894181 15.873015873015873,101.37566137566138 15.449735449735451,100.74074074074075 15.026455026455027,100.31746031746033 14.603174603174605,99.8941798941799 14.17989417989418,99.25925925925927 13.756613756613758,98.62433862433863 13.333333333333334,97.989417989418 12.910052910052912,97.56613756613757 12.486772486772487,96.93121693121694 12.063492063492065,96.2962962962963 11.640211640211641,95.87301587301587 11.216931216931219,95.23809523809524 10.793650793650794,94.60317460317461 10.370370370370372,93.96825396825398 9.947089947089948,93.33333333333334 9.523809523809524,92.69841269841271 9.100529100529101,92.06349206349208 8.677248677248677,91.42857142857143 8.253968253968255,91.00529100529101 7.830687830687832,90.58201058201058 7.407407407407408,89.94708994708995 6.984126984126985,89.52380952380953 6.772486772486773,88.8888888888889 6.34920634920635,88.46560846560847 6.137566137566138,87.83068783068784 5.714285714285714,87.40740740740742 5.502645502645503,86.77248677248677 5.07936507936508,86.34920634920636 4.656084656084657,85.71428571428572 4.444444444444445,85.07936507936509 4.021164021164021,84.65608465608466 3.8095238095238098,84.02116402116403 3.3862433862433865,83.3862433862434 2.9629629629629632,82.75132275132276 2.53968253968254,82.11640211640213 2.1164021164021167,81.48148148148148 1.6931216931216932,81.05820105820106 -0.4232804232804233,77.88359788359789" style="fill:none; stroke:#3300bb; stroke-width:1.0"  /><circle cx="-0.4232804232804233" cy="77.88359788359789" r="2.0" style="fill:none; stroke:#000000aa; stroke-width:0.25" /><circle cx="81.26984126984128" cy="-0.21164021164021166" r="2.0" style="fill:none; stroke:#000000aa; stroke-width:0.25" /><circle cx="183.91534391534393" cy="105.82010582010582" r="2.0" style="fill:none; stroke:#000000aa; stroke-width:0.25" /><circle cx="95.23809523809524" cy="191.11111111111111" r="2.0" style="fill:none; stroke:#000000aa; stroke-width:0.25" /><circle cx="0.21164021164021166" cy="77.88359788359789" r="2.0" style="fill:none; stroke:#ff3366aa; stroke-width:0.25" /><circle cx="81.05820105820106" cy="0.21164021164021166" r="2.0" style="fill:none; stroke:#ff3366aa; stroke-width:0.25" /><circle cx="183.70370370370372" cy="105.82010582010582" r="2.0" style="fill:none; stroke:#ff3366aa; stroke-width:0.25" /><circle cx="95.44973544973546" cy="191.11111111111111" r="2.0" style="fill:none; stroke:#ff3366aa; stroke-width:0.25" /><polyline points="9.523809523809524,70.8994708994709 8.88888888888889,71.32275132275133 8.253968253968255,71.74603174603175 7.830687830687832,72.38095238095238 7.195767195767196,72.5925925925926 6.772486772486773,73.01587301587303 6.137566137566138,73.43915343915344 5.714285714285714,73.86243386243387 5.291005291005291,74.28571428571429 4.656084656084657,74.70899470899471 4.021164021164021,74.92063492063492 3.3862433862433865,75.34391534391536 2.7513227513227516,75.55555555555556" style="fill:none; stroke:#001100; stroke-width:1.0" /><polyline points="6.137566137566138,87.83068783068784 5.714285714285714,87.40740740740742 5.502645502645503,86.77248677248677 5.07936507936508,86.34920634920636 4.656084656084657,85.71428571428572 4.444444444444445,85.07936507936509 4.021164021164021,84.65608465608466 3.8095238095238098,84.02116402116403 3.3862433862433865,83.3862433862434 2.9629629629629632,82.75132275132276 2.53968253968254,82.11640211640213 2.1164021164021167,81.48148148148148 1.6931216931216932,81.05820105820106" style="fill:none; stroke:#000011; stroke-width:1.0" /><polyline points="89.73544973544975,8.253968253968255 89.1005291005291,7.830687830687832 88.67724867724868,7.407407407407408 88.25396825396827,6.984126984126985 87.83068783068784,6.560846560846561 87.40740740740742,6.137566137566138 86.98412698412699,5.714285714285714 86.56084656084657,5.291005291005291 86.13756613756614,4.867724867724868 85.71428571428572,4.2328042328042335 85.29100529100529,3.8095238095238098 84.86772486772487,3.3862433862433865 84.44444444444446,2.9629629629629632 84.02116402116403,2.53968253968254 83.59788359788361,2.1164021164021167" style="fill:none; stroke:#001100; stroke-width:1.0" /><polyline points="73.01587301587303,9.100529100529101 73.43915343915344,8.677248677248677 73.86243386243387,8.042328042328043 74.28571428571429,7.6190476190476195 74.70899470899471,7.195767195767196 75.13227513227514,6.772486772486773 75.55555555555556,6.34920634920635 75.97883597883599,5.9259259259259265 76.4021164021164,5.502645502645503 76.82539682539684,5.07936507936508 77.24867724867725,4.656084656084657 77.67195767195767,4.021164021164021 78.0952380952381,3.3862433862433865 78.51851851851852,2.9629629629629632 78.94179894179895,2.53968253968254" style="fill:none; stroke:#000011; stroke-width:1.0" /><polyline points="175.23809523809524,113.86243386243387 175.66137566137567,113.43915343915344 176.0846560846561,113.01587301587303 176.71957671957674,112.5925925925926 177.14285714285717,111.95767195767196 177.7777777777778,111.53439153439155 178.2010582010582,111.11111111111111 178.62433862433863,110.6878306878307 179.04761904761907,110.26455026455027 179.4708994708995,109.84126984126985 179.8941798941799,109.41798941798943 180.52910052910053,108.994708994709 180.95238095238096,108.57142857142858 181.3756613756614,108.14814814814815" style="fill:none; stroke:#001100; stroke-width:1.0" /><polyline points="177.14285714285717,96.2962962962963 177.56613756613757,96.93121693121694 177.989417989418,97.56613756613757 178.41269841269843,98.2010582010582 178.83597883597884,98.62433862433863 179.25925925925927,99.25925925925927 179.6825396825397,99.8941798941799 180.10582010582013,100.31746031746033 180.52910052910053,100.95238095238096 180.95238095238096,101.5873015873016 181.3756613756614,102.22222222222223 181.5873015873016,102.85714285714286 182.01058201058203,103.28042328042329" style="fill:none; stroke:#000011; stroke-width:1.0" /><polyline points="87.61904761904762,182.01058201058203 88.04232804232805,182.43386243386246 88.46560846560847,182.85714285714286 88.8888888888889,183.4920634920635 89.31216931216932,183.91534391534393 89.73544973544975,184.33862433862436 90.15873015873017,184.973544973545 90.58201058201058,185.60846560846562 91.00529100529101,186.03174603174605 91.42857142857143,186.66666666666669 91.85185185185186,187.08994708994712 92.27513227513228,187.72486772486775 92.69841269841271,188.14814814814815 93.12169312169313,188.57142857142858" style="fill:none; stroke:#001100; stroke-width:1.0" /><polyline points="103.91534391534393,183.0687830687831 103.4920634920635,183.4920634920635 102.85714285714286,183.91534391534393 102.43386243386244,184.33862433862436 102.01058201058201,184.7619047619048 101.5873015873016,185.1851851851852 101.16402116402116,185.60846560846562 100.74074074074075,186.03174603174605 100.31746031746033,186.45502645502646 99.8941798941799,186.8783068783069 99.47089947089948,187.30158730158732 99.04761904761905,187.72486772486775 98.62433862433863,188.14814814814815 97.989417989418,188.57142857142858 97.56613756613757,188.99470899470901" style="fill:none; stroke:#000011; stroke-width:1.0" /><polyline points="2.7513227513227516,75.55555555555556 -14.603174603174605,87.61904761904762" style="fill:none; stroke:#ffaa00; stroke-width:0.4" /><polyline points="1.6931216931216932,81.05820105820106 -9.947089947089948,63.280423280423285" style="fill:none; stroke:#aaff00; stroke-width:0.4" /><polyline points="83.59788359788361,2.1164021164021167 68.57142857142858,-12.910052910052912" style="fill:none; stroke:#ffaa00; stroke-width:0.4" /><polyline points="78.94179894179895,2.53968253968254 93.12169312169313,-13.121693121693122" style="fill:none; stroke:#aaff00; stroke-width:0.4" /><polyline points="181.3756613756614,108.14814814814815 196.82539682539684,93.75661375661376" style="fill:none; stroke:#ffaa00; stroke-width:0.4" /><polyline points="182.01058201058203,103.28042328042329 194.07407407407408,120.63492063492065" style="fill:none; stroke:#aaff00; stroke-width:0.4" /><polyline points="93.12169312169313,188.57142857142858 106.66666666666667,204.8677248677249" style="fill:none; stroke:#ffaa00; stroke-width:0.4" /><polyline points="97.56613756613757,188.99470899470901 82.11640211640213,203.3862433862434" style="fill:none; stroke:#aaff00; stroke-width:0.4" /><circle cx="92.27513227513228" cy="98.83597883597885" r="1.0" style="fill:#444444; stroke-width:0" /><circle cx="103.91534391534393" cy="130.7936507936508" r="10.582010582010582" style="fill:#ff770022; stroke-width:0" /><circle cx="103.91534391534393" cy="130.7936507936508" r="1.0" style="fill:#ff7700; stroke-width:0" /></svg>