<?xml version="1.0" encoding="UTF-8" standalone="no"?><svg width="533.3333333333334" height="650.1587301587302" viewBox="-10 -10 197.7777777777778 236.71957671957674" xmlns="http://www.w3.org/2000/svg" xmlns:xlink="http://www.w3.org/1999/xlink"><polyline points="8.465608465608467,51.42857142857143 12.275132275132275,51.21693121693122 12.910052910052912,51.21693121693122 13.544973544973546,51.21693121693122 14.17989417989418,51.21693121693122 14.814814814814817,51.21693121693122 15.449735449735451,51.21693121693122 16.084656084656086,51.00529100529101 16.71957671957672,51.00529100529101 17.354497354497354,51.00529100529101 17.98941798941799,51.00529100529101 18.624338624338627,51.00529100529101 19.25925925925926,51.00529100529101 19.894179894179896,50.7936507936508 20.529100529100532,50.58201058201058 21.164021164021165,50.58201058201058 21.7989417989418,50.58201058201058 22.433862433862437,50.58201058201058 23.06878306878307,50.370370370370374 23.703703703703706,50.370370370370374 24.338624338624342,50.370370370370374 24.973544973544975,50.370370370370374 25.60846560846561,50.158730158730165 26.243386243386244,50.158730158730165 26.87830687830688,50.158730158730165 27.513227513227516,50.158730158730165 28.14814814814815,50.158730158730165 28.783068783068785,49.94708994708995 29.41798941798942,49.94708994708995 30.052910052910054,49.94708994708995 30.68783068783069,49.94708994708995 31.322751322751326,49.94708994708995 31.95767195767196,49.73544973544974 32.592592592592595,49.73544973544974 33.22751322751323,49.73544973544974 33.86243386243387,49.73544973544974 34.4973544973545,49.73544973544974 35.13227513227513,49.523809523809526 35.76719576719577,49.523809523809526 36.402116402116405,49.523809523809526 37.03703703703704,49.523809523809526 37.67195767195768,49.31216931216932 38.30687830687831,49.31216931216932 38.94179894179894,49.31216931216932 39.57671957671958,49.31216931216932 40.211640211640216,49.1005291005291 40.84656084656085,49.1005291005291 41.48148148148149,49.1005291005291 42.11640211640212,49.1005291005291 42.75132275132275,49.1005291005291 43.386243386243386,48.88888888888889 44.021164021164026,48.88888888888889 44.65608465608466,48.88888888888889 45.29100529100529,48.88888888888889 45.92592592592593,48.677248677248684 46.560846560846564,48.677248677248684 47.195767195767196,48.88888888888889 47.830687830687836,48.88888888888889 48.46560846560847,48.88888888888889 49.1005291005291,48.677248677248684 49.73544973544974,48.677248677248684 50.370370370370374,48.677248677248684 51.00529100529101,48.677248677248684 51.640211640211646,48.677248677248684 52.27513227513228,48.46560846560847 52.91005291005291,48.46560846560847 53.54497354497355,48.46560846560847 54.179894179894184,48.25396825396826 54.81481481481482,48.042328042328045 55.449735449735456,48.042328042328045 56.08465608465609,47.830687830687836 56.71957671957672,47.830687830687836 57.35449735449736,47.61904761904762 57.989417989417994,47.40740740740741 58.62433862433863,47.40740740740741 59.25925925925927,47.195767195767196 59.8941798941799,46.98412698412699 60.52910052910053,46.77248677248678 61.16402116402117,46.560846560846564 61.798941798941804,46.349206349206355 62.43386243386244,46.13756613756614 63.06878306878308,45.92592592592593 63.70370370370371,45.50264550264551 64.33862433862434,45.29100529100529 64.97354497354497,45.07936507936508 65.60846560846561,44.65608465608466 66.24338624338625,44.44444444444445 66.87830687830689,44.021164021164026 67.51322751322752,43.5978835978836 68.14814814814815,43.17460317460318 68.78306878306879,42.75132275132275 69.20634920634922,42.32804232804233 69.62962962962963,41.904761904761905 70.05291005291006,41.26984126984127 70.47619047619048,40.63492063492064 70.6878306878307,40.0 70.8994708994709,39.36507936507937 71.11111111111111,38.730158730158735 71.11111111111111,38.095238095238095 71.11111111111111,37.46031746031746 71.11111111111111,36.82539682539683 71.11111111111111,36.19047619047619 70.8994708994709,35.55555555555556 70.6878306878307,34.920634920634924 70.47619047619048,34.28571428571429 70.05291005291006,33.65079365079365 69.62962962962963,33.22751322751323 69.20634920634922,32.804232804232804 68.78306878306879,32.38095238095239 68.35978835978837,31.95767195767196 67.93650793650794,31.53439153439154 67.51322751322752,31.111111111111114 66.87830687830689,30.899470899470902 66.24338624338625,30.476190476190478 65.60846560846561,30.264550264550266 64.97354497354497,30.052910052910054 64.33862433862434,30.052910052910054 63.70370370370371,29.841269841269842 63.06878306878308,29.629629629629633 62.43386243386244,29.41798941798942 61.798941798941804,29.20634920634921 61.16402116402117,28.994708994708997 60.52910052910053,28.783068783068785 59.8941798941799,28.571428571428573 59.25925925925927,28.35978835978836 58.62433862433863,28.14814814814815 57.989417989417994,27.93650793650794 57.35449735449736,27.724867724867728 56.71957671957672,27.301587301587304 56.08465608465609,27.089947089947092 55.449735449735456,26.87830687830688 54.81481481481482,26.455026455026456 54.179894179894184,26.455026455026456 53.54497354497355,26.031746031746035 52.91005291005291,25.820105820105823 52.27513227513228,25.60846560846561 51.851851851851855,25.185185185185187 51.21693121693122,24.761904761904763 50.58201058201058,24.338624338624342 49.94708994708995,23.915343915343918 49.523809523809526,23.492063492063494 49.1005291005291,23.06878306878307 48.46560846560847,22.645502645502646 48.042328042328045,22.222222222222225 47.61904761904762,21.58730158730159 47.40740740740741,20.952380952380953 46.98412698412699,20.31746031746032 46.98412698412699,19.682539682539684 46.77248677248678,19.047619047619047 46.77248677248678,18.412698412698415 46.77248677248678,17.77777777777778 46.98412698412699,17.142857142857146 47.195767195767196,16.50793650793651 47.40740740740741,15.873015873015873 47.830687830687836,15.449735449735451 48.25396825396826,14.814814814814817 48.88888888888889,14.391534391534393 49.31216931216932,13.96825396825397 49.94708994708995,13.544973544973546 50.58201058201058,13.333333333333334 51.00529100529101,12.910052910052912 51.640211640211646,12.6984126984127 52.27513227513228,12.275132275132275 52.91005291005291,11.851851851851853 53.54497354497355,11.640211640211641 54.179894179894184,11.216931216931219 54.60317460317461,10.793650793650794 55.23809523809524,10.582010582010582 55.87301587301588,10.15873015873016 56.50793650793651,9.947089947089948 57.142857142857146,9.735449735449736 57.56613756613757,9.312169312169313 58.2010582010582,9.100529100529101 58.83597883597884,8.88888888888889 59.470899470899475,8.677248677248677 60.10582010582011,8.253968253968255 60.74074074074075,8.042328042328043 61.37566137566138,7.830687830687832 62.01058201058201,7.6190476190476195 62.64550264550265,7.407407407407408 63.280423280423285,7.195767195767196 63.91534391534392,6.772486772486773 64.55026455026456,6.560846560846561 65.18518518518519,6.34920634920635 65.82010582010582,6.137566137566138 66.45502645502646,5.9259259259259265 67.08994708994709,5.714285714285714 67.72486772486774,5.502645502645503 68.35978835978837,5.291005291005291 68.994708994709,5.291005291005291 69.62962962962963,5.07936507936508 70.26455026455027,4.867724867724868 70.8994708994709,4.656084656084657 71.53439153439155,4.444444444444445 72.16931216931218,4.2328042328042335 72.80423280423281,4.021164021164021 73.43915343915344,4.021164021164021 74.07407407407408,3.8095238095238098 74.70899470899471,3.597883597883598 75.34391534391536,3.3862433862433865 75.97883597883599,3.3862433862433865 76.61375661375662,3.174603174603175 77.24867724867725,3.174603174603175 77.88359788359789,2.9629629629629632 78.51851851851852,2.9629629629629632 79.15343915343917,2.7513227513227516 79.7883597883598,2.7513227513227516 80.42328042328043,2.53968253968254 81.05820105820106,2.3280423280423284 81.6931216931217,2.3280423280423284 82.32804232804233,2.1164021164021167 82.96296296296298,1.9047619047619049 83.59788359788361,1.9047619047619049 84.23280423280424,1.6931216931216932 84.86772486772487,1.6931216931216932 85.5026455026455,1.6931216931216932 86.13756613756614,1.4814814814814816 86.77248677248677,1.4814814814814816 87.40740740740742,1.4814814814814816 88.04232804232805,1.26984126984127 88.67724867724868,1.26984126984127 89.31216931216932,1.0582010582010584 89.94708994708995,0.8465608465608466 90.58201058201058,0.8465608465608466 91.21693121693123,0.8465608465608466 91.85185185185186,0.8465608465608466 92.4867724867725,0.634920634920635 93.12169312169313,0.634920634920635 93.75661375661376,0.634920634920635 94.39153439153439,0.4232804232804233 95.02645502645504,0.4232804232804233 95.66137566137567,0.4232804232804233 96.2962962962963,0.4232804232804233 96.93121693121694,0.4232804232804233 97.56613756613757,0.4232804232804233 98.2010582010582,0.4232804232804233 98.83597883597885,0.21164021164021166 99.47089947089948,0.21164021164021166 100.10582010582011,0.21164021164021166 100.74074074074075,0.21164021164021166 101.37566137566138,0.21164021164021166 102.01058201058201,0.21164021164021166 102.64550264550266,0.21164021164021166 103.28042328042329,0.21164021164021166 103.91534391534393,0.21164021164021166 104.55026455026456,0.21164021164021166 105.18518518518519,0.21164021164021166 105.82010582010582,0.21164021164021166 106.45502645502647,0.21164021164021166 107.0899470899471,0.21164021164021166 107.72486772486774,0.21164021164021166 108.35978835978837,0.21164021164021166 108.994708994709,0.21164021164021166 109.62962962962963,0.21164021164021166 110.26455026455027,0.21164021164021166 110.89947089947091,0.4232804232804233 111.53439153439155,0.4232804232804233 112.16931216931218,0.4232804232804233 112.80423280423281,0.4232804232804233 113.43915343915344,0.634920634920635 114.07407407407408,0.634920634920635 114.70899470899472,0.8465608465608466 115.34391534391536,1.0582010582010584 115.97883597883599,1.26984126984127 116.4021164021164,1.6931216931216932 117.03703703703705,2.1164021164021167 117.46031746031747,2.53968253968254 117.88359788359789,3.174603174603175 118.0952380952381,3.8095238095238098 118.30687830687832,4.444444444444445 118.30687830687832,5.07936507936508 118.51851851851853,5.714285714285714 118.51851851851853,6.34920634920635 118.51851851851853,6.984126984126985 118.30687830687832,7.6190476190476195 118.0952380952381,8.253968253968255 117.67195767195768,8.88888888888889 117.24867724867725,9.312169312169313 116.82539682539684,9.947089947089948 116.4021164021164,10.582010582010582 115.97883597883599,11.005291005291006 115.55555555555557,11.428571428571429 115.34391534391536,12.063492063492065 114.92063492063492,12.486772486772487 114.49735449735451,13.121693121693122 114.07407407407408,13.756613756613758 113.65079365079366,14.391534391534393 113.22751322751324,15.026455026455027 113.01587301587303,15.661375661375663 112.5925925925926,16.296296296296298 112.3809523809524,16.931216931216934 111.95767195767196,17.566137566137566 111.53439153439155,17.98941798941799 111.32275132275133,18.624338624338627 110.89947089947091,19.25925925925926 110.47619047619048,19.894179894179896 110.05291005291006,20.529100529100532 109.62962962962963,20.952380952380953 109.20634920634922,21.58730158730159 108.78306878306879,22.222222222222225 108.35978835978837,22.857142857142858 107.93650793650795,23.280423280423282 107.51322751322752,23.915343915343918 107.3015873015873,24.55026455026455 107.0899470899471,25.185185185185187 106.66666666666667,25.820105820105823 106.66666666666667,26.455026455026456 106.45502645502647,27.089947089947092 106.45502645502647,27.724867724867728 106.45502645502647,28.35978835978836 106.45502645502647,28.994708994708997 106.45502645502647,29.629629629629633 106.45502645502647,30.264550264550266 106.66666666666667,30.899470899470902 106.87830687830689,31.53439153439154 107.0899470899471,32.16931216931217 107.3015873015873,32.804232804232804 107.93650793650795,33.01587301587302 108.35978835978837,33.43915343915344 108.994708994709,33.86243386243387 109.41798941798943,34.4973544973545 109.84126984126985,34.920634920634924 110.47619047619048,34.920634920634924 111.11111111111111,35.13227513227513 111.53439153439155,35.55555555555556 112.16931216931218,35.55555555555556 112.80423280423281,35.55555555555556 113.43915343915344,35.55555555555556 114.07407407407408,35.55555555555556 114.70899470899472,35.55555555555556 115.34391534391536,35.34391534391535 115.97883597883599,35.13227513227513 116.61375661375662,35.13227513227513 117.24867724867725,34.920634920634924 117.88359788359789,34.70899470899471 118.51851851851853,34.4973544973545 119.15343915343917,34.28571428571429 119.7883597883598,33.86243386243387 120.42328042328043,33.65079365079365 121.05820105820106,33.43915343915344 121.6931216931217,33.01587301587302 122.32804232804234,32.804232804232804 122.96296296296298,32.592592592592595 123.59788359788361,32.16931216931217 124.23280423280424,31.95767195767196 124.65608465608466,31.53439153439154 125.2910052910053,31.322751322751326 125.92592592592594,31.111111111111114 126.56084656084657,30.68783068783069 127.1957671957672,30.476190476190478 127.83068783068784,30.264550264550266 128.25396825396825,29.841269841269842 128.88888888888889,29.629629629629633 129.52380952380955,29.41798941798942 130.15873015873018,29.20634920634921 130.7936507936508,28.783068783068785 131.42857142857144,28.571428571428573 132.06349206349208,28.35978835978836 132.6984126984127,28.14814814814815 133.33333333333334,27.724867724867728 133.96825396825398,27.513227513227516 134.6031746031746,27.089947089947092 135.23809523809524,26.87830687830688 135.87301587301587,26.666666666666668 136.5079365079365,26.243386243386244 137.14285714285717,26.031746031746035 137.7777777777778,25.820105820105823 138.41269841269843,25.3968253968254 139.04761904761907,25.185185185185187 139.6825396825397,24.761904761904763 140.31746031746033,24.55026455026455 140.95238095238096,24.338624338624342 141.5873015873016,23.915343915343918 142.22222222222223,23.703703703703706 142.85714285714286,23.280423280423282 143.4920634920635,23.06878306878307 144.12698412698413,22.645502645502646 144.76190476190476,22.433862433862437 145.39682539682542,22.010582010582013 146.03174603174605,21.7989417989418 146.66666666666669,21.375661375661377 147.30158730158732,20.952380952380953 150.47619047619048,19.25925925925926" style="fill:none; stroke:#cc0000; stroke-width:1.0"  /><polyline points="150.47619047619048,19.25925925925926 151.32275132275134,22.857142857142858 151.53439153439155,23.492063492063494 151.53439153439155,24.12698412698413 151.74603174603175,24.761904761904763 151.95767195767198,25.3968253968254 152.16931216931218,26.031746031746035 152.16931216931218,26.666666666666668 152.38095238095238,27.301587301587304 152.5925925925926,27.93650793650794 152.5925925925926,28.571428571428573 152.8042328042328,29.20634920634921 153.01587301587304,29.841269841269842 153.22751322751324,30.476190476190478 153.22751322751324,31.111111111111114 153.43915343915344,31.746031746031747 153.65079365079367,32.38095238095239 153.86243386243387,33.01587301587302 154.07407407407408,33.65079365079365 154.2857142857143,34.28571428571429 154.2857142857143,34.920634920634924 154.4973544973545,35.55555555555556 154.7089947089947,36.19047619047619 154.7089947089947,36.82539682539683 154.92063492063494,37.46031746031746 155.13227513227514,38.095238095238095 155.13227513227514,38.730158730158735 155.34391534391534,39.36507936507937 155.34391534391534,40.0 155.55555555555557,40.63492063492064 155.76719576719577,41.26984126984127 155.978835978836,41.904761904761905 155.978835978836,42.539682539682545 155.978835978836,43.17460317460318 156.1904761904762,43.80952380952381 156.4021164021164,44.44444444444445 156.4021164021164,45.07936507936508 156.61375661375664,45.714285714285715 156.61375661375664,46.349206349206355 156.82539682539684,46.98412698412699 157.03703703703704,47.61904761904762 157.03703703703704,48.25396825396826 157.24867724867727,48.88888888888889 157.46031746031747,49.523809523809526 157.46031746031747,50.158730158730165 157.46031746031747,50.7936507936508 157.67195767195767,51.42857142857143 157.8835978835979,52.06349206349207 157.8835978835979,52.6984126984127 157.8835978835979,53.333333333333336 158.0952380952381,53.968253968253975 158.0952380952381,54.60317460317461 158.0952380952381,55.23809523809524 158.30687830687833,55.87301587301588 158.30687830687833,56.50793650793651 158.51851851851853,57.142857142857146 158.51851851851853,57.777777777777786 158.51851851851853,58.41269841269842 158.73015873015873,59.04761904761905 158.73015873015873,59.682539682539684 158.73015873015873,60.31746031746032 158.94179894179896,60.952380952380956 158.94179894179896,61.58730158730159 159.15343915343917,62.22222222222223 159.15343915343917,62.85714285714286 159.15343915343917,63.492063492063494 159.36507936507937,64.12698412698413 159.36507936507937,64.76190476190477 159.36507936507937,65.3968253968254 159.5767195767196,66.03174603174604 159.5767195767196,66.66666666666667 159.5767195767196,67.3015873015873 159.5767195767196,67.93650793650794 159.7883597883598,68.57142857142858 159.7883597883598,69.20634920634922 160.0,69.84126984126985 160.0,70.47619047619048 160.0,71.11111111111111 160.0,71.74603174603175 160.0,72.38095238095238 160.21164021164023,73.01587301587303 160.21164021164023,73.65079365079366 160.21164021164023,74.28571428571429 160.21164021164023,74.92063492063492 160.21164021164023,75.55555555555556 160.21164021164023,76.19047619047619 160.21164021164023,76.82539682539684 160.21164021164023,77.46031746031747 160.21164021164023,78.0952380952381 160.42328042328043,78.73015873015873 160.42328042328043,79.36507936507937 160.42328042328043,80.0 160.63492063492066,80.63492063492065 160.84656084656086,81.26984126984128 160.84656084656086,81.90476190476191 160.84656084656086,82.53968253968254 160.84656084656086,83.17460317460318 161.05820105820106,83.80952380952381 161.05820105820106,84.44444444444446 161.05820105820106,85.07936507936509 160.84656084656086,85.71428571428572 160.84656084656086,86.34920634920636 160.63492063492066,86.98412698412699 160.42328042328043,87.61904761904762 160.42328042328043,88.25396825396827 160.21164021164023,88.8888888888889 159.7883597883598,89.31216931216932 159.5767195767196,89.94708994708995 159.36507936507937,90.58201058201058 158.94179894179896,91.21693121693123 158.51851851851853,91.64021164021165 158.0952380952381,92.06349206349208 157.46031746031747,92.27513227513228 156.82539682539684,92.69841269841271 156.1904761904762,92.69841269841271 155.55555555555557,92.91005291005291 154.92063492063494,92.91005291005291 154.2857142857143,92.91005291005291 153.65079365079367,92.91005291005291 153.01587301587304,92.91005291005291 152.38095238095238,92.91005291005291 151.74603174603175,92.91005291005291 151.11111111111111,92.91005291005291 150.47619047619048,92.91005291005291 149.84126984126985,92.91005291005291 149.20634920634922,92.91005291005291 148.57142857142858,92.91005291005291 147.93650793650795,92.91005291005291 147.30158730158732,93.12169312169313 146.66666666666669,93.12169312169313 146.03174603174605,93.12169312169313 145.39682539682542,93.33333333333334 144.76190476190476,93.33333333333334 144.12698412698413,93.33333333333334 143.4920634920635,93.54497354497356 142.85714285714286,93.75661375661376 142.22222222222223,93.75661375661376 141.5873015873016,93.96825396825398 140.95238095238096,93.96825396825398 140.31746031746033,94.17989417989419 139.6825396825397,94.39153439153439 139.04761904761907,94.60317460317461 138.41269841269843,94.81481481481482 137.7777777777778,95.02645502645504 137.14285714285717,95.23809523809524 136.5079365079365,95.44973544973546 136.0846560846561,95.87301587301587 135.44973544973547,96.2962962962963 134.81481481481484,96.71957671957672 134.3915343915344,97.14285714285715 133.96825396825398,97.56613756613757 133.54497354497354,97.989417989418 133.12169312169314,98.62433862433863 132.6984126984127,99.04761904761905 132.27513227513228,99.68253968253968 131.85185185185185,100.31746031746033 131.64021164021165,100.95238095238096 131.21693121693121,101.37566137566138 131.005291005291,102.01058201058201 130.7936507936508,102.64550264550266 130.7936507936508,103.28042328042329 130.58201058201058,103.91534391534393 130.37037037037038,104.55026455026456 130.37037037037038,105.18518518518519 130.15873015873018,105.82010582010582 130.15873015873018,106.45502645502647 130.15873015873018,107.0899470899471 130.15873015873018,107.72486772486774 130.15873015873018,108.35978835978837 130.15873015873018,108.994708994709 130.15873015873018,109.62962962962963 130.15873015873018,110.26455026455027 130.15873015873018,110.89947089947091 130.37037037037038,111.53439153439155 130.37037037037038,112.16931216931218 130.58201058201058,112.80423280423281 130.58201058201058,113.43915343915344 130.7936507936508,114.07407407407408 131.005291005291,114.70899470899472 131.21693121693121,115.34391534391536 131.42857142857144,115.97883597883599 131.64021164021165,116.61375661375662 131.85185185185185,117.24867724867725 132.27513227513228,117.88359788359789 132.4867724867725,118.51851851851853 132.9100529100529,119.15343915343917 133.12169312169314,119.7883597883598 133.54497354497354,120.42328042328043 133.96825396825398,121.05820105820106 134.3915343915344,121.6931216931217 134.81481481481484,122.32804232804234 135.23809523809524,122.75132275132276 135.66137566137567,123.3862433862434 136.0846560846561,124.02116402116403 136.5079365079365,124.44444444444446 136.93121693121694,124.86772486772487 137.35449735449737,125.5026455026455 137.7777777777778,125.92592592592594 138.2010582010582,126.34920634920636 138.62433862433863,126.77248677248679 139.04761904761907,127.1957671957672 139.47089947089947,127.61904761904763 140.10582010582013,128.04232804232805 140.74074074074076,128.46560846560848 141.3756613756614,128.67724867724868 142.01058201058203,129.10052910052912 142.64550264550266,129.31216931216932 143.2804232804233,129.52380952380955 143.91534391534393,129.52380952380955 144.55026455026456,129.52380952380955 145.1851851851852,129.73544973544975 145.82010582010582,129.73544973544975 146.45502645502646,129.73544973544975 147.0899470899471,129.73544973544975 147.72486772486775,129.73544973544975 148.35978835978838,129.52380952380955 148.99470899470901,129.31216931216932 149.62962962962965,129.10052910052912 150.26455026455028,128.88888888888889 150.8994708994709,128.67724867724868 151.53439153439155,128.46560846560848 152.16931216931218,128.25396825396825 152.8042328042328,127.83068783068784 153.43915343915344,127.61904761904763 153.86243386243387,127.1957671957672 154.4973544973545,126.98412698412699 154.92063492063494,126.56084656084657 155.55555555555557,126.13756613756615 156.1904761904762,125.71428571428572 156.82539682539684,125.2910052910053 157.46031746031747,124.86772486772487 158.0952380952381,124.44444444444446 158.51851851851853,124.02116402116403 159.15343915343917,123.59788359788361 159.5767195767196,123.17460317460318 160.0,122.75132275132276 160.63492063492066,122.32804232804234 161.2698412698413,121.90476190476191 161.90476190476193,121.4814814814815 162.53968253968256,121.05820105820106 163.1746031746032,120.63492063492065 163.80952380952382,120.21164021164022 164.44444444444446,119.7883597883598 165.0793650793651,119.57671957671958 165.71428571428572,119.15343915343917 166.34920634920636,118.94179894179895 166.984126984127,118.73015873015873 167.61904761904762,118.51851851851853 168.25396825396825,118.30687830687832 168.8888888888889,118.30687830687832 169.52380952380955,118.30687830687832 170.15873015873018,118.30687830687832 170.7936507936508,118.51851851851853 171.42857142857144,118.94179894179895 172.06349206349208,119.36507936507937 172.4867724867725,119.7883597883598 172.9100529100529,120.42328042328043 173.33333333333334,121.05820105820106 173.54497354497354,121.6931216931217 173.75661375661377,122.32804232804234 174.1798941798942,122.96296296296298 174.3915343915344,123.59788359788361 174.6031746031746,124.23280423280424 174.6031746031746,124.86772486772487 174.81481481481484,125.5026455026455 175.02645502645504,126.13756613756615 175.23809523809524,126.77248677248679 175.23809523809524,127.40740740740742 175.44973544973547,128.04232804232805 175.66137566137567,128.67724867724868 175.66137566137567,129.31216931216932 175.87301587301587,129.94708994708995 175.87301587301587,130.58201058201058 176.0846560846561,131.21693121693121 176.0846560846561,131.85185185185185 176.0846560846561,132.4867724867725 176.2962962962963,133.12169312169314 176.2962962962963,133.75661375661377 176.2962962962963,134.3915343915344 176.2962962962963,135.02645502645504 176.2962962962963,135.66137566137567 176.50793650793653,136.2962962962963 176.50793650793653,136.93121693121694 176.71957671957674,137.56613756613757 176.93121693121694,138.2010582010582 176.93121693121694,138.83597883597884 176.93121693121694,139.47089947089947 176.93121693121694,140.10582010582013 177.14285714285717,140.74074074074076 177.14285714285717,141.3756613756614 177.14285714285717,142.01058201058203 177.14285714285717,142.64550264550266 177.14285714285717,143.2804232804233 177.35449735449737,143.91534391534393 177.35449735449737,144.55026455026456 177.35449735449737,145.1851851851852 177.35449735449737,145.82010582010582 177.35449735449737,146.45502645502646 177.35449735449737,147.0899470899471 177.35449735449737,147.72486772486775 177.56613756613757,150.47619047619048" style="fill:none; stroke:#999900; stroke-width:1.0"  /><polyline points="177.56613756613757,150.47619047619048 174.1798941798942,151.11111111111111 173.54497354497354,151.32275132275134 172.9100529100529,151.32275132275134 172.27513227513228,151.53439153439155 171.64021164021165,151.53439153439155 171.005291005291,151.74603174603175 170.37037037037038,151.74603174603175 169.73544973544975,151.95767195767198 169.10052910052912,151.95767195767198 168.46560846560848,152.16931216931218 167.83068783068785,152.16931216931218 167.19576719576722,152.38095238095238 166.56084656084658,152.5925925925926 165.92592592592595,152.5925925925926 165.2910052910053,152.8042328042328 164.65608465608466,153.01587301587304 164.02116402116403,153.22751322751324 163.3862433862434,153.22751322751324 162.75132275132276,153.43915343915344 162.11640211640213,153.65079365079367 161.4814814814815,153.86243386243387 160.84656084656086,154.07407407407408 160.21164021164023,154.07407407407408 159.5767195767196,154.4973544973545 158.94179894179896,154.7089947089947 158.30687830687833,154.7089947089947 157.67195767195767,154.92063492063494 157.03703703703704,154.92063492063494 156.4021164021164,155.13227513227514 155.76719576719577,155.34391534391534 155.13227513227514,155.55555555555557 154.4973544973545,155.76719576719577 153.86243386243387,155.76719576719577 153.22751322751324,155.978835978836 152.5925925925926,156.4021164021164 151.95767195767198,156.4021164021164 151.32275132275134,156.61375661375664 150.6878306878307,156.82539682539684 150.05291005291005,157.03703703703704 149.41798941798942,157.24867724867727 148.78306878306879,157.46031746031747 148.14814814814815,157.67195767195767 147.51322751322752,157.8835978835979 146.8783068783069,158.0952380952381 146.24338624338625,158.0952380952381 145.82010582010582,158.51851851851853 145.1851851851852,158.73015873015873 144.55026455026456,158.94179894179896 143.91534391534393,159.15343915343917 143.2804232804233,159.36507936507937 142.64550264550266,159.5767195767196 142.01058201058203,159.7883597883598 141.3756613756614,160.0 140.74074074074076,160.21164021164023 140.10582010582013,160.42328042328043 139.47089947089947,160.63492063492066 138.83597883597884,161.05820105820106 138.2010582010582,161.2698412698413 137.56613756613757,161.4814814814815 136.93121693121694,161.6931216931217 136.2962962962963,161.90476190476193 135.66137566137567,162.11640211640213 135.02645502645504,162.32804232804233 134.3915343915344,162.75132275132276 133.75661375661377,162.96296296296296 133.12169312169314,163.1746031746032 132.4867724867725,163.3862433862434 131.85185185185185,163.80952380952382 131.21693121693121,164.02116402116403 130.58201058201058,164.23280423280426 129.94708994708995,164.44444444444446 129.31216931216932,164.8677248677249 128.67724867724868,165.0793650793651 128.04232804232805,165.2910052910053 127.40740740740742,165.71428571428572 126.77248677248679,165.92592592592595 126.13756613756615,166.34920634920636 125.5026455026455,166.56084656084658 124.86772486772487,166.984126984127 124.44444444444446,167.40740740740742 123.80952380952382,167.61904761904762 123.3862433862434,168.04232804232805 122.75132275132276,168.46560846560848 122.11640211640213,168.67724867724868 121.6931216931217,169.10052910052912 121.05820105820106,169.52380952380955 120.42328042328043,169.94708994708995 119.7883597883598,170.37037037037038 119.36507936507937,170.7936507936508 118.73015873015873,171.005291005291 118.30687830687832,171.42857142857144 117.88359788359789,171.85185185185188 117.46031746031747,172.27513227513228 117.03703703703705,172.6984126984127 116.61375661375662,173.12169312169314 116.1904761904762,173.54497354497354 116.1904761904762,174.1798941798942 115.76719576719577,174.81481481481484 115.55555555555557,175.44973544973547 115.13227513227514,176.0846560846561 115.13227513227514,176.71957671957674 115.13227513227514,177.35449735449737 115.13227513227514,177.989417989418 115.34391534391536,178.62433862433863 115.55555555555557,179.25925925925927 115.55555555555557,179.8941798941799 115.76719576719577,180.52910052910053 115.97883597883599,181.16402116402116 116.4021164021164,181.79894179894183 116.61375661375662,182.43386243386246 117.03703703703705,183.0687830687831 117.46031746031747,183.70370370370372 117.88359788359789,184.12698412698415 118.30687830687832,184.55026455026456 118.73015873015873,184.973544973545 119.15343915343917,185.39682539682542 119.57671957671958,185.82010582010582 120.00000000000001,186.24338624338625 120.63492063492065,186.66666666666669 121.26984126984128,187.08994708994712 121.90476190476191,187.51322751322752 122.53968253968254,187.93650793650795 122.96296296296298,188.35978835978838 123.59788359788361,188.78306878306879 124.23280423280424,189.20634920634922 124.65608465608466,189.62962962962965 125.2910052910053,189.84126984126985 125.92592592592594,190.26455026455028 126.56084656084657,190.6878306878307 127.1957671957672,191.11111111111111 127.61904761904763,191.53439153439155 128.04232804232805,191.95767195767198 128.67724867724868,192.3809523809524 129.10052910052912,192.8042328042328 129.52380952380955,193.22751322751324 129.94708994708995,193.65079365079367 130.37037037037038,194.07407407407408 130.7936507936508,194.70899470899474 131.005291005291,195.34391534391537 131.42857142857144,195.978835978836 131.64021164021165,196.61375661375664 131.85185185185185,197.24867724867727 131.85185185185185,197.8835978835979 132.27513227513228,198.51851851851853 132.27513227513228,199.15343915343917 132.06349206349208,199.7883597883598 132.06349206349208,200.42328042328043 132.06349206349208,201.05820105820106 131.85185185185185,201.6931216931217 131.85185185185185,202.32804232804233 131.42857142857144,202.962962962963 131.21693121693121,203.59788359788362 131.005291005291,204.23280423280426 130.58201058201058,204.65608465608466 130.15873015873018,205.29100529100532 129.73544973544975,205.71428571428572 129.31216931216932,206.13756613756615 128.88888888888889,206.56084656084658 128.25396825396825,206.984126984127 127.83068783068784,207.40740740740742 127.40740740740742,207.83068783068785 126.98412698412699,208.25396825396828 126.34920634920636,208.67724867724868 125.92592592592594,209.10052910052912 125.5026455026455,209.52380952380955 125.07936507936509,209.94708994708995 124.65608465608466,210.37037037037038 124.02116402116403,210.7936507936508 123.3862433862434,211.21693121693124 122.75132275132276,211.64021164021165 122.11640211640213,212.06349206349208 121.4814814814815,212.27513227513228 120.84656084656086,212.6984126984127 120.21164021164022,212.91005291005294 119.57671957671958,213.12169312169314 118.94179894179895,213.54497354497357 118.30687830687832,213.75661375661377 117.67195767195768,213.96825396825398 117.03703703703705,214.1798941798942 116.4021164021164,214.3915343915344 115.76719576719577,214.6031746031746 115.13227513227514,214.81481481481484 114.49735449735451,215.02645502645504 113.86243386243387,215.02645502645504 113.22751322751324,215.44973544973547 112.5925925925926,215.44973544973547 111.95767195767196,215.66137566137567 111.32275132275133,215.66137566137567 110.6878306878307,215.8730158730159 110.05291005291006,216.0846560846561 109.41798941798943,216.0846560846561 108.78306878306879,216.0846560846561 108.14814814814815,216.2962962962963 107.51322751322752,216.2962962962963 106.87830687830689,216.2962962962963 106.24338624338625,216.2962962962963 105.60846560846562,216.2962962962963 104.97354497354497,216.2962962962963 104.33862433862434,216.2962962962963 103.70370370370371,216.2962962962963 103.06878306878308,216.2962962962963 102.43386243386244,216.2962962962963 101.79894179894181,216.0846560846561 101.16402116402116,215.66137566137567 100.52910052910053,215.23809523809524 99.8941798941799,214.81481481481484 99.25925925925927,214.3915343915344 98.83597883597885,213.96825396825398 98.41269841269842,213.54497354497357 97.989417989418,213.12169312169314 97.56613756613757,212.6984126984127 97.14285714285715,212.27513227513228 96.71957671957672,211.64021164021165 96.2962962962963,211.005291005291 96.08465608465609,210.37037037037038 95.66137566137567,209.73544973544975 95.23809523809524,209.10052910052912 95.02645502645504,208.46560846560848 94.60317460317461,207.83068783068785 94.39153439153439,207.19576719576722 94.39153439153439,206.56084656084658 94.17989417989419,205.92592592592595 94.17989417989419,205.29100529100532 93.96825396825398,204.65608465608466 93.96825396825398,204.02116402116403 93.96825396825398,203.3862433862434 93.96825396825398,202.75132275132276 93.75661375661376,202.11640211640213 93.96825396825398,201.4814814814815 93.96825396825398,200.84656084656086 93.96825396825398,200.21164021164023 93.96825396825398,199.5767195767196 93.96825396825398,198.94179894179896 93.75661375661376,198.30687830687833 93.96825396825398,197.6719576719577 93.75661375661376,197.03703703703704 93.75661375661376,196.4021164021164 93.54497354497356,195.76719576719577 93.54497354497356,195.13227513227514 93.33333333333334,194.4973544973545 93.12169312169313,193.86243386243387 92.91005291005291,193.22751322751324 92.69841269841271,192.5925925925926 92.4867724867725,191.95767195767198 92.06349206349208,191.32275132275134 91.64021164021165,190.6878306878307 91.21693121693123,190.26455026455028 90.7936507936508,189.84126984126985 90.37037037037038,189.41798941798945 89.73544973544975,189.41798941798945 89.1005291005291,188.99470899470901 88.46560846560847,188.57142857142858 87.83068783068784,188.57142857142858 87.1957671957672,188.35978835978838 86.56084656084657,188.14814814814815 85.92592592592594,188.14814814814815 85.29100529100529,188.14814814814815 84.65608465608466,188.14814814814815 84.02116402116403,188.14814814814815 83.3862433862434,188.35978835978838 82.75132275132276,188.35978835978838 82.11640211640213,188.57142857142858 81.48148148148148,188.78306878306879 80.84656084656085,188.99470899470901 80.21164021164022,189.20634920634922 79.57671957671958,189.62962962962965 78.94179894179895,189.84126984126985 78.30687830687832,190.05291005291008 77.67195767195767,190.26455026455028 77.24867724867725,190.6878306878307 76.61375661375662,190.8994708994709 75.97883597883599,191.32275132275134 75.34391534391536,191.74603174603175 74.70899470899471,192.16931216931218 74.07407407407408,192.3809523809524 73.65079365079366,192.8042328042328 73.01587301587303,193.01587301587304 72.38095238095238,193.22751322751324 71.74603174603175,193.65079365079367 71.11111111111111,193.86243386243387 70.47619047619048,194.07407407407408 69.84126984126985,194.4973544973545 69.20634920634922,194.70899470899474 68.57142857142858,194.92063492063494 67.93650793650794,195.13227513227514 67.3015873015873,195.34391534391537 66.66666666666667,195.55555555555557 66.03174603174604,195.76719576719577 65.3968253968254,195.978835978836 64.76190476190477,196.1904761904762 64.12698412698413,196.4021164021164 63.492063492063494,196.61375661375664 62.85714285714286,196.82539682539684 62.22222222222223,197.03703703703704 61.58730158730159,197.24867724867727 60.952380952380956,197.46031746031747 60.31746031746032,197.6719576719577 59.682539682539684,197.8835978835979 59.04761904761905,198.0952380952381 58.41269841269842,198.30687830687833 57.777777777777786,198.30687830687833 57.142857142857146,198.51851851851853 56.50793650793651,198.73015873015873 55.87301587301588,198.94179894179896 55.23809523809524,199.15343915343917 54.60317460317461,199.36507936507937 53.968253968253975,199.5767195767196 53.333333333333336,199.7883597883598 52.6984126984127,200.00000000000003 52.06349206349207,200.21164021164023 51.42857142857143,200.21164021164023 50.7936507936508,200.42328042328043 50.158730158730165,200.63492063492066 49.523809523809526,200.63492063492066 48.88888888888889,200.84656084656086 45.29100529100529,201.90476190476193" style="fill:none; stroke:#00aa99; stroke-width:1.0"  /><polyline points="45.29100529100529,201.90476190476193 44.867724867724874,198.51851851851853 44.867724867724874,197.8835978835979 44.867724867724874,197.24867724867727 44.867724867724874,196.61375661375664 44.65608465608466,195.978835978836 44.65608465608466,195.34391534391537 44.65608465608466,194.70899470899474 44.44444444444445,194.07407407407408 44.44444444444445,193.43915343915344 44.232804232804234,192.8042328042328 44.232804232804234,192.16931216931218 44.021164021164026,191.53439153439155 44.021164021164026,190.8994708994709 43.80952380952381,190.26455026455028 43.80952380952381,189.62962962962965 43.5978835978836,188.99470899470901 43.5978835978836,188.35978835978838 43.386243386243386,187.72486772486775 43.386243386243386,187.08994708994712 43.17460317460318,186.45502645502646 42.96296296296297,185.82010582010582 42.96296296296297,185.1851851851852 42.75132275132275,184.55026455026456 42.539682539682545,183.91534391534393 42.539682539682545,183.2804232804233 42.32804232804233,182.64550264550266 42.11640211640212,182.01058201058203 42.11640211640212,181.3756613756614 41.904761904761905,180.74074074074076 41.904761904761905,180.10582010582013 41.6931216931217,179.4708994708995 41.48148148148149,178.83597883597884 41.48148148148149,178.2010582010582 41.26984126984127,177.56613756613757 41.058201058201064,176.93121693121694 41.058201058201064,176.2962962962963 40.84656084656085,175.66137566137567 40.63492063492064,175.02645502645504 40.63492063492064,174.3915343915344 40.423280423280424,173.75661375661377 40.211640211640216,173.12169312169314 40.0,172.4867724867725 39.78835978835979,171.85185185185188 39.78835978835979,171.21693121693124 39.57671957671958,170.58201058201058 39.36507936507937,169.94708994708995 39.15343915343916,169.31216931216932 39.15343915343916,168.67724867724868 38.94179894179894,168.04232804232805 38.730158730158735,167.40740740740742 38.51851851851852,166.7724867724868 38.51851851851852,166.13756613756615 38.30687830687831,165.50264550264552 38.095238095238095,164.8677248677249 37.883597883597886,164.23280423280426 37.67195767195768,163.59788359788362 37.248677248677254,162.96296296296296 37.03703703703704,162.32804232804233 36.613756613756614,161.6931216931217 36.19047619047619,161.05820105820106 35.76719576719577,160.42328042328043 35.34391534391535,160.0 34.920634920634924,159.5767195767196 34.28571428571429,159.15343915343917 33.65079365079365,158.94179894179896 33.01587301587302,158.73015873015873 32.38095238095239,158.51851851851853 31.746031746031747,158.30687830687833 31.111111111111114,158.30687830687833 30.476190476190478,158.30687830687833 29.841269841269842,158.30687830687833 29.20634920634921,158.51851851851853 28.571428571428573,158.51851851851853 27.93650793650794,158.73015873015873 27.301587301587304,158.94179894179896 26.666666666666668,159.15343915343917 26.031746031746035,159.5767195767196 25.3968253968254,159.7883597883598 24.973544973544975,160.21164021164023 24.338624338624342,160.63492063492066 23.703703703703706,161.05820105820106 23.06878306878307,161.4814814814815 22.645502645502646,161.90476190476193 22.010582010582013,162.32804232804233 21.375661375661377,162.53968253968256 20.952380952380953,162.96296296296296 20.31746031746032,163.3862433862434 19.682539682539684,163.80952380952382 19.25925925925926,164.44444444444446 18.624338624338627,164.8677248677249 17.98941798941799,165.2910052910053 17.566137566137566,165.71428571428572 16.931216931216934,166.13756613756615 16.296296296296298,166.56084656084658 15.661375661375663,166.984126984127 15.026455026455027,167.19576719576722 14.391534391534393,167.40740740740742 13.756613756613758,167.61904761904762 13.121693121693122,167.83068783068785 12.486772486772487,168.04232804232805 11.851851851851853,168.04232804232805 11.216931216931219,167.83068783068785 10.582010582010582,167.83068783068785 9.947089947089948,167.61904761904762 9.312169312169313,167.19576719576722 8.677248677248677,166.7724867724868 8.253968253968255,166.34920634920636 7.830687830687832,165.71428571428572 7.407407407407408,165.0793650793651 6.984126984126985,164.44444444444446 6.772486772486773,163.80952380952382 6.34920634920635,163.1746031746032 6.137566137566138,162.53968253968256 5.9259259259259265,161.90476190476193 5.714285714285714,161.2698412698413 5.291005291005291,160.63492063492066 5.07936507936508,160.0 4.867724867724868,159.36507936507937 4.656084656084657,158.73015873015873 4.444444444444445,158.0952380952381 4.2328042328042335,157.46031746031747 3.8095238095238098,156.82539682539684 3.597883597883598,156.1904761904762 3.3862433862433865,155.55555555555557 3.174603174603175,154.92063492063494 2.9629629629629632,154.2857142857143 2.7513227513227516,153.65079365079367 2.53968253968254,153.01587301587304 2.3280423280423284,152.38095238095238 2.3280423280423284,151.74603174603175 2.1164021164021167,151.11111111111111 1.9047619047619049,150.47619047619048 1.9047619047619049,149.84126984126985 1.6931216931216932,149.20634920634922 1.4814814814814816,148.57142857142858 1.4814814814814816,147.93650793650795 1.26984126984127,147.30158730158732 1.26984126984127,146.66666666666669 1.0582010582010584,146.03174603174605 1.0582010582010584,145.39682539682542 1.0582010582010584,144.76190476190476 0.8465608465608466,144.12698412698413 0.8465608465608466,143.4920634920635 0.634920634920635,142.85714285714286 0.634920634920635,142.22222222222223 0.634920634920635,141.5873015873016 0.634920634920635,140.95238095238096 0.4232804232804233,140.31746031746033 0.4232804232804233,139.6825396825397 0.4232804232804233,139.04761904761907 0.21164021164021166,138.41269841269843 0.21164021164021166,137.7777777777778 0.21164021164021166,137.14285714285717 0.21164021164021166,136.5079365079365 0.21164021164021166,135.87301587301587 0.21164021164021166,135.23809523809524 0.21164021164021166,134.6031746031746 0.21164021164021166,133.96825396825398 0.4232804232804233,133.33333333333334 0.634920634920635,132.6984126984127 0.8465608465608466,132.06349206349208 1.0582010582010584,131.42857142857144 1.4814814814814816,131.005291005291 1.9047619047619049,130.58201058201058 2.3280423280423284,130.15873015873018 2.7513227513227516,129.73544973544975 3.3862433862433865,129.52380952380955 4.021164021164021,129.31216931216932 4.656084656084657,129.10052910052912 5.291005291005291,129.10052910052912 5.9259259259259265,129.10052910052912 6.560846560846561,129.10052910052912 7.195767195767196,129.31216931216932 7.830687830687832,129.31216931216932 8.465608465608467,129.31216931216932 9.100529100529101,129.52380952380955 9.735449735449736,129.73544973544975 10.370370370370372,129.94708994708995 11.005291005291006,130.15873015873018 11.640211640211641,130.15873015873018 12.275132275132275,130.37037037037038 12.910052910052912,130.58201058201058 13.544973544973546,130.58201058201058 14.17989417989418,130.7936507936508 14.814814814814817,131.005291005291 15.449735449735451,131.005291005291 16.084656084656086,131.21693121693121 16.71957671957672,131.42857142857144 17.354497354497354,131.42857142857144 17.98941798941799,131.64021164021165 18.624338624338627,131.64021164021165 19.25925925925926,131.64021164021165 19.894179894179896,131.42857142857144 20.529100529100532,131.21693121693121 21.164021164021165,131.21693121693121 21.7989417989418,131.005291005291 22.222222222222225,130.58201058201058 22.857142857142858,130.37037037037038 23.492063492063494,129.94708994708995 23.915343915343918,129.52380952380955 24.338624338624342,129.10052910052912 24.761904761904763,128.67724867724868 24.973544973544975,128.04232804232805 25.3968253968254,127.40740740740742 25.60846560846561,126.77248677248679 25.820105820105823,126.13756613756615 26.031746031746035,125.5026455026455 26.031746031746035,124.86772486772487 26.243386243386244,124.23280423280424 26.243386243386244,123.59788359788361 26.243386243386244,122.96296296296298 26.243386243386244,122.32804232804234 26.243386243386244,121.6931216931217 26.243386243386244,121.05820105820106 26.243386243386244,120.42328042328043 26.243386243386244,119.7883597883598 26.243386243386244,119.15343915343917 26.243386243386244,118.51851851851853 26.243386243386244,117.88359788359789 26.031746031746035,117.24867724867725 26.031746031746035,116.61375661375662 26.031746031746035,115.97883597883599 26.031746031746035,115.34391534391536 26.031746031746035,114.70899470899472 25.820105820105823,114.07407407407408 25.820105820105823,113.43915343915344 25.820105820105823,112.80423280423281 25.820105820105823,112.16931216931218 25.60846560846561,111.53439153439155 25.3968253968254,110.89947089947091 25.3968253968254,110.26455026455027 25.185185185185187,109.62962962962963 25.185185185185187,108.994708994709 24.973544973544975,108.35978835978837 24.761904761904763,107.72486772486774 24.761904761904763,107.0899470899471 24.55026455026455,106.45502645502647 24.338624338624342,105.82010582010582 24.12698412698413,105.18518518518519 24.12698412698413,104.55026455026456 23.915343915343918,103.91534391534393 23.492063492063494,103.28042328042329 23.280423280423282,102.64550264550266 23.06878306878307,102.01058201058201 22.857142857142858,101.37566137566138 22.645502645502646,100.74074074074075 22.433862433862437,100.10582010582011 22.222222222222225,99.47089947089948 22.010582010582013,98.83597883597885 21.7989417989418,98.2010582010582 21.58730158730159,97.56613756613757 21.375661375661377,96.93121693121694 21.164021164021165,96.2962962962963 20.952380952380953,95.66137566137567 20.529100529100532,95.02645502645504 20.31746031746032,94.39153439153439 20.105820105820108,93.75661375661376 19.894179894179896,93.12169312169313 19.682539682539684,92.4867724867725 19.25925925925926,91.85185185185186 19.25925925925926,91.21693121693123 19.047619047619047,90.58201058201058 18.83597883597884,89.94708994708995 18.624338624338627,89.31216931216932 18.412698412698415,88.67724867724868 18.201058201058203,88.04232804232805 17.98941798941799,87.40740740740742 17.77777777777778,86.77248677248677 17.566137566137566,86.13756613756614 17.354497354497354,85.5026455026455 17.142857142857146,84.86772486772487 17.142857142857146,84.23280423280424 16.71957671957672,83.59788359788361 16.50793650793651,82.96296296296298 16.296296296296298,82.32804232804233 16.296296296296298,81.6931216931217 16.084656084656086,81.05820105820106 15.873015873015873,80.42328042328043 15.661375661375663,79.7883597883598 15.449735449735451,79.15343915343917 15.238095238095239,78.51851851851852 15.026455026455027,77.88359788359789 14.814814814814817,77.24867724867725 14.814814814814817,76.61375661375662 14.603174603174605,75.97883597883599 14.391534391534393,75.34391534391536 14.17989417989418,74.70899470899471 13.96825396825397,74.07407407407408 13.96825396825397,73.43915343915344 13.756613756613758,72.80423280423281 13.544973544973546,72.16931216931218 13.333333333333334,71.53439153439155 13.121693121693122,70.8994708994709 13.121693121693122,70.26455026455027 12.910052910052912,69.62962962962963 12.6984126984127,68.994708994709 12.486772486772487,68.35978835978837 12.275132275132275,67.72486772486774 12.063492063492065,67.08994708994709 11.851851851851853,66.45502645502646 11.851851851851853,65.82010582010582 11.640211640211641,65.18518518518519 11.428571428571429,64.55026455026456 11.428571428571429,63.91534391534392 11.216931216931219,63.280423280423285 11.005291005291006,62.64550264550265 11.005291005291006,62.01058201058201 10.793650793650794,61.37566137566138 10.582010582010582,60.74074074074075 10.582010582010582,60.10582010582011 10.370370370370372,59.470899470899475 10.15873015873016,58.83597883597884 10.15873015873016,58.2010582010582 9.947089947089948,57.56613756613757 9.735449735449736,56.93121693121694 9.523809523809524,56.2962962962963 9.523809523809524,55.661375661375665 9.312169312169313,55.02645502645503 8.465608465608467,51.42857142857143" style="fill:none; stroke:#3300bb; stroke-width:1.0"  /><circle cx="8.465608465608467" cy="51.42857142857143" r="2.0" style="fill:none; stroke:#000000aa; stroke-width:0.25" /><circle cx="150.47619047619048" cy="19.25925925925926" r="2.0" style="fill:none; stroke:#000000aa; stroke-width:0.25" /><circle cx="177.56613756613757" cy="150.47619047619048" r="2.0" style="fill:none; stroke:#000000aa; stroke-width:0.25" /><circle cx="45.29100529100529" cy="201.90476190476193" r="2.0" style="fill:none; stroke:#000000aa; stroke-width:0.25" /><circle cx="9.100529100529101" cy="51.640211640211646" r="2.0" style="fill:none; stroke:#ff3366aa; stroke-width:0.25" /><circle cx="150.26455026455028" cy="19.682539682539684" r="2.0" style="fill:none; stroke:#ff3366aa; stroke-width:0.25" /><circle cx="177.35449735449737" cy="150.8994708994709" r="2.0" style="fill:none; stroke:#ff3366aa; stroke-width:0.25" /><circle cx="45.714285714285715" cy="201.6931216931217" r="2.0" style="fill:none; stroke:#ff3366aa; stroke-width:0.25" /><polyline points="20.529100529100532,50.58201058201058 19.894179894179896,50.7936507936508 19.25925925925926,51.00529100529101 18.624338624338627,51.00529100529101 17.98941798941799,51.00529100529101 17.354497354497354,51.00529100529101 16.71957671957672,51.00529100529101 16.084656084656086,51.00529100529101 15.449735449735451,51.21693121693122 14.814814814814817,51.21693121693122 14.17989417989418,51.21693121693122 13.544973544973546,51.21693121693122 12.910052910052912,51.21693121693122 12.275132275132275,51.21693121693122" style="fill:none; stroke:#001100; stroke-width:1.0" /><polyline points="11.216931216931219,63.280423280423285 11.005291005291006,62.64550264550265 11.005291005291006,62.01058201058201 10.793650793650794,61.37566137566138 10.582010582010582,60.74074074074075 10.582010582010582,60.10582010582011 10.370370370370372,59.470899470899475 10.15873015873016,58.83597883597884 10.15873015873016,58.2010582010582 9.947089947089948,57.56613756613757 9.735449735449736,56.93121693121694 9.523809523809524,56.2962962962963 9.523809523809524,55.661375661375665 9.312169312169313,55.02645502645503" style="fill:none; stroke:#000011; stroke-width:1.0" /><polyline points="153.22751322751324,31.111111111111114 153.22751322751324,30.476190476190478 153.01587301587304,29.841269841269842 152.8042328042328,29.20634920634921 152.5925925925926,28.571428571428573 152.5925925925926,27.93650793650794 152.38095238095238,27.301587301587304 152.16931216931218,26.666666666666668 152.16931216931218,26.031746031746035 151.95767195767198,25.3968253968254 151.74603174603175,24.761904761904763 151.53439153439155,24.12698412698413 151.53439153439155,23.492063492063494 151.32275132275134,22.857142857142858" style="fill:none; stroke:#001100; stroke-width:1.0" /><polyline points="139.6825396825397,24.761904761904763 140.31746031746033,24.55026455026455 140.95238095238096,24.338624338624342 141.5873015873016,23.915343915343918 142.22222222222223,23.703703703703706 142.85714285714286,23.280423280423282 143.4920634920635,23.06878306878307 144.12698412698413,22.645502645502646 144.76190476190476,22.433862433862437 145.39682539682542,22.010582010582013 146.03174603174605,21.7989417989418 146.66666666666669,21.375661375661377 147.30158730158732,20.952380952380953" style="fill:none; stroke:#000011; stroke-width:1.0" /><polyline points="165.92592592592595,152.5925925925926 166.56084656084658,152.5925925925926 167.19576719576722,152.38095238095238 167.83068783068785,152.16931216931218 168.46560846560848,152.16931216931218 169.10052910052912,151.95767195767198 169.73544973544975,151.95767195767198 170.37037037037038,151.74603174603175 171.005291005291,151.74603174603175 171.64021164021165,151.53439153439155 172.27513227513228,151.53439153439155 172.9100529100529,151.32275132275134 173.54497354497354,151.32275132275134 174.1798941798942,151.11111111111111" style="fill:none; stroke:#001100; stroke-width:1.0" /><polyline points="176.93121693121694,139.47089947089947 176.93121693121694,140.10582010582013 177.14285714285717,140.74074074074076 177.14285714285717,141.3756613756614 177.14285714285717,142.01058201058203 177.14285714285717,142.64550264550266 177.14285714285717,143.2804232804233 177.35449735449737,143.91534391534393 177.35449735449737,144.55026455026456 177.35449735449737,145.1851851851852 177.35449735449737,145.82010582010582 177.35449735449737,146.45502645502646 177.35449735449737,147.0899470899471 177.35449735449737,147.72486772486775" style="fill:none; stroke:#000011; stroke-width:1.0" /><polyline points="43.80952380952381,190.26455026455028 44.021164021164026,190.8994708994709 44.021164021164026,191.53439153439155 44.232804232804234,192.16931216931218 44.232804232804234,192.8042328042328 44.44444444444445,193.43915343915344 44.44444444444445,194.07407407407408 44.65608465608466,194.70899470899474 44.65608465608466,195.34391534391537 44.65608465608466,195.978835978836 44.867724867724874,196.61375661375664 44.867724867724874,197.24867724867727 44.867724867724874,197.8835978835979 44.867724867724874,198.51851851851853" style="fill:none; stroke:#001100; stroke-width:1.0" /><polyline points="57.142857142857146,198.51851851851853 56.50793650793651,198.73015873015873 55.87301587301588,198.94179894179896 55.23809523809524,199.15343915343917 54.60317460317461,199.36507936507937 53.968253968253975,199.5767195767196 53.333333333333336,199.7883597883598 52.6984126984127,200.00000000000003 52.06349206349207,200.21164021164023 51.42857142857143,200.21164021164023 50.7936507936508,200.42328042328043 50.158730158730165,200.63492063492066 49.523809523809526,200.63492063492066 48.88888888888889,200.84656084656086" style="fill:none; stroke:#000011; stroke-width:1.0" /><polyline points="12.275132275132275,51.21693121693122 -8.88888888888889,52.91005291005291" style="fill:none; stroke:#ffaa00; stroke-width:0.4" /><polyline points="9.312169312169313,55.02645502645503 4.656084656084657,34.4973544973545" style="fill:none; stroke:#aaff00; stroke-width:0.4" /><polyline points="151.32275132275134,22.857142857142858 146.66666666666669,2.3280423280423284" style="fill:none; stroke:#ffaa00; stroke-width:0.4" /><polyline points="147.30158730158732,20.952380952380953 166.13756613756615,11.428571428571429" style="fill:none; stroke:#aaff00; stroke-width:0.4" /><polyline points="174.1798941798942,151.11111111111111 194.92063492063494,147.30158730158732" style="fill:none; stroke:#ffaa00; stroke-width:0.4" /><polyline points="177.35449735449737,147.72486772486775 178.41269841269843,168.8888888888889" style="fill:none; stroke:#aaff00; stroke-width:0.4" /><polyline points="44.867724867724874,198.51851851851853 47.61904761904762,219.4708994708995" style="fill:none; stroke:#ffaa00; stroke-width:0.4" /><polyline points="48.88888888888889,200.84656084656086 28.571428571428573,206.56084656084658" style="fill:none; stroke:#aaff00; stroke-width:0.4" /><circle cx="87.61904761904762" cy="106.24338624338625" r="1.0" style="fill:#444444; stroke-width:0" /><circle cx="80.42328042328043" cy="131.42857142857144" r="10.582010582010582" style="fill:#ff770022; stroke-width:0" /><circle cx="80.42328042328043" cy="131.42857142857144" r="1.0" style="fill:#ff7700; stroke-width:0" /></svg>