<?xml version="1.0" encoding="UTF-8" standalone="no"?><svg width="582" height="510" viewBox="-10 -10 214 190" xmlns="http://www.w3.org/2000/svg" xmlns:xlink="http://www.w3.org/1999/xlink"><polyline points="35,155 33,149 32,147 31,145 30,143 30,141 29,139 28,137 27,135 27,133 26,131 26,129 25,127 25,125 25,123 27,121 29,120 31,120 33,120 35,121 37,121 39,121 41,121 43,121 45,120 47,118 48,116 49,114 50,112 50,110 50,108 50,106 50,104 49,102 49,100 48,98 48,96 47,94 46,92 45,90 44,88 43,86 41,84 39,82 37,81 35,80 33,80 31,80 29,80 27,81 25,82 23,83 21,85 19,87 17,87 15,87 13,86 11,84 10,82 9,80 9,78 8,76 7,74 7,72 6,70 6,68 5,66 4,64 4,62 3,60 3,58 2,56 1,50" style="fill:none; stroke:#cc0000; stroke-width:1.5" /><polyline points="1,50 5,48 7,48 9,47 11,47 13,47 15,46 17,46 19,45 21,45 23,45 25,45 27,44 29,44 31,44 33,43 35,43 37,43 39,43 41,42 43,42 45,42 47,42 49,41 51,41 53,41 55,40 57,39 58,37 59,35 58,33 57,31 55,30 53,28 51,26 50,24 50,22 50,20 50,18 51,16 53,15 55,13 57,12 59,11 61,10 63,9 65,8 67,7 69,6 71,6 73,5 75,5 77,5 79,4 81,4 83,4 85,6 87,7 88,9 89,11 89,13 89,15 88,17 87,19 86,21 86,23 86,25 87,27 89,28 91,29 93,28 95,28 97,27 99,26 101,26 103,25 105,24 107,23 109,23 111,22 113,21 115,20 117,20 119,19 121,18 123,17 125,16 127,16 129,15 131,14 133,13 135,12 137,11 139,10 141,9 143,8 145,7 147,6 149,6 151,5 158,1" style="fill:none; stroke:#999900; stroke-width:1.5" /><polyline points="158,1 161,5 162,7 163,9 164,11 165,13 166,15 167,17 169,19 170,21 171,23 172,25 173,27 175,29 176,31 177,33 178,35 177,37 176,39 174,40 172,41 170,40 168,39 166,39 164,39 162,38 160,39 158,40 156,41 155,43 154,45 153,47 152,49 152,51 152,53 152,55 152,57 152,59 153,61 153,63 154,65 155,67 156,69 157,71 158,73 160,75 162,77 164,79 166,80 168,80 170,80 172,80 174,79 176,78 178,76 180,74 182,72 184,71 186,71 188,72 190,74 191,76 191,78 191,80 191,82 191,84 191,86 191,88 191,90 191,92 191,94 191,96 191,98 191,100 191,102 192,104 192,108" style="fill:none; stroke:#00aa99; stroke-width:1.5" /><polyline points="192,108 186,110 184,111 182,111 180,112 178,112 176,113 174,113 172,114 170,114 168,115 166,116 164,116 162,117 160,117 158,118 156,119 154,119 152,120 150,121 148,121 146,122 144,123 142,124 140,124 138,125 136,126 134,127 132,128 130,129 128,131 128,133 129,135 131,137 133,138 135,140 136,142 137,144 138,146 139,148 139,150 139,152 138,154 137,156 136,158 135,160 133,161 131,163 129,164 127,165 125,166 123,167 121,167 119,168 117,168 115,168 113,168 111,168 109,168 107,167 105,166 103,164 102,162 101,160 101,158 101,156 101,154 102,152 102,150 103,148 103,146 101,144 99,144 97,144 95,144 93,144 91,145 89,145 87,145 85,145 83,145 81,146 79,146 77,146 75,146 73,147 71,147 69,147 67,147 65,148 63,148 61,149 59,149 57,149 55,150 53,150 51,151 49,151 47,151 45,152 43,152 41,153 35,155" style="fill:none; stroke:#3300bb; stroke-width:1.5" /><polyline points="35,155 33,149 32,147 31,145 30,143 30,141 29,139 28,137 27,135 27,133 26,131 26,129 25,127 25,125 25,123 27,121 29,120 31,120 33,120 35,121 37,121 39,121 41,121 43,121 45,120 47,118 48,116 49,114 50,112 50,110 50,108 50,106 50,104 49,102 49,100 48,98 48,96 47,94 46,92 45,90 44,88 43,86 41,84 39,82 37,81 35,80 33,80 31,80 29,80 27,81 25,82 23,83 21,85 19,87 17,87 15,87 13,86 11,84 10,82 9,80 9,78 8,76 7,74 7,72 6,70 6,68 5,66 4,64 4,62 3,60 3,58 2,56 1,50 5,48 7,48 9,47 11,47 13,47 15,46 17,46 19,45 21,45 23,45 25,45 27,44 29,44 31,44 33,43 35,43 37,43 39,43 41,42 43,42 45,42 47,42 49,41 51,41 53,41 55,40 57,39 58,37 59,35 58,33 57,31 55,30 53,28 51,26 50,24 50,22 50,20 50,18 51,16 53,15 55,13 57,12 59,11 61,10 63,9 65,8 67,7 69,6 71,6 73,5 75,5 77,5 79,4 81,4 83,4 85,6 87,7 88,9 89,11 89,13 89,15 88,17 87,19 86,21 86,23 86,25 87,27 89,28 91,29 93,28 95,28 97,27 99,26 101,26 103,25 105,24 107,23 109,23 111,22 113,21 115,20 117,20 119,19 121,18 123,17 125,16 127,16 129,15 131,14 133,13 135,12 137,11 139,10 141,9 143,8 145,7 147,6 149,6 151,5 158,1 161,5 162,7 163,9 164,11 165,13 166,15 167,17 169,19 170,21 171,23 172,25 173,27 175,29 176,31 177,33 178,35 177,37 176,39 174,40 172,41 170,40 168,39 166,39 164,39 162,38 160,39 158,40 156,41 155,43 154,45 153,47 152,49 152,51 152,53 152,55 152,57 152,59 153,61 153,63 154,65 155,67 156,69 157,71 158,73 160,75 162,77 164,79 166,80 168,80 170,80 172,80 174,79 176,78 178,76 180,74 182,72 184,71 186,71 188,72 190,74 191,76 191,78 191,80 191,82 191,84 191,86 191,88 191,90 191,92 191,94 191,96 191,98 191,100 191,102 192,104 192,108 186,110 184,111 182,111 180,112 178,112 176,113 174,113 172,114 170,114 168,115 166,116 164,116 162,117 160,117 158,118 156,119 154,119 152,120 150,121 148,121 146,122 144,123 142,124 140,124 138,125 136,126 134,127 132,128 130,129 128,131 128,133 129,135 131,137 133,138 135,140 136,142 137,144 138,146 139,148 139,150 139,152 138,154 137,156 136,158 135,160 133,161 131,163 129,164 127,165 125,166 123,167 121,167 119,168 117,168 115,168 113,168 111,168 109,168 107,167 105,166 103,164 102,162 101,160 101,158 101,156 101,154 102,152 102,150 103,148 103,146 101,144 99,144 97,144 95,144 93,144 91,145 89,145 87,145 85,145 83,145 81,146 79,146 77,146 75,146 73,147 71,147 69,147 67,147 65,148 63,148 61,149 59,149 57,149 55,150 53,150 51,151 49,151 47,151 45,152 43,152 41,153 35,155" style="fill:#bbbbbb; stroke-width:0" /><circle cx="35" cy="155" r="1.0" style="fill:#000000; stroke-width:0" /><circle cx="1" cy="50" r="1.0" style="fill:#000000; stroke-width:0" /><circle cx="158" cy="1" r="1.0" style="fill:#000000; stroke-width:0" /><circle cx="192" cy="108" r="1.0" style="fill:#000000; stroke-width:0" /></svg>