<?xml version="1.0" encoding="UTF-8" standalone="no"?><svg width="606" height="618" viewBox="-10 -10 222 226" xmlns="http://www.w3.org/2000/svg" xmlns:xlink="http://www.w3.org/1999/xlink"><polyline points="109,204 102,198 100,196 98,194 96,193 94,191 92,189 90,187 88,186 86,184 84,182 82,180 80,179 78,177 76,176 74,175 72,173 70,173 68,173 66,174 64,176 64,178 64,180 63,182 63,184 62,186 61,188 60,190 58,191 56,193 54,193 52,194 50,194 48,194 46,193 44,193 42,192 40,191 38,190 36,189 34,187 32,186 30,185 28,183 26,182 24,180 23,178 21,176 20,174 20,172 20,170 21,168 23,166 25,164 27,163 29,162 31,161 33,159 34,157 34,155 33,153 31,151 29,150 27,148 25,147 23,146 21,145 19,144 17,143 15,142 13,141 11,140 9,139 7,138 1,135" style="fill:none; stroke:#cc0000; stroke-width:1.5" /><polyline points="1,135 4,129 5,127 6,125 7,123 8,121 9,119 10,117 11,115 12,113 13,111 14,109 15,107 16,105 17,103 18,101 19,99 20,97 21,95 22,93 23,91 24,89 26,87 27,85 28,83 29,81 30,79 32,77 34,76 36,76 38,77 40,79 41,81 42,83 43,85 44,87 45,89 47,91 49,92 51,93 53,93 55,92 57,90 59,88 61,86 63,84 64,82 66,80 67,78 68,76 69,74 70,72 71,70 72,68 72,66 71,64 70,62 69,60 67,59 65,58 63,57 61,57 59,57 57,57 55,56 53,55 52,53 52,51 52,49 53,47 54,45 55,43 56,41 58,39 59,37 60,35 61,33 63,31 64,29 65,27 66,25 68,23 69,21 71,19 72,17 73,15 75,13 76,11 78,9 79,7 84,1" style="fill:none; stroke:#999900; stroke-width:1.5" /><polyline points="84,1 90,4 92,6 94,7 96,8 98,10 100,11 102,12 104,13 106,15 108,16 110,17 112,18 114,20 116,21 118,22 120,24 122,25 124,26 126,27 128,27 130,26 132,25 133,23 133,21 133,19 133,17 134,15 135,13 136,11 138,9 140,8 142,8 144,8 146,8 148,9 150,10 152,10 154,11 156,12 158,13 160,15 162,16 164,17 166,19 168,21 170,23 171,25 172,27 173,29 173,31 173,33 172,35 171,37 169,39 167,41 165,42 163,44 161,46 161,48 161,50 163,52 165,53 167,54 169,54 171,55 173,55 175,55 177,56 179,56 181,57 183,57 185,58 187,59 189,59 191,60 193,61 200,65" style="fill:none; stroke:#00aa99; stroke-width:1.5" /><polyline points="200,65 199,68 198,70 197,72 196,74 195,76 194,78 193,80 192,82 191,84 190,86 189,88 187,90 186,92 185,94 184,96 183,98 181,100 180,102 179,104 177,106 176,108 175,110 173,112 172,114 170,116 169,118 167,120 165,122 163,123 161,124 159,123 157,122 155,120 154,118 153,116 152,114 150,113 148,112 146,111 144,112 142,112 140,113 138,114 136,115 134,116 132,118 130,120 128,122 126,124 125,126 124,128 123,130 122,132 121,134 120,136 120,138 120,140 121,142 122,144 124,146 126,147 128,147 130,147 132,147 134,147 136,147 138,147 140,147 142,149 143,151 143,153 142,155 142,157 140,159 139,161 138,163 137,165 135,167 134,169 133,171 131,173 130,175 129,177 127,179 126,181 125,183 123,185 122,187 120,189 119,191 118,193 116,195 114,197 113,199 109,204" style="fill:none; stroke:#3300bb; stroke-width:1.5" /><polyline points="109,204 102,198 100,196 98,194 96,193 94,191 92,189 90,187 88,186 86,184 84,182 82,180 80,179 78,177 76,176 74,175 72,173 70,173 68,173 66,174 64,176 64,178 64,180 63,182 63,184 62,186 61,188 60,190 58,191 56,193 54,193 52,194 50,194 48,194 46,193 44,193 42,192 40,191 38,190 36,189 34,187 32,186 30,185 28,183 26,182 24,180 23,178 21,176 20,174 20,172 20,170 21,168 23,166 25,164 27,163 29,162 31,161 33,159 34,157 34,155 33,153 31,151 29,150 27,148 25,147 23,146 21,145 19,144 17,143 15,142 13,141 11,140 9,139 7,138 1,135 4,129 5,127 6,125 7,123 8,121 9,119 10,117 11,115 12,113 13,111 14,109 15,107 16,105 17,103 18,101 19,99 20,97 21,95 22,93 23,91 24,89 26,87 27,85 28,83 29,81 30,79 32,77 34,76 36,76 38,77 40,79 41,81 42,83 43,85 44,87 45,89 47,91 49,92 51,93 53,93 55,92 57,90 59,88 61,86 63,84 64,82 66,80 67,78 68,76 69,74 70,72 71,70 72,68 72,66 71,64 70,62 69,60 67,59 65,58 63,57 61,57 59,57 57,57 55,56 53,55 52,53 52,51 52,49 53,47 54,45 55,43 56,41 58,39 59,37 60,35 61,33 63,31 64,29 65,27 66,25 68,23 69,21 71,19 72,17 73,15 75,13 76,11 78,9 79,7 84,1 90,4 92,6 94,7 96,8 98,10 100,11 102,12 104,13 106,15 108,16 110,17 112,18 114,20 116,21 118,22 120,24 122,25 124,26 126,27 128,27 130,26 132,25 133,23 133,21 133,19 133,17 134,15 135,13 136,11 138,9 140,8 142,8 144,8 146,8 148,9 150,10 152,10 154,11 156,12 158,13 160,15 162,16 164,17 166,19 168,21 170,23 171,25 172,27 173,29 173,31 173,33 172,35 171,37 169,39 167,41 165,42 163,44 161,46 161,48 161,50 163,52 165,53 167,54 169,54 171,55 173,55 175,55 177,56 179,56 181,57 183,57 185,58 187,59 189,59 191,60 193,61 200,65 199,68 198,70 197,72 196,74 195,76 194,78 193,80 192,82 191,84 190,86 189,88 187,90 186,92 185,94 184,96 183,98 181,100 180,102 179,104 177,106 176,108 175,110 173,112 172,114 170,116 169,118 167,120 165,122 163,123 161,124 159,123 157,122 155,120 154,118 153,116 152,114 150,113 148,112 146,111 144,112 142,112 140,113 138,114 136,115 134,116 132,118 130,120 128,122 126,124 125,126 124,128 123,130 122,132 121,134 120,136 120,138 120,140 121,142 122,144 124,146 126,147 128,147 130,147 132,147 134,147 136,147 138,147 140,147 142,149 143,151 143,153 142,155 142,157 140,159 139,161 138,163 137,165 135,167 134,169 133,171 131,173 130,175 129,177 127,179 126,181 125,183 123,185 122,187 120,189 119,191 118,193 116,195 114,197 113,199 109,204" style="fill:#bbbbbb; stroke-width:0" /><circle cx="109" cy="204" r="1.0" style="fill:#000000; stroke-width:0" /><circle cx="1" cy="135" r="1.0" style="fill:#000000; stroke-width:0" /><circle cx="84" cy="1" r="1.0" style="fill:#000000; stroke-width:0" /><circle cx="200" cy="65" r="1.0" style="fill:#000000; stroke-width:0" /></svg>