<?xml version="1.0" encoding="UTF-8" standalone="no"?><svg width="477" height="648" viewBox="-10 -10 179 236" xmlns="http://www.w3.org/2000/svg" xmlns:xlink="http://www.w3.org/1999/xlink"><polyline points="124,208 119,207 117,206 115,205 113,205 111,204 109,203 107,202 105,202 103,201 101,200 99,199 97,199 95,197 93,197 91,196 89,195 87,193 85,192 83,191 81,190 79,190 77,190 75,192 73,194 73,196 74,198 74,200 75,202 75,204 76,206 75,208 74,210 73,212 71,213 69,214 67,214 65,214 63,214 61,214 59,214 57,214 55,214 53,214 51,213 49,213 47,212 45,211 43,210 41,210 39,208 37,206 36,204 36,202 36,200 36,198 37,196 39,194 40,192 42,190 43,188 43,186 43,184 41,182 39,181 37,180 35,180 33,179 31,179 29,179 27,178 25,178 23,177 21,177 19,176 17,176 15,176 13,175 11,175 9,175 7,174 1,172" style="fill:none; stroke:#cc0000; stroke-width:1.5" /><polyline points="1,172 2,167 2,165 3,163 3,161 3,159 4,157 4,155 5,153 5,151 6,149 6,147 7,145 7,143 8,141 8,139 9,137 9,135 10,133 10,131 10,129 11,127 11,125 12,123 12,121 13,119 13,117 13,115 14,113 14,111 15,109 15,107 16,105 16,103 17,101 17,99 17,97 18,95 18,93 19,91 19,89 20,87 20,85 21,83 21,81 22,79 22,77 22,75 23,73 23,71 24,69 24,67 25,65 25,63 26,61 26,59 27,57 27,55 27,53 28,51 28,49 29,47 29,45 30,43 30,41 30,39 31,37 31,35 32,33 32,31 33,29 33,27 34,25 35,18" style="fill:none; stroke:#999900; stroke-width:1.5" /><polyline points="35,18 39,19 41,19 43,20 45,21 47,21 49,21 51,22 53,22 55,23 57,23 59,24 61,24 63,25 65,25 67,25 69,26 71,26 73,26 75,24 77,22 77,20 77,18 76,16 76,14 75,12 75,10 75,8 76,6 78,4 80,2 82,2 85,1 87,1 89,1 91,1 93,1 95,1 97,1 99,2 101,2 103,3 105,4 107,5 109,5 111,7 113,9 113,11 114,13 114,15 113,17 113,19 111,21 110,23 108,25 108,27 108,29 108,31 110,33 112,34 114,34 116,34 118,34 120,34 122,33 124,33 126,33 128,33 130,33 132,33 134,33 136,33 138,33 140,33 142,33 144,33 146,33 148,34 150,34 157,35" style="fill:none; stroke:#00aa99; stroke-width:1.5" /><polyline points="157,35 157,39 156,41 156,43 156,45 155,47 155,49 155,51 155,53 154,55 154,57 154,59 154,61 153,63 153,65 153,67 153,69 153,71 152,73 152,75 152,77 152,79 151,81 152,83 151,85 151,87 151,89 151,91 151,93 150,95 150,97 150,99 150,101 150,103 150,105 150,107 150,109 150,111 149,113 149,115 148,117 146,118 144,118 142,118 140,116 139,114 138,112 136,110 134,108 132,107 130,107 128,107 126,108 124,109 122,111 120,113 119,115 118,117 117,119 117,121 116,123 116,125 115,127 115,129 115,131 115,133 115,135 115,137 115,139 116,141 117,143 119,145 121,146 123,147 125,147 127,147 129,147 131,146 133,144 135,143 137,143 139,144 141,145 142,147 142,149 141,151 141,153 141,155 141,157 140,159 140,161 139,163 139,165 138,167 138,169 137,171 137,173 136,175 136,177 135,179 135,181 134,183 133,185 133,187 132,189 131,191 131,193 130,195 129,197 128,199 128,201 124,208" style="fill:none; stroke:#3300bb; stroke-width:1.5" /><polyline points="124,208 119,207 117,206 115,205 113,205 111,204 109,203 107,202 105,202 103,201 101,200 99,199 97,199 95,197 93,197 91,196 89,195 87,193 85,192 83,191 81,190 79,190 77,190 75,192 73,194 73,196 74,198 74,200 75,202 75,204 76,206 75,208 74,210 73,212 71,213 69,214 67,214 65,214 63,214 61,214 59,214 57,214 55,214 53,214 51,213 49,213 47,212 45,211 43,210 41,210 39,208 37,206 36,204 36,202 36,200 36,198 37,196 39,194 40,192 42,190 43,188 43,186 43,184 41,182 39,181 37,180 35,180 33,179 31,179 29,179 27,178 25,178 23,177 21,177 19,176 17,176 15,176 13,175 11,175 9,175 7,174 1,172 2,167 2,165 3,163 3,161 3,159 4,157 4,155 5,153 5,151 6,149 6,147 7,145 7,143 8,141 8,139 9,137 9,135 10,133 10,131 10,129 11,127 11,125 12,123 12,121 13,119 13,117 13,115 14,113 14,111 15,109 15,107 16,105 16,103 17,101 17,99 17,97 18,95 18,93 19,91 19,89 20,87 20,85 21,83 21,81 22,79 22,77 22,75 23,73 23,71 24,69 24,67 25,65 25,63 26,61 26,59 27,57 27,55 27,53 28,51 28,49 29,47 29,45 30,43 30,41 30,39 31,37 31,35 32,33 32,31 33,29 33,27 34,25 35,18 39,19 41,19 43,20 45,21 47,21 49,21 51,22 53,22 55,23 57,23 59,24 61,24 63,25 65,25 67,25 69,26 71,26 73,26 75,24 77,22 77,20 77,18 76,16 76,14 75,12 75,10 75,8 76,6 78,4 80,2 82,2 85,1 87,1 89,1 91,1 93,1 95,1 97,1 99,2 101,2 103,3 105,4 107,5 109,5 111,7 113,9 113,11 114,13 114,15 113,17 113,19 111,21 110,23 108,25 108,27 108,29 108,31 110,33 112,34 114,34 116,34 118,34 120,34 122,33 124,33 126,33 128,33 130,33 132,33 134,33 136,33 138,33 140,33 142,33 144,33 146,33 148,34 150,34 157,35 157,39 156,41 156,43 156,45 155,47 155,49 155,51 155,53 154,55 154,57 154,59 154,61 153,63 153,65 153,67 153,69 153,71 152,73 152,75 152,77 152,79 151,81 152,83 151,85 151,87 151,89 151,91 151,93 150,95 150,97 150,99 150,101 150,103 150,105 150,107 150,109 150,111 149,113 149,115 148,117 146,118 144,118 142,118 140,116 139,114 138,112 136,110 134,108 132,107 130,107 128,107 126,108 124,109 122,111 120,113 119,115 118,117 117,119 117,121 116,123 116,125 115,127 115,129 115,131 115,133 115,135 115,137 115,139 116,141 117,143 119,145 121,146 123,147 125,147 127,147 129,147 131,146 133,144 135,143 137,143 139,144 141,145 142,147 142,149 141,151 141,153 141,155 141,157 140,159 140,161 139,163 139,165 138,167 138,169 137,171 137,173 136,175 136,177 135,179 135,181 134,183 133,185 133,187 132,189 131,191 131,193 130,195 129,197 128,199 128,201 124,208" style="fill:#bbbbbb; stroke-width:0" /><circle cx="124" cy="208" r="1.0" style="fill:#000000; stroke-width:0" /><circle cx="1" cy="172" r="1.0" style="fill:#000000; stroke-width:0" /><circle cx="35" cy="18" r="1.0" style="fill:#000000; stroke-width:0" /><circle cx="157" cy="35" r="1.0" style="fill:#000000; stroke-width:0" /></svg>