<?xml version="1.0" encoding="UTF-8" standalone="no"?><svg width="552" height="447" viewBox="-10 -10 204 169" xmlns="http://www.w3.org/2000/svg" xmlns:xlink="http://www.w3.org/1999/xlink"><polyline points="169,123 165,123 163,122 161,122 159,122 157,122 155,121 153,121 151,121 149,121 147,120 145,120 143,120 141,120 139,119 137,119 135,119 133,119 131,119 129,119 127,118 125,118 123,118 121,118 119,118 117,118 115,118 113,118 111,118 109,118 107,118 105,120 104,122 103,124 104,126 105,128 106,130 108,132 109,134 110,136 110,138 110,140 109,142 107,144 105,146 103,146 101,147 99,147 97,147 95,147 93,147 91,147 89,147 87,146 85,146 83,145 81,145 79,144 77,143 75,142 73,140 71,138 70,136 69,134 69,132 69,130 70,128 71,126 72,124 73,122 74,120 73,118 72,116 70,114 68,114 66,113 64,113 62,113 60,112 58,112 56,112 54,112 52,111 50,111 48,111 46,111 44,111 42,111 40,111 38,110 36,110 34,110 32,110 30,110 28,110 26,110 24,110 22,111 20,111 18,111 16,111 14,111 12,111 10,111 8,111 2,112" style="fill:none; stroke:#cc0000; stroke-width:1.5" /><polyline points="2,112 1,106 1,104 1,102 1,100 1,98 1,96 1,94 1,92 1,90 1,88 1,86 1,84 1,82 1,80 1,78 1,76 1,74 2,72 3,70 5,68 7,68 9,68 11,69 13,70 15,71 17,72 19,73 21,73 23,73 25,72 27,70 29,68 30,66 31,64 33,62 33,60 34,58 34,56 35,54 35,52 35,50 35,48 35,46 35,44 35,42 35,40 34,38 34,36 32,34 30,33 28,32 26,31 24,32 22,32 20,33 18,34 16,35 14,35 12,35 10,34 8,32 8,30 7,28 8,26 7,24 7,22 7,20 7,18 7,16 7,14 8,12 8,10 8,8 7,2" style="fill:none; stroke:#999900; stroke-width:1.5" /><polyline points="7,2 12,1 14,1 16,1 18,1 20,1 22,2 24,2 26,2 28,2 30,2 32,2 34,3 36,3 38,3 40,3 42,3 44,3 46,3 48,3 50,3 52,3 54,4 56,4 58,4 60,4 62,4 64,4 66,4 68,4 70,4 72,4 74,5 76,5 78,5 80,5 82,5 84,5 86,5 88,5 90,5 92,5 94,5 96,5 98,6 100,6 102,6 104,6 106,6 108,6 110,6 112,6 114,6 116,6 118,7 120,7 122,7 124,7 126,7 128,7 130,7 132,7 134,7 136,7 138,7 140,8 142,8 144,8 146,8 148,8 150,8 152,8 154,8 156,8 158,9 160,9 162,9 164,9 166,9 168,9 170,9 172,9 178,10" style="fill:none; stroke:#00aa99; stroke-width:1.5" /><polyline points="178,10 178,16 178,18 178,20 178,22 178,24 178,26 178,28 178,30 178,32 178,34 177,36 177,38 177,40 176,42 175,44 173,45 171,45 169,44 167,43 165,41 163,40 161,40 159,39 157,40 155,42 153,44 152,46 151,48 150,50 149,52 148,54 148,56 148,58 148,60 148,62 148,64 149,66 150,68 151,70 152,72 153,74 155,76 157,77 159,79 161,80 163,80 165,80 167,80 169,79 171,77 173,76 175,75 177,75 179,76 181,78 182,80 182,82 181,84 180,86 180,88 179,90 178,92 178,94 177,96 176,98 176,100 175,102 175,104 174,106 173,108 173,110 172,112 172,114 171,116 169,123" style="fill:none; stroke:#3300bb; stroke-width:1.5" /><polyline points="169,123 165,123 163,122 161,122 159,122 157,122 155,121 153,121 151,121 149,121 147,120 145,120 143,120 141,120 139,119 137,119 135,119 133,119 131,119 129,119 127,118 125,118 123,118 121,118 119,118 117,118 115,118 113,118 111,118 109,118 107,118 105,120 104,122 103,124 104,126 105,128 106,130 108,132 109,134 110,136 110,138 110,140 109,142 107,144 105,146 103,146 101,147 99,147 97,147 95,147 93,147 91,147 89,147 87,146 85,146 83,145 81,145 79,144 77,143 75,142 73,140 71,138 70,136 69,134 69,132 69,130 70,128 71,126 72,124 73,122 74,120 73,118 72,116 70,114 68,114 66,113 64,113 62,113 60,112 58,112 56,112 54,112 52,111 50,111 48,111 46,111 44,111 42,111 40,111 38,110 36,110 34,110 32,110 30,110 28,110 26,110 24,110 22,111 20,111 18,111 16,111 14,111 12,111 10,111 8,111 2,112 1,106 1,104 1,102 1,100 1,98 1,96 1,94 1,92 1,90 1,88 1,86 1,84 1,82 1,80 1,78 1,76 1,74 2,72 3,70 5,68 7,68 9,68 11,69 13,70 15,71 17,72 19,73 21,73 23,73 25,72 27,70 29,68 30,66 31,64 33,62 33,60 34,58 34,56 35,54 35,52 35,50 35,48 35,46 35,44 35,42 35,40 34,38 34,36 32,34 30,33 28,32 26,31 24,32 22,32 20,33 18,34 16,35 14,35 12,35 10,34 8,32 8,30 7,28 8,26 7,24 7,22 7,20 7,18 7,16 7,14 8,12 8,10 8,8 7,2 12,1 14,1 16,1 18,1 20,1 22,2 24,2 26,2 28,2 30,2 32,2 34,3 36,3 38,3 40,3 42,3 44,3 46,3 48,3 50,3 52,3 54,4 56,4 58,4 60,4 62,4 64,4 66,4 68,4 70,4 72,4 74,5 76,5 78,5 80,5 82,5 84,5 86,5 88,5 90,5 92,5 94,5 96,5 98,6 100,6 102,6 104,6 106,6 108,6 110,6 112,6 114,6 116,6 118,7 120,7 122,7 124,7 126,7 128,7 130,7 132,7 134,7 136,7 138,7 140,8 142,8 144,8 146,8 148,8 150,8 152,8 154,8 156,8 158,9 160,9 162,9 164,9 166,9 168,9 170,9 172,9 178,10 178,16 178,18 178,20 178,22 178,24 178,26 178,28 178,30 178,32 178,34 177,36 177,38 177,40 176,42 175,44 173,45 171,45 169,44 167,43 165,41 163,40 161,40 159,39 157,40 155,42 153,44 152,46 151,48 150,50 149,52 148,54 148,56 148,58 148,60 148,62 148,64 149,66 150,68 151,70 152,72 153,74 155,76 157,77 159,79 161,80 163,80 165,80 167,80 169,79 171,77 173,76 175,75 177,75 179,76 181,78 182,80 182,82 181,84 180,86 180,88 179,90 178,92 178,94 177,96 176,98 176,100 175,102 175,104 174,106 173,108 173,110 172,112 172,114 171,116 169,123" style="fill:#bbbbbb; stroke-width:0" /><circle cx="169" cy="123" r="1.0" style="fill:#000000; stroke-width:0" /><circle cx="2" cy="112" r="1.0" style="fill:#000000; stroke-width:0" /><circle cx="7" cy="2" r="1.0" style="fill:#000000; stroke-width:0" /><circle cx="178" cy="10" r="1.0" style="fill:#000000; stroke-width:0" /></svg>