<?xml version="1.0" encoding="UTF-8" standalone="no"?><svg width="603" height="537" viewBox="-10 -10 221 199" xmlns="http://www.w3.org/2000/svg" xmlns:xlink="http://www.w3.org/1999/xlink"><polyline points="31,176 27,171 27,169 26,167 25,165 24,163 24,161 23,159 23,157 22,155 21,153 21,151 20,149 20,147 19,145 19,143 19,141 18,139 18,137 18,135 17,133 18,131 19,129 21,127 23,127 25,127 27,128 29,129 31,129 33,130 35,129 37,129 39,128 41,126 42,124 42,122 43,120 43,118 43,116 43,114 42,112 42,110 41,108 41,106 40,104 39,102 38,100 37,98 36,96 34,94 32,93 30,92 28,92 26,92 24,92 22,94 20,95 18,97 16,98 14,98 12,97 10,96 9,94 8,92 8,90 8,88 7,86 7,84 7,82 6,80 6,78 6,76 5,74 5,72 5,70 5,68 4,66 4,64 4,62 3,58" style="fill:none; stroke:#cc0000; stroke-width:1.5" /><polyline points="3,58 7,57 9,57 11,56 13,55 15,55 17,55 19,54 21,53 23,53 25,52 27,52 29,51 31,50 33,50 35,49 37,48 39,48 41,47 43,46 45,46 47,45 49,44 51,44 53,43 55,42 57,41 59,41 61,40 63,39 65,38 67,37 69,36 71,35 73,34 75,33 76,31 76,29 76,27 75,25 73,23 71,21 70,19 69,17 69,15 69,13 70,11 71,9 73,7 75,6 77,5 79,4 81,3 83,3 85,2 87,2 89,2 91,2 94,1 96,1 98,1 100,1 102,1 104,2 106,3 108,4 110,6 111,8 111,10 111,12 111,14 110,16 109,18 108,20 108,22 109,24 111,26 113,27 115,27 117,27 119,26 121,26 123,26 125,26 127,26 129,25 131,25 133,25 135,25 137,24 139,24 141,23 143,23 145,23 147,22 149,22 151,22 153,21 155,21 157,20 159,20 161,19 165,18" style="fill:none; stroke:#999900; stroke-width:1.5" /><polyline points="165,18 169,23 169,25 170,27 171,29 171,31 172,33 173,35 174,37 174,39 175,41 176,43 177,45 178,47 178,49 177,51 176,53 174,54 172,54 170,54 168,53 166,53 164,53 162,53 160,53 158,54 156,56 155,58 154,60 153,62 153,64 153,66 153,68 153,70 153,72 153,74 153,76 154,78 154,80 155,82 155,84 156,86 157,88 159,90 161,91 163,92 165,92 167,92 169,92 171,91 173,89 175,87 177,87 179,86 181,87 183,87 185,89 186,91 187,93 188,95 189,97 190,99 191,101 192,103 193,105 193,107 194,109 195,111 195,113 196,115 197,117 197,119 198,121 198,127" style="fill:none; stroke:#00aa99; stroke-width:1.5" /><polyline points="198,127 193,128 191,128 189,128 187,128 185,128 183,129 181,129 179,129 177,130 175,130 173,131 171,131 169,131 167,132 165,132 163,133 161,133 159,134 157,134 155,135 153,135 151,136 149,136 147,137 145,137 143,138 141,138 139,139 137,141 136,143 136,145 137,147 139,149 141,150 143,152 144,154 145,156 146,158 146,160 146,162 145,164 143,166 141,168 139,170 137,171 135,171 133,172 131,173 129,173 127,174 125,174 123,174 121,174 119,175 117,174 115,174 113,174 111,174 109,173 107,172 105,171 103,169 102,167 101,165 101,163 102,161 102,159 103,157 104,155 105,153 104,151 103,149 101,148 99,148 97,148 95,149 93,150 91,151 89,152 87,153 85,154 83,155 81,156 79,157 77,158 75,159 73,160 71,160 69,161 67,162 65,163 63,164 61,165 59,166 57,167 55,167 53,168 51,169 49,170 47,171 45,171 43,172 41,173 39,174 37,174 35,175 31,176" style="fill:none; stroke:#3300bb; stroke-width:1.5" /><polyline points="31,176 27,171 27,169 26,167 25,165 24,163 24,161 23,159 23,157 22,155 21,153 21,151 20,149 20,147 19,145 19,143 19,141 18,139 18,137 18,135 17,133 18,131 19,129 21,127 23,127 25,127 27,128 29,129 31,129 33,130 35,129 37,129 39,128 41,126 42,124 42,122 43,120 43,118 43,116 43,114 42,112 42,110 41,108 41,106 40,104 39,102 38,100 37,98 36,96 34,94 32,93 30,92 28,92 26,92 24,92 22,94 20,95 18,97 16,98 14,98 12,97 10,96 9,94 8,92 8,90 8,88 7,86 7,84 7,82 6,80 6,78 6,76 5,74 5,72 5,70 5,68 4,66 4,64 4,62 3,58 7,57 9,57 11,56 13,55 15,55 17,55 19,54 21,53 23,53 25,52 27,52 29,51 31,50 33,50 35,49 37,48 39,48 41,47 43,46 45,46 47,45 49,44 51,44 53,43 55,42 57,41 59,41 61,40 63,39 65,38 67,37 69,36 71,35 73,34 75,33 76,31 76,29 76,27 75,25 73,23 71,21 70,19 69,17 69,15 69,13 70,11 71,9 73,7 75,6 77,5 79,4 81,3 83,3 85,2 87,2 89,2 91,2 94,1 96,1 98,1 100,1 102,1 104,2 106,3 108,4 110,6 111,8 111,10 111,12 111,14 110,16 109,18 108,20 108,22 109,24 111,26 113,27 115,27 117,27 119,26 121,26 123,26 125,26 127,26 129,25 131,25 133,25 135,25 137,24 139,24 141,23 143,23 145,23 147,22 149,22 151,22 153,21 155,21 157,20 159,20 161,19 165,18 169,23 169,25 170,27 171,29 171,31 172,33 173,35 174,37 174,39 175,41 176,43 177,45 178,47 178,49 177,51 176,53 174,54 172,54 170,54 168,53 166,53 164,53 162,53 160,53 158,54 156,56 155,58 154,60 153,62 153,64 153,66 153,68 153,70 153,72 153,74 153,76 154,78 154,80 155,82 155,84 156,86 157,88 159,90 161,91 163,92 165,92 167,92 169,92 171,91 173,89 175,87 177,87 179,86 181,87 183,87 185,89 186,91 187,93 188,95 189,97 190,99 191,101 192,103 193,105 193,107 194,109 195,111 195,113 196,115 197,117 197,119 198,121 198,127 193,128 191,128 189,128 187,128 185,128 183,129 181,129 179,129 177,130 175,130 173,131 171,131 169,131 167,132 165,132 163,133 161,133 159,134 157,134 155,135 153,135 151,136 149,136 147,137 145,137 143,138 141,138 139,139 137,141 136,143 136,145 137,147 139,149 141,150 143,152 144,154 145,156 146,158 146,160 146,162 145,164 143,166 141,168 139,170 137,171 135,171 133,172 131,173 129,173 127,174 125,174 123,174 121,174 119,175 117,174 115,174 113,174 111,174 109,173 107,172 105,171 103,169 102,167 101,165 101,163 102,161 102,159 103,157 104,155 105,153 104,151 103,149 101,148 99,148 97,148 95,149 93,150 91,151 89,152 87,153 85,154 83,155 81,156 79,157 77,158 75,159 73,160 71,160 69,161 67,162 65,163 63,164 61,165 59,166 57,167 55,167 53,168 51,169 49,170 47,171 45,171 43,172 41,173 39,174 37,174 35,175 31,176" style="fill:#bbbbbb; stroke-width:0" /><circle cx="31" cy="176" r="1.0" style="fill:#000000; stroke-width:0" /><circle cx="3" cy="58" r="1.0" style="fill:#000000; stroke-width:0" /><circle cx="165" cy="18" r="1.0" style="fill:#000000; stroke-width:0" /><circle cx="198" cy="127" r="1.0" style="fill:#000000; stroke-width:0" /></svg>