<?xml version="1.0" encoding="UTF-8" standalone="no"?><svg width="537" height="645" viewBox="-10 -10 199 235" xmlns="http://www.w3.org/2000/svg" xmlns:xlink="http://www.w3.org/1999/xlink"><polyline points="57,213 54,205 53,203 52,201 51,199 50,197 49,195 49,193 48,191 47,189 46,187 45,185 44,183 43,181 42,179 42,177 41,175 40,173 39,171 38,169 37,167 36,165 36,163 35,161 34,159 33,157 33,155 33,153 34,151 36,149 38,149 40,150 42,151 44,151 46,152 48,152 50,152 52,151 54,149 56,147 57,145 57,143 58,141 58,139 58,137 58,135 57,133 57,131 56,129 55,127 55,125 54,123 52,121 51,119 49,117 47,115 45,114 43,113 41,113 39,113 37,113 35,114 33,115 31,117 29,119 27,121 26,123 24,125 22,126 20,125 18,124 17,122 17,120 16,118 16,116 15,114 15,112 15,110 14,108 14,106 14,104 13,102 13,100 12,98 12,96 12,94 11,92 11,90 11,88 10,86 10,84 9,82 9,80 9,78 8,76 8,74 7,72 7,70 7,68 6,66 6,64 5,62 5,60 4,58 4,56 3,54 3,52 2,50 1,43" style="fill:none; stroke:#cc0000; stroke-width:1.5" /><polyline points="1,43 5,42 7,41 9,41 11,41 13,40 15,40 17,40 19,40 21,39 23,39 25,39 27,39 29,39 31,38 33,38 35,38 37,38 39,37 41,35 42,33 42,31 41,29 39,27 37,25 35,23 34,21 33,19 33,17 33,15 34,13 36,11 38,9 40,8 42,7 44,6 46,5 48,4 50,3 52,3 54,2 56,2 58,2 60,2 62,2 65,2 67,3 69,4 71,6 72,8 72,10 73,12 73,14 72,16 72,18 72,20 72,22 74,24 76,25 78,25 80,25 82,24 84,23 86,22 88,21 90,20 92,19 94,19 96,18 98,17 100,16 102,16 104,15 106,14 112,12" style="fill:none; stroke:#999900; stroke-width:1.5" /><polyline points="112,12 116,18 117,20 118,22 119,24 120,26 121,28 122,30 123,32 124,34 125,36 126,38 128,40 129,42 130,44 131,46 132,48 134,50 135,52 136,54 138,56 139,58 140,60 141,62 143,64 144,66 146,68 147,70 149,72 150,74 151,76 152,78 151,80 150,82 148,82 146,82 144,82 142,81 140,81 138,80 136,81 134,81 132,82 130,84 128,86 128,88 127,90 127,92 127,94 128,96 128,98 129,100 129,102 130,104 130,106 131,108 132,110 133,112 134,114 135,116 137,118 139,119 141,121 143,122 145,122 147,121 149,120 151,119 153,117 155,115 157,113 159,112 161,113 163,114 164,116 165,118 165,120 165,122 166,124 166,126 167,128 167,130 167,132 168,134 168,136 169,138 169,140 170,142 170,144 171,146 171,148 172,150 172,152 172,154 173,156 173,158 174,160 174,162 175,164 175,166 176,172" style="fill:none; stroke:#00aa99; stroke-width:1.5" /><polyline points="176,172 171,174 169,175 167,176 165,176 163,177 161,178 159,178 157,179 155,180 153,180 151,181 149,182 147,182 145,183 143,184 141,184 139,185 137,186 135,186 133,187 131,188 129,188 127,189 125,190 123,191 121,191 119,192 117,193 115,193 113,194 111,194 109,195 107,196 105,197 103,197 101,198 99,199 97,199 95,200 93,201 91,201 89,202 87,203 85,203 83,204 81,205 79,205 77,206 75,207 73,207 71,208 69,209 67,209 65,210 63,211 61,211 57,213" style="fill:none; stroke:#3300bb; stroke-width:1.5" /><polyline points="57,213 54,205 53,203 52,201 51,199 50,197 49,195 49,193 48,191 47,189 46,187 45,185 44,183 43,181 42,179 42,177 41,175 40,173 39,171 38,169 37,167 36,165 36,163 35,161 34,159 33,157 33,155 33,153 34,151 36,149 38,149 40,150 42,151 44,151 46,152 48,152 50,152 52,151 54,149 56,147 57,145 57,143 58,141 58,139 58,137 58,135 57,133 57,131 56,129 55,127 55,125 54,123 52,121 51,119 49,117 47,115 45,114 43,113 41,113 39,113 37,113 35,114 33,115 31,117 29,119 27,121 26,123 24,125 22,126 20,125 18,124 17,122 17,120 16,118 16,116 15,114 15,112 15,110 14,108 14,106 14,104 13,102 13,100 12,98 12,96 12,94 11,92 11,90 11,88 10,86 10,84 9,82 9,80 9,78 8,76 8,74 7,72 7,70 7,68 6,66 6,64 5,62 5,60 4,58 4,56 3,54 3,52 2,50 1,43 5,42 7,41 9,41 11,41 13,40 15,40 17,40 19,40 21,39 23,39 25,39 27,39 29,39 31,38 33,38 35,38 37,38 39,37 41,35 42,33 42,31 41,29 39,27 37,25 35,23 34,21 33,19 33,17 33,15 34,13 36,11 38,9 40,8 42,7 44,6 46,5 48,4 50,3 52,3 54,2 56,2 58,2 60,2 62,2 65,2 67,3 69,4 71,6 72,8 72,10 73,12 73,14 72,16 72,18 72,20 72,22 74,24 76,25 78,25 80,25 82,24 84,23 86,22 88,21 90,20 92,19 94,19 96,18 98,17 100,16 102,16 104,15 106,14 112,12 116,18 117,20 118,22 119,24 120,26 121,28 122,30 123,32 124,34 125,36 126,38 128,40 129,42 130,44 131,46 132,48 134,50 135,52 136,54 138,56 139,58 140,60 141,62 143,64 144,66 146,68 147,70 149,72 150,74 151,76 152,78 151,80 150,82 148,82 146,82 144,82 142,81 140,81 138,80 136,81 134,81 132,82 130,84 128,86 128,88 127,90 127,92 127,94 128,96 128,98 129,100 129,102 130,104 130,106 131,108 132,110 133,112 134,114 135,116 137,118 139,119 141,121 143,122 145,122 147,121 149,120 151,119 153,117 155,115 157,113 159,112 161,113 163,114 164,116 165,118 165,120 165,122 166,124 166,126 167,128 167,130 167,132 168,134 168,136 169,138 169,140 170,142 170,144 171,146 171,148 172,150 172,152 172,154 173,156 173,158 174,160 174,162 175,164 175,166 176,172 171,174 169,175 167,176 165,176 163,177 161,178 159,178 157,179 155,180 153,180 151,181 149,182 147,182 145,183 143,184 141,184 139,185 137,186 135,186 133,187 131,188 129,188 127,189 125,190 123,191 121,191 119,192 117,193 115,193 113,194 111,194 109,195 107,196 105,197 103,197 101,198 99,199 97,199 95,200 93,201 91,201 89,202 87,203 85,203 83,204 81,205 79,205 77,206 75,207 73,207 71,208 69,209 67,209 65,210 63,211 61,211 57,213" style="fill:#bbbbbb; stroke-width:0" /><circle cx="57" cy="213" r="1.0" style="fill:#000000; stroke-width:0" /><circle cx="1" cy="43" r="1.0" style="fill:#000000; stroke-width:0" /><circle cx="112" cy="12" r="1.0" style="fill:#000000; stroke-width:0" /><circle cx="176" cy="172" r="1.0" style="fill:#000000; stroke-width:0" /></svg>